<?xml version='1.0' encoding='utf-8'?>
<mlt LC_NUMERIC="C" producer="main_bin" version="7.4.0" root="/home/liquidzulu/Documents/youtube-scripts/scripts/primitivism">
 <profile frame_rate_num="30" sample_aspect_num="1" display_aspect_den="9" colorspace="709" progressive="1" description="HD 1080p 30 fps" display_aspect_num="16" frame_rate_den="1" width="1920" height="1080" sample_aspect_den="1"/>
 <producer id="producer1" in="00:00:00.000" out="00:19:12.000">
  <property name="length">34561</property>
  <property name="eof">pause</property>
  <property name="resource">assets/2022-03-29 15-35-06.mkv</property>
  <property name="audio_index">1</property>
  <property name="video_index">0</property>
  <property name="mute_on_pause">0</property>
  <property name="mlt_service">avformat-novalidate</property>
  <property name="seekable">1</property>
  <property name="aspect_ratio">1</property>
  <property name="kdenlive:clipname"/>
  <property name="kdenlive:folderid">6</property>
  <property name="kdenlive:id">2</property>
  <property name="kdenlive:file_size">1463082513</property>
  <property name="kdenlive:file_hash">891131df8801b66b23aa5f9178f214d0</property>
  <property name="meta.media.nb_streams">2</property>
  <property name="meta.media.0.stream.type">video</property>
  <property name="meta.media.0.stream.frame_rate">30</property>
  <property name="meta.media.0.stream.sample_aspect_ratio">0</property>
  <property name="meta.media.0.codec.width">1920</property>
  <property name="meta.media.0.codec.height">1080</property>
  <property name="meta.media.0.codec.rotate">0</property>
  <property name="meta.media.0.codec.pix_fmt">yuv420p</property>
  <property name="meta.media.0.codec.sample_aspect_ratio">1</property>
  <property name="meta.media.0.codec.colorspace">709</property>
  <property name="meta.media.0.codec.color_trc">1</property>
  <property name="meta.media.0.codec.name">h264</property>
  <property name="meta.media.0.codec.long_name">H.264 / AVC / MPEG-4 AVC / MPEG-4 part 10</property>
  <property name="meta.media.0.codec.bit_rate">0</property>
  <property name="meta.attr.0.stream.DURATION.markup">00:19:12.033000000</property>
  <property name="meta.media.1.stream.type">audio</property>
  <property name="meta.media.1.codec.sample_fmt">fltp</property>
  <property name="meta.media.1.codec.sample_rate">48000</property>
  <property name="meta.media.1.codec.channels">2</property>
  <property name="meta.media.1.codec.name">aac</property>
  <property name="meta.media.1.codec.long_name">AAC (Advanced Audio Coding)</property>
  <property name="meta.media.1.codec.bit_rate">0</property>
  <property name="meta.attr.1.stream.title.markup">simple_aac_recording</property>
  <property name="meta.attr.1.stream.DURATION.markup">00:19:11.914000000</property>
  <property name="meta.attr.ENCODER.markup">Lavf58.76.100</property>
  <property name="meta.media.sample_aspect_num">1</property>
  <property name="meta.media.sample_aspect_den">1</property>
  <property name="meta.media.frame_rate_num">30</property>
  <property name="meta.media.frame_rate_den">1</property>
  <property name="meta.media.colorspace">709</property>
  <property name="meta.media.color_trc">1</property>
  <property name="meta.media.has_b_frames">1</property>
  <property name="meta.media.width">1920</property>
  <property name="meta.media.height">1080</property>
  <property name="meta.media.color_range">mpeg</property>
  <property name="meta.media.top_field_first">0</property>
  <property name="meta.media.progressive">1</property>
  <property name="kdenlive:audio_max1">190</property>
 </producer>
 <producer id="producer2" in="00:00:00.000" out="00:19:11.933">
  <property name="length">34559</property>
  <property name="eof">pause</property>
  <property name="resource">assets/audio.flac</property>
  <property name="meta.media.nb_streams">1</property>
  <property name="meta.media.0.stream.type">audio</property>
  <property name="meta.media.0.codec.sample_fmt">s16</property>
  <property name="meta.media.0.codec.sample_rate">44100</property>
  <property name="meta.media.0.codec.channels">2</property>
  <property name="meta.media.0.codec.name">flac</property>
  <property name="meta.media.0.codec.long_name">FLAC (Free Lossless Audio Codec)</property>
  <property name="meta.media.0.codec.bit_rate">0</property>
  <property name="meta.attr.ENCODER.markup">FL Studio</property>
  <property name="seekable">1</property>
  <property name="audio_index">0</property>
  <property name="video_index">-1</property>
  <property name="mute_on_pause">1</property>
  <property name="mlt_service">avformat</property>
  <property name="kdenlive:clipname"/>
  <property name="kdenlive:folderid">7</property>
  <property name="kdenlive:id">3</property>
  <property name="kdenlive:file_size">91240844</property>
  <property name="kdenlive:file_hash">7ec4f5695ab5e68d3eb76d4044555e52</property>
  <property name="kdenlive:audio_max0">242</property>
 </producer>
 <producer id="producer0" in="00:00:00.000" out="00:03:30.367">
  <property name="length">6312</property>
  <property name="eof">pause</property>
  <property name="resource">/home/liquidzulu/Music/youtube-music/you take some chocolate and some lobster and some eggs and some pie [r5yEYPKf66k].mp3</property>
  <property name="meta.media.nb_streams">1</property>
  <property name="meta.media.0.stream.type">audio</property>
  <property name="meta.media.0.codec.sample_fmt">fltp</property>
  <property name="meta.media.0.codec.sample_rate">48000</property>
  <property name="meta.media.0.codec.channels">2</property>
  <property name="meta.media.0.codec.name">mp3float</property>
  <property name="meta.media.0.codec.long_name">MP3 (MPEG audio layer 3)</property>
  <property name="meta.media.0.codec.bit_rate">119577</property>
  <property name="meta.attr.0.stream.encoder.markup">Lavc59.18</property>
  <property name="meta.attr.encoder.markup">Lavf59.16.100</property>
  <property name="seekable">1</property>
  <property name="audio_index">0</property>
  <property name="video_index">-1</property>
  <property name="mute_on_pause">1</property>
  <property name="mlt_service">avformat</property>
  <property name="kdenlive:clipname"/>
  <property name="kdenlive:folderid">5</property>
  <property name="kdenlive:id">4</property>
  <property name="kdenlive:file_size">3144669</property>
  <property name="kdenlive:file_hash">7ac062316c20084a5680fde88b4ec0b5</property>
  <property name="kdenlive:audio_max0">241</property>
 </producer>
 <producer id="producer3" in="00:00:00.000" out="00:03:55.067">
  <property name="length">7053</property>
  <property name="eof">pause</property>
  <property name="resource">/home/liquidzulu/Music/youtube-music/The Epic Of Gilgamesh In Sumerian [QUcTsFe1PVs].mp3</property>
  <property name="meta.media.nb_streams">1</property>
  <property name="meta.media.0.stream.type">audio</property>
  <property name="meta.media.0.codec.sample_fmt">fltp</property>
  <property name="meta.media.0.codec.sample_rate">48000</property>
  <property name="meta.media.0.codec.channels">2</property>
  <property name="meta.media.0.codec.name">mp3float</property>
  <property name="meta.media.0.codec.long_name">MP3 (MPEG audio layer 3)</property>
  <property name="meta.media.0.codec.bit_rate">100157</property>
  <property name="meta.attr.0.stream.encoder.markup">Lavc59.18</property>
  <property name="meta.attr.encoder.markup">Lavf59.16.100</property>
  <property name="seekable">1</property>
  <property name="audio_index">0</property>
  <property name="video_index">-1</property>
  <property name="mute_on_pause">1</property>
  <property name="mlt_service">avformat</property>
  <property name="kdenlive:clipname"/>
  <property name="kdenlive:folderid">5</property>
  <property name="kdenlive:id">8</property>
  <property name="kdenlive:file_size">2943453</property>
  <property name="kdenlive:file_hash">749e28626b24e12762f1ca817a98ee12</property>
  <property name="kdenlive:audio_max0">187</property>
 </producer>
 <producer id="producer6" in="00:00:00.000" out="00:00:04.967">
  <property name="length">00:00:05.000</property>
  <property name="eof">pause</property>
  <property name="resource">assets/ATLAS-OF-PLACES-STANLEY-KUBRICK-2001-A-SPACE-ODYSSEY-IMG-1.webp</property>
  <property name="ttl">25</property>
  <property name="aspect_ratio">1</property>
  <property name="progressive">1</property>
  <property name="seekable">1</property>
  <property name="meta.media.width">1200</property>
  <property name="meta.media.height">545</property>
  <property name="mlt_service">qimage</property>
  <property name="kdenlive:clipname"/>
  <property name="kdenlive:duration">00:00:05.000</property>
  <property name="kdenlive:folderid">12</property>
  <property name="kdenlive:id">9</property>
  <property name="kdenlive:file_size">29500</property>
  <property name="kdenlive:file_hash">857d46c0c1f51933a1a5e9ed1ad5e5b9</property>
 </producer>
 <producer id="producer4" in="00:00:00.000" out="00:00:08.233">
  <property name="length">248</property>
  <property name="eof">pause</property>
  <property name="resource">assets/Ra_and_co.webp</property>
  <property name="ttl">25</property>
  <property name="aspect_ratio">1</property>
  <property name="progressive">1</property>
  <property name="seekable">1</property>
  <property name="meta.media.width">853</property>
  <property name="meta.media.height">454</property>
  <property name="mlt_service">qimage</property>
  <property name="kdenlive:clipname"/>
  <property name="kdenlive:duration">00:00:05.000</property>
  <property name="kdenlive:folderid">12</property>
  <property name="kdenlive:id">10</property>
  <property name="kdenlive:file_size">30422</property>
  <property name="kdenlive:file_hash">6af933e1ab126e707a0125f3d5979445</property>
 </producer>
 <producer id="producer5" in="00:00:00.000" out="00:00:04.967">
  <property name="length">00:00:05.000</property>
  <property name="eof">pause</property>
  <property name="resource">assets/The-Flintstones-014.webp</property>
  <property name="ttl">25</property>
  <property name="aspect_ratio">1</property>
  <property name="progressive">1</property>
  <property name="seekable">1</property>
  <property name="meta.media.width">1200</property>
  <property name="meta.media.height">720</property>
  <property name="mlt_service">qimage</property>
  <property name="kdenlive:clipname"/>
  <property name="kdenlive:duration">00:00:05.000</property>
  <property name="kdenlive:folderid">12</property>
  <property name="kdenlive:id">11</property>
  <property name="kdenlive:file_size">148716</property>
  <property name="kdenlive:file_hash">7ea2554c2a690fe4ff84a3d692eeeb16</property>
 </producer>
 <producer id="producer7" in="00:00:00.000" out="00:00:04.967">
  <property name="length">150</property>
  <property name="eof">pause</property>
  <property name="resource"/>
  <property name="progressive">1</property>
  <property name="aspect_ratio">1</property>
  <property name="seekable">1</property>
  <property name="mlt_service">kdenlivetitle</property>
  <property name="kdenlive:duration">150</property>
  <property name="kdenlive:clipname">Technology a...</property>
  <property name="xmldata">&lt;kdenlivetitle duration="150" LC_NUMERIC="C" width="1920" height="1080" out="149">
 &lt;item type="QGraphicsTextItem" z-index="0">
  &lt;position x="606" y="295">
   &lt;transform>1,0,0,0,1,0,0,0,1&lt;/transform>
  &lt;/position>
  &lt;content line-spacing="0" shadow="0;#64000000;3;3;3" font-underline="0" box-height="489" font-outline-color="0,0,0,255" font="Open Sans ExtraBold" letter-spacing="0" font-pixel-size="120" font-italic="0" typewriter="0;2;1;0;0" alignment="4" font-weight="50" font-outline="2.5" box-width="707.453" font-color="255,255,255,255">Technology
and the
Apocalypse&lt;/content>
 &lt;/item>
 &lt;startviewport rect="0,0,1920,1080"/>
 &lt;endviewport rect="0,0,1920,1080"/>
 &lt;background color="0,0,0,0"/>
&lt;/kdenlivetitle>
</property>
  <property name="kdenlive:folderid">13</property>
  <property name="kdenlive:id">14</property>
  <property name="kdenlive:file_hash">9dd28949fd207b666bbbcd58da03b135</property>
  <property name="force_reload">0</property>
  <property name="meta.media.width">1920</property>
  <property name="meta.media.height">1080</property>
 </producer>
 <producer id="producer8" in="00:00:00.000" out="00:00:04.967">
  <property name="length">150</property>
  <property name="eof">pause</property>
  <property name="progressive">1</property>
  <property name="aspect_ratio">1</property>
  <property name="seekable">1</property>
  <property name="mlt_service">kdenlivetitle</property>
  <property name="kdenlive:duration">150</property>
  <property name="kdenlive:clipname">Technology a...</property>
  <property name="xmldata">&lt;kdenlivetitle duration="150" LC_NUMERIC="C" width="1920" height="1080" out="149">
 &lt;item type="QGraphicsTextItem" z-index="0">
  &lt;position x="462" y="306">
   &lt;transform>1,0,0,0,1,0,0,0,1&lt;/transform>
  &lt;/position>
  &lt;content line-spacing="0" shadow="0;#64000000;3;3;3" font-underline="0" box-height="468" font-outline-color="0,0,0,255" font="Zarathustra" letter-spacing="0" font-pixel-size="120" font-italic="0" typewriter="0;2;1;0;0" alignment="4" font-weight="50" font-outline="2.5" box-width="996.688" font-color="255,255,255,255">Technology
and the
Apocalypse&lt;/content>
 &lt;/item>
 &lt;startviewport rect="0,0,1920,1080"/>
 &lt;endviewport rect="0,0,1920,1080"/>
 &lt;background color="0,0,0,0"/>
&lt;/kdenlivetitle>
</property>
  <property name="kdenlive:folderid">13</property>
  <property name="kdenlive:id">15</property>
  <property name="kdenlive:file_hash">cb5fcf6ee1866c8bf2b6775fb4217379</property>
  <property name="force_reload">0</property>
  <property name="meta.media.width">1920</property>
  <property name="meta.media.height">1080</property>
 </producer>
 <producer id="producer9" in="00:00:00.000" out="00:03:00.100">
  <property name="length">5404</property>
  <property name="eof">pause</property>
  <property name="resource">/home/liquidzulu/Music/youtube-music/popular-front/1. Ararat.mp3</property>
  <property name="audio_index">0</property>
  <property name="video_index">1</property>
  <property name="mute_on_pause">0</property>
  <property name="mlt_service">avformat-novalidate</property>
  <property name="meta.media.nb_streams">2</property>
  <property name="meta.media.0.stream.type">audio</property>
  <property name="meta.media.0.codec.sample_fmt">fltp</property>
  <property name="meta.media.0.codec.sample_rate">44100</property>
  <property name="meta.media.0.codec.channels">2</property>
  <property name="meta.media.0.codec.name">mp3float</property>
  <property name="meta.media.0.codec.long_name">MP3 (MPEG audio layer 3)</property>
  <property name="meta.media.0.codec.bit_rate">128000</property>
  <property name="meta.attr.0.stream.encoder.markup">Lavf</property>
  <property name="meta.media.1.stream.type">video</property>
  <property name="meta.media.1.stream.frame_rate">-nan</property>
  <property name="meta.media.1.stream.sample_aspect_ratio">0</property>
  <property name="meta.media.1.codec.width">500</property>
  <property name="meta.media.1.codec.height">500</property>
  <property name="meta.media.1.codec.rotate">0</property>
  <property name="meta.media.1.codec.pix_fmt">yuvj420p</property>
  <property name="meta.media.1.codec.sample_aspect_ratio">1</property>
  <property name="meta.media.1.codec.colorspace">601</property>
  <property name="meta.media.1.codec.name">mjpeg</property>
  <property name="meta.media.1.codec.long_name">MJPEG (Motion JPEG)</property>
  <property name="meta.media.1.codec.bit_rate">0</property>
  <property name="meta.attr.1.stream.title.markup">Cover</property>
  <property name="meta.attr.1.stream.comment.markup">Cover (front)</property>
  <property name="meta.attr.title.markup">1. Ararat</property>
  <property name="meta.attr.artist.markup">Sam Black</property>
  <property name="meta.attr.date.markup">2021-03-06T10</property>
  <property name="meta.attr.genre.markup">Soundtrack</property>
  <property name="seekable">1</property>
  <property name="meta.media.sample_aspect_num">1</property>
  <property name="meta.media.sample_aspect_den">1</property>
  <property name="aspect_ratio">1</property>
  <property name="kdenlive:clipname"/>
  <property name="kdenlive:folderid">5</property>
  <property name="meta.media.frame_rate_num">90000</property>
  <property name="meta.media.frame_rate_den">1</property>
  <property name="meta.media.colorspace">601</property>
  <property name="meta.media.color_trc">2</property>
  <property name="meta.media.has_b_frames">0</property>
  <property name="meta.media.width">500</property>
  <property name="meta.media.height">500</property>
  <property name="meta.media.color_range">full</property>
  <property name="kdenlive:id">16</property>
  <property name="kdenlive:file_size">2972831</property>
  <property name="kdenlive:file_hash">5c23f3b857a43b89951dbc1383785fcb</property>
  <property name="meta.media.top_field_first">0</property>
  <property name="meta.media.progressive">1</property>
  <property name="kdenlive:audio_max0">244</property>
 </producer>
 <producer id="producer10" in="00:00:00.000" out="00:02:45.967">
  <property name="length">4980</property>
  <property name="eof">pause</property>
  <property name="resource">/home/liquidzulu/Music/youtube-music/popular-front/2. B O L L Y.mp3</property>
  <property name="audio_index">0</property>
  <property name="video_index">1</property>
  <property name="mute_on_pause">0</property>
  <property name="mlt_service">avformat-novalidate</property>
  <property name="meta.media.nb_streams">2</property>
  <property name="meta.media.0.stream.type">audio</property>
  <property name="meta.media.0.codec.sample_fmt">fltp</property>
  <property name="meta.media.0.codec.sample_rate">48000</property>
  <property name="meta.media.0.codec.channels">2</property>
  <property name="meta.media.0.codec.name">mp3float</property>
  <property name="meta.media.0.codec.long_name">MP3 (MPEG audio layer 3)</property>
  <property name="meta.media.0.codec.bit_rate">320000</property>
  <property name="meta.media.1.stream.type">video</property>
  <property name="meta.media.1.stream.frame_rate">-nan</property>
  <property name="meta.media.1.stream.sample_aspect_ratio">0</property>
  <property name="meta.media.1.codec.width">500</property>
  <property name="meta.media.1.codec.height">500</property>
  <property name="meta.media.1.codec.rotate">0</property>
  <property name="meta.media.1.codec.pix_fmt">yuvj420p</property>
  <property name="meta.media.1.codec.sample_aspect_ratio">1</property>
  <property name="meta.media.1.codec.colorspace">601</property>
  <property name="meta.media.1.codec.name">mjpeg</property>
  <property name="meta.media.1.codec.long_name">MJPEG (Motion JPEG)</property>
  <property name="meta.media.1.codec.bit_rate">0</property>
  <property name="meta.attr.1.stream.title.markup">Cover</property>
  <property name="meta.attr.1.stream.comment.markup">Cover (front)</property>
  <property name="meta.attr.title.markup">2. B O L L Y</property>
  <property name="meta.attr.artist.markup">Sam Black</property>
  <property name="meta.attr.date.markup">2019-04-02T18</property>
  <property name="meta.attr.genre.markup">Electronic</property>
  <property name="meta.attr.comment.markup">www.soundcloud.com/popularfrontcast
www.instagram.com/popular.front
www.instagram.com/samblack6778
www.twitter.com/popularfront</property>
  <property name="seekable">1</property>
  <property name="meta.media.sample_aspect_num">1</property>
  <property name="meta.media.sample_aspect_den">1</property>
  <property name="aspect_ratio">1</property>
  <property name="kdenlive:clipname"/>
  <property name="kdenlive:folderid">5</property>
  <property name="meta.media.frame_rate_num">90000</property>
  <property name="meta.media.frame_rate_den">1</property>
  <property name="meta.media.colorspace">601</property>
  <property name="meta.media.color_trc">2</property>
  <property name="meta.media.has_b_frames">0</property>
  <property name="meta.media.width">500</property>
  <property name="meta.media.height">500</property>
  <property name="meta.media.color_range">full</property>
  <property name="kdenlive:id">17</property>
  <property name="kdenlive:file_size">6721098</property>
  <property name="kdenlive:file_hash">810e32dd3c4c1f0bddb141218d2e5302</property>
  <property name="meta.media.top_field_first">0</property>
  <property name="meta.media.progressive">1</property>
  <property name="kdenlive:audio_max0">221</property>
 </producer>
 <producer id="producer11" in="00:00:00.000" out="00:00:04.967">
  <property name="length">150</property>
  <property name="eof">pause</property>
  <property name="progressive">1</property>
  <property name="aspect_ratio">1</property>
  <property name="seekable">1</property>
  <property name="mlt_service">kdenlivetitle</property>
  <property name="kdenlive:duration">150</property>
  <property name="kdenlive:clipname">The Environm...</property>
  <property name="xmldata">&lt;kdenlivetitle duration="150" LC_NUMERIC="C" width="1920" height="1080" out="149">
 &lt;item type="QGraphicsTextItem" z-index="0">
  &lt;position x="432" y="295">
   &lt;transform>1,0,0,0,1,0,0,0,1&lt;/transform>
  &lt;/position>
  &lt;content line-spacing="0" shadow="0;#64000000;3;3;3" font-underline="0" box-height="489" font-outline-color="0,0,0,255" font="Open Sans ExtraBold" letter-spacing="0" font-pixel-size="120" font-italic="0" typewriter="0;2;1;0;0" alignment="4" font-weight="50" font-outline="2.5" box-width="1055.67" font-color="255,255,255,255">The Environment
and Anti-Human
non-Ethics&lt;/content>
 &lt;/item>
 &lt;startviewport rect="0,0,1920,1080"/>
 &lt;endviewport rect="0,0,1920,1080"/>
 &lt;background color="0,0,0,0"/>
&lt;/kdenlivetitle>
</property>
  <property name="kdenlive:folderid">13</property>
  <property name="kdenlive:id">18</property>
  <property name="kdenlive:file_hash">86488a71fe96d7559dfe044514633e5d</property>
  <property name="force_reload">0</property>
  <property name="meta.media.width">1920</property>
  <property name="meta.media.height">1080</property>
 </producer>
 <producer id="producer12" in="00:00:00.000" out="00:00:04.967">
  <property name="length">150</property>
  <property name="eof">pause</property>
  <property name="progressive">1</property>
  <property name="aspect_ratio">1</property>
  <property name="seekable">1</property>
  <property name="mlt_service">kdenlivetitle</property>
  <property name="kdenlive:duration">150</property>
  <property name="kdenlive:clipname">The Environm...</property>
  <property name="xmldata">&lt;kdenlivetitle duration="150" LC_NUMERIC="C" width="1920" height="1080" out="149">
 &lt;item type="QGraphicsTextItem" z-index="0">
  &lt;position x="244" y="306">
   &lt;transform>1,0,0,0,1,0,0,0,1&lt;/transform>
  &lt;/position>
  &lt;content line-spacing="0" shadow="0;#64000000;3;3;3" font-underline="0" box-height="468" font-outline-color="0,0,0,255" font="Zarathustra" letter-spacing="0" font-pixel-size="120" font-italic="0" typewriter="0;2;1;0;0" alignment="4" font-weight="50" font-outline="2.5" box-width="1432.45" font-color="255,255,255,255">The Environment
and Anti-Human
non-Ethics&lt;/content>
 &lt;/item>
 &lt;startviewport rect="0,0,1920,1080"/>
 &lt;endviewport rect="0,0,1920,1080"/>
 &lt;background color="0,0,0,0"/>
&lt;/kdenlivetitle>
</property>
  <property name="kdenlive:folderid">13</property>
  <property name="kdenlive:id">19</property>
  <property name="kdenlive:file_hash">6001c3114d4c157074b132952b3efa58</property>
  <property name="force_reload">0</property>
  <property name="meta.media.width">1920</property>
  <property name="meta.media.height">1080</property>
 </producer>
 <producer id="producer13" in="00:00:00.000" out="00:25:05.267">
  <property name="length">45159</property>
  <property name="eof">pause</property>
  <property name="resource">/home/liquidzulu/Music/youtube-music/chillhop/Sleepy Fish - My Room Becomes the Sea [lofi hiphop] [7zMyA_a5rSU].mp3</property>
  <property name="meta.media.nb_streams">1</property>
  <property name="meta.media.0.stream.type">audio</property>
  <property name="meta.media.0.codec.sample_fmt">fltp</property>
  <property name="meta.media.0.codec.sample_rate">48000</property>
  <property name="meta.media.0.codec.channels">2</property>
  <property name="meta.media.0.codec.name">mp3float</property>
  <property name="meta.media.0.codec.long_name">MP3 (MPEG audio layer 3)</property>
  <property name="meta.media.0.codec.bit_rate">113876</property>
  <property name="meta.attr.0.stream.encoder.markup">Lavc59.18</property>
  <property name="meta.attr.encoder.markup">Lavf59.16.100</property>
  <property name="seekable">1</property>
  <property name="audio_index">0</property>
  <property name="video_index">-1</property>
  <property name="mute_on_pause">1</property>
  <property name="mlt_service">avformat</property>
  <property name="kdenlive:clipname"/>
  <property name="kdenlive:folderid">5</property>
  <property name="kdenlive:id">20</property>
  <property name="kdenlive:file_size">21427245</property>
  <property name="kdenlive:file_hash">4032143cced42f7406f0edb1b26d09e5</property>
  <property name="kdenlive:audio_max0">255</property>
 </producer>
 <producer id="producer14" in="00:00:00.000" out="00:06:38.967">
  <property name="length">11970</property>
  <property name="eof">pause</property>
  <property name="resource">/home/liquidzulu/Music/youtube-music/haircuts-for-men/呼吸蒸気 [Iw37dZLRoo4].mp3</property>
  <property name="meta.media.nb_streams">1</property>
  <property name="meta.media.0.stream.type">audio</property>
  <property name="meta.media.0.codec.sample_fmt">fltp</property>
  <property name="meta.media.0.codec.sample_rate">48000</property>
  <property name="meta.media.0.codec.channels">2</property>
  <property name="meta.media.0.codec.name">mp3float</property>
  <property name="meta.media.0.codec.long_name">MP3 (MPEG audio layer 3)</property>
  <property name="meta.media.0.codec.bit_rate">114469</property>
  <property name="meta.attr.0.stream.encoder.markup">Lavc58.13</property>
  <property name="meta.attr.encoder.markup">Lavf58.76.100</property>
  <property name="seekable">1</property>
  <property name="audio_index">0</property>
  <property name="video_index">-1</property>
  <property name="mute_on_pause">1</property>
  <property name="mlt_service">avformat</property>
  <property name="kdenlive:clipname"/>
  <property name="kdenlive:folderid">5</property>
  <property name="kdenlive:id">21</property>
  <property name="kdenlive:file_size">5709165</property>
  <property name="kdenlive:file_hash">9cb220768187b53db6e2f60dcfaa825f</property>
  <property name="kdenlive:audio_max0">253</property>
 </producer>
 <producer id="producer15" in="00:00:00.000" out="00:00:04.967">
  <property name="length">150</property>
  <property name="eof">pause</property>
  <property name="progressive">1</property>
  <property name="aspect_ratio">1</property>
  <property name="seekable">1</property>
  <property name="mlt_service">kdenlivetitle</property>
  <property name="kdenlive:duration">150</property>
  <property name="kdenlive:clipname">Domesticatio...</property>
  <property name="xmldata">&lt;kdenlivetitle duration="150" LC_NUMERIC="C" width="1920" height="1080" out="149">
 &lt;item type="QGraphicsTextItem" z-index="0">
  &lt;position x="506" y="457">
   &lt;transform>1,0,0,0,1,0,0,0,1&lt;/transform>
  &lt;/position>
  &lt;content line-spacing="0" shadow="0;#64000000;3;3;3" font-underline="0" box-height="165" font-outline-color="0,0,0,255" font="Open Sans ExtraBold" letter-spacing="0" font-pixel-size="120" font-italic="0" typewriter="0;2;1;0;0" alignment="4" font-weight="50" font-outline="2.5" box-width="907.375" font-color="255,255,255,255">Domestication&lt;/content>
 &lt;/item>
 &lt;startviewport rect="0,0,1920,1080"/>
 &lt;endviewport rect="0,0,1920,1080"/>
 &lt;background color="0,0,0,0"/>
&lt;/kdenlivetitle>
</property>
  <property name="kdenlive:folderid">13</property>
  <property name="kdenlive:id">22</property>
  <property name="kdenlive:file_hash">1e97770f1718b0cb895c748c98881e94</property>
  <property name="force_reload">0</property>
  <property name="meta.media.width">1920</property>
  <property name="meta.media.height">1080</property>
 </producer>
 <producer id="producer16" in="00:00:00.000" out="00:00:04.967">
  <property name="length">150</property>
  <property name="eof">pause</property>
  <property name="progressive">1</property>
  <property name="aspect_ratio">1</property>
  <property name="seekable">1</property>
  <property name="mlt_service">kdenlivetitle</property>
  <property name="kdenlive:duration">150</property>
  <property name="kdenlive:clipname">Domesticatio...</property>
  <property name="xmldata">&lt;kdenlivetitle duration="150" LC_NUMERIC="C" width="1920" height="1080" out="149">
 &lt;item type="QGraphicsTextItem" z-index="0">
  &lt;position x="327" y="462">
   &lt;transform>1,0,0,0,1,0,0,0,1&lt;/transform>
  &lt;/position>
  &lt;content line-spacing="0" shadow="0;#64000000;3;3;3" font-underline="0" box-height="156" font-outline-color="0,0,0,255" font="Zarathustra" letter-spacing="0" font-pixel-size="120" font-italic="0" typewriter="0;2;1;0;0" alignment="4" font-weight="50" font-outline="2.5" box-width="1266.14" font-color="255,255,255,255">Domestication&lt;/content>
 &lt;/item>
 &lt;startviewport rect="0,0,1920,1080"/>
 &lt;endviewport rect="0,0,1920,1080"/>
 &lt;background color="0,0,0,0"/>
&lt;/kdenlivetitle>
</property>
  <property name="kdenlive:folderid">13</property>
  <property name="kdenlive:id">23</property>
  <property name="kdenlive:file_hash">256593bfd243b990b78389475da548fc</property>
  <property name="force_reload">0</property>
  <property name="meta.media.width">1920</property>
  <property name="meta.media.height">1080</property>
 </producer>
 <producer id="producer17" in="00:00:00.000" out="00:03:36.200">
  <property name="length">6487</property>
  <property name="eof">pause</property>
  <property name="resource">/home/liquidzulu/Music/youtube-music/chillhop/Yasper - Arcade [WuKDIgz_gpY].mp3</property>
  <property name="meta.media.nb_streams">1</property>
  <property name="meta.media.0.stream.type">audio</property>
  <property name="meta.media.0.codec.sample_fmt">fltp</property>
  <property name="meta.media.0.codec.sample_rate">48000</property>
  <property name="meta.media.0.codec.channels">2</property>
  <property name="meta.media.0.codec.name">mp3float</property>
  <property name="meta.media.0.codec.long_name">MP3 (MPEG audio layer 3)</property>
  <property name="meta.media.0.codec.bit_rate">139275</property>
  <property name="meta.attr.0.stream.encoder.markup">Lavc59.18</property>
  <property name="meta.attr.encoder.markup">Lavf59.16.100</property>
  <property name="seekable">1</property>
  <property name="audio_index">0</property>
  <property name="video_index">-1</property>
  <property name="mute_on_pause">1</property>
  <property name="mlt_service">avformat</property>
  <property name="kdenlive:clipname"/>
  <property name="kdenlive:folderid">5</property>
  <property name="kdenlive:id">24</property>
  <property name="kdenlive:file_size">3764637</property>
  <property name="kdenlive:file_hash">1dafb50a51820fdb7d60aa1bcf771791</property>
  <property name="kdenlive:audio_max0">249</property>
 </producer>
 <producer id="producer18" in="00:00:00.000" out="00:00:21.100">
  <property name="length">634</property>
  <property name="eof">pause</property>
  <property name="resource">/home/liquidzulu/Pictures/youtube/click the link reverse.png</property>
  <property name="ttl">25</property>
  <property name="aspect_ratio">1</property>
  <property name="progressive">1</property>
  <property name="seekable">1</property>
  <property name="meta.media.width">1920</property>
  <property name="meta.media.height">1080</property>
  <property name="mlt_service">qimage</property>
  <property name="kdenlive:clipname"/>
  <property name="kdenlive:duration">00:00:05.000</property>
  <property name="kdenlive:folderid">12</property>
  <property name="kdenlive:id">25</property>
  <property name="kdenlive:file_size">58098</property>
  <property name="kdenlive:file_hash">3bc357781511057cd7e9c90aa281fb1e</property>
 </producer>
 <producer id="producer19" in="00:00:00.000" out="00:02:18.167">
  <property name="length">4146</property>
  <property name="eof">pause</property>
  <property name="resource">assets/Almanac - The Unabomber [4emvv2kyATM].mp4</property>
  <property name="meta.media.nb_streams">2</property>
  <property name="meta.media.0.stream.type">video</property>
  <property name="meta.media.0.stream.frame_rate">29.97</property>
  <property name="meta.media.0.stream.sample_aspect_ratio">1</property>
  <property name="meta.media.0.codec.width">1280</property>
  <property name="meta.media.0.codec.height">720</property>
  <property name="meta.media.0.codec.rotate">0</property>
  <property name="meta.media.0.codec.pix_fmt">yuv420p</property>
  <property name="meta.media.0.codec.sample_aspect_ratio">1</property>
  <property name="meta.media.0.codec.colorspace">709</property>
  <property name="meta.media.0.codec.color_trc">1</property>
  <property name="meta.media.0.codec.name">h264</property>
  <property name="meta.media.0.codec.long_name">H.264 / AVC / MPEG-4 AVC / MPEG-4 part 10</property>
  <property name="meta.media.0.codec.bit_rate">1354154</property>
  <property name="meta.attr.0.stream.handler_name.markup">ISO Media file produced by Google Inc. Created on: 11/13/2018.</property>
  <property name="meta.attr.0.stream.vendor_id.markup">[0][0][0][0]</property>
  <property name="meta.media.1.stream.type">audio</property>
  <property name="meta.media.1.codec.sample_fmt">fltp</property>
  <property name="meta.media.1.codec.sample_rate">44100</property>
  <property name="meta.media.1.codec.channels">2</property>
  <property name="meta.media.1.codec.name">aac</property>
  <property name="meta.media.1.codec.long_name">AAC (Advanced Audio Coding)</property>
  <property name="meta.media.1.codec.bit_rate">127999</property>
  <property name="meta.attr.1.stream.handler_name.markup">ISO Media file produced by Google Inc. Created on: 11/13/2018.</property>
  <property name="meta.attr.1.stream.vendor_id.markup">[0][0][0][0]</property>
  <property name="meta.attr.major_brand.markup">isom</property>
  <property name="meta.attr.minor_version.markup">512</property>
  <property name="meta.attr.compatible_brands.markup">isomiso2avc1mp41</property>
  <property name="meta.attr.encoder.markup">Lavf59.16.100</property>
  <property name="seekable">1</property>
  <property name="meta.media.sample_aspect_num">1</property>
  <property name="meta.media.sample_aspect_den">1</property>
  <property name="aspect_ratio">1</property>
  <property name="audio_index">1</property>
  <property name="video_index">0</property>
  <property name="mute_on_pause">0</property>
  <property name="mlt_service">avformat-novalidate</property>
  <property name="kdenlive:clipname"/>
  <property name="kdenlive:folderid">6</property>
  <property name="meta.media.frame_rate_num">30000</property>
  <property name="meta.media.frame_rate_den">1001</property>
  <property name="meta.media.colorspace">709</property>
  <property name="meta.media.color_trc">1</property>
  <property name="meta.media.has_b_frames">1</property>
  <property name="meta.media.width">1280</property>
  <property name="meta.media.height">720</property>
  <property name="meta.media.color_range">mpeg</property>
  <property name="kdenlive:id">26</property>
  <property name="kdenlive:file_size">25737758</property>
  <property name="kdenlive:file_hash">db61f6d1cbcb57efffdeba2dfd1c8627</property>
  <property name="meta.media.top_field_first">0</property>
  <property name="meta.media.progressive">1</property>
  <property name="kdenlive:audio_max1">205</property>
  <property name="kdenlive:active_streams">-1</property>
 </producer>
 <producer id="producer20" in="00:00:00.000" out="00:01:24.767">
  <property name="length">2544</property>
  <property name="eof">pause</property>
  <property name="resource">assets/Hunt With the World's Last Full-Time Hunter-Gatherers _ National Geographic [E_Q5LnNlwZs].mp4</property>
  <property name="meta.media.nb_streams">2</property>
  <property name="meta.media.0.stream.type">video</property>
  <property name="meta.media.0.stream.frame_rate">23.976</property>
  <property name="meta.media.0.stream.sample_aspect_ratio">1</property>
  <property name="meta.media.0.codec.width">1920</property>
  <property name="meta.media.0.codec.height">1080</property>
  <property name="meta.media.0.codec.rotate">0</property>
  <property name="meta.media.0.codec.pix_fmt">yuv420p</property>
  <property name="meta.media.0.codec.sample_aspect_ratio">1</property>
  <property name="meta.media.0.codec.colorspace">709</property>
  <property name="meta.media.0.codec.name">h264</property>
  <property name="meta.media.0.codec.long_name">H.264 / AVC / MPEG-4 AVC / MPEG-4 part 10</property>
  <property name="meta.media.0.codec.bit_rate">3674313</property>
  <property name="meta.attr.0.stream.handler_name.markup">VideoHandler</property>
  <property name="meta.attr.0.stream.vendor_id.markup">[0][0][0][0]</property>
  <property name="meta.media.1.stream.type">audio</property>
  <property name="meta.media.1.codec.sample_fmt">fltp</property>
  <property name="meta.media.1.codec.sample_rate">44100</property>
  <property name="meta.media.1.codec.channels">2</property>
  <property name="meta.media.1.codec.name">aac</property>
  <property name="meta.media.1.codec.long_name">AAC (Advanced Audio Coding)</property>
  <property name="meta.media.1.codec.bit_rate">125588</property>
  <property name="meta.attr.1.stream.handler_name.markup">SoundHandler</property>
  <property name="meta.attr.1.stream.vendor_id.markup">[0][0][0][0]</property>
  <property name="meta.attr.major_brand.markup">isom</property>
  <property name="meta.attr.minor_version.markup">512</property>
  <property name="meta.attr.compatible_brands.markup">isomiso2avc1mp41</property>
  <property name="meta.attr.encoder.markup">Lavf59.16.100</property>
  <property name="seekable">1</property>
  <property name="meta.media.sample_aspect_num">1</property>
  <property name="meta.media.sample_aspect_den">1</property>
  <property name="aspect_ratio">1</property>
  <property name="audio_index">1</property>
  <property name="video_index">0</property>
  <property name="mute_on_pause">0</property>
  <property name="mlt_service">avformat-novalidate</property>
  <property name="kdenlive:clipname"/>
  <property name="kdenlive:folderid">6</property>
  <property name="meta.media.frame_rate_num">91395000</property>
  <property name="meta.media.frame_rate_den">3811933</property>
  <property name="meta.media.colorspace">709</property>
  <property name="meta.media.color_trc">2</property>
  <property name="meta.media.has_b_frames">1</property>
  <property name="meta.media.width">1920</property>
  <property name="meta.media.height">1080</property>
  <property name="meta.media.color_range">mpeg</property>
  <property name="kdenlive:id">27</property>
  <property name="kdenlive:file_size">40309634</property>
  <property name="kdenlive:file_hash">f699cb7b33958c6fd053af4bacd70f34</property>
  <property name="meta.media.top_field_first">0</property>
  <property name="meta.media.progressive">1</property>
  <property name="kdenlive:audio_max1">223</property>
  <property name="kdenlive:active_streams">-1</property>
 </producer>
 <producer id="producer21" in="00:00:00.000" out="00:00:29.433">
  <property name="length">884</property>
  <property name="eof">pause</property>
  <property name="resource">assets/Free  Industrial Zone Factory Stock FOOTAGE [KO3VhTsDwDM].mp4</property>
  <property name="meta.media.nb_streams">2</property>
  <property name="meta.media.0.stream.type">video</property>
  <property name="meta.media.0.stream.frame_rate">25</property>
  <property name="meta.media.0.stream.sample_aspect_ratio">1</property>
  <property name="meta.media.0.codec.width">1920</property>
  <property name="meta.media.0.codec.height">1080</property>
  <property name="meta.media.0.codec.rotate">0</property>
  <property name="meta.media.0.codec.pix_fmt">yuv420p</property>
  <property name="meta.media.0.codec.sample_aspect_ratio">1</property>
  <property name="meta.media.0.codec.colorspace">601</property>
  <property name="meta.media.0.codec.color_trc">1</property>
  <property name="meta.media.0.codec.name">h264</property>
  <property name="meta.media.0.codec.long_name">H.264 / AVC / MPEG-4 AVC / MPEG-4 part 10</property>
  <property name="meta.media.0.codec.bit_rate">3209784</property>
  <property name="meta.attr.0.stream.handler_name.markup">ISO Media file produced by Google Inc.</property>
  <property name="meta.attr.0.stream.vendor_id.markup">[0][0][0][0]</property>
  <property name="meta.media.1.stream.type">audio</property>
  <property name="meta.media.1.codec.sample_fmt">fltp</property>
  <property name="meta.media.1.codec.sample_rate">44100</property>
  <property name="meta.media.1.codec.channels">2</property>
  <property name="meta.media.1.codec.name">aac</property>
  <property name="meta.media.1.codec.long_name">AAC (Advanced Audio Coding)</property>
  <property name="meta.media.1.codec.bit_rate">127999</property>
  <property name="meta.attr.1.stream.handler_name.markup">ISO Media file produced by Google Inc.</property>
  <property name="meta.attr.1.stream.vendor_id.markup">[0][0][0][0]</property>
  <property name="meta.attr.major_brand.markup">isom</property>
  <property name="meta.attr.minor_version.markup">512</property>
  <property name="meta.attr.compatible_brands.markup">isomiso2avc1mp41</property>
  <property name="meta.attr.encoder.markup">Lavf59.16.100</property>
  <property name="seekable">1</property>
  <property name="meta.media.sample_aspect_num">1</property>
  <property name="meta.media.sample_aspect_den">1</property>
  <property name="aspect_ratio">1</property>
  <property name="audio_index">1</property>
  <property name="video_index">0</property>
  <property name="mute_on_pause">0</property>
  <property name="mlt_service">avformat-novalidate</property>
  <property name="kdenlive:clipname"/>
  <property name="kdenlive:folderid">6</property>
  <property name="meta.media.frame_rate_num">25</property>
  <property name="meta.media.frame_rate_den">1</property>
  <property name="meta.media.colorspace">601</property>
  <property name="meta.media.color_trc">1</property>
  <property name="meta.media.has_b_frames">1</property>
  <property name="meta.media.width">1920</property>
  <property name="meta.media.height">1080</property>
  <property name="meta.media.color_range">mpeg</property>
  <property name="kdenlive:id">29</property>
  <property name="kdenlive:file_size">12290711</property>
  <property name="kdenlive:file_hash">bceb0831bf5921ec6d272de758a3697b</property>
  <property name="meta.media.top_field_first">0</property>
  <property name="meta.media.progressive">1</property>
  <property name="kdenlive:audio_max1">1</property>
 </producer>
 <producer id="producer22" in="00:00:00.000" out="00:00:14.433">
  <property name="length">434</property>
  <property name="eof">pause</property>
  <property name="resource">assets/SpongeBob SquarePants - Outside World [aP2jErXpNS4].mp4</property>
  <property name="meta.media.nb_streams">2</property>
  <property name="meta.media.0.stream.type">video</property>
  <property name="meta.media.0.stream.frame_rate">30</property>
  <property name="meta.media.0.stream.sample_aspect_ratio">1</property>
  <property name="meta.media.0.codec.width">640</property>
  <property name="meta.media.0.codec.height">480</property>
  <property name="meta.media.0.codec.rotate">0</property>
  <property name="meta.media.0.codec.pix_fmt">yuv420p</property>
  <property name="meta.media.0.codec.sample_aspect_ratio">1</property>
  <property name="meta.media.0.codec.colorspace">601</property>
  <property name="meta.media.0.codec.name">h264</property>
  <property name="meta.media.0.codec.long_name">H.264 / AVC / MPEG-4 AVC / MPEG-4 part 10</property>
  <property name="meta.media.0.codec.bit_rate">333147</property>
  <property name="meta.attr.0.stream.handler_name.markup">ISO Media file produced by Google Inc.</property>
  <property name="meta.attr.0.stream.vendor_id.markup">[0][0][0][0]</property>
  <property name="meta.media.1.stream.type">audio</property>
  <property name="meta.media.1.codec.sample_fmt">fltp</property>
  <property name="meta.media.1.codec.sample_rate">44100</property>
  <property name="meta.media.1.codec.channels">2</property>
  <property name="meta.media.1.codec.name">aac</property>
  <property name="meta.media.1.codec.long_name">AAC (Advanced Audio Coding)</property>
  <property name="meta.media.1.codec.bit_rate">128142</property>
  <property name="meta.attr.1.stream.language.markup">eng</property>
  <property name="meta.attr.1.stream.handler_name.markup">ISO Media file produced by Google Inc.</property>
  <property name="meta.attr.1.stream.vendor_id.markup">[0][0][0][0]</property>
  <property name="meta.attr.major_brand.markup">isom</property>
  <property name="meta.attr.minor_version.markup">512</property>
  <property name="meta.attr.compatible_brands.markup">isomiso2avc1mp41</property>
  <property name="meta.attr.encoder.markup">Lavf59.16.100</property>
  <property name="seekable">1</property>
  <property name="meta.media.sample_aspect_num">1</property>
  <property name="meta.media.sample_aspect_den">1</property>
  <property name="aspect_ratio">1</property>
  <property name="audio_index">1</property>
  <property name="video_index">0</property>
  <property name="mute_on_pause">0</property>
  <property name="mlt_service">avformat-novalidate</property>
  <property name="kdenlive:clipname"/>
  <property name="kdenlive:folderid">6</property>
  <property name="meta.media.frame_rate_num">30</property>
  <property name="meta.media.frame_rate_den">1</property>
  <property name="meta.media.colorspace">601</property>
  <property name="meta.media.color_trc">2</property>
  <property name="meta.media.has_b_frames">1</property>
  <property name="meta.media.width">640</property>
  <property name="meta.media.height">480</property>
  <property name="meta.media.color_range">mpeg</property>
  <property name="kdenlive:file_size">843672</property>
  <property name="kdenlive:id">30</property>
  <property name="kdenlive:file_hash">49374f98f9bfa0b42496e6a89c787478</property>
  <property name="kdenlive:audio_max1">172</property>
  <property name="meta.media.top_field_first">0</property>
  <property name="meta.media.progressive">1</property>
  <property name="kdenlive:active_streams">-1</property>
 </producer>
 <producer id="producer23" in="00:00:00.000" out="00:00:04.967">
  <property name="length">00:00:05.000</property>
  <property name="eof">pause</property>
  <property name="resource">assets/MES.webp</property>
  <property name="ttl">25</property>
  <property name="aspect_ratio">1</property>
  <property name="progressive">1</property>
  <property name="seekable">1</property>
  <property name="meta.media.width">788</property>
  <property name="meta.media.height">1200</property>
  <property name="mlt_service">qimage</property>
  <property name="kdenlive:clipname"/>
  <property name="kdenlive:duration">00:00:05.000</property>
  <property name="kdenlive:folderid">12</property>
  <property name="kdenlive:id">31</property>
  <property name="kdenlive:file_size">54872</property>
  <property name="kdenlive:file_hash">4201e9fe66d91b376f6f47bb4c7eebd6</property>
 </producer>
 <producer id="producer24" in="00:00:00.000" out="00:10:01.667">
  <property name="length">18051</property>
  <property name="eof">pause</property>
  <property name="resource">assets/This Video Will Cure Your Depression (money back guarantee) [OsHAYx6FkYo].mp4</property>
  <property name="meta.media.nb_streams">2</property>
  <property name="meta.media.0.stream.type">video</property>
  <property name="meta.media.0.stream.frame_rate">59.697</property>
  <property name="meta.media.0.stream.sample_aspect_ratio">1</property>
  <property name="meta.media.0.codec.width">1920</property>
  <property name="meta.media.0.codec.height">1080</property>
  <property name="meta.media.0.codec.rotate">0</property>
  <property name="meta.media.0.codec.pix_fmt">yuv420p</property>
  <property name="meta.media.0.codec.sample_aspect_ratio">1</property>
  <property name="meta.media.0.codec.colorspace">709</property>
  <property name="meta.media.0.codec.color_trc">1</property>
  <property name="meta.media.0.codec.name">h264</property>
  <property name="meta.media.0.codec.long_name">H.264 / AVC / MPEG-4 AVC / MPEG-4 part 10</property>
  <property name="meta.media.0.codec.bit_rate">5018888</property>
  <property name="meta.attr.0.stream.handler_name.markup">ISO Media file produced by Google Inc.</property>
  <property name="meta.attr.0.stream.vendor_id.markup">[0][0][0][0]</property>
  <property name="meta.media.1.stream.type">audio</property>
  <property name="meta.media.1.codec.sample_fmt">fltp</property>
  <property name="meta.media.1.codec.sample_rate">44100</property>
  <property name="meta.media.1.codec.channels">2</property>
  <property name="meta.media.1.codec.name">aac</property>
  <property name="meta.media.1.codec.long_name">AAC (Advanced Audio Coding)</property>
  <property name="meta.media.1.codec.bit_rate">127999</property>
  <property name="meta.attr.1.stream.handler_name.markup">ISO Media file produced by Google Inc.</property>
  <property name="meta.attr.1.stream.vendor_id.markup">[0][0][0][0]</property>
  <property name="meta.attr.major_brand.markup">isom</property>
  <property name="meta.attr.minor_version.markup">512</property>
  <property name="meta.attr.compatible_brands.markup">isomiso2avc1mp41</property>
  <property name="meta.attr.encoder.markup">Lavf59.16.100</property>
  <property name="seekable">1</property>
  <property name="meta.media.sample_aspect_num">1</property>
  <property name="meta.media.sample_aspect_den">1</property>
  <property name="aspect_ratio">1</property>
  <property name="audio_index">1</property>
  <property name="video_index">0</property>
  <property name="mute_on_pause">0</property>
  <property name="mlt_service">avformat-novalidate</property>
  <property name="kdenlive:clipname"/>
  <property name="kdenlive:folderid">6</property>
  <property name="meta.media.frame_rate_num">28177</property>
  <property name="meta.media.frame_rate_den">472</property>
  <property name="meta.media.colorspace">709</property>
  <property name="meta.media.color_trc">1</property>
  <property name="meta.media.has_b_frames">1</property>
  <property name="meta.media.width">1920</property>
  <property name="meta.media.height">1080</property>
  <property name="meta.media.color_range">mpeg</property>
  <property name="kdenlive:id">32</property>
  <property name="kdenlive:file_size">388019838</property>
  <property name="kdenlive:file_hash">7d60c62081eaa8ca759ec6e3c846b1e2</property>
  <property name="meta.media.top_field_first">0</property>
  <property name="meta.media.progressive">1</property>
  <property name="kdenlive:audio_max1">229</property>
  <property name="kdenlive:active_streams">-1</property>
 </producer>
 <producer id="producer25" in="00:00:00.000" out="00:03:03.867">
  <property name="length">5517</property>
  <property name="eof">pause</property>
  <property name="resource">assets/How to Cook Fish Over a Campfire - Easy Outdoors Cooking [f9F19ThduDM].mp4</property>
  <property name="meta.media.nb_streams">2</property>
  <property name="meta.media.0.stream.type">video</property>
  <property name="meta.media.0.stream.frame_rate">25.0054</property>
  <property name="meta.media.0.stream.sample_aspect_ratio">1</property>
  <property name="meta.media.0.codec.width">1920</property>
  <property name="meta.media.0.codec.height">1080</property>
  <property name="meta.media.0.codec.rotate">0</property>
  <property name="meta.media.0.codec.pix_fmt">yuv420p</property>
  <property name="meta.media.0.codec.sample_aspect_ratio">1</property>
  <property name="meta.media.0.codec.colorspace">709</property>
  <property name="meta.media.0.codec.color_trc">1</property>
  <property name="meta.media.0.codec.name">h264</property>
  <property name="meta.media.0.codec.long_name">H.264 / AVC / MPEG-4 AVC / MPEG-4 part 10</property>
  <property name="meta.media.0.codec.bit_rate">3693614</property>
  <property name="meta.attr.0.stream.handler_name.markup">ISO Media file produced by Google Inc. Created on: 03/24/2022.</property>
  <property name="meta.attr.0.stream.vendor_id.markup">[0][0][0][0]</property>
  <property name="meta.media.1.stream.type">audio</property>
  <property name="meta.media.1.codec.sample_fmt">fltp</property>
  <property name="meta.media.1.codec.sample_rate">44100</property>
  <property name="meta.media.1.codec.channels">2</property>
  <property name="meta.media.1.codec.name">aac</property>
  <property name="meta.media.1.codec.long_name">AAC (Advanced Audio Coding)</property>
  <property name="meta.media.1.codec.bit_rate">128017</property>
  <property name="meta.attr.1.stream.language.markup">eng</property>
  <property name="meta.attr.1.stream.handler_name.markup">ISO Media file produced by Google Inc.</property>
  <property name="meta.attr.1.stream.vendor_id.markup">[0][0][0][0]</property>
  <property name="meta.attr.major_brand.markup">isom</property>
  <property name="meta.attr.minor_version.markup">512</property>
  <property name="meta.attr.compatible_brands.markup">isomiso2avc1mp41</property>
  <property name="meta.attr.encoder.markup">Lavf59.16.100</property>
  <property name="seekable">1</property>
  <property name="meta.media.sample_aspect_num">1</property>
  <property name="meta.media.sample_aspect_den">1</property>
  <property name="aspect_ratio">1</property>
  <property name="audio_index">1</property>
  <property name="video_index">0</property>
  <property name="mute_on_pause">0</property>
  <property name="mlt_service">avformat-novalidate</property>
  <property name="kdenlive:clipname"/>
  <property name="kdenlive:folderid">6</property>
  <property name="meta.media.frame_rate_num">114925</property>
  <property name="meta.media.frame_rate_den">4596</property>
  <property name="meta.media.colorspace">709</property>
  <property name="meta.media.color_trc">1</property>
  <property name="meta.media.has_b_frames">0</property>
  <property name="meta.media.width">1920</property>
  <property name="meta.media.height">1080</property>
  <property name="meta.media.color_range">mpeg</property>
  <property name="kdenlive:id">33</property>
  <property name="kdenlive:file_size">87941187</property>
  <property name="kdenlive:file_hash">4d46b7353be1446b11998c378a7e2c92</property>
  <property name="meta.media.top_field_first">0</property>
  <property name="meta.media.progressive">1</property>
  <property name="kdenlive:audio_max1">217</property>
  <property name="kdenlive:active_streams">-1</property>
 </producer>
 <producer id="producer26" in="00:00:00.000" out="00:00:16.700">
  <property name="length">502</property>
  <property name="eof">pause</property>
  <property name="resource">assets/2022-03-30_09-32.png</property>
  <property name="ttl">25</property>
  <property name="aspect_ratio">1</property>
  <property name="progressive">1</property>
  <property name="seekable">1</property>
  <property name="meta.media.width">1919</property>
  <property name="meta.media.height">1079</property>
  <property name="mlt_service">qimage</property>
  <property name="kdenlive:clipname"/>
  <property name="kdenlive:duration">00:00:05.000</property>
  <property name="kdenlive:folderid">12</property>
  <property name="kdenlive:id">34</property>
  <property name="kdenlive:file_size">574362</property>
  <property name="kdenlive:file_hash">3c81437b134eff29ec7fd3eb9181e038</property>
 </producer>
 <producer id="producer27" in="00:00:00.000" out="00:04:10.267">
  <property name="length">7509</property>
  <property name="eof">pause</property>
  <property name="resource">assets/dr strange surgery scene #Movieclips [GOOkWuzPIv8].mp4</property>
  <property name="meta.media.nb_streams">2</property>
  <property name="meta.media.0.stream.type">video</property>
  <property name="meta.media.0.stream.frame_rate">23.976</property>
  <property name="meta.media.0.stream.sample_aspect_ratio">1</property>
  <property name="meta.media.0.codec.width">1920</property>
  <property name="meta.media.0.codec.height">1080</property>
  <property name="meta.media.0.codec.rotate">0</property>
  <property name="meta.media.0.codec.pix_fmt">yuv420p</property>
  <property name="meta.media.0.codec.sample_aspect_ratio">1</property>
  <property name="meta.media.0.codec.colorspace">709</property>
  <property name="meta.media.0.codec.color_trc">1</property>
  <property name="meta.media.0.codec.name">h264</property>
  <property name="meta.media.0.codec.long_name">H.264 / AVC / MPEG-4 AVC / MPEG-4 part 10</property>
  <property name="meta.media.0.codec.bit_rate">1366454</property>
  <property name="meta.attr.0.stream.handler_name.markup">ISO Media file produced by Google Inc.</property>
  <property name="meta.attr.0.stream.vendor_id.markup">[0][0][0][0]</property>
  <property name="meta.media.1.stream.type">audio</property>
  <property name="meta.media.1.codec.sample_fmt">fltp</property>
  <property name="meta.media.1.codec.sample_rate">44100</property>
  <property name="meta.media.1.codec.channels">2</property>
  <property name="meta.media.1.codec.name">aac</property>
  <property name="meta.media.1.codec.long_name">AAC (Advanced Audio Coding)</property>
  <property name="meta.media.1.codec.bit_rate">127999</property>
  <property name="meta.attr.1.stream.language.markup">eng</property>
  <property name="meta.attr.1.stream.handler_name.markup">ISO Media file produced by Google Inc.</property>
  <property name="meta.attr.1.stream.vendor_id.markup">[0][0][0][0]</property>
  <property name="meta.attr.major_brand.markup">isom</property>
  <property name="meta.attr.minor_version.markup">512</property>
  <property name="meta.attr.compatible_brands.markup">isomiso2avc1mp41</property>
  <property name="meta.attr.encoder.markup">Lavf59.16.100</property>
  <property name="seekable">1</property>
  <property name="meta.media.sample_aspect_num">1</property>
  <property name="meta.media.sample_aspect_den">1</property>
  <property name="aspect_ratio">1</property>
  <property name="audio_index">1</property>
  <property name="video_index">0</property>
  <property name="mute_on_pause">0</property>
  <property name="mlt_service">avformat-novalidate</property>
  <property name="kdenlive:clipname"/>
  <property name="kdenlive:folderid">6</property>
  <property name="meta.media.frame_rate_num">24000</property>
  <property name="meta.media.frame_rate_den">1001</property>
  <property name="meta.media.colorspace">709</property>
  <property name="meta.media.color_trc">1</property>
  <property name="meta.media.has_b_frames">1</property>
  <property name="meta.media.width">1920</property>
  <property name="meta.media.height">1080</property>
  <property name="meta.media.color_range">mpeg</property>
  <property name="kdenlive:id">35</property>
  <property name="kdenlive:file_size">46917182</property>
  <property name="kdenlive:file_hash">f74251851ff229f7766cef86f63b2af9</property>
  <property name="meta.media.top_field_first">0</property>
  <property name="meta.media.progressive">1</property>
  <property name="kdenlive:audio_max1">160</property>
  <property name="kdenlive:active_streams">-1</property>
 </producer>
 <producer id="producer28" in="00:00:00.000" out="00:09:23.200">
  <property name="length">16897</property>
  <property name="eof">pause</property>
  <property name="resource">assets/station-eleven.webm</property>
  <property name="meta.media.nb_streams">2</property>
  <property name="meta.media.0.stream.type">video</property>
  <property name="meta.media.0.stream.frame_rate">23.976</property>
  <property name="meta.media.0.stream.sample_aspect_ratio">1</property>
  <property name="meta.media.0.codec.width">1920</property>
  <property name="meta.media.0.codec.height">1080</property>
  <property name="meta.media.0.codec.rotate">0</property>
  <property name="meta.media.0.codec.pix_fmt">yuv420p</property>
  <property name="meta.media.0.codec.sample_aspect_ratio">0</property>
  <property name="meta.media.0.codec.colorspace">709</property>
  <property name="meta.media.0.codec.color_trc">1</property>
  <property name="meta.media.0.codec.name">vp8</property>
  <property name="meta.media.0.codec.long_name">On2 VP8</property>
  <property name="meta.media.0.codec.bit_rate">0</property>
  <property name="meta.attr.0.stream.DURATION.markup">00:09:23.233000000</property>
  <property name="meta.media.1.stream.type">audio</property>
  <property name="meta.media.1.codec.sample_fmt">fltp</property>
  <property name="meta.media.1.codec.sample_rate">48000</property>
  <property name="meta.media.1.codec.channels">2</property>
  <property name="meta.media.1.codec.name">vorbis</property>
  <property name="meta.media.1.codec.long_name">Vorbis</property>
  <property name="meta.media.1.codec.bit_rate">0</property>
  <property name="meta.attr.1.stream.DURATION.markup">00:09:23.172000000</property>
  <property name="meta.attr.ENCODER.markup">Lavf59.16.100</property>
  <property name="seekable">1</property>
  <property name="meta.media.sample_aspect_num">1</property>
  <property name="meta.media.sample_aspect_den">1</property>
  <property name="aspect_ratio">1</property>
  <property name="audio_index">1</property>
  <property name="video_index">0</property>
  <property name="mute_on_pause">0</property>
  <property name="mlt_service">avformat-novalidate</property>
  <property name="kdenlive:clipname"/>
  <property name="kdenlive:folderid">6</property>
  <property name="meta.media.frame_rate_num">24000</property>
  <property name="meta.media.frame_rate_den">1001</property>
  <property name="meta.media.colorspace">709</property>
  <property name="meta.media.color_trc">1</property>
  <property name="meta.media.has_b_frames">0</property>
  <property name="meta.media.width">1920</property>
  <property name="meta.media.height">1080</property>
  <property name="meta.media.color_range">mpeg</property>
  <property name="kdenlive:id">36</property>
  <property name="kdenlive:file_size">319976181</property>
  <property name="kdenlive:file_hash">5aa8fa0f6abc167fae68b7397563ffc7</property>
  <property name="meta.media.top_field_first">0</property>
  <property name="meta.media.progressive">1</property>
  <property name="kdenlive:audio_max1">1</property>
  <property name="kdenlive:active_streams">-1</property>
 </producer>
 <producer id="producer29" in="00:00:00.000" out="00:21:44.867">
  <property name="length">39147</property>
  <property name="eof">pause</property>
  <property name="resource">assets/This Environmentalist Says Only Nuclear Power Can Save Us Now [K9AGx2q_F_0].mp4</property>
  <property name="meta.media.nb_streams">2</property>
  <property name="meta.media.0.stream.type">video</property>
  <property name="meta.media.0.stream.frame_rate">23.976</property>
  <property name="meta.media.0.stream.sample_aspect_ratio">1</property>
  <property name="meta.media.0.codec.width">1920</property>
  <property name="meta.media.0.codec.height">1080</property>
  <property name="meta.media.0.codec.rotate">0</property>
  <property name="meta.media.0.codec.pix_fmt">yuv420p</property>
  <property name="meta.media.0.codec.sample_aspect_ratio">1</property>
  <property name="meta.media.0.codec.colorspace">709</property>
  <property name="meta.media.0.codec.color_trc">1</property>
  <property name="meta.media.0.codec.name">h264</property>
  <property name="meta.media.0.codec.long_name">H.264 / AVC / MPEG-4 AVC / MPEG-4 part 10</property>
  <property name="meta.media.0.codec.bit_rate">1182718</property>
  <property name="meta.attr.0.stream.handler_name.markup">ISO Media file produced by Google Inc.</property>
  <property name="meta.attr.0.stream.vendor_id.markup">[0][0][0][0]</property>
  <property name="meta.media.1.stream.type">audio</property>
  <property name="meta.media.1.codec.sample_fmt">fltp</property>
  <property name="meta.media.1.codec.sample_rate">44100</property>
  <property name="meta.media.1.codec.channels">2</property>
  <property name="meta.media.1.codec.name">aac</property>
  <property name="meta.media.1.codec.long_name">AAC (Advanced Audio Coding)</property>
  <property name="meta.media.1.codec.bit_rate">127999</property>
  <property name="meta.attr.1.stream.language.markup">eng</property>
  <property name="meta.attr.1.stream.handler_name.markup">ISO Media file produced by Google Inc.</property>
  <property name="meta.attr.1.stream.vendor_id.markup">[0][0][0][0]</property>
  <property name="meta.attr.major_brand.markup">isom</property>
  <property name="meta.attr.minor_version.markup">512</property>
  <property name="meta.attr.compatible_brands.markup">isomiso2avc1mp41</property>
  <property name="meta.attr.encoder.markup">Lavf59.16.100</property>
  <property name="seekable">1</property>
  <property name="meta.media.sample_aspect_num">1</property>
  <property name="meta.media.sample_aspect_den">1</property>
  <property name="aspect_ratio">1</property>
  <property name="audio_index">1</property>
  <property name="video_index">0</property>
  <property name="mute_on_pause">0</property>
  <property name="mlt_service">avformat-novalidate</property>
  <property name="kdenlive:clipname"/>
  <property name="kdenlive:folderid">6</property>
  <property name="meta.media.frame_rate_num">24000</property>
  <property name="meta.media.frame_rate_den">1001</property>
  <property name="meta.media.colorspace">709</property>
  <property name="meta.media.color_trc">1</property>
  <property name="meta.media.has_b_frames">1</property>
  <property name="meta.media.width">1920</property>
  <property name="meta.media.height">1080</property>
  <property name="meta.media.color_range">mpeg</property>
  <property name="kdenlive:id">37</property>
  <property name="kdenlive:file_size">214733511</property>
  <property name="kdenlive:file_hash">23dd6173a2c8918d521fda43dc8d7f19</property>
  <property name="meta.media.top_field_first">0</property>
  <property name="meta.media.progressive">1</property>
  <property name="kdenlive:audio_max1">247</property>
  <property name="kdenlive:active_streams">-1</property>
 </producer>
 <producer id="producer30" in="00:00:00.000" out="00:00:09.167">
  <property name="length">276</property>
  <property name="eof">pause</property>
  <property name="resource">assets/Man Walking In Grass Stock Video [REDrf65yg9s].mp4</property>
  <property name="meta.media.nb_streams">2</property>
  <property name="meta.media.0.stream.type">video</property>
  <property name="meta.media.0.stream.frame_rate">29.97</property>
  <property name="meta.media.0.stream.sample_aspect_ratio">1</property>
  <property name="meta.media.0.codec.width">1280</property>
  <property name="meta.media.0.codec.height">720</property>
  <property name="meta.media.0.codec.rotate">0</property>
  <property name="meta.media.0.codec.pix_fmt">yuv420p</property>
  <property name="meta.media.0.codec.sample_aspect_ratio">1</property>
  <property name="meta.media.0.codec.colorspace">709</property>
  <property name="meta.media.0.codec.color_trc">1</property>
  <property name="meta.media.0.codec.name">h264</property>
  <property name="meta.media.0.codec.long_name">H.264 / AVC / MPEG-4 AVC / MPEG-4 part 10</property>
  <property name="meta.media.0.codec.bit_rate">2573300</property>
  <property name="meta.attr.0.stream.handler_name.markup">ISO Media file produced by Google Inc. Created on: 12/22/2018.</property>
  <property name="meta.attr.0.stream.vendor_id.markup">[0][0][0][0]</property>
  <property name="meta.media.1.stream.type">audio</property>
  <property name="meta.media.1.codec.sample_fmt">fltp</property>
  <property name="meta.media.1.codec.sample_rate">44100</property>
  <property name="meta.media.1.codec.channels">2</property>
  <property name="meta.media.1.codec.name">aac</property>
  <property name="meta.media.1.codec.long_name">AAC (Advanced Audio Coding)</property>
  <property name="meta.media.1.codec.bit_rate">127999</property>
  <property name="meta.attr.1.stream.handler_name.markup">ISO Media file produced by Google Inc. Created on: 12/22/2018.</property>
  <property name="meta.attr.1.stream.vendor_id.markup">[0][0][0][0]</property>
  <property name="meta.attr.major_brand.markup">isom</property>
  <property name="meta.attr.minor_version.markup">512</property>
  <property name="meta.attr.compatible_brands.markup">isomiso2avc1mp41</property>
  <property name="meta.attr.encoder.markup">Lavf59.16.100</property>
  <property name="seekable">1</property>
  <property name="meta.media.sample_aspect_num">1</property>
  <property name="meta.media.sample_aspect_den">1</property>
  <property name="aspect_ratio">1</property>
  <property name="audio_index">1</property>
  <property name="video_index">0</property>
  <property name="mute_on_pause">0</property>
  <property name="mlt_service">avformat-novalidate</property>
  <property name="kdenlive:clipname"/>
  <property name="kdenlive:folderid">6</property>
  <property name="meta.media.frame_rate_num">30000</property>
  <property name="meta.media.frame_rate_den">1001</property>
  <property name="meta.media.colorspace">709</property>
  <property name="meta.media.color_trc">1</property>
  <property name="meta.media.has_b_frames">1</property>
  <property name="meta.media.width">1280</property>
  <property name="meta.media.height">720</property>
  <property name="meta.media.color_range">mpeg</property>
  <property name="kdenlive:id">38</property>
  <property name="kdenlive:file_size">3087908</property>
  <property name="kdenlive:file_hash">60372ea8947bcd9e324f9adc8b3fca3a</property>
  <property name="kdenlive:audio_max1">1</property>
  <property name="meta.media.top_field_first">0</property>
  <property name="meta.media.progressive">1</property>
 </producer>
 <producer id="producer31" in="00:00:00.000" out="00:00:08.033">
  <property name="length">242</property>
  <property name="eof">pause</property>
  <property name="resource">assets/shellenberger-1.png</property>
  <property name="ttl">25</property>
  <property name="aspect_ratio">1</property>
  <property name="progressive">1</property>
  <property name="seekable">1</property>
  <property name="meta.media.width">1920</property>
  <property name="meta.media.height">1080</property>
  <property name="mlt_service">qimage</property>
  <property name="kdenlive:clipname"/>
  <property name="kdenlive:duration">00:00:05.000</property>
  <property name="kdenlive:folderid">39</property>
  <property name="kdenlive:id">41</property>
  <property name="kdenlive:file_size">2023108</property>
  <property name="kdenlive:file_hash">6eb6c71a28ab6d53182e3345501abbbb</property>
 </producer>
 <producer id="producer32" in="00:00:00.000" out="00:00:15.967">
  <property name="length">480</property>
  <property name="eof">pause</property>
  <property name="resource">assets/shellenberger-0.png</property>
  <property name="ttl">25</property>
  <property name="aspect_ratio">1</property>
  <property name="progressive">1</property>
  <property name="seekable">1</property>
  <property name="meta.media.width">1920</property>
  <property name="meta.media.height">1080</property>
  <property name="mlt_service">qimage</property>
  <property name="kdenlive:clipname"/>
  <property name="kdenlive:duration">00:00:05.000</property>
  <property name="kdenlive:folderid">39</property>
  <property name="kdenlive:id">40</property>
  <property name="kdenlive:file_size">2073110</property>
  <property name="kdenlive:file_hash">8dbd31c0ad4c6da0734b361953e0c08a</property>
 </producer>
 <producer id="producer33" in="00:00:00.000" out="00:00:10.800">
  <property name="length">325</property>
  <property name="eof">pause</property>
  <property name="resource">assets/shellenberger-2.png</property>
  <property name="ttl">25</property>
  <property name="aspect_ratio">1</property>
  <property name="progressive">1</property>
  <property name="seekable">1</property>
  <property name="meta.media.width">1920</property>
  <property name="meta.media.height">1080</property>
  <property name="mlt_service">qimage</property>
  <property name="kdenlive:clipname"/>
  <property name="kdenlive:duration">00:00:05.000</property>
  <property name="kdenlive:folderid">39</property>
  <property name="kdenlive:id">42</property>
  <property name="kdenlive:file_size">2047789</property>
  <property name="kdenlive:file_hash">b2aa82e27e9880f2a86aea9a238e0896</property>
 </producer>
 <producer id="producer34" in="00:00:00.000" out="00:00:18.833">
  <property name="length">566</property>
  <property name="eof">pause</property>
  <property name="resource">assets/shellenberger-3.png</property>
  <property name="ttl">25</property>
  <property name="aspect_ratio">1</property>
  <property name="progressive">1</property>
  <property name="seekable">1</property>
  <property name="meta.media.width">1920</property>
  <property name="meta.media.height">1080</property>
  <property name="mlt_service">qimage</property>
  <property name="kdenlive:clipname"/>
  <property name="kdenlive:duration">00:00:05.000</property>
  <property name="kdenlive:folderid">39</property>
  <property name="kdenlive:id">43</property>
  <property name="kdenlive:file_size">2066299</property>
  <property name="kdenlive:file_hash">ea2b4eed29ed00f744a1a65a99745e64</property>
 </producer>
 <producer id="producer35" in="00:00:00.000" out="00:00:16.233">
  <property name="length">488</property>
  <property name="eof">pause</property>
  <property name="resource">assets/shellenberger-4.png</property>
  <property name="ttl">25</property>
  <property name="aspect_ratio">1</property>
  <property name="progressive">1</property>
  <property name="seekable">1</property>
  <property name="meta.media.width">1920</property>
  <property name="meta.media.height">1080</property>
  <property name="mlt_service">qimage</property>
  <property name="kdenlive:clipname"/>
  <property name="kdenlive:duration">00:00:05.000</property>
  <property name="kdenlive:folderid">39</property>
  <property name="kdenlive:id">44</property>
  <property name="kdenlive:file_size">2071775</property>
  <property name="kdenlive:file_hash">3dd239d4b62f8db5347798baa86a1331</property>
 </producer>
 <producer id="producer36" in="00:00:00.000" out="00:00:25.533">
  <property name="length">767</property>
  <property name="eof">pause</property>
  <property name="resource">assets/shellenberger-5.png</property>
  <property name="ttl">25</property>
  <property name="aspect_ratio">1</property>
  <property name="progressive">1</property>
  <property name="seekable">1</property>
  <property name="meta.media.width">1920</property>
  <property name="meta.media.height">1080</property>
  <property name="mlt_service">qimage</property>
  <property name="kdenlive:clipname"/>
  <property name="kdenlive:duration">00:00:05.000</property>
  <property name="kdenlive:folderid">39</property>
  <property name="kdenlive:id">45</property>
  <property name="kdenlive:file_size">2091225</property>
  <property name="kdenlive:file_hash">18eb25ad5e95d11d74af06f2e6e32758</property>
 </producer>
 <producer id="producer37" in="00:00:00.000" out="00:02:23.400">
  <property name="length">4303</property>
  <property name="eof">pause</property>
  <property name="resource">assets/Nika uses Esper Hand. By Esper Bionics [tk7X3fPkdp8].mp4</property>
  <property name="meta.media.nb_streams">2</property>
  <property name="meta.media.0.stream.type">video</property>
  <property name="meta.media.0.stream.frame_rate">25</property>
  <property name="meta.media.0.stream.sample_aspect_ratio">1</property>
  <property name="meta.media.0.codec.width">1920</property>
  <property name="meta.media.0.codec.height">1080</property>
  <property name="meta.media.0.codec.rotate">0</property>
  <property name="meta.media.0.codec.pix_fmt">yuv420p</property>
  <property name="meta.media.0.codec.sample_aspect_ratio">1</property>
  <property name="meta.media.0.codec.colorspace">709</property>
  <property name="meta.media.0.codec.color_trc">1</property>
  <property name="meta.media.0.codec.name">h264</property>
  <property name="meta.media.0.codec.long_name">H.264 / AVC / MPEG-4 AVC / MPEG-4 part 10</property>
  <property name="meta.media.0.codec.bit_rate">1305893</property>
  <property name="meta.attr.0.stream.handler_name.markup">ISO Media file produced by Google Inc.</property>
  <property name="meta.attr.0.stream.vendor_id.markup">[0][0][0][0]</property>
  <property name="meta.media.1.stream.type">audio</property>
  <property name="meta.media.1.codec.sample_fmt">fltp</property>
  <property name="meta.media.1.codec.sample_rate">44100</property>
  <property name="meta.media.1.codec.channels">2</property>
  <property name="meta.media.1.codec.name">aac</property>
  <property name="meta.media.1.codec.long_name">AAC (Advanced Audio Coding)</property>
  <property name="meta.media.1.codec.bit_rate">127999</property>
  <property name="meta.attr.1.stream.handler_name.markup">ISO Media file produced by Google Inc.</property>
  <property name="meta.attr.1.stream.vendor_id.markup">[0][0][0][0]</property>
  <property name="meta.attr.major_brand.markup">isom</property>
  <property name="meta.attr.minor_version.markup">512</property>
  <property name="meta.attr.compatible_brands.markup">isomiso2avc1mp41</property>
  <property name="meta.attr.encoder.markup">Lavf59.16.100</property>
  <property name="seekable">1</property>
  <property name="meta.media.sample_aspect_num">1</property>
  <property name="meta.media.sample_aspect_den">1</property>
  <property name="aspect_ratio">1</property>
  <property name="audio_index">1</property>
  <property name="video_index">0</property>
  <property name="mute_on_pause">0</property>
  <property name="mlt_service">avformat-novalidate</property>
  <property name="kdenlive:clipname"/>
  <property name="kdenlive:folderid">6</property>
  <property name="meta.media.frame_rate_num">25</property>
  <property name="meta.media.frame_rate_den">1</property>
  <property name="meta.media.colorspace">709</property>
  <property name="meta.media.color_trc">1</property>
  <property name="meta.media.has_b_frames">1</property>
  <property name="meta.media.width">1920</property>
  <property name="meta.media.height">1080</property>
  <property name="meta.media.color_range">mpeg</property>
  <property name="kdenlive:id">46</property>
  <property name="kdenlive:file_size">25805744</property>
  <property name="kdenlive:file_hash">5dab8f703b2d45ccfc0a791549ed4fa8</property>
  <property name="meta.media.top_field_first">0</property>
  <property name="meta.media.progressive">1</property>
  <property name="kdenlive:audio_max1">208</property>
  <property name="kdenlive:active_streams">-1</property>
 </producer>
 <producer id="producer38" in="00:00:00.000" out="00:03:04.533">
  <property name="length">5537</property>
  <property name="eof">pause</property>
  <property name="resource">assets/Rare Nuclear Bomb Footage Reveals Their True Power _ WIRED [c6W2suGacjQ].mp4</property>
  <property name="meta.media.nb_streams">2</property>
  <property name="meta.media.0.stream.type">video</property>
  <property name="meta.media.0.stream.frame_rate">23.976</property>
  <property name="meta.media.0.stream.sample_aspect_ratio">1</property>
  <property name="meta.media.0.codec.width">1920</property>
  <property name="meta.media.0.codec.height">1080</property>
  <property name="meta.media.0.codec.rotate">0</property>
  <property name="meta.media.0.codec.pix_fmt">yuv420p</property>
  <property name="meta.media.0.codec.sample_aspect_ratio">1</property>
  <property name="meta.media.0.codec.colorspace">709</property>
  <property name="meta.media.0.codec.color_trc">1</property>
  <property name="meta.media.0.codec.name">h264</property>
  <property name="meta.media.0.codec.long_name">H.264 / AVC / MPEG-4 AVC / MPEG-4 part 10</property>
  <property name="meta.media.0.codec.bit_rate">1591774</property>
  <property name="meta.attr.0.stream.handler_name.markup">ISO Media file produced by Google Inc.</property>
  <property name="meta.attr.0.stream.vendor_id.markup">[0][0][0][0]</property>
  <property name="meta.media.1.stream.type">audio</property>
  <property name="meta.media.1.codec.sample_fmt">fltp</property>
  <property name="meta.media.1.codec.sample_rate">44100</property>
  <property name="meta.media.1.codec.channels">2</property>
  <property name="meta.media.1.codec.name">aac</property>
  <property name="meta.media.1.codec.long_name">AAC (Advanced Audio Coding)</property>
  <property name="meta.media.1.codec.bit_rate">127999</property>
  <property name="meta.attr.1.stream.handler_name.markup">ISO Media file produced by Google Inc.</property>
  <property name="meta.attr.1.stream.vendor_id.markup">[0][0][0][0]</property>
  <property name="meta.attr.major_brand.markup">isom</property>
  <property name="meta.attr.minor_version.markup">512</property>
  <property name="meta.attr.compatible_brands.markup">isomiso2avc1mp41</property>
  <property name="meta.attr.encoder.markup">Lavf59.16.100</property>
  <property name="seekable">1</property>
  <property name="meta.media.sample_aspect_num">1</property>
  <property name="meta.media.sample_aspect_den">1</property>
  <property name="aspect_ratio">1</property>
  <property name="audio_index">1</property>
  <property name="video_index">0</property>
  <property name="mute_on_pause">0</property>
  <property name="mlt_service">avformat-novalidate</property>
  <property name="kdenlive:clipname"/>
  <property name="kdenlive:folderid">6</property>
  <property name="meta.media.frame_rate_num">24000</property>
  <property name="meta.media.frame_rate_den">1001</property>
  <property name="meta.media.colorspace">709</property>
  <property name="meta.media.color_trc">1</property>
  <property name="meta.media.has_b_frames">1</property>
  <property name="meta.media.width">1920</property>
  <property name="meta.media.height">1080</property>
  <property name="meta.media.color_range">mpeg</property>
  <property name="kdenlive:id">47</property>
  <property name="kdenlive:file_size">39777542</property>
  <property name="kdenlive:file_hash">3375376da01e3a0067c2fb3640c690e7</property>
  <property name="meta.media.top_field_first">0</property>
  <property name="meta.media.progressive">1</property>
  <property name="kdenlive:audio_max1">219</property>
  <property name="kdenlive:active_streams">-1</property>
 </producer>
 <producer id="producer39" in="00:00:00.000" out="00:01:09.200">
  <property name="length">2077</property>
  <property name="eof">pause</property>
  <property name="resource">assets/The magnificent arrest of Cecil George Edwards [NbVJU1CuM0Q].mp4</property>
  <property name="meta.media.nb_streams">2</property>
  <property name="meta.media.0.stream.type">video</property>
  <property name="meta.media.0.stream.frame_rate">30</property>
  <property name="meta.media.0.stream.sample_aspect_ratio">1</property>
  <property name="meta.media.0.codec.width">480</property>
  <property name="meta.media.0.codec.height">360</property>
  <property name="meta.media.0.codec.rotate">0</property>
  <property name="meta.media.0.codec.pix_fmt">yuv420p</property>
  <property name="meta.media.0.codec.sample_aspect_ratio">1</property>
  <property name="meta.media.0.codec.colorspace">601</property>
  <property name="meta.media.0.codec.name">h264</property>
  <property name="meta.media.0.codec.long_name">H.264 / AVC / MPEG-4 AVC / MPEG-4 part 10</property>
  <property name="meta.media.0.codec.bit_rate">274093</property>
  <property name="meta.attr.0.stream.handler_name.markup">VideoHandler</property>
  <property name="meta.attr.0.stream.vendor_id.markup">[0][0][0][0]</property>
  <property name="meta.media.1.stream.type">audio</property>
  <property name="meta.media.1.codec.sample_fmt">fltp</property>
  <property name="meta.media.1.codec.sample_rate">44100</property>
  <property name="meta.media.1.codec.channels">2</property>
  <property name="meta.media.1.codec.name">aac</property>
  <property name="meta.media.1.codec.long_name">AAC (Advanced Audio Coding)</property>
  <property name="meta.media.1.codec.bit_rate">125588</property>
  <property name="meta.attr.1.stream.handler_name.markup">SoundHandler</property>
  <property name="meta.attr.1.stream.vendor_id.markup">[0][0][0][0]</property>
  <property name="meta.attr.major_brand.markup">isom</property>
  <property name="meta.attr.minor_version.markup">512</property>
  <property name="meta.attr.compatible_brands.markup">isomiso2avc1mp41</property>
  <property name="meta.attr.encoder.markup">Lavf59.16.100</property>
  <property name="seekable">1</property>
  <property name="meta.media.sample_aspect_num">1</property>
  <property name="meta.media.sample_aspect_den">1</property>
  <property name="aspect_ratio">1</property>
  <property name="audio_index">1</property>
  <property name="video_index">0</property>
  <property name="mute_on_pause">0</property>
  <property name="mlt_service">avformat-novalidate</property>
  <property name="kdenlive:clipname"/>
  <property name="kdenlive:folderid">6</property>
  <property name="meta.media.frame_rate_num">30</property>
  <property name="meta.media.frame_rate_den">1</property>
  <property name="meta.media.colorspace">601</property>
  <property name="meta.media.color_trc">2</property>
  <property name="meta.media.has_b_frames">1</property>
  <property name="meta.media.width">480</property>
  <property name="meta.media.height">360</property>
  <property name="meta.media.color_range">mpeg</property>
  <property name="kdenlive:id">48</property>
  <property name="kdenlive:file_size">3515747</property>
  <property name="kdenlive:file_hash">c73fda319a0defd4b331c840144432bf</property>
  <property name="meta.media.top_field_first">0</property>
  <property name="meta.media.progressive">1</property>
  <property name="kdenlive:audio_max1">189</property>
 </producer>
 <producer id="producer40" in="00:00:00.000" out="00:00:04.967">
  <property name="length">150</property>
  <property name="eof">pause</property>
  <property name="resource"/>
  <property name="progressive">1</property>
  <property name="aspect_ratio">1</property>
  <property name="seekable">1</property>
  <property name="mlt_service">kdenlivetitle</property>
  <property name="kdenlive:duration">150</property>
  <property name="kdenlive:clipname">Primitivism</property>
  <property name="xmldata">&lt;kdenlivetitle duration="150" LC_NUMERIC="C" width="1920" height="1080" out="149">
 &lt;item type="QGraphicsTextItem" z-index="0">
  &lt;position x="599" y="809">
   &lt;transform>1,0,0,0,1,0,0,0,1&lt;/transform>
  &lt;/position>
  &lt;content line-spacing="0" shadow="0;#64000000;3;3;3" font-underline="0" box-height="165" font-outline-color="0,0,0,255" font="Open Sans ExtraBold" letter-spacing="0" font-pixel-size="120" font-italic="0" typewriter="0;2;1;0;0" alignment="2" font-weight="50" font-outline="2.5" box-width="721.984" font-color="255,255,255,255">primitivism&lt;/content>
 &lt;/item>
 &lt;startviewport rect="0,0,1920,1080"/>
 &lt;endviewport rect="0,0,1920,1080"/>
 &lt;background color="0,0,0,0"/>
&lt;/kdenlivetitle>
</property>
  <property name="kdenlive:folderid">49</property>
  <property name="kdenlive:id">50</property>
  <property name="kdenlive:file_hash">441e96c42bba9a91cfe8d73dc94f0ad7</property>
  <property name="force_reload">0</property>
  <property name="meta.media.width">1920</property>
  <property name="meta.media.height">1080</property>
 </producer>
 <producer id="producer41" in="00:00:00.000" out="00:00:04.967">
  <property name="length">150</property>
  <property name="eof">pause</property>
  <property name="progressive">1</property>
  <property name="aspect_ratio">1</property>
  <property name="seekable">1</property>
  <property name="mlt_service">kdenlivetitle</property>
  <property name="kdenlive:duration">150</property>
  <property name="kdenlive:clipname">is a</property>
  <property name="xmldata">&lt;kdenlivetitle duration="150" LC_NUMERIC="C" width="1920" height="1080" out="149">
 &lt;item type="QGraphicsTextItem" z-index="0">
  &lt;position x="856" y="809">
   &lt;transform>1,0,0,0,1,0,0,0,1&lt;/transform>
  &lt;/position>
  &lt;content line-spacing="0" shadow="0;#64000000;3;3;3" font-underline="0" box-height="165" font-outline-color="0,0,0,255" font="Open Sans ExtraBold" letter-spacing="0" font-pixel-size="120" font-italic="0" typewriter="0;2;1;0;0" alignment="2" font-weight="50" font-outline="2.5" box-width="208.938" font-color="255,255,255,255">is a&lt;/content>
 &lt;/item>
 &lt;startviewport rect="0,0,1920,1080"/>
 &lt;endviewport rect="0,0,1920,1080"/>
 &lt;background color="0,0,0,0"/>
&lt;/kdenlivetitle>
</property>
  <property name="kdenlive:folderid">49</property>
  <property name="kdenlive:id">51</property>
  <property name="kdenlive:file_hash">cf35ca9058134642ca745c310862e938</property>
  <property name="force_reload">0</property>
  <property name="meta.media.width">1920</property>
  <property name="meta.media.height">1080</property>
 </producer>
 <producer id="producer42" in="00:00:00.000" out="00:00:04.967">
  <property name="length">150</property>
  <property name="eof">pause</property>
  <property name="progressive">1</property>
  <property name="aspect_ratio">1</property>
  <property name="seekable">1</property>
  <property name="mlt_service">kdenlivetitle</property>
  <property name="kdenlive:duration">150</property>
  <property name="kdenlive:clipname">philosophy</property>
  <property name="xmldata">&lt;kdenlivetitle duration="150" LC_NUMERIC="C" width="1920" height="1080" out="149">
 &lt;item type="QGraphicsTextItem" z-index="0">
  &lt;position x="618" y="809">
   &lt;transform>1,0,0,0,1,0,0,0,1&lt;/transform>
  &lt;/position>
  &lt;content line-spacing="0" shadow="0;#64000000;3;3;3" font-underline="0" box-height="165" font-outline-color="0,0,0,255" font="Open Sans ExtraBold" letter-spacing="0" font-pixel-size="120" font-italic="0" typewriter="0;2;1;0;0" alignment="2" font-weight="50" font-outline="2.5" box-width="683.953" font-color="255,255,255,255">philosophy&lt;/content>
 &lt;/item>
 &lt;startviewport rect="0,0,1920,1080"/>
 &lt;endviewport rect="0,0,1920,1080"/>
 &lt;background color="0,0,0,0"/>
&lt;/kdenlivetitle>
</property>
  <property name="kdenlive:folderid">49</property>
  <property name="kdenlive:id">52</property>
  <property name="kdenlive:file_hash">9492e1baf38f5cb8f6d149fb13e35991</property>
  <property name="force_reload">0</property>
  <property name="meta.media.width">1920</property>
  <property name="meta.media.height">1080</property>
 </producer>
 <producer id="producer43" in="00:00:00.000" out="00:00:04.967">
  <property name="length">150</property>
  <property name="eof">pause</property>
  <property name="progressive">1</property>
  <property name="aspect_ratio">1</property>
  <property name="seekable">1</property>
  <property name="mlt_service">kdenlivetitle</property>
  <property name="kdenlive:duration">150</property>
  <property name="kdenlive:clipname">based upon</property>
  <property name="xmldata">&lt;kdenlivetitle duration="150" LC_NUMERIC="C" width="1920" height="1080" out="149">
 &lt;item type="QGraphicsTextItem" z-index="0">
  &lt;position x="604" y="809">
   &lt;transform>1,0,0,0,1,0,0,0,1&lt;/transform>
  &lt;/position>
  &lt;content line-spacing="0" shadow="0;#64000000;3;3;3" font-underline="0" box-height="165" font-outline-color="0,0,0,255" font="Open Sans ExtraBold" letter-spacing="0" font-pixel-size="120" font-italic="0" typewriter="0;2;1;0;0" alignment="2" font-weight="50" font-outline="2.5" box-width="712.797" font-color="255,255,255,255">based upon&lt;/content>
 &lt;/item>
 &lt;startviewport rect="0,0,1920,1080"/>
 &lt;endviewport rect="0,0,1920,1080"/>
 &lt;background color="0,0,0,0"/>
&lt;/kdenlivetitle>
</property>
  <property name="kdenlive:folderid">49</property>
  <property name="kdenlive:id">53</property>
  <property name="kdenlive:file_hash">905a9d107a4990c7bb46c891292b156e</property>
  <property name="force_reload">0</property>
  <property name="meta.media.width">1920</property>
  <property name="meta.media.height">1080</property>
 </producer>
 <producer id="producer44" in="00:00:00.000" out="00:00:04.967">
  <property name="length">150</property>
  <property name="eof">pause</property>
  <property name="progressive">1</property>
  <property name="aspect_ratio">1</property>
  <property name="seekable">1</property>
  <property name="mlt_service">kdenlivetitle</property>
  <property name="kdenlive:duration">150</property>
  <property name="kdenlive:clipname">the destruct...</property>
  <property name="xmldata">&lt;kdenlivetitle duration="150" LC_NUMERIC="C" width="1920" height="1080" out="149">
 &lt;item type="QGraphicsTextItem" z-index="0">
  &lt;position x="478" y="809">
   &lt;transform>1,0,0,0,1,0,0,0,1&lt;/transform>
  &lt;/position>
  &lt;content line-spacing="0" shadow="0;#64000000;3;3;3" font-underline="0" box-height="165" font-outline-color="0,0,0,255" font="Open Sans ExtraBold" letter-spacing="0" font-pixel-size="120" font-italic="0" typewriter="0;2;1;0;0" alignment="2" font-weight="50" font-outline="2.5" box-width="963.844" font-color="255,255,255,255">the destruction&lt;/content>
 &lt;/item>
 &lt;startviewport rect="0,0,1920,1080"/>
 &lt;endviewport rect="0,0,1920,1080"/>
 &lt;background color="0,0,0,0"/>
&lt;/kdenlivetitle>
</property>
  <property name="kdenlive:folderid">49</property>
  <property name="kdenlive:id">54</property>
  <property name="kdenlive:file_hash">557b68f93d7975539c20e3edf47d220c</property>
  <property name="force_reload">0</property>
  <property name="meta.media.width">1920</property>
  <property name="meta.media.height">1080</property>
 </producer>
 <producer id="producer45" in="00:00:00.000" out="00:00:04.967">
  <property name="length">150</property>
  <property name="eof">pause</property>
  <property name="progressive">1</property>
  <property name="aspect_ratio">1</property>
  <property name="seekable">1</property>
  <property name="mlt_service">kdenlivetitle</property>
  <property name="kdenlive:duration">150</property>
  <property name="kdenlive:clipname">of</property>
  <property name="xmldata">&lt;kdenlivetitle duration="150" LC_NUMERIC="C" width="1920" height="1080" out="149">
 &lt;item type="QGraphicsTextItem" z-index="0">
  &lt;position x="895" y="809">
   &lt;transform>1,0,0,0,1,0,0,0,1&lt;/transform>
  &lt;/position>
  &lt;content line-spacing="0" shadow="0;#64000000;3;3;3" font-underline="0" box-height="165" font-outline-color="0,0,0,255" font="Open Sans ExtraBold" letter-spacing="0" font-pixel-size="120" font-italic="0" typewriter="0;2;1;0;0" alignment="2" font-weight="50" font-outline="2.5" box-width="129.016" font-color="255,255,255,255">of&lt;/content>
 &lt;/item>
 &lt;startviewport rect="0,0,1920,1080"/>
 &lt;endviewport rect="0,0,1920,1080"/>
 &lt;background color="0,0,0,0"/>
&lt;/kdenlivetitle>
</property>
  <property name="kdenlive:folderid">49</property>
  <property name="kdenlive:id">55</property>
  <property name="kdenlive:file_hash">1f3234c79d489af3592ec07d6be722a3</property>
  <property name="force_reload">0</property>
  <property name="meta.media.width">1920</property>
  <property name="meta.media.height">1080</property>
 </producer>
 <producer id="producer46" in="00:00:00.000" out="00:00:04.967">
  <property name="length">150</property>
  <property name="eof">pause</property>
  <property name="progressive">1</property>
  <property name="aspect_ratio">1</property>
  <property name="seekable">1</property>
  <property name="mlt_service">kdenlivetitle</property>
  <property name="kdenlive:duration">150</property>
  <property name="kdenlive:clipname">human civili...</property>
  <property name="xmldata">&lt;kdenlivetitle duration="150" LC_NUMERIC="C" width="1920" height="1080" out="149">
 &lt;item type="QGraphicsTextItem" z-index="0">
  &lt;position x="385" y="809">
   &lt;transform>1,0,0,0,1,0,0,0,1&lt;/transform>
  &lt;/position>
  &lt;content line-spacing="0" shadow="0;#64000000;3;3;3" font-underline="0" box-height="165" font-outline-color="0,0,0,255" font="Open Sans ExtraBold" letter-spacing="0" font-pixel-size="120" font-italic="0" typewriter="0;2;1;0;0" alignment="2" font-weight="50" font-outline="2.5" box-width="1150.72" font-color="255,255,255,255">human civilisation&lt;/content>
 &lt;/item>
 &lt;startviewport rect="0,0,1920,1080"/>
 &lt;endviewport rect="0,0,1920,1080"/>
 &lt;background color="0,0,0,0"/>
&lt;/kdenlivetitle>
</property>
  <property name="kdenlive:folderid">49</property>
  <property name="kdenlive:id">56</property>
  <property name="kdenlive:file_hash">79a4f32e71dd8ab5809e952531785a07</property>
  <property name="force_reload">0</property>
  <property name="meta.media.width">1920</property>
  <property name="meta.media.height">1080</property>
 </producer>
 <producer id="producer47" in="00:00:00.000" out="00:00:04.967">
  <property name="length">150</property>
  <property name="eof">pause</property>
  <property name="progressive">1</property>
  <property name="aspect_ratio">1</property>
  <property name="seekable">1</property>
  <property name="mlt_service">kdenlivetitle</property>
  <property name="kdenlive:duration">150</property>
  <property name="kdenlive:clipname">is</property>
  <property name="xmldata">&lt;kdenlivetitle duration="150" LC_NUMERIC="C" width="1920" height="1080" out="149">
 &lt;item type="QGraphicsTextItem" z-index="0">
  &lt;position x="908" y="809">
   &lt;transform>1,0,0,0,1,0,0,0,1&lt;/transform>
  &lt;/position>
  &lt;content line-spacing="0" shadow="0;#64000000;3;3;3" font-underline="0" box-height="165" font-outline-color="0,0,0,255" font="Open Sans ExtraBold" letter-spacing="0" font-pixel-size="120" font-italic="0" typewriter="0;2;1;0;0" alignment="2" font-weight="50" font-outline="2.5" box-width="103" font-color="255,255,255,255">is&lt;/content>
 &lt;/item>
 &lt;startviewport rect="0,0,1920,1080"/>
 &lt;endviewport rect="0,0,1920,1080"/>
 &lt;background color="0,0,0,0"/>
&lt;/kdenlivetitle>
</property>
  <property name="kdenlive:folderid">49</property>
  <property name="kdenlive:id">57</property>
  <property name="kdenlive:file_hash">a9ec9dff17d2b687d56eaeb10f734c61</property>
  <property name="force_reload">0</property>
  <property name="meta.media.width">1920</property>
  <property name="meta.media.height">1080</property>
 </producer>
 <producer id="producer48" in="00:00:00.000" out="00:00:04.967">
  <property name="length">150</property>
  <property name="eof">pause</property>
  <property name="progressive">1</property>
  <property name="aspect_ratio">1</property>
  <property name="seekable">1</property>
  <property name="mlt_service">kdenlivetitle</property>
  <property name="kdenlive:duration">150</property>
  <property name="kdenlive:clipname">apocalyptic</property>
  <property name="xmldata">&lt;kdenlivetitle duration="150" LC_NUMERIC="C" width="1920" height="1080" out="149">
 &lt;item type="QGraphicsTextItem" z-index="0">
  &lt;position x="602" y="809">
   &lt;transform>1,0,0,0,1,0,0,0,1&lt;/transform>
  &lt;/position>
  &lt;content line-spacing="0" shadow="0;#64000000;3;3;3" font-underline="0" box-height="165" font-outline-color="0,0,0,255" font="Open Sans ExtraBold" letter-spacing="0" font-pixel-size="120" font-italic="0" typewriter="0;2;1;0;0" alignment="2" font-weight="50" font-outline="2.5" box-width="715.828" font-color="255,255,255,255">apocalyptic&lt;/content>
 &lt;/item>
 &lt;startviewport rect="0,0,1920,1080"/>
 &lt;endviewport rect="0,0,1920,1080"/>
 &lt;background color="0,0,0,0"/>
&lt;/kdenlivetitle>
</property>
  <property name="kdenlive:folderid">49</property>
  <property name="kdenlive:id">58</property>
  <property name="kdenlive:file_hash">10880392a5768a99952e1c3733993d6b</property>
  <property name="force_reload">0</property>
  <property name="meta.media.width">1920</property>
  <property name="meta.media.height">1080</property>
 </producer>
 <producer id="producer49" in="00:00:00.000" out="00:00:04.967">
  <property name="length">150</property>
  <property name="eof">pause</property>
  <property name="progressive">1</property>
  <property name="aspect_ratio">1</property>
  <property name="seekable">1</property>
  <property name="mlt_service">kdenlivetitle</property>
  <property name="kdenlive:duration">150</property>
  <property name="kdenlive:clipname">expropriatio...</property>
  <property name="xmldata">&lt;kdenlivetitle duration="150" LC_NUMERIC="C" width="1920" height="1080" out="149">
 &lt;item type="QGraphicsTextItem" z-index="0">
  &lt;position x="533" y="809">
   &lt;transform>1,0,0,0,1,0,0,0,1&lt;/transform>
  &lt;/position>
  &lt;content line-spacing="0" shadow="0;#64000000;3;3;3" font-underline="0" box-height="165" font-outline-color="0,0,0,255" font="Open Sans ExtraBold" letter-spacing="0" font-pixel-size="120" font-italic="0" typewriter="0;2;1;0;0" alignment="2" font-weight="50" font-outline="2.5" box-width="853.125" font-color="255,255,255,255">expropriation&lt;/content>
 &lt;/item>
 &lt;startviewport rect="0,0,1920,1080"/>
 &lt;endviewport rect="0,0,1920,1080"/>
 &lt;background color="0,0,0,0"/>
&lt;/kdenlivetitle>
</property>
  <property name="kdenlive:folderid">49</property>
  <property name="kdenlive:id">59</property>
  <property name="kdenlive:file_hash">58220b40a5c2f2ea34afcbf9a42d63ae</property>
  <property name="force_reload">0</property>
  <property name="meta.media.width">1920</property>
  <property name="meta.media.height">1080</property>
 </producer>
 <producer id="producer50" in="00:00:00.000" out="00:00:04.967">
  <property name="length">150</property>
  <property name="eof">pause</property>
  <property name="progressive">1</property>
  <property name="aspect_ratio">1</property>
  <property name="seekable">1</property>
  <property name="mlt_service">kdenlivetitle</property>
  <property name="kdenlive:duration">150</property>
  <property name="kdenlive:clipname">producers</property>
  <property name="xmldata">&lt;kdenlivetitle duration="150" LC_NUMERIC="C" width="1920" height="1080" out="149">
 &lt;item type="QGraphicsTextItem" z-index="0">
  &lt;position x="648" y="809">
   &lt;transform>1,0,0,0,1,0,0,0,1&lt;/transform>
  &lt;/position>
  &lt;content line-spacing="0" shadow="0;#64000000;3;3;3" font-underline="0" box-height="165" font-outline-color="0,0,0,255" font="Open Sans ExtraBold" letter-spacing="0" font-pixel-size="120" font-italic="0" typewriter="0;2;1;0;0" alignment="2" font-weight="50" font-outline="2.5" box-width="624.188" font-color="255,255,255,255">producers&lt;/content>
 &lt;/item>
 &lt;startviewport rect="0,0,1920,1080"/>
 &lt;endviewport rect="0,0,1920,1080"/>
 &lt;background color="0,0,0,0"/>
&lt;/kdenlivetitle>
</property>
  <property name="kdenlive:folderid">49</property>
  <property name="kdenlive:id">60</property>
  <property name="kdenlive:file_hash">2d5e91bbcfb029ea87253a56eb129cbf</property>
  <property name="force_reload">0</property>
  <property name="meta.media.width">1920</property>
  <property name="meta.media.height">1080</property>
 </producer>
 <producer id="producer51" in="00:00:00.000" out="00:00:04.967">
  <property name="length">150</property>
  <property name="eof">pause</property>
  <property name="progressive">1</property>
  <property name="aspect_ratio">1</property>
  <property name="seekable">1</property>
  <property name="mlt_service">kdenlivetitle</property>
  <property name="kdenlive:duration">150</property>
  <property name="kdenlive:clipname">homesteaders</property>
  <property name="xmldata">&lt;kdenlivetitle duration="150" LC_NUMERIC="C" width="1920" height="1080" out="149">
 &lt;item type="QGraphicsTextItem" z-index="0">
  &lt;position x="515" y="809">
   &lt;transform>1,0,0,0,1,0,0,0,1&lt;/transform>
  &lt;/position>
  &lt;content line-spacing="0" shadow="0;#64000000;3;3;3" font-underline="0" box-height="165" font-outline-color="0,0,0,255" font="Open Sans ExtraBold" letter-spacing="0" font-pixel-size="120" font-italic="0" typewriter="0;2;1;0;0" alignment="2" font-weight="50" font-outline="2.5" box-width="890.734" font-color="255,255,255,255">homesteaders&lt;/content>
 &lt;/item>
 &lt;startviewport rect="0,0,1920,1080"/>
 &lt;endviewport rect="0,0,1920,1080"/>
 &lt;background color="0,0,0,0"/>
&lt;/kdenlivetitle>
</property>
  <property name="kdenlive:folderid">49</property>
  <property name="kdenlive:id">61</property>
  <property name="kdenlive:file_hash">3002dc17365c77d732cca2d6323609ba</property>
  <property name="force_reload">0</property>
  <property name="meta.media.width">1920</property>
  <property name="meta.media.height">1080</property>
 </producer>
 <producer id="producer52" in="00:00:00.000" out="00:00:04.967">
  <property name="length">150</property>
  <property name="eof">pause</property>
  <property name="progressive">1</property>
  <property name="aspect_ratio">1</property>
  <property name="seekable">1</property>
  <property name="mlt_service">kdenlivetitle</property>
  <property name="kdenlive:duration">150</property>
  <property name="kdenlive:clipname">and</property>
  <property name="xmldata">&lt;kdenlivetitle duration="150" LC_NUMERIC="C" width="1920" height="1080" out="149">
 &lt;item type="QGraphicsTextItem" z-index="0">
  &lt;position x="844" y="809">
   &lt;transform>1,0,0,0,1,0,0,0,1&lt;/transform>
  &lt;/position>
  &lt;content line-spacing="0" shadow="0;#64000000;3;3;3" font-underline="0" box-height="165" font-outline-color="0,0,0,255" font="Open Sans ExtraBold" letter-spacing="0" font-pixel-size="120" font-italic="0" typewriter="0;2;1;0;0" alignment="2" font-weight="50" font-outline="2.5" box-width="232.313" font-color="255,255,255,255">and&lt;/content>
 &lt;/item>
 &lt;startviewport rect="0,0,1920,1080"/>
 &lt;endviewport rect="0,0,1920,1080"/>
 &lt;background color="0,0,0,0"/>
&lt;/kdenlivetitle>
</property>
  <property name="kdenlive:folderid">49</property>
  <property name="kdenlive:id">62</property>
  <property name="kdenlive:file_hash">142a9f8ddb3c7689eb695ee7f9eaf4c9</property>
  <property name="force_reload">0</property>
  <property name="meta.media.width">1920</property>
  <property name="meta.media.height">1080</property>
 </producer>
 <producer id="producer53" in="00:00:00.000" out="00:00:04.967">
  <property name="length">150</property>
  <property name="eof">pause</property>
  <property name="progressive">1</property>
  <property name="aspect_ratio">1</property>
  <property name="seekable">1</property>
  <property name="mlt_service">kdenlivetitle</property>
  <property name="kdenlive:duration">150</property>
  <property name="kdenlive:clipname">traders</property>
  <property name="xmldata">&lt;kdenlivetitle duration="150" LC_NUMERIC="C" width="1920" height="1080" out="149">
 &lt;item type="QGraphicsTextItem" z-index="0">
  &lt;position x="732" y="809">
   &lt;transform>1,0,0,0,1,0,0,0,1&lt;/transform>
  &lt;/position>
  &lt;content line-spacing="0" shadow="0;#64000000;3;3;3" font-underline="0" box-height="165" font-outline-color="0,0,0,255" font="Open Sans ExtraBold" letter-spacing="0" font-pixel-size="120" font-italic="0" typewriter="0;2;1;0;0" alignment="2" font-weight="50" font-outline="2.5" box-width="455.453" font-color="255,255,255,255">traders&lt;/content>
 &lt;/item>
 &lt;startviewport rect="0,0,1920,1080"/>
 &lt;endviewport rect="0,0,1920,1080"/>
 &lt;background color="0,0,0,0"/>
&lt;/kdenlivetitle>
</property>
  <property name="kdenlive:folderid">49</property>
  <property name="kdenlive:id">63</property>
  <property name="kdenlive:file_hash">b879e261b2f1233f272995c260b53f61</property>
  <property name="force_reload">0</property>
  <property name="meta.media.width">1920</property>
  <property name="meta.media.height">1080</property>
 </producer>
 <producer id="producer54" in="00:00:00.000" out="00:00:04.967">
  <property name="length">150</property>
  <property name="eof">pause</property>
  <property name="progressive">1</property>
  <property name="aspect_ratio">1</property>
  <property name="seekable">1</property>
  <property name="mlt_service">kdenlivetitle</property>
  <property name="kdenlive:duration">150</property>
  <property name="kdenlive:clipname">enacts</property>
  <property name="xmldata">&lt;kdenlivetitle duration="150" LC_NUMERIC="C" width="1920" height="1080" out="149">
 &lt;item type="QGraphicsTextItem" z-index="0">
  &lt;position x="753" y="809">
   &lt;transform>1,0,0,0,1,0,0,0,1&lt;/transform>
  &lt;/position>
  &lt;content line-spacing="0" shadow="0;#64000000;3;3;3" font-underline="0" box-height="165" font-outline-color="0,0,0,255" font="Open Sans ExtraBold" letter-spacing="0" font-pixel-size="120" font-italic="0" typewriter="0;2;1;0;0" alignment="2" font-weight="50" font-outline="2.5" box-width="413.188" font-color="255,255,255,255">enacts&lt;/content>
 &lt;/item>
 &lt;startviewport rect="0,0,1920,1080"/>
 &lt;endviewport rect="0,0,1920,1080"/>
 &lt;background color="0,0,0,0"/>
&lt;/kdenlivetitle>
</property>
  <property name="kdenlive:folderid">49</property>
  <property name="kdenlive:id">64</property>
  <property name="kdenlive:file_hash">848862c22c32b906c98669df50039247</property>
  <property name="force_reload">0</property>
  <property name="meta.media.width">1920</property>
  <property name="meta.media.height">1080</property>
 </producer>
 <producer id="producer55" in="00:00:00.000" out="00:00:04.967">
  <property name="length">150</property>
  <property name="eof">pause</property>
  <property name="progressive">1</property>
  <property name="aspect_ratio">1</property>
  <property name="seekable">1</property>
  <property name="mlt_service">kdenlivetitle</property>
  <property name="kdenlive:duration">150</property>
  <property name="kdenlive:clipname">a</property>
  <property name="xmldata">&lt;kdenlivetitle duration="150" LC_NUMERIC="C" width="1920" height="1080" out="149">
 &lt;item type="QGraphicsTextItem" z-index="0">
  &lt;position x="923" y="809">
   &lt;transform>1,0,0,0,1,0,0,0,1&lt;/transform>
  &lt;/position>
  &lt;content line-spacing="0" shadow="0;#64000000;3;3;3" font-underline="0" box-height="165" font-outline-color="0,0,0,255" font="Open Sans ExtraBold" letter-spacing="0" font-pixel-size="120" font-italic="0" typewriter="0;2;1;0;0" alignment="2" font-weight="50" font-outline="2.5" box-width="74.7656" font-color="255,255,255,255">a&lt;/content>
 &lt;/item>
 &lt;startviewport rect="0,0,1920,1080"/>
 &lt;endviewport rect="0,0,1920,1080"/>
 &lt;background color="0,0,0,0"/>
&lt;/kdenlivetitle>
</property>
  <property name="kdenlive:folderid">49</property>
  <property name="kdenlive:id">65</property>
  <property name="kdenlive:file_hash">93e2bc7e1dc89f48eea3935b4052270c</property>
  <property name="force_reload">0</property>
  <property name="meta.media.width">1920</property>
  <property name="meta.media.height">1080</property>
 </producer>
 <producer id="producer56" in="00:00:00.000" out="00:00:04.967">
  <property name="length">150</property>
  <property name="eof">pause</property>
  <property name="progressive">1</property>
  <property name="aspect_ratio">1</property>
  <property name="seekable">1</property>
  <property name="mlt_service">kdenlivetitle</property>
  <property name="kdenlive:duration">150</property>
  <property name="kdenlive:clipname">tendency</property>
  <property name="xmldata">&lt;kdenlivetitle duration="150" LC_NUMERIC="C" width="1920" height="1080" out="149">
 &lt;item type="QGraphicsTextItem" z-index="0">
  &lt;position x="670" y="809">
   &lt;transform>1,0,0,0,1,0,0,0,1&lt;/transform>
  &lt;/position>
  &lt;content line-spacing="0" shadow="0;#64000000;3;3;3" font-underline="0" box-height="165" font-outline-color="0,0,0,255" font="Open Sans ExtraBold" letter-spacing="0" font-pixel-size="120" font-italic="0" typewriter="0;2;1;0;0" alignment="2" font-weight="50" font-outline="2.5" box-width="580.328" font-color="255,255,255,255">tendency&lt;/content>
 &lt;/item>
 &lt;startviewport rect="0,0,1920,1080"/>
 &lt;endviewport rect="0,0,1920,1080"/>
 &lt;background color="0,0,0,0"/>
&lt;/kdenlivetitle>
</property>
  <property name="kdenlive:folderid">49</property>
  <property name="kdenlive:id">66</property>
  <property name="kdenlive:file_hash">5ada9ff0bafb5601ec134d0cd3ab9f00</property>
  <property name="force_reload">0</property>
  <property name="meta.media.width">1920</property>
  <property name="meta.media.height">1080</property>
 </producer>
 <producer id="producer57" in="00:00:00.000" out="00:00:04.967">
  <property name="length">150</property>
  <property name="eof">pause</property>
  <property name="progressive">1</property>
  <property name="aspect_ratio">1</property>
  <property name="seekable">1</property>
  <property name="mlt_service">kdenlivetitle</property>
  <property name="kdenlive:duration">150</property>
  <property name="kdenlive:clipname">away from</property>
  <property name="xmldata">&lt;kdenlivetitle duration="150" LC_NUMERIC="C" width="1920" height="1080" out="149">
 &lt;item type="QGraphicsTextItem" z-index="0">
  &lt;position x="794" y="809">
   &lt;transform>1,0,0,0,1,0,0,0,1&lt;/transform>
  &lt;/position>
  &lt;content line-spacing="0" shadow="0;#64000000;3;3;3" font-underline="0" box-height="165" font-outline-color="0,0,0,255" font="Open Sans ExtraBold" letter-spacing="0" font-pixel-size="120" font-italic="0" typewriter="0;2;1;0;0" alignment="2" font-weight="50" font-outline="2.5" box-width="332.922" font-color="255,255,255,255">away&lt;/content>
 &lt;/item>
 &lt;startviewport rect="0,0,1920,1080"/>
 &lt;endviewport rect="0,0,1920,1080"/>
 &lt;background color="0,0,0,0"/>
&lt;/kdenlivetitle>
</property>
  <property name="kdenlive:folderid">49</property>
  <property name="kdenlive:id">67</property>
  <property name="kdenlive:file_hash">d362a91edc3990764f20ec9c2f13731a</property>
  <property name="force_reload">0</property>
  <property name="meta.media.width">1920</property>
  <property name="meta.media.height">1080</property>
 </producer>
 <producer id="producer58" in="00:00:00.000" out="00:00:04.967">
  <property name="length">150</property>
  <property name="eof">pause</property>
  <property name="progressive">1</property>
  <property name="aspect_ratio">1</property>
  <property name="seekable">1</property>
  <property name="mlt_service">kdenlivetitle</property>
  <property name="kdenlive:duration">150</property>
  <property name="kdenlive:clipname">from</property>
  <property name="xmldata">&lt;kdenlivetitle duration="150" LC_NUMERIC="C" width="1920" height="1080" out="149">
 &lt;item type="QGraphicsTextItem" z-index="0">
  &lt;position x="810" y="809">
   &lt;transform>1,0,0,0,1,0,0,0,1&lt;/transform>
  &lt;/position>
  &lt;content line-spacing="0" shadow="0;#64000000;3;3;3" font-underline="0" box-height="165" font-outline-color="0,0,0,255" font="Open Sans ExtraBold" letter-spacing="0" font-pixel-size="120" font-italic="0" typewriter="0;2;1;0;0" alignment="2" font-weight="50" font-outline="2.5" box-width="299.906" font-color="255,255,255,255">from&lt;/content>
 &lt;/item>
 &lt;startviewport rect="0,0,1920,1080"/>
 &lt;endviewport rect="0,0,1920,1080"/>
 &lt;background color="0,0,0,0"/>
&lt;/kdenlivetitle>
</property>
  <property name="kdenlive:folderid">49</property>
  <property name="kdenlive:id">68</property>
  <property name="kdenlive:file_hash">93fa4b490149965ce0e89cdba0db96c7</property>
  <property name="force_reload">0</property>
  <property name="meta.media.width">1920</property>
  <property name="meta.media.height">1080</property>
 </producer>
 <producer id="producer59" in="00:00:00.000" out="00:00:04.967">
  <property name="length">150</property>
  <property name="eof">pause</property>
  <property name="progressive">1</property>
  <property name="aspect_ratio">1</property>
  <property name="seekable">1</property>
  <property name="mlt_service">kdenlivetitle</property>
  <property name="kdenlive:duration">150</property>
  <property name="kdenlive:clipname">production</property>
  <property name="xmldata">&lt;kdenlivetitle duration="150" LC_NUMERIC="C" width="1920" height="1080" out="149">
 &lt;item type="QGraphicsTextItem" z-index="0">
  &lt;position x="620" y="809">
   &lt;transform>1,0,0,0,1,0,0,0,1&lt;/transform>
  &lt;/position>
  &lt;content line-spacing="0" shadow="0;#64000000;3;3;3" font-underline="0" box-height="165" font-outline-color="0,0,0,255" font="Open Sans ExtraBold" letter-spacing="0" font-pixel-size="120" font-italic="0" typewriter="0;2;1;0;0" alignment="2" font-weight="50" font-outline="2.5" box-width="680.781" font-color="255,255,255,255">production&lt;/content>
 &lt;/item>
 &lt;startviewport rect="0,0,1920,1080"/>
 &lt;endviewport rect="0,0,1920,1080"/>
 &lt;background color="0,0,0,0"/>
&lt;/kdenlivetitle>
</property>
  <property name="kdenlive:folderid">49</property>
  <property name="kdenlive:id">69</property>
  <property name="kdenlive:file_hash">61e0c36d449679af08b1c1b61f2285f4</property>
  <property name="force_reload">0</property>
  <property name="meta.media.width">1920</property>
  <property name="meta.media.height">1080</property>
 </producer>
 <producer id="producer60" in="00:00:00.000" out="00:00:04.967">
  <property name="length">150</property>
  <property name="eof">pause</property>
  <property name="progressive">1</property>
  <property name="aspect_ratio">1</property>
  <property name="seekable">1</property>
  <property name="mlt_service">kdenlivetitle</property>
  <property name="kdenlive:duration">150</property>
  <property name="kdenlive:clipname">homesteading</property>
  <property name="xmldata">&lt;kdenlivetitle duration="150" LC_NUMERIC="C" width="1920" height="1080" out="149">
 &lt;item type="QGraphicsTextItem" z-index="0">
  &lt;position x="516" y="809">
   &lt;transform>1,0,0,0,1,0,0,0,1&lt;/transform>
  &lt;/position>
  &lt;content line-spacing="0" shadow="0;#64000000;3;3;3" font-underline="0" box-height="165" font-outline-color="0,0,0,255" font="Open Sans ExtraBold" letter-spacing="0" font-pixel-size="120" font-italic="0" typewriter="0;2;1;0;0" alignment="2" font-weight="50" font-outline="2.5" box-width="888.391" font-color="255,255,255,255">homesteading&lt;/content>
 &lt;/item>
 &lt;startviewport rect="0,0,1920,1080"/>
 &lt;endviewport rect="0,0,1920,1080"/>
 &lt;background color="0,0,0,0"/>
&lt;/kdenlivetitle>
</property>
  <property name="kdenlive:folderid">49</property>
  <property name="kdenlive:id">70</property>
  <property name="kdenlive:file_hash">2281755c25ade0e8f85474413aacfcd0</property>
  <property name="force_reload">0</property>
  <property name="meta.media.width">1920</property>
  <property name="meta.media.height">1080</property>
 </producer>
 <producer id="producer61" in="00:00:00.000" out="00:00:04.967">
  <property name="length">150</property>
  <property name="eof">pause</property>
  <property name="progressive">1</property>
  <property name="aspect_ratio">1</property>
  <property name="seekable">1</property>
  <property name="mlt_service">kdenlivetitle</property>
  <property name="kdenlive:duration">150</property>
  <property name="kdenlive:clipname">trade</property>
  <property name="xmldata">&lt;kdenlivetitle duration="150" LC_NUMERIC="C" width="1920" height="1080" out="149">
 &lt;item type="QGraphicsTextItem" z-index="0">
  &lt;position x="792" y="809">
   &lt;transform>1,0,0,0,1,0,0,0,1&lt;/transform>
  &lt;/position>
  &lt;content line-spacing="0" shadow="0;#64000000;3;3;3" font-underline="0" box-height="165" font-outline-color="0,0,0,255" font="Open Sans ExtraBold" letter-spacing="0" font-pixel-size="120" font-italic="0" typewriter="0;2;1;0;0" alignment="2" font-weight="50" font-outline="2.5" box-width="335.172" font-color="255,255,255,255">trade&lt;/content>
 &lt;/item>
 &lt;startviewport rect="0,0,1920,1080"/>
 &lt;endviewport rect="0,0,1920,1080"/>
 &lt;background color="0,0,0,0"/>
&lt;/kdenlivetitle>
</property>
  <property name="kdenlive:folderid">49</property>
  <property name="kdenlive:id">71</property>
  <property name="kdenlive:file_hash">5a4e5235d0a2b10d79ce9e1846136eb0</property>
  <property name="force_reload">0</property>
  <property name="meta.media.width">1920</property>
  <property name="meta.media.height">1080</property>
 </producer>
 <producer id="producer62" in="00:00:00.000" out="00:00:04.967">
  <property name="length">00:00:05.000</property>
  <property name="eof">pause</property>
  <property name="resource">assets/kane-b.png</property>
  <property name="ttl">25</property>
  <property name="aspect_ratio">1</property>
  <property name="progressive">1</property>
  <property name="seekable">1</property>
  <property name="meta.media.width">714</property>
  <property name="meta.media.height">236</property>
  <property name="mlt_service">qimage</property>
  <property name="kdenlive:clipname"/>
  <property name="kdenlive:duration">00:00:05.000</property>
  <property name="kdenlive:folderid">12</property>
  <property name="kdenlive:id">72</property>
  <property name="kdenlive:file_size">150316</property>
  <property name="kdenlive:file_hash">6aebe9c2bdf3ce00dc1c077330a9d375</property>
 </producer>
 <playlist id="main_bin">
  <property name="kdenlive:docproperties.activeTrack">5</property>
  <property name="kdenlive:docproperties.audioChannels">2</property>
  <property name="kdenlive:docproperties.audioTarget">-1</property>
  <property name="kdenlive:docproperties.disablepreview">0</property>
  <property name="kdenlive:docproperties.documentid">1648568607105</property>
  <property name="kdenlive:docproperties.enableTimelineZone">0</property>
  <property name="kdenlive:docproperties.enableexternalproxy">0</property>
  <property name="kdenlive:docproperties.enableproxy">0</property>
  <property name="kdenlive:docproperties.externalproxyparams"/>
  <property name="kdenlive:docproperties.generateimageproxy">0</property>
  <property name="kdenlive:docproperties.generateproxy">0</property>
  <property name="kdenlive:docproperties.groups">[
    {
        "children": [
            {
                "data": "3:10266",
                "leaf": "clip",
                "type": "Leaf"
            },
            {
                "data": "4:10271",
                "leaf": "clip",
                "type": "Leaf"
            }
        ],
        "type": "Normal"
    },
    {
        "children": [
            {
                "data": "3:14983",
                "leaf": "clip",
                "type": "Leaf"
            },
            {
                "data": "4:14983",
                "leaf": "clip",
                "type": "Leaf"
            }
        ],
        "type": "Normal"
    },
    {
        "children": [
            {
                "data": "3:11653",
                "leaf": "clip",
                "type": "Leaf"
            },
            {
                "data": "4:11653",
                "leaf": "clip",
                "type": "Leaf"
            }
        ],
        "type": "Normal"
    },
    {
        "children": [
            {
                "data": "4:9411",
                "leaf": "clip",
                "type": "Leaf"
            },
            {
                "data": "3:9411",
                "leaf": "clip",
                "type": "Leaf"
            }
        ],
        "type": "Normal"
    },
    {
        "children": [
            {
                "data": "3:8623",
                "leaf": "clip",
                "type": "Leaf"
            },
            {
                "data": "4:8623",
                "leaf": "clip",
                "type": "Leaf"
            }
        ],
        "type": "Normal"
    },
    {
        "children": [
            {
                "data": "4:15246",
                "leaf": "clip",
                "type": "Leaf"
            },
            {
                "data": "3:15246",
                "leaf": "clip",
                "type": "Leaf"
            }
        ],
        "type": "Normal"
    },
    {
        "children": [
            {
                "data": "4:10363",
                "leaf": "clip",
                "type": "Leaf"
            },
            {
                "data": "3:10363",
                "leaf": "clip",
                "type": "Leaf"
            }
        ],
        "type": "Normal"
    },
    {
        "children": [
            {
                "data": "4:14795",
                "leaf": "clip",
                "type": "Leaf"
            },
            {
                "data": "3:14795",
                "leaf": "clip",
                "type": "Leaf"
            }
        ],
        "type": "Normal"
    },
    {
        "children": [
            {
                "data": "4:4404",
                "leaf": "clip",
                "type": "Leaf"
            },
            {
                "data": "3:4404",
                "leaf": "clip",
                "type": "Leaf"
            }
        ],
        "type": "Normal"
    },
    {
        "children": [
            {
                "data": "4:3388",
                "leaf": "clip",
                "type": "Leaf"
            },
            {
                "data": "3:3388",
                "leaf": "clip",
                "type": "Leaf"
            }
        ],
        "type": "Normal"
    },
    {
        "children": [
            {
                "data": "3:5136",
                "leaf": "clip",
                "type": "Leaf"
            },
            {
                "data": "4:5136",
                "leaf": "clip",
                "type": "Leaf"
            }
        ],
        "type": "Normal"
    },
    {
        "children": [
            {
                "data": "4:3066",
                "leaf": "clip",
                "type": "Leaf"
            },
            {
                "data": "3:3066",
                "leaf": "clip",
                "type": "Leaf"
            }
        ],
        "type": "Normal"
    },
    {
        "children": [
            {
                "data": "4:4711",
                "leaf": "clip",
                "type": "Leaf"
            },
            {
                "data": "3:4711",
                "leaf": "clip",
                "type": "Leaf"
            }
        ],
        "type": "Normal"
    },
    {
        "children": [
            {
                "data": "3:6089",
                "leaf": "clip",
                "type": "Leaf"
            },
            {
                "data": "4:6089",
                "leaf": "clip",
                "type": "Leaf"
            }
        ],
        "type": "Normal"
    },
    {
        "children": [
            {
                "data": "4:10099",
                "leaf": "clip",
                "type": "Leaf"
            },
            {
                "data": "2:10099",
                "leaf": "clip",
                "type": "Leaf"
            }
        ],
        "type": "Normal"
    },
    {
        "children": [
            {
                "data": "3:10487",
                "leaf": "clip",
                "type": "Leaf"
            },
            {
                "data": "4:10487",
                "leaf": "clip",
                "type": "Leaf"
            }
        ],
        "type": "Normal"
    },
    {
        "children": [
            {
                "data": "4:1282",
                "leaf": "clip",
                "type": "Leaf"
            },
            {
                "data": "3:1282",
                "leaf": "clip",
                "type": "Leaf"
            }
        ],
        "type": "Normal"
    },
    {
        "children": [
            {
                "data": "4:9763",
                "leaf": "clip",
                "type": "Leaf"
            },
            {
                "data": "3:9763",
                "leaf": "clip",
                "type": "Leaf"
            }
        ],
        "type": "Normal"
    },
    {
        "children": [
            {
                "data": "4:20335",
                "leaf": "clip",
                "type": "Leaf"
            },
            {
                "data": "3:20335",
                "leaf": "clip",
                "type": "Leaf"
            }
        ],
        "type": "Normal"
    },
    {
        "children": [
            {
                "data": "3:4058",
                "leaf": "clip",
                "type": "Leaf"
            },
            {
                "data": "4:4058",
                "leaf": "clip",
                "type": "Leaf"
            }
        ],
        "type": "Normal"
    },
    {
        "children": [
            {
                "data": "3:19405",
                "leaf": "clip",
                "type": "Leaf"
            },
            {
                "data": "4:19405",
                "leaf": "clip",
                "type": "Leaf"
            }
        ],
        "type": "Normal"
    },
    {
        "children": [
            {
                "data": "4:18256",
                "leaf": "clip",
                "type": "Leaf"
            },
            {
                "data": "3:18256",
                "leaf": "clip",
                "type": "Leaf"
            }
        ],
        "type": "Normal"
    },
    {
        "children": [
            {
                "data": "4:4275",
                "leaf": "clip",
                "type": "Leaf"
            },
            {
                "data": "3:4275",
                "leaf": "clip",
                "type": "Leaf"
            }
        ],
        "type": "Normal"
    },
    {
        "children": [
            {
                "data": "4:19906",
                "leaf": "clip",
                "type": "Leaf"
            },
            {
                "data": "3:19906",
                "leaf": "clip",
                "type": "Leaf"
            }
        ],
        "type": "Normal"
    },
    {
        "children": [
            {
                "data": "3:5282",
                "leaf": "clip",
                "type": "Leaf"
            },
            {
                "data": "4:5282",
                "leaf": "clip",
                "type": "Leaf"
            }
        ],
        "type": "Normal"
    },
    {
        "children": [
            {
                "data": "4:16308",
                "leaf": "clip",
                "type": "Leaf"
            },
            {
                "data": "3:16308",
                "leaf": "clip",
                "type": "Leaf"
            }
        ],
        "type": "Normal"
    },
    {
        "children": [
            {
                "data": "3:19619",
                "leaf": "clip",
                "type": "Leaf"
            },
            {
                "data": "4:19619",
                "leaf": "clip",
                "type": "Leaf"
            }
        ],
        "type": "Normal"
    },
    {
        "children": [
            {
                "data": "3:2351",
                "leaf": "clip",
                "type": "Leaf"
            },
            {
                "data": "4:2351",
                "leaf": "clip",
                "type": "Leaf"
            }
        ],
        "type": "Normal"
    },
    {
        "children": [
            {
                "data": "4:19113",
                "leaf": "clip",
                "type": "Leaf"
            },
            {
                "data": "3:19113",
                "leaf": "clip",
                "type": "Leaf"
            }
        ],
        "type": "Normal"
    },
    {
        "children": [
            {
                "data": "4:2263",
                "leaf": "clip",
                "type": "Leaf"
            },
            {
                "data": "3:2263",
                "leaf": "clip",
                "type": "Leaf"
            }
        ],
        "type": "Normal"
    },
    {
        "children": [
            {
                "data": "3:17083",
                "leaf": "clip",
                "type": "Leaf"
            },
            {
                "data": "4:17083",
                "leaf": "clip",
                "type": "Leaf"
            }
        ],
        "type": "Normal"
    },
    {
        "children": [
            {
                "data": "4:5537",
                "leaf": "clip",
                "type": "Leaf"
            },
            {
                "data": "3:5537",
                "leaf": "clip",
                "type": "Leaf"
            }
        ],
        "type": "Normal"
    },
    {
        "children": [
            {
                "data": "4:15983",
                "leaf": "clip",
                "type": "Leaf"
            },
            {
                "data": "3:15983",
                "leaf": "clip",
                "type": "Leaf"
            }
        ],
        "type": "Normal"
    },
    {
        "children": [
            {
                "data": "3:8134",
                "leaf": "clip",
                "type": "Leaf"
            },
            {
                "data": "4:8134",
                "leaf": "clip",
                "type": "Leaf"
            }
        ],
        "type": "Normal"
    },
    {
        "children": [
            {
                "data": "3:621",
                "leaf": "clip",
                "type": "Leaf"
            },
            {
                "data": "4:621",
                "leaf": "clip",
                "type": "Leaf"
            }
        ],
        "type": "Normal"
    },
    {
        "children": [
            {
                "data": "3:20744",
                "leaf": "clip",
                "type": "Leaf"
            },
            {
                "data": "4:20744",
                "leaf": "clip",
                "type": "Leaf"
            }
        ],
        "type": "Normal"
    },
    {
        "children": [
            {
                "data": "3:17199",
                "leaf": "clip",
                "type": "Leaf"
            },
            {
                "data": "4:17199",
                "leaf": "clip",
                "type": "Leaf"
            }
        ],
        "type": "Normal"
    },
    {
        "children": [
            {
                "data": "3:1611",
                "leaf": "clip",
                "type": "Leaf"
            },
            {
                "data": "4:1611",
                "leaf": "clip",
                "type": "Leaf"
            }
        ],
        "type": "Normal"
    },
    {
        "children": [
            {
                "data": "3:11785",
                "leaf": "clip",
                "type": "Leaf"
            },
            {
                "data": "4:11785",
                "leaf": "clip",
                "type": "Leaf"
            }
        ],
        "type": "Normal"
    },
    {
        "children": [
            {
                "data": "3:598",
                "leaf": "clip",
                "type": "Leaf"
            },
            {
                "data": "4:598",
                "leaf": "clip",
                "type": "Leaf"
            }
        ],
        "type": "Normal"
    },
    {
        "children": [
            {
                "data": "5:15428",
                "leaf": "clip",
                "type": "Leaf"
            },
            {
                "data": "1:15428",
                "leaf": "clip",
                "type": "Leaf"
            },
            {
                "data": "5:15444",
                "leaf": "clip",
                "type": "Leaf"
            },
            {
                "data": "5:15440",
                "leaf": "clip",
                "type": "Leaf"
            },
            {
                "data": "5:15448",
                "leaf": "clip",
                "type": "Leaf"
            },
            {
                "data": "4:15428",
                "leaf": "clip",
                "type": "Leaf"
            }
        ],
        "type": "Normal"
    },
    {
        "children": [
            {
                "data": "4:1842",
                "leaf": "clip",
                "type": "Leaf"
            },
            {
                "data": "3:1842",
                "leaf": "clip",
                "type": "Leaf"
            }
        ],
        "type": "Normal"
    },
    {
        "children": [
            {
                "data": "4:17511",
                "leaf": "clip",
                "type": "Leaf"
            },
            {
                "data": "3:17511",
                "leaf": "clip",
                "type": "Leaf"
            }
        ],
        "type": "Normal"
    },
    {
        "children": [
            {
                "data": "4:2504",
                "leaf": "clip",
                "type": "Leaf"
            },
            {
                "data": "3:2504",
                "leaf": "clip",
                "type": "Leaf"
            }
        ],
        "type": "Normal"
    },
    {
        "children": [
            {
                "data": "3:11935",
                "leaf": "clip",
                "type": "Leaf"
            },
            {
                "data": "4:11935",
                "leaf": "clip",
                "type": "Leaf"
            }
        ],
        "type": "Normal"
    },
    {
        "children": [
            {
                "data": "3:0",
                "leaf": "clip",
                "type": "Leaf"
            },
            {
                "data": "4:0",
                "leaf": "clip",
                "type": "Leaf"
            }
        ],
        "type": "Normal"
    },
    {
        "children": [
            {
                "data": "3:18286",
                "leaf": "clip",
                "type": "Leaf"
            },
            {
                "data": "4:18286",
                "leaf": "clip",
                "type": "Leaf"
            }
        ],
        "type": "Normal"
    },
    {
        "children": [
            {
                "data": "4:8303",
                "leaf": "clip",
                "type": "Leaf"
            },
            {
                "data": "3:8303",
                "leaf": "clip",
                "type": "Leaf"
            }
        ],
        "type": "Normal"
    },
    {
        "children": [
            {
                "data": "4:535",
                "leaf": "clip",
                "type": "Leaf"
            },
            {
                "data": "3:535",
                "leaf": "clip",
                "type": "Leaf"
            }
        ],
        "type": "Normal"
    },
    {
        "children": [
            {
                "data": "3:16627",
                "leaf": "clip",
                "type": "Leaf"
            },
            {
                "data": "4:16627",
                "leaf": "clip",
                "type": "Leaf"
            }
        ],
        "type": "Normal"
    },
    {
        "children": [
            {
                "data": "4:5987",
                "leaf": "clip",
                "type": "Leaf"
            },
            {
                "data": "3:5987",
                "leaf": "clip",
                "type": "Leaf"
            }
        ],
        "type": "Normal"
    },
    {
        "children": [
            {
                "data": "4:17747",
                "leaf": "clip",
                "type": "Leaf"
            },
            {
                "data": "3:17747",
                "leaf": "clip",
                "type": "Leaf"
            }
        ],
        "type": "Normal"
    },
    {
        "children": [
            {
                "data": "3:2711",
                "leaf": "clip",
                "type": "Leaf"
            },
            {
                "data": "4:2711",
                "leaf": "clip",
                "type": "Leaf"
            }
        ],
        "type": "Normal"
    },
    {
        "children": [
            {
                "data": "3:20237",
                "leaf": "clip",
                "type": "Leaf"
            },
            {
                "data": "4:20237",
                "leaf": "clip",
                "type": "Leaf"
            }
        ],
        "type": "Normal"
    },
    {
        "children": [
            {
                "data": "3:18656",
                "leaf": "clip",
                "type": "Leaf"
            },
            {
                "data": "4:18656",
                "leaf": "clip",
                "type": "Leaf"
            }
        ],
        "type": "Normal"
    },
    {
        "children": [
            {
                "data": "4:5227",
                "leaf": "clip",
                "type": "Leaf"
            },
            {
                "data": "3:5227",
                "leaf": "clip",
                "type": "Leaf"
            }
        ],
        "type": "Normal"
    },
    {
        "children": [
            {
                "data": "3:18817",
                "leaf": "clip",
                "type": "Leaf"
            },
            {
                "data": "4:18817",
                "leaf": "clip",
                "type": "Leaf"
            }
        ],
        "type": "Normal"
    },
    {
        "children": [
            {
                "data": "4:16748",
                "leaf": "clip",
                "type": "Leaf"
            },
            {
                "data": "3:16748",
                "leaf": "clip",
                "type": "Leaf"
            }
        ],
        "type": "Normal"
    },
    {
        "children": [
            {
                "data": "4:19532",
                "leaf": "clip",
                "type": "Leaf"
            },
            {
                "data": "3:19532",
                "leaf": "clip",
                "type": "Leaf"
            }
        ],
        "type": "Normal"
    },
    {
        "children": [
            {
                "data": "4:18463",
                "leaf": "clip",
                "type": "Leaf"
            },
            {
                "data": "3:18463",
                "leaf": "clip",
                "type": "Leaf"
            }
        ],
        "type": "Normal"
    },
    {
        "children": [
            {
                "data": "3:3223",
                "leaf": "clip",
                "type": "Leaf"
            },
            {
                "data": "4:3223",
                "leaf": "clip",
                "type": "Leaf"
            }
        ],
        "type": "Normal"
    },
    {
        "children": [
            {
                "data": "4:15051",
                "leaf": "clip",
                "type": "Leaf"
            },
            {
                "data": "3:15051",
                "leaf": "clip",
                "type": "Leaf"
            }
        ],
        "type": "Normal"
    },
    {
        "children": [
            {
                "data": "3:402",
                "leaf": "clip",
                "type": "Leaf"
            },
            {
                "data": "4:402",
                "leaf": "clip",
                "type": "Leaf"
            }
        ],
        "type": "Normal"
    },
    {
        "children": [
            {
                "data": "4:11340",
                "leaf": "clip",
                "type": "Leaf"
            },
            {
                "data": "3:11340",
                "leaf": "clip",
                "type": "Leaf"
            }
        ],
        "type": "Normal"
    },
    {
        "children": [
            {
                "data": "4:10803",
                "leaf": "clip",
                "type": "Leaf"
            },
            {
                "data": "3:10803",
                "leaf": "clip",
                "type": "Leaf"
            }
        ],
        "type": "Normal"
    },
    {
        "children": [
            {
                "data": "5:8011",
                "leaf": "clip",
                "type": "Leaf"
            },
            {
                "data": "4:8011",
                "leaf": "clip",
                "type": "Leaf"
            },
            {
                "data": "5:8027",
                "leaf": "clip",
                "type": "Leaf"
            },
            {
                "data": "5:8023",
                "leaf": "clip",
                "type": "Leaf"
            },
            {
                "data": "1:8011",
                "leaf": "clip",
                "type": "Leaf"
            },
            {
                "data": "5:8031",
                "leaf": "clip",
                "type": "Leaf"
            }
        ],
        "type": "Normal"
    },
    {
        "children": [
            {
                "data": "3:2142",
                "leaf": "clip",
                "type": "Leaf"
            },
            {
                "data": "4:2142",
                "leaf": "clip",
                "type": "Leaf"
            }
        ],
        "type": "Normal"
    },
    {
        "children": [
            {
                "data": "5:1488",
                "leaf": "clip",
                "type": "Leaf"
            },
            {
                "data": "5:1500",
                "leaf": "clip",
                "type": "Leaf"
            },
            {
                "data": "5:1504",
                "leaf": "clip",
                "type": "Leaf"
            },
            {
                "data": "1:1488",
                "leaf": "clip",
                "type": "Leaf"
            },
            {
                "data": "5:1508",
                "leaf": "clip",
                "type": "Leaf"
            },
            {
                "data": "4:1488",
                "leaf": "clip",
                "type": "Leaf"
            }
        ],
        "type": "Normal"
    },
    {
        "children": [
            {
                "data": "4:7897",
                "leaf": "clip",
                "type": "Leaf"
            },
            {
                "data": "3:7897",
                "leaf": "clip",
                "type": "Leaf"
            }
        ],
        "type": "Normal"
    },
    {
        "children": [
            {
                "data": "4:5841",
                "leaf": "clip",
                "type": "Leaf"
            },
            {
                "data": "3:5841",
                "leaf": "clip",
                "type": "Leaf"
            }
        ],
        "type": "Normal"
    },
    {
        "children": [
            {
                "data": "4:2914",
                "leaf": "clip",
                "type": "Leaf"
            },
            {
                "data": "3:2914",
                "leaf": "clip",
                "type": "Leaf"
            }
        ],
        "type": "Normal"
    },
    {
        "children": [
            {
                "data": "3:7777",
                "leaf": "clip",
                "type": "Leaf"
            },
            {
                "data": "4:7777",
                "leaf": "clip",
                "type": "Leaf"
            }
        ],
        "type": "Normal"
    },
    {
        "children": [
            {
                "data": "4:4904",
                "leaf": "clip",
                "type": "Leaf"
            },
            {
                "data": "3:4904",
                "leaf": "clip",
                "type": "Leaf"
            }
        ],
        "type": "Normal"
    }
]
</property>
  <property name="kdenlive:docproperties.kdenliveversion">21.12.3</property>
  <property name="kdenlive:docproperties.position">19533</property>
  <property name="kdenlive:docproperties.previewextension"/>
  <property name="kdenlive:docproperties.previewparameters"/>
  <property name="kdenlive:docproperties.profile">atsc_1080p_30</property>
  <property name="kdenlive:docproperties.proxyextension"/>
  <property name="kdenlive:docproperties.proxyimageminsize">2000</property>
  <property name="kdenlive:docproperties.proxyimagesize">800</property>
  <property name="kdenlive:docproperties.proxyminsize">1000</property>
  <property name="kdenlive:docproperties.proxyparams"/>
  <property name="kdenlive:docproperties.proxyresize">640</property>
  <property name="kdenlive:docproperties.scrollPos">55476</property>
  <property name="kdenlive:docproperties.seekOffset">30000</property>
  <property name="kdenlive:docproperties.version">1.04</property>
  <property name="kdenlive:docproperties.verticalzoom">1</property>
  <property name="kdenlive:docproperties.videoTarget">-1</property>
  <property name="kdenlive:docproperties.zonein">1433</property>
  <property name="kdenlive:docproperties.zoneout">1644</property>
  <property name="kdenlive:docproperties.zoom">5</property>
  <property name="kdenlive:expandedFolders">12</property>
  <property name="kdenlive:documentnotes"/>
  <property name="kdenlive:folder.-1.5">music</property>
  <property name="kdenlive:folder.-1.6">a/b roll</property>
  <property name="kdenlive:folder.-1.7">audio</property>
  <property name="kdenlive:folder.-1.12">images</property>
  <property name="kdenlive:folder.-1.13">titles</property>
  <property name="kdenlive:docproperties.renderaudioquality">192</property>
  <property name="kdenlive:docproperties.rendercategory">Generic (HD for web, mobile devices...)</property>
  <property name="kdenlive:docproperties.renderendguide">-1</property>
  <property name="kdenlive:docproperties.renderexportaudio">0</property>
  <property name="kdenlive:docproperties.renderfield">0</property>
  <property name="kdenlive:docproperties.renderguide">0</property>
  <property name="kdenlive:docproperties.renderplay">0</property>
  <property name="kdenlive:docproperties.renderprofile">MP4-H264/AAC</property>
  <property name="kdenlive:docproperties.renderquality">23</property>
  <property name="kdenlive:docproperties.renderratio">1</property>
  <property name="kdenlive:docproperties.renderrescale">0</property>
  <property name="kdenlive:docproperties.renderrescaleheight">540</property>
  <property name="kdenlive:docproperties.renderrescalewidth">960</property>
  <property name="kdenlive:docproperties.renderscanning">0</property>
  <property name="kdenlive:docproperties.renderspeed">2</property>
  <property name="kdenlive:docproperties.renderstartguide">-1</property>
  <property name="kdenlive:docproperties.rendertcoverlay">0</property>
  <property name="kdenlive:docproperties.rendertctype">0</property>
  <property name="kdenlive:docproperties.rendertwopass">0</property>
  <property name="kdenlive:docproperties.renderurl">primitivism.mp4</property>
  <property name="kdenlive:docproperties.renderzone">0</property>
  <property name="kdenlive:docproperties.guides">[
]
</property>
  <property name="kdenlive:folder.-1.39">quote</property>
  <property name="kdenlive:folder.-1.49">subtitles</property>
  <property name="xml_retain">1</property>
  <entry producer="producer1" in="00:00:00.000" out="00:19:12.000"/>
  <entry producer="producer2" in="00:00:00.000" out="00:19:11.933"/>
  <entry producer="producer0" in="00:00:00.000" out="00:03:30.367"/>
  <entry producer="producer3" in="00:00:00.000" out="00:03:55.067"/>
  <entry producer="producer6" in="00:00:00.000" out="00:00:04.967"/>
  <entry producer="producer4" in="00:00:00.000" out="00:00:08.233"/>
  <entry producer="producer5" in="00:00:00.000" out="00:00:04.967"/>
  <entry producer="producer7" in="00:00:00.000" out="00:00:04.967"/>
  <entry producer="producer8" in="00:00:00.000" out="00:00:04.967"/>
  <entry producer="producer9" in="00:00:00.000" out="00:03:00.100"/>
  <entry producer="producer10" in="00:00:00.000" out="00:02:45.967"/>
  <entry producer="producer11" in="00:00:00.000" out="00:00:04.967"/>
  <entry producer="producer12" in="00:00:00.000" out="00:00:04.967"/>
  <entry producer="producer13" in="00:00:00.000" out="00:25:05.267"/>
  <entry producer="producer14" in="00:00:00.000" out="00:06:38.967"/>
  <entry producer="producer15" in="00:00:00.000" out="00:00:04.967"/>
  <entry producer="producer16" in="00:00:00.000" out="00:00:04.967"/>
  <entry producer="producer17" in="00:00:00.000" out="00:03:36.200"/>
  <entry producer="producer18" in="00:00:00.000" out="00:00:21.100"/>
  <entry producer="producer19" in="00:00:00.000" out="00:02:18.167"/>
  <entry producer="producer20" in="00:00:00.000" out="00:01:24.767"/>
  <entry producer="producer21" in="00:00:00.000" out="00:00:29.433"/>
  <entry producer="producer22" in="00:00:00.000" out="00:00:14.433"/>
  <entry producer="producer23" in="00:00:00.000" out="00:00:04.967"/>
  <entry producer="producer24" in="00:00:00.000" out="00:10:01.667"/>
  <entry producer="producer25" in="00:00:00.000" out="00:03:03.867"/>
  <entry producer="producer26" in="00:00:00.000" out="00:00:16.700"/>
  <entry producer="producer27" in="00:00:00.000" out="00:04:10.267"/>
  <entry producer="producer28" in="00:00:00.000" out="00:09:23.200"/>
  <entry producer="producer29" in="00:00:00.000" out="00:21:44.867"/>
  <entry producer="producer30" in="00:00:00.000" out="00:00:09.167"/>
  <entry producer="producer31" in="00:00:00.000" out="00:00:04.967"/>
  <entry producer="producer32" in="00:00:00.000" out="00:00:04.967"/>
  <entry producer="producer33" in="00:00:00.000" out="00:00:04.967"/>
  <entry producer="producer34" in="00:00:00.000" out="00:00:04.967"/>
  <entry producer="producer35" in="00:00:00.000" out="00:00:04.967"/>
  <entry producer="producer36" in="00:00:00.000" out="00:00:04.967"/>
  <entry producer="producer37" in="00:00:00.000" out="00:02:23.400"/>
  <entry producer="producer38" in="00:00:00.000" out="00:03:04.533"/>
  <entry producer="producer39" in="00:00:00.000" out="00:01:09.200"/>
  <entry producer="producer40" in="00:00:00.000" out="00:00:04.967"/>
  <entry producer="producer41" in="00:00:00.000" out="00:00:04.967"/>
  <entry producer="producer42" in="00:00:00.000" out="00:00:04.967"/>
  <entry producer="producer43" in="00:00:00.000" out="00:00:04.967"/>
  <entry producer="producer44" in="00:00:00.000" out="00:00:04.967"/>
  <entry producer="producer45" in="00:00:00.000" out="00:00:04.967"/>
  <entry producer="producer46" in="00:00:00.000" out="00:00:04.967"/>
  <entry producer="producer47" in="00:00:00.000" out="00:00:04.967"/>
  <entry producer="producer48" in="00:00:00.000" out="00:00:04.967"/>
  <entry producer="producer49" in="00:00:00.000" out="00:00:04.967"/>
  <entry producer="producer50" in="00:00:00.000" out="00:00:04.967"/>
  <entry producer="producer51" in="00:00:00.000" out="00:00:04.967"/>
  <entry producer="producer52" in="00:00:00.000" out="00:00:04.967"/>
  <entry producer="producer53" in="00:00:00.000" out="00:00:04.967"/>
  <entry producer="producer54" in="00:00:00.000" out="00:00:04.967"/>
  <entry producer="producer55" in="00:00:00.000" out="00:00:04.967"/>
  <entry producer="producer56" in="00:00:00.000" out="00:00:04.967"/>
  <entry producer="producer57" in="00:00:00.000" out="00:00:04.967"/>
  <entry producer="producer58" in="00:00:00.000" out="00:00:04.967"/>
  <entry producer="producer59" in="00:00:00.000" out="00:00:04.967"/>
  <entry producer="producer60" in="00:00:00.000" out="00:00:04.967"/>
  <entry producer="producer61" in="00:00:00.000" out="00:00:04.967"/>
  <entry producer="producer62" in="00:00:00.000" out="00:00:04.967"/>
 </playlist>
 <producer id="black_track" in="00:00:00.000" out="00:28:38.200">
  <property name="length">2147483647</property>
  <property name="eof">continue</property>
  <property name="resource">black</property>
  <property name="aspect_ratio">1</property>
  <property name="mlt_service">color</property>
  <property name="mlt_image_format">rgba</property>
  <property name="set.test_audio">0</property>
 </producer>
 <playlist id="playlist0">
  <property name="kdenlive:audio_track">1</property>
 </playlist>
 <playlist id="playlist1">
  <property name="kdenlive:audio_track">1</property>
 </playlist>
 <tractor id="tractor0" in="00:00:00.000">
  <property name="kdenlive:audio_track">1</property>
  <property name="kdenlive:trackheight">67</property>
  <property name="kdenlive:timeline_active">1</property>
  <property name="kdenlive:collapsed">0</property>
  <property name="kdenlive:thumbs_format"/>
  <property name="kdenlive:audio_rec"/>
  <track hide="video" producer="playlist0"/>
  <track hide="video" producer="playlist1"/>
  <filter id="filter0">
   <property name="window">75</property>
   <property name="max_gain">20dB</property>
   <property name="mlt_service">volume</property>
   <property name="internal_added">237</property>
   <property name="disable">1</property>
  </filter>
  <filter id="filter1">
   <property name="channel">-1</property>
   <property name="mlt_service">panner</property>
   <property name="internal_added">237</property>
   <property name="start">0.5</property>
   <property name="disable">1</property>
  </filter>
  <filter id="filter2">
   <property name="iec_scale">0</property>
   <property name="mlt_service">audiolevel</property>
   <property name="disable">1</property>
  </filter>
 </tractor>
 <producer id="producer63" in="00:00:00.000" out="00:03:30.367">
  <property name="length">6312</property>
  <property name="eof">pause</property>
  <property name="resource">/home/liquidzulu/Music/youtube-music/you take some chocolate and some lobster and some eggs and some pie [r5yEYPKf66k].mp3</property>
  <property name="audio_index">0</property>
  <property name="video_index">-1</property>
  <property name="mute_on_pause">0</property>
  <property name="mlt_service">avformat-novalidate</property>
  <property name="meta.media.nb_streams">1</property>
  <property name="meta.media.0.stream.type">audio</property>
  <property name="meta.media.0.codec.sample_fmt">fltp</property>
  <property name="meta.media.0.codec.sample_rate">48000</property>
  <property name="meta.media.0.codec.channels">2</property>
  <property name="meta.media.0.codec.name">mp3float</property>
  <property name="meta.media.0.codec.long_name">MP3 (MPEG audio layer 3)</property>
  <property name="meta.media.0.codec.bit_rate">119577</property>
  <property name="meta.attr.0.stream.encoder.markup">Lavc59.18</property>
  <property name="meta.attr.encoder.markup">Lavf59.16.100</property>
  <property name="seekable">1</property>
  <property name="kdenlive:clipname"/>
  <property name="kdenlive:folderid">-1</property>
  <property name="kdenlive:id">4</property>
  <property name="kdenlive:file_size">3144669</property>
  <property name="kdenlive:file_hash">7ac062316c20084a5680fde88b4ec0b5</property>
  <property name="kdenlive:audio_max0">241</property>
  <property name="xml">was here</property>
  <property name="set.test_audio">0</property>
  <property name="set.test_image">1</property>
 </producer>
 <producer id="producer64" in="00:00:00.000" out="00:03:55.067">
  <property name="length">7053</property>
  <property name="eof">pause</property>
  <property name="resource">/home/liquidzulu/Music/youtube-music/The Epic Of Gilgamesh In Sumerian [QUcTsFe1PVs].mp3</property>
  <property name="audio_index">0</property>
  <property name="video_index">-1</property>
  <property name="mute_on_pause">0</property>
  <property name="mlt_service">avformat-novalidate</property>
  <property name="meta.media.nb_streams">1</property>
  <property name="meta.media.0.stream.type">audio</property>
  <property name="meta.media.0.codec.sample_fmt">fltp</property>
  <property name="meta.media.0.codec.sample_rate">48000</property>
  <property name="meta.media.0.codec.channels">2</property>
  <property name="meta.media.0.codec.name">mp3float</property>
  <property name="meta.media.0.codec.long_name">MP3 (MPEG audio layer 3)</property>
  <property name="meta.media.0.codec.bit_rate">100157</property>
  <property name="meta.attr.0.stream.encoder.markup">Lavc59.18</property>
  <property name="meta.attr.encoder.markup">Lavf59.16.100</property>
  <property name="seekable">1</property>
  <property name="kdenlive:clipname"/>
  <property name="kdenlive:folderid">5</property>
  <property name="kdenlive:id">8</property>
  <property name="kdenlive:file_size">2943453</property>
  <property name="kdenlive:file_hash">749e28626b24e12762f1ca817a98ee12</property>
  <property name="kdenlive:audio_max0">187</property>
  <property name="xml">was here</property>
  <property name="set.test_audio">0</property>
  <property name="set.test_image">1</property>
 </producer>
 <producer id="producer65" in="00:00:00.000" out="00:03:00.100">
  <property name="length">5404</property>
  <property name="eof">pause</property>
  <property name="resource">/home/liquidzulu/Music/youtube-music/popular-front/1. Ararat.mp3</property>
  <property name="audio_index">0</property>
  <property name="video_index">1</property>
  <property name="mute_on_pause">0</property>
  <property name="mlt_service">avformat-novalidate</property>
  <property name="seekable">1</property>
  <property name="aspect_ratio">1</property>
  <property name="kdenlive:clipname"/>
  <property name="kdenlive:folderid">-1</property>
  <property name="kdenlive:id">16</property>
  <property name="kdenlive:file_size">2972831</property>
  <property name="kdenlive:file_hash">5c23f3b857a43b89951dbc1383785fcb</property>
  <property name="xml">was here</property>
  <property name="meta.media.nb_streams">2</property>
  <property name="meta.media.0.stream.type">audio</property>
  <property name="meta.media.0.codec.sample_fmt">fltp</property>
  <property name="meta.media.0.codec.sample_rate">44100</property>
  <property name="meta.media.0.codec.channels">2</property>
  <property name="meta.media.0.codec.name">mp3float</property>
  <property name="meta.media.0.codec.long_name">MP3 (MPEG audio layer 3)</property>
  <property name="meta.media.0.codec.bit_rate">128000</property>
  <property name="meta.attr.0.stream.encoder.markup">Lavf</property>
  <property name="meta.media.1.stream.type">video</property>
  <property name="meta.media.1.stream.frame_rate">-nan</property>
  <property name="meta.media.1.stream.sample_aspect_ratio">0</property>
  <property name="meta.media.1.codec.width">500</property>
  <property name="meta.media.1.codec.height">500</property>
  <property name="meta.media.1.codec.rotate">0</property>
  <property name="meta.media.1.codec.pix_fmt">yuvj420p</property>
  <property name="meta.media.1.codec.sample_aspect_ratio">1</property>
  <property name="meta.media.1.codec.colorspace">601</property>
  <property name="meta.media.1.codec.name">mjpeg</property>
  <property name="meta.media.1.codec.long_name">MJPEG (Motion JPEG)</property>
  <property name="meta.media.1.codec.bit_rate">0</property>
  <property name="meta.attr.1.stream.title.markup">Cover</property>
  <property name="meta.attr.1.stream.comment.markup">Cover (front)</property>
  <property name="meta.attr.title.markup">1. Ararat</property>
  <property name="meta.attr.artist.markup">Sam Black</property>
  <property name="meta.attr.date.markup">2021-03-06T10</property>
  <property name="meta.attr.genre.markup">Soundtrack</property>
  <property name="meta.media.sample_aspect_num">1</property>
  <property name="meta.media.sample_aspect_den">1</property>
  <property name="meta.media.frame_rate_num">90000</property>
  <property name="meta.media.frame_rate_den">1</property>
  <property name="meta.media.colorspace">601</property>
  <property name="meta.media.color_trc">2</property>
  <property name="meta.media.has_b_frames">0</property>
  <property name="meta.media.width">500</property>
  <property name="meta.media.height">500</property>
  <property name="meta.media.color_range">full</property>
  <property name="meta.media.top_field_first">0</property>
  <property name="meta.media.progressive">1</property>
  <property name="set.test_audio">0</property>
  <property name="set.test_image">1</property>
 </producer>
 <producer id="producer66" in="00:00:00.000" out="00:02:45.967">
  <property name="length">4980</property>
  <property name="eof">pause</property>
  <property name="resource">/home/liquidzulu/Music/youtube-music/popular-front/2. B O L L Y.mp3</property>
  <property name="audio_index">0</property>
  <property name="video_index">1</property>
  <property name="mute_on_pause">0</property>
  <property name="mlt_service">avformat-novalidate</property>
  <property name="seekable">1</property>
  <property name="aspect_ratio">1</property>
  <property name="kdenlive:clipname"/>
  <property name="kdenlive:folderid">-1</property>
  <property name="kdenlive:id">17</property>
  <property name="kdenlive:file_size">6721098</property>
  <property name="kdenlive:file_hash">810e32dd3c4c1f0bddb141218d2e5302</property>
  <property name="xml">was here</property>
  <property name="meta.media.nb_streams">2</property>
  <property name="meta.media.0.stream.type">audio</property>
  <property name="meta.media.0.codec.sample_fmt">fltp</property>
  <property name="meta.media.0.codec.sample_rate">48000</property>
  <property name="meta.media.0.codec.channels">2</property>
  <property name="meta.media.0.codec.name">mp3float</property>
  <property name="meta.media.0.codec.long_name">MP3 (MPEG audio layer 3)</property>
  <property name="meta.media.0.codec.bit_rate">320000</property>
  <property name="meta.media.1.stream.type">video</property>
  <property name="meta.media.1.stream.frame_rate">-nan</property>
  <property name="meta.media.1.stream.sample_aspect_ratio">0</property>
  <property name="meta.media.1.codec.width">500</property>
  <property name="meta.media.1.codec.height">500</property>
  <property name="meta.media.1.codec.rotate">0</property>
  <property name="meta.media.1.codec.pix_fmt">yuvj420p</property>
  <property name="meta.media.1.codec.sample_aspect_ratio">1</property>
  <property name="meta.media.1.codec.colorspace">601</property>
  <property name="meta.media.1.codec.name">mjpeg</property>
  <property name="meta.media.1.codec.long_name">MJPEG (Motion JPEG)</property>
  <property name="meta.media.1.codec.bit_rate">0</property>
  <property name="meta.attr.1.stream.title.markup">Cover</property>
  <property name="meta.attr.1.stream.comment.markup">Cover (front)</property>
  <property name="meta.attr.title.markup">2. B O L L Y</property>
  <property name="meta.attr.artist.markup">Sam Black</property>
  <property name="meta.attr.date.markup">2019-04-02T18</property>
  <property name="meta.attr.genre.markup">Electronic</property>
  <property name="meta.attr.comment.markup">www.soundcloud.com/popularfrontcast
www.instagram.com/popular.front
www.instagram.com/samblack6778
www.twitter.com/popularfront</property>
  <property name="meta.media.sample_aspect_num">1</property>
  <property name="meta.media.sample_aspect_den">1</property>
  <property name="meta.media.frame_rate_num">90000</property>
  <property name="meta.media.frame_rate_den">1</property>
  <property name="meta.media.colorspace">601</property>
  <property name="meta.media.color_trc">2</property>
  <property name="meta.media.has_b_frames">0</property>
  <property name="meta.media.width">500</property>
  <property name="meta.media.height">500</property>
  <property name="meta.media.color_range">full</property>
  <property name="meta.media.top_field_first">0</property>
  <property name="meta.media.progressive">1</property>
  <property name="set.test_audio">0</property>
  <property name="set.test_image">1</property>
 </producer>
 <producer id="producer67" in="00:00:00.000" out="00:25:05.267">
  <property name="length">45159</property>
  <property name="eof">pause</property>
  <property name="resource">/home/liquidzulu/Music/youtube-music/chillhop/Sleepy Fish - My Room Becomes the Sea [lofi hiphop] [7zMyA_a5rSU].mp3</property>
  <property name="audio_index">0</property>
  <property name="video_index">-1</property>
  <property name="mute_on_pause">0</property>
  <property name="mlt_service">avformat-novalidate</property>
  <property name="meta.media.nb_streams">1</property>
  <property name="meta.media.0.stream.type">audio</property>
  <property name="meta.media.0.codec.sample_fmt">fltp</property>
  <property name="meta.media.0.codec.sample_rate">48000</property>
  <property name="meta.media.0.codec.channels">2</property>
  <property name="meta.media.0.codec.name">mp3float</property>
  <property name="meta.media.0.codec.long_name">MP3 (MPEG audio layer 3)</property>
  <property name="meta.media.0.codec.bit_rate">113876</property>
  <property name="meta.attr.0.stream.encoder.markup">Lavc59.18</property>
  <property name="meta.attr.encoder.markup">Lavf59.16.100</property>
  <property name="seekable">1</property>
  <property name="kdenlive:clipname"/>
  <property name="kdenlive:folderid">5</property>
  <property name="kdenlive:id">20</property>
  <property name="kdenlive:file_size">21427245</property>
  <property name="kdenlive:file_hash">4032143cced42f7406f0edb1b26d09e5</property>
  <property name="kdenlive:audio_max0">255</property>
  <property name="xml">was here</property>
  <property name="set.test_audio">0</property>
  <property name="set.test_image">1</property>
 </producer>
 <producer id="producer68" in="00:00:00.000" out="00:06:38.967">
  <property name="length">11970</property>
  <property name="eof">pause</property>
  <property name="resource">/home/liquidzulu/Music/youtube-music/haircuts-for-men/呼吸蒸気 [Iw37dZLRoo4].mp3</property>
  <property name="audio_index">0</property>
  <property name="video_index">-1</property>
  <property name="mute_on_pause">0</property>
  <property name="mlt_service">avformat-novalidate</property>
  <property name="meta.media.nb_streams">1</property>
  <property name="meta.media.0.stream.type">audio</property>
  <property name="meta.media.0.codec.sample_fmt">fltp</property>
  <property name="meta.media.0.codec.sample_rate">48000</property>
  <property name="meta.media.0.codec.channels">2</property>
  <property name="meta.media.0.codec.name">mp3float</property>
  <property name="meta.media.0.codec.long_name">MP3 (MPEG audio layer 3)</property>
  <property name="meta.media.0.codec.bit_rate">114469</property>
  <property name="meta.attr.0.stream.encoder.markup">Lavc58.13</property>
  <property name="meta.attr.encoder.markup">Lavf58.76.100</property>
  <property name="seekable">1</property>
  <property name="kdenlive:clipname"/>
  <property name="kdenlive:folderid">5</property>
  <property name="kdenlive:id">21</property>
  <property name="kdenlive:file_size">5709165</property>
  <property name="kdenlive:file_hash">9cb220768187b53db6e2f60dcfaa825f</property>
  <property name="kdenlive:audio_max0">253</property>
  <property name="xml">was here</property>
  <property name="set.test_audio">0</property>
  <property name="set.test_image">1</property>
 </producer>
 <producer id="producer69" in="00:00:00.000" out="00:03:36.200">
  <property name="length">6487</property>
  <property name="eof">pause</property>
  <property name="resource">/home/liquidzulu/Music/youtube-music/chillhop/Yasper - Arcade [WuKDIgz_gpY].mp3</property>
  <property name="audio_index">0</property>
  <property name="video_index">-1</property>
  <property name="mute_on_pause">0</property>
  <property name="mlt_service">avformat-novalidate</property>
  <property name="meta.media.nb_streams">1</property>
  <property name="meta.media.0.stream.type">audio</property>
  <property name="meta.media.0.codec.sample_fmt">fltp</property>
  <property name="meta.media.0.codec.sample_rate">48000</property>
  <property name="meta.media.0.codec.channels">2</property>
  <property name="meta.media.0.codec.name">mp3float</property>
  <property name="meta.media.0.codec.long_name">MP3 (MPEG audio layer 3)</property>
  <property name="meta.media.0.codec.bit_rate">139275</property>
  <property name="meta.attr.0.stream.encoder.markup">Lavc59.18</property>
  <property name="meta.attr.encoder.markup">Lavf59.16.100</property>
  <property name="seekable">1</property>
  <property name="kdenlive:clipname"/>
  <property name="kdenlive:folderid">5</property>
  <property name="kdenlive:id">24</property>
  <property name="kdenlive:file_size">3764637</property>
  <property name="kdenlive:file_hash">1dafb50a51820fdb7d60aa1bcf771791</property>
  <property name="kdenlive:audio_max0">249</property>
  <property name="xml">was here</property>
  <property name="set.test_audio">0</property>
  <property name="set.test_image">1</property>
 </producer>
 <playlist id="playlist2">
  <property name="kdenlive:audio_track">1</property>
  <entry producer="producer63" in="00:00:00.000" out="00:00:49.567">
   <property name="kdenlive:id">4</property>
   <filter id="filter3">
    <property name="window">75</property>
    <property name="max_gain">20dB</property>
    <property name="level">00:00:00.000=-30</property>
    <property name="mlt_service">volume</property>
    <property name="kdenlive_id">volume</property>
    <property name="kdenlive:collapsed">0</property>
   </filter>
  </entry>
  <entry producer="producer64" in="00:00:59.300" out="00:01:03.367">
   <property name="kdenlive:id">8</property>
  </entry>
  <entry producer="producer65" in="00:00:00.000" out="00:02:50.867">
   <property name="kdenlive:id">16</property>
   <filter id="filter4">
    <property name="window">75</property>
    <property name="max_gain">20dB</property>
    <property name="level">00:00:00.000=-27</property>
    <property name="mlt_service">volume</property>
    <property name="kdenlive_id">volume</property>
    <property name="kdenlive:collapsed">0</property>
   </filter>
   <filter id="filter5" in="00:02:48.533" out="00:02:50.867">
    <property name="window">75</property>
    <property name="max_gain">20dB</property>
    <property name="mlt_service">volume</property>
    <property name="kdenlive_id">fadeout</property>
    <property name="gain">1</property>
    <property name="end">0</property>
    <property name="kdenlive:collapsed">0</property>
   </filter>
  </entry>
  <entry producer="producer66" in="00:00:00.000" out="00:00:42.400">
   <property name="kdenlive:id">17</property>
   <filter id="filter6">
    <property name="window">75</property>
    <property name="max_gain">20dB</property>
    <property name="level">00:00:00.000=-21</property>
    <property name="mlt_service">volume</property>
    <property name="kdenlive_id">volume</property>
    <property name="kdenlive:collapsed">0</property>
   </filter>
   <filter id="filter7" out="00:00:02.567">
    <property name="window">75</property>
    <property name="max_gain">20dB</property>
    <property name="mlt_service">volume</property>
    <property name="kdenlive_id">fadein</property>
    <property name="gain">0</property>
    <property name="end">1</property>
    <property name="kdenlive:collapsed">0</property>
   </filter>
  </entry>
  <entry producer="producer64" in="00:00:59.300" out="00:01:03.367">
   <property name="kdenlive:id">8</property>
  </entry>
  <entry producer="producer67" in="00:04:23.733" out="00:06:40.933">
   <property name="kdenlive:id">20</property>
   <filter id="filter8">
    <property name="window">75</property>
    <property name="max_gain">20dB</property>
    <property name="level">00:04:23.733=-23</property>
    <property name="mlt_service">volume</property>
    <property name="kdenlive_id">volume</property>
    <property name="kdenlive:collapsed">0</property>
   </filter>
   <filter id="filter9" in="00:06:38.600" out="00:06:40.933">
    <property name="window">75</property>
    <property name="max_gain">20dB</property>
    <property name="mlt_service">volume</property>
    <property name="kdenlive_id">fadeout</property>
    <property name="gain">1</property>
    <property name="end">0</property>
   </filter>
  </entry>
  <entry producer="producer68" in="00:00:00.000" out="00:01:45.867">
   <property name="kdenlive:id">21</property>
   <filter id="filter10">
    <property name="window">75</property>
    <property name="max_gain">20dB</property>
    <property name="level">00:00:00.000=-21</property>
    <property name="mlt_service">volume</property>
    <property name="kdenlive_id">volume</property>
    <property name="kdenlive:collapsed">0</property>
   </filter>
   <filter id="filter11" out="00:00:02.367">
    <property name="window">75</property>
    <property name="max_gain">20dB</property>
    <property name="mlt_service">volume</property>
    <property name="kdenlive_id">fadein</property>
    <property name="gain">0</property>
    <property name="end">1</property>
    <property name="kdenlive:collapsed">0</property>
   </filter>
  </entry>
  <entry producer="producer64" in="00:00:59.300" out="00:01:03.367">
   <property name="kdenlive:id">8</property>
  </entry>
  <entry producer="producer69" in="00:00:00.000" out="00:03:19.800">
   <property name="kdenlive:id">24</property>
   <filter id="filter12">
    <property name="window">75</property>
    <property name="max_gain">20dB</property>
    <property name="level">00:00:00.000=-20;00:03:12.267=-20;00:03:14.067=0</property>
    <property name="mlt_service">volume</property>
    <property name="kdenlive_id">volume</property>
    <property name="kdenlive:collapsed">0</property>
   </filter>
   <filter id="filter13" in="00:03:19.067" out="00:03:19.800">
    <property name="window">75</property>
    <property name="max_gain">20dB</property>
    <property name="mlt_service">volume</property>
    <property name="kdenlive_id">fadeout</property>
    <property name="gain">1</property>
    <property name="end">0</property>
   </filter>
  </entry>
 </playlist>
 <playlist id="playlist3">
  <property name="kdenlive:audio_track">1</property>
 </playlist>
 <tractor id="tractor1" in="00:00:00.000" out="00:11:58.167">
  <property name="kdenlive:audio_track">1</property>
  <property name="kdenlive:trackheight">67</property>
  <property name="kdenlive:timeline_active">1</property>
  <property name="kdenlive:collapsed">0</property>
  <property name="kdenlive:thumbs_format"/>
  <property name="kdenlive:audio_rec"/>
  <track hide="video" producer="playlist2"/>
  <track hide="video" producer="playlist3"/>
  <filter id="filter14">
   <property name="window">75</property>
   <property name="max_gain">20dB</property>
   <property name="mlt_service">volume</property>
   <property name="internal_added">237</property>
   <property name="disable">1</property>
  </filter>
  <filter id="filter15">
   <property name="channel">-1</property>
   <property name="mlt_service">panner</property>
   <property name="internal_added">237</property>
   <property name="start">0.5</property>
   <property name="disable">1</property>
  </filter>
  <filter id="filter16">
   <property name="iec_scale">0</property>
   <property name="mlt_service">audiolevel</property>
   <property name="disable">1</property>
  </filter>
 </tractor>
 <producer id="producer70" in="00:00:00.000" out="00:19:11.933">
  <property name="length">34559</property>
  <property name="eof">pause</property>
  <property name="resource">assets/audio.flac</property>
  <property name="audio_index">0</property>
  <property name="video_index">-1</property>
  <property name="mute_on_pause">0</property>
  <property name="mlt_service">avformat-novalidate</property>
  <property name="meta.media.nb_streams">1</property>
  <property name="meta.media.0.stream.type">audio</property>
  <property name="meta.media.0.codec.sample_fmt">s16</property>
  <property name="meta.media.0.codec.sample_rate">44100</property>
  <property name="meta.media.0.codec.channels">2</property>
  <property name="meta.media.0.codec.name">flac</property>
  <property name="meta.media.0.codec.long_name">FLAC (Free Lossless Audio Codec)</property>
  <property name="meta.media.0.codec.bit_rate">0</property>
  <property name="meta.attr.ENCODER.markup">FL Studio</property>
  <property name="seekable">1</property>
  <property name="kdenlive:clipname"/>
  <property name="kdenlive:folderid">-1</property>
  <property name="kdenlive:id">3</property>
  <property name="kdenlive:file_size">91240844</property>
  <property name="kdenlive:file_hash">7ec4f5695ab5e68d3eb76d4044555e52</property>
  <property name="kdenlive:audio_max0">242</property>
  <property name="xml">was here</property>
  <property name="set.test_audio">0</property>
  <property name="set.test_image">1</property>
 </producer>
 <playlist id="playlist4">
  <property name="kdenlive:audio_track">1</property>
  <blank length="00:05:36.633"/>
  <entry producer="producer70" in="00:10:04.700" out="00:10:10.400">
   <property name="kdenlive:id">3</property>
  </entry>
  <blank length="00:02:06.333"/>
  <entry producer="producer70" in="00:13:26.233" out="00:13:30.533">
   <property name="kdenlive:id">3</property>
  </entry>
 </playlist>
 <playlist id="playlist5">
  <property name="kdenlive:audio_track">1</property>
 </playlist>
 <tractor id="tractor2" in="00:00:00.000" out="00:07:53.000">
  <property name="kdenlive:audio_track">1</property>
  <property name="kdenlive:trackheight">67</property>
  <property name="kdenlive:timeline_active">1</property>
  <property name="kdenlive:collapsed">0</property>
  <property name="kdenlive:thumbs_format"/>
  <property name="kdenlive:audio_rec"/>
  <track hide="video" producer="playlist4"/>
  <track hide="video" producer="playlist5"/>
  <filter id="filter17">
   <property name="window">75</property>
   <property name="max_gain">20dB</property>
   <property name="mlt_service">volume</property>
   <property name="internal_added">237</property>
   <property name="disable">1</property>
  </filter>
  <filter id="filter18">
   <property name="channel">-1</property>
   <property name="mlt_service">panner</property>
   <property name="internal_added">237</property>
   <property name="start">0.5</property>
   <property name="disable">1</property>
  </filter>
  <filter id="filter19">
   <property name="iec_scale">0</property>
   <property name="mlt_service">audiolevel</property>
   <property name="disable">1</property>
  </filter>
 </tractor>
 <producer id="producer71" in="00:00:00.000" out="00:19:11.933">
  <property name="length">34559</property>
  <property name="eof">pause</property>
  <property name="resource">assets/audio.flac</property>
  <property name="audio_index">0</property>
  <property name="video_index">-1</property>
  <property name="mute_on_pause">0</property>
  <property name="mlt_service">avformat-novalidate</property>
  <property name="meta.media.nb_streams">1</property>
  <property name="meta.media.0.stream.type">audio</property>
  <property name="meta.media.0.codec.sample_fmt">s16</property>
  <property name="meta.media.0.codec.sample_rate">44100</property>
  <property name="meta.media.0.codec.channels">2</property>
  <property name="meta.media.0.codec.name">flac</property>
  <property name="meta.media.0.codec.long_name">FLAC (Free Lossless Audio Codec)</property>
  <property name="meta.media.0.codec.bit_rate">0</property>
  <property name="meta.attr.ENCODER.markup">FL Studio</property>
  <property name="seekable">1</property>
  <property name="kdenlive:clipname"/>
  <property name="kdenlive:folderid">-1</property>
  <property name="kdenlive:id">3</property>
  <property name="kdenlive:file_size">91240844</property>
  <property name="kdenlive:file_hash">7ec4f5695ab5e68d3eb76d4044555e52</property>
  <property name="kdenlive:audio_max0">242</property>
  <property name="xml">was here</property>
  <property name="set.test_audio">0</property>
  <property name="set.test_image">1</property>
 </producer>
 <playlist id="playlist6">
  <property name="kdenlive:audio_track">1</property>
  <entry producer="producer71" in="00:00:03.300" out="00:00:10.133">
   <property name="kdenlive:id">3</property>
  </entry>
  <entry producer="producer71" in="00:00:17.167" out="00:00:23.667">
   <property name="kdenlive:id">3</property>
  </entry>
  <entry producer="producer71" in="00:00:29.967" out="00:00:34.367">
   <property name="kdenlive:id">3</property>
  </entry>
  <entry producer="producer71" in="00:00:34.900" out="00:00:36.967">
   <property name="kdenlive:id">3</property>
  </entry>
  <entry producer="producer71" in="00:00:37.100" out="00:00:37.833">
   <property name="kdenlive:id">3</property>
  </entry>
  <entry producer="producer71" in="00:00:37.933" out="00:00:44.167">
   <property name="kdenlive:id">3</property>
  </entry>
  <entry producer="producer71" in="00:01:02.367" out="00:01:18.100">
   <property name="kdenlive:id">3</property>
  </entry>
  <entry producer="producer71" in="00:01:27.100" out="00:01:33.933">
   <property name="kdenlive:id">3</property>
  </entry>
  <blank length="00:00:04.100"/>
  <entry producer="producer71" in="00:01:37.500" out="00:01:45.167">
   <property name="kdenlive:id">3</property>
  </entry>
  <entry producer="producer71" in="00:01:48.433" out="00:01:49.000">
   <property name="kdenlive:id">3</property>
  </entry>
  <blank length="00:00:00.067"/>
  <entry producer="producer71" in="00:01:49.100" out="00:01:53.200">
   <property name="kdenlive:id">3</property>
   <filter id="filter20" in="00:01:49.100" out="00:01:49.267">
    <property name="window">75</property>
    <property name="max_gain">20dB</property>
    <property name="mlt_service">volume</property>
    <property name="kdenlive_id">fadein</property>
    <property name="gain">0</property>
    <property name="end">1</property>
   </filter>
  </entry>
  <entry producer="producer71" in="00:01:53.533" out="00:01:54.400">
   <property name="kdenlive:id">3</property>
  </entry>
  <blank length="00:00:00.033"/>
  <entry producer="producer71" in="00:01:54.467" out="00:01:54.733">
   <property name="kdenlive:id">3</property>
  </entry>
  <blank length="00:00:00.133"/>
  <entry producer="producer71" in="00:01:54.900" out="00:01:58.700">
   <property name="kdenlive:id">3</property>
  </entry>
  <entry producer="producer71" in="00:02:02.200" out="00:02:06.200">
   <property name="kdenlive:id">3</property>
  </entry>
  <entry producer="producer71" in="00:02:06.633" out="00:02:09.533">
   <property name="kdenlive:id">3</property>
  </entry>
  <entry producer="producer71" in="00:02:17.733" out="00:02:22.800">
   <property name="kdenlive:id">3</property>
  </entry>
  <entry producer="producer71" in="00:02:23.133" out="00:02:23.800">
   <property name="kdenlive:id">3</property>
  </entry>
  <entry producer="producer71" in="00:02:23.933" out="00:02:30.100">
   <property name="kdenlive:id">3</property>
  </entry>
  <entry producer="producer71" in="00:02:35.900" out="00:02:42.633">
   <property name="kdenlive:id">3</property>
  </entry>
  <entry producer="producer71" in="00:02:43.167" out="00:02:48.200">
   <property name="kdenlive:id">3</property>
  </entry>
  <entry producer="producer71" in="00:02:50.100" out="00:02:55.300">
   <property name="kdenlive:id">3</property>
  </entry>
  <entry producer="producer71" in="00:02:55.733" out="00:03:01.200">
   <property name="kdenlive:id">3</property>
  </entry>
  <entry producer="producer71" in="00:03:08.300" out="00:03:13.933">
   <property name="kdenlive:id">3</property>
  </entry>
  <entry producer="producer71" in="00:03:14.267" out="00:03:20.133">
   <property name="kdenlive:id">3</property>
  </entry>
  <entry producer="producer71" in="00:03:26.200" out="00:03:29.100">
   <property name="kdenlive:id">3</property>
  </entry>
  <entry producer="producer71" in="00:03:39.933" out="00:03:47.733">
   <property name="kdenlive:id">3</property>
  </entry>
  <entry producer="producer71" in="00:03:50.100" out="00:03:57.300">
   <property name="kdenlive:id">3</property>
  </entry>
  <entry producer="producer71" in="00:04:01.467" out="00:04:05.733">
   <property name="kdenlive:id">3</property>
  </entry>
  <entry producer="producer71" in="00:04:10.300" out="00:04:20.500">
   <property name="kdenlive:id">3</property>
  </entry>
  <entry producer="producer71" in="00:04:25.200" out="00:04:31.600">
   <property name="kdenlive:id">3</property>
  </entry>
  <entry producer="producer71" in="00:04:35.467" out="00:04:43.167">
   <property name="kdenlive:id">3</property>
  </entry>
  <entry producer="producer71" in="00:04:51.000" out="00:04:54.000">
   <property name="kdenlive:id">3</property>
  </entry>
  <entry producer="producer71" in="00:04:54.167" out="00:04:55.967">
   <property name="kdenlive:id">3</property>
  </entry>
  <entry producer="producer71" in="00:05:10.033" out="00:05:18.500">
   <property name="kdenlive:id">3</property>
  </entry>
  <entry producer="producer71" in="00:05:18.967" out="00:05:22.033">
   <property name="kdenlive:id">3</property>
  </entry>
  <entry producer="producer71" in="00:05:23.500" out="00:05:27.733">
   <property name="kdenlive:id">3</property>
  </entry>
  <entry producer="producer71" in="00:05:28.567" out="00:05:31.300">
   <property name="kdenlive:id">3</property>
  </entry>
  <entry producer="producer71" in="00:05:40.567" out="00:05:45.400">
   <property name="kdenlive:id">3</property>
  </entry>
  <entry producer="producer71" in="00:05:45.767" out="00:05:49.133">
   <property name="kdenlive:id">3</property>
  </entry>
  <entry producer="producer71" in="00:05:49.567" out="00:05:54.700">
   <property name="kdenlive:id">3</property>
  </entry>
  <entry producer="producer71" in="00:05:56.900" out="00:06:09.000">
   <property name="kdenlive:id">3</property>
  </entry>
  <entry producer="producer71" in="00:06:16.133" out="00:06:21.800">
   <property name="kdenlive:id">3</property>
  </entry>
  <entry producer="producer71" in="00:06:24.800" out="00:06:32.900">
   <property name="kdenlive:id">3</property>
  </entry>
  <entry producer="producer71" in="00:06:46.667" out="00:06:53.533">
   <property name="kdenlive:id">3</property>
  </entry>
  <entry producer="producer71" in="00:06:58.400" out="00:07:10.200">
   <property name="kdenlive:id">3</property>
  </entry>
  <entry producer="producer71" in="00:07:11.133" out="00:07:17.500">
   <property name="kdenlive:id">3</property>
  </entry>
  <entry producer="producer71" in="00:07:20.867" out="00:07:24.833">
   <property name="kdenlive:id">3</property>
  </entry>
  <entry producer="producer71" in="00:07:27.200" out="00:07:30.967">
   <property name="kdenlive:id">3</property>
  </entry>
  <blank length="00:00:04.100"/>
  <entry producer="producer71" in="00:07:35.900" out="00:07:41.500">
   <property name="kdenlive:id">3</property>
  </entry>
  <entry producer="producer71" in="00:07:46.100" out="00:07:56.733">
   <property name="kdenlive:id">3</property>
  </entry>
  <entry producer="producer71" in="00:08:00.133" out="00:08:05.867">
   <property name="kdenlive:id">3</property>
  </entry>
  <entry producer="producer71" in="00:08:40.467" out="00:08:46.967">
   <property name="kdenlive:id">3</property>
  </entry>
  <entry producer="producer71" in="00:08:59.100" out="00:09:13.033">
   <property name="kdenlive:id">3</property>
  </entry>
  <entry producer="producer71" in="00:09:26.633" out="00:09:38.333">
   <property name="kdenlive:id">3</property>
  </entry>
  <entry producer="producer71" in="00:09:48.600" out="00:09:59.767">
   <property name="kdenlive:id">3</property>
  </entry>
  <blank length="00:00:05.567"/>
  <entry producer="producer71" in="00:10:10.600" out="00:10:13.800">
   <property name="kdenlive:id">3</property>
  </entry>
  <entry producer="producer71" in="00:10:15.367" out="00:10:19.467">
   <property name="kdenlive:id">3</property>
  </entry>
  <entry producer="producer71" in="00:10:19.800" out="00:10:30.300">
   <property name="kdenlive:id">3</property>
  </entry>
  <entry producer="producer71" in="00:10:32.667" out="00:10:50.533">
   <property name="kdenlive:id">3</property>
  </entry>
  <entry producer="producer71" in="00:11:06.833" out="00:11:17.233">
   <property name="kdenlive:id">3</property>
  </entry>
  <entry producer="producer71" in="00:11:17.700" out="00:11:22.067">
   <property name="kdenlive:id">3</property>
  </entry>
  <entry producer="producer71" in="00:11:22.400" out="00:11:27.367">
   <property name="kdenlive:id">3</property>
  </entry>
  <entry producer="producer71" in="00:11:27.900" out="00:11:29.300">
   <property name="kdenlive:id">3</property>
  </entry>
  <entry producer="producer71" in="00:11:36.800" out="00:11:40.900">
   <property name="kdenlive:id">3</property>
  </entry>
  <entry producer="producer71" in="00:11:45.867" out="00:11:52.700">
   <property name="kdenlive:id">3</property>
  </entry>
  <entry producer="producer71" in="00:11:58.100" out="00:12:02.467">
   <property name="kdenlive:id">3</property>
  </entry>
  <entry producer="producer71" in="00:12:03.800" out="00:12:06.900">
   <property name="kdenlive:id">3</property>
  </entry>
  <entry producer="producer71" in="00:12:10.433" out="00:12:15.333">
   <property name="kdenlive:id">3</property>
  </entry>
  <entry producer="producer71" in="00:12:20.767" out="00:12:31.567">
   <property name="kdenlive:id">3</property>
  </entry>
  <entry producer="producer71" in="00:12:32.700" out="00:12:40.567">
   <property name="kdenlive:id">3</property>
  </entry>
  <entry producer="producer71" in="00:12:41.233" out="00:12:47.300">
   <property name="kdenlive:id">3</property>
  </entry>
  <entry producer="producer71" in="00:12:47.933" out="00:12:48.400">
   <property name="kdenlive:id">3</property>
  </entry>
  <entry producer="producer71" in="00:12:48.567" out="00:12:52.900">
   <property name="kdenlive:id">3</property>
  </entry>
  <entry producer="producer71" in="00:12:54.200" out="00:12:59.600">
   <property name="kdenlive:id">3</property>
  </entry>
  <entry producer="producer71" in="00:13:12.067" out="00:13:22.867">
   <property name="kdenlive:id">3</property>
  </entry>
  <blank length="00:00:04.100"/>
  <entry producer="producer71" in="00:13:30.633" out="00:13:32.400">
   <property name="kdenlive:id">3</property>
  </entry>
  <entry producer="producer71" in="00:13:32.767" out="00:13:41.833">
   <property name="kdenlive:id">3</property>
  </entry>
  <entry producer="producer71" in="00:13:43.567" out="00:13:45.867">
   <property name="kdenlive:id">3</property>
  </entry>
  <entry producer="producer71" in="00:13:46.400" out="00:13:49.200">
   <property name="kdenlive:id">3</property>
  </entry>
  <entry producer="producer71" in="00:13:50.800" out="00:13:55.067">
   <property name="kdenlive:id">3</property>
  </entry>
  <entry producer="producer71" in="00:13:57.400" out="00:14:03.633">
   <property name="kdenlive:id">3</property>
  </entry>
  <entry producer="producer71" in="00:14:04.200" out="00:14:06.433">
   <property name="kdenlive:id">3</property>
  </entry>
  <entry producer="producer71" in="00:14:06.900" out="00:14:13.367">
   <property name="kdenlive:id">3</property>
  </entry>
  <entry producer="producer71" in="00:14:16.633" out="00:14:22.667">
   <property name="kdenlive:id">3</property>
  </entry>
  <blank length="00:00:04.100"/>
  <entry producer="producer71" in="00:14:27.533" out="00:14:34.433">
   <property name="kdenlive:id">3</property>
  </entry>
  <entry producer="producer71" in="00:14:39.933" out="00:14:47.367">
   <property name="kdenlive:id">3</property>
  </entry>
  <entry producer="producer71" in="00:14:50.367" out="00:15:01.167">
   <property name="kdenlive:id">3</property>
  </entry>
  <entry producer="producer71" in="00:15:12.200" out="00:15:22.800">
   <property name="kdenlive:id">3</property>
  </entry>
  <entry producer="producer71" in="00:15:23.233" out="00:15:27.233">
   <property name="kdenlive:id">3</property>
  </entry>
  <entry producer="producer71" in="00:15:29.900" out="00:15:41.033">
   <property name="kdenlive:id">3</property>
  </entry>
  <entry producer="producer71" in="00:15:41.600" out="00:15:45.433">
   <property name="kdenlive:id">3</property>
  </entry>
  <entry producer="producer71" in="00:15:56.533" out="00:16:06.900">
   <property name="kdenlive:id">3</property>
  </entry>
  <entry producer="producer71" in="00:16:08.233" out="00:16:16.067">
   <property name="kdenlive:id">3</property>
  </entry>
  <entry producer="producer71" in="00:16:20.400" out="00:16:31.633">
   <property name="kdenlive:id">3</property>
  </entry>
  <entry producer="producer71" in="00:16:34.833" out="00:16:40.500">
   <property name="kdenlive:id">3</property>
  </entry>
  <entry producer="producer71" in="00:16:41.000" out="00:16:41.967">
   <property name="kdenlive:id">3</property>
  </entry>
  <entry producer="producer71" in="00:16:48.733" out="00:16:54.600">
   <property name="kdenlive:id">3</property>
  </entry>
  <entry producer="producer71" in="00:16:56.167" out="00:17:02.567">
   <property name="kdenlive:id">3</property>
  </entry>
  <entry producer="producer71" in="00:17:03.100" out="00:17:08.433">
   <property name="kdenlive:id">3</property>
  </entry>
  <entry producer="producer71" in="00:17:20.133" out="00:17:29.967">
   <property name="kdenlive:id">3</property>
  </entry>
  <entry producer="producer71" in="00:17:30.400" out="00:17:40.100">
   <property name="kdenlive:id">3</property>
  </entry>
  <entry producer="producer71" in="00:17:40.667" out="00:17:44.867">
   <property name="kdenlive:id">3</property>
  </entry>
  <entry producer="producer71" in="00:17:46.567" out="00:17:49.433">
   <property name="kdenlive:id">3</property>
  </entry>
  <entry producer="producer71" in="00:17:51.233" out="00:18:00.767">
   <property name="kdenlive:id">3</property>
  </entry>
  <entry producer="producer71" in="00:18:04.333" out="00:18:15.333">
   <property name="kdenlive:id">3</property>
  </entry>
  <entry producer="producer71" in="00:18:16.300" out="00:18:19.533">
   <property name="kdenlive:id">3</property>
  </entry>
  <entry producer="producer71" in="00:18:22.000" out="00:18:35.600">
   <property name="kdenlive:id">3</property>
  </entry>
  <entry producer="producer71" in="00:18:39.567" out="00:18:51.267">
   <property name="kdenlive:id">3</property>
  </entry>
  <entry producer="producer71" in="00:18:56.133" out="00:19:03.533">
   <property name="kdenlive:id">3</property>
  </entry>
 </playlist>
 <playlist id="playlist7">
  <property name="kdenlive:audio_track">1</property>
 </playlist>
 <tractor id="tractor3" in="00:00:00.000" out="00:11:50.600">
  <property name="kdenlive:audio_track">1</property>
  <property name="kdenlive:trackheight">67</property>
  <property name="kdenlive:timeline_active">1</property>
  <property name="kdenlive:collapsed">0</property>
  <property name="kdenlive:thumbs_format"/>
  <property name="kdenlive:audio_rec"/>
  <track hide="video" producer="playlist6"/>
  <track hide="video" producer="playlist7"/>
  <filter id="filter21">
   <property name="window">75</property>
   <property name="max_gain">20dB</property>
   <property name="mlt_service">volume</property>
   <property name="internal_added">237</property>
   <property name="disable">1</property>
  </filter>
  <filter id="filter22">
   <property name="channel">-1</property>
   <property name="mlt_service">panner</property>
   <property name="internal_added">237</property>
   <property name="start">0.5</property>
   <property name="disable">1</property>
  </filter>
  <filter id="filter23">
   <property name="iec_scale">0</property>
   <property name="mlt_service">audiolevel</property>
   <property name="disable">1</property>
  </filter>
 </tractor>
 <producer id="producer72" in="00:00:00.000" out="00:19:12.000">
  <property name="length">34561</property>
  <property name="eof">pause</property>
  <property name="resource">assets/2022-03-29 15-35-06.mkv</property>
  <property name="audio_index">1</property>
  <property name="video_index">0</property>
  <property name="mute_on_pause">0</property>
  <property name="mlt_service">avformat-novalidate</property>
  <property name="seekable">1</property>
  <property name="aspect_ratio">1</property>
  <property name="kdenlive:clipname"/>
  <property name="kdenlive:folderid">-1</property>
  <property name="kdenlive:id">2</property>
  <property name="kdenlive:file_size">1463082513</property>
  <property name="kdenlive:file_hash">891131df8801b66b23aa5f9178f214d0</property>
  <property name="kdenlive:audio_max1">190</property>
  <property name="xml">was here</property>
  <property name="meta.media.nb_streams">2</property>
  <property name="meta.media.0.stream.type">video</property>
  <property name="meta.media.0.stream.frame_rate">30</property>
  <property name="meta.media.0.stream.sample_aspect_ratio">0</property>
  <property name="meta.media.0.codec.width">1920</property>
  <property name="meta.media.0.codec.height">1080</property>
  <property name="meta.media.0.codec.rotate">0</property>
  <property name="meta.media.0.codec.pix_fmt">yuv420p</property>
  <property name="meta.media.0.codec.sample_aspect_ratio">1</property>
  <property name="meta.media.0.codec.colorspace">709</property>
  <property name="meta.media.0.codec.color_trc">1</property>
  <property name="meta.media.0.codec.name">h264</property>
  <property name="meta.media.0.codec.long_name">H.264 / AVC / MPEG-4 AVC / MPEG-4 part 10</property>
  <property name="meta.media.0.codec.bit_rate">0</property>
  <property name="meta.attr.0.stream.DURATION.markup">00:19:12.033000000</property>
  <property name="meta.media.1.stream.type">audio</property>
  <property name="meta.media.1.codec.sample_fmt">fltp</property>
  <property name="meta.media.1.codec.sample_rate">48000</property>
  <property name="meta.media.1.codec.channels">2</property>
  <property name="meta.media.1.codec.name">aac</property>
  <property name="meta.media.1.codec.long_name">AAC (Advanced Audio Coding)</property>
  <property name="meta.media.1.codec.bit_rate">0</property>
  <property name="meta.attr.1.stream.title.markup">simple_aac_recording</property>
  <property name="meta.attr.1.stream.DURATION.markup">00:19:11.914000000</property>
  <property name="meta.attr.ENCODER.markup">Lavf58.76.100</property>
  <property name="meta.media.sample_aspect_num">1</property>
  <property name="meta.media.sample_aspect_den">1</property>
  <property name="meta.media.frame_rate_num">30</property>
  <property name="meta.media.frame_rate_den">1</property>
  <property name="meta.media.colorspace">709</property>
  <property name="meta.media.color_trc">1</property>
  <property name="meta.media.has_b_frames">1</property>
  <property name="meta.media.width">1920</property>
  <property name="meta.media.height">1080</property>
  <property name="meta.media.color_range">mpeg</property>
  <property name="meta.media.top_field_first">0</property>
  <property name="meta.media.progressive">1</property>
  <property name="set.test_audio">1</property>
  <property name="set.test_image">0</property>
 </producer>
 <playlist id="playlist8">
  <entry producer="producer72" in="00:00:03.300" out="00:00:10.133">
   <property name="kdenlive:id">2</property>
  </entry>
  <blank length="00:00:06.533"/>
  <entry producer="producer72" in="00:00:29.967" out="00:00:34.367">
   <property name="kdenlive:id">2</property>
  </entry>
  <entry producer="producer72" in="00:00:34.900" out="00:00:36.967">
   <property name="kdenlive:id">2</property>
  </entry>
  <entry producer="producer72" in="00:00:37.100" out="00:00:37.833">
   <property name="kdenlive:id">2</property>
  </entry>
  <entry producer="producer72" in="00:00:37.933" out="00:00:44.167">
   <property name="kdenlive:id">2</property>
  </entry>
  <entry producer="producer72" in="00:01:02.367" out="00:01:05.267">
   <property name="kdenlive:id">2</property>
  </entry>
  <blank length="00:00:12.833"/>
  <entry producer="producer72" in="00:01:27.100" out="00:01:33.933">
   <property name="kdenlive:id">2</property>
  </entry>
  <entry producer="producer4" in="00:00:00.000" out="00:00:04.067">
   <property name="kdenlive:id">10</property>
   <filter id="filter24">
    <property name="rotate_center">1</property>
    <property name="mlt_service">qtblend</property>
    <property name="kdenlive_id">qtblend</property>
    <property name="rect">00:00:00.000=-96 -54 2111 1187 1.000000</property>
    <property name="rotation">00:00:00.000=0</property>
    <property name="compositing">0</property>
    <property name="distort">0</property>
    <property name="kdenlive:collapsed">0</property>
   </filter>
   <filter id="filter25">
    <property name="delta">00:00:00.000=22</property>
    <property name="every">00:00:00.000=20</property>
    <property name="brightnessdelta_up">00:00:00.000=20</property>
    <property name="brightnessdelta_down">00:00:00.000=30</property>
    <property name="brightnessdelta_every">00:00:00.000=70</property>
    <property name="unevendevelop_up">00:00:00.000=60</property>
    <property name="unevendevelop_down">00:00:00.000=20</property>
    <property name="unevendevelop_duration">00:00:00.000=70</property>
    <property name="mlt_service">oldfilm</property>
    <property name="kdenlive_id">oldfilm</property>
    <property name="kdenlive:collapsed">1</property>
   </filter>
  </entry>
  <entry producer="producer72" in="00:01:37.500" out="00:01:45.167">
   <property name="kdenlive:id">2</property>
  </entry>
  <entry producer="producer72" in="00:01:48.433" out="00:01:49.000">
   <property name="kdenlive:id">2</property>
  </entry>
  <blank length="00:00:09.400"/>
  <entry producer="producer72" in="00:02:02.200" out="00:02:06.200">
   <property name="kdenlive:id">2</property>
  </entry>
  <entry producer="producer72" in="00:02:06.633" out="00:02:09.533">
   <property name="kdenlive:id">2</property>
  </entry>
  <entry producer="producer72" in="00:02:17.733" out="00:02:22.800">
   <property name="kdenlive:id">2</property>
  </entry>
  <entry producer="producer72" in="00:02:23.133" out="00:02:23.800">
   <property name="kdenlive:id">2</property>
  </entry>
  <blank length="00:00:03.900"/>
  <entry producer="producer72" in="00:02:27.833" out="00:02:30.100">
   <property name="kdenlive:id">2</property>
  </entry>
  <entry producer="producer72" in="00:02:35.900" out="00:02:42.633">
   <property name="kdenlive:id">2</property>
  </entry>
  <entry producer="producer72" in="00:02:43.167" out="00:02:48.200">
   <property name="kdenlive:id">2</property>
  </entry>
  <entry producer="producer72" in="00:02:50.100" out="00:02:55.300">
   <property name="kdenlive:id">2</property>
  </entry>
  <entry producer="producer72" in="00:02:55.733" out="00:03:01.200">
   <property name="kdenlive:id">2</property>
  </entry>
  <entry producer="producer72" in="00:03:08.300" out="00:03:13.933">
   <property name="kdenlive:id">2</property>
  </entry>
  <entry producer="producer72" in="00:03:14.267" out="00:03:15.133">
   <property name="kdenlive:id">2</property>
  </entry>
  <blank length="00:00:15.767"/>
  <entry producer="producer72" in="00:03:50.100" out="00:03:57.300">
   <property name="kdenlive:id">2</property>
  </entry>
  <entry producer="producer72" in="00:04:01.467" out="00:04:05.733">
   <property name="kdenlive:id">2</property>
  </entry>
  <entry producer="producer72" in="00:04:10.300" out="00:04:20.500">
   <property name="kdenlive:id">2</property>
  </entry>
  <entry producer="producer72" in="00:04:25.200" out="00:04:31.600">
   <property name="kdenlive:id">2</property>
  </entry>
  <entry producer="producer72" in="00:04:35.467" out="00:04:43.167">
   <property name="kdenlive:id">2</property>
  </entry>
  <entry producer="producer72" in="00:04:51.000" out="00:04:54.000">
   <property name="kdenlive:id">2</property>
  </entry>
  <entry producer="producer72" in="00:04:54.167" out="00:04:55.967">
   <property name="kdenlive:id">2</property>
  </entry>
  <entry producer="producer72" in="00:05:10.033" out="00:05:18.500">
   <property name="kdenlive:id">2</property>
  </entry>
  <entry producer="producer72" in="00:05:18.967" out="00:05:22.033">
   <property name="kdenlive:id">2</property>
  </entry>
  <blank length="00:00:07.033"/>
  <entry producer="producer72" in="00:05:40.567" out="00:05:45.400">
   <property name="kdenlive:id">2</property>
  </entry>
  <entry producer="producer72" in="00:05:45.767" out="00:05:49.133">
   <property name="kdenlive:id">2</property>
  </entry>
  <entry producer="producer72" in="00:05:49.567" out="00:05:54.700">
   <property name="kdenlive:id">2</property>
  </entry>
  <entry producer="producer72" in="00:05:56.900" out="00:05:57.667">
   <property name="kdenlive:id">2</property>
  </entry>
  <blank length="00:00:50.300"/>
  <entry producer="producer72" in="00:07:20.867" out="00:07:24.833">
   <property name="kdenlive:id">2</property>
  </entry>
  <entry producer="producer72" in="00:07:27.200" out="00:07:30.967">
   <property name="kdenlive:id">2</property>
  </entry>
  <entry producer="producer6" in="00:00:00.000" out="00:00:04.067">
   <property name="kdenlive:id">9</property>
   <filter id="filter26">
    <property name="rotate_center">1</property>
    <property name="mlt_service">qtblend</property>
    <property name="kdenlive_id">qtblend</property>
    <property name="rect">00:00:00.000=-333 -187 2587 1455 1.000000;00:00:04.067=-424 -157 2769 1558 1.000000</property>
    <property name="rotation">00:00:00.000=0;00:00:04.067=0</property>
    <property name="compositing">0</property>
    <property name="distort">0</property>
    <property name="kdenlive:collapsed">0</property>
   </filter>
   <filter id="filter27">
    <property name="delta">00:00:00.000=14</property>
    <property name="every">00:00:00.000=20</property>
    <property name="brightnessdelta_up">00:00:00.000=20</property>
    <property name="brightnessdelta_down">00:00:00.000=30</property>
    <property name="brightnessdelta_every">00:00:00.000=70</property>
    <property name="unevendevelop_up">00:00:00.000=60</property>
    <property name="unevendevelop_down">00:00:00.000=20</property>
    <property name="unevendevelop_duration">00:00:00.000=70</property>
    <property name="mlt_service">oldfilm</property>
    <property name="kdenlive_id">oldfilm</property>
    <property name="kdenlive:collapsed">1</property>
   </filter>
  </entry>
  <entry producer="producer72" in="00:07:35.900" out="00:07:41.500">
   <property name="kdenlive:id">2</property>
  </entry>
  <entry producer="producer72" in="00:07:46.100" out="00:07:56.733">
   <property name="kdenlive:id">2</property>
  </entry>
  <entry producer="producer72" in="00:08:00.133" out="00:08:05.867">
   <property name="kdenlive:id">2</property>
  </entry>
  <entry producer="producer72" in="00:08:40.467" out="00:08:43.100">
   <property name="kdenlive:id">2</property>
  </entry>
  <blank length="00:00:17.833"/>
  <entry producer="producer72" in="00:09:26.633" out="00:09:38.333">
   <property name="kdenlive:id">2</property>
  </entry>
  <entry producer="producer72" in="00:09:48.600" out="00:09:59.767">
   <property name="kdenlive:id">2</property>
  </entry>
  <entry producer="producer72" in="00:10:04.700" out="00:10:10.400">
   <property name="kdenlive:id">2</property>
  </entry>
  <entry producer="producer72" in="00:10:10.767" out="00:10:13.800">
   <property name="kdenlive:id">2</property>
  </entry>
  <entry producer="producer72" in="00:10:15.367" out="00:10:19.467">
   <property name="kdenlive:id">2</property>
  </entry>
  <entry producer="producer72" in="00:10:19.800" out="00:10:30.300">
   <property name="kdenlive:id">2</property>
  </entry>
  <entry producer="producer72" in="00:10:32.667" out="00:10:50.533">
   <property name="kdenlive:id">2</property>
  </entry>
  <entry producer="producer72" in="00:11:06.833" out="00:11:17.233">
   <property name="kdenlive:id">2</property>
  </entry>
  <entry producer="producer72" in="00:11:17.700" out="00:11:22.067">
   <property name="kdenlive:id">2</property>
  </entry>
  <entry producer="producer72" in="00:11:22.400" out="00:11:27.367">
   <property name="kdenlive:id">2</property>
  </entry>
  <entry producer="producer72" in="00:11:27.900" out="00:11:29.300">
   <property name="kdenlive:id">2</property>
  </entry>
  <blank length="00:01:33.900"/>
  <entry producer="producer72" in="00:13:57.400" out="00:14:03.633">
   <property name="kdenlive:id">2</property>
  </entry>
  <entry producer="producer72" in="00:14:04.200" out="00:14:06.433">
   <property name="kdenlive:id">2</property>
  </entry>
  <entry producer="producer72" in="00:14:06.900" out="00:14:13.367">
   <property name="kdenlive:id">2</property>
  </entry>
  <entry producer="producer72" in="00:14:16.633" out="00:14:22.667">
   <property name="kdenlive:id">2</property>
  </entry>
  <entry producer="producer5" in="00:00:00.000" out="00:00:04.067">
   <property name="kdenlive:id">11</property>
   <property name="kdenlive:activeeffect">2</property>
   <filter id="filter28">
    <property name="rotate_center">1</property>
    <property name="mlt_service">qtblend</property>
    <property name="kdenlive_id">qtblend</property>
    <property name="rect">00:00:00.000=-94 -53 2108 1185 1.000000;00:00:04.067=-140 -79 2200 1238 1.000000</property>
    <property name="rotation">00:00:00.000=0;00:00:04.067=0</property>
    <property name="compositing">0</property>
    <property name="distort">0</property>
    <property name="kdenlive:collapsed">0</property>
   </filter>
   <filter id="filter29">
    <property name="delta">00:00:00.000=14</property>
    <property name="every">00:00:00.000=20</property>
    <property name="brightnessdelta_up">00:00:00.000=20</property>
    <property name="brightnessdelta_down">00:00:00.000=30</property>
    <property name="brightnessdelta_every">00:00:00.000=70</property>
    <property name="unevendevelop_up">00:00:00.000=60</property>
    <property name="unevendevelop_down">00:00:00.000=20</property>
    <property name="unevendevelop_duration">00:00:00.000=70</property>
    <property name="mlt_service">oldfilm</property>
    <property name="kdenlive_id">oldfilm</property>
    <property name="kdenlive:collapsed">0</property>
   </filter>
   <filter id="filter30">
    <property name="version">0.2</property>
    <property name="mlt_service">frei0r.brightness</property>
    <property name="kdenlive_id">frei0r.brightness</property>
    <property name="Brightness">00:00:00.000=0.283</property>
    <property name="kdenlive:collapsed">0</property>
   </filter>
  </entry>
  <entry producer="producer72" in="00:14:27.533" out="00:14:31.133">
   <property name="kdenlive:id">2</property>
  </entry>
  <blank length="00:00:10.767"/>
  <entry producer="producer72" in="00:14:50.367" out="00:15:01.167">
   <property name="kdenlive:id">2</property>
  </entry>
  <entry producer="producer72" in="00:15:12.200" out="00:15:22.800">
   <property name="kdenlive:id">2</property>
  </entry>
  <entry producer="producer72" in="00:15:23.233" out="00:15:27.233">
   <property name="kdenlive:id">2</property>
  </entry>
  <entry producer="producer72" in="00:15:29.900" out="00:15:41.033">
   <property name="kdenlive:id">2</property>
  </entry>
  <entry producer="producer72" in="00:15:41.600" out="00:15:45.433">
   <property name="kdenlive:id">2</property>
  </entry>
  <entry producer="producer72" in="00:15:56.533" out="00:16:06.900">
   <property name="kdenlive:id">2</property>
  </entry>
  <entry producer="producer72" in="00:16:08.233" out="00:16:16.067">
   <property name="kdenlive:id">2</property>
  </entry>
  <entry producer="producer72" in="00:16:20.400" out="00:16:31.633">
   <property name="kdenlive:id">2</property>
  </entry>
  <blank length="00:00:05.700"/>
  <entry producer="producer72" in="00:16:41.000" out="00:16:41.967">
   <property name="kdenlive:id">2</property>
  </entry>
  <entry producer="producer72" in="00:16:48.733" out="00:16:54.600">
   <property name="kdenlive:id">2</property>
  </entry>
  <entry producer="producer72" in="00:16:56.167" out="00:17:02.567">
   <property name="kdenlive:id">2</property>
  </entry>
  <entry producer="producer72" in="00:17:03.100" out="00:17:08.433">
   <property name="kdenlive:id">2</property>
  </entry>
  <entry producer="producer72" in="00:17:20.133" out="00:17:29.967">
   <property name="kdenlive:id">2</property>
  </entry>
  <entry producer="producer72" in="00:17:30.400" out="00:17:40.100">
   <property name="kdenlive:id">2</property>
  </entry>
  <entry producer="producer72" in="00:17:40.667" out="00:17:44.867">
   <property name="kdenlive:id">2</property>
  </entry>
  <entry producer="producer72" in="00:17:46.567" out="00:17:49.433">
   <property name="kdenlive:id">2</property>
  </entry>
  <entry producer="producer72" in="00:17:51.233" out="00:18:00.767">
   <property name="kdenlive:id">2</property>
  </entry>
  <entry producer="producer72" in="00:18:04.333" out="00:18:15.333">
   <property name="kdenlive:id">2</property>
  </entry>
  <entry producer="producer72" in="00:18:16.300" out="00:18:19.533">
   <property name="kdenlive:id">2</property>
  </entry>
  <entry producer="producer72" in="00:18:22.000" out="00:18:35.600">
   <property name="kdenlive:id">2</property>
  </entry>
  <entry producer="producer72" in="00:18:39.567" out="00:18:51.267">
   <property name="kdenlive:id">2</property>
  </entry>
  <blank length="00:00:06.433"/>
  <entry producer="producer18" in="00:00:00.000" out="00:00:08.533">
   <property name="kdenlive:id">25</property>
   <filter id="filter31" in="00:00:07.833" out="00:00:08.533">
    <property name="start">1</property>
    <property name="level">1</property>
    <property name="mlt_service">brightness</property>
    <property name="kdenlive_id">fade_to_black</property>
    <property name="alpha">00:00:00.000=1;00:00:00.700=0</property>
   </filter>
  </entry>
 </playlist>
 <playlist id="playlist9"/>
 <tractor id="tractor4" in="00:00:00.000" out="00:11:58.167">
  <property name="kdenlive:trackheight">67</property>
  <property name="kdenlive:timeline_active">1</property>
  <property name="kdenlive:collapsed">0</property>
  <property name="kdenlive:thumbs_format"/>
  <property name="kdenlive:audio_rec"/>
  <track hide="audio" producer="playlist8"/>
  <track hide="audio" producer="playlist9"/>
 </tractor>
 <producer id="producer73" in="00:00:00.000" out="00:02:18.167">
  <property name="length">4146</property>
  <property name="eof">pause</property>
  <property name="resource">assets/Almanac - The Unabomber [4emvv2kyATM].mp4</property>
  <property name="audio_index">1</property>
  <property name="video_index">0</property>
  <property name="mute_on_pause">0</property>
  <property name="mlt_service">avformat-novalidate</property>
  <property name="seekable">1</property>
  <property name="aspect_ratio">1</property>
  <property name="kdenlive:clipname"/>
  <property name="kdenlive:folderid">6</property>
  <property name="kdenlive:id">26</property>
  <property name="kdenlive:file_size">25737758</property>
  <property name="kdenlive:file_hash">db61f6d1cbcb57efffdeba2dfd1c8627</property>
  <property name="kdenlive:audio_max1">205</property>
  <property name="kdenlive:active_streams">-1</property>
  <property name="xml">was here</property>
  <property name="meta.media.nb_streams">2</property>
  <property name="meta.media.0.stream.type">video</property>
  <property name="meta.media.0.stream.frame_rate">29.97</property>
  <property name="meta.media.0.stream.sample_aspect_ratio">1</property>
  <property name="meta.media.0.codec.width">1280</property>
  <property name="meta.media.0.codec.height">720</property>
  <property name="meta.media.0.codec.rotate">0</property>
  <property name="meta.media.0.codec.pix_fmt">yuv420p</property>
  <property name="meta.media.0.codec.sample_aspect_ratio">1</property>
  <property name="meta.media.0.codec.colorspace">709</property>
  <property name="meta.media.0.codec.color_trc">1</property>
  <property name="meta.media.0.codec.name">h264</property>
  <property name="meta.media.0.codec.long_name">H.264 / AVC / MPEG-4 AVC / MPEG-4 part 10</property>
  <property name="meta.media.0.codec.bit_rate">1354154</property>
  <property name="meta.attr.0.stream.handler_name.markup">ISO Media file produced by Google Inc. Created on: 11/13/2018.</property>
  <property name="meta.attr.0.stream.vendor_id.markup">[0][0][0][0]</property>
  <property name="meta.media.1.stream.type">audio</property>
  <property name="meta.media.1.codec.sample_fmt">fltp</property>
  <property name="meta.media.1.codec.sample_rate">44100</property>
  <property name="meta.media.1.codec.channels">2</property>
  <property name="meta.media.1.codec.name">aac</property>
  <property name="meta.media.1.codec.long_name">AAC (Advanced Audio Coding)</property>
  <property name="meta.media.1.codec.bit_rate">127999</property>
  <property name="meta.attr.1.stream.handler_name.markup">ISO Media file produced by Google Inc. Created on: 11/13/2018.</property>
  <property name="meta.attr.1.stream.vendor_id.markup">[0][0][0][0]</property>
  <property name="meta.attr.major_brand.markup">isom</property>
  <property name="meta.attr.minor_version.markup">512</property>
  <property name="meta.attr.compatible_brands.markup">isomiso2avc1mp41</property>
  <property name="meta.attr.encoder.markup">Lavf59.16.100</property>
  <property name="meta.media.sample_aspect_num">1</property>
  <property name="meta.media.sample_aspect_den">1</property>
  <property name="meta.media.frame_rate_num">30000</property>
  <property name="meta.media.frame_rate_den">1001</property>
  <property name="meta.media.colorspace">709</property>
  <property name="meta.media.color_trc">1</property>
  <property name="meta.media.has_b_frames">1</property>
  <property name="meta.media.width">1280</property>
  <property name="meta.media.height">720</property>
  <property name="meta.media.color_range">mpeg</property>
  <property name="meta.media.top_field_first">0</property>
  <property name="meta.media.progressive">1</property>
  <property name="set.test_audio">1</property>
  <property name="set.test_image">0</property>
 </producer>
 <producer id="producer74" in="00:00:00.000" out="00:01:24.767">
  <property name="length">2544</property>
  <property name="eof">pause</property>
  <property name="resource">assets/Hunt With the World's Last Full-Time Hunter-Gatherers _ National Geographic [E_Q5LnNlwZs].mp4</property>
  <property name="audio_index">1</property>
  <property name="video_index">0</property>
  <property name="mute_on_pause">0</property>
  <property name="mlt_service">avformat-novalidate</property>
  <property name="seekable">1</property>
  <property name="aspect_ratio">1</property>
  <property name="kdenlive:clipname"/>
  <property name="kdenlive:folderid">6</property>
  <property name="kdenlive:id">27</property>
  <property name="kdenlive:file_size">40309634</property>
  <property name="kdenlive:file_hash">f699cb7b33958c6fd053af4bacd70f34</property>
  <property name="kdenlive:audio_max1">223</property>
  <property name="kdenlive:active_streams">-1</property>
  <property name="xml">was here</property>
  <property name="meta.media.nb_streams">2</property>
  <property name="meta.media.0.stream.type">video</property>
  <property name="meta.media.0.stream.frame_rate">23.976</property>
  <property name="meta.media.0.stream.sample_aspect_ratio">1</property>
  <property name="meta.media.0.codec.width">1920</property>
  <property name="meta.media.0.codec.height">1080</property>
  <property name="meta.media.0.codec.rotate">0</property>
  <property name="meta.media.0.codec.pix_fmt">yuv420p</property>
  <property name="meta.media.0.codec.sample_aspect_ratio">1</property>
  <property name="meta.media.0.codec.colorspace">709</property>
  <property name="meta.media.0.codec.name">h264</property>
  <property name="meta.media.0.codec.long_name">H.264 / AVC / MPEG-4 AVC / MPEG-4 part 10</property>
  <property name="meta.media.0.codec.bit_rate">3674313</property>
  <property name="meta.attr.0.stream.handler_name.markup">VideoHandler</property>
  <property name="meta.attr.0.stream.vendor_id.markup">[0][0][0][0]</property>
  <property name="meta.media.1.stream.type">audio</property>
  <property name="meta.media.1.codec.sample_fmt">fltp</property>
  <property name="meta.media.1.codec.sample_rate">44100</property>
  <property name="meta.media.1.codec.channels">2</property>
  <property name="meta.media.1.codec.name">aac</property>
  <property name="meta.media.1.codec.long_name">AAC (Advanced Audio Coding)</property>
  <property name="meta.media.1.codec.bit_rate">125588</property>
  <property name="meta.attr.1.stream.handler_name.markup">SoundHandler</property>
  <property name="meta.attr.1.stream.vendor_id.markup">[0][0][0][0]</property>
  <property name="meta.attr.major_brand.markup">isom</property>
  <property name="meta.attr.minor_version.markup">512</property>
  <property name="meta.attr.compatible_brands.markup">isomiso2avc1mp41</property>
  <property name="meta.attr.encoder.markup">Lavf59.16.100</property>
  <property name="meta.media.sample_aspect_num">1</property>
  <property name="meta.media.sample_aspect_den">1</property>
  <property name="meta.media.frame_rate_num">91395000</property>
  <property name="meta.media.frame_rate_den">3811933</property>
  <property name="meta.media.colorspace">709</property>
  <property name="meta.media.color_trc">2</property>
  <property name="meta.media.has_b_frames">1</property>
  <property name="meta.media.width">1920</property>
  <property name="meta.media.height">1080</property>
  <property name="meta.media.color_range">mpeg</property>
  <property name="meta.media.top_field_first">0</property>
  <property name="meta.media.progressive">1</property>
  <property name="set.test_audio">1</property>
  <property name="set.test_image">0</property>
 </producer>
 <producer id="producer75" in="00:00:00.000" out="00:00:14.433">
  <property name="length">434</property>
  <property name="eof">pause</property>
  <property name="resource">assets/SpongeBob SquarePants - Outside World [aP2jErXpNS4].mp4</property>
  <property name="audio_index">1</property>
  <property name="video_index">0</property>
  <property name="mute_on_pause">0</property>
  <property name="mlt_service">avformat-novalidate</property>
  <property name="seekable">1</property>
  <property name="aspect_ratio">1</property>
  <property name="kdenlive:clipname"/>
  <property name="kdenlive:folderid">6</property>
  <property name="kdenlive:file_size">843672</property>
  <property name="kdenlive:id">30</property>
  <property name="kdenlive:file_hash">49374f98f9bfa0b42496e6a89c787478</property>
  <property name="kdenlive:audio_max1">172</property>
  <property name="kdenlive:active_streams">-1</property>
  <property name="xml">was here</property>
  <property name="meta.media.nb_streams">2</property>
  <property name="meta.media.0.stream.type">video</property>
  <property name="meta.media.0.stream.frame_rate">30</property>
  <property name="meta.media.0.stream.sample_aspect_ratio">1</property>
  <property name="meta.media.0.codec.width">640</property>
  <property name="meta.media.0.codec.height">480</property>
  <property name="meta.media.0.codec.rotate">0</property>
  <property name="meta.media.0.codec.pix_fmt">yuv420p</property>
  <property name="meta.media.0.codec.sample_aspect_ratio">1</property>
  <property name="meta.media.0.codec.colorspace">601</property>
  <property name="meta.media.0.codec.name">h264</property>
  <property name="meta.media.0.codec.long_name">H.264 / AVC / MPEG-4 AVC / MPEG-4 part 10</property>
  <property name="meta.media.0.codec.bit_rate">333147</property>
  <property name="meta.attr.0.stream.handler_name.markup">ISO Media file produced by Google Inc.</property>
  <property name="meta.attr.0.stream.vendor_id.markup">[0][0][0][0]</property>
  <property name="meta.media.1.stream.type">audio</property>
  <property name="meta.media.1.codec.sample_fmt">fltp</property>
  <property name="meta.media.1.codec.sample_rate">44100</property>
  <property name="meta.media.1.codec.channels">2</property>
  <property name="meta.media.1.codec.name">aac</property>
  <property name="meta.media.1.codec.long_name">AAC (Advanced Audio Coding)</property>
  <property name="meta.media.1.codec.bit_rate">128142</property>
  <property name="meta.attr.1.stream.language.markup">eng</property>
  <property name="meta.attr.1.stream.handler_name.markup">ISO Media file produced by Google Inc.</property>
  <property name="meta.attr.1.stream.vendor_id.markup">[0][0][0][0]</property>
  <property name="meta.attr.major_brand.markup">isom</property>
  <property name="meta.attr.minor_version.markup">512</property>
  <property name="meta.attr.compatible_brands.markup">isomiso2avc1mp41</property>
  <property name="meta.attr.encoder.markup">Lavf59.16.100</property>
  <property name="meta.media.sample_aspect_num">1</property>
  <property name="meta.media.sample_aspect_den">1</property>
  <property name="meta.media.frame_rate_num">30</property>
  <property name="meta.media.frame_rate_den">1</property>
  <property name="meta.media.colorspace">601</property>
  <property name="meta.media.color_trc">2</property>
  <property name="meta.media.has_b_frames">1</property>
  <property name="meta.media.width">640</property>
  <property name="meta.media.height">480</property>
  <property name="meta.media.color_range">mpeg</property>
  <property name="meta.media.top_field_first">0</property>
  <property name="meta.media.progressive">1</property>
  <property name="set.test_audio">1</property>
  <property name="set.test_image">0</property>
 </producer>
 <producer id="producer76" in="00:00:00.000" out="00:10:01.667">
  <property name="length">18051</property>
  <property name="eof">pause</property>
  <property name="resource">assets/This Video Will Cure Your Depression (money back guarantee) [OsHAYx6FkYo].mp4</property>
  <property name="audio_index">1</property>
  <property name="video_index">0</property>
  <property name="mute_on_pause">0</property>
  <property name="mlt_service">avformat-novalidate</property>
  <property name="seekable">1</property>
  <property name="aspect_ratio">1</property>
  <property name="kdenlive:clipname"/>
  <property name="kdenlive:folderid">6</property>
  <property name="kdenlive:id">32</property>
  <property name="kdenlive:file_size">388019838</property>
  <property name="kdenlive:file_hash">7d60c62081eaa8ca759ec6e3c846b1e2</property>
  <property name="kdenlive:audio_max1">229</property>
  <property name="kdenlive:active_streams">-1</property>
  <property name="xml">was here</property>
  <property name="meta.media.nb_streams">2</property>
  <property name="meta.media.0.stream.type">video</property>
  <property name="meta.media.0.stream.frame_rate">59.697</property>
  <property name="meta.media.0.stream.sample_aspect_ratio">1</property>
  <property name="meta.media.0.codec.width">1920</property>
  <property name="meta.media.0.codec.height">1080</property>
  <property name="meta.media.0.codec.rotate">0</property>
  <property name="meta.media.0.codec.pix_fmt">yuv420p</property>
  <property name="meta.media.0.codec.sample_aspect_ratio">1</property>
  <property name="meta.media.0.codec.colorspace">709</property>
  <property name="meta.media.0.codec.color_trc">1</property>
  <property name="meta.media.0.codec.name">h264</property>
  <property name="meta.media.0.codec.long_name">H.264 / AVC / MPEG-4 AVC / MPEG-4 part 10</property>
  <property name="meta.media.0.codec.bit_rate">5018888</property>
  <property name="meta.attr.0.stream.handler_name.markup">ISO Media file produced by Google Inc.</property>
  <property name="meta.attr.0.stream.vendor_id.markup">[0][0][0][0]</property>
  <property name="meta.media.1.stream.type">audio</property>
  <property name="meta.media.1.codec.sample_fmt">fltp</property>
  <property name="meta.media.1.codec.sample_rate">44100</property>
  <property name="meta.media.1.codec.channels">2</property>
  <property name="meta.media.1.codec.name">aac</property>
  <property name="meta.media.1.codec.long_name">AAC (Advanced Audio Coding)</property>
  <property name="meta.media.1.codec.bit_rate">127999</property>
  <property name="meta.attr.1.stream.handler_name.markup">ISO Media file produced by Google Inc.</property>
  <property name="meta.attr.1.stream.vendor_id.markup">[0][0][0][0]</property>
  <property name="meta.attr.major_brand.markup">isom</property>
  <property name="meta.attr.minor_version.markup">512</property>
  <property name="meta.attr.compatible_brands.markup">isomiso2avc1mp41</property>
  <property name="meta.attr.encoder.markup">Lavf59.16.100</property>
  <property name="meta.media.sample_aspect_num">1</property>
  <property name="meta.media.sample_aspect_den">1</property>
  <property name="meta.media.frame_rate_num">28177</property>
  <property name="meta.media.frame_rate_den">472</property>
  <property name="meta.media.colorspace">709</property>
  <property name="meta.media.color_trc">1</property>
  <property name="meta.media.has_b_frames">1</property>
  <property name="meta.media.width">1920</property>
  <property name="meta.media.height">1080</property>
  <property name="meta.media.color_range">mpeg</property>
  <property name="meta.media.top_field_first">0</property>
  <property name="meta.media.progressive">1</property>
  <property name="set.test_audio">1</property>
  <property name="set.test_image">0</property>
 </producer>
 <producer id="producer77" in="00:00:00.000" out="00:03:03.867">
  <property name="length">5517</property>
  <property name="eof">pause</property>
  <property name="resource">assets/How to Cook Fish Over a Campfire - Easy Outdoors Cooking [f9F19ThduDM].mp4</property>
  <property name="audio_index">1</property>
  <property name="video_index">0</property>
  <property name="mute_on_pause">0</property>
  <property name="mlt_service">avformat-novalidate</property>
  <property name="seekable">1</property>
  <property name="aspect_ratio">1</property>
  <property name="kdenlive:clipname"/>
  <property name="kdenlive:folderid">6</property>
  <property name="kdenlive:id">33</property>
  <property name="kdenlive:file_size">87941187</property>
  <property name="kdenlive:file_hash">4d46b7353be1446b11998c378a7e2c92</property>
  <property name="kdenlive:audio_max1">217</property>
  <property name="kdenlive:active_streams">-1</property>
  <property name="xml">was here</property>
  <property name="meta.media.nb_streams">2</property>
  <property name="meta.media.0.stream.type">video</property>
  <property name="meta.media.0.stream.frame_rate">25.0054</property>
  <property name="meta.media.0.stream.sample_aspect_ratio">1</property>
  <property name="meta.media.0.codec.width">1920</property>
  <property name="meta.media.0.codec.height">1080</property>
  <property name="meta.media.0.codec.rotate">0</property>
  <property name="meta.media.0.codec.pix_fmt">yuv420p</property>
  <property name="meta.media.0.codec.sample_aspect_ratio">1</property>
  <property name="meta.media.0.codec.colorspace">709</property>
  <property name="meta.media.0.codec.color_trc">1</property>
  <property name="meta.media.0.codec.name">h264</property>
  <property name="meta.media.0.codec.long_name">H.264 / AVC / MPEG-4 AVC / MPEG-4 part 10</property>
  <property name="meta.media.0.codec.bit_rate">3693614</property>
  <property name="meta.attr.0.stream.handler_name.markup">ISO Media file produced by Google Inc. Created on: 03/24/2022.</property>
  <property name="meta.attr.0.stream.vendor_id.markup">[0][0][0][0]</property>
  <property name="meta.media.1.stream.type">audio</property>
  <property name="meta.media.1.codec.sample_fmt">fltp</property>
  <property name="meta.media.1.codec.sample_rate">44100</property>
  <property name="meta.media.1.codec.channels">2</property>
  <property name="meta.media.1.codec.name">aac</property>
  <property name="meta.media.1.codec.long_name">AAC (Advanced Audio Coding)</property>
  <property name="meta.media.1.codec.bit_rate">128017</property>
  <property name="meta.attr.1.stream.language.markup">eng</property>
  <property name="meta.attr.1.stream.handler_name.markup">ISO Media file produced by Google Inc.</property>
  <property name="meta.attr.1.stream.vendor_id.markup">[0][0][0][0]</property>
  <property name="meta.attr.major_brand.markup">isom</property>
  <property name="meta.attr.minor_version.markup">512</property>
  <property name="meta.attr.compatible_brands.markup">isomiso2avc1mp41</property>
  <property name="meta.attr.encoder.markup">Lavf59.16.100</property>
  <property name="meta.media.sample_aspect_num">1</property>
  <property name="meta.media.sample_aspect_den">1</property>
  <property name="meta.media.frame_rate_num">114925</property>
  <property name="meta.media.frame_rate_den">4596</property>
  <property name="meta.media.colorspace">709</property>
  <property name="meta.media.color_trc">1</property>
  <property name="meta.media.has_b_frames">0</property>
  <property name="meta.media.width">1920</property>
  <property name="meta.media.height">1080</property>
  <property name="meta.media.color_range">mpeg</property>
  <property name="meta.media.top_field_first">0</property>
  <property name="meta.media.progressive">1</property>
  <property name="set.test_audio">1</property>
  <property name="set.test_image">0</property>
 </producer>
 <producer id="producer78" in="00:00:00.000" out="00:04:10.267">
  <property name="length">7509</property>
  <property name="eof">pause</property>
  <property name="resource">assets/dr strange surgery scene #Movieclips [GOOkWuzPIv8].mp4</property>
  <property name="audio_index">1</property>
  <property name="video_index">0</property>
  <property name="mute_on_pause">0</property>
  <property name="mlt_service">avformat-novalidate</property>
  <property name="seekable">1</property>
  <property name="aspect_ratio">1</property>
  <property name="kdenlive:clipname"/>
  <property name="kdenlive:folderid">6</property>
  <property name="kdenlive:id">35</property>
  <property name="kdenlive:file_size">46917182</property>
  <property name="kdenlive:file_hash">f74251851ff229f7766cef86f63b2af9</property>
  <property name="kdenlive:audio_max1">160</property>
  <property name="kdenlive:active_streams">-1</property>
  <property name="xml">was here</property>
  <property name="meta.media.nb_streams">2</property>
  <property name="meta.media.0.stream.type">video</property>
  <property name="meta.media.0.stream.frame_rate">23.976</property>
  <property name="meta.media.0.stream.sample_aspect_ratio">1</property>
  <property name="meta.media.0.codec.width">1920</property>
  <property name="meta.media.0.codec.height">1080</property>
  <property name="meta.media.0.codec.rotate">0</property>
  <property name="meta.media.0.codec.pix_fmt">yuv420p</property>
  <property name="meta.media.0.codec.sample_aspect_ratio">1</property>
  <property name="meta.media.0.codec.colorspace">709</property>
  <property name="meta.media.0.codec.color_trc">1</property>
  <property name="meta.media.0.codec.name">h264</property>
  <property name="meta.media.0.codec.long_name">H.264 / AVC / MPEG-4 AVC / MPEG-4 part 10</property>
  <property name="meta.media.0.codec.bit_rate">1366454</property>
  <property name="meta.attr.0.stream.handler_name.markup">ISO Media file produced by Google Inc.</property>
  <property name="meta.attr.0.stream.vendor_id.markup">[0][0][0][0]</property>
  <property name="meta.media.1.stream.type">audio</property>
  <property name="meta.media.1.codec.sample_fmt">fltp</property>
  <property name="meta.media.1.codec.sample_rate">44100</property>
  <property name="meta.media.1.codec.channels">2</property>
  <property name="meta.media.1.codec.name">aac</property>
  <property name="meta.media.1.codec.long_name">AAC (Advanced Audio Coding)</property>
  <property name="meta.media.1.codec.bit_rate">127999</property>
  <property name="meta.attr.1.stream.language.markup">eng</property>
  <property name="meta.attr.1.stream.handler_name.markup">ISO Media file produced by Google Inc.</property>
  <property name="meta.attr.1.stream.vendor_id.markup">[0][0][0][0]</property>
  <property name="meta.attr.major_brand.markup">isom</property>
  <property name="meta.attr.minor_version.markup">512</property>
  <property name="meta.attr.compatible_brands.markup">isomiso2avc1mp41</property>
  <property name="meta.attr.encoder.markup">Lavf59.16.100</property>
  <property name="meta.media.sample_aspect_num">1</property>
  <property name="meta.media.sample_aspect_den">1</property>
  <property name="meta.media.frame_rate_num">24000</property>
  <property name="meta.media.frame_rate_den">1001</property>
  <property name="meta.media.colorspace">709</property>
  <property name="meta.media.color_trc">1</property>
  <property name="meta.media.has_b_frames">1</property>
  <property name="meta.media.width">1920</property>
  <property name="meta.media.height">1080</property>
  <property name="meta.media.color_range">mpeg</property>
  <property name="meta.media.top_field_first">0</property>
  <property name="meta.media.progressive">1</property>
  <property name="set.test_audio">1</property>
  <property name="set.test_image">0</property>
 </producer>
 <producer id="producer79" in="00:00:00.000" out="00:09:23.200">
  <property name="length">16897</property>
  <property name="eof">pause</property>
  <property name="resource">assets/station-eleven.webm</property>
  <property name="audio_index">1</property>
  <property name="video_index">0</property>
  <property name="mute_on_pause">0</property>
  <property name="mlt_service">avformat-novalidate</property>
  <property name="seekable">1</property>
  <property name="aspect_ratio">1</property>
  <property name="kdenlive:clipname"/>
  <property name="kdenlive:folderid">6</property>
  <property name="kdenlive:id">36</property>
  <property name="kdenlive:file_size">319976181</property>
  <property name="kdenlive:file_hash">5aa8fa0f6abc167fae68b7397563ffc7</property>
  <property name="kdenlive:audio_max1">1</property>
  <property name="kdenlive:active_streams">-1</property>
  <property name="xml">was here</property>
  <property name="meta.media.nb_streams">2</property>
  <property name="meta.media.0.stream.type">video</property>
  <property name="meta.media.0.stream.frame_rate">23.976</property>
  <property name="meta.media.0.stream.sample_aspect_ratio">1</property>
  <property name="meta.media.0.codec.width">1920</property>
  <property name="meta.media.0.codec.height">1080</property>
  <property name="meta.media.0.codec.rotate">0</property>
  <property name="meta.media.0.codec.pix_fmt">yuv420p</property>
  <property name="meta.media.0.codec.sample_aspect_ratio">0</property>
  <property name="meta.media.0.codec.colorspace">709</property>
  <property name="meta.media.0.codec.color_trc">1</property>
  <property name="meta.media.0.codec.name">vp8</property>
  <property name="meta.media.0.codec.long_name">On2 VP8</property>
  <property name="meta.media.0.codec.bit_rate">0</property>
  <property name="meta.attr.0.stream.DURATION.markup">00:09:23.233000000</property>
  <property name="meta.media.1.stream.type">audio</property>
  <property name="meta.media.1.codec.sample_fmt">fltp</property>
  <property name="meta.media.1.codec.sample_rate">48000</property>
  <property name="meta.media.1.codec.channels">2</property>
  <property name="meta.media.1.codec.name">vorbis</property>
  <property name="meta.media.1.codec.long_name">Vorbis</property>
  <property name="meta.media.1.codec.bit_rate">0</property>
  <property name="meta.attr.1.stream.DURATION.markup">00:09:23.172000000</property>
  <property name="meta.attr.ENCODER.markup">Lavf59.16.100</property>
  <property name="meta.media.sample_aspect_num">1</property>
  <property name="meta.media.sample_aspect_den">1</property>
  <property name="meta.media.frame_rate_num">24000</property>
  <property name="meta.media.frame_rate_den">1001</property>
  <property name="meta.media.colorspace">709</property>
  <property name="meta.media.color_trc">1</property>
  <property name="meta.media.has_b_frames">0</property>
  <property name="meta.media.width">1920</property>
  <property name="meta.media.height">1080</property>
  <property name="meta.media.color_range">mpeg</property>
  <property name="meta.media.top_field_first">0</property>
  <property name="meta.media.progressive">1</property>
  <property name="set.test_audio">1</property>
  <property name="set.test_image">0</property>
 </producer>
 <producer id="producer80" in="00:00:00.000" out="00:19:12.000">
  <property name="length">34561</property>
  <property name="eof">pause</property>
  <property name="resource">assets/2022-03-29 15-35-06.mkv</property>
  <property name="audio_index">1</property>
  <property name="video_index">0</property>
  <property name="mute_on_pause">0</property>
  <property name="mlt_service">avformat-novalidate</property>
  <property name="seekable">1</property>
  <property name="aspect_ratio">1</property>
  <property name="kdenlive:clipname"/>
  <property name="kdenlive:folderid">6</property>
  <property name="kdenlive:id">2</property>
  <property name="kdenlive:file_size">1463082513</property>
  <property name="kdenlive:file_hash">891131df8801b66b23aa5f9178f214d0</property>
  <property name="kdenlive:audio_max1">190</property>
  <property name="xml">was here</property>
  <property name="meta.media.nb_streams">2</property>
  <property name="meta.media.0.stream.type">video</property>
  <property name="meta.media.0.stream.frame_rate">30</property>
  <property name="meta.media.0.stream.sample_aspect_ratio">0</property>
  <property name="meta.media.0.codec.width">1920</property>
  <property name="meta.media.0.codec.height">1080</property>
  <property name="meta.media.0.codec.rotate">0</property>
  <property name="meta.media.0.codec.pix_fmt">yuv420p</property>
  <property name="meta.media.0.codec.sample_aspect_ratio">1</property>
  <property name="meta.media.0.codec.colorspace">709</property>
  <property name="meta.media.0.codec.color_trc">1</property>
  <property name="meta.media.0.codec.name">h264</property>
  <property name="meta.media.0.codec.long_name">H.264 / AVC / MPEG-4 AVC / MPEG-4 part 10</property>
  <property name="meta.media.0.codec.bit_rate">0</property>
  <property name="meta.attr.0.stream.DURATION.markup">00:19:12.033000000</property>
  <property name="meta.media.1.stream.type">audio</property>
  <property name="meta.media.1.codec.sample_fmt">fltp</property>
  <property name="meta.media.1.codec.sample_rate">48000</property>
  <property name="meta.media.1.codec.channels">2</property>
  <property name="meta.media.1.codec.name">aac</property>
  <property name="meta.media.1.codec.long_name">AAC (Advanced Audio Coding)</property>
  <property name="meta.media.1.codec.bit_rate">0</property>
  <property name="meta.attr.1.stream.title.markup">simple_aac_recording</property>
  <property name="meta.attr.1.stream.DURATION.markup">00:19:11.914000000</property>
  <property name="meta.attr.ENCODER.markup">Lavf58.76.100</property>
  <property name="meta.media.sample_aspect_num">1</property>
  <property name="meta.media.sample_aspect_den">1</property>
  <property name="meta.media.frame_rate_num">30</property>
  <property name="meta.media.frame_rate_den">1</property>
  <property name="meta.media.colorspace">709</property>
  <property name="meta.media.color_trc">1</property>
  <property name="meta.media.has_b_frames">1</property>
  <property name="meta.media.width">1920</property>
  <property name="meta.media.height">1080</property>
  <property name="meta.media.color_range">mpeg</property>
  <property name="meta.media.top_field_first">0</property>
  <property name="meta.media.progressive">1</property>
  <property name="set.test_audio">1</property>
  <property name="set.test_image">0</property>
 </producer>
 <producer id="producer81" in="00:00:00.000" out="00:21:44.867">
  <property name="length">39147</property>
  <property name="eof">pause</property>
  <property name="resource">assets/This Environmentalist Says Only Nuclear Power Can Save Us Now [K9AGx2q_F_0].mp4</property>
  <property name="audio_index">1</property>
  <property name="video_index">0</property>
  <property name="mute_on_pause">0</property>
  <property name="mlt_service">avformat-novalidate</property>
  <property name="seekable">1</property>
  <property name="aspect_ratio">1</property>
  <property name="kdenlive:clipname"/>
  <property name="kdenlive:folderid">6</property>
  <property name="kdenlive:id">37</property>
  <property name="kdenlive:file_size">214733511</property>
  <property name="kdenlive:file_hash">23dd6173a2c8918d521fda43dc8d7f19</property>
  <property name="kdenlive:audio_max1">247</property>
  <property name="kdenlive:active_streams">-1</property>
  <property name="xml">was here</property>
  <property name="meta.media.nb_streams">2</property>
  <property name="meta.media.0.stream.type">video</property>
  <property name="meta.media.0.stream.frame_rate">23.976</property>
  <property name="meta.media.0.stream.sample_aspect_ratio">1</property>
  <property name="meta.media.0.codec.width">1920</property>
  <property name="meta.media.0.codec.height">1080</property>
  <property name="meta.media.0.codec.rotate">0</property>
  <property name="meta.media.0.codec.pix_fmt">yuv420p</property>
  <property name="meta.media.0.codec.sample_aspect_ratio">1</property>
  <property name="meta.media.0.codec.colorspace">709</property>
  <property name="meta.media.0.codec.color_trc">1</property>
  <property name="meta.media.0.codec.name">h264</property>
  <property name="meta.media.0.codec.long_name">H.264 / AVC / MPEG-4 AVC / MPEG-4 part 10</property>
  <property name="meta.media.0.codec.bit_rate">1182718</property>
  <property name="meta.attr.0.stream.handler_name.markup">ISO Media file produced by Google Inc.</property>
  <property name="meta.attr.0.stream.vendor_id.markup">[0][0][0][0]</property>
  <property name="meta.media.1.stream.type">audio</property>
  <property name="meta.media.1.codec.sample_fmt">fltp</property>
  <property name="meta.media.1.codec.sample_rate">44100</property>
  <property name="meta.media.1.codec.channels">2</property>
  <property name="meta.media.1.codec.name">aac</property>
  <property name="meta.media.1.codec.long_name">AAC (Advanced Audio Coding)</property>
  <property name="meta.media.1.codec.bit_rate">127999</property>
  <property name="meta.attr.1.stream.language.markup">eng</property>
  <property name="meta.attr.1.stream.handler_name.markup">ISO Media file produced by Google Inc.</property>
  <property name="meta.attr.1.stream.vendor_id.markup">[0][0][0][0]</property>
  <property name="meta.attr.major_brand.markup">isom</property>
  <property name="meta.attr.minor_version.markup">512</property>
  <property name="meta.attr.compatible_brands.markup">isomiso2avc1mp41</property>
  <property name="meta.attr.encoder.markup">Lavf59.16.100</property>
  <property name="meta.media.sample_aspect_num">1</property>
  <property name="meta.media.sample_aspect_den">1</property>
  <property name="meta.media.frame_rate_num">24000</property>
  <property name="meta.media.frame_rate_den">1001</property>
  <property name="meta.media.colorspace">709</property>
  <property name="meta.media.color_trc">1</property>
  <property name="meta.media.has_b_frames">1</property>
  <property name="meta.media.width">1920</property>
  <property name="meta.media.height">1080</property>
  <property name="meta.media.color_range">mpeg</property>
  <property name="meta.media.top_field_first">0</property>
  <property name="meta.media.progressive">1</property>
  <property name="set.test_audio">1</property>
  <property name="set.test_image">0</property>
 </producer>
 <producer id="producer82" in="00:00:00.000" out="00:02:23.400">
  <property name="length">4303</property>
  <property name="eof">pause</property>
  <property name="resource">assets/Nika uses Esper Hand. By Esper Bionics [tk7X3fPkdp8].mp4</property>
  <property name="audio_index">1</property>
  <property name="video_index">0</property>
  <property name="mute_on_pause">0</property>
  <property name="mlt_service">avformat-novalidate</property>
  <property name="seekable">1</property>
  <property name="aspect_ratio">1</property>
  <property name="kdenlive:clipname"/>
  <property name="kdenlive:folderid">6</property>
  <property name="kdenlive:id">46</property>
  <property name="kdenlive:file_size">25805744</property>
  <property name="kdenlive:file_hash">5dab8f703b2d45ccfc0a791549ed4fa8</property>
  <property name="kdenlive:audio_max1">208</property>
  <property name="kdenlive:active_streams">-1</property>
  <property name="xml">was here</property>
  <property name="meta.media.nb_streams">2</property>
  <property name="meta.media.0.stream.type">video</property>
  <property name="meta.media.0.stream.frame_rate">25</property>
  <property name="meta.media.0.stream.sample_aspect_ratio">1</property>
  <property name="meta.media.0.codec.width">1920</property>
  <property name="meta.media.0.codec.height">1080</property>
  <property name="meta.media.0.codec.rotate">0</property>
  <property name="meta.media.0.codec.pix_fmt">yuv420p</property>
  <property name="meta.media.0.codec.sample_aspect_ratio">1</property>
  <property name="meta.media.0.codec.colorspace">709</property>
  <property name="meta.media.0.codec.color_trc">1</property>
  <property name="meta.media.0.codec.name">h264</property>
  <property name="meta.media.0.codec.long_name">H.264 / AVC / MPEG-4 AVC / MPEG-4 part 10</property>
  <property name="meta.media.0.codec.bit_rate">1305893</property>
  <property name="meta.attr.0.stream.handler_name.markup">ISO Media file produced by Google Inc.</property>
  <property name="meta.attr.0.stream.vendor_id.markup">[0][0][0][0]</property>
  <property name="meta.media.1.stream.type">audio</property>
  <property name="meta.media.1.codec.sample_fmt">fltp</property>
  <property name="meta.media.1.codec.sample_rate">44100</property>
  <property name="meta.media.1.codec.channels">2</property>
  <property name="meta.media.1.codec.name">aac</property>
  <property name="meta.media.1.codec.long_name">AAC (Advanced Audio Coding)</property>
  <property name="meta.media.1.codec.bit_rate">127999</property>
  <property name="meta.attr.1.stream.handler_name.markup">ISO Media file produced by Google Inc.</property>
  <property name="meta.attr.1.stream.vendor_id.markup">[0][0][0][0]</property>
  <property name="meta.attr.major_brand.markup">isom</property>
  <property name="meta.attr.minor_version.markup">512</property>
  <property name="meta.attr.compatible_brands.markup">isomiso2avc1mp41</property>
  <property name="meta.attr.encoder.markup">Lavf59.16.100</property>
  <property name="meta.media.sample_aspect_num">1</property>
  <property name="meta.media.sample_aspect_den">1</property>
  <property name="meta.media.frame_rate_num">25</property>
  <property name="meta.media.frame_rate_den">1</property>
  <property name="meta.media.colorspace">709</property>
  <property name="meta.media.color_trc">1</property>
  <property name="meta.media.has_b_frames">1</property>
  <property name="meta.media.width">1920</property>
  <property name="meta.media.height">1080</property>
  <property name="meta.media.color_range">mpeg</property>
  <property name="meta.media.top_field_first">0</property>
  <property name="meta.media.progressive">1</property>
  <property name="set.test_audio">1</property>
  <property name="set.test_image">0</property>
 </producer>
 <producer id="producer83" in="00:00:00.000" out="00:01:09.200">
  <property name="length">2077</property>
  <property name="eof">pause</property>
  <property name="resource">assets/The magnificent arrest of Cecil George Edwards [NbVJU1CuM0Q].mp4</property>
  <property name="audio_index">1</property>
  <property name="video_index">0</property>
  <property name="mute_on_pause">0</property>
  <property name="mlt_service">avformat-novalidate</property>
  <property name="seekable">1</property>
  <property name="aspect_ratio">1</property>
  <property name="kdenlive:clipname"/>
  <property name="kdenlive:folderid">6</property>
  <property name="kdenlive:id">48</property>
  <property name="kdenlive:file_size">3515747</property>
  <property name="kdenlive:file_hash">c73fda319a0defd4b331c840144432bf</property>
  <property name="kdenlive:audio_max1">189</property>
  <property name="xml">was here</property>
  <property name="meta.media.nb_streams">2</property>
  <property name="meta.media.0.stream.type">video</property>
  <property name="meta.media.0.stream.frame_rate">30</property>
  <property name="meta.media.0.stream.sample_aspect_ratio">1</property>
  <property name="meta.media.0.codec.width">480</property>
  <property name="meta.media.0.codec.height">360</property>
  <property name="meta.media.0.codec.rotate">0</property>
  <property name="meta.media.0.codec.pix_fmt">yuv420p</property>
  <property name="meta.media.0.codec.sample_aspect_ratio">1</property>
  <property name="meta.media.0.codec.colorspace">601</property>
  <property name="meta.media.0.codec.name">h264</property>
  <property name="meta.media.0.codec.long_name">H.264 / AVC / MPEG-4 AVC / MPEG-4 part 10</property>
  <property name="meta.media.0.codec.bit_rate">274093</property>
  <property name="meta.attr.0.stream.handler_name.markup">VideoHandler</property>
  <property name="meta.attr.0.stream.vendor_id.markup">[0][0][0][0]</property>
  <property name="meta.media.1.stream.type">audio</property>
  <property name="meta.media.1.codec.sample_fmt">fltp</property>
  <property name="meta.media.1.codec.sample_rate">44100</property>
  <property name="meta.media.1.codec.channels">2</property>
  <property name="meta.media.1.codec.name">aac</property>
  <property name="meta.media.1.codec.long_name">AAC (Advanced Audio Coding)</property>
  <property name="meta.media.1.codec.bit_rate">125588</property>
  <property name="meta.attr.1.stream.handler_name.markup">SoundHandler</property>
  <property name="meta.attr.1.stream.vendor_id.markup">[0][0][0][0]</property>
  <property name="meta.attr.major_brand.markup">isom</property>
  <property name="meta.attr.minor_version.markup">512</property>
  <property name="meta.attr.compatible_brands.markup">isomiso2avc1mp41</property>
  <property name="meta.attr.encoder.markup">Lavf59.16.100</property>
  <property name="meta.media.sample_aspect_num">1</property>
  <property name="meta.media.sample_aspect_den">1</property>
  <property name="meta.media.frame_rate_num">30</property>
  <property name="meta.media.frame_rate_den">1</property>
  <property name="meta.media.colorspace">601</property>
  <property name="meta.media.color_trc">2</property>
  <property name="meta.media.has_b_frames">1</property>
  <property name="meta.media.width">480</property>
  <property name="meta.media.height">360</property>
  <property name="meta.media.color_range">mpeg</property>
  <property name="meta.media.top_field_first">0</property>
  <property name="meta.media.progressive">1</property>
  <property name="set.test_audio">1</property>
  <property name="set.test_image">0</property>
 </producer>
 <playlist id="playlist10">
  <entry producer="producer40" in="00:00:00.000" out="00:00:00.433">
   <property name="kdenlive:id">50</property>
  </entry>
  <entry producer="producer41" in="00:00:00.000" out="00:00:00.333">
   <property name="kdenlive:id">51</property>
  </entry>
  <entry producer="producer42" in="00:00:00.000" out="00:00:00.367">
   <property name="kdenlive:id">52</property>
  </entry>
  <entry producer="producer43" in="00:00:00.000" out="00:00:00.433">
   <property name="kdenlive:id">53</property>
  </entry>
  <entry producer="producer44" in="00:00:00.000" out="00:00:00.433">
   <property name="kdenlive:id">54</property>
  </entry>
  <entry producer="producer45" in="00:00:00.000" out="00:00:00.167">
   <property name="kdenlive:id">55</property>
  </entry>
  <entry producer="producer46" in="00:00:00.000" out="00:00:01.000">
   <property name="kdenlive:id">56</property>
   <property name="kdenlive:activeeffect">0</property>
   <filter id="filter32">
    <property name="rotate_center">1</property>
    <property name="mlt_service">qtblend</property>
    <property name="kdenlive_id">qtblend</property>
    <property name="rect">00:00:00.000=0 0 1920 1080 1.000000;00:00:00.800=0 0 1920 1080 1.000000;00:00:00.867=0 -39 1920 1080 1.000000;00:00:01.000=0 646 1920 1080 1.000000</property>
    <property name="rotation">00:00:00.000=0;00:00:00.800=0;00:00:00.867=0;00:00:01.000=0</property>
    <property name="compositing">0</property>
    <property name="distort">0</property>
    <property name="kdenlive:collapsed">0</property>
   </filter>
  </entry>
  <blank length="00:00:03.067"/>
  <entry producer="producer73" in="00:00:08.200" out="00:00:15.600">
   <property name="kdenlive:id">26</property>
  </entry>
  <blank length="00:00:15.600"/>
  <entry producer="producer74" in="00:00:48.667" out="00:00:52.967">
   <property name="kdenlive:id">27</property>
  </entry>
  <blank length="00:00:05.067"/>
  <entry producer="producer75" in="00:00:07.367" out="00:00:07.933">
   <property name="kdenlive:id">30</property>
   <property name="kdenlive:activeeffect">0</property>
   <filter id="filter33">
    <property name="rotate_center">1</property>
    <property name="mlt_service">qtblend</property>
    <property name="kdenlive_id">qtblend</property>
    <property name="rect">00:00:07.367=-328 -188 2575 1448 1.000000</property>
    <property name="rotation">00:00:07.367=0</property>
    <property name="compositing">0</property>
    <property name="distort">0</property>
    <property name="kdenlive:collapsed">0</property>
   </filter>
  </entry>
  <entry producer="producer75" in="00:00:09.300" out="00:00:09.600">
   <property name="kdenlive:id">30</property>
   <filter id="filter34">
    <property name="rotate_center">1</property>
    <property name="mlt_service">qtblend</property>
    <property name="kdenlive_id">qtblend</property>
    <property name="rect">00:00:09.300=-328 -188 2575 1448 1.000000</property>
    <property name="rotation">00:00:09.300=0</property>
    <property name="compositing">0</property>
    <property name="distort">0</property>
    <property name="kdenlive:collapsed">0</property>
   </filter>
  </entry>
  <entry producer="producer75" in="00:00:10.500" out="00:00:10.800">
   <property name="kdenlive:id">30</property>
   <filter id="filter35">
    <property name="rotate_center">1</property>
    <property name="mlt_service">qtblend</property>
    <property name="kdenlive_id">qtblend</property>
    <property name="rect">00:00:10.500=-328 -188 2575 1448 1.000000</property>
    <property name="rotation">00:00:10.500=0</property>
    <property name="compositing">0</property>
    <property name="distort">0</property>
    <property name="kdenlive:collapsed">0</property>
   </filter>
  </entry>
  <entry producer="producer75" in="00:00:07.367" out="00:00:07.667">
   <property name="kdenlive:id">30</property>
   <filter id="filter36">
    <property name="rotate_center">1</property>
    <property name="mlt_service">qtblend</property>
    <property name="kdenlive_id">qtblend</property>
    <property name="rect">00:00:07.367=-328 -188 2575 1448 1.000000</property>
    <property name="rotation">00:00:07.367=0</property>
    <property name="compositing">0</property>
    <property name="distort">0</property>
    <property name="kdenlive:collapsed">0</property>
   </filter>
  </entry>
  <entry producer="producer75" in="00:00:09.300" out="00:00:09.600">
   <property name="kdenlive:id">30</property>
   <filter id="filter37">
    <property name="rotate_center">1</property>
    <property name="mlt_service">qtblend</property>
    <property name="kdenlive_id">qtblend</property>
    <property name="rect">00:00:09.300=-328 -188 2575 1448 1.000000</property>
    <property name="rotation">00:00:09.300=0</property>
    <property name="compositing">0</property>
    <property name="distort">0</property>
    <property name="kdenlive:collapsed">0</property>
   </filter>
  </entry>
  <entry producer="producer75" in="00:00:10.500" out="00:00:10.800">
   <property name="kdenlive:id">30</property>
   <filter id="filter38">
    <property name="rotate_center">1</property>
    <property name="mlt_service">qtblend</property>
    <property name="kdenlive_id">qtblend</property>
    <property name="rect">00:00:10.500=-328 -188 2575 1448 1.000000</property>
    <property name="rotation">00:00:10.500=0</property>
    <property name="compositing">0</property>
    <property name="distort">0</property>
    <property name="kdenlive:collapsed">0</property>
   </filter>
  </entry>
  <entry producer="producer75" in="00:00:07.367" out="00:00:07.500">
   <property name="kdenlive:id">30</property>
   <filter id="filter39">
    <property name="rotate_center">1</property>
    <property name="mlt_service">qtblend</property>
    <property name="kdenlive_id">qtblend</property>
    <property name="rect">00:00:07.367=-328 -188 2575 1448 1.000000</property>
    <property name="rotation">00:00:07.367=0</property>
    <property name="compositing">0</property>
    <property name="distort">0</property>
    <property name="kdenlive:collapsed">0</property>
   </filter>
  </entry>
  <entry producer="producer75" in="00:00:09.300" out="00:00:09.433">
   <property name="kdenlive:id">30</property>
   <filter id="filter40">
    <property name="rotate_center">1</property>
    <property name="mlt_service">qtblend</property>
    <property name="kdenlive_id">qtblend</property>
    <property name="rect">00:00:09.300=-328 -188 2575 1448 1.000000</property>
    <property name="rotation">00:00:09.300=0</property>
    <property name="compositing">0</property>
    <property name="distort">0</property>
    <property name="kdenlive:collapsed">0</property>
   </filter>
  </entry>
  <entry producer="producer75" in="00:00:10.500" out="00:00:10.633">
   <property name="kdenlive:id">30</property>
   <filter id="filter41">
    <property name="rotate_center">1</property>
    <property name="mlt_service">qtblend</property>
    <property name="kdenlive_id">qtblend</property>
    <property name="rect">00:00:10.500=-328 -188 2575 1448 1.000000</property>
    <property name="rotation">00:00:10.500=0</property>
    <property name="compositing">0</property>
    <property name="distort">0</property>
    <property name="kdenlive:collapsed">0</property>
   </filter>
  </entry>
  <entry producer="producer75" in="00:00:07.367" out="00:00:07.500">
   <property name="kdenlive:id">30</property>
   <filter id="filter42">
    <property name="rotate_center">1</property>
    <property name="mlt_service">qtblend</property>
    <property name="kdenlive_id">qtblend</property>
    <property name="rect">00:00:07.367=-328 -188 2575 1448 1.000000</property>
    <property name="rotation">00:00:07.367=0</property>
    <property name="compositing">0</property>
    <property name="distort">0</property>
   </filter>
  </entry>
  <entry producer="producer75" in="00:00:09.300" out="00:00:09.433">
   <property name="kdenlive:id">30</property>
   <filter id="filter43">
    <property name="rotate_center">1</property>
    <property name="mlt_service">qtblend</property>
    <property name="kdenlive_id">qtblend</property>
    <property name="rect">00:00:09.300=-328 -188 2575 1448 1.000000</property>
    <property name="rotation">00:00:09.300=0</property>
    <property name="compositing">0</property>
    <property name="distort">0</property>
    <property name="kdenlive:collapsed">0</property>
   </filter>
  </entry>
  <entry producer="producer75" in="00:00:10.500" out="00:00:10.633">
   <property name="kdenlive:id">30</property>
   <filter id="filter44">
    <property name="rotate_center">1</property>
    <property name="mlt_service">qtblend</property>
    <property name="kdenlive_id">qtblend</property>
    <property name="rect">00:00:10.500=-328 -188 2575 1448 1.000000</property>
    <property name="rotation">00:00:10.500=0</property>
    <property name="compositing">0</property>
    <property name="distort">0</property>
   </filter>
  </entry>
  <entry producer="producer75" in="00:00:07.367" out="00:00:07.500">
   <property name="kdenlive:id">30</property>
   <filter id="filter45">
    <property name="rotate_center">1</property>
    <property name="mlt_service">qtblend</property>
    <property name="kdenlive_id">qtblend</property>
    <property name="rect">00:00:07.367=-328 -188 2575 1448 1.000000</property>
    <property name="rotation">00:00:07.367=0</property>
    <property name="compositing">0</property>
    <property name="distort">0</property>
    <property name="kdenlive:collapsed">0</property>
   </filter>
  </entry>
  <entry producer="producer75" in="00:00:09.300" out="00:00:09.433">
   <property name="kdenlive:id">30</property>
   <filter id="filter46">
    <property name="rotate_center">1</property>
    <property name="mlt_service">qtblend</property>
    <property name="kdenlive_id">qtblend</property>
    <property name="rect">00:00:09.300=-328 -188 2575 1448 1.000000</property>
    <property name="rotation">00:00:09.300=0</property>
    <property name="compositing">0</property>
    <property name="distort">0</property>
   </filter>
  </entry>
  <entry producer="producer75" in="00:00:10.500" out="00:00:10.700">
   <property name="kdenlive:id">30</property>
   <filter id="filter47">
    <property name="rotate_center">1</property>
    <property name="mlt_service">qtblend</property>
    <property name="kdenlive_id">qtblend</property>
    <property name="rect">00:00:10.500=-328 -188 2575 1448 1.000000</property>
    <property name="rotation">00:00:10.500=0</property>
    <property name="compositing">0</property>
    <property name="distort">0</property>
    <property name="kdenlive:collapsed">0</property>
   </filter>
  </entry>
  <blank length="00:00:06.867"/>
  <entry producer="producer8" in="00:00:00.000" out="00:00:00.367">
   <property name="kdenlive:id">15</property>
   <filter id="filter48">
    <property name="delta">00:00:00.000=14</property>
    <property name="every">00:00:00.000=20</property>
    <property name="brightnessdelta_up">00:00:00.000=20</property>
    <property name="brightnessdelta_down">00:00:00.000=30</property>
    <property name="brightnessdelta_every">00:00:00.000=70</property>
    <property name="unevendevelop_up">00:00:00.000=60</property>
    <property name="unevendevelop_down">00:00:00.000=20</property>
    <property name="unevendevelop_duration">00:00:00.000=70</property>
    <property name="mlt_service">oldfilm</property>
    <property name="kdenlive_id">oldfilm</property>
    <property name="kdenlive:collapsed">0</property>
   </filter>
  </entry>
  <entry producer="producer8" in="00:00:00.000" out="00:00:00.100">
   <property name="kdenlive:id">15</property>
   <filter id="filter49">
    <property name="delta">00:00:00.000=14</property>
    <property name="every">00:00:00.000=20</property>
    <property name="brightnessdelta_up">00:00:00.000=20</property>
    <property name="brightnessdelta_down">00:00:00.000=30</property>
    <property name="brightnessdelta_every">00:00:00.000=70</property>
    <property name="unevendevelop_up">00:00:00.000=60</property>
    <property name="unevendevelop_down">00:00:00.000=20</property>
    <property name="unevendevelop_duration">00:00:00.000=70</property>
    <property name="mlt_service">oldfilm</property>
    <property name="kdenlive_id">oldfilm</property>
    <property name="kdenlive:collapsed">0</property>
   </filter>
   <filter id="filter50">
    <property name="version">0.1</property>
    <property name="mlt_service">frei0r.glitch0r</property>
    <property name="kdenlive_id">frei0r.glitch0r</property>
    <property name="0">00:00:00.000=0.265</property>
    <property name="1">00:00:00.000=0.145</property>
    <property name="2">00:00:00.000=0.2</property>
    <property name="3">00:00:00.000=0</property>
    <property name="kdenlive:collapsed">0</property>
   </filter>
  </entry>
  <entry producer="producer7" in="00:00:00.000" out="00:00:00.100">
   <property name="kdenlive:id">14</property>
   <property name="kdenlive:activeeffect">1</property>
   <filter id="filter51">
    <property name="delta">00:00:00.000=14</property>
    <property name="every">00:00:00.000=20</property>
    <property name="brightnessdelta_up">00:00:00.000=20</property>
    <property name="brightnessdelta_down">00:00:00.000=30</property>
    <property name="brightnessdelta_every">00:00:00.000=70</property>
    <property name="unevendevelop_up">00:00:00.000=60</property>
    <property name="unevendevelop_down">00:00:00.000=20</property>
    <property name="unevendevelop_duration">00:00:00.000=70</property>
    <property name="mlt_service">oldfilm</property>
    <property name="kdenlive_id">oldfilm</property>
    <property name="kdenlive:collapsed">0</property>
   </filter>
   <filter id="filter52">
    <property name="version">0.1</property>
    <property name="mlt_service">frei0r.glitch0r</property>
    <property name="kdenlive_id">frei0r.glitch0r</property>
    <property name="0">00:00:00.000=0.461</property>
    <property name="1">00:00:00.000=0.196</property>
    <property name="2">00:00:00.000=0.203</property>
    <property name="3">00:00:00.000=0</property>
    <property name="kdenlive:collapsed">0</property>
   </filter>
  </entry>
  <entry producer="producer7" in="00:00:00.000" out="00:00:03.400">
   <property name="kdenlive:id">14</property>
   <filter id="filter53">
    <property name="delta">00:00:00.000=14</property>
    <property name="every">00:00:00.000=20</property>
    <property name="brightnessdelta_up">00:00:00.000=20</property>
    <property name="brightnessdelta_down">00:00:00.000=30</property>
    <property name="brightnessdelta_every">00:00:00.000=70</property>
    <property name="unevendevelop_up">00:00:00.000=60</property>
    <property name="unevendevelop_down">00:00:00.000=20</property>
    <property name="unevendevelop_duration">00:00:00.000=70</property>
    <property name="mlt_service">oldfilm</property>
    <property name="kdenlive_id">oldfilm</property>
    <property name="kdenlive:collapsed">0</property>
   </filter>
  </entry>
  <blank length="00:00:01.400"/>
  <entry producer="producer23" in="00:00:00.000" out="00:00:01.367">
   <property name="kdenlive:id">31</property>
   <property name="kdenlive:activeeffect">0</property>
   <filter id="filter54">
    <property name="rotate_center">1</property>
    <property name="mlt_service">qtblend</property>
    <property name="kdenlive_id">qtblend</property>
    <property name="rect">00:00:00.000=-211 1091 956 538 1.000000;00:00:00.233=-211 421 956 538 1.000000;00:00:00.367=-211 496 956 538 1.000000;00:00:01.067=-211 496 956 538 1.000000;00:00:01.200=-211 423 956 538 1.000000;00:00:01.367=-211 1083 956 538 1.000000</property>
    <property name="rotation">00:00:00.000=0;00:00:00.233=0;00:00:00.367=0;00:00:01.067=0;00:00:01.200=0;00:00:01.367=0</property>
    <property name="compositing">0</property>
    <property name="distort">0</property>
    <property name="kdenlive:collapsed">0</property>
   </filter>
  </entry>
  <blank length="00:00:05.167"/>
  <entry producer="producer76" in="00:04:36.300" out="00:04:46.267">
   <property name="kdenlive:id">32</property>
  </entry>
  <blank length="00:00:12.067"/>
  <entry producer="producer77" in="00:00:52.700" out="00:00:57.400">
   <property name="kdenlive:id">33</property>
  </entry>
  <blank length="00:00:30.533"/>
  <entry producer="producer26" in="00:00:00.000" out="00:00:16.700">
   <property name="kdenlive:id">34</property>
  </entry>
  <blank length="00:00:51.500"/>
  <entry producer="producer78" in="00:02:53.900" out="00:03:01.767">
   <property name="kdenlive:id">35</property>
   <property name="kdenlive:activeeffect">0</property>
   <filter id="filter55">
    <property name="rotate_center">1</property>
    <property name="mlt_service">qtblend</property>
    <property name="kdenlive_id">qtblend</property>
    <property name="rect">00:02:53.900=-378 -213 2682 1508 1.000000</property>
    <property name="rotation">00:02:53.900=0</property>
    <property name="compositing">0</property>
    <property name="distort">0</property>
    <property name="kdenlive:collapsed">0</property>
   </filter>
  </entry>
  <blank length="00:00:13.400"/>
  <entry producer="producer79" in="00:02:36.067" out="00:02:39.800">
   <property name="kdenlive:id">36</property>
   <property name="kdenlive:activeeffect">0</property>
   <filter id="filter56">
    <property name="rotate_center">1</property>
    <property name="mlt_service">qtblend</property>
    <property name="kdenlive_id">qtblend</property>
    <property name="rect">00:02:36.067=-143 -80 2206 1241 1.000000</property>
    <property name="rotation">00:02:36.067=0</property>
    <property name="compositing">0</property>
    <property name="distort">0</property>
    <property name="kdenlive:collapsed">0</property>
   </filter>
  </entry>
  <blank length="00:00:13.667"/>
  <entry producer="producer80" in="00:06:24.800" out="00:06:27.567">
   <property name="kdenlive:id">2</property>
  </entry>
  <blank length="00:00:05.167"/>
  <entry producer="producer79" in="00:08:18.400" out="00:08:21.467">
   <property name="kdenlive:id">36</property>
   <filter id="filter57">
    <property name="rotate_center">1</property>
    <property name="mlt_service">qtblend</property>
    <property name="kdenlive_id">qtblend</property>
    <property name="rect">00:08:18.400=-143 -80 2206 1241 1.000000</property>
    <property name="rotation">00:08:18.400=0</property>
    <property name="compositing">0</property>
    <property name="distort">0</property>
    <property name="kdenlive:collapsed">0</property>
   </filter>
  </entry>
  <blank length="00:00:02.067"/>
  <entry producer="producer79" in="00:09:15.133" out="00:09:17.400">
   <property name="kdenlive:id">36</property>
   <filter id="filter58">
    <property name="rotate_center">1</property>
    <property name="mlt_service">qtblend</property>
    <property name="kdenlive_id">qtblend</property>
    <property name="rect">00:09:15.133=-143 -80 2206 1241 1.000000</property>
    <property name="rotation">00:09:15.133=0</property>
    <property name="compositing">0</property>
    <property name="distort">0</property>
    <property name="kdenlive:collapsed">0</property>
   </filter>
  </entry>
  <blank length="00:00:02.033"/>
  <entry producer="producer80" in="00:07:00.833" out="00:07:03.733">
   <property name="kdenlive:id">2</property>
  </entry>
  <blank length="00:00:06.467"/>
  <entry producer="producer80" in="00:07:11.133" out="00:07:17.500">
   <property name="kdenlive:id">2</property>
  </entry>
  <blank length="00:00:05.967"/>
  <entry producer="producer40" in="00:00:00.000" out="00:00:00.700">
   <property name="kdenlive:id">50</property>
   <property name="kdenlive:activeeffect">0</property>
   <filter id="filter59">
    <property name="rotate_center">1</property>
    <property name="mlt_service">qtblend</property>
    <property name="kdenlive_id">qtblend</property>
    <property name="rect">00:00:00.000=0 498 1920 1080 1.000000;00:00:00.167=0 -32 1920 1080 1.000000;00:00:00.233=0 0 1920 1080 1.000000</property>
    <property name="rotation">00:00:00.000=0;00:00:00.167=0;00:00:00.233=0</property>
    <property name="compositing">0</property>
    <property name="distort">0</property>
    <property name="kdenlive:collapsed">0</property>
   </filter>
  </entry>
  <entry producer="producer47" in="00:00:00.000" out="00:00:00.133">
   <property name="kdenlive:id">57</property>
  </entry>
  <entry producer="producer48" in="00:00:00.000" out="00:00:00.900">
   <property name="kdenlive:id">58</property>
  </entry>
  <entry producer="producer12" in="00:00:00.000" out="00:00:00.367">
   <property name="kdenlive:id">19</property>
   <filter id="filter60">
    <property name="delta">00:00:00.000=14</property>
    <property name="every">00:00:00.000=20</property>
    <property name="brightnessdelta_up">00:00:00.000=20</property>
    <property name="brightnessdelta_down">00:00:00.000=30</property>
    <property name="brightnessdelta_every">00:00:00.000=70</property>
    <property name="unevendevelop_up">00:00:00.000=60</property>
    <property name="unevendevelop_down">00:00:00.000=20</property>
    <property name="unevendevelop_duration">00:00:00.000=70</property>
    <property name="mlt_service">oldfilm</property>
    <property name="kdenlive_id">oldfilm</property>
   </filter>
  </entry>
  <entry producer="producer12" in="00:00:00.000" out="00:00:00.100">
   <property name="kdenlive:id">19</property>
   <filter id="filter61">
    <property name="delta">00:00:00.000=14</property>
    <property name="every">00:00:00.000=20</property>
    <property name="brightnessdelta_up">00:00:00.000=20</property>
    <property name="brightnessdelta_down">00:00:00.000=30</property>
    <property name="brightnessdelta_every">00:00:00.000=70</property>
    <property name="unevendevelop_up">00:00:00.000=60</property>
    <property name="unevendevelop_down">00:00:00.000=20</property>
    <property name="unevendevelop_duration">00:00:00.000=70</property>
    <property name="mlt_service">oldfilm</property>
    <property name="kdenlive_id">oldfilm</property>
   </filter>
   <filter id="filter62">
    <property name="version">0.1</property>
    <property name="mlt_service">frei0r.glitch0r</property>
    <property name="kdenlive_id">frei0r.glitch0r</property>
    <property name="0">00:00:00.000=0.265</property>
    <property name="1">00:00:00.000=0.145</property>
    <property name="2">00:00:00.000=0.2</property>
    <property name="3">00:00:00.000=0</property>
   </filter>
  </entry>
  <entry producer="producer11" in="00:00:00.000" out="00:00:00.100">
   <property name="kdenlive:id">18</property>
   <filter id="filter63">
    <property name="delta">00:00:00.000=14</property>
    <property name="every">00:00:00.000=20</property>
    <property name="brightnessdelta_up">00:00:00.000=20</property>
    <property name="brightnessdelta_down">00:00:00.000=30</property>
    <property name="brightnessdelta_every">00:00:00.000=70</property>
    <property name="unevendevelop_up">00:00:00.000=60</property>
    <property name="unevendevelop_down">00:00:00.000=20</property>
    <property name="unevendevelop_duration">00:00:00.000=70</property>
    <property name="mlt_service">oldfilm</property>
    <property name="kdenlive_id">oldfilm</property>
    <property name="kdenlive:collapsed">0</property>
   </filter>
   <filter id="filter64">
    <property name="version">0.1</property>
    <property name="mlt_service">frei0r.glitch0r</property>
    <property name="kdenlive_id">frei0r.glitch0r</property>
    <property name="0">00:00:00.000=0.461</property>
    <property name="1">00:00:00.000=0.196</property>
    <property name="2">00:00:00.000=0.203</property>
    <property name="3">00:00:00.000=0</property>
   </filter>
  </entry>
  <entry producer="producer11" in="00:00:00.000" out="00:00:03.400">
   <property name="kdenlive:id">18</property>
   <filter id="filter65">
    <property name="delta">00:00:00.000=14</property>
    <property name="every">00:00:00.000=20</property>
    <property name="brightnessdelta_up">00:00:00.000=20</property>
    <property name="brightnessdelta_down">00:00:00.000=30</property>
    <property name="brightnessdelta_every">00:00:00.000=70</property>
    <property name="unevendevelop_up">00:00:00.000=60</property>
    <property name="unevendevelop_down">00:00:00.000=20</property>
    <property name="unevendevelop_duration">00:00:00.000=70</property>
    <property name="mlt_service">oldfilm</property>
    <property name="kdenlive_id">oldfilm</property>
    <property name="kdenlive:collapsed">0</property>
   </filter>
  </entry>
  <blank length="00:00:24.200"/>
  <entry producer="producer81" in="00:00:51.167" out="00:01:00.567">
   <property name="kdenlive:id">37</property>
  </entry>
  <blank length="00:00:04.367"/>
  <entry producer="producer80" in="00:09:08.500" out="00:09:13.033">
   <property name="kdenlive:id">2</property>
  </entry>
  <blank length="00:01:24.967"/>
  <entry producer="producer32" in="00:00:00.000" out="00:00:15.967">
   <property name="kdenlive:id">40</property>
   <filter id="filter66" out="00:00:00.567">
    <property name="start">1</property>
    <property name="level">1</property>
    <property name="mlt_service">brightness</property>
    <property name="kdenlive_id">fade_from_black</property>
    <property name="alpha">00:00:00.000=0;00:00:00.567=1</property>
    <property name="kdenlive:collapsed">0</property>
   </filter>
  </entry>
  <entry producer="producer31" in="00:00:00.000" out="00:00:08.033">
   <property name="kdenlive:id">41</property>
  </entry>
  <entry producer="producer33" in="00:00:00.000" out="00:00:10.800">
   <property name="kdenlive:id">42</property>
  </entry>
  <entry producer="producer34" in="00:00:00.000" out="00:00:18.833">
   <property name="kdenlive:id">43</property>
  </entry>
  <entry producer="producer35" in="00:00:00.000" out="00:00:16.233">
   <property name="kdenlive:id">44</property>
  </entry>
  <entry producer="producer36" in="00:00:00.000" out="00:00:25.300">
   <property name="kdenlive:id">45</property>
   <filter id="filter67" in="00:00:24.433" out="00:00:25.300">
    <property name="start">1</property>
    <property name="level">1</property>
    <property name="mlt_service">brightness</property>
    <property name="kdenlive_id">fade_to_black</property>
    <property name="alpha">00:00:00.000=1;00:00:00.867=0</property>
   </filter>
  </entry>
  <blank length="00:00:20.233"/>
  <entry producer="producer16" in="00:00:00.000" out="00:00:00.367">
   <property name="kdenlive:id">23</property>
   <filter id="filter68">
    <property name="delta">00:00:00.000=14</property>
    <property name="every">00:00:00.000=20</property>
    <property name="brightnessdelta_up">00:00:00.000=20</property>
    <property name="brightnessdelta_down">00:00:00.000=30</property>
    <property name="brightnessdelta_every">00:00:00.000=70</property>
    <property name="unevendevelop_up">00:00:00.000=60</property>
    <property name="unevendevelop_down">00:00:00.000=20</property>
    <property name="unevendevelop_duration">00:00:00.000=70</property>
    <property name="mlt_service">oldfilm</property>
    <property name="kdenlive_id">oldfilm</property>
    <property name="kdenlive:collapsed">0</property>
   </filter>
  </entry>
  <entry producer="producer16" in="00:00:00.000" out="00:00:00.100">
   <property name="kdenlive:id">23</property>
   <filter id="filter69">
    <property name="delta">00:00:00.000=14</property>
    <property name="every">00:00:00.000=20</property>
    <property name="brightnessdelta_up">00:00:00.000=20</property>
    <property name="brightnessdelta_down">00:00:00.000=30</property>
    <property name="brightnessdelta_every">00:00:00.000=70</property>
    <property name="unevendevelop_up">00:00:00.000=60</property>
    <property name="unevendevelop_down">00:00:00.000=20</property>
    <property name="unevendevelop_duration">00:00:00.000=70</property>
    <property name="mlt_service">oldfilm</property>
    <property name="kdenlive_id">oldfilm</property>
    <property name="kdenlive:collapsed">0</property>
   </filter>
   <filter id="filter70">
    <property name="version">0.1</property>
    <property name="mlt_service">frei0r.glitch0r</property>
    <property name="kdenlive_id">frei0r.glitch0r</property>
    <property name="0">00:00:00.000=0.265</property>
    <property name="1">00:00:00.000=0.145</property>
    <property name="2">00:00:00.000=0.2</property>
    <property name="3">00:00:00.000=0</property>
   </filter>
  </entry>
  <entry producer="producer15" in="00:00:00.000" out="00:00:00.100">
   <property name="kdenlive:id">22</property>
   <filter id="filter71">
    <property name="delta">00:00:00.000=14</property>
    <property name="every">00:00:00.000=20</property>
    <property name="brightnessdelta_up">00:00:00.000=20</property>
    <property name="brightnessdelta_down">00:00:00.000=30</property>
    <property name="brightnessdelta_every">00:00:00.000=70</property>
    <property name="unevendevelop_up">00:00:00.000=60</property>
    <property name="unevendevelop_down">00:00:00.000=20</property>
    <property name="unevendevelop_duration">00:00:00.000=70</property>
    <property name="mlt_service">oldfilm</property>
    <property name="kdenlive_id">oldfilm</property>
    <property name="kdenlive:collapsed">0</property>
   </filter>
   <filter id="filter72">
    <property name="version">0.1</property>
    <property name="mlt_service">frei0r.glitch0r</property>
    <property name="kdenlive_id">frei0r.glitch0r</property>
    <property name="0">00:00:00.000=0.265</property>
    <property name="1">00:00:00.000=0.145</property>
    <property name="2">00:00:00.000=0.2</property>
    <property name="3">00:00:00.000=0</property>
   </filter>
  </entry>
  <entry producer="producer15" in="00:00:00.000" out="00:00:03.400">
   <property name="kdenlive:id">22</property>
   <filter id="filter73">
    <property name="delta">00:00:00.000=14</property>
    <property name="every">00:00:00.000=20</property>
    <property name="brightnessdelta_up">00:00:00.000=20</property>
    <property name="brightnessdelta_down">00:00:00.000=30</property>
    <property name="brightnessdelta_every">00:00:00.000=70</property>
    <property name="unevendevelop_up">00:00:00.000=60</property>
    <property name="unevendevelop_down">00:00:00.000=20</property>
    <property name="unevendevelop_duration">00:00:00.000=70</property>
    <property name="mlt_service">oldfilm</property>
    <property name="kdenlive_id">oldfilm</property>
    <property name="kdenlive:collapsed">0</property>
   </filter>
  </entry>
  <blank length="00:00:03.000"/>
  <entry producer="producer82" in="00:00:10.567" out="00:00:13.767">
   <property name="kdenlive:id">46</property>
  </entry>
  <blank length="00:00:01.033"/>
  <entry producer="producer80" in="00:14:40.267" out="00:14:47.367">
   <property name="kdenlive:id">2</property>
  </entry>
  <blank length="00:01:09.600"/>
  <entry producer="producer83" in="00:00:00.000" out="00:00:06.500">
   <property name="kdenlive:id">48</property>
   <property name="kdenlive:activeeffect">0</property>
   <filter id="filter74">
    <property name="rotate_center">1</property>
    <property name="mlt_service">qtblend</property>
    <property name="kdenlive_id">qtblend</property>
    <property name="rect">00:00:00.000=-333 -187 2587 1455 1.000000</property>
    <property name="rotation">00:00:00.000=0</property>
    <property name="compositing">0</property>
    <property name="distort">0</property>
    <property name="kdenlive:collapsed">0</property>
   </filter>
  </entry>
  <blank length="00:00:07.100"/>
  <entry producer="producer49" in="00:00:00.000" out="00:00:00.633">
   <property name="kdenlive:id">59</property>
   <property name="kdenlive:activeeffect">0</property>
   <filter id="filter75">
    <property name="rotate_center">1</property>
    <property name="mlt_service">qtblend</property>
    <property name="kdenlive_id">qtblend</property>
    <property name="rect">00:00:00.000=0 386 1920 1080 1.000000;00:00:00.133=0 -43 1920 1080 1.000000;00:00:00.200=0 0 1920 1080 1.000000</property>
    <property name="rotation">00:00:00.000=0;00:00:00.133=0;00:00:00.200=0</property>
    <property name="compositing">0</property>
    <property name="distort">0</property>
    <property name="kdenlive:collapsed">0</property>
   </filter>
  </entry>
  <entry producer="producer45" in="00:00:00.000" out="00:00:00.067">
   <property name="kdenlive:id">55</property>
  </entry>
  <entry producer="producer50" in="00:00:00.000" out="00:00:00.600">
   <property name="kdenlive:id">60</property>
  </entry>
  <entry producer="producer51" in="00:00:00.000" out="00:00:00.467">
   <property name="kdenlive:id">61</property>
  </entry>
  <entry producer="producer52" in="00:00:00.000" out="00:00:00.067">
   <property name="kdenlive:id">62</property>
  </entry>
  <entry producer="producer53" in="00:00:00.000" out="00:00:00.533">
   <property name="kdenlive:id">63</property>
  </entry>
  <entry producer="producer54" in="00:00:00.000" out="00:00:00.333">
   <property name="kdenlive:id">64</property>
  </entry>
  <entry producer="producer55" in="00:00:00.000" out="00:00:00.100">
   <property name="kdenlive:id">65</property>
  </entry>
  <entry producer="producer56" in="00:00:00.000" out="00:00:00.400">
   <property name="kdenlive:id">66</property>
  </entry>
  <entry producer="producer57" in="00:00:00.000" out="00:00:00.367">
   <property name="kdenlive:id">67</property>
  </entry>
  <entry producer="producer58" in="00:00:00.000" out="00:00:00.433">
   <property name="kdenlive:id">68</property>
  </entry>
  <entry producer="producer59" in="00:00:00.000" out="00:00:00.600">
   <property name="kdenlive:id">69</property>
  </entry>
  <entry producer="producer60" in="00:00:00.000" out="00:00:00.367">
   <property name="kdenlive:id">70</property>
  </entry>
  <entry producer="producer52" in="00:00:00.000" out="00:00:00.033">
   <property name="kdenlive:id">62</property>
  </entry>
  <entry producer="producer61" in="00:00:00.000" out="00:00:00.500">
   <property name="kdenlive:id">71</property>
   <property name="kdenlive:activeeffect">0</property>
   <filter id="filter76">
    <property name="rotate_center">1</property>
    <property name="mlt_service">qtblend</property>
    <property name="kdenlive_id">qtblend</property>
    <property name="rect">00:00:00.000=0 0 1920 1080 1.000000;00:00:00.333=0 0 1920 1080 1.000000;00:00:00.400=0 -31 1920 1080 1.000000;00:00:00.500=0 312 1920 1080 1.000000</property>
    <property name="rotation">00:00:00.000=0;00:00:00.333=0;00:00:00.400=0;00:00:00.500=0</property>
    <property name="compositing">0</property>
    <property name="distort">0</property>
    <property name="kdenlive:collapsed">0</property>
   </filter>
  </entry>
  <blank length="00:00:15.100"/>
  <entry producer="producer62" in="00:00:00.000" out="00:00:02.233">
   <property name="kdenlive:id">72</property>
   <property name="kdenlive:activeeffect">0</property>
   <filter id="filter77">
    <property name="rotate_center">1</property>
    <property name="mlt_service">qtblend</property>
    <property name="kdenlive_id">qtblend</property>
    <property name="rect">00:00:00.000=48 876 1824 1026 1.000000;00:00:00.200=48 -9 1824 1026 1.000000;00:00:00.300=48 27 1824 1026 1.000000;00:00:01.933=48 27 1824 1026 1.000000;00:00:02.033=48 -12 1824 1026 1.000000;00:00:02.233=48 867 1824 1026 1.000000</property>
    <property name="rotation">00:00:00.000=0;00:00:00.200=0;00:00:00.300=0;00:00:01.933=0;00:00:02.033=0;00:00:02.233=0</property>
    <property name="compositing">0</property>
    <property name="distort">0</property>
    <property name="kdenlive:collapsed">0</property>
   </filter>
  </entry>
  <blank length="00:01:03.833"/>
  <entry producer="producer80" in="00:18:56.133" out="00:19:05.333">
   <property name="kdenlive:id">2</property>
   <filter id="filter78" in="00:19:02.633" out="00:19:05.333">
    <property name="start">1</property>
    <property name="level">1</property>
    <property name="mlt_service">brightness</property>
    <property name="kdenlive_id">fade_to_black</property>
    <property name="alpha">00:00:00.000=1;00:00:02.700=0</property>
    <property name="kdenlive:collapsed">0</property>
   </filter>
  </entry>
 </playlist>
 <playlist id="playlist11"/>
 <tractor id="tractor5" in="00:00:00.000" out="00:11:52.400">
  <property name="kdenlive:trackheight">67</property>
  <property name="kdenlive:timeline_active">1</property>
  <property name="kdenlive:collapsed">0</property>
  <property name="kdenlive:thumbs_format"/>
  <property name="kdenlive:audio_rec"/>
  <track hide="audio" producer="playlist10"/>
  <track hide="audio" producer="playlist11"/>
 </tractor>
 <producer id="producer84" in="00:00:00.000" out="00:00:29.433">
  <property name="length">884</property>
  <property name="eof">pause</property>
  <property name="resource">assets/Free  Industrial Zone Factory Stock FOOTAGE [KO3VhTsDwDM].mp4</property>
  <property name="audio_index">1</property>
  <property name="video_index">0</property>
  <property name="mute_on_pause">0</property>
  <property name="mlt_service">avformat-novalidate</property>
  <property name="seekable">1</property>
  <property name="aspect_ratio">1</property>
  <property name="kdenlive:clipname"/>
  <property name="kdenlive:folderid">6</property>
  <property name="kdenlive:id">29</property>
  <property name="kdenlive:file_size">12290711</property>
  <property name="kdenlive:file_hash">bceb0831bf5921ec6d272de758a3697b</property>
  <property name="kdenlive:audio_max1">1</property>
  <property name="xml">was here</property>
  <property name="meta.media.nb_streams">2</property>
  <property name="meta.media.0.stream.type">video</property>
  <property name="meta.media.0.stream.frame_rate">25</property>
  <property name="meta.media.0.stream.sample_aspect_ratio">1</property>
  <property name="meta.media.0.codec.width">1920</property>
  <property name="meta.media.0.codec.height">1080</property>
  <property name="meta.media.0.codec.rotate">0</property>
  <property name="meta.media.0.codec.pix_fmt">yuv420p</property>
  <property name="meta.media.0.codec.sample_aspect_ratio">1</property>
  <property name="meta.media.0.codec.colorspace">601</property>
  <property name="meta.media.0.codec.color_trc">1</property>
  <property name="meta.media.0.codec.name">h264</property>
  <property name="meta.media.0.codec.long_name">H.264 / AVC / MPEG-4 AVC / MPEG-4 part 10</property>
  <property name="meta.media.0.codec.bit_rate">3209784</property>
  <property name="meta.attr.0.stream.handler_name.markup">ISO Media file produced by Google Inc.</property>
  <property name="meta.attr.0.stream.vendor_id.markup">[0][0][0][0]</property>
  <property name="meta.media.1.stream.type">audio</property>
  <property name="meta.media.1.codec.sample_fmt">fltp</property>
  <property name="meta.media.1.codec.sample_rate">44100</property>
  <property name="meta.media.1.codec.channels">2</property>
  <property name="meta.media.1.codec.name">aac</property>
  <property name="meta.media.1.codec.long_name">AAC (Advanced Audio Coding)</property>
  <property name="meta.media.1.codec.bit_rate">127999</property>
  <property name="meta.attr.1.stream.handler_name.markup">ISO Media file produced by Google Inc.</property>
  <property name="meta.attr.1.stream.vendor_id.markup">[0][0][0][0]</property>
  <property name="meta.attr.major_brand.markup">isom</property>
  <property name="meta.attr.minor_version.markup">512</property>
  <property name="meta.attr.compatible_brands.markup">isomiso2avc1mp41</property>
  <property name="meta.attr.encoder.markup">Lavf59.16.100</property>
  <property name="meta.media.sample_aspect_num">1</property>
  <property name="meta.media.sample_aspect_den">1</property>
  <property name="meta.media.frame_rate_num">25</property>
  <property name="meta.media.frame_rate_den">1</property>
  <property name="meta.media.colorspace">601</property>
  <property name="meta.media.color_trc">1</property>
  <property name="meta.media.has_b_frames">1</property>
  <property name="meta.media.width">1920</property>
  <property name="meta.media.height">1080</property>
  <property name="meta.media.color_range">mpeg</property>
  <property name="meta.media.top_field_first">0</property>
  <property name="meta.media.progressive">1</property>
  <property name="set.test_audio">1</property>
  <property name="set.test_image">0</property>
 </producer>
 <producer id="producer85" in="00:00:00.000" out="00:09:23.200">
  <property name="length">16897</property>
  <property name="eof">pause</property>
  <property name="resource">assets/station-eleven.webm</property>
  <property name="audio_index">1</property>
  <property name="video_index">0</property>
  <property name="mute_on_pause">0</property>
  <property name="mlt_service">avformat-novalidate</property>
  <property name="seekable">1</property>
  <property name="aspect_ratio">1</property>
  <property name="kdenlive:clipname"/>
  <property name="kdenlive:folderid">6</property>
  <property name="kdenlive:id">36</property>
  <property name="kdenlive:file_size">319976181</property>
  <property name="kdenlive:file_hash">5aa8fa0f6abc167fae68b7397563ffc7</property>
  <property name="kdenlive:audio_max1">1</property>
  <property name="kdenlive:active_streams">-1</property>
  <property name="xml">was here</property>
  <property name="meta.media.nb_streams">2</property>
  <property name="meta.media.0.stream.type">video</property>
  <property name="meta.media.0.stream.frame_rate">23.976</property>
  <property name="meta.media.0.stream.sample_aspect_ratio">1</property>
  <property name="meta.media.0.codec.width">1920</property>
  <property name="meta.media.0.codec.height">1080</property>
  <property name="meta.media.0.codec.rotate">0</property>
  <property name="meta.media.0.codec.pix_fmt">yuv420p</property>
  <property name="meta.media.0.codec.sample_aspect_ratio">0</property>
  <property name="meta.media.0.codec.colorspace">709</property>
  <property name="meta.media.0.codec.color_trc">1</property>
  <property name="meta.media.0.codec.name">vp8</property>
  <property name="meta.media.0.codec.long_name">On2 VP8</property>
  <property name="meta.media.0.codec.bit_rate">0</property>
  <property name="meta.attr.0.stream.DURATION.markup">00:09:23.233000000</property>
  <property name="meta.media.1.stream.type">audio</property>
  <property name="meta.media.1.codec.sample_fmt">fltp</property>
  <property name="meta.media.1.codec.sample_rate">48000</property>
  <property name="meta.media.1.codec.channels">2</property>
  <property name="meta.media.1.codec.name">vorbis</property>
  <property name="meta.media.1.codec.long_name">Vorbis</property>
  <property name="meta.media.1.codec.bit_rate">0</property>
  <property name="meta.attr.1.stream.DURATION.markup">00:09:23.172000000</property>
  <property name="meta.attr.ENCODER.markup">Lavf59.16.100</property>
  <property name="meta.media.sample_aspect_num">1</property>
  <property name="meta.media.sample_aspect_den">1</property>
  <property name="meta.media.frame_rate_num">24000</property>
  <property name="meta.media.frame_rate_den">1001</property>
  <property name="meta.media.colorspace">709</property>
  <property name="meta.media.color_trc">1</property>
  <property name="meta.media.has_b_frames">0</property>
  <property name="meta.media.width">1920</property>
  <property name="meta.media.height">1080</property>
  <property name="meta.media.color_range">mpeg</property>
  <property name="meta.media.top_field_first">0</property>
  <property name="meta.media.progressive">1</property>
  <property name="set.test_audio">1</property>
  <property name="set.test_image">0</property>
 </producer>
 <producer id="producer86" in="00:00:00.000" out="00:00:09.167">
  <property name="length">276</property>
  <property name="eof">pause</property>
  <property name="resource">assets/Man Walking In Grass Stock Video [REDrf65yg9s].mp4</property>
  <property name="audio_index">1</property>
  <property name="video_index">0</property>
  <property name="mute_on_pause">0</property>
  <property name="mlt_service">avformat-novalidate</property>
  <property name="seekable">1</property>
  <property name="aspect_ratio">1</property>
  <property name="kdenlive:clipname"/>
  <property name="kdenlive:folderid">6</property>
  <property name="kdenlive:id">38</property>
  <property name="kdenlive:file_size">3087908</property>
  <property name="kdenlive:file_hash">60372ea8947bcd9e324f9adc8b3fca3a</property>
  <property name="kdenlive:audio_max1">1</property>
  <property name="xml">was here</property>
  <property name="meta.media.nb_streams">2</property>
  <property name="meta.media.0.stream.type">video</property>
  <property name="meta.media.0.stream.frame_rate">29.97</property>
  <property name="meta.media.0.stream.sample_aspect_ratio">1</property>
  <property name="meta.media.0.codec.width">1280</property>
  <property name="meta.media.0.codec.height">720</property>
  <property name="meta.media.0.codec.rotate">0</property>
  <property name="meta.media.0.codec.pix_fmt">yuv420p</property>
  <property name="meta.media.0.codec.sample_aspect_ratio">1</property>
  <property name="meta.media.0.codec.colorspace">709</property>
  <property name="meta.media.0.codec.color_trc">1</property>
  <property name="meta.media.0.codec.name">h264</property>
  <property name="meta.media.0.codec.long_name">H.264 / AVC / MPEG-4 AVC / MPEG-4 part 10</property>
  <property name="meta.media.0.codec.bit_rate">2573300</property>
  <property name="meta.attr.0.stream.handler_name.markup">ISO Media file produced by Google Inc. Created on: 12/22/2018.</property>
  <property name="meta.attr.0.stream.vendor_id.markup">[0][0][0][0]</property>
  <property name="meta.media.1.stream.type">audio</property>
  <property name="meta.media.1.codec.sample_fmt">fltp</property>
  <property name="meta.media.1.codec.sample_rate">44100</property>
  <property name="meta.media.1.codec.channels">2</property>
  <property name="meta.media.1.codec.name">aac</property>
  <property name="meta.media.1.codec.long_name">AAC (Advanced Audio Coding)</property>
  <property name="meta.media.1.codec.bit_rate">127999</property>
  <property name="meta.attr.1.stream.handler_name.markup">ISO Media file produced by Google Inc. Created on: 12/22/2018.</property>
  <property name="meta.attr.1.stream.vendor_id.markup">[0][0][0][0]</property>
  <property name="meta.attr.major_brand.markup">isom</property>
  <property name="meta.attr.minor_version.markup">512</property>
  <property name="meta.attr.compatible_brands.markup">isomiso2avc1mp41</property>
  <property name="meta.attr.encoder.markup">Lavf59.16.100</property>
  <property name="meta.media.sample_aspect_num">1</property>
  <property name="meta.media.sample_aspect_den">1</property>
  <property name="meta.media.frame_rate_num">30000</property>
  <property name="meta.media.frame_rate_den">1001</property>
  <property name="meta.media.colorspace">709</property>
  <property name="meta.media.color_trc">1</property>
  <property name="meta.media.has_b_frames">1</property>
  <property name="meta.media.width">1280</property>
  <property name="meta.media.height">720</property>
  <property name="meta.media.color_range">mpeg</property>
  <property name="meta.media.top_field_first">0</property>
  <property name="meta.media.progressive">1</property>
  <property name="set.test_audio">1</property>
  <property name="set.test_image">0</property>
 </producer>
 <producer id="producer87" in="00:00:00.000" out="00:03:04.533">
  <property name="length">5537</property>
  <property name="eof">pause</property>
  <property name="resource">assets/Rare Nuclear Bomb Footage Reveals Their True Power _ WIRED [c6W2suGacjQ].mp4</property>
  <property name="audio_index">1</property>
  <property name="video_index">0</property>
  <property name="mute_on_pause">0</property>
  <property name="mlt_service">avformat-novalidate</property>
  <property name="seekable">1</property>
  <property name="aspect_ratio">1</property>
  <property name="kdenlive:clipname"/>
  <property name="kdenlive:folderid">6</property>
  <property name="kdenlive:id">47</property>
  <property name="kdenlive:file_size">39777542</property>
  <property name="kdenlive:file_hash">3375376da01e3a0067c2fb3640c690e7</property>
  <property name="kdenlive:audio_max1">219</property>
  <property name="kdenlive:active_streams">-1</property>
  <property name="xml">was here</property>
  <property name="meta.media.nb_streams">2</property>
  <property name="meta.media.0.stream.type">video</property>
  <property name="meta.media.0.stream.frame_rate">23.976</property>
  <property name="meta.media.0.stream.sample_aspect_ratio">1</property>
  <property name="meta.media.0.codec.width">1920</property>
  <property name="meta.media.0.codec.height">1080</property>
  <property name="meta.media.0.codec.rotate">0</property>
  <property name="meta.media.0.codec.pix_fmt">yuv420p</property>
  <property name="meta.media.0.codec.sample_aspect_ratio">1</property>
  <property name="meta.media.0.codec.colorspace">709</property>
  <property name="meta.media.0.codec.color_trc">1</property>
  <property name="meta.media.0.codec.name">h264</property>
  <property name="meta.media.0.codec.long_name">H.264 / AVC / MPEG-4 AVC / MPEG-4 part 10</property>
  <property name="meta.media.0.codec.bit_rate">1591774</property>
  <property name="meta.attr.0.stream.handler_name.markup">ISO Media file produced by Google Inc.</property>
  <property name="meta.attr.0.stream.vendor_id.markup">[0][0][0][0]</property>
  <property name="meta.media.1.stream.type">audio</property>
  <property name="meta.media.1.codec.sample_fmt">fltp</property>
  <property name="meta.media.1.codec.sample_rate">44100</property>
  <property name="meta.media.1.codec.channels">2</property>
  <property name="meta.media.1.codec.name">aac</property>
  <property name="meta.media.1.codec.long_name">AAC (Advanced Audio Coding)</property>
  <property name="meta.media.1.codec.bit_rate">127999</property>
  <property name="meta.attr.1.stream.handler_name.markup">ISO Media file produced by Google Inc.</property>
  <property name="meta.attr.1.stream.vendor_id.markup">[0][0][0][0]</property>
  <property name="meta.attr.major_brand.markup">isom</property>
  <property name="meta.attr.minor_version.markup">512</property>
  <property name="meta.attr.compatible_brands.markup">isomiso2avc1mp41</property>
  <property name="meta.attr.encoder.markup">Lavf59.16.100</property>
  <property name="meta.media.sample_aspect_num">1</property>
  <property name="meta.media.sample_aspect_den">1</property>
  <property name="meta.media.frame_rate_num">24000</property>
  <property name="meta.media.frame_rate_den">1001</property>
  <property name="meta.media.colorspace">709</property>
  <property name="meta.media.color_trc">1</property>
  <property name="meta.media.has_b_frames">1</property>
  <property name="meta.media.width">1920</property>
  <property name="meta.media.height">1080</property>
  <property name="meta.media.color_range">mpeg</property>
  <property name="meta.media.top_field_first">0</property>
  <property name="meta.media.progressive">1</property>
  <property name="set.test_audio">1</property>
  <property name="set.test_image">0</property>
 </producer>
 <playlist id="playlist12">
  <blank length="00:00:33.467"/>
  <entry producer="producer84" in="00:00:00.267" out="00:00:06.167">
   <property name="kdenlive:id">29</property>
  </entry>
  <blank length="00:02:52.433"/>
  <entry producer="producer85" in="00:00:14.833" out="00:00:29.667">
   <property name="kdenlive:id">36</property>
   <filter id="filter79">
    <property name="rotate_center">1</property>
    <property name="mlt_service">qtblend</property>
    <property name="kdenlive_id">qtblend</property>
    <property name="rect">00:00:14.833=-143 -80 2206 1241 1.000000;00:00:29.667=-143 -80 2206 1241 1.000000</property>
    <property name="rotation">00:00:14.833=0;00:00:29.667=0</property>
    <property name="compositing">0</property>
    <property name="distort">0</property>
    <property name="kdenlive:collapsed">0</property>
   </filter>
  </entry>
  <blank length="00:00:01.600"/>
  <entry producer="producer85" in="00:04:11.700" out="00:04:17.800">
   <property name="kdenlive:id">36</property>
   <filter id="filter80">
    <property name="rotate_center">1</property>
    <property name="mlt_service">qtblend</property>
    <property name="kdenlive_id">qtblend</property>
    <property name="rect">00:04:11.700=-143 -80 2206 1241 1.000000</property>
    <property name="rotation">00:04:11.700=0</property>
    <property name="compositing">0</property>
    <property name="distort">0</property>
    <property name="kdenlive:collapsed">0</property>
   </filter>
  </entry>
  <blank length="00:00:02.167"/>
  <entry producer="producer85" in="00:03:20.700" out="00:03:23.667">
   <property name="kdenlive:id">36</property>
   <filter id="filter81">
    <property name="rotate_center">1</property>
    <property name="mlt_service">qtblend</property>
    <property name="kdenlive_id">qtblend</property>
    <property name="rect">00:03:20.700=-143 -80 2206 1241 1.000000</property>
    <property name="rotation">00:03:20.700=0</property>
    <property name="compositing">0</property>
    <property name="distort">0</property>
    <property name="kdenlive:collapsed">0</property>
   </filter>
  </entry>
  <blank length="00:00:01.400"/>
  <entry producer="producer85" in="00:01:53.733" out="00:01:56.467">
   <property name="kdenlive:id">36</property>
   <filter id="filter82">
    <property name="rotate_center">1</property>
    <property name="mlt_service">qtblend</property>
    <property name="kdenlive_id">qtblend</property>
    <property name="rect">00:01:53.733=-143 -80 2206 1241 1.000000;00:01:56.467=-143 -80 2206 1241 1.000000</property>
    <property name="rotation">00:01:53.733=0;00:01:56.467=0</property>
    <property name="compositing">0</property>
    <property name="distort">0</property>
    <property name="kdenlive:collapsed">0</property>
   </filter>
  </entry>
  <blank length="00:00:02.233"/>
  <entry producer="producer85" in="00:06:19.333" out="00:06:26.567">
   <property name="kdenlive:id">36</property>
   <filter id="filter83">
    <property name="rotate_center">1</property>
    <property name="mlt_service">qtblend</property>
    <property name="kdenlive_id">qtblend</property>
    <property name="rect">00:06:19.333=-143 -80 2206 1241 1.000000</property>
    <property name="rotation">00:06:19.333=0</property>
    <property name="compositing">0</property>
    <property name="distort">0</property>
    <property name="kdenlive:collapsed">0</property>
   </filter>
  </entry>
  <blank length="00:00:51.033"/>
  <entry producer="producer86" in="00:00:00.000" out="00:00:05.267">
   <property name="kdenlive:id">38</property>
  </entry>
  <blank length="00:03:34.600"/>
  <entry producer="producer87" in="00:00:00.000" out="00:00:01.733">
   <property name="kdenlive:id">47</property>
  </entry>
 </playlist>
 <playlist id="playlist13"/>
 <tractor id="tractor6" in="00:00:00.000" out="00:08:45.933">
  <property name="kdenlive:trackheight">67</property>
  <property name="kdenlive:timeline_active">1</property>
  <property name="kdenlive:collapsed">0</property>
  <property name="kdenlive:thumbs_format"/>
  <property name="kdenlive:audio_rec"/>
  <track hide="audio" producer="playlist12"/>
  <track hide="audio" producer="playlist13"/>
 </tractor>
 <playlist id="playlist14"/>
 <playlist id="playlist15"/>
 <tractor id="tractor7" in="00:00:00.000">
  <property name="kdenlive:trackheight">67</property>
  <property name="kdenlive:timeline_active">1</property>
  <track producer="playlist14"/>
  <track producer="playlist15"/>
 </tractor>
 <playlist id="playlist16"/>
 <playlist id="playlist17"/>
 <tractor id="tractor8" in="00:00:00.000">
  <property name="kdenlive:trackheight">67</property>
  <property name="kdenlive:timeline_active">1</property>
  <track producer="playlist16"/>
  <track producer="playlist17"/>
 </tractor>
 <tractor id="tractor9" in="00:00:00.000" out="00:28:38.200">
  <track producer="black_track"/>
  <track producer="tractor0"/>
  <track producer="tractor1"/>
  <track producer="tractor2"/>
  <track producer="tractor3"/>
  <track producer="tractor4"/>
  <track producer="tractor5"/>
  <track producer="tractor6"/>
  <track producer="tractor7"/>
  <track producer="tractor8"/>
  <transition id="transition0">
   <property name="a_track">0</property>
   <property name="b_track">1</property>
   <property name="mlt_service">mix</property>
   <property name="kdenlive_id">mix</property>
   <property name="internal_added">237</property>
   <property name="always_active">1</property>
   <property name="accepts_blanks">1</property>
   <property name="sum">1</property>
  </transition>
  <transition id="transition1">
   <property name="a_track">0</property>
   <property name="b_track">2</property>
   <property name="mlt_service">mix</property>
   <property name="kdenlive_id">mix</property>
   <property name="internal_added">237</property>
   <property name="always_active">1</property>
   <property name="accepts_blanks">1</property>
   <property name="sum">1</property>
  </transition>
  <transition id="transition2">
   <property name="a_track">0</property>
   <property name="b_track">3</property>
   <property name="mlt_service">mix</property>
   <property name="kdenlive_id">mix</property>
   <property name="internal_added">237</property>
   <property name="always_active">1</property>
   <property name="accepts_blanks">1</property>
   <property name="sum">1</property>
  </transition>
  <transition id="transition3">
   <property name="a_track">0</property>
   <property name="b_track">4</property>
   <property name="mlt_service">mix</property>
   <property name="kdenlive_id">mix</property>
   <property name="internal_added">237</property>
   <property name="always_active">1</property>
   <property name="accepts_blanks">1</property>
   <property name="sum">1</property>
  </transition>
  <transition id="transition4" in="00:05:09.133" out="00:05:09.567">
   <property name="a_track">6</property>
   <property name="b_track">7</property>
   <property name="geometry">00:00:00.000=0% 0% 100% 100% 100%;00:00:00.433=0% 0% 100% 100% 0%</property>
   <property name="factory">loader</property>
   <property name="aligned">0</property>
   <property name="progressive">1</property>
   <property name="mlt_service">composite</property>
   <property name="kdenlive_id">wipe</property>
   <property name="luma"/>
   <property name="softness">0</property>
   <property name="luma_invert">0</property>
   <property name="fill">1</property>
  </transition>
  <transition id="transition5" in="00:05:04.300" out="00:05:04.733">
   <property name="a_track">6</property>
   <property name="b_track">7</property>
   <property name="geometry">00:00:00.000=0% 0% 100% 100% 0%;00:00:00.433=0% 0% 100% 100% 100%</property>
   <property name="factory">loader</property>
   <property name="aligned">0</property>
   <property name="progressive">1</property>
   <property name="mlt_service">composite</property>
   <property name="kdenlive_id">wipe</property>
   <property name="luma"/>
   <property name="softness">0</property>
   <property name="luma_invert">0</property>
   <property name="fill">1</property>
  </transition>
  <transition id="transition6" in="00:03:59.100" out="00:03:59.567">
   <property name="a_track">6</property>
   <property name="b_track">7</property>
   <property name="geometry">00:00:00.000=0% 0% 100% 100% 100%;00:00:00.467=0% 0% 100% 100% 0%</property>
   <property name="factory">loader</property>
   <property name="aligned">0</property>
   <property name="progressive">1</property>
   <property name="mlt_service">composite</property>
   <property name="kdenlive_id">wipe</property>
   <property name="luma"/>
   <property name="softness">0</property>
   <property name="luma_invert">0</property>
   <property name="fill">1</property>
  </transition>
  <transition id="transition7" in="00:08:44.200" out="00:08:44.567">
   <property name="a_track">6</property>
   <property name="b_track">7</property>
   <property name="geometry">00:00:00.000=0% 0% 100% 100% 0%;00:00:00.367=0% 0% 100% 100% 100%</property>
   <property name="factory">loader</property>
   <property name="aligned">0</property>
   <property name="progressive">1</property>
   <property name="mlt_service">composite</property>
   <property name="kdenlive_id">wipe</property>
   <property name="luma"/>
   <property name="softness">0</property>
   <property name="luma_invert">0</property>
   <property name="fill">1</property>
  </transition>
  <transition id="transition8" in="00:08:45.633" out="00:08:45.933">
   <property name="a_track">6</property>
   <property name="b_track">7</property>
   <property name="geometry">00:00:00.000=0% 0% 100% 100% 100%;00:00:00.300=0% 0% 100% 100% 0%</property>
   <property name="factory">loader</property>
   <property name="aligned">0</property>
   <property name="progressive">1</property>
   <property name="mlt_service">composite</property>
   <property name="kdenlive_id">wipe</property>
   <property name="luma"/>
   <property name="softness">0</property>
   <property name="luma_invert">0</property>
   <property name="fill">1</property>
  </transition>
  <transition id="transition9" in="00:00:38.900" out="00:00:39.367">
   <property name="a_track">6</property>
   <property name="b_track">7</property>
   <property name="geometry">00:00:00.000=0% 0% 100% 100% 100%;00:00:00.467=0% 0% 100% 100% 0%</property>
   <property name="factory">loader</property>
   <property name="aligned">0</property>
   <property name="progressive">1</property>
   <property name="mlt_service">composite</property>
   <property name="kdenlive_id">wipe</property>
   <property name="luma"/>
   <property name="softness">0</property>
   <property name="luma_invert">0</property>
   <property name="fill">1</property>
  </transition>
  <transition id="transition10" in="00:04:12.833" out="00:04:13.233">
   <property name="a_track">6</property>
   <property name="b_track">7</property>
   <property name="geometry">00:00:00.000=0% 0% 100% 100% 100%;00:00:00.400=0% 0% 100% 100% 0%</property>
   <property name="factory">loader</property>
   <property name="aligned">0</property>
   <property name="progressive">1</property>
   <property name="mlt_service">composite</property>
   <property name="kdenlive_id">wipe</property>
   <property name="luma"/>
   <property name="softness">0</property>
   <property name="luma_invert">0</property>
   <property name="fill">1</property>
  </transition>
  <transition id="transition11" in="00:03:45.967" out="00:03:46.667">
   <property name="a_track">6</property>
   <property name="b_track">7</property>
   <property name="geometry">00:00:00.000=0% 0% 100% 100% 100%;00:00:00.700=0% 0% 100% 100% 0%</property>
   <property name="factory">loader</property>
   <property name="aligned">0</property>
   <property name="progressive">1</property>
   <property name="mlt_service">composite</property>
   <property name="kdenlive_id">wipe</property>
   <property name="luma"/>
   <property name="softness">0</property>
   <property name="luma_invert">0</property>
   <property name="fill">1</property>
  </transition>
  <transition id="transition12" in="00:03:31.833" out="00:03:32.267">
   <property name="a_track">6</property>
   <property name="b_track">7</property>
   <property name="geometry">00:00:00.000=0% 0% 100% 100% 0%;00:00:00.433=0% 0% 100% 100% 100%</property>
   <property name="factory">loader</property>
   <property name="aligned">0</property>
   <property name="progressive">1</property>
   <property name="mlt_service">composite</property>
   <property name="kdenlive_id">wipe</property>
   <property name="luma"/>
   <property name="softness">0</property>
   <property name="luma_invert">0</property>
   <property name="fill">1</property>
  </transition>
  <transition id="transition13" in="00:04:01.000" out="00:04:01.367">
   <property name="a_track">6</property>
   <property name="b_track">7</property>
   <property name="geometry">00:00:00.000=0% 0% 100% 100% 0%;00:00:00.367=0% 0% 100% 100% 100%</property>
   <property name="factory">loader</property>
   <property name="aligned">0</property>
   <property name="progressive">1</property>
   <property name="mlt_service">composite</property>
   <property name="kdenlive_id">wipe</property>
   <property name="luma"/>
   <property name="softness">0</property>
   <property name="luma_invert">0</property>
   <property name="fill">1</property>
  </transition>
  <transition id="transition14" in="00:03:48.300" out="00:03:48.733">
   <property name="a_track">6</property>
   <property name="b_track">7</property>
   <property name="geometry">00:00:00.000=0% 0% 100% 100% 0%;00:00:00.433=0% 0% 100% 100% 100%</property>
   <property name="factory">loader</property>
   <property name="aligned">0</property>
   <property name="progressive">1</property>
   <property name="mlt_service">composite</property>
   <property name="kdenlive_id">wipe</property>
   <property name="luma"/>
   <property name="softness">0</property>
   <property name="luma_invert">0</property>
   <property name="fill">1</property>
  </transition>
  <transition id="transition15" in="00:04:06.000" out="00:04:06.333">
   <property name="a_track">6</property>
   <property name="b_track">7</property>
   <property name="geometry">00:00:00.000=0% 0% 100% 100% 0%;00:00:00.333=0% 0% 100% 100% 100%</property>
   <property name="factory">loader</property>
   <property name="aligned">0</property>
   <property name="progressive">1</property>
   <property name="mlt_service">composite</property>
   <property name="kdenlive_id">wipe</property>
   <property name="luma"/>
   <property name="softness">0</property>
   <property name="luma_invert">0</property>
   <property name="fill">1</property>
  </transition>
  <transition id="transition16" in="00:03:56.600" out="00:03:57.000">
   <property name="a_track">6</property>
   <property name="b_track">7</property>
   <property name="geometry">00:00:00.000=0% 0% 100% 100% 0%;00:00:00.400=0% 0% 100% 100% 100%</property>
   <property name="factory">loader</property>
   <property name="aligned">0</property>
   <property name="progressive">1</property>
   <property name="mlt_service">composite</property>
   <property name="kdenlive_id">wipe</property>
   <property name="luma"/>
   <property name="softness">0</property>
   <property name="luma_invert">0</property>
   <property name="fill">1</property>
  </transition>
  <transition id="transition17" in="00:04:03.433" out="00:04:03.733">
   <property name="a_track">6</property>
   <property name="b_track">7</property>
   <property name="geometry">00:00:00.000=0% 0% 100% 100% 100%;00:00:00.300=0% 0% 100% 100% 0%</property>
   <property name="factory">loader</property>
   <property name="aligned">0</property>
   <property name="progressive">1</property>
   <property name="mlt_service">composite</property>
   <property name="kdenlive_id">wipe</property>
   <property name="luma"/>
   <property name="softness">0</property>
   <property name="luma_invert">0</property>
   <property name="fill">1</property>
  </transition>
  <transition id="transition18" in="00:03:53.933" out="00:03:54.400">
   <property name="a_track">6</property>
   <property name="b_track">7</property>
   <property name="geometry">00:00:00.000=0% 0% 100% 100% 100%;00:00:00.467=0% 0% 100% 100% 0%</property>
   <property name="factory">loader</property>
   <property name="aligned">0</property>
   <property name="progressive">1</property>
   <property name="mlt_service">composite</property>
   <property name="kdenlive_id">wipe</property>
   <property name="luma"/>
   <property name="softness">0</property>
   <property name="luma_invert">0</property>
   <property name="fill">1</property>
  </transition>
  <transition id="transition19" in="00:00:33.467" out="00:00:33.800">
   <property name="a_track">6</property>
   <property name="b_track">7</property>
   <property name="geometry">00:00:00.000=0% 0% 100% 100% 0%;00:00:00.333=0% 0% 100% 100% 100%</property>
   <property name="factory">loader</property>
   <property name="aligned">0</property>
   <property name="progressive">1</property>
   <property name="mlt_service">composite</property>
   <property name="kdenlive_id">wipe</property>
   <property name="luma"/>
   <property name="softness">0</property>
   <property name="luma_invert">0</property>
   <property name="fill">1</property>
  </transition>
  <transition id="transition20" in="00:00:13.400" out="00:00:13.867">
   <property name="a_track">5</property>
   <property name="b_track">6</property>
   <property name="geometry">00:00:00.000=0% 0% 100% 100% 100%;00:00:00.467=0% 0% 100% 100% 0%</property>
   <property name="factory">loader</property>
   <property name="aligned">0</property>
   <property name="progressive">1</property>
   <property name="mlt_service">composite</property>
   <property name="kdenlive_id">wipe</property>
   <property name="luma"/>
   <property name="softness">0</property>
   <property name="luma_invert">0</property>
   <property name="fill">1</property>
  </transition>
  <transition id="transition21" in="00:10:08.533" out="00:10:08.867">
   <property name="a_track">5</property>
   <property name="b_track">6</property>
   <property name="geometry">00:00:00.000=0% 0% 100% 100% 100%;00:00:00.333=0% 0% 100% 100% 0%</property>
   <property name="factory">loader</property>
   <property name="aligned">0</property>
   <property name="progressive">1</property>
   <property name="mlt_service">composite</property>
   <property name="kdenlive_id">wipe</property>
   <property name="luma"/>
   <property name="softness">0</property>
   <property name="luma_invert">0</property>
   <property name="fill">1</property>
  </transition>
  <transition id="transition22" in="00:03:28.533" out="00:03:28.900">
   <property name="a_track">5</property>
   <property name="b_track">6</property>
   <property name="geometry">00:00:00.000=0% 0% 100% 100% 0%;00:00:00.367=0% 0% 100% 100% 100%</property>
   <property name="factory">loader</property>
   <property name="aligned">0</property>
   <property name="progressive">1</property>
   <property name="mlt_service">composite</property>
   <property name="kdenlive_id">wipe</property>
   <property name="luma"/>
   <property name="softness">0</property>
   <property name="luma_invert">0</property>
   <property name="fill">1</property>
  </transition>
  <transition id="transition23" in="00:03:14.700" out="00:03:15.100">
   <property name="a_track">5</property>
   <property name="b_track">6</property>
   <property name="geometry">00:00:00.000=0% 0% 100% 100% 100%;00:00:00.400=0% 0% 100% 100% 0%</property>
   <property name="factory">loader</property>
   <property name="aligned">0</property>
   <property name="progressive">1</property>
   <property name="mlt_service">composite</property>
   <property name="kdenlive_id">wipe</property>
   <property name="luma"/>
   <property name="softness">0</property>
   <property name="luma_invert">0</property>
   <property name="fill">1</property>
  </transition>
  <transition id="transition24" in="00:04:55.333" out="00:04:55.833">
   <property name="a_track">5</property>
   <property name="b_track">6</property>
   <property name="geometry">00:00:00.000=0% 0% 100% 100% 0%;00:00:00.500=0% 0% 100% 100% 100%</property>
   <property name="factory">loader</property>
   <property name="aligned">0</property>
   <property name="progressive">1</property>
   <property name="mlt_service">composite</property>
   <property name="kdenlive_id">wipe</property>
   <property name="luma"/>
   <property name="softness">0</property>
   <property name="luma_invert">0</property>
   <property name="fill">1</property>
  </transition>
  <transition id="transition25" in="00:00:06.467" out="00:00:06.833">
   <property name="a_track">5</property>
   <property name="b_track">6</property>
   <property name="geometry">00:00:00.000=0% 0% 100% 100% 0%;00:00:00.367=0% 0% 100% 100% 100%</property>
   <property name="factory">loader</property>
   <property name="aligned">0</property>
   <property name="progressive">1</property>
   <property name="mlt_service">composite</property>
   <property name="kdenlive_id">wipe</property>
   <property name="luma"/>
   <property name="softness">0</property>
   <property name="luma_invert">0</property>
   <property name="fill">1</property>
  </transition>
  <transition id="transition26" in="00:01:59.000" out="00:01:59.467">
   <property name="a_track">5</property>
   <property name="b_track">6</property>
   <property name="geometry">00:00:00.000=0% 0% 100% 100% 0%;00:00:00.467=0% 0% 100% 100% 100%</property>
   <property name="factory">loader</property>
   <property name="aligned">0</property>
   <property name="progressive">1</property>
   <property name="mlt_service">composite</property>
   <property name="kdenlive_id">wipe</property>
   <property name="luma"/>
   <property name="softness">0</property>
   <property name="luma_invert">0</property>
   <property name="fill">1</property>
  </transition>
  <transition id="transition27" in="00:00:29.500" out="00:00:29.867">
   <property name="a_track">5</property>
   <property name="b_track">6</property>
   <property name="geometry">00:00:00.000=0% 0% 100% 100% 0%;00:00:00.367=0% 0% 100% 100% 100%</property>
   <property name="factory">loader</property>
   <property name="aligned">0</property>
   <property name="progressive">1</property>
   <property name="mlt_service">composite</property>
   <property name="kdenlive_id">wipe</property>
   <property name="luma"/>
   <property name="softness">0</property>
   <property name="luma_invert">0</property>
   <property name="fill">1</property>
  </transition>
  <transition id="transition28" in="00:01:01.667" out="00:01:01.967">
   <property name="a_track">5</property>
   <property name="b_track">6</property>
   <property name="geometry">00:00:00.000=0% 0% 100% 100% 0%;00:00:00.300=0% 0% 100% 100% 100%</property>
   <property name="factory">loader</property>
   <property name="aligned">0</property>
   <property name="progressive">1</property>
   <property name="mlt_service">composite</property>
   <property name="kdenlive_id">wipe</property>
   <property name="luma"/>
   <property name="softness">0</property>
   <property name="luma_invert">0</property>
   <property name="fill">1</property>
  </transition>
  <transition id="transition29" in="00:01:11.400" out="00:01:11.633">
   <property name="a_track">5</property>
   <property name="b_track">6</property>
   <property name="geometry">00:00:00.000=0% 0% 100% 100% 100%;00:00:00.233=0% 0% 100% 100% 0%</property>
   <property name="factory">loader</property>
   <property name="aligned">0</property>
   <property name="progressive">1</property>
   <property name="mlt_service">composite</property>
   <property name="kdenlive_id">wipe</property>
   <property name="luma"/>
   <property name="softness">0</property>
   <property name="luma_invert">0</property>
   <property name="fill">1</property>
  </transition>
  <transition id="transition30" in="00:10:02.367" out="00:10:02.800">
   <property name="a_track">5</property>
   <property name="b_track">6</property>
   <property name="geometry">00:00:00.000=0% 0% 100% 100% 0%;00:00:00.433=0% 0% 100% 100% 100%</property>
   <property name="factory">loader</property>
   <property name="aligned">0</property>
   <property name="progressive">1</property>
   <property name="mlt_service">composite</property>
   <property name="kdenlive_id">wipe</property>
   <property name="luma"/>
   <property name="softness">0</property>
   <property name="luma_invert">0</property>
   <property name="fill">1</property>
  </transition>
  <transition id="transition31" in="00:08:41.367" out="00:08:41.967">
   <property name="a_track">5</property>
   <property name="b_track">6</property>
   <property name="geometry">00:00:00.000=0% 0% 100% 100% 0%;00:00:00.600=0% 0% 100% 100% 100%</property>
   <property name="factory">loader</property>
   <property name="aligned">0</property>
   <property name="progressive">1</property>
   <property name="mlt_service">composite</property>
   <property name="kdenlive_id">wipe</property>
   <property name="luma"/>
   <property name="softness">0</property>
   <property name="luma_invert">0</property>
   <property name="fill">1</property>
  </transition>
  <transition id="transition32" in="00:03:07.233" out="00:03:07.633">
   <property name="a_track">5</property>
   <property name="b_track">6</property>
   <property name="geometry">00:00:00.000=0% 0% 100% 100% 0%;00:00:00.400=0% 0% 100% 100% 100%</property>
   <property name="factory">loader</property>
   <property name="aligned">0</property>
   <property name="progressive">1</property>
   <property name="mlt_service">composite</property>
   <property name="kdenlive_id">wipe</property>
   <property name="luma"/>
   <property name="softness">0</property>
   <property name="luma_invert">0</property>
   <property name="fill">1</property>
  </transition>
  <transition id="transition33" in="00:02:15.267" out="00:02:15.700">
   <property name="a_track">5</property>
   <property name="b_track">6</property>
   <property name="geometry">00:00:00.000=0% 0% 100% 100% 100%;00:00:00.433=0% 0% 100% 100% 0%</property>
   <property name="factory">loader</property>
   <property name="aligned">0</property>
   <property name="progressive">1</property>
   <property name="mlt_service">composite</property>
   <property name="kdenlive_id">wipe</property>
   <property name="luma"/>
   <property name="softness">0</property>
   <property name="luma_invert">0</property>
   <property name="fill">1</property>
  </transition>
  <transition id="transition34" in="00:01:23.733" out="00:01:24.133">
   <property name="a_track">5</property>
   <property name="b_track">6</property>
   <property name="geometry">00:00:00.000=0% 0% 100% 100% 0%;00:00:00.400=0% 0% 100% 100% 100%</property>
   <property name="factory">loader</property>
   <property name="aligned">0</property>
   <property name="progressive">1</property>
   <property name="mlt_service">composite</property>
   <property name="kdenlive_id">wipe</property>
   <property name="luma"/>
   <property name="softness">0</property>
   <property name="luma_invert">0</property>
   <property name="fill">1</property>
  </transition>
  <transition id="transition35" in="00:01:28.067" out="00:01:28.433">
   <property name="a_track">5</property>
   <property name="b_track">6</property>
   <property name="geometry">00:00:00.000=0% 0% 100% 100% 100%;00:00:00.367=0% 0% 100% 100% 0%</property>
   <property name="factory">loader</property>
   <property name="aligned">0</property>
   <property name="progressive">1</property>
   <property name="mlt_service">composite</property>
   <property name="kdenlive_id">wipe</property>
   <property name="luma"/>
   <property name="softness">0</property>
   <property name="luma_invert">0</property>
   <property name="fill">1</property>
  </transition>
  <transition id="transition36">
   <property name="a_track">0</property>
   <property name="b_track">5</property>
   <property name="version">0.1</property>
   <property name="mlt_service">frei0r.cairoblend</property>
   <property name="kdenlive_id">frei0r.cairoblend</property>
   <property name="internal_added">237</property>
   <property name="always_active">1</property>
  </transition>
  <transition id="transition37">
   <property name="a_track">0</property>
   <property name="b_track">6</property>
   <property name="version">0.1</property>
   <property name="mlt_service">frei0r.cairoblend</property>
   <property name="kdenlive_id">frei0r.cairoblend</property>
   <property name="internal_added">237</property>
   <property name="always_active">1</property>
  </transition>
  <transition id="transition38">
   <property name="a_track">0</property>
   <property name="b_track">7</property>
   <property name="version">0.1</property>
   <property name="mlt_service">frei0r.cairoblend</property>
   <property name="kdenlive_id">frei0r.cairoblend</property>
   <property name="internal_added">237</property>
   <property name="always_active">1</property>
  </transition>
  <transition id="transition39">
   <property name="a_track">0</property>
   <property name="b_track">8</property>
   <property name="version">0.1</property>
   <property name="mlt_service">frei0r.cairoblend</property>
   <property name="kdenlive_id">frei0r.cairoblend</property>
   <property name="internal_added">237</property>
   <property name="always_active">1</property>
  </transition>
  <transition id="transition40">
   <property name="a_track">0</property>
   <property name="b_track">9</property>
   <property name="version">0.1</property>
   <property name="mlt_service">frei0r.cairoblend</property>
   <property name="kdenlive_id">frei0r.cairoblend</property>
   <property name="internal_added">237</property>
   <property name="always_active">1</property>
  </transition>
  <filter id="filter84">
   <property name="window">75</property>
   <property name="max_gain">20dB</property>
   <property name="mlt_service">volume</property>
   <property name="internal_added">237</property>
   <property name="disable">1</property>
  </filter>
  <filter id="filter85">
   <property name="channel">-1</property>
   <property name="mlt_service">panner</property>
   <property name="internal_added">237</property>
   <property name="start">0.5</property>
   <property name="disable">1</property>
  </filter>
  <filter id="filter86">
   <property name="iec_scale">0</property>
   <property name="mlt_service">audiolevel</property>
   <property name="disable">1</property>
  </filter>
 </tractor>
</mlt>
