<?xml version='1.0' encoding='utf-8'?>
<mlt LC_NUMERIC="C" producer="main_bin" version="7.14.0" root="/home/liquidzulu/Documents/youtube-scripts/scripts/essays/ai-art">
 <profile frame_rate_num="25" sample_aspect_num="1" display_aspect_den="9" colorspace="709" progressive="1" description="HD 1080p 25 fps" display_aspect_num="16" frame_rate_den="1" width="1920" height="1080" sample_aspect_den="1"/>
 <chain id="chain1" out="00:30:00.000">
  <property name="length">45001</property>
  <property name="eof">pause</property>
  <property name="resource">/home/liquidzulu/Music/Castle Theme - Super Mario World Music Extended [FPurNn9rQoA].mp3</property>
  <property name="mlt_service">avformat</property>
  <property name="meta.media.nb_streams">1</property>
  <property name="meta.media.0.stream.type">audio</property>
  <property name="meta.media.0.codec.sample_fmt">fltp</property>
  <property name="meta.media.0.codec.sample_rate">48000</property>
  <property name="meta.media.0.codec.channels">2</property>
  <property name="meta.media.0.codec.name">mp3float</property>
  <property name="meta.media.0.codec.long_name">MP3 (MPEG audio layer 3)</property>
  <property name="meta.media.0.codec.bit_rate">141099</property>
  <property name="meta.attr.0.stream.encoder.markup">Lavc59.37</property>
  <property name="meta.attr.encoder.markup">Lavf59.27.100</property>
  <property name="seekable">1</property>
  <property name="audio_index">0</property>
  <property name="video_index">-1</property>
  <property name="kdenlive:clipname"/>
  <property name="kdenlive:clip_type">1</property>
  <property name="kdenlive:folderid">5</property>
  <property name="kdenlive:id">4</property>
  <property name="kdenlive:file_size">31748061</property>
  <property name="kdenlive:file_hash">65fb7a5a491ef8ed7960ffb71409dbca</property>
  <property name="kdenlive:audio_max0">247</property>
  <property name="mute_on_pause">1</property>
 </chain>
 <chain id="chain11" out="02:18:58.840">
  <property name="length">208472</property>
  <property name="eof">pause</property>
  <property name="resource">b-roll/AI ART ftï¼š Istebrak, Steven Zapata, Hardy Fowler, Kelsey Rodriguez, Tyler Edlin &amp; Antonio Stappaerts [5JaS7APpO8U].webm</property>
  <property name="mlt_service">avformat-novalidate</property>
  <property name="meta.media.nb_streams">2</property>
  <property name="meta.media.0.stream.type">video</property>
  <property name="meta.media.0.stream.frame_rate">25</property>
  <property name="meta.media.0.stream.sample_aspect_ratio">1</property>
  <property name="meta.media.0.codec.width">1920</property>
  <property name="meta.media.0.codec.height">1080</property>
  <property name="meta.media.0.codec.rotate">0</property>
  <property name="meta.media.0.codec.pix_fmt">yuv420p</property>
  <property name="meta.media.0.codec.sample_aspect_ratio">0</property>
  <property name="meta.media.0.codec.colorspace">709</property>
  <property name="meta.media.0.codec.color_trc">1</property>
  <property name="meta.media.0.codec.name">vp9</property>
  <property name="meta.media.0.codec.long_name">Google VP9</property>
  <property name="meta.media.0.codec.bit_rate">0</property>
  <property name="meta.attr.0.stream.HANDLER_NAME.markup">ISO Media file produced by Google Inc. Created on: 12/09/2023.</property>
  <property name="meta.attr.0.stream.VENDOR_ID.markup">[0][0][0][0]</property>
  <property name="meta.attr.0.stream.DURATION.markup">02:18:58.840000000</property>
  <property name="meta.media.1.stream.type">audio</property>
  <property name="meta.media.1.codec.sample_fmt">fltp</property>
  <property name="meta.media.1.codec.sample_rate">48000</property>
  <property name="meta.media.1.codec.channels">2</property>
  <property name="meta.media.1.codec.name">opus</property>
  <property name="meta.media.1.codec.long_name">Opus</property>
  <property name="meta.media.1.codec.bit_rate">0</property>
  <property name="meta.attr.1.stream.language.markup">eng</property>
  <property name="meta.attr.1.stream.DURATION.markup">02:18:58.881000000</property>
  <property name="meta.attr.COMPATIBLE_BRANDS.markup">iso6mp41</property>
  <property name="meta.attr.MAJOR_BRAND.markup">dash</property>
  <property name="meta.attr.MINOR_VERSION.markup">0</property>
  <property name="meta.attr.ENCODER.markup">Lavf59.27.100</property>
  <property name="seekable">1</property>
  <property name="meta.media.sample_aspect_num">1</property>
  <property name="meta.media.sample_aspect_den">1</property>
  <property name="format">3</property>
  <property name="audio_index">1</property>
  <property name="video_index">0</property>
  <property name="meta.media.frame_rate_num">25</property>
  <property name="meta.media.frame_rate_den">1</property>
  <property name="meta.media.colorspace">709</property>
  <property name="meta.media.color_trc">1</property>
  <property name="meta.media.has_b_frames">0</property>
  <property name="meta.media.width">1920</property>
  <property name="meta.media.height">1080</property>
  <property name="meta.media.color_range">mpeg</property>
  <property name="kdenlive:clipname"/>
  <property name="meta.media.top_field_first">0</property>
  <property name="meta.media.progressive">1</property>
  <property name="kdenlive:clip_type">0</property>
  <property name="kdenlive:folderid">14</property>
  <property name="kdenlive:id">6</property>
  <property name="kdenlive:file_size">845877288</property>
  <property name="kdenlive:file_hash">57847912f2775f5fab12884262152e3d</property>
  <property name="kdenlive:audio_max1">192</property>
  <property name="mute_on_pause">1</property>
 </chain>
 <chain id="chain12" out="01:39:18.480">
  <property name="length">148963</property>
  <property name="eof">pause</property>
  <property name="resource">b-roll/AI Ethics, Artists, and What You Can Do About It [Nn_w3MnCyDY].webm</property>
  <property name="mlt_service">avformat-novalidate</property>
  <property name="meta.media.nb_streams">2</property>
  <property name="meta.media.0.stream.type">video</property>
  <property name="meta.media.0.stream.frame_rate">23.976</property>
  <property name="meta.media.0.stream.sample_aspect_ratio">1</property>
  <property name="meta.media.0.codec.width">3840</property>
  <property name="meta.media.0.codec.height">2160</property>
  <property name="meta.media.0.codec.rotate">0</property>
  <property name="meta.media.0.codec.pix_fmt">yuv420p</property>
  <property name="meta.media.0.codec.sample_aspect_ratio">0</property>
  <property name="meta.media.0.codec.colorspace">709</property>
  <property name="meta.media.0.codec.color_trc">1</property>
  <property name="meta.media.0.codec.name">vp9</property>
  <property name="meta.media.0.codec.long_name">Google VP9</property>
  <property name="meta.media.0.codec.bit_rate">0</property>
  <property name="meta.attr.0.stream.language.markup">eng</property>
  <property name="meta.attr.0.stream.DURATION.markup">01:39:18.493000000</property>
  <property name="meta.media.1.stream.type">audio</property>
  <property name="meta.media.1.codec.sample_fmt">fltp</property>
  <property name="meta.media.1.codec.sample_rate">48000</property>
  <property name="meta.media.1.codec.channels">2</property>
  <property name="meta.media.1.codec.name">opus</property>
  <property name="meta.media.1.codec.long_name">Opus</property>
  <property name="meta.media.1.codec.bit_rate">0</property>
  <property name="meta.attr.1.stream.language.markup">eng</property>
  <property name="meta.attr.1.stream.DURATION.markup">01:39:18.521000000</property>
  <property name="meta.attr.ENCODER.markup">Lavf59.27.100</property>
  <property name="seekable">1</property>
  <property name="meta.media.sample_aspect_num">1</property>
  <property name="meta.media.sample_aspect_den">1</property>
  <property name="format">3</property>
  <property name="audio_index">1</property>
  <property name="video_index">0</property>
  <property name="meta.media.frame_rate_num">24000</property>
  <property name="meta.media.frame_rate_den">1001</property>
  <property name="meta.media.colorspace">709</property>
  <property name="meta.media.color_trc">1</property>
  <property name="meta.media.has_b_frames">0</property>
  <property name="meta.media.width">3840</property>
  <property name="meta.media.height">2160</property>
  <property name="meta.media.color_range">mpeg</property>
  <property name="kdenlive:clipname"/>
  <property name="meta.media.top_field_first">0</property>
  <property name="meta.media.progressive">1</property>
  <property name="kdenlive:clip_type">0</property>
  <property name="kdenlive:folderid">14</property>
  <property name="kdenlive:id">7</property>
  <property name="kdenlive:file_size">7320919605</property>
  <property name="kdenlive:file_hash">305a2e1f8f3b9e51e9a0da642870036e</property>
  <property name="kdenlive:audio_max1">220</property>
  <property name="mute_on_pause">1</property>
 </chain>
 <chain id="chain13" out="01:48:05.000">
  <property name="length">162126</property>
  <property name="eof">pause</property>
  <property name="resource">b-roll/Discussing Shadiversity's AI Art Video [4MEtqEU71Tg].webm</property>
  <property name="mlt_service">avformat-novalidate</property>
  <property name="meta.media.nb_streams">2</property>
  <property name="meta.media.0.stream.type">video</property>
  <property name="meta.media.0.stream.frame_rate">60</property>
  <property name="meta.media.0.stream.sample_aspect_ratio">1</property>
  <property name="meta.media.0.codec.width">1280</property>
  <property name="meta.media.0.codec.height">720</property>
  <property name="meta.media.0.codec.rotate">0</property>
  <property name="meta.media.0.codec.pix_fmt">yuv420p</property>
  <property name="meta.media.0.codec.sample_aspect_ratio">0</property>
  <property name="meta.media.0.codec.colorspace">709</property>
  <property name="meta.media.0.codec.color_trc">1</property>
  <property name="meta.media.0.codec.name">vp9</property>
  <property name="meta.media.0.codec.long_name">Google VP9</property>
  <property name="meta.media.0.codec.bit_rate">0</property>
  <property name="meta.attr.0.stream.language.markup">eng</property>
  <property name="meta.attr.0.stream.DURATION.markup">01:48:04.999000000</property>
  <property name="meta.media.1.stream.type">audio</property>
  <property name="meta.media.1.codec.sample_fmt">fltp</property>
  <property name="meta.media.1.codec.sample_rate">48000</property>
  <property name="meta.media.1.codec.channels">2</property>
  <property name="meta.media.1.codec.name">opus</property>
  <property name="meta.media.1.codec.long_name">Opus</property>
  <property name="meta.media.1.codec.bit_rate">0</property>
  <property name="meta.attr.1.stream.language.markup">eng</property>
  <property name="meta.attr.1.stream.DURATION.markup">01:48:05.021000000</property>
  <property name="meta.attr.ENCODER.markup">Lavf59.27.100</property>
  <property name="seekable">1</property>
  <property name="meta.media.sample_aspect_num">1</property>
  <property name="meta.media.sample_aspect_den">1</property>
  <property name="format">3</property>
  <property name="audio_index">1</property>
  <property name="video_index">0</property>
  <property name="meta.media.frame_rate_num">60</property>
  <property name="meta.media.frame_rate_den">1</property>
  <property name="meta.media.colorspace">709</property>
  <property name="meta.media.color_trc">1</property>
  <property name="meta.media.has_b_frames">0</property>
  <property name="meta.media.width">1280</property>
  <property name="meta.media.height">720</property>
  <property name="meta.media.color_range">mpeg</property>
  <property name="kdenlive:clipname"/>
  <property name="meta.media.top_field_first">0</property>
  <property name="meta.media.progressive">1</property>
  <property name="kdenlive:clip_type">0</property>
  <property name="kdenlive:folderid">14</property>
  <property name="kdenlive:id">8</property>
  <property name="kdenlive:file_size">499504751</property>
  <property name="kdenlive:file_hash">f80df14253755fe07865c7bc0b1a2d52</property>
  <property name="kdenlive:audio_max1">222</property>
  <property name="mute_on_pause">1</property>
 </chain>
 <chain id="chain14" out="00:38:45.400">
  <property name="length">58136</property>
  <property name="eof">pause</property>
  <property name="resource">b-roll/I used AI in a video. There was backlash. [iRSg6gjOOWA].webm</property>
  <property name="mlt_service">avformat-novalidate</property>
  <property name="meta.media.nb_streams">2</property>
  <property name="meta.media.0.stream.type">video</property>
  <property name="meta.media.0.stream.frame_rate">24</property>
  <property name="meta.media.0.stream.sample_aspect_ratio">1</property>
  <property name="meta.media.0.codec.width">3840</property>
  <property name="meta.media.0.codec.height">2160</property>
  <property name="meta.media.0.codec.rotate">0</property>
  <property name="meta.media.0.codec.pix_fmt">yuv420p</property>
  <property name="meta.media.0.codec.sample_aspect_ratio">0</property>
  <property name="meta.media.0.codec.colorspace">709</property>
  <property name="meta.media.0.codec.color_trc">1</property>
  <property name="meta.media.0.codec.name">vp9</property>
  <property name="meta.media.0.codec.long_name">Google VP9</property>
  <property name="meta.media.0.codec.bit_rate">0</property>
  <property name="meta.attr.0.stream.language.markup">eng</property>
  <property name="meta.attr.0.stream.DURATION.markup">00:38:45.416000000</property>
  <property name="meta.media.1.stream.type">audio</property>
  <property name="meta.media.1.codec.sample_fmt">fltp</property>
  <property name="meta.media.1.codec.sample_rate">48000</property>
  <property name="meta.media.1.codec.channels">2</property>
  <property name="meta.media.1.codec.name">opus</property>
  <property name="meta.media.1.codec.long_name">Opus</property>
  <property name="meta.media.1.codec.bit_rate">0</property>
  <property name="meta.attr.1.stream.language.markup">eng</property>
  <property name="meta.attr.1.stream.DURATION.markup">00:38:45.441000000</property>
  <property name="meta.attr.ENCODER.markup">Lavf59.27.100</property>
  <property name="seekable">1</property>
  <property name="meta.media.sample_aspect_num">1</property>
  <property name="meta.media.sample_aspect_den">1</property>
  <property name="format">3</property>
  <property name="audio_index">1</property>
  <property name="video_index">0</property>
  <property name="meta.media.frame_rate_num">24</property>
  <property name="meta.media.frame_rate_den">1</property>
  <property name="meta.media.colorspace">709</property>
  <property name="meta.media.color_trc">1</property>
  <property name="meta.media.has_b_frames">0</property>
  <property name="meta.media.width">3840</property>
  <property name="meta.media.height">2160</property>
  <property name="meta.media.color_range">mpeg</property>
  <property name="kdenlive:clipname"/>
  <property name="meta.media.top_field_first">0</property>
  <property name="meta.media.progressive">1</property>
  <property name="kdenlive:clip_type">0</property>
  <property name="kdenlive:folderid">14</property>
  <property name="kdenlive:id">9</property>
  <property name="kdenlive:file_size">2304444218</property>
  <property name="kdenlive:file_hash">35561234f22892f37a594c3094bc57e1</property>
  <property name="kdenlive:audio_max1">236</property>
  <property name="mute_on_pause">1</property>
 </chain>
 <chain id="chain15" out="00:01:29.920">
  <property name="length">2249</property>
  <property name="eof">pause</property>
  <property name="resource">b-roll/J. J. Ellis - Instagram shut me down for this video. This is now the only place you can see it online. [1725605071264546816].mp4</property>
  <property name="mlt_service">avformat-novalidate</property>
  <property name="meta.media.nb_streams">2</property>
  <property name="meta.media.0.stream.type">video</property>
  <property name="meta.media.0.stream.frame_rate">30</property>
  <property name="meta.media.0.stream.sample_aspect_ratio">0</property>
  <property name="meta.media.0.codec.width">720</property>
  <property name="meta.media.0.codec.height">1280</property>
  <property name="meta.media.0.codec.rotate">0</property>
  <property name="meta.media.0.codec.pix_fmt">yuv420p</property>
  <property name="meta.media.0.codec.sample_aspect_ratio">0</property>
  <property name="meta.media.0.codec.colorspace">709</property>
  <property name="meta.media.0.codec.color_trc">1</property>
  <property name="meta.media.0.codec.name">h264</property>
  <property name="meta.media.0.codec.long_name">H.264 / AVC / MPEG-4 AVC / MPEG-4 part 10</property>
  <property name="meta.media.0.codec.bit_rate">1412806</property>
  <property name="meta.attr.0.stream.creation_time.markup">2023-11-17T20:02:25.000000Z</property>
  <property name="meta.attr.0.stream.handler_name.markup">Vireo Eyes v2.9.1</property>
  <property name="meta.attr.0.stream.vendor_id.markup">[0][0][0][0]</property>
  <property name="meta.attr.0.stream.encoder.markup">AVC Coding</property>
  <property name="meta.media.1.stream.type">audio</property>
  <property name="meta.media.1.codec.sample_fmt">fltp</property>
  <property name="meta.media.1.codec.sample_rate">44100</property>
  <property name="meta.media.1.codec.channels">2</property>
  <property name="meta.media.1.codec.name">aac</property>
  <property name="meta.media.1.codec.long_name">AAC (Advanced Audio Coding)</property>
  <property name="meta.media.1.codec.bit_rate">127795</property>
  <property name="meta.attr.1.stream.creation_time.markup">2023-11-17T20:02:25.000000Z</property>
  <property name="meta.attr.1.stream.handler_name.markup">Vireo Ears v2.9.1</property>
  <property name="meta.attr.1.stream.vendor_id.markup">[0][0][0][0]</property>
  <property name="meta.attr.major_brand.markup">mp42</property>
  <property name="meta.attr.minor_version.markup">0</property>
  <property name="meta.attr.compatible_brands.markup">mp42mp41iso4</property>
  <property name="meta.attr.creation_time.markup">2023-11-17T20:02:25.000000Z</property>
  <property name="seekable">1</property>
  <property name="meta.media.sample_aspect_num">1</property>
  <property name="meta.media.sample_aspect_den">1</property>
  <property name="format">3</property>
  <property name="audio_index">1</property>
  <property name="video_index">0</property>
  <property name="meta.media.frame_rate_num">30</property>
  <property name="meta.media.frame_rate_den">1</property>
  <property name="meta.media.colorspace">709</property>
  <property name="meta.media.color_trc">1</property>
  <property name="meta.media.has_b_frames">2</property>
  <property name="meta.media.width">720</property>
  <property name="meta.media.height">1280</property>
  <property name="meta.media.color_range">mpeg</property>
  <property name="kdenlive:clipname"/>
  <property name="meta.media.top_field_first">0</property>
  <property name="meta.media.progressive">1</property>
  <property name="kdenlive:clip_type">0</property>
  <property name="kdenlive:folderid">14</property>
  <property name="kdenlive:id">10</property>
  <property name="kdenlive:file_size">17392940</property>
  <property name="kdenlive:file_hash">d219124d3dcf1e9bed3f097d4aa9c85d</property>
  <property name="kdenlive:audio_max1">176</property>
  <property name="mute_on_pause">1</property>
 </chain>
 <chain id="chain16" out="00:00:13.160">
  <property name="length">330</property>
  <property name="eof">pause</property>
  <property name="resource">b-roll/mx. curio (digimon era) - Finally. An automatic collage machine. [1723988473193893888].mp4</property>
  <property name="mlt_service">avformat-novalidate</property>
  <property name="meta.media.nb_streams">1</property>
  <property name="meta.media.0.stream.type">video</property>
  <property name="meta.media.0.stream.frame_rate">10</property>
  <property name="meta.media.0.stream.sample_aspect_ratio">1</property>
  <property name="meta.media.0.codec.width">534</property>
  <property name="meta.media.0.codec.height">534</property>
  <property name="meta.media.0.codec.rotate">0</property>
  <property name="meta.media.0.codec.pix_fmt">yuv420p</property>
  <property name="meta.media.0.codec.sample_aspect_ratio">0</property>
  <property name="meta.media.0.codec.colorspace">601</property>
  <property name="meta.media.0.codec.name">h264</property>
  <property name="meta.media.0.codec.long_name">H.264 / AVC / MPEG-4 AVC / MPEG-4 part 10</property>
  <property name="meta.media.0.codec.bit_rate">132447</property>
  <property name="meta.attr.0.stream.handler_name.markup">Twitter-vork muxer</property>
  <property name="meta.attr.0.stream.vendor_id.markup">[0][0][0][0]</property>
  <property name="meta.attr.major_brand.markup">iso5</property>
  <property name="meta.attr.minor_version.markup">512</property>
  <property name="meta.attr.compatible_brands.markup">iso6mp41</property>
  <property name="seekable">1</property>
  <property name="meta.media.sample_aspect_num">1</property>
  <property name="meta.media.sample_aspect_den">1</property>
  <property name="format">3</property>
  <property name="audio_index">-1</property>
  <property name="video_index">0</property>
  <property name="meta.media.frame_rate_num">10</property>
  <property name="meta.media.frame_rate_den">1</property>
  <property name="meta.media.colorspace">601</property>
  <property name="meta.media.color_trc">2</property>
  <property name="meta.media.has_b_frames">2</property>
  <property name="meta.media.width">534</property>
  <property name="meta.media.height">534</property>
  <property name="meta.media.color_range">mpeg</property>
  <property name="kdenlive:clipname"/>
  <property name="meta.media.top_field_first">0</property>
  <property name="meta.media.progressive">1</property>
  <property name="kdenlive:clip_type">2</property>
  <property name="kdenlive:folderid">14</property>
  <property name="kdenlive:id">11</property>
  <property name="kdenlive:file_size">220856</property>
  <property name="kdenlive:file_hash">1bbeb0596e5b52fc963b4740cf4700cd</property>
  <property name="mute_on_pause">1</property>
 </chain>
 <chain id="chain17" out="00:19:50.960">
  <property name="length">29775</property>
  <property name="eof">pause</property>
  <property name="resource">b-roll/NO, AI Does NOT Democratize Art (And That's a Dumb Defense) ï½œï½œ SPEEDPAINT + COMMENTARY [lDtAL5IQRMc].webm</property>
  <property name="mlt_service">avformat-novalidate</property>
  <property name="meta.media.nb_streams">2</property>
  <property name="meta.media.0.stream.type">video</property>
  <property name="meta.media.0.stream.frame_rate">30</property>
  <property name="meta.media.0.stream.sample_aspect_ratio">1</property>
  <property name="meta.media.0.codec.width">1920</property>
  <property name="meta.media.0.codec.height">1080</property>
  <property name="meta.media.0.codec.rotate">0</property>
  <property name="meta.media.0.codec.pix_fmt">yuv420p</property>
  <property name="meta.media.0.codec.sample_aspect_ratio">0</property>
  <property name="meta.media.0.codec.colorspace">709</property>
  <property name="meta.media.0.codec.color_trc">1</property>
  <property name="meta.media.0.codec.name">vp9</property>
  <property name="meta.media.0.codec.long_name">Google VP9</property>
  <property name="meta.media.0.codec.bit_rate">0</property>
  <property name="meta.attr.0.stream.HANDLER_NAME.markup">ISO Media file produced by Google Inc. Created on: 12/09/2023.</property>
  <property name="meta.attr.0.stream.VENDOR_ID.markup">[0][0][0][0]</property>
  <property name="meta.attr.0.stream.DURATION.markup">00:19:50.967000000</property>
  <property name="meta.media.1.stream.type">audio</property>
  <property name="meta.media.1.codec.sample_fmt">fltp</property>
  <property name="meta.media.1.codec.sample_rate">48000</property>
  <property name="meta.media.1.codec.channels">2</property>
  <property name="meta.media.1.codec.name">opus</property>
  <property name="meta.media.1.codec.long_name">Opus</property>
  <property name="meta.media.1.codec.bit_rate">0</property>
  <property name="meta.attr.1.stream.language.markup">eng</property>
  <property name="meta.attr.1.stream.DURATION.markup">00:19:51.001000000</property>
  <property name="meta.attr.COMPATIBLE_BRANDS.markup">iso6mp41</property>
  <property name="meta.attr.MAJOR_BRAND.markup">dash</property>
  <property name="meta.attr.MINOR_VERSION.markup">0</property>
  <property name="meta.attr.ENCODER.markup">Lavf59.27.100</property>
  <property name="seekable">1</property>
  <property name="meta.media.sample_aspect_num">1</property>
  <property name="meta.media.sample_aspect_den">1</property>
  <property name="format">3</property>
  <property name="audio_index">1</property>
  <property name="video_index">0</property>
  <property name="meta.media.frame_rate_num">30</property>
  <property name="meta.media.frame_rate_den">1</property>
  <property name="meta.media.colorspace">709</property>
  <property name="meta.media.color_trc">1</property>
  <property name="meta.media.has_b_frames">0</property>
  <property name="meta.media.width">1920</property>
  <property name="meta.media.height">1080</property>
  <property name="meta.media.color_range">mpeg</property>
  <property name="kdenlive:clipname"/>
  <property name="meta.media.top_field_first">0</property>
  <property name="meta.media.progressive">1</property>
  <property name="kdenlive:clip_type">0</property>
  <property name="kdenlive:folderid">14</property>
  <property name="kdenlive:id">12</property>
  <property name="kdenlive:file_size">159454885</property>
  <property name="kdenlive:file_hash">e92042182c49830a6d655e13b6193bd8</property>
  <property name="kdenlive:audio_max1">205</property>
  <property name="mute_on_pause">1</property>
 </chain>
 <chain id="chain18" out="02:53:21.560">
  <property name="length">260040</property>
  <property name="eof">pause</property>
  <property name="resource">b-roll/Responding to Shadiversity's 'Love Letter to ai Art' [D9GpKINVomo].webm</property>
  <property name="mlt_service">avformat-novalidate</property>
  <property name="meta.media.nb_streams">2</property>
  <property name="meta.media.0.stream.type">video</property>
  <property name="meta.media.0.stream.frame_rate">60</property>
  <property name="meta.media.0.stream.sample_aspect_ratio">1</property>
  <property name="meta.media.0.codec.width">1280</property>
  <property name="meta.media.0.codec.height">720</property>
  <property name="meta.media.0.codec.rotate">0</property>
  <property name="meta.media.0.codec.pix_fmt">yuv420p</property>
  <property name="meta.media.0.codec.sample_aspect_ratio">0</property>
  <property name="meta.media.0.codec.colorspace">709</property>
  <property name="meta.media.0.codec.color_trc">1</property>
  <property name="meta.media.0.codec.name">vp9</property>
  <property name="meta.media.0.codec.long_name">Google VP9</property>
  <property name="meta.media.0.codec.bit_rate">0</property>
  <property name="meta.attr.0.stream.language.markup">eng</property>
  <property name="meta.attr.0.stream.DURATION.markup">02:53:21.532000000</property>
  <property name="meta.media.1.stream.type">audio</property>
  <property name="meta.media.1.codec.sample_fmt">fltp</property>
  <property name="meta.media.1.codec.sample_rate">48000</property>
  <property name="meta.media.1.codec.channels">2</property>
  <property name="meta.media.1.codec.name">opus</property>
  <property name="meta.media.1.codec.long_name">Opus</property>
  <property name="meta.media.1.codec.bit_rate">0</property>
  <property name="meta.attr.1.stream.language.markup">eng</property>
  <property name="meta.attr.1.stream.DURATION.markup">02:53:21.601000000</property>
  <property name="meta.attr.ENCODER.markup">Lavf59.27.100</property>
  <property name="seekable">1</property>
  <property name="meta.media.sample_aspect_num">1</property>
  <property name="meta.media.sample_aspect_den">1</property>
  <property name="format">3</property>
  <property name="audio_index">1</property>
  <property name="video_index">0</property>
  <property name="meta.media.frame_rate_num">60</property>
  <property name="meta.media.frame_rate_den">1</property>
  <property name="meta.media.colorspace">709</property>
  <property name="meta.media.color_trc">1</property>
  <property name="meta.media.has_b_frames">0</property>
  <property name="meta.media.width">1280</property>
  <property name="meta.media.height">720</property>
  <property name="meta.media.color_range">mpeg</property>
  <property name="kdenlive:clipname"/>
  <property name="meta.media.top_field_first">0</property>
  <property name="meta.media.progressive">1</property>
  <property name="kdenlive:clip_type">0</property>
  <property name="kdenlive:folderid">14</property>
  <property name="kdenlive:id">13</property>
  <property name="kdenlive:file_size">499654206</property>
  <property name="kdenlive:file_hash">f07736a3c469b898626090c60c86f4c9</property>
  <property name="kdenlive:audio_max1">249</property>
  <property name="mute_on_pause">1</property>
 </chain>
 <chain id="chain19" out="01:29:44.560">
  <property name="length">134615</property>
  <property name="eof">pause</property>
  <property name="resource">b-roll/The existential threat of AI art and why not to quit drawing - Sketchy Van Podcast #60 Steven Zapata [OCY7lb_i0yM].webm</property>
  <property name="mlt_service">avformat-novalidate</property>
  <property name="meta.media.nb_streams">2</property>
  <property name="meta.media.0.stream.type">video</property>
  <property name="meta.media.0.stream.frame_rate">23.976</property>
  <property name="meta.media.0.stream.sample_aspect_ratio">1</property>
  <property name="meta.media.0.codec.width">1920</property>
  <property name="meta.media.0.codec.height">1080</property>
  <property name="meta.media.0.codec.rotate">0</property>
  <property name="meta.media.0.codec.pix_fmt">yuv420p</property>
  <property name="meta.media.0.codec.sample_aspect_ratio">0</property>
  <property name="meta.media.0.codec.colorspace">709</property>
  <property name="meta.media.0.codec.color_trc">1</property>
  <property name="meta.media.0.codec.name">vp9</property>
  <property name="meta.media.0.codec.long_name">Google VP9</property>
  <property name="meta.media.0.codec.bit_rate">0</property>
  <property name="meta.attr.0.stream.language.markup">eng</property>
  <property name="meta.attr.0.stream.DURATION.markup">01:29:44.545000000</property>
  <property name="meta.media.1.stream.type">audio</property>
  <property name="meta.media.1.codec.sample_fmt">fltp</property>
  <property name="meta.media.1.codec.sample_rate">48000</property>
  <property name="meta.media.1.codec.channels">2</property>
  <property name="meta.media.1.codec.name">opus</property>
  <property name="meta.media.1.codec.long_name">Opus</property>
  <property name="meta.media.1.codec.bit_rate">0</property>
  <property name="meta.attr.1.stream.language.markup">eng</property>
  <property name="meta.attr.1.stream.DURATION.markup">01:29:44.581000000</property>
  <property name="meta.attr.ENCODER.markup">Lavf59.27.100</property>
  <property name="seekable">1</property>
  <property name="meta.media.sample_aspect_num">1</property>
  <property name="meta.media.sample_aspect_den">1</property>
  <property name="format">3</property>
  <property name="audio_index">1</property>
  <property name="video_index">0</property>
  <property name="meta.media.frame_rate_num">24000</property>
  <property name="meta.media.frame_rate_den">1001</property>
  <property name="meta.media.colorspace">709</property>
  <property name="meta.media.color_trc">1</property>
  <property name="meta.media.has_b_frames">0</property>
  <property name="meta.media.width">1920</property>
  <property name="meta.media.height">1080</property>
  <property name="meta.media.color_range">mpeg</property>
  <property name="kdenlive:clipname"/>
  <property name="meta.media.top_field_first">0</property>
  <property name="meta.media.progressive">1</property>
  <property name="kdenlive:clip_type">0</property>
  <property name="kdenlive:folderid">14</property>
  <property name="kdenlive:id">15</property>
  <property name="kdenlive:file_size">688601410</property>
  <property name="kdenlive:file_hash">ec2cc4d9055656138f14a8b4cd1ae4e8</property>
  <property name="kdenlive:audio_max1">227</property>
  <property name="mute_on_pause">1</property>
 </chain>
 <chain id="chain20" out="00:15:19.720">
  <property name="length">22994</property>
  <property name="eof">pause</property>
  <property name="resource">b-roll/No, Ai ï¼‚Artï¼‚ is not Art. [ESZO-XJZr0s].webm</property>
  <property name="mlt_service">avformat-novalidate</property>
  <property name="meta.media.nb_streams">2</property>
  <property name="meta.media.0.stream.type">video</property>
  <property name="meta.media.0.stream.frame_rate">60</property>
  <property name="meta.media.0.stream.sample_aspect_ratio">1</property>
  <property name="meta.media.0.codec.width">3840</property>
  <property name="meta.media.0.codec.height">2160</property>
  <property name="meta.media.0.codec.rotate">0</property>
  <property name="meta.media.0.codec.pix_fmt">yuv420p</property>
  <property name="meta.media.0.codec.sample_aspect_ratio">0</property>
  <property name="meta.media.0.codec.colorspace">709</property>
  <property name="meta.media.0.codec.color_trc">1</property>
  <property name="meta.media.0.codec.name">vp9</property>
  <property name="meta.media.0.codec.long_name">Google VP9</property>
  <property name="meta.media.0.codec.bit_rate">0</property>
  <property name="meta.attr.0.stream.language.markup">eng</property>
  <property name="meta.attr.0.stream.DURATION.markup">00:15:19.732000000</property>
  <property name="meta.media.1.stream.type">audio</property>
  <property name="meta.media.1.codec.sample_fmt">fltp</property>
  <property name="meta.media.1.codec.sample_rate">48000</property>
  <property name="meta.media.1.codec.channels">2</property>
  <property name="meta.media.1.codec.name">opus</property>
  <property name="meta.media.1.codec.long_name">Opus</property>
  <property name="meta.media.1.codec.bit_rate">0</property>
  <property name="meta.attr.1.stream.language.markup">eng</property>
  <property name="meta.attr.1.stream.DURATION.markup">00:15:19.761000000</property>
  <property name="meta.attr.ENCODER.markup">Lavf59.27.100</property>
  <property name="seekable">1</property>
  <property name="meta.media.sample_aspect_num">1</property>
  <property name="meta.media.sample_aspect_den">1</property>
  <property name="format">3</property>
  <property name="audio_index">1</property>
  <property name="video_index">0</property>
  <property name="meta.media.frame_rate_num">60</property>
  <property name="meta.media.frame_rate_den">1</property>
  <property name="meta.media.colorspace">709</property>
  <property name="meta.media.color_trc">1</property>
  <property name="meta.media.has_b_frames">0</property>
  <property name="meta.media.width">3840</property>
  <property name="meta.media.height">2160</property>
  <property name="meta.media.color_range">mpeg</property>
  <property name="kdenlive:clipname"/>
  <property name="meta.media.top_field_first">0</property>
  <property name="meta.media.progressive">1</property>
  <property name="kdenlive:clip_type">0</property>
  <property name="kdenlive:folderid">14</property>
  <property name="kdenlive:id">16</property>
  <property name="kdenlive:file_size">1017673363</property>
  <property name="kdenlive:file_hash">66e1573105c8305d8814272ead837152</property>
  <property name="kdenlive:audio_max1">229</property>
  <property name="mute_on_pause">1</property>
 </chain>
 <chain id="chain25" out="00:07:08.480">
  <property name="length">10713</property>
  <property name="eof">pause</property>
  <property name="resource">b-roll/The Last Few Polio Survivors â€“ Last of the Iron Lungs ï½œ Gizmodo [gplA6pq9cOs].webm</property>
  <property name="mlt_service">avformat-novalidate</property>
  <property name="meta.media.nb_streams">2</property>
  <property name="meta.media.0.stream.type">video</property>
  <property name="meta.media.0.stream.frame_rate">23.9793</property>
  <property name="meta.media.0.stream.sample_aspect_ratio">1</property>
  <property name="meta.media.0.codec.width">1920</property>
  <property name="meta.media.0.codec.height">1080</property>
  <property name="meta.media.0.codec.rotate">0</property>
  <property name="meta.media.0.codec.pix_fmt">yuv420p</property>
  <property name="meta.media.0.codec.sample_aspect_ratio">0</property>
  <property name="meta.media.0.codec.colorspace">709</property>
  <property name="meta.media.0.codec.color_trc">1</property>
  <property name="meta.media.0.codec.name">vp9</property>
  <property name="meta.media.0.codec.long_name">Google VP9</property>
  <property name="meta.media.0.codec.bit_rate">0</property>
  <property name="meta.attr.0.stream.HANDLER_NAME.markup">ISO Media file produced by Google Inc. Created on: 12/09/2023.</property>
  <property name="meta.attr.0.stream.VENDOR_ID.markup">[0][0][0][0]</property>
  <property name="meta.attr.0.stream.DURATION.markup">00:07:08.510000000</property>
  <property name="meta.media.1.stream.type">audio</property>
  <property name="meta.media.1.codec.sample_fmt">fltp</property>
  <property name="meta.media.1.codec.sample_rate">48000</property>
  <property name="meta.media.1.codec.channels">2</property>
  <property name="meta.media.1.codec.name">opus</property>
  <property name="meta.media.1.codec.long_name">Opus</property>
  <property name="meta.media.1.codec.bit_rate">0</property>
  <property name="meta.attr.1.stream.language.markup">eng</property>
  <property name="meta.attr.1.stream.DURATION.markup">00:07:08.521000000</property>
  <property name="meta.attr.COMPATIBLE_BRANDS.markup">iso6mp41</property>
  <property name="meta.attr.MAJOR_BRAND.markup">dash</property>
  <property name="meta.attr.MINOR_VERSION.markup">0</property>
  <property name="meta.attr.ENCODER.markup">Lavf59.27.100</property>
  <property name="seekable">1</property>
  <property name="meta.media.sample_aspect_num">1</property>
  <property name="meta.media.sample_aspect_den">1</property>
  <property name="format">3</property>
  <property name="audio_index">1</property>
  <property name="video_index">0</property>
  <property name="meta.media.frame_rate_num">22061</property>
  <property name="meta.media.frame_rate_den">920</property>
  <property name="meta.media.colorspace">709</property>
  <property name="meta.media.color_trc">1</property>
  <property name="meta.media.has_b_frames">0</property>
  <property name="meta.media.width">1920</property>
  <property name="meta.media.height">1080</property>
  <property name="meta.media.color_range">mpeg</property>
  <property name="kdenlive:clipname"/>
  <property name="meta.media.top_field_first">0</property>
  <property name="meta.media.progressive">1</property>
  <property name="kdenlive:clip_type">0</property>
  <property name="kdenlive:folderid">14</property>
  <property name="kdenlive:id">17</property>
  <property name="kdenlive:file_size">124918918</property>
  <property name="kdenlive:file_hash">b46bbc71373f2e33b001ebd75725483a</property>
  <property name="kdenlive:audio_max1">238</property>
  <property name="mute_on_pause">1</property>
 </chain>
 <chain id="chain26" out="00:05:01.280">
  <property name="length">7533</property>
  <property name="eof">pause</property>
  <property name="resource">b-roll/Yemenï¼š On the brink of starvation - BBC News [npk7tfKyXok].webm</property>
  <property name="mlt_service">avformat-novalidate</property>
  <property name="meta.media.nb_streams">2</property>
  <property name="meta.media.0.stream.type">video</property>
  <property name="meta.media.0.stream.frame_rate">25</property>
  <property name="meta.media.0.stream.sample_aspect_ratio">1</property>
  <property name="meta.media.0.codec.width">1920</property>
  <property name="meta.media.0.codec.height">1080</property>
  <property name="meta.media.0.codec.rotate">0</property>
  <property name="meta.media.0.codec.pix_fmt">yuv420p</property>
  <property name="meta.media.0.codec.sample_aspect_ratio">0</property>
  <property name="meta.media.0.codec.colorspace">709</property>
  <property name="meta.media.0.codec.color_trc">1</property>
  <property name="meta.media.0.codec.name">vp9</property>
  <property name="meta.media.0.codec.long_name">Google VP9</property>
  <property name="meta.media.0.codec.bit_rate">0</property>
  <property name="meta.attr.0.stream.HANDLER_NAME.markup">ISO Media file produced by Google Inc. Created on: 12/09/2023.</property>
  <property name="meta.attr.0.stream.VENDOR_ID.markup">[0][0][0][0]</property>
  <property name="meta.attr.0.stream.DURATION.markup">00:05:01.280000000</property>
  <property name="meta.media.1.stream.type">audio</property>
  <property name="meta.media.1.codec.sample_fmt">fltp</property>
  <property name="meta.media.1.codec.sample_rate">48000</property>
  <property name="meta.media.1.codec.channels">1</property>
  <property name="meta.media.1.codec.name">opus</property>
  <property name="meta.media.1.codec.long_name">Opus</property>
  <property name="meta.media.1.codec.bit_rate">0</property>
  <property name="meta.attr.1.stream.language.markup">eng</property>
  <property name="meta.attr.1.stream.DURATION.markup">00:05:01.301000000</property>
  <property name="meta.attr.COMPATIBLE_BRANDS.markup">iso6mp41</property>
  <property name="meta.attr.MAJOR_BRAND.markup">dash</property>
  <property name="meta.attr.MINOR_VERSION.markup">0</property>
  <property name="meta.attr.ENCODER.markup">Lavf59.27.100</property>
  <property name="seekable">1</property>
  <property name="meta.media.sample_aspect_num">1</property>
  <property name="meta.media.sample_aspect_den">1</property>
  <property name="format">3</property>
  <property name="audio_index">1</property>
  <property name="video_index">0</property>
  <property name="meta.media.frame_rate_num">25</property>
  <property name="meta.media.frame_rate_den">1</property>
  <property name="meta.media.colorspace">709</property>
  <property name="meta.media.color_trc">1</property>
  <property name="meta.media.has_b_frames">0</property>
  <property name="meta.media.width">1920</property>
  <property name="meta.media.height">1080</property>
  <property name="meta.media.color_range">mpeg</property>
  <property name="kdenlive:clipname"/>
  <property name="meta.media.top_field_first">0</property>
  <property name="meta.media.progressive">1</property>
  <property name="kdenlive:clip_type">0</property>
  <property name="kdenlive:folderid">14</property>
  <property name="kdenlive:id">18</property>
  <property name="kdenlive:file_size">131604853</property>
  <property name="kdenlive:file_hash">afdb4dfe8b250e87137ef45dd4bd127b</property>
  <property name="kdenlive:audio_max1">190</property>
  <property name="mute_on_pause">1</property>
 </chain>
 <chain id="chain28" out="00:38:45.400">
  <property name="length">58136</property>
  <property name="eof">pause</property>
  <property name="resource">b-roll/I used AI in a video. There was backlash. [iRSg6gjOOWA].webm</property>
  <property name="mlt_service">avformat-novalidate</property>
  <property name="meta.media.nb_streams">2</property>
  <property name="meta.media.0.stream.type">video</property>
  <property name="meta.media.0.stream.frame_rate">24</property>
  <property name="meta.media.0.stream.sample_aspect_ratio">1</property>
  <property name="meta.media.0.codec.width">3840</property>
  <property name="meta.media.0.codec.height">2160</property>
  <property name="meta.media.0.codec.rotate">0</property>
  <property name="meta.media.0.codec.pix_fmt">yuv420p</property>
  <property name="meta.media.0.codec.sample_aspect_ratio">0</property>
  <property name="meta.media.0.codec.colorspace">709</property>
  <property name="meta.media.0.codec.color_trc">1</property>
  <property name="meta.media.0.codec.name">vp9</property>
  <property name="meta.media.0.codec.long_name">Google VP9</property>
  <property name="meta.media.0.codec.bit_rate">0</property>
  <property name="meta.attr.0.stream.language.markup">eng</property>
  <property name="meta.attr.0.stream.DURATION.markup">00:38:45.416000000</property>
  <property name="meta.media.1.stream.type">audio</property>
  <property name="meta.media.1.codec.sample_fmt">fltp</property>
  <property name="meta.media.1.codec.sample_rate">48000</property>
  <property name="meta.media.1.codec.channels">2</property>
  <property name="meta.media.1.codec.name">opus</property>
  <property name="meta.media.1.codec.long_name">Opus</property>
  <property name="meta.media.1.codec.bit_rate">0</property>
  <property name="meta.attr.1.stream.language.markup">eng</property>
  <property name="meta.attr.1.stream.DURATION.markup">00:38:45.441000000</property>
  <property name="meta.attr.ENCODER.markup">Lavf59.27.100</property>
  <property name="seekable">1</property>
  <property name="meta.media.sample_aspect_num">1</property>
  <property name="meta.media.sample_aspect_den">1</property>
  <property name="format">3</property>
  <property name="audio_index">1</property>
  <property name="video_index">0</property>
  <property name="meta.media.frame_rate_num">24</property>
  <property name="meta.media.frame_rate_den">1</property>
  <property name="meta.media.colorspace">709</property>
  <property name="meta.media.color_trc">1</property>
  <property name="meta.media.has_b_frames">0</property>
  <property name="meta.media.width">3840</property>
  <property name="meta.media.height">2160</property>
  <property name="meta.media.color_range">mpeg</property>
  <property name="kdenlive:clipname"/>
  <property name="meta.media.top_field_first">0</property>
  <property name="meta.media.progressive">1</property>
  <property name="kdenlive:clip_type">0</property>
  <property name="kdenlive:folderid">14</property>
  <property name="kdenlive:id">19</property>
  <property name="kdenlive:file_size">2304444218</property>
  <property name="kdenlive:file_hash">35561234f22892f37a594c3094bc57e1</property>
  <property name="kdenlive:audio_max1">236</property>
  <property name="mute_on_pause">1</property>
 </chain>
 <producer id="producer1" in="00:00:00.000" out="00:00:04.960">
  <property name="length">125</property>
  <property name="eof">pause</property>
  <property name="resource"/>
  <property name="progressive">1</property>
  <property name="aspect_ratio">1</property>
  <property name="seekable">1</property>
  <property name="mlt_service">kdenlivetitle</property>
  <property name="kdenlive:duration">00:00:05:00</property>
  <property name="kdenlive:clipname">"if it's eth...</property>
  <property name="xmldata">&lt;kdenlivetitle duration="125" LC_NUMERIC="C" width="1920" height="1080" out="124">
 &lt;item type="QGraphicsTextItem" z-index="0">
  &lt;position x="377" y="494">
   &lt;transform>1,0,0,0,1,0,0,0,1&lt;/transform>
  &lt;/position>
  &lt;content line-spacing="0" shadow="0;#64000000;3;3;3" font-underline="0" box-height="288" font-outline-color="0,0,0,255" font="Cubano" letter-spacing="0" font-pixel-size="60" font-italic="0" typewriter="0;2;1;0;0" alignment="4" font-weight="50" font-outline="4" box-width="1165.25" font-color="255,255,255,255">"if it's ethical we don't have
to compete with it any more."

"That's the only way it can be ethical"&lt;/content>
 &lt;/item>
 &lt;startviewport rect="0,0,1920,1080"/>
 &lt;endviewport rect="0,0,1920,1080"/>
 &lt;background color="0,0,0,0"/>
&lt;/kdenlivetitle>
</property>
  <property name="kdenlive:folderid">21</property>
  <property name="kdenlive:id">20</property>
  <property name="kdenlive:clip_type">2</property>
  <property name="kdenlive:file_hash">0e26a8ea6ecd70c2275fb6ab1911f5d0</property>
  <property name="force_reload">0</property>
  <property name="meta.media.width">1920</property>
  <property name="meta.media.height">1080</property>
 </producer>
 <chain id="chain29" out="00:01:00.000">
  <property name="length">1501</property>
  <property name="eof">pause</property>
  <property name="resource">/home/liquidzulu/Videos/yt/b-roll/Soviet union flag - CCCP flag waving in the wind [xl4T7cQ2vyQ].webm</property>
  <property name="mlt_service">avformat-novalidate</property>
  <property name="meta.media.nb_streams">2</property>
  <property name="meta.media.0.stream.type">video</property>
  <property name="meta.media.0.stream.frame_rate">60</property>
  <property name="meta.media.0.stream.sample_aspect_ratio">1</property>
  <property name="meta.media.0.codec.width">3840</property>
  <property name="meta.media.0.codec.height">2160</property>
  <property name="meta.media.0.codec.rotate">0</property>
  <property name="meta.media.0.codec.pix_fmt">yuv420p</property>
  <property name="meta.media.0.codec.sample_aspect_ratio">0</property>
  <property name="meta.media.0.codec.colorspace">601</property>
  <property name="meta.media.0.codec.color_trc">1</property>
  <property name="meta.media.0.codec.name">vp9</property>
  <property name="meta.media.0.codec.long_name">Google VP9</property>
  <property name="meta.media.0.codec.bit_rate">0</property>
  <property name="meta.attr.0.stream.language.markup">eng</property>
  <property name="meta.attr.0.stream.DURATION.markup">00:01:00.032000000</property>
  <property name="meta.media.1.stream.type">audio</property>
  <property name="meta.media.1.codec.sample_fmt">fltp</property>
  <property name="meta.media.1.codec.sample_rate">48000</property>
  <property name="meta.media.1.codec.channels">2</property>
  <property name="meta.media.1.codec.name">opus</property>
  <property name="meta.media.1.codec.long_name">Opus</property>
  <property name="meta.media.1.codec.bit_rate">0</property>
  <property name="meta.attr.1.stream.language.markup">eng</property>
  <property name="meta.attr.1.stream.DURATION.markup">00:00:59.981000000</property>
  <property name="meta.attr.ENCODER.markup">Lavf59.27.100</property>
  <property name="seekable">1</property>
  <property name="meta.media.sample_aspect_num">1</property>
  <property name="meta.media.sample_aspect_den">1</property>
  <property name="format">3</property>
  <property name="audio_index">-1</property>
  <property name="video_index">0</property>
  <property name="meta.media.frame_rate_num">60</property>
  <property name="meta.media.frame_rate_den">1</property>
  <property name="meta.media.colorspace">601</property>
  <property name="meta.media.color_trc">1</property>
  <property name="meta.media.has_b_frames">0</property>
  <property name="meta.media.width">3840</property>
  <property name="meta.media.height">2160</property>
  <property name="meta.media.color_range">mpeg</property>
  <property name="kdenlive:clipname"/>
  <property name="meta.media.top_field_first">0</property>
  <property name="meta.media.progressive">1</property>
  <property name="kdenlive:clip_type">0</property>
  <property name="kdenlive:folderid">14</property>
  <property name="kdenlive:id">22</property>
  <property name="kdenlive:file_size">41139049</property>
  <property name="kdenlive:file_hash">2fc3b4891977f4108d0d30df6726765b</property>
  <property name="kdenlive:audio_max1">248</property>
  <property name="kdenlive:active_streams">-1</property>
  <property name="set.test_audio">1</property>
  <property name="mute_on_pause">1</property>
 </chain>
 <producer id="producer3" in="00:00:00.000" out="00:00:13.240">
  <property name="length">332</property>
  <property name="eof">pause</property>
  <property name="resource"/>
  <property name="progressive">1</property>
  <property name="aspect_ratio">1</property>
  <property name="seekable">1</property>
  <property name="mlt_service">kdenlivetitle</property>
  <property name="kdenlive:duration">00:00:05:00</property>
  <property name="kdenlive:clipname">"any individ...</property>
  <property name="xmldata">&lt;kdenlivetitle duration="125" LC_NUMERIC="C" width="1920" height="1080" out="124">
 &lt;item type="QGraphicsTextItem" z-index="0">
  &lt;position x="129" y="848">
   &lt;transform>1,0,0,0,1,0,0,0,1&lt;/transform>
  &lt;/position>
  &lt;content line-spacing="0" shadow="0;#64000000;3;3;3" font-underline="0" box-height="124" font-outline-color="0,0,0,255" font="Cubano" letter-spacing="0" font-pixel-size="52" font-italic="0" typewriter="0;2;1;0;0" alignment="4" font-weight="50" font-outline="3" box-width="1662.61" font-color="255,255,255,255">"any individual in the world can copy your work: ok, fine...
but if that individual makes a lot of money, thats ... a problem"&lt;/content>
 &lt;/item>
 &lt;startviewport rect="0,0,1920,1080"/>
 &lt;endviewport rect="0,0,1920,1080"/>
 &lt;background color="0,0,0,0"/>
&lt;/kdenlivetitle>
</property>
  <property name="kdenlive:folderid">21</property>
  <property name="kdenlive:id">23</property>
  <property name="kdenlive:clip_type">2</property>
  <property name="kdenlive:file_hash">810b5726eaad6e9a6e188d8b9009d2fe</property>
  <property name="force_reload">0</property>
  <property name="meta.media.width">1920</property>
  <property name="meta.media.height">1080</property>
 </producer>
 <chain id="chain30" out="00:00:58.320">
  <property name="length">1459</property>
  <property name="eof">pause</property>
  <property name="resource">b-roll/Artist sells banana duct-taped to wall for $120,000 at Art Basel [WsXmohQcbtQ].webm</property>
  <property name="mlt_service">avformat-novalidate</property>
  <property name="meta.media.nb_streams">2</property>
  <property name="meta.media.0.stream.type">video</property>
  <property name="meta.media.0.stream.frame_rate">29.97</property>
  <property name="meta.media.0.stream.sample_aspect_ratio">1</property>
  <property name="meta.media.0.codec.width">1920</property>
  <property name="meta.media.0.codec.height">1080</property>
  <property name="meta.media.0.codec.rotate">0</property>
  <property name="meta.media.0.codec.pix_fmt">yuv420p</property>
  <property name="meta.media.0.codec.sample_aspect_ratio">0</property>
  <property name="meta.media.0.codec.colorspace">709</property>
  <property name="meta.media.0.codec.color_trc">1</property>
  <property name="meta.media.0.codec.name">vp9</property>
  <property name="meta.media.0.codec.long_name">Google VP9</property>
  <property name="meta.media.0.codec.bit_rate">0</property>
  <property name="meta.attr.0.stream.language.markup">eng</property>
  <property name="meta.attr.0.stream.DURATION.markup">00:00:58.324000000</property>
  <property name="meta.media.1.stream.type">audio</property>
  <property name="meta.media.1.codec.sample_fmt">fltp</property>
  <property name="meta.media.1.codec.sample_rate">48000</property>
  <property name="meta.media.1.codec.channels">2</property>
  <property name="meta.media.1.codec.name">opus</property>
  <property name="meta.media.1.codec.long_name">Opus</property>
  <property name="meta.media.1.codec.bit_rate">0</property>
  <property name="meta.attr.1.stream.language.markup">eng</property>
  <property name="meta.attr.1.stream.DURATION.markup">00:00:58.341000000</property>
  <property name="meta.attr.ENCODER.markup">Lavf59.27.100</property>
  <property name="seekable">1</property>
  <property name="meta.media.sample_aspect_num">1</property>
  <property name="meta.media.sample_aspect_den">1</property>
  <property name="format">3</property>
  <property name="audio_index">-1</property>
  <property name="video_index">0</property>
  <property name="meta.media.frame_rate_num">30000</property>
  <property name="meta.media.frame_rate_den">1001</property>
  <property name="meta.media.colorspace">709</property>
  <property name="meta.media.color_trc">1</property>
  <property name="meta.media.has_b_frames">0</property>
  <property name="meta.media.width">1920</property>
  <property name="meta.media.height">1080</property>
  <property name="meta.media.color_range">mpeg</property>
  <property name="kdenlive:clipname"/>
  <property name="meta.media.top_field_first">0</property>
  <property name="meta.media.progressive">1</property>
  <property name="kdenlive:clip_type">0</property>
  <property name="kdenlive:folderid">14</property>
  <property name="kdenlive:id">24</property>
  <property name="kdenlive:file_size">18321724</property>
  <property name="kdenlive:file_hash">d83386c3b1aa4b0f541318a951d343bc</property>
  <property name="kdenlive:audio_max1">169</property>
  <property name="kdenlive:active_streams">-1</property>
  <property name="set.test_audio">1</property>
  <property name="mute_on_pause">1</property>
 </chain>
 <producer id="producer2" in="00:00:00.000" out="00:00:04.960">
  <property name="length">125</property>
  <property name="eof">pause</property>
  <property name="resource"/>
  <property name="progressive">1</property>
  <property name="aspect_ratio">1</property>
  <property name="seekable">1</property>
  <property name="mlt_service">kdenlivetitle</property>
  <property name="kdenlive:duration">00:00:05:00</property>
  <property name="kdenlive:clipname">"profit moti...</property>
  <property name="xmldata">&lt;kdenlivetitle duration="125" LC_NUMERIC="C" width="1920" height="1080" out="124">
 &lt;item type="QGraphicsTextItem" z-index="0">
  &lt;position x="732" y="866">
   &lt;transform>1,0,0,0,1,0,0,0,1&lt;/transform>
  &lt;/position>
  &lt;content shadow="0;#64000000;3;3;3" font-underline="0" box-height="72" font-outline-color="0,0,0,255" font="Cubano" letter-spacing="0" font-pixel-size="60" font-italic="0" typewriter="0;2;1;0;0" alignment="1" font-weight="50" font-outline="4" box-width="455.641" font-color="255,255,255,255">"profit motive"&lt;/content>
 &lt;/item>
 &lt;startviewport rect="0,0,1920,1080"/>
 &lt;endviewport rect="0,0,1920,1080"/>
 &lt;background color="0,0,0,0"/>
&lt;/kdenlivetitle>
</property>
  <property name="kdenlive:folderid">21</property>
  <property name="kdenlive:id">25</property>
  <property name="kdenlive:clip_type">2</property>
  <property name="kdenlive:file_hash">c4f6160aee4e465d91f7be42a30045b3</property>
  <property name="force_reload">0</property>
  <property name="meta.media.width">1920</property>
  <property name="meta.media.height">1080</property>
 </producer>
 <producer id="producer11" in="00:00:00.000" out="00:00:08.760">
  <property name="length">220</property>
  <property name="eof">pause</property>
  <property name="resource">images/1280 extracted images out of 1 million.png</property>
  <property name="ttl">25</property>
  <property name="aspect_ratio">1</property>
  <property name="progressive">1</property>
  <property name="seekable">1</property>
  <property name="format">1</property>
  <property name="meta.media.width">978</property>
  <property name="meta.media.height">812</property>
  <property name="mlt_service">qimage</property>
  <property name="kdenlive:clipname"/>
  <property name="kdenlive:duration">00:00:05:00</property>
  <property name="kdenlive:folderid">28</property>
  <property name="kdenlive:id">26</property>
  <property name="kdenlive:clip_type">2</property>
  <property name="kdenlive:file_size">969573</property>
  <property name="kdenlive:file_hash">ba93be81d54aa2fd9ceed2ef0296e500</property>
 </producer>
 <producer id="producer14" in="00:00:00.000" out="00:00:04.960">
  <property name="length">00:00:05.000</property>
  <property name="eof">pause</property>
  <property name="resource">images/aeroplane-missing-wing.xcf</property>
  <property name="ttl">25</property>
  <property name="aspect_ratio">1</property>
  <property name="progressive">1</property>
  <property name="seekable">1</property>
  <property name="format">2</property>
  <property name="meta.media.width">1000</property>
  <property name="meta.media.height">1000</property>
  <property name="mlt_service">qimage</property>
  <property name="kdenlive:clipname"/>
  <property name="kdenlive:duration">00:00:05:00</property>
  <property name="kdenlive:folderid">28</property>
  <property name="kdenlive:id">27</property>
  <property name="kdenlive:clip_type">2</property>
  <property name="kdenlive:file_size">709151</property>
  <property name="kdenlive:file_hash">f8b7fa7e945e7847405e1c7541949e59</property>
 </producer>
 <producer id="producer13" in="00:00:00.000" out="00:00:10.240">
  <property name="length">257</property>
  <property name="eof">pause</property>
  <property name="resource">images/AI art collage.jpg</property>
  <property name="ttl">25</property>
  <property name="aspect_ratio">1</property>
  <property name="progressive">1</property>
  <property name="seekable">1</property>
  <property name="format">1</property>
  <property name="meta.media.width">680</property>
  <property name="meta.media.height">845</property>
  <property name="mlt_service">qimage</property>
  <property name="kdenlive:clipname"/>
  <property name="kdenlive:duration">00:00:05:00</property>
  <property name="kdenlive:folderid">28</property>
  <property name="kdenlive:id">29</property>
  <property name="kdenlive:clip_type">2</property>
  <property name="kdenlive:file_size">89344</property>
  <property name="kdenlive:file_hash">c3bd59ca8badf225e3b7501a66f06684</property>
 </producer>
 <producer id="producer12" in="00:00:00.000" out="00:00:04.960">
  <property name="length">00:00:05.000</property>
  <property name="eof">pause</property>
  <property name="resource">images/ai art machine made the art photography.png</property>
  <property name="ttl">25</property>
  <property name="aspect_ratio">1</property>
  <property name="progressive">1</property>
  <property name="seekable">1</property>
  <property name="format">1</property>
  <property name="meta.media.width">1280</property>
  <property name="meta.media.height">1600</property>
  <property name="mlt_service">qimage</property>
  <property name="kdenlive:clipname"/>
  <property name="kdenlive:duration">00:00:05:00</property>
  <property name="kdenlive:folderid">28</property>
  <property name="kdenlive:id">30</property>
  <property name="kdenlive:clip_type">2</property>
  <property name="kdenlive:file_size">125768</property>
  <property name="kdenlive:file_hash">265b31a3dc2ef798026628c345350ddd</property>
 </producer>
 <producer id="producer15" in="00:00:00.000" out="00:00:04.960">
  <property name="length">00:00:05.000</property>
  <property name="eof">pause</property>
  <property name="resource">images/ai-art-stonetoss-comic.png</property>
  <property name="ttl">25</property>
  <property name="aspect_ratio">1</property>
  <property name="progressive">1</property>
  <property name="seekable">1</property>
  <property name="format">2</property>
  <property name="meta.media.width">1280</property>
  <property name="meta.media.height">1600</property>
  <property name="mlt_service">qimage</property>
  <property name="kdenlive:clipname"/>
  <property name="kdenlive:duration">00:00:05:00</property>
  <property name="kdenlive:folderid">28</property>
  <property name="kdenlive:id">31</property>
  <property name="kdenlive:clip_type">2</property>
  <property name="kdenlive:file_size">224187</property>
  <property name="kdenlive:file_hash">656115cbcf1de47f2854f2793e50a5e6</property>
 </producer>
 <producer id="producer17" in="00:00:00.000" out="00:00:04.960">
  <property name="length">00:00:05.000</property>
  <property name="eof">pause</property>
  <property name="resource">images/ai-generic-objects-Chair.png</property>
  <property name="ttl">25</property>
  <property name="aspect_ratio">1</property>
  <property name="progressive">1</property>
  <property name="seekable">1</property>
  <property name="format">2</property>
  <property name="meta.media.width">1581</property>
  <property name="meta.media.height">1581</property>
  <property name="mlt_service">qimage</property>
  <property name="kdenlive:clipname"/>
  <property name="kdenlive:duration">00:00:05:00</property>
  <property name="kdenlive:folderid">28</property>
  <property name="kdenlive:id">32</property>
  <property name="kdenlive:clip_type">2</property>
  <property name="kdenlive:file_size">2193917</property>
  <property name="kdenlive:file_hash">516a7f1e8e9b531a2468989a9c5deaf0</property>
 </producer>
 <producer id="producer16" in="00:00:00.000" out="00:00:08.520">
  <property name="length">214</property>
  <property name="eof">pause</property>
  <property name="resource">images/ai-generic-objects-combined.png</property>
  <property name="ttl">25</property>
  <property name="aspect_ratio">1</property>
  <property name="progressive">1</property>
  <property name="seekable">1</property>
  <property name="format">2</property>
  <property name="meta.media.width">1024</property>
  <property name="meta.media.height">1024</property>
  <property name="mlt_service">qimage</property>
  <property name="kdenlive:clipname"/>
  <property name="kdenlive:duration">00:00:05:00</property>
  <property name="kdenlive:folderid">28</property>
  <property name="kdenlive:id">33</property>
  <property name="kdenlive:clip_type">2</property>
  <property name="kdenlive:file_size">1569089</property>
  <property name="kdenlive:file_hash">fa928dde8e4e0a2c965a4ca38d237e62</property>
 </producer>
 <producer id="producer19" in="00:00:00.000" out="00:00:04.960">
  <property name="length">00:00:05.000</property>
  <property name="eof">pause</property>
  <property name="resource">images/ai-generic-objects-Lamp.png</property>
  <property name="ttl">25</property>
  <property name="aspect_ratio">1</property>
  <property name="progressive">1</property>
  <property name="seekable">1</property>
  <property name="format">2</property>
  <property name="meta.media.width">1581</property>
  <property name="meta.media.height">1581</property>
  <property name="mlt_service">qimage</property>
  <property name="kdenlive:clipname"/>
  <property name="kdenlive:duration">00:00:05:00</property>
  <property name="kdenlive:folderid">28</property>
  <property name="kdenlive:id">34</property>
  <property name="kdenlive:clip_type">2</property>
  <property name="kdenlive:file_size">2217081</property>
  <property name="kdenlive:file_hash">7c95f53df5a58686c61c9cbfc36effef</property>
 </producer>
 <producer id="producer18" in="00:00:00.000" out="00:00:04.960">
  <property name="length">00:00:05.000</property>
  <property name="eof">pause</property>
  <property name="resource">images/ai-generic-objects-Table.png</property>
  <property name="ttl">25</property>
  <property name="aspect_ratio">1</property>
  <property name="progressive">1</property>
  <property name="seekable">1</property>
  <property name="format">2</property>
  <property name="meta.media.width">1581</property>
  <property name="meta.media.height">1581</property>
  <property name="mlt_service">qimage</property>
  <property name="kdenlive:clipname"/>
  <property name="kdenlive:duration">00:00:05:00</property>
  <property name="kdenlive:folderid">28</property>
  <property name="kdenlive:id">35</property>
  <property name="kdenlive:clip_type">2</property>
  <property name="kdenlive:file_size">2143342</property>
  <property name="kdenlive:file_hash">5287e6935c8d982cc034895bffc3fd83</property>
 </producer>
 <producer id="producer31" in="00:00:00.000" out="00:00:04.960">
  <property name="length">00:00:05.000</property>
  <property name="eof">pause</property>
  <property name="resource">images/ai-generic-objects-The Mona Lisa.png</property>
  <property name="ttl">25</property>
  <property name="aspect_ratio">1</property>
  <property name="progressive">1</property>
  <property name="seekable">1</property>
  <property name="format">2</property>
  <property name="meta.media.width">1581</property>
  <property name="meta.media.height">1581</property>
  <property name="mlt_service">qimage</property>
  <property name="kdenlive:clipname"/>
  <property name="kdenlive:duration">00:00:05:00</property>
  <property name="kdenlive:folderid">28</property>
  <property name="kdenlive:id">36</property>
  <property name="kdenlive:clip_type">2</property>
  <property name="kdenlive:file_size">4623634</property>
  <property name="kdenlive:file_hash">d1225e7e2a355c2b9b4a09dd416d19cf</property>
 </producer>
 <producer id="producer139" in="00:00:00.000" out="00:00:04.960">
  <property name="length">00:00:05.000</property>
  <property name="eof">pause</property>
  <property name="resource">images/ai-generic-objects.xcf</property>
  <property name="ttl">25</property>
  <property name="aspect_ratio">1</property>
  <property name="progressive">1</property>
  <property name="seekable">1</property>
  <property name="format">1</property>
  <property name="meta.media.width">1581</property>
  <property name="meta.media.height">1581</property>
  <property name="mlt_service">qimage</property>
  <property name="kdenlive:clipname"/>
  <property name="kdenlive:duration">00:00:05:00</property>
  <property name="kdenlive:folderid">28</property>
  <property name="kdenlive:id">37</property>
  <property name="kdenlive:clip_type">2</property>
  <property name="kdenlive:file_size">52754677</property>
  <property name="kdenlive:file_hash">82ab1c311c6d28367fc57f8950fa8bc6</property>
 </producer>
 <producer id="producer20" in="00:00:00.000" out="00:00:35.080">
  <property name="length">878</property>
  <property name="eof">pause</property>
  <property name="resource">images/ai-signature-copying-example-0-ai.jpg</property>
  <property name="ttl">25</property>
  <property name="aspect_ratio">1</property>
  <property name="progressive">1</property>
  <property name="seekable">1</property>
  <property name="format">1</property>
  <property name="meta.media.width">995</property>
  <property name="meta.media.height">461</property>
  <property name="mlt_service">qimage</property>
  <property name="kdenlive:clipname"/>
  <property name="kdenlive:duration">00:00:05:00</property>
  <property name="kdenlive:folderid">28</property>
  <property name="kdenlive:id">38</property>
  <property name="kdenlive:clip_type">2</property>
  <property name="kdenlive:file_size">11790</property>
  <property name="kdenlive:file_hash">ac204c9f0c0457c669d11fb864ac1beb</property>
 </producer>
 <producer id="producer22" in="00:00:00.000" out="00:00:04.960">
  <property name="length">00:00:05.000</property>
  <property name="eof">pause</property>
  <property name="resource">images/ai-signature-copying-example-0-orig.jpg</property>
  <property name="ttl">25</property>
  <property name="aspect_ratio">1</property>
  <property name="progressive">1</property>
  <property name="seekable">1</property>
  <property name="format">1</property>
  <property name="meta.media.width">901</property>
  <property name="meta.media.height">381</property>
  <property name="mlt_service">qimage</property>
  <property name="kdenlive:clipname"/>
  <property name="kdenlive:duration">00:00:05:00</property>
  <property name="kdenlive:folderid">28</property>
  <property name="kdenlive:id">39</property>
  <property name="kdenlive:clip_type">2</property>
  <property name="kdenlive:file_size">12336</property>
  <property name="kdenlive:file_hash">3a7b9dd584079ba5ef5e021ba77479bf</property>
 </producer>
 <producer id="producer24" in="00:00:00.000" out="00:00:04.960">
  <property name="length">00:00:05.000</property>
  <property name="eof">pause</property>
  <property name="resource">images/ai-signature-copying-example-0-tweet.png</property>
  <property name="ttl">25</property>
  <property name="aspect_ratio">1</property>
  <property name="progressive">1</property>
  <property name="seekable">1</property>
  <property name="format">1</property>
  <property name="meta.media.width">603</property>
  <property name="meta.media.height">652</property>
  <property name="mlt_service">qimage</property>
  <property name="kdenlive:clipname"/>
  <property name="kdenlive:duration">00:00:05:00</property>
  <property name="kdenlive:folderid">28</property>
  <property name="kdenlive:id">40</property>
  <property name="kdenlive:clip_type">2</property>
  <property name="kdenlive:file_size">178681</property>
  <property name="kdenlive:file_hash">d32adaf6194ea17cf452e197d1fb3ccd</property>
 </producer>
 <producer id="producer23" in="00:00:00.000" out="00:00:04.960">
  <property name="length">00:00:05.000</property>
  <property name="eof">pause</property>
  <property name="resource">images/automate lower jobs.png</property>
  <property name="ttl">25</property>
  <property name="aspect_ratio">1</property>
  <property name="progressive">1</property>
  <property name="seekable">1</property>
  <property name="format">1</property>
  <property name="meta.media.width">1252</property>
  <property name="meta.media.height">140</property>
  <property name="mlt_service">qimage</property>
  <property name="kdenlive:clipname"/>
  <property name="kdenlive:duration">00:00:05:00</property>
  <property name="kdenlive:folderid">28</property>
  <property name="kdenlive:id">41</property>
  <property name="kdenlive:clip_type">2</property>
  <property name="kdenlive:file_size">26782</property>
  <property name="kdenlive:file_hash">21afb37988b0709b2db53acfd87045cf</property>
 </producer>
 <producer id="producer25" in="00:00:00.000" out="00:00:04.960">
  <property name="length">00:00:05.000</property>
  <property name="eof">pause</property>
  <property name="resource">images/bart simpson.png</property>
  <property name="ttl">25</property>
  <property name="aspect_ratio">1</property>
  <property name="progressive">1</property>
  <property name="seekable">1</property>
  <property name="format">1</property>
  <property name="meta.media.width">711</property>
  <property name="meta.media.height">958</property>
  <property name="mlt_service">qimage</property>
  <property name="kdenlive:clipname"/>
  <property name="kdenlive:duration">00:00:05:00</property>
  <property name="kdenlive:folderid">28</property>
  <property name="kdenlive:id">42</property>
  <property name="kdenlive:clip_type">2</property>
  <property name="kdenlive:file_size">284125</property>
  <property name="kdenlive:file_hash">a95dba7feb0921ad21680a9e8fbe4849</property>
 </producer>
 <producer id="producer26" in="00:00:00.000" out="00:00:04.960">
  <property name="length">00:00:05.000</property>
  <property name="eof">pause</property>
  <property name="resource">images/bullying-corridor-absolute-cancer.png</property>
  <property name="ttl">25</property>
  <property name="aspect_ratio">1</property>
  <property name="progressive">1</property>
  <property name="seekable">1</property>
  <property name="format">1</property>
  <property name="meta.media.width">600</property>
  <property name="meta.media.height">201</property>
  <property name="mlt_service">qimage</property>
  <property name="kdenlive:clipname"/>
  <property name="kdenlive:duration">00:00:05:00</property>
  <property name="kdenlive:folderid">28</property>
  <property name="kdenlive:id">43</property>
  <property name="kdenlive:clip_type">2</property>
  <property name="kdenlive:file_size">28664</property>
  <property name="kdenlive:file_hash">e4ba1f53a3ba2ea5b187c7ea320c5d35</property>
 </producer>
 <producer id="producer27" in="00:00:00.000" out="00:00:04.960">
  <property name="length">00:00:05.000</property>
  <property name="eof">pause</property>
  <property name="resource">images/bullying-corridor-anti-america.png</property>
  <property name="ttl">25</property>
  <property name="aspect_ratio">1</property>
  <property name="progressive">1</property>
  <property name="seekable">1</property>
  <property name="format">1</property>
  <property name="meta.media.width">599</property>
  <property name="meta.media.height">491</property>
  <property name="mlt_service">qimage</property>
  <property name="kdenlive:clipname"/>
  <property name="kdenlive:duration">00:00:05:00</property>
  <property name="kdenlive:folderid">28</property>
  <property name="kdenlive:id">44</property>
  <property name="kdenlive:clip_type">2</property>
  <property name="kdenlive:file_size">101170</property>
  <property name="kdenlive:file_hash">f496027dccbb12e3704b728a47de994b</property>
 </producer>
 <producer id="producer28" in="00:00:00.000" out="00:00:04.960">
  <property name="length">00:00:05.000</property>
  <property name="eof">pause</property>
  <property name="resource">images/bullying-corridor-deserve-zero-support.png</property>
  <property name="ttl">25</property>
  <property name="aspect_ratio">1</property>
  <property name="progressive">1</property>
  <property name="seekable">1</property>
  <property name="format">1</property>
  <property name="meta.media.width">600</property>
  <property name="meta.media.height">281</property>
  <property name="mlt_service">qimage</property>
  <property name="kdenlive:clipname"/>
  <property name="kdenlive:duration">00:00:05:00</property>
  <property name="kdenlive:folderid">28</property>
  <property name="kdenlive:id">45</property>
  <property name="kdenlive:clip_type">2</property>
  <property name="kdenlive:file_size">39926</property>
  <property name="kdenlive:file_hash">e9f0c43b7ecedf2b3119c51616b6bfde</property>
 </producer>
 <producer id="producer29" in="00:00:00.000" out="00:00:04.960">
  <property name="length">00:00:05.000</property>
  <property name="eof">pause</property>
  <property name="resource">images/bullying-corridor-garbage.png</property>
  <property name="ttl">25</property>
  <property name="aspect_ratio">1</property>
  <property name="progressive">1</property>
  <property name="seekable">1</property>
  <property name="format">1</property>
  <property name="meta.media.width">600</property>
  <property name="meta.media.height">203</property>
  <property name="mlt_service">qimage</property>
  <property name="kdenlive:clipname"/>
  <property name="kdenlive:duration">00:00:05:00</property>
  <property name="kdenlive:folderid">28</property>
  <property name="kdenlive:id">46</property>
  <property name="kdenlive:clip_type">2</property>
  <property name="kdenlive:file_size">33415</property>
  <property name="kdenlive:file_hash">921b813f97da3799c829b0f5a59bdc91</property>
 </producer>
 <producer id="producer30" in="00:00:00.000" out="00:00:04.960">
  <property name="length">00:00:05.000</property>
  <property name="eof">pause</property>
  <property name="resource">images/bullying-corridor-getting-it-right-prototype.png</property>
  <property name="ttl">25</property>
  <property name="aspect_ratio">1</property>
  <property name="progressive">1</property>
  <property name="seekable">1</property>
  <property name="format">1</property>
  <property name="meta.media.width">601</property>
  <property name="meta.media.height">768</property>
  <property name="mlt_service">qimage</property>
  <property name="kdenlive:clipname"/>
  <property name="kdenlive:duration">00:00:05:00</property>
  <property name="kdenlive:folderid">28</property>
  <property name="kdenlive:id">47</property>
  <property name="kdenlive:clip_type">2</property>
  <property name="kdenlive:file_size">210490</property>
  <property name="kdenlive:file_hash">69d1d8f1a14391516d2135048aac5de0</property>
 </producer>
 <producer id="producer33" in="00:00:00.000" out="00:00:04.960">
  <property name="length">00:00:05.000</property>
  <property name="eof">pause</property>
  <property name="resource">images/bullying-corridor-getting-it-right-regurgitation.png</property>
  <property name="ttl">25</property>
  <property name="aspect_ratio">1</property>
  <property name="progressive">1</property>
  <property name="seekable">1</property>
  <property name="format">1</property>
  <property name="meta.media.width">597</property>
  <property name="meta.media.height">811</property>
  <property name="mlt_service">qimage</property>
  <property name="kdenlive:clipname"/>
  <property name="kdenlive:duration">00:00:05:00</property>
  <property name="kdenlive:folderid">28</property>
  <property name="kdenlive:id">48</property>
  <property name="kdenlive:clip_type">2</property>
  <property name="kdenlive:file_size">485017</property>
  <property name="kdenlive:file_hash">e04c1628f1c237aecda17fb3b5aa2f3a</property>
 </producer>
 <producer id="producer32" in="00:00:00.000" out="00:00:04.960">
  <property name="length">00:00:05.000</property>
  <property name="eof">pause</property>
  <property name="resource">images/bullying-corridor-looks-like-shit.png</property>
  <property name="ttl">25</property>
  <property name="aspect_ratio">1</property>
  <property name="progressive">1</property>
  <property name="seekable">1</property>
  <property name="format">1</property>
  <property name="meta.media.width">598</property>
  <property name="meta.media.height">222</property>
  <property name="mlt_service">qimage</property>
  <property name="kdenlive:clipname"/>
  <property name="kdenlive:duration">00:00:05:00</property>
  <property name="kdenlive:folderid">28</property>
  <property name="kdenlive:id">49</property>
  <property name="kdenlive:clip_type">2</property>
  <property name="kdenlive:file_size">34318</property>
  <property name="kdenlive:file_hash">8707430d089dd3b440a101ffbb230a53</property>
 </producer>
 <producer id="producer35" in="00:00:00.000" out="00:00:04.960">
  <property name="length">00:00:05.000</property>
  <property name="eof">pause</property>
  <property name="resource">images/bullying-corridor-loser-piece-of-shit-hacks.png</property>
  <property name="ttl">25</property>
  <property name="aspect_ratio">1</property>
  <property name="progressive">1</property>
  <property name="seekable">1</property>
  <property name="format">1</property>
  <property name="meta.media.width">602</property>
  <property name="meta.media.height">513</property>
  <property name="mlt_service">qimage</property>
  <property name="kdenlive:clipname"/>
  <property name="kdenlive:duration">00:00:05:00</property>
  <property name="kdenlive:folderid">28</property>
  <property name="kdenlive:id">50</property>
  <property name="kdenlive:clip_type">2</property>
  <property name="kdenlive:file_size">114379</property>
  <property name="kdenlive:file_hash">c14fc16920078f211741d42f876153f5</property>
 </producer>
 <producer id="producer34" in="00:00:00.000" out="00:00:04.960">
  <property name="length">00:00:05.000</property>
  <property name="eof">pause</property>
  <property name="resource">images/bullying-corridor-misc-0.png</property>
  <property name="ttl">25</property>
  <property name="aspect_ratio">1</property>
  <property name="progressive">1</property>
  <property name="seekable">1</property>
  <property name="format">1</property>
  <property name="meta.media.width">598</property>
  <property name="meta.media.height">302</property>
  <property name="mlt_service">qimage</property>
  <property name="kdenlive:clipname"/>
  <property name="kdenlive:duration">00:00:05:00</property>
  <property name="kdenlive:folderid">28</property>
  <property name="kdenlive:id">51</property>
  <property name="kdenlive:clip_type">2</property>
  <property name="kdenlive:file_size">53195</property>
  <property name="kdenlive:file_hash">0340cfc8a8a248b374828152e3e6cee5</property>
 </producer>
 <producer id="producer36" in="00:00:00.000" out="00:00:04.960">
  <property name="length">00:00:05.000</property>
  <property name="eof">pause</property>
  <property name="resource">images/bullying-corridor-misc-1.png</property>
  <property name="ttl">25</property>
  <property name="aspect_ratio">1</property>
  <property name="progressive">1</property>
  <property name="seekable">1</property>
  <property name="format">1</property>
  <property name="meta.media.width">601</property>
  <property name="meta.media.height">620</property>
  <property name="mlt_service">qimage</property>
  <property name="kdenlive:clipname"/>
  <property name="kdenlive:duration">00:00:05:00</property>
  <property name="kdenlive:folderid">28</property>
  <property name="kdenlive:id">52</property>
  <property name="kdenlive:clip_type">2</property>
  <property name="kdenlive:file_size">306114</property>
  <property name="kdenlive:file_hash">74a1ea7f309fd0966adce5640690ef5f</property>
 </producer>
 <producer id="producer37" in="00:00:00.000" out="00:00:04.960">
  <property name="length">00:00:05.000</property>
  <property name="eof">pause</property>
  <property name="resource">images/bullying-corridor-misc-10.png</property>
  <property name="ttl">25</property>
  <property name="aspect_ratio">1</property>
  <property name="progressive">1</property>
  <property name="seekable">1</property>
  <property name="format">1</property>
  <property name="meta.media.width">598</property>
  <property name="meta.media.height">714</property>
  <property name="mlt_service">qimage</property>
  <property name="kdenlive:clipname"/>
  <property name="kdenlive:duration">00:00:05:00</property>
  <property name="kdenlive:folderid">28</property>
  <property name="kdenlive:id">53</property>
  <property name="kdenlive:clip_type">2</property>
  <property name="kdenlive:file_size">470899</property>
  <property name="kdenlive:file_hash">bad7eada23ab6fe22ef45a319ad7a98f</property>
 </producer>
 <producer id="producer38" in="00:00:00.000" out="00:00:04.960">
  <property name="length">00:00:05.000</property>
  <property name="eof">pause</property>
  <property name="resource">images/bullying-corridor-misc-11.png</property>
  <property name="ttl">25</property>
  <property name="aspect_ratio">1</property>
  <property name="progressive">1</property>
  <property name="seekable">1</property>
  <property name="format">1</property>
  <property name="meta.media.width">601</property>
  <property name="meta.media.height">796</property>
  <property name="mlt_service">qimage</property>
  <property name="kdenlive:clipname"/>
  <property name="kdenlive:duration">00:00:05:00</property>
  <property name="kdenlive:folderid">28</property>
  <property name="kdenlive:id">54</property>
  <property name="kdenlive:clip_type">2</property>
  <property name="kdenlive:file_size">487352</property>
  <property name="kdenlive:file_hash">0e95f2b02c29e5f50aa992e3136a8283</property>
 </producer>
 <producer id="producer39" in="00:00:00.000" out="00:00:04.960">
  <property name="length">00:00:05.000</property>
  <property name="eof">pause</property>
  <property name="resource">images/bullying-corridor-misc-12.png</property>
  <property name="ttl">25</property>
  <property name="aspect_ratio">1</property>
  <property name="progressive">1</property>
  <property name="seekable">1</property>
  <property name="format">1</property>
  <property name="meta.media.width">600</property>
  <property name="meta.media.height">717</property>
  <property name="mlt_service">qimage</property>
  <property name="kdenlive:clipname"/>
  <property name="kdenlive:duration">00:00:05:00</property>
  <property name="kdenlive:folderid">28</property>
  <property name="kdenlive:id">55</property>
  <property name="kdenlive:clip_type">2</property>
  <property name="kdenlive:file_size">472058</property>
  <property name="kdenlive:file_hash">d0a6f120e880c6f33835e59fc19734e2</property>
 </producer>
 <producer id="producer43" in="00:00:00.000" out="00:00:04.960">
  <property name="length">00:00:05.000</property>
  <property name="eof">pause</property>
  <property name="resource">images/bullying-corridor-misc-13.png</property>
  <property name="ttl">25</property>
  <property name="aspect_ratio">1</property>
  <property name="progressive">1</property>
  <property name="seekable">1</property>
  <property name="format">1</property>
  <property name="meta.media.width">602</property>
  <property name="meta.media.height">718</property>
  <property name="mlt_service">qimage</property>
  <property name="kdenlive:clipname"/>
  <property name="kdenlive:duration">00:00:05:00</property>
  <property name="kdenlive:folderid">28</property>
  <property name="kdenlive:id">56</property>
  <property name="kdenlive:clip_type">2</property>
  <property name="kdenlive:file_size">469903</property>
  <property name="kdenlive:file_hash">0d4595366aa3a77bf367db712a602c10</property>
 </producer>
 <producer id="producer41" in="00:00:00.000" out="00:00:04.960">
  <property name="length">00:00:05.000</property>
  <property name="eof">pause</property>
  <property name="resource">images/bullying-corridor-misc-14.png</property>
  <property name="ttl">25</property>
  <property name="aspect_ratio">1</property>
  <property name="progressive">1</property>
  <property name="seekable">1</property>
  <property name="format">1</property>
  <property name="meta.media.width">600</property>
  <property name="meta.media.height">717</property>
  <property name="mlt_service">qimage</property>
  <property name="kdenlive:clipname"/>
  <property name="kdenlive:duration">00:00:05:00</property>
  <property name="kdenlive:folderid">28</property>
  <property name="kdenlive:id">57</property>
  <property name="kdenlive:clip_type">2</property>
  <property name="kdenlive:file_size">472378</property>
  <property name="kdenlive:file_hash">698e3922f6639dea245e68d0854e8f81</property>
 </producer>
 <producer id="producer42" in="00:00:00.000" out="00:00:04.960">
  <property name="length">00:00:05.000</property>
  <property name="eof">pause</property>
  <property name="resource">images/bullying-corridor-misc-15.png</property>
  <property name="ttl">25</property>
  <property name="aspect_ratio">1</property>
  <property name="progressive">1</property>
  <property name="seekable">1</property>
  <property name="format">1</property>
  <property name="meta.media.width">601</property>
  <property name="meta.media.height">776</property>
  <property name="mlt_service">qimage</property>
  <property name="kdenlive:clipname"/>
  <property name="kdenlive:duration">00:00:05:00</property>
  <property name="kdenlive:folderid">28</property>
  <property name="kdenlive:id">58</property>
  <property name="kdenlive:clip_type">2</property>
  <property name="kdenlive:file_size">489256</property>
  <property name="kdenlive:file_hash">36314579a4e763f0f5cce72d4e161407</property>
 </producer>
 <producer id="producer44" in="00:00:00.000" out="00:00:04.960">
  <property name="length">00:00:05.000</property>
  <property name="eof">pause</property>
  <property name="resource">images/bullying-corridor-misc-16.png</property>
  <property name="ttl">25</property>
  <property name="aspect_ratio">1</property>
  <property name="progressive">1</property>
  <property name="seekable">1</property>
  <property name="format">1</property>
  <property name="meta.media.width">600</property>
  <property name="meta.media.height">715</property>
  <property name="mlt_service">qimage</property>
  <property name="kdenlive:clipname"/>
  <property name="kdenlive:duration">00:00:05:00</property>
  <property name="kdenlive:folderid">28</property>
  <property name="kdenlive:id">59</property>
  <property name="kdenlive:clip_type">2</property>
  <property name="kdenlive:file_size">472557</property>
  <property name="kdenlive:file_hash">33b1f3341657eb97e45182a2af1c0da2</property>
 </producer>
 <producer id="producer45" in="00:00:00.000" out="00:00:04.960">
  <property name="length">00:00:05.000</property>
  <property name="eof">pause</property>
  <property name="resource">images/bullying-corridor-misc-17.png</property>
  <property name="ttl">25</property>
  <property name="aspect_ratio">1</property>
  <property name="progressive">1</property>
  <property name="seekable">1</property>
  <property name="format">1</property>
  <property name="meta.media.width">599</property>
  <property name="meta.media.height">713</property>
  <property name="mlt_service">qimage</property>
  <property name="kdenlive:clipname"/>
  <property name="kdenlive:duration">00:00:05:00</property>
  <property name="kdenlive:folderid">28</property>
  <property name="kdenlive:id">60</property>
  <property name="kdenlive:clip_type">2</property>
  <property name="kdenlive:file_size">468739</property>
  <property name="kdenlive:file_hash">983ebb769932bdf688ac1a9cc8b7415b</property>
 </producer>
 <producer id="producer46" in="00:00:00.000" out="00:00:04.960">
  <property name="length">00:00:05.000</property>
  <property name="eof">pause</property>
  <property name="resource">images/bullying-corridor-misc-18.png</property>
  <property name="ttl">25</property>
  <property name="aspect_ratio">1</property>
  <property name="progressive">1</property>
  <property name="seekable">1</property>
  <property name="format">1</property>
  <property name="meta.media.width">600</property>
  <property name="meta.media.height">611</property>
  <property name="mlt_service">qimage</property>
  <property name="kdenlive:clipname"/>
  <property name="kdenlive:duration">00:00:05:00</property>
  <property name="kdenlive:folderid">28</property>
  <property name="kdenlive:id">61</property>
  <property name="kdenlive:clip_type">2</property>
  <property name="kdenlive:file_size">99440</property>
  <property name="kdenlive:file_hash">8c65aca03f68e43f7e8bf65866f53432</property>
 </producer>
 <producer id="producer48" in="00:00:00.000" out="00:00:04.960">
  <property name="length">00:00:05.000</property>
  <property name="eof">pause</property>
  <property name="resource">images/bullying-corridor-misc-19.png</property>
  <property name="ttl">25</property>
  <property name="aspect_ratio">1</property>
  <property name="progressive">1</property>
  <property name="seekable">1</property>
  <property name="format">1</property>
  <property name="meta.media.width">600</property>
  <property name="meta.media.height">505</property>
  <property name="mlt_service">qimage</property>
  <property name="kdenlive:clipname"/>
  <property name="kdenlive:duration">00:00:05:00</property>
  <property name="kdenlive:folderid">28</property>
  <property name="kdenlive:id">62</property>
  <property name="kdenlive:clip_type">2</property>
  <property name="kdenlive:file_size">203997</property>
  <property name="kdenlive:file_hash">8ccdec1c1fcc0c080077c2decef514e0</property>
 </producer>
 <producer id="producer47" in="00:00:00.000" out="00:00:04.960">
  <property name="length">00:00:05.000</property>
  <property name="eof">pause</property>
  <property name="resource">images/bullying-corridor-misc-2.png</property>
  <property name="ttl">25</property>
  <property name="aspect_ratio">1</property>
  <property name="progressive">1</property>
  <property name="seekable">1</property>
  <property name="format">1</property>
  <property name="meta.media.width">600</property>
  <property name="meta.media.height">220</property>
  <property name="mlt_service">qimage</property>
  <property name="kdenlive:clipname"/>
  <property name="kdenlive:duration">00:00:05:00</property>
  <property name="kdenlive:folderid">28</property>
  <property name="kdenlive:id">63</property>
  <property name="kdenlive:clip_type">2</property>
  <property name="kdenlive:file_size">33682</property>
  <property name="kdenlive:file_hash">af055ff4a5e0915333fac6c883ea65d6</property>
 </producer>
 <producer id="producer49" in="00:00:00.000" out="00:00:04.960">
  <property name="length">00:00:05.000</property>
  <property name="eof">pause</property>
  <property name="resource">images/bullying-corridor-misc-20.png</property>
  <property name="ttl">25</property>
  <property name="aspect_ratio">1</property>
  <property name="progressive">1</property>
  <property name="seekable">1</property>
  <property name="format">1</property>
  <property name="meta.media.width">601</property>
  <property name="meta.media.height">239</property>
  <property name="mlt_service">qimage</property>
  <property name="kdenlive:clipname"/>
  <property name="kdenlive:duration">00:00:05:00</property>
  <property name="kdenlive:folderid">28</property>
  <property name="kdenlive:id">64</property>
  <property name="kdenlive:clip_type">2</property>
  <property name="kdenlive:file_size">42535</property>
  <property name="kdenlive:file_hash">a8a91cb9e510f1578a2118d9a7534400</property>
 </producer>
 <producer id="producer51" in="00:00:00.000" out="00:00:04.960">
  <property name="length">00:00:05.000</property>
  <property name="eof">pause</property>
  <property name="resource">images/bullying-corridor-misc-21.png</property>
  <property name="ttl">25</property>
  <property name="aspect_ratio">1</property>
  <property name="progressive">1</property>
  <property name="seekable">1</property>
  <property name="format">1</property>
  <property name="meta.media.width">599</property>
  <property name="meta.media.height">222</property>
  <property name="mlt_service">qimage</property>
  <property name="kdenlive:clipname"/>
  <property name="kdenlive:duration">00:00:05:00</property>
  <property name="kdenlive:folderid">28</property>
  <property name="kdenlive:id">65</property>
  <property name="kdenlive:clip_type">2</property>
  <property name="kdenlive:file_size">33802</property>
  <property name="kdenlive:file_hash">c9eaf2dbbe6e117f59fe8ff23ad120ed</property>
 </producer>
 <producer id="producer50" in="00:00:00.000" out="00:00:04.960">
  <property name="length">00:00:05.000</property>
  <property name="eof">pause</property>
  <property name="resource">images/bullying-corridor-misc-22.png</property>
  <property name="ttl">25</property>
  <property name="aspect_ratio">1</property>
  <property name="progressive">1</property>
  <property name="seekable">1</property>
  <property name="format">1</property>
  <property name="meta.media.width">602</property>
  <property name="meta.media.height">202</property>
  <property name="mlt_service">qimage</property>
  <property name="kdenlive:clipname"/>
  <property name="kdenlive:duration">00:00:05:00</property>
  <property name="kdenlive:folderid">28</property>
  <property name="kdenlive:id">66</property>
  <property name="kdenlive:clip_type">2</property>
  <property name="kdenlive:file_size">33488</property>
  <property name="kdenlive:file_hash">b57ae7bbd4e2d5cb7fd19ed452384e54</property>
 </producer>
 <producer id="producer53" in="00:00:00.000" out="00:00:04.960">
  <property name="length">00:00:05.000</property>
  <property name="eof">pause</property>
  <property name="resource">images/bullying-corridor-misc-23.png</property>
  <property name="ttl">25</property>
  <property name="aspect_ratio">1</property>
  <property name="progressive">1</property>
  <property name="seekable">1</property>
  <property name="format">1</property>
  <property name="meta.media.width">601</property>
  <property name="meta.media.height">707</property>
  <property name="mlt_service">qimage</property>
  <property name="kdenlive:clipname"/>
  <property name="kdenlive:duration">00:00:05:00</property>
  <property name="kdenlive:folderid">28</property>
  <property name="kdenlive:id">67</property>
  <property name="kdenlive:clip_type">2</property>
  <property name="kdenlive:file_size">98443</property>
  <property name="kdenlive:file_hash">cdceab3650bdc9db8baea6d01536c80b</property>
 </producer>
 <producer id="producer55" in="00:00:00.000" out="00:00:04.960">
  <property name="length">00:00:05.000</property>
  <property name="eof">pause</property>
  <property name="resource">images/bullying-corridor-misc-24.png</property>
  <property name="ttl">25</property>
  <property name="aspect_ratio">1</property>
  <property name="progressive">1</property>
  <property name="seekable">1</property>
  <property name="format">1</property>
  <property name="meta.media.width">598</property>
  <property name="meta.media.height">584</property>
  <property name="mlt_service">qimage</property>
  <property name="kdenlive:clipname"/>
  <property name="kdenlive:duration">00:00:05:00</property>
  <property name="kdenlive:folderid">28</property>
  <property name="kdenlive:id">68</property>
  <property name="kdenlive:clip_type">2</property>
  <property name="kdenlive:file_size">283067</property>
  <property name="kdenlive:file_hash">8a5a5b8510c75d33df4eb09166a915a6</property>
 </producer>
 <producer id="producer52" in="00:00:00.000" out="00:00:04.960">
  <property name="length">00:00:05.000</property>
  <property name="eof">pause</property>
  <property name="resource">images/bullying-corridor-misc-3.png</property>
  <property name="ttl">25</property>
  <property name="aspect_ratio">1</property>
  <property name="progressive">1</property>
  <property name="seekable">1</property>
  <property name="format">1</property>
  <property name="meta.media.width">600</property>
  <property name="meta.media.height">220</property>
  <property name="mlt_service">qimage</property>
  <property name="kdenlive:clipname"/>
  <property name="kdenlive:duration">00:00:05:00</property>
  <property name="kdenlive:folderid">28</property>
  <property name="kdenlive:id">69</property>
  <property name="kdenlive:clip_type">2</property>
  <property name="kdenlive:file_size">39406</property>
  <property name="kdenlive:file_hash">a5ba3d0d8b394fc926850bf33f2adc54</property>
 </producer>
 <producer id="producer54" in="00:00:00.000" out="00:00:04.960">
  <property name="length">00:00:05.000</property>
  <property name="eof">pause</property>
  <property name="resource">images/bullying-corridor-misc-4.png</property>
  <property name="ttl">25</property>
  <property name="aspect_ratio">1</property>
  <property name="progressive">1</property>
  <property name="seekable">1</property>
  <property name="format">1</property>
  <property name="meta.media.width">601</property>
  <property name="meta.media.height">221</property>
  <property name="mlt_service">qimage</property>
  <property name="kdenlive:clipname"/>
  <property name="kdenlive:duration">00:00:05:00</property>
  <property name="kdenlive:folderid">28</property>
  <property name="kdenlive:id">70</property>
  <property name="kdenlive:clip_type">2</property>
  <property name="kdenlive:file_size">33513</property>
  <property name="kdenlive:file_hash">c63a5c4d75b6f0885d8e7d3ed2e019c4</property>
 </producer>
 <producer id="producer56" in="00:00:00.000" out="00:00:04.960">
  <property name="length">00:00:05.000</property>
  <property name="eof">pause</property>
  <property name="resource">images/bullying-corridor-misc-5.png</property>
  <property name="ttl">25</property>
  <property name="aspect_ratio">1</property>
  <property name="progressive">1</property>
  <property name="seekable">1</property>
  <property name="format">1</property>
  <property name="meta.media.width">603</property>
  <property name="meta.media.height">324</property>
  <property name="mlt_service">qimage</property>
  <property name="kdenlive:clipname"/>
  <property name="kdenlive:duration">00:00:05:00</property>
  <property name="kdenlive:folderid">28</property>
  <property name="kdenlive:id">71</property>
  <property name="kdenlive:clip_type">2</property>
  <property name="kdenlive:file_size">56977</property>
  <property name="kdenlive:file_hash">d0bbb7c6e725e5a73e9209ff3199f521</property>
 </producer>
 <producer id="producer57" in="00:00:00.000" out="00:00:04.960">
  <property name="length">00:00:05.000</property>
  <property name="eof">pause</property>
  <property name="resource">images/bullying-corridor-misc-6.png</property>
  <property name="ttl">25</property>
  <property name="aspect_ratio">1</property>
  <property name="progressive">1</property>
  <property name="seekable">1</property>
  <property name="format">1</property>
  <property name="meta.media.width">599</property>
  <property name="meta.media.height">260</property>
  <property name="mlt_service">qimage</property>
  <property name="kdenlive:clipname"/>
  <property name="kdenlive:duration">00:00:05:00</property>
  <property name="kdenlive:folderid">28</property>
  <property name="kdenlive:id">72</property>
  <property name="kdenlive:clip_type">2</property>
  <property name="kdenlive:file_size">51884</property>
  <property name="kdenlive:file_hash">cd36818e9359d9bd925daa8275449e39</property>
 </producer>
 <producer id="producer58" in="00:00:00.000" out="00:00:04.960">
  <property name="length">00:00:05.000</property>
  <property name="eof">pause</property>
  <property name="resource">images/bullying-corridor-misc-7.png</property>
  <property name="ttl">25</property>
  <property name="aspect_ratio">1</property>
  <property name="progressive">1</property>
  <property name="seekable">1</property>
  <property name="format">1</property>
  <property name="meta.media.width">600</property>
  <property name="meta.media.height">766</property>
  <property name="mlt_service">qimage</property>
  <property name="kdenlive:clipname"/>
  <property name="kdenlive:duration">00:00:05:00</property>
  <property name="kdenlive:folderid">28</property>
  <property name="kdenlive:id">73</property>
  <property name="kdenlive:clip_type">2</property>
  <property name="kdenlive:file_size">374377</property>
  <property name="kdenlive:file_hash">23f677eae2665f7bb14f36405b09c61d</property>
 </producer>
 <producer id="producer59" in="00:00:00.000" out="00:00:04.960">
  <property name="length">00:00:05.000</property>
  <property name="eof">pause</property>
  <property name="resource">images/bullying-corridor-misc-8.png</property>
  <property name="ttl">25</property>
  <property name="aspect_ratio">1</property>
  <property name="progressive">1</property>
  <property name="seekable">1</property>
  <property name="format">1</property>
  <property name="meta.media.width">600</property>
  <property name="meta.media.height">738</property>
  <property name="mlt_service">qimage</property>
  <property name="kdenlive:clipname"/>
  <property name="kdenlive:duration">00:00:05:00</property>
  <property name="kdenlive:folderid">28</property>
  <property name="kdenlive:id">74</property>
  <property name="kdenlive:clip_type">2</property>
  <property name="kdenlive:file_size">481944</property>
  <property name="kdenlive:file_hash">dd1cd0231bff474d7826e30918d460d8</property>
 </producer>
 <producer id="producer64" in="00:00:00.000" out="00:00:04.960">
  <property name="length">00:00:05.000</property>
  <property name="eof">pause</property>
  <property name="resource">images/bullying-corridor-misc-9.png</property>
  <property name="ttl">25</property>
  <property name="aspect_ratio">1</property>
  <property name="progressive">1</property>
  <property name="seekable">1</property>
  <property name="format">1</property>
  <property name="meta.media.width">599</property>
  <property name="meta.media.height">756</property>
  <property name="mlt_service">qimage</property>
  <property name="kdenlive:clipname"/>
  <property name="kdenlive:duration">00:00:05:00</property>
  <property name="kdenlive:folderid">28</property>
  <property name="kdenlive:id">75</property>
  <property name="kdenlive:clip_type">2</property>
  <property name="kdenlive:file_size">470977</property>
  <property name="kdenlive:file_hash">e22a44229cedb991503c835b0912a5a5</property>
 </producer>
 <producer id="producer61" in="00:00:00.000" out="00:00:04.960">
  <property name="length">00:00:05.000</property>
  <property name="eof">pause</property>
  <property name="resource">images/bullying-corridor-monstrosity.png</property>
  <property name="ttl">25</property>
  <property name="aspect_ratio">1</property>
  <property name="progressive">1</property>
  <property name="seekable">1</property>
  <property name="format">1</property>
  <property name="meta.media.width">601</property>
  <property name="meta.media.height">221</property>
  <property name="mlt_service">qimage</property>
  <property name="kdenlive:clipname"/>
  <property name="kdenlive:duration">00:00:05:00</property>
  <property name="kdenlive:folderid">28</property>
  <property name="kdenlive:id">76</property>
  <property name="kdenlive:clip_type">2</property>
  <property name="kdenlive:file_size">38585</property>
  <property name="kdenlive:file_hash">4ca9e6833165ab8869ed01ec90692d22</property>
 </producer>
 <producer id="producer60" in="00:00:00.000" out="00:00:04.960">
  <property name="length">00:00:05.000</property>
  <property name="eof">pause</property>
  <property name="resource">images/bullying-corridor-no-work-and-love.png</property>
  <property name="ttl">25</property>
  <property name="aspect_ratio">1</property>
  <property name="progressive">1</property>
  <property name="seekable">1</property>
  <property name="format">1</property>
  <property name="meta.media.width">601</property>
  <property name="meta.media.height">247</property>
  <property name="mlt_service">qimage</property>
  <property name="kdenlive:clipname"/>
  <property name="kdenlive:duration">00:00:05:00</property>
  <property name="kdenlive:folderid">28</property>
  <property name="kdenlive:id">77</property>
  <property name="kdenlive:clip_type">2</property>
  <property name="kdenlive:file_size">43335</property>
  <property name="kdenlive:file_hash">d5e50e83ca548823178d0b9559d2129d</property>
 </producer>
 <producer id="producer63" in="00:00:00.000" out="00:00:04.960">
  <property name="length">00:00:05.000</property>
  <property name="eof">pause</property>
  <property name="resource">images/bullying-corridor-not-real-artists.png</property>
  <property name="ttl">25</property>
  <property name="aspect_ratio">1</property>
  <property name="progressive">1</property>
  <property name="seekable">1</property>
  <property name="format">1</property>
  <property name="meta.media.width">600</property>
  <property name="meta.media.height">472</property>
  <property name="mlt_service">qimage</property>
  <property name="kdenlive:clipname"/>
  <property name="kdenlive:duration">00:00:05:00</property>
  <property name="kdenlive:folderid">28</property>
  <property name="kdenlive:id">78</property>
  <property name="kdenlive:clip_type">2</property>
  <property name="kdenlive:file_size">114499</property>
  <property name="kdenlive:file_hash">ac686a0fe8422748a9d4c22237855b41</property>
 </producer>
 <producer id="producer62" in="00:00:00.000" out="00:00:04.960">
  <property name="length">00:00:05.000</property>
  <property name="eof">pause</property>
  <property name="resource">images/bullying-corridor-not-understanding-corridor-0.png</property>
  <property name="ttl">25</property>
  <property name="aspect_ratio">1</property>
  <property name="progressive">1</property>
  <property name="seekable">1</property>
  <property name="format">1</property>
  <property name="meta.media.width">602</property>
  <property name="meta.media.height">262</property>
  <property name="mlt_service">qimage</property>
  <property name="kdenlive:clipname"/>
  <property name="kdenlive:duration">00:00:05:00</property>
  <property name="kdenlive:folderid">28</property>
  <property name="kdenlive:id">79</property>
  <property name="kdenlive:clip_type">2</property>
  <property name="kdenlive:file_size">49519</property>
  <property name="kdenlive:file_hash">f75197d991c2d9b988fcde4d0846ea0a</property>
 </producer>
 <producer id="producer65" in="00:00:00.000" out="00:00:04.960">
  <property name="length">00:00:05.000</property>
  <property name="eof">pause</property>
  <property name="resource">images/bullying-corridor-not-understanding-corridor-1.png</property>
  <property name="ttl">25</property>
  <property name="aspect_ratio">1</property>
  <property name="progressive">1</property>
  <property name="seekable">1</property>
  <property name="format">1</property>
  <property name="meta.media.width">600</property>
  <property name="meta.media.height">764</property>
  <property name="mlt_service">qimage</property>
  <property name="kdenlive:clipname"/>
  <property name="kdenlive:duration">00:00:05:00</property>
  <property name="kdenlive:folderid">28</property>
  <property name="kdenlive:id">80</property>
  <property name="kdenlive:clip_type">2</property>
  <property name="kdenlive:file_size">225303</property>
  <property name="kdenlive:file_hash">66f6b8b850dd19cfe4b4c152dce6bd5c</property>
 </producer>
 <producer id="producer68" in="00:00:00.000" out="00:00:04.960">
  <property name="length">00:00:05.000</property>
  <property name="eof">pause</property>
  <property name="resource">images/bullying-corridor-not-understanding-corridor-2.png</property>
  <property name="ttl">25</property>
  <property name="aspect_ratio">1</property>
  <property name="progressive">1</property>
  <property name="seekable">1</property>
  <property name="format">1</property>
  <property name="meta.media.width">600</property>
  <property name="meta.media.height">262</property>
  <property name="mlt_service">qimage</property>
  <property name="kdenlive:clipname"/>
  <property name="kdenlive:duration">00:00:05:00</property>
  <property name="kdenlive:folderid">28</property>
  <property name="kdenlive:id">81</property>
  <property name="kdenlive:clip_type">2</property>
  <property name="kdenlive:file_size">50886</property>
  <property name="kdenlive:file_hash">8b9b7b2291793b061c2c4a49fd8a8311</property>
 </producer>
 <producer id="producer66" in="00:00:00.000" out="00:00:04.960">
  <property name="length">00:00:05.000</property>
  <property name="eof">pause</property>
  <property name="resource">images/bullying-corridor-not-understanding-corridor-3.png</property>
  <property name="ttl">25</property>
  <property name="aspect_ratio">1</property>
  <property name="progressive">1</property>
  <property name="seekable">1</property>
  <property name="format">1</property>
  <property name="meta.media.width">597</property>
  <property name="meta.media.height">529</property>
  <property name="mlt_service">qimage</property>
  <property name="kdenlive:clipname"/>
  <property name="kdenlive:duration">00:00:05:00</property>
  <property name="kdenlive:folderid">28</property>
  <property name="kdenlive:id">82</property>
  <property name="kdenlive:clip_type">2</property>
  <property name="kdenlive:file_size">80477</property>
  <property name="kdenlive:file_hash">4b0cc93021e5c63280149ccc305f1a44</property>
 </producer>
 <producer id="producer67" in="00:00:00.000" out="00:00:04.960">
  <property name="length">00:00:05.000</property>
  <property name="eof">pause</property>
  <property name="resource">images/bullying-corridor-rats.png</property>
  <property name="ttl">25</property>
  <property name="aspect_ratio">1</property>
  <property name="progressive">1</property>
  <property name="seekable">1</property>
  <property name="format">1</property>
  <property name="meta.media.width">598</property>
  <property name="meta.media.height">202</property>
  <property name="mlt_service">qimage</property>
  <property name="kdenlive:clipname"/>
  <property name="kdenlive:duration">00:00:05:00</property>
  <property name="kdenlive:folderid">28</property>
  <property name="kdenlive:id">83</property>
  <property name="kdenlive:clip_type">2</property>
  <property name="kdenlive:file_size">29051</property>
  <property name="kdenlive:file_hash">816280caac065659ec6e831db387ab2b</property>
 </producer>
 <producer id="producer69" in="00:00:00.000" out="00:00:04.960">
  <property name="length">00:00:05.000</property>
  <property name="eof">pause</property>
  <property name="resource">images/bullying-corridor-right-to-flame-them.png</property>
  <property name="ttl">25</property>
  <property name="aspect_ratio">1</property>
  <property name="progressive">1</property>
  <property name="seekable">1</property>
  <property name="format">1</property>
  <property name="meta.media.width">600</property>
  <property name="meta.media.height">279</property>
  <property name="mlt_service">qimage</property>
  <property name="kdenlive:clipname"/>
  <property name="kdenlive:duration">00:00:05:00</property>
  <property name="kdenlive:folderid">28</property>
  <property name="kdenlive:id">84</property>
  <property name="kdenlive:clip_type">2</property>
  <property name="kdenlive:file_size">54860</property>
  <property name="kdenlive:file_hash">284bfaba80f73b0e729d22297f06e24a</property>
 </producer>
 <producer id="producer70" in="00:00:00.000" out="00:00:04.960">
  <property name="length">00:00:05.000</property>
  <property name="eof">pause</property>
  <property name="resource">images/bullying-corridor-shirt-0.png</property>
  <property name="ttl">25</property>
  <property name="aspect_ratio">1</property>
  <property name="progressive">1</property>
  <property name="seekable">1</property>
  <property name="format">1</property>
  <property name="meta.media.width">624</property>
  <property name="meta.media.height">1099</property>
  <property name="mlt_service">qimage</property>
  <property name="kdenlive:clipname"/>
  <property name="kdenlive:duration">00:00:05:00</property>
  <property name="kdenlive:folderid">28</property>
  <property name="kdenlive:id">85</property>
  <property name="kdenlive:clip_type">2</property>
  <property name="kdenlive:file_size">751131</property>
  <property name="kdenlive:file_hash">a1a0963732f504bbec47d84f1539819e</property>
 </producer>
 <producer id="producer72" in="00:00:00.000" out="00:00:04.960">
  <property name="length">00:00:05.000</property>
  <property name="eof">pause</property>
  <property name="resource">images/bullying-corridor-shirt-1.png</property>
  <property name="ttl">25</property>
  <property name="aspect_ratio">1</property>
  <property name="progressive">1</property>
  <property name="seekable">1</property>
  <property name="format">1</property>
  <property name="meta.media.width">617</property>
  <property name="meta.media.height">1092</property>
  <property name="mlt_service">qimage</property>
  <property name="kdenlive:clipname"/>
  <property name="kdenlive:duration">00:00:05:00</property>
  <property name="kdenlive:folderid">28</property>
  <property name="kdenlive:id">86</property>
  <property name="kdenlive:clip_type">2</property>
  <property name="kdenlive:file_size">785852</property>
  <property name="kdenlive:file_hash">bf5df8e7829e31691e13bb9433b6939b</property>
 </producer>
 <producer id="producer71" in="00:00:00.000" out="00:00:04.960">
  <property name="length">00:00:05.000</property>
  <property name="eof">pause</property>
  <property name="resource">images/bullying-corridor-shirt-2.png</property>
  <property name="ttl">25</property>
  <property name="aspect_ratio">1</property>
  <property name="progressive">1</property>
  <property name="seekable">1</property>
  <property name="format">1</property>
  <property name="meta.media.width">617</property>
  <property name="meta.media.height">1089</property>
  <property name="mlt_service">qimage</property>
  <property name="kdenlive:clipname"/>
  <property name="kdenlive:duration">00:00:05:00</property>
  <property name="kdenlive:folderid">28</property>
  <property name="kdenlive:id">87</property>
  <property name="kdenlive:clip_type">2</property>
  <property name="kdenlive:file_size">700465</property>
  <property name="kdenlive:file_hash">c5f2fa671ec09183fdcc27a87773f2de</property>
 </producer>
 <producer id="producer73" in="00:00:00.000" out="00:00:04.960">
  <property name="length">00:00:05.000</property>
  <property name="eof">pause</property>
  <property name="resource">images/bullying-corridor-shirt-3.png</property>
  <property name="ttl">25</property>
  <property name="aspect_ratio">1</property>
  <property name="progressive">1</property>
  <property name="seekable">1</property>
  <property name="format">1</property>
  <property name="meta.media.width">615</property>
  <property name="meta.media.height">1093</property>
  <property name="mlt_service">qimage</property>
  <property name="kdenlive:clipname"/>
  <property name="kdenlive:duration">00:00:05:00</property>
  <property name="kdenlive:folderid">28</property>
  <property name="kdenlive:id">88</property>
  <property name="kdenlive:clip_type">2</property>
  <property name="kdenlive:file_size">658307</property>
  <property name="kdenlive:file_hash">adca161239b2c8e5d172c36d8ad22c82</property>
 </producer>
 <producer id="producer74" in="00:00:00.000" out="00:00:04.960">
  <property name="length">00:00:05.000</property>
  <property name="eof">pause</property>
  <property name="resource">images/bullying-corridor-shirt-4.png</property>
  <property name="ttl">25</property>
  <property name="aspect_ratio">1</property>
  <property name="progressive">1</property>
  <property name="seekable">1</property>
  <property name="format">1</property>
  <property name="meta.media.width">614</property>
  <property name="meta.media.height">1079</property>
  <property name="mlt_service">qimage</property>
  <property name="kdenlive:clipname"/>
  <property name="kdenlive:duration">00:00:05:00</property>
  <property name="kdenlive:folderid">28</property>
  <property name="kdenlive:id">89</property>
  <property name="kdenlive:clip_type">2</property>
  <property name="kdenlive:file_size">673261</property>
  <property name="kdenlive:file_hash">f03102023ef73f5039084232fc14a53a</property>
 </producer>
 <producer id="producer75" in="00:00:00.000" out="00:00:04.960">
  <property name="length">00:00:05.000</property>
  <property name="eof">pause</property>
  <property name="resource">images/bullying-corridor-shirt-5.png</property>
  <property name="ttl">25</property>
  <property name="aspect_ratio">1</property>
  <property name="progressive">1</property>
  <property name="seekable">1</property>
  <property name="format">1</property>
  <property name="meta.media.width">616</property>
  <property name="meta.media.height">1094</property>
  <property name="mlt_service">qimage</property>
  <property name="kdenlive:clipname"/>
  <property name="kdenlive:duration">00:00:05:00</property>
  <property name="kdenlive:folderid">28</property>
  <property name="kdenlive:id">90</property>
  <property name="kdenlive:clip_type">2</property>
  <property name="kdenlive:file_size">759950</property>
  <property name="kdenlive:file_hash">c5d560bea09f6eda473518e875a3149b</property>
 </producer>
 <producer id="producer76" in="00:00:00.000" out="00:00:04.960">
  <property name="length">00:00:05.000</property>
  <property name="eof">pause</property>
  <property name="resource">images/bullying-corridor-sounds-like-raw-sewage.png</property>
  <property name="ttl">25</property>
  <property name="aspect_ratio">1</property>
  <property name="progressive">1</property>
  <property name="seekable">1</property>
  <property name="format">1</property>
  <property name="meta.media.width">600</property>
  <property name="meta.media.height">380</property>
  <property name="mlt_service">qimage</property>
  <property name="kdenlive:clipname"/>
  <property name="kdenlive:duration">00:00:05:00</property>
  <property name="kdenlive:folderid">28</property>
  <property name="kdenlive:id">91</property>
  <property name="kdenlive:clip_type">2</property>
  <property name="kdenlive:file_size">50280</property>
  <property name="kdenlive:file_hash">1dbb3c9f02c91dc65d27550089e6aa1d</property>
 </producer>
 <producer id="producer79" in="00:00:00.000" out="00:00:04.960">
  <property name="length">00:00:05.000</property>
  <property name="eof">pause</property>
  <property name="resource">images/bullying-corridor-talentless-hacks.png</property>
  <property name="ttl">25</property>
  <property name="aspect_ratio">1</property>
  <property name="progressive">1</property>
  <property name="seekable">1</property>
  <property name="format">1</property>
  <property name="meta.media.width">599</property>
  <property name="meta.media.height">717</property>
  <property name="mlt_service">qimage</property>
  <property name="kdenlive:clipname"/>
  <property name="kdenlive:duration">00:00:05:00</property>
  <property name="kdenlive:folderid">28</property>
  <property name="kdenlive:id">92</property>
  <property name="kdenlive:clip_type">2</property>
  <property name="kdenlive:file_size">469824</property>
  <property name="kdenlive:file_hash">54e8454f4663d0baa3269beb5a9db0d8</property>
 </producer>
 <producer id="producer77" in="00:00:00.000" out="00:00:04.960">
  <property name="length">00:00:05.000</property>
  <property name="eof">pause</property>
  <property name="resource">images/bullying-corridor-worst-thing-ive-seen.png</property>
  <property name="ttl">25</property>
  <property name="aspect_ratio">1</property>
  <property name="progressive">1</property>
  <property name="seekable">1</property>
  <property name="format">1</property>
  <property name="meta.media.width">599</property>
  <property name="meta.media.height">220</property>
  <property name="mlt_service">qimage</property>
  <property name="kdenlive:clipname"/>
  <property name="kdenlive:duration">00:00:05:00</property>
  <property name="kdenlive:folderid">28</property>
  <property name="kdenlive:id">93</property>
  <property name="kdenlive:clip_type">2</property>
  <property name="kdenlive:file_size">36226</property>
  <property name="kdenlive:file_hash">11ae91abc8314e92ddb948e631f2540a</property>
 </producer>
 <producer id="producer78" in="00:00:00.000" out="00:00:04.960">
  <property name="length">00:00:05.000</property>
  <property name="eof">pause</property>
  <property name="resource">images/bullying-premydaremy-thumbnail.png</property>
  <property name="ttl">25</property>
  <property name="aspect_ratio">1</property>
  <property name="progressive">1</property>
  <property name="seekable">1</property>
  <property name="format">1</property>
  <property name="meta.media.width">591</property>
  <property name="meta.media.height">850</property>
  <property name="mlt_service">qimage</property>
  <property name="kdenlive:clipname"/>
  <property name="kdenlive:duration">00:00:05:00</property>
  <property name="kdenlive:folderid">28</property>
  <property name="kdenlive:id">94</property>
  <property name="kdenlive:clip_type">2</property>
  <property name="kdenlive:file_size">404160</property>
  <property name="kdenlive:file_hash">69b5617178a0453619e755aff6a4a36f</property>
 </producer>
 <producer id="producer80" in="00:00:00.000" out="00:00:04.960">
  <property name="length">00:00:05.000</property>
  <property name="eof">pause</property>
  <property name="resource">images/bullying-shadiversity-end-him-rightly.png</property>
  <property name="ttl">25</property>
  <property name="aspect_ratio">1</property>
  <property name="progressive">1</property>
  <property name="seekable">1</property>
  <property name="format">1</property>
  <property name="meta.media.width">593</property>
  <property name="meta.media.height">668</property>
  <property name="mlt_service">qimage</property>
  <property name="kdenlive:clipname"/>
  <property name="kdenlive:duration">00:00:05:00</property>
  <property name="kdenlive:folderid">28</property>
  <property name="kdenlive:id">95</property>
  <property name="kdenlive:clip_type">2</property>
  <property name="kdenlive:file_size">445652</property>
  <property name="kdenlive:file_hash">aa18e6190ed6a649df7a76834f57525d</property>
 </producer>
 <producer id="producer81" in="00:00:00.000" out="00:00:04.960">
  <property name="length">00:00:05.000</property>
  <property name="eof">pause</property>
  <property name="resource">images/bullying-shadiversity-lighting.png</property>
  <property name="ttl">25</property>
  <property name="aspect_ratio">1</property>
  <property name="progressive">1</property>
  <property name="seekable">1</property>
  <property name="format">1</property>
  <property name="meta.media.width">585</property>
  <property name="meta.media.height">871</property>
  <property name="mlt_service">qimage</property>
  <property name="kdenlive:clipname"/>
  <property name="kdenlive:duration">00:00:05:00</property>
  <property name="kdenlive:folderid">28</property>
  <property name="kdenlive:id">96</property>
  <property name="kdenlive:clip_type">2</property>
  <property name="kdenlive:file_size">539345</property>
  <property name="kdenlive:file_hash">16135381a5c80dc5f2f99f183b958ffa</property>
 </producer>
 <producer id="producer82" in="00:00:00.000" out="00:00:04.960">
  <property name="length">00:00:05.000</property>
  <property name="eof">pause</property>
  <property name="resource">images/bullying-shadiversity-misc-0.png</property>
  <property name="ttl">25</property>
  <property name="aspect_ratio">1</property>
  <property name="progressive">1</property>
  <property name="seekable">1</property>
  <property name="format">1</property>
  <property name="meta.media.width">594</property>
  <property name="meta.media.height">476</property>
  <property name="mlt_service">qimage</property>
  <property name="kdenlive:clipname"/>
  <property name="kdenlive:duration">00:00:05:00</property>
  <property name="kdenlive:folderid">28</property>
  <property name="kdenlive:id">97</property>
  <property name="kdenlive:clip_type">2</property>
  <property name="kdenlive:file_size">300414</property>
  <property name="kdenlive:file_hash">feae775a6a9dfe45795b8c272e1332aa</property>
 </producer>
 <producer id="producer83" in="00:00:00.000" out="00:00:04.960">
  <property name="length">00:00:05.000</property>
  <property name="eof">pause</property>
  <property name="resource">images/bullying-shadiversity-misc-1.png</property>
  <property name="ttl">25</property>
  <property name="aspect_ratio">1</property>
  <property name="progressive">1</property>
  <property name="seekable">1</property>
  <property name="format">1</property>
  <property name="meta.media.width">602</property>
  <property name="meta.media.height">660</property>
  <property name="mlt_service">qimage</property>
  <property name="kdenlive:clipname"/>
  <property name="kdenlive:duration">00:00:05:00</property>
  <property name="kdenlive:folderid">28</property>
  <property name="kdenlive:id">98</property>
  <property name="kdenlive:clip_type">2</property>
  <property name="kdenlive:file_size">337517</property>
  <property name="kdenlive:file_hash">d27e26d5015cc9ac522a4a7a571f1544</property>
 </producer>
 <producer id="producer84" in="00:00:00.000" out="00:00:04.960">
  <property name="length">00:00:05.000</property>
  <property name="eof">pause</property>
  <property name="resource">images/bullying-shadiversity-misc-2.png</property>
  <property name="ttl">25</property>
  <property name="aspect_ratio">1</property>
  <property name="progressive">1</property>
  <property name="seekable">1</property>
  <property name="format">1</property>
  <property name="meta.media.width">592</property>
  <property name="meta.media.height">770</property>
  <property name="mlt_service">qimage</property>
  <property name="kdenlive:clipname"/>
  <property name="kdenlive:duration">00:00:05:00</property>
  <property name="kdenlive:folderid">28</property>
  <property name="kdenlive:id">99</property>
  <property name="kdenlive:clip_type">2</property>
  <property name="kdenlive:file_size">349867</property>
  <property name="kdenlive:file_hash">132c8b961db4f4994b11c731435a4749</property>
 </producer>
 <producer id="producer85" in="00:00:00.000" out="00:00:04.960">
  <property name="length">00:00:05.000</property>
  <property name="eof">pause</property>
  <property name="resource">images/bullying-shadiversity-misc-3.png</property>
  <property name="ttl">25</property>
  <property name="aspect_ratio">1</property>
  <property name="progressive">1</property>
  <property name="seekable">1</property>
  <property name="format">1</property>
  <property name="meta.media.width">598</property>
  <property name="meta.media.height">771</property>
  <property name="mlt_service">qimage</property>
  <property name="kdenlive:clipname"/>
  <property name="kdenlive:duration">00:00:05:00</property>
  <property name="kdenlive:folderid">28</property>
  <property name="kdenlive:id">100</property>
  <property name="kdenlive:clip_type">2</property>
  <property name="kdenlive:file_size">294603</property>
  <property name="kdenlive:file_hash">37fac7fb9306d88506447022225bdf9d</property>
 </producer>
 <producer id="producer86" in="00:00:00.000" out="00:00:04.960">
  <property name="length">00:00:05.000</property>
  <property name="eof">pause</property>
  <property name="resource">images/bullying-shadiversity-misc-4.png</property>
  <property name="ttl">25</property>
  <property name="aspect_ratio">1</property>
  <property name="progressive">1</property>
  <property name="seekable">1</property>
  <property name="format">1</property>
  <property name="meta.media.width">595</property>
  <property name="meta.media.height">770</property>
  <property name="mlt_service">qimage</property>
  <property name="kdenlive:clipname"/>
  <property name="kdenlive:duration">00:00:05:00</property>
  <property name="kdenlive:folderid">28</property>
  <property name="kdenlive:id">101</property>
  <property name="kdenlive:clip_type">2</property>
  <property name="kdenlive:file_size">351826</property>
  <property name="kdenlive:file_hash">46051e69f8da6f90e2d69b9b7d592067</property>
 </producer>
 <producer id="producer88" in="00:00:00.000" out="00:00:04.960">
  <property name="length">00:00:05.000</property>
  <property name="eof">pause</property>
  <property name="resource">images/bullying-shadiversity-misc-5.png</property>
  <property name="ttl">25</property>
  <property name="aspect_ratio">1</property>
  <property name="progressive">1</property>
  <property name="seekable">1</property>
  <property name="format">1</property>
  <property name="meta.media.width">595</property>
  <property name="meta.media.height">793</property>
  <property name="mlt_service">qimage</property>
  <property name="kdenlive:clipname"/>
  <property name="kdenlive:duration">00:00:05:00</property>
  <property name="kdenlive:folderid">28</property>
  <property name="kdenlive:id">102</property>
  <property name="kdenlive:clip_type">2</property>
  <property name="kdenlive:file_size">360870</property>
  <property name="kdenlive:file_hash">0232cb16e916c918bd656c41107cd7a8</property>
 </producer>
 <producer id="producer87" in="00:00:00.000" out="00:00:04.960">
  <property name="length">00:00:05.000</property>
  <property name="eof">pause</property>
  <property name="resource">images/bullying-shadiversity-misc-6.png</property>
  <property name="ttl">25</property>
  <property name="aspect_ratio">1</property>
  <property name="progressive">1</property>
  <property name="seekable">1</property>
  <property name="format">1</property>
  <property name="meta.media.width">598</property>
  <property name="meta.media.height">795</property>
  <property name="mlt_service">qimage</property>
  <property name="kdenlive:clipname"/>
  <property name="kdenlive:duration">00:00:05:00</property>
  <property name="kdenlive:folderid">28</property>
  <property name="kdenlive:id">103</property>
  <property name="kdenlive:clip_type">2</property>
  <property name="kdenlive:file_size">377017</property>
  <property name="kdenlive:file_hash">08c3ca7f57085116f8b6a8ec2b117605</property>
 </producer>
 <producer id="producer89" in="00:00:00.000" out="00:00:04.960">
  <property name="length">00:00:05.000</property>
  <property name="eof">pause</property>
  <property name="resource">images/bullying-shadiversity-misc-7.png</property>
  <property name="ttl">25</property>
  <property name="aspect_ratio">1</property>
  <property name="progressive">1</property>
  <property name="seekable">1</property>
  <property name="format">1</property>
  <property name="meta.media.width">585</property>
  <property name="meta.media.height">806</property>
  <property name="mlt_service">qimage</property>
  <property name="kdenlive:clipname"/>
  <property name="kdenlive:duration">00:00:05:00</property>
  <property name="kdenlive:folderid">28</property>
  <property name="kdenlive:id">104</property>
  <property name="kdenlive:clip_type">2</property>
  <property name="kdenlive:file_size">360725</property>
  <property name="kdenlive:file_hash">cb831215a5a605e5534a5bbffcdbf3da</property>
 </producer>
 <producer id="producer91" in="00:00:00.000" out="00:00:26.320">
  <property name="length">659</property>
  <property name="eof">pause</property>
  <property name="resource">images/chunie signature.png</property>
  <property name="ttl">25</property>
  <property name="aspect_ratio">1</property>
  <property name="progressive">1</property>
  <property name="seekable">1</property>
  <property name="format">2</property>
  <property name="meta.media.width">1147</property>
  <property name="meta.media.height">491</property>
  <property name="mlt_service">qimage</property>
  <property name="kdenlive:clipname"/>
  <property name="kdenlive:duration">00:00:05:00</property>
  <property name="kdenlive:folderid">28</property>
  <property name="kdenlive:id">105</property>
  <property name="kdenlive:clip_type">2</property>
  <property name="kdenlive:file_size">165289</property>
  <property name="kdenlive:file_hash">84645864c8c052807e792aacacb1f830</property>
 </producer>
 <producer id="producer100" in="00:00:00.000" out="00:00:04.960">
  <property name="length">00:00:05.000</property>
  <property name="eof">pause</property>
  <property name="resource">images/chunie signature.xcf</property>
  <property name="ttl">25</property>
  <property name="aspect_ratio">1</property>
  <property name="progressive">1</property>
  <property name="seekable">1</property>
  <property name="format">1</property>
  <property name="meta.media.width">1147</property>
  <property name="meta.media.height">491</property>
  <property name="mlt_service">qimage</property>
  <property name="kdenlive:clipname"/>
  <property name="kdenlive:duration">00:00:05:00</property>
  <property name="kdenlive:folderid">28</property>
  <property name="kdenlive:id">106</property>
  <property name="kdenlive:clip_type">2</property>
  <property name="kdenlive:file_size">624687</property>
  <property name="kdenlive:file_hash">59f9990bc8ecdad5cce8494100d73d13</property>
 </producer>
 <producer id="producer90" in="00:00:00.000" out="00:00:04.960">
  <property name="length">00:00:05.000</property>
  <property name="eof">pause</property>
  <property name="resource">images/copyright strike IP AI art we did it patrick we saved art.png</property>
  <property name="ttl">25</property>
  <property name="aspect_ratio">1</property>
  <property name="progressive">1</property>
  <property name="seekable">1</property>
  <property name="format">1</property>
  <property name="meta.media.width">594</property>
  <property name="meta.media.height">574</property>
  <property name="mlt_service">qimage</property>
  <property name="kdenlive:clipname"/>
  <property name="kdenlive:duration">00:00:05:00</property>
  <property name="kdenlive:folderid">28</property>
  <property name="kdenlive:id">107</property>
  <property name="kdenlive:clip_type">2</property>
  <property name="kdenlive:file_size">99791</property>
  <property name="kdenlive:file_hash">64368fc86a0da10c1bbbab22369d7c5b</property>
 </producer>
 <producer id="producer93" in="00:00:00.000" out="00:00:04.960">
  <property name="length">00:00:05.000</property>
  <property name="eof">pause</property>
  <property name="resource">images/corridor-before-and-after.png</property>
  <property name="ttl">25</property>
  <property name="aspect_ratio">1</property>
  <property name="progressive">1</property>
  <property name="seekable">1</property>
  <property name="format">1</property>
  <property name="meta.media.width">613</property>
  <property name="meta.media.height">802</property>
  <property name="mlt_service">qimage</property>
  <property name="kdenlive:clipname"/>
  <property name="kdenlive:duration">00:00:05:00</property>
  <property name="kdenlive:folderid">28</property>
  <property name="kdenlive:id">108</property>
  <property name="kdenlive:clip_type">2</property>
  <property name="kdenlive:file_size">544674</property>
  <property name="kdenlive:file_hash">a549470f794be3c4865a17755c6b6f88</property>
 </producer>
 <producer id="producer92" in="00:00:00.000" out="00:00:04.960">
  <property name="length">00:00:05.000</property>
  <property name="eof">pause</property>
  <property name="resource">images/dnd-blacklist-0.png</property>
  <property name="ttl">25</property>
  <property name="aspect_ratio">1</property>
  <property name="progressive">1</property>
  <property name="seekable">1</property>
  <property name="format">1</property>
  <property name="meta.media.width">598</property>
  <property name="meta.media.height">691</property>
  <property name="mlt_service">qimage</property>
  <property name="kdenlive:clipname"/>
  <property name="kdenlive:duration">00:00:05:00</property>
  <property name="kdenlive:folderid">28</property>
  <property name="kdenlive:id">109</property>
  <property name="kdenlive:clip_type">2</property>
  <property name="kdenlive:file_size">214725</property>
  <property name="kdenlive:file_hash">0057b04aa671686ba376bfe56e89f609</property>
 </producer>
 <producer id="producer94" in="00:00:00.000" out="00:00:04.960">
  <property name="length">00:00:05.000</property>
  <property name="eof">pause</property>
  <property name="resource">images/dnd-blacklist-1.png</property>
  <property name="ttl">25</property>
  <property name="aspect_ratio">1</property>
  <property name="progressive">1</property>
  <property name="seekable">1</property>
  <property name="format">1</property>
  <property name="meta.media.width">596</property>
  <property name="meta.media.height">673</property>
  <property name="mlt_service">qimage</property>
  <property name="kdenlive:clipname"/>
  <property name="kdenlive:duration">00:00:05:00</property>
  <property name="kdenlive:folderid">28</property>
  <property name="kdenlive:id">110</property>
  <property name="kdenlive:clip_type">2</property>
  <property name="kdenlive:file_size">213888</property>
  <property name="kdenlive:file_hash">533f8ed54c18653a814f038d085e42af</property>
 </producer>
 <producer id="producer95" in="00:00:00.000" out="00:00:04.960">
  <property name="length">00:00:05.000</property>
  <property name="eof">pause</property>
  <property name="resource">images/dnd-blacklist-10.png</property>
  <property name="ttl">25</property>
  <property name="aspect_ratio">1</property>
  <property name="progressive">1</property>
  <property name="seekable">1</property>
  <property name="format">1</property>
  <property name="meta.media.width">594</property>
  <property name="meta.media.height">636</property>
  <property name="mlt_service">qimage</property>
  <property name="kdenlive:clipname"/>
  <property name="kdenlive:duration">00:00:05:00</property>
  <property name="kdenlive:folderid">28</property>
  <property name="kdenlive:id">111</property>
  <property name="kdenlive:clip_type">2</property>
  <property name="kdenlive:file_size">203985</property>
  <property name="kdenlive:file_hash">b4ba72aabe397d9eb3fae40a918efb01</property>
 </producer>
 <producer id="producer97" in="00:00:00.000" out="00:00:04.960">
  <property name="length">00:00:05.000</property>
  <property name="eof">pause</property>
  <property name="resource">images/dnd-blacklist-11.png</property>
  <property name="ttl">25</property>
  <property name="aspect_ratio">1</property>
  <property name="progressive">1</property>
  <property name="seekable">1</property>
  <property name="format">1</property>
  <property name="meta.media.width">595</property>
  <property name="meta.media.height">707</property>
  <property name="mlt_service">qimage</property>
  <property name="kdenlive:clipname"/>
  <property name="kdenlive:duration">00:00:05:00</property>
  <property name="kdenlive:folderid">28</property>
  <property name="kdenlive:id">112</property>
  <property name="kdenlive:clip_type">2</property>
  <property name="kdenlive:file_size">221775</property>
  <property name="kdenlive:file_hash">c7653441c769a46e9d9bc04a9ebc3515</property>
 </producer>
 <producer id="producer96" in="00:00:00.000" out="00:00:04.960">
  <property name="length">00:00:05.000</property>
  <property name="eof">pause</property>
  <property name="resource">images/dnd-blacklist-12.png</property>
  <property name="ttl">25</property>
  <property name="aspect_ratio">1</property>
  <property name="progressive">1</property>
  <property name="seekable">1</property>
  <property name="format">1</property>
  <property name="meta.media.width">594</property>
  <property name="meta.media.height">589</property>
  <property name="mlt_service">qimage</property>
  <property name="kdenlive:clipname"/>
  <property name="kdenlive:duration">00:00:05:00</property>
  <property name="kdenlive:folderid">28</property>
  <property name="kdenlive:id">113</property>
  <property name="kdenlive:clip_type">2</property>
  <property name="kdenlive:file_size">195271</property>
  <property name="kdenlive:file_hash">9e592412bc15d6987a19d348247360ae</property>
 </producer>
 <producer id="producer98" in="00:00:00.000" out="00:00:04.960">
  <property name="length">00:00:05.000</property>
  <property name="eof">pause</property>
  <property name="resource">images/dnd-blacklist-13.png</property>
  <property name="ttl">25</property>
  <property name="aspect_ratio">1</property>
  <property name="progressive">1</property>
  <property name="seekable">1</property>
  <property name="format">1</property>
  <property name="meta.media.width">594</property>
  <property name="meta.media.height">707</property>
  <property name="mlt_service">qimage</property>
  <property name="kdenlive:clipname"/>
  <property name="kdenlive:duration">00:00:05:00</property>
  <property name="kdenlive:folderid">28</property>
  <property name="kdenlive:id">114</property>
  <property name="kdenlive:clip_type">2</property>
  <property name="kdenlive:file_size">216407</property>
  <property name="kdenlive:file_hash">796fe9d257f53bf57800203c7f9a3091</property>
 </producer>
 <producer id="producer99" in="00:00:00.000" out="00:00:04.960">
  <property name="length">00:00:05.000</property>
  <property name="eof">pause</property>
  <property name="resource">images/dnd-blacklist-2.png</property>
  <property name="ttl">25</property>
  <property name="aspect_ratio">1</property>
  <property name="progressive">1</property>
  <property name="seekable">1</property>
  <property name="format">1</property>
  <property name="meta.media.width">595</property>
  <property name="meta.media.height">709</property>
  <property name="mlt_service">qimage</property>
  <property name="kdenlive:clipname"/>
  <property name="kdenlive:duration">00:00:05:00</property>
  <property name="kdenlive:folderid">28</property>
  <property name="kdenlive:id">115</property>
  <property name="kdenlive:clip_type">2</property>
  <property name="kdenlive:file_size">217668</property>
  <property name="kdenlive:file_hash">a616fbb246519dd9d1028a4535e6be1d</property>
 </producer>
 <producer id="producer101" in="00:00:00.000" out="00:00:04.960">
  <property name="length">00:00:05.000</property>
  <property name="eof">pause</property>
  <property name="resource">images/dnd-blacklist-3.png</property>
  <property name="ttl">25</property>
  <property name="aspect_ratio">1</property>
  <property name="progressive">1</property>
  <property name="seekable">1</property>
  <property name="format">1</property>
  <property name="meta.media.width">596</property>
  <property name="meta.media.height">656</property>
  <property name="mlt_service">qimage</property>
  <property name="kdenlive:clipname"/>
  <property name="kdenlive:duration">00:00:05:00</property>
  <property name="kdenlive:folderid">28</property>
  <property name="kdenlive:id">116</property>
  <property name="kdenlive:clip_type">2</property>
  <property name="kdenlive:file_size">215990</property>
  <property name="kdenlive:file_hash">5b7bea56bc85ce5983fc6b8ec04b7ec6</property>
 </producer>
 <producer id="producer102" in="00:00:00.000" out="00:00:04.960">
  <property name="length">00:00:05.000</property>
  <property name="eof">pause</property>
  <property name="resource">images/dnd-blacklist-4.png</property>
  <property name="ttl">25</property>
  <property name="aspect_ratio">1</property>
  <property name="progressive">1</property>
  <property name="seekable">1</property>
  <property name="format">1</property>
  <property name="meta.media.width">596</property>
  <property name="meta.media.height">635</property>
  <property name="mlt_service">qimage</property>
  <property name="kdenlive:clipname"/>
  <property name="kdenlive:duration">00:00:05:00</property>
  <property name="kdenlive:folderid">28</property>
  <property name="kdenlive:id">117</property>
  <property name="kdenlive:clip_type">2</property>
  <property name="kdenlive:file_size">207064</property>
  <property name="kdenlive:file_hash">0d1b652fcc59f6b8e89973e3341e6b0b</property>
 </producer>
 <producer id="producer106" in="00:00:00.000" out="00:00:04.960">
  <property name="length">00:00:05.000</property>
  <property name="eof">pause</property>
  <property name="resource">images/dnd-blacklist-5.png</property>
  <property name="ttl">25</property>
  <property name="aspect_ratio">1</property>
  <property name="progressive">1</property>
  <property name="seekable">1</property>
  <property name="format">1</property>
  <property name="meta.media.width">596</property>
  <property name="meta.media.height">635</property>
  <property name="mlt_service">qimage</property>
  <property name="kdenlive:clipname"/>
  <property name="kdenlive:duration">00:00:05:00</property>
  <property name="kdenlive:folderid">28</property>
  <property name="kdenlive:id">118</property>
  <property name="kdenlive:clip_type">2</property>
  <property name="kdenlive:file_size">209673</property>
  <property name="kdenlive:file_hash">b02debb1cd7815a3027731d05982a013</property>
 </producer>
 <producer id="producer104" in="00:00:00.000" out="00:00:04.960">
  <property name="length">00:00:05.000</property>
  <property name="eof">pause</property>
  <property name="resource">images/dnd-blacklist-6.png</property>
  <property name="ttl">25</property>
  <property name="aspect_ratio">1</property>
  <property name="progressive">1</property>
  <property name="seekable">1</property>
  <property name="format">1</property>
  <property name="meta.media.width">596</property>
  <property name="meta.media.height">610</property>
  <property name="mlt_service">qimage</property>
  <property name="kdenlive:clipname"/>
  <property name="kdenlive:duration">00:00:05:00</property>
  <property name="kdenlive:folderid">28</property>
  <property name="kdenlive:id">119</property>
  <property name="kdenlive:clip_type">2</property>
  <property name="kdenlive:file_size">196501</property>
  <property name="kdenlive:file_hash">fb6634f21b81e781e924b3225e835064</property>
 </producer>
 <producer id="producer103" in="00:00:00.000" out="00:00:04.960">
  <property name="length">00:00:05.000</property>
  <property name="eof">pause</property>
  <property name="resource">images/dnd-blacklist-7.png</property>
  <property name="ttl">25</property>
  <property name="aspect_ratio">1</property>
  <property name="progressive">1</property>
  <property name="seekable">1</property>
  <property name="format">1</property>
  <property name="meta.media.width">596</property>
  <property name="meta.media.height">612</property>
  <property name="mlt_service">qimage</property>
  <property name="kdenlive:clipname"/>
  <property name="kdenlive:duration">00:00:05:00</property>
  <property name="kdenlive:folderid">28</property>
  <property name="kdenlive:id">120</property>
  <property name="kdenlive:clip_type">2</property>
  <property name="kdenlive:file_size">202801</property>
  <property name="kdenlive:file_hash">7e1e348b63a376043e4ab3db9013b956</property>
 </producer>
 <producer id="producer105" in="00:00:00.000" out="00:00:04.960">
  <property name="length">00:00:05.000</property>
  <property name="eof">pause</property>
  <property name="resource">images/dnd-blacklist-8.png</property>
  <property name="ttl">25</property>
  <property name="aspect_ratio">1</property>
  <property name="progressive">1</property>
  <property name="seekable">1</property>
  <property name="format">1</property>
  <property name="meta.media.width">597</property>
  <property name="meta.media.height">638</property>
  <property name="mlt_service">qimage</property>
  <property name="kdenlive:clipname"/>
  <property name="kdenlive:duration">00:00:05:00</property>
  <property name="kdenlive:folderid">28</property>
  <property name="kdenlive:id">121</property>
  <property name="kdenlive:clip_type">2</property>
  <property name="kdenlive:file_size">202798</property>
  <property name="kdenlive:file_hash">24bd1690e2e14dca80eaba56c6642521</property>
 </producer>
 <producer id="producer107" in="00:00:00.000" out="00:00:04.960">
  <property name="length">00:00:05.000</property>
  <property name="eof">pause</property>
  <property name="resource">images/dnd-blacklist-9.png</property>
  <property name="ttl">25</property>
  <property name="aspect_ratio">1</property>
  <property name="progressive">1</property>
  <property name="seekable">1</property>
  <property name="format">1</property>
  <property name="meta.media.width">596</property>
  <property name="meta.media.height">659</property>
  <property name="mlt_service">qimage</property>
  <property name="kdenlive:clipname"/>
  <property name="kdenlive:duration">00:00:05:00</property>
  <property name="kdenlive:folderid">28</property>
  <property name="kdenlive:id">122</property>
  <property name="kdenlive:clip_type">2</property>
  <property name="kdenlive:file_size">213492</property>
  <property name="kdenlive:file_hash">119305f7ac08ee97fd900d1120212820</property>
 </producer>
 <producer id="producer108" in="00:00:00.000" out="00:00:04.960">
  <property name="length">00:00:05.000</property>
  <property name="eof">pause</property>
  <property name="resource">images/dnd-using-ai.png</property>
  <property name="ttl">25</property>
  <property name="aspect_ratio">1</property>
  <property name="progressive">1</property>
  <property name="seekable">1</property>
  <property name="format">1</property>
  <property name="meta.media.width">596</property>
  <property name="meta.media.height">657</property>
  <property name="mlt_service">qimage</property>
  <property name="kdenlive:clipname"/>
  <property name="kdenlive:duration">00:00:05:00</property>
  <property name="kdenlive:folderid">28</property>
  <property name="kdenlive:id">123</property>
  <property name="kdenlive:clip_type">2</property>
  <property name="kdenlive:file_size">221352</property>
  <property name="kdenlive:file_hash">d432f8dff60dc612540ac54d3d1cbde2</property>
 </producer>
 <producer id="producer109" in="00:00:00.000" out="00:00:04.960">
  <property name="length">00:00:05.000</property>
  <property name="eof">pause</property>
  <property name="resource">images/george bush war.jpg</property>
  <property name="ttl">25</property>
  <property name="aspect_ratio">1</property>
  <property name="progressive">1</property>
  <property name="seekable">1</property>
  <property name="format">1</property>
  <property name="meta.media.width">941</property>
  <property name="meta.media.height">941</property>
  <property name="mlt_service">qimage</property>
  <property name="kdenlive:clipname"/>
  <property name="kdenlive:duration">00:00:05:00</property>
  <property name="kdenlive:folderid">28</property>
  <property name="kdenlive:id">124</property>
  <property name="kdenlive:clip_type">2</property>
  <property name="kdenlive:file_size">174743</property>
  <property name="kdenlive:file_hash">9bca6366d81c652911d03aa802ff3ad6</property>
 </producer>
 <producer id="producer110" in="00:00:00.000" out="00:00:47.200">
  <property name="length">1181</property>
  <property name="eof">pause</property>
  <property name="resource">images/getty images.png</property>
  <property name="ttl">25</property>
  <property name="aspect_ratio">1</property>
  <property name="progressive">1</property>
  <property name="seekable">1</property>
  <property name="format">1</property>
  <property name="meta.media.width">1119</property>
  <property name="meta.media.height">671</property>
  <property name="mlt_service">qimage</property>
  <property name="kdenlive:clipname"/>
  <property name="kdenlive:duration">00:00:05:00</property>
  <property name="kdenlive:folderid">28</property>
  <property name="kdenlive:id">125</property>
  <property name="kdenlive:clip_type">2</property>
  <property name="kdenlive:file_size">960862</property>
  <property name="kdenlive:file_hash">41443a05c6292c0b32844df7ecb64f00</property>
 </producer>
 <producer id="producer114" in="00:00:00.000" out="00:00:04.960">
  <property name="length">00:00:05.000</property>
  <property name="eof">pause</property>
  <property name="resource">images/How does Stable Diffusion work without an internet connection.jpg</property>
  <property name="ttl">25</property>
  <property name="aspect_ratio">1</property>
  <property name="progressive">1</property>
  <property name="seekable">1</property>
  <property name="format">1</property>
  <property name="meta.media.width">1290</property>
  <property name="meta.media.height">1572</property>
  <property name="mlt_service">qimage</property>
  <property name="kdenlive:clipname"/>
  <property name="kdenlive:duration">00:00:05:00</property>
  <property name="kdenlive:folderid">28</property>
  <property name="kdenlive:id">126</property>
  <property name="kdenlive:clip_type">2</property>
  <property name="kdenlive:file_size">265899</property>
  <property name="kdenlive:file_hash">91637c3394fe209e46e6f3f37bca8b18</property>
 </producer>
 <producer id="producer111" in="00:00:00.000" out="00:00:04.960">
  <property name="length">00:00:05.000</property>
  <property name="eof">pause</property>
  <property name="resource">images/I HATE AI Art soyjak 2.jpg</property>
  <property name="ttl">25</property>
  <property name="aspect_ratio">1</property>
  <property name="progressive">1</property>
  <property name="seekable">1</property>
  <property name="format">1</property>
  <property name="meta.media.width">1017</property>
  <property name="meta.media.height">935</property>
  <property name="mlt_service">qimage</property>
  <property name="kdenlive:clipname"/>
  <property name="kdenlive:duration">00:00:05:00</property>
  <property name="kdenlive:folderid">28</property>
  <property name="kdenlive:id">127</property>
  <property name="kdenlive:clip_type">2</property>
  <property name="kdenlive:file_size">144503</property>
  <property name="kdenlive:file_hash">282b6a6e0ed2375c13094df081d54480</property>
 </producer>
 <producer id="producer112" in="00:00:00.000" out="00:00:04.960">
  <property name="length">00:00:05.000</property>
  <property name="eof">pause</property>
  <property name="resource">images/I HATE AI Art soyjak.jpg</property>
  <property name="ttl">25</property>
  <property name="aspect_ratio">1</property>
  <property name="progressive">1</property>
  <property name="seekable">1</property>
  <property name="format">1</property>
  <property name="meta.media.width">512</property>
  <property name="meta.media.height">504</property>
  <property name="mlt_service">qimage</property>
  <property name="kdenlive:clipname"/>
  <property name="kdenlive:duration">00:00:05:00</property>
  <property name="kdenlive:folderid">28</property>
  <property name="kdenlive:id">128</property>
  <property name="kdenlive:clip_type">2</property>
  <property name="kdenlive:file_size">15657</property>
  <property name="kdenlive:file_hash">84d13bc507459e54b1ae6a5b78704c29</property>
 </producer>
 <producer id="producer115" in="00:00:00.000" out="00:00:04.960">
  <property name="length">00:00:05.000</property>
  <property name="eof">pause</property>
  <property name="resource">images/iron-lung.png</property>
  <property name="ttl">25</property>
  <property name="aspect_ratio">1</property>
  <property name="progressive">1</property>
  <property name="seekable">1</property>
  <property name="format">2</property>
  <property name="meta.media.width">1280</property>
  <property name="meta.media.height">720</property>
  <property name="mlt_service">qimage</property>
  <property name="kdenlive:clipname"/>
  <property name="kdenlive:duration">00:00:05:00</property>
  <property name="kdenlive:folderid">28</property>
  <property name="kdenlive:id">129</property>
  <property name="kdenlive:clip_type">2</property>
  <property name="kdenlive:file_size">991672</property>
  <property name="kdenlive:file_hash">d5c8085b97b1675f1d660f21d78429cf</property>
 </producer>
 <producer id="producer113" in="00:00:00.000" out="00:00:04.960">
  <property name="length">00:00:05.000</property>
  <property name="eof">pause</property>
  <property name="resource">images/jesus-adult.jpg</property>
  <property name="ttl">25</property>
  <property name="aspect_ratio">1</property>
  <property name="progressive">1</property>
  <property name="seekable">1</property>
  <property name="format">1</property>
  <property name="meta.media.width">474</property>
  <property name="meta.media.height">683</property>
  <property name="mlt_service">qimage</property>
  <property name="kdenlive:clipname"/>
  <property name="kdenlive:duration">00:00:05:00</property>
  <property name="kdenlive:folderid">28</property>
  <property name="kdenlive:id">130</property>
  <property name="kdenlive:clip_type">2</property>
  <property name="kdenlive:file_size">100460</property>
  <property name="kdenlive:file_hash">14753f0dee1b3431ea5015df3b2da822</property>
 </producer>
 <producer id="producer117" in="00:00:00.000" out="00:00:08.480">
  <property name="length">213</property>
  <property name="eof">pause</property>
  <property name="resource">images/karla-slide.png</property>
  <property name="ttl">25</property>
  <property name="aspect_ratio">1</property>
  <property name="progressive">1</property>
  <property name="seekable">1</property>
  <property name="format">2</property>
  <property name="meta.media.width">1280</property>
  <property name="meta.media.height">720</property>
  <property name="mlt_service">qimage</property>
  <property name="kdenlive:clipname"/>
  <property name="kdenlive:duration">00:00:05:00</property>
  <property name="kdenlive:folderid">28</property>
  <property name="kdenlive:id">131</property>
  <property name="kdenlive:clip_type">2</property>
  <property name="kdenlive:file_size">729121</property>
  <property name="kdenlive:file_hash">f42245fab43eb0e5d72c0423f8b64ab1</property>
 </producer>
 <producer id="producer120" in="00:00:00.000" out="00:00:04.960">
  <property name="length">00:00:05.000</property>
  <property name="eof">pause</property>
  <property name="resource">images/know the work rules corridor joel haver.jpg</property>
  <property name="ttl">25</property>
  <property name="aspect_ratio">1</property>
  <property name="progressive">1</property>
  <property name="seekable">1</property>
  <property name="format">1</property>
  <property name="meta.media.width">1482</property>
  <property name="meta.media.height">1960</property>
  <property name="mlt_service">qimage</property>
  <property name="kdenlive:clipname"/>
  <property name="kdenlive:duration">00:00:05:00</property>
  <property name="kdenlive:folderid">28</property>
  <property name="kdenlive:id">132</property>
  <property name="kdenlive:clip_type">2</property>
  <property name="kdenlive:file_size">456412</property>
  <property name="kdenlive:file_hash">98e6712dc253b73714e7579488e95494</property>
 </producer>
 <producer id="producer116" in="00:00:00.000" out="00:00:04.960">
  <property name="length">00:00:05.000</property>
  <property name="eof">pause</property>
  <property name="resource">images/lta-0.png</property>
  <property name="ttl">25</property>
  <property name="aspect_ratio">1</property>
  <property name="progressive">1</property>
  <property name="seekable">1</property>
  <property name="format">1</property>
  <property name="meta.media.width">598</property>
  <property name="meta.media.height">323</property>
  <property name="mlt_service">qimage</property>
  <property name="kdenlive:clipname"/>
  <property name="kdenlive:duration">00:00:05:00</property>
  <property name="kdenlive:folderid">28</property>
  <property name="kdenlive:id">133</property>
  <property name="kdenlive:clip_type">2</property>
  <property name="kdenlive:file_size">48135</property>
  <property name="kdenlive:file_hash">489c0757c78cf6372061abcd519e8f1d</property>
 </producer>
 <producer id="producer118" in="00:00:00.000" out="00:00:04.960">
  <property name="length">00:00:05.000</property>
  <property name="eof">pause</property>
  <property name="resource">images/Man as weak and helpless in a universe that hates him.jpg</property>
  <property name="ttl">25</property>
  <property name="aspect_ratio">1</property>
  <property name="progressive">1</property>
  <property name="seekable">1</property>
  <property name="format">1</property>
  <property name="meta.media.width">768</property>
  <property name="meta.media.height">768</property>
  <property name="mlt_service">qimage</property>
  <property name="kdenlive:clipname"/>
  <property name="kdenlive:duration">00:00:05:00</property>
  <property name="kdenlive:folderid">28</property>
  <property name="kdenlive:id">134</property>
  <property name="kdenlive:clip_type">2</property>
  <property name="kdenlive:file_size">224155</property>
  <property name="kdenlive:file_hash">ebcee335913a9e9b9c5ab80d7fc9ce3d</property>
 </producer>
 <producer id="producer119" in="00:00:00.000" out="00:00:04.960">
  <property name="length">00:00:05.000</property>
  <property name="eof">pause</property>
  <property name="resource">images/Man with the potential to conquer nature.jpg</property>
  <property name="ttl">25</property>
  <property name="aspect_ratio">1</property>
  <property name="progressive">1</property>
  <property name="seekable">1</property>
  <property name="format">1</property>
  <property name="meta.media.width">768</property>
  <property name="meta.media.height">768</property>
  <property name="mlt_service">qimage</property>
  <property name="kdenlive:clipname"/>
  <property name="kdenlive:duration">00:00:05:00</property>
  <property name="kdenlive:folderid">28</property>
  <property name="kdenlive:id">135</property>
  <property name="kdenlive:clip_type">2</property>
  <property name="kdenlive:file_size">203153</property>
  <property name="kdenlive:file_hash">1e6e11282ce3d09b4982c3496c2dc255</property>
 </producer>
 <producer id="producer138" in="00:00:00.000" out="00:00:04.960">
  <property name="length">00:00:05.000</property>
  <property name="eof">pause</property>
  <property name="resource">images/Michelangelo - David vs. Picasso - The Old Guitarist.png</property>
  <property name="ttl">25</property>
  <property name="aspect_ratio">1</property>
  <property name="progressive">1</property>
  <property name="seekable">1</property>
  <property name="format">2</property>
  <property name="meta.media.width">7503</property>
  <property name="meta.media.height">5284</property>
  <property name="mlt_service">qimage</property>
  <property name="kdenlive:clipname"/>
  <property name="kdenlive:duration">00:00:05:00</property>
  <property name="kdenlive:folderid">28</property>
  <property name="kdenlive:id">136</property>
  <property name="kdenlive:clip_type">2</property>
  <property name="kdenlive:file_size">28148658</property>
  <property name="kdenlive:file_hash">0f9870d05ba7b4011c964a409ae214e0</property>
 </producer>
 <producer id="producer191" in="00:00:00.000" out="00:00:04.960">
  <property name="length">00:00:05.000</property>
  <property name="eof">pause</property>
  <property name="resource">images/Michelangelo - David vs. Picasso - The Old Guitarist.xcf</property>
  <property name="ttl">25</property>
  <property name="aspect_ratio">1</property>
  <property name="progressive">1</property>
  <property name="seekable">1</property>
  <property name="format">2</property>
  <property name="meta.media.width">7503</property>
  <property name="meta.media.height">5284</property>
  <property name="mlt_service">qimage</property>
  <property name="kdenlive:clipname"/>
  <property name="kdenlive:duration">00:00:05:00</property>
  <property name="kdenlive:folderid">28</property>
  <property name="kdenlive:id">137</property>
  <property name="kdenlive:clip_type">2</property>
  <property name="kdenlive:file_size">103192771</property>
  <property name="kdenlive:file_hash">d538bd6b8f83ae5ee07f74a5b6087868</property>
 </producer>
 <producer id="producer122" in="00:00:00.000" out="00:00:04.960">
  <property name="length">00:00:05.000</property>
  <property name="eof">pause</property>
  <property name="resource">images/Michelangelo - David.jpg</property>
  <property name="ttl">25</property>
  <property name="aspect_ratio">1</property>
  <property name="progressive">1</property>
  <property name="seekable">1</property>
  <property name="format">1</property>
  <property name="meta.media.width">3888</property>
  <property name="meta.media.height">5184</property>
  <property name="mlt_service">qimage</property>
  <property name="kdenlive:clipname"/>
  <property name="kdenlive:duration">00:00:05:00</property>
  <property name="kdenlive:folderid">28</property>
  <property name="kdenlive:id">138</property>
  <property name="kdenlive:clip_type">2</property>
  <property name="kdenlive:file_size">6174741</property>
  <property name="kdenlive:file_hash">65fab59dbed7193cbe2d7b523e590be6</property>
 </producer>
 <producer id="producer123" in="00:00:00.000" out="00:00:13.720">
  <property name="length">344</property>
  <property name="eof">pause</property>
  <property name="resource">images/missing mongolia.png</property>
  <property name="ttl">25</property>
  <property name="aspect_ratio">1</property>
  <property name="progressive">1</property>
  <property name="seekable">1</property>
  <property name="format">2</property>
  <property name="meta.media.width">1200</property>
  <property name="meta.media.height">675</property>
  <property name="mlt_service">qimage</property>
  <property name="kdenlive:clipname"/>
  <property name="kdenlive:duration">00:00:05:00</property>
  <property name="kdenlive:folderid">28</property>
  <property name="kdenlive:id">139</property>
  <property name="kdenlive:clip_type">2</property>
  <property name="kdenlive:file_size">608897</property>
  <property name="kdenlive:file_hash">b6a593a1ee926e6d9b5c099f0e143211</property>
 </producer>
 <producer id="producer124" in="00:00:00.000" out="00:00:04.960">
  <property name="length">00:00:05.000</property>
  <property name="eof">pause</property>
  <property name="resource">images/motte and bailey plagiarism.png</property>
  <property name="ttl">25</property>
  <property name="aspect_ratio">1</property>
  <property name="progressive">1</property>
  <property name="seekable">1</property>
  <property name="format">2</property>
  <property name="meta.media.width">2330</property>
  <property name="meta.media.height">1000</property>
  <property name="mlt_service">qimage</property>
  <property name="kdenlive:clipname"/>
  <property name="kdenlive:duration">00:00:05:00</property>
  <property name="kdenlive:folderid">28</property>
  <property name="kdenlive:id">140</property>
  <property name="kdenlive:clip_type">2</property>
  <property name="kdenlive:file_size">1392299</property>
  <property name="kdenlive:file_hash">6b18935e4c84752cf1783dc38c90dc7a</property>
 </producer>
 <producer id="producer125" in="00:00:00.000" out="00:00:04.960">
  <property name="length">00:00:05.000</property>
  <property name="eof">pause</property>
  <property name="resource">images/motte and bailey plagiarism.xcf</property>
  <property name="ttl">25</property>
  <property name="aspect_ratio">1</property>
  <property name="progressive">1</property>
  <property name="seekable">1</property>
  <property name="format">2</property>
  <property name="meta.media.width">2330</property>
  <property name="meta.media.height">1000</property>
  <property name="mlt_service">qimage</property>
  <property name="kdenlive:clipname"/>
  <property name="kdenlive:duration">00:00:05:00</property>
  <property name="kdenlive:folderid">28</property>
  <property name="kdenlive:id">141</property>
  <property name="kdenlive:clip_type">2</property>
  <property name="kdenlive:file_size">3624176</property>
  <property name="kdenlive:file_hash">e0de28f1498b5299f24433316edecbe9</property>
 </producer>
 <producer id="producer552" in="00:00:00.000" out="00:00:04.960">
  <property name="length">00:00:05.000</property>
  <property name="eof">pause</property>
  <property name="resource">images/no-to-good-artists.png</property>
  <property name="ttl">25</property>
  <property name="aspect_ratio">1</property>
  <property name="progressive">1</property>
  <property name="seekable">1</property>
  <property name="format">2</property>
  <property name="meta.media.width">1080</property>
  <property name="meta.media.height">1080</property>
  <property name="mlt_service">qimage</property>
  <property name="kdenlive:clipname"/>
  <property name="kdenlive:duration">00:00:05:00</property>
  <property name="kdenlive:folderid">28</property>
  <property name="kdenlive:id">142</property>
  <property name="kdenlive:clip_type">2</property>
  <property name="kdenlive:file_size">325147</property>
  <property name="kdenlive:file_hash">87c1ebd5b04e6652006e6baf35926e79</property>
 </producer>
 <producer id="producer127" in="00:00:00.000" out="00:00:04.960">
  <property name="length">00:00:05.000</property>
  <property name="eof">pause</property>
  <property name="resource">images/no-to-good-artists.xcf</property>
  <property name="ttl">25</property>
  <property name="aspect_ratio">1</property>
  <property name="progressive">1</property>
  <property name="seekable">1</property>
  <property name="format">1</property>
  <property name="meta.media.width">1080</property>
  <property name="meta.media.height">1080</property>
  <property name="mlt_service">qimage</property>
  <property name="kdenlive:clipname"/>
  <property name="kdenlive:duration">00:00:05:00</property>
  <property name="kdenlive:folderid">28</property>
  <property name="kdenlive:id">143</property>
  <property name="kdenlive:clip_type">2</property>
  <property name="kdenlive:file_size">2068694</property>
  <property name="kdenlive:file_hash">04da5c70d3bd42cf48b11116c5fd15cb</property>
 </producer>
 <producer id="producer4" in="00:00:00.000" out="00:00:04.960">
  <property name="length">00:00:05.000</property>
  <property name="eof">pause</property>
  <property name="resource">images/not art-0.png</property>
  <property name="ttl">25</property>
  <property name="aspect_ratio">1</property>
  <property name="progressive">1</property>
  <property name="seekable">1</property>
  <property name="format">1</property>
  <property name="meta.media.width">594</property>
  <property name="meta.media.height">159</property>
  <property name="mlt_service">qimage</property>
  <property name="kdenlive:clipname"/>
  <property name="kdenlive:duration">00:00:05:00</property>
  <property name="kdenlive:folderid">28</property>
  <property name="kdenlive:id">144</property>
  <property name="kdenlive:clip_type">2</property>
  <property name="kdenlive:file_size">32713</property>
  <property name="kdenlive:file_hash">1e04806ebcfbf2ae33fce9e55649977d</property>
 </producer>
 <producer id="producer5" in="00:00:00.000" out="00:00:04.960">
  <property name="length">00:00:05.000</property>
  <property name="eof">pause</property>
  <property name="resource">images/not art-1.png</property>
  <property name="ttl">25</property>
  <property name="aspect_ratio">1</property>
  <property name="progressive">1</property>
  <property name="seekable">1</property>
  <property name="format">1</property>
  <property name="meta.media.width">600</property>
  <property name="meta.media.height">482</property>
  <property name="mlt_service">qimage</property>
  <property name="kdenlive:clipname"/>
  <property name="kdenlive:duration">00:00:05:00</property>
  <property name="kdenlive:folderid">28</property>
  <property name="kdenlive:id">145</property>
  <property name="kdenlive:clip_type">2</property>
  <property name="kdenlive:file_size">258416</property>
  <property name="kdenlive:file_hash">8c3f4b37d404f933b6c13a368f3f5ff5</property>
 </producer>
 <producer id="producer128" in="00:00:00.000" out="00:00:04.960">
  <property name="length">00:00:05.000</property>
  <property name="eof">pause</property>
  <property name="resource">images/not art-10.png</property>
  <property name="ttl">25</property>
  <property name="aspect_ratio">1</property>
  <property name="progressive">1</property>
  <property name="seekable">1</property>
  <property name="format">1</property>
  <property name="meta.media.width">592</property>
  <property name="meta.media.height">661</property>
  <property name="mlt_service">qimage</property>
  <property name="kdenlive:clipname"/>
  <property name="kdenlive:duration">00:00:05:00</property>
  <property name="kdenlive:folderid">28</property>
  <property name="kdenlive:id">146</property>
  <property name="kdenlive:clip_type">2</property>
  <property name="kdenlive:file_size">265620</property>
  <property name="kdenlive:file_hash">6d1745cda88281dc971a3847fe482a59</property>
 </producer>
 <producer id="producer129" in="00:00:00.000" out="00:00:04.960">
  <property name="length">00:00:05.000</property>
  <property name="eof">pause</property>
  <property name="resource">images/not art-11.png</property>
  <property name="ttl">25</property>
  <property name="aspect_ratio">1</property>
  <property name="progressive">1</property>
  <property name="seekable">1</property>
  <property name="format">1</property>
  <property name="meta.media.width">599</property>
  <property name="meta.media.height">697</property>
  <property name="mlt_service">qimage</property>
  <property name="kdenlive:clipname"/>
  <property name="kdenlive:duration">00:00:05:00</property>
  <property name="kdenlive:folderid">28</property>
  <property name="kdenlive:id">147</property>
  <property name="kdenlive:clip_type">2</property>
  <property name="kdenlive:file_size">281823</property>
  <property name="kdenlive:file_hash">1bc41e148e049f4770329c4021b8910a</property>
 </producer>
 <producer id="producer130" in="00:00:00.000" out="00:00:04.960">
  <property name="length">00:00:05.000</property>
  <property name="eof">pause</property>
  <property name="resource">images/not art-12.png</property>
  <property name="ttl">25</property>
  <property name="aspect_ratio">1</property>
  <property name="progressive">1</property>
  <property name="seekable">1</property>
  <property name="format">1</property>
  <property name="meta.media.width">591</property>
  <property name="meta.media.height">191</property>
  <property name="mlt_service">qimage</property>
  <property name="kdenlive:clipname"/>
  <property name="kdenlive:duration">00:00:05:00</property>
  <property name="kdenlive:folderid">28</property>
  <property name="kdenlive:id">148</property>
  <property name="kdenlive:clip_type">2</property>
  <property name="kdenlive:file_size">20930</property>
  <property name="kdenlive:file_hash">ece4464467dabe9fbd05ae6af17a33c9</property>
 </producer>
 <producer id="producer131" in="00:00:00.000" out="00:00:04.960">
  <property name="length">00:00:05.000</property>
  <property name="eof">pause</property>
  <property name="resource">images/not art-13.png</property>
  <property name="ttl">25</property>
  <property name="aspect_ratio">1</property>
  <property name="progressive">1</property>
  <property name="seekable">1</property>
  <property name="format">1</property>
  <property name="meta.media.width">596</property>
  <property name="meta.media.height">98</property>
  <property name="mlt_service">qimage</property>
  <property name="kdenlive:clipname"/>
  <property name="kdenlive:duration">00:00:05:00</property>
  <property name="kdenlive:folderid">28</property>
  <property name="kdenlive:id">149</property>
  <property name="kdenlive:clip_type">2</property>
  <property name="kdenlive:file_size">16626</property>
  <property name="kdenlive:file_hash">9d2033886a6d7e2925e0ae6f729aa583</property>
 </producer>
 <producer id="producer6" in="00:00:00.000" out="00:00:04.960">
  <property name="length">00:00:05.000</property>
  <property name="eof">pause</property>
  <property name="resource">images/not art-2.png</property>
  <property name="ttl">25</property>
  <property name="aspect_ratio">1</property>
  <property name="progressive">1</property>
  <property name="seekable">1</property>
  <property name="format">1</property>
  <property name="meta.media.width">598</property>
  <property name="meta.media.height">474</property>
  <property name="mlt_service">qimage</property>
  <property name="kdenlive:clipname"/>
  <property name="kdenlive:duration">00:00:05:00</property>
  <property name="kdenlive:folderid">28</property>
  <property name="kdenlive:id">150</property>
  <property name="kdenlive:clip_type">2</property>
  <property name="kdenlive:file_size">233818</property>
  <property name="kdenlive:file_hash">14fff50393db6ff6977cc58475b26ced</property>
 </producer>
 <producer id="producer7" in="00:00:00.000" out="00:00:04.960">
  <property name="length">00:00:05.000</property>
  <property name="eof">pause</property>
  <property name="resource">images/not art-3.png</property>
  <property name="ttl">25</property>
  <property name="aspect_ratio">1</property>
  <property name="progressive">1</property>
  <property name="seekable">1</property>
  <property name="format">1</property>
  <property name="meta.media.width">599</property>
  <property name="meta.media.height">163</property>
  <property name="mlt_service">qimage</property>
  <property name="kdenlive:clipname"/>
  <property name="kdenlive:duration">00:00:05:00</property>
  <property name="kdenlive:folderid">28</property>
  <property name="kdenlive:id">151</property>
  <property name="kdenlive:clip_type">2</property>
  <property name="kdenlive:file_size">20342</property>
  <property name="kdenlive:file_hash">80ebcd032a643867d1c4ed157b51ee62</property>
 </producer>
 <producer id="producer132" in="00:00:00.000" out="00:00:04.960">
  <property name="length">00:00:05.000</property>
  <property name="eof">pause</property>
  <property name="resource">images/not art-4.png</property>
  <property name="ttl">25</property>
  <property name="aspect_ratio">1</property>
  <property name="progressive">1</property>
  <property name="seekable">1</property>
  <property name="format">1</property>
  <property name="meta.media.width">599</property>
  <property name="meta.media.height">672</property>
  <property name="mlt_service">qimage</property>
  <property name="kdenlive:clipname"/>
  <property name="kdenlive:duration">00:00:05:00</property>
  <property name="kdenlive:folderid">28</property>
  <property name="kdenlive:id">152</property>
  <property name="kdenlive:clip_type">2</property>
  <property name="kdenlive:file_size">409844</property>
  <property name="kdenlive:file_hash">a60e748333bab17baea0bd762e098a6f</property>
 </producer>
 <producer id="producer8" in="00:00:00.000" out="00:00:04.960">
  <property name="length">00:00:05.000</property>
  <property name="eof">pause</property>
  <property name="resource">images/not art-5.png</property>
  <property name="ttl">25</property>
  <property name="aspect_ratio">1</property>
  <property name="progressive">1</property>
  <property name="seekable">1</property>
  <property name="format">1</property>
  <property name="meta.media.width">596</property>
  <property name="meta.media.height">101</property>
  <property name="mlt_service">qimage</property>
  <property name="kdenlive:clipname"/>
  <property name="kdenlive:duration">00:00:05:00</property>
  <property name="kdenlive:folderid">28</property>
  <property name="kdenlive:id">153</property>
  <property name="kdenlive:clip_type">2</property>
  <property name="kdenlive:file_size">16135</property>
  <property name="kdenlive:file_hash">d911a7e2d7ac9cadf4984344a930f7f9</property>
 </producer>
 <producer id="producer9" in="00:00:00.000" out="00:00:04.960">
  <property name="length">00:00:05.000</property>
  <property name="eof">pause</property>
  <property name="resource">images/not art-6.png</property>
  <property name="ttl">25</property>
  <property name="aspect_ratio">1</property>
  <property name="progressive">1</property>
  <property name="seekable">1</property>
  <property name="format">1</property>
  <property name="meta.media.width">599</property>
  <property name="meta.media.height">627</property>
  <property name="mlt_service">qimage</property>
  <property name="kdenlive:clipname"/>
  <property name="kdenlive:duration">00:00:05:00</property>
  <property name="kdenlive:folderid">28</property>
  <property name="kdenlive:id">154</property>
  <property name="kdenlive:clip_type">2</property>
  <property name="kdenlive:file_size">270249</property>
  <property name="kdenlive:file_hash">ff446765c7749d99c1c917bb59d8bfdc</property>
 </producer>
 <producer id="producer10" in="00:00:00.000" out="00:00:04.960">
  <property name="length">00:00:05.000</property>
  <property name="eof">pause</property>
  <property name="resource">images/not art-7.png</property>
  <property name="ttl">25</property>
  <property name="aspect_ratio">1</property>
  <property name="progressive">1</property>
  <property name="seekable">1</property>
  <property name="format">1</property>
  <property name="meta.media.width">596</property>
  <property name="meta.media.height">477</property>
  <property name="mlt_service">qimage</property>
  <property name="kdenlive:clipname"/>
  <property name="kdenlive:duration">00:00:05:00</property>
  <property name="kdenlive:folderid">28</property>
  <property name="kdenlive:id">155</property>
  <property name="kdenlive:clip_type">2</property>
  <property name="kdenlive:file_size">214886</property>
  <property name="kdenlive:file_hash">e9fc3f23f3c09e4f4df01a484e2f8dea</property>
 </producer>
 <producer id="producer133" in="00:00:00.000" out="00:00:04.960">
  <property name="length">00:00:05.000</property>
  <property name="eof">pause</property>
  <property name="resource">images/not art-8.png</property>
  <property name="ttl">25</property>
  <property name="aspect_ratio">1</property>
  <property name="progressive">1</property>
  <property name="seekable">1</property>
  <property name="format">1</property>
  <property name="meta.media.width">599</property>
  <property name="meta.media.height">648</property>
  <property name="mlt_service">qimage</property>
  <property name="kdenlive:clipname"/>
  <property name="kdenlive:duration">00:00:05:00</property>
  <property name="kdenlive:folderid">28</property>
  <property name="kdenlive:id">156</property>
  <property name="kdenlive:clip_type">2</property>
  <property name="kdenlive:file_size">149377</property>
  <property name="kdenlive:file_hash">b5905b18d2ab297bde900417b2621b78</property>
 </producer>
 <producer id="producer134" in="00:00:00.000" out="00:00:04.960">
  <property name="length">00:00:05.000</property>
  <property name="eof">pause</property>
  <property name="resource">images/not art-9.png</property>
  <property name="ttl">25</property>
  <property name="aspect_ratio">1</property>
  <property name="progressive">1</property>
  <property name="seekable">1</property>
  <property name="format">1</property>
  <property name="meta.media.width">599</property>
  <property name="meta.media.height">198</property>
  <property name="mlt_service">qimage</property>
  <property name="kdenlive:clipname"/>
  <property name="kdenlive:duration">00:00:05:00</property>
  <property name="kdenlive:folderid">28</property>
  <property name="kdenlive:id">157</property>
  <property name="kdenlive:clip_type">2</property>
  <property name="kdenlive:file_size">27845</property>
  <property name="kdenlive:file_hash">39fe1be6e1a9fc3ac24f69c908878c80</property>
 </producer>
 <producer id="producer136" in="00:00:00.000" out="00:00:04.960">
  <property name="length">00:00:05.000</property>
  <property name="eof">pause</property>
  <property name="resource">images/pattern-atom.jpg</property>
  <property name="ttl">25</property>
  <property name="aspect_ratio">1</property>
  <property name="progressive">1</property>
  <property name="seekable">1</property>
  <property name="format">1</property>
  <property name="meta.media.width">4096</property>
  <property name="meta.media.height">4096</property>
  <property name="mlt_service">qimage</property>
  <property name="kdenlive:clipname"/>
  <property name="kdenlive:duration">00:00:05:00</property>
  <property name="kdenlive:folderid">28</property>
  <property name="kdenlive:id">158</property>
  <property name="kdenlive:clip_type">2</property>
  <property name="kdenlive:file_size">2322828</property>
  <property name="kdenlive:file_hash">76066a47fa2f1f8fd54d798c05681315</property>
 </producer>
 <producer id="producer137" in="00:00:00.000" out="00:00:04.960">
  <property name="length">00:00:05.000</property>
  <property name="eof">pause</property>
  <property name="resource">images/pattern-grid.jpg</property>
  <property name="ttl">25</property>
  <property name="aspect_ratio">1</property>
  <property name="progressive">1</property>
  <property name="seekable">1</property>
  <property name="format">1</property>
  <property name="meta.media.width">1024</property>
  <property name="meta.media.height">1024</property>
  <property name="mlt_service">qimage</property>
  <property name="kdenlive:clipname"/>
  <property name="kdenlive:duration">00:00:05:00</property>
  <property name="kdenlive:folderid">28</property>
  <property name="kdenlive:id">159</property>
  <property name="kdenlive:clip_type">2</property>
  <property name="kdenlive:file_size">154650</property>
  <property name="kdenlive:file_hash">23e4db2d656e57d175ca5ed75bd97321</property>
 </producer>
 <producer id="producer150" in="00:00:00.000" out="00:00:04.960">
  <property name="length">00:00:05.000</property>
  <property name="eof">pause</property>
  <property name="resource">images/pattern-lightning-spiral.jpg</property>
  <property name="ttl">25</property>
  <property name="aspect_ratio">1</property>
  <property name="progressive">1</property>
  <property name="seekable">1</property>
  <property name="format">1</property>
  <property name="meta.media.width">4096</property>
  <property name="meta.media.height">4096</property>
  <property name="mlt_service">qimage</property>
  <property name="kdenlive:clipname"/>
  <property name="kdenlive:duration">00:00:05:00</property>
  <property name="kdenlive:folderid">28</property>
  <property name="kdenlive:id">160</property>
  <property name="kdenlive:clip_type">2</property>
  <property name="kdenlive:file_size">1806971</property>
  <property name="kdenlive:file_hash">6cd0b63764252808d25d93b5f0e389a2</property>
 </producer>
 <producer id="producer141" in="00:00:00.000" out="00:00:04.960">
  <property name="length">00:00:05.000</property>
  <property name="eof">pause</property>
  <property name="resource">images/pattern-nike-twitter-peace.jpg</property>
  <property name="ttl">25</property>
  <property name="aspect_ratio">1</property>
  <property name="progressive">1</property>
  <property name="seekable">1</property>
  <property name="format">1</property>
  <property name="meta.media.width">2089</property>
  <property name="meta.media.height">2171</property>
  <property name="mlt_service">qimage</property>
  <property name="kdenlive:clipname"/>
  <property name="kdenlive:duration">00:00:05:00</property>
  <property name="kdenlive:folderid">28</property>
  <property name="kdenlive:id">161</property>
  <property name="kdenlive:clip_type">2</property>
  <property name="kdenlive:file_size">488065</property>
  <property name="kdenlive:file_hash">8d4fe4b4df12b5f84437d34fdbde04ab</property>
 </producer>
 <producer id="producer140" in="00:00:00.000" out="00:00:04.960">
  <property name="length">00:00:05.000</property>
  <property name="eof">pause</property>
  <property name="resource">images/pattern-spiral-2.jpg</property>
  <property name="ttl">25</property>
  <property name="aspect_ratio">1</property>
  <property name="progressive">1</property>
  <property name="seekable">1</property>
  <property name="format">1</property>
  <property name="meta.media.width">1024</property>
  <property name="meta.media.height">1024</property>
  <property name="mlt_service">qimage</property>
  <property name="kdenlive:clipname"/>
  <property name="kdenlive:duration">00:00:05:00</property>
  <property name="kdenlive:folderid">28</property>
  <property name="kdenlive:id">162</property>
  <property name="kdenlive:clip_type">2</property>
  <property name="kdenlive:file_size">251046</property>
  <property name="kdenlive:file_hash">eff1b7cb10ac2a6e04d94e0110f97ef7</property>
 </producer>
 <producer id="producer145" in="00:00:00.000" out="00:00:04.960">
  <property name="length">00:00:05.000</property>
  <property name="eof">pause</property>
  <property name="resource">images/pattern-spiral-3.jpg</property>
  <property name="ttl">25</property>
  <property name="aspect_ratio">1</property>
  <property name="progressive">1</property>
  <property name="seekable">1</property>
  <property name="format">1</property>
  <property name="meta.media.width">2048</property>
  <property name="meta.media.height">2048</property>
  <property name="mlt_service">qimage</property>
  <property name="kdenlive:clipname"/>
  <property name="kdenlive:duration">00:00:05:00</property>
  <property name="kdenlive:folderid">28</property>
  <property name="kdenlive:id">163</property>
  <property name="kdenlive:clip_type">2</property>
  <property name="kdenlive:file_size">1114325</property>
  <property name="kdenlive:file_hash">483844008ac1c2afc4a10479e623c3f5</property>
 </producer>
 <producer id="producer142" in="00:00:00.000" out="00:00:04.960">
  <property name="length">00:00:05.000</property>
  <property name="eof">pause</property>
  <property name="resource">images/pattern-spiral.jpg</property>
  <property name="ttl">25</property>
  <property name="aspect_ratio">1</property>
  <property name="progressive">1</property>
  <property name="seekable">1</property>
  <property name="format">1</property>
  <property name="meta.media.width">1792</property>
  <property name="meta.media.height">1792</property>
  <property name="mlt_service">qimage</property>
  <property name="kdenlive:clipname"/>
  <property name="kdenlive:duration">00:00:05:00</property>
  <property name="kdenlive:folderid">28</property>
  <property name="kdenlive:id">164</property>
  <property name="kdenlive:clip_type">2</property>
  <property name="kdenlive:file_size">617504</property>
  <property name="kdenlive:file_hash">b988b48204b8b68ea01b774e9e307935</property>
 </producer>
 <producer id="producer143" in="00:00:00.000" out="00:00:04.960">
  <property name="length">00:00:05.000</property>
  <property name="eof">pause</property>
  <property name="resource">images/pattern-square-spiral.jpg</property>
  <property name="ttl">25</property>
  <property name="aspect_ratio">1</property>
  <property name="progressive">1</property>
  <property name="seekable">1</property>
  <property name="format">1</property>
  <property name="meta.media.width">680</property>
  <property name="meta.media.height">680</property>
  <property name="mlt_service">qimage</property>
  <property name="kdenlive:clipname"/>
  <property name="kdenlive:duration">00:00:05:00</property>
  <property name="kdenlive:folderid">28</property>
  <property name="kdenlive:id">165</property>
  <property name="kdenlive:clip_type">2</property>
  <property name="kdenlive:file_size">94470</property>
  <property name="kdenlive:file_hash">76f0b50c177acd32f78624e6df5399b4</property>
 </producer>
 <producer id="producer144" in="00:00:00.000" out="00:00:04.960">
  <property name="length">00:00:05.000</property>
  <property name="eof">pause</property>
  <property name="resource">images/pattern-star-wars.png</property>
  <property name="ttl">25</property>
  <property name="aspect_ratio">1</property>
  <property name="progressive">1</property>
  <property name="seekable">1</property>
  <property name="format">1</property>
  <property name="meta.media.width">768</property>
  <property name="meta.media.height">768</property>
  <property name="mlt_service">qimage</property>
  <property name="kdenlive:clipname"/>
  <property name="kdenlive:duration">00:00:05:00</property>
  <property name="kdenlive:folderid">28</property>
  <property name="kdenlive:id">166</property>
  <property name="kdenlive:clip_type">2</property>
  <property name="kdenlive:file_size">1387301</property>
  <property name="kdenlive:file_hash">1cf9f6460cf4c3bcf257ba8db512ce8d</property>
 </producer>
 <producer id="producer146" in="00:00:00.000" out="00:00:04.960">
  <property name="length">00:00:05.000</property>
  <property name="eof">pause</property>
  <property name="resource">images/people-cant-tell-AI-art-apart-from-human-art.png</property>
  <property name="ttl">25</property>
  <property name="aspect_ratio">1</property>
  <property name="progressive">1</property>
  <property name="seekable">1</property>
  <property name="format">2</property>
  <property name="meta.media.width">680</property>
  <property name="meta.media.height">766</property>
  <property name="mlt_service">qimage</property>
  <property name="kdenlive:clipname"/>
  <property name="kdenlive:duration">00:00:05:00</property>
  <property name="kdenlive:folderid">28</property>
  <property name="kdenlive:id">167</property>
  <property name="kdenlive:clip_type">2</property>
  <property name="kdenlive:file_size">643915</property>
  <property name="kdenlive:file_hash">4abe12368dc5878989f78f578162831c</property>
 </producer>
 <producer id="producer148" in="00:00:00.000" out="00:00:04.960">
  <property name="length">00:00:05.000</property>
  <property name="eof">pause</property>
  <property name="resource">images/Picasso - The Old Guitarist.jpg</property>
  <property name="ttl">25</property>
  <property name="aspect_ratio">1</property>
  <property name="progressive">1</property>
  <property name="seekable">1</property>
  <property name="format">1</property>
  <property name="meta.media.width">1280</property>
  <property name="meta.media.height">1916</property>
  <property name="mlt_service">qimage</property>
  <property name="kdenlive:clipname"/>
  <property name="kdenlive:duration">00:00:05:00</property>
  <property name="kdenlive:folderid">28</property>
  <property name="kdenlive:id">168</property>
  <property name="kdenlive:clip_type">2</property>
  <property name="kdenlive:file_size">282868</property>
  <property name="kdenlive:file_hash">e11eade06dce89277d93a21b231892d8</property>
 </producer>
 <producer id="producer147" in="00:00:00.000" out="00:00:04.960">
  <property name="length">00:00:05.000</property>
  <property name="eof">pause</property>
  <property name="resource">images/picasso womans head.jpg</property>
  <property name="ttl">25</property>
  <property name="aspect_ratio">1</property>
  <property name="progressive">1</property>
  <property name="seekable">1</property>
  <property name="format">1</property>
  <property name="meta.media.width">474</property>
  <property name="meta.media.height">607</property>
  <property name="mlt_service">qimage</property>
  <property name="kdenlive:clipname"/>
  <property name="kdenlive:duration">00:00:05:00</property>
  <property name="kdenlive:folderid">28</property>
  <property name="kdenlive:id">169</property>
  <property name="kdenlive:clip_type">2</property>
  <property name="kdenlive:file_size">49003</property>
  <property name="kdenlive:file_hash">bf6de13f5ecdab6cab5bc7b0b71ec28f</property>
 </producer>
 <producer id="producer192" in="00:00:00.000" out="00:00:04.960">
  <property name="length">00:00:05.000</property>
  <property name="eof">pause</property>
  <property name="resource">images/racetrack.xcf</property>
  <property name="ttl">25</property>
  <property name="aspect_ratio">1</property>
  <property name="progressive">1</property>
  <property name="seekable">1</property>
  <property name="format">2</property>
  <property name="meta.media.width">4096</property>
  <property name="meta.media.height">2281</property>
  <property name="mlt_service">qimage</property>
  <property name="kdenlive:clipname"/>
  <property name="kdenlive:duration">00:00:05:00</property>
  <property name="kdenlive:folderid">28</property>
  <property name="kdenlive:id">170</property>
  <property name="kdenlive:clip_type">2</property>
  <property name="kdenlive:file_size">8877124</property>
  <property name="kdenlive:file_hash">41878c65a7784105a6ffc64786b1d115</property>
 </producer>
 <producer id="producer149" in="00:00:00.000" out="00:00:04.960">
  <property name="length">00:00:05.000</property>
  <property name="eof">pause</property>
  <property name="resource">images/reddit ban artist.png</property>
  <property name="ttl">25</property>
  <property name="aspect_ratio">1</property>
  <property name="progressive">1</property>
  <property name="seekable">1</property>
  <property name="format">1</property>
  <property name="meta.media.width">597</property>
  <property name="meta.media.height">726</property>
  <property name="mlt_service">qimage</property>
  <property name="kdenlive:clipname"/>
  <property name="kdenlive:duration">00:00:05:00</property>
  <property name="kdenlive:folderid">28</property>
  <property name="kdenlive:id">171</property>
  <property name="kdenlive:clip_type">2</property>
  <property name="kdenlive:file_size">368792</property>
  <property name="kdenlive:file_hash">321fd990f4b7298e3e60144d8d6e9ca5</property>
 </producer>
 <producer id="producer151" in="00:00:00.000" out="00:00:04.960">
  <property name="length">00:00:05.000</property>
  <property name="eof">pause</property>
  <property name="resource">images/Reid Southen slop-monger.png</property>
  <property name="ttl">25</property>
  <property name="aspect_ratio">1</property>
  <property name="progressive">1</property>
  <property name="seekable">1</property>
  <property name="format">1</property>
  <property name="meta.media.width">849</property>
  <property name="meta.media.height">1728</property>
  <property name="mlt_service">qimage</property>
  <property name="kdenlive:clipname"/>
  <property name="kdenlive:duration">00:00:05:00</property>
  <property name="kdenlive:folderid">28</property>
  <property name="kdenlive:id">172</property>
  <property name="kdenlive:clip_type">2</property>
  <property name="kdenlive:file_size">2282297</property>
  <property name="kdenlive:file_hash">5f524b4d0bdbda50e5ef0765f5c7c806</property>
 </producer>
 <producer id="producer152" in="00:00:00.000" out="00:00:30.000">
  <property name="length">751</property>
  <property name="eof">pause</property>
  <property name="resource">images/replication-faces.png</property>
  <property name="ttl">25</property>
  <property name="aspect_ratio">1</property>
  <property name="progressive">1</property>
  <property name="seekable">1</property>
  <property name="format">1</property>
  <property name="meta.media.width">851</property>
  <property name="meta.media.height">919</property>
  <property name="mlt_service">qimage</property>
  <property name="kdenlive:clipname"/>
  <property name="kdenlive:duration">00:00:05:00</property>
  <property name="kdenlive:folderid">28</property>
  <property name="kdenlive:id">173</property>
  <property name="kdenlive:clip_type">2</property>
  <property name="kdenlive:file_size">868717</property>
  <property name="kdenlive:file_hash">513006c861e86c69cd70e0207b62c29e</property>
 </producer>
 <producer id="producer153" in="00:00:00.000" out="00:00:22.320">
  <property name="length">559</property>
  <property name="eof">pause</property>
  <property name="resource">images/replication-histograms.png</property>
  <property name="ttl">25</property>
  <property name="aspect_ratio">1</property>
  <property name="progressive">1</property>
  <property name="seekable">1</property>
  <property name="format">1</property>
  <property name="meta.media.width">1635</property>
  <property name="meta.media.height">453</property>
  <property name="mlt_service">qimage</property>
  <property name="kdenlive:clipname"/>
  <property name="kdenlive:duration">00:00:05:00</property>
  <property name="kdenlive:folderid">28</property>
  <property name="kdenlive:id">174</property>
  <property name="kdenlive:clip_type">2</property>
  <property name="kdenlive:file_size">39823</property>
  <property name="kdenlive:file_hash">0626063273f932aebb33e97f6d282a7b</property>
 </producer>
 <producer id="producer155" in="00:00:00.000" out="00:00:16.520">
  <property name="length">414</property>
  <property name="eof">pause</property>
  <property name="resource">images/replication-stable-diffusion-canvas-wall-art.png</property>
  <property name="ttl">25</property>
  <property name="aspect_ratio">1</property>
  <property name="progressive">1</property>
  <property name="seekable">1</property>
  <property name="format">1</property>
  <property name="meta.media.width">1316</property>
  <property name="meta.media.height">409</property>
  <property name="mlt_service">qimage</property>
  <property name="kdenlive:clipname"/>
  <property name="kdenlive:duration">00:00:05:00</property>
  <property name="kdenlive:folderid">28</property>
  <property name="kdenlive:id">175</property>
  <property name="kdenlive:clip_type">2</property>
  <property name="kdenlive:file_size">460364</property>
  <property name="kdenlive:file_hash">8ee1640fb61be292b98484d6854c8036</property>
 </producer>
 <producer id="producer154" in="00:00:00.000" out="00:00:27.400">
  <property name="length">686</property>
  <property name="eof">pause</property>
  <property name="resource">images/replication-stable-diffusion-histogram.png</property>
  <property name="ttl">25</property>
  <property name="aspect_ratio">1</property>
  <property name="progressive">1</property>
  <property name="seekable">1</property>
  <property name="format">1</property>
  <property name="meta.media.width">786</property>
  <property name="meta.media.height">655</property>
  <property name="mlt_service">qimage</property>
  <property name="kdenlive:clipname"/>
  <property name="kdenlive:duration">00:00:05:00</property>
  <property name="kdenlive:folderid">28</property>
  <property name="kdenlive:id">176</property>
  <property name="kdenlive:clip_type">2</property>
  <property name="kdenlive:file_size">21911</property>
  <property name="kdenlive:file_hash">3de53991c4d11206a3ca77238d8d033c</property>
 </producer>
 <producer id="producer402" in="00:00:00.000" out="00:00:29.880">
  <property name="length">748</property>
  <property name="eof">pause</property>
  <property name="resource">images/replication-stable-diffusion-prompts-0.png</property>
  <property name="ttl">25</property>
  <property name="aspect_ratio">1</property>
  <property name="progressive">1</property>
  <property name="seekable">1</property>
  <property name="format">1</property>
  <property name="meta.media.width">1028</property>
  <property name="meta.media.height">650</property>
  <property name="mlt_service">qimage</property>
  <property name="kdenlive:clipname"/>
  <property name="kdenlive:duration">00:00:05.000</property>
  <property name="kdenlive:folderid">28</property>
  <property name="kdenlive:id">177</property>
  <property name="kdenlive:clip_type">2</property>
  <property name="kdenlive:file_size">780766</property>
  <property name="kdenlive:file_hash">3806d497bf9fe172edaddcd3d1424c4f</property>
 </producer>
 <producer id="producer409" in="00:00:00.000" out="00:00:26.480">
  <property name="length">663</property>
  <property name="eof">pause</property>
  <property name="resource">images/replication-stable-diffusion-prompts-1.png</property>
  <property name="ttl">25</property>
  <property name="aspect_ratio">1</property>
  <property name="progressive">1</property>
  <property name="seekable">1</property>
  <property name="format">2</property>
  <property name="meta.media.width">1028</property>
  <property name="meta.media.height">644</property>
  <property name="mlt_service">qimage</property>
  <property name="kdenlive:clipname"/>
  <property name="kdenlive:duration">00:00:05.000</property>
  <property name="kdenlive:folderid">28</property>
  <property name="kdenlive:id">178</property>
  <property name="kdenlive:clip_type">2</property>
  <property name="kdenlive:file_size">939818</property>
  <property name="kdenlive:file_hash">d906495514b009fa76a7aa04e6b8a70d</property>
 </producer>
 <producer id="producer454" in="00:00:00.000" out="00:00:04.960">
  <property name="length">00:00:05.000</property>
  <property name="eof">pause</property>
  <property name="resource">images/replication-stable-diffusion-prompts-2.png</property>
  <property name="ttl">25</property>
  <property name="aspect_ratio">1</property>
  <property name="progressive">1</property>
  <property name="seekable">1</property>
  <property name="format">1</property>
  <property name="meta.media.width">1028</property>
  <property name="meta.media.height">643</property>
  <property name="mlt_service">qimage</property>
  <property name="kdenlive:clipname"/>
  <property name="kdenlive:duration">00:00:05.000</property>
  <property name="kdenlive:folderid">28</property>
  <property name="kdenlive:id">179</property>
  <property name="kdenlive:clip_type">2</property>
  <property name="kdenlive:file_size">822688</property>
  <property name="kdenlive:file_hash">a757ceabf462127ace89372a2d639e19</property>
 </producer>
 <producer id="producer455" in="00:00:00.000" out="00:00:04.960">
  <property name="length">00:00:05.000</property>
  <property name="eof">pause</property>
  <property name="resource">images/replication-stable-diffusion-prompts-3.png</property>
  <property name="ttl">25</property>
  <property name="aspect_ratio">1</property>
  <property name="progressive">1</property>
  <property name="seekable">1</property>
  <property name="format">2</property>
  <property name="meta.media.width">1028</property>
  <property name="meta.media.height">638</property>
  <property name="mlt_service">qimage</property>
  <property name="kdenlive:clipname"/>
  <property name="kdenlive:duration">00:00:05.000</property>
  <property name="kdenlive:folderid">28</property>
  <property name="kdenlive:id">180</property>
  <property name="kdenlive:clip_type">2</property>
  <property name="kdenlive:file_size">572728</property>
  <property name="kdenlive:file_hash">859e79f37547d185f02cf33ef4eac490</property>
 </producer>
 <producer id="producer429" in="00:00:00.000" out="00:00:26.360">
  <property name="length">660</property>
  <property name="eof">pause</property>
  <property name="resource">images/replication-stable-diffusion-prompts-4.png</property>
  <property name="ttl">25</property>
  <property name="aspect_ratio">1</property>
  <property name="progressive">1</property>
  <property name="seekable">1</property>
  <property name="format">2</property>
  <property name="meta.media.width">1028</property>
  <property name="meta.media.height">654</property>
  <property name="mlt_service">qimage</property>
  <property name="kdenlive:clipname"/>
  <property name="kdenlive:duration">00:00:05.000</property>
  <property name="kdenlive:folderid">28</property>
  <property name="kdenlive:id">181</property>
  <property name="kdenlive:clip_type">2</property>
  <property name="kdenlive:file_size">689648</property>
  <property name="kdenlive:file_hash">1c4ff82eb41ce448bdbecfb6f4522b29</property>
 </producer>
 <producer id="producer456" in="00:00:00.000" out="00:00:04.960">
  <property name="length">00:00:05.000</property>
  <property name="eof">pause</property>
  <property name="resource">images/replication-stable-diffusion-prompts-5.png</property>
  <property name="ttl">25</property>
  <property name="aspect_ratio">1</property>
  <property name="progressive">1</property>
  <property name="seekable">1</property>
  <property name="format">2</property>
  <property name="meta.media.width">1028</property>
  <property name="meta.media.height">640</property>
  <property name="mlt_service">qimage</property>
  <property name="kdenlive:clipname"/>
  <property name="kdenlive:duration">00:00:05.000</property>
  <property name="kdenlive:folderid">28</property>
  <property name="kdenlive:id">182</property>
  <property name="kdenlive:clip_type">2</property>
  <property name="kdenlive:file_size">405497</property>
  <property name="kdenlive:file_hash">18b7cf004f5f843a1866ab7e2dd8db0d</property>
 </producer>
 <producer id="producer162" in="00:00:00.000" out="00:00:43.640">
  <property name="length">1092</property>
  <property name="eof">pause</property>
  <property name="resource">images/replication-stable-diffusion-prompts.png</property>
  <property name="ttl">25</property>
  <property name="aspect_ratio">1</property>
  <property name="progressive">1</property>
  <property name="seekable">1</property>
  <property name="format">1</property>
  <property name="meta.media.width">1028</property>
  <property name="meta.media.height">856</property>
  <property name="mlt_service">qimage</property>
  <property name="kdenlive:clipname"/>
  <property name="kdenlive:duration">00:00:05:00</property>
  <property name="kdenlive:folderid">28</property>
  <property name="kdenlive:id">183</property>
  <property name="kdenlive:clip_type">2</property>
  <property name="kdenlive:file_size">526343</property>
  <property name="kdenlive:file_hash">9a0a8cedb2284a07f88451dab0d35c9f</property>
 </producer>
 <producer id="producer401" in="00:00:00.000" out="00:00:04.960">
  <property name="length">00:00:05.000</property>
  <property name="eof">pause</property>
  <property name="resource">images/replication-stable-diffusion.png</property>
  <property name="ttl">25</property>
  <property name="aspect_ratio">1</property>
  <property name="progressive">1</property>
  <property name="seekable">1</property>
  <property name="format">1</property>
  <property name="meta.media.width">1069</property>
  <property name="meta.media.height">521</property>
  <property name="mlt_service">qimage</property>
  <property name="kdenlive:clipname"/>
  <property name="kdenlive:duration">00:00:05:00</property>
  <property name="kdenlive:folderid">28</property>
  <property name="kdenlive:id">184</property>
  <property name="kdenlive:clip_type">2</property>
  <property name="kdenlive:file_size">635183</property>
  <property name="kdenlive:file_hash">77f5bab04857c5772a55d8093f0356dc</property>
 </producer>
 <producer id="producer165" in="00:00:00.000" out="00:00:04.960">
  <property name="length">00:00:05.000</property>
  <property name="eof">pause</property>
  <property name="resource">images/shad recreating grip.jpg</property>
  <property name="ttl">25</property>
  <property name="aspect_ratio">1</property>
  <property name="progressive">1</property>
  <property name="seekable">1</property>
  <property name="format">1</property>
  <property name="meta.media.width">2892</property>
  <property name="meta.media.height">1080</property>
  <property name="mlt_service">qimage</property>
  <property name="kdenlive:clipname"/>
  <property name="kdenlive:duration">00:00:05:00</property>
  <property name="kdenlive:folderid">28</property>
  <property name="kdenlive:id">185</property>
  <property name="kdenlive:clip_type">2</property>
  <property name="kdenlive:file_size">362802</property>
  <property name="kdenlive:file_hash">f7da8ac83b1a432a23d107aeb275133e</property>
 </producer>
 <producer id="producer164" in="00:00:00.000" out="00:00:04.960">
  <property name="length">00:00:05.000</property>
  <property name="eof">pause</property>
  <property name="resource">images/shad supergirl bad layout.jpg</property>
  <property name="ttl">25</property>
  <property name="aspect_ratio">1</property>
  <property name="progressive">1</property>
  <property name="seekable">1</property>
  <property name="format">1</property>
  <property name="meta.media.width">1088</property>
  <property name="meta.media.height">1600</property>
  <property name="mlt_service">qimage</property>
  <property name="kdenlive:clipname"/>
  <property name="kdenlive:duration">00:00:05:00</property>
  <property name="kdenlive:folderid">28</property>
  <property name="kdenlive:id">186</property>
  <property name="kdenlive:clip_type">2</property>
  <property name="kdenlive:file_size">319850</property>
  <property name="kdenlive:file_hash">6ab414e1389570d24c4f1740075bb5c0</property>
 </producer>
 <producer id="producer166" in="00:00:00.000" out="00:00:04.960">
  <property name="length">00:00:05.000</property>
  <property name="eof">pause</property>
  <property name="resource">images/shad supergirl lighting.jpg</property>
  <property name="ttl">25</property>
  <property name="aspect_ratio">1</property>
  <property name="progressive">1</property>
  <property name="seekable">1</property>
  <property name="format">1</property>
  <property name="meta.media.width">550</property>
  <property name="meta.media.height">822</property>
  <property name="mlt_service">qimage</property>
  <property name="kdenlive:clipname"/>
  <property name="kdenlive:duration">00:00:05:00</property>
  <property name="kdenlive:folderid">28</property>
  <property name="kdenlive:id">187</property>
  <property name="kdenlive:clip_type">2</property>
  <property name="kdenlive:file_size">88505</property>
  <property name="kdenlive:file_hash">856f70dde94fb3b4c61d48d479fd21dd</property>
 </producer>
 <producer id="producer167" in="00:00:00.000" out="00:00:04.960">
  <property name="length">00:00:05.000</property>
  <property name="eof">pause</property>
  <property name="resource">images/shad sword girl challenge image.png</property>
  <property name="ttl">25</property>
  <property name="aspect_ratio">1</property>
  <property name="progressive">1</property>
  <property name="seekable">1</property>
  <property name="format">1</property>
  <property name="meta.media.width">616</property>
  <property name="meta.media.height">741</property>
  <property name="mlt_service">qimage</property>
  <property name="kdenlive:clipname"/>
  <property name="kdenlive:duration">00:00:05:00</property>
  <property name="kdenlive:folderid">28</property>
  <property name="kdenlive:id">188</property>
  <property name="kdenlive:clip_type">2</property>
  <property name="kdenlive:file_size">158473</property>
  <property name="kdenlive:file_hash">7ab2ce205881e52e959e53646e3f1a9f</property>
 </producer>
 <producer id="producer168" in="00:00:00.000" out="00:00:04.960">
  <property name="length">00:00:05.000</property>
  <property name="eof">pause</property>
  <property name="resource">images/shad sword girl completely different in replication.png</property>
  <property name="ttl">25</property>
  <property name="aspect_ratio">1</property>
  <property name="progressive">1</property>
  <property name="seekable">1</property>
  <property name="format">1</property>
  <property name="meta.media.width">590</property>
  <property name="meta.media.height">530</property>
  <property name="mlt_service">qimage</property>
  <property name="kdenlive:clipname"/>
  <property name="kdenlive:duration">00:00:05:00</property>
  <property name="kdenlive:folderid">28</property>
  <property name="kdenlive:id">189</property>
  <property name="kdenlive:clip_type">2</property>
  <property name="kdenlive:file_size">225339</property>
  <property name="kdenlive:file_hash">b75c44672cf93a02bcac3a51f9999818</property>
 </producer>
 <producer id="producer173" in="00:00:00.000" out="00:00:04.960">
  <property name="length">00:00:05.000</property>
  <property name="eof">pause</property>
  <property name="resource">images/shad sword girl design.jpg</property>
  <property name="ttl">25</property>
  <property name="aspect_ratio">1</property>
  <property name="progressive">1</property>
  <property name="seekable">1</property>
  <property name="format">1</property>
  <property name="meta.media.width">4096</property>
  <property name="meta.media.height">2797</property>
  <property name="mlt_service">qimage</property>
  <property name="kdenlive:clipname"/>
  <property name="kdenlive:duration">00:00:05:00</property>
  <property name="kdenlive:folderid">28</property>
  <property name="kdenlive:id">190</property>
  <property name="kdenlive:clip_type">2</property>
  <property name="kdenlive:file_size">885049</property>
  <property name="kdenlive:file_hash">d8f961759f8daa0100c8c2701396a74b</property>
 </producer>
 <producer id="producer169" in="00:00:00.000" out="00:00:04.960">
  <property name="length">00:00:05.000</property>
  <property name="eof">pause</property>
  <property name="resource">images/shad sword girl grip.jpg</property>
  <property name="ttl">25</property>
  <property name="aspect_ratio">1</property>
  <property name="progressive">1</property>
  <property name="seekable">1</property>
  <property name="format">1</property>
  <property name="meta.media.width">2782</property>
  <property name="meta.media.height">3035</property>
  <property name="mlt_service">qimage</property>
  <property name="kdenlive:clipname"/>
  <property name="kdenlive:duration">00:00:05:00</property>
  <property name="kdenlive:folderid">28</property>
  <property name="kdenlive:id">191</property>
  <property name="kdenlive:clip_type">2</property>
  <property name="kdenlive:file_size">270694</property>
  <property name="kdenlive:file_hash">045d9fb5cb684e21138ef1f904520fb5</property>
 </producer>
 <producer id="producer170" in="00:00:00.000" out="00:00:04.960">
  <property name="length">00:00:05.000</property>
  <property name="eof">pause</property>
  <property name="resource">images/shad sword girl hand broken.png</property>
  <property name="ttl">25</property>
  <property name="aspect_ratio">1</property>
  <property name="progressive">1</property>
  <property name="seekable">1</property>
  <property name="format">1</property>
  <property name="meta.media.width">487</property>
  <property name="meta.media.height">92</property>
  <property name="mlt_service">qimage</property>
  <property name="kdenlive:clipname"/>
  <property name="kdenlive:duration">00:00:05:00</property>
  <property name="kdenlive:folderid">28</property>
  <property name="kdenlive:id">192</property>
  <property name="kdenlive:clip_type">2</property>
  <property name="kdenlive:file_size">14760</property>
  <property name="kdenlive:file_hash">e3015e3a7efc1ad86cf3acf4c6a7f10f</property>
 </producer>
 <producer id="producer171" in="00:00:00.000" out="00:00:04.960">
  <property name="length">00:00:05.000</property>
  <property name="eof">pause</property>
  <property name="resource">images/shad trending on twitter.png</property>
  <property name="ttl">25</property>
  <property name="aspect_ratio">1</property>
  <property name="progressive">1</property>
  <property name="seekable">1</property>
  <property name="format">1</property>
  <property name="meta.media.width">405</property>
  <property name="meta.media.height">110</property>
  <property name="mlt_service">qimage</property>
  <property name="kdenlive:clipname"/>
  <property name="kdenlive:duration">00:00:05:00</property>
  <property name="kdenlive:folderid">28</property>
  <property name="kdenlive:id">193</property>
  <property name="kdenlive:clip_type">2</property>
  <property name="kdenlive:file_size">2470</property>
  <property name="kdenlive:file_hash">9ab8903990bdeb669b9093973a422002</property>
 </producer>
 <producer id="producer172" in="00:00:00.000" out="00:00:30.880">
  <property name="length">773</property>
  <property name="eof">pause</property>
  <property name="resource">images/shadiversity recolouring reid complete redo.png</property>
  <property name="ttl">25</property>
  <property name="aspect_ratio">1</property>
  <property name="progressive">1</property>
  <property name="seekable">1</property>
  <property name="format">2</property>
  <property name="meta.media.width">870</property>
  <property name="meta.media.height">720</property>
  <property name="mlt_service">qimage</property>
  <property name="kdenlive:clipname"/>
  <property name="kdenlive:duration">00:00:05:00</property>
  <property name="kdenlive:folderid">28</property>
  <property name="kdenlive:id">194</property>
  <property name="kdenlive:clip_type">2</property>
  <property name="kdenlive:file_size">379962</property>
  <property name="kdenlive:file_hash">2d3f9be57c3915c4e624140b73811af4</property>
 </producer>
 <producer id="producer175" in="00:00:00.000" out="00:00:04.960">
  <property name="length">00:00:05.000</property>
  <property name="eof">pause</property>
  <property name="resource">images/solar-sands-ai-art-collage.png</property>
  <property name="ttl">25</property>
  <property name="aspect_ratio">1</property>
  <property name="progressive">1</property>
  <property name="seekable">1</property>
  <property name="format">1</property>
  <property name="meta.media.width">2453</property>
  <property name="meta.media.height">1380</property>
  <property name="mlt_service">qimage</property>
  <property name="kdenlive:clipname"/>
  <property name="kdenlive:duration">00:00:05:00</property>
  <property name="kdenlive:folderid">28</property>
  <property name="kdenlive:id">195</property>
  <property name="kdenlive:clip_type">2</property>
  <property name="kdenlive:file_size">1846720</property>
  <property name="kdenlive:file_hash">33ae313f476cef7780b125acd2dd0a9e</property>
 </producer>
 <producer id="producer174" in="00:00:00.000" out="00:00:04.960">
  <property name="length">00:00:05.000</property>
  <property name="eof">pause</property>
  <property name="resource">images/sonetoss bannana.png</property>
  <property name="ttl">25</property>
  <property name="aspect_ratio">1</property>
  <property name="progressive">1</property>
  <property name="seekable">1</property>
  <property name="format">1</property>
  <property name="meta.media.width">1280</property>
  <property name="meta.media.height">1600</property>
  <property name="mlt_service">qimage</property>
  <property name="kdenlive:clipname"/>
  <property name="kdenlive:duration">00:00:05:00</property>
  <property name="kdenlive:folderid">28</property>
  <property name="kdenlive:id">196</property>
  <property name="kdenlive:clip_type">2</property>
  <property name="kdenlive:file_size">80656</property>
  <property name="kdenlive:file_hash">b6f8cdff3ae26a12dea7adba13a26842</property>
 </producer>
 <producer id="producer177" in="00:00:00.000" out="00:00:04.960">
  <property name="length">00:00:05.000</property>
  <property name="eof">pause</property>
  <property name="resource">images/stablediffusion-on-man.png</property>
  <property name="ttl">25</property>
  <property name="aspect_ratio">1</property>
  <property name="progressive">1</property>
  <property name="seekable">1</property>
  <property name="format">2</property>
  <property name="meta.media.width">1536</property>
  <property name="meta.media.height">768</property>
  <property name="mlt_service">qimage</property>
  <property name="kdenlive:clipname"/>
  <property name="kdenlive:duration">00:00:05:00</property>
  <property name="kdenlive:folderid">28</property>
  <property name="kdenlive:id">197</property>
  <property name="kdenlive:clip_type">2</property>
  <property name="kdenlive:file_size">2782851</property>
  <property name="kdenlive:file_hash">8175458dbd35b0610af409a09c74e582</property>
 </producer>
 <producer id="producer176" in="00:00:00.000" out="00:00:04.960">
  <property name="length">00:00:05.000</property>
  <property name="eof">pause</property>
  <property name="resource">images/star-wars-xiv.png</property>
  <property name="ttl">25</property>
  <property name="aspect_ratio">1</property>
  <property name="progressive">1</property>
  <property name="seekable">1</property>
  <property name="format">2</property>
  <property name="meta.media.width">400</property>
  <property name="meta.media.height">612</property>
  <property name="mlt_service">qimage</property>
  <property name="kdenlive:clipname"/>
  <property name="kdenlive:duration">00:00:05:00</property>
  <property name="kdenlive:folderid">28</property>
  <property name="kdenlive:id">198</property>
  <property name="kdenlive:clip_type">2</property>
  <property name="kdenlive:file_size">276386</property>
  <property name="kdenlive:file_hash">b2adc5c5f4ef480fde9ce3e04eca00b4</property>
 </producer>
 <producer id="producer179" in="00:00:00.000" out="00:00:04.960">
  <property name="length">00:00:05.000</property>
  <property name="eof">pause</property>
  <property name="resource">images/teacupbun AI art cake analogy.jpg</property>
  <property name="ttl">25</property>
  <property name="aspect_ratio">1</property>
  <property name="progressive">1</property>
  <property name="seekable">1</property>
  <property name="format">1</property>
  <property name="meta.media.width">1764</property>
  <property name="meta.media.height">2638</property>
  <property name="mlt_service">qimage</property>
  <property name="kdenlive:clipname"/>
  <property name="kdenlive:duration">00:00:05:00</property>
  <property name="kdenlive:folderid">28</property>
  <property name="kdenlive:id">199</property>
  <property name="kdenlive:clip_type">2</property>
  <property name="kdenlive:file_size">661857</property>
  <property name="kdenlive:file_hash">c6cb9f90f470699f0877ce632265ef95</property>
 </producer>
 <producer id="producer178" in="00:00:00.000" out="00:00:04.960">
  <property name="length">00:00:05.000</property>
  <property name="eof">pause</property>
  <property name="resource">images/The Sower by Jean-Francois Millet.jpg</property>
  <property name="ttl">25</property>
  <property name="aspect_ratio">1</property>
  <property name="progressive">1</property>
  <property name="seekable">1</property>
  <property name="format">1</property>
  <property name="meta.media.width">800</property>
  <property name="meta.media.height">985</property>
  <property name="mlt_service">qimage</property>
  <property name="kdenlive:clipname"/>
  <property name="kdenlive:duration">00:00:05:00</property>
  <property name="kdenlive:folderid">28</property>
  <property name="kdenlive:id">200</property>
  <property name="kdenlive:clip_type">2</property>
  <property name="kdenlive:file_size">151905</property>
  <property name="kdenlive:file_hash">555cfedc8e11549f5b698f5b9a0c2eb1</property>
 </producer>
 <producer id="producer180" in="00:00:00.000" out="00:00:04.960">
  <property name="length">00:00:05.000</property>
  <property name="eof">pause</property>
  <property name="resource">images/The Sower by Vincent van Gogh.jpg</property>
  <property name="ttl">25</property>
  <property name="aspect_ratio">1</property>
  <property name="progressive">1</property>
  <property name="seekable">1</property>
  <property name="format">1</property>
  <property name="meta.media.width">1256</property>
  <property name="meta.media.height">1556</property>
  <property name="mlt_service">qimage</property>
  <property name="kdenlive:clipname"/>
  <property name="kdenlive:duration">00:00:05:00</property>
  <property name="kdenlive:folderid">28</property>
  <property name="kdenlive:id">201</property>
  <property name="kdenlive:clip_type">2</property>
  <property name="kdenlive:file_size">230029</property>
  <property name="kdenlive:file_hash">14dc86ed392c8b46afbc9b23799a69f6</property>
 </producer>
 <producer id="producer181" in="00:00:00.000" out="00:00:04.960">
  <property name="length">00:00:05.000</property>
  <property name="eof">pause</property>
  <property name="resource">images/tug-of-war.png</property>
  <property name="ttl">25</property>
  <property name="aspect_ratio">1</property>
  <property name="progressive">1</property>
  <property name="seekable">1</property>
  <property name="format">2</property>
  <property name="meta.media.width">1000</property>
  <property name="meta.media.height">1000</property>
  <property name="mlt_service">qimage</property>
  <property name="kdenlive:clipname"/>
  <property name="kdenlive:duration">00:00:05:00</property>
  <property name="kdenlive:folderid">28</property>
  <property name="kdenlive:id">202</property>
  <property name="kdenlive:clip_type">2</property>
  <property name="kdenlive:file_size">260982</property>
  <property name="kdenlive:file_hash">f6e9df184ce84b93e2a628234feea399</property>
 </producer>
 <producer id="producer183" in="00:00:00.000" out="00:00:04.960">
  <property name="length">00:00:05.000</property>
  <property name="eof">pause</property>
  <property name="resource">images/tug-of-war.xcf</property>
  <property name="ttl">25</property>
  <property name="aspect_ratio">1</property>
  <property name="progressive">1</property>
  <property name="seekable">1</property>
  <property name="format">2</property>
  <property name="meta.media.width">1000</property>
  <property name="meta.media.height">1000</property>
  <property name="mlt_service">qimage</property>
  <property name="kdenlive:clipname"/>
  <property name="kdenlive:duration">00:00:05:00</property>
  <property name="kdenlive:folderid">28</property>
  <property name="kdenlive:id">203</property>
  <property name="kdenlive:clip_type">2</property>
  <property name="kdenlive:file_size">864044</property>
  <property name="kdenlive:file_hash">12e02ef5beaed720e66ba67c9e35d57e</property>
 </producer>
 <producer id="producer303" in="00:00:00.000" out="00:00:07.680">
  <property name="length">193</property>
  <property name="eof">pause</property>
  <property name="resource">images/van gogh millet alt.png</property>
  <property name="ttl">25</property>
  <property name="aspect_ratio">1</property>
  <property name="progressive">1</property>
  <property name="seekable">1</property>
  <property name="format">2</property>
  <property name="meta.media.width">1640</property>
  <property name="meta.media.height">1089</property>
  <property name="mlt_service">qimage</property>
  <property name="kdenlive:clipname"/>
  <property name="kdenlive:duration">00:00:05:00</property>
  <property name="kdenlive:folderid">28</property>
  <property name="kdenlive:id">204</property>
  <property name="kdenlive:clip_type">2</property>
  <property name="kdenlive:file_size">2810694</property>
  <property name="kdenlive:file_hash">0734199705bdbfb443058f922ad02a49</property>
 </producer>
 <producer id="producer185" in="00:00:00.000" out="00:00:04.960">
  <property name="length">00:00:05.000</property>
  <property name="eof">pause</property>
  <property name="resource">images/van gogh millet alt.xcf</property>
  <property name="ttl">25</property>
  <property name="aspect_ratio">1</property>
  <property name="progressive">1</property>
  <property name="seekable">1</property>
  <property name="format">1</property>
  <property name="meta.media.width">1640</property>
  <property name="meta.media.height">1089</property>
  <property name="mlt_service">qimage</property>
  <property name="kdenlive:clipname"/>
  <property name="kdenlive:duration">00:00:05:00</property>
  <property name="kdenlive:folderid">28</property>
  <property name="kdenlive:id">205</property>
  <property name="kdenlive:clip_type">2</property>
  <property name="kdenlive:file_size">4761513</property>
  <property name="kdenlive:file_hash">a4820a97b9f42cd500134131f4e289c9</property>
 </producer>
 <producer id="producer184" in="00:00:00.000" out="00:00:04.960">
  <property name="length">00:00:05.000</property>
  <property name="eof">pause</property>
  <property name="resource">images/van gogh millet.xcf</property>
  <property name="ttl">25</property>
  <property name="aspect_ratio">1</property>
  <property name="progressive">1</property>
  <property name="seekable">1</property>
  <property name="format">1</property>
  <property name="meta.media.width">1640</property>
  <property name="meta.media.height">1015</property>
  <property name="mlt_service">qimage</property>
  <property name="kdenlive:clipname"/>
  <property name="kdenlive:duration">00:00:05:00</property>
  <property name="kdenlive:folderid">28</property>
  <property name="kdenlive:id">206</property>
  <property name="kdenlive:clip_type">2</property>
  <property name="kdenlive:file_size">4781188</property>
  <property name="kdenlive:file_hash">41f2d871fd21478dd0f62130e6db08df</property>
 </producer>
 <producer id="producer186" in="00:00:00.000" out="00:00:04.960">
  <property name="length">00:00:05.000</property>
  <property name="eof">pause</property>
  <property name="resource">images/zakuga art spiral image could have been cool.png</property>
  <property name="ttl">25</property>
  <property name="aspect_ratio">1</property>
  <property name="progressive">1</property>
  <property name="seekable">1</property>
  <property name="format">1</property>
  <property name="meta.media.width">1024</property>
  <property name="meta.media.height">768</property>
  <property name="mlt_service">qimage</property>
  <property name="kdenlive:clipname"/>
  <property name="kdenlive:duration">00:00:05:00</property>
  <property name="kdenlive:folderid">28</property>
  <property name="kdenlive:id">207</property>
  <property name="kdenlive:clip_type">2</property>
  <property name="kdenlive:file_size">754639</property>
  <property name="kdenlive:file_hash">3b9a53df06e61172c2d8d222387f3f10</property>
 </producer>
 <producer id="producer187" in="00:00:00.000" out="00:00:04.960">
  <property name="length">00:00:05.000</property>
  <property name="eof">pause</property>
  <property name="resource">images/zapata collective anti-ai video.png</property>
  <property name="ttl">25</property>
  <property name="aspect_ratio">1</property>
  <property name="progressive">1</property>
  <property name="seekable">1</property>
  <property name="format">2</property>
  <property name="meta.media.width">960</property>
  <property name="meta.media.height">720</property>
  <property name="mlt_service">qimage</property>
  <property name="kdenlive:clipname"/>
  <property name="kdenlive:duration">00:00:05:00</property>
  <property name="kdenlive:folderid">28</property>
  <property name="kdenlive:id">208</property>
  <property name="kdenlive:clip_type">2</property>
  <property name="kdenlive:file_size">525793</property>
  <property name="kdenlive:file_hash">1827dc1333d5746e81f8c4bdc465fba9</property>
 </producer>
 <producer id="producer189" in="00:00:00.000" out="00:00:04.960">
  <property name="length">00:00:05.000</property>
  <property name="eof">pause</property>
  <property name="resource">images/zapata collective pair.png</property>
  <property name="ttl">25</property>
  <property name="aspect_ratio">1</property>
  <property name="progressive">1</property>
  <property name="seekable">1</property>
  <property name="format">1</property>
  <property name="meta.media.width">986</property>
  <property name="meta.media.height">795</property>
  <property name="mlt_service">qimage</property>
  <property name="kdenlive:clipname"/>
  <property name="kdenlive:duration">00:00:05:00</property>
  <property name="kdenlive:folderid">28</property>
  <property name="kdenlive:id">209</property>
  <property name="kdenlive:clip_type">2</property>
  <property name="kdenlive:file_size">1798697</property>
  <property name="kdenlive:file_hash">a4354f9acb4eae1b1a5ea205a0f8e220</property>
 </producer>
 <producer id="producer188" in="00:00:00.000" out="00:00:04.960">
  <property name="length">00:00:05.000</property>
  <property name="eof">pause</property>
  <property name="resource">images/zapata collective pillar.png</property>
  <property name="ttl">25</property>
  <property name="aspect_ratio">1</property>
  <property name="progressive">1</property>
  <property name="seekable">1</property>
  <property name="format">1</property>
  <property name="meta.media.width">1418</property>
  <property name="meta.media.height">808</property>
  <property name="mlt_service">qimage</property>
  <property name="kdenlive:clipname"/>
  <property name="kdenlive:duration">00:00:05:00</property>
  <property name="kdenlive:folderid">28</property>
  <property name="kdenlive:id">210</property>
  <property name="kdenlive:clip_type">2</property>
  <property name="kdenlive:file_size">1692736</property>
  <property name="kdenlive:file_hash">b5ec77b2cdef185eee4629d8af46652e</property>
 </producer>
 <producer id="producer190" in="00:00:00.000" out="00:00:04.960">
  <property name="length">00:00:05.000</property>
  <property name="eof">pause</property>
  <property name="resource">images/zapata-three-eyes.png</property>
  <property name="ttl">25</property>
  <property name="aspect_ratio">1</property>
  <property name="progressive">1</property>
  <property name="seekable">1</property>
  <property name="format">1</property>
  <property name="meta.media.width">664</property>
  <property name="meta.media.height">826</property>
  <property name="mlt_service">qimage</property>
  <property name="kdenlive:clipname"/>
  <property name="kdenlive:duration">00:00:05:00</property>
  <property name="kdenlive:folderid">28</property>
  <property name="kdenlive:id">211</property>
  <property name="kdenlive:clip_type">2</property>
  <property name="kdenlive:file_size">1121996</property>
  <property name="kdenlive:file_hash">dd282445ceecedf23c2694479730f9fe</property>
 </producer>
 <chain id="chain47" out="00:04:40.600">
  <property name="length">7016</property>
  <property name="eof">pause</property>
  <property name="resource">b-roll/The EU agrees on AI regulationsï¼š What will it mean for people and businesses in the EUï¼Ÿ ï½œ DW News [I19ezZcyB6w].webm</property>
  <property name="mlt_service">avformat-novalidate</property>
  <property name="meta.media.nb_streams">2</property>
  <property name="meta.media.0.stream.type">video</property>
  <property name="meta.media.0.stream.frame_rate">25</property>
  <property name="meta.media.0.stream.sample_aspect_ratio">1</property>
  <property name="meta.media.0.codec.width">1920</property>
  <property name="meta.media.0.codec.height">1080</property>
  <property name="meta.media.0.codec.rotate">0</property>
  <property name="meta.media.0.codec.pix_fmt">yuv420p</property>
  <property name="meta.media.0.codec.sample_aspect_ratio">0</property>
  <property name="meta.media.0.codec.colorspace">709</property>
  <property name="meta.media.0.codec.color_trc">1</property>
  <property name="meta.media.0.codec.name">vp9</property>
  <property name="meta.media.0.codec.long_name">Google VP9</property>
  <property name="meta.media.0.codec.bit_rate">0</property>
  <property name="meta.attr.0.stream.HANDLER_NAME.markup">ISO Media file produced by Google Inc. Created on: 12/10/2023.</property>
  <property name="meta.attr.0.stream.VENDOR_ID.markup">[0][0][0][0]</property>
  <property name="meta.attr.0.stream.DURATION.markup">00:04:40.600000000</property>
  <property name="meta.media.1.stream.type">audio</property>
  <property name="meta.media.1.codec.sample_fmt">fltp</property>
  <property name="meta.media.1.codec.sample_rate">48000</property>
  <property name="meta.media.1.codec.channels">2</property>
  <property name="meta.media.1.codec.name">opus</property>
  <property name="meta.media.1.codec.long_name">Opus</property>
  <property name="meta.media.1.codec.bit_rate">0</property>
  <property name="meta.attr.1.stream.language.markup">eng</property>
  <property name="meta.attr.1.stream.DURATION.markup">00:04:40.621000000</property>
  <property name="meta.attr.COMPATIBLE_BRANDS.markup">iso6mp41</property>
  <property name="meta.attr.MAJOR_BRAND.markup">dash</property>
  <property name="meta.attr.MINOR_VERSION.markup">0</property>
  <property name="meta.attr.ENCODER.markup">Lavf59.27.100</property>
  <property name="seekable">1</property>
  <property name="meta.media.sample_aspect_num">1</property>
  <property name="meta.media.sample_aspect_den">1</property>
  <property name="format">3</property>
  <property name="audio_index">1</property>
  <property name="video_index">0</property>
  <property name="meta.media.frame_rate_num">25</property>
  <property name="meta.media.frame_rate_den">1</property>
  <property name="meta.media.colorspace">709</property>
  <property name="meta.media.color_trc">1</property>
  <property name="meta.media.has_b_frames">0</property>
  <property name="meta.media.width">1920</property>
  <property name="meta.media.height">1080</property>
  <property name="meta.media.color_range">mpeg</property>
  <property name="kdenlive:clipname"/>
  <property name="meta.media.top_field_first">0</property>
  <property name="meta.media.progressive">1</property>
  <property name="kdenlive:clip_type">0</property>
  <property name="kdenlive:folderid">14</property>
  <property name="kdenlive:id">212</property>
  <property name="kdenlive:file_size">68026192</property>
  <property name="kdenlive:file_hash">805aa0490732174808647414cf1dbbb0</property>
  <property name="kdenlive:audio_max1">167</property>
  <property name="mute_on_pause">1</property>
 </chain>
 <producer id="producer21" in="00:00:00.000" out="00:00:04.960">
  <property name="length">00:00:05.000</property>
  <property name="eof">pause</property>
  <property name="resource">images/getty-lawsuit.png</property>
  <property name="ttl">25</property>
  <property name="aspect_ratio">1</property>
  <property name="progressive">1</property>
  <property name="seekable">1</property>
  <property name="format">1</property>
  <property name="meta.media.width">1598</property>
  <property name="meta.media.height">891</property>
  <property name="mlt_service">qimage</property>
  <property name="kdenlive:clipname"/>
  <property name="kdenlive:duration">00:00:05:00</property>
  <property name="kdenlive:folderid">28</property>
  <property name="kdenlive:id">213</property>
  <property name="kdenlive:clip_type">2</property>
  <property name="kdenlive:file_size">716984</property>
  <property name="kdenlive:file_hash">f4ebfc78e73f2b784ffa9cac3f424ff4</property>
 </producer>
 <producer id="producer40" in="00:00:00.000" out="00:00:04.960">
  <property name="length">00:00:05.000</property>
  <property name="eof">pause</property>
  <property name="resource">images/getty-own-ai.png</property>
  <property name="ttl">25</property>
  <property name="aspect_ratio">1</property>
  <property name="progressive">1</property>
  <property name="seekable">1</property>
  <property name="format">1</property>
  <property name="meta.media.width">1600</property>
  <property name="meta.media.height">892</property>
  <property name="mlt_service">qimage</property>
  <property name="kdenlive:clipname"/>
  <property name="kdenlive:duration">00:00:05:00</property>
  <property name="kdenlive:folderid">28</property>
  <property name="kdenlive:id">214</property>
  <property name="kdenlive:clip_type">2</property>
  <property name="kdenlive:file_size">438243</property>
  <property name="kdenlive:file_hash">ae85cd2443e96d58919e8d4910ed6b9c</property>
 </producer>
 <producer id="producer230" in="00:00:00.000" out="00:00:04.960">
  <property name="length">00:00:05.000</property>
  <property name="eof">pause</property>
  <property name="resource">images/regulation-0.png</property>
  <property name="ttl">25</property>
  <property name="aspect_ratio">1</property>
  <property name="progressive">1</property>
  <property name="seekable">1</property>
  <property name="format">1</property>
  <property name="meta.media.width">330</property>
  <property name="meta.media.height">298</property>
  <property name="mlt_service">qimage</property>
  <property name="kdenlive:clipname"/>
  <property name="kdenlive:duration">00:00:05:00</property>
  <property name="kdenlive:folderid">28</property>
  <property name="kdenlive:id">215</property>
  <property name="kdenlive:clip_type">2</property>
  <property name="kdenlive:file_size">85688</property>
  <property name="kdenlive:file_hash">f04071c5517b3060e06ff60cb090bb62</property>
 </producer>
 <producer id="producer231" in="00:00:00.000" out="00:00:04.960">
  <property name="length">00:00:05.000</property>
  <property name="eof">pause</property>
  <property name="resource">images/regulation-1.png</property>
  <property name="ttl">25</property>
  <property name="aspect_ratio">1</property>
  <property name="progressive">1</property>
  <property name="seekable">1</property>
  <property name="format">1</property>
  <property name="meta.media.width">331</property>
  <property name="meta.media.height">146</property>
  <property name="mlt_service">qimage</property>
  <property name="kdenlive:clipname"/>
  <property name="kdenlive:duration">00:00:05:00</property>
  <property name="kdenlive:folderid">28</property>
  <property name="kdenlive:id">216</property>
  <property name="kdenlive:clip_type">2</property>
  <property name="kdenlive:file_size">35967</property>
  <property name="kdenlive:file_hash">7237f90fdf5893c65f40a27008cb2fe2</property>
 </producer>
 <producer id="producer232" in="00:00:00.000" out="00:00:04.960">
  <property name="length">00:00:05.000</property>
  <property name="eof">pause</property>
  <property name="resource">images/regulation-2.png</property>
  <property name="ttl">25</property>
  <property name="aspect_ratio">1</property>
  <property name="progressive">1</property>
  <property name="seekable">1</property>
  <property name="format">1</property>
  <property name="meta.media.width">598</property>
  <property name="meta.media.height">557</property>
  <property name="mlt_service">qimage</property>
  <property name="kdenlive:clipname"/>
  <property name="kdenlive:duration">00:00:05:00</property>
  <property name="kdenlive:folderid">28</property>
  <property name="kdenlive:id">217</property>
  <property name="kdenlive:clip_type">2</property>
  <property name="kdenlive:file_size">304743</property>
  <property name="kdenlive:file_hash">efb42f7f0bfbee802a30be1f5dcb48ed</property>
 </producer>
 <chain id="chain287" out="00:00:09.960">
  <property name="length">250</property>
  <property name="eof">pause</property>
  <property name="resource">animation/output/neural-network.mp4</property>
  <property name="mlt_service">avformat-novalidate</property>
  <property name="meta.media.nb_streams">1</property>
  <property name="meta.media.0.stream.type">video</property>
  <property name="meta.media.0.stream.frame_rate">60</property>
  <property name="meta.media.0.stream.sample_aspect_ratio">0</property>
  <property name="meta.media.0.codec.width">1920</property>
  <property name="meta.media.0.codec.height">1080</property>
  <property name="meta.media.0.codec.rotate">0</property>
  <property name="meta.media.0.codec.pix_fmt">yuv420p</property>
  <property name="meta.media.0.codec.sample_aspect_ratio">0</property>
  <property name="meta.media.0.codec.colorspace">709</property>
  <property name="meta.media.0.codec.name">h264</property>
  <property name="meta.media.0.codec.long_name">H.264 / AVC / MPEG-4 AVC / MPEG-4 part 10</property>
  <property name="meta.media.0.codec.bit_rate">5163776</property>
  <property name="meta.attr.0.stream.handler_name.markup">VideoHandler</property>
  <property name="meta.attr.0.stream.vendor_id.markup">[0][0][0][0]</property>
  <property name="meta.attr.major_brand.markup">isom</property>
  <property name="meta.attr.minor_version.markup">512</property>
  <property name="meta.attr.compatible_brands.markup">isomiso2avc1mp41</property>
  <property name="meta.attr.encoder.markup">Lavf58.24.100</property>
  <property name="seekable">1</property>
  <property name="meta.media.sample_aspect_num">1</property>
  <property name="meta.media.sample_aspect_den">1</property>
  <property name="format">3</property>
  <property name="audio_index">-1</property>
  <property name="video_index">0</property>
  <property name="meta.media.frame_rate_num">60</property>
  <property name="meta.media.frame_rate_den">1</property>
  <property name="meta.media.colorspace">709</property>
  <property name="meta.media.color_trc">2</property>
  <property name="meta.media.has_b_frames">2</property>
  <property name="meta.media.width">1920</property>
  <property name="meta.media.height">1080</property>
  <property name="meta.media.color_range">mpeg</property>
  <property name="kdenlive:clipname"/>
  <property name="meta.media.top_field_first">0</property>
  <property name="meta.media.progressive">1</property>
  <property name="kdenlive:clip_type">2</property>
  <property name="kdenlive:folderid">218</property>
  <property name="kdenlive:id">219</property>
  <property name="kdenlive:file_size">6473614</property>
  <property name="kdenlive:file_hash">0c541f0201174e70bf3bbaa9145dbc9b</property>
  <property name="mute_on_pause">1</property>
 </chain>
 <producer id="producer121" in="00:00:00.000" out="02:07:54.120">
  <property name="length">191854</property>
  <property name="eof">pause</property>
  <property name="resource">images/bg.xcf</property>
  <property name="ttl">25</property>
  <property name="aspect_ratio">1</property>
  <property name="progressive">1</property>
  <property name="seekable">1</property>
  <property name="format">1</property>
  <property name="meta.media.width">1920</property>
  <property name="meta.media.height">1080</property>
  <property name="mlt_service">qimage</property>
  <property name="kdenlive:clipname"/>
  <property name="kdenlive:duration">00:00:05:00</property>
  <property name="kdenlive:folderid">28</property>
  <property name="kdenlive:id">220</property>
  <property name="kdenlive:clip_type">2</property>
  <property name="kdenlive:file_size">10973</property>
  <property name="kdenlive:file_hash">4fdc12a0b5247ae9ec65cc1e40290698</property>
 </producer>
 <producer id="producer233" in="00:00:00.000" out="00:00:04.960">
  <property name="length">00:00:05.000</property>
  <property name="eof">pause</property>
  <property name="resource">images/black.xcf</property>
  <property name="ttl">25</property>
  <property name="aspect_ratio">1</property>
  <property name="progressive">1</property>
  <property name="seekable">1</property>
  <property name="format">1</property>
  <property name="meta.media.width">1920</property>
  <property name="meta.media.height">1080</property>
  <property name="mlt_service">qimage</property>
  <property name="kdenlive:clipname"/>
  <property name="kdenlive:duration">00:00:05:00</property>
  <property name="kdenlive:folderid">28</property>
  <property name="kdenlive:id">221</property>
  <property name="kdenlive:clip_type">2</property>
  <property name="kdenlive:file_size">10973</property>
  <property name="kdenlive:file_hash">20a83e20b61018a3d96e3c459aa75c43</property>
 </producer>
 <producer id="producer241" in="00:00:00.000" out="00:00:04.960">
  <property name="length">00:00:05.000</property>
  <property name="eof">pause</property>
  <property name="resource">images/main-title-0.png</property>
  <property name="ttl">25</property>
  <property name="aspect_ratio">1</property>
  <property name="progressive">1</property>
  <property name="seekable">1</property>
  <property name="format">2</property>
  <property name="meta.media.width">1920</property>
  <property name="meta.media.height">1080</property>
  <property name="mlt_service">qimage</property>
  <property name="kdenlive:clipname"/>
  <property name="kdenlive:duration">00:00:05:00</property>
  <property name="kdenlive:folderid">21</property>
  <property name="kdenlive:id">222</property>
  <property name="kdenlive:clip_type">2</property>
  <property name="kdenlive:file_size">14084</property>
  <property name="kdenlive:file_hash">e9b2eaadf5077f3fa16ca54a15c69236</property>
 </producer>
 <producer id="producer242" in="00:00:00.000" out="00:00:04.960">
  <property name="length">00:00:05.000</property>
  <property name="eof">pause</property>
  <property name="resource">images/main-title-1.png</property>
  <property name="ttl">25</property>
  <property name="aspect_ratio">1</property>
  <property name="progressive">1</property>
  <property name="seekable">1</property>
  <property name="format">2</property>
  <property name="meta.media.width">1920</property>
  <property name="meta.media.height">1080</property>
  <property name="mlt_service">qimage</property>
  <property name="kdenlive:clipname"/>
  <property name="kdenlive:duration">00:00:05.000</property>
  <property name="kdenlive:folderid">21</property>
  <property name="kdenlive:id">223</property>
  <property name="kdenlive:clip_type">2</property>
  <property name="kdenlive:file_size">20211</property>
  <property name="kdenlive:file_hash">63cf8b14ff186f67e8a0ceb9f63ff610</property>
 </producer>
 <producer id="producer243" in="00:00:00.000" out="00:00:04.960">
  <property name="length">00:00:05.000</property>
  <property name="eof">pause</property>
  <property name="resource">images/main-title-2.png</property>
  <property name="ttl">25</property>
  <property name="aspect_ratio">1</property>
  <property name="progressive">1</property>
  <property name="seekable">1</property>
  <property name="format">2</property>
  <property name="meta.media.width">1920</property>
  <property name="meta.media.height">1080</property>
  <property name="mlt_service">qimage</property>
  <property name="kdenlive:clipname"/>
  <property name="kdenlive:duration">00:00:05.000</property>
  <property name="kdenlive:folderid">21</property>
  <property name="kdenlive:id">224</property>
  <property name="kdenlive:clip_type">2</property>
  <property name="kdenlive:file_size">22174</property>
  <property name="kdenlive:file_hash">6cde271cebfc6074b4848f4bfc0fafec</property>
 </producer>
 <producer id="producer244" in="00:00:00.000" out="00:00:04.960">
  <property name="length">00:00:05.000</property>
  <property name="eof">pause</property>
  <property name="resource">images/main-title-3.png</property>
  <property name="ttl">25</property>
  <property name="aspect_ratio">1</property>
  <property name="progressive">1</property>
  <property name="seekable">1</property>
  <property name="format">2</property>
  <property name="meta.media.width">1920</property>
  <property name="meta.media.height">1080</property>
  <property name="mlt_service">qimage</property>
  <property name="kdenlive:clipname"/>
  <property name="kdenlive:duration">00:00:05.000</property>
  <property name="kdenlive:folderid">21</property>
  <property name="kdenlive:id">225</property>
  <property name="kdenlive:clip_type">2</property>
  <property name="kdenlive:file_size">25022</property>
  <property name="kdenlive:file_hash">6fb298eb20a84424ed08c2ecd2d2575d</property>
 </producer>
 <producer id="producer245" in="00:00:00.000" out="00:00:04.960">
  <property name="length">00:00:05.000</property>
  <property name="eof">pause</property>
  <property name="resource">images/main-title-4.png</property>
  <property name="ttl">25</property>
  <property name="aspect_ratio">1</property>
  <property name="progressive">1</property>
  <property name="seekable">1</property>
  <property name="format">2</property>
  <property name="meta.media.width">1920</property>
  <property name="meta.media.height">1080</property>
  <property name="mlt_service">qimage</property>
  <property name="kdenlive:clipname"/>
  <property name="kdenlive:duration">00:00:05.000</property>
  <property name="kdenlive:folderid">21</property>
  <property name="kdenlive:id">226</property>
  <property name="kdenlive:clip_type">2</property>
  <property name="kdenlive:file_size">40194</property>
  <property name="kdenlive:file_hash">915c88884c36d7336b017cd99af50d21</property>
 </producer>
 <chain id="chain49" out="02:07:46.080">
  <property name="length">191653</property>
  <property name="eof">pause</property>
  <property name="resource">audio/proc.mp3</property>
  <property name="mlt_service">avformat</property>
  <property name="meta.media.nb_streams">1</property>
  <property name="meta.media.0.stream.type">audio</property>
  <property name="meta.media.0.codec.sample_fmt">fltp</property>
  <property name="meta.media.0.codec.sample_rate">44100</property>
  <property name="meta.media.0.codec.channels">2</property>
  <property name="meta.media.0.codec.name">mp3float</property>
  <property name="meta.media.0.codec.long_name">MP3 (MPEG audio layer 3)</property>
  <property name="meta.media.0.codec.bit_rate">192000</property>
  <property name="meta.attr.encoded_by.markup">LAME in FL Studio 21</property>
  <property name="meta.attr.date.markup">2023</property>
  <property name="seekable">1</property>
  <property name="audio_index">0</property>
  <property name="video_index">-1</property>
  <property name="kdenlive:clipname"/>
  <property name="kdenlive:clip_type">1</property>
  <property name="kdenlive:folderid">228</property>
  <property name="kdenlive:id">227</property>
  <property name="kdenlive:file_size">183987151</property>
  <property name="kdenlive:file_hash">061ccb25819b0a46ac8de7d9a2ee85c9</property>
  <property name="kdenlive:audio_max0">208</property>
  <property name="mute_on_pause">1</property>
 </chain>
 <chain id="chain50" out="00:02:14.920">
  <property name="length">3374</property>
  <property name="eof">pause</property>
  <property name="resource">/home/liquidzulu/Music/Richard Carter - Le Monde [Ne4od9aIs-I].mp3</property>
  <property name="mlt_service">avformat</property>
  <property name="meta.media.nb_streams">1</property>
  <property name="meta.media.0.stream.type">audio</property>
  <property name="meta.media.0.codec.sample_fmt">fltp</property>
  <property name="meta.media.0.codec.sample_rate">48000</property>
  <property name="meta.media.0.codec.channels">2</property>
  <property name="meta.media.0.codec.name">mp3float</property>
  <property name="meta.media.0.codec.long_name">MP3 (MPEG audio layer 3)</property>
  <property name="meta.media.0.codec.bit_rate">121024</property>
  <property name="meta.attr.0.stream.encoder.markup">Lavc59.37</property>
  <property name="meta.attr.encoder.markup">Lavf59.27.100</property>
  <property name="seekable">1</property>
  <property name="audio_index">0</property>
  <property name="video_index">-1</property>
  <property name="kdenlive:clipname"/>
  <property name="kdenlive:clip_type">1</property>
  <property name="kdenlive:folderid">5</property>
  <property name="kdenlive:id">229</property>
  <property name="kdenlive:file_size">2041605</property>
  <property name="kdenlive:file_hash">fc7d6d7add9d551bfbfeab6f3c646538</property>
  <property name="kdenlive:audio_max0">235</property>
  <property name="mute_on_pause">1</property>
 </chain>
 <chain id="chain51" out="00:00:29.360">
  <property name="length">735</property>
  <property name="eof">pause</property>
  <property name="resource">animation/output/thesis.mp4</property>
  <property name="mlt_service">avformat-novalidate</property>
  <property name="meta.media.nb_streams">1</property>
  <property name="meta.media.0.stream.type">video</property>
  <property name="meta.media.0.stream.frame_rate">60</property>
  <property name="meta.media.0.stream.sample_aspect_ratio">0</property>
  <property name="meta.media.0.codec.width">1920</property>
  <property name="meta.media.0.codec.height">1080</property>
  <property name="meta.media.0.codec.rotate">0</property>
  <property name="meta.media.0.codec.pix_fmt">yuv420p</property>
  <property name="meta.media.0.codec.sample_aspect_ratio">0</property>
  <property name="meta.media.0.codec.colorspace">709</property>
  <property name="meta.media.0.codec.name">h264</property>
  <property name="meta.media.0.codec.long_name">H.264 / AVC / MPEG-4 AVC / MPEG-4 part 10</property>
  <property name="meta.media.0.codec.bit_rate">409803</property>
  <property name="meta.attr.0.stream.handler_name.markup">VideoHandler</property>
  <property name="meta.attr.0.stream.vendor_id.markup">[0][0][0][0]</property>
  <property name="meta.attr.major_brand.markup">isom</property>
  <property name="meta.attr.minor_version.markup">512</property>
  <property name="meta.attr.compatible_brands.markup">isomiso2avc1mp41</property>
  <property name="meta.attr.encoder.markup">Lavf58.24.100</property>
  <property name="seekable">1</property>
  <property name="meta.media.sample_aspect_num">1</property>
  <property name="meta.media.sample_aspect_den">1</property>
  <property name="format">3</property>
  <property name="audio_index">-1</property>
  <property name="video_index">0</property>
  <property name="meta.media.frame_rate_num">60</property>
  <property name="meta.media.frame_rate_den">1</property>
  <property name="meta.media.colorspace">709</property>
  <property name="meta.media.color_trc">2</property>
  <property name="meta.media.has_b_frames">2</property>
  <property name="meta.media.width">1920</property>
  <property name="meta.media.height">1080</property>
  <property name="meta.media.color_range">mpeg</property>
  <property name="kdenlive:clipname"/>
  <property name="kdenlive:clip_type">2</property>
  <property name="kdenlive:folderid">218</property>
  <property name="kdenlive:id">230</property>
  <property name="kdenlive:file_size">1526650</property>
  <property name="kdenlive:file_hash">bffe72759d2fcbb6074cc18a4f0c4f4c</property>
  <property name="meta.media.top_field_first">0</property>
  <property name="meta.media.progressive">1</property>
  <property name="mute_on_pause">1</property>
 </chain>
 <chain id="chain52" out="00:47:30.880">
  <property name="length">71273</property>
  <property name="eof">pause</property>
  <property name="resource">b-roll/The End of Artï¼š An Argument Against Image AIs [tjSxFAGP9Ss].webm</property>
  <property name="mlt_service">avformat-novalidate</property>
  <property name="meta.media.nb_streams">2</property>
  <property name="meta.media.0.stream.type">video</property>
  <property name="meta.media.0.stream.frame_rate">29.97</property>
  <property name="meta.media.0.stream.sample_aspect_ratio">1</property>
  <property name="meta.media.0.codec.width">3840</property>
  <property name="meta.media.0.codec.height">2160</property>
  <property name="meta.media.0.codec.rotate">0</property>
  <property name="meta.media.0.codec.pix_fmt">yuv420p</property>
  <property name="meta.media.0.codec.sample_aspect_ratio">0</property>
  <property name="meta.media.0.codec.colorspace">709</property>
  <property name="meta.media.0.codec.color_trc">1</property>
  <property name="meta.media.0.codec.name">vp9</property>
  <property name="meta.media.0.codec.long_name">Google VP9</property>
  <property name="meta.media.0.codec.bit_rate">0</property>
  <property name="meta.attr.0.stream.language.markup">eng</property>
  <property name="meta.attr.0.stream.DURATION.markup">00:47:30.881000000</property>
  <property name="meta.media.1.stream.type">audio</property>
  <property name="meta.media.1.codec.sample_fmt">fltp</property>
  <property name="meta.media.1.codec.sample_rate">48000</property>
  <property name="meta.media.1.codec.channels">2</property>
  <property name="meta.media.1.codec.name">opus</property>
  <property name="meta.media.1.codec.long_name">Opus</property>
  <property name="meta.media.1.codec.bit_rate">0</property>
  <property name="meta.attr.1.stream.language.markup">eng</property>
  <property name="meta.attr.1.stream.DURATION.markup">00:47:30.921000000</property>
  <property name="meta.attr.ENCODER.markup">Lavf59.27.100</property>
  <property name="seekable">1</property>
  <property name="meta.media.sample_aspect_num">1</property>
  <property name="meta.media.sample_aspect_den">1</property>
  <property name="format">3</property>
  <property name="audio_index">1</property>
  <property name="video_index">0</property>
  <property name="meta.media.frame_rate_num">30000</property>
  <property name="meta.media.frame_rate_den">1001</property>
  <property name="meta.media.colorspace">709</property>
  <property name="meta.media.color_trc">1</property>
  <property name="meta.media.has_b_frames">0</property>
  <property name="meta.media.width">3840</property>
  <property name="meta.media.height">2160</property>
  <property name="meta.media.color_range">mpeg</property>
  <property name="kdenlive:clipname"/>
  <property name="meta.media.top_field_first">0</property>
  <property name="meta.media.progressive">1</property>
  <property name="kdenlive:clip_type">0</property>
  <property name="kdenlive:folderid">14</property>
  <property name="kdenlive:id">232</property>
  <property name="kdenlive:file_size">4260243058</property>
  <property name="kdenlive:file_hash">844407801bc8596608a92a0648bd1db9</property>
  <property name="kdenlive:audio_max1">238</property>
  <property name="mute_on_pause">1</property>
 </chain>
 <producer id="producer135" in="00:00:00.000" out="00:00:16.720">
  <property name="length">419</property>
  <property name="eof">pause</property>
  <property name="resource">citations/citations-zapata-end-of-art.png</property>
  <property name="ttl">25</property>
  <property name="aspect_ratio">1</property>
  <property name="progressive">1</property>
  <property name="seekable">1</property>
  <property name="format">2</property>
  <property name="meta.media.width">1920</property>
  <property name="meta.media.height">1080</property>
  <property name="mlt_service">qimage</property>
  <property name="kdenlive:clipname"/>
  <property name="kdenlive:duration">00:00:05:00</property>
  <property name="kdenlive:folderid">234</property>
  <property name="kdenlive:id">233</property>
  <property name="kdenlive:clip_type">2</property>
  <property name="kdenlive:file_size">26860</property>
  <property name="kdenlive:file_hash">fe4f53ee1f694386e2784fa71fed85ce</property>
 </producer>
 <producer id="producer193" in="00:00:00.000" out="00:00:04.960">
  <property name="length">125</property>
  <property name="eof">pause</property>
  <property name="resource"/>
  <property name="progressive">1</property>
  <property name="aspect_ratio">1</property>
  <property name="seekable">1</property>
  <property name="mlt_service">kdenlivetitle</property>
  <property name="kdenlive:duration">00:00:05:00</property>
  <property name="kdenlive:clipname">no</property>
  <property name="xmldata">&lt;kdenlivetitle duration="125" LC_NUMERIC="C" width="1920" height="1080" out="124">
 &lt;item type="QGraphicsTextItem" z-index="0">
  &lt;position x="820" y="402">
   &lt;transform>1,0,0,0,1,0,0,0,1&lt;/transform>
  &lt;/position>
  &lt;content line-spacing="0" shadow="0;#64000000;3;3;3" font-underline="0" box-height="276" font-outline-color="0,0,0,255" font="Cubano" letter-spacing="0" font-pixel-size="230" font-italic="0" typewriter="0;2;1;0;0" alignment="1" font-weight="50" font-outline="0" box-width="279.219" font-color="255,255,255,255">no&lt;/content>
 &lt;/item>
 &lt;startviewport rect="0,0,1920,1080"/>
 &lt;endviewport rect="0,0,1920,1080"/>
 &lt;background color="0,0,0,0"/>
&lt;/kdenlivetitle>
</property>
  <property name="kdenlive:folderid">21</property>
  <property name="kdenlive:id">236</property>
  <property name="kdenlive:clip_type">2</property>
  <property name="kdenlive:file_hash">178666002228c019ef4dba7cf705ac32</property>
  <property name="force_reload">0</property>
  <property name="meta.media.width">1920</property>
  <property name="meta.media.height">1080</property>
 </producer>
 <producer id="producer194" in="00:00:00.000" out="00:00:04.960">
  <property name="length">125</property>
  <property name="eof">pause</property>
  <property name="progressive">1</property>
  <property name="aspect_ratio">1</property>
  <property name="seekable">1</property>
  <property name="mlt_service">kdenlivetitle</property>
  <property name="kdenlive:duration">00:00:05:00</property>
  <property name="kdenlive:clipname">they do not</property>
  <property name="xmldata">&lt;kdenlivetitle duration="125" LC_NUMERIC="C" width="1920" height="1080" out="124">
 &lt;item type="QGraphicsTextItem" z-index="0">
  &lt;position x="279" y="402">
   &lt;transform>1,0,0,0,1,0,0,0,1&lt;/transform>
  &lt;/position>
  &lt;content line-spacing="0" shadow="0;#64000000;3;3;3" font-underline="0" box-height="276" font="Cubano" letter-spacing="0" font-pixel-size="230" font-italic="0" typewriter="0;2;1;0;0" alignment="1" font-weight="50" box-width="1361.8" font-color="255,255,255,255">they do not&lt;/content>
 &lt;/item>
 &lt;startviewport rect="0,0,1920,1080"/>
 &lt;endviewport rect="0,0,1920,1080"/>
 &lt;background color="0,0,0,0"/>
&lt;/kdenlivetitle>
</property>
  <property name="kdenlive:folderid">21</property>
  <property name="kdenlive:id">237</property>
  <property name="kdenlive:clip_type">2</property>
  <property name="force_reload">0</property>
  <property name="meta.media.width">1920</property>
  <property name="meta.media.height">1080</property>
  <property name="kdenlive:file_hash">5cabc9b81572c1815f25975baf54d557</property>
 </producer>
 <chain id="chain53" out="00:00:11.280">
  <property name="length">283</property>
  <property name="eof">pause</property>
  <property name="resource">animation/output/theft-meaning.mp4</property>
  <property name="mlt_service">avformat-novalidate</property>
  <property name="meta.media.nb_streams">1</property>
  <property name="meta.media.0.stream.type">video</property>
  <property name="meta.media.0.stream.frame_rate">60</property>
  <property name="meta.media.0.stream.sample_aspect_ratio">0</property>
  <property name="meta.media.0.codec.width">1920</property>
  <property name="meta.media.0.codec.height">1080</property>
  <property name="meta.media.0.codec.rotate">0</property>
  <property name="meta.media.0.codec.pix_fmt">yuv420p</property>
  <property name="meta.media.0.codec.sample_aspect_ratio">0</property>
  <property name="meta.media.0.codec.colorspace">709</property>
  <property name="meta.media.0.codec.name">h264</property>
  <property name="meta.media.0.codec.long_name">H.264 / AVC / MPEG-4 AVC / MPEG-4 part 10</property>
  <property name="meta.media.0.codec.bit_rate">109100</property>
  <property name="meta.attr.0.stream.handler_name.markup">VideoHandler</property>
  <property name="meta.attr.0.stream.vendor_id.markup">[0][0][0][0]</property>
  <property name="meta.attr.major_brand.markup">isom</property>
  <property name="meta.attr.minor_version.markup">512</property>
  <property name="meta.attr.compatible_brands.markup">isomiso2avc1mp41</property>
  <property name="meta.attr.encoder.markup">Lavf58.24.100</property>
  <property name="seekable">1</property>
  <property name="meta.media.sample_aspect_num">1</property>
  <property name="meta.media.sample_aspect_den">1</property>
  <property name="format">3</property>
  <property name="audio_index">-1</property>
  <property name="video_index">0</property>
  <property name="meta.media.frame_rate_num">60</property>
  <property name="meta.media.frame_rate_den">1</property>
  <property name="meta.media.colorspace">709</property>
  <property name="meta.media.color_trc">2</property>
  <property name="meta.media.has_b_frames">2</property>
  <property name="meta.media.width">1920</property>
  <property name="meta.media.height">1080</property>
  <property name="meta.media.color_range">mpeg</property>
  <property name="kdenlive:clipname"/>
  <property name="meta.media.top_field_first">0</property>
  <property name="meta.media.progressive">1</property>
  <property name="kdenlive:clip_type">2</property>
  <property name="kdenlive:folderid">218</property>
  <property name="kdenlive:id">238</property>
  <property name="kdenlive:file_size">163459</property>
  <property name="kdenlive:file_hash">06e3211501d0040a8e477514da87c315</property>
  <property name="mute_on_pause">1</property>
 </chain>
 <chain id="chain54" out="00:01:29.640">
  <property name="length">2242</property>
  <property name="eof">pause</property>
  <property name="resource">/home/liquidzulu/Videos/yt/b-roll/Dogs playing tug of war [3qRMWoMJfG0].webm</property>
  <property name="mlt_service">avformat-novalidate</property>
  <property name="meta.media.nb_streams">2</property>
  <property name="meta.media.0.stream.type">video</property>
  <property name="meta.media.0.stream.frame_rate">29.945</property>
  <property name="meta.media.0.stream.sample_aspect_ratio">1</property>
  <property name="meta.media.0.codec.width">1920</property>
  <property name="meta.media.0.codec.height">1080</property>
  <property name="meta.media.0.codec.rotate">0</property>
  <property name="meta.media.0.codec.pix_fmt">yuv420p</property>
  <property name="meta.media.0.codec.sample_aspect_ratio">0</property>
  <property name="meta.media.0.codec.colorspace">709</property>
  <property name="meta.media.0.codec.color_trc">1</property>
  <property name="meta.media.0.codec.name">vp9</property>
  <property name="meta.media.0.codec.long_name">Google VP9</property>
  <property name="meta.media.0.codec.bit_rate">0</property>
  <property name="meta.attr.0.stream.language.markup">eng</property>
  <property name="meta.attr.0.stream.DURATION.markup">00:01:29.530000000</property>
  <property name="meta.media.1.stream.type">audio</property>
  <property name="meta.media.1.codec.sample_fmt">fltp</property>
  <property name="meta.media.1.codec.sample_rate">48000</property>
  <property name="meta.media.1.codec.channels">2</property>
  <property name="meta.media.1.codec.name">opus</property>
  <property name="meta.media.1.codec.long_name">Opus</property>
  <property name="meta.media.1.codec.bit_rate">0</property>
  <property name="meta.attr.1.stream.language.markup">eng</property>
  <property name="meta.attr.1.stream.DURATION.markup">00:01:29.661000000</property>
  <property name="meta.attr.ENCODER.markup">Lavf59.27.100</property>
  <property name="seekable">1</property>
  <property name="meta.media.sample_aspect_num">1</property>
  <property name="meta.media.sample_aspect_den">1</property>
  <property name="format">3</property>
  <property name="audio_index">-1</property>
  <property name="video_index">0</property>
  <property name="meta.media.frame_rate_num">5989</property>
  <property name="meta.media.frame_rate_den">200</property>
  <property name="meta.media.colorspace">709</property>
  <property name="meta.media.color_trc">1</property>
  <property name="meta.media.has_b_frames">0</property>
  <property name="meta.media.width">1920</property>
  <property name="meta.media.height">1080</property>
  <property name="meta.media.color_range">mpeg</property>
  <property name="kdenlive:clipname"/>
  <property name="meta.media.top_field_first">0</property>
  <property name="meta.media.progressive">1</property>
  <property name="kdenlive:clip_type">0</property>
  <property name="kdenlive:folderid">14</property>
  <property name="kdenlive:id">239</property>
  <property name="kdenlive:file_size">31050254</property>
  <property name="kdenlive:file_hash">18193cf220b6b0e116e9c2263fcdd96f</property>
  <property name="kdenlive:audio_max1">199</property>
  <property name="kdenlive:active_streams">-1</property>
  <property name="set.test_audio">1</property>
  <property name="mute_on_pause">1</property>
 </chain>
 <chain id="chain55" out="00:00:17.520">
  <property name="length">439</property>
  <property name="eof">pause</property>
  <property name="resource">animation/output/bob-and-alice/bob-and-alice.mp4</property>
  <property name="mlt_service">avformat-novalidate</property>
  <property name="meta.media.nb_streams">2</property>
  <property name="meta.media.0.stream.type">video</property>
  <property name="meta.media.0.stream.frame_rate">25</property>
  <property name="meta.media.0.stream.sample_aspect_ratio">1</property>
  <property name="meta.media.0.codec.width">1920</property>
  <property name="meta.media.0.codec.height">1080</property>
  <property name="meta.media.0.codec.rotate">0</property>
  <property name="meta.media.0.codec.pix_fmt">yuv420p</property>
  <property name="meta.media.0.codec.sample_aspect_ratio">1</property>
  <property name="meta.media.0.codec.colorspace">709</property>
  <property name="meta.media.0.codec.color_trc">1</property>
  <property name="meta.media.0.codec.name">h264</property>
  <property name="meta.media.0.codec.long_name">H.264 / AVC / MPEG-4 AVC / MPEG-4 part 10</property>
  <property name="meta.media.0.codec.bit_rate">3934891</property>
  <property name="meta.attr.0.stream.handler_name.markup">VideoHandler</property>
  <property name="meta.attr.0.stream.vendor_id.markup">[0][0][0][0]</property>
  <property name="meta.media.1.stream.type">audio</property>
  <property name="meta.media.1.codec.sample_fmt">fltp</property>
  <property name="meta.media.1.codec.sample_rate">48000</property>
  <property name="meta.media.1.codec.channels">2</property>
  <property name="meta.media.1.codec.name">aac</property>
  <property name="meta.media.1.codec.long_name">AAC (Advanced Audio Coding)</property>
  <property name="meta.media.1.codec.bit_rate">156226</property>
  <property name="meta.attr.1.stream.handler_name.markup">SoundHandler</property>
  <property name="meta.attr.1.stream.vendor_id.markup">[0][0][0][0]</property>
  <property name="meta.attr.major_brand.markup">isom</property>
  <property name="meta.attr.minor_version.markup">512</property>
  <property name="meta.attr.compatible_brands.markup">isomiso2avc1mp41</property>
  <property name="meta.attr.encoder.markup">Lavf59.27.100</property>
  <property name="seekable">1</property>
  <property name="meta.media.sample_aspect_num">1</property>
  <property name="meta.media.sample_aspect_den">1</property>
  <property name="format">3</property>
  <property name="audio_index">1</property>
  <property name="video_index">0</property>
  <property name="meta.media.frame_rate_num">25</property>
  <property name="meta.media.frame_rate_den">1</property>
  <property name="meta.media.colorspace">709</property>
  <property name="meta.media.color_trc">1</property>
  <property name="meta.media.has_b_frames">2</property>
  <property name="meta.media.width">1920</property>
  <property name="meta.media.height">1080</property>
  <property name="meta.media.color_range">mpeg</property>
  <property name="kdenlive:clipname"/>
  <property name="meta.media.top_field_first">0</property>
  <property name="meta.media.progressive">1</property>
  <property name="kdenlive:clip_type">0</property>
  <property name="kdenlive:folderid">218</property>
  <property name="kdenlive:id">240</property>
  <property name="kdenlive:file_size">8995547</property>
  <property name="kdenlive:file_hash">68b5013cb6c8f1a634069f9dde28cd85</property>
  <property name="kdenlive:audio_max1">71</property>
  <property name="mute_on_pause">1</property>
 </chain>
 <producer id="producer196" in="00:00:00.000" out="00:00:05.840">
  <property name="length">147</property>
  <property name="eof">pause</property>
  <property name="resource">images/negative easement.png</property>
  <property name="ttl">25</property>
  <property name="aspect_ratio">1</property>
  <property name="progressive">1</property>
  <property name="seekable">1</property>
  <property name="format">1</property>
  <property name="meta.media.width">1275</property>
  <property name="meta.media.height">822</property>
  <property name="mlt_service">qimage</property>
  <property name="kdenlive:clipname"/>
  <property name="kdenlive:duration">00:00:05:00</property>
  <property name="kdenlive:folderid">28</property>
  <property name="kdenlive:id">241</property>
  <property name="kdenlive:clip_type">2</property>
  <property name="kdenlive:file_size">228381</property>
  <property name="kdenlive:file_hash">b5d185bb851a3fc29b67c078805c5d77</property>
 </producer>
 <producer id="producer195" in="00:00:00.000" out="00:00:04.960">
  <property name="length">00:00:05.000</property>
  <property name="eof">pause</property>
  <property name="resource">citations/citations-lambert-dogs.png</property>
  <property name="ttl">25</property>
  <property name="aspect_ratio">1</property>
  <property name="progressive">1</property>
  <property name="seekable">1</property>
  <property name="format">2</property>
  <property name="meta.media.width">1920</property>
  <property name="meta.media.height">1080</property>
  <property name="mlt_service">qimage</property>
  <property name="kdenlive:clipname"/>
  <property name="kdenlive:duration">00:00:05:00</property>
  <property name="kdenlive:folderid">234</property>
  <property name="kdenlive:id">242</property>
  <property name="kdenlive:clip_type">2</property>
  <property name="kdenlive:file_size">23883</property>
  <property name="kdenlive:file_hash">ab5d18b5adf56d30afb1cd7451aa98c1</property>
 </producer>
 <chain id="chain56" out="00:16:50.080">
  <property name="length">25253</property>
  <property name="eof">pause</property>
  <property name="resource">b-roll/An Encounter - Digital painting timelapse [4gJPc8PnpbI].webm</property>
  <property name="mlt_service">avformat-novalidate</property>
  <property name="meta.media.nb_streams">2</property>
  <property name="meta.media.0.stream.type">video</property>
  <property name="meta.media.0.stream.frame_rate">29.97</property>
  <property name="meta.media.0.stream.sample_aspect_ratio">1</property>
  <property name="meta.media.0.codec.width">1920</property>
  <property name="meta.media.0.codec.height">1080</property>
  <property name="meta.media.0.codec.rotate">0</property>
  <property name="meta.media.0.codec.pix_fmt">yuv420p</property>
  <property name="meta.media.0.codec.sample_aspect_ratio">0</property>
  <property name="meta.media.0.codec.colorspace">709</property>
  <property name="meta.media.0.codec.color_trc">1</property>
  <property name="meta.media.0.codec.name">vp9</property>
  <property name="meta.media.0.codec.long_name">Google VP9</property>
  <property name="meta.media.0.codec.bit_rate">0</property>
  <property name="meta.attr.0.stream.language.markup">eng</property>
  <property name="meta.attr.0.stream.DURATION.markup">00:16:50.075000000</property>
  <property name="meta.media.1.stream.type">audio</property>
  <property name="meta.media.1.codec.sample_fmt">fltp</property>
  <property name="meta.media.1.codec.sample_rate">48000</property>
  <property name="meta.media.1.codec.channels">2</property>
  <property name="meta.media.1.codec.name">opus</property>
  <property name="meta.media.1.codec.long_name">Opus</property>
  <property name="meta.media.1.codec.bit_rate">0</property>
  <property name="meta.attr.1.stream.language.markup">eng</property>
  <property name="meta.attr.1.stream.DURATION.markup">00:16:50.101000000</property>
  <property name="meta.attr.ENCODER.markup">Lavf59.27.100</property>
  <property name="seekable">1</property>
  <property name="meta.media.sample_aspect_num">1</property>
  <property name="meta.media.sample_aspect_den">1</property>
  <property name="format">3</property>
  <property name="audio_index">-1</property>
  <property name="video_index">0</property>
  <property name="meta.media.frame_rate_num">30000</property>
  <property name="meta.media.frame_rate_den">1001</property>
  <property name="meta.media.colorspace">709</property>
  <property name="meta.media.color_trc">1</property>
  <property name="meta.media.has_b_frames">0</property>
  <property name="meta.media.width">1920</property>
  <property name="meta.media.height">1080</property>
  <property name="meta.media.color_range">mpeg</property>
  <property name="kdenlive:clipname"/>
  <property name="meta.media.top_field_first">0</property>
  <property name="meta.media.progressive">1</property>
  <property name="kdenlive:clip_type">0</property>
  <property name="kdenlive:folderid">14</property>
  <property name="kdenlive:id">243</property>
  <property name="kdenlive:file_size">76022954</property>
  <property name="kdenlive:file_hash">b433d0e8ad130da871be5c6d2e296959</property>
  <property name="kdenlive:audio_max1">237</property>
  <property name="kdenlive:active_streams">-1</property>
  <property name="set.test_audio">1</property>
  <property name="mute_on_pause">1</property>
 </chain>
 <producer id="producer197" in="00:00:00.000" out="00:00:10.040">
  <property name="length">252</property>
  <property name="eof">pause</property>
  <property name="resource">citations/citations-paillotin-timelapse.png</property>
  <property name="ttl">25</property>
  <property name="aspect_ratio">1</property>
  <property name="progressive">1</property>
  <property name="seekable">1</property>
  <property name="format">2</property>
  <property name="meta.media.width">1920</property>
  <property name="meta.media.height">1080</property>
  <property name="mlt_service">qimage</property>
  <property name="kdenlive:clipname"/>
  <property name="kdenlive:duration">00:00:05:00</property>
  <property name="kdenlive:folderid">234</property>
  <property name="kdenlive:id">244</property>
  <property name="kdenlive:clip_type">2</property>
  <property name="kdenlive:file_size">26470</property>
  <property name="kdenlive:file_hash">ecbd0dda08d658f4dd77fca192941665</property>
 </producer>
 <chain id="chain57" out="00:00:49.880">
  <property name="length">1248</property>
  <property name="eof">pause</property>
  <property name="resource">b-roll/VertyðŸš² - I think this is my favourite clip from the hbomberguy video lmao [1731756150864158753].mp4</property>
  <property name="mlt_service">avformat-novalidate</property>
  <property name="meta.media.nb_streams">2</property>
  <property name="meta.media.0.stream.type">video</property>
  <property name="meta.media.0.stream.frame_rate">30</property>
  <property name="meta.media.0.stream.sample_aspect_ratio">1</property>
  <property name="meta.media.0.codec.width">1920</property>
  <property name="meta.media.0.codec.height">1080</property>
  <property name="meta.media.0.codec.rotate">0</property>
  <property name="meta.media.0.codec.pix_fmt">yuv420p</property>
  <property name="meta.media.0.codec.sample_aspect_ratio">0</property>
  <property name="meta.media.0.codec.colorspace">709</property>
  <property name="meta.media.0.codec.name">h264</property>
  <property name="meta.media.0.codec.long_name">H.264 / AVC / MPEG-4 AVC / MPEG-4 part 10</property>
  <property name="meta.media.0.codec.bit_rate">1114866</property>
  <property name="meta.attr.0.stream.handler_name.markup">Twitter-vork muxer</property>
  <property name="meta.attr.0.stream.vendor_id.markup">[0][0][0][0]</property>
  <property name="meta.media.1.stream.type">audio</property>
  <property name="meta.media.1.codec.sample_fmt">fltp</property>
  <property name="meta.media.1.codec.sample_rate">44100</property>
  <property name="meta.media.1.codec.channels">2</property>
  <property name="meta.media.1.codec.name">aac</property>
  <property name="meta.media.1.codec.long_name">AAC (Advanced Audio Coding)</property>
  <property name="meta.media.1.codec.bit_rate">128000</property>
  <property name="meta.attr.1.stream.handler_name.markup">Twitter-vork muxer</property>
  <property name="meta.attr.1.stream.vendor_id.markup">[0][0][0][0]</property>
  <property name="meta.attr.major_brand.markup">iso5</property>
  <property name="meta.attr.minor_version.markup">512</property>
  <property name="meta.attr.compatible_brands.markup">iso6mp41</property>
  <property name="seekable">1</property>
  <property name="meta.media.sample_aspect_num">1</property>
  <property name="meta.media.sample_aspect_den">1</property>
  <property name="format">3</property>
  <property name="audio_index">-1</property>
  <property name="video_index">0</property>
  <property name="meta.media.frame_rate_num">30</property>
  <property name="meta.media.frame_rate_den">1</property>
  <property name="meta.media.colorspace">709</property>
  <property name="meta.media.color_trc">2</property>
  <property name="meta.media.has_b_frames">2</property>
  <property name="meta.media.width">1920</property>
  <property name="meta.media.height">1080</property>
  <property name="meta.media.color_range">mpeg</property>
  <property name="kdenlive:clipname"/>
  <property name="meta.media.top_field_first">0</property>
  <property name="meta.media.progressive">1</property>
  <property name="kdenlive:clip_type">0</property>
  <property name="kdenlive:folderid">14</property>
  <property name="kdenlive:id">245</property>
  <property name="kdenlive:file_size">7780789</property>
  <property name="kdenlive:file_hash">7be921498a4391587a1821cb56fdcfc8</property>
  <property name="kdenlive:audio_max1">207</property>
  <property name="kdenlive:active_streams">-1</property>
  <property name="set.test_audio">1</property>
  <property name="mute_on_pause">1</property>
 </chain>
 <producer id="producer198" in="00:00:00.000" out="00:00:12.960">
  <property name="length">325</property>
  <property name="eof">pause</property>
  <property name="resource">citations/citations-hbomberguy-plagiarism.png</property>
  <property name="ttl">25</property>
  <property name="aspect_ratio">1</property>
  <property name="progressive">1</property>
  <property name="seekable">1</property>
  <property name="format">2</property>
  <property name="meta.media.width">1920</property>
  <property name="meta.media.height">1080</property>
  <property name="mlt_service">qimage</property>
  <property name="kdenlive:clipname"/>
  <property name="kdenlive:duration">00:00:05:00</property>
  <property name="kdenlive:folderid">234</property>
  <property name="kdenlive:id">246</property>
  <property name="kdenlive:clip_type">2</property>
  <property name="kdenlive:file_size">25793</property>
  <property name="kdenlive:file_hash">d01d1fa838710674e49d36c4c3a60feb</property>
 </producer>
 <producer id="producer199" in="00:00:00.000" out="00:00:11.200">
  <property name="length">281</property>
  <property name="eof">pause</property>
  <property name="resource">citations/citations-computerphile-how-work.png</property>
  <property name="ttl">25</property>
  <property name="aspect_ratio">1</property>
  <property name="progressive">1</property>
  <property name="seekable">1</property>
  <property name="format">2</property>
  <property name="meta.media.width">1920</property>
  <property name="meta.media.height">1080</property>
  <property name="mlt_service">qimage</property>
  <property name="kdenlive:clipname"/>
  <property name="kdenlive:duration">00:00:05:00</property>
  <property name="kdenlive:folderid">234</property>
  <property name="kdenlive:id">247</property>
  <property name="kdenlive:clip_type">2</property>
  <property name="kdenlive:file_size">37486</property>
  <property name="kdenlive:file_hash">5509049c2438fdd868915006172ae454</property>
 </producer>
 <producer id="producer390" in="00:00:00.000" out="00:00:22.760">
  <property name="length">570</property>
  <property name="eof">pause</property>
  <property name="resource">/home/liquidzulu/Pictures/yt/pointer.xcf</property>
  <property name="ttl">25</property>
  <property name="aspect_ratio">1</property>
  <property name="progressive">1</property>
  <property name="seekable">1</property>
  <property name="format">2</property>
  <property name="meta.media.width">1608</property>
  <property name="meta.media.height">886</property>
  <property name="mlt_service">qimage</property>
  <property name="kdenlive:clipname"/>
  <property name="kdenlive:duration">00:00:05:00</property>
  <property name="kdenlive:folderid">28</property>
  <property name="kdenlive:id">248</property>
  <property name="kdenlive:clip_type">2</property>
  <property name="kdenlive:file_size">3920553</property>
  <property name="kdenlive:file_hash">4da010a1d587c707fabc3706a1b65178</property>
 </producer>
 <chain id="chain58" out="00:17:49.800">
  <property name="length">26746</property>
  <property name="eof">pause</property>
  <property name="resource">b-roll/How AI Image Generators Work (Stable Diffusion â§¸ Dall-E) - Computerphile [1CIpzeNxIhU].webm</property>
  <property name="mlt_service">avformat-novalidate</property>
  <property name="meta.media.nb_streams">2</property>
  <property name="meta.media.0.stream.type">video</property>
  <property name="meta.media.0.stream.frame_rate">50</property>
  <property name="meta.media.0.stream.sample_aspect_ratio">1</property>
  <property name="meta.media.0.codec.width">3840</property>
  <property name="meta.media.0.codec.height">2160</property>
  <property name="meta.media.0.codec.rotate">0</property>
  <property name="meta.media.0.codec.pix_fmt">yuv420p</property>
  <property name="meta.media.0.codec.sample_aspect_ratio">0</property>
  <property name="meta.media.0.codec.colorspace">709</property>
  <property name="meta.media.0.codec.color_trc">1</property>
  <property name="meta.media.0.codec.name">vp9</property>
  <property name="meta.media.0.codec.long_name">Google VP9</property>
  <property name="meta.media.0.codec.bit_rate">0</property>
  <property name="meta.attr.0.stream.language.markup">eng</property>
  <property name="meta.attr.0.stream.DURATION.markup">00:17:49.800000000</property>
  <property name="meta.media.1.stream.type">audio</property>
  <property name="meta.media.1.codec.sample_fmt">fltp</property>
  <property name="meta.media.1.codec.sample_rate">48000</property>
  <property name="meta.media.1.codec.channels">2</property>
  <property name="meta.media.1.codec.name">opus</property>
  <property name="meta.media.1.codec.long_name">Opus</property>
  <property name="meta.media.1.codec.bit_rate">0</property>
  <property name="meta.attr.1.stream.language.markup">eng</property>
  <property name="meta.attr.1.stream.DURATION.markup">00:17:49.821000000</property>
  <property name="meta.attr.ENCODER.markup">Lavf59.27.100</property>
  <property name="seekable">1</property>
  <property name="meta.media.sample_aspect_num">1</property>
  <property name="meta.media.sample_aspect_den">1</property>
  <property name="format">3</property>
  <property name="audio_index">-1</property>
  <property name="video_index">0</property>
  <property name="meta.media.frame_rate_num">50</property>
  <property name="meta.media.frame_rate_den">1</property>
  <property name="meta.media.colorspace">709</property>
  <property name="meta.media.color_trc">1</property>
  <property name="meta.media.has_b_frames">0</property>
  <property name="meta.media.width">3840</property>
  <property name="meta.media.height">2160</property>
  <property name="meta.media.color_range">mpeg</property>
  <property name="kdenlive:clipname"/>
  <property name="meta.media.top_field_first">0</property>
  <property name="meta.media.progressive">1</property>
  <property name="kdenlive:clip_type">0</property>
  <property name="kdenlive:folderid">14</property>
  <property name="kdenlive:id">249</property>
  <property name="kdenlive:file_size">2792359423</property>
  <property name="kdenlive:file_hash">d6b5bf6152b6536bdb411f09b8ac9c22</property>
  <property name="kdenlive:audio_max1">215</property>
  <property name="kdenlive:active_streams">-1</property>
  <property name="set.test_audio">1</property>
  <property name="mute_on_pause">1</property>
 </chain>
 <chain id="chain59" out="00:04:32.920">
  <property name="length">6824</property>
  <property name="eof">pause</property>
  <property name="resource">videos/aeroplane-redraw.mkv</property>
  <property name="mlt_service">avformat-novalidate</property>
  <property name="meta.media.nb_streams">2</property>
  <property name="meta.media.0.stream.type">video</property>
  <property name="meta.media.0.stream.frame_rate">23.976</property>
  <property name="meta.media.0.stream.sample_aspect_ratio">0</property>
  <property name="meta.media.0.codec.width">1280</property>
  <property name="meta.media.0.codec.height">720</property>
  <property name="meta.media.0.codec.rotate">0</property>
  <property name="meta.media.0.codec.pix_fmt">yuv420p</property>
  <property name="meta.media.0.codec.sample_aspect_ratio">1</property>
  <property name="meta.media.0.codec.colorspace">709</property>
  <property name="meta.media.0.codec.color_trc">1</property>
  <property name="meta.media.0.codec.name">h264</property>
  <property name="meta.media.0.codec.long_name">H.264 / AVC / MPEG-4 AVC / MPEG-4 part 10</property>
  <property name="meta.media.0.codec.bit_rate">0</property>
  <property name="meta.attr.0.stream.DURATION.markup">00:04:32.940000000</property>
  <property name="meta.media.1.stream.type">audio</property>
  <property name="meta.media.1.codec.sample_fmt">fltp</property>
  <property name="meta.media.1.codec.sample_rate">48000</property>
  <property name="meta.media.1.codec.channels">2</property>
  <property name="meta.media.1.codec.name">aac</property>
  <property name="meta.media.1.codec.long_name">AAC (Advanced Audio Coding)</property>
  <property name="meta.media.1.codec.bit_rate">0</property>
  <property name="meta.attr.1.stream.title.markup">simple_aac_recording</property>
  <property name="meta.attr.1.stream.DURATION.markup">00:04:32.746000000</property>
  <property name="meta.attr.ENCODER.markup">Lavf59.27.100</property>
  <property name="seekable">1</property>
  <property name="meta.media.sample_aspect_num">1</property>
  <property name="meta.media.sample_aspect_den">1</property>
  <property name="format">3</property>
  <property name="audio_index">-1</property>
  <property name="video_index">0</property>
  <property name="meta.media.frame_rate_num">24000</property>
  <property name="meta.media.frame_rate_den">1001</property>
  <property name="meta.media.colorspace">709</property>
  <property name="meta.media.color_trc">1</property>
  <property name="meta.media.has_b_frames">2</property>
  <property name="meta.media.width">1280</property>
  <property name="meta.media.height">720</property>
  <property name="meta.media.color_range">mpeg</property>
  <property name="kdenlive:clipname"/>
  <property name="meta.media.top_field_first">0</property>
  <property name="meta.media.progressive">1</property>
  <property name="kdenlive:clip_type">0</property>
  <property name="kdenlive:folderid">14</property>
  <property name="kdenlive:id">250</property>
  <property name="kdenlive:file_size">32743707</property>
  <property name="kdenlive:file_hash">bdc7a423f44f52902fae651f664f9049</property>
  <property name="kdenlive:audio_max1">177</property>
  <property name="kdenlive:active_streams">-1</property>
  <property name="set.test_audio">1</property>
  <property name="mute_on_pause">1</property>
 </chain>
 <producer id="producer235" in="00:00:00.000" out="00:00:09.960">
  <property name="length">250</property>
  <property name="eof">pause</property>
  <property name="resource">images/aeroplane-missing-wing-0.png</property>
  <property name="ttl">25</property>
  <property name="aspect_ratio">1</property>
  <property name="progressive">1</property>
  <property name="seekable">1</property>
  <property name="format">2</property>
  <property name="meta.media.width">1000</property>
  <property name="meta.media.height">1000</property>
  <property name="mlt_service">qimage</property>
  <property name="kdenlive:clipname"/>
  <property name="kdenlive:duration">00:00:05.000</property>
  <property name="kdenlive:folderid">28</property>
  <property name="kdenlive:id">251</property>
  <property name="kdenlive:clip_type">2</property>
  <property name="kdenlive:file_size">378175</property>
  <property name="kdenlive:file_hash">ea4269780a5afcd57055287507d6d81b</property>
 </producer>
 <producer id="producer247" in="00:00:00.000" out="00:00:09.960">
  <property name="length">250</property>
  <property name="eof">pause</property>
  <property name="resource">images/aeroplane-missing-wing-1.png</property>
  <property name="ttl">25</property>
  <property name="aspect_ratio">1</property>
  <property name="progressive">1</property>
  <property name="seekable">1</property>
  <property name="format">2</property>
  <property name="meta.media.width">1000</property>
  <property name="meta.media.height">1000</property>
  <property name="mlt_service">qimage</property>
  <property name="kdenlive:clipname"/>
  <property name="kdenlive:duration">00:00:05:00</property>
  <property name="kdenlive:folderid">28</property>
  <property name="kdenlive:id">252</property>
  <property name="kdenlive:clip_type">2</property>
  <property name="kdenlive:file_size">226926</property>
  <property name="kdenlive:file_hash">f78c42140842610fbd488aa66a2ae428</property>
 </producer>
 <producer id="producer251" in="00:00:00.000" out="00:00:06.560">
  <property name="length">165</property>
  <property name="eof">pause</property>
  <property name="resource">images/aeroplane-missing-wing-just-noise.png</property>
  <property name="ttl">25</property>
  <property name="aspect_ratio">1</property>
  <property name="progressive">1</property>
  <property name="seekable">1</property>
  <property name="format">2</property>
  <property name="meta.media.width">1000</property>
  <property name="meta.media.height">1000</property>
  <property name="mlt_service">qimage</property>
  <property name="kdenlive:clipname"/>
  <property name="kdenlive:duration">00:00:05:00</property>
  <property name="kdenlive:folderid">28</property>
  <property name="kdenlive:id">253</property>
  <property name="kdenlive:clip_type">2</property>
  <property name="kdenlive:file_size">978151</property>
  <property name="kdenlive:file_hash">efbf6ae4735ed94df11caf6d1cde2fe5</property>
 </producer>
 <producer id="producer200" in="00:00:00.000" out="00:00:04.960">
  <property name="length">00:00:05.000</property>
  <property name="eof">pause</property>
  <property name="resource">images/fill in the gaps.xcf</property>
  <property name="ttl">25</property>
  <property name="aspect_ratio">1</property>
  <property name="progressive">1</property>
  <property name="seekable">1</property>
  <property name="format">2</property>
  <property name="meta.media.width">680</property>
  <property name="meta.media.height">907</property>
  <property name="mlt_service">qimage</property>
  <property name="kdenlive:clipname"/>
  <property name="kdenlive:duration">00:00:05:00</property>
  <property name="kdenlive:folderid">28</property>
  <property name="kdenlive:id">254</property>
  <property name="kdenlive:clip_type">2</property>
  <property name="kdenlive:file_size">375521</property>
  <property name="kdenlive:file_hash">5bedbffb78d97d4539fbcffbabe64971</property>
 </producer>
 <producer id="producer201" in="00:00:00.000" out="00:00:04.960">
  <property name="length">125</property>
  <property name="eof">pause</property>
  <property name="progressive">1</property>
  <property name="aspect_ratio">1</property>
  <property name="seekable">1</property>
  <property name="mlt_service">kdenlivetitle</property>
  <property name="kdenlive:duration">00:00:05:00</property>
  <property name="kdenlive:clipname">i would</property>
  <property name="xmldata">&lt;kdenlivetitle duration="125" LC_NUMERIC="C" width="1920" height="1080" out="124">
 &lt;item type="QGraphicsTextItem" z-index="0">
  &lt;position x="539" y="402">
   &lt;transform>1,0,0,0,1,0,0,0,1&lt;/transform>
  &lt;/position>
  &lt;content line-spacing="0" shadow="0;#64000000;3;3;3" font-underline="0" box-height="276" font="Cubano" letter-spacing="0" font-pixel-size="230" font-italic="0" typewriter="0;2;1;0;0" alignment="1" font-weight="50" box-width="842.219" font-color="255,255,255,255">i would&lt;/content>
 &lt;/item>
 &lt;startviewport rect="0,0,1920,1080"/>
 &lt;endviewport rect="0,0,1920,1080"/>
 &lt;background color="0,0,0,0"/>
&lt;/kdenlivetitle>
</property>
  <property name="kdenlive:folderid">21</property>
  <property name="kdenlive:id">255</property>
  <property name="kdenlive:clip_type">2</property>
  <property name="force_reload">0</property>
  <property name="meta.media.width">1920</property>
  <property name="meta.media.height">1080</property>
  <property name="kdenlive:file_hash">17885d36b1d9a30a086f058bf43e8ae2</property>
 </producer>
 <producer id="producer202" in="00:00:00.000" out="00:00:04.960">
  <property name="length">125</property>
  <property name="eof">pause</property>
  <property name="progressive">1</property>
  <property name="aspect_ratio">1</property>
  <property name="seekable">1</property>
  <property name="mlt_service">kdenlivetitle</property>
  <property name="kdenlive:duration">00:00:05:00</property>
  <property name="kdenlive:clipname">put it to yo...</property>
  <property name="xmldata">&lt;kdenlivetitle duration="125" LC_NUMERIC="C" width="1920" height="1080" out="124">
 &lt;item type="QGraphicsTextItem" z-index="0">
  &lt;position x="223" y="402">
   &lt;transform>1,0,0,0,1,0,0,0,1&lt;/transform>
  &lt;/position>
  &lt;content line-spacing="0" shadow="0;#64000000;3;3;3" font-underline="0" box-height="276" font="Cubano" letter-spacing="0" font-pixel-size="230" font-italic="0" typewriter="0;2;1;0;0" alignment="1" font-weight="50" box-width="1474.92" font-color="255,255,255,255">put it to you&lt;/content>
 &lt;/item>
 &lt;startviewport rect="0,0,1920,1080"/>
 &lt;endviewport rect="0,0,1920,1080"/>
 &lt;background color="0,0,0,0"/>
&lt;/kdenlivetitle>
</property>
  <property name="kdenlive:folderid">21</property>
  <property name="kdenlive:id">256</property>
  <property name="kdenlive:clip_type">2</property>
  <property name="force_reload">0</property>
  <property name="meta.media.width">1920</property>
  <property name="meta.media.height">1080</property>
  <property name="kdenlive:file_hash">17e9ae149eabf9404dd8b90a318d2b20</property>
 </producer>
 <producer id="producer203" in="00:00:00.000" out="00:00:04.960">
  <property name="length">125</property>
  <property name="eof">pause</property>
  <property name="progressive">1</property>
  <property name="aspect_ratio">1</property>
  <property name="seekable">1</property>
  <property name="mlt_service">kdenlivetitle</property>
  <property name="kdenlive:duration">00:00:05:00</property>
  <property name="kdenlive:clipname">dear viewer</property>
  <property name="xmldata">&lt;kdenlivetitle duration="125" LC_NUMERIC="C" width="1920" height="1080" out="124">
 &lt;item type="QGraphicsTextItem" z-index="0">
  &lt;position x="271" y="402">
   &lt;transform>1,0,0,0,1,0,0,0,1&lt;/transform>
  &lt;/position>
  &lt;content line-spacing="0" shadow="0;#64000000;3;3;3" font-underline="0" box-height="276" font="Cubano" letter-spacing="0" font-pixel-size="230" font-italic="0" typewriter="0;2;1;0;0" alignment="1" font-weight="50" box-width="1377.63" font-color="255,255,255,255">dear viewer&lt;/content>
 &lt;/item>
 &lt;startviewport rect="0,0,1920,1080"/>
 &lt;endviewport rect="0,0,1920,1080"/>
 &lt;background color="0,0,0,0"/>
&lt;/kdenlivetitle>
</property>
  <property name="kdenlive:folderid">21</property>
  <property name="kdenlive:id">257</property>
  <property name="kdenlive:clip_type">2</property>
  <property name="force_reload">0</property>
  <property name="meta.media.width">1920</property>
  <property name="meta.media.height">1080</property>
  <property name="kdenlive:file_hash">61797868770afa1fa9d9e361487b0d9b</property>
 </producer>
 <producer id="producer204" in="00:00:00.000" out="00:00:28.640">
  <property name="length">717</property>
  <property name="eof">pause</property>
  <property name="resource">images/Artist-PainterLookingAtCamera.webp</property>
  <property name="ttl">25</property>
  <property name="aspect_ratio">1</property>
  <property name="progressive">1</property>
  <property name="seekable">1</property>
  <property name="format">1</property>
  <property name="meta.media.width">2000</property>
  <property name="meta.media.height">1333</property>
  <property name="mlt_service">qimage</property>
  <property name="kdenlive:clipname"/>
  <property name="kdenlive:duration">00:00:05:00</property>
  <property name="kdenlive:folderid">28</property>
  <property name="kdenlive:id">258</property>
  <property name="kdenlive:clip_type">2</property>
  <property name="kdenlive:file_size">1156002</property>
  <property name="kdenlive:file_hash">e4591227f174a551f4a455a70646c809</property>
 </producer>
 <chain id="chain60" out="00:00:06.440">
  <property name="length">162</property>
  <property name="eof">pause</property>
  <property name="resource">animation/output/hotdog-filters.mp4</property>
  <property name="mlt_service">avformat-novalidate</property>
  <property name="meta.media.nb_streams">1</property>
  <property name="meta.media.0.stream.type">video</property>
  <property name="meta.media.0.stream.frame_rate">30</property>
  <property name="meta.media.0.stream.sample_aspect_ratio">0</property>
  <property name="meta.media.0.codec.width">1920</property>
  <property name="meta.media.0.codec.height">1080</property>
  <property name="meta.media.0.codec.rotate">0</property>
  <property name="meta.media.0.codec.pix_fmt">yuv420p</property>
  <property name="meta.media.0.codec.sample_aspect_ratio">0</property>
  <property name="meta.media.0.codec.colorspace">709</property>
  <property name="meta.media.0.codec.name">h264</property>
  <property name="meta.media.0.codec.long_name">H.264 / AVC / MPEG-4 AVC / MPEG-4 part 10</property>
  <property name="meta.media.0.codec.bit_rate">1003781</property>
  <property name="meta.attr.0.stream.handler_name.markup">VideoHandler</property>
  <property name="meta.attr.0.stream.vendor_id.markup">[0][0][0][0]</property>
  <property name="meta.attr.major_brand.markup">isom</property>
  <property name="meta.attr.minor_version.markup">512</property>
  <property name="meta.attr.compatible_brands.markup">isomiso2avc1mp41</property>
  <property name="meta.attr.encoder.markup">Lavf58.24.100</property>
  <property name="seekable">1</property>
  <property name="meta.media.sample_aspect_num">1</property>
  <property name="meta.media.sample_aspect_den">1</property>
  <property name="format">3</property>
  <property name="audio_index">-1</property>
  <property name="video_index">0</property>
  <property name="meta.media.frame_rate_num">30</property>
  <property name="meta.media.frame_rate_den">1</property>
  <property name="meta.media.colorspace">709</property>
  <property name="meta.media.color_trc">2</property>
  <property name="meta.media.has_b_frames">2</property>
  <property name="meta.media.width">1920</property>
  <property name="meta.media.height">1080</property>
  <property name="meta.media.color_range">mpeg</property>
  <property name="kdenlive:clipname"/>
  <property name="meta.media.top_field_first">0</property>
  <property name="meta.media.progressive">1</property>
  <property name="kdenlive:clip_type">2</property>
  <property name="kdenlive:folderid">218</property>
  <property name="kdenlive:id">259</property>
  <property name="kdenlive:file_size">814506</property>
  <property name="kdenlive:file_hash">a22b881d51617a1b7da002b2069b9435</property>
  <property name="mute_on_pause">1</property>
 </chain>
 <producer id="producer236" in="00:00:00.000" out="00:00:12.440">
  <property name="length">00:00:12.480</property>
  <property name="eof">pause</property>
  <property name="resource">images/human visual filters.xcf</property>
  <property name="ttl">25</property>
  <property name="aspect_ratio">1</property>
  <property name="progressive">1</property>
  <property name="seekable">1</property>
  <property name="format">2</property>
  <property name="meta.media.width">926</property>
  <property name="meta.media.height">474</property>
  <property name="mlt_service">qimage</property>
  <property name="kdenlive:clipname"/>
  <property name="kdenlive:duration">00:00:05.000</property>
  <property name="kdenlive:folderid">28</property>
  <property name="kdenlive:id">260</property>
  <property name="kdenlive:clip_type">2</property>
  <property name="kdenlive:file_size">831323</property>
  <property name="kdenlive:file_hash">b41b6f6044a89c7c674b91e1f341b967</property>
 </producer>
 <chain id="chain61" out="00:00:09.160">
  <property name="length">230</property>
  <property name="eof">pause</property>
  <property name="resource">animation/output/hotdog-spaceship.mp4</property>
  <property name="mlt_service">avformat-novalidate</property>
  <property name="meta.media.nb_streams">1</property>
  <property name="meta.media.0.stream.type">video</property>
  <property name="meta.media.0.stream.frame_rate">60</property>
  <property name="meta.media.0.stream.sample_aspect_ratio">0</property>
  <property name="meta.media.0.codec.width">1920</property>
  <property name="meta.media.0.codec.height">1080</property>
  <property name="meta.media.0.codec.rotate">0</property>
  <property name="meta.media.0.codec.pix_fmt">yuv420p</property>
  <property name="meta.media.0.codec.sample_aspect_ratio">0</property>
  <property name="meta.media.0.codec.colorspace">709</property>
  <property name="meta.media.0.codec.name">h264</property>
  <property name="meta.media.0.codec.long_name">H.264 / AVC / MPEG-4 AVC / MPEG-4 part 10</property>
  <property name="meta.media.0.codec.bit_rate">287503</property>
  <property name="meta.attr.0.stream.handler_name.markup">VideoHandler</property>
  <property name="meta.attr.0.stream.vendor_id.markup">[0][0][0][0]</property>
  <property name="meta.attr.major_brand.markup">isom</property>
  <property name="meta.attr.minor_version.markup">512</property>
  <property name="meta.attr.compatible_brands.markup">isomiso2avc1mp41</property>
  <property name="meta.attr.encoder.markup">Lavf58.24.100</property>
  <property name="seekable">1</property>
  <property name="meta.media.sample_aspect_num">1</property>
  <property name="meta.media.sample_aspect_den">1</property>
  <property name="format">3</property>
  <property name="audio_index">-1</property>
  <property name="video_index">0</property>
  <property name="meta.media.frame_rate_num">60</property>
  <property name="meta.media.frame_rate_den">1</property>
  <property name="meta.media.colorspace">709</property>
  <property name="meta.media.color_trc">2</property>
  <property name="meta.media.has_b_frames">2</property>
  <property name="meta.media.width">1920</property>
  <property name="meta.media.height">1080</property>
  <property name="meta.media.color_range">mpeg</property>
  <property name="kdenlive:clipname"/>
  <property name="kdenlive:clip_type">2</property>
  <property name="kdenlive:folderid">218</property>
  <property name="kdenlive:id">261</property>
  <property name="kdenlive:file_size">337454</property>
  <property name="kdenlive:file_hash">3132a7507141e9f542d8ad845f9d3154</property>
  <property name="meta.media.top_field_first">0</property>
  <property name="meta.media.progressive">1</property>
  <property name="mute_on_pause">1</property>
 </chain>
 <producer id="producer237" in="00:00:00.000" out="00:00:10.560">
  <property name="length">265</property>
  <property name="eof">pause</property>
  <property name="resource">images/human visual filters ai.png</property>
  <property name="ttl">25</property>
  <property name="aspect_ratio">1</property>
  <property name="progressive">1</property>
  <property name="seekable">1</property>
  <property name="format">2</property>
  <property name="meta.media.width">926</property>
  <property name="meta.media.height">474</property>
  <property name="mlt_service">qimage</property>
  <property name="kdenlive:clipname"/>
  <property name="kdenlive:duration">00:00:05:00</property>
  <property name="kdenlive:folderid">28</property>
  <property name="kdenlive:id">262</property>
  <property name="kdenlive:clip_type">2</property>
  <property name="kdenlive:file_size">243514</property>
  <property name="kdenlive:file_hash">bdfc2a77e6756599618ba314d9e230e8</property>
 </producer>
 <chain id="chain62" out="00:00:04.960">
  <property name="length">125</property>
  <property name="eof">pause</property>
  <property name="resource">animation/output/art-is-anything.mp4</property>
  <property name="mlt_service">avformat-novalidate</property>
  <property name="meta.media.nb_streams">1</property>
  <property name="meta.media.0.stream.type">video</property>
  <property name="meta.media.0.stream.frame_rate">30</property>
  <property name="meta.media.0.stream.sample_aspect_ratio">0</property>
  <property name="meta.media.0.codec.width">1920</property>
  <property name="meta.media.0.codec.height">1080</property>
  <property name="meta.media.0.codec.rotate">0</property>
  <property name="meta.media.0.codec.pix_fmt">yuv420p</property>
  <property name="meta.media.0.codec.sample_aspect_ratio">0</property>
  <property name="meta.media.0.codec.colorspace">709</property>
  <property name="meta.media.0.codec.name">h264</property>
  <property name="meta.media.0.codec.long_name">H.264 / AVC / MPEG-4 AVC / MPEG-4 part 10</property>
  <property name="meta.media.0.codec.bit_rate">2838832</property>
  <property name="meta.attr.0.stream.handler_name.markup">VideoHandler</property>
  <property name="meta.attr.0.stream.vendor_id.markup">[0][0][0][0]</property>
  <property name="meta.attr.major_brand.markup">isom</property>
  <property name="meta.attr.minor_version.markup">512</property>
  <property name="meta.attr.compatible_brands.markup">isomiso2avc1mp41</property>
  <property name="meta.attr.encoder.markup">Lavf58.24.100</property>
  <property name="seekable">1</property>
  <property name="meta.media.sample_aspect_num">1</property>
  <property name="meta.media.sample_aspect_den">1</property>
  <property name="format">3</property>
  <property name="audio_index">-1</property>
  <property name="video_index">0</property>
  <property name="meta.media.frame_rate_num">30</property>
  <property name="meta.media.frame_rate_den">1</property>
  <property name="meta.media.colorspace">709</property>
  <property name="meta.media.color_trc">2</property>
  <property name="meta.media.has_b_frames">2</property>
  <property name="meta.media.width">1920</property>
  <property name="meta.media.height">1080</property>
  <property name="meta.media.color_range">mpeg</property>
  <property name="kdenlive:clipname"/>
  <property name="meta.media.top_field_first">0</property>
  <property name="meta.media.progressive">1</property>
  <property name="kdenlive:clip_type">2</property>
  <property name="kdenlive:folderid">218</property>
  <property name="kdenlive:id">263</property>
  <property name="kdenlive:file_size">1775922</property>
  <property name="kdenlive:file_hash">703f31d2e9f10cd9c40258ad210e5f94</property>
  <property name="mute_on_pause">1</property>
 </chain>
 <producer id="producer205" in="00:00:00.000" out="00:00:04.960">
  <property name="length">125</property>
  <property name="eof">pause</property>
  <property name="progressive">1</property>
  <property name="aspect_ratio">1</property>
  <property name="seekable">1</property>
  <property name="mlt_service">kdenlivetitle</property>
  <property name="kdenlive:duration">00:00:05:00</property>
  <property name="kdenlive:clipname">"Hotdog"</property>
  <property name="xmldata">&lt;kdenlivetitle duration="125" LC_NUMERIC="C" width="1920" height="1080" out="124">
 &lt;item type="QGraphicsTextItem" z-index="0">
  &lt;position x="465" y="402">
   &lt;transform>1,0,0,0,1,0,0,0,1&lt;/transform>
  &lt;/position>
  &lt;content line-spacing="0" shadow="0;#64000000;3;3;3" font-underline="0" box-height="276" font-outline-color="0,0,0,255" font="Cubano" letter-spacing="0" font-pixel-size="230" font-italic="0" typewriter="0;2;1;0;0" alignment="4" font-weight="50" font-outline="0" box-width="989.656" font-color="255,255,255,255">"Hotdog"&lt;/content>
 &lt;/item>
 &lt;startviewport rect="0,0,1920,1080"/>
 &lt;endviewport rect="0,0,1920,1080"/>
 &lt;background color="0,0,0,0"/>
&lt;/kdenlivetitle>
</property>
  <property name="kdenlive:folderid">21</property>
  <property name="kdenlive:id">264</property>
  <property name="kdenlive:clip_type">2</property>
  <property name="force_reload">0</property>
  <property name="meta.media.width">1920</property>
  <property name="meta.media.height">1080</property>
  <property name="kdenlive:file_hash">36a9a95084bd032e606a4c81632f1594</property>
 </producer>
 <producer id="producer206" in="00:00:00.000" out="00:00:10.960">
  <property name="length">275</property>
  <property name="eof">pause</property>
  <property name="resource">images/orc.xcf</property>
  <property name="ttl">25</property>
  <property name="aspect_ratio">1</property>
  <property name="progressive">1</property>
  <property name="seekable">1</property>
  <property name="format">2</property>
  <property name="meta.media.width">513</property>
  <property name="meta.media.height">418</property>
  <property name="mlt_service">qimage</property>
  <property name="kdenlive:clipname"/>
  <property name="kdenlive:duration">00:00:05:00</property>
  <property name="kdenlive:folderid">28</property>
  <property name="kdenlive:id">265</property>
  <property name="kdenlive:clip_type">2</property>
  <property name="kdenlive:file_size">518616</property>
  <property name="kdenlive:file_hash">a083315dc03aa02b329d284a8a8a107f</property>
 </producer>
 <chain id="chain63" out="00:00:17.120">
  <property name="length">429</property>
  <property name="eof">pause</property>
  <property name="resource">videos/search for orc.mkv</property>
  <property name="mlt_service">avformat-novalidate</property>
  <property name="meta.media.nb_streams">2</property>
  <property name="meta.media.0.stream.type">video</property>
  <property name="meta.media.0.stream.frame_rate">60</property>
  <property name="meta.media.0.stream.sample_aspect_ratio">0</property>
  <property name="meta.media.0.codec.width">1920</property>
  <property name="meta.media.0.codec.height">1080</property>
  <property name="meta.media.0.codec.rotate">0</property>
  <property name="meta.media.0.codec.pix_fmt">yuv420p</property>
  <property name="meta.media.0.codec.sample_aspect_ratio">1</property>
  <property name="meta.media.0.codec.colorspace">709</property>
  <property name="meta.media.0.codec.color_trc">1</property>
  <property name="meta.media.0.codec.name">h264</property>
  <property name="meta.media.0.codec.long_name">H.264 / AVC / MPEG-4 AVC / MPEG-4 part 10</property>
  <property name="meta.media.0.codec.bit_rate">0</property>
  <property name="meta.attr.0.stream.DURATION.markup">00:00:17.150000000</property>
  <property name="meta.media.1.stream.type">audio</property>
  <property name="meta.media.1.codec.sample_fmt">fltp</property>
  <property name="meta.media.1.codec.sample_rate">48000</property>
  <property name="meta.media.1.codec.channels">1</property>
  <property name="meta.media.1.codec.name">aac</property>
  <property name="meta.media.1.codec.long_name">AAC (Advanced Audio Coding)</property>
  <property name="meta.media.1.codec.bit_rate">0</property>
  <property name="meta.attr.1.stream.title.markup">simple_aac_recording</property>
  <property name="meta.attr.1.stream.DURATION.markup">00:00:17.130000000</property>
  <property name="meta.attr.ENCODER.markup">Lavf59.27.100</property>
  <property name="seekable">1</property>
  <property name="meta.media.sample_aspect_num">1</property>
  <property name="meta.media.sample_aspect_den">1</property>
  <property name="format">3</property>
  <property name="audio_index">-1</property>
  <property name="video_index">0</property>
  <property name="meta.media.frame_rate_num">60</property>
  <property name="meta.media.frame_rate_den">1</property>
  <property name="meta.media.colorspace">709</property>
  <property name="meta.media.color_trc">1</property>
  <property name="meta.media.has_b_frames">2</property>
  <property name="meta.media.width">1920</property>
  <property name="meta.media.height">1080</property>
  <property name="meta.media.color_range">mpeg</property>
  <property name="kdenlive:clipname"/>
  <property name="meta.media.top_field_first">0</property>
  <property name="meta.media.progressive">1</property>
  <property name="kdenlive:clip_type">0</property>
  <property name="kdenlive:folderid">14</property>
  <property name="kdenlive:id">266</property>
  <property name="kdenlive:file_size">6323091</property>
  <property name="kdenlive:file_hash">fc8889a6f788e1c501b94ec522251625</property>
  <property name="kdenlive:audio_max1">1</property>
  <property name="kdenlive:active_streams">-1</property>
  <property name="set.test_audio">1</property>
  <property name="mute_on_pause">1</property>
 </chain>
 <producer id="producer207" in="00:00:00.000" out="00:00:05.840">
  <property name="length">147</property>
  <property name="eof">pause</property>
  <property name="resource">images/orc-features-head.png</property>
  <property name="ttl">25</property>
  <property name="aspect_ratio">1</property>
  <property name="progressive">1</property>
  <property name="seekable">1</property>
  <property name="format">2</property>
  <property name="meta.media.width">474</property>
  <property name="meta.media.height">632</property>
  <property name="mlt_service">qimage</property>
  <property name="kdenlive:clipname"/>
  <property name="kdenlive:duration">00:00:05:00</property>
  <property name="kdenlive:folderid">28</property>
  <property name="kdenlive:id">267</property>
  <property name="kdenlive:clip_type">2</property>
  <property name="kdenlive:file_size">13905</property>
  <property name="kdenlive:file_hash">fbbf7b562bd5e8c6941691a679bb8c80</property>
 </producer>
 <producer id="producer239" in="00:00:00.000" out="00:00:04.960">
  <property name="length">00:00:05.000</property>
  <property name="eof">pause</property>
  <property name="resource">images/orc-features-sword.png</property>
  <property name="ttl">25</property>
  <property name="aspect_ratio">1</property>
  <property name="progressive">1</property>
  <property name="seekable">1</property>
  <property name="format">2</property>
  <property name="meta.media.width">474</property>
  <property name="meta.media.height">632</property>
  <property name="mlt_service">qimage</property>
  <property name="kdenlive:clipname"/>
  <property name="kdenlive:duration">00:00:05:00</property>
  <property name="kdenlive:folderid">28</property>
  <property name="kdenlive:id">268</property>
  <property name="kdenlive:clip_type">2</property>
  <property name="kdenlive:file_size">38370</property>
  <property name="kdenlive:file_hash">ebff874472ac7f27c1ed597b9e1a7596</property>
 </producer>
 <producer id="producer248" in="00:00:00.000" out="00:00:04.960">
  <property name="length">00:00:05.000</property>
  <property name="eof">pause</property>
  <property name="resource">images/orc-features.xcf</property>
  <property name="ttl">25</property>
  <property name="aspect_ratio">1</property>
  <property name="progressive">1</property>
  <property name="seekable">1</property>
  <property name="format">2</property>
  <property name="meta.media.width">474</property>
  <property name="meta.media.height">632</property>
  <property name="mlt_service">qimage</property>
  <property name="kdenlive:clipname"/>
  <property name="kdenlive:duration">00:00:05:00</property>
  <property name="kdenlive:folderid">28</property>
  <property name="kdenlive:id">269</property>
  <property name="kdenlive:clip_type">2</property>
  <property name="kdenlive:file_size">605542</property>
  <property name="kdenlive:file_hash">08776a17d26fd9089650595e36eb1556</property>
 </producer>
 <chain id="chain64" out="00:15:34.160">
  <property name="length">23355</property>
  <property name="eof">pause</property>
  <property name="resource">b-roll/3 STEPS TO INSTANTLY FIND YOUR STYLEï½œ NEVER draw from IMAGINATION! [NEvMHRgPdyk].webm</property>
  <property name="mlt_service">avformat-novalidate</property>
  <property name="meta.media.nb_streams">2</property>
  <property name="meta.media.0.stream.type">video</property>
  <property name="meta.media.0.stream.frame_rate">23.9794</property>
  <property name="meta.media.0.stream.sample_aspect_ratio">1</property>
  <property name="meta.media.0.codec.width">1920</property>
  <property name="meta.media.0.codec.height">1080</property>
  <property name="meta.media.0.codec.rotate">0</property>
  <property name="meta.media.0.codec.pix_fmt">yuv420p</property>
  <property name="meta.media.0.codec.sample_aspect_ratio">0</property>
  <property name="meta.media.0.codec.colorspace">709</property>
  <property name="meta.media.0.codec.color_trc">1</property>
  <property name="meta.media.0.codec.name">vp9</property>
  <property name="meta.media.0.codec.long_name">Google VP9</property>
  <property name="meta.media.0.codec.bit_rate">0</property>
  <property name="meta.attr.0.stream.HANDLER_NAME.markup">ISO Media file produced by Google Inc. Created on: 12/11/2023.</property>
  <property name="meta.attr.0.stream.VENDOR_ID.markup">[0][0][0][0]</property>
  <property name="meta.attr.0.stream.DURATION.markup">00:15:34.182000000</property>
  <property name="meta.media.1.stream.type">audio</property>
  <property name="meta.media.1.codec.sample_fmt">fltp</property>
  <property name="meta.media.1.codec.sample_rate">48000</property>
  <property name="meta.media.1.codec.channels">2</property>
  <property name="meta.media.1.codec.name">opus</property>
  <property name="meta.media.1.codec.long_name">Opus</property>
  <property name="meta.media.1.codec.bit_rate">0</property>
  <property name="meta.attr.1.stream.language.markup">eng</property>
  <property name="meta.attr.1.stream.DURATION.markup">00:15:34.201000000</property>
  <property name="meta.attr.COMPATIBLE_BRANDS.markup">iso6mp41</property>
  <property name="meta.attr.MAJOR_BRAND.markup">dash</property>
  <property name="meta.attr.MINOR_VERSION.markup">0</property>
  <property name="meta.attr.ENCODER.markup">Lavf59.27.100</property>
  <property name="seekable">1</property>
  <property name="meta.media.sample_aspect_num">1</property>
  <property name="meta.media.sample_aspect_den">1</property>
  <property name="format">3</property>
  <property name="audio_index">-1</property>
  <property name="video_index">0</property>
  <property name="meta.media.frame_rate_num">22109</property>
  <property name="meta.media.frame_rate_den">922</property>
  <property name="meta.media.colorspace">709</property>
  <property name="meta.media.color_trc">1</property>
  <property name="meta.media.has_b_frames">0</property>
  <property name="meta.media.width">1920</property>
  <property name="meta.media.height">1080</property>
  <property name="meta.media.color_range">mpeg</property>
  <property name="kdenlive:clipname"/>
  <property name="meta.media.top_field_first">0</property>
  <property name="meta.media.progressive">1</property>
  <property name="kdenlive:clip_type">0</property>
  <property name="kdenlive:folderid">14</property>
  <property name="kdenlive:id">270</property>
  <property name="kdenlive:file_size">321499413</property>
  <property name="kdenlive:file_hash">24441613172d8b1b8af667f54f067d57</property>
  <property name="kdenlive:audio_max1">214</property>
  <property name="kdenlive:active_streams">-1</property>
  <property name="set.test_audio">1</property>
  <property name="mute_on_pause">1</property>
 </chain>
 <producer id="producer208" in="00:00:00.000" out="00:00:13.880">
  <property name="length">348</property>
  <property name="eof">pause</property>
  <property name="resource">citations/citations-ethan-becker.png</property>
  <property name="ttl">25</property>
  <property name="aspect_ratio">1</property>
  <property name="progressive">1</property>
  <property name="seekable">1</property>
  <property name="format">2</property>
  <property name="meta.media.width">1920</property>
  <property name="meta.media.height">1080</property>
  <property name="mlt_service">qimage</property>
  <property name="kdenlive:clipname"/>
  <property name="kdenlive:duration">00:00:05.000</property>
  <property name="kdenlive:folderid">234</property>
  <property name="kdenlive:id">271</property>
  <property name="kdenlive:clip_type">2</property>
  <property name="kdenlive:file_size">34560</property>
  <property name="kdenlive:file_hash">ed95ce5ec2ba0892dc68aa2cba51986a</property>
 </producer>
 <producer id="producer254" in="00:00:00.000" out="00:00:19.680">
  <property name="length">00:00:19.720</property>
  <property name="eof">pause</property>
  <property name="resource">/home/liquidzulu/Pictures/yt/animation/output/project/footnotes/footnote-1/.all.png</property>
  <property name="ttl">1</property>
  <property name="aspect_ratio">1</property>
  <property name="progressive">1</property>
  <property name="seekable">1</property>
  <property name="format">2</property>
  <property name="meta.media.width">1920</property>
  <property name="meta.media.height">1080</property>
  <property name="mlt_service">qimage</property>
  <property name="kdenlive:clipname">footnote-1</property>
  <property name="low-pass">0</property>
  <property name="animation"/>
  <property name="luma_file"/>
  <property name="luma_duration">25</property>
  <property name="fade">0</property>
  <property name="crop">0</property>
  <property name="softness">0</property>
  <property name="loop">0</property>
  <property name="kdenlive:duration">00:00:19:18</property>
  <property name="kdenlive:folderid">273</property>
  <property name="kdenlive:id">272</property>
  <property name="kdenlive:clip_type">2</property>
  <property name="kdenlive:file_hash">685891fd34b496a219b70715d70af1f2</property>
 </producer>
 <producer id="producer209" in="00:00:00.000" out="00:00:04.960">
  <property name="length">125</property>
  <property name="eof">pause</property>
  <property name="progressive">1</property>
  <property name="aspect_ratio">1</property>
  <property name="seekable">1</property>
  <property name="mlt_service">kdenlivetitle</property>
  <property name="kdenlive:duration">00:00:05:00</property>
  <property name="kdenlive:clipname">this</property>
  <property name="xmldata">&lt;kdenlivetitle duration="125" LC_NUMERIC="C" width="1920" height="1080" out="124">
 &lt;item type="QGraphicsTextItem" z-index="0">
  &lt;position x="726" y="402">
   &lt;transform>1,0,0,0,1,0,0,0,1&lt;/transform>
  &lt;/position>
  &lt;content line-spacing="0" shadow="0;#64000000;3;3;3" font-underline="0" box-height="276" font="Cubano" letter-spacing="0" font-pixel-size="230" font-italic="0" typewriter="0;2;1;0;0" alignment="1" font-weight="50" box-width="467.797" font-color="255,255,255,255">this&lt;/content>
 &lt;/item>
 &lt;startviewport rect="0,0,1920,1080"/>
 &lt;endviewport rect="0,0,1920,1080"/>
 &lt;background color="0,0,0,0"/>
&lt;/kdenlivetitle>
</property>
  <property name="kdenlive:folderid">21</property>
  <property name="kdenlive:id">274</property>
  <property name="kdenlive:clip_type">2</property>
  <property name="force_reload">0</property>
  <property name="meta.media.width">1920</property>
  <property name="meta.media.height">1080</property>
  <property name="kdenlive:file_hash">b4ac6ae28c6e37c47971acb39995e80f</property>
 </producer>
 <producer id="producer210" in="00:00:00.000" out="00:00:04.960">
  <property name="length">125</property>
  <property name="eof">pause</property>
  <property name="progressive">1</property>
  <property name="aspect_ratio">1</property>
  <property name="seekable">1</property>
  <property name="mlt_service">kdenlivetitle</property>
  <property name="kdenlive:duration">00:00:05:00</property>
  <property name="kdenlive:clipname">"Style-bashi...</property>
  <property name="xmldata">&lt;kdenlivetitle duration="125" LC_NUMERIC="C" width="1920" height="1080" out="124">
 &lt;item type="QGraphicsTextItem" z-index="0">
  &lt;position x="30" y="402">
   &lt;transform>1,0,0,0,1,0,0,0,1&lt;/transform>
  &lt;/position>
  &lt;content line-spacing="0" shadow="0;#64000000;3;3;3" font-underline="0" box-height="276" font="Cubano" letter-spacing="0" font-pixel-size="230" font-italic="0" typewriter="0;2;1;0;0" alignment="1" font-weight="50" box-width="1860.83" font-color="255,255,255,255">"Style-bashing"&lt;/content>
 &lt;/item>
 &lt;startviewport rect="0,0,1920,1080"/>
 &lt;endviewport rect="0,0,1920,1080"/>
 &lt;background color="0,0,0,0"/>
&lt;/kdenlivetitle>
</property>
  <property name="kdenlive:folderid">21</property>
  <property name="kdenlive:id">275</property>
  <property name="kdenlive:clip_type">2</property>
  <property name="force_reload">0</property>
  <property name="meta.media.width">1920</property>
  <property name="meta.media.height">1080</property>
  <property name="kdenlive:file_hash">8491482e64539d929f3dd82a05a8cbd9</property>
 </producer>
 <producer id="producer211" in="00:00:00.000" out="00:00:04.960">
  <property name="length">125</property>
  <property name="eof">pause</property>
  <property name="progressive">1</property>
  <property name="aspect_ratio">1</property>
  <property name="seekable">1</property>
  <property name="mlt_service">kdenlivetitle</property>
  <property name="kdenlive:duration">00:00:05:00</property>
  <property name="kdenlive:clipname">as</property>
  <property name="xmldata">&lt;kdenlivetitle duration="125" LC_NUMERIC="C" width="1920" height="1080" out="124">
 &lt;item type="QGraphicsTextItem" z-index="0">
  &lt;position x="828" y="402">
   &lt;transform>1,0,0,0,1,0,0,0,1&lt;/transform>
  &lt;/position>
  &lt;content line-spacing="0" shadow="0;#64000000;3;3;3" font-underline="0" box-height="276" font="Cubano" letter-spacing="0" font-pixel-size="230" font-italic="0" typewriter="0;2;1;0;0" alignment="1" font-weight="50" box-width="264.938" font-color="255,255,255,255">as&lt;/content>
 &lt;/item>
 &lt;startviewport rect="0,0,1920,1080"/>
 &lt;endviewport rect="0,0,1920,1080"/>
 &lt;background color="0,0,0,0"/>
&lt;/kdenlivetitle>
</property>
  <property name="kdenlive:folderid">21</property>
  <property name="kdenlive:id">276</property>
  <property name="kdenlive:clip_type">2</property>
  <property name="force_reload">0</property>
  <property name="meta.media.width">1920</property>
  <property name="meta.media.height">1080</property>
  <property name="kdenlive:file_hash">7127ad59918bae81f820676ec6f5ee1b</property>
 </producer>
 <producer id="producer212" in="00:00:00.000" out="00:00:04.960">
  <property name="length">125</property>
  <property name="eof">pause</property>
  <property name="progressive">1</property>
  <property name="aspect_ratio">1</property>
  <property name="seekable">1</property>
  <property name="mlt_service">kdenlivetitle</property>
  <property name="kdenlive:duration">00:00:05:00</property>
  <property name="kdenlive:clipname">one</property>
  <property name="xmldata">&lt;kdenlivetitle duration="125" LC_NUMERIC="C" width="1920" height="1080" out="124">
 &lt;item type="QGraphicsTextItem" z-index="0">
  &lt;position x="756" y="402">
   &lt;transform>1,0,0,0,1,0,0,0,1&lt;/transform>
  &lt;/position>
  &lt;content line-spacing="0" shadow="0;#64000000;3;3;3" font-underline="0" box-height="276" font-outline-color="0,0,0,255" font="Cubano" letter-spacing="0" font-pixel-size="230" font-italic="0" typewriter="0;2;1;0;0" alignment="4" font-weight="50" font-outline="0" box-width="407.328" font-color="255,255,255,255">one&lt;/content>
 &lt;/item>
 &lt;startviewport rect="0,0,1920,1080"/>
 &lt;endviewport rect="0,0,1920,1080"/>
 &lt;background color="0,0,0,0"/>
&lt;/kdenlivetitle>
</property>
  <property name="kdenlive:folderid">21</property>
  <property name="kdenlive:id">277</property>
  <property name="kdenlive:clip_type">2</property>
  <property name="force_reload">0</property>
  <property name="meta.media.width">1920</property>
  <property name="meta.media.height">1080</property>
  <property name="kdenlive:file_hash">f187274aab695b8c790b9b0c0cf4c728</property>
 </producer>
 <producer id="producer213" in="00:00:00.000" out="00:00:04.960">
  <property name="length">125</property>
  <property name="eof">pause</property>
  <property name="progressive">1</property>
  <property name="aspect_ratio">1</property>
  <property name="seekable">1</property>
  <property name="mlt_service">kdenlivetitle</property>
  <property name="kdenlive:duration">00:00:05:00</property>
  <property name="kdenlive:clipname">might</property>
  <property name="xmldata">&lt;kdenlivetitle duration="125" LC_NUMERIC="C" width="1920" height="1080" out="124">
 &lt;item type="QGraphicsTextItem" z-index="0">
  &lt;position x="634" y="402">
   &lt;transform>1,0,0,0,1,0,0,0,1&lt;/transform>
  &lt;/position>
  &lt;content line-spacing="0" shadow="0;#64000000;3;3;3" font-underline="0" box-height="276" font="Cubano" letter-spacing="0" font-pixel-size="230" font-italic="0" typewriter="0;2;1;0;0" alignment="4" font-weight="50" box-width="651.797" font-color="255,255,255,255">might&lt;/content>
 &lt;/item>
 &lt;startviewport rect="0,0,1920,1080"/>
 &lt;endviewport rect="0,0,1920,1080"/>
 &lt;background color="0,0,0,0"/>
&lt;/kdenlivetitle>
</property>
  <property name="kdenlive:folderid">21</property>
  <property name="kdenlive:id">278</property>
  <property name="kdenlive:clip_type">2</property>
  <property name="force_reload">0</property>
  <property name="meta.media.width">1920</property>
  <property name="meta.media.height">1080</property>
  <property name="kdenlive:file_hash">b05b86f21fc5d83c80bc0a0bf2667f60</property>
 </producer>
 <producer id="producer214" in="00:00:00.000" out="00:00:04.960">
  <property name="length">125</property>
  <property name="eof">pause</property>
  <property name="progressive">1</property>
  <property name="aspect_ratio">1</property>
  <property name="seekable">1</property>
  <property name="mlt_service">kdenlivetitle</property>
  <property name="kdenlive:duration">00:00:05:00</property>
  <property name="kdenlive:clipname">term</property>
  <property name="xmldata">&lt;kdenlivetitle duration="125" LC_NUMERIC="C" width="1920" height="1080" out="124">
 &lt;item type="QGraphicsTextItem" z-index="0">
  &lt;position x="669" y="402">
   &lt;transform>1,0,0,0,1,0,0,0,1&lt;/transform>
  &lt;/position>
  &lt;content line-spacing="0" shadow="0;#64000000;3;3;3" font-underline="0" box-height="276" font="Cubano" letter-spacing="0" font-pixel-size="230" font-italic="0" typewriter="0;2;1;0;0" alignment="4" font-weight="50" box-width="582.797" font-color="255,255,255,255">term&lt;/content>
 &lt;/item>
 &lt;startviewport rect="0,0,1920,1080"/>
 &lt;endviewport rect="0,0,1920,1080"/>
 &lt;background color="0,0,0,0"/>
&lt;/kdenlivetitle>
</property>
  <property name="kdenlive:folderid">21</property>
  <property name="kdenlive:id">279</property>
  <property name="kdenlive:clip_type">2</property>
  <property name="force_reload">0</property>
  <property name="meta.media.width">1920</property>
  <property name="meta.media.height">1080</property>
  <property name="kdenlive:file_hash">bdf5f9781e8fe0c01d3c1efcb58a94a3</property>
 </producer>
 <producer id="producer215" in="00:00:00.000" out="00:00:04.960">
  <property name="length">125</property>
  <property name="eof">pause</property>
  <property name="progressive">1</property>
  <property name="aspect_ratio">1</property>
  <property name="seekable">1</property>
  <property name="mlt_service">kdenlivetitle</property>
  <property name="kdenlive:duration">00:00:05:00</property>
  <property name="kdenlive:clipname">it</property>
  <property name="xmldata">&lt;kdenlivetitle duration="125" LC_NUMERIC="C" width="1920" height="1080" out="124">
 &lt;item type="QGraphicsTextItem" z-index="0">
  &lt;position x="861" y="402">
   &lt;transform>1,0,0,0,1,0,0,0,1&lt;/transform>
  &lt;/position>
  &lt;content line-spacing="0" shadow="0;#64000000;3;3;3" font-underline="0" box-height="276" font="Cubano" letter-spacing="0" font-pixel-size="230" font-italic="0" typewriter="0;2;1;0;0" alignment="4" font-weight="50" box-width="198.25" font-color="255,255,255,255">it&lt;/content>
 &lt;/item>
 &lt;startviewport rect="0,0,1920,1080"/>
 &lt;endviewport rect="0,0,1920,1080"/>
 &lt;background color="0,0,0,0"/>
&lt;/kdenlivetitle>
</property>
  <property name="kdenlive:folderid">21</property>
  <property name="kdenlive:id">280</property>
  <property name="kdenlive:clip_type">2</property>
  <property name="force_reload">0</property>
  <property name="meta.media.width">1920</property>
  <property name="meta.media.height">1080</property>
  <property name="kdenlive:file_hash">7765dab099019c67d82d6fcc17d14a44</property>
 </producer>
 <producer id="producer216" in="00:00:00.000" out="00:00:04.960">
  <property name="length">125</property>
  <property name="eof">pause</property>
  <property name="progressive">1</property>
  <property name="aspect_ratio">1</property>
  <property name="seekable">1</property>
  <property name="mlt_service">kdenlivetitle</property>
  <property name="kdenlive:duration">00:00:05:00</property>
  <property name="kdenlive:clipname">is</property>
  <property name="xmldata">&lt;kdenlivetitle duration="125" LC_NUMERIC="C" width="1920" height="1080" out="124">
 &lt;item type="QGraphicsTextItem" z-index="0">
  &lt;position x="863" y="402">
   &lt;transform>1,0,0,0,1,0,0,0,1&lt;/transform>
  &lt;/position>
  &lt;content line-spacing="0" shadow="0;#64000000;3;3;3" font-underline="0" box-height="276" font="Cubano" letter-spacing="0" font-pixel-size="230" font-italic="0" typewriter="0;2;1;0;0" alignment="4" font-weight="50" box-width="193.641" font-color="255,255,255,255">is&lt;/content>
 &lt;/item>
 &lt;startviewport rect="0,0,1920,1080"/>
 &lt;endviewport rect="0,0,1920,1080"/>
 &lt;background color="0,0,0,0"/>
&lt;/kdenlivetitle>
</property>
  <property name="kdenlive:folderid">21</property>
  <property name="kdenlive:id">281</property>
  <property name="kdenlive:clip_type">2</property>
  <property name="force_reload">0</property>
  <property name="meta.media.width">1920</property>
  <property name="meta.media.height">1080</property>
  <property name="kdenlive:file_hash">ce9ab0212bd9c3cc8d66770b9b2e31fd</property>
 </producer>
 <producer id="producer217" in="00:00:00.000" out="00:00:04.960">
  <property name="length">125</property>
  <property name="eof">pause</property>
  <property name="progressive">1</property>
  <property name="aspect_ratio">1</property>
  <property name="seekable">1</property>
  <property name="mlt_service">kdenlivetitle</property>
  <property name="kdenlive:duration">00:00:05:00</property>
  <property name="kdenlive:clipname">evidently</property>
  <property name="xmldata">&lt;kdenlivetitle duration="125" LC_NUMERIC="C" width="1920" height="1080" out="124">
 &lt;item type="QGraphicsTextItem" z-index="0">
  &lt;position x="410" y="402">
   &lt;transform>1,0,0,0,1,0,0,0,1&lt;/transform>
  &lt;/position>
  &lt;content line-spacing="0" shadow="0;#64000000;3;3;3" font-underline="0" box-height="276" font="Cubano" letter-spacing="0" font-pixel-size="230" font-italic="0" typewriter="0;2;1;0;0" alignment="4" font-weight="50" box-width="1101.42" font-color="255,255,255,255">evidently&lt;/content>
 &lt;/item>
 &lt;startviewport rect="0,0,1920,1080"/>
 &lt;endviewport rect="0,0,1920,1080"/>
 &lt;background color="0,0,0,0"/>
&lt;/kdenlivetitle>
</property>
  <property name="kdenlive:folderid">21</property>
  <property name="kdenlive:id">282</property>
  <property name="kdenlive:clip_type">2</property>
  <property name="force_reload">0</property>
  <property name="meta.media.width">1920</property>
  <property name="meta.media.height">1080</property>
  <property name="kdenlive:file_hash">52d82d51975c018dc5eaa4d4dbcad756</property>
 </producer>
 <producer id="producer218" in="00:00:00.000" out="00:00:04.960">
  <property name="length">125</property>
  <property name="eof">pause</property>
  <property name="progressive">1</property>
  <property name="aspect_ratio">1</property>
  <property name="seekable">1</property>
  <property name="mlt_service">kdenlivetitle</property>
  <property name="kdenlive:duration">00:00:05:00</property>
  <property name="kdenlive:clipname">an</property>
  <property name="xmldata">&lt;kdenlivetitle duration="125" LC_NUMERIC="C" width="1920" height="1080" out="124">
 &lt;item type="QGraphicsTextItem" z-index="0">
  &lt;position x="821" y="402">
   &lt;transform>1,0,0,0,1,0,0,0,1&lt;/transform>
  &lt;/position>
  &lt;content line-spacing="0" shadow="0;#64000000;3;3;3" font-underline="0" box-height="276" font="Cubano" letter-spacing="0" font-pixel-size="230" font-italic="0" typewriter="0;2;1;0;0" alignment="4" font-weight="50" box-width="278.75" font-color="255,255,255,255">an&lt;/content>
 &lt;/item>
 &lt;startviewport rect="0,0,1920,1080"/>
 &lt;endviewport rect="0,0,1920,1080"/>
 &lt;background color="0,0,0,0"/>
&lt;/kdenlivetitle>
</property>
  <property name="kdenlive:folderid">21</property>
  <property name="kdenlive:id">283</property>
  <property name="kdenlive:clip_type">2</property>
  <property name="force_reload">0</property>
  <property name="meta.media.width">1920</property>
  <property name="meta.media.height">1080</property>
  <property name="kdenlive:file_hash">e3b1141bea45c7341aba690c589bc004</property>
 </producer>
 <producer id="producer219" in="00:00:00.000" out="00:00:04.960">
  <property name="length">125</property>
  <property name="eof">pause</property>
  <property name="progressive">1</property>
  <property name="aspect_ratio">1</property>
  <property name="seekable">1</property>
  <property name="mlt_service">kdenlivetitle</property>
  <property name="kdenlive:duration">00:00:05:00</property>
  <property name="kdenlive:clipname">accepted</property>
  <property name="xmldata">&lt;kdenlivetitle duration="125" LC_NUMERIC="C" width="1920" height="1080" out="124">
 &lt;item type="QGraphicsTextItem" z-index="0">
  &lt;position x="437" y="402">
   &lt;transform>1,0,0,0,1,0,0,0,1&lt;/transform>
  &lt;/position>
  &lt;content line-spacing="0" shadow="0;#64000000;3;3;3" font-underline="0" box-height="276" font="Cubano" letter-spacing="0" font-pixel-size="230" font-italic="0" typewriter="0;2;1;0;0" alignment="4" font-weight="50" box-width="1048.98" font-color="255,255,255,255">accepted&lt;/content>
 &lt;/item>
 &lt;startviewport rect="0,0,1920,1080"/>
 &lt;endviewport rect="0,0,1920,1080"/>
 &lt;background color="0,0,0,0"/>
&lt;/kdenlivetitle>
</property>
  <property name="kdenlive:folderid">21</property>
  <property name="kdenlive:id">284</property>
  <property name="kdenlive:clip_type">2</property>
  <property name="force_reload">0</property>
  <property name="meta.media.width">1920</property>
  <property name="meta.media.height">1080</property>
  <property name="kdenlive:file_hash">b3d378a3404322d127a63c9c35210544</property>
 </producer>
 <producer id="producer220" in="00:00:00.000" out="00:00:04.960">
  <property name="length">125</property>
  <property name="eof">pause</property>
  <property name="progressive">1</property>
  <property name="aspect_ratio">1</property>
  <property name="seekable">1</property>
  <property name="mlt_service">kdenlivetitle</property>
  <property name="kdenlive:duration">00:00:05:00</property>
  <property name="kdenlive:clipname">technique</property>
  <property name="xmldata">&lt;kdenlivetitle duration="125" LC_NUMERIC="C" width="1920" height="1080" out="124">
 &lt;item type="QGraphicsTextItem" z-index="0">
  &lt;position x="393" y="402">
   &lt;transform>1,0,0,0,1,0,0,0,1&lt;/transform>
  &lt;/position>
  &lt;content line-spacing="0" shadow="0;#64000000;3;3;3" font-underline="0" box-height="276" font="Cubano" letter-spacing="0" font-pixel-size="230" font-italic="0" typewriter="0;2;1;0;0" alignment="4" font-weight="50" box-width="1136.86" font-color="255,255,255,255">technique&lt;/content>
 &lt;/item>
 &lt;startviewport rect="0,0,1920,1080"/>
 &lt;endviewport rect="0,0,1920,1080"/>
 &lt;background color="0,0,0,0"/>
&lt;/kdenlivetitle>
</property>
  <property name="kdenlive:folderid">21</property>
  <property name="kdenlive:id">285</property>
  <property name="kdenlive:clip_type">2</property>
  <property name="force_reload">0</property>
  <property name="meta.media.width">1920</property>
  <property name="meta.media.height">1080</property>
  <property name="kdenlive:file_hash">51a4f79ba788fbc588fcc0f7d73ec735</property>
 </producer>
 <producer id="producer221" in="00:00:00.000" out="00:00:04.960">
  <property name="length">125</property>
  <property name="eof">pause</property>
  <property name="progressive">1</property>
  <property name="aspect_ratio">1</property>
  <property name="seekable">1</property>
  <property name="mlt_service">kdenlivetitle</property>
  <property name="kdenlive:duration">00:00:05:00</property>
  <property name="kdenlive:clipname">within</property>
  <property name="xmldata">&lt;kdenlivetitle duration="125" LC_NUMERIC="C" width="1920" height="1080" out="124">
 &lt;item type="QGraphicsTextItem" z-index="0">
  &lt;position x="596" y="402">
   &lt;transform>1,0,0,0,1,0,0,0,1&lt;/transform>
  &lt;/position>
  &lt;content line-spacing="0" shadow="0;#64000000;3;3;3" font-underline="0" box-height="276" font="Cubano" letter-spacing="0" font-pixel-size="230" font-italic="0" typewriter="0;2;1;0;0" alignment="4" font-weight="50" box-width="730" font-color="255,255,255,255">within&lt;/content>
 &lt;/item>
 &lt;startviewport rect="0,0,1920,1080"/>
 &lt;endviewport rect="0,0,1920,1080"/>
 &lt;background color="0,0,0,0"/>
&lt;/kdenlivetitle>
</property>
  <property name="kdenlive:folderid">21</property>
  <property name="kdenlive:id">286</property>
  <property name="kdenlive:clip_type">2</property>
  <property name="force_reload">0</property>
  <property name="meta.media.width">1920</property>
  <property name="meta.media.height">1080</property>
  <property name="kdenlive:file_hash">41261c3e9adee45f0cdeab73cc91ea91</property>
 </producer>
 <producer id="producer222" in="00:00:00.000" out="00:00:04.960">
  <property name="length">125</property>
  <property name="eof">pause</property>
  <property name="progressive">1</property>
  <property name="aspect_ratio">1</property>
  <property name="seekable">1</property>
  <property name="mlt_service">kdenlivetitle</property>
  <property name="kdenlive:duration">00:00:05:00</property>
  <property name="kdenlive:clipname">the</property>
  <property name="xmldata">&lt;kdenlivetitle duration="125" LC_NUMERIC="C" width="1920" height="1080" out="124">
 &lt;item type="QGraphicsTextItem" z-index="0">
  &lt;position x="760" y="402">
   &lt;transform>1,0,0,0,1,0,0,0,1&lt;/transform>
  &lt;/position>
  &lt;content line-spacing="0" shadow="0;#64000000;3;3;3" font-underline="0" box-height="276" font="Cubano" letter-spacing="0" font-pixel-size="230" font-italic="0" typewriter="0;2;1;0;0" alignment="4" font-weight="50" box-width="402.266" font-color="255,255,255,255">the&lt;/content>
 &lt;/item>
 &lt;startviewport rect="0,0,1920,1080"/>
 &lt;endviewport rect="0,0,1920,1080"/>
 &lt;background color="0,0,0,0"/>
&lt;/kdenlivetitle>
</property>
  <property name="kdenlive:folderid">21</property>
  <property name="kdenlive:id">287</property>
  <property name="kdenlive:clip_type">2</property>
  <property name="force_reload">0</property>
  <property name="meta.media.width">1920</property>
  <property name="meta.media.height">1080</property>
  <property name="kdenlive:file_hash">53022c3ef51da846439b4a1cbd7f11f6</property>
 </producer>
 <producer id="producer223" in="00:00:00.000" out="00:00:04.960">
  <property name="length">125</property>
  <property name="eof">pause</property>
  <property name="progressive">1</property>
  <property name="aspect_ratio">1</property>
  <property name="seekable">1</property>
  <property name="mlt_service">kdenlivetitle</property>
  <property name="kdenlive:duration">00:00:05:00</property>
  <property name="kdenlive:clipname">artistic</property>
  <property name="xmldata">&lt;kdenlivetitle duration="125" LC_NUMERIC="C" width="1920" height="1080" out="124">
 &lt;item type="QGraphicsTextItem" z-index="0">
  &lt;position x="501" y="402">
   &lt;transform>1,0,0,0,1,0,0,0,1&lt;/transform>
  &lt;/position>
  &lt;content line-spacing="0" shadow="0;#64000000;3;3;3" font-underline="0" box-height="276" font="Cubano" letter-spacing="0" font-pixel-size="230" font-italic="0" typewriter="0;2;1;0;0" alignment="4" font-weight="50" box-width="919.719" font-color="255,255,255,255">artistic&lt;/content>
 &lt;/item>
 &lt;startviewport rect="0,0,1920,1080"/>
 &lt;endviewport rect="0,0,1920,1080"/>
 &lt;background color="0,0,0,0"/>
&lt;/kdenlivetitle>
</property>
  <property name="kdenlive:folderid">21</property>
  <property name="kdenlive:id">288</property>
  <property name="kdenlive:clip_type">2</property>
  <property name="force_reload">0</property>
  <property name="meta.media.width">1920</property>
  <property name="meta.media.height">1080</property>
  <property name="kdenlive:file_hash">92e2f9215a8aa60421e223cf4b768103</property>
 </producer>
 <producer id="producer224" in="00:00:00.000" out="00:00:04.960">
  <property name="length">125</property>
  <property name="eof">pause</property>
  <property name="progressive">1</property>
  <property name="aspect_ratio">1</property>
  <property name="seekable">1</property>
  <property name="mlt_service">kdenlivetitle</property>
  <property name="kdenlive:duration">00:00:05:00</property>
  <property name="kdenlive:clipname">community</property>
  <property name="xmldata">&lt;kdenlivetitle duration="125" LC_NUMERIC="C" width="1920" height="1080" out="124">
 &lt;item type="QGraphicsTextItem" z-index="0">
  &lt;position x="338" y="402">
   &lt;transform>1,0,0,0,1,0,0,0,1&lt;/transform>
  &lt;/position>
  &lt;content line-spacing="0" shadow="0;#64000000;3;3;3" font-underline="0" box-height="276" font="Cubano" letter-spacing="0" font-pixel-size="230" font-italic="0" typewriter="0;2;1;0;0" alignment="4" font-weight="50" box-width="1244.48" font-color="255,255,255,255">community&lt;/content>
 &lt;/item>
 &lt;startviewport rect="0,0,1920,1080"/>
 &lt;endviewport rect="0,0,1920,1080"/>
 &lt;background color="0,0,0,0"/>
&lt;/kdenlivetitle>
</property>
  <property name="kdenlive:folderid">21</property>
  <property name="kdenlive:id">289</property>
  <property name="kdenlive:clip_type">2</property>
  <property name="force_reload">0</property>
  <property name="meta.media.width">1920</property>
  <property name="meta.media.height">1080</property>
  <property name="kdenlive:file_hash">77139196fb9394e74c24eca810fda191</property>
 </producer>
 <producer id="producer225" in="00:00:00.000" out="00:00:04.960">
  <property name="length">125</property>
  <property name="eof">pause</property>
  <property name="progressive">1</property>
  <property name="aspect_ratio">1</property>
  <property name="seekable">1</property>
  <property name="mlt_service">kdenlivetitle</property>
  <property name="kdenlive:duration">00:00:05:00</property>
  <property name="kdenlive:clipname">when</property>
  <property name="xmldata">&lt;kdenlivetitle duration="125" LC_NUMERIC="C" width="1920" height="1080" out="124">
 &lt;item type="QGraphicsTextItem" z-index="0">
  &lt;position x="661" y="402">
   &lt;transform>1,0,0,0,1,0,0,0,1&lt;/transform>
  &lt;/position>
  &lt;content line-spacing="0" shadow="0;#64000000;3;3;3" font-underline="0" box-height="276" font="Cubano" letter-spacing="0" font-pixel-size="230" font-italic="0" typewriter="0;2;1;0;0" alignment="4" font-weight="50" box-width="597.766" font-color="255,255,255,255">when&lt;/content>
 &lt;/item>
 &lt;startviewport rect="0,0,1920,1080"/>
 &lt;endviewport rect="0,0,1920,1080"/>
 &lt;background color="0,0,0,0"/>
&lt;/kdenlivetitle>
</property>
  <property name="kdenlive:folderid">21</property>
  <property name="kdenlive:id">290</property>
  <property name="kdenlive:clip_type">2</property>
  <property name="force_reload">0</property>
  <property name="meta.media.width">1920</property>
  <property name="meta.media.height">1080</property>
  <property name="kdenlive:file_hash">2de4b957d9f42f696afdb646efb57e69</property>
 </producer>
 <producer id="producer226" in="00:00:00.000" out="00:00:04.960">
  <property name="length">125</property>
  <property name="eof">pause</property>
  <property name="progressive">1</property>
  <property name="aspect_ratio">1</property>
  <property name="seekable">1</property>
  <property name="mlt_service">kdenlivetitle</property>
  <property name="kdenlive:duration">00:00:05:00</property>
  <property name="kdenlive:clipname">done</property>
  <property name="xmldata">&lt;kdenlivetitle duration="125" LC_NUMERIC="C" width="1920" height="1080" out="124">
 &lt;item type="QGraphicsTextItem" z-index="0">
  &lt;position x="688" y="402">
   &lt;transform>1,0,0,0,1,0,0,0,1&lt;/transform>
  &lt;/position>
  &lt;content line-spacing="0" shadow="0;#64000000;3;3;3" font-underline="0" box-height="276" font="Cubano" letter-spacing="0" font-pixel-size="230" font-italic="0" typewriter="0;2;1;0;0" alignment="4" font-weight="50" box-width="543.703" font-color="255,255,255,255">done&lt;/content>
 &lt;/item>
 &lt;startviewport rect="0,0,1920,1080"/>
 &lt;endviewport rect="0,0,1920,1080"/>
 &lt;background color="0,0,0,0"/>
&lt;/kdenlivetitle>
</property>
  <property name="kdenlive:folderid">21</property>
  <property name="kdenlive:id">291</property>
  <property name="kdenlive:clip_type">2</property>
  <property name="force_reload">0</property>
  <property name="meta.media.width">1920</property>
  <property name="meta.media.height">1080</property>
  <property name="kdenlive:file_hash">25bf73d3334c25df93b1f9d77dda6ae0</property>
 </producer>
 <producer id="producer227" in="00:00:00.000" out="00:00:04.960">
  <property name="length">125</property>
  <property name="eof">pause</property>
  <property name="progressive">1</property>
  <property name="aspect_ratio">1</property>
  <property name="seekable">1</property>
  <property name="mlt_service">kdenlivetitle</property>
  <property name="kdenlive:duration">00:00:05:00</property>
  <property name="kdenlive:clipname">by</property>
  <property name="xmldata">&lt;kdenlivetitle duration="125" LC_NUMERIC="C" width="1920" height="1080" out="124">
 &lt;item type="QGraphicsTextItem" z-index="0">
  &lt;position x="823" y="402">
   &lt;transform>1,0,0,0,1,0,0,0,1&lt;/transform>
  &lt;/position>
  &lt;content line-spacing="0" shadow="0;#64000000;3;3;3" font-underline="0" box-height="276" font="Cubano" letter-spacing="0" font-pixel-size="230" font-italic="0" typewriter="0;2;1;0;0" alignment="4" font-weight="50" box-width="272.984" font-color="255,255,255,255">by&lt;/content>
 &lt;/item>
 &lt;startviewport rect="0,0,1920,1080"/>
 &lt;endviewport rect="0,0,1920,1080"/>
 &lt;background color="0,0,0,0"/>
&lt;/kdenlivetitle>
</property>
  <property name="kdenlive:folderid">21</property>
  <property name="kdenlive:id">292</property>
  <property name="kdenlive:clip_type">2</property>
  <property name="force_reload">0</property>
  <property name="meta.media.width">1920</property>
  <property name="meta.media.height">1080</property>
  <property name="kdenlive:file_hash">179073d45f93003b12b2a74aa967d335</property>
 </producer>
 <producer id="producer228" in="00:00:00.000" out="00:00:04.960">
  <property name="length">125</property>
  <property name="eof">pause</property>
  <property name="progressive">1</property>
  <property name="aspect_ratio">1</property>
  <property name="seekable">1</property>
  <property name="mlt_service">kdenlivetitle</property>
  <property name="kdenlive:duration">00:00:05:00</property>
  <property name="kdenlive:clipname">human</property>
  <property name="xmldata">&lt;kdenlivetitle duration="125" LC_NUMERIC="C" width="1920" height="1080" out="124">
 &lt;item type="QGraphicsTextItem" z-index="0">
  &lt;position x="591" y="402">
   &lt;transform>1,0,0,0,1,0,0,0,1&lt;/transform>
  &lt;/position>
  &lt;content line-spacing="0" shadow="0;#64000000;3;3;3" font-underline="0" box-height="276" font="Cubano" letter-spacing="0" font-pixel-size="230" font-italic="0" typewriter="0;2;1;0;0" alignment="4" font-weight="50" box-width="734.594" font-color="255,255,255,255">human&lt;/content>
 &lt;/item>
 &lt;startviewport rect="0,0,1920,1080"/>
 &lt;endviewport rect="0,0,1920,1080"/>
 &lt;background color="0,0,0,0"/>
&lt;/kdenlivetitle>
</property>
  <property name="kdenlive:folderid">21</property>
  <property name="kdenlive:id">293</property>
  <property name="kdenlive:clip_type">2</property>
  <property name="force_reload">0</property>
  <property name="meta.media.width">1920</property>
  <property name="meta.media.height">1080</property>
  <property name="kdenlive:file_hash">49bc68c02145e0bd7fa0239c0552cbbd</property>
 </producer>
 <producer id="producer229" in="00:00:00.000" out="00:00:04.960">
  <property name="length">125</property>
  <property name="eof">pause</property>
  <property name="progressive">1</property>
  <property name="aspect_ratio">1</property>
  <property name="seekable">1</property>
  <property name="mlt_service">kdenlivetitle</property>
  <property name="kdenlive:duration">00:00:05:00</property>
  <property name="kdenlive:clipname">artists</property>
  <property name="xmldata">&lt;kdenlivetitle duration="125" LC_NUMERIC="C" width="1920" height="1080" out="124">
 &lt;item type="QGraphicsTextItem" z-index="0">
  &lt;position x="532" y="402">
   &lt;transform>1,0,0,0,1,0,0,0,1&lt;/transform>
  &lt;/position>
  &lt;content line-spacing="0" shadow="0;#64000000;3;3;3" font-underline="0" box-height="276" font="Cubano" letter-spacing="0" font-pixel-size="230" font-italic="0" typewriter="0;2;1;0;0" alignment="4" font-weight="50" box-width="853.469" font-color="255,255,255,255">artists&lt;/content>
 &lt;/item>
 &lt;startviewport rect="0,0,1920,1080"/>
 &lt;endviewport rect="0,0,1920,1080"/>
 &lt;background color="0,0,0,0"/>
&lt;/kdenlivetitle>
</property>
  <property name="kdenlive:folderid">21</property>
  <property name="kdenlive:id">294</property>
  <property name="kdenlive:clip_type">2</property>
  <property name="force_reload">0</property>
  <property name="meta.media.width">1920</property>
  <property name="meta.media.height">1080</property>
  <property name="kdenlive:file_hash">b0ca2a67288e4282a3a9976b483d1002</property>
 </producer>
 <producer id="producer238" in="00:00:00.000" out="00:00:13.240">
  <property name="length">332</property>
  <property name="eof">pause</property>
  <property name="progressive">1</property>
  <property name="aspect_ratio">1</property>
  <property name="seekable">1</property>
  <property name="mlt_service">kdenlivetitle</property>
  <property name="kdenlive:duration">00:00:05:00</property>
  <property name="kdenlive:clipname">"Ai Imgage G...</property>
  <property name="xmldata">&lt;kdenlivetitle duration="125" LC_NUMERIC="C" width="1920" height="1080" out="124">
 &lt;item type="QGraphicsTextItem" z-index="0">
  &lt;position x="217" y="427">
   &lt;transform>1,0,0,0,1,0,0,0,1&lt;/transform>
  &lt;/position>
  &lt;content line-spacing="0" shadow="0;#64000000;3;3;3" font-underline="0" box-height="226" font="Cubano" letter-spacing="0" font-pixel-size="94" font-italic="0" typewriter="0;2;1;0;0" alignment="4" font-weight="50" box-width="1484.52" font-color="255,255,255,255">"Ai Image Generators plagiarise
the work of artists"&lt;/content>
 &lt;/item>
 &lt;startviewport rect="0,0,1920,1080"/>
 &lt;endviewport rect="0,0,1920,1080"/>
 &lt;background color="0,0,0,0"/>
&lt;/kdenlivetitle>
</property>
  <property name="kdenlive:folderid">21</property>
  <property name="kdenlive:id">295</property>
  <property name="kdenlive:clip_type">2</property>
  <property name="force_reload">0</property>
  <property name="meta.media.width">1920</property>
  <property name="meta.media.height">1080</property>
  <property name="kdenlive:file_hash">a3c4e4abbbd094d34077c0d4e5f4fca5</property>
 </producer>
 <producer id="producer266" in="00:00:00.000" out="00:00:21.120">
  <property name="length">529</property>
  <property name="eof">pause</property>
  <property name="progressive">1</property>
  <property name="aspect_ratio">1</property>
  <property name="seekable">1</property>
  <property name="mlt_service">kdenlivetitle</property>
  <property name="kdenlive:duration">00:00:05:00</property>
  <property name="kdenlive:clipname">"the softwar...</property>
  <property name="xmldata">&lt;kdenlivetitle duration="125" LC_NUMERIC="C" width="1920" height="1080" out="124">
 &lt;item type="QGraphicsTextItem" z-index="0">
  &lt;position x="296" y="176">
   &lt;transform>1,0,0,0,1,0,0,0,1&lt;/transform>
  &lt;/position>
  &lt;content line-spacing="0" shadow="0;#64000000;3;3;3" font-underline="0" box-height="728" font-outline-color="0,0,0,255" font="Cubano" letter-spacing="0" font-pixel-size="76" font-italic="0" typewriter="0;2;1;0;0" alignment="4" font-weight="50" font-outline="4" box-width="1328.23" font-color="255,255,255,255">"the software [...] breaks down all
of the data [that was] gathered
and shreds it apart into little [...]
bits of noise, and [...] it starts
grabbing little bits of shredded
data from all over the place and
[...] slowly re-integrates it to
pretty much create a new image."&lt;/content>
 &lt;/item>
 &lt;startviewport rect="0,0,1920,1080"/>
 &lt;endviewport rect="0,0,1920,1080"/>
 &lt;background color="0,0,0,0"/>
&lt;/kdenlivetitle>
</property>
  <property name="kdenlive:folderid">21</property>
  <property name="kdenlive:id">296</property>
  <property name="kdenlive:clip_type">2</property>
  <property name="force_reload">0</property>
  <property name="meta.media.width">1920</property>
  <property name="meta.media.height">1080</property>
  <property name="kdenlive:file_hash">eefd0cae016f5d3c3f8779f86f427459</property>
 </producer>
 <producer id="producer270" in="00:00:00.000" out="00:00:19.680">
  <property name="length">00:00:19.720</property>
  <property name="eof">pause</property>
  <property name="resource">/home/liquidzulu/Pictures/yt/animation/output/project/footnotes/footnote-2/.all.png</property>
  <property name="ttl">1</property>
  <property name="aspect_ratio">1</property>
  <property name="progressive">1</property>
  <property name="seekable">1</property>
  <property name="format">2</property>
  <property name="meta.media.width">1920</property>
  <property name="meta.media.height">1080</property>
  <property name="mlt_service">qimage</property>
  <property name="kdenlive:clipname">footnote-2</property>
  <property name="low-pass">0</property>
  <property name="animation"/>
  <property name="luma_file"/>
  <property name="luma_duration">25</property>
  <property name="fade">0</property>
  <property name="crop">0</property>
  <property name="softness">0</property>
  <property name="loop">0</property>
  <property name="kdenlive:duration">00:00:19:18</property>
  <property name="kdenlive:folderid">273</property>
  <property name="kdenlive:id">297</property>
  <property name="kdenlive:clip_type">2</property>
  <property name="kdenlive:file_hash">13b60ffc0f1c33047118e3fea4153a98</property>
 </producer>
 <producer id="producer240" in="00:00:00.000" out="00:00:04.960">
  <property name="length">00:00:05.000</property>
  <property name="eof">pause</property>
  <property name="resource">thumb/thumb2-0.png</property>
  <property name="ttl">25</property>
  <property name="aspect_ratio">1</property>
  <property name="progressive">1</property>
  <property name="seekable">1</property>
  <property name="format">2</property>
  <property name="meta.media.width">1920</property>
  <property name="meta.media.height">1080</property>
  <property name="mlt_service">qimage</property>
  <property name="kdenlive:clipname"/>
  <property name="kdenlive:duration">00:00:05:00</property>
  <property name="kdenlive:folderid">28</property>
  <property name="kdenlive:id">298</property>
  <property name="kdenlive:clip_type">2</property>
  <property name="kdenlive:file_size">1764209</property>
  <property name="kdenlive:file_hash">c06e6363f3596a9d0b02d880e980d953</property>
 </producer>
 <producer id="producer246" in="00:00:00.000" out="00:00:04.960">
  <property name="length">125</property>
  <property name="eof">pause</property>
  <property name="progressive">1</property>
  <property name="aspect_ratio">1</property>
  <property name="seekable">1</property>
  <property name="mlt_service">kdenlivetitle</property>
  <property name="kdenlive:duration">00:00:05:00</property>
  <property name="kdenlive:clipname">all</property>
  <property name="xmldata">&lt;kdenlivetitle duration="125" LC_NUMERIC="C" width="1920" height="1080" out="124">
 &lt;item type="QGraphicsTextItem" z-index="0">
  &lt;position x="775" y="402">
   &lt;transform>1,0,0,0,1,0,0,0,1&lt;/transform>
  &lt;/position>
  &lt;content line-spacing="0" shadow="0;#64000000;3;3;3" font-underline="0" box-height="276" font-outline-color="0,0,0,255" font="Cubano" letter-spacing="0" font-pixel-size="230" font-italic="0" typewriter="0;2;1;0;0" alignment="4" font-weight="50" font-outline="0" box-width="371.203" font-color="255,255,255,255">all&lt;/content>
 &lt;/item>
 &lt;startviewport rect="0,0,1920,1080"/>
 &lt;endviewport rect="0,0,1920,1080"/>
 &lt;background color="0,0,0,0"/>
&lt;/kdenlivetitle>
</property>
  <property name="kdenlive:folderid">21</property>
  <property name="kdenlive:id">299</property>
  <property name="kdenlive:clip_type">2</property>
  <property name="force_reload">0</property>
  <property name="meta.media.width">1920</property>
  <property name="meta.media.height">1080</property>
  <property name="kdenlive:file_hash">12e5ba7fa5f3251110b8aee6018b3905</property>
 </producer>
 <producer id="producer271" in="00:00:00.000" out="00:00:04.960">
  <property name="length">125</property>
  <property name="eof">pause</property>
  <property name="progressive">1</property>
  <property name="aspect_ratio">1</property>
  <property name="seekable">1</property>
  <property name="mlt_service">kdenlivetitle</property>
  <property name="kdenlive:duration">00:00:05:00</property>
  <property name="kdenlive:clipname">that</property>
  <property name="xmldata">&lt;kdenlivetitle duration="125" LC_NUMERIC="C" width="1920" height="1080" out="124">
 &lt;item type="QGraphicsTextItem" z-index="0">
  &lt;position x="691" y="402">
   &lt;transform>1,0,0,0,1,0,0,0,1&lt;/transform>
  &lt;/position>
  &lt;content line-spacing="0" shadow="0;#64000000;3;3;3" font-underline="0" box-height="276" font="Cubano" letter-spacing="0" font-pixel-size="230" font-italic="0" typewriter="0;2;1;0;0" alignment="4" font-weight="50" box-width="539.109" font-color="255,255,255,255">that&lt;/content>
 &lt;/item>
 &lt;startviewport rect="0,0,1920,1080"/>
 &lt;endviewport rect="0,0,1920,1080"/>
 &lt;background color="0,0,0,0"/>
&lt;/kdenlivetitle>
</property>
  <property name="kdenlive:folderid">21</property>
  <property name="kdenlive:id">300</property>
  <property name="kdenlive:clip_type">2</property>
  <property name="force_reload">0</property>
  <property name="meta.media.width">1920</property>
  <property name="meta.media.height">1080</property>
  <property name="kdenlive:file_hash">44f7e0872d397cccd882a36b1009e179</property>
 </producer>
 <producer id="producer249" in="00:00:00.000" out="00:00:04.960">
  <property name="length">125</property>
  <property name="eof">pause</property>
  <property name="progressive">1</property>
  <property name="aspect_ratio">1</property>
  <property name="seekable">1</property>
  <property name="mlt_service">kdenlivetitle</property>
  <property name="kdenlive:duration">00:00:05:00</property>
  <property name="kdenlive:clipname">model</property>
  <property name="xmldata">&lt;kdenlivetitle duration="125" LC_NUMERIC="C" width="1920" height="1080" out="124">
 &lt;item type="QGraphicsTextItem" z-index="0">
  &lt;position x="612" y="402">
   &lt;transform>1,0,0,0,1,0,0,0,1&lt;/transform>
  &lt;/position>
  &lt;content line-spacing="0" shadow="0;#64000000;3;3;3" font-underline="0" box-height="276" font="Cubano" letter-spacing="0" font-pixel-size="230" font-italic="0" typewriter="0;2;1;0;0" alignment="4" font-weight="50" box-width="699.406" font-color="255,255,255,255">model&lt;/content>
 &lt;/item>
 &lt;startviewport rect="0,0,1920,1080"/>
 &lt;endviewport rect="0,0,1920,1080"/>
 &lt;background color="0,0,0,0"/>
&lt;/kdenlivetitle>
</property>
  <property name="kdenlive:folderid">21</property>
  <property name="kdenlive:id">301</property>
  <property name="kdenlive:clip_type">2</property>
  <property name="force_reload">0</property>
  <property name="meta.media.width">1920</property>
  <property name="meta.media.height">1080</property>
  <property name="kdenlive:file_hash">455a16cc819472e5949f301ef32d0414</property>
 </producer>
 <producer id="producer250" in="00:00:00.000" out="00:00:04.960">
  <property name="length">125</property>
  <property name="eof">pause</property>
  <property name="progressive">1</property>
  <property name="aspect_ratio">1</property>
  <property name="seekable">1</property>
  <property name="mlt_service">kdenlivetitle</property>
  <property name="kdenlive:duration">00:00:05:00</property>
  <property name="kdenlive:clipname">stores</property>
  <property name="xmldata">&lt;kdenlivetitle duration="125" LC_NUMERIC="C" width="1920" height="1080" out="124">
 &lt;item type="QGraphicsTextItem" z-index="0">
  &lt;position x="568" y="402">
   &lt;transform>1,0,0,0,1,0,0,0,1&lt;/transform>
  &lt;/position>
  &lt;content line-spacing="0" shadow="0;#64000000;3;3;3" font-underline="0" box-height="276" font="Cubano" letter-spacing="0" font-pixel-size="230" font-italic="0" typewriter="0;2;1;0;0" alignment="4" font-weight="50" box-width="788.406" font-color="255,255,255,255">stores&lt;/content>
 &lt;/item>
 &lt;startviewport rect="0,0,1920,1080"/>
 &lt;endviewport rect="0,0,1920,1080"/>
 &lt;background color="0,0,0,0"/>
&lt;/kdenlivetitle>
</property>
  <property name="kdenlive:folderid">21</property>
  <property name="kdenlive:id">302</property>
  <property name="kdenlive:clip_type">2</property>
  <property name="force_reload">0</property>
  <property name="meta.media.width">1920</property>
  <property name="meta.media.height">1080</property>
  <property name="kdenlive:file_hash">c126c9c54bb7bf8e683dd190cd25a6c3</property>
 </producer>
 <producer id="producer255" in="00:00:00.000" out="00:00:04.960">
  <property name="length">125</property>
  <property name="eof">pause</property>
  <property name="progressive">1</property>
  <property name="aspect_ratio">1</property>
  <property name="seekable">1</property>
  <property name="mlt_service">kdenlivetitle</property>
  <property name="kdenlive:duration">00:00:05:00</property>
  <property name="kdenlive:clipname">method</property>
  <property name="xmldata">&lt;kdenlivetitle duration="125" LC_NUMERIC="C" width="1920" height="1080" out="124">
 &lt;item type="QGraphicsTextItem" z-index="0">
  &lt;position x="533" y="402">
   &lt;transform>1,0,0,0,1,0,0,0,1&lt;/transform>
  &lt;/position>
  &lt;content line-spacing="0" shadow="0;#64000000;3;3;3" font-underline="0" box-height="276" font="Cubano" letter-spacing="0" font-pixel-size="230" font-italic="0" typewriter="0;2;1;0;0" alignment="4" font-weight="50" box-width="856.953" font-color="255,255,255,255">method&lt;/content>
 &lt;/item>
 &lt;startviewport rect="0,0,1920,1080"/>
 &lt;endviewport rect="0,0,1920,1080"/>
 &lt;background color="0,0,0,0"/>
&lt;/kdenlivetitle>
</property>
  <property name="kdenlive:folderid">21</property>
  <property name="kdenlive:id">303</property>
  <property name="kdenlive:clip_type">2</property>
  <property name="force_reload">0</property>
  <property name="meta.media.width">1920</property>
  <property name="meta.media.height">1080</property>
  <property name="kdenlive:file_hash">84a82ec047c6fe7b0a735d1975c1c6c9</property>
 </producer>
 <producer id="producer256" in="00:00:00.000" out="00:00:04.960">
  <property name="length">125</property>
  <property name="eof">pause</property>
  <property name="progressive">1</property>
  <property name="aspect_ratio">1</property>
  <property name="seekable">1</property>
  <property name="mlt_service">kdenlivetitle</property>
  <property name="kdenlive:duration">00:00:05:00</property>
  <property name="kdenlive:clipname">used</property>
  <property name="xmldata">&lt;kdenlivetitle duration="125" LC_NUMERIC="C" width="1920" height="1080" out="124">
 &lt;item type="QGraphicsTextItem" z-index="0">
  &lt;position x="696" y="402">
   &lt;transform>1,0,0,0,1,0,0,0,1&lt;/transform>
  &lt;/position>
  &lt;content line-spacing="0" shadow="0;#64000000;3;3;3" font-underline="0" box-height="276" font="Cubano" letter-spacing="0" font-pixel-size="230" font-italic="0" typewriter="0;2;1;0;0" alignment="4" font-weight="50" box-width="531.719" font-color="255,255,255,255">used&lt;/content>
 &lt;/item>
 &lt;startviewport rect="0,0,1920,1080"/>
 &lt;endviewport rect="0,0,1920,1080"/>
 &lt;background color="0,0,0,0"/>
&lt;/kdenlivetitle>
</property>
  <property name="kdenlive:folderid">21</property>
  <property name="kdenlive:id">304</property>
  <property name="kdenlive:clip_type">2</property>
  <property name="force_reload">0</property>
  <property name="meta.media.width">1920</property>
  <property name="meta.media.height">1080</property>
  <property name="kdenlive:file_hash">2353bc6f5bfbeafa4a79688a281457f4</property>
 </producer>
 <producer id="producer257" in="00:00:00.000" out="00:00:04.960">
  <property name="length">125</property>
  <property name="eof">pause</property>
  <property name="progressive">1</property>
  <property name="aspect_ratio">1</property>
  <property name="seekable">1</property>
  <property name="mlt_service">kdenlivetitle</property>
  <property name="kdenlive:duration">00:00:05:00</property>
  <property name="kdenlive:clipname">to</property>
  <property name="xmldata">&lt;kdenlivetitle duration="125" LC_NUMERIC="C" width="1920" height="1080" out="124">
 &lt;item type="QGraphicsTextItem" z-index="0">
  &lt;position x="826" y="402">
   &lt;transform>1,0,0,0,1,0,0,0,1&lt;/transform>
  &lt;/position>
  &lt;content line-spacing="0" shadow="0;#64000000;3;3;3" font-underline="0" box-height="276" font="Cubano" letter-spacing="0" font-pixel-size="230" font-italic="0" typewriter="0;2;1;0;0" alignment="4" font-weight="50" box-width="267.719" font-color="255,255,255,255">to&lt;/content>
 &lt;/item>
 &lt;startviewport rect="0,0,1920,1080"/>
 &lt;endviewport rect="0,0,1920,1080"/>
 &lt;background color="0,0,0,0"/>
&lt;/kdenlivetitle>
</property>
  <property name="kdenlive:folderid">21</property>
  <property name="kdenlive:id">305</property>
  <property name="kdenlive:clip_type">2</property>
  <property name="force_reload">0</property>
  <property name="meta.media.width">1920</property>
  <property name="meta.media.height">1080</property>
  <property name="kdenlive:file_hash">288c004bf8c59f20b88f564ac67cee65</property>
 </producer>
 <producer id="producer258" in="00:00:00.000" out="00:00:04.960">
  <property name="length">125</property>
  <property name="eof">pause</property>
  <property name="progressive">1</property>
  <property name="aspect_ratio">1</property>
  <property name="seekable">1</property>
  <property name="mlt_service">kdenlivetitle</property>
  <property name="kdenlive:duration">00:00:05:00</property>
  <property name="kdenlive:clipname">fill</property>
  <property name="xmldata">&lt;kdenlivetitle duration="125" LC_NUMERIC="C" width="1920" height="1080" out="124">
 &lt;item type="QGraphicsTextItem" z-index="0">
  &lt;position x="751" y="402">
   &lt;transform>1,0,0,0,1,0,0,0,1&lt;/transform>
  &lt;/position>
  &lt;content line-spacing="0" shadow="0;#64000000;3;3;3" font-underline="0" box-height="276" font="Cubano" letter-spacing="0" font-pixel-size="230" font-italic="0" typewriter="0;2;1;0;0" alignment="4" font-weight="50" box-width="426.406" font-color="255,255,255,255">fill&lt;/content>
 &lt;/item>
 &lt;startviewport rect="0,0,1920,1080"/>
 &lt;endviewport rect="0,0,1920,1080"/>
 &lt;background color="0,0,0,0"/>
&lt;/kdenlivetitle>
</property>
  <property name="kdenlive:folderid">21</property>
  <property name="kdenlive:id">306</property>
  <property name="kdenlive:clip_type">2</property>
  <property name="force_reload">0</property>
  <property name="meta.media.width">1920</property>
  <property name="meta.media.height">1080</property>
  <property name="kdenlive:file_hash">dd5157d5df57e62044853f15ecfff1b4</property>
 </producer>
 <producer id="producer259" in="00:00:00.000" out="00:00:04.960">
  <property name="length">125</property>
  <property name="eof">pause</property>
  <property name="progressive">1</property>
  <property name="aspect_ratio">1</property>
  <property name="seekable">1</property>
  <property name="mlt_service">kdenlivetitle</property>
  <property name="kdenlive:duration">00:00:05:00</property>
  <property name="kdenlive:clipname">in</property>
  <property name="xmldata">&lt;kdenlivetitle duration="125" LC_NUMERIC="C" width="1920" height="1080" out="124">
 &lt;item type="QGraphicsTextItem" z-index="0">
  &lt;position x="856" y="402">
   &lt;transform>1,0,0,0,1,0,0,0,1&lt;/transform>
  &lt;/position>
  &lt;content line-spacing="0" shadow="0;#64000000;3;3;3" font-underline="0" box-height="276" font="Cubano" letter-spacing="0" font-pixel-size="230" font-italic="0" typewriter="0;2;1;0;0" alignment="4" font-weight="50" box-width="207.453" font-color="255,255,255,255">in&lt;/content>
 &lt;/item>
 &lt;startviewport rect="0,0,1920,1080"/>
 &lt;endviewport rect="0,0,1920,1080"/>
 &lt;background color="0,0,0,0"/>
&lt;/kdenlivetitle>
</property>
  <property name="kdenlive:folderid">21</property>
  <property name="kdenlive:id">307</property>
  <property name="kdenlive:clip_type">2</property>
  <property name="force_reload">0</property>
  <property name="meta.media.width">1920</property>
  <property name="meta.media.height">1080</property>
  <property name="kdenlive:file_hash">e700e0c8c4bb3bd6faa5a54f6ea44822</property>
 </producer>
 <producer id="producer260" in="00:00:00.000" out="00:00:04.960">
  <property name="length">125</property>
  <property name="eof">pause</property>
  <property name="progressive">1</property>
  <property name="aspect_ratio">1</property>
  <property name="seekable">1</property>
  <property name="mlt_service">kdenlivetitle</property>
  <property name="kdenlive:duration">00:00:05:00</property>
  <property name="kdenlive:clipname">blanks</property>
  <property name="xmldata">&lt;kdenlivetitle duration="125" LC_NUMERIC="C" width="1920" height="1080" out="124">
 &lt;item type="QGraphicsTextItem" z-index="0">
  &lt;position x="558" y="402">
   &lt;transform>1,0,0,0,1,0,0,0,1&lt;/transform>
  &lt;/position>
  &lt;content line-spacing="0" shadow="0;#64000000;3;3;3" font-underline="0" box-height="276" font="Cubano" letter-spacing="0" font-pixel-size="230" font-italic="0" typewriter="0;2;1;0;0" alignment="4" font-weight="50" box-width="807.25" font-color="255,255,255,255">blanks&lt;/content>
 &lt;/item>
 &lt;startviewport rect="0,0,1920,1080"/>
 &lt;endviewport rect="0,0,1920,1080"/>
 &lt;background color="0,0,0,0"/>
&lt;/kdenlivetitle>
</property>
  <property name="kdenlive:folderid">21</property>
  <property name="kdenlive:id">308</property>
  <property name="kdenlive:clip_type">2</property>
  <property name="force_reload">0</property>
  <property name="meta.media.width">1920</property>
  <property name="meta.media.height">1080</property>
  <property name="kdenlive:file_hash">e4c2f8364bd4d585812bd7bf66c2b3d7</property>
 </producer>
 <chain id="chain69" out="00:02:01.520">
  <property name="length">3039</property>
  <property name="eof">pause</property>
  <property name="resource">/home/liquidzulu/Music/lemmino/Encounters [885936550].flac</property>
  <property name="mlt_service">avformat</property>
  <property name="meta.media.nb_streams">1</property>
  <property name="meta.media.0.stream.type">audio</property>
  <property name="meta.media.0.codec.sample_fmt">s16</property>
  <property name="meta.media.0.codec.sample_rate">48000</property>
  <property name="meta.media.0.codec.channels">2</property>
  <property name="meta.media.0.codec.name">flac</property>
  <property name="meta.media.0.codec.long_name">FLAC (Free Lossless Audio Codec)</property>
  <property name="meta.media.0.codec.bit_rate">0</property>
  <property name="seekable">1</property>
  <property name="audio_index">0</property>
  <property name="video_index">-1</property>
  <property name="kdenlive:clipname"/>
  <property name="kdenlive:clip_type">1</property>
  <property name="kdenlive:folderid">5</property>
  <property name="kdenlive:id">309</property>
  <property name="kdenlive:file_size">8342133</property>
  <property name="kdenlive:file_hash">e7ab0a022df4ee4ba8c33a567aef5c8c</property>
  <property name="kdenlive:audio_max0">256</property>
  <property name="mute_on_pause">1</property>
 </chain>
 <chain id="chain70" out="00:00:02.600">
  <property name="length">66</property>
  <property name="eof">pause</property>
  <property name="resource">b-roll/Windows folder animation [lQkJhCfk_Oo].webm</property>
  <property name="mlt_service">avformat-novalidate</property>
  <property name="meta.media.nb_streams">2</property>
  <property name="meta.media.0.stream.type">video</property>
  <property name="meta.media.0.stream.frame_rate">10</property>
  <property name="meta.media.0.stream.sample_aspect_ratio">1</property>
  <property name="meta.media.0.codec.width">272</property>
  <property name="meta.media.0.codec.height">60</property>
  <property name="meta.media.0.codec.rotate">0</property>
  <property name="meta.media.0.codec.pix_fmt">yuv420p</property>
  <property name="meta.media.0.codec.sample_aspect_ratio">0</property>
  <property name="meta.media.0.codec.colorspace">601</property>
  <property name="meta.media.0.codec.name">vp9</property>
  <property name="meta.media.0.codec.long_name">Google VP9</property>
  <property name="meta.media.0.codec.bit_rate">0</property>
  <property name="meta.attr.0.stream.HANDLER_NAME.markup">ISO Media file produced by Google Inc. Created on: 12/11/2023.</property>
  <property name="meta.attr.0.stream.VENDOR_ID.markup">[0][0][0][0]</property>
  <property name="meta.attr.0.stream.DURATION.markup">00:00:02.600000000</property>
  <property name="meta.media.1.stream.type">audio</property>
  <property name="meta.media.1.codec.sample_fmt">fltp</property>
  <property name="meta.media.1.codec.sample_rate">48000</property>
  <property name="meta.media.1.codec.channels">2</property>
  <property name="meta.media.1.codec.name">opus</property>
  <property name="meta.media.1.codec.long_name">Opus</property>
  <property name="meta.media.1.codec.bit_rate">0</property>
  <property name="meta.attr.1.stream.language.markup">eng</property>
  <property name="meta.attr.1.stream.DURATION.markup">00:00:02.621000000</property>
  <property name="meta.attr.COMPATIBLE_BRANDS.markup">iso6mp41</property>
  <property name="meta.attr.MAJOR_BRAND.markup">dash</property>
  <property name="meta.attr.MINOR_VERSION.markup">0</property>
  <property name="meta.attr.ENCODER.markup">Lavf59.27.100</property>
  <property name="seekable">1</property>
  <property name="meta.media.sample_aspect_num">1</property>
  <property name="meta.media.sample_aspect_den">1</property>
  <property name="format">3</property>
  <property name="audio_index">-1</property>
  <property name="video_index">0</property>
  <property name="meta.media.frame_rate_num">10</property>
  <property name="meta.media.frame_rate_den">1</property>
  <property name="meta.media.colorspace">601</property>
  <property name="meta.media.color_trc">2</property>
  <property name="meta.media.has_b_frames">0</property>
  <property name="meta.media.width">272</property>
  <property name="meta.media.height">60</property>
  <property name="meta.media.color_range">mpeg</property>
  <property name="kdenlive:clipname"/>
  <property name="meta.media.top_field_first">0</property>
  <property name="meta.media.progressive">1</property>
  <property name="kdenlive:clip_type">0</property>
  <property name="kdenlive:folderid">14</property>
  <property name="kdenlive:id">310</property>
  <property name="kdenlive:file_size">6230</property>
  <property name="kdenlive:file_hash">711b538137da300d742a81ee77f33e7d</property>
  <property name="kdenlive:audio_max1">1</property>
  <property name="kdenlive:active_streams">-1</property>
  <property name="set.test_audio">1</property>
  <property name="mute_on_pause">1</property>
 </chain>
 <producer id="producer261" in="00:00:00.000" out="00:00:06.520">
  <property name="length">164</property>
  <property name="eof">pause</property>
  <property name="resource">images/dall-e.png</property>
  <property name="ttl">25</property>
  <property name="aspect_ratio">1</property>
  <property name="progressive">1</property>
  <property name="seekable">1</property>
  <property name="format">1</property>
  <property name="meta.media.width">1277</property>
  <property name="meta.media.height">888</property>
  <property name="mlt_service">qimage</property>
  <property name="kdenlive:clipname"/>
  <property name="kdenlive:duration">00:00:05:00</property>
  <property name="kdenlive:folderid">28</property>
  <property name="kdenlive:id">311</property>
  <property name="kdenlive:clip_type">2</property>
  <property name="kdenlive:file_size">52735</property>
  <property name="kdenlive:file_hash">71124df6aa66201750f9a726ad6ed7e1</property>
 </producer>
 <producer id="producer264" in="00:00:00.000" out="00:00:05.920">
  <property name="length">149</property>
  <property name="eof">pause</property>
  <property name="resource">images/midjourney.png</property>
  <property name="ttl">25</property>
  <property name="aspect_ratio">1</property>
  <property name="progressive">1</property>
  <property name="seekable">1</property>
  <property name="format">1</property>
  <property name="meta.media.width">1274</property>
  <property name="meta.media.height">889</property>
  <property name="mlt_service">qimage</property>
  <property name="kdenlive:clipname"/>
  <property name="kdenlive:duration">00:00:05:00</property>
  <property name="kdenlive:folderid">28</property>
  <property name="kdenlive:id">312</property>
  <property name="kdenlive:clip_type">2</property>
  <property name="kdenlive:file_size">697286</property>
  <property name="kdenlive:file_hash">ef99811c4a83f8bea8b2bd95deefced6</property>
 </producer>
 <producer id="producer294" in="00:00:00.000" out="00:00:06.200">
  <property name="length">156</property>
  <property name="eof">pause</property>
  <property name="resource">images/sdxl.xcf</property>
  <property name="ttl">25</property>
  <property name="aspect_ratio">1</property>
  <property name="progressive">1</property>
  <property name="seekable">1</property>
  <property name="format">1</property>
  <property name="meta.media.width">285</property>
  <property name="meta.media.height">24</property>
  <property name="mlt_service">qimage</property>
  <property name="kdenlive:clipname"/>
  <property name="kdenlive:duration">00:00:05:00</property>
  <property name="kdenlive:folderid">28</property>
  <property name="kdenlive:id">313</property>
  <property name="kdenlive:clip_type">2</property>
  <property name="kdenlive:file_size">6002</property>
  <property name="kdenlive:file_hash">93c352329883f150798bde969beb9a47</property>
 </producer>
 <chain id="chain94" out="00:00:14.280">
  <property name="length">358</property>
  <property name="eof">pause</property>
  <property name="resource">animation/output/ai-collage.mp4</property>
  <property name="mlt_service">avformat-novalidate</property>
  <property name="meta.media.nb_streams">1</property>
  <property name="meta.media.0.stream.type">video</property>
  <property name="meta.media.0.stream.frame_rate">60</property>
  <property name="meta.media.0.stream.sample_aspect_ratio">0</property>
  <property name="meta.media.0.codec.width">1920</property>
  <property name="meta.media.0.codec.height">1080</property>
  <property name="meta.media.0.codec.rotate">0</property>
  <property name="meta.media.0.codec.pix_fmt">yuv420p</property>
  <property name="meta.media.0.codec.sample_aspect_ratio">0</property>
  <property name="meta.media.0.codec.colorspace">709</property>
  <property name="meta.media.0.codec.name">h264</property>
  <property name="meta.media.0.codec.long_name">H.264 / AVC / MPEG-4 AVC / MPEG-4 part 10</property>
  <property name="meta.media.0.codec.bit_rate">665572</property>
  <property name="meta.attr.0.stream.handler_name.markup">VideoHandler</property>
  <property name="meta.attr.0.stream.vendor_id.markup">[0][0][0][0]</property>
  <property name="meta.attr.major_brand.markup">isom</property>
  <property name="meta.attr.minor_version.markup">512</property>
  <property name="meta.attr.compatible_brands.markup">isomiso2avc1mp41</property>
  <property name="meta.attr.encoder.markup">Lavf58.24.100</property>
  <property name="seekable">1</property>
  <property name="meta.media.sample_aspect_num">1</property>
  <property name="meta.media.sample_aspect_den">1</property>
  <property name="format">3</property>
  <property name="audio_index">-1</property>
  <property name="video_index">0</property>
  <property name="meta.media.frame_rate_num">60</property>
  <property name="meta.media.frame_rate_den">1</property>
  <property name="meta.media.colorspace">709</property>
  <property name="meta.media.color_trc">2</property>
  <property name="meta.media.has_b_frames">2</property>
  <property name="meta.media.width">1920</property>
  <property name="meta.media.height">1080</property>
  <property name="meta.media.color_range">mpeg</property>
  <property name="kdenlive:clipname"/>
  <property name="meta.media.top_field_first">0</property>
  <property name="meta.media.progressive">1</property>
  <property name="kdenlive:clip_type">2</property>
  <property name="kdenlive:folderid">218</property>
  <property name="kdenlive:id">314</property>
  <property name="kdenlive:file_size">1200694</property>
  <property name="kdenlive:file_hash">4d7b240ed65b5b55ae7a17c6cfbafcbd</property>
  <property name="mute_on_pause">1</property>
 </chain>
 <producer id="producer252" in="00:00:00.000" out="00:00:10.520">
  <property name="length">264</property>
  <property name="eof">pause</property>
  <property name="resource">images/overfitting.png</property>
  <property name="ttl">25</property>
  <property name="aspect_ratio">1</property>
  <property name="progressive">1</property>
  <property name="seekable">1</property>
  <property name="format">1</property>
  <property name="meta.media.width">1278</property>
  <property name="meta.media.height">888</property>
  <property name="mlt_service">qimage</property>
  <property name="kdenlive:clipname"/>
  <property name="kdenlive:duration">00:00:05:00</property>
  <property name="kdenlive:folderid">28</property>
  <property name="kdenlive:id">315</property>
  <property name="kdenlive:clip_type">2</property>
  <property name="kdenlive:file_size">319228</property>
  <property name="kdenlive:file_hash">bd98de9be57839613623513072f03580</property>
 </producer>
 <chain id="chain95" out="00:00:05.000">
  <property name="length">126</property>
  <property name="eof">pause</property>
  <property name="resource">animation/output/smiley-equation.mp4</property>
  <property name="mlt_service">avformat-novalidate</property>
  <property name="meta.media.nb_streams">1</property>
  <property name="meta.media.0.stream.type">video</property>
  <property name="meta.media.0.stream.frame_rate">60</property>
  <property name="meta.media.0.stream.sample_aspect_ratio">0</property>
  <property name="meta.media.0.codec.width">1920</property>
  <property name="meta.media.0.codec.height">1080</property>
  <property name="meta.media.0.codec.rotate">0</property>
  <property name="meta.media.0.codec.pix_fmt">yuv420p</property>
  <property name="meta.media.0.codec.sample_aspect_ratio">0</property>
  <property name="meta.media.0.codec.colorspace">709</property>
  <property name="meta.media.0.codec.name">h264</property>
  <property name="meta.media.0.codec.long_name">H.264 / AVC / MPEG-4 AVC / MPEG-4 part 10</property>
  <property name="meta.media.0.codec.bit_rate">342874</property>
  <property name="meta.attr.0.stream.handler_name.markup">VideoHandler</property>
  <property name="meta.attr.0.stream.vendor_id.markup">[0][0][0][0]</property>
  <property name="meta.attr.major_brand.markup">isom</property>
  <property name="meta.attr.minor_version.markup">512</property>
  <property name="meta.attr.compatible_brands.markup">isomiso2avc1mp41</property>
  <property name="meta.attr.encoder.markup">Lavf58.24.100</property>
  <property name="seekable">1</property>
  <property name="meta.media.sample_aspect_num">1</property>
  <property name="meta.media.sample_aspect_den">1</property>
  <property name="format">3</property>
  <property name="audio_index">-1</property>
  <property name="video_index">0</property>
  <property name="meta.media.frame_rate_num">60</property>
  <property name="meta.media.frame_rate_den">1</property>
  <property name="meta.media.colorspace">709</property>
  <property name="meta.media.color_trc">2</property>
  <property name="meta.media.has_b_frames">2</property>
  <property name="meta.media.width">1920</property>
  <property name="meta.media.height">1080</property>
  <property name="meta.media.color_range">mpeg</property>
  <property name="kdenlive:clipname"/>
  <property name="meta.media.top_field_first">0</property>
  <property name="meta.media.progressive">1</property>
  <property name="kdenlive:clip_type">2</property>
  <property name="kdenlive:folderid">218</property>
  <property name="kdenlive:id">316</property>
  <property name="kdenlive:file_size">220157</property>
  <property name="kdenlive:file_hash">db316de4be3144c5f7b2681bbb79bc30</property>
  <property name="mute_on_pause">1</property>
 </chain>
 <producer id="producer253" in="00:00:00.000" out="00:00:09.240">
  <property name="length">232</property>
  <property name="eof">pause</property>
  <property name="progressive">1</property>
  <property name="aspect_ratio">1</property>
  <property name="seekable">1</property>
  <property name="mlt_service">kdenlivetitle</property>
  <property name="kdenlive:duration">00:00:05:00</property>
  <property name="kdenlive:clipname">2.6 billion</property>
  <property name="xmldata">&lt;kdenlivetitle duration="125" LC_NUMERIC="C" width="1920" height="1080" out="124">
 &lt;item type="QGraphicsTextItem" z-index="0">
  &lt;position x="383" y="402">
   &lt;transform>1,0,0,0,1,0,0,0,1&lt;/transform>
  &lt;/position>
  &lt;content line-spacing="0" shadow="0;#64000000;3;3;3" font-underline="0" box-height="276" font="Cubano" letter-spacing="0" font-pixel-size="230" font-italic="0" typewriter="0;2;1;0;0" alignment="4" font-weight="50" box-width="1157.08" font-color="255,255,255,255">2.6 billion&lt;/content>
 &lt;/item>
 &lt;startviewport rect="0,0,1920,1080"/>
 &lt;endviewport rect="0,0,1920,1080"/>
 &lt;background color="0,0,0,0"/>
&lt;/kdenlivetitle>
</property>
  <property name="kdenlive:folderid">21</property>
  <property name="kdenlive:id">317</property>
  <property name="kdenlive:clip_type">2</property>
  <property name="force_reload">0</property>
  <property name="meta.media.width">1920</property>
  <property name="meta.media.height">1080</property>
  <property name="kdenlive:file_hash">d31f1cc1208c6642b98f74605ec42b84</property>
 </producer>
 <producer id="producer317" in="00:00:00.000" out="00:00:19.680">
  <property name="length">00:00:19.720</property>
  <property name="eof">pause</property>
  <property name="resource">/home/liquidzulu/Pictures/yt/animation/output/project/footnotes/footnote-3/.all.png</property>
  <property name="ttl">1</property>
  <property name="aspect_ratio">1</property>
  <property name="progressive">1</property>
  <property name="seekable">1</property>
  <property name="format">2</property>
  <property name="meta.media.width">1920</property>
  <property name="meta.media.height">1080</property>
  <property name="mlt_service">qimage</property>
  <property name="kdenlive:clipname">footnote-3</property>
  <property name="low-pass">0</property>
  <property name="animation"/>
  <property name="luma_file"/>
  <property name="luma_duration">25</property>
  <property name="fade">0</property>
  <property name="crop">0</property>
  <property name="softness">0</property>
  <property name="loop">0</property>
  <property name="kdenlive:duration">00:00:19:18</property>
  <property name="kdenlive:folderid">273</property>
  <property name="kdenlive:id">318</property>
  <property name="kdenlive:clip_type">2</property>
  <property name="kdenlive:file_hash">f9d4637e21ae5f730ff192c6d176c610</property>
 </producer>
 <chain id="chain96" out="00:00:11.240">
  <property name="length">282</property>
  <property name="eof">pause</property>
  <property name="resource">videos/laion-5B.mkv</property>
  <property name="mlt_service">avformat-novalidate</property>
  <property name="meta.media.nb_streams">2</property>
  <property name="meta.media.0.stream.type">video</property>
  <property name="meta.media.0.stream.frame_rate">60</property>
  <property name="meta.media.0.stream.sample_aspect_ratio">0</property>
  <property name="meta.media.0.codec.width">1920</property>
  <property name="meta.media.0.codec.height">1080</property>
  <property name="meta.media.0.codec.rotate">0</property>
  <property name="meta.media.0.codec.pix_fmt">yuv420p</property>
  <property name="meta.media.0.codec.sample_aspect_ratio">1</property>
  <property name="meta.media.0.codec.colorspace">709</property>
  <property name="meta.media.0.codec.color_trc">1</property>
  <property name="meta.media.0.codec.name">h264</property>
  <property name="meta.media.0.codec.long_name">H.264 / AVC / MPEG-4 AVC / MPEG-4 part 10</property>
  <property name="meta.media.0.codec.bit_rate">0</property>
  <property name="meta.attr.0.stream.DURATION.markup">00:00:11.284000000</property>
  <property name="meta.media.1.stream.type">audio</property>
  <property name="meta.media.1.codec.sample_fmt">fltp</property>
  <property name="meta.media.1.codec.sample_rate">48000</property>
  <property name="meta.media.1.codec.channels">1</property>
  <property name="meta.media.1.codec.name">aac</property>
  <property name="meta.media.1.codec.long_name">AAC (Advanced Audio Coding)</property>
  <property name="meta.media.1.codec.bit_rate">0</property>
  <property name="meta.attr.1.stream.title.markup">simple_aac_recording</property>
  <property name="meta.attr.1.stream.DURATION.markup">00:00:11.264000000</property>
  <property name="meta.attr.ENCODER.markup">Lavf59.27.100</property>
  <property name="seekable">1</property>
  <property name="meta.media.sample_aspect_num">1</property>
  <property name="meta.media.sample_aspect_den">1</property>
  <property name="format">3</property>
  <property name="audio_index">-1</property>
  <property name="video_index">0</property>
  <property name="meta.media.frame_rate_num">60</property>
  <property name="meta.media.frame_rate_den">1</property>
  <property name="meta.media.colorspace">709</property>
  <property name="meta.media.color_trc">1</property>
  <property name="meta.media.has_b_frames">2</property>
  <property name="meta.media.width">1920</property>
  <property name="meta.media.height">1080</property>
  <property name="meta.media.color_range">mpeg</property>
  <property name="kdenlive:clipname"/>
  <property name="meta.media.top_field_first">0</property>
  <property name="meta.media.progressive">1</property>
  <property name="kdenlive:clip_type">0</property>
  <property name="kdenlive:folderid">14</property>
  <property name="kdenlive:id">319</property>
  <property name="kdenlive:file_size">1394649</property>
  <property name="kdenlive:file_hash">ec66bd1760c23e5455d6659b3c5997d2</property>
  <property name="kdenlive:audio_max1">1</property>
  <property name="kdenlive:active_streams">-1</property>
  <property name="set.test_audio">1</property>
  <property name="mute_on_pause">1</property>
 </chain>
 <producer id="producer262" in="00:00:00.000" out="00:00:04.960">
  <property name="length">125</property>
  <property name="eof">pause</property>
  <property name="progressive">1</property>
  <property name="aspect_ratio">1</property>
  <property name="seekable">1</property>
  <property name="mlt_service">kdenlivetitle</property>
  <property name="kdenlive:duration">00:00:05:00</property>
  <property name="kdenlive:clipname">240TB</property>
  <property name="xmldata">&lt;kdenlivetitle duration="125" LC_NUMERIC="C" width="1920" height="1080" out="124">
 &lt;item type="QGraphicsTextItem" z-index="0">
  &lt;position x="623" y="402">
   &lt;transform>1,0,0,0,1,0,0,0,1&lt;/transform>
  &lt;/position>
  &lt;content line-spacing="0" shadow="0;#64000000;3;3;3" font-underline="0" box-height="276" font="Cubano" letter-spacing="0" font-pixel-size="230" font-italic="0" typewriter="0;2;1;0;0" alignment="4" font-weight="50" box-width="678.016" font-color="255,255,255,255">240TB&lt;/content>
 &lt;/item>
 &lt;startviewport rect="0,0,1920,1080"/>
 &lt;endviewport rect="0,0,1920,1080"/>
 &lt;background color="0,0,0,0"/>
&lt;/kdenlivetitle>
</property>
  <property name="kdenlive:folderid">21</property>
  <property name="kdenlive:id">320</property>
  <property name="kdenlive:clip_type">2</property>
  <property name="force_reload">0</property>
  <property name="meta.media.width">1920</property>
  <property name="meta.media.height">1080</property>
  <property name="kdenlive:file_hash">a1b68f0c5fc7587cd153d1b2da1013c5</property>
 </producer>
 <producer id="producer304" in="00:00:00.000" out="00:00:04.960">
  <property name="length">00:00:05.000</property>
  <property name="eof">pause</property>
  <property name="resource">images/walrus.png</property>
  <property name="ttl">25</property>
  <property name="aspect_ratio">1</property>
  <property name="progressive">1</property>
  <property name="seekable">1</property>
  <property name="format">2</property>
  <property name="meta.media.width">512</property>
  <property name="meta.media.height">512</property>
  <property name="mlt_service">qimage</property>
  <property name="kdenlive:clipname"/>
  <property name="kdenlive:duration">00:00:05:00</property>
  <property name="kdenlive:folderid">28</property>
  <property name="kdenlive:id">321</property>
  <property name="kdenlive:clip_type">2</property>
  <property name="kdenlive:file_size">282041</property>
  <property name="kdenlive:file_hash">dfa0587939d8f4387f186412f816841d</property>
 </producer>
 <producer id="producer296" in="00:00:00.000" out="00:00:04.960">
  <property name="length">00:00:05.000</property>
  <property name="eof">pause</property>
  <property name="resource">images/post office.png</property>
  <property name="ttl">25</property>
  <property name="aspect_ratio">1</property>
  <property name="progressive">1</property>
  <property name="seekable">1</property>
  <property name="format">2</property>
  <property name="meta.media.width">512</property>
  <property name="meta.media.height">512</property>
  <property name="mlt_service">qimage</property>
  <property name="kdenlive:clipname"/>
  <property name="kdenlive:duration">00:00:05:00</property>
  <property name="kdenlive:folderid">28</property>
  <property name="kdenlive:id">322</property>
  <property name="kdenlive:clip_type">2</property>
  <property name="kdenlive:file_size">261442</property>
  <property name="kdenlive:file_hash">3682315859f2f6a5a85ac7e3e6994b74</property>
 </producer>
 <producer id="producer263" in="00:00:00.000" out="00:00:18.600">
  <property name="length">466</property>
  <property name="eof">pause</property>
  <property name="progressive">1</property>
  <property name="aspect_ratio">1</property>
  <property name="seekable">1</property>
  <property name="mlt_service">kdenlivetitle</property>
  <property name="kdenlive:duration">00:00:05:00</property>
  <property name="kdenlive:clipname">32 bits / pa...</property>
  <property name="xmldata">&lt;kdenlivetitle duration="125" LC_NUMERIC="C" width="1920" height="1080" out="124">
 &lt;item type="QGraphicsTextItem" z-index="0">
  &lt;position x="457" y="480">
   &lt;transform>1,0,0,0,1,0,0,0,1&lt;/transform>
  &lt;/position>
  &lt;content line-spacing="0" shadow="0;#64000000;3;3;3" font-underline="0" box-height="120" font-outline-color="0,0,0,255" font="Cubano" letter-spacing="0" font-pixel-size="100" font-italic="0" typewriter="0;2;1;0;0" alignment="1" font-weight="50" font-outline="0" box-width="1006.66" font-color="255,255,255,255">32 bits / paramater&lt;/content>
 &lt;/item>
 &lt;startviewport rect="0,0,1920,1080"/>
 &lt;endviewport rect="0,0,1920,1080"/>
 &lt;background color="0,0,0,0"/>
&lt;/kdenlivetitle>
</property>
  <property name="kdenlive:folderid">21</property>
  <property name="kdenlive:id">323</property>
  <property name="kdenlive:clip_type">2</property>
  <property name="force_reload">0</property>
  <property name="meta.media.width">1920</property>
  <property name="meta.media.height">1080</property>
  <property name="kdenlive:file_hash">4872bcf42a072a67ee78fb31623aea7a</property>
 </producer>
 <producer id="producer289" in="00:00:00.000" out="00:00:10.120">
  <property name="length">254</property>
  <property name="eof">pause</property>
  <property name="progressive">1</property>
  <property name="aspect_ratio">1</property>
  <property name="seekable">1</property>
  <property name="mlt_service">kdenlivetitle</property>
  <property name="kdenlive:duration">00:00:05:00</property>
  <property name="kdenlive:clipname">0.00004 : 1</property>
  <property name="xmldata">&lt;kdenlivetitle duration="125" LC_NUMERIC="C" width="1920" height="1080" out="124">
 &lt;item type="QGraphicsTextItem" z-index="0">
  &lt;position x="451" y="420">
   &lt;transform>1,0,0,0,1,0,0,0,1&lt;/transform>
  &lt;/position>
  &lt;content line-spacing="0" shadow="0;#64000000;3;3;3" font-underline="0" box-height="240" font-outline-color="0,0,0,255" font="Cubano" letter-spacing="0" font-pixel-size="200" font-italic="0" typewriter="0;2;1;0;0" alignment="1" font-weight="50" font-outline="0" box-width="1017.78" font-color="255,255,255,255">0.00004 : 1&lt;/content>
 &lt;/item>
 &lt;startviewport rect="0,0,1920,1080"/>
 &lt;endviewport rect="0,0,1920,1080"/>
 &lt;background color="0,0,0,0"/>
&lt;/kdenlivetitle>
</property>
  <property name="kdenlive:folderid">21</property>
  <property name="kdenlive:id">324</property>
  <property name="kdenlive:clip_type">2</property>
  <property name="force_reload">0</property>
  <property name="meta.media.width">1920</property>
  <property name="meta.media.height">1080</property>
  <property name="kdenlive:file_hash">e6c8ad2f962cf3801bf326d6adf8f46b</property>
 </producer>
 <producer id="producer297" in="00:00:00.000" out="00:00:10.120">
  <property name="length">254</property>
  <property name="eof">pause</property>
  <property name="progressive">1</property>
  <property name="aspect_ratio">1</property>
  <property name="seekable">1</property>
  <property name="mlt_service">kdenlivetitle</property>
  <property name="kdenlive:duration">00:00:05:00</property>
  <property name="kdenlive:clipname">0.00004</property>
  <property name="xmldata">&lt;kdenlivetitle duration="125" LC_NUMERIC="C" width="1920" height="1080" out="124">
 &lt;item type="QGraphicsTextItem" z-index="0">
  &lt;position x="576" y="420">
   &lt;transform>1,0,0,0,1,0,0,0,1&lt;/transform>
  &lt;/position>
  &lt;content line-spacing="0" shadow="0;#64000000;3;3;3" font-underline="0" box-height="240" font-outline-color="0,0,0,255" font="Cubano" letter-spacing="0" font-pixel-size="200" font-italic="0" typewriter="0;2;1;0;0" alignment="4" font-weight="50" font-outline="0" box-width="767.391" font-color="255,255,255,255">0.00004&lt;/content>
 &lt;/item>
 &lt;startviewport rect="0,0,1920,1080"/>
 &lt;endviewport rect="0,0,1920,1080"/>
 &lt;background color="0,0,0,0"/>
&lt;/kdenlivetitle>
</property>
  <property name="kdenlive:folderid">21</property>
  <property name="kdenlive:id">325</property>
  <property name="kdenlive:clip_type">2</property>
  <property name="force_reload">0</property>
  <property name="meta.media.width">1920</property>
  <property name="meta.media.height">1080</property>
  <property name="kdenlive:file_hash">5adc62792461ef35e8f6f58d68fa6652</property>
 </producer>
 <producer id="producer288" in="00:00:00.000" out="00:00:10.120">
  <property name="length">254</property>
  <property name="eof">pause</property>
  <property name="progressive">1</property>
  <property name="aspect_ratio">1</property>
  <property name="seekable">1</property>
  <property name="mlt_service">kdenlivetitle</property>
  <property name="kdenlive:duration">00:00:05:00</property>
  <property name="kdenlive:clipname">0.0000</property>
  <property name="xmldata">&lt;kdenlivetitle duration="125" LC_NUMERIC="C" width="1920" height="1080" out="124">
 &lt;item type="QGraphicsTextItem" z-index="0">
  &lt;position x="636" y="420">
   &lt;transform>1,0,0,0,1,0,0,0,1&lt;/transform>
  &lt;/position>
  &lt;content line-spacing="0" shadow="0;#64000000;3;3;3" font-underline="0" box-height="240" font="Cubano" letter-spacing="0" font-pixel-size="200" font-italic="0" typewriter="0;2;1;0;0" alignment="4" font-weight="50" box-width="647.391" font-color="255,255,255,255">0.0000&lt;/content>
 &lt;/item>
 &lt;startviewport rect="0,0,1920,1080"/>
 &lt;endviewport rect="0,0,1920,1080"/>
 &lt;background color="0,0,0,0"/>
&lt;/kdenlivetitle>
</property>
  <property name="kdenlive:folderid">21</property>
  <property name="kdenlive:id">326</property>
  <property name="kdenlive:clip_type">2</property>
  <property name="force_reload">0</property>
  <property name="meta.media.width">1920</property>
  <property name="meta.media.height">1080</property>
  <property name="kdenlive:file_hash">8bd371db34390dfd604dd36e63973910</property>
 </producer>
 <producer id="producer287" in="00:00:00.000" out="00:00:10.120">
  <property name="length">254</property>
  <property name="eof">pause</property>
  <property name="progressive">1</property>
  <property name="aspect_ratio">1</property>
  <property name="seekable">1</property>
  <property name="mlt_service">kdenlivetitle</property>
  <property name="kdenlive:duration">00:00:05:00</property>
  <property name="kdenlive:clipname">0.000</property>
  <property name="xmldata">&lt;kdenlivetitle duration="125" LC_NUMERIC="C" width="1920" height="1080" out="124">
 &lt;item type="QGraphicsTextItem" z-index="0">
  &lt;position x="696" y="420">
   &lt;transform>1,0,0,0,1,0,0,0,1&lt;/transform>
  &lt;/position>
  &lt;content line-spacing="0" shadow="0;#64000000;3;3;3" font-underline="0" box-height="240" font="Cubano" letter-spacing="0" font-pixel-size="200" font-italic="0" typewriter="0;2;1;0;0" alignment="4" font-weight="50" box-width="527.391" font-color="255,255,255,255">0.000&lt;/content>
 &lt;/item>
 &lt;startviewport rect="0,0,1920,1080"/>
 &lt;endviewport rect="0,0,1920,1080"/>
 &lt;background color="0,0,0,0"/>
&lt;/kdenlivetitle>
</property>
  <property name="kdenlive:folderid">21</property>
  <property name="kdenlive:id">327</property>
  <property name="kdenlive:clip_type">2</property>
  <property name="force_reload">0</property>
  <property name="meta.media.width">1920</property>
  <property name="meta.media.height">1080</property>
  <property name="kdenlive:file_hash">076338dbc42eed3071c8477928125783</property>
 </producer>
 <producer id="producer286" in="00:00:00.000" out="00:00:10.120">
  <property name="length">254</property>
  <property name="eof">pause</property>
  <property name="progressive">1</property>
  <property name="aspect_ratio">1</property>
  <property name="seekable">1</property>
  <property name="mlt_service">kdenlivetitle</property>
  <property name="kdenlive:duration">00:00:05:00</property>
  <property name="kdenlive:clipname">0.00</property>
  <property name="xmldata">&lt;kdenlivetitle duration="125" LC_NUMERIC="C" width="1920" height="1080" out="124">
 &lt;item type="QGraphicsTextItem" z-index="0">
  &lt;position x="756" y="420">
   &lt;transform>1,0,0,0,1,0,0,0,1&lt;/transform>
  &lt;/position>
  &lt;content line-spacing="0" shadow="0;#64000000;3;3;3" font-underline="0" box-height="240" font="Cubano" letter-spacing="0" font-pixel-size="200" font-italic="0" typewriter="0;2;1;0;0" alignment="4" font-weight="50" box-width="407.391" font-color="255,255,255,255">0.00&lt;/content>
 &lt;/item>
 &lt;startviewport rect="0,0,1920,1080"/>
 &lt;endviewport rect="0,0,1920,1080"/>
 &lt;background color="0,0,0,0"/>
&lt;/kdenlivetitle>
</property>
  <property name="kdenlive:folderid">21</property>
  <property name="kdenlive:id">328</property>
  <property name="kdenlive:clip_type">2</property>
  <property name="force_reload">0</property>
  <property name="meta.media.width">1920</property>
  <property name="meta.media.height">1080</property>
  <property name="kdenlive:file_hash">c2f209a60ce941291407ff4e1c7909ad</property>
 </producer>
 <producer id="producer285" in="00:00:00.000" out="00:00:10.120">
  <property name="length">254</property>
  <property name="eof">pause</property>
  <property name="progressive">1</property>
  <property name="aspect_ratio">1</property>
  <property name="seekable">1</property>
  <property name="mlt_service">kdenlivetitle</property>
  <property name="kdenlive:duration">00:00:05:00</property>
  <property name="kdenlive:clipname">0.0</property>
  <property name="xmldata">&lt;kdenlivetitle duration="125" LC_NUMERIC="C" width="1920" height="1080" out="124">
 &lt;item type="QGraphicsTextItem" z-index="0">
  &lt;position x="816" y="420">
   &lt;transform>1,0,0,0,1,0,0,0,1&lt;/transform>
  &lt;/position>
  &lt;content line-spacing="0" shadow="0;#64000000;3;3;3" font-underline="0" box-height="240" font="Cubano" letter-spacing="0" font-pixel-size="200" font-italic="0" typewriter="0;2;1;0;0" alignment="4" font-weight="50" box-width="287.391" font-color="255,255,255,255">0.0&lt;/content>
 &lt;/item>
 &lt;startviewport rect="0,0,1920,1080"/>
 &lt;endviewport rect="0,0,1920,1080"/>
 &lt;background color="0,0,0,0"/>
&lt;/kdenlivetitle>
</property>
  <property name="kdenlive:folderid">21</property>
  <property name="kdenlive:id">329</property>
  <property name="kdenlive:clip_type">2</property>
  <property name="force_reload">0</property>
  <property name="meta.media.width">1920</property>
  <property name="meta.media.height">1080</property>
  <property name="kdenlive:file_hash">964204ca1825d7ea65d1bec46193ddf2</property>
 </producer>
 <producer id="producer284" in="00:00:00.000" out="00:00:10.120">
  <property name="length">254</property>
  <property name="eof">pause</property>
  <property name="progressive">1</property>
  <property name="aspect_ratio">1</property>
  <property name="seekable">1</property>
  <property name="mlt_service">kdenlivetitle</property>
  <property name="kdenlive:duration">00:00:05:00</property>
  <property name="kdenlive:clipname">0.</property>
  <property name="xmldata">&lt;kdenlivetitle duration="125" LC_NUMERIC="C" width="1920" height="1080" out="124">
 &lt;item type="QGraphicsTextItem" z-index="0">
  &lt;position x="876" y="420">
   &lt;transform>1,0,0,0,1,0,0,0,1&lt;/transform>
  &lt;/position>
  &lt;content line-spacing="0" shadow="0;#64000000;3;3;3" font-underline="0" box-height="240" font="Cubano" letter-spacing="0" font-pixel-size="200" font-italic="0" typewriter="0;2;1;0;0" alignment="4" font-weight="50" box-width="167.391" font-color="255,255,255,255">0.&lt;/content>
 &lt;/item>
 &lt;startviewport rect="0,0,1920,1080"/>
 &lt;endviewport rect="0,0,1920,1080"/>
 &lt;background color="0,0,0,0"/>
&lt;/kdenlivetitle>
</property>
  <property name="kdenlive:folderid">21</property>
  <property name="kdenlive:id">330</property>
  <property name="kdenlive:clip_type">2</property>
  <property name="force_reload">0</property>
  <property name="meta.media.width">1920</property>
  <property name="meta.media.height">1080</property>
  <property name="kdenlive:file_hash">3120ef45b5b54efbe47abd7a1429f21d</property>
 </producer>
 <producer id="producer283" in="00:00:00.000" out="00:00:10.120">
  <property name="length">254</property>
  <property name="eof">pause</property>
  <property name="progressive">1</property>
  <property name="aspect_ratio">1</property>
  <property name="seekable">1</property>
  <property name="mlt_service">kdenlivetitle</property>
  <property name="kdenlive:duration">00:00:05:00</property>
  <property name="kdenlive:clipname">0</property>
  <property name="xmldata">&lt;kdenlivetitle duration="125" LC_NUMERIC="C" width="1920" height="1080" out="124">
 &lt;item type="QGraphicsTextItem" z-index="0">
  &lt;position x="900" y="420">
   &lt;transform>1,0,0,0,1,0,0,0,1&lt;/transform>
  &lt;/position>
  &lt;content line-spacing="0" shadow="0;#64000000;3;3;3" font-underline="0" box-height="240" font="Cubano" letter-spacing="0" font-pixel-size="200" font-italic="0" typewriter="0;2;1;0;0" alignment="4" font-weight="50" box-width="120" font-color="255,255,255,255">0&lt;/content>
 &lt;/item>
 &lt;startviewport rect="0,0,1920,1080"/>
 &lt;endviewport rect="0,0,1920,1080"/>
 &lt;background color="0,0,0,0"/>
&lt;/kdenlivetitle>
</property>
  <property name="kdenlive:folderid">21</property>
  <property name="kdenlive:id">331</property>
  <property name="kdenlive:clip_type">2</property>
  <property name="force_reload">0</property>
  <property name="meta.media.width">1920</property>
  <property name="meta.media.height">1080</property>
  <property name="kdenlive:file_hash">9a6e06258e23fea74286079f864b6cdf</property>
 </producer>
 <producer id="producer298" in="00:00:00.000" out="00:00:10.120">
  <property name="length">254</property>
  <property name="eof">pause</property>
  <property name="progressive">1</property>
  <property name="aspect_ratio">1</property>
  <property name="seekable">1</property>
  <property name="mlt_service">kdenlivetitle</property>
  <property name="kdenlive:duration">00:00:05:00</property>
  <property name="kdenlive:clipname">0.00004 : 1 this needs</property>
  <property name="xmldata">&lt;kdenlivetitle duration="125" LC_NUMERIC="C" width="1920" height="1080" out="124">
 &lt;item type="QGraphicsTextItem" z-index="1">
  &lt;position x="572" y="636">
   &lt;transform>1,0,0,0,1,0,0,0,1&lt;/transform>
  &lt;/position>
  &lt;content line-spacing="0" shadow="0;#64000000;3;3;3" font-underline="0" box-height="48" font-outline-color="0,0,0,255" font="Cubano" letter-spacing="0" font-pixel-size="40" font-italic="0" typewriter="0;2;1;0;0" alignment="1" font-weight="50" font-outline="0" box-width="535.375" font-color="132,132,132,255">this needs to be at least 1&lt;/content>
 &lt;/item>
 &lt;item type="QGraphicsTextItem" z-index="0">
  &lt;position x="451" y="420">
   &lt;transform>1,0,0,0,1,0,0,0,1&lt;/transform>
  &lt;/position>
  &lt;content line-spacing="0" shadow="0;#64000000;3;3;3" font-underline="0" box-height="240" font="Cubano" letter-spacing="0" font-pixel-size="200" font-italic="0" typewriter="0;2;1;0;0" alignment="1" font-weight="50" box-width="1017.78" font-color="255,255,255,255">0.00004 : 1&lt;/content>
 &lt;/item>
 &lt;startviewport rect="0,0,1920,1080"/>
 &lt;endviewport rect="0,0,1920,1080"/>
 &lt;background color="0,0,0,0"/>
&lt;/kdenlivetitle>
</property>
  <property name="kdenlive:folderid">21</property>
  <property name="kdenlive:id">332</property>
  <property name="kdenlive:clip_type">2</property>
  <property name="force_reload">0</property>
  <property name="meta.media.width">1920</property>
  <property name="meta.media.height">1080</property>
  <property name="kdenlive:file_hash">4838328ab94231030929cd95477a8c93</property>
 </producer>
 <producer id="producer265" in="00:00:00.000" out="00:00:10.120">
  <property name="length">254</property>
  <property name="eof">pause</property>
  <property name="progressive">1</property>
  <property name="aspect_ratio">1</property>
  <property name="seekable">1</property>
  <property name="mlt_service">kdenlivetitle</property>
  <property name="kdenlive:duration">00:00:05:00</property>
  <property name="kdenlive:clipname">25000x</property>
  <property name="xmldata">&lt;kdenlivetitle duration="125" LC_NUMERIC="C" width="1920" height="1080" out="124">
 &lt;item type="QGraphicsTextItem" z-index="0">
  &lt;position x="153" y="420">
   &lt;transform>1,0,0,0,1,0,0,0,1&lt;/transform>
  &lt;/position>
  &lt;content line-spacing="0" shadow="0;#64000000;3;3;3" font-underline="0" box-height="240" font="Cubano" letter-spacing="0" font-pixel-size="200" font-italic="0" typewriter="0;2;1;0;0" alignment="4" font-weight="50" box-width="1615.16" font-color="255,255,255,255">25,000 Ã— params&lt;/content>
 &lt;/item>
 &lt;startviewport rect="0,0,1920,1080"/>
 &lt;endviewport rect="0,0,1920,1080"/>
 &lt;background color="0,0,0,0"/>
&lt;/kdenlivetitle>
</property>
  <property name="kdenlive:folderid">21</property>
  <property name="kdenlive:id">333</property>
  <property name="kdenlive:clip_type">2</property>
  <property name="force_reload">0</property>
  <property name="meta.media.width">1920</property>
  <property name="meta.media.height">1080</property>
  <property name="kdenlive:file_hash">376d5e167ac44d6d7aab52cb1e9328df</property>
 </producer>
 <producer id="producer267" in="00:00:00.000" out="00:00:10.120">
  <property name="length">254</property>
  <property name="eof">pause</property>
  <property name="progressive">1</property>
  <property name="aspect_ratio">1</property>
  <property name="seekable">1</property>
  <property name="mlt_service">kdenlivetitle</property>
  <property name="kdenlive:duration">00:00:05:00</property>
  <property name="kdenlive:clipname">65</property>
  <property name="xmldata">&lt;kdenlivetitle duration="125" LC_NUMERIC="C" width="1920" height="1080" out="124">
 &lt;item type="QGraphicsTextItem" z-index="0">
  &lt;position x="847" y="420">
   &lt;transform>1,0,0,0,1,0,0,0,1&lt;/transform>
  &lt;/position>
  &lt;content line-spacing="0" shadow="0;#64000000;3;3;3" font-underline="0" box-height="240" font="Cubano" letter-spacing="0" font-pixel-size="200" font-italic="0" typewriter="0;2;1;0;0" alignment="4" font-weight="50" box-width="228" font-color="255,255,255,255">65&lt;/content>
 &lt;/item>
 &lt;startviewport rect="0,0,1920,1080"/>
 &lt;endviewport rect="0,0,1920,1080"/>
 &lt;background color="0,0,0,0"/>
&lt;/kdenlivetitle>
</property>
  <property name="kdenlive:folderid">21</property>
  <property name="kdenlive:id">334</property>
  <property name="kdenlive:clip_type">2</property>
  <property name="force_reload">0</property>
  <property name="meta.media.width">1920</property>
  <property name="meta.media.height">1080</property>
  <property name="kdenlive:file_hash">00075cbf5c56bd49284b19a45cb8cd20</property>
 </producer>
 <producer id="producer268" in="00:00:00.000" out="00:00:10.800">
  <property name="length">271</property>
  <property name="eof">pause</property>
  <property name="progressive">1</property>
  <property name="aspect_ratio">1</property>
  <property name="seekable">1</property>
  <property name="mlt_service">kdenlivetitle</property>
  <property name="kdenlive:duration">00:00:05:00</property>
  <property name="kdenlive:clipname">65 trillion</property>
  <property name="xmldata">&lt;kdenlivetitle duration="125" LC_NUMERIC="C" width="1920" height="1080" out="124">
 &lt;item type="QGraphicsTextItem" z-index="0">
  &lt;position x="420" y="420">
   &lt;transform>1,0,0,0,1,0,0,0,1&lt;/transform>
  &lt;/position>
  &lt;content line-spacing="0" shadow="0;#64000000;3;3;3" font-underline="0" box-height="240" font="Cubano" letter-spacing="0" font-pixel-size="200" font-italic="0" typewriter="0;2;1;0;0" alignment="4" font-weight="50" box-width="1082.55" font-color="255,255,255,255">65 trillion&lt;/content>
 &lt;/item>
 &lt;startviewport rect="0,0,1920,1080"/>
 &lt;endviewport rect="0,0,1920,1080"/>
 &lt;background color="0,0,0,0"/>
&lt;/kdenlivetitle>
</property>
  <property name="kdenlive:folderid">21</property>
  <property name="kdenlive:id">335</property>
  <property name="kdenlive:clip_type">2</property>
  <property name="force_reload">0</property>
  <property name="meta.media.width">1920</property>
  <property name="meta.media.height">1080</property>
  <property name="kdenlive:file_hash">1f3d46897e7cb6b431eb5e81c8fcf89a</property>
 </producer>
 <chain id="chain97" out="00:00:32.440">
  <property name="length">812</property>
  <property name="eof">pause</property>
  <property name="resource">/home/liquidzulu/Music/sfx/Rumbling Sound Effect [926a-7b9EIs].mp3</property>
  <property name="mlt_service">avformat</property>
  <property name="meta.media.nb_streams">1</property>
  <property name="meta.media.0.stream.type">audio</property>
  <property name="meta.media.0.codec.sample_fmt">fltp</property>
  <property name="meta.media.0.codec.sample_rate">48000</property>
  <property name="meta.media.0.codec.channels">2</property>
  <property name="meta.media.0.codec.name">mp3float</property>
  <property name="meta.media.0.codec.long_name">MP3 (MPEG audio layer 3)</property>
  <property name="meta.media.0.codec.bit_rate">130330</property>
  <property name="meta.attr.0.stream.encoder.markup">Lavc59.37</property>
  <property name="meta.attr.encoder.markup">Lavf59.27.100</property>
  <property name="seekable">1</property>
  <property name="audio_index">0</property>
  <property name="video_index">-1</property>
  <property name="kdenlive:clipname"/>
  <property name="kdenlive:clip_type">1</property>
  <property name="kdenlive:folderid">228</property>
  <property name="kdenlive:id">336</property>
  <property name="kdenlive:file_size">529053</property>
  <property name="kdenlive:file_hash">15a6487084c6edc8a411d63645169983</property>
  <property name="kdenlive:audio_max0">256</property>
  <property name="mute_on_pause">1</property>
 </chain>
 <chain id="chain98" out="00:00:00.800">
  <property name="length">21</property>
  <property name="eof">pause</property>
  <property name="resource">/home/liquidzulu/Music/sfx/thud game sound effect.mp3</property>
  <property name="mlt_service">avformat</property>
  <property name="meta.media.nb_streams">1</property>
  <property name="meta.media.0.stream.type">audio</property>
  <property name="meta.media.0.codec.sample_fmt">fltp</property>
  <property name="meta.media.0.codec.sample_rate">48000</property>
  <property name="meta.media.0.codec.channels">2</property>
  <property name="meta.media.0.codec.name">mp3float</property>
  <property name="meta.media.0.codec.long_name">MP3 (MPEG audio layer 3)</property>
  <property name="meta.media.0.codec.bit_rate">64457</property>
  <property name="meta.attr.0.stream.encoder.markup">Lavc59.37</property>
  <property name="meta.attr.encoder.markup">Lavf59.27.100</property>
  <property name="seekable">1</property>
  <property name="audio_index">0</property>
  <property name="video_index">-1</property>
  <property name="kdenlive:clipname"/>
  <property name="kdenlive:clip_type">1</property>
  <property name="kdenlive:folderid">228</property>
  <property name="kdenlive:id">337</property>
  <property name="kdenlive:file_size">6813</property>
  <property name="kdenlive:file_hash">9727d041efdd598c7496671e2edae40d</property>
  <property name="kdenlive:audio_max0">241</property>
  <property name="mute_on_pause">1</property>
 </chain>
 <chain id="chain99" out="00:00:20.520">
  <property name="length">514</property>
  <property name="eof">pause</property>
  <property name="resource">animation/output/kitten-elephant/kitten-elephant.mp4</property>
  <property name="mlt_service">avformat-novalidate</property>
  <property name="meta.media.nb_streams">2</property>
  <property name="meta.media.0.stream.type">video</property>
  <property name="meta.media.0.stream.frame_rate">25</property>
  <property name="meta.media.0.stream.sample_aspect_ratio">1</property>
  <property name="meta.media.0.codec.width">1920</property>
  <property name="meta.media.0.codec.height">1080</property>
  <property name="meta.media.0.codec.rotate">0</property>
  <property name="meta.media.0.codec.pix_fmt">yuv420p</property>
  <property name="meta.media.0.codec.sample_aspect_ratio">1</property>
  <property name="meta.media.0.codec.colorspace">709</property>
  <property name="meta.media.0.codec.color_trc">1</property>
  <property name="meta.media.0.codec.name">h264</property>
  <property name="meta.media.0.codec.long_name">H.264 / AVC / MPEG-4 AVC / MPEG-4 part 10</property>
  <property name="meta.media.0.codec.bit_rate">2597154</property>
  <property name="meta.attr.0.stream.handler_name.markup">VideoHandler</property>
  <property name="meta.attr.0.stream.vendor_id.markup">[0][0][0][0]</property>
  <property name="meta.media.1.stream.type">audio</property>
  <property name="meta.media.1.codec.sample_fmt">fltp</property>
  <property name="meta.media.1.codec.sample_rate">48000</property>
  <property name="meta.media.1.codec.channels">2</property>
  <property name="meta.media.1.codec.name">aac</property>
  <property name="meta.media.1.codec.long_name">AAC (Advanced Audio Coding)</property>
  <property name="meta.media.1.codec.bit_rate">43131</property>
  <property name="meta.attr.1.stream.handler_name.markup">SoundHandler</property>
  <property name="meta.attr.1.stream.vendor_id.markup">[0][0][0][0]</property>
  <property name="meta.attr.major_brand.markup">isom</property>
  <property name="meta.attr.minor_version.markup">512</property>
  <property name="meta.attr.compatible_brands.markup">isomiso2avc1mp41</property>
  <property name="meta.attr.encoder.markup">Lavf59.27.100</property>
  <property name="seekable">1</property>
  <property name="meta.media.sample_aspect_num">1</property>
  <property name="meta.media.sample_aspect_den">1</property>
  <property name="format">3</property>
  <property name="audio_index">1</property>
  <property name="video_index">0</property>
  <property name="meta.media.frame_rate_num">25</property>
  <property name="meta.media.frame_rate_den">1</property>
  <property name="meta.media.colorspace">709</property>
  <property name="meta.media.color_trc">1</property>
  <property name="meta.media.has_b_frames">2</property>
  <property name="meta.media.width">1920</property>
  <property name="meta.media.height">1080</property>
  <property name="meta.media.color_range">mpeg</property>
  <property name="kdenlive:clipname"/>
  <property name="meta.media.top_field_first">0</property>
  <property name="meta.media.progressive">1</property>
  <property name="kdenlive:clip_type">0</property>
  <property name="kdenlive:folderid">218</property>
  <property name="kdenlive:id">338</property>
  <property name="kdenlive:file_size">6802766</property>
  <property name="kdenlive:file_hash">b6a769ceca62335787629e81eeb37801</property>
  <property name="kdenlive:audio_max1">238</property>
  <property name="mute_on_pause">1</property>
 </chain>
 <producer id="producer318" in="00:00:00.000" out="00:00:19.680">
  <property name="length">00:00:19.720</property>
  <property name="eof">pause</property>
  <property name="resource">/home/liquidzulu/Pictures/yt/animation/output/project/footnotes/footnote-4/.all.png</property>
  <property name="ttl">1</property>
  <property name="aspect_ratio">1</property>
  <property name="progressive">1</property>
  <property name="seekable">1</property>
  <property name="format">2</property>
  <property name="meta.media.width">1920</property>
  <property name="meta.media.height">1080</property>
  <property name="mlt_service">qimage</property>
  <property name="kdenlive:clipname">footnote-4</property>
  <property name="low-pass">0</property>
  <property name="animation"/>
  <property name="luma_file"/>
  <property name="luma_duration">25</property>
  <property name="fade">0</property>
  <property name="crop">0</property>
  <property name="softness">0</property>
  <property name="loop">0</property>
  <property name="kdenlive:duration">00:00:19:18</property>
  <property name="kdenlive:folderid">273</property>
  <property name="kdenlive:id">339</property>
  <property name="kdenlive:clip_type">2</property>
  <property name="kdenlive:file_hash">657dfc1a0cbd04cdab051769acee51ce</property>
 </producer>
 <producer id="producer319" in="00:00:00.000" out="00:00:19.680">
  <property name="length">00:00:19.720</property>
  <property name="eof">pause</property>
  <property name="resource">/home/liquidzulu/Pictures/yt/animation/output/project/footnotes/footnote-5/.all.png</property>
  <property name="ttl">1</property>
  <property name="aspect_ratio">1</property>
  <property name="progressive">1</property>
  <property name="seekable">1</property>
  <property name="format">2</property>
  <property name="meta.media.width">1920</property>
  <property name="meta.media.height">1080</property>
  <property name="mlt_service">qimage</property>
  <property name="kdenlive:clipname">footnote-5</property>
  <property name="low-pass">0</property>
  <property name="animation"/>
  <property name="luma_file"/>
  <property name="luma_duration">25</property>
  <property name="fade">0</property>
  <property name="crop">0</property>
  <property name="softness">0</property>
  <property name="loop">0</property>
  <property name="kdenlive:duration">00:00:19:18</property>
  <property name="kdenlive:folderid">273</property>
  <property name="kdenlive:id">340</property>
  <property name="kdenlive:clip_type">2</property>
  <property name="kdenlive:file_hash">982ab9c1e6cb7125e288d29845c74504</property>
 </producer>
 <chain id="chain100" out="00:00:27.080">
  <property name="length">678</property>
  <property name="eof">pause</property>
  <property name="resource">animation/output/copying-data.mp4</property>
  <property name="mlt_service">avformat-novalidate</property>
  <property name="meta.media.nb_streams">1</property>
  <property name="meta.media.0.stream.type">video</property>
  <property name="meta.media.0.stream.frame_rate">60</property>
  <property name="meta.media.0.stream.sample_aspect_ratio">0</property>
  <property name="meta.media.0.codec.width">1920</property>
  <property name="meta.media.0.codec.height">1080</property>
  <property name="meta.media.0.codec.rotate">0</property>
  <property name="meta.media.0.codec.pix_fmt">yuv420p</property>
  <property name="meta.media.0.codec.sample_aspect_ratio">0</property>
  <property name="meta.media.0.codec.colorspace">709</property>
  <property name="meta.media.0.codec.name">h264</property>
  <property name="meta.media.0.codec.long_name">H.264 / AVC / MPEG-4 AVC / MPEG-4 part 10</property>
  <property name="meta.media.0.codec.bit_rate">214957</property>
  <property name="meta.attr.0.stream.handler_name.markup">VideoHandler</property>
  <property name="meta.attr.0.stream.vendor_id.markup">[0][0][0][0]</property>
  <property name="meta.attr.major_brand.markup">isom</property>
  <property name="meta.attr.minor_version.markup">512</property>
  <property name="meta.attr.compatible_brands.markup">isomiso2avc1mp41</property>
  <property name="meta.attr.encoder.markup">Lavf58.24.100</property>
  <property name="seekable">1</property>
  <property name="meta.media.sample_aspect_num">1</property>
  <property name="meta.media.sample_aspect_den">1</property>
  <property name="format">3</property>
  <property name="audio_index">-1</property>
  <property name="video_index">0</property>
  <property name="meta.media.frame_rate_num">60</property>
  <property name="meta.media.frame_rate_den">1</property>
  <property name="meta.media.colorspace">709</property>
  <property name="meta.media.color_trc">2</property>
  <property name="meta.media.has_b_frames">2</property>
  <property name="meta.media.width">1920</property>
  <property name="meta.media.height">1080</property>
  <property name="meta.media.color_range">mpeg</property>
  <property name="kdenlive:clipname"/>
  <property name="meta.media.top_field_first">0</property>
  <property name="meta.media.progressive">1</property>
  <property name="kdenlive:clip_type">2</property>
  <property name="kdenlive:folderid">218</property>
  <property name="kdenlive:id">341</property>
  <property name="kdenlive:file_size">748142</property>
  <property name="kdenlive:file_hash">ea92dd461011f761d878436b4f1f6f05</property>
  <property name="mute_on_pause">1</property>
 </chain>
 <chain id="chain263" out="00:00:45.440">
  <property name="length">1137</property>
  <property name="eof">pause</property>
  <property name="resource">animation/output/network.mp4</property>
  <property name="mlt_service">avformat-novalidate</property>
  <property name="meta.media.nb_streams">1</property>
  <property name="meta.media.0.stream.type">video</property>
  <property name="meta.media.0.stream.frame_rate">60</property>
  <property name="meta.media.0.stream.sample_aspect_ratio">0</property>
  <property name="meta.media.0.codec.width">1920</property>
  <property name="meta.media.0.codec.height">1080</property>
  <property name="meta.media.0.codec.rotate">0</property>
  <property name="meta.media.0.codec.pix_fmt">yuv420p</property>
  <property name="meta.media.0.codec.sample_aspect_ratio">0</property>
  <property name="meta.media.0.codec.colorspace">709</property>
  <property name="meta.media.0.codec.name">h264</property>
  <property name="meta.media.0.codec.long_name">H.264 / AVC / MPEG-4 AVC / MPEG-4 part 10</property>
  <property name="meta.media.0.codec.bit_rate">351494</property>
  <property name="meta.attr.0.stream.handler_name.markup">VideoHandler</property>
  <property name="meta.attr.0.stream.vendor_id.markup">[0][0][0][0]</property>
  <property name="meta.attr.major_brand.markup">isom</property>
  <property name="meta.attr.minor_version.markup">512</property>
  <property name="meta.attr.compatible_brands.markup">isomiso2avc1mp41</property>
  <property name="meta.attr.encoder.markup">Lavf58.24.100</property>
  <property name="seekable">1</property>
  <property name="meta.media.sample_aspect_num">1</property>
  <property name="meta.media.sample_aspect_den">1</property>
  <property name="format">3</property>
  <property name="audio_index">-1</property>
  <property name="video_index">0</property>
  <property name="meta.media.frame_rate_num">60</property>
  <property name="meta.media.frame_rate_den">1</property>
  <property name="meta.media.colorspace">709</property>
  <property name="meta.media.color_trc">2</property>
  <property name="meta.media.has_b_frames">2</property>
  <property name="meta.media.width">1920</property>
  <property name="meta.media.height">1080</property>
  <property name="meta.media.color_range">mpeg</property>
  <property name="kdenlive:clipname"/>
  <property name="meta.media.top_field_first">0</property>
  <property name="meta.media.progressive">1</property>
  <property name="kdenlive:clip_type">2</property>
  <property name="kdenlive:folderid">218</property>
  <property name="kdenlive:id">342</property>
  <property name="kdenlive:file_size">2031058</property>
  <property name="kdenlive:file_hash">bdab92c72b08cc7ef26a05a7f933fc5e</property>
  <property name="mute_on_pause">1</property>
 </chain>
 <chain id="chain102" out="00:22:16.600">
  <property name="length">33416</property>
  <property name="eof">pause</property>
  <property name="resource">b-roll/AI ï¼‚Animeï¼‚ - An Insult to Life Itself (reï¼š Corridor &amp; Netflix) [GOwxXj1EIXM].webm</property>
  <property name="mlt_service">avformat-novalidate</property>
  <property name="meta.media.nb_streams">2</property>
  <property name="meta.media.0.stream.type">video</property>
  <property name="meta.media.0.stream.frame_rate">59.9401</property>
  <property name="meta.media.0.stream.sample_aspect_ratio">1</property>
  <property name="meta.media.0.codec.width">1920</property>
  <property name="meta.media.0.codec.height">1080</property>
  <property name="meta.media.0.codec.rotate">0</property>
  <property name="meta.media.0.codec.pix_fmt">yuv420p</property>
  <property name="meta.media.0.codec.sample_aspect_ratio">0</property>
  <property name="meta.media.0.codec.colorspace">709</property>
  <property name="meta.media.0.codec.color_trc">1</property>
  <property name="meta.media.0.codec.name">vp9</property>
  <property name="meta.media.0.codec.long_name">Google VP9</property>
  <property name="meta.media.0.codec.bit_rate">0</property>
  <property name="meta.attr.0.stream.language.markup">eng</property>
  <property name="meta.attr.0.stream.DURATION.markup">00:22:16.602000000</property>
  <property name="meta.media.1.stream.type">audio</property>
  <property name="meta.media.1.codec.sample_fmt">fltp</property>
  <property name="meta.media.1.codec.sample_rate">48000</property>
  <property name="meta.media.1.codec.channels">2</property>
  <property name="meta.media.1.codec.name">opus</property>
  <property name="meta.media.1.codec.long_name">Opus</property>
  <property name="meta.media.1.codec.bit_rate">0</property>
  <property name="meta.attr.1.stream.language.markup">eng</property>
  <property name="meta.attr.1.stream.DURATION.markup">00:22:16.621000000</property>
  <property name="meta.attr.ENCODER.markup">Lavf59.27.100</property>
  <property name="seekable">1</property>
  <property name="meta.media.sample_aspect_num">1</property>
  <property name="meta.media.sample_aspect_den">1</property>
  <property name="format">3</property>
  <property name="audio_index">-1</property>
  <property name="video_index">0</property>
  <property name="meta.media.frame_rate_num">60000</property>
  <property name="meta.media.frame_rate_den">1001</property>
  <property name="meta.media.colorspace">709</property>
  <property name="meta.media.color_trc">1</property>
  <property name="meta.media.has_b_frames">0</property>
  <property name="meta.media.width">1920</property>
  <property name="meta.media.height">1080</property>
  <property name="meta.media.color_range">mpeg</property>
  <property name="kdenlive:clipname"/>
  <property name="meta.media.top_field_first">0</property>
  <property name="meta.media.progressive">1</property>
  <property name="kdenlive:clip_type">0</property>
  <property name="kdenlive:folderid">14</property>
  <property name="kdenlive:id">343</property>
  <property name="kdenlive:file_size">457011961</property>
  <property name="kdenlive:file_hash">199853dc5ba0ac59679b29b9e54d6d33</property>
  <property name="kdenlive:audio_max1">192</property>
  <property name="kdenlive:active_streams">-1</property>
  <property name="set.test_audio">1</property>
  <property name="mute_on_pause">1</property>
 </chain>
 <producer id="producer275" in="00:00:00.000" out="00:00:04.960">
  <property name="length">00:00:05.000</property>
  <property name="eof">pause</property>
  <property name="resource">citations/citations-mothers-basement-insult.png</property>
  <property name="ttl">25</property>
  <property name="aspect_ratio">1</property>
  <property name="progressive">1</property>
  <property name="seekable">1</property>
  <property name="format">2</property>
  <property name="meta.media.width">1920</property>
  <property name="meta.media.height">1080</property>
  <property name="mlt_service">qimage</property>
  <property name="kdenlive:clipname"/>
  <property name="kdenlive:duration">00:00:05:00</property>
  <property name="kdenlive:folderid">234</property>
  <property name="kdenlive:id">344</property>
  <property name="kdenlive:clip_type">2</property>
  <property name="kdenlive:file_size">32887</property>
  <property name="kdenlive:file_hash">41f1a47ea23227e6d77b1f5d33ef7b23</property>
 </producer>
 <producer id="producer299" in="00:00:00.000" out="00:01:26.120">
  <property name="length">2154</property>
  <property name="eof">pause</property>
  <property name="resource">quotes/out/marks.png</property>
  <property name="ttl">25</property>
  <property name="aspect_ratio">1</property>
  <property name="progressive">1</property>
  <property name="seekable">1</property>
  <property name="format">2</property>
  <property name="meta.media.width">1920</property>
  <property name="meta.media.height">1080</property>
  <property name="mlt_service">qimage</property>
  <property name="kdenlive:clipname"/>
  <property name="kdenlive:duration">00:00:05:00</property>
  <property name="kdenlive:folderid">345</property>
  <property name="kdenlive:id">346</property>
  <property name="kdenlive:clip_type">2</property>
  <property name="kdenlive:file_size">10018</property>
  <property name="kdenlive:file_hash">091ccb010828d8a63c40a84e44fa552c</property>
 </producer>
 <producer id="producer316" in="00:00:00.000" out="00:00:29.360">
  <property name="length">735</property>
  <property name="eof">pause</property>
  <property name="resource">quotes/out/mothers-basement-c0-q0.png</property>
  <property name="ttl">25</property>
  <property name="aspect_ratio">1</property>
  <property name="progressive">1</property>
  <property name="seekable">1</property>
  <property name="format">2</property>
  <property name="meta.media.width">1920</property>
  <property name="meta.media.height">1080</property>
  <property name="mlt_service">qimage</property>
  <property name="kdenlive:clipname"/>
  <property name="kdenlive:duration">00:00:05:00</property>
  <property name="kdenlive:folderid">345</property>
  <property name="kdenlive:id">347</property>
  <property name="kdenlive:clip_type">2</property>
  <property name="kdenlive:file_size">83784</property>
  <property name="kdenlive:file_hash">0cf855f3989261638ceb120062ae49c8</property>
 </producer>
 <producer id="producer314" in="00:00:00.000" out="00:00:29.360">
  <property name="length">735</property>
  <property name="eof">pause</property>
  <property name="resource">quotes/out/mothers-basement-c0.png</property>
  <property name="ttl">25</property>
  <property name="aspect_ratio">1</property>
  <property name="progressive">1</property>
  <property name="seekable">1</property>
  <property name="format">2</property>
  <property name="meta.media.width">1920</property>
  <property name="meta.media.height">1080</property>
  <property name="mlt_service">qimage</property>
  <property name="kdenlive:clipname"/>
  <property name="kdenlive:duration">00:00:05:00</property>
  <property name="kdenlive:folderid">345</property>
  <property name="kdenlive:id">348</property>
  <property name="kdenlive:clip_type">2</property>
  <property name="kdenlive:file_size">28657</property>
  <property name="kdenlive:file_hash">abec48dee4329dd49201c22edbf37f85</property>
 </producer>
 <producer id="producer307" in="00:00:00.000" out="00:00:29.360">
  <property name="length">735</property>
  <property name="eof">pause</property>
  <property name="resource">quotes/out/mothers-basement-card.png</property>
  <property name="ttl">25</property>
  <property name="aspect_ratio">1</property>
  <property name="progressive">1</property>
  <property name="seekable">1</property>
  <property name="format">2</property>
  <property name="meta.media.width">1920</property>
  <property name="meta.media.height">1080</property>
  <property name="mlt_service">qimage</property>
  <property name="kdenlive:clipname"/>
  <property name="kdenlive:duration">00:00:05:00</property>
  <property name="kdenlive:folderid">345</property>
  <property name="kdenlive:id">349</property>
  <property name="kdenlive:clip_type">2</property>
  <property name="kdenlive:file_size">393471</property>
  <property name="kdenlive:file_hash">35c5bc72de2580e7c78caf583091ed88</property>
 </producer>
 <chain id="chain103" out="00:02:48.920">
  <property name="length">4224</property>
  <property name="eof">pause</property>
  <property name="resource">audio/quotes/ai-art-quote/out/ai anime.mp3</property>
  <property name="mlt_service">avformat</property>
  <property name="meta.media.nb_streams">1</property>
  <property name="meta.media.0.stream.type">audio</property>
  <property name="meta.media.0.codec.sample_fmt">fltp</property>
  <property name="meta.media.0.codec.sample_rate">44100</property>
  <property name="meta.media.0.codec.channels">2</property>
  <property name="meta.media.0.codec.name">mp3float</property>
  <property name="meta.media.0.codec.long_name">MP3 (MPEG audio layer 3)</property>
  <property name="meta.media.0.codec.bit_rate">192000</property>
  <property name="meta.attr.encoded_by.markup">LAME in FL Studio 21</property>
  <property name="meta.attr.date.markup">2023</property>
  <property name="seekable">1</property>
  <property name="audio_index">0</property>
  <property name="video_index">-1</property>
  <property name="kdenlive:clipname"/>
  <property name="kdenlive:clip_type">1</property>
  <property name="kdenlive:folderid">350</property>
  <property name="kdenlive:id">351</property>
  <property name="kdenlive:file_size">4055096</property>
  <property name="kdenlive:file_hash">a7ca7ee94a3ca9ade3805a3be0afc053</property>
  <property name="kdenlive:audio_max0">199</property>
  <property name="mute_on_pause">1</property>
 </chain>
 <chain id="chain104" out="00:00:08.160">
  <property name="length">205</property>
  <property name="eof">pause</property>
  <property name="resource">/home/liquidzulu/Music/sfx/Cassette Tape - Sound Effect [VRwxgYzRTBI].mp3</property>
  <property name="mlt_service">avformat</property>
  <property name="meta.media.nb_streams">1</property>
  <property name="meta.media.0.stream.type">audio</property>
  <property name="meta.media.0.codec.sample_fmt">fltp</property>
  <property name="meta.media.0.codec.sample_rate">48000</property>
  <property name="meta.media.0.codec.channels">2</property>
  <property name="meta.media.0.codec.name">mp3float</property>
  <property name="meta.media.0.codec.long_name">MP3 (MPEG audio layer 3)</property>
  <property name="meta.media.0.codec.bit_rate">81267</property>
  <property name="meta.attr.0.stream.encoder.markup">Lavc59.37</property>
  <property name="meta.attr.encoder.markup">Lavf59.27.100</property>
  <property name="seekable">1</property>
  <property name="audio_index">0</property>
  <property name="video_index">-1</property>
  <property name="kdenlive:clipname"/>
  <property name="kdenlive:clip_type">1</property>
  <property name="kdenlive:folderid">228</property>
  <property name="kdenlive:id">352</property>
  <property name="kdenlive:file_size">83181</property>
  <property name="kdenlive:file_hash">609ccfd5921db7e187374ea8a50424ba</property>
  <property name="kdenlive:audio_max0">171</property>
  <property name="mute_on_pause">1</property>
 </chain>
 <chain id="chain105" out="00:06:30.000">
  <property name="length">9751</property>
  <property name="eof">pause</property>
  <property name="resource">/home/liquidzulu/Music/sfx/Cassette tape hiss (White Noiseâ§¸Hiss) [Free Sample] [SXBbNi03r4c].mp3</property>
  <property name="mlt_service">avformat</property>
  <property name="meta.media.nb_streams">1</property>
  <property name="meta.media.0.stream.type">audio</property>
  <property name="meta.media.0.codec.sample_fmt">fltp</property>
  <property name="meta.media.0.codec.sample_rate">48000</property>
  <property name="meta.media.0.codec.channels">2</property>
  <property name="meta.media.0.codec.name">mp3float</property>
  <property name="meta.media.0.codec.long_name">MP3 (MPEG audio layer 3)</property>
  <property name="meta.media.0.codec.bit_rate">127245</property>
  <property name="meta.attr.0.stream.encoder.markup">Lavc59.37</property>
  <property name="meta.attr.encoder.markup">Lavf59.27.100</property>
  <property name="seekable">1</property>
  <property name="audio_index">0</property>
  <property name="video_index">-1</property>
  <property name="kdenlive:clipname"/>
  <property name="kdenlive:clip_type">1</property>
  <property name="kdenlive:folderid">228</property>
  <property name="kdenlive:id">353</property>
  <property name="kdenlive:file_size">6203997</property>
  <property name="kdenlive:file_hash">c411a878e72b45a34df3f778ea785703</property>
  <property name="kdenlive:audio_max0">137</property>
  <property name="mute_on_pause">1</property>
 </chain>
 <chain id="chain106" out="00:01:04.680">
  <property name="length">1618</property>
  <property name="eof">pause</property>
  <property name="resource">/home/liquidzulu/Music/sfx/Cassette Tape Spinning + Tape Hiss Sound - Analog Effects (1 minute) [mVi7eVQRgH4].mp3</property>
  <property name="mlt_service">avformat</property>
  <property name="meta.media.nb_streams">1</property>
  <property name="meta.media.0.stream.type">audio</property>
  <property name="meta.media.0.codec.sample_fmt">fltp</property>
  <property name="meta.media.0.codec.sample_rate">48000</property>
  <property name="meta.media.0.codec.channels">2</property>
  <property name="meta.media.0.codec.name">mp3float</property>
  <property name="meta.media.0.codec.long_name">MP3 (MPEG audio layer 3)</property>
  <property name="meta.media.0.codec.bit_rate">65282</property>
  <property name="meta.attr.0.stream.encoder.markup">Lavc59.37</property>
  <property name="meta.attr.encoder.markup">Lavf59.27.100</property>
  <property name="seekable">1</property>
  <property name="audio_index">0</property>
  <property name="video_index">-1</property>
  <property name="kdenlive:clipname"/>
  <property name="kdenlive:clip_type">1</property>
  <property name="kdenlive:folderid">228</property>
  <property name="kdenlive:id">354</property>
  <property name="kdenlive:file_size">528045</property>
  <property name="kdenlive:file_hash">8d059ee10b765f2ce3fb75636759334a</property>
  <property name="kdenlive:audio_max0">104</property>
  <property name="mute_on_pause">1</property>
 </chain>
 <producer id="producer320" in="00:00:00.000" out="00:00:12.240">
  <property name="length">00:00:12.280</property>
  <property name="eof">pause</property>
  <property name="resource">/home/liquidzulu/Pictures/yt/animation/output/project/quote/.all.png</property>
  <property name="ttl">1</property>
  <property name="aspect_ratio">1</property>
  <property name="progressive">1</property>
  <property name="seekable">1</property>
  <property name="format">2</property>
  <property name="meta.media.width">1920</property>
  <property name="meta.media.height">1080</property>
  <property name="mlt_service">qimage</property>
  <property name="kdenlive:clipname">quote squiggly</property>
  <property name="low-pass">0</property>
  <property name="animation"/>
  <property name="luma_file"/>
  <property name="luma_duration">25</property>
  <property name="fade">0</property>
  <property name="crop">0</property>
  <property name="softness">0</property>
  <property name="loop">1</property>
  <property name="kdenlive:duration">00:00:12:07</property>
  <property name="kdenlive:folderid">218</property>
  <property name="kdenlive:id">355</property>
  <property name="kdenlive:clip_type">2</property>
  <property name="kdenlive:file_hash">a72510309878a1a9ce8894c74701e9a8</property>
 </producer>
 <chain id="chain107" out="00:02:47.720">
  <property name="length">4194</property>
  <property name="eof">pause</property>
  <property name="resource">/home/liquidzulu/Music/lemmino/Blackout [885933916].flac</property>
  <property name="mlt_service">avformat</property>
  <property name="meta.media.nb_streams">1</property>
  <property name="meta.media.0.stream.type">audio</property>
  <property name="meta.media.0.codec.sample_fmt">s16</property>
  <property name="meta.media.0.codec.sample_rate">48000</property>
  <property name="meta.media.0.codec.channels">2</property>
  <property name="meta.media.0.codec.name">flac</property>
  <property name="meta.media.0.codec.long_name">FLAC (Free Lossless Audio Codec)</property>
  <property name="meta.media.0.codec.bit_rate">0</property>
  <property name="seekable">1</property>
  <property name="audio_index">0</property>
  <property name="video_index">-1</property>
  <property name="kdenlive:clipname"/>
  <property name="kdenlive:clip_type">1</property>
  <property name="kdenlive:folderid">5</property>
  <property name="kdenlive:id">356</property>
  <property name="kdenlive:file_size">10387741</property>
  <property name="kdenlive:file_hash">86ca7ab3317fa7dfdd1c0f16f0cbd8a6</property>
  <property name="kdenlive:audio_max0">239</property>
  <property name="mute_on_pause">1</property>
 </chain>
 <chain id="chain108" out="00:00:49.840">
  <property name="length">1247</property>
  <property name="eof">pause</property>
  <property name="resource">videos/midjourney-spiral.mkv</property>
  <property name="mlt_service">avformat-novalidate</property>
  <property name="meta.media.nb_streams">2</property>
  <property name="meta.media.0.stream.type">video</property>
  <property name="meta.media.0.stream.frame_rate">60</property>
  <property name="meta.media.0.stream.sample_aspect_ratio">0</property>
  <property name="meta.media.0.codec.width">1920</property>
  <property name="meta.media.0.codec.height">1080</property>
  <property name="meta.media.0.codec.rotate">0</property>
  <property name="meta.media.0.codec.pix_fmt">yuv420p</property>
  <property name="meta.media.0.codec.sample_aspect_ratio">1</property>
  <property name="meta.media.0.codec.colorspace">709</property>
  <property name="meta.media.0.codec.color_trc">1</property>
  <property name="meta.media.0.codec.name">h264</property>
  <property name="meta.media.0.codec.long_name">H.264 / AVC / MPEG-4 AVC / MPEG-4 part 10</property>
  <property name="meta.media.0.codec.bit_rate">0</property>
  <property name="meta.attr.0.stream.DURATION.markup">00:00:49.867000000</property>
  <property name="meta.media.1.stream.type">audio</property>
  <property name="meta.media.1.codec.sample_fmt">fltp</property>
  <property name="meta.media.1.codec.sample_rate">48000</property>
  <property name="meta.media.1.codec.channels">2</property>
  <property name="meta.media.1.codec.name">aac</property>
  <property name="meta.media.1.codec.long_name">AAC (Advanced Audio Coding)</property>
  <property name="meta.media.1.codec.bit_rate">0</property>
  <property name="meta.attr.1.stream.title.markup">simple_aac_recording</property>
  <property name="meta.attr.1.stream.DURATION.markup">00:00:49.813000000</property>
  <property name="meta.attr.ENCODER.markup">Lavf59.27.100</property>
  <property name="seekable">1</property>
  <property name="meta.media.sample_aspect_num">1</property>
  <property name="meta.media.sample_aspect_den">1</property>
  <property name="format">3</property>
  <property name="audio_index">-1</property>
  <property name="video_index">0</property>
  <property name="meta.media.frame_rate_num">60</property>
  <property name="meta.media.frame_rate_den">1</property>
  <property name="meta.media.colorspace">709</property>
  <property name="meta.media.color_trc">1</property>
  <property name="meta.media.has_b_frames">2</property>
  <property name="meta.media.width">1920</property>
  <property name="meta.media.height">1080</property>
  <property name="meta.media.color_range">mpeg</property>
  <property name="kdenlive:clipname"/>
  <property name="meta.media.top_field_first">0</property>
  <property name="meta.media.progressive">1</property>
  <property name="kdenlive:clip_type">0</property>
  <property name="kdenlive:folderid">14</property>
  <property name="kdenlive:id">357</property>
  <property name="kdenlive:file_size">60083409</property>
  <property name="kdenlive:file_hash">272f2092c4825870e4f82e45930fefd7</property>
  <property name="kdenlive:audio_max1">1</property>
  <property name="kdenlive:active_streams">-1</property>
  <property name="set.test_audio">1</property>
  <property name="mute_on_pause">1</property>
 </chain>
 <chain id="chain109" out="00:00:15.000">
  <property name="length">376</property>
  <property name="eof">pause</property>
  <property name="resource">videos/image-to-image.mkv</property>
  <property name="mlt_service">avformat-novalidate</property>
  <property name="meta.media.nb_streams">2</property>
  <property name="meta.media.0.stream.type">video</property>
  <property name="meta.media.0.stream.frame_rate">60</property>
  <property name="meta.media.0.stream.sample_aspect_ratio">0</property>
  <property name="meta.media.0.codec.width">1920</property>
  <property name="meta.media.0.codec.height">1080</property>
  <property name="meta.media.0.codec.rotate">0</property>
  <property name="meta.media.0.codec.pix_fmt">yuv420p</property>
  <property name="meta.media.0.codec.sample_aspect_ratio">1</property>
  <property name="meta.media.0.codec.colorspace">709</property>
  <property name="meta.media.0.codec.color_trc">1</property>
  <property name="meta.media.0.codec.name">h264</property>
  <property name="meta.media.0.codec.long_name">H.264 / AVC / MPEG-4 AVC / MPEG-4 part 10</property>
  <property name="meta.media.0.codec.bit_rate">0</property>
  <property name="meta.attr.0.stream.DURATION.markup">00:00:15.050000000</property>
  <property name="meta.media.1.stream.type">audio</property>
  <property name="meta.media.1.codec.sample_fmt">fltp</property>
  <property name="meta.media.1.codec.sample_rate">48000</property>
  <property name="meta.media.1.codec.channels">2</property>
  <property name="meta.media.1.codec.name">aac</property>
  <property name="meta.media.1.codec.long_name">AAC (Advanced Audio Coding)</property>
  <property name="meta.media.1.codec.bit_rate">0</property>
  <property name="meta.attr.1.stream.title.markup">simple_aac_recording</property>
  <property name="meta.attr.1.stream.DURATION.markup">00:00:15.018000000</property>
  <property name="meta.attr.ENCODER.markup">Lavf59.27.100</property>
  <property name="seekable">1</property>
  <property name="meta.media.sample_aspect_num">1</property>
  <property name="meta.media.sample_aspect_den">1</property>
  <property name="format">3</property>
  <property name="audio_index">-1</property>
  <property name="video_index">0</property>
  <property name="meta.media.frame_rate_num">60</property>
  <property name="meta.media.frame_rate_den">1</property>
  <property name="meta.media.colorspace">709</property>
  <property name="meta.media.color_trc">1</property>
  <property name="meta.media.has_b_frames">2</property>
  <property name="meta.media.width">1920</property>
  <property name="meta.media.height">1080</property>
  <property name="meta.media.color_range">mpeg</property>
  <property name="kdenlive:clipname"/>
  <property name="meta.media.top_field_first">0</property>
  <property name="meta.media.progressive">1</property>
  <property name="kdenlive:clip_type">0</property>
  <property name="kdenlive:folderid">14</property>
  <property name="kdenlive:id">358</property>
  <property name="kdenlive:file_size">1771158</property>
  <property name="kdenlive:file_hash">bdf575ab2ae02fce75992a706a0097e1</property>
  <property name="kdenlive:audio_max1">1</property>
  <property name="kdenlive:active_streams">-1</property>
  <property name="set.test_audio">1</property>
  <property name="mute_on_pause">1</property>
 </chain>
 <producer id="producer300" in="00:00:00.000" out="00:00:18.440">
  <property name="length">462</property>
  <property name="eof">pause</property>
  <property name="progressive">1</property>
  <property name="aspect_ratio">1</property>
  <property name="seekable">1</property>
  <property name="mlt_service">kdenlivetitle</property>
  <property name="kdenlive:duration">00:00:05:00</property>
  <property name="kdenlive:clipname">"their own c...</property>
  <property name="xmldata">&lt;kdenlivetitle duration="125" LC_NUMERIC="C" width="1920" height="1080" out="124">
 &lt;item type="QGraphicsTextItem" z-index="0">
  &lt;position x="98" y="336">
   &lt;transform>1,0,0,0,1,0,0,0,1&lt;/transform>
  &lt;/position>
  &lt;content line-spacing="0" shadow="0;#64000000;3;3;3" font-underline="0" box-height="408" font-outline-color="0,0,0,255" font="Cubano" letter-spacing="0" font-pixel-size="85" font-italic="0" typewriter="0;2;1;0;0" alignment="4" font-weight="50" font-outline="5" box-width="1724.77" font-color="255,255,255,255">"their own creative interpretation"

"based on their [...] experiences studying
other peoples art"&lt;/content>
 &lt;/item>
 &lt;startviewport rect="0,0,1920,1080"/>
 &lt;endviewport rect="0,0,1920,1080"/>
 &lt;background color="0,0,0,0"/>
&lt;/kdenlivetitle>
</property>
  <property name="kdenlive:folderid">21</property>
  <property name="kdenlive:id">359</property>
  <property name="kdenlive:clip_type">2</property>
  <property name="force_reload">0</property>
  <property name="meta.media.width">1920</property>
  <property name="meta.media.height">1080</property>
  <property name="kdenlive:file_hash">a18be21519dbe22714a3cd16046b6b13</property>
 </producer>
 <producer id="producer291" in="00:00:00.000" out="00:00:13.240">
  <property name="length">332</property>
  <property name="eof">pause</property>
  <property name="progressive">1</property>
  <property name="aspect_ratio">1</property>
  <property name="seekable">1</property>
  <property name="mlt_service">kdenlivetitle</property>
  <property name="kdenlive:duration">00:00:05:00</property>
  <property name="kdenlive:clipname">"aping"</property>
  <property name="xmldata">&lt;kdenlivetitle duration="125" LC_NUMERIC="C" width="1920" height="1080" out="124">
 &lt;item type="QGraphicsTextItem" z-index="0">
  &lt;position x="815" y="489">
   &lt;transform>1,0,0,0,1,0,0,0,1&lt;/transform>
  &lt;/position>
  &lt;content line-spacing="0" shadow="0;#64000000;3;3;3" font-underline="0" box-height="102" font-outline-color="0,0,0,255" font="Cubano" letter-spacing="0" font-pixel-size="85" font-italic="0" typewriter="0;2;1;0;0" alignment="4" font-weight="50" font-outline="5" box-width="289.641" font-color="255,255,255,255">"aping"&lt;/content>
 &lt;/item>
 &lt;startviewport rect="0,0,1920,1080"/>
 &lt;endviewport rect="0,0,1920,1080"/>
 &lt;background color="0,0,0,0"/>
&lt;/kdenlivetitle>
</property>
  <property name="kdenlive:folderid">21</property>
  <property name="kdenlive:id">360</property>
  <property name="kdenlive:clip_type">2</property>
  <property name="force_reload">0</property>
  <property name="meta.media.width">1920</property>
  <property name="meta.media.height">1080</property>
  <property name="kdenlive:file_hash">28ad444e50e4318729f406b259d7e5a1</property>
 </producer>
 <producer id="producer321" in="00:00:00.000" out="00:00:19.680">
  <property name="length">00:00:19.720</property>
  <property name="eof">pause</property>
  <property name="resource">/home/liquidzulu/Pictures/yt/animation/output/project/footnotes/footnote-7/.all.png</property>
  <property name="ttl">1</property>
  <property name="aspect_ratio">1</property>
  <property name="progressive">1</property>
  <property name="seekable">1</property>
  <property name="format">2</property>
  <property name="meta.media.width">1920</property>
  <property name="meta.media.height">1080</property>
  <property name="mlt_service">qimage</property>
  <property name="kdenlive:clipname">footnote-7</property>
  <property name="low-pass">0</property>
  <property name="animation"/>
  <property name="luma_file"/>
  <property name="luma_duration">25</property>
  <property name="fade">0</property>
  <property name="crop">0</property>
  <property name="softness">0</property>
  <property name="loop">0</property>
  <property name="kdenlive:duration">00:00:19:18</property>
  <property name="kdenlive:folderid">273</property>
  <property name="kdenlive:id">361</property>
  <property name="kdenlive:clip_type">2</property>
  <property name="kdenlive:file_hash">7dcac70fb4f51cd264739cac890d76ab</property>
 </producer>
 <chain id="chain110" out="00:16:49.280">
  <property name="length">25233</property>
  <property name="eof">pause</property>
  <property name="resource">b-roll/FIVERR Vs AI - Is this the END for ARTISTSï¼Ÿ... [5GO2xKmZsVo].webm</property>
  <property name="mlt_service">avformat-novalidate</property>
  <property name="meta.media.nb_streams">2</property>
  <property name="meta.media.0.stream.type">video</property>
  <property name="meta.media.0.stream.frame_rate">29.9721</property>
  <property name="meta.media.0.stream.sample_aspect_ratio">1</property>
  <property name="meta.media.0.codec.width">1920</property>
  <property name="meta.media.0.codec.height">1080</property>
  <property name="meta.media.0.codec.rotate">0</property>
  <property name="meta.media.0.codec.pix_fmt">yuv420p</property>
  <property name="meta.media.0.codec.sample_aspect_ratio">0</property>
  <property name="meta.media.0.codec.colorspace">709</property>
  <property name="meta.media.0.codec.color_trc">1</property>
  <property name="meta.media.0.codec.name">vp9</property>
  <property name="meta.media.0.codec.long_name">Google VP9</property>
  <property name="meta.media.0.codec.bit_rate">0</property>
  <property name="meta.attr.0.stream.HANDLER_NAME.markup">ISO Media file produced by Google Inc. Created on: 12/13/2023.</property>
  <property name="meta.attr.0.stream.VENDOR_ID.markup">[0][0][0][0]</property>
  <property name="meta.attr.0.stream.DURATION.markup">00:16:49.274000000</property>
  <property name="meta.media.1.stream.type">audio</property>
  <property name="meta.media.1.codec.sample_fmt">fltp</property>
  <property name="meta.media.1.codec.sample_rate">48000</property>
  <property name="meta.media.1.codec.channels">2</property>
  <property name="meta.media.1.codec.name">opus</property>
  <property name="meta.media.1.codec.long_name">Opus</property>
  <property name="meta.media.1.codec.bit_rate">0</property>
  <property name="meta.attr.1.stream.language.markup">eng</property>
  <property name="meta.attr.1.stream.DURATION.markup">00:16:49.301000000</property>
  <property name="meta.attr.COMPATIBLE_BRANDS.markup">iso6mp41</property>
  <property name="meta.attr.MAJOR_BRAND.markup">dash</property>
  <property name="meta.attr.MINOR_VERSION.markup">0</property>
  <property name="meta.attr.ENCODER.markup">Lavf59.27.100</property>
  <property name="seekable">1</property>
  <property name="meta.media.sample_aspect_num">1</property>
  <property name="meta.media.sample_aspect_den">1</property>
  <property name="format">3</property>
  <property name="audio_index">-1</property>
  <property name="video_index">0</property>
  <property name="meta.media.frame_rate_num">28983</property>
  <property name="meta.media.frame_rate_den">967</property>
  <property name="meta.media.colorspace">709</property>
  <property name="meta.media.color_trc">1</property>
  <property name="meta.media.has_b_frames">0</property>
  <property name="meta.media.width">1920</property>
  <property name="meta.media.height">1080</property>
  <property name="meta.media.color_range">mpeg</property>
  <property name="kdenlive:clipname"/>
  <property name="meta.media.top_field_first">0</property>
  <property name="meta.media.progressive">1</property>
  <property name="kdenlive:clip_type">0</property>
  <property name="kdenlive:folderid">14</property>
  <property name="kdenlive:id">362</property>
  <property name="kdenlive:file_size">215803405</property>
  <property name="kdenlive:file_hash">7a307b29baf2841c0c40f2c027416198</property>
  <property name="kdenlive:audio_max1">201</property>
  <property name="kdenlive:active_streams">-1</property>
  <property name="set.test_audio">1</property>
  <property name="mute_on_pause">1</property>
 </chain>
 <producer id="producer276" in="00:00:00.000" out="00:00:33.400">
  <property name="length">836</property>
  <property name="eof">pause</property>
  <property name="resource">citations/citations-jazza.png</property>
  <property name="ttl">25</property>
  <property name="aspect_ratio">1</property>
  <property name="progressive">1</property>
  <property name="seekable">1</property>
  <property name="format">2</property>
  <property name="meta.media.width">1920</property>
  <property name="meta.media.height">1080</property>
  <property name="mlt_service">qimage</property>
  <property name="kdenlive:clipname"/>
  <property name="kdenlive:duration">00:00:05:00</property>
  <property name="kdenlive:folderid">234</property>
  <property name="kdenlive:id">363</property>
  <property name="kdenlive:clip_type">2</property>
  <property name="kdenlive:file_size">24270</property>
  <property name="kdenlive:file_hash">5108fb9a18b0f152f68bdf2825b7cbe6</property>
 </producer>
 <producer id="producer322" in="00:00:00.000" out="00:00:19.680">
  <property name="length">00:00:19.720</property>
  <property name="eof">pause</property>
  <property name="resource">/home/liquidzulu/Pictures/yt/animation/output/project/footnotes/footnote-8/.all.png</property>
  <property name="ttl">1</property>
  <property name="aspect_ratio">1</property>
  <property name="progressive">1</property>
  <property name="seekable">1</property>
  <property name="format">2</property>
  <property name="meta.media.width">1920</property>
  <property name="meta.media.height">1080</property>
  <property name="mlt_service">qimage</property>
  <property name="kdenlive:clipname">footnote-8</property>
  <property name="low-pass">0</property>
  <property name="animation"/>
  <property name="luma_file"/>
  <property name="luma_duration">25</property>
  <property name="fade">0</property>
  <property name="crop">0</property>
  <property name="softness">0</property>
  <property name="loop">0</property>
  <property name="kdenlive:duration">00:00:19:18</property>
  <property name="kdenlive:folderid">273</property>
  <property name="kdenlive:id">364</property>
  <property name="kdenlive:clip_type">2</property>
  <property name="kdenlive:file_hash">8002157be14e4cbc7236ec61bd19f7b1</property>
 </producer>
 <chain id="chain111" out="02:19:44.640">
  <property name="length">209617</property>
  <property name="eof">pause</property>
  <property name="resource">b-roll/The AI Art Apocalypse [9xJCzKdPyCo].webm</property>
  <property name="mlt_service">avformat-novalidate</property>
  <property name="meta.media.nb_streams">2</property>
  <property name="meta.media.0.stream.type">video</property>
  <property name="meta.media.0.stream.frame_rate">30.0014</property>
  <property name="meta.media.0.stream.sample_aspect_ratio">1</property>
  <property name="meta.media.0.codec.width">1920</property>
  <property name="meta.media.0.codec.height">1080</property>
  <property name="meta.media.0.codec.rotate">0</property>
  <property name="meta.media.0.codec.pix_fmt">yuv420p</property>
  <property name="meta.media.0.codec.sample_aspect_ratio">0</property>
  <property name="meta.media.0.codec.colorspace">709</property>
  <property name="meta.media.0.codec.color_trc">1</property>
  <property name="meta.media.0.codec.name">vp9</property>
  <property name="meta.media.0.codec.long_name">Google VP9</property>
  <property name="meta.media.0.codec.bit_rate">0</property>
  <property name="meta.attr.0.stream.HANDLER_NAME.markup">ISO Media file produced by Google Inc. Created on: 12/13/2023.</property>
  <property name="meta.attr.0.stream.VENDOR_ID.markup">[0][0][0][0]</property>
  <property name="meta.attr.0.stream.DURATION.markup">02:19:44.633000000</property>
  <property name="meta.media.1.stream.type">audio</property>
  <property name="meta.media.1.codec.sample_fmt">fltp</property>
  <property name="meta.media.1.codec.sample_rate">48000</property>
  <property name="meta.media.1.codec.channels">2</property>
  <property name="meta.media.1.codec.name">opus</property>
  <property name="meta.media.1.codec.long_name">Opus</property>
  <property name="meta.media.1.codec.bit_rate">0</property>
  <property name="meta.attr.1.stream.language.markup">eng</property>
  <property name="meta.attr.1.stream.DURATION.markup">02:19:44.661000000</property>
  <property name="meta.attr.COMPATIBLE_BRANDS.markup">iso6mp41</property>
  <property name="meta.attr.MAJOR_BRAND.markup">dash</property>
  <property name="meta.attr.MINOR_VERSION.markup">0</property>
  <property name="meta.attr.ENCODER.markup">Lavf59.27.100</property>
  <property name="seekable">1</property>
  <property name="meta.media.sample_aspect_num">1</property>
  <property name="meta.media.sample_aspect_den">1</property>
  <property name="format">3</property>
  <property name="audio_index">-1</property>
  <property name="video_index">0</property>
  <property name="meta.media.frame_rate_num">20731</property>
  <property name="meta.media.frame_rate_den">691</property>
  <property name="meta.media.colorspace">709</property>
  <property name="meta.media.color_trc">1</property>
  <property name="meta.media.has_b_frames">0</property>
  <property name="meta.media.width">1920</property>
  <property name="meta.media.height">1080</property>
  <property name="meta.media.color_range">mpeg</property>
  <property name="kdenlive:clipname"/>
  <property name="meta.media.top_field_first">0</property>
  <property name="meta.media.progressive">1</property>
  <property name="kdenlive:clip_type">0</property>
  <property name="kdenlive:folderid">14</property>
  <property name="kdenlive:id">365</property>
  <property name="kdenlive:file_size">4027317975</property>
  <property name="kdenlive:file_hash">e408905833831dabbb04220cf044b0c6</property>
  <property name="kdenlive:audio_max1">255</property>
  <property name="kdenlive:active_streams">-1</property>
  <property name="set.test_audio">1</property>
  <property name="mute_on_pause">1</property>
 </chain>
 <producer id="producer277" in="00:00:00.000" out="00:01:02.160">
  <property name="length">1555</property>
  <property name="eof">pause</property>
  <property name="resource">citations/citations-hello-future-me.png</property>
  <property name="ttl">25</property>
  <property name="aspect_ratio">1</property>
  <property name="progressive">1</property>
  <property name="seekable">1</property>
  <property name="format">2</property>
  <property name="meta.media.width">1920</property>
  <property name="meta.media.height">1080</property>
  <property name="mlt_service">qimage</property>
  <property name="kdenlive:clipname"/>
  <property name="kdenlive:duration">00:00:05:00</property>
  <property name="kdenlive:folderid">234</property>
  <property name="kdenlive:id">366</property>
  <property name="kdenlive:clip_type">2</property>
  <property name="kdenlive:file_size">22720</property>
  <property name="kdenlive:file_hash">bc70d763e78a26f6719fb936e44882d2</property>
 </producer>
 <producer id="producer323" in="00:00:00.000" out="00:00:19.680">
  <property name="length">00:00:19.720</property>
  <property name="eof">pause</property>
  <property name="resource">/home/liquidzulu/Pictures/yt/animation/output/project/footnotes/footnote-9/.all.png</property>
  <property name="ttl">1</property>
  <property name="aspect_ratio">1</property>
  <property name="progressive">1</property>
  <property name="seekable">1</property>
  <property name="format">2</property>
  <property name="meta.media.width">1920</property>
  <property name="meta.media.height">1080</property>
  <property name="mlt_service">qimage</property>
  <property name="kdenlive:clipname">footnote-9</property>
  <property name="low-pass">0</property>
  <property name="animation"/>
  <property name="luma_file"/>
  <property name="luma_duration">25</property>
  <property name="fade">0</property>
  <property name="crop">0</property>
  <property name="softness">0</property>
  <property name="loop">0</property>
  <property name="kdenlive:duration">00:00:19:18</property>
  <property name="kdenlive:folderid">273</property>
  <property name="kdenlive:id">367</property>
  <property name="kdenlive:clip_type">2</property>
  <property name="kdenlive:file_hash">9d238de51fe6a8fc293741c6022b7b2f</property>
 </producer>
 <producer id="producer324" in="00:00:00.000" out="00:00:19.680">
  <property name="length">00:00:19.720</property>
  <property name="eof">pause</property>
  <property name="resource">/home/liquidzulu/Pictures/yt/animation/output/project/footnotes/footnote-10/.all.png</property>
  <property name="ttl">1</property>
  <property name="aspect_ratio">1</property>
  <property name="progressive">1</property>
  <property name="seekable">1</property>
  <property name="format">2</property>
  <property name="meta.media.width">1920</property>
  <property name="meta.media.height">1080</property>
  <property name="mlt_service">qimage</property>
  <property name="kdenlive:clipname">footnote-10</property>
  <property name="low-pass">0</property>
  <property name="animation"/>
  <property name="luma_file"/>
  <property name="luma_duration">25</property>
  <property name="fade">0</property>
  <property name="crop">0</property>
  <property name="softness">0</property>
  <property name="loop">0</property>
  <property name="kdenlive:duration">00:00:19:18</property>
  <property name="kdenlive:folderid">273</property>
  <property name="kdenlive:id">368</property>
  <property name="kdenlive:clip_type">2</property>
  <property name="kdenlive:file_hash">92af0d8b48cfc99584ec7fa7227134b2</property>
 </producer>
 <chain id="chain112" out="00:03:15.880">
  <property name="length">4898</property>
  <property name="eof">pause</property>
  <property name="resource">b-roll/The BIGGEST LIE about Ai ART [8eokIcRWzBo].webm</property>
  <property name="mlt_service">avformat-novalidate</property>
  <property name="meta.media.nb_streams">2</property>
  <property name="meta.media.0.stream.type">video</property>
  <property name="meta.media.0.stream.frame_rate">25</property>
  <property name="meta.media.0.stream.sample_aspect_ratio">1</property>
  <property name="meta.media.0.codec.width">1920</property>
  <property name="meta.media.0.codec.height">1080</property>
  <property name="meta.media.0.codec.rotate">0</property>
  <property name="meta.media.0.codec.pix_fmt">yuv420p</property>
  <property name="meta.media.0.codec.sample_aspect_ratio">0</property>
  <property name="meta.media.0.codec.colorspace">709</property>
  <property name="meta.media.0.codec.color_trc">1</property>
  <property name="meta.media.0.codec.name">vp9</property>
  <property name="meta.media.0.codec.long_name">Google VP9</property>
  <property name="meta.media.0.codec.bit_rate">0</property>
  <property name="meta.attr.0.stream.HANDLER_NAME.markup">ISO Media file produced by Google Inc. Created on: 12/13/2023.</property>
  <property name="meta.attr.0.stream.VENDOR_ID.markup">[0][0][0][0]</property>
  <property name="meta.attr.0.stream.DURATION.markup">00:03:15.880000000</property>
  <property name="meta.media.1.stream.type">audio</property>
  <property name="meta.media.1.codec.sample_fmt">fltp</property>
  <property name="meta.media.1.codec.sample_rate">48000</property>
  <property name="meta.media.1.codec.channels">2</property>
  <property name="meta.media.1.codec.name">opus</property>
  <property name="meta.media.1.codec.long_name">Opus</property>
  <property name="meta.media.1.codec.bit_rate">0</property>
  <property name="meta.attr.1.stream.language.markup">eng</property>
  <property name="meta.attr.1.stream.DURATION.markup">00:03:15.901000000</property>
  <property name="meta.attr.COMPATIBLE_BRANDS.markup">iso6mp41</property>
  <property name="meta.attr.MAJOR_BRAND.markup">dash</property>
  <property name="meta.attr.MINOR_VERSION.markup">0</property>
  <property name="meta.attr.ENCODER.markup">Lavf59.27.100</property>
  <property name="seekable">1</property>
  <property name="meta.media.sample_aspect_num">1</property>
  <property name="meta.media.sample_aspect_den">1</property>
  <property name="format">3</property>
  <property name="audio_index">-1</property>
  <property name="video_index">0</property>
  <property name="meta.media.frame_rate_num">25</property>
  <property name="meta.media.frame_rate_den">1</property>
  <property name="meta.media.colorspace">709</property>
  <property name="meta.media.color_trc">1</property>
  <property name="meta.media.has_b_frames">0</property>
  <property name="meta.media.width">1920</property>
  <property name="meta.media.height">1080</property>
  <property name="meta.media.color_range">mpeg</property>
  <property name="kdenlive:clipname"/>
  <property name="meta.media.top_field_first">0</property>
  <property name="meta.media.progressive">1</property>
  <property name="kdenlive:clip_type">0</property>
  <property name="kdenlive:folderid">14</property>
  <property name="kdenlive:id">369</property>
  <property name="kdenlive:file_size">43586643</property>
  <property name="kdenlive:file_hash">42992dbde666a7007b6109bc0d631e65</property>
  <property name="kdenlive:audio_max1">152</property>
  <property name="kdenlive:active_streams">-1</property>
  <property name="set.test_audio">1</property>
  <property name="mute_on_pause">1</property>
 </chain>
 <producer id="producer279" in="00:00:00.000" out="00:00:46.080">
  <property name="length">1153</property>
  <property name="eof">pause</property>
  <property name="resource">citations/citations-shadiversity-biggest-lie.png</property>
  <property name="ttl">25</property>
  <property name="aspect_ratio">1</property>
  <property name="progressive">1</property>
  <property name="seekable">1</property>
  <property name="format">2</property>
  <property name="meta.media.width">1920</property>
  <property name="meta.media.height">1080</property>
  <property name="mlt_service">qimage</property>
  <property name="kdenlive:clipname"/>
  <property name="kdenlive:duration">00:00:05:00</property>
  <property name="kdenlive:folderid">234</property>
  <property name="kdenlive:id">370</property>
  <property name="kdenlive:clip_type">2</property>
  <property name="kdenlive:file_size">26269</property>
  <property name="kdenlive:file_hash">2349dfec4c57cad6203302d6763642f2</property>
 </producer>
 <chain id="chain113" out="00:03:38.720">
  <property name="length">5469</property>
  <property name="eof">pause</property>
  <property name="resource">/home/liquidzulu/Music/lemmino/LEMMiNO - Moon [174866750].mp3</property>
  <property name="mlt_service">avformat</property>
  <property name="meta.media.nb_streams">1</property>
  <property name="meta.media.0.stream.type">audio</property>
  <property name="meta.media.0.codec.sample_fmt">fltp</property>
  <property name="meta.media.0.codec.sample_rate">44100</property>
  <property name="meta.media.0.codec.channels">2</property>
  <property name="meta.media.0.codec.name">mp3float</property>
  <property name="meta.media.0.codec.long_name">MP3 (MPEG audio layer 3)</property>
  <property name="meta.media.0.codec.bit_rate">192000</property>
  <property name="meta.attr.genre.markup">Blues</property>
  <property name="meta.attr.id3v2_priv.XMP.markup">&lt;?xpacket begin="\xef\xbb\xbf" id="W5M0MpCehiHzreSzNTczkc9d"?>\x0a&lt;x:xmpmeta xmlns:x="adobe:ns:meta/" x:xmptk="Adobe XMP Core 5.6-c014 79.156821, 2014/08/29-03:07:50        ">\x0a &lt;rdf:RDF xmlns:rdf="http://www.w3.org/1999/02/22-rdf-syntax-ns#">\x0a  &lt;rdf:Description rdf:about=""\x0a    xmlns:xmp="http://ns.adobe.com/xap/1.0/"\x0a    xmlns:xmpDM="http://ns.adobe.com/xmp/1.0/DynamicMedia/"\x0a    xmlns:xmpMM="http://ns.adobe.com/xap/1.0/mm/"\x0a    xmlns:stEvt="http://ns.adobe.com/xap/1.0/sType/ResourceEvent#"\x0a    xmlns:stRef="http://ns.adobe.com/xap/1.0/sType/ResourceRef#"\x0a    xmlns:dc="http://purl.org/dc/elements/1.1/"\x0a   xmp:CreatorTool="FL Studio 11"\x0a   xmp:MetadataDate="2014-10-28T16:32:55+01:00"\x0a   xmp:ModifyDate="2014-10-28T16:32:55+01:00"\x0a   xmpMM:InstanceID="xmp.iid:b1326144-a3b4-e24f-a900-5f9dab5b60e7"\x0a   xmpMM:DocumentID="xmp.did:b1326144-a3b4-e24f-a900-5f9dab5b60e7"\x0a   xmpMM:OriginalDocumentID="xmp.did:cd08a12f-63cd-ae40-8a8f-bfa02541be6e"\x0a   dc:format="audio/mpeg">\x0a   &lt;xmpDM:Tracks>\x0a    &lt;rdf:Bag>\x0a     &lt;rdf:li\x0a      xmpDM:trackName="CuePoint Markers"\x0a      xmpDM:trackType="Cue"\x0a      xmpDM:frameRate="f44100"/>\x0a     &lt;rdf:li\x0a      xmpDM:trackName="CD Track Markers"\x0a      xmpDM:trackType="Track"\x0a      xmpDM:frameRate="f44100"/>\x0a     &lt;rdf:li\x0a      xmpDM:trackName="Subclip Markers"\x0a      xmpDM:trackType="InOut"\x0a      xmpDM:frameRate="f44100"/>\x0a    &lt;/rdf:Bag>\x0a   &lt;/xmpDM:Tracks>\x0a   &lt;xmpMM:History>\x0a    &lt;rdf:Seq>\x0a     &lt;rdf:li\x0a      stEvt:action="saved"\x0a      stEvt:instanceID="xmp.iid:cd08a12f-63cd-ae40-8a8f-bfa02541be6e"\x0a      stEvt:when="2014-10-28T16:32:55+01:00"\x0a      stEvt:softwareAgent="Adobe Audition CC 2014.1 (Windows)"\x0a      stEvt:changed="/metadata"/>\x0a     &lt;rdf:li\x0a      stEvt:action="saved"\x0a      stEvt:instanceID="xmp.iid:b1326144-a3b4-e24f-a900-5f9dab5b60e7"\x0a      stEvt:when="2014-10-28T16:32:55+01:00"\x0a      stEvt:softwareAgent="Adobe Audition CC 2014.1 (Windows)"\x0a      stEvt:changed="/"/>\x0a    &lt;/rdf:Seq>\x0a   &lt;/xmpMM:History>\x0a   &lt;xmpMM:DerivedFrom\x0a    stRef:instanceID="xmp.iid:cd08a12f-63cd-ae40-8a8f-bfa02541be6e"\x0a    stRef:documentID="xmp.did:cd08a12f-63cd-ae40-8a8f-bfa02541be6e"\x0a    stRef:originalDocumentID="xmp.did:cd08a12f-63cd-ae40-8a8f-bfa02541be6e"/>\x0a  &lt;/rdf:Description>\x0a &lt;/rdf:RDF>\x0a&lt;/x:xmpmeta>\x0a                                                                                                    \x0a                                                                                                    \x0a                                                                                                    \x0a                                                                                                    \x0a                                                                                                    \x0a                                                                                                    \x0a                                                                                                    \x0a                                                                                                    \x0a                                                                                                    \x0a                                                                                                    \x0a                                                                                                    \x0a                                                                                                    \x0a                                                                                                    \x0a                                                                                                    \x0a                                                                                                    \x0a                                                                                                    \x0a                                                                                                    \x0a                                                                                                    \x0a                                                                                                    \x0a                                                                                                    \x0a                           \x0a&lt;?xpacket end="w"?>\x00</property>
  <property name="seekable">1</property>
  <property name="audio_index">0</property>
  <property name="video_index">-1</property>
  <property name="kdenlive:clipname"/>
  <property name="kdenlive:clip_type">1</property>
  <property name="kdenlive:folderid">5</property>
  <property name="kdenlive:id">371</property>
  <property name="kdenlive:file_size">5256126</property>
  <property name="kdenlive:file_hash">b1a4a964586f7963ae2bac6d77c4e40b</property>
  <property name="kdenlive:audio_max0">230</property>
  <property name="mute_on_pause">1</property>
 </chain>
 <producer id="producer182" in="00:00:00.000" out="00:00:09.880">
  <property name="length">248</property>
  <property name="eof">pause</property>
  <property name="resource">citations/citations-adam-duff-lucidpixul.png</property>
  <property name="ttl">25</property>
  <property name="aspect_ratio">1</property>
  <property name="progressive">1</property>
  <property name="seekable">1</property>
  <property name="format">2</property>
  <property name="meta.media.width">1920</property>
  <property name="meta.media.height">1080</property>
  <property name="mlt_service">qimage</property>
  <property name="kdenlive:clipname"/>
  <property name="kdenlive:duration">00:00:05:00</property>
  <property name="kdenlive:folderid">234</property>
  <property name="kdenlive:id">372</property>
  <property name="kdenlive:clip_type">2</property>
  <property name="kdenlive:file_size">43749</property>
  <property name="kdenlive:file_hash">927ecc758270e81c21da75575e7e64ce</property>
 </producer>
 <chain id="chain131" out="00:02:48.920">
  <property name="length">4224</property>
  <property name="eof">pause</property>
  <property name="resource">audio/quotes/ai-art-quote/out/ai art istebrak.00.26.57.mp3</property>
  <property name="mlt_service">avformat</property>
  <property name="meta.media.nb_streams">1</property>
  <property name="meta.media.0.stream.type">audio</property>
  <property name="meta.media.0.codec.sample_fmt">fltp</property>
  <property name="meta.media.0.codec.sample_rate">44100</property>
  <property name="meta.media.0.codec.channels">2</property>
  <property name="meta.media.0.codec.name">mp3float</property>
  <property name="meta.media.0.codec.long_name">MP3 (MPEG audio layer 3)</property>
  <property name="meta.media.0.codec.bit_rate">192000</property>
  <property name="meta.attr.encoded_by.markup">LAME in FL Studio 21</property>
  <property name="meta.attr.date.markup">2023</property>
  <property name="seekable">1</property>
  <property name="audio_index">0</property>
  <property name="video_index">-1</property>
  <property name="kdenlive:clipname"/>
  <property name="kdenlive:clip_type">1</property>
  <property name="kdenlive:folderid">350</property>
  <property name="kdenlive:id">373</property>
  <property name="kdenlive:file_size">4055096</property>
  <property name="kdenlive:file_hash">937d086ec4e469869e0b869c534e7fba</property>
  <property name="kdenlive:audio_max0">201</property>
  <property name="mute_on_pause">1</property>
 </chain>
 <producer id="producer345" in="00:00:00.000" out="00:01:18.840">
  <property name="length">1972</property>
  <property name="eof">pause</property>
  <property name="resource">quotes/out/adam-duff-lucidpixul-c0-q0.png</property>
  <property name="ttl">25</property>
  <property name="aspect_ratio">1</property>
  <property name="progressive">1</property>
  <property name="seekable">1</property>
  <property name="format">2</property>
  <property name="meta.media.width">1920</property>
  <property name="meta.media.height">1080</property>
  <property name="mlt_service">qimage</property>
  <property name="kdenlive:clipname"/>
  <property name="kdenlive:duration">00:00:05:00</property>
  <property name="kdenlive:folderid">345</property>
  <property name="kdenlive:id">374</property>
  <property name="kdenlive:clip_type">2</property>
  <property name="kdenlive:file_size">71202</property>
  <property name="kdenlive:file_hash">24681823655d1175d1e69611bbb3ff33</property>
 </producer>
 <producer id="producer346" in="00:00:00.000" out="00:00:31.680">
  <property name="length">793</property>
  <property name="eof">pause</property>
  <property name="resource">quotes/out/adam-duff-lucidpixul-c0-q1.png</property>
  <property name="ttl">25</property>
  <property name="aspect_ratio">1</property>
  <property name="progressive">1</property>
  <property name="seekable">1</property>
  <property name="format">2</property>
  <property name="meta.media.width">1920</property>
  <property name="meta.media.height">1080</property>
  <property name="mlt_service">qimage</property>
  <property name="kdenlive:clipname"/>
  <property name="kdenlive:duration">00:00:05:00</property>
  <property name="kdenlive:folderid">345</property>
  <property name="kdenlive:id">375</property>
  <property name="kdenlive:clip_type">2</property>
  <property name="kdenlive:file_size">62409</property>
  <property name="kdenlive:file_hash">8d0dffa0fff62efcdce1439d9c5c4468</property>
 </producer>
 <producer id="producer347" in="00:00:00.000" out="00:00:38.240">
  <property name="length">957</property>
  <property name="eof">pause</property>
  <property name="resource">quotes/out/adam-duff-lucidpixul-c0-q2.png</property>
  <property name="ttl">25</property>
  <property name="aspect_ratio">1</property>
  <property name="progressive">1</property>
  <property name="seekable">1</property>
  <property name="format">2</property>
  <property name="meta.media.width">1920</property>
  <property name="meta.media.height">1080</property>
  <property name="mlt_service">qimage</property>
  <property name="kdenlive:clipname"/>
  <property name="kdenlive:duration">00:00:05:00</property>
  <property name="kdenlive:folderid">345</property>
  <property name="kdenlive:id">376</property>
  <property name="kdenlive:clip_type">2</property>
  <property name="kdenlive:file_size">54922</property>
  <property name="kdenlive:file_hash">5938650ccbfac260cbd8cc72492c3500</property>
 </producer>
 <producer id="producer342" in="00:00:00.000" out="00:01:18.840">
  <property name="length">1972</property>
  <property name="eof">pause</property>
  <property name="resource">quotes/out/adam-duff-lucidpixul-c0.png</property>
  <property name="ttl">25</property>
  <property name="aspect_ratio">1</property>
  <property name="progressive">1</property>
  <property name="seekable">1</property>
  <property name="format">2</property>
  <property name="meta.media.width">1920</property>
  <property name="meta.media.height">1080</property>
  <property name="mlt_service">qimage</property>
  <property name="kdenlive:clipname"/>
  <property name="kdenlive:duration">00:00:05:00</property>
  <property name="kdenlive:folderid">345</property>
  <property name="kdenlive:id">377</property>
  <property name="kdenlive:clip_type">2</property>
  <property name="kdenlive:file_size">36904</property>
  <property name="kdenlive:file_hash">71cb7b9a0028a85580c9cf2867064d98</property>
 </producer>
 <producer id="producer336" in="00:00:00.000" out="00:01:18.840">
  <property name="length">1972</property>
  <property name="eof">pause</property>
  <property name="resource">quotes/out/adam-duff-lucidpixul-card.png</property>
  <property name="ttl">25</property>
  <property name="aspect_ratio">1</property>
  <property name="progressive">1</property>
  <property name="seekable">1</property>
  <property name="format">2</property>
  <property name="meta.media.width">1920</property>
  <property name="meta.media.height">1080</property>
  <property name="mlt_service">qimage</property>
  <property name="kdenlive:clipname"/>
  <property name="kdenlive:duration">00:00:05:00</property>
  <property name="kdenlive:folderid">345</property>
  <property name="kdenlive:id">378</property>
  <property name="kdenlive:clip_type">2</property>
  <property name="kdenlive:file_size">342128</property>
  <property name="kdenlive:file_hash">3c5e26b6d7a2b8fec5f00ba941d337b7</property>
 </producer>
 <producer id="producer280" in="00:00:00.000" out="00:00:04.960">
  <property name="length">125</property>
  <property name="eof">pause</property>
  <property name="progressive">1</property>
  <property name="aspect_ratio">1</property>
  <property name="seekable">1</property>
  <property name="mlt_service">kdenlivetitle</property>
  <property name="kdenlive:duration">00:00:05:00</property>
  <property name="kdenlive:clipname">this is</property>
  <property name="xmldata">&lt;kdenlivetitle duration="125" LC_NUMERIC="C" width="1920" height="1080" out="124">
 &lt;item type="QGraphicsTextItem" z-index="0">
  &lt;position x="596" y="402">
   &lt;transform>1,0,0,0,1,0,0,0,1&lt;/transform>
  &lt;/position>
  &lt;content line-spacing="0" shadow="0;#64000000;3;3;3" font-underline="0" box-height="276" font="Cubano" letter-spacing="0" font-pixel-size="230" font-italic="0" typewriter="0;2;1;0;0" alignment="4" font-weight="50" box-width="730.438" font-color="255,255,255,255">this is&lt;/content>
 &lt;/item>
 &lt;startviewport rect="0,0,1920,1080"/>
 &lt;endviewport rect="0,0,1920,1080"/>
 &lt;background color="0,0,0,0"/>
&lt;/kdenlivetitle>
</property>
  <property name="kdenlive:folderid">21</property>
  <property name="kdenlive:id">379</property>
  <property name="kdenlive:clip_type">2</property>
  <property name="force_reload">0</property>
  <property name="meta.media.width">1920</property>
  <property name="meta.media.height">1080</property>
  <property name="kdenlive:file_hash">fc2a3c1421ff7614be85ddeb6527ab05</property>
 </producer>
 <producer id="producer281" in="00:00:00.000" out="00:00:04.960">
  <property name="length">125</property>
  <property name="eof">pause</property>
  <property name="progressive">1</property>
  <property name="aspect_ratio">1</property>
  <property name="seekable">1</property>
  <property name="mlt_service">kdenlivetitle</property>
  <property name="kdenlive:duration">00:00:05:00</property>
  <property name="kdenlive:clipname">(of course)</property>
  <property name="xmldata">&lt;kdenlivetitle duration="125" LC_NUMERIC="C" width="1920" height="1080" out="124">
 &lt;item type="QGraphicsTextItem" z-index="0">
  &lt;position x="334" y="402">
   &lt;transform>1,0,0,0,1,0,0,0,1&lt;/transform>
  &lt;/position>
  &lt;content line-spacing="0" shadow="0;#64000000;3;3;3" font-underline="0" box-height="276" font="Cubano" letter-spacing="0" font-pixel-size="230" font-italic="0" typewriter="0;2;1;0;0" alignment="4" font-weight="50" box-width="1255.97" font-color="255,255,255,255">(of course)&lt;/content>
 &lt;/item>
 &lt;startviewport rect="0,0,1920,1080"/>
 &lt;endviewport rect="0,0,1920,1080"/>
 &lt;background color="0,0,0,0"/>
&lt;/kdenlivetitle>
</property>
  <property name="kdenlive:folderid">21</property>
  <property name="kdenlive:id">380</property>
  <property name="kdenlive:clip_type">2</property>
  <property name="force_reload">0</property>
  <property name="meta.media.width">1920</property>
  <property name="meta.media.height">1080</property>
  <property name="kdenlive:file_hash">e571059854bb0cd96d85f1005d960e59</property>
 </producer>
 <producer id="producer282" in="00:00:00.000" out="00:00:04.960">
  <property name="length">125</property>
  <property name="eof">pause</property>
  <property name="progressive">1</property>
  <property name="aspect_ratio">1</property>
  <property name="seekable">1</property>
  <property name="mlt_service">kdenlivetitle</property>
  <property name="kdenlive:duration">00:00:05:00</property>
  <property name="kdenlive:clipname">a</property>
  <property name="xmldata">&lt;kdenlivetitle duration="125" LC_NUMERIC="C" width="1920" height="1080" out="124">
 &lt;item type="QGraphicsTextItem" z-index="0">
  &lt;position x="896" y="402">
   &lt;transform>1,0,0,0,1,0,0,0,1&lt;/transform>
  &lt;/position>
  &lt;content line-spacing="0" shadow="0;#64000000;3;3;3" font-underline="0" box-height="276" font="Cubano" letter-spacing="0" font-pixel-size="230" font-italic="0" typewriter="0;2;1;0;0" alignment="4" font-weight="50" box-width="133.391" font-color="255,255,255,255">a&lt;/content>
 &lt;/item>
 &lt;startviewport rect="0,0,1920,1080"/>
 &lt;endviewport rect="0,0,1920,1080"/>
 &lt;background color="0,0,0,0"/>
&lt;/kdenlivetitle>
</property>
  <property name="kdenlive:folderid">21</property>
  <property name="kdenlive:id">381</property>
  <property name="kdenlive:clip_type">2</property>
  <property name="force_reload">0</property>
  <property name="meta.media.width">1920</property>
  <property name="meta.media.height">1080</property>
  <property name="kdenlive:file_hash">03184f785bd4772c04f94a7aa73ea909</property>
 </producer>
 <producer id="producer290" in="00:00:00.000" out="00:00:04.960">
  <property name="length">125</property>
  <property name="eof">pause</property>
  <property name="progressive">1</property>
  <property name="aspect_ratio">1</property>
  <property name="seekable">1</property>
  <property name="mlt_service">kdenlivetitle</property>
  <property name="kdenlive:duration">00:00:05:00</property>
  <property name="kdenlive:clipname">slip</property>
  <property name="xmldata">&lt;kdenlivetitle duration="125" LC_NUMERIC="C" width="1920" height="1080" out="124">
 &lt;item type="QGraphicsTextItem" z-index="0">
  &lt;position x="741" y="402">
   &lt;transform>1,0,0,0,1,0,0,0,1&lt;/transform>
  &lt;/position>
  &lt;content line-spacing="0" shadow="0;#64000000;3;3;3" font-underline="0" box-height="276" font="Cubano" letter-spacing="0" font-pixel-size="230" font-italic="0" typewriter="0;2;1;0;0" alignment="4" font-weight="50" box-width="441.797" font-color="255,255,255,255">slip&lt;/content>
 &lt;/item>
 &lt;startviewport rect="0,0,1920,1080"/>
 &lt;endviewport rect="0,0,1920,1080"/>
 &lt;background color="0,0,0,0"/>
&lt;/kdenlivetitle>
</property>
  <property name="kdenlive:folderid">21</property>
  <property name="kdenlive:id">382</property>
  <property name="kdenlive:clip_type">2</property>
  <property name="force_reload">0</property>
  <property name="meta.media.width">1920</property>
  <property name="meta.media.height">1080</property>
  <property name="kdenlive:file_hash">a9a39cabc368abe621607c9a1958a6d0</property>
 </producer>
 <producer id="producer292" in="00:00:00.000" out="00:00:04.960">
  <property name="length">125</property>
  <property name="eof">pause</property>
  <property name="progressive">1</property>
  <property name="aspect_ratio">1</property>
  <property name="seekable">1</property>
  <property name="mlt_service">kdenlivetitle</property>
  <property name="kdenlive:duration">00:00:05:00</property>
  <property name="kdenlive:clipname">of the</property>
  <property name="xmldata">&lt;kdenlivetitle duration="125" LC_NUMERIC="C" width="1920" height="1080" out="124">
 &lt;item type="QGraphicsTextItem" z-index="0">
  &lt;position x="597" y="402">
   &lt;transform>1,0,0,0,1,0,0,0,1&lt;/transform>
  &lt;/position>
  &lt;content line-spacing="0" shadow="0;#64000000;3;3;3" font-underline="0" box-height="276" font="Cubano" letter-spacing="0" font-pixel-size="230" font-italic="0" typewriter="0;2;1;0;0" alignment="4" font-weight="50" box-width="731.625" font-color="255,255,255,255">of the&lt;/content>
 &lt;/item>
 &lt;startviewport rect="0,0,1920,1080"/>
 &lt;endviewport rect="0,0,1920,1080"/>
 &lt;background color="0,0,0,0"/>
&lt;/kdenlivetitle>
</property>
  <property name="kdenlive:folderid">21</property>
  <property name="kdenlive:id">383</property>
  <property name="kdenlive:clip_type">2</property>
  <property name="force_reload">0</property>
  <property name="meta.media.width">1920</property>
  <property name="meta.media.height">1080</property>
  <property name="kdenlive:file_hash">bd9094c76da4d729781aa0a2b536a6fc</property>
 </producer>
 <producer id="producer293" in="00:00:00.000" out="00:00:04.960">
  <property name="length">125</property>
  <property name="eof">pause</property>
  <property name="progressive">1</property>
  <property name="aspect_ratio">1</property>
  <property name="seekable">1</property>
  <property name="mlt_service">kdenlivetitle</property>
  <property name="kdenlive:duration">00:00:05:00</property>
  <property name="kdenlive:clipname">mask</property>
  <property name="xmldata">&lt;kdenlivetitle duration="125" LC_NUMERIC="C" width="1920" height="1080" out="124">
 &lt;item type="QGraphicsTextItem" z-index="0">
  &lt;position x="667" y="402">
   &lt;transform>1,0,0,0,1,0,0,0,1&lt;/transform>
  &lt;/position>
  &lt;content line-spacing="0" shadow="0;#64000000;3;3;3" font-underline="0" box-height="276" font="Cubano" letter-spacing="0" font-pixel-size="230" font-italic="0" typewriter="0;2;1;0;0" alignment="4" font-weight="50" box-width="591.375" font-color="255,255,255,255">mask&lt;/content>
 &lt;/item>
 &lt;startviewport rect="0,0,1920,1080"/>
 &lt;endviewport rect="0,0,1920,1080"/>
 &lt;background color="0,0,0,0"/>
&lt;/kdenlivetitle>
</property>
  <property name="kdenlive:folderid">21</property>
  <property name="kdenlive:id">384</property>
  <property name="kdenlive:clip_type">2</property>
  <property name="force_reload">0</property>
  <property name="meta.media.width">1920</property>
  <property name="meta.media.height">1080</property>
  <property name="kdenlive:file_hash">d161f55171d9fb3f8165b6342071b1b9</property>
 </producer>
 <chain id="chain132" out="00:00:20.360">
  <property name="length">510</property>
  <property name="eof">pause</property>
  <property name="resource">animation/output/motte-bailey-plagiarism/motte-bailey-plagiarism.mp4</property>
  <property name="mlt_service">avformat-novalidate</property>
  <property name="meta.media.nb_streams">2</property>
  <property name="meta.media.0.stream.type">video</property>
  <property name="meta.media.0.stream.frame_rate">25</property>
  <property name="meta.media.0.stream.sample_aspect_ratio">1</property>
  <property name="meta.media.0.codec.width">1920</property>
  <property name="meta.media.0.codec.height">1080</property>
  <property name="meta.media.0.codec.rotate">0</property>
  <property name="meta.media.0.codec.pix_fmt">yuv420p</property>
  <property name="meta.media.0.codec.sample_aspect_ratio">1</property>
  <property name="meta.media.0.codec.colorspace">709</property>
  <property name="meta.media.0.codec.color_trc">1</property>
  <property name="meta.media.0.codec.name">h264</property>
  <property name="meta.media.0.codec.long_name">H.264 / AVC / MPEG-4 AVC / MPEG-4 part 10</property>
  <property name="meta.media.0.codec.bit_rate">1539224</property>
  <property name="meta.attr.0.stream.handler_name.markup">VideoHandler</property>
  <property name="meta.attr.0.stream.vendor_id.markup">[0][0][0][0]</property>
  <property name="meta.media.1.stream.type">audio</property>
  <property name="meta.media.1.codec.sample_fmt">fltp</property>
  <property name="meta.media.1.codec.sample_rate">48000</property>
  <property name="meta.media.1.codec.channels">2</property>
  <property name="meta.media.1.codec.name">aac</property>
  <property name="meta.media.1.codec.long_name">AAC (Advanced Audio Coding)</property>
  <property name="meta.media.1.codec.bit_rate">2276</property>
  <property name="meta.attr.1.stream.handler_name.markup">SoundHandler</property>
  <property name="meta.attr.1.stream.vendor_id.markup">[0][0][0][0]</property>
  <property name="meta.attr.major_brand.markup">isom</property>
  <property name="meta.attr.minor_version.markup">512</property>
  <property name="meta.attr.compatible_brands.markup">isomiso2avc1mp41</property>
  <property name="meta.attr.encoder.markup">Lavf59.27.100</property>
  <property name="seekable">1</property>
  <property name="meta.media.sample_aspect_num">1</property>
  <property name="meta.media.sample_aspect_den">1</property>
  <property name="format">3</property>
  <property name="audio_index">1</property>
  <property name="video_index">0</property>
  <property name="meta.media.frame_rate_num">25</property>
  <property name="meta.media.frame_rate_den">1</property>
  <property name="meta.media.colorspace">709</property>
  <property name="meta.media.color_trc">1</property>
  <property name="meta.media.has_b_frames">2</property>
  <property name="meta.media.width">1920</property>
  <property name="meta.media.height">1080</property>
  <property name="meta.media.color_range">mpeg</property>
  <property name="kdenlive:clipname"/>
  <property name="meta.media.top_field_first">0</property>
  <property name="meta.media.progressive">1</property>
  <property name="kdenlive:clip_type">0</property>
  <property name="kdenlive:folderid">218</property>
  <property name="kdenlive:id">385</property>
  <property name="kdenlive:file_size">3947896</property>
  <property name="kdenlive:file_hash">183b5aba5ead6dfeda3bcba25045ba5d</property>
  <property name="kdenlive:audio_max1">1</property>
  <property name="mute_on_pause">1</property>
 </chain>
 <producer id="producer295" in="00:00:00.000" out="00:00:04.960">
  <property name="length">125</property>
  <property name="eof">pause</property>
  <property name="progressive">1</property>
  <property name="aspect_ratio">1</property>
  <property name="seekable">1</property>
  <property name="mlt_service">kdenlivetitle</property>
  <property name="kdenlive:duration">00:00:05:00</property>
  <property name="kdenlive:clipname">"steal"</property>
  <property name="xmldata">&lt;kdenlivetitle duration="125" LC_NUMERIC="C" width="1920" height="1080" out="124">
 &lt;item type="QGraphicsTextItem" z-index="0">
  &lt;position x="547" y="402">
   &lt;transform>1,0,0,0,1,0,0,0,1&lt;/transform>
  &lt;/position>
  &lt;content line-spacing="0" shadow="0;#64000000;3;3;3" font-underline="0" box-height="276" font="Cubano" letter-spacing="0" font-pixel-size="230" font-italic="0" typewriter="0;2;1;0;0" alignment="4" font-weight="50" box-width="826.125" font-color="255,255,255,255">"steal"&lt;/content>
 &lt;/item>
 &lt;startviewport rect="0,0,1920,1080"/>
 &lt;endviewport rect="0,0,1920,1080"/>
 &lt;background color="0,0,0,0"/>
&lt;/kdenlivetitle>
</property>
  <property name="kdenlive:folderid">21</property>
  <property name="kdenlive:id">386</property>
  <property name="kdenlive:clip_type">2</property>
  <property name="force_reload">0</property>
  <property name="meta.media.width">1920</property>
  <property name="meta.media.height">1080</property>
  <property name="kdenlive:file_hash">a1d4b70d45f9de7e8e4737de532fe474</property>
 </producer>
 <chain id="chain133" out="00:10:19.320">
  <property name="length">15484</property>
  <property name="eof">pause</property>
  <property name="resource">b-roll/Paint like Van Gogh in 7 easy steps! (Acrylic version) [hBXvkmm93wA].webm</property>
  <property name="mlt_service">avformat-novalidate</property>
  <property name="meta.media.nb_streams">2</property>
  <property name="meta.media.0.stream.type">video</property>
  <property name="meta.media.0.stream.frame_rate">30</property>
  <property name="meta.media.0.stream.sample_aspect_ratio">1</property>
  <property name="meta.media.0.codec.width">1920</property>
  <property name="meta.media.0.codec.height">1080</property>
  <property name="meta.media.0.codec.rotate">0</property>
  <property name="meta.media.0.codec.pix_fmt">yuv420p</property>
  <property name="meta.media.0.codec.sample_aspect_ratio">0</property>
  <property name="meta.media.0.codec.colorspace">709</property>
  <property name="meta.media.0.codec.color_trc">1</property>
  <property name="meta.media.0.codec.name">vp9</property>
  <property name="meta.media.0.codec.long_name">Google VP9</property>
  <property name="meta.media.0.codec.bit_rate">0</property>
  <property name="meta.attr.0.stream.language.markup">eng</property>
  <property name="meta.attr.0.stream.DURATION.markup">00:10:19.333000000</property>
  <property name="meta.media.1.stream.type">audio</property>
  <property name="meta.media.1.codec.sample_fmt">fltp</property>
  <property name="meta.media.1.codec.sample_rate">48000</property>
  <property name="meta.media.1.codec.channels">2</property>
  <property name="meta.media.1.codec.name">opus</property>
  <property name="meta.media.1.codec.long_name">Opus</property>
  <property name="meta.media.1.codec.bit_rate">0</property>
  <property name="meta.attr.1.stream.language.markup">eng</property>
  <property name="meta.attr.1.stream.DURATION.markup">00:10:19.361000000</property>
  <property name="meta.attr.ENCODER.markup">Lavf59.27.100</property>
  <property name="seekable">1</property>
  <property name="meta.media.sample_aspect_num">1</property>
  <property name="meta.media.sample_aspect_den">1</property>
  <property name="format">3</property>
  <property name="audio_index">-1</property>
  <property name="video_index">0</property>
  <property name="meta.media.frame_rate_num">30</property>
  <property name="meta.media.frame_rate_den">1</property>
  <property name="meta.media.colorspace">709</property>
  <property name="meta.media.color_trc">1</property>
  <property name="meta.media.has_b_frames">0</property>
  <property name="meta.media.width">1920</property>
  <property name="meta.media.height">1080</property>
  <property name="meta.media.color_range">mpeg</property>
  <property name="kdenlive:clipname"/>
  <property name="meta.media.top_field_first">0</property>
  <property name="meta.media.progressive">1</property>
  <property name="kdenlive:clip_type">0</property>
  <property name="kdenlive:folderid">14</property>
  <property name="kdenlive:id">387</property>
  <property name="kdenlive:file_size">126962373</property>
  <property name="kdenlive:file_hash">445ffba4de7463ce4cb69fb876bc9ba7</property>
  <property name="kdenlive:audio_max1">215</property>
  <property name="kdenlive:active_streams">-1</property>
  <property name="set.test_audio">1</property>
  <property name="mute_on_pause">1</property>
 </chain>
 <producer id="producer301" in="00:00:00.000" out="00:00:16.080">
  <property name="length">403</property>
  <property name="eof">pause</property>
  <property name="resource">citations/citations-paint-van-gogh.png</property>
  <property name="ttl">25</property>
  <property name="aspect_ratio">1</property>
  <property name="progressive">1</property>
  <property name="seekable">1</property>
  <property name="format">2</property>
  <property name="meta.media.width">1920</property>
  <property name="meta.media.height">1080</property>
  <property name="mlt_service">qimage</property>
  <property name="kdenlive:clipname"/>
  <property name="kdenlive:duration">00:00:05:00</property>
  <property name="kdenlive:folderid">234</property>
  <property name="kdenlive:id">388</property>
  <property name="kdenlive:clip_type">2</property>
  <property name="kdenlive:file_size">34287</property>
  <property name="kdenlive:file_hash">c04135858fcce998b82fb0bace920101</property>
 </producer>
 <producer id="producer302" in="00:00:00.000" out="00:00:11.920">
  <property name="length">299</property>
  <property name="eof">pause</property>
  <property name="resource">images/galambos.png</property>
  <property name="ttl">25</property>
  <property name="aspect_ratio">1</property>
  <property name="progressive">1</property>
  <property name="seekable">1</property>
  <property name="format">1</property>
  <property name="meta.media.width">1279</property>
  <property name="meta.media.height">890</property>
  <property name="mlt_service">qimage</property>
  <property name="kdenlive:clipname"/>
  <property name="kdenlive:duration">00:00:05:00</property>
  <property name="kdenlive:folderid">28</property>
  <property name="kdenlive:id">389</property>
  <property name="kdenlive:clip_type">2</property>
  <property name="kdenlive:file_size">239013</property>
  <property name="kdenlive:file_hash">ad5ae7c556fd37d86f4c85fc73b3f5ef</property>
 </producer>
 <chain id="chain134" out="00:27:46.760">
  <property name="length">41670</property>
  <property name="eof">pause</property>
  <property name="resource">b-roll/Bob Ross - Mountain Summit (Season 13 Episode 10) [kasGRkfkiPM].webm</property>
  <property name="mlt_service">avformat-novalidate</property>
  <property name="meta.media.nb_streams">2</property>
  <property name="meta.media.0.stream.type">video</property>
  <property name="meta.media.0.stream.frame_rate">29.97</property>
  <property name="meta.media.0.stream.sample_aspect_ratio">1</property>
  <property name="meta.media.0.codec.width">640</property>
  <property name="meta.media.0.codec.height">480</property>
  <property name="meta.media.0.codec.rotate">0</property>
  <property name="meta.media.0.codec.pix_fmt">yuv420p</property>
  <property name="meta.media.0.codec.sample_aspect_ratio">0</property>
  <property name="meta.media.0.codec.colorspace">709</property>
  <property name="meta.media.0.codec.color_trc">1</property>
  <property name="meta.media.0.codec.name">vp9</property>
  <property name="meta.media.0.codec.long_name">Google VP9</property>
  <property name="meta.media.0.codec.bit_rate">0</property>
  <property name="meta.attr.0.stream.language.markup">eng</property>
  <property name="meta.attr.0.stream.DURATION.markup">00:27:46.765000000</property>
  <property name="meta.media.1.stream.type">audio</property>
  <property name="meta.media.1.codec.sample_fmt">fltp</property>
  <property name="meta.media.1.codec.sample_rate">48000</property>
  <property name="meta.media.1.codec.channels">2</property>
  <property name="meta.media.1.codec.name">opus</property>
  <property name="meta.media.1.codec.long_name">Opus</property>
  <property name="meta.media.1.codec.bit_rate">0</property>
  <property name="meta.attr.1.stream.language.markup">eng</property>
  <property name="meta.attr.1.stream.DURATION.markup">00:27:46.801000000</property>
  <property name="meta.attr.ENCODER.markup">Lavf59.27.100</property>
  <property name="seekable">1</property>
  <property name="meta.media.sample_aspect_num">1</property>
  <property name="meta.media.sample_aspect_den">1</property>
  <property name="format">3</property>
  <property name="audio_index">-1</property>
  <property name="video_index">0</property>
  <property name="meta.media.frame_rate_num">30000</property>
  <property name="meta.media.frame_rate_den">1001</property>
  <property name="meta.media.colorspace">709</property>
  <property name="meta.media.color_trc">1</property>
  <property name="meta.media.has_b_frames">0</property>
  <property name="meta.media.width">640</property>
  <property name="meta.media.height">480</property>
  <property name="meta.media.color_range">mpeg</property>
  <property name="kdenlive:clipname"/>
  <property name="meta.media.top_field_first">0</property>
  <property name="meta.media.progressive">1</property>
  <property name="kdenlive:clip_type">0</property>
  <property name="kdenlive:folderid">14</property>
  <property name="kdenlive:id">390</property>
  <property name="kdenlive:file_size">62500648</property>
  <property name="kdenlive:file_hash">5802fc27c5c82441191a45e38eca5335</property>
  <property name="kdenlive:audio_max1">157</property>
  <property name="kdenlive:active_streams">-1</property>
  <property name="set.test_audio">1</property>
  <property name="mute_on_pause">1</property>
 </chain>
 <producer id="producer305" in="00:00:00.000" out="00:00:24.080">
  <property name="length">603</property>
  <property name="eof">pause</property>
  <property name="resource">citations/citations-bob-ross.png</property>
  <property name="ttl">25</property>
  <property name="aspect_ratio">1</property>
  <property name="progressive">1</property>
  <property name="seekable">1</property>
  <property name="format">2</property>
  <property name="meta.media.width">1920</property>
  <property name="meta.media.height">1080</property>
  <property name="mlt_service">qimage</property>
  <property name="kdenlive:clipname"/>
  <property name="kdenlive:duration">00:00:05:00</property>
  <property name="kdenlive:folderid">234</property>
  <property name="kdenlive:id">391</property>
  <property name="kdenlive:clip_type">2</property>
  <property name="kdenlive:file_size">27125</property>
  <property name="kdenlive:file_hash">c2f2e9c4e5f7716622e792d65a58fe4a</property>
 </producer>
 <chain id="chain135" out="00:00:25.600">
  <property name="length">641</property>
  <property name="eof">pause</property>
  <property name="resource">animation/output/image-classification.mp4</property>
  <property name="mlt_service">avformat-novalidate</property>
  <property name="meta.media.nb_streams">1</property>
  <property name="meta.media.0.stream.type">video</property>
  <property name="meta.media.0.stream.frame_rate">30</property>
  <property name="meta.media.0.stream.sample_aspect_ratio">0</property>
  <property name="meta.media.0.codec.width">1920</property>
  <property name="meta.media.0.codec.height">1080</property>
  <property name="meta.media.0.codec.rotate">0</property>
  <property name="meta.media.0.codec.pix_fmt">yuv420p</property>
  <property name="meta.media.0.codec.sample_aspect_ratio">0</property>
  <property name="meta.media.0.codec.colorspace">709</property>
  <property name="meta.media.0.codec.name">h264</property>
  <property name="meta.media.0.codec.long_name">H.264 / AVC / MPEG-4 AVC / MPEG-4 part 10</property>
  <property name="meta.media.0.codec.bit_rate">592746</property>
  <property name="meta.attr.0.stream.handler_name.markup">VideoHandler</property>
  <property name="meta.attr.0.stream.vendor_id.markup">[0][0][0][0]</property>
  <property name="meta.attr.major_brand.markup">isom</property>
  <property name="meta.attr.minor_version.markup">512</property>
  <property name="meta.attr.compatible_brands.markup">isomiso2avc1mp41</property>
  <property name="meta.attr.encoder.markup">Lavf58.24.100</property>
  <property name="seekable">1</property>
  <property name="meta.media.sample_aspect_num">1</property>
  <property name="meta.media.sample_aspect_den">1</property>
  <property name="format">3</property>
  <property name="audio_index">-1</property>
  <property name="video_index">0</property>
  <property name="meta.media.frame_rate_num">30</property>
  <property name="meta.media.frame_rate_den">1</property>
  <property name="meta.media.colorspace">709</property>
  <property name="meta.media.color_trc">2</property>
  <property name="meta.media.has_b_frames">2</property>
  <property name="meta.media.width">1920</property>
  <property name="meta.media.height">1080</property>
  <property name="meta.media.color_range">mpeg</property>
  <property name="kdenlive:clipname"/>
  <property name="meta.media.top_field_first">0</property>
  <property name="meta.media.progressive">1</property>
  <property name="kdenlive:clip_type">2</property>
  <property name="kdenlive:folderid">218</property>
  <property name="kdenlive:id">392</property>
  <property name="kdenlive:file_size">1906870</property>
  <property name="kdenlive:file_hash">1f0a83579943d193d11245a006f5c3f2</property>
  <property name="mute_on_pause">1</property>
 </chain>
 <chain id="chain136" out="00:02:55.960">
  <property name="length">4400</property>
  <property name="eof">pause</property>
  <property name="resource">/home/liquidzulu/Music/lemmino/Nocturnal [1241348191].flac</property>
  <property name="mlt_service">avformat</property>
  <property name="meta.media.nb_streams">1</property>
  <property name="meta.media.0.stream.type">audio</property>
  <property name="meta.media.0.codec.sample_fmt">s16</property>
  <property name="meta.media.0.codec.sample_rate">48000</property>
  <property name="meta.media.0.codec.channels">2</property>
  <property name="meta.media.0.codec.name">flac</property>
  <property name="meta.media.0.codec.long_name">FLAC (Free Lossless Audio Codec)</property>
  <property name="meta.media.0.codec.bit_rate">0</property>
  <property name="seekable">1</property>
  <property name="audio_index">0</property>
  <property name="video_index">-1</property>
  <property name="kdenlive:clipname"/>
  <property name="kdenlive:clip_type">1</property>
  <property name="kdenlive:folderid">5</property>
  <property name="kdenlive:id">393</property>
  <property name="kdenlive:file_size">15423616</property>
  <property name="kdenlive:file_hash">84819e802210dc0810dabfa675a56b87</property>
  <property name="kdenlive:audio_max0">251</property>
  <property name="mute_on_pause">1</property>
 </chain>
 <chain id="chain137" out="02:56:38.200">
  <property name="length">264956</property>
  <property name="eof">pause</property>
  <property name="resource">b-roll/AI and The Future of Art with Steven Zapata - Art Cafe #134 [qTB7tFZ2EFc].webm</property>
  <property name="mlt_service">avformat-novalidate</property>
  <property name="meta.media.nb_streams">2</property>
  <property name="meta.media.0.stream.type">video</property>
  <property name="meta.media.0.stream.frame_rate">24.0029</property>
  <property name="meta.media.0.stream.sample_aspect_ratio">1</property>
  <property name="meta.media.0.codec.width">1920</property>
  <property name="meta.media.0.codec.height">1080</property>
  <property name="meta.media.0.codec.rotate">0</property>
  <property name="meta.media.0.codec.pix_fmt">yuv420p</property>
  <property name="meta.media.0.codec.sample_aspect_ratio">0</property>
  <property name="meta.media.0.codec.colorspace">709</property>
  <property name="meta.media.0.codec.color_trc">1</property>
  <property name="meta.media.0.codec.name">vp9</property>
  <property name="meta.media.0.codec.long_name">Google VP9</property>
  <property name="meta.media.0.codec.bit_rate">0</property>
  <property name="meta.attr.0.stream.HANDLER_NAME.markup">ISO Media file produced by Google Inc. Created on: 12/13/2023.</property>
  <property name="meta.attr.0.stream.VENDOR_ID.markup">[0][0][0][0]</property>
  <property name="meta.attr.0.stream.DURATION.markup">02:56:38.207000000</property>
  <property name="meta.media.1.stream.type">audio</property>
  <property name="meta.media.1.codec.sample_fmt">fltp</property>
  <property name="meta.media.1.codec.sample_rate">48000</property>
  <property name="meta.media.1.codec.channels">2</property>
  <property name="meta.media.1.codec.name">opus</property>
  <property name="meta.media.1.codec.long_name">Opus</property>
  <property name="meta.media.1.codec.bit_rate">0</property>
  <property name="meta.attr.1.stream.language.markup">eng</property>
  <property name="meta.attr.1.stream.DURATION.markup">02:56:38.241000000</property>
  <property name="meta.attr.COMPATIBLE_BRANDS.markup">iso6mp41</property>
  <property name="meta.attr.MAJOR_BRAND.markup">dash</property>
  <property name="meta.attr.MINOR_VERSION.markup">0</property>
  <property name="meta.attr.ENCODER.markup">Lavf59.27.100</property>
  <property name="seekable">1</property>
  <property name="meta.media.sample_aspect_num">1</property>
  <property name="meta.media.sample_aspect_den">1</property>
  <property name="format">3</property>
  <property name="audio_index">-1</property>
  <property name="video_index">0</property>
  <property name="meta.media.frame_rate_num">24891</property>
  <property name="meta.media.frame_rate_den">1037</property>
  <property name="meta.media.colorspace">709</property>
  <property name="meta.media.color_trc">1</property>
  <property name="meta.media.has_b_frames">0</property>
  <property name="meta.media.width">1920</property>
  <property name="meta.media.height">1080</property>
  <property name="meta.media.color_range">mpeg</property>
  <property name="kdenlive:clipname"/>
  <property name="meta.media.top_field_first">0</property>
  <property name="meta.media.progressive">1</property>
  <property name="kdenlive:clip_type">0</property>
  <property name="kdenlive:folderid">14</property>
  <property name="kdenlive:id">394</property>
  <property name="kdenlive:file_size">1897186416</property>
  <property name="kdenlive:file_hash">967c933e071a9171404294df5e3831aa</property>
  <property name="kdenlive:audio_max1">235</property>
  <property name="kdenlive:active_streams">-1</property>
  <property name="set.test_audio">1</property>
  <property name="mute_on_pause">1</property>
 </chain>
 <producer id="producer306" in="00:00:00.000" out="00:00:04.960">
  <property name="length">00:00:05.000</property>
  <property name="eof">pause</property>
  <property name="resource">citations/citations-art-cafe-zapata.png</property>
  <property name="ttl">25</property>
  <property name="aspect_ratio">1</property>
  <property name="progressive">1</property>
  <property name="seekable">1</property>
  <property name="format">2</property>
  <property name="meta.media.width">1920</property>
  <property name="meta.media.height">1080</property>
  <property name="mlt_service">qimage</property>
  <property name="kdenlive:clipname"/>
  <property name="kdenlive:duration">00:00:05:00</property>
  <property name="kdenlive:folderid">234</property>
  <property name="kdenlive:id">395</property>
  <property name="kdenlive:clip_type">2</property>
  <property name="kdenlive:file_size">29068</property>
  <property name="kdenlive:file_hash">bbea6026643c3e4c8655398cf0409ad0</property>
 </producer>
 <chain id="chain138" out="00:02:48.920">
  <property name="length">4224</property>
  <property name="eof">pause</property>
  <property name="resource">audio/quotes/ai-art-quote/out/ai future of art.02.19.00.mp3</property>
  <property name="mlt_service">avformat</property>
  <property name="meta.media.nb_streams">1</property>
  <property name="meta.media.0.stream.type">audio</property>
  <property name="meta.media.0.codec.sample_fmt">fltp</property>
  <property name="meta.media.0.codec.sample_rate">44100</property>
  <property name="meta.media.0.codec.channels">2</property>
  <property name="meta.media.0.codec.name">mp3float</property>
  <property name="meta.media.0.codec.long_name">MP3 (MPEG audio layer 3)</property>
  <property name="meta.media.0.codec.bit_rate">192000</property>
  <property name="meta.attr.encoded_by.markup">LAME in FL Studio 21</property>
  <property name="meta.attr.date.markup">2023</property>
  <property name="seekable">1</property>
  <property name="audio_index">0</property>
  <property name="video_index">-1</property>
  <property name="kdenlive:clipname"/>
  <property name="kdenlive:clip_type">1</property>
  <property name="kdenlive:folderid">350</property>
  <property name="kdenlive:id">396</property>
  <property name="kdenlive:file_size">4055096</property>
  <property name="kdenlive:file_hash">8f8ff75e1c689d980c540cac94b06650</property>
  <property name="kdenlive:audio_max0">197</property>
  <property name="mute_on_pause">1</property>
 </chain>
 <producer id="producer351" in="00:00:00.000" out="00:00:06.320">
  <property name="length">159</property>
  <property name="eof">pause</property>
  <property name="resource">quotes/out/steven-zapata-c0-q0.png</property>
  <property name="ttl">25</property>
  <property name="aspect_ratio">1</property>
  <property name="progressive">1</property>
  <property name="seekable">1</property>
  <property name="format">2</property>
  <property name="meta.media.width">1920</property>
  <property name="meta.media.height">1080</property>
  <property name="mlt_service">qimage</property>
  <property name="kdenlive:clipname"/>
  <property name="kdenlive:duration">00:00:05:00</property>
  <property name="kdenlive:folderid">345</property>
  <property name="kdenlive:id">397</property>
  <property name="kdenlive:clip_type">2</property>
  <property name="kdenlive:file_size">34098</property>
  <property name="kdenlive:file_hash">d0b3284870bb8c4a30221ff15992efa6</property>
 </producer>
 <producer id="producer350" in="00:00:00.000" out="00:00:48.000">
  <property name="length">1201</property>
  <property name="eof">pause</property>
  <property name="resource">quotes/out/steven-zapata-c0-q1.png</property>
  <property name="ttl">25</property>
  <property name="aspect_ratio">1</property>
  <property name="progressive">1</property>
  <property name="seekable">1</property>
  <property name="format">2</property>
  <property name="meta.media.width">1920</property>
  <property name="meta.media.height">1080</property>
  <property name="mlt_service">qimage</property>
  <property name="kdenlive:clipname"/>
  <property name="kdenlive:duration">00:00:05:00</property>
  <property name="kdenlive:folderid">345</property>
  <property name="kdenlive:id">398</property>
  <property name="kdenlive:clip_type">2</property>
  <property name="kdenlive:file_size">82212</property>
  <property name="kdenlive:file_hash">4ca70d996a84d7adc1c81b20f3490d80</property>
 </producer>
 <producer id="producer349" in="00:00:00.000" out="00:00:40.240">
  <property name="length">1007</property>
  <property name="eof">pause</property>
  <property name="resource">quotes/out/steven-zapata-c0-q2.png</property>
  <property name="ttl">25</property>
  <property name="aspect_ratio">1</property>
  <property name="progressive">1</property>
  <property name="seekable">1</property>
  <property name="format">2</property>
  <property name="meta.media.width">1920</property>
  <property name="meta.media.height">1080</property>
  <property name="mlt_service">qimage</property>
  <property name="kdenlive:clipname"/>
  <property name="kdenlive:duration">00:00:05:00</property>
  <property name="kdenlive:folderid">345</property>
  <property name="kdenlive:id">399</property>
  <property name="kdenlive:clip_type">2</property>
  <property name="kdenlive:file_size">77559</property>
  <property name="kdenlive:file_hash">31b06c15c2da8d550dfabc37a2cc7579</property>
 </producer>
 <producer id="producer348" in="00:00:00.000" out="00:00:21.480">
  <property name="length">538</property>
  <property name="eof">pause</property>
  <property name="resource">quotes/out/steven-zapata-c0-q3.png</property>
  <property name="ttl">25</property>
  <property name="aspect_ratio">1</property>
  <property name="progressive">1</property>
  <property name="seekable">1</property>
  <property name="format">2</property>
  <property name="meta.media.width">1920</property>
  <property name="meta.media.height">1080</property>
  <property name="mlt_service">qimage</property>
  <property name="kdenlive:clipname"/>
  <property name="kdenlive:duration">00:00:05:00</property>
  <property name="kdenlive:folderid">345</property>
  <property name="kdenlive:id">400</property>
  <property name="kdenlive:clip_type">2</property>
  <property name="kdenlive:file_size">71370</property>
  <property name="kdenlive:file_hash">10b176dc496c0b20190a7cfe8b38654b</property>
 </producer>
 <producer id="producer343" in="00:00:00.000" out="00:01:19.800">
  <property name="length">1996</property>
  <property name="eof">pause</property>
  <property name="resource">quotes/out/steven-zapata-c0.png</property>
  <property name="ttl">25</property>
  <property name="aspect_ratio">1</property>
  <property name="progressive">1</property>
  <property name="seekable">1</property>
  <property name="format">2</property>
  <property name="meta.media.width">1920</property>
  <property name="meta.media.height">1080</property>
  <property name="mlt_service">qimage</property>
  <property name="kdenlive:clipname"/>
  <property name="kdenlive:duration">00:00:05:00</property>
  <property name="kdenlive:folderid">345</property>
  <property name="kdenlive:id">401</property>
  <property name="kdenlive:clip_type">2</property>
  <property name="kdenlive:file_size">27340</property>
  <property name="kdenlive:file_hash">d01027d194b3703df9f21bf2df1d45d8</property>
 </producer>
 <producer id="producer337" in="00:00:00.000" out="00:01:19.800">
  <property name="length">1996</property>
  <property name="eof">pause</property>
  <property name="resource">quotes/out/steven-zapata-card.png</property>
  <property name="ttl">25</property>
  <property name="aspect_ratio">1</property>
  <property name="progressive">1</property>
  <property name="seekable">1</property>
  <property name="format">2</property>
  <property name="meta.media.width">1920</property>
  <property name="meta.media.height">1080</property>
  <property name="mlt_service">qimage</property>
  <property name="kdenlive:clipname"/>
  <property name="kdenlive:duration">00:00:05:00</property>
  <property name="kdenlive:folderid">345</property>
  <property name="kdenlive:id">402</property>
  <property name="kdenlive:clip_type">2</property>
  <property name="kdenlive:file_size">551498</property>
  <property name="kdenlive:file_hash">7fcbc235c98df16964f064b3d1015298</property>
 </producer>
 <chain id="chain140" out="00:00:20.720">
  <property name="length">519</property>
  <property name="eof">pause</property>
  <property name="resource">animation/output/zapata-argument.mp4</property>
  <property name="mlt_service">avformat-novalidate</property>
  <property name="meta.media.nb_streams">1</property>
  <property name="meta.media.0.stream.type">video</property>
  <property name="meta.media.0.stream.frame_rate">60</property>
  <property name="meta.media.0.stream.sample_aspect_ratio">0</property>
  <property name="meta.media.0.codec.width">1920</property>
  <property name="meta.media.0.codec.height">1080</property>
  <property name="meta.media.0.codec.rotate">0</property>
  <property name="meta.media.0.codec.pix_fmt">yuv420p</property>
  <property name="meta.media.0.codec.sample_aspect_ratio">0</property>
  <property name="meta.media.0.codec.colorspace">709</property>
  <property name="meta.media.0.codec.name">h264</property>
  <property name="meta.media.0.codec.long_name">H.264 / AVC / MPEG-4 AVC / MPEG-4 part 10</property>
  <property name="meta.media.0.codec.bit_rate">439852</property>
  <property name="meta.attr.0.stream.handler_name.markup">VideoHandler</property>
  <property name="meta.attr.0.stream.vendor_id.markup">[0][0][0][0]</property>
  <property name="meta.attr.major_brand.markup">isom</property>
  <property name="meta.attr.minor_version.markup">512</property>
  <property name="meta.attr.compatible_brands.markup">isomiso2avc1mp41</property>
  <property name="meta.attr.encoder.markup">Lavf58.24.100</property>
  <property name="seekable">1</property>
  <property name="meta.media.sample_aspect_num">1</property>
  <property name="meta.media.sample_aspect_den">1</property>
  <property name="format">3</property>
  <property name="audio_index">-1</property>
  <property name="video_index">0</property>
  <property name="meta.media.frame_rate_num">60</property>
  <property name="meta.media.frame_rate_den">1</property>
  <property name="meta.media.colorspace">709</property>
  <property name="meta.media.color_trc">2</property>
  <property name="meta.media.has_b_frames">2</property>
  <property name="meta.media.width">1920</property>
  <property name="meta.media.height">1080</property>
  <property name="meta.media.color_range">mpeg</property>
  <property name="kdenlive:clipname"/>
  <property name="kdenlive:clip_type">2</property>
  <property name="kdenlive:folderid">218</property>
  <property name="kdenlive:id">403</property>
  <property name="kdenlive:file_size">1157352</property>
  <property name="kdenlive:file_hash">a97ecac66f4a455dde92beba3f742f04</property>
  <property name="meta.media.top_field_first">0</property>
  <property name="meta.media.progressive">1</property>
  <property name="mute_on_pause">1</property>
 </chain>
 <chain id="chain139" out="01:15:45.840">
  <property name="length">113647</property>
  <property name="eof">pause</property>
  <property name="resource">b-roll/Watching Shadiversity Desperately Try To Defend AI Art (he fails) [UqN7cdzWzvU].webm</property>
  <property name="mlt_service">avformat-novalidate</property>
  <property name="meta.media.nb_streams">2</property>
  <property name="meta.media.0.stream.type">video</property>
  <property name="meta.media.0.stream.frame_rate">30.001</property>
  <property name="meta.media.0.stream.sample_aspect_ratio">1</property>
  <property name="meta.media.0.codec.width">1920</property>
  <property name="meta.media.0.codec.height">1080</property>
  <property name="meta.media.0.codec.rotate">0</property>
  <property name="meta.media.0.codec.pix_fmt">yuv420p</property>
  <property name="meta.media.0.codec.sample_aspect_ratio">0</property>
  <property name="meta.media.0.codec.colorspace">709</property>
  <property name="meta.media.0.codec.color_trc">1</property>
  <property name="meta.media.0.codec.name">vp9</property>
  <property name="meta.media.0.codec.long_name">Google VP9</property>
  <property name="meta.media.0.codec.bit_rate">0</property>
  <property name="meta.attr.0.stream.HANDLER_NAME.markup">ISO Media file produced by Google Inc. Created on: 12/14/2023.</property>
  <property name="meta.attr.0.stream.VENDOR_ID.markup">[0][0][0][0]</property>
  <property name="meta.attr.0.stream.DURATION.markup">01:15:45.833000000</property>
  <property name="meta.media.1.stream.type">audio</property>
  <property name="meta.media.1.codec.sample_fmt">fltp</property>
  <property name="meta.media.1.codec.sample_rate">48000</property>
  <property name="meta.media.1.codec.channels">2</property>
  <property name="meta.media.1.codec.name">opus</property>
  <property name="meta.media.1.codec.long_name">Opus</property>
  <property name="meta.media.1.codec.bit_rate">0</property>
  <property name="meta.attr.1.stream.language.markup">eng</property>
  <property name="meta.attr.1.stream.DURATION.markup">01:15:45.861000000</property>
  <property name="meta.attr.COMPATIBLE_BRANDS.markup">iso6mp41</property>
  <property name="meta.attr.MAJOR_BRAND.markup">dash</property>
  <property name="meta.attr.MINOR_VERSION.markup">0</property>
  <property name="meta.attr.ENCODER.markup">Lavf59.27.100</property>
  <property name="seekable">1</property>
  <property name="meta.media.sample_aspect_num">1</property>
  <property name="meta.media.sample_aspect_den">1</property>
  <property name="format">3</property>
  <property name="audio_index">1</property>
  <property name="video_index">0</property>
  <property name="meta.media.frame_rate_num">29971</property>
  <property name="meta.media.frame_rate_den">999</property>
  <property name="meta.media.colorspace">709</property>
  <property name="meta.media.color_trc">1</property>
  <property name="meta.media.has_b_frames">0</property>
  <property name="meta.media.width">1920</property>
  <property name="meta.media.height">1080</property>
  <property name="meta.media.color_range">mpeg</property>
  <property name="kdenlive:clipname"/>
  <property name="meta.media.top_field_first">0</property>
  <property name="meta.media.progressive">1</property>
  <property name="kdenlive:clip_type">0</property>
  <property name="kdenlive:folderid">14</property>
  <property name="kdenlive:id">404</property>
  <property name="kdenlive:file_size">630698662</property>
  <property name="kdenlive:file_hash">5142aba64b38d266326aaebb7d19a7c2</property>
  <property name="kdenlive:audio_max1">226</property>
  <property name="warp_pitch">1</property>
  <property name="mute_on_pause">1</property>
 </chain>
 <chain id="chain141" out="00:00:19.960">
  <property name="length">500</property>
  <property name="eof">pause</property>
  <property name="resource">animation/output/mapping-set-in-stone.mp4</property>
  <property name="mlt_service">avformat-novalidate</property>
  <property name="meta.media.nb_streams">1</property>
  <property name="meta.media.0.stream.type">video</property>
  <property name="meta.media.0.stream.frame_rate">60</property>
  <property name="meta.media.0.stream.sample_aspect_ratio">0</property>
  <property name="meta.media.0.codec.width">1920</property>
  <property name="meta.media.0.codec.height">1080</property>
  <property name="meta.media.0.codec.rotate">0</property>
  <property name="meta.media.0.codec.pix_fmt">yuv420p</property>
  <property name="meta.media.0.codec.sample_aspect_ratio">0</property>
  <property name="meta.media.0.codec.colorspace">709</property>
  <property name="meta.media.0.codec.name">h264</property>
  <property name="meta.media.0.codec.long_name">H.264 / AVC / MPEG-4 AVC / MPEG-4 part 10</property>
  <property name="meta.media.0.codec.bit_rate">256811</property>
  <property name="meta.attr.0.stream.handler_name.markup">VideoHandler</property>
  <property name="meta.attr.0.stream.vendor_id.markup">[0][0][0][0]</property>
  <property name="meta.attr.major_brand.markup">isom</property>
  <property name="meta.attr.minor_version.markup">512</property>
  <property name="meta.attr.compatible_brands.markup">isomiso2avc1mp41</property>
  <property name="meta.attr.encoder.markup">Lavf58.24.100</property>
  <property name="seekable">1</property>
  <property name="meta.media.sample_aspect_num">1</property>
  <property name="meta.media.sample_aspect_den">1</property>
  <property name="format">3</property>
  <property name="audio_index">-1</property>
  <property name="video_index">0</property>
  <property name="meta.media.frame_rate_num">60</property>
  <property name="meta.media.frame_rate_den">1</property>
  <property name="meta.media.colorspace">709</property>
  <property name="meta.media.color_trc">2</property>
  <property name="meta.media.has_b_frames">2</property>
  <property name="meta.media.width">1920</property>
  <property name="meta.media.height">1080</property>
  <property name="meta.media.color_range">mpeg</property>
  <property name="kdenlive:clipname"/>
  <property name="meta.media.top_field_first">0</property>
  <property name="meta.media.progressive">1</property>
  <property name="kdenlive:clip_type">2</property>
  <property name="kdenlive:folderid">218</property>
  <property name="kdenlive:id">405</property>
  <property name="kdenlive:file_size">657113</property>
  <property name="kdenlive:file_hash">9b333d1e6b95de2439801dafe93ea662</property>
  <property name="mute_on_pause">1</property>
 </chain>
 <producer id="producer340" in="00:00:00.000" out="00:00:09.960">
  <property name="length">250</property>
  <property name="eof">pause</property>
  <property name="progressive">1</property>
  <property name="aspect_ratio">1</property>
  <property name="seekable">1</property>
  <property name="mlt_service">kdenlivetitle</property>
  <property name="kdenlive:duration">00:00:05:00</property>
  <property name="kdenlive:clipname">â‰ </property>
  <property name="xmldata">&lt;kdenlivetitle duration="125" LC_NUMERIC="C" width="1920" height="1080" out="124">
 &lt;item type="QGraphicsTextItem" z-index="0">
  &lt;position x="884" y="402">
   &lt;transform>1,0,0,0,1,0,0,0,1&lt;/transform>
  &lt;/position>
  &lt;content line-spacing="0" shadow="0;#64000000;3;3;3" font-underline="0" box-height="276" font="Cubano" letter-spacing="0" font-pixel-size="230" font-italic="0" typewriter="0;2;1;0;0" alignment="4" font-weight="50" box-width="151.328" font-color="255,255,255,255">â‰ &lt;/content>
 &lt;/item>
 &lt;startviewport rect="0,0,1920,1080"/>
 &lt;endviewport rect="0,0,1920,1080"/>
 &lt;background color="0,0,0,0"/>
&lt;/kdenlivetitle>
</property>
  <property name="kdenlive:folderid">21</property>
  <property name="kdenlive:id">406</property>
  <property name="kdenlive:clip_type">2</property>
  <property name="force_reload">0</property>
  <property name="meta.media.width">1920</property>
  <property name="meta.media.height">1080</property>
  <property name="kdenlive:file_hash">93f460c44577372e6ff1e05ebe856cb6</property>
 </producer>
 <producer id="producer344" in="00:00:00.000" out="00:00:09.960">
  <property name="length">250</property>
  <property name="eof">pause</property>
  <property name="resource">images/0_The_Vitruvian_Man_-_by_Leonardo_da_Vinci.jpg</property>
  <property name="ttl">25</property>
  <property name="aspect_ratio">1</property>
  <property name="progressive">1</property>
  <property name="seekable">1</property>
  <property name="format">1</property>
  <property name="meta.media.width">2030</property>
  <property name="meta.media.height">2003</property>
  <property name="mlt_service">qimage</property>
  <property name="kdenlive:clipname"/>
  <property name="kdenlive:duration">00:00:05:00</property>
  <property name="kdenlive:folderid">28</property>
  <property name="kdenlive:id">407</property>
  <property name="kdenlive:clip_type">2</property>
  <property name="kdenlive:file_size">7248693</property>
  <property name="kdenlive:file_hash">018107b012a2e7e921dde44920d8fde3</property>
 </producer>
 <producer id="producer308" in="00:00:00.000" out="00:00:06.360">
  <property name="length">160</property>
  <property name="eof">pause</property>
  <property name="resource">images/free-will.jpg</property>
  <property name="ttl">25</property>
  <property name="aspect_ratio">1</property>
  <property name="progressive">1</property>
  <property name="seekable">1</property>
  <property name="format">1</property>
  <property name="meta.media.width">1000</property>
  <property name="meta.media.height">655</property>
  <property name="mlt_service">qimage</property>
  <property name="kdenlive:clipname"/>
  <property name="kdenlive:duration">00:00:05:00</property>
  <property name="kdenlive:folderid">28</property>
  <property name="kdenlive:id">408</property>
  <property name="kdenlive:clip_type">2</property>
  <property name="kdenlive:file_size">151325</property>
  <property name="kdenlive:file_hash">64106ed13fd987d08e538feb1a95524b</property>
 </producer>
 <chain id="chain162" out="00:08:45.120">
  <property name="length">13129</property>
  <property name="eof">pause</property>
  <property name="resource">/home/liquidzulu/Videos/yt/b-roll/Nana the Border Collie Performs Amazing Dog Tricks [q8FfNQ_E0l0].webm</property>
  <property name="mlt_service">avformat-novalidate</property>
  <property name="meta.media.nb_streams">2</property>
  <property name="meta.media.0.stream.type">video</property>
  <property name="meta.media.0.stream.frame_rate">29.97</property>
  <property name="meta.media.0.stream.sample_aspect_ratio">1</property>
  <property name="meta.media.0.codec.width">1280</property>
  <property name="meta.media.0.codec.height">720</property>
  <property name="meta.media.0.codec.rotate">0</property>
  <property name="meta.media.0.codec.pix_fmt">yuv420p</property>
  <property name="meta.media.0.codec.sample_aspect_ratio">0</property>
  <property name="meta.media.0.codec.colorspace">709</property>
  <property name="meta.media.0.codec.color_trc">1</property>
  <property name="meta.media.0.codec.name">vp9</property>
  <property name="meta.media.0.codec.long_name">Google VP9</property>
  <property name="meta.media.0.codec.bit_rate">0</property>
  <property name="meta.attr.0.stream.language.markup">eng</property>
  <property name="meta.attr.0.stream.DURATION.markup">00:08:45.058000000</property>
  <property name="meta.media.1.stream.type">audio</property>
  <property name="meta.media.1.codec.sample_fmt">fltp</property>
  <property name="meta.media.1.codec.sample_rate">48000</property>
  <property name="meta.media.1.codec.channels">2</property>
  <property name="meta.media.1.codec.name">opus</property>
  <property name="meta.media.1.codec.long_name">Opus</property>
  <property name="meta.media.1.codec.bit_rate">0</property>
  <property name="meta.attr.1.stream.language.markup">eng</property>
  <property name="meta.attr.1.stream.DURATION.markup">00:08:45.141000000</property>
  <property name="meta.attr.ENCODER.markup">Lavf59.27.100</property>
  <property name="seekable">1</property>
  <property name="meta.media.sample_aspect_num">1</property>
  <property name="meta.media.sample_aspect_den">1</property>
  <property name="format">3</property>
  <property name="audio_index">-1</property>
  <property name="video_index">0</property>
  <property name="meta.media.frame_rate_num">30000</property>
  <property name="meta.media.frame_rate_den">1001</property>
  <property name="meta.media.colorspace">709</property>
  <property name="meta.media.color_trc">1</property>
  <property name="meta.media.has_b_frames">0</property>
  <property name="meta.media.width">1280</property>
  <property name="meta.media.height">720</property>
  <property name="meta.media.color_range">mpeg</property>
  <property name="kdenlive:clipname"/>
  <property name="meta.media.top_field_first">0</property>
  <property name="meta.media.progressive">1</property>
  <property name="kdenlive:clip_type">0</property>
  <property name="kdenlive:folderid">14</property>
  <property name="kdenlive:id">409</property>
  <property name="kdenlive:file_size">69838706</property>
  <property name="kdenlive:file_hash">b9461c7a361c0a71709d7850374a2c1f</property>
  <property name="kdenlive:audio_max1">253</property>
  <property name="kdenlive:active_streams">-1</property>
  <property name="set.test_audio">1</property>
  <property name="mute_on_pause">1</property>
 </chain>
 <producer id="producer309" in="00:00:00.000" out="00:00:04.960">
  <property name="length">00:00:05.000</property>
  <property name="eof">pause</property>
  <property name="resource">citations/citations-dog.png</property>
  <property name="ttl">25</property>
  <property name="aspect_ratio">1</property>
  <property name="progressive">1</property>
  <property name="seekable">1</property>
  <property name="format">2</property>
  <property name="meta.media.width">1920</property>
  <property name="meta.media.height">1080</property>
  <property name="mlt_service">qimage</property>
  <property name="kdenlive:clipname"/>
  <property name="kdenlive:duration">00:00:05:00</property>
  <property name="kdenlive:folderid">234</property>
  <property name="kdenlive:id">410</property>
  <property name="kdenlive:clip_type">2</property>
  <property name="kdenlive:file_size">30414</property>
  <property name="kdenlive:file_hash">03ea069aacf22b0a09fd5e211ff5d893</property>
 </producer>
 <chain id="chain163" out="00:00:17.560">
  <property name="length">440</property>
  <property name="eof">pause</property>
  <property name="resource">animation/output/actual-potential.mp4</property>
  <property name="mlt_service">avformat-novalidate</property>
  <property name="meta.media.nb_streams">1</property>
  <property name="meta.media.0.stream.type">video</property>
  <property name="meta.media.0.stream.frame_rate">60</property>
  <property name="meta.media.0.stream.sample_aspect_ratio">0</property>
  <property name="meta.media.0.codec.width">1920</property>
  <property name="meta.media.0.codec.height">1080</property>
  <property name="meta.media.0.codec.rotate">0</property>
  <property name="meta.media.0.codec.pix_fmt">yuv420p</property>
  <property name="meta.media.0.codec.sample_aspect_ratio">0</property>
  <property name="meta.media.0.codec.colorspace">709</property>
  <property name="meta.media.0.codec.name">h264</property>
  <property name="meta.media.0.codec.long_name">H.264 / AVC / MPEG-4 AVC / MPEG-4 part 10</property>
  <property name="meta.media.0.codec.bit_rate">162605</property>
  <property name="meta.attr.0.stream.handler_name.markup">VideoHandler</property>
  <property name="meta.attr.0.stream.vendor_id.markup">[0][0][0][0]</property>
  <property name="meta.attr.major_brand.markup">isom</property>
  <property name="meta.attr.minor_version.markup">512</property>
  <property name="meta.attr.compatible_brands.markup">isomiso2avc1mp41</property>
  <property name="meta.attr.encoder.markup">Lavf58.24.100</property>
  <property name="seekable">1</property>
  <property name="meta.media.sample_aspect_num">1</property>
  <property name="meta.media.sample_aspect_den">1</property>
  <property name="format">3</property>
  <property name="audio_index">-1</property>
  <property name="video_index">0</property>
  <property name="meta.media.frame_rate_num">60</property>
  <property name="meta.media.frame_rate_den">1</property>
  <property name="meta.media.colorspace">709</property>
  <property name="meta.media.color_trc">2</property>
  <property name="meta.media.has_b_frames">2</property>
  <property name="meta.media.width">1920</property>
  <property name="meta.media.height">1080</property>
  <property name="meta.media.color_range">mpeg</property>
  <property name="kdenlive:clipname"/>
  <property name="kdenlive:clip_type">2</property>
  <property name="kdenlive:folderid">218</property>
  <property name="kdenlive:id">411</property>
  <property name="kdenlive:file_size">369433</property>
  <property name="kdenlive:file_hash">37aa4a7d94ef2f8d5799c05438f074f6</property>
  <property name="meta.media.top_field_first">0</property>
  <property name="meta.media.progressive">1</property>
  <property name="mute_on_pause">1</property>
 </chain>
 <chain id="chain164" out="00:00:15.720">
  <property name="length">394</property>
  <property name="eof">pause</property>
  <property name="resource">animation/src/assets/latent-space-photography/latent-space.mp4</property>
  <property name="mlt_service">avformat-novalidate</property>
  <property name="meta.media.nb_streams">2</property>
  <property name="meta.media.0.stream.type">video</property>
  <property name="meta.media.0.stream.frame_rate">23.976</property>
  <property name="meta.media.0.stream.sample_aspect_ratio">1</property>
  <property name="meta.media.0.codec.width">1920</property>
  <property name="meta.media.0.codec.height">1080</property>
  <property name="meta.media.0.codec.rotate">0</property>
  <property name="meta.media.0.codec.pix_fmt">yuv420p</property>
  <property name="meta.media.0.codec.sample_aspect_ratio">1</property>
  <property name="meta.media.0.codec.colorspace">709</property>
  <property name="meta.media.0.codec.color_trc">1</property>
  <property name="meta.media.0.codec.name">h264</property>
  <property name="meta.media.0.codec.long_name">H.264 / AVC / MPEG-4 AVC / MPEG-4 part 10</property>
  <property name="meta.media.0.codec.bit_rate">1232253</property>
  <property name="meta.attr.0.stream.handler_name.markup">VideoHandler</property>
  <property name="meta.attr.0.stream.vendor_id.markup">[0][0][0][0]</property>
  <property name="meta.media.1.stream.type">audio</property>
  <property name="meta.media.1.codec.sample_fmt">fltp</property>
  <property name="meta.media.1.codec.sample_rate">48000</property>
  <property name="meta.media.1.codec.channels">2</property>
  <property name="meta.media.1.codec.name">aac</property>
  <property name="meta.media.1.codec.long_name">AAC (Advanced Audio Coding)</property>
  <property name="meta.media.1.codec.bit_rate">2275</property>
  <property name="meta.attr.1.stream.handler_name.markup">SoundHandler</property>
  <property name="meta.attr.1.stream.vendor_id.markup">[0][0][0][0]</property>
  <property name="meta.attr.major_brand.markup">isom</property>
  <property name="meta.attr.minor_version.markup">512</property>
  <property name="meta.attr.compatible_brands.markup">isomiso2avc1mp41</property>
  <property name="meta.attr.encoder.markup">Lavf59.27.100</property>
  <property name="seekable">1</property>
  <property name="meta.media.sample_aspect_num">1</property>
  <property name="meta.media.sample_aspect_den">1</property>
  <property name="format">3</property>
  <property name="audio_index">1</property>
  <property name="video_index">0</property>
  <property name="meta.media.frame_rate_num">24000</property>
  <property name="meta.media.frame_rate_den">1001</property>
  <property name="meta.media.colorspace">709</property>
  <property name="meta.media.color_trc">1</property>
  <property name="meta.media.has_b_frames">2</property>
  <property name="meta.media.width">1920</property>
  <property name="meta.media.height">1080</property>
  <property name="meta.media.color_range">mpeg</property>
  <property name="kdenlive:clipname"/>
  <property name="meta.media.top_field_first">0</property>
  <property name="meta.media.progressive">1</property>
  <property name="kdenlive:clip_type">0</property>
  <property name="kdenlive:folderid">14</property>
  <property name="kdenlive:id">412</property>
  <property name="kdenlive:file_size">2438674</property>
  <property name="kdenlive:file_hash">1b733fbdf5f707d8c13e02ffcc6c407c</property>
  <property name="kdenlive:audio_max1">1</property>
  <property name="mute_on_pause">1</property>
 </chain>
 <producer id="producer310" in="00:00:00.000" out="00:00:10.040">
  <property name="length">252</property>
  <property name="eof">pause</property>
  <property name="resource">citations/citations-vox-explained.png</property>
  <property name="ttl">25</property>
  <property name="aspect_ratio">1</property>
  <property name="progressive">1</property>
  <property name="seekable">1</property>
  <property name="format">2</property>
  <property name="meta.media.width">1920</property>
  <property name="meta.media.height">1080</property>
  <property name="mlt_service">qimage</property>
  <property name="kdenlive:clipname"/>
  <property name="kdenlive:duration">00:00:05:00</property>
  <property name="kdenlive:folderid">234</property>
  <property name="kdenlive:id">413</property>
  <property name="kdenlive:clip_type">2</property>
  <property name="kdenlive:file_size">20534</property>
  <property name="kdenlive:file_hash">363ec5c5c06bcedfc9457b32ca505415</property>
 </producer>
 <chain id="chain166" out="00:00:10.360">
  <property name="length">260</property>
  <property name="eof">pause</property>
  <property name="resource">animation/output/zeno.mp4</property>
  <property name="mlt_service">avformat-novalidate</property>
  <property name="meta.media.nb_streams">1</property>
  <property name="meta.media.0.stream.type">video</property>
  <property name="meta.media.0.stream.frame_rate">60</property>
  <property name="meta.media.0.stream.sample_aspect_ratio">0</property>
  <property name="meta.media.0.codec.width">1920</property>
  <property name="meta.media.0.codec.height">1080</property>
  <property name="meta.media.0.codec.rotate">0</property>
  <property name="meta.media.0.codec.pix_fmt">yuv420p</property>
  <property name="meta.media.0.codec.sample_aspect_ratio">0</property>
  <property name="meta.media.0.codec.colorspace">709</property>
  <property name="meta.media.0.codec.name">h264</property>
  <property name="meta.media.0.codec.long_name">H.264 / AVC / MPEG-4 AVC / MPEG-4 part 10</property>
  <property name="meta.media.0.codec.bit_rate">348534</property>
  <property name="meta.attr.0.stream.handler_name.markup">VideoHandler</property>
  <property name="meta.attr.0.stream.vendor_id.markup">[0][0][0][0]</property>
  <property name="meta.attr.major_brand.markup">isom</property>
  <property name="meta.attr.minor_version.markup">512</property>
  <property name="meta.attr.compatible_brands.markup">isomiso2avc1mp41</property>
  <property name="meta.attr.encoder.markup">Lavf58.24.100</property>
  <property name="seekable">1</property>
  <property name="meta.media.sample_aspect_num">1</property>
  <property name="meta.media.sample_aspect_den">1</property>
  <property name="format">3</property>
  <property name="audio_index">-1</property>
  <property name="video_index">0</property>
  <property name="meta.media.frame_rate_num">60</property>
  <property name="meta.media.frame_rate_den">1</property>
  <property name="meta.media.colorspace">709</property>
  <property name="meta.media.color_trc">2</property>
  <property name="meta.media.has_b_frames">2</property>
  <property name="meta.media.width">1920</property>
  <property name="meta.media.height">1080</property>
  <property name="meta.media.color_range">mpeg</property>
  <property name="kdenlive:clipname"/>
  <property name="kdenlive:clip_type">2</property>
  <property name="kdenlive:folderid">218</property>
  <property name="kdenlive:id">414</property>
  <property name="kdenlive:file_size">461869</property>
  <property name="kdenlive:file_hash">23c1c423efeb8fe3df35d70879a4c270</property>
  <property name="meta.media.top_field_first">0</property>
  <property name="meta.media.progressive">1</property>
  <property name="mute_on_pause">1</property>
 </chain>
 <chain id="chain165" out="00:04:59.200">
  <property name="length">7481</property>
  <property name="eof">pause</property>
  <property name="resource">/home/liquidzulu/Music/popular-front/Bamboo [1145627386].mp3</property>
  <property name="mlt_service">avformat</property>
  <property name="meta.media.nb_streams">1</property>
  <property name="meta.media.0.stream.type">audio</property>
  <property name="meta.media.0.codec.sample_fmt">fltp</property>
  <property name="meta.media.0.codec.sample_rate">44100</property>
  <property name="meta.media.0.codec.channels">2</property>
  <property name="meta.media.0.codec.name">mp3float</property>
  <property name="meta.media.0.codec.long_name">MP3 (MPEG audio layer 3)</property>
  <property name="meta.media.0.codec.bit_rate">128000</property>
  <property name="meta.attr.0.stream.encoder.markup">LAME3.100</property>
  <property name="seekable">1</property>
  <property name="audio_index">0</property>
  <property name="video_index">-1</property>
  <property name="kdenlive:clipname"/>
  <property name="kdenlive:clip_type">1</property>
  <property name="kdenlive:folderid">5</property>
  <property name="kdenlive:id">415</property>
  <property name="kdenlive:file_size">4788557</property>
  <property name="kdenlive:file_hash">ed6850b7730e0d4b938504bc97dc43da</property>
  <property name="kdenlive:audio_max0">241</property>
  <property name="mute_on_pause">1</property>
 </chain>
 <chain id="chain167" out="00:00:08.160">
  <property name="length">205</property>
  <property name="eof">pause</property>
  <property name="resource">animation/output/subdivided-line.mp4</property>
  <property name="mlt_service">avformat-novalidate</property>
  <property name="meta.media.nb_streams">1</property>
  <property name="meta.media.0.stream.type">video</property>
  <property name="meta.media.0.stream.frame_rate">60</property>
  <property name="meta.media.0.stream.sample_aspect_ratio">0</property>
  <property name="meta.media.0.codec.width">1920</property>
  <property name="meta.media.0.codec.height">1080</property>
  <property name="meta.media.0.codec.rotate">0</property>
  <property name="meta.media.0.codec.pix_fmt">yuv420p</property>
  <property name="meta.media.0.codec.sample_aspect_ratio">0</property>
  <property name="meta.media.0.codec.colorspace">709</property>
  <property name="meta.media.0.codec.name">h264</property>
  <property name="meta.media.0.codec.long_name">H.264 / AVC / MPEG-4 AVC / MPEG-4 part 10</property>
  <property name="meta.media.0.codec.bit_rate">247111</property>
  <property name="meta.attr.0.stream.handler_name.markup">VideoHandler</property>
  <property name="meta.attr.0.stream.vendor_id.markup">[0][0][0][0]</property>
  <property name="meta.attr.major_brand.markup">isom</property>
  <property name="meta.attr.minor_version.markup">512</property>
  <property name="meta.attr.compatible_brands.markup">isomiso2avc1mp41</property>
  <property name="meta.attr.encoder.markup">Lavf58.24.100</property>
  <property name="seekable">1</property>
  <property name="meta.media.sample_aspect_num">1</property>
  <property name="meta.media.sample_aspect_den">1</property>
  <property name="format">3</property>
  <property name="audio_index">-1</property>
  <property name="video_index">0</property>
  <property name="meta.media.frame_rate_num">60</property>
  <property name="meta.media.frame_rate_den">1</property>
  <property name="meta.media.colorspace">709</property>
  <property name="meta.media.color_trc">2</property>
  <property name="meta.media.has_b_frames">2</property>
  <property name="meta.media.width">1920</property>
  <property name="meta.media.height">1080</property>
  <property name="meta.media.color_range">mpeg</property>
  <property name="kdenlive:clipname"/>
  <property name="meta.media.top_field_first">0</property>
  <property name="meta.media.progressive">1</property>
  <property name="kdenlive:clip_type">2</property>
  <property name="kdenlive:folderid">218</property>
  <property name="kdenlive:id">416</property>
  <property name="kdenlive:file_size">259948</property>
  <property name="kdenlive:file_hash">f2cad2893d828a230e076d0cc7bff19a</property>
  <property name="mute_on_pause">1</property>
 </chain>
 <chain id="chain168" out="00:00:25.640">
  <property name="length">642</property>
  <property name="eof">pause</property>
  <property name="resource">animation/output/listing-fractions.mp4</property>
  <property name="mlt_service">avformat-novalidate</property>
  <property name="meta.media.nb_streams">1</property>
  <property name="meta.media.0.stream.type">video</property>
  <property name="meta.media.0.stream.frame_rate">60</property>
  <property name="meta.media.0.stream.sample_aspect_ratio">0</property>
  <property name="meta.media.0.codec.width">1920</property>
  <property name="meta.media.0.codec.height">1080</property>
  <property name="meta.media.0.codec.rotate">0</property>
  <property name="meta.media.0.codec.pix_fmt">yuv420p</property>
  <property name="meta.media.0.codec.sample_aspect_ratio">0</property>
  <property name="meta.media.0.codec.colorspace">709</property>
  <property name="meta.media.0.codec.name">h264</property>
  <property name="meta.media.0.codec.long_name">H.264 / AVC / MPEG-4 AVC / MPEG-4 part 10</property>
  <property name="meta.media.0.codec.bit_rate">1140279</property>
  <property name="meta.attr.0.stream.handler_name.markup">VideoHandler</property>
  <property name="meta.attr.0.stream.vendor_id.markup">[0][0][0][0]</property>
  <property name="meta.attr.major_brand.markup">isom</property>
  <property name="meta.attr.minor_version.markup">512</property>
  <property name="meta.attr.compatible_brands.markup">isomiso2avc1mp41</property>
  <property name="meta.attr.encoder.markup">Lavf58.24.100</property>
  <property name="seekable">1</property>
  <property name="meta.media.sample_aspect_num">1</property>
  <property name="meta.media.sample_aspect_den">1</property>
  <property name="format">3</property>
  <property name="audio_index">-1</property>
  <property name="video_index">0</property>
  <property name="meta.media.frame_rate_num">60</property>
  <property name="meta.media.frame_rate_den">1</property>
  <property name="meta.media.colorspace">709</property>
  <property name="meta.media.color_trc">2</property>
  <property name="meta.media.has_b_frames">2</property>
  <property name="meta.media.width">1920</property>
  <property name="meta.media.height">1080</property>
  <property name="meta.media.color_range">mpeg</property>
  <property name="kdenlive:clipname"/>
  <property name="meta.media.top_field_first">0</property>
  <property name="meta.media.progressive">1</property>
  <property name="kdenlive:clip_type">2</property>
  <property name="kdenlive:folderid">218</property>
  <property name="kdenlive:id">417</property>
  <property name="kdenlive:file_size">3673967</property>
  <property name="kdenlive:file_hash">b43724c4456552f2b400c9ef1185116a</property>
  <property name="mute_on_pause">1</property>
 </chain>
 <chain id="chain169" out="00:00:15.000">
  <property name="length">376</property>
  <property name="eof">pause</property>
  <property name="resource">animation/output/babel.mp4</property>
  <property name="mlt_service">avformat-novalidate</property>
  <property name="meta.media.nb_streams">1</property>
  <property name="meta.media.0.stream.type">video</property>
  <property name="meta.media.0.stream.frame_rate">30</property>
  <property name="meta.media.0.stream.sample_aspect_ratio">0</property>
  <property name="meta.media.0.codec.width">1920</property>
  <property name="meta.media.0.codec.height">1080</property>
  <property name="meta.media.0.codec.rotate">0</property>
  <property name="meta.media.0.codec.pix_fmt">yuv420p</property>
  <property name="meta.media.0.codec.sample_aspect_ratio">0</property>
  <property name="meta.media.0.codec.colorspace">709</property>
  <property name="meta.media.0.codec.name">h264</property>
  <property name="meta.media.0.codec.long_name">H.264 / AVC / MPEG-4 AVC / MPEG-4 part 10</property>
  <property name="meta.media.0.codec.bit_rate">21791929</property>
  <property name="meta.attr.0.stream.handler_name.markup">VideoHandler</property>
  <property name="meta.attr.0.stream.vendor_id.markup">[0][0][0][0]</property>
  <property name="meta.attr.major_brand.markup">isom</property>
  <property name="meta.attr.minor_version.markup">512</property>
  <property name="meta.attr.compatible_brands.markup">isomiso2avc1mp41</property>
  <property name="meta.attr.encoder.markup">Lavf58.24.100</property>
  <property name="seekable">1</property>
  <property name="meta.media.sample_aspect_num">1</property>
  <property name="meta.media.sample_aspect_den">1</property>
  <property name="format">3</property>
  <property name="audio_index">-1</property>
  <property name="video_index">0</property>
  <property name="meta.media.frame_rate_num">30</property>
  <property name="meta.media.frame_rate_den">1</property>
  <property name="meta.media.colorspace">709</property>
  <property name="meta.media.color_trc">2</property>
  <property name="meta.media.has_b_frames">2</property>
  <property name="meta.media.width">1920</property>
  <property name="meta.media.height">1080</property>
  <property name="meta.media.color_range">mpeg</property>
  <property name="kdenlive:clipname"/>
  <property name="meta.media.top_field_first">0</property>
  <property name="meta.media.progressive">1</property>
  <property name="kdenlive:clip_type">2</property>
  <property name="kdenlive:folderid">218</property>
  <property name="kdenlive:id">418</property>
  <property name="kdenlive:file_size">40955100</property>
  <property name="kdenlive:file_hash">363f6235693c92bd79a0ee524a27ecf7</property>
  <property name="mute_on_pause">1</property>
 </chain>
 <chain id="chain170" out="00:00:42.240">
  <property name="length">1057</property>
  <property name="eof">pause</property>
  <property name="resource">videos/library-of-babel.mkv</property>
  <property name="mlt_service">avformat-novalidate</property>
  <property name="meta.media.nb_streams">2</property>
  <property name="meta.media.0.stream.type">video</property>
  <property name="meta.media.0.stream.frame_rate">60</property>
  <property name="meta.media.0.stream.sample_aspect_ratio">0</property>
  <property name="meta.media.0.codec.width">1920</property>
  <property name="meta.media.0.codec.height">1080</property>
  <property name="meta.media.0.codec.rotate">0</property>
  <property name="meta.media.0.codec.pix_fmt">yuv420p</property>
  <property name="meta.media.0.codec.sample_aspect_ratio">1</property>
  <property name="meta.media.0.codec.colorspace">709</property>
  <property name="meta.media.0.codec.color_trc">1</property>
  <property name="meta.media.0.codec.name">h264</property>
  <property name="meta.media.0.codec.long_name">H.264 / AVC / MPEG-4 AVC / MPEG-4 part 10</property>
  <property name="meta.media.0.codec.bit_rate">0</property>
  <property name="meta.attr.0.stream.DURATION.markup">00:00:42.284000000</property>
  <property name="meta.media.1.stream.type">audio</property>
  <property name="meta.media.1.codec.sample_fmt">fltp</property>
  <property name="meta.media.1.codec.sample_rate">48000</property>
  <property name="meta.media.1.codec.channels">1</property>
  <property name="meta.media.1.codec.name">aac</property>
  <property name="meta.media.1.codec.long_name">AAC (Advanced Audio Coding)</property>
  <property name="meta.media.1.codec.bit_rate">0</property>
  <property name="meta.attr.1.stream.title.markup">simple_aac_recording</property>
  <property name="meta.attr.1.stream.DURATION.markup">00:00:42.218000000</property>
  <property name="meta.attr.ENCODER.markup">Lavf59.27.100</property>
  <property name="seekable">1</property>
  <property name="meta.media.sample_aspect_num">1</property>
  <property name="meta.media.sample_aspect_den">1</property>
  <property name="format">3</property>
  <property name="audio_index">-1</property>
  <property name="video_index">0</property>
  <property name="meta.media.frame_rate_num">60</property>
  <property name="meta.media.frame_rate_den">1</property>
  <property name="meta.media.colorspace">709</property>
  <property name="meta.media.color_trc">1</property>
  <property name="meta.media.has_b_frames">2</property>
  <property name="meta.media.width">1920</property>
  <property name="meta.media.height">1080</property>
  <property name="meta.media.color_range">mpeg</property>
  <property name="kdenlive:clipname"/>
  <property name="meta.media.top_field_first">0</property>
  <property name="meta.media.progressive">1</property>
  <property name="kdenlive:clip_type">0</property>
  <property name="kdenlive:folderid">14</property>
  <property name="kdenlive:id">419</property>
  <property name="kdenlive:file_size">6674059</property>
  <property name="kdenlive:file_hash">c376486ea0371157695c10f515876d4b</property>
  <property name="kdenlive:audio_max1">1</property>
  <property name="kdenlive:active_streams">-1</property>
  <property name="set.test_audio">1</property>
  <property name="mute_on_pause">1</property>
 </chain>
 <chain id="chain171" out="00:00:17.240">
  <property name="length">432</property>
  <property name="eof">pause</property>
  <property name="resource">videos/zapata-babel.mkv</property>
  <property name="mlt_service">avformat-novalidate</property>
  <property name="meta.media.nb_streams">2</property>
  <property name="meta.media.0.stream.type">video</property>
  <property name="meta.media.0.stream.frame_rate">60</property>
  <property name="meta.media.0.stream.sample_aspect_ratio">0</property>
  <property name="meta.media.0.codec.width">1920</property>
  <property name="meta.media.0.codec.height">1080</property>
  <property name="meta.media.0.codec.rotate">0</property>
  <property name="meta.media.0.codec.pix_fmt">yuv420p</property>
  <property name="meta.media.0.codec.sample_aspect_ratio">1</property>
  <property name="meta.media.0.codec.colorspace">709</property>
  <property name="meta.media.0.codec.color_trc">1</property>
  <property name="meta.media.0.codec.name">h264</property>
  <property name="meta.media.0.codec.long_name">H.264 / AVC / MPEG-4 AVC / MPEG-4 part 10</property>
  <property name="meta.media.0.codec.bit_rate">0</property>
  <property name="meta.attr.0.stream.DURATION.markup">00:00:17.267000000</property>
  <property name="meta.media.1.stream.type">audio</property>
  <property name="meta.media.1.codec.sample_fmt">fltp</property>
  <property name="meta.media.1.codec.sample_rate">48000</property>
  <property name="meta.media.1.codec.channels">2</property>
  <property name="meta.media.1.codec.name">aac</property>
  <property name="meta.media.1.codec.long_name">AAC (Advanced Audio Coding)</property>
  <property name="meta.media.1.codec.bit_rate">0</property>
  <property name="meta.attr.1.stream.title.markup">simple_aac_recording</property>
  <property name="meta.attr.1.stream.DURATION.markup">00:00:17.194000000</property>
  <property name="meta.attr.ENCODER.markup">Lavf59.27.100</property>
  <property name="seekable">1</property>
  <property name="meta.media.sample_aspect_num">1</property>
  <property name="meta.media.sample_aspect_den">1</property>
  <property name="format">3</property>
  <property name="audio_index">1</property>
  <property name="video_index">0</property>
  <property name="meta.media.frame_rate_num">60</property>
  <property name="meta.media.frame_rate_den">1</property>
  <property name="meta.media.colorspace">709</property>
  <property name="meta.media.color_trc">1</property>
  <property name="meta.media.has_b_frames">2</property>
  <property name="meta.media.width">1920</property>
  <property name="meta.media.height">1080</property>
  <property name="meta.media.color_range">mpeg</property>
  <property name="kdenlive:clipname"/>
  <property name="meta.media.top_field_first">0</property>
  <property name="meta.media.progressive">1</property>
  <property name="kdenlive:clip_type">0</property>
  <property name="kdenlive:folderid">14</property>
  <property name="kdenlive:id">420</property>
  <property name="kdenlive:file_size">787283</property>
  <property name="kdenlive:file_hash">7d0a59322db1caf75b874b75e7f5eaf7</property>
  <property name="kdenlive:audio_max1">1</property>
  <property name="mute_on_pause">1</property>
 </chain>
 <chain id="chain422" out="00:04:09.960">
  <property name="length">6250</property>
  <property name="eof">pause</property>
  <property name="resource">animation/output/actual-latent-space.mp4</property>
  <property name="mlt_service">avformat-novalidate</property>
  <property name="meta.media.nb_streams">1</property>
  <property name="meta.media.0.stream.type">video</property>
  <property name="meta.media.0.stream.frame_rate">60</property>
  <property name="meta.media.0.stream.sample_aspect_ratio">0</property>
  <property name="meta.media.0.codec.width">1920</property>
  <property name="meta.media.0.codec.height">1080</property>
  <property name="meta.media.0.codec.rotate">0</property>
  <property name="meta.media.0.codec.pix_fmt">yuv420p</property>
  <property name="meta.media.0.codec.sample_aspect_ratio">0</property>
  <property name="meta.media.0.codec.colorspace">709</property>
  <property name="meta.media.0.codec.name">h264</property>
  <property name="meta.media.0.codec.long_name">H.264 / AVC / MPEG-4 AVC / MPEG-4 part 10</property>
  <property name="meta.media.0.codec.bit_rate">487802</property>
  <property name="meta.attr.0.stream.handler_name.markup">VideoHandler</property>
  <property name="meta.attr.0.stream.vendor_id.markup">[0][0][0][0]</property>
  <property name="meta.attr.major_brand.markup">isom</property>
  <property name="meta.attr.minor_version.markup">512</property>
  <property name="meta.attr.compatible_brands.markup">isomiso2avc1mp41</property>
  <property name="meta.attr.encoder.markup">Lavf58.24.100</property>
  <property name="seekable">1</property>
  <property name="meta.media.sample_aspect_num">1</property>
  <property name="meta.media.sample_aspect_den">1</property>
  <property name="format">3</property>
  <property name="audio_index">-1</property>
  <property name="video_index">0</property>
  <property name="meta.media.frame_rate_num">60</property>
  <property name="meta.media.frame_rate_den">1</property>
  <property name="meta.media.colorspace">709</property>
  <property name="meta.media.color_trc">2</property>
  <property name="meta.media.has_b_frames">2</property>
  <property name="meta.media.width">1920</property>
  <property name="meta.media.height">1080</property>
  <property name="meta.media.color_range">mpeg</property>
  <property name="kdenlive:clipname"/>
  <property name="meta.media.top_field_first">0</property>
  <property name="meta.media.progressive">1</property>
  <property name="kdenlive:clip_type">2</property>
  <property name="kdenlive:folderid">218</property>
  <property name="kdenlive:id">421</property>
  <property name="kdenlive:file_size">15422944</property>
  <property name="kdenlive:file_hash">85c95f05ae8b75fbd29ed678508da5f1</property>
  <property name="mute_on_pause">1</property>
 </chain>
 <chain id="chain173" out="01:47:32.080">
  <property name="length">161303</property>
  <property name="eof">pause</property>
  <property name="resource">b-roll/Miles Johnstonï¼š Cheeky AI, The Total Set of Images, and Polite Revolution [EqpWfYX7ou8].webm</property>
  <property name="mlt_service">avformat-novalidate</property>
  <property name="meta.media.nb_streams">2</property>
  <property name="meta.media.0.stream.type">video</property>
  <property name="meta.media.0.stream.frame_rate">25</property>
  <property name="meta.media.0.stream.sample_aspect_ratio">1</property>
  <property name="meta.media.0.codec.width">1280</property>
  <property name="meta.media.0.codec.height">720</property>
  <property name="meta.media.0.codec.rotate">0</property>
  <property name="meta.media.0.codec.pix_fmt">yuv420p</property>
  <property name="meta.media.0.codec.sample_aspect_ratio">0</property>
  <property name="meta.media.0.codec.colorspace">709</property>
  <property name="meta.media.0.codec.color_trc">1</property>
  <property name="meta.media.0.codec.name">vp9</property>
  <property name="meta.media.0.codec.long_name">Google VP9</property>
  <property name="meta.media.0.codec.bit_rate">0</property>
  <property name="meta.attr.0.stream.language.markup">eng</property>
  <property name="meta.attr.0.stream.DURATION.markup">01:47:32.080000000</property>
  <property name="meta.media.1.stream.type">audio</property>
  <property name="meta.media.1.codec.sample_fmt">fltp</property>
  <property name="meta.media.1.codec.sample_rate">48000</property>
  <property name="meta.media.1.codec.channels">2</property>
  <property name="meta.media.1.codec.name">opus</property>
  <property name="meta.media.1.codec.long_name">Opus</property>
  <property name="meta.media.1.codec.bit_rate">0</property>
  <property name="meta.attr.1.stream.language.markup">eng</property>
  <property name="meta.attr.1.stream.DURATION.markup">01:47:32.121000000</property>
  <property name="meta.attr.ENCODER.markup">Lavf59.27.100</property>
  <property name="seekable">1</property>
  <property name="meta.media.sample_aspect_num">1</property>
  <property name="meta.media.sample_aspect_den">1</property>
  <property name="format">3</property>
  <property name="audio_index">-1</property>
  <property name="video_index">0</property>
  <property name="meta.media.frame_rate_num">25</property>
  <property name="meta.media.frame_rate_den">1</property>
  <property name="meta.media.colorspace">709</property>
  <property name="meta.media.color_trc">1</property>
  <property name="meta.media.has_b_frames">0</property>
  <property name="meta.media.width">1280</property>
  <property name="meta.media.height">720</property>
  <property name="meta.media.color_range">mpeg</property>
  <property name="kdenlive:clipname"/>
  <property name="meta.media.top_field_first">0</property>
  <property name="meta.media.progressive">1</property>
  <property name="kdenlive:clip_type">0</property>
  <property name="kdenlive:folderid">14</property>
  <property name="kdenlive:id">422</property>
  <property name="kdenlive:file_size">438888186</property>
  <property name="kdenlive:file_hash">db0f4f2e9e03634508d991031c21cd03</property>
  <property name="kdenlive:audio_max1">210</property>
  <property name="kdenlive:active_streams">-1</property>
  <property name="set.test_audio">1</property>
  <property name="mute_on_pause">1</property>
 </chain>
 <producer id="producer311" in="00:00:00.000" out="00:00:04.960">
  <property name="length">00:00:05.000</property>
  <property name="eof">pause</property>
  <property name="resource">citations/citations-zapata-miles-johnston.png</property>
  <property name="ttl">25</property>
  <property name="aspect_ratio">1</property>
  <property name="progressive">1</property>
  <property name="seekable">1</property>
  <property name="format">2</property>
  <property name="meta.media.width">1920</property>
  <property name="meta.media.height">1080</property>
  <property name="mlt_service">qimage</property>
  <property name="kdenlive:clipname"/>
  <property name="kdenlive:duration">00:00:05:00</property>
  <property name="kdenlive:folderid">234</property>
  <property name="kdenlive:id">423</property>
  <property name="kdenlive:clip_type">2</property>
  <property name="kdenlive:file_size">35311</property>
  <property name="kdenlive:file_hash">6c7d7a7014826f1d536b1e9f1ca16fd4</property>
 </producer>
 <chain id="chain174" out="00:02:48.920">
  <property name="length">4224</property>
  <property name="eof">pause</property>
  <property name="resource">audio/quotes/ai-art-quote/miles johnston.00.50.33.mp3</property>
  <property name="mlt_service">avformat</property>
  <property name="meta.media.nb_streams">1</property>
  <property name="meta.media.0.stream.type">audio</property>
  <property name="meta.media.0.codec.sample_fmt">fltp</property>
  <property name="meta.media.0.codec.sample_rate">44100</property>
  <property name="meta.media.0.codec.channels">2</property>
  <property name="meta.media.0.codec.name">mp3float</property>
  <property name="meta.media.0.codec.long_name">MP3 (MPEG audio layer 3)</property>
  <property name="meta.media.0.codec.bit_rate">192000</property>
  <property name="meta.attr.encoded_by.markup">LAME in FL Studio 21</property>
  <property name="meta.attr.date.markup">2023</property>
  <property name="seekable">1</property>
  <property name="audio_index">0</property>
  <property name="video_index">-1</property>
  <property name="kdenlive:clipname"/>
  <property name="kdenlive:clip_type">1</property>
  <property name="kdenlive:folderid">350</property>
  <property name="kdenlive:id">424</property>
  <property name="kdenlive:file_size">4055096</property>
  <property name="kdenlive:file_hash">57c2d840ab5548dcaaa68b0282d8db19</property>
  <property name="kdenlive:audio_max0">199</property>
  <property name="mute_on_pause">1</property>
 </chain>
 <producer id="producer372" in="00:00:00.000" out="00:00:25.360">
  <property name="length">00:00:25.400</property>
  <property name="eof">pause</property>
  <property name="resource">quotes/out/miles-johnstone-c0-q0.png</property>
  <property name="ttl">25</property>
  <property name="aspect_ratio">1</property>
  <property name="progressive">1</property>
  <property name="seekable">1</property>
  <property name="format">2</property>
  <property name="meta.media.width">1920</property>
  <property name="meta.media.height">1080</property>
  <property name="mlt_service">qimage</property>
  <property name="kdenlive:clipname"/>
  <property name="kdenlive:duration">00:00:05.000</property>
  <property name="kdenlive:folderid">345</property>
  <property name="kdenlive:id">425</property>
  <property name="kdenlive:clip_type">2</property>
  <property name="kdenlive:file_size">56513</property>
  <property name="kdenlive:file_hash">de5e69a622befa6d1696a0e8a6e8d634</property>
 </producer>
 <producer id="producer373" in="00:00:00.000" out="00:00:30.680">
  <property name="length">768</property>
  <property name="eof">pause</property>
  <property name="resource">quotes/out/miles-johnstone-c0-q1.png</property>
  <property name="ttl">25</property>
  <property name="aspect_ratio">1</property>
  <property name="progressive">1</property>
  <property name="seekable">1</property>
  <property name="format">2</property>
  <property name="meta.media.width">1920</property>
  <property name="meta.media.height">1080</property>
  <property name="mlt_service">qimage</property>
  <property name="kdenlive:clipname"/>
  <property name="kdenlive:duration">00:00:05.000</property>
  <property name="kdenlive:folderid">345</property>
  <property name="kdenlive:id">426</property>
  <property name="kdenlive:clip_type">2</property>
  <property name="kdenlive:file_size">63204</property>
  <property name="kdenlive:file_hash">35a031e8ba718d68520bb1a02d479a3f</property>
 </producer>
 <producer id="producer370" in="00:00:00.000" out="00:00:50.480">
  <property name="length">1263</property>
  <property name="eof">pause</property>
  <property name="resource">quotes/out/miles-johnstone-c0.png</property>
  <property name="ttl">25</property>
  <property name="aspect_ratio">1</property>
  <property name="progressive">1</property>
  <property name="seekable">1</property>
  <property name="format">2</property>
  <property name="meta.media.width">1920</property>
  <property name="meta.media.height">1080</property>
  <property name="mlt_service">qimage</property>
  <property name="kdenlive:clipname"/>
  <property name="kdenlive:duration">00:00:05:00</property>
  <property name="kdenlive:folderid">345</property>
  <property name="kdenlive:id">427</property>
  <property name="kdenlive:clip_type">2</property>
  <property name="kdenlive:file_size">30516</property>
  <property name="kdenlive:file_hash">63adc4852d9ea11130ec5f0c28ea8019</property>
 </producer>
 <producer id="producer355" in="00:00:00.000" out="00:00:49.560">
  <property name="length">1240</property>
  <property name="eof">pause</property>
  <property name="resource">quotes/out/miles-johnstone-card.png</property>
  <property name="ttl">25</property>
  <property name="aspect_ratio">1</property>
  <property name="progressive">1</property>
  <property name="seekable">1</property>
  <property name="format">2</property>
  <property name="meta.media.width">1920</property>
  <property name="meta.media.height">1080</property>
  <property name="mlt_service">qimage</property>
  <property name="kdenlive:clipname"/>
  <property name="kdenlive:duration">00:00:05:00</property>
  <property name="kdenlive:folderid">345</property>
  <property name="kdenlive:id">428</property>
  <property name="kdenlive:clip_type">2</property>
  <property name="kdenlive:file_size">751993</property>
  <property name="kdenlive:file_hash">f525f330a5865426295e98b47138cd08</property>
 </producer>
 <producer id="producer374" in="00:00:00.000" out="00:00:19.680">
  <property name="length">00:00:19.720</property>
  <property name="eof">pause</property>
  <property name="resource">/home/liquidzulu/Pictures/yt/animation/output/project/footnotes/footnote-17/.all.png</property>
  <property name="ttl">1</property>
  <property name="aspect_ratio">1</property>
  <property name="progressive">1</property>
  <property name="seekable">1</property>
  <property name="format">2</property>
  <property name="meta.media.width">1920</property>
  <property name="meta.media.height">1080</property>
  <property name="mlt_service">qimage</property>
  <property name="kdenlive:clipname">footnote-17</property>
  <property name="low-pass">0</property>
  <property name="animation"/>
  <property name="luma_file"/>
  <property name="luma_duration">25</property>
  <property name="fade">0</property>
  <property name="crop">0</property>
  <property name="softness">0</property>
  <property name="loop">0</property>
  <property name="kdenlive:duration">00:00:19:18</property>
  <property name="kdenlive:folderid">273</property>
  <property name="kdenlive:id">429</property>
  <property name="kdenlive:clip_type">2</property>
  <property name="kdenlive:file_hash">fedd818a9de422af828eab0e7278ff37</property>
 </producer>
 <producer id="producer375" in="00:00:00.000" out="00:00:19.680">
  <property name="length">00:00:19.720</property>
  <property name="eof">pause</property>
  <property name="resource">/home/liquidzulu/Pictures/yt/animation/output/project/footnotes/footnote-18/.all.png</property>
  <property name="ttl">1</property>
  <property name="aspect_ratio">1</property>
  <property name="progressive">1</property>
  <property name="seekable">1</property>
  <property name="format">2</property>
  <property name="meta.media.width">1920</property>
  <property name="meta.media.height">1080</property>
  <property name="mlt_service">qimage</property>
  <property name="kdenlive:clipname">footnote-18</property>
  <property name="low-pass">0</property>
  <property name="animation"/>
  <property name="luma_file"/>
  <property name="luma_duration">25</property>
  <property name="fade">0</property>
  <property name="crop">0</property>
  <property name="softness">0</property>
  <property name="loop">0</property>
  <property name="kdenlive:duration">00:00:19:18</property>
  <property name="kdenlive:folderid">273</property>
  <property name="kdenlive:id">430</property>
  <property name="kdenlive:clip_type">2</property>
  <property name="kdenlive:file_hash">78d1a8849b5dac88e5a3bcab986956d8</property>
 </producer>
 <chain id="chain175" out="00:00:13.080">
  <property name="length">328</property>
  <property name="eof">pause</property>
  <property name="resource">animation/output/latent-space-photography.mp4</property>
  <property name="mlt_service">avformat-novalidate</property>
  <property name="meta.media.nb_streams">1</property>
  <property name="meta.media.0.stream.type">video</property>
  <property name="meta.media.0.stream.frame_rate">60</property>
  <property name="meta.media.0.stream.sample_aspect_ratio">0</property>
  <property name="meta.media.0.codec.width">1920</property>
  <property name="meta.media.0.codec.height">1080</property>
  <property name="meta.media.0.codec.rotate">0</property>
  <property name="meta.media.0.codec.pix_fmt">yuv420p</property>
  <property name="meta.media.0.codec.sample_aspect_ratio">0</property>
  <property name="meta.media.0.codec.colorspace">709</property>
  <property name="meta.media.0.codec.name">h264</property>
  <property name="meta.media.0.codec.long_name">H.264 / AVC / MPEG-4 AVC / MPEG-4 part 10</property>
  <property name="meta.media.0.codec.bit_rate">1419911</property>
  <property name="meta.attr.0.stream.handler_name.markup">VideoHandler</property>
  <property name="meta.attr.0.stream.vendor_id.markup">[0][0][0][0]</property>
  <property name="meta.attr.major_brand.markup">isom</property>
  <property name="meta.attr.minor_version.markup">512</property>
  <property name="meta.attr.compatible_brands.markup">isomiso2avc1mp41</property>
  <property name="meta.attr.encoder.markup">Lavf58.24.100</property>
  <property name="seekable">1</property>
  <property name="meta.media.sample_aspect_num">1</property>
  <property name="meta.media.sample_aspect_den">1</property>
  <property name="format">3</property>
  <property name="audio_index">-1</property>
  <property name="video_index">0</property>
  <property name="meta.media.frame_rate_num">60</property>
  <property name="meta.media.frame_rate_den">1</property>
  <property name="meta.media.colorspace">709</property>
  <property name="meta.media.color_trc">2</property>
  <property name="meta.media.has_b_frames">2</property>
  <property name="meta.media.width">1920</property>
  <property name="meta.media.height">1080</property>
  <property name="meta.media.color_range">mpeg</property>
  <property name="kdenlive:clipname"/>
  <property name="meta.media.top_field_first">0</property>
  <property name="meta.media.progressive">1</property>
  <property name="kdenlive:clip_type">2</property>
  <property name="kdenlive:folderid">218</property>
  <property name="kdenlive:id">431</property>
  <property name="kdenlive:file_size">2337747</property>
  <property name="kdenlive:file_hash">4424d88063d9d877563d38e52606fee8</property>
  <property name="mute_on_pause">1</property>
 </chain>
 <producer id="producer376" in="00:00:00.000" out="00:00:12.600">
  <property name="length">00:00:12.640</property>
  <property name="eof">pause</property>
  <property name="resource">animation/output/latent-space-photography-disanalogy/.all.png</property>
  <property name="ttl">1</property>
  <property name="aspect_ratio">1</property>
  <property name="progressive">1</property>
  <property name="seekable">1</property>
  <property name="format">2</property>
  <property name="meta.media.width">1920</property>
  <property name="meta.media.height">1080</property>
  <property name="mlt_service">qimage</property>
  <property name="kdenlive:clipname">latent-space-analogy-disanalogy</property>
  <property name="low-pass">0</property>
  <property name="animation"/>
  <property name="luma_file"/>
  <property name="luma_duration">25</property>
  <property name="fade">0</property>
  <property name="crop">0</property>
  <property name="softness">0</property>
  <property name="loop">0</property>
  <property name="kdenlive:duration">00:00:12:16</property>
  <property name="kdenlive:folderid">218</property>
  <property name="kdenlive:id">432</property>
  <property name="kdenlive:clip_type">2</property>
  <property name="kdenlive:file_hash">a824ec67c4877c206ca20b8aea05e0a2</property>
 </producer>
 <chain id="chain176" out="00:17:31.560">
  <property name="length">26290</property>
  <property name="eof">pause</property>
  <property name="resource">b-roll/NYC Art Gallery Tour of Chelsea &amp; Meatpacking [rFYgGG2Rgd0].webm</property>
  <property name="mlt_service">avformat-novalidate</property>
  <property name="meta.media.nb_streams">2</property>
  <property name="meta.media.0.stream.type">video</property>
  <property name="meta.media.0.stream.frame_rate">25</property>
  <property name="meta.media.0.stream.sample_aspect_ratio">1</property>
  <property name="meta.media.0.codec.width">1920</property>
  <property name="meta.media.0.codec.height">1080</property>
  <property name="meta.media.0.codec.rotate">0</property>
  <property name="meta.media.0.codec.pix_fmt">yuv420p</property>
  <property name="meta.media.0.codec.sample_aspect_ratio">0</property>
  <property name="meta.media.0.codec.colorspace">709</property>
  <property name="meta.media.0.codec.color_trc">1</property>
  <property name="meta.media.0.codec.name">vp9</property>
  <property name="meta.media.0.codec.long_name">Google VP9</property>
  <property name="meta.media.0.codec.bit_rate">0</property>
  <property name="meta.attr.0.stream.language.markup">eng</property>
  <property name="meta.attr.0.stream.DURATION.markup">00:17:31.560000000</property>
  <property name="meta.media.1.stream.type">audio</property>
  <property name="meta.media.1.codec.sample_fmt">fltp</property>
  <property name="meta.media.1.codec.sample_rate">48000</property>
  <property name="meta.media.1.codec.channels">2</property>
  <property name="meta.media.1.codec.name">opus</property>
  <property name="meta.media.1.codec.long_name">Opus</property>
  <property name="meta.media.1.codec.bit_rate">0</property>
  <property name="meta.attr.1.stream.language.markup">eng</property>
  <property name="meta.attr.1.stream.DURATION.markup">00:17:31.581000000</property>
  <property name="meta.attr.ENCODER.markup">Lavf59.27.100</property>
  <property name="seekable">1</property>
  <property name="meta.media.sample_aspect_num">1</property>
  <property name="meta.media.sample_aspect_den">1</property>
  <property name="format">3</property>
  <property name="audio_index">-1</property>
  <property name="video_index">0</property>
  <property name="meta.media.frame_rate_num">25</property>
  <property name="meta.media.frame_rate_den">1</property>
  <property name="meta.media.colorspace">709</property>
  <property name="meta.media.color_trc">1</property>
  <property name="meta.media.has_b_frames">0</property>
  <property name="meta.media.width">1920</property>
  <property name="meta.media.height">1080</property>
  <property name="meta.media.color_range">mpeg</property>
  <property name="kdenlive:clipname"/>
  <property name="meta.media.top_field_first">0</property>
  <property name="meta.media.progressive">1</property>
  <property name="kdenlive:clip_type">0</property>
  <property name="kdenlive:folderid">14</property>
  <property name="kdenlive:id">433</property>
  <property name="kdenlive:file_size">191747731</property>
  <property name="kdenlive:file_hash">5cd0b392a063f2f15fedb31f232a3904</property>
  <property name="kdenlive:active_streams">-1</property>
  <property name="set.test_audio">1</property>
  <property name="kdenlive:audio_max1">242</property>
  <property name="mute_on_pause">1</property>
 </chain>
 <producer id="producer312" in="00:00:00.000" out="00:00:05.840">
  <property name="length">147</property>
  <property name="eof">pause</property>
  <property name="resource">citations/citations-art-gallery.png</property>
  <property name="ttl">25</property>
  <property name="aspect_ratio">1</property>
  <property name="progressive">1</property>
  <property name="seekable">1</property>
  <property name="format">2</property>
  <property name="meta.media.width">1920</property>
  <property name="meta.media.height">1080</property>
  <property name="mlt_service">qimage</property>
  <property name="kdenlive:clipname"/>
  <property name="kdenlive:duration">00:00:05:00</property>
  <property name="kdenlive:folderid">234</property>
  <property name="kdenlive:id">434</property>
  <property name="kdenlive:clip_type">2</property>
  <property name="kdenlive:file_size">30682</property>
  <property name="kdenlive:file_hash">b66dfa4a267b0d9eb77f9948ded45a70</property>
 </producer>
 <chain id="chain177" out="00:00:09.280">
  <property name="length">233</property>
  <property name="eof">pause</property>
  <property name="resource">/home/liquidzulu/Videos/yt/b-roll/photographer - free stock footage [8SiskJaWXt4].mkv</property>
  <property name="mlt_service">avformat-novalidate</property>
  <property name="meta.media.nb_streams">2</property>
  <property name="meta.media.0.stream.type">video</property>
  <property name="meta.media.0.stream.frame_rate">23.976</property>
  <property name="meta.media.0.stream.sample_aspect_ratio">1</property>
  <property name="meta.media.0.codec.width">1920</property>
  <property name="meta.media.0.codec.height">1080</property>
  <property name="meta.media.0.codec.rotate">0</property>
  <property name="meta.media.0.codec.pix_fmt">yuv420p</property>
  <property name="meta.media.0.codec.sample_aspect_ratio">1</property>
  <property name="meta.media.0.codec.colorspace">709</property>
  <property name="meta.media.0.codec.color_trc">1</property>
  <property name="meta.media.0.codec.name">h264</property>
  <property name="meta.media.0.codec.long_name">H.264 / AVC / MPEG-4 AVC / MPEG-4 part 10</property>
  <property name="meta.media.0.codec.bit_rate">0</property>
  <property name="meta.attr.0.stream.HANDLER_NAME.markup">ISO Media file produced by Google Inc.</property>
  <property name="meta.attr.0.stream.VENDOR_ID.markup">[0][0][0][0]</property>
  <property name="meta.attr.0.stream.DURATION.markup">00:00:09.301000000</property>
  <property name="meta.media.1.stream.type">audio</property>
  <property name="meta.media.1.codec.sample_fmt">fltp</property>
  <property name="meta.media.1.codec.sample_rate">48000</property>
  <property name="meta.media.1.codec.channels">2</property>
  <property name="meta.media.1.codec.name">opus</property>
  <property name="meta.media.1.codec.long_name">Opus</property>
  <property name="meta.media.1.codec.bit_rate">0</property>
  <property name="meta.attr.1.stream.language.markup">eng</property>
  <property name="meta.attr.1.stream.DURATION.markup">00:00:09.301000000</property>
  <property name="meta.attr.COMPATIBLE_BRANDS.markup">iso6avc1mp41</property>
  <property name="meta.attr.MAJOR_BRAND.markup">dash</property>
  <property name="meta.attr.MINOR_VERSION.markup">0</property>
  <property name="meta.attr.ENCODER.markup">Lavf59.27.100</property>
  <property name="seekable">1</property>
  <property name="meta.media.sample_aspect_num">1</property>
  <property name="meta.media.sample_aspect_den">1</property>
  <property name="format">3</property>
  <property name="audio_index">-1</property>
  <property name="video_index">0</property>
  <property name="meta.media.frame_rate_num">24000</property>
  <property name="meta.media.frame_rate_den">1001</property>
  <property name="meta.media.colorspace">709</property>
  <property name="meta.media.color_trc">1</property>
  <property name="meta.media.has_b_frames">1</property>
  <property name="meta.media.width">1920</property>
  <property name="meta.media.height">1080</property>
  <property name="meta.media.color_range">mpeg</property>
  <property name="kdenlive:clipname"/>
  <property name="meta.media.top_field_first">0</property>
  <property name="meta.media.progressive">1</property>
  <property name="kdenlive:clip_type">0</property>
  <property name="kdenlive:folderid">14</property>
  <property name="kdenlive:id">435</property>
  <property name="kdenlive:file_size">1483334</property>
  <property name="kdenlive:file_hash">2b50b004be59619b4a166794f5ee34a7</property>
  <property name="kdenlive:audio_max1">1</property>
  <property name="kdenlive:active_streams">-1</property>
  <property name="set.test_audio">1</property>
  <property name="mute_on_pause">1</property>
 </chain>
 <producer id="producer327" in="00:00:00.000" out="00:00:05.320">
  <property name="length">134</property>
  <property name="eof">pause</property>
  <property name="resource">citations/citations-new-york-stock.png</property>
  <property name="ttl">25</property>
  <property name="aspect_ratio">1</property>
  <property name="progressive">1</property>
  <property name="seekable">1</property>
  <property name="format">2</property>
  <property name="meta.media.width">1920</property>
  <property name="meta.media.height">1080</property>
  <property name="mlt_service">qimage</property>
  <property name="kdenlive:clipname"/>
  <property name="kdenlive:duration">00:00:05:00</property>
  <property name="kdenlive:folderid">234</property>
  <property name="kdenlive:id">436</property>
  <property name="kdenlive:clip_type">2</property>
  <property name="kdenlive:file_size">32995</property>
  <property name="kdenlive:file_hash">4024a2bac2796d6a3008f16cb0909be4</property>
 </producer>
 <producer id="producer313" in="00:00:00.000" out="00:00:05.040">
  <property name="length">127</property>
  <property name="eof">pause</property>
  <property name="resource">citations/citations-photographer-stock.png</property>
  <property name="ttl">25</property>
  <property name="aspect_ratio">1</property>
  <property name="progressive">1</property>
  <property name="seekable">1</property>
  <property name="format">2</property>
  <property name="meta.media.width">1920</property>
  <property name="meta.media.height">1080</property>
  <property name="mlt_service">qimage</property>
  <property name="kdenlive:clipname"/>
  <property name="kdenlive:duration">00:00:05:00</property>
  <property name="kdenlive:folderid">234</property>
  <property name="kdenlive:id">437</property>
  <property name="kdenlive:clip_type">2</property>
  <property name="kdenlive:file_size">24524</property>
  <property name="kdenlive:file_hash">93c440067778056ad58b9873193e4084</property>
 </producer>
 <chain id="chain178" out="00:08:14.640">
  <property name="length">12367</property>
  <property name="eof">pause</property>
  <property name="resource">/home/liquidzulu/Videos/yt/b-roll/Forests in the olden days [zVPUFMwm73Y].webm</property>
  <property name="mlt_service">avformat-novalidate</property>
  <property name="meta.media.nb_streams">2</property>
  <property name="meta.media.0.stream.type">video</property>
  <property name="meta.media.0.stream.frame_rate">25</property>
  <property name="meta.media.0.stream.sample_aspect_ratio">1</property>
  <property name="meta.media.0.codec.width">1920</property>
  <property name="meta.media.0.codec.height">1080</property>
  <property name="meta.media.0.codec.rotate">0</property>
  <property name="meta.media.0.codec.pix_fmt">yuv420p</property>
  <property name="meta.media.0.codec.sample_aspect_ratio">0</property>
  <property name="meta.media.0.codec.colorspace">709</property>
  <property name="meta.media.0.codec.color_trc">1</property>
  <property name="meta.media.0.codec.name">vp9</property>
  <property name="meta.media.0.codec.long_name">Google VP9</property>
  <property name="meta.media.0.codec.bit_rate">0</property>
  <property name="meta.attr.0.stream.language.markup">eng</property>
  <property name="meta.attr.0.stream.DURATION.markup">00:08:14.640000000</property>
  <property name="meta.media.1.stream.type">audio</property>
  <property name="meta.media.1.codec.sample_fmt">fltp</property>
  <property name="meta.media.1.codec.sample_rate">48000</property>
  <property name="meta.media.1.codec.channels">2</property>
  <property name="meta.media.1.codec.name">opus</property>
  <property name="meta.media.1.codec.long_name">Opus</property>
  <property name="meta.media.1.codec.bit_rate">0</property>
  <property name="meta.attr.1.stream.language.markup">eng</property>
  <property name="meta.attr.1.stream.DURATION.markup">00:08:14.661000000</property>
  <property name="meta.attr.ENCODER.markup">Lavf59.27.100</property>
  <property name="seekable">1</property>
  <property name="meta.media.sample_aspect_num">1</property>
  <property name="meta.media.sample_aspect_den">1</property>
  <property name="format">3</property>
  <property name="audio_index">-1</property>
  <property name="video_index">0</property>
  <property name="meta.media.frame_rate_num">25</property>
  <property name="meta.media.frame_rate_den">1</property>
  <property name="meta.media.colorspace">709</property>
  <property name="meta.media.color_trc">1</property>
  <property name="meta.media.has_b_frames">0</property>
  <property name="meta.media.width">1920</property>
  <property name="meta.media.height">1080</property>
  <property name="meta.media.color_range">mpeg</property>
  <property name="kdenlive:clipname"/>
  <property name="meta.media.top_field_first">0</property>
  <property name="meta.media.progressive">1</property>
  <property name="kdenlive:clip_type">0</property>
  <property name="kdenlive:folderid">14</property>
  <property name="kdenlive:id">438</property>
  <property name="kdenlive:file_size">160813038</property>
  <property name="kdenlive:file_hash">ecd6e5441329e12cdee53bf8e9b3b057</property>
  <property name="kdenlive:audio_max1">218</property>
  <property name="kdenlive:active_streams">-1</property>
  <property name="set.test_audio">1</property>
  <property name="mute_on_pause">1</property>
 </chain>
 <producer id="producer315" in="00:00:00.000" out="00:00:04.960">
  <property name="length">00:00:05.000</property>
  <property name="eof">pause</property>
  <property name="resource">citations/citations-lindybeige.png</property>
  <property name="ttl">25</property>
  <property name="aspect_ratio">1</property>
  <property name="progressive">1</property>
  <property name="seekable">1</property>
  <property name="format">2</property>
  <property name="meta.media.width">1920</property>
  <property name="meta.media.height">1080</property>
  <property name="mlt_service">qimage</property>
  <property name="kdenlive:clipname"/>
  <property name="kdenlive:duration">00:00:05:00</property>
  <property name="kdenlive:folderid">234</property>
  <property name="kdenlive:id">439</property>
  <property name="kdenlive:clip_type">2</property>
  <property name="kdenlive:file_size">22786</property>
  <property name="kdenlive:file_hash">c719eb6b20cd353435dc5257a2d6187d</property>
 </producer>
 <chain id="chain179" out="00:01:55.920">
  <property name="length">2899</property>
  <property name="eof">pause</property>
  <property name="resource">/home/liquidzulu/Videos/yt/b-roll/Rewetting Scotland's moors [11kZ88yqdM0].webm</property>
  <property name="mlt_service">avformat-novalidate</property>
  <property name="meta.media.nb_streams">2</property>
  <property name="meta.media.0.stream.type">video</property>
  <property name="meta.media.0.stream.frame_rate">50</property>
  <property name="meta.media.0.stream.sample_aspect_ratio">1</property>
  <property name="meta.media.0.codec.width">1920</property>
  <property name="meta.media.0.codec.height">1080</property>
  <property name="meta.media.0.codec.rotate">0</property>
  <property name="meta.media.0.codec.pix_fmt">yuv420p</property>
  <property name="meta.media.0.codec.sample_aspect_ratio">0</property>
  <property name="meta.media.0.codec.colorspace">709</property>
  <property name="meta.media.0.codec.name">vp9</property>
  <property name="meta.media.0.codec.long_name">Google VP9</property>
  <property name="meta.media.0.codec.bit_rate">0</property>
  <property name="meta.attr.0.stream.language.markup">eng</property>
  <property name="meta.attr.0.stream.DURATION.markup">00:01:55.920000000</property>
  <property name="meta.media.1.stream.type">audio</property>
  <property name="meta.media.1.codec.sample_fmt">fltp</property>
  <property name="meta.media.1.codec.sample_rate">48000</property>
  <property name="meta.media.1.codec.channels">2</property>
  <property name="meta.media.1.codec.name">opus</property>
  <property name="meta.media.1.codec.long_name">Opus</property>
  <property name="meta.media.1.codec.bit_rate">0</property>
  <property name="meta.attr.1.stream.language.markup">eng</property>
  <property name="meta.attr.1.stream.DURATION.markup">00:01:55.941000000</property>
  <property name="meta.attr.HTTP://YOUTUBE.COM/STREAMING/OTF/DURATIONS/112015.markup">Segment-Count: 23&#xd;
Segment-Durations-Ms: 5120(r=21),3280,&#xd;
&#xd;
</property>
  <property name="meta.attr.ENCODER.markup">Lavf59.27.100</property>
  <property name="seekable">1</property>
  <property name="meta.media.sample_aspect_num">1</property>
  <property name="meta.media.sample_aspect_den">1</property>
  <property name="format">3</property>
  <property name="audio_index">-1</property>
  <property name="video_index">0</property>
  <property name="meta.media.frame_rate_num">50</property>
  <property name="meta.media.frame_rate_den">1</property>
  <property name="meta.media.colorspace">709</property>
  <property name="meta.media.color_trc">2</property>
  <property name="meta.media.has_b_frames">0</property>
  <property name="meta.media.width">1920</property>
  <property name="meta.media.height">1080</property>
  <property name="meta.media.color_range">mpeg</property>
  <property name="kdenlive:clipname"/>
  <property name="meta.media.top_field_first">0</property>
  <property name="meta.media.progressive">1</property>
  <property name="kdenlive:clip_type">0</property>
  <property name="kdenlive:folderid">14</property>
  <property name="kdenlive:id">440</property>
  <property name="kdenlive:file_size">47639044</property>
  <property name="kdenlive:file_hash">97fed4f6253c4d8813797dfeac6b1c0a</property>
  <property name="kdenlive:audio_max1">231</property>
  <property name="kdenlive:active_streams">-1</property>
  <property name="set.test_audio">1</property>
  <property name="mute_on_pause">1</property>
 </chain>
 <producer id="producer326" in="00:00:00.000" out="00:00:04.960">
  <property name="length">00:00:05.000</property>
  <property name="eof">pause</property>
  <property name="resource">citations/citations-moor.png</property>
  <property name="ttl">25</property>
  <property name="aspect_ratio">1</property>
  <property name="progressive">1</property>
  <property name="seekable">1</property>
  <property name="format">2</property>
  <property name="meta.media.width">1920</property>
  <property name="meta.media.height">1080</property>
  <property name="mlt_service">qimage</property>
  <property name="kdenlive:clipname"/>
  <property name="kdenlive:duration">00:00:05:00</property>
  <property name="kdenlive:folderid">234</property>
  <property name="kdenlive:id">441</property>
  <property name="kdenlive:clip_type">2</property>
  <property name="kdenlive:file_size">27331</property>
  <property name="kdenlive:file_hash">bad2bdb4628fc22f7a687d2b347c4b36</property>
 </producer>
 <chain id="chain180" out="00:03:13.480">
  <property name="length">4838</property>
  <property name="eof">pause</property>
  <property name="resource">/home/liquidzulu/Videos/yt/b-roll/Epic NEW YORK City Timelapse &amp; Hyperlapse in 4K Ultra HD [U3_uxUSeZV4].webm</property>
  <property name="mlt_service">avformat-novalidate</property>
  <property name="meta.media.nb_streams">2</property>
  <property name="meta.media.0.stream.type">video</property>
  <property name="meta.media.0.stream.frame_rate">30</property>
  <property name="meta.media.0.stream.sample_aspect_ratio">1</property>
  <property name="meta.media.0.codec.width">3840</property>
  <property name="meta.media.0.codec.height">1634</property>
  <property name="meta.media.0.codec.rotate">0</property>
  <property name="meta.media.0.codec.pix_fmt">yuv420p</property>
  <property name="meta.media.0.codec.sample_aspect_ratio">0</property>
  <property name="meta.media.0.codec.colorspace">709</property>
  <property name="meta.media.0.codec.color_trc">1</property>
  <property name="meta.media.0.codec.name">vp9</property>
  <property name="meta.media.0.codec.long_name">Google VP9</property>
  <property name="meta.media.0.codec.bit_rate">0</property>
  <property name="meta.attr.0.stream.language.markup">eng</property>
  <property name="meta.attr.0.stream.DURATION.markup">00:03:13.500000000</property>
  <property name="meta.media.1.stream.type">audio</property>
  <property name="meta.media.1.codec.sample_fmt">fltp</property>
  <property name="meta.media.1.codec.sample_rate">48000</property>
  <property name="meta.media.1.codec.channels">2</property>
  <property name="meta.media.1.codec.name">opus</property>
  <property name="meta.media.1.codec.long_name">Opus</property>
  <property name="meta.media.1.codec.bit_rate">0</property>
  <property name="meta.attr.1.stream.language.markup">eng</property>
  <property name="meta.attr.1.stream.DURATION.markup">00:03:13.521000000</property>
  <property name="meta.attr.ENCODER.markup">Lavf59.27.100</property>
  <property name="seekable">1</property>
  <property name="meta.media.sample_aspect_num">1</property>
  <property name="meta.media.sample_aspect_den">1</property>
  <property name="format">3</property>
  <property name="audio_index">-1</property>
  <property name="video_index">0</property>
  <property name="meta.media.frame_rate_num">30</property>
  <property name="meta.media.frame_rate_den">1</property>
  <property name="meta.media.colorspace">709</property>
  <property name="meta.media.color_trc">1</property>
  <property name="meta.media.has_b_frames">0</property>
  <property name="meta.media.width">3840</property>
  <property name="meta.media.height">1634</property>
  <property name="meta.media.color_range">mpeg</property>
  <property name="kdenlive:clipname"/>
  <property name="meta.media.top_field_first">0</property>
  <property name="meta.media.progressive">1</property>
  <property name="kdenlive:clip_type">0</property>
  <property name="kdenlive:folderid">14</property>
  <property name="kdenlive:id">442</property>
  <property name="kdenlive:file_size">273746700</property>
  <property name="kdenlive:file_hash">91adaaaf27ec8d09f0c0a5f1acb2a4a0</property>
  <property name="kdenlive:audio_max1">202</property>
  <property name="kdenlive:active_streams">-1</property>
  <property name="set.test_audio">1</property>
  <property name="mute_on_pause">1</property>
 </chain>
 <producer id="producer328" in="00:00:00.000" out="00:00:04.960">
  <property name="length">125</property>
  <property name="eof">pause</property>
  <property name="progressive">1</property>
  <property name="aspect_ratio">1</property>
  <property name="seekable">1</property>
  <property name="mlt_service">kdenlivetitle</property>
  <property name="kdenlive:duration">00:00:05:00</property>
  <property name="kdenlive:clipname">certainly</property>
  <property name="xmldata">&lt;kdenlivetitle duration="125" LC_NUMERIC="C" width="1920" height="1080" out="124">
 &lt;item type="QGraphicsTextItem" z-index="0">
  &lt;position x="413" y="402">
   &lt;transform>1,0,0,0,1,0,0,0,1&lt;/transform>
  &lt;/position>
  &lt;content line-spacing="0" shadow="0;#64000000;3;3;3" font-underline="0" box-height="276" font="Cubano" letter-spacing="0" font-pixel-size="230" font-italic="0" typewriter="0;2;1;0;0" alignment="4" font-weight="50" box-width="1095.22" font-color="255,255,255,255">certainly&lt;/content>
 &lt;/item>
 &lt;startviewport rect="0,0,1920,1080"/>
 &lt;endviewport rect="0,0,1920,1080"/>
 &lt;background color="0,0,0,0"/>
&lt;/kdenlivetitle>
</property>
  <property name="kdenlive:folderid">21</property>
  <property name="kdenlive:id">443</property>
  <property name="kdenlive:clip_type">2</property>
  <property name="force_reload">0</property>
  <property name="meta.media.width">1920</property>
  <property name="meta.media.height">1080</property>
  <property name="kdenlive:file_hash">72e276ea2fd58f6f19a3a9ca03ae8f83</property>
 </producer>
 <producer id="producer329" in="00:00:00.000" out="00:00:04.960">
  <property name="length">125</property>
  <property name="eof">pause</property>
  <property name="progressive">1</property>
  <property name="aspect_ratio">1</property>
  <property name="seekable">1</property>
  <property name="mlt_service">kdenlivetitle</property>
  <property name="kdenlive:duration">00:00:05:00</property>
  <property name="kdenlive:clipname">not</property>
  <property name="xmldata">&lt;kdenlivetitle duration="125" LC_NUMERIC="C" width="1920" height="1080" out="124">
 &lt;item type="QGraphicsTextItem" z-index="0">
  &lt;position x="754" y="402">
   &lt;transform>1,0,0,0,1,0,0,0,1&lt;/transform>
  &lt;/position>
  &lt;content line-spacing="0" shadow="0;#64000000;3;3;3" font-underline="0" box-height="276" font="Cubano" letter-spacing="0" font-pixel-size="230" font-italic="0" typewriter="0;2;1;0;0" alignment="4" font-weight="50" box-width="413.078" font-color="255,255,255,255">not&lt;/content>
 &lt;/item>
 &lt;startviewport rect="0,0,1920,1080"/>
 &lt;endviewport rect="0,0,1920,1080"/>
 &lt;background color="0,0,0,0"/>
&lt;/kdenlivetitle>
</property>
  <property name="kdenlive:folderid">21</property>
  <property name="kdenlive:id">444</property>
  <property name="kdenlive:clip_type">2</property>
  <property name="force_reload">0</property>
  <property name="meta.media.width">1920</property>
  <property name="meta.media.height">1080</property>
  <property name="kdenlive:file_hash">57726baf1d860c886f5612edab646fb8</property>
 </producer>
 <chain id="chain181" out="00:20:16.640">
  <property name="length">30417</property>
  <property name="eof">pause</property>
  <property name="resource">/home/liquidzulu/Videos/yt/b-roll/100 Days Building A Modern Underground Hut With A Grass Roof And A Swimming Pool [tYf0BoFe9D8].webm</property>
  <property name="mlt_service">avformat-novalidate</property>
  <property name="meta.media.nb_streams">2</property>
  <property name="meta.media.0.stream.type">video</property>
  <property name="meta.media.0.stream.frame_rate">59.9401</property>
  <property name="meta.media.0.stream.sample_aspect_ratio">1</property>
  <property name="meta.media.0.codec.width">1920</property>
  <property name="meta.media.0.codec.height">1080</property>
  <property name="meta.media.0.codec.rotate">0</property>
  <property name="meta.media.0.codec.pix_fmt">yuv420p</property>
  <property name="meta.media.0.codec.sample_aspect_ratio">0</property>
  <property name="meta.media.0.codec.colorspace">709</property>
  <property name="meta.media.0.codec.color_trc">1</property>
  <property name="meta.media.0.codec.name">vp9</property>
  <property name="meta.media.0.codec.long_name">Google VP9</property>
  <property name="meta.media.0.codec.bit_rate">0</property>
  <property name="meta.attr.0.stream.language.markup">eng</property>
  <property name="meta.attr.0.stream.DURATION.markup">00:20:16.648000000</property>
  <property name="meta.media.1.stream.type">audio</property>
  <property name="meta.media.1.codec.sample_fmt">fltp</property>
  <property name="meta.media.1.codec.sample_rate">48000</property>
  <property name="meta.media.1.codec.channels">2</property>
  <property name="meta.media.1.codec.name">opus</property>
  <property name="meta.media.1.codec.long_name">Opus</property>
  <property name="meta.media.1.codec.bit_rate">0</property>
  <property name="meta.attr.1.stream.language.markup">eng</property>
  <property name="meta.attr.1.stream.DURATION.markup">00:20:16.681000000</property>
  <property name="meta.attr.ENCODER.markup">Lavf59.27.100</property>
  <property name="seekable">1</property>
  <property name="meta.media.sample_aspect_num">1</property>
  <property name="meta.media.sample_aspect_den">1</property>
  <property name="format">3</property>
  <property name="audio_index">-1</property>
  <property name="video_index">0</property>
  <property name="meta.media.frame_rate_num">60000</property>
  <property name="meta.media.frame_rate_den">1001</property>
  <property name="meta.media.colorspace">709</property>
  <property name="meta.media.color_trc">1</property>
  <property name="meta.media.has_b_frames">0</property>
  <property name="meta.media.width">1920</property>
  <property name="meta.media.height">1080</property>
  <property name="meta.media.color_range">mpeg</property>
  <property name="kdenlive:clipname"/>
  <property name="meta.media.top_field_first">0</property>
  <property name="meta.media.progressive">1</property>
  <property name="kdenlive:clip_type">0</property>
  <property name="kdenlive:folderid">14</property>
  <property name="kdenlive:id">445</property>
  <property name="kdenlive:file_size">650692365</property>
  <property name="kdenlive:file_hash">83b277668989d829a4deb398715f2361</property>
  <property name="kdenlive:audio_max1">210</property>
  <property name="kdenlive:active_streams">-1</property>
  <property name="set.test_audio">1</property>
  <property name="mute_on_pause">1</property>
 </chain>
 <producer id="producer330" in="00:00:00.000" out="00:00:04.960">
  <property name="length">00:00:05.000</property>
  <property name="eof">pause</property>
  <property name="resource">citations/citations-underground.png</property>
  <property name="ttl">25</property>
  <property name="aspect_ratio">1</property>
  <property name="progressive">1</property>
  <property name="seekable">1</property>
  <property name="format">2</property>
  <property name="meta.media.width">1920</property>
  <property name="meta.media.height">1080</property>
  <property name="mlt_service">qimage</property>
  <property name="kdenlive:clipname"/>
  <property name="kdenlive:duration">00:00:05:00</property>
  <property name="kdenlive:folderid">234</property>
  <property name="kdenlive:id">446</property>
  <property name="kdenlive:clip_type">2</property>
  <property name="kdenlive:file_size">39406</property>
  <property name="kdenlive:file_hash">13fc75f23b1667e3d8685d3e724b3b70</property>
 </producer>
 <producer id="producer331" in="00:00:00.000" out="00:00:15.160">
  <property name="length">380</property>
  <property name="eof">pause</property>
  <property name="resource">citations/citations-sketchy-van.png</property>
  <property name="ttl">25</property>
  <property name="aspect_ratio">1</property>
  <property name="progressive">1</property>
  <property name="seekable">1</property>
  <property name="format">2</property>
  <property name="meta.media.width">1920</property>
  <property name="meta.media.height">1080</property>
  <property name="mlt_service">qimage</property>
  <property name="kdenlive:clipname"/>
  <property name="kdenlive:duration">00:00:05:00</property>
  <property name="kdenlive:folderid">234</property>
  <property name="kdenlive:id">447</property>
  <property name="kdenlive:clip_type">2</property>
  <property name="kdenlive:file_size">40206</property>
  <property name="kdenlive:file_hash">2159a790a796a2ac0033ec0fc8ad1f11</property>
 </producer>
 <chain id="chain189" out="00:02:48.920">
  <property name="length">4224</property>
  <property name="eof">pause</property>
  <property name="resource">audio/quotes/ai-art-quote/out/ai art istebrak.01.44.42.mp3</property>
  <property name="mlt_service">avformat</property>
  <property name="meta.media.nb_streams">1</property>
  <property name="meta.media.0.stream.type">audio</property>
  <property name="meta.media.0.codec.sample_fmt">fltp</property>
  <property name="meta.media.0.codec.sample_rate">44100</property>
  <property name="meta.media.0.codec.channels">2</property>
  <property name="meta.media.0.codec.name">mp3float</property>
  <property name="meta.media.0.codec.long_name">MP3 (MPEG audio layer 3)</property>
  <property name="meta.media.0.codec.bit_rate">192000</property>
  <property name="meta.attr.encoded_by.markup">LAME in FL Studio 21</property>
  <property name="meta.attr.date.markup">2023</property>
  <property name="seekable">1</property>
  <property name="audio_index">0</property>
  <property name="video_index">-1</property>
  <property name="kdenlive:clipname"/>
  <property name="kdenlive:clip_type">1</property>
  <property name="kdenlive:folderid">350</property>
  <property name="kdenlive:id">448</property>
  <property name="kdenlive:file_size">4055096</property>
  <property name="kdenlive:file_hash">21e2d3f96f6bb322eb82c1d81f67fec1</property>
  <property name="kdenlive:audio_max0">198</property>
  <property name="mute_on_pause">1</property>
 </chain>
 <producer id="producer385" in="00:00:00.000" out="00:00:33.840">
  <property name="length">847</property>
  <property name="eof">pause</property>
  <property name="resource">quotes/out/steven-zapata-c3-q0.png</property>
  <property name="ttl">25</property>
  <property name="aspect_ratio">1</property>
  <property name="progressive">1</property>
  <property name="seekable">1</property>
  <property name="format">2</property>
  <property name="meta.media.width">1920</property>
  <property name="meta.media.height">1080</property>
  <property name="mlt_service">qimage</property>
  <property name="kdenlive:clipname"/>
  <property name="kdenlive:duration">00:00:05:00</property>
  <property name="kdenlive:folderid">345</property>
  <property name="kdenlive:id">449</property>
  <property name="kdenlive:clip_type">2</property>
  <property name="kdenlive:file_size">86877</property>
  <property name="kdenlive:file_hash">70b0a79d1add386334eba6e5b6645ed1</property>
 </producer>
 <producer id="producer384" in="00:00:00.000" out="00:01:02.920">
  <property name="length">1574</property>
  <property name="eof">pause</property>
  <property name="resource">quotes/out/steven-zapata-c3-q1.png</property>
  <property name="ttl">25</property>
  <property name="aspect_ratio">1</property>
  <property name="progressive">1</property>
  <property name="seekable">1</property>
  <property name="format">2</property>
  <property name="meta.media.width">1920</property>
  <property name="meta.media.height">1080</property>
  <property name="mlt_service">qimage</property>
  <property name="kdenlive:clipname"/>
  <property name="kdenlive:duration">00:00:05:00</property>
  <property name="kdenlive:folderid">345</property>
  <property name="kdenlive:id">450</property>
  <property name="kdenlive:clip_type">2</property>
  <property name="kdenlive:file_size">89705</property>
  <property name="kdenlive:file_hash">65555d2661223dd21e57736be2c741d5</property>
 </producer>
 <producer id="producer382" in="00:00:00.000" out="00:01:02.920">
  <property name="length">1574</property>
  <property name="eof">pause</property>
  <property name="resource">quotes/out/steven-zapata-c3.png</property>
  <property name="ttl">25</property>
  <property name="aspect_ratio">1</property>
  <property name="progressive">1</property>
  <property name="seekable">1</property>
  <property name="format">2</property>
  <property name="meta.media.width">1920</property>
  <property name="meta.media.height">1080</property>
  <property name="mlt_service">qimage</property>
  <property name="kdenlive:clipname"/>
  <property name="kdenlive:duration">00:00:05:00</property>
  <property name="kdenlive:folderid">345</property>
  <property name="kdenlive:id">451</property>
  <property name="kdenlive:clip_type">2</property>
  <property name="kdenlive:file_size">36925</property>
  <property name="kdenlive:file_hash">be97fcfe9545c7f3ef649a31031ea63b</property>
 </producer>
 <producer id="producer332" in="00:00:00.000" out="00:00:18.640">
  <property name="length">467</property>
  <property name="eof">pause</property>
  <property name="resource">images/dslr.xcf</property>
  <property name="ttl">25</property>
  <property name="aspect_ratio">1</property>
  <property name="progressive">1</property>
  <property name="seekable">1</property>
  <property name="format">2</property>
  <property name="meta.media.width">543</property>
  <property name="meta.media.height">543</property>
  <property name="mlt_service">qimage</property>
  <property name="kdenlive:clipname"/>
  <property name="kdenlive:duration">00:00:05:00</property>
  <property name="kdenlive:folderid">28</property>
  <property name="kdenlive:id">452</property>
  <property name="kdenlive:clip_type">2</property>
  <property name="kdenlive:file_size">577827</property>
  <property name="kdenlive:file_hash">38e444eb5eadbec2b407f2247934528f</property>
 </producer>
 <producer id="producer357" in="00:00:00.000" out="00:00:17.960">
  <property name="length">450</property>
  <property name="eof">pause</property>
  <property name="resource">images/stability ai logo.xcf</property>
  <property name="ttl">25</property>
  <property name="aspect_ratio">1</property>
  <property name="progressive">1</property>
  <property name="seekable">1</property>
  <property name="format">2</property>
  <property name="meta.media.width">712</property>
  <property name="meta.media.height">809</property>
  <property name="mlt_service">qimage</property>
  <property name="kdenlive:clipname"/>
  <property name="kdenlive:duration">00:00:05:00</property>
  <property name="kdenlive:folderid">28</property>
  <property name="kdenlive:id">453</property>
  <property name="kdenlive:clip_type">2</property>
  <property name="kdenlive:file_size">709781</property>
  <property name="kdenlive:file_hash">21450c72ced2582814f8b796bb9e9ea6</property>
 </producer>
 <producer id="producer387" in="00:00:00.000" out="00:00:10.120">
  <property name="length">00:00:10.160</property>
  <property name="eof">pause</property>
  <property name="resource">images/exchange-proompter.png</property>
  <property name="ttl">25</property>
  <property name="aspect_ratio">1</property>
  <property name="progressive">1</property>
  <property name="seekable">1</property>
  <property name="format">2</property>
  <property name="meta.media.width">1920</property>
  <property name="meta.media.height">1080</property>
  <property name="mlt_service">qimage</property>
  <property name="kdenlive:clipname"/>
  <property name="kdenlive:duration">00:00:05.000</property>
  <property name="kdenlive:folderid">460</property>
  <property name="kdenlive:id">454</property>
  <property name="kdenlive:clip_type">2</property>
  <property name="kdenlive:file_size">127860</property>
  <property name="kdenlive:file_hash">d47b8c49d4a89acb8ee3654552eec232</property>
 </producer>
 <producer id="producer388" in="00:00:00.000" out="00:00:14.680">
  <property name="length">00:00:14.720</property>
  <property name="eof">pause</property>
  <property name="resource">images/exchange-artist.png</property>
  <property name="ttl">25</property>
  <property name="aspect_ratio">1</property>
  <property name="progressive">1</property>
  <property name="seekable">1</property>
  <property name="format">2</property>
  <property name="meta.media.width">1920</property>
  <property name="meta.media.height">1080</property>
  <property name="mlt_service">qimage</property>
  <property name="kdenlive:clipname"/>
  <property name="kdenlive:duration">00:00:05.000</property>
  <property name="kdenlive:folderid">460</property>
  <property name="kdenlive:id">455</property>
  <property name="kdenlive:clip_type">2</property>
  <property name="kdenlive:file_size">134712</property>
  <property name="kdenlive:file_hash">a42b70984bcc6692fb21e48c02b30629</property>
 </producer>
 <producer id="producer389" in="00:00:00.000" out="00:00:12.640">
  <property name="length">00:00:12.680</property>
  <property name="eof">pause</property>
  <property name="resource">images/exchange.xcf</property>
  <property name="ttl">25</property>
  <property name="aspect_ratio">1</property>
  <property name="progressive">1</property>
  <property name="seekable">1</property>
  <property name="format">2</property>
  <property name="meta.media.width">1920</property>
  <property name="meta.media.height">1080</property>
  <property name="mlt_service">qimage</property>
  <property name="kdenlive:clipname"/>
  <property name="kdenlive:duration">00:00:05.000</property>
  <property name="kdenlive:folderid">460</property>
  <property name="kdenlive:id">456</property>
  <property name="kdenlive:clip_type">2</property>
  <property name="kdenlive:file_size">1740995</property>
  <property name="kdenlive:file_hash">23b4dcecde4844d7f6080d4041c560a0</property>
 </producer>
 <producer id="producer358" in="00:00:00.000" out="00:00:10.120">
  <property name="length">00:00:10.160</property>
  <property name="eof">pause</property>
  <property name="resource">images/exchange-proompter.png</property>
  <property name="ttl">25</property>
  <property name="aspect_ratio">1</property>
  <property name="progressive">1</property>
  <property name="seekable">1</property>
  <property name="format">2</property>
  <property name="meta.media.width">1920</property>
  <property name="meta.media.height">1080</property>
  <property name="mlt_service">qimage</property>
  <property name="kdenlive:clipname"/>
  <property name="kdenlive:duration">00:00:05.000</property>
  <property name="kdenlive:folderid">460</property>
  <property name="kdenlive:id">457</property>
  <property name="kdenlive:clip_type">2</property>
  <property name="kdenlive:file_size">127860</property>
  <property name="kdenlive:file_hash">d47b8c49d4a89acb8ee3654552eec232</property>
 </producer>
 <producer id="producer333" in="00:00:00.000" out="00:00:14.680">
  <property name="length">00:00:14.720</property>
  <property name="eof">pause</property>
  <property name="resource">images/exchange-artist.png</property>
  <property name="ttl">25</property>
  <property name="aspect_ratio">1</property>
  <property name="progressive">1</property>
  <property name="seekable">1</property>
  <property name="format">2</property>
  <property name="meta.media.width">1920</property>
  <property name="meta.media.height">1080</property>
  <property name="mlt_service">qimage</property>
  <property name="kdenlive:clipname"/>
  <property name="kdenlive:duration">00:00:05.000</property>
  <property name="kdenlive:folderid">460</property>
  <property name="kdenlive:id">458</property>
  <property name="kdenlive:clip_type">2</property>
  <property name="kdenlive:file_size">134712</property>
  <property name="kdenlive:file_hash">a42b70984bcc6692fb21e48c02b30629</property>
 </producer>
 <producer id="producer361" in="00:00:00.000" out="00:00:12.640">
  <property name="length">00:00:12.680</property>
  <property name="eof">pause</property>
  <property name="resource">images/exchange.xcf</property>
  <property name="ttl">25</property>
  <property name="aspect_ratio">1</property>
  <property name="progressive">1</property>
  <property name="seekable">1</property>
  <property name="format">2</property>
  <property name="meta.media.width">1920</property>
  <property name="meta.media.height">1080</property>
  <property name="mlt_service">qimage</property>
  <property name="kdenlive:clipname"/>
  <property name="kdenlive:duration">00:00:05.000</property>
  <property name="kdenlive:folderid">460</property>
  <property name="kdenlive:id">459</property>
  <property name="kdenlive:clip_type">2</property>
  <property name="kdenlive:file_size">1740995</property>
  <property name="kdenlive:file_hash">23b4dcecde4844d7f6080d4041c560a0</property>
 </producer>
 <chain id="chain190" out="00:02:10.720">
  <property name="length">3269</property>
  <property name="eof">pause</property>
  <property name="resource">/home/liquidzulu/Music/popular-front/4. EVIL MINDED [1459216483].mp3</property>
  <property name="mlt_service">avformat</property>
  <property name="meta.media.nb_streams">1</property>
  <property name="meta.media.0.stream.type">audio</property>
  <property name="meta.media.0.codec.sample_fmt">fltp</property>
  <property name="meta.media.0.codec.sample_rate">44100</property>
  <property name="meta.media.0.codec.channels">2</property>
  <property name="meta.media.0.codec.name">mp3float</property>
  <property name="meta.media.0.codec.long_name">MP3 (MPEG audio layer 3)</property>
  <property name="meta.media.0.codec.bit_rate">128000</property>
  <property name="meta.attr.0.stream.encoder.markup">LAME3.100</property>
  <property name="seekable">1</property>
  <property name="audio_index">0</property>
  <property name="video_index">-1</property>
  <property name="kdenlive:clipname"/>
  <property name="kdenlive:clip_type">1</property>
  <property name="kdenlive:folderid">5</property>
  <property name="kdenlive:id">461</property>
  <property name="kdenlive:file_size">2092302</property>
  <property name="kdenlive:file_hash">3c5eef0727a685455ce1e1d2ef5cc6c0</property>
  <property name="kdenlive:audio_max0">244</property>
  <property name="mute_on_pause">1</property>
 </chain>
 <chain id="chain191" out="00:03:12.000">
  <property name="length">4801</property>
  <property name="eof">pause</property>
  <property name="resource">/home/liquidzulu/Music/lemmino/Cosmic Solitude [885935188].flac</property>
  <property name="mlt_service">avformat</property>
  <property name="meta.media.nb_streams">1</property>
  <property name="meta.media.0.stream.type">audio</property>
  <property name="meta.media.0.codec.sample_fmt">s16</property>
  <property name="meta.media.0.codec.sample_rate">48000</property>
  <property name="meta.media.0.codec.channels">2</property>
  <property name="meta.media.0.codec.name">flac</property>
  <property name="meta.media.0.codec.long_name">FLAC (Free Lossless Audio Codec)</property>
  <property name="meta.media.0.codec.bit_rate">0</property>
  <property name="seekable">1</property>
  <property name="audio_index">0</property>
  <property name="video_index">-1</property>
  <property name="kdenlive:clipname"/>
  <property name="kdenlive:clip_type">1</property>
  <property name="kdenlive:folderid">5</property>
  <property name="kdenlive:id">462</property>
  <property name="kdenlive:file_size">11869975</property>
  <property name="kdenlive:file_hash">adacb6a9b3e9821f4f8cfd006787fb60</property>
  <property name="kdenlive:audio_max0">216</property>
  <property name="mute_on_pause">1</property>
 </chain>
 <chain id="chain192" out="00:02:09.480">
  <property name="length">3238</property>
  <property name="eof">pause</property>
  <property name="resource">/home/liquidzulu/Music/lemmino/Aloft [885935926].flac</property>
  <property name="mlt_service">avformat</property>
  <property name="meta.media.nb_streams">1</property>
  <property name="meta.media.0.stream.type">audio</property>
  <property name="meta.media.0.codec.sample_fmt">s16</property>
  <property name="meta.media.0.codec.sample_rate">48000</property>
  <property name="meta.media.0.codec.channels">2</property>
  <property name="meta.media.0.codec.name">flac</property>
  <property name="meta.media.0.codec.long_name">FLAC (Free Lossless Audio Codec)</property>
  <property name="meta.media.0.codec.bit_rate">0</property>
  <property name="seekable">1</property>
  <property name="audio_index">0</property>
  <property name="video_index">-1</property>
  <property name="kdenlive:clipname"/>
  <property name="kdenlive:clip_type">1</property>
  <property name="kdenlive:folderid">5</property>
  <property name="kdenlive:id">463</property>
  <property name="kdenlive:file_size">5287114</property>
  <property name="kdenlive:file_hash">33cbcb96995039d5eaef9cdb49342a81</property>
  <property name="kdenlive:audio_max0">216</property>
  <property name="mute_on_pause">1</property>
 </chain>
 <chain id="chain226" out="00:00:40.560">
  <property name="length">1015</property>
  <property name="eof">pause</property>
  <property name="resource">animation/output/possible-uses-of-photography-analogy.mp4</property>
  <property name="mlt_service">avformat-novalidate</property>
  <property name="meta.media.nb_streams">1</property>
  <property name="meta.media.0.stream.type">video</property>
  <property name="meta.media.0.stream.frame_rate">60</property>
  <property name="meta.media.0.stream.sample_aspect_ratio">0</property>
  <property name="meta.media.0.codec.width">1920</property>
  <property name="meta.media.0.codec.height">1080</property>
  <property name="meta.media.0.codec.rotate">0</property>
  <property name="meta.media.0.codec.pix_fmt">yuv420p</property>
  <property name="meta.media.0.codec.sample_aspect_ratio">0</property>
  <property name="meta.media.0.codec.colorspace">709</property>
  <property name="meta.media.0.codec.name">h264</property>
  <property name="meta.media.0.codec.long_name">H.264 / AVC / MPEG-4 AVC / MPEG-4 part 10</property>
  <property name="meta.media.0.codec.bit_rate">179374</property>
  <property name="meta.attr.0.stream.handler_name.markup">VideoHandler</property>
  <property name="meta.attr.0.stream.vendor_id.markup">[0][0][0][0]</property>
  <property name="meta.attr.major_brand.markup">isom</property>
  <property name="meta.attr.minor_version.markup">512</property>
  <property name="meta.attr.compatible_brands.markup">isomiso2avc1mp41</property>
  <property name="meta.attr.encoder.markup">Lavf58.24.100</property>
  <property name="seekable">1</property>
  <property name="meta.media.sample_aspect_num">1</property>
  <property name="meta.media.sample_aspect_den">1</property>
  <property name="format">3</property>
  <property name="audio_index">-1</property>
  <property name="video_index">0</property>
  <property name="meta.media.frame_rate_num">60</property>
  <property name="meta.media.frame_rate_den">1</property>
  <property name="meta.media.colorspace">709</property>
  <property name="meta.media.color_trc">2</property>
  <property name="meta.media.has_b_frames">2</property>
  <property name="meta.media.width">1920</property>
  <property name="meta.media.height">1080</property>
  <property name="meta.media.color_range">mpeg</property>
  <property name="kdenlive:clipname"/>
  <property name="kdenlive:clip_type">2</property>
  <property name="kdenlive:folderid">218</property>
  <property name="kdenlive:id">464</property>
  <property name="kdenlive:file_size">939847</property>
  <property name="kdenlive:file_hash">8c889b90f69432d7a7d58b7c56f4944e</property>
  <property name="meta.media.top_field_first">0</property>
  <property name="meta.media.progressive">1</property>
  <property name="mute_on_pause">1</property>
 </chain>
 <producer id="producer157" in="00:00:00.000" out="00:00:04.960">
  <property name="length">125</property>
  <property name="eof">pause</property>
  <property name="progressive">1</property>
  <property name="aspect_ratio">1</property>
  <property name="seekable">1</property>
  <property name="mlt_service">kdenlivetitle</property>
  <property name="kdenlive:duration">00:00:05:00</property>
  <property name="kdenlive:clipname">what</property>
  <property name="xmldata">&lt;kdenlivetitle duration="125" LC_NUMERIC="C" width="1920" height="1080" out="124">
 &lt;item type="QGraphicsTextItem" z-index="0">
  &lt;position x="665" y="402">
   &lt;transform>1,0,0,0,1,0,0,0,1&lt;/transform>
  &lt;/position>
  &lt;content line-spacing="0" shadow="0;#64000000;3;3;3" font-underline="0" box-height="276" font="Cubano" letter-spacing="0" font-pixel-size="230" font-italic="0" typewriter="0;2;1;0;0" alignment="4" font-weight="50" box-width="589.25" font-color="255,255,255,255">what&lt;/content>
 &lt;/item>
 &lt;startviewport rect="0,0,1920,1080"/>
 &lt;endviewport rect="0,0,1920,1080"/>
 &lt;background color="0,0,0,0"/>
&lt;/kdenlivetitle>
</property>
  <property name="kdenlive:folderid">21</property>
  <property name="kdenlive:id">465</property>
  <property name="kdenlive:clip_type">2</property>
  <property name="force_reload">0</property>
  <property name="meta.media.width">1920</property>
  <property name="meta.media.height">1080</property>
  <property name="kdenlive:file_hash">6588f229e74332a04e6f0523438a0ade</property>
 </producer>
 <producer id="producer158" in="00:00:00.000" out="00:00:04.960">
  <property name="length">125</property>
  <property name="eof">pause</property>
  <property name="progressive">1</property>
  <property name="aspect_ratio">1</property>
  <property name="seekable">1</property>
  <property name="mlt_service">kdenlivetitle</property>
  <property name="kdenlive:duration">00:00:05:00</property>
  <property name="kdenlive:clipname">is a</property>
  <property name="xmldata">&lt;kdenlivetitle duration="125" LC_NUMERIC="C" width="1920" height="1080" out="124">
 &lt;item type="QGraphicsTextItem" z-index="0">
  &lt;position x="762" y="402">
   &lt;transform>1,0,0,0,1,0,0,0,1&lt;/transform>
  &lt;/position>
  &lt;content line-spacing="0" shadow="0;#64000000;3;3;3" font-underline="0" box-height="276" font="Cubano" letter-spacing="0" font-pixel-size="230" font-italic="0" typewriter="0;2;1;0;0" alignment="4" font-weight="50" box-width="396.031" font-color="255,255,255,255">is a&lt;/content>
 &lt;/item>
 &lt;startviewport rect="0,0,1920,1080"/>
 &lt;endviewport rect="0,0,1920,1080"/>
 &lt;background color="0,0,0,0"/>
&lt;/kdenlivetitle>
</property>
  <property name="kdenlive:folderid">21</property>
  <property name="kdenlive:id">466</property>
  <property name="kdenlive:clip_type">2</property>
  <property name="force_reload">0</property>
  <property name="meta.media.width">1920</property>
  <property name="meta.media.height">1080</property>
  <property name="kdenlive:file_hash">e41d29c32a06e123aed4b41562bac333</property>
 </producer>
 <producer id="producer159" in="00:00:00.000" out="00:00:04.960">
  <property name="length">125</property>
  <property name="eof">pause</property>
  <property name="progressive">1</property>
  <property name="aspect_ratio">1</property>
  <property name="seekable">1</property>
  <property name="mlt_service">kdenlivetitle</property>
  <property name="kdenlive:duration">00:00:05:00</property>
  <property name="kdenlive:clipname">general</property>
  <property name="xmldata">&lt;kdenlivetitle duration="125" LC_NUMERIC="C" width="1920" height="1080" out="124">
 &lt;item type="QGraphicsTextItem" z-index="0">
  &lt;position x="469" y="402">
   &lt;transform>1,0,0,0,1,0,0,0,1&lt;/transform>
  &lt;/position>
  &lt;content line-spacing="0" shadow="0;#64000000;3;3;3" font-underline="0" box-height="276" font-outline-color="0,0,0,255" font="Cubano" letter-spacing="0" font-pixel-size="230" font-italic="1" typewriter="0;2;1;0;0" alignment="4" font-weight="50" font-outline="0" box-width="981.641" font-color="255,255,255,255">general&lt;/content>
 &lt;/item>
 &lt;startviewport rect="0,0,1920,1080"/>
 &lt;endviewport rect="0,0,1920,1080"/>
 &lt;background color="0,0,0,0"/>
&lt;/kdenlivetitle>
</property>
  <property name="kdenlive:folderid">21</property>
  <property name="kdenlive:id">467</property>
  <property name="kdenlive:clip_type">2</property>
  <property name="force_reload">0</property>
  <property name="meta.media.width">1920</property>
  <property name="meta.media.height">1080</property>
  <property name="kdenlive:file_hash">cc4c1b0b37bcb0e3f8f00ef3eebc048e</property>
 </producer>
 <producer id="producer160" in="00:00:00.000" out="00:00:04.960">
  <property name="length">125</property>
  <property name="eof">pause</property>
  <property name="progressive">1</property>
  <property name="aspect_ratio">1</property>
  <property name="seekable">1</property>
  <property name="mlt_service">kdenlivetitle</property>
  <property name="kdenlive:duration">00:00:05:00</property>
  <property name="kdenlive:clipname">intelligence</property>
  <property name="xmldata">&lt;kdenlivetitle duration="125" LC_NUMERIC="C" width="1920" height="1080" out="124">
 &lt;item type="QGraphicsTextItem" z-index="0">
  &lt;position x="242" y="402">
   &lt;transform>1,0,0,0,1,0,0,0,1&lt;/transform>
  &lt;/position>
  &lt;content line-spacing="0" shadow="0;#64000000;3;3;3" font-underline="0" box-height="276" font-outline-color="0,0,0,255" font="Cubano" letter-spacing="0" font-pixel-size="230" font-italic="0" typewriter="0;2;1;0;0" alignment="4" font-weight="50" font-outline="0" box-width="1435.39" font-color="255,255,255,255">intelligence&lt;/content>
 &lt;/item>
 &lt;startviewport rect="0,0,1920,1080"/>
 &lt;endviewport rect="0,0,1920,1080"/>
 &lt;background color="0,0,0,0"/>
&lt;/kdenlivetitle>
</property>
  <property name="kdenlive:folderid">21</property>
  <property name="kdenlive:id">468</property>
  <property name="kdenlive:clip_type">2</property>
  <property name="force_reload">0</property>
  <property name="meta.media.width">1920</property>
  <property name="meta.media.height">1080</property>
  <property name="kdenlive:file_hash">60e932d26d9f7639a23c6bec89c042e2</property>
 </producer>
 <producer id="producer161" in="00:00:00.000" out="00:00:04.960">
  <property name="length">125</property>
  <property name="eof">pause</property>
  <property name="progressive">1</property>
  <property name="aspect_ratio">1</property>
  <property name="seekable">1</property>
  <property name="mlt_service">kdenlivetitle</property>
  <property name="kdenlive:duration">00:00:05:00</property>
  <property name="kdenlive:clipname">if not</property>
  <property name="xmldata">&lt;kdenlivetitle duration="125" LC_NUMERIC="C" width="1920" height="1080" out="124">
 &lt;item type="QGraphicsTextItem" z-index="0">
  &lt;position x="625" y="402">
   &lt;transform>1,0,0,0,1,0,0,0,1&lt;/transform>
  &lt;/position>
  &lt;content line-spacing="0" shadow="0;#64000000;3;3;3" font-underline="0" box-height="276" font="Cubano" letter-spacing="0" font-pixel-size="230" font-italic="0" typewriter="0;2;1;0;0" alignment="4" font-weight="50" box-width="670.672" font-color="255,255,255,255">if not&lt;/content>
 &lt;/item>
 &lt;startviewport rect="0,0,1920,1080"/>
 &lt;endviewport rect="0,0,1920,1080"/>
 &lt;background color="0,0,0,0"/>
&lt;/kdenlivetitle>
</property>
  <property name="kdenlive:folderid">21</property>
  <property name="kdenlive:id">469</property>
  <property name="kdenlive:clip_type">2</property>
  <property name="force_reload">0</property>
  <property name="meta.media.width">1920</property>
  <property name="meta.media.height">1080</property>
  <property name="kdenlive:file_hash">f15e22a0686fa44dd7c5a0cc6e757dae</property>
 </producer>
 <producer id="producer163" in="00:00:00.000" out="00:00:04.960">
  <property name="length">125</property>
  <property name="eof">pause</property>
  <property name="progressive">1</property>
  <property name="aspect_ratio">1</property>
  <property name="seekable">1</property>
  <property name="mlt_service">kdenlivetitle</property>
  <property name="kdenlive:duration">00:00:05:00</property>
  <property name="kdenlive:clipname">learns</property>
  <property name="xmldata">&lt;kdenlivetitle duration="125" LC_NUMERIC="C" width="1920" height="1080" out="124">
 &lt;item type="QGraphicsTextItem" z-index="0">
  &lt;position x="563" y="402">
   &lt;transform>1,0,0,0,1,0,0,0,1&lt;/transform>
  &lt;/position>
  &lt;content line-spacing="0" shadow="0;#64000000;3;3;3" font-underline="0" box-height="276" font="Cubano" letter-spacing="0" font-pixel-size="230" font-italic="0" typewriter="0;2;1;0;0" alignment="4" font-weight="50" box-width="793.688" font-color="255,255,255,255">learns&lt;/content>
 &lt;/item>
 &lt;startviewport rect="0,0,1920,1080"/>
 &lt;endviewport rect="0,0,1920,1080"/>
 &lt;background color="0,0,0,0"/>
&lt;/kdenlivetitle>
</property>
  <property name="kdenlive:folderid">21</property>
  <property name="kdenlive:id">470</property>
  <property name="kdenlive:clip_type">2</property>
  <property name="force_reload">0</property>
  <property name="meta.media.width">1920</property>
  <property name="meta.media.height">1080</property>
  <property name="kdenlive:file_hash">4fe88944e23d68cde358e556ffba87e2</property>
 </producer>
 <producer id="producer325" in="00:00:00.000" out="00:00:04.960">
  <property name="length">125</property>
  <property name="eof">pause</property>
  <property name="progressive">1</property>
  <property name="aspect_ratio">1</property>
  <property name="seekable">1</property>
  <property name="mlt_service">kdenlivetitle</property>
  <property name="kdenlive:duration">00:00:05:00</property>
  <property name="kdenlive:clipname">generally?</property>
  <property name="xmldata">&lt;kdenlivetitle duration="125" LC_NUMERIC="C" width="1920" height="1080" out="124">
 &lt;item type="QGraphicsTextItem" z-index="0">
  &lt;position x="289" y="402">
   &lt;transform>1,0,0,0,1,0,0,0,1&lt;/transform>
  &lt;/position>
  &lt;content line-spacing="0" shadow="0;#64000000;3;3;3" font-underline="0" box-height="276" font="Cubano" letter-spacing="0" font-pixel-size="230" font-italic="1" typewriter="0;2;1;0;0" alignment="4" font-weight="50" box-width="1343.47" font-color="255,255,255,255">generally?&lt;/content>
 &lt;/item>
 &lt;startviewport rect="0,0,1920,1080"/>
 &lt;endviewport rect="0,0,1920,1080"/>
 &lt;background color="0,0,0,0"/>
&lt;/kdenlivetitle>
</property>
  <property name="kdenlive:folderid">21</property>
  <property name="kdenlive:id">471</property>
  <property name="kdenlive:clip_type">2</property>
  <property name="force_reload">0</property>
  <property name="meta.media.width">1920</property>
  <property name="meta.media.height">1080</property>
  <property name="kdenlive:file_hash">4b9b95d07ce4bd47d8d085bc7eb19ec9</property>
 </producer>
 <producer id="producer392" in="00:00:00.000" out="00:00:08.360">
  <property name="length">210</property>
  <property name="eof">pause</property>
  <property name="progressive">1</property>
  <property name="aspect_ratio">1</property>
  <property name="seekable">1</property>
  <property name="mlt_service">kdenlivetitle</property>
  <property name="kdenlive:duration">00:00:05:00</property>
  <property name="kdenlive:clipname">general lear...</property>
  <property name="xmldata">&lt;kdenlivetitle duration="125" LC_NUMERIC="C" width="1920" height="1080" out="124">
 &lt;item type="QGraphicsTextItem" z-index="0">
  &lt;position x="227" y="438">
   &lt;transform>1,0,0,0,1,0,0,0,1&lt;/transform>
  &lt;/position>
  &lt;content line-spacing="0" shadow="0;#64000000;3;3;3" font-underline="0" box-height="203" font-outline-color="0,0,0,255" font="Cubano" letter-spacing="0" font-pixel-size="169" font-italic="0" typewriter="0;2;1;0;0" alignment="4" font-weight="50" font-outline="0" box-width="1466.27" font-color="255,255,255,255">general learning&lt;/content>
 &lt;/item>
 &lt;startviewport rect="0,0,1920,1080"/>
 &lt;endviewport rect="0,0,1920,1080"/>
 &lt;background color="0,0,0,0"/>
&lt;/kdenlivetitle>
</property>
  <property name="kdenlive:folderid">21</property>
  <property name="kdenlive:id">472</property>
  <property name="kdenlive:clip_type">2</property>
  <property name="force_reload">0</property>
  <property name="meta.media.width">1920</property>
  <property name="meta.media.height">1080</property>
  <property name="kdenlive:file_hash">258754a866d65a6aed855d159bb74bfc</property>
 </producer>
 <producer id="producer334" in="00:00:00.000" out="00:00:13.240">
  <property name="length">332</property>
  <property name="eof">pause</property>
  <property name="progressive">1</property>
  <property name="aspect_ratio">1</property>
  <property name="seekable">1</property>
  <property name="mlt_service">kdenlivetitle</property>
  <property name="kdenlive:duration">00:00:05:00</property>
  <property name="kdenlive:clipname">specific lea...</property>
  <property name="xmldata">&lt;kdenlivetitle duration="125" LC_NUMERIC="C" width="1920" height="1080" out="124">
 &lt;item type="QGraphicsTextItem" z-index="0">
  &lt;position x="285" y="483">
   &lt;transform>1,0,0,0,1,0,0,0,1&lt;/transform>
  &lt;/position>
  &lt;content line-spacing="0" shadow="0;#64000000;3;3;3" font-underline="0" box-height="113" font="Cubano" letter-spacing="0" font-pixel-size="94" font-italic="0" typewriter="0;2;1;0;0" alignment="4" font-weight="50" box-width="1350.09" font-color="255,255,255,255">specific learning is learning&lt;/content>
 &lt;/item>
 &lt;startviewport rect="0,0,1920,1080"/>
 &lt;endviewport rect="0,0,1920,1080"/>
 &lt;background color="0,0,0,0"/>
&lt;/kdenlivetitle>
</property>
  <property name="kdenlive:folderid">21</property>
  <property name="kdenlive:id">473</property>
  <property name="kdenlive:clip_type">2</property>
  <property name="force_reload">0</property>
  <property name="meta.media.width">1920</property>
  <property name="meta.media.height">1080</property>
  <property name="kdenlive:file_hash">47e13fe40918e2027290080344d58ff0</property>
 </producer>
 <producer id="producer335" in="00:00:00.000" out="00:00:13.240">
  <property name="length">332</property>
  <property name="eof">pause</property>
  <property name="progressive">1</property>
  <property name="aspect_ratio">1</property>
  <property name="seekable">1</property>
  <property name="mlt_service">kdenlivetitle</property>
  <property name="kdenlive:duration">00:00:05:00</property>
  <property name="kdenlive:clipname">A is A</property>
  <property name="xmldata">&lt;kdenlivetitle duration="125" LC_NUMERIC="C" width="1920" height="1080" out="124">
 &lt;item type="QGraphicsTextItem" z-index="0">
  &lt;position x="838" y="483">
   &lt;transform>1,0,0,0,1,0,0,0,1&lt;/transform>
  &lt;/position>
  &lt;content line-spacing="0" shadow="0;#64000000;3;3;3" font-underline="0" box-height="113" font="Cubano" letter-spacing="0" font-pixel-size="94" font-italic="0" typewriter="0;2;1;0;0" alignment="4" font-weight="50" box-width="244.547" font-color="255,255,255,255">A is A&lt;/content>
 &lt;/item>
 &lt;startviewport rect="0,0,1920,1080"/>
 &lt;endviewport rect="0,0,1920,1080"/>
 &lt;background color="0,0,0,0"/>
&lt;/kdenlivetitle>
</property>
  <property name="kdenlive:folderid">21</property>
  <property name="kdenlive:id">474</property>
  <property name="kdenlive:clip_type">2</property>
  <property name="force_reload">0</property>
  <property name="meta.media.width">1920</property>
  <property name="meta.media.height">1080</property>
  <property name="kdenlive:file_hash">a248a041826a3d9e023334022c28e247</property>
 </producer>
 <producer id="producer338" in="00:00:00.000" out="00:00:16.280">
  <property name="length">408</property>
  <property name="eof">pause</property>
  <property name="resource">citations/citations-solar-imagination.png</property>
  <property name="ttl">25</property>
  <property name="aspect_ratio">1</property>
  <property name="progressive">1</property>
  <property name="seekable">1</property>
  <property name="format">2</property>
  <property name="meta.media.width">1920</property>
  <property name="meta.media.height">1080</property>
  <property name="mlt_service">qimage</property>
  <property name="kdenlive:clipname"/>
  <property name="kdenlive:duration">00:00:05:00</property>
  <property name="kdenlive:folderid">234</property>
  <property name="kdenlive:id">475</property>
  <property name="kdenlive:clip_type">2</property>
  <property name="kdenlive:file_size">26073</property>
  <property name="kdenlive:file_hash">cbc2f2b00e5abaff2a81c780fb6b66bd</property>
 </producer>
 <chain id="chain227" out="00:02:48.920">
  <property name="length">4224</property>
  <property name="eof">pause</property>
  <property name="resource">audio/quotes/ai-art-quote/doomed to be replaced.00.23.50.mp3</property>
  <property name="mlt_service">avformat</property>
  <property name="meta.media.nb_streams">1</property>
  <property name="meta.media.0.stream.type">audio</property>
  <property name="meta.media.0.codec.sample_fmt">fltp</property>
  <property name="meta.media.0.codec.sample_rate">44100</property>
  <property name="meta.media.0.codec.channels">2</property>
  <property name="meta.media.0.codec.name">mp3float</property>
  <property name="meta.media.0.codec.long_name">MP3 (MPEG audio layer 3)</property>
  <property name="meta.media.0.codec.bit_rate">192000</property>
  <property name="meta.attr.encoded_by.markup">LAME in FL Studio 21</property>
  <property name="meta.attr.date.markup">2023</property>
  <property name="seekable">1</property>
  <property name="audio_index">0</property>
  <property name="video_index">-1</property>
  <property name="kdenlive:clipname"/>
  <property name="kdenlive:clip_type">1</property>
  <property name="kdenlive:folderid">350</property>
  <property name="kdenlive:id">476</property>
  <property name="kdenlive:file_size">4055096</property>
  <property name="kdenlive:file_hash">3cf26b275ff7a769428c952fe3ddab80</property>
  <property name="kdenlive:audio_max0">194</property>
  <property name="mute_on_pause">1</property>
 </chain>
 <chain id="chain228" out="00:03:25.560">
  <property name="length">5140</property>
  <property name="eof">pause</property>
  <property name="resource">/home/liquidzulu/Music/lemmino/Melancholy [885930184].flac</property>
  <property name="mlt_service">avformat</property>
  <property name="meta.media.nb_streams">1</property>
  <property name="meta.media.0.stream.type">audio</property>
  <property name="meta.media.0.codec.sample_fmt">s16</property>
  <property name="meta.media.0.codec.sample_rate">48000</property>
  <property name="meta.media.0.codec.channels">2</property>
  <property name="meta.media.0.codec.name">flac</property>
  <property name="meta.media.0.codec.long_name">FLAC (Free Lossless Audio Codec)</property>
  <property name="meta.media.0.codec.bit_rate">0</property>
  <property name="seekable">1</property>
  <property name="audio_index">0</property>
  <property name="video_index">-1</property>
  <property name="kdenlive:clipname"/>
  <property name="kdenlive:clip_type">1</property>
  <property name="kdenlive:folderid">5</property>
  <property name="kdenlive:id">477</property>
  <property name="kdenlive:file_size">11352946</property>
  <property name="kdenlive:file_hash">129622b78e0939d82101bf624ae13130</property>
  <property name="kdenlive:audio_max0">212</property>
  <property name="mute_on_pause">1</property>
 </chain>
 <chain id="chain229" out="00:20:20.360">
  <property name="length">30510</property>
  <property name="eof">pause</property>
  <property name="resource">b-roll/What Does Your Imagination Look Likeï¼Ÿ [ZOIIZiEUNmg].webm</property>
  <property name="mlt_service">avformat-novalidate</property>
  <property name="meta.media.nb_streams">2</property>
  <property name="meta.media.0.stream.type">video</property>
  <property name="meta.media.0.stream.frame_rate">30</property>
  <property name="meta.media.0.stream.sample_aspect_ratio">1</property>
  <property name="meta.media.0.codec.width">3840</property>
  <property name="meta.media.0.codec.height">2160</property>
  <property name="meta.media.0.codec.rotate">0</property>
  <property name="meta.media.0.codec.pix_fmt">yuv420p</property>
  <property name="meta.media.0.codec.sample_aspect_ratio">0</property>
  <property name="meta.media.0.codec.colorspace">709</property>
  <property name="meta.media.0.codec.color_trc">1</property>
  <property name="meta.media.0.codec.name">vp9</property>
  <property name="meta.media.0.codec.long_name">Google VP9</property>
  <property name="meta.media.0.codec.bit_rate">0</property>
  <property name="meta.attr.0.stream.language.markup">eng</property>
  <property name="meta.attr.0.stream.DURATION.markup">00:20:20.367000000</property>
  <property name="meta.media.1.stream.type">audio</property>
  <property name="meta.media.1.codec.sample_fmt">fltp</property>
  <property name="meta.media.1.codec.sample_rate">48000</property>
  <property name="meta.media.1.codec.channels">2</property>
  <property name="meta.media.1.codec.name">opus</property>
  <property name="meta.media.1.codec.long_name">Opus</property>
  <property name="meta.media.1.codec.bit_rate">0</property>
  <property name="meta.attr.1.stream.language.markup">eng</property>
  <property name="meta.attr.1.stream.DURATION.markup">00:20:20.381000000</property>
  <property name="meta.attr.ENCODER.markup">Lavf59.27.100</property>
  <property name="seekable">1</property>
  <property name="meta.media.sample_aspect_num">1</property>
  <property name="meta.media.sample_aspect_den">1</property>
  <property name="format">3</property>
  <property name="audio_index">-1</property>
  <property name="video_index">0</property>
  <property name="meta.media.frame_rate_num">30</property>
  <property name="meta.media.frame_rate_den">1</property>
  <property name="meta.media.colorspace">709</property>
  <property name="meta.media.color_trc">1</property>
  <property name="meta.media.has_b_frames">0</property>
  <property name="meta.media.width">3840</property>
  <property name="meta.media.height">2160</property>
  <property name="meta.media.color_range">mpeg</property>
  <property name="kdenlive:clipname"/>
  <property name="meta.media.top_field_first">0</property>
  <property name="meta.media.progressive">1</property>
  <property name="kdenlive:clip_type">0</property>
  <property name="kdenlive:folderid">14</property>
  <property name="kdenlive:id">478</property>
  <property name="kdenlive:file_size">1297047636</property>
  <property name="kdenlive:file_hash">91c394f517b50d55c5c4e6fdd3d1fe85</property>
  <property name="kdenlive:active_streams">-1</property>
  <property name="set.test_audio">1</property>
  <property name="kdenlive:audio_max1">227</property>
  <property name="mute_on_pause">1</property>
 </chain>
 <producer id="producer442" in="00:00:00.000" out="00:01:14.960">
  <property name="length">1875</property>
  <property name="eof">pause</property>
  <property name="resource">quotes/out/solar-sands-c0-q0.png</property>
  <property name="ttl">25</property>
  <property name="aspect_ratio">1</property>
  <property name="progressive">1</property>
  <property name="seekable">1</property>
  <property name="format">2</property>
  <property name="meta.media.width">1920</property>
  <property name="meta.media.height">1080</property>
  <property name="mlt_service">qimage</property>
  <property name="kdenlive:clipname"/>
  <property name="kdenlive:duration">00:00:05:00</property>
  <property name="kdenlive:folderid">345</property>
  <property name="kdenlive:id">479</property>
  <property name="kdenlive:clip_type">2</property>
  <property name="kdenlive:file_size">96670</property>
  <property name="kdenlive:file_hash">78f9ebf047a0b46100dc1e4cf4215e0b</property>
 </producer>
 <producer id="producer443" in="00:00:00.000" out="00:00:34.480">
  <property name="length">863</property>
  <property name="eof">pause</property>
  <property name="resource">quotes/out/solar-sands-c0-q1.png</property>
  <property name="ttl">25</property>
  <property name="aspect_ratio">1</property>
  <property name="progressive">1</property>
  <property name="seekable">1</property>
  <property name="format">2</property>
  <property name="meta.media.width">1920</property>
  <property name="meta.media.height">1080</property>
  <property name="mlt_service">qimage</property>
  <property name="kdenlive:clipname"/>
  <property name="kdenlive:duration">00:00:05:00</property>
  <property name="kdenlive:folderid">345</property>
  <property name="kdenlive:id">480</property>
  <property name="kdenlive:clip_type">2</property>
  <property name="kdenlive:file_size">68797</property>
  <property name="kdenlive:file_hash">2919ee1e569ac984af83628a3d56a93b</property>
 </producer>
 <producer id="producer444" in="00:00:00.000" out="00:00:19.560">
  <property name="length">490</property>
  <property name="eof">pause</property>
  <property name="resource">quotes/out/solar-sands-c0-q2.png</property>
  <property name="ttl">25</property>
  <property name="aspect_ratio">1</property>
  <property name="progressive">1</property>
  <property name="seekable">1</property>
  <property name="format">2</property>
  <property name="meta.media.width">1920</property>
  <property name="meta.media.height">1080</property>
  <property name="mlt_service">qimage</property>
  <property name="kdenlive:clipname"/>
  <property name="kdenlive:duration">00:00:05:00</property>
  <property name="kdenlive:folderid">345</property>
  <property name="kdenlive:id">481</property>
  <property name="kdenlive:clip_type">2</property>
  <property name="kdenlive:file_size">80806</property>
  <property name="kdenlive:file_hash">de3d46254c9f1f2e159158830ee59330</property>
 </producer>
 <producer id="producer445" in="00:00:00.000" out="00:00:09.440">
  <property name="length">237</property>
  <property name="eof">pause</property>
  <property name="resource">quotes/out/solar-sands-c0-q3.png</property>
  <property name="ttl">25</property>
  <property name="aspect_ratio">1</property>
  <property name="progressive">1</property>
  <property name="seekable">1</property>
  <property name="format">2</property>
  <property name="meta.media.width">1920</property>
  <property name="meta.media.height">1080</property>
  <property name="mlt_service">qimage</property>
  <property name="kdenlive:clipname"/>
  <property name="kdenlive:duration">00:00:05:00</property>
  <property name="kdenlive:folderid">345</property>
  <property name="kdenlive:id">482</property>
  <property name="kdenlive:clip_type">2</property>
  <property name="kdenlive:file_size">41332</property>
  <property name="kdenlive:file_hash">1ba20ad7a864707db719929aee434743</property>
 </producer>
 <producer id="producer438" in="00:00:00.000" out="00:01:14.960">
  <property name="length">1875</property>
  <property name="eof">pause</property>
  <property name="resource">quotes/out/solar-sands-c0.png</property>
  <property name="ttl">25</property>
  <property name="aspect_ratio">1</property>
  <property name="progressive">1</property>
  <property name="seekable">1</property>
  <property name="format">2</property>
  <property name="meta.media.width">1920</property>
  <property name="meta.media.height">1080</property>
  <property name="mlt_service">qimage</property>
  <property name="kdenlive:clipname"/>
  <property name="kdenlive:duration">00:00:05:00</property>
  <property name="kdenlive:folderid">345</property>
  <property name="kdenlive:id">483</property>
  <property name="kdenlive:clip_type">2</property>
  <property name="kdenlive:file_size">24419</property>
  <property name="kdenlive:file_hash">4c7b00d6339927b067cd3685cd9b9159</property>
 </producer>
 <producer id="producer422" in="00:00:00.000" out="00:01:14.960">
  <property name="length">1875</property>
  <property name="eof">pause</property>
  <property name="resource">quotes/out/solar-sands-card.png</property>
  <property name="ttl">25</property>
  <property name="aspect_ratio">1</property>
  <property name="progressive">1</property>
  <property name="seekable">1</property>
  <property name="format">2</property>
  <property name="meta.media.width">1920</property>
  <property name="meta.media.height">1080</property>
  <property name="mlt_service">qimage</property>
  <property name="kdenlive:clipname"/>
  <property name="kdenlive:duration">00:00:05:00</property>
  <property name="kdenlive:folderid">345</property>
  <property name="kdenlive:id">484</property>
  <property name="kdenlive:clip_type">2</property>
  <property name="kdenlive:file_size">263937</property>
  <property name="kdenlive:file_hash">c4a8036c5abe04beea8565f09c986a8b</property>
 </producer>
 <chain id="chain230" out="00:00:18.800">
  <property name="length">471</property>
  <property name="eof">pause</property>
  <property name="resource">animation/output/solar-arguments.mp4</property>
  <property name="mlt_service">avformat-novalidate</property>
  <property name="meta.media.nb_streams">1</property>
  <property name="meta.media.0.stream.type">video</property>
  <property name="meta.media.0.stream.frame_rate">60</property>
  <property name="meta.media.0.stream.sample_aspect_ratio">0</property>
  <property name="meta.media.0.codec.width">1920</property>
  <property name="meta.media.0.codec.height">1080</property>
  <property name="meta.media.0.codec.rotate">0</property>
  <property name="meta.media.0.codec.pix_fmt">yuv420p</property>
  <property name="meta.media.0.codec.sample_aspect_ratio">0</property>
  <property name="meta.media.0.codec.colorspace">709</property>
  <property name="meta.media.0.codec.name">h264</property>
  <property name="meta.media.0.codec.long_name">H.264 / AVC / MPEG-4 AVC / MPEG-4 part 10</property>
  <property name="meta.media.0.codec.bit_rate">375208</property>
  <property name="meta.attr.0.stream.handler_name.markup">VideoHandler</property>
  <property name="meta.attr.0.stream.vendor_id.markup">[0][0][0][0]</property>
  <property name="meta.attr.major_brand.markup">isom</property>
  <property name="meta.attr.minor_version.markup">512</property>
  <property name="meta.attr.compatible_brands.markup">isomiso2avc1mp41</property>
  <property name="meta.attr.encoder.markup">Lavf58.24.100</property>
  <property name="seekable">1</property>
  <property name="meta.media.sample_aspect_num">1</property>
  <property name="meta.media.sample_aspect_den">1</property>
  <property name="format">3</property>
  <property name="audio_index">-1</property>
  <property name="video_index">0</property>
  <property name="meta.media.frame_rate_num">60</property>
  <property name="meta.media.frame_rate_den">1</property>
  <property name="meta.media.colorspace">709</property>
  <property name="meta.media.color_trc">2</property>
  <property name="meta.media.has_b_frames">2</property>
  <property name="meta.media.width">1920</property>
  <property name="meta.media.height">1080</property>
  <property name="meta.media.color_range">mpeg</property>
  <property name="kdenlive:clipname"/>
  <property name="kdenlive:clip_type">2</property>
  <property name="kdenlive:folderid">218</property>
  <property name="kdenlive:id">485</property>
  <property name="kdenlive:file_size">898326</property>
  <property name="kdenlive:file_hash">811e51919a6d79aaee41dbba3ac1e68b</property>
  <property name="meta.media.top_field_first">0</property>
  <property name="meta.media.progressive">1</property>
  <property name="mute_on_pause">1</property>
 </chain>
 <producer id="producer339" in="00:00:00.000" out="00:00:18.640">
  <property name="length">467</property>
  <property name="eof">pause</property>
  <property name="resource">images/painter.xcf</property>
  <property name="ttl">25</property>
  <property name="aspect_ratio">1</property>
  <property name="progressive">1</property>
  <property name="seekable">1</property>
  <property name="format">2</property>
  <property name="meta.media.width">458</property>
  <property name="meta.media.height">647</property>
  <property name="mlt_service">qimage</property>
  <property name="kdenlive:clipname"/>
  <property name="kdenlive:duration">00:00:05:00</property>
  <property name="kdenlive:folderid">28</property>
  <property name="kdenlive:id">486</property>
  <property name="kdenlive:clip_type">2</property>
  <property name="kdenlive:file_size">805328</property>
  <property name="kdenlive:file_hash">9b098eee353ed69e441e2f3c42b6e56a</property>
 </producer>
 <producer id="producer393" in="00:00:00.000" out="00:00:13.240">
  <property name="length">332</property>
  <property name="eof">pause</property>
  <property name="progressive">1</property>
  <property name="aspect_ratio">1</property>
  <property name="seekable">1</property>
  <property name="mlt_service">kdenlivetitle</property>
  <property name="kdenlive:duration">00:00:05:00</property>
  <property name="kdenlive:clipname">bad referenc...</property>
  <property name="xmldata">&lt;kdenlivetitle duration="125" LC_NUMERIC="C" width="1920" height="1080" out="124">
 &lt;item type="QGraphicsTextItem" z-index="0">
  &lt;position x="406" y="257">
   &lt;transform>1,0,0,0,1,0,0,0,1&lt;/transform>
  &lt;/position>
  &lt;content line-spacing="0" shadow="0;#64000000;3;3;3" font-underline="0" box-height="565" font="Cubano" letter-spacing="0" font-pixel-size="94" font-italic="0" typewriter="0;2;1;0;0" alignment="4" font-weight="50" box-width="1108.98" font-color="255,255,255,255">bad referencing:

when the referencer
puts the referencee at
risk of losing his job&lt;/content>
 &lt;/item>
 &lt;startviewport rect="0,0,1920,1080"/>
 &lt;endviewport rect="0,0,1920,1080"/>
 &lt;background color="0,0,0,0"/>
&lt;/kdenlivetitle>
</property>
  <property name="kdenlive:folderid">21</property>
  <property name="kdenlive:id">487</property>
  <property name="kdenlive:clip_type">2</property>
  <property name="force_reload">0</property>
  <property name="meta.media.width">1920</property>
  <property name="meta.media.height">1080</property>
  <property name="kdenlive:file_hash">559cea8da01b327435bbc71b2e99d153</property>
 </producer>
 <chain id="chain231" out="00:03:00.880">
  <property name="length">4523</property>
  <property name="eof">pause</property>
  <property name="resource">b-roll/Lighthouse Speed painting â§¸ Acrylic â§¸ painting demonstration [wobXMrVBNAw].mkv</property>
  <property name="mlt_service">avformat-novalidate</property>
  <property name="meta.media.nb_streams">2</property>
  <property name="meta.media.0.stream.type">video</property>
  <property name="meta.media.0.stream.frame_rate">25</property>
  <property name="meta.media.0.stream.sample_aspect_ratio">1</property>
  <property name="meta.media.0.codec.width">1920</property>
  <property name="meta.media.0.codec.height">1080</property>
  <property name="meta.media.0.codec.rotate">0</property>
  <property name="meta.media.0.codec.pix_fmt">yuv420p</property>
  <property name="meta.media.0.codec.sample_aspect_ratio">1</property>
  <property name="meta.media.0.codec.colorspace">709</property>
  <property name="meta.media.0.codec.color_trc">1</property>
  <property name="meta.media.0.codec.name">h264</property>
  <property name="meta.media.0.codec.long_name">H.264 / AVC / MPEG-4 AVC / MPEG-4 part 10</property>
  <property name="meta.media.0.codec.bit_rate">0</property>
  <property name="meta.attr.0.stream.HANDLER_NAME.markup">ISO Media file produced by Google Inc.</property>
  <property name="meta.attr.0.stream.VENDOR_ID.markup">[0][0][0][0]</property>
  <property name="meta.attr.0.stream.DURATION.markup">00:03:00.880000000</property>
  <property name="meta.media.1.stream.type">audio</property>
  <property name="meta.media.1.codec.sample_fmt">fltp</property>
  <property name="meta.media.1.codec.sample_rate">48000</property>
  <property name="meta.media.1.codec.channels">2</property>
  <property name="meta.media.1.codec.name">opus</property>
  <property name="meta.media.1.codec.long_name">Opus</property>
  <property name="meta.media.1.codec.bit_rate">0</property>
  <property name="meta.attr.1.stream.language.markup">eng</property>
  <property name="meta.attr.1.stream.DURATION.markup">00:03:00.901000000</property>
  <property name="meta.attr.COMPATIBLE_BRANDS.markup">iso6avc1mp41</property>
  <property name="meta.attr.MAJOR_BRAND.markup">dash</property>
  <property name="meta.attr.MINOR_VERSION.markup">0</property>
  <property name="meta.attr.ENCODER.markup">Lavf59.27.100</property>
  <property name="seekable">1</property>
  <property name="meta.media.sample_aspect_num">1</property>
  <property name="meta.media.sample_aspect_den">1</property>
  <property name="format">3</property>
  <property name="audio_index">-1</property>
  <property name="video_index">0</property>
  <property name="meta.media.frame_rate_num">25</property>
  <property name="meta.media.frame_rate_den">1</property>
  <property name="meta.media.colorspace">709</property>
  <property name="meta.media.color_trc">1</property>
  <property name="meta.media.has_b_frames">1</property>
  <property name="meta.media.width">1920</property>
  <property name="meta.media.height">1080</property>
  <property name="meta.media.color_range">mpeg</property>
  <property name="kdenlive:clipname"/>
  <property name="meta.media.top_field_first">0</property>
  <property name="meta.media.progressive">1</property>
  <property name="kdenlive:clip_type">0</property>
  <property name="kdenlive:folderid">14</property>
  <property name="kdenlive:id">488</property>
  <property name="kdenlive:file_size">66973404</property>
  <property name="kdenlive:file_hash">57849ca9b78a327606250e77554f88d3</property>
  <property name="kdenlive:audio_max1">227</property>
  <property name="kdenlive:active_streams">-1</property>
  <property name="set.test_audio">1</property>
  <property name="mute_on_pause">1</property>
 </chain>
 <producer id="producer341" in="00:00:00.000" out="00:00:10.840">
  <property name="length">272</property>
  <property name="eof">pause</property>
  <property name="resource">citations/citations-lightouse.png</property>
  <property name="ttl">25</property>
  <property name="aspect_ratio">1</property>
  <property name="progressive">1</property>
  <property name="seekable">1</property>
  <property name="format">2</property>
  <property name="meta.media.width">1920</property>
  <property name="meta.media.height">1080</property>
  <property name="mlt_service">qimage</property>
  <property name="kdenlive:clipname"/>
  <property name="kdenlive:duration">00:00:05:00</property>
  <property name="kdenlive:folderid">234</property>
  <property name="kdenlive:id">489</property>
  <property name="kdenlive:clip_type">2</property>
  <property name="kdenlive:file_size">32496</property>
  <property name="kdenlive:file_hash">00a9a58b7247540bb45beafba95c02fe</property>
 </producer>
 <chain id="chain374" out="00:01:45.400">
  <property name="length">2636</property>
  <property name="eof">pause</property>
  <property name="resource">animation/output/efficient-vs-inefficient.mp4</property>
  <property name="mlt_service">avformat-novalidate</property>
  <property name="meta.media.nb_streams">1</property>
  <property name="meta.media.0.stream.type">video</property>
  <property name="meta.media.0.stream.frame_rate">60</property>
  <property name="meta.media.0.stream.sample_aspect_ratio">0</property>
  <property name="meta.media.0.codec.width">1920</property>
  <property name="meta.media.0.codec.height">1080</property>
  <property name="meta.media.0.codec.rotate">0</property>
  <property name="meta.media.0.codec.pix_fmt">yuv420p</property>
  <property name="meta.media.0.codec.sample_aspect_ratio">0</property>
  <property name="meta.media.0.codec.colorspace">709</property>
  <property name="meta.media.0.codec.name">h264</property>
  <property name="meta.media.0.codec.long_name">H.264 / AVC / MPEG-4 AVC / MPEG-4 part 10</property>
  <property name="meta.media.0.codec.bit_rate">1050365</property>
  <property name="meta.attr.0.stream.handler_name.markup">VideoHandler</property>
  <property name="meta.attr.0.stream.vendor_id.markup">[0][0][0][0]</property>
  <property name="meta.attr.major_brand.markup">isom</property>
  <property name="meta.attr.minor_version.markup">512</property>
  <property name="meta.attr.compatible_brands.markup">isomiso2avc1mp41</property>
  <property name="meta.attr.encoder.markup">Lavf58.24.100</property>
  <property name="seekable">1</property>
  <property name="meta.media.sample_aspect_num">1</property>
  <property name="meta.media.sample_aspect_den">1</property>
  <property name="format">3</property>
  <property name="audio_index">-1</property>
  <property name="video_index">0</property>
  <property name="meta.media.frame_rate_num">60</property>
  <property name="meta.media.frame_rate_den">1</property>
  <property name="meta.media.colorspace">709</property>
  <property name="meta.media.color_trc">2</property>
  <property name="meta.media.has_b_frames">2</property>
  <property name="meta.media.width">1920</property>
  <property name="meta.media.height">1080</property>
  <property name="meta.media.color_range">mpeg</property>
  <property name="kdenlive:clipname"/>
  <property name="kdenlive:clip_type">2</property>
  <property name="kdenlive:folderid">218</property>
  <property name="kdenlive:id">490</property>
  <property name="kdenlive:file_size">13916333</property>
  <property name="kdenlive:file_hash">c89fef2b8f4f93ea0d4632d119675bb2</property>
  <property name="meta.media.top_field_first">0</property>
  <property name="meta.media.progressive">1</property>
  <property name="mute_on_pause">1</property>
 </chain>
 <chain id="chain233" out="00:00:40.040">
  <property name="length">1002</property>
  <property name="eof">pause</property>
  <property name="resource">/home/liquidzulu/Videos/yt/b-roll/There's no way Tolkien was speaking English here [r8bfVPlgPJc].webm</property>
  <property name="mlt_service">avformat-novalidate</property>
  <property name="meta.media.nb_streams">2</property>
  <property name="meta.media.0.stream.type">video</property>
  <property name="meta.media.0.stream.frame_rate">30</property>
  <property name="meta.media.0.stream.sample_aspect_ratio">1</property>
  <property name="meta.media.0.codec.width">1480</property>
  <property name="meta.media.0.codec.height">1080</property>
  <property name="meta.media.0.codec.rotate">0</property>
  <property name="meta.media.0.codec.pix_fmt">yuv420p</property>
  <property name="meta.media.0.codec.sample_aspect_ratio">0</property>
  <property name="meta.media.0.codec.colorspace">601</property>
  <property name="meta.media.0.codec.color_trc">1</property>
  <property name="meta.media.0.codec.name">vp9</property>
  <property name="meta.media.0.codec.long_name">Google VP9</property>
  <property name="meta.media.0.codec.bit_rate">0</property>
  <property name="meta.attr.0.stream.language.markup">eng</property>
  <property name="meta.attr.0.stream.DURATION.markup">00:00:40.033000000</property>
  <property name="meta.media.1.stream.type">audio</property>
  <property name="meta.media.1.codec.sample_fmt">fltp</property>
  <property name="meta.media.1.codec.sample_rate">48000</property>
  <property name="meta.media.1.codec.channels">2</property>
  <property name="meta.media.1.codec.name">opus</property>
  <property name="meta.media.1.codec.long_name">Opus</property>
  <property name="meta.media.1.codec.bit_rate">0</property>
  <property name="meta.attr.1.stream.language.markup">eng</property>
  <property name="meta.attr.1.stream.DURATION.markup">00:00:40.061000000</property>
  <property name="meta.attr.ENCODER.markup">Lavf59.27.100</property>
  <property name="seekable">1</property>
  <property name="meta.media.sample_aspect_num">1</property>
  <property name="meta.media.sample_aspect_den">1</property>
  <property name="format">3</property>
  <property name="audio_index">-1</property>
  <property name="video_index">0</property>
  <property name="meta.media.frame_rate_num">30</property>
  <property name="meta.media.frame_rate_den">1</property>
  <property name="meta.media.colorspace">601</property>
  <property name="meta.media.color_trc">1</property>
  <property name="meta.media.has_b_frames">0</property>
  <property name="meta.media.width">1480</property>
  <property name="meta.media.height">1080</property>
  <property name="meta.media.color_range">mpeg</property>
  <property name="kdenlive:clipname"/>
  <property name="meta.media.top_field_first">0</property>
  <property name="meta.media.progressive">1</property>
  <property name="kdenlive:clip_type">0</property>
  <property name="kdenlive:folderid">14</property>
  <property name="kdenlive:id">491</property>
  <property name="kdenlive:file_size">5275136</property>
  <property name="kdenlive:file_hash">dc351242091a30022697b3951a3085f8</property>
  <property name="kdenlive:audio_max1">156</property>
  <property name="kdenlive:active_streams">-1</property>
  <property name="set.test_audio">1</property>
  <property name="mute_on_pause">1</property>
 </chain>
 <producer id="producer352" in="00:00:00.000" out="00:00:14.440">
  <property name="length">362</property>
  <property name="eof">pause</property>
  <property name="resource">citations/citations-tolkien.png</property>
  <property name="ttl">25</property>
  <property name="aspect_ratio">1</property>
  <property name="progressive">1</property>
  <property name="seekable">1</property>
  <property name="format">2</property>
  <property name="meta.media.width">1920</property>
  <property name="meta.media.height">1080</property>
  <property name="mlt_service">qimage</property>
  <property name="kdenlive:clipname"/>
  <property name="kdenlive:duration">00:00:05:00</property>
  <property name="kdenlive:folderid">234</property>
  <property name="kdenlive:id">492</property>
  <property name="kdenlive:clip_type">2</property>
  <property name="kdenlive:file_size">26623</property>
  <property name="kdenlive:file_hash">b7d6c31d2668b19107feececc6f67190</property>
 </producer>
 <chain id="chain234" out="00:04:41.080">
  <property name="length">7028</property>
  <property name="eof">pause</property>
  <property name="resource">/home/liquidzulu/Videos/yt/b-roll/Introduction to Consumer Choice [oG_R1jQPqTc].webm</property>
  <property name="mlt_service">avformat-novalidate</property>
  <property name="meta.media.nb_streams">2</property>
  <property name="meta.media.0.stream.type">video</property>
  <property name="meta.media.0.stream.frame_rate">23.976</property>
  <property name="meta.media.0.stream.sample_aspect_ratio">1</property>
  <property name="meta.media.0.codec.width">1920</property>
  <property name="meta.media.0.codec.height">1080</property>
  <property name="meta.media.0.codec.rotate">0</property>
  <property name="meta.media.0.codec.pix_fmt">yuv420p</property>
  <property name="meta.media.0.codec.sample_aspect_ratio">0</property>
  <property name="meta.media.0.codec.colorspace">709</property>
  <property name="meta.media.0.codec.color_trc">1</property>
  <property name="meta.media.0.codec.name">vp9</property>
  <property name="meta.media.0.codec.long_name">Google VP9</property>
  <property name="meta.media.0.codec.bit_rate">0</property>
  <property name="meta.attr.0.stream.language.markup">eng</property>
  <property name="meta.attr.0.stream.DURATION.markup">00:04:41.072000000</property>
  <property name="meta.media.1.stream.type">audio</property>
  <property name="meta.media.1.codec.sample_fmt">fltp</property>
  <property name="meta.media.1.codec.sample_rate">48000</property>
  <property name="meta.media.1.codec.channels">2</property>
  <property name="meta.media.1.codec.name">opus</property>
  <property name="meta.media.1.codec.long_name">Opus</property>
  <property name="meta.media.1.codec.bit_rate">0</property>
  <property name="meta.attr.1.stream.language.markup">eng</property>
  <property name="meta.attr.1.stream.DURATION.markup">00:04:41.101000000</property>
  <property name="meta.attr.ENCODER.markup">Lavf59.27.100</property>
  <property name="seekable">1</property>
  <property name="meta.media.sample_aspect_num">1</property>
  <property name="meta.media.sample_aspect_den">1</property>
  <property name="format">3</property>
  <property name="audio_index">-1</property>
  <property name="video_index">0</property>
  <property name="meta.media.frame_rate_num">24000</property>
  <property name="meta.media.frame_rate_den">1001</property>
  <property name="meta.media.colorspace">709</property>
  <property name="meta.media.color_trc">1</property>
  <property name="meta.media.has_b_frames">0</property>
  <property name="meta.media.width">1920</property>
  <property name="meta.media.height">1080</property>
  <property name="meta.media.color_range">mpeg</property>
  <property name="kdenlive:clipname"/>
  <property name="meta.media.top_field_first">0</property>
  <property name="meta.media.progressive">1</property>
  <property name="kdenlive:clip_type">0</property>
  <property name="kdenlive:folderid">14</property>
  <property name="kdenlive:id">493</property>
  <property name="kdenlive:file_size">35979671</property>
  <property name="kdenlive:file_hash">c4027f5546ef85b161b3fc692c72f6aa</property>
  <property name="kdenlive:audio_max1">223</property>
  <property name="kdenlive:active_streams">-1</property>
  <property name="set.test_audio">1</property>
  <property name="mute_on_pause">1</property>
 </chain>
 <producer id="producer353" in="00:00:00.000" out="00:00:04.960">
  <property name="length">00:00:05.000</property>
  <property name="eof">pause</property>
  <property name="resource">citations/citations-choice.png</property>
  <property name="ttl">25</property>
  <property name="aspect_ratio">1</property>
  <property name="progressive">1</property>
  <property name="seekable">1</property>
  <property name="format">2</property>
  <property name="meta.media.width">1920</property>
  <property name="meta.media.height">1080</property>
  <property name="mlt_service">qimage</property>
  <property name="kdenlive:clipname"/>
  <property name="kdenlive:duration">00:00:05:00</property>
  <property name="kdenlive:folderid">234</property>
  <property name="kdenlive:id">494</property>
  <property name="kdenlive:clip_type">2</property>
  <property name="kdenlive:file_size">27526</property>
  <property name="kdenlive:file_hash">4a0a1680635a6df4bec515dbf420c475</property>
 </producer>
 <chain id="chain235" out="00:08:53.840">
  <property name="length">13347</property>
  <property name="eof">pause</property>
  <property name="resource">b-roll/Cubism in 9 Minutesï¼š Art Movement by Pablo Picasso Explained [IF-nmwm7-Bg].webm</property>
  <property name="mlt_service">avformat-novalidate</property>
  <property name="meta.media.nb_streams">2</property>
  <property name="meta.media.0.stream.type">video</property>
  <property name="meta.media.0.stream.frame_rate">25</property>
  <property name="meta.media.0.stream.sample_aspect_ratio">1</property>
  <property name="meta.media.0.codec.width">1920</property>
  <property name="meta.media.0.codec.height">1080</property>
  <property name="meta.media.0.codec.rotate">0</property>
  <property name="meta.media.0.codec.pix_fmt">yuv420p</property>
  <property name="meta.media.0.codec.sample_aspect_ratio">0</property>
  <property name="meta.media.0.codec.colorspace">709</property>
  <property name="meta.media.0.codec.color_trc">1</property>
  <property name="meta.media.0.codec.name">vp9</property>
  <property name="meta.media.0.codec.long_name">Google VP9</property>
  <property name="meta.media.0.codec.bit_rate">0</property>
  <property name="meta.attr.0.stream.language.markup">eng</property>
  <property name="meta.attr.0.stream.DURATION.markup">00:08:53.840000000</property>
  <property name="meta.media.1.stream.type">audio</property>
  <property name="meta.media.1.codec.sample_fmt">fltp</property>
  <property name="meta.media.1.codec.sample_rate">48000</property>
  <property name="meta.media.1.codec.channels">2</property>
  <property name="meta.media.1.codec.name">opus</property>
  <property name="meta.media.1.codec.long_name">Opus</property>
  <property name="meta.media.1.codec.bit_rate">0</property>
  <property name="meta.attr.1.stream.language.markup">rus</property>
  <property name="meta.attr.1.stream.DURATION.markup">00:08:53.861000000</property>
  <property name="meta.attr.ENCODER.markup">Lavf59.27.100</property>
  <property name="seekable">1</property>
  <property name="meta.media.sample_aspect_num">1</property>
  <property name="meta.media.sample_aspect_den">1</property>
  <property name="format">3</property>
  <property name="audio_index">-1</property>
  <property name="video_index">0</property>
  <property name="meta.media.frame_rate_num">25</property>
  <property name="meta.media.frame_rate_den">1</property>
  <property name="meta.media.colorspace">709</property>
  <property name="meta.media.color_trc">1</property>
  <property name="meta.media.has_b_frames">0</property>
  <property name="meta.media.width">1920</property>
  <property name="meta.media.height">1080</property>
  <property name="meta.media.color_range">mpeg</property>
  <property name="kdenlive:clipname"/>
  <property name="meta.media.top_field_first">0</property>
  <property name="meta.media.progressive">1</property>
  <property name="kdenlive:clip_type">0</property>
  <property name="kdenlive:folderid">14</property>
  <property name="kdenlive:id">495</property>
  <property name="kdenlive:file_size">91112315</property>
  <property name="kdenlive:file_hash">e8857a99a1d1a36abd2ddd3e2fe6f07b</property>
  <property name="kdenlive:active_streams">-1</property>
  <property name="set.test_audio">1</property>
  <property name="kdenlive:audio_max1">230</property>
  <property name="mute_on_pause">1</property>
 </chain>
 <producer id="producer354" in="00:00:00.000" out="00:00:08.920">
  <property name="length">224</property>
  <property name="eof">pause</property>
  <property name="resource">citations/citations-cubism.png</property>
  <property name="ttl">25</property>
  <property name="aspect_ratio">1</property>
  <property name="progressive">1</property>
  <property name="seekable">1</property>
  <property name="format">2</property>
  <property name="meta.media.width">1920</property>
  <property name="meta.media.height">1080</property>
  <property name="mlt_service">qimage</property>
  <property name="kdenlive:clipname"/>
  <property name="kdenlive:duration">00:00:05:00</property>
  <property name="kdenlive:folderid">234</property>
  <property name="kdenlive:id">496</property>
  <property name="kdenlive:clip_type">2</property>
  <property name="kdenlive:file_size">30381</property>
  <property name="kdenlive:file_hash">da7ac7172aaec7b29c927dfa06513854</property>
 </producer>
 <chain id="chain236" out="00:02:12.000">
  <property name="length">3301</property>
  <property name="eof">pause</property>
  <property name="resource">/home/liquidzulu/Music/lemmino/Siberian [885921691].flac</property>
  <property name="mlt_service">avformat</property>
  <property name="meta.media.nb_streams">1</property>
  <property name="meta.media.0.stream.type">audio</property>
  <property name="meta.media.0.codec.sample_fmt">s16</property>
  <property name="meta.media.0.codec.sample_rate">48000</property>
  <property name="meta.media.0.codec.channels">2</property>
  <property name="meta.media.0.codec.name">flac</property>
  <property name="meta.media.0.codec.long_name">FLAC (Free Lossless Audio Codec)</property>
  <property name="meta.media.0.codec.bit_rate">0</property>
  <property name="seekable">1</property>
  <property name="audio_index">0</property>
  <property name="video_index">-1</property>
  <property name="kdenlive:clipname"/>
  <property name="kdenlive:clip_type">1</property>
  <property name="kdenlive:folderid">5</property>
  <property name="kdenlive:id">497</property>
  <property name="kdenlive:file_size">10231273</property>
  <property name="kdenlive:file_hash">dbf7c55b6ecccb6ec15ec34e2b3c2621</property>
  <property name="kdenlive:audio_max0">236</property>
  <property name="mute_on_pause">1</property>
 </chain>
 <chain id="chain237" out="00:00:42.200">
  <property name="length">1056</property>
  <property name="eof">pause</property>
  <property name="resource">animation/output/solar-second-argument.mp4</property>
  <property name="mlt_service">avformat-novalidate</property>
  <property name="meta.media.nb_streams">1</property>
  <property name="meta.media.0.stream.type">video</property>
  <property name="meta.media.0.stream.frame_rate">60</property>
  <property name="meta.media.0.stream.sample_aspect_ratio">0</property>
  <property name="meta.media.0.codec.width">1920</property>
  <property name="meta.media.0.codec.height">1080</property>
  <property name="meta.media.0.codec.rotate">0</property>
  <property name="meta.media.0.codec.pix_fmt">yuv420p</property>
  <property name="meta.media.0.codec.sample_aspect_ratio">0</property>
  <property name="meta.media.0.codec.colorspace">709</property>
  <property name="meta.media.0.codec.name">h264</property>
  <property name="meta.media.0.codec.long_name">H.264 / AVC / MPEG-4 AVC / MPEG-4 part 10</property>
  <property name="meta.media.0.codec.bit_rate">240411</property>
  <property name="meta.attr.0.stream.handler_name.markup">VideoHandler</property>
  <property name="meta.attr.0.stream.vendor_id.markup">[0][0][0][0]</property>
  <property name="meta.attr.major_brand.markup">isom</property>
  <property name="meta.attr.minor_version.markup">512</property>
  <property name="meta.attr.compatible_brands.markup">isomiso2avc1mp41</property>
  <property name="meta.attr.encoder.markup">Lavf58.24.100</property>
  <property name="seekable">1</property>
  <property name="meta.media.sample_aspect_num">1</property>
  <property name="meta.media.sample_aspect_den">1</property>
  <property name="format">3</property>
  <property name="audio_index">-1</property>
  <property name="video_index">0</property>
  <property name="meta.media.frame_rate_num">60</property>
  <property name="meta.media.frame_rate_den">1</property>
  <property name="meta.media.colorspace">709</property>
  <property name="meta.media.color_trc">2</property>
  <property name="meta.media.has_b_frames">2</property>
  <property name="meta.media.width">1920</property>
  <property name="meta.media.height">1080</property>
  <property name="meta.media.color_range">mpeg</property>
  <property name="kdenlive:clipname"/>
  <property name="kdenlive:clip_type">2</property>
  <property name="kdenlive:folderid">218</property>
  <property name="kdenlive:id">498</property>
  <property name="kdenlive:file_size">1300712</property>
  <property name="kdenlive:file_hash">6b348136807bd0711b9e3e22d3563613</property>
  <property name="meta.media.top_field_first">0</property>
  <property name="meta.media.progressive">1</property>
  <property name="mute_on_pause">1</property>
 </chain>
 <producer id="producer394" in="00:00:00.000" out="00:00:08.640">
  <property name="length">217</property>
  <property name="eof">pause</property>
  <property name="resource">images/incorrect anatomy.xcf</property>
  <property name="ttl">25</property>
  <property name="aspect_ratio">1</property>
  <property name="progressive">1</property>
  <property name="seekable">1</property>
  <property name="format">2</property>
  <property name="meta.media.width">526</property>
  <property name="meta.media.height">730</property>
  <property name="mlt_service">qimage</property>
  <property name="kdenlive:clipname"/>
  <property name="kdenlive:duration">00:00:05:00</property>
  <property name="kdenlive:folderid">28</property>
  <property name="kdenlive:id">499</property>
  <property name="kdenlive:clip_type">2</property>
  <property name="kdenlive:file_size">1163486</property>
  <property name="kdenlive:file_hash">fd96b9645ef816ed8f7debc6a981ed25</property>
 </producer>
 <producer id="producer356" in="00:00:00.000" out="00:00:07.600">
  <property name="length">191</property>
  <property name="eof">pause</property>
  <property name="resource">images/signature.jpg</property>
  <property name="ttl">25</property>
  <property name="aspect_ratio">1</property>
  <property name="progressive">1</property>
  <property name="seekable">1</property>
  <property name="format">1</property>
  <property name="meta.media.width">612</property>
  <property name="meta.media.height">408</property>
  <property name="mlt_service">qimage</property>
  <property name="kdenlive:clipname"/>
  <property name="kdenlive:duration">00:00:05:00</property>
  <property name="kdenlive:folderid">28</property>
  <property name="kdenlive:id">500</property>
  <property name="kdenlive:clip_type">2</property>
  <property name="kdenlive:file_size">16204</property>
  <property name="kdenlive:file_hash">15be6951d7281424fa2dbf14bb4d2a3e</property>
 </producer>
 <producer id="producer395" in="00:00:00.000" out="00:00:07.200">
  <property name="length">181</property>
  <property name="eof">pause</property>
  <property name="resource">images/gravity.jpg</property>
  <property name="ttl">25</property>
  <property name="aspect_ratio">1</property>
  <property name="progressive">1</property>
  <property name="seekable">1</property>
  <property name="format">1</property>
  <property name="meta.media.width">474</property>
  <property name="meta.media.height">266</property>
  <property name="mlt_service">qimage</property>
  <property name="kdenlive:clipname"/>
  <property name="kdenlive:duration">00:00:05:00</property>
  <property name="kdenlive:folderid">28</property>
  <property name="kdenlive:id">501</property>
  <property name="kdenlive:clip_type">2</property>
  <property name="kdenlive:file_size">40880</property>
  <property name="kdenlive:file_hash">1bcfcfbc1d15eb9cab1366d14cbf36f1</property>
 </producer>
 <producer id="producer359" in="00:00:00.000" out="00:00:04.960">
  <property name="length">00:00:05.000</property>
  <property name="eof">pause</property>
  <property name="resource">images/man-vs-machine-hero.jpg</property>
  <property name="ttl">25</property>
  <property name="aspect_ratio">1</property>
  <property name="progressive">1</property>
  <property name="seekable">1</property>
  <property name="format">1</property>
  <property name="meta.media.width">1920</property>
  <property name="meta.media.height">1080</property>
  <property name="mlt_service">qimage</property>
  <property name="kdenlive:clipname"/>
  <property name="kdenlive:duration">00:00:05:00</property>
  <property name="kdenlive:folderid">28</property>
  <property name="kdenlive:id">502</property>
  <property name="kdenlive:clip_type">2</property>
  <property name="kdenlive:file_size">366139</property>
  <property name="kdenlive:file_hash">34a84a64f69e49698b9d60efd35d5c8a</property>
 </producer>
 <producer id="producer360" in="00:00:00.000" out="00:00:13.240">
  <property name="length">332</property>
  <property name="eof">pause</property>
  <property name="progressive">1</property>
  <property name="aspect_ratio">1</property>
  <property name="seekable">1</property>
  <property name="mlt_service">kdenlivetitle</property>
  <property name="kdenlive:duration">00:00:05:00</property>
  <property name="kdenlive:clipname">bad referenc...</property>
  <property name="xmldata">&lt;kdenlivetitle duration="125" LC_NUMERIC="C" width="1920" height="1080" out="124">
 &lt;item type="QGraphicsTextItem" z-index="0">
  &lt;position x="457" y="257">
   &lt;transform>1,0,0,0,1,0,0,0,1&lt;/transform>
  &lt;/position>
  &lt;content line-spacing="0" shadow="0;#64000000;3;3;3" font-underline="0" box-height="565" font="Cubano" letter-spacing="0" font-pixel-size="94" font-italic="0" typewriter="0;2;1;0;0" alignment="4" font-weight="50" box-width="1005.31" font-color="255,255,255,255">bad referencing:

when the referencer
doesn't understand
some law of nature&lt;/content>
 &lt;/item>
 &lt;startviewport rect="0,0,1920,1080"/>
 &lt;endviewport rect="0,0,1920,1080"/>
 &lt;background color="0,0,0,0"/>
&lt;/kdenlivetitle>
</property>
  <property name="kdenlive:folderid">21</property>
  <property name="kdenlive:id">503</property>
  <property name="kdenlive:clip_type">2</property>
  <property name="force_reload">0</property>
  <property name="meta.media.width">1920</property>
  <property name="meta.media.height">1080</property>
  <property name="kdenlive:file_hash">e5f8e02ecc052fc2973cd9d9a85e2ff0</property>
 </producer>
 <chain id="chain238" out="00:13:18.080">
  <property name="length">19953</property>
  <property name="eof">pause</property>
  <property name="resource">b-roll/Sculpting SHREK Diorama ï½œ Timelapse [z9w-Uw8Xh5k].webm</property>
  <property name="mlt_service">avformat-novalidate</property>
  <property name="meta.media.nb_streams">2</property>
  <property name="meta.media.0.stream.type">video</property>
  <property name="meta.media.0.stream.frame_rate">60</property>
  <property name="meta.media.0.stream.sample_aspect_ratio">1</property>
  <property name="meta.media.0.codec.width">1920</property>
  <property name="meta.media.0.codec.height">1080</property>
  <property name="meta.media.0.codec.rotate">0</property>
  <property name="meta.media.0.codec.pix_fmt">yuv420p</property>
  <property name="meta.media.0.codec.sample_aspect_ratio">0</property>
  <property name="meta.media.0.codec.colorspace">709</property>
  <property name="meta.media.0.codec.color_trc">1</property>
  <property name="meta.media.0.codec.name">vp9</property>
  <property name="meta.media.0.codec.long_name">Google VP9</property>
  <property name="meta.media.0.codec.bit_rate">0</property>
  <property name="meta.attr.0.stream.language.markup">eng</property>
  <property name="meta.attr.0.stream.DURATION.markup">00:13:18.066000000</property>
  <property name="meta.media.1.stream.type">audio</property>
  <property name="meta.media.1.codec.sample_fmt">fltp</property>
  <property name="meta.media.1.codec.sample_rate">48000</property>
  <property name="meta.media.1.codec.channels">2</property>
  <property name="meta.media.1.codec.name">opus</property>
  <property name="meta.media.1.codec.long_name">Opus</property>
  <property name="meta.media.1.codec.bit_rate">0</property>
  <property name="meta.attr.1.stream.language.markup">eng</property>
  <property name="meta.attr.1.stream.DURATION.markup">00:13:18.101000000</property>
  <property name="meta.attr.ENCODER.markup">Lavf59.27.100</property>
  <property name="seekable">1</property>
  <property name="meta.media.sample_aspect_num">1</property>
  <property name="meta.media.sample_aspect_den">1</property>
  <property name="format">3</property>
  <property name="audio_index">-1</property>
  <property name="video_index">0</property>
  <property name="meta.media.frame_rate_num">60</property>
  <property name="meta.media.frame_rate_den">1</property>
  <property name="meta.media.colorspace">709</property>
  <property name="meta.media.color_trc">1</property>
  <property name="meta.media.has_b_frames">0</property>
  <property name="meta.media.width">1920</property>
  <property name="meta.media.height">1080</property>
  <property name="meta.media.color_range">mpeg</property>
  <property name="kdenlive:clipname"/>
  <property name="meta.media.top_field_first">0</property>
  <property name="meta.media.progressive">1</property>
  <property name="kdenlive:clip_type">0</property>
  <property name="kdenlive:folderid">14</property>
  <property name="kdenlive:id">504</property>
  <property name="kdenlive:file_size">121466059</property>
  <property name="kdenlive:file_hash">aa38b637ec3a359a80d637d98c1b40f9</property>
  <property name="kdenlive:active_streams">-1</property>
  <property name="set.test_audio">1</property>
  <property name="kdenlive:audio_max1">208</property>
  <property name="mute_on_pause">1</property>
 </chain>
 <producer id="producer362" in="00:00:00.000" out="00:00:16.040">
  <property name="length">402</property>
  <property name="eof">pause</property>
  <property name="resource">citations/citations-shrek.png</property>
  <property name="ttl">25</property>
  <property name="aspect_ratio">1</property>
  <property name="progressive">1</property>
  <property name="seekable">1</property>
  <property name="format">2</property>
  <property name="meta.media.width">1920</property>
  <property name="meta.media.height">1080</property>
  <property name="mlt_service">qimage</property>
  <property name="kdenlive:clipname"/>
  <property name="kdenlive:duration">00:00:05:00</property>
  <property name="kdenlive:folderid">234</property>
  <property name="kdenlive:id">505</property>
  <property name="kdenlive:clip_type">2</property>
  <property name="kdenlive:file_size">26562</property>
  <property name="kdenlive:file_hash">25255aaf33b6807820707c491dffa138</property>
 </producer>
 <chain id="chain239" out="00:00:10.240">
  <property name="length">257</property>
  <property name="eof">pause</property>
  <property name="resource">animation/output/perceptually-given-laws/perceptually-given-laws.mp4</property>
  <property name="mlt_service">avformat-novalidate</property>
  <property name="meta.media.nb_streams">2</property>
  <property name="meta.media.0.stream.type">video</property>
  <property name="meta.media.0.stream.frame_rate">25</property>
  <property name="meta.media.0.stream.sample_aspect_ratio">1</property>
  <property name="meta.media.0.codec.width">1920</property>
  <property name="meta.media.0.codec.height">1080</property>
  <property name="meta.media.0.codec.rotate">0</property>
  <property name="meta.media.0.codec.pix_fmt">yuv420p</property>
  <property name="meta.media.0.codec.sample_aspect_ratio">1</property>
  <property name="meta.media.0.codec.colorspace">709</property>
  <property name="meta.media.0.codec.color_trc">1</property>
  <property name="meta.media.0.codec.name">h264</property>
  <property name="meta.media.0.codec.long_name">H.264 / AVC / MPEG-4 AVC / MPEG-4 part 10</property>
  <property name="meta.media.0.codec.bit_rate">1575885</property>
  <property name="meta.attr.0.stream.handler_name.markup">VideoHandler</property>
  <property name="meta.attr.0.stream.vendor_id.markup">[0][0][0][0]</property>
  <property name="meta.media.1.stream.type">audio</property>
  <property name="meta.media.1.codec.sample_fmt">fltp</property>
  <property name="meta.media.1.codec.sample_rate">48000</property>
  <property name="meta.media.1.codec.channels">2</property>
  <property name="meta.media.1.codec.name">aac</property>
  <property name="meta.media.1.codec.long_name">AAC (Advanced Audio Coding)</property>
  <property name="meta.media.1.codec.bit_rate">2276</property>
  <property name="meta.attr.1.stream.handler_name.markup">SoundHandler</property>
  <property name="meta.attr.1.stream.vendor_id.markup">[0][0][0][0]</property>
  <property name="meta.attr.major_brand.markup">isom</property>
  <property name="meta.attr.minor_version.markup">512</property>
  <property name="meta.attr.compatible_brands.markup">isomiso2avc1mp41</property>
  <property name="meta.attr.encoder.markup">Lavf59.27.100</property>
  <property name="seekable">1</property>
  <property name="meta.media.sample_aspect_num">1</property>
  <property name="meta.media.sample_aspect_den">1</property>
  <property name="format">3</property>
  <property name="audio_index">-1</property>
  <property name="video_index">0</property>
  <property name="meta.media.frame_rate_num">25</property>
  <property name="meta.media.frame_rate_den">1</property>
  <property name="meta.media.colorspace">709</property>
  <property name="meta.media.color_trc">1</property>
  <property name="meta.media.has_b_frames">2</property>
  <property name="meta.media.width">1920</property>
  <property name="meta.media.height">1080</property>
  <property name="meta.media.color_range">mpeg</property>
  <property name="kdenlive:clipname"/>
  <property name="meta.media.top_field_first">0</property>
  <property name="meta.media.progressive">1</property>
  <property name="kdenlive:clip_type">0</property>
  <property name="kdenlive:folderid">218</property>
  <property name="kdenlive:id">506</property>
  <property name="kdenlive:file_size">2037267</property>
  <property name="kdenlive:file_hash">73de05d7e841d9ed5c734b969a066391</property>
  <property name="kdenlive:audio_max1">1</property>
  <property name="kdenlive:active_streams">-1</property>
  <property name="set.test_audio">1</property>
  <property name="mute_on_pause">1</property>
 </chain>
 <chain id="chain240" out="00:02:42.680">
  <property name="length">4068</property>
  <property name="eof">pause</property>
  <property name="resource">/home/liquidzulu/Videos/yt/b-roll/Galaxy Quest (3â§¸9) Movie CLIP - Probed By Aliens (1999) HD [n8mK-A_0viA].webm</property>
  <property name="mlt_service">avformat-novalidate</property>
  <property name="meta.media.nb_streams">2</property>
  <property name="meta.media.0.stream.type">video</property>
  <property name="meta.media.0.stream.frame_rate">23.976</property>
  <property name="meta.media.0.stream.sample_aspect_ratio">1</property>
  <property name="meta.media.0.codec.width">1280</property>
  <property name="meta.media.0.codec.height">720</property>
  <property name="meta.media.0.codec.rotate">0</property>
  <property name="meta.media.0.codec.pix_fmt">yuv420p</property>
  <property name="meta.media.0.codec.sample_aspect_ratio">0</property>
  <property name="meta.media.0.codec.colorspace">709</property>
  <property name="meta.media.0.codec.color_trc">1</property>
  <property name="meta.media.0.codec.name">vp9</property>
  <property name="meta.media.0.codec.long_name">Google VP9</property>
  <property name="meta.media.0.codec.bit_rate">0</property>
  <property name="meta.attr.0.stream.language.markup">eng</property>
  <property name="meta.attr.0.stream.DURATION.markup">00:02:42.662000000</property>
  <property name="meta.media.1.stream.type">audio</property>
  <property name="meta.media.1.codec.sample_fmt">fltp</property>
  <property name="meta.media.1.codec.sample_rate">48000</property>
  <property name="meta.media.1.codec.channels">2</property>
  <property name="meta.media.1.codec.name">opus</property>
  <property name="meta.media.1.codec.long_name">Opus</property>
  <property name="meta.media.1.codec.bit_rate">0</property>
  <property name="meta.attr.1.stream.language.markup">eng</property>
  <property name="meta.attr.1.stream.DURATION.markup">00:02:42.701000000</property>
  <property name="meta.attr.ENCODER.markup">Lavf59.27.100</property>
  <property name="seekable">1</property>
  <property name="meta.media.sample_aspect_num">1</property>
  <property name="meta.media.sample_aspect_den">1</property>
  <property name="format">3</property>
  <property name="audio_index">-1</property>
  <property name="video_index">0</property>
  <property name="meta.media.frame_rate_num">24000</property>
  <property name="meta.media.frame_rate_den">1001</property>
  <property name="meta.media.colorspace">709</property>
  <property name="meta.media.color_trc">1</property>
  <property name="meta.media.has_b_frames">0</property>
  <property name="meta.media.width">1280</property>
  <property name="meta.media.height">720</property>
  <property name="meta.media.color_range">mpeg</property>
  <property name="kdenlive:clipname"/>
  <property name="meta.media.top_field_first">0</property>
  <property name="meta.media.progressive">1</property>
  <property name="kdenlive:clip_type">0</property>
  <property name="kdenlive:folderid">14</property>
  <property name="kdenlive:id">507</property>
  <property name="kdenlive:file_size">12234042</property>
  <property name="kdenlive:file_hash">1c23563d0290a38a50433fa8fb194264</property>
  <property name="kdenlive:audio_max1">232</property>
  <property name="kdenlive:active_streams">-1</property>
  <property name="set.test_audio">1</property>
  <property name="mute_on_pause">1</property>
 </chain>
 <producer id="producer363" in="00:00:00.000" out="00:00:13.120">
  <property name="length">329</property>
  <property name="eof">pause</property>
  <property name="resource">citations/citations-alien.png</property>
  <property name="ttl">25</property>
  <property name="aspect_ratio">1</property>
  <property name="progressive">1</property>
  <property name="seekable">1</property>
  <property name="format">2</property>
  <property name="meta.media.width">1920</property>
  <property name="meta.media.height">1080</property>
  <property name="mlt_service">qimage</property>
  <property name="kdenlive:clipname"/>
  <property name="kdenlive:duration">00:00:05:00</property>
  <property name="kdenlive:folderid">234</property>
  <property name="kdenlive:id">508</property>
  <property name="kdenlive:clip_type">2</property>
  <property name="kdenlive:file_size">34548</property>
  <property name="kdenlive:file_hash">adb5f7417421b3918a417a529893a749</property>
 </producer>
 <chain id="chain241" out="00:02:39.720">
  <property name="length">3994</property>
  <property name="eof">pause</property>
  <property name="resource">/home/liquidzulu/Videos/yt/b-roll/A Blind Person's Perspective of Colors [59YN8_lg6-U].webm</property>
  <property name="mlt_service">avformat-novalidate</property>
  <property name="meta.media.nb_streams">2</property>
  <property name="meta.media.0.stream.type">video</property>
  <property name="meta.media.0.stream.frame_rate">29.97</property>
  <property name="meta.media.0.stream.sample_aspect_ratio">1</property>
  <property name="meta.media.0.codec.width">1280</property>
  <property name="meta.media.0.codec.height">720</property>
  <property name="meta.media.0.codec.rotate">0</property>
  <property name="meta.media.0.codec.pix_fmt">yuv420p</property>
  <property name="meta.media.0.codec.sample_aspect_ratio">0</property>
  <property name="meta.media.0.codec.colorspace">709</property>
  <property name="meta.media.0.codec.color_trc">1</property>
  <property name="meta.media.0.codec.name">vp9</property>
  <property name="meta.media.0.codec.long_name">Google VP9</property>
  <property name="meta.media.0.codec.bit_rate">0</property>
  <property name="meta.attr.0.stream.language.markup">eng</property>
  <property name="meta.attr.0.stream.DURATION.markup">00:02:39.726000000</property>
  <property name="meta.media.1.stream.type">audio</property>
  <property name="meta.media.1.codec.sample_fmt">fltp</property>
  <property name="meta.media.1.codec.sample_rate">48000</property>
  <property name="meta.media.1.codec.channels">2</property>
  <property name="meta.media.1.codec.name">opus</property>
  <property name="meta.media.1.codec.long_name">Opus</property>
  <property name="meta.media.1.codec.bit_rate">0</property>
  <property name="meta.attr.1.stream.language.markup">eng</property>
  <property name="meta.attr.1.stream.DURATION.markup">00:02:39.741000000</property>
  <property name="meta.attr.ENCODER.markup">Lavf59.27.100</property>
  <property name="seekable">1</property>
  <property name="meta.media.sample_aspect_num">1</property>
  <property name="meta.media.sample_aspect_den">1</property>
  <property name="format">3</property>
  <property name="audio_index">1</property>
  <property name="video_index">0</property>
  <property name="meta.media.frame_rate_num">30000</property>
  <property name="meta.media.frame_rate_den">1001</property>
  <property name="meta.media.colorspace">709</property>
  <property name="meta.media.color_trc">1</property>
  <property name="meta.media.has_b_frames">0</property>
  <property name="meta.media.width">1280</property>
  <property name="meta.media.height">720</property>
  <property name="meta.media.color_range">mpeg</property>
  <property name="kdenlive:clipname"/>
  <property name="meta.media.top_field_first">0</property>
  <property name="meta.media.progressive">1</property>
  <property name="kdenlive:clip_type">0</property>
  <property name="kdenlive:folderid">14</property>
  <property name="kdenlive:id">509</property>
  <property name="kdenlive:file_size">8252806</property>
  <property name="kdenlive:file_hash">ffe61440d9965edc2fdf9622c66567a0</property>
  <property name="kdenlive:audio_max1">218</property>
  <property name="mute_on_pause">1</property>
 </chain>
 <producer id="producer364" in="00:00:00.000" out="00:00:14.080">
  <property name="length">353</property>
  <property name="eof">pause</property>
  <property name="resource">citations/citations-blind.png</property>
  <property name="ttl">25</property>
  <property name="aspect_ratio">1</property>
  <property name="progressive">1</property>
  <property name="seekable">1</property>
  <property name="format">2</property>
  <property name="meta.media.width">1920</property>
  <property name="meta.media.height">1080</property>
  <property name="mlt_service">qimage</property>
  <property name="kdenlive:clipname"/>
  <property name="kdenlive:duration">00:00:05:00</property>
  <property name="kdenlive:folderid">234</property>
  <property name="kdenlive:id">510</property>
  <property name="kdenlive:clip_type">2</property>
  <property name="kdenlive:file_size">27778</property>
  <property name="kdenlive:file_hash">2aff465e951d1680f8c7420d288d6cc2</property>
 </producer>
 <chain id="chain242" out="00:02:56.160">
  <property name="length">4405</property>
  <property name="eof">pause</property>
  <property name="resource">/home/liquidzulu/Music/lemmino/Firecracker [1573085953].flac</property>
  <property name="mlt_service">avformat</property>
  <property name="meta.media.nb_streams">1</property>
  <property name="meta.media.0.stream.type">audio</property>
  <property name="meta.media.0.codec.sample_fmt">s16</property>
  <property name="meta.media.0.codec.sample_rate">48000</property>
  <property name="meta.media.0.codec.channels">2</property>
  <property name="meta.media.0.codec.name">flac</property>
  <property name="meta.media.0.codec.long_name">FLAC (Free Lossless Audio Codec)</property>
  <property name="meta.media.0.codec.bit_rate">0</property>
  <property name="meta.attr.ENCODER.markup">FL Studio</property>
  <property name="seekable">1</property>
  <property name="audio_index">0</property>
  <property name="video_index">-1</property>
  <property name="kdenlive:clipname"/>
  <property name="kdenlive:clip_type">1</property>
  <property name="kdenlive:folderid">5</property>
  <property name="kdenlive:id">511</property>
  <property name="kdenlive:file_size">15523680</property>
  <property name="kdenlive:file_hash">b8f5ea0fc9edb242661ef0182e041b4e</property>
  <property name="kdenlive:audio_max0">241</property>
  <property name="mute_on_pause">1</property>
 </chain>
 <chain id="chain243" out="00:09:40.280">
  <property name="length">14508</property>
  <property name="eof">pause</property>
  <property name="resource">b-roll/Come Draw with Me! Down Syndrome Art Tutorial [hXp_UDM0M7Y].mkv</property>
  <property name="mlt_service">avformat-novalidate</property>
  <property name="meta.media.nb_streams">2</property>
  <property name="meta.media.0.stream.type">video</property>
  <property name="meta.media.0.stream.frame_rate">29.97</property>
  <property name="meta.media.0.stream.sample_aspect_ratio">1</property>
  <property name="meta.media.0.codec.width">1920</property>
  <property name="meta.media.0.codec.height">1080</property>
  <property name="meta.media.0.codec.rotate">0</property>
  <property name="meta.media.0.codec.pix_fmt">yuv420p</property>
  <property name="meta.media.0.codec.sample_aspect_ratio">1</property>
  <property name="meta.media.0.codec.colorspace">709</property>
  <property name="meta.media.0.codec.color_trc">1</property>
  <property name="meta.media.0.codec.name">h264</property>
  <property name="meta.media.0.codec.long_name">H.264 / AVC / MPEG-4 AVC / MPEG-4 part 10</property>
  <property name="meta.media.0.codec.bit_rate">0</property>
  <property name="meta.attr.0.stream.HANDLER_NAME.markup">ISO Media file produced by Google Inc.</property>
  <property name="meta.attr.0.stream.VENDOR_ID.markup">[0][0][0][0]</property>
  <property name="meta.attr.0.stream.DURATION.markup">00:09:40.313000000</property>
  <property name="meta.media.1.stream.type">audio</property>
  <property name="meta.media.1.codec.sample_fmt">fltp</property>
  <property name="meta.media.1.codec.sample_rate">48000</property>
  <property name="meta.media.1.codec.channels">2</property>
  <property name="meta.media.1.codec.name">opus</property>
  <property name="meta.media.1.codec.long_name">Opus</property>
  <property name="meta.media.1.codec.bit_rate">0</property>
  <property name="meta.attr.1.stream.language.markup">eng</property>
  <property name="meta.attr.1.stream.DURATION.markup">00:09:40.321000000</property>
  <property name="meta.attr.COMPATIBLE_BRANDS.markup">iso6avc1mp41</property>
  <property name="meta.attr.MAJOR_BRAND.markup">dash</property>
  <property name="meta.attr.MINOR_VERSION.markup">0</property>
  <property name="meta.attr.ENCODER.markup">Lavf59.27.100</property>
  <property name="seekable">1</property>
  <property name="meta.media.sample_aspect_num">1</property>
  <property name="meta.media.sample_aspect_den">1</property>
  <property name="format">3</property>
  <property name="audio_index">-1</property>
  <property name="video_index">0</property>
  <property name="meta.media.frame_rate_num">30000</property>
  <property name="meta.media.frame_rate_den">1001</property>
  <property name="meta.media.colorspace">709</property>
  <property name="meta.media.color_trc">1</property>
  <property name="meta.media.has_b_frames">1</property>
  <property name="meta.media.width">1920</property>
  <property name="meta.media.height">1080</property>
  <property name="meta.media.color_range">mpeg</property>
  <property name="kdenlive:clipname"/>
  <property name="meta.media.top_field_first">0</property>
  <property name="meta.media.progressive">1</property>
  <property name="kdenlive:clip_type">0</property>
  <property name="kdenlive:folderid">14</property>
  <property name="kdenlive:id">512</property>
  <property name="kdenlive:file_size">152962354</property>
  <property name="kdenlive:file_hash">6e335502b556048c7fd98eb2c912a7d6</property>
  <property name="kdenlive:audio_max1">214</property>
  <property name="kdenlive:active_streams">-1</property>
  <property name="set.test_audio">1</property>
  <property name="mute_on_pause">1</property>
 </chain>
 <producer id="producer365" in="00:00:00.000" out="00:00:16.800">
  <property name="length">421</property>
  <property name="eof">pause</property>
  <property name="resource">citations/citations-mental-handicap.png</property>
  <property name="ttl">25</property>
  <property name="aspect_ratio">1</property>
  <property name="progressive">1</property>
  <property name="seekable">1</property>
  <property name="format">2</property>
  <property name="meta.media.width">1920</property>
  <property name="meta.media.height">1080</property>
  <property name="mlt_service">qimage</property>
  <property name="kdenlive:clipname"/>
  <property name="kdenlive:duration">00:00:05:00</property>
  <property name="kdenlive:folderid">234</property>
  <property name="kdenlive:id">513</property>
  <property name="kdenlive:clip_type">2</property>
  <property name="kdenlive:file_size">28831</property>
  <property name="kdenlive:file_hash">abcb77600453c789bd23a0ccc58d512b</property>
 </producer>
 <producer id="producer423" in="00:00:00.000" out="00:00:13.240">
  <property name="length">332</property>
  <property name="eof">pause</property>
  <property name="progressive">1</property>
  <property name="aspect_ratio">1</property>
  <property name="seekable">1</property>
  <property name="mlt_service">kdenlivetitle</property>
  <property name="kdenlive:duration">00:00:05:00</property>
  <property name="kdenlive:clipname">note: I am n...</property>
  <property name="xmldata">&lt;kdenlivetitle duration="125" LC_NUMERIC="C" width="1920" height="1080" out="124">
 &lt;item type="QGraphicsTextItem" z-index="0">
  &lt;position x="112" y="20">
   &lt;transform>1,0,0,0,1,0,0,0,1&lt;/transform>
  &lt;/position>
  &lt;content line-spacing="0" shadow="0;#64000000;3;3;3" font-underline="0" box-height="98" font="Cubano" letter-spacing="0" font-pixel-size="41" font-italic="0" typewriter="0;2;1;0;0" alignment="4" font-weight="50" box-width="1696.53" font-color="163,163,163,255">note: I am not implying this about the individual in the b-roll, 
I do not know anything about them, and I am sure that they know what writing is.&lt;/content>
 &lt;/item>
 &lt;startviewport rect="0,0,1920,1080"/>
 &lt;endviewport rect="0,0,1920,1080"/>
 &lt;background color="0,0,0,0"/>
&lt;/kdenlivetitle>
</property>
  <property name="kdenlive:folderid">21</property>
  <property name="kdenlive:id">514</property>
  <property name="kdenlive:clip_type">2</property>
  <property name="force_reload">0</property>
  <property name="meta.media.width">1920</property>
  <property name="meta.media.height">1080</property>
  <property name="kdenlive:file_hash">475da304eacb1b2e341a9c403d49b7c2</property>
 </producer>
 <producer id="producer449" in="00:00:00.000" out="00:00:19.680">
  <property name="length">00:00:19.720</property>
  <property name="eof">pause</property>
  <property name="resource">/home/liquidzulu/Pictures/yt/animation/output/project/footnotes/footnote-23/.all.png</property>
  <property name="ttl">1</property>
  <property name="aspect_ratio">1</property>
  <property name="progressive">1</property>
  <property name="seekable">1</property>
  <property name="format">2</property>
  <property name="meta.media.width">1920</property>
  <property name="meta.media.height">1080</property>
  <property name="mlt_service">qimage</property>
  <property name="kdenlive:clipname">footnote-23</property>
  <property name="low-pass">0</property>
  <property name="animation"/>
  <property name="luma_file"/>
  <property name="luma_duration">25</property>
  <property name="fade">0</property>
  <property name="crop">0</property>
  <property name="softness">0</property>
  <property name="loop">0</property>
  <property name="kdenlive:duration">00:00:19:18</property>
  <property name="kdenlive:folderid">273</property>
  <property name="kdenlive:id">515</property>
  <property name="kdenlive:clip_type">2</property>
  <property name="kdenlive:file_hash">4795ab2d0b0d59f2ae20ce574939e81d</property>
 </producer>
 <chain id="chain244" out="00:30:54.920">
  <property name="length">46374</property>
  <property name="eof">pause</property>
  <property name="resource">/home/liquidzulu/Videos/yt/b-roll/What is it Like to be a Batï¼Ÿ - the hard problem of consciousness [aaZbCctlll4].webm</property>
  <property name="mlt_service">avformat-novalidate</property>
  <property name="meta.media.nb_streams">2</property>
  <property name="meta.media.0.stream.type">video</property>
  <property name="meta.media.0.stream.frame_rate">59.9401</property>
  <property name="meta.media.0.stream.sample_aspect_ratio">1</property>
  <property name="meta.media.0.codec.width">1280</property>
  <property name="meta.media.0.codec.height">720</property>
  <property name="meta.media.0.codec.rotate">0</property>
  <property name="meta.media.0.codec.pix_fmt">yuv420p</property>
  <property name="meta.media.0.codec.sample_aspect_ratio">0</property>
  <property name="meta.media.0.codec.colorspace">709</property>
  <property name="meta.media.0.codec.color_trc">1</property>
  <property name="meta.media.0.codec.name">vp9</property>
  <property name="meta.media.0.codec.long_name">Google VP9</property>
  <property name="meta.media.0.codec.bit_rate">0</property>
  <property name="meta.attr.0.stream.language.markup">eng</property>
  <property name="meta.attr.0.stream.DURATION.markup">00:30:54.936000000</property>
  <property name="meta.media.1.stream.type">audio</property>
  <property name="meta.media.1.codec.sample_fmt">fltp</property>
  <property name="meta.media.1.codec.sample_rate">48000</property>
  <property name="meta.media.1.codec.channels">2</property>
  <property name="meta.media.1.codec.name">opus</property>
  <property name="meta.media.1.codec.long_name">Opus</property>
  <property name="meta.media.1.codec.bit_rate">0</property>
  <property name="meta.attr.1.stream.language.markup">eng</property>
  <property name="meta.attr.1.stream.DURATION.markup">00:30:54.961000000</property>
  <property name="meta.attr.ENCODER.markup">Lavf59.27.100</property>
  <property name="seekable">1</property>
  <property name="meta.media.sample_aspect_num">1</property>
  <property name="meta.media.sample_aspect_den">1</property>
  <property name="format">3</property>
  <property name="audio_index">-1</property>
  <property name="video_index">0</property>
  <property name="meta.media.frame_rate_num">60000</property>
  <property name="meta.media.frame_rate_den">1001</property>
  <property name="meta.media.colorspace">709</property>
  <property name="meta.media.color_trc">1</property>
  <property name="meta.media.has_b_frames">0</property>
  <property name="meta.media.width">1280</property>
  <property name="meta.media.height">720</property>
  <property name="meta.media.color_range">mpeg</property>
  <property name="kdenlive:clipname"/>
  <property name="meta.media.top_field_first">0</property>
  <property name="meta.media.progressive">1</property>
  <property name="kdenlive:clip_type">0</property>
  <property name="kdenlive:folderid">14</property>
  <property name="kdenlive:id">516</property>
  <property name="kdenlive:file_size">206590518</property>
  <property name="kdenlive:file_hash">88cda21b12ceac23805c0c39f5962eac</property>
  <property name="kdenlive:active_streams">-1</property>
  <property name="set.test_audio">1</property>
  <property name="kdenlive:audio_max1">196</property>
  <property name="mute_on_pause">1</property>
 </chain>
 <producer id="producer366" in="00:00:00.000" out="00:00:14.200">
  <property name="length">356</property>
  <property name="eof">pause</property>
  <property name="resource">citations/citations-bat.png</property>
  <property name="ttl">25</property>
  <property name="aspect_ratio">1</property>
  <property name="progressive">1</property>
  <property name="seekable">1</property>
  <property name="format">2</property>
  <property name="meta.media.width">1920</property>
  <property name="meta.media.height">1080</property>
  <property name="mlt_service">qimage</property>
  <property name="kdenlive:clipname"/>
  <property name="kdenlive:duration">00:00:05:00</property>
  <property name="kdenlive:folderid">234</property>
  <property name="kdenlive:id">517</property>
  <property name="kdenlive:clip_type">2</property>
  <property name="kdenlive:file_size">31546</property>
  <property name="kdenlive:file_hash">67e65e0c9781ce1b58340722afbffe90</property>
 </producer>
 <chain id="chain245" out="00:12:26.360">
  <property name="length">18660</property>
  <property name="eof">pause</property>
  <property name="resource">b-roll/Grep Is Dead And Ripgrep Is Here To Replace It [dNcucfu7BUw].webm</property>
  <property name="mlt_service">avformat-novalidate</property>
  <property name="meta.media.nb_streams">2</property>
  <property name="meta.media.0.stream.type">video</property>
  <property name="meta.media.0.stream.frame_rate">30</property>
  <property name="meta.media.0.stream.sample_aspect_ratio">1</property>
  <property name="meta.media.0.codec.width">1920</property>
  <property name="meta.media.0.codec.height">1080</property>
  <property name="meta.media.0.codec.rotate">0</property>
  <property name="meta.media.0.codec.pix_fmt">yuv420p</property>
  <property name="meta.media.0.codec.sample_aspect_ratio">0</property>
  <property name="meta.media.0.codec.colorspace">709</property>
  <property name="meta.media.0.codec.color_trc">1</property>
  <property name="meta.media.0.codec.name">vp9</property>
  <property name="meta.media.0.codec.long_name">Google VP9</property>
  <property name="meta.media.0.codec.bit_rate">0</property>
  <property name="meta.attr.0.stream.language.markup">eng</property>
  <property name="meta.attr.0.stream.DURATION.markup">00:12:26.366000000</property>
  <property name="meta.media.1.stream.type">audio</property>
  <property name="meta.media.1.codec.sample_fmt">fltp</property>
  <property name="meta.media.1.codec.sample_rate">48000</property>
  <property name="meta.media.1.codec.channels">2</property>
  <property name="meta.media.1.codec.name">opus</property>
  <property name="meta.media.1.codec.long_name">Opus</property>
  <property name="meta.media.1.codec.bit_rate">0</property>
  <property name="meta.attr.1.stream.language.markup">eng</property>
  <property name="meta.attr.1.stream.DURATION.markup">00:12:26.381000000</property>
  <property name="meta.attr.ENCODER.markup">Lavf59.27.100</property>
  <property name="seekable">1</property>
  <property name="meta.media.sample_aspect_num">1</property>
  <property name="meta.media.sample_aspect_den">1</property>
  <property name="format">3</property>
  <property name="audio_index">-1</property>
  <property name="video_index">0</property>
  <property name="meta.media.frame_rate_num">30</property>
  <property name="meta.media.frame_rate_den">1</property>
  <property name="meta.media.colorspace">709</property>
  <property name="meta.media.color_trc">1</property>
  <property name="meta.media.has_b_frames">0</property>
  <property name="meta.media.width">1920</property>
  <property name="meta.media.height">1080</property>
  <property name="meta.media.color_range">mpeg</property>
  <property name="kdenlive:clipname"/>
  <property name="meta.media.top_field_first">0</property>
  <property name="meta.media.progressive">1</property>
  <property name="kdenlive:clip_type">0</property>
  <property name="kdenlive:folderid">14</property>
  <property name="kdenlive:id">518</property>
  <property name="kdenlive:file_size">74294793</property>
  <property name="kdenlive:file_hash">e775f75c572cf8671aa9ba0f1869af1a</property>
  <property name="kdenlive:active_streams">-1</property>
  <property name="set.test_audio">1</property>
  <property name="kdenlive:audio_max1">234</property>
  <property name="mute_on_pause">1</property>
 </chain>
 <producer id="producer367" in="00:00:00.000" out="00:00:07.640">
  <property name="length">192</property>
  <property name="eof">pause</property>
  <property name="resource">citations/citations-ripgrep.png</property>
  <property name="ttl">25</property>
  <property name="aspect_ratio">1</property>
  <property name="progressive">1</property>
  <property name="seekable">1</property>
  <property name="format">2</property>
  <property name="meta.media.width">1920</property>
  <property name="meta.media.height">1080</property>
  <property name="mlt_service">qimage</property>
  <property name="kdenlive:clipname"/>
  <property name="kdenlive:duration">00:00:05:00</property>
  <property name="kdenlive:folderid">234</property>
  <property name="kdenlive:id">519</property>
  <property name="kdenlive:clip_type">2</property>
  <property name="kdenlive:file_size">27623</property>
  <property name="kdenlive:file_hash">a7c4db4d2298d326d1480d833969646a</property>
 </producer>
 <chain id="chain246" out="00:00:49.800">
  <property name="length">1246</property>
  <property name="eof">pause</property>
  <property name="resource">videos/ripgrep.mkv</property>
  <property name="mlt_service">avformat-novalidate</property>
  <property name="meta.media.nb_streams">2</property>
  <property name="meta.media.0.stream.type">video</property>
  <property name="meta.media.0.stream.frame_rate">60</property>
  <property name="meta.media.0.stream.sample_aspect_ratio">0</property>
  <property name="meta.media.0.codec.width">1920</property>
  <property name="meta.media.0.codec.height">1080</property>
  <property name="meta.media.0.codec.rotate">0</property>
  <property name="meta.media.0.codec.pix_fmt">yuv420p</property>
  <property name="meta.media.0.codec.sample_aspect_ratio">1</property>
  <property name="meta.media.0.codec.colorspace">709</property>
  <property name="meta.media.0.codec.color_trc">1</property>
  <property name="meta.media.0.codec.name">h264</property>
  <property name="meta.media.0.codec.long_name">H.264 / AVC / MPEG-4 AVC / MPEG-4 part 10</property>
  <property name="meta.media.0.codec.bit_rate">0</property>
  <property name="meta.attr.0.stream.DURATION.markup">00:00:49.834000000</property>
  <property name="meta.media.1.stream.type">audio</property>
  <property name="meta.media.1.codec.sample_fmt">fltp</property>
  <property name="meta.media.1.codec.sample_rate">48000</property>
  <property name="meta.media.1.codec.channels">2</property>
  <property name="meta.media.1.codec.name">aac</property>
  <property name="meta.media.1.codec.long_name">AAC (Advanced Audio Coding)</property>
  <property name="meta.media.1.codec.bit_rate">0</property>
  <property name="meta.attr.1.stream.title.markup">simple_aac_recording</property>
  <property name="meta.attr.1.stream.DURATION.markup">00:00:49.813000000</property>
  <property name="meta.attr.ENCODER.markup">Lavf59.27.100</property>
  <property name="seekable">1</property>
  <property name="meta.media.sample_aspect_num">1</property>
  <property name="meta.media.sample_aspect_den">1</property>
  <property name="format">3</property>
  <property name="audio_index">-1</property>
  <property name="video_index">0</property>
  <property name="meta.media.frame_rate_num">60</property>
  <property name="meta.media.frame_rate_den">1</property>
  <property name="meta.media.colorspace">709</property>
  <property name="meta.media.color_trc">1</property>
  <property name="meta.media.has_b_frames">2</property>
  <property name="meta.media.width">1920</property>
  <property name="meta.media.height">1080</property>
  <property name="meta.media.color_range">mpeg</property>
  <property name="kdenlive:clipname"/>
  <property name="meta.media.top_field_first">0</property>
  <property name="meta.media.progressive">1</property>
  <property name="kdenlive:clip_type">0</property>
  <property name="kdenlive:folderid">14</property>
  <property name="kdenlive:id">520</property>
  <property name="kdenlive:file_size">1242688</property>
  <property name="kdenlive:file_hash">70bebce21ca6c48d9569c56557c4065f</property>
  <property name="kdenlive:audio_max1">1</property>
  <property name="kdenlive:active_streams">-1</property>
  <property name="set.test_audio">1</property>
  <property name="mute_on_pause">1</property>
 </chain>
 <chain id="chain247" out="00:00:37.720">
  <property name="length">944</property>
  <property name="eof">pause</property>
  <property name="resource">animation/output/rg.mp4</property>
  <property name="mlt_service">avformat-novalidate</property>
  <property name="meta.media.nb_streams">1</property>
  <property name="meta.media.0.stream.type">video</property>
  <property name="meta.media.0.stream.frame_rate">60</property>
  <property name="meta.media.0.stream.sample_aspect_ratio">0</property>
  <property name="meta.media.0.codec.width">1920</property>
  <property name="meta.media.0.codec.height">1080</property>
  <property name="meta.media.0.codec.rotate">0</property>
  <property name="meta.media.0.codec.pix_fmt">yuv420p</property>
  <property name="meta.media.0.codec.sample_aspect_ratio">0</property>
  <property name="meta.media.0.codec.colorspace">709</property>
  <property name="meta.media.0.codec.name">h264</property>
  <property name="meta.media.0.codec.long_name">H.264 / AVC / MPEG-4 AVC / MPEG-4 part 10</property>
  <property name="meta.media.0.codec.bit_rate">140413</property>
  <property name="meta.attr.0.stream.handler_name.markup">VideoHandler</property>
  <property name="meta.attr.0.stream.vendor_id.markup">[0][0][0][0]</property>
  <property name="meta.attr.major_brand.markup">isom</property>
  <property name="meta.attr.minor_version.markup">512</property>
  <property name="meta.attr.compatible_brands.markup">isomiso2avc1mp41</property>
  <property name="meta.attr.encoder.markup">Lavf58.24.100</property>
  <property name="seekable">1</property>
  <property name="meta.media.sample_aspect_num">1</property>
  <property name="meta.media.sample_aspect_den">1</property>
  <property name="format">3</property>
  <property name="audio_index">-1</property>
  <property name="video_index">0</property>
  <property name="meta.media.frame_rate_num">60</property>
  <property name="meta.media.frame_rate_den">1</property>
  <property name="meta.media.colorspace">709</property>
  <property name="meta.media.color_trc">2</property>
  <property name="meta.media.has_b_frames">2</property>
  <property name="meta.media.width">1920</property>
  <property name="meta.media.height">1080</property>
  <property name="meta.media.color_range">mpeg</property>
  <property name="kdenlive:clipname"/>
  <property name="meta.media.top_field_first">0</property>
  <property name="meta.media.progressive">1</property>
  <property name="kdenlive:clip_type">2</property>
  <property name="kdenlive:folderid">218</property>
  <property name="kdenlive:id">521</property>
  <property name="kdenlive:file_size">689590</property>
  <property name="kdenlive:file_hash">0a5369700cd1339d79757f5999171158</property>
  <property name="mute_on_pause">1</property>
 </chain>
 <producer id="producer424" in="00:00:00.000" out="00:00:04.960">
  <property name="length">00:00:05.000</property>
  <property name="eof">pause</property>
  <property name="resource">images/rg repo.png</property>
  <property name="ttl">25</property>
  <property name="aspect_ratio">1</property>
  <property name="progressive">1</property>
  <property name="seekable">1</property>
  <property name="format">1</property>
  <property name="meta.media.width">1278</property>
  <property name="meta.media.height">891</property>
  <property name="mlt_service">qimage</property>
  <property name="kdenlive:clipname"/>
  <property name="kdenlive:duration">00:00:05:00</property>
  <property name="kdenlive:folderid">28</property>
  <property name="kdenlive:id">522</property>
  <property name="kdenlive:clip_type">2</property>
  <property name="kdenlive:file_size">190317</property>
  <property name="kdenlive:file_hash">73da82739217483359a326b984e915c6</property>
 </producer>
 <chain id="chain248" out="00:00:09.960">
  <property name="length">250</property>
  <property name="eof">pause</property>
  <property name="resource">animation/output/programming.mp4</property>
  <property name="mlt_service">avformat-novalidate</property>
  <property name="meta.media.nb_streams">1</property>
  <property name="meta.media.0.stream.type">video</property>
  <property name="meta.media.0.stream.frame_rate">60</property>
  <property name="meta.media.0.stream.sample_aspect_ratio">0</property>
  <property name="meta.media.0.codec.width">1920</property>
  <property name="meta.media.0.codec.height">1080</property>
  <property name="meta.media.0.codec.rotate">0</property>
  <property name="meta.media.0.codec.pix_fmt">yuv420p</property>
  <property name="meta.media.0.codec.sample_aspect_ratio">0</property>
  <property name="meta.media.0.codec.colorspace">709</property>
  <property name="meta.media.0.codec.name">h264</property>
  <property name="meta.media.0.codec.long_name">H.264 / AVC / MPEG-4 AVC / MPEG-4 part 10</property>
  <property name="meta.media.0.codec.bit_rate">421956</property>
  <property name="meta.attr.0.stream.handler_name.markup">VideoHandler</property>
  <property name="meta.attr.0.stream.vendor_id.markup">[0][0][0][0]</property>
  <property name="meta.attr.major_brand.markup">isom</property>
  <property name="meta.attr.minor_version.markup">512</property>
  <property name="meta.attr.compatible_brands.markup">isomiso2avc1mp41</property>
  <property name="meta.attr.encoder.markup">Lavf58.24.100</property>
  <property name="seekable">1</property>
  <property name="meta.media.sample_aspect_num">1</property>
  <property name="meta.media.sample_aspect_den">1</property>
  <property name="format">3</property>
  <property name="audio_index">-1</property>
  <property name="video_index">0</property>
  <property name="meta.media.frame_rate_num">60</property>
  <property name="meta.media.frame_rate_den">1</property>
  <property name="meta.media.colorspace">709</property>
  <property name="meta.media.color_trc">2</property>
  <property name="meta.media.has_b_frames">2</property>
  <property name="meta.media.width">1920</property>
  <property name="meta.media.height">1080</property>
  <property name="meta.media.color_range">mpeg</property>
  <property name="kdenlive:clipname"/>
  <property name="meta.media.top_field_first">0</property>
  <property name="meta.media.progressive">1</property>
  <property name="kdenlive:clip_type">2</property>
  <property name="kdenlive:folderid">218</property>
  <property name="kdenlive:id">523</property>
  <property name="kdenlive:file_size">535250</property>
  <property name="kdenlive:file_hash">2433e5b226abd0f01882ea41c9728d5d</property>
  <property name="mute_on_pause">1</property>
 </chain>
 <producer id="producer450" in="00:00:00.000" out="00:00:19.680">
  <property name="length">00:00:19.720</property>
  <property name="eof">pause</property>
  <property name="resource">/home/liquidzulu/Pictures/yt/animation/output/project/footnotes/footnote-25/.all.png</property>
  <property name="ttl">1</property>
  <property name="aspect_ratio">1</property>
  <property name="progressive">1</property>
  <property name="seekable">1</property>
  <property name="format">2</property>
  <property name="meta.media.width">1920</property>
  <property name="meta.media.height">1080</property>
  <property name="mlt_service">qimage</property>
  <property name="kdenlive:clipname">footnote-25</property>
  <property name="low-pass">0</property>
  <property name="animation"/>
  <property name="luma_file"/>
  <property name="luma_duration">25</property>
  <property name="fade">0</property>
  <property name="crop">0</property>
  <property name="softness">0</property>
  <property name="loop">0</property>
  <property name="kdenlive:duration">00:00:19:18</property>
  <property name="kdenlive:folderid">273</property>
  <property name="kdenlive:id">524</property>
  <property name="kdenlive:clip_type">2</property>
  <property name="kdenlive:file_hash">4755fa00482763fe98c71c0500f5458a</property>
 </producer>
 <chain id="chain249" out="00:35:51.920">
  <property name="length">53799</property>
  <property name="eof">pause</property>
  <property name="resource">/home/liquidzulu/Videos/yt/b-roll/Code Reviewï¼š Ocaml [wH3FjE38pz8].webm</property>
  <property name="mlt_service">avformat-novalidate</property>
  <property name="meta.media.nb_streams">2</property>
  <property name="meta.media.0.stream.type">video</property>
  <property name="meta.media.0.stream.frame_rate">29.97</property>
  <property name="meta.media.0.stream.sample_aspect_ratio">1</property>
  <property name="meta.media.0.codec.width">1280</property>
  <property name="meta.media.0.codec.height">720</property>
  <property name="meta.media.0.codec.rotate">0</property>
  <property name="meta.media.0.codec.pix_fmt">yuv420p</property>
  <property name="meta.media.0.codec.sample_aspect_ratio">0</property>
  <property name="meta.media.0.codec.colorspace">709</property>
  <property name="meta.media.0.codec.color_trc">1</property>
  <property name="meta.media.0.codec.name">vp9</property>
  <property name="meta.media.0.codec.long_name">Google VP9</property>
  <property name="meta.media.0.codec.bit_rate">0</property>
  <property name="meta.attr.0.stream.language.markup">eng</property>
  <property name="meta.attr.0.stream.DURATION.markup">00:35:51.917000000</property>
  <property name="meta.media.1.stream.type">audio</property>
  <property name="meta.media.1.codec.sample_fmt">fltp</property>
  <property name="meta.media.1.codec.sample_rate">48000</property>
  <property name="meta.media.1.codec.channels">2</property>
  <property name="meta.media.1.codec.name">opus</property>
  <property name="meta.media.1.codec.long_name">Opus</property>
  <property name="meta.media.1.codec.bit_rate">0</property>
  <property name="meta.attr.1.stream.language.markup">eng</property>
  <property name="meta.attr.1.stream.DURATION.markup">00:35:51.941000000</property>
  <property name="meta.attr.ENCODER.markup">Lavf59.27.100</property>
  <property name="seekable">1</property>
  <property name="meta.media.sample_aspect_num">1</property>
  <property name="meta.media.sample_aspect_den">1</property>
  <property name="format">3</property>
  <property name="audio_index">-1</property>
  <property name="video_index">0</property>
  <property name="meta.media.frame_rate_num">30000</property>
  <property name="meta.media.frame_rate_den">1001</property>
  <property name="meta.media.colorspace">709</property>
  <property name="meta.media.color_trc">1</property>
  <property name="meta.media.has_b_frames">0</property>
  <property name="meta.media.width">1280</property>
  <property name="meta.media.height">720</property>
  <property name="meta.media.color_range">mpeg</property>
  <property name="kdenlive:clipname"/>
  <property name="meta.media.top_field_first">0</property>
  <property name="meta.media.progressive">1</property>
  <property name="kdenlive:clip_type">0</property>
  <property name="kdenlive:folderid">14</property>
  <property name="kdenlive:id">525</property>
  <property name="kdenlive:file_size">130183662</property>
  <property name="kdenlive:file_hash">595e5441b81ab1f6f214f336f8978627</property>
  <property name="kdenlive:active_streams">-1</property>
  <property name="set.test_audio">1</property>
  <property name="kdenlive:audio_max1">168</property>
  <property name="mute_on_pause">1</property>
 </chain>
 <producer id="producer369" in="00:00:00.000" out="00:00:13.080">
  <property name="length">328</property>
  <property name="eof">pause</property>
  <property name="resource">citations/citations-prime.png</property>
  <property name="ttl">25</property>
  <property name="aspect_ratio">1</property>
  <property name="progressive">1</property>
  <property name="seekable">1</property>
  <property name="format">2</property>
  <property name="meta.media.width">1920</property>
  <property name="meta.media.height">1080</property>
  <property name="mlt_service">qimage</property>
  <property name="kdenlive:clipname"/>
  <property name="kdenlive:duration">00:00:05:00</property>
  <property name="kdenlive:folderid">234</property>
  <property name="kdenlive:id">526</property>
  <property name="kdenlive:clip_type">2</property>
  <property name="kdenlive:file_size">23482</property>
  <property name="kdenlive:file_hash">3871ee34db7186d8871eb03a3f8b2762</property>
 </producer>
 <producer id="producer371" in="00:00:00.000" out="00:00:27.120">
  <property name="length">679</property>
  <property name="eof">pause</property>
  <property name="resource">images/replication-paper.png</property>
  <property name="ttl">25</property>
  <property name="aspect_ratio">1</property>
  <property name="progressive">1</property>
  <property name="seekable">1</property>
  <property name="format">1</property>
  <property name="meta.media.width">1256</property>
  <property name="meta.media.height">800</property>
  <property name="mlt_service">qimage</property>
  <property name="kdenlive:clipname"/>
  <property name="kdenlive:duration">00:00:05:00</property>
  <property name="kdenlive:folderid">28</property>
  <property name="kdenlive:id">527</property>
  <property name="kdenlive:clip_type">2</property>
  <property name="kdenlive:file_size">759072</property>
  <property name="kdenlive:file_hash">b923d1d3c163032e1176fe038c426c54</property>
 </producer>
 <producer id="producer452" in="00:00:00.000" out="00:00:19.680">
  <property name="length">00:00:19.720</property>
  <property name="eof">pause</property>
  <property name="resource">/home/liquidzulu/Pictures/yt/animation/output/project/footnotes/footnote-26/.all.png</property>
  <property name="ttl">1</property>
  <property name="aspect_ratio">1</property>
  <property name="progressive">1</property>
  <property name="seekable">1</property>
  <property name="format">2</property>
  <property name="meta.media.width">1920</property>
  <property name="meta.media.height">1080</property>
  <property name="mlt_service">qimage</property>
  <property name="kdenlive:clipname">footnote-26</property>
  <property name="low-pass">0</property>
  <property name="animation"/>
  <property name="luma_file"/>
  <property name="luma_duration">25</property>
  <property name="fade">0</property>
  <property name="crop">0</property>
  <property name="softness">0</property>
  <property name="loop">0</property>
  <property name="kdenlive:duration">00:00:19:18</property>
  <property name="kdenlive:folderid">273</property>
  <property name="kdenlive:id">528</property>
  <property name="kdenlive:clip_type">2</property>
  <property name="kdenlive:file_hash">5fa15179c885ae0eade415826f873fd4</property>
 </producer>
 <producer id="producer406" in="00:00:00.000" out="00:00:08.280">
  <property name="length">208</property>
  <property name="eof">pause</property>
  <property name="resource">images/replication-paper-highlight-q0-h0.png</property>
  <property name="ttl">25</property>
  <property name="aspect_ratio">1</property>
  <property name="progressive">1</property>
  <property name="seekable">1</property>
  <property name="format">2</property>
  <property name="meta.media.width">1779</property>
  <property name="meta.media.height">909</property>
  <property name="mlt_service">qimage</property>
  <property name="kdenlive:clipname"/>
  <property name="kdenlive:duration">00:00:05:00</property>
  <property name="kdenlive:folderid">28</property>
  <property name="kdenlive:id">529</property>
  <property name="kdenlive:clip_type">2</property>
  <property name="kdenlive:file_size">15438</property>
  <property name="kdenlive:file_hash">bf216724269d6f6ff8d34a4c56e3841b</property>
 </producer>
 <producer id="producer425" in="00:00:00.000" out="00:00:07.880">
  <property name="length">198</property>
  <property name="eof">pause</property>
  <property name="resource">images/replication-paper-highlight-q0-h1.png</property>
  <property name="ttl">25</property>
  <property name="aspect_ratio">1</property>
  <property name="progressive">1</property>
  <property name="seekable">1</property>
  <property name="format">2</property>
  <property name="meta.media.width">1779</property>
  <property name="meta.media.height">909</property>
  <property name="mlt_service">qimage</property>
  <property name="kdenlive:clipname"/>
  <property name="kdenlive:duration">00:00:05:00</property>
  <property name="kdenlive:folderid">28</property>
  <property name="kdenlive:id">530</property>
  <property name="kdenlive:clip_type">2</property>
  <property name="kdenlive:file_size">19171</property>
  <property name="kdenlive:file_hash">21440bf1bb1880415f42b2980b728fa8</property>
 </producer>
 <producer id="producer433" in="00:00:00.000" out="00:00:07.480">
  <property name="length">188</property>
  <property name="eof">pause</property>
  <property name="resource">images/replication-paper-highlight-q0-h2.png</property>
  <property name="ttl">25</property>
  <property name="aspect_ratio">1</property>
  <property name="progressive">1</property>
  <property name="seekable">1</property>
  <property name="format">2</property>
  <property name="meta.media.width">1779</property>
  <property name="meta.media.height">909</property>
  <property name="mlt_service">qimage</property>
  <property name="kdenlive:clipname"/>
  <property name="kdenlive:duration">00:00:05:00</property>
  <property name="kdenlive:folderid">28</property>
  <property name="kdenlive:id">531</property>
  <property name="kdenlive:clip_type">2</property>
  <property name="kdenlive:file_size">17219</property>
  <property name="kdenlive:file_hash">7645118458c727ddacebfaa5e128c8f7</property>
 </producer>
 <producer id="producer440" in="00:00:00.000" out="00:00:07.080">
  <property name="length">178</property>
  <property name="eof">pause</property>
  <property name="resource">images/replication-paper-highlight-q0-h3.png</property>
  <property name="ttl">25</property>
  <property name="aspect_ratio">1</property>
  <property name="progressive">1</property>
  <property name="seekable">1</property>
  <property name="format">2</property>
  <property name="meta.media.width">1779</property>
  <property name="meta.media.height">909</property>
  <property name="mlt_service">qimage</property>
  <property name="kdenlive:clipname"/>
  <property name="kdenlive:duration">00:00:05:00</property>
  <property name="kdenlive:folderid">28</property>
  <property name="kdenlive:id">532</property>
  <property name="kdenlive:clip_type">2</property>
  <property name="kdenlive:file_size">15663</property>
  <property name="kdenlive:file_hash">80561a3a5d03db612da851744aa62d92</property>
 </producer>
 <producer id="producer397" in="00:00:00.000" out="00:00:08.080">
  <property name="length">203</property>
  <property name="eof">pause</property>
  <property name="resource">images/replication-paper-highlight-q0.png</property>
  <property name="ttl">25</property>
  <property name="aspect_ratio">1</property>
  <property name="progressive">1</property>
  <property name="seekable">1</property>
  <property name="format">2</property>
  <property name="meta.media.width">1779</property>
  <property name="meta.media.height">909</property>
  <property name="mlt_service">qimage</property>
  <property name="kdenlive:clipname"/>
  <property name="kdenlive:duration">00:00:05:00</property>
  <property name="kdenlive:folderid">28</property>
  <property name="kdenlive:id">533</property>
  <property name="kdenlive:clip_type">2</property>
  <property name="kdenlive:file_size">240749</property>
  <property name="kdenlive:file_hash">25d357f0c7ced4c52ea337c36fe34d6a</property>
 </producer>
 <producer id="producer407" in="00:00:00.000" out="00:00:12.480">
  <property name="length">313</property>
  <property name="eof">pause</property>
  <property name="resource">images/replication-paper-highlight-q1-h0.png</property>
  <property name="ttl">25</property>
  <property name="aspect_ratio">1</property>
  <property name="progressive">1</property>
  <property name="seekable">1</property>
  <property name="format">2</property>
  <property name="meta.media.width">1779</property>
  <property name="meta.media.height">909</property>
  <property name="mlt_service">qimage</property>
  <property name="kdenlive:clipname"/>
  <property name="kdenlive:duration">00:00:05:00</property>
  <property name="kdenlive:folderid">28</property>
  <property name="kdenlive:id">534</property>
  <property name="kdenlive:clip_type">2</property>
  <property name="kdenlive:file_size">17669</property>
  <property name="kdenlive:file_hash">b472704e83f334953e8fc5c4dbb3f517</property>
 </producer>
 <producer id="producer426" in="00:00:00.000" out="00:00:12.520">
  <property name="length">314</property>
  <property name="eof">pause</property>
  <property name="resource">images/replication-paper-highlight-q1-h1.png</property>
  <property name="ttl">25</property>
  <property name="aspect_ratio">1</property>
  <property name="progressive">1</property>
  <property name="seekable">1</property>
  <property name="format">2</property>
  <property name="meta.media.width">1779</property>
  <property name="meta.media.height">909</property>
  <property name="mlt_service">qimage</property>
  <property name="kdenlive:clipname"/>
  <property name="kdenlive:duration">00:00:05:00</property>
  <property name="kdenlive:folderid">28</property>
  <property name="kdenlive:id">535</property>
  <property name="kdenlive:clip_type">2</property>
  <property name="kdenlive:file_size">18680</property>
  <property name="kdenlive:file_hash">f812557d5f549eebd23fed38816cef46</property>
 </producer>
 <producer id="producer434" in="00:00:00.000" out="00:00:11.600">
  <property name="length">291</property>
  <property name="eof">pause</property>
  <property name="resource">images/replication-paper-highlight-q1-h2.png</property>
  <property name="ttl">25</property>
  <property name="aspect_ratio">1</property>
  <property name="progressive">1</property>
  <property name="seekable">1</property>
  <property name="format">2</property>
  <property name="meta.media.width">1779</property>
  <property name="meta.media.height">909</property>
  <property name="mlt_service">qimage</property>
  <property name="kdenlive:clipname"/>
  <property name="kdenlive:duration">00:00:05:00</property>
  <property name="kdenlive:folderid">28</property>
  <property name="kdenlive:id">536</property>
  <property name="kdenlive:clip_type">2</property>
  <property name="kdenlive:file_size">18837</property>
  <property name="kdenlive:file_hash">5306c0e6c23a2ae98e87d093a5b98d7a</property>
 </producer>
 <producer id="producer441" in="00:00:00.000" out="00:00:11.160">
  <property name="length">280</property>
  <property name="eof">pause</property>
  <property name="resource">images/replication-paper-highlight-q1-h3.png</property>
  <property name="ttl">25</property>
  <property name="aspect_ratio">1</property>
  <property name="progressive">1</property>
  <property name="seekable">1</property>
  <property name="format">2</property>
  <property name="meta.media.width">1779</property>
  <property name="meta.media.height">909</property>
  <property name="mlt_service">qimage</property>
  <property name="kdenlive:clipname"/>
  <property name="kdenlive:duration">00:00:05:00</property>
  <property name="kdenlive:folderid">28</property>
  <property name="kdenlive:id">537</property>
  <property name="kdenlive:clip_type">2</property>
  <property name="kdenlive:file_size">17187</property>
  <property name="kdenlive:file_hash">e06bbd44728934f9bd6f08b362ce72f1</property>
 </producer>
 <producer id="producer446" in="00:00:00.000" out="00:00:10.720">
  <property name="length">269</property>
  <property name="eof">pause</property>
  <property name="resource">images/replication-paper-highlight-q1-h4.png</property>
  <property name="ttl">25</property>
  <property name="aspect_ratio">1</property>
  <property name="progressive">1</property>
  <property name="seekable">1</property>
  <property name="format">2</property>
  <property name="meta.media.width">1779</property>
  <property name="meta.media.height">909</property>
  <property name="mlt_service">qimage</property>
  <property name="kdenlive:clipname"/>
  <property name="kdenlive:duration">00:00:05:00</property>
  <property name="kdenlive:folderid">28</property>
  <property name="kdenlive:id">538</property>
  <property name="kdenlive:clip_type">2</property>
  <property name="kdenlive:file_size">17974</property>
  <property name="kdenlive:file_hash">9a8bbdf6bb33d64cceb93c13641da43c</property>
 </producer>
 <producer id="producer447" in="00:00:00.000" out="00:00:10.280">
  <property name="length">258</property>
  <property name="eof">pause</property>
  <property name="resource">images/replication-paper-highlight-q1-h5.png</property>
  <property name="ttl">25</property>
  <property name="aspect_ratio">1</property>
  <property name="progressive">1</property>
  <property name="seekable">1</property>
  <property name="format">2</property>
  <property name="meta.media.width">1779</property>
  <property name="meta.media.height">909</property>
  <property name="mlt_service">qimage</property>
  <property name="kdenlive:clipname"/>
  <property name="kdenlive:duration">00:00:05:00</property>
  <property name="kdenlive:folderid">28</property>
  <property name="kdenlive:id">539</property>
  <property name="kdenlive:clip_type">2</property>
  <property name="kdenlive:file_size">16039</property>
  <property name="kdenlive:file_hash">7aaeeb38a85fbff8ad29682d99d91197</property>
 </producer>
 <producer id="producer398" in="00:00:00.000" out="00:00:12.320">
  <property name="length">309</property>
  <property name="eof">pause</property>
  <property name="resource">images/replication-paper-highlight-q1.png</property>
  <property name="ttl">25</property>
  <property name="aspect_ratio">1</property>
  <property name="progressive">1</property>
  <property name="seekable">1</property>
  <property name="format">2</property>
  <property name="meta.media.width">1779</property>
  <property name="meta.media.height">909</property>
  <property name="mlt_service">qimage</property>
  <property name="kdenlive:clipname"/>
  <property name="kdenlive:duration">00:00:05:00</property>
  <property name="kdenlive:folderid">28</property>
  <property name="kdenlive:id">540</property>
  <property name="kdenlive:clip_type">2</property>
  <property name="kdenlive:file_size">194710</property>
  <property name="kdenlive:file_hash">aa1f6ed9faf373916dc6ddd865b5c85e</property>
 </producer>
 <producer id="producer408" in="00:00:00.000" out="00:00:05.280">
  <property name="length">133</property>
  <property name="eof">pause</property>
  <property name="resource">images/replication-paper-highlight-q2-h0.png</property>
  <property name="ttl">25</property>
  <property name="aspect_ratio">1</property>
  <property name="progressive">1</property>
  <property name="seekable">1</property>
  <property name="format">2</property>
  <property name="meta.media.width">1779</property>
  <property name="meta.media.height">909</property>
  <property name="mlt_service">qimage</property>
  <property name="kdenlive:clipname"/>
  <property name="kdenlive:duration">00:00:05:00</property>
  <property name="kdenlive:folderid">28</property>
  <property name="kdenlive:id">541</property>
  <property name="kdenlive:clip_type">2</property>
  <property name="kdenlive:file_size">18673</property>
  <property name="kdenlive:file_hash">c9e0be896c9ecd82f4b7dc3f3c90b5cf</property>
 </producer>
 <producer id="producer427" in="00:00:00.000" out="00:00:04.960">
  <property name="length">00:00:05.000</property>
  <property name="eof">pause</property>
  <property name="resource">images/replication-paper-highlight-q2-h1.png</property>
  <property name="ttl">25</property>
  <property name="aspect_ratio">1</property>
  <property name="progressive">1</property>
  <property name="seekable">1</property>
  <property name="format">2</property>
  <property name="meta.media.width">1779</property>
  <property name="meta.media.height">909</property>
  <property name="mlt_service">qimage</property>
  <property name="kdenlive:clipname"/>
  <property name="kdenlive:duration">00:00:05:00</property>
  <property name="kdenlive:folderid">28</property>
  <property name="kdenlive:id">542</property>
  <property name="kdenlive:clip_type">2</property>
  <property name="kdenlive:file_size">19311</property>
  <property name="kdenlive:file_hash">e22257e5f03b6a98a6ff05bc01a104ff</property>
 </producer>
 <producer id="producer435" in="00:00:00.000" out="00:00:04.960">
  <property name="length">00:00:05.000</property>
  <property name="eof">pause</property>
  <property name="resource">images/replication-paper-highlight-q2-h2.png</property>
  <property name="ttl">25</property>
  <property name="aspect_ratio">1</property>
  <property name="progressive">1</property>
  <property name="seekable">1</property>
  <property name="format">2</property>
  <property name="meta.media.width">1779</property>
  <property name="meta.media.height">909</property>
  <property name="mlt_service">qimage</property>
  <property name="kdenlive:clipname"/>
  <property name="kdenlive:duration">00:00:05:00</property>
  <property name="kdenlive:folderid">28</property>
  <property name="kdenlive:id">543</property>
  <property name="kdenlive:clip_type">2</property>
  <property name="kdenlive:file_size">12638</property>
  <property name="kdenlive:file_hash">3a7d70cf7699be9a8bc4b6d58b8887d3</property>
 </producer>
 <producer id="producer399" in="00:00:00.000" out="00:00:12.800">
  <property name="length">321</property>
  <property name="eof">pause</property>
  <property name="resource">images/replication-paper-highlight-q2.png</property>
  <property name="ttl">25</property>
  <property name="aspect_ratio">1</property>
  <property name="progressive">1</property>
  <property name="seekable">1</property>
  <property name="format">2</property>
  <property name="meta.media.width">1779</property>
  <property name="meta.media.height">909</property>
  <property name="mlt_service">qimage</property>
  <property name="kdenlive:clipname"/>
  <property name="kdenlive:duration">00:00:05:00</property>
  <property name="kdenlive:folderid">28</property>
  <property name="kdenlive:id">544</property>
  <property name="kdenlive:clip_type">2</property>
  <property name="kdenlive:file_size">198702</property>
  <property name="kdenlive:file_hash">a1c9dd8c2b65061576519b0c50c93d79</property>
 </producer>
 <producer id="producer400" in="00:00:00.000" out="00:00:23.880">
  <property name="length">598</property>
  <property name="eof">pause</property>
  <property name="progressive">1</property>
  <property name="aspect_ratio">1</property>
  <property name="seekable">1</property>
  <property name="mlt_service">kdenlivetitle</property>
  <property name="kdenlive:duration">00:00:05:00</property>
  <property name="kdenlive:clipname">exact match</property>
  <property name="xmldata">&lt;kdenlivetitle duration="125" LC_NUMERIC="C" width="1920" height="1080" out="124">
 &lt;item type="QGraphicsTextItem" z-index="2">
  &lt;position x="1383" y="532">
   &lt;transform>1,0,0,0,1,0,0,0,1&lt;/transform>
  &lt;/position>
  &lt;content line-spacing="0" shadow="0;#64000000;3;3;3" font-underline="0" box-height="120" font-outline-color="0,0,0,255" font="Cubano" letter-spacing="0" font-pixel-size="100" font-italic="0" typewriter="0;2;1;0;0" alignment="1" font-weight="50" font-outline="0" box-width="345.328" font-color="255,255,0,255">source&lt;/content>
 &lt;/item>
 &lt;item type="QGraphicsTextItem" z-index="1">
  &lt;position x="1110" y="388">
   &lt;transform>1,0,0,0,1,0,0,0,1&lt;/transform>
  &lt;/position>
  &lt;content line-spacing="0" shadow="0;#64000000;3;3;3" font-underline="0" box-height="120" font-outline-color="0,0,0,255" font="Cubano" letter-spacing="0" font-pixel-size="100" font-italic="0" typewriter="0;2;1;0;0" alignment="1" font-weight="50" font-outline="0" box-width="618.047" font-color="0,0,255,255">close match&lt;/content>
 &lt;/item>
 &lt;item type="QGraphicsTextItem" z-index="0">
  &lt;position x="1100" y="242">
   &lt;transform>1,0,0,0,1,0,0,0,1&lt;/transform>
  &lt;/position>
  &lt;content line-spacing="0" shadow="0;#64000000;3;3;3" font-underline="0" box-height="120" font-outline-color="0,0,0,255" font="Cubano" letter-spacing="0" font-pixel-size="100" font-italic="0" typewriter="0;2;1;0;0" alignment="4" font-weight="50" font-outline="0" box-width="628.141" font-color="0,255,0,255">exact match&lt;/content>
 &lt;/item>
 &lt;startviewport rect="0,0,1920,1080"/>
 &lt;endviewport rect="0,0,1920,1080"/>
 &lt;background color="0,0,0,0"/>
&lt;/kdenlivetitle>
</property>
  <property name="kdenlive:folderid">21</property>
  <property name="kdenlive:id">545</property>
  <property name="kdenlive:clip_type">2</property>
  <property name="force_reload">0</property>
  <property name="meta.media.width">1920</property>
  <property name="meta.media.height">1080</property>
  <property name="kdenlive:file_hash">148bd70886da6820d8fa3453aaad6f75</property>
 </producer>
 <producer id="producer436" in="00:00:00.000" out="00:00:21.120">
  <property name="length">529</property>
  <property name="eof">pause</property>
  <property name="progressive">1</property>
  <property name="aspect_ratio">1</property>
  <property name="seekable">1</property>
  <property name="mlt_service">kdenlivetitle</property>
  <property name="kdenlive:duration">00:00:05:00</property>
  <property name="kdenlive:clipname">"The histogr...</property>
  <property name="xmldata">&lt;kdenlivetitle duration="125" LC_NUMERIC="C" width="1920" height="1080" out="124">
 &lt;item type="QGraphicsTextItem" z-index="0">
  &lt;position x="201" y="221">
   &lt;transform>1,0,0,0,1,0,0,0,1&lt;/transform>
  &lt;/position>
  &lt;content line-spacing="0" shadow="0;#64000000;3;3;3" font-underline="0" box-height="637" font-outline-color="0,0,0,255" font="Cubano" letter-spacing="0" font-pixel-size="76" font-italic="0" typewriter="0;2;1;0;0" alignment="4" font-weight="50" font-outline="4" box-width="1518.41" font-color="255,255,255,255">"The histograms of similarity scores
computed using the full dataset model
are highly overlapping. This strong
alignment indicates that the model is
not, on average, copying its training
images any more than its training
images are copies of each other."&lt;/content>
 &lt;/item>
 &lt;startviewport rect="0,0,1920,1080"/>
 &lt;endviewport rect="0,0,1920,1080"/>
 &lt;background color="0,0,0,0"/>
&lt;/kdenlivetitle>
</property>
  <property name="kdenlive:folderid">21</property>
  <property name="kdenlive:id">546</property>
  <property name="kdenlive:clip_type">2</property>
  <property name="force_reload">0</property>
  <property name="meta.media.width">1920</property>
  <property name="meta.media.height">1080</property>
  <property name="kdenlive:file_hash">b5eb0fb126345ff756c6955558264359</property>
 </producer>
 <chain id="chain250" out="00:00:19.960">
  <property name="length">500</property>
  <property name="eof">pause</property>
  <property name="resource">animation/output/inverse-correlation-model-size.mp4</property>
  <property name="mlt_service">avformat-novalidate</property>
  <property name="meta.media.nb_streams">1</property>
  <property name="meta.media.0.stream.type">video</property>
  <property name="meta.media.0.stream.frame_rate">60</property>
  <property name="meta.media.0.stream.sample_aspect_ratio">0</property>
  <property name="meta.media.0.codec.width">1920</property>
  <property name="meta.media.0.codec.height">1080</property>
  <property name="meta.media.0.codec.rotate">0</property>
  <property name="meta.media.0.codec.pix_fmt">yuv420p</property>
  <property name="meta.media.0.codec.sample_aspect_ratio">0</property>
  <property name="meta.media.0.codec.colorspace">709</property>
  <property name="meta.media.0.codec.name">h264</property>
  <property name="meta.media.0.codec.long_name">H.264 / AVC / MPEG-4 AVC / MPEG-4 part 10</property>
  <property name="meta.media.0.codec.bit_rate">84820</property>
  <property name="meta.attr.0.stream.handler_name.markup">VideoHandler</property>
  <property name="meta.attr.0.stream.vendor_id.markup">[0][0][0][0]</property>
  <property name="meta.attr.major_brand.markup">isom</property>
  <property name="meta.attr.minor_version.markup">512</property>
  <property name="meta.attr.compatible_brands.markup">isomiso2avc1mp41</property>
  <property name="meta.attr.encoder.markup">Lavf58.24.100</property>
  <property name="seekable">1</property>
  <property name="meta.media.sample_aspect_num">1</property>
  <property name="meta.media.sample_aspect_den">1</property>
  <property name="format">3</property>
  <property name="audio_index">-1</property>
  <property name="video_index">0</property>
  <property name="meta.media.frame_rate_num">60</property>
  <property name="meta.media.frame_rate_den">1</property>
  <property name="meta.media.colorspace">709</property>
  <property name="meta.media.color_trc">2</property>
  <property name="meta.media.has_b_frames">2</property>
  <property name="meta.media.width">1920</property>
  <property name="meta.media.height">1080</property>
  <property name="meta.media.color_range">mpeg</property>
  <property name="kdenlive:clipname"/>
  <property name="kdenlive:clip_type">2</property>
  <property name="kdenlive:folderid">218</property>
  <property name="kdenlive:id">547</property>
  <property name="kdenlive:file_size">227459</property>
  <property name="kdenlive:file_hash">12e5eebe7692a066e268a13528ea6298</property>
  <property name="meta.media.top_field_first">0</property>
  <property name="meta.media.progressive">1</property>
  <property name="mute_on_pause">1</property>
 </chain>
 <producer id="producer453" in="00:00:00.000" out="00:00:19.680">
  <property name="length">00:00:19.720</property>
  <property name="eof">pause</property>
  <property name="resource">/home/liquidzulu/Pictures/yt/animation/output/project/footnotes/footnote-27/.all.png</property>
  <property name="ttl">1</property>
  <property name="aspect_ratio">1</property>
  <property name="progressive">1</property>
  <property name="seekable">1</property>
  <property name="format">2</property>
  <property name="meta.media.width">1920</property>
  <property name="meta.media.height">1080</property>
  <property name="mlt_service">qimage</property>
  <property name="kdenlive:clipname">footnote-27</property>
  <property name="low-pass">0</property>
  <property name="animation"/>
  <property name="luma_file"/>
  <property name="luma_duration">25</property>
  <property name="fade">0</property>
  <property name="crop">0</property>
  <property name="softness">0</property>
  <property name="loop">0</property>
  <property name="kdenlive:duration">00:00:19:18</property>
  <property name="kdenlive:folderid">273</property>
  <property name="kdenlive:id">548</property>
  <property name="kdenlive:clip_type">2</property>
  <property name="kdenlive:file_hash">7a600b0bea9ff785ff3d1eb38c15b9b7</property>
 </producer>
 <producer id="producer156" in="00:00:00.000" out="00:00:04.960">
  <property name="length">00:00:05.000</property>
  <property name="eof">pause</property>
  <property name="resource">karla.png</property>
  <property name="ttl">25</property>
  <property name="aspect_ratio">1</property>
  <property name="progressive">1</property>
  <property name="seekable">1</property>
  <property name="format">2</property>
  <property name="meta.media.width">1920</property>
  <property name="meta.media.height">1080</property>
  <property name="mlt_service">qimage</property>
  <property name="kdenlive:clipname"/>
  <property name="kdenlive:duration">00:00:05:00</property>
  <property name="kdenlive:folderid">28</property>
  <property name="kdenlive:id">549</property>
  <property name="kdenlive:clip_type">2</property>
  <property name="kdenlive:file_size">1363871</property>
  <property name="kdenlive:file_hash">445f88746bded17ed63a91c13277ca12</property>
 </producer>
 <chain id="chain336" out="00:02:45.000">
  <property name="length">4126</property>
  <property name="eof">pause</property>
  <property name="resource">/home/liquidzulu/Videos/yt/b-roll/Mickey Mouse Steamboat Wille [hxf-UHuGobI].webm</property>
  <property name="mlt_service">avformat-novalidate</property>
  <property name="meta.media.nb_streams">2</property>
  <property name="meta.media.0.stream.type">video</property>
  <property name="meta.media.0.stream.frame_rate">29.97</property>
  <property name="meta.media.0.stream.sample_aspect_ratio">1</property>
  <property name="meta.media.0.codec.width">480</property>
  <property name="meta.media.0.codec.height">360</property>
  <property name="meta.media.0.codec.rotate">0</property>
  <property name="meta.media.0.codec.pix_fmt">yuv420p</property>
  <property name="meta.media.0.codec.sample_aspect_ratio">0</property>
  <property name="meta.media.0.codec.colorspace">601</property>
  <property name="meta.media.0.codec.name">vp9</property>
  <property name="meta.media.0.codec.long_name">Google VP9</property>
  <property name="meta.media.0.codec.bit_rate">0</property>
  <property name="meta.attr.0.stream.language.markup">eng</property>
  <property name="meta.attr.0.stream.DURATION.markup">00:02:44.998000000</property>
  <property name="meta.media.1.stream.type">audio</property>
  <property name="meta.media.1.codec.sample_fmt">fltp</property>
  <property name="meta.media.1.codec.sample_rate">48000</property>
  <property name="meta.media.1.codec.channels">2</property>
  <property name="meta.media.1.codec.name">opus</property>
  <property name="meta.media.1.codec.long_name">Opus</property>
  <property name="meta.media.1.codec.bit_rate">0</property>
  <property name="meta.attr.1.stream.language.markup">eng</property>
  <property name="meta.attr.1.stream.DURATION.markup">00:02:45.021000000</property>
  <property name="meta.attr.ENCODER.markup">Lavf59.27.100</property>
  <property name="seekable">1</property>
  <property name="meta.media.sample_aspect_num">1</property>
  <property name="meta.media.sample_aspect_den">1</property>
  <property name="format">3</property>
  <property name="audio_index">-1</property>
  <property name="video_index">0</property>
  <property name="meta.media.frame_rate_num">30000</property>
  <property name="meta.media.frame_rate_den">1001</property>
  <property name="meta.media.colorspace">601</property>
  <property name="meta.media.color_trc">2</property>
  <property name="meta.media.has_b_frames">0</property>
  <property name="meta.media.width">480</property>
  <property name="meta.media.height">360</property>
  <property name="meta.media.color_range">mpeg</property>
  <property name="kdenlive:clipname"/>
  <property name="meta.media.top_field_first">0</property>
  <property name="meta.media.progressive">1</property>
  <property name="kdenlive:clip_type">0</property>
  <property name="kdenlive:folderid">14</property>
  <property name="kdenlive:id">550</property>
  <property name="kdenlive:file_size">7854650</property>
  <property name="kdenlive:file_hash">7b507cf3f5a4342d6bec80f5cbd1ca03</property>
  <property name="kdenlive:audio_max1">219</property>
  <property name="kdenlive:active_streams">-1</property>
  <property name="set.test_audio">1</property>
  <property name="mute_on_pause">1</property>
 </chain>
 <chain id="chain254" out="02:05:46.480">
  <property name="length">188663</property>
  <property name="eof">pause</property>
  <property name="resource">b-roll/AI &amp; Industry Town Hall featuring US Copyright Office [7u1CeiSHqwY].webm</property>
  <property name="mlt_service">avformat-novalidate</property>
  <property name="meta.media.nb_streams">2</property>
  <property name="meta.media.0.stream.type">video</property>
  <property name="meta.media.0.stream.frame_rate">25</property>
  <property name="meta.media.0.stream.sample_aspect_ratio">1</property>
  <property name="meta.media.0.codec.width">3840</property>
  <property name="meta.media.0.codec.height">2160</property>
  <property name="meta.media.0.codec.rotate">0</property>
  <property name="meta.media.0.codec.pix_fmt">yuv420p</property>
  <property name="meta.media.0.codec.sample_aspect_ratio">0</property>
  <property name="meta.media.0.codec.colorspace">709</property>
  <property name="meta.media.0.codec.color_trc">1</property>
  <property name="meta.media.0.codec.name">vp9</property>
  <property name="meta.media.0.codec.long_name">Google VP9</property>
  <property name="meta.media.0.codec.bit_rate">0</property>
  <property name="meta.attr.0.stream.language.markup">eng</property>
  <property name="meta.attr.0.stream.DURATION.markup">02:05:46.480000000</property>
  <property name="meta.media.1.stream.type">audio</property>
  <property name="meta.media.1.codec.sample_fmt">fltp</property>
  <property name="meta.media.1.codec.sample_rate">48000</property>
  <property name="meta.media.1.codec.channels">2</property>
  <property name="meta.media.1.codec.name">opus</property>
  <property name="meta.media.1.codec.long_name">Opus</property>
  <property name="meta.media.1.codec.bit_rate">0</property>
  <property name="meta.attr.1.stream.language.markup">eng</property>
  <property name="meta.attr.1.stream.DURATION.markup">02:05:46.521000000</property>
  <property name="meta.attr.ENCODER.markup">Lavf59.27.100</property>
  <property name="seekable">1</property>
  <property name="meta.media.sample_aspect_num">1</property>
  <property name="meta.media.sample_aspect_den">1</property>
  <property name="format">3</property>
  <property name="audio_index">-1</property>
  <property name="video_index">0</property>
  <property name="meta.media.frame_rate_num">25</property>
  <property name="meta.media.frame_rate_den">1</property>
  <property name="meta.media.colorspace">709</property>
  <property name="meta.media.color_trc">1</property>
  <property name="meta.media.has_b_frames">0</property>
  <property name="meta.media.width">3840</property>
  <property name="meta.media.height">2160</property>
  <property name="meta.media.color_range">mpeg</property>
  <property name="kdenlive:clipname"/>
  <property name="meta.media.top_field_first">0</property>
  <property name="meta.media.progressive">1</property>
  <property name="kdenlive:clip_type">0</property>
  <property name="kdenlive:folderid">14</property>
  <property name="kdenlive:id">551</property>
  <property name="kdenlive:file_size">2782205774</property>
  <property name="kdenlive:file_hash">942196be50e420cc3019ad6424c5222f</property>
  <property name="kdenlive:active_streams">-1</property>
  <property name="set.test_audio">1</property>
  <property name="kdenlive:audio_max1">199</property>
  <property name="mute_on_pause">1</property>
 </chain>
 <producer id="producer377" in="00:00:00.000" out="00:00:04.960">
  <property name="length">00:00:05.000</property>
  <property name="eof">pause</property>
  <property name="resource">citations/citations-town-hall-copyright.png</property>
  <property name="ttl">25</property>
  <property name="aspect_ratio">1</property>
  <property name="progressive">1</property>
  <property name="seekable">1</property>
  <property name="format">2</property>
  <property name="meta.media.width">1920</property>
  <property name="meta.media.height">1080</property>
  <property name="mlt_service">qimage</property>
  <property name="kdenlive:clipname"/>
  <property name="kdenlive:duration">00:00:05:00</property>
  <property name="kdenlive:folderid">234</property>
  <property name="kdenlive:id">552</property>
  <property name="kdenlive:clip_type">2</property>
  <property name="kdenlive:file_size">34378</property>
  <property name="kdenlive:file_hash">9a275a1a9f332db0423a480a308d69d2</property>
 </producer>
 <producer id="producer411" in="00:00:00.000" out="00:00:21.120">
  <property name="length">529</property>
  <property name="eof">pause</property>
  <property name="progressive">1</property>
  <property name="aspect_ratio">1</property>
  <property name="seekable">1</property>
  <property name="mlt_service">kdenlivetitle</property>
  <property name="kdenlive:duration">00:00:05:00</property>
  <property name="kdenlive:clipname">"when you ty...</property>
  <property name="xmldata">&lt;kdenlivetitle duration="125" LC_NUMERIC="C" width="1920" height="1080" out="124">
 &lt;item type="QGraphicsTextItem" z-index="0">
  &lt;position x="404" y="358">
   &lt;transform>1,0,0,0,1,0,0,0,1&lt;/transform>
  &lt;/position>
  &lt;content line-spacing="0" shadow="0;#64000000;3;3;3" font-underline="0" box-height="364" font-outline-color="0,0,0,255" font="Cubano" letter-spacing="0" font-pixel-size="76" font-italic="0" typewriter="0;2;1;0;0" alignment="4" font-weight="50" font-outline="4" box-width="1111.94" font-color="255,255,255,255">"when you type bloodborne
[...] you get almost an
exact replica of the original
marketing material"&lt;/content>
 &lt;/item>
 &lt;startviewport rect="0,0,1920,1080"/>
 &lt;endviewport rect="0,0,1920,1080"/>
 &lt;background color="0,0,0,0"/>
&lt;/kdenlivetitle>
</property>
  <property name="kdenlive:folderid">21</property>
  <property name="kdenlive:id">553</property>
  <property name="kdenlive:clip_type">2</property>
  <property name="force_reload">0</property>
  <property name="meta.media.width">1920</property>
  <property name="meta.media.height">1080</property>
  <property name="kdenlive:file_hash">4ee76e2ab451c5bac19156f3dd428c71</property>
 </producer>
 <producer id="producer461" in="00:00:00.000" out="00:00:19.680">
  <property name="length">00:00:19.720</property>
  <property name="eof">pause</property>
  <property name="resource">/home/liquidzulu/Pictures/yt/animation/output/project/footnotes/footnote-29/.all.png</property>
  <property name="ttl">1</property>
  <property name="aspect_ratio">1</property>
  <property name="progressive">1</property>
  <property name="seekable">1</property>
  <property name="format">2</property>
  <property name="meta.media.width">1920</property>
  <property name="meta.media.height">1080</property>
  <property name="mlt_service">qimage</property>
  <property name="kdenlive:clipname">footnote-29</property>
  <property name="low-pass">0</property>
  <property name="animation"/>
  <property name="luma_file"/>
  <property name="luma_duration">25</property>
  <property name="fade">0</property>
  <property name="crop">0</property>
  <property name="softness">0</property>
  <property name="loop">0</property>
  <property name="kdenlive:duration">00:00:19:18</property>
  <property name="kdenlive:folderid">273</property>
  <property name="kdenlive:id">554</property>
  <property name="kdenlive:clip_type">2</property>
  <property name="kdenlive:file_hash">02a5c0b788dc975c2fac8d8cd4c88580</property>
 </producer>
 <producer id="producer459" in="00:00:00.000" out="00:00:13.240">
  <property name="length">332</property>
  <property name="eof">pause</property>
  <property name="progressive">1</property>
  <property name="aspect_ratio">1</property>
  <property name="seekable">1</property>
  <property name="mlt_service">kdenlivetitle</property>
  <property name="kdenlive:duration">00:00:05:00</property>
  <property name="kdenlive:clipname">"almost"</property>
  <property name="xmldata">&lt;kdenlivetitle duration="125" LC_NUMERIC="C" width="1920" height="1080" out="124">
 &lt;item type="QGraphicsTextItem" z-index="0">
  &lt;position x="771" y="489">
   &lt;transform>1,0,0,0,1,0,0,0,1&lt;/transform>
  &lt;/position>
  &lt;content line-spacing="0" shadow="0;#64000000;3;3;3" font-underline="0" box-height="102" font-outline-color="0,0,0,255" font="Cubano" letter-spacing="0" font-pixel-size="85" font-italic="0" typewriter="0;2;1;0;0" alignment="4" font-weight="50" font-outline="5" box-width="374.719" font-color="255,255,255,255">"almost"&lt;/content>
 &lt;/item>
 &lt;startviewport rect="0,0,1920,1080"/>
 &lt;endviewport rect="0,0,1920,1080"/>
 &lt;background color="0,0,0,0"/>
&lt;/kdenlivetitle>
</property>
  <property name="kdenlive:folderid">21</property>
  <property name="kdenlive:id">555</property>
  <property name="kdenlive:clip_type">2</property>
  <property name="force_reload">0</property>
  <property name="meta.media.width">1920</property>
  <property name="meta.media.height">1080</property>
  <property name="kdenlive:file_hash">7b3f1aca7bcf14a199d2c710a0ab6d5d</property>
 </producer>
 <producer id="producer484" in="00:00:00.000" out="00:00:19.680">
  <property name="length">00:00:19.720</property>
  <property name="eof">pause</property>
  <property name="resource">/home/liquidzulu/Pictures/yt/animation/output/project/footnotes/footnote-30/.all.png</property>
  <property name="ttl">1</property>
  <property name="aspect_ratio">1</property>
  <property name="progressive">1</property>
  <property name="seekable">1</property>
  <property name="format">2</property>
  <property name="meta.media.width">1920</property>
  <property name="meta.media.height">1080</property>
  <property name="mlt_service">qimage</property>
  <property name="kdenlive:clipname">footnote-30</property>
  <property name="low-pass">0</property>
  <property name="animation"/>
  <property name="luma_file"/>
  <property name="luma_duration">25</property>
  <property name="fade">0</property>
  <property name="crop">0</property>
  <property name="softness">0</property>
  <property name="loop">0</property>
  <property name="kdenlive:duration">00:00:19:18</property>
  <property name="kdenlive:folderid">273</property>
  <property name="kdenlive:id">556</property>
  <property name="kdenlive:clip_type">2</property>
  <property name="kdenlive:file_hash">65585f1b7967bc9e3e02d3d714e59dbc</property>
 </producer>
 <producer id="producer430" in="00:00:00.000" out="00:00:04.960">
  <property name="length">00:00:05.000</property>
  <property name="eof">pause</property>
  <property name="resource">images/top 1.88 percentile.png</property>
  <property name="ttl">25</property>
  <property name="aspect_ratio">1</property>
  <property name="progressive">1</property>
  <property name="seekable">1</property>
  <property name="format">1</property>
  <property name="meta.media.width">1260</property>
  <property name="meta.media.height">869</property>
  <property name="mlt_service">qimage</property>
  <property name="kdenlive:clipname"/>
  <property name="kdenlive:duration">00:00:05:00</property>
  <property name="kdenlive:folderid">28</property>
  <property name="kdenlive:id">557</property>
  <property name="kdenlive:clip_type">2</property>
  <property name="kdenlive:file_size">201185</property>
  <property name="kdenlive:file_hash">ac0607bb0f0c1134c8eea0056df8eb1b</property>
 </producer>
 <producer id="producer475" in="00:00:00.000" out="00:00:04.960">
  <property name="length">00:00:05.000</property>
  <property name="eof">pause</property>
  <property name="resource">images/carlini.png</property>
  <property name="ttl">25</property>
  <property name="aspect_ratio">1</property>
  <property name="progressive">1</property>
  <property name="seekable">1</property>
  <property name="format">1</property>
  <property name="meta.media.width">1090</property>
  <property name="meta.media.height">922</property>
  <property name="mlt_service">qimage</property>
  <property name="kdenlive:clipname"/>
  <property name="kdenlive:duration">00:00:05:00</property>
  <property name="kdenlive:folderid">28</property>
  <property name="kdenlive:id">558</property>
  <property name="kdenlive:clip_type">2</property>
  <property name="kdenlive:file_size">368260</property>
  <property name="kdenlive:file_hash">b15d3bcf3ff9b5589545ecf5ffed60c3</property>
 </producer>
 <producer id="producer485" in="00:00:00.000" out="00:00:19.680">
  <property name="length">00:00:19.720</property>
  <property name="eof">pause</property>
  <property name="resource">/home/liquidzulu/Pictures/yt/animation/output/project/footnotes/footnote-31/.all.png</property>
  <property name="ttl">1</property>
  <property name="aspect_ratio">1</property>
  <property name="progressive">1</property>
  <property name="seekable">1</property>
  <property name="format">2</property>
  <property name="meta.media.width">1920</property>
  <property name="meta.media.height">1080</property>
  <property name="mlt_service">qimage</property>
  <property name="kdenlive:clipname">footnote-31</property>
  <property name="low-pass">0</property>
  <property name="animation"/>
  <property name="luma_file"/>
  <property name="luma_duration">25</property>
  <property name="fade">0</property>
  <property name="crop">0</property>
  <property name="softness">0</property>
  <property name="loop">0</property>
  <property name="kdenlive:duration">00:00:19:18</property>
  <property name="kdenlive:folderid">273</property>
  <property name="kdenlive:id">559</property>
  <property name="kdenlive:clip_type">2</property>
  <property name="kdenlive:file_hash">f89de8b449fe65db0544b32bc52ae87f</property>
 </producer>
 <producer id="producer431" in="00:00:00.000" out="00:00:04.960">
  <property name="length">00:00:05.000</property>
  <property name="eof">pause</property>
  <property name="resource">images/160 million.png</property>
  <property name="ttl">25</property>
  <property name="aspect_ratio">1</property>
  <property name="progressive">1</property>
  <property name="seekable">1</property>
  <property name="format">1</property>
  <property name="meta.media.width">1260</property>
  <property name="meta.media.height">871</property>
  <property name="mlt_service">qimage</property>
  <property name="kdenlive:clipname"/>
  <property name="kdenlive:duration">00:00:05:00</property>
  <property name="kdenlive:folderid">28</property>
  <property name="kdenlive:id">560</property>
  <property name="kdenlive:clip_type">2</property>
  <property name="kdenlive:file_size">180211</property>
  <property name="kdenlive:file_hash">4d07d40eafbe08244f03a52f1c22a62b</property>
 </producer>
 <producer id="producer234" in="00:00:00.000" out="00:00:10.120">
  <property name="length">254</property>
  <property name="eof">pause</property>
  <property name="progressive">1</property>
  <property name="aspect_ratio">1</property>
  <property name="seekable">1</property>
  <property name="mlt_service">kdenlivetitle</property>
  <property name="kdenlive:duration">00:00:05:00</property>
  <property name="kdenlive:clipname">0.1</property>
  <property name="xmldata">&lt;kdenlivetitle duration="125" LC_NUMERIC="C" width="1920" height="1080" out="124">
 &lt;item type="QGraphicsTextItem" z-index="0">
  &lt;position x="838" y="420">
   &lt;transform>1,0,0,0,1,0,0,0,1&lt;/transform>
  &lt;/position>
  &lt;content line-spacing="0" shadow="0;#64000000;3;3;3" font-underline="0" box-height="240" font="Cubano" letter-spacing="0" font-pixel-size="200" font-italic="0" typewriter="0;2;1;0;0" alignment="4" font-weight="50" box-width="243.391" font-color="255,255,255,255">0.1&lt;/content>
 &lt;/item>
 &lt;startviewport rect="0,0,1920,1080"/>
 &lt;endviewport rect="0,0,1920,1080"/>
 &lt;background color="0,0,0,0"/>
&lt;/kdenlivetitle>
</property>
  <property name="kdenlive:folderid">21</property>
  <property name="kdenlive:id">561</property>
  <property name="kdenlive:clip_type">2</property>
  <property name="force_reload">0</property>
  <property name="meta.media.width">1920</property>
  <property name="meta.media.height">1080</property>
  <property name="kdenlive:file_hash">6c2f18213606513f880143a5cd227d9f</property>
 </producer>
 <producer id="producer378" in="00:00:00.000" out="00:00:10.120">
  <property name="length">254</property>
  <property name="eof">pause</property>
  <property name="progressive">1</property>
  <property name="aspect_ratio">1</property>
  <property name="seekable">1</property>
  <property name="mlt_service">kdenlivetitle</property>
  <property name="kdenlive:duration">00:00:05:00</property>
  <property name="kdenlive:clipname">0.12</property>
  <property name="xmldata">&lt;kdenlivetitle duration="125" LC_NUMERIC="C" width="1920" height="1080" out="124">
 &lt;item type="QGraphicsTextItem" z-index="0">
  &lt;position x="781" y="420">
   &lt;transform>1,0,0,0,1,0,0,0,1&lt;/transform>
  &lt;/position>
  &lt;content line-spacing="0" shadow="0;#64000000;3;3;3" font-underline="0" box-height="240" font="Cubano" letter-spacing="0" font-pixel-size="200" font-italic="0" typewriter="0;2;1;0;0" alignment="4" font-weight="50" box-width="357.391" font-color="255,255,255,255">0.12&lt;/content>
 &lt;/item>
 &lt;startviewport rect="0,0,1920,1080"/>
 &lt;endviewport rect="0,0,1920,1080"/>
 &lt;background color="0,0,0,0"/>
&lt;/kdenlivetitle>
</property>
  <property name="kdenlive:folderid">21</property>
  <property name="kdenlive:id">562</property>
  <property name="kdenlive:clip_type">2</property>
  <property name="force_reload">0</property>
  <property name="meta.media.width">1920</property>
  <property name="meta.media.height">1080</property>
  <property name="kdenlive:file_hash">afa9368962405654cc84384c2299ecec</property>
 </producer>
 <producer id="producer379" in="00:00:00.000" out="00:00:10.120">
  <property name="length">254</property>
  <property name="eof">pause</property>
  <property name="progressive">1</property>
  <property name="aspect_ratio">1</property>
  <property name="seekable">1</property>
  <property name="mlt_service">kdenlivetitle</property>
  <property name="kdenlive:duration">00:00:05:00</property>
  <property name="kdenlive:clipname">0.128</property>
  <property name="xmldata">&lt;kdenlivetitle duration="125" LC_NUMERIC="C" width="1920" height="1080" out="124">
 &lt;item type="QGraphicsTextItem" z-index="0">
  &lt;position x="721" y="420">
   &lt;transform>1,0,0,0,1,0,0,0,1&lt;/transform>
  &lt;/position>
  &lt;content line-spacing="0" shadow="0;#64000000;3;3;3" font-underline="0" box-height="240" font="Cubano" letter-spacing="0" font-pixel-size="200" font-italic="0" typewriter="0;2;1;0;0" alignment="4" font-weight="50" box-width="477.391" font-color="255,255,255,255">0.128&lt;/content>
 &lt;/item>
 &lt;startviewport rect="0,0,1920,1080"/>
 &lt;endviewport rect="0,0,1920,1080"/>
 &lt;background color="0,0,0,0"/>
&lt;/kdenlivetitle>
</property>
  <property name="kdenlive:folderid">21</property>
  <property name="kdenlive:id">563</property>
  <property name="kdenlive:clip_type">2</property>
  <property name="force_reload">0</property>
  <property name="meta.media.width">1920</property>
  <property name="meta.media.height">1080</property>
  <property name="kdenlive:file_hash">0e8b866ce939b9fd4325b9bb8f1830e5</property>
 </producer>
 <producer id="producer380" in="00:00:00.000" out="00:00:10.120">
  <property name="length">254</property>
  <property name="eof">pause</property>
  <property name="progressive">1</property>
  <property name="aspect_ratio">1</property>
  <property name="seekable">1</property>
  <property name="mlt_service">kdenlivetitle</property>
  <property name="kdenlive:duration">00:00:05:00</property>
  <property name="kdenlive:clipname">0.128%</property>
  <property name="xmldata">&lt;kdenlivetitle duration="125" LC_NUMERIC="C" width="1920" height="1080" out="124">
 &lt;item type="QGraphicsTextItem" z-index="0">
  &lt;position x="656" y="420">
   &lt;transform>1,0,0,0,1,0,0,0,1&lt;/transform>
  &lt;/position>
  &lt;content line-spacing="0" shadow="0;#64000000;3;3;3" font-underline="0" box-height="240" font="Cubano" letter-spacing="0" font-pixel-size="200" font-italic="0" typewriter="0;2;1;0;0" alignment="4" font-weight="50" box-width="606.984" font-color="255,255,255,255">0.128%&lt;/content>
 &lt;/item>
 &lt;startviewport rect="0,0,1920,1080"/>
 &lt;endviewport rect="0,0,1920,1080"/>
 &lt;background color="0,0,0,0"/>
&lt;/kdenlivetitle>
</property>
  <property name="kdenlive:folderid">21</property>
  <property name="kdenlive:id">564</property>
  <property name="kdenlive:clip_type">2</property>
  <property name="force_reload">0</property>
  <property name="kdenlive:file_hash">8f26dd9d67215a341a36818fec9251f2</property>
  <property name="meta.media.width">1920</property>
  <property name="meta.media.height">1080</property>
 </producer>
 <chain id="chain259" out="00:00:25.080">
  <property name="length">628</property>
  <property name="eof">pause</property>
  <property name="resource">animation/output/tortoise hare/tortoise hare.mp4</property>
  <property name="mlt_service">avformat-novalidate</property>
  <property name="meta.media.nb_streams">2</property>
  <property name="meta.media.0.stream.type">video</property>
  <property name="meta.media.0.stream.frame_rate">25</property>
  <property name="meta.media.0.stream.sample_aspect_ratio">1</property>
  <property name="meta.media.0.codec.width">1920</property>
  <property name="meta.media.0.codec.height">1080</property>
  <property name="meta.media.0.codec.rotate">0</property>
  <property name="meta.media.0.codec.pix_fmt">yuv420p</property>
  <property name="meta.media.0.codec.sample_aspect_ratio">1</property>
  <property name="meta.media.0.codec.colorspace">709</property>
  <property name="meta.media.0.codec.color_trc">1</property>
  <property name="meta.media.0.codec.name">h264</property>
  <property name="meta.media.0.codec.long_name">H.264 / AVC / MPEG-4 AVC / MPEG-4 part 10</property>
  <property name="meta.media.0.codec.bit_rate">721421</property>
  <property name="meta.attr.0.stream.handler_name.markup">VideoHandler</property>
  <property name="meta.attr.0.stream.vendor_id.markup">[0][0][0][0]</property>
  <property name="meta.media.1.stream.type">audio</property>
  <property name="meta.media.1.codec.sample_fmt">fltp</property>
  <property name="meta.media.1.codec.sample_rate">48000</property>
  <property name="meta.media.1.codec.channels">2</property>
  <property name="meta.media.1.codec.name">aac</property>
  <property name="meta.media.1.codec.long_name">AAC (Advanced Audio Coding)</property>
  <property name="meta.media.1.codec.bit_rate">149801</property>
  <property name="meta.attr.1.stream.handler_name.markup">SoundHandler</property>
  <property name="meta.attr.1.stream.vendor_id.markup">[0][0][0][0]</property>
  <property name="meta.attr.major_brand.markup">isom</property>
  <property name="meta.attr.minor_version.markup">512</property>
  <property name="meta.attr.compatible_brands.markup">isomiso2avc1mp41</property>
  <property name="meta.attr.encoder.markup">Lavf59.27.100</property>
  <property name="seekable">1</property>
  <property name="meta.media.sample_aspect_num">1</property>
  <property name="meta.media.sample_aspect_den">1</property>
  <property name="format">3</property>
  <property name="audio_index">-1</property>
  <property name="video_index">0</property>
  <property name="meta.media.frame_rate_num">25</property>
  <property name="meta.media.frame_rate_den">1</property>
  <property name="meta.media.colorspace">709</property>
  <property name="meta.media.color_trc">1</property>
  <property name="meta.media.has_b_frames">2</property>
  <property name="meta.media.width">1920</property>
  <property name="meta.media.height">1080</property>
  <property name="meta.media.color_range">mpeg</property>
  <property name="kdenlive:clipname"/>
  <property name="meta.media.top_field_first">0</property>
  <property name="meta.media.progressive">1</property>
  <property name="kdenlive:clip_type">0</property>
  <property name="kdenlive:folderid">218</property>
  <property name="kdenlive:id">565</property>
  <property name="kdenlive:file_size">2756487</property>
  <property name="kdenlive:file_hash">0b3b1f1e16248be7dea86ba7e14f5de7</property>
  <property name="kdenlive:audio_max1">113</property>
  <property name="kdenlive:active_streams">-1</property>
  <property name="set.test_audio">1</property>
  <property name="mute_on_pause">1</property>
 </chain>
 <producer id="producer432" in="00:00:00.000" out="00:00:04.960">
  <property name="length">00:00:05.000</property>
  <property name="eof">pause</property>
  <property name="resource">images/box turtle wiki.png</property>
  <property name="ttl">25</property>
  <property name="aspect_ratio">1</property>
  <property name="progressive">1</property>
  <property name="seekable">1</property>
  <property name="format">1</property>
  <property name="meta.media.width">1280</property>
  <property name="meta.media.height">890</property>
  <property name="mlt_service">qimage</property>
  <property name="kdenlive:clipname"/>
  <property name="kdenlive:duration">00:00:05:00</property>
  <property name="kdenlive:folderid">28</property>
  <property name="kdenlive:id">566</property>
  <property name="kdenlive:clip_type">2</property>
  <property name="kdenlive:file_size">399289</property>
  <property name="kdenlive:file_hash">b4129b9afed6c3e3cf64135615b74133</property>
 </producer>
 <producer id="producer486" in="00:00:00.000" out="00:00:10.120">
  <property name="length">254</property>
  <property name="eof">pause</property>
  <property name="resource"/>
  <property name="progressive">1</property>
  <property name="aspect_ratio">1</property>
  <property name="seekable">1</property>
  <property name="mlt_service">kdenlivetitle</property>
  <property name="kdenlive:duration">00:00:05:00</property>
  <property name="kdenlive:clipname">0.128%</property>
  <property name="xmldata">&lt;kdenlivetitle duration="125" LC_NUMERIC="C" width="1920" height="1080" out="124">
 &lt;item type="QGraphicsTextItem" z-index="0">
  &lt;position x="656" y="420">
   &lt;transform>1,0,0,0,1,0,0,0,1&lt;/transform>
  &lt;/position>
  &lt;content line-spacing="0" shadow="0;#64000000;3;3;3" font-underline="0" box-height="240" font="Cubano" letter-spacing="0" font-pixel-size="200" font-italic="0" typewriter="0;2;1;0;0" alignment="4" font-weight="50" box-width="606.984" font-color="255,255,255,255">0.128%&lt;/content>
 &lt;/item>
 &lt;startviewport rect="0,0,1920,1080"/>
 &lt;endviewport rect="0,0,1920,1080"/>
 &lt;background color="0,0,0,0"/>
&lt;/kdenlivetitle>
</property>
  <property name="kdenlive:folderid">460</property>
  <property name="kdenlive:id">567</property>
  <property name="kdenlive:clip_type">2</property>
  <property name="force_reload">0</property>
  <property name="kdenlive:file_hash">8f26dd9d67215a341a36818fec9251f2</property>
  <property name="meta.media.width">1920</property>
  <property name="meta.media.height">1080</property>
 </producer>
 <chain id="chain260" out="00:00:26.640">
  <property name="length">667</property>
  <property name="eof">pause</property>
  <property name="resource">animation/output/0.128.mp4</property>
  <property name="mlt_service">avformat-novalidate</property>
  <property name="meta.media.nb_streams">1</property>
  <property name="meta.media.0.stream.type">video</property>
  <property name="meta.media.0.stream.frame_rate">60</property>
  <property name="meta.media.0.stream.sample_aspect_ratio">0</property>
  <property name="meta.media.0.codec.width">1920</property>
  <property name="meta.media.0.codec.height">1080</property>
  <property name="meta.media.0.codec.rotate">0</property>
  <property name="meta.media.0.codec.pix_fmt">yuv420p</property>
  <property name="meta.media.0.codec.sample_aspect_ratio">0</property>
  <property name="meta.media.0.codec.colorspace">709</property>
  <property name="meta.media.0.codec.name">h264</property>
  <property name="meta.media.0.codec.long_name">H.264 / AVC / MPEG-4 AVC / MPEG-4 part 10</property>
  <property name="meta.media.0.codec.bit_rate">105451</property>
  <property name="meta.attr.0.stream.handler_name.markup">VideoHandler</property>
  <property name="meta.attr.0.stream.vendor_id.markup">[0][0][0][0]</property>
  <property name="meta.attr.major_brand.markup">isom</property>
  <property name="meta.attr.minor_version.markup">512</property>
  <property name="meta.attr.compatible_brands.markup">isomiso2avc1mp41</property>
  <property name="meta.attr.encoder.markup">Lavf58.24.100</property>
  <property name="seekable">1</property>
  <property name="meta.media.sample_aspect_num">1</property>
  <property name="meta.media.sample_aspect_den">1</property>
  <property name="format">3</property>
  <property name="audio_index">-1</property>
  <property name="video_index">0</property>
  <property name="meta.media.frame_rate_num">60</property>
  <property name="meta.media.frame_rate_den">1</property>
  <property name="meta.media.colorspace">709</property>
  <property name="meta.media.color_trc">2</property>
  <property name="meta.media.has_b_frames">2</property>
  <property name="meta.media.width">1920</property>
  <property name="meta.media.height">1080</property>
  <property name="meta.media.color_range">mpeg</property>
  <property name="kdenlive:clipname"/>
  <property name="meta.media.top_field_first">0</property>
  <property name="meta.media.progressive">1</property>
  <property name="kdenlive:clip_type">2</property>
  <property name="kdenlive:folderid">218</property>
  <property name="kdenlive:id">568</property>
  <property name="kdenlive:file_size">371557</property>
  <property name="kdenlive:file_hash">7f8df4fc4e4e8d8ec28e12a3c263cc57</property>
  <property name="mute_on_pause">1</property>
 </chain>
 <producer id="producer487" in="00:00:00.000" out="00:00:19.680">
  <property name="length">00:00:19.720</property>
  <property name="eof">pause</property>
  <property name="resource">/home/liquidzulu/Pictures/yt/animation/output/project/footnotes/footnote-33/.all.png</property>
  <property name="ttl">1</property>
  <property name="aspect_ratio">1</property>
  <property name="progressive">1</property>
  <property name="seekable">1</property>
  <property name="format">2</property>
  <property name="meta.media.width">1920</property>
  <property name="meta.media.height">1080</property>
  <property name="mlt_service">qimage</property>
  <property name="kdenlive:clipname">footnote-33</property>
  <property name="low-pass">0</property>
  <property name="animation"/>
  <property name="luma_file"/>
  <property name="luma_duration">25</property>
  <property name="fade">0</property>
  <property name="crop">0</property>
  <property name="softness">0</property>
  <property name="loop">0</property>
  <property name="kdenlive:duration">00:00:19:18</property>
  <property name="kdenlive:folderid">273</property>
  <property name="kdenlive:id">569</property>
  <property name="kdenlive:clip_type">2</property>
  <property name="kdenlive:file_hash">bc02220c3ef6e50f0b59fc04e2574ba2</property>
 </producer>
 <producer id="producer417" in="00:00:00.000" out="00:00:16.040">
  <property name="length">402</property>
  <property name="eof">pause</property>
  <property name="resource">images/worst-case prompting.png</property>
  <property name="ttl">25</property>
  <property name="aspect_ratio">1</property>
  <property name="progressive">1</property>
  <property name="seekable">1</property>
  <property name="format">2</property>
  <property name="meta.media.width">1258</property>
  <property name="meta.media.height">1324</property>
  <property name="mlt_service">qimage</property>
  <property name="kdenlive:clipname"/>
  <property name="kdenlive:duration">00:00:05:00</property>
  <property name="kdenlive:folderid">28</property>
  <property name="kdenlive:id">570</property>
  <property name="kdenlive:clip_type">2</property>
  <property name="kdenlive:file_size">416486</property>
  <property name="kdenlive:file_hash">f7defd03b6ad38c70e0da4c35e2f0027</property>
 </producer>
 <producer id="producer476" in="00:00:00.000" out="00:00:07.880">
  <property name="length">198</property>
  <property name="eof">pause</property>
  <property name="resource">images/stable diffusion different.png</property>
  <property name="ttl">25</property>
  <property name="aspect_ratio">1</property>
  <property name="progressive">1</property>
  <property name="seekable">1</property>
  <property name="format">1</property>
  <property name="meta.media.width">1008</property>
  <property name="meta.media.height">351</property>
  <property name="mlt_service">qimage</property>
  <property name="kdenlive:clipname"/>
  <property name="kdenlive:duration">00:00:05:00</property>
  <property name="kdenlive:folderid">28</property>
  <property name="kdenlive:id">571</property>
  <property name="kdenlive:clip_type">2</property>
  <property name="kdenlive:file_size">92840</property>
  <property name="kdenlive:file_hash">76a80ddb943c6c70974fab185935bc95</property>
 </producer>
 <chain id="chain261" out="00:00:22.160">
  <property name="length">555</property>
  <property name="eof">pause</property>
  <property name="resource">animation/output/ontological-fitting.mp4</property>
  <property name="mlt_service">avformat-novalidate</property>
  <property name="meta.media.nb_streams">1</property>
  <property name="meta.media.0.stream.type">video</property>
  <property name="meta.media.0.stream.frame_rate">60</property>
  <property name="meta.media.0.stream.sample_aspect_ratio">0</property>
  <property name="meta.media.0.codec.width">1920</property>
  <property name="meta.media.0.codec.height">1080</property>
  <property name="meta.media.0.codec.rotate">0</property>
  <property name="meta.media.0.codec.pix_fmt">yuv420p</property>
  <property name="meta.media.0.codec.sample_aspect_ratio">0</property>
  <property name="meta.media.0.codec.colorspace">709</property>
  <property name="meta.media.0.codec.name">h264</property>
  <property name="meta.media.0.codec.long_name">H.264 / AVC / MPEG-4 AVC / MPEG-4 part 10</property>
  <property name="meta.media.0.codec.bit_rate">98665</property>
  <property name="meta.attr.0.stream.handler_name.markup">VideoHandler</property>
  <property name="meta.attr.0.stream.vendor_id.markup">[0][0][0][0]</property>
  <property name="meta.attr.major_brand.markup">isom</property>
  <property name="meta.attr.minor_version.markup">512</property>
  <property name="meta.attr.compatible_brands.markup">isomiso2avc1mp41</property>
  <property name="meta.attr.encoder.markup">Lavf58.24.100</property>
  <property name="seekable">1</property>
  <property name="meta.media.sample_aspect_num">1</property>
  <property name="meta.media.sample_aspect_den">1</property>
  <property name="format">3</property>
  <property name="audio_index">-1</property>
  <property name="video_index">0</property>
  <property name="meta.media.frame_rate_num">60</property>
  <property name="meta.media.frame_rate_den">1</property>
  <property name="meta.media.colorspace">709</property>
  <property name="meta.media.color_trc">2</property>
  <property name="meta.media.has_b_frames">2</property>
  <property name="meta.media.width">1920</property>
  <property name="meta.media.height">1080</property>
  <property name="meta.media.color_range">mpeg</property>
  <property name="kdenlive:clipname"/>
  <property name="meta.media.top_field_first">0</property>
  <property name="meta.media.progressive">1</property>
  <property name="kdenlive:clip_type">2</property>
  <property name="kdenlive:folderid">218</property>
  <property name="kdenlive:id">572</property>
  <property name="kdenlive:file_size">290251</property>
  <property name="kdenlive:file_hash">c5747ffae5b976b095c72e19b22ec1ce</property>
  <property name="mute_on_pause">1</property>
 </chain>
 <producer id="producer381" in="00:00:00.000" out="00:00:06.120">
  <property name="length">154</property>
  <property name="eof">pause</property>
  <property name="resource">images/google.jpg</property>
  <property name="ttl">25</property>
  <property name="aspect_ratio">1</property>
  <property name="progressive">1</property>
  <property name="seekable">1</property>
  <property name="format">1</property>
  <property name="meta.media.width">1500</property>
  <property name="meta.media.height">900</property>
  <property name="mlt_service">qimage</property>
  <property name="kdenlive:clipname"/>
  <property name="kdenlive:duration">00:00:05:00</property>
  <property name="kdenlive:folderid">28</property>
  <property name="kdenlive:id">573</property>
  <property name="kdenlive:clip_type">2</property>
  <property name="kdenlive:file_size">1028845</property>
  <property name="kdenlive:file_hash">edae07a4c5366057b67ebc1d8c3d73aa</property>
 </producer>
 <producer id="producer418" in="00:00:00.000" out="00:00:07.880">
  <property name="length">198</property>
  <property name="eof">pause</property>
  <property name="resource">images/carlini full page paper.png</property>
  <property name="ttl">25</property>
  <property name="aspect_ratio">1</property>
  <property name="progressive">1</property>
  <property name="seekable">1</property>
  <property name="format">2</property>
  <property name="meta.media.width">850</property>
  <property name="meta.media.height">1100</property>
  <property name="mlt_service">qimage</property>
  <property name="kdenlive:clipname"/>
  <property name="kdenlive:duration">00:00:05:00</property>
  <property name="kdenlive:folderid">28</property>
  <property name="kdenlive:id">574</property>
  <property name="kdenlive:clip_type">2</property>
  <property name="kdenlive:file_size">301398</property>
  <property name="kdenlive:file_hash">8e2cf4013f26111ba753a79cbc417f55</property>
 </producer>
 <producer id="producer383" in="00:00:00.000" out="00:00:07.720">
  <property name="length">194</property>
  <property name="eof">pause</property>
  <property name="resource">images/somepalli full page paper.png</property>
  <property name="ttl">25</property>
  <property name="aspect_ratio">1</property>
  <property name="progressive">1</property>
  <property name="seekable">1</property>
  <property name="format">2</property>
  <property name="meta.media.width">850</property>
  <property name="meta.media.height">1100</property>
  <property name="mlt_service">qimage</property>
  <property name="kdenlive:clipname"/>
  <property name="kdenlive:duration">00:00:05:00</property>
  <property name="kdenlive:folderid">28</property>
  <property name="kdenlive:id">575</property>
  <property name="kdenlive:clip_type">2</property>
  <property name="kdenlive:file_size">465391</property>
  <property name="kdenlive:file_hash">bb6d859f12079182acee507a1b08a266</property>
 </producer>
 <producer id="producer437" in="00:00:00.000" out="00:00:14.600">
  <property name="length">366</property>
  <property name="eof">pause</property>
  <property name="resource">images/signatures.png</property>
  <property name="ttl">25</property>
  <property name="aspect_ratio">1</property>
  <property name="progressive">1</property>
  <property name="seekable">1</property>
  <property name="format">2</property>
  <property name="meta.media.width">994</property>
  <property name="meta.media.height">546</property>
  <property name="mlt_service">qimage</property>
  <property name="kdenlive:clipname"/>
  <property name="kdenlive:duration">00:00:05:00</property>
  <property name="kdenlive:folderid">28</property>
  <property name="kdenlive:id">576</property>
  <property name="kdenlive:clip_type">2</property>
  <property name="kdenlive:file_size">612709</property>
  <property name="kdenlive:file_hash">5cd626d4d1e0f71cb28852559ba8a77b</property>
 </producer>
 <producer id="producer489" in="00:00:00.000" out="00:00:19.680">
  <property name="length">00:00:19.720</property>
  <property name="eof">pause</property>
  <property name="resource">/home/liquidzulu/Pictures/yt/animation/output/project/footnotes/footnote-36/.all.png</property>
  <property name="ttl">1</property>
  <property name="aspect_ratio">1</property>
  <property name="progressive">1</property>
  <property name="seekable">1</property>
  <property name="format">2</property>
  <property name="meta.media.width">1920</property>
  <property name="meta.media.height">1080</property>
  <property name="mlt_service">qimage</property>
  <property name="kdenlive:clipname">footnote-36</property>
  <property name="low-pass">0</property>
  <property name="animation"/>
  <property name="luma_file"/>
  <property name="luma_duration">25</property>
  <property name="fade">0</property>
  <property name="crop">0</property>
  <property name="softness">0</property>
  <property name="loop">0</property>
  <property name="kdenlive:duration">00:00:19:18</property>
  <property name="kdenlive:folderid">273</property>
  <property name="kdenlive:id">577</property>
  <property name="kdenlive:clip_type">2</property>
  <property name="kdenlive:file_hash">d492b1a34cdec34342c3942c4e32fa6a</property>
 </producer>
 <producer id="producer386" in="00:00:00.000" out="00:00:14.400">
  <property name="length">361</property>
  <property name="eof">pause</property>
  <property name="resource">images/shad supergirl nitpicking.jpg</property>
  <property name="ttl">25</property>
  <property name="aspect_ratio">1</property>
  <property name="progressive">1</property>
  <property name="seekable">1</property>
  <property name="format">1</property>
  <property name="meta.media.width">2179</property>
  <property name="meta.media.height">1600</property>
  <property name="mlt_service">qimage</property>
  <property name="kdenlive:clipname"/>
  <property name="kdenlive:duration">00:00:05:00</property>
  <property name="kdenlive:folderid">28</property>
  <property name="kdenlive:id">578</property>
  <property name="kdenlive:clip_type">2</property>
  <property name="kdenlive:file_size">822733</property>
  <property name="kdenlive:file_hash">ed3e5ecbacf012a32db43e11844578e7</property>
 </producer>
 <chain id="chain262" out="00:22:14.160">
  <property name="length">33355</property>
  <property name="eof">pause</property>
  <property name="resource">b-roll/A Criticism of Shadiversity's ï¼‚AI Love Letterï¼‚ [svsTKrdSd7s].webm</property>
  <property name="mlt_service">avformat-novalidate</property>
  <property name="meta.media.nb_streams">2</property>
  <property name="meta.media.0.stream.type">video</property>
  <property name="meta.media.0.stream.frame_rate">50</property>
  <property name="meta.media.0.stream.sample_aspect_ratio">1</property>
  <property name="meta.media.0.codec.width">1920</property>
  <property name="meta.media.0.codec.height">1080</property>
  <property name="meta.media.0.codec.rotate">0</property>
  <property name="meta.media.0.codec.pix_fmt">yuv420p</property>
  <property name="meta.media.0.codec.sample_aspect_ratio">0</property>
  <property name="meta.media.0.codec.colorspace">709</property>
  <property name="meta.media.0.codec.color_trc">1</property>
  <property name="meta.media.0.codec.name">vp9</property>
  <property name="meta.media.0.codec.long_name">Google VP9</property>
  <property name="meta.media.0.codec.bit_rate">0</property>
  <property name="meta.attr.0.stream.language.markup">eng</property>
  <property name="meta.attr.0.stream.DURATION.markup">00:22:14.180000000</property>
  <property name="meta.media.1.stream.type">audio</property>
  <property name="meta.media.1.codec.sample_fmt">fltp</property>
  <property name="meta.media.1.codec.sample_rate">48000</property>
  <property name="meta.media.1.codec.channels">2</property>
  <property name="meta.media.1.codec.name">opus</property>
  <property name="meta.media.1.codec.long_name">Opus</property>
  <property name="meta.media.1.codec.bit_rate">0</property>
  <property name="meta.attr.1.stream.language.markup">eng</property>
  <property name="meta.attr.1.stream.DURATION.markup">00:22:14.201000000</property>
  <property name="meta.attr.ENCODER.markup">Lavf59.27.100</property>
  <property name="seekable">1</property>
  <property name="meta.media.sample_aspect_num">1</property>
  <property name="meta.media.sample_aspect_den">1</property>
  <property name="format">3</property>
  <property name="audio_index">-1</property>
  <property name="video_index">0</property>
  <property name="meta.media.frame_rate_num">50</property>
  <property name="meta.media.frame_rate_den">1</property>
  <property name="meta.media.colorspace">709</property>
  <property name="meta.media.color_trc">1</property>
  <property name="meta.media.has_b_frames">0</property>
  <property name="meta.media.width">1920</property>
  <property name="meta.media.height">1080</property>
  <property name="meta.media.color_range">mpeg</property>
  <property name="kdenlive:clipname"/>
  <property name="meta.media.top_field_first">0</property>
  <property name="meta.media.progressive">1</property>
  <property name="kdenlive:clip_type">0</property>
  <property name="kdenlive:folderid">14</property>
  <property name="kdenlive:id">579</property>
  <property name="kdenlive:file_size">211767091</property>
  <property name="kdenlive:file_hash">0dbfa2b220159d0ea9b0cce9fc6b90f2</property>
  <property name="kdenlive:audio_max1">200</property>
  <property name="kdenlive:active_streams">-1</property>
  <property name="set.test_audio">1</property>
  <property name="mute_on_pause">1</property>
 </chain>
 <producer id="producer490" in="00:00:00.000" out="00:00:19.680">
  <property name="length">00:00:19.720</property>
  <property name="eof">pause</property>
  <property name="resource">/home/liquidzulu/Pictures/yt/animation/output/project/footnotes/footnote-37/.all.png</property>
  <property name="ttl">1</property>
  <property name="aspect_ratio">1</property>
  <property name="progressive">1</property>
  <property name="seekable">1</property>
  <property name="format">2</property>
  <property name="meta.media.width">1920</property>
  <property name="meta.media.height">1080</property>
  <property name="mlt_service">qimage</property>
  <property name="kdenlive:clipname">footnote-37</property>
  <property name="low-pass">0</property>
  <property name="animation"/>
  <property name="luma_file"/>
  <property name="luma_duration">25</property>
  <property name="fade">0</property>
  <property name="crop">0</property>
  <property name="softness">0</property>
  <property name="loop">0</property>
  <property name="kdenlive:duration">00:00:19:18</property>
  <property name="kdenlive:folderid">273</property>
  <property name="kdenlive:id">580</property>
  <property name="kdenlive:clip_type">2</property>
  <property name="kdenlive:file_hash">cc2e139ea609f8d1473665955e12cbad</property>
 </producer>
 <producer id="producer419" in="00:00:00.000" out="00:00:20.480">
  <property name="length">513</property>
  <property name="eof">pause</property>
  <property name="resource">images/getty lawsuit highlight.png</property>
  <property name="ttl">25</property>
  <property name="aspect_ratio">1</property>
  <property name="progressive">1</property>
  <property name="seekable">1</property>
  <property name="format">1</property>
  <property name="meta.media.width">1245</property>
  <property name="meta.media.height">357</property>
  <property name="mlt_service">qimage</property>
  <property name="kdenlive:clipname"/>
  <property name="kdenlive:duration">00:00:05:00</property>
  <property name="kdenlive:folderid">28</property>
  <property name="kdenlive:id">581</property>
  <property name="kdenlive:clip_type">2</property>
  <property name="kdenlive:file_size">75304</property>
  <property name="kdenlive:file_hash">1ad158971e28b47a1ddadd256fcea241</property>
 </producer>
 <producer id="producer491" in="00:00:00.000" out="00:00:19.680">
  <property name="length">00:00:19.720</property>
  <property name="eof">pause</property>
  <property name="resource">/home/liquidzulu/Pictures/yt/animation/output/project/footnotes/footnote-38/.all.png</property>
  <property name="ttl">1</property>
  <property name="aspect_ratio">1</property>
  <property name="progressive">1</property>
  <property name="seekable">1</property>
  <property name="format">2</property>
  <property name="meta.media.width">1920</property>
  <property name="meta.media.height">1080</property>
  <property name="mlt_service">qimage</property>
  <property name="kdenlive:clipname">footnote-38</property>
  <property name="low-pass">0</property>
  <property name="animation"/>
  <property name="luma_file"/>
  <property name="luma_duration">25</property>
  <property name="fade">0</property>
  <property name="crop">0</property>
  <property name="softness">0</property>
  <property name="loop">0</property>
  <property name="kdenlive:duration">00:00:19:18</property>
  <property name="kdenlive:folderid">273</property>
  <property name="kdenlive:id">582</property>
  <property name="kdenlive:clip_type">2</property>
  <property name="kdenlive:file_hash">5a373d06831b72bd000f56802395990e</property>
 </producer>
 <chain id="chain264" out="00:16:09.880">
  <property name="length">24248</property>
  <property name="eof">pause</property>
  <property name="resource">b-roll/Lawyer Explains Stable Diffusion Lawsuit (Major Implications!) [gv9cdTh8cUo].webm</property>
  <property name="mlt_service">avformat-novalidate</property>
  <property name="meta.media.nb_streams">2</property>
  <property name="meta.media.0.stream.type">video</property>
  <property name="meta.media.0.stream.frame_rate">29.97</property>
  <property name="meta.media.0.stream.sample_aspect_ratio">1</property>
  <property name="meta.media.0.codec.width">3840</property>
  <property name="meta.media.0.codec.height">2160</property>
  <property name="meta.media.0.codec.rotate">0</property>
  <property name="meta.media.0.codec.pix_fmt">yuv420p</property>
  <property name="meta.media.0.codec.sample_aspect_ratio">0</property>
  <property name="meta.media.0.codec.colorspace">709</property>
  <property name="meta.media.0.codec.color_trc">1</property>
  <property name="meta.media.0.codec.name">vp9</property>
  <property name="meta.media.0.codec.long_name">Google VP9</property>
  <property name="meta.media.0.codec.bit_rate">0</property>
  <property name="meta.attr.0.stream.language.markup">eng</property>
  <property name="meta.attr.0.stream.DURATION.markup">00:16:09.868000000</property>
  <property name="meta.media.1.stream.type">audio</property>
  <property name="meta.media.1.codec.sample_fmt">fltp</property>
  <property name="meta.media.1.codec.sample_rate">48000</property>
  <property name="meta.media.1.codec.channels">2</property>
  <property name="meta.media.1.codec.name">opus</property>
  <property name="meta.media.1.codec.long_name">Opus</property>
  <property name="meta.media.1.codec.bit_rate">0</property>
  <property name="meta.attr.1.stream.language.markup">eng</property>
  <property name="meta.attr.1.stream.DURATION.markup">00:16:09.901000000</property>
  <property name="meta.attr.ENCODER.markup">Lavf59.27.100</property>
  <property name="seekable">1</property>
  <property name="meta.media.sample_aspect_num">1</property>
  <property name="meta.media.sample_aspect_den">1</property>
  <property name="format">3</property>
  <property name="audio_index">-1</property>
  <property name="video_index">0</property>
  <property name="meta.media.frame_rate_num">30000</property>
  <property name="meta.media.frame_rate_den">1001</property>
  <property name="meta.media.colorspace">709</property>
  <property name="meta.media.color_trc">1</property>
  <property name="meta.media.has_b_frames">0</property>
  <property name="meta.media.width">3840</property>
  <property name="meta.media.height">2160</property>
  <property name="meta.media.color_range">mpeg</property>
  <property name="kdenlive:clipname"/>
  <property name="meta.media.top_field_first">0</property>
  <property name="meta.media.progressive">1</property>
  <property name="kdenlive:clip_type">0</property>
  <property name="kdenlive:folderid">14</property>
  <property name="kdenlive:id">583</property>
  <property name="kdenlive:file_size">1369494163</property>
  <property name="kdenlive:file_hash">855c66f1749ba9d1606b5357298a4156</property>
  <property name="kdenlive:audio_max1">222</property>
  <property name="kdenlive:active_streams">-1</property>
  <property name="set.test_audio">1</property>
  <property name="mute_on_pause">1</property>
 </chain>
 <chain id="chain275" out="00:00:25.440">
  <property name="length">637</property>
  <property name="eof">pause</property>
  <property name="resource">b-roll/Haveibeentrained.comï¼š Opt out of AI training [4lf8feiiVLg].webm</property>
  <property name="mlt_service">avformat-novalidate</property>
  <property name="meta.media.nb_streams">2</property>
  <property name="meta.media.0.stream.type">video</property>
  <property name="meta.media.0.stream.frame_rate">30</property>
  <property name="meta.media.0.stream.sample_aspect_ratio">1</property>
  <property name="meta.media.0.codec.width">1920</property>
  <property name="meta.media.0.codec.height">1080</property>
  <property name="meta.media.0.codec.rotate">0</property>
  <property name="meta.media.0.codec.pix_fmt">yuv420p</property>
  <property name="meta.media.0.codec.sample_aspect_ratio">0</property>
  <property name="meta.media.0.codec.colorspace">709</property>
  <property name="meta.media.0.codec.color_trc">1</property>
  <property name="meta.media.0.codec.name">vp9</property>
  <property name="meta.media.0.codec.long_name">Google VP9</property>
  <property name="meta.media.0.codec.bit_rate">0</property>
  <property name="meta.attr.0.stream.language.markup">eng</property>
  <property name="meta.attr.0.stream.DURATION.markup">00:00:25.466000000</property>
  <property name="meta.media.1.stream.type">audio</property>
  <property name="meta.media.1.codec.sample_fmt">fltp</property>
  <property name="meta.media.1.codec.sample_rate">48000</property>
  <property name="meta.media.1.codec.channels">2</property>
  <property name="meta.media.1.codec.name">opus</property>
  <property name="meta.media.1.codec.long_name">Opus</property>
  <property name="meta.media.1.codec.bit_rate">0</property>
  <property name="meta.attr.1.stream.language.markup">eng</property>
  <property name="meta.attr.1.stream.DURATION.markup">00:00:25.481000000</property>
  <property name="meta.attr.ENCODER.markup">Lavf59.27.100</property>
  <property name="seekable">1</property>
  <property name="meta.media.sample_aspect_num">1</property>
  <property name="meta.media.sample_aspect_den">1</property>
  <property name="format">3</property>
  <property name="audio_index">-1</property>
  <property name="video_index">0</property>
  <property name="meta.media.frame_rate_num">30</property>
  <property name="meta.media.frame_rate_den">1</property>
  <property name="meta.media.colorspace">709</property>
  <property name="meta.media.color_trc">1</property>
  <property name="meta.media.has_b_frames">0</property>
  <property name="meta.media.width">1920</property>
  <property name="meta.media.height">1080</property>
  <property name="meta.media.color_range">mpeg</property>
  <property name="kdenlive:clipname"/>
  <property name="meta.media.top_field_first">0</property>
  <property name="meta.media.progressive">1</property>
  <property name="kdenlive:clip_type">0</property>
  <property name="kdenlive:folderid">14</property>
  <property name="kdenlive:id">584</property>
  <property name="kdenlive:file_size">725531</property>
  <property name="kdenlive:file_hash">ab67c008f245243a5d3387bc1aea3b84</property>
  <property name="kdenlive:audio_max1">1</property>
  <property name="kdenlive:active_streams">-1</property>
  <property name="set.test_audio">1</property>
  <property name="mute_on_pause">1</property>
 </chain>
 <producer id="producer391" in="00:00:00.000" out="00:00:08.880">
  <property name="length">223</property>
  <property name="eof">pause</property>
  <property name="resource">citations/citations-haveibeentrained.png</property>
  <property name="ttl">25</property>
  <property name="aspect_ratio">1</property>
  <property name="progressive">1</property>
  <property name="seekable">1</property>
  <property name="format">2</property>
  <property name="meta.media.width">1920</property>
  <property name="meta.media.height">1080</property>
  <property name="mlt_service">qimage</property>
  <property name="kdenlive:clipname"/>
  <property name="kdenlive:duration">00:00:05:00</property>
  <property name="kdenlive:folderid">234</property>
  <property name="kdenlive:id">585</property>
  <property name="kdenlive:clip_type">2</property>
  <property name="kdenlive:file_size">27296</property>
  <property name="kdenlive:file_hash">38950297ff24a24e50ece40051365ac5</property>
 </producer>
 <producer id="producer403" in="00:00:00.000" out="00:00:06.800">
  <property name="length">171</property>
  <property name="eof">pause</property>
  <property name="resource">citations/citations-sd-lawsuit.png</property>
  <property name="ttl">25</property>
  <property name="aspect_ratio">1</property>
  <property name="progressive">1</property>
  <property name="seekable">1</property>
  <property name="format">2</property>
  <property name="meta.media.width">1920</property>
  <property name="meta.media.height">1080</property>
  <property name="mlt_service">qimage</property>
  <property name="kdenlive:clipname"/>
  <property name="kdenlive:duration">00:00:05:00</property>
  <property name="kdenlive:folderid">234</property>
  <property name="kdenlive:id">586</property>
  <property name="kdenlive:clip_type">2</property>
  <property name="kdenlive:file_size">35114</property>
  <property name="kdenlive:file_hash">bfb2c7ef77890d688069b15f1e26d9e2</property>
 </producer>
 <producer id="producer404" in="00:00:00.000" out="00:00:21.640">
  <property name="length">542</property>
  <property name="eof">pause</property>
  <property name="resource">citations/citations-getty-prompt.png</property>
  <property name="ttl">25</property>
  <property name="aspect_ratio">1</property>
  <property name="progressive">1</property>
  <property name="seekable">1</property>
  <property name="format">2</property>
  <property name="meta.media.width">1920</property>
  <property name="meta.media.height">1080</property>
  <property name="mlt_service">qimage</property>
  <property name="kdenlive:clipname"/>
  <property name="kdenlive:duration">00:00:05:00</property>
  <property name="kdenlive:folderid">234</property>
  <property name="kdenlive:id">587</property>
  <property name="kdenlive:clip_type">2</property>
  <property name="kdenlive:file_size">22611</property>
  <property name="kdenlive:file_hash">3fae90eee8616080edb96b2cc82b7c82</property>
 </producer>
 <producer id="producer499" in="00:00:00.000" out="00:00:13.920">
  <property name="length">349</property>
  <property name="eof">pause</property>
  <property name="resource">images/overfitting chart.png</property>
  <property name="ttl">25</property>
  <property name="aspect_ratio">1</property>
  <property name="progressive">1</property>
  <property name="seekable">1</property>
  <property name="format">2</property>
  <property name="meta.media.width">1200</property>
  <property name="meta.media.height">751</property>
  <property name="mlt_service">qimage</property>
  <property name="kdenlive:clipname"/>
  <property name="kdenlive:duration">00:00:05:00</property>
  <property name="kdenlive:folderid">28</property>
  <property name="kdenlive:id">588</property>
  <property name="kdenlive:clip_type">2</property>
  <property name="kdenlive:file_size">193516</property>
  <property name="kdenlive:file_hash">52fb8407662aeddff8fba984d092f0d8</property>
 </producer>
 <chain id="chain276" out="00:00:12.960">
  <property name="length">325</property>
  <property name="eof">pause</property>
  <property name="resource">animation/output/hasbeen-musician.mp4</property>
  <property name="mlt_service">avformat-novalidate</property>
  <property name="meta.media.nb_streams">1</property>
  <property name="meta.media.0.stream.type">video</property>
  <property name="meta.media.0.stream.frame_rate">60</property>
  <property name="meta.media.0.stream.sample_aspect_ratio">0</property>
  <property name="meta.media.0.codec.width">1920</property>
  <property name="meta.media.0.codec.height">1080</property>
  <property name="meta.media.0.codec.rotate">0</property>
  <property name="meta.media.0.codec.pix_fmt">yuv420p</property>
  <property name="meta.media.0.codec.sample_aspect_ratio">0</property>
  <property name="meta.media.0.codec.colorspace">709</property>
  <property name="meta.media.0.codec.name">h264</property>
  <property name="meta.media.0.codec.long_name">H.264 / AVC / MPEG-4 AVC / MPEG-4 part 10</property>
  <property name="meta.media.0.codec.bit_rate">1237675</property>
  <property name="meta.attr.0.stream.handler_name.markup">VideoHandler</property>
  <property name="meta.attr.0.stream.vendor_id.markup">[0][0][0][0]</property>
  <property name="meta.attr.major_brand.markup">isom</property>
  <property name="meta.attr.minor_version.markup">512</property>
  <property name="meta.attr.compatible_brands.markup">isomiso2avc1mp41</property>
  <property name="meta.attr.encoder.markup">Lavf58.24.100</property>
  <property name="seekable">1</property>
  <property name="meta.media.sample_aspect_num">1</property>
  <property name="meta.media.sample_aspect_den">1</property>
  <property name="format">3</property>
  <property name="audio_index">-1</property>
  <property name="video_index">0</property>
  <property name="meta.media.frame_rate_num">60</property>
  <property name="meta.media.frame_rate_den">1</property>
  <property name="meta.media.colorspace">709</property>
  <property name="meta.media.color_trc">2</property>
  <property name="meta.media.has_b_frames">2</property>
  <property name="meta.media.width">1920</property>
  <property name="meta.media.height">1080</property>
  <property name="meta.media.color_range">mpeg</property>
  <property name="kdenlive:clipname"/>
  <property name="meta.media.top_field_first">0</property>
  <property name="meta.media.progressive">1</property>
  <property name="kdenlive:clip_type">2</property>
  <property name="kdenlive:folderid">218</property>
  <property name="kdenlive:id">589</property>
  <property name="kdenlive:file_size">2018665</property>
  <property name="kdenlive:file_hash">785b3ab13132da372269098f8c0e018d</property>
  <property name="mute_on_pause">1</property>
 </chain>
 <chain id="chain277" out="00:10:34.880">
  <property name="length">15873</property>
  <property name="eof">pause</property>
  <property name="resource">b-roll/I'm Disappointed [Vz8X2bhyNnE].webm</property>
  <property name="mlt_service">avformat-novalidate</property>
  <property name="meta.media.nb_streams">2</property>
  <property name="meta.media.0.stream.type">video</property>
  <property name="meta.media.0.stream.frame_rate">59.9401</property>
  <property name="meta.media.0.stream.sample_aspect_ratio">1</property>
  <property name="meta.media.0.codec.width">1920</property>
  <property name="meta.media.0.codec.height">1080</property>
  <property name="meta.media.0.codec.rotate">0</property>
  <property name="meta.media.0.codec.pix_fmt">yuv420p</property>
  <property name="meta.media.0.codec.sample_aspect_ratio">0</property>
  <property name="meta.media.0.codec.colorspace">709</property>
  <property name="meta.media.0.codec.color_trc">1</property>
  <property name="meta.media.0.codec.name">vp9</property>
  <property name="meta.media.0.codec.long_name">Google VP9</property>
  <property name="meta.media.0.codec.bit_rate">0</property>
  <property name="meta.attr.0.stream.language.markup">eng</property>
  <property name="meta.attr.0.stream.DURATION.markup">00:10:34.884000000</property>
  <property name="meta.media.1.stream.type">audio</property>
  <property name="meta.media.1.codec.sample_fmt">fltp</property>
  <property name="meta.media.1.codec.sample_rate">48000</property>
  <property name="meta.media.1.codec.channels">2</property>
  <property name="meta.media.1.codec.name">opus</property>
  <property name="meta.media.1.codec.long_name">Opus</property>
  <property name="meta.media.1.codec.bit_rate">0</property>
  <property name="meta.attr.1.stream.language.markup">eng</property>
  <property name="meta.attr.1.stream.DURATION.markup">00:10:34.901000000</property>
  <property name="meta.attr.ENCODER.markup">Lavf59.27.100</property>
  <property name="seekable">1</property>
  <property name="meta.media.sample_aspect_num">1</property>
  <property name="meta.media.sample_aspect_den">1</property>
  <property name="format">3</property>
  <property name="audio_index">-1</property>
  <property name="video_index">0</property>
  <property name="meta.media.frame_rate_num">60000</property>
  <property name="meta.media.frame_rate_den">1001</property>
  <property name="meta.media.colorspace">709</property>
  <property name="meta.media.color_trc">1</property>
  <property name="meta.media.has_b_frames">0</property>
  <property name="meta.media.width">1920</property>
  <property name="meta.media.height">1080</property>
  <property name="meta.media.color_range">mpeg</property>
  <property name="kdenlive:clipname"/>
  <property name="meta.media.top_field_first">0</property>
  <property name="meta.media.progressive">1</property>
  <property name="kdenlive:clip_type">0</property>
  <property name="kdenlive:folderid">14</property>
  <property name="kdenlive:id">590</property>
  <property name="kdenlive:file_size">135862554</property>
  <property name="kdenlive:file_hash">99193619f74f872ce77752aff3128f0d</property>
  <property name="kdenlive:audio_max1">246</property>
  <property name="kdenlive:active_streams">-1</property>
  <property name="set.test_audio">1</property>
  <property name="mute_on_pause">1</property>
 </chain>
 <producer id="producer405" in="00:00:00.000" out="00:00:10.680">
  <property name="length">268</property>
  <property name="eof">pause</property>
  <property name="resource">citations/citations-drew-gooden.png</property>
  <property name="ttl">25</property>
  <property name="aspect_ratio">1</property>
  <property name="progressive">1</property>
  <property name="seekable">1</property>
  <property name="format">2</property>
  <property name="meta.media.width">1920</property>
  <property name="meta.media.height">1080</property>
  <property name="mlt_service">qimage</property>
  <property name="kdenlive:clipname"/>
  <property name="kdenlive:duration">00:00:05:00</property>
  <property name="kdenlive:folderid">234</property>
  <property name="kdenlive:id">591</property>
  <property name="kdenlive:clip_type">2</property>
  <property name="kdenlive:file_size">22612</property>
  <property name="kdenlive:file_hash">a85a021c167a2db97a3a4802c5b9ed16</property>
 </producer>
 <chain id="chain278" out="00:03:52.680">
  <property name="length">5818</property>
  <property name="eof">pause</property>
  <property name="resource">b-roll/How to Draw Cubism Art [V15rXg1nJ6w].webm</property>
  <property name="mlt_service">avformat-novalidate</property>
  <property name="meta.media.nb_streams">2</property>
  <property name="meta.media.0.stream.type">video</property>
  <property name="meta.media.0.stream.frame_rate">23.976</property>
  <property name="meta.media.0.stream.sample_aspect_ratio">1</property>
  <property name="meta.media.0.codec.width">1280</property>
  <property name="meta.media.0.codec.height">720</property>
  <property name="meta.media.0.codec.rotate">0</property>
  <property name="meta.media.0.codec.pix_fmt">yuv420p</property>
  <property name="meta.media.0.codec.sample_aspect_ratio">0</property>
  <property name="meta.media.0.codec.colorspace">709</property>
  <property name="meta.media.0.codec.color_trc">1</property>
  <property name="meta.media.0.codec.name">vp9</property>
  <property name="meta.media.0.codec.long_name">Google VP9</property>
  <property name="meta.media.0.codec.bit_rate">0</property>
  <property name="meta.attr.0.stream.language.markup">eng</property>
  <property name="meta.attr.0.stream.DURATION.markup">00:03:52.690000000</property>
  <property name="meta.media.1.stream.type">audio</property>
  <property name="meta.media.1.codec.sample_fmt">fltp</property>
  <property name="meta.media.1.codec.sample_rate">48000</property>
  <property name="meta.media.1.codec.channels">2</property>
  <property name="meta.media.1.codec.name">opus</property>
  <property name="meta.media.1.codec.long_name">Opus</property>
  <property name="meta.media.1.codec.bit_rate">0</property>
  <property name="meta.attr.1.stream.language.markup">eng</property>
  <property name="meta.attr.1.stream.DURATION.markup">00:03:52.721000000</property>
  <property name="meta.attr.ENCODER.markup">Lavf59.27.100</property>
  <property name="seekable">1</property>
  <property name="meta.media.sample_aspect_num">1</property>
  <property name="meta.media.sample_aspect_den">1</property>
  <property name="format">3</property>
  <property name="audio_index">-1</property>
  <property name="video_index">0</property>
  <property name="meta.media.frame_rate_num">24000</property>
  <property name="meta.media.frame_rate_den">1001</property>
  <property name="meta.media.colorspace">709</property>
  <property name="meta.media.color_trc">1</property>
  <property name="meta.media.has_b_frames">0</property>
  <property name="meta.media.width">1280</property>
  <property name="meta.media.height">720</property>
  <property name="meta.media.color_range">mpeg</property>
  <property name="kdenlive:clipname"/>
  <property name="meta.media.top_field_first">0</property>
  <property name="meta.media.progressive">1</property>
  <property name="kdenlive:clip_type">0</property>
  <property name="kdenlive:folderid">14</property>
  <property name="kdenlive:id">592</property>
  <property name="kdenlive:file_size">25976540</property>
  <property name="kdenlive:file_hash">f5c9a4e46e9a07515ecf1bf56e545d48</property>
  <property name="kdenlive:audio_max1">185</property>
  <property name="kdenlive:active_streams">-1</property>
  <property name="set.test_audio">1</property>
  <property name="mute_on_pause">1</property>
 </chain>
 <producer id="producer410" in="00:00:00.000" out="00:00:04.960">
  <property name="length">00:00:05.000</property>
  <property name="eof">pause</property>
  <property name="resource">citations/citations-cubism-how-to.png</property>
  <property name="ttl">25</property>
  <property name="aspect_ratio">1</property>
  <property name="progressive">1</property>
  <property name="seekable">1</property>
  <property name="format">2</property>
  <property name="meta.media.width">1920</property>
  <property name="meta.media.height">1080</property>
  <property name="mlt_service">qimage</property>
  <property name="kdenlive:clipname"/>
  <property name="kdenlive:duration">00:00:05:00</property>
  <property name="kdenlive:folderid">234</property>
  <property name="kdenlive:id">593</property>
  <property name="kdenlive:clip_type">2</property>
  <property name="kdenlive:file_size">22128</property>
  <property name="kdenlive:file_hash">0de8fba5480e1f893a08822b74e8d83f</property>
 </producer>
 <chain id="chain279" out="00:02:55.160">
  <property name="length">4380</property>
  <property name="eof">pause</property>
  <property name="resource">b-roll/XG - TGIF (Official Music Video) [IPxDgf-g9Kw].webm</property>
  <property name="mlt_service">avformat-novalidate</property>
  <property name="meta.media.nb_streams">2</property>
  <property name="meta.media.0.stream.type">video</property>
  <property name="meta.media.0.stream.frame_rate">23.976</property>
  <property name="meta.media.0.stream.sample_aspect_ratio">1</property>
  <property name="meta.media.0.codec.width">3840</property>
  <property name="meta.media.0.codec.height">2160</property>
  <property name="meta.media.0.codec.rotate">0</property>
  <property name="meta.media.0.codec.pix_fmt">yuv420p</property>
  <property name="meta.media.0.codec.sample_aspect_ratio">0</property>
  <property name="meta.media.0.codec.colorspace">709</property>
  <property name="meta.media.0.codec.color_trc">1</property>
  <property name="meta.media.0.codec.name">vp9</property>
  <property name="meta.media.0.codec.long_name">Google VP9</property>
  <property name="meta.media.0.codec.bit_rate">0</property>
  <property name="meta.attr.0.stream.language.markup">eng</property>
  <property name="meta.attr.0.stream.DURATION.markup">00:02:55.174000000</property>
  <property name="meta.media.1.stream.type">audio</property>
  <property name="meta.media.1.codec.sample_fmt">fltp</property>
  <property name="meta.media.1.codec.sample_rate">48000</property>
  <property name="meta.media.1.codec.channels">2</property>
  <property name="meta.media.1.codec.name">opus</property>
  <property name="meta.media.1.codec.long_name">Opus</property>
  <property name="meta.media.1.codec.bit_rate">0</property>
  <property name="meta.attr.1.stream.language.markup">eng</property>
  <property name="meta.attr.1.stream.DURATION.markup">00:02:55.201000000</property>
  <property name="meta.attr.ENCODER.markup">Lavf59.27.100</property>
  <property name="seekable">1</property>
  <property name="meta.media.sample_aspect_num">1</property>
  <property name="meta.media.sample_aspect_den">1</property>
  <property name="format">3</property>
  <property name="audio_index">-1</property>
  <property name="video_index">0</property>
  <property name="meta.media.frame_rate_num">24000</property>
  <property name="meta.media.frame_rate_den">1001</property>
  <property name="meta.media.colorspace">709</property>
  <property name="meta.media.color_trc">1</property>
  <property name="meta.media.has_b_frames">0</property>
  <property name="meta.media.width">3840</property>
  <property name="meta.media.height">2160</property>
  <property name="meta.media.color_range">mpeg</property>
  <property name="kdenlive:clipname"/>
  <property name="meta.media.top_field_first">0</property>
  <property name="meta.media.progressive">1</property>
  <property name="kdenlive:clip_type">0</property>
  <property name="kdenlive:folderid">14</property>
  <property name="kdenlive:id">594</property>
  <property name="kdenlive:file_size">363838802</property>
  <property name="kdenlive:file_hash">fc51ef7df1a75e948d3b50c6df7698d4</property>
  <property name="kdenlive:active_streams">-1</property>
  <property name="set.test_audio">1</property>
  <property name="kdenlive:audio_max1">249</property>
  <property name="mute_on_pause">1</property>
 </chain>
 <producer id="producer412" in="00:00:00.000" out="00:00:05.040">
  <property name="length">127</property>
  <property name="eof">pause</property>
  <property name="resource">citations/citations-tgif.png</property>
  <property name="ttl">25</property>
  <property name="aspect_ratio">1</property>
  <property name="progressive">1</property>
  <property name="seekable">1</property>
  <property name="format">2</property>
  <property name="meta.media.width">1920</property>
  <property name="meta.media.height">1080</property>
  <property name="mlt_service">qimage</property>
  <property name="kdenlive:clipname"/>
  <property name="kdenlive:duration">00:00:05:00</property>
  <property name="kdenlive:folderid">234</property>
  <property name="kdenlive:id">595</property>
  <property name="kdenlive:clip_type">2</property>
  <property name="kdenlive:file_size">24989</property>
  <property name="kdenlive:file_hash">7030d94ce076fd298089c8d176253a25</property>
 </producer>
 <producer id="producer413" in="00:00:00.000" out="00:00:04.960">
  <property name="length">00:00:05.000</property>
  <property name="eof">pause</property>
  <property name="resource">citations/citations-pottery.png</property>
  <property name="ttl">25</property>
  <property name="aspect_ratio">1</property>
  <property name="progressive">1</property>
  <property name="seekable">1</property>
  <property name="format">2</property>
  <property name="meta.media.width">1920</property>
  <property name="meta.media.height">1080</property>
  <property name="mlt_service">qimage</property>
  <property name="kdenlive:clipname"/>
  <property name="kdenlive:duration">00:00:05:00</property>
  <property name="kdenlive:folderid">234</property>
  <property name="kdenlive:id">596</property>
  <property name="kdenlive:clip_type">2</property>
  <property name="kdenlive:file_size">34681</property>
  <property name="kdenlive:file_hash">20f00144a974b8a995bec2fb6a181458</property>
 </producer>
 <chain id="chain280" out="00:13:36.200">
  <property name="length">20406</property>
  <property name="eof">pause</property>
  <property name="resource">/home/liquidzulu/Videos/yt/b-roll/Throwing and Turning a Pottery Bowl with Cross-sections â€” ASMR Version [1Gic5nYiAjM].webm</property>
  <property name="mlt_service">avformat-novalidate</property>
  <property name="meta.media.nb_streams">2</property>
  <property name="meta.media.0.stream.type">video</property>
  <property name="meta.media.0.stream.frame_rate">25</property>
  <property name="meta.media.0.stream.sample_aspect_ratio">1</property>
  <property name="meta.media.0.codec.width">1920</property>
  <property name="meta.media.0.codec.height">1080</property>
  <property name="meta.media.0.codec.rotate">0</property>
  <property name="meta.media.0.codec.pix_fmt">yuv420p</property>
  <property name="meta.media.0.codec.sample_aspect_ratio">0</property>
  <property name="meta.media.0.codec.colorspace">709</property>
  <property name="meta.media.0.codec.color_trc">1</property>
  <property name="meta.media.0.codec.name">vp9</property>
  <property name="meta.media.0.codec.long_name">Google VP9</property>
  <property name="meta.media.0.codec.bit_rate">0</property>
  <property name="meta.attr.0.stream.HANDLER_NAME.markup">ISO Media file produced by Google Inc. Created on: 01/02/2024.</property>
  <property name="meta.attr.0.stream.VENDOR_ID.markup">[0][0][0][0]</property>
  <property name="meta.attr.0.stream.DURATION.markup">00:13:36.200000000</property>
  <property name="meta.media.1.stream.type">audio</property>
  <property name="meta.media.1.codec.sample_fmt">fltp</property>
  <property name="meta.media.1.codec.sample_rate">48000</property>
  <property name="meta.media.1.codec.channels">2</property>
  <property name="meta.media.1.codec.name">opus</property>
  <property name="meta.media.1.codec.long_name">Opus</property>
  <property name="meta.media.1.codec.bit_rate">0</property>
  <property name="meta.attr.1.stream.language.markup">eng</property>
  <property name="meta.attr.1.stream.DURATION.markup">00:13:36.221000000</property>
  <property name="meta.attr.COMPATIBLE_BRANDS.markup">iso6mp41</property>
  <property name="meta.attr.MAJOR_BRAND.markup">dash</property>
  <property name="meta.attr.MINOR_VERSION.markup">0</property>
  <property name="meta.attr.ENCODER.markup">Lavf59.27.100</property>
  <property name="seekable">1</property>
  <property name="meta.media.sample_aspect_num">1</property>
  <property name="meta.media.sample_aspect_den">1</property>
  <property name="format">3</property>
  <property name="audio_index">-1</property>
  <property name="video_index">0</property>
  <property name="meta.media.frame_rate_num">25</property>
  <property name="meta.media.frame_rate_den">1</property>
  <property name="meta.media.colorspace">709</property>
  <property name="meta.media.color_trc">1</property>
  <property name="meta.media.has_b_frames">0</property>
  <property name="meta.media.width">1920</property>
  <property name="meta.media.height">1080</property>
  <property name="meta.media.color_range">mpeg</property>
  <property name="kdenlive:clipname"/>
  <property name="meta.media.top_field_first">0</property>
  <property name="meta.media.progressive">1</property>
  <property name="kdenlive:clip_type">0</property>
  <property name="kdenlive:folderid">14</property>
  <property name="kdenlive:id">597</property>
  <property name="kdenlive:file_size">178345821</property>
  <property name="kdenlive:file_hash">e31a9a9c5c6da433884bd18110937f9a</property>
  <property name="kdenlive:active_streams">-1</property>
  <property name="set.test_audio">1</property>
  <property name="kdenlive:audio_max1">185</property>
  <property name="mute_on_pause">1</property>
 </chain>
 <chain id="chain281" out="00:03:21.720">
  <property name="length">5044</property>
  <property name="eof">pause</property>
  <property name="resource">/home/liquidzulu/Videos/yt/b-roll/The Shower - Psycho (5â§¸12) Movie CLIP (1960) HD [0WtDmbr9xyY].webm</property>
  <property name="mlt_service">avformat-novalidate</property>
  <property name="meta.media.nb_streams">2</property>
  <property name="meta.media.0.stream.type">video</property>
  <property name="meta.media.0.stream.frame_rate">23.976</property>
  <property name="meta.media.0.stream.sample_aspect_ratio">1</property>
  <property name="meta.media.0.codec.width">1280</property>
  <property name="meta.media.0.codec.height">720</property>
  <property name="meta.media.0.codec.rotate">0</property>
  <property name="meta.media.0.codec.pix_fmt">yuv420p</property>
  <property name="meta.media.0.codec.sample_aspect_ratio">0</property>
  <property name="meta.media.0.codec.colorspace">709</property>
  <property name="meta.media.0.codec.color_trc">1</property>
  <property name="meta.media.0.codec.name">vp9</property>
  <property name="meta.media.0.codec.long_name">Google VP9</property>
  <property name="meta.media.0.codec.bit_rate">0</property>
  <property name="meta.attr.0.stream.language.markup">eng</property>
  <property name="meta.attr.0.stream.DURATION.markup">00:03:21.700000000</property>
  <property name="meta.media.1.stream.type">audio</property>
  <property name="meta.media.1.codec.sample_fmt">fltp</property>
  <property name="meta.media.1.codec.sample_rate">48000</property>
  <property name="meta.media.1.codec.channels">2</property>
  <property name="meta.media.1.codec.name">opus</property>
  <property name="meta.media.1.codec.long_name">Opus</property>
  <property name="meta.media.1.codec.bit_rate">0</property>
  <property name="meta.attr.1.stream.language.markup">eng</property>
  <property name="meta.attr.1.stream.DURATION.markup">00:03:21.741000000</property>
  <property name="meta.attr.ENCODER.markup">Lavf59.27.100</property>
  <property name="seekable">1</property>
  <property name="meta.media.sample_aspect_num">1</property>
  <property name="meta.media.sample_aspect_den">1</property>
  <property name="format">3</property>
  <property name="audio_index">-1</property>
  <property name="video_index">0</property>
  <property name="meta.media.frame_rate_num">24000</property>
  <property name="meta.media.frame_rate_den">1001</property>
  <property name="meta.media.colorspace">709</property>
  <property name="meta.media.color_trc">1</property>
  <property name="meta.media.has_b_frames">0</property>
  <property name="meta.media.width">1280</property>
  <property name="meta.media.height">720</property>
  <property name="meta.media.color_range">mpeg</property>
  <property name="kdenlive:clipname"/>
  <property name="meta.media.top_field_first">0</property>
  <property name="meta.media.progressive">1</property>
  <property name="kdenlive:clip_type">0</property>
  <property name="kdenlive:folderid">14</property>
  <property name="kdenlive:id">598</property>
  <property name="kdenlive:file_size">18328828</property>
  <property name="kdenlive:file_hash">0b9c45dc506e1f547b534bff3fbe0b36</property>
  <property name="kdenlive:audio_max1">175</property>
  <property name="kdenlive:active_streams">-1</property>
  <property name="set.test_audio">1</property>
  <property name="mute_on_pause">1</property>
 </chain>
 <producer id="producer414" in="00:00:00.000" out="00:00:09.680">
  <property name="length">243</property>
  <property name="eof">pause</property>
  <property name="resource">citations/citations-psycho.png</property>
  <property name="ttl">25</property>
  <property name="aspect_ratio">1</property>
  <property name="progressive">1</property>
  <property name="seekable">1</property>
  <property name="format">2</property>
  <property name="meta.media.width">1920</property>
  <property name="meta.media.height">1080</property>
  <property name="mlt_service">qimage</property>
  <property name="kdenlive:clipname"/>
  <property name="kdenlive:duration">00:00:05:00</property>
  <property name="kdenlive:folderid">234</property>
  <property name="kdenlive:id">599</property>
  <property name="kdenlive:clip_type">2</property>
  <property name="kdenlive:file_size">32300</property>
  <property name="kdenlive:file_hash">5d95224408a8bd024f01fe0399549125</property>
 </producer>
 <chain id="chain282" out="00:00:44.840">
  <property name="length">1122</property>
  <property name="eof">pause</property>
  <property name="resource">animation/output/consent-moral-requirement.mp4</property>
  <property name="mlt_service">avformat-novalidate</property>
  <property name="meta.media.nb_streams">1</property>
  <property name="meta.media.0.stream.type">video</property>
  <property name="meta.media.0.stream.frame_rate">60</property>
  <property name="meta.media.0.stream.sample_aspect_ratio">0</property>
  <property name="meta.media.0.codec.width">1920</property>
  <property name="meta.media.0.codec.height">1080</property>
  <property name="meta.media.0.codec.rotate">0</property>
  <property name="meta.media.0.codec.pix_fmt">yuv420p</property>
  <property name="meta.media.0.codec.sample_aspect_ratio">0</property>
  <property name="meta.media.0.codec.colorspace">709</property>
  <property name="meta.media.0.codec.name">h264</property>
  <property name="meta.media.0.codec.long_name">H.264 / AVC / MPEG-4 AVC / MPEG-4 part 10</property>
  <property name="meta.media.0.codec.bit_rate">255138</property>
  <property name="meta.attr.0.stream.handler_name.markup">VideoHandler</property>
  <property name="meta.attr.0.stream.vendor_id.markup">[0][0][0][0]</property>
  <property name="meta.attr.major_brand.markup">isom</property>
  <property name="meta.attr.minor_version.markup">512</property>
  <property name="meta.attr.compatible_brands.markup">isomiso2avc1mp41</property>
  <property name="meta.attr.encoder.markup">Lavf58.24.100</property>
  <property name="seekable">1</property>
  <property name="meta.media.sample_aspect_num">1</property>
  <property name="meta.media.sample_aspect_den">1</property>
  <property name="format">3</property>
  <property name="audio_index">-1</property>
  <property name="video_index">0</property>
  <property name="meta.media.frame_rate_num">60</property>
  <property name="meta.media.frame_rate_den">1</property>
  <property name="meta.media.colorspace">709</property>
  <property name="meta.media.color_trc">2</property>
  <property name="meta.media.has_b_frames">2</property>
  <property name="meta.media.width">1920</property>
  <property name="meta.media.height">1080</property>
  <property name="meta.media.color_range">mpeg</property>
  <property name="kdenlive:clipname"/>
  <property name="meta.media.top_field_first">0</property>
  <property name="meta.media.progressive">1</property>
  <property name="kdenlive:clip_type">2</property>
  <property name="kdenlive:folderid">218</property>
  <property name="kdenlive:id">600</property>
  <property name="kdenlive:file_size">1463827</property>
  <property name="kdenlive:file_hash">ca0f5b3d75ac7cd20a15f03c2c6e4988</property>
  <property name="mute_on_pause">1</property>
 </chain>
 <chain id="chain283" out="00:04:06.480">
  <property name="length">6163</property>
  <property name="eof">pause</property>
  <property name="resource">/home/liquidzulu/Music/popular-front/.Ruam [812185876].mp3</property>
  <property name="mlt_service">avformat</property>
  <property name="meta.media.nb_streams">1</property>
  <property name="meta.media.0.stream.type">audio</property>
  <property name="meta.media.0.codec.sample_fmt">fltp</property>
  <property name="meta.media.0.codec.sample_rate">44100</property>
  <property name="meta.media.0.codec.channels">2</property>
  <property name="meta.media.0.codec.name">mp3float</property>
  <property name="meta.media.0.codec.long_name">MP3 (MPEG audio layer 3)</property>
  <property name="meta.media.0.codec.bit_rate">128000</property>
  <property name="meta.attr.0.stream.encoder.markup">LAME3.100</property>
  <property name="seekable">1</property>
  <property name="audio_index">0</property>
  <property name="video_index">-1</property>
  <property name="kdenlive:clipname"/>
  <property name="kdenlive:clip_type">1</property>
  <property name="kdenlive:folderid">5</property>
  <property name="kdenlive:id">601</property>
  <property name="kdenlive:file_size">3944697</property>
  <property name="kdenlive:file_hash">10cab0c37e61ec1aead8ffc7b579ce0d</property>
  <property name="kdenlive:audio_max0">251</property>
  <property name="mute_on_pause">1</property>
 </chain>
 <chain id="chain284" out="01:29:57.600">
  <property name="length">134941</property>
  <property name="eof">pause</property>
  <property name="resource">/home/liquidzulu/Videos/yt/b-roll/Abolish Copyrights and Patentsï¼Ÿ A Soho Forum Debate [Ep2-ohgFOys].webm</property>
  <property name="mlt_service">avformat-novalidate</property>
  <property name="meta.media.nb_streams">2</property>
  <property name="meta.media.0.stream.type">video</property>
  <property name="meta.media.0.stream.frame_rate">23.976</property>
  <property name="meta.media.0.stream.sample_aspect_ratio">1</property>
  <property name="meta.media.0.codec.width">1920</property>
  <property name="meta.media.0.codec.height">1080</property>
  <property name="meta.media.0.codec.rotate">0</property>
  <property name="meta.media.0.codec.pix_fmt">yuv420p</property>
  <property name="meta.media.0.codec.sample_aspect_ratio">0</property>
  <property name="meta.media.0.codec.colorspace">709</property>
  <property name="meta.media.0.codec.color_trc">1</property>
  <property name="meta.media.0.codec.name">vp9</property>
  <property name="meta.media.0.codec.long_name">Google VP9</property>
  <property name="meta.media.0.codec.bit_rate">0</property>
  <property name="meta.attr.0.stream.language.markup">eng</property>
  <property name="meta.attr.0.stream.DURATION.markup">01:29:57.600000000</property>
  <property name="meta.media.1.stream.type">audio</property>
  <property name="meta.media.1.codec.sample_fmt">fltp</property>
  <property name="meta.media.1.codec.sample_rate">48000</property>
  <property name="meta.media.1.codec.channels">2</property>
  <property name="meta.media.1.codec.name">opus</property>
  <property name="meta.media.1.codec.long_name">Opus</property>
  <property name="meta.media.1.codec.bit_rate">0</property>
  <property name="meta.attr.1.stream.language.markup">eng</property>
  <property name="meta.attr.1.stream.DURATION.markup">01:29:57.621000000</property>
  <property name="meta.attr.ENCODER.markup">Lavf59.27.100</property>
  <property name="seekable">1</property>
  <property name="meta.media.sample_aspect_num">1</property>
  <property name="meta.media.sample_aspect_den">1</property>
  <property name="format">3</property>
  <property name="audio_index">-1</property>
  <property name="video_index">0</property>
  <property name="meta.media.frame_rate_num">24000</property>
  <property name="meta.media.frame_rate_den">1001</property>
  <property name="meta.media.colorspace">709</property>
  <property name="meta.media.color_trc">1</property>
  <property name="meta.media.has_b_frames">0</property>
  <property name="meta.media.width">1920</property>
  <property name="meta.media.height">1080</property>
  <property name="meta.media.color_range">mpeg</property>
  <property name="kdenlive:clipname"/>
  <property name="meta.media.top_field_first">0</property>
  <property name="meta.media.progressive">1</property>
  <property name="kdenlive:clip_type">0</property>
  <property name="kdenlive:folderid">14</property>
  <property name="kdenlive:id">602</property>
  <property name="kdenlive:file_size">454697174</property>
  <property name="kdenlive:file_hash">52bfb2aa4fb857f81de59c470065c552</property>
  <property name="kdenlive:active_streams">-1</property>
  <property name="set.test_audio">1</property>
  <property name="kdenlive:audio_max1">228</property>
  <property name="mute_on_pause">1</property>
 </chain>
 <producer id="producer415" in="00:00:00.000" out="00:00:08.120">
  <property name="length">204</property>
  <property name="eof">pause</property>
  <property name="resource">citations/citations-soho.png</property>
  <property name="ttl">25</property>
  <property name="aspect_ratio">1</property>
  <property name="progressive">1</property>
  <property name="seekable">1</property>
  <property name="format">2</property>
  <property name="meta.media.width">1920</property>
  <property name="meta.media.height">1080</property>
  <property name="mlt_service">qimage</property>
  <property name="kdenlive:clipname"/>
  <property name="kdenlive:duration">00:00:05:00</property>
  <property name="kdenlive:folderid">234</property>
  <property name="kdenlive:id">603</property>
  <property name="kdenlive:clip_type">2</property>
  <property name="kdenlive:file_size">29536</property>
  <property name="kdenlive:file_hash">e47971d397d79ff0241bb316c014b930</property>
 </producer>
 <chain id="chain288" out="00:00:49.040">
  <property name="length">1227</property>
  <property name="eof">pause</property>
  <property name="resource">/home/liquidzulu/Videos/yt/b-roll/Piracy it's a crime [HmZm8vNHBSU].webm</property>
  <property name="mlt_service">avformat-novalidate</property>
  <property name="meta.media.nb_streams">2</property>
  <property name="meta.media.0.stream.type">video</property>
  <property name="meta.media.0.stream.frame_rate">25</property>
  <property name="meta.media.0.stream.sample_aspect_ratio">1</property>
  <property name="meta.media.0.codec.width">854</property>
  <property name="meta.media.0.codec.height">480</property>
  <property name="meta.media.0.codec.rotate">0</property>
  <property name="meta.media.0.codec.pix_fmt">yuv420p</property>
  <property name="meta.media.0.codec.sample_aspect_ratio">0</property>
  <property name="meta.media.0.codec.colorspace">601</property>
  <property name="meta.media.0.codec.name">vp9</property>
  <property name="meta.media.0.codec.long_name">Google VP9</property>
  <property name="meta.media.0.codec.bit_rate">0</property>
  <property name="meta.attr.0.stream.language.markup">eng</property>
  <property name="meta.attr.0.stream.DURATION.markup">00:00:49.040000000</property>
  <property name="meta.media.1.stream.type">audio</property>
  <property name="meta.media.1.codec.sample_fmt">fltp</property>
  <property name="meta.media.1.codec.sample_rate">48000</property>
  <property name="meta.media.1.codec.channels">2</property>
  <property name="meta.media.1.codec.name">opus</property>
  <property name="meta.media.1.codec.long_name">Opus</property>
  <property name="meta.media.1.codec.bit_rate">0</property>
  <property name="meta.attr.1.stream.language.markup">eng</property>
  <property name="meta.attr.1.stream.DURATION.markup">00:00:49.061000000</property>
  <property name="meta.attr.ENCODER.markup">Lavf59.27.100</property>
  <property name="seekable">1</property>
  <property name="meta.media.sample_aspect_num">1</property>
  <property name="meta.media.sample_aspect_den">1</property>
  <property name="format">3</property>
  <property name="audio_index">-1</property>
  <property name="video_index">0</property>
  <property name="meta.media.frame_rate_num">25</property>
  <property name="meta.media.frame_rate_den">1</property>
  <property name="meta.media.colorspace">601</property>
  <property name="meta.media.color_trc">2</property>
  <property name="meta.media.has_b_frames">0</property>
  <property name="meta.media.width">854</property>
  <property name="meta.media.height">480</property>
  <property name="meta.media.color_range">mpeg</property>
  <property name="kdenlive:clipname"/>
  <property name="meta.media.top_field_first">0</property>
  <property name="meta.media.progressive">1</property>
  <property name="kdenlive:clip_type">0</property>
  <property name="kdenlive:folderid">14</property>
  <property name="kdenlive:id">604</property>
  <property name="kdenlive:file_size">3665124</property>
  <property name="kdenlive:file_hash">d5ad700535a1930fb1682babc2da3d82</property>
  <property name="kdenlive:audio_max1">172</property>
  <property name="kdenlive:active_streams">-1</property>
  <property name="set.test_audio">1</property>
  <property name="mute_on_pause">1</property>
 </chain>
 <producer id="producer416" in="00:00:00.000" out="00:00:19.920">
  <property name="length">499</property>
  <property name="eof">pause</property>
  <property name="resource">citations/citations-piracy.png</property>
  <property name="ttl">25</property>
  <property name="aspect_ratio">1</property>
  <property name="progressive">1</property>
  <property name="seekable">1</property>
  <property name="format">2</property>
  <property name="meta.media.width">1920</property>
  <property name="meta.media.height">1080</property>
  <property name="mlt_service">qimage</property>
  <property name="kdenlive:clipname"/>
  <property name="kdenlive:duration">00:00:05:00</property>
  <property name="kdenlive:folderid">234</property>
  <property name="kdenlive:id">605</property>
  <property name="kdenlive:clip_type">2</property>
  <property name="kdenlive:file_size">20978</property>
  <property name="kdenlive:file_hash">61c91a5fab2a7efab30d6c62611e1513</property>
 </producer>
 <producer id="producer420" in="00:00:00.000" out="00:00:13.240">
  <property name="length">332</property>
  <property name="eof">pause</property>
  <property name="progressive">1</property>
  <property name="aspect_ratio">1</property>
  <property name="seekable">1</property>
  <property name="mlt_service">kdenlivetitle</property>
  <property name="kdenlive:duration">00:00:05:00</property>
  <property name="kdenlive:clipname">consent = ag...</property>
  <property name="xmldata">&lt;kdenlivetitle duration="125" LC_NUMERIC="C" width="1920" height="1080" out="124">
 &lt;item type="QGraphicsTextItem" z-index="0">
  &lt;position x="451" y="483">
   &lt;transform>1,0,0,0,1,0,0,0,1&lt;/transform>
  &lt;/position>
  &lt;content line-spacing="0" shadow="0;#64000000;3;3;3" font-underline="0" box-height="113" font="Cubano" letter-spacing="0" font-pixel-size="94" font-italic="0" typewriter="0;2;1;0;0" alignment="4" font-weight="50" box-width="1017.39" font-color="255,255,255,255">consent = agreement&lt;/content>
 &lt;/item>
 &lt;startviewport rect="0,0,1920,1080"/>
 &lt;endviewport rect="0,0,1920,1080"/>
 &lt;background color="0,0,0,0"/>
&lt;/kdenlivetitle>
</property>
  <property name="kdenlive:folderid">21</property>
  <property name="kdenlive:id">606</property>
  <property name="kdenlive:clip_type">2</property>
  <property name="force_reload">0</property>
  <property name="meta.media.width">1920</property>
  <property name="meta.media.height">1080</property>
  <property name="kdenlive:file_hash">72d9845fe373b6e03e4d2df86d8d0ee8</property>
 </producer>
 <producer id="producer466" in="00:00:00.000" out="00:00:13.240">
  <property name="length">332</property>
  <property name="eof">pause</property>
  <property name="progressive">1</property>
  <property name="aspect_ratio">1</property>
  <property name="seekable">1</property>
  <property name="mlt_service">kdenlivetitle</property>
  <property name="kdenlive:duration">00:00:05:00</property>
  <property name="kdenlive:clipname">consent is t...</property>
  <property name="xmldata">&lt;kdenlivetitle duration="125" LC_NUMERIC="C" width="1920" height="1080" out="124">
 &lt;item type="QGraphicsTextItem" z-index="0">
  &lt;position x="213" y="427">
   &lt;transform>1,0,0,0,1,0,0,0,1&lt;/transform>
  &lt;/position>
  &lt;content line-spacing="0" shadow="0;#64000000;3;3;3" font-underline="0" box-height="226" font="Cubano" letter-spacing="0" font-pixel-size="94" font-italic="0" typewriter="0;2;1;0;0" alignment="4" font-weight="50" box-width="1493.52" font-color="255,255,255,255">"consent is the communication
of one's will to another party"&lt;/content>
 &lt;/item>
 &lt;startviewport rect="0,0,1920,1080"/>
 &lt;endviewport rect="0,0,1920,1080"/>
 &lt;background color="0,0,0,0"/>
&lt;/kdenlivetitle>
</property>
  <property name="kdenlive:folderid">21</property>
  <property name="kdenlive:id">607</property>
  <property name="kdenlive:clip_type">2</property>
  <property name="force_reload">0</property>
  <property name="meta.media.width">1920</property>
  <property name="meta.media.height">1080</property>
  <property name="kdenlive:file_hash">1a20a61905b4ba97a3d198f5d45a6780</property>
 </producer>
 <chain id="chain304" out="00:29:03.960">
  <property name="length">43600</property>
  <property name="eof">pause</property>
  <property name="resource">b-roll/Is AI Art Theftï¼Ÿ [KmYmbuL3Sbs].webm</property>
  <property name="mlt_service">avformat-novalidate</property>
  <property name="meta.media.nb_streams">2</property>
  <property name="meta.media.0.stream.type">video</property>
  <property name="meta.media.0.stream.frame_rate">29.9716</property>
  <property name="meta.media.0.stream.sample_aspect_ratio">1</property>
  <property name="meta.media.0.codec.width">1920</property>
  <property name="meta.media.0.codec.height">1080</property>
  <property name="meta.media.0.codec.rotate">0</property>
  <property name="meta.media.0.codec.pix_fmt">yuv420p</property>
  <property name="meta.media.0.codec.sample_aspect_ratio">0</property>
  <property name="meta.media.0.codec.colorspace">709</property>
  <property name="meta.media.0.codec.color_trc">1</property>
  <property name="meta.media.0.codec.name">vp9</property>
  <property name="meta.media.0.codec.long_name">Google VP9</property>
  <property name="meta.media.0.codec.bit_rate">0</property>
  <property name="meta.attr.0.stream.HANDLER_NAME.markup">ISO Media file produced by Google Inc. Created on: 01/05/2024.</property>
  <property name="meta.attr.0.stream.VENDOR_ID.markup">[0][0][0][0]</property>
  <property name="meta.attr.0.stream.DURATION.markup">00:29:03.942000000</property>
  <property name="meta.media.1.stream.type">audio</property>
  <property name="meta.media.1.codec.sample_fmt">fltp</property>
  <property name="meta.media.1.codec.sample_rate">48000</property>
  <property name="meta.media.1.codec.channels">2</property>
  <property name="meta.media.1.codec.name">opus</property>
  <property name="meta.media.1.codec.long_name">Opus</property>
  <property name="meta.media.1.codec.bit_rate">0</property>
  <property name="meta.attr.1.stream.language.markup">eng</property>
  <property name="meta.attr.1.stream.DURATION.markup">00:29:03.981000000</property>
  <property name="meta.attr.COMPATIBLE_BRANDS.markup">iso6mp41</property>
  <property name="meta.attr.MAJOR_BRAND.markup">dash</property>
  <property name="meta.attr.MINOR_VERSION.markup">0</property>
  <property name="meta.attr.ENCODER.markup">Lavf59.27.100</property>
  <property name="seekable">1</property>
  <property name="meta.media.sample_aspect_num">1</property>
  <property name="meta.media.sample_aspect_den">1</property>
  <property name="format">3</property>
  <property name="audio_index">-1</property>
  <property name="video_index">0</property>
  <property name="meta.media.frame_rate_num">25326</property>
  <property name="meta.media.frame_rate_den">845</property>
  <property name="meta.media.colorspace">709</property>
  <property name="meta.media.color_trc">1</property>
  <property name="meta.media.has_b_frames">0</property>
  <property name="meta.media.width">1920</property>
  <property name="meta.media.height">1080</property>
  <property name="meta.media.color_range">mpeg</property>
  <property name="kdenlive:clipname"/>
  <property name="meta.media.top_field_first">0</property>
  <property name="meta.media.progressive">1</property>
  <property name="kdenlive:clip_type">0</property>
  <property name="kdenlive:folderid">14</property>
  <property name="kdenlive:id">608</property>
  <property name="kdenlive:file_size">243580271</property>
  <property name="kdenlive:file_hash">e72f145c1c9ff6689620192bf25166ec</property>
  <property name="kdenlive:active_streams">-1</property>
  <property name="set.test_audio">1</property>
  <property name="kdenlive:audio_max1">195</property>
  <property name="mute_on_pause">1</property>
 </chain>
 <producer id="producer421" in="00:00:00.000" out="00:00:09.720">
  <property name="length">244</property>
  <property name="eof">pause</property>
  <property name="resource">citations/citations-tos.png</property>
  <property name="ttl">25</property>
  <property name="aspect_ratio">1</property>
  <property name="progressive">1</property>
  <property name="seekable">1</property>
  <property name="format">2</property>
  <property name="meta.media.width">1920</property>
  <property name="meta.media.height">1080</property>
  <property name="mlt_service">qimage</property>
  <property name="kdenlive:clipname"/>
  <property name="kdenlive:duration">00:00:05:00</property>
  <property name="kdenlive:folderid">234</property>
  <property name="kdenlive:id">609</property>
  <property name="kdenlive:clip_type">2</property>
  <property name="kdenlive:file_size">22097</property>
  <property name="kdenlive:file_hash">5f9d234466c47b4c23d91753bf5d2a19</property>
 </producer>
 <producer id="producer526" in="00:00:00.000" out="00:00:19.680">
  <property name="length">00:00:19.720</property>
  <property name="eof">pause</property>
  <property name="resource">/home/liquidzulu/Pictures/yt/animation/output/project/footnotes/footnote-41/.all.png</property>
  <property name="ttl">1</property>
  <property name="aspect_ratio">1</property>
  <property name="progressive">1</property>
  <property name="seekable">1</property>
  <property name="format">2</property>
  <property name="meta.media.width">1920</property>
  <property name="meta.media.height">1080</property>
  <property name="mlt_service">qimage</property>
  <property name="kdenlive:clipname">footnote-41</property>
  <property name="low-pass">0</property>
  <property name="animation"/>
  <property name="luma_file"/>
  <property name="luma_duration">25</property>
  <property name="fade">0</property>
  <property name="crop">0</property>
  <property name="softness">0</property>
  <property name="loop">0</property>
  <property name="kdenlive:duration">00:00:19:18</property>
  <property name="kdenlive:folderid">273</property>
  <property name="kdenlive:id">610</property>
  <property name="kdenlive:clip_type">2</property>
  <property name="kdenlive:file_hash">901b028ade20f3a8133026210ceb2a8c</property>
 </producer>
 <chain id="chain308" out="00:01:02.400">
  <property name="length">1561</property>
  <property name="eof">pause</property>
  <property name="resource">animation/output/laion.mp4</property>
  <property name="mlt_service">avformat-novalidate</property>
  <property name="meta.media.nb_streams">1</property>
  <property name="meta.media.0.stream.type">video</property>
  <property name="meta.media.0.stream.frame_rate">60</property>
  <property name="meta.media.0.stream.sample_aspect_ratio">0</property>
  <property name="meta.media.0.codec.width">1920</property>
  <property name="meta.media.0.codec.height">1080</property>
  <property name="meta.media.0.codec.rotate">0</property>
  <property name="meta.media.0.codec.pix_fmt">yuv420p</property>
  <property name="meta.media.0.codec.sample_aspect_ratio">0</property>
  <property name="meta.media.0.codec.colorspace">709</property>
  <property name="meta.media.0.codec.name">h264</property>
  <property name="meta.media.0.codec.long_name">H.264 / AVC / MPEG-4 AVC / MPEG-4 part 10</property>
  <property name="meta.media.0.codec.bit_rate">14729580</property>
  <property name="meta.attr.0.stream.handler_name.markup">VideoHandler</property>
  <property name="meta.attr.0.stream.vendor_id.markup">[0][0][0][0]</property>
  <property name="meta.attr.major_brand.markup">isom</property>
  <property name="meta.attr.minor_version.markup">512</property>
  <property name="meta.attr.compatible_brands.markup">isomiso2avc1mp41</property>
  <property name="meta.attr.encoder.markup">Lavf58.24.100</property>
  <property name="seekable">1</property>
  <property name="meta.media.sample_aspect_num">1</property>
  <property name="meta.media.sample_aspect_den">1</property>
  <property name="format">3</property>
  <property name="audio_index">-1</property>
  <property name="video_index">0</property>
  <property name="meta.media.frame_rate_num">60</property>
  <property name="meta.media.frame_rate_den">1</property>
  <property name="meta.media.colorspace">709</property>
  <property name="meta.media.color_trc">2</property>
  <property name="meta.media.has_b_frames">2</property>
  <property name="meta.media.width">1920</property>
  <property name="meta.media.height">1080</property>
  <property name="meta.media.color_range">mpeg</property>
  <property name="kdenlive:clipname"/>
  <property name="meta.media.top_field_first">0</property>
  <property name="meta.media.progressive">1</property>
  <property name="kdenlive:clip_type">2</property>
  <property name="kdenlive:folderid">218</property>
  <property name="kdenlive:id">611</property>
  <property name="kdenlive:file_size">115000503</property>
  <property name="kdenlive:file_hash">6638235f9f9e3266d10b82319e2c2ed4</property>
  <property name="mute_on_pause">1</property>
 </chain>
 <producer id="producer473" in="00:00:00.000" out="00:00:22.120">
  <property name="length">554</property>
  <property name="eof">pause</property>
  <property name="resource">images/laion.png</property>
  <property name="ttl">25</property>
  <property name="aspect_ratio">1</property>
  <property name="progressive">1</property>
  <property name="seekable">1</property>
  <property name="format">2</property>
  <property name="meta.media.width">1280</property>
  <property name="meta.media.height">892</property>
  <property name="mlt_service">qimage</property>
  <property name="kdenlive:clipname"/>
  <property name="kdenlive:duration">00:00:05:00</property>
  <property name="kdenlive:folderid">28</property>
  <property name="kdenlive:id">612</property>
  <property name="kdenlive:clip_type">2</property>
  <property name="kdenlive:file_size">658597</property>
  <property name="kdenlive:file_hash">9565e7820199bf8a85aac07c69e1f660</property>
 </producer>
 <chain id="chain305" out="00:05:00.440">
  <property name="length">7512</property>
  <property name="eof">pause</property>
  <property name="resource">b-roll/Common Crawl Video [ozX4GvUWDm4].mkv</property>
  <property name="mlt_service">avformat-novalidate</property>
  <property name="meta.media.nb_streams">2</property>
  <property name="meta.media.0.stream.type">video</property>
  <property name="meta.media.0.stream.frame_rate">24</property>
  <property name="meta.media.0.stream.sample_aspect_ratio">1</property>
  <property name="meta.media.0.codec.width">1280</property>
  <property name="meta.media.0.codec.height">720</property>
  <property name="meta.media.0.codec.rotate">0</property>
  <property name="meta.media.0.codec.pix_fmt">yuv420p</property>
  <property name="meta.media.0.codec.sample_aspect_ratio">1</property>
  <property name="meta.media.0.codec.colorspace">709</property>
  <property name="meta.media.0.codec.color_trc">1</property>
  <property name="meta.media.0.codec.name">h264</property>
  <property name="meta.media.0.codec.long_name">H.264 / AVC / MPEG-4 AVC / MPEG-4 part 10</property>
  <property name="meta.media.0.codec.bit_rate">0</property>
  <property name="meta.attr.0.stream.HANDLER_NAME.markup">ISO Media file produced by Google Inc.</property>
  <property name="meta.attr.0.stream.VENDOR_ID.markup">[0][0][0][0]</property>
  <property name="meta.attr.0.stream.DURATION.markup">00:05:00.459000000</property>
  <property name="meta.media.1.stream.type">audio</property>
  <property name="meta.media.1.codec.sample_fmt">fltp</property>
  <property name="meta.media.1.codec.sample_rate">48000</property>
  <property name="meta.media.1.codec.channels">2</property>
  <property name="meta.media.1.codec.name">opus</property>
  <property name="meta.media.1.codec.long_name">Opus</property>
  <property name="meta.media.1.codec.bit_rate">0</property>
  <property name="meta.attr.1.stream.language.markup">eng</property>
  <property name="meta.attr.1.stream.DURATION.markup">00:05:00.481000000</property>
  <property name="meta.attr.COMPATIBLE_BRANDS.markup">iso6avc1mp41</property>
  <property name="meta.attr.MAJOR_BRAND.markup">dash</property>
  <property name="meta.attr.MINOR_VERSION.markup">0</property>
  <property name="meta.attr.ENCODER.markup">Lavf59.27.100</property>
  <property name="seekable">1</property>
  <property name="meta.media.sample_aspect_num">1</property>
  <property name="meta.media.sample_aspect_den">1</property>
  <property name="format">3</property>
  <property name="audio_index">-1</property>
  <property name="video_index">0</property>
  <property name="meta.media.frame_rate_num">24</property>
  <property name="meta.media.frame_rate_den">1</property>
  <property name="meta.media.colorspace">709</property>
  <property name="meta.media.color_trc">1</property>
  <property name="meta.media.has_b_frames">1</property>
  <property name="meta.media.width">1280</property>
  <property name="meta.media.height">720</property>
  <property name="meta.media.color_range">mpeg</property>
  <property name="kdenlive:clipname"/>
  <property name="meta.media.top_field_first">0</property>
  <property name="meta.media.progressive">1</property>
  <property name="kdenlive:clip_type">0</property>
  <property name="kdenlive:folderid">14</property>
  <property name="kdenlive:id">613</property>
  <property name="kdenlive:file_size">40521421</property>
  <property name="kdenlive:file_hash">340f8b51a9d167ae2d42000d305e5125</property>
  <property name="kdenlive:audio_max1">175</property>
  <property name="kdenlive:active_streams">-1</property>
  <property name="set.test_audio">1</property>
  <property name="mute_on_pause">1</property>
 </chain>
 <producer id="producer474" in="00:00:00.000" out="00:00:35.320">
  <property name="length">884</property>
  <property name="eof">pause</property>
  <property name="resource">citations/citations-common.png</property>
  <property name="ttl">25</property>
  <property name="aspect_ratio">1</property>
  <property name="progressive">1</property>
  <property name="seekable">1</property>
  <property name="format">2</property>
  <property name="meta.media.width">1920</property>
  <property name="meta.media.height">1080</property>
  <property name="mlt_service">qimage</property>
  <property name="kdenlive:clipname"/>
  <property name="kdenlive:duration">00:00:05:00</property>
  <property name="kdenlive:folderid">234</property>
  <property name="kdenlive:id">614</property>
  <property name="kdenlive:clip_type">2</property>
  <property name="kdenlive:file_size">20133</property>
  <property name="kdenlive:file_hash">0126b78e4b85ffc55e1a6318c4ab0cdd</property>
 </producer>
 <producer id="producer527" in="00:00:00.000" out="00:00:19.680">
  <property name="length">00:00:19.720</property>
  <property name="eof">pause</property>
  <property name="resource">/home/liquidzulu/Pictures/yt/animation/output/project/footnotes/footnote-42/.all.png</property>
  <property name="ttl">1</property>
  <property name="aspect_ratio">1</property>
  <property name="progressive">1</property>
  <property name="seekable">1</property>
  <property name="format">2</property>
  <property name="meta.media.width">1920</property>
  <property name="meta.media.height">1080</property>
  <property name="mlt_service">qimage</property>
  <property name="kdenlive:clipname">footnote-42</property>
  <property name="low-pass">0</property>
  <property name="animation"/>
  <property name="luma_file"/>
  <property name="luma_duration">25</property>
  <property name="fade">0</property>
  <property name="crop">0</property>
  <property name="softness">0</property>
  <property name="loop">0</property>
  <property name="kdenlive:duration">00:00:19:18</property>
  <property name="kdenlive:folderid">273</property>
  <property name="kdenlive:id">615</property>
  <property name="kdenlive:clip_type">2</property>
  <property name="kdenlive:file_hash">776900fb349b0acf4ef5a72043f674ea</property>
 </producer>
 <producer id="producer528" in="00:00:00.000" out="00:00:19.680">
  <property name="length">00:00:19.720</property>
  <property name="eof">pause</property>
  <property name="resource">/home/liquidzulu/Pictures/yt/animation/output/project/footnotes/footnote-43/%06d.png</property>
  <property name="ttl">1</property>
  <property name="aspect_ratio">1</property>
  <property name="progressive">1</property>
  <property name="seekable">1</property>
  <property name="format">2</property>
  <property name="meta.media.width">1920</property>
  <property name="meta.media.height">1080</property>
  <property name="mlt_service">qimage</property>
  <property name="kdenlive:clipname">footnote-43</property>
  <property name="low-pass">0</property>
  <property name="animation"/>
  <property name="luma_file"/>
  <property name="luma_duration">25</property>
  <property name="fade">0</property>
  <property name="crop">0</property>
  <property name="softness">0</property>
  <property name="loop">0</property>
  <property name="kdenlive:duration">00:00:19:18</property>
  <property name="kdenlive:folderid">273</property>
  <property name="kdenlive:id">616</property>
  <property name="kdenlive:clip_type">2</property>
  <property name="kdenlive:file_hash">c67a8929dd5b25b775f74561f1a4d478</property>
 </producer>
 <chain id="chain306" out="00:03:21.360">
  <property name="length">5035</property>
  <property name="eof">pause</property>
  <property name="resource">videos/artstation scrollthrough.mkv</property>
  <property name="mlt_service">avformat-novalidate</property>
  <property name="meta.media.nb_streams">2</property>
  <property name="meta.media.0.stream.type">video</property>
  <property name="meta.media.0.stream.frame_rate">60</property>
  <property name="meta.media.0.stream.sample_aspect_ratio">0</property>
  <property name="meta.media.0.codec.width">1920</property>
  <property name="meta.media.0.codec.height">1080</property>
  <property name="meta.media.0.codec.rotate">0</property>
  <property name="meta.media.0.codec.pix_fmt">yuv420p</property>
  <property name="meta.media.0.codec.sample_aspect_ratio">1</property>
  <property name="meta.media.0.codec.colorspace">709</property>
  <property name="meta.media.0.codec.color_trc">1</property>
  <property name="meta.media.0.codec.name">h264</property>
  <property name="meta.media.0.codec.long_name">H.264 / AVC / MPEG-4 AVC / MPEG-4 part 10</property>
  <property name="meta.media.0.codec.bit_rate">0</property>
  <property name="meta.attr.0.stream.DURATION.markup">00:03:21.417000000</property>
  <property name="meta.media.1.stream.type">audio</property>
  <property name="meta.media.1.codec.sample_fmt">fltp</property>
  <property name="meta.media.1.codec.sample_rate">48000</property>
  <property name="meta.media.1.codec.channels">1</property>
  <property name="meta.media.1.codec.name">aac</property>
  <property name="meta.media.1.codec.long_name">AAC (Advanced Audio Coding)</property>
  <property name="meta.media.1.codec.bit_rate">0</property>
  <property name="meta.attr.1.stream.title.markup">simple_aac_recording</property>
  <property name="meta.attr.1.stream.DURATION.markup">00:03:21.386000000</property>
  <property name="meta.attr.ENCODER.markup">Lavf59.27.100</property>
  <property name="seekable">1</property>
  <property name="meta.media.sample_aspect_num">1</property>
  <property name="meta.media.sample_aspect_den">1</property>
  <property name="format">3</property>
  <property name="audio_index">-1</property>
  <property name="video_index">0</property>
  <property name="meta.media.frame_rate_num">60</property>
  <property name="meta.media.frame_rate_den">1</property>
  <property name="meta.media.colorspace">709</property>
  <property name="meta.media.color_trc">1</property>
  <property name="meta.media.has_b_frames">2</property>
  <property name="meta.media.width">1920</property>
  <property name="meta.media.height">1080</property>
  <property name="meta.media.color_range">mpeg</property>
  <property name="kdenlive:clipname"/>
  <property name="meta.media.top_field_first">0</property>
  <property name="meta.media.progressive">1</property>
  <property name="kdenlive:clip_type">0</property>
  <property name="kdenlive:folderid">14</property>
  <property name="kdenlive:id">617</property>
  <property name="kdenlive:file_size">365884833</property>
  <property name="kdenlive:file_hash">5a6fced1ba3cf354007fb562bde2cc3b</property>
  <property name="kdenlive:audio_max1">104</property>
  <property name="kdenlive:active_streams">-1</property>
  <property name="set.test_audio">1</property>
  <property name="mute_on_pause">1</property>
 </chain>
 <producer id="producer520" in="00:00:00.000" out="00:00:04.960">
  <property name="length">00:00:05.000</property>
  <property name="eof">pause</property>
  <property name="resource">images/logo-artstation.xcf</property>
  <property name="ttl">25</property>
  <property name="aspect_ratio">1</property>
  <property name="progressive">1</property>
  <property name="seekable">1</property>
  <property name="format">2</property>
  <property name="meta.media.width">606</property>
  <property name="meta.media.height">546</property>
  <property name="mlt_service">qimage</property>
  <property name="kdenlive:clipname"/>
  <property name="kdenlive:duration">00:00:05:00</property>
  <property name="kdenlive:folderid">28</property>
  <property name="kdenlive:id">618</property>
  <property name="kdenlive:clip_type">2</property>
  <property name="kdenlive:file_size">151755</property>
  <property name="kdenlive:file_hash">881398f897b25bb2720de21b7a6b93ea</property>
 </producer>
 <producer id="producer512" in="00:00:00.000" out="00:00:05.960">
  <property name="length">150</property>
  <property name="eof">pause</property>
  <property name="resource">images/logo-deviantart.xcf</property>
  <property name="ttl">25</property>
  <property name="aspect_ratio">1</property>
  <property name="progressive">1</property>
  <property name="seekable">1</property>
  <property name="format">2</property>
  <property name="meta.media.width">606</property>
  <property name="meta.media.height">947</property>
  <property name="mlt_service">qimage</property>
  <property name="kdenlive:clipname"/>
  <property name="kdenlive:duration">00:00:05:00</property>
  <property name="kdenlive:folderid">28</property>
  <property name="kdenlive:id">619</property>
  <property name="kdenlive:clip_type">2</property>
  <property name="kdenlive:file_size">114921</property>
  <property name="kdenlive:file_hash">8107bfbb3c3e26a1de2c0b3c6b26fd49</property>
 </producer>
 <producer id="producer478" in="00:00:00.000" out="00:00:06.200">
  <property name="length">156</property>
  <property name="eof">pause</property>
  <property name="resource">images/logo-twitter.xcf</property>
  <property name="ttl">25</property>
  <property name="aspect_ratio">1</property>
  <property name="progressive">1</property>
  <property name="seekable">1</property>
  <property name="format">2</property>
  <property name="meta.media.width">606</property>
  <property name="meta.media.height">515</property>
  <property name="mlt_service">qimage</property>
  <property name="kdenlive:clipname"/>
  <property name="kdenlive:duration">00:00:05:00</property>
  <property name="kdenlive:folderid">28</property>
  <property name="kdenlive:id">620</property>
  <property name="kdenlive:clip_type">2</property>
  <property name="kdenlive:file_size">92801</property>
  <property name="kdenlive:file_hash">ac5cb01fa4b374800ab4677c71a1d32b</property>
 </producer>
 <chain id="chain307" out="00:01:16.800">
  <property name="length">1921</property>
  <property name="eof">pause</property>
  <property name="resource">/home/liquidzulu/Videos/yt/b-roll/CBeebies ï½œ Do You Knowï¼Ÿ ï½œ Posting a letter [w9jypk-wc-Y].webm</property>
  <property name="mlt_service">avformat-novalidate</property>
  <property name="meta.media.nb_streams">2</property>
  <property name="meta.media.0.stream.type">video</property>
  <property name="meta.media.0.stream.frame_rate">25</property>
  <property name="meta.media.0.stream.sample_aspect_ratio">1</property>
  <property name="meta.media.0.codec.width">1920</property>
  <property name="meta.media.0.codec.height">1080</property>
  <property name="meta.media.0.codec.rotate">0</property>
  <property name="meta.media.0.codec.pix_fmt">yuv420p</property>
  <property name="meta.media.0.codec.sample_aspect_ratio">0</property>
  <property name="meta.media.0.codec.colorspace">709</property>
  <property name="meta.media.0.codec.color_trc">1</property>
  <property name="meta.media.0.codec.name">vp9</property>
  <property name="meta.media.0.codec.long_name">Google VP9</property>
  <property name="meta.media.0.codec.bit_rate">0</property>
  <property name="meta.attr.0.stream.language.markup">eng</property>
  <property name="meta.attr.0.stream.DURATION.markup">00:01:16.800000000</property>
  <property name="meta.media.1.stream.type">audio</property>
  <property name="meta.media.1.codec.sample_fmt">fltp</property>
  <property name="meta.media.1.codec.sample_rate">48000</property>
  <property name="meta.media.1.codec.channels">2</property>
  <property name="meta.media.1.codec.name">opus</property>
  <property name="meta.media.1.codec.long_name">Opus</property>
  <property name="meta.media.1.codec.bit_rate">0</property>
  <property name="meta.attr.1.stream.language.markup">eng</property>
  <property name="meta.attr.1.stream.DURATION.markup">00:01:16.821000000</property>
  <property name="meta.attr.ENCODER.markup">Lavf59.27.100</property>
  <property name="seekable">1</property>
  <property name="meta.media.sample_aspect_num">1</property>
  <property name="meta.media.sample_aspect_den">1</property>
  <property name="format">3</property>
  <property name="audio_index">-1</property>
  <property name="video_index">0</property>
  <property name="meta.media.frame_rate_num">25</property>
  <property name="meta.media.frame_rate_den">1</property>
  <property name="meta.media.colorspace">709</property>
  <property name="meta.media.color_trc">1</property>
  <property name="meta.media.has_b_frames">0</property>
  <property name="meta.media.width">1920</property>
  <property name="meta.media.height">1080</property>
  <property name="meta.media.color_range">mpeg</property>
  <property name="kdenlive:clipname"/>
  <property name="meta.media.top_field_first">0</property>
  <property name="meta.media.progressive">1</property>
  <property name="kdenlive:clip_type">0</property>
  <property name="kdenlive:folderid">14</property>
  <property name="kdenlive:id">621</property>
  <property name="kdenlive:file_size">23547763</property>
  <property name="kdenlive:file_hash">2978581ae6b2865e81a06fc13fcad68e</property>
  <property name="kdenlive:audio_max1">179</property>
  <property name="kdenlive:active_streams">-1</property>
  <property name="set.test_audio">1</property>
  <property name="mute_on_pause">1</property>
 </chain>
 <producer id="producer428" in="00:00:00.000" out="00:00:12.280">
  <property name="length">308</property>
  <property name="eof">pause</property>
  <property name="resource">citations/citations-letter.png</property>
  <property name="ttl">25</property>
  <property name="aspect_ratio">1</property>
  <property name="progressive">1</property>
  <property name="seekable">1</property>
  <property name="format">2</property>
  <property name="meta.media.width">1920</property>
  <property name="meta.media.height">1080</property>
  <property name="mlt_service">qimage</property>
  <property name="kdenlive:clipname"/>
  <property name="kdenlive:duration">00:00:05:00</property>
  <property name="kdenlive:folderid">234</property>
  <property name="kdenlive:id">622</property>
  <property name="kdenlive:clip_type">2</property>
  <property name="kdenlive:file_size">27378</property>
  <property name="kdenlive:file_hash">d7f6e441a6c7198377d2b21d1c82903c</property>
 </producer>
 <producer id="producer457" in="00:00:00.000" out="00:00:06.800">
  <property name="length">171</property>
  <property name="eof">pause</property>
  <property name="resource">images/human.xcf</property>
  <property name="ttl">25</property>
  <property name="aspect_ratio">1</property>
  <property name="progressive">1</property>
  <property name="seekable">1</property>
  <property name="format">2</property>
  <property name="meta.media.width">606</property>
  <property name="meta.media.height">1030</property>
  <property name="mlt_service">qimage</property>
  <property name="kdenlive:clipname"/>
  <property name="kdenlive:duration">00:00:05:00</property>
  <property name="kdenlive:folderid">28</property>
  <property name="kdenlive:id">623</property>
  <property name="kdenlive:clip_type">2</property>
  <property name="kdenlive:file_size">992278</property>
  <property name="kdenlive:file_hash">6a82f3a06ebb22441fde8b0d1c3a4217</property>
 </producer>
 <producer id="producer477" in="00:00:00.000" out="00:00:04.960">
  <property name="length">00:00:05.000</property>
  <property name="eof">pause</property>
  <property name="resource">images/karen.xcf</property>
  <property name="ttl">25</property>
  <property name="aspect_ratio">1</property>
  <property name="progressive">1</property>
  <property name="seekable">1</property>
  <property name="format">2</property>
  <property name="meta.media.width">606</property>
  <property name="meta.media.height">1058</property>
  <property name="mlt_service">qimage</property>
  <property name="kdenlive:clipname"/>
  <property name="kdenlive:duration">00:00:05:00</property>
  <property name="kdenlive:folderid">28</property>
  <property name="kdenlive:id">624</property>
  <property name="kdenlive:clip_type">2</property>
  <property name="kdenlive:file_size">645152</property>
  <property name="kdenlive:file_hash">e101b7f3dd7b15fa3f5160956b581d55</property>
 </producer>
 <producer id="producer494" in="00:00:00.000" out="00:00:13.240">
  <property name="length">332</property>
  <property name="eof">pause</property>
  <property name="progressive">1</property>
  <property name="aspect_ratio">1</property>
  <property name="seekable">1</property>
  <property name="mlt_service">kdenlivetitle</property>
  <property name="kdenlive:duration">00:00:05:00</property>
  <property name="kdenlive:clipname">*the robots</property>
  <property name="xmldata">&lt;kdenlivetitle duration="125" LC_NUMERIC="C" width="1920" height="1080" out="124">
 &lt;item type="QGraphicsTextItem" z-index="0">
  &lt;position x="706" y="489">
   &lt;transform>1,0,0,0,1,0,0,0,1&lt;/transform>
  &lt;/position>
  &lt;content line-spacing="0" shadow="0;#64000000;3;3;3" font-underline="0" box-height="102" font-outline-color="0,0,0,255" font="Cubano" letter-spacing="0" font-pixel-size="85" font-italic="0" typewriter="0;2;1;0;0" alignment="4" font-weight="50" font-outline="5" box-width="502.813" font-color="255,255,255,255">*the robots&lt;/content>
 &lt;/item>
 &lt;startviewport rect="0,0,1920,1080"/>
 &lt;endviewport rect="0,0,1920,1080"/>
 &lt;background color="0,0,0,0"/>
&lt;/kdenlivetitle>
</property>
  <property name="kdenlive:folderid">21</property>
  <property name="kdenlive:id">625</property>
  <property name="kdenlive:clip_type">2</property>
  <property name="force_reload">0</property>
  <property name="meta.media.width">1920</property>
  <property name="meta.media.height">1080</property>
  <property name="kdenlive:file_hash">8aad2080a0eafcb71baa8fd3b8b11eb3</property>
 </producer>
 <chain id="chain309" out="00:04:30.000">
  <property name="length">6751</property>
  <property name="eof">pause</property>
  <property name="resource">/home/liquidzulu/Music/lifeformed/ï¼‚Forest Spirit Friendsï¼‚ - Lifeformed &amp; Vidboy (Groupees Collaboration) [178536307].mp3</property>
  <property name="mlt_service">avformat</property>
  <property name="meta.media.nb_streams">1</property>
  <property name="meta.media.0.stream.type">audio</property>
  <property name="meta.media.0.codec.sample_fmt">fltp</property>
  <property name="meta.media.0.codec.sample_rate">44100</property>
  <property name="meta.media.0.codec.channels">2</property>
  <property name="meta.media.0.codec.name">mp3float</property>
  <property name="meta.media.0.codec.long_name">MP3 (MPEG audio layer 3)</property>
  <property name="meta.media.0.codec.bit_rate">128000</property>
  <property name="meta.attr.0.stream.encoder.markup">LAME3.99r</property>
  <property name="seekable">1</property>
  <property name="audio_index">0</property>
  <property name="video_index">-1</property>
  <property name="kdenlive:clipname"/>
  <property name="kdenlive:clip_type">1</property>
  <property name="kdenlive:folderid">5</property>
  <property name="kdenlive:id">626</property>
  <property name="kdenlive:file_size">4320861</property>
  <property name="kdenlive:file_hash">4fec038716d68a4ccd0e23a4482b63ea</property>
  <property name="kdenlive:audio_max0">230</property>
  <property name="mute_on_pause">1</property>
 </chain>
 <chain id="chain310" out="00:01:25.160">
  <property name="length">2130</property>
  <property name="eof">pause</property>
  <property name="resource">/home/liquidzulu/Videos/yt/b-roll/little dark age - architecture [FC65UiWfwGM].webm</property>
  <property name="mlt_service">avformat-novalidate</property>
  <property name="meta.media.nb_streams">2</property>
  <property name="meta.media.0.stream.type">video</property>
  <property name="meta.media.0.stream.frame_rate">25</property>
  <property name="meta.media.0.stream.sample_aspect_ratio">1</property>
  <property name="meta.media.0.codec.width">1920</property>
  <property name="meta.media.0.codec.height">1080</property>
  <property name="meta.media.0.codec.rotate">0</property>
  <property name="meta.media.0.codec.pix_fmt">yuv420p</property>
  <property name="meta.media.0.codec.sample_aspect_ratio">0</property>
  <property name="meta.media.0.codec.colorspace">709</property>
  <property name="meta.media.0.codec.color_trc">1</property>
  <property name="meta.media.0.codec.name">vp9</property>
  <property name="meta.media.0.codec.long_name">Google VP9</property>
  <property name="meta.media.0.codec.bit_rate">0</property>
  <property name="meta.attr.0.stream.language.markup">eng</property>
  <property name="meta.attr.0.stream.DURATION.markup">00:01:25.160000000</property>
  <property name="meta.media.1.stream.type">audio</property>
  <property name="meta.media.1.codec.sample_fmt">fltp</property>
  <property name="meta.media.1.codec.sample_rate">48000</property>
  <property name="meta.media.1.codec.channels">2</property>
  <property name="meta.media.1.codec.name">opus</property>
  <property name="meta.media.1.codec.long_name">Opus</property>
  <property name="meta.media.1.codec.bit_rate">0</property>
  <property name="meta.attr.1.stream.language.markup">eng</property>
  <property name="meta.attr.1.stream.DURATION.markup">00:01:25.181000000</property>
  <property name="meta.attr.ENCODER.markup">Lavf59.27.100</property>
  <property name="seekable">1</property>
  <property name="meta.media.sample_aspect_num">1</property>
  <property name="meta.media.sample_aspect_den">1</property>
  <property name="format">3</property>
  <property name="audio_index">-1</property>
  <property name="video_index">0</property>
  <property name="meta.media.frame_rate_num">25</property>
  <property name="meta.media.frame_rate_den">1</property>
  <property name="meta.media.colorspace">709</property>
  <property name="meta.media.color_trc">1</property>
  <property name="meta.media.has_b_frames">0</property>
  <property name="meta.media.width">1920</property>
  <property name="meta.media.height">1080</property>
  <property name="meta.media.color_range">mpeg</property>
  <property name="kdenlive:clipname"/>
  <property name="meta.media.top_field_first">0</property>
  <property name="meta.media.progressive">1</property>
  <property name="kdenlive:clip_type">0</property>
  <property name="kdenlive:folderid">14</property>
  <property name="kdenlive:id">627</property>
  <property name="kdenlive:file_size">35527921</property>
  <property name="kdenlive:file_hash">0cb7983636a6cef33c7c684a8668960e</property>
  <property name="kdenlive:audio_max1">242</property>
  <property name="kdenlive:active_streams">-1</property>
  <property name="set.test_audio">1</property>
  <property name="mute_on_pause">1</property>
 </chain>
 <producer id="producer458" in="00:00:00.000" out="00:00:07.440">
  <property name="length">187</property>
  <property name="eof">pause</property>
  <property name="resource">citations/citations-architecture.png</property>
  <property name="ttl">25</property>
  <property name="aspect_ratio">1</property>
  <property name="progressive">1</property>
  <property name="seekable">1</property>
  <property name="format">2</property>
  <property name="meta.media.width">1920</property>
  <property name="meta.media.height">1080</property>
  <property name="mlt_service">qimage</property>
  <property name="kdenlive:clipname"/>
  <property name="kdenlive:duration">00:00:05:00</property>
  <property name="kdenlive:folderid">234</property>
  <property name="kdenlive:id">628</property>
  <property name="kdenlive:clip_type">2</property>
  <property name="kdenlive:file_size">21962</property>
  <property name="kdenlive:file_hash">fcd9111fb6863381cffde2774ca54e15</property>
 </producer>
 <chain id="chain311" out="00:00:48.720">
  <property name="length">1219</property>
  <property name="eof">pause</property>
  <property name="resource">animation/output/solar-syllogism.mp4</property>
  <property name="mlt_service">avformat-novalidate</property>
  <property name="meta.media.nb_streams">1</property>
  <property name="meta.media.0.stream.type">video</property>
  <property name="meta.media.0.stream.frame_rate">60</property>
  <property name="meta.media.0.stream.sample_aspect_ratio">0</property>
  <property name="meta.media.0.codec.width">1920</property>
  <property name="meta.media.0.codec.height">1080</property>
  <property name="meta.media.0.codec.rotate">0</property>
  <property name="meta.media.0.codec.pix_fmt">yuv420p</property>
  <property name="meta.media.0.codec.sample_aspect_ratio">0</property>
  <property name="meta.media.0.codec.colorspace">709</property>
  <property name="meta.media.0.codec.name">h264</property>
  <property name="meta.media.0.codec.long_name">H.264 / AVC / MPEG-4 AVC / MPEG-4 part 10</property>
  <property name="meta.media.0.codec.bit_rate">412109</property>
  <property name="meta.attr.0.stream.handler_name.markup">VideoHandler</property>
  <property name="meta.attr.0.stream.vendor_id.markup">[0][0][0][0]</property>
  <property name="meta.attr.major_brand.markup">isom</property>
  <property name="meta.attr.minor_version.markup">512</property>
  <property name="meta.attr.compatible_brands.markup">isomiso2avc1mp41</property>
  <property name="meta.attr.encoder.markup">Lavf58.24.100</property>
  <property name="seekable">1</property>
  <property name="meta.media.sample_aspect_num">1</property>
  <property name="meta.media.sample_aspect_den">1</property>
  <property name="format">3</property>
  <property name="audio_index">-1</property>
  <property name="video_index">0</property>
  <property name="meta.media.frame_rate_num">60</property>
  <property name="meta.media.frame_rate_den">1</property>
  <property name="meta.media.colorspace">709</property>
  <property name="meta.media.color_trc">2</property>
  <property name="meta.media.has_b_frames">2</property>
  <property name="meta.media.width">1920</property>
  <property name="meta.media.height">1080</property>
  <property name="meta.media.color_range">mpeg</property>
  <property name="kdenlive:clipname"/>
  <property name="kdenlive:clip_type">2</property>
  <property name="kdenlive:folderid">218</property>
  <property name="kdenlive:id">629</property>
  <property name="kdenlive:file_size">2547259</property>
  <property name="kdenlive:file_hash">ed1c04ae88ed4f288e36aa8529d86831</property>
  <property name="meta.media.top_field_first">0</property>
  <property name="meta.media.progressive">1</property>
  <property name="mute_on_pause">1</property>
 </chain>
 <producer id="producer530" in="00:00:00.000" out="00:00:19.680">
  <property name="length">00:00:19.720</property>
  <property name="eof">pause</property>
  <property name="resource">/home/liquidzulu/Pictures/yt/animation/output/project/footnotes/footnote-44/%06d.png</property>
  <property name="ttl">1</property>
  <property name="aspect_ratio">1</property>
  <property name="progressive">1</property>
  <property name="seekable">1</property>
  <property name="format">2</property>
  <property name="meta.media.width">1920</property>
  <property name="meta.media.height">1080</property>
  <property name="mlt_service">qimage</property>
  <property name="kdenlive:clipname">footnote-44</property>
  <property name="low-pass">0</property>
  <property name="animation"/>
  <property name="luma_file"/>
  <property name="luma_duration">25</property>
  <property name="fade">0</property>
  <property name="crop">0</property>
  <property name="softness">0</property>
  <property name="loop">0</property>
  <property name="kdenlive:duration">00:00:19:18</property>
  <property name="kdenlive:folderid">273</property>
  <property name="kdenlive:id">630</property>
  <property name="kdenlive:clip_type">2</property>
  <property name="kdenlive:file_hash">4a8ebf62ea2c5b7a95743b0c561eef67</property>
 </producer>
 <chain id="chain312" out="00:02:48.920">
  <property name="length">4224</property>
  <property name="eof">pause</property>
  <property name="resource">audio/quotes/ai-art-quote/out/ai art istebrak.01.41.51.mp3</property>
  <property name="mlt_service">avformat</property>
  <property name="meta.media.nb_streams">1</property>
  <property name="meta.media.0.stream.type">audio</property>
  <property name="meta.media.0.codec.sample_fmt">fltp</property>
  <property name="meta.media.0.codec.sample_rate">44100</property>
  <property name="meta.media.0.codec.channels">2</property>
  <property name="meta.media.0.codec.name">mp3float</property>
  <property name="meta.media.0.codec.long_name">MP3 (MPEG audio layer 3)</property>
  <property name="meta.media.0.codec.bit_rate">192000</property>
  <property name="meta.attr.encoded_by.markup">LAME in FL Studio 21</property>
  <property name="meta.attr.date.markup">2023</property>
  <property name="seekable">1</property>
  <property name="audio_index">0</property>
  <property name="video_index">-1</property>
  <property name="kdenlive:clipname"/>
  <property name="kdenlive:clip_type">1</property>
  <property name="kdenlive:folderid">350</property>
  <property name="kdenlive:id">631</property>
  <property name="kdenlive:file_size">4055096</property>
  <property name="kdenlive:file_hash">6dc66d14bbea918d1944786bd933a0db</property>
  <property name="kdenlive:audio_max0">201</property>
  <property name="mute_on_pause">1</property>
 </chain>
 <producer id="producer524" in="00:00:00.000" out="00:00:22.720">
  <property name="length">569</property>
  <property name="eof">pause</property>
  <property name="resource">quotes/out/istebrak-c0-q0.png</property>
  <property name="ttl">25</property>
  <property name="aspect_ratio">1</property>
  <property name="progressive">1</property>
  <property name="seekable">1</property>
  <property name="format">2</property>
  <property name="meta.media.width">1920</property>
  <property name="meta.media.height">1080</property>
  <property name="mlt_service">qimage</property>
  <property name="kdenlive:clipname"/>
  <property name="kdenlive:duration">00:00:05:00</property>
  <property name="kdenlive:folderid">345</property>
  <property name="kdenlive:id">632</property>
  <property name="kdenlive:clip_type">2</property>
  <property name="kdenlive:file_size">58934</property>
  <property name="kdenlive:file_hash">cb007938dc69d668477975362df4b996</property>
 </producer>
 <producer id="producer525" in="00:00:00.000" out="00:00:21.360">
  <property name="length">535</property>
  <property name="eof">pause</property>
  <property name="resource">quotes/out/istebrak-c0-q1.png</property>
  <property name="ttl">25</property>
  <property name="aspect_ratio">1</property>
  <property name="progressive">1</property>
  <property name="seekable">1</property>
  <property name="format">2</property>
  <property name="meta.media.width">1920</property>
  <property name="meta.media.height">1080</property>
  <property name="mlt_service">qimage</property>
  <property name="kdenlive:clipname"/>
  <property name="kdenlive:duration">00:00:05:00</property>
  <property name="kdenlive:folderid">345</property>
  <property name="kdenlive:id">633</property>
  <property name="kdenlive:clip_type">2</property>
  <property name="kdenlive:file_size">69414</property>
  <property name="kdenlive:file_hash">af55666fc325d45eb64665e4e3b07767</property>
 </producer>
 <producer id="producer521" in="00:00:00.000" out="00:00:38.240">
  <property name="length">957</property>
  <property name="eof">pause</property>
  <property name="resource">quotes/out/istebrak-c0.png</property>
  <property name="ttl">25</property>
  <property name="aspect_ratio">1</property>
  <property name="progressive">1</property>
  <property name="seekable">1</property>
  <property name="format">2</property>
  <property name="meta.media.width">1920</property>
  <property name="meta.media.height">1080</property>
  <property name="mlt_service">qimage</property>
  <property name="kdenlive:clipname"/>
  <property name="kdenlive:duration">00:00:05:00</property>
  <property name="kdenlive:folderid">345</property>
  <property name="kdenlive:id">634</property>
  <property name="kdenlive:clip_type">2</property>
  <property name="kdenlive:file_size">36786</property>
  <property name="kdenlive:file_hash">8c0f8f3d2179f2a505b32b417c1785e8</property>
 </producer>
 <producer id="producer531" in="00:00:00.000" out="00:00:34.880">
  <property name="length">873</property>
  <property name="eof">pause</property>
  <property name="resource">quotes/out/istebrak-c1-q0.png</property>
  <property name="ttl">25</property>
  <property name="aspect_ratio">1</property>
  <property name="progressive">1</property>
  <property name="seekable">1</property>
  <property name="format">2</property>
  <property name="meta.media.width">1920</property>
  <property name="meta.media.height">1080</property>
  <property name="mlt_service">qimage</property>
  <property name="kdenlive:clipname"/>
  <property name="kdenlive:duration">00:00:05:00</property>
  <property name="kdenlive:folderid">345</property>
  <property name="kdenlive:id">635</property>
  <property name="kdenlive:clip_type">2</property>
  <property name="kdenlive:file_size">54705</property>
  <property name="kdenlive:file_hash">1c7f3a8d56dc8fc1dbbf0215d64b4a73</property>
 </producer>
 <producer id="producer532" in="00:00:00.000" out="00:00:34.880">
  <property name="length">873</property>
  <property name="eof">pause</property>
  <property name="resource">quotes/out/istebrak-c1.png</property>
  <property name="ttl">25</property>
  <property name="aspect_ratio">1</property>
  <property name="progressive">1</property>
  <property name="seekable">1</property>
  <property name="format">2</property>
  <property name="meta.media.width">1920</property>
  <property name="meta.media.height">1080</property>
  <property name="mlt_service">qimage</property>
  <property name="kdenlive:clipname"/>
  <property name="kdenlive:duration">00:00:05:00</property>
  <property name="kdenlive:folderid">345</property>
  <property name="kdenlive:id">636</property>
  <property name="kdenlive:clip_type">2</property>
  <property name="kdenlive:file_size">35804</property>
  <property name="kdenlive:file_hash">8d7097c408f2e7ae43d6b828f83bac3b</property>
 </producer>
 <producer id="producer495" in="00:00:00.000" out="00:00:43.200">
  <property name="length">1081</property>
  <property name="eof">pause</property>
  <property name="resource">quotes/out/istebrak-card.png</property>
  <property name="ttl">25</property>
  <property name="aspect_ratio">1</property>
  <property name="progressive">1</property>
  <property name="seekable">1</property>
  <property name="format">2</property>
  <property name="meta.media.width">1920</property>
  <property name="meta.media.height">1080</property>
  <property name="mlt_service">qimage</property>
  <property name="kdenlive:clipname"/>
  <property name="kdenlive:duration">00:00:05:00</property>
  <property name="kdenlive:folderid">345</property>
  <property name="kdenlive:id">637</property>
  <property name="kdenlive:clip_type">2</property>
  <property name="kdenlive:file_size">148139</property>
  <property name="kdenlive:file_hash">ab332a7772f9db3d67f75260b6439af0</property>
 </producer>
 <chain id="chain313" out="00:01:19.640">
  <property name="length">1992</property>
  <property name="eof">pause</property>
  <property name="resource">/home/liquidzulu/Videos/yt/b-roll/Castle Bravo(720p).mp4</property>
  <property name="mlt_service">avformat-novalidate</property>
  <property name="meta.media.nb_streams">2</property>
  <property name="meta.media.0.stream.type">video</property>
  <property name="meta.media.0.stream.frame_rate">24</property>
  <property name="meta.media.0.stream.sample_aspect_ratio">0</property>
  <property name="meta.media.0.codec.width">1280</property>
  <property name="meta.media.0.codec.height">720</property>
  <property name="meta.media.0.codec.rotate">0</property>
  <property name="meta.media.0.codec.pix_fmt">yuv420p</property>
  <property name="meta.media.0.codec.sample_aspect_ratio">1</property>
  <property name="meta.media.0.codec.colorspace">601</property>
  <property name="meta.media.0.codec.color_trc">1</property>
  <property name="meta.media.0.codec.name">h264</property>
  <property name="meta.media.0.codec.long_name">H.264 / AVC / MPEG-4 AVC / MPEG-4 part 10</property>
  <property name="meta.media.0.codec.bit_rate">255667</property>
  <property name="meta.attr.0.stream.creation_time.markup">2018-05-01T03:23:59.000000Z</property>
  <property name="meta.attr.0.stream.handler_name.markup">ISO Media file produced by Google Inc. Created on: 04/30/2018.</property>
  <property name="meta.attr.0.stream.vendor_id.markup">[0][0][0][0]</property>
  <property name="meta.media.1.stream.type">audio</property>
  <property name="meta.media.1.codec.sample_fmt">fltp</property>
  <property name="meta.media.1.codec.sample_rate">44100</property>
  <property name="meta.media.1.codec.channels">2</property>
  <property name="meta.media.1.codec.name">aac</property>
  <property name="meta.media.1.codec.long_name">AAC (Advanced Audio Coding)</property>
  <property name="meta.media.1.codec.bit_rate">125611</property>
  <property name="meta.attr.1.stream.creation_time.markup">2018-05-01T03:23:59.000000Z</property>
  <property name="meta.attr.1.stream.language.markup">eng</property>
  <property name="meta.attr.1.stream.handler_name.markup">ISO Media file produced by Google Inc. Created on: 04/30/2018.</property>
  <property name="meta.attr.1.stream.vendor_id.markup">[0][0][0][0]</property>
  <property name="meta.attr.major_brand.markup">mp42</property>
  <property name="meta.attr.minor_version.markup">0</property>
  <property name="meta.attr.compatible_brands.markup">isommp42</property>
  <property name="meta.attr.creation_time.markup">2018-05-01T03:23:59.000000Z</property>
  <property name="seekable">1</property>
  <property name="meta.media.sample_aspect_num">1</property>
  <property name="meta.media.sample_aspect_den">1</property>
  <property name="format">3</property>
  <property name="audio_index">-1</property>
  <property name="video_index">0</property>
  <property name="meta.media.frame_rate_num">24</property>
  <property name="meta.media.frame_rate_den">1</property>
  <property name="meta.media.colorspace">601</property>
  <property name="meta.media.color_trc">1</property>
  <property name="meta.media.has_b_frames">1</property>
  <property name="meta.media.width">1280</property>
  <property name="meta.media.height">720</property>
  <property name="meta.media.color_range">mpeg</property>
  <property name="kdenlive:clipname"/>
  <property name="meta.media.top_field_first">0</property>
  <property name="meta.media.progressive">1</property>
  <property name="kdenlive:clip_type">0</property>
  <property name="kdenlive:folderid">14</property>
  <property name="kdenlive:id">638</property>
  <property name="kdenlive:file_size">3831901</property>
  <property name="kdenlive:file_hash">01f13fff1867cc3b1f2f69bfb80aed4f</property>
  <property name="kdenlive:audio_max1">115</property>
  <property name="kdenlive:active_streams">-1</property>
  <property name="set.test_audio">1</property>
  <property name="mute_on_pause">1</property>
 </chain>
 <chain id="chain335" out="00:02:48.920">
  <property name="length">4224</property>
  <property name="eof">pause</property>
  <property name="resource">audio/quotes/ai-art-quote/artist authenticity.00.49.01.mp3</property>
  <property name="mlt_service">avformat</property>
  <property name="meta.media.nb_streams">1</property>
  <property name="meta.media.0.stream.type">audio</property>
  <property name="meta.media.0.codec.sample_fmt">fltp</property>
  <property name="meta.media.0.codec.sample_rate">44100</property>
  <property name="meta.media.0.codec.channels">2</property>
  <property name="meta.media.0.codec.name">mp3float</property>
  <property name="meta.media.0.codec.long_name">MP3 (MPEG audio layer 3)</property>
  <property name="meta.media.0.codec.bit_rate">192000</property>
  <property name="meta.attr.encoded_by.markup">LAME in FL Studio 21</property>
  <property name="meta.attr.date.markup">2023</property>
  <property name="seekable">1</property>
  <property name="audio_index">0</property>
  <property name="video_index">-1</property>
  <property name="kdenlive:clipname"/>
  <property name="kdenlive:clip_type">1</property>
  <property name="kdenlive:folderid">350</property>
  <property name="kdenlive:id">639</property>
  <property name="kdenlive:file_size">4055096</property>
  <property name="kdenlive:file_hash">11d2379fe8e94ac4ddf62e39daaff439</property>
  <property name="kdenlive:audio_max0">196</property>
  <property name="mute_on_pause">1</property>
 </chain>
 <producer id="producer579" in="00:00:00.000" out="00:00:20.800">
  <property name="length">521</property>
  <property name="eof">pause</property>
  <property name="resource">quotes/out/sam-yang-c0-q0.png</property>
  <property name="ttl">25</property>
  <property name="aspect_ratio">1</property>
  <property name="progressive">1</property>
  <property name="seekable">1</property>
  <property name="format">2</property>
  <property name="meta.media.width">1920</property>
  <property name="meta.media.height">1080</property>
  <property name="mlt_service">qimage</property>
  <property name="kdenlive:clipname"/>
  <property name="kdenlive:duration">00:00:05:00</property>
  <property name="kdenlive:folderid">345</property>
  <property name="kdenlive:id">640</property>
  <property name="kdenlive:clip_type">2</property>
  <property name="kdenlive:file_size">68132</property>
  <property name="kdenlive:file_hash">1d97cbb3d174fa3f5093555adbb621c8</property>
 </producer>
 <producer id="producer580" in="00:00:00.000" out="00:00:20.000">
  <property name="length">501</property>
  <property name="eof">pause</property>
  <property name="resource">quotes/out/sam-yang-c0-q1.png</property>
  <property name="ttl">25</property>
  <property name="aspect_ratio">1</property>
  <property name="progressive">1</property>
  <property name="seekable">1</property>
  <property name="format">2</property>
  <property name="meta.media.width">1920</property>
  <property name="meta.media.height">1080</property>
  <property name="mlt_service">qimage</property>
  <property name="kdenlive:clipname"/>
  <property name="kdenlive:duration">00:00:05:00</property>
  <property name="kdenlive:folderid">345</property>
  <property name="kdenlive:id">641</property>
  <property name="kdenlive:clip_type">2</property>
  <property name="kdenlive:file_size">81782</property>
  <property name="kdenlive:file_hash">f50dd8a14c37dc89a6dc1ac4ff684e6f</property>
 </producer>
 <producer id="producer573" in="00:00:00.000" out="00:00:37.880">
  <property name="length">948</property>
  <property name="eof">pause</property>
  <property name="resource">quotes/out/sam-yang-c0.png</property>
  <property name="ttl">25</property>
  <property name="aspect_ratio">1</property>
  <property name="progressive">1</property>
  <property name="seekable">1</property>
  <property name="format">2</property>
  <property name="meta.media.width">1920</property>
  <property name="meta.media.height">1080</property>
  <property name="mlt_service">qimage</property>
  <property name="kdenlive:clipname"/>
  <property name="kdenlive:duration">00:00:05:00</property>
  <property name="kdenlive:folderid">345</property>
  <property name="kdenlive:id">642</property>
  <property name="kdenlive:clip_type">2</property>
  <property name="kdenlive:file_size">26979</property>
  <property name="kdenlive:file_hash">3012d4d7aa46dd749ae9844e3723fd35</property>
 </producer>
 <producer id="producer585" in="00:00:00.000" out="00:00:04.960">
  <property name="length">00:00:05.000</property>
  <property name="eof">pause</property>
  <property name="resource">quotes/out/sam-yang-c1-q0.png</property>
  <property name="ttl">25</property>
  <property name="aspect_ratio">1</property>
  <property name="progressive">1</property>
  <property name="seekable">1</property>
  <property name="format">2</property>
  <property name="meta.media.width">1920</property>
  <property name="meta.media.height">1080</property>
  <property name="mlt_service">qimage</property>
  <property name="kdenlive:clipname"/>
  <property name="kdenlive:duration">00:00:05:00</property>
  <property name="kdenlive:folderid">345</property>
  <property name="kdenlive:id">643</property>
  <property name="kdenlive:clip_type">2</property>
  <property name="kdenlive:file_size">74251</property>
  <property name="kdenlive:file_hash">4c033ca71f7bd13af85a340ab8a04071</property>
 </producer>
 <producer id="producer586" in="00:00:00.000" out="00:00:04.960">
  <property name="length">00:00:05.000</property>
  <property name="eof">pause</property>
  <property name="resource">quotes/out/sam-yang-c1-q1.png</property>
  <property name="ttl">25</property>
  <property name="aspect_ratio">1</property>
  <property name="progressive">1</property>
  <property name="seekable">1</property>
  <property name="format">2</property>
  <property name="meta.media.width">1920</property>
  <property name="meta.media.height">1080</property>
  <property name="mlt_service">qimage</property>
  <property name="kdenlive:clipname"/>
  <property name="kdenlive:duration">00:00:05:00</property>
  <property name="kdenlive:folderid">345</property>
  <property name="kdenlive:id">644</property>
  <property name="kdenlive:clip_type">2</property>
  <property name="kdenlive:file_size">54300</property>
  <property name="kdenlive:file_hash">cf3b0f8949314ce420998175814287e7</property>
 </producer>
 <producer id="producer587" in="00:00:00.000" out="00:00:04.960">
  <property name="length">00:00:05.000</property>
  <property name="eof">pause</property>
  <property name="resource">quotes/out/sam-yang-c1.png</property>
  <property name="ttl">25</property>
  <property name="aspect_ratio">1</property>
  <property name="progressive">1</property>
  <property name="seekable">1</property>
  <property name="format">2</property>
  <property name="meta.media.width">1920</property>
  <property name="meta.media.height">1080</property>
  <property name="mlt_service">qimage</property>
  <property name="kdenlive:clipname"/>
  <property name="kdenlive:duration">00:00:05:00</property>
  <property name="kdenlive:folderid">345</property>
  <property name="kdenlive:id">645</property>
  <property name="kdenlive:clip_type">2</property>
  <property name="kdenlive:file_size">27648</property>
  <property name="kdenlive:file_hash">1a36b0994f817bb27f5df44c93336b82</property>
 </producer>
 <producer id="producer536" in="00:00:00.000" out="00:00:37.880">
  <property name="length">948</property>
  <property name="eof">pause</property>
  <property name="resource">quotes/out/sam-yang-card.png</property>
  <property name="ttl">25</property>
  <property name="aspect_ratio">1</property>
  <property name="progressive">1</property>
  <property name="seekable">1</property>
  <property name="format">2</property>
  <property name="meta.media.width">1920</property>
  <property name="meta.media.height">1080</property>
  <property name="mlt_service">qimage</property>
  <property name="kdenlive:clipname"/>
  <property name="kdenlive:duration">00:00:05:00</property>
  <property name="kdenlive:folderid">345</property>
  <property name="kdenlive:id">646</property>
  <property name="kdenlive:clip_type">2</property>
  <property name="kdenlive:file_size">301685</property>
  <property name="kdenlive:file_hash">711c3672d3d30f590fa8d1a5e42488dc</property>
 </producer>
 <chain id="chain337" out="00:02:48.920">
  <property name="length">4224</property>
  <property name="eof">pause</property>
  <property name="resource">audio/quotes/ai-art-quote/creatives view.00.06.35.mp3</property>
  <property name="mlt_service">avformat</property>
  <property name="meta.media.nb_streams">1</property>
  <property name="meta.media.0.stream.type">audio</property>
  <property name="meta.media.0.codec.sample_fmt">fltp</property>
  <property name="meta.media.0.codec.sample_rate">44100</property>
  <property name="meta.media.0.codec.channels">2</property>
  <property name="meta.media.0.codec.name">mp3float</property>
  <property name="meta.media.0.codec.long_name">MP3 (MPEG audio layer 3)</property>
  <property name="meta.media.0.codec.bit_rate">192000</property>
  <property name="meta.attr.encoded_by.markup">LAME in FL Studio 21</property>
  <property name="meta.attr.date.markup">2023</property>
  <property name="seekable">1</property>
  <property name="audio_index">0</property>
  <property name="video_index">-1</property>
  <property name="kdenlive:clipname"/>
  <property name="kdenlive:clip_type">1</property>
  <property name="kdenlive:folderid">350</property>
  <property name="kdenlive:id">647</property>
  <property name="kdenlive:file_size">4055096</property>
  <property name="kdenlive:file_hash">c4883a63283c31ada8ef5f4f40b351aa</property>
  <property name="kdenlive:audio_max0">200</property>
  <property name="mute_on_pause">1</property>
 </chain>
 <producer id="producer581" in="00:00:00.000" out="00:00:30.400">
  <property name="length">761</property>
  <property name="eof">pause</property>
  <property name="resource">quotes/out/lois-van-baarle-c0-q0.png</property>
  <property name="ttl">25</property>
  <property name="aspect_ratio">1</property>
  <property name="progressive">1</property>
  <property name="seekable">1</property>
  <property name="format">2</property>
  <property name="meta.media.width">1920</property>
  <property name="meta.media.height">1080</property>
  <property name="mlt_service">qimage</property>
  <property name="kdenlive:clipname"/>
  <property name="kdenlive:duration">00:00:05:00</property>
  <property name="kdenlive:folderid">345</property>
  <property name="kdenlive:id">648</property>
  <property name="kdenlive:clip_type">2</property>
  <property name="kdenlive:file_size">95431</property>
  <property name="kdenlive:file_hash">b0c9489dad3b6fdb7905049513384814</property>
 </producer>
 <producer id="producer582" in="00:00:00.000" out="00:00:21.960">
  <property name="length">550</property>
  <property name="eof">pause</property>
  <property name="resource">quotes/out/lois-van-baarle-c0-q1.png</property>
  <property name="ttl">25</property>
  <property name="aspect_ratio">1</property>
  <property name="progressive">1</property>
  <property name="seekable">1</property>
  <property name="format">2</property>
  <property name="meta.media.width">1920</property>
  <property name="meta.media.height">1080</property>
  <property name="mlt_service">qimage</property>
  <property name="kdenlive:clipname"/>
  <property name="kdenlive:duration">00:00:05:00</property>
  <property name="kdenlive:folderid">345</property>
  <property name="kdenlive:id">649</property>
  <property name="kdenlive:clip_type">2</property>
  <property name="kdenlive:file_size">59441</property>
  <property name="kdenlive:file_hash">23b7d50b3900c2a6c36cd59ecb38c493</property>
 </producer>
 <producer id="producer574" in="00:00:00.000" out="00:00:49.880">
  <property name="length">1248</property>
  <property name="eof">pause</property>
  <property name="resource">quotes/out/lois-van-baarle-c0.png</property>
  <property name="ttl">25</property>
  <property name="aspect_ratio">1</property>
  <property name="progressive">1</property>
  <property name="seekable">1</property>
  <property name="format">2</property>
  <property name="meta.media.width">1920</property>
  <property name="meta.media.height">1080</property>
  <property name="mlt_service">qimage</property>
  <property name="kdenlive:clipname"/>
  <property name="kdenlive:duration">00:00:05:00</property>
  <property name="kdenlive:folderid">345</property>
  <property name="kdenlive:id">650</property>
  <property name="kdenlive:clip_type">2</property>
  <property name="kdenlive:file_size">21314</property>
  <property name="kdenlive:file_hash">98c86fab16371935bf72acdd67dfeae5</property>
 </producer>
 <producer id="producer588" in="00:00:00.000" out="00:00:04.960">
  <property name="length">00:00:05.000</property>
  <property name="eof">pause</property>
  <property name="resource">quotes/out/lois-van-baarle-c1-q0.png</property>
  <property name="ttl">25</property>
  <property name="aspect_ratio">1</property>
  <property name="progressive">1</property>
  <property name="seekable">1</property>
  <property name="format">2</property>
  <property name="meta.media.width">1920</property>
  <property name="meta.media.height">1080</property>
  <property name="mlt_service">qimage</property>
  <property name="kdenlive:clipname"/>
  <property name="kdenlive:duration">00:00:05:00</property>
  <property name="kdenlive:folderid">345</property>
  <property name="kdenlive:id">651</property>
  <property name="kdenlive:clip_type">2</property>
  <property name="kdenlive:file_size">61556</property>
  <property name="kdenlive:file_hash">77a63538d7f59905dea3b846413a9d52</property>
 </producer>
 <producer id="producer589" in="00:00:00.000" out="00:00:04.960">
  <property name="length">00:00:05.000</property>
  <property name="eof">pause</property>
  <property name="resource">quotes/out/lois-van-baarle-c1-q1.png</property>
  <property name="ttl">25</property>
  <property name="aspect_ratio">1</property>
  <property name="progressive">1</property>
  <property name="seekable">1</property>
  <property name="format">2</property>
  <property name="meta.media.width">1920</property>
  <property name="meta.media.height">1080</property>
  <property name="mlt_service">qimage</property>
  <property name="kdenlive:clipname"/>
  <property name="kdenlive:duration">00:00:05:00</property>
  <property name="kdenlive:folderid">345</property>
  <property name="kdenlive:id">652</property>
  <property name="kdenlive:clip_type">2</property>
  <property name="kdenlive:file_size">65325</property>
  <property name="kdenlive:file_hash">e9813f55f889a81519314d86f478dd15</property>
 </producer>
 <producer id="producer590" in="00:00:00.000" out="00:00:04.960">
  <property name="length">00:00:05.000</property>
  <property name="eof">pause</property>
  <property name="resource">quotes/out/lois-van-baarle-c1-q2.png</property>
  <property name="ttl">25</property>
  <property name="aspect_ratio">1</property>
  <property name="progressive">1</property>
  <property name="seekable">1</property>
  <property name="format">2</property>
  <property name="meta.media.width">1920</property>
  <property name="meta.media.height">1080</property>
  <property name="mlt_service">qimage</property>
  <property name="kdenlive:clipname"/>
  <property name="kdenlive:duration">00:00:05:00</property>
  <property name="kdenlive:folderid">345</property>
  <property name="kdenlive:id">653</property>
  <property name="kdenlive:clip_type">2</property>
  <property name="kdenlive:file_size">49170</property>
  <property name="kdenlive:file_hash">cf8a4b2c87a7583ba1dbdbc3e0e10dad</property>
 </producer>
 <producer id="producer591" in="00:00:00.000" out="00:00:04.960">
  <property name="length">00:00:05.000</property>
  <property name="eof">pause</property>
  <property name="resource">quotes/out/lois-van-baarle-c1.png</property>
  <property name="ttl">25</property>
  <property name="aspect_ratio">1</property>
  <property name="progressive">1</property>
  <property name="seekable">1</property>
  <property name="format">2</property>
  <property name="meta.media.width">1920</property>
  <property name="meta.media.height">1080</property>
  <property name="mlt_service">qimage</property>
  <property name="kdenlive:clipname"/>
  <property name="kdenlive:duration">00:00:05:00</property>
  <property name="kdenlive:folderid">345</property>
  <property name="kdenlive:id">654</property>
  <property name="kdenlive:clip_type">2</property>
  <property name="kdenlive:file_size">21379</property>
  <property name="kdenlive:file_hash">a1e4bd3693205fc91a31666405ac7a36</property>
 </producer>
 <producer id="producer537" in="00:00:00.000" out="00:00:49.880">
  <property name="length">1248</property>
  <property name="eof">pause</property>
  <property name="resource">quotes/out/lois-van-baarle-card.png</property>
  <property name="ttl">25</property>
  <property name="aspect_ratio">1</property>
  <property name="progressive">1</property>
  <property name="seekable">1</property>
  <property name="format">2</property>
  <property name="meta.media.width">1920</property>
  <property name="meta.media.height">1080</property>
  <property name="mlt_service">qimage</property>
  <property name="kdenlive:clipname"/>
  <property name="kdenlive:duration">00:00:05:00</property>
  <property name="kdenlive:folderid">345</property>
  <property name="kdenlive:id">655</property>
  <property name="kdenlive:clip_type">2</property>
  <property name="kdenlive:file_size">319912</property>
  <property name="kdenlive:file_hash">3718b43cf8f66cca37c9f347057e33d3</property>
 </producer>
 <chain id="chain338" out="00:07:51.200">
  <property name="length">11781</property>
  <property name="eof">pause</property>
  <property name="resource">/home/liquidzulu/Music/classical/yt1s.com - Kevin Day The Mind Is Like Water.mp3</property>
  <property name="mlt_service">avformat</property>
  <property name="meta.media.nb_streams">1</property>
  <property name="meta.media.0.stream.type">audio</property>
  <property name="meta.media.0.codec.sample_fmt">fltp</property>
  <property name="meta.media.0.codec.sample_rate">44100</property>
  <property name="meta.media.0.codec.channels">2</property>
  <property name="meta.media.0.codec.name">mp3float</property>
  <property name="meta.media.0.codec.long_name">MP3 (MPEG audio layer 3)</property>
  <property name="meta.media.0.codec.bit_rate">128000</property>
  <property name="meta.attr.0.stream.encoder.markup">Lavc58.34</property>
  <property name="meta.attr.major_brand.markup">dash</property>
  <property name="meta.attr.minor_version.markup">0</property>
  <property name="meta.attr.compatible_brands.markup">iso6mp41</property>
  <property name="meta.attr.encoder.markup">Lavf58.19.102</property>
  <property name="seekable">1</property>
  <property name="audio_index">0</property>
  <property name="video_index">-1</property>
  <property name="kdenlive:clipname"/>
  <property name="kdenlive:clip_type">1</property>
  <property name="kdenlive:folderid">5</property>
  <property name="kdenlive:id">656</property>
  <property name="kdenlive:file_size">7540538</property>
  <property name="kdenlive:file_hash">20d23b5061880fdf4e1e0dab60e78bc5</property>
  <property name="kdenlive:audio_max0">193</property>
  <property name="mute_on_pause">1</property>
 </chain>
 <producer id="producer448" in="00:00:00.000" out="00:00:12.520">
  <property name="length">314</property>
  <property name="eof">pause</property>
  <property name="resource">images/istebrak-sam-lois-00.png</property>
  <property name="ttl">25</property>
  <property name="aspect_ratio">1</property>
  <property name="progressive">1</property>
  <property name="seekable">1</property>
  <property name="format">2</property>
  <property name="meta.media.width">1920</property>
  <property name="meta.media.height">1080</property>
  <property name="mlt_service">qimage</property>
  <property name="kdenlive:clipname"/>
  <property name="kdenlive:duration">00:00:05:00</property>
  <property name="kdenlive:folderid">28</property>
  <property name="kdenlive:id">657</property>
  <property name="kdenlive:clip_type">2</property>
  <property name="kdenlive:file_size">84058</property>
  <property name="kdenlive:file_hash">d0edb9e0bdd7d983ab489e1a1b31b017</property>
 </producer>
 <producer id="producer514" in="00:00:00.000" out="00:00:24.280">
  <property name="length">608</property>
  <property name="eof">pause</property>
  <property name="resource">images/istebrak-sam-lois-01.png</property>
  <property name="ttl">25</property>
  <property name="aspect_ratio">1</property>
  <property name="progressive">1</property>
  <property name="seekable">1</property>
  <property name="format">2</property>
  <property name="meta.media.width">1920</property>
  <property name="meta.media.height">1080</property>
  <property name="mlt_service">qimage</property>
  <property name="kdenlive:clipname"/>
  <property name="kdenlive:duration">00:00:05:00</property>
  <property name="kdenlive:folderid">28</property>
  <property name="kdenlive:id">658</property>
  <property name="kdenlive:clip_type">2</property>
  <property name="kdenlive:file_size">92518</property>
  <property name="kdenlive:file_hash">aba422af321527b49c5141a854b40081</property>
 </producer>
 <producer id="producer516" in="00:00:00.000" out="00:00:12.400">
  <property name="length">311</property>
  <property name="eof">pause</property>
  <property name="resource">images/istebrak-sam-lois-10.png</property>
  <property name="ttl">25</property>
  <property name="aspect_ratio">1</property>
  <property name="progressive">1</property>
  <property name="seekable">1</property>
  <property name="format">2</property>
  <property name="meta.media.width">1920</property>
  <property name="meta.media.height">1080</property>
  <property name="mlt_service">qimage</property>
  <property name="kdenlive:clipname"/>
  <property name="kdenlive:duration">00:00:05:00</property>
  <property name="kdenlive:folderid">28</property>
  <property name="kdenlive:id">659</property>
  <property name="kdenlive:clip_type">2</property>
  <property name="kdenlive:file_size">120940</property>
  <property name="kdenlive:file_hash">b4187cf4bbb428446f8303dfcafadd0d</property>
 </producer>
 <producer id="producer557" in="00:00:00.000" out="00:00:24.280">
  <property name="length">608</property>
  <property name="eof">pause</property>
  <property name="resource">images/istebrak-sam-lois-11.png</property>
  <property name="ttl">25</property>
  <property name="aspect_ratio">1</property>
  <property name="progressive">1</property>
  <property name="seekable">1</property>
  <property name="format">2</property>
  <property name="meta.media.width">1920</property>
  <property name="meta.media.height">1080</property>
  <property name="mlt_service">qimage</property>
  <property name="kdenlive:clipname"/>
  <property name="kdenlive:duration">00:00:05:00</property>
  <property name="kdenlive:folderid">28</property>
  <property name="kdenlive:id">660</property>
  <property name="kdenlive:clip_type">2</property>
  <property name="kdenlive:file_size">129173</property>
  <property name="kdenlive:file_hash">118cc2c9d6d4d3d537637476e8d2d4c1</property>
 </producer>
 <producer id="producer539" in="00:00:00.000" out="00:00:12.280">
  <property name="length">308</property>
  <property name="eof">pause</property>
  <property name="resource">images/istebrak-sam-lois-20.png</property>
  <property name="ttl">25</property>
  <property name="aspect_ratio">1</property>
  <property name="progressive">1</property>
  <property name="seekable">1</property>
  <property name="format">2</property>
  <property name="meta.media.width">1920</property>
  <property name="meta.media.height">1080</property>
  <property name="mlt_service">qimage</property>
  <property name="kdenlive:clipname"/>
  <property name="kdenlive:duration">00:00:05:00</property>
  <property name="kdenlive:folderid">28</property>
  <property name="kdenlive:id">661</property>
  <property name="kdenlive:clip_type">2</property>
  <property name="kdenlive:file_size">132056</property>
  <property name="kdenlive:file_hash">231f34b9cfbb46592044b639769a9fe6</property>
 </producer>
 <producer id="producer583" in="00:00:00.000" out="00:00:24.280">
  <property name="length">608</property>
  <property name="eof">pause</property>
  <property name="resource">images/istebrak-sam-lois-21.png</property>
  <property name="ttl">25</property>
  <property name="aspect_ratio">1</property>
  <property name="progressive">1</property>
  <property name="seekable">1</property>
  <property name="format">2</property>
  <property name="meta.media.width">1920</property>
  <property name="meta.media.height">1080</property>
  <property name="mlt_service">qimage</property>
  <property name="kdenlive:clipname"/>
  <property name="kdenlive:duration">00:00:05:00</property>
  <property name="kdenlive:folderid">28</property>
  <property name="kdenlive:id">662</property>
  <property name="kdenlive:clip_type">2</property>
  <property name="kdenlive:file_size">142053</property>
  <property name="kdenlive:file_hash">6bf819777122a42149fc8a85b3b978c6</property>
 </producer>
 <producer id="producer460" in="00:00:00.000" out="00:00:04.960">
  <property name="length">125</property>
  <property name="eof">pause</property>
  <property name="progressive">1</property>
  <property name="aspect_ratio">1</property>
  <property name="seekable">1</property>
  <property name="mlt_service">kdenlivetitle</property>
  <property name="kdenlive:duration">00:00:05:00</property>
  <property name="kdenlive:clipname">simply</property>
  <property name="xmldata">&lt;kdenlivetitle duration="125" LC_NUMERIC="C" width="1920" height="1080" out="124">
 &lt;item type="QGraphicsTextItem" z-index="0">
  &lt;position x="593" y="402">
   &lt;transform>1,0,0,0,1,0,0,0,1&lt;/transform>
  &lt;/position>
  &lt;content line-spacing="0" shadow="0;#64000000;3;3;3" font-underline="0" box-height="276" font="Cubano" letter-spacing="0" font-pixel-size="230" font-italic="0" typewriter="0;2;1;0;0" alignment="4" font-weight="50" box-width="736.875" font-color="255,255,255,255">simply&lt;/content>
 &lt;/item>
 &lt;startviewport rect="0,0,1920,1080"/>
 &lt;endviewport rect="0,0,1920,1080"/>
 &lt;background color="0,0,0,0"/>
&lt;/kdenlivetitle>
</property>
  <property name="kdenlive:folderid">21</property>
  <property name="kdenlive:id">663</property>
  <property name="kdenlive:clip_type">2</property>
  <property name="force_reload">0</property>
  <property name="meta.media.width">1920</property>
  <property name="meta.media.height">1080</property>
  <property name="kdenlive:file_hash">a909a5c15007caf274929673916bb7df</property>
 </producer>
 <producer id="producer462" in="00:00:00.000" out="00:00:04.960">
  <property name="length">125</property>
  <property name="eof">pause</property>
  <property name="progressive">1</property>
  <property name="aspect_ratio">1</property>
  <property name="seekable">1</property>
  <property name="mlt_service">kdenlivetitle</property>
  <property name="kdenlive:duration">00:00:05:00</property>
  <property name="kdenlive:clipname">not a</property>
  <property name="xmldata">&lt;kdenlivetitle duration="125" LC_NUMERIC="C" width="1920" height="1080" out="124">
 &lt;item type="QGraphicsTextItem" z-index="0">
  &lt;position x="654" y="402">
   &lt;transform>1,0,0,0,1,0,0,0,1&lt;/transform>
  &lt;/position>
  &lt;content line-spacing="0" shadow="0;#64000000;3;3;3" font-underline="0" box-height="276" font="Cubano" letter-spacing="0" font-pixel-size="230" font-italic="0" typewriter="0;2;1;0;0" alignment="4" font-weight="50" box-width="615.469" font-color="255,255,255,255">not a&lt;/content>
 &lt;/item>
 &lt;startviewport rect="0,0,1920,1080"/>
 &lt;endviewport rect="0,0,1920,1080"/>
 &lt;background color="0,0,0,0"/>
&lt;/kdenlivetitle>
</property>
  <property name="kdenlive:folderid">21</property>
  <property name="kdenlive:id">664</property>
  <property name="kdenlive:clip_type">2</property>
  <property name="force_reload">0</property>
  <property name="meta.media.width">1920</property>
  <property name="meta.media.height">1080</property>
  <property name="kdenlive:file_hash">b6ee2bc1181c545654efff5a11727ba7</property>
 </producer>
 <producer id="producer463" in="00:00:00.000" out="00:00:04.960">
  <property name="length">125</property>
  <property name="eof">pause</property>
  <property name="progressive">1</property>
  <property name="aspect_ratio">1</property>
  <property name="seekable">1</property>
  <property name="mlt_service">kdenlivetitle</property>
  <property name="kdenlive:duration">00:00:05:00</property>
  <property name="kdenlive:clipname">sufficient</property>
  <property name="xmldata">&lt;kdenlivetitle duration="125" LC_NUMERIC="C" width="1920" height="1080" out="124">
 &lt;item type="QGraphicsTextItem" z-index="0">
  &lt;position x="371" y="402">
   &lt;transform>1,0,0,0,1,0,0,0,1&lt;/transform>
  &lt;/position>
  &lt;content line-spacing="0" shadow="0;#64000000;3;3;3" font-underline="0" box-height="276" font="Cubano" letter-spacing="0" font-pixel-size="230" font-italic="0" typewriter="0;2;1;0;0" alignment="4" font-weight="50" box-width="1182.84" font-color="255,255,255,255">sufficient&lt;/content>
 &lt;/item>
 &lt;startviewport rect="0,0,1920,1080"/>
 &lt;endviewport rect="0,0,1920,1080"/>
 &lt;background color="0,0,0,0"/>
&lt;/kdenlivetitle>
</property>
  <property name="kdenlive:folderid">21</property>
  <property name="kdenlive:id">665</property>
  <property name="kdenlive:clip_type">2</property>
  <property name="force_reload">0</property>
  <property name="meta.media.width">1920</property>
  <property name="meta.media.height">1080</property>
  <property name="kdenlive:file_hash">f7c487e993fc4a1083bca7a6e1c82e5b</property>
 </producer>
 <producer id="producer464" in="00:00:00.000" out="00:00:04.960">
  <property name="length">125</property>
  <property name="eof">pause</property>
  <property name="progressive">1</property>
  <property name="aspect_ratio">1</property>
  <property name="seekable">1</property>
  <property name="mlt_service">kdenlivetitle</property>
  <property name="kdenlive:duration">00:00:05:00</property>
  <property name="kdenlive:clipname">reason</property>
  <property name="xmldata">&lt;kdenlivetitle duration="125" LC_NUMERIC="C" width="1920" height="1080" out="124">
 &lt;item type="QGraphicsTextItem" z-index="0">
  &lt;position x="557" y="402">
   &lt;transform>1,0,0,0,1,0,0,0,1&lt;/transform>
  &lt;/position>
  &lt;content line-spacing="0" shadow="0;#64000000;3;3;3" font-underline="0" box-height="276" font="Cubano" letter-spacing="0" font-pixel-size="230" font-italic="0" typewriter="0;2;1;0;0" alignment="4" font-weight="50" box-width="808.641" font-color="255,255,255,255">reason&lt;/content>
 &lt;/item>
 &lt;startviewport rect="0,0,1920,1080"/>
 &lt;endviewport rect="0,0,1920,1080"/>
 &lt;background color="0,0,0,0"/>
&lt;/kdenlivetitle>
</property>
  <property name="kdenlive:folderid">21</property>
  <property name="kdenlive:id">666</property>
  <property name="kdenlive:clip_type">2</property>
  <property name="force_reload">0</property>
  <property name="meta.media.width">1920</property>
  <property name="meta.media.height">1080</property>
  <property name="kdenlive:file_hash">b7558860012bb03bd376926d2f645c79</property>
 </producer>
 <producer id="producer465" in="00:00:00.000" out="00:00:04.960">
  <property name="length">125</property>
  <property name="eof">pause</property>
  <property name="progressive">1</property>
  <property name="aspect_ratio">1</property>
  <property name="seekable">1</property>
  <property name="mlt_service">kdenlivetitle</property>
  <property name="kdenlive:duration">00:00:05:00</property>
  <property name="kdenlive:clipname">oppose</property>
  <property name="xmldata">&lt;kdenlivetitle duration="125" LC_NUMERIC="C" width="1920" height="1080" out="124">
 &lt;item type="QGraphicsTextItem" z-index="0">
  &lt;position x="566" y="402">
   &lt;transform>1,0,0,0,1,0,0,0,1&lt;/transform>
  &lt;/position>
  &lt;content line-spacing="0" shadow="0;#64000000;3;3;3" font-underline="0" box-height="276" font="Cubano" letter-spacing="0" font-pixel-size="230" font-italic="0" typewriter="0;2;1;0;0" alignment="4" font-weight="50" box-width="785.875" font-color="255,255,255,255">oppose&lt;/content>
 &lt;/item>
 &lt;startviewport rect="0,0,1920,1080"/>
 &lt;endviewport rect="0,0,1920,1080"/>
 &lt;background color="0,0,0,0"/>
&lt;/kdenlivetitle>
</property>
  <property name="kdenlive:folderid">21</property>
  <property name="kdenlive:id">667</property>
  <property name="kdenlive:clip_type">2</property>
  <property name="force_reload">0</property>
  <property name="meta.media.width">1920</property>
  <property name="meta.media.height">1080</property>
  <property name="kdenlive:file_hash">4e6f3e60edbf766af6f42876c61ce183</property>
 </producer>
 <producer id="producer467" in="00:00:00.000" out="00:00:04.960">
  <property name="length">125</property>
  <property name="eof">pause</property>
  <property name="progressive">1</property>
  <property name="aspect_ratio">1</property>
  <property name="seekable">1</property>
  <property name="mlt_service">kdenlivetitle</property>
  <property name="kdenlive:duration">00:00:05:00</property>
  <property name="kdenlive:clipname">some</property>
  <property name="xmldata">&lt;kdenlivetitle duration="125" LC_NUMERIC="C" width="1920" height="1080" out="124">
 &lt;item type="QGraphicsTextItem" z-index="0">
  &lt;position x="671" y="402">
   &lt;transform>1,0,0,0,1,0,0,0,1&lt;/transform>
  &lt;/position>
  &lt;content line-spacing="0" shadow="0;#64000000;3;3;3" font-underline="0" box-height="276" font="Cubano" letter-spacing="0" font-pixel-size="230" font-italic="0" typewriter="0;2;1;0;0" alignment="4" font-weight="50" box-width="575.672" font-color="255,255,255,255">some&lt;/content>
 &lt;/item>
 &lt;startviewport rect="0,0,1920,1080"/>
 &lt;endviewport rect="0,0,1920,1080"/>
 &lt;background color="0,0,0,0"/>
&lt;/kdenlivetitle>
</property>
  <property name="kdenlive:folderid">21</property>
  <property name="kdenlive:id">668</property>
  <property name="kdenlive:clip_type">2</property>
  <property name="force_reload">0</property>
  <property name="meta.media.width">1920</property>
  <property name="meta.media.height">1080</property>
  <property name="kdenlive:file_hash">aab3d88cc74b5aa1580231156cee82bd</property>
 </producer>
 <producer id="producer468" in="00:00:00.000" out="00:00:04.960">
  <property name="length">125</property>
  <property name="eof">pause</property>
  <property name="progressive">1</property>
  <property name="aspect_ratio">1</property>
  <property name="seekable">1</property>
  <property name="mlt_service">kdenlivetitle</property>
  <property name="kdenlive:duration">00:00:05:00</property>
  <property name="kdenlive:clipname">new</property>
  <property name="xmldata">&lt;kdenlivetitle duration="125" LC_NUMERIC="C" width="1920" height="1080" out="124">
 &lt;item type="QGraphicsTextItem" z-index="0">
  &lt;position x="729" y="402">
   &lt;transform>1,0,0,0,1,0,0,0,1&lt;/transform>
  &lt;/position>
  &lt;content line-spacing="0" shadow="0;#64000000;3;3;3" font-underline="0" box-height="276" font="Cubano" letter-spacing="0" font-pixel-size="230" font-italic="0" typewriter="0;2;1;0;0" alignment="4" font-weight="50" box-width="459.766" font-color="255,255,255,255">new&lt;/content>
 &lt;/item>
 &lt;startviewport rect="0,0,1920,1080"/>
 &lt;endviewport rect="0,0,1920,1080"/>
 &lt;background color="0,0,0,0"/>
&lt;/kdenlivetitle>
</property>
  <property name="kdenlive:folderid">21</property>
  <property name="kdenlive:id">669</property>
  <property name="kdenlive:clip_type">2</property>
  <property name="force_reload">0</property>
  <property name="meta.media.width">1920</property>
  <property name="meta.media.height">1080</property>
  <property name="kdenlive:file_hash">ed307f3df90078614f2d20385858c233</property>
 </producer>
 <producer id="producer469" in="00:00:00.000" out="00:00:04.960">
  <property name="length">125</property>
  <property name="eof">pause</property>
  <property name="progressive">1</property>
  <property name="aspect_ratio">1</property>
  <property name="seekable">1</property>
  <property name="mlt_service">kdenlivetitle</property>
  <property name="kdenlive:duration">00:00:05:00</property>
  <property name="kdenlive:clipname">technology</property>
  <property name="xmldata">&lt;kdenlivetitle duration="125" LC_NUMERIC="C" width="1920" height="1080" out="124">
 &lt;item type="QGraphicsTextItem" z-index="0">
  &lt;position x="292" y="402">
   &lt;transform>1,0,0,0,1,0,0,0,1&lt;/transform>
  &lt;/position>
  &lt;content line-spacing="0" shadow="0;#64000000;3;3;3" font-underline="0" box-height="276" font="Cubano" letter-spacing="0" font-pixel-size="230" font-italic="0" typewriter="0;2;1;0;0" alignment="4" font-weight="50" box-width="1334.66" font-color="255,255,255,255">technology&lt;/content>
 &lt;/item>
 &lt;startviewport rect="0,0,1920,1080"/>
 &lt;endviewport rect="0,0,1920,1080"/>
 &lt;background color="0,0,0,0"/>
&lt;/kdenlivetitle>
</property>
  <property name="kdenlive:folderid">21</property>
  <property name="kdenlive:id">670</property>
  <property name="kdenlive:clip_type">2</property>
  <property name="force_reload">0</property>
  <property name="meta.media.width">1920</property>
  <property name="meta.media.height">1080</property>
  <property name="kdenlive:file_hash">40e7d0475486f976ae90b8f02f36264f</property>
 </producer>
 <producer id="producer470" in="00:00:00.000" out="00:00:08.720">
  <property name="length">219</property>
  <property name="eof">pause</property>
  <property name="resource">citations/citations-obsolete.png</property>
  <property name="ttl">25</property>
  <property name="aspect_ratio">1</property>
  <property name="progressive">1</property>
  <property name="seekable">1</property>
  <property name="format">2</property>
  <property name="meta.media.width">1920</property>
  <property name="meta.media.height">1080</property>
  <property name="mlt_service">qimage</property>
  <property name="kdenlive:clipname"/>
  <property name="kdenlive:duration">00:00:05:00</property>
  <property name="kdenlive:folderid">234</property>
  <property name="kdenlive:id">671</property>
  <property name="kdenlive:clip_type">2</property>
  <property name="kdenlive:file_size">33615</property>
  <property name="kdenlive:file_hash">0ce28d796e8c1849f73ce3238de6234a</property>
 </producer>
 <chain id="chain340" out="00:01:38.360">
  <property name="length">2460</property>
  <property name="eof">pause</property>
  <property name="resource">/home/liquidzulu/Videos/yt/b-roll/ALL Obsolete Industries Deserve The Taxi Bailout! [_tjZchYXMmA].webm</property>
  <property name="mlt_service">avformat-novalidate</property>
  <property name="meta.media.nb_streams">2</property>
  <property name="meta.media.0.stream.type">video</property>
  <property name="meta.media.0.stream.frame_rate">25</property>
  <property name="meta.media.0.stream.sample_aspect_ratio">1</property>
  <property name="meta.media.0.codec.width">1280</property>
  <property name="meta.media.0.codec.height">720</property>
  <property name="meta.media.0.codec.rotate">0</property>
  <property name="meta.media.0.codec.pix_fmt">yuv420p</property>
  <property name="meta.media.0.codec.sample_aspect_ratio">0</property>
  <property name="meta.media.0.codec.colorspace">709</property>
  <property name="meta.media.0.codec.name">vp9</property>
  <property name="meta.media.0.codec.long_name">Google VP9</property>
  <property name="meta.media.0.codec.bit_rate">0</property>
  <property name="meta.attr.0.stream.language.markup">eng</property>
  <property name="meta.attr.0.stream.DURATION.markup">00:01:38.360000000</property>
  <property name="meta.media.1.stream.type">audio</property>
  <property name="meta.media.1.codec.sample_fmt">fltp</property>
  <property name="meta.media.1.codec.sample_rate">48000</property>
  <property name="meta.media.1.codec.channels">2</property>
  <property name="meta.media.1.codec.name">opus</property>
  <property name="meta.media.1.codec.long_name">Opus</property>
  <property name="meta.media.1.codec.bit_rate">0</property>
  <property name="meta.attr.1.stream.language.markup">eng</property>
  <property name="meta.attr.1.stream.DURATION.markup">00:01:38.381000000</property>
  <property name="meta.attr.ENCODER.markup">Lavf59.27.100</property>
  <property name="seekable">1</property>
  <property name="meta.media.sample_aspect_num">1</property>
  <property name="meta.media.sample_aspect_den">1</property>
  <property name="format">3</property>
  <property name="audio_index">-1</property>
  <property name="video_index">0</property>
  <property name="meta.media.frame_rate_num">25</property>
  <property name="meta.media.frame_rate_den">1</property>
  <property name="meta.media.colorspace">709</property>
  <property name="meta.media.color_trc">2</property>
  <property name="meta.media.has_b_frames">0</property>
  <property name="meta.media.width">1280</property>
  <property name="meta.media.height">720</property>
  <property name="meta.media.color_range">mpeg</property>
  <property name="kdenlive:clipname"/>
  <property name="meta.media.top_field_first">0</property>
  <property name="meta.media.progressive">1</property>
  <property name="kdenlive:clip_type">0</property>
  <property name="kdenlive:folderid">14</property>
  <property name="kdenlive:id">672</property>
  <property name="kdenlive:file_size">17196539</property>
  <property name="kdenlive:file_hash">63d35652806e1d2edf12bd8ef5dff2d6</property>
  <property name="kdenlive:audio_max1">220</property>
  <property name="kdenlive:active_streams">-1</property>
  <property name="set.test_audio">1</property>
  <property name="mute_on_pause">1</property>
 </chain>
 <producer id="producer558" in="00:00:00.000" out="00:00:05.480">
  <property name="length">138</property>
  <property name="eof">pause</property>
  <property name="resource">images/luddites-1024x649.jpg</property>
  <property name="ttl">25</property>
  <property name="aspect_ratio">1</property>
  <property name="progressive">1</property>
  <property name="seekable">1</property>
  <property name="format">1</property>
  <property name="meta.media.width">1024</property>
  <property name="meta.media.height">649</property>
  <property name="mlt_service">qimage</property>
  <property name="kdenlive:clipname"/>
  <property name="kdenlive:duration">00:00:05:00</property>
  <property name="kdenlive:folderid">28</property>
  <property name="kdenlive:id">673</property>
  <property name="kdenlive:clip_type">2</property>
  <property name="kdenlive:file_size">176922</property>
  <property name="kdenlive:file_hash">3e48e727a69903f00c7be948808eedb6</property>
 </producer>
 <chain id="chain341" out="00:07:25.160">
  <property name="length">11130</property>
  <property name="eof">pause</property>
  <property name="resource">/home/liquidzulu/Videos/yt/b-roll/The Gunhilde Maersk - 4K Time Lapse by Toby Smith [h16zyxiwDLY].webm</property>
  <property name="mlt_service">avformat-novalidate</property>
  <property name="meta.media.nb_streams">2</property>
  <property name="meta.media.0.stream.type">video</property>
  <property name="meta.media.0.stream.frame_rate">24</property>
  <property name="meta.media.0.stream.sample_aspect_ratio">1</property>
  <property name="meta.media.0.codec.width">3840</property>
  <property name="meta.media.0.codec.height">2160</property>
  <property name="meta.media.0.codec.rotate">0</property>
  <property name="meta.media.0.codec.pix_fmt">yuv420p</property>
  <property name="meta.media.0.codec.sample_aspect_ratio">0</property>
  <property name="meta.media.0.codec.colorspace">709</property>
  <property name="meta.media.0.codec.color_trc">1</property>
  <property name="meta.media.0.codec.name">vp9</property>
  <property name="meta.media.0.codec.long_name">Google VP9</property>
  <property name="meta.media.0.codec.bit_rate">0</property>
  <property name="meta.attr.0.stream.language.markup">eng</property>
  <property name="meta.attr.0.stream.DURATION.markup">00:07:25.166000000</property>
  <property name="meta.media.1.stream.type">audio</property>
  <property name="meta.media.1.codec.sample_fmt">fltp</property>
  <property name="meta.media.1.codec.sample_rate">48000</property>
  <property name="meta.media.1.codec.channels">2</property>
  <property name="meta.media.1.codec.name">opus</property>
  <property name="meta.media.1.codec.long_name">Opus</property>
  <property name="meta.media.1.codec.bit_rate">0</property>
  <property name="meta.attr.1.stream.language.markup">eng</property>
  <property name="meta.attr.1.stream.DURATION.markup">00:07:25.181000000</property>
  <property name="meta.attr.ENCODER.markup">Lavf59.27.100</property>
  <property name="seekable">1</property>
  <property name="meta.media.sample_aspect_num">1</property>
  <property name="meta.media.sample_aspect_den">1</property>
  <property name="format">3</property>
  <property name="audio_index">-1</property>
  <property name="video_index">0</property>
  <property name="meta.media.frame_rate_num">24</property>
  <property name="meta.media.frame_rate_den">1</property>
  <property name="meta.media.colorspace">709</property>
  <property name="meta.media.color_trc">1</property>
  <property name="meta.media.has_b_frames">0</property>
  <property name="meta.media.width">3840</property>
  <property name="meta.media.height">2160</property>
  <property name="meta.media.color_range">mpeg</property>
  <property name="kdenlive:clipname"/>
  <property name="meta.media.top_field_first">0</property>
  <property name="meta.media.progressive">1</property>
  <property name="kdenlive:clip_type">0</property>
  <property name="kdenlive:folderid">14</property>
  <property name="kdenlive:id">674</property>
  <property name="kdenlive:file_size">970844546</property>
  <property name="kdenlive:file_hash">7ba869007c20856fda4ca6bf097c9396</property>
  <property name="kdenlive:audio_max1">1</property>
  <property name="kdenlive:active_streams">-1</property>
  <property name="set.test_audio">1</property>
  <property name="mute_on_pause">1</property>
 </chain>
 <producer id="producer471" in="00:00:00.000" out="00:00:10.520">
  <property name="length">264</property>
  <property name="eof">pause</property>
  <property name="resource">citations/citations-ship-timelapse.png</property>
  <property name="ttl">25</property>
  <property name="aspect_ratio">1</property>
  <property name="progressive">1</property>
  <property name="seekable">1</property>
  <property name="format">2</property>
  <property name="meta.media.width">1920</property>
  <property name="meta.media.height">1080</property>
  <property name="mlt_service">qimage</property>
  <property name="kdenlive:clipname"/>
  <property name="kdenlive:duration">00:00:05:00</property>
  <property name="kdenlive:folderid">234</property>
  <property name="kdenlive:id">675</property>
  <property name="kdenlive:clip_type">2</property>
  <property name="kdenlive:file_size">29392</property>
  <property name="kdenlive:file_hash">314b675e8eba32a49f847ee268cc626c</property>
 </producer>
 <producer id="producer559" in="00:00:00.000" out="00:00:16.720">
  <property name="length">419</property>
  <property name="eof">pause</property>
  <property name="resource">images/traditions.jpeg</property>
  <property name="ttl">25</property>
  <property name="aspect_ratio">1</property>
  <property name="progressive">1</property>
  <property name="seekable">1</property>
  <property name="format">1</property>
  <property name="meta.media.width">1280</property>
  <property name="meta.media.height">695</property>
  <property name="mlt_service">qimage</property>
  <property name="kdenlive:clipname"/>
  <property name="kdenlive:duration">00:00:05:00</property>
  <property name="kdenlive:folderid">28</property>
  <property name="kdenlive:id">676</property>
  <property name="kdenlive:clip_type">2</property>
  <property name="kdenlive:file_size">209279</property>
  <property name="kdenlive:file_hash">45ecaceadcafee90b3ce309f4cd99b4e</property>
 </producer>
 <producer id="producer472" in="00:00:00.000" out="00:00:14.320">
  <property name="length">359</property>
  <property name="eof">pause</property>
  <property name="resource">images/altruism.jpg</property>
  <property name="ttl">25</property>
  <property name="aspect_ratio">1</property>
  <property name="progressive">1</property>
  <property name="seekable">1</property>
  <property name="format">1</property>
  <property name="meta.media.width">720</property>
  <property name="meta.media.height">720</property>
  <property name="mlt_service">qimage</property>
  <property name="kdenlive:clipname"/>
  <property name="kdenlive:duration">00:00:05:00</property>
  <property name="kdenlive:folderid">28</property>
  <property name="kdenlive:id">677</property>
  <property name="kdenlive:clip_type">2</property>
  <property name="kdenlive:file_size">26633</property>
  <property name="kdenlive:file_hash">75e73e513684ed8752c58eeec59cf642</property>
 </producer>
 <chain id="chain342" out="00:00:52.360">
  <property name="length">1310</property>
  <property name="eof">pause</property>
  <property name="resource">/home/liquidzulu/Videos/yt/b-roll/Is A Man Not Entitled to the Sweat of His Browï¼Ÿ (Bioshock) [rnEDJ6tGr3s].mkv</property>
  <property name="mlt_service">avformat-novalidate</property>
  <property name="meta.media.nb_streams">2</property>
  <property name="meta.media.0.stream.type">video</property>
  <property name="meta.media.0.stream.frame_rate">29.97</property>
  <property name="meta.media.0.stream.sample_aspect_ratio">1</property>
  <property name="meta.media.0.codec.width">854</property>
  <property name="meta.media.0.codec.height">480</property>
  <property name="meta.media.0.codec.rotate">0</property>
  <property name="meta.media.0.codec.pix_fmt">yuv420p</property>
  <property name="meta.media.0.codec.sample_aspect_ratio">1</property>
  <property name="meta.media.0.codec.colorspace">709</property>
  <property name="meta.media.0.codec.color_trc">1</property>
  <property name="meta.media.0.codec.name">h264</property>
  <property name="meta.media.0.codec.long_name">H.264 / AVC / MPEG-4 AVC / MPEG-4 part 10</property>
  <property name="meta.media.0.codec.bit_rate">0</property>
  <property name="meta.attr.0.stream.HANDLER_NAME.markup">ISO Media file produced by Google Inc.</property>
  <property name="meta.attr.0.stream.VENDOR_ID.markup">[0][0][0][0]</property>
  <property name="meta.attr.0.stream.DURATION.markup">00:00:52.352000000</property>
  <property name="meta.media.1.stream.type">audio</property>
  <property name="meta.media.1.codec.sample_fmt">fltp</property>
  <property name="meta.media.1.codec.sample_rate">48000</property>
  <property name="meta.media.1.codec.channels">2</property>
  <property name="meta.media.1.codec.name">opus</property>
  <property name="meta.media.1.codec.long_name">Opus</property>
  <property name="meta.media.1.codec.bit_rate">0</property>
  <property name="meta.attr.1.stream.language.markup">eng</property>
  <property name="meta.attr.1.stream.DURATION.markup">00:00:52.381000000</property>
  <property name="meta.attr.COMPATIBLE_BRANDS.markup">iso6avc1mp41</property>
  <property name="meta.attr.MAJOR_BRAND.markup">dash</property>
  <property name="meta.attr.MINOR_VERSION.markup">0</property>
  <property name="meta.attr.ENCODER.markup">Lavf59.27.100</property>
  <property name="seekable">1</property>
  <property name="meta.media.sample_aspect_num">1</property>
  <property name="meta.media.sample_aspect_den">1</property>
  <property name="format">3</property>
  <property name="audio_index">-1</property>
  <property name="video_index">0</property>
  <property name="meta.media.frame_rate_num">30000</property>
  <property name="meta.media.frame_rate_den">1001</property>
  <property name="meta.media.colorspace">709</property>
  <property name="meta.media.color_trc">1</property>
  <property name="meta.media.has_b_frames">1</property>
  <property name="meta.media.width">854</property>
  <property name="meta.media.height">480</property>
  <property name="meta.media.color_range">mpeg</property>
  <property name="kdenlive:clipname"/>
  <property name="meta.media.top_field_first">0</property>
  <property name="meta.media.progressive">1</property>
  <property name="kdenlive:clip_type">0</property>
  <property name="kdenlive:folderid">14</property>
  <property name="kdenlive:id">678</property>
  <property name="kdenlive:file_size">1936890</property>
  <property name="kdenlive:file_hash">7d82f7eb1e1164af08f31f7691f937b3</property>
  <property name="kdenlive:audio_max1">209</property>
  <property name="kdenlive:active_streams">-1</property>
  <property name="set.test_audio">1</property>
  <property name="mute_on_pause">1</property>
 </chain>
 <producer id="producer479" in="00:00:00.000" out="00:00:06.320">
  <property name="length">159</property>
  <property name="eof">pause</property>
  <property name="resource">citations/citations-bioshock.png</property>
  <property name="ttl">25</property>
  <property name="aspect_ratio">1</property>
  <property name="progressive">1</property>
  <property name="seekable">1</property>
  <property name="format">2</property>
  <property name="meta.media.width">1920</property>
  <property name="meta.media.height">1080</property>
  <property name="mlt_service">qimage</property>
  <property name="kdenlive:clipname"/>
  <property name="kdenlive:duration">00:00:05:00</property>
  <property name="kdenlive:folderid">234</property>
  <property name="kdenlive:id">679</property>
  <property name="kdenlive:clip_type">2</property>
  <property name="kdenlive:file_size">30650</property>
  <property name="kdenlive:file_hash">6829ceabf6ada1314cf63b6e6405c0a8</property>
 </producer>
 <producer id="producer560" in="00:00:00.000" out="00:00:08.600">
  <property name="length">216</property>
  <property name="eof">pause</property>
  <property name="resource">images/greed.jpg</property>
  <property name="ttl">25</property>
  <property name="aspect_ratio">1</property>
  <property name="progressive">1</property>
  <property name="seekable">1</property>
  <property name="format">1</property>
  <property name="meta.media.width">3779</property>
  <property name="meta.media.height">1782</property>
  <property name="mlt_service">qimage</property>
  <property name="kdenlive:clipname"/>
  <property name="kdenlive:duration">00:00:05:00</property>
  <property name="kdenlive:folderid">28</property>
  <property name="kdenlive:id">680</property>
  <property name="kdenlive:clip_type">2</property>
  <property name="kdenlive:file_size">1153185</property>
  <property name="kdenlive:file_hash">8b6b2f8aedc9e4e40ea842ac8c83bf1b</property>
 </producer>
 <producer id="producer515" in="00:00:00.000" out="00:00:08.480">
  <property name="length">213</property>
  <property name="eof">pause</property>
  <property name="resource">images/giving up money.jpeg</property>
  <property name="ttl">25</property>
  <property name="aspect_ratio">1</property>
  <property name="progressive">1</property>
  <property name="seekable">1</property>
  <property name="format">1</property>
  <property name="meta.media.width">1732</property>
  <property name="meta.media.height">1154</property>
  <property name="mlt_service">qimage</property>
  <property name="kdenlive:clipname"/>
  <property name="kdenlive:duration">00:00:05:00</property>
  <property name="kdenlive:folderid">28</property>
  <property name="kdenlive:id">681</property>
  <property name="kdenlive:clip_type">2</property>
  <property name="kdenlive:file_size">163199</property>
  <property name="kdenlive:file_hash">6f87860b64feb9ca7484c56161d326d9</property>
 </producer>
 <producer id="producer592" in="00:00:00.000" out="00:00:04.960">
  <property name="length">00:00:05.000</property>
  <property name="eof">pause</property>
  <property name="resource">images/mining pickaxe.png</property>
  <property name="ttl">25</property>
  <property name="aspect_ratio">1</property>
  <property name="progressive">1</property>
  <property name="seekable">1</property>
  <property name="format">1</property>
  <property name="meta.media.width">998</property>
  <property name="meta.media.height">761</property>
  <property name="mlt_service">qimage</property>
  <property name="kdenlive:clipname"/>
  <property name="kdenlive:duration">00:00:05:00</property>
  <property name="kdenlive:folderid">28</property>
  <property name="kdenlive:id">682</property>
  <property name="kdenlive:clip_type">2</property>
  <property name="kdenlive:file_size">106415</property>
  <property name="kdenlive:file_hash">d4238a4b3c92b87e4ac76c63e9282ef6</property>
 </producer>
 <chain id="chain343" out="00:00:18.640">
  <property name="length">467</property>
  <property name="eof">pause</property>
  <property name="resource">animation/output/altruism.mp4</property>
  <property name="mlt_service">avformat-novalidate</property>
  <property name="meta.media.nb_streams">1</property>
  <property name="meta.media.0.stream.type">video</property>
  <property name="meta.media.0.stream.frame_rate">60</property>
  <property name="meta.media.0.stream.sample_aspect_ratio">0</property>
  <property name="meta.media.0.codec.width">1920</property>
  <property name="meta.media.0.codec.height">1080</property>
  <property name="meta.media.0.codec.rotate">0</property>
  <property name="meta.media.0.codec.pix_fmt">yuv420p</property>
  <property name="meta.media.0.codec.sample_aspect_ratio">0</property>
  <property name="meta.media.0.codec.colorspace">709</property>
  <property name="meta.media.0.codec.name">h264</property>
  <property name="meta.media.0.codec.long_name">H.264 / AVC / MPEG-4 AVC / MPEG-4 part 10</property>
  <property name="meta.media.0.codec.bit_rate">324709</property>
  <property name="meta.attr.0.stream.handler_name.markup">VideoHandler</property>
  <property name="meta.attr.0.stream.vendor_id.markup">[0][0][0][0]</property>
  <property name="meta.attr.major_brand.markup">isom</property>
  <property name="meta.attr.minor_version.markup">512</property>
  <property name="meta.attr.compatible_brands.markup">isomiso2avc1mp41</property>
  <property name="meta.attr.encoder.markup">Lavf58.24.100</property>
  <property name="seekable">1</property>
  <property name="meta.media.sample_aspect_num">1</property>
  <property name="meta.media.sample_aspect_den">1</property>
  <property name="format">3</property>
  <property name="audio_index">-1</property>
  <property name="video_index">0</property>
  <property name="meta.media.frame_rate_num">60</property>
  <property name="meta.media.frame_rate_den">1</property>
  <property name="meta.media.colorspace">709</property>
  <property name="meta.media.color_trc">2</property>
  <property name="meta.media.has_b_frames">2</property>
  <property name="meta.media.width">1920</property>
  <property name="meta.media.height">1080</property>
  <property name="meta.media.color_range">mpeg</property>
  <property name="kdenlive:clipname"/>
  <property name="meta.media.top_field_first">0</property>
  <property name="meta.media.progressive">1</property>
  <property name="kdenlive:clip_type">2</property>
  <property name="kdenlive:folderid">218</property>
  <property name="kdenlive:id">683</property>
  <property name="kdenlive:file_size">772437</property>
  <property name="kdenlive:file_hash">201d36ed8a5e681ac41094c0a7fa3440</property>
  <property name="mute_on_pause">1</property>
 </chain>
 <chain id="chain344" out="00:59:11.520">
  <property name="length">88789</property>
  <property name="eof">pause</property>
  <property name="resource">/home/liquidzulu/Videos/yt/b-roll/The Mind-Blowing Machines that Stamp Millions of Metal Parts - Smarter Every Day 288 [GDzBE6vz5r0].webm</property>
  <property name="mlt_service">avformat-novalidate</property>
  <property name="meta.media.nb_streams">2</property>
  <property name="meta.media.0.stream.type">video</property>
  <property name="meta.media.0.stream.frame_rate">59.9401</property>
  <property name="meta.media.0.stream.sample_aspect_ratio">1</property>
  <property name="meta.media.0.codec.width">3840</property>
  <property name="meta.media.0.codec.height">2160</property>
  <property name="meta.media.0.codec.rotate">0</property>
  <property name="meta.media.0.codec.pix_fmt">yuv420p</property>
  <property name="meta.media.0.codec.sample_aspect_ratio">0</property>
  <property name="meta.media.0.codec.colorspace">709</property>
  <property name="meta.media.0.codec.color_trc">1</property>
  <property name="meta.media.0.codec.name">vp9</property>
  <property name="meta.media.0.codec.long_name">Google VP9</property>
  <property name="meta.media.0.codec.bit_rate">0</property>
  <property name="meta.attr.0.stream.language.markup">eng</property>
  <property name="meta.attr.0.stream.DURATION.markup">00:59:11.514000000</property>
  <property name="meta.media.1.stream.type">audio</property>
  <property name="meta.media.1.codec.sample_fmt">fltp</property>
  <property name="meta.media.1.codec.sample_rate">48000</property>
  <property name="meta.media.1.codec.channels">2</property>
  <property name="meta.media.1.codec.name">opus</property>
  <property name="meta.media.1.codec.long_name">Opus</property>
  <property name="meta.media.1.codec.bit_rate">0</property>
  <property name="meta.attr.1.stream.language.markup">eng</property>
  <property name="meta.attr.1.stream.DURATION.markup">00:59:11.541000000</property>
  <property name="meta.attr.ENCODER.markup">Lavf59.27.100</property>
  <property name="seekable">1</property>
  <property name="meta.media.sample_aspect_num">1</property>
  <property name="meta.media.sample_aspect_den">1</property>
  <property name="format">3</property>
  <property name="audio_index">-1</property>
  <property name="video_index">0</property>
  <property name="meta.media.frame_rate_num">60000</property>
  <property name="meta.media.frame_rate_den">1001</property>
  <property name="meta.media.colorspace">709</property>
  <property name="meta.media.color_trc">1</property>
  <property name="meta.media.has_b_frames">0</property>
  <property name="meta.media.width">3840</property>
  <property name="meta.media.height">2160</property>
  <property name="meta.media.color_range">mpeg</property>
  <property name="kdenlive:clipname"/>
  <property name="meta.media.top_field_first">0</property>
  <property name="meta.media.progressive">1</property>
  <property name="kdenlive:clip_type">0</property>
  <property name="kdenlive:folderid">14</property>
  <property name="kdenlive:id">684</property>
  <property name="kdenlive:file_size">11487835963</property>
  <property name="kdenlive:file_hash">c96ddc6d2af74cb53c6bfd960317a762</property>
  <property name="kdenlive:audio_max1">256</property>
  <property name="kdenlive:active_streams">-1</property>
  <property name="set.test_audio">1</property>
  <property name="mute_on_pause">1</property>
 </chain>
 <producer id="producer480" in="00:00:00.000" out="00:00:07.000">
  <property name="length">176</property>
  <property name="eof">pause</property>
  <property name="resource">citations/citations-smarter-every-day.png</property>
  <property name="ttl">25</property>
  <property name="aspect_ratio">1</property>
  <property name="progressive">1</property>
  <property name="seekable">1</property>
  <property name="format">2</property>
  <property name="meta.media.width">1920</property>
  <property name="meta.media.height">1080</property>
  <property name="mlt_service">qimage</property>
  <property name="kdenlive:clipname"/>
  <property name="kdenlive:duration">00:00:05:00</property>
  <property name="kdenlive:folderid">234</property>
  <property name="kdenlive:id">685</property>
  <property name="kdenlive:clip_type">2</property>
  <property name="kdenlive:file_size">37475</property>
  <property name="kdenlive:file_hash">cbfe84221032a110ca0d7dd29e5cff30</property>
 </producer>
 <producer id="producer481" in="00:00:00.000" out="00:00:05.520">
  <property name="length">139</property>
  <property name="eof">pause</property>
  <property name="resource">citations/citations-charlie-chaplin.png</property>
  <property name="ttl">25</property>
  <property name="aspect_ratio">1</property>
  <property name="progressive">1</property>
  <property name="seekable">1</property>
  <property name="format">2</property>
  <property name="meta.media.width">1920</property>
  <property name="meta.media.height">1080</property>
  <property name="mlt_service">qimage</property>
  <property name="kdenlive:clipname"/>
  <property name="kdenlive:duration">00:00:05:00</property>
  <property name="kdenlive:folderid">234</property>
  <property name="kdenlive:id">686</property>
  <property name="kdenlive:clip_type">2</property>
  <property name="kdenlive:file_size">27527</property>
  <property name="kdenlive:file_hash">35b5d1e52e93127bd609128fa3c69a7e</property>
 </producer>
 <chain id="chain345" out="00:02:10.560">
  <property name="length">3265</property>
  <property name="eof">pause</property>
  <property name="resource">/home/liquidzulu/Videos/yt/b-roll/Charlie Chaplin - Modern Times - Roller Skating Scene [kPcEFHA3X0c].webm</property>
  <property name="mlt_service">avformat-novalidate</property>
  <property name="meta.media.nb_streams">2</property>
  <property name="meta.media.0.stream.type">video</property>
  <property name="meta.media.0.stream.frame_rate">25</property>
  <property name="meta.media.0.stream.sample_aspect_ratio">1</property>
  <property name="meta.media.0.codec.width">1920</property>
  <property name="meta.media.0.codec.height">1080</property>
  <property name="meta.media.0.codec.rotate">0</property>
  <property name="meta.media.0.codec.pix_fmt">yuv420p</property>
  <property name="meta.media.0.codec.sample_aspect_ratio">0</property>
  <property name="meta.media.0.codec.colorspace">709</property>
  <property name="meta.media.0.codec.color_trc">1</property>
  <property name="meta.media.0.codec.name">vp9</property>
  <property name="meta.media.0.codec.long_name">Google VP9</property>
  <property name="meta.media.0.codec.bit_rate">0</property>
  <property name="meta.attr.0.stream.language.markup">eng</property>
  <property name="meta.attr.0.stream.DURATION.markup">00:02:10.520000000</property>
  <property name="meta.media.1.stream.type">audio</property>
  <property name="meta.media.1.codec.sample_fmt">fltp</property>
  <property name="meta.media.1.codec.sample_rate">48000</property>
  <property name="meta.media.1.codec.channels">2</property>
  <property name="meta.media.1.codec.name">opus</property>
  <property name="meta.media.1.codec.long_name">Opus</property>
  <property name="meta.media.1.codec.bit_rate">0</property>
  <property name="meta.attr.1.stream.language.markup">eng</property>
  <property name="meta.attr.1.stream.DURATION.markup">00:02:10.601000000</property>
  <property name="meta.attr.ENCODER.markup">Lavf59.27.100</property>
  <property name="seekable">1</property>
  <property name="meta.media.sample_aspect_num">1</property>
  <property name="meta.media.sample_aspect_den">1</property>
  <property name="format">3</property>
  <property name="audio_index">-1</property>
  <property name="video_index">0</property>
  <property name="meta.media.frame_rate_num">25</property>
  <property name="meta.media.frame_rate_den">1</property>
  <property name="meta.media.colorspace">709</property>
  <property name="meta.media.color_trc">1</property>
  <property name="meta.media.has_b_frames">0</property>
  <property name="meta.media.width">1920</property>
  <property name="meta.media.height">1080</property>
  <property name="meta.media.color_range">mpeg</property>
  <property name="kdenlive:clipname"/>
  <property name="meta.media.top_field_first">0</property>
  <property name="meta.media.progressive">1</property>
  <property name="kdenlive:clip_type">0</property>
  <property name="kdenlive:folderid">14</property>
  <property name="kdenlive:id">687</property>
  <property name="kdenlive:file_size">37753081</property>
  <property name="kdenlive:file_hash">affacec5ca077e86adbeafc82e03ae5a</property>
  <property name="kdenlive:audio_max1">153</property>
  <property name="kdenlive:active_streams">-1</property>
  <property name="set.test_audio">1</property>
  <property name="mute_on_pause">1</property>
 </chain>
 <producer id="producer482" in="00:00:00.000" out="00:00:11.320">
  <property name="length">284</property>
  <property name="eof">pause</property>
  <property name="resource">images/the thinker.jpg</property>
  <property name="ttl">25</property>
  <property name="aspect_ratio">1</property>
  <property name="progressive">1</property>
  <property name="seekable">1</property>
  <property name="format">1</property>
  <property name="meta.media.width">2000</property>
  <property name="meta.media.height">1125</property>
  <property name="mlt_service">qimage</property>
  <property name="kdenlive:clipname"/>
  <property name="kdenlive:duration">00:00:05:00</property>
  <property name="kdenlive:folderid">28</property>
  <property name="kdenlive:id">688</property>
  <property name="kdenlive:clip_type">2</property>
  <property name="kdenlive:file_size">240893</property>
  <property name="kdenlive:file_hash">c0dae775a495d0832e0b2b54f686f5de</property>
 </producer>
 <producer id="producer593" in="00:00:00.000" out="00:00:19.680">
  <property name="length">00:00:19.720</property>
  <property name="eof">pause</property>
  <property name="resource">/home/liquidzulu/Pictures/yt/animation/output/project/footnotes/footnote-48/.all.png</property>
  <property name="ttl">1</property>
  <property name="aspect_ratio">1</property>
  <property name="progressive">1</property>
  <property name="seekable">1</property>
  <property name="format">2</property>
  <property name="meta.media.width">1920</property>
  <property name="meta.media.height">1080</property>
  <property name="mlt_service">qimage</property>
  <property name="kdenlive:clipname">footnote-48</property>
  <property name="low-pass">0</property>
  <property name="animation"/>
  <property name="luma_file"/>
  <property name="luma_duration">25</property>
  <property name="fade">0</property>
  <property name="crop">0</property>
  <property name="softness">0</property>
  <property name="loop">0</property>
  <property name="kdenlive:duration">00:00:19:18</property>
  <property name="kdenlive:folderid">273</property>
  <property name="kdenlive:id">689</property>
  <property name="kdenlive:clip_type">2</property>
  <property name="kdenlive:file_hash">beb222283b8f7095ca4a8ef2c968f246</property>
 </producer>
 <chain id="chain346" out="00:02:48.920">
  <property name="length">4224</property>
  <property name="eof">pause</property>
  <property name="resource">audio/quotes/ai-art-quote/creatives view.00.35.10.mp3</property>
  <property name="mlt_service">avformat</property>
  <property name="meta.media.nb_streams">1</property>
  <property name="meta.media.0.stream.type">audio</property>
  <property name="meta.media.0.codec.sample_fmt">fltp</property>
  <property name="meta.media.0.codec.sample_rate">44100</property>
  <property name="meta.media.0.codec.channels">2</property>
  <property name="meta.media.0.codec.name">mp3float</property>
  <property name="meta.media.0.codec.long_name">MP3 (MPEG audio layer 3)</property>
  <property name="meta.media.0.codec.bit_rate">192000</property>
  <property name="meta.attr.encoded_by.markup">LAME in FL Studio 21</property>
  <property name="meta.attr.date.markup">2023</property>
  <property name="seekable">1</property>
  <property name="audio_index">0</property>
  <property name="video_index">-1</property>
  <property name="kdenlive:clipname"/>
  <property name="kdenlive:clip_type">1</property>
  <property name="kdenlive:folderid">350</property>
  <property name="kdenlive:id">690</property>
  <property name="kdenlive:file_size">4055096</property>
  <property name="kdenlive:file_hash">2576d7199780ffeacceb019ee947e4ad</property>
  <property name="kdenlive:audio_max0">202</property>
  <property name="mute_on_pause">1</property>
 </chain>
 <producer id="producer584" in="00:00:00.000" out="00:00:43.040">
  <property name="length">1077</property>
  <property name="eof">pause</property>
  <property name="resource">quotes/out/eva-toorenent-c0-q0.png</property>
  <property name="ttl">25</property>
  <property name="aspect_ratio">1</property>
  <property name="progressive">1</property>
  <property name="seekable">1</property>
  <property name="format">2</property>
  <property name="meta.media.width">1920</property>
  <property name="meta.media.height">1080</property>
  <property name="mlt_service">qimage</property>
  <property name="kdenlive:clipname"/>
  <property name="kdenlive:duration">00:00:05:00</property>
  <property name="kdenlive:folderid">345</property>
  <property name="kdenlive:id">691</property>
  <property name="kdenlive:clip_type">2</property>
  <property name="kdenlive:file_size">84565</property>
  <property name="kdenlive:file_hash">3f1f57515cab345e133391f9976f101b</property>
 </producer>
 <producer id="producer575" in="00:00:00.000" out="00:00:43.040">
  <property name="length">1077</property>
  <property name="eof">pause</property>
  <property name="resource">quotes/out/eva-toorenent-c0.png</property>
  <property name="ttl">25</property>
  <property name="aspect_ratio">1</property>
  <property name="progressive">1</property>
  <property name="seekable">1</property>
  <property name="format">2</property>
  <property name="meta.media.width">1920</property>
  <property name="meta.media.height">1080</property>
  <property name="mlt_service">qimage</property>
  <property name="kdenlive:clipname"/>
  <property name="kdenlive:duration">00:00:05:00</property>
  <property name="kdenlive:folderid">345</property>
  <property name="kdenlive:id">692</property>
  <property name="kdenlive:clip_type">2</property>
  <property name="kdenlive:file_size">20992</property>
  <property name="kdenlive:file_hash">7bd05b489c0e8a5cbbd0ede1b9e24fc9</property>
 </producer>
 <producer id="producer538" in="00:00:00.000" out="00:00:43.040">
  <property name="length">1077</property>
  <property name="eof">pause</property>
  <property name="resource">quotes/out/eva-toorenent-card.png</property>
  <property name="ttl">25</property>
  <property name="aspect_ratio">1</property>
  <property name="progressive">1</property>
  <property name="seekable">1</property>
  <property name="format">2</property>
  <property name="meta.media.width">1920</property>
  <property name="meta.media.height">1080</property>
  <property name="mlt_service">qimage</property>
  <property name="kdenlive:clipname"/>
  <property name="kdenlive:duration">00:00:05:00</property>
  <property name="kdenlive:folderid">345</property>
  <property name="kdenlive:id">693</property>
  <property name="kdenlive:clip_type">2</property>
  <property name="kdenlive:file_size">451825</property>
  <property name="kdenlive:file_hash">2053c619b4f7111258e2285171885c6e</property>
 </producer>
 <chain id="chain347" out="00:02:54.120">
  <property name="length">4354</property>
  <property name="eof">pause</property>
  <property name="resource">/home/liquidzulu/Videos/yt/b-roll/They Took Our Jobs! - SOUTH PARK [APo2p4-WXsc].webm</property>
  <property name="mlt_service">avformat-novalidate</property>
  <property name="meta.media.nb_streams">2</property>
  <property name="meta.media.0.stream.type">video</property>
  <property name="meta.media.0.stream.frame_rate">23.9791</property>
  <property name="meta.media.0.stream.sample_aspect_ratio">1</property>
  <property name="meta.media.0.codec.width">1920</property>
  <property name="meta.media.0.codec.height">1080</property>
  <property name="meta.media.0.codec.rotate">0</property>
  <property name="meta.media.0.codec.pix_fmt">yuv420p</property>
  <property name="meta.media.0.codec.sample_aspect_ratio">0</property>
  <property name="meta.media.0.codec.colorspace">709</property>
  <property name="meta.media.0.codec.color_trc">1</property>
  <property name="meta.media.0.codec.name">vp9</property>
  <property name="meta.media.0.codec.long_name">Google VP9</property>
  <property name="meta.media.0.codec.bit_rate">0</property>
  <property name="meta.attr.0.stream.HANDLER_NAME.markup">ISO Media file produced by Google Inc. Created on: 01/10/2024.</property>
  <property name="meta.attr.0.stream.VENDOR_ID.markup">[0][0][0][0]</property>
  <property name="meta.attr.0.stream.DURATION.markup">00:02:54.132000000</property>
  <property name="meta.media.1.stream.type">audio</property>
  <property name="meta.media.1.codec.sample_fmt">fltp</property>
  <property name="meta.media.1.codec.sample_rate">48000</property>
  <property name="meta.media.1.codec.channels">2</property>
  <property name="meta.media.1.codec.name">opus</property>
  <property name="meta.media.1.codec.long_name">Opus</property>
  <property name="meta.media.1.codec.bit_rate">0</property>
  <property name="meta.attr.1.stream.language.markup">eng</property>
  <property name="meta.attr.1.stream.DURATION.markup">00:02:54.161000000</property>
  <property name="meta.attr.COMPATIBLE_BRANDS.markup">iso6mp41</property>
  <property name="meta.attr.MAJOR_BRAND.markup">dash</property>
  <property name="meta.attr.MINOR_VERSION.markup">0</property>
  <property name="meta.attr.ENCODER.markup">Lavf59.27.100</property>
  <property name="seekable">1</property>
  <property name="meta.media.sample_aspect_num">1</property>
  <property name="meta.media.sample_aspect_den">1</property>
  <property name="format">3</property>
  <property name="audio_index">-1</property>
  <property name="video_index">0</property>
  <property name="meta.media.frame_rate_num">6882</property>
  <property name="meta.media.frame_rate_den">287</property>
  <property name="meta.media.colorspace">709</property>
  <property name="meta.media.color_trc">1</property>
  <property name="meta.media.has_b_frames">0</property>
  <property name="meta.media.width">1920</property>
  <property name="meta.media.height">1080</property>
  <property name="meta.media.color_range">mpeg</property>
  <property name="kdenlive:clipname"/>
  <property name="meta.media.top_field_first">0</property>
  <property name="meta.media.progressive">1</property>
  <property name="kdenlive:clip_type">0</property>
  <property name="kdenlive:folderid">14</property>
  <property name="kdenlive:id">694</property>
  <property name="kdenlive:file_size">22118318</property>
  <property name="kdenlive:file_hash">091d7fe5ecfba4a2a02de7683ad2186a</property>
  <property name="kdenlive:audio_max1">161</property>
  <property name="kdenlive:active_streams">-1</property>
  <property name="set.test_audio">1</property>
  <property name="mute_on_pause">1</property>
 </chain>
 <producer id="producer483" in="00:00:00.000" out="00:00:13.720">
  <property name="length">344</property>
  <property name="eof">pause</property>
  <property name="resource">citations/citations-south-park.png</property>
  <property name="ttl">25</property>
  <property name="aspect_ratio">1</property>
  <property name="progressive">1</property>
  <property name="seekable">1</property>
  <property name="format">2</property>
  <property name="meta.media.width">1920</property>
  <property name="meta.media.height">1080</property>
  <property name="mlt_service">qimage</property>
  <property name="kdenlive:clipname"/>
  <property name="kdenlive:duration">00:00:05:00</property>
  <property name="kdenlive:folderid">234</property>
  <property name="kdenlive:id">695</property>
  <property name="kdenlive:clip_type">2</property>
  <property name="kdenlive:file_size">28297</property>
  <property name="kdenlive:file_hash">46157ba97e16a53abd61ca0c2b029341</property>
 </producer>
 <producer id="producer488" in="00:00:00.000" out="00:00:04.960">
  <property name="length">00:00:05.000</property>
  <property name="eof">pause</property>
  <property name="resource">images/bastiat.xcf</property>
  <property name="ttl">25</property>
  <property name="aspect_ratio">1</property>
  <property name="progressive">1</property>
  <property name="seekable">1</property>
  <property name="format">2</property>
  <property name="meta.media.width">1096</property>
  <property name="meta.media.height">1566</property>
  <property name="mlt_service">qimage</property>
  <property name="kdenlive:clipname"/>
  <property name="kdenlive:duration">00:00:05:00</property>
  <property name="kdenlive:folderid">28</property>
  <property name="kdenlive:id">696</property>
  <property name="kdenlive:clip_type">2</property>
  <property name="kdenlive:file_size">973471</property>
  <property name="kdenlive:file_hash">89a1f096cc53c0ae93c5116c0f179dce</property>
 </producer>
 <producer id="producer517" in="00:00:00.000" out="00:00:10.520">
  <property name="length">264</property>
  <property name="eof">pause</property>
  <property name="resource">images/iceberg.jpg</property>
  <property name="ttl">25</property>
  <property name="aspect_ratio">1</property>
  <property name="progressive">1</property>
  <property name="seekable">1</property>
  <property name="format">1</property>
  <property name="meta.media.width">2560</property>
  <property name="meta.media.height">1440</property>
  <property name="mlt_service">qimage</property>
  <property name="kdenlive:clipname"/>
  <property name="kdenlive:duration">00:00:05:00</property>
  <property name="kdenlive:folderid">28</property>
  <property name="kdenlive:id">697</property>
  <property name="kdenlive:clip_type">2</property>
  <property name="kdenlive:file_size">487217</property>
  <property name="kdenlive:file_hash">d6d26cf2d43bd15db893251c93e1bb79</property>
 </producer>
 <producer id="producer540" in="00:00:00.000" out="00:00:13.240">
  <property name="length">332</property>
  <property name="eof">pause</property>
  <property name="progressive">1</property>
  <property name="aspect_ratio">1</property>
  <property name="seekable">1</property>
  <property name="mlt_service">kdenlivetitle</property>
  <property name="kdenlive:duration">00:00:05:00</property>
  <property name="kdenlive:clipname">artists get ...</property>
  <property name="xmldata">&lt;kdenlivetitle duration="125" LC_NUMERIC="C" width="1920" height="1080" out="124">
 &lt;item type="QGraphicsTextItem" z-index="0">
  &lt;position x="706" y="438">
   &lt;transform>1,0,0,0,1,0,0,0,1&lt;/transform>
  &lt;/position>
  &lt;content line-spacing="0" shadow="0;#64000000;3;3;3" font-underline="0" box-height="204" font-outline-color="0,0,0,255" font="Cubano" letter-spacing="0" font-pixel-size="85" font-italic="0" typewriter="0;2;1;0;0" alignment="4" font-weight="50" font-outline="5" box-width="508.938" font-color="255,255,255,255">artists get
more money&lt;/content>
 &lt;/item>
 &lt;startviewport rect="0,0,1920,1080"/>
 &lt;endviewport rect="0,0,1920,1080"/>
 &lt;background color="0,0,0,0"/>
&lt;/kdenlivetitle>
</property>
  <property name="kdenlive:folderid">21</property>
  <property name="kdenlive:id">698</property>
  <property name="kdenlive:clip_type">2</property>
  <property name="force_reload">0</property>
  <property name="meta.media.width">1920</property>
  <property name="meta.media.height">1080</property>
  <property name="kdenlive:file_hash">df9b9e60a89326ddaea1aa322d251263</property>
 </producer>
 <producer id="producer563" in="00:00:00.000" out="00:00:13.240">
  <property name="length">332</property>
  <property name="eof">pause</property>
  <property name="progressive">1</property>
  <property name="aspect_ratio">1</property>
  <property name="seekable">1</property>
  <property name="mlt_service">kdenlivetitle</property>
  <property name="kdenlive:duration">00:00:05:00</property>
  <property name="kdenlive:clipname">that money c...</property>
  <property name="xmldata">&lt;kdenlivetitle duration="125" LC_NUMERIC="C" width="1920" height="1080" out="124">
 &lt;item type="QGraphicsTextItem" z-index="0">
  &lt;position x="536" y="438">
   &lt;transform>1,0,0,0,1,0,0,0,1&lt;/transform>
  &lt;/position>
  &lt;content line-spacing="0" shadow="0;#64000000;3;3;3" font-underline="0" box-height="204" font-outline-color="0,0,0,255" font="Cubano" letter-spacing="0" font-pixel-size="85" font-italic="0" typewriter="0;2;1;0;0" alignment="4" font-weight="50" font-outline="5" box-width="848.047" font-color="255,255,255,255">that money can't
be spent elsewhere&lt;/content>
 &lt;/item>
 &lt;startviewport rect="0,0,1920,1080"/>
 &lt;endviewport rect="0,0,1920,1080"/>
 &lt;background color="0,0,0,0"/>
&lt;/kdenlivetitle>
</property>
  <property name="kdenlive:folderid">21</property>
  <property name="kdenlive:id">699</property>
  <property name="kdenlive:clip_type">2</property>
  <property name="force_reload">0</property>
  <property name="meta.media.width">1920</property>
  <property name="meta.media.height">1080</property>
  <property name="kdenlive:file_hash">49da35090c7d8fe9f0d97f2c10bdea1b</property>
 </producer>
 <chain id="chain348" out="00:02:55.000">
  <property name="length">4376</property>
  <property name="eof">pause</property>
  <property name="resource">/home/liquidzulu/Videos/yt/b-roll/Using music to help unlock Alzheimer's patients' memories [G7vkKHYosuQ].webm</property>
  <property name="mlt_service">avformat-novalidate</property>
  <property name="meta.media.nb_streams">2</property>
  <property name="meta.media.0.stream.type">video</property>
  <property name="meta.media.0.stream.frame_rate">29.97</property>
  <property name="meta.media.0.stream.sample_aspect_ratio">1</property>
  <property name="meta.media.0.codec.width">1280</property>
  <property name="meta.media.0.codec.height">720</property>
  <property name="meta.media.0.codec.rotate">0</property>
  <property name="meta.media.0.codec.pix_fmt">yuv420p</property>
  <property name="meta.media.0.codec.sample_aspect_ratio">0</property>
  <property name="meta.media.0.codec.colorspace">709</property>
  <property name="meta.media.0.codec.name">vp9</property>
  <property name="meta.media.0.codec.long_name">Google VP9</property>
  <property name="meta.media.0.codec.bit_rate">0</property>
  <property name="meta.attr.0.stream.language.markup">eng</property>
  <property name="meta.attr.0.stream.DURATION.markup">00:02:55.007000000</property>
  <property name="meta.media.1.stream.type">audio</property>
  <property name="meta.media.1.codec.sample_fmt">fltp</property>
  <property name="meta.media.1.codec.sample_rate">48000</property>
  <property name="meta.media.1.codec.channels">2</property>
  <property name="meta.media.1.codec.name">opus</property>
  <property name="meta.media.1.codec.long_name">Opus</property>
  <property name="meta.media.1.codec.bit_rate">0</property>
  <property name="meta.attr.1.stream.language.markup">eng</property>
  <property name="meta.attr.1.stream.DURATION.markup">00:02:55.021000000</property>
  <property name="meta.attr.ENCODER.markup">Lavf59.27.100</property>
  <property name="seekable">1</property>
  <property name="meta.media.sample_aspect_num">1</property>
  <property name="meta.media.sample_aspect_den">1</property>
  <property name="format">3</property>
  <property name="audio_index">-1</property>
  <property name="video_index">0</property>
  <property name="meta.media.frame_rate_num">30000</property>
  <property name="meta.media.frame_rate_den">1001</property>
  <property name="meta.media.colorspace">709</property>
  <property name="meta.media.color_trc">2</property>
  <property name="meta.media.has_b_frames">0</property>
  <property name="meta.media.width">1280</property>
  <property name="meta.media.height">720</property>
  <property name="meta.media.color_range">mpeg</property>
  <property name="kdenlive:clipname"/>
  <property name="meta.media.top_field_first">0</property>
  <property name="meta.media.progressive">1</property>
  <property name="kdenlive:clip_type">0</property>
  <property name="kdenlive:folderid">14</property>
  <property name="kdenlive:id">700</property>
  <property name="kdenlive:file_size">33047147</property>
  <property name="kdenlive:file_hash">00091dde7a63d73c96a03c2fd2939c70</property>
  <property name="kdenlive:audio_max1">146</property>
  <property name="kdenlive:active_streams">-1</property>
  <property name="set.test_audio">1</property>
  <property name="mute_on_pause">1</property>
 </chain>
 <producer id="producer492" in="00:00:00.000" out="00:00:08.000">
  <property name="length">201</property>
  <property name="eof">pause</property>
  <property name="resource">citations/citations-alzheimers.png</property>
  <property name="ttl">25</property>
  <property name="aspect_ratio">1</property>
  <property name="progressive">1</property>
  <property name="seekable">1</property>
  <property name="format">2</property>
  <property name="meta.media.width">1920</property>
  <property name="meta.media.height">1080</property>
  <property name="mlt_service">qimage</property>
  <property name="kdenlive:clipname"/>
  <property name="kdenlive:duration">00:00:05:00</property>
  <property name="kdenlive:folderid">234</property>
  <property name="kdenlive:id">701</property>
  <property name="kdenlive:clip_type">2</property>
  <property name="kdenlive:file_size">32633</property>
  <property name="kdenlive:file_hash">69ebfed85ca576baed9bfd2afe5504d2</property>
 </producer>
 <chain id="chain349" out="00:07:09.920">
  <property name="length">10749</property>
  <property name="eof">pause</property>
  <property name="resource">/home/liquidzulu/Videos/yt/b-roll/The Intense 8 Hour Hunt ï½œ Attenborough Life of Mammals ï½œ BBC Earth [826HMLoiE_o].webm</property>
  <property name="mlt_service">avformat-novalidate</property>
  <property name="meta.media.nb_streams">2</property>
  <property name="meta.media.0.stream.type">video</property>
  <property name="meta.media.0.stream.frame_rate">25</property>
  <property name="meta.media.0.stream.sample_aspect_ratio">1</property>
  <property name="meta.media.0.codec.width">634</property>
  <property name="meta.media.0.codec.height">360</property>
  <property name="meta.media.0.codec.rotate">0</property>
  <property name="meta.media.0.codec.pix_fmt">yuv420p</property>
  <property name="meta.media.0.codec.sample_aspect_ratio">0</property>
  <property name="meta.media.0.codec.colorspace">709</property>
  <property name="meta.media.0.codec.color_trc">1</property>
  <property name="meta.media.0.codec.name">vp9</property>
  <property name="meta.media.0.codec.long_name">Google VP9</property>
  <property name="meta.media.0.codec.bit_rate">0</property>
  <property name="meta.attr.0.stream.language.markup">eng</property>
  <property name="meta.attr.0.stream.DURATION.markup">00:07:09.920000000</property>
  <property name="meta.media.1.stream.type">audio</property>
  <property name="meta.media.1.codec.sample_fmt">fltp</property>
  <property name="meta.media.1.codec.sample_rate">48000</property>
  <property name="meta.media.1.codec.channels">2</property>
  <property name="meta.media.1.codec.name">opus</property>
  <property name="meta.media.1.codec.long_name">Opus</property>
  <property name="meta.media.1.codec.bit_rate">0</property>
  <property name="meta.attr.1.stream.language.markup">eng</property>
  <property name="meta.attr.1.stream.DURATION.markup">00:07:09.941000000</property>
  <property name="meta.attr.ENCODER.markup">Lavf59.27.100</property>
  <property name="seekable">1</property>
  <property name="meta.media.sample_aspect_num">1</property>
  <property name="meta.media.sample_aspect_den">1</property>
  <property name="format">3</property>
  <property name="audio_index">-1</property>
  <property name="video_index">0</property>
  <property name="meta.media.frame_rate_num">25</property>
  <property name="meta.media.frame_rate_den">1</property>
  <property name="meta.media.colorspace">709</property>
  <property name="meta.media.color_trc">1</property>
  <property name="meta.media.has_b_frames">0</property>
  <property name="meta.media.width">634</property>
  <property name="meta.media.height">360</property>
  <property name="meta.media.color_range">mpeg</property>
  <property name="kdenlive:clipname"/>
  <property name="meta.media.top_field_first">0</property>
  <property name="meta.media.progressive">1</property>
  <property name="kdenlive:clip_type">0</property>
  <property name="kdenlive:folderid">14</property>
  <property name="kdenlive:id">702</property>
  <property name="kdenlive:file_size">26362561</property>
  <property name="kdenlive:file_hash">3d6014e4cf69b13577357be50ce971dd</property>
  <property name="kdenlive:audio_max1">200</property>
  <property name="kdenlive:active_streams">-1</property>
  <property name="set.test_audio">1</property>
  <property name="mute_on_pause">1</property>
 </chain>
 <producer id="producer493" in="00:00:00.000" out="00:00:06.440">
  <property name="length">162</property>
  <property name="eof">pause</property>
  <property name="resource">citations/citations-hunter-gatherer.png</property>
  <property name="ttl">25</property>
  <property name="aspect_ratio">1</property>
  <property name="progressive">1</property>
  <property name="seekable">1</property>
  <property name="format">2</property>
  <property name="meta.media.width">1920</property>
  <property name="meta.media.height">1080</property>
  <property name="mlt_service">qimage</property>
  <property name="kdenlive:clipname"/>
  <property name="kdenlive:duration">00:00:05:00</property>
  <property name="kdenlive:folderid">234</property>
  <property name="kdenlive:id">703</property>
  <property name="kdenlive:clip_type">2</property>
  <property name="kdenlive:file_size">31500</property>
  <property name="kdenlive:file_hash">0bec8f57009acf6ae91acb486d25431e</property>
 </producer>
 <chain id="chain350" out="00:01:47.600">
  <property name="length">2691</property>
  <property name="eof">pause</property>
  <property name="resource">/home/liquidzulu/Videos/yt/b-roll/The famous Shibuya crossing - 90 seconds [Od6EeCWytZo].webm</property>
  <property name="mlt_service">avformat-novalidate</property>
  <property name="meta.media.nb_streams">2</property>
  <property name="meta.media.0.stream.type">video</property>
  <property name="meta.media.0.stream.frame_rate">25</property>
  <property name="meta.media.0.stream.sample_aspect_ratio">1</property>
  <property name="meta.media.0.codec.width">1920</property>
  <property name="meta.media.0.codec.height">1080</property>
  <property name="meta.media.0.codec.rotate">0</property>
  <property name="meta.media.0.codec.pix_fmt">yuv420p</property>
  <property name="meta.media.0.codec.sample_aspect_ratio">0</property>
  <property name="meta.media.0.codec.colorspace">709</property>
  <property name="meta.media.0.codec.name">vp9</property>
  <property name="meta.media.0.codec.long_name">Google VP9</property>
  <property name="meta.media.0.codec.bit_rate">0</property>
  <property name="meta.attr.0.stream.language.markup">eng</property>
  <property name="meta.attr.0.stream.DURATION.markup">00:01:47.600000000</property>
  <property name="meta.media.1.stream.type">audio</property>
  <property name="meta.media.1.codec.sample_fmt">fltp</property>
  <property name="meta.media.1.codec.sample_rate">48000</property>
  <property name="meta.media.1.codec.channels">2</property>
  <property name="meta.media.1.codec.name">opus</property>
  <property name="meta.media.1.codec.long_name">Opus</property>
  <property name="meta.media.1.codec.bit_rate">0</property>
  <property name="meta.attr.1.stream.language.markup">eng</property>
  <property name="meta.attr.1.stream.DURATION.markup">00:01:47.621000000</property>
  <property name="meta.attr.ENCODER.markup">Lavf59.27.100</property>
  <property name="seekable">1</property>
  <property name="meta.media.sample_aspect_num">1</property>
  <property name="meta.media.sample_aspect_den">1</property>
  <property name="format">3</property>
  <property name="audio_index">-1</property>
  <property name="video_index">0</property>
  <property name="meta.media.frame_rate_num">25</property>
  <property name="meta.media.frame_rate_den">1</property>
  <property name="meta.media.colorspace">709</property>
  <property name="meta.media.color_trc">2</property>
  <property name="meta.media.has_b_frames">0</property>
  <property name="meta.media.width">1920</property>
  <property name="meta.media.height">1080</property>
  <property name="meta.media.color_range">mpeg</property>
  <property name="kdenlive:clipname"/>
  <property name="meta.media.top_field_first">0</property>
  <property name="meta.media.progressive">1</property>
  <property name="kdenlive:clip_type">0</property>
  <property name="kdenlive:folderid">14</property>
  <property name="kdenlive:id">704</property>
  <property name="kdenlive:file_size">37202023</property>
  <property name="kdenlive:file_hash">632dfbf2852f731e6b7ef2593f776fed</property>
  <property name="kdenlive:audio_max1">195</property>
  <property name="kdenlive:active_streams">-1</property>
  <property name="set.test_audio">1</property>
  <property name="mute_on_pause">1</property>
 </chain>
 <producer id="producer496" in="00:00:00.000" out="00:00:14.560">
  <property name="length">365</property>
  <property name="eof">pause</property>
  <property name="resource">citations/citations-shibuya.png</property>
  <property name="ttl">25</property>
  <property name="aspect_ratio">1</property>
  <property name="progressive">1</property>
  <property name="seekable">1</property>
  <property name="format">2</property>
  <property name="meta.media.width">1920</property>
  <property name="meta.media.height">1080</property>
  <property name="mlt_service">qimage</property>
  <property name="kdenlive:clipname"/>
  <property name="kdenlive:duration">00:00:05:00</property>
  <property name="kdenlive:folderid">234</property>
  <property name="kdenlive:id">705</property>
  <property name="kdenlive:clip_type">2</property>
  <property name="kdenlive:file_size">27173</property>
  <property name="kdenlive:file_hash">73e838f1f05c828d36eeb08edd46cef9</property>
 </producer>
 <chain id="chain351" out="00:00:05.360">
  <property name="length">135</property>
  <property name="eof">pause</property>
  <property name="resource">animation/output/medieval farmer/medieval farmer.mp4</property>
  <property name="mlt_service">avformat-novalidate</property>
  <property name="meta.media.nb_streams">2</property>
  <property name="meta.media.0.stream.type">video</property>
  <property name="meta.media.0.stream.frame_rate">25</property>
  <property name="meta.media.0.stream.sample_aspect_ratio">1</property>
  <property name="meta.media.0.codec.width">1920</property>
  <property name="meta.media.0.codec.height">1080</property>
  <property name="meta.media.0.codec.rotate">0</property>
  <property name="meta.media.0.codec.pix_fmt">yuv420p</property>
  <property name="meta.media.0.codec.sample_aspect_ratio">1</property>
  <property name="meta.media.0.codec.colorspace">709</property>
  <property name="meta.media.0.codec.color_trc">1</property>
  <property name="meta.media.0.codec.name">h264</property>
  <property name="meta.media.0.codec.long_name">H.264 / AVC / MPEG-4 AVC / MPEG-4 part 10</property>
  <property name="meta.media.0.codec.bit_rate">7246281</property>
  <property name="meta.attr.0.stream.handler_name.markup">VideoHandler</property>
  <property name="meta.attr.0.stream.vendor_id.markup">[0][0][0][0]</property>
  <property name="meta.media.1.stream.type">audio</property>
  <property name="meta.media.1.codec.sample_fmt">fltp</property>
  <property name="meta.media.1.codec.sample_rate">48000</property>
  <property name="meta.media.1.codec.channels">2</property>
  <property name="meta.media.1.codec.name">aac</property>
  <property name="meta.media.1.codec.long_name">AAC (Advanced Audio Coding)</property>
  <property name="meta.media.1.codec.bit_rate">2275</property>
  <property name="meta.attr.1.stream.handler_name.markup">SoundHandler</property>
  <property name="meta.attr.1.stream.vendor_id.markup">[0][0][0][0]</property>
  <property name="meta.attr.major_brand.markup">isom</property>
  <property name="meta.attr.minor_version.markup">512</property>
  <property name="meta.attr.compatible_brands.markup">isomiso2avc1mp41</property>
  <property name="meta.attr.encoder.markup">Lavf59.27.100</property>
  <property name="seekable">1</property>
  <property name="meta.media.sample_aspect_num">1</property>
  <property name="meta.media.sample_aspect_den">1</property>
  <property name="format">3</property>
  <property name="audio_index">1</property>
  <property name="video_index">0</property>
  <property name="meta.media.frame_rate_num">25</property>
  <property name="meta.media.frame_rate_den">1</property>
  <property name="meta.media.colorspace">709</property>
  <property name="meta.media.color_trc">1</property>
  <property name="meta.media.has_b_frames">2</property>
  <property name="meta.media.width">1920</property>
  <property name="meta.media.height">1080</property>
  <property name="meta.media.color_range">mpeg</property>
  <property name="kdenlive:clipname"/>
  <property name="meta.media.top_field_first">0</property>
  <property name="meta.media.progressive">1</property>
  <property name="kdenlive:clip_type">0</property>
  <property name="kdenlive:folderid">218</property>
  <property name="kdenlive:id">706</property>
  <property name="kdenlive:file_size">4898401</property>
  <property name="kdenlive:file_hash">6a52df130ac359c40ed56fb5efe18414</property>
  <property name="kdenlive:audio_max1">1</property>
  <property name="mute_on_pause">1</property>
 </chain>
 <producer id="producer497" in="00:00:00.000" out="00:00:05.120">
  <property name="length">129</property>
  <property name="eof">pause</property>
  <property name="resource">images/robot-painting.jpg</property>
  <property name="ttl">25</property>
  <property name="aspect_ratio">1</property>
  <property name="progressive">1</property>
  <property name="seekable">1</property>
  <property name="format">1</property>
  <property name="meta.media.width">718</property>
  <property name="meta.media.height">633</property>
  <property name="mlt_service">qimage</property>
  <property name="kdenlive:clipname"/>
  <property name="kdenlive:duration">00:00:05:00</property>
  <property name="kdenlive:folderid">28</property>
  <property name="kdenlive:id">707</property>
  <property name="kdenlive:clip_type">2</property>
  <property name="kdenlive:file_size">125172</property>
  <property name="kdenlive:file_hash">a4d7ef7fd7db61966051b3be0196bbec</property>
 </producer>
 <chain id="producer498" out="00:00:17.240">
  <property name="length">432</property>
  <property name="eof">pause</property>
  <property name="resource">images/atlas.webp</property>
  <property name="mlt_service">avformat-novalidate</property>
  <property name="meta.media.nb_streams">1</property>
  <property name="meta.media.0.stream.type">video</property>
  <property name="meta.media.0.stream.frame_rate">25</property>
  <property name="meta.media.0.stream.sample_aspect_ratio">0</property>
  <property name="meta.media.0.codec.width">504</property>
  <property name="meta.media.0.codec.height">606</property>
  <property name="meta.media.0.codec.rotate">0</property>
  <property name="meta.media.0.codec.pix_fmt">yuv420p</property>
  <property name="meta.media.0.codec.sample_aspect_ratio">0</property>
  <property name="meta.media.0.codec.colorspace">601</property>
  <property name="meta.media.0.codec.name">webp</property>
  <property name="meta.media.0.codec.long_name">WebP image</property>
  <property name="meta.media.0.codec.bit_rate">0</property>
  <property name="seekable">1</property>
  <property name="meta.media.sample_aspect_num">1</property>
  <property name="meta.media.sample_aspect_den">1</property>
  <property name="aspect_ratio">1</property>
  <property name="format">3</property>
  <property name="audio_index">-1</property>
  <property name="video_index">0</property>
  <property name="ttl">25</property>
  <property name="progressive">1</property>
  <property name="kdenlive:clipname">atlas.webp</property>
  <property name="kdenlive:duration">00:00:05.000</property>
  <property name="kdenlive:folderid">28</property>
  <property name="kdenlive:id">708</property>
  <property name="kdenlive:clip_type">2</property>
  <property name="kdenlive:file_size">75880</property>
  <property name="kdenlive:originalurl">images/atlas.webp</property>
  <property name="kdenlive:proxy">-</property>
  <property name="meta.media.frame_rate_num">25</property>
  <property name="meta.media.frame_rate_den">1</property>
  <property name="meta.media.colorspace">601</property>
  <property name="meta.media.color_trc">2</property>
  <property name="meta.media.has_b_frames">0</property>
  <property name="meta.media.width">504</property>
  <property name="meta.media.height">606</property>
  <property name="meta.media.color_range">mpeg</property>
  <property name="meta.media.top_field_first">0</property>
  <property name="meta.media.progressive">1</property>
  <property name="kdenlive:file_hash">f500e781ae7cde1652431ad1b14de7a1</property>
  <property name="mute_on_pause">1</property>
 </chain>
 <chain id="chain352" out="00:00:14.000">
  <property name="length">351</property>
  <property name="eof">pause</property>
  <property name="resource">animation/output/worry-about-ai.mp4</property>
  <property name="mlt_service">avformat-novalidate</property>
  <property name="meta.media.nb_streams">1</property>
  <property name="meta.media.0.stream.type">video</property>
  <property name="meta.media.0.stream.frame_rate">30</property>
  <property name="meta.media.0.stream.sample_aspect_ratio">0</property>
  <property name="meta.media.0.codec.width">1920</property>
  <property name="meta.media.0.codec.height">1080</property>
  <property name="meta.media.0.codec.rotate">0</property>
  <property name="meta.media.0.codec.pix_fmt">yuv420p</property>
  <property name="meta.media.0.codec.sample_aspect_ratio">0</property>
  <property name="meta.media.0.codec.colorspace">709</property>
  <property name="meta.media.0.codec.name">h264</property>
  <property name="meta.media.0.codec.long_name">H.264 / AVC / MPEG-4 AVC / MPEG-4 part 10</property>
  <property name="meta.media.0.codec.bit_rate">142219</property>
  <property name="meta.attr.0.stream.handler_name.markup">VideoHandler</property>
  <property name="meta.attr.0.stream.vendor_id.markup">[0][0][0][0]</property>
  <property name="meta.attr.major_brand.markup">isom</property>
  <property name="meta.attr.minor_version.markup">512</property>
  <property name="meta.attr.compatible_brands.markup">isomiso2avc1mp41</property>
  <property name="meta.attr.encoder.markup">Lavf58.24.100</property>
  <property name="seekable">1</property>
  <property name="meta.media.sample_aspect_num">1</property>
  <property name="meta.media.sample_aspect_den">1</property>
  <property name="format">3</property>
  <property name="audio_index">-1</property>
  <property name="video_index">0</property>
  <property name="meta.media.frame_rate_num">30</property>
  <property name="meta.media.frame_rate_den">1</property>
  <property name="meta.media.colorspace">709</property>
  <property name="meta.media.color_trc">2</property>
  <property name="meta.media.has_b_frames">2</property>
  <property name="meta.media.width">1920</property>
  <property name="meta.media.height">1080</property>
  <property name="meta.media.color_range">mpeg</property>
  <property name="kdenlive:clipname"/>
  <property name="meta.media.top_field_first">0</property>
  <property name="meta.media.progressive">1</property>
  <property name="kdenlive:clip_type">2</property>
  <property name="kdenlive:folderid">218</property>
  <property name="kdenlive:id">709</property>
  <property name="kdenlive:file_size">255329</property>
  <property name="kdenlive:file_hash">7cfef77dfe064c1bb1206e598a66a1ff</property>
  <property name="mute_on_pause">1</property>
 </chain>
 <producer id="producer595" in="00:00:00.000" out="00:00:19.680">
  <property name="length">00:00:19.720</property>
  <property name="eof">pause</property>
  <property name="resource">/home/liquidzulu/Pictures/yt/animation/output/project/footnotes/footnote-50/.all.png</property>
  <property name="ttl">1</property>
  <property name="aspect_ratio">1</property>
  <property name="progressive">1</property>
  <property name="seekable">1</property>
  <property name="format">2</property>
  <property name="meta.media.width">1920</property>
  <property name="meta.media.height">1080</property>
  <property name="mlt_service">qimage</property>
  <property name="kdenlive:clipname">footnote-50</property>
  <property name="low-pass">0</property>
  <property name="animation"/>
  <property name="luma_file"/>
  <property name="luma_duration">25</property>
  <property name="fade">0</property>
  <property name="crop">0</property>
  <property name="softness">0</property>
  <property name="loop">0</property>
  <property name="kdenlive:duration">00:00:19:18</property>
  <property name="kdenlive:folderid">273</property>
  <property name="kdenlive:id">710</property>
  <property name="kdenlive:clip_type">2</property>
  <property name="kdenlive:file_hash">c8c64ddb736d17a90c8dd73a2770136e</property>
 </producer>
 <producer id="producer596" in="00:00:00.000" out="00:00:19.680">
  <property name="length">00:00:19.720</property>
  <property name="eof">pause</property>
  <property name="resource">/home/liquidzulu/Pictures/yt/animation/output/project/footnotes/footnote-51/.all.png</property>
  <property name="ttl">1</property>
  <property name="aspect_ratio">1</property>
  <property name="progressive">1</property>
  <property name="seekable">1</property>
  <property name="format">2</property>
  <property name="meta.media.width">1920</property>
  <property name="meta.media.height">1080</property>
  <property name="mlt_service">qimage</property>
  <property name="kdenlive:clipname">footnote-51</property>
  <property name="low-pass">0</property>
  <property name="animation"/>
  <property name="luma_file"/>
  <property name="luma_duration">25</property>
  <property name="fade">0</property>
  <property name="crop">0</property>
  <property name="softness">0</property>
  <property name="loop">0</property>
  <property name="kdenlive:duration">00:00:19:18</property>
  <property name="kdenlive:folderid">273</property>
  <property name="kdenlive:id">711</property>
  <property name="kdenlive:clip_type">2</property>
  <property name="kdenlive:file_hash">506882382d6cc52dd228856cdc27b382</property>
 </producer>
 <producer id="producer597" in="00:00:00.000" out="00:00:19.680">
  <property name="length">00:00:19.720</property>
  <property name="eof">pause</property>
  <property name="resource">/home/liquidzulu/Pictures/yt/animation/output/project/footnotes/footnote-53/.all.png</property>
  <property name="ttl">1</property>
  <property name="aspect_ratio">1</property>
  <property name="progressive">1</property>
  <property name="seekable">1</property>
  <property name="format">2</property>
  <property name="meta.media.width">1920</property>
  <property name="meta.media.height">1080</property>
  <property name="mlt_service">qimage</property>
  <property name="kdenlive:clipname">footnote-53</property>
  <property name="low-pass">0</property>
  <property name="animation"/>
  <property name="luma_file"/>
  <property name="luma_duration">1</property>
  <property name="fade">0</property>
  <property name="crop">0</property>
  <property name="softness">0</property>
  <property name="loop">0</property>
  <property name="kdenlive:duration">00:00:19:18</property>
  <property name="kdenlive:folderid">273</property>
  <property name="kdenlive:id">712</property>
  <property name="kdenlive:clip_type">2</property>
  <property name="kdenlive:file_hash">b0b66711fa4e4e9f2da630dbf77afc57</property>
 </producer>
 <producer id="producer598" in="00:00:00.000" out="00:00:19.680">
  <property name="length">00:00:19.720</property>
  <property name="eof">pause</property>
  <property name="resource">/home/liquidzulu/Pictures/yt/animation/output/project/footnotes/footnote-52/.all.png</property>
  <property name="ttl">1</property>
  <property name="aspect_ratio">1</property>
  <property name="progressive">1</property>
  <property name="seekable">1</property>
  <property name="format">2</property>
  <property name="meta.media.width">1920</property>
  <property name="meta.media.height">1080</property>
  <property name="mlt_service">qimage</property>
  <property name="kdenlive:clipname">footnote-52</property>
  <property name="low-pass">0</property>
  <property name="animation"/>
  <property name="luma_file"/>
  <property name="luma_duration">1</property>
  <property name="fade">0</property>
  <property name="crop">0</property>
  <property name="softness">0</property>
  <property name="loop">0</property>
  <property name="kdenlive:duration">00:00:19:18</property>
  <property name="kdenlive:folderid">273</property>
  <property name="kdenlive:id">713</property>
  <property name="kdenlive:clip_type">2</property>
  <property name="kdenlive:file_hash">f72ad49bfab6e75718616b8adf871e55</property>
 </producer>
 <producer id="producer599" in="00:00:00.000" out="00:00:19.680">
  <property name="length">00:00:19.720</property>
  <property name="eof">pause</property>
  <property name="resource">/home/liquidzulu/Pictures/yt/animation/output/project/footnotes/footnote-54/.all.png</property>
  <property name="ttl">1</property>
  <property name="aspect_ratio">1</property>
  <property name="progressive">1</property>
  <property name="seekable">1</property>
  <property name="format">2</property>
  <property name="meta.media.width">1920</property>
  <property name="meta.media.height">1080</property>
  <property name="mlt_service">qimage</property>
  <property name="kdenlive:clipname">footnote-54</property>
  <property name="low-pass">0</property>
  <property name="animation"/>
  <property name="luma_file"/>
  <property name="luma_duration">1</property>
  <property name="fade">0</property>
  <property name="crop">0</property>
  <property name="softness">0</property>
  <property name="loop">0</property>
  <property name="kdenlive:duration">00:00:19:18</property>
  <property name="kdenlive:folderid">273</property>
  <property name="kdenlive:id">714</property>
  <property name="kdenlive:clip_type">2</property>
  <property name="kdenlive:file_hash">d00ee629d04e6cea0e375b16bb9a734b</property>
 </producer>
 <chain id="chain353" out="01:23:55.840">
  <property name="length">125897</property>
  <property name="eof">pause</property>
  <property name="resource">b-roll/AIâ§¸ML Media Advocacy Summitï¼š AI Ethics Panel [lGq7S1q4T7c].mkv</property>
  <property name="mlt_service">avformat-novalidate</property>
  <property name="meta.media.nb_streams">2</property>
  <property name="meta.media.0.stream.type">video</property>
  <property name="meta.media.0.stream.frame_rate">25</property>
  <property name="meta.media.0.stream.sample_aspect_ratio">1</property>
  <property name="meta.media.0.codec.width">1280</property>
  <property name="meta.media.0.codec.height">720</property>
  <property name="meta.media.0.codec.rotate">0</property>
  <property name="meta.media.0.codec.pix_fmt">yuv420p</property>
  <property name="meta.media.0.codec.sample_aspect_ratio">1</property>
  <property name="meta.media.0.codec.colorspace">709</property>
  <property name="meta.media.0.codec.color_trc">1</property>
  <property name="meta.media.0.codec.name">h264</property>
  <property name="meta.media.0.codec.long_name">H.264 / AVC / MPEG-4 AVC / MPEG-4 part 10</property>
  <property name="meta.media.0.codec.bit_rate">0</property>
  <property name="meta.attr.0.stream.HANDLER_NAME.markup">ISO Media file produced by Google Inc.</property>
  <property name="meta.attr.0.stream.VENDOR_ID.markup">[0][0][0][0]</property>
  <property name="meta.attr.0.stream.DURATION.markup">01:23:55.840000000</property>
  <property name="meta.media.1.stream.type">audio</property>
  <property name="meta.media.1.codec.sample_fmt">fltp</property>
  <property name="meta.media.1.codec.sample_rate">48000</property>
  <property name="meta.media.1.codec.channels">2</property>
  <property name="meta.media.1.codec.name">opus</property>
  <property name="meta.media.1.codec.long_name">Opus</property>
  <property name="meta.media.1.codec.bit_rate">0</property>
  <property name="meta.attr.1.stream.language.markup">eng</property>
  <property name="meta.attr.1.stream.DURATION.markup">01:23:55.861000000</property>
  <property name="meta.attr.COMPATIBLE_BRANDS.markup">iso6avc1mp41</property>
  <property name="meta.attr.MAJOR_BRAND.markup">dash</property>
  <property name="meta.attr.MINOR_VERSION.markup">0</property>
  <property name="meta.attr.ENCODER.markup">Lavf59.27.100</property>
  <property name="seekable">1</property>
  <property name="meta.media.sample_aspect_num">1</property>
  <property name="meta.media.sample_aspect_den">1</property>
  <property name="format">3</property>
  <property name="audio_index">-1</property>
  <property name="video_index">0</property>
  <property name="meta.media.frame_rate_num">25</property>
  <property name="meta.media.frame_rate_den">1</property>
  <property name="meta.media.colorspace">709</property>
  <property name="meta.media.color_trc">1</property>
  <property name="meta.media.has_b_frames">1</property>
  <property name="meta.media.width">1280</property>
  <property name="meta.media.height">720</property>
  <property name="meta.media.color_range">mpeg</property>
  <property name="kdenlive:clipname"/>
  <property name="meta.media.top_field_first">0</property>
  <property name="meta.media.progressive">1</property>
  <property name="kdenlive:clip_type">0</property>
  <property name="kdenlive:folderid">14</property>
  <property name="kdenlive:id">715</property>
  <property name="kdenlive:file_size">517923276</property>
  <property name="kdenlive:file_hash">6e3b08d94c8b96af88fd8ef58364a85d</property>
  <property name="kdenlive:audio_max1">190</property>
  <property name="kdenlive:active_streams">-1</property>
  <property name="set.test_audio">1</property>
  <property name="mute_on_pause">1</property>
 </chain>
 <producer id="producer601" in="00:00:00.000" out="00:00:19.680">
  <property name="length">00:00:19.720</property>
  <property name="eof">pause</property>
  <property name="resource">/home/liquidzulu/Pictures/yt/animation/output/project/footnotes/footnote-55/.all.png</property>
  <property name="ttl">1</property>
  <property name="aspect_ratio">1</property>
  <property name="progressive">1</property>
  <property name="seekable">1</property>
  <property name="format">2</property>
  <property name="meta.media.width">1920</property>
  <property name="meta.media.height">1080</property>
  <property name="mlt_service">qimage</property>
  <property name="kdenlive:clipname">footnote-55</property>
  <property name="low-pass">0</property>
  <property name="animation"/>
  <property name="luma_file"/>
  <property name="luma_duration">1</property>
  <property name="fade">0</property>
  <property name="crop">0</property>
  <property name="softness">0</property>
  <property name="loop">0</property>
  <property name="kdenlive:duration">00:00:19:18</property>
  <property name="kdenlive:folderid">273</property>
  <property name="kdenlive:id">716</property>
  <property name="kdenlive:clip_type">2</property>
  <property name="kdenlive:file_hash">3ff4b86e7bc594837f36fce743d43719</property>
 </producer>
 <producer id="producer500" in="00:00:00.000" out="00:00:27.600">
  <property name="length">691</property>
  <property name="eof">pause</property>
  <property name="resource">citations/citations-ai-ethics.png</property>
  <property name="ttl">25</property>
  <property name="aspect_ratio">1</property>
  <property name="progressive">1</property>
  <property name="seekable">1</property>
  <property name="format">2</property>
  <property name="meta.media.width">1920</property>
  <property name="meta.media.height">1080</property>
  <property name="mlt_service">qimage</property>
  <property name="kdenlive:clipname"/>
  <property name="kdenlive:duration">00:00:05:00</property>
  <property name="kdenlive:folderid">234</property>
  <property name="kdenlive:id">717</property>
  <property name="kdenlive:clip_type">2</property>
  <property name="kdenlive:file_size">30292</property>
  <property name="kdenlive:file_hash">a1e048a02e733b52345f8c41655591dc</property>
 </producer>
 <chain id="chain355" out="00:01:58.280">
  <property name="length">2958</property>
  <property name="eof">pause</property>
  <property name="resource">b-roll/Secret Invasion intro [iqnBJHU7si4].webm</property>
  <property name="mlt_service">avformat-novalidate</property>
  <property name="meta.media.nb_streams">2</property>
  <property name="meta.media.0.stream.type">video</property>
  <property name="meta.media.0.stream.frame_rate">30</property>
  <property name="meta.media.0.stream.sample_aspect_ratio">1</property>
  <property name="meta.media.0.codec.width">2260</property>
  <property name="meta.media.0.codec.height">1080</property>
  <property name="meta.media.0.codec.rotate">0</property>
  <property name="meta.media.0.codec.pix_fmt">yuv420p</property>
  <property name="meta.media.0.codec.sample_aspect_ratio">0</property>
  <property name="meta.media.0.codec.colorspace">601</property>
  <property name="meta.media.0.codec.color_trc">1</property>
  <property name="meta.media.0.codec.name">vp9</property>
  <property name="meta.media.0.codec.long_name">Google VP9</property>
  <property name="meta.media.0.codec.bit_rate">0</property>
  <property name="meta.attr.0.stream.language.markup">eng</property>
  <property name="meta.attr.0.stream.DURATION.markup">00:01:58.300000000</property>
  <property name="meta.media.1.stream.type">audio</property>
  <property name="meta.media.1.codec.sample_fmt">fltp</property>
  <property name="meta.media.1.codec.sample_rate">48000</property>
  <property name="meta.media.1.codec.channels">2</property>
  <property name="meta.media.1.codec.name">opus</property>
  <property name="meta.media.1.codec.long_name">Opus</property>
  <property name="meta.media.1.codec.bit_rate">0</property>
  <property name="meta.attr.1.stream.language.markup">eng</property>
  <property name="meta.attr.1.stream.DURATION.markup">00:01:58.321000000</property>
  <property name="meta.attr.ENCODER.markup">Lavf59.27.100</property>
  <property name="seekable">1</property>
  <property name="meta.media.sample_aspect_num">1</property>
  <property name="meta.media.sample_aspect_den">1</property>
  <property name="format">3</property>
  <property name="audio_index">-1</property>
  <property name="video_index">0</property>
  <property name="meta.media.frame_rate_num">30</property>
  <property name="meta.media.frame_rate_den">1</property>
  <property name="meta.media.colorspace">601</property>
  <property name="meta.media.color_trc">1</property>
  <property name="meta.media.has_b_frames">0</property>
  <property name="meta.media.width">2260</property>
  <property name="meta.media.height">1080</property>
  <property name="meta.media.color_range">mpeg</property>
  <property name="kdenlive:clipname"/>
  <property name="meta.media.top_field_first">0</property>
  <property name="meta.media.progressive">1</property>
  <property name="kdenlive:clip_type">0</property>
  <property name="kdenlive:folderid">14</property>
  <property name="kdenlive:id">718</property>
  <property name="kdenlive:file_size">58075441</property>
  <property name="kdenlive:file_hash">58504fb052f6d6b50cd3bc3b0d7fb731</property>
  <property name="kdenlive:audio_max1">197</property>
  <property name="kdenlive:active_streams">-1</property>
  <property name="set.test_audio">1</property>
  <property name="mute_on_pause">1</property>
 </chain>
 <producer id="producer519" in="00:00:00.000" out="00:00:18.760">
  <property name="length">470</property>
  <property name="eof">pause</property>
  <property name="resource">images/secret invasion highlight-0.png</property>
  <property name="ttl">25</property>
  <property name="aspect_ratio">1</property>
  <property name="progressive">1</property>
  <property name="seekable">1</property>
  <property name="format">2</property>
  <property name="meta.media.width">1056</property>
  <property name="meta.media.height">731</property>
  <property name="mlt_service">qimage</property>
  <property name="kdenlive:clipname"/>
  <property name="kdenlive:duration">00:00:05:00</property>
  <property name="kdenlive:folderid">28</property>
  <property name="kdenlive:id">719</property>
  <property name="kdenlive:clip_type">2</property>
  <property name="kdenlive:file_size">217090</property>
  <property name="kdenlive:file_hash">4457c2010c08ab18c0e01a0faff8f611</property>
 </producer>
 <producer id="producer543" in="00:00:00.000" out="00:00:18.760">
  <property name="length">470</property>
  <property name="eof">pause</property>
  <property name="resource">images/secret invasion highlight-1.png</property>
  <property name="ttl">25</property>
  <property name="aspect_ratio">1</property>
  <property name="progressive">1</property>
  <property name="seekable">1</property>
  <property name="format">2</property>
  <property name="meta.media.width">1056</property>
  <property name="meta.media.height">731</property>
  <property name="mlt_service">qimage</property>
  <property name="kdenlive:clipname"/>
  <property name="kdenlive:duration">00:00:05:00</property>
  <property name="kdenlive:folderid">28</property>
  <property name="kdenlive:id">720</property>
  <property name="kdenlive:clip_type">2</property>
  <property name="kdenlive:file_size">11311</property>
  <property name="kdenlive:file_hash">4d0efcd0afbc744428f7a50e8311fa65</property>
 </producer>
 <producer id="producer569" in="00:00:00.000" out="00:00:18.160">
  <property name="length">455</property>
  <property name="eof">pause</property>
  <property name="resource">images/secret invasion highlight-2.png</property>
  <property name="ttl">25</property>
  <property name="aspect_ratio">1</property>
  <property name="progressive">1</property>
  <property name="seekable">1</property>
  <property name="format">2</property>
  <property name="meta.media.width">1056</property>
  <property name="meta.media.height">731</property>
  <property name="mlt_service">qimage</property>
  <property name="kdenlive:clipname"/>
  <property name="kdenlive:duration">00:00:05:00</property>
  <property name="kdenlive:folderid">28</property>
  <property name="kdenlive:id">721</property>
  <property name="kdenlive:clip_type">2</property>
  <property name="kdenlive:file_size">17766</property>
  <property name="kdenlive:file_hash">a81ef75f508a67757a1806851647ada7</property>
 </producer>
 <producer id="producer604" in="00:00:00.000" out="00:00:18.800">
  <property name="length">471</property>
  <property name="eof">pause</property>
  <property name="resource">images/secret invasion highlight-3.png</property>
  <property name="ttl">25</property>
  <property name="aspect_ratio">1</property>
  <property name="progressive">1</property>
  <property name="seekable">1</property>
  <property name="format">2</property>
  <property name="meta.media.width">1056</property>
  <property name="meta.media.height">731</property>
  <property name="mlt_service">qimage</property>
  <property name="kdenlive:clipname"/>
  <property name="kdenlive:duration">00:00:05:00</property>
  <property name="kdenlive:folderid">28</property>
  <property name="kdenlive:id">722</property>
  <property name="kdenlive:clip_type">2</property>
  <property name="kdenlive:file_size">7429</property>
  <property name="kdenlive:file_hash">1c06146f52503aa94b1cbcb4e7643d3c</property>
 </producer>
 <producer id="producer607" in="00:00:00.000" out="00:00:18.160">
  <property name="length">455</property>
  <property name="eof">pause</property>
  <property name="resource">images/secret invasion highlight-4.png</property>
  <property name="ttl">25</property>
  <property name="aspect_ratio">1</property>
  <property name="progressive">1</property>
  <property name="seekable">1</property>
  <property name="format">2</property>
  <property name="meta.media.width">1056</property>
  <property name="meta.media.height">731</property>
  <property name="mlt_service">qimage</property>
  <property name="kdenlive:clipname"/>
  <property name="kdenlive:duration">00:00:05:00</property>
  <property name="kdenlive:folderid">28</property>
  <property name="kdenlive:id">723</property>
  <property name="kdenlive:clip_type">2</property>
  <property name="kdenlive:file_size">16229</property>
  <property name="kdenlive:file_hash">67d8fe63aab03fe2b3630062b7b5c878</property>
 </producer>
 <producer id="producer608" in="00:00:00.000" out="00:00:18.360">
  <property name="length">460</property>
  <property name="eof">pause</property>
  <property name="resource">images/secret invasion highlight-5.png</property>
  <property name="ttl">25</property>
  <property name="aspect_ratio">1</property>
  <property name="progressive">1</property>
  <property name="seekable">1</property>
  <property name="format">2</property>
  <property name="meta.media.width">1056</property>
  <property name="meta.media.height">731</property>
  <property name="mlt_service">qimage</property>
  <property name="kdenlive:clipname"/>
  <property name="kdenlive:duration">00:00:05:00</property>
  <property name="kdenlive:folderid">28</property>
  <property name="kdenlive:id">724</property>
  <property name="kdenlive:clip_type">2</property>
  <property name="kdenlive:file_size">9554</property>
  <property name="kdenlive:file_hash">c0937594633ac7df1e733f5bb36edbca</property>
 </producer>
 <producer id="producer609" in="00:00:00.000" out="00:00:18.400">
  <property name="length">461</property>
  <property name="eof">pause</property>
  <property name="resource">images/secret invasion highlight-6.png</property>
  <property name="ttl">25</property>
  <property name="aspect_ratio">1</property>
  <property name="progressive">1</property>
  <property name="seekable">1</property>
  <property name="format">2</property>
  <property name="meta.media.width">1056</property>
  <property name="meta.media.height">731</property>
  <property name="mlt_service">qimage</property>
  <property name="kdenlive:clipname"/>
  <property name="kdenlive:duration">00:00:05:00</property>
  <property name="kdenlive:folderid">28</property>
  <property name="kdenlive:id">725</property>
  <property name="kdenlive:clip_type">2</property>
  <property name="kdenlive:file_size">20740</property>
  <property name="kdenlive:file_hash">163d7e33c2849bee6f805d454c770c2a</property>
 </producer>
 <producer id="producer610" in="00:00:00.000" out="00:00:17.800">
  <property name="length">446</property>
  <property name="eof">pause</property>
  <property name="resource">images/secret invasion highlight-7.png</property>
  <property name="ttl">25</property>
  <property name="aspect_ratio">1</property>
  <property name="progressive">1</property>
  <property name="seekable">1</property>
  <property name="format">2</property>
  <property name="meta.media.width">1056</property>
  <property name="meta.media.height">731</property>
  <property name="mlt_service">qimage</property>
  <property name="kdenlive:clipname"/>
  <property name="kdenlive:duration">00:00:05:00</property>
  <property name="kdenlive:folderid">28</property>
  <property name="kdenlive:id">726</property>
  <property name="kdenlive:clip_type">2</property>
  <property name="kdenlive:file_size">8189</property>
  <property name="kdenlive:file_hash">e0f79113f8c66905841c52f5c867430c</property>
 </producer>
 <producer id="producer611" in="00:00:00.000" out="00:00:18.800">
  <property name="length">471</property>
  <property name="eof">pause</property>
  <property name="resource">images/secret invasion highlight-8.png</property>
  <property name="ttl">25</property>
  <property name="aspect_ratio">1</property>
  <property name="progressive">1</property>
  <property name="seekable">1</property>
  <property name="format">2</property>
  <property name="meta.media.width">1056</property>
  <property name="meta.media.height">731</property>
  <property name="mlt_service">qimage</property>
  <property name="kdenlive:clipname"/>
  <property name="kdenlive:duration">00:00:05:00</property>
  <property name="kdenlive:folderid">28</property>
  <property name="kdenlive:id">727</property>
  <property name="kdenlive:clip_type">2</property>
  <property name="kdenlive:file_size">8727</property>
  <property name="kdenlive:file_hash">50d763658889ae2288e0ae2a745f92e2</property>
 </producer>
 <producer id="producer612" in="00:00:00.000" out="00:00:18.200">
  <property name="length">456</property>
  <property name="eof">pause</property>
  <property name="resource">images/secret invasion highlight-9.png</property>
  <property name="ttl">25</property>
  <property name="aspect_ratio">1</property>
  <property name="progressive">1</property>
  <property name="seekable">1</property>
  <property name="format">2</property>
  <property name="meta.media.width">1056</property>
  <property name="meta.media.height">731</property>
  <property name="mlt_service">qimage</property>
  <property name="kdenlive:clipname"/>
  <property name="kdenlive:duration">00:00:05:00</property>
  <property name="kdenlive:folderid">28</property>
  <property name="kdenlive:id">728</property>
  <property name="kdenlive:clip_type">2</property>
  <property name="kdenlive:file_size">11907</property>
  <property name="kdenlive:file_hash">aa8e8bbe415db78c871124662fd6d016</property>
 </producer>
 <producer id="producer613" in="00:00:00.000" out="00:00:18.480">
  <property name="length">463</property>
  <property name="eof">pause</property>
  <property name="resource">images/secret invasion highlight-10.png</property>
  <property name="ttl">25</property>
  <property name="aspect_ratio">1</property>
  <property name="progressive">1</property>
  <property name="seekable">1</property>
  <property name="format">2</property>
  <property name="meta.media.width">1056</property>
  <property name="meta.media.height">731</property>
  <property name="mlt_service">qimage</property>
  <property name="kdenlive:clipname"/>
  <property name="kdenlive:duration">00:00:05:00</property>
  <property name="kdenlive:folderid">28</property>
  <property name="kdenlive:id">729</property>
  <property name="kdenlive:clip_type">2</property>
  <property name="kdenlive:file_size">12637</property>
  <property name="kdenlive:file_hash">15a3bafe00ce6da81929284243bfdb38</property>
 </producer>
 <producer id="producer544" in="00:00:00.000" out="00:00:05.720">
  <property name="length">144</property>
  <property name="eof">pause</property>
  <property name="resource">images/secret invasion highlight.xcf</property>
  <property name="ttl">25</property>
  <property name="aspect_ratio">1</property>
  <property name="progressive">1</property>
  <property name="seekable">1</property>
  <property name="format">1</property>
  <property name="meta.media.width">1056</property>
  <property name="meta.media.height">731</property>
  <property name="mlt_service">qimage</property>
  <property name="kdenlive:clipname"/>
  <property name="kdenlive:duration">00:00:05:00</property>
  <property name="kdenlive:folderid">28</property>
  <property name="kdenlive:id">730</property>
  <property name="kdenlive:clip_type">2</property>
  <property name="kdenlive:file_size">634712</property>
  <property name="kdenlive:file_hash">cd422daeb97c99ad89f6376645a9fffe</property>
 </producer>
 <chain id="chain361" out="00:11:30.400">
  <property name="length">17261</property>
  <property name="eof">pause</property>
  <property name="resource">/home/liquidzulu/Videos/yt/b-roll/You Can Always Leave [fasTSY-dB-s].webm</property>
  <property name="mlt_service">avformat-novalidate</property>
  <property name="meta.media.nb_streams">2</property>
  <property name="meta.media.0.stream.type">video</property>
  <property name="meta.media.0.stream.frame_rate">24</property>
  <property name="meta.media.0.stream.sample_aspect_ratio">1</property>
  <property name="meta.media.0.codec.width">1920</property>
  <property name="meta.media.0.codec.height">1080</property>
  <property name="meta.media.0.codec.rotate">0</property>
  <property name="meta.media.0.codec.pix_fmt">yuv420p</property>
  <property name="meta.media.0.codec.sample_aspect_ratio">0</property>
  <property name="meta.media.0.codec.colorspace">709</property>
  <property name="meta.media.0.codec.color_trc">1</property>
  <property name="meta.media.0.codec.name">vp9</property>
  <property name="meta.media.0.codec.long_name">Google VP9</property>
  <property name="meta.media.0.codec.bit_rate">0</property>
  <property name="meta.attr.0.stream.language.markup">eng</property>
  <property name="meta.attr.0.stream.DURATION.markup">00:11:30.374000000</property>
  <property name="meta.media.1.stream.type">audio</property>
  <property name="meta.media.1.codec.sample_fmt">fltp</property>
  <property name="meta.media.1.codec.sample_rate">48000</property>
  <property name="meta.media.1.codec.channels">2</property>
  <property name="meta.media.1.codec.name">opus</property>
  <property name="meta.media.1.codec.long_name">Opus</property>
  <property name="meta.media.1.codec.bit_rate">0</property>
  <property name="meta.attr.1.stream.language.markup">eng</property>
  <property name="meta.attr.1.stream.DURATION.markup">00:11:30.441000000</property>
  <property name="meta.attr.ENCODER.markup">Lavf59.27.100</property>
  <property name="seekable">1</property>
  <property name="meta.media.sample_aspect_num">1</property>
  <property name="meta.media.sample_aspect_den">1</property>
  <property name="format">3</property>
  <property name="audio_index">-1</property>
  <property name="video_index">0</property>
  <property name="meta.media.frame_rate_num">24</property>
  <property name="meta.media.frame_rate_den">1</property>
  <property name="meta.media.colorspace">709</property>
  <property name="meta.media.color_trc">1</property>
  <property name="meta.media.has_b_frames">0</property>
  <property name="meta.media.width">1920</property>
  <property name="meta.media.height">1080</property>
  <property name="meta.media.color_range">mpeg</property>
  <property name="kdenlive:clipname"/>
  <property name="meta.media.top_field_first">0</property>
  <property name="meta.media.progressive">1</property>
  <property name="kdenlive:clip_type">0</property>
  <property name="kdenlive:folderid">14</property>
  <property name="kdenlive:id">731</property>
  <property name="kdenlive:file_size">39464218</property>
  <property name="kdenlive:file_hash">2a192f53b74b01e1709978d0c3206656</property>
  <property name="kdenlive:audio_max1">221</property>
  <property name="kdenlive:active_streams">-1</property>
  <property name="set.test_audio">1</property>
  <property name="mute_on_pause">1</property>
 </chain>
 <chain id="chain360" out="00:04:40.600">
  <property name="length">7016</property>
  <property name="eof">pause</property>
  <property name="resource">b-roll/The EU agrees on AI regulationsï¼š What will it mean for people and businesses in the EUï¼Ÿ ï½œ DW News [I19ezZcyB6w].webm</property>
  <property name="mlt_service">avformat-novalidate</property>
  <property name="meta.media.nb_streams">2</property>
  <property name="meta.media.0.stream.type">video</property>
  <property name="meta.media.0.stream.frame_rate">25</property>
  <property name="meta.media.0.stream.sample_aspect_ratio">1</property>
  <property name="meta.media.0.codec.width">1920</property>
  <property name="meta.media.0.codec.height">1080</property>
  <property name="meta.media.0.codec.rotate">0</property>
  <property name="meta.media.0.codec.pix_fmt">yuv420p</property>
  <property name="meta.media.0.codec.sample_aspect_ratio">0</property>
  <property name="meta.media.0.codec.colorspace">709</property>
  <property name="meta.media.0.codec.color_trc">1</property>
  <property name="meta.media.0.codec.name">vp9</property>
  <property name="meta.media.0.codec.long_name">Google VP9</property>
  <property name="meta.media.0.codec.bit_rate">0</property>
  <property name="meta.attr.0.stream.HANDLER_NAME.markup">ISO Media file produced by Google Inc. Created on: 12/10/2023.</property>
  <property name="meta.attr.0.stream.VENDOR_ID.markup">[0][0][0][0]</property>
  <property name="meta.attr.0.stream.DURATION.markup">00:04:40.600000000</property>
  <property name="meta.media.1.stream.type">audio</property>
  <property name="meta.media.1.codec.sample_fmt">fltp</property>
  <property name="meta.media.1.codec.sample_rate">48000</property>
  <property name="meta.media.1.codec.channels">2</property>
  <property name="meta.media.1.codec.name">opus</property>
  <property name="meta.media.1.codec.long_name">Opus</property>
  <property name="meta.media.1.codec.bit_rate">0</property>
  <property name="meta.attr.1.stream.language.markup">eng</property>
  <property name="meta.attr.1.stream.DURATION.markup">00:04:40.621000000</property>
  <property name="meta.attr.COMPATIBLE_BRANDS.markup">iso6mp41</property>
  <property name="meta.attr.MAJOR_BRAND.markup">dash</property>
  <property name="meta.attr.MINOR_VERSION.markup">0</property>
  <property name="meta.attr.ENCODER.markup">Lavf59.27.100</property>
  <property name="seekable">1</property>
  <property name="meta.media.sample_aspect_num">1</property>
  <property name="meta.media.sample_aspect_den">1</property>
  <property name="format">3</property>
  <property name="audio_index">-1</property>
  <property name="video_index">0</property>
  <property name="meta.media.frame_rate_num">25</property>
  <property name="meta.media.frame_rate_den">1</property>
  <property name="meta.media.colorspace">709</property>
  <property name="meta.media.color_trc">1</property>
  <property name="meta.media.has_b_frames">0</property>
  <property name="meta.media.width">1920</property>
  <property name="meta.media.height">1080</property>
  <property name="meta.media.color_range">mpeg</property>
  <property name="kdenlive:clipname"/>
  <property name="meta.media.top_field_first">0</property>
  <property name="meta.media.progressive">1</property>
  <property name="kdenlive:clip_type">0</property>
  <property name="kdenlive:folderid">14</property>
  <property name="kdenlive:id">732</property>
  <property name="kdenlive:file_size">68026192</property>
  <property name="kdenlive:file_hash">805aa0490732174808647414cf1dbbb0</property>
  <property name="kdenlive:audio_max1">167</property>
  <property name="kdenlive:active_streams">-1</property>
  <property name="set.test_audio">1</property>
  <property name="mute_on_pause">1</property>
 </chain>
 <producer id="producer501" in="00:00:00.000" out="00:00:05.200">
  <property name="length">131</property>
  <property name="eof">pause</property>
  <property name="resource">citations/citations-ai-regulations.png</property>
  <property name="ttl">25</property>
  <property name="aspect_ratio">1</property>
  <property name="progressive">1</property>
  <property name="seekable">1</property>
  <property name="format">2</property>
  <property name="meta.media.width">1920</property>
  <property name="meta.media.height">1080</property>
  <property name="mlt_service">qimage</property>
  <property name="kdenlive:clipname"/>
  <property name="kdenlive:duration">00:00:05:00</property>
  <property name="kdenlive:folderid">234</property>
  <property name="kdenlive:id">733</property>
  <property name="kdenlive:clip_type">2</property>
  <property name="kdenlive:file_size">37684</property>
  <property name="kdenlive:file_hash">d5747539b6cd1c8a28aac3b33d248353</property>
 </producer>
 <producer id="producer502" in="00:00:00.000" out="00:00:09.840">
  <property name="length">247</property>
  <property name="eof">pause</property>
  <property name="resource">citations/citations-bitbutter.png</property>
  <property name="ttl">25</property>
  <property name="aspect_ratio">1</property>
  <property name="progressive">1</property>
  <property name="seekable">1</property>
  <property name="format">2</property>
  <property name="meta.media.width">1920</property>
  <property name="meta.media.height">1080</property>
  <property name="mlt_service">qimage</property>
  <property name="kdenlive:clipname"/>
  <property name="kdenlive:duration">00:00:05:00</property>
  <property name="kdenlive:folderid">234</property>
  <property name="kdenlive:id">734</property>
  <property name="kdenlive:clip_type">2</property>
  <property name="kdenlive:file_size">21852</property>
  <property name="kdenlive:file_hash">1ec4a8e1aca227dc886c1f7437f0dad4</property>
 </producer>
 <chain id="chain362" out="00:01:00.960">
  <property name="length">1525</property>
  <property name="eof">pause</property>
  <property name="resource">/home/liquidzulu/Videos/yt/b-roll/Professional, Corporate, Small Business Stock Footage Highlight Reel [YLN1Argi7ik].webm</property>
  <property name="mlt_service">avformat-novalidate</property>
  <property name="meta.media.nb_streams">2</property>
  <property name="meta.media.0.stream.type">video</property>
  <property name="meta.media.0.stream.frame_rate">29.97</property>
  <property name="meta.media.0.stream.sample_aspect_ratio">1</property>
  <property name="meta.media.0.codec.width">1920</property>
  <property name="meta.media.0.codec.height">1080</property>
  <property name="meta.media.0.codec.rotate">0</property>
  <property name="meta.media.0.codec.pix_fmt">yuv420p</property>
  <property name="meta.media.0.codec.sample_aspect_ratio">0</property>
  <property name="meta.media.0.codec.colorspace">709</property>
  <property name="meta.media.0.codec.color_trc">1</property>
  <property name="meta.media.0.codec.name">vp9</property>
  <property name="meta.media.0.codec.long_name">Google VP9</property>
  <property name="meta.media.0.codec.bit_rate">0</property>
  <property name="meta.attr.0.stream.language.markup">eng</property>
  <property name="meta.attr.0.stream.DURATION.markup">00:01:00.960000000</property>
  <property name="meta.media.1.stream.type">audio</property>
  <property name="meta.media.1.codec.sample_fmt">fltp</property>
  <property name="meta.media.1.codec.sample_rate">48000</property>
  <property name="meta.media.1.codec.channels">2</property>
  <property name="meta.media.1.codec.name">opus</property>
  <property name="meta.media.1.codec.long_name">Opus</property>
  <property name="meta.media.1.codec.bit_rate">0</property>
  <property name="meta.attr.1.stream.language.markup">eng</property>
  <property name="meta.attr.1.stream.DURATION.markup">00:01:00.981000000</property>
  <property name="meta.attr.ENCODER.markup">Lavf59.27.100</property>
  <property name="seekable">1</property>
  <property name="meta.media.sample_aspect_num">1</property>
  <property name="meta.media.sample_aspect_den">1</property>
  <property name="format">3</property>
  <property name="audio_index">-1</property>
  <property name="video_index">0</property>
  <property name="meta.media.frame_rate_num">30000</property>
  <property name="meta.media.frame_rate_den">1001</property>
  <property name="meta.media.colorspace">709</property>
  <property name="meta.media.color_trc">1</property>
  <property name="meta.media.has_b_frames">0</property>
  <property name="meta.media.width">1920</property>
  <property name="meta.media.height">1080</property>
  <property name="meta.media.color_range">mpeg</property>
  <property name="kdenlive:clipname"/>
  <property name="meta.media.top_field_first">0</property>
  <property name="meta.media.progressive">1</property>
  <property name="kdenlive:clip_type">0</property>
  <property name="kdenlive:folderid">14</property>
  <property name="kdenlive:id">735</property>
  <property name="kdenlive:file_size">14270636</property>
  <property name="kdenlive:file_hash">1dff43e022ff258026a5cb9bdcd4f6ca</property>
  <property name="kdenlive:audio_max1">242</property>
  <property name="kdenlive:active_streams">-1</property>
  <property name="set.test_audio">1</property>
  <property name="mute_on_pause">1</property>
 </chain>
 <producer id="producer617" in="00:00:00.000" out="00:00:19.680">
  <property name="length">00:00:19.720</property>
  <property name="eof">pause</property>
  <property name="resource">/home/liquidzulu/Pictures/yt/animation/output/project/footnotes/footnote-56/.all.png</property>
  <property name="ttl">1</property>
  <property name="aspect_ratio">1</property>
  <property name="progressive">1</property>
  <property name="seekable">1</property>
  <property name="format">2</property>
  <property name="meta.media.width">1920</property>
  <property name="meta.media.height">1080</property>
  <property name="mlt_service">qimage</property>
  <property name="kdenlive:clipname">footnote-56</property>
  <property name="low-pass">0</property>
  <property name="animation"/>
  <property name="luma_file"/>
  <property name="luma_duration">1</property>
  <property name="fade">0</property>
  <property name="crop">0</property>
  <property name="softness">0</property>
  <property name="loop">0</property>
  <property name="kdenlive:duration">00:00:19:18</property>
  <property name="kdenlive:folderid">273</property>
  <property name="kdenlive:id">736</property>
  <property name="kdenlive:clip_type">2</property>
  <property name="kdenlive:file_hash">b65a2516d22ecf7364c3d490ef873198</property>
 </producer>
 <producer id="producer503" in="00:00:00.000" out="00:00:12.960">
  <property name="length">325</property>
  <property name="eof">pause</property>
  <property name="resource">citations/citations-business-stock-footage.png</property>
  <property name="ttl">25</property>
  <property name="aspect_ratio">1</property>
  <property name="progressive">1</property>
  <property name="seekable">1</property>
  <property name="format">2</property>
  <property name="meta.media.width">1920</property>
  <property name="meta.media.height">1080</property>
  <property name="mlt_service">qimage</property>
  <property name="kdenlive:clipname"/>
  <property name="kdenlive:duration">00:00:05:00</property>
  <property name="kdenlive:folderid">234</property>
  <property name="kdenlive:id">737</property>
  <property name="kdenlive:clip_type">2</property>
  <property name="kdenlive:file_size">30100</property>
  <property name="kdenlive:file_hash">34c797d7dd127b9c3b763269a703b469</property>
 </producer>
 <producer id="producer126" in="00:00:00.000" out="00:00:13.800">
  <property name="length">346</property>
  <property name="eof">pause</property>
  <property name="resource">citations/citations-proko.png</property>
  <property name="ttl">25</property>
  <property name="aspect_ratio">1</property>
  <property name="progressive">1</property>
  <property name="seekable">1</property>
  <property name="format">2</property>
  <property name="meta.media.width">1920</property>
  <property name="meta.media.height">1080</property>
  <property name="mlt_service">qimage</property>
  <property name="kdenlive:clipname"/>
  <property name="kdenlive:duration">00:00:05:00</property>
  <property name="kdenlive:folderid">234</property>
  <property name="kdenlive:id">738</property>
  <property name="kdenlive:clip_type">2</property>
  <property name="kdenlive:file_size">25150</property>
  <property name="kdenlive:file_hash">c39b534c742c97e1e4ea19a00072b617</property>
 </producer>
 <producer id="producer504" in="00:00:00.000" out="00:00:09.200">
  <property name="length">231</property>
  <property name="eof">pause</property>
  <property name="resource">images/crying wolf.jpg</property>
  <property name="ttl">25</property>
  <property name="aspect_ratio">1</property>
  <property name="progressive">1</property>
  <property name="seekable">1</property>
  <property name="format">1</property>
  <property name="meta.media.width">842</property>
  <property name="meta.media.height">562</property>
  <property name="mlt_service">qimage</property>
  <property name="kdenlive:clipname"/>
  <property name="kdenlive:duration">00:00:05:00</property>
  <property name="kdenlive:folderid">28</property>
  <property name="kdenlive:id">739</property>
  <property name="kdenlive:clip_type">2</property>
  <property name="kdenlive:file_size">384970</property>
  <property name="kdenlive:file_hash">c16ed293e65a962e2097fe3d10bd62f3</property>
 </producer>
 <chain id="chain376" out="00:00:08.160">
  <property name="length">205</property>
  <property name="eof">pause</property>
  <property name="resource">videos/VID_20231001_161322.mp4</property>
  <property name="mlt_service">avformat-novalidate</property>
  <property name="meta.media.nb_streams">2</property>
  <property name="meta.media.0.stream.type">video</property>
  <property name="meta.media.0.stream.frame_rate">29.9022</property>
  <property name="meta.media.0.stream.sample_aspect_ratio">0</property>
  <property name="meta.media.0.codec.width">3840</property>
  <property name="meta.media.0.codec.height">2160</property>
  <property name="meta.media.0.codec.rotate">0</property>
  <property name="meta.media.0.codec.pix_fmt">yuvj420p</property>
  <property name="meta.media.0.codec.sample_aspect_ratio">0</property>
  <property name="meta.media.0.codec.colorspace">601</property>
  <property name="meta.media.0.codec.color_trc">6</property>
  <property name="meta.media.0.codec.name">h264</property>
  <property name="meta.media.0.codec.long_name">H.264 / AVC / MPEG-4 AVC / MPEG-4 part 10</property>
  <property name="meta.media.0.codec.bit_rate">42662534</property>
  <property name="meta.attr.0.stream.creation_time.markup">2023-10-01T15:13:31.000000Z</property>
  <property name="meta.attr.0.stream.language.markup">eng</property>
  <property name="meta.attr.0.stream.handler_name.markup">VideoHandle</property>
  <property name="meta.attr.0.stream.vendor_id.markup">[0][0][0][0]</property>
  <property name="meta.media.1.stream.type">audio</property>
  <property name="meta.media.1.codec.sample_fmt">fltp</property>
  <property name="meta.media.1.codec.sample_rate">48000</property>
  <property name="meta.media.1.codec.channels">1</property>
  <property name="meta.media.1.codec.name">aac</property>
  <property name="meta.media.1.codec.long_name">AAC (Advanced Audio Coding)</property>
  <property name="meta.media.1.codec.bit_rate">96150</property>
  <property name="meta.attr.1.stream.creation_time.markup">2023-10-01T15:13:31.000000Z</property>
  <property name="meta.attr.1.stream.language.markup">eng</property>
  <property name="meta.attr.1.stream.handler_name.markup">SoundHandle</property>
  <property name="meta.attr.1.stream.vendor_id.markup">[0][0][0][0]</property>
  <property name="meta.attr.major_brand.markup">mp42</property>
  <property name="meta.attr.minor_version.markup">0</property>
  <property name="meta.attr.compatible_brands.markup">isommp42</property>
  <property name="meta.attr.creation_time.markup">2023-10-01T15:13:31.000000Z</property>
  <property name="meta.attr.com.android.version.markup">12</property>
  <property name="seekable">1</property>
  <property name="meta.media.sample_aspect_num">1</property>
  <property name="meta.media.sample_aspect_den">1</property>
  <property name="format">3</property>
  <property name="audio_index">1</property>
  <property name="video_index">0</property>
  <property name="meta.media.frame_rate_num">5512500</property>
  <property name="meta.media.frame_rate_den">184351</property>
  <property name="meta.media.colorspace">601</property>
  <property name="meta.media.color_trc">6</property>
  <property name="meta.media.has_b_frames">0</property>
  <property name="meta.media.width">3840</property>
  <property name="meta.media.height">2160</property>
  <property name="meta.media.color_range">full</property>
  <property name="kdenlive:clipname"/>
  <property name="meta.media.top_field_first">0</property>
  <property name="meta.media.progressive">1</property>
  <property name="kdenlive:clip_type">0</property>
  <property name="kdenlive:folderid">14</property>
  <property name="kdenlive:id">740</property>
  <property name="kdenlive:file_size">43796392</property>
  <property name="kdenlive:file_hash">08110d7840c797a108e9b5272feb7e9c</property>
  <property name="kdenlive:audio_max1">70</property>
  <property name="mute_on_pause">1</property>
 </chain>
 <chain id="chain377" out="00:00:14.760">
  <property name="length">370</property>
  <property name="eof">pause</property>
  <property name="resource">animation/output/more-efficient-youtubers.mp4</property>
  <property name="mlt_service">avformat-novalidate</property>
  <property name="meta.media.nb_streams">1</property>
  <property name="meta.media.0.stream.type">video</property>
  <property name="meta.media.0.stream.frame_rate">60</property>
  <property name="meta.media.0.stream.sample_aspect_ratio">0</property>
  <property name="meta.media.0.codec.width">1920</property>
  <property name="meta.media.0.codec.height">1080</property>
  <property name="meta.media.0.codec.rotate">0</property>
  <property name="meta.media.0.codec.pix_fmt">yuv420p</property>
  <property name="meta.media.0.codec.sample_aspect_ratio">0</property>
  <property name="meta.media.0.codec.colorspace">709</property>
  <property name="meta.media.0.codec.name">h264</property>
  <property name="meta.media.0.codec.long_name">H.264 / AVC / MPEG-4 AVC / MPEG-4 part 10</property>
  <property name="meta.media.0.codec.bit_rate">874118</property>
  <property name="meta.attr.0.stream.handler_name.markup">VideoHandler</property>
  <property name="meta.attr.0.stream.vendor_id.markup">[0][0][0][0]</property>
  <property name="meta.attr.major_brand.markup">isom</property>
  <property name="meta.attr.minor_version.markup">512</property>
  <property name="meta.attr.compatible_brands.markup">isomiso2avc1mp41</property>
  <property name="meta.attr.encoder.markup">Lavf58.24.100</property>
  <property name="seekable">1</property>
  <property name="meta.media.sample_aspect_num">1</property>
  <property name="meta.media.sample_aspect_den">1</property>
  <property name="format">3</property>
  <property name="audio_index">-1</property>
  <property name="video_index">0</property>
  <property name="meta.media.frame_rate_num">60</property>
  <property name="meta.media.frame_rate_den">1</property>
  <property name="meta.media.colorspace">709</property>
  <property name="meta.media.color_trc">2</property>
  <property name="meta.media.has_b_frames">2</property>
  <property name="meta.media.width">1920</property>
  <property name="meta.media.height">1080</property>
  <property name="meta.media.color_range">mpeg</property>
  <property name="kdenlive:clipname"/>
  <property name="meta.media.top_field_first">0</property>
  <property name="meta.media.progressive">1</property>
  <property name="kdenlive:clip_type">2</property>
  <property name="kdenlive:folderid">218</property>
  <property name="kdenlive:id">741</property>
  <property name="kdenlive:file_size">1628568</property>
  <property name="kdenlive:file_hash">138e89d4918d04c8adaa01465bf84381</property>
  <property name="mute_on_pause">1</property>
 </chain>
 <chain id="chain378" out="00:49:38.320">
  <property name="length">74459</property>
  <property name="eof">pause</property>
  <property name="resource">/home/liquidzulu/Videos/yt/lectures/The Future of Austrian Economics ï½œ Murray N. Rothbard [KWdUIuID8ag].mp4</property>
  <property name="mlt_service">avformat-novalidate</property>
  <property name="meta.media.nb_streams">2</property>
  <property name="meta.media.0.stream.type">video</property>
  <property name="meta.media.0.stream.frame_rate">30</property>
  <property name="meta.media.0.stream.sample_aspect_ratio">1</property>
  <property name="meta.media.0.codec.width">320</property>
  <property name="meta.media.0.codec.height">240</property>
  <property name="meta.media.0.codec.rotate">0</property>
  <property name="meta.media.0.codec.pix_fmt">yuv420p</property>
  <property name="meta.media.0.codec.sample_aspect_ratio">1</property>
  <property name="meta.media.0.codec.colorspace">601</property>
  <property name="meta.media.0.codec.name">h264</property>
  <property name="meta.media.0.codec.long_name">H.264 / AVC / MPEG-4 AVC / MPEG-4 part 10</property>
  <property name="meta.media.0.codec.bit_rate">242418</property>
  <property name="meta.attr.0.stream.handler_name.markup">VideoHandler</property>
  <property name="meta.attr.0.stream.vendor_id.markup">[0][0][0][0]</property>
  <property name="meta.media.1.stream.type">audio</property>
  <property name="meta.media.1.codec.sample_fmt">fltp</property>
  <property name="meta.media.1.codec.sample_rate">44100</property>
  <property name="meta.media.1.codec.channels">2</property>
  <property name="meta.media.1.codec.name">aac</property>
  <property name="meta.media.1.codec.long_name">AAC (Advanced Audio Coding)</property>
  <property name="meta.media.1.codec.bit_rate">125588</property>
  <property name="meta.attr.1.stream.handler_name.markup">SoundHandler</property>
  <property name="meta.attr.1.stream.vendor_id.markup">[0][0][0][0]</property>
  <property name="meta.attr.major_brand.markup">isom</property>
  <property name="meta.attr.minor_version.markup">512</property>
  <property name="meta.attr.compatible_brands.markup">isomiso2avc1mp41</property>
  <property name="meta.attr.encoder.markup">Lavf59.27.100</property>
  <property name="seekable">1</property>
  <property name="meta.media.sample_aspect_num">1</property>
  <property name="meta.media.sample_aspect_den">1</property>
  <property name="format">3</property>
  <property name="audio_index">-1</property>
  <property name="video_index">0</property>
  <property name="meta.media.frame_rate_num">30</property>
  <property name="meta.media.frame_rate_den">1</property>
  <property name="meta.media.colorspace">601</property>
  <property name="meta.media.color_trc">2</property>
  <property name="meta.media.has_b_frames">0</property>
  <property name="meta.media.width">320</property>
  <property name="meta.media.height">240</property>
  <property name="meta.media.color_range">mpeg</property>
  <property name="kdenlive:clipname"/>
  <property name="meta.media.top_field_first">0</property>
  <property name="meta.media.progressive">1</property>
  <property name="kdenlive:clip_type">0</property>
  <property name="kdenlive:folderid">14</property>
  <property name="kdenlive:id">742</property>
  <property name="kdenlive:file_size">139670503</property>
  <property name="kdenlive:file_hash">f85c029a0f5a412ac656de51f79e8566</property>
  <property name="kdenlive:audio_max1">200</property>
  <property name="kdenlive:active_streams">-1</property>
  <property name="set.test_audio">1</property>
  <property name="mute_on_pause">1</property>
 </chain>
 <chain id="chain379" out="00:02:48.920">
  <property name="length">4224</property>
  <property name="eof">pause</property>
  <property name="resource">audio/quotes/ai-art-quote/rothbard.mp3</property>
  <property name="mlt_service">avformat</property>
  <property name="meta.media.nb_streams">1</property>
  <property name="meta.media.0.stream.type">audio</property>
  <property name="meta.media.0.codec.sample_fmt">fltp</property>
  <property name="meta.media.0.codec.sample_rate">44100</property>
  <property name="meta.media.0.codec.channels">2</property>
  <property name="meta.media.0.codec.name">mp3float</property>
  <property name="meta.media.0.codec.long_name">MP3 (MPEG audio layer 3)</property>
  <property name="meta.media.0.codec.bit_rate">192000</property>
  <property name="meta.attr.encoded_by.markup">LAME in FL Studio 21</property>
  <property name="meta.attr.date.markup">2023</property>
  <property name="seekable">1</property>
  <property name="audio_index">0</property>
  <property name="video_index">-1</property>
  <property name="kdenlive:clipname"/>
  <property name="kdenlive:clip_type">1</property>
  <property name="kdenlive:folderid">350</property>
  <property name="kdenlive:id">743</property>
  <property name="kdenlive:file_size">4055096</property>
  <property name="kdenlive:file_hash">157bf744524957ec60ea00ecd77a0bcf</property>
  <property name="kdenlive:audio_max0">195</property>
  <property name="mute_on_pause">1</property>
 </chain>
 <producer id="producer632" in="00:00:00.000" out="00:00:16.480">
  <property name="length">413</property>
  <property name="eof">pause</property>
  <property name="resource">quotes/out/murray-rothbard-c0-q0.png</property>
  <property name="ttl">25</property>
  <property name="aspect_ratio">1</property>
  <property name="progressive">1</property>
  <property name="seekable">1</property>
  <property name="format">2</property>
  <property name="meta.media.width">1920</property>
  <property name="meta.media.height">1080</property>
  <property name="mlt_service">qimage</property>
  <property name="kdenlive:clipname"/>
  <property name="kdenlive:duration">00:00:05:00</property>
  <property name="kdenlive:folderid">345</property>
  <property name="kdenlive:id">744</property>
  <property name="kdenlive:clip_type">2</property>
  <property name="kdenlive:file_size">81847</property>
  <property name="kdenlive:file_hash">2f285e73e6b67b12de73746d096ef18c</property>
 </producer>
 <producer id="producer633" in="00:00:00.000" out="00:00:13.440">
  <property name="length">337</property>
  <property name="eof">pause</property>
  <property name="resource">quotes/out/murray-rothbard-c0-q1.png</property>
  <property name="ttl">25</property>
  <property name="aspect_ratio">1</property>
  <property name="progressive">1</property>
  <property name="seekable">1</property>
  <property name="format">2</property>
  <property name="meta.media.width">1920</property>
  <property name="meta.media.height">1080</property>
  <property name="mlt_service">qimage</property>
  <property name="kdenlive:clipname"/>
  <property name="kdenlive:duration">00:00:05:00</property>
  <property name="kdenlive:folderid">345</property>
  <property name="kdenlive:id">745</property>
  <property name="kdenlive:clip_type">2</property>
  <property name="kdenlive:file_size">64383</property>
  <property name="kdenlive:file_hash">333bb94bdb8c4be5aebb26da9093bcd6</property>
 </producer>
 <producer id="producer629" in="00:00:00.000" out="00:00:29.960">
  <property name="length">750</property>
  <property name="eof">pause</property>
  <property name="resource">quotes/out/murray-rothbard-c0.png</property>
  <property name="ttl">25</property>
  <property name="aspect_ratio">1</property>
  <property name="progressive">1</property>
  <property name="seekable">1</property>
  <property name="format">2</property>
  <property name="meta.media.width">1920</property>
  <property name="meta.media.height">1080</property>
  <property name="mlt_service">qimage</property>
  <property name="kdenlive:clipname"/>
  <property name="kdenlive:duration">00:00:05:00</property>
  <property name="kdenlive:folderid">345</property>
  <property name="kdenlive:id">746</property>
  <property name="kdenlive:clip_type">2</property>
  <property name="kdenlive:file_size">23705</property>
  <property name="kdenlive:file_hash">ddcdc232e1bd2e51c2ad584660cbc56c</property>
 </producer>
 <producer id="producer566" in="00:00:00.000" out="00:00:30.120">
  <property name="length">754</property>
  <property name="eof">pause</property>
  <property name="resource">quotes/out/murray-rothbard-card.png</property>
  <property name="ttl">25</property>
  <property name="aspect_ratio">1</property>
  <property name="progressive">1</property>
  <property name="seekable">1</property>
  <property name="format">2</property>
  <property name="meta.media.width">1920</property>
  <property name="meta.media.height">1080</property>
  <property name="mlt_service">qimage</property>
  <property name="kdenlive:clipname"/>
  <property name="kdenlive:duration">00:00:05:00</property>
  <property name="kdenlive:folderid">345</property>
  <property name="kdenlive:id">747</property>
  <property name="kdenlive:clip_type">2</property>
  <property name="kdenlive:file_size">465450</property>
  <property name="kdenlive:file_hash">50b8b2b04fff068dd733f38cf46ffcc5</property>
 </producer>
 <producer id="producer505" in="00:00:00.000" out="00:00:07.920">
  <property name="length">199</property>
  <property name="eof">pause</property>
  <property name="resource">citations/citations-kirkpattiecake.png</property>
  <property name="ttl">25</property>
  <property name="aspect_ratio">1</property>
  <property name="progressive">1</property>
  <property name="seekable">1</property>
  <property name="format">2</property>
  <property name="meta.media.width">1920</property>
  <property name="meta.media.height">1080</property>
  <property name="mlt_service">qimage</property>
  <property name="kdenlive:clipname"/>
  <property name="kdenlive:duration">00:00:05:00</property>
  <property name="kdenlive:folderid">234</property>
  <property name="kdenlive:id">748</property>
  <property name="kdenlive:clip_type">2</property>
  <property name="kdenlive:file_size">39606</property>
  <property name="kdenlive:file_hash">76fd3f4a689c1818130f79108fa32f1f</property>
 </producer>
 <chain id="chain380" out="00:42:46.360">
  <property name="length">64160</property>
  <property name="eof">pause</property>
  <property name="resource">b-roll/Art is Hard. The Deceit, Egotism, and Jealousy of ï¼‚AI Artï¼‚ (ft. @shadiversity ) [dTR_k8ueAL0].webm</property>
  <property name="mlt_service">avformat-novalidate</property>
  <property name="meta.media.nb_streams">2</property>
  <property name="meta.media.0.stream.type">video</property>
  <property name="meta.media.0.stream.frame_rate">23.976</property>
  <property name="meta.media.0.stream.sample_aspect_ratio">1</property>
  <property name="meta.media.0.codec.width">1920</property>
  <property name="meta.media.0.codec.height">1080</property>
  <property name="meta.media.0.codec.rotate">0</property>
  <property name="meta.media.0.codec.pix_fmt">yuv420p</property>
  <property name="meta.media.0.codec.sample_aspect_ratio">0</property>
  <property name="meta.media.0.codec.colorspace">709</property>
  <property name="meta.media.0.codec.color_trc">1</property>
  <property name="meta.media.0.codec.name">vp9</property>
  <property name="meta.media.0.codec.long_name">Google VP9</property>
  <property name="meta.media.0.codec.bit_rate">0</property>
  <property name="meta.attr.0.stream.language.markup">eng</property>
  <property name="meta.attr.0.stream.DURATION.markup">00:42:46.355000000</property>
  <property name="meta.media.1.stream.type">audio</property>
  <property name="meta.media.1.codec.sample_fmt">fltp</property>
  <property name="meta.media.1.codec.sample_rate">48000</property>
  <property name="meta.media.1.codec.channels">2</property>
  <property name="meta.media.1.codec.name">opus</property>
  <property name="meta.media.1.codec.long_name">Opus</property>
  <property name="meta.media.1.codec.bit_rate">0</property>
  <property name="meta.attr.1.stream.language.markup">eng</property>
  <property name="meta.attr.1.stream.DURATION.markup">00:42:46.381000000</property>
  <property name="meta.attr.ENCODER.markup">Lavf59.27.100</property>
  <property name="seekable">1</property>
  <property name="meta.media.sample_aspect_num">1</property>
  <property name="meta.media.sample_aspect_den">1</property>
  <property name="format">3</property>
  <property name="audio_index">-1</property>
  <property name="video_index">0</property>
  <property name="meta.media.frame_rate_num">24000</property>
  <property name="meta.media.frame_rate_den">1001</property>
  <property name="meta.media.colorspace">709</property>
  <property name="meta.media.color_trc">1</property>
  <property name="meta.media.has_b_frames">0</property>
  <property name="meta.media.width">1920</property>
  <property name="meta.media.height">1080</property>
  <property name="meta.media.color_range">mpeg</property>
  <property name="kdenlive:clipname"/>
  <property name="meta.media.top_field_first">0</property>
  <property name="meta.media.progressive">1</property>
  <property name="kdenlive:clip_type">0</property>
  <property name="kdenlive:folderid">14</property>
  <property name="kdenlive:id">749</property>
  <property name="kdenlive:file_size">502387075</property>
  <property name="kdenlive:file_hash">86fb305796f115c6ecc0dc6f21408ae7</property>
  <property name="kdenlive:audio_max1">227</property>
  <property name="kdenlive:active_streams">-1</property>
  <property name="set.test_audio">1</property>
  <property name="mute_on_pause">1</property>
 </chain>
 <chain id="chain381" out="00:01:59.440">
  <property name="length">2987</property>
  <property name="eof">pause</property>
  <property name="resource">/home/liquidzulu/Videos/yt/b-roll/The Return of Vladimir Lenin [YKNSb6jatMA].mp4</property>
  <property name="mlt_service">avformat-novalidate</property>
  <property name="meta.media.nb_streams">2</property>
  <property name="meta.media.0.stream.type">video</property>
  <property name="meta.media.0.stream.frame_rate">24</property>
  <property name="meta.media.0.stream.sample_aspect_ratio">1</property>
  <property name="meta.media.0.codec.width">1920</property>
  <property name="meta.media.0.codec.height">1080</property>
  <property name="meta.media.0.codec.rotate">0</property>
  <property name="meta.media.0.codec.pix_fmt">yuv420p</property>
  <property name="meta.media.0.codec.sample_aspect_ratio">1</property>
  <property name="meta.media.0.codec.colorspace">709</property>
  <property name="meta.media.0.codec.color_trc">1</property>
  <property name="meta.media.0.codec.name">h264</property>
  <property name="meta.media.0.codec.long_name">H.264 / AVC / MPEG-4 AVC / MPEG-4 part 10</property>
  <property name="meta.media.0.codec.bit_rate">1729186</property>
  <property name="meta.attr.0.stream.handler_name.markup">ISO Media file produced by Google Inc.</property>
  <property name="meta.attr.0.stream.vendor_id.markup">[0][0][0][0]</property>
  <property name="meta.media.1.stream.type">audio</property>
  <property name="meta.media.1.codec.sample_fmt">fltp</property>
  <property name="meta.media.1.codec.sample_rate">44100</property>
  <property name="meta.media.1.codec.channels">2</property>
  <property name="meta.media.1.codec.name">aac</property>
  <property name="meta.media.1.codec.long_name">AAC (Advanced Audio Coding)</property>
  <property name="meta.media.1.codec.bit_rate">127999</property>
  <property name="meta.attr.1.stream.handler_name.markup">ISO Media file produced by Google Inc.</property>
  <property name="meta.attr.1.stream.vendor_id.markup">[0][0][0][0]</property>
  <property name="meta.attr.major_brand.markup">isom</property>
  <property name="meta.attr.minor_version.markup">512</property>
  <property name="meta.attr.compatible_brands.markup">isomiso2avc1mp41</property>
  <property name="meta.attr.encoder.markup">Lavf59.27.100</property>
  <property name="seekable">1</property>
  <property name="meta.media.sample_aspect_num">1</property>
  <property name="meta.media.sample_aspect_den">1</property>
  <property name="format">3</property>
  <property name="audio_index">-1</property>
  <property name="video_index">0</property>
  <property name="meta.media.frame_rate_num">24</property>
  <property name="meta.media.frame_rate_den">1</property>
  <property name="meta.media.colorspace">709</property>
  <property name="meta.media.color_trc">1</property>
  <property name="meta.media.has_b_frames">1</property>
  <property name="meta.media.width">1920</property>
  <property name="meta.media.height">1080</property>
  <property name="meta.media.color_range">mpeg</property>
  <property name="kdenlive:clipname"/>
  <property name="meta.media.top_field_first">0</property>
  <property name="meta.media.progressive">1</property>
  <property name="kdenlive:clip_type">0</property>
  <property name="kdenlive:folderid">14</property>
  <property name="kdenlive:id">750</property>
  <property name="kdenlive:file_size">27811920</property>
  <property name="kdenlive:file_hash">12fc96a1e9433f68d5f043bfacef9efb</property>
  <property name="kdenlive:audio_max1">164</property>
  <property name="kdenlive:active_streams">-1</property>
  <property name="set.test_audio">1</property>
  <property name="mute_on_pause">1</property>
 </chain>
 <producer id="producer506" in="00:00:00.000" out="00:00:09.200">
  <property name="length">231</property>
  <property name="eof">pause</property>
  <property name="resource">citations/citations-lenin.png</property>
  <property name="ttl">25</property>
  <property name="aspect_ratio">1</property>
  <property name="progressive">1</property>
  <property name="seekable">1</property>
  <property name="format">2</property>
  <property name="meta.media.width">1920</property>
  <property name="meta.media.height">1080</property>
  <property name="mlt_service">qimage</property>
  <property name="kdenlive:clipname"/>
  <property name="kdenlive:duration">00:00:05:00</property>
  <property name="kdenlive:folderid">234</property>
  <property name="kdenlive:id">751</property>
  <property name="kdenlive:clip_type">2</property>
  <property name="kdenlive:file_size">25808</property>
  <property name="kdenlive:file_hash">ec6451e1bcf57bfcefa43761cf72f027</property>
 </producer>
 <chain id="chain382" out="00:02:48.920">
  <property name="length">4224</property>
  <property name="eof">pause</property>
  <property name="resource">audio/quotes/ai-art-quote/out/ai art istebrak.00.17.17.mp3</property>
  <property name="mlt_service">avformat</property>
  <property name="meta.media.nb_streams">1</property>
  <property name="meta.media.0.stream.type">audio</property>
  <property name="meta.media.0.codec.sample_fmt">fltp</property>
  <property name="meta.media.0.codec.sample_rate">44100</property>
  <property name="meta.media.0.codec.channels">2</property>
  <property name="meta.media.0.codec.name">mp3float</property>
  <property name="meta.media.0.codec.long_name">MP3 (MPEG audio layer 3)</property>
  <property name="meta.media.0.codec.bit_rate">192000</property>
  <property name="meta.attr.encoded_by.markup">LAME in FL Studio 21</property>
  <property name="meta.attr.date.markup">2023</property>
  <property name="seekable">1</property>
  <property name="audio_index">0</property>
  <property name="video_index">-1</property>
  <property name="kdenlive:clipname"/>
  <property name="kdenlive:clip_type">1</property>
  <property name="kdenlive:folderid">350</property>
  <property name="kdenlive:id">752</property>
  <property name="kdenlive:file_size">4055096</property>
  <property name="kdenlive:file_hash">a773a66786e387d592c812d0de24b00b</property>
  <property name="kdenlive:audio_max0">199</property>
  <property name="mute_on_pause">1</property>
 </chain>
 <producer id="producer507" in="00:00:00.000" out="00:00:04.960">
  <property name="length">125</property>
  <property name="eof">pause</property>
  <property name="progressive">1</property>
  <property name="aspect_ratio">1</property>
  <property name="seekable">1</property>
  <property name="mlt_service">kdenlivetitle</property>
  <property name="kdenlive:duration">00:00:05:00</property>
  <property name="kdenlive:clipname">they</property>
  <property name="xmldata">&lt;kdenlivetitle duration="125" LC_NUMERIC="C" width="1920" height="1080" out="124">
 &lt;item type="QGraphicsTextItem" z-index="0">
  &lt;position x="691" y="402">
   &lt;transform>1,0,0,0,1,0,0,0,1&lt;/transform>
  &lt;/position>
  &lt;content line-spacing="0" shadow="0;#64000000;3;3;3" font-underline="0" box-height="276" font="Cubano" letter-spacing="0" font-pixel-size="230" font-italic="0" typewriter="0;2;1;0;0" alignment="4" font-weight="50" box-width="540.484" font-color="255,255,255,255">they&lt;/content>
 &lt;/item>
 &lt;startviewport rect="0,0,1920,1080"/>
 &lt;endviewport rect="0,0,1920,1080"/>
 &lt;background color="0,0,0,0"/>
&lt;/kdenlivetitle>
</property>
  <property name="kdenlive:folderid">21</property>
  <property name="kdenlive:id">753</property>
  <property name="kdenlive:clip_type">2</property>
  <property name="force_reload">0</property>
  <property name="meta.media.width">1920</property>
  <property name="meta.media.height">1080</property>
  <property name="kdenlive:file_hash">9a8223da434226a760348ac476243140</property>
 </producer>
 <producer id="producer508" in="00:00:00.000" out="00:00:04.960">
  <property name="length">125</property>
  <property name="eof">pause</property>
  <property name="progressive">1</property>
  <property name="aspect_ratio">1</property>
  <property name="seekable">1</property>
  <property name="mlt_service">kdenlivetitle</property>
  <property name="kdenlive:duration">00:00:05:00</property>
  <property name="kdenlive:clipname">tell</property>
  <property name="xmldata">&lt;kdenlivetitle duration="125" LC_NUMERIC="C" width="1920" height="1080" out="124">
 &lt;item type="QGraphicsTextItem" z-index="0">
  &lt;position x="711" y="402">
   &lt;transform>1,0,0,0,1,0,0,0,1&lt;/transform>
  &lt;/position>
  &lt;content line-spacing="0" shadow="0;#64000000;3;3;3" font-underline="0" box-height="276" font="Cubano" letter-spacing="0" font-pixel-size="230" font-italic="0" typewriter="0;2;1;0;0" alignment="4" font-weight="50" box-width="502.078" font-color="255,255,255,255">tell&lt;/content>
 &lt;/item>
 &lt;startviewport rect="0,0,1920,1080"/>
 &lt;endviewport rect="0,0,1920,1080"/>
 &lt;background color="0,0,0,0"/>
&lt;/kdenlivetitle>
</property>
  <property name="kdenlive:folderid">21</property>
  <property name="kdenlive:id">754</property>
  <property name="kdenlive:clip_type">2</property>
  <property name="force_reload">0</property>
  <property name="meta.media.width">1920</property>
  <property name="meta.media.height">1080</property>
  <property name="kdenlive:file_hash">ae5685165e7e65689dcebb5967734bca</property>
 </producer>
 <producer id="producer509" in="00:00:00.000" out="00:00:04.960">
  <property name="length">125</property>
  <property name="eof">pause</property>
  <property name="progressive">1</property>
  <property name="aspect_ratio">1</property>
  <property name="seekable">1</property>
  <property name="mlt_service">kdenlivetitle</property>
  <property name="kdenlive:duration">00:00:05:00</property>
  <property name="kdenlive:clipname">us</property>
  <property name="xmldata">&lt;kdenlivetitle duration="125" LC_NUMERIC="C" width="1920" height="1080" out="124">
 &lt;item type="QGraphicsTextItem" z-index="0">
  &lt;position x="828" y="402">
   &lt;transform>1,0,0,0,1,0,0,0,1&lt;/transform>
  &lt;/position>
  &lt;content line-spacing="0" shadow="0;#64000000;3;3;3" font-underline="0" box-height="276" font="Cubano" letter-spacing="0" font-pixel-size="230" font-italic="0" typewriter="0;2;1;0;0" alignment="4" font-weight="50" box-width="267.234" font-color="255,255,255,255">us&lt;/content>
 &lt;/item>
 &lt;startviewport rect="0,0,1920,1080"/>
 &lt;endviewport rect="0,0,1920,1080"/>
 &lt;background color="0,0,0,0"/>
&lt;/kdenlivetitle>
</property>
  <property name="kdenlive:folderid">21</property>
  <property name="kdenlive:id">755</property>
  <property name="kdenlive:clip_type">2</property>
  <property name="force_reload">0</property>
  <property name="meta.media.width">1920</property>
  <property name="meta.media.height">1080</property>
  <property name="kdenlive:file_hash">e2620dff42c88f764a97d17db2fa8cd9</property>
 </producer>
 <producer id="producer510" in="00:00:00.000" out="00:00:04.960">
  <property name="length">125</property>
  <property name="eof">pause</property>
  <property name="progressive">1</property>
  <property name="aspect_ratio">1</property>
  <property name="seekable">1</property>
  <property name="mlt_service">kdenlivetitle</property>
  <property name="kdenlive:duration">00:00:05:00</property>
  <property name="kdenlive:clipname">capitalism</property>
  <property name="xmldata">&lt;kdenlivetitle duration="125" LC_NUMERIC="C" width="1920" height="1080" out="124">
 &lt;item type="QGraphicsTextItem" z-index="0">
  &lt;position x="352" y="402">
   &lt;transform>1,0,0,0,1,0,0,0,1&lt;/transform>
  &lt;/position>
  &lt;content line-spacing="0" shadow="0;#64000000;3;3;3" font-underline="0" box-height="276" font="Cubano" letter-spacing="0" font-pixel-size="230" font-italic="0" typewriter="0;2;1;0;0" alignment="4" font-weight="50" box-width="1215.48" font-color="255,255,255,255">capitalism&lt;/content>
 &lt;/item>
 &lt;startviewport rect="0,0,1920,1080"/>
 &lt;endviewport rect="0,0,1920,1080"/>
 &lt;background color="0,0,0,0"/>
&lt;/kdenlivetitle>
</property>
  <property name="kdenlive:folderid">21</property>
  <property name="kdenlive:id">756</property>
  <property name="kdenlive:clip_type">2</property>
  <property name="force_reload">0</property>
  <property name="meta.media.width">1920</property>
  <property name="meta.media.height">1080</property>
  <property name="kdenlive:file_hash">de834cde210ea08d2b474641f2bb784a</property>
 </producer>
 <producer id="producer511" in="00:00:00.000" out="00:00:04.960">
  <property name="length">125</property>
  <property name="eof">pause</property>
  <property name="progressive">1</property>
  <property name="aspect_ratio">1</property>
  <property name="seekable">1</property>
  <property name="mlt_service">kdenlivetitle</property>
  <property name="kdenlive:duration">00:00:05:00</property>
  <property name="kdenlive:clipname">evil</property>
  <property name="xmldata">&lt;kdenlivetitle duration="125" LC_NUMERIC="C" width="1920" height="1080" out="124">
 &lt;item type="QGraphicsTextItem" z-index="0">
  &lt;position x="710" y="402">
   &lt;transform>1,0,0,0,1,0,0,0,1&lt;/transform>
  &lt;/position>
  &lt;content line-spacing="0" shadow="0;#64000000;3;3;3" font-underline="0" box-height="276" font-outline-color="0,0,0,255" font="Cubano" letter-spacing="0" font-pixel-size="230" font-italic="1" typewriter="0;2;1;0;0" alignment="4" font-weight="50" font-outline="0" box-width="500.5" font-color="255,0,0,255">evil&lt;/content>
 &lt;/item>
 &lt;startviewport rect="0,0,1920,1080"/>
 &lt;endviewport rect="0,0,1920,1080"/>
 &lt;background color="0,0,0,0"/>
&lt;/kdenlivetitle>
</property>
  <property name="kdenlive:folderid">21</property>
  <property name="kdenlive:id">757</property>
  <property name="kdenlive:clip_type">2</property>
  <property name="force_reload">0</property>
  <property name="meta.media.width">1920</property>
  <property name="meta.media.height">1080</property>
  <property name="kdenlive:file_hash">9daf32109b737c7ad6726d7fc48e03af</property>
 </producer>
 <producer id="producer513" in="00:00:00.000" out="00:00:04.960">
  <property name="length">125</property>
  <property name="eof">pause</property>
  <property name="progressive">1</property>
  <property name="aspect_ratio">1</property>
  <property name="seekable">1</property>
  <property name="mlt_service">kdenlivetitle</property>
  <property name="kdenlive:duration">00:00:05:00</property>
  <property name="kdenlive:clipname">and</property>
  <property name="xmldata">&lt;kdenlivetitle duration="125" LC_NUMERIC="C" width="1920" height="1080" out="124">
 &lt;item type="QGraphicsTextItem" z-index="0">
  &lt;position x="753" y="402">
   &lt;transform>1,0,0,0,1,0,0,0,1&lt;/transform>
  &lt;/position>
  &lt;content line-spacing="0" shadow="0;#64000000;3;3;3" font-underline="0" box-height="276" font="Cubano" letter-spacing="0" font-pixel-size="230" font-italic="0" typewriter="0;2;1;0;0" alignment="4" font-weight="50" box-width="415.125" font-color="255,255,255,255">and&lt;/content>
 &lt;/item>
 &lt;startviewport rect="0,0,1920,1080"/>
 &lt;endviewport rect="0,0,1920,1080"/>
 &lt;background color="0,0,0,0"/>
&lt;/kdenlivetitle>
</property>
  <property name="kdenlive:folderid">21</property>
  <property name="kdenlive:id">758</property>
  <property name="kdenlive:clip_type">2</property>
  <property name="force_reload">0</property>
  <property name="meta.media.width">1920</property>
  <property name="meta.media.height">1080</property>
  <property name="kdenlive:file_hash">1ef2a5212e61e9d31f6779c6391fae1c</property>
 </producer>
 <producer id="producer518" in="00:00:00.000" out="00:00:04.960">
  <property name="length">125</property>
  <property name="eof">pause</property>
  <property name="progressive">1</property>
  <property name="aspect_ratio">1</property>
  <property name="seekable">1</property>
  <property name="mlt_service">kdenlivetitle</property>
  <property name="kdenlive:duration">00:00:05:00</property>
  <property name="kdenlive:clipname">it is</property>
  <property name="xmldata">&lt;kdenlivetitle duration="125" LC_NUMERIC="C" width="1920" height="1080" out="124">
 &lt;item type="QGraphicsTextItem" z-index="0">
  &lt;position x="730" y="402">
   &lt;transform>1,0,0,0,1,0,0,0,1&lt;/transform>
  &lt;/position>
  &lt;content line-spacing="0" shadow="0;#64000000;3;3;3" font-underline="0" box-height="276" font="Cubano" letter-spacing="0" font-pixel-size="230" font-italic="0" typewriter="0;2;1;0;0" alignment="4" font-weight="50" box-width="460.891" font-color="255,255,255,255">it is&lt;/content>
 &lt;/item>
 &lt;startviewport rect="0,0,1920,1080"/>
 &lt;endviewport rect="0,0,1920,1080"/>
 &lt;background color="0,0,0,0"/>
&lt;/kdenlivetitle>
</property>
  <property name="kdenlive:folderid">21</property>
  <property name="kdenlive:id">759</property>
  <property name="kdenlive:clip_type">2</property>
  <property name="force_reload">0</property>
  <property name="meta.media.width">1920</property>
  <property name="meta.media.height">1080</property>
  <property name="kdenlive:file_hash">60f69a527b15880b2107d8edad2b4e35</property>
 </producer>
 <producer id="producer522" in="00:00:00.000" out="00:00:04.960">
  <property name="length">125</property>
  <property name="eof">pause</property>
  <property name="progressive">1</property>
  <property name="aspect_ratio">1</property>
  <property name="seekable">1</property>
  <property name="mlt_service">kdenlivetitle</property>
  <property name="kdenlive:duration">00:00:05:00</property>
  <property name="kdenlive:clipname">ruining</property>
  <property name="xmldata">&lt;kdenlivetitle duration="125" LC_NUMERIC="C" width="1920" height="1080" out="124">
 &lt;item type="QGraphicsTextItem" z-index="0">
  &lt;position x="549" y="402">
   &lt;transform>1,0,0,0,1,0,0,0,1&lt;/transform>
  &lt;/position>
  &lt;content line-spacing="0" shadow="0;#64000000;3;3;3" font-underline="0" box-height="276" font="Cubano" letter-spacing="0" font-pixel-size="230" font-italic="0" typewriter="0;2;1;0;0" alignment="4" font-weight="50" box-width="820.359" font-color="255,255,255,255">ruining&lt;/content>
 &lt;/item>
 &lt;startviewport rect="0,0,1920,1080"/>
 &lt;endviewport rect="0,0,1920,1080"/>
 &lt;background color="0,0,0,0"/>
&lt;/kdenlivetitle>
</property>
  <property name="kdenlive:folderid">21</property>
  <property name="kdenlive:id">760</property>
  <property name="kdenlive:clip_type">2</property>
  <property name="force_reload">0</property>
  <property name="meta.media.width">1920</property>
  <property name="meta.media.height">1080</property>
  <property name="kdenlive:file_hash">dfd51fd56c9f256d587e6a84c890c310</property>
 </producer>
 <producer id="producer523" in="00:00:00.000" out="00:00:04.960">
  <property name="length">125</property>
  <property name="eof">pause</property>
  <property name="progressive">1</property>
  <property name="aspect_ratio">1</property>
  <property name="seekable">1</property>
  <property name="mlt_service">kdenlivetitle</property>
  <property name="kdenlive:duration">00:00:05:00</property>
  <property name="kdenlive:clipname">everything</property>
  <property name="xmldata">&lt;kdenlivetitle duration="125" LC_NUMERIC="C" width="1920" height="1080" out="124">
 &lt;item type="QGraphicsTextItem" z-index="0">
  &lt;position x="327" y="402">
   &lt;transform>1,0,0,0,1,0,0,0,1&lt;/transform>
  &lt;/position>
  &lt;content line-spacing="0" shadow="0;#64000000;3;3;3" font-underline="0" box-height="276" font="Cubano" letter-spacing="0" font-pixel-size="230" font-italic="0" typewriter="0;2;1;0;0" alignment="4" font-weight="50" box-width="1270" font-color="255,255,255,255">everything&lt;/content>
 &lt;/item>
 &lt;startviewport rect="0,0,1920,1080"/>
 &lt;endviewport rect="0,0,1920,1080"/>
 &lt;background color="0,0,0,0"/>
&lt;/kdenlivetitle>
</property>
  <property name="kdenlive:folderid">21</property>
  <property name="kdenlive:id">761</property>
  <property name="kdenlive:clip_type">2</property>
  <property name="force_reload">0</property>
  <property name="meta.media.width">1920</property>
  <property name="meta.media.height">1080</property>
  <property name="kdenlive:file_hash">17500919a4bbe96e7c52f7c5ccc86d2b</property>
 </producer>
 <chain id="chain393" out="00:00:06.360">
  <property name="length">160</property>
  <property name="eof">pause</property>
  <property name="resource">animation/output/ai-art-theft-tweets.mp4</property>
  <property name="mlt_service">avformat-novalidate</property>
  <property name="meta.media.nb_streams">1</property>
  <property name="meta.media.0.stream.type">video</property>
  <property name="meta.media.0.stream.frame_rate">60</property>
  <property name="meta.media.0.stream.sample_aspect_ratio">0</property>
  <property name="meta.media.0.codec.width">1920</property>
  <property name="meta.media.0.codec.height">1080</property>
  <property name="meta.media.0.codec.rotate">0</property>
  <property name="meta.media.0.codec.pix_fmt">yuv420p</property>
  <property name="meta.media.0.codec.sample_aspect_ratio">0</property>
  <property name="meta.media.0.codec.colorspace">709</property>
  <property name="meta.media.0.codec.name">h264</property>
  <property name="meta.media.0.codec.long_name">H.264 / AVC / MPEG-4 AVC / MPEG-4 part 10</property>
  <property name="meta.media.0.codec.bit_rate">1292020</property>
  <property name="meta.attr.0.stream.handler_name.markup">VideoHandler</property>
  <property name="meta.attr.0.stream.vendor_id.markup">[0][0][0][0]</property>
  <property name="meta.attr.major_brand.markup">isom</property>
  <property name="meta.attr.minor_version.markup">512</property>
  <property name="meta.attr.compatible_brands.markup">isomiso2avc1mp41</property>
  <property name="meta.attr.encoder.markup">Lavf58.24.100</property>
  <property name="seekable">1</property>
  <property name="meta.media.sample_aspect_num">1</property>
  <property name="meta.media.sample_aspect_den">1</property>
  <property name="format">3</property>
  <property name="audio_index">-1</property>
  <property name="video_index">0</property>
  <property name="meta.media.frame_rate_num">60</property>
  <property name="meta.media.frame_rate_den">1</property>
  <property name="meta.media.colorspace">709</property>
  <property name="meta.media.color_trc">2</property>
  <property name="meta.media.has_b_frames">2</property>
  <property name="meta.media.width">1920</property>
  <property name="meta.media.height">1080</property>
  <property name="meta.media.color_range">mpeg</property>
  <property name="kdenlive:clipname"/>
  <property name="meta.media.top_field_first">0</property>
  <property name="meta.media.progressive">1</property>
  <property name="kdenlive:clip_type">2</property>
  <property name="kdenlive:folderid">218</property>
  <property name="kdenlive:id">762</property>
  <property name="kdenlive:file_size">1041696</property>
  <property name="kdenlive:file_hash">83c03dc0db67891a9a94bf97ec196e96</property>
  <property name="mute_on_pause">1</property>
 </chain>
 <chain id="chain394" out="00:56:37.840">
  <property name="length">84947</property>
  <property name="eof">pause</property>
  <property name="resource">b-roll/Here's What Ethical AI Really Means [AaU6tI2pb3M].webm</property>
  <property name="mlt_service">avformat-novalidate</property>
  <property name="meta.media.nb_streams">2</property>
  <property name="meta.media.0.stream.type">video</property>
  <property name="meta.media.0.stream.frame_rate">30</property>
  <property name="meta.media.0.stream.sample_aspect_ratio">1</property>
  <property name="meta.media.0.codec.width">3840</property>
  <property name="meta.media.0.codec.height">2160</property>
  <property name="meta.media.0.codec.rotate">0</property>
  <property name="meta.media.0.codec.pix_fmt">yuv420p</property>
  <property name="meta.media.0.codec.sample_aspect_ratio">0</property>
  <property name="meta.media.0.codec.colorspace">709</property>
  <property name="meta.media.0.codec.color_trc">1</property>
  <property name="meta.media.0.codec.name">vp9</property>
  <property name="meta.media.0.codec.long_name">Google VP9</property>
  <property name="meta.media.0.codec.bit_rate">0</property>
  <property name="meta.attr.0.stream.language.markup">eng</property>
  <property name="meta.attr.0.stream.DURATION.markup">00:56:37.833000000</property>
  <property name="meta.media.1.stream.type">audio</property>
  <property name="meta.media.1.codec.sample_fmt">fltp</property>
  <property name="meta.media.1.codec.sample_rate">48000</property>
  <property name="meta.media.1.codec.channels">2</property>
  <property name="meta.media.1.codec.name">opus</property>
  <property name="meta.media.1.codec.long_name">Opus</property>
  <property name="meta.media.1.codec.bit_rate">0</property>
  <property name="meta.attr.1.stream.language.markup">eng</property>
  <property name="meta.attr.1.stream.DURATION.markup">00:56:37.861000000</property>
  <property name="meta.attr.ENCODER.markup">Lavf59.27.100</property>
  <property name="seekable">1</property>
  <property name="meta.media.sample_aspect_num">1</property>
  <property name="meta.media.sample_aspect_den">1</property>
  <property name="format">3</property>
  <property name="audio_index">-1</property>
  <property name="video_index">0</property>
  <property name="meta.media.frame_rate_num">30</property>
  <property name="meta.media.frame_rate_den">1</property>
  <property name="meta.media.colorspace">709</property>
  <property name="meta.media.color_trc">1</property>
  <property name="meta.media.has_b_frames">0</property>
  <property name="meta.media.width">3840</property>
  <property name="meta.media.height">2160</property>
  <property name="meta.media.color_range">mpeg</property>
  <property name="kdenlive:clipname"/>
  <property name="meta.media.top_field_first">0</property>
  <property name="meta.media.progressive">1</property>
  <property name="kdenlive:clip_type">0</property>
  <property name="kdenlive:folderid">14</property>
  <property name="kdenlive:id">763</property>
  <property name="kdenlive:file_size">3253069716</property>
  <property name="kdenlive:file_hash">95f641f5e157428d4a2ff1a7e579fd7e</property>
  <property name="kdenlive:audio_max1">202</property>
  <property name="kdenlive:active_streams">-1</property>
  <property name="set.test_audio">1</property>
  <property name="mute_on_pause">1</property>
 </chain>
 <producer id="producer529" in="00:00:00.000" out="00:00:07.080">
  <property name="length">178</property>
  <property name="eof">pause</property>
  <property name="resource">citations/citations-philosophy-tube.png</property>
  <property name="ttl">25</property>
  <property name="aspect_ratio">1</property>
  <property name="progressive">1</property>
  <property name="seekable">1</property>
  <property name="format">2</property>
  <property name="meta.media.width">1920</property>
  <property name="meta.media.height">1080</property>
  <property name="mlt_service">qimage</property>
  <property name="kdenlive:clipname"/>
  <property name="kdenlive:duration">00:00:05:00</property>
  <property name="kdenlive:folderid">234</property>
  <property name="kdenlive:id">764</property>
  <property name="kdenlive:clip_type">2</property>
  <property name="kdenlive:file_size">26894</property>
  <property name="kdenlive:file_hash">68e903265f749ca1bc39421e99f39406</property>
 </producer>
 <producer id="producer640" in="00:00:00.000" out="00:00:19.680">
  <property name="length">00:00:19.720</property>
  <property name="eof">pause</property>
  <property name="resource">/home/liquidzulu/Pictures/yt/animation/output/project/footnotes/footnote-60/.all.png</property>
  <property name="ttl">1</property>
  <property name="aspect_ratio">1</property>
  <property name="progressive">1</property>
  <property name="seekable">1</property>
  <property name="format">2</property>
  <property name="meta.media.width">1920</property>
  <property name="meta.media.height">1080</property>
  <property name="mlt_service">qimage</property>
  <property name="kdenlive:clipname">footnote-60</property>
  <property name="low-pass">0</property>
  <property name="animation"/>
  <property name="luma_file"/>
  <property name="luma_duration">25</property>
  <property name="fade">0</property>
  <property name="crop">0</property>
  <property name="softness">0</property>
  <property name="loop">0</property>
  <property name="kdenlive:duration">00:00:19:18</property>
  <property name="kdenlive:folderid">273</property>
  <property name="kdenlive:id">765</property>
  <property name="kdenlive:clip_type">2</property>
  <property name="kdenlive:file_hash">e0c6f9ce81572265e312085f6ac1f9ae</property>
 </producer>
 <producer id="producer641" in="00:00:00.000" out="00:00:19.680">
  <property name="length">00:00:19.720</property>
  <property name="eof">pause</property>
  <property name="resource">/home/liquidzulu/Pictures/yt/animation/output/project/footnotes/footnote-61/.all.png</property>
  <property name="ttl">1</property>
  <property name="aspect_ratio">1</property>
  <property name="progressive">1</property>
  <property name="seekable">1</property>
  <property name="format">2</property>
  <property name="meta.media.width">1920</property>
  <property name="meta.media.height">1080</property>
  <property name="mlt_service">qimage</property>
  <property name="kdenlive:clipname">footnote-61</property>
  <property name="low-pass">0</property>
  <property name="animation"/>
  <property name="luma_file"/>
  <property name="luma_duration">25</property>
  <property name="fade">0</property>
  <property name="crop">0</property>
  <property name="softness">0</property>
  <property name="loop">0</property>
  <property name="kdenlive:duration">00:00:19:18</property>
  <property name="kdenlive:folderid">273</property>
  <property name="kdenlive:id">766</property>
  <property name="kdenlive:clip_type">2</property>
  <property name="kdenlive:file_hash">7b10d4048bad78e4e488092f7811d0a8</property>
 </producer>
 <chain id="chain395" out="00:02:48.920">
  <property name="length">4224</property>
  <property name="eof">pause</property>
  <property name="resource">audio/quotes/ai-art-quote/out/ai art istebrak.01.19.22.mp3</property>
  <property name="mlt_service">avformat</property>
  <property name="meta.media.nb_streams">1</property>
  <property name="meta.media.0.stream.type">audio</property>
  <property name="meta.media.0.codec.sample_fmt">fltp</property>
  <property name="meta.media.0.codec.sample_rate">44100</property>
  <property name="meta.media.0.codec.channels">2</property>
  <property name="meta.media.0.codec.name">mp3float</property>
  <property name="meta.media.0.codec.long_name">MP3 (MPEG audio layer 3)</property>
  <property name="meta.media.0.codec.bit_rate">192000</property>
  <property name="meta.attr.encoded_by.markup">LAME in FL Studio 21</property>
  <property name="meta.attr.date.markup">2023</property>
  <property name="seekable">1</property>
  <property name="audio_index">0</property>
  <property name="video_index">-1</property>
  <property name="kdenlive:clipname"/>
  <property name="kdenlive:clip_type">1</property>
  <property name="kdenlive:folderid">350</property>
  <property name="kdenlive:id">767</property>
  <property name="kdenlive:file_size">4055096</property>
  <property name="kdenlive:file_hash">b46b4bf4c6fd0f9356b89974a75d0c50</property>
  <property name="kdenlive:audio_max0">202</property>
  <property name="mute_on_pause">1</property>
 </chain>
 <chain id="chain396" out="00:02:48.920">
  <property name="length">4224</property>
  <property name="eof">pause</property>
  <property name="resource">audio/quotes/ai-art-quote/out/ai art istebrak.01.28.07.mp3</property>
  <property name="mlt_service">avformat</property>
  <property name="meta.media.nb_streams">1</property>
  <property name="meta.media.0.stream.type">audio</property>
  <property name="meta.media.0.codec.sample_fmt">fltp</property>
  <property name="meta.media.0.codec.sample_rate">44100</property>
  <property name="meta.media.0.codec.channels">2</property>
  <property name="meta.media.0.codec.name">mp3float</property>
  <property name="meta.media.0.codec.long_name">MP3 (MPEG audio layer 3)</property>
  <property name="meta.media.0.codec.bit_rate">192000</property>
  <property name="meta.attr.encoded_by.markup">LAME in FL Studio 21</property>
  <property name="meta.attr.date.markup">2023</property>
  <property name="seekable">1</property>
  <property name="audio_index">0</property>
  <property name="video_index">-1</property>
  <property name="kdenlive:clipname"/>
  <property name="kdenlive:clip_type">1</property>
  <property name="kdenlive:folderid">350</property>
  <property name="kdenlive:id">768</property>
  <property name="kdenlive:file_size">4055096</property>
  <property name="kdenlive:file_hash">4e8bccab534c5f3aeb0515d24c09492b</property>
  <property name="kdenlive:audio_max0">199</property>
  <property name="mute_on_pause">1</property>
 </chain>
 <chain id="chain397" out="00:03:54.400">
  <property name="length">5861</property>
  <property name="eof">pause</property>
  <property name="resource">/home/liquidzulu/Videos/yt/b-roll/Violent chimpanzee attack - Planet Earth - BBC wildlife [a7XuXi3mqYM].webm</property>
  <property name="mlt_service">avformat-novalidate</property>
  <property name="meta.media.nb_streams">2</property>
  <property name="meta.media.0.stream.type">video</property>
  <property name="meta.media.0.stream.frame_rate">25</property>
  <property name="meta.media.0.stream.sample_aspect_ratio">1</property>
  <property name="meta.media.0.codec.width">640</property>
  <property name="meta.media.0.codec.height">360</property>
  <property name="meta.media.0.codec.rotate">0</property>
  <property name="meta.media.0.codec.pix_fmt">yuv420p</property>
  <property name="meta.media.0.codec.sample_aspect_ratio">0</property>
  <property name="meta.media.0.codec.colorspace">709</property>
  <property name="meta.media.0.codec.color_trc">1</property>
  <property name="meta.media.0.codec.name">vp9</property>
  <property name="meta.media.0.codec.long_name">Google VP9</property>
  <property name="meta.media.0.codec.bit_rate">0</property>
  <property name="meta.attr.0.stream.language.markup">eng</property>
  <property name="meta.attr.0.stream.DURATION.markup">00:03:54.400000000</property>
  <property name="meta.media.1.stream.type">audio</property>
  <property name="meta.media.1.codec.sample_fmt">fltp</property>
  <property name="meta.media.1.codec.sample_rate">48000</property>
  <property name="meta.media.1.codec.channels">2</property>
  <property name="meta.media.1.codec.name">opus</property>
  <property name="meta.media.1.codec.long_name">Opus</property>
  <property name="meta.media.1.codec.bit_rate">0</property>
  <property name="meta.attr.1.stream.language.markup">eng</property>
  <property name="meta.attr.1.stream.DURATION.markup">00:03:54.421000000</property>
  <property name="meta.attr.ENCODER.markup">Lavf59.27.100</property>
  <property name="seekable">1</property>
  <property name="meta.media.sample_aspect_num">1</property>
  <property name="meta.media.sample_aspect_den">1</property>
  <property name="format">3</property>
  <property name="audio_index">-1</property>
  <property name="video_index">0</property>
  <property name="meta.media.frame_rate_num">25</property>
  <property name="meta.media.frame_rate_den">1</property>
  <property name="meta.media.colorspace">709</property>
  <property name="meta.media.color_trc">1</property>
  <property name="meta.media.has_b_frames">0</property>
  <property name="meta.media.width">640</property>
  <property name="meta.media.height">360</property>
  <property name="meta.media.color_range">mpeg</property>
  <property name="kdenlive:clipname"/>
  <property name="meta.media.top_field_first">0</property>
  <property name="meta.media.progressive">1</property>
  <property name="kdenlive:clip_type">0</property>
  <property name="kdenlive:folderid">14</property>
  <property name="kdenlive:id">769</property>
  <property name="kdenlive:file_size">14708042</property>
  <property name="kdenlive:file_hash">7c3e48a4095d6f31b81a10827774940b</property>
  <property name="kdenlive:audio_max1">180</property>
  <property name="kdenlive:active_streams">-1</property>
  <property name="set.test_audio">1</property>
  <property name="mute_on_pause">1</property>
 </chain>
 <chain id="chain407" out="00:04:00.400">
  <property name="length">6011</property>
  <property name="eof">pause</property>
  <property name="resource">/home/liquidzulu/Music/classical/Boris Godunovï¼š O, tsaryevich, umolyayu (Arr. H. Kindler for Orchestra) [EiDxFpdqxHc].mp3</property>
  <property name="mlt_service">avformat</property>
  <property name="meta.media.nb_streams">1</property>
  <property name="meta.media.0.stream.type">audio</property>
  <property name="meta.media.0.codec.sample_fmt">fltp</property>
  <property name="meta.media.0.codec.sample_rate">48000</property>
  <property name="meta.media.0.codec.channels">2</property>
  <property name="meta.media.0.codec.name">mp3float</property>
  <property name="meta.media.0.codec.long_name">MP3 (MPEG audio layer 3)</property>
  <property name="meta.media.0.codec.bit_rate">60513</property>
  <property name="meta.attr.0.stream.encoder.markup">Lavc59.37</property>
  <property name="meta.attr.encoder.markup">Lavf59.27.100</property>
  <property name="seekable">1</property>
  <property name="audio_index">0</property>
  <property name="video_index">-1</property>
  <property name="kdenlive:clipname"/>
  <property name="kdenlive:clip_type">1</property>
  <property name="kdenlive:folderid">5</property>
  <property name="kdenlive:id">770</property>
  <property name="kdenlive:file_size">1818693</property>
  <property name="kdenlive:file_hash">f1f47c4893c17c44c97e7f28c8fb8d29</property>
  <property name="kdenlive:audio_max0">226</property>
  <property name="mute_on_pause">1</property>
 </chain>
 <producer id="producer655" in="00:00:00.000" out="00:00:27.360">
  <property name="length">685</property>
  <property name="eof">pause</property>
  <property name="resource">quotes/out/hardy-fowler-c0-q0.png</property>
  <property name="ttl">25</property>
  <property name="aspect_ratio">1</property>
  <property name="progressive">1</property>
  <property name="seekable">1</property>
  <property name="format">2</property>
  <property name="meta.media.width">1920</property>
  <property name="meta.media.height">1080</property>
  <property name="mlt_service">qimage</property>
  <property name="kdenlive:clipname"/>
  <property name="kdenlive:duration">00:00:05:00</property>
  <property name="kdenlive:folderid">345</property>
  <property name="kdenlive:id">771</property>
  <property name="kdenlive:clip_type">2</property>
  <property name="kdenlive:file_size">91739</property>
  <property name="kdenlive:file_hash">222c5280c27ae760b64052cd664a09a7</property>
 </producer>
 <producer id="producer650" in="00:00:00.000" out="00:00:49.200">
  <property name="length">1231</property>
  <property name="eof">pause</property>
  <property name="resource">quotes/out/hardy-fowler-c0.png</property>
  <property name="ttl">25</property>
  <property name="aspect_ratio">1</property>
  <property name="progressive">1</property>
  <property name="seekable">1</property>
  <property name="format">2</property>
  <property name="meta.media.width">1920</property>
  <property name="meta.media.height">1080</property>
  <property name="mlt_service">qimage</property>
  <property name="kdenlive:clipname"/>
  <property name="kdenlive:duration">00:00:05:00</property>
  <property name="kdenlive:folderid">345</property>
  <property name="kdenlive:id">772</property>
  <property name="kdenlive:clip_type">2</property>
  <property name="kdenlive:file_size">37049</property>
  <property name="kdenlive:file_hash">dc141212719e5bc7d306176b7049fd6d</property>
 </producer>
 <producer id="producer631" in="00:00:00.000" out="00:00:27.360">
  <property name="length">685</property>
  <property name="eof">pause</property>
  <property name="resource">quotes/out/hardy-fowler-card.png</property>
  <property name="ttl">25</property>
  <property name="aspect_ratio">1</property>
  <property name="progressive">1</property>
  <property name="seekable">1</property>
  <property name="format">2</property>
  <property name="meta.media.width">1920</property>
  <property name="meta.media.height">1080</property>
  <property name="mlt_service">qimage</property>
  <property name="kdenlive:clipname"/>
  <property name="kdenlive:duration">00:00:05:00</property>
  <property name="kdenlive:folderid">345</property>
  <property name="kdenlive:id">773</property>
  <property name="kdenlive:clip_type">2</property>
  <property name="kdenlive:file_size">505556</property>
  <property name="kdenlive:file_hash">f126be8a3a9762f77cadd942242434b0</property>
 </producer>
 <producer id="producer656" in="00:00:00.000" out="00:00:20.400">
  <property name="length">511</property>
  <property name="eof">pause</property>
  <property name="resource">quotes/out/adam-duff-lucidpixul-c1-q0.png</property>
  <property name="ttl">25</property>
  <property name="aspect_ratio">1</property>
  <property name="progressive">1</property>
  <property name="seekable">1</property>
  <property name="format">2</property>
  <property name="meta.media.width">1920</property>
  <property name="meta.media.height">1080</property>
  <property name="mlt_service">qimage</property>
  <property name="kdenlive:clipname"/>
  <property name="kdenlive:duration">00:00:05:00</property>
  <property name="kdenlive:folderid">345</property>
  <property name="kdenlive:id">774</property>
  <property name="kdenlive:clip_type">2</property>
  <property name="kdenlive:file_size">36829</property>
  <property name="kdenlive:file_hash">5665ed132cf2b9e67043e0ab5727ab8a</property>
 </producer>
 <producer id="producer657" in="00:00:00.000" out="00:00:28.520">
  <property name="length">714</property>
  <property name="eof">pause</property>
  <property name="resource">quotes/out/antonio-stappaerts-c0-q0.png</property>
  <property name="ttl">25</property>
  <property name="aspect_ratio">1</property>
  <property name="progressive">1</property>
  <property name="seekable">1</property>
  <property name="format">2</property>
  <property name="meta.media.width">1920</property>
  <property name="meta.media.height">1080</property>
  <property name="mlt_service">qimage</property>
  <property name="kdenlive:clipname"/>
  <property name="kdenlive:duration">00:00:05:00</property>
  <property name="kdenlive:folderid">345</property>
  <property name="kdenlive:id">775</property>
  <property name="kdenlive:clip_type">2</property>
  <property name="kdenlive:file_size">81070</property>
  <property name="kdenlive:file_hash">e6fbff06b9de279aa118e8d2a66efb12</property>
 </producer>
 <producer id="producer658" in="00:00:00.000" out="00:00:13.360">
  <property name="length">335</property>
  <property name="eof">pause</property>
  <property name="resource">quotes/out/antonio-stappaerts-c0-q1.png</property>
  <property name="ttl">25</property>
  <property name="aspect_ratio">1</property>
  <property name="progressive">1</property>
  <property name="seekable">1</property>
  <property name="format">2</property>
  <property name="meta.media.width">1920</property>
  <property name="meta.media.height">1080</property>
  <property name="mlt_service">qimage</property>
  <property name="kdenlive:clipname"/>
  <property name="kdenlive:duration">00:00:05:00</property>
  <property name="kdenlive:folderid">345</property>
  <property name="kdenlive:id">776</property>
  <property name="kdenlive:clip_type">2</property>
  <property name="kdenlive:file_size">51374</property>
  <property name="kdenlive:file_hash">0b0e28f6b201b52a5a5d062ce63175e9</property>
 </producer>
 <producer id="producer651" in="00:00:00.000" out="00:00:38.520">
  <property name="length">964</property>
  <property name="eof">pause</property>
  <property name="resource">quotes/out/antonio-stappaerts-c0.png</property>
  <property name="ttl">25</property>
  <property name="aspect_ratio">1</property>
  <property name="progressive">1</property>
  <property name="seekable">1</property>
  <property name="format">2</property>
  <property name="meta.media.width">1920</property>
  <property name="meta.media.height">1080</property>
  <property name="mlt_service">qimage</property>
  <property name="kdenlive:clipname"/>
  <property name="kdenlive:duration">00:00:05:00</property>
  <property name="kdenlive:folderid">345</property>
  <property name="kdenlive:id">777</property>
  <property name="kdenlive:clip_type">2</property>
  <property name="kdenlive:file_size">37444</property>
  <property name="kdenlive:file_hash">8fd225f013120433fdbe9f2246d10262</property>
 </producer>
 <producer id="producer634" in="00:00:00.000" out="00:00:38.520">
  <property name="length">964</property>
  <property name="eof">pause</property>
  <property name="resource">quotes/out/antonio-stappaerts-card.png</property>
  <property name="ttl">25</property>
  <property name="aspect_ratio">1</property>
  <property name="progressive">1</property>
  <property name="seekable">1</property>
  <property name="format">2</property>
  <property name="meta.media.width">1920</property>
  <property name="meta.media.height">1080</property>
  <property name="mlt_service">qimage</property>
  <property name="kdenlive:clipname"/>
  <property name="kdenlive:duration">00:00:05:00</property>
  <property name="kdenlive:folderid">345</property>
  <property name="kdenlive:id">778</property>
  <property name="kdenlive:clip_type">2</property>
  <property name="kdenlive:file_size">301157</property>
  <property name="kdenlive:file_hash">fe96738c1242ce3e9b38576fdf8a2fb3</property>
 </producer>
 <chain id="chain408" out="00:07:40.680">
  <property name="length">11518</property>
  <property name="eof">pause</property>
  <property name="resource">/home/liquidzulu/Videos/yt/b-roll/Anthemï¼š The Graphic Novel (Episode 2) [l06-VCahjLw].webm</property>
  <property name="mlt_service">avformat-novalidate</property>
  <property name="meta.media.nb_streams">2</property>
  <property name="meta.media.0.stream.type">video</property>
  <property name="meta.media.0.stream.frame_rate">29.97</property>
  <property name="meta.media.0.stream.sample_aspect_ratio">1</property>
  <property name="meta.media.0.codec.width">1920</property>
  <property name="meta.media.0.codec.height">1080</property>
  <property name="meta.media.0.codec.rotate">0</property>
  <property name="meta.media.0.codec.pix_fmt">yuv420p</property>
  <property name="meta.media.0.codec.sample_aspect_ratio">0</property>
  <property name="meta.media.0.codec.colorspace">709</property>
  <property name="meta.media.0.codec.color_trc">1</property>
  <property name="meta.media.0.codec.name">vp9</property>
  <property name="meta.media.0.codec.long_name">Google VP9</property>
  <property name="meta.media.0.codec.bit_rate">0</property>
  <property name="meta.attr.0.stream.language.markup">eng</property>
  <property name="meta.attr.0.stream.DURATION.markup">00:07:40.693000000</property>
  <property name="meta.media.1.stream.type">audio</property>
  <property name="meta.media.1.codec.sample_fmt">fltp</property>
  <property name="meta.media.1.codec.sample_rate">48000</property>
  <property name="meta.media.1.codec.channels">2</property>
  <property name="meta.media.1.codec.name">opus</property>
  <property name="meta.media.1.codec.long_name">Opus</property>
  <property name="meta.media.1.codec.bit_rate">0</property>
  <property name="meta.attr.1.stream.language.markup">eng</property>
  <property name="meta.attr.1.stream.DURATION.markup">00:07:40.721000000</property>
  <property name="meta.attr.ENCODER.markup">Lavf59.27.100</property>
  <property name="seekable">1</property>
  <property name="meta.media.sample_aspect_num">1</property>
  <property name="meta.media.sample_aspect_den">1</property>
  <property name="format">3</property>
  <property name="audio_index">-1</property>
  <property name="video_index">0</property>
  <property name="meta.media.frame_rate_num">30000</property>
  <property name="meta.media.frame_rate_den">1001</property>
  <property name="meta.media.colorspace">709</property>
  <property name="meta.media.color_trc">1</property>
  <property name="meta.media.has_b_frames">0</property>
  <property name="meta.media.width">1920</property>
  <property name="meta.media.height">1080</property>
  <property name="meta.media.color_range">mpeg</property>
  <property name="kdenlive:clipname"/>
  <property name="meta.media.top_field_first">0</property>
  <property name="meta.media.progressive">1</property>
  <property name="kdenlive:clip_type">0</property>
  <property name="kdenlive:folderid">14</property>
  <property name="kdenlive:id">779</property>
  <property name="kdenlive:file_size">118795473</property>
  <property name="kdenlive:file_hash">98feb02ed89f4b577c33f74905a9d4db</property>
  <property name="kdenlive:audio_max1">243</property>
  <property name="kdenlive:active_streams">-1</property>
  <property name="set.test_audio">1</property>
  <property name="mute_on_pause">1</property>
 </chain>
 <producer id="producer533" in="00:00:00.000" out="00:00:23.680">
  <property name="length">593</property>
  <property name="eof">pause</property>
  <property name="resource">citations/citations-anthem.png</property>
  <property name="ttl">25</property>
  <property name="aspect_ratio">1</property>
  <property name="progressive">1</property>
  <property name="seekable">1</property>
  <property name="format">2</property>
  <property name="meta.media.width">1920</property>
  <property name="meta.media.height">1080</property>
  <property name="mlt_service">qimage</property>
  <property name="kdenlive:clipname"/>
  <property name="kdenlive:duration">00:00:05:00</property>
  <property name="kdenlive:folderid">234</property>
  <property name="kdenlive:id">780</property>
  <property name="kdenlive:clip_type">2</property>
  <property name="kdenlive:file_size">30629</property>
  <property name="kdenlive:file_hash">839a2104884d2dfcdcc5ded6e37de782</property>
 </producer>
 <producer id="producer664" in="00:00:00.000" out="00:00:19.680">
  <property name="length">00:00:19.720</property>
  <property name="eof">pause</property>
  <property name="resource">/home/liquidzulu/Pictures/yt/animation/output/project/footnotes/footnote-64/.all.png</property>
  <property name="ttl">1</property>
  <property name="aspect_ratio">1</property>
  <property name="progressive">1</property>
  <property name="seekable">1</property>
  <property name="format">2</property>
  <property name="meta.media.width">1920</property>
  <property name="meta.media.height">1080</property>
  <property name="mlt_service">qimage</property>
  <property name="kdenlive:clipname">footnote-64</property>
  <property name="low-pass">0</property>
  <property name="animation"/>
  <property name="luma_file"/>
  <property name="luma_duration">25</property>
  <property name="fade">0</property>
  <property name="crop">0</property>
  <property name="softness">0</property>
  <property name="loop">0</property>
  <property name="kdenlive:duration">00:00:19:18</property>
  <property name="kdenlive:folderid">273</property>
  <property name="kdenlive:id">781</property>
  <property name="kdenlive:clip_type">2</property>
  <property name="kdenlive:file_hash">7ea1efc12c54407d2a6a2466947392be</property>
 </producer>
 <producer id="producer665" in="00:00:00.000" out="00:00:19.680">
  <property name="length">00:00:19.720</property>
  <property name="eof">pause</property>
  <property name="resource">/home/liquidzulu/Pictures/yt/animation/output/project/footnotes/footnote-65/.all.png</property>
  <property name="ttl">1</property>
  <property name="aspect_ratio">1</property>
  <property name="progressive">1</property>
  <property name="seekable">1</property>
  <property name="format">2</property>
  <property name="meta.media.width">1920</property>
  <property name="meta.media.height">1080</property>
  <property name="mlt_service">qimage</property>
  <property name="kdenlive:clipname">footnote-65</property>
  <property name="low-pass">0</property>
  <property name="animation"/>
  <property name="luma_file"/>
  <property name="luma_duration">25</property>
  <property name="fade">0</property>
  <property name="crop">0</property>
  <property name="softness">0</property>
  <property name="loop">0</property>
  <property name="kdenlive:duration">00:00:19:18</property>
  <property name="kdenlive:folderid">273</property>
  <property name="kdenlive:id">782</property>
  <property name="kdenlive:clip_type">2</property>
  <property name="kdenlive:file_hash">3d3b1087f9de0c402d8054bd7e0c6706</property>
 </producer>
 <producer id="producer666" in="00:00:00.000" out="00:00:19.680">
  <property name="length">00:00:19.720</property>
  <property name="eof">pause</property>
  <property name="resource">/home/liquidzulu/Pictures/yt/animation/output/project/footnotes/footnote-66/.all.png</property>
  <property name="ttl">1</property>
  <property name="aspect_ratio">1</property>
  <property name="progressive">1</property>
  <property name="seekable">1</property>
  <property name="format">2</property>
  <property name="meta.media.width">1920</property>
  <property name="meta.media.height">1080</property>
  <property name="mlt_service">qimage</property>
  <property name="kdenlive:clipname">footnote-66</property>
  <property name="low-pass">0</property>
  <property name="animation"/>
  <property name="luma_file"/>
  <property name="luma_duration">25</property>
  <property name="fade">0</property>
  <property name="crop">0</property>
  <property name="softness">0</property>
  <property name="loop">0</property>
  <property name="kdenlive:duration">00:00:19:18</property>
  <property name="kdenlive:folderid">273</property>
  <property name="kdenlive:id">783</property>
  <property name="kdenlive:clip_type">2</property>
  <property name="kdenlive:file_hash">bc7e51c3d00d27c8ce4e88903ce813eb</property>
 </producer>
 <producer id="producer667" in="00:00:00.000" out="00:00:19.680">
  <property name="length">00:00:19.720</property>
  <property name="eof">pause</property>
  <property name="resource">/home/liquidzulu/Pictures/yt/animation/output/project/footnotes/footnote-67/.all.png</property>
  <property name="ttl">1</property>
  <property name="aspect_ratio">1</property>
  <property name="progressive">1</property>
  <property name="seekable">1</property>
  <property name="format">2</property>
  <property name="meta.media.width">1920</property>
  <property name="meta.media.height">1080</property>
  <property name="mlt_service">qimage</property>
  <property name="kdenlive:clipname">footnote-67</property>
  <property name="low-pass">0</property>
  <property name="animation"/>
  <property name="luma_file"/>
  <property name="luma_duration">25</property>
  <property name="fade">0</property>
  <property name="crop">0</property>
  <property name="softness">0</property>
  <property name="loop">0</property>
  <property name="kdenlive:duration">00:00:19:18</property>
  <property name="kdenlive:folderid">273</property>
  <property name="kdenlive:id">784</property>
  <property name="kdenlive:clip_type">2</property>
  <property name="kdenlive:file_hash">2578a917be2b38956fb490f344dea04e</property>
 </producer>
 <producer id="producer653" in="00:00:00.000" out="00:00:21.520">
  <property name="length">539</property>
  <property name="eof">pause</property>
  <property name="resource">quotes/out/karla-ortiz-c0-q0.png</property>
  <property name="ttl">25</property>
  <property name="aspect_ratio">1</property>
  <property name="progressive">1</property>
  <property name="seekable">1</property>
  <property name="format">2</property>
  <property name="meta.media.width">1920</property>
  <property name="meta.media.height">1080</property>
  <property name="mlt_service">qimage</property>
  <property name="kdenlive:clipname"/>
  <property name="kdenlive:duration">00:00:05:00</property>
  <property name="kdenlive:folderid">345</property>
  <property name="kdenlive:id">785</property>
  <property name="kdenlive:clip_type">2</property>
  <property name="kdenlive:file_size">74717</property>
  <property name="kdenlive:file_hash">2a54aa69d7928c27a639f144fb159fb3</property>
 </producer>
 <producer id="producer647" in="00:00:00.000" out="00:00:21.520">
  <property name="length">539</property>
  <property name="eof">pause</property>
  <property name="resource">quotes/out/karla-ortiz-c0.png</property>
  <property name="ttl">25</property>
  <property name="aspect_ratio">1</property>
  <property name="progressive">1</property>
  <property name="seekable">1</property>
  <property name="format">2</property>
  <property name="meta.media.width">1920</property>
  <property name="meta.media.height">1080</property>
  <property name="mlt_service">qimage</property>
  <property name="kdenlive:clipname"/>
  <property name="kdenlive:duration">00:00:05:00</property>
  <property name="kdenlive:folderid">345</property>
  <property name="kdenlive:id">786</property>
  <property name="kdenlive:clip_type">2</property>
  <property name="kdenlive:file_size">21489</property>
  <property name="kdenlive:file_hash">79167921455f7d751ed18ebd0dbceae1</property>
 </producer>
 <producer id="producer668" in="00:00:00.000" out="00:00:13.480">
  <property name="length">338</property>
  <property name="eof">pause</property>
  <property name="resource">quotes/out/karla-ortiz-c1-q0.png</property>
  <property name="ttl">25</property>
  <property name="aspect_ratio">1</property>
  <property name="progressive">1</property>
  <property name="seekable">1</property>
  <property name="format">2</property>
  <property name="meta.media.width">1920</property>
  <property name="meta.media.height">1080</property>
  <property name="mlt_service">qimage</property>
  <property name="kdenlive:clipname"/>
  <property name="kdenlive:duration">00:00:05:00</property>
  <property name="kdenlive:folderid">345</property>
  <property name="kdenlive:id">787</property>
  <property name="kdenlive:clip_type">2</property>
  <property name="kdenlive:file_size">52547</property>
  <property name="kdenlive:file_hash">35a8b5222b4ad7ccc294b28a36c91aeb</property>
 </producer>
 <producer id="producer669" in="00:00:00.000" out="00:00:13.480">
  <property name="length">338</property>
  <property name="eof">pause</property>
  <property name="resource">quotes/out/karla-ortiz-c1.png</property>
  <property name="ttl">25</property>
  <property name="aspect_ratio">1</property>
  <property name="progressive">1</property>
  <property name="seekable">1</property>
  <property name="format">2</property>
  <property name="meta.media.width">1920</property>
  <property name="meta.media.height">1080</property>
  <property name="mlt_service">qimage</property>
  <property name="kdenlive:clipname"/>
  <property name="kdenlive:duration">00:00:05:00</property>
  <property name="kdenlive:folderid">345</property>
  <property name="kdenlive:id">788</property>
  <property name="kdenlive:clip_type">2</property>
  <property name="kdenlive:file_size">22253</property>
  <property name="kdenlive:file_hash">ed084ab82d98e44c9c2644df5ed41e14</property>
 </producer>
 <producer id="producer670" in="00:00:00.000" out="00:01:16.080">
  <property name="length">1903</property>
  <property name="eof">pause</property>
  <property name="resource">quotes/out/karla-ortiz-c2-q0.png</property>
  <property name="ttl">25</property>
  <property name="aspect_ratio">1</property>
  <property name="progressive">1</property>
  <property name="seekable">1</property>
  <property name="format">2</property>
  <property name="meta.media.width">1920</property>
  <property name="meta.media.height">1080</property>
  <property name="mlt_service">qimage</property>
  <property name="kdenlive:clipname"/>
  <property name="kdenlive:duration">00:00:05:00</property>
  <property name="kdenlive:folderid">345</property>
  <property name="kdenlive:id">789</property>
  <property name="kdenlive:clip_type">2</property>
  <property name="kdenlive:file_size">91765</property>
  <property name="kdenlive:file_hash">8600fd1db3b8add893cea92fe0dfcf01</property>
 </producer>
 <producer id="producer671" in="00:00:00.000" out="00:00:54.280">
  <property name="length">1358</property>
  <property name="eof">pause</property>
  <property name="resource">quotes/out/karla-ortiz-c2-q1.png</property>
  <property name="ttl">25</property>
  <property name="aspect_ratio">1</property>
  <property name="progressive">1</property>
  <property name="seekable">1</property>
  <property name="format">2</property>
  <property name="meta.media.width">1920</property>
  <property name="meta.media.height">1080</property>
  <property name="mlt_service">qimage</property>
  <property name="kdenlive:clipname"/>
  <property name="kdenlive:duration">00:00:05:00</property>
  <property name="kdenlive:folderid">345</property>
  <property name="kdenlive:id">790</property>
  <property name="kdenlive:clip_type">2</property>
  <property name="kdenlive:file_size">75923</property>
  <property name="kdenlive:file_hash">bb8ba555a085d1300e682e740aa19ff0</property>
 </producer>
 <producer id="producer672" in="00:00:00.000" out="00:00:36.600">
  <property name="length">916</property>
  <property name="eof">pause</property>
  <property name="resource">quotes/out/karla-ortiz-c2-q2.png</property>
  <property name="ttl">25</property>
  <property name="aspect_ratio">1</property>
  <property name="progressive">1</property>
  <property name="seekable">1</property>
  <property name="format">2</property>
  <property name="meta.media.width">1920</property>
  <property name="meta.media.height">1080</property>
  <property name="mlt_service">qimage</property>
  <property name="kdenlive:clipname"/>
  <property name="kdenlive:duration">00:00:05:00</property>
  <property name="kdenlive:folderid">345</property>
  <property name="kdenlive:id">791</property>
  <property name="kdenlive:clip_type">2</property>
  <property name="kdenlive:file_size">73355</property>
  <property name="kdenlive:file_hash">b204f339bda8bb3da6b32bf7679345bc</property>
 </producer>
 <producer id="producer673" in="00:00:00.000" out="00:01:26.080">
  <property name="length">2153</property>
  <property name="eof">pause</property>
  <property name="resource">quotes/out/karla-ortiz-c2.png</property>
  <property name="ttl">25</property>
  <property name="aspect_ratio">1</property>
  <property name="progressive">1</property>
  <property name="seekable">1</property>
  <property name="format">2</property>
  <property name="meta.media.width">1920</property>
  <property name="meta.media.height">1080</property>
  <property name="mlt_service">qimage</property>
  <property name="kdenlive:clipname"/>
  <property name="kdenlive:duration">00:00:05:00</property>
  <property name="kdenlive:folderid">345</property>
  <property name="kdenlive:id">792</property>
  <property name="kdenlive:clip_type">2</property>
  <property name="kdenlive:file_size">21989</property>
  <property name="kdenlive:file_hash">49e80132636f2ac90550e79928474d03</property>
 </producer>
 <producer id="producer600" in="00:00:00.000" out="00:01:26.120">
  <property name="length">2154</property>
  <property name="eof">pause</property>
  <property name="resource">quotes/out/karla-ortiz-card.png</property>
  <property name="ttl">25</property>
  <property name="aspect_ratio">1</property>
  <property name="progressive">1</property>
  <property name="seekable">1</property>
  <property name="format">2</property>
  <property name="meta.media.width">1920</property>
  <property name="meta.media.height">1080</property>
  <property name="mlt_service">qimage</property>
  <property name="kdenlive:clipname"/>
  <property name="kdenlive:duration">00:00:05:00</property>
  <property name="kdenlive:folderid">345</property>
  <property name="kdenlive:id">793</property>
  <property name="kdenlive:clip_type">2</property>
  <property name="kdenlive:file_size">337649</property>
  <property name="kdenlive:file_hash">1285acca07b53e01ea94c4ee76451865</property>
 </producer>
 <chain id="chain409" out="00:02:48.920">
  <property name="length">4224</property>
  <property name="eof">pause</property>
  <property name="resource">audio/quotes/ai-art-quote/out/ai ethics.00.17.19.mp3</property>
  <property name="mlt_service">avformat</property>
  <property name="meta.media.nb_streams">1</property>
  <property name="meta.media.0.stream.type">audio</property>
  <property name="meta.media.0.codec.sample_fmt">fltp</property>
  <property name="meta.media.0.codec.sample_rate">44100</property>
  <property name="meta.media.0.codec.channels">2</property>
  <property name="meta.media.0.codec.name">mp3float</property>
  <property name="meta.media.0.codec.long_name">MP3 (MPEG audio layer 3)</property>
  <property name="meta.media.0.codec.bit_rate">192000</property>
  <property name="meta.attr.encoded_by.markup">LAME in FL Studio 21</property>
  <property name="meta.attr.date.markup">2023</property>
  <property name="seekable">1</property>
  <property name="audio_index">0</property>
  <property name="video_index">-1</property>
  <property name="kdenlive:clipname"/>
  <property name="kdenlive:clip_type">1</property>
  <property name="kdenlive:folderid">350</property>
  <property name="kdenlive:id">794</property>
  <property name="kdenlive:file_size">4055096</property>
  <property name="kdenlive:file_hash">6643433250abaefa2acfaaa91bf5aec1</property>
  <property name="kdenlive:audio_max0">199</property>
  <property name="mute_on_pause">1</property>
 </chain>
 <chain id="chain410" out="00:03:13.080">
  <property name="length">4828</property>
  <property name="eof">pause</property>
  <property name="resource">/home/liquidzulu/Music/OST/Joker/Defeated Clown ï½œ Joker OST [vyiV8KVqajM].mp3</property>
  <property name="mlt_service">avformat</property>
  <property name="meta.media.nb_streams">1</property>
  <property name="meta.media.0.stream.type">audio</property>
  <property name="meta.media.0.codec.sample_fmt">fltp</property>
  <property name="meta.media.0.codec.sample_rate">48000</property>
  <property name="meta.media.0.codec.channels">2</property>
  <property name="meta.media.0.codec.name">mp3float</property>
  <property name="meta.media.0.codec.long_name">MP3 (MPEG audio layer 3)</property>
  <property name="meta.media.0.codec.bit_rate">115553</property>
  <property name="meta.attr.0.stream.encoder.markup">Lavc59.37</property>
  <property name="meta.attr.encoder.markup">Lavf59.27.100</property>
  <property name="seekable">1</property>
  <property name="audio_index">0</property>
  <property name="video_index">-1</property>
  <property name="kdenlive:clipname"/>
  <property name="kdenlive:clip_type">1</property>
  <property name="kdenlive:folderid">5</property>
  <property name="kdenlive:id">795</property>
  <property name="kdenlive:file_size">2789253</property>
  <property name="kdenlive:file_hash">e45f8cc30acc6ce39795245255017b13</property>
  <property name="kdenlive:audio_max0">243</property>
  <property name="mute_on_pause">1</property>
 </chain>
 <chain id="chain411" out="00:05:23.080">
  <property name="length">8078</property>
  <property name="eof">pause</property>
  <property name="resource">/home/liquidzulu/Music/OST/Joker/Call Me Joker ï½œ Joker OST [Uy-HZM24pow].mp3</property>
  <property name="mlt_service">avformat</property>
  <property name="meta.media.nb_streams">1</property>
  <property name="meta.media.0.stream.type">audio</property>
  <property name="meta.media.0.codec.sample_fmt">fltp</property>
  <property name="meta.media.0.codec.sample_rate">48000</property>
  <property name="meta.media.0.codec.channels">2</property>
  <property name="meta.media.0.codec.name">mp3float</property>
  <property name="meta.media.0.codec.long_name">MP3 (MPEG audio layer 3)</property>
  <property name="meta.media.0.codec.bit_rate">123985</property>
  <property name="meta.attr.0.stream.encoder.markup">Lavc59.37</property>
  <property name="meta.attr.encoder.markup">Lavf59.27.100</property>
  <property name="seekable">1</property>
  <property name="audio_index">0</property>
  <property name="video_index">-1</property>
  <property name="kdenlive:clipname"/>
  <property name="kdenlive:clip_type">1</property>
  <property name="kdenlive:folderid">5</property>
  <property name="kdenlive:id">796</property>
  <property name="kdenlive:file_size">5007669</property>
  <property name="kdenlive:file_hash">0abc671b6df2594e3fbe21df017665ca</property>
  <property name="kdenlive:audio_max0">246</property>
  <property name="mute_on_pause">1</property>
 </chain>
 <producer id="producer534" in="00:00:00.000" out="00:00:13.240">
  <property name="length">332</property>
  <property name="eof">pause</property>
  <property name="progressive">1</property>
  <property name="aspect_ratio">1</property>
  <property name="seekable">1</property>
  <property name="mlt_service">kdenlivetitle</property>
  <property name="kdenlive:duration">00:00:05:00</property>
  <property name="kdenlive:clipname">"profit is e...</property>
  <property name="xmldata">&lt;kdenlivetitle duration="125" LC_NUMERIC="C" width="1920" height="1080" out="124">
 &lt;item type="QGraphicsTextItem" z-index="0">
  &lt;position x="649" y="489">
   &lt;transform>1,0,0,0,1,0,0,0,1&lt;/transform>
  &lt;/position>
  &lt;content line-spacing="0" shadow="0;#64000000;3;3;3" font-underline="0" box-height="102" font-outline-color="0,0,0,255" font="Cubano" letter-spacing="0" font-pixel-size="85" font-italic="0" typewriter="0;2;1;0;0" alignment="4" font-weight="50" font-outline="0" box-width="620.313" font-color="255,255,255,255">"profit is evil"&lt;/content>
 &lt;/item>
 &lt;startviewport rect="0,0,1920,1080"/>
 &lt;endviewport rect="0,0,1920,1080"/>
 &lt;background color="0,0,0,0"/>
&lt;/kdenlivetitle>
</property>
  <property name="kdenlive:folderid">21</property>
  <property name="kdenlive:id">797</property>
  <property name="kdenlive:clip_type">2</property>
  <property name="force_reload">0</property>
  <property name="meta.media.width">1920</property>
  <property name="meta.media.height">1080</property>
  <property name="kdenlive:file_hash">1de771db8b7f11b980e02d1dcebbb705</property>
 </producer>
 <producer id="producer535" in="00:00:00.000" out="00:00:13.240">
  <property name="length">332</property>
  <property name="eof">pause</property>
  <property name="progressive">1</property>
  <property name="aspect_ratio">1</property>
  <property name="seekable">1</property>
  <property name="mlt_service">kdenlivetitle</property>
  <property name="kdenlive:duration">00:00:05:00</property>
  <property name="kdenlive:clipname">"sacrifice y...</property>
  <property name="xmldata">&lt;kdenlivetitle duration="125" LC_NUMERIC="C" width="1920" height="1080" out="124">
 &lt;item type="QGraphicsTextItem" z-index="0">
  &lt;position x="530" y="489">
   &lt;transform>1,0,0,0,1,0,0,0,1&lt;/transform>
  &lt;/position>
  &lt;content line-spacing="0" shadow="0;#64000000;3;3;3" font-underline="0" box-height="102" font="Cubano" letter-spacing="0" font-pixel-size="85" font-italic="0" typewriter="0;2;1;0;0" alignment="4" font-weight="50" box-width="859.469" font-color="255,255,255,255">"sacrifice yourself"&lt;/content>
 &lt;/item>
 &lt;startviewport rect="0,0,1920,1080"/>
 &lt;endviewport rect="0,0,1920,1080"/>
 &lt;background color="0,0,0,0"/>
&lt;/kdenlivetitle>
</property>
  <property name="kdenlive:folderid">21</property>
  <property name="kdenlive:id">798</property>
  <property name="kdenlive:clip_type">2</property>
  <property name="force_reload">0</property>
  <property name="meta.media.width">1920</property>
  <property name="meta.media.height">1080</property>
  <property name="kdenlive:file_hash">cca48c5a6174269f78cd478be26638e7</property>
 </producer>
 <producer id="producer541" in="00:00:00.000" out="00:00:13.240">
  <property name="length">332</property>
  <property name="eof">pause</property>
  <property name="progressive">1</property>
  <property name="aspect_ratio">1</property>
  <property name="seekable">1</property>
  <property name="mlt_service">kdenlivetitle</property>
  <property name="kdenlive:duration">00:00:05:00</property>
  <property name="kdenlive:clipname">"don't bette...</property>
  <property name="xmldata">&lt;kdenlivetitle duration="125" LC_NUMERIC="C" width="1920" height="1080" out="124">
 &lt;item type="QGraphicsTextItem" z-index="0">
  &lt;position x="348" y="489">
   &lt;transform>1,0,0,0,1,0,0,0,1&lt;/transform>
  &lt;/position>
  &lt;content line-spacing="0" shadow="0;#64000000;3;3;3" font-underline="0" box-height="102" font="Cubano" letter-spacing="0" font-pixel-size="85" font-italic="0" typewriter="0;2;1;0;0" alignment="4" font-weight="50" box-width="1220.11" font-color="255,255,255,255">"don't better your own life"&lt;/content>
 &lt;/item>
 &lt;startviewport rect="0,0,1920,1080"/>
 &lt;endviewport rect="0,0,1920,1080"/>
 &lt;background color="0,0,0,0"/>
&lt;/kdenlivetitle>
</property>
  <property name="kdenlive:folderid">21</property>
  <property name="kdenlive:id">799</property>
  <property name="kdenlive:clip_type">2</property>
  <property name="force_reload">0</property>
  <property name="meta.media.width">1920</property>
  <property name="meta.media.height">1080</property>
  <property name="kdenlive:file_hash">4b4b76078d819af05850a91c4776c274</property>
 </producer>
 <producer id="producer542" in="00:00:00.000" out="00:00:13.240">
  <property name="length">332</property>
  <property name="eof">pause</property>
  <property name="progressive">1</property>
  <property name="aspect_ratio">1</property>
  <property name="seekable">1</property>
  <property name="mlt_service">kdenlivetitle</property>
  <property name="kdenlive:duration">00:00:05:00</property>
  <property name="kdenlive:clipname">"live for ot...</property>
  <property name="xmldata">&lt;kdenlivetitle duration="125" LC_NUMERIC="C" width="1920" height="1080" out="124">
 &lt;item type="QGraphicsTextItem" z-index="0">
  &lt;position x="597" y="489">
   &lt;transform>1,0,0,0,1,0,0,0,1&lt;/transform>
  &lt;/position>
  &lt;content line-spacing="0" shadow="0;#64000000;3;3;3" font-underline="0" box-height="102" font="Cubano" letter-spacing="0" font-pixel-size="85" font-italic="0" typewriter="0;2;1;0;0" alignment="4" font-weight="50" box-width="721.906" font-color="255,255,255,255">"live for others"&lt;/content>
 &lt;/item>
 &lt;startviewport rect="0,0,1920,1080"/>
 &lt;endviewport rect="0,0,1920,1080"/>
 &lt;background color="0,0,0,0"/>
&lt;/kdenlivetitle>
</property>
  <property name="kdenlive:folderid">21</property>
  <property name="kdenlive:id">800</property>
  <property name="kdenlive:clip_type">2</property>
  <property name="force_reload">0</property>
  <property name="meta.media.width">1920</property>
  <property name="meta.media.height">1080</property>
  <property name="kdenlive:file_hash">f675779f17417fc506352bb7e2c8fe81</property>
 </producer>
 <producer id="producer545" in="00:00:00.000" out="00:00:13.240">
  <property name="length">332</property>
  <property name="eof">pause</property>
  <property name="progressive">1</property>
  <property name="aspect_ratio">1</property>
  <property name="seekable">1</property>
  <property name="mlt_service">kdenlivetitle</property>
  <property name="kdenlive:duration">00:00:05:00</property>
  <property name="kdenlive:clipname">"don't be se...</property>
  <property name="xmldata">&lt;kdenlivetitle duration="125" LC_NUMERIC="C" width="1920" height="1080" out="124">
 &lt;item type="QGraphicsTextItem" z-index="0">
  &lt;position x="585" y="489">
   &lt;transform>1,0,0,0,1,0,0,0,1&lt;/transform>
  &lt;/position>
  &lt;content line-spacing="0" shadow="0;#64000000;3;3;3" font-underline="0" box-height="102" font="Cubano" letter-spacing="0" font-pixel-size="85" font-italic="0" typewriter="0;2;1;0;0" alignment="4" font-weight="50" box-width="745.859" font-color="255,255,255,255">"don't be selfish"&lt;/content>
 &lt;/item>
 &lt;startviewport rect="0,0,1920,1080"/>
 &lt;endviewport rect="0,0,1920,1080"/>
 &lt;background color="0,0,0,0"/>
&lt;/kdenlivetitle>
</property>
  <property name="kdenlive:folderid">21</property>
  <property name="kdenlive:id">801</property>
  <property name="kdenlive:clip_type">2</property>
  <property name="force_reload">0</property>
  <property name="meta.media.width">1920</property>
  <property name="meta.media.height">1080</property>
  <property name="kdenlive:file_hash">e049eabbad7adb123c61ee93a7958a9f</property>
 </producer>
 <chain id="chain418" out="01:22:01.600">
  <property name="length">123041</property>
  <property name="eof">pause</property>
  <property name="resource">b-roll/What AI Developers Want Artists to Know about AI [K_Bqq09Kaxk].webm</property>
  <property name="mlt_service">avformat-novalidate</property>
  <property name="meta.media.nb_streams">2</property>
  <property name="meta.media.0.stream.type">video</property>
  <property name="meta.media.0.stream.frame_rate">23.976</property>
  <property name="meta.media.0.stream.sample_aspect_ratio">1</property>
  <property name="meta.media.0.codec.width">3840</property>
  <property name="meta.media.0.codec.height">2160</property>
  <property name="meta.media.0.codec.rotate">0</property>
  <property name="meta.media.0.codec.pix_fmt">yuv420p</property>
  <property name="meta.media.0.codec.sample_aspect_ratio">0</property>
  <property name="meta.media.0.codec.colorspace">709</property>
  <property name="meta.media.0.codec.color_trc">1</property>
  <property name="meta.media.0.codec.name">vp9</property>
  <property name="meta.media.0.codec.long_name">Google VP9</property>
  <property name="meta.media.0.codec.bit_rate">0</property>
  <property name="meta.attr.0.stream.language.markup">eng</property>
  <property name="meta.attr.0.stream.DURATION.markup">01:22:01.625000000</property>
  <property name="meta.media.1.stream.type">audio</property>
  <property name="meta.media.1.codec.sample_fmt">fltp</property>
  <property name="meta.media.1.codec.sample_rate">48000</property>
  <property name="meta.media.1.codec.channels">2</property>
  <property name="meta.media.1.codec.name">opus</property>
  <property name="meta.media.1.codec.long_name">Opus</property>
  <property name="meta.media.1.codec.bit_rate">0</property>
  <property name="meta.attr.1.stream.language.markup">eng</property>
  <property name="meta.attr.1.stream.DURATION.markup">01:22:01.641000000</property>
  <property name="meta.attr.ENCODER.markup">Lavf59.27.100</property>
  <property name="seekable">1</property>
  <property name="meta.media.sample_aspect_num">1</property>
  <property name="meta.media.sample_aspect_den">1</property>
  <property name="format">3</property>
  <property name="audio_index">-1</property>
  <property name="video_index">0</property>
  <property name="meta.media.frame_rate_num">24000</property>
  <property name="meta.media.frame_rate_den">1001</property>
  <property name="meta.media.colorspace">709</property>
  <property name="meta.media.color_trc">1</property>
  <property name="meta.media.has_b_frames">0</property>
  <property name="meta.media.width">3840</property>
  <property name="meta.media.height">2160</property>
  <property name="meta.media.color_range">mpeg</property>
  <property name="kdenlive:clipname"/>
  <property name="meta.media.top_field_first">0</property>
  <property name="meta.media.progressive">1</property>
  <property name="kdenlive:clip_type">0</property>
  <property name="kdenlive:folderid">14</property>
  <property name="kdenlive:id">802</property>
  <property name="kdenlive:file_size">3592761928</property>
  <property name="kdenlive:file_hash">f7e2115834d4f040c7740feec4df662d</property>
  <property name="kdenlive:audio_max1">229</property>
  <property name="kdenlive:active_streams">-1</property>
  <property name="set.test_audio">1</property>
  <property name="mute_on_pause">1</property>
 </chain>
 <producer id="producer546" in="00:00:00.000" out="00:00:06.840">
  <property name="length">172</property>
  <property name="eof">pause</property>
  <property name="resource">citations/citations-evan-conrad.png</property>
  <property name="ttl">25</property>
  <property name="aspect_ratio">1</property>
  <property name="progressive">1</property>
  <property name="seekable">1</property>
  <property name="format">2</property>
  <property name="meta.media.width">1920</property>
  <property name="meta.media.height">1080</property>
  <property name="mlt_service">qimage</property>
  <property name="kdenlive:clipname"/>
  <property name="kdenlive:duration">00:00:05:00</property>
  <property name="kdenlive:folderid">234</property>
  <property name="kdenlive:id">803</property>
  <property name="kdenlive:clip_type">2</property>
  <property name="kdenlive:file_size">25729</property>
  <property name="kdenlive:file_hash">b333525e17f0097bba11610ad85c3123</property>
 </producer>
 <chain id="chain419" out="00:02:48.920">
  <property name="length">4224</property>
  <property name="eof">pause</property>
  <property name="resource">audio/quotes/ai-art-quote/what ai developers.01.03.25.mp3</property>
  <property name="mlt_service">avformat</property>
  <property name="meta.media.nb_streams">1</property>
  <property name="meta.media.0.stream.type">audio</property>
  <property name="meta.media.0.codec.sample_fmt">fltp</property>
  <property name="meta.media.0.codec.sample_rate">44100</property>
  <property name="meta.media.0.codec.channels">2</property>
  <property name="meta.media.0.codec.name">mp3float</property>
  <property name="meta.media.0.codec.long_name">MP3 (MPEG audio layer 3)</property>
  <property name="meta.media.0.codec.bit_rate">192000</property>
  <property name="meta.attr.encoded_by.markup">LAME in FL Studio 21</property>
  <property name="meta.attr.date.markup">2023</property>
  <property name="seekable">1</property>
  <property name="audio_index">0</property>
  <property name="video_index">-1</property>
  <property name="kdenlive:clipname"/>
  <property name="kdenlive:clip_type">1</property>
  <property name="kdenlive:folderid">350</property>
  <property name="kdenlive:id">804</property>
  <property name="kdenlive:file_size">4055096</property>
  <property name="kdenlive:file_hash">c28b889bd25e96aeffbd5ecc562bef59</property>
  <property name="kdenlive:audio_max0">201</property>
  <property name="mute_on_pause">1</property>
 </chain>
 <producer id="producer675" in="00:00:00.000" out="00:00:51.080">
  <property name="length">1278</property>
  <property name="eof">pause</property>
  <property name="resource">quotes/out/evan-conrad-c0-q0.png</property>
  <property name="ttl">25</property>
  <property name="aspect_ratio">1</property>
  <property name="progressive">1</property>
  <property name="seekable">1</property>
  <property name="format">2</property>
  <property name="meta.media.width">1920</property>
  <property name="meta.media.height">1080</property>
  <property name="mlt_service">qimage</property>
  <property name="kdenlive:clipname"/>
  <property name="kdenlive:duration">00:00:05:00</property>
  <property name="kdenlive:folderid">345</property>
  <property name="kdenlive:id">805</property>
  <property name="kdenlive:clip_type">2</property>
  <property name="kdenlive:file_size">93386</property>
  <property name="kdenlive:file_hash">b16c6f049118df88117631db86051906</property>
 </producer>
 <producer id="producer676" in="00:00:00.000" out="00:00:36.080">
  <property name="length">903</property>
  <property name="eof">pause</property>
  <property name="resource">quotes/out/evan-conrad-c0-q1.png</property>
  <property name="ttl">25</property>
  <property name="aspect_ratio">1</property>
  <property name="progressive">1</property>
  <property name="seekable">1</property>
  <property name="format">2</property>
  <property name="meta.media.width">1920</property>
  <property name="meta.media.height">1080</property>
  <property name="mlt_service">qimage</property>
  <property name="kdenlive:clipname"/>
  <property name="kdenlive:duration">00:00:05:00</property>
  <property name="kdenlive:folderid">345</property>
  <property name="kdenlive:id">806</property>
  <property name="kdenlive:clip_type">2</property>
  <property name="kdenlive:file_size">100307</property>
  <property name="kdenlive:file_hash">809b5cc20f8744b6c2565a9d2b9b0b4c</property>
 </producer>
 <producer id="producer677" in="00:00:00.000" out="00:00:19.560">
  <property name="length">490</property>
  <property name="eof">pause</property>
  <property name="resource">quotes/out/evan-conrad-c0-q2.png</property>
  <property name="ttl">25</property>
  <property name="aspect_ratio">1</property>
  <property name="progressive">1</property>
  <property name="seekable">1</property>
  <property name="format">2</property>
  <property name="meta.media.width">1920</property>
  <property name="meta.media.height">1080</property>
  <property name="mlt_service">qimage</property>
  <property name="kdenlive:clipname"/>
  <property name="kdenlive:duration">00:00:05:00</property>
  <property name="kdenlive:folderid">345</property>
  <property name="kdenlive:id">807</property>
  <property name="kdenlive:clip_type">2</property>
  <property name="kdenlive:file_size">49971</property>
  <property name="kdenlive:file_hash">cdc63d8ca4c778e397f1286386ee083c</property>
 </producer>
 <producer id="producer678" in="00:00:00.000" out="00:00:14.000">
  <property name="length">351</property>
  <property name="eof">pause</property>
  <property name="resource">quotes/out/evan-conrad-c0-q3.png</property>
  <property name="ttl">25</property>
  <property name="aspect_ratio">1</property>
  <property name="progressive">1</property>
  <property name="seekable">1</property>
  <property name="format">2</property>
  <property name="meta.media.width">1920</property>
  <property name="meta.media.height">1080</property>
  <property name="mlt_service">qimage</property>
  <property name="kdenlive:clipname"/>
  <property name="kdenlive:duration">00:00:05:00</property>
  <property name="kdenlive:folderid">345</property>
  <property name="kdenlive:id">808</property>
  <property name="kdenlive:clip_type">2</property>
  <property name="kdenlive:file_size">63456</property>
  <property name="kdenlive:file_hash">e5e1cbb49e3117536b46ec773f802366</property>
 </producer>
 <producer id="producer679" in="00:00:00.000" out="00:00:08.440">
  <property name="length">212</property>
  <property name="eof">pause</property>
  <property name="resource">quotes/out/evan-conrad-c0-q4.png</property>
  <property name="ttl">25</property>
  <property name="aspect_ratio">1</property>
  <property name="progressive">1</property>
  <property name="seekable">1</property>
  <property name="format">2</property>
  <property name="meta.media.width">1920</property>
  <property name="meta.media.height">1080</property>
  <property name="mlt_service">qimage</property>
  <property name="kdenlive:clipname"/>
  <property name="kdenlive:duration">00:00:05:00</property>
  <property name="kdenlive:folderid">345</property>
  <property name="kdenlive:id">809</property>
  <property name="kdenlive:clip_type">2</property>
  <property name="kdenlive:file_size">49429</property>
  <property name="kdenlive:file_hash">eca0ec1f81d7189aff89e7e63532b450</property>
 </producer>
 <producer id="producer661" in="00:00:00.000" out="00:01:14.560">
  <property name="length">1865</property>
  <property name="eof">pause</property>
  <property name="resource">quotes/out/evan-conrad-c0.png</property>
  <property name="ttl">25</property>
  <property name="aspect_ratio">1</property>
  <property name="progressive">1</property>
  <property name="seekable">1</property>
  <property name="format">2</property>
  <property name="meta.media.width">1920</property>
  <property name="meta.media.height">1080</property>
  <property name="mlt_service">qimage</property>
  <property name="kdenlive:clipname"/>
  <property name="kdenlive:duration">00:00:05:00</property>
  <property name="kdenlive:folderid">345</property>
  <property name="kdenlive:id">810</property>
  <property name="kdenlive:clip_type">2</property>
  <property name="kdenlive:file_size">23293</property>
  <property name="kdenlive:file_hash">ba8b26c56650d7ec254ebfd763db2df0</property>
 </producer>
 <producer id="producer614" in="00:00:00.000" out="00:01:14.560">
  <property name="length">1865</property>
  <property name="eof">pause</property>
  <property name="resource">quotes/out/evan-conrad-card.png</property>
  <property name="ttl">25</property>
  <property name="aspect_ratio">1</property>
  <property name="progressive">1</property>
  <property name="seekable">1</property>
  <property name="format">2</property>
  <property name="meta.media.width">1920</property>
  <property name="meta.media.height">1080</property>
  <property name="mlt_service">qimage</property>
  <property name="kdenlive:clipname"/>
  <property name="kdenlive:duration">00:00:05:00</property>
  <property name="kdenlive:folderid">345</property>
  <property name="kdenlive:id">811</property>
  <property name="kdenlive:clip_type">2</property>
  <property name="kdenlive:file_size">609834</property>
  <property name="kdenlive:file_hash">182cff5c4f634c1d1786829d648ff4ea</property>
 </producer>
 <producer id="producer570" in="00:00:00.000" out="00:00:17.200">
  <property name="length">431</property>
  <property name="eof">pause</property>
  <property name="resource">images/zapata vs conrad-conrad.png</property>
  <property name="ttl">25</property>
  <property name="aspect_ratio">1</property>
  <property name="progressive">1</property>
  <property name="seekable">1</property>
  <property name="format">2</property>
  <property name="meta.media.width">1920</property>
  <property name="meta.media.height">1080</property>
  <property name="mlt_service">qimage</property>
  <property name="kdenlive:clipname"/>
  <property name="kdenlive:duration">00:00:05:00</property>
  <property name="kdenlive:folderid">28</property>
  <property name="kdenlive:id">812</property>
  <property name="kdenlive:clip_type">2</property>
  <property name="kdenlive:file_size">542970</property>
  <property name="kdenlive:file_hash">88ac3a737bf6bea88fb8c2ee3cea5945</property>
 </producer>
 <producer id="producer547" in="00:00:00.000" out="00:00:21.760">
  <property name="length">545</property>
  <property name="eof">pause</property>
  <property name="resource">images/zapata vs conrad-zapata.png</property>
  <property name="ttl">25</property>
  <property name="aspect_ratio">1</property>
  <property name="progressive">1</property>
  <property name="seekable">1</property>
  <property name="format">2</property>
  <property name="meta.media.width">1920</property>
  <property name="meta.media.height">1080</property>
  <property name="mlt_service">qimage</property>
  <property name="kdenlive:clipname"/>
  <property name="kdenlive:duration">00:00:05:00</property>
  <property name="kdenlive:folderid">28</property>
  <property name="kdenlive:id">813</property>
  <property name="kdenlive:clip_type">2</property>
  <property name="kdenlive:file_size">505833</property>
  <property name="kdenlive:file_hash">e16c0256ab8a29ab7f0df75a2c5c217a</property>
 </producer>
 <chain id="chain420" out="00:00:22.120">
  <property name="length">554</property>
  <property name="eof">pause</property>
  <property name="resource">videos/references scroll.mkv</property>
  <property name="mlt_service">avformat-novalidate</property>
  <property name="meta.media.nb_streams">2</property>
  <property name="meta.media.0.stream.type">video</property>
  <property name="meta.media.0.stream.frame_rate">60</property>
  <property name="meta.media.0.stream.sample_aspect_ratio">0</property>
  <property name="meta.media.0.codec.width">1920</property>
  <property name="meta.media.0.codec.height">1080</property>
  <property name="meta.media.0.codec.rotate">0</property>
  <property name="meta.media.0.codec.pix_fmt">yuv420p</property>
  <property name="meta.media.0.codec.sample_aspect_ratio">1</property>
  <property name="meta.media.0.codec.colorspace">709</property>
  <property name="meta.media.0.codec.color_trc">1</property>
  <property name="meta.media.0.codec.name">h264</property>
  <property name="meta.media.0.codec.long_name">H.264 / AVC / MPEG-4 AVC / MPEG-4 part 10</property>
  <property name="meta.media.0.codec.bit_rate">0</property>
  <property name="meta.attr.0.stream.DURATION.markup">00:00:22.150000000</property>
  <property name="meta.media.1.stream.type">audio</property>
  <property name="meta.media.1.codec.sample_fmt">fltp</property>
  <property name="meta.media.1.codec.sample_rate">48000</property>
  <property name="meta.media.1.codec.channels">1</property>
  <property name="meta.media.1.codec.name">aac</property>
  <property name="meta.media.1.codec.long_name">AAC (Advanced Audio Coding)</property>
  <property name="meta.media.1.codec.bit_rate">0</property>
  <property name="meta.attr.1.stream.title.markup">simple_aac_recording</property>
  <property name="meta.attr.1.stream.DURATION.markup">00:00:22.080000000</property>
  <property name="meta.attr.ENCODER.markup">Lavf59.27.100</property>
  <property name="seekable">1</property>
  <property name="meta.media.sample_aspect_num">1</property>
  <property name="meta.media.sample_aspect_den">1</property>
  <property name="format">3</property>
  <property name="audio_index">-1</property>
  <property name="video_index">0</property>
  <property name="meta.media.frame_rate_num">60</property>
  <property name="meta.media.frame_rate_den">1</property>
  <property name="meta.media.colorspace">709</property>
  <property name="meta.media.color_trc">1</property>
  <property name="meta.media.has_b_frames">2</property>
  <property name="meta.media.width">1920</property>
  <property name="meta.media.height">1080</property>
  <property name="meta.media.color_range">mpeg</property>
  <property name="kdenlive:clipname"/>
  <property name="meta.media.top_field_first">0</property>
  <property name="meta.media.progressive">1</property>
  <property name="kdenlive:clip_type">0</property>
  <property name="kdenlive:folderid">14</property>
  <property name="kdenlive:id">814</property>
  <property name="kdenlive:file_size">12794206</property>
  <property name="kdenlive:file_hash">08513d8f4bc69a789ac5172525807063</property>
  <property name="kdenlive:audio_max1">1</property>
  <property name="kdenlive:active_streams">-1</property>
  <property name="set.test_audio">1</property>
  <property name="mute_on_pause">1</property>
 </chain>
 <producer id="producer571" in="00:00:00.000" out="00:00:04.960">
  <property name="length">00:00:05.000</property>
  <property name="eof">pause</property>
  <property name="resource">images/ethical-model.png</property>
  <property name="ttl">25</property>
  <property name="aspect_ratio">1</property>
  <property name="progressive">1</property>
  <property name="seekable">1</property>
  <property name="format">1</property>
  <property name="meta.media.width">596</property>
  <property name="meta.media.height">478</property>
  <property name="mlt_service">qimage</property>
  <property name="kdenlive:clipname"/>
  <property name="kdenlive:duration">00:00:05:00</property>
  <property name="kdenlive:folderid">28</property>
  <property name="kdenlive:id">815</property>
  <property name="kdenlive:clip_type">2</property>
  <property name="kdenlive:file_size">213167</property>
  <property name="kdenlive:file_hash">8ead33bed120acefa737c22f68d9ed02</property>
 </producer>
 <producer id="producer615" in="00:00:00.000" out="00:00:04.960">
  <property name="length">00:00:05.000</property>
  <property name="eof">pause</property>
  <property name="resource">images/lack-artistic-integrity.png</property>
  <property name="ttl">25</property>
  <property name="aspect_ratio">1</property>
  <property name="progressive">1</property>
  <property name="seekable">1</property>
  <property name="format">1</property>
  <property name="meta.media.width">595</property>
  <property name="meta.media.height">518</property>
  <property name="mlt_service">qimage</property>
  <property name="kdenlive:clipname"/>
  <property name="kdenlive:duration">00:00:05:00</property>
  <property name="kdenlive:folderid">28</property>
  <property name="kdenlive:id">816</property>
  <property name="kdenlive:clip_type">2</property>
  <property name="kdenlive:file_size">243133</property>
  <property name="kdenlive:file_hash">64b5a0d0dff6f0386e66437ac78e6f8c</property>
 </producer>
 <chain id="chain421" out="00:00:27.480">
  <property name="length">688</property>
  <property name="eof">pause</property>
  <property name="resource">/home/liquidzulu/Videos/yt/b-roll/4K smoke effect [7dbp2VH9DcA].webm</property>
  <property name="mlt_service">avformat-novalidate</property>
  <property name="meta.media.nb_streams">2</property>
  <property name="meta.media.0.stream.type">video</property>
  <property name="meta.media.0.stream.frame_rate">23.976</property>
  <property name="meta.media.0.stream.sample_aspect_ratio">1</property>
  <property name="meta.media.0.codec.width">3840</property>
  <property name="meta.media.0.codec.height">2160</property>
  <property name="meta.media.0.codec.rotate">0</property>
  <property name="meta.media.0.codec.pix_fmt">yuv420p</property>
  <property name="meta.media.0.codec.sample_aspect_ratio">0</property>
  <property name="meta.media.0.codec.colorspace">709</property>
  <property name="meta.media.0.codec.color_trc">1</property>
  <property name="meta.media.0.codec.name">vp9</property>
  <property name="meta.media.0.codec.long_name">Google VP9</property>
  <property name="meta.media.0.codec.bit_rate">0</property>
  <property name="meta.attr.0.stream.language.markup">eng</property>
  <property name="meta.attr.0.stream.DURATION.markup">00:00:27.485000000</property>
  <property name="meta.media.1.stream.type">audio</property>
  <property name="meta.media.1.codec.sample_fmt">fltp</property>
  <property name="meta.media.1.codec.sample_rate">48000</property>
  <property name="meta.media.1.codec.channels">2</property>
  <property name="meta.media.1.codec.name">opus</property>
  <property name="meta.media.1.codec.long_name">Opus</property>
  <property name="meta.media.1.codec.bit_rate">0</property>
  <property name="meta.attr.1.stream.language.markup">eng</property>
  <property name="meta.attr.1.stream.DURATION.markup">00:00:27.501000000</property>
  <property name="meta.attr.ENCODER.markup">Lavf59.27.100</property>
  <property name="seekable">1</property>
  <property name="meta.media.sample_aspect_num">1</property>
  <property name="meta.media.sample_aspect_den">1</property>
  <property name="format">3</property>
  <property name="audio_index">1</property>
  <property name="video_index">0</property>
  <property name="meta.media.frame_rate_num">24000</property>
  <property name="meta.media.frame_rate_den">1001</property>
  <property name="meta.media.colorspace">709</property>
  <property name="meta.media.color_trc">1</property>
  <property name="meta.media.has_b_frames">0</property>
  <property name="meta.media.width">3840</property>
  <property name="meta.media.height">2160</property>
  <property name="meta.media.color_range">mpeg</property>
  <property name="kdenlive:clipname"/>
  <property name="meta.media.top_field_first">0</property>
  <property name="meta.media.progressive">1</property>
  <property name="kdenlive:clip_type">0</property>
  <property name="kdenlive:folderid">14</property>
  <property name="kdenlive:id">817</property>
  <property name="kdenlive:file_size">16084867</property>
  <property name="kdenlive:file_hash">4143cb8591c8b2f4d45606d907a9d26e</property>
  <property name="kdenlive:audio_max1">1</property>
  <property name="mute_on_pause">1</property>
 </chain>
 <chain id="chain427" out="00:19:50.960">
  <property name="length">29775</property>
  <property name="eof">pause</property>
  <property name="resource">b-roll/NO, AI Does NOT Democratize Art (And That's a Dumb Defense) ï½œï½œ SPEEDPAINT + COMMENTARY [lDtAL5IQRMc].webm</property>
  <property name="mlt_service">avformat-novalidate</property>
  <property name="meta.media.nb_streams">2</property>
  <property name="meta.media.0.stream.type">video</property>
  <property name="meta.media.0.stream.frame_rate">30</property>
  <property name="meta.media.0.stream.sample_aspect_ratio">1</property>
  <property name="meta.media.0.codec.width">1920</property>
  <property name="meta.media.0.codec.height">1080</property>
  <property name="meta.media.0.codec.rotate">0</property>
  <property name="meta.media.0.codec.pix_fmt">yuv420p</property>
  <property name="meta.media.0.codec.sample_aspect_ratio">0</property>
  <property name="meta.media.0.codec.colorspace">709</property>
  <property name="meta.media.0.codec.color_trc">1</property>
  <property name="meta.media.0.codec.name">vp9</property>
  <property name="meta.media.0.codec.long_name">Google VP9</property>
  <property name="meta.media.0.codec.bit_rate">0</property>
  <property name="meta.attr.0.stream.HANDLER_NAME.markup">ISO Media file produced by Google Inc. Created on: 12/09/2023.</property>
  <property name="meta.attr.0.stream.VENDOR_ID.markup">[0][0][0][0]</property>
  <property name="meta.attr.0.stream.DURATION.markup">00:19:50.967000000</property>
  <property name="meta.media.1.stream.type">audio</property>
  <property name="meta.media.1.codec.sample_fmt">fltp</property>
  <property name="meta.media.1.codec.sample_rate">48000</property>
  <property name="meta.media.1.codec.channels">2</property>
  <property name="meta.media.1.codec.name">opus</property>
  <property name="meta.media.1.codec.long_name">Opus</property>
  <property name="meta.media.1.codec.bit_rate">0</property>
  <property name="meta.attr.1.stream.language.markup">eng</property>
  <property name="meta.attr.1.stream.DURATION.markup">00:19:51.001000000</property>
  <property name="meta.attr.COMPATIBLE_BRANDS.markup">iso6mp41</property>
  <property name="meta.attr.MAJOR_BRAND.markup">dash</property>
  <property name="meta.attr.MINOR_VERSION.markup">0</property>
  <property name="meta.attr.ENCODER.markup">Lavf59.27.100</property>
  <property name="seekable">1</property>
  <property name="meta.media.sample_aspect_num">1</property>
  <property name="meta.media.sample_aspect_den">1</property>
  <property name="format">3</property>
  <property name="audio_index">-1</property>
  <property name="video_index">0</property>
  <property name="meta.media.frame_rate_num">30</property>
  <property name="meta.media.frame_rate_den">1</property>
  <property name="meta.media.colorspace">709</property>
  <property name="meta.media.color_trc">1</property>
  <property name="meta.media.has_b_frames">0</property>
  <property name="meta.media.width">1920</property>
  <property name="meta.media.height">1080</property>
  <property name="meta.media.color_range">mpeg</property>
  <property name="kdenlive:clipname"/>
  <property name="meta.media.top_field_first">0</property>
  <property name="meta.media.progressive">1</property>
  <property name="kdenlive:clip_type">0</property>
  <property name="kdenlive:folderid">14</property>
  <property name="kdenlive:id">818</property>
  <property name="kdenlive:file_size">159454885</property>
  <property name="kdenlive:file_hash">e92042182c49830a6d655e13b6193bd8</property>
  <property name="kdenlive:audio_max1">205</property>
  <property name="kdenlive:active_streams">-1</property>
  <property name="set.test_audio">1</property>
  <property name="mute_on_pause">1</property>
 </chain>
 <producer id="producer548" in="00:00:00.000" out="00:00:04.960">
  <property name="length">00:00:05.000</property>
  <property name="eof">pause</property>
  <property name="resource">citations/citations-celestia-democratise.png</property>
  <property name="ttl">25</property>
  <property name="aspect_ratio">1</property>
  <property name="progressive">1</property>
  <property name="seekable">1</property>
  <property name="format">2</property>
  <property name="meta.media.width">1920</property>
  <property name="meta.media.height">1080</property>
  <property name="mlt_service">qimage</property>
  <property name="kdenlive:clipname"/>
  <property name="kdenlive:duration">00:00:05:00</property>
  <property name="kdenlive:folderid">234</property>
  <property name="kdenlive:id">819</property>
  <property name="kdenlive:clip_type">2</property>
  <property name="kdenlive:file_size">40417</property>
  <property name="kdenlive:file_hash">3f82ecc74c7691700197de3b6f518030</property>
 </producer>
 <producer id="producer689" in="00:00:00.000" out="00:00:23.640">
  <property name="length">592</property>
  <property name="eof">pause</property>
  <property name="resource">quotes/out/duchess-celestia-c0-q0.png</property>
  <property name="ttl">25</property>
  <property name="aspect_ratio">1</property>
  <property name="progressive">1</property>
  <property name="seekable">1</property>
  <property name="format">2</property>
  <property name="meta.media.width">1920</property>
  <property name="meta.media.height">1080</property>
  <property name="mlt_service">qimage</property>
  <property name="kdenlive:clipname"/>
  <property name="kdenlive:duration">00:00:05:00</property>
  <property name="kdenlive:folderid">345</property>
  <property name="kdenlive:id">820</property>
  <property name="kdenlive:clip_type">2</property>
  <property name="kdenlive:file_size">84114</property>
  <property name="kdenlive:file_hash">7d5542ab7b9820606c15424c8f1828c8</property>
 </producer>
 <producer id="producer686" in="00:00:00.000" out="00:00:23.640">
  <property name="length">592</property>
  <property name="eof">pause</property>
  <property name="resource">quotes/out/duchess-celestia-c0.png</property>
  <property name="ttl">25</property>
  <property name="aspect_ratio">1</property>
  <property name="progressive">1</property>
  <property name="seekable">1</property>
  <property name="format">2</property>
  <property name="meta.media.width">1920</property>
  <property name="meta.media.height">1080</property>
  <property name="mlt_service">qimage</property>
  <property name="kdenlive:clipname"/>
  <property name="kdenlive:duration">00:00:05:00</property>
  <property name="kdenlive:folderid">345</property>
  <property name="kdenlive:id">821</property>
  <property name="kdenlive:clip_type">2</property>
  <property name="kdenlive:file_size">35589</property>
  <property name="kdenlive:file_hash">643a4eb2daf40ff0f51258ef1a91e4fb</property>
 </producer>
 <producer id="producer693" in="00:00:00.000" out="00:00:04.960">
  <property name="length">00:00:05.000</property>
  <property name="eof">pause</property>
  <property name="resource">quotes/out/duchess-celestia-c1-q0.png</property>
  <property name="ttl">25</property>
  <property name="aspect_ratio">1</property>
  <property name="progressive">1</property>
  <property name="seekable">1</property>
  <property name="format">2</property>
  <property name="meta.media.width">1920</property>
  <property name="meta.media.height">1080</property>
  <property name="mlt_service">qimage</property>
  <property name="kdenlive:clipname"/>
  <property name="kdenlive:duration">00:00:05:00</property>
  <property name="kdenlive:folderid">345</property>
  <property name="kdenlive:id">822</property>
  <property name="kdenlive:clip_type">2</property>
  <property name="kdenlive:file_size">55574</property>
  <property name="kdenlive:file_hash">135fb70fe766c439f422c5f8f4353b4c</property>
 </producer>
 <producer id="producer694" in="00:00:00.000" out="00:00:04.960">
  <property name="length">00:00:05.000</property>
  <property name="eof">pause</property>
  <property name="resource">quotes/out/duchess-celestia-c1.png</property>
  <property name="ttl">25</property>
  <property name="aspect_ratio">1</property>
  <property name="progressive">1</property>
  <property name="seekable">1</property>
  <property name="format">2</property>
  <property name="meta.media.width">1920</property>
  <property name="meta.media.height">1080</property>
  <property name="mlt_service">qimage</property>
  <property name="kdenlive:clipname"/>
  <property name="kdenlive:duration">00:00:05:00</property>
  <property name="kdenlive:folderid">345</property>
  <property name="kdenlive:id">823</property>
  <property name="kdenlive:clip_type">2</property>
  <property name="kdenlive:file_size">34786</property>
  <property name="kdenlive:file_hash">35626c0c5798f82ae5db8a43b726ce1b</property>
 </producer>
 <producer id="producer649" in="00:00:00.000" out="00:00:23.640">
  <property name="length">592</property>
  <property name="eof">pause</property>
  <property name="resource">quotes/out/duchess-celestia-card.png</property>
  <property name="ttl">25</property>
  <property name="aspect_ratio">1</property>
  <property name="progressive">1</property>
  <property name="seekable">1</property>
  <property name="format">2</property>
  <property name="meta.media.width">1920</property>
  <property name="meta.media.height">1080</property>
  <property name="mlt_service">qimage</property>
  <property name="kdenlive:clipname"/>
  <property name="kdenlive:duration">00:00:05:00</property>
  <property name="kdenlive:folderid">345</property>
  <property name="kdenlive:id">824</property>
  <property name="kdenlive:clip_type">2</property>
  <property name="kdenlive:file_size">542446</property>
  <property name="kdenlive:file_hash">3e55ed2779117ea785bb82ead1120d6d</property>
 </producer>
 <chain id="chain428" out="00:02:48.920">
  <property name="length">4224</property>
  <property name="eof">pause</property>
  <property name="resource">audio/quotes/ai-art-quote/no ai does not democratise art.00.03.51.mp3</property>
  <property name="mlt_service">avformat</property>
  <property name="meta.media.nb_streams">1</property>
  <property name="meta.media.0.stream.type">audio</property>
  <property name="meta.media.0.codec.sample_fmt">fltp</property>
  <property name="meta.media.0.codec.sample_rate">44100</property>
  <property name="meta.media.0.codec.channels">2</property>
  <property name="meta.media.0.codec.name">mp3float</property>
  <property name="meta.media.0.codec.long_name">MP3 (MPEG audio layer 3)</property>
  <property name="meta.media.0.codec.bit_rate">192000</property>
  <property name="meta.attr.encoded_by.markup">LAME in FL Studio 21</property>
  <property name="meta.attr.date.markup">2023</property>
  <property name="seekable">1</property>
  <property name="audio_index">0</property>
  <property name="video_index">-1</property>
  <property name="kdenlive:clipname"/>
  <property name="kdenlive:clip_type">1</property>
  <property name="kdenlive:folderid">350</property>
  <property name="kdenlive:id">825</property>
  <property name="kdenlive:file_size">4055096</property>
  <property name="kdenlive:file_hash">06dd861a3395587094d6814105439493</property>
  <property name="kdenlive:audio_max0">199</property>
  <property name="mute_on_pause">1</property>
 </chain>
 <producer id="producer549" in="00:00:00.000" out="00:00:27.040">
  <property name="length">677</property>
  <property name="eof">pause</property>
  <property name="progressive">1</property>
  <property name="aspect_ratio">1</property>
  <property name="seekable">1</property>
  <property name="mlt_service">kdenlivetitle</property>
  <property name="kdenlive:duration">00:00:05:00</property>
  <property name="kdenlive:clipname">"obviously m...</property>
  <property name="xmldata">&lt;kdenlivetitle duration="125" LC_NUMERIC="C" width="1920" height="1080" out="124">
 &lt;item type="QGraphicsTextItem" z-index="0">
  &lt;position x="260" y="221">
   &lt;transform>1,0,0,0,1,0,0,0,1&lt;/transform>
  &lt;/position>
  &lt;content line-spacing="0" shadow="0;#64000000;3;3;3" font-underline="0" box-height="637" font-outline-color="0,0,0,255" font="Cubano" letter-spacing="0" font-pixel-size="76" font-italic="0" typewriter="0;2;1;0;0" alignment="4" font-weight="50" font-outline="0" box-width="1400.63" font-color="255,255,255,255">"obviously many agree that it would
be better if all ai art trained on
copyrighted material was deemed
to be copyright infringement
by default, rather than based on
its similarity to existing
copyrighted works."&lt;/content>
 &lt;/item>
 &lt;startviewport rect="0,0,1920,1080"/>
 &lt;endviewport rect="0,0,1920,1080"/>
 &lt;background color="0,0,0,0"/>
&lt;/kdenlivetitle>
</property>
  <property name="kdenlive:folderid">21</property>
  <property name="kdenlive:id">826</property>
  <property name="kdenlive:clip_type">2</property>
  <property name="force_reload">0</property>
  <property name="meta.media.width">1920</property>
  <property name="meta.media.height">1080</property>
  <property name="kdenlive:file_hash">9b1932128d2f5e90f3c4d833019211bb</property>
 </producer>
 <producer id="producer695" in="00:00:00.000" out="00:00:19.680">
  <property name="length">00:00:19.720</property>
  <property name="eof">pause</property>
  <property name="resource">/home/liquidzulu/Pictures/yt/animation/output/project/footnotes/footnote-74/.all.png</property>
  <property name="ttl">1</property>
  <property name="aspect_ratio">1</property>
  <property name="progressive">1</property>
  <property name="seekable">1</property>
  <property name="format">2</property>
  <property name="meta.media.width">1920</property>
  <property name="meta.media.height">1080</property>
  <property name="mlt_service">qimage</property>
  <property name="kdenlive:clipname">footnote-74</property>
  <property name="low-pass">0</property>
  <property name="animation"/>
  <property name="luma_file"/>
  <property name="luma_duration">25</property>
  <property name="fade">0</property>
  <property name="crop">0</property>
  <property name="softness">0</property>
  <property name="loop">0</property>
  <property name="kdenlive:duration">00:00:19:18</property>
  <property name="kdenlive:folderid">273</property>
  <property name="kdenlive:id">827</property>
  <property name="kdenlive:clip_type">2</property>
  <property name="kdenlive:file_hash">450c928877f84729e189c6bbf9679c24</property>
 </producer>
 <producer id="producer620" in="00:00:00.000" out="00:00:04.960">
  <property name="length">00:00:05.000</property>
  <property name="eof">pause</property>
  <property name="resource">images/evidence.jpg</property>
  <property name="ttl">25</property>
  <property name="aspect_ratio">1</property>
  <property name="progressive">1</property>
  <property name="seekable">1</property>
  <property name="format">1</property>
  <property name="meta.media.width">1000</property>
  <property name="meta.media.height">667</property>
  <property name="mlt_service">qimage</property>
  <property name="kdenlive:clipname"/>
  <property name="kdenlive:duration">00:00:05:00</property>
  <property name="kdenlive:folderid">28</property>
  <property name="kdenlive:id">828</property>
  <property name="kdenlive:clip_type">2</property>
  <property name="kdenlive:file_size">136199</property>
  <property name="kdenlive:file_hash">7da3b5ba0a86e35c8464171c633123fb</property>
 </producer>
 <producer id="producer0" in="00:00:00.000" out="02:41:19.440">
  <property name="length">2147483647</property>
  <property name="eof">continue</property>
  <property name="resource">black</property>
  <property name="aspect_ratio">1</property>
  <property name="mlt_service">color</property>
  <property name="kdenlive:playlistid">black_track</property>
  <property name="mlt_image_format">rgba</property>
  <property name="set.test_audio">0</property>
 </producer>
 <chain id="chain0" out="00:01:04.680">
  <property name="length">1618</property>
  <property name="eof">pause</property>
  <property name="resource">/home/liquidzulu/Music/sfx/Cassette Tape Spinning + Tape Hiss Sound - Analog Effects (1 minute) [mVi7eVQRgH4].mp3</property>
  <property name="mlt_service">avformat-novalidate</property>
  <property name="seekable">1</property>
  <property name="audio_index">0</property>
  <property name="video_index">-1</property>
  <property name="kdenlive:clipname"/>
  <property name="kdenlive:clip_type">1</property>
  <property name="kdenlive:folderid">228</property>
  <property name="kdenlive:id">354</property>
  <property name="kdenlive:file_size">528045</property>
  <property name="kdenlive:file_hash">8d059ee10b765f2ce3fb75636759334a</property>
  <property name="kdenlive:audio_max0">104</property>
  <property name="meta.media.nb_streams">1</property>
  <property name="meta.media.0.stream.type">audio</property>
  <property name="meta.media.0.codec.sample_fmt">fltp</property>
  <property name="meta.media.0.codec.sample_rate">48000</property>
  <property name="meta.media.0.codec.channels">2</property>
  <property name="meta.media.0.codec.name">mp3float</property>
  <property name="meta.media.0.codec.long_name">MP3 (MPEG audio layer 3)</property>
  <property name="meta.media.0.codec.bit_rate">65282</property>
  <property name="meta.attr.0.stream.encoder.markup">Lavc59.37</property>
  <property name="meta.attr.encoder.markup">Lavf59.27.100</property>
  <property name="xml">was here</property>
  <property name="set.test_audio">0</property>
  <property name="set.test_image">1</property>
  <property name="mute_on_pause">1</property>
 </chain>
 <chain id="chain2" out="00:07:51.200">
  <property name="length">11781</property>
  <property name="eof">pause</property>
  <property name="resource">/home/liquidzulu/Music/classical/yt1s.com - Kevin Day The Mind Is Like Water.mp3</property>
  <property name="mlt_service">avformat-novalidate</property>
  <property name="seekable">1</property>
  <property name="audio_index">0</property>
  <property name="video_index">-1</property>
  <property name="kdenlive:clipname"/>
  <property name="kdenlive:clip_type">1</property>
  <property name="kdenlive:folderid">-1</property>
  <property name="kdenlive:id">656</property>
  <property name="kdenlive:file_size">7540538</property>
  <property name="kdenlive:file_hash">20d23b5061880fdf4e1e0dab60e78bc5</property>
  <property name="meta.media.nb_streams">1</property>
  <property name="meta.media.0.stream.type">audio</property>
  <property name="meta.media.0.codec.sample_fmt">fltp</property>
  <property name="meta.media.0.codec.sample_rate">44100</property>
  <property name="meta.media.0.codec.channels">2</property>
  <property name="meta.media.0.codec.name">mp3float</property>
  <property name="meta.media.0.codec.long_name">MP3 (MPEG audio layer 3)</property>
  <property name="meta.media.0.codec.bit_rate">128000</property>
  <property name="meta.attr.0.stream.encoder.markup">Lavc58.34</property>
  <property name="meta.attr.major_brand.markup">dash</property>
  <property name="meta.attr.minor_version.markup">0</property>
  <property name="meta.attr.compatible_brands.markup">iso6mp41</property>
  <property name="meta.attr.encoder.markup">Lavf58.19.102</property>
  <property name="xml">was here</property>
  <property name="set.test_audio">0</property>
  <property name="set.test_image">1</property>
  <property name="mute_on_pause">1</property>
 </chain>
 <chain id="chain3" out="00:03:13.080">
  <property name="length">4828</property>
  <property name="eof">pause</property>
  <property name="resource">/home/liquidzulu/Music/OST/Joker/Defeated Clown ï½œ Joker OST [vyiV8KVqajM].mp3</property>
  <property name="mlt_service">avformat-novalidate</property>
  <property name="seekable">1</property>
  <property name="audio_index">0</property>
  <property name="video_index">-1</property>
  <property name="kdenlive:clipname"/>
  <property name="kdenlive:clip_type">1</property>
  <property name="kdenlive:folderid">-1</property>
  <property name="kdenlive:id">795</property>
  <property name="kdenlive:file_size">2789253</property>
  <property name="kdenlive:file_hash">e45f8cc30acc6ce39795245255017b13</property>
  <property name="kdenlive:audio_max0">243</property>
  <property name="meta.media.nb_streams">1</property>
  <property name="meta.media.0.stream.type">audio</property>
  <property name="meta.media.0.codec.sample_fmt">fltp</property>
  <property name="meta.media.0.codec.sample_rate">48000</property>
  <property name="meta.media.0.codec.channels">2</property>
  <property name="meta.media.0.codec.name">mp3float</property>
  <property name="meta.media.0.codec.long_name">MP3 (MPEG audio layer 3)</property>
  <property name="meta.media.0.codec.bit_rate">115553</property>
  <property name="meta.attr.0.stream.encoder.markup">Lavc59.37</property>
  <property name="meta.attr.encoder.markup">Lavf59.27.100</property>
  <property name="xml">was here</property>
  <property name="set.test_audio">0</property>
  <property name="set.test_image">1</property>
  <property name="mute_on_pause">1</property>
 </chain>
 <chain id="chain4" out="00:02:42.040">
  <property name="length">4052</property>
  <property name="eof">pause</property>
  <property name="resource">/home/liquidzulu/Music/OST/Joker/Bathroom Dance ï½œ Joker OST [w4JCC_KLgdM].mp3</property>
  <property name="mlt_service">avformat-novalidate</property>
  <property name="seekable">1</property>
  <property name="audio_index">0</property>
  <property name="video_index">-1</property>
  <property name="mute_on_pause">0</property>
  <property name="kdenlive:clipname"/>
  <property name="kdenlive:clip_type">1</property>
  <property name="kdenlive:folderid">-1</property>
  <property name="kdenlive:id">843</property>
  <property name="kdenlive:file_size">2317677</property>
  <property name="kdenlive:file_hash">10c4dcc52289413276f89aa032d195cf</property>
  <property name="kdenlive:audio_max0">238</property>
  <property name="meta.media.nb_streams">1</property>
  <property name="meta.media.0.stream.type">audio</property>
  <property name="meta.media.0.codec.sample_fmt">fltp</property>
  <property name="meta.media.0.codec.sample_rate">48000</property>
  <property name="meta.media.0.codec.channels">2</property>
  <property name="meta.media.0.codec.name">mp3float</property>
  <property name="meta.media.0.codec.long_name">MP3 (MPEG audio layer 3)</property>
  <property name="meta.media.0.codec.bit_rate">114400</property>
  <property name="meta.attr.0.stream.encoder.markup">Lavc59.37</property>
  <property name="meta.attr.encoder.markup">Lavf59.27.100</property>
  <property name="xml">was here</property>
  <property name="set.test_audio">0</property>
  <property name="set.test_image">1</property>
 </chain>
 <playlist id="playlist0">
  <property name="kdenlive:audio_track">1</property>
  <blank length="00:12:34.240"/>
  <entry producer="chain0" in="00:00:01.160" out="00:00:30.320">
   <property name="kdenlive:id">354</property>
   <filter id="filter0" in="00:00:01.160" out="00:00:02.160">
    <property name="window">75</property>
    <property name="max_gain">20dB</property>
    <property name="mlt_service">volume</property>
    <property name="kdenlive_id">fadein</property>
    <property name="gain">0</property>
    <property name="end">1</property>
    <property name="kdenlive:collapsed">0</property>
   </filter>
   <filter id="filter1">
    <property name="window">75</property>
    <property name="max_gain">20dB</property>
    <property name="level">00:00:01.160=-9</property>
    <property name="mlt_service">volume</property>
    <property name="kdenlive_id">volume</property>
    <property name="kdenlive:collapsed">0</property>
   </filter>
   <filter id="filter2" in="00:00:29.280" out="00:00:30.320">
    <property name="window">75</property>
    <property name="max_gain">20dB</property>
    <property name="mlt_service">volume</property>
    <property name="kdenlive_id">fadeout</property>
    <property name="gain">1</property>
    <property name="end">0</property>
    <property name="kdenlive:collapsed">0</property>
   </filter>
  </entry>
  <blank length="00:06:14.120"/>
  <entry producer="chain0" in="00:00:01.160" out="00:00:40.880">
   <property name="kdenlive:id">354</property>
   <filter id="filter3" in="00:00:01.160" out="00:00:02.160">
    <property name="window">75</property>
    <property name="max_gain">20dB</property>
    <property name="mlt_service">volume</property>
    <property name="kdenlive_id">fadein</property>
    <property name="gain">0</property>
    <property name="end">1</property>
    <property name="kdenlive:collapsed">0</property>
   </filter>
   <filter id="filter4">
    <property name="window">75</property>
    <property name="max_gain">20dB</property>
    <property name="level">00:00:01.160=-9</property>
    <property name="mlt_service">volume</property>
    <property name="kdenlive_id">volume</property>
    <property name="kdenlive:collapsed">0</property>
   </filter>
   <filter id="filter5" in="00:00:39.840" out="00:00:40.880">
    <property name="window">75</property>
    <property name="max_gain">20dB</property>
    <property name="mlt_service">volume</property>
    <property name="kdenlive_id">fadeout</property>
    <property name="gain">1</property>
    <property name="end">0</property>
    <property name="kdenlive:collapsed">0</property>
   </filter>
  </entry>
  <blank length="00:00:40.600"/>
  <entry producer="chain0" in="00:00:01.160" out="00:00:56.080">
   <property name="kdenlive:id">354</property>
   <filter id="filter6" in="00:00:01.160" out="00:00:02.160">
    <property name="window">75</property>
    <property name="max_gain">20dB</property>
    <property name="mlt_service">volume</property>
    <property name="kdenlive_id">fadein</property>
    <property name="gain">0</property>
    <property name="end">1</property>
    <property name="kdenlive:collapsed">0</property>
   </filter>
   <filter id="filter7">
    <property name="window">75</property>
    <property name="max_gain">20dB</property>
    <property name="level">00:00:01.160=-9</property>
    <property name="mlt_service">volume</property>
    <property name="kdenlive_id">volume</property>
    <property name="kdenlive:collapsed">0</property>
   </filter>
   <filter id="filter8" in="00:00:55.040" out="00:00:56.080">
    <property name="window">75</property>
    <property name="max_gain">20dB</property>
    <property name="mlt_service">volume</property>
    <property name="kdenlive_id">fadeout</property>
    <property name="gain">1</property>
    <property name="end">0</property>
    <property name="kdenlive:collapsed">0</property>
   </filter>
  </entry>
  <blank length="00:02:30.760"/>
  <entry producer="chain0" in="00:00:01.160" out="00:01:04.680">
   <property name="kdenlive:id">354</property>
   <filter id="filter9" in="00:00:01.160" out="00:00:02.160">
    <property name="window">75</property>
    <property name="max_gain">20dB</property>
    <property name="mlt_service">volume</property>
    <property name="kdenlive_id">fadein</property>
    <property name="gain">0</property>
    <property name="end">1</property>
    <property name="kdenlive:collapsed">0</property>
   </filter>
   <filter id="filter10">
    <property name="window">75</property>
    <property name="max_gain">20dB</property>
    <property name="level">00:00:01.160=-9</property>
    <property name="mlt_service">volume</property>
    <property name="kdenlive_id">volume</property>
    <property name="kdenlive:collapsed">0</property>
   </filter>
   <filter id="filter11" in="00:01:03.640" out="00:01:04.680">
    <property name="window">75</property>
    <property name="max_gain">20dB</property>
    <property name="mlt_service">volume</property>
    <property name="kdenlive_id">fadeout</property>
    <property name="gain">1</property>
    <property name="end">0</property>
    <property name="kdenlive:collapsed">0</property>
   </filter>
  </entry>
  <blank length="00:24:58.680"/>
  <entry producer="chain2" in="00:00:00.000" out="00:02:47.240">
   <property name="kdenlive:id">656</property>
   <property name="kdenlive:activeeffect">1</property>
   <filter id="filter12" out="00:00:49.920">
    <property name="window">75</property>
    <property name="max_gain">20dB</property>
    <property name="mlt_service">volume</property>
    <property name="kdenlive_id">fadein</property>
    <property name="gain">0</property>
    <property name="end">1</property>
    <property name="kdenlive:collapsed">0</property>
   </filter>
   <filter id="filter13">
    <property name="window">75</property>
    <property name="max_gain">20dB</property>
    <property name="level">00:00:00.000=-21</property>
    <property name="mlt_service">volume</property>
    <property name="kdenlive_id">volume</property>
    <property name="kdenlive:collapsed">0</property>
   </filter>
  </entry>
  <blank length="00:00:18.000"/>
  <entry producer="chain2" in="00:05:05.720" out="00:07:51.200">
   <property name="kdenlive:id">656</property>
   <filter id="filter14">
    <property name="window">75</property>
    <property name="max_gain">20dB</property>
    <property name="level">00:05:05.720=-21</property>
    <property name="mlt_service">volume</property>
    <property name="kdenlive_id">volume</property>
    <property name="kdenlive:collapsed">0</property>
   </filter>
   <filter id="filter15" in="00:05:05.720" out="00:05:26.240">
    <property name="window">75</property>
    <property name="max_gain">20dB</property>
    <property name="mlt_service">volume</property>
    <property name="kdenlive_id">fadein</property>
    <property name="gain">0</property>
    <property name="end">1</property>
    <property name="kdenlive:collapsed">0</property>
   </filter>
  </entry>
  <blank length="00:02:26.640"/>
  <entry producer="chain2" in="00:02:47.280" out="00:03:27.360">
   <property name="kdenlive:id">656</property>
   <filter id="filter16">
    <property name="window">75</property>
    <property name="max_gain">20dB</property>
    <property name="level">00:02:47.280=-21</property>
    <property name="mlt_service">volume</property>
    <property name="kdenlive_id">volume</property>
    <property name="kdenlive:collapsed">0</property>
   </filter>
   <filter id="filter17" in="00:03:09.840" out="00:03:27.360">
    <property name="window">75</property>
    <property name="max_gain">20dB</property>
    <property name="mlt_service">volume</property>
    <property name="kdenlive_id">fadeout</property>
    <property name="gain">1</property>
    <property name="end">0</property>
    <property name="kdenlive:collapsed">0</property>
   </filter>
  </entry>
  <blank length="00:01:38.280"/>
  <entry producer="chain3" in="00:00:00.000" out="00:02:37.920">
   <property name="kdenlive:id">795</property>
   <filter id="filter18">
    <property name="window">75</property>
    <property name="max_gain">20dB</property>
    <property name="level">00:00:00.000=-24</property>
    <property name="mlt_service">volume</property>
    <property name="kdenlive_id">volume</property>
    <property name="kdenlive:collapsed">0</property>
   </filter>
   <filter id="filter19" out="00:00:48.400">
    <property name="window">75</property>
    <property name="max_gain">20dB</property>
    <property name="mlt_service">volume</property>
    <property name="kdenlive_id">fadein</property>
    <property name="gain">0</property>
    <property name="end">1</property>
    <property name="kdenlive:collapsed">0</property>
   </filter>
   <filter id="filter20" in="00:02:23.720" out="00:02:37.920">
    <property name="window">75</property>
    <property name="max_gain">20dB</property>
    <property name="mlt_service">volume</property>
    <property name="kdenlive_id">fadeout</property>
    <property name="gain">1</property>
    <property name="end">0</property>
    <property name="kdenlive:collapsed">0</property>
   </filter>
  </entry>
  <blank length="00:01:14.240"/>
  <entry producer="chain0" in="00:00:01.160" out="00:00:13.880">
   <property name="kdenlive:id">354</property>
   <filter id="filter21" in="00:00:01.160" out="00:00:02.160">
    <property name="window">75</property>
    <property name="max_gain">20dB</property>
    <property name="mlt_service">volume</property>
    <property name="kdenlive_id">fadein</property>
    <property name="gain">0</property>
    <property name="end">1</property>
   </filter>
   <filter id="filter22">
    <property name="window">75</property>
    <property name="max_gain">20dB</property>
    <property name="level">29=-9</property>
    <property name="mlt_service">volume</property>
    <property name="kdenlive_id">volume</property>
   </filter>
   <filter id="filter23" in="00:00:12.840" out="00:00:13.880">
    <property name="window">75</property>
    <property name="max_gain">20dB</property>
    <property name="mlt_service">volume</property>
    <property name="kdenlive_id">fadeout</property>
    <property name="gain">1</property>
    <property name="end">0</property>
   </filter>
  </entry>
  <blank length="00:02:47.480"/>
  <entry producer="chain4" in="00:00:00.000" out="00:02:19.720">
   <property name="kdenlive:id">843</property>
   <filter id="filter24" out="00:00:14.400">
    <property name="window">75</property>
    <property name="max_gain">20dB</property>
    <property name="mlt_service">volume</property>
    <property name="kdenlive_id">fadein</property>
    <property name="gain">0</property>
    <property name="end">1</property>
    <property name="kdenlive:collapsed">0</property>
   </filter>
   <filter id="filter25">
    <property name="window">75</property>
    <property name="max_gain">20dB</property>
    <property name="level">00:00:00.000=-24</property>
    <property name="mlt_service">volume</property>
    <property name="kdenlive_id">volume</property>
    <property name="kdenlive:collapsed">0</property>
   </filter>
   <filter id="filter26" in="00:01:59.080" out="00:02:19.760">
    <property name="window">75</property>
    <property name="max_gain">20dB</property>
    <property name="mlt_service">volume</property>
    <property name="kdenlive_id">fadeout</property>
    <property name="gain">1</property>
    <property name="end">0</property>
   </filter>
  </entry>
 </playlist>
 <playlist id="playlist1">
  <property name="kdenlive:audio_track">1</property>
 </playlist>
 <tractor id="tractor0" in="00:00:00.000" out="01:09:53.880">
  <property name="kdenlive:audio_track">1</property>
  <property name="kdenlive:trackheight">67</property>
  <property name="kdenlive:timeline_active">1</property>
  <property name="kdenlive:collapsed">0</property>
  <property name="kdenlive:thumbs_format"/>
  <property name="kdenlive:audio_rec"/>
  <track hide="video" producer="playlist0"/>
  <track hide="video" producer="playlist1"/>
  <filter id="filter27">
   <property name="window">75</property>
   <property name="max_gain">20dB</property>
   <property name="mlt_service">volume</property>
   <property name="internal_added">237</property>
   <property name="disable">1</property>
  </filter>
  <filter id="filter28">
   <property name="channel">-1</property>
   <property name="mlt_service">panner</property>
   <property name="internal_added">237</property>
   <property name="start">0.5</property>
   <property name="disable">1</property>
  </filter>
  <filter id="filter29">
   <property name="iec_scale">0</property>
   <property name="mlt_service">audiolevel</property>
   <property name="dbpeak">1</property>
   <property name="disable">1</property>
  </filter>
 </tractor>
 <chain id="chain5" out="00:00:00.800">
  <property name="length">21</property>
  <property name="eof">pause</property>
  <property name="resource">/home/liquidzulu/Music/sfx/thud game sound effect.mp3</property>
  <property name="mlt_service">avformat-novalidate</property>
  <property name="seekable">1</property>
  <property name="audio_index">0</property>
  <property name="video_index">-1</property>
  <property name="kdenlive:clipname"/>
  <property name="kdenlive:clip_type">1</property>
  <property name="kdenlive:folderid">-1</property>
  <property name="kdenlive:id">337</property>
  <property name="kdenlive:file_size">6813</property>
  <property name="kdenlive:file_hash">9727d041efdd598c7496671e2edae40d</property>
  <property name="kdenlive:audio_max0">241</property>
  <property name="meta.media.nb_streams">1</property>
  <property name="meta.media.0.stream.type">audio</property>
  <property name="meta.media.0.codec.sample_fmt">fltp</property>
  <property name="meta.media.0.codec.sample_rate">48000</property>
  <property name="meta.media.0.codec.channels">2</property>
  <property name="meta.media.0.codec.name">mp3float</property>
  <property name="meta.media.0.codec.long_name">MP3 (MPEG audio layer 3)</property>
  <property name="meta.media.0.codec.bit_rate">64457</property>
  <property name="meta.attr.0.stream.encoder.markup">Lavc59.37</property>
  <property name="meta.attr.encoder.markup">Lavf59.27.100</property>
  <property name="xml">was here</property>
  <property name="set.test_audio">0</property>
  <property name="set.test_image">1</property>
  <property name="mute_on_pause">1</property>
 </chain>
 <chain id="chain6" out="00:00:20.520">
  <property name="length">514</property>
  <property name="eof">pause</property>
  <property name="resource">animation/output/kitten-elephant/kitten-elephant.mp4</property>
  <property name="mlt_service">avformat-novalidate</property>
  <property name="seekable">1</property>
  <property name="format">3</property>
  <property name="audio_index">1</property>
  <property name="video_index">0</property>
  <property name="kdenlive:clipname"/>
  <property name="kdenlive:clip_type">0</property>
  <property name="kdenlive:folderid">-1</property>
  <property name="kdenlive:id">338</property>
  <property name="kdenlive:file_size">6802766</property>
  <property name="kdenlive:file_hash">b6a769ceca62335787629e81eeb37801</property>
  <property name="kdenlive:audio_max1">238</property>
  <property name="meta.media.nb_streams">2</property>
  <property name="meta.media.0.stream.type">video</property>
  <property name="meta.media.0.stream.frame_rate">25</property>
  <property name="meta.media.0.stream.sample_aspect_ratio">1</property>
  <property name="meta.media.0.codec.width">1920</property>
  <property name="meta.media.0.codec.height">1080</property>
  <property name="meta.media.0.codec.rotate">0</property>
  <property name="meta.media.0.codec.pix_fmt">yuv420p</property>
  <property name="meta.media.0.codec.sample_aspect_ratio">1</property>
  <property name="meta.media.0.codec.colorspace">709</property>
  <property name="meta.media.0.codec.color_trc">1</property>
  <property name="meta.media.0.codec.name">h264</property>
  <property name="meta.media.0.codec.long_name">H.264 / AVC / MPEG-4 AVC / MPEG-4 part 10</property>
  <property name="meta.media.0.codec.bit_rate">2597154</property>
  <property name="meta.attr.0.stream.handler_name.markup">VideoHandler</property>
  <property name="meta.attr.0.stream.vendor_id.markup">[0][0][0][0]</property>
  <property name="meta.media.1.stream.type">audio</property>
  <property name="meta.media.1.codec.sample_fmt">fltp</property>
  <property name="meta.media.1.codec.sample_rate">48000</property>
  <property name="meta.media.1.codec.channels">2</property>
  <property name="meta.media.1.codec.name">aac</property>
  <property name="meta.media.1.codec.long_name">AAC (Advanced Audio Coding)</property>
  <property name="meta.media.1.codec.bit_rate">43131</property>
  <property name="meta.attr.1.stream.handler_name.markup">SoundHandler</property>
  <property name="meta.attr.1.stream.vendor_id.markup">[0][0][0][0]</property>
  <property name="meta.attr.major_brand.markup">isom</property>
  <property name="meta.attr.minor_version.markup">512</property>
  <property name="meta.attr.compatible_brands.markup">isomiso2avc1mp41</property>
  <property name="meta.attr.encoder.markup">Lavf59.27.100</property>
  <property name="meta.media.sample_aspect_num">1</property>
  <property name="meta.media.sample_aspect_den">1</property>
  <property name="meta.media.frame_rate_num">25</property>
  <property name="meta.media.frame_rate_den">1</property>
  <property name="meta.media.colorspace">709</property>
  <property name="meta.media.color_trc">1</property>
  <property name="meta.media.has_b_frames">2</property>
  <property name="meta.media.width">1920</property>
  <property name="meta.media.height">1080</property>
  <property name="meta.media.color_range">mpeg</property>
  <property name="xml">was here</property>
  <property name="meta.media.top_field_first">0</property>
  <property name="meta.media.progressive">1</property>
  <property name="set.test_audio">0</property>
  <property name="set.test_image">1</property>
  <property name="mute_on_pause">1</property>
 </chain>
 <chain id="chain7" out="00:01:04.680">
  <property name="length">1618</property>
  <property name="eof">pause</property>
  <property name="resource">/home/liquidzulu/Music/sfx/Cassette Tape Spinning + Tape Hiss Sound - Analog Effects (1 minute) [mVi7eVQRgH4].mp3</property>
  <property name="mlt_service">avformat-novalidate</property>
  <property name="seekable">1</property>
  <property name="audio_index">0</property>
  <property name="video_index">-1</property>
  <property name="kdenlive:clipname"/>
  <property name="kdenlive:clip_type">1</property>
  <property name="kdenlive:folderid">-1</property>
  <property name="kdenlive:id">354</property>
  <property name="kdenlive:file_size">528045</property>
  <property name="kdenlive:file_hash">8d059ee10b765f2ce3fb75636759334a</property>
  <property name="kdenlive:audio_max0">104</property>
  <property name="meta.media.nb_streams">1</property>
  <property name="meta.media.0.stream.type">audio</property>
  <property name="meta.media.0.codec.sample_fmt">fltp</property>
  <property name="meta.media.0.codec.sample_rate">48000</property>
  <property name="meta.media.0.codec.channels">2</property>
  <property name="meta.media.0.codec.name">mp3float</property>
  <property name="meta.media.0.codec.long_name">MP3 (MPEG audio layer 3)</property>
  <property name="meta.media.0.codec.bit_rate">65282</property>
  <property name="meta.attr.0.stream.encoder.markup">Lavc59.37</property>
  <property name="meta.attr.encoder.markup">Lavf59.27.100</property>
  <property name="xml">was here</property>
  <property name="set.test_audio">0</property>
  <property name="set.test_image">1</property>
  <property name="mute_on_pause">1</property>
 </chain>
 <chain id="chain8" out="00:00:08.160">
  <property name="length">205</property>
  <property name="eof">pause</property>
  <property name="resource">/home/liquidzulu/Music/sfx/Cassette Tape - Sound Effect [VRwxgYzRTBI].mp3</property>
  <property name="mlt_service">avformat-novalidate</property>
  <property name="seekable">1</property>
  <property name="audio_index">0</property>
  <property name="video_index">-1</property>
  <property name="kdenlive:clipname"/>
  <property name="kdenlive:clip_type">1</property>
  <property name="kdenlive:folderid">228</property>
  <property name="kdenlive:id">352</property>
  <property name="kdenlive:file_size">83181</property>
  <property name="kdenlive:file_hash">609ccfd5921db7e187374ea8a50424ba</property>
  <property name="kdenlive:audio_max0">171</property>
  <property name="meta.media.nb_streams">1</property>
  <property name="meta.media.0.stream.type">audio</property>
  <property name="meta.media.0.codec.sample_fmt">fltp</property>
  <property name="meta.media.0.codec.sample_rate">48000</property>
  <property name="meta.media.0.codec.channels">2</property>
  <property name="meta.media.0.codec.name">mp3float</property>
  <property name="meta.media.0.codec.long_name">MP3 (MPEG audio layer 3)</property>
  <property name="meta.media.0.codec.bit_rate">81267</property>
  <property name="meta.attr.0.stream.encoder.markup">Lavc59.37</property>
  <property name="meta.attr.encoder.markup">Lavf59.27.100</property>
  <property name="xml">was here</property>
  <property name="set.test_audio">0</property>
  <property name="set.test_image">1</property>
  <property name="mute_on_pause">1</property>
 </chain>
 <chain id="chain9" out="00:02:10.720">
  <property name="length">3269</property>
  <property name="eof">pause</property>
  <property name="resource">/home/liquidzulu/Music/popular-front/4. EVIL MINDED [1459216483].mp3</property>
  <property name="mlt_service">avformat-novalidate</property>
  <property name="seekable">1</property>
  <property name="audio_index">0</property>
  <property name="video_index">-1</property>
  <property name="kdenlive:clipname"/>
  <property name="kdenlive:clip_type">1</property>
  <property name="kdenlive:folderid">-1</property>
  <property name="kdenlive:id">461</property>
  <property name="kdenlive:file_size">2092302</property>
  <property name="kdenlive:file_hash">3c5eef0727a685455ce1e1d2ef5cc6c0</property>
  <property name="kdenlive:audio_max0">244</property>
  <property name="meta.media.nb_streams">1</property>
  <property name="meta.media.0.stream.type">audio</property>
  <property name="meta.media.0.codec.sample_fmt">fltp</property>
  <property name="meta.media.0.codec.sample_rate">44100</property>
  <property name="meta.media.0.codec.channels">2</property>
  <property name="meta.media.0.codec.name">mp3float</property>
  <property name="meta.media.0.codec.long_name">MP3 (MPEG audio layer 3)</property>
  <property name="meta.media.0.codec.bit_rate">128000</property>
  <property name="meta.attr.0.stream.encoder.markup">LAME3.100</property>
  <property name="xml">was here</property>
  <property name="set.test_audio">0</property>
  <property name="set.test_image">1</property>
  <property name="mute_on_pause">1</property>
 </chain>
 <chain id="chain10" out="00:02:09.480">
  <property name="length">3238</property>
  <property name="eof">pause</property>
  <property name="resource">/home/liquidzulu/Music/lemmino/Aloft [885935926].flac</property>
  <property name="mlt_service">avformat-novalidate</property>
  <property name="seekable">1</property>
  <property name="audio_index">0</property>
  <property name="video_index">-1</property>
  <property name="kdenlive:clipname"/>
  <property name="kdenlive:clip_type">1</property>
  <property name="kdenlive:folderid">-1</property>
  <property name="kdenlive:id">463</property>
  <property name="kdenlive:file_size">5287114</property>
  <property name="kdenlive:file_hash">33cbcb96995039d5eaef9cdb49342a81</property>
  <property name="kdenlive:audio_max0">216</property>
  <property name="meta.media.nb_streams">1</property>
  <property name="meta.media.0.stream.type">audio</property>
  <property name="meta.media.0.codec.sample_fmt">s16</property>
  <property name="meta.media.0.codec.sample_rate">48000</property>
  <property name="meta.media.0.codec.channels">2</property>
  <property name="meta.media.0.codec.name">flac</property>
  <property name="meta.media.0.codec.long_name">FLAC (Free Lossless Audio Codec)</property>
  <property name="meta.media.0.codec.bit_rate">0</property>
  <property name="xml">was here</property>
  <property name="set.test_audio">0</property>
  <property name="set.test_image">1</property>
  <property name="mute_on_pause">1</property>
 </chain>
 <chain id="chain21" out="00:07:51.200">
  <property name="length">11781</property>
  <property name="eof">pause</property>
  <property name="resource">/home/liquidzulu/Music/classical/yt1s.com - Kevin Day The Mind Is Like Water.mp3</property>
  <property name="mlt_service">avformat-novalidate</property>
  <property name="seekable">1</property>
  <property name="audio_index">0</property>
  <property name="video_index">-1</property>
  <property name="kdenlive:clipname"/>
  <property name="kdenlive:clip_type">1</property>
  <property name="kdenlive:folderid">5</property>
  <property name="kdenlive:id">656</property>
  <property name="kdenlive:file_size">7540538</property>
  <property name="kdenlive:file_hash">20d23b5061880fdf4e1e0dab60e78bc5</property>
  <property name="kdenlive:audio_max0">193</property>
  <property name="meta.media.nb_streams">1</property>
  <property name="meta.media.0.stream.type">audio</property>
  <property name="meta.media.0.codec.sample_fmt">fltp</property>
  <property name="meta.media.0.codec.sample_rate">44100</property>
  <property name="meta.media.0.codec.channels">2</property>
  <property name="meta.media.0.codec.name">mp3float</property>
  <property name="meta.media.0.codec.long_name">MP3 (MPEG audio layer 3)</property>
  <property name="meta.media.0.codec.bit_rate">128000</property>
  <property name="meta.attr.0.stream.encoder.markup">Lavc58.34</property>
  <property name="meta.attr.major_brand.markup">dash</property>
  <property name="meta.attr.minor_version.markup">0</property>
  <property name="meta.attr.compatible_brands.markup">iso6mp41</property>
  <property name="meta.attr.encoder.markup">Lavf58.19.102</property>
  <property name="xml">was here</property>
  <property name="set.test_audio">0</property>
  <property name="set.test_image">1</property>
  <property name="mute_on_pause">1</property>
 </chain>
 <chain id="chain22" out="00:05:23.080">
  <property name="length">8078</property>
  <property name="eof">pause</property>
  <property name="resource">/home/liquidzulu/Music/OST/Joker/Call Me Joker ï½œ Joker OST [Uy-HZM24pow].mp3</property>
  <property name="mlt_service">avformat-novalidate</property>
  <property name="seekable">1</property>
  <property name="audio_index">0</property>
  <property name="video_index">-1</property>
  <property name="kdenlive:clipname"/>
  <property name="kdenlive:clip_type">1</property>
  <property name="kdenlive:folderid">-1</property>
  <property name="kdenlive:id">796</property>
  <property name="kdenlive:file_size">5007669</property>
  <property name="kdenlive:file_hash">0abc671b6df2594e3fbe21df017665ca</property>
  <property name="kdenlive:audio_max0">246</property>
  <property name="meta.media.nb_streams">1</property>
  <property name="meta.media.0.stream.type">audio</property>
  <property name="meta.media.0.codec.sample_fmt">fltp</property>
  <property name="meta.media.0.codec.sample_rate">48000</property>
  <property name="meta.media.0.codec.channels">2</property>
  <property name="meta.media.0.codec.name">mp3float</property>
  <property name="meta.media.0.codec.long_name">MP3 (MPEG audio layer 3)</property>
  <property name="meta.media.0.codec.bit_rate">123985</property>
  <property name="meta.attr.0.stream.encoder.markup">Lavc59.37</property>
  <property name="meta.attr.encoder.markup">Lavf59.27.100</property>
  <property name="xml">was here</property>
  <property name="set.test_audio">0</property>
  <property name="set.test_image">1</property>
  <property name="mute_on_pause">1</property>
 </chain>
 <chain id="chain23" out="00:04:00.400">
  <property name="length">6011</property>
  <property name="eof">pause</property>
  <property name="resource">/home/liquidzulu/Music/classical/Boris Godunovï¼š O, tsaryevich, umolyayu (Arr. H. Kindler for Orchestra) [EiDxFpdqxHc].mp3</property>
  <property name="mlt_service">avformat-novalidate</property>
  <property name="seekable">1</property>
  <property name="audio_index">0</property>
  <property name="video_index">-1</property>
  <property name="kdenlive:clipname"/>
  <property name="kdenlive:clip_type">1</property>
  <property name="kdenlive:folderid">5</property>
  <property name="kdenlive:id">770</property>
  <property name="kdenlive:file_size">1818693</property>
  <property name="kdenlive:file_hash">f1f47c4893c17c44c97e7f28c8fb8d29</property>
  <property name="kdenlive:audio_max0">226</property>
  <property name="mute_on_pause">0</property>
  <property name="meta.media.nb_streams">1</property>
  <property name="meta.media.0.stream.type">audio</property>
  <property name="meta.media.0.codec.sample_fmt">fltp</property>
  <property name="meta.media.0.codec.sample_rate">48000</property>
  <property name="meta.media.0.codec.channels">2</property>
  <property name="meta.media.0.codec.name">mp3float</property>
  <property name="meta.media.0.codec.long_name">MP3 (MPEG audio layer 3)</property>
  <property name="meta.media.0.codec.bit_rate">60513</property>
  <property name="meta.attr.0.stream.encoder.markup">Lavc59.37</property>
  <property name="meta.attr.encoder.markup">Lavf59.27.100</property>
  <property name="xml">was here</property>
  <property name="set.test_audio">0</property>
  <property name="set.test_image">1</property>
 </chain>
 <playlist id="playlist2">
  <property name="kdenlive:audio_track">1</property>
  <blank length="00:06:51.280"/>
  <entry producer="chain5" in="00:00:00.000" out="00:00:00.800">
   <property name="kdenlive:id">337</property>
   <filter id="filter30">
    <property name="window">75</property>
    <property name="max_gain">20dB</property>
    <property name="level">00:00:00.000=-18</property>
    <property name="mlt_service">volume</property>
    <property name="kdenlive_id">volume</property>
    <property name="kdenlive:collapsed">0</property>
   </filter>
  </entry>
  <blank length="00:00:10.040"/>
  <entry producer="chain6" in="00:00:00.000" out="00:00:19.840">
   <property name="kdenlive:id">338</property>
   <filter id="filter31">
    <property name="window">75</property>
    <property name="max_gain">20dB</property>
    <property name="level">00:00:00.000=-16</property>
    <property name="mlt_service">volume</property>
    <property name="kdenlive_id">volume</property>
    <property name="kdenlive:collapsed">0</property>
   </filter>
  </entry>
  <blank length="00:01:05.840"/>
  <entry producer="chain7" in="00:00:01.160" out="00:00:30.320">
   <property name="kdenlive:id">354</property>
   <property name="kdenlive:activeeffect">1</property>
   <filter id="filter32" in="00:00:01.160" out="00:00:02.160">
    <property name="window">75</property>
    <property name="max_gain">20dB</property>
    <property name="mlt_service">volume</property>
    <property name="kdenlive_id">fadein</property>
    <property name="gain">0</property>
    <property name="end">1</property>
    <property name="kdenlive:collapsed">0</property>
   </filter>
   <filter id="filter33">
    <property name="window">75</property>
    <property name="max_gain">20dB</property>
    <property name="level">00:00:01.160=-9</property>
    <property name="mlt_service">volume</property>
    <property name="kdenlive_id">volume</property>
    <property name="kdenlive:collapsed">0</property>
   </filter>
   <filter id="filter34" in="00:00:29.280" out="00:00:30.320">
    <property name="window">75</property>
    <property name="max_gain">20dB</property>
    <property name="mlt_service">volume</property>
    <property name="kdenlive_id">fadeout</property>
    <property name="gain">1</property>
    <property name="end">0</property>
    <property name="kdenlive:collapsed">0</property>
   </filter>
  </entry>
  <blank length="00:03:37.160"/>
  <entry producer="chain8" in="00:00:03.080" out="00:00:04.360">
   <property name="kdenlive:id">352</property>
   <filter id="filter35">
    <property name="window">75</property>
    <property name="max_gain">20dB</property>
    <property name="level">00:00:03.080=-5</property>
    <property name="mlt_service">volume</property>
    <property name="kdenlive_id">volume</property>
    <property name="kdenlive:collapsed">0</property>
   </filter>
  </entry>
  <blank length="00:02:47.360"/>
  <entry producer="chain7" in="00:00:01.160" out="00:00:30.320">
   <property name="kdenlive:id">354</property>
   <filter id="filter36" in="00:00:01.160" out="00:00:02.160">
    <property name="window">75</property>
    <property name="max_gain">20dB</property>
    <property name="mlt_service">volume</property>
    <property name="kdenlive_id">fadein</property>
    <property name="gain">0</property>
    <property name="end">1</property>
    <property name="kdenlive:collapsed">0</property>
   </filter>
   <filter id="filter37">
    <property name="window">75</property>
    <property name="max_gain">20dB</property>
    <property name="level">00:00:01.160=-9</property>
    <property name="mlt_service">volume</property>
    <property name="kdenlive_id">volume</property>
    <property name="kdenlive:collapsed">0</property>
   </filter>
   <filter id="filter38" in="00:00:29.280" out="00:00:30.320">
    <property name="window">75</property>
    <property name="max_gain">20dB</property>
    <property name="mlt_service">volume</property>
    <property name="kdenlive_id">fadeout</property>
    <property name="gain">1</property>
    <property name="end">0</property>
    <property name="kdenlive:collapsed">0</property>
   </filter>
  </entry>
  <blank length="00:02:03.080"/>
  <entry producer="chain9" in="00:00:00.000" out="00:01:22.320">
   <property name="kdenlive:id">461</property>
   <property name="kdenlive:activeeffect">1</property>
   <filter id="filter39" out="00:00:03.880">
    <property name="window">75</property>
    <property name="max_gain">20dB</property>
    <property name="mlt_service">volume</property>
    <property name="kdenlive_id">fadein</property>
    <property name="gain">0</property>
    <property name="end">1</property>
    <property name="kdenlive:collapsed">0</property>
   </filter>
   <filter id="filter40">
    <property name="window">75</property>
    <property name="max_gain">20dB</property>
    <property name="level">00:00:00.000=-25</property>
    <property name="mlt_service">volume</property>
    <property name="kdenlive_id">volume</property>
    <property name="kdenlive:collapsed">0</property>
   </filter>
   <filter id="filter41" in="00:01:20.960" out="00:01:22.320">
    <property name="window">75</property>
    <property name="max_gain">20dB</property>
    <property name="mlt_service">volume</property>
    <property name="kdenlive_id">fadeout</property>
    <property name="gain">1</property>
    <property name="end">0</property>
    <property name="kdenlive:collapsed">0</property>
   </filter>
  </entry>
  <entry producer="chain8" in="00:00:03.080" out="00:00:04.360">
   <property name="kdenlive:id">352</property>
   <filter id="filter42">
    <property name="window">75</property>
    <property name="max_gain">20dB</property>
    <property name="level">00:00:03.080=-5</property>
    <property name="mlt_service">volume</property>
    <property name="kdenlive_id">volume</property>
    <property name="kdenlive:collapsed">0</property>
   </filter>
  </entry>
  <blank length="00:01:19.040"/>
  <entry producer="chain8" in="00:00:03.080" out="00:00:04.360">
   <property name="kdenlive:id">352</property>
   <filter id="filter43">
    <property name="window">75</property>
    <property name="max_gain">20dB</property>
    <property name="level">00:00:03.080=-5</property>
    <property name="mlt_service">volume</property>
    <property name="kdenlive_id">volume</property>
   </filter>
  </entry>
  <blank length="00:01:25.360"/>
  <entry producer="chain10" in="00:00:00.000" out="00:01:47.600">
   <property name="kdenlive:id">463</property>
   <property name="kdenlive:activeeffect">1</property>
   <filter id="filter44" out="00:00:13.160">
    <property name="window">75</property>
    <property name="max_gain">20dB</property>
    <property name="mlt_service">volume</property>
    <property name="kdenlive_id">fadein</property>
    <property name="gain">0</property>
    <property name="end">1</property>
    <property name="kdenlive:collapsed">0</property>
   </filter>
   <filter id="filter45">
    <property name="window">75</property>
    <property name="max_gain">20dB</property>
    <property name="level">00:00:00.000=-25</property>
    <property name="mlt_service">volume</property>
    <property name="kdenlive_id">volume</property>
    <property name="kdenlive:collapsed">0</property>
   </filter>
   <filter id="filter46" in="00:01:41.200" out="00:01:47.600">
    <property name="window">75</property>
    <property name="max_gain">20dB</property>
    <property name="mlt_service">volume</property>
    <property name="kdenlive_id">fadeout</property>
    <property name="gain">1</property>
    <property name="end">0</property>
    <property name="kdenlive:collapsed">0</property>
   </filter>
  </entry>
  <blank length="00:00:11.400"/>
  <entry producer="chain8" in="00:00:03.080" out="00:00:04.360">
   <property name="kdenlive:id">352</property>
   <filter id="filter47">
    <property name="window">75</property>
    <property name="max_gain">20dB</property>
    <property name="level">00:00:03.080=-5</property>
    <property name="mlt_service">volume</property>
    <property name="kdenlive_id">volume</property>
    <property name="kdenlive:collapsed">0</property>
   </filter>
  </entry>
  <blank length="00:24:51.560"/>
  <entry producer="chain7" in="00:00:01.160" out="00:00:36.640">
   <property name="kdenlive:id">354</property>
   <filter id="filter48" in="00:00:01.160" out="00:00:02.160">
    <property name="window">75</property>
    <property name="max_gain">20dB</property>
    <property name="mlt_service">volume</property>
    <property name="kdenlive_id">fadein</property>
    <property name="gain">0</property>
    <property name="end">1</property>
    <property name="kdenlive:collapsed">0</property>
   </filter>
   <filter id="filter49">
    <property name="window">75</property>
    <property name="max_gain">20dB</property>
    <property name="level">00:00:01.160=-9</property>
    <property name="mlt_service">volume</property>
    <property name="kdenlive_id">volume</property>
    <property name="kdenlive:collapsed">0</property>
   </filter>
   <filter id="filter50" in="00:00:35.600" out="00:00:36.640">
    <property name="window">75</property>
    <property name="max_gain">20dB</property>
    <property name="mlt_service">volume</property>
    <property name="kdenlive_id">fadeout</property>
    <property name="gain">1</property>
    <property name="end">0</property>
    <property name="kdenlive:collapsed">0</property>
   </filter>
  </entry>
  <blank length="00:00:01.400"/>
  <entry producer="chain7" in="00:00:01.160" out="00:00:39.240">
   <property name="kdenlive:id">354</property>
   <filter id="filter51" in="00:00:01.160" out="00:00:02.160">
    <property name="window">75</property>
    <property name="max_gain">20dB</property>
    <property name="mlt_service">volume</property>
    <property name="kdenlive_id">fadein</property>
    <property name="gain">0</property>
    <property name="end">1</property>
    <property name="kdenlive:collapsed">0</property>
   </filter>
   <filter id="filter52">
    <property name="window">75</property>
    <property name="max_gain">20dB</property>
    <property name="level">00:00:01.160=-9</property>
    <property name="mlt_service">volume</property>
    <property name="kdenlive_id">volume</property>
    <property name="kdenlive:collapsed">0</property>
   </filter>
   <filter id="filter53" in="00:00:38.200" out="00:00:39.240">
    <property name="window">75</property>
    <property name="max_gain">20dB</property>
    <property name="mlt_service">volume</property>
    <property name="kdenlive_id">fadeout</property>
    <property name="gain">1</property>
    <property name="end">0</property>
    <property name="kdenlive:collapsed">0</property>
   </filter>
  </entry>
  <blank length="00:00:06.800"/>
  <entry producer="chain7" in="00:00:01.160" out="00:00:44.880">
   <property name="kdenlive:id">354</property>
   <filter id="filter54" in="00:00:01.160" out="00:00:02.160">
    <property name="window">75</property>
    <property name="max_gain">20dB</property>
    <property name="mlt_service">volume</property>
    <property name="kdenlive_id">fadein</property>
    <property name="gain">0</property>
    <property name="end">1</property>
   </filter>
   <filter id="filter55">
    <property name="window">75</property>
    <property name="max_gain">20dB</property>
    <property name="level">00:00:01.160=-9</property>
    <property name="mlt_service">volume</property>
    <property name="kdenlive_id">volume</property>
   </filter>
   <filter id="filter56" in="00:00:43.840" out="00:00:44.880">
    <property name="window">75</property>
    <property name="max_gain">20dB</property>
    <property name="mlt_service">volume</property>
    <property name="kdenlive_id">fadeout</property>
    <property name="gain">1</property>
    <property name="end">0</property>
   </filter>
  </entry>
  <blank length="00:01:46.880"/>
  <entry producer="chain21" in="00:02:47.280" out="00:03:27.360">
   <property name="kdenlive:id">656</property>
   <filter id="filter57">
    <property name="window">75</property>
    <property name="max_gain">20dB</property>
    <property name="level">00:02:47.280=-21</property>
    <property name="mlt_service">volume</property>
    <property name="kdenlive_id">volume</property>
    <property name="kdenlive:collapsed">0</property>
   </filter>
   <filter id="filter58" in="00:03:09.840" out="00:03:27.360">
    <property name="window">75</property>
    <property name="max_gain">20dB</property>
    <property name="mlt_service">volume</property>
    <property name="kdenlive_id">fadeout</property>
    <property name="gain">1</property>
    <property name="end">0</property>
   </filter>
  </entry>
  <blank length="00:02:11.040"/>
  <entry producer="chain21" in="00:00:00.000" out="00:02:47.240">
   <property name="kdenlive:id">656</property>
   <filter id="filter59" out="00:00:09.080">
    <property name="window">75</property>
    <property name="max_gain">20dB</property>
    <property name="mlt_service">volume</property>
    <property name="kdenlive_id">fadein</property>
    <property name="gain">0</property>
    <property name="end">1</property>
    <property name="kdenlive:collapsed">0</property>
   </filter>
   <filter id="filter60">
    <property name="window">75</property>
    <property name="max_gain">20dB</property>
    <property name="level">00:00:00.000=-21</property>
    <property name="mlt_service">volume</property>
    <property name="kdenlive_id">volume</property>
    <property name="kdenlive:collapsed">0</property>
   </filter>
  </entry>
  <blank length="00:00:18.000"/>
  <entry producer="chain21" in="00:05:05.720" out="00:07:51.200">
   <property name="kdenlive:id">656</property>
   <filter id="filter61">
    <property name="window">75</property>
    <property name="max_gain">20dB</property>
    <property name="level">00:05:05.720=-21</property>
    <property name="mlt_service">volume</property>
    <property name="kdenlive_id">volume</property>
    <property name="kdenlive:collapsed">0</property>
   </filter>
   <filter id="filter62" in="00:05:05.720" out="00:05:26.240">
    <property name="window">75</property>
    <property name="max_gain">20dB</property>
    <property name="mlt_service">volume</property>
    <property name="kdenlive_id">fadein</property>
    <property name="gain">0</property>
    <property name="end">1</property>
    <property name="kdenlive:collapsed">0</property>
   </filter>
   <filter id="filter63" in="00:07:01.040" out="00:07:51.200">
    <property name="window">75</property>
    <property name="max_gain">20dB</property>
    <property name="mlt_service">volume</property>
    <property name="kdenlive_id">fadeout</property>
    <property name="gain">1</property>
    <property name="end">0</property>
    <property name="kdenlive:collapsed">0</property>
   </filter>
  </entry>
  <blank length="00:01:32.880"/>
  <entry producer="chain22" in="00:00:00.000" out="00:04:44.800">
   <property name="kdenlive:id">796</property>
   <property name="kdenlive:activeeffect">1</property>
   <filter id="filter64" out="00:00:17.440">
    <property name="window">75</property>
    <property name="max_gain">20dB</property>
    <property name="mlt_service">volume</property>
    <property name="kdenlive_id">fadein</property>
    <property name="gain">0</property>
    <property name="end">1</property>
    <property name="kdenlive:collapsed">0</property>
   </filter>
   <filter id="filter65">
    <property name="window">75</property>
    <property name="max_gain">20dB</property>
    <property name="level">00:00:00.000=-24;00:03:36.200=-24;00:03:36.960=-32</property>
    <property name="mlt_service">volume</property>
    <property name="kdenlive_id">volume</property>
    <property name="kdenlive:collapsed">0</property>
   </filter>
  </entry>
  <blank length="00:00:58.800"/>
  <entry producer="chain7" in="00:00:01.160" out="00:00:25.520">
   <property name="kdenlive:id">354</property>
   <filter id="filter66" in="00:00:01.160" out="00:00:02.160">
    <property name="window">75</property>
    <property name="max_gain">20dB</property>
    <property name="mlt_service">volume</property>
    <property name="kdenlive_id">fadein</property>
    <property name="gain">0</property>
    <property name="end">1</property>
    <property name="kdenlive:collapsed">0</property>
   </filter>
   <filter id="filter67">
    <property name="window">75</property>
    <property name="max_gain">20dB</property>
    <property name="level">00:00:01.160=-9</property>
    <property name="mlt_service">volume</property>
    <property name="kdenlive_id">volume</property>
    <property name="kdenlive:collapsed">0</property>
   </filter>
   <filter id="filter68" in="00:00:24.520" out="00:00:25.560">
    <property name="window">75</property>
    <property name="max_gain">20dB</property>
    <property name="mlt_service">volume</property>
    <property name="kdenlive_id">fadeout</property>
    <property name="gain">1</property>
    <property name="end">0</property>
    <property name="kdenlive:collapsed">0</property>
   </filter>
  </entry>
  <blank length="00:00:19.720"/>
  <entry producer="chain23" in="00:00:50.640" out="00:02:55.880">
   <property name="kdenlive:id">770</property>
   <filter id="filter69">
    <property name="window">75</property>
    <property name="max_gain">20dB</property>
    <property name="level">00:00:50.640=-24</property>
    <property name="mlt_service">volume</property>
    <property name="kdenlive_id">volume</property>
    <property name="kdenlive:collapsed">0</property>
   </filter>
   <filter id="filter70" in="00:00:50.640" out="00:01:09.920">
    <property name="window">75</property>
    <property name="max_gain">20dB</property>
    <property name="mlt_service">volume</property>
    <property name="kdenlive_id">fadein</property>
    <property name="gain">0</property>
    <property name="end">1</property>
    <property name="kdenlive:collapsed">0</property>
   </filter>
   <filter id="filter71" in="00:02:36.720" out="00:02:55.920">
    <property name="window">75</property>
    <property name="max_gain">20dB</property>
    <property name="mlt_service">volume</property>
    <property name="kdenlive_id">fadeout</property>
    <property name="gain">1</property>
    <property name="end">0</property>
   </filter>
  </entry>
 </playlist>
 <playlist id="playlist3">
  <property name="kdenlive:audio_track">1</property>
 </playlist>
 <tractor id="tractor1" in="00:00:00.000" out="01:11:36.840">
  <property name="kdenlive:audio_track">1</property>
  <property name="kdenlive:trackheight">67</property>
  <property name="kdenlive:timeline_active">1</property>
  <property name="kdenlive:collapsed">0</property>
  <property name="kdenlive:thumbs_format"/>
  <property name="kdenlive:audio_rec"/>
  <track hide="video" producer="playlist2"/>
  <track hide="video" producer="playlist3"/>
  <filter id="filter72">
   <property name="window">75</property>
   <property name="max_gain">20dB</property>
   <property name="mlt_service">volume</property>
   <property name="internal_added">237</property>
   <property name="disable">1</property>
  </filter>
  <filter id="filter73">
   <property name="channel">-1</property>
   <property name="mlt_service">panner</property>
   <property name="internal_added">237</property>
   <property name="start">0.5</property>
   <property name="disable">1</property>
  </filter>
  <filter id="filter74">
   <property name="iec_scale">0</property>
   <property name="mlt_service">audiolevel</property>
   <property name="dbpeak">1</property>
   <property name="disable">1</property>
  </filter>
 </tractor>
 <chain id="chain24" out="00:30:00.000">
  <property name="length">45001</property>
  <property name="eof">pause</property>
  <property name="resource">/home/liquidzulu/Music/Castle Theme - Super Mario World Music Extended [FPurNn9rQoA].mp3</property>
  <property name="mlt_service">avformat-novalidate</property>
  <property name="seekable">1</property>
  <property name="audio_index">0</property>
  <property name="video_index">-1</property>
  <property name="kdenlive:clipname"/>
  <property name="kdenlive:clip_type">1</property>
  <property name="kdenlive:folderid">5</property>
  <property name="kdenlive:id">4</property>
  <property name="kdenlive:file_size">31748061</property>
  <property name="kdenlive:file_hash">65fb7a5a491ef8ed7960ffb71409dbca</property>
  <property name="kdenlive:audio_max0">247</property>
  <property name="meta.media.nb_streams">1</property>
  <property name="meta.media.0.stream.type">audio</property>
  <property name="meta.media.0.codec.sample_fmt">fltp</property>
  <property name="meta.media.0.codec.sample_rate">48000</property>
  <property name="meta.media.0.codec.channels">2</property>
  <property name="meta.media.0.codec.name">mp3float</property>
  <property name="meta.media.0.codec.long_name">MP3 (MPEG audio layer 3)</property>
  <property name="meta.media.0.codec.bit_rate">141099</property>
  <property name="meta.attr.0.stream.encoder.markup">Lavc59.37</property>
  <property name="meta.attr.encoder.markup">Lavf59.27.100</property>
  <property name="xml">was here</property>
  <property name="set.test_audio">0</property>
  <property name="set.test_image">1</property>
  <property name="mute_on_pause">1</property>
 </chain>
 <chain id="chain27" out="00:02:14.920">
  <property name="length">3374</property>
  <property name="eof">pause</property>
  <property name="resource">/home/liquidzulu/Music/Richard Carter - Le Monde [Ne4od9aIs-I].mp3</property>
  <property name="mlt_service">avformat-novalidate</property>
  <property name="seekable">1</property>
  <property name="audio_index">0</property>
  <property name="video_index">-1</property>
  <property name="kdenlive:clipname"/>
  <property name="kdenlive:clip_type">1</property>
  <property name="kdenlive:folderid">5</property>
  <property name="kdenlive:id">229</property>
  <property name="kdenlive:file_size">2041605</property>
  <property name="kdenlive:file_hash">fc7d6d7add9d551bfbfeab6f3c646538</property>
  <property name="kdenlive:audio_max0">235</property>
  <property name="meta.media.nb_streams">1</property>
  <property name="meta.media.0.stream.type">audio</property>
  <property name="meta.media.0.codec.sample_fmt">fltp</property>
  <property name="meta.media.0.codec.sample_rate">48000</property>
  <property name="meta.media.0.codec.channels">2</property>
  <property name="meta.media.0.codec.name">mp3float</property>
  <property name="meta.media.0.codec.long_name">MP3 (MPEG audio layer 3)</property>
  <property name="meta.media.0.codec.bit_rate">121024</property>
  <property name="meta.attr.0.stream.encoder.markup">Lavc59.37</property>
  <property name="meta.attr.encoder.markup">Lavf59.27.100</property>
  <property name="xml">was here</property>
  <property name="set.test_audio">0</property>
  <property name="set.test_image">1</property>
  <property name="mute_on_pause">1</property>
 </chain>
 <chain id="chain31" out="00:00:32.440">
  <property name="length">812</property>
  <property name="eof">pause</property>
  <property name="resource">/home/liquidzulu/Music/sfx/Rumbling Sound Effect [926a-7b9EIs].mp3</property>
  <property name="mlt_service">avformat-novalidate</property>
  <property name="seekable">1</property>
  <property name="audio_index">0</property>
  <property name="video_index">-1</property>
  <property name="kdenlive:clipname"/>
  <property name="kdenlive:clip_type">1</property>
  <property name="kdenlive:folderid">-1</property>
  <property name="kdenlive:id">336</property>
  <property name="kdenlive:file_size">529053</property>
  <property name="kdenlive:file_hash">15a6487084c6edc8a411d63645169983</property>
  <property name="kdenlive:audio_max0">256</property>
  <property name="meta.media.nb_streams">1</property>
  <property name="meta.media.0.stream.type">audio</property>
  <property name="meta.media.0.codec.sample_fmt">fltp</property>
  <property name="meta.media.0.codec.sample_rate">48000</property>
  <property name="meta.media.0.codec.channels">2</property>
  <property name="meta.media.0.codec.name">mp3float</property>
  <property name="meta.media.0.codec.long_name">MP3 (MPEG audio layer 3)</property>
  <property name="meta.media.0.codec.bit_rate">130330</property>
  <property name="meta.attr.0.stream.encoder.markup">Lavc59.37</property>
  <property name="meta.attr.encoder.markup">Lavf59.27.100</property>
  <property name="xml">was here</property>
  <property name="set.test_audio">0</property>
  <property name="set.test_image">1</property>
  <property name="mute_on_pause">1</property>
 </chain>
 <chain id="chain32" out="00:02:01.520">
  <property name="length">3039</property>
  <property name="eof">pause</property>
  <property name="resource">/home/liquidzulu/Music/lemmino/Encounters [885936550].flac</property>
  <property name="mlt_service">avformat-novalidate</property>
  <property name="seekable">1</property>
  <property name="audio_index">0</property>
  <property name="video_index">-1</property>
  <property name="kdenlive:clipname"/>
  <property name="kdenlive:clip_type">1</property>
  <property name="kdenlive:folderid">5</property>
  <property name="kdenlive:id">309</property>
  <property name="kdenlive:file_size">8342133</property>
  <property name="kdenlive:file_hash">e7ab0a022df4ee4ba8c33a567aef5c8c</property>
  <property name="kdenlive:audio_max0">256</property>
  <property name="meta.media.nb_streams">1</property>
  <property name="meta.media.0.stream.type">audio</property>
  <property name="meta.media.0.codec.sample_fmt">s16</property>
  <property name="meta.media.0.codec.sample_rate">48000</property>
  <property name="meta.media.0.codec.channels">2</property>
  <property name="meta.media.0.codec.name">flac</property>
  <property name="meta.media.0.codec.long_name">FLAC (Free Lossless Audio Codec)</property>
  <property name="meta.media.0.codec.bit_rate">0</property>
  <property name="xml">was here</property>
  <property name="set.test_audio">0</property>
  <property name="set.test_image">1</property>
  <property name="mute_on_pause">1</property>
 </chain>
 <chain id="chain33" out="00:03:38.720">
  <property name="length">5469</property>
  <property name="eof">pause</property>
  <property name="resource">/home/liquidzulu/Music/lemmino/LEMMiNO - Moon [174866750].mp3</property>
  <property name="mlt_service">avformat-novalidate</property>
  <property name="seekable">1</property>
  <property name="audio_index">0</property>
  <property name="video_index">-1</property>
  <property name="kdenlive:clipname"/>
  <property name="kdenlive:clip_type">1</property>
  <property name="kdenlive:folderid">-1</property>
  <property name="kdenlive:id">371</property>
  <property name="kdenlive:file_size">5256126</property>
  <property name="kdenlive:file_hash">b1a4a964586f7963ae2bac6d77c4e40b</property>
  <property name="meta.media.nb_streams">1</property>
  <property name="meta.media.0.stream.type">audio</property>
  <property name="meta.media.0.codec.sample_fmt">fltp</property>
  <property name="meta.media.0.codec.sample_rate">44100</property>
  <property name="meta.media.0.codec.channels">2</property>
  <property name="meta.media.0.codec.name">mp3float</property>
  <property name="meta.media.0.codec.long_name">MP3 (MPEG audio layer 3)</property>
  <property name="meta.media.0.codec.bit_rate">192000</property>
  <property name="meta.attr.genre.markup">Blues</property>
  <property name="meta.attr.id3v2_priv.XMP.markup">&lt;?xpacket begin="\xef\xbb\xbf" id="W5M0MpCehiHzreSzNTczkc9d"?>\x0a&lt;x:xmpmeta xmlns:x="adobe:ns:meta/" x:xmptk="Adobe XMP Core 5.6-c014 79.156821, 2014/08/29-03:07:50        ">\x0a &lt;rdf:RDF xmlns:rdf="http://www.w3.org/1999/02/22-rdf-syntax-ns#">\x0a  &lt;rdf:Description rdf:about=""\x0a    xmlns:xmp="http://ns.adobe.com/xap/1.0/"\x0a    xmlns:xmpDM="http://ns.adobe.com/xmp/1.0/DynamicMedia/"\x0a    xmlns:xmpMM="http://ns.adobe.com/xap/1.0/mm/"\x0a    xmlns:stEvt="http://ns.adobe.com/xap/1.0/sType/ResourceEvent#"\x0a    xmlns:stRef="http://ns.adobe.com/xap/1.0/sType/ResourceRef#"\x0a    xmlns:dc="http://purl.org/dc/elements/1.1/"\x0a   xmp:CreatorTool="FL Studio 11"\x0a   xmp:MetadataDate="2014-10-28T16:32:55+01:00"\x0a   xmp:ModifyDate="2014-10-28T16:32:55+01:00"\x0a   xmpMM:InstanceID="xmp.iid:b1326144-a3b4-e24f-a900-5f9dab5b60e7"\x0a   xmpMM:DocumentID="xmp.did:b1326144-a3b4-e24f-a900-5f9dab5b60e7"\x0a   xmpMM:OriginalDocumentID="xmp.did:cd08a12f-63cd-ae40-8a8f-bfa02541be6e"\x0a   dc:format="audio/mpeg">\x0a   &lt;xmpDM:Tracks>\x0a    &lt;rdf:Bag>\x0a     &lt;rdf:li\x0a      xmpDM:trackName="CuePoint Markers"\x0a      xmpDM:trackType="Cue"\x0a      xmpDM:frameRate="f44100"/>\x0a     &lt;rdf:li\x0a      xmpDM:trackName="CD Track Markers"\x0a      xmpDM:trackType="Track"\x0a      xmpDM:frameRate="f44100"/>\x0a     &lt;rdf:li\x0a      xmpDM:trackName="Subclip Markers"\x0a      xmpDM:trackType="InOut"\x0a      xmpDM:frameRate="f44100"/>\x0a    &lt;/rdf:Bag>\x0a   &lt;/xmpDM:Tracks>\x0a   &lt;xmpMM:History>\x0a    &lt;rdf:Seq>\x0a     &lt;rdf:li\x0a      stEvt:action="saved"\x0a      stEvt:instanceID="xmp.iid:cd08a12f-63cd-ae40-8a8f-bfa02541be6e"\x0a      stEvt:when="2014-10-28T16:32:55+01:00"\x0a      stEvt:softwareAgent="Adobe Audition CC 2014.1 (Windows)"\x0a      stEvt:changed="/metadata"/>\x0a     &lt;rdf:li\x0a      stEvt:action="saved"\x0a      stEvt:instanceID="xmp.iid:b1326144-a3b4-e24f-a900-5f9dab5b60e7"\x0a      stEvt:when="2014-10-28T16:32:55+01:00"\x0a      stEvt:softwareAgent="Adobe Audition CC 2014.1 (Windows)"\x0a      stEvt:changed="/"/>\x0a    &lt;/rdf:Seq>\x0a   &lt;/xmpMM:History>\x0a   &lt;xmpMM:DerivedFrom\x0a    stRef:instanceID="xmp.iid:cd08a12f-63cd-ae40-8a8f-bfa02541be6e"\x0a    stRef:documentID="xmp.did:cd08a12f-63cd-ae40-8a8f-bfa02541be6e"\x0a    stRef:originalDocumentID="xmp.did:cd08a12f-63cd-ae40-8a8f-bfa02541be6e"/>\x0a  &lt;/rdf:Description>\x0a &lt;/rdf:RDF>\x0a&lt;/x:xmpmeta>\x0a                                                                                                    \x0a                                                                                                    \x0a                                                                                                    \x0a                                                                                                    \x0a                                                                                                    \x0a                                                                                                    \x0a                                                                                                    \x0a                                                                                                    \x0a                                                                                                    \x0a                                                                                                    \x0a                                                                                                    \x0a                                                                                                    \x0a                                                                                                    \x0a                                                                                                    \x0a                                                                                                    \x0a                                                                                                    \x0a                                                                                                    \x0a                                                                                                    \x0a                                                                                                    \x0a                                                                                                    \x0a                           \x0a&lt;?xpacket end="w"?>\x00</property>
  <property name="xml">was here</property>
  <property name="set.test_audio">0</property>
  <property name="set.test_image">1</property>
  <property name="mute_on_pause">1</property>
 </chain>
 <chain id="chain34" out="00:00:08.160">
  <property name="length">205</property>
  <property name="eof">pause</property>
  <property name="resource">/home/liquidzulu/Music/sfx/Cassette Tape - Sound Effect [VRwxgYzRTBI].mp3</property>
  <property name="mlt_service">avformat-novalidate</property>
  <property name="seekable">1</property>
  <property name="audio_index">0</property>
  <property name="video_index">-1</property>
  <property name="kdenlive:clipname"/>
  <property name="kdenlive:clip_type">1</property>
  <property name="kdenlive:folderid">228</property>
  <property name="kdenlive:id">352</property>
  <property name="kdenlive:file_size">83181</property>
  <property name="kdenlive:file_hash">609ccfd5921db7e187374ea8a50424ba</property>
  <property name="kdenlive:audio_max0">171</property>
  <property name="meta.media.nb_streams">1</property>
  <property name="meta.media.0.stream.type">audio</property>
  <property name="meta.media.0.codec.sample_fmt">fltp</property>
  <property name="meta.media.0.codec.sample_rate">48000</property>
  <property name="meta.media.0.codec.channels">2</property>
  <property name="meta.media.0.codec.name">mp3float</property>
  <property name="meta.media.0.codec.long_name">MP3 (MPEG audio layer 3)</property>
  <property name="meta.media.0.codec.bit_rate">81267</property>
  <property name="meta.attr.0.stream.encoder.markup">Lavc59.37</property>
  <property name="meta.attr.encoder.markup">Lavf59.27.100</property>
  <property name="xml">was here</property>
  <property name="set.test_audio">0</property>
  <property name="set.test_image">1</property>
  <property name="mute_on_pause">1</property>
 </chain>
 <chain id="chain35" out="00:03:12.000">
  <property name="length">4801</property>
  <property name="eof">pause</property>
  <property name="resource">/home/liquidzulu/Music/lemmino/Cosmic Solitude [885935188].flac</property>
  <property name="mlt_service">avformat-novalidate</property>
  <property name="seekable">1</property>
  <property name="audio_index">0</property>
  <property name="video_index">-1</property>
  <property name="kdenlive:clipname"/>
  <property name="kdenlive:clip_type">1</property>
  <property name="kdenlive:folderid">-1</property>
  <property name="kdenlive:id">462</property>
  <property name="kdenlive:file_size">11869975</property>
  <property name="kdenlive:file_hash">adacb6a9b3e9821f4f8cfd006787fb60</property>
  <property name="kdenlive:audio_max0">216</property>
  <property name="meta.media.nb_streams">1</property>
  <property name="meta.media.0.stream.type">audio</property>
  <property name="meta.media.0.codec.sample_fmt">s16</property>
  <property name="meta.media.0.codec.sample_rate">48000</property>
  <property name="meta.media.0.codec.channels">2</property>
  <property name="meta.media.0.codec.name">flac</property>
  <property name="meta.media.0.codec.long_name">FLAC (Free Lossless Audio Codec)</property>
  <property name="meta.media.0.codec.bit_rate">0</property>
  <property name="xml">was here</property>
  <property name="set.test_audio">0</property>
  <property name="set.test_image">1</property>
  <property name="mute_on_pause">1</property>
 </chain>
 <chain id="chain36" out="00:03:25.560">
  <property name="length">5140</property>
  <property name="eof">pause</property>
  <property name="resource">/home/liquidzulu/Music/lemmino/Melancholy [885930184].flac</property>
  <property name="mlt_service">avformat-novalidate</property>
  <property name="seekable">1</property>
  <property name="audio_index">0</property>
  <property name="video_index">-1</property>
  <property name="kdenlive:clipname"/>
  <property name="kdenlive:clip_type">1</property>
  <property name="kdenlive:folderid">-1</property>
  <property name="kdenlive:id">477</property>
  <property name="kdenlive:file_size">11352946</property>
  <property name="kdenlive:file_hash">129622b78e0939d82101bf624ae13130</property>
  <property name="meta.media.nb_streams">1</property>
  <property name="meta.media.0.stream.type">audio</property>
  <property name="meta.media.0.codec.sample_fmt">s16</property>
  <property name="meta.media.0.codec.sample_rate">48000</property>
  <property name="meta.media.0.codec.channels">2</property>
  <property name="meta.media.0.codec.name">flac</property>
  <property name="meta.media.0.codec.long_name">FLAC (Free Lossless Audio Codec)</property>
  <property name="meta.media.0.codec.bit_rate">0</property>
  <property name="xml">was here</property>
  <property name="set.test_audio">0</property>
  <property name="set.test_image">1</property>
  <property name="mute_on_pause">1</property>
 </chain>
 <chain id="chain37" out="00:02:56.160">
  <property name="length">4405</property>
  <property name="eof">pause</property>
  <property name="resource">/home/liquidzulu/Music/lemmino/Firecracker [1573085953].flac</property>
  <property name="mlt_service">avformat-novalidate</property>
  <property name="seekable">1</property>
  <property name="audio_index">0</property>
  <property name="video_index">-1</property>
  <property name="kdenlive:clipname"/>
  <property name="kdenlive:clip_type">1</property>
  <property name="kdenlive:folderid">-1</property>
  <property name="kdenlive:id">511</property>
  <property name="kdenlive:file_size">15523680</property>
  <property name="kdenlive:file_hash">b8f5ea0fc9edb242661ef0182e041b4e</property>
  <property name="kdenlive:audio_max0">241</property>
  <property name="meta.media.nb_streams">1</property>
  <property name="meta.media.0.stream.type">audio</property>
  <property name="meta.media.0.codec.sample_fmt">s16</property>
  <property name="meta.media.0.codec.sample_rate">48000</property>
  <property name="meta.media.0.codec.channels">2</property>
  <property name="meta.media.0.codec.name">flac</property>
  <property name="meta.media.0.codec.long_name">FLAC (Free Lossless Audio Codec)</property>
  <property name="meta.media.0.codec.bit_rate">0</property>
  <property name="meta.attr.ENCODER.markup">FL Studio</property>
  <property name="xml">was here</property>
  <property name="set.test_audio">0</property>
  <property name="set.test_image">1</property>
  <property name="mute_on_pause">1</property>
 </chain>
 <chain id="chain38" out="00:04:06.480">
  <property name="length">6163</property>
  <property name="eof">pause</property>
  <property name="resource">/home/liquidzulu/Music/popular-front/.Ruam [812185876].mp3</property>
  <property name="mlt_service">avformat-novalidate</property>
  <property name="seekable">1</property>
  <property name="audio_index">0</property>
  <property name="video_index">-1</property>
  <property name="kdenlive:clipname"/>
  <property name="kdenlive:clip_type">1</property>
  <property name="kdenlive:folderid">-1</property>
  <property name="kdenlive:id">601</property>
  <property name="kdenlive:file_size">3944697</property>
  <property name="kdenlive:file_hash">10cab0c37e61ec1aead8ffc7b579ce0d</property>
  <property name="kdenlive:audio_max0">251</property>
  <property name="meta.media.nb_streams">1</property>
  <property name="meta.media.0.stream.type">audio</property>
  <property name="meta.media.0.codec.sample_fmt">fltp</property>
  <property name="meta.media.0.codec.sample_rate">44100</property>
  <property name="meta.media.0.codec.channels">2</property>
  <property name="meta.media.0.codec.name">mp3float</property>
  <property name="meta.media.0.codec.long_name">MP3 (MPEG audio layer 3)</property>
  <property name="meta.media.0.codec.bit_rate">128000</property>
  <property name="meta.attr.0.stream.encoder.markup">LAME3.100</property>
  <property name="xml">was here</property>
  <property name="set.test_audio">0</property>
  <property name="set.test_image">1</property>
  <property name="mute_on_pause">1</property>
 </chain>
 <chain id="chain39" out="00:02:48.920">
  <property name="length">4224</property>
  <property name="eof">pause</property>
  <property name="resource">audio/quotes/ai-art-quote/out/ai art istebrak.01.41.51.mp3</property>
  <property name="mlt_service">avformat-novalidate</property>
  <property name="seekable">1</property>
  <property name="audio_index">0</property>
  <property name="video_index">-1</property>
  <property name="kdenlive:clipname"/>
  <property name="kdenlive:clip_type">1</property>
  <property name="kdenlive:folderid">-1</property>
  <property name="kdenlive:id">631</property>
  <property name="kdenlive:file_size">4055096</property>
  <property name="kdenlive:file_hash">6dc66d14bbea918d1944786bd933a0db</property>
  <property name="kdenlive:audio_max0">201</property>
  <property name="meta.media.nb_streams">1</property>
  <property name="meta.media.0.stream.type">audio</property>
  <property name="meta.media.0.codec.sample_fmt">fltp</property>
  <property name="meta.media.0.codec.sample_rate">44100</property>
  <property name="meta.media.0.codec.channels">2</property>
  <property name="meta.media.0.codec.name">mp3float</property>
  <property name="meta.media.0.codec.long_name">MP3 (MPEG audio layer 3)</property>
  <property name="meta.media.0.codec.bit_rate">192000</property>
  <property name="meta.attr.encoded_by.markup">LAME in FL Studio 21</property>
  <property name="meta.attr.date.markup">2023</property>
  <property name="xml">was here</property>
  <property name="set.test_audio">0</property>
  <property name="set.test_image">1</property>
  <property name="mute_on_pause">1</property>
 </chain>
 <chain id="chain40" out="00:02:48.920">
  <property name="length">4224</property>
  <property name="eof">pause</property>
  <property name="resource">audio/quotes/ai-art-quote/creatives view.00.06.35.mp3</property>
  <property name="mlt_service">avformat-novalidate</property>
  <property name="seekable">1</property>
  <property name="audio_index">0</property>
  <property name="video_index">-1</property>
  <property name="kdenlive:clipname"/>
  <property name="kdenlive:clip_type">1</property>
  <property name="kdenlive:folderid">-1</property>
  <property name="kdenlive:id">647</property>
  <property name="kdenlive:file_size">4055096</property>
  <property name="kdenlive:file_hash">c4883a63283c31ada8ef5f4f40b351aa</property>
  <property name="kdenlive:audio_max0">200</property>
  <property name="meta.media.nb_streams">1</property>
  <property name="meta.media.0.stream.type">audio</property>
  <property name="meta.media.0.codec.sample_fmt">fltp</property>
  <property name="meta.media.0.codec.sample_rate">44100</property>
  <property name="meta.media.0.codec.channels">2</property>
  <property name="meta.media.0.codec.name">mp3float</property>
  <property name="meta.media.0.codec.long_name">MP3 (MPEG audio layer 3)</property>
  <property name="meta.media.0.codec.bit_rate">192000</property>
  <property name="meta.attr.encoded_by.markup">LAME in FL Studio 21</property>
  <property name="meta.attr.date.markup">2023</property>
  <property name="xml">was here</property>
  <property name="set.test_audio">0</property>
  <property name="set.test_image">1</property>
  <property name="mute_on_pause">1</property>
 </chain>
 <chain id="chain41" out="00:01:04.680">
  <property name="length">1618</property>
  <property name="eof">pause</property>
  <property name="resource">/home/liquidzulu/Music/sfx/Cassette Tape Spinning + Tape Hiss Sound - Analog Effects (1 minute) [mVi7eVQRgH4].mp3</property>
  <property name="mlt_service">avformat-novalidate</property>
  <property name="seekable">1</property>
  <property name="audio_index">0</property>
  <property name="video_index">-1</property>
  <property name="kdenlive:clipname"/>
  <property name="kdenlive:clip_type">1</property>
  <property name="kdenlive:folderid">228</property>
  <property name="kdenlive:id">354</property>
  <property name="kdenlive:file_size">528045</property>
  <property name="kdenlive:file_hash">8d059ee10b765f2ce3fb75636759334a</property>
  <property name="kdenlive:audio_max0">104</property>
  <property name="meta.media.nb_streams">1</property>
  <property name="meta.media.0.stream.type">audio</property>
  <property name="meta.media.0.codec.sample_fmt">fltp</property>
  <property name="meta.media.0.codec.sample_rate">48000</property>
  <property name="meta.media.0.codec.channels">2</property>
  <property name="meta.media.0.codec.name">mp3float</property>
  <property name="meta.media.0.codec.long_name">MP3 (MPEG audio layer 3)</property>
  <property name="meta.media.0.codec.bit_rate">65282</property>
  <property name="meta.attr.0.stream.encoder.markup">Lavc59.37</property>
  <property name="meta.attr.encoder.markup">Lavf59.27.100</property>
  <property name="xml">was here</property>
  <property name="set.test_audio">0</property>
  <property name="set.test_image">1</property>
  <property name="mute_on_pause">1</property>
 </chain>
 <chain id="chain42" out="00:00:10.440">
  <property name="length">262</property>
  <property name="eof">pause</property>
  <property name="resource">/home/liquidzulu/Music/sfx/Fire Crackling - Sound Effect [HQ] [-mZHANRv8T4].mp3</property>
  <property name="mlt_service">avformat-novalidate</property>
  <property name="seekable">1</property>
  <property name="audio_index">0</property>
  <property name="video_index">-1</property>
  <property name="mute_on_pause">0</property>
  <property name="kdenlive:clipname"/>
  <property name="kdenlive:clip_type">1</property>
  <property name="kdenlive:folderid">-1</property>
  <property name="kdenlive:id">874</property>
  <property name="kdenlive:file_size">177525</property>
  <property name="kdenlive:file_hash">1f001ea3772dad29fcd6e86e1861a7ae</property>
  <property name="kdenlive:audio_max0">204</property>
  <property name="meta.media.nb_streams">1</property>
  <property name="meta.media.0.stream.type">audio</property>
  <property name="meta.media.0.codec.sample_fmt">fltp</property>
  <property name="meta.media.0.codec.sample_rate">48000</property>
  <property name="meta.media.0.codec.channels">2</property>
  <property name="meta.media.0.codec.name">mp3float</property>
  <property name="meta.media.0.codec.long_name">MP3 (MPEG audio layer 3)</property>
  <property name="meta.media.0.codec.bit_rate">135378</property>
  <property name="meta.attr.0.stream.encoder.markup">Lavc59.37</property>
  <property name="meta.attr.encoder.markup">Lavf59.27.100</property>
  <property name="xml">was here</property>
  <property name="set.test_audio">0</property>
  <property name="set.test_image">1</property>
 </chain>
 <chain id="chain43" out="00:00:13.600">
  <property name="length">341</property>
  <property name="eof">pause</property>
  <property name="resource">/home/liquidzulu/Music/sfx/Male Pain Grunts Sound Effects SFX Free and Royalty Free [5RW4Hfz-MJg].mp3</property>
  <property name="mlt_service">avformat-novalidate</property>
  <property name="seekable">1</property>
  <property name="audio_index">0</property>
  <property name="video_index">-1</property>
  <property name="mute_on_pause">0</property>
  <property name="kdenlive:clipname"/>
  <property name="kdenlive:clip_type">1</property>
  <property name="kdenlive:folderid">-1</property>
  <property name="kdenlive:id">876</property>
  <property name="kdenlive:file_size">86709</property>
  <property name="kdenlive:file_hash">4c0f30ee3952fbbc4a8cf8383038673c</property>
  <property name="kdenlive:audio_max0">206</property>
  <property name="meta.media.nb_streams">1</property>
  <property name="meta.media.0.stream.type">audio</property>
  <property name="meta.media.0.codec.sample_fmt">fltp</property>
  <property name="meta.media.0.codec.sample_rate">48000</property>
  <property name="meta.media.0.codec.channels">2</property>
  <property name="meta.media.0.codec.name">mp3float</property>
  <property name="meta.media.0.codec.long_name">MP3 (MPEG audio layer 3)</property>
  <property name="meta.media.0.codec.bit_rate">50770</property>
  <property name="meta.attr.0.stream.encoder.markup">Lavc59.37</property>
  <property name="meta.attr.encoder.markup">Lavf59.27.100</property>
  <property name="xml">was here</property>
  <property name="set.test_audio">0</property>
  <property name="set.test_image">1</property>
 </chain>
 <chain id="chain44" out="00:00:53.760">
  <property name="length">1345</property>
  <property name="eof">pause</property>
  <property name="resource">/home/liquidzulu/Music/sfx/Cold wind sound effect [ZD47Mhzm-CU].mp3</property>
  <property name="mlt_service">avformat-novalidate</property>
  <property name="seekable">1</property>
  <property name="audio_index">0</property>
  <property name="video_index">-1</property>
  <property name="mute_on_pause">0</property>
  <property name="kdenlive:clipname"/>
  <property name="kdenlive:clip_type">1</property>
  <property name="kdenlive:folderid">-1</property>
  <property name="kdenlive:id">878</property>
  <property name="kdenlive:file_size">787749</property>
  <property name="kdenlive:file_hash">83caa82367d9595912e9a40f946d6a6c</property>
  <property name="kdenlive:audio_max0">85</property>
  <property name="meta.media.nb_streams">1</property>
  <property name="meta.media.0.stream.type">audio</property>
  <property name="meta.media.0.codec.sample_fmt">fltp</property>
  <property name="meta.media.0.codec.sample_rate">48000</property>
  <property name="meta.media.0.codec.channels">2</property>
  <property name="meta.media.0.codec.name">mp3float</property>
  <property name="meta.media.0.codec.long_name">MP3 (MPEG audio layer 3)</property>
  <property name="meta.media.0.codec.bit_rate">117166</property>
  <property name="meta.attr.0.stream.encoder.markup">Lavc59.37</property>
  <property name="meta.attr.encoder.markup">Lavf59.27.100</property>
  <property name="xml">was here</property>
  <property name="set.test_audio">0</property>
  <property name="set.test_image">1</property>
 </chain>
 <chain id="chain45" out="00:00:04.360">
  <property name="length">110</property>
  <property name="eof">pause</property>
  <property name="resource">/home/liquidzulu/Music/sfx/civ v/Sid Meier's Civilization V ï½œ Production [Sound Effect] [TehCDsdk7rg].mp3</property>
  <property name="mlt_service">avformat-novalidate</property>
  <property name="seekable">1</property>
  <property name="audio_index">0</property>
  <property name="video_index">-1</property>
  <property name="mute_on_pause">0</property>
  <property name="kdenlive:clipname"/>
  <property name="kdenlive:clip_type">1</property>
  <property name="kdenlive:folderid">-1</property>
  <property name="kdenlive:id">881</property>
  <property name="kdenlive:file_size">54525</property>
  <property name="kdenlive:file_hash">32f44aa73497dcc46c59a949f35cb84c</property>
  <property name="kdenlive:audio_max0">168</property>
  <property name="meta.media.nb_streams">1</property>
  <property name="meta.media.0.stream.type">audio</property>
  <property name="meta.media.0.codec.sample_fmt">fltp</property>
  <property name="meta.media.0.codec.sample_rate">48000</property>
  <property name="meta.media.0.codec.channels">2</property>
  <property name="meta.media.0.codec.name">mp3float</property>
  <property name="meta.media.0.codec.long_name">MP3 (MPEG audio layer 3)</property>
  <property name="meta.media.0.codec.bit_rate">98696</property>
  <property name="meta.attr.0.stream.encoder.markup">Lavc59.37</property>
  <property name="meta.attr.encoder.markup">Lavf59.27.100</property>
  <property name="xml">was here</property>
  <property name="set.test_audio">0</property>
  <property name="set.test_image">1</property>
 </chain>
 <chain id="chain46" out="00:01:17.000">
  <property name="length">1926</property>
  <property name="eof">pause</property>
  <property name="resource">/home/liquidzulu/Music/sfx/WW2 Aircraft sound effects library - authentic vintage propeller plane sounds [Je893bgg2V4].mp3</property>
  <property name="mlt_service">avformat-novalidate</property>
  <property name="seekable">1</property>
  <property name="audio_index">0</property>
  <property name="video_index">-1</property>
  <property name="mute_on_pause">0</property>
  <property name="kdenlive:clipname"/>
  <property name="kdenlive:clip_type">1</property>
  <property name="kdenlive:folderid">-1</property>
  <property name="kdenlive:id">883</property>
  <property name="kdenlive:file_size">808941</property>
  <property name="kdenlive:file_hash">1ec20aae70899241843364deb7673bc3</property>
  <property name="kdenlive:audio_max0">215</property>
  <property name="meta.media.nb_streams">1</property>
  <property name="meta.media.0.stream.type">audio</property>
  <property name="meta.media.0.codec.sample_fmt">fltp</property>
  <property name="meta.media.0.codec.sample_rate">48000</property>
  <property name="meta.media.0.codec.channels">2</property>
  <property name="meta.media.0.codec.name">mp3float</property>
  <property name="meta.media.0.codec.long_name">MP3 (MPEG audio layer 3)</property>
  <property name="meta.media.0.codec.bit_rate">83998</property>
  <property name="meta.attr.0.stream.encoder.markup">Lavc59.37</property>
  <property name="meta.attr.encoder.markup">Lavf59.27.100</property>
  <property name="xml">was here</property>
  <property name="set.test_audio">0</property>
  <property name="set.test_image">1</property>
 </chain>
 <chain id="chain48" out="00:02:48.160">
  <property name="length">4205</property>
  <property name="eof">pause</property>
  <property name="resource">/home/liquidzulu/Music/OST/Red Alert 3ï¼š Soviet March - Instrumental [4R-2pG78mSo].mp3</property>
  <property name="mlt_service">avformat-novalidate</property>
  <property name="seekable">1</property>
  <property name="audio_index">0</property>
  <property name="video_index">-1</property>
  <property name="mute_on_pause">0</property>
  <property name="kdenlive:clipname"/>
  <property name="kdenlive:clip_type">1</property>
  <property name="kdenlive:folderid">-1</property>
  <property name="kdenlive:id">888</property>
  <property name="kdenlive:file_size">2729805</property>
  <property name="kdenlive:file_hash">54d69cb161cd14c98640a7413f76ecb0</property>
  <property name="kdenlive:audio_max0">208</property>
  <property name="meta.media.nb_streams">1</property>
  <property name="meta.media.0.stream.type">audio</property>
  <property name="meta.media.0.codec.sample_fmt">fltp</property>
  <property name="meta.media.0.codec.sample_rate">48000</property>
  <property name="meta.media.0.codec.channels">2</property>
  <property name="meta.media.0.codec.name">mp3float</property>
  <property name="meta.media.0.codec.long_name">MP3 (MPEG audio layer 3)</property>
  <property name="meta.media.0.codec.bit_rate">129822</property>
  <property name="meta.attr.0.stream.encoder.markup">Lavc59.37</property>
  <property name="meta.attr.encoder.markup">Lavf59.27.100</property>
  <property name="xml">was here</property>
  <property name="set.test_audio">0</property>
  <property name="set.test_image">1</property>
 </chain>
 <playlist id="playlist4">
  <property name="kdenlive:audio_track">1</property>
  <blank length="00:00:20.400"/>
  <entry producer="chain24" in="00:00:11.520" out="00:00:22.680">
   <property name="kdenlive:id">4</property>
   <filter id="filter75">
    <property name="window">75</property>
    <property name="max_gain">20dB</property>
    <property name="level">00:00:11.520=-14;00:00:11.560=-14;00:00:11.600=-18</property>
    <property name="mlt_service">volume</property>
    <property name="kdenlive_id">volume</property>
    <property name="kdenlive:collapsed">0</property>
   </filter>
   <filter id="filter76" in="00:00:11.520" out="00:00:11.560">
    <property name="window">75</property>
    <property name="max_gain">20dB</property>
    <property name="mlt_service">volume</property>
    <property name="kdenlive_id">fadein</property>
    <property name="gain">0</property>
    <property name="end">1</property>
    <property name="kdenlive:collapsed">0</property>
   </filter>
  </entry>
  <blank length="00:02:39.120"/>
  <entry producer="chain27" in="00:00:08.320" out="00:02:14.920">
   <property name="kdenlive:id">229</property>
   <filter id="filter77">
    <property name="window">75</property>
    <property name="max_gain">20dB</property>
    <property name="level">00:00:08.320=-25</property>
    <property name="mlt_service">volume</property>
    <property name="kdenlive_id">volume</property>
    <property name="kdenlive:collapsed">0</property>
   </filter>
   <filter id="filter78" in="00:00:08.320" out="00:00:08.600">
    <property name="window">75</property>
    <property name="max_gain">20dB</property>
    <property name="mlt_service">volume</property>
    <property name="kdenlive_id">fadein</property>
    <property name="gain">0</property>
    <property name="end">1</property>
    <property name="kdenlive:collapsed">0</property>
   </filter>
   <filter id="filter79" in="00:02:11.080" out="00:02:14.920">
    <property name="window">75</property>
    <property name="max_gain">20dB</property>
    <property name="mlt_service">volume</property>
    <property name="kdenlive_id">fadeout</property>
    <property name="gain">1</property>
    <property name="end">0</property>
   </filter>
  </entry>
  <blank length="00:01:33.760"/>
  <entry producer="chain31" in="00:00:00.000" out="00:00:01.920">
   <property name="kdenlive:id">336</property>
   <property name="kdenlive:activeeffect">1</property>
   <filter id="filter80" in="00:00:01.080" out="00:00:01.920">
    <property name="window">75</property>
    <property name="max_gain">20dB</property>
    <property name="mlt_service">volume</property>
    <property name="kdenlive_id">fadeout</property>
    <property name="gain">1</property>
    <property name="end">0</property>
    <property name="kdenlive:collapsed">0</property>
   </filter>
   <filter id="filter81">
    <property name="window">75</property>
    <property name="max_gain">20dB</property>
    <property name="level">00:00:00.000=-8</property>
    <property name="mlt_service">volume</property>
    <property name="kdenlive_id">volume</property>
    <property name="kdenlive:collapsed">0</property>
   </filter>
  </entry>
  <blank length="00:00:10.520"/>
  <entry producer="chain32" in="00:00:00.000" out="00:02:01.520">
   <property name="kdenlive:id">309</property>
   <filter id="filter82">
    <property name="window">75</property>
    <property name="max_gain">20dB</property>
    <property name="level">00:00:00.000=-25</property>
    <property name="mlt_service">volume</property>
    <property name="kdenlive_id">volume</property>
    <property name="kdenlive:collapsed">0</property>
   </filter>
  </entry>
  <blank length="00:02:29.240"/>
  <entry producer="chain33" in="00:00:00.000" out="00:03:38.720">
   <property name="kdenlive:id">371</property>
   <filter id="filter83">
    <property name="window">75</property>
    <property name="max_gain">20dB</property>
    <property name="level">00:00:00.000=-25</property>
    <property name="mlt_service">volume</property>
    <property name="kdenlive_id">volume</property>
    <property name="kdenlive:collapsed">0</property>
   </filter>
  </entry>
  <blank length="00:00:09.760"/>
  <entry producer="chain34" in="00:00:03.080" out="00:00:04.360">
   <property name="kdenlive:id">352</property>
   <filter id="filter84">
    <property name="window">75</property>
    <property name="max_gain">20dB</property>
    <property name="level">00:00:03.080=-5</property>
    <property name="mlt_service">volume</property>
    <property name="kdenlive_id">volume</property>
   </filter>
  </entry>
  <blank length="00:03:52.080"/>
  <entry producer="chain35" in="00:00:09.680" out="00:03:12.000">
   <property name="kdenlive:id">462</property>
   <property name="kdenlive:activeeffect">1</property>
   <filter id="filter85" in="00:00:09.680" out="00:00:11.080">
    <property name="window">75</property>
    <property name="max_gain">20dB</property>
    <property name="mlt_service">volume</property>
    <property name="kdenlive_id">fadein</property>
    <property name="gain">0</property>
    <property name="end">1</property>
    <property name="kdenlive:collapsed">0</property>
   </filter>
   <filter id="filter86">
    <property name="window">75</property>
    <property name="max_gain">20dB</property>
    <property name="level">00:00:09.680=-25</property>
    <property name="mlt_service">volume</property>
    <property name="kdenlive_id">volume</property>
    <property name="kdenlive:collapsed">0</property>
   </filter>
  </entry>
  <blank length="00:01:27.440"/>
  <entry producer="chain36" in="00:00:00.000" out="00:03:25.560">
   <property name="kdenlive:id">477</property>
   <property name="kdenlive:activeeffect">1</property>
   <filter id="filter87" out="00:00:05.840">
    <property name="window">75</property>
    <property name="max_gain">20dB</property>
    <property name="mlt_service">volume</property>
    <property name="kdenlive_id">fadein</property>
    <property name="gain">0</property>
    <property name="end">1</property>
    <property name="kdenlive:collapsed">0</property>
   </filter>
   <filter id="filter88">
    <property name="window">75</property>
    <property name="max_gain">20dB</property>
    <property name="level">00:00:00.000=-25</property>
    <property name="mlt_service">volume</property>
    <property name="kdenlive_id">volume</property>
    <property name="kdenlive:collapsed">0</property>
   </filter>
   <filter id="filter89" in="00:03:14.680" out="00:03:25.560">
    <property name="window">75</property>
    <property name="max_gain">20dB</property>
    <property name="mlt_service">volume</property>
    <property name="kdenlive_id">fadeout</property>
    <property name="gain">1</property>
    <property name="end">0</property>
    <property name="kdenlive:collapsed">0</property>
   </filter>
  </entry>
  <blank length="00:01:47.160"/>
  <entry producer="chain37" in="00:00:00.000" out="00:02:56.160">
   <property name="kdenlive:id">511</property>
   <property name="kdenlive:activeeffect">1</property>
   <filter id="filter90" out="00:00:12.200">
    <property name="window">75</property>
    <property name="max_gain">20dB</property>
    <property name="mlt_service">volume</property>
    <property name="kdenlive_id">fadein</property>
    <property name="gain">0</property>
    <property name="end">1</property>
    <property name="kdenlive:collapsed">0</property>
   </filter>
   <filter id="filter91">
    <property name="window">75</property>
    <property name="max_gain">20dB</property>
    <property name="level">00:00:00.000=-25</property>
    <property name="mlt_service">volume</property>
    <property name="kdenlive_id">volume</property>
    <property name="kdenlive:collapsed">0</property>
   </filter>
   <filter id="filter92" in="00:02:36.640" out="00:02:56.160">
    <property name="window">75</property>
    <property name="max_gain">20dB</property>
    <property name="mlt_service">volume</property>
    <property name="kdenlive_id">fadeout</property>
    <property name="gain">1</property>
    <property name="end">0</property>
    <property name="kdenlive:collapsed">0</property>
   </filter>
  </entry>
  <blank length="00:01:17.000"/>
  <entry producer="chain33" in="00:00:00.000" out="00:03:38.720">
   <property name="kdenlive:id">371</property>
   <filter id="filter93" out="00:00:29.600">
    <property name="window">75</property>
    <property name="max_gain">20dB</property>
    <property name="mlt_service">volume</property>
    <property name="kdenlive_id">fadein</property>
    <property name="gain">0</property>
    <property name="end">1</property>
    <property name="kdenlive:collapsed">0</property>
   </filter>
   <filter id="filter94">
    <property name="window">75</property>
    <property name="max_gain">20dB</property>
    <property name="level">00:00:00.000=-25</property>
    <property name="mlt_service">volume</property>
    <property name="kdenlive_id">volume</property>
    <property name="kdenlive:collapsed">0</property>
   </filter>
  </entry>
  <blank length="00:01:39.640"/>
  <entry producer="chain32" in="00:00:00.000" out="00:02:01.520">
   <property name="kdenlive:id">309</property>
   <filter id="filter95">
    <property name="window">75</property>
    <property name="max_gain">20dB</property>
    <property name="level">00:00:00.000=-25</property>
    <property name="mlt_service">volume</property>
    <property name="kdenlive_id">volume</property>
    <property name="kdenlive:collapsed">0</property>
   </filter>
   <filter id="filter96" in="00:01:38.960" out="00:02:01.520">
    <property name="window">75</property>
    <property name="max_gain">20dB</property>
    <property name="mlt_service">volume</property>
    <property name="kdenlive_id">fadeout</property>
    <property name="gain">1</property>
    <property name="end">0</property>
   </filter>
  </entry>
  <blank length="00:02:12.160"/>
  <entry producer="chain38" in="00:00:00.000" out="00:04:02.400">
   <property name="kdenlive:id">601</property>
   <property name="kdenlive:activeeffect">1</property>
   <filter id="filter97" out="00:00:12.840">
    <property name="window">75</property>
    <property name="max_gain">20dB</property>
    <property name="mlt_service">volume</property>
    <property name="kdenlive_id">fadein</property>
    <property name="gain">0</property>
    <property name="end">1</property>
    <property name="kdenlive:collapsed">0</property>
   </filter>
   <filter id="filter98">
    <property name="window">75</property>
    <property name="max_gain">20dB</property>
    <property name="level">00:00:00.000=-25</property>
    <property name="mlt_service">volume</property>
    <property name="kdenlive_id">volume</property>
    <property name="kdenlive:collapsed">0</property>
   </filter>
   <filter id="filter99" in="00:03:42.400" out="00:04:02.400">
    <property name="window">75</property>
    <property name="max_gain">20dB</property>
    <property name="mlt_service">volume</property>
    <property name="kdenlive_id">fadeout</property>
    <property name="gain">1</property>
    <property name="end">0</property>
    <property name="kdenlive:collapsed">0</property>
   </filter>
  </entry>
  <blank length="00:02:09.880"/>
  <entry producer="chain34" in="00:00:03.080" out="00:00:04.360">
   <property name="kdenlive:id">352</property>
   <filter id="filter100">
    <property name="window">75</property>
    <property name="max_gain">20dB</property>
    <property name="level">00:00:03.080=-5</property>
    <property name="mlt_service">volume</property>
    <property name="kdenlive_id">volume</property>
    <property name="kdenlive:collapsed">0</property>
   </filter>
  </entry>
  <blank length="00:00:30.080"/>
  <entry producer="chain39" in="00:00:33.920" out="00:00:38.000">
   <property name="kdenlive:id">631</property>
  </entry>
  <blank length="00:00:01.400"/>
  <entry producer="chain34" in="00:00:03.080" out="00:00:04.360">
   <property name="kdenlive:id">352</property>
   <filter id="filter101">
    <property name="window">75</property>
    <property name="max_gain">20dB</property>
    <property name="level">00:00:03.080=-5</property>
    <property name="mlt_service">volume</property>
    <property name="kdenlive_id">volume</property>
   </filter>
  </entry>
  <blank length="00:00:43.600"/>
  <entry producer="chain34" in="00:00:03.080" out="00:00:04.360">
   <property name="kdenlive:id">352</property>
   <filter id="filter102">
    <property name="window">75</property>
    <property name="max_gain">20dB</property>
    <property name="level">00:00:03.080=-5</property>
    <property name="mlt_service">volume</property>
    <property name="kdenlive_id">volume</property>
   </filter>
  </entry>
  <blank length="00:00:09.520"/>
  <entry producer="chain40" in="00:00:17.360" out="00:00:40.320">
   <property name="kdenlive:id">647</property>
   <filter id="filter103" in="00:00:17.360" out="00:00:17.560">
    <property name="window">75</property>
    <property name="max_gain">20dB</property>
    <property name="mlt_service">volume</property>
    <property name="kdenlive_id">fadein</property>
    <property name="gain">0</property>
    <property name="end">1</property>
    <property name="kdenlive:collapsed">0</property>
   </filter>
  </entry>
  <blank length="00:02:27.040"/>
  <entry producer="chain41" in="00:00:01.160" out="00:00:29.640">
   <property name="kdenlive:id">354</property>
   <filter id="filter104" in="00:00:01.160" out="00:00:02.160">
    <property name="window">75</property>
    <property name="max_gain">20dB</property>
    <property name="mlt_service">volume</property>
    <property name="kdenlive_id">fadein</property>
    <property name="gain">0</property>
    <property name="end">1</property>
    <property name="kdenlive:collapsed">0</property>
   </filter>
   <filter id="filter105">
    <property name="window">75</property>
    <property name="max_gain">20dB</property>
    <property name="level">00:00:01.160=-9</property>
    <property name="mlt_service">volume</property>
    <property name="kdenlive_id">volume</property>
    <property name="kdenlive:collapsed">0</property>
   </filter>
   <filter id="filter106" in="00:00:28.600" out="00:00:29.640">
    <property name="window">75</property>
    <property name="max_gain">20dB</property>
    <property name="mlt_service">volume</property>
    <property name="kdenlive_id">fadeout</property>
    <property name="gain">1</property>
    <property name="end">0</property>
    <property name="kdenlive:collapsed">0</property>
   </filter>
  </entry>
  <blank length="00:04:46.480"/>
  <entry producer="chain41" in="00:00:01.160" out="00:00:31.280">
   <property name="kdenlive:id">354</property>
   <filter id="filter107" in="00:00:01.160" out="00:00:02.160">
    <property name="window">75</property>
    <property name="max_gain">20dB</property>
    <property name="mlt_service">volume</property>
    <property name="kdenlive_id">fadein</property>
    <property name="gain">0</property>
    <property name="end">1</property>
    <property name="kdenlive:collapsed">0</property>
   </filter>
   <filter id="filter108">
    <property name="window">75</property>
    <property name="max_gain">20dB</property>
    <property name="level">00:00:01.160=-9</property>
    <property name="mlt_service">volume</property>
    <property name="kdenlive_id">volume</property>
    <property name="kdenlive:collapsed">0</property>
   </filter>
   <filter id="filter109" in="00:00:30.240" out="00:00:31.280">
    <property name="window">75</property>
    <property name="max_gain">20dB</property>
    <property name="mlt_service">volume</property>
    <property name="kdenlive_id">fadeout</property>
    <property name="gain">1</property>
    <property name="end">0</property>
    <property name="kdenlive:collapsed">0</property>
   </filter>
  </entry>
  <blank length="00:00:23.360"/>
  <entry producer="chain41" in="00:00:01.160" out="00:00:13.960">
   <property name="kdenlive:id">354</property>
   <filter id="filter110" in="00:00:01.160" out="00:00:02.160">
    <property name="window">75</property>
    <property name="max_gain">20dB</property>
    <property name="mlt_service">volume</property>
    <property name="kdenlive_id">fadein</property>
    <property name="gain">0</property>
    <property name="end">1</property>
   </filter>
   <filter id="filter111">
    <property name="window">75</property>
    <property name="max_gain">20dB</property>
    <property name="level">00:00:01.160=-9</property>
    <property name="mlt_service">volume</property>
    <property name="kdenlive_id">volume</property>
   </filter>
   <filter id="filter112" in="00:00:12.920" out="00:00:13.960">
    <property name="window">75</property>
    <property name="max_gain">20dB</property>
    <property name="mlt_service">volume</property>
    <property name="kdenlive_id">fadeout</property>
    <property name="gain">1</property>
    <property name="end">0</property>
   </filter>
  </entry>
  <blank length="00:00:24.240"/>
  <entry producer="chain41" in="00:00:01.160" out="00:01:03.160">
   <property name="kdenlive:id">354</property>
   <filter id="filter113" in="00:00:01.160" out="00:00:02.160">
    <property name="window">75</property>
    <property name="max_gain">20dB</property>
    <property name="mlt_service">volume</property>
    <property name="kdenlive_id">fadein</property>
    <property name="gain">0</property>
    <property name="end">1</property>
    <property name="kdenlive:collapsed">0</property>
   </filter>
   <filter id="filter114">
    <property name="window">75</property>
    <property name="max_gain">20dB</property>
    <property name="level">00:00:01.160=-9</property>
    <property name="mlt_service">volume</property>
    <property name="kdenlive_id">volume</property>
    <property name="kdenlive:collapsed">0</property>
   </filter>
   <filter id="filter115" in="00:01:02.120" out="00:01:03.160">
    <property name="window">75</property>
    <property name="max_gain">20dB</property>
    <property name="mlt_service">volume</property>
    <property name="kdenlive_id">fadeout</property>
    <property name="gain">1</property>
    <property name="end">0</property>
    <property name="kdenlive:collapsed">0</property>
   </filter>
  </entry>
  <blank length="00:00:02.400"/>
  <entry producer="chain41" in="00:00:04.680" out="00:00:15.600">
   <property name="kdenlive:id">354</property>
   <filter id="filter116">
    <property name="window">75</property>
    <property name="max_gain">20dB</property>
    <property name="level">00:00:04.680=-9</property>
    <property name="mlt_service">volume</property>
    <property name="kdenlive_id">volume</property>
    <property name="kdenlive:collapsed">0</property>
   </filter>
   <filter id="filter117" in="00:00:14.560" out="00:00:15.600">
    <property name="window">75</property>
    <property name="max_gain">20dB</property>
    <property name="mlt_service">volume</property>
    <property name="kdenlive_id">fadeout</property>
    <property name="gain">1</property>
    <property name="end">0</property>
   </filter>
  </entry>
  <blank length="00:01:01.880"/>
  <entry producer="chain41" in="00:00:01.160" out="00:00:23.360">
   <property name="kdenlive:id">354</property>
   <filter id="filter118" in="00:00:01.160" out="00:00:02.160">
    <property name="window">75</property>
    <property name="max_gain">20dB</property>
    <property name="mlt_service">volume</property>
    <property name="kdenlive_id">fadein</property>
    <property name="gain">0</property>
    <property name="end">1</property>
   </filter>
   <filter id="filter119">
    <property name="window">75</property>
    <property name="max_gain">20dB</property>
    <property name="level">00:00:01.160=-9</property>
    <property name="mlt_service">volume</property>
    <property name="kdenlive_id">volume</property>
   </filter>
   <filter id="filter120" in="00:00:22.320" out="00:00:23.360">
    <property name="window">75</property>
    <property name="max_gain">20dB</property>
    <property name="mlt_service">volume</property>
    <property name="kdenlive_id">fadeout</property>
    <property name="gain">1</property>
    <property name="end">0</property>
   </filter>
  </entry>
  <blank length="00:00:46.960"/>
  <entry producer="chain41" in="00:00:01.160" out="00:01:04.680">
   <property name="kdenlive:id">354</property>
   <filter id="filter121" in="00:00:01.160" out="00:00:02.160">
    <property name="window">75</property>
    <property name="max_gain">20dB</property>
    <property name="mlt_service">volume</property>
    <property name="kdenlive_id">fadein</property>
    <property name="gain">0</property>
    <property name="end">1</property>
    <property name="kdenlive:collapsed">0</property>
   </filter>
   <filter id="filter122">
    <property name="window">75</property>
    <property name="max_gain">20dB</property>
    <property name="level">00:00:01.160=-9</property>
    <property name="mlt_service">volume</property>
    <property name="kdenlive_id">volume</property>
    <property name="kdenlive:collapsed">0</property>
   </filter>
   <filter id="filter123" in="00:01:03.640" out="00:01:04.680">
    <property name="window">75</property>
    <property name="max_gain">20dB</property>
    <property name="mlt_service">volume</property>
    <property name="kdenlive_id">fadeout</property>
    <property name="gain">1</property>
    <property name="end">0</property>
    <property name="kdenlive:collapsed">0</property>
   </filter>
  </entry>
  <blank length="00:00:52.560"/>
  <entry producer="chain41" in="00:00:01.160" out="00:00:21.560">
   <property name="kdenlive:id">354</property>
   <filter id="filter124" in="00:00:01.160" out="00:00:02.160">
    <property name="window">75</property>
    <property name="max_gain">20dB</property>
    <property name="mlt_service">volume</property>
    <property name="kdenlive_id">fadein</property>
    <property name="gain">0</property>
    <property name="end">1</property>
   </filter>
   <filter id="filter125">
    <property name="window">75</property>
    <property name="max_gain">20dB</property>
    <property name="level">00:00:01.160=-9</property>
    <property name="mlt_service">volume</property>
    <property name="kdenlive_id">volume</property>
   </filter>
   <filter id="filter126" in="00:00:20.560" out="00:00:21.600">
    <property name="window">75</property>
    <property name="max_gain">20dB</property>
    <property name="mlt_service">volume</property>
    <property name="kdenlive_id">fadeout</property>
    <property name="gain">1</property>
    <property name="end">0</property>
   </filter>
  </entry>
  <blank length="00:01:19.960"/>
  <entry producer="chain41" in="00:00:01.160" out="00:00:15.360">
   <property name="kdenlive:id">354</property>
   <filter id="filter127" in="00:00:01.160" out="00:00:02.160">
    <property name="window">75</property>
    <property name="max_gain">20dB</property>
    <property name="mlt_service">volume</property>
    <property name="kdenlive_id">fadein</property>
    <property name="gain">0</property>
    <property name="end">1</property>
    <property name="kdenlive:collapsed">0</property>
   </filter>
   <filter id="filter128">
    <property name="window">75</property>
    <property name="max_gain">20dB</property>
    <property name="level">00:00:01.160=-9</property>
    <property name="mlt_service">volume</property>
    <property name="kdenlive_id">volume</property>
    <property name="kdenlive:collapsed">0</property>
   </filter>
   <filter id="filter129" in="00:00:14.360" out="00:00:15.400">
    <property name="window">75</property>
    <property name="max_gain">20dB</property>
    <property name="mlt_service">volume</property>
    <property name="kdenlive_id">fadeout</property>
    <property name="gain">1</property>
    <property name="end">0</property>
    <property name="kdenlive:collapsed">0</property>
   </filter>
  </entry>
  <blank length="00:00:22.920"/>
  <entry producer="chain41" in="00:00:01.160" out="00:01:04.680">
   <property name="kdenlive:id">354</property>
   <filter id="filter130" in="00:00:01.160" out="00:00:02.160">
    <property name="window">75</property>
    <property name="max_gain">20dB</property>
    <property name="mlt_service">volume</property>
    <property name="kdenlive_id">fadein</property>
    <property name="gain">0</property>
    <property name="end">1</property>
    <property name="kdenlive:collapsed">0</property>
   </filter>
   <filter id="filter131">
    <property name="window">75</property>
    <property name="max_gain">20dB</property>
    <property name="level">00:00:01.160=-9</property>
    <property name="mlt_service">volume</property>
    <property name="kdenlive_id">volume</property>
    <property name="kdenlive:collapsed">0</property>
   </filter>
   <filter id="filter132" in="00:01:03.680" out="00:01:04.720">
    <property name="window">75</property>
    <property name="max_gain">20dB</property>
    <property name="mlt_service">volume</property>
    <property name="kdenlive_id">fadeout</property>
    <property name="gain">1</property>
    <property name="end">0</property>
    <property name="kdenlive:collapsed">0</property>
   </filter>
  </entry>
  <blank length="00:01:14.400"/>
  <entry producer="chain42" in="00:00:00.000" out="00:00:06.800">
   <property name="kdenlive:id">874</property>
   <filter id="filter133" out="00:00:02.040">
    <property name="window">75</property>
    <property name="max_gain">20dB</property>
    <property name="mlt_service">volume</property>
    <property name="kdenlive_id">fadein</property>
    <property name="gain">0</property>
    <property name="end">1</property>
    <property name="kdenlive:collapsed">0</property>
   </filter>
   <filter id="filter134">
    <property name="window">75</property>
    <property name="max_gain">20dB</property>
    <property name="level">00:00:00.000=-29</property>
    <property name="mlt_service">volume</property>
    <property name="kdenlive_id">volume</property>
   </filter>
   <filter id="filter135" in="00:00:05.240" out="00:00:06.800">
    <property name="window">75</property>
    <property name="max_gain">20dB</property>
    <property name="mlt_service">volume</property>
    <property name="kdenlive_id">fadeout</property>
    <property name="gain">1</property>
    <property name="end">0</property>
   </filter>
  </entry>
  <blank length="00:00:05.200"/>
  <entry producer="chain43" in="00:00:12.000" out="00:00:13.600">
   <property name="kdenlive:id">876</property>
   <property name="kdenlive:activeeffect">0</property>
   <filter id="filter136">
    <property name="window">75</property>
    <property name="max_gain">20dB</property>
    <property name="level">00:00:12.000=-21</property>
    <property name="mlt_service">volume</property>
    <property name="kdenlive_id">volume</property>
    <property name="kdenlive:collapsed">0</property>
   </filter>
  </entry>
  <blank length="00:00:07.240"/>
  <entry producer="chain44" in="00:00:00.000" out="00:00:11.440">
   <property name="kdenlive:id">878</property>
   <property name="kdenlive:activeeffect">1</property>
   <filter id="filter137" out="00:00:02.160">
    <property name="window">75</property>
    <property name="max_gain">20dB</property>
    <property name="mlt_service">volume</property>
    <property name="kdenlive_id">fadein</property>
    <property name="gain">0</property>
    <property name="end">1</property>
    <property name="kdenlive:collapsed">0</property>
   </filter>
   <filter id="filter138">
    <property name="window">75</property>
    <property name="max_gain">20dB</property>
    <property name="level">00:00:00.000=-10</property>
    <property name="mlt_service">volume</property>
    <property name="kdenlive_id">volume</property>
    <property name="kdenlive:collapsed">0</property>
   </filter>
   <filter id="filter139" in="00:00:09.240" out="00:00:11.440">
    <property name="window">75</property>
    <property name="max_gain">20dB</property>
    <property name="mlt_service">volume</property>
    <property name="kdenlive_id">fadeout</property>
    <property name="gain">1</property>
    <property name="end">0</property>
   </filter>
  </entry>
  <blank length="00:00:09.600"/>
  <entry producer="chain45" in="00:00:00.000" out="00:00:04.360">
   <property name="kdenlive:id">881</property>
   <property name="kdenlive:activeeffect">1</property>
   <filter id="filter140" out="00:00:00.920">
    <property name="window">75</property>
    <property name="max_gain">20dB</property>
    <property name="mlt_service">volume</property>
    <property name="kdenlive_id">fadein</property>
    <property name="gain">0</property>
    <property name="end">1</property>
    <property name="kdenlive:collapsed">0</property>
   </filter>
   <filter id="filter141">
    <property name="window">75</property>
    <property name="max_gain">20dB</property>
    <property name="level">00:00:00.000=-28</property>
    <property name="mlt_service">volume</property>
    <property name="kdenlive_id">volume</property>
    <property name="kdenlive:collapsed">0</property>
   </filter>
  </entry>
  <entry producer="chain45" in="00:00:00.000" out="00:00:04.360">
   <property name="kdenlive:id">881</property>
   <filter id="filter142" out="00:00:00.920">
    <property name="window">75</property>
    <property name="max_gain">20dB</property>
    <property name="mlt_service">volume</property>
    <property name="kdenlive_id">fadein</property>
    <property name="gain">0</property>
    <property name="end">1</property>
    <property name="kdenlive:collapsed">0</property>
   </filter>
   <filter id="filter143">
    <property name="window">75</property>
    <property name="max_gain">20dB</property>
    <property name="level">00:00:00.000=-28</property>
    <property name="mlt_service">volume</property>
    <property name="kdenlive_id">volume</property>
    <property name="kdenlive:collapsed">0</property>
   </filter>
  </entry>
  <blank length="00:00:11.160"/>
  <entry producer="chain46" in="00:00:20.120" out="00:00:25.800">
   <property name="kdenlive:id">883</property>
   <filter id="filter144">
    <property name="window">75</property>
    <property name="max_gain">20dB</property>
    <property name="level">00:00:20.120=-18</property>
    <property name="mlt_service">volume</property>
    <property name="kdenlive_id">volume</property>
    <property name="kdenlive:collapsed">0</property>
   </filter>
   <filter id="filter145" in="00:00:20.120" out="00:00:22.040">
    <property name="window">75</property>
    <property name="max_gain">20dB</property>
    <property name="mlt_service">volume</property>
    <property name="kdenlive_id">fadein</property>
    <property name="gain">0</property>
    <property name="end">1</property>
    <property name="kdenlive:collapsed">0</property>
   </filter>
   <filter id="filter146" in="00:00:24.600" out="00:00:25.800">
    <property name="window">75</property>
    <property name="max_gain">20dB</property>
    <property name="mlt_service">volume</property>
    <property name="kdenlive_id">fadeout</property>
    <property name="gain">1</property>
    <property name="end">0</property>
    <property name="kdenlive:collapsed">0</property>
   </filter>
  </entry>
  <blank length="00:00:07.880"/>
  <entry producer="chain48" in="00:00:00.000" out="00:02:48.160">
   <property name="kdenlive:id">888</property>
   <property name="kdenlive:activeeffect">1</property>
   <filter id="filter147" out="00:00:18.120">
    <property name="window">75</property>
    <property name="max_gain">20dB</property>
    <property name="mlt_service">volume</property>
    <property name="kdenlive_id">fadein</property>
    <property name="gain">0</property>
    <property name="end">1</property>
    <property name="kdenlive:collapsed">0</property>
   </filter>
   <filter id="filter148">
    <property name="window">75</property>
    <property name="max_gain">20dB</property>
    <property name="level">00:00:00.000=-31</property>
    <property name="mlt_service">volume</property>
    <property name="kdenlive_id">volume</property>
    <property name="kdenlive:collapsed">0</property>
   </filter>
  </entry>
 </playlist>
 <playlist id="playlist5">
  <property name="kdenlive:audio_track">1</property>
 </playlist>
 <tractor id="tractor2" in="00:00:00.000" out="01:14:06.680">
  <property name="kdenlive:audio_track">1</property>
  <property name="kdenlive:trackheight">67</property>
  <property name="kdenlive:timeline_active">1</property>
  <property name="kdenlive:collapsed">0</property>
  <property name="kdenlive:thumbs_format"/>
  <property name="kdenlive:audio_rec"/>
  <track hide="video" producer="playlist4"/>
  <track hide="video" producer="playlist5"/>
  <filter id="filter149">
   <property name="window">75</property>
   <property name="max_gain">20dB</property>
   <property name="mlt_service">volume</property>
   <property name="internal_added">237</property>
   <property name="disable">1</property>
  </filter>
  <filter id="filter150">
   <property name="channel">-1</property>
   <property name="mlt_service">panner</property>
   <property name="internal_added">237</property>
   <property name="start">0.5</property>
   <property name="disable">1</property>
  </filter>
  <filter id="filter151">
   <property name="iec_scale">0</property>
   <property name="mlt_service">audiolevel</property>
   <property name="dbpeak">1</property>
   <property name="disable">1</property>
  </filter>
 </tractor>
 <chain id="chain65" out="00:30:00.000">
  <property name="length">45001</property>
  <property name="eof">pause</property>
  <property name="resource">/home/liquidzulu/Music/Castle Theme - Super Mario World Music Extended [FPurNn9rQoA].mp3</property>
  <property name="mlt_service">avformat-novalidate</property>
  <property name="seekable">1</property>
  <property name="audio_index">0</property>
  <property name="video_index">-1</property>
  <property name="kdenlive:clipname"/>
  <property name="kdenlive:clip_type">1</property>
  <property name="kdenlive:folderid">5</property>
  <property name="kdenlive:id">4</property>
  <property name="kdenlive:file_size">31748061</property>
  <property name="kdenlive:file_hash">65fb7a5a491ef8ed7960ffb71409dbca</property>
  <property name="kdenlive:audio_max0">247</property>
  <property name="meta.media.nb_streams">1</property>
  <property name="meta.media.0.stream.type">audio</property>
  <property name="meta.media.0.codec.sample_fmt">fltp</property>
  <property name="meta.media.0.codec.sample_rate">48000</property>
  <property name="meta.media.0.codec.channels">2</property>
  <property name="meta.media.0.codec.name">mp3float</property>
  <property name="meta.media.0.codec.long_name">MP3 (MPEG audio layer 3)</property>
  <property name="meta.media.0.codec.bit_rate">141099</property>
  <property name="meta.attr.0.stream.encoder.markup">Lavc59.37</property>
  <property name="meta.attr.encoder.markup">Lavf59.27.100</property>
  <property name="xml">was here</property>
  <property name="set.test_audio">0</property>
  <property name="set.test_image">1</property>
  <property name="mute_on_pause">1</property>
 </chain>
 <chain id="chain66" out="00:02:14.920">
  <property name="length">3374</property>
  <property name="eof">pause</property>
  <property name="resource">/home/liquidzulu/Music/Richard Carter - Le Monde [Ne4od9aIs-I].mp3</property>
  <property name="mlt_service">avformat-novalidate</property>
  <property name="seekable">1</property>
  <property name="audio_index">0</property>
  <property name="video_index">-1</property>
  <property name="kdenlive:clipname"/>
  <property name="kdenlive:clip_type">1</property>
  <property name="kdenlive:folderid">-1</property>
  <property name="kdenlive:id">229</property>
  <property name="kdenlive:file_size">2041605</property>
  <property name="kdenlive:file_hash">fc7d6d7add9d551bfbfeab6f3c646538</property>
  <property name="kdenlive:audio_max0">235</property>
  <property name="meta.media.nb_streams">1</property>
  <property name="meta.media.0.stream.type">audio</property>
  <property name="meta.media.0.codec.sample_fmt">fltp</property>
  <property name="meta.media.0.codec.sample_rate">48000</property>
  <property name="meta.media.0.codec.channels">2</property>
  <property name="meta.media.0.codec.name">mp3float</property>
  <property name="meta.media.0.codec.long_name">MP3 (MPEG audio layer 3)</property>
  <property name="meta.media.0.codec.bit_rate">121024</property>
  <property name="meta.attr.0.stream.encoder.markup">Lavc59.37</property>
  <property name="meta.attr.encoder.markup">Lavf59.27.100</property>
  <property name="xml">was here</property>
  <property name="set.test_audio">0</property>
  <property name="set.test_image">1</property>
  <property name="mute_on_pause">1</property>
 </chain>
 <chain id="chain67" out="00:02:01.520">
  <property name="length">3039</property>
  <property name="eof">pause</property>
  <property name="resource">/home/liquidzulu/Music/lemmino/Encounters [885936550].flac</property>
  <property name="mlt_service">avformat-novalidate</property>
  <property name="seekable">1</property>
  <property name="audio_index">0</property>
  <property name="video_index">-1</property>
  <property name="kdenlive:clipname"/>
  <property name="kdenlive:clip_type">1</property>
  <property name="kdenlive:folderid">-1</property>
  <property name="kdenlive:id">309</property>
  <property name="kdenlive:file_size">8342133</property>
  <property name="kdenlive:file_hash">e7ab0a022df4ee4ba8c33a567aef5c8c</property>
  <property name="kdenlive:audio_max0">256</property>
  <property name="meta.media.nb_streams">1</property>
  <property name="meta.media.0.stream.type">audio</property>
  <property name="meta.media.0.codec.sample_fmt">s16</property>
  <property name="meta.media.0.codec.sample_rate">48000</property>
  <property name="meta.media.0.codec.channels">2</property>
  <property name="meta.media.0.codec.name">flac</property>
  <property name="meta.media.0.codec.long_name">FLAC (Free Lossless Audio Codec)</property>
  <property name="meta.media.0.codec.bit_rate">0</property>
  <property name="xml">was here</property>
  <property name="set.test_audio">0</property>
  <property name="set.test_image">1</property>
  <property name="mute_on_pause">1</property>
 </chain>
 <chain id="chain68" out="00:00:08.160">
  <property name="length">205</property>
  <property name="eof">pause</property>
  <property name="resource">/home/liquidzulu/Music/sfx/Cassette Tape - Sound Effect [VRwxgYzRTBI].mp3</property>
  <property name="mlt_service">avformat-novalidate</property>
  <property name="seekable">1</property>
  <property name="audio_index">0</property>
  <property name="video_index">-1</property>
  <property name="kdenlive:clipname"/>
  <property name="kdenlive:clip_type">1</property>
  <property name="kdenlive:folderid">-1</property>
  <property name="kdenlive:id">352</property>
  <property name="kdenlive:file_size">83181</property>
  <property name="kdenlive:file_hash">609ccfd5921db7e187374ea8a50424ba</property>
  <property name="kdenlive:audio_max0">171</property>
  <property name="meta.media.nb_streams">1</property>
  <property name="meta.media.0.stream.type">audio</property>
  <property name="meta.media.0.codec.sample_fmt">fltp</property>
  <property name="meta.media.0.codec.sample_rate">48000</property>
  <property name="meta.media.0.codec.channels">2</property>
  <property name="meta.media.0.codec.name">mp3float</property>
  <property name="meta.media.0.codec.long_name">MP3 (MPEG audio layer 3)</property>
  <property name="meta.media.0.codec.bit_rate">81267</property>
  <property name="meta.attr.0.stream.encoder.markup">Lavc59.37</property>
  <property name="meta.attr.encoder.markup">Lavf59.27.100</property>
  <property name="xml">was here</property>
  <property name="set.test_audio">0</property>
  <property name="set.test_image">1</property>
  <property name="mute_on_pause">1</property>
 </chain>
 <chain id="chain71" out="00:02:47.720">
  <property name="length">4194</property>
  <property name="eof">pause</property>
  <property name="resource">/home/liquidzulu/Music/lemmino/Blackout [885933916].flac</property>
  <property name="mlt_service">avformat-novalidate</property>
  <property name="seekable">1</property>
  <property name="audio_index">0</property>
  <property name="video_index">-1</property>
  <property name="kdenlive:clipname"/>
  <property name="kdenlive:clip_type">1</property>
  <property name="kdenlive:folderid">-1</property>
  <property name="kdenlive:id">356</property>
  <property name="kdenlive:file_size">10387741</property>
  <property name="kdenlive:file_hash">86ca7ab3317fa7dfdd1c0f16f0cbd8a6</property>
  <property name="meta.media.nb_streams">1</property>
  <property name="meta.media.0.stream.type">audio</property>
  <property name="meta.media.0.codec.sample_fmt">s16</property>
  <property name="meta.media.0.codec.sample_rate">48000</property>
  <property name="meta.media.0.codec.channels">2</property>
  <property name="meta.media.0.codec.name">flac</property>
  <property name="meta.media.0.codec.long_name">FLAC (Free Lossless Audio Codec)</property>
  <property name="meta.media.0.codec.bit_rate">0</property>
  <property name="xml">was here</property>
  <property name="set.test_audio">0</property>
  <property name="set.test_image">1</property>
  <property name="mute_on_pause">1</property>
 </chain>
 <chain id="chain72" out="00:02:55.960">
  <property name="length">4400</property>
  <property name="eof">pause</property>
  <property name="resource">/home/liquidzulu/Music/lemmino/Nocturnal [1241348191].flac</property>
  <property name="mlt_service">avformat-novalidate</property>
  <property name="seekable">1</property>
  <property name="audio_index">0</property>
  <property name="video_index">-1</property>
  <property name="kdenlive:clipname"/>
  <property name="kdenlive:clip_type">1</property>
  <property name="kdenlive:folderid">-1</property>
  <property name="kdenlive:id">393</property>
  <property name="kdenlive:file_size">15423616</property>
  <property name="kdenlive:file_hash">84819e802210dc0810dabfa675a56b87</property>
  <property name="meta.media.nb_streams">1</property>
  <property name="meta.media.0.stream.type">audio</property>
  <property name="meta.media.0.codec.sample_fmt">s16</property>
  <property name="meta.media.0.codec.sample_rate">48000</property>
  <property name="meta.media.0.codec.channels">2</property>
  <property name="meta.media.0.codec.name">flac</property>
  <property name="meta.media.0.codec.long_name">FLAC (Free Lossless Audio Codec)</property>
  <property name="meta.media.0.codec.bit_rate">0</property>
  <property name="xml">was here</property>
  <property name="set.test_audio">0</property>
  <property name="set.test_image">1</property>
  <property name="mute_on_pause">1</property>
 </chain>
 <chain id="chain73" out="00:02:48.920">
  <property name="length">4224</property>
  <property name="eof">pause</property>
  <property name="resource">audio/quotes/ai-art-quote/miles johnston.00.50.33.mp3</property>
  <property name="mlt_service">avformat-novalidate</property>
  <property name="seekable">1</property>
  <property name="audio_index">0</property>
  <property name="video_index">-1</property>
  <property name="kdenlive:clipname"/>
  <property name="kdenlive:clip_type">1</property>
  <property name="kdenlive:folderid">-1</property>
  <property name="kdenlive:id">424</property>
  <property name="kdenlive:file_size">4055096</property>
  <property name="kdenlive:file_hash">57c2d840ab5548dcaaa68b0282d8db19</property>
  <property name="kdenlive:audio_max0">199</property>
  <property name="meta.media.nb_streams">1</property>
  <property name="meta.media.0.stream.type">audio</property>
  <property name="meta.media.0.codec.sample_fmt">fltp</property>
  <property name="meta.media.0.codec.sample_rate">44100</property>
  <property name="meta.media.0.codec.channels">2</property>
  <property name="meta.media.0.codec.name">mp3float</property>
  <property name="meta.media.0.codec.long_name">MP3 (MPEG audio layer 3)</property>
  <property name="meta.media.0.codec.bit_rate">192000</property>
  <property name="meta.attr.encoded_by.markup">LAME in FL Studio 21</property>
  <property name="meta.attr.date.markup">2023</property>
  <property name="xml">was here</property>
  <property name="set.test_audio">0</property>
  <property name="set.test_image">1</property>
  <property name="mute_on_pause">1</property>
 </chain>
 <chain id="chain74" out="00:02:48.920">
  <property name="length">4224</property>
  <property name="eof">pause</property>
  <property name="resource">audio/quotes/ai-art-quote/out/ai art istebrak.01.44.42.mp3</property>
  <property name="mlt_service">avformat-novalidate</property>
  <property name="seekable">1</property>
  <property name="audio_index">0</property>
  <property name="video_index">-1</property>
  <property name="kdenlive:clipname"/>
  <property name="kdenlive:clip_type">1</property>
  <property name="kdenlive:folderid">-1</property>
  <property name="kdenlive:id">448</property>
  <property name="kdenlive:file_size">4055096</property>
  <property name="kdenlive:file_hash">21e2d3f96f6bb322eb82c1d81f67fec1</property>
  <property name="kdenlive:audio_max0">198</property>
  <property name="meta.media.nb_streams">1</property>
  <property name="meta.media.0.stream.type">audio</property>
  <property name="meta.media.0.codec.sample_fmt">fltp</property>
  <property name="meta.media.0.codec.sample_rate">44100</property>
  <property name="meta.media.0.codec.channels">2</property>
  <property name="meta.media.0.codec.name">mp3float</property>
  <property name="meta.media.0.codec.long_name">MP3 (MPEG audio layer 3)</property>
  <property name="meta.media.0.codec.bit_rate">192000</property>
  <property name="meta.attr.encoded_by.markup">LAME in FL Studio 21</property>
  <property name="meta.attr.date.markup">2023</property>
  <property name="xml">was here</property>
  <property name="set.test_audio">0</property>
  <property name="set.test_image">1</property>
  <property name="mute_on_pause">1</property>
 </chain>
 <chain id="chain75" out="00:02:12.000">
  <property name="length">3301</property>
  <property name="eof">pause</property>
  <property name="resource">/home/liquidzulu/Music/lemmino/Siberian [885921691].flac</property>
  <property name="mlt_service">avformat-novalidate</property>
  <property name="seekable">1</property>
  <property name="audio_index">0</property>
  <property name="video_index">-1</property>
  <property name="kdenlive:clipname"/>
  <property name="kdenlive:clip_type">1</property>
  <property name="kdenlive:folderid">-1</property>
  <property name="kdenlive:id">497</property>
  <property name="kdenlive:file_size">10231273</property>
  <property name="kdenlive:file_hash">dbf7c55b6ecccb6ec15ec34e2b3c2621</property>
  <property name="meta.media.nb_streams">1</property>
  <property name="meta.media.0.stream.type">audio</property>
  <property name="meta.media.0.codec.sample_fmt">s16</property>
  <property name="meta.media.0.codec.sample_rate">48000</property>
  <property name="meta.media.0.codec.channels">2</property>
  <property name="meta.media.0.codec.name">flac</property>
  <property name="meta.media.0.codec.long_name">FLAC (Free Lossless Audio Codec)</property>
  <property name="meta.media.0.codec.bit_rate">0</property>
  <property name="xml">was here</property>
  <property name="set.test_audio">0</property>
  <property name="set.test_image">1</property>
  <property name="mute_on_pause">1</property>
 </chain>
 <chain id="chain76" out="00:02:09.480">
  <property name="length">3238</property>
  <property name="eof">pause</property>
  <property name="resource">/home/liquidzulu/Music/lemmino/Aloft [885935926].flac</property>
  <property name="mlt_service">avformat-novalidate</property>
  <property name="seekable">1</property>
  <property name="audio_index">0</property>
  <property name="video_index">-1</property>
  <property name="kdenlive:clipname"/>
  <property name="kdenlive:clip_type">1</property>
  <property name="kdenlive:folderid">5</property>
  <property name="kdenlive:id">463</property>
  <property name="kdenlive:file_size">5287114</property>
  <property name="kdenlive:file_hash">33cbcb96995039d5eaef9cdb49342a81</property>
  <property name="kdenlive:audio_max0">216</property>
  <property name="meta.media.nb_streams">1</property>
  <property name="meta.media.0.stream.type">audio</property>
  <property name="meta.media.0.codec.sample_fmt">s16</property>
  <property name="meta.media.0.codec.sample_rate">48000</property>
  <property name="meta.media.0.codec.channels">2</property>
  <property name="meta.media.0.codec.name">flac</property>
  <property name="meta.media.0.codec.long_name">FLAC (Free Lossless Audio Codec)</property>
  <property name="meta.media.0.codec.bit_rate">0</property>
  <property name="xml">was here</property>
  <property name="set.test_audio">0</property>
  <property name="set.test_image">1</property>
  <property name="mute_on_pause">1</property>
 </chain>
 <chain id="chain77" out="00:04:30.000">
  <property name="length">6751</property>
  <property name="eof">pause</property>
  <property name="resource">/home/liquidzulu/Music/lifeformed/ï¼‚Forest Spirit Friendsï¼‚ - Lifeformed &amp; Vidboy (Groupees Collaboration) [178536307].mp3</property>
  <property name="mlt_service">avformat-novalidate</property>
  <property name="seekable">1</property>
  <property name="audio_index">0</property>
  <property name="video_index">-1</property>
  <property name="kdenlive:clipname"/>
  <property name="kdenlive:clip_type">1</property>
  <property name="kdenlive:folderid">-1</property>
  <property name="kdenlive:id">626</property>
  <property name="kdenlive:file_size">4320861</property>
  <property name="kdenlive:file_hash">4fec038716d68a4ccd0e23a4482b63ea</property>
  <property name="kdenlive:audio_max0">230</property>
  <property name="meta.media.nb_streams">1</property>
  <property name="meta.media.0.stream.type">audio</property>
  <property name="meta.media.0.codec.sample_fmt">fltp</property>
  <property name="meta.media.0.codec.sample_rate">44100</property>
  <property name="meta.media.0.codec.channels">2</property>
  <property name="meta.media.0.codec.name">mp3float</property>
  <property name="meta.media.0.codec.long_name">MP3 (MPEG audio layer 3)</property>
  <property name="meta.media.0.codec.bit_rate">128000</property>
  <property name="meta.attr.0.stream.encoder.markup">LAME3.99r</property>
  <property name="xml">was here</property>
  <property name="set.test_audio">0</property>
  <property name="set.test_image">1</property>
  <property name="mute_on_pause">1</property>
 </chain>
 <chain id="chain78" out="00:02:48.920">
  <property name="length">4224</property>
  <property name="eof">pause</property>
  <property name="resource">audio/quotes/ai-art-quote/creatives view.00.35.10.mp3</property>
  <property name="mlt_service">avformat-novalidate</property>
  <property name="seekable">1</property>
  <property name="audio_index">0</property>
  <property name="video_index">-1</property>
  <property name="kdenlive:clipname"/>
  <property name="kdenlive:clip_type">1</property>
  <property name="kdenlive:folderid">-1</property>
  <property name="kdenlive:id">690</property>
  <property name="kdenlive:file_size">4055096</property>
  <property name="kdenlive:file_hash">2576d7199780ffeacceb019ee947e4ad</property>
  <property name="kdenlive:audio_max0">202</property>
  <property name="meta.media.nb_streams">1</property>
  <property name="meta.media.0.stream.type">audio</property>
  <property name="meta.media.0.codec.sample_fmt">fltp</property>
  <property name="meta.media.0.codec.sample_rate">44100</property>
  <property name="meta.media.0.codec.channels">2</property>
  <property name="meta.media.0.codec.name">mp3float</property>
  <property name="meta.media.0.codec.long_name">MP3 (MPEG audio layer 3)</property>
  <property name="meta.media.0.codec.bit_rate">192000</property>
  <property name="meta.attr.encoded_by.markup">LAME in FL Studio 21</property>
  <property name="meta.attr.date.markup">2023</property>
  <property name="xml">was here</property>
  <property name="set.test_audio">0</property>
  <property name="set.test_image">1</property>
  <property name="mute_on_pause">1</property>
 </chain>
 <chain id="chain79" out="00:02:48.920">
  <property name="length">4224</property>
  <property name="eof">pause</property>
  <property name="resource">audio/quotes/ai-art-quote/out/ai art istebrak.01.19.22.mp3</property>
  <property name="mlt_service">avformat-novalidate</property>
  <property name="seekable">1</property>
  <property name="audio_index">0</property>
  <property name="video_index">-1</property>
  <property name="kdenlive:clipname"/>
  <property name="kdenlive:clip_type">1</property>
  <property name="kdenlive:folderid">-1</property>
  <property name="kdenlive:id">767</property>
  <property name="kdenlive:file_size">4055096</property>
  <property name="kdenlive:file_hash">b46b4bf4c6fd0f9356b89974a75d0c50</property>
  <property name="kdenlive:audio_max0">202</property>
  <property name="meta.media.nb_streams">1</property>
  <property name="meta.media.0.stream.type">audio</property>
  <property name="meta.media.0.codec.sample_fmt">fltp</property>
  <property name="meta.media.0.codec.sample_rate">44100</property>
  <property name="meta.media.0.codec.channels">2</property>
  <property name="meta.media.0.codec.name">mp3float</property>
  <property name="meta.media.0.codec.long_name">MP3 (MPEG audio layer 3)</property>
  <property name="meta.media.0.codec.bit_rate">192000</property>
  <property name="meta.attr.encoded_by.markup">LAME in FL Studio 21</property>
  <property name="meta.attr.date.markup">2023</property>
  <property name="xml">was here</property>
  <property name="set.test_audio">0</property>
  <property name="set.test_image">1</property>
  <property name="mute_on_pause">1</property>
 </chain>
 <chain id="chain80" out="00:01:04.680">
  <property name="length">1618</property>
  <property name="eof">pause</property>
  <property name="resource">/home/liquidzulu/Music/sfx/Cassette Tape Spinning + Tape Hiss Sound - Analog Effects (1 minute) [mVi7eVQRgH4].mp3</property>
  <property name="mlt_service">avformat-novalidate</property>
  <property name="seekable">1</property>
  <property name="audio_index">0</property>
  <property name="video_index">-1</property>
  <property name="kdenlive:clipname"/>
  <property name="kdenlive:clip_type">1</property>
  <property name="kdenlive:folderid">228</property>
  <property name="kdenlive:id">354</property>
  <property name="kdenlive:file_size">528045</property>
  <property name="kdenlive:file_hash">8d059ee10b765f2ce3fb75636759334a</property>
  <property name="kdenlive:audio_max0">104</property>
  <property name="meta.media.nb_streams">1</property>
  <property name="meta.media.0.stream.type">audio</property>
  <property name="meta.media.0.codec.sample_fmt">fltp</property>
  <property name="meta.media.0.codec.sample_rate">48000</property>
  <property name="meta.media.0.codec.channels">2</property>
  <property name="meta.media.0.codec.name">mp3float</property>
  <property name="meta.media.0.codec.long_name">MP3 (MPEG audio layer 3)</property>
  <property name="meta.media.0.codec.bit_rate">65282</property>
  <property name="meta.attr.0.stream.encoder.markup">Lavc59.37</property>
  <property name="meta.attr.encoder.markup">Lavf59.27.100</property>
  <property name="xml">was here</property>
  <property name="set.test_audio">0</property>
  <property name="set.test_image">1</property>
  <property name="mute_on_pause">1</property>
 </chain>
 <chain id="chain81" out="00:02:48.920">
  <property name="length">4224</property>
  <property name="eof">pause</property>
  <property name="resource">audio/quotes/ai-art-quote/out/ai art istebrak.01.28.07.mp3</property>
  <property name="mlt_service">avformat-novalidate</property>
  <property name="seekable">1</property>
  <property name="audio_index">0</property>
  <property name="video_index">-1</property>
  <property name="kdenlive:clipname"/>
  <property name="kdenlive:clip_type">1</property>
  <property name="kdenlive:folderid">350</property>
  <property name="kdenlive:id">768</property>
  <property name="kdenlive:file_size">4055096</property>
  <property name="kdenlive:file_hash">4e8bccab534c5f3aeb0515d24c09492b</property>
  <property name="kdenlive:audio_max0">199</property>
  <property name="meta.media.nb_streams">1</property>
  <property name="meta.media.0.stream.type">audio</property>
  <property name="meta.media.0.codec.sample_fmt">fltp</property>
  <property name="meta.media.0.codec.sample_rate">44100</property>
  <property name="meta.media.0.codec.channels">2</property>
  <property name="meta.media.0.codec.name">mp3float</property>
  <property name="meta.media.0.codec.long_name">MP3 (MPEG audio layer 3)</property>
  <property name="meta.media.0.codec.bit_rate">192000</property>
  <property name="meta.attr.encoded_by.markup">LAME in FL Studio 21</property>
  <property name="meta.attr.date.markup">2023</property>
  <property name="xml">was here</property>
  <property name="set.test_audio">0</property>
  <property name="set.test_image">1</property>
  <property name="mute_on_pause">1</property>
 </chain>
 <chain id="chain82" out="00:02:48.920">
  <property name="length">4224</property>
  <property name="eof">pause</property>
  <property name="resource">audio/quotes/ai-art-quote/out/ai ethics.00.17.19.mp3</property>
  <property name="mlt_service">avformat-novalidate</property>
  <property name="seekable">1</property>
  <property name="audio_index">0</property>
  <property name="video_index">-1</property>
  <property name="kdenlive:clipname"/>
  <property name="kdenlive:clip_type">1</property>
  <property name="kdenlive:folderid">-1</property>
  <property name="kdenlive:id">794</property>
  <property name="kdenlive:file_size">4055096</property>
  <property name="kdenlive:file_hash">6643433250abaefa2acfaaa91bf5aec1</property>
  <property name="kdenlive:audio_max0">199</property>
  <property name="meta.media.nb_streams">1</property>
  <property name="meta.media.0.stream.type">audio</property>
  <property name="meta.media.0.codec.sample_fmt">fltp</property>
  <property name="meta.media.0.codec.sample_rate">44100</property>
  <property name="meta.media.0.codec.channels">2</property>
  <property name="meta.media.0.codec.name">mp3float</property>
  <property name="meta.media.0.codec.long_name">MP3 (MPEG audio layer 3)</property>
  <property name="meta.media.0.codec.bit_rate">192000</property>
  <property name="meta.attr.encoded_by.markup">LAME in FL Studio 21</property>
  <property name="meta.attr.date.markup">2023</property>
  <property name="xml">was here</property>
  <property name="set.test_audio">0</property>
  <property name="set.test_image">1</property>
  <property name="mute_on_pause">1</property>
 </chain>
 <chain id="chain83" out="00:02:48.920">
  <property name="length">4224</property>
  <property name="eof">pause</property>
  <property name="resource">audio/quotes/ai-art-quote/what ai developers.01.03.25.mp3</property>
  <property name="mlt_service">avformat-novalidate</property>
  <property name="seekable">1</property>
  <property name="audio_index">0</property>
  <property name="video_index">-1</property>
  <property name="kdenlive:clipname"/>
  <property name="kdenlive:clip_type">1</property>
  <property name="kdenlive:folderid">-1</property>
  <property name="kdenlive:id">804</property>
  <property name="kdenlive:file_size">4055096</property>
  <property name="kdenlive:file_hash">c28b889bd25e96aeffbd5ecc562bef59</property>
  <property name="kdenlive:audio_max0">201</property>
  <property name="meta.media.nb_streams">1</property>
  <property name="meta.media.0.stream.type">audio</property>
  <property name="meta.media.0.codec.sample_fmt">fltp</property>
  <property name="meta.media.0.codec.sample_rate">44100</property>
  <property name="meta.media.0.codec.channels">2</property>
  <property name="meta.media.0.codec.name">mp3float</property>
  <property name="meta.media.0.codec.long_name">MP3 (MPEG audio layer 3)</property>
  <property name="meta.media.0.codec.bit_rate">192000</property>
  <property name="meta.attr.encoded_by.markup">LAME in FL Studio 21</property>
  <property name="meta.attr.date.markup">2023</property>
  <property name="xml">was here</property>
  <property name="set.test_audio">0</property>
  <property name="set.test_image">1</property>
  <property name="mute_on_pause">1</property>
 </chain>
 <chain id="chain84" out="00:02:48.920">
  <property name="length">4224</property>
  <property name="eof">pause</property>
  <property name="resource">audio/quotes/ai-art-quote/no ai does not democratise art.00.03.51.mp3</property>
  <property name="mlt_service">avformat-novalidate</property>
  <property name="seekable">1</property>
  <property name="audio_index">0</property>
  <property name="video_index">-1</property>
  <property name="kdenlive:clipname"/>
  <property name="kdenlive:clip_type">1</property>
  <property name="kdenlive:folderid">-1</property>
  <property name="kdenlive:id">825</property>
  <property name="kdenlive:file_size">4055096</property>
  <property name="kdenlive:file_hash">06dd861a3395587094d6814105439493</property>
  <property name="kdenlive:audio_max0">199</property>
  <property name="meta.media.nb_streams">1</property>
  <property name="meta.media.0.stream.type">audio</property>
  <property name="meta.media.0.codec.sample_fmt">fltp</property>
  <property name="meta.media.0.codec.sample_rate">44100</property>
  <property name="meta.media.0.codec.channels">2</property>
  <property name="meta.media.0.codec.name">mp3float</property>
  <property name="meta.media.0.codec.long_name">MP3 (MPEG audio layer 3)</property>
  <property name="meta.media.0.codec.bit_rate">192000</property>
  <property name="meta.attr.encoded_by.markup">LAME in FL Studio 21</property>
  <property name="meta.attr.date.markup">2023</property>
  <property name="xml">was here</property>
  <property name="set.test_audio">0</property>
  <property name="set.test_image">1</property>
  <property name="mute_on_pause">1</property>
 </chain>
 <chain id="chain85" out="00:02:48.920">
  <property name="length">4224</property>
  <property name="eof">pause</property>
  <property name="resource">audio/quotes/ai-art-quote/out/ai ethics.00.56.13.mp3</property>
  <property name="mlt_service">avformat-novalidate</property>
  <property name="seekable">1</property>
  <property name="audio_index">0</property>
  <property name="video_index">-1</property>
  <property name="mute_on_pause">0</property>
  <property name="kdenlive:clipname"/>
  <property name="kdenlive:clip_type">1</property>
  <property name="kdenlive:folderid">-1</property>
  <property name="kdenlive:id">844</property>
  <property name="kdenlive:file_size">4055096</property>
  <property name="kdenlive:file_hash">770c125c0591e074e7b3e6a96786d5f1</property>
  <property name="kdenlive:audio_max0">202</property>
  <property name="meta.media.nb_streams">1</property>
  <property name="meta.media.0.stream.type">audio</property>
  <property name="meta.media.0.codec.sample_fmt">fltp</property>
  <property name="meta.media.0.codec.sample_rate">44100</property>
  <property name="meta.media.0.codec.channels">2</property>
  <property name="meta.media.0.codec.name">mp3float</property>
  <property name="meta.media.0.codec.long_name">MP3 (MPEG audio layer 3)</property>
  <property name="meta.media.0.codec.bit_rate">192000</property>
  <property name="meta.attr.encoded_by.markup">LAME in FL Studio 21</property>
  <property name="meta.attr.date.markup">2023</property>
  <property name="xml">was here</property>
  <property name="set.test_audio">0</property>
  <property name="set.test_image">1</property>
 </chain>
 <chain id="chain86" out="00:00:26.080">
  <property name="length">653</property>
  <property name="eof">pause</property>
  <property name="resource">/home/liquidzulu/Music/sfx/Angry Crowd Sound Effect [HD] [ngp3RttqXl0].mp3</property>
  <property name="mlt_service">avformat-novalidate</property>
  <property name="seekable">1</property>
  <property name="audio_index">0</property>
  <property name="video_index">-1</property>
  <property name="mute_on_pause">0</property>
  <property name="kdenlive:clipname"/>
  <property name="kdenlive:clip_type">1</property>
  <property name="kdenlive:folderid">-1</property>
  <property name="kdenlive:id">873</property>
  <property name="kdenlive:file_size">387861</property>
  <property name="kdenlive:file_hash">4ca166f76555b8e741728bee9aec734b</property>
  <property name="kdenlive:audio_max0">213</property>
  <property name="meta.media.nb_streams">1</property>
  <property name="meta.media.0.stream.type">audio</property>
  <property name="meta.media.0.codec.sample_fmt">fltp</property>
  <property name="meta.media.0.codec.sample_rate">48000</property>
  <property name="meta.media.0.codec.channels">2</property>
  <property name="meta.media.0.codec.name">mp3float</property>
  <property name="meta.media.0.codec.long_name">MP3 (MPEG audio layer 3)</property>
  <property name="meta.media.0.codec.bit_rate">118816</property>
  <property name="meta.attr.0.stream.encoder.markup">Lavc59.37</property>
  <property name="meta.attr.encoder.markup">Lavf59.27.100</property>
  <property name="xml">was here</property>
  <property name="set.test_audio">0</property>
  <property name="set.test_image">1</property>
 </chain>
 <chain id="chain87" out="00:00:38.440">
  <property name="length">962</property>
  <property name="eof">pause</property>
  <property name="resource">/home/liquidzulu/Music/sfx/Gruesome Bones Breaking and Snapping ï½œ HQ Sound Effects [fSCAm9A-3Ko].mp3</property>
  <property name="mlt_service">avformat-novalidate</property>
  <property name="seekable">1</property>
  <property name="audio_index">0</property>
  <property name="video_index">-1</property>
  <property name="mute_on_pause">0</property>
  <property name="kdenlive:clipname"/>
  <property name="kdenlive:clip_type">1</property>
  <property name="kdenlive:folderid">-1</property>
  <property name="kdenlive:id">875</property>
  <property name="kdenlive:file_size">282789</property>
  <property name="kdenlive:file_hash">dc2fb80cb910154cb65475ae5d65f2e2</property>
  <property name="kdenlive:audio_max0">173</property>
  <property name="meta.media.nb_streams">1</property>
  <property name="meta.media.0.stream.type">audio</property>
  <property name="meta.media.0.codec.sample_fmt">fltp</property>
  <property name="meta.media.0.codec.sample_rate">48000</property>
  <property name="meta.media.0.codec.channels">2</property>
  <property name="meta.media.0.codec.name">mp3float</property>
  <property name="meta.media.0.codec.long_name">MP3 (MPEG audio layer 3)</property>
  <property name="meta.media.0.codec.bit_rate">58758</property>
  <property name="meta.attr.0.stream.encoder.markup">Lavc59.37</property>
  <property name="meta.attr.encoder.markup">Lavf59.27.100</property>
  <property name="xml">was here</property>
  <property name="set.test_audio">0</property>
  <property name="set.test_image">1</property>
 </chain>
 <chain id="chain88" out="00:00:04.480">
  <property name="length">113</property>
  <property name="eof">pause</property>
  <property name="resource">/home/liquidzulu/Music/sfx/Glass Breaking Sound Effect HD ï½œ Glass Shattering Sound Effect [TcnufvBffcY].mp3</property>
  <property name="mlt_service">avformat-novalidate</property>
  <property name="seekable">1</property>
  <property name="audio_index">0</property>
  <property name="video_index">-1</property>
  <property name="mute_on_pause">0</property>
  <property name="kdenlive:clipname"/>
  <property name="kdenlive:clip_type">1</property>
  <property name="kdenlive:folderid">-1</property>
  <property name="kdenlive:id">877</property>
  <property name="kdenlive:file_size">60045</property>
  <property name="kdenlive:file_hash">cae1d724c1e3d9c557cd5d7d31f85287</property>
  <property name="kdenlive:audio_max0">169</property>
  <property name="meta.media.nb_streams">1</property>
  <property name="meta.media.0.stream.type">audio</property>
  <property name="meta.media.0.codec.sample_fmt">fltp</property>
  <property name="meta.media.0.codec.sample_rate">48000</property>
  <property name="meta.media.0.codec.channels">2</property>
  <property name="meta.media.0.codec.name">mp3float</property>
  <property name="meta.media.0.codec.long_name">MP3 (MPEG audio layer 3)</property>
  <property name="meta.media.0.codec.bit_rate">106383</property>
  <property name="meta.attr.0.stream.encoder.markup">Lavc59.37</property>
  <property name="meta.attr.encoder.markup">Lavf59.27.100</property>
  <property name="xml">was here</property>
  <property name="set.test_audio">0</property>
  <property name="set.test_image">1</property>
 </chain>
 <chain id="chain89" out="00:00:55.840">
  <property name="length">1397</property>
  <property name="eof">pause</property>
  <property name="resource">/home/liquidzulu/Music/sfx/Vulture Sound Effects [IABBT-z3KFg].mp3</property>
  <property name="mlt_service">avformat-novalidate</property>
  <property name="seekable">1</property>
  <property name="audio_index">0</property>
  <property name="video_index">-1</property>
  <property name="mute_on_pause">0</property>
  <property name="kdenlive:clipname"/>
  <property name="kdenlive:clip_type">1</property>
  <property name="kdenlive:folderid">-1</property>
  <property name="kdenlive:id">879</property>
  <property name="kdenlive:file_size">577533</property>
  <property name="kdenlive:file_hash">f8f7643666d7e6ac6312936439651db3</property>
  <property name="kdenlive:audio_max0">224</property>
  <property name="meta.media.nb_streams">1</property>
  <property name="meta.media.0.stream.type">audio</property>
  <property name="meta.media.0.codec.sample_fmt">fltp</property>
  <property name="meta.media.0.codec.sample_rate">48000</property>
  <property name="meta.media.0.codec.channels">2</property>
  <property name="meta.media.0.codec.name">mp3float</property>
  <property name="meta.media.0.codec.long_name">MP3 (MPEG audio layer 3)</property>
  <property name="meta.media.0.codec.bit_rate">82652</property>
  <property name="meta.attr.0.stream.encoder.markup">Lavc59.37</property>
  <property name="meta.attr.encoder.markup">Lavf59.27.100</property>
  <property name="xml">was here</property>
  <property name="set.test_audio">0</property>
  <property name="set.test_image">1</property>
 </chain>
 <chain id="chain90" out="00:01:09.480">
  <property name="length">1738</property>
  <property name="eof">pause</property>
  <property name="resource">/home/liquidzulu/Music/sfx/Nature Sound Effects For YouTube Videos (No copyright Royalty-free audio) [vBi8FxvoYvo].mp3</property>
  <property name="mlt_service">avformat-novalidate</property>
  <property name="seekable">1</property>
  <property name="audio_index">0</property>
  <property name="video_index">-1</property>
  <property name="mute_on_pause">0</property>
  <property name="kdenlive:clipname"/>
  <property name="kdenlive:clip_type">1</property>
  <property name="kdenlive:folderid">-1</property>
  <property name="kdenlive:id">880</property>
  <property name="kdenlive:file_size">682341</property>
  <property name="kdenlive:file_hash">2b1b4968e378230a53999de41021e3b0</property>
  <property name="kdenlive:audio_max0">113</property>
  <property name="meta.media.nb_streams">1</property>
  <property name="meta.media.0.stream.type">audio</property>
  <property name="meta.media.0.codec.sample_fmt">fltp</property>
  <property name="meta.media.0.codec.sample_rate">48000</property>
  <property name="meta.media.0.codec.channels">2</property>
  <property name="meta.media.0.codec.name">mp3float</property>
  <property name="meta.media.0.codec.long_name">MP3 (MPEG audio layer 3)</property>
  <property name="meta.media.0.codec.bit_rate">78506</property>
  <property name="meta.attr.0.stream.encoder.markup">Lavc59.37</property>
  <property name="meta.attr.encoder.markup">Lavf59.27.100</property>
  <property name="xml">was here</property>
  <property name="set.test_audio">0</property>
  <property name="set.test_image">1</property>
 </chain>
 <chain id="chain91" out="00:00:04.360">
  <property name="length">110</property>
  <property name="eof">pause</property>
  <property name="resource">/home/liquidzulu/Music/sfx/civ v/Sid Meier's Civilization V ï½œ Production [Sound Effect] [TehCDsdk7rg].mp3</property>
  <property name="mlt_service">avformat-novalidate</property>
  <property name="seekable">1</property>
  <property name="audio_index">0</property>
  <property name="video_index">-1</property>
  <property name="mute_on_pause">0</property>
  <property name="kdenlive:clipname"/>
  <property name="kdenlive:clip_type">1</property>
  <property name="kdenlive:folderid">-1</property>
  <property name="kdenlive:id">881</property>
  <property name="kdenlive:file_size">54525</property>
  <property name="kdenlive:file_hash">32f44aa73497dcc46c59a949f35cb84c</property>
  <property name="kdenlive:audio_max0">168</property>
  <property name="meta.media.nb_streams">1</property>
  <property name="meta.media.0.stream.type">audio</property>
  <property name="meta.media.0.codec.sample_fmt">fltp</property>
  <property name="meta.media.0.codec.sample_rate">48000</property>
  <property name="meta.media.0.codec.channels">2</property>
  <property name="meta.media.0.codec.name">mp3float</property>
  <property name="meta.media.0.codec.long_name">MP3 (MPEG audio layer 3)</property>
  <property name="meta.media.0.codec.bit_rate">98696</property>
  <property name="meta.attr.0.stream.encoder.markup">Lavc59.37</property>
  <property name="meta.attr.encoder.markup">Lavf59.27.100</property>
  <property name="xml">was here</property>
  <property name="set.test_audio">0</property>
  <property name="set.test_image">1</property>
 </chain>
 <chain id="chain92" out="00:00:50.040">
  <property name="length">1252</property>
  <property name="eof">pause</property>
  <property name="resource">/home/liquidzulu/Music/sfx/V8 Engine Startup and Revving ï½œ HQ Sound Effects [QunyWALxgps].mp3</property>
  <property name="mlt_service">avformat-novalidate</property>
  <property name="seekable">1</property>
  <property name="audio_index">0</property>
  <property name="video_index">-1</property>
  <property name="mute_on_pause">0</property>
  <property name="kdenlive:clipname"/>
  <property name="kdenlive:clip_type">1</property>
  <property name="kdenlive:folderid">-1</property>
  <property name="kdenlive:id">882</property>
  <property name="kdenlive:file_size">389181</property>
  <property name="kdenlive:file_hash">4338e5a4d3d0cca8492c6944d6d5302e</property>
  <property name="kdenlive:audio_max0">228</property>
  <property name="meta.media.nb_streams">1</property>
  <property name="meta.media.0.stream.type">audio</property>
  <property name="meta.media.0.codec.sample_fmt">fltp</property>
  <property name="meta.media.0.codec.sample_rate">48000</property>
  <property name="meta.media.0.codec.channels">2</property>
  <property name="meta.media.0.codec.name">mp3float</property>
  <property name="meta.media.0.codec.long_name">MP3 (MPEG audio layer 3)</property>
  <property name="meta.media.0.codec.bit_rate">62152</property>
  <property name="meta.attr.0.stream.encoder.markup">Lavc59.37</property>
  <property name="meta.attr.encoder.markup">Lavf59.27.100</property>
  <property name="xml">was here</property>
  <property name="set.test_audio">0</property>
  <property name="set.test_image">1</property>
 </chain>
 <chain id="chain93" out="00:02:48.920">
  <property name="length">4224</property>
  <property name="eof">pause</property>
  <property name="resource">audio/quotes/ai-art-quote/out/ai ml media advocacy.00.47.10.mp3</property>
  <property name="mlt_service">avformat-novalidate</property>
  <property name="seekable">1</property>
  <property name="audio_index">0</property>
  <property name="video_index">-1</property>
  <property name="mute_on_pause">0</property>
  <property name="kdenlive:clipname"/>
  <property name="kdenlive:clip_type">1</property>
  <property name="kdenlive:folderid">-1</property>
  <property name="kdenlive:id">890</property>
  <property name="kdenlive:file_size">4055096</property>
  <property name="kdenlive:file_hash">8aa41a640c6b406bf2d1a7c1498eaff5</property>
  <property name="kdenlive:audio_max0">199</property>
  <property name="meta.media.nb_streams">1</property>
  <property name="meta.media.0.stream.type">audio</property>
  <property name="meta.media.0.codec.sample_fmt">fltp</property>
  <property name="meta.media.0.codec.sample_rate">44100</property>
  <property name="meta.media.0.codec.channels">2</property>
  <property name="meta.media.0.codec.name">mp3float</property>
  <property name="meta.media.0.codec.long_name">MP3 (MPEG audio layer 3)</property>
  <property name="meta.media.0.codec.bit_rate">192000</property>
  <property name="meta.attr.encoded_by.markup">LAME in FL Studio 21</property>
  <property name="meta.attr.date.markup">2023</property>
  <property name="xml">was here</property>
  <property name="set.test_audio">0</property>
  <property name="set.test_image">1</property>
 </chain>
 <playlist id="playlist6">
  <property name="kdenlive:audio_track">1</property>
  <entry producer="chain65" in="00:00:02.240" out="00:00:10.360">
   <property name="kdenlive:id">4</property>
   <filter id="filter152">
    <property name="window">75</property>
    <property name="max_gain">20dB</property>
    <property name="level">00:00:02.240=-14;00:00:10.360=-14</property>
    <property name="mlt_service">volume</property>
    <property name="kdenlive_id">volume</property>
    <property name="kdenlive:collapsed">0</property>
   </filter>
  </entry>
  <entry producer="chain65" in="00:00:10.400" out="00:00:22.680">
   <property name="kdenlive:id">4</property>
   <filter id="filter153">
    <property name="window">75</property>
    <property name="max_gain">20dB</property>
    <property name="level">00:00:10.400=-14;00:00:11.560=-14;00:00:11.600=-18</property>
    <property name="mlt_service">volume</property>
    <property name="kdenlive_id">volume</property>
    <property name="kdenlive:collapsed">0</property>
   </filter>
  </entry>
  <blank length="00:00:11.080"/>
  <entry producer="chain65" in="00:00:11.520" out="00:00:52.480">
   <property name="kdenlive:id">4</property>
   <filter id="filter154">
    <property name="window">75</property>
    <property name="max_gain">20dB</property>
    <property name="level">00:00:11.520=-14;00:00:11.560=-14;00:00:11.600=-18</property>
    <property name="mlt_service">volume</property>
    <property name="kdenlive_id">volume</property>
    <property name="kdenlive:collapsed">0</property>
   </filter>
   <filter id="filter155" in="00:00:11.520" out="00:00:11.560">
    <property name="window">75</property>
    <property name="max_gain">20dB</property>
    <property name="mlt_service">volume</property>
    <property name="kdenlive_id">fadein</property>
    <property name="gain">0</property>
    <property name="end">1</property>
    <property name="kdenlive:collapsed">0</property>
   </filter>
   <filter id="filter156" in="00:00:52.200" out="00:00:52.480">
    <property name="window">75</property>
    <property name="max_gain">20dB</property>
    <property name="mlt_service">volume</property>
    <property name="kdenlive_id">fadeout</property>
    <property name="gain">1</property>
    <property name="end">0</property>
   </filter>
  </entry>
  <blank length="00:00:00.280"/>
  <entry producer="chain66" in="00:00:14.920" out="00:02:14.920">
   <property name="kdenlive:id">229</property>
   <filter id="filter157">
    <property name="window">75</property>
    <property name="max_gain">20dB</property>
    <property name="level">00:00:14.920=-25</property>
    <property name="mlt_service">volume</property>
    <property name="kdenlive_id">volume</property>
    <property name="kdenlive:collapsed">0</property>
   </filter>
   <filter id="filter158" in="00:00:14.920" out="00:00:16.600">
    <property name="window">75</property>
    <property name="max_gain">20dB</property>
    <property name="mlt_service">volume</property>
    <property name="kdenlive_id">fadein</property>
    <property name="gain">0</property>
    <property name="end">1</property>
    <property name="kdenlive:collapsed">0</property>
   </filter>
  </entry>
  <blank length="00:01:55.840"/>
  <entry producer="chain67" in="00:00:00.000" out="00:02:01.520">
   <property name="kdenlive:id">309</property>
   <filter id="filter159">
    <property name="window">75</property>
    <property name="max_gain">20dB</property>
    <property name="level">00:00:00.000=-25</property>
    <property name="mlt_service">volume</property>
    <property name="kdenlive_id">volume</property>
    <property name="kdenlive:collapsed">0</property>
   </filter>
  </entry>
  <blank length="00:01:17.600"/>
  <entry producer="chain68" in="00:00:03.080" out="00:00:04.360">
   <property name="kdenlive:id">352</property>
   <filter id="filter160">
    <property name="window">75</property>
    <property name="max_gain">20dB</property>
    <property name="level">00:00:03.080=-5</property>
    <property name="mlt_service">volume</property>
    <property name="kdenlive_id">volume</property>
    <property name="kdenlive:collapsed">0</property>
   </filter>
  </entry>
  <blank length="00:00:34.720"/>
  <entry producer="chain71" in="00:00:00.000" out="00:02:47.720">
   <property name="kdenlive:id">356</property>
   <filter id="filter161">
    <property name="window">75</property>
    <property name="max_gain">20dB</property>
    <property name="level">00:00:00.000=-25</property>
    <property name="mlt_service">volume</property>
    <property name="kdenlive_id">volume</property>
    <property name="kdenlive:collapsed">0</property>
   </filter>
   <filter id="filter162" out="00:00:01.040">
    <property name="window">75</property>
    <property name="max_gain">20dB</property>
    <property name="mlt_service">volume</property>
    <property name="kdenlive_id">fadein</property>
    <property name="gain">0</property>
    <property name="end">1</property>
    <property name="kdenlive:collapsed">0</property>
   </filter>
  </entry>
  <blank length="00:03:16.600"/>
  <entry producer="chain72" in="00:00:00.000" out="00:02:55.960">
   <property name="kdenlive:id">393</property>
   <filter id="filter163">
    <property name="window">75</property>
    <property name="max_gain">20dB</property>
    <property name="level">00:00:00.000=-25</property>
    <property name="mlt_service">volume</property>
    <property name="kdenlive_id">volume</property>
    <property name="kdenlive:collapsed">0</property>
   </filter>
   <filter id="filter164" out="00:00:04.600">
    <property name="window">75</property>
    <property name="max_gain">20dB</property>
    <property name="mlt_service">volume</property>
    <property name="kdenlive_id">fadein</property>
    <property name="gain">0</property>
    <property name="end">1</property>
    <property name="kdenlive:collapsed">0</property>
   </filter>
  </entry>
  <blank length="00:01:13.920"/>
  <entry producer="chain73" in="00:00:00.000" out="00:00:02.440">
   <property name="kdenlive:id">424</property>
  </entry>
  <entry producer="chain73" in="00:00:03.920" out="00:00:09.840">
   <property name="kdenlive:id">424</property>
  </entry>
  <entry producer="chain73" in="00:00:14.040" out="00:00:25.040">
   <property name="kdenlive:id">424</property>
  </entry>
  <entry producer="chain73" in="00:00:25.760" out="00:00:26.960">
   <property name="kdenlive:id">424</property>
  </entry>
  <entry producer="chain73" in="00:00:27.800" out="00:00:30.000">
   <property name="kdenlive:id">424</property>
  </entry>
  <entry producer="chain73" in="00:00:31.400" out="00:00:33.680">
   <property name="kdenlive:id">424</property>
  </entry>
  <entry producer="chain73" in="00:00:34.040" out="00:00:35.040">
   <property name="kdenlive:id">424</property>
  </entry>
  <entry producer="chain73" in="00:00:35.480" out="00:00:42.840">
   <property name="kdenlive:id">424</property>
  </entry>
  <entry producer="chain73" in="00:00:43.400" out="00:00:48.760">
   <property name="kdenlive:id">424</property>
  </entry>
  <blank length="00:00:41.000"/>
  <entry producer="chain74" in="00:00:00.000" out="00:00:02.280">
   <property name="kdenlive:id">448</property>
  </entry>
  <entry producer="chain74" in="00:00:07.880" out="00:00:13.520">
   <property name="kdenlive:id">448</property>
  </entry>
  <entry producer="chain74" in="00:00:14.320" out="00:00:17.920">
   <property name="kdenlive:id">448</property>
  </entry>
  <entry producer="chain74" in="00:00:18.400" out="00:00:19.360">
   <property name="kdenlive:id">448</property>
  </entry>
  <entry producer="chain74" in="00:00:19.600" out="00:00:20.360">
   <property name="kdenlive:id">448</property>
  </entry>
  <entry producer="chain74" in="00:00:20.720" out="00:00:40.800">
   <property name="kdenlive:id">448</property>
  </entry>
  <entry producer="chain74" in="00:00:41.200" out="00:00:42.280">
   <property name="kdenlive:id">448</property>
  </entry>
  <entry producer="chain74" in="00:00:43.120" out="00:01:02.960">
   <property name="kdenlive:id">448</property>
  </entry>
  <blank length="00:05:27.680"/>
  <entry producer="chain75" in="00:00:00.000" out="00:02:10.800">
   <property name="kdenlive:id">497</property>
   <property name="kdenlive:activeeffect">1</property>
   <filter id="filter165" out="00:00:10.880">
    <property name="window">75</property>
    <property name="max_gain">20dB</property>
    <property name="mlt_service">volume</property>
    <property name="kdenlive_id">fadein</property>
    <property name="gain">0</property>
    <property name="end">1</property>
    <property name="kdenlive:collapsed">0</property>
   </filter>
   <filter id="filter166">
    <property name="window">75</property>
    <property name="max_gain">20dB</property>
    <property name="level">00:00:00.000=-25</property>
    <property name="mlt_service">volume</property>
    <property name="kdenlive_id">volume</property>
    <property name="kdenlive:collapsed">0</property>
   </filter>
   <filter id="filter167" in="00:02:08.280" out="00:02:10.800">
    <property name="window">75</property>
    <property name="max_gain">20dB</property>
    <property name="mlt_service">volume</property>
    <property name="kdenlive_id">fadeout</property>
    <property name="gain">1</property>
    <property name="end">0</property>
    <property name="kdenlive:collapsed">0</property>
   </filter>
  </entry>
  <blank length="00:02:21.320"/>
  <entry producer="chain76" in="00:00:00.000" out="00:02:09.480">
   <property name="kdenlive:id">463</property>
   <property name="kdenlive:activeeffect">1</property>
   <filter id="filter168" out="00:00:19.120">
    <property name="window">75</property>
    <property name="max_gain">20dB</property>
    <property name="mlt_service">volume</property>
    <property name="kdenlive_id">fadein</property>
    <property name="gain">0</property>
    <property name="end">1</property>
    <property name="kdenlive:collapsed">0</property>
   </filter>
   <filter id="filter169">
    <property name="window">75</property>
    <property name="max_gain">20dB</property>
    <property name="level">00:00:00.000=-25</property>
    <property name="mlt_service">volume</property>
    <property name="kdenlive_id">volume</property>
    <property name="kdenlive:collapsed">0</property>
   </filter>
   <filter id="filter170" in="00:01:39.760" out="00:02:09.480">
    <property name="window">75</property>
    <property name="max_gain">20dB</property>
    <property name="mlt_service">volume</property>
    <property name="kdenlive_id">fadeout</property>
    <property name="gain">1</property>
    <property name="end">0</property>
    <property name="kdenlive:collapsed">0</property>
   </filter>
  </entry>
  <blank length="00:02:53.360"/>
  <entry producer="chain67" in="00:00:00.000" out="00:02:01.520">
   <property name="kdenlive:id">309</property>
   <filter id="filter171">
    <property name="window">75</property>
    <property name="max_gain">20dB</property>
    <property name="level">00:00:00.000=-25</property>
    <property name="mlt_service">volume</property>
    <property name="kdenlive_id">volume</property>
    <property name="kdenlive:collapsed">0</property>
   </filter>
   <filter id="filter172" out="00:00:13.760">
    <property name="window">75</property>
    <property name="max_gain">20dB</property>
    <property name="mlt_service">volume</property>
    <property name="kdenlive_id">fadein</property>
    <property name="gain">0</property>
    <property name="end">1</property>
    <property name="kdenlive:collapsed">0</property>
   </filter>
  </entry>
  <blank length="00:01:32.280"/>
  <entry producer="chain71" in="00:00:00.000" out="00:02:47.720">
   <property name="kdenlive:id">356</property>
   <filter id="filter173" out="00:00:22.520">
    <property name="window">75</property>
    <property name="max_gain">20dB</property>
    <property name="mlt_service">volume</property>
    <property name="kdenlive_id">fadein</property>
    <property name="gain">0</property>
    <property name="end">1</property>
    <property name="kdenlive:collapsed">0</property>
   </filter>
   <filter id="filter174">
    <property name="window">75</property>
    <property name="max_gain">20dB</property>
    <property name="level">00:00:00.000=-25</property>
    <property name="mlt_service">volume</property>
    <property name="kdenlive_id">volume</property>
    <property name="kdenlive:collapsed">0</property>
   </filter>
  </entry>
  <blank length="00:03:29.120"/>
  <entry producer="chain77" in="00:00:00.000" out="00:04:30.000">
   <property name="kdenlive:id">626</property>
   <property name="kdenlive:activeeffect">1</property>
   <filter id="filter175" out="00:00:19.760">
    <property name="window">75</property>
    <property name="max_gain">20dB</property>
    <property name="mlt_service">volume</property>
    <property name="kdenlive_id">fadein</property>
    <property name="gain">0</property>
    <property name="end">1</property>
    <property name="kdenlive:collapsed">0</property>
   </filter>
   <filter id="filter176">
    <property name="window">75</property>
    <property name="max_gain">20dB</property>
    <property name="level">00:00:00.000=-27</property>
    <property name="mlt_service">volume</property>
    <property name="kdenlive_id">volume</property>
    <property name="kdenlive:collapsed">0</property>
   </filter>
   <filter id="filter177" in="00:04:06.040" out="00:04:30.000">
    <property name="window">75</property>
    <property name="max_gain">20dB</property>
    <property name="mlt_service">volume</property>
    <property name="kdenlive_id">fadeout</property>
    <property name="gain">1</property>
    <property name="end">0</property>
   </filter>
  </entry>
  <blank length="00:02:22.880"/>
  <entry producer="chain68" in="00:00:03.080" out="00:00:04.360">
   <property name="kdenlive:id">352</property>
   <filter id="filter178">
    <property name="window">75</property>
    <property name="max_gain">20dB</property>
    <property name="level">00:00:03.080=-5</property>
    <property name="mlt_service">volume</property>
    <property name="kdenlive_id">volume</property>
   </filter>
  </entry>
  <blank length="00:00:00.920"/>
  <entry producer="chain78" in="00:00:01.920" out="00:00:03.360">
   <property name="kdenlive:id">690</property>
   <filter id="filter179" in="00:00:01.920" out="00:00:02.200">
    <property name="window">75</property>
    <property name="max_gain">20dB</property>
    <property name="mlt_service">volume</property>
    <property name="kdenlive_id">fadein</property>
    <property name="gain">0</property>
    <property name="end">1</property>
   </filter>
  </entry>
  <blank length="00:00:12.880"/>
  <entry producer="chain78" in="00:00:19.760" out="00:00:31.200">
   <property name="kdenlive:id">690</property>
   <filter id="filter180" in="00:00:19.760" out="00:00:19.840">
    <property name="window">75</property>
    <property name="max_gain">20dB</property>
    <property name="mlt_service">volume</property>
    <property name="kdenlive_id">fadein</property>
    <property name="gain">0</property>
    <property name="end">1</property>
    <property name="kdenlive:collapsed">0</property>
   </filter>
   <filter id="filter181" in="00:00:30.840" out="00:00:31.200">
    <property name="window">75</property>
    <property name="max_gain">20dB</property>
    <property name="mlt_service">volume</property>
    <property name="kdenlive_id">fadeout</property>
    <property name="gain">1</property>
    <property name="end">0</property>
    <property name="kdenlive:collapsed">0</property>
   </filter>
  </entry>
  <blank length="00:04:46.920"/>
  <entry producer="chain68" in="00:00:03.080" out="00:00:04.360">
   <property name="kdenlive:id">352</property>
   <filter id="filter182">
    <property name="window">75</property>
    <property name="max_gain">20dB</property>
    <property name="level">00:00:03.080=-5</property>
    <property name="mlt_service">volume</property>
    <property name="kdenlive_id">volume</property>
    <property name="kdenlive:collapsed">0</property>
   </filter>
  </entry>
  <blank length="00:00:52.200"/>
  <entry producer="chain68" in="00:00:03.080" out="00:00:04.360">
   <property name="kdenlive:id">352</property>
   <filter id="filter183">
    <property name="window">75</property>
    <property name="max_gain">20dB</property>
    <property name="level">00:00:03.080=-5</property>
    <property name="mlt_service">volume</property>
    <property name="kdenlive_id">volume</property>
    <property name="kdenlive:collapsed">0</property>
   </filter>
  </entry>
  <blank length="00:00:35.760"/>
  <entry producer="chain68" in="00:00:03.080" out="00:00:04.360">
   <property name="kdenlive:id">352</property>
   <filter id="filter184">
    <property name="window">75</property>
    <property name="max_gain">20dB</property>
    <property name="level">00:00:03.080=-5</property>
    <property name="mlt_service">volume</property>
    <property name="kdenlive_id">volume</property>
    <property name="kdenlive:collapsed">0</property>
   </filter>
  </entry>
  <blank length="00:00:13.200"/>
  <entry producer="chain79" in="00:00:13.960" out="00:00:15.920">
   <property name="kdenlive:id">767</property>
   <filter id="filter185" in="00:00:13.960" out="00:00:14.040">
    <property name="window">75</property>
    <property name="max_gain">20dB</property>
    <property name="mlt_service">volume</property>
    <property name="kdenlive_id">fadein</property>
    <property name="gain">0</property>
    <property name="end">1</property>
   </filter>
   <filter id="filter186" in="00:00:15.880" out="00:00:15.920">
    <property name="window">75</property>
    <property name="max_gain">20dB</property>
    <property name="mlt_service">volume</property>
    <property name="kdenlive_id">fadeout</property>
    <property name="gain">1</property>
    <property name="end">0</property>
   </filter>
  </entry>
  <blank length="00:00:44.400"/>
  <entry producer="chain80" in="00:00:01.160" out="00:00:04.640">
   <property name="kdenlive:id">354</property>
   <filter id="filter187" in="00:00:01.160" out="00:00:02.160">
    <property name="window">75</property>
    <property name="max_gain">20dB</property>
    <property name="mlt_service">volume</property>
    <property name="kdenlive_id">fadein</property>
    <property name="gain">0</property>
    <property name="end">1</property>
    <property name="kdenlive:collapsed">0</property>
   </filter>
   <filter id="filter188">
    <property name="window">75</property>
    <property name="max_gain">20dB</property>
    <property name="level">00:00:01.160=-9</property>
    <property name="mlt_service">volume</property>
    <property name="kdenlive_id">volume</property>
    <property name="kdenlive:collapsed">0</property>
   </filter>
  </entry>
  <blank length="00:00:07.960"/>
  <entry producer="chain81" in="00:00:38.360" out="00:00:38.480">
   <property name="kdenlive:id">768</property>
   <filter id="filter189" in="00:00:38.360" out="00:00:38.400">
    <property name="window">75</property>
    <property name="max_gain">20dB</property>
    <property name="mlt_service">volume</property>
    <property name="kdenlive_id">fadein</property>
    <property name="gain">0</property>
    <property name="end">1</property>
   </filter>
  </entry>
  <blank length="00:01:04.720"/>
  <entry producer="chain68" in="00:00:03.080" out="00:00:04.360">
   <property name="kdenlive:id">352</property>
   <filter id="filter190">
    <property name="window">75</property>
    <property name="max_gain">20dB</property>
    <property name="level">00:00:03.080=-5</property>
    <property name="mlt_service">volume</property>
    <property name="kdenlive_id">volume</property>
    <property name="kdenlive:collapsed">0</property>
   </filter>
  </entry>
  <blank length="00:00:00.680"/>
  <entry producer="chain82" in="00:00:01.960" out="00:00:03.000">
   <property name="kdenlive:id">794</property>
   <filter id="filter191" in="00:00:01.960" out="00:00:02.040">
    <property name="window">75</property>
    <property name="max_gain">20dB</property>
    <property name="mlt_service">volume</property>
    <property name="kdenlive_id">fadein</property>
    <property name="gain">0</property>
    <property name="end">1</property>
    <property name="kdenlive:collapsed">0</property>
   </filter>
  </entry>
  <blank length="00:00:11.600"/>
  <entry producer="chain82" in="00:00:17.400" out="00:00:24.920">
   <property name="kdenlive:id">794</property>
   <filter id="filter192" in="00:00:17.400" out="00:00:17.440">
    <property name="window">75</property>
    <property name="max_gain">20dB</property>
    <property name="mlt_service">volume</property>
    <property name="kdenlive_id">fadein</property>
    <property name="gain">0</property>
    <property name="end">1</property>
   </filter>
  </entry>
  <blank length="00:00:46.960"/>
  <entry producer="chain68" in="00:00:03.080" out="00:00:04.360">
   <property name="kdenlive:id">352</property>
   <filter id="filter193">
    <property name="window">75</property>
    <property name="max_gain">20dB</property>
    <property name="level">00:00:03.080=-5</property>
    <property name="mlt_service">volume</property>
    <property name="kdenlive_id">volume</property>
    <property name="kdenlive:collapsed">0</property>
   </filter>
  </entry>
  <blank length="00:00:01.160"/>
  <entry producer="chain83" in="00:00:02.640" out="00:00:03.440">
   <property name="kdenlive:id">804</property>
   <filter id="filter194" in="00:00:02.640" out="00:00:02.720">
    <property name="window">75</property>
    <property name="max_gain">20dB</property>
    <property name="mlt_service">volume</property>
    <property name="kdenlive_id">fadein</property>
    <property name="gain">0</property>
    <property name="end">1</property>
    <property name="kdenlive:collapsed">0</property>
   </filter>
  </entry>
  <blank length="00:00:12.400"/>
  <entry producer="chain83" in="00:00:17.960" out="00:00:19.960">
   <property name="kdenlive:id">804</property>
   <filter id="filter195" in="00:00:17.960" out="00:00:18.040">
    <property name="window">75</property>
    <property name="max_gain">20dB</property>
    <property name="mlt_service">volume</property>
    <property name="kdenlive_id">fadein</property>
    <property name="gain">0</property>
    <property name="end">1</property>
    <property name="kdenlive:collapsed">0</property>
   </filter>
  </entry>
  <blank length="00:00:01.880"/>
  <entry producer="chain83" in="00:00:23.600" out="00:00:24.680">
   <property name="kdenlive:id">804</property>
   <filter id="filter196" in="00:00:23.600" out="00:00:23.680">
    <property name="window">75</property>
    <property name="max_gain">20dB</property>
    <property name="mlt_service">volume</property>
    <property name="kdenlive_id">fadein</property>
    <property name="gain">0</property>
    <property name="end">1</property>
    <property name="kdenlive:collapsed">0</property>
   </filter>
   <filter id="filter197" in="00:00:24.560" out="00:00:24.680">
    <property name="window">75</property>
    <property name="max_gain">20dB</property>
    <property name="mlt_service">volume</property>
    <property name="kdenlive_id">fadeout</property>
    <property name="gain">1</property>
    <property name="end">0</property>
   </filter>
  </entry>
  <blank length="00:00:05.200"/>
  <entry producer="chain83" in="00:00:32.000" out="00:00:32.360">
   <property name="kdenlive:id">804</property>
   <filter id="filter198" in="00:00:32.000" out="00:00:32.040">
    <property name="window">75</property>
    <property name="max_gain">20dB</property>
    <property name="mlt_service">volume</property>
    <property name="kdenlive_id">fadein</property>
    <property name="gain">0</property>
    <property name="end">1</property>
    <property name="kdenlive:collapsed">0</property>
   </filter>
  </entry>
  <blank length="00:00:09.040"/>
  <entry producer="chain83" in="00:00:43.960" out="00:00:50.800">
   <property name="kdenlive:id">804</property>
   <filter id="filter199" in="00:00:43.960" out="00:00:44.000">
    <property name="window">75</property>
    <property name="max_gain">20dB</property>
    <property name="mlt_service">volume</property>
    <property name="kdenlive_id">fadein</property>
    <property name="gain">0</property>
    <property name="end">1</property>
    <property name="kdenlive:collapsed">0</property>
   </filter>
  </entry>
  <blank length="00:00:02.280"/>
  <entry producer="chain83" in="00:00:55.280" out="00:00:57.480">
   <property name="kdenlive:id">804</property>
   <filter id="filter200" in="00:00:55.280" out="00:00:55.320">
    <property name="window">75</property>
    <property name="max_gain">20dB</property>
    <property name="mlt_service">volume</property>
    <property name="kdenlive_id">fadein</property>
    <property name="gain">0</property>
    <property name="end">1</property>
    <property name="kdenlive:collapsed">0</property>
   </filter>
  </entry>
  <blank length="00:00:02.080"/>
  <entry producer="chain83" in="00:01:32.880" out="00:01:36.800">
   <property name="kdenlive:id">804</property>
   <filter id="filter201" in="00:01:32.880" out="00:01:32.920">
    <property name="window">75</property>
    <property name="max_gain">20dB</property>
    <property name="mlt_service">volume</property>
    <property name="kdenlive_id">fadein</property>
    <property name="gain">0</property>
    <property name="end">1</property>
    <property name="kdenlive:collapsed">0</property>
   </filter>
  </entry>
  <blank length="00:00:00.440"/>
  <entry producer="chain83" in="00:01:39.600" out="00:01:41.120">
   <property name="kdenlive:id">804</property>
   <filter id="filter202" in="00:01:39.600" out="00:01:39.680">
    <property name="window">75</property>
    <property name="max_gain">20dB</property>
    <property name="mlt_service">volume</property>
    <property name="kdenlive_id">fadein</property>
    <property name="gain">0</property>
    <property name="end">1</property>
    <property name="kdenlive:collapsed">0</property>
   </filter>
  </entry>
  <blank length="00:00:04.000"/>
  <entry producer="chain83" in="00:01:53.160" out="00:02:01.160">
   <property name="kdenlive:id">804</property>
   <filter id="filter203" in="00:01:53.160" out="00:01:53.240">
    <property name="window">75</property>
    <property name="max_gain">20dB</property>
    <property name="mlt_service">volume</property>
    <property name="kdenlive_id">fadein</property>
    <property name="gain">0</property>
    <property name="end">1</property>
    <property name="kdenlive:collapsed">0</property>
   </filter>
  </entry>
  <blank length="00:00:00.840"/>
  <entry producer="chain83" in="00:02:06.480" out="00:02:07.600">
   <property name="kdenlive:id">804</property>
   <filter id="filter204" in="00:02:06.480" out="00:02:06.520">
    <property name="window">75</property>
    <property name="max_gain">20dB</property>
    <property name="mlt_service">volume</property>
    <property name="kdenlive_id">fadein</property>
    <property name="gain">0</property>
    <property name="end">1</property>
    <property name="kdenlive:collapsed">0</property>
   </filter>
  </entry>
  <blank length="00:00:03.840"/>
  <entry producer="chain83" in="00:02:12.680" out="00:02:15.280">
   <property name="kdenlive:id">804</property>
   <filter id="filter205" in="00:02:12.680" out="00:02:12.720">
    <property name="window">75</property>
    <property name="max_gain">20dB</property>
    <property name="mlt_service">volume</property>
    <property name="kdenlive_id">fadein</property>
    <property name="gain">0</property>
    <property name="end">1</property>
    <property name="kdenlive:collapsed">0</property>
   </filter>
  </entry>
  <blank length="00:00:40.760"/>
  <entry producer="chain68" in="00:00:03.080" out="00:00:04.360">
   <property name="kdenlive:id">352</property>
   <filter id="filter206">
    <property name="window">75</property>
    <property name="max_gain">20dB</property>
    <property name="level">00:00:03.080=-5</property>
    <property name="mlt_service">volume</property>
    <property name="kdenlive_id">volume</property>
    <property name="kdenlive:collapsed">0</property>
   </filter>
  </entry>
  <blank length="00:00:00.440"/>
  <entry producer="chain84" in="00:00:04.480" out="00:00:23.120">
   <property name="kdenlive:id">825</property>
   <filter id="filter207" in="00:00:04.480" out="00:00:04.520">
    <property name="window">75</property>
    <property name="max_gain">20dB</property>
    <property name="mlt_service">volume</property>
    <property name="kdenlive_id">fadein</property>
    <property name="gain">0</property>
    <property name="end">1</property>
    <property name="kdenlive:collapsed">0</property>
   </filter>
  </entry>
  <blank length="00:01:19.960"/>
  <entry producer="chain68" in="00:00:03.080" out="00:00:04.360">
   <property name="kdenlive:id">352</property>
   <filter id="filter208">
    <property name="window">75</property>
    <property name="max_gain">20dB</property>
    <property name="level">00:00:03.080=-5</property>
    <property name="mlt_service">volume</property>
    <property name="kdenlive_id">volume</property>
    <property name="kdenlive:collapsed">0</property>
   </filter>
  </entry>
  <blank length="00:00:35.840"/>
  <entry producer="chain68" in="00:00:03.080" out="00:00:04.360">
   <property name="kdenlive:id">352</property>
   <filter id="filter209">
    <property name="window">75</property>
    <property name="max_gain">20dB</property>
    <property name="level">00:00:03.080=-5</property>
    <property name="mlt_service">volume</property>
    <property name="kdenlive_id">volume</property>
    <property name="kdenlive:collapsed">0</property>
   </filter>
  </entry>
  <blank length="00:00:10.880"/>
  <entry producer="chain85" in="00:00:12.280" out="00:00:15.040">
   <property name="kdenlive:id">844</property>
   <filter id="filter210" in="00:00:12.280" out="00:00:12.320">
    <property name="window">75</property>
    <property name="max_gain">20dB</property>
    <property name="mlt_service">volume</property>
    <property name="kdenlive_id">fadein</property>
    <property name="gain">0</property>
    <property name="end">1</property>
    <property name="kdenlive:collapsed">0</property>
   </filter>
  </entry>
  <blank length="00:00:30.040"/>
  <entry producer="chain85" in="00:00:55.280" out="00:00:58.600">
   <property name="kdenlive:id">844</property>
   <filter id="filter211" in="00:00:55.280" out="00:00:55.360">
    <property name="window">75</property>
    <property name="max_gain">20dB</property>
    <property name="mlt_service">volume</property>
    <property name="kdenlive_id">fadein</property>
    <property name="gain">0</property>
    <property name="end">1</property>
    <property name="kdenlive:collapsed">0</property>
   </filter>
  </entry>
  <blank length="00:00:06.920"/>
  <entry producer="chain85" in="00:01:09.160" out="00:01:26.120">
   <property name="kdenlive:id">844</property>
   <filter id="filter212" in="00:01:09.160" out="00:01:09.200">
    <property name="window">75</property>
    <property name="max_gain">20dB</property>
    <property name="mlt_service">volume</property>
    <property name="kdenlive_id">fadein</property>
    <property name="gain">0</property>
    <property name="end">1</property>
   </filter>
  </entry>
  <blank length="00:01:00.840"/>
  <entry producer="chain86" in="00:00:02.120" out="00:00:09.080">
   <property name="kdenlive:id">873</property>
   <property name="kdenlive:activeeffect">1</property>
   <filter id="filter213" in="00:00:07.280" out="00:00:09.080">
    <property name="window">75</property>
    <property name="max_gain">20dB</property>
    <property name="mlt_service">volume</property>
    <property name="kdenlive_id">fadeout</property>
    <property name="gain">1</property>
    <property name="end">0</property>
    <property name="kdenlive:collapsed">0</property>
   </filter>
   <filter id="filter214">
    <property name="window">75</property>
    <property name="max_gain">20dB</property>
    <property name="level">00:00:02.120=-34</property>
    <property name="mlt_service">volume</property>
    <property name="kdenlive_id">volume</property>
    <property name="kdenlive:collapsed">0</property>
   </filter>
   <filter id="filter215" in="00:00:02.120" out="00:00:03.760">
    <property name="window">75</property>
    <property name="max_gain">20dB</property>
    <property name="mlt_service">volume</property>
    <property name="kdenlive_id">fadein</property>
    <property name="gain">0</property>
    <property name="end">1</property>
    <property name="kdenlive:collapsed">0</property>
   </filter>
  </entry>
  <blank length="00:00:09.160"/>
  <entry producer="chain87" in="00:00:06.840" out="00:00:08.200">
   <property name="kdenlive:id">875</property>
   <property name="kdenlive:activeeffect">0</property>
   <filter id="filter216">
    <property name="window">75</property>
    <property name="max_gain">20dB</property>
    <property name="level">00:00:06.840=-11</property>
    <property name="mlt_service">volume</property>
    <property name="kdenlive_id">volume</property>
    <property name="kdenlive:collapsed">0</property>
   </filter>
  </entry>
  <blank length="00:00:00.920"/>
  <entry producer="chain88" in="00:00:00.000" out="00:00:04.480">
   <property name="kdenlive:id">877</property>
   <property name="kdenlive:activeeffect">0</property>
   <filter id="filter217">
    <property name="window">75</property>
    <property name="max_gain">20dB</property>
    <property name="level">00:00:00.000=-27</property>
    <property name="mlt_service">volume</property>
    <property name="kdenlive_id">volume</property>
    <property name="kdenlive:collapsed">0</property>
   </filter>
  </entry>
  <blank length="00:00:10.760"/>
  <entry producer="chain89" in="00:00:29.160" out="00:00:32.000">
   <property name="kdenlive:id">879</property>
   <property name="kdenlive:activeeffect">0</property>
   <filter id="filter218">
    <property name="window">75</property>
    <property name="max_gain">20dB</property>
    <property name="level">00:00:29.160=-20</property>
    <property name="mlt_service">volume</property>
    <property name="kdenlive_id">volume</property>
    <property name="kdenlive:collapsed">0</property>
   </filter>
  </entry>
  <entry producer="chain90" in="00:00:00.000" out="00:00:12.120">
   <property name="kdenlive:id">880</property>
   <property name="kdenlive:activeeffect">2</property>
   <filter id="filter219" out="00:00:02.080">
    <property name="window">75</property>
    <property name="max_gain">20dB</property>
    <property name="mlt_service">volume</property>
    <property name="kdenlive_id">fadein</property>
    <property name="gain">0</property>
    <property name="end">1</property>
    <property name="kdenlive:collapsed">0</property>
   </filter>
   <filter id="filter220" in="00:00:09.760" out="00:00:12.120">
    <property name="window">75</property>
    <property name="max_gain">20dB</property>
    <property name="mlt_service">volume</property>
    <property name="kdenlive_id">fadeout</property>
    <property name="gain">1</property>
    <property name="end">0</property>
    <property name="kdenlive:collapsed">0</property>
   </filter>
   <filter id="filter221">
    <property name="window">75</property>
    <property name="max_gain">20dB</property>
    <property name="level">00:00:00.000=-19</property>
    <property name="mlt_service">volume</property>
    <property name="kdenlive_id">volume</property>
    <property name="kdenlive:collapsed">0</property>
   </filter>
  </entry>
  <entry producer="chain91" in="00:00:00.000" out="00:00:04.360">
   <property name="kdenlive:id">881</property>
   <filter id="filter222" out="00:00:00.920">
    <property name="window">75</property>
    <property name="max_gain">20dB</property>
    <property name="mlt_service">volume</property>
    <property name="kdenlive_id">fadein</property>
    <property name="gain">0</property>
    <property name="end">1</property>
    <property name="kdenlive:collapsed">0</property>
   </filter>
   <filter id="filter223">
    <property name="window">75</property>
    <property name="max_gain">20dB</property>
    <property name="level">00:00:00.000=-28</property>
    <property name="mlt_service">volume</property>
    <property name="kdenlive_id">volume</property>
    <property name="kdenlive:collapsed">0</property>
   </filter>
  </entry>
  <blank length="00:00:10.840"/>
  <entry producer="chain92" in="00:00:06.880" out="00:00:13.800">
   <property name="kdenlive:id">882</property>
   <property name="kdenlive:activeeffect">1</property>
   <filter id="filter224" in="00:00:06.880" out="00:00:08.360">
    <property name="window">75</property>
    <property name="max_gain">20dB</property>
    <property name="mlt_service">volume</property>
    <property name="kdenlive_id">fadein</property>
    <property name="gain">0</property>
    <property name="end">1</property>
    <property name="kdenlive:collapsed">0</property>
   </filter>
   <filter id="filter225">
    <property name="window">75</property>
    <property name="max_gain">20dB</property>
    <property name="level">00:00:06.880=-19</property>
    <property name="mlt_service">volume</property>
    <property name="kdenlive_id">volume</property>
    <property name="kdenlive:collapsed">0</property>
   </filter>
   <filter id="filter226" in="00:00:12.600" out="00:00:13.800">
    <property name="window">75</property>
    <property name="max_gain">20dB</property>
    <property name="mlt_service">volume</property>
    <property name="kdenlive_id">fadeout</property>
    <property name="gain">1</property>
    <property name="end">0</property>
   </filter>
  </entry>
  <blank length="00:01:02.040"/>
  <entry producer="chain93" in="00:00:29.520" out="00:00:30.000">
   <property name="kdenlive:id">890</property>
   <filter id="filter227" in="00:00:29.520" out="00:00:29.560">
    <property name="window">75</property>
    <property name="max_gain">20dB</property>
    <property name="mlt_service">volume</property>
    <property name="kdenlive_id">fadein</property>
    <property name="gain">0</property>
    <property name="end">1</property>
   </filter>
  </entry>
  <blank length="00:00:00.920"/>
  <entry producer="chain93" in="00:00:32.240" out="00:00:33.040">
   <property name="kdenlive:id">890</property>
   <filter id="filter228" in="00:00:32.240" out="00:00:32.280">
    <property name="window">75</property>
    <property name="max_gain">20dB</property>
    <property name="mlt_service">volume</property>
    <property name="kdenlive_id">fadein</property>
    <property name="gain">0</property>
    <property name="end">1</property>
    <property name="kdenlive:collapsed">0</property>
   </filter>
  </entry>
  <blank length="00:00:01.200"/>
  <entry producer="chain93" in="00:00:35.760" out="00:00:36.320">
   <property name="kdenlive:id">890</property>
   <filter id="filter229" in="00:00:35.760" out="00:00:35.800">
    <property name="window">75</property>
    <property name="max_gain">20dB</property>
    <property name="mlt_service">volume</property>
    <property name="kdenlive_id">fadein</property>
    <property name="gain">0</property>
    <property name="end">1</property>
    <property name="kdenlive:collapsed">0</property>
   </filter>
  </entry>
  <blank length="00:00:01.200"/>
  <entry producer="chain93" in="00:00:38.920" out="00:00:41.440">
   <property name="kdenlive:id">890</property>
   <filter id="filter230" in="00:00:38.920" out="00:00:38.960">
    <property name="window">75</property>
    <property name="max_gain">20dB</property>
    <property name="mlt_service">volume</property>
    <property name="kdenlive_id">fadein</property>
    <property name="gain">0</property>
    <property name="end">1</property>
    <property name="kdenlive:collapsed">0</property>
   </filter>
  </entry>
  <blank length="00:00:00.400"/>
  <entry producer="chain93" in="00:00:44.080" out="00:00:45.240">
   <property name="kdenlive:id">890</property>
   <filter id="filter231" in="00:00:44.080" out="00:00:44.120">
    <property name="window">75</property>
    <property name="max_gain">20dB</property>
    <property name="mlt_service">volume</property>
    <property name="kdenlive_id">fadein</property>
    <property name="gain">0</property>
    <property name="end">1</property>
    <property name="kdenlive:collapsed">0</property>
   </filter>
  </entry>
  <blank length="00:00:01.080"/>
  <entry producer="chain93" in="00:00:47.600" out="00:00:48.480">
   <property name="kdenlive:id">890</property>
   <filter id="filter232" in="00:00:47.600" out="00:00:47.640">
    <property name="window">75</property>
    <property name="max_gain">20dB</property>
    <property name="mlt_service">volume</property>
    <property name="kdenlive_id">fadein</property>
    <property name="gain">0</property>
    <property name="end">1</property>
    <property name="kdenlive:collapsed">0</property>
   </filter>
  </entry>
  <blank length="00:00:00.720"/>
  <entry producer="chain93" in="00:00:52.800" out="00:00:55.280">
   <property name="kdenlive:id">890</property>
   <filter id="filter233" in="00:00:52.800" out="00:00:52.840">
    <property name="window">75</property>
    <property name="max_gain">20dB</property>
    <property name="mlt_service">volume</property>
    <property name="kdenlive_id">fadein</property>
    <property name="gain">0</property>
    <property name="end">1</property>
    <property name="kdenlive:collapsed">0</property>
   </filter>
  </entry>
  <blank length="00:00:07.840"/>
  <entry producer="chain93" in="00:01:05.520" out="00:01:06.160">
   <property name="kdenlive:id">890</property>
   <filter id="filter234" in="00:01:05.520" out="00:01:05.560">
    <property name="window">75</property>
    <property name="max_gain">20dB</property>
    <property name="mlt_service">volume</property>
    <property name="kdenlive_id">fadein</property>
    <property name="gain">0</property>
    <property name="end">1</property>
    <property name="kdenlive:collapsed">0</property>
   </filter>
  </entry>
  <blank length="00:00:03.840"/>
  <entry producer="chain93" in="00:01:12.520" out="00:01:16.640">
   <property name="kdenlive:id">890</property>
   <filter id="filter235" in="00:01:12.520" out="00:01:12.560">
    <property name="window">75</property>
    <property name="max_gain">20dB</property>
    <property name="mlt_service">volume</property>
    <property name="kdenlive_id">fadein</property>
    <property name="gain">0</property>
    <property name="end">1</property>
    <property name="kdenlive:collapsed">0</property>
   </filter>
  </entry>
 </playlist>
 <playlist id="playlist7">
  <property name="kdenlive:audio_track">1</property>
 </playlist>
 <tractor id="tractor3" in="00:00:00.000" out="01:12:42.360">
  <property name="kdenlive:audio_track">1</property>
  <property name="kdenlive:trackheight">67</property>
  <property name="kdenlive:timeline_active">1</property>
  <property name="kdenlive:collapsed">0</property>
  <property name="kdenlive:thumbs_format"/>
  <property name="kdenlive:audio_rec"/>
  <track hide="video" producer="playlist6"/>
  <track hide="video" producer="playlist7"/>
  <filter id="filter236">
   <property name="window">75</property>
   <property name="max_gain">20dB</property>
   <property name="mlt_service">volume</property>
   <property name="internal_added">237</property>
   <property name="disable">1</property>
  </filter>
  <filter id="filter237">
   <property name="channel">-1</property>
   <property name="mlt_service">panner</property>
   <property name="internal_added">237</property>
   <property name="start">0.5</property>
   <property name="disable">1</property>
  </filter>
  <filter id="filter238">
   <property name="iec_scale">0</property>
   <property name="mlt_service">audiolevel</property>
   <property name="dbpeak">1</property>
   <property name="disable">1</property>
  </filter>
 </tractor>
 <chain id="chain101" out="02:18:58.840">
  <property name="length">208472</property>
  <property name="eof">pause</property>
  <property name="resource">b-roll/AI ART ftï¼š Istebrak, Steven Zapata, Hardy Fowler, Kelsey Rodriguez, Tyler Edlin &amp; Antonio Stappaerts [5JaS7APpO8U].webm</property>
  <property name="mlt_service">avformat-novalidate</property>
  <property name="seekable">1</property>
  <property name="format">3</property>
  <property name="audio_index">1</property>
  <property name="video_index">0</property>
  <property name="kdenlive:clipname"/>
  <property name="kdenlive:clip_type">0</property>
  <property name="kdenlive:folderid">14</property>
  <property name="kdenlive:id">6</property>
  <property name="kdenlive:file_size">845877288</property>
  <property name="kdenlive:file_hash">57847912f2775f5fab12884262152e3d</property>
  <property name="kdenlive:audio_max1">192</property>
  <property name="meta.media.nb_streams">2</property>
  <property name="meta.media.0.stream.type">video</property>
  <property name="meta.media.0.stream.frame_rate">25</property>
  <property name="meta.media.0.stream.sample_aspect_ratio">1</property>
  <property name="meta.media.0.codec.width">1920</property>
  <property name="meta.media.0.codec.height">1080</property>
  <property name="meta.media.0.codec.rotate">0</property>
  <property name="meta.media.0.codec.pix_fmt">yuv420p</property>
  <property name="meta.media.0.codec.sample_aspect_ratio">0</property>
  <property name="meta.media.0.codec.colorspace">709</property>
  <property name="meta.media.0.codec.color_trc">1</property>
  <property name="meta.media.0.codec.name">vp9</property>
  <property name="meta.media.0.codec.long_name">Google VP9</property>
  <property name="meta.media.0.codec.bit_rate">0</property>
  <property name="meta.attr.0.stream.HANDLER_NAME.markup">ISO Media file produced by Google Inc. Created on: 12/09/2023.</property>
  <property name="meta.attr.0.stream.VENDOR_ID.markup">[0][0][0][0]</property>
  <property name="meta.attr.0.stream.DURATION.markup">02:18:58.840000000</property>
  <property name="meta.media.1.stream.type">audio</property>
  <property name="meta.media.1.codec.sample_fmt">fltp</property>
  <property name="meta.media.1.codec.sample_rate">48000</property>
  <property name="meta.media.1.codec.channels">2</property>
  <property name="meta.media.1.codec.name">opus</property>
  <property name="meta.media.1.codec.long_name">Opus</property>
  <property name="meta.media.1.codec.bit_rate">0</property>
  <property name="meta.attr.1.stream.language.markup">eng</property>
  <property name="meta.attr.1.stream.DURATION.markup">02:18:58.881000000</property>
  <property name="meta.attr.COMPATIBLE_BRANDS.markup">iso6mp41</property>
  <property name="meta.attr.MAJOR_BRAND.markup">dash</property>
  <property name="meta.attr.MINOR_VERSION.markup">0</property>
  <property name="meta.attr.ENCODER.markup">Lavf59.27.100</property>
  <property name="meta.media.sample_aspect_num">1</property>
  <property name="meta.media.sample_aspect_den">1</property>
  <property name="meta.media.frame_rate_num">25</property>
  <property name="meta.media.frame_rate_den">1</property>
  <property name="meta.media.colorspace">709</property>
  <property name="meta.media.color_trc">1</property>
  <property name="meta.media.has_b_frames">0</property>
  <property name="meta.media.width">1920</property>
  <property name="meta.media.height">1080</property>
  <property name="meta.media.color_range">mpeg</property>
  <property name="xml">was here</property>
  <property name="meta.media.top_field_first">0</property>
  <property name="meta.media.progressive">1</property>
  <property name="set.test_audio">0</property>
  <property name="set.test_image">1</property>
  <property name="mute_on_pause">1</property>
 </chain>
 <chain id="chain114" out="01:39:18.480">
  <property name="length">148963</property>
  <property name="eof">pause</property>
  <property name="resource">b-roll/AI Ethics, Artists, and What You Can Do About It [Nn_w3MnCyDY].webm</property>
  <property name="mlt_service">avformat-novalidate</property>
  <property name="seekable">1</property>
  <property name="format">3</property>
  <property name="audio_index">1</property>
  <property name="video_index">0</property>
  <property name="kdenlive:clipname"/>
  <property name="kdenlive:clip_type">0</property>
  <property name="kdenlive:folderid">14</property>
  <property name="kdenlive:id">7</property>
  <property name="kdenlive:file_size">7320919605</property>
  <property name="kdenlive:file_hash">305a2e1f8f3b9e51e9a0da642870036e</property>
  <property name="kdenlive:audio_max1">220</property>
  <property name="meta.media.nb_streams">2</property>
  <property name="meta.media.0.stream.type">video</property>
  <property name="meta.media.0.stream.frame_rate">23.976</property>
  <property name="meta.media.0.stream.sample_aspect_ratio">1</property>
  <property name="meta.media.0.codec.width">3840</property>
  <property name="meta.media.0.codec.height">2160</property>
  <property name="meta.media.0.codec.rotate">0</property>
  <property name="meta.media.0.codec.pix_fmt">yuv420p</property>
  <property name="meta.media.0.codec.sample_aspect_ratio">0</property>
  <property name="meta.media.0.codec.colorspace">709</property>
  <property name="meta.media.0.codec.color_trc">1</property>
  <property name="meta.media.0.codec.name">vp9</property>
  <property name="meta.media.0.codec.long_name">Google VP9</property>
  <property name="meta.media.0.codec.bit_rate">0</property>
  <property name="meta.attr.0.stream.language.markup">eng</property>
  <property name="meta.attr.0.stream.DURATION.markup">01:39:18.493000000</property>
  <property name="meta.media.1.stream.type">audio</property>
  <property name="meta.media.1.codec.sample_fmt">fltp</property>
  <property name="meta.media.1.codec.sample_rate">48000</property>
  <property name="meta.media.1.codec.channels">2</property>
  <property name="meta.media.1.codec.name">opus</property>
  <property name="meta.media.1.codec.long_name">Opus</property>
  <property name="meta.media.1.codec.bit_rate">0</property>
  <property name="meta.attr.1.stream.language.markup">eng</property>
  <property name="meta.attr.1.stream.DURATION.markup">01:39:18.521000000</property>
  <property name="meta.attr.ENCODER.markup">Lavf59.27.100</property>
  <property name="meta.media.sample_aspect_num">1</property>
  <property name="meta.media.sample_aspect_den">1</property>
  <property name="meta.media.frame_rate_num">24000</property>
  <property name="meta.media.frame_rate_den">1001</property>
  <property name="meta.media.colorspace">709</property>
  <property name="meta.media.color_trc">1</property>
  <property name="meta.media.has_b_frames">0</property>
  <property name="meta.media.width">3840</property>
  <property name="meta.media.height">2160</property>
  <property name="meta.media.color_range">mpeg</property>
  <property name="xml">was here</property>
  <property name="meta.media.top_field_first">0</property>
  <property name="meta.media.progressive">1</property>
  <property name="set.test_audio">0</property>
  <property name="set.test_image">1</property>
  <property name="mute_on_pause">1</property>
 </chain>
 <chain id="chain115" out="01:15:45.840">
  <property name="length">113647</property>
  <property name="eof">pause</property>
  <property name="resource">b-roll/Watching Shadiversity Desperately Try To Defend AI Art (he fails) [UqN7cdzWzvU].webm</property>
  <property name="mlt_service">avformat-novalidate</property>
  <property name="seekable">1</property>
  <property name="format">3</property>
  <property name="audio_index">1</property>
  <property name="video_index">0</property>
  <property name="kdenlive:clipname"/>
  <property name="kdenlive:clip_type">0</property>
  <property name="kdenlive:folderid">-1</property>
  <property name="kdenlive:id">404</property>
  <property name="kdenlive:file_size">630698662</property>
  <property name="kdenlive:file_hash">5142aba64b38d266326aaebb7d19a7c2</property>
  <property name="meta.media.nb_streams">2</property>
  <property name="meta.media.0.stream.type">video</property>
  <property name="meta.media.0.stream.frame_rate">30.001</property>
  <property name="meta.media.0.stream.sample_aspect_ratio">1</property>
  <property name="meta.media.0.codec.width">1920</property>
  <property name="meta.media.0.codec.height">1080</property>
  <property name="meta.media.0.codec.rotate">0</property>
  <property name="meta.media.0.codec.pix_fmt">yuv420p</property>
  <property name="meta.media.0.codec.sample_aspect_ratio">0</property>
  <property name="meta.media.0.codec.colorspace">709</property>
  <property name="meta.media.0.codec.color_trc">1</property>
  <property name="meta.media.0.codec.name">vp9</property>
  <property name="meta.media.0.codec.long_name">Google VP9</property>
  <property name="meta.media.0.codec.bit_rate">0</property>
  <property name="meta.attr.0.stream.HANDLER_NAME.markup">ISO Media file produced by Google Inc. Created on: 12/14/2023.</property>
  <property name="meta.attr.0.stream.VENDOR_ID.markup">[0][0][0][0]</property>
  <property name="meta.attr.0.stream.DURATION.markup">01:15:45.833000000</property>
  <property name="meta.media.1.stream.type">audio</property>
  <property name="meta.media.1.codec.sample_fmt">fltp</property>
  <property name="meta.media.1.codec.sample_rate">48000</property>
  <property name="meta.media.1.codec.channels">2</property>
  <property name="meta.media.1.codec.name">opus</property>
  <property name="meta.media.1.codec.long_name">Opus</property>
  <property name="meta.media.1.codec.bit_rate">0</property>
  <property name="meta.attr.1.stream.language.markup">eng</property>
  <property name="meta.attr.1.stream.DURATION.markup">01:15:45.861000000</property>
  <property name="meta.attr.COMPATIBLE_BRANDS.markup">iso6mp41</property>
  <property name="meta.attr.MAJOR_BRAND.markup">dash</property>
  <property name="meta.attr.MINOR_VERSION.markup">0</property>
  <property name="meta.attr.ENCODER.markup">Lavf59.27.100</property>
  <property name="meta.media.sample_aspect_num">1</property>
  <property name="meta.media.sample_aspect_den">1</property>
  <property name="meta.media.frame_rate_num">29971</property>
  <property name="meta.media.frame_rate_den">999</property>
  <property name="meta.media.colorspace">709</property>
  <property name="meta.media.color_trc">1</property>
  <property name="meta.media.has_b_frames">0</property>
  <property name="meta.media.width">1920</property>
  <property name="meta.media.height">1080</property>
  <property name="meta.media.color_range">mpeg</property>
  <property name="xml">was here</property>
  <property name="meta.media.top_field_first">0</property>
  <property name="meta.media.progressive">1</property>
  <property name="set.test_audio">0</property>
  <property name="set.test_image">1</property>
  <property name="mute_on_pause">1</property>
 </chain>
 <chain id="chain116" out="01:29:44.560">
  <property name="length">134615</property>
  <property name="eof">pause</property>
  <property name="resource">b-roll/The existential threat of AI art and why not to quit drawing - Sketchy Van Podcast #60 Steven Zapata [OCY7lb_i0yM].webm</property>
  <property name="mlt_service">avformat-novalidate</property>
  <property name="seekable">1</property>
  <property name="format">3</property>
  <property name="audio_index">1</property>
  <property name="video_index">0</property>
  <property name="kdenlive:clipname"/>
  <property name="kdenlive:clip_type">0</property>
  <property name="kdenlive:folderid">14</property>
  <property name="kdenlive:id">15</property>
  <property name="kdenlive:file_size">688601410</property>
  <property name="kdenlive:file_hash">ec2cc4d9055656138f14a8b4cd1ae4e8</property>
  <property name="kdenlive:audio_max1">227</property>
  <property name="meta.media.nb_streams">2</property>
  <property name="meta.media.0.stream.type">video</property>
  <property name="meta.media.0.stream.frame_rate">23.976</property>
  <property name="meta.media.0.stream.sample_aspect_ratio">1</property>
  <property name="meta.media.0.codec.width">1920</property>
  <property name="meta.media.0.codec.height">1080</property>
  <property name="meta.media.0.codec.rotate">0</property>
  <property name="meta.media.0.codec.pix_fmt">yuv420p</property>
  <property name="meta.media.0.codec.sample_aspect_ratio">0</property>
  <property name="meta.media.0.codec.colorspace">709</property>
  <property name="meta.media.0.codec.color_trc">1</property>
  <property name="meta.media.0.codec.name">vp9</property>
  <property name="meta.media.0.codec.long_name">Google VP9</property>
  <property name="meta.media.0.codec.bit_rate">0</property>
  <property name="meta.attr.0.stream.language.markup">eng</property>
  <property name="meta.attr.0.stream.DURATION.markup">01:29:44.545000000</property>
  <property name="meta.media.1.stream.type">audio</property>
  <property name="meta.media.1.codec.sample_fmt">fltp</property>
  <property name="meta.media.1.codec.sample_rate">48000</property>
  <property name="meta.media.1.codec.channels">2</property>
  <property name="meta.media.1.codec.name">opus</property>
  <property name="meta.media.1.codec.long_name">Opus</property>
  <property name="meta.media.1.codec.bit_rate">0</property>
  <property name="meta.attr.1.stream.language.markup">eng</property>
  <property name="meta.attr.1.stream.DURATION.markup">01:29:44.581000000</property>
  <property name="meta.attr.ENCODER.markup">Lavf59.27.100</property>
  <property name="meta.media.sample_aspect_num">1</property>
  <property name="meta.media.sample_aspect_den">1</property>
  <property name="meta.media.frame_rate_num">24000</property>
  <property name="meta.media.frame_rate_den">1001</property>
  <property name="meta.media.colorspace">709</property>
  <property name="meta.media.color_trc">1</property>
  <property name="meta.media.has_b_frames">0</property>
  <property name="meta.media.width">1920</property>
  <property name="meta.media.height">1080</property>
  <property name="meta.media.color_range">mpeg</property>
  <property name="xml">was here</property>
  <property name="meta.media.top_field_first">0</property>
  <property name="meta.media.progressive">1</property>
  <property name="set.test_audio">0</property>
  <property name="set.test_image">1</property>
  <property name="mute_on_pause">1</property>
 </chain>
 <chain id="chain117" out="00:15:19.720">
  <property name="length">22994</property>
  <property name="eof">pause</property>
  <property name="resource">b-roll/No, Ai ï¼‚Artï¼‚ is not Art. [ESZO-XJZr0s].webm</property>
  <property name="mlt_service">avformat-novalidate</property>
  <property name="seekable">1</property>
  <property name="format">3</property>
  <property name="audio_index">1</property>
  <property name="video_index">0</property>
  <property name="kdenlive:clipname"/>
  <property name="kdenlive:clip_type">0</property>
  <property name="kdenlive:folderid">14</property>
  <property name="kdenlive:id">16</property>
  <property name="kdenlive:file_size">1017673363</property>
  <property name="kdenlive:file_hash">66e1573105c8305d8814272ead837152</property>
  <property name="kdenlive:audio_max1">229</property>
  <property name="meta.media.nb_streams">2</property>
  <property name="meta.media.0.stream.type">video</property>
  <property name="meta.media.0.stream.frame_rate">60</property>
  <property name="meta.media.0.stream.sample_aspect_ratio">1</property>
  <property name="meta.media.0.codec.width">3840</property>
  <property name="meta.media.0.codec.height">2160</property>
  <property name="meta.media.0.codec.rotate">0</property>
  <property name="meta.media.0.codec.pix_fmt">yuv420p</property>
  <property name="meta.media.0.codec.sample_aspect_ratio">0</property>
  <property name="meta.media.0.codec.colorspace">709</property>
  <property name="meta.media.0.codec.color_trc">1</property>
  <property name="meta.media.0.codec.name">vp9</property>
  <property name="meta.media.0.codec.long_name">Google VP9</property>
  <property name="meta.media.0.codec.bit_rate">0</property>
  <property name="meta.attr.0.stream.language.markup">eng</property>
  <property name="meta.attr.0.stream.DURATION.markup">00:15:19.732000000</property>
  <property name="meta.media.1.stream.type">audio</property>
  <property name="meta.media.1.codec.sample_fmt">fltp</property>
  <property name="meta.media.1.codec.sample_rate">48000</property>
  <property name="meta.media.1.codec.channels">2</property>
  <property name="meta.media.1.codec.name">opus</property>
  <property name="meta.media.1.codec.long_name">Opus</property>
  <property name="meta.media.1.codec.bit_rate">0</property>
  <property name="meta.attr.1.stream.language.markup">eng</property>
  <property name="meta.attr.1.stream.DURATION.markup">00:15:19.761000000</property>
  <property name="meta.attr.ENCODER.markup">Lavf59.27.100</property>
  <property name="meta.media.sample_aspect_num">1</property>
  <property name="meta.media.sample_aspect_den">1</property>
  <property name="meta.media.frame_rate_num">60</property>
  <property name="meta.media.frame_rate_den">1</property>
  <property name="meta.media.colorspace">709</property>
  <property name="meta.media.color_trc">1</property>
  <property name="meta.media.has_b_frames">0</property>
  <property name="meta.media.width">3840</property>
  <property name="meta.media.height">2160</property>
  <property name="meta.media.color_range">mpeg</property>
  <property name="xml">was here</property>
  <property name="meta.media.top_field_first">0</property>
  <property name="meta.media.progressive">1</property>
  <property name="set.test_audio">0</property>
  <property name="set.test_image">1</property>
  <property name="mute_on_pause">1</property>
 </chain>
 <chain id="chain118" out="02:07:46.080">
  <property name="length">191653</property>
  <property name="eof">pause</property>
  <property name="resource">audio/proc.mp3</property>
  <property name="mlt_service">avformat-novalidate</property>
  <property name="seekable">1</property>
  <property name="audio_index">0</property>
  <property name="video_index">-1</property>
  <property name="kdenlive:clipname"/>
  <property name="kdenlive:clip_type">1</property>
  <property name="kdenlive:folderid">-1</property>
  <property name="kdenlive:id">227</property>
  <property name="kdenlive:file_size">183987151</property>
  <property name="kdenlive:file_hash">061ccb25819b0a46ac8de7d9a2ee85c9</property>
  <property name="kdenlive:audio_max0">208</property>
  <property name="meta.media.nb_streams">1</property>
  <property name="meta.media.0.stream.type">audio</property>
  <property name="meta.media.0.codec.sample_fmt">fltp</property>
  <property name="meta.media.0.codec.sample_rate">44100</property>
  <property name="meta.media.0.codec.channels">2</property>
  <property name="meta.media.0.codec.name">mp3float</property>
  <property name="meta.media.0.codec.long_name">MP3 (MPEG audio layer 3)</property>
  <property name="meta.media.0.codec.bit_rate">192000</property>
  <property name="meta.attr.encoded_by.markup">LAME in FL Studio 21</property>
  <property name="meta.attr.date.markup">2023</property>
  <property name="xml">was here</property>
  <property name="set.test_audio">0</property>
  <property name="set.test_image">1</property>
  <property name="mute_on_pause">1</property>
 </chain>
 <chain id="chain119" out="00:02:48.920">
  <property name="length">4224</property>
  <property name="eof">pause</property>
  <property name="resource">audio/quotes/ai-art-quote/out/ai anime.mp3</property>
  <property name="mlt_service">avformat-novalidate</property>
  <property name="seekable">1</property>
  <property name="audio_index">0</property>
  <property name="video_index">-1</property>
  <property name="kdenlive:clipname"/>
  <property name="kdenlive:clip_type">1</property>
  <property name="kdenlive:folderid">-1</property>
  <property name="kdenlive:id">351</property>
  <property name="kdenlive:file_size">4055096</property>
  <property name="kdenlive:file_hash">a7ca7ee94a3ca9ade3805a3be0afc053</property>
  <property name="kdenlive:audio_max0">199</property>
  <property name="meta.media.nb_streams">1</property>
  <property name="meta.media.0.stream.type">audio</property>
  <property name="meta.media.0.codec.sample_fmt">fltp</property>
  <property name="meta.media.0.codec.sample_rate">44100</property>
  <property name="meta.media.0.codec.channels">2</property>
  <property name="meta.media.0.codec.name">mp3float</property>
  <property name="meta.media.0.codec.long_name">MP3 (MPEG audio layer 3)</property>
  <property name="meta.media.0.codec.bit_rate">192000</property>
  <property name="meta.attr.encoded_by.markup">LAME in FL Studio 21</property>
  <property name="meta.attr.date.markup">2023</property>
  <property name="xml">was here</property>
  <property name="set.test_audio">0</property>
  <property name="set.test_image">1</property>
  <property name="mute_on_pause">1</property>
 </chain>
 <chain id="chain120" out="00:02:48.920">
  <property name="length">4224</property>
  <property name="eof">pause</property>
  <property name="resource">audio/quotes/ai-art-quote/out/ai art istebrak.00.26.57.mp3</property>
  <property name="mlt_service">avformat-novalidate</property>
  <property name="seekable">1</property>
  <property name="audio_index">0</property>
  <property name="video_index">-1</property>
  <property name="kdenlive:clipname"/>
  <property name="kdenlive:clip_type">1</property>
  <property name="kdenlive:folderid">-1</property>
  <property name="kdenlive:id">373</property>
  <property name="kdenlive:file_size">4055096</property>
  <property name="kdenlive:file_hash">937d086ec4e469869e0b869c534e7fba</property>
  <property name="kdenlive:audio_max0">201</property>
  <property name="meta.media.nb_streams">1</property>
  <property name="meta.media.0.stream.type">audio</property>
  <property name="meta.media.0.codec.sample_fmt">fltp</property>
  <property name="meta.media.0.codec.sample_rate">44100</property>
  <property name="meta.media.0.codec.channels">2</property>
  <property name="meta.media.0.codec.name">mp3float</property>
  <property name="meta.media.0.codec.long_name">MP3 (MPEG audio layer 3)</property>
  <property name="meta.media.0.codec.bit_rate">192000</property>
  <property name="meta.attr.encoded_by.markup">LAME in FL Studio 21</property>
  <property name="meta.attr.date.markup">2023</property>
  <property name="xml">was here</property>
  <property name="set.test_audio">0</property>
  <property name="set.test_image">1</property>
  <property name="mute_on_pause">1</property>
 </chain>
 <chain id="chain121" out="00:02:48.920">
  <property name="length">4224</property>
  <property name="eof">pause</property>
  <property name="resource">audio/quotes/ai-art-quote/out/ai future of art.02.19.00.mp3</property>
  <property name="mlt_service">avformat-novalidate</property>
  <property name="seekable">1</property>
  <property name="audio_index">0</property>
  <property name="video_index">-1</property>
  <property name="kdenlive:clipname"/>
  <property name="kdenlive:clip_type">1</property>
  <property name="kdenlive:folderid">-1</property>
  <property name="kdenlive:id">396</property>
  <property name="kdenlive:file_size">4055096</property>
  <property name="kdenlive:file_hash">8f8ff75e1c689d980c540cac94b06650</property>
  <property name="kdenlive:audio_max0">197</property>
  <property name="meta.media.nb_streams">1</property>
  <property name="meta.media.0.stream.type">audio</property>
  <property name="meta.media.0.codec.sample_fmt">fltp</property>
  <property name="meta.media.0.codec.sample_rate">44100</property>
  <property name="meta.media.0.codec.channels">2</property>
  <property name="meta.media.0.codec.name">mp3float</property>
  <property name="meta.media.0.codec.long_name">MP3 (MPEG audio layer 3)</property>
  <property name="meta.media.0.codec.bit_rate">192000</property>
  <property name="meta.attr.encoded_by.markup">LAME in FL Studio 21</property>
  <property name="meta.attr.date.markup">2023</property>
  <property name="xml">was here</property>
  <property name="set.test_audio">0</property>
  <property name="set.test_image">1</property>
  <property name="mute_on_pause">1</property>
 </chain>
 <chain id="chain122" out="00:02:48.920">
  <property name="length">4224</property>
  <property name="eof">pause</property>
  <property name="resource">audio/quotes/ai-art-quote/doomed to be replaced.00.23.50.mp3</property>
  <property name="mlt_service">avformat-novalidate</property>
  <property name="seekable">1</property>
  <property name="audio_index">0</property>
  <property name="video_index">-1</property>
  <property name="kdenlive:clipname"/>
  <property name="kdenlive:clip_type">1</property>
  <property name="kdenlive:folderid">350</property>
  <property name="kdenlive:id">476</property>
  <property name="kdenlive:file_size">4055096</property>
  <property name="kdenlive:file_hash">3cf26b275ff7a769428c952fe3ddab80</property>
  <property name="kdenlive:audio_max0">194</property>
  <property name="meta.media.nb_streams">1</property>
  <property name="meta.media.0.stream.type">audio</property>
  <property name="meta.media.0.codec.sample_fmt">fltp</property>
  <property name="meta.media.0.codec.sample_rate">44100</property>
  <property name="meta.media.0.codec.channels">2</property>
  <property name="meta.media.0.codec.name">mp3float</property>
  <property name="meta.media.0.codec.long_name">MP3 (MPEG audio layer 3)</property>
  <property name="meta.media.0.codec.bit_rate">192000</property>
  <property name="meta.attr.encoded_by.markup">LAME in FL Studio 21</property>
  <property name="meta.attr.date.markup">2023</property>
  <property name="xml">was here</property>
  <property name="set.test_audio">0</property>
  <property name="set.test_image">1</property>
  <property name="mute_on_pause">1</property>
 </chain>
 <chain id="chain123" out="00:02:48.920">
  <property name="length">4224</property>
  <property name="eof">pause</property>
  <property name="resource">audio/quotes/ai-art-quote/out/ai art istebrak.01.41.51.mp3</property>
  <property name="mlt_service">avformat-novalidate</property>
  <property name="seekable">1</property>
  <property name="audio_index">0</property>
  <property name="video_index">-1</property>
  <property name="kdenlive:clipname"/>
  <property name="kdenlive:clip_type">1</property>
  <property name="kdenlive:folderid">-1</property>
  <property name="kdenlive:id">631</property>
  <property name="kdenlive:file_size">4055096</property>
  <property name="kdenlive:file_hash">6dc66d14bbea918d1944786bd933a0db</property>
  <property name="kdenlive:audio_max0">201</property>
  <property name="meta.media.nb_streams">1</property>
  <property name="meta.media.0.stream.type">audio</property>
  <property name="meta.media.0.codec.sample_fmt">fltp</property>
  <property name="meta.media.0.codec.sample_rate">44100</property>
  <property name="meta.media.0.codec.channels">2</property>
  <property name="meta.media.0.codec.name">mp3float</property>
  <property name="meta.media.0.codec.long_name">MP3 (MPEG audio layer 3)</property>
  <property name="meta.media.0.codec.bit_rate">192000</property>
  <property name="meta.attr.encoded_by.markup">LAME in FL Studio 21</property>
  <property name="meta.attr.date.markup">2023</property>
  <property name="xml">was here</property>
  <property name="set.test_audio">0</property>
  <property name="set.test_image">1</property>
  <property name="mute_on_pause">1</property>
 </chain>
 <chain id="chain124" out="00:02:48.920">
  <property name="length">4224</property>
  <property name="eof">pause</property>
  <property name="resource">audio/quotes/ai-art-quote/artist authenticity.00.49.01.mp3</property>
  <property name="mlt_service">avformat-novalidate</property>
  <property name="seekable">1</property>
  <property name="audio_index">0</property>
  <property name="video_index">-1</property>
  <property name="kdenlive:clipname"/>
  <property name="kdenlive:clip_type">1</property>
  <property name="kdenlive:folderid">-1</property>
  <property name="kdenlive:id">639</property>
  <property name="kdenlive:file_size">4055096</property>
  <property name="kdenlive:file_hash">11d2379fe8e94ac4ddf62e39daaff439</property>
  <property name="kdenlive:audio_max0">196</property>
  <property name="meta.media.nb_streams">1</property>
  <property name="meta.media.0.stream.type">audio</property>
  <property name="meta.media.0.codec.sample_fmt">fltp</property>
  <property name="meta.media.0.codec.sample_rate">44100</property>
  <property name="meta.media.0.codec.channels">2</property>
  <property name="meta.media.0.codec.name">mp3float</property>
  <property name="meta.media.0.codec.long_name">MP3 (MPEG audio layer 3)</property>
  <property name="meta.media.0.codec.bit_rate">192000</property>
  <property name="meta.attr.encoded_by.markup">LAME in FL Studio 21</property>
  <property name="meta.attr.date.markup">2023</property>
  <property name="xml">was here</property>
  <property name="set.test_audio">0</property>
  <property name="set.test_image">1</property>
  <property name="mute_on_pause">1</property>
 </chain>
 <chain id="chain125" out="00:02:48.920">
  <property name="length">4224</property>
  <property name="eof">pause</property>
  <property name="resource">audio/quotes/ai-art-quote/creatives view.00.06.35.mp3</property>
  <property name="mlt_service">avformat-novalidate</property>
  <property name="seekable">1</property>
  <property name="audio_index">0</property>
  <property name="video_index">-1</property>
  <property name="kdenlive:clipname"/>
  <property name="kdenlive:clip_type">1</property>
  <property name="kdenlive:folderid">-1</property>
  <property name="kdenlive:id">647</property>
  <property name="kdenlive:file_size">4055096</property>
  <property name="kdenlive:file_hash">c4883a63283c31ada8ef5f4f40b351aa</property>
  <property name="kdenlive:audio_max0">200</property>
  <property name="meta.media.nb_streams">1</property>
  <property name="meta.media.0.stream.type">audio</property>
  <property name="meta.media.0.codec.sample_fmt">fltp</property>
  <property name="meta.media.0.codec.sample_rate">44100</property>
  <property name="meta.media.0.codec.channels">2</property>
  <property name="meta.media.0.codec.name">mp3float</property>
  <property name="meta.media.0.codec.long_name">MP3 (MPEG audio layer 3)</property>
  <property name="meta.media.0.codec.bit_rate">192000</property>
  <property name="meta.attr.encoded_by.markup">LAME in FL Studio 21</property>
  <property name="meta.attr.date.markup">2023</property>
  <property name="xml">was here</property>
  <property name="set.test_audio">0</property>
  <property name="set.test_image">1</property>
  <property name="mute_on_pause">1</property>
 </chain>
 <chain id="chain126" out="00:02:48.920">
  <property name="length">4224</property>
  <property name="eof">pause</property>
  <property name="resource">audio/quotes/ai-art-quote/creatives view.00.35.10.mp3</property>
  <property name="mlt_service">avformat-novalidate</property>
  <property name="seekable">1</property>
  <property name="audio_index">0</property>
  <property name="video_index">-1</property>
  <property name="kdenlive:clipname"/>
  <property name="kdenlive:clip_type">1</property>
  <property name="kdenlive:folderid">-1</property>
  <property name="kdenlive:id">690</property>
  <property name="kdenlive:file_size">4055096</property>
  <property name="kdenlive:file_hash">2576d7199780ffeacceb019ee947e4ad</property>
  <property name="kdenlive:audio_max0">202</property>
  <property name="meta.media.nb_streams">1</property>
  <property name="meta.media.0.stream.type">audio</property>
  <property name="meta.media.0.codec.sample_fmt">fltp</property>
  <property name="meta.media.0.codec.sample_rate">44100</property>
  <property name="meta.media.0.codec.channels">2</property>
  <property name="meta.media.0.codec.name">mp3float</property>
  <property name="meta.media.0.codec.long_name">MP3 (MPEG audio layer 3)</property>
  <property name="meta.media.0.codec.bit_rate">192000</property>
  <property name="meta.attr.encoded_by.markup">LAME in FL Studio 21</property>
  <property name="meta.attr.date.markup">2023</property>
  <property name="xml">was here</property>
  <property name="set.test_audio">0</property>
  <property name="set.test_image">1</property>
  <property name="mute_on_pause">1</property>
 </chain>
 <chain id="chain127" out="00:02:48.920">
  <property name="length">4224</property>
  <property name="eof">pause</property>
  <property name="resource">audio/quotes/ai-art-quote/rothbard.mp3</property>
  <property name="mlt_service">avformat-novalidate</property>
  <property name="seekable">1</property>
  <property name="audio_index">0</property>
  <property name="video_index">-1</property>
  <property name="kdenlive:clipname"/>
  <property name="kdenlive:clip_type">1</property>
  <property name="kdenlive:folderid">-1</property>
  <property name="kdenlive:id">743</property>
  <property name="kdenlive:file_size">4055096</property>
  <property name="kdenlive:file_hash">157bf744524957ec60ea00ecd77a0bcf</property>
  <property name="kdenlive:audio_max0">195</property>
  <property name="meta.media.nb_streams">1</property>
  <property name="meta.media.0.stream.type">audio</property>
  <property name="meta.media.0.codec.sample_fmt">fltp</property>
  <property name="meta.media.0.codec.sample_rate">44100</property>
  <property name="meta.media.0.codec.channels">2</property>
  <property name="meta.media.0.codec.name">mp3float</property>
  <property name="meta.media.0.codec.long_name">MP3 (MPEG audio layer 3)</property>
  <property name="meta.media.0.codec.bit_rate">192000</property>
  <property name="meta.attr.encoded_by.markup">LAME in FL Studio 21</property>
  <property name="meta.attr.date.markup">2023</property>
  <property name="xml">was here</property>
  <property name="set.test_audio">0</property>
  <property name="set.test_image">1</property>
  <property name="mute_on_pause">1</property>
 </chain>
 <chain id="chain128" out="00:02:48.920">
  <property name="length">4224</property>
  <property name="eof">pause</property>
  <property name="resource">audio/quotes/ai-art-quote/out/ai art istebrak.00.17.17.mp3</property>
  <property name="mlt_service">avformat-novalidate</property>
  <property name="seekable">1</property>
  <property name="audio_index">0</property>
  <property name="video_index">-1</property>
  <property name="kdenlive:clipname"/>
  <property name="kdenlive:clip_type">1</property>
  <property name="kdenlive:folderid">350</property>
  <property name="kdenlive:id">752</property>
  <property name="kdenlive:file_size">4055096</property>
  <property name="kdenlive:file_hash">a773a66786e387d592c812d0de24b00b</property>
  <property name="kdenlive:audio_max0">199</property>
  <property name="meta.media.nb_streams">1</property>
  <property name="meta.media.0.stream.type">audio</property>
  <property name="meta.media.0.codec.sample_fmt">fltp</property>
  <property name="meta.media.0.codec.sample_rate">44100</property>
  <property name="meta.media.0.codec.channels">2</property>
  <property name="meta.media.0.codec.name">mp3float</property>
  <property name="meta.media.0.codec.long_name">MP3 (MPEG audio layer 3)</property>
  <property name="meta.media.0.codec.bit_rate">192000</property>
  <property name="meta.attr.encoded_by.markup">LAME in FL Studio 21</property>
  <property name="meta.attr.date.markup">2023</property>
  <property name="xml">was here</property>
  <property name="set.test_audio">0</property>
  <property name="set.test_image">1</property>
  <property name="mute_on_pause">1</property>
 </chain>
 <chain id="chain129" out="00:02:48.920">
  <property name="length">4224</property>
  <property name="eof">pause</property>
  <property name="resource">audio/quotes/ai-art-quote/out/ai art istebrak.01.19.22.mp3</property>
  <property name="mlt_service">avformat-novalidate</property>
  <property name="seekable">1</property>
  <property name="audio_index">0</property>
  <property name="video_index">-1</property>
  <property name="kdenlive:clipname"/>
  <property name="kdenlive:clip_type">1</property>
  <property name="kdenlive:folderid">-1</property>
  <property name="kdenlive:id">767</property>
  <property name="kdenlive:file_size">4055096</property>
  <property name="kdenlive:file_hash">b46b4bf4c6fd0f9356b89974a75d0c50</property>
  <property name="kdenlive:audio_max0">202</property>
  <property name="meta.media.nb_streams">1</property>
  <property name="meta.media.0.stream.type">audio</property>
  <property name="meta.media.0.codec.sample_fmt">fltp</property>
  <property name="meta.media.0.codec.sample_rate">44100</property>
  <property name="meta.media.0.codec.channels">2</property>
  <property name="meta.media.0.codec.name">mp3float</property>
  <property name="meta.media.0.codec.long_name">MP3 (MPEG audio layer 3)</property>
  <property name="meta.media.0.codec.bit_rate">192000</property>
  <property name="meta.attr.encoded_by.markup">LAME in FL Studio 21</property>
  <property name="meta.attr.date.markup">2023</property>
  <property name="xml">was here</property>
  <property name="set.test_audio">0</property>
  <property name="set.test_image">1</property>
  <property name="mute_on_pause">1</property>
 </chain>
 <chain id="chain130" out="00:02:48.920">
  <property name="length">4224</property>
  <property name="eof">pause</property>
  <property name="resource">audio/quotes/ai-art-quote/out/ai art istebrak.01.28.07.mp3</property>
  <property name="mlt_service">avformat-novalidate</property>
  <property name="seekable">1</property>
  <property name="audio_index">0</property>
  <property name="video_index">-1</property>
  <property name="kdenlive:clipname"/>
  <property name="kdenlive:clip_type">1</property>
  <property name="kdenlive:folderid">350</property>
  <property name="kdenlive:id">768</property>
  <property name="kdenlive:file_size">4055096</property>
  <property name="kdenlive:file_hash">4e8bccab534c5f3aeb0515d24c09492b</property>
  <property name="kdenlive:audio_max0">199</property>
  <property name="meta.media.nb_streams">1</property>
  <property name="meta.media.0.stream.type">audio</property>
  <property name="meta.media.0.codec.sample_fmt">fltp</property>
  <property name="meta.media.0.codec.sample_rate">44100</property>
  <property name="meta.media.0.codec.channels">2</property>
  <property name="meta.media.0.codec.name">mp3float</property>
  <property name="meta.media.0.codec.long_name">MP3 (MPEG audio layer 3)</property>
  <property name="meta.media.0.codec.bit_rate">192000</property>
  <property name="meta.attr.encoded_by.markup">LAME in FL Studio 21</property>
  <property name="meta.attr.date.markup">2023</property>
  <property name="xml">was here</property>
  <property name="set.test_audio">0</property>
  <property name="set.test_image">1</property>
  <property name="mute_on_pause">1</property>
 </chain>
 <chain id="chain142" out="00:02:48.920">
  <property name="length">4224</property>
  <property name="eof">pause</property>
  <property name="resource">audio/quotes/ai-art-quote/out/ai ethics.00.17.19.mp3</property>
  <property name="mlt_service">avformat-novalidate</property>
  <property name="seekable">1</property>
  <property name="audio_index">0</property>
  <property name="video_index">-1</property>
  <property name="kdenlive:clipname"/>
  <property name="kdenlive:clip_type">1</property>
  <property name="kdenlive:folderid">-1</property>
  <property name="kdenlive:id">794</property>
  <property name="kdenlive:file_size">4055096</property>
  <property name="kdenlive:file_hash">6643433250abaefa2acfaaa91bf5aec1</property>
  <property name="kdenlive:audio_max0">199</property>
  <property name="meta.media.nb_streams">1</property>
  <property name="meta.media.0.stream.type">audio</property>
  <property name="meta.media.0.codec.sample_fmt">fltp</property>
  <property name="meta.media.0.codec.sample_rate">44100</property>
  <property name="meta.media.0.codec.channels">2</property>
  <property name="meta.media.0.codec.name">mp3float</property>
  <property name="meta.media.0.codec.long_name">MP3 (MPEG audio layer 3)</property>
  <property name="meta.media.0.codec.bit_rate">192000</property>
  <property name="meta.attr.encoded_by.markup">LAME in FL Studio 21</property>
  <property name="meta.attr.date.markup">2023</property>
  <property name="xml">was here</property>
  <property name="set.test_audio">0</property>
  <property name="set.test_image">1</property>
  <property name="mute_on_pause">1</property>
 </chain>
 <chain id="chain143" out="00:02:48.920">
  <property name="length">4224</property>
  <property name="eof">pause</property>
  <property name="resource">audio/quotes/ai-art-quote/what ai developers.01.03.25.mp3</property>
  <property name="mlt_service">avformat-novalidate</property>
  <property name="seekable">1</property>
  <property name="audio_index">0</property>
  <property name="video_index">-1</property>
  <property name="kdenlive:clipname"/>
  <property name="kdenlive:clip_type">1</property>
  <property name="kdenlive:folderid">-1</property>
  <property name="kdenlive:id">804</property>
  <property name="kdenlive:file_size">4055096</property>
  <property name="kdenlive:file_hash">c28b889bd25e96aeffbd5ecc562bef59</property>
  <property name="kdenlive:audio_max0">201</property>
  <property name="meta.media.nb_streams">1</property>
  <property name="meta.media.0.stream.type">audio</property>
  <property name="meta.media.0.codec.sample_fmt">fltp</property>
  <property name="meta.media.0.codec.sample_rate">44100</property>
  <property name="meta.media.0.codec.channels">2</property>
  <property name="meta.media.0.codec.name">mp3float</property>
  <property name="meta.media.0.codec.long_name">MP3 (MPEG audio layer 3)</property>
  <property name="meta.media.0.codec.bit_rate">192000</property>
  <property name="meta.attr.encoded_by.markup">LAME in FL Studio 21</property>
  <property name="meta.attr.date.markup">2023</property>
  <property name="xml">was here</property>
  <property name="set.test_audio">0</property>
  <property name="set.test_image">1</property>
  <property name="mute_on_pause">1</property>
 </chain>
 <chain id="chain144" out="00:02:48.920">
  <property name="length">4224</property>
  <property name="eof">pause</property>
  <property name="resource">audio/quotes/ai-art-quote/no ai does not democratise art.00.03.51.mp3</property>
  <property name="mlt_service">avformat-novalidate</property>
  <property name="seekable">1</property>
  <property name="audio_index">0</property>
  <property name="video_index">-1</property>
  <property name="kdenlive:clipname"/>
  <property name="kdenlive:clip_type">1</property>
  <property name="kdenlive:folderid">-1</property>
  <property name="kdenlive:id">825</property>
  <property name="kdenlive:file_size">4055096</property>
  <property name="kdenlive:file_hash">06dd861a3395587094d6814105439493</property>
  <property name="kdenlive:audio_max0">199</property>
  <property name="meta.media.nb_streams">1</property>
  <property name="meta.media.0.stream.type">audio</property>
  <property name="meta.media.0.codec.sample_fmt">fltp</property>
  <property name="meta.media.0.codec.sample_rate">44100</property>
  <property name="meta.media.0.codec.channels">2</property>
  <property name="meta.media.0.codec.name">mp3float</property>
  <property name="meta.media.0.codec.long_name">MP3 (MPEG audio layer 3)</property>
  <property name="meta.media.0.codec.bit_rate">192000</property>
  <property name="meta.attr.encoded_by.markup">LAME in FL Studio 21</property>
  <property name="meta.attr.date.markup">2023</property>
  <property name="xml">was here</property>
  <property name="set.test_audio">0</property>
  <property name="set.test_image">1</property>
  <property name="mute_on_pause">1</property>
 </chain>
 <chain id="chain145" out="00:02:48.920">
  <property name="length">4224</property>
  <property name="eof">pause</property>
  <property name="resource">audio/quotes/ai-art-quote/out/ai ethics.01.23.00.mp3</property>
  <property name="mlt_service">avformat-novalidate</property>
  <property name="seekable">1</property>
  <property name="audio_index">0</property>
  <property name="video_index">-1</property>
  <property name="mute_on_pause">0</property>
  <property name="kdenlive:clipname"/>
  <property name="kdenlive:clip_type">1</property>
  <property name="kdenlive:folderid">350</property>
  <property name="kdenlive:id">838</property>
  <property name="kdenlive:file_size">4055096</property>
  <property name="kdenlive:file_hash">9d063dc33c08cede74451820a9959b95</property>
  <property name="kdenlive:audio_max0">199</property>
  <property name="meta.media.nb_streams">1</property>
  <property name="meta.media.0.stream.type">audio</property>
  <property name="meta.media.0.codec.sample_fmt">fltp</property>
  <property name="meta.media.0.codec.sample_rate">44100</property>
  <property name="meta.media.0.codec.channels">2</property>
  <property name="meta.media.0.codec.name">mp3float</property>
  <property name="meta.media.0.codec.long_name">MP3 (MPEG audio layer 3)</property>
  <property name="meta.media.0.codec.bit_rate">192000</property>
  <property name="meta.attr.encoded_by.markup">LAME in FL Studio 21</property>
  <property name="meta.attr.date.markup">2023</property>
  <property name="xml">was here</property>
  <property name="set.test_audio">0</property>
  <property name="set.test_image">1</property>
 </chain>
 <chain id="chain146" out="00:02:48.920">
  <property name="length">4224</property>
  <property name="eof">pause</property>
  <property name="resource">audio/quotes/ai-art-quote/out/ai ethics.00.56.13.mp3</property>
  <property name="mlt_service">avformat-novalidate</property>
  <property name="seekable">1</property>
  <property name="audio_index">0</property>
  <property name="video_index">-1</property>
  <property name="mute_on_pause">0</property>
  <property name="kdenlive:clipname"/>
  <property name="kdenlive:clip_type">1</property>
  <property name="kdenlive:folderid">350</property>
  <property name="kdenlive:id">844</property>
  <property name="kdenlive:file_size">4055096</property>
  <property name="kdenlive:file_hash">770c125c0591e074e7b3e6a96786d5f1</property>
  <property name="kdenlive:audio_max0">202</property>
  <property name="meta.media.nb_streams">1</property>
  <property name="meta.media.0.stream.type">audio</property>
  <property name="meta.media.0.codec.sample_fmt">fltp</property>
  <property name="meta.media.0.codec.sample_rate">44100</property>
  <property name="meta.media.0.codec.channels">2</property>
  <property name="meta.media.0.codec.name">mp3float</property>
  <property name="meta.media.0.codec.long_name">MP3 (MPEG audio layer 3)</property>
  <property name="meta.media.0.codec.bit_rate">192000</property>
  <property name="meta.attr.encoded_by.markup">LAME in FL Studio 21</property>
  <property name="meta.attr.date.markup">2023</property>
  <property name="xml">was here</property>
  <property name="set.test_audio">0</property>
  <property name="set.test_image">1</property>
 </chain>
 <chain id="chain147" out="00:00:09.240">
  <property name="length">232</property>
  <property name="eof">pause</property>
  <property name="resource">audio/comment.mp3</property>
  <property name="mlt_service">avformat-novalidate</property>
  <property name="seekable">1</property>
  <property name="audio_index">0</property>
  <property name="video_index">-1</property>
  <property name="mute_on_pause">0</property>
  <property name="kdenlive:clipname"/>
  <property name="kdenlive:clip_type">1</property>
  <property name="kdenlive:folderid">-1</property>
  <property name="kdenlive:id">886</property>
  <property name="kdenlive:file_size">101588</property>
  <property name="kdenlive:file_hash">db0400b30cf81ca1d745865f2b567f47</property>
  <property name="kdenlive:audio_max0">102</property>
  <property name="meta.media.nb_streams">1</property>
  <property name="meta.media.0.stream.type">audio</property>
  <property name="meta.media.0.codec.sample_fmt">fltp</property>
  <property name="meta.media.0.codec.sample_rate">44100</property>
  <property name="meta.media.0.codec.channels">1</property>
  <property name="meta.media.0.codec.name">mp3float</property>
  <property name="meta.media.0.codec.long_name">MP3 (MPEG audio layer 3)</property>
  <property name="meta.media.0.codec.bit_rate">87391</property>
  <property name="meta.attr.0.stream.encoder.markup">LAME3.100</property>
  <property name="xml">was here</property>
  <property name="set.test_audio">0</property>
  <property name="set.test_image">1</property>
 </chain>
 <chain id="chain148" out="00:02:48.920">
  <property name="length">4224</property>
  <property name="eof">pause</property>
  <property name="resource">audio/quotes/ai-art-quote/out/ai ml media advocacy.00.47.10.mp3</property>
  <property name="mlt_service">avformat-novalidate</property>
  <property name="seekable">1</property>
  <property name="audio_index">0</property>
  <property name="video_index">-1</property>
  <property name="mute_on_pause">0</property>
  <property name="kdenlive:clipname"/>
  <property name="kdenlive:clip_type">1</property>
  <property name="kdenlive:folderid">-1</property>
  <property name="kdenlive:id">890</property>
  <property name="kdenlive:file_size">4055096</property>
  <property name="kdenlive:file_hash">8aa41a640c6b406bf2d1a7c1498eaff5</property>
  <property name="kdenlive:audio_max0">199</property>
  <property name="meta.media.nb_streams">1</property>
  <property name="meta.media.0.stream.type">audio</property>
  <property name="meta.media.0.codec.sample_fmt">fltp</property>
  <property name="meta.media.0.codec.sample_rate">44100</property>
  <property name="meta.media.0.codec.channels">2</property>
  <property name="meta.media.0.codec.name">mp3float</property>
  <property name="meta.media.0.codec.long_name">MP3 (MPEG audio layer 3)</property>
  <property name="meta.media.0.codec.bit_rate">192000</property>
  <property name="meta.attr.encoded_by.markup">LAME in FL Studio 21</property>
  <property name="meta.attr.date.markup">2023</property>
  <property name="xml">was here</property>
  <property name="set.test_audio">0</property>
  <property name="set.test_image">1</property>
 </chain>
 <playlist id="playlist8">
  <property name="kdenlive:audio_track">1</property>
  <entry producer="chain101" in="01:41:51.920" out="01:41:56.840">
   <property name="kdenlive:id">6</property>
  </entry>
  <entry producer="chain101" in="00:17:17.680" out="00:17:23.160">
   <property name="kdenlive:id">6</property>
  </entry>
  <entry producer="chain101" in="00:17:23.880" out="00:17:24.360">
   <property name="kdenlive:id">6</property>
  </entry>
  <entry producer="chain114" in="00:17:10.360" out="00:17:16.560">
   <property name="kdenlive:id">7</property>
  </entry>
  <entry producer="chain114" in="00:17:37.000" out="00:17:44.160">
   <property name="kdenlive:id">7</property>
  </entry>
  <entry producer="chain114" in="01:23:00.560" out="01:23:13.800">
   <property name="kdenlive:id">7</property>
  </entry>
  <entry producer="chain115" in="00:31:05.440" out="00:31:10.560">
   <property name="kdenlive:id">404</property>
  </entry>
  <entry producer="chain116" in="00:27:07.560" out="00:27:16.080">
   <property name="kdenlive:id">15</property>
  </entry>
  <entry producer="chain117" in="00:11:18.320" out="00:11:24.720">
   <property name="kdenlive:id">16</property>
  </entry>
  <entry producer="chain114" in="00:56:15.520" out="00:56:22.240">
   <property name="kdenlive:id">7</property>
  </entry>
  <blank length="00:00:08.520"/>
  <entry producer="chain118" in="00:00:00.000" out="00:07:14.680">
   <property name="kdenlive:id">227</property>
   <filter id="filter239" out="00:00:00.040">
    <property name="window">75</property>
    <property name="max_gain">20dB</property>
    <property name="mlt_service">volume</property>
    <property name="kdenlive_id">fadein</property>
    <property name="gain">0</property>
    <property name="end">1</property>
    <property name="kdenlive:collapsed">0</property>
   </filter>
  </entry>
  <blank length="00:00:00.560"/>
  <entry producer="chain119" in="00:00:00.000" out="00:00:27.560">
   <property name="kdenlive:id">351</property>
   <filter id="filter240" out="00:00:00.160">
    <property name="window">75</property>
    <property name="max_gain">20dB</property>
    <property name="mlt_service">volume</property>
    <property name="kdenlive_id">fadein</property>
    <property name="gain">0</property>
    <property name="end">1</property>
    <property name="kdenlive:collapsed">0</property>
   </filter>
  </entry>
  <blank length="00:00:01.040"/>
  <entry producer="chain118" in="00:07:19.520" out="00:10:56.640">
   <property name="kdenlive:id">227</property>
  </entry>
  <blank length="00:00:00.520"/>
  <entry producer="chain120" in="00:00:00.000" out="00:00:04.480">
   <property name="kdenlive:id">373</property>
  </entry>
  <entry producer="chain120" in="00:00:06.520" out="00:00:07.320">
   <property name="kdenlive:id">373</property>
  </entry>
  <entry producer="chain120" in="00:00:09.440" out="00:00:26.480">
   <property name="kdenlive:id">373</property>
  </entry>
  <entry producer="chain120" in="00:00:30.440" out="00:00:35.120">
   <property name="kdenlive:id">373</property>
  </entry>
  <entry producer="chain120" in="00:00:35.640" out="00:00:39.960">
   <property name="kdenlive:id">373</property>
  </entry>
  <entry producer="chain120" in="00:00:43.640" out="00:00:48.720">
   <property name="kdenlive:id">373</property>
  </entry>
  <entry producer="chain120" in="00:00:52.760" out="00:01:00.480">
   <property name="kdenlive:id">373</property>
  </entry>
  <entry producer="chain120" in="00:01:02.240" out="00:01:05.360">
   <property name="kdenlive:id">373</property>
   <filter id="filter241" in="00:01:05.080" out="00:01:05.360">
    <property name="window">75</property>
    <property name="max_gain">20dB</property>
    <property name="mlt_service">volume</property>
    <property name="kdenlive_id">fadeout</property>
    <property name="gain">1</property>
    <property name="end">0</property>
   </filter>
  </entry>
  <blank length="00:00:00.080"/>
  <entry producer="chain120" in="00:01:06.920" out="00:01:18.320">
   <property name="kdenlive:id">373</property>
   <filter id="filter242" in="00:01:06.920" out="00:01:07.040">
    <property name="window">75</property>
    <property name="max_gain">20dB</property>
    <property name="mlt_service">volume</property>
    <property name="kdenlive_id">fadein</property>
    <property name="gain">0</property>
    <property name="end">1</property>
    <property name="kdenlive:collapsed">0</property>
   </filter>
  </entry>
  <blank length="00:00:00.400"/>
  <entry producer="chain118" in="00:10:59.000" out="00:12:47.640">
   <property name="kdenlive:id">227</property>
   <filter id="filter243" in="00:10:59.000" out="00:10:59.120">
    <property name="window">75</property>
    <property name="max_gain">20dB</property>
    <property name="mlt_service">volume</property>
    <property name="kdenlive_id">fadein</property>
    <property name="gain">0</property>
    <property name="end">1</property>
    <property name="kdenlive:collapsed">0</property>
   </filter>
  </entry>
  <blank length="00:00:00.400"/>
  <entry producer="chain121" in="00:00:00.000" out="00:00:29.880">
   <property name="kdenlive:id">396</property>
  </entry>
  <entry producer="chain121" in="00:00:49.840" out="00:01:09.560">
   <property name="kdenlive:id">396</property>
   <filter id="filter244" in="00:01:09.440" out="00:01:09.560">
    <property name="window">75</property>
    <property name="max_gain">20dB</property>
    <property name="mlt_service">volume</property>
    <property name="kdenlive_id">fadeout</property>
    <property name="gain">1</property>
    <property name="end">0</property>
   </filter>
  </entry>
  <blank length="00:00:00.080"/>
  <entry producer="chain121" in="00:01:14.480" out="00:01:28.240">
   <property name="kdenlive:id">396</property>
   <filter id="filter245" in="00:01:14.480" out="00:01:14.600">
    <property name="window">75</property>
    <property name="max_gain">20dB</property>
    <property name="mlt_service">volume</property>
    <property name="kdenlive_id">fadein</property>
    <property name="gain">0</property>
    <property name="end">1</property>
    <property name="kdenlive:collapsed">0</property>
   </filter>
  </entry>
  <entry producer="chain121" in="00:01:34.320" out="00:01:43.760">
   <property name="kdenlive:id">396</property>
  </entry>
  <entry producer="chain121" in="00:01:45.120" out="00:01:51.480">
   <property name="kdenlive:id">396</property>
  </entry>
  <blank length="00:00:00.320"/>
  <entry producer="chain118" in="00:12:49.440" out="00:15:24.080">
   <property name="kdenlive:id">227</property>
   <filter id="filter246" in="00:12:49.440" out="00:12:49.520">
    <property name="window">75</property>
    <property name="max_gain">20dB</property>
    <property name="mlt_service">volume</property>
    <property name="kdenlive_id">fadein</property>
    <property name="gain">0</property>
    <property name="end">1</property>
    <property name="kdenlive:collapsed">0</property>
   </filter>
  </entry>
  <blank length="00:00:39.560"/>
  <entry producer="chain118" in="00:15:32.320" out="00:16:12.880">
   <property name="kdenlive:id">227</property>
   <filter id="filter247" in="00:15:32.320" out="00:15:32.360">
    <property name="window">75</property>
    <property name="max_gain">20dB</property>
    <property name="mlt_service">volume</property>
    <property name="kdenlive_id">fadein</property>
    <property name="gain">0</property>
    <property name="end">1</property>
    <property name="kdenlive:collapsed">0</property>
   </filter>
  </entry>
  <blank length="00:00:54.840"/>
  <entry producer="chain118" in="00:16:20.000" out="00:18:51.000">
   <property name="kdenlive:id">227</property>
   <filter id="filter248" in="00:16:20.000" out="00:16:20.120">
    <property name="window">75</property>
    <property name="max_gain">20dB</property>
    <property name="mlt_service">volume</property>
    <property name="kdenlive_id">fadein</property>
    <property name="gain">0</property>
    <property name="end">1</property>
    <property name="kdenlive:collapsed">0</property>
   </filter>
  </entry>
  <blank length="00:00:00.480"/>
  <entry producer="chain122" in="00:00:00.000" out="00:01:14.480">
   <property name="kdenlive:id">476</property>
  </entry>
  <entry producer="chain118" in="00:18:55.360" out="00:37:22.480">
   <property name="kdenlive:id">227</property>
   <filter id="filter249" in="00:18:55.360" out="00:18:55.440">
    <property name="window">75</property>
    <property name="max_gain">20dB</property>
    <property name="mlt_service">volume</property>
    <property name="kdenlive_id">fadein</property>
    <property name="gain">0</property>
    <property name="end">1</property>
    <property name="kdenlive:collapsed">0</property>
   </filter>
  </entry>
  <entry producer="chain118" in="00:37:22.720" out="00:42:33.480">
   <property name="kdenlive:id">227</property>
  </entry>
  <blank length="00:00:00.760"/>
  <entry producer="chain123" in="00:00:00.000" out="00:00:05.040">
   <property name="kdenlive:id">631</property>
  </entry>
  <entry producer="chain123" in="00:00:06.520" out="00:00:10.600">
   <property name="kdenlive:id">631</property>
   <filter id="filter250" in="00:00:06.520" out="00:00:06.560">
    <property name="window">75</property>
    <property name="max_gain">20dB</property>
    <property name="mlt_service">volume</property>
    <property name="kdenlive_id">fadein</property>
    <property name="gain">0</property>
    <property name="end">1</property>
    <property name="kdenlive:collapsed">0</property>
   </filter>
  </entry>
  <entry producer="chain123" in="00:00:11.000" out="00:00:32.440">
   <property name="kdenlive:id">631</property>
   <filter id="filter251" in="00:00:11.000" out="00:00:11.080">
    <property name="window">75</property>
    <property name="max_gain">20dB</property>
    <property name="mlt_service">volume</property>
    <property name="kdenlive_id">fadein</property>
    <property name="gain">0</property>
    <property name="end">1</property>
    <property name="kdenlive:collapsed">0</property>
   </filter>
   <filter id="filter252" in="00:00:32.240" out="00:00:32.440">
    <property name="window">75</property>
    <property name="max_gain">20dB</property>
    <property name="mlt_service">volume</property>
    <property name="kdenlive_id">fadeout</property>
    <property name="gain">1</property>
    <property name="end">0</property>
    <property name="kdenlive:collapsed">0</property>
   </filter>
  </entry>
  <blank length="00:00:03.840"/>
  <entry producer="chain118" in="00:42:39.000" out="00:42:40.560">
   <property name="kdenlive:id">227</property>
   <filter id="filter253" in="00:42:39.000" out="00:42:39.120">
    <property name="window">75</property>
    <property name="max_gain">20dB</property>
    <property name="mlt_service">volume</property>
    <property name="kdenlive_id">fadein</property>
    <property name="gain">0</property>
    <property name="end">1</property>
    <property name="kdenlive:collapsed">0</property>
   </filter>
  </entry>
  <blank length="00:00:00.360"/>
  <entry producer="chain124" in="00:00:00.000" out="00:00:04.240">
   <property name="kdenlive:id">639</property>
  </entry>
  <entry producer="chain124" in="00:00:05.040" out="00:00:31.160">
   <property name="kdenlive:id">639</property>
  </entry>
  <entry producer="chain124" in="00:00:31.720" out="00:00:38.800">
   <property name="kdenlive:id">639</property>
  </entry>
  <entry producer="chain118" in="00:42:43.120" out="00:42:50.120">
   <property name="kdenlive:id">227</property>
   <filter id="filter254" in="00:42:43.120" out="00:42:43.240">
    <property name="window">75</property>
    <property name="max_gain">20dB</property>
    <property name="mlt_service">volume</property>
    <property name="kdenlive_id">fadein</property>
    <property name="gain">0</property>
    <property name="end">1</property>
    <property name="kdenlive:collapsed">0</property>
   </filter>
  </entry>
  <blank length="00:00:00.440"/>
  <entry producer="chain125" in="00:00:00.000" out="00:00:06.400">
   <property name="kdenlive:id">647</property>
  </entry>
  <entry producer="chain125" in="00:00:08.040" out="00:00:11.960">
   <property name="kdenlive:id">647</property>
   <filter id="filter255" in="00:00:08.040" out="00:00:08.160">
    <property name="window">75</property>
    <property name="max_gain">20dB</property>
    <property name="mlt_service">volume</property>
    <property name="kdenlive_id">fadein</property>
    <property name="gain">0</property>
    <property name="end">1</property>
    <property name="kdenlive:collapsed">0</property>
   </filter>
   <filter id="filter256" in="00:00:11.880" out="00:00:11.960">
    <property name="window">75</property>
    <property name="max_gain">20dB</property>
    <property name="mlt_service">volume</property>
    <property name="kdenlive_id">fadeout</property>
    <property name="gain">1</property>
    <property name="end">0</property>
   </filter>
  </entry>
  <blank length="00:00:22.720"/>
  <entry producer="chain125" in="00:00:46.120" out="00:00:51.760">
   <property name="kdenlive:id">647</property>
   <filter id="filter257" in="00:00:46.120" out="00:00:46.200">
    <property name="window">75</property>
    <property name="max_gain">20dB</property>
    <property name="mlt_service">volume</property>
    <property name="kdenlive_id">fadein</property>
    <property name="gain">0</property>
    <property name="end">1</property>
   </filter>
  </entry>
  <entry producer="chain125" in="00:00:52.840" out="00:00:57.080">
   <property name="kdenlive:id">647</property>
  </entry>
  <entry producer="chain118" in="00:42:55.960" out="00:45:13.280">
   <property name="kdenlive:id">227</property>
   <filter id="filter258" in="00:42:55.960" out="00:42:56.040">
    <property name="window">75</property>
    <property name="max_gain">20dB</property>
    <property name="mlt_service">volume</property>
    <property name="kdenlive_id">fadein</property>
    <property name="gain">0</property>
    <property name="end">1</property>
    <property name="kdenlive:collapsed">0</property>
   </filter>
  </entry>
  <blank length="00:00:00.560"/>
  <entry producer="chain126" in="00:00:00.000" out="00:00:01.880">
   <property name="kdenlive:id">690</property>
  </entry>
  <blank length="00:00:00.920"/>
  <entry producer="chain126" in="00:00:03.960" out="00:00:08.000">
   <property name="kdenlive:id">690</property>
   <filter id="filter259" in="00:00:03.960" out="00:00:04.080">
    <property name="window">75</property>
    <property name="max_gain">20dB</property>
    <property name="mlt_service">volume</property>
    <property name="kdenlive_id">fadein</property>
    <property name="gain">0</property>
    <property name="end">1</property>
   </filter>
  </entry>
  <entry producer="chain126" in="00:00:08.480" out="00:00:15.240">
   <property name="kdenlive:id">690</property>
   <filter id="filter260" in="00:00:08.480" out="00:00:08.560">
    <property name="window">75</property>
    <property name="max_gain">20dB</property>
    <property name="mlt_service">volume</property>
    <property name="kdenlive_id">fadein</property>
    <property name="gain">0</property>
    <property name="end">1</property>
   </filter>
  </entry>
  <entry producer="chain126" in="00:00:16.840" out="00:00:18.880">
   <property name="kdenlive:id">690</property>
   <filter id="filter261" in="00:00:16.840" out="00:00:16.920">
    <property name="window">75</property>
    <property name="max_gain">20dB</property>
    <property name="mlt_service">volume</property>
    <property name="kdenlive_id">fadein</property>
    <property name="gain">0</property>
    <property name="end">1</property>
    <property name="kdenlive:collapsed">0</property>
   </filter>
  </entry>
  <blank length="00:00:11.320"/>
  <entry producer="chain118" in="00:45:17.080" out="00:50:04.320">
   <property name="kdenlive:id">227</property>
   <filter id="filter262" in="00:45:17.080" out="00:45:17.200">
    <property name="window">75</property>
    <property name="max_gain">20dB</property>
    <property name="mlt_service">volume</property>
    <property name="kdenlive_id">fadein</property>
    <property name="gain">0</property>
    <property name="end">1</property>
    <property name="kdenlive:collapsed">0</property>
   </filter>
  </entry>
  <blank length="00:00:00.480"/>
  <entry producer="chain127" in="00:00:00.000" out="00:00:29.440">
   <property name="kdenlive:id">743</property>
  </entry>
  <entry producer="chain118" in="00:50:33.920" out="00:50:57.400">
   <property name="kdenlive:id">227</property>
   <filter id="filter263" in="00:50:33.920" out="00:50:34.000">
    <property name="window">75</property>
    <property name="max_gain">20dB</property>
    <property name="mlt_service">volume</property>
    <property name="kdenlive_id">fadein</property>
    <property name="gain">0</property>
    <property name="end">1</property>
    <property name="kdenlive:collapsed">0</property>
   </filter>
  </entry>
  <blank length="00:00:00.480"/>
  <entry producer="chain128" in="00:00:00.000" out="00:00:12.160">
   <property name="kdenlive:id">752</property>
  </entry>
  <entry producer="chain118" in="00:51:01.680" out="00:51:26.120">
   <property name="kdenlive:id">227</property>
   <filter id="filter264" in="00:51:01.680" out="00:51:01.840">
    <property name="window">75</property>
    <property name="max_gain">20dB</property>
    <property name="mlt_service">volume</property>
    <property name="kdenlive_id">fadein</property>
    <property name="gain">0</property>
    <property name="end">1</property>
    <property name="kdenlive:collapsed">0</property>
   </filter>
  </entry>
  <blank length="00:00:01.080"/>
  <entry producer="chain129" in="00:00:00.000" out="00:00:13.240">
   <property name="kdenlive:id">767</property>
  </entry>
  <blank length="00:00:01.640"/>
  <entry producer="chain129" in="00:00:16.600" out="00:00:22.240">
   <property name="kdenlive:id">767</property>
   <filter id="filter265" in="00:00:16.600" out="00:00:16.840">
    <property name="window">75</property>
    <property name="max_gain">20dB</property>
    <property name="mlt_service">volume</property>
    <property name="kdenlive_id">fadein</property>
    <property name="gain">0</property>
    <property name="end">1</property>
    <property name="kdenlive:collapsed">0</property>
   </filter>
  </entry>
  <entry producer="chain129" in="00:00:27.640" out="00:00:30.400">
   <property name="kdenlive:id">767</property>
  </entry>
  <entry producer="chain129" in="00:00:30.960" out="00:00:34.080">
   <property name="kdenlive:id">767</property>
  </entry>
  <entry producer="chain129" in="00:00:38.280" out="00:00:41.000">
   <property name="kdenlive:id">767</property>
  </entry>
  <entry producer="chain129" in="00:00:49.320" out="00:00:55.520">
   <property name="kdenlive:id">767</property>
  </entry>
  <entry producer="chain130" in="00:00:00.000" out="00:00:17.840">
   <property name="kdenlive:id">768</property>
   <filter id="filter266" out="00:00:00.120">
    <property name="window">75</property>
    <property name="max_gain">20dB</property>
    <property name="mlt_service">volume</property>
    <property name="kdenlive_id">fadein</property>
    <property name="gain">0</property>
    <property name="end">1</property>
    <property name="kdenlive:collapsed">0</property>
   </filter>
  </entry>
  <entry producer="chain130" in="00:00:19.080" out="00:00:34.000">
   <property name="kdenlive:id">768</property>
   <filter id="filter267" in="00:00:19.080" out="00:00:19.120">
    <property name="window">75</property>
    <property name="max_gain">20dB</property>
    <property name="mlt_service">volume</property>
    <property name="kdenlive_id">fadein</property>
    <property name="gain">0</property>
    <property name="end">1</property>
   </filter>
  </entry>
  <entry producer="chain130" in="00:00:35.360" out="00:00:38.040">
   <property name="kdenlive:id">768</property>
  </entry>
  <blank length="00:00:00.080"/>
  <entry producer="chain130" in="00:00:42.080" out="00:00:44.960">
   <property name="kdenlive:id">768</property>
   <filter id="filter268" in="00:00:42.080" out="00:00:42.120">
    <property name="window">75</property>
    <property name="max_gain">20dB</property>
    <property name="mlt_service">volume</property>
    <property name="kdenlive_id">fadein</property>
    <property name="gain">0</property>
    <property name="end">1</property>
    <property name="kdenlive:collapsed">0</property>
   </filter>
  </entry>
  <entry producer="chain118" in="00:51:31.360" out="00:52:33.360">
   <property name="kdenlive:id">227</property>
  </entry>
  <blank length="00:00:00.480"/>
  <entry producer="chain142" in="00:00:00.000" out="00:00:01.360">
   <property name="kdenlive:id">794</property>
   <filter id="filter269" in="00:00:01.280" out="00:00:01.360">
    <property name="window">75</property>
    <property name="max_gain">20dB</property>
    <property name="mlt_service">volume</property>
    <property name="kdenlive_id">fadeout</property>
    <property name="gain">1</property>
    <property name="end">0</property>
   </filter>
  </entry>
  <blank length="00:00:01.000"/>
  <entry producer="chain142" in="00:00:03.880" out="00:00:06.360">
   <property name="kdenlive:id">794</property>
   <filter id="filter270" in="00:00:03.880" out="00:00:03.920">
    <property name="window">75</property>
    <property name="max_gain">20dB</property>
    <property name="mlt_service">volume</property>
    <property name="kdenlive_id">fadein</property>
    <property name="gain">0</property>
    <property name="end">1</property>
   </filter>
  </entry>
  <entry producer="chain142" in="00:00:07.760" out="00:00:16.840">
   <property name="kdenlive:id">794</property>
   <filter id="filter271" in="00:00:07.760" out="00:00:07.800">
    <property name="window">75</property>
    <property name="max_gain">20dB</property>
    <property name="mlt_service">volume</property>
    <property name="kdenlive_id">fadein</property>
    <property name="gain">0</property>
    <property name="end">1</property>
    <property name="kdenlive:collapsed">0</property>
   </filter>
  </entry>
  <blank length="00:00:07.400"/>
  <entry producer="chain118" in="00:52:40.920" out="00:53:28.200">
   <property name="kdenlive:id">227</property>
  </entry>
  <blank length="00:00:00.520"/>
  <entry producer="chain143" in="00:00:00.000" out="00:00:01.800">
   <property name="kdenlive:id">804</property>
   <filter id="filter272" in="00:00:01.720" out="00:00:01.800">
    <property name="window">75</property>
    <property name="max_gain">20dB</property>
    <property name="mlt_service">volume</property>
    <property name="kdenlive_id">fadeout</property>
    <property name="gain">1</property>
    <property name="end">0</property>
   </filter>
  </entry>
  <blank length="00:00:00.720"/>
  <entry producer="chain143" in="00:00:03.640" out="00:00:08.720">
   <property name="kdenlive:id">804</property>
   <filter id="filter273" in="00:00:03.640" out="00:00:03.720">
    <property name="window">75</property>
    <property name="max_gain">20dB</property>
    <property name="mlt_service">volume</property>
    <property name="kdenlive_id">fadein</property>
    <property name="gain">0</property>
    <property name="end">1</property>
   </filter>
  </entry>
  <entry producer="chain143" in="00:00:09.280" out="00:00:11.200">
   <property name="kdenlive:id">804</property>
   <filter id="filter274" in="00:00:09.280" out="00:00:09.360">
    <property name="window">75</property>
    <property name="max_gain">20dB</property>
    <property name="mlt_service">volume</property>
    <property name="kdenlive_id">fadein</property>
    <property name="gain">0</property>
    <property name="end">1</property>
   </filter>
  </entry>
  <entry producer="chain143" in="00:00:11.720" out="00:00:17.120">
   <property name="kdenlive:id">804</property>
   <filter id="filter275" in="00:00:11.720" out="00:00:11.800">
    <property name="window">75</property>
    <property name="max_gain">20dB</property>
    <property name="mlt_service">volume</property>
    <property name="kdenlive_id">fadein</property>
    <property name="gain">0</property>
    <property name="end">1</property>
    <property name="kdenlive:collapsed">0</property>
   </filter>
  </entry>
  <blank length="00:00:01.920"/>
  <entry producer="chain143" in="00:00:21.040" out="00:00:22.960">
   <property name="kdenlive:id">804</property>
   <filter id="filter276" in="00:00:21.040" out="00:00:21.120">
    <property name="window">75</property>
    <property name="max_gain">20dB</property>
    <property name="mlt_service">volume</property>
    <property name="kdenlive_id">fadein</property>
    <property name="gain">0</property>
    <property name="end">1</property>
    <property name="kdenlive:collapsed">0</property>
   </filter>
  </entry>
  <blank length="00:00:00.960"/>
  <entry producer="chain143" in="00:00:25.840" out="00:00:31.120">
   <property name="kdenlive:id">804</property>
   <filter id="filter277" in="00:00:25.840" out="00:00:25.880">
    <property name="window">75</property>
    <property name="max_gain">20dB</property>
    <property name="mlt_service">volume</property>
    <property name="kdenlive_id">fadein</property>
    <property name="gain">0</property>
    <property name="end">1</property>
    <property name="kdenlive:collapsed">0</property>
   </filter>
  </entry>
  <blank length="00:00:00.320"/>
  <entry producer="chain143" in="00:00:34.240" out="00:00:43.320">
   <property name="kdenlive:id">804</property>
   <filter id="filter278" in="00:00:34.240" out="00:00:34.280">
    <property name="window">75</property>
    <property name="max_gain">20dB</property>
    <property name="mlt_service">volume</property>
    <property name="kdenlive_id">fadein</property>
    <property name="gain">0</property>
    <property name="end">1</property>
    <property name="kdenlive:collapsed">0</property>
   </filter>
  </entry>
  <blank length="00:00:06.800"/>
  <entry producer="chain143" in="00:00:51.680" out="00:00:54.040">
   <property name="kdenlive:id">804</property>
   <filter id="filter279" in="00:00:51.680" out="00:00:51.720">
    <property name="window">75</property>
    <property name="max_gain">20dB</property>
    <property name="mlt_service">volume</property>
    <property name="kdenlive_id">fadein</property>
    <property name="gain">0</property>
    <property name="end">1</property>
    <property name="kdenlive:collapsed">0</property>
   </filter>
  </entry>
  <blank length="00:00:02.120"/>
  <entry producer="chain143" in="00:00:58.480" out="00:01:00.600">
   <property name="kdenlive:id">804</property>
   <filter id="filter280" in="00:00:58.480" out="00:00:58.520">
    <property name="window">75</property>
    <property name="max_gain">20dB</property>
    <property name="mlt_service">volume</property>
    <property name="kdenlive_id">fadein</property>
    <property name="gain">0</property>
    <property name="end">1</property>
    <property name="kdenlive:collapsed">0</property>
   </filter>
  </entry>
  <blank length="00:00:03.880"/>
  <entry producer="chain143" in="00:01:37.960" out="00:01:38.480">
   <property name="kdenlive:id">804</property>
   <filter id="filter281" in="00:01:37.960" out="00:01:38.040">
    <property name="window">75</property>
    <property name="max_gain">20dB</property>
    <property name="mlt_service">volume</property>
    <property name="kdenlive_id">fadein</property>
    <property name="gain">0</property>
    <property name="end">1</property>
   </filter>
  </entry>
  <blank length="00:00:01.440"/>
  <entry producer="chain143" in="00:01:47.760" out="00:01:51.840">
   <property name="kdenlive:id">804</property>
   <filter id="filter282" in="00:01:47.760" out="00:01:47.840">
    <property name="window">75</property>
    <property name="max_gain">20dB</property>
    <property name="mlt_service">volume</property>
    <property name="kdenlive_id">fadein</property>
    <property name="gain">0</property>
    <property name="end">1</property>
    <property name="kdenlive:collapsed">0</property>
   </filter>
  </entry>
  <blank length="00:00:07.880"/>
  <entry producer="chain143" in="00:02:05.240" out="00:02:06.160">
   <property name="kdenlive:id">804</property>
   <filter id="filter283" in="00:02:05.240" out="00:02:05.280">
    <property name="window">75</property>
    <property name="max_gain">20dB</property>
    <property name="mlt_service">volume</property>
    <property name="kdenlive_id">fadein</property>
    <property name="gain">0</property>
    <property name="end">1</property>
    <property name="kdenlive:collapsed">0</property>
   </filter>
  </entry>
  <blank length="00:00:01.000"/>
  <entry producer="chain143" in="00:02:08.040" out="00:02:12.000">
   <property name="kdenlive:id">804</property>
   <filter id="filter284" in="00:02:08.040" out="00:02:08.080">
    <property name="window">75</property>
    <property name="max_gain">20dB</property>
    <property name="mlt_service">volume</property>
    <property name="kdenlive_id">fadein</property>
    <property name="gain">0</property>
    <property name="end">1</property>
    <property name="kdenlive:collapsed">0</property>
   </filter>
  </entry>
  <blank length="00:00:02.600"/>
  <entry producer="chain118" in="00:53:31.400" out="00:54:12.400">
   <property name="kdenlive:id">227</property>
   <filter id="filter285" in="00:53:31.400" out="00:53:31.440">
    <property name="window">75</property>
    <property name="max_gain">20dB</property>
    <property name="mlt_service">volume</property>
    <property name="kdenlive_id">fadein</property>
    <property name="gain">0</property>
    <property name="end">1</property>
    <property name="kdenlive:collapsed">0</property>
   </filter>
  </entry>
  <blank length="00:00:00.520"/>
  <entry producer="chain144" in="00:00:00.000" out="00:00:00.960">
   <property name="kdenlive:id">825</property>
  </entry>
  <blank length="00:00:18.640"/>
  <entry producer="chain118" in="00:54:17.000" out="00:55:37.160">
   <property name="kdenlive:id">227</property>
   <filter id="filter286" in="00:54:17.000" out="00:54:17.040">
    <property name="window">75</property>
    <property name="max_gain">20dB</property>
    <property name="mlt_service">volume</property>
    <property name="kdenlive_id">fadein</property>
    <property name="gain">0</property>
    <property name="end">1</property>
    <property name="kdenlive:collapsed">0</property>
   </filter>
  </entry>
  <blank length="00:00:00.480"/>
  <entry producer="chain145" in="00:00:00.040" out="00:00:13.520">
   <property name="kdenlive:id">838</property>
   <filter id="filter287" in="00:00:00.040" out="00:00:00.080">
    <property name="window">75</property>
    <property name="max_gain">20dB</property>
    <property name="mlt_service">volume</property>
    <property name="kdenlive_id">fadein</property>
    <property name="gain">0</property>
    <property name="end">1</property>
    <property name="kdenlive:collapsed">0</property>
   </filter>
  </entry>
  <entry producer="chain118" in="00:55:40.000" out="00:56:03.120">
   <property name="kdenlive:id">227</property>
   <filter id="filter288" in="00:55:40.000" out="00:55:40.040">
    <property name="window">75</property>
    <property name="max_gain">20dB</property>
    <property name="mlt_service">volume</property>
    <property name="kdenlive_id">fadein</property>
    <property name="gain">0</property>
    <property name="end">1</property>
    <property name="kdenlive:collapsed">0</property>
   </filter>
  </entry>
  <blank length="00:00:00.480"/>
  <entry producer="chain146" in="00:00:00.000" out="00:00:11.480">
   <property name="kdenlive:id">844</property>
  </entry>
  <blank length="00:00:02.720"/>
  <entry producer="chain146" in="00:00:15.640" out="00:00:17.560">
   <property name="kdenlive:id">844</property>
   <filter id="filter289" in="00:00:15.640" out="00:00:15.680">
    <property name="window">75</property>
    <property name="max_gain">20dB</property>
    <property name="mlt_service">volume</property>
    <property name="kdenlive_id">fadein</property>
    <property name="gain">0</property>
    <property name="end">1</property>
    <property name="kdenlive:collapsed">0</property>
   </filter>
  </entry>
  <entry producer="chain146" in="00:00:18.080" out="00:00:28.640">
   <property name="kdenlive:id">844</property>
  </entry>
  <entry producer="chain146" in="00:00:29.000" out="00:00:30.280">
   <property name="kdenlive:id">844</property>
   <filter id="filter290" in="00:00:29.000" out="00:00:29.040">
    <property name="window">75</property>
    <property name="max_gain">20dB</property>
    <property name="mlt_service">volume</property>
    <property name="kdenlive_id">fadein</property>
    <property name="gain">0</property>
    <property name="end">1</property>
    <property name="kdenlive:collapsed">0</property>
   </filter>
  </entry>
  <entry producer="chain146" in="00:00:32.160" out="00:00:35.360">
   <property name="kdenlive:id">844</property>
   <filter id="filter291" in="00:00:32.160" out="00:00:32.200">
    <property name="window">75</property>
    <property name="max_gain">20dB</property>
    <property name="mlt_service">volume</property>
    <property name="kdenlive_id">fadein</property>
    <property name="gain">0</property>
    <property name="end">1</property>
    <property name="kdenlive:collapsed">0</property>
   </filter>
  </entry>
  <entry producer="chain146" in="00:00:41.000" out="00:00:54.080">
   <property name="kdenlive:id">844</property>
   <filter id="filter292" in="00:00:41.000" out="00:00:41.040">
    <property name="window">75</property>
    <property name="max_gain">20dB</property>
    <property name="mlt_service">volume</property>
    <property name="kdenlive_id">fadein</property>
    <property name="gain">0</property>
    <property name="end">1</property>
   </filter>
   <filter id="filter293" in="00:00:54.000" out="00:00:54.080">
    <property name="window">75</property>
    <property name="max_gain">20dB</property>
    <property name="mlt_service">volume</property>
    <property name="kdenlive_id">fadeout</property>
    <property name="gain">1</property>
    <property name="end">0</property>
   </filter>
  </entry>
  <blank length="00:00:03.160"/>
  <entry producer="chain146" in="00:00:59.880" out="00:01:01.680">
   <property name="kdenlive:id">844</property>
   <filter id="filter294" in="00:00:59.880" out="00:00:59.920">
    <property name="window">75</property>
    <property name="max_gain">20dB</property>
    <property name="mlt_service">volume</property>
    <property name="kdenlive_id">fadein</property>
    <property name="gain">0</property>
    <property name="end">1</property>
    <property name="kdenlive:collapsed">0</property>
   </filter>
  </entry>
  <entry producer="chain146" in="00:01:02.840" out="00:01:07.960">
   <property name="kdenlive:id">844</property>
   <filter id="filter295" in="00:01:02.840" out="00:01:02.880">
    <property name="window">75</property>
    <property name="max_gain">20dB</property>
    <property name="mlt_service">volume</property>
    <property name="kdenlive_id">fadein</property>
    <property name="gain">0</property>
    <property name="end">1</property>
    <property name="kdenlive:collapsed">0</property>
   </filter>
  </entry>
  <blank length="00:00:16.960"/>
  <entry producer="chain118" in="00:56:10.840" out="00:59:07.480">
   <property name="kdenlive:id">227</property>
   <filter id="filter296" in="00:56:10.840" out="00:56:10.880">
    <property name="window">75</property>
    <property name="max_gain">20dB</property>
    <property name="mlt_service">volume</property>
    <property name="kdenlive_id">fadein</property>
    <property name="gain">0</property>
    <property name="end">1</property>
    <property name="kdenlive:collapsed">0</property>
   </filter>
  </entry>
  <entry producer="chain147" in="00:00:00.000" out="00:00:09.240">
   <property name="kdenlive:id">886</property>
   <property name="kdenlive:activeeffect">2</property>
   <filter id="filter297">
    <property name="window">75</property>
    <property name="max_gain">20dB</property>
    <property name="level">00:00:00.000=18</property>
    <property name="mlt_service">volume</property>
    <property name="kdenlive_id">volume</property>
    <property name="kdenlive:collapsed">0</property>
   </filter>
   <filter id="filter298">
    <property name="mlt_service">rbpitch</property>
    <property name="kdenlive_id">rbpitch</property>
    <property name="pitchscale">1.1692</property>
    <property name="stretch">0</property>
    <property name="latency">154.042</property>
    <property name="kdenlive:collapsed">0</property>
   </filter>
   <filter id="filter299">
    <property name="mlt_service">avfilter.adecorrelate</property>
    <property name="kdenlive_id">avfilter.adecorrelate</property>
    <property name="av.stages">6</property>
    <property name="av.seed">-1</property>
    <property name="av.threads">0</property>
    <property name="position">frame</property>
    <property name="kdenlive:collapsed">1</property>
   </filter>
   <filter id="filter300" out="00:00:00.120">
    <property name="window">75</property>
    <property name="max_gain">20dB</property>
    <property name="mlt_service">volume</property>
    <property name="kdenlive_id">fadein</property>
    <property name="gain">0</property>
    <property name="end">1</property>
   </filter>
  </entry>
  <blank length="00:00:00.240"/>
  <entry producer="chain118" in="00:59:09.320" out="00:59:14.160">
   <property name="kdenlive:id">227</property>
   <filter id="filter301" in="00:59:09.320" out="00:59:09.400">
    <property name="window">75</property>
    <property name="max_gain">20dB</property>
    <property name="mlt_service">volume</property>
    <property name="kdenlive_id">fadein</property>
    <property name="gain">0</property>
    <property name="end">1</property>
    <property name="kdenlive:collapsed">0</property>
   </filter>
  </entry>
  <entry producer="chain148" in="00:00:00.000" out="00:00:02.800">
   <property name="kdenlive:id">890</property>
  </entry>
  <blank length="00:00:00.440"/>
  <entry producer="chain148" in="00:00:30.400" out="00:00:31.360">
   <property name="kdenlive:id">890</property>
   <filter id="filter302" in="00:00:30.400" out="00:00:30.440">
    <property name="window">75</property>
    <property name="max_gain">20dB</property>
    <property name="mlt_service">volume</property>
    <property name="kdenlive_id">fadein</property>
    <property name="gain">0</property>
    <property name="end">1</property>
    <property name="kdenlive:collapsed">0</property>
   </filter>
  </entry>
  <blank length="00:00:00.760"/>
  <entry producer="chain148" in="00:00:33.680" out="00:00:34.920">
   <property name="kdenlive:id">890</property>
   <filter id="filter303" in="00:00:33.680" out="00:00:33.720">
    <property name="window">75</property>
    <property name="max_gain">20dB</property>
    <property name="mlt_service">volume</property>
    <property name="kdenlive_id">fadein</property>
    <property name="gain">0</property>
    <property name="end">1</property>
    <property name="kdenlive:collapsed">0</property>
   </filter>
  </entry>
  <blank length="00:00:00.520"/>
  <entry producer="chain148" in="00:00:36.840" out="00:00:38.120">
   <property name="kdenlive:id">890</property>
   <filter id="filter304" in="00:00:36.840" out="00:00:36.880">
    <property name="window">75</property>
    <property name="max_gain">20dB</property>
    <property name="mlt_service">volume</property>
    <property name="kdenlive_id">fadein</property>
    <property name="gain">0</property>
    <property name="end">1</property>
    <property name="kdenlive:collapsed">0</property>
   </filter>
  </entry>
  <blank length="00:00:02.400"/>
  <entry producer="chain148" in="00:00:41.800" out="00:00:42.280">
   <property name="kdenlive:id">890</property>
   <filter id="filter305" in="00:00:41.800" out="00:00:41.840">
    <property name="window">75</property>
    <property name="max_gain">20dB</property>
    <property name="mlt_service">volume</property>
    <property name="kdenlive_id">fadein</property>
    <property name="gain">0</property>
    <property name="end">1</property>
    <property name="kdenlive:collapsed">0</property>
   </filter>
  </entry>
  <blank length="00:00:01.120"/>
  <entry producer="chain148" in="00:00:45.480" out="00:00:46.600">
   <property name="kdenlive:id">890</property>
   <filter id="filter306" in="00:00:45.480" out="00:00:45.520">
    <property name="window">75</property>
    <property name="max_gain">20dB</property>
    <property name="mlt_service">volume</property>
    <property name="kdenlive_id">fadein</property>
    <property name="gain">0</property>
    <property name="end">1</property>
    <property name="kdenlive:collapsed">0</property>
   </filter>
  </entry>
  <blank length="00:00:00.840"/>
  <entry producer="chain148" in="00:00:51.800" out="00:00:52.560">
   <property name="kdenlive:id">890</property>
   <filter id="filter307" in="00:00:51.800" out="00:00:51.840">
    <property name="window">75</property>
    <property name="max_gain">20dB</property>
    <property name="mlt_service">volume</property>
    <property name="kdenlive_id">fadein</property>
    <property name="gain">0</property>
    <property name="end">1</property>
    <property name="kdenlive:collapsed">0</property>
   </filter>
  </entry>
  <blank length="00:00:02.320"/>
  <entry producer="chain148" in="00:00:56.320" out="00:01:04.440">
   <property name="kdenlive:id">890</property>
   <filter id="filter308" in="00:00:56.320" out="00:00:56.360">
    <property name="window">75</property>
    <property name="max_gain">20dB</property>
    <property name="mlt_service">volume</property>
    <property name="kdenlive_id">fadein</property>
    <property name="gain">0</property>
    <property name="end">1</property>
    <property name="kdenlive:collapsed">0</property>
   </filter>
  </entry>
  <blank length="00:00:00.400"/>
  <entry producer="chain148" in="00:01:07.440" out="00:01:11.520">
   <property name="kdenlive:id">890</property>
   <filter id="filter309" in="00:01:07.440" out="00:01:07.520">
    <property name="window">75</property>
    <property name="max_gain">20dB</property>
    <property name="mlt_service">volume</property>
    <property name="kdenlive_id">fadein</property>
    <property name="gain">0</property>
    <property name="end">1</property>
    <property name="kdenlive:collapsed">0</property>
   </filter>
  </entry>
  <blank length="00:00:03.840"/>
  <entry producer="chain148" in="00:01:18.040" out="00:01:21.080">
   <property name="kdenlive:id">890</property>
   <filter id="filter310" in="00:01:18.040" out="00:01:18.080">
    <property name="window">75</property>
    <property name="max_gain">20dB</property>
    <property name="mlt_service">volume</property>
    <property name="kdenlive_id">fadein</property>
    <property name="gain">0</property>
    <property name="end">1</property>
    <property name="kdenlive:collapsed">0</property>
   </filter>
  </entry>
  <entry producer="chain118" in="00:59:18.120" out="00:59:25.040">
   <property name="kdenlive:id">227</property>
   <filter id="filter311" in="00:59:18.120" out="00:59:18.200">
    <property name="window">75</property>
    <property name="max_gain">20dB</property>
    <property name="mlt_service">volume</property>
    <property name="kdenlive_id">fadein</property>
    <property name="gain">0</property>
    <property name="end">1</property>
    <property name="kdenlive:collapsed">0</property>
   </filter>
  </entry>
  <blank length="00:00:06.120"/>
  <entry producer="chain118" in="00:59:25.080" out="02:07:46.080">
   <property name="kdenlive:id">227</property>
  </entry>
 </playlist>
 <playlist id="playlist9">
  <property name="kdenlive:audio_track">1</property>
 </playlist>
 <tractor id="tractor4" in="00:00:00.000" out="02:21:19.400">
  <property name="kdenlive:audio_track">1</property>
  <property name="kdenlive:trackheight">67</property>
  <property name="kdenlive:timeline_active">0</property>
  <property name="kdenlive:collapsed">0</property>
  <property name="kdenlive:thumbs_format"/>
  <property name="kdenlive:audio_rec"/>
  <track hide="video" producer="playlist8"/>
  <track hide="video" producer="playlist9"/>
  <filter id="filter312">
   <property name="window">75</property>
   <property name="max_gain">20dB</property>
   <property name="mlt_service">volume</property>
   <property name="internal_added">237</property>
   <property name="disable">1</property>
  </filter>
  <filter id="filter313">
   <property name="channel">-1</property>
   <property name="mlt_service">panner</property>
   <property name="internal_added">237</property>
   <property name="start">0.5</property>
   <property name="disable">1</property>
  </filter>
  <filter id="filter314">
   <property name="iec_scale">0</property>
   <property name="mlt_service">audiolevel</property>
   <property name="dbpeak">1</property>
   <property name="disable">1</property>
  </filter>
 </tractor>
 <chain id="chain149" out="02:18:58.840">
  <property name="length">208472</property>
  <property name="eof">pause</property>
  <property name="resource">b-roll/AI ART ftï¼š Istebrak, Steven Zapata, Hardy Fowler, Kelsey Rodriguez, Tyler Edlin &amp; Antonio Stappaerts [5JaS7APpO8U].webm</property>
  <property name="mlt_service">avformat-novalidate</property>
  <property name="seekable">1</property>
  <property name="format">3</property>
  <property name="audio_index">1</property>
  <property name="video_index">0</property>
  <property name="kdenlive:clipname"/>
  <property name="kdenlive:clip_type">0</property>
  <property name="kdenlive:folderid">14</property>
  <property name="kdenlive:id">6</property>
  <property name="kdenlive:file_size">845877288</property>
  <property name="kdenlive:file_hash">57847912f2775f5fab12884262152e3d</property>
  <property name="kdenlive:audio_max1">192</property>
  <property name="meta.media.nb_streams">2</property>
  <property name="meta.media.0.stream.type">video</property>
  <property name="meta.media.0.stream.frame_rate">25</property>
  <property name="meta.media.0.stream.sample_aspect_ratio">1</property>
  <property name="meta.media.0.codec.width">1920</property>
  <property name="meta.media.0.codec.height">1080</property>
  <property name="meta.media.0.codec.rotate">0</property>
  <property name="meta.media.0.codec.pix_fmt">yuv420p</property>
  <property name="meta.media.0.codec.sample_aspect_ratio">0</property>
  <property name="meta.media.0.codec.colorspace">709</property>
  <property name="meta.media.0.codec.color_trc">1</property>
  <property name="meta.media.0.codec.name">vp9</property>
  <property name="meta.media.0.codec.long_name">Google VP9</property>
  <property name="meta.media.0.codec.bit_rate">0</property>
  <property name="meta.attr.0.stream.HANDLER_NAME.markup">ISO Media file produced by Google Inc. Created on: 12/09/2023.</property>
  <property name="meta.attr.0.stream.VENDOR_ID.markup">[0][0][0][0]</property>
  <property name="meta.attr.0.stream.DURATION.markup">02:18:58.840000000</property>
  <property name="meta.media.1.stream.type">audio</property>
  <property name="meta.media.1.codec.sample_fmt">fltp</property>
  <property name="meta.media.1.codec.sample_rate">48000</property>
  <property name="meta.media.1.codec.channels">2</property>
  <property name="meta.media.1.codec.name">opus</property>
  <property name="meta.media.1.codec.long_name">Opus</property>
  <property name="meta.media.1.codec.bit_rate">0</property>
  <property name="meta.attr.1.stream.language.markup">eng</property>
  <property name="meta.attr.1.stream.DURATION.markup">02:18:58.881000000</property>
  <property name="meta.attr.COMPATIBLE_BRANDS.markup">iso6mp41</property>
  <property name="meta.attr.MAJOR_BRAND.markup">dash</property>
  <property name="meta.attr.MINOR_VERSION.markup">0</property>
  <property name="meta.attr.ENCODER.markup">Lavf59.27.100</property>
  <property name="meta.media.sample_aspect_num">1</property>
  <property name="meta.media.sample_aspect_den">1</property>
  <property name="meta.media.frame_rate_num">25</property>
  <property name="meta.media.frame_rate_den">1</property>
  <property name="meta.media.colorspace">709</property>
  <property name="meta.media.color_trc">1</property>
  <property name="meta.media.has_b_frames">0</property>
  <property name="meta.media.width">1920</property>
  <property name="meta.media.height">1080</property>
  <property name="meta.media.color_range">mpeg</property>
  <property name="xml">was here</property>
  <property name="meta.media.top_field_first">0</property>
  <property name="meta.media.progressive">1</property>
  <property name="set.test_audio">1</property>
  <property name="set.test_image">0</property>
  <property name="mute_on_pause">1</property>
 </chain>
 <chain id="chain150" out="01:39:18.480">
  <property name="length">148963</property>
  <property name="eof">pause</property>
  <property name="resource">b-roll/AI Ethics, Artists, and What You Can Do About It [Nn_w3MnCyDY].webm</property>
  <property name="mlt_service">avformat-novalidate</property>
  <property name="seekable">1</property>
  <property name="format">3</property>
  <property name="audio_index">1</property>
  <property name="video_index">0</property>
  <property name="kdenlive:clipname"/>
  <property name="kdenlive:clip_type">0</property>
  <property name="kdenlive:folderid">14</property>
  <property name="kdenlive:id">7</property>
  <property name="kdenlive:file_size">7320919605</property>
  <property name="kdenlive:file_hash">305a2e1f8f3b9e51e9a0da642870036e</property>
  <property name="kdenlive:audio_max1">220</property>
  <property name="meta.media.nb_streams">2</property>
  <property name="meta.media.0.stream.type">video</property>
  <property name="meta.media.0.stream.frame_rate">23.976</property>
  <property name="meta.media.0.stream.sample_aspect_ratio">1</property>
  <property name="meta.media.0.codec.width">3840</property>
  <property name="meta.media.0.codec.height">2160</property>
  <property name="meta.media.0.codec.rotate">0</property>
  <property name="meta.media.0.codec.pix_fmt">yuv420p</property>
  <property name="meta.media.0.codec.sample_aspect_ratio">0</property>
  <property name="meta.media.0.codec.colorspace">709</property>
  <property name="meta.media.0.codec.color_trc">1</property>
  <property name="meta.media.0.codec.name">vp9</property>
  <property name="meta.media.0.codec.long_name">Google VP9</property>
  <property name="meta.media.0.codec.bit_rate">0</property>
  <property name="meta.attr.0.stream.language.markup">eng</property>
  <property name="meta.attr.0.stream.DURATION.markup">01:39:18.493000000</property>
  <property name="meta.media.1.stream.type">audio</property>
  <property name="meta.media.1.codec.sample_fmt">fltp</property>
  <property name="meta.media.1.codec.sample_rate">48000</property>
  <property name="meta.media.1.codec.channels">2</property>
  <property name="meta.media.1.codec.name">opus</property>
  <property name="meta.media.1.codec.long_name">Opus</property>
  <property name="meta.media.1.codec.bit_rate">0</property>
  <property name="meta.attr.1.stream.language.markup">eng</property>
  <property name="meta.attr.1.stream.DURATION.markup">01:39:18.521000000</property>
  <property name="meta.attr.ENCODER.markup">Lavf59.27.100</property>
  <property name="meta.media.sample_aspect_num">1</property>
  <property name="meta.media.sample_aspect_den">1</property>
  <property name="meta.media.frame_rate_num">24000</property>
  <property name="meta.media.frame_rate_den">1001</property>
  <property name="meta.media.colorspace">709</property>
  <property name="meta.media.color_trc">1</property>
  <property name="meta.media.has_b_frames">0</property>
  <property name="meta.media.width">3840</property>
  <property name="meta.media.height">2160</property>
  <property name="meta.media.color_range">mpeg</property>
  <property name="xml">was here</property>
  <property name="meta.media.top_field_first">0</property>
  <property name="meta.media.progressive">1</property>
  <property name="set.test_audio">1</property>
  <property name="set.test_image">0</property>
  <property name="mute_on_pause">1</property>
 </chain>
 <chain id="chain151" out="01:15:45.840">
  <property name="length">113647</property>
  <property name="eof">pause</property>
  <property name="resource">b-roll/Watching Shadiversity Desperately Try To Defend AI Art (he fails) [UqN7cdzWzvU].webm</property>
  <property name="mlt_service">avformat-novalidate</property>
  <property name="seekable">1</property>
  <property name="format">3</property>
  <property name="audio_index">1</property>
  <property name="video_index">0</property>
  <property name="kdenlive:clipname"/>
  <property name="kdenlive:clip_type">0</property>
  <property name="kdenlive:folderid">-1</property>
  <property name="kdenlive:id">404</property>
  <property name="kdenlive:file_size">630698662</property>
  <property name="kdenlive:file_hash">5142aba64b38d266326aaebb7d19a7c2</property>
  <property name="meta.media.nb_streams">2</property>
  <property name="meta.media.0.stream.type">video</property>
  <property name="meta.media.0.stream.frame_rate">30.001</property>
  <property name="meta.media.0.stream.sample_aspect_ratio">1</property>
  <property name="meta.media.0.codec.width">1920</property>
  <property name="meta.media.0.codec.height">1080</property>
  <property name="meta.media.0.codec.rotate">0</property>
  <property name="meta.media.0.codec.pix_fmt">yuv420p</property>
  <property name="meta.media.0.codec.sample_aspect_ratio">0</property>
  <property name="meta.media.0.codec.colorspace">709</property>
  <property name="meta.media.0.codec.color_trc">1</property>
  <property name="meta.media.0.codec.name">vp9</property>
  <property name="meta.media.0.codec.long_name">Google VP9</property>
  <property name="meta.media.0.codec.bit_rate">0</property>
  <property name="meta.attr.0.stream.HANDLER_NAME.markup">ISO Media file produced by Google Inc. Created on: 12/14/2023.</property>
  <property name="meta.attr.0.stream.VENDOR_ID.markup">[0][0][0][0]</property>
  <property name="meta.attr.0.stream.DURATION.markup">01:15:45.833000000</property>
  <property name="meta.media.1.stream.type">audio</property>
  <property name="meta.media.1.codec.sample_fmt">fltp</property>
  <property name="meta.media.1.codec.sample_rate">48000</property>
  <property name="meta.media.1.codec.channels">2</property>
  <property name="meta.media.1.codec.name">opus</property>
  <property name="meta.media.1.codec.long_name">Opus</property>
  <property name="meta.media.1.codec.bit_rate">0</property>
  <property name="meta.attr.1.stream.language.markup">eng</property>
  <property name="meta.attr.1.stream.DURATION.markup">01:15:45.861000000</property>
  <property name="meta.attr.COMPATIBLE_BRANDS.markup">iso6mp41</property>
  <property name="meta.attr.MAJOR_BRAND.markup">dash</property>
  <property name="meta.attr.MINOR_VERSION.markup">0</property>
  <property name="meta.attr.ENCODER.markup">Lavf59.27.100</property>
  <property name="meta.media.sample_aspect_num">1</property>
  <property name="meta.media.sample_aspect_den">1</property>
  <property name="meta.media.frame_rate_num">29971</property>
  <property name="meta.media.frame_rate_den">999</property>
  <property name="meta.media.colorspace">709</property>
  <property name="meta.media.color_trc">1</property>
  <property name="meta.media.has_b_frames">0</property>
  <property name="meta.media.width">1920</property>
  <property name="meta.media.height">1080</property>
  <property name="meta.media.color_range">mpeg</property>
  <property name="xml">was here</property>
  <property name="meta.media.top_field_first">0</property>
  <property name="meta.media.progressive">1</property>
  <property name="set.test_audio">1</property>
  <property name="set.test_image">0</property>
  <property name="mute_on_pause">1</property>
 </chain>
 <chain id="chain152" out="01:29:44.560">
  <property name="length">134615</property>
  <property name="eof">pause</property>
  <property name="resource">b-roll/The existential threat of AI art and why not to quit drawing - Sketchy Van Podcast #60 Steven Zapata [OCY7lb_i0yM].webm</property>
  <property name="mlt_service">avformat-novalidate</property>
  <property name="seekable">1</property>
  <property name="format">3</property>
  <property name="audio_index">1</property>
  <property name="video_index">0</property>
  <property name="kdenlive:clipname"/>
  <property name="kdenlive:clip_type">0</property>
  <property name="kdenlive:folderid">14</property>
  <property name="kdenlive:id">15</property>
  <property name="kdenlive:file_size">688601410</property>
  <property name="kdenlive:file_hash">ec2cc4d9055656138f14a8b4cd1ae4e8</property>
  <property name="kdenlive:audio_max1">227</property>
  <property name="meta.media.nb_streams">2</property>
  <property name="meta.media.0.stream.type">video</property>
  <property name="meta.media.0.stream.frame_rate">23.976</property>
  <property name="meta.media.0.stream.sample_aspect_ratio">1</property>
  <property name="meta.media.0.codec.width">1920</property>
  <property name="meta.media.0.codec.height">1080</property>
  <property name="meta.media.0.codec.rotate">0</property>
  <property name="meta.media.0.codec.pix_fmt">yuv420p</property>
  <property name="meta.media.0.codec.sample_aspect_ratio">0</property>
  <property name="meta.media.0.codec.colorspace">709</property>
  <property name="meta.media.0.codec.color_trc">1</property>
  <property name="meta.media.0.codec.name">vp9</property>
  <property name="meta.media.0.codec.long_name">Google VP9</property>
  <property name="meta.media.0.codec.bit_rate">0</property>
  <property name="meta.attr.0.stream.language.markup">eng</property>
  <property name="meta.attr.0.stream.DURATION.markup">01:29:44.545000000</property>
  <property name="meta.media.1.stream.type">audio</property>
  <property name="meta.media.1.codec.sample_fmt">fltp</property>
  <property name="meta.media.1.codec.sample_rate">48000</property>
  <property name="meta.media.1.codec.channels">2</property>
  <property name="meta.media.1.codec.name">opus</property>
  <property name="meta.media.1.codec.long_name">Opus</property>
  <property name="meta.media.1.codec.bit_rate">0</property>
  <property name="meta.attr.1.stream.language.markup">eng</property>
  <property name="meta.attr.1.stream.DURATION.markup">01:29:44.581000000</property>
  <property name="meta.attr.ENCODER.markup">Lavf59.27.100</property>
  <property name="meta.media.sample_aspect_num">1</property>
  <property name="meta.media.sample_aspect_den">1</property>
  <property name="meta.media.frame_rate_num">24000</property>
  <property name="meta.media.frame_rate_den">1001</property>
  <property name="meta.media.colorspace">709</property>
  <property name="meta.media.color_trc">1</property>
  <property name="meta.media.has_b_frames">0</property>
  <property name="meta.media.width">1920</property>
  <property name="meta.media.height">1080</property>
  <property name="meta.media.color_range">mpeg</property>
  <property name="xml">was here</property>
  <property name="meta.media.top_field_first">0</property>
  <property name="meta.media.progressive">1</property>
  <property name="set.test_audio">1</property>
  <property name="set.test_image">0</property>
  <property name="mute_on_pause">1</property>
 </chain>
 <producer id="producer269" in="00:00:00.000" out="00:00:11.640">
  <property name="length">292</property>
  <property name="eof">pause</property>
  <property name="resource">images/wanderer.jpg</property>
  <property name="ttl">25</property>
  <property name="aspect_ratio">1</property>
  <property name="progressive">1</property>
  <property name="seekable">1</property>
  <property name="format">1</property>
  <property name="meta.media.width">1920</property>
  <property name="meta.media.height">1200</property>
  <property name="mlt_service">qimage</property>
  <property name="kdenlive:clipname"/>
  <property name="kdenlive:duration">00:00:05:00</property>
  <property name="kdenlive:folderid">28</property>
  <property name="kdenlive:id">856</property>
  <property name="kdenlive:clip_type">2</property>
  <property name="kdenlive:file_size">113211</property>
  <property name="kdenlive:file_hash">cee47bb3ac0c20bded4af10ff3eb79a3</property>
 </producer>
 <producer id="producer272" in="00:00:00.000" out="00:00:09.960">
  <property name="length">250</property>
  <property name="eof">pause</property>
  <property name="resource">images/Jan_Brueghel_de_Oude_en_Peter_Paul_Rubens_-_Het_aards_paradijs_met_de_zondeval_van_Adam_en_Eva.jpg</property>
  <property name="ttl">25</property>
  <property name="aspect_ratio">1</property>
  <property name="progressive">1</property>
  <property name="seekable">1</property>
  <property name="format">1</property>
  <property name="meta.media.width">6000</property>
  <property name="meta.media.height">3875</property>
  <property name="mlt_service">qimage</property>
  <property name="kdenlive:clipname"/>
  <property name="kdenlive:duration">00:00:05:00</property>
  <property name="kdenlive:folderid">28</property>
  <property name="kdenlive:id">858</property>
  <property name="kdenlive:clip_type">2</property>
  <property name="kdenlive:file_size">13043330</property>
  <property name="kdenlive:file_hash">89d8d07fcae241da66933fd66d10fb81</property>
 </producer>
 <producer id="producer273" in="00:00:00.000" out="00:00:12.600">
  <property name="length">316</property>
  <property name="eof">pause</property>
  <property name="resource">images/Galileo_Galilei_(1564-1642)_RMG_BHC2700.png</property>
  <property name="ttl">25</property>
  <property name="aspect_ratio">1</property>
  <property name="progressive">1</property>
  <property name="seekable">1</property>
  <property name="format">1</property>
  <property name="meta.media.width">2964</property>
  <property name="meta.media.height">3765</property>
  <property name="mlt_service">qimage</property>
  <property name="kdenlive:clipname"/>
  <property name="kdenlive:duration">00:00:05:00</property>
  <property name="kdenlive:folderid">28</property>
  <property name="kdenlive:id">860</property>
  <property name="kdenlive:clip_type">2</property>
  <property name="kdenlive:file_size">17307692</property>
  <property name="kdenlive:file_hash">905e1c83b9e063137c23b25de6852afd</property>
 </producer>
 <producer id="producer274" in="00:00:00.000" out="00:00:04.960">
  <property name="length">00:00:05.000</property>
  <property name="eof">pause</property>
  <property name="resource">images/school of athens.png</property>
  <property name="ttl">25</property>
  <property name="aspect_ratio">1</property>
  <property name="progressive">1</property>
  <property name="seekable">1</property>
  <property name="format">2</property>
  <property name="meta.media.width">3820</property>
  <property name="meta.media.height">2964</property>
  <property name="mlt_service">qimage</property>
  <property name="kdenlive:clipname"/>
  <property name="kdenlive:duration">00:00:05:00</property>
  <property name="kdenlive:folderid">28</property>
  <property name="kdenlive:id">862</property>
  <property name="kdenlive:clip_type">2</property>
  <property name="kdenlive:file_size">19468574</property>
  <property name="kdenlive:file_hash">4d3f85f044c4d59ed02a905b25a6f1d8</property>
 </producer>
 <producer id="producer278" in="00:00:00.000" out="00:00:04.960">
  <property name="length">00:00:05.000</property>
  <property name="eof">pause</property>
  <property name="resource">images/Michelangelo-Sculptures.jpg</property>
  <property name="ttl">25</property>
  <property name="aspect_ratio">1</property>
  <property name="progressive">1</property>
  <property name="seekable">1</property>
  <property name="format">1</property>
  <property name="meta.media.width">848</property>
  <property name="meta.media.height">565</property>
  <property name="mlt_service">qimage</property>
  <property name="kdenlive:clipname"/>
  <property name="kdenlive:duration">00:00:05:00</property>
  <property name="kdenlive:folderid">28</property>
  <property name="kdenlive:id">863</property>
  <property name="kdenlive:clip_type">2</property>
  <property name="kdenlive:file_size">122207</property>
  <property name="kdenlive:file_hash">5d85eb93d24e074950aae7272a6b9a2e</property>
 </producer>
 <producer id="producer368" in="00:00:00.000" out="00:00:04.960">
  <property name="length">00:00:05.000</property>
  <property name="eof">pause</property>
  <property name="resource">images/Albert_Einstein_and_his_wife_Mileva_Maric.jpg</property>
  <property name="ttl">25</property>
  <property name="aspect_ratio">1</property>
  <property name="progressive">1</property>
  <property name="seekable">1</property>
  <property name="format">1</property>
  <property name="meta.media.width">3324</property>
  <property name="meta.media.height">2300</property>
  <property name="mlt_service">qimage</property>
  <property name="kdenlive:clipname"/>
  <property name="kdenlive:duration">00:00:05:00</property>
  <property name="kdenlive:folderid">28</property>
  <property name="kdenlive:id">866</property>
  <property name="kdenlive:clip_type">2</property>
  <property name="kdenlive:file_size">2149535</property>
  <property name="kdenlive:file_hash">5a708d0660b43d56c5ad949b2479d1a5</property>
 </producer>
 <producer id="producer396" in="00:00:00.000" out="00:00:04.960">
  <property name="length">00:00:05.000</property>
  <property name="eof">pause</property>
  <property name="resource">images/Henry_ford_1919.jpg</property>
  <property name="ttl">25</property>
  <property name="aspect_ratio">1</property>
  <property name="progressive">1</property>
  <property name="seekable">1</property>
  <property name="format">1</property>
  <property name="meta.media.width">1744</property>
  <property name="meta.media.height">2226</property>
  <property name="mlt_service">qimage</property>
  <property name="kdenlive:clipname"/>
  <property name="kdenlive:duration">00:00:05:00</property>
  <property name="kdenlive:folderid">28</property>
  <property name="kdenlive:id">868</property>
  <property name="kdenlive:clip_type">2</property>
  <property name="kdenlive:file_size">2348748</property>
  <property name="kdenlive:file_hash">7c60c24a4fddd308511d6df7b8ed442d</property>
 </producer>
 <chain id="chain153" out="00:11:09.720">
  <property name="length">16744</property>
  <property name="eof">pause</property>
  <property name="resource">/home/liquidzulu/Videos/yt/b-roll/Car Racing in the 1940s - Vintage Footage [My8tEmdQvuk].webm</property>
  <property name="mlt_service">avformat-novalidate</property>
  <property name="seekable">1</property>
  <property name="format">3</property>
  <property name="audio_index">-1</property>
  <property name="video_index">0</property>
  <property name="mute_on_pause">0</property>
  <property name="kdenlive:clipname"/>
  <property name="kdenlive:clip_type">0</property>
  <property name="kdenlive:folderid">-1</property>
  <property name="kdenlive:id">872</property>
  <property name="kdenlive:file_size">192954668</property>
  <property name="kdenlive:file_hash">01532ffd5f55ffefadf42edc6b750ece</property>
  <property name="kdenlive:audio_max1">169</property>
  <property name="kdenlive:active_streams">-1</property>
  <property name="set.test_audio">1</property>
  <property name="meta.media.nb_streams">2</property>
  <property name="meta.media.0.stream.type">video</property>
  <property name="meta.media.0.stream.frame_rate">29.97</property>
  <property name="meta.media.0.stream.sample_aspect_ratio">1</property>
  <property name="meta.media.0.codec.width">1920</property>
  <property name="meta.media.0.codec.height">1080</property>
  <property name="meta.media.0.codec.rotate">0</property>
  <property name="meta.media.0.codec.pix_fmt">yuv420p</property>
  <property name="meta.media.0.codec.sample_aspect_ratio">0</property>
  <property name="meta.media.0.codec.colorspace">709</property>
  <property name="meta.media.0.codec.color_trc">1</property>
  <property name="meta.media.0.codec.name">vp9</property>
  <property name="meta.media.0.codec.long_name">Google VP9</property>
  <property name="meta.media.0.codec.bit_rate">0</property>
  <property name="meta.attr.0.stream.language.markup">eng</property>
  <property name="meta.attr.0.stream.DURATION.markup">00:11:09.735000000</property>
  <property name="meta.media.1.stream.type">audio</property>
  <property name="meta.media.1.codec.sample_fmt">fltp</property>
  <property name="meta.media.1.codec.sample_rate">48000</property>
  <property name="meta.media.1.codec.channels">2</property>
  <property name="meta.media.1.codec.name">opus</property>
  <property name="meta.media.1.codec.long_name">Opus</property>
  <property name="meta.media.1.codec.bit_rate">0</property>
  <property name="meta.attr.1.stream.language.markup">eng</property>
  <property name="meta.attr.1.stream.DURATION.markup">00:11:09.761000000</property>
  <property name="meta.attr.ENCODER.markup">Lavf59.27.100</property>
  <property name="meta.media.sample_aspect_num">1</property>
  <property name="meta.media.sample_aspect_den">1</property>
  <property name="meta.media.frame_rate_num">30000</property>
  <property name="meta.media.frame_rate_den">1001</property>
  <property name="meta.media.colorspace">709</property>
  <property name="meta.media.color_trc">1</property>
  <property name="meta.media.has_b_frames">0</property>
  <property name="meta.media.width">1920</property>
  <property name="meta.media.height">1080</property>
  <property name="meta.media.color_range">mpeg</property>
  <property name="xml">was here</property>
  <property name="meta.media.top_field_first">0</property>
  <property name="meta.media.progressive">1</property>
  <property name="set.test_image">0</property>
 </chain>
 <chain id="chain154" out="00:10:28.040">
  <property name="length">15702</property>
  <property name="eof">pause</property>
  <property name="resource">/home/liquidzulu/Videos/yt/b-roll/Weaving Linen (1940-1949) [3gDWuWT23x4].webm</property>
  <property name="mlt_service">avformat-novalidate</property>
  <property name="seekable">1</property>
  <property name="format">3</property>
  <property name="audio_index">-1</property>
  <property name="video_index">0</property>
  <property name="mute_on_pause">0</property>
  <property name="kdenlive:clipname"/>
  <property name="kdenlive:clip_type">0</property>
  <property name="kdenlive:folderid">-1</property>
  <property name="kdenlive:id">870</property>
  <property name="kdenlive:file_size">38357561</property>
  <property name="kdenlive:file_hash">cc665f40e5cca20a826a8bc4ae7d4c8d</property>
  <property name="kdenlive:audio_max1">125</property>
  <property name="kdenlive:active_streams">-1</property>
  <property name="set.test_audio">1</property>
  <property name="meta.media.nb_streams">2</property>
  <property name="meta.media.0.stream.type">video</property>
  <property name="meta.media.0.stream.frame_rate">25</property>
  <property name="meta.media.0.stream.sample_aspect_ratio">1</property>
  <property name="meta.media.0.codec.width">640</property>
  <property name="meta.media.0.codec.height">480</property>
  <property name="meta.media.0.codec.rotate">0</property>
  <property name="meta.media.0.codec.pix_fmt">yuv420p</property>
  <property name="meta.media.0.codec.sample_aspect_ratio">0</property>
  <property name="meta.media.0.codec.colorspace">601</property>
  <property name="meta.media.0.codec.name">vp9</property>
  <property name="meta.media.0.codec.long_name">Google VP9</property>
  <property name="meta.media.0.codec.bit_rate">0</property>
  <property name="meta.attr.0.stream.language.markup">eng</property>
  <property name="meta.attr.0.stream.DURATION.markup">00:10:28.000000000</property>
  <property name="meta.media.1.stream.type">audio</property>
  <property name="meta.media.1.codec.sample_fmt">fltp</property>
  <property name="meta.media.1.codec.sample_rate">48000</property>
  <property name="meta.media.1.codec.channels">2</property>
  <property name="meta.media.1.codec.name">opus</property>
  <property name="meta.media.1.codec.long_name">Opus</property>
  <property name="meta.media.1.codec.bit_rate">0</property>
  <property name="meta.attr.1.stream.language.markup">eng</property>
  <property name="meta.attr.1.stream.DURATION.markup">00:10:28.061000000</property>
  <property name="meta.attr.ENCODER.markup">Lavf59.27.100</property>
  <property name="meta.media.sample_aspect_num">1</property>
  <property name="meta.media.sample_aspect_den">1</property>
  <property name="meta.media.frame_rate_num">25</property>
  <property name="meta.media.frame_rate_den">1</property>
  <property name="meta.media.colorspace">601</property>
  <property name="meta.media.color_trc">2</property>
  <property name="meta.media.has_b_frames">0</property>
  <property name="meta.media.width">640</property>
  <property name="meta.media.height">480</property>
  <property name="meta.media.color_range">mpeg</property>
  <property name="xml">was here</property>
  <property name="meta.media.top_field_first">0</property>
  <property name="meta.media.progressive">1</property>
  <property name="set.test_image">0</property>
 </chain>
 <playlist id="playlist10">
  <entry producer="chain149" in="01:41:51.920" out="01:41:56.840">
   <property name="kdenlive:id">6</property>
  </entry>
  <entry producer="chain149" in="00:17:17.680" out="00:17:23.160">
   <property name="kdenlive:id">6</property>
  </entry>
  <entry producer="chain149" in="00:17:23.880" out="00:17:24.360">
   <property name="kdenlive:id">6</property>
  </entry>
  <entry producer="chain150" in="00:17:10.360" out="00:17:16.440">
   <property name="kdenlive:id">7</property>
  </entry>
  <entry producer="chain150" in="00:17:36.880" out="00:17:44.160">
   <property name="kdenlive:id">7</property>
  </entry>
  <entry producer="chain150" in="01:23:00.560" out="01:23:13.800">
   <property name="kdenlive:id">7</property>
  </entry>
  <entry producer="chain151" in="00:31:05.440" out="00:31:10.560">
   <property name="kdenlive:id">404</property>
  </entry>
  <entry producer="chain152" in="00:27:07.560" out="00:27:12.880">
   <property name="kdenlive:id">15</property>
  </entry>
  <blank length="00:00:15.600"/>
  <entry producer="producer21" in="00:00:00.000" out="00:00:00.480">
   <property name="kdenlive:id">213</property>
  </entry>
  <entry producer="producer40" in="00:00:00.000" out="00:00:00.560">
   <property name="kdenlive:id">214</property>
  </entry>
  <blank length="00:00:00.160"/>
  <entry producer="producer121" in="00:00:00.000" out="01:08:50.440">
   <property name="kdenlive:id">220</property>
  </entry>
  <blank length="00:00:29.280"/>
  <entry producer="producer269" in="00:00:00.000" out="00:00:07.320">
   <property name="kdenlive:id">856</property>
   <filter id="filter315">
    <property name="rotate_center">1</property>
    <property name="mlt_service">qtblend</property>
    <property name="kdenlive_id">qtblend</property>
    <property name="rect">00:00:00.000=-237 -133 2397 1348 1.000000;00:00:07.320=-237 -216 2397 1348 1.000000</property>
    <property name="rotation">00:00:00.000=0;00:00:07.320=0</property>
    <property name="compositing">0</property>
    <property name="distort">0</property>
    <property name="kdenlive:collapsed">0</property>
   </filter>
  </entry>
  <blank length="00:00:03.120"/>
  <entry producer="producer272" in="00:00:00.000" out="00:00:09.960">
   <property name="kdenlive:id">858</property>
   <filter id="filter316">
    <property name="rotate_center">1</property>
    <property name="mlt_service">qtblend</property>
    <property name="kdenlive_id">qtblend</property>
    <property name="rect">00:00:00.000=-222 -217 2778 1562 1.000000;00:00:09.960=-222 -393 2778 1562 1.000000</property>
    <property name="rotation">00:00:00.000=0;00:00:09.960=0</property>
    <property name="compositing">0</property>
    <property name="distort">0</property>
    <property name="kdenlive:collapsed">1</property>
   </filter>
   <filter id="filter317" in="00:00:07.800" out="00:00:09.960">
    <property name="start">1</property>
    <property name="level">1</property>
    <property name="mlt_service">brightness</property>
    <property name="kdenlive_id">fade_to_black</property>
    <property name="alpha">00:00:00.000=1;00:00:02.160=0</property>
    <property name="kdenlive:collapsed">0</property>
    <property name="disable">0</property>
   </filter>
  </entry>
  <entry producer="producer273" in="00:00:00.000" out="00:00:12.600">
   <property name="kdenlive:id">860</property>
   <property name="kdenlive:activeeffect">1</property>
   <filter id="filter318">
    <property name="rotate_center">1</property>
    <property name="mlt_service">qtblend</property>
    <property name="kdenlive_id">qtblend</property>
    <property name="rect">00:00:00.000=-1279 -13 4488 2525 1.000000;00:00:12.600=-1279 -279 4488 2525 1.000000</property>
    <property name="rotation">00:00:00.000=0;00:00:12.600=0</property>
    <property name="compositing">0</property>
    <property name="distort">0</property>
    <property name="kdenlive:collapsed">0</property>
   </filter>
   <filter id="filter319" out="00:00:00.400">
    <property name="start">1</property>
    <property name="level">1</property>
    <property name="mlt_service">brightness</property>
    <property name="kdenlive_id">fade_from_black</property>
    <property name="alpha">00:00:00.000=0;00:00:00.400=1</property>
    <property name="kdenlive:collapsed">1</property>
    <property name="disable">0</property>
   </filter>
   <filter id="filter320" in="00:00:11.760" out="00:00:12.600">
    <property name="start">1</property>
    <property name="level">1</property>
    <property name="mlt_service">brightness</property>
    <property name="kdenlive_id">fade_to_black</property>
    <property name="alpha">00:00:00.000=1;00:00:00.840=0</property>
    <property name="kdenlive:collapsed">0</property>
    <property name="disable">0</property>
   </filter>
  </entry>
  <entry producer="producer274" in="00:00:00.000" out="00:00:00.600">
   <property name="kdenlive:id">862</property>
   <property name="kdenlive:activeeffect">0</property>
   <filter id="filter321">
    <property name="rotate_center">1</property>
    <property name="mlt_service">qtblend</property>
    <property name="kdenlive_id">qtblend</property>
    <property name="rect">00:00:00.000=-1753 -981 5440 3060 1.000000;00:00:00.600=-1515 -847 4963 2791 1.000000</property>
    <property name="rotation">00:00:00.000=0;00:00:00.600=0</property>
    <property name="compositing">0</property>
    <property name="distort">0</property>
    <property name="kdenlive:collapsed">0</property>
   </filter>
   <filter id="filter322">
    <property name="start">1</property>
    <property name="level">00:00:00.000=1;00:00:00.600=0.67</property>
    <property name="mlt_service">brightness</property>
    <property name="kdenlive_id">brightness</property>
    <property name="kdenlive:collapsed">1</property>
   </filter>
  </entry>
  <entry producer="producer278" in="00:00:00.000" out="00:00:00.400">
   <property name="kdenlive:id">863</property>
   <property name="kdenlive:activeeffect">0</property>
   <filter id="filter323">
    <property name="rotate_center">1</property>
    <property name="mlt_service">qtblend</property>
    <property name="kdenlive_id">qtblend</property>
    <property name="rect">00:00:00.000=-378 -54 2682 1508 1.000000;00:00:00.400=-284 -1 2492 1402 1.000000</property>
    <property name="rotation">00:00:00.000=0;00:00:00.400=0</property>
    <property name="compositing">0</property>
    <property name="distort">0</property>
    <property name="kdenlive:collapsed">0</property>
   </filter>
   <filter id="filter324">
    <property name="start">1</property>
    <property name="level">00:00:00.000=1;00:00:00.400=0.73</property>
    <property name="mlt_service">brightness</property>
    <property name="kdenlive_id">brightness</property>
    <property name="kdenlive:collapsed">0</property>
   </filter>
  </entry>
  <entry producer="producer368" in="00:00:00.000" out="00:00:00.480">
   <property name="kdenlive:id">866</property>
   <property name="kdenlive:activeeffect">0</property>
   <filter id="filter325">
    <property name="rotate_center">1</property>
    <property name="mlt_service">qtblend</property>
    <property name="kdenlive_id">qtblend</property>
    <property name="rect">00:00:00.000=-331 -64 2586 1455 1.000000;00:00:00.480=-237 -11 2397 1348 1.000000</property>
    <property name="rotation">00:00:00.000=0;00:00:00.480=0</property>
    <property name="compositing">0</property>
    <property name="distort">0</property>
    <property name="kdenlive:collapsed">0</property>
   </filter>
   <filter id="filter326">
    <property name="start">1</property>
    <property name="level">00:00:00.000=1;00:00:00.480=0.7</property>
    <property name="mlt_service">brightness</property>
    <property name="kdenlive_id">brightness</property>
    <property name="kdenlive:collapsed">0</property>
   </filter>
  </entry>
  <entry producer="producer396" in="00:00:00.000" out="00:00:02.560">
   <property name="kdenlive:id">868</property>
   <property name="kdenlive:activeeffect">2</property>
   <filter id="filter327">
    <property name="rotate_center">1</property>
    <property name="mlt_service">qtblend</property>
    <property name="kdenlive_id">qtblend</property>
    <property name="rect">00:00:00.000=-1232 -250 4394 2471 1.000000;00:00:02.560=-1232 -390 4394 2471 1.000000</property>
    <property name="rotation">00:00:00.000=0;00:00:02.560=0</property>
    <property name="compositing">0</property>
    <property name="distort">0</property>
    <property name="kdenlive:collapsed">1</property>
   </filter>
   <filter id="filter328">
    <property name="start">1</property>
    <property name="level">00:00:00.000=1;00:00:02.560=0.39</property>
    <property name="mlt_service">brightness</property>
    <property name="kdenlive_id">brightness</property>
    <property name="kdenlive:collapsed">1</property>
   </filter>
   <filter id="filter329" in="00:00:02.000" out="00:00:02.560">
    <property name="start">1</property>
    <property name="level">1</property>
    <property name="mlt_service">brightness</property>
    <property name="kdenlive_id">fade_to_black</property>
    <property name="alpha">00:00:00.000=1;00:00:00.560=0</property>
    <property name="kdenlive:collapsed">0</property>
   </filter>
  </entry>
  <entry producer="chain153" in="00:00:17.360" out="00:00:23.200">
   <property name="kdenlive:id">872</property>
   <property name="kdenlive:activeeffect">1</property>
   <filter id="filter330" in="00:00:17.360" out="00:00:18.880">
    <property name="start">1</property>
    <property name="level">1</property>
    <property name="mlt_service">brightness</property>
    <property name="kdenlive_id">fade_from_black</property>
    <property name="alpha">00:00:00.000=0;00:00:01.520=1</property>
    <property name="kdenlive:collapsed">0</property>
   </filter>
   <filter id="filter331">
    <property name="rotate_center">1</property>
    <property name="mlt_service">qtblend</property>
    <property name="kdenlive_id">qtblend</property>
    <property name="rect">00:00:17.360=-188 -106 2298 1293 1.000000</property>
    <property name="rotation">00:00:17.360=0</property>
    <property name="compositing">0</property>
    <property name="distort">0</property>
    <property name="kdenlive:collapsed">0</property>
   </filter>
  </entry>
  <blank length="00:00:00.800"/>
  <entry producer="chain154" in="00:00:27.160" out="00:00:29.280">
   <property name="kdenlive:id">870</property>
   <property name="kdenlive:activeeffect">0</property>
   <filter id="filter332">
    <property name="rotate_center">1</property>
    <property name="mlt_service">qtblend</property>
    <property name="kdenlive_id">qtblend</property>
    <property name="rect">00:00:27.160=-378 -213 2682 1509 1.000000</property>
    <property name="rotation">00:00:27.160=0</property>
    <property name="compositing">0</property>
    <property name="distort">0</property>
    <property name="kdenlive:collapsed">0</property>
   </filter>
  </entry>
  <blank length="00:00:06.640"/>
  <entry producer="producer121" in="00:00:00.000" out="00:57:41.560">
   <property name="kdenlive:id">220</property>
  </entry>
 </playlist>
 <playlist id="playlist11"/>
 <tractor id="tractor5" in="00:00:00.000" out="02:08:59.240">
  <property name="kdenlive:trackheight">67</property>
  <property name="kdenlive:timeline_active">1</property>
  <property name="kdenlive:collapsed">0</property>
  <property name="kdenlive:thumbs_format"/>
  <property name="kdenlive:audio_rec"/>
  <track hide="audio" producer="playlist10"/>
  <track hide="audio" producer="playlist11"/>
 </tractor>
 <chain id="chain155" out="00:01:00.000">
  <property name="length">1501</property>
  <property name="eof">pause</property>
  <property name="resource">/home/liquidzulu/Videos/yt/b-roll/Soviet union flag - CCCP flag waving in the wind [xl4T7cQ2vyQ].webm</property>
  <property name="mlt_service">avformat-novalidate</property>
  <property name="seekable">1</property>
  <property name="format">3</property>
  <property name="audio_index">-1</property>
  <property name="video_index">0</property>
  <property name="kdenlive:clipname"/>
  <property name="kdenlive:clip_type">0</property>
  <property name="kdenlive:folderid">-1</property>
  <property name="kdenlive:id">22</property>
  <property name="kdenlive:file_size">41139049</property>
  <property name="kdenlive:file_hash">2fc3b4891977f4108d0d30df6726765b</property>
  <property name="kdenlive:audio_max1">248</property>
  <property name="kdenlive:active_streams">-1</property>
  <property name="set.test_audio">1</property>
  <property name="meta.media.nb_streams">2</property>
  <property name="meta.media.0.stream.type">video</property>
  <property name="meta.media.0.stream.frame_rate">60</property>
  <property name="meta.media.0.stream.sample_aspect_ratio">1</property>
  <property name="meta.media.0.codec.width">3840</property>
  <property name="meta.media.0.codec.height">2160</property>
  <property name="meta.media.0.codec.rotate">0</property>
  <property name="meta.media.0.codec.pix_fmt">yuv420p</property>
  <property name="meta.media.0.codec.sample_aspect_ratio">0</property>
  <property name="meta.media.0.codec.colorspace">601</property>
  <property name="meta.media.0.codec.color_trc">1</property>
  <property name="meta.media.0.codec.name">vp9</property>
  <property name="meta.media.0.codec.long_name">Google VP9</property>
  <property name="meta.media.0.codec.bit_rate">0</property>
  <property name="meta.attr.0.stream.language.markup">eng</property>
  <property name="meta.attr.0.stream.DURATION.markup">00:01:00.032000000</property>
  <property name="meta.media.1.stream.type">audio</property>
  <property name="meta.media.1.codec.sample_fmt">fltp</property>
  <property name="meta.media.1.codec.sample_rate">48000</property>
  <property name="meta.media.1.codec.channels">2</property>
  <property name="meta.media.1.codec.name">opus</property>
  <property name="meta.media.1.codec.long_name">Opus</property>
  <property name="meta.media.1.codec.bit_rate">0</property>
  <property name="meta.attr.1.stream.language.markup">eng</property>
  <property name="meta.attr.1.stream.DURATION.markup">00:00:59.981000000</property>
  <property name="meta.attr.ENCODER.markup">Lavf59.27.100</property>
  <property name="meta.media.sample_aspect_num">1</property>
  <property name="meta.media.sample_aspect_den">1</property>
  <property name="meta.media.frame_rate_num">60</property>
  <property name="meta.media.frame_rate_den">1</property>
  <property name="meta.media.colorspace">601</property>
  <property name="meta.media.color_trc">1</property>
  <property name="meta.media.has_b_frames">0</property>
  <property name="meta.media.width">3840</property>
  <property name="meta.media.height">2160</property>
  <property name="meta.media.color_range">mpeg</property>
  <property name="xml">was here</property>
  <property name="meta.media.top_field_first">0</property>
  <property name="meta.media.progressive">1</property>
  <property name="set.test_image">0</property>
  <property name="mute_on_pause">1</property>
 </chain>
 <chain id="chain156" out="00:02:45.000">
  <property name="length">4126</property>
  <property name="eof">pause</property>
  <property name="resource">/home/liquidzulu/Videos/yt/b-roll/Mickey Mouse Steamboat Wille [hxf-UHuGobI].webm</property>
  <property name="mlt_service">avformat-novalidate</property>
  <property name="seekable">1</property>
  <property name="format">3</property>
  <property name="audio_index">-1</property>
  <property name="video_index">0</property>
  <property name="kdenlive:clipname"/>
  <property name="kdenlive:clip_type">0</property>
  <property name="kdenlive:folderid">-1</property>
  <property name="kdenlive:id">550</property>
  <property name="kdenlive:file_size">7854650</property>
  <property name="kdenlive:file_hash">7b507cf3f5a4342d6bec80f5cbd1ca03</property>
  <property name="kdenlive:audio_max1">219</property>
  <property name="kdenlive:active_streams">-1</property>
  <property name="set.test_audio">1</property>
  <property name="meta.media.nb_streams">2</property>
  <property name="meta.media.0.stream.type">video</property>
  <property name="meta.media.0.stream.frame_rate">29.97</property>
  <property name="meta.media.0.stream.sample_aspect_ratio">1</property>
  <property name="meta.media.0.codec.width">480</property>
  <property name="meta.media.0.codec.height">360</property>
  <property name="meta.media.0.codec.rotate">0</property>
  <property name="meta.media.0.codec.pix_fmt">yuv420p</property>
  <property name="meta.media.0.codec.sample_aspect_ratio">0</property>
  <property name="meta.media.0.codec.colorspace">601</property>
  <property name="meta.media.0.codec.name">vp9</property>
  <property name="meta.media.0.codec.long_name">Google VP9</property>
  <property name="meta.media.0.codec.bit_rate">0</property>
  <property name="meta.attr.0.stream.language.markup">eng</property>
  <property name="meta.attr.0.stream.DURATION.markup">00:02:44.998000000</property>
  <property name="meta.media.1.stream.type">audio</property>
  <property name="meta.media.1.codec.sample_fmt">fltp</property>
  <property name="meta.media.1.codec.sample_rate">48000</property>
  <property name="meta.media.1.codec.channels">2</property>
  <property name="meta.media.1.codec.name">opus</property>
  <property name="meta.media.1.codec.long_name">Opus</property>
  <property name="meta.media.1.codec.bit_rate">0</property>
  <property name="meta.attr.1.stream.language.markup">eng</property>
  <property name="meta.attr.1.stream.DURATION.markup">00:02:45.021000000</property>
  <property name="meta.attr.ENCODER.markup">Lavf59.27.100</property>
  <property name="meta.media.sample_aspect_num">1</property>
  <property name="meta.media.sample_aspect_den">1</property>
  <property name="meta.media.frame_rate_num">30000</property>
  <property name="meta.media.frame_rate_den">1001</property>
  <property name="meta.media.colorspace">601</property>
  <property name="meta.media.color_trc">2</property>
  <property name="meta.media.has_b_frames">0</property>
  <property name="meta.media.width">480</property>
  <property name="meta.media.height">360</property>
  <property name="meta.media.color_range">mpeg</property>
  <property name="xml">was here</property>
  <property name="meta.media.top_field_first">0</property>
  <property name="meta.media.progressive">1</property>
  <property name="set.test_image">0</property>
  <property name="mute_on_pause">1</property>
 </chain>
 <chain id="chain157" out="00:00:58.320">
  <property name="length">1459</property>
  <property name="eof">pause</property>
  <property name="resource">b-roll/Artist sells banana duct-taped to wall for $120,000 at Art Basel [WsXmohQcbtQ].webm</property>
  <property name="mlt_service">avformat-novalidate</property>
  <property name="seekable">1</property>
  <property name="format">3</property>
  <property name="audio_index">-1</property>
  <property name="video_index">0</property>
  <property name="kdenlive:clipname"/>
  <property name="kdenlive:clip_type">0</property>
  <property name="kdenlive:folderid">-1</property>
  <property name="kdenlive:id">24</property>
  <property name="kdenlive:file_size">18321724</property>
  <property name="kdenlive:file_hash">d83386c3b1aa4b0f541318a951d343bc</property>
  <property name="kdenlive:audio_max1">169</property>
  <property name="kdenlive:active_streams">-1</property>
  <property name="set.test_audio">1</property>
  <property name="meta.media.nb_streams">2</property>
  <property name="meta.media.0.stream.type">video</property>
  <property name="meta.media.0.stream.frame_rate">29.97</property>
  <property name="meta.media.0.stream.sample_aspect_ratio">1</property>
  <property name="meta.media.0.codec.width">1920</property>
  <property name="meta.media.0.codec.height">1080</property>
  <property name="meta.media.0.codec.rotate">0</property>
  <property name="meta.media.0.codec.pix_fmt">yuv420p</property>
  <property name="meta.media.0.codec.sample_aspect_ratio">0</property>
  <property name="meta.media.0.codec.colorspace">709</property>
  <property name="meta.media.0.codec.color_trc">1</property>
  <property name="meta.media.0.codec.name">vp9</property>
  <property name="meta.media.0.codec.long_name">Google VP9</property>
  <property name="meta.media.0.codec.bit_rate">0</property>
  <property name="meta.attr.0.stream.language.markup">eng</property>
  <property name="meta.attr.0.stream.DURATION.markup">00:00:58.324000000</property>
  <property name="meta.media.1.stream.type">audio</property>
  <property name="meta.media.1.codec.sample_fmt">fltp</property>
  <property name="meta.media.1.codec.sample_rate">48000</property>
  <property name="meta.media.1.codec.channels">2</property>
  <property name="meta.media.1.codec.name">opus</property>
  <property name="meta.media.1.codec.long_name">Opus</property>
  <property name="meta.media.1.codec.bit_rate">0</property>
  <property name="meta.attr.1.stream.language.markup">eng</property>
  <property name="meta.attr.1.stream.DURATION.markup">00:00:58.341000000</property>
  <property name="meta.attr.ENCODER.markup">Lavf59.27.100</property>
  <property name="meta.media.sample_aspect_num">1</property>
  <property name="meta.media.sample_aspect_den">1</property>
  <property name="meta.media.frame_rate_num">30000</property>
  <property name="meta.media.frame_rate_den">1001</property>
  <property name="meta.media.colorspace">709</property>
  <property name="meta.media.color_trc">1</property>
  <property name="meta.media.has_b_frames">0</property>
  <property name="meta.media.width">1920</property>
  <property name="meta.media.height">1080</property>
  <property name="meta.media.color_range">mpeg</property>
  <property name="xml">was here</property>
  <property name="meta.media.top_field_first">0</property>
  <property name="meta.media.progressive">1</property>
  <property name="set.test_image">0</property>
  <property name="mute_on_pause">1</property>
 </chain>
 <chain id="chain158" out="00:00:09.960">
  <property name="length">250</property>
  <property name="eof">pause</property>
  <property name="resource">animation/output/neural-network.mp4</property>
  <property name="mlt_service">avformat-novalidate</property>
  <property name="seekable">1</property>
  <property name="format">3</property>
  <property name="audio_index">-1</property>
  <property name="video_index">0</property>
  <property name="kdenlive:clipname"/>
  <property name="kdenlive:clip_type">2</property>
  <property name="kdenlive:folderid">-1</property>
  <property name="kdenlive:id">219</property>
  <property name="kdenlive:file_size">6473614</property>
  <property name="kdenlive:file_hash">0c541f0201174e70bf3bbaa9145dbc9b</property>
  <property name="meta.media.nb_streams">1</property>
  <property name="meta.media.0.stream.type">video</property>
  <property name="meta.media.0.stream.frame_rate">60</property>
  <property name="meta.media.0.stream.sample_aspect_ratio">0</property>
  <property name="meta.media.0.codec.width">1920</property>
  <property name="meta.media.0.codec.height">1080</property>
  <property name="meta.media.0.codec.rotate">0</property>
  <property name="meta.media.0.codec.pix_fmt">yuv420p</property>
  <property name="meta.media.0.codec.sample_aspect_ratio">0</property>
  <property name="meta.media.0.codec.colorspace">709</property>
  <property name="meta.media.0.codec.name">h264</property>
  <property name="meta.media.0.codec.long_name">H.264 / AVC / MPEG-4 AVC / MPEG-4 part 10</property>
  <property name="meta.media.0.codec.bit_rate">5163776</property>
  <property name="meta.attr.0.stream.handler_name.markup">VideoHandler</property>
  <property name="meta.attr.0.stream.vendor_id.markup">[0][0][0][0]</property>
  <property name="meta.attr.major_brand.markup">isom</property>
  <property name="meta.attr.minor_version.markup">512</property>
  <property name="meta.attr.compatible_brands.markup">isomiso2avc1mp41</property>
  <property name="meta.attr.encoder.markup">Lavf58.24.100</property>
  <property name="meta.media.sample_aspect_num">1</property>
  <property name="meta.media.sample_aspect_den">1</property>
  <property name="meta.media.frame_rate_num">60</property>
  <property name="meta.media.frame_rate_den">1</property>
  <property name="meta.media.colorspace">709</property>
  <property name="meta.media.color_trc">2</property>
  <property name="meta.media.has_b_frames">2</property>
  <property name="meta.media.width">1920</property>
  <property name="meta.media.height">1080</property>
  <property name="meta.media.color_range">mpeg</property>
  <property name="xml">was here</property>
  <property name="meta.media.top_field_first">0</property>
  <property name="meta.media.progressive">1</property>
  <property name="set.test_audio">1</property>
  <property name="set.test_image">0</property>
  <property name="mute_on_pause">1</property>
 </chain>
 <chain id="chain159" out="00:00:29.360">
  <property name="length">735</property>
  <property name="eof">pause</property>
  <property name="resource">animation/output/thesis.mp4</property>
  <property name="mlt_service">avformat-novalidate</property>
  <property name="seekable">1</property>
  <property name="format">3</property>
  <property name="audio_index">-1</property>
  <property name="video_index">0</property>
  <property name="kdenlive:clipname"/>
  <property name="kdenlive:clip_type">2</property>
  <property name="kdenlive:folderid">218</property>
  <property name="kdenlive:id">230</property>
  <property name="kdenlive:file_size">1526650</property>
  <property name="kdenlive:file_hash">bffe72759d2fcbb6074cc18a4f0c4f4c</property>
  <property name="meta.media.nb_streams">1</property>
  <property name="meta.media.0.stream.type">video</property>
  <property name="meta.media.0.stream.frame_rate">60</property>
  <property name="meta.media.0.stream.sample_aspect_ratio">0</property>
  <property name="meta.media.0.codec.width">1920</property>
  <property name="meta.media.0.codec.height">1080</property>
  <property name="meta.media.0.codec.rotate">0</property>
  <property name="meta.media.0.codec.pix_fmt">yuv420p</property>
  <property name="meta.media.0.codec.sample_aspect_ratio">0</property>
  <property name="meta.media.0.codec.colorspace">709</property>
  <property name="meta.media.0.codec.name">h264</property>
  <property name="meta.media.0.codec.long_name">H.264 / AVC / MPEG-4 AVC / MPEG-4 part 10</property>
  <property name="meta.media.0.codec.bit_rate">409803</property>
  <property name="meta.attr.0.stream.handler_name.markup">VideoHandler</property>
  <property name="meta.attr.0.stream.vendor_id.markup">[0][0][0][0]</property>
  <property name="meta.attr.major_brand.markup">isom</property>
  <property name="meta.attr.minor_version.markup">512</property>
  <property name="meta.attr.compatible_brands.markup">isomiso2avc1mp41</property>
  <property name="meta.attr.encoder.markup">Lavf58.24.100</property>
  <property name="meta.media.sample_aspect_num">1</property>
  <property name="meta.media.sample_aspect_den">1</property>
  <property name="meta.media.frame_rate_num">60</property>
  <property name="meta.media.frame_rate_den">1</property>
  <property name="meta.media.colorspace">709</property>
  <property name="meta.media.color_trc">2</property>
  <property name="meta.media.has_b_frames">2</property>
  <property name="meta.media.width">1920</property>
  <property name="meta.media.height">1080</property>
  <property name="meta.media.color_range">mpeg</property>
  <property name="xml">was here</property>
  <property name="meta.media.top_field_first">0</property>
  <property name="meta.media.progressive">1</property>
  <property name="set.test_audio">1</property>
  <property name="set.test_image">0</property>
  <property name="mute_on_pause">1</property>
 </chain>
 <chain id="chain160" out="00:00:11.280">
  <property name="length">283</property>
  <property name="eof">pause</property>
  <property name="resource">animation/output/theft-meaning.mp4</property>
  <property name="mlt_service">avformat-novalidate</property>
  <property name="seekable">1</property>
  <property name="format">3</property>
  <property name="audio_index">-1</property>
  <property name="video_index">0</property>
  <property name="kdenlive:clipname"/>
  <property name="kdenlive:clip_type">2</property>
  <property name="kdenlive:folderid">-1</property>
  <property name="kdenlive:id">238</property>
  <property name="kdenlive:file_size">163459</property>
  <property name="kdenlive:file_hash">06e3211501d0040a8e477514da87c315</property>
  <property name="meta.media.nb_streams">1</property>
  <property name="meta.media.0.stream.type">video</property>
  <property name="meta.media.0.stream.frame_rate">60</property>
  <property name="meta.media.0.stream.sample_aspect_ratio">0</property>
  <property name="meta.media.0.codec.width">1920</property>
  <property name="meta.media.0.codec.height">1080</property>
  <property name="meta.media.0.codec.rotate">0</property>
  <property name="meta.media.0.codec.pix_fmt">yuv420p</property>
  <property name="meta.media.0.codec.sample_aspect_ratio">0</property>
  <property name="meta.media.0.codec.colorspace">709</property>
  <property name="meta.media.0.codec.name">h264</property>
  <property name="meta.media.0.codec.long_name">H.264 / AVC / MPEG-4 AVC / MPEG-4 part 10</property>
  <property name="meta.media.0.codec.bit_rate">109100</property>
  <property name="meta.attr.0.stream.handler_name.markup">VideoHandler</property>
  <property name="meta.attr.0.stream.vendor_id.markup">[0][0][0][0]</property>
  <property name="meta.attr.major_brand.markup">isom</property>
  <property name="meta.attr.minor_version.markup">512</property>
  <property name="meta.attr.compatible_brands.markup">isomiso2avc1mp41</property>
  <property name="meta.attr.encoder.markup">Lavf58.24.100</property>
  <property name="meta.media.sample_aspect_num">1</property>
  <property name="meta.media.sample_aspect_den">1</property>
  <property name="meta.media.frame_rate_num">60</property>
  <property name="meta.media.frame_rate_den">1</property>
  <property name="meta.media.colorspace">709</property>
  <property name="meta.media.color_trc">2</property>
  <property name="meta.media.has_b_frames">2</property>
  <property name="meta.media.width">1920</property>
  <property name="meta.media.height">1080</property>
  <property name="meta.media.color_range">mpeg</property>
  <property name="xml">was here</property>
  <property name="meta.media.top_field_first">0</property>
  <property name="meta.media.progressive">1</property>
  <property name="set.test_audio">1</property>
  <property name="set.test_image">0</property>
  <property name="mute_on_pause">1</property>
 </chain>
 <chain id="chain161" out="00:00:06.440">
  <property name="length">162</property>
  <property name="eof">pause</property>
  <property name="resource">animation/output/hotdog-filters.mp4</property>
  <property name="mlt_service">avformat-novalidate</property>
  <property name="seekable">1</property>
  <property name="format">3</property>
  <property name="audio_index">-1</property>
  <property name="video_index">0</property>
  <property name="kdenlive:clipname"/>
  <property name="kdenlive:clip_type">2</property>
  <property name="kdenlive:folderid">218</property>
  <property name="kdenlive:id">259</property>
  <property name="kdenlive:file_size">814506</property>
  <property name="kdenlive:file_hash">a22b881d51617a1b7da002b2069b9435</property>
  <property name="meta.media.nb_streams">1</property>
  <property name="meta.media.0.stream.type">video</property>
  <property name="meta.media.0.stream.frame_rate">30</property>
  <property name="meta.media.0.stream.sample_aspect_ratio">0</property>
  <property name="meta.media.0.codec.width">1920</property>
  <property name="meta.media.0.codec.height">1080</property>
  <property name="meta.media.0.codec.rotate">0</property>
  <property name="meta.media.0.codec.pix_fmt">yuv420p</property>
  <property name="meta.media.0.codec.sample_aspect_ratio">0</property>
  <property name="meta.media.0.codec.colorspace">709</property>
  <property name="meta.media.0.codec.name">h264</property>
  <property name="meta.media.0.codec.long_name">H.264 / AVC / MPEG-4 AVC / MPEG-4 part 10</property>
  <property name="meta.media.0.codec.bit_rate">1003781</property>
  <property name="meta.attr.0.stream.handler_name.markup">VideoHandler</property>
  <property name="meta.attr.0.stream.vendor_id.markup">[0][0][0][0]</property>
  <property name="meta.attr.major_brand.markup">isom</property>
  <property name="meta.attr.minor_version.markup">512</property>
  <property name="meta.attr.compatible_brands.markup">isomiso2avc1mp41</property>
  <property name="meta.attr.encoder.markup">Lavf58.24.100</property>
  <property name="meta.media.sample_aspect_num">1</property>
  <property name="meta.media.sample_aspect_den">1</property>
  <property name="meta.media.frame_rate_num">30</property>
  <property name="meta.media.frame_rate_den">1</property>
  <property name="meta.media.colorspace">709</property>
  <property name="meta.media.color_trc">2</property>
  <property name="meta.media.has_b_frames">2</property>
  <property name="meta.media.width">1920</property>
  <property name="meta.media.height">1080</property>
  <property name="meta.media.color_range">mpeg</property>
  <property name="xml">was here</property>
  <property name="meta.media.top_field_first">0</property>
  <property name="meta.media.progressive">1</property>
  <property name="set.test_audio">1</property>
  <property name="set.test_image">0</property>
  <property name="mute_on_pause">1</property>
 </chain>
 <chain id="chain172" out="00:00:09.160">
  <property name="length">230</property>
  <property name="eof">pause</property>
  <property name="resource">animation/output/hotdog-spaceship.mp4</property>
  <property name="mlt_service">avformat-novalidate</property>
  <property name="seekable">1</property>
  <property name="format">3</property>
  <property name="audio_index">-1</property>
  <property name="video_index">0</property>
  <property name="kdenlive:clipname"/>
  <property name="kdenlive:clip_type">2</property>
  <property name="kdenlive:folderid">-1</property>
  <property name="kdenlive:id">261</property>
  <property name="kdenlive:file_size">337454</property>
  <property name="kdenlive:file_hash">3132a7507141e9f542d8ad845f9d3154</property>
  <property name="meta.media.nb_streams">1</property>
  <property name="meta.media.0.stream.type">video</property>
  <property name="meta.media.0.stream.frame_rate">60</property>
  <property name="meta.media.0.stream.sample_aspect_ratio">0</property>
  <property name="meta.media.0.codec.width">1920</property>
  <property name="meta.media.0.codec.height">1080</property>
  <property name="meta.media.0.codec.rotate">0</property>
  <property name="meta.media.0.codec.pix_fmt">yuv420p</property>
  <property name="meta.media.0.codec.sample_aspect_ratio">0</property>
  <property name="meta.media.0.codec.colorspace">709</property>
  <property name="meta.media.0.codec.name">h264</property>
  <property name="meta.media.0.codec.long_name">H.264 / AVC / MPEG-4 AVC / MPEG-4 part 10</property>
  <property name="meta.media.0.codec.bit_rate">287503</property>
  <property name="meta.attr.0.stream.handler_name.markup">VideoHandler</property>
  <property name="meta.attr.0.stream.vendor_id.markup">[0][0][0][0]</property>
  <property name="meta.attr.major_brand.markup">isom</property>
  <property name="meta.attr.minor_version.markup">512</property>
  <property name="meta.attr.compatible_brands.markup">isomiso2avc1mp41</property>
  <property name="meta.attr.encoder.markup">Lavf58.24.100</property>
  <property name="meta.media.sample_aspect_num">1</property>
  <property name="meta.media.sample_aspect_den">1</property>
  <property name="meta.media.frame_rate_num">60</property>
  <property name="meta.media.frame_rate_den">1</property>
  <property name="meta.media.colorspace">709</property>
  <property name="meta.media.color_trc">2</property>
  <property name="meta.media.has_b_frames">2</property>
  <property name="meta.media.width">1920</property>
  <property name="meta.media.height">1080</property>
  <property name="meta.media.color_range">mpeg</property>
  <property name="xml">was here</property>
  <property name="meta.media.top_field_first">0</property>
  <property name="meta.media.progressive">1</property>
  <property name="set.test_audio">1</property>
  <property name="set.test_image">0</property>
  <property name="mute_on_pause">1</property>
 </chain>
 <chain id="chain182" out="00:00:04.960">
  <property name="length">125</property>
  <property name="eof">pause</property>
  <property name="resource">animation/output/art-is-anything.mp4</property>
  <property name="mlt_service">avformat-novalidate</property>
  <property name="seekable">1</property>
  <property name="format">3</property>
  <property name="audio_index">-1</property>
  <property name="video_index">0</property>
  <property name="kdenlive:clipname"/>
  <property name="kdenlive:clip_type">2</property>
  <property name="kdenlive:folderid">-1</property>
  <property name="kdenlive:id">263</property>
  <property name="kdenlive:file_size">1775922</property>
  <property name="kdenlive:file_hash">703f31d2e9f10cd9c40258ad210e5f94</property>
  <property name="meta.media.nb_streams">1</property>
  <property name="meta.media.0.stream.type">video</property>
  <property name="meta.media.0.stream.frame_rate">30</property>
  <property name="meta.media.0.stream.sample_aspect_ratio">0</property>
  <property name="meta.media.0.codec.width">1920</property>
  <property name="meta.media.0.codec.height">1080</property>
  <property name="meta.media.0.codec.rotate">0</property>
  <property name="meta.media.0.codec.pix_fmt">yuv420p</property>
  <property name="meta.media.0.codec.sample_aspect_ratio">0</property>
  <property name="meta.media.0.codec.colorspace">709</property>
  <property name="meta.media.0.codec.name">h264</property>
  <property name="meta.media.0.codec.long_name">H.264 / AVC / MPEG-4 AVC / MPEG-4 part 10</property>
  <property name="meta.media.0.codec.bit_rate">2838832</property>
  <property name="meta.attr.0.stream.handler_name.markup">VideoHandler</property>
  <property name="meta.attr.0.stream.vendor_id.markup">[0][0][0][0]</property>
  <property name="meta.attr.major_brand.markup">isom</property>
  <property name="meta.attr.minor_version.markup">512</property>
  <property name="meta.attr.compatible_brands.markup">isomiso2avc1mp41</property>
  <property name="meta.attr.encoder.markup">Lavf58.24.100</property>
  <property name="meta.media.sample_aspect_num">1</property>
  <property name="meta.media.sample_aspect_den">1</property>
  <property name="meta.media.frame_rate_num">30</property>
  <property name="meta.media.frame_rate_den">1</property>
  <property name="meta.media.colorspace">709</property>
  <property name="meta.media.color_trc">2</property>
  <property name="meta.media.has_b_frames">2</property>
  <property name="meta.media.width">1920</property>
  <property name="meta.media.height">1080</property>
  <property name="meta.media.color_range">mpeg</property>
  <property name="xml">was here</property>
  <property name="meta.media.top_field_first">0</property>
  <property name="meta.media.progressive">1</property>
  <property name="set.test_audio">1</property>
  <property name="set.test_image">0</property>
  <property name="mute_on_pause">1</property>
 </chain>
 <chain id="chain183" out="00:00:14.280">
  <property name="length">358</property>
  <property name="eof">pause</property>
  <property name="resource">animation/output/ai-collage.mp4</property>
  <property name="mlt_service">avformat-novalidate</property>
  <property name="seekable">1</property>
  <property name="format">3</property>
  <property name="audio_index">-1</property>
  <property name="video_index">0</property>
  <property name="kdenlive:clipname"/>
  <property name="kdenlive:clip_type">2</property>
  <property name="kdenlive:folderid">-1</property>
  <property name="kdenlive:id">314</property>
  <property name="kdenlive:file_size">1200694</property>
  <property name="kdenlive:file_hash">4d7b240ed65b5b55ae7a17c6cfbafcbd</property>
  <property name="meta.media.nb_streams">1</property>
  <property name="meta.media.0.stream.type">video</property>
  <property name="meta.media.0.stream.frame_rate">60</property>
  <property name="meta.media.0.stream.sample_aspect_ratio">0</property>
  <property name="meta.media.0.codec.width">1920</property>
  <property name="meta.media.0.codec.height">1080</property>
  <property name="meta.media.0.codec.rotate">0</property>
  <property name="meta.media.0.codec.pix_fmt">yuv420p</property>
  <property name="meta.media.0.codec.sample_aspect_ratio">0</property>
  <property name="meta.media.0.codec.colorspace">709</property>
  <property name="meta.media.0.codec.name">h264</property>
  <property name="meta.media.0.codec.long_name">H.264 / AVC / MPEG-4 AVC / MPEG-4 part 10</property>
  <property name="meta.media.0.codec.bit_rate">665572</property>
  <property name="meta.attr.0.stream.handler_name.markup">VideoHandler</property>
  <property name="meta.attr.0.stream.vendor_id.markup">[0][0][0][0]</property>
  <property name="meta.attr.major_brand.markup">isom</property>
  <property name="meta.attr.minor_version.markup">512</property>
  <property name="meta.attr.compatible_brands.markup">isomiso2avc1mp41</property>
  <property name="meta.attr.encoder.markup">Lavf58.24.100</property>
  <property name="meta.media.sample_aspect_num">1</property>
  <property name="meta.media.sample_aspect_den">1</property>
  <property name="meta.media.frame_rate_num">60</property>
  <property name="meta.media.frame_rate_den">1</property>
  <property name="meta.media.colorspace">709</property>
  <property name="meta.media.color_trc">2</property>
  <property name="meta.media.has_b_frames">2</property>
  <property name="meta.media.width">1920</property>
  <property name="meta.media.height">1080</property>
  <property name="meta.media.color_range">mpeg</property>
  <property name="xml">was here</property>
  <property name="meta.media.top_field_first">0</property>
  <property name="meta.media.progressive">1</property>
  <property name="set.test_audio">1</property>
  <property name="set.test_image">0</property>
  <property name="mute_on_pause">1</property>
 </chain>
 <chain id="chain184" out="00:00:02.600">
  <property name="length">66</property>
  <property name="eof">pause</property>
  <property name="resource">b-roll/Windows folder animation [lQkJhCfk_Oo].webm</property>
  <property name="mlt_service">avformat-novalidate</property>
  <property name="seekable">1</property>
  <property name="format">3</property>
  <property name="audio_index">-1</property>
  <property name="video_index">0</property>
  <property name="kdenlive:clipname"/>
  <property name="kdenlive:clip_type">0</property>
  <property name="kdenlive:folderid">-1</property>
  <property name="kdenlive:id">310</property>
  <property name="kdenlive:file_size">6230</property>
  <property name="kdenlive:file_hash">711b538137da300d742a81ee77f33e7d</property>
  <property name="kdenlive:audio_max1">1</property>
  <property name="kdenlive:active_streams">-1</property>
  <property name="set.test_audio">1</property>
  <property name="meta.media.nb_streams">2</property>
  <property name="meta.media.0.stream.type">video</property>
  <property name="meta.media.0.stream.frame_rate">10</property>
  <property name="meta.media.0.stream.sample_aspect_ratio">1</property>
  <property name="meta.media.0.codec.width">272</property>
  <property name="meta.media.0.codec.height">60</property>
  <property name="meta.media.0.codec.rotate">0</property>
  <property name="meta.media.0.codec.pix_fmt">yuv420p</property>
  <property name="meta.media.0.codec.sample_aspect_ratio">0</property>
  <property name="meta.media.0.codec.colorspace">601</property>
  <property name="meta.media.0.codec.name">vp9</property>
  <property name="meta.media.0.codec.long_name">Google VP9</property>
  <property name="meta.media.0.codec.bit_rate">0</property>
  <property name="meta.attr.0.stream.HANDLER_NAME.markup">ISO Media file produced by Google Inc. Created on: 12/11/2023.</property>
  <property name="meta.attr.0.stream.VENDOR_ID.markup">[0][0][0][0]</property>
  <property name="meta.attr.0.stream.DURATION.markup">00:00:02.600000000</property>
  <property name="meta.media.1.stream.type">audio</property>
  <property name="meta.media.1.codec.sample_fmt">fltp</property>
  <property name="meta.media.1.codec.sample_rate">48000</property>
  <property name="meta.media.1.codec.channels">2</property>
  <property name="meta.media.1.codec.name">opus</property>
  <property name="meta.media.1.codec.long_name">Opus</property>
  <property name="meta.media.1.codec.bit_rate">0</property>
  <property name="meta.attr.1.stream.language.markup">eng</property>
  <property name="meta.attr.1.stream.DURATION.markup">00:00:02.621000000</property>
  <property name="meta.attr.COMPATIBLE_BRANDS.markup">iso6mp41</property>
  <property name="meta.attr.MAJOR_BRAND.markup">dash</property>
  <property name="meta.attr.MINOR_VERSION.markup">0</property>
  <property name="meta.attr.ENCODER.markup">Lavf59.27.100</property>
  <property name="meta.media.sample_aspect_num">1</property>
  <property name="meta.media.sample_aspect_den">1</property>
  <property name="meta.media.frame_rate_num">10</property>
  <property name="meta.media.frame_rate_den">1</property>
  <property name="meta.media.colorspace">601</property>
  <property name="meta.media.color_trc">2</property>
  <property name="meta.media.has_b_frames">0</property>
  <property name="meta.media.width">272</property>
  <property name="meta.media.height">60</property>
  <property name="meta.media.color_range">mpeg</property>
  <property name="xml">was here</property>
  <property name="meta.media.top_field_first">0</property>
  <property name="meta.media.progressive">1</property>
  <property name="set.test_image">0</property>
  <property name="mute_on_pause">1</property>
 </chain>
 <chain id="chain185" out="00:00:05.000">
  <property name="length">126</property>
  <property name="eof">pause</property>
  <property name="resource">animation/output/smiley-equation.mp4</property>
  <property name="mlt_service">avformat-novalidate</property>
  <property name="seekable">1</property>
  <property name="format">3</property>
  <property name="audio_index">-1</property>
  <property name="video_index">0</property>
  <property name="kdenlive:clipname"/>
  <property name="kdenlive:clip_type">2</property>
  <property name="kdenlive:folderid">-1</property>
  <property name="kdenlive:id">316</property>
  <property name="kdenlive:file_size">220157</property>
  <property name="kdenlive:file_hash">db316de4be3144c5f7b2681bbb79bc30</property>
  <property name="meta.media.nb_streams">1</property>
  <property name="meta.media.0.stream.type">video</property>
  <property name="meta.media.0.stream.frame_rate">60</property>
  <property name="meta.media.0.stream.sample_aspect_ratio">0</property>
  <property name="meta.media.0.codec.width">1920</property>
  <property name="meta.media.0.codec.height">1080</property>
  <property name="meta.media.0.codec.rotate">0</property>
  <property name="meta.media.0.codec.pix_fmt">yuv420p</property>
  <property name="meta.media.0.codec.sample_aspect_ratio">0</property>
  <property name="meta.media.0.codec.colorspace">709</property>
  <property name="meta.media.0.codec.name">h264</property>
  <property name="meta.media.0.codec.long_name">H.264 / AVC / MPEG-4 AVC / MPEG-4 part 10</property>
  <property name="meta.media.0.codec.bit_rate">342874</property>
  <property name="meta.attr.0.stream.handler_name.markup">VideoHandler</property>
  <property name="meta.attr.0.stream.vendor_id.markup">[0][0][0][0]</property>
  <property name="meta.attr.major_brand.markup">isom</property>
  <property name="meta.attr.minor_version.markup">512</property>
  <property name="meta.attr.compatible_brands.markup">isomiso2avc1mp41</property>
  <property name="meta.attr.encoder.markup">Lavf58.24.100</property>
  <property name="meta.media.sample_aspect_num">1</property>
  <property name="meta.media.sample_aspect_den">1</property>
  <property name="meta.media.frame_rate_num">60</property>
  <property name="meta.media.frame_rate_den">1</property>
  <property name="meta.media.colorspace">709</property>
  <property name="meta.media.color_trc">2</property>
  <property name="meta.media.has_b_frames">2</property>
  <property name="meta.media.width">1920</property>
  <property name="meta.media.height">1080</property>
  <property name="meta.media.color_range">mpeg</property>
  <property name="xml">was here</property>
  <property name="meta.media.top_field_first">0</property>
  <property name="meta.media.progressive">1</property>
  <property name="set.test_audio">1</property>
  <property name="set.test_image">0</property>
  <property name="mute_on_pause">1</property>
 </chain>
 <producer id="producer439" in="00:00:00.000" out="00:00:13.520">
  <property name="length">339</property>
  <property name="eof">pause</property>
  <property name="resource">2.000000:animation/output/copying-data.mp4</property>
  <property name="aspect_ratio">1</property>
  <property name="meta.media.nb_streams">1</property>
  <property name="meta.media.0.stream.type">video</property>
  <property name="meta.media.0.stream.frame_rate">60</property>
  <property name="meta.media.0.stream.sample_aspect_ratio">0</property>
  <property name="meta.media.0.codec.width">1920</property>
  <property name="meta.media.0.codec.height">1080</property>
  <property name="meta.media.0.codec.rotate">0</property>
  <property name="meta.media.0.codec.pix_fmt">yuv420p</property>
  <property name="meta.media.0.codec.sample_aspect_ratio">0</property>
  <property name="meta.media.0.codec.colorspace">709</property>
  <property name="meta.media.0.codec.name">h264</property>
  <property name="meta.media.0.codec.long_name">H.264 / AVC / MPEG-4 AVC / MPEG-4 part 10</property>
  <property name="meta.media.0.codec.bit_rate">214957</property>
  <property name="meta.attr.0.stream.handler_name.markup">VideoHandler</property>
  <property name="meta.attr.0.stream.vendor_id.markup">[0][0][0][0]</property>
  <property name="meta.attr.major_brand.markup">isom</property>
  <property name="meta.attr.minor_version.markup">512</property>
  <property name="meta.attr.compatible_brands.markup">isomiso2avc1mp41</property>
  <property name="meta.attr.encoder.markup">Lavf58.24.100</property>
  <property name="seekable">1</property>
  <property name="meta.media.sample_aspect_num">1</property>
  <property name="meta.media.sample_aspect_den">1</property>
  <property name="format">3</property>
  <property name="audio_index">-1</property>
  <property name="video_index">0</property>
  <property name="mute_on_pause">1</property>
  <property name="warp_speed">2</property>
  <property name="warp_resource">animation/output/copying-data.mp4</property>
  <property name="mlt_service">timewarp</property>
  <property name="set.test_audio">1</property>
  <property name="set.test_image">0</property>
  <property name="kdenlive:id">341</property>
  <property name="warp_pitch">0</property>
  <property name="meta.media.frame_rate_num">60</property>
  <property name="meta.media.frame_rate_den">1</property>
  <property name="meta.media.colorspace">709</property>
  <property name="meta.media.color_trc">2</property>
  <property name="meta.media.has_b_frames">2</property>
  <property name="meta.media.width">1920</property>
  <property name="meta.media.height">1080</property>
  <property name="meta.media.color_range">mpeg</property>
  <property name="meta.media.top_field_first">0</property>
  <property name="meta.media.progressive">1</property>
 </producer>
 <producer id="producer451" in="00:00:00.000" out="00:00:13.520">
  <property name="length">339</property>
  <property name="eof">pause</property>
  <property name="resource">2.000000:animation/output/copying-data.mp4</property>
  <property name="aspect_ratio">1</property>
  <property name="meta.media.nb_streams">1</property>
  <property name="meta.media.0.stream.type">video</property>
  <property name="meta.media.0.stream.frame_rate">60</property>
  <property name="meta.media.0.stream.sample_aspect_ratio">0</property>
  <property name="meta.media.0.codec.width">1920</property>
  <property name="meta.media.0.codec.height">1080</property>
  <property name="meta.media.0.codec.rotate">0</property>
  <property name="meta.media.0.codec.pix_fmt">yuv420p</property>
  <property name="meta.media.0.codec.sample_aspect_ratio">0</property>
  <property name="meta.media.0.codec.colorspace">709</property>
  <property name="meta.media.0.codec.name">h264</property>
  <property name="meta.media.0.codec.long_name">H.264 / AVC / MPEG-4 AVC / MPEG-4 part 10</property>
  <property name="meta.media.0.codec.bit_rate">214957</property>
  <property name="meta.attr.0.stream.handler_name.markup">VideoHandler</property>
  <property name="meta.attr.0.stream.vendor_id.markup">[0][0][0][0]</property>
  <property name="meta.attr.major_brand.markup">isom</property>
  <property name="meta.attr.minor_version.markup">512</property>
  <property name="meta.attr.compatible_brands.markup">isomiso2avc1mp41</property>
  <property name="meta.attr.encoder.markup">Lavf58.24.100</property>
  <property name="seekable">1</property>
  <property name="meta.media.sample_aspect_num">1</property>
  <property name="meta.media.sample_aspect_den">1</property>
  <property name="format">3</property>
  <property name="audio_index">-1</property>
  <property name="video_index">0</property>
  <property name="mute_on_pause">1</property>
  <property name="warp_speed">2</property>
  <property name="warp_resource">animation/output/copying-data.mp4</property>
  <property name="mlt_service">timewarp</property>
  <property name="set.test_audio">1</property>
  <property name="set.test_image">0</property>
  <property name="kdenlive:id">341</property>
  <property name="warp_pitch">0</property>
  <property name="meta.media.frame_rate_num">60</property>
  <property name="meta.media.frame_rate_den">1</property>
  <property name="meta.media.colorspace">709</property>
  <property name="meta.media.color_trc">2</property>
  <property name="meta.media.has_b_frames">2</property>
  <property name="meta.media.width">1920</property>
  <property name="meta.media.height">1080</property>
  <property name="meta.media.color_range">mpeg</property>
  <property name="meta.media.top_field_first">0</property>
  <property name="meta.media.progressive">1</property>
 </producer>
 <chain id="chain186" out="00:00:45.440">
  <property name="length">1137</property>
  <property name="eof">pause</property>
  <property name="resource">animation/output/network.mp4</property>
  <property name="mlt_service">avformat-novalidate</property>
  <property name="seekable">1</property>
  <property name="format">3</property>
  <property name="audio_index">-1</property>
  <property name="video_index">0</property>
  <property name="kdenlive:clipname"/>
  <property name="kdenlive:clip_type">2</property>
  <property name="kdenlive:folderid">218</property>
  <property name="kdenlive:id">342</property>
  <property name="kdenlive:file_size">2031058</property>
  <property name="kdenlive:file_hash">bdab92c72b08cc7ef26a05a7f933fc5e</property>
  <property name="meta.media.nb_streams">1</property>
  <property name="meta.media.0.stream.type">video</property>
  <property name="meta.media.0.stream.frame_rate">60</property>
  <property name="meta.media.0.stream.sample_aspect_ratio">0</property>
  <property name="meta.media.0.codec.width">1920</property>
  <property name="meta.media.0.codec.height">1080</property>
  <property name="meta.media.0.codec.rotate">0</property>
  <property name="meta.media.0.codec.pix_fmt">yuv420p</property>
  <property name="meta.media.0.codec.sample_aspect_ratio">0</property>
  <property name="meta.media.0.codec.colorspace">709</property>
  <property name="meta.media.0.codec.name">h264</property>
  <property name="meta.media.0.codec.long_name">H.264 / AVC / MPEG-4 AVC / MPEG-4 part 10</property>
  <property name="meta.media.0.codec.bit_rate">351494</property>
  <property name="meta.attr.0.stream.handler_name.markup">VideoHandler</property>
  <property name="meta.attr.0.stream.vendor_id.markup">[0][0][0][0]</property>
  <property name="meta.attr.major_brand.markup">isom</property>
  <property name="meta.attr.minor_version.markup">512</property>
  <property name="meta.attr.compatible_brands.markup">isomiso2avc1mp41</property>
  <property name="meta.attr.encoder.markup">Lavf58.24.100</property>
  <property name="meta.media.sample_aspect_num">1</property>
  <property name="meta.media.sample_aspect_den">1</property>
  <property name="meta.media.frame_rate_num">60</property>
  <property name="meta.media.frame_rate_den">1</property>
  <property name="meta.media.colorspace">709</property>
  <property name="meta.media.color_trc">2</property>
  <property name="meta.media.has_b_frames">2</property>
  <property name="meta.media.width">1920</property>
  <property name="meta.media.height">1080</property>
  <property name="meta.media.color_range">mpeg</property>
  <property name="xml">was here</property>
  <property name="meta.media.top_field_first">0</property>
  <property name="meta.media.progressive">1</property>
  <property name="set.test_audio">1</property>
  <property name="set.test_image">0</property>
  <property name="mute_on_pause">1</property>
 </chain>
 <producer id="producer550" in="00:00:00.000" out="00:00:13.520">
  <property name="length">339</property>
  <property name="eof">pause</property>
  <property name="resource">2.000000:animation/output/copying-data.mp4</property>
  <property name="aspect_ratio">1</property>
  <property name="meta.media.nb_streams">1</property>
  <property name="meta.media.0.stream.type">video</property>
  <property name="meta.media.0.stream.frame_rate">60</property>
  <property name="meta.media.0.stream.sample_aspect_ratio">0</property>
  <property name="meta.media.0.codec.width">1920</property>
  <property name="meta.media.0.codec.height">1080</property>
  <property name="meta.media.0.codec.rotate">0</property>
  <property name="meta.media.0.codec.pix_fmt">yuv420p</property>
  <property name="meta.media.0.codec.sample_aspect_ratio">0</property>
  <property name="meta.media.0.codec.colorspace">709</property>
  <property name="meta.media.0.codec.name">h264</property>
  <property name="meta.media.0.codec.long_name">H.264 / AVC / MPEG-4 AVC / MPEG-4 part 10</property>
  <property name="meta.media.0.codec.bit_rate">214957</property>
  <property name="meta.attr.0.stream.handler_name.markup">VideoHandler</property>
  <property name="meta.attr.0.stream.vendor_id.markup">[0][0][0][0]</property>
  <property name="meta.attr.major_brand.markup">isom</property>
  <property name="meta.attr.minor_version.markup">512</property>
  <property name="meta.attr.compatible_brands.markup">isomiso2avc1mp41</property>
  <property name="meta.attr.encoder.markup">Lavf58.24.100</property>
  <property name="seekable">1</property>
  <property name="meta.media.sample_aspect_num">1</property>
  <property name="meta.media.sample_aspect_den">1</property>
  <property name="format">3</property>
  <property name="audio_index">-1</property>
  <property name="video_index">0</property>
  <property name="mute_on_pause">1</property>
  <property name="warp_speed">2</property>
  <property name="warp_resource">animation/output/copying-data.mp4</property>
  <property name="mlt_service">timewarp</property>
  <property name="set.test_audio">1</property>
  <property name="set.test_image">0</property>
  <property name="kdenlive:id">341</property>
  <property name="warp_pitch">0</property>
  <property name="meta.media.frame_rate_num">60</property>
  <property name="meta.media.frame_rate_den">1</property>
  <property name="meta.media.colorspace">709</property>
  <property name="meta.media.color_trc">2</property>
  <property name="meta.media.has_b_frames">2</property>
  <property name="meta.media.width">1920</property>
  <property name="meta.media.height">1080</property>
  <property name="meta.media.color_range">mpeg</property>
  <property name="meta.media.top_field_first">0</property>
  <property name="meta.media.progressive">1</property>
 </producer>
 <producer id="producer551" in="00:00:00.000" out="00:00:13.520">
  <property name="length">339</property>
  <property name="eof">pause</property>
  <property name="resource">2.000000:animation/output/copying-data.mp4</property>
  <property name="aspect_ratio">1</property>
  <property name="meta.media.nb_streams">1</property>
  <property name="meta.media.0.stream.type">video</property>
  <property name="meta.media.0.stream.frame_rate">60</property>
  <property name="meta.media.0.stream.sample_aspect_ratio">0</property>
  <property name="meta.media.0.codec.width">1920</property>
  <property name="meta.media.0.codec.height">1080</property>
  <property name="meta.media.0.codec.rotate">0</property>
  <property name="meta.media.0.codec.pix_fmt">yuv420p</property>
  <property name="meta.media.0.codec.sample_aspect_ratio">0</property>
  <property name="meta.media.0.codec.colorspace">709</property>
  <property name="meta.media.0.codec.name">h264</property>
  <property name="meta.media.0.codec.long_name">H.264 / AVC / MPEG-4 AVC / MPEG-4 part 10</property>
  <property name="meta.media.0.codec.bit_rate">214957</property>
  <property name="meta.attr.0.stream.handler_name.markup">VideoHandler</property>
  <property name="meta.attr.0.stream.vendor_id.markup">[0][0][0][0]</property>
  <property name="meta.attr.major_brand.markup">isom</property>
  <property name="meta.attr.minor_version.markup">512</property>
  <property name="meta.attr.compatible_brands.markup">isomiso2avc1mp41</property>
  <property name="meta.attr.encoder.markup">Lavf58.24.100</property>
  <property name="seekable">1</property>
  <property name="meta.media.sample_aspect_num">1</property>
  <property name="meta.media.sample_aspect_den">1</property>
  <property name="format">3</property>
  <property name="audio_index">-1</property>
  <property name="video_index">0</property>
  <property name="mute_on_pause">1</property>
  <property name="warp_speed">2</property>
  <property name="warp_resource">animation/output/copying-data.mp4</property>
  <property name="mlt_service">timewarp</property>
  <property name="set.test_audio">1</property>
  <property name="set.test_image">0</property>
  <property name="kdenlive:id">341</property>
  <property name="warp_pitch">0</property>
  <property name="meta.media.frame_rate_num">60</property>
  <property name="meta.media.frame_rate_den">1</property>
  <property name="meta.media.colorspace">709</property>
  <property name="meta.media.color_trc">2</property>
  <property name="meta.media.has_b_frames">2</property>
  <property name="meta.media.width">1920</property>
  <property name="meta.media.height">1080</property>
  <property name="meta.media.color_range">mpeg</property>
  <property name="meta.media.top_field_first">0</property>
  <property name="meta.media.progressive">1</property>
 </producer>
 <chain id="chain187" out="00:00:49.840">
  <property name="length">1247</property>
  <property name="eof">pause</property>
  <property name="resource">videos/midjourney-spiral.mkv</property>
  <property name="mlt_service">avformat-novalidate</property>
  <property name="seekable">1</property>
  <property name="format">3</property>
  <property name="audio_index">-1</property>
  <property name="video_index">0</property>
  <property name="kdenlive:clipname"/>
  <property name="kdenlive:clip_type">0</property>
  <property name="kdenlive:folderid">-1</property>
  <property name="kdenlive:id">357</property>
  <property name="kdenlive:file_size">60083409</property>
  <property name="kdenlive:file_hash">272f2092c4825870e4f82e45930fefd7</property>
  <property name="kdenlive:audio_max1">1</property>
  <property name="kdenlive:active_streams">-1</property>
  <property name="set.test_audio">1</property>
  <property name="meta.media.nb_streams">2</property>
  <property name="meta.media.0.stream.type">video</property>
  <property name="meta.media.0.stream.frame_rate">60</property>
  <property name="meta.media.0.stream.sample_aspect_ratio">0</property>
  <property name="meta.media.0.codec.width">1920</property>
  <property name="meta.media.0.codec.height">1080</property>
  <property name="meta.media.0.codec.rotate">0</property>
  <property name="meta.media.0.codec.pix_fmt">yuv420p</property>
  <property name="meta.media.0.codec.sample_aspect_ratio">1</property>
  <property name="meta.media.0.codec.colorspace">709</property>
  <property name="meta.media.0.codec.color_trc">1</property>
  <property name="meta.media.0.codec.name">h264</property>
  <property name="meta.media.0.codec.long_name">H.264 / AVC / MPEG-4 AVC / MPEG-4 part 10</property>
  <property name="meta.media.0.codec.bit_rate">0</property>
  <property name="meta.attr.0.stream.DURATION.markup">00:00:49.867000000</property>
  <property name="meta.media.1.stream.type">audio</property>
  <property name="meta.media.1.codec.sample_fmt">fltp</property>
  <property name="meta.media.1.codec.sample_rate">48000</property>
  <property name="meta.media.1.codec.channels">2</property>
  <property name="meta.media.1.codec.name">aac</property>
  <property name="meta.media.1.codec.long_name">AAC (Advanced Audio Coding)</property>
  <property name="meta.media.1.codec.bit_rate">0</property>
  <property name="meta.attr.1.stream.title.markup">simple_aac_recording</property>
  <property name="meta.attr.1.stream.DURATION.markup">00:00:49.813000000</property>
  <property name="meta.attr.ENCODER.markup">Lavf59.27.100</property>
  <property name="meta.media.sample_aspect_num">1</property>
  <property name="meta.media.sample_aspect_den">1</property>
  <property name="meta.media.frame_rate_num">60</property>
  <property name="meta.media.frame_rate_den">1</property>
  <property name="meta.media.colorspace">709</property>
  <property name="meta.media.color_trc">1</property>
  <property name="meta.media.has_b_frames">2</property>
  <property name="meta.media.width">1920</property>
  <property name="meta.media.height">1080</property>
  <property name="meta.media.color_range">mpeg</property>
  <property name="xml">was here</property>
  <property name="meta.media.top_field_first">0</property>
  <property name="meta.media.progressive">1</property>
  <property name="set.test_image">0</property>
  <property name="mute_on_pause">1</property>
 </chain>
 <producer id="producer553" in="00:00:00.000" out="00:00:11.400">
  <property name="length">286</property>
  <property name="eof">pause</property>
  <property name="resource">1.500000:videos/search for orc.mkv</property>
  <property name="aspect_ratio">1</property>
  <property name="meta.media.nb_streams">2</property>
  <property name="meta.media.0.stream.type">video</property>
  <property name="meta.media.0.stream.frame_rate">60</property>
  <property name="meta.media.0.stream.sample_aspect_ratio">0</property>
  <property name="meta.media.0.codec.width">1920</property>
  <property name="meta.media.0.codec.height">1080</property>
  <property name="meta.media.0.codec.rotate">0</property>
  <property name="meta.media.0.codec.pix_fmt">yuv420p</property>
  <property name="meta.media.0.codec.sample_aspect_ratio">1</property>
  <property name="meta.media.0.codec.colorspace">709</property>
  <property name="meta.media.0.codec.color_trc">1</property>
  <property name="meta.media.0.codec.name">h264</property>
  <property name="meta.media.0.codec.long_name">H.264 / AVC / MPEG-4 AVC / MPEG-4 part 10</property>
  <property name="meta.media.0.codec.bit_rate">0</property>
  <property name="meta.attr.0.stream.DURATION.markup">00:00:17.150000000</property>
  <property name="meta.media.1.stream.type">audio</property>
  <property name="meta.media.1.codec.sample_fmt">fltp</property>
  <property name="meta.media.1.codec.sample_rate">48000</property>
  <property name="meta.media.1.codec.channels">1</property>
  <property name="meta.media.1.codec.name">aac</property>
  <property name="meta.media.1.codec.long_name">AAC (Advanced Audio Coding)</property>
  <property name="meta.media.1.codec.bit_rate">0</property>
  <property name="meta.attr.1.stream.title.markup">simple_aac_recording</property>
  <property name="meta.attr.1.stream.DURATION.markup">00:00:17.130000000</property>
  <property name="meta.attr.ENCODER.markup">Lavf59.27.100</property>
  <property name="seekable">1</property>
  <property name="meta.media.sample_aspect_num">1</property>
  <property name="meta.media.sample_aspect_den">1</property>
  <property name="format">3</property>
  <property name="audio_index">-1</property>
  <property name="video_index">0</property>
  <property name="mute_on_pause">1</property>
  <property name="warp_speed">1.5</property>
  <property name="warp_resource">videos/search for orc.mkv</property>
  <property name="mlt_service">timewarp</property>
  <property name="set.test_audio">1</property>
  <property name="set.test_image">0</property>
  <property name="kdenlive:id">266</property>
  <property name="warp_pitch">0</property>
  <property name="meta.media.frame_rate_num">60</property>
  <property name="meta.media.frame_rate_den">1</property>
  <property name="meta.media.colorspace">709</property>
  <property name="meta.media.color_trc">1</property>
  <property name="meta.media.has_b_frames">2</property>
  <property name="meta.media.width">1920</property>
  <property name="meta.media.height">1080</property>
  <property name="meta.media.color_range">mpeg</property>
  <property name="meta.media.top_field_first">0</property>
  <property name="meta.media.progressive">1</property>
 </producer>
 <chain id="chain188" out="00:00:20.360">
  <property name="length">510</property>
  <property name="eof">pause</property>
  <property name="resource">animation/output/motte-bailey-plagiarism/motte-bailey-plagiarism.mp4</property>
  <property name="mlt_service">avformat-novalidate</property>
  <property name="seekable">1</property>
  <property name="format">3</property>
  <property name="audio_index">1</property>
  <property name="video_index">0</property>
  <property name="kdenlive:clipname"/>
  <property name="kdenlive:clip_type">0</property>
  <property name="kdenlive:folderid">-1</property>
  <property name="kdenlive:id">385</property>
  <property name="kdenlive:file_size">3947896</property>
  <property name="kdenlive:file_hash">183b5aba5ead6dfeda3bcba25045ba5d</property>
  <property name="kdenlive:audio_max1">1</property>
  <property name="meta.media.nb_streams">2</property>
  <property name="meta.media.0.stream.type">video</property>
  <property name="meta.media.0.stream.frame_rate">25</property>
  <property name="meta.media.0.stream.sample_aspect_ratio">1</property>
  <property name="meta.media.0.codec.width">1920</property>
  <property name="meta.media.0.codec.height">1080</property>
  <property name="meta.media.0.codec.rotate">0</property>
  <property name="meta.media.0.codec.pix_fmt">yuv420p</property>
  <property name="meta.media.0.codec.sample_aspect_ratio">1</property>
  <property name="meta.media.0.codec.colorspace">709</property>
  <property name="meta.media.0.codec.color_trc">1</property>
  <property name="meta.media.0.codec.name">h264</property>
  <property name="meta.media.0.codec.long_name">H.264 / AVC / MPEG-4 AVC / MPEG-4 part 10</property>
  <property name="meta.media.0.codec.bit_rate">1539224</property>
  <property name="meta.attr.0.stream.handler_name.markup">VideoHandler</property>
  <property name="meta.attr.0.stream.vendor_id.markup">[0][0][0][0]</property>
  <property name="meta.media.1.stream.type">audio</property>
  <property name="meta.media.1.codec.sample_fmt">fltp</property>
  <property name="meta.media.1.codec.sample_rate">48000</property>
  <property name="meta.media.1.codec.channels">2</property>
  <property name="meta.media.1.codec.name">aac</property>
  <property name="meta.media.1.codec.long_name">AAC (Advanced Audio Coding)</property>
  <property name="meta.media.1.codec.bit_rate">2276</property>
  <property name="meta.attr.1.stream.handler_name.markup">SoundHandler</property>
  <property name="meta.attr.1.stream.vendor_id.markup">[0][0][0][0]</property>
  <property name="meta.attr.major_brand.markup">isom</property>
  <property name="meta.attr.minor_version.markup">512</property>
  <property name="meta.attr.compatible_brands.markup">isomiso2avc1mp41</property>
  <property name="meta.attr.encoder.markup">Lavf59.27.100</property>
  <property name="meta.media.sample_aspect_num">1</property>
  <property name="meta.media.sample_aspect_den">1</property>
  <property name="meta.media.frame_rate_num">25</property>
  <property name="meta.media.frame_rate_den">1</property>
  <property name="meta.media.colorspace">709</property>
  <property name="meta.media.color_trc">1</property>
  <property name="meta.media.has_b_frames">2</property>
  <property name="meta.media.width">1920</property>
  <property name="meta.media.height">1080</property>
  <property name="meta.media.color_range">mpeg</property>
  <property name="xml">was here</property>
  <property name="meta.media.top_field_first">0</property>
  <property name="meta.media.progressive">1</property>
  <property name="set.test_audio">1</property>
  <property name="set.test_image">0</property>
  <property name="mute_on_pause">1</property>
 </chain>
 <chain id="chain193" out="00:00:20.720">
  <property name="length">519</property>
  <property name="eof">pause</property>
  <property name="resource">animation/output/zapata-argument.mp4</property>
  <property name="mlt_service">avformat-novalidate</property>
  <property name="seekable">1</property>
  <property name="format">3</property>
  <property name="audio_index">-1</property>
  <property name="video_index">0</property>
  <property name="kdenlive:clipname"/>
  <property name="kdenlive:clip_type">2</property>
  <property name="kdenlive:folderid">218</property>
  <property name="kdenlive:id">403</property>
  <property name="kdenlive:file_size">1157352</property>
  <property name="kdenlive:file_hash">a97ecac66f4a455dde92beba3f742f04</property>
  <property name="meta.media.nb_streams">1</property>
  <property name="meta.media.0.stream.type">video</property>
  <property name="meta.media.0.stream.frame_rate">60</property>
  <property name="meta.media.0.stream.sample_aspect_ratio">0</property>
  <property name="meta.media.0.codec.width">1920</property>
  <property name="meta.media.0.codec.height">1080</property>
  <property name="meta.media.0.codec.rotate">0</property>
  <property name="meta.media.0.codec.pix_fmt">yuv420p</property>
  <property name="meta.media.0.codec.sample_aspect_ratio">0</property>
  <property name="meta.media.0.codec.colorspace">709</property>
  <property name="meta.media.0.codec.name">h264</property>
  <property name="meta.media.0.codec.long_name">H.264 / AVC / MPEG-4 AVC / MPEG-4 part 10</property>
  <property name="meta.media.0.codec.bit_rate">439852</property>
  <property name="meta.attr.0.stream.handler_name.markup">VideoHandler</property>
  <property name="meta.attr.0.stream.vendor_id.markup">[0][0][0][0]</property>
  <property name="meta.attr.major_brand.markup">isom</property>
  <property name="meta.attr.minor_version.markup">512</property>
  <property name="meta.attr.compatible_brands.markup">isomiso2avc1mp41</property>
  <property name="meta.attr.encoder.markup">Lavf58.24.100</property>
  <property name="meta.media.sample_aspect_num">1</property>
  <property name="meta.media.sample_aspect_den">1</property>
  <property name="meta.media.frame_rate_num">60</property>
  <property name="meta.media.frame_rate_den">1</property>
  <property name="meta.media.colorspace">709</property>
  <property name="meta.media.color_trc">2</property>
  <property name="meta.media.has_b_frames">2</property>
  <property name="meta.media.width">1920</property>
  <property name="meta.media.height">1080</property>
  <property name="meta.media.color_range">mpeg</property>
  <property name="xml">was here</property>
  <property name="meta.media.top_field_first">0</property>
  <property name="meta.media.progressive">1</property>
  <property name="set.test_audio">1</property>
  <property name="set.test_image">0</property>
  <property name="mute_on_pause">1</property>
 </chain>
 <chain id="chain194" out="00:00:17.560">
  <property name="length">440</property>
  <property name="eof">pause</property>
  <property name="resource">animation/output/actual-potential.mp4</property>
  <property name="mlt_service">avformat-novalidate</property>
  <property name="seekable">1</property>
  <property name="format">3</property>
  <property name="audio_index">-1</property>
  <property name="video_index">0</property>
  <property name="kdenlive:clipname"/>
  <property name="kdenlive:clip_type">2</property>
  <property name="kdenlive:folderid">218</property>
  <property name="kdenlive:id">411</property>
  <property name="kdenlive:file_size">369433</property>
  <property name="kdenlive:file_hash">37aa4a7d94ef2f8d5799c05438f074f6</property>
  <property name="meta.media.nb_streams">1</property>
  <property name="meta.media.0.stream.type">video</property>
  <property name="meta.media.0.stream.frame_rate">60</property>
  <property name="meta.media.0.stream.sample_aspect_ratio">0</property>
  <property name="meta.media.0.codec.width">1920</property>
  <property name="meta.media.0.codec.height">1080</property>
  <property name="meta.media.0.codec.rotate">0</property>
  <property name="meta.media.0.codec.pix_fmt">yuv420p</property>
  <property name="meta.media.0.codec.sample_aspect_ratio">0</property>
  <property name="meta.media.0.codec.colorspace">709</property>
  <property name="meta.media.0.codec.name">h264</property>
  <property name="meta.media.0.codec.long_name">H.264 / AVC / MPEG-4 AVC / MPEG-4 part 10</property>
  <property name="meta.media.0.codec.bit_rate">162605</property>
  <property name="meta.attr.0.stream.handler_name.markup">VideoHandler</property>
  <property name="meta.attr.0.stream.vendor_id.markup">[0][0][0][0]</property>
  <property name="meta.attr.major_brand.markup">isom</property>
  <property name="meta.attr.minor_version.markup">512</property>
  <property name="meta.attr.compatible_brands.markup">isomiso2avc1mp41</property>
  <property name="meta.attr.encoder.markup">Lavf58.24.100</property>
  <property name="meta.media.sample_aspect_num">1</property>
  <property name="meta.media.sample_aspect_den">1</property>
  <property name="meta.media.frame_rate_num">60</property>
  <property name="meta.media.frame_rate_den">1</property>
  <property name="meta.media.colorspace">709</property>
  <property name="meta.media.color_trc">2</property>
  <property name="meta.media.has_b_frames">2</property>
  <property name="meta.media.width">1920</property>
  <property name="meta.media.height">1080</property>
  <property name="meta.media.color_range">mpeg</property>
  <property name="xml">was here</property>
  <property name="meta.media.top_field_first">0</property>
  <property name="meta.media.progressive">1</property>
  <property name="set.test_audio">1</property>
  <property name="set.test_image">0</property>
  <property name="mute_on_pause">1</property>
 </chain>
 <chain id="chain195" out="00:00:10.360">
  <property name="length">260</property>
  <property name="eof">pause</property>
  <property name="resource">animation/output/zeno.mp4</property>
  <property name="mlt_service">avformat-novalidate</property>
  <property name="seekable">1</property>
  <property name="format">3</property>
  <property name="audio_index">-1</property>
  <property name="video_index">0</property>
  <property name="kdenlive:clipname"/>
  <property name="kdenlive:clip_type">2</property>
  <property name="kdenlive:folderid">218</property>
  <property name="kdenlive:id">414</property>
  <property name="kdenlive:file_size">461869</property>
  <property name="kdenlive:file_hash">23c1c423efeb8fe3df35d70879a4c270</property>
  <property name="meta.media.nb_streams">1</property>
  <property name="meta.media.0.stream.type">video</property>
  <property name="meta.media.0.stream.frame_rate">60</property>
  <property name="meta.media.0.stream.sample_aspect_ratio">0</property>
  <property name="meta.media.0.codec.width">1920</property>
  <property name="meta.media.0.codec.height">1080</property>
  <property name="meta.media.0.codec.rotate">0</property>
  <property name="meta.media.0.codec.pix_fmt">yuv420p</property>
  <property name="meta.media.0.codec.sample_aspect_ratio">0</property>
  <property name="meta.media.0.codec.colorspace">709</property>
  <property name="meta.media.0.codec.name">h264</property>
  <property name="meta.media.0.codec.long_name">H.264 / AVC / MPEG-4 AVC / MPEG-4 part 10</property>
  <property name="meta.media.0.codec.bit_rate">348534</property>
  <property name="meta.attr.0.stream.handler_name.markup">VideoHandler</property>
  <property name="meta.attr.0.stream.vendor_id.markup">[0][0][0][0]</property>
  <property name="meta.attr.major_brand.markup">isom</property>
  <property name="meta.attr.minor_version.markup">512</property>
  <property name="meta.attr.compatible_brands.markup">isomiso2avc1mp41</property>
  <property name="meta.attr.encoder.markup">Lavf58.24.100</property>
  <property name="meta.media.sample_aspect_num">1</property>
  <property name="meta.media.sample_aspect_den">1</property>
  <property name="meta.media.frame_rate_num">60</property>
  <property name="meta.media.frame_rate_den">1</property>
  <property name="meta.media.colorspace">709</property>
  <property name="meta.media.color_trc">2</property>
  <property name="meta.media.has_b_frames">2</property>
  <property name="meta.media.width">1920</property>
  <property name="meta.media.height">1080</property>
  <property name="meta.media.color_range">mpeg</property>
  <property name="xml">was here</property>
  <property name="meta.media.top_field_first">0</property>
  <property name="meta.media.progressive">1</property>
  <property name="set.test_audio">1</property>
  <property name="set.test_image">0</property>
  <property name="mute_on_pause">1</property>
 </chain>
 <chain id="chain196" out="00:00:08.160">
  <property name="length">205</property>
  <property name="eof">pause</property>
  <property name="resource">animation/output/subdivided-line.mp4</property>
  <property name="mlt_service">avformat-novalidate</property>
  <property name="seekable">1</property>
  <property name="format">3</property>
  <property name="audio_index">-1</property>
  <property name="video_index">0</property>
  <property name="kdenlive:clipname"/>
  <property name="kdenlive:clip_type">2</property>
  <property name="kdenlive:folderid">-1</property>
  <property name="kdenlive:id">416</property>
  <property name="kdenlive:file_size">259948</property>
  <property name="kdenlive:file_hash">f2cad2893d828a230e076d0cc7bff19a</property>
  <property name="meta.media.nb_streams">1</property>
  <property name="meta.media.0.stream.type">video</property>
  <property name="meta.media.0.stream.frame_rate">60</property>
  <property name="meta.media.0.stream.sample_aspect_ratio">0</property>
  <property name="meta.media.0.codec.width">1920</property>
  <property name="meta.media.0.codec.height">1080</property>
  <property name="meta.media.0.codec.rotate">0</property>
  <property name="meta.media.0.codec.pix_fmt">yuv420p</property>
  <property name="meta.media.0.codec.sample_aspect_ratio">0</property>
  <property name="meta.media.0.codec.colorspace">709</property>
  <property name="meta.media.0.codec.name">h264</property>
  <property name="meta.media.0.codec.long_name">H.264 / AVC / MPEG-4 AVC / MPEG-4 part 10</property>
  <property name="meta.media.0.codec.bit_rate">247111</property>
  <property name="meta.attr.0.stream.handler_name.markup">VideoHandler</property>
  <property name="meta.attr.0.stream.vendor_id.markup">[0][0][0][0]</property>
  <property name="meta.attr.major_brand.markup">isom</property>
  <property name="meta.attr.minor_version.markup">512</property>
  <property name="meta.attr.compatible_brands.markup">isomiso2avc1mp41</property>
  <property name="meta.attr.encoder.markup">Lavf58.24.100</property>
  <property name="meta.media.sample_aspect_num">1</property>
  <property name="meta.media.sample_aspect_den">1</property>
  <property name="meta.media.frame_rate_num">60</property>
  <property name="meta.media.frame_rate_den">1</property>
  <property name="meta.media.colorspace">709</property>
  <property name="meta.media.color_trc">2</property>
  <property name="meta.media.has_b_frames">2</property>
  <property name="meta.media.width">1920</property>
  <property name="meta.media.height">1080</property>
  <property name="meta.media.color_range">mpeg</property>
  <property name="xml">was here</property>
  <property name="meta.media.top_field_first">0</property>
  <property name="meta.media.progressive">1</property>
  <property name="set.test_audio">1</property>
  <property name="set.test_image">0</property>
  <property name="mute_on_pause">1</property>
 </chain>
 <chain id="chain197" out="00:00:25.640">
  <property name="length">642</property>
  <property name="eof">pause</property>
  <property name="resource">animation/output/listing-fractions.mp4</property>
  <property name="mlt_service">avformat-novalidate</property>
  <property name="seekable">1</property>
  <property name="format">3</property>
  <property name="audio_index">-1</property>
  <property name="video_index">0</property>
  <property name="kdenlive:clipname"/>
  <property name="kdenlive:clip_type">2</property>
  <property name="kdenlive:folderid">-1</property>
  <property name="kdenlive:id">417</property>
  <property name="kdenlive:file_size">3673967</property>
  <property name="kdenlive:file_hash">b43724c4456552f2b400c9ef1185116a</property>
  <property name="meta.media.nb_streams">1</property>
  <property name="meta.media.0.stream.type">video</property>
  <property name="meta.media.0.stream.frame_rate">60</property>
  <property name="meta.media.0.stream.sample_aspect_ratio">0</property>
  <property name="meta.media.0.codec.width">1920</property>
  <property name="meta.media.0.codec.height">1080</property>
  <property name="meta.media.0.codec.rotate">0</property>
  <property name="meta.media.0.codec.pix_fmt">yuv420p</property>
  <property name="meta.media.0.codec.sample_aspect_ratio">0</property>
  <property name="meta.media.0.codec.colorspace">709</property>
  <property name="meta.media.0.codec.name">h264</property>
  <property name="meta.media.0.codec.long_name">H.264 / AVC / MPEG-4 AVC / MPEG-4 part 10</property>
  <property name="meta.media.0.codec.bit_rate">1140279</property>
  <property name="meta.attr.0.stream.handler_name.markup">VideoHandler</property>
  <property name="meta.attr.0.stream.vendor_id.markup">[0][0][0][0]</property>
  <property name="meta.attr.major_brand.markup">isom</property>
  <property name="meta.attr.minor_version.markup">512</property>
  <property name="meta.attr.compatible_brands.markup">isomiso2avc1mp41</property>
  <property name="meta.attr.encoder.markup">Lavf58.24.100</property>
  <property name="meta.media.sample_aspect_num">1</property>
  <property name="meta.media.sample_aspect_den">1</property>
  <property name="meta.media.frame_rate_num">60</property>
  <property name="meta.media.frame_rate_den">1</property>
  <property name="meta.media.colorspace">709</property>
  <property name="meta.media.color_trc">2</property>
  <property name="meta.media.has_b_frames">2</property>
  <property name="meta.media.width">1920</property>
  <property name="meta.media.height">1080</property>
  <property name="meta.media.color_range">mpeg</property>
  <property name="xml">was here</property>
  <property name="meta.media.top_field_first">0</property>
  <property name="meta.media.progressive">1</property>
  <property name="set.test_audio">1</property>
  <property name="set.test_image">0</property>
  <property name="mute_on_pause">1</property>
 </chain>
 <chain id="chain198" out="00:00:15.000">
  <property name="length">376</property>
  <property name="eof">pause</property>
  <property name="resource">animation/output/babel.mp4</property>
  <property name="mlt_service">avformat-novalidate</property>
  <property name="seekable">1</property>
  <property name="format">3</property>
  <property name="audio_index">-1</property>
  <property name="video_index">0</property>
  <property name="kdenlive:clipname"/>
  <property name="kdenlive:clip_type">2</property>
  <property name="kdenlive:folderid">-1</property>
  <property name="kdenlive:id">418</property>
  <property name="kdenlive:file_size">40955100</property>
  <property name="kdenlive:file_hash">363f6235693c92bd79a0ee524a27ecf7</property>
  <property name="meta.media.nb_streams">1</property>
  <property name="meta.media.0.stream.type">video</property>
  <property name="meta.media.0.stream.frame_rate">30</property>
  <property name="meta.media.0.stream.sample_aspect_ratio">0</property>
  <property name="meta.media.0.codec.width">1920</property>
  <property name="meta.media.0.codec.height">1080</property>
  <property name="meta.media.0.codec.rotate">0</property>
  <property name="meta.media.0.codec.pix_fmt">yuv420p</property>
  <property name="meta.media.0.codec.sample_aspect_ratio">0</property>
  <property name="meta.media.0.codec.colorspace">709</property>
  <property name="meta.media.0.codec.name">h264</property>
  <property name="meta.media.0.codec.long_name">H.264 / AVC / MPEG-4 AVC / MPEG-4 part 10</property>
  <property name="meta.media.0.codec.bit_rate">21791929</property>
  <property name="meta.attr.0.stream.handler_name.markup">VideoHandler</property>
  <property name="meta.attr.0.stream.vendor_id.markup">[0][0][0][0]</property>
  <property name="meta.attr.major_brand.markup">isom</property>
  <property name="meta.attr.minor_version.markup">512</property>
  <property name="meta.attr.compatible_brands.markup">isomiso2avc1mp41</property>
  <property name="meta.attr.encoder.markup">Lavf58.24.100</property>
  <property name="meta.media.sample_aspect_num">1</property>
  <property name="meta.media.sample_aspect_den">1</property>
  <property name="meta.media.frame_rate_num">30</property>
  <property name="meta.media.frame_rate_den">1</property>
  <property name="meta.media.colorspace">709</property>
  <property name="meta.media.color_trc">2</property>
  <property name="meta.media.has_b_frames">2</property>
  <property name="meta.media.width">1920</property>
  <property name="meta.media.height">1080</property>
  <property name="meta.media.color_range">mpeg</property>
  <property name="xml">was here</property>
  <property name="meta.media.top_field_first">0</property>
  <property name="meta.media.progressive">1</property>
  <property name="set.test_audio">1</property>
  <property name="set.test_image">0</property>
  <property name="mute_on_pause">1</property>
 </chain>
 <chain id="chain199" out="01:47:32.080">
  <property name="length">161303</property>
  <property name="eof">pause</property>
  <property name="resource">b-roll/Miles Johnstonï¼š Cheeky AI, The Total Set of Images, and Polite Revolution [EqpWfYX7ou8].webm</property>
  <property name="mlt_service">avformat-novalidate</property>
  <property name="seekable">1</property>
  <property name="format">3</property>
  <property name="audio_index">-1</property>
  <property name="video_index">0</property>
  <property name="kdenlive:clipname"/>
  <property name="kdenlive:clip_type">0</property>
  <property name="kdenlive:folderid">-1</property>
  <property name="kdenlive:id">422</property>
  <property name="kdenlive:file_size">438888186</property>
  <property name="kdenlive:file_hash">db0f4f2e9e03634508d991031c21cd03</property>
  <property name="kdenlive:audio_max1">210</property>
  <property name="kdenlive:active_streams">-1</property>
  <property name="set.test_audio">1</property>
  <property name="meta.media.nb_streams">2</property>
  <property name="meta.media.0.stream.type">video</property>
  <property name="meta.media.0.stream.frame_rate">25</property>
  <property name="meta.media.0.stream.sample_aspect_ratio">1</property>
  <property name="meta.media.0.codec.width">1280</property>
  <property name="meta.media.0.codec.height">720</property>
  <property name="meta.media.0.codec.rotate">0</property>
  <property name="meta.media.0.codec.pix_fmt">yuv420p</property>
  <property name="meta.media.0.codec.sample_aspect_ratio">0</property>
  <property name="meta.media.0.codec.colorspace">709</property>
  <property name="meta.media.0.codec.color_trc">1</property>
  <property name="meta.media.0.codec.name">vp9</property>
  <property name="meta.media.0.codec.long_name">Google VP9</property>
  <property name="meta.media.0.codec.bit_rate">0</property>
  <property name="meta.attr.0.stream.language.markup">eng</property>
  <property name="meta.attr.0.stream.DURATION.markup">01:47:32.080000000</property>
  <property name="meta.media.1.stream.type">audio</property>
  <property name="meta.media.1.codec.sample_fmt">fltp</property>
  <property name="meta.media.1.codec.sample_rate">48000</property>
  <property name="meta.media.1.codec.channels">2</property>
  <property name="meta.media.1.codec.name">opus</property>
  <property name="meta.media.1.codec.long_name">Opus</property>
  <property name="meta.media.1.codec.bit_rate">0</property>
  <property name="meta.attr.1.stream.language.markup">eng</property>
  <property name="meta.attr.1.stream.DURATION.markup">01:47:32.121000000</property>
  <property name="meta.attr.ENCODER.markup">Lavf59.27.100</property>
  <property name="meta.media.sample_aspect_num">1</property>
  <property name="meta.media.sample_aspect_den">1</property>
  <property name="meta.media.frame_rate_num">25</property>
  <property name="meta.media.frame_rate_den">1</property>
  <property name="meta.media.colorspace">709</property>
  <property name="meta.media.color_trc">1</property>
  <property name="meta.media.has_b_frames">0</property>
  <property name="meta.media.width">1280</property>
  <property name="meta.media.height">720</property>
  <property name="meta.media.color_range">mpeg</property>
  <property name="xml">was here</property>
  <property name="meta.media.top_field_first">0</property>
  <property name="meta.media.progressive">1</property>
  <property name="set.test_image">0</property>
  <property name="mute_on_pause">1</property>
 </chain>
 <chain id="chain200" out="00:00:13.080">
  <property name="length">328</property>
  <property name="eof">pause</property>
  <property name="resource">animation/output/latent-space-photography.mp4</property>
  <property name="mlt_service">avformat-novalidate</property>
  <property name="seekable">1</property>
  <property name="format">3</property>
  <property name="audio_index">-1</property>
  <property name="video_index">0</property>
  <property name="kdenlive:clipname"/>
  <property name="kdenlive:clip_type">2</property>
  <property name="kdenlive:folderid">-1</property>
  <property name="kdenlive:id">431</property>
  <property name="kdenlive:file_size">2337747</property>
  <property name="kdenlive:file_hash">4424d88063d9d877563d38e52606fee8</property>
  <property name="meta.media.nb_streams">1</property>
  <property name="meta.media.0.stream.type">video</property>
  <property name="meta.media.0.stream.frame_rate">60</property>
  <property name="meta.media.0.stream.sample_aspect_ratio">0</property>
  <property name="meta.media.0.codec.width">1920</property>
  <property name="meta.media.0.codec.height">1080</property>
  <property name="meta.media.0.codec.rotate">0</property>
  <property name="meta.media.0.codec.pix_fmt">yuv420p</property>
  <property name="meta.media.0.codec.sample_aspect_ratio">0</property>
  <property name="meta.media.0.codec.colorspace">709</property>
  <property name="meta.media.0.codec.name">h264</property>
  <property name="meta.media.0.codec.long_name">H.264 / AVC / MPEG-4 AVC / MPEG-4 part 10</property>
  <property name="meta.media.0.codec.bit_rate">1419911</property>
  <property name="meta.attr.0.stream.handler_name.markup">VideoHandler</property>
  <property name="meta.attr.0.stream.vendor_id.markup">[0][0][0][0]</property>
  <property name="meta.attr.major_brand.markup">isom</property>
  <property name="meta.attr.minor_version.markup">512</property>
  <property name="meta.attr.compatible_brands.markup">isomiso2avc1mp41</property>
  <property name="meta.attr.encoder.markup">Lavf58.24.100</property>
  <property name="meta.media.sample_aspect_num">1</property>
  <property name="meta.media.sample_aspect_den">1</property>
  <property name="meta.media.frame_rate_num">60</property>
  <property name="meta.media.frame_rate_den">1</property>
  <property name="meta.media.colorspace">709</property>
  <property name="meta.media.color_trc">2</property>
  <property name="meta.media.has_b_frames">2</property>
  <property name="meta.media.width">1920</property>
  <property name="meta.media.height">1080</property>
  <property name="meta.media.color_range">mpeg</property>
  <property name="xml">was here</property>
  <property name="meta.media.top_field_first">0</property>
  <property name="meta.media.progressive">1</property>
  <property name="set.test_audio">1</property>
  <property name="set.test_image">0</property>
  <property name="mute_on_pause">1</property>
 </chain>
 <chain id="chain201" out="01:29:44.560">
  <property name="length">134615</property>
  <property name="eof">pause</property>
  <property name="resource">b-roll/The existential threat of AI art and why not to quit drawing - Sketchy Van Podcast #60 Steven Zapata [OCY7lb_i0yM].webm</property>
  <property name="mlt_service">avformat-novalidate</property>
  <property name="seekable">1</property>
  <property name="format">3</property>
  <property name="audio_index">1</property>
  <property name="video_index">0</property>
  <property name="kdenlive:clipname"/>
  <property name="kdenlive:clip_type">0</property>
  <property name="kdenlive:folderid">14</property>
  <property name="kdenlive:id">15</property>
  <property name="kdenlive:file_size">688601410</property>
  <property name="kdenlive:file_hash">ec2cc4d9055656138f14a8b4cd1ae4e8</property>
  <property name="kdenlive:audio_max1">227</property>
  <property name="meta.media.nb_streams">2</property>
  <property name="meta.media.0.stream.type">video</property>
  <property name="meta.media.0.stream.frame_rate">23.976</property>
  <property name="meta.media.0.stream.sample_aspect_ratio">1</property>
  <property name="meta.media.0.codec.width">1920</property>
  <property name="meta.media.0.codec.height">1080</property>
  <property name="meta.media.0.codec.rotate">0</property>
  <property name="meta.media.0.codec.pix_fmt">yuv420p</property>
  <property name="meta.media.0.codec.sample_aspect_ratio">0</property>
  <property name="meta.media.0.codec.colorspace">709</property>
  <property name="meta.media.0.codec.color_trc">1</property>
  <property name="meta.media.0.codec.name">vp9</property>
  <property name="meta.media.0.codec.long_name">Google VP9</property>
  <property name="meta.media.0.codec.bit_rate">0</property>
  <property name="meta.attr.0.stream.language.markup">eng</property>
  <property name="meta.attr.0.stream.DURATION.markup">01:29:44.545000000</property>
  <property name="meta.media.1.stream.type">audio</property>
  <property name="meta.media.1.codec.sample_fmt">fltp</property>
  <property name="meta.media.1.codec.sample_rate">48000</property>
  <property name="meta.media.1.codec.channels">2</property>
  <property name="meta.media.1.codec.name">opus</property>
  <property name="meta.media.1.codec.long_name">Opus</property>
  <property name="meta.media.1.codec.bit_rate">0</property>
  <property name="meta.attr.1.stream.language.markup">eng</property>
  <property name="meta.attr.1.stream.DURATION.markup">01:29:44.581000000</property>
  <property name="meta.attr.ENCODER.markup">Lavf59.27.100</property>
  <property name="meta.media.sample_aspect_num">1</property>
  <property name="meta.media.sample_aspect_den">1</property>
  <property name="meta.media.frame_rate_num">24000</property>
  <property name="meta.media.frame_rate_den">1001</property>
  <property name="meta.media.colorspace">709</property>
  <property name="meta.media.color_trc">1</property>
  <property name="meta.media.has_b_frames">0</property>
  <property name="meta.media.width">1920</property>
  <property name="meta.media.height">1080</property>
  <property name="meta.media.color_range">mpeg</property>
  <property name="xml">was here</property>
  <property name="meta.media.top_field_first">0</property>
  <property name="meta.media.progressive">1</property>
  <property name="set.test_audio">1</property>
  <property name="set.test_image">0</property>
  <property name="mute_on_pause">1</property>
 </chain>
 <chain id="chain202" out="00:00:40.560">
  <property name="length">1015</property>
  <property name="eof">pause</property>
  <property name="resource">animation/output/possible-uses-of-photography-analogy.mp4</property>
  <property name="mlt_service">avformat-novalidate</property>
  <property name="seekable">1</property>
  <property name="format">3</property>
  <property name="audio_index">-1</property>
  <property name="video_index">0</property>
  <property name="kdenlive:clipname"/>
  <property name="kdenlive:clip_type">2</property>
  <property name="kdenlive:folderid">218</property>
  <property name="kdenlive:id">464</property>
  <property name="kdenlive:file_size">939847</property>
  <property name="kdenlive:file_hash">8c889b90f69432d7a7d58b7c56f4944e</property>
  <property name="meta.media.nb_streams">1</property>
  <property name="meta.media.0.stream.type">video</property>
  <property name="meta.media.0.stream.frame_rate">60</property>
  <property name="meta.media.0.stream.sample_aspect_ratio">0</property>
  <property name="meta.media.0.codec.width">1920</property>
  <property name="meta.media.0.codec.height">1080</property>
  <property name="meta.media.0.codec.rotate">0</property>
  <property name="meta.media.0.codec.pix_fmt">yuv420p</property>
  <property name="meta.media.0.codec.sample_aspect_ratio">0</property>
  <property name="meta.media.0.codec.colorspace">709</property>
  <property name="meta.media.0.codec.name">h264</property>
  <property name="meta.media.0.codec.long_name">H.264 / AVC / MPEG-4 AVC / MPEG-4 part 10</property>
  <property name="meta.media.0.codec.bit_rate">179374</property>
  <property name="meta.attr.0.stream.handler_name.markup">VideoHandler</property>
  <property name="meta.attr.0.stream.vendor_id.markup">[0][0][0][0]</property>
  <property name="meta.attr.major_brand.markup">isom</property>
  <property name="meta.attr.minor_version.markup">512</property>
  <property name="meta.attr.compatible_brands.markup">isomiso2avc1mp41</property>
  <property name="meta.attr.encoder.markup">Lavf58.24.100</property>
  <property name="meta.media.sample_aspect_num">1</property>
  <property name="meta.media.sample_aspect_den">1</property>
  <property name="meta.media.frame_rate_num">60</property>
  <property name="meta.media.frame_rate_den">1</property>
  <property name="meta.media.colorspace">709</property>
  <property name="meta.media.color_trc">2</property>
  <property name="meta.media.has_b_frames">2</property>
  <property name="meta.media.width">1920</property>
  <property name="meta.media.height">1080</property>
  <property name="meta.media.color_range">mpeg</property>
  <property name="xml">was here</property>
  <property name="meta.media.top_field_first">0</property>
  <property name="meta.media.progressive">1</property>
  <property name="set.test_audio">1</property>
  <property name="set.test_image">0</property>
  <property name="mute_on_pause">1</property>
 </chain>
 <chain id="chain203" out="00:00:19.960">
  <property name="length">500</property>
  <property name="eof">pause</property>
  <property name="resource">animation/output/mapping-set-in-stone.mp4</property>
  <property name="mlt_service">avformat-novalidate</property>
  <property name="seekable">1</property>
  <property name="format">3</property>
  <property name="audio_index">-1</property>
  <property name="video_index">0</property>
  <property name="kdenlive:clipname"/>
  <property name="kdenlive:clip_type">2</property>
  <property name="kdenlive:folderid">218</property>
  <property name="kdenlive:id">405</property>
  <property name="kdenlive:file_size">657113</property>
  <property name="kdenlive:file_hash">9b333d1e6b95de2439801dafe93ea662</property>
  <property name="meta.media.nb_streams">1</property>
  <property name="meta.media.0.stream.type">video</property>
  <property name="meta.media.0.stream.frame_rate">60</property>
  <property name="meta.media.0.stream.sample_aspect_ratio">0</property>
  <property name="meta.media.0.codec.width">1920</property>
  <property name="meta.media.0.codec.height">1080</property>
  <property name="meta.media.0.codec.rotate">0</property>
  <property name="meta.media.0.codec.pix_fmt">yuv420p</property>
  <property name="meta.media.0.codec.sample_aspect_ratio">0</property>
  <property name="meta.media.0.codec.colorspace">709</property>
  <property name="meta.media.0.codec.name">h264</property>
  <property name="meta.media.0.codec.long_name">H.264 / AVC / MPEG-4 AVC / MPEG-4 part 10</property>
  <property name="meta.media.0.codec.bit_rate">256811</property>
  <property name="meta.attr.0.stream.handler_name.markup">VideoHandler</property>
  <property name="meta.attr.0.stream.vendor_id.markup">[0][0][0][0]</property>
  <property name="meta.attr.major_brand.markup">isom</property>
  <property name="meta.attr.minor_version.markup">512</property>
  <property name="meta.attr.compatible_brands.markup">isomiso2avc1mp41</property>
  <property name="meta.attr.encoder.markup">Lavf58.24.100</property>
  <property name="meta.media.sample_aspect_num">1</property>
  <property name="meta.media.sample_aspect_den">1</property>
  <property name="meta.media.frame_rate_num">60</property>
  <property name="meta.media.frame_rate_den">1</property>
  <property name="meta.media.colorspace">709</property>
  <property name="meta.media.color_trc">2</property>
  <property name="meta.media.has_b_frames">2</property>
  <property name="meta.media.width">1920</property>
  <property name="meta.media.height">1080</property>
  <property name="meta.media.color_range">mpeg</property>
  <property name="xml">was here</property>
  <property name="meta.media.top_field_first">0</property>
  <property name="meta.media.progressive">1</property>
  <property name="set.test_audio">1</property>
  <property name="set.test_image">0</property>
  <property name="mute_on_pause">1</property>
 </chain>
 <chain id="chain204" out="00:20:20.360">
  <property name="length">30510</property>
  <property name="eof">pause</property>
  <property name="resource">b-roll/What Does Your Imagination Look Likeï¼Ÿ [ZOIIZiEUNmg].webm</property>
  <property name="mlt_service">avformat-novalidate</property>
  <property name="seekable">1</property>
  <property name="format">3</property>
  <property name="audio_index">-1</property>
  <property name="video_index">0</property>
  <property name="kdenlive:clipname"/>
  <property name="kdenlive:clip_type">0</property>
  <property name="kdenlive:folderid">14</property>
  <property name="kdenlive:id">478</property>
  <property name="kdenlive:file_size">1297047636</property>
  <property name="kdenlive:file_hash">91c394f517b50d55c5c4e6fdd3d1fe85</property>
  <property name="kdenlive:active_streams">-1</property>
  <property name="set.test_audio">1</property>
  <property name="kdenlive:audio_max1">227</property>
  <property name="meta.media.nb_streams">2</property>
  <property name="meta.media.0.stream.type">video</property>
  <property name="meta.media.0.stream.frame_rate">30</property>
  <property name="meta.media.0.stream.sample_aspect_ratio">1</property>
  <property name="meta.media.0.codec.width">3840</property>
  <property name="meta.media.0.codec.height">2160</property>
  <property name="meta.media.0.codec.rotate">0</property>
  <property name="meta.media.0.codec.pix_fmt">yuv420p</property>
  <property name="meta.media.0.codec.sample_aspect_ratio">0</property>
  <property name="meta.media.0.codec.colorspace">709</property>
  <property name="meta.media.0.codec.color_trc">1</property>
  <property name="meta.media.0.codec.name">vp9</property>
  <property name="meta.media.0.codec.long_name">Google VP9</property>
  <property name="meta.media.0.codec.bit_rate">0</property>
  <property name="meta.attr.0.stream.language.markup">eng</property>
  <property name="meta.attr.0.stream.DURATION.markup">00:20:20.367000000</property>
  <property name="meta.media.1.stream.type">audio</property>
  <property name="meta.media.1.codec.sample_fmt">fltp</property>
  <property name="meta.media.1.codec.sample_rate">48000</property>
  <property name="meta.media.1.codec.channels">2</property>
  <property name="meta.media.1.codec.name">opus</property>
  <property name="meta.media.1.codec.long_name">Opus</property>
  <property name="meta.media.1.codec.bit_rate">0</property>
  <property name="meta.attr.1.stream.language.markup">eng</property>
  <property name="meta.attr.1.stream.DURATION.markup">00:20:20.381000000</property>
  <property name="meta.attr.ENCODER.markup">Lavf59.27.100</property>
  <property name="meta.media.sample_aspect_num">1</property>
  <property name="meta.media.sample_aspect_den">1</property>
  <property name="meta.media.frame_rate_num">30</property>
  <property name="meta.media.frame_rate_den">1</property>
  <property name="meta.media.colorspace">709</property>
  <property name="meta.media.color_trc">1</property>
  <property name="meta.media.has_b_frames">0</property>
  <property name="meta.media.width">3840</property>
  <property name="meta.media.height">2160</property>
  <property name="meta.media.color_range">mpeg</property>
  <property name="xml">was here</property>
  <property name="meta.media.top_field_first">0</property>
  <property name="meta.media.progressive">1</property>
  <property name="set.test_image">0</property>
  <property name="mute_on_pause">1</property>
 </chain>
 <chain id="chain205" out="00:00:18.800">
  <property name="length">471</property>
  <property name="eof">pause</property>
  <property name="resource">animation/output/solar-arguments.mp4</property>
  <property name="mlt_service">avformat-novalidate</property>
  <property name="seekable">1</property>
  <property name="format">3</property>
  <property name="audio_index">-1</property>
  <property name="video_index">0</property>
  <property name="kdenlive:clipname"/>
  <property name="kdenlive:clip_type">2</property>
  <property name="kdenlive:folderid">218</property>
  <property name="kdenlive:id">485</property>
  <property name="kdenlive:file_size">898326</property>
  <property name="kdenlive:file_hash">811e51919a6d79aaee41dbba3ac1e68b</property>
  <property name="meta.media.nb_streams">1</property>
  <property name="meta.media.0.stream.type">video</property>
  <property name="meta.media.0.stream.frame_rate">60</property>
  <property name="meta.media.0.stream.sample_aspect_ratio">0</property>
  <property name="meta.media.0.codec.width">1920</property>
  <property name="meta.media.0.codec.height">1080</property>
  <property name="meta.media.0.codec.rotate">0</property>
  <property name="meta.media.0.codec.pix_fmt">yuv420p</property>
  <property name="meta.media.0.codec.sample_aspect_ratio">0</property>
  <property name="meta.media.0.codec.colorspace">709</property>
  <property name="meta.media.0.codec.name">h264</property>
  <property name="meta.media.0.codec.long_name">H.264 / AVC / MPEG-4 AVC / MPEG-4 part 10</property>
  <property name="meta.media.0.codec.bit_rate">375208</property>
  <property name="meta.attr.0.stream.handler_name.markup">VideoHandler</property>
  <property name="meta.attr.0.stream.vendor_id.markup">[0][0][0][0]</property>
  <property name="meta.attr.major_brand.markup">isom</property>
  <property name="meta.attr.minor_version.markup">512</property>
  <property name="meta.attr.compatible_brands.markup">isomiso2avc1mp41</property>
  <property name="meta.attr.encoder.markup">Lavf58.24.100</property>
  <property name="meta.media.sample_aspect_num">1</property>
  <property name="meta.media.sample_aspect_den">1</property>
  <property name="meta.media.frame_rate_num">60</property>
  <property name="meta.media.frame_rate_den">1</property>
  <property name="meta.media.colorspace">709</property>
  <property name="meta.media.color_trc">2</property>
  <property name="meta.media.has_b_frames">2</property>
  <property name="meta.media.width">1920</property>
  <property name="meta.media.height">1080</property>
  <property name="meta.media.color_range">mpeg</property>
  <property name="xml">was here</property>
  <property name="meta.media.top_field_first">0</property>
  <property name="meta.media.progressive">1</property>
  <property name="set.test_audio">1</property>
  <property name="set.test_image">0</property>
  <property name="mute_on_pause">1</property>
 </chain>
 <chain id="chain206" out="00:00:42.200">
  <property name="length">1056</property>
  <property name="eof">pause</property>
  <property name="resource">animation/output/solar-second-argument.mp4</property>
  <property name="mlt_service">avformat-novalidate</property>
  <property name="seekable">1</property>
  <property name="format">3</property>
  <property name="audio_index">-1</property>
  <property name="video_index">0</property>
  <property name="kdenlive:clipname"/>
  <property name="kdenlive:clip_type">2</property>
  <property name="kdenlive:folderid">218</property>
  <property name="kdenlive:id">498</property>
  <property name="kdenlive:file_size">1300712</property>
  <property name="kdenlive:file_hash">6b348136807bd0711b9e3e22d3563613</property>
  <property name="meta.media.nb_streams">1</property>
  <property name="meta.media.0.stream.type">video</property>
  <property name="meta.media.0.stream.frame_rate">60</property>
  <property name="meta.media.0.stream.sample_aspect_ratio">0</property>
  <property name="meta.media.0.codec.width">1920</property>
  <property name="meta.media.0.codec.height">1080</property>
  <property name="meta.media.0.codec.rotate">0</property>
  <property name="meta.media.0.codec.pix_fmt">yuv420p</property>
  <property name="meta.media.0.codec.sample_aspect_ratio">0</property>
  <property name="meta.media.0.codec.colorspace">709</property>
  <property name="meta.media.0.codec.name">h264</property>
  <property name="meta.media.0.codec.long_name">H.264 / AVC / MPEG-4 AVC / MPEG-4 part 10</property>
  <property name="meta.media.0.codec.bit_rate">240411</property>
  <property name="meta.attr.0.stream.handler_name.markup">VideoHandler</property>
  <property name="meta.attr.0.stream.vendor_id.markup">[0][0][0][0]</property>
  <property name="meta.attr.major_brand.markup">isom</property>
  <property name="meta.attr.minor_version.markup">512</property>
  <property name="meta.attr.compatible_brands.markup">isomiso2avc1mp41</property>
  <property name="meta.attr.encoder.markup">Lavf58.24.100</property>
  <property name="meta.media.sample_aspect_num">1</property>
  <property name="meta.media.sample_aspect_den">1</property>
  <property name="meta.media.frame_rate_num">60</property>
  <property name="meta.media.frame_rate_den">1</property>
  <property name="meta.media.colorspace">709</property>
  <property name="meta.media.color_trc">2</property>
  <property name="meta.media.has_b_frames">2</property>
  <property name="meta.media.width">1920</property>
  <property name="meta.media.height">1080</property>
  <property name="meta.media.color_range">mpeg</property>
  <property name="xml">was here</property>
  <property name="meta.media.top_field_first">0</property>
  <property name="meta.media.progressive">1</property>
  <property name="set.test_audio">1</property>
  <property name="set.test_image">0</property>
  <property name="mute_on_pause">1</property>
 </chain>
 <chain id="chain207" out="00:00:10.240">
  <property name="length">257</property>
  <property name="eof">pause</property>
  <property name="resource">animation/output/perceptually-given-laws/perceptually-given-laws.mp4</property>
  <property name="mlt_service">avformat-novalidate</property>
  <property name="seekable">1</property>
  <property name="format">3</property>
  <property name="audio_index">-1</property>
  <property name="video_index">0</property>
  <property name="kdenlive:clipname"/>
  <property name="kdenlive:clip_type">0</property>
  <property name="kdenlive:folderid">-1</property>
  <property name="kdenlive:id">506</property>
  <property name="kdenlive:file_size">2037267</property>
  <property name="kdenlive:file_hash">73de05d7e841d9ed5c734b969a066391</property>
  <property name="kdenlive:audio_max1">1</property>
  <property name="kdenlive:active_streams">-1</property>
  <property name="set.test_audio">1</property>
  <property name="meta.media.nb_streams">2</property>
  <property name="meta.media.0.stream.type">video</property>
  <property name="meta.media.0.stream.frame_rate">25</property>
  <property name="meta.media.0.stream.sample_aspect_ratio">1</property>
  <property name="meta.media.0.codec.width">1920</property>
  <property name="meta.media.0.codec.height">1080</property>
  <property name="meta.media.0.codec.rotate">0</property>
  <property name="meta.media.0.codec.pix_fmt">yuv420p</property>
  <property name="meta.media.0.codec.sample_aspect_ratio">1</property>
  <property name="meta.media.0.codec.colorspace">709</property>
  <property name="meta.media.0.codec.color_trc">1</property>
  <property name="meta.media.0.codec.name">h264</property>
  <property name="meta.media.0.codec.long_name">H.264 / AVC / MPEG-4 AVC / MPEG-4 part 10</property>
  <property name="meta.media.0.codec.bit_rate">1575885</property>
  <property name="meta.attr.0.stream.handler_name.markup">VideoHandler</property>
  <property name="meta.attr.0.stream.vendor_id.markup">[0][0][0][0]</property>
  <property name="meta.media.1.stream.type">audio</property>
  <property name="meta.media.1.codec.sample_fmt">fltp</property>
  <property name="meta.media.1.codec.sample_rate">48000</property>
  <property name="meta.media.1.codec.channels">2</property>
  <property name="meta.media.1.codec.name">aac</property>
  <property name="meta.media.1.codec.long_name">AAC (Advanced Audio Coding)</property>
  <property name="meta.media.1.codec.bit_rate">2276</property>
  <property name="meta.attr.1.stream.handler_name.markup">SoundHandler</property>
  <property name="meta.attr.1.stream.vendor_id.markup">[0][0][0][0]</property>
  <property name="meta.attr.major_brand.markup">isom</property>
  <property name="meta.attr.minor_version.markup">512</property>
  <property name="meta.attr.compatible_brands.markup">isomiso2avc1mp41</property>
  <property name="meta.attr.encoder.markup">Lavf59.27.100</property>
  <property name="meta.media.sample_aspect_num">1</property>
  <property name="meta.media.sample_aspect_den">1</property>
  <property name="meta.media.frame_rate_num">25</property>
  <property name="meta.media.frame_rate_den">1</property>
  <property name="meta.media.colorspace">709</property>
  <property name="meta.media.color_trc">1</property>
  <property name="meta.media.has_b_frames">2</property>
  <property name="meta.media.width">1920</property>
  <property name="meta.media.height">1080</property>
  <property name="meta.media.color_range">mpeg</property>
  <property name="xml">was here</property>
  <property name="meta.media.top_field_first">0</property>
  <property name="meta.media.progressive">1</property>
  <property name="set.test_image">0</property>
  <property name="mute_on_pause">1</property>
 </chain>
 <chain id="chain208" out="00:00:49.800">
  <property name="length">1246</property>
  <property name="eof">pause</property>
  <property name="resource">videos/ripgrep.mkv</property>
  <property name="mlt_service">avformat-novalidate</property>
  <property name="seekable">1</property>
  <property name="format">3</property>
  <property name="audio_index">-1</property>
  <property name="video_index">0</property>
  <property name="kdenlive:clipname"/>
  <property name="kdenlive:clip_type">0</property>
  <property name="kdenlive:folderid">-1</property>
  <property name="kdenlive:id">520</property>
  <property name="kdenlive:file_size">1242688</property>
  <property name="kdenlive:file_hash">70bebce21ca6c48d9569c56557c4065f</property>
  <property name="kdenlive:audio_max1">1</property>
  <property name="kdenlive:active_streams">-1</property>
  <property name="set.test_audio">1</property>
  <property name="meta.media.nb_streams">2</property>
  <property name="meta.media.0.stream.type">video</property>
  <property name="meta.media.0.stream.frame_rate">60</property>
  <property name="meta.media.0.stream.sample_aspect_ratio">0</property>
  <property name="meta.media.0.codec.width">1920</property>
  <property name="meta.media.0.codec.height">1080</property>
  <property name="meta.media.0.codec.rotate">0</property>
  <property name="meta.media.0.codec.pix_fmt">yuv420p</property>
  <property name="meta.media.0.codec.sample_aspect_ratio">1</property>
  <property name="meta.media.0.codec.colorspace">709</property>
  <property name="meta.media.0.codec.color_trc">1</property>
  <property name="meta.media.0.codec.name">h264</property>
  <property name="meta.media.0.codec.long_name">H.264 / AVC / MPEG-4 AVC / MPEG-4 part 10</property>
  <property name="meta.media.0.codec.bit_rate">0</property>
  <property name="meta.attr.0.stream.DURATION.markup">00:00:49.834000000</property>
  <property name="meta.media.1.stream.type">audio</property>
  <property name="meta.media.1.codec.sample_fmt">fltp</property>
  <property name="meta.media.1.codec.sample_rate">48000</property>
  <property name="meta.media.1.codec.channels">2</property>
  <property name="meta.media.1.codec.name">aac</property>
  <property name="meta.media.1.codec.long_name">AAC (Advanced Audio Coding)</property>
  <property name="meta.media.1.codec.bit_rate">0</property>
  <property name="meta.attr.1.stream.title.markup">simple_aac_recording</property>
  <property name="meta.attr.1.stream.DURATION.markup">00:00:49.813000000</property>
  <property name="meta.attr.ENCODER.markup">Lavf59.27.100</property>
  <property name="meta.media.sample_aspect_num">1</property>
  <property name="meta.media.sample_aspect_den">1</property>
  <property name="meta.media.frame_rate_num">60</property>
  <property name="meta.media.frame_rate_den">1</property>
  <property name="meta.media.colorspace">709</property>
  <property name="meta.media.color_trc">1</property>
  <property name="meta.media.has_b_frames">2</property>
  <property name="meta.media.width">1920</property>
  <property name="meta.media.height">1080</property>
  <property name="meta.media.color_range">mpeg</property>
  <property name="xml">was here</property>
  <property name="meta.media.top_field_first">0</property>
  <property name="meta.media.progressive">1</property>
  <property name="set.test_image">0</property>
  <property name="mute_on_pause">1</property>
 </chain>
 <producer id="producer554" in="00:00:00.000" out="00:00:24.880">
  <property name="length">623</property>
  <property name="eof">pause</property>
  <property name="resource">2.000000:videos/ripgrep.mkv</property>
  <property name="aspect_ratio">1</property>
  <property name="meta.media.nb_streams">2</property>
  <property name="meta.media.0.stream.type">video</property>
  <property name="meta.media.0.stream.frame_rate">60</property>
  <property name="meta.media.0.stream.sample_aspect_ratio">0</property>
  <property name="meta.media.0.codec.width">1920</property>
  <property name="meta.media.0.codec.height">1080</property>
  <property name="meta.media.0.codec.rotate">0</property>
  <property name="meta.media.0.codec.pix_fmt">yuv420p</property>
  <property name="meta.media.0.codec.sample_aspect_ratio">1</property>
  <property name="meta.media.0.codec.colorspace">709</property>
  <property name="meta.media.0.codec.color_trc">1</property>
  <property name="meta.media.0.codec.name">h264</property>
  <property name="meta.media.0.codec.long_name">H.264 / AVC / MPEG-4 AVC / MPEG-4 part 10</property>
  <property name="meta.media.0.codec.bit_rate">0</property>
  <property name="meta.attr.0.stream.DURATION.markup">00:00:49.834000000</property>
  <property name="meta.media.1.stream.type">audio</property>
  <property name="meta.media.1.codec.sample_fmt">fltp</property>
  <property name="meta.media.1.codec.sample_rate">48000</property>
  <property name="meta.media.1.codec.channels">2</property>
  <property name="meta.media.1.codec.name">aac</property>
  <property name="meta.media.1.codec.long_name">AAC (Advanced Audio Coding)</property>
  <property name="meta.media.1.codec.bit_rate">0</property>
  <property name="meta.attr.1.stream.title.markup">simple_aac_recording</property>
  <property name="meta.attr.1.stream.DURATION.markup">00:00:49.813000000</property>
  <property name="meta.attr.ENCODER.markup">Lavf59.27.100</property>
  <property name="seekable">1</property>
  <property name="meta.media.sample_aspect_num">1</property>
  <property name="meta.media.sample_aspect_den">1</property>
  <property name="format">3</property>
  <property name="audio_index">-1</property>
  <property name="video_index">0</property>
  <property name="mute_on_pause">1</property>
  <property name="warp_speed">2</property>
  <property name="warp_resource">videos/ripgrep.mkv</property>
  <property name="mlt_service">timewarp</property>
  <property name="set.test_audio">1</property>
  <property name="set.test_image">0</property>
  <property name="kdenlive:id">520</property>
  <property name="warp_pitch">0</property>
  <property name="meta.media.frame_rate_num">60</property>
  <property name="meta.media.frame_rate_den">1</property>
  <property name="meta.media.colorspace">709</property>
  <property name="meta.media.color_trc">1</property>
  <property name="meta.media.has_b_frames">2</property>
  <property name="meta.media.width">1920</property>
  <property name="meta.media.height">1080</property>
  <property name="meta.media.color_range">mpeg</property>
  <property name="meta.media.top_field_first">0</property>
  <property name="meta.media.progressive">1</property>
 </producer>
 <chain id="chain209" out="00:00:09.960">
  <property name="length">250</property>
  <property name="eof">pause</property>
  <property name="resource">animation/output/programming.mp4</property>
  <property name="mlt_service">avformat-novalidate</property>
  <property name="seekable">1</property>
  <property name="format">3</property>
  <property name="audio_index">-1</property>
  <property name="video_index">0</property>
  <property name="kdenlive:clipname"/>
  <property name="kdenlive:clip_type">2</property>
  <property name="kdenlive:folderid">-1</property>
  <property name="kdenlive:id">523</property>
  <property name="kdenlive:file_size">535250</property>
  <property name="kdenlive:file_hash">2433e5b226abd0f01882ea41c9728d5d</property>
  <property name="meta.media.nb_streams">1</property>
  <property name="meta.media.0.stream.type">video</property>
  <property name="meta.media.0.stream.frame_rate">60</property>
  <property name="meta.media.0.stream.sample_aspect_ratio">0</property>
  <property name="meta.media.0.codec.width">1920</property>
  <property name="meta.media.0.codec.height">1080</property>
  <property name="meta.media.0.codec.rotate">0</property>
  <property name="meta.media.0.codec.pix_fmt">yuv420p</property>
  <property name="meta.media.0.codec.sample_aspect_ratio">0</property>
  <property name="meta.media.0.codec.colorspace">709</property>
  <property name="meta.media.0.codec.name">h264</property>
  <property name="meta.media.0.codec.long_name">H.264 / AVC / MPEG-4 AVC / MPEG-4 part 10</property>
  <property name="meta.media.0.codec.bit_rate">421956</property>
  <property name="meta.attr.0.stream.handler_name.markup">VideoHandler</property>
  <property name="meta.attr.0.stream.vendor_id.markup">[0][0][0][0]</property>
  <property name="meta.attr.major_brand.markup">isom</property>
  <property name="meta.attr.minor_version.markup">512</property>
  <property name="meta.attr.compatible_brands.markup">isomiso2avc1mp41</property>
  <property name="meta.attr.encoder.markup">Lavf58.24.100</property>
  <property name="meta.media.sample_aspect_num">1</property>
  <property name="meta.media.sample_aspect_den">1</property>
  <property name="meta.media.frame_rate_num">60</property>
  <property name="meta.media.frame_rate_den">1</property>
  <property name="meta.media.colorspace">709</property>
  <property name="meta.media.color_trc">2</property>
  <property name="meta.media.has_b_frames">2</property>
  <property name="meta.media.width">1920</property>
  <property name="meta.media.height">1080</property>
  <property name="meta.media.color_range">mpeg</property>
  <property name="xml">was here</property>
  <property name="meta.media.top_field_first">0</property>
  <property name="meta.media.progressive">1</property>
  <property name="set.test_audio">1</property>
  <property name="set.test_image">0</property>
  <property name="mute_on_pause">1</property>
 </chain>
 <chain id="chain210" out="00:00:19.960">
  <property name="length">500</property>
  <property name="eof">pause</property>
  <property name="resource">animation/output/inverse-correlation-model-size.mp4</property>
  <property name="mlt_service">avformat-novalidate</property>
  <property name="seekable">1</property>
  <property name="format">3</property>
  <property name="audio_index">-1</property>
  <property name="video_index">0</property>
  <property name="kdenlive:clipname"/>
  <property name="kdenlive:clip_type">2</property>
  <property name="kdenlive:folderid">218</property>
  <property name="kdenlive:id">547</property>
  <property name="kdenlive:file_size">227459</property>
  <property name="kdenlive:file_hash">12e5eebe7692a066e268a13528ea6298</property>
  <property name="meta.media.nb_streams">1</property>
  <property name="meta.media.0.stream.type">video</property>
  <property name="meta.media.0.stream.frame_rate">60</property>
  <property name="meta.media.0.stream.sample_aspect_ratio">0</property>
  <property name="meta.media.0.codec.width">1920</property>
  <property name="meta.media.0.codec.height">1080</property>
  <property name="meta.media.0.codec.rotate">0</property>
  <property name="meta.media.0.codec.pix_fmt">yuv420p</property>
  <property name="meta.media.0.codec.sample_aspect_ratio">0</property>
  <property name="meta.media.0.codec.colorspace">709</property>
  <property name="meta.media.0.codec.name">h264</property>
  <property name="meta.media.0.codec.long_name">H.264 / AVC / MPEG-4 AVC / MPEG-4 part 10</property>
  <property name="meta.media.0.codec.bit_rate">84820</property>
  <property name="meta.attr.0.stream.handler_name.markup">VideoHandler</property>
  <property name="meta.attr.0.stream.vendor_id.markup">[0][0][0][0]</property>
  <property name="meta.attr.major_brand.markup">isom</property>
  <property name="meta.attr.minor_version.markup">512</property>
  <property name="meta.attr.compatible_brands.markup">isomiso2avc1mp41</property>
  <property name="meta.attr.encoder.markup">Lavf58.24.100</property>
  <property name="meta.media.sample_aspect_num">1</property>
  <property name="meta.media.sample_aspect_den">1</property>
  <property name="meta.media.frame_rate_num">60</property>
  <property name="meta.media.frame_rate_den">1</property>
  <property name="meta.media.colorspace">709</property>
  <property name="meta.media.color_trc">2</property>
  <property name="meta.media.has_b_frames">2</property>
  <property name="meta.media.width">1920</property>
  <property name="meta.media.height">1080</property>
  <property name="meta.media.color_range">mpeg</property>
  <property name="xml">was here</property>
  <property name="meta.media.top_field_first">0</property>
  <property name="meta.media.progressive">1</property>
  <property name="set.test_audio">1</property>
  <property name="set.test_image">0</property>
  <property name="mute_on_pause">1</property>
 </chain>
 <chain id="chain211" out="02:05:46.480">
  <property name="length">188663</property>
  <property name="eof">pause</property>
  <property name="resource">b-roll/AI &amp; Industry Town Hall featuring US Copyright Office [7u1CeiSHqwY].webm</property>
  <property name="mlt_service">avformat-novalidate</property>
  <property name="seekable">1</property>
  <property name="format">3</property>
  <property name="audio_index">-1</property>
  <property name="video_index">0</property>
  <property name="kdenlive:clipname"/>
  <property name="kdenlive:clip_type">0</property>
  <property name="kdenlive:folderid">-1</property>
  <property name="kdenlive:id">551</property>
  <property name="kdenlive:file_size">2782205774</property>
  <property name="kdenlive:file_hash">942196be50e420cc3019ad6424c5222f</property>
  <property name="kdenlive:active_streams">-1</property>
  <property name="set.test_audio">1</property>
  <property name="kdenlive:audio_max1">199</property>
  <property name="meta.media.nb_streams">2</property>
  <property name="meta.media.0.stream.type">video</property>
  <property name="meta.media.0.stream.frame_rate">25</property>
  <property name="meta.media.0.stream.sample_aspect_ratio">1</property>
  <property name="meta.media.0.codec.width">3840</property>
  <property name="meta.media.0.codec.height">2160</property>
  <property name="meta.media.0.codec.rotate">0</property>
  <property name="meta.media.0.codec.pix_fmt">yuv420p</property>
  <property name="meta.media.0.codec.sample_aspect_ratio">0</property>
  <property name="meta.media.0.codec.colorspace">709</property>
  <property name="meta.media.0.codec.color_trc">1</property>
  <property name="meta.media.0.codec.name">vp9</property>
  <property name="meta.media.0.codec.long_name">Google VP9</property>
  <property name="meta.media.0.codec.bit_rate">0</property>
  <property name="meta.attr.0.stream.language.markup">eng</property>
  <property name="meta.attr.0.stream.DURATION.markup">02:05:46.480000000</property>
  <property name="meta.media.1.stream.type">audio</property>
  <property name="meta.media.1.codec.sample_fmt">fltp</property>
  <property name="meta.media.1.codec.sample_rate">48000</property>
  <property name="meta.media.1.codec.channels">2</property>
  <property name="meta.media.1.codec.name">opus</property>
  <property name="meta.media.1.codec.long_name">Opus</property>
  <property name="meta.media.1.codec.bit_rate">0</property>
  <property name="meta.attr.1.stream.language.markup">eng</property>
  <property name="meta.attr.1.stream.DURATION.markup">02:05:46.521000000</property>
  <property name="meta.attr.ENCODER.markup">Lavf59.27.100</property>
  <property name="meta.media.sample_aspect_num">1</property>
  <property name="meta.media.sample_aspect_den">1</property>
  <property name="meta.media.frame_rate_num">25</property>
  <property name="meta.media.frame_rate_den">1</property>
  <property name="meta.media.colorspace">709</property>
  <property name="meta.media.color_trc">1</property>
  <property name="meta.media.has_b_frames">0</property>
  <property name="meta.media.width">3840</property>
  <property name="meta.media.height">2160</property>
  <property name="meta.media.color_range">mpeg</property>
  <property name="xml">was here</property>
  <property name="meta.media.top_field_first">0</property>
  <property name="meta.media.progressive">1</property>
  <property name="set.test_image">0</property>
  <property name="mute_on_pause">1</property>
 </chain>
 <chain id="chain212" out="00:00:26.640">
  <property name="length">667</property>
  <property name="eof">pause</property>
  <property name="resource">animation/output/0.128.mp4</property>
  <property name="mlt_service">avformat-novalidate</property>
  <property name="seekable">1</property>
  <property name="format">3</property>
  <property name="audio_index">-1</property>
  <property name="video_index">0</property>
  <property name="kdenlive:clipname"/>
  <property name="kdenlive:clip_type">2</property>
  <property name="kdenlive:folderid">-1</property>
  <property name="kdenlive:id">568</property>
  <property name="kdenlive:file_size">371557</property>
  <property name="kdenlive:file_hash">7f8df4fc4e4e8d8ec28e12a3c263cc57</property>
  <property name="meta.media.nb_streams">1</property>
  <property name="meta.media.0.stream.type">video</property>
  <property name="meta.media.0.stream.frame_rate">60</property>
  <property name="meta.media.0.stream.sample_aspect_ratio">0</property>
  <property name="meta.media.0.codec.width">1920</property>
  <property name="meta.media.0.codec.height">1080</property>
  <property name="meta.media.0.codec.rotate">0</property>
  <property name="meta.media.0.codec.pix_fmt">yuv420p</property>
  <property name="meta.media.0.codec.sample_aspect_ratio">0</property>
  <property name="meta.media.0.codec.colorspace">709</property>
  <property name="meta.media.0.codec.name">h264</property>
  <property name="meta.media.0.codec.long_name">H.264 / AVC / MPEG-4 AVC / MPEG-4 part 10</property>
  <property name="meta.media.0.codec.bit_rate">105451</property>
  <property name="meta.attr.0.stream.handler_name.markup">VideoHandler</property>
  <property name="meta.attr.0.stream.vendor_id.markup">[0][0][0][0]</property>
  <property name="meta.attr.major_brand.markup">isom</property>
  <property name="meta.attr.minor_version.markup">512</property>
  <property name="meta.attr.compatible_brands.markup">isomiso2avc1mp41</property>
  <property name="meta.attr.encoder.markup">Lavf58.24.100</property>
  <property name="meta.media.sample_aspect_num">1</property>
  <property name="meta.media.sample_aspect_den">1</property>
  <property name="meta.media.frame_rate_num">60</property>
  <property name="meta.media.frame_rate_den">1</property>
  <property name="meta.media.colorspace">709</property>
  <property name="meta.media.color_trc">2</property>
  <property name="meta.media.has_b_frames">2</property>
  <property name="meta.media.width">1920</property>
  <property name="meta.media.height">1080</property>
  <property name="meta.media.color_range">mpeg</property>
  <property name="xml">was here</property>
  <property name="meta.media.top_field_first">0</property>
  <property name="meta.media.progressive">1</property>
  <property name="set.test_audio">1</property>
  <property name="set.test_image">0</property>
  <property name="mute_on_pause">1</property>
 </chain>
 <chain id="chain213" out="00:00:22.160">
  <property name="length">555</property>
  <property name="eof">pause</property>
  <property name="resource">animation/output/ontological-fitting.mp4</property>
  <property name="mlt_service">avformat-novalidate</property>
  <property name="seekable">1</property>
  <property name="format">3</property>
  <property name="audio_index">-1</property>
  <property name="video_index">0</property>
  <property name="kdenlive:clipname"/>
  <property name="kdenlive:clip_type">2</property>
  <property name="kdenlive:folderid">-1</property>
  <property name="kdenlive:id">572</property>
  <property name="kdenlive:file_size">290251</property>
  <property name="kdenlive:file_hash">c5747ffae5b976b095c72e19b22ec1ce</property>
  <property name="meta.media.nb_streams">1</property>
  <property name="meta.media.0.stream.type">video</property>
  <property name="meta.media.0.stream.frame_rate">60</property>
  <property name="meta.media.0.stream.sample_aspect_ratio">0</property>
  <property name="meta.media.0.codec.width">1920</property>
  <property name="meta.media.0.codec.height">1080</property>
  <property name="meta.media.0.codec.rotate">0</property>
  <property name="meta.media.0.codec.pix_fmt">yuv420p</property>
  <property name="meta.media.0.codec.sample_aspect_ratio">0</property>
  <property name="meta.media.0.codec.colorspace">709</property>
  <property name="meta.media.0.codec.name">h264</property>
  <property name="meta.media.0.codec.long_name">H.264 / AVC / MPEG-4 AVC / MPEG-4 part 10</property>
  <property name="meta.media.0.codec.bit_rate">98665</property>
  <property name="meta.attr.0.stream.handler_name.markup">VideoHandler</property>
  <property name="meta.attr.0.stream.vendor_id.markup">[0][0][0][0]</property>
  <property name="meta.attr.major_brand.markup">isom</property>
  <property name="meta.attr.minor_version.markup">512</property>
  <property name="meta.attr.compatible_brands.markup">isomiso2avc1mp41</property>
  <property name="meta.attr.encoder.markup">Lavf58.24.100</property>
  <property name="meta.media.sample_aspect_num">1</property>
  <property name="meta.media.sample_aspect_den">1</property>
  <property name="meta.media.frame_rate_num">60</property>
  <property name="meta.media.frame_rate_den">1</property>
  <property name="meta.media.colorspace">709</property>
  <property name="meta.media.color_trc">2</property>
  <property name="meta.media.has_b_frames">2</property>
  <property name="meta.media.width">1920</property>
  <property name="meta.media.height">1080</property>
  <property name="meta.media.color_range">mpeg</property>
  <property name="xml">was here</property>
  <property name="meta.media.top_field_first">0</property>
  <property name="meta.media.progressive">1</property>
  <property name="set.test_audio">1</property>
  <property name="set.test_image">0</property>
  <property name="mute_on_pause">1</property>
 </chain>
 <producer id="producer555" in="00:00:00.000" out="00:00:25.240">
  <property name="length">632</property>
  <property name="eof">pause</property>
  <property name="resource">1.800000:animation/output/network.mp4</property>
  <property name="aspect_ratio">1</property>
  <property name="meta.media.nb_streams">1</property>
  <property name="meta.media.0.stream.type">video</property>
  <property name="meta.media.0.stream.frame_rate">60</property>
  <property name="meta.media.0.stream.sample_aspect_ratio">0</property>
  <property name="meta.media.0.codec.width">1920</property>
  <property name="meta.media.0.codec.height">1080</property>
  <property name="meta.media.0.codec.rotate">0</property>
  <property name="meta.media.0.codec.pix_fmt">yuv420p</property>
  <property name="meta.media.0.codec.sample_aspect_ratio">0</property>
  <property name="meta.media.0.codec.colorspace">709</property>
  <property name="meta.media.0.codec.name">h264</property>
  <property name="meta.media.0.codec.long_name">H.264 / AVC / MPEG-4 AVC / MPEG-4 part 10</property>
  <property name="meta.media.0.codec.bit_rate">351494</property>
  <property name="meta.attr.0.stream.handler_name.markup">VideoHandler</property>
  <property name="meta.attr.0.stream.vendor_id.markup">[0][0][0][0]</property>
  <property name="meta.attr.major_brand.markup">isom</property>
  <property name="meta.attr.minor_version.markup">512</property>
  <property name="meta.attr.compatible_brands.markup">isomiso2avc1mp41</property>
  <property name="meta.attr.encoder.markup">Lavf58.24.100</property>
  <property name="seekable">1</property>
  <property name="meta.media.sample_aspect_num">1</property>
  <property name="meta.media.sample_aspect_den">1</property>
  <property name="format">3</property>
  <property name="audio_index">-1</property>
  <property name="video_index">0</property>
  <property name="mute_on_pause">1</property>
  <property name="warp_speed">1.8</property>
  <property name="warp_resource">animation/output/network.mp4</property>
  <property name="mlt_service">timewarp</property>
  <property name="set.test_audio">1</property>
  <property name="set.test_image">0</property>
  <property name="kdenlive:id">342</property>
  <property name="warp_pitch">0</property>
  <property name="meta.media.frame_rate_num">60</property>
  <property name="meta.media.frame_rate_den">1</property>
  <property name="meta.media.colorspace">709</property>
  <property name="meta.media.color_trc">2</property>
  <property name="meta.media.has_b_frames">2</property>
  <property name="meta.media.width">1920</property>
  <property name="meta.media.height">1080</property>
  <property name="meta.media.color_range">mpeg</property>
  <property name="meta.media.top_field_first">0</property>
  <property name="meta.media.progressive">1</property>
 </producer>
 <chain id="chain214" out="00:00:12.960">
  <property name="length">325</property>
  <property name="eof">pause</property>
  <property name="resource">animation/output/hasbeen-musician.mp4</property>
  <property name="mlt_service">avformat-novalidate</property>
  <property name="seekable">1</property>
  <property name="format">3</property>
  <property name="audio_index">-1</property>
  <property name="video_index">0</property>
  <property name="kdenlive:clipname"/>
  <property name="kdenlive:clip_type">2</property>
  <property name="kdenlive:folderid">-1</property>
  <property name="kdenlive:id">589</property>
  <property name="kdenlive:file_size">2018665</property>
  <property name="kdenlive:file_hash">785b3ab13132da372269098f8c0e018d</property>
  <property name="meta.media.nb_streams">1</property>
  <property name="meta.media.0.stream.type">video</property>
  <property name="meta.media.0.stream.frame_rate">60</property>
  <property name="meta.media.0.stream.sample_aspect_ratio">0</property>
  <property name="meta.media.0.codec.width">1920</property>
  <property name="meta.media.0.codec.height">1080</property>
  <property name="meta.media.0.codec.rotate">0</property>
  <property name="meta.media.0.codec.pix_fmt">yuv420p</property>
  <property name="meta.media.0.codec.sample_aspect_ratio">0</property>
  <property name="meta.media.0.codec.colorspace">709</property>
  <property name="meta.media.0.codec.name">h264</property>
  <property name="meta.media.0.codec.long_name">H.264 / AVC / MPEG-4 AVC / MPEG-4 part 10</property>
  <property name="meta.media.0.codec.bit_rate">1237675</property>
  <property name="meta.attr.0.stream.handler_name.markup">VideoHandler</property>
  <property name="meta.attr.0.stream.vendor_id.markup">[0][0][0][0]</property>
  <property name="meta.attr.major_brand.markup">isom</property>
  <property name="meta.attr.minor_version.markup">512</property>
  <property name="meta.attr.compatible_brands.markup">isomiso2avc1mp41</property>
  <property name="meta.attr.encoder.markup">Lavf58.24.100</property>
  <property name="meta.media.sample_aspect_num">1</property>
  <property name="meta.media.sample_aspect_den">1</property>
  <property name="meta.media.frame_rate_num">60</property>
  <property name="meta.media.frame_rate_den">1</property>
  <property name="meta.media.colorspace">709</property>
  <property name="meta.media.color_trc">2</property>
  <property name="meta.media.has_b_frames">2</property>
  <property name="meta.media.width">1920</property>
  <property name="meta.media.height">1080</property>
  <property name="meta.media.color_range">mpeg</property>
  <property name="xml">was here</property>
  <property name="meta.media.top_field_first">0</property>
  <property name="meta.media.progressive">1</property>
  <property name="set.test_audio">1</property>
  <property name="set.test_image">0</property>
  <property name="mute_on_pause">1</property>
 </chain>
 <chain id="chain215" out="00:00:44.840">
  <property name="length">1122</property>
  <property name="eof">pause</property>
  <property name="resource">animation/output/consent-moral-requirement.mp4</property>
  <property name="mlt_service">avformat-novalidate</property>
  <property name="seekable">1</property>
  <property name="format">3</property>
  <property name="audio_index">-1</property>
  <property name="video_index">0</property>
  <property name="kdenlive:clipname"/>
  <property name="kdenlive:clip_type">2</property>
  <property name="kdenlive:folderid">-1</property>
  <property name="kdenlive:id">600</property>
  <property name="kdenlive:file_size">1463827</property>
  <property name="kdenlive:file_hash">ca0f5b3d75ac7cd20a15f03c2c6e4988</property>
  <property name="meta.media.nb_streams">1</property>
  <property name="meta.media.0.stream.type">video</property>
  <property name="meta.media.0.stream.frame_rate">60</property>
  <property name="meta.media.0.stream.sample_aspect_ratio">0</property>
  <property name="meta.media.0.codec.width">1920</property>
  <property name="meta.media.0.codec.height">1080</property>
  <property name="meta.media.0.codec.rotate">0</property>
  <property name="meta.media.0.codec.pix_fmt">yuv420p</property>
  <property name="meta.media.0.codec.sample_aspect_ratio">0</property>
  <property name="meta.media.0.codec.colorspace">709</property>
  <property name="meta.media.0.codec.name">h264</property>
  <property name="meta.media.0.codec.long_name">H.264 / AVC / MPEG-4 AVC / MPEG-4 part 10</property>
  <property name="meta.media.0.codec.bit_rate">255138</property>
  <property name="meta.attr.0.stream.handler_name.markup">VideoHandler</property>
  <property name="meta.attr.0.stream.vendor_id.markup">[0][0][0][0]</property>
  <property name="meta.attr.major_brand.markup">isom</property>
  <property name="meta.attr.minor_version.markup">512</property>
  <property name="meta.attr.compatible_brands.markup">isomiso2avc1mp41</property>
  <property name="meta.attr.encoder.markup">Lavf58.24.100</property>
  <property name="meta.media.sample_aspect_num">1</property>
  <property name="meta.media.sample_aspect_den">1</property>
  <property name="meta.media.frame_rate_num">60</property>
  <property name="meta.media.frame_rate_den">1</property>
  <property name="meta.media.colorspace">709</property>
  <property name="meta.media.color_trc">2</property>
  <property name="meta.media.has_b_frames">2</property>
  <property name="meta.media.width">1920</property>
  <property name="meta.media.height">1080</property>
  <property name="meta.media.color_range">mpeg</property>
  <property name="xml">was here</property>
  <property name="meta.media.top_field_first">0</property>
  <property name="meta.media.progressive">1</property>
  <property name="set.test_audio">1</property>
  <property name="set.test_image">0</property>
  <property name="mute_on_pause">1</property>
 </chain>
 <chain id="chain216" out="00:00:17.520">
  <property name="length">439</property>
  <property name="eof">pause</property>
  <property name="resource">animation/output/bob-and-alice/bob-and-alice.mp4</property>
  <property name="mlt_service">avformat-novalidate</property>
  <property name="seekable">1</property>
  <property name="format">3</property>
  <property name="audio_index">1</property>
  <property name="video_index">0</property>
  <property name="kdenlive:clipname"/>
  <property name="kdenlive:clip_type">0</property>
  <property name="kdenlive:folderid">218</property>
  <property name="kdenlive:id">240</property>
  <property name="kdenlive:file_size">8995547</property>
  <property name="kdenlive:file_hash">68b5013cb6c8f1a634069f9dde28cd85</property>
  <property name="kdenlive:audio_max1">71</property>
  <property name="meta.media.nb_streams">2</property>
  <property name="meta.media.0.stream.type">video</property>
  <property name="meta.media.0.stream.frame_rate">25</property>
  <property name="meta.media.0.stream.sample_aspect_ratio">1</property>
  <property name="meta.media.0.codec.width">1920</property>
  <property name="meta.media.0.codec.height">1080</property>
  <property name="meta.media.0.codec.rotate">0</property>
  <property name="meta.media.0.codec.pix_fmt">yuv420p</property>
  <property name="meta.media.0.codec.sample_aspect_ratio">1</property>
  <property name="meta.media.0.codec.colorspace">709</property>
  <property name="meta.media.0.codec.color_trc">1</property>
  <property name="meta.media.0.codec.name">h264</property>
  <property name="meta.media.0.codec.long_name">H.264 / AVC / MPEG-4 AVC / MPEG-4 part 10</property>
  <property name="meta.media.0.codec.bit_rate">3934891</property>
  <property name="meta.attr.0.stream.handler_name.markup">VideoHandler</property>
  <property name="meta.attr.0.stream.vendor_id.markup">[0][0][0][0]</property>
  <property name="meta.media.1.stream.type">audio</property>
  <property name="meta.media.1.codec.sample_fmt">fltp</property>
  <property name="meta.media.1.codec.sample_rate">48000</property>
  <property name="meta.media.1.codec.channels">2</property>
  <property name="meta.media.1.codec.name">aac</property>
  <property name="meta.media.1.codec.long_name">AAC (Advanced Audio Coding)</property>
  <property name="meta.media.1.codec.bit_rate">156226</property>
  <property name="meta.attr.1.stream.handler_name.markup">SoundHandler</property>
  <property name="meta.attr.1.stream.vendor_id.markup">[0][0][0][0]</property>
  <property name="meta.attr.major_brand.markup">isom</property>
  <property name="meta.attr.minor_version.markup">512</property>
  <property name="meta.attr.compatible_brands.markup">isomiso2avc1mp41</property>
  <property name="meta.attr.encoder.markup">Lavf59.27.100</property>
  <property name="meta.media.sample_aspect_num">1</property>
  <property name="meta.media.sample_aspect_den">1</property>
  <property name="meta.media.frame_rate_num">25</property>
  <property name="meta.media.frame_rate_den">1</property>
  <property name="meta.media.colorspace">709</property>
  <property name="meta.media.color_trc">1</property>
  <property name="meta.media.has_b_frames">2</property>
  <property name="meta.media.width">1920</property>
  <property name="meta.media.height">1080</property>
  <property name="meta.media.color_range">mpeg</property>
  <property name="xml">was here</property>
  <property name="meta.media.top_field_first">0</property>
  <property name="meta.media.progressive">1</property>
  <property name="set.test_audio">1</property>
  <property name="set.test_image">0</property>
  <property name="mute_on_pause">1</property>
 </chain>
 <chain id="chain217" out="00:04:09.960">
  <property name="length">6250</property>
  <property name="eof">pause</property>
  <property name="resource">animation/output/actual-latent-space.mp4</property>
  <property name="mlt_service">avformat-novalidate</property>
  <property name="seekable">1</property>
  <property name="format">3</property>
  <property name="audio_index">-1</property>
  <property name="video_index">0</property>
  <property name="kdenlive:clipname"/>
  <property name="kdenlive:clip_type">2</property>
  <property name="kdenlive:folderid">218</property>
  <property name="kdenlive:id">421</property>
  <property name="kdenlive:file_size">15422944</property>
  <property name="kdenlive:file_hash">85c95f05ae8b75fbd29ed678508da5f1</property>
  <property name="meta.media.nb_streams">1</property>
  <property name="meta.media.0.stream.type">video</property>
  <property name="meta.media.0.stream.frame_rate">60</property>
  <property name="meta.media.0.stream.sample_aspect_ratio">0</property>
  <property name="meta.media.0.codec.width">1920</property>
  <property name="meta.media.0.codec.height">1080</property>
  <property name="meta.media.0.codec.rotate">0</property>
  <property name="meta.media.0.codec.pix_fmt">yuv420p</property>
  <property name="meta.media.0.codec.sample_aspect_ratio">0</property>
  <property name="meta.media.0.codec.colorspace">709</property>
  <property name="meta.media.0.codec.name">h264</property>
  <property name="meta.media.0.codec.long_name">H.264 / AVC / MPEG-4 AVC / MPEG-4 part 10</property>
  <property name="meta.media.0.codec.bit_rate">487802</property>
  <property name="meta.attr.0.stream.handler_name.markup">VideoHandler</property>
  <property name="meta.attr.0.stream.vendor_id.markup">[0][0][0][0]</property>
  <property name="meta.attr.major_brand.markup">isom</property>
  <property name="meta.attr.minor_version.markup">512</property>
  <property name="meta.attr.compatible_brands.markup">isomiso2avc1mp41</property>
  <property name="meta.attr.encoder.markup">Lavf58.24.100</property>
  <property name="meta.media.sample_aspect_num">1</property>
  <property name="meta.media.sample_aspect_den">1</property>
  <property name="meta.media.frame_rate_num">60</property>
  <property name="meta.media.frame_rate_den">1</property>
  <property name="meta.media.colorspace">709</property>
  <property name="meta.media.color_trc">2</property>
  <property name="meta.media.has_b_frames">2</property>
  <property name="meta.media.width">1920</property>
  <property name="meta.media.height">1080</property>
  <property name="meta.media.color_range">mpeg</property>
  <property name="xml">was here</property>
  <property name="meta.media.top_field_first">0</property>
  <property name="meta.media.progressive">1</property>
  <property name="set.test_audio">1</property>
  <property name="set.test_image">0</property>
  <property name="mute_on_pause">1</property>
 </chain>
 <chain id="chain218" out="00:01:02.400">
  <property name="length">1561</property>
  <property name="eof">pause</property>
  <property name="resource">animation/output/laion.mp4</property>
  <property name="mlt_service">avformat-novalidate</property>
  <property name="seekable">1</property>
  <property name="format">3</property>
  <property name="audio_index">-1</property>
  <property name="video_index">0</property>
  <property name="kdenlive:clipname"/>
  <property name="kdenlive:clip_type">2</property>
  <property name="kdenlive:folderid">-1</property>
  <property name="kdenlive:id">611</property>
  <property name="kdenlive:file_size">115000503</property>
  <property name="kdenlive:file_hash">6638235f9f9e3266d10b82319e2c2ed4</property>
  <property name="meta.media.nb_streams">1</property>
  <property name="meta.media.0.stream.type">video</property>
  <property name="meta.media.0.stream.frame_rate">60</property>
  <property name="meta.media.0.stream.sample_aspect_ratio">0</property>
  <property name="meta.media.0.codec.width">1920</property>
  <property name="meta.media.0.codec.height">1080</property>
  <property name="meta.media.0.codec.rotate">0</property>
  <property name="meta.media.0.codec.pix_fmt">yuv420p</property>
  <property name="meta.media.0.codec.sample_aspect_ratio">0</property>
  <property name="meta.media.0.codec.colorspace">709</property>
  <property name="meta.media.0.codec.name">h264</property>
  <property name="meta.media.0.codec.long_name">H.264 / AVC / MPEG-4 AVC / MPEG-4 part 10</property>
  <property name="meta.media.0.codec.bit_rate">14729580</property>
  <property name="meta.attr.0.stream.handler_name.markup">VideoHandler</property>
  <property name="meta.attr.0.stream.vendor_id.markup">[0][0][0][0]</property>
  <property name="meta.attr.major_brand.markup">isom</property>
  <property name="meta.attr.minor_version.markup">512</property>
  <property name="meta.attr.compatible_brands.markup">isomiso2avc1mp41</property>
  <property name="meta.attr.encoder.markup">Lavf58.24.100</property>
  <property name="meta.media.sample_aspect_num">1</property>
  <property name="meta.media.sample_aspect_den">1</property>
  <property name="meta.media.frame_rate_num">60</property>
  <property name="meta.media.frame_rate_den">1</property>
  <property name="meta.media.colorspace">709</property>
  <property name="meta.media.color_trc">2</property>
  <property name="meta.media.has_b_frames">2</property>
  <property name="meta.media.width">1920</property>
  <property name="meta.media.height">1080</property>
  <property name="meta.media.color_range">mpeg</property>
  <property name="xml">was here</property>
  <property name="meta.media.top_field_first">0</property>
  <property name="meta.media.progressive">1</property>
  <property name="set.test_audio">1</property>
  <property name="set.test_image">0</property>
  <property name="mute_on_pause">1</property>
 </chain>
 <producer id="producer556" in="00:00:00.000" out="00:00:28.400">
  <property name="length">711</property>
  <property name="eof">pause</property>
  <property name="resource">1.600000:animation/output/network.mp4</property>
  <property name="aspect_ratio">1</property>
  <property name="meta.media.nb_streams">1</property>
  <property name="meta.media.0.stream.type">video</property>
  <property name="meta.media.0.stream.frame_rate">60</property>
  <property name="meta.media.0.stream.sample_aspect_ratio">0</property>
  <property name="meta.media.0.codec.width">1920</property>
  <property name="meta.media.0.codec.height">1080</property>
  <property name="meta.media.0.codec.rotate">0</property>
  <property name="meta.media.0.codec.pix_fmt">yuv420p</property>
  <property name="meta.media.0.codec.sample_aspect_ratio">0</property>
  <property name="meta.media.0.codec.colorspace">709</property>
  <property name="meta.media.0.codec.name">h264</property>
  <property name="meta.media.0.codec.long_name">H.264 / AVC / MPEG-4 AVC / MPEG-4 part 10</property>
  <property name="meta.media.0.codec.bit_rate">351494</property>
  <property name="meta.attr.0.stream.handler_name.markup">VideoHandler</property>
  <property name="meta.attr.0.stream.vendor_id.markup">[0][0][0][0]</property>
  <property name="meta.attr.major_brand.markup">isom</property>
  <property name="meta.attr.minor_version.markup">512</property>
  <property name="meta.attr.compatible_brands.markup">isomiso2avc1mp41</property>
  <property name="meta.attr.encoder.markup">Lavf58.24.100</property>
  <property name="seekable">1</property>
  <property name="meta.media.sample_aspect_num">1</property>
  <property name="meta.media.sample_aspect_den">1</property>
  <property name="format">3</property>
  <property name="audio_index">-1</property>
  <property name="video_index">0</property>
  <property name="mute_on_pause">1</property>
  <property name="warp_speed">1.6</property>
  <property name="warp_resource">animation/output/network.mp4</property>
  <property name="mlt_service">timewarp</property>
  <property name="set.test_audio">1</property>
  <property name="set.test_image">0</property>
  <property name="kdenlive:id">342</property>
  <property name="warp_pitch">0</property>
  <property name="meta.media.frame_rate_num">60</property>
  <property name="meta.media.frame_rate_den">1</property>
  <property name="meta.media.colorspace">709</property>
  <property name="meta.media.color_trc">2</property>
  <property name="meta.media.has_b_frames">2</property>
  <property name="meta.media.width">1920</property>
  <property name="meta.media.height">1080</property>
  <property name="meta.media.color_range">mpeg</property>
  <property name="meta.media.top_field_first">0</property>
  <property name="meta.media.progressive">1</property>
 </producer>
 <producer id="producer561" in="00:00:00.000" out="00:00:28.400">
  <property name="length">711</property>
  <property name="eof">pause</property>
  <property name="resource">1.600000:animation/output/network.mp4</property>
  <property name="aspect_ratio">1</property>
  <property name="meta.media.nb_streams">1</property>
  <property name="meta.media.0.stream.type">video</property>
  <property name="meta.media.0.stream.frame_rate">60</property>
  <property name="meta.media.0.stream.sample_aspect_ratio">0</property>
  <property name="meta.media.0.codec.width">1920</property>
  <property name="meta.media.0.codec.height">1080</property>
  <property name="meta.media.0.codec.rotate">0</property>
  <property name="meta.media.0.codec.pix_fmt">yuv420p</property>
  <property name="meta.media.0.codec.sample_aspect_ratio">0</property>
  <property name="meta.media.0.codec.colorspace">709</property>
  <property name="meta.media.0.codec.name">h264</property>
  <property name="meta.media.0.codec.long_name">H.264 / AVC / MPEG-4 AVC / MPEG-4 part 10</property>
  <property name="meta.media.0.codec.bit_rate">351494</property>
  <property name="meta.attr.0.stream.handler_name.markup">VideoHandler</property>
  <property name="meta.attr.0.stream.vendor_id.markup">[0][0][0][0]</property>
  <property name="meta.attr.major_brand.markup">isom</property>
  <property name="meta.attr.minor_version.markup">512</property>
  <property name="meta.attr.compatible_brands.markup">isomiso2avc1mp41</property>
  <property name="meta.attr.encoder.markup">Lavf58.24.100</property>
  <property name="seekable">1</property>
  <property name="meta.media.sample_aspect_num">1</property>
  <property name="meta.media.sample_aspect_den">1</property>
  <property name="format">3</property>
  <property name="audio_index">-1</property>
  <property name="video_index">0</property>
  <property name="mute_on_pause">1</property>
  <property name="warp_speed">1.6</property>
  <property name="warp_resource">animation/output/network.mp4</property>
  <property name="mlt_service">timewarp</property>
  <property name="set.test_audio">1</property>
  <property name="set.test_image">0</property>
  <property name="kdenlive:id">342</property>
  <property name="warp_pitch">0</property>
  <property name="meta.media.frame_rate_num">60</property>
  <property name="meta.media.frame_rate_den">1</property>
  <property name="meta.media.colorspace">709</property>
  <property name="meta.media.color_trc">2</property>
  <property name="meta.media.has_b_frames">2</property>
  <property name="meta.media.width">1920</property>
  <property name="meta.media.height">1080</property>
  <property name="meta.media.color_range">mpeg</property>
  <property name="meta.media.top_field_first">0</property>
  <property name="meta.media.progressive">1</property>
 </producer>
 <chain id="chain219" out="00:00:48.720">
  <property name="length">1219</property>
  <property name="eof">pause</property>
  <property name="resource">animation/output/solar-syllogism.mp4</property>
  <property name="mlt_service">avformat-novalidate</property>
  <property name="seekable">1</property>
  <property name="format">3</property>
  <property name="audio_index">-1</property>
  <property name="video_index">0</property>
  <property name="kdenlive:clipname"/>
  <property name="kdenlive:clip_type">2</property>
  <property name="kdenlive:folderid">218</property>
  <property name="kdenlive:id">629</property>
  <property name="kdenlive:file_size">2547259</property>
  <property name="kdenlive:file_hash">ed1c04ae88ed4f288e36aa8529d86831</property>
  <property name="meta.media.nb_streams">1</property>
  <property name="meta.media.0.stream.type">video</property>
  <property name="meta.media.0.stream.frame_rate">60</property>
  <property name="meta.media.0.stream.sample_aspect_ratio">0</property>
  <property name="meta.media.0.codec.width">1920</property>
  <property name="meta.media.0.codec.height">1080</property>
  <property name="meta.media.0.codec.rotate">0</property>
  <property name="meta.media.0.codec.pix_fmt">yuv420p</property>
  <property name="meta.media.0.codec.sample_aspect_ratio">0</property>
  <property name="meta.media.0.codec.colorspace">709</property>
  <property name="meta.media.0.codec.name">h264</property>
  <property name="meta.media.0.codec.long_name">H.264 / AVC / MPEG-4 AVC / MPEG-4 part 10</property>
  <property name="meta.media.0.codec.bit_rate">412109</property>
  <property name="meta.attr.0.stream.handler_name.markup">VideoHandler</property>
  <property name="meta.attr.0.stream.vendor_id.markup">[0][0][0][0]</property>
  <property name="meta.attr.major_brand.markup">isom</property>
  <property name="meta.attr.minor_version.markup">512</property>
  <property name="meta.attr.compatible_brands.markup">isomiso2avc1mp41</property>
  <property name="meta.attr.encoder.markup">Lavf58.24.100</property>
  <property name="meta.media.sample_aspect_num">1</property>
  <property name="meta.media.sample_aspect_den">1</property>
  <property name="meta.media.frame_rate_num">60</property>
  <property name="meta.media.frame_rate_den">1</property>
  <property name="meta.media.colorspace">709</property>
  <property name="meta.media.color_trc">2</property>
  <property name="meta.media.has_b_frames">2</property>
  <property name="meta.media.width">1920</property>
  <property name="meta.media.height">1080</property>
  <property name="meta.media.color_range">mpeg</property>
  <property name="xml">was here</property>
  <property name="meta.media.top_field_first">0</property>
  <property name="meta.media.progressive">1</property>
  <property name="set.test_audio">1</property>
  <property name="set.test_image">0</property>
  <property name="mute_on_pause">1</property>
 </chain>
 <chain id="chain220" out="02:18:58.840">
  <property name="length">208472</property>
  <property name="eof">pause</property>
  <property name="resource">b-roll/AI ART ftï¼š Istebrak, Steven Zapata, Hardy Fowler, Kelsey Rodriguez, Tyler Edlin &amp; Antonio Stappaerts [5JaS7APpO8U].webm</property>
  <property name="mlt_service">avformat-novalidate</property>
  <property name="seekable">1</property>
  <property name="format">3</property>
  <property name="audio_index">1</property>
  <property name="video_index">0</property>
  <property name="kdenlive:clipname"/>
  <property name="kdenlive:clip_type">0</property>
  <property name="kdenlive:folderid">14</property>
  <property name="kdenlive:id">6</property>
  <property name="kdenlive:file_size">845877288</property>
  <property name="kdenlive:file_hash">57847912f2775f5fab12884262152e3d</property>
  <property name="kdenlive:audio_max1">192</property>
  <property name="meta.media.nb_streams">2</property>
  <property name="meta.media.0.stream.type">video</property>
  <property name="meta.media.0.stream.frame_rate">25</property>
  <property name="meta.media.0.stream.sample_aspect_ratio">1</property>
  <property name="meta.media.0.codec.width">1920</property>
  <property name="meta.media.0.codec.height">1080</property>
  <property name="meta.media.0.codec.rotate">0</property>
  <property name="meta.media.0.codec.pix_fmt">yuv420p</property>
  <property name="meta.media.0.codec.sample_aspect_ratio">0</property>
  <property name="meta.media.0.codec.colorspace">709</property>
  <property name="meta.media.0.codec.color_trc">1</property>
  <property name="meta.media.0.codec.name">vp9</property>
  <property name="meta.media.0.codec.long_name">Google VP9</property>
  <property name="meta.media.0.codec.bit_rate">0</property>
  <property name="meta.attr.0.stream.HANDLER_NAME.markup">ISO Media file produced by Google Inc. Created on: 12/09/2023.</property>
  <property name="meta.attr.0.stream.VENDOR_ID.markup">[0][0][0][0]</property>
  <property name="meta.attr.0.stream.DURATION.markup">02:18:58.840000000</property>
  <property name="meta.media.1.stream.type">audio</property>
  <property name="meta.media.1.codec.sample_fmt">fltp</property>
  <property name="meta.media.1.codec.sample_rate">48000</property>
  <property name="meta.media.1.codec.channels">2</property>
  <property name="meta.media.1.codec.name">opus</property>
  <property name="meta.media.1.codec.long_name">Opus</property>
  <property name="meta.media.1.codec.bit_rate">0</property>
  <property name="meta.attr.1.stream.language.markup">eng</property>
  <property name="meta.attr.1.stream.DURATION.markup">02:18:58.881000000</property>
  <property name="meta.attr.COMPATIBLE_BRANDS.markup">iso6mp41</property>
  <property name="meta.attr.MAJOR_BRAND.markup">dash</property>
  <property name="meta.attr.MINOR_VERSION.markup">0</property>
  <property name="meta.attr.ENCODER.markup">Lavf59.27.100</property>
  <property name="meta.media.sample_aspect_num">1</property>
  <property name="meta.media.sample_aspect_den">1</property>
  <property name="meta.media.frame_rate_num">25</property>
  <property name="meta.media.frame_rate_den">1</property>
  <property name="meta.media.colorspace">709</property>
  <property name="meta.media.color_trc">1</property>
  <property name="meta.media.has_b_frames">0</property>
  <property name="meta.media.width">1920</property>
  <property name="meta.media.height">1080</property>
  <property name="meta.media.color_range">mpeg</property>
  <property name="xml">was here</property>
  <property name="meta.media.top_field_first">0</property>
  <property name="meta.media.progressive">1</property>
  <property name="set.test_audio">1</property>
  <property name="set.test_image">0</property>
  <property name="mute_on_pause">1</property>
 </chain>
 <chain id="chain221" out="00:01:19.640">
  <property name="length">1992</property>
  <property name="eof">pause</property>
  <property name="resource">/home/liquidzulu/Videos/yt/b-roll/Castle Bravo(720p).mp4</property>
  <property name="mlt_service">avformat-novalidate</property>
  <property name="seekable">1</property>
  <property name="format">3</property>
  <property name="audio_index">-1</property>
  <property name="video_index">0</property>
  <property name="kdenlive:clipname"/>
  <property name="kdenlive:clip_type">0</property>
  <property name="kdenlive:folderid">-1</property>
  <property name="kdenlive:id">638</property>
  <property name="kdenlive:file_size">3831901</property>
  <property name="kdenlive:file_hash">01f13fff1867cc3b1f2f69bfb80aed4f</property>
  <property name="kdenlive:audio_max1">115</property>
  <property name="kdenlive:active_streams">-1</property>
  <property name="set.test_audio">1</property>
  <property name="meta.media.nb_streams">2</property>
  <property name="meta.media.0.stream.type">video</property>
  <property name="meta.media.0.stream.frame_rate">24</property>
  <property name="meta.media.0.stream.sample_aspect_ratio">0</property>
  <property name="meta.media.0.codec.width">1280</property>
  <property name="meta.media.0.codec.height">720</property>
  <property name="meta.media.0.codec.rotate">0</property>
  <property name="meta.media.0.codec.pix_fmt">yuv420p</property>
  <property name="meta.media.0.codec.sample_aspect_ratio">1</property>
  <property name="meta.media.0.codec.colorspace">601</property>
  <property name="meta.media.0.codec.color_trc">1</property>
  <property name="meta.media.0.codec.name">h264</property>
  <property name="meta.media.0.codec.long_name">H.264 / AVC / MPEG-4 AVC / MPEG-4 part 10</property>
  <property name="meta.media.0.codec.bit_rate">255667</property>
  <property name="meta.attr.0.stream.creation_time.markup">2018-05-01T03:23:59.000000Z</property>
  <property name="meta.attr.0.stream.handler_name.markup">ISO Media file produced by Google Inc. Created on: 04/30/2018.</property>
  <property name="meta.attr.0.stream.vendor_id.markup">[0][0][0][0]</property>
  <property name="meta.media.1.stream.type">audio</property>
  <property name="meta.media.1.codec.sample_fmt">fltp</property>
  <property name="meta.media.1.codec.sample_rate">44100</property>
  <property name="meta.media.1.codec.channels">2</property>
  <property name="meta.media.1.codec.name">aac</property>
  <property name="meta.media.1.codec.long_name">AAC (Advanced Audio Coding)</property>
  <property name="meta.media.1.codec.bit_rate">125611</property>
  <property name="meta.attr.1.stream.creation_time.markup">2018-05-01T03:23:59.000000Z</property>
  <property name="meta.attr.1.stream.language.markup">eng</property>
  <property name="meta.attr.1.stream.handler_name.markup">ISO Media file produced by Google Inc. Created on: 04/30/2018.</property>
  <property name="meta.attr.1.stream.vendor_id.markup">[0][0][0][0]</property>
  <property name="meta.attr.major_brand.markup">mp42</property>
  <property name="meta.attr.minor_version.markup">0</property>
  <property name="meta.attr.compatible_brands.markup">isommp42</property>
  <property name="meta.attr.creation_time.markup">2018-05-01T03:23:59.000000Z</property>
  <property name="meta.media.sample_aspect_num">1</property>
  <property name="meta.media.sample_aspect_den">1</property>
  <property name="meta.media.frame_rate_num">24</property>
  <property name="meta.media.frame_rate_den">1</property>
  <property name="meta.media.colorspace">601</property>
  <property name="meta.media.color_trc">1</property>
  <property name="meta.media.has_b_frames">1</property>
  <property name="meta.media.width">1280</property>
  <property name="meta.media.height">720</property>
  <property name="meta.media.color_range">mpeg</property>
  <property name="xml">was here</property>
  <property name="meta.media.top_field_first">0</property>
  <property name="meta.media.progressive">1</property>
  <property name="set.test_image">0</property>
  <property name="mute_on_pause">1</property>
 </chain>
 <chain id="chain222" out="00:00:18.640">
  <property name="length">467</property>
  <property name="eof">pause</property>
  <property name="resource">animation/output/altruism.mp4</property>
  <property name="mlt_service">avformat-novalidate</property>
  <property name="seekable">1</property>
  <property name="format">3</property>
  <property name="audio_index">-1</property>
  <property name="video_index">0</property>
  <property name="kdenlive:clipname"/>
  <property name="kdenlive:clip_type">2</property>
  <property name="kdenlive:folderid">-1</property>
  <property name="kdenlive:id">683</property>
  <property name="kdenlive:file_size">772437</property>
  <property name="kdenlive:file_hash">201d36ed8a5e681ac41094c0a7fa3440</property>
  <property name="meta.media.nb_streams">1</property>
  <property name="meta.media.0.stream.type">video</property>
  <property name="meta.media.0.stream.frame_rate">60</property>
  <property name="meta.media.0.stream.sample_aspect_ratio">0</property>
  <property name="meta.media.0.codec.width">1920</property>
  <property name="meta.media.0.codec.height">1080</property>
  <property name="meta.media.0.codec.rotate">0</property>
  <property name="meta.media.0.codec.pix_fmt">yuv420p</property>
  <property name="meta.media.0.codec.sample_aspect_ratio">0</property>
  <property name="meta.media.0.codec.colorspace">709</property>
  <property name="meta.media.0.codec.name">h264</property>
  <property name="meta.media.0.codec.long_name">H.264 / AVC / MPEG-4 AVC / MPEG-4 part 10</property>
  <property name="meta.media.0.codec.bit_rate">324709</property>
  <property name="meta.attr.0.stream.handler_name.markup">VideoHandler</property>
  <property name="meta.attr.0.stream.vendor_id.markup">[0][0][0][0]</property>
  <property name="meta.attr.major_brand.markup">isom</property>
  <property name="meta.attr.minor_version.markup">512</property>
  <property name="meta.attr.compatible_brands.markup">isomiso2avc1mp41</property>
  <property name="meta.attr.encoder.markup">Lavf58.24.100</property>
  <property name="meta.media.sample_aspect_num">1</property>
  <property name="meta.media.sample_aspect_den">1</property>
  <property name="meta.media.frame_rate_num">60</property>
  <property name="meta.media.frame_rate_den">1</property>
  <property name="meta.media.colorspace">709</property>
  <property name="meta.media.color_trc">2</property>
  <property name="meta.media.has_b_frames">2</property>
  <property name="meta.media.width">1920</property>
  <property name="meta.media.height">1080</property>
  <property name="meta.media.color_range">mpeg</property>
  <property name="xml">was here</property>
  <property name="meta.media.top_field_first">0</property>
  <property name="meta.media.progressive">1</property>
  <property name="set.test_audio">1</property>
  <property name="set.test_image">0</property>
  <property name="mute_on_pause">1</property>
 </chain>
 <chain id="chain223" out="00:00:05.360">
  <property name="length">135</property>
  <property name="eof">pause</property>
  <property name="resource">animation/output/medieval farmer/medieval farmer.mp4</property>
  <property name="mlt_service">avformat-novalidate</property>
  <property name="seekable">1</property>
  <property name="format">3</property>
  <property name="audio_index">1</property>
  <property name="video_index">0</property>
  <property name="kdenlive:clipname"/>
  <property name="kdenlive:clip_type">0</property>
  <property name="kdenlive:folderid">-1</property>
  <property name="kdenlive:id">706</property>
  <property name="kdenlive:file_size">4898401</property>
  <property name="kdenlive:file_hash">6a52df130ac359c40ed56fb5efe18414</property>
  <property name="kdenlive:audio_max1">1</property>
  <property name="meta.media.nb_streams">2</property>
  <property name="meta.media.0.stream.type">video</property>
  <property name="meta.media.0.stream.frame_rate">25</property>
  <property name="meta.media.0.stream.sample_aspect_ratio">1</property>
  <property name="meta.media.0.codec.width">1920</property>
  <property name="meta.media.0.codec.height">1080</property>
  <property name="meta.media.0.codec.rotate">0</property>
  <property name="meta.media.0.codec.pix_fmt">yuv420p</property>
  <property name="meta.media.0.codec.sample_aspect_ratio">1</property>
  <property name="meta.media.0.codec.colorspace">709</property>
  <property name="meta.media.0.codec.color_trc">1</property>
  <property name="meta.media.0.codec.name">h264</property>
  <property name="meta.media.0.codec.long_name">H.264 / AVC / MPEG-4 AVC / MPEG-4 part 10</property>
  <property name="meta.media.0.codec.bit_rate">7246281</property>
  <property name="meta.attr.0.stream.handler_name.markup">VideoHandler</property>
  <property name="meta.attr.0.stream.vendor_id.markup">[0][0][0][0]</property>
  <property name="meta.media.1.stream.type">audio</property>
  <property name="meta.media.1.codec.sample_fmt">fltp</property>
  <property name="meta.media.1.codec.sample_rate">48000</property>
  <property name="meta.media.1.codec.channels">2</property>
  <property name="meta.media.1.codec.name">aac</property>
  <property name="meta.media.1.codec.long_name">AAC (Advanced Audio Coding)</property>
  <property name="meta.media.1.codec.bit_rate">2275</property>
  <property name="meta.attr.1.stream.handler_name.markup">SoundHandler</property>
  <property name="meta.attr.1.stream.vendor_id.markup">[0][0][0][0]</property>
  <property name="meta.attr.major_brand.markup">isom</property>
  <property name="meta.attr.minor_version.markup">512</property>
  <property name="meta.attr.compatible_brands.markup">isomiso2avc1mp41</property>
  <property name="meta.attr.encoder.markup">Lavf59.27.100</property>
  <property name="meta.media.sample_aspect_num">1</property>
  <property name="meta.media.sample_aspect_den">1</property>
  <property name="meta.media.frame_rate_num">25</property>
  <property name="meta.media.frame_rate_den">1</property>
  <property name="meta.media.colorspace">709</property>
  <property name="meta.media.color_trc">1</property>
  <property name="meta.media.has_b_frames">2</property>
  <property name="meta.media.width">1920</property>
  <property name="meta.media.height">1080</property>
  <property name="meta.media.color_range">mpeg</property>
  <property name="xml">was here</property>
  <property name="meta.media.top_field_first">0</property>
  <property name="meta.media.progressive">1</property>
  <property name="set.test_audio">1</property>
  <property name="set.test_image">0</property>
  <property name="mute_on_pause">1</property>
 </chain>
 <chain id="chain224" out="00:00:14.000">
  <property name="length">351</property>
  <property name="eof">pause</property>
  <property name="resource">animation/output/worry-about-ai.mp4</property>
  <property name="mlt_service">avformat-novalidate</property>
  <property name="seekable">1</property>
  <property name="format">3</property>
  <property name="audio_index">-1</property>
  <property name="video_index">0</property>
  <property name="kdenlive:clipname"/>
  <property name="kdenlive:clip_type">2</property>
  <property name="kdenlive:folderid">-1</property>
  <property name="kdenlive:id">709</property>
  <property name="kdenlive:file_size">255329</property>
  <property name="kdenlive:file_hash">7cfef77dfe064c1bb1206e598a66a1ff</property>
  <property name="meta.media.nb_streams">1</property>
  <property name="meta.media.0.stream.type">video</property>
  <property name="meta.media.0.stream.frame_rate">30</property>
  <property name="meta.media.0.stream.sample_aspect_ratio">0</property>
  <property name="meta.media.0.codec.width">1920</property>
  <property name="meta.media.0.codec.height">1080</property>
  <property name="meta.media.0.codec.rotate">0</property>
  <property name="meta.media.0.codec.pix_fmt">yuv420p</property>
  <property name="meta.media.0.codec.sample_aspect_ratio">0</property>
  <property name="meta.media.0.codec.colorspace">709</property>
  <property name="meta.media.0.codec.name">h264</property>
  <property name="meta.media.0.codec.long_name">H.264 / AVC / MPEG-4 AVC / MPEG-4 part 10</property>
  <property name="meta.media.0.codec.bit_rate">142219</property>
  <property name="meta.attr.0.stream.handler_name.markup">VideoHandler</property>
  <property name="meta.attr.0.stream.vendor_id.markup">[0][0][0][0]</property>
  <property name="meta.attr.major_brand.markup">isom</property>
  <property name="meta.attr.minor_version.markup">512</property>
  <property name="meta.attr.compatible_brands.markup">isomiso2avc1mp41</property>
  <property name="meta.attr.encoder.markup">Lavf58.24.100</property>
  <property name="meta.media.sample_aspect_num">1</property>
  <property name="meta.media.sample_aspect_den">1</property>
  <property name="meta.media.frame_rate_num">30</property>
  <property name="meta.media.frame_rate_den">1</property>
  <property name="meta.media.colorspace">709</property>
  <property name="meta.media.color_trc">2</property>
  <property name="meta.media.has_b_frames">2</property>
  <property name="meta.media.width">1920</property>
  <property name="meta.media.height">1080</property>
  <property name="meta.media.color_range">mpeg</property>
  <property name="xml">was here</property>
  <property name="meta.media.top_field_first">0</property>
  <property name="meta.media.progressive">1</property>
  <property name="set.test_audio">1</property>
  <property name="set.test_image">0</property>
  <property name="mute_on_pause">1</property>
 </chain>
 <chain id="chain225" out="00:01:58.280">
  <property name="length">2958</property>
  <property name="eof">pause</property>
  <property name="resource">b-roll/Secret Invasion intro [iqnBJHU7si4].webm</property>
  <property name="mlt_service">avformat-novalidate</property>
  <property name="seekable">1</property>
  <property name="format">3</property>
  <property name="audio_index">-1</property>
  <property name="video_index">0</property>
  <property name="kdenlive:clipname"/>
  <property name="kdenlive:clip_type">0</property>
  <property name="kdenlive:folderid">14</property>
  <property name="kdenlive:id">718</property>
  <property name="kdenlive:file_size">58075441</property>
  <property name="kdenlive:file_hash">58504fb052f6d6b50cd3bc3b0d7fb731</property>
  <property name="kdenlive:audio_max1">197</property>
  <property name="kdenlive:active_streams">-1</property>
  <property name="set.test_audio">1</property>
  <property name="meta.media.nb_streams">2</property>
  <property name="meta.media.0.stream.type">video</property>
  <property name="meta.media.0.stream.frame_rate">30</property>
  <property name="meta.media.0.stream.sample_aspect_ratio">1</property>
  <property name="meta.media.0.codec.width">2260</property>
  <property name="meta.media.0.codec.height">1080</property>
  <property name="meta.media.0.codec.rotate">0</property>
  <property name="meta.media.0.codec.pix_fmt">yuv420p</property>
  <property name="meta.media.0.codec.sample_aspect_ratio">0</property>
  <property name="meta.media.0.codec.colorspace">601</property>
  <property name="meta.media.0.codec.color_trc">1</property>
  <property name="meta.media.0.codec.name">vp9</property>
  <property name="meta.media.0.codec.long_name">Google VP9</property>
  <property name="meta.media.0.codec.bit_rate">0</property>
  <property name="meta.attr.0.stream.language.markup">eng</property>
  <property name="meta.attr.0.stream.DURATION.markup">00:01:58.300000000</property>
  <property name="meta.media.1.stream.type">audio</property>
  <property name="meta.media.1.codec.sample_fmt">fltp</property>
  <property name="meta.media.1.codec.sample_rate">48000</property>
  <property name="meta.media.1.codec.channels">2</property>
  <property name="meta.media.1.codec.name">opus</property>
  <property name="meta.media.1.codec.long_name">Opus</property>
  <property name="meta.media.1.codec.bit_rate">0</property>
  <property name="meta.attr.1.stream.language.markup">eng</property>
  <property name="meta.attr.1.stream.DURATION.markup">00:01:58.321000000</property>
  <property name="meta.attr.ENCODER.markup">Lavf59.27.100</property>
  <property name="meta.media.sample_aspect_num">1</property>
  <property name="meta.media.sample_aspect_den">1</property>
  <property name="meta.media.frame_rate_num">30</property>
  <property name="meta.media.frame_rate_den">1</property>
  <property name="meta.media.colorspace">601</property>
  <property name="meta.media.color_trc">1</property>
  <property name="meta.media.has_b_frames">0</property>
  <property name="meta.media.width">2260</property>
  <property name="meta.media.height">1080</property>
  <property name="meta.media.color_range">mpeg</property>
  <property name="xml">was here</property>
  <property name="meta.media.top_field_first">0</property>
  <property name="meta.media.progressive">1</property>
  <property name="set.test_image">0</property>
  <property name="mute_on_pause">1</property>
 </chain>
 <chain id="chain232" out="00:00:08.160">
  <property name="length">205</property>
  <property name="eof">pause</property>
  <property name="resource">videos/VID_20231001_161322.mp4</property>
  <property name="mlt_service">avformat-novalidate</property>
  <property name="seekable">1</property>
  <property name="format">3</property>
  <property name="audio_index">1</property>
  <property name="video_index">0</property>
  <property name="kdenlive:clipname"/>
  <property name="kdenlive:clip_type">0</property>
  <property name="kdenlive:folderid">-1</property>
  <property name="kdenlive:id">740</property>
  <property name="kdenlive:file_size">43796392</property>
  <property name="kdenlive:file_hash">08110d7840c797a108e9b5272feb7e9c</property>
  <property name="kdenlive:audio_max1">70</property>
  <property name="meta.media.nb_streams">2</property>
  <property name="meta.media.0.stream.type">video</property>
  <property name="meta.media.0.stream.frame_rate">29.9022</property>
  <property name="meta.media.0.stream.sample_aspect_ratio">0</property>
  <property name="meta.media.0.codec.width">3840</property>
  <property name="meta.media.0.codec.height">2160</property>
  <property name="meta.media.0.codec.rotate">0</property>
  <property name="meta.media.0.codec.pix_fmt">yuvj420p</property>
  <property name="meta.media.0.codec.sample_aspect_ratio">0</property>
  <property name="meta.media.0.codec.colorspace">601</property>
  <property name="meta.media.0.codec.color_trc">6</property>
  <property name="meta.media.0.codec.name">h264</property>
  <property name="meta.media.0.codec.long_name">H.264 / AVC / MPEG-4 AVC / MPEG-4 part 10</property>
  <property name="meta.media.0.codec.bit_rate">42662534</property>
  <property name="meta.attr.0.stream.creation_time.markup">2023-10-01T15:13:31.000000Z</property>
  <property name="meta.attr.0.stream.language.markup">eng</property>
  <property name="meta.attr.0.stream.handler_name.markup">VideoHandle</property>
  <property name="meta.attr.0.stream.vendor_id.markup">[0][0][0][0]</property>
  <property name="meta.media.1.stream.type">audio</property>
  <property name="meta.media.1.codec.sample_fmt">fltp</property>
  <property name="meta.media.1.codec.sample_rate">48000</property>
  <property name="meta.media.1.codec.channels">1</property>
  <property name="meta.media.1.codec.name">aac</property>
  <property name="meta.media.1.codec.long_name">AAC (Advanced Audio Coding)</property>
  <property name="meta.media.1.codec.bit_rate">96150</property>
  <property name="meta.attr.1.stream.creation_time.markup">2023-10-01T15:13:31.000000Z</property>
  <property name="meta.attr.1.stream.language.markup">eng</property>
  <property name="meta.attr.1.stream.handler_name.markup">SoundHandle</property>
  <property name="meta.attr.1.stream.vendor_id.markup">[0][0][0][0]</property>
  <property name="meta.attr.major_brand.markup">mp42</property>
  <property name="meta.attr.minor_version.markup">0</property>
  <property name="meta.attr.compatible_brands.markup">isommp42</property>
  <property name="meta.attr.creation_time.markup">2023-10-01T15:13:31.000000Z</property>
  <property name="meta.attr.com.android.version.markup">12</property>
  <property name="meta.media.sample_aspect_num">1</property>
  <property name="meta.media.sample_aspect_den">1</property>
  <property name="meta.media.frame_rate_num">5512500</property>
  <property name="meta.media.frame_rate_den">184351</property>
  <property name="meta.media.colorspace">601</property>
  <property name="meta.media.color_trc">6</property>
  <property name="meta.media.has_b_frames">0</property>
  <property name="meta.media.width">3840</property>
  <property name="meta.media.height">2160</property>
  <property name="meta.media.color_range">full</property>
  <property name="xml">was here</property>
  <property name="meta.media.top_field_first">0</property>
  <property name="meta.media.progressive">1</property>
  <property name="set.test_audio">1</property>
  <property name="set.test_image">0</property>
  <property name="mute_on_pause">1</property>
 </chain>
 <chain id="chain251" out="00:00:14.760">
  <property name="length">370</property>
  <property name="eof">pause</property>
  <property name="resource">animation/output/more-efficient-youtubers.mp4</property>
  <property name="mlt_service">avformat-novalidate</property>
  <property name="seekable">1</property>
  <property name="format">3</property>
  <property name="audio_index">-1</property>
  <property name="video_index">0</property>
  <property name="kdenlive:clipname"/>
  <property name="kdenlive:clip_type">2</property>
  <property name="kdenlive:folderid">-1</property>
  <property name="kdenlive:id">741</property>
  <property name="kdenlive:file_size">1628568</property>
  <property name="kdenlive:file_hash">138e89d4918d04c8adaa01465bf84381</property>
  <property name="meta.media.nb_streams">1</property>
  <property name="meta.media.0.stream.type">video</property>
  <property name="meta.media.0.stream.frame_rate">60</property>
  <property name="meta.media.0.stream.sample_aspect_ratio">0</property>
  <property name="meta.media.0.codec.width">1920</property>
  <property name="meta.media.0.codec.height">1080</property>
  <property name="meta.media.0.codec.rotate">0</property>
  <property name="meta.media.0.codec.pix_fmt">yuv420p</property>
  <property name="meta.media.0.codec.sample_aspect_ratio">0</property>
  <property name="meta.media.0.codec.colorspace">709</property>
  <property name="meta.media.0.codec.name">h264</property>
  <property name="meta.media.0.codec.long_name">H.264 / AVC / MPEG-4 AVC / MPEG-4 part 10</property>
  <property name="meta.media.0.codec.bit_rate">874118</property>
  <property name="meta.attr.0.stream.handler_name.markup">VideoHandler</property>
  <property name="meta.attr.0.stream.vendor_id.markup">[0][0][0][0]</property>
  <property name="meta.attr.major_brand.markup">isom</property>
  <property name="meta.attr.minor_version.markup">512</property>
  <property name="meta.attr.compatible_brands.markup">isomiso2avc1mp41</property>
  <property name="meta.attr.encoder.markup">Lavf58.24.100</property>
  <property name="meta.media.sample_aspect_num">1</property>
  <property name="meta.media.sample_aspect_den">1</property>
  <property name="meta.media.frame_rate_num">60</property>
  <property name="meta.media.frame_rate_den">1</property>
  <property name="meta.media.colorspace">709</property>
  <property name="meta.media.color_trc">2</property>
  <property name="meta.media.has_b_frames">2</property>
  <property name="meta.media.width">1920</property>
  <property name="meta.media.height">1080</property>
  <property name="meta.media.color_range">mpeg</property>
  <property name="xml">was here</property>
  <property name="meta.media.top_field_first">0</property>
  <property name="meta.media.progressive">1</property>
  <property name="set.test_audio">1</property>
  <property name="set.test_image">0</property>
  <property name="mute_on_pause">1</property>
 </chain>
 <chain id="chain252" out="00:01:45.400">
  <property name="length">2636</property>
  <property name="eof">pause</property>
  <property name="resource">animation/output/efficient-vs-inefficient.mp4</property>
  <property name="mlt_service">avformat-novalidate</property>
  <property name="seekable">1</property>
  <property name="format">3</property>
  <property name="audio_index">-1</property>
  <property name="video_index">0</property>
  <property name="kdenlive:clipname"/>
  <property name="kdenlive:clip_type">2</property>
  <property name="kdenlive:folderid">218</property>
  <property name="kdenlive:id">490</property>
  <property name="kdenlive:file_size">13916333</property>
  <property name="kdenlive:file_hash">c89fef2b8f4f93ea0d4632d119675bb2</property>
  <property name="meta.media.nb_streams">1</property>
  <property name="meta.media.0.stream.type">video</property>
  <property name="meta.media.0.stream.frame_rate">60</property>
  <property name="meta.media.0.stream.sample_aspect_ratio">0</property>
  <property name="meta.media.0.codec.width">1920</property>
  <property name="meta.media.0.codec.height">1080</property>
  <property name="meta.media.0.codec.rotate">0</property>
  <property name="meta.media.0.codec.pix_fmt">yuv420p</property>
  <property name="meta.media.0.codec.sample_aspect_ratio">0</property>
  <property name="meta.media.0.codec.colorspace">709</property>
  <property name="meta.media.0.codec.name">h264</property>
  <property name="meta.media.0.codec.long_name">H.264 / AVC / MPEG-4 AVC / MPEG-4 part 10</property>
  <property name="meta.media.0.codec.bit_rate">1050365</property>
  <property name="meta.attr.0.stream.handler_name.markup">VideoHandler</property>
  <property name="meta.attr.0.stream.vendor_id.markup">[0][0][0][0]</property>
  <property name="meta.attr.major_brand.markup">isom</property>
  <property name="meta.attr.minor_version.markup">512</property>
  <property name="meta.attr.compatible_brands.markup">isomiso2avc1mp41</property>
  <property name="meta.attr.encoder.markup">Lavf58.24.100</property>
  <property name="meta.media.sample_aspect_num">1</property>
  <property name="meta.media.sample_aspect_den">1</property>
  <property name="meta.media.frame_rate_num">60</property>
  <property name="meta.media.frame_rate_den">1</property>
  <property name="meta.media.colorspace">709</property>
  <property name="meta.media.color_trc">2</property>
  <property name="meta.media.has_b_frames">2</property>
  <property name="meta.media.width">1920</property>
  <property name="meta.media.height">1080</property>
  <property name="meta.media.color_range">mpeg</property>
  <property name="xml">was here</property>
  <property name="meta.media.top_field_first">0</property>
  <property name="meta.media.progressive">1</property>
  <property name="set.test_audio">1</property>
  <property name="set.test_image">0</property>
  <property name="mute_on_pause">1</property>
 </chain>
 <chain id="chain253" out="00:49:38.320">
  <property name="length">74459</property>
  <property name="eof">pause</property>
  <property name="resource">/home/liquidzulu/Videos/yt/lectures/The Future of Austrian Economics ï½œ Murray N. Rothbard [KWdUIuID8ag].mp4</property>
  <property name="mlt_service">avformat-novalidate</property>
  <property name="seekable">1</property>
  <property name="format">3</property>
  <property name="audio_index">-1</property>
  <property name="video_index">0</property>
  <property name="kdenlive:clipname"/>
  <property name="kdenlive:clip_type">0</property>
  <property name="kdenlive:folderid">-1</property>
  <property name="kdenlive:id">742</property>
  <property name="kdenlive:file_size">139670503</property>
  <property name="kdenlive:file_hash">f85c029a0f5a412ac656de51f79e8566</property>
  <property name="kdenlive:audio_max1">200</property>
  <property name="kdenlive:active_streams">-1</property>
  <property name="set.test_audio">1</property>
  <property name="meta.media.nb_streams">2</property>
  <property name="meta.media.0.stream.type">video</property>
  <property name="meta.media.0.stream.frame_rate">30</property>
  <property name="meta.media.0.stream.sample_aspect_ratio">1</property>
  <property name="meta.media.0.codec.width">320</property>
  <property name="meta.media.0.codec.height">240</property>
  <property name="meta.media.0.codec.rotate">0</property>
  <property name="meta.media.0.codec.pix_fmt">yuv420p</property>
  <property name="meta.media.0.codec.sample_aspect_ratio">1</property>
  <property name="meta.media.0.codec.colorspace">601</property>
  <property name="meta.media.0.codec.name">h264</property>
  <property name="meta.media.0.codec.long_name">H.264 / AVC / MPEG-4 AVC / MPEG-4 part 10</property>
  <property name="meta.media.0.codec.bit_rate">242418</property>
  <property name="meta.attr.0.stream.handler_name.markup">VideoHandler</property>
  <property name="meta.attr.0.stream.vendor_id.markup">[0][0][0][0]</property>
  <property name="meta.media.1.stream.type">audio</property>
  <property name="meta.media.1.codec.sample_fmt">fltp</property>
  <property name="meta.media.1.codec.sample_rate">44100</property>
  <property name="meta.media.1.codec.channels">2</property>
  <property name="meta.media.1.codec.name">aac</property>
  <property name="meta.media.1.codec.long_name">AAC (Advanced Audio Coding)</property>
  <property name="meta.media.1.codec.bit_rate">125588</property>
  <property name="meta.attr.1.stream.handler_name.markup">SoundHandler</property>
  <property name="meta.attr.1.stream.vendor_id.markup">[0][0][0][0]</property>
  <property name="meta.attr.major_brand.markup">isom</property>
  <property name="meta.attr.minor_version.markup">512</property>
  <property name="meta.attr.compatible_brands.markup">isomiso2avc1mp41</property>
  <property name="meta.attr.encoder.markup">Lavf59.27.100</property>
  <property name="meta.media.sample_aspect_num">1</property>
  <property name="meta.media.sample_aspect_den">1</property>
  <property name="meta.media.frame_rate_num">30</property>
  <property name="meta.media.frame_rate_den">1</property>
  <property name="meta.media.colorspace">601</property>
  <property name="meta.media.color_trc">2</property>
  <property name="meta.media.has_b_frames">0</property>
  <property name="meta.media.width">320</property>
  <property name="meta.media.height">240</property>
  <property name="meta.media.color_range">mpeg</property>
  <property name="xml">was here</property>
  <property name="meta.media.top_field_first">0</property>
  <property name="meta.media.progressive">1</property>
  <property name="set.test_image">0</property>
  <property name="mute_on_pause">1</property>
 </chain>
 <chain id="chain255" out="00:01:59.440">
  <property name="length">2987</property>
  <property name="eof">pause</property>
  <property name="resource">/home/liquidzulu/Videos/yt/b-roll/The Return of Vladimir Lenin [YKNSb6jatMA].mp4</property>
  <property name="mlt_service">avformat-novalidate</property>
  <property name="seekable">1</property>
  <property name="format">3</property>
  <property name="audio_index">-1</property>
  <property name="video_index">0</property>
  <property name="kdenlive:clipname"/>
  <property name="kdenlive:clip_type">0</property>
  <property name="kdenlive:folderid">14</property>
  <property name="kdenlive:id">750</property>
  <property name="kdenlive:file_size">27811920</property>
  <property name="kdenlive:file_hash">12fc96a1e9433f68d5f043bfacef9efb</property>
  <property name="kdenlive:audio_max1">164</property>
  <property name="kdenlive:active_streams">-1</property>
  <property name="set.test_audio">1</property>
  <property name="meta.media.nb_streams">2</property>
  <property name="meta.media.0.stream.type">video</property>
  <property name="meta.media.0.stream.frame_rate">24</property>
  <property name="meta.media.0.stream.sample_aspect_ratio">1</property>
  <property name="meta.media.0.codec.width">1920</property>
  <property name="meta.media.0.codec.height">1080</property>
  <property name="meta.media.0.codec.rotate">0</property>
  <property name="meta.media.0.codec.pix_fmt">yuv420p</property>
  <property name="meta.media.0.codec.sample_aspect_ratio">1</property>
  <property name="meta.media.0.codec.colorspace">709</property>
  <property name="meta.media.0.codec.color_trc">1</property>
  <property name="meta.media.0.codec.name">h264</property>
  <property name="meta.media.0.codec.long_name">H.264 / AVC / MPEG-4 AVC / MPEG-4 part 10</property>
  <property name="meta.media.0.codec.bit_rate">1729186</property>
  <property name="meta.attr.0.stream.handler_name.markup">ISO Media file produced by Google Inc.</property>
  <property name="meta.attr.0.stream.vendor_id.markup">[0][0][0][0]</property>
  <property name="meta.media.1.stream.type">audio</property>
  <property name="meta.media.1.codec.sample_fmt">fltp</property>
  <property name="meta.media.1.codec.sample_rate">44100</property>
  <property name="meta.media.1.codec.channels">2</property>
  <property name="meta.media.1.codec.name">aac</property>
  <property name="meta.media.1.codec.long_name">AAC (Advanced Audio Coding)</property>
  <property name="meta.media.1.codec.bit_rate">127999</property>
  <property name="meta.attr.1.stream.handler_name.markup">ISO Media file produced by Google Inc.</property>
  <property name="meta.attr.1.stream.vendor_id.markup">[0][0][0][0]</property>
  <property name="meta.attr.major_brand.markup">isom</property>
  <property name="meta.attr.minor_version.markup">512</property>
  <property name="meta.attr.compatible_brands.markup">isomiso2avc1mp41</property>
  <property name="meta.attr.encoder.markup">Lavf59.27.100</property>
  <property name="meta.media.sample_aspect_num">1</property>
  <property name="meta.media.sample_aspect_den">1</property>
  <property name="meta.media.frame_rate_num">24</property>
  <property name="meta.media.frame_rate_den">1</property>
  <property name="meta.media.colorspace">709</property>
  <property name="meta.media.color_trc">1</property>
  <property name="meta.media.has_b_frames">1</property>
  <property name="meta.media.width">1920</property>
  <property name="meta.media.height">1080</property>
  <property name="meta.media.color_range">mpeg</property>
  <property name="xml">was here</property>
  <property name="meta.media.top_field_first">0</property>
  <property name="meta.media.progressive">1</property>
  <property name="set.test_image">0</property>
  <property name="mute_on_pause">1</property>
 </chain>
 <chain id="chain256" out="00:00:06.360">
  <property name="length">160</property>
  <property name="eof">pause</property>
  <property name="resource">animation/output/ai-art-theft-tweets.mp4</property>
  <property name="mlt_service">avformat-novalidate</property>
  <property name="seekable">1</property>
  <property name="format">3</property>
  <property name="audio_index">-1</property>
  <property name="video_index">0</property>
  <property name="kdenlive:clipname"/>
  <property name="kdenlive:clip_type">2</property>
  <property name="kdenlive:folderid">-1</property>
  <property name="kdenlive:id">762</property>
  <property name="kdenlive:file_size">1041696</property>
  <property name="kdenlive:file_hash">83c03dc0db67891a9a94bf97ec196e96</property>
  <property name="meta.media.nb_streams">1</property>
  <property name="meta.media.0.stream.type">video</property>
  <property name="meta.media.0.stream.frame_rate">60</property>
  <property name="meta.media.0.stream.sample_aspect_ratio">0</property>
  <property name="meta.media.0.codec.width">1920</property>
  <property name="meta.media.0.codec.height">1080</property>
  <property name="meta.media.0.codec.rotate">0</property>
  <property name="meta.media.0.codec.pix_fmt">yuv420p</property>
  <property name="meta.media.0.codec.sample_aspect_ratio">0</property>
  <property name="meta.media.0.codec.colorspace">709</property>
  <property name="meta.media.0.codec.name">h264</property>
  <property name="meta.media.0.codec.long_name">H.264 / AVC / MPEG-4 AVC / MPEG-4 part 10</property>
  <property name="meta.media.0.codec.bit_rate">1292020</property>
  <property name="meta.attr.0.stream.handler_name.markup">VideoHandler</property>
  <property name="meta.attr.0.stream.vendor_id.markup">[0][0][0][0]</property>
  <property name="meta.attr.major_brand.markup">isom</property>
  <property name="meta.attr.minor_version.markup">512</property>
  <property name="meta.attr.compatible_brands.markup">isomiso2avc1mp41</property>
  <property name="meta.attr.encoder.markup">Lavf58.24.100</property>
  <property name="meta.media.sample_aspect_num">1</property>
  <property name="meta.media.sample_aspect_den">1</property>
  <property name="meta.media.frame_rate_num">60</property>
  <property name="meta.media.frame_rate_den">1</property>
  <property name="meta.media.colorspace">709</property>
  <property name="meta.media.color_trc">2</property>
  <property name="meta.media.has_b_frames">2</property>
  <property name="meta.media.width">1920</property>
  <property name="meta.media.height">1080</property>
  <property name="meta.media.color_range">mpeg</property>
  <property name="xml">was here</property>
  <property name="meta.media.top_field_first">0</property>
  <property name="meta.media.progressive">1</property>
  <property name="set.test_audio">1</property>
  <property name="set.test_image">0</property>
  <property name="mute_on_pause">1</property>
 </chain>
 <chain id="chain257" out="00:03:54.400">
  <property name="length">5861</property>
  <property name="eof">pause</property>
  <property name="resource">/home/liquidzulu/Videos/yt/b-roll/Violent chimpanzee attack - Planet Earth - BBC wildlife [a7XuXi3mqYM].webm</property>
  <property name="mlt_service">avformat-novalidate</property>
  <property name="seekable">1</property>
  <property name="format">3</property>
  <property name="audio_index">-1</property>
  <property name="video_index">0</property>
  <property name="kdenlive:clipname"/>
  <property name="kdenlive:clip_type">0</property>
  <property name="kdenlive:folderid">-1</property>
  <property name="kdenlive:id">769</property>
  <property name="kdenlive:file_size">14708042</property>
  <property name="kdenlive:file_hash">7c3e48a4095d6f31b81a10827774940b</property>
  <property name="kdenlive:audio_max1">180</property>
  <property name="kdenlive:active_streams">-1</property>
  <property name="set.test_audio">1</property>
  <property name="meta.media.nb_streams">2</property>
  <property name="meta.media.0.stream.type">video</property>
  <property name="meta.media.0.stream.frame_rate">25</property>
  <property name="meta.media.0.stream.sample_aspect_ratio">1</property>
  <property name="meta.media.0.codec.width">640</property>
  <property name="meta.media.0.codec.height">360</property>
  <property name="meta.media.0.codec.rotate">0</property>
  <property name="meta.media.0.codec.pix_fmt">yuv420p</property>
  <property name="meta.media.0.codec.sample_aspect_ratio">0</property>
  <property name="meta.media.0.codec.colorspace">709</property>
  <property name="meta.media.0.codec.color_trc">1</property>
  <property name="meta.media.0.codec.name">vp9</property>
  <property name="meta.media.0.codec.long_name">Google VP9</property>
  <property name="meta.media.0.codec.bit_rate">0</property>
  <property name="meta.attr.0.stream.language.markup">eng</property>
  <property name="meta.attr.0.stream.DURATION.markup">00:03:54.400000000</property>
  <property name="meta.media.1.stream.type">audio</property>
  <property name="meta.media.1.codec.sample_fmt">fltp</property>
  <property name="meta.media.1.codec.sample_rate">48000</property>
  <property name="meta.media.1.codec.channels">2</property>
  <property name="meta.media.1.codec.name">opus</property>
  <property name="meta.media.1.codec.long_name">Opus</property>
  <property name="meta.media.1.codec.bit_rate">0</property>
  <property name="meta.attr.1.stream.language.markup">eng</property>
  <property name="meta.attr.1.stream.DURATION.markup">00:03:54.421000000</property>
  <property name="meta.attr.ENCODER.markup">Lavf59.27.100</property>
  <property name="meta.media.sample_aspect_num">1</property>
  <property name="meta.media.sample_aspect_den">1</property>
  <property name="meta.media.frame_rate_num">25</property>
  <property name="meta.media.frame_rate_den">1</property>
  <property name="meta.media.colorspace">709</property>
  <property name="meta.media.color_trc">1</property>
  <property name="meta.media.has_b_frames">0</property>
  <property name="meta.media.width">640</property>
  <property name="meta.media.height">360</property>
  <property name="meta.media.color_range">mpeg</property>
  <property name="xml">was here</property>
  <property name="meta.media.top_field_first">0</property>
  <property name="meta.media.progressive">1</property>
  <property name="set.test_image">0</property>
  <property name="mute_on_pause">1</property>
 </chain>
 <chain id="chain258" out="01:39:18.480">
  <property name="length">148963</property>
  <property name="eof">pause</property>
  <property name="resource">b-roll/AI Ethics, Artists, and What You Can Do About It [Nn_w3MnCyDY].webm</property>
  <property name="mlt_service">avformat-novalidate</property>
  <property name="seekable">1</property>
  <property name="format">3</property>
  <property name="audio_index">1</property>
  <property name="video_index">0</property>
  <property name="kdenlive:clipname"/>
  <property name="kdenlive:clip_type">0</property>
  <property name="kdenlive:folderid">14</property>
  <property name="kdenlive:id">7</property>
  <property name="kdenlive:file_size">7320919605</property>
  <property name="kdenlive:file_hash">305a2e1f8f3b9e51e9a0da642870036e</property>
  <property name="kdenlive:audio_max1">220</property>
  <property name="meta.media.nb_streams">2</property>
  <property name="meta.media.0.stream.type">video</property>
  <property name="meta.media.0.stream.frame_rate">23.976</property>
  <property name="meta.media.0.stream.sample_aspect_ratio">1</property>
  <property name="meta.media.0.codec.width">3840</property>
  <property name="meta.media.0.codec.height">2160</property>
  <property name="meta.media.0.codec.rotate">0</property>
  <property name="meta.media.0.codec.pix_fmt">yuv420p</property>
  <property name="meta.media.0.codec.sample_aspect_ratio">0</property>
  <property name="meta.media.0.codec.colorspace">709</property>
  <property name="meta.media.0.codec.color_trc">1</property>
  <property name="meta.media.0.codec.name">vp9</property>
  <property name="meta.media.0.codec.long_name">Google VP9</property>
  <property name="meta.media.0.codec.bit_rate">0</property>
  <property name="meta.attr.0.stream.language.markup">eng</property>
  <property name="meta.attr.0.stream.DURATION.markup">01:39:18.493000000</property>
  <property name="meta.media.1.stream.type">audio</property>
  <property name="meta.media.1.codec.sample_fmt">fltp</property>
  <property name="meta.media.1.codec.sample_rate">48000</property>
  <property name="meta.media.1.codec.channels">2</property>
  <property name="meta.media.1.codec.name">opus</property>
  <property name="meta.media.1.codec.long_name">Opus</property>
  <property name="meta.media.1.codec.bit_rate">0</property>
  <property name="meta.attr.1.stream.language.markup">eng</property>
  <property name="meta.attr.1.stream.DURATION.markup">01:39:18.521000000</property>
  <property name="meta.attr.ENCODER.markup">Lavf59.27.100</property>
  <property name="meta.media.sample_aspect_num">1</property>
  <property name="meta.media.sample_aspect_den">1</property>
  <property name="meta.media.frame_rate_num">24000</property>
  <property name="meta.media.frame_rate_den">1001</property>
  <property name="meta.media.colorspace">709</property>
  <property name="meta.media.color_trc">1</property>
  <property name="meta.media.has_b_frames">0</property>
  <property name="meta.media.width">3840</property>
  <property name="meta.media.height">2160</property>
  <property name="meta.media.color_range">mpeg</property>
  <property name="xml">was here</property>
  <property name="meta.media.top_field_first">0</property>
  <property name="meta.media.progressive">1</property>
  <property name="set.test_audio">1</property>
  <property name="set.test_image">0</property>
  <property name="mute_on_pause">1</property>
 </chain>
 <chain id="chain265" out="01:22:01.600">
  <property name="length">123041</property>
  <property name="eof">pause</property>
  <property name="resource">b-roll/What AI Developers Want Artists to Know about AI [K_Bqq09Kaxk].webm</property>
  <property name="mlt_service">avformat-novalidate</property>
  <property name="seekable">1</property>
  <property name="format">3</property>
  <property name="audio_index">-1</property>
  <property name="video_index">0</property>
  <property name="kdenlive:clipname"/>
  <property name="kdenlive:clip_type">0</property>
  <property name="kdenlive:folderid">-1</property>
  <property name="kdenlive:id">802</property>
  <property name="kdenlive:file_size">3592761928</property>
  <property name="kdenlive:file_hash">f7e2115834d4f040c7740feec4df662d</property>
  <property name="kdenlive:audio_max1">229</property>
  <property name="kdenlive:active_streams">-1</property>
  <property name="set.test_audio">1</property>
  <property name="meta.media.nb_streams">2</property>
  <property name="meta.media.0.stream.type">video</property>
  <property name="meta.media.0.stream.frame_rate">23.976</property>
  <property name="meta.media.0.stream.sample_aspect_ratio">1</property>
  <property name="meta.media.0.codec.width">3840</property>
  <property name="meta.media.0.codec.height">2160</property>
  <property name="meta.media.0.codec.rotate">0</property>
  <property name="meta.media.0.codec.pix_fmt">yuv420p</property>
  <property name="meta.media.0.codec.sample_aspect_ratio">0</property>
  <property name="meta.media.0.codec.colorspace">709</property>
  <property name="meta.media.0.codec.color_trc">1</property>
  <property name="meta.media.0.codec.name">vp9</property>
  <property name="meta.media.0.codec.long_name">Google VP9</property>
  <property name="meta.media.0.codec.bit_rate">0</property>
  <property name="meta.attr.0.stream.language.markup">eng</property>
  <property name="meta.attr.0.stream.DURATION.markup">01:22:01.625000000</property>
  <property name="meta.media.1.stream.type">audio</property>
  <property name="meta.media.1.codec.sample_fmt">fltp</property>
  <property name="meta.media.1.codec.sample_rate">48000</property>
  <property name="meta.media.1.codec.channels">2</property>
  <property name="meta.media.1.codec.name">opus</property>
  <property name="meta.media.1.codec.long_name">Opus</property>
  <property name="meta.media.1.codec.bit_rate">0</property>
  <property name="meta.attr.1.stream.language.markup">eng</property>
  <property name="meta.attr.1.stream.DURATION.markup">01:22:01.641000000</property>
  <property name="meta.attr.ENCODER.markup">Lavf59.27.100</property>
  <property name="meta.media.sample_aspect_num">1</property>
  <property name="meta.media.sample_aspect_den">1</property>
  <property name="meta.media.frame_rate_num">24000</property>
  <property name="meta.media.frame_rate_den">1001</property>
  <property name="meta.media.colorspace">709</property>
  <property name="meta.media.color_trc">1</property>
  <property name="meta.media.has_b_frames">0</property>
  <property name="meta.media.width">3840</property>
  <property name="meta.media.height">2160</property>
  <property name="meta.media.color_range">mpeg</property>
  <property name="xml">was here</property>
  <property name="meta.media.top_field_first">0</property>
  <property name="meta.media.progressive">1</property>
  <property name="set.test_image">0</property>
  <property name="mute_on_pause">1</property>
 </chain>
 <chain id="chain266" out="00:00:22.120">
  <property name="length">554</property>
  <property name="eof">pause</property>
  <property name="resource">videos/references scroll.mkv</property>
  <property name="mlt_service">avformat-novalidate</property>
  <property name="seekable">1</property>
  <property name="format">3</property>
  <property name="audio_index">-1</property>
  <property name="video_index">0</property>
  <property name="kdenlive:clipname"/>
  <property name="kdenlive:clip_type">0</property>
  <property name="kdenlive:folderid">-1</property>
  <property name="kdenlive:id">814</property>
  <property name="kdenlive:file_size">12794206</property>
  <property name="kdenlive:file_hash">08513d8f4bc69a789ac5172525807063</property>
  <property name="kdenlive:audio_max1">1</property>
  <property name="kdenlive:active_streams">-1</property>
  <property name="set.test_audio">1</property>
  <property name="meta.media.nb_streams">2</property>
  <property name="meta.media.0.stream.type">video</property>
  <property name="meta.media.0.stream.frame_rate">60</property>
  <property name="meta.media.0.stream.sample_aspect_ratio">0</property>
  <property name="meta.media.0.codec.width">1920</property>
  <property name="meta.media.0.codec.height">1080</property>
  <property name="meta.media.0.codec.rotate">0</property>
  <property name="meta.media.0.codec.pix_fmt">yuv420p</property>
  <property name="meta.media.0.codec.sample_aspect_ratio">1</property>
  <property name="meta.media.0.codec.colorspace">709</property>
  <property name="meta.media.0.codec.color_trc">1</property>
  <property name="meta.media.0.codec.name">h264</property>
  <property name="meta.media.0.codec.long_name">H.264 / AVC / MPEG-4 AVC / MPEG-4 part 10</property>
  <property name="meta.media.0.codec.bit_rate">0</property>
  <property name="meta.attr.0.stream.DURATION.markup">00:00:22.150000000</property>
  <property name="meta.media.1.stream.type">audio</property>
  <property name="meta.media.1.codec.sample_fmt">fltp</property>
  <property name="meta.media.1.codec.sample_rate">48000</property>
  <property name="meta.media.1.codec.channels">1</property>
  <property name="meta.media.1.codec.name">aac</property>
  <property name="meta.media.1.codec.long_name">AAC (Advanced Audio Coding)</property>
  <property name="meta.media.1.codec.bit_rate">0</property>
  <property name="meta.attr.1.stream.title.markup">simple_aac_recording</property>
  <property name="meta.attr.1.stream.DURATION.markup">00:00:22.080000000</property>
  <property name="meta.attr.ENCODER.markup">Lavf59.27.100</property>
  <property name="meta.media.sample_aspect_num">1</property>
  <property name="meta.media.sample_aspect_den">1</property>
  <property name="meta.media.frame_rate_num">60</property>
  <property name="meta.media.frame_rate_den">1</property>
  <property name="meta.media.colorspace">709</property>
  <property name="meta.media.color_trc">1</property>
  <property name="meta.media.has_b_frames">2</property>
  <property name="meta.media.width">1920</property>
  <property name="meta.media.height">1080</property>
  <property name="meta.media.color_range">mpeg</property>
  <property name="xml">was here</property>
  <property name="meta.media.top_field_first">0</property>
  <property name="meta.media.progressive">1</property>
  <property name="set.test_image">0</property>
  <property name="mute_on_pause">1</property>
 </chain>
 <chain id="chain267" out="00:19:50.960">
  <property name="length">29775</property>
  <property name="eof">pause</property>
  <property name="resource">b-roll/NO, AI Does NOT Democratize Art (And That's a Dumb Defense) ï½œï½œ SPEEDPAINT + COMMENTARY [lDtAL5IQRMc].webm</property>
  <property name="mlt_service">avformat-novalidate</property>
  <property name="seekable">1</property>
  <property name="format">3</property>
  <property name="audio_index">-1</property>
  <property name="video_index">0</property>
  <property name="kdenlive:clipname"/>
  <property name="kdenlive:clip_type">0</property>
  <property name="kdenlive:folderid">14</property>
  <property name="kdenlive:id">818</property>
  <property name="kdenlive:file_size">159454885</property>
  <property name="kdenlive:file_hash">e92042182c49830a6d655e13b6193bd8</property>
  <property name="kdenlive:audio_max1">205</property>
  <property name="kdenlive:active_streams">-1</property>
  <property name="set.test_audio">1</property>
  <property name="meta.media.nb_streams">2</property>
  <property name="meta.media.0.stream.type">video</property>
  <property name="meta.media.0.stream.frame_rate">30</property>
  <property name="meta.media.0.stream.sample_aspect_ratio">1</property>
  <property name="meta.media.0.codec.width">1920</property>
  <property name="meta.media.0.codec.height">1080</property>
  <property name="meta.media.0.codec.rotate">0</property>
  <property name="meta.media.0.codec.pix_fmt">yuv420p</property>
  <property name="meta.media.0.codec.sample_aspect_ratio">0</property>
  <property name="meta.media.0.codec.colorspace">709</property>
  <property name="meta.media.0.codec.color_trc">1</property>
  <property name="meta.media.0.codec.name">vp9</property>
  <property name="meta.media.0.codec.long_name">Google VP9</property>
  <property name="meta.media.0.codec.bit_rate">0</property>
  <property name="meta.attr.0.stream.HANDLER_NAME.markup">ISO Media file produced by Google Inc. Created on: 12/09/2023.</property>
  <property name="meta.attr.0.stream.VENDOR_ID.markup">[0][0][0][0]</property>
  <property name="meta.attr.0.stream.DURATION.markup">00:19:50.967000000</property>
  <property name="meta.media.1.stream.type">audio</property>
  <property name="meta.media.1.codec.sample_fmt">fltp</property>
  <property name="meta.media.1.codec.sample_rate">48000</property>
  <property name="meta.media.1.codec.channels">2</property>
  <property name="meta.media.1.codec.name">opus</property>
  <property name="meta.media.1.codec.long_name">Opus</property>
  <property name="meta.media.1.codec.bit_rate">0</property>
  <property name="meta.attr.1.stream.language.markup">eng</property>
  <property name="meta.attr.1.stream.DURATION.markup">00:19:51.001000000</property>
  <property name="meta.attr.COMPATIBLE_BRANDS.markup">iso6mp41</property>
  <property name="meta.attr.MAJOR_BRAND.markup">dash</property>
  <property name="meta.attr.MINOR_VERSION.markup">0</property>
  <property name="meta.attr.ENCODER.markup">Lavf59.27.100</property>
  <property name="meta.media.sample_aspect_num">1</property>
  <property name="meta.media.sample_aspect_den">1</property>
  <property name="meta.media.frame_rate_num">30</property>
  <property name="meta.media.frame_rate_den">1</property>
  <property name="meta.media.colorspace">709</property>
  <property name="meta.media.color_trc">1</property>
  <property name="meta.media.has_b_frames">0</property>
  <property name="meta.media.width">1920</property>
  <property name="meta.media.height">1080</property>
  <property name="meta.media.color_range">mpeg</property>
  <property name="xml">was here</property>
  <property name="meta.media.top_field_first">0</property>
  <property name="meta.media.progressive">1</property>
  <property name="set.test_image">0</property>
  <property name="mute_on_pause">1</property>
 </chain>
 <producer id="producer562" in="00:00:00.000" out="00:00:04.960">
  <property name="length">00:00:05.000</property>
  <property name="eof">pause</property>
  <property name="resource">images/lady justice.png</property>
  <property name="ttl">25</property>
  <property name="aspect_ratio">1</property>
  <property name="progressive">1</property>
  <property name="seekable">1</property>
  <property name="format">2</property>
  <property name="meta.media.width">1920</property>
  <property name="meta.media.height">1080</property>
  <property name="mlt_service">qimage</property>
  <property name="kdenlive:clipname"/>
  <property name="kdenlive:duration">00:00:05:00</property>
  <property name="kdenlive:folderid">28</property>
  <property name="kdenlive:id">830</property>
  <property name="kdenlive:clip_type">2</property>
  <property name="kdenlive:file_size">2831804</property>
  <property name="kdenlive:file_hash">94bab63e5c3ae8843e82c5cb4b145227</property>
 </producer>
 <producer id="producer564" in="00:00:00.000" out="00:00:04.960">
  <property name="length">00:00:05.000</property>
  <property name="eof">pause</property>
  <property name="resource">citations/citations-soviet-march.png</property>
  <property name="ttl">25</property>
  <property name="aspect_ratio">1</property>
  <property name="progressive">1</property>
  <property name="seekable">1</property>
  <property name="format">2</property>
  <property name="meta.media.width">1920</property>
  <property name="meta.media.height">1080</property>
  <property name="mlt_service">qimage</property>
  <property name="kdenlive:clipname"/>
  <property name="kdenlive:duration">00:00:05:00</property>
  <property name="kdenlive:folderid">234</property>
  <property name="kdenlive:id">832</property>
  <property name="kdenlive:clip_type">2</property>
  <property name="kdenlive:file_size">32555</property>
  <property name="kdenlive:file_hash">424799f0b29452463850c84d8c6cabab</property>
 </producer>
 <producer id="producer565" in="00:00:00.000" out="00:00:29.640">
  <property name="length">742</property>
  <property name="eof">pause</property>
  <property name="resource">citations/citations-celestia-scam.png</property>
  <property name="ttl">25</property>
  <property name="aspect_ratio">1</property>
  <property name="progressive">1</property>
  <property name="seekable">1</property>
  <property name="format">2</property>
  <property name="meta.media.width">1920</property>
  <property name="meta.media.height">1080</property>
  <property name="mlt_service">qimage</property>
  <property name="kdenlive:clipname"/>
  <property name="kdenlive:duration">00:00:05:00</property>
  <property name="kdenlive:folderid">234</property>
  <property name="kdenlive:id">834</property>
  <property name="kdenlive:clip_type">2</property>
  <property name="kdenlive:file_size">39314</property>
  <property name="kdenlive:file_hash">3d4d229a373cfcc28fa284af06a9778a</property>
 </producer>
 <producer id="producer567" in="00:00:00.000" out="00:00:12.080">
  <property name="length">303</property>
  <property name="eof">pause</property>
  <property name="resource">images/hate-profit-0.png</property>
  <property name="ttl">25</property>
  <property name="aspect_ratio">1</property>
  <property name="progressive">1</property>
  <property name="seekable">1</property>
  <property name="format">2</property>
  <property name="meta.media.width">1920</property>
  <property name="meta.media.height">1080</property>
  <property name="mlt_service">qimage</property>
  <property name="kdenlive:clipname"/>
  <property name="kdenlive:duration">00:00:05:00</property>
  <property name="kdenlive:folderid">28</property>
  <property name="kdenlive:id">835</property>
  <property name="kdenlive:clip_type">2</property>
  <property name="kdenlive:file_size">92169</property>
  <property name="kdenlive:file_hash">665ddbfb2c0f83327436f71b5f4243c9</property>
 </producer>
 <producer id="producer568" in="00:00:00.000" out="00:00:13.240">
  <property name="length">332</property>
  <property name="eof">pause</property>
  <property name="progressive">1</property>
  <property name="aspect_ratio">1</property>
  <property name="seekable">1</property>
  <property name="mlt_service">kdenlivetitle</property>
  <property name="kdenlive:duration">00:00:05:00</property>
  <property name="kdenlive:clipname">"use your ai...</property>
  <property name="xmldata">&lt;kdenlivetitle duration="125" LC_NUMERIC="C" width="1920" height="1080" out="124">
 &lt;item type="QGraphicsTextItem" z-index="0">
  &lt;position x="590" y="468">
   &lt;transform>1,0,0,0,1,0,0,0,1&lt;/transform>
  &lt;/position>
  &lt;content line-spacing="0" shadow="0;#64000000;3;3;3" font-underline="0" box-height="144" font-outline-color="0,0,0,255" font="Cubano" letter-spacing="0" font-pixel-size="60" font-italic="0" typewriter="0;2;1;0;0" alignment="4" font-weight="50" font-outline="0" box-width="740.656" font-color="255,255,255,255">"use your ai tools...
so long as they are bad"&lt;/content>
 &lt;/item>
 &lt;startviewport rect="0,0,1920,1080"/>
 &lt;endviewport rect="0,0,1920,1080"/>
 &lt;background color="0,0,0,0"/>
&lt;/kdenlivetitle>
</property>
  <property name="kdenlive:folderid">21</property>
  <property name="kdenlive:id">839</property>
  <property name="kdenlive:clip_type">2</property>
  <property name="force_reload">0</property>
  <property name="meta.media.width">1920</property>
  <property name="meta.media.height">1080</property>
 </producer>
 <producer id="producer572" in="00:00:00.000" out="00:00:13.240">
  <property name="length">332</property>
  <property name="eof">pause</property>
  <property name="progressive">1</property>
  <property name="aspect_ratio">1</property>
  <property name="seekable">1</property>
  <property name="mlt_service">kdenlivetitle</property>
  <property name="kdenlive:duration">00:00:05:00</property>
  <property name="kdenlive:clipname">"copy people...</property>
  <property name="xmldata">&lt;kdenlivetitle duration="125" LC_NUMERIC="C" width="1920" height="1080" out="124">
 &lt;item type="QGraphicsTextItem" z-index="0">
  &lt;position x="520" y="468">
   &lt;transform>1,0,0,0,1,0,0,0,1&lt;/transform>
  &lt;/position>
  &lt;content line-spacing="0" shadow="0;#64000000;3;3;3" font-underline="0" box-height="144" font-outline-color="0,0,0,255" font="Cubano" letter-spacing="0" font-pixel-size="60" font-italic="0" typewriter="0;2;1;0;0" alignment="4" font-weight="50" font-outline="0" box-width="880.031" font-color="255,255,255,255">"copy people's art...
so long as you do not profit"&lt;/content>
 &lt;/item>
 &lt;startviewport rect="0,0,1920,1080"/>
 &lt;endviewport rect="0,0,1920,1080"/>
 &lt;background color="0,0,0,0"/>
&lt;/kdenlivetitle>
</property>
  <property name="kdenlive:folderid">21</property>
  <property name="kdenlive:id">840</property>
  <property name="kdenlive:clip_type">2</property>
  <property name="force_reload">0</property>
  <property name="meta.media.width">1920</property>
  <property name="meta.media.height">1080</property>
 </producer>
 <producer id="producer576" in="00:00:00.000" out="00:00:13.240">
  <property name="length">332</property>
  <property name="eof">pause</property>
  <property name="progressive">1</property>
  <property name="aspect_ratio">1</property>
  <property name="seekable">1</property>
  <property name="mlt_service">kdenlivetitle</property>
  <property name="kdenlive:duration">00:00:05:00</property>
  <property name="kdenlive:clipname">"make whatev...</property>
  <property name="xmldata">&lt;kdenlivetitle duration="125" LC_NUMERIC="C" width="1920" height="1080" out="124">
 &lt;item type="QGraphicsTextItem" z-index="0">
  &lt;position x="359" y="468">
   &lt;transform>1,0,0,0,1,0,0,0,1&lt;/transform>
  &lt;/position>
  &lt;content line-spacing="0" shadow="0;#64000000;3;3;3" font-underline="0" box-height="144" font-outline-color="0,0,0,255" font="Cubano" letter-spacing="0" font-pixel-size="60" font-italic="0" typewriter="0;2;1;0;0" alignment="4" font-weight="50" font-outline="0" box-width="1201.52" font-color="255,255,255,255">"make whatever art you wish...
so long as you don't do it for yourself"&lt;/content>
 &lt;/item>
 &lt;startviewport rect="0,0,1920,1080"/>
 &lt;endviewport rect="0,0,1920,1080"/>
 &lt;background color="0,0,0,0"/>
&lt;/kdenlivetitle>
</property>
  <property name="kdenlive:folderid">21</property>
  <property name="kdenlive:id">841</property>
  <property name="kdenlive:clip_type">2</property>
  <property name="force_reload">0</property>
  <property name="meta.media.width">1920</property>
  <property name="meta.media.height">1080</property>
 </producer>
 <producer id="producer577" in="00:00:00.000" out="00:00:13.240">
  <property name="length">332</property>
  <property name="eof">pause</property>
  <property name="progressive">1</property>
  <property name="aspect_ratio">1</property>
  <property name="seekable">1</property>
  <property name="mlt_service">kdenlivetitle</property>
  <property name="kdenlive:duration">00:00:05:00</property>
  <property name="kdenlive:clipname">"do anything...</property>
  <property name="xmldata">&lt;kdenlivetitle duration="125" LC_NUMERIC="C" width="1920" height="1080" out="124">
 &lt;item type="QGraphicsTextItem" z-index="0">
  &lt;position x="329" y="396">
   &lt;transform>1,0,0,0,1,0,0,0,1&lt;/transform>
  &lt;/position>
  &lt;content line-spacing="0" shadow="0;#64000000;3;3;3" font-underline="0" box-height="288" font="Cubano" letter-spacing="0" font-pixel-size="60" font-italic="0" typewriter="0;2;1;0;0" alignment="4" font-weight="50" box-width="1261.13" font-color="255,255,255,255">"do anything you wish...
so long as you are not in the process
bettering yourself and by proxy
exposing the fattened slump that is art."&lt;/content>
 &lt;/item>
 &lt;startviewport rect="0,0,1920,1080"/>
 &lt;endviewport rect="0,0,1920,1080"/>
 &lt;background color="0,0,0,0"/>
&lt;/kdenlivetitle>
</property>
  <property name="kdenlive:folderid">21</property>
  <property name="kdenlive:id">842</property>
  <property name="kdenlive:clip_type">2</property>
  <property name="force_reload">0</property>
  <property name="meta.media.width">1920</property>
  <property name="meta.media.height">1080</property>
 </producer>
 <producer id="producer578" in="00:00:00.000" out="00:00:13.240">
  <property name="length">332</property>
  <property name="eof">pause</property>
  <property name="progressive">1</property>
  <property name="aspect_ratio">1</property>
  <property name="seekable">1</property>
  <property name="mlt_service">kdenlivetitle</property>
  <property name="kdenlive:duration">00:00:05:00</property>
  <property name="kdenlive:clipname">"fighting fo...</property>
  <property name="xmldata">&lt;kdenlivetitle duration="125" LC_NUMERIC="C" width="1920" height="1080" out="124">
 &lt;item type="QGraphicsTextItem" z-index="0">
  &lt;position x="568" y="396">
   &lt;transform>1,0,0,0,1,0,0,0,1&lt;/transform>
  &lt;/position>
  &lt;content line-spacing="0" shadow="0;#64000000;3;3;3" font-underline="0" box-height="288" font="Cubano" letter-spacing="0" font-pixel-size="60" font-italic="0" typewriter="0;2;1;0;0" alignment="4" font-weight="50" box-width="784.531" font-color="255,255,255,255">"fighting for legislation
that forces companies
to hire a minimum
number of human artists"&lt;/content>
 &lt;/item>
 &lt;startviewport rect="0,0,1920,1080"/>
 &lt;endviewport rect="0,0,1920,1080"/>
 &lt;background color="0,0,0,0"/>
&lt;/kdenlivetitle>
</property>
  <property name="kdenlive:folderid">21</property>
  <property name="kdenlive:id">845</property>
  <property name="kdenlive:clip_type">2</property>
  <property name="force_reload">0</property>
  <property name="meta.media.width">1920</property>
  <property name="meta.media.height">1080</property>
 </producer>
 <producer id="producer594" in="00:00:00.000" out="00:00:14.840">
  <property name="length">372</property>
  <property name="eof">pause</property>
  <property name="resource">citations/citations-prestige-tesla.png</property>
  <property name="ttl">25</property>
  <property name="aspect_ratio">1</property>
  <property name="progressive">1</property>
  <property name="seekable">1</property>
  <property name="format">2</property>
  <property name="meta.media.width">1920</property>
  <property name="meta.media.height">1080</property>
  <property name="mlt_service">qimage</property>
  <property name="kdenlive:clipname"/>
  <property name="kdenlive:duration">00:00:05:00</property>
  <property name="kdenlive:folderid">234</property>
  <property name="kdenlive:id">847</property>
  <property name="kdenlive:clip_type">2</property>
  <property name="kdenlive:file_size">27538</property>
  <property name="kdenlive:file_hash">c946da83a49a3c044b2dade0533abf4c</property>
 </producer>
 <producer id="producer602" in="00:00:00.000" out="00:00:21.320">
  <property name="length">534</property>
  <property name="eof">pause</property>
  <property name="resource">citations/citations-banana.png</property>
  <property name="ttl">25</property>
  <property name="aspect_ratio">1</property>
  <property name="progressive">1</property>
  <property name="seekable">1</property>
  <property name="format">2</property>
  <property name="meta.media.width">1920</property>
  <property name="meta.media.height">1080</property>
  <property name="mlt_service">qimage</property>
  <property name="kdenlive:clipname"/>
  <property name="kdenlive:duration">00:00:05:00</property>
  <property name="kdenlive:folderid">234</property>
  <property name="kdenlive:id">848</property>
  <property name="kdenlive:clip_type">2</property>
  <property name="kdenlive:file_size">30203</property>
  <property name="kdenlive:file_hash">2185ef1cea3ca458460cb48f5cdd5692</property>
 </producer>
 <producer id="producer603" in="00:00:00.000" out="00:00:12.200">
  <property name="length">306</property>
  <property name="eof">pause</property>
  <property name="resource">citations/citations-protest.png</property>
  <property name="ttl">25</property>
  <property name="aspect_ratio">1</property>
  <property name="progressive">1</property>
  <property name="seekable">1</property>
  <property name="format">2</property>
  <property name="meta.media.width">1920</property>
  <property name="meta.media.height">1080</property>
  <property name="mlt_service">qimage</property>
  <property name="kdenlive:clipname"/>
  <property name="kdenlive:duration">00:00:05:00</property>
  <property name="kdenlive:folderid">234</property>
  <property name="kdenlive:id">850</property>
  <property name="kdenlive:clip_type">2</property>
  <property name="kdenlive:file_size">30085</property>
  <property name="kdenlive:file_hash">87f59fb63a563c3441d68a37a922484f</property>
 </producer>
 <chain id="chain268" out="00:03:58.920">
  <property name="length">5974</property>
  <property name="eof">pause</property>
  <property name="resource">/home/liquidzulu/Videos/yt/b-roll/Anthemï¼š The Graphic Novel (Episode 11) [MbhRJWXwlCM].webm</property>
  <property name="mlt_service">avformat-novalidate</property>
  <property name="seekable">1</property>
  <property name="format">3</property>
  <property name="audio_index">-1</property>
  <property name="video_index">0</property>
  <property name="mute_on_pause">0</property>
  <property name="kdenlive:clipname"/>
  <property name="kdenlive:clip_type">0</property>
  <property name="kdenlive:folderid">-1</property>
  <property name="kdenlive:id">855</property>
  <property name="kdenlive:file_size">31768904</property>
  <property name="kdenlive:file_hash">6ecd5645720ebde5315de5f1953f192a</property>
  <property name="kdenlive:audio_max1">206</property>
  <property name="kdenlive:active_streams">-1</property>
  <property name="set.test_audio">1</property>
  <property name="meta.media.nb_streams">2</property>
  <property name="meta.media.0.stream.type">video</property>
  <property name="meta.media.0.stream.frame_rate">29.97</property>
  <property name="meta.media.0.stream.sample_aspect_ratio">1</property>
  <property name="meta.media.0.codec.width">1920</property>
  <property name="meta.media.0.codec.height">1080</property>
  <property name="meta.media.0.codec.rotate">0</property>
  <property name="meta.media.0.codec.pix_fmt">yuv420p</property>
  <property name="meta.media.0.codec.sample_aspect_ratio">0</property>
  <property name="meta.media.0.codec.colorspace">709</property>
  <property name="meta.media.0.codec.color_trc">1</property>
  <property name="meta.media.0.codec.name">vp9</property>
  <property name="meta.media.0.codec.long_name">Google VP9</property>
  <property name="meta.media.0.codec.bit_rate">0</property>
  <property name="meta.attr.0.stream.language.markup">eng</property>
  <property name="meta.attr.0.stream.DURATION.markup">00:03:58.905000000</property>
  <property name="meta.media.1.stream.type">audio</property>
  <property name="meta.media.1.codec.sample_fmt">fltp</property>
  <property name="meta.media.1.codec.sample_rate">48000</property>
  <property name="meta.media.1.codec.channels">2</property>
  <property name="meta.media.1.codec.name">opus</property>
  <property name="meta.media.1.codec.long_name">Opus</property>
  <property name="meta.media.1.codec.bit_rate">0</property>
  <property name="meta.attr.1.stream.language.markup">eng</property>
  <property name="meta.attr.1.stream.DURATION.markup">00:03:58.941000000</property>
  <property name="meta.attr.ENCODER.markup">Lavf59.27.100</property>
  <property name="meta.media.sample_aspect_num">1</property>
  <property name="meta.media.sample_aspect_den">1</property>
  <property name="meta.media.frame_rate_num">30000</property>
  <property name="meta.media.frame_rate_den">1001</property>
  <property name="meta.media.colorspace">709</property>
  <property name="meta.media.color_trc">1</property>
  <property name="meta.media.has_b_frames">0</property>
  <property name="meta.media.width">1920</property>
  <property name="meta.media.height">1080</property>
  <property name="meta.media.color_range">mpeg</property>
  <property name="xml">was here</property>
  <property name="meta.media.top_field_first">0</property>
  <property name="meta.media.progressive">1</property>
  <property name="set.test_image">0</property>
 </chain>
 <producer id="producer605" in="00:00:00.000" out="00:00:04.960">
  <property name="length">00:00:05.000</property>
  <property name="eof">pause</property>
  <property name="resource">images/La_tortura_de_Prometeo,_por_Salvator_Rosa.jpg</property>
  <property name="ttl">25</property>
  <property name="aspect_ratio">1</property>
  <property name="progressive">1</property>
  <property name="seekable">1</property>
  <property name="format">1</property>
  <property name="meta.media.width">1854</property>
  <property name="meta.media.height">2341</property>
  <property name="mlt_service">qimage</property>
  <property name="kdenlive:clipname"/>
  <property name="kdenlive:duration">00:00:05:00</property>
  <property name="kdenlive:folderid">28</property>
  <property name="kdenlive:id">857</property>
  <property name="kdenlive:clip_type">2</property>
  <property name="kdenlive:file_size">2083281</property>
  <property name="kdenlive:file_hash">31b193aef4e9015d6727496211c11bf8</property>
 </producer>
 <producer id="producer606" in="00:00:00.000" out="00:00:04.960">
  <property name="length">00:00:05.000</property>
  <property name="eof">pause</property>
  <property name="resource">images/school of athens aristotle.png</property>
  <property name="ttl">25</property>
  <property name="aspect_ratio">1</property>
  <property name="progressive">1</property>
  <property name="seekable">1</property>
  <property name="format">2</property>
  <property name="meta.media.width">3820</property>
  <property name="meta.media.height">2964</property>
  <property name="mlt_service">qimage</property>
  <property name="kdenlive:clipname"/>
  <property name="kdenlive:duration">00:00:05:00</property>
  <property name="kdenlive:folderid">28</property>
  <property name="kdenlive:id">861</property>
  <property name="kdenlive:clip_type">2</property>
  <property name="kdenlive:file_size">237755</property>
  <property name="kdenlive:file_hash">5229df8849f134e95f4442d4ee7467be</property>
 </producer>
 <producer id="producer616" in="00:00:00.000" out="00:00:04.960">
  <property name="length">00:00:05.000</property>
  <property name="eof">pause</property>
  <property name="resource">images/Michelangelo-Sculptures.png</property>
  <property name="ttl">25</property>
  <property name="aspect_ratio">1</property>
  <property name="progressive">1</property>
  <property name="seekable">1</property>
  <property name="format">2</property>
  <property name="meta.media.width">848</property>
  <property name="meta.media.height">565</property>
  <property name="mlt_service">qimage</property>
  <property name="kdenlive:clipname"/>
  <property name="kdenlive:duration">00:00:05:00</property>
  <property name="kdenlive:folderid">28</property>
  <property name="kdenlive:id">864</property>
  <property name="kdenlive:clip_type">2</property>
  <property name="kdenlive:file_size">321403</property>
  <property name="kdenlive:file_hash">aa09a9247981c2532fdd02a1a0542bba</property>
 </producer>
 <producer id="producer618" in="00:00:00.000" out="00:00:04.960">
  <property name="length">00:00:05.000</property>
  <property name="eof">pause</property>
  <property name="resource">images/Albert_Einstein_and_his_wife_Mileva_Maric just einstein.png</property>
  <property name="ttl">25</property>
  <property name="aspect_ratio">1</property>
  <property name="progressive">1</property>
  <property name="seekable">1</property>
  <property name="format">2</property>
  <property name="meta.media.width">3324</property>
  <property name="meta.media.height">2300</property>
  <property name="mlt_service">qimage</property>
  <property name="kdenlive:clipname"/>
  <property name="kdenlive:duration">00:00:05:00</property>
  <property name="kdenlive:folderid">28</property>
  <property name="kdenlive:id">865</property>
  <property name="kdenlive:clip_type">2</property>
  <property name="kdenlive:file_size">1846299</property>
  <property name="kdenlive:file_hash">800cc68da0d4a8023a80a3e5414cffd7</property>
 </producer>
 <producer id="producer619" in="00:00:00.000" out="00:00:04.960">
  <property name="length">00:00:05.000</property>
  <property name="eof">pause</property>
  <property name="resource">images/Henry_ford_1919 just ford.png</property>
  <property name="ttl">25</property>
  <property name="aspect_ratio">1</property>
  <property name="progressive">1</property>
  <property name="seekable">1</property>
  <property name="format">2</property>
  <property name="meta.media.width">1744</property>
  <property name="meta.media.height">2226</property>
  <property name="mlt_service">qimage</property>
  <property name="kdenlive:clipname"/>
  <property name="kdenlive:duration">00:00:05:00</property>
  <property name="kdenlive:folderid">28</property>
  <property name="kdenlive:id">867</property>
  <property name="kdenlive:clip_type">2</property>
  <property name="kdenlive:file_size">2773711</property>
  <property name="kdenlive:file_hash">cae6161b8a0ca391977aa9b187b488b2</property>
 </producer>
 <chain id="chain269" out="00:00:23.400">
  <property name="length">586</property>
  <property name="eof">pause</property>
  <property name="resource">/home/liquidzulu/Videos/yt/b-roll/The Wright brothers first aeroplane flight (1903) [1rJ3Ga75OXE].webm</property>
  <property name="mlt_service">avformat-novalidate</property>
  <property name="seekable">1</property>
  <property name="format">3</property>
  <property name="audio_index">1</property>
  <property name="video_index">0</property>
  <property name="mute_on_pause">0</property>
  <property name="kdenlive:clipname"/>
  <property name="kdenlive:clip_type">0</property>
  <property name="kdenlive:folderid">-1</property>
  <property name="kdenlive:id">869</property>
  <property name="kdenlive:file_size">1334722</property>
  <property name="kdenlive:file_hash">fcba5fe4c13e4f9123643cd7f9970e4a</property>
  <property name="kdenlive:audio_max1">154</property>
  <property name="meta.media.nb_streams">2</property>
  <property name="meta.media.0.stream.type">video</property>
  <property name="meta.media.0.stream.frame_rate">25</property>
  <property name="meta.media.0.stream.sample_aspect_ratio">1</property>
  <property name="meta.media.0.codec.width">676</property>
  <property name="meta.media.0.codec.height">480</property>
  <property name="meta.media.0.codec.rotate">0</property>
  <property name="meta.media.0.codec.pix_fmt">yuv420p</property>
  <property name="meta.media.0.codec.sample_aspect_ratio">0</property>
  <property name="meta.media.0.codec.colorspace">709</property>
  <property name="meta.media.0.codec.color_trc">1</property>
  <property name="meta.media.0.codec.name">vp9</property>
  <property name="meta.media.0.codec.long_name">Google VP9</property>
  <property name="meta.media.0.codec.bit_rate">0</property>
  <property name="meta.attr.0.stream.language.markup">eng</property>
  <property name="meta.attr.0.stream.DURATION.markup">00:00:23.400000000</property>
  <property name="meta.media.1.stream.type">audio</property>
  <property name="meta.media.1.codec.sample_fmt">fltp</property>
  <property name="meta.media.1.codec.sample_rate">48000</property>
  <property name="meta.media.1.codec.channels">2</property>
  <property name="meta.media.1.codec.name">opus</property>
  <property name="meta.media.1.codec.long_name">Opus</property>
  <property name="meta.media.1.codec.bit_rate">0</property>
  <property name="meta.attr.1.stream.language.markup">eng</property>
  <property name="meta.attr.1.stream.DURATION.markup">00:00:23.421000000</property>
  <property name="meta.attr.ENCODER.markup">Lavf59.27.100</property>
  <property name="meta.media.sample_aspect_num">1</property>
  <property name="meta.media.sample_aspect_den">1</property>
  <property name="meta.media.frame_rate_num">25</property>
  <property name="meta.media.frame_rate_den">1</property>
  <property name="meta.media.colorspace">709</property>
  <property name="meta.media.color_trc">1</property>
  <property name="meta.media.has_b_frames">0</property>
  <property name="meta.media.width">676</property>
  <property name="meta.media.height">480</property>
  <property name="meta.media.color_range">mpeg</property>
  <property name="xml">was here</property>
  <property name="meta.media.top_field_first">0</property>
  <property name="meta.media.progressive">1</property>
  <property name="set.test_audio">1</property>
  <property name="set.test_image">0</property>
 </chain>
 <chain id="chain270" out="00:19:00.200">
  <property name="length">28506</property>
  <property name="eof">pause</property>
  <property name="resource">/home/liquidzulu/Videos/yt/b-roll/Psychiatric Hospitals &amp; Asylums in 1950s America 1953, 720p [1gOjjZ6PltI].webm</property>
  <property name="mlt_service">avformat-novalidate</property>
  <property name="seekable">1</property>
  <property name="format">3</property>
  <property name="audio_index">-1</property>
  <property name="video_index">0</property>
  <property name="mute_on_pause">0</property>
  <property name="kdenlive:clipname"/>
  <property name="kdenlive:clip_type">0</property>
  <property name="kdenlive:folderid">-1</property>
  <property name="kdenlive:id">871</property>
  <property name="kdenlive:file_size">133260570</property>
  <property name="kdenlive:file_hash">aed17aff71843f8e10fc6b03bfa547ae</property>
  <property name="kdenlive:audio_max1">152</property>
  <property name="kdenlive:active_streams">-1</property>
  <property name="set.test_audio">1</property>
  <property name="meta.media.nb_streams">2</property>
  <property name="meta.media.0.stream.type">video</property>
  <property name="meta.media.0.stream.frame_rate">29.97</property>
  <property name="meta.media.0.stream.sample_aspect_ratio">1</property>
  <property name="meta.media.0.codec.width">962</property>
  <property name="meta.media.0.codec.height">720</property>
  <property name="meta.media.0.codec.rotate">0</property>
  <property name="meta.media.0.codec.pix_fmt">yuv420p</property>
  <property name="meta.media.0.codec.sample_aspect_ratio">0</property>
  <property name="meta.media.0.codec.colorspace">709</property>
  <property name="meta.media.0.codec.color_trc">1</property>
  <property name="meta.media.0.codec.name">vp9</property>
  <property name="meta.media.0.codec.long_name">Google VP9</property>
  <property name="meta.media.0.codec.bit_rate">0</property>
  <property name="meta.attr.0.stream.language.markup">eng</property>
  <property name="meta.attr.0.stream.DURATION.markup">00:19:00.172000000</property>
  <property name="meta.media.1.stream.type">audio</property>
  <property name="meta.media.1.codec.sample_fmt">fltp</property>
  <property name="meta.media.1.codec.sample_rate">48000</property>
  <property name="meta.media.1.codec.channels">2</property>
  <property name="meta.media.1.codec.name">opus</property>
  <property name="meta.media.1.codec.long_name">Opus</property>
  <property name="meta.media.1.codec.bit_rate">0</property>
  <property name="meta.attr.1.stream.language.markup">eng</property>
  <property name="meta.attr.1.stream.DURATION.markup">00:19:00.221000000</property>
  <property name="meta.attr.ENCODER.markup">Lavf59.27.100</property>
  <property name="meta.media.sample_aspect_num">1</property>
  <property name="meta.media.sample_aspect_den">1</property>
  <property name="meta.media.frame_rate_num">30000</property>
  <property name="meta.media.frame_rate_den">1001</property>
  <property name="meta.media.colorspace">709</property>
  <property name="meta.media.color_trc">1</property>
  <property name="meta.media.has_b_frames">0</property>
  <property name="meta.media.width">962</property>
  <property name="meta.media.height">720</property>
  <property name="meta.media.color_range">mpeg</property>
  <property name="xml">was here</property>
  <property name="meta.media.top_field_first">0</property>
  <property name="meta.media.progressive">1</property>
  <property name="set.test_image">0</property>
 </chain>
 <producer id="producer621" in="00:00:00.000" out="00:00:09.640">
  <property name="length">242</property>
  <property name="eof">pause</property>
  <property name="resource">citations/citations-urban-rescue-ranch-coyote.png</property>
  <property name="ttl">25</property>
  <property name="aspect_ratio">1</property>
  <property name="progressive">1</property>
  <property name="seekable">1</property>
  <property name="format">2</property>
  <property name="meta.media.width">1920</property>
  <property name="meta.media.height">1080</property>
  <property name="mlt_service">qimage</property>
  <property name="kdenlive:clipname"/>
  <property name="kdenlive:duration">00:00:05:00</property>
  <property name="kdenlive:folderid">234</property>
  <property name="kdenlive:id">885</property>
  <property name="kdenlive:clip_type">2</property>
  <property name="kdenlive:file_size">28778</property>
  <property name="kdenlive:file_hash">fa4178d31352af361ffe370286b08909</property>
 </producer>
 <producer id="producer622" in="00:00:00.000" out="00:00:10.040">
  <property name="length">252</property>
  <property name="eof">pause</property>
  <property name="resource">images/comment.png</property>
  <property name="ttl">25</property>
  <property name="aspect_ratio">1</property>
  <property name="progressive">1</property>
  <property name="seekable">1</property>
  <property name="format">1</property>
  <property name="meta.media.width">786</property>
  <property name="meta.media.height">109</property>
  <property name="mlt_service">qimage</property>
  <property name="kdenlive:clipname"/>
  <property name="kdenlive:duration">00:00:05:00</property>
  <property name="kdenlive:folderid">28</property>
  <property name="kdenlive:id">887</property>
  <property name="kdenlive:clip_type">2</property>
  <property name="kdenlive:file_size">26814</property>
  <property name="kdenlive:file_hash">72f7fff09f44943255c5bbd44f65e0ac</property>
 </producer>
 <producer id="producer623" in="00:00:00.000" out="00:00:04.960">
  <property name="length">00:00:05.000</property>
  <property name="eof">pause</property>
  <property name="resource">citations/citations-abhishek-gupta.png</property>
  <property name="ttl">25</property>
  <property name="aspect_ratio">1</property>
  <property name="progressive">1</property>
  <property name="seekable">1</property>
  <property name="format">2</property>
  <property name="meta.media.width">1920</property>
  <property name="meta.media.height">1080</property>
  <property name="mlt_service">qimage</property>
  <property name="kdenlive:clipname"/>
  <property name="kdenlive:duration">00:00:05:00</property>
  <property name="kdenlive:folderid">234</property>
  <property name="kdenlive:id">889</property>
  <property name="kdenlive:clip_type">2</property>
  <property name="kdenlive:file_size">34361</property>
  <property name="kdenlive:file_hash">ad7cd5f4e7e4429411187e57d726f3e2</property>
 </producer>
 <playlist id="playlist12">
  <entry producer="producer1" in="00:00:00.000" out="00:00:04.920">
   <property name="kdenlive:id">20</property>
  </entry>
  <blank length="00:00:02.560"/>
  <entry producer="chain155" in="00:00:00.000" out="00:00:03.440">
   <property name="kdenlive:id">22</property>
   <filter id="filter333" out="00:00:02.400">
    <property name="start">1</property>
    <property name="level">1</property>
    <property name="mlt_service">brightness</property>
    <property name="kdenlive_id">fade_from_black</property>
    <property name="alpha">00:00:00.000=0;00:00:02.400=1</property>
    <property name="kdenlive:collapsed">0</property>
   </filter>
   <filter id="filter334">
    <property name="rotate_center">1</property>
    <property name="mlt_service">qtblend</property>
    <property name="kdenlive_id">qtblend</property>
    <property name="rect">00:00:00.000=0 0 1920 1080 0.190000</property>
    <property name="rotation">00:00:00.000=0</property>
    <property name="compositing">0</property>
    <property name="distort">0</property>
    <property name="kdenlive:collapsed">0</property>
   </filter>
  </entry>
  <blank length="00:00:02.720"/>
  <entry producer="producer156" in="00:00:00.000" out="00:00:03.360">
   <property name="kdenlive:id">549</property>
   <filter id="filter335">
    <property name="mode">alpha</property>
    <property name="alpha_operation">clear</property>
    <property name="invert">0</property>
    <property name="feather">0</property>
    <property name="feather_passes">1</property>
    <property name="mlt_service">rotoscoping</property>
    <property name="kdenlive_id">rotoscoping</property>
    <property name="spline">{
    "000": [
        [
            [
                -0.018118466898954702,
                0.29195046439628486
            ],
            [
                -0.024390243902439025,
                0.36377708978328177
            ],
            [
                0.02404181184668989,
                0.37058823529411766
            ]
        ],
        [
            [
                0.16933797909407666,
                0.39102167182662545
            ],
            [
                0.21777003484320556,
                0.39783281733746134
            ],
            [
                0.23937282229965154,
                0.37863777089783285
            ]
        ],
        [
            [
                0.32160278745644605,
                0.33343653250773997
            ],
            [
                0.343205574912892,
                0.3142414860681115
            ],
            [
                0.35574912891986066,
                0.27399380804953566
            ]
        ],
        [
            [
                0.40731707317073174,
                0.15944272445820437
            ],
            [
                0.4198606271777004,
                0.1191950464396285
            ],
            [
                0.4226480836236934,
                0.10000000000000002
            ]
        ],
        [
            [
                0.39965156794425094,
                0.0238390092879257
            ],
            [
                0.4024390243902439,
                0.0046439628482972135
            ],
            [
                0.3233449477351916,
                0.0046439628482972135
            ]
        ],
        [
            [
                0.08606271777003485,
                0.0046439628482972135
            ],
            [
                0.006968641114982578,
                0.0046439628482972135
            ],
            [
                0.0006968641114982576,
                0.07647058823529412
            ]
        ]
    ]
}
</property>
    <property name="kdenlive:collapsed">0</property>
   </filter>
  </entry>
  <blank length="00:00:06.200"/>
  <entry producer="producer2" in="00:00:00.000" out="00:00:01.080">
   <property name="kdenlive:id">25</property>
   <property name="kdenlive:activeeffect">2</property>
   <filter id="filter336" in="00:00:00.240" out="00:00:01.080">
    <property name="start">1</property>
    <property name="level">1</property>
    <property name="mlt_service">brightness</property>
    <property name="kdenlive_id">fade_to_black</property>
    <property name="alpha">00:00:00.000=1;00:00:00.840=0</property>
    <property name="kdenlive:collapsed">0</property>
   </filter>
   <filter id="filter337" out="00:00:00.560">
    <property name="start">1</property>
    <property name="level">1</property>
    <property name="mlt_service">brightness</property>
    <property name="kdenlive_id">fade_from_black</property>
    <property name="alpha">00:00:00.000=0;00:00:00.560=1</property>
    <property name="kdenlive:collapsed">0</property>
   </filter>
   <filter id="filter338">
    <property name="rotate_center">1</property>
    <property name="mlt_service">qtblend</property>
    <property name="kdenlive_id">qtblend</property>
    <property name="rect">00:00:00.000=0 0 1920 1080 1.000000;00:00:01.080=0 -127 1920 1080 1.000000</property>
    <property name="rotation">00:00:00.000=0;00:00:01.080=0</property>
    <property name="compositing">0</property>
    <property name="distort">0</property>
    <property name="kdenlive:collapsed">0</property>
   </filter>
  </entry>
  <entry producer="producer3" in="00:00:00.000" out="00:00:13.240">
   <property name="kdenlive:id">23</property>
  </entry>
  <blank length="00:00:01.520"/>
  <entry producer="chain156" in="00:00:30.520" out="00:00:35.800">
   <property name="kdenlive:id">550</property>
   <filter id="filter339">
    <property name="rotate_center">1</property>
    <property name="mlt_service">qtblend</property>
    <property name="kdenlive_id">qtblend</property>
    <property name="rect">00:00:30.520=-521 -292 2968 1669 1.000000</property>
    <property name="rotation">00:00:30.520=0</property>
    <property name="compositing">0</property>
    <property name="distort">0</property>
    <property name="kdenlive:collapsed">0</property>
   </filter>
   <filter id="filter340" in="00:00:33.120" out="00:00:35.800">
    <property name="start">1</property>
    <property name="level">1</property>
    <property name="mlt_service">brightness</property>
    <property name="kdenlive_id">fade_to_black</property>
    <property name="alpha">00:00:00.000=1;00:00:02.680=0</property>
   </filter>
   <filter id="filter341" in="00:00:30.520" out="00:00:34.240">
    <property name="start">1</property>
    <property name="level">1</property>
    <property name="mlt_service">brightness</property>
    <property name="kdenlive_id">fade_from_black</property>
    <property name="alpha">00:00:00.000=0;00:00:03.720=1</property>
   </filter>
  </entry>
  <entry producer="chain157" in="00:00:14.000" out="00:00:33.240">
   <property name="kdenlive:id">24</property>
   <property name="kdenlive:activeeffect">2</property>
   <filter id="filter342">
    <property name="version">0.2</property>
    <property name="mlt_service">frei0r.contrast0r</property>
    <property name="kdenlive_id">frei0r.contrast0r</property>
    <property name="Contrast">00:00:14.000=0.86</property>
    <properties name="ctor-0x7f2c517fd6c0"/>
    <property name="kdenlive:collapsed">1</property>
    <properties name="ctor-0x7f2c84ffa6c0"/>
    <properties name="ctor-0x7f2d2b7fe6c0"/>
    <properties name="ctor-0x7f2c367fc6c0"/>
    <properties name="ctor-0x7f2c35ffb6c0"/>
    <properties name="ctor-0x7f2c34ff96c0"/>
    <properties name="ctor-0x7f2bdaffd6c0"/>
    <properties name="ctor-0x7fab6ca726c0"/>
    <properties name="ctor-0x7fab5bfff6c0"/>
    <properties name="ctor-0x7fab6e44a6c0"/>
    <properties name="ctor-0x7faab6ffd6c0"/>
    <properties name="ctor-0x7fab15ffb6c0"/>
    <properties name="ctor-0x7faa0e7fc6c0"/>
    <properties name="ctor-0x7fa9effff6c0"/>
    <properties name="ctor-0x7fa858ff56c0"/>
    <properties name="ctor-0x7f2de87f86c0"/>
    <properties name="ctor-0x7fe8567fc6c0"/>
    <properties name="ctor-0x7fe6b6ffd6c0"/>
    <properties name="ctor-0x7f3bd960d6c0"/>
    <properties name="ctor-0x7eff047f86c0"/>
    <properties name="ctor-0x7f69106216c0"/>
   </filter>
   <filter id="filter343">
    <property name="delta">00:00:14.000=28</property>
    <property name="every">00:00:14.000=20</property>
    <property name="brightnessdelta_up">00:00:14.000=26</property>
    <property name="brightnessdelta_down">00:00:14.000=37</property>
    <property name="brightnessdelta_every">00:00:14.000=70</property>
    <property name="unevendevelop_up">00:00:14.000=60</property>
    <property name="unevendevelop_down">00:00:14.000=20</property>
    <property name="unevendevelop_duration">00:00:14.000=70</property>
    <property name="mlt_service">oldfilm</property>
    <property name="kdenlive_id">oldfilm</property>
    <property name="kdenlive:collapsed">1</property>
   </filter>
   <filter id="filter344">
    <property name="rotate_center">1</property>
    <property name="mlt_service">qtblend</property>
    <property name="kdenlive_id">qtblend</property>
    <property name="rect">00:00:14.000=0 0 1920 1080 1.000000;00:00:32.600=0 0 1920 1080 1.000000;00:00:32.640=-190 -107 2302 1295 1.000000</property>
    <property name="rotation">00:00:14.000=0;00:00:32.600=0;00:00:32.640=0</property>
    <property name="compositing">0</property>
    <property name="distort">0</property>
    <property name="kdenlive:collapsed">0</property>
   </filter>
  </entry>
  <blank length="00:00:01.280"/>
  <entry producer="chain158" in="00:00:00.000" out="00:00:07.400">
   <property name="kdenlive:id">219</property>
   <filter id="filter345">
    <property name="rotate_center">1</property>
    <property name="mlt_service">qtblend</property>
    <property name="kdenlive_id">qtblend</property>
    <property name="rect">00:00:00.000=240 135 1440 810 1.000000</property>
    <property name="rotation">00:00:00.000=0</property>
    <property name="compositing">0</property>
    <property name="distort">0</property>
    <property name="kdenlive:collapsed">0</property>
   </filter>
   <filter id="filter346" in="00:00:05.680" out="00:00:07.400">
    <property name="start">1</property>
    <property name="level">1</property>
    <property name="mlt_service">brightness</property>
    <property name="kdenlive_id">fade_to_black</property>
    <property name="alpha">00:00:00.000=1;00:00:01.720=0</property>
    <property name="kdenlive:collapsed">0</property>
   </filter>
  </entry>
  <blank length="00:00:00.600"/>
  <entry producer="producer135" in="00:00:00.000" out="00:00:04.880">
   <property name="kdenlive:id">233</property>
   <property name="kdenlive:activeeffect">1</property>
   <filter id="filter347" out="00:00:00.600">
    <property name="start">1</property>
    <property name="level">1</property>
    <property name="mlt_service">brightness</property>
    <property name="kdenlive_id">fade_from_black</property>
    <property name="alpha">00:00:00.000=0;00:00:00.600=1</property>
    <property name="kdenlive:collapsed">0</property>
   </filter>
   <filter id="filter348" in="00:00:04.280" out="00:00:04.880">
    <property name="start">1</property>
    <property name="level">1</property>
    <property name="mlt_service">brightness</property>
    <property name="kdenlive_id">fade_to_black</property>
    <property name="alpha">00:00:00.000=1;00:00:00.600=0</property>
    <property name="kdenlive:collapsed">0</property>
   </filter>
  </entry>
  <entry producer="chain159" in="00:00:00.000" out="00:00:08.400">
   <property name="kdenlive:id">230</property>
  </entry>
  <entry producer="chain159" in="00:00:07.440" out="00:00:07.960">
   <property name="kdenlive:id">230</property>
  </entry>
  <entry producer="chain159" in="00:00:07.360" out="00:00:08.280">
   <property name="kdenlive:id">230</property>
  </entry>
  <entry producer="chain159" in="00:00:08.320" out="00:00:11.640">
   <property name="kdenlive:id">230</property>
  </entry>
  <entry producer="chain159" in="00:00:12.560" out="00:00:16.680">
   <property name="kdenlive:id">230</property>
  </entry>
  <entry producer="chain159" in="00:00:17.600" out="00:00:20.920">
   <property name="kdenlive:id">230</property>
  </entry>
  <entry producer="chain159" in="00:00:22.320" out="00:00:26.320">
   <property name="kdenlive:id">230</property>
  </entry>
  <entry producer="producer193" in="00:00:00.000" out="00:00:00.440">
   <property name="kdenlive:id">236</property>
  </entry>
  <entry producer="producer194" in="00:00:00.000" out="00:00:00.600">
   <property name="kdenlive:id">237</property>
  </entry>
  <entry producer="chain160" in="00:00:00.000" out="00:00:06.320">
   <property name="kdenlive:id">238</property>
   <filter id="filter349">
    <property name="rotate_center">1</property>
    <property name="mlt_service">qtblend</property>
    <property name="kdenlive_id">qtblend</property>
    <property name="rect">00:00:00.000=0 0 1920 1080 1.000000;00:00:05.960=0 0 1920 1080 1.000000;00:00:06.080=0 60 1920 1080 1.000000;00:00:06.320=0 -1076 1920 1080 1.000000</property>
    <property name="rotation">00:00:00.000=0;00:00:05.960=0;00:00:06.080=0;00:00:06.320=0</property>
    <property name="compositing">0</property>
    <property name="distort">0</property>
    <property name="kdenlive:collapsed">0</property>
   </filter>
  </entry>
  <entry producer="producer195" in="00:00:00.000" out="00:00:04.600">
   <property name="kdenlive:id">242</property>
   <property name="kdenlive:activeeffect">1</property>
   <filter id="filter350" out="00:00:00.600">
    <property name="start">1</property>
    <property name="level">1</property>
    <property name="mlt_service">brightness</property>
    <property name="kdenlive_id">fade_from_black</property>
    <property name="alpha">00:00:00.000=0;00:00:00.600=1</property>
    <property name="kdenlive:collapsed">0</property>
   </filter>
   <filter id="filter351" in="00:00:04.000" out="00:00:04.600">
    <property name="start">1</property>
    <property name="level">1</property>
    <property name="mlt_service">brightness</property>
    <property name="kdenlive_id">fade_to_black</property>
    <property name="alpha">00:00:00.000=1;00:00:00.600=0</property>
    <property name="kdenlive:collapsed">0</property>
   </filter>
  </entry>
  <blank length="00:00:16.280"/>
  <entry producer="producer196" in="00:00:00.000" out="00:00:05.840">
   <property name="kdenlive:id">241</property>
   <filter id="filter352">
    <property name="rotate_center">1</property>
    <property name="mlt_service">qtblend</property>
    <property name="kdenlive_id">qtblend</property>
    <property name="rect">00:00:00.000=288 1156 1344 756 1.000000;00:00:00.280=288 130 1344 756 1.000000;00:00:00.400=288 162 1344 756 1.000000;00:00:05.480=198 111 1522 856 1.000000;00:00:05.600=196 79 1527 859 1.000000;00:00:05.840=192 1239 1536 864 1.000000</property>
    <property name="rotation">00:00:00.000=0;00:00:00.280=0;00:00:00.400=0;00:00:05.480=0;00:00:05.600=0;00:00:05.840=0</property>
    <property name="compositing">0</property>
    <property name="distort">0</property>
    <property name="kdenlive:collapsed">0</property>
   </filter>
  </entry>
  <entry producer="producer197" in="00:00:00.000" out="00:00:10.040">
   <property name="kdenlive:id">244</property>
   <property name="kdenlive:activeeffect">1</property>
   <filter id="filter353" out="00:00:00.600">
    <property name="start">1</property>
    <property name="level">1</property>
    <property name="mlt_service">brightness</property>
    <property name="kdenlive_id">fade_from_black</property>
    <property name="alpha">0=0;-1=1</property>
    <property name="kdenlive:collapsed">0</property>
   </filter>
   <filter id="filter354" in="00:00:09.440" out="00:00:10.040">
    <property name="start">1</property>
    <property name="level">1</property>
    <property name="mlt_service">brightness</property>
    <property name="kdenlive_id">fade_to_black</property>
    <property name="alpha">00:00:00.000=1;00:00:00.600=0</property>
    <property name="kdenlive:collapsed">0</property>
   </filter>
  </entry>
  <entry producer="producer198" in="00:00:00.000" out="00:00:10.040">
   <property name="kdenlive:id">246</property>
   <property name="kdenlive:activeeffect">1</property>
   <filter id="filter355" out="00:00:00.600">
    <property name="start">1</property>
    <property name="level">1</property>
    <property name="mlt_service">brightness</property>
    <property name="kdenlive_id">fade_from_black</property>
    <property name="alpha">00:00:00.000=0;00:00:00.600=1</property>
    <property name="kdenlive:collapsed">0</property>
   </filter>
   <filter id="filter356" in="00:00:09.440" out="00:00:10.040">
    <property name="start">1</property>
    <property name="level">1</property>
    <property name="mlt_service">brightness</property>
    <property name="kdenlive_id">fade_to_black</property>
    <property name="alpha">00:00:00.000=1;00:00:00.600=0</property>
    <property name="kdenlive:collapsed">0</property>
   </filter>
  </entry>
  <entry producer="producer199" in="00:00:00.000" out="00:00:10.920">
   <property name="kdenlive:id">247</property>
   <property name="kdenlive:activeeffect">1</property>
   <filter id="filter357" out="00:00:00.600">
    <property name="start">1</property>
    <property name="level">1</property>
    <property name="mlt_service">brightness</property>
    <property name="kdenlive_id">fade_from_black</property>
    <property name="alpha">00:00:00.000=0;00:00:00.600=1</property>
    <property name="kdenlive:collapsed">0</property>
   </filter>
   <filter id="filter358" in="00:00:10.320" out="00:00:10.920">
    <property name="start">1</property>
    <property name="level">1</property>
    <property name="mlt_service">brightness</property>
    <property name="kdenlive_id">fade_to_black</property>
    <property name="alpha">00:00:00.000=1;00:00:00.600=0</property>
    <property name="kdenlive:collapsed">0</property>
   </filter>
  </entry>
  <entry producer="chain158" in="00:00:00.000" out="00:00:09.400">
   <property name="kdenlive:id">219</property>
   <filter id="filter359">
    <property name="rotate_center">1</property>
    <property name="mlt_service">qtblend</property>
    <property name="kdenlive_id">qtblend</property>
    <property name="rect">00:00:00.000=0 -1067 1920 1080 1.000000;00:00:00.240=0 44 1920 1080 1.000000;00:00:00.360=0 0 1920 1080 1.000000;00:00:09.000=0 0 1920 1080 1.000000;00:00:09.160=0 62 1920 1080 1.000000;00:00:09.400=0 -1086 1920 1080 1.000000</property>
    <property name="rotation">00:00:00.000=0;00:00:00.240=0;00:00:00.360=0;00:00:09.000=0;00:00:09.160=0;00:00:09.400=0</property>
    <property name="compositing">0</property>
    <property name="distort">0</property>
    <property name="kdenlive:collapsed">0</property>
   </filter>
  </entry>
  <blank length="00:00:10.400"/>
  <entry producer="chain158" in="00:00:00.000" out="00:00:08.360">
   <property name="kdenlive:id">219</property>
  </entry>
  <entry producer="producer200" in="00:00:00.000" out="00:00:02.000">
   <property name="kdenlive:id">254</property>
   <filter id="filter360">
    <property name="rotate_center">1</property>
    <property name="mlt_service">qtblend</property>
    <property name="kdenlive_id">qtblend</property>
    <property name="rect">00:00:00.000=950 535 19 10 1.000000;00:00:00.200=144 81 1632 918 1.000000;00:00:00.320=192 108 1536 864 1.000000;00:00:02.000=192 108 1536 864 1.000000</property>
    <property name="rotation">00:00:00.000=0;00:00:00.200=0;00:00:00.320=0;00:00:02.000=0</property>
    <property name="compositing">0</property>
    <property name="distort">0</property>
    <property name="kdenlive:collapsed">0</property>
   </filter>
  </entry>
  <entry producer="producer200" in="00:00:00.000" out="00:00:00.440">
   <property name="kdenlive:id">254</property>
   <filter id="filter361">
    <property name="rotate_center">1</property>
    <property name="mlt_service">qtblend</property>
    <property name="kdenlive_id">qtblend</property>
    <property name="rect">00:00:00.000=192 108 1536 864 1.000000;00:00:00.120=192 108 1536 864 1.000000;00:00:00.240=144 81 1632 918 1.000000;00:00:00.440=950 535 19 10 1.000000</property>
    <property name="rotation">00:00:00.000=0;00:00:00.120=0;00:00:00.240=0;00:00:00.440=0</property>
    <property name="compositing">0</property>
    <property name="distort">0</property>
    <property name="kdenlive:collapsed">0</property>
   </filter>
  </entry>
  <blank length="00:00:00.080"/>
  <entry producer="producer201" in="00:00:00.000" out="00:00:00.160">
   <property name="kdenlive:id">255</property>
  </entry>
  <entry producer="producer202" in="00:00:00.000" out="00:00:00.560">
   <property name="kdenlive:id">256</property>
  </entry>
  <entry producer="producer203" in="00:00:00.000" out="00:00:00.520">
   <property name="kdenlive:id">257</property>
   <filter id="filter362" in="00:00:00.320" out="00:00:00.520">
    <property name="start">1</property>
    <property name="level">1</property>
    <property name="mlt_service">brightness</property>
    <property name="kdenlive_id">fade_to_black</property>
    <property name="alpha">00:00:00.000=1;00:00:00.200=0</property>
   </filter>
  </entry>
  <entry producer="producer204" in="00:00:00.000" out="00:00:03.280">
   <property name="kdenlive:id">258</property>
   <filter id="filter363">
    <property name="rotate_center">1</property>
    <property name="mlt_service">qtblend</property>
    <property name="kdenlive_id">qtblend</property>
    <property name="rect">00:00:00.000=950 535 19 10 1.000000;00:00:00.240=240 135 1440 810 1.000000;00:00:00.360=288 162 1344 756 1.000000;00:00:02.920=288 162 1344 756 1.000000;00:00:03.040=240 135 1440 810 1.000000;00:00:03.280=950 535 19 10 1.000000</property>
    <property name="rotation">00:00:00.000=0;00:00:00.240=0;00:00:00.360=0;00:00:02.920=0;00:00:03.040=0;00:00:03.280=0</property>
    <property name="compositing">0</property>
    <property name="distort">0</property>
    <property name="kdenlive:collapsed">0</property>
   </filter>
  </entry>
  <blank length="00:00:00.280"/>
  <entry producer="chain161" in="00:00:00.000" out="00:00:06.440">
   <property name="kdenlive:id">259</property>
   <property name="kdenlive:activeeffect">1</property>
   <filter id="filter364">
    <property name="mlt_service">crop</property>
    <property name="kdenlive_id">crop</property>
    <property name="top">0</property>
    <property name="left">0</property>
    <property name="bottom">116</property>
    <property name="right">0</property>
    <property name="center">0</property>
    <property name="center_bias">0</property>
    <property name="use_profile">1</property>
    <property name="kdenlive:collapsed">1</property>
   </filter>
   <filter id="filter365">
    <property name="rotate_center">1</property>
    <property name="mlt_service">qtblend</property>
    <property name="kdenlive_id">qtblend</property>
    <property name="rect">00:00:00.000=350 529 19 10 1.000000;00:00:00.240=-263 185 1246 700 1.000000;00:00:00.360=-215 211 1150 647 1.000000</property>
    <property name="rotation">00:00:00.000=0;00:00:00.240=0;00:00:00.360=0</property>
    <property name="compositing">0</property>
    <property name="distort">0</property>
    <property name="kdenlive:collapsed">0</property>
   </filter>
  </entry>
  <entry producer="chain161" in="00:00:00.000" out="00:00:01.840">
   <property name="kdenlive:id">259</property>
   <filter id="filter366">
    <property name="mlt_service">crop</property>
    <property name="kdenlive_id">crop</property>
    <property name="top">0</property>
    <property name="left">0</property>
    <property name="bottom">116</property>
    <property name="right">0</property>
    <property name="center">0</property>
    <property name="center_bias">0</property>
    <property name="use_profile">1</property>
    <property name="kdenlive:collapsed">1</property>
   </filter>
   <filter id="filter367">
    <property name="rotate_center">1</property>
    <property name="mlt_service">qtblend</property>
    <property name="kdenlive_id">qtblend</property>
    <property name="rect">00:00:00.000=-215 211 1150 646 1.000000;00:00:01.480=-215 211 1150 646 1.000000;00:00:01.600=-262 184 1244 700 1.000000;00:00:01.840=303 502 113 64 1.000000</property>
    <property name="rotation">00:00:00.000=0;00:00:01.480=0;00:00:01.600=0;00:00:01.840=0</property>
    <property name="compositing">0</property>
    <property name="distort">0</property>
    <property name="kdenlive:collapsed">0</property>
   </filter>
  </entry>
  <entry producer="chain172" in="00:00:00.000" out="00:00:03.640">
   <property name="kdenlive:id">261</property>
  </entry>
  <entry producer="chain172" in="00:00:07.440" out="00:00:08.920">
   <property name="kdenlive:id">261</property>
  </entry>
  <entry producer="chain182" in="00:00:00.000" out="00:00:02.480">
   <property name="kdenlive:id">263</property>
   <property name="kdenlive:activeeffect">1</property>
   <filter id="filter368">
    <property name="rotate_center">1</property>
    <property name="mlt_service">qtblend</property>
    <property name="kdenlive_id">qtblend</property>
    <property name="rect">00:00:00.000=-947 0 1920 1080 1.000000</property>
    <property name="rotation">00:00:00.000=0</property>
    <property name="compositing">0</property>
    <property name="distort">0</property>
    <property name="kdenlive:collapsed">1</property>
   </filter>
   <filter id="filter369">
    <property name="rotate_center">1</property>
    <property name="mlt_service">qtblend</property>
    <property name="kdenlive_id">qtblend</property>
    <property name="rect">00:00:00.000=0 1080 1920 1080 1.000000;00:00:00.240=0 -60 1920 1080 1.000000;00:00:00.360=0 0 1920 1080 1.000000;00:00:02.120=0 0 1920 1080 1.000000;00:00:02.240=0 76 1920 1080 1.000000;00:00:02.480=0 -1076 1920 1080 1.000000</property>
    <property name="rotation">00:00:00.000=0;00:00:00.240=0;00:00:00.360=0;00:00:02.120=0;00:00:02.240=0;00:00:02.480=0</property>
    <property name="compositing">0</property>
    <property name="distort">0</property>
    <property name="kdenlive:collapsed">0</property>
   </filter>
  </entry>
  <blank length="00:00:06.200"/>
  <entry producer="producer205" in="00:00:00.000" out="00:00:00.720">
   <property name="kdenlive:id">264</property>
   <filter id="filter370" in="00:00:00.400" out="00:00:00.720">
    <property name="start">1</property>
    <property name="level">1</property>
    <property name="mlt_service">brightness</property>
    <property name="kdenlive_id">fade_to_black</property>
    <property name="alpha">00:00:00.000=1;00:00:00.320=0</property>
   </filter>
  </entry>
  <entry producer="producer206" in="00:00:00.000" out="00:00:03.880">
   <property name="kdenlive:id">265</property>
   <filter id="filter371">
    <property name="rotate_center">1</property>
    <property name="mlt_service">qtblend</property>
    <property name="kdenlive_id">qtblend</property>
    <property name="rect">00:00:00.000=950 535 19 10 1.000000;00:00:00.240=144 81 1632 918 1.000000;00:00:00.360=192 108 1536 864 1.000000;00:00:01.640=192 108 1536 864 1.000000;00:00:01.880=192 108 1536 864 0.350000;00:00:03.520=192 108 1536 864 0.350000;00:00:03.640=192 179 1536 864 0.350000;00:00:03.880=192 -859 1536 864 0.350000</property>
    <property name="rotation">00:00:00.000=0;00:00:00.240=0;00:00:00.360=0;00:00:01.640=0;00:00:01.880=0;00:00:03.520=0;00:00:03.640=0;00:00:03.880=0</property>
    <property name="compositing">0</property>
    <property name="distort">0</property>
    <property name="kdenlive:collapsed">0</property>
   </filter>
  </entry>
  <blank length="00:00:05.000"/>
  <entry producer="producer207" in="00:00:00.000" out="00:00:05.400">
   <property name="kdenlive:id">267</property>
   <property name="kdenlive:activeeffect">1</property>
   <filter id="filter372">
    <property name="rotate_center">1</property>
    <property name="mlt_service">qtblend</property>
    <property name="kdenlive_id">qtblend</property>
    <property name="rect">00:00:00.000=192 108 1536 864 1.000000</property>
    <property name="rotation">00:00:00.000=0</property>
    <property name="compositing">0</property>
    <property name="distort">0</property>
    <property name="kdenlive:collapsed">1</property>
   </filter>
   <filter id="filter373">
    <property name="rotate_center">1</property>
    <property name="mlt_service">qtblend</property>
    <property name="kdenlive_id">qtblend</property>
    <property name="rect">00:00:00.000=950 535 19 10 1.000000;00:00:00.240=-48 -27 2016 1134 1.000000;00:00:00.360=0 0 1920 1080 1.000000</property>
    <property name="rotation">00:00:00.000=0;00:00:00.240=0;00:00:00.360=0</property>
    <property name="compositing">0</property>
    <property name="distort">0</property>
    <property name="kdenlive:collapsed">0</property>
   </filter>
  </entry>
  <blank length="00:00:01.280"/>
  <entry producer="producer208" in="00:00:00.000" out="00:00:10.680">
   <property name="kdenlive:id">271</property>
   <filter id="filter374" out="00:00:00.600">
    <property name="start">1</property>
    <property name="level">1</property>
    <property name="mlt_service">brightness</property>
    <property name="kdenlive_id">fade_from_black</property>
    <property name="alpha">00:00:00.000=0;00:00:00.600=1</property>
   </filter>
   <filter id="filter375" in="00:00:10.080" out="00:00:10.680">
    <property name="start">1</property>
    <property name="level">1</property>
    <property name="mlt_service">brightness</property>
    <property name="kdenlive_id">fade_to_black</property>
    <property name="alpha">00:00:00.000=1;00:00:00.600=0</property>
   </filter>
  </entry>
  <entry producer="producer209" in="00:00:00.000" out="00:00:00.240">
   <property name="kdenlive:id">274</property>
  </entry>
  <entry producer="producer210" in="00:00:00.000" out="00:00:00.840">
   <property name="kdenlive:id">275</property>
  </entry>
  <entry producer="producer211" in="00:00:00.000" out="00:00:00.040">
   <property name="kdenlive:id">276</property>
  </entry>
  <entry producer="producer212" in="00:00:00.000" out="00:00:00.160">
   <property name="kdenlive:id">277</property>
  </entry>
  <entry producer="producer213" in="00:00:00.000" out="00:00:00.200">
   <property name="kdenlive:id">278</property>
  </entry>
  <entry producer="producer214" in="00:00:00.000" out="00:00:00.120">
   <property name="kdenlive:id">279</property>
  </entry>
  <entry producer="producer215" in="00:00:00.000" out="00:00:00.320">
   <property name="kdenlive:id">280</property>
   <filter id="filter376" in="00:00:00.120" out="00:00:00.320">
    <property name="start">1</property>
    <property name="level">1</property>
    <property name="mlt_service">brightness</property>
    <property name="kdenlive_id">fade_to_black</property>
    <property name="alpha">00:00:00.000=1;00:00:00.200=0</property>
   </filter>
  </entry>
  <entry producer="producer216" in="00:00:00.000" out="00:00:00.160">
   <property name="kdenlive:id">281</property>
  </entry>
  <entry producer="producer217" in="00:00:00.000" out="00:00:00.440">
   <property name="kdenlive:id">282</property>
  </entry>
  <entry producer="producer218" in="00:00:00.000" out="00:00:00.040">
   <property name="kdenlive:id">283</property>
  </entry>
  <entry producer="producer219" in="00:00:00.000" out="00:00:00.440">
   <property name="kdenlive:id">284</property>
  </entry>
  <entry producer="producer220" in="00:00:00.000" out="00:00:00.320">
   <property name="kdenlive:id">285</property>
  </entry>
  <entry producer="producer221" in="00:00:00.000" out="00:00:00.240">
   <property name="kdenlive:id">286</property>
  </entry>
  <entry producer="producer222" in="00:00:00.000" out="00:00:00.000">
   <property name="kdenlive:id">287</property>
  </entry>
  <entry producer="producer223" in="00:00:00.000" out="00:00:00.440">
   <property name="kdenlive:id">288</property>
  </entry>
  <entry producer="producer224" in="00:00:00.000" out="00:00:00.360">
   <property name="kdenlive:id">289</property>
  </entry>
  <entry producer="producer225" in="00:00:00.000" out="00:00:00.280">
   <property name="kdenlive:id">290</property>
  </entry>
  <entry producer="producer226" in="00:00:00.000" out="00:00:00.160">
   <property name="kdenlive:id">291</property>
  </entry>
  <entry producer="producer227" in="00:00:00.000" out="00:00:00.080">
   <property name="kdenlive:id">292</property>
  </entry>
  <entry producer="producer228" in="00:00:00.000" out="00:00:00.240">
   <property name="kdenlive:id">293</property>
  </entry>
  <entry producer="producer229" in="00:00:00.000" out="00:00:00.560">
   <property name="kdenlive:id">294</property>
   <filter id="filter377" in="00:00:00.360" out="00:00:00.560">
    <property name="start">1</property>
    <property name="level">1</property>
    <property name="mlt_service">brightness</property>
    <property name="kdenlive_id">fade_to_black</property>
    <property name="alpha">00:00:00.000=1;00:00:00.200=0</property>
   </filter>
  </entry>
  <blank length="00:00:00.040"/>
  <entry producer="chain158" in="00:00:00.000" out="00:00:05.000">
   <property name="kdenlive:id">219</property>
   <filter id="filter378">
    <property name="rotate_center">1</property>
    <property name="mlt_service">qtblend</property>
    <property name="kdenlive_id">qtblend</property>
    <property name="rect">00:00:00.000=0 1080 1920 1080 1.000000;00:00:00.240=0 -43 1920 1080 1.000000;00:00:00.360=0 0 1920 1080 1.000000;00:00:04.640=0 0 1920 1080 1.000000;00:00:04.760=0 69 1920 1080 1.000000;00:00:05.000=0 -1080 1920 1080 1.000000</property>
    <property name="rotation">00:00:00.000=0;00:00:00.240=0;00:00:00.360=0;00:00:04.640=0;00:00:04.760=0;00:00:05.000=0</property>
    <property name="compositing">0</property>
    <property name="distort">0</property>
    <property name="kdenlive:collapsed">0</property>
   </filter>
  </entry>
  <blank length="00:00:01.160"/>
  <entry producer="producer238" in="00:00:00.000" out="00:00:06.840">
   <property name="kdenlive:id">295</property>
   <filter id="filter379">
    <property name="rotate_center">1</property>
    <property name="mlt_service">qtblend</property>
    <property name="kdenlive_id">qtblend</property>
    <property name="rect">00:00:00.000=950 535 19 10 1.000000;00:00:00.240=-96 -54 2112 1188 1.000000;00:00:00.360=0 0 1920 1080 1.000000;00:00:06.480=0 0 1920 1080 1.000000;00:00:06.600=0 89 1920 1080 1.000000;00:00:06.840=0 -1080 1920 1080 1.000000</property>
    <property name="rotation">00:00:00.000=0;00:00:00.240=0;00:00:00.360=0;00:00:06.480=0;00:00:06.600=0;00:00:06.840=0</property>
    <property name="compositing">0</property>
    <property name="distort">0</property>
    <property name="kdenlive:collapsed">0</property>
   </filter>
  </entry>
  <blank length="00:00:17.920"/>
  <entry producer="chain183" in="00:00:00.000" out="00:00:02.160">
   <property name="kdenlive:id">314</property>
  </entry>
  <entry producer="chain183" in="00:00:10.480" out="00:00:14.280">
   <property name="kdenlive:id">314</property>
  </entry>
  <blank length="00:00:04.560"/>
  <entry producer="producer246" in="00:00:00.000" out="00:00:00.160">
   <property name="kdenlive:id">299</property>
  </entry>
  <entry producer="producer222" in="00:00:00.000" out="00:00:00.040">
   <property name="kdenlive:id">287</property>
  </entry>
  <entry producer="producer249" in="00:00:00.000" out="00:00:00.200">
   <property name="kdenlive:id">301</property>
  </entry>
  <entry producer="producer250" in="00:00:00.000" out="00:00:00.440">
   <property name="kdenlive:id">302</property>
  </entry>
  <entry producer="producer216" in="00:00:00.000" out="00:00:00.080">
   <property name="kdenlive:id">281</property>
  </entry>
  <entry producer="producer222" in="00:00:00.000" out="00:00:00.040">
   <property name="kdenlive:id">287</property>
  </entry>
  <entry producer="producer255" in="00:00:00.000" out="00:00:00.320">
   <property name="kdenlive:id">303</property>
  </entry>
  <entry producer="producer256" in="00:00:00.000" out="00:00:00.280">
   <property name="kdenlive:id">304</property>
  </entry>
  <entry producer="producer257" in="00:00:00.000" out="00:00:00.000">
   <property name="kdenlive:id">305</property>
  </entry>
  <entry producer="producer258" in="00:00:00.000" out="00:00:00.160">
   <property name="kdenlive:id">306</property>
  </entry>
  <entry producer="producer259" in="00:00:00.000" out="00:00:00.080">
   <property name="kdenlive:id">307</property>
  </entry>
  <entry producer="producer222" in="00:00:00.000" out="00:00:00.080">
   <property name="kdenlive:id">287</property>
  </entry>
  <entry producer="producer260" in="00:00:00.000" out="00:00:00.480">
   <property name="kdenlive:id">308</property>
   <filter id="filter380" in="00:00:00.280" out="00:00:00.480">
    <property name="start">1</property>
    <property name="level">1</property>
    <property name="mlt_service">brightness</property>
    <property name="kdenlive_id">fade_to_black</property>
    <property name="alpha">00:00:00.000=1;00:00:00.200=0</property>
   </filter>
  </entry>
  <blank length="00:00:00.040"/>
  <entry producer="producer204" in="00:00:00.000" out="00:00:02.520">
   <property name="kdenlive:id">258</property>
   <filter id="filter381">
    <property name="rotate_center">1</property>
    <property name="mlt_service">qtblend</property>
    <property name="kdenlive_id">qtblend</property>
    <property name="rect">00:00:00.000=950 535 19 10 1.000000;00:00:00.240=240 135 1440 810 1.000000;00:00:00.360=288 162 1344 756 1.000000;00:00:02.520=288 162 1344 756 1.000000</property>
    <property name="rotation">00:00:00.000=0;00:00:00.240=0;00:00:00.360=0;00:00:02.520=0</property>
    <property name="compositing">0</property>
    <property name="distort">0</property>
    <property name="kdenlive:collapsed">0</property>
   </filter>
  </entry>
  <entry producer="chain183" in="00:00:00.000" out="00:00:02.160">
   <property name="kdenlive:id">314</property>
  </entry>
  <entry producer="chain183" in="00:00:10.480" out="00:00:14.280">
   <property name="kdenlive:id">314</property>
  </entry>
  <blank length="00:00:01.880"/>
  <entry producer="chain184" in="00:00:00.000" out="00:00:01.160">
   <property name="kdenlive:id">310</property>
   <filter id="filter382">
    <property name="version">0.6</property>
    <property name="mlt_service">frei0r.select0r</property>
    <property name="kdenlive_id">frei0r.select0r</property>
    <property name="Color to select">00:00:00.000=0xff00feff</property>
    <property name="Invert selection">1</property>
    <property name="Selection subspace">0</property>
    <property name="Subspace shape">0.5</property>
    <property name="Edge mode">0.9</property>
    <property name="Delta R / A / Hue">00:00:00.000=0.2</property>
    <property name="Delta G / B / Chroma">00:00:00.000=0.2</property>
    <property name="Delta B / I / I">00:00:00.000=0.2</property>
    <property name="Slope">00:00:00.000=1</property>
    <property name="Operation">0.5</property>
    <property name="kdenlive:collapsed">1</property>
    <properties name="ctor-0x7fb70f7fe6c0"/>
    <properties name="ctor-0x7f41a7fff6c0"/>
   </filter>
   <filter id="filter383">
    <property name="version">0.6</property>
    <property name="mlt_service">frei0r.select0r</property>
    <property name="kdenlive_id">frei0r.select0r</property>
    <property name="Color to select">00:00:00.000=0x8c4591ff</property>
    <property name="Invert selection">1</property>
    <property name="Selection subspace">0</property>
    <property name="Subspace shape">0.5</property>
    <property name="Edge mode">0.9</property>
    <property name="Delta R / A / Hue">00:00:00.000=0.2</property>
    <property name="Delta G / B / Chroma">00:00:00.000=0.2</property>
    <property name="Delta B / I / I">00:00:00.000=0.2</property>
    <property name="Slope">00:00:00.000=1</property>
    <property name="Operation">0.5</property>
    <property name="kdenlive:collapsed">1</property>
    <properties name="ctor-0x7fb70f7fe6c0"/>
    <properties name="ctor-0x7f41a7fff6c0"/>
   </filter>
   <filter id="filter384">
    <property name="version">0.6</property>
    <property name="mlt_service">frei0r.select0r</property>
    <property name="kdenlive_id">frei0r.select0r</property>
    <property name="Color to select">00:00:00.000=0x58225eff</property>
    <property name="Invert selection">1</property>
    <property name="Selection subspace">0</property>
    <property name="Subspace shape">0.5</property>
    <property name="Edge mode">0.9</property>
    <property name="Delta R / A / Hue">00:00:00.000=0</property>
    <property name="Delta G / B / Chroma">00:00:00.000=1</property>
    <property name="Delta B / I / I">00:00:00.000=1</property>
    <property name="Slope">00:00:00.000=1</property>
    <property name="Operation">0.5</property>
    <property name="kdenlive:collapsed">1</property>
    <properties name="ctor-0x7fb70f7fe6c0"/>
    <properties name="ctor-0x7f41a7fff6c0"/>
   </filter>
   <filter id="filter385">
    <property name="version">0.6</property>
    <property name="mlt_service">frei0r.select0r</property>
    <property name="kdenlive_id">frei0r.select0r</property>
    <property name="Color to select">00:00:00.000=0x58225eff</property>
    <property name="Invert selection">1</property>
    <property name="Selection subspace">0</property>
    <property name="Subspace shape">0.5</property>
    <property name="Edge mode">0.9</property>
    <property name="Delta R / A / Hue">00:00:00.000=0.2</property>
    <property name="Delta G / B / Chroma">00:00:00.000=0.2</property>
    <property name="Delta B / I / I">00:00:00.000=0.2</property>
    <property name="Slope">00:00:00.000=1</property>
    <property name="Operation">0.5</property>
    <property name="kdenlive:collapsed">1</property>
    <properties name="ctor-0x7fb70f7fe6c0"/>
    <properties name="ctor-0x7f41a7fff6c0"/>
   </filter>
   <filter id="filter386">
    <property name="rotate_center">1</property>
    <property name="mlt_service">qtblend</property>
    <property name="kdenlive_id">qtblend</property>
    <property name="rect">00:00:00.000=144 81 1632 918 1.000000;00:00:00.720=144 81 1632 918 1.000000;00:00:00.840=144 201 1632 918 1.000000;00:00:01.120=144 -898 1632 918 1.000000</property>
    <property name="rotation">00:00:00.000=0;00:00:00.720=0;00:00:00.840=0;00:00:01.120=0</property>
    <property name="compositing">0</property>
    <property name="distort">0</property>
    <property name="kdenlive:collapsed">0</property>
   </filter>
  </entry>
  <blank length="00:00:00.720"/>
  <entry producer="producer261" in="00:00:00.000" out="00:00:06.520">
   <property name="kdenlive:id">311</property>
   <filter id="filter387">
    <property name="rotate_center">1</property>
    <property name="mlt_service">qtblend</property>
    <property name="kdenlive_id">qtblend</property>
    <property name="rect">00:00:00.000=495 535 19 10 1.000000;00:00:00.240=-23 243 1056 594 1.000000;00:00:00.360=25 270 960 540 1.000000;00:00:00.960=25 270 960 540 1.000000;00:00:06.160=-19 244 1049 590 1.000000;00:00:06.280=-67 217 1146 644 1.000000;00:00:06.520=495 535 19 10 1.000000</property>
    <property name="rotation">00:00:00.000=0;00:00:00.240=0;00:00:00.360=0;00:00:00.960=0;00:00:06.160=0;00:00:06.280=0;00:00:06.520=0</property>
    <property name="compositing">0</property>
    <property name="distort">0</property>
    <property name="kdenlive:collapsed">0</property>
   </filter>
  </entry>
  <blank length="00:00:06.080"/>
  <entry producer="chain183" in="00:00:00.000" out="00:00:11.360">
   <property name="kdenlive:id">314</property>
  </entry>
  <entry producer="chain183" in="00:00:12.240" out="00:00:14.280">
   <property name="kdenlive:id">314</property>
  </entry>
  <blank length="00:00:01.440"/>
  <entry producer="producer252" in="00:00:00.000" out="00:00:10.000">
   <property name="kdenlive:id">315</property>
   <filter id="filter388">
    <property name="rotate_center">1</property>
    <property name="mlt_service">qtblend</property>
    <property name="kdenlive_id">qtblend</property>
    <property name="rect">00:00:00.000=949 535 19 10 1.000000;00:00:00.240=192 108 1536 864 1.000000;00:00:00.360=240 135 1440 810 1.000000;00:00:09.640=147 82 1624 913 1.000000;00:00:09.760=99 55 1722 969 1.000000;00:00:10.000=950 535 19 10 1.000000</property>
    <property name="rotation">00:00:00.000=0;00:00:00.240=0;00:00:00.360=0;00:00:09.640=0;00:00:09.760=0;00:00:10.000=0</property>
    <property name="compositing">0</property>
    <property name="distort">0</property>
    <property name="kdenlive:collapsed">0</property>
   </filter>
  </entry>
  <entry producer="chain158" in="00:00:00.000" out="00:00:04.480">
   <property name="kdenlive:id">219</property>
   <filter id="filter389">
    <property name="rotate_center">1</property>
    <property name="mlt_service">qtblend</property>
    <property name="kdenlive_id">qtblend</property>
    <property name="rect">00:00:00.000=0 1080 1920 1080 1.000000;00:00:00.280=0 -66 1920 1080 1.000000;00:00:00.400=0 0 1920 1080 1.000000;00:00:04.120=0 0 1920 1080 1.000000;00:00:04.240=0 91 1920 1080 1.000000;00:00:04.480=0 -1077 1920 1080 1.000000</property>
    <property name="rotation">00:00:00.000=0;00:00:00.280=0;00:00:00.400=0;00:00:04.120=0;00:00:04.240=0;00:00:04.480=0</property>
    <property name="compositing">0</property>
    <property name="distort">0</property>
    <property name="kdenlive:collapsed">0</property>
   </filter>
  </entry>
  <blank length="00:00:04.760"/>
  <entry producer="chain185" in="00:00:00.000" out="00:00:05.000">
   <property name="kdenlive:id">316</property>
  </entry>
  <entry producer="chain185" in="00:00:00.000" out="00:00:05.000">
   <property name="kdenlive:id">316</property>
  </entry>
  <entry producer="chain185" in="00:00:00.000" out="00:00:02.840">
   <property name="kdenlive:id">316</property>
   <filter id="filter390">
    <property name="rotate_center">1</property>
    <property name="mlt_service">qtblend</property>
    <property name="kdenlive_id">qtblend</property>
    <property name="rect">00:00:00.000=0 0 1920 1080 1.000000;00:00:02.520=0 0 1920 1080 1.000000;00:00:02.640=0 42 1920 1080 1.000000;00:00:02.840=0 -1072 1920 1080 1.000000</property>
    <property name="rotation">00:00:00.000=0;00:00:02.520=0;00:00:02.640=0;00:00:02.840=0</property>
    <property name="compositing">0</property>
    <property name="distort">0</property>
    <property name="kdenlive:collapsed">0</property>
   </filter>
  </entry>
  <blank length="00:00:00.960"/>
  <entry producer="producer253" in="00:00:00.000" out="00:00:02.200">
   <property name="kdenlive:id">317</property>
   <filter id="filter391">
    <property name="rotate_center">1</property>
    <property name="mlt_service">qtblend</property>
    <property name="kdenlive_id">qtblend</property>
    <property name="rect">00:00:00.000=950 535 19 10 1.000000;00:00:00.240=-48 -27 2016 1134 1.000000;00:00:00.360=0 0 1920 1080 1.000000;00:00:01.840=0 0 1920 1080 1.000000;00:00:01.960=-48 -27 2016 1134 1.000000;00:00:02.200=950 535 19 10 1.000000</property>
    <property name="rotation">00:00:00.000=0;00:00:00.240=0;00:00:00.360=0;00:00:01.840=0;00:00:01.960=0;00:00:02.200=0</property>
    <property name="compositing">0</property>
    <property name="distort">0</property>
    <property name="kdenlive:collapsed">0</property>
   </filter>
  </entry>
  <blank length="00:00:05.680"/>
  <entry producer="producer262" in="00:00:00.000" out="00:00:01.800">
   <property name="kdenlive:id">320</property>
   <filter id="filter392">
    <property name="rotate_center">1</property>
    <property name="mlt_service">qtblend</property>
    <property name="kdenlive_id">qtblend</property>
    <property name="rect">00:00:00.000=950 535 19 10 1.000000;00:00:00.240=-48 -27 2016 1134 1.000000;00:00:00.360=0 0 1920 1080 1.000000;00:00:01.440=0 0 1920 1080 1.000000;00:00:01.560=0 69 1920 1080 1.000000;00:00:01.800=0 -1080 1920 1080 1.000000</property>
    <property name="rotation">00:00:00.000=0;00:00:00.240=0;00:00:00.360=0;00:00:01.440=0;00:00:01.560=0;00:00:01.800=0</property>
    <property name="compositing">0</property>
    <property name="distort">0</property>
    <property name="kdenlive:collapsed">0</property>
   </filter>
  </entry>
  <blank length="00:00:03.840"/>
  <entry producer="producer263" in="00:00:00.000" out="00:00:16.600">
   <property name="kdenlive:id">323</property>
   <filter id="filter393">
    <property name="rotate_center">1</property>
    <property name="mlt_service">qtblend</property>
    <property name="kdenlive_id">qtblend</property>
    <property name="rect">00:00:00.000=950 535 19 10 1.000000;00:00:00.240=-48 -27 2016 1134 1.000000;00:00:00.360=0 0 1920 1080 1.000000;00:00:04.760=0 0 1920 1080 1.000000;00:00:04.880=0 59 1920 1080 1.000000;00:00:05.120=0 -377 1920 1080 1.000000;00:00:05.240=0 -332 1920 1080 1.000000</property>
    <property name="rotation">00:00:00.000=0;00:00:00.240=0;00:00:00.360=0;00:00:04.760=0;00:00:04.880=0;00:00:05.120=0;00:00:05.240=0</property>
    <property name="compositing">0</property>
    <property name="distort">0</property>
    <property name="kdenlive:collapsed">0</property>
   </filter>
  </entry>
  <entry producer="producer265" in="00:00:00.000" out="00:00:02.680">
   <property name="kdenlive:id">333</property>
  </entry>
  <entry producer="producer267" in="00:00:00.000" out="00:00:00.680">
   <property name="kdenlive:id">334</property>
  </entry>
  <entry producer="producer268" in="00:00:00.000" out="00:00:10.320">
   <property name="kdenlive:id">335</property>
   <filter id="filter394">
    <property name="rotate_center">1</property>
    <property name="mlt_service">qtblend</property>
    <property name="kdenlive_id">qtblend</property>
    <property name="rect">00:00:00.000=0 -32 1920 1080 1.000000;00:00:00.040=0 25 1920 1080 1.000000;00:00:00.080=0 -30 1920 1080 1.000000;00:00:00.120=0 20 1920 1080 1.000000;00:00:00.160=0 -24 1920 1080 1.000000;00:00:00.200=0 20 1920 1080 1.000000;00:00:00.240=0 -19 1920 1080 1.000000;00:00:00.280=0 14 1920 1080 1.000000;00:00:00.320=0 -16 1920 1080 1.000000;00:00:00.360=0 12 1920 1080 1.000000;00:00:00.400=0 -10 1920 1080 1.000000;00:00:00.440=0 7 1920 1080 1.000000;00:00:00.480=0 -6 1920 1080 1.000000;00:00:00.520=0 5 1920 1080 1.000000;00:00:00.560=0 0 1920 1080 1.000000;00:00:01.600=0 0 1920 1080 1.000000;00:00:01.720=0 62 1920 1080 1.000000;00:00:01.960=0 -269 1920 1080 1.000000;00:00:02.080=0 -191 1920 1080 1.000000;00:00:09.960=0 -191 1920 1080 1.000000;00:00:10.080=-48 -218 2016 1134 1.000000;00:00:10.320=950 344 19 10 1.000000</property>
    <property name="rotation">00:00:00.000=0;00:00:00.040=0;00:00:00.080=0;00:00:00.120=0;00:00:00.160=0;00:00:00.200=0;00:00:00.240=0;00:00:00.280=0;00:00:00.320=0;00:00:00.360=0;00:00:00.400=0;00:00:00.440=0;00:00:00.480=0;00:00:00.520=0;00:00:00.560=0;00:00:01.600=0;00:00:01.720=0;00:00:01.960=0;00:00:02.080=0;00:00:09.960=0;00:00:10.080=0;00:00:10.320=0</property>
    <property name="compositing">0</property>
    <property name="distort">0</property>
    <property name="kdenlive:collapsed">0</property>
   </filter>
   <filter id="filter395">
    <property name="hradius">00:00:00.000=0;00:00:00.560=0</property>
    <property name="vradius">00:00:00.000=43;00:00:00.560=0</property>
    <property name="mlt_service">box_blur</property>
    <property name="kdenlive_id">box_blur</property>
    <property name="kdenlive:collapsed">0</property>
   </filter>
  </entry>
  <blank length="00:00:20.160"/>
  <entry producer="producer13" in="00:00:00.000" out="00:00:07.680">
   <property name="kdenlive:id">29</property>
   <filter id="filter396">
    <property name="rotate_center">1</property>
    <property name="mlt_service">qtblend</property>
    <property name="kdenlive_id">qtblend</property>
    <property name="rect">00:00:00.000=950 535 19 10 1.000000;00:00:00.200=43 23 1834 1032 1.000000;00:00:00.320=144 81 1632 918 1.000000;00:00:07.280=96 54 1728 972 1.000000;00:00:07.400=48 27 1824 1026 1.000000;00:00:07.640=950 535 19 10 1.000000</property>
    <property name="rotation">00:00:00.000=0;00:00:00.200=0;00:00:00.320=0;00:00:07.280=0;00:00:07.400=0;00:00:07.640=0</property>
    <property name="compositing">0</property>
    <property name="distort">0</property>
    <property name="kdenlive:collapsed">0</property>
   </filter>
  </entry>
  <blank length="00:00:00.840"/>
  <entry producer="producer135" in="00:00:00.000" out="00:00:07.240">
   <property name="kdenlive:id">233</property>
   <filter id="filter397" out="00:00:00.600">
    <property name="start">1</property>
    <property name="level">1</property>
    <property name="mlt_service">brightness</property>
    <property name="kdenlive_id">fade_from_black</property>
    <property name="alpha">00:00:00.000=0;00:00:00.600=1</property>
    <property name="kdenlive:collapsed">0</property>
   </filter>
   <filter id="filter398" in="00:00:06.640" out="00:00:07.240">
    <property name="start">1</property>
    <property name="level">1</property>
    <property name="mlt_service">brightness</property>
    <property name="kdenlive_id">fade_to_black</property>
    <property name="alpha">00:00:00.000=1;00:00:00.600=0</property>
    <property name="kdenlive:collapsed">0</property>
   </filter>
  </entry>
  <entry producer="producer439" in="00:00:00.000" out="00:00:05.080">
   <property name="kdenlive:id">341</property>
   <filter id="filter399">
    <property name="rotate_center">1</property>
    <property name="mlt_service">qtblend</property>
    <property name="kdenlive_id">qtblend</property>
    <property name="rect">00:00:00.000=0 0 1920 1080 1.000000;00:00:05.080=0 0 1920 1080 1.000000</property>
    <property name="rotation">00:00:00.000=0;00:00:05.080=0</property>
    <property name="compositing">0</property>
    <property name="distort">0</property>
    <property name="kdenlive:collapsed">0</property>
   </filter>
  </entry>
  <entry producer="producer451" in="00:00:05.120" out="00:00:05.600">
   <property name="kdenlive:id">341</property>
   <filter id="filter400">
    <property name="rotate_center">1</property>
    <property name="mlt_service">qtblend</property>
    <property name="kdenlive_id">qtblend</property>
    <property name="rect">00:00:05.120=0 0 1920 1080 1.000000;00:00:05.240=0 0 1920 1080 1.000000;00:00:05.360=-48 -27 2016 1134 1.000000;00:00:05.600=950 535 19 10 1.000000</property>
    <property name="rotation">00:00:05.120=0;00:00:05.240=0;00:00:05.360=0;00:00:05.600=0</property>
    <property name="compositing">0</property>
    <property name="distort">0</property>
   </filter>
  </entry>
  <entry producer="chain186" in="00:00:00.000" out="00:00:07.360">
   <property name="kdenlive:id">342</property>
  </entry>
  <entry producer="chain186" in="00:00:11.760" out="00:00:13.720">
   <property name="kdenlive:id">342</property>
  </entry>
  <entry producer="producer261" in="00:00:00.000" out="00:00:04.360">
   <property name="kdenlive:id">311</property>
   <filter id="filter401">
    <property name="rotate_center">1</property>
    <property name="mlt_service">qtblend</property>
    <property name="kdenlive_id">qtblend</property>
    <property name="rect">00:00:00.000=495 535 19 10 1.000000;00:00:00.240=-23 243 1056 594 1.000000;00:00:00.360=25 270 960 540 1.000000;00:00:00.520=25 270 960 540 1.000000;00:00:04.360=-3 253 1018 572 1.000000</property>
    <property name="rotation">00:00:00.000=0;00:00:00.240=0;00:00:00.360=0;00:00:00.520=0;00:00:04.360=0</property>
    <property name="compositing">0</property>
    <property name="distort">0</property>
    <property name="kdenlive:collapsed">0</property>
   </filter>
  </entry>
  <entry producer="producer193" in="00:00:00.000" out="00:00:00.560">
   <property name="kdenlive:id">236</property>
   <filter id="filter402" in="00:00:00.320" out="00:00:00.560">
    <property name="start">1</property>
    <property name="level">1</property>
    <property name="mlt_service">brightness</property>
    <property name="kdenlive_id">fade_to_black</property>
    <property name="alpha">00:00:00.000=1;00:00:00.240=0</property>
   </filter>
  </entry>
  <entry producer="chain183" in="00:00:00.000" out="00:00:06.000">
   <property name="kdenlive:id">314</property>
  </entry>
  <entry producer="chain183" in="00:00:12.200" out="00:00:14.280">
   <property name="kdenlive:id">314</property>
  </entry>
  <blank length="00:00:03.160"/>
  <entry producer="producer550" in="00:00:00.000" out="00:00:12.080">
   <property name="kdenlive:id">341</property>
  </entry>
  <entry producer="producer551" in="00:00:12.720" out="00:00:13.520">
   <property name="kdenlive:id">341</property>
  </entry>
  <blank length="00:00:00.960"/>
  <entry producer="producer275" in="00:00:00.000" out="00:00:04.480">
   <property name="kdenlive:id">344</property>
   <filter id="filter403" out="00:00:00.600">
    <property name="start">1</property>
    <property name="level">1</property>
    <property name="mlt_service">brightness</property>
    <property name="kdenlive_id">fade_from_black</property>
    <property name="alpha">00:00:00.000=0;00:00:00.600=1</property>
   </filter>
   <filter id="filter404" in="00:00:03.880" out="00:00:04.480">
    <property name="start">1</property>
    <property name="level">1</property>
    <property name="mlt_service">brightness</property>
    <property name="kdenlive_id">fade_to_black</property>
    <property name="alpha">00:00:00.000=1;00:00:00.600=0</property>
   </filter>
  </entry>
  <blank length="00:00:28.360"/>
  <entry producer="chain187" in="00:00:03.040" out="00:00:45.840">
   <property name="kdenlive:id">357</property>
   <property name="kdenlive:activeeffect">2</property>
   <filter id="filter405">
    <property name="rotate_center">1</property>
    <property name="mlt_service">qtblend</property>
    <property name="kdenlive_id">qtblend</property>
    <property name="rect">00:00:03.040=-371 -285 2668 1500 1.000000</property>
    <property name="rotation">00:00:03.040=0</property>
    <property name="compositing">0</property>
    <property name="distort">0</property>
    <property name="kdenlive:collapsed">1</property>
   </filter>
   <filter id="filter406">
    <property name="mlt_service">avfilter.zoompan</property>
    <property name="kdenlive_id">avfilter.zoompan</property>
    <property name="av.z">1</property>
    <property name="av.x">0</property>
    <property name="av.y">0</property>
    <property name="av.d">1</property>
    <property name="kdenlive:collapsed">1</property>
   </filter>
   <filter id="filter407">
    <property name="rotate_center">1</property>
    <property name="mlt_service">qtblend</property>
    <property name="kdenlive_id">qtblend</property>
    <property name="rect">00:00:03.040=0 0 1920 1080 1.000000;00:00:11.000=0 0 1920 1080 1.000000;00:00:11.400=-143 -80 2207 1241 1.000000</property>
    <property name="rotation">00:00:03.040=0;00:00:11.000=0;00:00:11.400=0</property>
    <property name="compositing">0</property>
    <property name="distort">0</property>
    <property name="kdenlive:collapsed">1</property>
   </filter>
   <filter id="filter408">
    <property name="hradius">00:00:03.040=0;00:00:11.000=0;00:00:11.400=30</property>
    <property name="vradius">00:00:03.040=0;00:00:11.000=0;00:00:11.400=30</property>
    <property name="mlt_service">box_blur</property>
    <property name="kdenlive_id">box_blur</property>
    <property name="kdenlive:collapsed">1</property>
   </filter>
   <filter id="filter409" in="00:00:45.080" out="00:00:45.840">
    <property name="start">1</property>
    <property name="level">1</property>
    <property name="mlt_service">brightness</property>
    <property name="kdenlive_id">fade_to_black</property>
    <property name="alpha">00:00:00.000=1;00:00:00.760=0</property>
    <property name="kdenlive:collapsed">0</property>
   </filter>
  </entry>
  <entry producer="producer276" in="00:00:00.000" out="00:00:33.120">
   <property name="kdenlive:id">363</property>
   <property name="kdenlive:activeeffect">1</property>
   <filter id="filter410" out="00:00:00.600">
    <property name="start">1</property>
    <property name="level">1</property>
    <property name="mlt_service">brightness</property>
    <property name="kdenlive_id">fade_from_black</property>
    <property name="alpha">00:00:00.000=0;00:00:00.600=1</property>
    <property name="kdenlive:collapsed">0</property>
   </filter>
   <filter id="filter411" in="00:00:32.520" out="00:00:33.120">
    <property name="start">1</property>
    <property name="level">1</property>
    <property name="mlt_service">brightness</property>
    <property name="kdenlive_id">fade_to_black</property>
    <property name="alpha">00:00:00.000=1;00:00:00.600=0</property>
    <property name="kdenlive:collapsed">0</property>
   </filter>
  </entry>
  <entry producer="producer277" in="00:00:00.000" out="00:01:02.160">
   <property name="kdenlive:id">366</property>
   <property name="kdenlive:activeeffect">1</property>
   <filter id="filter412" out="00:00:00.600">
    <property name="start">1</property>
    <property name="level">1</property>
    <property name="mlt_service">brightness</property>
    <property name="kdenlive_id">fade_from_black</property>
    <property name="alpha">00:00:00.000=0;00:00:00.600=1</property>
    <property name="kdenlive:collapsed">0</property>
   </filter>
   <filter id="filter413" in="00:01:01.560" out="00:01:02.160">
    <property name="start">1</property>
    <property name="level">1</property>
    <property name="mlt_service">brightness</property>
    <property name="kdenlive_id">fade_to_black</property>
    <property name="alpha">00:00:00.000=1;00:00:00.600=0</property>
    <property name="kdenlive:collapsed">0</property>
   </filter>
  </entry>
  <blank length="00:00:13.960"/>
  <entry producer="producer553" in="00:00:00.000" out="00:00:10.640">
   <property name="kdenlive:id">266</property>
   <property name="kdenlive:activeeffect">1</property>
   <filter id="filter414">
    <property name="rotate_center">1</property>
    <property name="mlt_service">qtblend</property>
    <property name="kdenlive_id">qtblend</property>
    <property name="rect">00:00:00.000=321 180 1278 719 1.000000</property>
    <property name="rotation">00:00:00.000=0</property>
    <property name="compositing">0</property>
    <property name="distort">0</property>
    <property name="kdenlive:collapsed">1</property>
   </filter>
   <filter id="filter415">
    <property name="rotate_center">1</property>
    <property name="mlt_service">qtblend</property>
    <property name="kdenlive_id">qtblend</property>
    <property name="rect">00:00:00.000=0 1080 1920 1080 1.000000;00:00:00.240=0 -49 1920 1080 1.000000;00:00:00.360=0 0 1920 1080 1.000000;00:00:10.280=0 0 1920 1080 1.000000;00:00:10.400=0 61 1920 1080 1.000000;00:00:10.640=0 -1080 1920 1080 1.000000</property>
    <property name="rotation">00:00:00.000=0;00:00:00.240=0;00:00:00.360=0;00:00:10.280=0;00:00:10.400=0;00:00:10.640=0</property>
    <property name="compositing">0</property>
    <property name="distort">0</property>
    <property name="kdenlive:collapsed">0</property>
   </filter>
  </entry>
  <entry producer="producer279" in="00:00:00.000" out="00:00:46.080">
   <property name="kdenlive:id">370</property>
   <property name="kdenlive:activeeffect">1</property>
   <filter id="filter416" out="00:00:00.600">
    <property name="start">1</property>
    <property name="level">1</property>
    <property name="mlt_service">brightness</property>
    <property name="kdenlive_id">fade_from_black</property>
    <property name="alpha">00:00:00.000=0;00:00:00.600=1</property>
    <property name="kdenlive:collapsed">0</property>
   </filter>
   <filter id="filter417" in="00:00:45.480" out="00:00:46.080">
    <property name="start">1</property>
    <property name="level">1</property>
    <property name="mlt_service">brightness</property>
    <property name="kdenlive_id">fade_to_black</property>
    <property name="alpha">00:00:00.000=1;00:00:00.600=0</property>
    <property name="kdenlive:collapsed">0</property>
   </filter>
  </entry>
  <entry producer="producer182" in="00:00:00.000" out="00:00:09.200">
   <property name="kdenlive:id">372</property>
   <property name="kdenlive:activeeffect">1</property>
   <filter id="filter418" out="00:00:00.600">
    <property name="start">1</property>
    <property name="level">1</property>
    <property name="mlt_service">brightness</property>
    <property name="kdenlive_id">fade_from_black</property>
    <property name="alpha">00:00:00.000=0;00:00:00.600=1</property>
    <property name="kdenlive:collapsed">0</property>
   </filter>
   <filter id="filter419" in="00:00:08.600" out="00:00:09.200">
    <property name="start">1</property>
    <property name="level">1</property>
    <property name="mlt_service">brightness</property>
    <property name="kdenlive_id">fade_to_black</property>
    <property name="alpha">00:00:00.000=1;00:00:00.600=0</property>
    <property name="kdenlive:collapsed">0</property>
   </filter>
  </entry>
  <blank length="00:01:00.120"/>
  <entry producer="producer280" in="00:00:00.000" out="00:00:00.360">
   <property name="kdenlive:id">379</property>
  </entry>
  <entry producer="producer281" in="00:00:00.000" out="00:00:00.600">
   <property name="kdenlive:id">380</property>
  </entry>
  <entry producer="producer282" in="00:00:00.000" out="00:00:00.040">
   <property name="kdenlive:id">381</property>
  </entry>
  <entry producer="producer290" in="00:00:00.000" out="00:00:00.200">
   <property name="kdenlive:id">382</property>
  </entry>
  <entry producer="producer292" in="00:00:00.000" out="00:00:00.120">
   <property name="kdenlive:id">383</property>
  </entry>
  <entry producer="producer293" in="00:00:00.000" out="00:00:00.480">
   <property name="kdenlive:id">384</property>
   <filter id="filter420" in="00:00:00.280" out="00:00:00.480">
    <property name="start">1</property>
    <property name="level">1</property>
    <property name="mlt_service">brightness</property>
    <property name="kdenlive_id">fade_to_black</property>
    <property name="alpha">00:00:00.000=1;00:00:00.200=0</property>
   </filter>
  </entry>
  <entry producer="chain188" in="00:00:02.680" out="00:00:05.960">
   <property name="kdenlive:id">385</property>
   <filter id="filter421">
    <property name="rotate_center">1</property>
    <property name="mlt_service">qtblend</property>
    <property name="kdenlive_id">qtblend</property>
    <property name="rect">00:00:02.680=321 180 1278 719 1.000000</property>
    <property name="rotation">00:00:02.680=0</property>
    <property name="compositing">0</property>
    <property name="distort">0</property>
    <property name="kdenlive:collapsed">1</property>
   </filter>
   <filter id="filter422">
    <property name="rotate_center">1</property>
    <property name="mlt_service">qtblend</property>
    <property name="kdenlive_id">qtblend</property>
    <property name="rect">00:00:02.680=0 1080 1920 1080 1.000000;00:00:02.920=0 -44 1920 1080 1.000000;00:00:03.040=0 0 1920 1080 1.000000</property>
    <property name="rotation">00:00:02.680=0;00:00:02.920=0;00:00:03.040=0</property>
    <property name="compositing">0</property>
    <property name="distort">0</property>
   </filter>
  </entry>
  <entry producer="chain188" in="00:00:06.000" out="00:00:08.720">
   <property name="kdenlive:id">385</property>
   <filter id="filter423">
    <property name="rotate_center">1</property>
    <property name="mlt_service">qtblend</property>
    <property name="kdenlive_id">qtblend</property>
    <property name="rect">00:00:06.000=321 180 1278 719 1.000000</property>
    <property name="rotation">00:00:06.000=0</property>
    <property name="compositing">0</property>
    <property name="distort">0</property>
    <property name="kdenlive:collapsed">0</property>
   </filter>
   <filter id="filter424">
    <property name="rotate_center">1</property>
    <property name="mlt_service">qtblend</property>
    <property name="kdenlive_id">qtblend</property>
    <property name="rect">00:00:06.000=0 0 1920 1080 1.000000</property>
    <property name="rotation">00:00:06.000=0</property>
    <property name="compositing">0</property>
    <property name="distort">0</property>
    <property name="kdenlive:collapsed">0</property>
   </filter>
  </entry>
  <entry producer="chain188" in="00:00:06.000" out="00:00:08.720">
   <property name="kdenlive:id">385</property>
   <filter id="filter425">
    <property name="rotate_center">1</property>
    <property name="mlt_service">qtblend</property>
    <property name="kdenlive_id">qtblend</property>
    <property name="rect">00:00:06.000=321 180 1278 719 1.000000</property>
    <property name="rotation">00:00:06.000=0</property>
    <property name="compositing">0</property>
    <property name="distort">0</property>
    <property name="kdenlive:collapsed">0</property>
   </filter>
   <filter id="filter426">
    <property name="rotate_center">1</property>
    <property name="mlt_service">qtblend</property>
    <property name="kdenlive_id">qtblend</property>
    <property name="rect">00:00:06.000=0 0 1920 1080 1.000000</property>
    <property name="rotation">00:00:06.000=0</property>
    <property name="compositing">0</property>
    <property name="distort">0</property>
    <property name="kdenlive:collapsed">0</property>
   </filter>
  </entry>
  <entry producer="chain188" in="00:00:10.000" out="00:00:16.560">
   <property name="kdenlive:id">385</property>
   <filter id="filter427">
    <property name="rotate_center">1</property>
    <property name="mlt_service">qtblend</property>
    <property name="kdenlive_id">qtblend</property>
    <property name="rect">00:00:10.000=321 180 1278 719 1.000000</property>
    <property name="rotation">00:00:10.000=0</property>
    <property name="compositing">0</property>
    <property name="distort">0</property>
    <property name="kdenlive:collapsed">0</property>
   </filter>
   <filter id="filter428">
    <property name="rotate_center">1</property>
    <property name="mlt_service">qtblend</property>
    <property name="kdenlive_id">qtblend</property>
    <property name="rect">00:00:10.000=0 0 1920 1080 1.000000;00:00:16.200=0 0 1920 1080 1.000000;00:00:16.320=0 60 1920 1080 1.000000;00:00:16.560=0 -1080 1920 1080 1.000000</property>
    <property name="rotation">00:00:10.000=0;00:00:16.200=0;00:00:16.320=0;00:00:16.560=0</property>
    <property name="compositing">0</property>
    <property name="distort">0</property>
   </filter>
  </entry>
  <blank length="00:00:05.600"/>
  <entry producer="producer295" in="00:00:00.000" out="00:00:01.040">
   <property name="kdenlive:id">386</property>
   <filter id="filter429" in="00:00:00.520" out="00:00:01.040">
    <property name="start">1</property>
    <property name="level">1</property>
    <property name="mlt_service">brightness</property>
    <property name="kdenlive_id">fade_to_black</property>
    <property name="alpha">00:00:00.000=1;00:00:00.520=0</property>
   </filter>
  </entry>
  <blank length="00:00:00.760"/>
  <entry producer="producer301" in="00:00:00.000" out="00:00:11.440">
   <property name="kdenlive:id">388</property>
   <property name="kdenlive:activeeffect">1</property>
   <filter id="filter430" out="00:00:00.600">
    <property name="start">1</property>
    <property name="level">1</property>
    <property name="mlt_service">brightness</property>
    <property name="kdenlive_id">fade_from_black</property>
    <property name="alpha">00:00:00.000=0;00:00:00.600=1</property>
    <property name="kdenlive:collapsed">0</property>
   </filter>
   <filter id="filter431" in="00:00:10.840" out="00:00:11.440">
    <property name="start">1</property>
    <property name="level">1</property>
    <property name="mlt_service">brightness</property>
    <property name="kdenlive_id">fade_to_black</property>
    <property name="alpha">00:00:00.000=1;00:00:00.600=0</property>
    <property name="kdenlive:collapsed">0</property>
   </filter>
  </entry>
  <entry producer="producer302" in="00:00:00.000" out="00:00:11.920">
   <property name="kdenlive:id">389</property>
   <filter id="filter432">
    <property name="rotate_center">1</property>
    <property name="mlt_service">qtblend</property>
    <property name="kdenlive_id">qtblend</property>
    <property name="rect">00:00:00.000=950 535 19 10 1.000000;00:00:00.240=192 108 1536 864 1.000000;00:00:00.360=240 135 1440 810 1.000000;00:00:11.560=192 108 1533 861 1.000000;00:00:11.680=145 81 1628 916 1.000000;00:00:11.920=950 535 19 10 1.000000</property>
    <property name="rotation">00:00:00.000=0;00:00:00.240=0;00:00:00.360=0;00:00:11.560=0;00:00:11.680=0;00:00:11.920=0</property>
    <property name="compositing">0</property>
    <property name="distort">0</property>
    <property name="kdenlive:collapsed">0</property>
   </filter>
  </entry>
  <entry producer="producer303" in="00:00:00.000" out="00:00:06.320">
   <property name="kdenlive:id">204</property>
   <property name="kdenlive:activeeffect">1</property>
   <filter id="filter433">
    <property name="rotate_center">1</property>
    <property name="mlt_service">qtblend</property>
    <property name="kdenlive_id">qtblend</property>
    <property name="rect">00:00:00.000=192 108 1536 864 1.000000</property>
    <property name="rotation">00:00:00.000=0</property>
    <property name="compositing">0</property>
    <property name="distort">0</property>
    <property name="kdenlive:collapsed">1</property>
   </filter>
   <filter id="filter434">
    <property name="rotate_center">1</property>
    <property name="mlt_service">qtblend</property>
    <property name="kdenlive_id">qtblend</property>
    <property name="rect">00:00:00.000=0 1080 1920 1080 1.000000;00:00:00.240=0 -81 1920 1080 1.000000;00:00:00.360=0 0 1920 1080 1.000000;00:00:05.960=-45 -24 2010 1129 1.000000;00:00:06.080=-46 57 2012 1131 1.000000;00:00:06.320=-48 -1134 2016 1134 1.000000</property>
    <property name="rotation">00:00:00.000=0;00:00:00.240=0;00:00:00.360=0;00:00:05.960=0;00:00:06.080=0;00:00:06.320=0</property>
    <property name="compositing">0</property>
    <property name="distort">0</property>
    <property name="kdenlive:collapsed">0</property>
   </filter>
  </entry>
  <entry producer="producer305" in="00:00:00.000" out="00:00:24.080">
   <property name="kdenlive:id">391</property>
   <property name="kdenlive:activeeffect">1</property>
   <filter id="filter435" out="00:00:00.600">
    <property name="start">1</property>
    <property name="level">1</property>
    <property name="mlt_service">brightness</property>
    <property name="kdenlive_id">fade_from_black</property>
    <property name="alpha">00:00:00.000=0;00:00:00.600=1</property>
    <property name="kdenlive:collapsed">0</property>
   </filter>
   <filter id="filter436" in="00:00:23.480" out="00:00:24.080">
    <property name="start">1</property>
    <property name="level">1</property>
    <property name="mlt_service">brightness</property>
    <property name="kdenlive_id">fade_to_black</property>
    <property name="alpha">00:00:00.000=1;00:00:00.600=0</property>
    <property name="kdenlive:collapsed">0</property>
   </filter>
  </entry>
  <blank length="00:00:25.080"/>
  <entry producer="producer306" in="00:00:00.000" out="00:00:04.600">
   <property name="kdenlive:id">395</property>
   <property name="kdenlive:activeeffect">1</property>
   <filter id="filter437" out="00:00:00.600">
    <property name="start">1</property>
    <property name="level">1</property>
    <property name="mlt_service">brightness</property>
    <property name="kdenlive_id">fade_from_black</property>
    <property name="alpha">00:00:00.000=0;00:00:00.600=1</property>
    <property name="kdenlive:collapsed">0</property>
   </filter>
   <filter id="filter438" in="00:00:04.000" out="00:00:04.600">
    <property name="start">1</property>
    <property name="level">1</property>
    <property name="mlt_service">brightness</property>
    <property name="kdenlive_id">fade_to_black</property>
    <property name="alpha">00:00:00.000=1;00:00:00.600=0</property>
    <property name="kdenlive:collapsed">0</property>
   </filter>
  </entry>
  <blank length="00:01:23.120"/>
  <entry producer="chain193" in="00:00:00.000" out="00:00:05.640">
   <property name="kdenlive:id">403</property>
  </entry>
  <entry producer="chain193" in="00:00:05.120" out="00:00:06.920">
   <property name="kdenlive:id">403</property>
  </entry>
  <entry producer="chain193" in="00:00:06.960" out="00:00:08.960">
   <property name="kdenlive:id">403</property>
  </entry>
  <entry producer="chain193" in="00:00:07.960" out="00:00:08.960">
   <property name="kdenlive:id">403</property>
  </entry>
  <entry producer="chain193" in="00:00:07.960" out="00:00:08.920">
   <property name="kdenlive:id">403</property>
  </entry>
  <entry producer="chain193" in="00:00:12.960" out="00:00:16.440">
   <property name="kdenlive:id">403</property>
  </entry>
  <entry producer="chain193" in="00:00:19.240" out="00:00:20.720">
   <property name="kdenlive:id">403</property>
  </entry>
  <blank length="00:00:06.400"/>
  <entry producer="chain158" in="00:00:00.000" out="00:00:09.400">
   <property name="kdenlive:id">219</property>
   <filter id="filter439">
    <property name="rotate_center">1</property>
    <property name="mlt_service">qtblend</property>
    <property name="kdenlive_id">qtblend</property>
    <property name="rect">00:00:00.000=0 1080 1920 1080 1.000000;00:00:00.240=0 -46 1920 1080 1.000000;00:00:00.360=0 0 1920 1080 1.000000;00:00:09.040=0 0 1920 1080 1.000000;00:00:09.160=0 52 1920 1080 1.000000;00:00:09.400=0 -1080 1920 1080 1.000000</property>
    <property name="rotation">00:00:00.000=0;00:00:00.240=0;00:00:00.360=0;00:00:09.040=0;00:00:09.160=0;00:00:09.400=0</property>
    <property name="compositing">0</property>
    <property name="distort">0</property>
    <property name="kdenlive:collapsed">0</property>
   </filter>
  </entry>
  <blank length="00:00:10.720"/>
  <entry producer="producer308" in="00:00:00.000" out="00:00:05.520">
   <property name="kdenlive:id">408</property>
   <property name="kdenlive:activeeffect">1</property>
   <filter id="filter440">
    <property name="rotate_center">1</property>
    <property name="mlt_service">qtblend</property>
    <property name="kdenlive_id">qtblend</property>
    <property name="rect">00:00:00.000=336 189 1248 702 1.000000;00:00:05.520=288 162 1344 756 1.000000</property>
    <property name="rotation">00:00:00.000=0;00:00:05.520=0</property>
    <property name="compositing">0</property>
    <property name="distort">0</property>
    <property name="kdenlive:collapsed">1</property>
   </filter>
   <filter id="filter441">
    <property name="rotate_center">1</property>
    <property name="mlt_service">qtblend</property>
    <property name="kdenlive_id">qtblend</property>
    <property name="rect">00:00:00.000=0 1080 1920 1080 1.000000;00:00:00.240=0 -67 1920 1080 1.000000;00:00:00.360=0 0 1920 1080 1.000000;00:00:05.160=0 0 1920 1080 1.000000;00:00:05.280=0 71 1920 1080 1.000000;00:00:05.520=0 -1080 1920 1080 1.000000</property>
    <property name="rotation">00:00:00.000=0;00:00:00.240=0;00:00:00.360=0;00:00:05.160=0;00:00:05.280=0;00:00:05.520=0</property>
    <property name="compositing">0</property>
    <property name="distort">0</property>
    <property name="kdenlive:collapsed">0</property>
   </filter>
  </entry>
  <entry producer="producer309" in="00:00:00.000" out="00:00:04.960">
   <property name="kdenlive:id">410</property>
   <filter id="filter442" out="00:00:00.600">
    <property name="start">1</property>
    <property name="level">1</property>
    <property name="mlt_service">brightness</property>
    <property name="kdenlive_id">fade_from_black</property>
    <property name="alpha">00:00:00.000=0;00:00:00.600=1</property>
   </filter>
   <filter id="filter443" in="00:00:04.360" out="00:00:04.960">
    <property name="start">1</property>
    <property name="level">1</property>
    <property name="mlt_service">brightness</property>
    <property name="kdenlive_id">fade_to_black</property>
    <property name="alpha">00:00:00.000=1;00:00:00.600=0</property>
   </filter>
  </entry>
  <entry producer="chain194" in="00:00:00.000" out="00:00:04.600">
   <property name="kdenlive:id">411</property>
  </entry>
  <entry producer="chain194" in="00:00:16.040" out="00:00:17.560">
   <property name="kdenlive:id">411</property>
  </entry>
  <entry producer="producer310" in="00:00:00.000" out="00:00:07.480">
   <property name="kdenlive:id">413</property>
   <filter id="filter444" out="00:00:00.600">
    <property name="start">1</property>
    <property name="level">1</property>
    <property name="mlt_service">brightness</property>
    <property name="kdenlive_id">fade_from_black</property>
    <property name="alpha">00:00:00.000=0;00:00:00.600=1</property>
    <property name="kdenlive:collapsed">0</property>
   </filter>
   <filter id="filter445" in="00:00:06.880" out="00:00:07.480">
    <property name="start">1</property>
    <property name="level">1</property>
    <property name="mlt_service">brightness</property>
    <property name="kdenlive_id">fade_to_black</property>
    <property name="alpha">00:00:00.000=1;00:00:00.600=0</property>
    <property name="kdenlive:collapsed">0</property>
   </filter>
  </entry>
  <entry producer="chain195" in="00:00:00.000" out="00:00:01.640">
   <property name="kdenlive:id">414</property>
  </entry>
  <entry producer="chain195" in="00:00:01.680" out="00:00:02.880">
   <property name="kdenlive:id">414</property>
  </entry>
  <entry producer="chain195" in="00:00:01.680" out="00:00:02.880">
   <property name="kdenlive:id">414</property>
  </entry>
  <entry producer="chain195" in="00:00:01.680" out="00:00:02.440">
   <property name="kdenlive:id">414</property>
  </entry>
  <entry producer="chain195" in="00:00:02.920" out="00:00:04.280">
   <property name="kdenlive:id">414</property>
  </entry>
  <entry producer="chain195" in="00:00:04.920" out="00:00:05.600">
   <property name="kdenlive:id">414</property>
  </entry>
  <entry producer="chain195" in="00:00:05.640" out="00:00:06.280">
   <property name="kdenlive:id">414</property>
  </entry>
  <entry producer="chain195" in="00:00:05.640" out="00:00:06.280">
   <property name="kdenlive:id">414</property>
  </entry>
  <entry producer="chain195" in="00:00:06.000" out="00:00:06.280">
   <property name="kdenlive:id">414</property>
  </entry>
  <entry producer="chain195" in="00:00:06.320" out="00:00:10.360">
   <property name="kdenlive:id">414</property>
  </entry>
  <blank length="00:00:01.280"/>
  <entry producer="chain196" in="00:00:00.000" out="00:00:06.200">
   <property name="kdenlive:id">416</property>
   <filter id="filter446" in="00:00:05.680" out="00:00:06.200">
    <property name="start">1</property>
    <property name="level">1</property>
    <property name="mlt_service">brightness</property>
    <property name="kdenlive_id">fade_to_black</property>
    <property name="alpha">00:00:00.000=1;00:00:00.520=0</property>
   </filter>
  </entry>
  <entry producer="chain197" in="00:00:00.000" out="00:00:08.640">
   <property name="kdenlive:id">417</property>
   <filter id="filter447">
    <property name="rotate_center">1</property>
    <property name="mlt_service">qtblend</property>
    <property name="kdenlive_id">qtblend</property>
    <property name="rect">00:00:00.000=0 0 1920 1080 1.000000;00:00:08.280=0 0 1920 1080 1.000000;00:00:08.400=0 45 1920 1080 1.000000;00:00:08.640=0 -1080 1920 1080 1.000000</property>
    <property name="rotation">00:00:00.000=0;00:00:08.280=0;00:00:08.400=0;00:00:08.640=0</property>
    <property name="compositing">0</property>
    <property name="distort">0</property>
    <property name="kdenlive:collapsed">0</property>
   </filter>
  </entry>
  <blank length="00:00:05.880"/>
  <entry producer="chain198" in="00:00:02.920" out="00:00:09.920">
   <property name="kdenlive:id">418</property>
   <filter id="filter448">
    <property name="rotate_center">1</property>
    <property name="mlt_service">qtblend</property>
    <property name="kdenlive_id">qtblend</property>
    <property name="rect">00:00:02.920=0 1080 1920 1080 1.000000;00:00:03.160=0 -33 1920 1080 1.000000;00:00:03.280=0 0 1920 1080 1.000000</property>
    <property name="rotation">00:00:02.920=0;00:00:03.160=0;00:00:03.280=0</property>
    <property name="compositing">0</property>
    <property name="distort">0</property>
    <property name="kdenlive:collapsed">0</property>
   </filter>
  </entry>
  <entry producer="chain198" in="00:00:09.960" out="00:00:15.000">
   <property name="kdenlive:id">418</property>
  </entry>
  <entry producer="chain198" in="00:00:09.960" out="00:00:11.120">
   <property name="kdenlive:id">418</property>
   <filter id="filter449">
    <property name="rotate_center">1</property>
    <property name="mlt_service">qtblend</property>
    <property name="kdenlive_id">qtblend</property>
    <property name="rect">00:00:09.960=0 0 1920 1080 1.000000;00:00:10.600=0 0 1920 1080 1.000000;00:00:10.800=48 27 1824 1026 1.000000;00:00:11.120=-4381 -2457 10704 6021 1.000000</property>
    <property name="rotation">00:00:09.960=0;00:00:10.600=0;00:00:10.800=0;00:00:11.120=0</property>
    <property name="compositing">0</property>
    <property name="distort">0</property>
    <property name="kdenlive:collapsed">0</property>
   </filter>
   <filter id="filter450" in="00:00:10.760" out="00:00:11.120">
    <property name="start">1</property>
    <property name="level">1</property>
    <property name="mlt_service">brightness</property>
    <property name="kdenlive_id">fade_to_black</property>
    <property name="alpha">00:00:00.000=1;00:00:00.360=0</property>
    <property name="kdenlive:collapsed">1</property>
   </filter>
   <filter id="filter451">
    <property name="hradius">00:00:09.960=0;00:00:10.800=0;00:00:11.120=20</property>
    <property name="vradius">00:00:09.960=0;00:00:10.800=0;00:00:11.120=20</property>
    <property name="mlt_service">box_blur</property>
    <property name="kdenlive_id">box_blur</property>
    <property name="kdenlive:collapsed">1</property>
   </filter>
  </entry>
  <blank length="00:00:14.360"/>
  <entry producer="chain198" in="00:00:02.920" out="00:00:06.920">
   <property name="kdenlive:id">418</property>
   <filter id="filter452">
    <property name="rotate_center">1</property>
    <property name="mlt_service">qtblend</property>
    <property name="kdenlive_id">qtblend</property>
    <property name="rect">00:00:02.920=0 0 1920 1080 1.000000;00:00:06.560=0 0 1920 1080 1.000000;00:00:06.680=0 62 1920 1080 1.000000;00:00:06.920=0 -1080 1920 1080 1.000000</property>
    <property name="rotation">00:00:02.920=0;00:00:06.560=0;00:00:06.680=0;00:00:06.920=0</property>
    <property name="compositing">0</property>
    <property name="distort">0</property>
    <property name="kdenlive:collapsed">0</property>
   </filter>
  </entry>
  <blank length="00:00:12.920"/>
  <entry producer="producer311" in="00:00:00.000" out="00:00:04.640">
   <property name="kdenlive:id">423</property>
   <filter id="filter453" out="00:00:00.600">
    <property name="start">1</property>
    <property name="level">1</property>
    <property name="mlt_service">brightness</property>
    <property name="kdenlive_id">fade_from_black</property>
    <property name="alpha">00:00:00.000=0;00:00:00.600=1</property>
    <property name="kdenlive:collapsed">0</property>
   </filter>
   <filter id="filter454" in="00:00:04.040" out="00:00:04.640">
    <property name="start">1</property>
    <property name="level">1</property>
    <property name="mlt_service">brightness</property>
    <property name="kdenlive_id">fade_to_black</property>
    <property name="alpha">00:00:00.000=1;00:00:00.600=0</property>
    <property name="kdenlive:collapsed">0</property>
   </filter>
  </entry>
  <entry producer="chain199" in="00:00:09.080" out="00:00:49.040">
   <property name="kdenlive:id">422</property>
   <filter id="filter455">
    <property name="rotate_center">1</property>
    <property name="mlt_service">qtblend</property>
    <property name="kdenlive_id">qtblend</property>
    <property name="rect">00:00:09.080=-3 -557 3919 2204 1.000000</property>
    <property name="rotation">00:00:09.080=0</property>
    <property name="compositing">0</property>
    <property name="distort">0</property>
    <property name="kdenlive:collapsed">0</property>
   </filter>
   <filter id="filter456">
    <property name="rotate_center">1</property>
    <property name="mlt_service">qtblend</property>
    <property name="kdenlive_id">qtblend</property>
    <property name="rect">00:00:09.080=321 180 1278 719 1.000000;00:00:09.360=-1429 -801 4784 2691 1.000000</property>
    <property name="rotation">00:00:09.080=0;00:00:09.360=0</property>
    <property name="compositing">0</property>
    <property name="distort">0</property>
    <property name="kdenlive:collapsed">0</property>
   </filter>
   <filter id="filter457">
    <property name="rotate_center">1</property>
    <property name="mlt_service">qtblend</property>
    <property name="kdenlive_id">qtblend</property>
    <property name="rect">00:00:09.080=0 0 1920 1080 1.000000</property>
    <property name="rotation">00:00:09.080=0</property>
    <property name="compositing">0</property>
    <property name="distort">0</property>
    <property name="kdenlive:collapsed">0</property>
   </filter>
   <filter id="filter458">
    <property name="hradius">00:00:09.080=0;00:00:09.360=60</property>
    <property name="vradius">00:00:09.080=0;00:00:09.360=60</property>
    <property name="mlt_service">box_blur</property>
    <property name="kdenlive_id">box_blur</property>
    <property name="kdenlive:collapsed">0</property>
   </filter>
   <filter id="filter459">
    <property name="start">1</property>
    <property name="level">00:00:09.080=1;00:00:09.360=0.49</property>
    <property name="mlt_service">brightness</property>
    <property name="kdenlive_id">brightness</property>
    <property name="kdenlive:collapsed">0</property>
   </filter>
   <filter id="filter460" in="00:00:48.120" out="00:00:49.040">
    <property name="start">1</property>
    <property name="level">1</property>
    <property name="mlt_service">brightness</property>
    <property name="kdenlive_id">fade_to_black</property>
    <property name="alpha">00:00:00.000=1;00:00:00.920=0</property>
   </filter>
  </entry>
  <entry producer="chain200" in="00:00:00.000" out="00:00:03.680">
   <property name="kdenlive:id">431</property>
   <filter id="filter461">
    <property name="rotate_center">1</property>
    <property name="mlt_service">qtblend</property>
    <property name="kdenlive_id">qtblend</property>
    <property name="rect">00:00:00.000=0 0 1920 1080 1.000000;00:00:03.320=0 0 1920 1080 1.000000;00:00:03.440=0 60 1920 1080 1.000000;00:00:03.680=0 -1080 1920 1080 1.000000</property>
    <property name="rotation">00:00:00.000=0;00:00:03.320=0;00:00:03.440=0;00:00:03.680=0</property>
    <property name="compositing">0</property>
    <property name="distort">0</property>
    <property name="kdenlive:collapsed">0</property>
   </filter>
  </entry>
  <entry producer="producer312" in="00:00:00.000" out="00:00:05.840">
   <property name="kdenlive:id">434</property>
   <property name="kdenlive:activeeffect">1</property>
   <filter id="filter462" out="00:00:00.600">
    <property name="start">1</property>
    <property name="level">1</property>
    <property name="mlt_service">brightness</property>
    <property name="kdenlive_id">fade_from_black</property>
    <property name="alpha">00:00:00.000=0;00:00:00.600=1</property>
    <property name="kdenlive:collapsed">0</property>
   </filter>
   <filter id="filter463" in="00:00:05.240" out="00:00:05.840">
    <property name="start">1</property>
    <property name="level">1</property>
    <property name="mlt_service">brightness</property>
    <property name="kdenlive_id">fade_to_black</property>
    <property name="alpha">00:00:00.000=1;00:00:00.600=0</property>
    <property name="kdenlive:collapsed">0</property>
   </filter>
  </entry>
  <entry producer="producer313" in="00:00:00.000" out="00:00:05.040">
   <property name="kdenlive:id">437</property>
   <property name="kdenlive:activeeffect">1</property>
   <filter id="filter464" out="00:00:00.600">
    <property name="start">1</property>
    <property name="level">1</property>
    <property name="mlt_service">brightness</property>
    <property name="kdenlive_id">fade_from_black</property>
    <property name="alpha">00:00:00.000=0;00:00:00.600=1</property>
    <property name="kdenlive:collapsed">0</property>
   </filter>
   <filter id="filter465" in="00:00:04.440" out="00:00:05.040">
    <property name="start">1</property>
    <property name="level">1</property>
    <property name="mlt_service">brightness</property>
    <property name="kdenlive_id">fade_to_black</property>
    <property name="alpha">00:00:00.000=1;00:00:00.600=0</property>
    <property name="kdenlive:collapsed">0</property>
   </filter>
  </entry>
  <entry producer="producer315" in="00:00:00.000" out="00:00:04.840">
   <property name="kdenlive:id">439</property>
   <property name="kdenlive:activeeffect">1</property>
   <filter id="filter466" out="00:00:00.600">
    <property name="start">1</property>
    <property name="level">1</property>
    <property name="mlt_service">brightness</property>
    <property name="kdenlive_id">fade_from_black</property>
    <property name="alpha">00:00:00.000=0;00:00:00.600=1</property>
    <property name="kdenlive:collapsed">0</property>
   </filter>
   <filter id="filter467" in="00:00:04.280" out="00:00:04.840">
    <property name="start">1</property>
    <property name="level">1</property>
    <property name="mlt_service">brightness</property>
    <property name="kdenlive_id">fade_to_black</property>
    <property name="alpha">00:00:00.000=1;00:00:00.600=0</property>
    <property name="kdenlive:collapsed">0</property>
   </filter>
  </entry>
  <entry producer="producer326" in="00:00:00.000" out="00:00:03.440">
   <property name="kdenlive:id">441</property>
   <property name="kdenlive:activeeffect">1</property>
   <filter id="filter468" out="00:00:00.600">
    <property name="start">1</property>
    <property name="level">1</property>
    <property name="mlt_service">brightness</property>
    <property name="kdenlive_id">fade_from_black</property>
    <property name="alpha">00:00:00.000=0;00:00:00.600=1</property>
    <property name="kdenlive:collapsed">0</property>
   </filter>
   <filter id="filter469" in="00:00:02.880" out="00:00:03.440">
    <property name="start">1</property>
    <property name="level">1</property>
    <property name="mlt_service">brightness</property>
    <property name="kdenlive_id">fade_to_black</property>
    <property name="alpha">00:00:00.000=1;00:00:00.560=0</property>
    <property name="kdenlive:collapsed">0</property>
   </filter>
  </entry>
  <entry producer="producer327" in="00:00:00.000" out="00:00:05.320">
   <property name="kdenlive:id">436</property>
   <property name="kdenlive:activeeffect">1</property>
   <filter id="filter470" out="00:00:00.600">
    <property name="start">1</property>
    <property name="level">1</property>
    <property name="mlt_service">brightness</property>
    <property name="kdenlive_id">fade_from_black</property>
    <property name="alpha">00:00:00.000=0;00:00:00.600=1</property>
    <property name="kdenlive:collapsed">0</property>
   </filter>
   <filter id="filter471" in="00:00:04.760" out="00:00:05.320">
    <property name="start">1</property>
    <property name="level">1</property>
    <property name="mlt_service">brightness</property>
    <property name="kdenlive_id">fade_to_black</property>
    <property name="alpha">00:00:00.000=1;00:00:00.560=0</property>
    <property name="kdenlive:collapsed">0</property>
   </filter>
  </entry>
  <blank length="00:00:00.040"/>
  <entry producer="producer328" in="00:00:00.000" out="00:00:00.440">
   <property name="kdenlive:id">443</property>
  </entry>
  <entry producer="producer329" in="00:00:00.000" out="00:00:00.360">
   <property name="kdenlive:id">444</property>
   <filter id="filter472" in="00:00:00.240" out="00:00:00.360">
    <property name="start">1</property>
    <property name="level">1</property>
    <property name="mlt_service">brightness</property>
    <property name="kdenlive_id">fade_to_black</property>
    <property name="alpha">00:00:00.000=1;00:00:00.120=0</property>
   </filter>
  </entry>
  <blank length="00:00:00.080"/>
  <entry producer="producer330" in="00:00:00.000" out="00:00:04.400">
   <property name="kdenlive:id">446</property>
   <property name="kdenlive:activeeffect">1</property>
   <filter id="filter473" out="00:00:00.600">
    <property name="start">1</property>
    <property name="level">1</property>
    <property name="mlt_service">brightness</property>
    <property name="kdenlive_id">fade_from_black</property>
    <property name="alpha">00:00:00.000=0;00:00:00.600=1</property>
    <property name="kdenlive:collapsed">0</property>
   </filter>
   <filter id="filter474" in="00:00:03.840" out="00:00:04.400">
    <property name="start">1</property>
    <property name="level">1</property>
    <property name="mlt_service">brightness</property>
    <property name="kdenlive_id">fade_to_black</property>
    <property name="alpha">00:00:00.000=1;00:00:00.560=0</property>
    <property name="kdenlive:collapsed">0</property>
   </filter>
  </entry>
  <blank length="00:00:02.200"/>
  <entry producer="producer331" in="00:00:00.000" out="00:00:04.080">
   <property name="kdenlive:id">447</property>
   <filter id="filter475" out="00:00:00.600">
    <property name="start">1</property>
    <property name="level">1</property>
    <property name="mlt_service">brightness</property>
    <property name="kdenlive_id">fade_from_black</property>
    <property name="alpha">0=0;-1=1</property>
   </filter>
   <filter id="filter476" in="00:00:03.520" out="00:00:04.080">
    <property name="start">1</property>
    <property name="level">1</property>
    <property name="mlt_service">brightness</property>
    <property name="kdenlive_id">fade_to_black</property>
    <property name="alpha">00:00:00.000=1;00:00:00.560=0</property>
   </filter>
  </entry>
  <entry producer="chain201" in="00:18:37.000" out="00:19:31.920">
   <property name="kdenlive:id">15</property>
   <filter id="filter477">
    <property name="rotate_center">1</property>
    <property name="mlt_service">qtblend</property>
    <property name="kdenlive_id">qtblend</property>
    <property name="rect">00:18:37.000=321 181 1278 719 1.000000</property>
    <property name="rotation">00:18:37.000=0</property>
    <property name="compositing">0</property>
    <property name="distort">0</property>
    <property name="kdenlive:collapsed">0</property>
   </filter>
   <filter id="filter478">
    <property name="rotate_center">1</property>
    <property name="mlt_service">qtblend</property>
    <property name="kdenlive_id">qtblend</property>
    <property name="rect">00:18:37.000=0 0 1920 1080 1.000000</property>
    <property name="rotation">00:18:37.000=0</property>
    <property name="compositing">0</property>
    <property name="distort">0</property>
    <property name="kdenlive:collapsed">0</property>
   </filter>
   <filter id="filter479">
    <property name="rotate_center">1</property>
    <property name="mlt_service">qtblend</property>
    <property name="kdenlive_id">qtblend</property>
    <property name="rect">00:18:37.000=0 0 1920 1080 1.000000;00:18:37.240=-473 -266 2872 1616 1.000000</property>
    <property name="rotation">00:18:37.000=0;00:18:37.240=0</property>
    <property name="compositing">0</property>
    <property name="distort">0</property>
    <property name="kdenlive:collapsed">0</property>
   </filter>
   <filter id="filter480">
    <property name="hradius">00:18:37.000=0;00:18:37.240=60</property>
    <property name="vradius">00:18:37.000=0;00:18:37.240=60</property>
    <property name="mlt_service">box_blur</property>
    <property name="kdenlive_id">box_blur</property>
    <property name="kdenlive:collapsed">0</property>
   </filter>
   <filter id="filter481">
    <property name="start">1</property>
    <property name="level">00:18:37.000=1;00:18:37.240=0.55</property>
    <property name="mlt_service">brightness</property>
    <property name="kdenlive_id">brightness</property>
    <property name="kdenlive:collapsed">0</property>
   </filter>
   <filter id="filter482" in="00:19:31.000" out="00:19:31.920">
    <property name="start">1</property>
    <property name="level">1</property>
    <property name="mlt_service">brightness</property>
    <property name="kdenlive_id">fade_to_black</property>
    <property name="alpha">00:00:00.000=1;00:00:00.920=0</property>
   </filter>
  </entry>
  <blank length="00:00:02.840"/>
  <entry producer="producer332" in="00:00:00.000" out="00:00:18.640">
   <property name="kdenlive:id">452</property>
   <filter id="filter483">
    <property name="rotate_center">1</property>
    <property name="mlt_service">qtblend</property>
    <property name="kdenlive_id">qtblend</property>
    <property name="rect">00:00:00.000=470 535 19 10 1.000000;00:00:00.240=-144 189 1248 702 1.000000;00:00:00.360=-96 216 1152 648 1.000000;00:00:01.360~=-96 182 1152 648 1.000000;00:00:02.360~=-96 232 1152 648 1.000000;00:00:03.360~=-96 187 1152 648 1.000000;00:00:04.360~=-96 243 1152 648 1.000000;00:00:05.360~=-96 196 1152 648 1.000000;00:00:06.360~=-96 237 1152 648 1.000000;00:00:07.360~=-96 191 1152 648 1.000000;00:00:08.360~=-96 235 1152 648 1.000000;00:00:09.360~=-96 196 1152 648 1.000000;00:00:10.360~=-96 240 1152 648 1.000000;00:00:11.360~=-96 185 1152 648 1.000000;00:00:12.360~=-96 234 1152 648 1.000000;00:00:13.360~=-96 191 1152 648 1.000000;00:00:14.360~=-96 238 1152 648 1.000000;00:00:15.360~=-96 190 1152 648 1.000000;00:00:16.360~=-96 237 1152 648 1.000000;00:00:17.360~=-96 184 1152 648 1.000000;00:00:18.280=-96 237 1152 648 1.000000;00:00:18.400=-144 215 1248 702 1.000000;00:00:18.640=470 559 19 10 1.000000</property>
    <property name="rotation">00:00:00.000=0;00:00:00.240=0;00:00:00.360=0;00:00:01.360~=0;00:00:02.360~=0;00:00:03.360~=0;00:00:04.360~=0;00:00:05.360~=0;00:00:06.360~=0;00:00:07.360~=0;00:00:08.360~=0;00:00:09.360~=0;00:00:10.360~=0;00:00:11.360~=0;00:00:12.360~=0;00:00:13.360~=0;00:00:14.360~=0;00:00:15.360~=0;00:00:16.360~=0;00:00:17.360~=0;00:00:18.280=0;00:00:18.400=0;00:00:18.640=0</property>
    <property name="compositing">0</property>
    <property name="distort">0</property>
    <property name="kdenlive:collapsed">0</property>
   </filter>
  </entry>
  <entry producer="producer311" in="00:00:00.000" out="00:00:02.840">
   <property name="kdenlive:id">423</property>
   <filter id="filter484" out="00:00:00.600">
    <property name="start">1</property>
    <property name="level">1</property>
    <property name="mlt_service">brightness</property>
    <property name="kdenlive_id">fade_from_black</property>
    <property name="alpha">00:00:00.000=0;00:00:00.600=1</property>
   </filter>
   <filter id="filter485" in="00:00:02.240" out="00:00:02.840">
    <property name="start">1</property>
    <property name="level">1</property>
    <property name="mlt_service">brightness</property>
    <property name="kdenlive_id">fade_to_black</property>
    <property name="alpha">00:00:00.000=1;00:00:00.600=0</property>
   </filter>
  </entry>
  <entry producer="chain200" in="00:00:00.000" out="00:00:13.080">
   <property name="kdenlive:id">431</property>
   <filter id="filter486">
    <property name="rotate_center">1</property>
    <property name="mlt_service">qtblend</property>
    <property name="kdenlive_id">qtblend</property>
    <property name="rect">00:00:00.000=0 0 1920 1080 1.000000;00:00:12.720=0 0 1920 1080 1.000000;00:00:12.840=0 39 1920 1080 1.000000;00:00:13.080=0 -1080 1920 1080 1.000000</property>
    <property name="rotation">00:00:00.000=0;00:00:12.720=0;00:00:12.840=0;00:00:13.080=0</property>
    <property name="compositing">0</property>
    <property name="distort">0</property>
   </filter>
  </entry>
  <entry producer="producer331" in="00:00:00.000" out="00:00:12.520">
   <property name="kdenlive:id">447</property>
   <filter id="filter487" out="00:00:00.600">
    <property name="start">1</property>
    <property name="level">1</property>
    <property name="mlt_service">brightness</property>
    <property name="kdenlive_id">fade_from_black</property>
    <property name="alpha">00:00:00.000=0;00:00:00.600=1</property>
    <property name="kdenlive:collapsed">0</property>
   </filter>
   <filter id="filter488" in="00:00:11.960" out="00:00:12.520">
    <property name="start">1</property>
    <property name="level">1</property>
    <property name="mlt_service">brightness</property>
    <property name="kdenlive_id">fade_to_black</property>
    <property name="alpha">00:00:00.000=1;00:00:00.560=0</property>
    <property name="kdenlive:collapsed">0</property>
   </filter>
  </entry>
  <blank length="00:00:00.080"/>
  <entry producer="producer333" in="00:00:00.000" out="00:00:14.680">
   <property name="kdenlive:id">458</property>
   <filter id="filter489">
    <property name="rotate_center">1</property>
    <property name="mlt_service">qtblend</property>
    <property name="kdenlive_id">qtblend</property>
    <property name="rect">00:00:00.000=0 54 1920 1080 1.000000;00:00:00.240=0 0 1920 1080 1.000000</property>
    <property name="rotation">00:00:00.000=0;00:00:00.240=0</property>
    <property name="compositing">0</property>
    <property name="distort">0</property>
   </filter>
   <filter id="filter490" out="00:00:00.240">
    <property name="start">1</property>
    <property name="level">1</property>
    <property name="mlt_service">brightness</property>
    <property name="kdenlive_id">fade_from_black</property>
    <property name="alpha">00:00:00.000=0;00:00:00.240=1</property>
   </filter>
  </entry>
  <blank length="00:00:09.800"/>
  <entry producer="producer331" in="00:00:00.000" out="00:00:13.040">
   <property name="kdenlive:id">447</property>
   <filter id="filter491" out="00:00:00.600">
    <property name="start">1</property>
    <property name="level">1</property>
    <property name="mlt_service">brightness</property>
    <property name="kdenlive_id">fade_from_black</property>
    <property name="alpha">00:00:00.000=0;00:00:00.600=1</property>
    <property name="kdenlive:collapsed">0</property>
   </filter>
  </entry>
  <entry producer="producer331" in="00:00:00.000" out="00:00:01.320">
   <property name="kdenlive:id">447</property>
   <filter id="filter492" in="00:00:00.760" out="00:00:01.320">
    <property name="start">1</property>
    <property name="level">1</property>
    <property name="mlt_service">brightness</property>
    <property name="kdenlive_id">fade_to_black</property>
    <property name="alpha">00:00:00.000=1;00:00:00.560=0</property>
   </filter>
  </entry>
  <entry producer="chain202" in="00:00:00.000" out="00:00:01.320">
   <property name="kdenlive:id">464</property>
  </entry>
  <entry producer="chain202" in="00:00:06.080" out="00:00:07.400">
   <property name="kdenlive:id">464</property>
  </entry>
  <entry producer="chain202" in="00:00:12.080" out="00:00:15.240">
   <property name="kdenlive:id">464</property>
  </entry>
  <entry producer="chain202" in="00:00:18.120" out="00:00:33.160">
   <property name="kdenlive:id">464</property>
  </entry>
  <entry producer="chain202" in="00:00:38.960" out="00:00:40.560">
   <property name="kdenlive:id">464</property>
  </entry>
  <entry producer="chain193" in="00:00:06.960" out="00:00:12.000">
   <property name="kdenlive:id">403</property>
   <filter id="filter493">
    <property name="rotate_center">1</property>
    <property name="mlt_service">qtblend</property>
    <property name="kdenlive_id">qtblend</property>
    <property name="rect">00:00:06.960=0 0 1920 1080 1.000000;00:00:11.640=0 0 1920 1080 1.000000;00:00:11.760=0 57 1920 1080 1.000000;00:00:12.000=0 -1080 1920 1080 1.000000</property>
    <property name="rotation">00:00:06.960=0;00:00:11.640=0;00:00:11.760=0;00:00:12.000=0</property>
    <property name="compositing">0</property>
    <property name="distort">0</property>
    <property name="kdenlive:collapsed">0</property>
   </filter>
  </entry>
  <blank length="00:00:01.000"/>
  <entry producer="producer157" in="00:00:00.000" out="00:00:00.120">
   <property name="kdenlive:id">465</property>
  </entry>
  <entry producer="producer158" in="00:00:00.000" out="00:00:00.240">
   <property name="kdenlive:id">466</property>
  </entry>
  <entry producer="producer159" in="00:00:00.000" out="00:00:00.360">
   <property name="kdenlive:id">467</property>
  </entry>
  <entry producer="producer160" in="00:00:00.000" out="00:00:00.520">
   <property name="kdenlive:id">468</property>
  </entry>
  <entry producer="producer161" in="00:00:00.000" out="00:00:00.240">
   <property name="kdenlive:id">469</property>
  </entry>
  <entry producer="producer212" in="00:00:00.000" out="00:00:00.160">
   <property name="kdenlive:id">277</property>
  </entry>
  <entry producer="producer271" in="00:00:00.000" out="00:00:00.080">
   <property name="kdenlive:id">300</property>
  </entry>
  <entry producer="producer163" in="00:00:00.000" out="00:00:00.320">
   <property name="kdenlive:id">470</property>
  </entry>
  <entry producer="producer325" in="00:00:00.000" out="00:00:00.720">
   <property name="kdenlive:id">471</property>
   <filter id="filter494" in="00:00:00.360" out="00:00:00.720">
    <property name="start">1</property>
    <property name="level">1</property>
    <property name="mlt_service">brightness</property>
    <property name="kdenlive_id">fade_to_black</property>
    <property name="alpha">00:00:00.000=1;00:00:00.360=0</property>
   </filter>
  </entry>
  <blank length="00:00:08.080"/>
  <entry producer="chain203" in="00:00:00.000" out="00:00:12.960">
   <property name="kdenlive:id">405</property>
   <filter id="filter495">
    <property name="rotate_center">1</property>
    <property name="mlt_service">qtblend</property>
    <property name="kdenlive_id">qtblend</property>
    <property name="rect">00:00:00.000=0 1080 1920 1080 1.000000;00:00:00.240=0 -38 1920 1080 1.000000;00:00:00.360=0 0 1920 1080 1.000000</property>
    <property name="rotation">00:00:00.000=0;00:00:00.240=0;00:00:00.360=0</property>
    <property name="compositing">0</property>
    <property name="distort">0</property>
    <property name="kdenlive:collapsed">0</property>
   </filter>
  </entry>
  <entry producer="producer334" in="00:00:00.000" out="00:00:01.880">
   <property name="kdenlive:id">473</property>
  </entry>
  <entry producer="producer335" in="00:00:00.000" out="00:00:01.480">
   <property name="kdenlive:id">474</property>
   <filter id="filter496" in="00:00:01.200" out="00:00:01.480">
    <property name="start">1</property>
    <property name="level">1</property>
    <property name="mlt_service">brightness</property>
    <property name="kdenlive_id">fade_to_black</property>
    <property name="alpha">00:00:00.000=1;00:00:00.280=0</property>
   </filter>
  </entry>
  <entry producer="producer338" in="00:00:00.000" out="00:00:05.400">
   <property name="kdenlive:id">475</property>
   <filter id="filter497" out="00:00:00.600">
    <property name="start">1</property>
    <property name="level">1</property>
    <property name="mlt_service">brightness</property>
    <property name="kdenlive_id">fade_from_black</property>
    <property name="alpha">00:00:00.000=0;00:00:00.600=1</property>
    <property name="kdenlive:collapsed">0</property>
   </filter>
   <filter id="filter498" in="00:00:04.800" out="00:00:05.400">
    <property name="start">1</property>
    <property name="level">1</property>
    <property name="mlt_service">brightness</property>
    <property name="kdenlive_id">fade_to_black</property>
    <property name="alpha">00:00:00.000=1;00:00:00.600=0</property>
    <property name="kdenlive:collapsed">0</property>
   </filter>
  </entry>
  <entry producer="chain204" in="00:03:02.720" out="00:04:17.680">
   <property name="kdenlive:id">478</property>
   <filter id="filter499">
    <property name="rotate_center">1</property>
    <property name="mlt_service">qtblend</property>
    <property name="kdenlive_id">qtblend</property>
    <property name="rect">00:03:02.720=321 180 1278 719 1.000000;00:03:03.440=-96 -54 2112 1188 1.000000</property>
    <property name="rotation">00:03:02.720=0;00:03:03.440=0</property>
    <property name="compositing">0</property>
    <property name="distort">0</property>
    <property name="kdenlive:collapsed">1</property>
   </filter>
   <filter id="filter500">
    <property name="hradius">00:03:02.720=0;00:03:03.440=60</property>
    <property name="vradius">00:03:02.720=0;00:03:03.440=60</property>
    <property name="mlt_service">box_blur</property>
    <property name="kdenlive_id">box_blur</property>
    <property name="kdenlive:collapsed">0</property>
   </filter>
   <filter id="filter501">
    <property name="start">1</property>
    <property name="level">00:03:02.720=1;00:03:03.440=0.42</property>
    <property name="mlt_service">brightness</property>
    <property name="kdenlive_id">brightness</property>
    <property name="kdenlive:collapsed">0</property>
   </filter>
   <filter id="filter502" in="00:04:16.760" out="00:04:17.680">
    <property name="start">1</property>
    <property name="level">1</property>
    <property name="mlt_service">brightness</property>
    <property name="kdenlive_id">fade_to_black</property>
    <property name="alpha">00:00:00.000=1;00:00:00.920=0</property>
   </filter>
  </entry>
  <blank length="00:00:01.440"/>
  <entry producer="chain205" in="00:00:00.000" out="00:00:14.800">
   <property name="kdenlive:id">485</property>
  </entry>
  <entry producer="chain205" in="00:00:17.120" out="00:00:18.800">
   <property name="kdenlive:id">485</property>
  </entry>
  <blank length="00:00:00.680"/>
  <entry producer="producer339" in="00:00:00.000" out="00:00:07.600">
   <property name="kdenlive:id">486</property>
   <filter id="filter503">
    <property name="rotate_center">1</property>
    <property name="mlt_service">qtblend</property>
    <property name="kdenlive_id">qtblend</property>
    <property name="rect">00:00:00.000=470 535 19 10 1.000000;00:00:00.240=-144 189 1248 702 1.000000;00:00:00.360=-96 216 1152 648 1.000000;00:00:01.360~=-96 182 1152 648 1.000000;00:00:02.360~=-96 232 1152 648 1.000000;00:00:03.360~=-96 187 1152 648 1.000000;00:00:04.360~=-96 243 1152 648 1.000000;00:00:05.360~=-96 196 1152 648 1.000000;00:00:06.360~=-96 237 1152 648 1.000000;00:00:07.240=-96 194 1152 648 1.000000;00:00:07.360=-144 164 1248 702 1.000000;00:00:07.600=470 516 19 10 1.000000</property>
    <property name="rotation">00:00:00.000=0;00:00:00.240=0;00:00:00.360=0;00:00:01.360~=0;00:00:02.360~=0;00:00:03.360~=0;00:00:04.360~=0;00:00:05.360~=0;00:00:06.360~=0;00:00:07.240=0;00:00:07.360=0;00:00:07.600=0</property>
    <property name="compositing">0</property>
    <property name="distort">0</property>
    <property name="kdenlive:collapsed">0</property>
   </filter>
  </entry>
  <entry producer="producer338" in="00:00:00.000" out="00:00:15.720">
   <property name="kdenlive:id">475</property>
   <filter id="filter504" out="00:00:00.600">
    <property name="start">1</property>
    <property name="level">1</property>
    <property name="mlt_service">brightness</property>
    <property name="kdenlive_id">fade_from_black</property>
    <property name="alpha">00:00:00.000=0;00:00:00.600=1</property>
    <property name="kdenlive:collapsed">0</property>
   </filter>
   <filter id="filter505" in="00:00:15.120" out="00:00:15.720">
    <property name="start">1</property>
    <property name="level">1</property>
    <property name="mlt_service">brightness</property>
    <property name="kdenlive_id">fade_to_black</property>
    <property name="alpha">00:00:00.000=1;00:00:00.600=0</property>
    <property name="kdenlive:collapsed">0</property>
   </filter>
  </entry>
  <blank length="00:00:04.720"/>
  <entry producer="producer341" in="00:00:00.000" out="00:00:10.840">
   <property name="kdenlive:id">489</property>
   <filter id="filter506" out="00:00:00.600">
    <property name="start">1</property>
    <property name="level">1</property>
    <property name="mlt_service">brightness</property>
    <property name="kdenlive_id">fade_from_black</property>
    <property name="alpha">00:00:00.000=0;00:00:00.600=1</property>
   </filter>
   <filter id="filter507" in="00:00:10.240" out="00:00:10.840">
    <property name="start">1</property>
    <property name="level">1</property>
    <property name="mlt_service">brightness</property>
    <property name="kdenlive_id">fade_to_black</property>
    <property name="alpha">00:00:00.000=1;00:00:00.600=0</property>
   </filter>
  </entry>
  <blank length="00:00:05.280"/>
  <entry producer="producer301" in="00:00:00.000" out="00:00:09.600">
   <property name="kdenlive:id">388</property>
   <filter id="filter508" out="00:00:00.600">
    <property name="start">1</property>
    <property name="level">1</property>
    <property name="mlt_service">brightness</property>
    <property name="kdenlive_id">fade_from_black</property>
    <property name="alpha">00:00:00.000=0;00:00:00.600=1</property>
    <property name="kdenlive:collapsed">0</property>
   </filter>
   <filter id="filter509" in="00:00:09.000" out="00:00:09.600">
    <property name="start">1</property>
    <property name="level">1</property>
    <property name="mlt_service">brightness</property>
    <property name="kdenlive_id">fade_to_black</property>
    <property name="alpha">00:00:00.000=1;00:00:00.600=0</property>
    <property name="kdenlive:collapsed">0</property>
   </filter>
  </entry>
  <entry producer="producer352" in="00:00:00.000" out="00:00:14.440">
   <property name="kdenlive:id">492</property>
   <property name="kdenlive:activeeffect">1</property>
   <filter id="filter510" out="00:00:00.600">
    <property name="start">1</property>
    <property name="level">1</property>
    <property name="mlt_service">brightness</property>
    <property name="kdenlive_id">fade_from_black</property>
    <property name="alpha">00:00:00.000=0;00:00:00.600=1</property>
    <property name="kdenlive:collapsed">0</property>
   </filter>
   <filter id="filter511" in="00:00:13.840" out="00:00:14.440">
    <property name="start">1</property>
    <property name="level">1</property>
    <property name="mlt_service">brightness</property>
    <property name="kdenlive_id">fade_to_black</property>
    <property name="alpha">00:00:00.000=1;00:00:00.600=0</property>
    <property name="kdenlive:collapsed">0</property>
   </filter>
  </entry>
  <entry producer="producer353" in="00:00:00.000" out="00:00:04.640">
   <property name="kdenlive:id">494</property>
   <property name="kdenlive:activeeffect">1</property>
   <filter id="filter512" out="00:00:00.600">
    <property name="start">1</property>
    <property name="level">1</property>
    <property name="mlt_service">brightness</property>
    <property name="kdenlive_id">fade_from_black</property>
    <property name="alpha">00:00:00.000=0;00:00:00.600=1</property>
    <property name="kdenlive:collapsed">0</property>
   </filter>
   <filter id="filter513" in="00:00:04.040" out="00:00:04.640">
    <property name="start">1</property>
    <property name="level">1</property>
    <property name="mlt_service">brightness</property>
    <property name="kdenlive_id">fade_to_black</property>
    <property name="alpha">00:00:00.000=1;00:00:00.600=0</property>
    <property name="kdenlive:collapsed">0</property>
   </filter>
  </entry>
  <entry producer="producer354" in="00:00:00.000" out="00:00:08.920">
   <property name="kdenlive:id">496</property>
   <filter id="filter514" out="00:00:00.600">
    <property name="start">1</property>
    <property name="level">1</property>
    <property name="mlt_service">brightness</property>
    <property name="kdenlive_id">fade_from_black</property>
    <property name="alpha">00:00:00.000=0;00:00:00.600=1</property>
   </filter>
   <filter id="filter515" in="00:00:08.320" out="00:00:08.920">
    <property name="start">1</property>
    <property name="level">1</property>
    <property name="mlt_service">brightness</property>
    <property name="kdenlive_id">fade_to_black</property>
    <property name="alpha">00:00:00.000=1;00:00:00.600=0</property>
   </filter>
  </entry>
  <entry producer="producer338" in="00:00:00.000" out="00:00:04.960">
   <property name="kdenlive:id">475</property>
   <filter id="filter516" out="00:00:00.600">
    <property name="start">1</property>
    <property name="level">1</property>
    <property name="mlt_service">brightness</property>
    <property name="kdenlive_id">fade_from_black</property>
    <property name="alpha">00:00:00.000=0;00:00:00.600=1</property>
    <property name="kdenlive:collapsed">0</property>
   </filter>
   <filter id="filter517" in="00:00:04.360" out="00:00:04.960">
    <property name="start">1</property>
    <property name="level">1</property>
    <property name="mlt_service">brightness</property>
    <property name="kdenlive_id">fade_to_black</property>
    <property name="alpha">00:00:00.000=1;00:00:00.600=0</property>
    <property name="kdenlive:collapsed">0</property>
   </filter>
  </entry>
  <blank length="00:00:05.000"/>
  <entry producer="chain182" in="00:00:00.000" out="00:00:04.960">
   <property name="kdenlive:id">263</property>
   <filter id="filter518">
    <property name="rotate_center">1</property>
    <property name="mlt_service">qtblend</property>
    <property name="kdenlive_id">qtblend</property>
    <property name="rect">00:00:00.000=-947 0 1920 1080 1.000000</property>
    <property name="rotation">00:00:00.000=0</property>
    <property name="compositing">0</property>
    <property name="distort">0</property>
    <property name="kdenlive:collapsed">1</property>
   </filter>
  </entry>
  <entry producer="chain182" in="00:00:00.000" out="00:00:03.080">
   <property name="kdenlive:id">263</property>
   <filter id="filter519">
    <property name="rotate_center">1</property>
    <property name="mlt_service">qtblend</property>
    <property name="kdenlive_id">qtblend</property>
    <property name="rect">00:00:00.000=-947 0 1920 1080 1.000000</property>
    <property name="rotation">00:00:00.000=0</property>
    <property name="compositing">0</property>
    <property name="distort">0</property>
    <property name="kdenlive:collapsed">1</property>
   </filter>
  </entry>
  <entry producer="chain182" in="00:00:02.040" out="00:00:02.400">
   <property name="kdenlive:id">263</property>
   <filter id="filter520">
    <property name="rotate_center">1</property>
    <property name="mlt_service">qtblend</property>
    <property name="kdenlive_id">qtblend</property>
    <property name="rect">00:00:02.040=-947 0 1920 1080 1.000000</property>
    <property name="rotation">00:00:02.040=0</property>
    <property name="compositing">0</property>
    <property name="distort">0</property>
    <property name="kdenlive:collapsed">1</property>
   </filter>
   <filter id="filter521">
    <property name="rotate_center">1</property>
    <property name="mlt_service">qtblend</property>
    <property name="kdenlive_id">qtblend</property>
    <property name="rect">00:00:02.040=0 0 1920 1080 1.000000;00:00:02.160=0 61 1920 1080 1.000000;00:00:02.400=0 -1071 1920 1080 1.000000</property>
    <property name="rotation">00:00:02.040=0;00:00:02.160=0;00:00:02.400=0</property>
    <property name="compositing">0</property>
    <property name="distort">0</property>
    <property name="kdenlive:collapsed">0</property>
   </filter>
  </entry>
  <blank length="00:00:03.880"/>
  <entry producer="producer16" in="00:00:00.000" out="00:00:07.680">
   <property name="kdenlive:id">33</property>
   <filter id="filter522">
    <property name="rotate_center">1</property>
    <property name="mlt_service">qtblend</property>
    <property name="kdenlive_id">qtblend</property>
    <property name="rect">00:00:00.000=950 535 19 10 1.000000;00:00:00.240=240 135 1440 810 1.000000;00:00:00.360=288 162 1344 756 1.000000;00:00:07.320=192 108 1536 864 1.000000;00:00:07.440=144 81 1632 918 1.000000;00:00:07.680=950 535 19 10 1.000000</property>
    <property name="rotation">00:00:00.000=0;00:00:00.240=0;00:00:00.360=0;00:00:07.320=0;00:00:07.440=0;00:00:07.680=0</property>
    <property name="compositing">0</property>
    <property name="distort">0</property>
    <property name="kdenlive:collapsed">0</property>
   </filter>
  </entry>
  <blank length="00:00:01.160"/>
  <entry producer="chain206" in="00:00:00.000" out="00:00:09.520">
   <property name="kdenlive:id">498</property>
  </entry>
  <entry producer="chain206" in="00:00:12.120" out="00:00:16.200">
   <property name="kdenlive:id">498</property>
  </entry>
  <entry producer="chain206" in="00:00:23.320" out="00:00:29.520">
   <property name="kdenlive:id">498</property>
  </entry>
  <entry producer="chain206" in="00:00:30.040" out="00:00:39.080">
   <property name="kdenlive:id">498</property>
  </entry>
  <entry producer="chain206" in="00:00:40.840" out="00:00:42.200">
   <property name="kdenlive:id">498</property>
  </entry>
  <entry producer="producer338" in="00:00:00.000" out="00:00:04.240">
   <property name="kdenlive:id">475</property>
   <filter id="filter523" out="00:00:00.600">
    <property name="start">1</property>
    <property name="level">1</property>
    <property name="mlt_service">brightness</property>
    <property name="kdenlive_id">fade_from_black</property>
    <property name="alpha">00:00:00.000=0;00:00:00.600=1</property>
    <property name="kdenlive:collapsed">0</property>
   </filter>
   <filter id="filter524" in="00:00:03.640" out="00:00:04.240">
    <property name="start">1</property>
    <property name="level">1</property>
    <property name="mlt_service">brightness</property>
    <property name="kdenlive_id">fade_to_black</property>
    <property name="alpha">00:00:00.000=1;00:00:00.600=0</property>
    <property name="kdenlive:collapsed">0</property>
   </filter>
  </entry>
  <blank length="00:00:05.600"/>
  <entry producer="producer356" in="00:00:00.000" out="00:00:07.600">
   <property name="kdenlive:id">500</property>
   <filter id="filter525">
    <property name="rotate_center">1</property>
    <property name="mlt_service">qtblend</property>
    <property name="kdenlive_id">qtblend</property>
    <property name="rect">00:00:00.000=192 108 1536 864 1.000000</property>
    <property name="rotation">00:00:00.000=0</property>
    <property name="compositing">0</property>
    <property name="distort">0</property>
    <property name="kdenlive:collapsed">0</property>
   </filter>
   <filter id="filter526">
    <property name="rotate_center">1</property>
    <property name="mlt_service">qtblend</property>
    <property name="kdenlive_id">qtblend</property>
    <property name="rect">00:00:00.000=470 535 19 10 1.000000;00:00:00.240=-144 189 1248 702 1.000000;00:00:00.360=-96 216 1152 648 1.000000;00:00:01.360~=-96 182 1152 648 1.000000;00:00:02.360~=-96 232 1152 648 1.000000;00:00:03.360~=-96 187 1152 648 1.000000;00:00:04.360~=-96 243 1152 648 1.000000;00:00:05.360~=-96 196 1152 648 1.000000;00:00:06.360~=-96 237 1152 648 1.000000;00:00:07.240=-96 194 1152 648 1.000000;00:00:07.360=-144 164 1248 702 1.000000;00:00:07.600=470 516 19 10 1.000000</property>
    <property name="rotation">00:00:00.000=0;00:00:00.240=0;00:00:00.360=0;00:00:01.360~=0;00:00:02.360~=0;00:00:03.360~=0;00:00:04.360~=0;00:00:05.360~=0;00:00:06.360~=0;00:00:07.240=0;00:00:07.360=0;00:00:07.600=0</property>
    <property name="compositing">0</property>
    <property name="distort">0</property>
    <property name="kdenlive:collapsed">1</property>
   </filter>
  </entry>
  <blank length="00:00:00.480"/>
  <entry producer="producer359" in="00:00:00.000" out="00:00:04.880">
   <property name="kdenlive:id">502</property>
   <property name="kdenlive:activeeffect">1</property>
   <filter id="filter527">
    <property name="rotate_center">1</property>
    <property name="mlt_service">qtblend</property>
    <property name="kdenlive_id">qtblend</property>
    <property name="rect">00:00:00.000=321 180 1279 719 1.000000</property>
    <property name="rotation">00:00:00.000=0</property>
    <property name="compositing">0</property>
    <property name="distort">0</property>
    <property name="kdenlive:collapsed">1</property>
   </filter>
   <filter id="filter528">
    <property name="rotate_center">1</property>
    <property name="mlt_service">qtblend</property>
    <property name="kdenlive_id">qtblend</property>
    <property name="rect">00:00:00.000=950 535 19 10 1.000000;00:00:00.240=-48 -27 2016 1134 1.000000;00:00:00.360=0 0 1920 1080 1.000000;00:00:04.520=-96 -54 2112 1188 1.000000;00:00:04.640=-143 -80 2207 1241 1.000000;00:00:04.880=950 535 19 10 1.000000</property>
    <property name="rotation">00:00:00.000=0;00:00:00.240=0;00:00:00.360=0;00:00:04.520=0;00:00:04.640=0;00:00:04.880=0</property>
    <property name="compositing">0</property>
    <property name="distort">0</property>
    <property name="kdenlive:collapsed">0</property>
   </filter>
  </entry>
  <entry producer="producer360" in="00:00:00.000" out="00:00:04.520">
   <property name="kdenlive:id">503</property>
   <filter id="filter529">
    <property name="rotate_center">1</property>
    <property name="mlt_service">qtblend</property>
    <property name="kdenlive_id">qtblend</property>
    <property name="rect">00:00:00.000=950 535 19 10 1.000000;00:00:00.240=-48 -27 2016 1134 1.000000;00:00:00.360=0 0 1920 1080 1.000000;00:00:04.160=-96 -54 2112 1188 1.000000;00:00:04.280=-190 -107 2302 1295 1.000000;00:00:04.520=951 535 19 10 1.000000</property>
    <property name="rotation">00:00:00.000=0;00:00:00.240=0;00:00:00.360=0;00:00:04.160=0;00:00:04.280=0;00:00:04.520=0</property>
    <property name="compositing">0</property>
    <property name="distort">0</property>
    <property name="kdenlive:collapsed">0</property>
   </filter>
  </entry>
  <entry producer="producer362" in="00:00:00.000" out="00:00:16.040">
   <property name="kdenlive:id">505</property>
   <property name="kdenlive:activeeffect">1</property>
   <filter id="filter530" out="00:00:00.600">
    <property name="start">1</property>
    <property name="level">1</property>
    <property name="mlt_service">brightness</property>
    <property name="kdenlive_id">fade_from_black</property>
    <property name="alpha">00:00:00.000=0;00:00:00.600=1</property>
    <property name="kdenlive:collapsed">0</property>
   </filter>
   <filter id="filter531" in="00:00:15.440" out="00:00:16.040">
    <property name="start">1</property>
    <property name="level">1</property>
    <property name="mlt_service">brightness</property>
    <property name="kdenlive_id">fade_to_black</property>
    <property name="alpha">00:00:00.000=1;00:00:00.600=0</property>
    <property name="kdenlive:collapsed">0</property>
   </filter>
  </entry>
  <entry producer="chain207" in="00:00:00.000" out="00:00:03.520">
   <property name="kdenlive:id">506</property>
   <filter id="filter532" out="00:00:01.120">
    <property name="start">1</property>
    <property name="level">1</property>
    <property name="mlt_service">brightness</property>
    <property name="kdenlive_id">fade_from_black</property>
    <property name="alpha">00:00:00.000=0;00:00:01.120=1</property>
   </filter>
  </entry>
  <entry producer="chain207" in="00:00:05.000" out="00:00:10.240">
   <property name="kdenlive:id">506</property>
   <filter id="filter533" in="00:00:09.800" out="00:00:10.240">
    <property name="start">1</property>
    <property name="level">1</property>
    <property name="mlt_service">brightness</property>
    <property name="kdenlive_id">fade_to_black</property>
    <property name="alpha">00:00:00.000=1;00:00:00.440=0</property>
   </filter>
  </entry>
  <blank length="00:00:00.400"/>
  <entry producer="producer363" in="00:00:00.000" out="00:00:13.120">
   <property name="kdenlive:id">508</property>
   <property name="kdenlive:activeeffect">1</property>
   <filter id="filter534" out="00:00:00.600">
    <property name="start">1</property>
    <property name="level">1</property>
    <property name="mlt_service">brightness</property>
    <property name="kdenlive_id">fade_from_black</property>
    <property name="alpha">00:00:00.000=0;00:00:00.600=1</property>
    <property name="kdenlive:collapsed">0</property>
   </filter>
   <filter id="filter535" in="00:00:12.520" out="00:00:13.120">
    <property name="start">1</property>
    <property name="level">1</property>
    <property name="mlt_service">brightness</property>
    <property name="kdenlive_id">fade_to_black</property>
    <property name="alpha">00:00:00.000=1;00:00:00.600=0</property>
    <property name="kdenlive:collapsed">0</property>
   </filter>
  </entry>
  <entry producer="producer364" in="00:00:00.000" out="00:00:14.080">
   <property name="kdenlive:id">510</property>
   <property name="kdenlive:activeeffect">1</property>
   <filter id="filter536" out="00:00:00.600">
    <property name="start">1</property>
    <property name="level">1</property>
    <property name="mlt_service">brightness</property>
    <property name="kdenlive_id">fade_from_black</property>
    <property name="alpha">00:00:00.000=0;00:00:00.600=1</property>
    <property name="kdenlive:collapsed">0</property>
   </filter>
   <filter id="filter537" in="00:00:13.480" out="00:00:14.080">
    <property name="start">1</property>
    <property name="level">1</property>
    <property name="mlt_service">brightness</property>
    <property name="kdenlive_id">fade_to_black</property>
    <property name="alpha">00:00:00.000=1;00:00:00.600=0</property>
    <property name="kdenlive:collapsed">0</property>
   </filter>
  </entry>
  <entry producer="producer365" in="00:00:00.000" out="00:00:16.800">
   <property name="kdenlive:id">513</property>
   <property name="kdenlive:activeeffect">1</property>
   <filter id="filter538" out="00:00:00.600">
    <property name="start">1</property>
    <property name="level">1</property>
    <property name="mlt_service">brightness</property>
    <property name="kdenlive_id">fade_from_black</property>
    <property name="alpha">00:00:00.000=0;00:00:00.600=1</property>
    <property name="kdenlive:collapsed">0</property>
   </filter>
   <filter id="filter539" in="00:00:16.200" out="00:00:16.800">
    <property name="start">1</property>
    <property name="level">1</property>
    <property name="mlt_service">brightness</property>
    <property name="kdenlive_id">fade_to_black</property>
    <property name="alpha">00:00:00.000=1;00:00:00.600=0</property>
    <property name="kdenlive:collapsed">0</property>
   </filter>
  </entry>
  <entry producer="producer366" in="00:00:00.000" out="00:00:14.040">
   <property name="kdenlive:id">517</property>
   <property name="kdenlive:activeeffect">1</property>
   <filter id="filter540" out="00:00:00.600">
    <property name="start">1</property>
    <property name="level">1</property>
    <property name="mlt_service">brightness</property>
    <property name="kdenlive_id">fade_from_black</property>
    <property name="alpha">00:00:00.000=0;00:00:00.600=1</property>
    <property name="kdenlive:collapsed">0</property>
   </filter>
   <filter id="filter541" in="00:00:13.440" out="00:00:14.040">
    <property name="start">1</property>
    <property name="level">1</property>
    <property name="mlt_service">brightness</property>
    <property name="kdenlive_id">fade_to_black</property>
    <property name="alpha">00:00:00.000=1;00:00:00.600=0</property>
    <property name="kdenlive:collapsed">0</property>
   </filter>
  </entry>
  <entry producer="producer367" in="00:00:00.000" out="00:00:07.640">
   <property name="kdenlive:id">519</property>
   <property name="kdenlive:activeeffect">1</property>
   <filter id="filter542" out="00:00:00.600">
    <property name="start">1</property>
    <property name="level">1</property>
    <property name="mlt_service">brightness</property>
    <property name="kdenlive_id">fade_from_black</property>
    <property name="alpha">00:00:00.000=0;00:00:00.600=1</property>
    <property name="kdenlive:collapsed">0</property>
   </filter>
   <filter id="filter543" in="00:00:07.000" out="00:00:07.640">
    <property name="start">1</property>
    <property name="level">1</property>
    <property name="mlt_service">brightness</property>
    <property name="kdenlive_id">fade_to_black</property>
    <property name="alpha">0=1;-1=0</property>
    <property name="kdenlive:collapsed">0</property>
   </filter>
  </entry>
  <entry producer="chain208" in="00:00:04.480" out="00:00:05.440">
   <property name="kdenlive:id">520</property>
   <filter id="filter544" in="00:00:04.480" out="00:00:05.200">
    <property name="start">1</property>
    <property name="level">1</property>
    <property name="mlt_service">brightness</property>
    <property name="kdenlive_id">fade_from_black</property>
    <property name="alpha">00:00:00.000=0;00:00:00.720=1</property>
    <property name="kdenlive:collapsed">0</property>
   </filter>
  </entry>
  <entry producer="chain208" in="00:00:05.480" out="00:00:07.600">
   <property name="kdenlive:id">520</property>
  </entry>
  <entry producer="chain208" in="00:00:05.480" out="00:00:07.600">
   <property name="kdenlive:id">520</property>
  </entry>
  <entry producer="chain208" in="00:00:07.640" out="00:00:09.800">
   <property name="kdenlive:id">520</property>
  </entry>
  <entry producer="chain208" in="00:00:09.840" out="00:00:11.120">
   <property name="kdenlive:id">520</property>
  </entry>
  <entry producer="chain208" in="00:00:09.840" out="00:00:11.120">
   <property name="kdenlive:id">520</property>
  </entry>
  <entry producer="chain208" in="00:00:09.840" out="00:00:11.120">
   <property name="kdenlive:id">520</property>
  </entry>
  <entry producer="chain208" in="00:00:09.840" out="00:00:11.120">
   <property name="kdenlive:id">520</property>
  </entry>
  <entry producer="chain208" in="00:00:09.840" out="00:00:11.120">
   <property name="kdenlive:id">520</property>
  </entry>
  <entry producer="chain208" in="00:00:09.840" out="00:00:10.440">
   <property name="kdenlive:id">520</property>
  </entry>
  <entry producer="producer554" in="00:00:05.560" out="00:00:14.840">
   <property name="kdenlive:id">520</property>
  </entry>
  <entry producer="chain208" in="00:00:29.680" out="00:00:33.320">
   <property name="kdenlive:id">520</property>
  </entry>
  <entry producer="chain208" in="00:00:34.040" out="00:00:37.360">
   <property name="kdenlive:id">520</property>
  </entry>
  <entry producer="chain208" in="00:00:41.560" out="00:00:46.160">
   <property name="kdenlive:id">520</property>
  </entry>
  <entry producer="chain208" in="00:00:46.200" out="00:00:49.800">
   <property name="kdenlive:id">520</property>
  </entry>
  <entry producer="chain208" in="00:00:46.200" out="00:00:48.120">
   <property name="kdenlive:id">520</property>
  </entry>
  <blank length="00:00:19.480"/>
  <entry producer="chain209" in="00:00:00.000" out="00:00:07.640">
   <property name="kdenlive:id">523</property>
   <filter id="filter545">
    <property name="rotate_center">1</property>
    <property name="mlt_service">qtblend</property>
    <property name="kdenlive_id">qtblend</property>
    <property name="rect">00:00:00.000=0 1080 1920 1080 1.000000;00:00:00.240=0 -66 1920 1080 1.000000;00:00:00.360=0 0 1920 1080 1.000000;00:00:07.280=0 0 1920 1080 1.000000;00:00:07.400=0 72 1920 1080 1.000000;00:00:07.640=0 -1080 1920 1080 1.000000</property>
    <property name="rotation">00:00:00.000=0;00:00:00.240=0;00:00:00.360=0;00:00:07.280=0;00:00:07.400=0;00:00:07.640=0</property>
    <property name="compositing">0</property>
    <property name="distort">0</property>
    <property name="kdenlive:collapsed">0</property>
   </filter>
  </entry>
  <entry producer="producer369" in="00:00:00.000" out="00:00:13.040">
   <property name="kdenlive:id">526</property>
   <filter id="filter546" out="00:00:00.600">
    <property name="start">1</property>
    <property name="level">1</property>
    <property name="mlt_service">brightness</property>
    <property name="kdenlive_id">fade_from_black</property>
    <property name="alpha">00:00:00.000=0;00:00:00.600=1</property>
    <property name="kdenlive:collapsed">0</property>
   </filter>
   <filter id="filter547" in="00:00:12.440" out="00:00:13.040">
    <property name="start">1</property>
    <property name="level">1</property>
    <property name="mlt_service">brightness</property>
    <property name="kdenlive_id">fade_to_black</property>
    <property name="alpha">00:00:00.000=1;00:00:00.600=0</property>
    <property name="kdenlive:collapsed">0</property>
   </filter>
  </entry>
  <blank length="00:00:02.680"/>
  <entry producer="producer371" in="00:00:00.000" out="00:00:17.840">
   <property name="kdenlive:id">527</property>
   <filter id="filter548">
    <property name="rotate_center">1</property>
    <property name="mlt_service">qtblend</property>
    <property name="kdenlive_id">qtblend</property>
    <property name="rect">00:00:00.000=240 135 1440 810 1.000000;00:00:17.840=144 81 1632 918 1.000000</property>
    <property name="rotation">00:00:00.000=0;00:00:17.840=0</property>
    <property name="compositing">0</property>
    <property name="distort">0</property>
    <property name="kdenlive:collapsed">0</property>
   </filter>
   <filter id="filter549">
    <property name="rotate_center">1</property>
    <property name="mlt_service">qtblend</property>
    <property name="kdenlive_id">qtblend</property>
    <property name="rect">00:00:00.000=0 1080 1920 1080 1.000000;00:00:00.240=0 -30 1920 1080 1.000000;00:00:00.360=0 0 1920 1080 1.000000</property>
    <property name="rotation">00:00:00.000=0;00:00:00.240=0;00:00:00.360=0</property>
    <property name="compositing">0</property>
    <property name="distort">0</property>
    <property name="kdenlive:collapsed">0</property>
   </filter>
  </entry>
  <entry producer="producer371" in="00:00:00.000" out="00:00:27.120">
   <property name="kdenlive:id">527</property>
   <filter id="filter550">
    <property name="rotate_center">1</property>
    <property name="mlt_service">qtblend</property>
    <property name="kdenlive_id">qtblend</property>
    <property name="rect">00:00:00.000=144 81 1632 918 1.000000;00:00:00.200=-281 -159 2488 1400 1.000000</property>
    <property name="rotation">00:00:00.000=0;00:00:00.200=0</property>
    <property name="compositing">0</property>
    <property name="distort">0</property>
    <property name="kdenlive:collapsed">1</property>
   </filter>
   <filter id="filter551">
    <property name="hradius">00:00:00.000=0;00:00:00.200=60</property>
    <property name="vradius">00:00:00.000=0;00:00:00.200=60</property>
    <property name="mlt_service">box_blur</property>
    <property name="kdenlive_id">box_blur</property>
    <property name="kdenlive:collapsed">0</property>
   </filter>
   <filter id="filter552">
    <property name="start">1</property>
    <property name="level">00:00:00.000=1;00:00:00.200=0.94</property>
    <property name="mlt_service">brightness</property>
    <property name="kdenlive_id">brightness</property>
    <property name="kdenlive:collapsed">0</property>
   </filter>
   <filter id="filter553" in="00:00:26.640" out="00:00:27.120">
    <property name="start">1</property>
    <property name="level">1</property>
    <property name="mlt_service">brightness</property>
    <property name="kdenlive_id">fade_to_black</property>
    <property name="alpha">00:00:00.000=1;00:00:00.480=0</property>
   </filter>
  </entry>
  <blank length="00:00:00.760"/>
  <entry producer="producer152" in="00:00:00.000" out="00:00:30.000">
   <property name="kdenlive:id">173</property>
   <property name="kdenlive:activeeffect">1</property>
   <filter id="filter554">
    <property name="rotate_center">1</property>
    <property name="mlt_service">qtblend</property>
    <property name="kdenlive_id">qtblend</property>
    <property name="rect">00:00:00.000=192 108 1536 864 1.000000;00:00:30.000=96 54 1728 972 1.000000</property>
    <property name="rotation">00:00:00.000=0;00:00:30.000=0</property>
    <property name="compositing">0</property>
    <property name="distort">0</property>
    <property name="kdenlive:collapsed">1</property>
   </filter>
   <filter id="filter555">
    <property name="rotate_center">1</property>
    <property name="mlt_service">qtblend</property>
    <property name="kdenlive_id">qtblend</property>
    <property name="rect">00:00:00.000=950 535 19 10 1.000000;00:00:00.240=-48 -27 2016 1134 1.000000;00:00:00.360=0 0 1920 1080 1.000000;00:00:06.120=0 0 1920 1080 1.000000;00:00:06.360=-480 0 1920 1080 1.000000;00:00:06.480=-423 0 1920 1080 1.000000;00:00:29.640=-423 0 1920 1080 1.000000;00:00:29.760=-471 -27 2016 1134 1.000000;00:00:30.000=527 535 19 10 1.000000</property>
    <property name="rotation">00:00:00.000=0;00:00:00.240=0;00:00:00.360=0;00:00:06.120=0;00:00:06.360=0;00:00:06.480=0;00:00:29.640=0;00:00:29.760=0;00:00:30.000=0</property>
    <property name="compositing">0</property>
    <property name="distort">0</property>
    <property name="kdenlive:collapsed">0</property>
   </filter>
  </entry>
  <blank length="00:00:32.080"/>
  <entry producer="chain210" in="00:00:00.000" out="00:00:19.960">
   <property name="kdenlive:id">547</property>
  </entry>
  <entry producer="chain210" in="00:00:00.000" out="00:00:03.680">
   <property name="kdenlive:id">547</property>
   <filter id="filter556" in="00:00:03.080" out="00:00:03.680">
    <property name="start">1</property>
    <property name="level">1</property>
    <property name="mlt_service">brightness</property>
    <property name="kdenlive_id">fade_to_black</property>
    <property name="alpha">00:00:00.000=1;00:00:00.600=0</property>
   </filter>
  </entry>
  <blank length="00:00:01.920"/>
  <entry producer="producer162" in="00:00:00.000" out="00:00:04.480">
   <property name="kdenlive:id">183</property>
   <property name="kdenlive:activeeffect">1</property>
   <filter id="filter557">
    <property name="rotate_center">1</property>
    <property name="mlt_service">qtblend</property>
    <property name="kdenlive_id">qtblend</property>
    <property name="rect">00:00:00.000=192 108 1536 864 1.000000;00:00:04.480=96 54 1728 972 1.000000</property>
    <property name="rotation">00:00:00.000=0;00:00:04.480=0</property>
    <property name="compositing">0</property>
    <property name="distort">0</property>
    <property name="kdenlive:collapsed">1</property>
   </filter>
   <filter id="filter558">
    <property name="rotate_center">1</property>
    <property name="mlt_service">qtblend</property>
    <property name="kdenlive_id">qtblend</property>
    <property name="rect">00:00:00.000=0 1080 1920 1080 1.000000;00:00:00.240=0 -59 1920 1080 1.000000;00:00:00.360=0 0 1920 1080 1.000000;00:00:04.120=0 0 1920 1080 1.000000;00:00:04.240=0 53 1920 1080 1.000000;00:00:04.480=0 -1080 1920 1080 1.000000</property>
    <property name="rotation">00:00:00.000=0;00:00:00.240=0;00:00:00.360=0;00:00:04.120=0;00:00:04.240=0;00:00:04.480=0</property>
    <property name="compositing">0</property>
    <property name="distort">0</property>
    <property name="kdenlive:collapsed">0</property>
   </filter>
  </entry>
  <blank length="00:00:45.600"/>
  <entry producer="producer377" in="00:00:00.000" out="00:00:01.920">
   <property name="kdenlive:id">552</property>
   <filter id="filter559" out="00:00:00.600">
    <property name="start">1</property>
    <property name="level">1</property>
    <property name="mlt_service">brightness</property>
    <property name="kdenlive_id">fade_from_black</property>
    <property name="alpha">00:00:00.000=0;00:00:00.600=1</property>
    <property name="kdenlive:collapsed">0</property>
   </filter>
  </entry>
  <blank length="00:00:22.680"/>
  <entry producer="chain211" in="00:00:12.760" out="00:00:14.920">
   <property name="kdenlive:id">551</property>
   <property name="kdenlive:activeeffect">1</property>
   <filter id="filter560">
    <property name="rotate_center">1</property>
    <property name="mlt_service">qtblend</property>
    <property name="kdenlive_id">qtblend</property>
    <property name="rect">00:00:12.760=321 180 1278 719 1.000000</property>
    <property name="rotation">00:00:12.760=0</property>
    <property name="compositing">0</property>
    <property name="distort">0</property>
    <property name="kdenlive:collapsed">1</property>
   </filter>
   <filter id="filter561">
    <property name="rotate_center">1</property>
    <property name="mlt_service">qtblend</property>
    <property name="kdenlive_id">qtblend</property>
    <property name="rect">00:00:12.760=0 1080 1920 1080 1.000000;00:00:13.000=0 -52 1920 1080 1.000000;00:00:13.120=0 0 1920 1080 1.000000;00:00:14.560=0 0 1920 1080 1.000000;00:00:14.680=0 63 1920 1080 1.000000;00:00:14.920=0 -1080 1920 1080 1.000000</property>
    <property name="rotation">00:00:12.760=0;00:00:13.000=0;00:00:13.120=0;00:00:14.560=0;00:00:14.680=0;00:00:14.920=0</property>
    <property name="compositing">0</property>
    <property name="distort">0</property>
    <property name="kdenlive:collapsed">0</property>
   </filter>
  </entry>
  <blank length="00:00:03.040"/>
  <entry producer="chain186" in="00:00:35.800" out="00:00:41.840">
   <property name="kdenlive:id">342</property>
  </entry>
  <entry producer="chain186" in="00:00:43.560" out="00:00:45.440">
   <property name="kdenlive:id">342</property>
  </entry>
  <entry producer="chain187" in="00:00:03.040" out="00:00:14.960">
   <property name="kdenlive:id">357</property>
   <filter id="filter562">
    <property name="rotate_center">1</property>
    <property name="mlt_service">qtblend</property>
    <property name="kdenlive_id">qtblend</property>
    <property name="rect">00:00:03.040=-371 -285 2668 1500 1.000000</property>
    <property name="rotation">00:00:03.040=0</property>
    <property name="compositing">0</property>
    <property name="distort">0</property>
    <property name="kdenlive:collapsed">1</property>
   </filter>
   <filter id="filter563">
    <property name="mlt_service">avfilter.zoompan</property>
    <property name="kdenlive_id">avfilter.zoompan</property>
    <property name="av.z">1</property>
    <property name="av.x">0</property>
    <property name="av.y">0</property>
    <property name="av.d">1</property>
    <property name="kdenlive:collapsed">1</property>
   </filter>
   <filter id="filter564" in="00:00:03.040" out="00:00:05.080">
    <property name="start">1</property>
    <property name="level">1</property>
    <property name="mlt_service">brightness</property>
    <property name="kdenlive_id">fade_from_black</property>
    <property name="alpha">00:00:00.000=0;00:00:02.040=1</property>
    <property name="kdenlive:collapsed">1</property>
   </filter>
   <filter id="filter565">
    <property name="rotate_center">1</property>
    <property name="mlt_service">qtblend</property>
    <property name="kdenlive_id">qtblend</property>
    <property name="rect">00:00:03.040=0 0 1920 1080 1.000000;00:00:08.560=0 0 1920 1080 1.000000;00:00:09.160=-432 -243 2784 1566 1.000000</property>
    <property name="rotation">00:00:03.040=0;00:00:08.560=0;00:00:09.160=0</property>
    <property name="compositing">0</property>
    <property name="distort">0</property>
    <property name="kdenlive:collapsed">0</property>
   </filter>
   <filter id="filter566">
    <property name="hradius">00:00:03.040=0;00:00:08.560=0;00:00:09.160=40</property>
    <property name="vradius">00:00:03.040=0;00:00:08.560=0;00:00:09.160=40</property>
    <property name="mlt_service">box_blur</property>
    <property name="kdenlive_id">box_blur</property>
    <property name="kdenlive:collapsed">0</property>
   </filter>
  </entry>
  <entry producer="chain187" in="00:00:15.000" out="00:00:49.840">
   <property name="kdenlive:id">357</property>
   <filter id="filter567">
    <property name="rotate_center">1</property>
    <property name="mlt_service">qtblend</property>
    <property name="kdenlive_id">qtblend</property>
    <property name="rect">00:00:15.000=-371 -285 2668 1500 1.000000</property>
    <property name="rotation">00:00:15.000=0</property>
    <property name="compositing">0</property>
    <property name="distort">0</property>
    <property name="kdenlive:collapsed">1</property>
   </filter>
   <filter id="filter568">
    <property name="mlt_service">avfilter.zoompan</property>
    <property name="kdenlive_id">avfilter.zoompan</property>
    <property name="av.z">1</property>
    <property name="av.x">0</property>
    <property name="av.y">0</property>
    <property name="av.d">1</property>
    <property name="kdenlive:collapsed">1</property>
   </filter>
   <filter id="filter569">
    <property name="rotate_center">1</property>
    <property name="mlt_service">qtblend</property>
    <property name="kdenlive_id">qtblend</property>
    <property name="rect">00:00:15.000=-432 -243 2784 1566 1.000000</property>
    <property name="rotation">00:00:15.000=0</property>
    <property name="compositing">0</property>
    <property name="distort">0</property>
    <property name="kdenlive:collapsed">0</property>
   </filter>
   <filter id="filter570">
    <property name="hradius">00:00:15.000=40</property>
    <property name="vradius">00:00:15.000=40</property>
    <property name="mlt_service">box_blur</property>
    <property name="kdenlive_id">box_blur</property>
    <property name="kdenlive:collapsed">0</property>
   </filter>
  </entry>
  <blank length="00:00:28.920"/>
  <entry producer="chain187" in="00:00:15.000" out="00:00:30.480">
   <property name="kdenlive:id">357</property>
   <filter id="filter571">
    <property name="rotate_center">1</property>
    <property name="mlt_service">qtblend</property>
    <property name="kdenlive_id">qtblend</property>
    <property name="rect">00:00:15.000=-371 -285 2668 1500 1.000000</property>
    <property name="rotation">00:00:15.000=0</property>
    <property name="compositing">0</property>
    <property name="distort">0</property>
    <property name="kdenlive:collapsed">1</property>
   </filter>
   <filter id="filter572">
    <property name="mlt_service">avfilter.zoompan</property>
    <property name="kdenlive_id">avfilter.zoompan</property>
    <property name="av.z">1</property>
    <property name="av.x">0</property>
    <property name="av.y">0</property>
    <property name="av.d">1</property>
    <property name="kdenlive:collapsed">1</property>
   </filter>
   <filter id="filter573">
    <property name="rotate_center">1</property>
    <property name="mlt_service">qtblend</property>
    <property name="kdenlive_id">qtblend</property>
    <property name="rect">00:00:15.000=-432 -243 2784 1566 1.000000</property>
    <property name="rotation">00:00:15.000=0</property>
    <property name="compositing">0</property>
    <property name="distort">0</property>
    <property name="kdenlive:collapsed">0</property>
   </filter>
   <filter id="filter574">
    <property name="hradius">00:00:15.000=40</property>
    <property name="vradius">00:00:15.000=40</property>
    <property name="mlt_service">box_blur</property>
    <property name="kdenlive_id">box_blur</property>
    <property name="kdenlive:collapsed">0</property>
   </filter>
   <filter id="filter575" in="00:00:29.680" out="00:00:30.480">
    <property name="start">1</property>
    <property name="level">1</property>
    <property name="mlt_service">brightness</property>
    <property name="kdenlive_id">fade_to_black</property>
    <property name="alpha">00:00:00.000=1;00:00:00.800=0</property>
   </filter>
  </entry>
  <entry producer="producer283" in="00:00:00.000" out="00:00:00.320">
   <property name="kdenlive:id">331</property>
  </entry>
  <entry producer="producer284" in="00:00:00.000" out="00:00:00.200">
   <property name="kdenlive:id">330</property>
  </entry>
  <entry producer="producer234" in="00:00:00.000" out="00:00:00.280">
   <property name="kdenlive:id">561</property>
  </entry>
  <entry producer="producer378" in="00:00:00.000" out="00:00:00.200">
   <property name="kdenlive:id">562</property>
  </entry>
  <entry producer="producer379" in="00:00:00.000" out="00:00:00.200">
   <property name="kdenlive:id">563</property>
  </entry>
  <entry producer="producer380" in="00:00:00.000" out="00:00:01.760">
   <property name="kdenlive:id">564</property>
   <filter id="filter576" in="00:00:01.440" out="00:00:01.760">
    <property name="start">1</property>
    <property name="level">1</property>
    <property name="mlt_service">brightness</property>
    <property name="kdenlive_id">fade_to_black</property>
    <property name="alpha">00:00:00.000=1;00:00:00.320=0</property>
    <property name="kdenlive:collapsed">0</property>
   </filter>
  </entry>
  <blank length="00:00:24.760"/>
  <entry producer="chain212" in="00:00:00.000" out="00:00:05.240">
   <property name="kdenlive:id">568</property>
  </entry>
  <entry producer="chain212" in="00:00:14.560" out="00:00:26.640">
   <property name="kdenlive:id">568</property>
  </entry>
  <blank length="00:00:25.200"/>
  <entry producer="chain213" in="00:00:00.000" out="00:00:04.160">
   <property name="kdenlive:id">572</property>
  </entry>
  <entry producer="chain213" in="00:00:04.200" out="00:00:10.400">
   <property name="kdenlive:id">572</property>
  </entry>
  <entry producer="chain213" in="00:00:04.200" out="00:00:10.400">
   <property name="kdenlive:id">572</property>
  </entry>
  <entry producer="chain213" in="00:00:10.440" out="00:00:12.080">
   <property name="kdenlive:id">572</property>
  </entry>
  <entry producer="chain213" in="00:00:14.240" out="00:00:19.880">
   <property name="kdenlive:id">572</property>
  </entry>
  <entry producer="chain213" in="00:00:20.840" out="00:00:22.160">
   <property name="kdenlive:id">572</property>
  </entry>
  <blank length="00:00:02.280"/>
  <entry producer="producer381" in="00:00:00.000" out="00:00:05.680">
   <property name="kdenlive:id">573</property>
   <property name="kdenlive:activeeffect">1</property>
   <filter id="filter577">
    <property name="rotate_center">1</property>
    <property name="mlt_service">qtblend</property>
    <property name="kdenlive_id">qtblend</property>
    <property name="rect">00:00:00.000=288 162 1344 756 1.000000;00:00:05.680=192 108 1536 864 1.000000</property>
    <property name="rotation">00:00:00.000=0;00:00:05.680=0</property>
    <property name="compositing">0</property>
    <property name="distort">0</property>
    <property name="kdenlive:collapsed">1</property>
   </filter>
   <filter id="filter578">
    <property name="rotate_center">1</property>
    <property name="mlt_service">qtblend</property>
    <property name="kdenlive_id">qtblend</property>
    <property name="rect">00:00:00.000=950 535 19 10 1.000000;00:00:00.240=-96 -54 2112 1188 1.000000;00:00:00.360=0 0 1920 1080 1.000000;00:00:05.320=0 0 1920 1080 1.000000;00:00:05.440=0 59 1920 1080 1.000000;00:00:05.680=0 -1080 1920 1080 1.000000</property>
    <property name="rotation">00:00:00.000=0;00:00:00.240=0;00:00:00.360=0;00:00:05.320=0;00:00:05.440=0;00:00:05.680=0</property>
    <property name="compositing">0</property>
    <property name="distort">0</property>
    <property name="kdenlive:collapsed">0</property>
   </filter>
  </entry>
  <entry producer="producer391" in="00:00:00.000" out="00:00:04.960">
   <property name="kdenlive:id">585</property>
   <property name="kdenlive:activeeffect">1</property>
   <filter id="filter579" out="00:00:00.600">
    <property name="start">1</property>
    <property name="level">1</property>
    <property name="mlt_service">brightness</property>
    <property name="kdenlive_id">fade_from_black</property>
    <property name="alpha">0=0;-1=1</property>
    <property name="kdenlive:collapsed">0</property>
   </filter>
   <filter id="filter580" in="00:00:04.360" out="00:00:04.960">
    <property name="start">1</property>
    <property name="level">1</property>
    <property name="mlt_service">brightness</property>
    <property name="kdenlive_id">fade_to_black</property>
    <property name="alpha">0=1;-1=0</property>
    <property name="kdenlive:collapsed">0</property>
   </filter>
  </entry>
  <blank length="00:00:03.920"/>
  <entry producer="producer383" in="00:00:00.000" out="00:00:06.400">
   <property name="kdenlive:id">575</property>
   <property name="kdenlive:activeeffect">1</property>
   <filter id="filter581">
    <property name="rotate_center">1</property>
    <property name="mlt_service">qtblend</property>
    <property name="kdenlive_id">qtblend</property>
    <property name="rect">00:00:00.000=144 81 1632 918 1.000000</property>
    <property name="rotation">00:00:00.000=0</property>
    <property name="compositing">0</property>
    <property name="distort">0</property>
    <property name="kdenlive:collapsed">1</property>
   </filter>
   <filter id="filter582">
    <property name="rotate_center">1</property>
    <property name="mlt_service">qtblend</property>
    <property name="kdenlive_id">qtblend</property>
    <property name="rect">00:00:00.000=-420 1080 1920 1080 1.000000;00:00:00.240=-420 -69 1920 1080 1.000000;00:00:00.360=-420 0 1920 1080 1.000000;00:00:06.040=-420 0 1920 1080 1.000000;00:00:06.160=-468 -27 2016 1134 1.000000;00:00:06.400=530 535 19 10 1.000000</property>
    <property name="rotation">00:00:00.000=0;00:00:00.240=0;00:00:00.360=0;00:00:06.040=0;00:00:06.160=0;00:00:06.400=0</property>
    <property name="compositing">0</property>
    <property name="distort">0</property>
    <property name="kdenlive:collapsed">0</property>
   </filter>
  </entry>
  <blank length="00:00:13.400"/>
  <entry producer="producer20" in="00:00:00.000" out="00:00:32.320">
   <property name="kdenlive:id">38</property>
   <filter id="filter583">
    <property name="rotate_center">1</property>
    <property name="mlt_service">qtblend</property>
    <property name="kdenlive_id">qtblend</property>
    <property name="rect">00:00:00.000=240 135 1440 810 1.000000;00:00:32.320=144 81 1632 918 1.000000</property>
    <property name="rotation">00:00:00.000=0;00:00:32.320=0</property>
    <property name="compositing">0</property>
    <property name="distort">0</property>
    <property name="kdenlive:collapsed">0</property>
   </filter>
   <filter id="filter584">
    <property name="rotate_center">1</property>
    <property name="mlt_service">qtblend</property>
    <property name="kdenlive_id">qtblend</property>
    <property name="rect">00:00:00.000=0 1080 1920 1080 1.000000;00:00:00.240=0 -51 1920 1080 1.000000;00:00:00.360=0 0 1920 1080 1.000000;00:00:31.960=0 0 1920 1080 1.000000;00:00:32.080=0 69 1920 1080 1.000000;00:00:32.320=0 -1080 1920 1080 1.000000</property>
    <property name="rotation">00:00:00.000=0;00:00:00.240=0;00:00:00.360=0;00:00:31.960=0;00:00:32.080=0;00:00:32.320=0</property>
    <property name="compositing">0</property>
    <property name="distort">0</property>
    <property name="kdenlive:collapsed">0</property>
   </filter>
  </entry>
  <blank length="00:00:16.200"/>
  <entry producer="chain158" in="00:00:00.000" out="00:00:03.040">
   <property name="kdenlive:id">219</property>
   <filter id="filter585">
    <property name="rotate_center">1</property>
    <property name="mlt_service">qtblend</property>
    <property name="kdenlive_id">qtblend</property>
    <property name="rect">00:00:00.000=0 1080 1920 1080 1.000000;00:00:00.240=0 -62 1920 1080 1.000000;00:00:00.360=0 0 1920 1080 1.000000;00:00:02.680=0 0 1920 1080 1.000000;00:00:02.800=0 60 1920 1080 1.000000;00:00:03.040=0 -1080 1920 1080 1.000000</property>
    <property name="rotation">00:00:00.000=0;00:00:00.240=0;00:00:00.360=0;00:00:02.680=0;00:00:02.800=0;00:00:03.040=0</property>
    <property name="compositing">0</property>
    <property name="distort">0</property>
    <property name="kdenlive:collapsed">0</property>
   </filter>
  </entry>
  <blank length="00:00:10.680"/>
  <entry producer="producer386" in="00:00:00.000" out="00:00:08.280">
   <property name="kdenlive:id">578</property>
   <filter id="filter586">
    <property name="rotate_center">1</property>
    <property name="mlt_service">qtblend</property>
    <property name="kdenlive_id">qtblend</property>
    <property name="rect">00:00:00.000=144 1080 1632 918 1.000000;00:00:00.240=144 38 1632 918 1.000000;00:00:00.360=144 81 1632 918 1.000000;00:00:07.920=144 81 1632 918 1.000000;00:00:08.040=144 142 1632 918 1.000000;00:00:08.280=144 -1080 1632 918 1.000000</property>
    <property name="rotation">00:00:00.000=0;00:00:00.240=0;00:00:00.360=0;00:00:07.920=0;00:00:08.040=0;00:00:08.280=0</property>
    <property name="compositing">0</property>
    <property name="distort">0</property>
    <property name="kdenlive:collapsed">0</property>
   </filter>
  </entry>
  <blank length="00:00:24.200"/>
  <entry producer="producer110" in="00:00:00.000" out="00:00:39.280">
   <property name="kdenlive:id">125</property>
   <filter id="filter587">
    <property name="rotate_center">1</property>
    <property name="mlt_service">qtblend</property>
    <property name="kdenlive_id">qtblend</property>
    <property name="rect">00:00:00.000=240 135 1440 810 1.000000;00:00:39.280=192 108 1536 864 1.000000</property>
    <property name="rotation">00:00:00.000=0;00:00:39.280=0</property>
    <property name="compositing">0</property>
    <property name="distort">0</property>
    <property name="kdenlive:collapsed">0</property>
   </filter>
   <filter id="filter588">
    <property name="rotate_center">1</property>
    <property name="mlt_service">qtblend</property>
    <property name="kdenlive_id">qtblend</property>
    <property name="rect">00:00:00.000=0 1080 1920 1080 1.000000;00:00:00.240=0 -66 1920 1080 1.000000;00:00:00.360=0 0 1920 1080 1.000000</property>
    <property name="rotation">00:00:00.000=0;00:00:00.240=0;00:00:00.360=0</property>
    <property name="compositing">0</property>
    <property name="distort">0</property>
    <property name="kdenlive:collapsed">0</property>
   </filter>
  </entry>
  <entry producer="producer110" in="00:00:00.000" out="00:00:19.480">
   <property name="kdenlive:id">125</property>
   <filter id="filter589">
    <property name="rotate_center">1</property>
    <property name="mlt_service">qtblend</property>
    <property name="kdenlive_id">qtblend</property>
    <property name="rect">00:00:00.000=192 108 1536 864 1.000000;00:00:00.400=-96 -54 2112 1188 1.000000</property>
    <property name="rotation">00:00:00.000=0;00:00:00.400=0</property>
    <property name="compositing">0</property>
    <property name="distort">0</property>
    <property name="kdenlive:collapsed">1</property>
   </filter>
   <filter id="filter590">
    <property name="hradius">00:00:00.000=0;00:00:00.400=60</property>
    <property name="vradius">00:00:00.000=0;00:00:00.400=60</property>
    <property name="mlt_service">box_blur</property>
    <property name="kdenlive_id">box_blur</property>
    <property name="kdenlive:collapsed">0</property>
   </filter>
   <filter id="filter591" in="00:00:18.280" out="00:00:19.480">
    <property name="start">1</property>
    <property name="level">1</property>
    <property name="mlt_service">brightness</property>
    <property name="kdenlive_id">fade_to_black</property>
    <property name="alpha">00:00:00.000=1;00:00:01.200=0</property>
    <property name="kdenlive:collapsed">0</property>
   </filter>
  </entry>
  <entry producer="producer555" in="00:00:08.120" out="00:00:19.240">
   <property name="kdenlive:id">342</property>
  </entry>
  <entry producer="producer403" in="00:00:00.000" out="00:00:06.520">
   <property name="kdenlive:id">586</property>
   <property name="kdenlive:activeeffect">1</property>
   <filter id="filter592" out="00:00:00.600">
    <property name="start">1</property>
    <property name="level">1</property>
    <property name="mlt_service">brightness</property>
    <property name="kdenlive_id">fade_from_black</property>
    <property name="alpha">0=0;-1=1</property>
    <property name="kdenlive:collapsed">0</property>
   </filter>
   <filter id="filter593" in="00:00:05.880" out="00:00:06.520">
    <property name="start">1</property>
    <property name="level">1</property>
    <property name="mlt_service">brightness</property>
    <property name="kdenlive_id">fade_to_black</property>
    <property name="alpha">00:00:00.000=1;00:00:00.640=0</property>
    <property name="kdenlive:collapsed">0</property>
   </filter>
  </entry>
  <blank length="00:00:15.360"/>
  <entry producer="producer404" in="00:00:00.000" out="00:00:12.080">
   <property name="kdenlive:id">587</property>
   <filter id="filter594" out="00:00:00.600">
    <property name="start">1</property>
    <property name="level">1</property>
    <property name="mlt_service">brightness</property>
    <property name="kdenlive_id">fade_from_black</property>
    <property name="alpha">00:00:00.000=0;00:00:00.600=1</property>
   </filter>
   <filter id="filter595" in="00:00:11.440" out="00:00:12.080">
    <property name="start">1</property>
    <property name="level">1</property>
    <property name="mlt_service">brightness</property>
    <property name="kdenlive_id">fade_to_black</property>
    <property name="alpha">00:00:00.000=1;00:00:00.640=0</property>
   </filter>
  </entry>
  <blank length="00:00:11.680"/>
  <entry producer="chain214" in="00:00:00.000" out="00:00:05.520">
   <property name="kdenlive:id">589</property>
  </entry>
  <entry producer="chain214" in="00:00:11.280" out="00:00:12.960">
   <property name="kdenlive:id">589</property>
  </entry>
  <entry producer="producer405" in="00:00:00.000" out="00:00:09.400">
   <property name="kdenlive:id">591</property>
   <property name="kdenlive:activeeffect">1</property>
   <filter id="filter596" out="00:00:00.600">
    <property name="start">1</property>
    <property name="level">1</property>
    <property name="mlt_service">brightness</property>
    <property name="kdenlive_id">fade_from_black</property>
    <property name="alpha">00:00:00.000=0;00:00:00.600=1</property>
    <property name="kdenlive:collapsed">0</property>
   </filter>
   <filter id="filter597" in="00:00:08.800" out="00:00:09.400">
    <property name="start">1</property>
    <property name="level">1</property>
    <property name="mlt_service">brightness</property>
    <property name="kdenlive_id">fade_to_black</property>
    <property name="alpha">00:00:00.000=1;00:00:00.600=0</property>
    <property name="kdenlive:collapsed">0</property>
   </filter>
  </entry>
  <entry producer="producer410" in="00:00:00.000" out="00:00:04.720">
   <property name="kdenlive:id">593</property>
   <property name="kdenlive:activeeffect">1</property>
   <filter id="filter598" out="00:00:00.600">
    <property name="start">1</property>
    <property name="level">1</property>
    <property name="mlt_service">brightness</property>
    <property name="kdenlive_id">fade_from_black</property>
    <property name="alpha">00:00:00.000=0;00:00:00.600=1</property>
    <property name="kdenlive:collapsed">0</property>
   </filter>
   <filter id="filter599" in="00:00:04.120" out="00:00:04.720">
    <property name="start">1</property>
    <property name="level">1</property>
    <property name="mlt_service">brightness</property>
    <property name="kdenlive_id">fade_to_black</property>
    <property name="alpha">00:00:00.000=1;00:00:00.600=0</property>
    <property name="kdenlive:collapsed">0</property>
   </filter>
  </entry>
  <entry producer="producer412" in="00:00:00.000" out="00:00:05.040">
   <property name="kdenlive:id">595</property>
   <property name="kdenlive:activeeffect">1</property>
   <filter id="filter600" out="00:00:00.600">
    <property name="start">1</property>
    <property name="level">1</property>
    <property name="mlt_service">brightness</property>
    <property name="kdenlive_id">fade_from_black</property>
    <property name="alpha">00:00:00.000=0;00:00:00.600=1</property>
    <property name="kdenlive:collapsed">0</property>
   </filter>
   <filter id="filter601" in="00:00:04.400" out="00:00:05.040">
    <property name="start">1</property>
    <property name="level">1</property>
    <property name="mlt_service">brightness</property>
    <property name="kdenlive_id">fade_to_black</property>
    <property name="alpha">00:00:00.000=1;00:00:00.640=0</property>
    <property name="kdenlive:collapsed">0</property>
   </filter>
  </entry>
  <entry producer="producer301" in="00:00:00.000" out="00:00:00.480">
   <property name="kdenlive:id">388</property>
   <filter id="filter602" in="00:00:00.360" out="00:00:00.480">
    <property name="start">1</property>
    <property name="level">1</property>
    <property name="mlt_service">brightness</property>
    <property name="kdenlive_id">fade_to_black</property>
    <property name="alpha">00:00:00.000=1;00:00:00.120=0</property>
    <property name="kdenlive:collapsed">0</property>
   </filter>
   <filter id="filter603" out="00:00:00.080">
    <property name="start">1</property>
    <property name="level">1</property>
    <property name="mlt_service">brightness</property>
    <property name="kdenlive_id">fade_from_black</property>
    <property name="alpha">00:00:00.000=0;00:00:00.080=1</property>
    <property name="kdenlive:collapsed">0</property>
   </filter>
  </entry>
  <entry producer="producer413" in="00:00:00.000" out="00:00:00.480">
   <property name="kdenlive:id">596</property>
   <property name="kdenlive:activeeffect">1</property>
   <filter id="filter604" in="00:00:00.360" out="00:00:00.480">
    <property name="start">1</property>
    <property name="level">1</property>
    <property name="mlt_service">brightness</property>
    <property name="kdenlive_id">fade_to_black</property>
    <property name="alpha">00:00:00.000=1;00:00:00.120=0</property>
    <property name="kdenlive:collapsed">0</property>
   </filter>
   <filter id="filter605" out="00:00:00.080">
    <property name="start">1</property>
    <property name="level">1</property>
    <property name="mlt_service">brightness</property>
    <property name="kdenlive_id">fade_from_black</property>
    <property name="alpha">00:00:00.000=0;00:00:00.080=1</property>
    <property name="kdenlive:collapsed">0</property>
   </filter>
  </entry>
  <entry producer="producer414" in="00:00:00.000" out="00:00:09.680">
   <property name="kdenlive:id">599</property>
   <filter id="filter606" out="00:00:00.080">
    <property name="start">1</property>
    <property name="level">1</property>
    <property name="mlt_service">brightness</property>
    <property name="kdenlive_id">fade_from_black</property>
    <property name="alpha">00:00:00.000=0;00:00:00.080=1</property>
   </filter>
   <filter id="filter607" in="00:00:09.040" out="00:00:09.680">
    <property name="start">1</property>
    <property name="level">1</property>
    <property name="mlt_service">brightness</property>
    <property name="kdenlive_id">fade_to_black</property>
    <property name="alpha">00:00:00.000=1;00:00:00.640=0</property>
   </filter>
  </entry>
  <entry producer="chain215" in="00:00:00.000" out="00:00:09.280">
   <property name="kdenlive:id">600</property>
  </entry>
  <entry producer="chain215" in="00:00:09.800" out="00:00:16.520">
   <property name="kdenlive:id">600</property>
  </entry>
  <entry producer="chain215" in="00:00:18.680" out="00:00:26.080">
   <property name="kdenlive:id">600</property>
  </entry>
  <entry producer="producer415" in="00:00:00.000" out="00:00:05.240">
   <property name="kdenlive:id">603</property>
   <filter id="filter608" out="00:00:00.600">
    <property name="start">1</property>
    <property name="level">1</property>
    <property name="mlt_service">brightness</property>
    <property name="kdenlive_id">fade_from_black</property>
    <property name="alpha">00:00:00.000=0;00:00:00.600=1</property>
    <property name="kdenlive:collapsed">0</property>
   </filter>
   <filter id="filter609" in="00:00:04.640" out="00:00:05.240">
    <property name="start">1</property>
    <property name="level">1</property>
    <property name="mlt_service">brightness</property>
    <property name="kdenlive_id">fade_to_black</property>
    <property name="alpha">00:00:00.000=1;00:00:00.600=0</property>
    <property name="kdenlive:collapsed">0</property>
   </filter>
  </entry>
  <entry producer="chain216" in="00:00:11.400" out="00:00:16.480">
   <property name="kdenlive:id">240</property>
   <filter id="filter610" in="00:00:11.400" out="00:00:11.840">
    <property name="start">1</property>
    <property name="level">1</property>
    <property name="mlt_service">brightness</property>
    <property name="kdenlive_id">fade_from_black</property>
    <property name="alpha">00:00:00.000=0;00:00:00.440=1</property>
    <property name="kdenlive:collapsed">0</property>
   </filter>
  </entry>
  <blank length="00:00:02.920"/>
  <entry producer="chain215" in="00:00:20.080" out="00:00:24.600">
   <property name="kdenlive:id">600</property>
   <filter id="filter611">
    <property name="rotate_center">1</property>
    <property name="mlt_service">qtblend</property>
    <property name="kdenlive_id">qtblend</property>
    <property name="rect">00:00:20.080=0 1080 1920 1080 1.000000;00:00:20.320=0 -53 1920 1080 1.000000;00:00:20.440=0 0 1920 1080 1.000000</property>
    <property name="rotation">00:00:20.080=0;00:00:20.320=0;00:00:20.440=0</property>
    <property name="compositing">0</property>
    <property name="distort">0</property>
    <property name="kdenlive:collapsed">0</property>
   </filter>
  </entry>
  <entry producer="chain215" in="00:00:25.040" out="00:00:26.080">
   <property name="kdenlive:id">600</property>
   <filter id="filter612">
    <property name="rotate_center">1</property>
    <property name="mlt_service">qtblend</property>
    <property name="kdenlive_id">qtblend</property>
    <property name="rect">00:00:25.040=0 0 1920 1080 1.000000</property>
    <property name="rotation">00:00:25.040=0</property>
    <property name="compositing">0</property>
    <property name="distort">0</property>
    <property name="kdenlive:collapsed">0</property>
   </filter>
  </entry>
  <entry producer="producer416" in="00:00:00.000" out="00:00:19.920">
   <property name="kdenlive:id">605</property>
   <filter id="filter613" out="00:00:00.600">
    <property name="start">1</property>
    <property name="level">1</property>
    <property name="mlt_service">brightness</property>
    <property name="kdenlive_id">fade_from_black</property>
    <property name="alpha">00:00:00.000=0;00:00:00.600=1</property>
    <property name="kdenlive:collapsed">0</property>
   </filter>
   <filter id="filter614" in="00:00:19.320" out="00:00:19.920">
    <property name="start">1</property>
    <property name="level">1</property>
    <property name="mlt_service">brightness</property>
    <property name="kdenlive_id">fade_to_black</property>
    <property name="alpha">00:00:00.000=1;00:00:00.600=0</property>
    <property name="kdenlive:collapsed">0</property>
   </filter>
  </entry>
  <entry producer="producer420" in="00:00:00.000" out="00:00:04.000">
   <property name="kdenlive:id">606</property>
   <filter id="filter615">
    <property name="rotate_center">1</property>
    <property name="mlt_service">qtblend</property>
    <property name="kdenlive_id">qtblend</property>
    <property name="rect">00:00:00.000=950 535 19 10 1.000000;00:00:00.240=-96 -54 2112 1188 1.000000;00:00:00.360=0 0 1920 1080 1.000000;00:00:03.640=0 0 1920 1080 1.000000;00:00:03.760=0 69 1920 1080 1.000000;00:00:04.000=0 -1080 1920 1080 1.000000</property>
    <property name="rotation">00:00:00.000=0;00:00:00.240=0;00:00:00.360=0;00:00:03.640=0;00:00:03.760=0;00:00:04.000=0</property>
    <property name="compositing">0</property>
    <property name="distort">0</property>
    <property name="kdenlive:collapsed">0</property>
   </filter>
  </entry>
  <blank length="00:00:08.400"/>
  <entry producer="chain217" in="00:02:35.000" out="00:02:43.720">
   <property name="kdenlive:id">421</property>
   <filter id="filter616">
    <property name="rotate_center">1</property>
    <property name="mlt_service">qtblend</property>
    <property name="kdenlive_id">qtblend</property>
    <property name="rect">00:02:35.000=0 1080 1920 1080 1.000000;00:02:35.240=0 -55 1920 1080 1.000000;00:02:35.360=0 0 1920 1080 1.000000;00:02:43.360=0 0 1920 1080 1.000000;00:02:43.480=0 73 1920 1080 1.000000;00:02:43.720=0 -1080 1920 1080 1.000000</property>
    <property name="rotation">00:02:35.000=0;00:02:35.240=0;00:02:35.360=0;00:02:43.360=0;00:02:43.480=0;00:02:43.720=0</property>
    <property name="compositing">0</property>
    <property name="distort">0</property>
    <property name="kdenlive:collapsed">0</property>
   </filter>
  </entry>
  <blank length="00:00:01.040"/>
  <entry producer="chain215" in="00:00:27.880" out="00:00:32.680">
   <property name="kdenlive:id">600</property>
  </entry>
  <entry producer="chain215" in="00:00:34.040" out="00:00:35.840">
   <property name="kdenlive:id">600</property>
  </entry>
  <entry producer="producer421" in="00:00:00.000" out="00:00:09.720">
   <property name="kdenlive:id">609</property>
   <property name="kdenlive:activeeffect">1</property>
   <filter id="filter617" out="00:00:00.600">
    <property name="start">1</property>
    <property name="level">1</property>
    <property name="mlt_service">brightness</property>
    <property name="kdenlive_id">fade_from_black</property>
    <property name="alpha">00:00:00.000=0;00:00:00.600=1</property>
    <property name="kdenlive:collapsed">0</property>
   </filter>
   <filter id="filter618" in="00:00:09.120" out="00:00:09.720">
    <property name="start">1</property>
    <property name="level">1</property>
    <property name="mlt_service">brightness</property>
    <property name="kdenlive_id">fade_to_black</property>
    <property name="alpha">00:00:00.000=1;00:00:00.600=0</property>
    <property name="kdenlive:collapsed">0</property>
   </filter>
  </entry>
  <entry producer="chain218" in="00:00:00.000" out="00:00:45.840">
   <property name="kdenlive:id">611</property>
   <property name="kdenlive:activeeffect">2</property>
   <filter id="filter619" out="00:00:04.400">
    <property name="start">1</property>
    <property name="level">1</property>
    <property name="mlt_service">brightness</property>
    <property name="kdenlive_id">fade_from_black</property>
    <property name="alpha">00:00:00.000=0;00:00:04.400=1</property>
    <property name="kdenlive:collapsed">0</property>
   </filter>
   <filter id="filter620">
    <property name="hradius">00:00:00.000=0;00:00:05.320=0;00:00:05.800=30</property>
    <property name="vradius">00:00:00.000=0;00:00:05.320=0;00:00:05.800=30</property>
    <property name="mlt_service">box_blur</property>
    <property name="kdenlive_id">box_blur</property>
    <property name="kdenlive:collapsed">0</property>
   </filter>
   <filter id="filter621">
    <property name="start">1</property>
    <property name="level">00:00:00.000=1;00:00:05.320=1;00:00:05.800=0.28</property>
    <property name="mlt_service">brightness</property>
    <property name="kdenlive_id">brightness</property>
    <property name="kdenlive:collapsed">0</property>
   </filter>
  </entry>
  <blank length="00:00:13.560"/>
  <entry producer="producer428" in="00:00:00.000" out="00:00:11.840">
   <property name="kdenlive:id">622</property>
   <filter id="filter622" out="00:00:00.600">
    <property name="start">1</property>
    <property name="level">1</property>
    <property name="mlt_service">brightness</property>
    <property name="kdenlive_id">fade_from_black</property>
    <property name="alpha">00:00:00.000=0;00:00:00.600=1</property>
    <property name="kdenlive:collapsed">0</property>
   </filter>
  </entry>
  <blank length="00:00:07.520"/>
  <entry producer="producer556" in="00:00:00.000" out="00:00:04.320">
   <property name="kdenlive:id">342</property>
  </entry>
  <entry producer="producer561" in="00:00:06.600" out="00:00:08.480">
   <property name="kdenlive:id">342</property>
  </entry>
  <blank length="00:00:01.880"/>
  <entry producer="producer457" in="00:00:00.000" out="00:00:04.120">
   <property name="kdenlive:id">623</property>
   <filter id="filter623">
    <property name="rotate_center">1</property>
    <property name="mlt_service">qtblend</property>
    <property name="kdenlive_id">qtblend</property>
    <property name="rect">00:00:00.000=950 535 19 10 1.000000;00:00:00.240=192 108 1536 864 1.000000;00:00:00.360=240 135 1440 810 1.000000;00:00:01.720=240 135 1440 810 1.000000;00:00:01.840=283 135 1440 810 1.000000;00:00:02.080=-80 135 1440 810 1.000000;00:00:03.760=-80 135 1440 810 1.000000;00:00:03.880=-128 108 1536 864 1.000000;00:00:04.120=630 535 19 10 1.000000</property>
    <property name="rotation">00:00:00.000=0;00:00:00.240=0;00:00:00.360=0;00:00:01.720=0;00:00:01.840=0;00:00:02.080=0;00:00:03.760=0;00:00:03.880=0;00:00:04.120=0</property>
    <property name="compositing">0</property>
    <property name="distort">0</property>
    <property name="kdenlive:collapsed">0</property>
   </filter>
  </entry>
  <blank length="00:00:02.080"/>
  <entry producer="producer123" in="00:00:00.000" out="00:00:11.280">
   <property name="kdenlive:id">139</property>
   <filter id="filter624">
    <property name="rotate_center">1</property>
    <property name="mlt_service">qtblend</property>
    <property name="kdenlive_id">qtblend</property>
    <property name="rect">00:00:00.000=950 535 19 10 1.000000;00:00:00.240=-48 -27 2016 1134 1.000000;00:00:00.360=0 0 1920 1080 1.000000;00:00:10.920=0 0 1920 1080 1.000000;00:00:11.040=-143 -79 2206 1240 1.000000;00:00:11.280=950 535 19 10 1.000000</property>
    <property name="rotation">00:00:00.000=0;00:00:00.240=0;00:00:00.360=0;00:00:10.920=0;00:00:11.040=0;00:00:11.280=0</property>
    <property name="compositing">0</property>
    <property name="distort">0</property>
    <property name="kdenlive:collapsed">0</property>
   </filter>
  </entry>
  <entry producer="chain218" in="00:00:00.000" out="00:00:08.440">
   <property name="kdenlive:id">611</property>
   <filter id="filter625" out="00:00:02.920">
    <property name="start">1</property>
    <property name="level">1</property>
    <property name="mlt_service">brightness</property>
    <property name="kdenlive_id">fade_from_black</property>
    <property name="alpha">00:00:00.000=0;00:00:02.920=1</property>
   </filter>
   <filter id="filter626" in="00:00:06.920" out="00:00:08.440">
    <property name="start">1</property>
    <property name="level">1</property>
    <property name="mlt_service">brightness</property>
    <property name="kdenlive_id">fade_to_black</property>
    <property name="alpha">00:00:00.000=1;00:00:01.520=0</property>
   </filter>
  </entry>
  <entry producer="chain215" in="00:00:36.880" out="00:00:40.040">
   <property name="kdenlive:id">600</property>
  </entry>
  <entry producer="chain215" in="00:00:40.080" out="00:00:42.960">
   <property name="kdenlive:id">600</property>
  </entry>
  <entry producer="chain215" in="00:00:40.080" out="00:00:41.360">
   <property name="kdenlive:id">600</property>
  </entry>
  <entry producer="chain215" in="00:00:43.000" out="00:00:44.840">
   <property name="kdenlive:id">600</property>
  </entry>
  <entry producer="producer204" in="00:00:00.000" out="00:00:16.920">
   <property name="kdenlive:id">258</property>
   <filter id="filter627">
    <property name="rotate_center">1</property>
    <property name="mlt_service">qtblend</property>
    <property name="kdenlive_id">qtblend</property>
    <property name="rect">00:00:00.000=336 189 1248 702 1.000000;00:00:16.920=240 135 1440 810 1.000000</property>
    <property name="rotation">00:00:00.000=0;00:00:16.920=0</property>
    <property name="compositing">0</property>
    <property name="distort">0</property>
    <property name="kdenlive:collapsed">0</property>
   </filter>
   <filter id="filter628">
    <property name="rotate_center">1</property>
    <property name="mlt_service">qtblend</property>
    <property name="kdenlive_id">qtblend</property>
    <property name="rect">00:00:00.000=950 535 19 10 1.000000;00:00:00.240=-48 -27 2016 1134 1.000000;00:00:00.360=0 0 1920 1080 1.000000;00:00:16.560=0 0 1920 1080 1.000000;00:00:16.680=0 78 1920 1080 1.000000;00:00:16.920=0 -1077 1920 1080 1.000000</property>
    <property name="rotation">00:00:00.000=0;00:00:00.240=0;00:00:00.360=0;00:00:16.560=0;00:00:16.680=0;00:00:16.920=0</property>
    <property name="compositing">0</property>
    <property name="distort">0</property>
    <property name="kdenlive:collapsed">0</property>
   </filter>
  </entry>
  <entry producer="producer405" in="00:00:00.000" out="00:00:01.640">
   <property name="kdenlive:id">591</property>
   <filter id="filter629" out="00:00:00.600">
    <property name="start">1</property>
    <property name="level">1</property>
    <property name="mlt_service">brightness</property>
    <property name="kdenlive_id">fade_from_black</property>
    <property name="alpha">00:00:00.000=0;00:00:00.600=1</property>
    <property name="kdenlive:collapsed">0</property>
   </filter>
   <filter id="filter630" in="00:00:01.040" out="00:00:01.640">
    <property name="start">1</property>
    <property name="level">1</property>
    <property name="mlt_service">brightness</property>
    <property name="kdenlive_id">fade_to_black</property>
    <property name="alpha">00:00:00.000=1;00:00:00.600=0</property>
    <property name="kdenlive:collapsed">0</property>
   </filter>
  </entry>
  <blank length="00:00:01.640"/>
  <entry producer="producer458" in="00:00:00.000" out="00:00:07.440">
   <property name="kdenlive:id">628</property>
   <filter id="filter631" out="00:00:00.600">
    <property name="start">1</property>
    <property name="level">1</property>
    <property name="mlt_service">brightness</property>
    <property name="kdenlive_id">fade_from_black</property>
    <property name="alpha">00:00:00.000=0;00:00:00.600=1</property>
   </filter>
   <filter id="filter632" in="00:00:06.840" out="00:00:07.440">
    <property name="start">1</property>
    <property name="level">1</property>
    <property name="mlt_service">brightness</property>
    <property name="kdenlive_id">fade_to_black</property>
    <property name="alpha">00:00:00.000=1;00:00:00.600=0</property>
   </filter>
  </entry>
  <entry producer="producer338" in="00:00:00.000" out="00:00:05.320">
   <property name="kdenlive:id">475</property>
   <filter id="filter633" out="00:00:00.600">
    <property name="start">1</property>
    <property name="level">1</property>
    <property name="mlt_service">brightness</property>
    <property name="kdenlive_id">fade_from_black</property>
    <property name="alpha">00:00:00.000=0;00:00:00.600=1</property>
    <property name="kdenlive:collapsed">0</property>
   </filter>
   <filter id="filter634" in="00:00:04.720" out="00:00:05.320">
    <property name="start">1</property>
    <property name="level">1</property>
    <property name="mlt_service">brightness</property>
    <property name="kdenlive_id">fade_to_black</property>
    <property name="alpha">00:00:00.000=1;00:00:00.600=0</property>
    <property name="kdenlive:collapsed">0</property>
   </filter>
  </entry>
  <entry producer="chain219" in="00:00:00.000" out="00:00:01.880">
   <property name="kdenlive:id">629</property>
  </entry>
  <entry producer="chain219" in="00:00:01.920" out="00:00:06.400">
   <property name="kdenlive:id">629</property>
  </entry>
  <entry producer="chain219" in="00:00:01.920" out="00:00:06.400">
   <property name="kdenlive:id">629</property>
  </entry>
  <entry producer="chain219" in="00:00:01.920" out="00:00:06.400">
   <property name="kdenlive:id">629</property>
  </entry>
  <entry producer="chain219" in="00:00:01.920" out="00:00:06.400">
   <property name="kdenlive:id">629</property>
  </entry>
  <entry producer="chain219" in="00:00:01.920" out="00:00:05.600">
   <property name="kdenlive:id">629</property>
  </entry>
  <entry producer="chain219" in="00:00:01.920" out="00:00:04.320">
   <property name="kdenlive:id">629</property>
  </entry>
  <entry producer="chain219" in="00:00:01.920" out="00:00:03.920">
   <property name="kdenlive:id">629</property>
  </entry>
  <entry producer="chain219" in="00:00:06.440" out="00:00:10.840">
   <property name="kdenlive:id">629</property>
  </entry>
  <entry producer="chain219" in="00:00:10.880" out="00:00:16.040">
   <property name="kdenlive:id">629</property>
  </entry>
  <entry producer="chain219" in="00:00:10.880" out="00:00:16.040">
   <property name="kdenlive:id">629</property>
  </entry>
  <entry producer="chain219" in="00:00:10.880" out="00:00:16.040">
   <property name="kdenlive:id">629</property>
  </entry>
  <entry producer="chain219" in="00:00:10.880" out="00:00:15.920">
   <property name="kdenlive:id">629</property>
  </entry>
  <entry producer="chain219" in="00:00:16.120" out="00:00:17.560">
   <property name="kdenlive:id">629</property>
  </entry>
  <entry producer="chain219" in="00:00:17.600" out="00:00:20.720">
   <property name="kdenlive:id">629</property>
  </entry>
  <entry producer="chain219" in="00:00:17.600" out="00:00:20.480">
   <property name="kdenlive:id">629</property>
  </entry>
  <entry producer="chain219" in="00:00:20.600" out="00:00:21.920">
   <property name="kdenlive:id">629</property>
  </entry>
  <entry producer="chain219" in="00:00:21.960" out="00:00:25.200">
   <property name="kdenlive:id">629</property>
  </entry>
  <entry producer="chain219" in="00:00:27.320" out="00:00:28.720">
   <property name="kdenlive:id">629</property>
  </entry>
  <entry producer="chain219" in="00:00:29.200" out="00:00:31.640">
   <property name="kdenlive:id">629</property>
  </entry>
  <entry producer="chain219" in="00:00:31.680" out="00:00:32.760">
   <property name="kdenlive:id">629</property>
  </entry>
  <entry producer="chain219" in="00:00:31.680" out="00:00:32.760">
   <property name="kdenlive:id">629</property>
  </entry>
  <entry producer="chain219" in="00:00:31.680" out="00:00:31.800">
   <property name="kdenlive:id">629</property>
  </entry>
  <entry producer="chain219" in="00:00:32.800" out="00:00:34.560">
   <property name="kdenlive:id">629</property>
  </entry>
  <entry producer="chain219" in="00:00:34.600" out="00:00:38.040">
   <property name="kdenlive:id">629</property>
  </entry>
  <entry producer="chain219" in="00:00:34.600" out="00:00:34.640">
   <property name="kdenlive:id">629</property>
  </entry>
  <entry producer="chain219" in="00:00:38.080" out="00:00:43.400">
   <property name="kdenlive:id">629</property>
  </entry>
  <entry producer="chain219" in="00:00:47.440" out="00:00:48.720">
   <property name="kdenlive:id">629</property>
  </entry>
  <blank length="00:00:02.080"/>
  <entry producer="producer338" in="00:00:00.000" out="00:00:08.200">
   <property name="kdenlive:id">475</property>
   <filter id="filter635" out="00:00:00.600">
    <property name="start">1</property>
    <property name="level">1</property>
    <property name="mlt_service">brightness</property>
    <property name="kdenlive_id">fade_from_black</property>
    <property name="alpha">00:00:00.000=0;00:00:00.600=1</property>
    <property name="kdenlive:collapsed">0</property>
   </filter>
   <filter id="filter636" in="00:00:07.600" out="00:00:08.200">
    <property name="start">1</property>
    <property name="level">1</property>
    <property name="mlt_service">brightness</property>
    <property name="kdenlive_id">fade_to_black</property>
    <property name="alpha">00:00:00.000=1;00:00:00.600=0</property>
    <property name="kdenlive:collapsed">0</property>
   </filter>
  </entry>
  <entry producer="chain159" in="00:00:13.520" out="00:00:14.520">
   <property name="kdenlive:id">230</property>
   <filter id="filter637">
    <property name="rotate_center">1</property>
    <property name="mlt_service">qtblend</property>
    <property name="kdenlive_id">qtblend</property>
    <property name="rect">00:00:13.520=0 1080 1920 1080 1.000000;00:00:13.760=0 -53 1920 1080 1.000000;00:00:13.880=0 0 1920 1080 1.000000</property>
    <property name="rotation">00:00:13.520=0;00:00:13.760=0;00:00:13.880=0</property>
    <property name="compositing">0</property>
    <property name="distort">0</property>
    <property name="kdenlive:collapsed">0</property>
   </filter>
  </entry>
  <entry producer="chain159" in="00:00:14.560" out="00:00:16.360">
   <property name="kdenlive:id">230</property>
   <filter id="filter638">
    <property name="rotate_center">1</property>
    <property name="mlt_service">qtblend</property>
    <property name="kdenlive_id">qtblend</property>
    <property name="rect">00:00:14.560=0 0 1920 1080 1.000000</property>
    <property name="rotation">00:00:14.560=0</property>
    <property name="compositing">0</property>
    <property name="distort">0</property>
    <property name="kdenlive:collapsed">0</property>
   </filter>
  </entry>
  <entry producer="chain159" in="00:00:14.560" out="00:00:16.360">
   <property name="kdenlive:id">230</property>
   <filter id="filter639">
    <property name="rotate_center">1</property>
    <property name="mlt_service">qtblend</property>
    <property name="kdenlive_id">qtblend</property>
    <property name="rect">00:00:14.560=0 0 1920 1080 1.000000</property>
    <property name="rotation">00:00:14.560=0</property>
    <property name="compositing">0</property>
    <property name="distort">0</property>
    <property name="kdenlive:collapsed">0</property>
   </filter>
  </entry>
  <entry producer="chain159" in="00:00:14.560" out="00:00:15.520">
   <property name="kdenlive:id">230</property>
   <filter id="filter640">
    <property name="rotate_center">1</property>
    <property name="mlt_service">qtblend</property>
    <property name="kdenlive_id">qtblend</property>
    <property name="rect">00:00:14.560=0 0 1920 1080 1.000000;00:00:15.160=0 0 1920 1080 1.000000;00:00:15.280=0 67 1920 1080 1.000000;00:00:15.520=0 -1080 1920 1080 1.000000</property>
    <property name="rotation">00:00:14.560=0;00:00:15.160=0;00:00:15.280=0;00:00:15.520=0</property>
    <property name="compositing">0</property>
    <property name="distort">0</property>
    <property name="kdenlive:collapsed">0</property>
   </filter>
  </entry>
  <entry producer="producer182" in="00:00:00.000" out="00:00:03.120">
   <property name="kdenlive:id">372</property>
   <filter id="filter641" out="00:00:00.600">
    <property name="start">1</property>
    <property name="level">1</property>
    <property name="mlt_service">brightness</property>
    <property name="kdenlive_id">fade_from_black</property>
    <property name="alpha">00:00:00.000=0;00:00:00.600=1</property>
   </filter>
  </entry>
  <entry producer="chain220" in="00:47:01.480" out="00:47:37.800">
   <property name="kdenlive:id">6</property>
   <property name="kdenlive:activeeffect">2</property>
   <filter id="filter642">
    <property name="rotate_center">1</property>
    <property name="mlt_service">qtblend</property>
    <property name="kdenlive_id">qtblend</property>
    <property name="rect">00:47:01.480=-96 -54 2112 1188 1.000000</property>
    <property name="rotation">00:47:01.480=0</property>
    <property name="compositing">0</property>
    <property name="distort">0</property>
    <property name="kdenlive:collapsed">1</property>
   </filter>
   <filter id="filter643">
    <property name="hradius">00:47:01.480=60</property>
    <property name="vradius">00:47:01.480=60</property>
    <property name="mlt_service">box_blur</property>
    <property name="kdenlive_id">box_blur</property>
    <property name="kdenlive:collapsed">1</property>
   </filter>
   <filter id="filter644">
    <property name="start">1</property>
    <property name="level">00:47:01.480=0.6</property>
    <property name="mlt_service">brightness</property>
    <property name="kdenlive_id">brightness</property>
    <property name="kdenlive:collapsed">1</property>
   </filter>
  </entry>
  <entry producer="chain221" in="00:00:01.600" out="00:00:41.400">
   <property name="kdenlive:id">638</property>
   <property name="kdenlive:activeeffect">2</property>
   <filter id="filter645">
    <property name="rotate_center">1</property>
    <property name="mlt_service">qtblend</property>
    <property name="kdenlive_id">qtblend</property>
    <property name="rect">00:00:01.600=-96 -54 2112 1188 1.000000</property>
    <property name="rotation">00:00:01.600=0</property>
    <property name="compositing">0</property>
    <property name="distort">0</property>
    <property name="kdenlive:collapsed">1</property>
   </filter>
   <filter id="filter646">
    <property name="hradius">00:00:01.600=60</property>
    <property name="vradius">00:00:01.600=60</property>
    <property name="mlt_service">box_blur</property>
    <property name="kdenlive_id">box_blur</property>
    <property name="kdenlive:collapsed">1</property>
   </filter>
   <filter id="filter647">
    <property name="start">1</property>
    <property name="level">00:00:01.600=0.6</property>
    <property name="mlt_service">brightness</property>
    <property name="kdenlive_id">brightness</property>
    <property name="kdenlive:collapsed">1</property>
   </filter>
  </entry>
  <entry producer="chain156" in="00:00:08.840" out="00:00:59.760">
   <property name="kdenlive:id">550</property>
   <filter id="filter648">
    <property name="rotate_center">1</property>
    <property name="mlt_service">qtblend</property>
    <property name="kdenlive_id">qtblend</property>
    <property name="rect">00:00:08.840=-663 -372 3253 1830 1.000000</property>
    <property name="rotation">00:00:08.840=0</property>
    <property name="compositing">0</property>
    <property name="distort">0</property>
    <property name="kdenlive:collapsed">0</property>
   </filter>
   <filter id="filter649">
    <property name="hradius">00:00:08.840=60</property>
    <property name="vradius">00:00:08.840=60</property>
    <property name="mlt_service">box_blur</property>
    <property name="kdenlive_id">box_blur</property>
    <property name="kdenlive:collapsed">1</property>
   </filter>
   <filter id="filter650">
    <property name="start">1</property>
    <property name="level">00:00:08.840=0.6</property>
    <property name="mlt_service">brightness</property>
    <property name="kdenlive_id">brightness</property>
    <property name="kdenlive:collapsed">1</property>
   </filter>
  </entry>
  <blank length="00:00:11.320"/>
  <entry producer="producer448" in="00:00:00.000" out="00:00:01.960">
   <property name="kdenlive:id">657</property>
   <property name="kdenlive:activeeffect">1</property>
   <filter id="filter651">
    <property name="rotate_center">1</property>
    <property name="mlt_service">qtblend</property>
    <property name="kdenlive_id">qtblend</property>
    <property name="rect">00:00:00.000=0 65 1920 1080 1.000000;00:00:00.240=0 0 1920 1080 1.000000</property>
    <property name="rotation">00:00:00.000=0;00:00:00.240=0</property>
    <property name="compositing">0</property>
    <property name="distort">0</property>
    <property name="kdenlive:collapsed">0</property>
   </filter>
   <filter id="filter652" out="00:00:00.240">
    <property name="start">1</property>
    <property name="level">1</property>
    <property name="mlt_service">brightness</property>
    <property name="kdenlive_id">fade_from_black</property>
    <property name="alpha">00:00:00.000=0;00:00:00.240=1</property>
    <property name="kdenlive:collapsed">0</property>
   </filter>
  </entry>
  <blank length="00:00:07.040"/>
  <entry producer="chain159" in="00:00:13.520" out="00:00:14.520">
   <property name="kdenlive:id">230</property>
   <filter id="filter653">
    <property name="rotate_center">1</property>
    <property name="mlt_service">qtblend</property>
    <property name="kdenlive_id">qtblend</property>
    <property name="rect">00:00:13.520=0 1080 1920 1080 1.000000;00:00:13.760=0 -53 1920 1080 1.000000;00:00:13.880=0 0 1920 1080 1.000000</property>
    <property name="rotation">00:00:13.520=0;00:00:13.760=0;00:00:13.880=0</property>
    <property name="compositing">0</property>
    <property name="distort">0</property>
   </filter>
  </entry>
  <entry producer="chain159" in="00:00:14.560" out="00:00:16.360">
   <property name="kdenlive:id">230</property>
   <filter id="filter654">
    <property name="rotate_center">1</property>
    <property name="mlt_service">qtblend</property>
    <property name="kdenlive_id">qtblend</property>
    <property name="rect">00:00:14.560=0 0 1920 1080 1.000000</property>
    <property name="rotation">00:00:14.560=0</property>
    <property name="compositing">0</property>
    <property name="distort">0</property>
   </filter>
  </entry>
  <entry producer="chain159" in="00:00:14.560" out="00:00:16.360">
   <property name="kdenlive:id">230</property>
   <filter id="filter655">
    <property name="rotate_center">1</property>
    <property name="mlt_service">qtblend</property>
    <property name="kdenlive_id">qtblend</property>
    <property name="rect">00:00:14.560=0 0 1920 1080 1.000000</property>
    <property name="rotation">00:00:14.560=0</property>
    <property name="compositing">0</property>
    <property name="distort">0</property>
    <property name="kdenlive:collapsed">0</property>
   </filter>
  </entry>
  <entry producer="chain159" in="00:00:14.560" out="00:00:16.360">
   <property name="kdenlive:id">230</property>
   <filter id="filter656">
    <property name="rotate_center">1</property>
    <property name="mlt_service">qtblend</property>
    <property name="kdenlive_id">qtblend</property>
    <property name="rect">00:00:14.560=0 0 1920 1080 1.000000</property>
    <property name="rotation">00:00:14.560=0</property>
    <property name="compositing">0</property>
    <property name="distort">0</property>
   </filter>
  </entry>
  <entry producer="chain159" in="00:00:14.560" out="00:00:15.800">
   <property name="kdenlive:id">230</property>
   <filter id="filter657">
    <property name="rotate_center">1</property>
    <property name="mlt_service">qtblend</property>
    <property name="kdenlive_id">qtblend</property>
    <property name="rect">00:00:14.560=0 0 1920 1080 1.000000;00:00:15.440=0 0 1920 1080 1.000000;00:00:15.560=-48 -27 2016 1134 1.000000;00:00:15.800=950 535 19 10 1.000000</property>
    <property name="rotation">00:00:14.560=0;00:00:15.440=0;00:00:15.560=0;00:00:15.800=0</property>
    <property name="compositing">0</property>
    <property name="distort">0</property>
    <property name="kdenlive:collapsed">0</property>
   </filter>
  </entry>
  <blank length="00:00:00.520"/>
  <entry producer="producer280" in="00:00:00.000" out="00:00:00.320">
   <property name="kdenlive:id">379</property>
  </entry>
  <entry producer="producer460" in="00:00:00.000" out="00:00:00.240">
   <property name="kdenlive:id">663</property>
  </entry>
  <entry producer="producer462" in="00:00:00.000" out="00:00:00.360">
   <property name="kdenlive:id">664</property>
  </entry>
  <entry producer="producer463" in="00:00:00.000" out="00:00:00.280">
   <property name="kdenlive:id">665</property>
  </entry>
  <entry producer="producer464" in="00:00:00.000" out="00:00:00.240">
   <property name="kdenlive:id">666</property>
  </entry>
  <entry producer="producer257" in="00:00:00.000" out="00:00:00.040">
   <property name="kdenlive:id">305</property>
  </entry>
  <entry producer="producer465" in="00:00:00.000" out="00:00:00.240">
   <property name="kdenlive:id">667</property>
  </entry>
  <entry producer="producer467" in="00:00:00.000" out="00:00:00.200">
   <property name="kdenlive:id">668</property>
  </entry>
  <entry producer="producer468" in="00:00:00.000" out="00:00:00.040">
   <property name="kdenlive:id">669</property>
  </entry>
  <entry producer="producer469" in="00:00:00.000" out="00:00:00.680">
   <property name="kdenlive:id">670</property>
   <filter id="filter658" in="00:00:00.160" out="00:00:00.680">
    <property name="start">1</property>
    <property name="level">1</property>
    <property name="mlt_service">brightness</property>
    <property name="kdenlive_id">fade_to_black</property>
    <property name="alpha">00:00:00.000=1;00:00:00.520=0</property>
   </filter>
  </entry>
  <entry producer="producer470" in="00:00:00.000" out="00:00:08.320">
   <property name="kdenlive:id">671</property>
   <property name="kdenlive:activeeffect">1</property>
   <filter id="filter659" out="00:00:00.600">
    <property name="start">1</property>
    <property name="level">1</property>
    <property name="mlt_service">brightness</property>
    <property name="kdenlive_id">fade_from_black</property>
    <property name="alpha">00:00:00.000=0;00:00:00.600=1</property>
    <property name="kdenlive:collapsed">0</property>
   </filter>
   <filter id="filter660" in="00:00:07.680" out="00:00:08.320">
    <property name="start">1</property>
    <property name="level">1</property>
    <property name="mlt_service">brightness</property>
    <property name="kdenlive_id">fade_to_black</property>
    <property name="alpha">0=1;-1=0</property>
    <property name="kdenlive:collapsed">0</property>
   </filter>
  </entry>
  <blank length="00:00:04.560"/>
  <entry producer="producer471" in="00:00:00.000" out="00:00:10.520">
   <property name="kdenlive:id">675</property>
   <filter id="filter661" out="00:00:00.600">
    <property name="start">1</property>
    <property name="level">1</property>
    <property name="mlt_service">brightness</property>
    <property name="kdenlive_id">fade_from_black</property>
    <property name="alpha">00:00:00.000=0;00:00:00.600=1</property>
   </filter>
   <filter id="filter662" in="00:00:09.880" out="00:00:10.520">
    <property name="start">1</property>
    <property name="level">1</property>
    <property name="mlt_service">brightness</property>
    <property name="kdenlive_id">fade_to_black</property>
    <property name="alpha">00:00:00.000=1;00:00:00.640=0</property>
   </filter>
  </entry>
  <blank length="00:00:09.880"/>
  <entry producer="producer472" in="00:00:00.000" out="00:00:05.960">
   <property name="kdenlive:id">677</property>
   <property name="kdenlive:activeeffect">1</property>
   <filter id="filter663">
    <property name="rotate_center">1</property>
    <property name="mlt_service">qtblend</property>
    <property name="kdenlive_id">qtblend</property>
    <property name="rect">00:00:00.000=192 108 1536 864 1.000000</property>
    <property name="rotation">00:00:00.000=0</property>
    <property name="compositing">0</property>
    <property name="distort">0</property>
    <property name="kdenlive:collapsed">1</property>
   </filter>
   <filter id="filter664">
    <property name="rotate_center">1</property>
    <property name="mlt_service">qtblend</property>
    <property name="kdenlive_id">qtblend</property>
    <property name="rect">00:00:00.000=950 534 19 10 1.000000;00:00:00.240=-48 -27 2016 1134 1.000000;00:00:00.360=0 0 1920 1080 1.000000;00:00:05.600=0 0 1920 1080 1.000000;00:00:05.720=0 61 1920 1080 1.000000;00:00:05.960=0 -1080 1920 1080 1.000000</property>
    <property name="rotation">00:00:00.000=0;00:00:00.240=0;00:00:00.360=0;00:00:05.600=0;00:00:05.720=0;00:00:05.960=0</property>
    <property name="compositing">0</property>
    <property name="distort">0</property>
    <property name="kdenlive:collapsed">0</property>
   </filter>
  </entry>
  <entry producer="producer479" in="00:00:00.000" out="00:00:06.320">
   <property name="kdenlive:id">679</property>
   <filter id="filter665" out="00:00:00.600">
    <property name="start">1</property>
    <property name="level">1</property>
    <property name="mlt_service">brightness</property>
    <property name="kdenlive_id">fade_from_black</property>
    <property name="alpha">00:00:00.000=0;00:00:00.600=1</property>
    <property name="kdenlive:collapsed">0</property>
   </filter>
   <filter id="filter666" in="00:00:05.720" out="00:00:06.320">
    <property name="start">1</property>
    <property name="level">1</property>
    <property name="mlt_service">brightness</property>
    <property name="kdenlive_id">fade_to_black</property>
    <property name="alpha">00:00:00.000=1;00:00:00.600=0</property>
    <property name="kdenlive:collapsed">0</property>
   </filter>
  </entry>
  <blank length="00:00:07.640"/>
  <entry producer="chain222" in="00:00:00.000" out="00:00:03.320">
   <property name="kdenlive:id">683</property>
  </entry>
  <entry producer="chain222" in="00:00:05.760" out="00:00:12.520">
   <property name="kdenlive:id">683</property>
  </entry>
  <entry producer="chain222" in="00:00:17.160" out="00:00:18.640">
   <property name="kdenlive:id">683</property>
  </entry>
  <blank length="00:00:00.720"/>
  <entry producer="producer480" in="00:00:00.000" out="00:00:07.000">
   <property name="kdenlive:id">685</property>
   <filter id="filter667" in="00:00:06.400" out="00:00:07.000">
    <property name="start">1</property>
    <property name="level">1</property>
    <property name="mlt_service">brightness</property>
    <property name="kdenlive_id">fade_to_black</property>
    <property name="alpha">00:00:00.000=1;00:00:00.600=0</property>
    <property name="kdenlive:collapsed">0</property>
   </filter>
   <filter id="filter668" out="00:00:00.600">
    <property name="start">1</property>
    <property name="level">1</property>
    <property name="mlt_service">brightness</property>
    <property name="kdenlive_id">fade_from_black</property>
    <property name="alpha">00:00:00.000=0;00:00:00.600=1</property>
    <property name="kdenlive:collapsed">0</property>
   </filter>
  </entry>
  <entry producer="producer481" in="00:00:00.000" out="00:00:05.520">
   <property name="kdenlive:id">686</property>
   <filter id="filter669" out="00:00:00.600">
    <property name="start">1</property>
    <property name="level">1</property>
    <property name="mlt_service">brightness</property>
    <property name="kdenlive_id">fade_from_black</property>
    <property name="alpha">00:00:00.000=0;00:00:00.600=1</property>
   </filter>
   <filter id="filter670" in="00:00:04.920" out="00:00:05.520">
    <property name="start">1</property>
    <property name="level">1</property>
    <property name="mlt_service">brightness</property>
    <property name="kdenlive_id">fade_to_black</property>
    <property name="alpha">00:00:00.000=1;00:00:00.600=0</property>
   </filter>
  </entry>
  <entry producer="producer482" in="00:00:00.000" out="00:00:09.760">
   <property name="kdenlive:id">688</property>
   <property name="kdenlive:activeeffect">1</property>
   <filter id="filter671">
    <property name="rotate_center">1</property>
    <property name="mlt_service">qtblend</property>
    <property name="kdenlive_id">qtblend</property>
    <property name="rect">00:00:00.000=288 162 1344 756 1.000000;00:00:09.760=240 135 1440 810 1.000000</property>
    <property name="rotation">00:00:00.000=0;00:00:09.760=0</property>
    <property name="compositing">0</property>
    <property name="distort">0</property>
    <property name="kdenlive:collapsed">1</property>
   </filter>
   <filter id="filter672">
    <property name="rotate_center">1</property>
    <property name="mlt_service">qtblend</property>
    <property name="kdenlive_id">qtblend</property>
    <property name="rect">00:00:00.000=950 535 19 10 1.000000;00:00:00.240=-96 -54 2112 1188 1.000000;00:00:00.360=0 0 1920 1080 1.000000;00:00:09.400=0 0 1920 1080 1.000000;00:00:09.520=0 64 1920 1080 1.000000;00:00:09.760=0 -1080 1920 1080 1.000000</property>
    <property name="rotation">00:00:00.000=0;00:00:00.240=0;00:00:00.360=0;00:00:09.400=0;00:00:09.520=0;00:00:09.760=0</property>
    <property name="compositing">0</property>
    <property name="distort">0</property>
    <property name="kdenlive:collapsed">0</property>
   </filter>
  </entry>
  <entry producer="producer331" in="00:00:00.000" out="00:00:15.080">
   <property name="kdenlive:id">447</property>
   <filter id="filter673" out="00:00:00.600">
    <property name="start">1</property>
    <property name="level">1</property>
    <property name="mlt_service">brightness</property>
    <property name="kdenlive_id">fade_from_black</property>
    <property name="alpha">00:00:00.000=0;00:00:00.600=1</property>
    <property name="kdenlive:collapsed">0</property>
   </filter>
   <filter id="filter674" in="00:00:14.480" out="00:00:15.080">
    <property name="start">1</property>
    <property name="level">1</property>
    <property name="mlt_service">brightness</property>
    <property name="kdenlive_id">fade_to_black</property>
    <property name="alpha">00:00:00.000=1;00:00:00.600=0</property>
    <property name="kdenlive:collapsed">0</property>
   </filter>
  </entry>
  <entry producer="chain201" in="00:18:48.280" out="00:19:16.080">
   <property name="kdenlive:id">15</property>
   <filter id="filter675">
    <property name="rotate_center">1</property>
    <property name="mlt_service">qtblend</property>
    <property name="kdenlive_id">qtblend</property>
    <property name="rect">00:18:48.280=-96 -53 2112 1188 1.000000</property>
    <property name="rotation">00:18:48.280=0</property>
    <property name="compositing">0</property>
    <property name="distort">0</property>
    <property name="kdenlive:collapsed">1</property>
   </filter>
   <filter id="filter676">
    <property name="hradius">00:18:48.280=60</property>
    <property name="vradius">00:18:48.280=60</property>
    <property name="mlt_service">box_blur</property>
    <property name="kdenlive_id">box_blur</property>
    <property name="kdenlive:collapsed">0</property>
   </filter>
   <filter id="filter677">
    <property name="start">1</property>
    <property name="level">00:18:48.280=0.46</property>
    <property name="mlt_service">brightness</property>
    <property name="kdenlive_id">brightness</property>
    <property name="kdenlive:collapsed">0</property>
   </filter>
   <filter id="filter678" in="00:19:15.160" out="00:19:16.080">
    <property name="start">1</property>
    <property name="level">1</property>
    <property name="mlt_service">brightness</property>
    <property name="kdenlive_id">fade_to_black</property>
    <property name="alpha">00:00:00.000=1;00:00:00.920=0</property>
   </filter>
  </entry>
  <blank length="00:00:02.480"/>
  <entry producer="producer448" in="00:00:00.000" out="00:00:04.040">
   <property name="kdenlive:id">657</property>
   <filter id="filter679">
    <property name="rotate_center">1</property>
    <property name="mlt_service">qtblend</property>
    <property name="kdenlive_id">qtblend</property>
    <property name="rect">00:00:00.000=0 65 1920 1080 1.000000;00:00:00.240=0 0 1920 1080 1.000000;00:00:03.720=0 0 1920 1080 1.000000;00:00:04.040=447 0 1920 1080 1.000000</property>
    <property name="rotation">00:00:00.000=0;00:00:00.240=0;00:00:03.720=0;00:00:04.040=0</property>
    <property name="compositing">0</property>
    <property name="distort">0</property>
    <property name="kdenlive:collapsed">1</property>
   </filter>
   <filter id="filter680" out="00:00:00.240">
    <property name="start">1</property>
    <property name="level">1</property>
    <property name="mlt_service">brightness</property>
    <property name="kdenlive_id">fade_from_black</property>
    <property name="alpha">00:00:00.000=0;00:00:00.240=1</property>
    <property name="kdenlive:collapsed">0</property>
   </filter>
   <filter id="filter681" in="00:00:03.720" out="00:00:04.040">
    <property name="start">1</property>
    <property name="level">1</property>
    <property name="mlt_service">brightness</property>
    <property name="kdenlive_id">fade_to_black</property>
    <property name="alpha">00:00:00.000=1;00:00:00.320=0</property>
    <property name="kdenlive:collapsed">0</property>
   </filter>
  </entry>
  <blank length="00:00:00.560"/>
  <entry producer="producer483" in="00:00:00.000" out="00:00:13.720">
   <property name="kdenlive:id">695</property>
   <property name="kdenlive:activeeffect">1</property>
   <filter id="filter682" out="00:00:00.600">
    <property name="start">1</property>
    <property name="level">1</property>
    <property name="mlt_service">brightness</property>
    <property name="kdenlive_id">fade_from_black</property>
    <property name="alpha">00:00:00.000=0;00:00:00.600=1</property>
    <property name="kdenlive:collapsed">0</property>
   </filter>
   <filter id="filter683" in="00:00:13.120" out="00:00:13.720">
    <property name="start">1</property>
    <property name="level">1</property>
    <property name="mlt_service">brightness</property>
    <property name="kdenlive_id">fade_to_black</property>
    <property name="alpha">00:00:00.000=1;00:00:00.600=0</property>
    <property name="kdenlive:collapsed">0</property>
   </filter>
  </entry>
  <entry producer="producer488" in="00:00:00.000" out="00:00:02.360">
   <property name="kdenlive:id">696</property>
   <filter id="filter684">
    <property name="rotate_center">1</property>
    <property name="mlt_service">qtblend</property>
    <property name="kdenlive_id">qtblend</property>
    <property name="rect">00:00:00.000=950 535 19 10 1.000000;00:00:00.240=-96 -54 2112 1188 1.000000;00:00:00.360=0 0 1920 1080 1.000000;00:00:02.000=0 0 1920 1080 1.000000;00:00:02.120=0 49 1920 1080 1.000000;00:00:02.360=0 -1080 1920 1080 1.000000</property>
    <property name="rotation">00:00:00.000=0;00:00:00.240=0;00:00:00.360=0;00:00:02.000=0;00:00:02.120=0;00:00:02.360=0</property>
    <property name="compositing">0</property>
    <property name="distort">0</property>
    <property name="kdenlive:collapsed">0</property>
   </filter>
  </entry>
  <blank length="00:00:10.720"/>
  <entry producer="producer492" in="00:00:00.000" out="00:00:07.720">
   <property name="kdenlive:id">701</property>
   <property name="kdenlive:activeeffect">1</property>
   <filter id="filter685" out="00:00:00.600">
    <property name="start">1</property>
    <property name="level">1</property>
    <property name="mlt_service">brightness</property>
    <property name="kdenlive_id">fade_from_black</property>
    <property name="alpha">00:00:00.000=0;00:00:00.600=1</property>
    <property name="kdenlive:collapsed">0</property>
   </filter>
   <filter id="filter686" in="00:00:07.120" out="00:00:07.720">
    <property name="start">1</property>
    <property name="level">1</property>
    <property name="mlt_service">brightness</property>
    <property name="kdenlive_id">fade_to_black</property>
    <property name="alpha">00:00:00.000=1;00:00:00.600=0</property>
    <property name="kdenlive:collapsed">0</property>
   </filter>
  </entry>
  <entry producer="producer493" in="00:00:00.000" out="00:00:06.440">
   <property name="kdenlive:id">703</property>
   <property name="kdenlive:activeeffect">1</property>
   <filter id="filter687" out="00:00:00.600">
    <property name="start">1</property>
    <property name="level">1</property>
    <property name="mlt_service">brightness</property>
    <property name="kdenlive_id">fade_from_black</property>
    <property name="alpha">00:00:00.000=0;00:00:00.600=1</property>
    <property name="kdenlive:collapsed">0</property>
   </filter>
   <filter id="filter688" in="00:00:05.800" out="00:00:06.440">
    <property name="start">1</property>
    <property name="level">1</property>
    <property name="mlt_service">brightness</property>
    <property name="kdenlive_id">fade_to_black</property>
    <property name="alpha">00:00:00.000=1;00:00:00.640=0</property>
    <property name="kdenlive:collapsed">0</property>
   </filter>
  </entry>
  <entry producer="producer496" in="00:00:00.000" out="00:00:14.280">
   <property name="kdenlive:id">705</property>
   <filter id="filter689" out="00:00:00.600">
    <property name="start">1</property>
    <property name="level">1</property>
    <property name="mlt_service">brightness</property>
    <property name="kdenlive_id">fade_from_black</property>
    <property name="alpha">00:00:00.000=0;00:00:00.600=1</property>
    <property name="kdenlive:collapsed">0</property>
   </filter>
   <filter id="filter690" in="00:00:13.640" out="00:00:14.280">
    <property name="start">1</property>
    <property name="level">1</property>
    <property name="mlt_service">brightness</property>
    <property name="kdenlive_id">fade_to_black</property>
    <property name="alpha">00:00:00.000=1;00:00:00.640=0</property>
    <property name="kdenlive:collapsed">0</property>
   </filter>
  </entry>
  <entry producer="producer497" in="00:00:00.000" out="00:00:05.120">
   <property name="kdenlive:id">707</property>
   <filter id="filter691">
    <property name="rotate_center">1</property>
    <property name="mlt_service">qtblend</property>
    <property name="kdenlive_id">qtblend</property>
    <property name="rect">00:00:00.000=240 135 1440 810 1.000000;00:00:05.120=221 125 1478 831 1.000000</property>
    <property name="rotation">00:00:00.000=0;00:00:05.120=0</property>
    <property name="compositing">0</property>
    <property name="distort">0</property>
    <property name="kdenlive:collapsed">0</property>
   </filter>
   <filter id="filter692">
    <property name="rotate_center">1</property>
    <property name="mlt_service">qtblend</property>
    <property name="kdenlive_id">qtblend</property>
    <property name="rect">00:00:00.000=950 535 19 10 1.000000;00:00:00.240=-96 -54 2112 1188 1.000000;00:00:00.360=0 0 1920 1080 1.000000</property>
    <property name="rotation">00:00:00.000=0;00:00:00.240=0;00:00:00.360=0</property>
    <property name="compositing">0</property>
    <property name="distort">0</property>
    <property name="kdenlive:collapsed">0</property>
   </filter>
  </entry>
  <entry producer="chain223" in="00:00:00.000" out="00:00:05.360">
   <property name="kdenlive:id">706</property>
   <filter id="filter693" in="00:00:04.840" out="00:00:05.360">
    <property name="start">1</property>
    <property name="level">1</property>
    <property name="mlt_service">brightness</property>
    <property name="kdenlive_id">fade_to_black</property>
    <property name="alpha">00:00:00.000=1;00:00:00.520=0</property>
   </filter>
  </entry>
  <entry producer="producer498" in="00:00:00.000" out="00:00:12.920">
   <property name="kdenlive:id">708</property>
   <property name="kdenlive:activeeffect">1</property>
   <filter id="filter694">
    <property name="rotate_center">1</property>
    <property name="mlt_service">qtblend</property>
    <property name="kdenlive_id">qtblend</property>
    <property name="rect">00:00:00.000=192 108 1536 864 1.000000;00:00:12.920=144 81 1632 918 1.000000</property>
    <property name="rotation">00:00:00.000=0;00:00:12.920=0</property>
    <property name="compositing">0</property>
    <property name="distort">0</property>
    <property name="kdenlive:collapsed">1</property>
   </filter>
   <filter id="filter695">
    <property name="rotate_center">1</property>
    <property name="mlt_service">qtblend</property>
    <property name="kdenlive_id">qtblend</property>
    <property name="rect">00:00:00.000=0 1080 1920 1080 1.000000;00:00:00.240=0 -50 1920 1080 1.000000;00:00:00.360=0 0 1920 1080 1.000000;00:00:12.560=0 0 1920 1080 1.000000;00:00:12.680=0 47 1920 1080 1.000000;00:00:12.920=0 -1080 1920 1080 1.000000</property>
    <property name="rotation">00:00:00.000=0;00:00:00.240=0;00:00:00.360=0;00:00:12.560=0;00:00:12.680=0;00:00:12.920=0</property>
    <property name="compositing">0</property>
    <property name="distort">0</property>
    <property name="kdenlive:collapsed">0</property>
   </filter>
  </entry>
  <blank length="00:00:03.200"/>
  <entry producer="chain224" in="00:00:02.080" out="00:00:04.000">
   <property name="kdenlive:id">709</property>
  </entry>
  <entry producer="chain224" in="00:00:06.080" out="00:00:09.640">
   <property name="kdenlive:id">709</property>
  </entry>
  <entry producer="chain224" in="00:00:09.400" out="00:00:10.040">
   <property name="kdenlive:id">709</property>
  </entry>
  <entry producer="chain224" in="00:00:10.080" out="00:00:11.240">
   <property name="kdenlive:id">709</property>
  </entry>
  <entry producer="chain224" in="00:00:11.280" out="00:00:14.000">
   <property name="kdenlive:id">709</property>
  </entry>
  <entry producer="chain224" in="00:00:11.280" out="00:00:14.000">
   <property name="kdenlive:id">709</property>
  </entry>
  <entry producer="chain224" in="00:00:11.280" out="00:00:13.840">
   <property name="kdenlive:id">709</property>
   <filter id="filter696">
    <property name="rotate_center">1</property>
    <property name="mlt_service">qtblend</property>
    <property name="kdenlive_id">qtblend</property>
    <property name="rect">00:00:11.280=0 0 1920 1080 1.000000;00:00:13.480=0 0 1920 1080 1.000000;00:00:13.600=0 48 1920 1080 1.000000;00:00:13.840=0 -1080 1920 1080 1.000000</property>
    <property name="rotation">00:00:11.280=0;00:00:13.480=0;00:00:13.600=0;00:00:13.840=0</property>
    <property name="compositing">0</property>
    <property name="distort">0</property>
    <property name="kdenlive:collapsed">0</property>
   </filter>
  </entry>
  <entry producer="producer500" in="00:00:00.000" out="00:00:27.320">
   <property name="kdenlive:id">717</property>
   <filter id="filter697" out="00:00:00.600">
    <property name="start">1</property>
    <property name="level">1</property>
    <property name="mlt_service">brightness</property>
    <property name="kdenlive_id">fade_from_black</property>
    <property name="alpha">00:00:00.000=0;00:00:00.600=1</property>
   </filter>
   <filter id="filter698" in="00:00:26.680" out="00:00:27.320">
    <property name="start">1</property>
    <property name="level">1</property>
    <property name="mlt_service">brightness</property>
    <property name="kdenlive_id">fade_to_black</property>
    <property name="alpha">00:00:00.000=1;00:00:00.640=0</property>
   </filter>
  </entry>
  <entry producer="chain225" in="00:00:00.000" out="00:00:23.680">
   <property name="kdenlive:id">718</property>
   <property name="kdenlive:activeeffect">2</property>
   <filter id="filter699" out="00:00:01.600">
    <property name="start">1</property>
    <property name="level">1</property>
    <property name="mlt_service">brightness</property>
    <property name="kdenlive_id">fade_from_black</property>
    <property name="alpha">00:00:00.000=0;00:00:01.600=1</property>
    <property name="kdenlive:collapsed">1</property>
   </filter>
   <filter id="filter700">
    <property name="rotate_center">1</property>
    <property name="mlt_service">qtblend</property>
    <property name="kdenlive_id">qtblend</property>
    <property name="rect">00:00:00.000=-331 -186 2587 1455 1.000000;00:00:16.320=-331 -186 2587 1455 1.000000;00:00:16.680=-473 -266 2872 1616 1.000000</property>
    <property name="rotation">00:00:00.000=0;00:00:16.320=0;00:00:16.680=0</property>
    <property name="compositing">0</property>
    <property name="distort">0</property>
    <property name="kdenlive:collapsed">0</property>
   </filter>
   <filter id="filter701">
    <property name="hradius">00:00:00.000=0;00:00:16.320=0;00:00:16.680=60</property>
    <property name="vradius">00:00:00.000=0;00:00:16.320=0;00:00:16.680=60</property>
    <property name="mlt_service">box_blur</property>
    <property name="kdenlive_id">box_blur</property>
    <property name="kdenlive:collapsed">0</property>
   </filter>
  </entry>
  <entry producer="producer501" in="00:00:00.000" out="00:00:05.200">
   <property name="kdenlive:id">733</property>
   <filter id="filter702" in="00:00:04.600" out="00:00:05.200">
    <property name="start">1</property>
    <property name="level">1</property>
    <property name="mlt_service">brightness</property>
    <property name="kdenlive_id">fade_to_black</property>
    <property name="alpha">00:00:00.000=1;00:00:00.600=0</property>
    <property name="kdenlive:collapsed">0</property>
   </filter>
  </entry>
  <entry producer="producer502" in="00:00:00.000" out="00:00:09.840">
   <property name="kdenlive:id">734</property>
   <property name="kdenlive:activeeffect">1</property>
   <filter id="filter703" out="00:00:00.600">
    <property name="start">1</property>
    <property name="level">1</property>
    <property name="mlt_service">brightness</property>
    <property name="kdenlive_id">fade_from_black</property>
    <property name="alpha">00:00:00.000=0;00:00:00.600=1</property>
    <property name="kdenlive:collapsed">0</property>
   </filter>
   <filter id="filter704" in="00:00:09.240" out="00:00:09.840">
    <property name="start">1</property>
    <property name="level">1</property>
    <property name="mlt_service">brightness</property>
    <property name="kdenlive_id">fade_to_black</property>
    <property name="alpha">00:00:00.000=1;00:00:00.600=0</property>
    <property name="kdenlive:collapsed">0</property>
   </filter>
  </entry>
  <entry producer="producer503" in="00:00:00.000" out="00:00:12.960">
   <property name="kdenlive:id">737</property>
   <property name="kdenlive:activeeffect">1</property>
   <filter id="filter705" out="00:00:00.600">
    <property name="start">1</property>
    <property name="level">1</property>
    <property name="mlt_service">brightness</property>
    <property name="kdenlive_id">fade_from_black</property>
    <property name="alpha">00:00:00.000=0;00:00:00.600=1</property>
    <property name="kdenlive:collapsed">0</property>
   </filter>
   <filter id="filter706" in="00:00:12.360" out="00:00:12.960">
    <property name="start">1</property>
    <property name="level">1</property>
    <property name="mlt_service">brightness</property>
    <property name="kdenlive_id">fade_to_black</property>
    <property name="alpha">00:00:00.000=1;00:00:00.600=0</property>
    <property name="kdenlive:collapsed">0</property>
   </filter>
  </entry>
  <entry producer="chain158" in="00:00:00.000" out="00:00:09.800">
   <property name="kdenlive:id">219</property>
   <filter id="filter707">
    <property name="rotate_center">1</property>
    <property name="mlt_service">qtblend</property>
    <property name="kdenlive_id">qtblend</property>
    <property name="rect">00:00:00.000=0 1080 1920 1080 1.000000;00:00:00.240=0 -59 1920 1080 1.000000;00:00:00.360=0 0 1920 1080 1.000000;00:00:09.440=0 0 1920 1080 1.000000;00:00:09.560=0 56 1920 1080 1.000000;00:00:09.800=0 -1080 1920 1080 1.000000</property>
    <property name="rotation">00:00:00.000=0;00:00:00.240=0;00:00:00.360=0;00:00:09.440=0;00:00:09.560=0;00:00:09.800=0</property>
    <property name="compositing">0</property>
    <property name="distort">0</property>
    <property name="kdenlive:collapsed">0</property>
   </filter>
  </entry>
  <entry producer="producer126" in="00:00:00.000" out="00:00:08.360">
   <property name="kdenlive:id">738</property>
   <filter id="filter708" out="00:00:00.600">
    <property name="start">1</property>
    <property name="level">1</property>
    <property name="mlt_service">brightness</property>
    <property name="kdenlive_id">fade_from_black</property>
    <property name="alpha">00:00:00.000=0;00:00:00.600=1</property>
   </filter>
   <filter id="filter709" in="00:00:07.760" out="00:00:08.360">
    <property name="start">1</property>
    <property name="level">1</property>
    <property name="mlt_service">brightness</property>
    <property name="kdenlive_id">fade_to_black</property>
    <property name="alpha">00:00:00.000=1;00:00:00.600=0</property>
   </filter>
  </entry>
  <entry producer="producer504" in="00:00:00.000" out="00:00:08.320">
   <property name="kdenlive:id">739</property>
   <property name="kdenlive:activeeffect">1</property>
   <filter id="filter710">
    <property name="rotate_center">1</property>
    <property name="mlt_service">qtblend</property>
    <property name="kdenlive_id">qtblend</property>
    <property name="rect">00:00:00.000=288 162 1344 756 1.000000;00:00:08.320=240 135 1440 810 1.000000</property>
    <property name="rotation">00:00:00.000=0;00:00:08.320=0</property>
    <property name="compositing">0</property>
    <property name="distort">0</property>
    <property name="kdenlive:collapsed">1</property>
   </filter>
   <filter id="filter711">
    <property name="rotate_center">1</property>
    <property name="mlt_service">qtblend</property>
    <property name="kdenlive_id">qtblend</property>
    <property name="rect">00:00:00.000=0 1080 1920 1080 1.000000;00:00:00.240=0 -64 1920 1080 1.000000;00:00:00.360=0 0 1920 1080 1.000000;00:00:07.960=0 0 1920 1080 1.000000;00:00:08.080=0 74 1920 1080 1.000000;00:00:08.320=0 -1080 1920 1080 1.000000</property>
    <property name="rotation">00:00:00.000=0;00:00:00.240=0;00:00:00.360=0;00:00:07.960=0;00:00:08.080=0;00:00:08.320=0</property>
    <property name="compositing">0</property>
    <property name="distort">0</property>
    <property name="kdenlive:collapsed">0</property>
   </filter>
  </entry>
  <blank length="00:00:24.280"/>
  <entry producer="chain217" in="00:02:25.120" out="00:02:29.120">
   <property name="kdenlive:id">421</property>
   <filter id="filter712">
    <property name="rotate_center">1</property>
    <property name="mlt_service">qtblend</property>
    <property name="kdenlive_id">qtblend</property>
    <property name="rect">00:02:25.120=0 1080 1920 1080 1.000000;00:02:25.360=0 -43 1920 1080 1.000000;00:02:25.480=0 0 1920 1080 1.000000;00:02:28.760=0 0 1920 1080 1.000000;00:02:28.880=0 62 1920 1080 1.000000;00:02:29.120=0 -1080 1920 1080 1.000000</property>
    <property name="rotation">00:02:25.120=0;00:02:25.360=0;00:02:25.480=0;00:02:28.760=0;00:02:28.880=0;00:02:29.120=0</property>
    <property name="compositing">0</property>
    <property name="distort">0</property>
    <property name="kdenlive:collapsed">0</property>
   </filter>
  </entry>
  <entry producer="producer341" in="00:00:00.000" out="00:00:08.640">
   <property name="kdenlive:id">489</property>
   <filter id="filter713" out="00:00:00.600">
    <property name="start">1</property>
    <property name="level">1</property>
    <property name="mlt_service">brightness</property>
    <property name="kdenlive_id">fade_from_black</property>
    <property name="alpha">00:00:00.000=0;00:00:00.600=1</property>
    <property name="kdenlive:collapsed">0</property>
   </filter>
   <filter id="filter714" in="00:00:08.040" out="00:00:08.640">
    <property name="start">1</property>
    <property name="level">1</property>
    <property name="mlt_service">brightness</property>
    <property name="kdenlive_id">fade_to_black</property>
    <property name="alpha">00:00:00.000=1;00:00:00.600=0</property>
    <property name="kdenlive:collapsed">0</property>
   </filter>
  </entry>
  <entry producer="chain232" in="00:00:00.000" out="00:00:01.320">
   <property name="kdenlive:id">740</property>
   <filter id="filter715">
    <property name="mlt_service">avfilter.gblur</property>
    <property name="kdenlive_id">avfilter.gblur</property>
    <property name="av.sigma">71</property>
    <property name="av.steps">1</property>
    <property name="av.planes">7</property>
    <property name="av.sigmaV">-1</property>
    <property name="kdenlive:collapsed">0</property>
   </filter>
  </entry>
  <entry producer="chain232" in="00:00:01.360" out="00:00:01.760">
   <property name="kdenlive:id">740</property>
  </entry>
  <entry producer="chain232" in="00:00:01.800" out="00:00:03.280">
   <property name="kdenlive:id">740</property>
   <filter id="filter716">
    <property name="mlt_service">avfilter.gblur</property>
    <property name="kdenlive_id">avfilter.gblur</property>
    <property name="av.sigma">71</property>
    <property name="av.steps">1</property>
    <property name="av.planes">7</property>
    <property name="av.sigmaV">-1</property>
   </filter>
  </entry>
  <entry producer="chain232" in="00:00:03.320" out="00:00:05.000">
   <property name="kdenlive:id">740</property>
   <filter id="filter717">
    <property name="rotate_center">1</property>
    <property name="mlt_service">qtblend</property>
    <property name="kdenlive_id">qtblend</property>
    <property name="rect">00:00:03.320=0 0 1920 1080 1.000000;00:00:04.640=0 0 1920 1080 1.000000;00:00:04.760=0 61 1920 1080 1.000000;00:00:05.000=0 -1080 1920 1080 1.000000</property>
    <property name="rotation">00:00:03.320=0;00:00:04.640=0;00:00:04.760=0;00:00:05.000=0</property>
    <property name="compositing">0</property>
    <property name="distort">0</property>
    <property name="kdenlive:collapsed">0</property>
   </filter>
  </entry>
  <blank length="00:00:04.200"/>
  <entry producer="chain251" in="00:00:00.000" out="00:00:08.520">
   <property name="kdenlive:id">741</property>
   <filter id="filter718">
    <property name="rotate_center">1</property>
    <property name="mlt_service">qtblend</property>
    <property name="kdenlive_id">qtblend</property>
    <property name="rect">00:00:00.000=0 0 1920 1080 1.000000;00:00:08.160=0 0 1920 1080 1.000000;00:00:08.280=0 90 1920 1080 1.000000;00:00:08.520=0 -1080 1920 1080 1.000000</property>
    <property name="rotation">00:00:00.000=0;00:00:08.160=0;00:00:08.280=0;00:00:08.520=0</property>
    <property name="compositing">0</property>
    <property name="distort">0</property>
    <property name="kdenlive:collapsed">0</property>
   </filter>
  </entry>
  <blank length="00:00:04.840"/>
  <entry producer="chain252" in="00:00:10.000" out="00:00:20.200">
   <property name="kdenlive:id">490</property>
   <filter id="filter719">
    <property name="rotate_center">1</property>
    <property name="mlt_service">qtblend</property>
    <property name="kdenlive_id">qtblend</property>
    <property name="rect">00:00:10.000=0 1080 1920 1080 1.000000;00:00:10.240=0 -65 1920 1080 1.000000;00:00:10.360=0 0 1920 1080 1.000000;00:00:19.840=0 0 1920 1080 1.000000;00:00:19.960=0 73 1920 1080 1.000000;00:00:20.200=0 -1080 1920 1080 1.000000</property>
    <property name="rotation">00:00:10.000=0;00:00:10.240=0;00:00:10.360=0;00:00:19.840=0;00:00:19.960=0;00:00:20.200=0</property>
    <property name="compositing">0</property>
    <property name="distort">0</property>
    <property name="kdenlive:collapsed">0</property>
   </filter>
  </entry>
  <blank length="00:00:06.560"/>
  <entry producer="chain253" in="00:01:38.600" out="00:02:08.560">
   <property name="kdenlive:id">742</property>
   <property name="kdenlive:activeeffect">2</property>
   <filter id="filter720">
    <property name="rotate_center">1</property>
    <property name="mlt_service">qtblend</property>
    <property name="kdenlive_id">qtblend</property>
    <property name="rect">00:01:38.600=288 162 1344 756 1.000000;00:01:39.000=-378 -213 2682 1508 1.000000</property>
    <property name="rotation">00:01:38.600=0;00:01:39.000=0</property>
    <property name="compositing">0</property>
    <property name="distort">0</property>
    <property name="kdenlive:collapsed">1</property>
   </filter>
   <filter id="filter721">
    <property name="hradius">00:01:38.600=1;00:01:39.000=60</property>
    <property name="vradius">00:01:38.600=1;00:01:39.000=60</property>
    <property name="mlt_service">box_blur</property>
    <property name="kdenlive_id">box_blur</property>
    <property name="kdenlive:collapsed">0</property>
   </filter>
   <filter id="filter722">
    <property name="start">1</property>
    <property name="level">00:01:38.600=1;00:01:39.000=0.5</property>
    <property name="mlt_service">brightness</property>
    <property name="kdenlive_id">brightness</property>
    <property name="kdenlive:collapsed">0</property>
   </filter>
   <filter id="filter723" in="00:02:07.640" out="00:02:08.560">
    <property name="start">1</property>
    <property name="level">1</property>
    <property name="mlt_service">brightness</property>
    <property name="kdenlive_id">fade_to_black</property>
    <property name="alpha">00:00:00.000=1;00:00:00.920=0</property>
   </filter>
  </entry>
  <entry producer="chain252" in="00:00:07.600" out="00:00:17.560">
   <property name="kdenlive:id">490</property>
   <filter id="filter724">
    <property name="rotate_center">1</property>
    <property name="mlt_service">qtblend</property>
    <property name="kdenlive_id">qtblend</property>
    <property name="rect">00:00:07.600=950 535 19 10 1.000000;00:00:07.840=-48 -27 2016 1134 1.000000;00:00:07.960=0 0 1920 1080 1.000000;00:00:17.200=0 0 1920 1080 1.000000;00:00:17.320=0 69 1920 1080 1.000000;00:00:17.560=0 -1080 1920 1080 1.000000</property>
    <property name="rotation">00:00:07.600=0;00:00:07.840=0;00:00:07.960=0;00:00:17.200=0;00:00:17.320=0;00:00:17.560=0</property>
    <property name="compositing">0</property>
    <property name="distort">0</property>
    <property name="kdenlive:collapsed">0</property>
   </filter>
  </entry>
  <entry producer="producer505" in="00:00:00.000" out="00:00:07.920">
   <property name="kdenlive:id">748</property>
   <property name="kdenlive:activeeffect">1</property>
   <filter id="filter725" out="00:00:00.600">
    <property name="start">1</property>
    <property name="level">1</property>
    <property name="mlt_service">brightness</property>
    <property name="kdenlive_id">fade_from_black</property>
    <property name="alpha">00:00:00.000=0;00:00:00.600=1</property>
    <property name="kdenlive:collapsed">0</property>
   </filter>
   <filter id="filter726" in="00:00:07.320" out="00:00:07.920">
    <property name="start">1</property>
    <property name="level">1</property>
    <property name="mlt_service">brightness</property>
    <property name="kdenlive_id">fade_to_black</property>
    <property name="alpha">00:00:00.000=1;00:00:00.600=0</property>
    <property name="kdenlive:collapsed">0</property>
   </filter>
  </entry>
  <entry producer="producer506" in="00:00:00.000" out="00:00:05.520">
   <property name="kdenlive:id">751</property>
   <filter id="filter727" out="00:00:00.600">
    <property name="start">1</property>
    <property name="level">1</property>
    <property name="mlt_service">brightness</property>
    <property name="kdenlive_id">fade_from_black</property>
    <property name="alpha">00:00:00.000=0;00:00:00.600=1</property>
   </filter>
   <filter id="filter728" in="00:00:04.920" out="00:00:05.520">
    <property name="start">1</property>
    <property name="level">1</property>
    <property name="mlt_service">brightness</property>
    <property name="kdenlive_id">fade_to_black</property>
    <property name="alpha">00:00:00.000=1;00:00:00.600=0</property>
   </filter>
  </entry>
  <entry producer="chain255" in="00:00:05.560" out="00:00:18.200">
   <property name="kdenlive:id">750</property>
   <property name="kdenlive:activeeffect">2</property>
   <filter id="filter729">
    <property name="rotate_center">1</property>
    <property name="mlt_service">qtblend</property>
    <property name="kdenlive_id">qtblend</property>
    <property name="rect">00:00:05.560=320 180 1279 719 1.000000;00:00:06.040=-96 -54 2112 1188 1.000000</property>
    <property name="rotation">00:00:05.560=0;00:00:06.040=0</property>
    <property name="compositing">0</property>
    <property name="distort">0</property>
    <property name="kdenlive:collapsed">1</property>
   </filter>
   <filter id="filter730">
    <property name="start">1</property>
    <property name="level">00:00:05.560=1;00:00:06.040=0.37</property>
    <property name="mlt_service">brightness</property>
    <property name="kdenlive_id">brightness</property>
    <property name="kdenlive:collapsed">1</property>
   </filter>
   <filter id="filter731">
    <property name="hradius">00:00:05.560=1;00:00:06.040=60</property>
    <property name="vradius">00:00:05.560=1;00:00:06.040=60</property>
    <property name="mlt_service">box_blur</property>
    <property name="kdenlive_id">box_blur</property>
    <property name="kdenlive:collapsed">0</property>
   </filter>
   <filter id="filter732" in="00:00:17.280" out="00:00:18.200">
    <property name="start">1</property>
    <property name="level">1</property>
    <property name="mlt_service">brightness</property>
    <property name="kdenlive_id">fade_to_black</property>
    <property name="alpha">00:00:00.000=1;00:00:00.920=0</property>
   </filter>
  </entry>
  <blank length="00:00:00.160"/>
  <entry producer="producer507" in="00:00:00.000" out="00:00:00.120">
   <property name="kdenlive:id">753</property>
  </entry>
  <entry producer="producer508" in="00:00:00.000" out="00:00:00.080">
   <property name="kdenlive:id">754</property>
  </entry>
  <entry producer="producer509" in="00:00:00.000" out="00:00:00.040">
   <property name="kdenlive:id">755</property>
  </entry>
  <entry producer="producer271" in="00:00:00.000" out="00:00:00.000">
   <property name="kdenlive:id">300</property>
  </entry>
  <entry producer="producer510" in="00:00:00.000" out="00:00:00.480">
   <property name="kdenlive:id">756</property>
  </entry>
  <entry producer="producer216" in="00:00:00.000" out="00:00:00.040">
   <property name="kdenlive:id">281</property>
  </entry>
  <entry producer="producer511" in="00:00:00.000" out="00:00:00.320">
   <property name="kdenlive:id">757</property>
   <filter id="filter733" in="00:00:00.120" out="00:00:00.320">
    <property name="start">1</property>
    <property name="level">1</property>
    <property name="mlt_service">brightness</property>
    <property name="kdenlive_id">fade_to_black</property>
    <property name="alpha">00:00:00.000=1;00:00:00.200=0</property>
   </filter>
  </entry>
  <blank length="00:00:00.040"/>
  <entry producer="producer513" in="00:00:00.000" out="00:00:00.040">
   <property name="kdenlive:id">758</property>
  </entry>
  <entry producer="producer518" in="00:00:00.000" out="00:00:00.120">
   <property name="kdenlive:id">759</property>
  </entry>
  <entry producer="producer522" in="00:00:00.000" out="00:00:00.360">
   <property name="kdenlive:id">760</property>
  </entry>
  <entry producer="producer523" in="00:00:00.000" out="00:00:00.600">
   <property name="kdenlive:id">761</property>
   <filter id="filter734" in="00:00:00.240" out="00:00:00.600">
    <property name="start">1</property>
    <property name="level">1</property>
    <property name="mlt_service">brightness</property>
    <property name="kdenlive_id">fade_to_black</property>
    <property name="alpha">00:00:00.000=1;00:00:00.360=0</property>
   </filter>
  </entry>
  <entry producer="chain256" in="00:00:00.000" out="00:00:04.600">
   <property name="kdenlive:id">762</property>
   <property name="kdenlive:activeeffect">1</property>
   <filter id="filter735">
    <property name="rotate_center">1</property>
    <property name="mlt_service">qtblend</property>
    <property name="kdenlive_id">qtblend</property>
    <property name="rect">00:00:00.000=336 189 1248 702 1.000000;00:00:04.600=192 108 1536 864 1.000000</property>
    <property name="rotation">00:00:00.000=0;00:00:04.600=0</property>
    <property name="compositing">0</property>
    <property name="distort">0</property>
    <property name="kdenlive:collapsed">1</property>
   </filter>
   <filter id="filter736">
    <property name="rotate_center">1</property>
    <property name="mlt_service">qtblend</property>
    <property name="kdenlive_id">qtblend</property>
    <property name="rect">00:00:00.000=0 1080 1920 1080 1.000000;00:00:00.240=0 -56 1920 1080 1.000000;00:00:00.360=0 0 1920 1080 1.000000;00:00:04.240=0 0 1920 1080 1.000000;00:00:04.360=0 67 1920 1080 1.000000;00:00:04.600=0 -1080 1920 1080 1.000000</property>
    <property name="rotation">00:00:00.000=0;00:00:00.240=0;00:00:00.360=0;00:00:04.240=0;00:00:04.360=0;00:00:04.600=0</property>
    <property name="compositing">0</property>
    <property name="distort">0</property>
    <property name="kdenlive:collapsed">0</property>
   </filter>
  </entry>
  <entry producer="producer529" in="00:00:00.000" out="00:00:07.080">
   <property name="kdenlive:id">764</property>
   <property name="kdenlive:activeeffect">1</property>
   <filter id="filter737" out="00:00:00.600">
    <property name="start">1</property>
    <property name="level">1</property>
    <property name="mlt_service">brightness</property>
    <property name="kdenlive_id">fade_from_black</property>
    <property name="alpha">00:00:00.000=0;00:00:00.600=1</property>
    <property name="kdenlive:collapsed">0</property>
   </filter>
   <filter id="filter738" in="00:00:06.480" out="00:00:07.080">
    <property name="start">1</property>
    <property name="level">1</property>
    <property name="mlt_service">brightness</property>
    <property name="kdenlive_id">fade_to_black</property>
    <property name="alpha">00:00:00.000=1;00:00:00.600=0</property>
    <property name="kdenlive:collapsed">0</property>
   </filter>
  </entry>
  <entry producer="producer182" in="00:00:00.000" out="00:00:09.600">
   <property name="kdenlive:id">372</property>
   <filter id="filter739" out="00:00:00.600">
    <property name="start">1</property>
    <property name="level">1</property>
    <property name="mlt_service">brightness</property>
    <property name="kdenlive_id">fade_from_black</property>
    <property name="alpha">00:00:00.000=0;00:00:00.600=1</property>
   </filter>
   <filter id="filter740" in="00:00:09.000" out="00:00:09.600">
    <property name="start">1</property>
    <property name="level">1</property>
    <property name="mlt_service">brightness</property>
    <property name="kdenlive_id">fade_to_black</property>
    <property name="alpha">00:00:00.000=1;00:00:00.600=0</property>
   </filter>
  </entry>
  <blank length="00:00:01.320"/>
  <entry producer="chain257" in="00:00:00.000" out="00:01:14.080">
   <property name="kdenlive:id">769</property>
   <filter id="filter741">
    <property name="start">1</property>
    <property name="level">00:00:00.000=0.56</property>
    <property name="mlt_service">brightness</property>
    <property name="kdenlive_id">brightness</property>
    <property name="kdenlive:collapsed">0</property>
   </filter>
   <filter id="filter742">
    <property name="hradius">00:00:00.000=60</property>
    <property name="vradius">00:00:00.000=60</property>
    <property name="mlt_service">box_blur</property>
    <property name="kdenlive_id">box_blur</property>
    <property name="kdenlive:collapsed">0</property>
   </filter>
   <filter id="filter743" in="00:01:13.160" out="00:01:14.080">
    <property name="start">1</property>
    <property name="level">1</property>
    <property name="mlt_service">brightness</property>
    <property name="kdenlive_id">fade_to_black</property>
    <property name="alpha">00:00:00.000=1;00:00:00.920=0</property>
   </filter>
  </entry>
  <entry producer="producer182" in="00:00:00.000" out="00:00:08.680">
   <property name="kdenlive:id">372</property>
   <filter id="filter744" out="00:00:00.600">
    <property name="start">1</property>
    <property name="level">1</property>
    <property name="mlt_service">brightness</property>
    <property name="kdenlive_id">fade_from_black</property>
    <property name="alpha">00:00:00.000=0;00:00:00.600=1</property>
    <property name="kdenlive:collapsed">0</property>
   </filter>
   <filter id="filter745" in="00:00:08.040" out="00:00:08.680">
    <property name="start">1</property>
    <property name="level">1</property>
    <property name="mlt_service">brightness</property>
    <property name="kdenlive_id">fade_to_black</property>
    <property name="alpha">00:00:00.000=1;00:00:00.640=0</property>
    <property name="kdenlive:collapsed">0</property>
   </filter>
  </entry>
  <entry producer="producer533" in="00:00:00.000" out="00:00:23.680">
   <property name="kdenlive:id">780</property>
   <property name="kdenlive:activeeffect">1</property>
   <filter id="filter746" out="00:00:00.600">
    <property name="start">1</property>
    <property name="level">1</property>
    <property name="mlt_service">brightness</property>
    <property name="kdenlive_id">fade_from_black</property>
    <property name="alpha">00:00:00.000=0;00:00:00.600=1</property>
    <property name="kdenlive:collapsed">0</property>
   </filter>
   <filter id="filter747" in="00:00:23.040" out="00:00:23.680">
    <property name="start">1</property>
    <property name="level">1</property>
    <property name="mlt_service">brightness</property>
    <property name="kdenlive_id">fade_to_black</property>
    <property name="alpha">00:00:00.000=1;00:00:00.640=0</property>
    <property name="kdenlive:collapsed">0</property>
   </filter>
  </entry>
  <entry producer="producer500" in="00:00:00.000" out="00:00:22.960">
   <property name="kdenlive:id">717</property>
   <filter id="filter748" out="00:00:00.600">
    <property name="start">1</property>
    <property name="level">1</property>
    <property name="mlt_service">brightness</property>
    <property name="kdenlive_id">fade_from_black</property>
    <property name="alpha">00:00:00.000=0;00:00:00.600=1</property>
    <property name="kdenlive:collapsed">0</property>
   </filter>
   <filter id="filter749" in="00:00:22.320" out="00:00:22.960">
    <property name="start">1</property>
    <property name="level">1</property>
    <property name="mlt_service">brightness</property>
    <property name="kdenlive_id">fade_to_black</property>
    <property name="alpha">00:00:00.000=1;00:00:00.640=0</property>
    <property name="kdenlive:collapsed">0</property>
   </filter>
  </entry>
  <entry producer="producer126" in="00:00:00.000" out="00:00:06.520">
   <property name="kdenlive:id">738</property>
   <filter id="filter750" out="00:00:00.600">
    <property name="start">1</property>
    <property name="level">1</property>
    <property name="mlt_service">brightness</property>
    <property name="kdenlive_id">fade_from_black</property>
    <property name="alpha">00:00:00.000=0;00:00:00.600=1</property>
   </filter>
   <filter id="filter751" in="00:00:05.880" out="00:00:06.520">
    <property name="start">1</property>
    <property name="level">1</property>
    <property name="mlt_service">brightness</property>
    <property name="kdenlive_id">fade_to_black</property>
    <property name="alpha">00:00:00.000=1;00:00:00.640=0</property>
   </filter>
  </entry>
  <entry producer="chain258" in="00:17:18.320" out="00:17:40.360">
   <property name="kdenlive:id">7</property>
   <property name="kdenlive:activeeffect">2</property>
   <filter id="filter752">
    <property name="rotate_center">1</property>
    <property name="mlt_service">qtblend</property>
    <property name="kdenlive_id">qtblend</property>
    <property name="rect">00:17:18.320=320 180 1279 719 1.000000;00:17:18.800=0 0 1920 1080 1.000000</property>
    <property name="rotation">00:17:18.320=0;00:17:18.800=0</property>
    <property name="compositing">0</property>
    <property name="distort">0</property>
    <property name="kdenlive:collapsed">1</property>
   </filter>
   <filter id="filter753">
    <property name="hradius">00:17:18.320=1;00:17:18.800=60</property>
    <property name="vradius">00:17:18.320=1;00:17:18.800=60</property>
    <property name="mlt_service">box_blur</property>
    <property name="kdenlive_id">box_blur</property>
    <property name="kdenlive:collapsed">0</property>
   </filter>
   <filter id="filter754">
    <property name="start">1</property>
    <property name="level">00:17:18.320=1;00:17:18.800=0.4</property>
    <property name="mlt_service">brightness</property>
    <property name="kdenlive_id">brightness</property>
    <property name="kdenlive:collapsed">0</property>
   </filter>
   <filter id="filter755" in="00:17:39.440" out="00:17:40.360">
    <property name="start">1</property>
    <property name="level">1</property>
    <property name="mlt_service">brightness</property>
    <property name="kdenlive_id">fade_to_black</property>
    <property name="alpha">00:00:00.000=1;00:00:00.920=0</property>
   </filter>
  </entry>
  <entry producer="producer503" in="00:00:00.000" out="00:00:12.960">
   <property name="kdenlive:id">737</property>
   <filter id="filter756" out="00:00:00.600">
    <property name="start">1</property>
    <property name="level">1</property>
    <property name="mlt_service">brightness</property>
    <property name="kdenlive_id">fade_from_black</property>
    <property name="alpha">00:00:00.000=0;00:00:00.600=1</property>
    <property name="kdenlive:collapsed">0</property>
   </filter>
   <filter id="filter757" in="00:00:12.360" out="00:00:12.960">
    <property name="start">1</property>
    <property name="level">1</property>
    <property name="mlt_service">brightness</property>
    <property name="kdenlive_id">fade_to_black</property>
    <property name="alpha">00:00:00.000=1;00:00:00.600=0</property>
    <property name="kdenlive:collapsed">0</property>
   </filter>
  </entry>
  <blank length="00:00:00.200"/>
  <entry producer="producer534" in="00:00:00.000" out="00:00:00.760">
   <property name="kdenlive:id">797</property>
  </entry>
  <entry producer="producer535" in="00:00:00.000" out="00:00:01.000">
   <property name="kdenlive:id">798</property>
  </entry>
  <entry producer="producer541" in="00:00:00.000" out="00:00:00.920">
   <property name="kdenlive:id">799</property>
  </entry>
  <entry producer="producer542" in="00:00:00.000" out="00:00:00.840">
   <property name="kdenlive:id">800</property>
  </entry>
  <entry producer="producer545" in="00:00:00.000" out="00:00:01.360">
   <property name="kdenlive:id">801</property>
   <filter id="filter758" in="00:00:00.720" out="00:00:01.360">
    <property name="start">1</property>
    <property name="level">1</property>
    <property name="mlt_service">brightness</property>
    <property name="kdenlive_id">fade_to_black</property>
    <property name="alpha">00:00:00.000=1;00:00:00.640=0</property>
   </filter>
  </entry>
  <entry producer="chain218" in="00:00:00.000" out="00:00:06.800">
   <property name="kdenlive:id">611</property>
   <filter id="filter759" out="00:00:01.640">
    <property name="start">1</property>
    <property name="level">1</property>
    <property name="mlt_service">brightness</property>
    <property name="kdenlive_id">fade_from_black</property>
    <property name="alpha">00:00:00.000=0;00:00:01.640=1</property>
    <property name="kdenlive:collapsed">1</property>
   </filter>
   <filter id="filter760">
    <property name="rotate_center">1</property>
    <property name="mlt_service">qtblend</property>
    <property name="kdenlive_id">qtblend</property>
    <property name="rect">00:00:00.000=0 0 1920 1080 1.000000;00:00:03.680=0 0 1920 1080 1.000000;00:00:04.160=-96 -54 2112 1188 1.000000</property>
    <property name="rotation">00:00:00.000=0;00:00:03.680=0;00:00:04.160=0</property>
    <property name="compositing">0</property>
    <property name="distort">0</property>
    <property name="kdenlive:collapsed">1</property>
   </filter>
   <filter id="filter761">
    <property name="start">1</property>
    <property name="level">00:00:00.000=1;00:00:03.680=1;00:00:04.160=0.69</property>
    <property name="mlt_service">brightness</property>
    <property name="kdenlive_id">brightness</property>
    <property name="kdenlive:collapsed">0</property>
   </filter>
   <filter id="filter762">
    <property name="hradius">00:00:00.000=0;00:00:03.680=0;00:00:04.160=60</property>
    <property name="vradius">00:00:00.000=0;00:00:03.680=0;00:00:04.160=60</property>
    <property name="mlt_service">box_blur</property>
    <property name="kdenlive_id">box_blur</property>
    <property name="kdenlive:collapsed">0</property>
   </filter>
   <filter id="filter763" in="00:00:04.400" out="00:00:06.800">
    <property name="start">1</property>
    <property name="level">1</property>
    <property name="mlt_service">brightness</property>
    <property name="kdenlive_id">fade_to_black</property>
    <property name="alpha">00:00:00.000=1;00:00:02.400=0</property>
   </filter>
  </entry>
  <blank length="00:00:15.200"/>
  <entry producer="producer546" in="00:00:00.000" out="00:00:06.840">
   <property name="kdenlive:id">803</property>
   <filter id="filter764" out="00:00:00.600">
    <property name="start">1</property>
    <property name="level">1</property>
    <property name="mlt_service">brightness</property>
    <property name="kdenlive_id">fade_from_black</property>
    <property name="alpha">00:00:00.000=0;00:00:00.600=1</property>
   </filter>
   <filter id="filter765" in="00:00:06.240" out="00:00:06.840">
    <property name="start">1</property>
    <property name="level">1</property>
    <property name="mlt_service">brightness</property>
    <property name="kdenlive_id">fade_to_black</property>
    <property name="alpha">00:00:00.000=1;00:00:00.600=0</property>
   </filter>
  </entry>
  <entry producer="chain265" in="01:03:30.880" out="01:04:45.960">
   <property name="kdenlive:id">802</property>
   <property name="kdenlive:activeeffect">2</property>
   <filter id="filter766">
    <property name="rotate_center">1</property>
    <property name="mlt_service">qtblend</property>
    <property name="kdenlive_id">qtblend</property>
    <property name="rect">01:03:30.880=320 180 1279 719 1.000000;01:03:31.360=0 0 1920 1080 1.000000</property>
    <property name="rotation">01:03:30.880=0;01:03:31.360=0</property>
    <property name="compositing">0</property>
    <property name="distort">0</property>
    <property name="kdenlive:collapsed">1</property>
   </filter>
   <filter id="filter767">
    <property name="start">1</property>
    <property name="level">01:03:30.880=1;01:03:31.360=0.43</property>
    <property name="mlt_service">brightness</property>
    <property name="kdenlive_id">brightness</property>
    <property name="kdenlive:collapsed">0</property>
   </filter>
   <filter id="filter768">
    <property name="hradius">01:03:30.880=1;01:03:31.360=60</property>
    <property name="vradius">01:03:30.880=1;01:03:31.360=60</property>
    <property name="mlt_service">box_blur</property>
    <property name="kdenlive_id">box_blur</property>
    <property name="kdenlive:collapsed">0</property>
   </filter>
   <filter id="filter769" in="01:04:45.040" out="01:04:45.960">
    <property name="start">1</property>
    <property name="level">1</property>
    <property name="mlt_service">brightness</property>
    <property name="kdenlive_id">fade_to_black</property>
    <property name="alpha">00:00:00.000=1;00:00:00.920=0</property>
   </filter>
  </entry>
  <entry producer="producer135" in="00:00:00.000" out="00:00:04.000">
   <property name="kdenlive:id">233</property>
   <filter id="filter770" out="00:00:00.600">
    <property name="start">1</property>
    <property name="level">1</property>
    <property name="mlt_service">brightness</property>
    <property name="kdenlive_id">fade_from_black</property>
    <property name="alpha">00:00:00.000=0;00:00:00.600=1</property>
    <property name="kdenlive:collapsed">0</property>
   </filter>
   <filter id="filter771" in="00:00:03.400" out="00:00:04.000">
    <property name="start">1</property>
    <property name="level">1</property>
    <property name="mlt_service">brightness</property>
    <property name="kdenlive_id">fade_to_black</property>
    <property name="alpha">00:00:00.000=1;00:00:00.600=0</property>
    <property name="kdenlive:collapsed">0</property>
   </filter>
  </entry>
  <entry producer="producer547" in="00:00:00.000" out="00:00:20.720">
   <property name="kdenlive:id">813</property>
   <property name="kdenlive:activeeffect">1</property>
   <filter id="filter772">
    <property name="rotate_center">1</property>
    <property name="mlt_service">qtblend</property>
    <property name="kdenlive_id">qtblend</property>
    <property name="rect">00:00:00.000=0 70 1920 1080 1.000000;00:00:00.320=0 0 1920 1080 1.000000</property>
    <property name="rotation">00:00:00.000=0;00:00:00.320=0</property>
    <property name="compositing">0</property>
    <property name="distort">0</property>
    <property name="kdenlive:collapsed">0</property>
   </filter>
   <filter id="filter773" out="00:00:00.320">
    <property name="start">1</property>
    <property name="level">1</property>
    <property name="mlt_service">brightness</property>
    <property name="kdenlive_id">fade_from_black</property>
    <property name="alpha">00:00:00.000=0;00:00:00.320=1</property>
    <property name="kdenlive:collapsed">0</property>
   </filter>
  </entry>
  <entry producer="producer547" in="00:00:00.000" out="00:00:00.280">
   <property name="kdenlive:id">813</property>
   <filter id="filter774">
    <property name="rotate_center">1</property>
    <property name="mlt_service">qtblend</property>
    <property name="kdenlive_id">qtblend</property>
    <property name="rect">00:00:00.000=0 0 1920 1080 1.000000;00:00:00.280=98 0 1920 1080 1.000000</property>
    <property name="rotation">00:00:00.000=0;00:00:00.280=0</property>
    <property name="compositing">0</property>
    <property name="distort">0</property>
    <property name="kdenlive:collapsed">0</property>
   </filter>
   <filter id="filter775" in="00:00:-0.040" out="00:00:00.280">
    <property name="start">1</property>
    <property name="level">1</property>
    <property name="mlt_service">brightness</property>
    <property name="kdenlive_id">fade_to_black</property>
    <property name="alpha">00:00:00.000=1;00:00:00.320=0</property>
    <property name="kdenlive:collapsed">0</property>
   </filter>
  </entry>
  <entry producer="chain266" in="00:00:03.680" out="00:00:08.680">
   <property name="kdenlive:id">814</property>
   <property name="kdenlive:activeeffect">2</property>
   <filter id="filter776" in="00:00:03.680" out="00:00:04.840">
    <property name="start">1</property>
    <property name="level">1</property>
    <property name="mlt_service">brightness</property>
    <property name="kdenlive_id">fade_from_black</property>
    <property name="alpha">00:00:00.000=0;00:00:01.160=1</property>
    <property name="kdenlive:collapsed">0</property>
   </filter>
   <filter id="filter777" in="00:00:07.680" out="00:00:08.680">
    <property name="start">1</property>
    <property name="level">1</property>
    <property name="mlt_service">brightness</property>
    <property name="kdenlive_id">fade_to_black</property>
    <property name="alpha">00:00:00.000=1;00:00:01.000=0</property>
    <property name="kdenlive:collapsed">0</property>
   </filter>
   <filter id="filter778">
    <property name="hradius">00:00:03.680=0;00:00:07.680=0;00:00:08.680=60</property>
    <property name="vradius">00:00:03.680=0;00:00:07.680=0;00:00:08.680=60</property>
    <property name="mlt_service">box_blur</property>
    <property name="kdenlive_id">box_blur</property>
    <property name="kdenlive:collapsed">0</property>
   </filter>
  </entry>
  <blank length="00:00:04.840"/>
  <entry producer="chain217" in="00:00:29.120" out="00:00:33.400">
   <property name="kdenlive:id">421</property>
   <filter id="filter779">
    <property name="rotate_center">1</property>
    <property name="mlt_service">qtblend</property>
    <property name="kdenlive_id">qtblend</property>
    <property name="rect">00:00:29.120=0 0 1920 1080 1.000000;00:00:33.040=0 0 1920 1080 1.000000;00:00:33.160=0 51 1920 1080 1.000000;00:00:33.400=0 -1080 1920 1080 1.000000</property>
    <property name="rotation">00:00:29.120=0;00:00:33.040=0;00:00:33.160=0;00:00:33.400=0</property>
    <property name="compositing">0</property>
    <property name="distort">0</property>
    <property name="kdenlive:collapsed">0</property>
   </filter>
  </entry>
  <entry producer="producer548" in="00:00:00.000" out="00:00:01.680">
   <property name="kdenlive:id">819</property>
   <filter id="filter780" in="00:00:01.080" out="00:00:01.680">
    <property name="start">1</property>
    <property name="level">1</property>
    <property name="mlt_service">brightness</property>
    <property name="kdenlive_id">fade_to_black</property>
    <property name="alpha">00:00:00.000=1;00:00:00.600=0</property>
    <property name="kdenlive:collapsed">0</property>
   </filter>
   <filter id="filter781" out="00:00:00.600">
    <property name="start">1</property>
    <property name="level">1</property>
    <property name="mlt_service">brightness</property>
    <property name="kdenlive_id">fade_from_black</property>
    <property name="alpha">00:00:00.000=0;00:00:00.600=1</property>
    <property name="kdenlive:collapsed">0</property>
   </filter>
  </entry>
  <entry producer="chain267" in="00:02:56.880" out="00:03:17.000">
   <property name="kdenlive:id">818</property>
   <property name="kdenlive:activeeffect">2</property>
   <filter id="filter782">
    <property name="rotate_center">1</property>
    <property name="mlt_service">qtblend</property>
    <property name="kdenlive_id">qtblend</property>
    <property name="rect">00:02:56.880=320 180 1279 719 1.000000;00:02:57.360=0 0 1920 1080 1.000000</property>
    <property name="rotation">00:02:56.880=0;00:02:57.360=0</property>
    <property name="compositing">0</property>
    <property name="distort">0</property>
    <property name="kdenlive:collapsed">1</property>
   </filter>
   <filter id="filter783">
    <property name="hradius">00:02:56.880=1;00:02:57.360=60</property>
    <property name="vradius">00:02:56.880=1;00:02:57.360=60</property>
    <property name="mlt_service">box_blur</property>
    <property name="kdenlive_id">box_blur</property>
    <property name="kdenlive:collapsed">0</property>
   </filter>
   <filter id="filter784">
    <property name="start">1</property>
    <property name="level">00:02:56.880=1;00:02:57.360=0.23</property>
    <property name="mlt_service">brightness</property>
    <property name="kdenlive_id">brightness</property>
    <property name="kdenlive:collapsed">0</property>
   </filter>
   <filter id="filter785" in="00:03:16.080" out="00:03:17.000">
    <property name="start">1</property>
    <property name="level">1</property>
    <property name="mlt_service">brightness</property>
    <property name="kdenlive_id">fade_to_black</property>
    <property name="alpha">00:00:00.000=1;00:00:00.920=0</property>
   </filter>
  </entry>
  <blank length="00:00:01.040"/>
  <entry producer="producer549" in="00:00:00.000" out="00:00:09.320">
   <property name="kdenlive:id">826</property>
   <filter id="filter786">
    <property name="rotate_center">1</property>
    <property name="mlt_service">qtblend</property>
    <property name="kdenlive_id">qtblend</property>
    <property name="rect">00:00:00.000=950 535 19 10 1.000000;00:00:00.240=-96 -54 2112 1188 1.000000;00:00:00.360=0 0 1920 1080 1.000000;00:00:08.960=0 0 1920 1080 1.000000;00:00:09.080=0 67 1920 1080 1.000000;00:00:09.320=0 -1080 1920 1080 1.000000</property>
    <property name="rotation">00:00:00.000=0;00:00:00.240=0;00:00:00.360=0;00:00:08.960=0;00:00:09.080=0;00:00:09.320=0</property>
    <property name="compositing">0</property>
    <property name="distort">0</property>
    <property name="kdenlive:collapsed">0</property>
   </filter>
  </entry>
  <blank length="00:00:02.520"/>
  <entry producer="producer562" in="00:00:00.000" out="00:00:02.760">
   <property name="kdenlive:id">830</property>
   <property name="kdenlive:activeeffect">1</property>
   <filter id="filter787">
    <property name="rotate_center">1</property>
    <property name="mlt_service">qtblend</property>
    <property name="kdenlive_id">qtblend</property>
    <property name="rect">00:00:00.000=336 189 1248 702 1.000000;00:00:02.760=288 162 1344 756 1.000000</property>
    <property name="rotation">00:00:00.000=0;00:00:02.760=0</property>
    <property name="compositing">0</property>
    <property name="distort">0</property>
    <property name="kdenlive:collapsed">1</property>
   </filter>
   <filter id="filter788">
    <property name="rotate_center">1</property>
    <property name="mlt_service">qtblend</property>
    <property name="kdenlive_id">qtblend</property>
    <property name="rect">00:00:00.000=0 1080 1920 1080 1.000000;00:00:00.240=0 -47 1920 1080 1.000000;00:00:00.360=0 0 1920 1080 1.000000;00:00:02.400=0 0 1920 1080 1.000000;00:00:02.520=0 50 1920 1080 1.000000;00:00:02.760=0 -1080 1920 1080 1.000000</property>
    <property name="rotation">00:00:00.000=0;00:00:00.240=0;00:00:00.360=0;00:00:02.400=0;00:00:02.520=0;00:00:02.760=0</property>
    <property name="compositing">0</property>
    <property name="distort">0</property>
    <property name="kdenlive:collapsed">0</property>
   </filter>
  </entry>
  <entry producer="producer564" in="00:00:00.000" out="00:00:03.920">
   <property name="kdenlive:id">832</property>
   <property name="kdenlive:activeeffect">1</property>
   <filter id="filter789" out="00:00:00.600">
    <property name="start">1</property>
    <property name="level">1</property>
    <property name="mlt_service">brightness</property>
    <property name="kdenlive_id">fade_from_black</property>
    <property name="alpha">00:00:00.000=0;00:00:00.600=1</property>
    <property name="kdenlive:collapsed">0</property>
   </filter>
   <filter id="filter790" in="00:00:03.360" out="00:00:03.960">
    <property name="start">1</property>
    <property name="level">1</property>
    <property name="mlt_service">brightness</property>
    <property name="kdenlive_id">fade_to_black</property>
    <property name="alpha">00:00:00.000=1;00:00:00.600=0</property>
    <property name="kdenlive:collapsed">0</property>
   </filter>
  </entry>
  <entry producer="producer565" in="00:00:00.000" out="00:00:29.640">
   <property name="kdenlive:id">834</property>
   <filter id="filter791" out="00:00:00.600">
    <property name="start">1</property>
    <property name="level">1</property>
    <property name="mlt_service">brightness</property>
    <property name="kdenlive_id">fade_from_black</property>
    <property name="alpha">00:00:00.000=0;00:00:00.600=1</property>
   </filter>
   <filter id="filter792" in="00:00:29.080" out="00:00:29.680">
    <property name="start">1</property>
    <property name="level">1</property>
    <property name="mlt_service">brightness</property>
    <property name="kdenlive_id">fade_to_black</property>
    <property name="alpha">00:00:00.000=1;00:00:00.600=0</property>
   </filter>
  </entry>
  <blank length="00:00:01.080"/>
  <entry producer="producer448" in="00:00:00.000" out="00:00:03.480">
   <property name="kdenlive:id">657</property>
   <property name="kdenlive:activeeffect">1</property>
   <filter id="filter793">
    <property name="rotate_center">1</property>
    <property name="mlt_service">qtblend</property>
    <property name="kdenlive_id">qtblend</property>
    <property name="rect">00:00:00.000=0 65 1920 1080 1.000000;00:00:00.240=0 0 1920 1080 1.000000</property>
    <property name="rotation">00:00:00.000=0;00:00:00.240=0</property>
    <property name="compositing">0</property>
    <property name="distort">0</property>
    <property name="kdenlive:collapsed">0</property>
   </filter>
   <filter id="filter794" out="00:00:00.240">
    <property name="start">1</property>
    <property name="level">1</property>
    <property name="mlt_service">brightness</property>
    <property name="kdenlive_id">fade_from_black</property>
    <property name="alpha">00:00:00.000=0;00:00:00.240=1</property>
    <property name="kdenlive:collapsed">0</property>
   </filter>
  </entry>
  <blank length="00:00:06.040"/>
  <entry producer="producer567" in="00:00:00.000" out="00:00:06.080">
   <property name="kdenlive:id">835</property>
   <property name="kdenlive:activeeffect">3</property>
   <filter id="filter795">
    <property name="rotate_center">1</property>
    <property name="mlt_service">qtblend</property>
    <property name="kdenlive_id">qtblend</property>
    <property name="rect">00:00:00.000=0 65 1920 1080 1.000000;00:00:00.240=0 0 1920 1080 1.000000</property>
    <property name="rotation">00:00:00.000=0;00:00:00.240=0</property>
    <property name="compositing">0</property>
    <property name="distort">0</property>
    <property name="kdenlive:collapsed">1</property>
   </filter>
   <filter id="filter796" out="00:00:00.240">
    <property name="start">1</property>
    <property name="level">1</property>
    <property name="mlt_service">brightness</property>
    <property name="kdenlive_id">fade_from_black</property>
    <property name="alpha">00:00:00.000=0;00:00:00.240=1</property>
    <property name="kdenlive:collapsed">1</property>
   </filter>
   <filter id="filter797">
    <property name="rotate_center">1</property>
    <property name="mlt_service">qtblend</property>
    <property name="kdenlive_id">qtblend</property>
    <property name="rect">00:00:00.000=0 0 1920 1080 1.000000;00:00:05.760=0 0 1920 1080 1.000000;00:00:06.080=0 -50 1920 1080 1.000000</property>
    <property name="rotation">00:00:00.000=0;00:00:05.760=0;00:00:06.080=0</property>
    <property name="compositing">0</property>
    <property name="distort">0</property>
    <property name="kdenlive:collapsed">1</property>
   </filter>
   <filter id="filter798" in="00:00:05.760" out="00:00:06.080">
    <property name="start">1</property>
    <property name="level">1</property>
    <property name="mlt_service">brightness</property>
    <property name="kdenlive_id">fade_to_black</property>
    <property name="alpha">00:00:00.000=1;00:00:00.320=0</property>
    <property name="kdenlive:collapsed">0</property>
   </filter>
  </entry>
  <blank length="00:00:00.240"/>
  <entry producer="producer126" in="00:00:00.000" out="00:00:13.800">
   <property name="kdenlive:id">738</property>
   <filter id="filter799" out="00:00:00.600">
    <property name="start">1</property>
    <property name="level">1</property>
    <property name="mlt_service">brightness</property>
    <property name="kdenlive_id">fade_from_black</property>
    <property name="alpha">00:00:00.000=0;00:00:00.600=1</property>
    <property name="kdenlive:collapsed">0</property>
   </filter>
   <filter id="filter800" in="00:00:13.200" out="00:00:13.840">
    <property name="start">1</property>
    <property name="level">1</property>
    <property name="mlt_service">brightness</property>
    <property name="kdenlive_id">fade_to_black</property>
    <property name="alpha">00:00:00.000=1;00:00:00.640=0</property>
    <property name="kdenlive:collapsed">0</property>
   </filter>
  </entry>
  <entry producer="chain258" in="00:17:32.760" out="00:17:46.720">
   <property name="kdenlive:id">7</property>
   <property name="kdenlive:activeeffect">2</property>
   <filter id="filter801">
    <property name="rotate_center">1</property>
    <property name="mlt_service">qtblend</property>
    <property name="kdenlive_id">qtblend</property>
    <property name="rect">00:17:32.760=320 180 1279 719 1.000000;00:17:33.200=0 0 1920 1080 1.000000</property>
    <property name="rotation">00:17:32.760=0;00:17:33.200=0</property>
    <property name="compositing">0</property>
    <property name="distort">0</property>
    <property name="kdenlive:collapsed">1</property>
   </filter>
   <filter id="filter802">
    <property name="hradius">00:17:32.760=1;00:17:33.200=60</property>
    <property name="vradius">00:17:32.760=1;00:17:33.200=60</property>
    <property name="mlt_service">box_blur</property>
    <property name="kdenlive_id">box_blur</property>
    <property name="kdenlive:collapsed">0</property>
   </filter>
   <filter id="filter803">
    <property name="start">1</property>
    <property name="level">00:17:32.760=1;00:17:33.200=0.47</property>
    <property name="mlt_service">brightness</property>
    <property name="kdenlive_id">brightness</property>
    <property name="kdenlive:collapsed">0</property>
   </filter>
   <filter id="filter804" in="00:17:45.800" out="00:17:46.720">
    <property name="start">1</property>
    <property name="level">1</property>
    <property name="mlt_service">brightness</property>
    <property name="kdenlive_id">fade_to_black</property>
    <property name="alpha">0=1;-1=0</property>
   </filter>
  </entry>
  <blank length="00:00:01.200"/>
  <entry producer="producer568" in="00:00:00.000" out="00:00:01.880">
   <property name="kdenlive:id">839</property>
  </entry>
  <entry producer="producer572" in="00:00:00.000" out="00:00:01.880">
   <property name="kdenlive:id">840</property>
  </entry>
  <entry producer="producer576" in="00:00:00.000" out="00:00:02.720">
   <property name="kdenlive:id">841</property>
  </entry>
  <entry producer="producer577" in="00:00:00.000" out="00:00:05.880">
   <property name="kdenlive:id">842</property>
   <filter id="filter805" in="00:00:05.120" out="00:00:05.880">
    <property name="start">1</property>
    <property name="level">1</property>
    <property name="mlt_service">brightness</property>
    <property name="kdenlive_id">fade_to_black</property>
    <property name="alpha">00:00:00.000=1;00:00:00.760=0</property>
   </filter>
  </entry>
  <entry producer="producer126" in="00:00:00.000" out="00:00:09.400">
   <property name="kdenlive:id">738</property>
   <filter id="filter806" out="00:00:00.600">
    <property name="start">1</property>
    <property name="level">1</property>
    <property name="mlt_service">brightness</property>
    <property name="kdenlive_id">fade_from_black</property>
    <property name="alpha">00:00:00.000=0;00:00:00.600=1</property>
    <property name="kdenlive:collapsed">0</property>
   </filter>
   <filter id="filter807" in="00:00:08.800" out="00:00:09.440">
    <property name="start">1</property>
    <property name="level">1</property>
    <property name="mlt_service">brightness</property>
    <property name="kdenlive_id">fade_to_black</property>
    <property name="alpha">00:00:00.000=1;00:00:00.640=0</property>
    <property name="kdenlive:collapsed">0</property>
   </filter>
  </entry>
  <entry producer="chain258" in="00:17:28.360" out="00:18:40.400">
   <property name="kdenlive:id">7</property>
   <property name="kdenlive:activeeffect">-1</property>
   <filter id="filter808">
    <property name="rotate_center">1</property>
    <property name="mlt_service">qtblend</property>
    <property name="kdenlive_id">qtblend</property>
    <property name="rect">00:17:28.360=320 180 1279 719 1.000000;00:17:28.800=0 0 1920 1080 1.000000</property>
    <property name="rotation">00:17:28.360=0;00:17:28.800=0</property>
    <property name="compositing">0</property>
    <property name="distort">0</property>
    <property name="kdenlive:collapsed">1</property>
   </filter>
   <filter id="filter809">
    <property name="hradius">00:17:28.360=1;00:17:28.800=60</property>
    <property name="vradius">00:17:28.360=1;00:17:28.800=60</property>
    <property name="mlt_service">box_blur</property>
    <property name="kdenlive_id">box_blur</property>
    <property name="kdenlive:collapsed">1</property>
   </filter>
   <filter id="filter810">
    <property name="start">1</property>
    <property name="level">00:17:28.360=1;00:17:28.800=0.47</property>
    <property name="mlt_service">brightness</property>
    <property name="kdenlive_id">brightness</property>
    <property name="kdenlive:collapsed">1</property>
   </filter>
   <filter id="filter811" in="00:18:39.520" out="00:18:40.440">
    <property name="start">1</property>
    <property name="level">1</property>
    <property name="mlt_service">brightness</property>
    <property name="kdenlive_id">fade_to_black</property>
    <property name="alpha">00:00:00.000=1;00:00:00.920=0</property>
    <property name="kdenlive:collapsed">1</property>
   </filter>
  </entry>
  <blank length="00:00:02.600"/>
  <entry producer="producer578" in="00:00:00.000" out="00:00:07.440">
   <property name="kdenlive:id">845</property>
   <property name="kdenlive:activeeffect">1</property>
   <filter id="filter812">
    <property name="rotate_center">1</property>
    <property name="mlt_service">qtblend</property>
    <property name="kdenlive_id">qtblend</property>
    <property name="rect">00:00:00.000=2 1 1920 1080 1.000000;00:00:07.440=-141 -79 2206 1241 1.000000</property>
    <property name="rotation">00:00:00.000=0;00:00:07.440=0</property>
    <property name="compositing">0</property>
    <property name="distort">0</property>
    <property name="kdenlive:collapsed">1</property>
   </filter>
   <filter id="filter813">
    <property name="rotate_center">1</property>
    <property name="mlt_service">qtblend</property>
    <property name="kdenlive_id">qtblend</property>
    <property name="rect">00:00:00.000=950 535 19 10 1.000000;00:00:00.240=-96 -54 2112 1188 1.000000;00:00:00.360=0 0 1920 1080 1.000000;00:00:07.080=0 0 1920 1080 1.000000;00:00:07.200=0 54 1920 1080 1.000000;00:00:07.440=0 -1080 1920 1080 1.000000</property>
    <property name="rotation">00:00:00.000=0;00:00:00.240=0;00:00:00.360=0;00:00:07.080=0;00:00:07.200=0;00:00:07.440=0</property>
    <property name="compositing">0</property>
    <property name="distort">0</property>
    <property name="kdenlive:collapsed">0</property>
   </filter>
  </entry>
  <entry producer="producer594" in="00:00:00.000" out="00:00:14.560">
   <property name="kdenlive:id">847</property>
   <property name="kdenlive:activeeffect">1</property>
   <filter id="filter814" out="00:00:00.600">
    <property name="start">1</property>
    <property name="level">1</property>
    <property name="mlt_service">brightness</property>
    <property name="kdenlive_id">fade_from_black</property>
    <property name="alpha">00:00:00.000=0;00:00:00.600=1</property>
    <property name="kdenlive:collapsed">0</property>
   </filter>
   <filter id="filter815" in="00:00:14.000" out="00:00:14.600">
    <property name="start">1</property>
    <property name="level">1</property>
    <property name="mlt_service">brightness</property>
    <property name="kdenlive_id">fade_to_black</property>
    <property name="alpha">00:00:00.000=1;00:00:00.600=0</property>
    <property name="kdenlive:collapsed">0</property>
   </filter>
  </entry>
  <entry producer="producer602" in="00:00:00.000" out="00:00:21.320">
   <property name="kdenlive:id">848</property>
   <property name="kdenlive:activeeffect">1</property>
   <filter id="filter816" out="00:00:00.600">
    <property name="start">1</property>
    <property name="level">1</property>
    <property name="mlt_service">brightness</property>
    <property name="kdenlive_id">fade_from_black</property>
    <property name="alpha">00:00:00.000=0;00:00:00.600=1</property>
    <property name="kdenlive:collapsed">0</property>
   </filter>
   <filter id="filter817" in="00:00:20.760" out="00:00:21.360">
    <property name="start">1</property>
    <property name="level">1</property>
    <property name="mlt_service">brightness</property>
    <property name="kdenlive_id">fade_to_black</property>
    <property name="alpha">00:00:00.000=1;00:00:00.600=0</property>
    <property name="kdenlive:collapsed">0</property>
   </filter>
  </entry>
  <entry producer="producer603" in="00:00:00.000" out="00:00:12.200">
   <property name="kdenlive:id">850</property>
   <property name="kdenlive:activeeffect">0</property>
   <filter id="filter818" out="00:00:00.600">
    <property name="start">1</property>
    <property name="level">1</property>
    <property name="mlt_service">brightness</property>
    <property name="kdenlive_id">fade_from_black</property>
    <property name="alpha">00:00:00.000=0;00:00:00.600=1</property>
   </filter>
  </entry>
  <blank length="00:00:21.120"/>
  <entry producer="chain268" in="00:00:46.000" out="00:00:54.840">
   <property name="kdenlive:id">855</property>
   <property name="kdenlive:activeeffect">-1</property>
  </entry>
  <blank length="00:00:05.760"/>
  <entry producer="producer605" in="00:00:00.000" out="00:00:04.960">
   <property name="kdenlive:id">857</property>
   <property name="kdenlive:activeeffect">0</property>
   <filter id="filter819">
    <property name="rotate_center">1</property>
    <property name="mlt_service">qtblend</property>
    <property name="kdenlive_id">qtblend</property>
    <property name="rect">00:00:00.000=-1279 -433 4488 2525 1.000000;00:00:04.960=-1279 -535 4488 2525 1.000000</property>
    <property name="rotation">00:00:00.000=0;00:00:04.960=0</property>
    <property name="compositing">0</property>
    <property name="distort">0</property>
    <property name="kdenlive:collapsed">0</property>
   </filter>
  </entry>
  <blank length="00:00:21.640"/>
  <entry producer="producer606" in="00:00:00.000" out="00:00:00.600">
   <property name="kdenlive:id">861</property>
   <property name="kdenlive:activeeffect">0</property>
   <filter id="filter820">
    <property name="rotate_center">1</property>
    <property name="mlt_service">qtblend</property>
    <property name="kdenlive_id">qtblend</property>
    <property name="rect">00:00:00.000=-1753 -981 5440 3060 1.000000;00:00:00.600=-1515 -847 4963 2791 1.000000</property>
    <property name="rotation">00:00:00.000=0;00:00:00.600=0</property>
    <property name="compositing">0</property>
    <property name="distort">0</property>
    <property name="kdenlive:collapsed">0</property>
   </filter>
  </entry>
  <entry producer="producer616" in="00:00:00.000" out="00:00:00.400">
   <property name="kdenlive:id">864</property>
   <property name="kdenlive:activeeffect">0</property>
   <filter id="filter821">
    <property name="rotate_center">1</property>
    <property name="mlt_service">qtblend</property>
    <property name="kdenlive_id">qtblend</property>
    <property name="rect">00:00:00.000=-378 -54 2682 1508 1.000000;00:00:00.400=-284 -1 2492 1402 1.000000</property>
    <property name="rotation">00:00:00.000=0;00:00:00.400=0</property>
    <property name="compositing">0</property>
    <property name="distort">0</property>
    <property name="kdenlive:collapsed">0</property>
   </filter>
  </entry>
  <entry producer="producer618" in="00:00:00.000" out="00:00:00.480">
   <property name="kdenlive:id">865</property>
   <property name="kdenlive:activeeffect">0</property>
   <filter id="filter822">
    <property name="rotate_center">1</property>
    <property name="mlt_service">qtblend</property>
    <property name="kdenlive_id">qtblend</property>
    <property name="rect">00:00:00.000=-331 -64 2586 1455 1.000000;00:00:00.480=-237 -11 2397 1348 1.000000</property>
    <property name="rotation">00:00:00.000=0;00:00:00.480=0</property>
    <property name="compositing">0</property>
    <property name="distort">0</property>
    <property name="kdenlive:collapsed">0</property>
   </filter>
  </entry>
  <entry producer="producer619" in="00:00:00.000" out="00:00:02.560">
   <property name="kdenlive:id">867</property>
   <property name="kdenlive:activeeffect">-1</property>
   <filter id="filter823">
    <property name="rotate_center">1</property>
    <property name="mlt_service">qtblend</property>
    <property name="kdenlive_id">qtblend</property>
    <property name="rect">00:00:00.000=-1232 -250 4394 2471 1.000000;00:00:02.560=-1232 -390 4394 2471 1.000000</property>
    <property name="rotation">00:00:00.000=0;00:00:02.560=0</property>
    <property name="compositing">0</property>
    <property name="distort">0</property>
    <property name="kdenlive:collapsed">1</property>
   </filter>
   <filter id="filter824" in="00:00:02.000" out="00:00:02.560">
    <property name="start">1</property>
    <property name="level">1</property>
    <property name="mlt_service">brightness</property>
    <property name="kdenlive_id">fade_to_black</property>
    <property name="alpha">00:00:00.000=1;00:00:00.560=0</property>
   </filter>
  </entry>
  <blank length="00:00:05.080"/>
  <entry producer="chain269" in="00:00:12.480" out="00:00:14.800">
   <property name="kdenlive:id">869</property>
   <property name="kdenlive:activeeffect">0</property>
   <filter id="filter825">
    <property name="rotate_center">1</property>
    <property name="mlt_service">qtblend</property>
    <property name="kdenlive_id">qtblend</property>
    <property name="rect">00:00:12.480=-331 -186 2587 1455 1.000000</property>
    <property name="rotation">00:00:12.480=0</property>
    <property name="compositing">0</property>
    <property name="distort">0</property>
    <property name="kdenlive:collapsed">0</property>
   </filter>
  </entry>
  <blank length="00:00:00.760"/>
  <entry producer="chain270" in="00:06:20.640" out="00:06:28.720">
   <property name="kdenlive:id">871</property>
   <property name="kdenlive:activeeffect">0</property>
   <filter id="filter826">
    <property name="rotate_center">1</property>
    <property name="mlt_service">qtblend</property>
    <property name="kdenlive_id">qtblend</property>
    <property name="rect">00:06:20.640=-331 -186 2587 1455 1.000000</property>
    <property name="rotation">00:06:20.640=0</property>
    <property name="compositing">0</property>
    <property name="distort">0</property>
    <property name="kdenlive:collapsed">0</property>
   </filter>
  </entry>
  <entry producer="producer602" in="00:00:00.000" out="00:00:14.600">
   <property name="kdenlive:id">848</property>
   <filter id="filter827" out="00:00:00.600">
    <property name="start">1</property>
    <property name="level">1</property>
    <property name="mlt_service">brightness</property>
    <property name="kdenlive_id">fade_from_black</property>
    <property name="alpha">00:00:00.000=0;00:00:00.600=1</property>
    <property name="kdenlive:collapsed">0</property>
   </filter>
   <filter id="filter828" in="00:00:14.000" out="00:00:14.640">
    <property name="start">1</property>
    <property name="level">1</property>
    <property name="mlt_service">brightness</property>
    <property name="kdenlive_id">fade_to_black</property>
    <property name="alpha">00:00:00.000=1;00:00:00.640=0</property>
    <property name="kdenlive:collapsed">0</property>
   </filter>
  </entry>
  <entry producer="producer621" in="00:00:00.000" out="00:00:09.640">
   <property name="kdenlive:id">885</property>
   <filter id="filter829" out="00:00:00.600">
    <property name="start">1</property>
    <property name="level">1</property>
    <property name="mlt_service">brightness</property>
    <property name="kdenlive_id">fade_from_black</property>
    <property name="alpha">00:00:00.000=0;00:00:00.600=1</property>
    <property name="kdenlive:collapsed">0</property>
   </filter>
   <filter id="filter830" in="00:00:09.040" out="00:00:09.680">
    <property name="start">1</property>
    <property name="level">1</property>
    <property name="mlt_service">brightness</property>
    <property name="kdenlive_id">fade_to_black</property>
    <property name="alpha">00:00:00.000=1;00:00:00.640=0</property>
    <property name="kdenlive:collapsed">0</property>
   </filter>
  </entry>
  <entry producer="chain217" in="00:01:25.120" out="00:01:35.080">
   <property name="kdenlive:id">421</property>
   <property name="kdenlive:activeeffect">0</property>
   <filter id="filter831">
    <property name="rotate_center">1</property>
    <property name="mlt_service">qtblend</property>
    <property name="kdenlive_id">qtblend</property>
    <property name="rect">00:01:25.120=0 1080 1920 1080 1.000000;00:01:25.360=0 -51 1920 1080 1.000000;00:01:25.480=0 0 1920 1080 1.000000</property>
    <property name="rotation">00:01:25.120=0;00:01:25.360=0;00:01:25.480=0</property>
    <property name="compositing">0</property>
    <property name="distort">0</property>
    <property name="kdenlive:collapsed">0</property>
   </filter>
   <filter id="filter832" in="00:01:34.520" out="00:01:35.120">
    <property name="start">1</property>
    <property name="level">1</property>
    <property name="mlt_service">brightness</property>
    <property name="kdenlive_id">fade_to_black</property>
    <property name="alpha">00:00:00.000=1;00:00:00.600=0</property>
   </filter>
  </entry>
  <blank length="00:00:00.920"/>
  <entry producer="producer622" in="00:00:00.000" out="00:00:10.000">
   <property name="kdenlive:id">887</property>
   <property name="kdenlive:activeeffect">1</property>
   <filter id="filter833">
    <property name="rotate_center">1</property>
    <property name="mlt_service">qtblend</property>
    <property name="kdenlive_id">qtblend</property>
    <property name="rect">00:00:00.000=192 108 1536 864 1.000000;00:00:10.000=144 81 1632 918 1.000000</property>
    <property name="rotation">00:00:00.000=0;00:00:10.000=0</property>
    <property name="compositing">0</property>
    <property name="distort">0</property>
    <property name="kdenlive:collapsed">1</property>
   </filter>
   <filter id="filter834">
    <property name="rotate_center">1</property>
    <property name="mlt_service">qtblend</property>
    <property name="kdenlive_id">qtblend</property>
    <property name="rect">00:00:00.000=0 1080 1920 1080 1.000000;00:00:00.240=0 -79 1920 1080 1.000000;00:00:00.360=0 0 1920 1080 1.000000;00:00:09.640=0 0 1920 1080 1.000000;00:00:09.760=0 72 1920 1080 1.000000;00:00:10.000=0 -1080 1920 1080 1.000000</property>
    <property name="rotation">00:00:00.000=0;00:00:00.240=0;00:00:00.360=0;00:00:09.640=0;00:00:09.760=0;00:00:10.000=0</property>
    <property name="compositing">0</property>
    <property name="distort">0</property>
    <property name="kdenlive:collapsed">0</property>
   </filter>
  </entry>
  <entry producer="producer623" in="00:00:00.000" out="00:00:04.560">
   <property name="kdenlive:id">889</property>
   <filter id="filter835" out="00:00:00.600">
    <property name="start">1</property>
    <property name="level">1</property>
    <property name="mlt_service">brightness</property>
    <property name="kdenlive_id">fade_from_black</property>
    <property name="alpha">00:00:00.000=0;00:00:00.600=1</property>
    <property name="kdenlive:collapsed">0</property>
   </filter>
   <filter id="filter836" in="00:00:04.000" out="00:00:04.600">
    <property name="start">1</property>
    <property name="level">1</property>
    <property name="mlt_service">brightness</property>
    <property name="kdenlive_id">fade_to_black</property>
    <property name="alpha">00:00:00.000=1;00:00:00.600=0</property>
    <property name="kdenlive:collapsed">0</property>
   </filter>
  </entry>
  <entry producer="chain211" in="01:13:25.480" out="01:14:02.360">
   <property name="kdenlive:id">551</property>
   <property name="kdenlive:activeeffect">3</property>
   <filter id="filter837">
    <property name="mlt_service">crop</property>
    <property name="kdenlive_id">crop</property>
    <property name="top">540</property>
    <property name="left">320</property>
    <property name="bottom">180</property>
    <property name="right">959</property>
    <property name="center">0</property>
    <property name="center_bias">0</property>
    <property name="use_profile">1</property>
    <property name="kdenlive:collapsed">1</property>
   </filter>
   <filter id="filter838">
    <property name="rotate_center">1</property>
    <property name="mlt_service">qtblend</property>
    <property name="kdenlive_id">qtblend</property>
    <property name="rect">01:13:25.480=320 180 1279 719 1.000000;01:13:25.960=0 0 1920 1080 1.000000</property>
    <property name="rotation">01:13:25.480=0;01:13:25.960=0</property>
    <property name="compositing">0</property>
    <property name="distort">0</property>
    <property name="kdenlive:collapsed">1</property>
   </filter>
   <filter id="filter839">
    <property name="hradius">01:13:25.480=1;01:13:25.960=60</property>
    <property name="vradius">01:13:25.480=1;01:13:25.960=60</property>
    <property name="mlt_service">box_blur</property>
    <property name="kdenlive_id">box_blur</property>
    <property name="kdenlive:collapsed">0</property>
   </filter>
   <filter id="filter840">
    <property name="start">1</property>
    <property name="level">01:13:25.480=1;01:13:25.960=0.36</property>
    <property name="mlt_service">brightness</property>
    <property name="kdenlive_id">brightness</property>
    <property name="kdenlive:collapsed">0</property>
   </filter>
   <filter id="filter841" in="01:14:01.440" out="01:14:02.360">
    <property name="start">1</property>
    <property name="level">1</property>
    <property name="mlt_service">brightness</property>
    <property name="kdenlive_id">fade_to_black</property>
    <property name="alpha">00:00:00.000=1;00:00:00.920=0</property>
   </filter>
  </entry>
 </playlist>
 <playlist id="playlist13"/>
 <tractor id="tractor6" in="00:00:00.000" out="01:12:45.280">
  <property name="kdenlive:trackheight">67</property>
  <property name="kdenlive:timeline_active">1</property>
  <property name="kdenlive:collapsed">0</property>
  <property name="kdenlive:thumbs_format"/>
  <property name="kdenlive:audio_rec"/>
  <track hide="audio" producer="playlist12"/>
  <track hide="audio" producer="playlist13"/>
 </tractor>
 <chain id="chain271" out="00:47:30.880">
  <property name="length">71273</property>
  <property name="eof">pause</property>
  <property name="resource">b-roll/The End of Artï¼š An Argument Against Image AIs [tjSxFAGP9Ss].webm</property>
  <property name="mlt_service">avformat-novalidate</property>
  <property name="seekable">1</property>
  <property name="format">3</property>
  <property name="audio_index">1</property>
  <property name="video_index">0</property>
  <property name="kdenlive:clipname"/>
  <property name="kdenlive:clip_type">0</property>
  <property name="kdenlive:folderid">-1</property>
  <property name="kdenlive:id">232</property>
  <property name="kdenlive:file_size">4260243058</property>
  <property name="kdenlive:file_hash">844407801bc8596608a92a0648bd1db9</property>
  <property name="kdenlive:audio_max1">238</property>
  <property name="meta.media.nb_streams">2</property>
  <property name="meta.media.0.stream.type">video</property>
  <property name="meta.media.0.stream.frame_rate">29.97</property>
  <property name="meta.media.0.stream.sample_aspect_ratio">1</property>
  <property name="meta.media.0.codec.width">3840</property>
  <property name="meta.media.0.codec.height">2160</property>
  <property name="meta.media.0.codec.rotate">0</property>
  <property name="meta.media.0.codec.pix_fmt">yuv420p</property>
  <property name="meta.media.0.codec.sample_aspect_ratio">0</property>
  <property name="meta.media.0.codec.colorspace">709</property>
  <property name="meta.media.0.codec.color_trc">1</property>
  <property name="meta.media.0.codec.name">vp9</property>
  <property name="meta.media.0.codec.long_name">Google VP9</property>
  <property name="meta.media.0.codec.bit_rate">0</property>
  <property name="meta.attr.0.stream.language.markup">eng</property>
  <property name="meta.attr.0.stream.DURATION.markup">00:47:30.881000000</property>
  <property name="meta.media.1.stream.type">audio</property>
  <property name="meta.media.1.codec.sample_fmt">fltp</property>
  <property name="meta.media.1.codec.sample_rate">48000</property>
  <property name="meta.media.1.codec.channels">2</property>
  <property name="meta.media.1.codec.name">opus</property>
  <property name="meta.media.1.codec.long_name">Opus</property>
  <property name="meta.media.1.codec.bit_rate">0</property>
  <property name="meta.attr.1.stream.language.markup">eng</property>
  <property name="meta.attr.1.stream.DURATION.markup">00:47:30.921000000</property>
  <property name="meta.attr.ENCODER.markup">Lavf59.27.100</property>
  <property name="meta.media.sample_aspect_num">1</property>
  <property name="meta.media.sample_aspect_den">1</property>
  <property name="meta.media.frame_rate_num">30000</property>
  <property name="meta.media.frame_rate_den">1001</property>
  <property name="meta.media.colorspace">709</property>
  <property name="meta.media.color_trc">1</property>
  <property name="meta.media.has_b_frames">0</property>
  <property name="meta.media.width">3840</property>
  <property name="meta.media.height">2160</property>
  <property name="meta.media.color_range">mpeg</property>
  <property name="xml">was here</property>
  <property name="meta.media.top_field_first">0</property>
  <property name="meta.media.progressive">1</property>
  <property name="set.test_audio">1</property>
  <property name="set.test_image">0</property>
  <property name="mute_on_pause">1</property>
 </chain>
 <chain id="chain272" out="00:01:29.640">
  <property name="length">2242</property>
  <property name="eof">pause</property>
  <property name="resource">/home/liquidzulu/Videos/yt/b-roll/Dogs playing tug of war [3qRMWoMJfG0].webm</property>
  <property name="mlt_service">avformat-novalidate</property>
  <property name="seekable">1</property>
  <property name="format">3</property>
  <property name="audio_index">-1</property>
  <property name="video_index">0</property>
  <property name="kdenlive:clipname"/>
  <property name="kdenlive:clip_type">0</property>
  <property name="kdenlive:folderid">-1</property>
  <property name="kdenlive:id">239</property>
  <property name="kdenlive:file_size">31050254</property>
  <property name="kdenlive:file_hash">18193cf220b6b0e116e9c2263fcdd96f</property>
  <property name="kdenlive:audio_max1">199</property>
  <property name="kdenlive:active_streams">-1</property>
  <property name="set.test_audio">1</property>
  <property name="meta.media.nb_streams">2</property>
  <property name="meta.media.0.stream.type">video</property>
  <property name="meta.media.0.stream.frame_rate">29.945</property>
  <property name="meta.media.0.stream.sample_aspect_ratio">1</property>
  <property name="meta.media.0.codec.width">1920</property>
  <property name="meta.media.0.codec.height">1080</property>
  <property name="meta.media.0.codec.rotate">0</property>
  <property name="meta.media.0.codec.pix_fmt">yuv420p</property>
  <property name="meta.media.0.codec.sample_aspect_ratio">0</property>
  <property name="meta.media.0.codec.colorspace">709</property>
  <property name="meta.media.0.codec.color_trc">1</property>
  <property name="meta.media.0.codec.name">vp9</property>
  <property name="meta.media.0.codec.long_name">Google VP9</property>
  <property name="meta.media.0.codec.bit_rate">0</property>
  <property name="meta.attr.0.stream.language.markup">eng</property>
  <property name="meta.attr.0.stream.DURATION.markup">00:01:29.530000000</property>
  <property name="meta.media.1.stream.type">audio</property>
  <property name="meta.media.1.codec.sample_fmt">fltp</property>
  <property name="meta.media.1.codec.sample_rate">48000</property>
  <property name="meta.media.1.codec.channels">2</property>
  <property name="meta.media.1.codec.name">opus</property>
  <property name="meta.media.1.codec.long_name">Opus</property>
  <property name="meta.media.1.codec.bit_rate">0</property>
  <property name="meta.attr.1.stream.language.markup">eng</property>
  <property name="meta.attr.1.stream.DURATION.markup">00:01:29.661000000</property>
  <property name="meta.attr.ENCODER.markup">Lavf59.27.100</property>
  <property name="meta.media.sample_aspect_num">1</property>
  <property name="meta.media.sample_aspect_den">1</property>
  <property name="meta.media.frame_rate_num">5989</property>
  <property name="meta.media.frame_rate_den">200</property>
  <property name="meta.media.colorspace">709</property>
  <property name="meta.media.color_trc">1</property>
  <property name="meta.media.has_b_frames">0</property>
  <property name="meta.media.width">1920</property>
  <property name="meta.media.height">1080</property>
  <property name="meta.media.color_range">mpeg</property>
  <property name="xml">was here</property>
  <property name="meta.media.top_field_first">0</property>
  <property name="meta.media.progressive">1</property>
  <property name="set.test_image">0</property>
  <property name="mute_on_pause">1</property>
 </chain>
 <chain id="chain273" out="00:16:50.080">
  <property name="length">25253</property>
  <property name="eof">pause</property>
  <property name="resource">b-roll/An Encounter - Digital painting timelapse [4gJPc8PnpbI].webm</property>
  <property name="mlt_service">avformat-novalidate</property>
  <property name="seekable">1</property>
  <property name="format">3</property>
  <property name="audio_index">-1</property>
  <property name="video_index">0</property>
  <property name="kdenlive:clipname"/>
  <property name="kdenlive:clip_type">0</property>
  <property name="kdenlive:folderid">-1</property>
  <property name="kdenlive:id">243</property>
  <property name="kdenlive:file_size">76022954</property>
  <property name="kdenlive:file_hash">b433d0e8ad130da871be5c6d2e296959</property>
  <property name="kdenlive:audio_max1">237</property>
  <property name="kdenlive:active_streams">-1</property>
  <property name="set.test_audio">1</property>
  <property name="meta.media.nb_streams">2</property>
  <property name="meta.media.0.stream.type">video</property>
  <property name="meta.media.0.stream.frame_rate">29.97</property>
  <property name="meta.media.0.stream.sample_aspect_ratio">1</property>
  <property name="meta.media.0.codec.width">1920</property>
  <property name="meta.media.0.codec.height">1080</property>
  <property name="meta.media.0.codec.rotate">0</property>
  <property name="meta.media.0.codec.pix_fmt">yuv420p</property>
  <property name="meta.media.0.codec.sample_aspect_ratio">0</property>
  <property name="meta.media.0.codec.colorspace">709</property>
  <property name="meta.media.0.codec.color_trc">1</property>
  <property name="meta.media.0.codec.name">vp9</property>
  <property name="meta.media.0.codec.long_name">Google VP9</property>
  <property name="meta.media.0.codec.bit_rate">0</property>
  <property name="meta.attr.0.stream.language.markup">eng</property>
  <property name="meta.attr.0.stream.DURATION.markup">00:16:50.075000000</property>
  <property name="meta.media.1.stream.type">audio</property>
  <property name="meta.media.1.codec.sample_fmt">fltp</property>
  <property name="meta.media.1.codec.sample_rate">48000</property>
  <property name="meta.media.1.codec.channels">2</property>
  <property name="meta.media.1.codec.name">opus</property>
  <property name="meta.media.1.codec.long_name">Opus</property>
  <property name="meta.media.1.codec.bit_rate">0</property>
  <property name="meta.attr.1.stream.language.markup">eng</property>
  <property name="meta.attr.1.stream.DURATION.markup">00:16:50.101000000</property>
  <property name="meta.attr.ENCODER.markup">Lavf59.27.100</property>
  <property name="meta.media.sample_aspect_num">1</property>
  <property name="meta.media.sample_aspect_den">1</property>
  <property name="meta.media.frame_rate_num">30000</property>
  <property name="meta.media.frame_rate_den">1001</property>
  <property name="meta.media.colorspace">709</property>
  <property name="meta.media.color_trc">1</property>
  <property name="meta.media.has_b_frames">0</property>
  <property name="meta.media.width">1920</property>
  <property name="meta.media.height">1080</property>
  <property name="meta.media.color_range">mpeg</property>
  <property name="xml">was here</property>
  <property name="meta.media.top_field_first">0</property>
  <property name="meta.media.progressive">1</property>
  <property name="set.test_image">0</property>
  <property name="mute_on_pause">1</property>
 </chain>
 <chain id="chain274" out="00:00:49.880">
  <property name="length">1248</property>
  <property name="eof">pause</property>
  <property name="resource">b-roll/VertyðŸš² - I think this is my favourite clip from the hbomberguy video lmao [1731756150864158753].mp4</property>
  <property name="mlt_service">avformat-novalidate</property>
  <property name="seekable">1</property>
  <property name="format">3</property>
  <property name="audio_index">-1</property>
  <property name="video_index">0</property>
  <property name="kdenlive:clipname"/>
  <property name="kdenlive:clip_type">0</property>
  <property name="kdenlive:folderid">-1</property>
  <property name="kdenlive:id">245</property>
  <property name="kdenlive:file_size">7780789</property>
  <property name="kdenlive:file_hash">7be921498a4391587a1821cb56fdcfc8</property>
  <property name="kdenlive:audio_max1">207</property>
  <property name="kdenlive:active_streams">-1</property>
  <property name="set.test_audio">1</property>
  <property name="meta.media.nb_streams">2</property>
  <property name="meta.media.0.stream.type">video</property>
  <property name="meta.media.0.stream.frame_rate">30</property>
  <property name="meta.media.0.stream.sample_aspect_ratio">1</property>
  <property name="meta.media.0.codec.width">1920</property>
  <property name="meta.media.0.codec.height">1080</property>
  <property name="meta.media.0.codec.rotate">0</property>
  <property name="meta.media.0.codec.pix_fmt">yuv420p</property>
  <property name="meta.media.0.codec.sample_aspect_ratio">0</property>
  <property name="meta.media.0.codec.colorspace">709</property>
  <property name="meta.media.0.codec.name">h264</property>
  <property name="meta.media.0.codec.long_name">H.264 / AVC / MPEG-4 AVC / MPEG-4 part 10</property>
  <property name="meta.media.0.codec.bit_rate">1114866</property>
  <property name="meta.attr.0.stream.handler_name.markup">Twitter-vork muxer</property>
  <property name="meta.attr.0.stream.vendor_id.markup">[0][0][0][0]</property>
  <property name="meta.media.1.stream.type">audio</property>
  <property name="meta.media.1.codec.sample_fmt">fltp</property>
  <property name="meta.media.1.codec.sample_rate">44100</property>
  <property name="meta.media.1.codec.channels">2</property>
  <property name="meta.media.1.codec.name">aac</property>
  <property name="meta.media.1.codec.long_name">AAC (Advanced Audio Coding)</property>
  <property name="meta.media.1.codec.bit_rate">128000</property>
  <property name="meta.attr.1.stream.handler_name.markup">Twitter-vork muxer</property>
  <property name="meta.attr.1.stream.vendor_id.markup">[0][0][0][0]</property>
  <property name="meta.attr.major_brand.markup">iso5</property>
  <property name="meta.attr.minor_version.markup">512</property>
  <property name="meta.attr.compatible_brands.markup">iso6mp41</property>
  <property name="meta.media.sample_aspect_num">1</property>
  <property name="meta.media.sample_aspect_den">1</property>
  <property name="meta.media.frame_rate_num">30</property>
  <property name="meta.media.frame_rate_den">1</property>
  <property name="meta.media.colorspace">709</property>
  <property name="meta.media.color_trc">2</property>
  <property name="meta.media.has_b_frames">2</property>
  <property name="meta.media.width">1920</property>
  <property name="meta.media.height">1080</property>
  <property name="meta.media.color_range">mpeg</property>
  <property name="xml">was here</property>
  <property name="meta.media.top_field_first">0</property>
  <property name="meta.media.progressive">1</property>
  <property name="set.test_image">0</property>
  <property name="mute_on_pause">1</property>
 </chain>
 <producer id="producer624" in="00:00:00.000" out="00:00:08.520">
  <property name="length">215</property>
  <property name="eof">pause</property>
  <property name="resource">2.000000:videos/search for orc.mkv</property>
  <property name="aspect_ratio">1</property>
  <property name="meta.media.nb_streams">2</property>
  <property name="meta.media.0.stream.type">video</property>
  <property name="meta.media.0.stream.frame_rate">60</property>
  <property name="meta.media.0.stream.sample_aspect_ratio">0</property>
  <property name="meta.media.0.codec.width">1920</property>
  <property name="meta.media.0.codec.height">1080</property>
  <property name="meta.media.0.codec.rotate">0</property>
  <property name="meta.media.0.codec.pix_fmt">yuv420p</property>
  <property name="meta.media.0.codec.sample_aspect_ratio">1</property>
  <property name="meta.media.0.codec.colorspace">709</property>
  <property name="meta.media.0.codec.color_trc">1</property>
  <property name="meta.media.0.codec.name">h264</property>
  <property name="meta.media.0.codec.long_name">H.264 / AVC / MPEG-4 AVC / MPEG-4 part 10</property>
  <property name="meta.media.0.codec.bit_rate">0</property>
  <property name="meta.attr.0.stream.DURATION.markup">00:00:17.150000000</property>
  <property name="meta.media.1.stream.type">audio</property>
  <property name="meta.media.1.codec.sample_fmt">fltp</property>
  <property name="meta.media.1.codec.sample_rate">48000</property>
  <property name="meta.media.1.codec.channels">1</property>
  <property name="meta.media.1.codec.name">aac</property>
  <property name="meta.media.1.codec.long_name">AAC (Advanced Audio Coding)</property>
  <property name="meta.media.1.codec.bit_rate">0</property>
  <property name="meta.attr.1.stream.title.markup">simple_aac_recording</property>
  <property name="meta.attr.1.stream.DURATION.markup">00:00:17.130000000</property>
  <property name="meta.attr.ENCODER.markup">Lavf59.27.100</property>
  <property name="seekable">1</property>
  <property name="meta.media.sample_aspect_num">1</property>
  <property name="meta.media.sample_aspect_den">1</property>
  <property name="format">3</property>
  <property name="audio_index">-1</property>
  <property name="video_index">0</property>
  <property name="mute_on_pause">1</property>
  <property name="warp_speed">2</property>
  <property name="warp_resource">videos/search for orc.mkv</property>
  <property name="mlt_service">timewarp</property>
  <property name="set.test_audio">1</property>
  <property name="set.test_image">0</property>
  <property name="kdenlive:id">266</property>
  <property name="warp_pitch">0</property>
  <property name="meta.media.frame_rate_num">60</property>
  <property name="meta.media.frame_rate_den">1</property>
  <property name="meta.media.colorspace">709</property>
  <property name="meta.media.color_trc">1</property>
  <property name="meta.media.has_b_frames">2</property>
  <property name="meta.media.width">1920</property>
  <property name="meta.media.height">1080</property>
  <property name="meta.media.color_range">mpeg</property>
  <property name="meta.media.top_field_first">0</property>
  <property name="meta.media.progressive">1</property>
 </producer>
 <producer id="producer625" in="00:00:00.000" out="00:00:19.680">
  <property name="length">00:00:19.720</property>
  <property name="eof">pause</property>
  <property name="resource">/home/liquidzulu/Pictures/yt/animation/output/project/footnotes/footnote-1/.all.png</property>
  <property name="ttl">1</property>
  <property name="aspect_ratio">1</property>
  <property name="progressive">1</property>
  <property name="seekable">1</property>
  <property name="format">2</property>
  <property name="meta.media.width">1920</property>
  <property name="meta.media.height">1080</property>
  <property name="mlt_service">qimage</property>
  <property name="kdenlive:clipname">footnote-1</property>
  <property name="low-pass">0</property>
  <property name="animation"/>
  <property name="luma_file"/>
  <property name="luma_duration">25</property>
  <property name="fade">0</property>
  <property name="crop">0</property>
  <property name="softness">0</property>
  <property name="loop">0</property>
  <property name="kdenlive:duration">00:00:19:18</property>
  <property name="kdenlive:folderid">273</property>
  <property name="kdenlive:id">272</property>
  <property name="kdenlive:clip_type">2</property>
  <property name="kdenlive:file_hash">685891fd34b496a219b70715d70af1f2</property>
  <property name="xml">was here</property>
  <property name="set.test_audio">1</property>
  <property name="set.test_image">0</property>
 </producer>
 <chain id="chain285" out="00:00:13.160">
  <property name="length">330</property>
  <property name="eof">pause</property>
  <property name="resource">b-roll/mx. curio (digimon era) - Finally. An automatic collage machine. [1723988473193893888].mp4</property>
  <property name="mlt_service">avformat-novalidate</property>
  <property name="seekable">1</property>
  <property name="format">3</property>
  <property name="audio_index">-1</property>
  <property name="video_index">0</property>
  <property name="kdenlive:clipname"/>
  <property name="kdenlive:clip_type">2</property>
  <property name="kdenlive:folderid">14</property>
  <property name="kdenlive:id">11</property>
  <property name="kdenlive:file_size">220856</property>
  <property name="kdenlive:file_hash">1bbeb0596e5b52fc963b4740cf4700cd</property>
  <property name="meta.media.nb_streams">1</property>
  <property name="meta.media.0.stream.type">video</property>
  <property name="meta.media.0.stream.frame_rate">10</property>
  <property name="meta.media.0.stream.sample_aspect_ratio">1</property>
  <property name="meta.media.0.codec.width">534</property>
  <property name="meta.media.0.codec.height">534</property>
  <property name="meta.media.0.codec.rotate">0</property>
  <property name="meta.media.0.codec.pix_fmt">yuv420p</property>
  <property name="meta.media.0.codec.sample_aspect_ratio">0</property>
  <property name="meta.media.0.codec.colorspace">601</property>
  <property name="meta.media.0.codec.name">h264</property>
  <property name="meta.media.0.codec.long_name">H.264 / AVC / MPEG-4 AVC / MPEG-4 part 10</property>
  <property name="meta.media.0.codec.bit_rate">132447</property>
  <property name="meta.attr.0.stream.handler_name.markup">Twitter-vork muxer</property>
  <property name="meta.attr.0.stream.vendor_id.markup">[0][0][0][0]</property>
  <property name="meta.attr.major_brand.markup">iso5</property>
  <property name="meta.attr.minor_version.markup">512</property>
  <property name="meta.attr.compatible_brands.markup">iso6mp41</property>
  <property name="meta.media.sample_aspect_num">1</property>
  <property name="meta.media.sample_aspect_den">1</property>
  <property name="meta.media.frame_rate_num">10</property>
  <property name="meta.media.frame_rate_den">1</property>
  <property name="meta.media.colorspace">601</property>
  <property name="meta.media.color_trc">2</property>
  <property name="meta.media.has_b_frames">2</property>
  <property name="meta.media.width">534</property>
  <property name="meta.media.height">534</property>
  <property name="meta.media.color_range">mpeg</property>
  <property name="xml">was here</property>
  <property name="meta.media.top_field_first">0</property>
  <property name="meta.media.progressive">1</property>
  <property name="set.test_audio">1</property>
  <property name="set.test_image">0</property>
  <property name="mute_on_pause">1</property>
 </chain>
 <chain id="chain286" out="00:00:09.960">
  <property name="length">250</property>
  <property name="eof">pause</property>
  <property name="resource">animation/output/neural-network.mp4</property>
  <property name="mlt_service">avformat-novalidate</property>
  <property name="seekable">1</property>
  <property name="format">3</property>
  <property name="audio_index">-1</property>
  <property name="video_index">0</property>
  <property name="kdenlive:clipname"/>
  <property name="kdenlive:clip_type">2</property>
  <property name="kdenlive:folderid">218</property>
  <property name="kdenlive:id">219</property>
  <property name="kdenlive:file_size">6473614</property>
  <property name="kdenlive:file_hash">0c541f0201174e70bf3bbaa9145dbc9b</property>
  <property name="meta.media.nb_streams">1</property>
  <property name="meta.media.0.stream.type">video</property>
  <property name="meta.media.0.stream.frame_rate">60</property>
  <property name="meta.media.0.stream.sample_aspect_ratio">0</property>
  <property name="meta.media.0.codec.width">1920</property>
  <property name="meta.media.0.codec.height">1080</property>
  <property name="meta.media.0.codec.rotate">0</property>
  <property name="meta.media.0.codec.pix_fmt">yuv420p</property>
  <property name="meta.media.0.codec.sample_aspect_ratio">0</property>
  <property name="meta.media.0.codec.colorspace">709</property>
  <property name="meta.media.0.codec.name">h264</property>
  <property name="meta.media.0.codec.long_name">H.264 / AVC / MPEG-4 AVC / MPEG-4 part 10</property>
  <property name="meta.media.0.codec.bit_rate">5163776</property>
  <property name="meta.attr.0.stream.handler_name.markup">VideoHandler</property>
  <property name="meta.attr.0.stream.vendor_id.markup">[0][0][0][0]</property>
  <property name="meta.attr.major_brand.markup">isom</property>
  <property name="meta.attr.minor_version.markup">512</property>
  <property name="meta.attr.compatible_brands.markup">isomiso2avc1mp41</property>
  <property name="meta.attr.encoder.markup">Lavf58.24.100</property>
  <property name="meta.media.sample_aspect_num">1</property>
  <property name="meta.media.sample_aspect_den">1</property>
  <property name="meta.media.frame_rate_num">60</property>
  <property name="meta.media.frame_rate_den">1</property>
  <property name="meta.media.colorspace">709</property>
  <property name="meta.media.color_trc">2</property>
  <property name="meta.media.has_b_frames">2</property>
  <property name="meta.media.width">1920</property>
  <property name="meta.media.height">1080</property>
  <property name="meta.media.color_range">mpeg</property>
  <property name="xml">was here</property>
  <property name="meta.media.top_field_first">0</property>
  <property name="meta.media.progressive">1</property>
  <property name="set.test_audio">1</property>
  <property name="set.test_image">0</property>
  <property name="mute_on_pause">1</property>
 </chain>
 <chain id="chain289" out="00:00:02.600">
  <property name="length">66</property>
  <property name="eof">pause</property>
  <property name="resource">b-roll/Windows folder animation [lQkJhCfk_Oo].webm</property>
  <property name="mlt_service">avformat-novalidate</property>
  <property name="seekable">1</property>
  <property name="format">3</property>
  <property name="audio_index">-1</property>
  <property name="video_index">0</property>
  <property name="kdenlive:clipname"/>
  <property name="kdenlive:clip_type">0</property>
  <property name="kdenlive:folderid">14</property>
  <property name="kdenlive:id">310</property>
  <property name="kdenlive:file_size">6230</property>
  <property name="kdenlive:file_hash">711b538137da300d742a81ee77f33e7d</property>
  <property name="kdenlive:audio_max1">1</property>
  <property name="kdenlive:active_streams">-1</property>
  <property name="set.test_audio">1</property>
  <property name="meta.media.nb_streams">2</property>
  <property name="meta.media.0.stream.type">video</property>
  <property name="meta.media.0.stream.frame_rate">10</property>
  <property name="meta.media.0.stream.sample_aspect_ratio">1</property>
  <property name="meta.media.0.codec.width">272</property>
  <property name="meta.media.0.codec.height">60</property>
  <property name="meta.media.0.codec.rotate">0</property>
  <property name="meta.media.0.codec.pix_fmt">yuv420p</property>
  <property name="meta.media.0.codec.sample_aspect_ratio">0</property>
  <property name="meta.media.0.codec.colorspace">601</property>
  <property name="meta.media.0.codec.name">vp9</property>
  <property name="meta.media.0.codec.long_name">Google VP9</property>
  <property name="meta.media.0.codec.bit_rate">0</property>
  <property name="meta.attr.0.stream.HANDLER_NAME.markup">ISO Media file produced by Google Inc. Created on: 12/11/2023.</property>
  <property name="meta.attr.0.stream.VENDOR_ID.markup">[0][0][0][0]</property>
  <property name="meta.attr.0.stream.DURATION.markup">00:00:02.600000000</property>
  <property name="meta.media.1.stream.type">audio</property>
  <property name="meta.media.1.codec.sample_fmt">fltp</property>
  <property name="meta.media.1.codec.sample_rate">48000</property>
  <property name="meta.media.1.codec.channels">2</property>
  <property name="meta.media.1.codec.name">opus</property>
  <property name="meta.media.1.codec.long_name">Opus</property>
  <property name="meta.media.1.codec.bit_rate">0</property>
  <property name="meta.attr.1.stream.language.markup">eng</property>
  <property name="meta.attr.1.stream.DURATION.markup">00:00:02.621000000</property>
  <property name="meta.attr.COMPATIBLE_BRANDS.markup">iso6mp41</property>
  <property name="meta.attr.MAJOR_BRAND.markup">dash</property>
  <property name="meta.attr.MINOR_VERSION.markup">0</property>
  <property name="meta.attr.ENCODER.markup">Lavf59.27.100</property>
  <property name="meta.media.sample_aspect_num">1</property>
  <property name="meta.media.sample_aspect_den">1</property>
  <property name="meta.media.frame_rate_num">10</property>
  <property name="meta.media.frame_rate_den">1</property>
  <property name="meta.media.colorspace">601</property>
  <property name="meta.media.color_trc">2</property>
  <property name="meta.media.has_b_frames">0</property>
  <property name="meta.media.width">272</property>
  <property name="meta.media.height">60</property>
  <property name="meta.media.color_range">mpeg</property>
  <property name="xml">was here</property>
  <property name="meta.media.top_field_first">0</property>
  <property name="meta.media.progressive">1</property>
  <property name="set.test_image">0</property>
  <property name="mute_on_pause">1</property>
 </chain>
 <chain id="chain290" out="00:00:05.000">
  <property name="length">126</property>
  <property name="eof">pause</property>
  <property name="resource">animation/output/smiley-equation.mp4</property>
  <property name="mlt_service">avformat-novalidate</property>
  <property name="seekable">1</property>
  <property name="format">3</property>
  <property name="audio_index">-1</property>
  <property name="video_index">0</property>
  <property name="kdenlive:clipname"/>
  <property name="kdenlive:clip_type">2</property>
  <property name="kdenlive:folderid">218</property>
  <property name="kdenlive:id">316</property>
  <property name="kdenlive:file_size">220157</property>
  <property name="kdenlive:file_hash">db316de4be3144c5f7b2681bbb79bc30</property>
  <property name="meta.media.nb_streams">1</property>
  <property name="meta.media.0.stream.type">video</property>
  <property name="meta.media.0.stream.frame_rate">60</property>
  <property name="meta.media.0.stream.sample_aspect_ratio">0</property>
  <property name="meta.media.0.codec.width">1920</property>
  <property name="meta.media.0.codec.height">1080</property>
  <property name="meta.media.0.codec.rotate">0</property>
  <property name="meta.media.0.codec.pix_fmt">yuv420p</property>
  <property name="meta.media.0.codec.sample_aspect_ratio">0</property>
  <property name="meta.media.0.codec.colorspace">709</property>
  <property name="meta.media.0.codec.name">h264</property>
  <property name="meta.media.0.codec.long_name">H.264 / AVC / MPEG-4 AVC / MPEG-4 part 10</property>
  <property name="meta.media.0.codec.bit_rate">342874</property>
  <property name="meta.attr.0.stream.handler_name.markup">VideoHandler</property>
  <property name="meta.attr.0.stream.vendor_id.markup">[0][0][0][0]</property>
  <property name="meta.attr.major_brand.markup">isom</property>
  <property name="meta.attr.minor_version.markup">512</property>
  <property name="meta.attr.compatible_brands.markup">isomiso2avc1mp41</property>
  <property name="meta.attr.encoder.markup">Lavf58.24.100</property>
  <property name="meta.media.sample_aspect_num">1</property>
  <property name="meta.media.sample_aspect_den">1</property>
  <property name="meta.media.frame_rate_num">60</property>
  <property name="meta.media.frame_rate_den">1</property>
  <property name="meta.media.colorspace">709</property>
  <property name="meta.media.color_trc">2</property>
  <property name="meta.media.has_b_frames">2</property>
  <property name="meta.media.width">1920</property>
  <property name="meta.media.height">1080</property>
  <property name="meta.media.color_range">mpeg</property>
  <property name="xml">was here</property>
  <property name="meta.media.top_field_first">0</property>
  <property name="meta.media.progressive">1</property>
  <property name="set.test_audio">1</property>
  <property name="set.test_image">0</property>
  <property name="mute_on_pause">1</property>
 </chain>
 <chain id="chain291" out="00:00:11.240">
  <property name="length">282</property>
  <property name="eof">pause</property>
  <property name="resource">videos/laion-5B.mkv</property>
  <property name="mlt_service">avformat-novalidate</property>
  <property name="seekable">1</property>
  <property name="format">3</property>
  <property name="audio_index">-1</property>
  <property name="video_index">0</property>
  <property name="kdenlive:clipname"/>
  <property name="kdenlive:clip_type">0</property>
  <property name="kdenlive:folderid">-1</property>
  <property name="kdenlive:id">319</property>
  <property name="kdenlive:file_size">1394649</property>
  <property name="kdenlive:file_hash">ec66bd1760c23e5455d6659b3c5997d2</property>
  <property name="kdenlive:audio_max1">1</property>
  <property name="kdenlive:active_streams">-1</property>
  <property name="set.test_audio">1</property>
  <property name="meta.media.nb_streams">2</property>
  <property name="meta.media.0.stream.type">video</property>
  <property name="meta.media.0.stream.frame_rate">60</property>
  <property name="meta.media.0.stream.sample_aspect_ratio">0</property>
  <property name="meta.media.0.codec.width">1920</property>
  <property name="meta.media.0.codec.height">1080</property>
  <property name="meta.media.0.codec.rotate">0</property>
  <property name="meta.media.0.codec.pix_fmt">yuv420p</property>
  <property name="meta.media.0.codec.sample_aspect_ratio">1</property>
  <property name="meta.media.0.codec.colorspace">709</property>
  <property name="meta.media.0.codec.color_trc">1</property>
  <property name="meta.media.0.codec.name">h264</property>
  <property name="meta.media.0.codec.long_name">H.264 / AVC / MPEG-4 AVC / MPEG-4 part 10</property>
  <property name="meta.media.0.codec.bit_rate">0</property>
  <property name="meta.attr.0.stream.DURATION.markup">00:00:11.284000000</property>
  <property name="meta.media.1.stream.type">audio</property>
  <property name="meta.media.1.codec.sample_fmt">fltp</property>
  <property name="meta.media.1.codec.sample_rate">48000</property>
  <property name="meta.media.1.codec.channels">1</property>
  <property name="meta.media.1.codec.name">aac</property>
  <property name="meta.media.1.codec.long_name">AAC (Advanced Audio Coding)</property>
  <property name="meta.media.1.codec.bit_rate">0</property>
  <property name="meta.attr.1.stream.title.markup">simple_aac_recording</property>
  <property name="meta.attr.1.stream.DURATION.markup">00:00:11.264000000</property>
  <property name="meta.attr.ENCODER.markup">Lavf59.27.100</property>
  <property name="meta.media.sample_aspect_num">1</property>
  <property name="meta.media.sample_aspect_den">1</property>
  <property name="meta.media.frame_rate_num">60</property>
  <property name="meta.media.frame_rate_den">1</property>
  <property name="meta.media.colorspace">709</property>
  <property name="meta.media.color_trc">1</property>
  <property name="meta.media.has_b_frames">2</property>
  <property name="meta.media.width">1920</property>
  <property name="meta.media.height">1080</property>
  <property name="meta.media.color_range">mpeg</property>
  <property name="xml">was here</property>
  <property name="meta.media.top_field_first">0</property>
  <property name="meta.media.progressive">1</property>
  <property name="set.test_image">0</property>
  <property name="mute_on_pause">1</property>
 </chain>
 <producer id="producer626" in="00:00:00.000" out="00:00:05.600">
  <property name="length">141</property>
  <property name="eof">pause</property>
  <property name="resource">2.000000:videos/laion-5B.mkv</property>
  <property name="aspect_ratio">1</property>
  <property name="meta.media.nb_streams">2</property>
  <property name="meta.media.0.stream.type">video</property>
  <property name="meta.media.0.stream.frame_rate">60</property>
  <property name="meta.media.0.stream.sample_aspect_ratio">0</property>
  <property name="meta.media.0.codec.width">1920</property>
  <property name="meta.media.0.codec.height">1080</property>
  <property name="meta.media.0.codec.rotate">0</property>
  <property name="meta.media.0.codec.pix_fmt">yuv420p</property>
  <property name="meta.media.0.codec.sample_aspect_ratio">1</property>
  <property name="meta.media.0.codec.colorspace">709</property>
  <property name="meta.media.0.codec.color_trc">1</property>
  <property name="meta.media.0.codec.name">h264</property>
  <property name="meta.media.0.codec.long_name">H.264 / AVC / MPEG-4 AVC / MPEG-4 part 10</property>
  <property name="meta.media.0.codec.bit_rate">0</property>
  <property name="meta.attr.0.stream.DURATION.markup">00:00:11.284000000</property>
  <property name="meta.media.1.stream.type">audio</property>
  <property name="meta.media.1.codec.sample_fmt">fltp</property>
  <property name="meta.media.1.codec.sample_rate">48000</property>
  <property name="meta.media.1.codec.channels">1</property>
  <property name="meta.media.1.codec.name">aac</property>
  <property name="meta.media.1.codec.long_name">AAC (Advanced Audio Coding)</property>
  <property name="meta.media.1.codec.bit_rate">0</property>
  <property name="meta.attr.1.stream.title.markup">simple_aac_recording</property>
  <property name="meta.attr.1.stream.DURATION.markup">00:00:11.264000000</property>
  <property name="meta.attr.ENCODER.markup">Lavf59.27.100</property>
  <property name="seekable">1</property>
  <property name="meta.media.sample_aspect_num">1</property>
  <property name="meta.media.sample_aspect_den">1</property>
  <property name="format">3</property>
  <property name="audio_index">-1</property>
  <property name="video_index">0</property>
  <property name="mute_on_pause">1</property>
  <property name="warp_speed">2</property>
  <property name="warp_resource">videos/laion-5B.mkv</property>
  <property name="mlt_service">timewarp</property>
  <property name="set.test_audio">1</property>
  <property name="set.test_image">0</property>
  <property name="kdenlive:id">319</property>
  <property name="warp_pitch">0</property>
  <property name="meta.media.frame_rate_num">60</property>
  <property name="meta.media.frame_rate_den">1</property>
  <property name="meta.media.colorspace">709</property>
  <property name="meta.media.color_trc">1</property>
  <property name="meta.media.has_b_frames">2</property>
  <property name="meta.media.width">1920</property>
  <property name="meta.media.height">1080</property>
  <property name="meta.media.color_range">mpeg</property>
  <property name="meta.media.top_field_first">0</property>
  <property name="meta.media.progressive">1</property>
 </producer>
 <chain id="chain292" out="00:22:16.600">
  <property name="length">33416</property>
  <property name="eof">pause</property>
  <property name="resource">b-roll/AI ï¼‚Animeï¼‚ - An Insult to Life Itself (reï¼š Corridor &amp; Netflix) [GOwxXj1EIXM].webm</property>
  <property name="mlt_service">avformat-novalidate</property>
  <property name="seekable">1</property>
  <property name="format">3</property>
  <property name="audio_index">-1</property>
  <property name="video_index">0</property>
  <property name="kdenlive:clipname"/>
  <property name="kdenlive:clip_type">0</property>
  <property name="kdenlive:folderid">14</property>
  <property name="kdenlive:id">343</property>
  <property name="kdenlive:file_size">457011961</property>
  <property name="kdenlive:file_hash">199853dc5ba0ac59679b29b9e54d6d33</property>
  <property name="kdenlive:audio_max1">192</property>
  <property name="kdenlive:active_streams">-1</property>
  <property name="set.test_audio">1</property>
  <property name="meta.media.nb_streams">2</property>
  <property name="meta.media.0.stream.type">video</property>
  <property name="meta.media.0.stream.frame_rate">59.9401</property>
  <property name="meta.media.0.stream.sample_aspect_ratio">1</property>
  <property name="meta.media.0.codec.width">1920</property>
  <property name="meta.media.0.codec.height">1080</property>
  <property name="meta.media.0.codec.rotate">0</property>
  <property name="meta.media.0.codec.pix_fmt">yuv420p</property>
  <property name="meta.media.0.codec.sample_aspect_ratio">0</property>
  <property name="meta.media.0.codec.colorspace">709</property>
  <property name="meta.media.0.codec.color_trc">1</property>
  <property name="meta.media.0.codec.name">vp9</property>
  <property name="meta.media.0.codec.long_name">Google VP9</property>
  <property name="meta.media.0.codec.bit_rate">0</property>
  <property name="meta.attr.0.stream.language.markup">eng</property>
  <property name="meta.attr.0.stream.DURATION.markup">00:22:16.602000000</property>
  <property name="meta.media.1.stream.type">audio</property>
  <property name="meta.media.1.codec.sample_fmt">fltp</property>
  <property name="meta.media.1.codec.sample_rate">48000</property>
  <property name="meta.media.1.codec.channels">2</property>
  <property name="meta.media.1.codec.name">opus</property>
  <property name="meta.media.1.codec.long_name">Opus</property>
  <property name="meta.media.1.codec.bit_rate">0</property>
  <property name="meta.attr.1.stream.language.markup">eng</property>
  <property name="meta.attr.1.stream.DURATION.markup">00:22:16.621000000</property>
  <property name="meta.attr.ENCODER.markup">Lavf59.27.100</property>
  <property name="meta.media.sample_aspect_num">1</property>
  <property name="meta.media.sample_aspect_den">1</property>
  <property name="meta.media.frame_rate_num">60000</property>
  <property name="meta.media.frame_rate_den">1001</property>
  <property name="meta.media.colorspace">709</property>
  <property name="meta.media.color_trc">1</property>
  <property name="meta.media.has_b_frames">0</property>
  <property name="meta.media.width">1920</property>
  <property name="meta.media.height">1080</property>
  <property name="meta.media.color_range">mpeg</property>
  <property name="xml">was here</property>
  <property name="meta.media.top_field_first">0</property>
  <property name="meta.media.progressive">1</property>
  <property name="set.test_image">0</property>
  <property name="mute_on_pause">1</property>
 </chain>
 <producer id="producer627" in="00:00:00.000" out="00:00:07.480">
  <property name="length">188</property>
  <property name="eof">pause</property>
  <property name="resource">2.000000:videos/image-to-image.mkv</property>
  <property name="aspect_ratio">1</property>
  <property name="meta.media.nb_streams">2</property>
  <property name="meta.media.0.stream.type">video</property>
  <property name="meta.media.0.stream.frame_rate">60</property>
  <property name="meta.media.0.stream.sample_aspect_ratio">0</property>
  <property name="meta.media.0.codec.width">1920</property>
  <property name="meta.media.0.codec.height">1080</property>
  <property name="meta.media.0.codec.rotate">0</property>
  <property name="meta.media.0.codec.pix_fmt">yuv420p</property>
  <property name="meta.media.0.codec.sample_aspect_ratio">1</property>
  <property name="meta.media.0.codec.colorspace">709</property>
  <property name="meta.media.0.codec.color_trc">1</property>
  <property name="meta.media.0.codec.name">h264</property>
  <property name="meta.media.0.codec.long_name">H.264 / AVC / MPEG-4 AVC / MPEG-4 part 10</property>
  <property name="meta.media.0.codec.bit_rate">0</property>
  <property name="meta.attr.0.stream.DURATION.markup">00:00:15.050000000</property>
  <property name="meta.media.1.stream.type">audio</property>
  <property name="meta.media.1.codec.sample_fmt">fltp</property>
  <property name="meta.media.1.codec.sample_rate">48000</property>
  <property name="meta.media.1.codec.channels">2</property>
  <property name="meta.media.1.codec.name">aac</property>
  <property name="meta.media.1.codec.long_name">AAC (Advanced Audio Coding)</property>
  <property name="meta.media.1.codec.bit_rate">0</property>
  <property name="meta.attr.1.stream.title.markup">simple_aac_recording</property>
  <property name="meta.attr.1.stream.DURATION.markup">00:00:15.018000000</property>
  <property name="meta.attr.ENCODER.markup">Lavf59.27.100</property>
  <property name="seekable">1</property>
  <property name="meta.media.sample_aspect_num">1</property>
  <property name="meta.media.sample_aspect_den">1</property>
  <property name="format">3</property>
  <property name="audio_index">-1</property>
  <property name="video_index">0</property>
  <property name="mute_on_pause">1</property>
  <property name="warp_speed">2</property>
  <property name="warp_resource">videos/image-to-image.mkv</property>
  <property name="mlt_service">timewarp</property>
  <property name="set.test_audio">1</property>
  <property name="set.test_image">0</property>
  <property name="kdenlive:id">358</property>
  <property name="warp_pitch">0</property>
  <property name="meta.media.frame_rate_num">60</property>
  <property name="meta.media.frame_rate_den">1</property>
  <property name="meta.media.colorspace">709</property>
  <property name="meta.media.color_trc">1</property>
  <property name="meta.media.has_b_frames">2</property>
  <property name="meta.media.width">1920</property>
  <property name="meta.media.height">1080</property>
  <property name="meta.media.color_range">mpeg</property>
  <property name="meta.media.top_field_first">0</property>
  <property name="meta.media.progressive">1</property>
 </producer>
 <chain id="chain293" out="02:19:44.640">
  <property name="length">209617</property>
  <property name="eof">pause</property>
  <property name="resource">b-roll/The AI Art Apocalypse [9xJCzKdPyCo].webm</property>
  <property name="mlt_service">avformat-novalidate</property>
  <property name="seekable">1</property>
  <property name="format">3</property>
  <property name="audio_index">-1</property>
  <property name="video_index">0</property>
  <property name="kdenlive:clipname"/>
  <property name="kdenlive:clip_type">0</property>
  <property name="kdenlive:folderid">-1</property>
  <property name="kdenlive:id">365</property>
  <property name="kdenlive:file_size">4027317975</property>
  <property name="kdenlive:file_hash">e408905833831dabbb04220cf044b0c6</property>
  <property name="kdenlive:audio_max1">255</property>
  <property name="kdenlive:active_streams">-1</property>
  <property name="set.test_audio">1</property>
  <property name="meta.media.nb_streams">2</property>
  <property name="meta.media.0.stream.type">video</property>
  <property name="meta.media.0.stream.frame_rate">30.0014</property>
  <property name="meta.media.0.stream.sample_aspect_ratio">1</property>
  <property name="meta.media.0.codec.width">1920</property>
  <property name="meta.media.0.codec.height">1080</property>
  <property name="meta.media.0.codec.rotate">0</property>
  <property name="meta.media.0.codec.pix_fmt">yuv420p</property>
  <property name="meta.media.0.codec.sample_aspect_ratio">0</property>
  <property name="meta.media.0.codec.colorspace">709</property>
  <property name="meta.media.0.codec.color_trc">1</property>
  <property name="meta.media.0.codec.name">vp9</property>
  <property name="meta.media.0.codec.long_name">Google VP9</property>
  <property name="meta.media.0.codec.bit_rate">0</property>
  <property name="meta.attr.0.stream.HANDLER_NAME.markup">ISO Media file produced by Google Inc. Created on: 12/13/2023.</property>
  <property name="meta.attr.0.stream.VENDOR_ID.markup">[0][0][0][0]</property>
  <property name="meta.attr.0.stream.DURATION.markup">02:19:44.633000000</property>
  <property name="meta.media.1.stream.type">audio</property>
  <property name="meta.media.1.codec.sample_fmt">fltp</property>
  <property name="meta.media.1.codec.sample_rate">48000</property>
  <property name="meta.media.1.codec.channels">2</property>
  <property name="meta.media.1.codec.name">opus</property>
  <property name="meta.media.1.codec.long_name">Opus</property>
  <property name="meta.media.1.codec.bit_rate">0</property>
  <property name="meta.attr.1.stream.language.markup">eng</property>
  <property name="meta.attr.1.stream.DURATION.markup">02:19:44.661000000</property>
  <property name="meta.attr.COMPATIBLE_BRANDS.markup">iso6mp41</property>
  <property name="meta.attr.MAJOR_BRAND.markup">dash</property>
  <property name="meta.attr.MINOR_VERSION.markup">0</property>
  <property name="meta.attr.ENCODER.markup">Lavf59.27.100</property>
  <property name="meta.media.sample_aspect_num">1</property>
  <property name="meta.media.sample_aspect_den">1</property>
  <property name="meta.media.frame_rate_num">20731</property>
  <property name="meta.media.frame_rate_den">691</property>
  <property name="meta.media.colorspace">709</property>
  <property name="meta.media.color_trc">1</property>
  <property name="meta.media.has_b_frames">0</property>
  <property name="meta.media.width">1920</property>
  <property name="meta.media.height">1080</property>
  <property name="meta.media.color_range">mpeg</property>
  <property name="xml">was here</property>
  <property name="meta.media.top_field_first">0</property>
  <property name="meta.media.progressive">1</property>
  <property name="set.test_image">0</property>
  <property name="mute_on_pause">1</property>
 </chain>
 <producer id="producer628" in="00:00:00.000" out="00:00:21.080">
  <property name="length">528</property>
  <property name="eof">pause</property>
  <property name="resource">/home/liquidzulu/Pictures/yt/animation/output/project/squiggly-two-thirds/.all.png</property>
  <property name="ttl">1</property>
  <property name="aspect_ratio">1</property>
  <property name="progressive">1</property>
  <property name="seekable">1</property>
  <property name="format">2</property>
  <property name="meta.media.width">1920</property>
  <property name="meta.media.height">1080</property>
  <property name="mlt_service">qimage</property>
  <property name="kdenlive:clipname">Squiggly Border</property>
  <property name="low-pass">0</property>
  <property name="animation"/>
  <property name="luma_file"/>
  <property name="luma_duration">25</property>
  <property name="fade">0</property>
  <property name="crop">0</property>
  <property name="softness">0</property>
  <property name="loop">1</property>
  <property name="kdenlive:duration">00:00:12:08</property>
  <property name="kdenlive:folderid">218</property>
  <property name="kdenlive:id">231</property>
  <property name="kdenlive:clip_type">2</property>
  <property name="kdenlive:file_hash">98ba2f58a7b8ff51461b91634c07a5c8</property>
  <property name="xml">was here</property>
  <property name="set.test_audio">1</property>
  <property name="set.test_image">0</property>
 </producer>
 <chain id="chain294" out="02:18:58.840">
  <property name="length">208472</property>
  <property name="eof">pause</property>
  <property name="resource">b-roll/AI ART ftï¼š Istebrak, Steven Zapata, Hardy Fowler, Kelsey Rodriguez, Tyler Edlin &amp; Antonio Stappaerts [5JaS7APpO8U].webm</property>
  <property name="mlt_service">avformat-novalidate</property>
  <property name="seekable">1</property>
  <property name="format">3</property>
  <property name="audio_index">1</property>
  <property name="video_index">0</property>
  <property name="kdenlive:clipname"/>
  <property name="kdenlive:clip_type">0</property>
  <property name="kdenlive:folderid">14</property>
  <property name="kdenlive:id">6</property>
  <property name="kdenlive:file_size">845877288</property>
  <property name="kdenlive:file_hash">57847912f2775f5fab12884262152e3d</property>
  <property name="kdenlive:audio_max1">192</property>
  <property name="meta.media.nb_streams">2</property>
  <property name="meta.media.0.stream.type">video</property>
  <property name="meta.media.0.stream.frame_rate">25</property>
  <property name="meta.media.0.stream.sample_aspect_ratio">1</property>
  <property name="meta.media.0.codec.width">1920</property>
  <property name="meta.media.0.codec.height">1080</property>
  <property name="meta.media.0.codec.rotate">0</property>
  <property name="meta.media.0.codec.pix_fmt">yuv420p</property>
  <property name="meta.media.0.codec.sample_aspect_ratio">0</property>
  <property name="meta.media.0.codec.colorspace">709</property>
  <property name="meta.media.0.codec.color_trc">1</property>
  <property name="meta.media.0.codec.name">vp9</property>
  <property name="meta.media.0.codec.long_name">Google VP9</property>
  <property name="meta.media.0.codec.bit_rate">0</property>
  <property name="meta.attr.0.stream.HANDLER_NAME.markup">ISO Media file produced by Google Inc. Created on: 12/09/2023.</property>
  <property name="meta.attr.0.stream.VENDOR_ID.markup">[0][0][0][0]</property>
  <property name="meta.attr.0.stream.DURATION.markup">02:18:58.840000000</property>
  <property name="meta.media.1.stream.type">audio</property>
  <property name="meta.media.1.codec.sample_fmt">fltp</property>
  <property name="meta.media.1.codec.sample_rate">48000</property>
  <property name="meta.media.1.codec.channels">2</property>
  <property name="meta.media.1.codec.name">opus</property>
  <property name="meta.media.1.codec.long_name">Opus</property>
  <property name="meta.media.1.codec.bit_rate">0</property>
  <property name="meta.attr.1.stream.language.markup">eng</property>
  <property name="meta.attr.1.stream.DURATION.markup">02:18:58.881000000</property>
  <property name="meta.attr.COMPATIBLE_BRANDS.markup">iso6mp41</property>
  <property name="meta.attr.MAJOR_BRAND.markup">dash</property>
  <property name="meta.attr.MINOR_VERSION.markup">0</property>
  <property name="meta.attr.ENCODER.markup">Lavf59.27.100</property>
  <property name="meta.media.sample_aspect_num">1</property>
  <property name="meta.media.sample_aspect_den">1</property>
  <property name="meta.media.frame_rate_num">25</property>
  <property name="meta.media.frame_rate_den">1</property>
  <property name="meta.media.colorspace">709</property>
  <property name="meta.media.color_trc">1</property>
  <property name="meta.media.has_b_frames">0</property>
  <property name="meta.media.width">1920</property>
  <property name="meta.media.height">1080</property>
  <property name="meta.media.color_range">mpeg</property>
  <property name="xml">was here</property>
  <property name="meta.media.top_field_first">0</property>
  <property name="meta.media.progressive">1</property>
  <property name="set.test_audio">1</property>
  <property name="set.test_image">0</property>
  <property name="mute_on_pause">1</property>
 </chain>
 <chain id="chain295" out="00:10:19.320">
  <property name="length">15484</property>
  <property name="eof">pause</property>
  <property name="resource">b-roll/Paint like Van Gogh in 7 easy steps! (Acrylic version) [hBXvkmm93wA].webm</property>
  <property name="mlt_service">avformat-novalidate</property>
  <property name="seekable">1</property>
  <property name="format">3</property>
  <property name="audio_index">-1</property>
  <property name="video_index">0</property>
  <property name="kdenlive:clipname"/>
  <property name="kdenlive:clip_type">0</property>
  <property name="kdenlive:folderid">14</property>
  <property name="kdenlive:id">387</property>
  <property name="kdenlive:file_size">126962373</property>
  <property name="kdenlive:file_hash">445ffba4de7463ce4cb69fb876bc9ba7</property>
  <property name="kdenlive:audio_max1">215</property>
  <property name="kdenlive:active_streams">-1</property>
  <property name="set.test_audio">1</property>
  <property name="meta.media.nb_streams">2</property>
  <property name="meta.media.0.stream.type">video</property>
  <property name="meta.media.0.stream.frame_rate">30</property>
  <property name="meta.media.0.stream.sample_aspect_ratio">1</property>
  <property name="meta.media.0.codec.width">1920</property>
  <property name="meta.media.0.codec.height">1080</property>
  <property name="meta.media.0.codec.rotate">0</property>
  <property name="meta.media.0.codec.pix_fmt">yuv420p</property>
  <property name="meta.media.0.codec.sample_aspect_ratio">0</property>
  <property name="meta.media.0.codec.colorspace">709</property>
  <property name="meta.media.0.codec.color_trc">1</property>
  <property name="meta.media.0.codec.name">vp9</property>
  <property name="meta.media.0.codec.long_name">Google VP9</property>
  <property name="meta.media.0.codec.bit_rate">0</property>
  <property name="meta.attr.0.stream.language.markup">eng</property>
  <property name="meta.attr.0.stream.DURATION.markup">00:10:19.333000000</property>
  <property name="meta.media.1.stream.type">audio</property>
  <property name="meta.media.1.codec.sample_fmt">fltp</property>
  <property name="meta.media.1.codec.sample_rate">48000</property>
  <property name="meta.media.1.codec.channels">2</property>
  <property name="meta.media.1.codec.name">opus</property>
  <property name="meta.media.1.codec.long_name">Opus</property>
  <property name="meta.media.1.codec.bit_rate">0</property>
  <property name="meta.attr.1.stream.language.markup">eng</property>
  <property name="meta.attr.1.stream.DURATION.markup">00:10:19.361000000</property>
  <property name="meta.attr.ENCODER.markup">Lavf59.27.100</property>
  <property name="meta.media.sample_aspect_num">1</property>
  <property name="meta.media.sample_aspect_den">1</property>
  <property name="meta.media.frame_rate_num">30</property>
  <property name="meta.media.frame_rate_den">1</property>
  <property name="meta.media.colorspace">709</property>
  <property name="meta.media.color_trc">1</property>
  <property name="meta.media.has_b_frames">0</property>
  <property name="meta.media.width">1920</property>
  <property name="meta.media.height">1080</property>
  <property name="meta.media.color_range">mpeg</property>
  <property name="xml">was here</property>
  <property name="meta.media.top_field_first">0</property>
  <property name="meta.media.progressive">1</property>
  <property name="set.test_image">0</property>
  <property name="mute_on_pause">1</property>
 </chain>
 <chain id="chain296" out="00:27:46.760">
  <property name="length">41670</property>
  <property name="eof">pause</property>
  <property name="resource">b-roll/Bob Ross - Mountain Summit (Season 13 Episode 10) [kasGRkfkiPM].webm</property>
  <property name="mlt_service">avformat-novalidate</property>
  <property name="seekable">1</property>
  <property name="format">3</property>
  <property name="audio_index">-1</property>
  <property name="video_index">0</property>
  <property name="kdenlive:clipname"/>
  <property name="kdenlive:clip_type">0</property>
  <property name="kdenlive:folderid">-1</property>
  <property name="kdenlive:id">390</property>
  <property name="kdenlive:file_size">62500648</property>
  <property name="kdenlive:file_hash">5802fc27c5c82441191a45e38eca5335</property>
  <property name="kdenlive:audio_max1">157</property>
  <property name="kdenlive:active_streams">-1</property>
  <property name="set.test_audio">1</property>
  <property name="meta.media.nb_streams">2</property>
  <property name="meta.media.0.stream.type">video</property>
  <property name="meta.media.0.stream.frame_rate">29.97</property>
  <property name="meta.media.0.stream.sample_aspect_ratio">1</property>
  <property name="meta.media.0.codec.width">640</property>
  <property name="meta.media.0.codec.height">480</property>
  <property name="meta.media.0.codec.rotate">0</property>
  <property name="meta.media.0.codec.pix_fmt">yuv420p</property>
  <property name="meta.media.0.codec.sample_aspect_ratio">0</property>
  <property name="meta.media.0.codec.colorspace">709</property>
  <property name="meta.media.0.codec.color_trc">1</property>
  <property name="meta.media.0.codec.name">vp9</property>
  <property name="meta.media.0.codec.long_name">Google VP9</property>
  <property name="meta.media.0.codec.bit_rate">0</property>
  <property name="meta.attr.0.stream.language.markup">eng</property>
  <property name="meta.attr.0.stream.DURATION.markup">00:27:46.765000000</property>
  <property name="meta.media.1.stream.type">audio</property>
  <property name="meta.media.1.codec.sample_fmt">fltp</property>
  <property name="meta.media.1.codec.sample_rate">48000</property>
  <property name="meta.media.1.codec.channels">2</property>
  <property name="meta.media.1.codec.name">opus</property>
  <property name="meta.media.1.codec.long_name">Opus</property>
  <property name="meta.media.1.codec.bit_rate">0</property>
  <property name="meta.attr.1.stream.language.markup">eng</property>
  <property name="meta.attr.1.stream.DURATION.markup">00:27:46.801000000</property>
  <property name="meta.attr.ENCODER.markup">Lavf59.27.100</property>
  <property name="meta.media.sample_aspect_num">1</property>
  <property name="meta.media.sample_aspect_den">1</property>
  <property name="meta.media.frame_rate_num">30000</property>
  <property name="meta.media.frame_rate_den">1001</property>
  <property name="meta.media.colorspace">709</property>
  <property name="meta.media.color_trc">1</property>
  <property name="meta.media.has_b_frames">0</property>
  <property name="meta.media.width">640</property>
  <property name="meta.media.height">480</property>
  <property name="meta.media.color_range">mpeg</property>
  <property name="xml">was here</property>
  <property name="meta.media.top_field_first">0</property>
  <property name="meta.media.progressive">1</property>
  <property name="set.test_image">0</property>
  <property name="mute_on_pause">1</property>
 </chain>
 <chain id="chain297" out="02:56:38.200">
  <property name="length">264956</property>
  <property name="eof">pause</property>
  <property name="resource">b-roll/AI and The Future of Art with Steven Zapata - Art Cafe #134 [qTB7tFZ2EFc].webm</property>
  <property name="mlt_service">avformat-novalidate</property>
  <property name="seekable">1</property>
  <property name="format">3</property>
  <property name="audio_index">-1</property>
  <property name="video_index">0</property>
  <property name="kdenlive:clipname"/>
  <property name="kdenlive:clip_type">0</property>
  <property name="kdenlive:folderid">-1</property>
  <property name="kdenlive:id">394</property>
  <property name="kdenlive:file_size">1897186416</property>
  <property name="kdenlive:file_hash">967c933e071a9171404294df5e3831aa</property>
  <property name="kdenlive:audio_max1">235</property>
  <property name="kdenlive:active_streams">-1</property>
  <property name="set.test_audio">1</property>
  <property name="meta.media.nb_streams">2</property>
  <property name="meta.media.0.stream.type">video</property>
  <property name="meta.media.0.stream.frame_rate">24.0029</property>
  <property name="meta.media.0.stream.sample_aspect_ratio">1</property>
  <property name="meta.media.0.codec.width">1920</property>
  <property name="meta.media.0.codec.height">1080</property>
  <property name="meta.media.0.codec.rotate">0</property>
  <property name="meta.media.0.codec.pix_fmt">yuv420p</property>
  <property name="meta.media.0.codec.sample_aspect_ratio">0</property>
  <property name="meta.media.0.codec.colorspace">709</property>
  <property name="meta.media.0.codec.color_trc">1</property>
  <property name="meta.media.0.codec.name">vp9</property>
  <property name="meta.media.0.codec.long_name">Google VP9</property>
  <property name="meta.media.0.codec.bit_rate">0</property>
  <property name="meta.attr.0.stream.HANDLER_NAME.markup">ISO Media file produced by Google Inc. Created on: 12/13/2023.</property>
  <property name="meta.attr.0.stream.VENDOR_ID.markup">[0][0][0][0]</property>
  <property name="meta.attr.0.stream.DURATION.markup">02:56:38.207000000</property>
  <property name="meta.media.1.stream.type">audio</property>
  <property name="meta.media.1.codec.sample_fmt">fltp</property>
  <property name="meta.media.1.codec.sample_rate">48000</property>
  <property name="meta.media.1.codec.channels">2</property>
  <property name="meta.media.1.codec.name">opus</property>
  <property name="meta.media.1.codec.long_name">Opus</property>
  <property name="meta.media.1.codec.bit_rate">0</property>
  <property name="meta.attr.1.stream.language.markup">eng</property>
  <property name="meta.attr.1.stream.DURATION.markup">02:56:38.241000000</property>
  <property name="meta.attr.COMPATIBLE_BRANDS.markup">iso6mp41</property>
  <property name="meta.attr.MAJOR_BRAND.markup">dash</property>
  <property name="meta.attr.MINOR_VERSION.markup">0</property>
  <property name="meta.attr.ENCODER.markup">Lavf59.27.100</property>
  <property name="meta.media.sample_aspect_num">1</property>
  <property name="meta.media.sample_aspect_den">1</property>
  <property name="meta.media.frame_rate_num">24891</property>
  <property name="meta.media.frame_rate_den">1037</property>
  <property name="meta.media.colorspace">709</property>
  <property name="meta.media.color_trc">1</property>
  <property name="meta.media.has_b_frames">0</property>
  <property name="meta.media.width">1920</property>
  <property name="meta.media.height">1080</property>
  <property name="meta.media.color_range">mpeg</property>
  <property name="xml">was here</property>
  <property name="meta.media.top_field_first">0</property>
  <property name="meta.media.progressive">1</property>
  <property name="set.test_image">0</property>
  <property name="mute_on_pause">1</property>
 </chain>
 <producer id="producer630" in="00:00:00.000" out="00:17:39.800">
  <property name="length">26496</property>
  <property name="eof">pause</property>
  <property name="resource">10.000000:b-roll/AI and The Future of Art with Steven Zapata - Art Cafe #134 [qTB7tFZ2EFc].webm</property>
  <property name="aspect_ratio">1</property>
  <property name="meta.media.nb_streams">2</property>
  <property name="meta.media.0.stream.type">video</property>
  <property name="meta.media.0.stream.frame_rate">24.0029</property>
  <property name="meta.media.0.stream.sample_aspect_ratio">1</property>
  <property name="meta.media.0.codec.width">1920</property>
  <property name="meta.media.0.codec.height">1080</property>
  <property name="meta.media.0.codec.rotate">0</property>
  <property name="meta.media.0.codec.pix_fmt">yuv420p</property>
  <property name="meta.media.0.codec.sample_aspect_ratio">0</property>
  <property name="meta.media.0.codec.colorspace">709</property>
  <property name="meta.media.0.codec.color_trc">1</property>
  <property name="meta.media.0.codec.name">vp9</property>
  <property name="meta.media.0.codec.long_name">Google VP9</property>
  <property name="meta.media.0.codec.bit_rate">0</property>
  <property name="meta.attr.0.stream.HANDLER_NAME.markup">ISO Media file produced by Google Inc. Created on: 12/13/2023.</property>
  <property name="meta.attr.0.stream.VENDOR_ID.markup">[0][0][0][0]</property>
  <property name="meta.attr.0.stream.DURATION.markup">02:56:38.207000000</property>
  <property name="meta.media.1.stream.type">audio</property>
  <property name="meta.media.1.codec.sample_fmt">fltp</property>
  <property name="meta.media.1.codec.sample_rate">48000</property>
  <property name="meta.media.1.codec.channels">2</property>
  <property name="meta.media.1.codec.name">opus</property>
  <property name="meta.media.1.codec.long_name">Opus</property>
  <property name="meta.media.1.codec.bit_rate">0</property>
  <property name="meta.attr.1.stream.language.markup">eng</property>
  <property name="meta.attr.1.stream.DURATION.markup">02:56:38.241000000</property>
  <property name="meta.attr.COMPATIBLE_BRANDS.markup">iso6mp41</property>
  <property name="meta.attr.MAJOR_BRAND.markup">dash</property>
  <property name="meta.attr.MINOR_VERSION.markup">0</property>
  <property name="meta.attr.ENCODER.markup">Lavf59.27.100</property>
  <property name="seekable">1</property>
  <property name="meta.media.sample_aspect_num">1</property>
  <property name="meta.media.sample_aspect_den">1</property>
  <property name="format">3</property>
  <property name="audio_index">-1</property>
  <property name="video_index">0</property>
  <property name="mute_on_pause">1</property>
  <property name="warp_speed">10</property>
  <property name="warp_resource">b-roll/AI and The Future of Art with Steven Zapata - Art Cafe #134 [qTB7tFZ2EFc].webm</property>
  <property name="mlt_service">timewarp</property>
  <property name="set.test_audio">1</property>
  <property name="set.test_image">0</property>
  <property name="kdenlive:id">394</property>
  <property name="warp_pitch">0</property>
  <property name="meta.media.frame_rate_num">24891</property>
  <property name="meta.media.frame_rate_den">1037</property>
  <property name="meta.media.colorspace">709</property>
  <property name="meta.media.color_trc">1</property>
  <property name="meta.media.has_b_frames">0</property>
  <property name="meta.media.width">1920</property>
  <property name="meta.media.height">1080</property>
  <property name="meta.media.color_range">mpeg</property>
  <property name="meta.media.top_field_first">0</property>
  <property name="meta.media.progressive">1</property>
 </producer>
 <chain id="chain298" out="00:00:04.960">
  <property name="length">125</property>
  <property name="eof">pause</property>
  <property name="resource">animation/output/art-is-anything.mp4</property>
  <property name="mlt_service">avformat-novalidate</property>
  <property name="seekable">1</property>
  <property name="format">3</property>
  <property name="audio_index">-1</property>
  <property name="video_index">0</property>
  <property name="kdenlive:clipname"/>
  <property name="kdenlive:clip_type">2</property>
  <property name="kdenlive:folderid">218</property>
  <property name="kdenlive:id">263</property>
  <property name="kdenlive:file_size">1775922</property>
  <property name="kdenlive:file_hash">703f31d2e9f10cd9c40258ad210e5f94</property>
  <property name="meta.media.nb_streams">1</property>
  <property name="meta.media.0.stream.type">video</property>
  <property name="meta.media.0.stream.frame_rate">30</property>
  <property name="meta.media.0.stream.sample_aspect_ratio">0</property>
  <property name="meta.media.0.codec.width">1920</property>
  <property name="meta.media.0.codec.height">1080</property>
  <property name="meta.media.0.codec.rotate">0</property>
  <property name="meta.media.0.codec.pix_fmt">yuv420p</property>
  <property name="meta.media.0.codec.sample_aspect_ratio">0</property>
  <property name="meta.media.0.codec.colorspace">709</property>
  <property name="meta.media.0.codec.name">h264</property>
  <property name="meta.media.0.codec.long_name">H.264 / AVC / MPEG-4 AVC / MPEG-4 part 10</property>
  <property name="meta.media.0.codec.bit_rate">2838832</property>
  <property name="meta.attr.0.stream.handler_name.markup">VideoHandler</property>
  <property name="meta.attr.0.stream.vendor_id.markup">[0][0][0][0]</property>
  <property name="meta.attr.major_brand.markup">isom</property>
  <property name="meta.attr.minor_version.markup">512</property>
  <property name="meta.attr.compatible_brands.markup">isomiso2avc1mp41</property>
  <property name="meta.attr.encoder.markup">Lavf58.24.100</property>
  <property name="meta.media.sample_aspect_num">1</property>
  <property name="meta.media.sample_aspect_den">1</property>
  <property name="meta.media.frame_rate_num">30</property>
  <property name="meta.media.frame_rate_den">1</property>
  <property name="meta.media.colorspace">709</property>
  <property name="meta.media.color_trc">2</property>
  <property name="meta.media.has_b_frames">2</property>
  <property name="meta.media.width">1920</property>
  <property name="meta.media.height">1080</property>
  <property name="meta.media.color_range">mpeg</property>
  <property name="xml">was here</property>
  <property name="meta.media.top_field_first">0</property>
  <property name="meta.media.progressive">1</property>
  <property name="set.test_audio">1</property>
  <property name="set.test_image">0</property>
  <property name="mute_on_pause">1</property>
 </chain>
 <chain id="chain299" out="00:00:19.960">
  <property name="length">500</property>
  <property name="eof">pause</property>
  <property name="resource">animation/output/mapping-set-in-stone.mp4</property>
  <property name="mlt_service">avformat-novalidate</property>
  <property name="seekable">1</property>
  <property name="format">3</property>
  <property name="audio_index">-1</property>
  <property name="video_index">0</property>
  <property name="kdenlive:clipname"/>
  <property name="kdenlive:clip_type">2</property>
  <property name="kdenlive:folderid">-1</property>
  <property name="kdenlive:id">405</property>
  <property name="kdenlive:file_size">657113</property>
  <property name="kdenlive:file_hash">9b333d1e6b95de2439801dafe93ea662</property>
  <property name="meta.media.nb_streams">1</property>
  <property name="meta.media.0.stream.type">video</property>
  <property name="meta.media.0.stream.frame_rate">60</property>
  <property name="meta.media.0.stream.sample_aspect_ratio">0</property>
  <property name="meta.media.0.codec.width">1920</property>
  <property name="meta.media.0.codec.height">1080</property>
  <property name="meta.media.0.codec.rotate">0</property>
  <property name="meta.media.0.codec.pix_fmt">yuv420p</property>
  <property name="meta.media.0.codec.sample_aspect_ratio">0</property>
  <property name="meta.media.0.codec.colorspace">709</property>
  <property name="meta.media.0.codec.name">h264</property>
  <property name="meta.media.0.codec.long_name">H.264 / AVC / MPEG-4 AVC / MPEG-4 part 10</property>
  <property name="meta.media.0.codec.bit_rate">256811</property>
  <property name="meta.attr.0.stream.handler_name.markup">VideoHandler</property>
  <property name="meta.attr.0.stream.vendor_id.markup">[0][0][0][0]</property>
  <property name="meta.attr.major_brand.markup">isom</property>
  <property name="meta.attr.minor_version.markup">512</property>
  <property name="meta.attr.compatible_brands.markup">isomiso2avc1mp41</property>
  <property name="meta.attr.encoder.markup">Lavf58.24.100</property>
  <property name="meta.media.sample_aspect_num">1</property>
  <property name="meta.media.sample_aspect_den">1</property>
  <property name="meta.media.frame_rate_num">60</property>
  <property name="meta.media.frame_rate_den">1</property>
  <property name="meta.media.colorspace">709</property>
  <property name="meta.media.color_trc">2</property>
  <property name="meta.media.has_b_frames">2</property>
  <property name="meta.media.width">1920</property>
  <property name="meta.media.height">1080</property>
  <property name="meta.media.color_range">mpeg</property>
  <property name="xml">was here</property>
  <property name="meta.media.top_field_first">0</property>
  <property name="meta.media.progressive">1</property>
  <property name="set.test_audio">1</property>
  <property name="set.test_image">0</property>
  <property name="mute_on_pause">1</property>
 </chain>
 <chain id="chain300" out="00:08:45.120">
  <property name="length">13129</property>
  <property name="eof">pause</property>
  <property name="resource">/home/liquidzulu/Videos/yt/b-roll/Nana the Border Collie Performs Amazing Dog Tricks [q8FfNQ_E0l0].webm</property>
  <property name="mlt_service">avformat-novalidate</property>
  <property name="seekable">1</property>
  <property name="format">3</property>
  <property name="audio_index">-1</property>
  <property name="video_index">0</property>
  <property name="kdenlive:clipname"/>
  <property name="kdenlive:clip_type">0</property>
  <property name="kdenlive:folderid">-1</property>
  <property name="kdenlive:id">409</property>
  <property name="kdenlive:file_size">69838706</property>
  <property name="kdenlive:file_hash">b9461c7a361c0a71709d7850374a2c1f</property>
  <property name="kdenlive:audio_max1">253</property>
  <property name="kdenlive:active_streams">-1</property>
  <property name="set.test_audio">1</property>
  <property name="meta.media.nb_streams">2</property>
  <property name="meta.media.0.stream.type">video</property>
  <property name="meta.media.0.stream.frame_rate">29.97</property>
  <property name="meta.media.0.stream.sample_aspect_ratio">1</property>
  <property name="meta.media.0.codec.width">1280</property>
  <property name="meta.media.0.codec.height">720</property>
  <property name="meta.media.0.codec.rotate">0</property>
  <property name="meta.media.0.codec.pix_fmt">yuv420p</property>
  <property name="meta.media.0.codec.sample_aspect_ratio">0</property>
  <property name="meta.media.0.codec.colorspace">709</property>
  <property name="meta.media.0.codec.color_trc">1</property>
  <property name="meta.media.0.codec.name">vp9</property>
  <property name="meta.media.0.codec.long_name">Google VP9</property>
  <property name="meta.media.0.codec.bit_rate">0</property>
  <property name="meta.attr.0.stream.language.markup">eng</property>
  <property name="meta.attr.0.stream.DURATION.markup">00:08:45.058000000</property>
  <property name="meta.media.1.stream.type">audio</property>
  <property name="meta.media.1.codec.sample_fmt">fltp</property>
  <property name="meta.media.1.codec.sample_rate">48000</property>
  <property name="meta.media.1.codec.channels">2</property>
  <property name="meta.media.1.codec.name">opus</property>
  <property name="meta.media.1.codec.long_name">Opus</property>
  <property name="meta.media.1.codec.bit_rate">0</property>
  <property name="meta.attr.1.stream.language.markup">eng</property>
  <property name="meta.attr.1.stream.DURATION.markup">00:08:45.141000000</property>
  <property name="meta.attr.ENCODER.markup">Lavf59.27.100</property>
  <property name="meta.media.sample_aspect_num">1</property>
  <property name="meta.media.sample_aspect_den">1</property>
  <property name="meta.media.frame_rate_num">30000</property>
  <property name="meta.media.frame_rate_den">1001</property>
  <property name="meta.media.colorspace">709</property>
  <property name="meta.media.color_trc">1</property>
  <property name="meta.media.has_b_frames">0</property>
  <property name="meta.media.width">1280</property>
  <property name="meta.media.height">720</property>
  <property name="meta.media.color_range">mpeg</property>
  <property name="xml">was here</property>
  <property name="meta.media.top_field_first">0</property>
  <property name="meta.media.progressive">1</property>
  <property name="set.test_image">0</property>
  <property name="mute_on_pause">1</property>
 </chain>
 <chain id="chain301" out="00:00:15.720">
  <property name="length">394</property>
  <property name="eof">pause</property>
  <property name="resource">animation/src/assets/latent-space-photography/latent-space.mp4</property>
  <property name="mlt_service">avformat-novalidate</property>
  <property name="seekable">1</property>
  <property name="format">3</property>
  <property name="audio_index">1</property>
  <property name="video_index">0</property>
  <property name="kdenlive:clipname"/>
  <property name="kdenlive:clip_type">0</property>
  <property name="kdenlive:folderid">-1</property>
  <property name="kdenlive:id">412</property>
  <property name="kdenlive:file_size">2438674</property>
  <property name="kdenlive:file_hash">1b733fbdf5f707d8c13e02ffcc6c407c</property>
  <property name="kdenlive:audio_max1">1</property>
  <property name="meta.media.nb_streams">2</property>
  <property name="meta.media.0.stream.type">video</property>
  <property name="meta.media.0.stream.frame_rate">23.976</property>
  <property name="meta.media.0.stream.sample_aspect_ratio">1</property>
  <property name="meta.media.0.codec.width">1920</property>
  <property name="meta.media.0.codec.height">1080</property>
  <property name="meta.media.0.codec.rotate">0</property>
  <property name="meta.media.0.codec.pix_fmt">yuv420p</property>
  <property name="meta.media.0.codec.sample_aspect_ratio">1</property>
  <property name="meta.media.0.codec.colorspace">709</property>
  <property name="meta.media.0.codec.color_trc">1</property>
  <property name="meta.media.0.codec.name">h264</property>
  <property name="meta.media.0.codec.long_name">H.264 / AVC / MPEG-4 AVC / MPEG-4 part 10</property>
  <property name="meta.media.0.codec.bit_rate">1232253</property>
  <property name="meta.attr.0.stream.handler_name.markup">VideoHandler</property>
  <property name="meta.attr.0.stream.vendor_id.markup">[0][0][0][0]</property>
  <property name="meta.media.1.stream.type">audio</property>
  <property name="meta.media.1.codec.sample_fmt">fltp</property>
  <property name="meta.media.1.codec.sample_rate">48000</property>
  <property name="meta.media.1.codec.channels">2</property>
  <property name="meta.media.1.codec.name">aac</property>
  <property name="meta.media.1.codec.long_name">AAC (Advanced Audio Coding)</property>
  <property name="meta.media.1.codec.bit_rate">2275</property>
  <property name="meta.attr.1.stream.handler_name.markup">SoundHandler</property>
  <property name="meta.attr.1.stream.vendor_id.markup">[0][0][0][0]</property>
  <property name="meta.attr.major_brand.markup">isom</property>
  <property name="meta.attr.minor_version.markup">512</property>
  <property name="meta.attr.compatible_brands.markup">isomiso2avc1mp41</property>
  <property name="meta.attr.encoder.markup">Lavf59.27.100</property>
  <property name="meta.media.sample_aspect_num">1</property>
  <property name="meta.media.sample_aspect_den">1</property>
  <property name="meta.media.frame_rate_num">24000</property>
  <property name="meta.media.frame_rate_den">1001</property>
  <property name="meta.media.colorspace">709</property>
  <property name="meta.media.color_trc">1</property>
  <property name="meta.media.has_b_frames">2</property>
  <property name="meta.media.width">1920</property>
  <property name="meta.media.height">1080</property>
  <property name="meta.media.color_range">mpeg</property>
  <property name="xml">was here</property>
  <property name="meta.media.top_field_first">0</property>
  <property name="meta.media.progressive">1</property>
  <property name="set.test_audio">1</property>
  <property name="set.test_image">0</property>
  <property name="mute_on_pause">1</property>
 </chain>
 <producer id="producer635" in="00:00:00.000" out="00:00:10.520">
  <property name="length">264</property>
  <property name="eof">pause</property>
  <property name="resource">4.000000:videos/library-of-babel.mkv</property>
  <property name="aspect_ratio">1</property>
  <property name="meta.media.nb_streams">2</property>
  <property name="meta.media.0.stream.type">video</property>
  <property name="meta.media.0.stream.frame_rate">60</property>
  <property name="meta.media.0.stream.sample_aspect_ratio">0</property>
  <property name="meta.media.0.codec.width">1920</property>
  <property name="meta.media.0.codec.height">1080</property>
  <property name="meta.media.0.codec.rotate">0</property>
  <property name="meta.media.0.codec.pix_fmt">yuv420p</property>
  <property name="meta.media.0.codec.sample_aspect_ratio">1</property>
  <property name="meta.media.0.codec.colorspace">709</property>
  <property name="meta.media.0.codec.color_trc">1</property>
  <property name="meta.media.0.codec.name">h264</property>
  <property name="meta.media.0.codec.long_name">H.264 / AVC / MPEG-4 AVC / MPEG-4 part 10</property>
  <property name="meta.media.0.codec.bit_rate">0</property>
  <property name="meta.attr.0.stream.DURATION.markup">00:00:42.284000000</property>
  <property name="meta.media.1.stream.type">audio</property>
  <property name="meta.media.1.codec.sample_fmt">fltp</property>
  <property name="meta.media.1.codec.sample_rate">48000</property>
  <property name="meta.media.1.codec.channels">1</property>
  <property name="meta.media.1.codec.name">aac</property>
  <property name="meta.media.1.codec.long_name">AAC (Advanced Audio Coding)</property>
  <property name="meta.media.1.codec.bit_rate">0</property>
  <property name="meta.attr.1.stream.title.markup">simple_aac_recording</property>
  <property name="meta.attr.1.stream.DURATION.markup">00:00:42.218000000</property>
  <property name="meta.attr.ENCODER.markup">Lavf59.27.100</property>
  <property name="seekable">1</property>
  <property name="meta.media.sample_aspect_num">1</property>
  <property name="meta.media.sample_aspect_den">1</property>
  <property name="format">3</property>
  <property name="audio_index">-1</property>
  <property name="video_index">0</property>
  <property name="mute_on_pause">1</property>
  <property name="warp_speed">4</property>
  <property name="warp_resource">videos/library-of-babel.mkv</property>
  <property name="mlt_service">timewarp</property>
  <property name="set.test_audio">1</property>
  <property name="set.test_image">0</property>
  <property name="kdenlive:id">419</property>
  <property name="warp_pitch">0</property>
  <property name="meta.media.frame_rate_num">60</property>
  <property name="meta.media.frame_rate_den">1</property>
  <property name="meta.media.colorspace">709</property>
  <property name="meta.media.color_trc">1</property>
  <property name="meta.media.has_b_frames">2</property>
  <property name="meta.media.width">1920</property>
  <property name="meta.media.height">1080</property>
  <property name="meta.media.color_range">mpeg</property>
  <property name="meta.media.top_field_first">0</property>
  <property name="meta.media.progressive">1</property>
 </producer>
 <producer id="producer636" in="00:00:00.000" out="00:00:24.640">
  <property name="length">617</property>
  <property name="eof">pause</property>
  <property name="resource">0.700000:videos/zapata-babel.mkv</property>
  <property name="aspect_ratio">1</property>
  <property name="meta.media.nb_streams">2</property>
  <property name="meta.media.0.stream.type">video</property>
  <property name="meta.media.0.stream.frame_rate">60</property>
  <property name="meta.media.0.stream.sample_aspect_ratio">0</property>
  <property name="meta.media.0.codec.width">1920</property>
  <property name="meta.media.0.codec.height">1080</property>
  <property name="meta.media.0.codec.rotate">0</property>
  <property name="meta.media.0.codec.pix_fmt">yuv420p</property>
  <property name="meta.media.0.codec.sample_aspect_ratio">1</property>
  <property name="meta.media.0.codec.colorspace">709</property>
  <property name="meta.media.0.codec.color_trc">1</property>
  <property name="meta.media.0.codec.name">h264</property>
  <property name="meta.media.0.codec.long_name">H.264 / AVC / MPEG-4 AVC / MPEG-4 part 10</property>
  <property name="meta.media.0.codec.bit_rate">0</property>
  <property name="meta.attr.0.stream.DURATION.markup">00:00:17.267000000</property>
  <property name="meta.media.1.stream.type">audio</property>
  <property name="meta.media.1.codec.sample_fmt">fltp</property>
  <property name="meta.media.1.codec.sample_rate">48000</property>
  <property name="meta.media.1.codec.channels">2</property>
  <property name="meta.media.1.codec.name">aac</property>
  <property name="meta.media.1.codec.long_name">AAC (Advanced Audio Coding)</property>
  <property name="meta.media.1.codec.bit_rate">0</property>
  <property name="meta.attr.1.stream.title.markup">simple_aac_recording</property>
  <property name="meta.attr.1.stream.DURATION.markup">00:00:17.194000000</property>
  <property name="meta.attr.ENCODER.markup">Lavf59.27.100</property>
  <property name="seekable">1</property>
  <property name="meta.media.sample_aspect_num">1</property>
  <property name="meta.media.sample_aspect_den">1</property>
  <property name="format">3</property>
  <property name="audio_index">1</property>
  <property name="video_index">0</property>
  <property name="mute_on_pause">1</property>
  <property name="warp_speed">0.7</property>
  <property name="warp_resource">videos/zapata-babel.mkv</property>
  <property name="mlt_service">timewarp</property>
  <property name="set.test_audio">1</property>
  <property name="set.test_image">0</property>
  <property name="kdenlive:id">420</property>
  <property name="warp_pitch">0</property>
  <property name="meta.media.frame_rate_num">60</property>
  <property name="meta.media.frame_rate_den">1</property>
  <property name="meta.media.colorspace">709</property>
  <property name="meta.media.color_trc">1</property>
  <property name="meta.media.has_b_frames">2</property>
  <property name="meta.media.width">1920</property>
  <property name="meta.media.height">1080</property>
  <property name="meta.media.color_range">mpeg</property>
  <property name="meta.media.top_field_first">0</property>
  <property name="meta.media.progressive">1</property>
 </producer>
 <chain id="chain302" out="00:04:09.960">
  <property name="length">6250</property>
  <property name="eof">pause</property>
  <property name="resource">animation/output/actual-latent-space.mp4</property>
  <property name="mlt_service">avformat-novalidate</property>
  <property name="seekable">1</property>
  <property name="format">3</property>
  <property name="audio_index">-1</property>
  <property name="video_index">0</property>
  <property name="kdenlive:clipname"/>
  <property name="kdenlive:clip_type">2</property>
  <property name="kdenlive:folderid">-1</property>
  <property name="kdenlive:id">421</property>
  <property name="kdenlive:file_size">15422944</property>
  <property name="kdenlive:file_hash">85c95f05ae8b75fbd29ed678508da5f1</property>
  <property name="meta.media.nb_streams">1</property>
  <property name="meta.media.0.stream.type">video</property>
  <property name="meta.media.0.stream.frame_rate">60</property>
  <property name="meta.media.0.stream.sample_aspect_ratio">0</property>
  <property name="meta.media.0.codec.width">1920</property>
  <property name="meta.media.0.codec.height">1080</property>
  <property name="meta.media.0.codec.rotate">0</property>
  <property name="meta.media.0.codec.pix_fmt">yuv420p</property>
  <property name="meta.media.0.codec.sample_aspect_ratio">0</property>
  <property name="meta.media.0.codec.colorspace">709</property>
  <property name="meta.media.0.codec.name">h264</property>
  <property name="meta.media.0.codec.long_name">H.264 / AVC / MPEG-4 AVC / MPEG-4 part 10</property>
  <property name="meta.media.0.codec.bit_rate">487802</property>
  <property name="meta.attr.0.stream.handler_name.markup">VideoHandler</property>
  <property name="meta.attr.0.stream.vendor_id.markup">[0][0][0][0]</property>
  <property name="meta.attr.major_brand.markup">isom</property>
  <property name="meta.attr.minor_version.markup">512</property>
  <property name="meta.attr.compatible_brands.markup">isomiso2avc1mp41</property>
  <property name="meta.attr.encoder.markup">Lavf58.24.100</property>
  <property name="meta.media.sample_aspect_num">1</property>
  <property name="meta.media.sample_aspect_den">1</property>
  <property name="meta.media.frame_rate_num">60</property>
  <property name="meta.media.frame_rate_den">1</property>
  <property name="meta.media.colorspace">709</property>
  <property name="meta.media.color_trc">2</property>
  <property name="meta.media.has_b_frames">2</property>
  <property name="meta.media.width">1920</property>
  <property name="meta.media.height">1080</property>
  <property name="meta.media.color_range">mpeg</property>
  <property name="xml">was here</property>
  <property name="meta.media.top_field_first">0</property>
  <property name="meta.media.progressive">1</property>
  <property name="set.test_audio">1</property>
  <property name="set.test_image">0</property>
  <property name="mute_on_pause">1</property>
 </chain>
 <producer id="producer637" in="00:00:00.000" out="00:00:12.600">
  <property name="length">00:00:12.640</property>
  <property name="eof">pause</property>
  <property name="resource">animation/output/latent-space-photography-disanalogy/.all.png</property>
  <property name="ttl">1</property>
  <property name="aspect_ratio">1</property>
  <property name="progressive">1</property>
  <property name="seekable">1</property>
  <property name="format">2</property>
  <property name="meta.media.width">1920</property>
  <property name="meta.media.height">1080</property>
  <property name="mlt_service">qimage</property>
  <property name="kdenlive:clipname">latent-space-analogy-disanalogy</property>
  <property name="low-pass">0</property>
  <property name="animation"/>
  <property name="luma_file"/>
  <property name="luma_duration">25</property>
  <property name="fade">0</property>
  <property name="crop">0</property>
  <property name="softness">0</property>
  <property name="loop">0</property>
  <property name="kdenlive:duration">00:00:12:16</property>
  <property name="kdenlive:folderid">-1</property>
  <property name="kdenlive:id">432</property>
  <property name="kdenlive:clip_type">2</property>
  <property name="kdenlive:file_hash">a824ec67c4877c206ca20b8aea05e0a2</property>
  <property name="xml">was here</property>
  <property name="set.test_audio">1</property>
  <property name="set.test_image">0</property>
 </producer>
 <chain id="chain303" out="00:08:14.640">
  <property name="length">12367</property>
  <property name="eof">pause</property>
  <property name="resource">/home/liquidzulu/Videos/yt/b-roll/Forests in the olden days [zVPUFMwm73Y].webm</property>
  <property name="mlt_service">avformat-novalidate</property>
  <property name="seekable">1</property>
  <property name="format">3</property>
  <property name="audio_index">-1</property>
  <property name="video_index">0</property>
  <property name="kdenlive:clipname"/>
  <property name="kdenlive:clip_type">0</property>
  <property name="kdenlive:folderid">-1</property>
  <property name="kdenlive:id">438</property>
  <property name="kdenlive:file_size">160813038</property>
  <property name="kdenlive:file_hash">ecd6e5441329e12cdee53bf8e9b3b057</property>
  <property name="kdenlive:audio_max1">218</property>
  <property name="kdenlive:active_streams">-1</property>
  <property name="set.test_audio">1</property>
  <property name="meta.media.nb_streams">2</property>
  <property name="meta.media.0.stream.type">video</property>
  <property name="meta.media.0.stream.frame_rate">25</property>
  <property name="meta.media.0.stream.sample_aspect_ratio">1</property>
  <property name="meta.media.0.codec.width">1920</property>
  <property name="meta.media.0.codec.height">1080</property>
  <property name="meta.media.0.codec.rotate">0</property>
  <property name="meta.media.0.codec.pix_fmt">yuv420p</property>
  <property name="meta.media.0.codec.sample_aspect_ratio">0</property>
  <property name="meta.media.0.codec.colorspace">709</property>
  <property name="meta.media.0.codec.color_trc">1</property>
  <property name="meta.media.0.codec.name">vp9</property>
  <property name="meta.media.0.codec.long_name">Google VP9</property>
  <property name="meta.media.0.codec.bit_rate">0</property>
  <property name="meta.attr.0.stream.language.markup">eng</property>
  <property name="meta.attr.0.stream.DURATION.markup">00:08:14.640000000</property>
  <property name="meta.media.1.stream.type">audio</property>
  <property name="meta.media.1.codec.sample_fmt">fltp</property>
  <property name="meta.media.1.codec.sample_rate">48000</property>
  <property name="meta.media.1.codec.channels">2</property>
  <property name="meta.media.1.codec.name">opus</property>
  <property name="meta.media.1.codec.long_name">Opus</property>
  <property name="meta.media.1.codec.bit_rate">0</property>
  <property name="meta.attr.1.stream.language.markup">eng</property>
  <property name="meta.attr.1.stream.DURATION.markup">00:08:14.661000000</property>
  <property name="meta.attr.ENCODER.markup">Lavf59.27.100</property>
  <property name="meta.media.sample_aspect_num">1</property>
  <property name="meta.media.sample_aspect_den">1</property>
  <property name="meta.media.frame_rate_num">25</property>
  <property name="meta.media.frame_rate_den">1</property>
  <property name="meta.media.colorspace">709</property>
  <property name="meta.media.color_trc">1</property>
  <property name="meta.media.has_b_frames">0</property>
  <property name="meta.media.width">1920</property>
  <property name="meta.media.height">1080</property>
  <property name="meta.media.color_range">mpeg</property>
  <property name="xml">was here</property>
  <property name="meta.media.top_field_first">0</property>
  <property name="meta.media.progressive">1</property>
  <property name="set.test_image">0</property>
  <property name="mute_on_pause">1</property>
 </chain>
 <chain id="chain314" out="00:03:13.480">
  <property name="length">4838</property>
  <property name="eof">pause</property>
  <property name="resource">/home/liquidzulu/Videos/yt/b-roll/Epic NEW YORK City Timelapse &amp; Hyperlapse in 4K Ultra HD [U3_uxUSeZV4].webm</property>
  <property name="mlt_service">avformat-novalidate</property>
  <property name="seekable">1</property>
  <property name="format">3</property>
  <property name="audio_index">-1</property>
  <property name="video_index">0</property>
  <property name="kdenlive:clipname"/>
  <property name="kdenlive:clip_type">0</property>
  <property name="kdenlive:folderid">-1</property>
  <property name="kdenlive:id">442</property>
  <property name="kdenlive:file_size">273746700</property>
  <property name="kdenlive:file_hash">91adaaaf27ec8d09f0c0a5f1acb2a4a0</property>
  <property name="kdenlive:audio_max1">202</property>
  <property name="kdenlive:active_streams">-1</property>
  <property name="set.test_audio">1</property>
  <property name="meta.media.nb_streams">2</property>
  <property name="meta.media.0.stream.type">video</property>
  <property name="meta.media.0.stream.frame_rate">30</property>
  <property name="meta.media.0.stream.sample_aspect_ratio">1</property>
  <property name="meta.media.0.codec.width">3840</property>
  <property name="meta.media.0.codec.height">1634</property>
  <property name="meta.media.0.codec.rotate">0</property>
  <property name="meta.media.0.codec.pix_fmt">yuv420p</property>
  <property name="meta.media.0.codec.sample_aspect_ratio">0</property>
  <property name="meta.media.0.codec.colorspace">709</property>
  <property name="meta.media.0.codec.color_trc">1</property>
  <property name="meta.media.0.codec.name">vp9</property>
  <property name="meta.media.0.codec.long_name">Google VP9</property>
  <property name="meta.media.0.codec.bit_rate">0</property>
  <property name="meta.attr.0.stream.language.markup">eng</property>
  <property name="meta.attr.0.stream.DURATION.markup">00:03:13.500000000</property>
  <property name="meta.media.1.stream.type">audio</property>
  <property name="meta.media.1.codec.sample_fmt">fltp</property>
  <property name="meta.media.1.codec.sample_rate">48000</property>
  <property name="meta.media.1.codec.channels">2</property>
  <property name="meta.media.1.codec.name">opus</property>
  <property name="meta.media.1.codec.long_name">Opus</property>
  <property name="meta.media.1.codec.bit_rate">0</property>
  <property name="meta.attr.1.stream.language.markup">eng</property>
  <property name="meta.attr.1.stream.DURATION.markup">00:03:13.521000000</property>
  <property name="meta.attr.ENCODER.markup">Lavf59.27.100</property>
  <property name="meta.media.sample_aspect_num">1</property>
  <property name="meta.media.sample_aspect_den">1</property>
  <property name="meta.media.frame_rate_num">30</property>
  <property name="meta.media.frame_rate_den">1</property>
  <property name="meta.media.colorspace">709</property>
  <property name="meta.media.color_trc">1</property>
  <property name="meta.media.has_b_frames">0</property>
  <property name="meta.media.width">3840</property>
  <property name="meta.media.height">1634</property>
  <property name="meta.media.color_range">mpeg</property>
  <property name="xml">was here</property>
  <property name="meta.media.top_field_first">0</property>
  <property name="meta.media.progressive">1</property>
  <property name="set.test_image">0</property>
  <property name="mute_on_pause">1</property>
 </chain>
 <chain id="chain315" out="00:20:16.640">
  <property name="length">30417</property>
  <property name="eof">pause</property>
  <property name="resource">/home/liquidzulu/Videos/yt/b-roll/100 Days Building A Modern Underground Hut With A Grass Roof And A Swimming Pool [tYf0BoFe9D8].webm</property>
  <property name="mlt_service">avformat-novalidate</property>
  <property name="seekable">1</property>
  <property name="format">3</property>
  <property name="audio_index">-1</property>
  <property name="video_index">0</property>
  <property name="kdenlive:clipname"/>
  <property name="kdenlive:clip_type">0</property>
  <property name="kdenlive:folderid">14</property>
  <property name="kdenlive:id">445</property>
  <property name="kdenlive:file_size">650692365</property>
  <property name="kdenlive:file_hash">83b277668989d829a4deb398715f2361</property>
  <property name="kdenlive:audio_max1">210</property>
  <property name="kdenlive:active_streams">-1</property>
  <property name="set.test_audio">1</property>
  <property name="meta.media.nb_streams">2</property>
  <property name="meta.media.0.stream.type">video</property>
  <property name="meta.media.0.stream.frame_rate">59.9401</property>
  <property name="meta.media.0.stream.sample_aspect_ratio">1</property>
  <property name="meta.media.0.codec.width">1920</property>
  <property name="meta.media.0.codec.height">1080</property>
  <property name="meta.media.0.codec.rotate">0</property>
  <property name="meta.media.0.codec.pix_fmt">yuv420p</property>
  <property name="meta.media.0.codec.sample_aspect_ratio">0</property>
  <property name="meta.media.0.codec.colorspace">709</property>
  <property name="meta.media.0.codec.color_trc">1</property>
  <property name="meta.media.0.codec.name">vp9</property>
  <property name="meta.media.0.codec.long_name">Google VP9</property>
  <property name="meta.media.0.codec.bit_rate">0</property>
  <property name="meta.attr.0.stream.language.markup">eng</property>
  <property name="meta.attr.0.stream.DURATION.markup">00:20:16.648000000</property>
  <property name="meta.media.1.stream.type">audio</property>
  <property name="meta.media.1.codec.sample_fmt">fltp</property>
  <property name="meta.media.1.codec.sample_rate">48000</property>
  <property name="meta.media.1.codec.channels">2</property>
  <property name="meta.media.1.codec.name">opus</property>
  <property name="meta.media.1.codec.long_name">Opus</property>
  <property name="meta.media.1.codec.bit_rate">0</property>
  <property name="meta.attr.1.stream.language.markup">eng</property>
  <property name="meta.attr.1.stream.DURATION.markup">00:20:16.681000000</property>
  <property name="meta.attr.ENCODER.markup">Lavf59.27.100</property>
  <property name="meta.media.sample_aspect_num">1</property>
  <property name="meta.media.sample_aspect_den">1</property>
  <property name="meta.media.frame_rate_num">60000</property>
  <property name="meta.media.frame_rate_den">1001</property>
  <property name="meta.media.colorspace">709</property>
  <property name="meta.media.color_trc">1</property>
  <property name="meta.media.has_b_frames">0</property>
  <property name="meta.media.width">1920</property>
  <property name="meta.media.height">1080</property>
  <property name="meta.media.color_range">mpeg</property>
  <property name="xml">was here</property>
  <property name="meta.media.top_field_first">0</property>
  <property name="meta.media.progressive">1</property>
  <property name="set.test_image">0</property>
  <property name="mute_on_pause">1</property>
 </chain>
 <chain id="chain316" out="01:29:44.560">
  <property name="length">134615</property>
  <property name="eof">pause</property>
  <property name="resource">b-roll/The existential threat of AI art and why not to quit drawing - Sketchy Van Podcast #60 Steven Zapata [OCY7lb_i0yM].webm</property>
  <property name="mlt_service">avformat-novalidate</property>
  <property name="seekable">1</property>
  <property name="format">3</property>
  <property name="audio_index">1</property>
  <property name="video_index">0</property>
  <property name="kdenlive:clipname"/>
  <property name="kdenlive:clip_type">0</property>
  <property name="kdenlive:folderid">14</property>
  <property name="kdenlive:id">15</property>
  <property name="kdenlive:file_size">688601410</property>
  <property name="kdenlive:file_hash">ec2cc4d9055656138f14a8b4cd1ae4e8</property>
  <property name="kdenlive:audio_max1">227</property>
  <property name="meta.media.nb_streams">2</property>
  <property name="meta.media.0.stream.type">video</property>
  <property name="meta.media.0.stream.frame_rate">23.976</property>
  <property name="meta.media.0.stream.sample_aspect_ratio">1</property>
  <property name="meta.media.0.codec.width">1920</property>
  <property name="meta.media.0.codec.height">1080</property>
  <property name="meta.media.0.codec.rotate">0</property>
  <property name="meta.media.0.codec.pix_fmt">yuv420p</property>
  <property name="meta.media.0.codec.sample_aspect_ratio">0</property>
  <property name="meta.media.0.codec.colorspace">709</property>
  <property name="meta.media.0.codec.color_trc">1</property>
  <property name="meta.media.0.codec.name">vp9</property>
  <property name="meta.media.0.codec.long_name">Google VP9</property>
  <property name="meta.media.0.codec.bit_rate">0</property>
  <property name="meta.attr.0.stream.language.markup">eng</property>
  <property name="meta.attr.0.stream.DURATION.markup">01:29:44.545000000</property>
  <property name="meta.media.1.stream.type">audio</property>
  <property name="meta.media.1.codec.sample_fmt">fltp</property>
  <property name="meta.media.1.codec.sample_rate">48000</property>
  <property name="meta.media.1.codec.channels">2</property>
  <property name="meta.media.1.codec.name">opus</property>
  <property name="meta.media.1.codec.long_name">Opus</property>
  <property name="meta.media.1.codec.bit_rate">0</property>
  <property name="meta.attr.1.stream.language.markup">eng</property>
  <property name="meta.attr.1.stream.DURATION.markup">01:29:44.581000000</property>
  <property name="meta.attr.ENCODER.markup">Lavf59.27.100</property>
  <property name="meta.media.sample_aspect_num">1</property>
  <property name="meta.media.sample_aspect_den">1</property>
  <property name="meta.media.frame_rate_num">24000</property>
  <property name="meta.media.frame_rate_den">1001</property>
  <property name="meta.media.colorspace">709</property>
  <property name="meta.media.color_trc">1</property>
  <property name="meta.media.has_b_frames">0</property>
  <property name="meta.media.width">1920</property>
  <property name="meta.media.height">1080</property>
  <property name="meta.media.color_range">mpeg</property>
  <property name="xml">was here</property>
  <property name="meta.media.top_field_first">0</property>
  <property name="meta.media.progressive">1</property>
  <property name="set.test_audio">1</property>
  <property name="set.test_image">0</property>
  <property name="mute_on_pause">1</property>
 </chain>
 <chain id="chain317" out="01:47:32.080">
  <property name="length">161303</property>
  <property name="eof">pause</property>
  <property name="resource">b-roll/Miles Johnstonï¼š Cheeky AI, The Total Set of Images, and Polite Revolution [EqpWfYX7ou8].webm</property>
  <property name="mlt_service">avformat-novalidate</property>
  <property name="seekable">1</property>
  <property name="format">3</property>
  <property name="audio_index">-1</property>
  <property name="video_index">0</property>
  <property name="kdenlive:clipname"/>
  <property name="kdenlive:clip_type">0</property>
  <property name="kdenlive:folderid">14</property>
  <property name="kdenlive:id">422</property>
  <property name="kdenlive:file_size">438888186</property>
  <property name="kdenlive:file_hash">db0f4f2e9e03634508d991031c21cd03</property>
  <property name="kdenlive:audio_max1">210</property>
  <property name="kdenlive:active_streams">-1</property>
  <property name="set.test_audio">1</property>
  <property name="meta.media.nb_streams">2</property>
  <property name="meta.media.0.stream.type">video</property>
  <property name="meta.media.0.stream.frame_rate">25</property>
  <property name="meta.media.0.stream.sample_aspect_ratio">1</property>
  <property name="meta.media.0.codec.width">1280</property>
  <property name="meta.media.0.codec.height">720</property>
  <property name="meta.media.0.codec.rotate">0</property>
  <property name="meta.media.0.codec.pix_fmt">yuv420p</property>
  <property name="meta.media.0.codec.sample_aspect_ratio">0</property>
  <property name="meta.media.0.codec.colorspace">709</property>
  <property name="meta.media.0.codec.color_trc">1</property>
  <property name="meta.media.0.codec.name">vp9</property>
  <property name="meta.media.0.codec.long_name">Google VP9</property>
  <property name="meta.media.0.codec.bit_rate">0</property>
  <property name="meta.attr.0.stream.language.markup">eng</property>
  <property name="meta.attr.0.stream.DURATION.markup">01:47:32.080000000</property>
  <property name="meta.media.1.stream.type">audio</property>
  <property name="meta.media.1.codec.sample_fmt">fltp</property>
  <property name="meta.media.1.codec.sample_rate">48000</property>
  <property name="meta.media.1.codec.channels">2</property>
  <property name="meta.media.1.codec.name">opus</property>
  <property name="meta.media.1.codec.long_name">Opus</property>
  <property name="meta.media.1.codec.bit_rate">0</property>
  <property name="meta.attr.1.stream.language.markup">eng</property>
  <property name="meta.attr.1.stream.DURATION.markup">01:47:32.121000000</property>
  <property name="meta.attr.ENCODER.markup">Lavf59.27.100</property>
  <property name="meta.media.sample_aspect_num">1</property>
  <property name="meta.media.sample_aspect_den">1</property>
  <property name="meta.media.frame_rate_num">25</property>
  <property name="meta.media.frame_rate_den">1</property>
  <property name="meta.media.colorspace">709</property>
  <property name="meta.media.color_trc">1</property>
  <property name="meta.media.has_b_frames">0</property>
  <property name="meta.media.width">1280</property>
  <property name="meta.media.height">720</property>
  <property name="meta.media.color_range">mpeg</property>
  <property name="xml">was here</property>
  <property name="meta.media.top_field_first">0</property>
  <property name="meta.media.progressive">1</property>
  <property name="set.test_image">0</property>
  <property name="mute_on_pause">1</property>
 </chain>
 <chain id="chain318" out="00:00:20.720">
  <property name="length">519</property>
  <property name="eof">pause</property>
  <property name="resource">animation/output/zapata-argument.mp4</property>
  <property name="mlt_service">avformat-novalidate</property>
  <property name="seekable">1</property>
  <property name="format">3</property>
  <property name="audio_index">-1</property>
  <property name="video_index">0</property>
  <property name="kdenlive:clipname"/>
  <property name="kdenlive:clip_type">2</property>
  <property name="kdenlive:folderid">218</property>
  <property name="kdenlive:id">403</property>
  <property name="kdenlive:file_size">1157352</property>
  <property name="kdenlive:file_hash">a97ecac66f4a455dde92beba3f742f04</property>
  <property name="meta.media.nb_streams">1</property>
  <property name="meta.media.0.stream.type">video</property>
  <property name="meta.media.0.stream.frame_rate">60</property>
  <property name="meta.media.0.stream.sample_aspect_ratio">0</property>
  <property name="meta.media.0.codec.width">1920</property>
  <property name="meta.media.0.codec.height">1080</property>
  <property name="meta.media.0.codec.rotate">0</property>
  <property name="meta.media.0.codec.pix_fmt">yuv420p</property>
  <property name="meta.media.0.codec.sample_aspect_ratio">0</property>
  <property name="meta.media.0.codec.colorspace">709</property>
  <property name="meta.media.0.codec.name">h264</property>
  <property name="meta.media.0.codec.long_name">H.264 / AVC / MPEG-4 AVC / MPEG-4 part 10</property>
  <property name="meta.media.0.codec.bit_rate">439852</property>
  <property name="meta.attr.0.stream.handler_name.markup">VideoHandler</property>
  <property name="meta.attr.0.stream.vendor_id.markup">[0][0][0][0]</property>
  <property name="meta.attr.major_brand.markup">isom</property>
  <property name="meta.attr.minor_version.markup">512</property>
  <property name="meta.attr.compatible_brands.markup">isomiso2avc1mp41</property>
  <property name="meta.attr.encoder.markup">Lavf58.24.100</property>
  <property name="meta.media.sample_aspect_num">1</property>
  <property name="meta.media.sample_aspect_den">1</property>
  <property name="meta.media.frame_rate_num">60</property>
  <property name="meta.media.frame_rate_den">1</property>
  <property name="meta.media.colorspace">709</property>
  <property name="meta.media.color_trc">2</property>
  <property name="meta.media.has_b_frames">2</property>
  <property name="meta.media.width">1920</property>
  <property name="meta.media.height">1080</property>
  <property name="meta.media.color_range">mpeg</property>
  <property name="xml">was here</property>
  <property name="meta.media.top_field_first">0</property>
  <property name="meta.media.progressive">1</property>
  <property name="set.test_audio">1</property>
  <property name="set.test_image">0</property>
  <property name="mute_on_pause">1</property>
 </chain>
 <chain id="chain319" out="00:20:20.360">
  <property name="length">30510</property>
  <property name="eof">pause</property>
  <property name="resource">b-roll/What Does Your Imagination Look Likeï¼Ÿ [ZOIIZiEUNmg].webm</property>
  <property name="mlt_service">avformat-novalidate</property>
  <property name="seekable">1</property>
  <property name="format">3</property>
  <property name="audio_index">-1</property>
  <property name="video_index">0</property>
  <property name="kdenlive:clipname"/>
  <property name="kdenlive:clip_type">0</property>
  <property name="kdenlive:folderid">-1</property>
  <property name="kdenlive:id">478</property>
  <property name="kdenlive:file_size">1297047636</property>
  <property name="kdenlive:file_hash">91c394f517b50d55c5c4e6fdd3d1fe85</property>
  <property name="kdenlive:active_streams">-1</property>
  <property name="set.test_audio">1</property>
  <property name="kdenlive:audio_max1">227</property>
  <property name="meta.media.nb_streams">2</property>
  <property name="meta.media.0.stream.type">video</property>
  <property name="meta.media.0.stream.frame_rate">30</property>
  <property name="meta.media.0.stream.sample_aspect_ratio">1</property>
  <property name="meta.media.0.codec.width">3840</property>
  <property name="meta.media.0.codec.height">2160</property>
  <property name="meta.media.0.codec.rotate">0</property>
  <property name="meta.media.0.codec.pix_fmt">yuv420p</property>
  <property name="meta.media.0.codec.sample_aspect_ratio">0</property>
  <property name="meta.media.0.codec.colorspace">709</property>
  <property name="meta.media.0.codec.color_trc">1</property>
  <property name="meta.media.0.codec.name">vp9</property>
  <property name="meta.media.0.codec.long_name">Google VP9</property>
  <property name="meta.media.0.codec.bit_rate">0</property>
  <property name="meta.attr.0.stream.language.markup">eng</property>
  <property name="meta.attr.0.stream.DURATION.markup">00:20:20.367000000</property>
  <property name="meta.media.1.stream.type">audio</property>
  <property name="meta.media.1.codec.sample_fmt">fltp</property>
  <property name="meta.media.1.codec.sample_rate">48000</property>
  <property name="meta.media.1.codec.channels">2</property>
  <property name="meta.media.1.codec.name">opus</property>
  <property name="meta.media.1.codec.long_name">Opus</property>
  <property name="meta.media.1.codec.bit_rate">0</property>
  <property name="meta.attr.1.stream.language.markup">eng</property>
  <property name="meta.attr.1.stream.DURATION.markup">00:20:20.381000000</property>
  <property name="meta.attr.ENCODER.markup">Lavf59.27.100</property>
  <property name="meta.media.sample_aspect_num">1</property>
  <property name="meta.media.sample_aspect_den">1</property>
  <property name="meta.media.frame_rate_num">30</property>
  <property name="meta.media.frame_rate_den">1</property>
  <property name="meta.media.colorspace">709</property>
  <property name="meta.media.color_trc">1</property>
  <property name="meta.media.has_b_frames">0</property>
  <property name="meta.media.width">3840</property>
  <property name="meta.media.height">2160</property>
  <property name="meta.media.color_range">mpeg</property>
  <property name="xml">was here</property>
  <property name="meta.media.top_field_first">0</property>
  <property name="meta.media.progressive">1</property>
  <property name="set.test_image">0</property>
  <property name="mute_on_pause">1</property>
 </chain>
 <chain id="chain320" out="00:01:45.400">
  <property name="length">2636</property>
  <property name="eof">pause</property>
  <property name="resource">animation/output/efficient-vs-inefficient.mp4</property>
  <property name="mlt_service">avformat-novalidate</property>
  <property name="seekable">1</property>
  <property name="format">3</property>
  <property name="audio_index">-1</property>
  <property name="video_index">0</property>
  <property name="kdenlive:clipname"/>
  <property name="kdenlive:clip_type">2</property>
  <property name="kdenlive:folderid">218</property>
  <property name="kdenlive:id">490</property>
  <property name="kdenlive:file_size">13916333</property>
  <property name="kdenlive:file_hash">c89fef2b8f4f93ea0d4632d119675bb2</property>
  <property name="meta.media.nb_streams">1</property>
  <property name="meta.media.0.stream.type">video</property>
  <property name="meta.media.0.stream.frame_rate">60</property>
  <property name="meta.media.0.stream.sample_aspect_ratio">0</property>
  <property name="meta.media.0.codec.width">1920</property>
  <property name="meta.media.0.codec.height">1080</property>
  <property name="meta.media.0.codec.rotate">0</property>
  <property name="meta.media.0.codec.pix_fmt">yuv420p</property>
  <property name="meta.media.0.codec.sample_aspect_ratio">0</property>
  <property name="meta.media.0.codec.colorspace">709</property>
  <property name="meta.media.0.codec.name">h264</property>
  <property name="meta.media.0.codec.long_name">H.264 / AVC / MPEG-4 AVC / MPEG-4 part 10</property>
  <property name="meta.media.0.codec.bit_rate">1050365</property>
  <property name="meta.attr.0.stream.handler_name.markup">VideoHandler</property>
  <property name="meta.attr.0.stream.vendor_id.markup">[0][0][0][0]</property>
  <property name="meta.attr.major_brand.markup">isom</property>
  <property name="meta.attr.minor_version.markup">512</property>
  <property name="meta.attr.compatible_brands.markup">isomiso2avc1mp41</property>
  <property name="meta.attr.encoder.markup">Lavf58.24.100</property>
  <property name="meta.media.sample_aspect_num">1</property>
  <property name="meta.media.sample_aspect_den">1</property>
  <property name="meta.media.frame_rate_num">60</property>
  <property name="meta.media.frame_rate_den">1</property>
  <property name="meta.media.colorspace">709</property>
  <property name="meta.media.color_trc">2</property>
  <property name="meta.media.has_b_frames">2</property>
  <property name="meta.media.width">1920</property>
  <property name="meta.media.height">1080</property>
  <property name="meta.media.color_range">mpeg</property>
  <property name="xml">was here</property>
  <property name="meta.media.top_field_first">0</property>
  <property name="meta.media.progressive">1</property>
  <property name="set.test_audio">1</property>
  <property name="set.test_image">0</property>
  <property name="mute_on_pause">1</property>
 </chain>
 <chain id="chain321" out="00:04:41.080">
  <property name="length">7028</property>
  <property name="eof">pause</property>
  <property name="resource">/home/liquidzulu/Videos/yt/b-roll/Introduction to Consumer Choice [oG_R1jQPqTc].webm</property>
  <property name="mlt_service">avformat-novalidate</property>
  <property name="seekable">1</property>
  <property name="format">3</property>
  <property name="audio_index">-1</property>
  <property name="video_index">0</property>
  <property name="kdenlive:clipname"/>
  <property name="kdenlive:clip_type">0</property>
  <property name="kdenlive:folderid">-1</property>
  <property name="kdenlive:id">493</property>
  <property name="kdenlive:file_size">35979671</property>
  <property name="kdenlive:file_hash">c4027f5546ef85b161b3fc692c72f6aa</property>
  <property name="kdenlive:audio_max1">223</property>
  <property name="kdenlive:active_streams">-1</property>
  <property name="set.test_audio">1</property>
  <property name="meta.media.nb_streams">2</property>
  <property name="meta.media.0.stream.type">video</property>
  <property name="meta.media.0.stream.frame_rate">23.976</property>
  <property name="meta.media.0.stream.sample_aspect_ratio">1</property>
  <property name="meta.media.0.codec.width">1920</property>
  <property name="meta.media.0.codec.height">1080</property>
  <property name="meta.media.0.codec.rotate">0</property>
  <property name="meta.media.0.codec.pix_fmt">yuv420p</property>
  <property name="meta.media.0.codec.sample_aspect_ratio">0</property>
  <property name="meta.media.0.codec.colorspace">709</property>
  <property name="meta.media.0.codec.color_trc">1</property>
  <property name="meta.media.0.codec.name">vp9</property>
  <property name="meta.media.0.codec.long_name">Google VP9</property>
  <property name="meta.media.0.codec.bit_rate">0</property>
  <property name="meta.attr.0.stream.language.markup">eng</property>
  <property name="meta.attr.0.stream.DURATION.markup">00:04:41.072000000</property>
  <property name="meta.media.1.stream.type">audio</property>
  <property name="meta.media.1.codec.sample_fmt">fltp</property>
  <property name="meta.media.1.codec.sample_rate">48000</property>
  <property name="meta.media.1.codec.channels">2</property>
  <property name="meta.media.1.codec.name">opus</property>
  <property name="meta.media.1.codec.long_name">Opus</property>
  <property name="meta.media.1.codec.bit_rate">0</property>
  <property name="meta.attr.1.stream.language.markup">eng</property>
  <property name="meta.attr.1.stream.DURATION.markup">00:04:41.101000000</property>
  <property name="meta.attr.ENCODER.markup">Lavf59.27.100</property>
  <property name="meta.media.sample_aspect_num">1</property>
  <property name="meta.media.sample_aspect_den">1</property>
  <property name="meta.media.frame_rate_num">24000</property>
  <property name="meta.media.frame_rate_den">1001</property>
  <property name="meta.media.colorspace">709</property>
  <property name="meta.media.color_trc">1</property>
  <property name="meta.media.has_b_frames">0</property>
  <property name="meta.media.width">1920</property>
  <property name="meta.media.height">1080</property>
  <property name="meta.media.color_range">mpeg</property>
  <property name="xml">was here</property>
  <property name="meta.media.top_field_first">0</property>
  <property name="meta.media.progressive">1</property>
  <property name="set.test_image">0</property>
  <property name="mute_on_pause">1</property>
 </chain>
 <chain id="chain322" out="00:13:18.080">
  <property name="length">19953</property>
  <property name="eof">pause</property>
  <property name="resource">b-roll/Sculpting SHREK Diorama ï½œ Timelapse [z9w-Uw8Xh5k].webm</property>
  <property name="mlt_service">avformat-novalidate</property>
  <property name="seekable">1</property>
  <property name="format">3</property>
  <property name="audio_index">-1</property>
  <property name="video_index">0</property>
  <property name="kdenlive:clipname"/>
  <property name="kdenlive:clip_type">0</property>
  <property name="kdenlive:folderid">-1</property>
  <property name="kdenlive:id">504</property>
  <property name="kdenlive:file_size">121466059</property>
  <property name="kdenlive:file_hash">aa38b637ec3a359a80d637d98c1b40f9</property>
  <property name="kdenlive:active_streams">-1</property>
  <property name="set.test_audio">1</property>
  <property name="kdenlive:audio_max1">208</property>
  <property name="meta.media.nb_streams">2</property>
  <property name="meta.media.0.stream.type">video</property>
  <property name="meta.media.0.stream.frame_rate">60</property>
  <property name="meta.media.0.stream.sample_aspect_ratio">1</property>
  <property name="meta.media.0.codec.width">1920</property>
  <property name="meta.media.0.codec.height">1080</property>
  <property name="meta.media.0.codec.rotate">0</property>
  <property name="meta.media.0.codec.pix_fmt">yuv420p</property>
  <property name="meta.media.0.codec.sample_aspect_ratio">0</property>
  <property name="meta.media.0.codec.colorspace">709</property>
  <property name="meta.media.0.codec.color_trc">1</property>
  <property name="meta.media.0.codec.name">vp9</property>
  <property name="meta.media.0.codec.long_name">Google VP9</property>
  <property name="meta.media.0.codec.bit_rate">0</property>
  <property name="meta.attr.0.stream.language.markup">eng</property>
  <property name="meta.attr.0.stream.DURATION.markup">00:13:18.066000000</property>
  <property name="meta.media.1.stream.type">audio</property>
  <property name="meta.media.1.codec.sample_fmt">fltp</property>
  <property name="meta.media.1.codec.sample_rate">48000</property>
  <property name="meta.media.1.codec.channels">2</property>
  <property name="meta.media.1.codec.name">opus</property>
  <property name="meta.media.1.codec.long_name">Opus</property>
  <property name="meta.media.1.codec.bit_rate">0</property>
  <property name="meta.attr.1.stream.language.markup">eng</property>
  <property name="meta.attr.1.stream.DURATION.markup">00:13:18.101000000</property>
  <property name="meta.attr.ENCODER.markup">Lavf59.27.100</property>
  <property name="meta.media.sample_aspect_num">1</property>
  <property name="meta.media.sample_aspect_den">1</property>
  <property name="meta.media.frame_rate_num">60</property>
  <property name="meta.media.frame_rate_den">1</property>
  <property name="meta.media.colorspace">709</property>
  <property name="meta.media.color_trc">1</property>
  <property name="meta.media.has_b_frames">0</property>
  <property name="meta.media.width">1920</property>
  <property name="meta.media.height">1080</property>
  <property name="meta.media.color_range">mpeg</property>
  <property name="xml">was here</property>
  <property name="meta.media.top_field_first">0</property>
  <property name="meta.media.progressive">1</property>
  <property name="set.test_image">0</property>
  <property name="mute_on_pause">1</property>
 </chain>
 <chain id="chain323" out="00:02:42.680">
  <property name="length">4068</property>
  <property name="eof">pause</property>
  <property name="resource">/home/liquidzulu/Videos/yt/b-roll/Galaxy Quest (3â§¸9) Movie CLIP - Probed By Aliens (1999) HD [n8mK-A_0viA].webm</property>
  <property name="mlt_service">avformat-novalidate</property>
  <property name="seekable">1</property>
  <property name="format">3</property>
  <property name="audio_index">-1</property>
  <property name="video_index">0</property>
  <property name="kdenlive:clipname"/>
  <property name="kdenlive:clip_type">0</property>
  <property name="kdenlive:folderid">-1</property>
  <property name="kdenlive:id">507</property>
  <property name="kdenlive:file_size">12234042</property>
  <property name="kdenlive:file_hash">1c23563d0290a38a50433fa8fb194264</property>
  <property name="kdenlive:audio_max1">232</property>
  <property name="kdenlive:active_streams">-1</property>
  <property name="set.test_audio">1</property>
  <property name="meta.media.nb_streams">2</property>
  <property name="meta.media.0.stream.type">video</property>
  <property name="meta.media.0.stream.frame_rate">23.976</property>
  <property name="meta.media.0.stream.sample_aspect_ratio">1</property>
  <property name="meta.media.0.codec.width">1280</property>
  <property name="meta.media.0.codec.height">720</property>
  <property name="meta.media.0.codec.rotate">0</property>
  <property name="meta.media.0.codec.pix_fmt">yuv420p</property>
  <property name="meta.media.0.codec.sample_aspect_ratio">0</property>
  <property name="meta.media.0.codec.colorspace">709</property>
  <property name="meta.media.0.codec.color_trc">1</property>
  <property name="meta.media.0.codec.name">vp9</property>
  <property name="meta.media.0.codec.long_name">Google VP9</property>
  <property name="meta.media.0.codec.bit_rate">0</property>
  <property name="meta.attr.0.stream.language.markup">eng</property>
  <property name="meta.attr.0.stream.DURATION.markup">00:02:42.662000000</property>
  <property name="meta.media.1.stream.type">audio</property>
  <property name="meta.media.1.codec.sample_fmt">fltp</property>
  <property name="meta.media.1.codec.sample_rate">48000</property>
  <property name="meta.media.1.codec.channels">2</property>
  <property name="meta.media.1.codec.name">opus</property>
  <property name="meta.media.1.codec.long_name">Opus</property>
  <property name="meta.media.1.codec.bit_rate">0</property>
  <property name="meta.attr.1.stream.language.markup">eng</property>
  <property name="meta.attr.1.stream.DURATION.markup">00:02:42.701000000</property>
  <property name="meta.attr.ENCODER.markup">Lavf59.27.100</property>
  <property name="meta.media.sample_aspect_num">1</property>
  <property name="meta.media.sample_aspect_den">1</property>
  <property name="meta.media.frame_rate_num">24000</property>
  <property name="meta.media.frame_rate_den">1001</property>
  <property name="meta.media.colorspace">709</property>
  <property name="meta.media.color_trc">1</property>
  <property name="meta.media.has_b_frames">0</property>
  <property name="meta.media.width">1280</property>
  <property name="meta.media.height">720</property>
  <property name="meta.media.color_range">mpeg</property>
  <property name="xml">was here</property>
  <property name="meta.media.top_field_first">0</property>
  <property name="meta.media.progressive">1</property>
  <property name="set.test_image">0</property>
  <property name="mute_on_pause">1</property>
 </chain>
 <chain id="chain324" out="00:09:40.280">
  <property name="length">14508</property>
  <property name="eof">pause</property>
  <property name="resource">b-roll/Come Draw with Me! Down Syndrome Art Tutorial [hXp_UDM0M7Y].mkv</property>
  <property name="mlt_service">avformat-novalidate</property>
  <property name="seekable">1</property>
  <property name="format">3</property>
  <property name="audio_index">-1</property>
  <property name="video_index">0</property>
  <property name="kdenlive:clipname"/>
  <property name="kdenlive:clip_type">0</property>
  <property name="kdenlive:folderid">-1</property>
  <property name="kdenlive:id">512</property>
  <property name="kdenlive:file_size">152962354</property>
  <property name="kdenlive:file_hash">6e335502b556048c7fd98eb2c912a7d6</property>
  <property name="kdenlive:audio_max1">214</property>
  <property name="kdenlive:active_streams">-1</property>
  <property name="set.test_audio">1</property>
  <property name="meta.media.nb_streams">2</property>
  <property name="meta.media.0.stream.type">video</property>
  <property name="meta.media.0.stream.frame_rate">29.97</property>
  <property name="meta.media.0.stream.sample_aspect_ratio">1</property>
  <property name="meta.media.0.codec.width">1920</property>
  <property name="meta.media.0.codec.height">1080</property>
  <property name="meta.media.0.codec.rotate">0</property>
  <property name="meta.media.0.codec.pix_fmt">yuv420p</property>
  <property name="meta.media.0.codec.sample_aspect_ratio">1</property>
  <property name="meta.media.0.codec.colorspace">709</property>
  <property name="meta.media.0.codec.color_trc">1</property>
  <property name="meta.media.0.codec.name">h264</property>
  <property name="meta.media.0.codec.long_name">H.264 / AVC / MPEG-4 AVC / MPEG-4 part 10</property>
  <property name="meta.media.0.codec.bit_rate">0</property>
  <property name="meta.attr.0.stream.HANDLER_NAME.markup">ISO Media file produced by Google Inc.</property>
  <property name="meta.attr.0.stream.VENDOR_ID.markup">[0][0][0][0]</property>
  <property name="meta.attr.0.stream.DURATION.markup">00:09:40.313000000</property>
  <property name="meta.media.1.stream.type">audio</property>
  <property name="meta.media.1.codec.sample_fmt">fltp</property>
  <property name="meta.media.1.codec.sample_rate">48000</property>
  <property name="meta.media.1.codec.channels">2</property>
  <property name="meta.media.1.codec.name">opus</property>
  <property name="meta.media.1.codec.long_name">Opus</property>
  <property name="meta.media.1.codec.bit_rate">0</property>
  <property name="meta.attr.1.stream.language.markup">eng</property>
  <property name="meta.attr.1.stream.DURATION.markup">00:09:40.321000000</property>
  <property name="meta.attr.COMPATIBLE_BRANDS.markup">iso6avc1mp41</property>
  <property name="meta.attr.MAJOR_BRAND.markup">dash</property>
  <property name="meta.attr.MINOR_VERSION.markup">0</property>
  <property name="meta.attr.ENCODER.markup">Lavf59.27.100</property>
  <property name="meta.media.sample_aspect_num">1</property>
  <property name="meta.media.sample_aspect_den">1</property>
  <property name="meta.media.frame_rate_num">30000</property>
  <property name="meta.media.frame_rate_den">1001</property>
  <property name="meta.media.colorspace">709</property>
  <property name="meta.media.color_trc">1</property>
  <property name="meta.media.has_b_frames">1</property>
  <property name="meta.media.width">1920</property>
  <property name="meta.media.height">1080</property>
  <property name="meta.media.color_range">mpeg</property>
  <property name="xml">was here</property>
  <property name="meta.media.top_field_first">0</property>
  <property name="meta.media.progressive">1</property>
  <property name="set.test_image">0</property>
  <property name="mute_on_pause">1</property>
 </chain>
 <chain id="chain325" out="00:12:26.360">
  <property name="length">18660</property>
  <property name="eof">pause</property>
  <property name="resource">b-roll/Grep Is Dead And Ripgrep Is Here To Replace It [dNcucfu7BUw].webm</property>
  <property name="mlt_service">avformat-novalidate</property>
  <property name="seekable">1</property>
  <property name="format">3</property>
  <property name="audio_index">-1</property>
  <property name="video_index">0</property>
  <property name="kdenlive:clipname"/>
  <property name="kdenlive:clip_type">0</property>
  <property name="kdenlive:folderid">-1</property>
  <property name="kdenlive:id">518</property>
  <property name="kdenlive:file_size">74294793</property>
  <property name="kdenlive:file_hash">e775f75c572cf8671aa9ba0f1869af1a</property>
  <property name="kdenlive:active_streams">-1</property>
  <property name="set.test_audio">1</property>
  <property name="kdenlive:audio_max1">234</property>
  <property name="meta.media.nb_streams">2</property>
  <property name="meta.media.0.stream.type">video</property>
  <property name="meta.media.0.stream.frame_rate">30</property>
  <property name="meta.media.0.stream.sample_aspect_ratio">1</property>
  <property name="meta.media.0.codec.width">1920</property>
  <property name="meta.media.0.codec.height">1080</property>
  <property name="meta.media.0.codec.rotate">0</property>
  <property name="meta.media.0.codec.pix_fmt">yuv420p</property>
  <property name="meta.media.0.codec.sample_aspect_ratio">0</property>
  <property name="meta.media.0.codec.colorspace">709</property>
  <property name="meta.media.0.codec.color_trc">1</property>
  <property name="meta.media.0.codec.name">vp9</property>
  <property name="meta.media.0.codec.long_name">Google VP9</property>
  <property name="meta.media.0.codec.bit_rate">0</property>
  <property name="meta.attr.0.stream.language.markup">eng</property>
  <property name="meta.attr.0.stream.DURATION.markup">00:12:26.366000000</property>
  <property name="meta.media.1.stream.type">audio</property>
  <property name="meta.media.1.codec.sample_fmt">fltp</property>
  <property name="meta.media.1.codec.sample_rate">48000</property>
  <property name="meta.media.1.codec.channels">2</property>
  <property name="meta.media.1.codec.name">opus</property>
  <property name="meta.media.1.codec.long_name">Opus</property>
  <property name="meta.media.1.codec.bit_rate">0</property>
  <property name="meta.attr.1.stream.language.markup">eng</property>
  <property name="meta.attr.1.stream.DURATION.markup">00:12:26.381000000</property>
  <property name="meta.attr.ENCODER.markup">Lavf59.27.100</property>
  <property name="meta.media.sample_aspect_num">1</property>
  <property name="meta.media.sample_aspect_den">1</property>
  <property name="meta.media.frame_rate_num">30</property>
  <property name="meta.media.frame_rate_den">1</property>
  <property name="meta.media.colorspace">709</property>
  <property name="meta.media.color_trc">1</property>
  <property name="meta.media.has_b_frames">0</property>
  <property name="meta.media.width">1920</property>
  <property name="meta.media.height">1080</property>
  <property name="meta.media.color_range">mpeg</property>
  <property name="xml">was here</property>
  <property name="meta.media.top_field_first">0</property>
  <property name="meta.media.progressive">1</property>
  <property name="set.test_image">0</property>
  <property name="mute_on_pause">1</property>
 </chain>
 <chain id="chain326" out="00:35:51.920">
  <property name="length">53799</property>
  <property name="eof">pause</property>
  <property name="resource">/home/liquidzulu/Videos/yt/b-roll/Code Reviewï¼š Ocaml [wH3FjE38pz8].webm</property>
  <property name="mlt_service">avformat-novalidate</property>
  <property name="seekable">1</property>
  <property name="format">3</property>
  <property name="audio_index">-1</property>
  <property name="video_index">0</property>
  <property name="kdenlive:clipname"/>
  <property name="kdenlive:clip_type">0</property>
  <property name="kdenlive:folderid">-1</property>
  <property name="kdenlive:id">525</property>
  <property name="kdenlive:file_size">130183662</property>
  <property name="kdenlive:file_hash">595e5441b81ab1f6f214f336f8978627</property>
  <property name="kdenlive:active_streams">-1</property>
  <property name="set.test_audio">1</property>
  <property name="kdenlive:audio_max1">168</property>
  <property name="meta.media.nb_streams">2</property>
  <property name="meta.media.0.stream.type">video</property>
  <property name="meta.media.0.stream.frame_rate">29.97</property>
  <property name="meta.media.0.stream.sample_aspect_ratio">1</property>
  <property name="meta.media.0.codec.width">1280</property>
  <property name="meta.media.0.codec.height">720</property>
  <property name="meta.media.0.codec.rotate">0</property>
  <property name="meta.media.0.codec.pix_fmt">yuv420p</property>
  <property name="meta.media.0.codec.sample_aspect_ratio">0</property>
  <property name="meta.media.0.codec.colorspace">709</property>
  <property name="meta.media.0.codec.color_trc">1</property>
  <property name="meta.media.0.codec.name">vp9</property>
  <property name="meta.media.0.codec.long_name">Google VP9</property>
  <property name="meta.media.0.codec.bit_rate">0</property>
  <property name="meta.attr.0.stream.language.markup">eng</property>
  <property name="meta.attr.0.stream.DURATION.markup">00:35:51.917000000</property>
  <property name="meta.media.1.stream.type">audio</property>
  <property name="meta.media.1.codec.sample_fmt">fltp</property>
  <property name="meta.media.1.codec.sample_rate">48000</property>
  <property name="meta.media.1.codec.channels">2</property>
  <property name="meta.media.1.codec.name">opus</property>
  <property name="meta.media.1.codec.long_name">Opus</property>
  <property name="meta.media.1.codec.bit_rate">0</property>
  <property name="meta.attr.1.stream.language.markup">eng</property>
  <property name="meta.attr.1.stream.DURATION.markup">00:35:51.941000000</property>
  <property name="meta.attr.ENCODER.markup">Lavf59.27.100</property>
  <property name="meta.media.sample_aspect_num">1</property>
  <property name="meta.media.sample_aspect_den">1</property>
  <property name="meta.media.frame_rate_num">30000</property>
  <property name="meta.media.frame_rate_den">1001</property>
  <property name="meta.media.colorspace">709</property>
  <property name="meta.media.color_trc">1</property>
  <property name="meta.media.has_b_frames">0</property>
  <property name="meta.media.width">1280</property>
  <property name="meta.media.height">720</property>
  <property name="meta.media.color_range">mpeg</property>
  <property name="xml">was here</property>
  <property name="meta.media.top_field_first">0</property>
  <property name="meta.media.progressive">1</property>
  <property name="set.test_image">0</property>
  <property name="mute_on_pause">1</property>
 </chain>
 <producer id="producer638" in="00:00:00.000" out="00:00:19.680">
  <property name="length">00:00:19.720</property>
  <property name="eof">pause</property>
  <property name="resource">/home/liquidzulu/Pictures/yt/animation/output/project/footnotes/footnote-26/.all.png</property>
  <property name="ttl">1</property>
  <property name="aspect_ratio">1</property>
  <property name="progressive">1</property>
  <property name="seekable">1</property>
  <property name="format">2</property>
  <property name="meta.media.width">1920</property>
  <property name="meta.media.height">1080</property>
  <property name="mlt_service">qimage</property>
  <property name="kdenlive:clipname">footnote-26</property>
  <property name="low-pass">0</property>
  <property name="animation"/>
  <property name="luma_file"/>
  <property name="luma_duration">25</property>
  <property name="fade">0</property>
  <property name="crop">0</property>
  <property name="softness">0</property>
  <property name="loop">0</property>
  <property name="kdenlive:duration">00:00:19:18</property>
  <property name="kdenlive:folderid">-1</property>
  <property name="kdenlive:id">528</property>
  <property name="kdenlive:clip_type">2</property>
  <property name="kdenlive:file_hash">5fa15179c885ae0eade415826f873fd4</property>
  <property name="xml">was here</property>
  <property name="set.test_audio">1</property>
  <property name="set.test_image">0</property>
 </producer>
 <chain id="chain327" out="02:05:46.480">
  <property name="length">188663</property>
  <property name="eof">pause</property>
  <property name="resource">b-roll/AI &amp; Industry Town Hall featuring US Copyright Office [7u1CeiSHqwY].webm</property>
  <property name="mlt_service">avformat-novalidate</property>
  <property name="seekable">1</property>
  <property name="format">3</property>
  <property name="audio_index">-1</property>
  <property name="video_index">0</property>
  <property name="kdenlive:clipname"/>
  <property name="kdenlive:clip_type">0</property>
  <property name="kdenlive:folderid">14</property>
  <property name="kdenlive:id">551</property>
  <property name="kdenlive:file_size">2782205774</property>
  <property name="kdenlive:file_hash">942196be50e420cc3019ad6424c5222f</property>
  <property name="kdenlive:active_streams">-1</property>
  <property name="set.test_audio">1</property>
  <property name="kdenlive:audio_max1">199</property>
  <property name="meta.media.nb_streams">2</property>
  <property name="meta.media.0.stream.type">video</property>
  <property name="meta.media.0.stream.frame_rate">25</property>
  <property name="meta.media.0.stream.sample_aspect_ratio">1</property>
  <property name="meta.media.0.codec.width">3840</property>
  <property name="meta.media.0.codec.height">2160</property>
  <property name="meta.media.0.codec.rotate">0</property>
  <property name="meta.media.0.codec.pix_fmt">yuv420p</property>
  <property name="meta.media.0.codec.sample_aspect_ratio">0</property>
  <property name="meta.media.0.codec.colorspace">709</property>
  <property name="meta.media.0.codec.color_trc">1</property>
  <property name="meta.media.0.codec.name">vp9</property>
  <property name="meta.media.0.codec.long_name">Google VP9</property>
  <property name="meta.media.0.codec.bit_rate">0</property>
  <property name="meta.attr.0.stream.language.markup">eng</property>
  <property name="meta.attr.0.stream.DURATION.markup">02:05:46.480000000</property>
  <property name="meta.media.1.stream.type">audio</property>
  <property name="meta.media.1.codec.sample_fmt">fltp</property>
  <property name="meta.media.1.codec.sample_rate">48000</property>
  <property name="meta.media.1.codec.channels">2</property>
  <property name="meta.media.1.codec.name">opus</property>
  <property name="meta.media.1.codec.long_name">Opus</property>
  <property name="meta.media.1.codec.bit_rate">0</property>
  <property name="meta.attr.1.stream.language.markup">eng</property>
  <property name="meta.attr.1.stream.DURATION.markup">02:05:46.521000000</property>
  <property name="meta.attr.ENCODER.markup">Lavf59.27.100</property>
  <property name="meta.media.sample_aspect_num">1</property>
  <property name="meta.media.sample_aspect_den">1</property>
  <property name="meta.media.frame_rate_num">25</property>
  <property name="meta.media.frame_rate_den">1</property>
  <property name="meta.media.colorspace">709</property>
  <property name="meta.media.color_trc">1</property>
  <property name="meta.media.has_b_frames">0</property>
  <property name="meta.media.width">3840</property>
  <property name="meta.media.height">2160</property>
  <property name="meta.media.color_range">mpeg</property>
  <property name="xml">was here</property>
  <property name="meta.media.top_field_first">0</property>
  <property name="meta.media.progressive">1</property>
  <property name="set.test_image">0</property>
  <property name="mute_on_pause">1</property>
 </chain>
 <chain id="chain328" out="00:00:49.840">
  <property name="length">1247</property>
  <property name="eof">pause</property>
  <property name="resource">videos/midjourney-spiral.mkv</property>
  <property name="mlt_service">avformat-novalidate</property>
  <property name="seekable">1</property>
  <property name="format">3</property>
  <property name="audio_index">-1</property>
  <property name="video_index">0</property>
  <property name="kdenlive:clipname"/>
  <property name="kdenlive:clip_type">0</property>
  <property name="kdenlive:folderid">14</property>
  <property name="kdenlive:id">357</property>
  <property name="kdenlive:file_size">60083409</property>
  <property name="kdenlive:file_hash">272f2092c4825870e4f82e45930fefd7</property>
  <property name="kdenlive:audio_max1">1</property>
  <property name="kdenlive:active_streams">-1</property>
  <property name="set.test_audio">1</property>
  <property name="meta.media.nb_streams">2</property>
  <property name="meta.media.0.stream.type">video</property>
  <property name="meta.media.0.stream.frame_rate">60</property>
  <property name="meta.media.0.stream.sample_aspect_ratio">0</property>
  <property name="meta.media.0.codec.width">1920</property>
  <property name="meta.media.0.codec.height">1080</property>
  <property name="meta.media.0.codec.rotate">0</property>
  <property name="meta.media.0.codec.pix_fmt">yuv420p</property>
  <property name="meta.media.0.codec.sample_aspect_ratio">1</property>
  <property name="meta.media.0.codec.colorspace">709</property>
  <property name="meta.media.0.codec.color_trc">1</property>
  <property name="meta.media.0.codec.name">h264</property>
  <property name="meta.media.0.codec.long_name">H.264 / AVC / MPEG-4 AVC / MPEG-4 part 10</property>
  <property name="meta.media.0.codec.bit_rate">0</property>
  <property name="meta.attr.0.stream.DURATION.markup">00:00:49.867000000</property>
  <property name="meta.media.1.stream.type">audio</property>
  <property name="meta.media.1.codec.sample_fmt">fltp</property>
  <property name="meta.media.1.codec.sample_rate">48000</property>
  <property name="meta.media.1.codec.channels">2</property>
  <property name="meta.media.1.codec.name">aac</property>
  <property name="meta.media.1.codec.long_name">AAC (Advanced Audio Coding)</property>
  <property name="meta.media.1.codec.bit_rate">0</property>
  <property name="meta.attr.1.stream.title.markup">simple_aac_recording</property>
  <property name="meta.attr.1.stream.DURATION.markup">00:00:49.813000000</property>
  <property name="meta.attr.ENCODER.markup">Lavf59.27.100</property>
  <property name="meta.media.sample_aspect_num">1</property>
  <property name="meta.media.sample_aspect_den">1</property>
  <property name="meta.media.frame_rate_num">60</property>
  <property name="meta.media.frame_rate_den">1</property>
  <property name="meta.media.colorspace">709</property>
  <property name="meta.media.color_trc">1</property>
  <property name="meta.media.has_b_frames">2</property>
  <property name="meta.media.width">1920</property>
  <property name="meta.media.height">1080</property>
  <property name="meta.media.color_range">mpeg</property>
  <property name="xml">was here</property>
  <property name="meta.media.top_field_first">0</property>
  <property name="meta.media.progressive">1</property>
  <property name="set.test_image">0</property>
  <property name="mute_on_pause">1</property>
 </chain>
 <chain id="chain329" out="00:00:25.080">
  <property name="length">628</property>
  <property name="eof">pause</property>
  <property name="resource">animation/output/tortoise hare/tortoise hare.mp4</property>
  <property name="mlt_service">avformat-novalidate</property>
  <property name="seekable">1</property>
  <property name="format">3</property>
  <property name="audio_index">-1</property>
  <property name="video_index">0</property>
  <property name="kdenlive:clipname"/>
  <property name="kdenlive:clip_type">0</property>
  <property name="kdenlive:folderid">218</property>
  <property name="kdenlive:id">565</property>
  <property name="kdenlive:file_size">2756487</property>
  <property name="kdenlive:file_hash">0b3b1f1e16248be7dea86ba7e14f5de7</property>
  <property name="kdenlive:audio_max1">113</property>
  <property name="kdenlive:active_streams">-1</property>
  <property name="set.test_audio">1</property>
  <property name="meta.media.nb_streams">2</property>
  <property name="meta.media.0.stream.type">video</property>
  <property name="meta.media.0.stream.frame_rate">25</property>
  <property name="meta.media.0.stream.sample_aspect_ratio">1</property>
  <property name="meta.media.0.codec.width">1920</property>
  <property name="meta.media.0.codec.height">1080</property>
  <property name="meta.media.0.codec.rotate">0</property>
  <property name="meta.media.0.codec.pix_fmt">yuv420p</property>
  <property name="meta.media.0.codec.sample_aspect_ratio">1</property>
  <property name="meta.media.0.codec.colorspace">709</property>
  <property name="meta.media.0.codec.color_trc">1</property>
  <property name="meta.media.0.codec.name">h264</property>
  <property name="meta.media.0.codec.long_name">H.264 / AVC / MPEG-4 AVC / MPEG-4 part 10</property>
  <property name="meta.media.0.codec.bit_rate">721421</property>
  <property name="meta.attr.0.stream.handler_name.markup">VideoHandler</property>
  <property name="meta.attr.0.stream.vendor_id.markup">[0][0][0][0]</property>
  <property name="meta.media.1.stream.type">audio</property>
  <property name="meta.media.1.codec.sample_fmt">fltp</property>
  <property name="meta.media.1.codec.sample_rate">48000</property>
  <property name="meta.media.1.codec.channels">2</property>
  <property name="meta.media.1.codec.name">aac</property>
  <property name="meta.media.1.codec.long_name">AAC (Advanced Audio Coding)</property>
  <property name="meta.media.1.codec.bit_rate">149801</property>
  <property name="meta.attr.1.stream.handler_name.markup">SoundHandler</property>
  <property name="meta.attr.1.stream.vendor_id.markup">[0][0][0][0]</property>
  <property name="meta.attr.major_brand.markup">isom</property>
  <property name="meta.attr.minor_version.markup">512</property>
  <property name="meta.attr.compatible_brands.markup">isomiso2avc1mp41</property>
  <property name="meta.attr.encoder.markup">Lavf59.27.100</property>
  <property name="meta.media.sample_aspect_num">1</property>
  <property name="meta.media.sample_aspect_den">1</property>
  <property name="meta.media.frame_rate_num">25</property>
  <property name="meta.media.frame_rate_den">1</property>
  <property name="meta.media.colorspace">709</property>
  <property name="meta.media.color_trc">1</property>
  <property name="meta.media.has_b_frames">2</property>
  <property name="meta.media.width">1920</property>
  <property name="meta.media.height">1080</property>
  <property name="meta.media.color_range">mpeg</property>
  <property name="xml">was here</property>
  <property name="meta.media.top_field_first">0</property>
  <property name="meta.media.progressive">1</property>
  <property name="set.test_image">0</property>
  <property name="mute_on_pause">1</property>
 </chain>
 <producer id="producer639" in="00:00:00.000" out="00:00:19.680">
  <property name="length">00:00:19.720</property>
  <property name="eof">pause</property>
  <property name="resource">/home/liquidzulu/Pictures/yt/animation/output/project/footnotes/footnote-33/.all.png</property>
  <property name="ttl">1</property>
  <property name="aspect_ratio">1</property>
  <property name="progressive">1</property>
  <property name="seekable">1</property>
  <property name="format">2</property>
  <property name="meta.media.width">1920</property>
  <property name="meta.media.height">1080</property>
  <property name="mlt_service">qimage</property>
  <property name="kdenlive:clipname">footnote-33</property>
  <property name="low-pass">0</property>
  <property name="animation"/>
  <property name="luma_file"/>
  <property name="luma_duration">25</property>
  <property name="fade">0</property>
  <property name="crop">0</property>
  <property name="softness">0</property>
  <property name="loop">0</property>
  <property name="kdenlive:duration">00:00:19:18</property>
  <property name="kdenlive:folderid">-1</property>
  <property name="kdenlive:id">569</property>
  <property name="kdenlive:clip_type">2</property>
  <property name="kdenlive:file_hash">bc02220c3ef6e50f0b59fc04e2574ba2</property>
  <property name="xml">was here</property>
  <property name="set.test_audio">1</property>
  <property name="set.test_image">0</property>
 </producer>
 <chain id="chain330" out="00:00:25.440">
  <property name="length">637</property>
  <property name="eof">pause</property>
  <property name="resource">b-roll/Haveibeentrained.comï¼š Opt out of AI training [4lf8feiiVLg].webm</property>
  <property name="mlt_service">avformat-novalidate</property>
  <property name="seekable">1</property>
  <property name="format">3</property>
  <property name="audio_index">-1</property>
  <property name="video_index">0</property>
  <property name="kdenlive:clipname"/>
  <property name="kdenlive:clip_type">0</property>
  <property name="kdenlive:folderid">14</property>
  <property name="kdenlive:id">584</property>
  <property name="kdenlive:file_size">725531</property>
  <property name="kdenlive:file_hash">ab67c008f245243a5d3387bc1aea3b84</property>
  <property name="kdenlive:audio_max1">1</property>
  <property name="kdenlive:active_streams">-1</property>
  <property name="set.test_audio">1</property>
  <property name="meta.media.nb_streams">2</property>
  <property name="meta.media.0.stream.type">video</property>
  <property name="meta.media.0.stream.frame_rate">30</property>
  <property name="meta.media.0.stream.sample_aspect_ratio">1</property>
  <property name="meta.media.0.codec.width">1920</property>
  <property name="meta.media.0.codec.height">1080</property>
  <property name="meta.media.0.codec.rotate">0</property>
  <property name="meta.media.0.codec.pix_fmt">yuv420p</property>
  <property name="meta.media.0.codec.sample_aspect_ratio">0</property>
  <property name="meta.media.0.codec.colorspace">709</property>
  <property name="meta.media.0.codec.color_trc">1</property>
  <property name="meta.media.0.codec.name">vp9</property>
  <property name="meta.media.0.codec.long_name">Google VP9</property>
  <property name="meta.media.0.codec.bit_rate">0</property>
  <property name="meta.attr.0.stream.language.markup">eng</property>
  <property name="meta.attr.0.stream.DURATION.markup">00:00:25.466000000</property>
  <property name="meta.media.1.stream.type">audio</property>
  <property name="meta.media.1.codec.sample_fmt">fltp</property>
  <property name="meta.media.1.codec.sample_rate">48000</property>
  <property name="meta.media.1.codec.channels">2</property>
  <property name="meta.media.1.codec.name">opus</property>
  <property name="meta.media.1.codec.long_name">Opus</property>
  <property name="meta.media.1.codec.bit_rate">0</property>
  <property name="meta.attr.1.stream.language.markup">eng</property>
  <property name="meta.attr.1.stream.DURATION.markup">00:00:25.481000000</property>
  <property name="meta.attr.ENCODER.markup">Lavf59.27.100</property>
  <property name="meta.media.sample_aspect_num">1</property>
  <property name="meta.media.sample_aspect_den">1</property>
  <property name="meta.media.frame_rate_num">30</property>
  <property name="meta.media.frame_rate_den">1</property>
  <property name="meta.media.colorspace">709</property>
  <property name="meta.media.color_trc">1</property>
  <property name="meta.media.has_b_frames">0</property>
  <property name="meta.media.width">1920</property>
  <property name="meta.media.height">1080</property>
  <property name="meta.media.color_range">mpeg</property>
  <property name="xml">was here</property>
  <property name="meta.media.top_field_first">0</property>
  <property name="meta.media.progressive">1</property>
  <property name="set.test_image">0</property>
  <property name="mute_on_pause">1</property>
 </chain>
 <chain id="chain331" out="00:16:09.880">
  <property name="length">24248</property>
  <property name="eof">pause</property>
  <property name="resource">b-roll/Lawyer Explains Stable Diffusion Lawsuit (Major Implications!) [gv9cdTh8cUo].webm</property>
  <property name="mlt_service">avformat-novalidate</property>
  <property name="seekable">1</property>
  <property name="format">3</property>
  <property name="audio_index">-1</property>
  <property name="video_index">0</property>
  <property name="kdenlive:clipname"/>
  <property name="kdenlive:clip_type">0</property>
  <property name="kdenlive:folderid">-1</property>
  <property name="kdenlive:id">583</property>
  <property name="kdenlive:file_size">1369494163</property>
  <property name="kdenlive:file_hash">855c66f1749ba9d1606b5357298a4156</property>
  <property name="kdenlive:audio_max1">222</property>
  <property name="kdenlive:active_streams">-1</property>
  <property name="set.test_audio">1</property>
  <property name="meta.media.nb_streams">2</property>
  <property name="meta.media.0.stream.type">video</property>
  <property name="meta.media.0.stream.frame_rate">29.97</property>
  <property name="meta.media.0.stream.sample_aspect_ratio">1</property>
  <property name="meta.media.0.codec.width">3840</property>
  <property name="meta.media.0.codec.height">2160</property>
  <property name="meta.media.0.codec.rotate">0</property>
  <property name="meta.media.0.codec.pix_fmt">yuv420p</property>
  <property name="meta.media.0.codec.sample_aspect_ratio">0</property>
  <property name="meta.media.0.codec.colorspace">709</property>
  <property name="meta.media.0.codec.color_trc">1</property>
  <property name="meta.media.0.codec.name">vp9</property>
  <property name="meta.media.0.codec.long_name">Google VP9</property>
  <property name="meta.media.0.codec.bit_rate">0</property>
  <property name="meta.attr.0.stream.language.markup">eng</property>
  <property name="meta.attr.0.stream.DURATION.markup">00:16:09.868000000</property>
  <property name="meta.media.1.stream.type">audio</property>
  <property name="meta.media.1.codec.sample_fmt">fltp</property>
  <property name="meta.media.1.codec.sample_rate">48000</property>
  <property name="meta.media.1.codec.channels">2</property>
  <property name="meta.media.1.codec.name">opus</property>
  <property name="meta.media.1.codec.long_name">Opus</property>
  <property name="meta.media.1.codec.bit_rate">0</property>
  <property name="meta.attr.1.stream.language.markup">eng</property>
  <property name="meta.attr.1.stream.DURATION.markup">00:16:09.901000000</property>
  <property name="meta.attr.ENCODER.markup">Lavf59.27.100</property>
  <property name="meta.media.sample_aspect_num">1</property>
  <property name="meta.media.sample_aspect_den">1</property>
  <property name="meta.media.frame_rate_num">30000</property>
  <property name="meta.media.frame_rate_den">1001</property>
  <property name="meta.media.colorspace">709</property>
  <property name="meta.media.color_trc">1</property>
  <property name="meta.media.has_b_frames">0</property>
  <property name="meta.media.width">3840</property>
  <property name="meta.media.height">2160</property>
  <property name="meta.media.color_range">mpeg</property>
  <property name="xml">was here</property>
  <property name="meta.media.top_field_first">0</property>
  <property name="meta.media.progressive">1</property>
  <property name="set.test_image">0</property>
  <property name="mute_on_pause">1</property>
 </chain>
 <chain id="chain332" out="00:10:34.880">
  <property name="length">15873</property>
  <property name="eof">pause</property>
  <property name="resource">b-roll/I'm Disappointed [Vz8X2bhyNnE].webm</property>
  <property name="mlt_service">avformat-novalidate</property>
  <property name="seekable">1</property>
  <property name="format">3</property>
  <property name="audio_index">-1</property>
  <property name="video_index">0</property>
  <property name="kdenlive:clipname"/>
  <property name="kdenlive:clip_type">0</property>
  <property name="kdenlive:folderid">-1</property>
  <property name="kdenlive:id">590</property>
  <property name="kdenlive:file_size">135862554</property>
  <property name="kdenlive:file_hash">99193619f74f872ce77752aff3128f0d</property>
  <property name="kdenlive:audio_max1">246</property>
  <property name="kdenlive:active_streams">-1</property>
  <property name="set.test_audio">1</property>
  <property name="meta.media.nb_streams">2</property>
  <property name="meta.media.0.stream.type">video</property>
  <property name="meta.media.0.stream.frame_rate">59.9401</property>
  <property name="meta.media.0.stream.sample_aspect_ratio">1</property>
  <property name="meta.media.0.codec.width">1920</property>
  <property name="meta.media.0.codec.height">1080</property>
  <property name="meta.media.0.codec.rotate">0</property>
  <property name="meta.media.0.codec.pix_fmt">yuv420p</property>
  <property name="meta.media.0.codec.sample_aspect_ratio">0</property>
  <property name="meta.media.0.codec.colorspace">709</property>
  <property name="meta.media.0.codec.color_trc">1</property>
  <property name="meta.media.0.codec.name">vp9</property>
  <property name="meta.media.0.codec.long_name">Google VP9</property>
  <property name="meta.media.0.codec.bit_rate">0</property>
  <property name="meta.attr.0.stream.language.markup">eng</property>
  <property name="meta.attr.0.stream.DURATION.markup">00:10:34.884000000</property>
  <property name="meta.media.1.stream.type">audio</property>
  <property name="meta.media.1.codec.sample_fmt">fltp</property>
  <property name="meta.media.1.codec.sample_rate">48000</property>
  <property name="meta.media.1.codec.channels">2</property>
  <property name="meta.media.1.codec.name">opus</property>
  <property name="meta.media.1.codec.long_name">Opus</property>
  <property name="meta.media.1.codec.bit_rate">0</property>
  <property name="meta.attr.1.stream.language.markup">eng</property>
  <property name="meta.attr.1.stream.DURATION.markup">00:10:34.901000000</property>
  <property name="meta.attr.ENCODER.markup">Lavf59.27.100</property>
  <property name="meta.media.sample_aspect_num">1</property>
  <property name="meta.media.sample_aspect_den">1</property>
  <property name="meta.media.frame_rate_num">60000</property>
  <property name="meta.media.frame_rate_den">1001</property>
  <property name="meta.media.colorspace">709</property>
  <property name="meta.media.color_trc">1</property>
  <property name="meta.media.has_b_frames">0</property>
  <property name="meta.media.width">1920</property>
  <property name="meta.media.height">1080</property>
  <property name="meta.media.color_range">mpeg</property>
  <property name="xml">was here</property>
  <property name="meta.media.top_field_first">0</property>
  <property name="meta.media.progressive">1</property>
  <property name="set.test_image">0</property>
  <property name="mute_on_pause">1</property>
 </chain>
 <chain id="chain333" out="00:02:55.160">
  <property name="length">4380</property>
  <property name="eof">pause</property>
  <property name="resource">b-roll/XG - TGIF (Official Music Video) [IPxDgf-g9Kw].webm</property>
  <property name="mlt_service">avformat-novalidate</property>
  <property name="seekable">1</property>
  <property name="format">3</property>
  <property name="audio_index">-1</property>
  <property name="video_index">0</property>
  <property name="kdenlive:clipname"/>
  <property name="kdenlive:clip_type">0</property>
  <property name="kdenlive:folderid">-1</property>
  <property name="kdenlive:id">594</property>
  <property name="kdenlive:file_size">363838802</property>
  <property name="kdenlive:file_hash">fc51ef7df1a75e948d3b50c6df7698d4</property>
  <property name="kdenlive:active_streams">-1</property>
  <property name="set.test_audio">1</property>
  <property name="kdenlive:audio_max1">249</property>
  <property name="meta.media.nb_streams">2</property>
  <property name="meta.media.0.stream.type">video</property>
  <property name="meta.media.0.stream.frame_rate">23.976</property>
  <property name="meta.media.0.stream.sample_aspect_ratio">1</property>
  <property name="meta.media.0.codec.width">3840</property>
  <property name="meta.media.0.codec.height">2160</property>
  <property name="meta.media.0.codec.rotate">0</property>
  <property name="meta.media.0.codec.pix_fmt">yuv420p</property>
  <property name="meta.media.0.codec.sample_aspect_ratio">0</property>
  <property name="meta.media.0.codec.colorspace">709</property>
  <property name="meta.media.0.codec.color_trc">1</property>
  <property name="meta.media.0.codec.name">vp9</property>
  <property name="meta.media.0.codec.long_name">Google VP9</property>
  <property name="meta.media.0.codec.bit_rate">0</property>
  <property name="meta.attr.0.stream.language.markup">eng</property>
  <property name="meta.attr.0.stream.DURATION.markup">00:02:55.174000000</property>
  <property name="meta.media.1.stream.type">audio</property>
  <property name="meta.media.1.codec.sample_fmt">fltp</property>
  <property name="meta.media.1.codec.sample_rate">48000</property>
  <property name="meta.media.1.codec.channels">2</property>
  <property name="meta.media.1.codec.name">opus</property>
  <property name="meta.media.1.codec.long_name">Opus</property>
  <property name="meta.media.1.codec.bit_rate">0</property>
  <property name="meta.attr.1.stream.language.markup">eng</property>
  <property name="meta.attr.1.stream.DURATION.markup">00:02:55.201000000</property>
  <property name="meta.attr.ENCODER.markup">Lavf59.27.100</property>
  <property name="meta.media.sample_aspect_num">1</property>
  <property name="meta.media.sample_aspect_den">1</property>
  <property name="meta.media.frame_rate_num">24000</property>
  <property name="meta.media.frame_rate_den">1001</property>
  <property name="meta.media.colorspace">709</property>
  <property name="meta.media.color_trc">1</property>
  <property name="meta.media.has_b_frames">0</property>
  <property name="meta.media.width">3840</property>
  <property name="meta.media.height">2160</property>
  <property name="meta.media.color_range">mpeg</property>
  <property name="xml">was here</property>
  <property name="meta.media.top_field_first">0</property>
  <property name="meta.media.progressive">1</property>
  <property name="set.test_image">0</property>
  <property name="mute_on_pause">1</property>
 </chain>
 <chain id="chain334" out="00:13:36.200">
  <property name="length">20406</property>
  <property name="eof">pause</property>
  <property name="resource">/home/liquidzulu/Videos/yt/b-roll/Throwing and Turning a Pottery Bowl with Cross-sections â€” ASMR Version [1Gic5nYiAjM].webm</property>
  <property name="mlt_service">avformat-novalidate</property>
  <property name="seekable">1</property>
  <property name="format">3</property>
  <property name="audio_index">-1</property>
  <property name="video_index">0</property>
  <property name="kdenlive:clipname"/>
  <property name="kdenlive:clip_type">0</property>
  <property name="kdenlive:folderid">-1</property>
  <property name="kdenlive:id">597</property>
  <property name="kdenlive:file_size">178345821</property>
  <property name="kdenlive:file_hash">e31a9a9c5c6da433884bd18110937f9a</property>
  <property name="kdenlive:active_streams">-1</property>
  <property name="set.test_audio">1</property>
  <property name="kdenlive:audio_max1">185</property>
  <property name="meta.media.nb_streams">2</property>
  <property name="meta.media.0.stream.type">video</property>
  <property name="meta.media.0.stream.frame_rate">25</property>
  <property name="meta.media.0.stream.sample_aspect_ratio">1</property>
  <property name="meta.media.0.codec.width">1920</property>
  <property name="meta.media.0.codec.height">1080</property>
  <property name="meta.media.0.codec.rotate">0</property>
  <property name="meta.media.0.codec.pix_fmt">yuv420p</property>
  <property name="meta.media.0.codec.sample_aspect_ratio">0</property>
  <property name="meta.media.0.codec.colorspace">709</property>
  <property name="meta.media.0.codec.color_trc">1</property>
  <property name="meta.media.0.codec.name">vp9</property>
  <property name="meta.media.0.codec.long_name">Google VP9</property>
  <property name="meta.media.0.codec.bit_rate">0</property>
  <property name="meta.attr.0.stream.HANDLER_NAME.markup">ISO Media file produced by Google Inc. Created on: 01/02/2024.</property>
  <property name="meta.attr.0.stream.VENDOR_ID.markup">[0][0][0][0]</property>
  <property name="meta.attr.0.stream.DURATION.markup">00:13:36.200000000</property>
  <property name="meta.media.1.stream.type">audio</property>
  <property name="meta.media.1.codec.sample_fmt">fltp</property>
  <property name="meta.media.1.codec.sample_rate">48000</property>
  <property name="meta.media.1.codec.channels">2</property>
  <property name="meta.media.1.codec.name">opus</property>
  <property name="meta.media.1.codec.long_name">Opus</property>
  <property name="meta.media.1.codec.bit_rate">0</property>
  <property name="meta.attr.1.stream.language.markup">eng</property>
  <property name="meta.attr.1.stream.DURATION.markup">00:13:36.221000000</property>
  <property name="meta.attr.COMPATIBLE_BRANDS.markup">iso6mp41</property>
  <property name="meta.attr.MAJOR_BRAND.markup">dash</property>
  <property name="meta.attr.MINOR_VERSION.markup">0</property>
  <property name="meta.attr.ENCODER.markup">Lavf59.27.100</property>
  <property name="meta.media.sample_aspect_num">1</property>
  <property name="meta.media.sample_aspect_den">1</property>
  <property name="meta.media.frame_rate_num">25</property>
  <property name="meta.media.frame_rate_den">1</property>
  <property name="meta.media.colorspace">709</property>
  <property name="meta.media.color_trc">1</property>
  <property name="meta.media.has_b_frames">0</property>
  <property name="meta.media.width">1920</property>
  <property name="meta.media.height">1080</property>
  <property name="meta.media.color_range">mpeg</property>
  <property name="xml">was here</property>
  <property name="meta.media.top_field_first">0</property>
  <property name="meta.media.progressive">1</property>
  <property name="set.test_image">0</property>
  <property name="mute_on_pause">1</property>
 </chain>
 <chain id="chain339" out="01:29:57.600">
  <property name="length">134941</property>
  <property name="eof">pause</property>
  <property name="resource">/home/liquidzulu/Videos/yt/b-roll/Abolish Copyrights and Patentsï¼Ÿ A Soho Forum Debate [Ep2-ohgFOys].webm</property>
  <property name="mlt_service">avformat-novalidate</property>
  <property name="seekable">1</property>
  <property name="format">3</property>
  <property name="audio_index">-1</property>
  <property name="video_index">0</property>
  <property name="kdenlive:clipname"/>
  <property name="kdenlive:clip_type">0</property>
  <property name="kdenlive:folderid">-1</property>
  <property name="kdenlive:id">602</property>
  <property name="kdenlive:file_size">454697174</property>
  <property name="kdenlive:file_hash">52bfb2aa4fb857f81de59c470065c552</property>
  <property name="kdenlive:active_streams">-1</property>
  <property name="set.test_audio">1</property>
  <property name="kdenlive:audio_max1">228</property>
  <property name="meta.media.nb_streams">2</property>
  <property name="meta.media.0.stream.type">video</property>
  <property name="meta.media.0.stream.frame_rate">23.976</property>
  <property name="meta.media.0.stream.sample_aspect_ratio">1</property>
  <property name="meta.media.0.codec.width">1920</property>
  <property name="meta.media.0.codec.height">1080</property>
  <property name="meta.media.0.codec.rotate">0</property>
  <property name="meta.media.0.codec.pix_fmt">yuv420p</property>
  <property name="meta.media.0.codec.sample_aspect_ratio">0</property>
  <property name="meta.media.0.codec.colorspace">709</property>
  <property name="meta.media.0.codec.color_trc">1</property>
  <property name="meta.media.0.codec.name">vp9</property>
  <property name="meta.media.0.codec.long_name">Google VP9</property>
  <property name="meta.media.0.codec.bit_rate">0</property>
  <property name="meta.attr.0.stream.language.markup">eng</property>
  <property name="meta.attr.0.stream.DURATION.markup">01:29:57.600000000</property>
  <property name="meta.media.1.stream.type">audio</property>
  <property name="meta.media.1.codec.sample_fmt">fltp</property>
  <property name="meta.media.1.codec.sample_rate">48000</property>
  <property name="meta.media.1.codec.channels">2</property>
  <property name="meta.media.1.codec.name">opus</property>
  <property name="meta.media.1.codec.long_name">Opus</property>
  <property name="meta.media.1.codec.bit_rate">0</property>
  <property name="meta.attr.1.stream.language.markup">eng</property>
  <property name="meta.attr.1.stream.DURATION.markup">01:29:57.621000000</property>
  <property name="meta.attr.ENCODER.markup">Lavf59.27.100</property>
  <property name="meta.media.sample_aspect_num">1</property>
  <property name="meta.media.sample_aspect_den">1</property>
  <property name="meta.media.frame_rate_num">24000</property>
  <property name="meta.media.frame_rate_den">1001</property>
  <property name="meta.media.colorspace">709</property>
  <property name="meta.media.color_trc">1</property>
  <property name="meta.media.has_b_frames">0</property>
  <property name="meta.media.width">1920</property>
  <property name="meta.media.height">1080</property>
  <property name="meta.media.color_range">mpeg</property>
  <property name="xml">was here</property>
  <property name="meta.media.top_field_first">0</property>
  <property name="meta.media.progressive">1</property>
  <property name="set.test_image">0</property>
  <property name="mute_on_pause">1</property>
 </chain>
 <chain id="chain354" out="00:00:49.040">
  <property name="length">1227</property>
  <property name="eof">pause</property>
  <property name="resource">/home/liquidzulu/Videos/yt/b-roll/Piracy it's a crime [HmZm8vNHBSU].webm</property>
  <property name="mlt_service">avformat-novalidate</property>
  <property name="seekable">1</property>
  <property name="format">3</property>
  <property name="audio_index">-1</property>
  <property name="video_index">0</property>
  <property name="kdenlive:clipname"/>
  <property name="kdenlive:clip_type">0</property>
  <property name="kdenlive:folderid">-1</property>
  <property name="kdenlive:id">604</property>
  <property name="kdenlive:file_size">3665124</property>
  <property name="kdenlive:file_hash">d5ad700535a1930fb1682babc2da3d82</property>
  <property name="kdenlive:audio_max1">172</property>
  <property name="kdenlive:active_streams">-1</property>
  <property name="set.test_audio">1</property>
  <property name="meta.media.nb_streams">2</property>
  <property name="meta.media.0.stream.type">video</property>
  <property name="meta.media.0.stream.frame_rate">25</property>
  <property name="meta.media.0.stream.sample_aspect_ratio">1</property>
  <property name="meta.media.0.codec.width">854</property>
  <property name="meta.media.0.codec.height">480</property>
  <property name="meta.media.0.codec.rotate">0</property>
  <property name="meta.media.0.codec.pix_fmt">yuv420p</property>
  <property name="meta.media.0.codec.sample_aspect_ratio">0</property>
  <property name="meta.media.0.codec.colorspace">601</property>
  <property name="meta.media.0.codec.name">vp9</property>
  <property name="meta.media.0.codec.long_name">Google VP9</property>
  <property name="meta.media.0.codec.bit_rate">0</property>
  <property name="meta.attr.0.stream.language.markup">eng</property>
  <property name="meta.attr.0.stream.DURATION.markup">00:00:49.040000000</property>
  <property name="meta.media.1.stream.type">audio</property>
  <property name="meta.media.1.codec.sample_fmt">fltp</property>
  <property name="meta.media.1.codec.sample_rate">48000</property>
  <property name="meta.media.1.codec.channels">2</property>
  <property name="meta.media.1.codec.name">opus</property>
  <property name="meta.media.1.codec.long_name">Opus</property>
  <property name="meta.media.1.codec.bit_rate">0</property>
  <property name="meta.attr.1.stream.language.markup">eng</property>
  <property name="meta.attr.1.stream.DURATION.markup">00:00:49.061000000</property>
  <property name="meta.attr.ENCODER.markup">Lavf59.27.100</property>
  <property name="meta.media.sample_aspect_num">1</property>
  <property name="meta.media.sample_aspect_den">1</property>
  <property name="meta.media.frame_rate_num">25</property>
  <property name="meta.media.frame_rate_den">1</property>
  <property name="meta.media.colorspace">601</property>
  <property name="meta.media.color_trc">2</property>
  <property name="meta.media.has_b_frames">0</property>
  <property name="meta.media.width">854</property>
  <property name="meta.media.height">480</property>
  <property name="meta.media.color_range">mpeg</property>
  <property name="xml">was here</property>
  <property name="meta.media.top_field_first">0</property>
  <property name="meta.media.progressive">1</property>
  <property name="set.test_image">0</property>
  <property name="mute_on_pause">1</property>
 </chain>
 <chain id="chain356" out="00:29:03.960">
  <property name="length">43600</property>
  <property name="eof">pause</property>
  <property name="resource">b-roll/Is AI Art Theftï¼Ÿ [KmYmbuL3Sbs].webm</property>
  <property name="mlt_service">avformat-novalidate</property>
  <property name="seekable">1</property>
  <property name="format">3</property>
  <property name="audio_index">-1</property>
  <property name="video_index">0</property>
  <property name="kdenlive:clipname"/>
  <property name="kdenlive:clip_type">0</property>
  <property name="kdenlive:folderid">-1</property>
  <property name="kdenlive:id">608</property>
  <property name="kdenlive:file_size">243580271</property>
  <property name="kdenlive:file_hash">e72f145c1c9ff6689620192bf25166ec</property>
  <property name="kdenlive:active_streams">-1</property>
  <property name="set.test_audio">1</property>
  <property name="kdenlive:audio_max1">195</property>
  <property name="meta.media.nb_streams">2</property>
  <property name="meta.media.0.stream.type">video</property>
  <property name="meta.media.0.stream.frame_rate">29.9716</property>
  <property name="meta.media.0.stream.sample_aspect_ratio">1</property>
  <property name="meta.media.0.codec.width">1920</property>
  <property name="meta.media.0.codec.height">1080</property>
  <property name="meta.media.0.codec.rotate">0</property>
  <property name="meta.media.0.codec.pix_fmt">yuv420p</property>
  <property name="meta.media.0.codec.sample_aspect_ratio">0</property>
  <property name="meta.media.0.codec.colorspace">709</property>
  <property name="meta.media.0.codec.color_trc">1</property>
  <property name="meta.media.0.codec.name">vp9</property>
  <property name="meta.media.0.codec.long_name">Google VP9</property>
  <property name="meta.media.0.codec.bit_rate">0</property>
  <property name="meta.attr.0.stream.HANDLER_NAME.markup">ISO Media file produced by Google Inc. Created on: 01/05/2024.</property>
  <property name="meta.attr.0.stream.VENDOR_ID.markup">[0][0][0][0]</property>
  <property name="meta.attr.0.stream.DURATION.markup">00:29:03.942000000</property>
  <property name="meta.media.1.stream.type">audio</property>
  <property name="meta.media.1.codec.sample_fmt">fltp</property>
  <property name="meta.media.1.codec.sample_rate">48000</property>
  <property name="meta.media.1.codec.channels">2</property>
  <property name="meta.media.1.codec.name">opus</property>
  <property name="meta.media.1.codec.long_name">Opus</property>
  <property name="meta.media.1.codec.bit_rate">0</property>
  <property name="meta.attr.1.stream.language.markup">eng</property>
  <property name="meta.attr.1.stream.DURATION.markup">00:29:03.981000000</property>
  <property name="meta.attr.COMPATIBLE_BRANDS.markup">iso6mp41</property>
  <property name="meta.attr.MAJOR_BRAND.markup">dash</property>
  <property name="meta.attr.MINOR_VERSION.markup">0</property>
  <property name="meta.attr.ENCODER.markup">Lavf59.27.100</property>
  <property name="meta.media.sample_aspect_num">1</property>
  <property name="meta.media.sample_aspect_den">1</property>
  <property name="meta.media.frame_rate_num">25326</property>
  <property name="meta.media.frame_rate_den">845</property>
  <property name="meta.media.colorspace">709</property>
  <property name="meta.media.color_trc">1</property>
  <property name="meta.media.has_b_frames">0</property>
  <property name="meta.media.width">1920</property>
  <property name="meta.media.height">1080</property>
  <property name="meta.media.color_range">mpeg</property>
  <property name="xml">was here</property>
  <property name="meta.media.top_field_first">0</property>
  <property name="meta.media.progressive">1</property>
  <property name="set.test_image">0</property>
  <property name="mute_on_pause">1</property>
 </chain>
 <chain id="chain357" out="00:03:21.360">
  <property name="length">5035</property>
  <property name="eof">pause</property>
  <property name="resource">videos/artstation scrollthrough.mkv</property>
  <property name="mlt_service">avformat-novalidate</property>
  <property name="seekable">1</property>
  <property name="format">3</property>
  <property name="audio_index">-1</property>
  <property name="video_index">0</property>
  <property name="kdenlive:clipname"/>
  <property name="kdenlive:clip_type">0</property>
  <property name="kdenlive:folderid">14</property>
  <property name="kdenlive:id">617</property>
  <property name="kdenlive:file_size">365884833</property>
  <property name="kdenlive:file_hash">5a6fced1ba3cf354007fb562bde2cc3b</property>
  <property name="kdenlive:audio_max1">104</property>
  <property name="kdenlive:active_streams">-1</property>
  <property name="set.test_audio">1</property>
  <property name="meta.media.nb_streams">2</property>
  <property name="meta.media.0.stream.type">video</property>
  <property name="meta.media.0.stream.frame_rate">60</property>
  <property name="meta.media.0.stream.sample_aspect_ratio">0</property>
  <property name="meta.media.0.codec.width">1920</property>
  <property name="meta.media.0.codec.height">1080</property>
  <property name="meta.media.0.codec.rotate">0</property>
  <property name="meta.media.0.codec.pix_fmt">yuv420p</property>
  <property name="meta.media.0.codec.sample_aspect_ratio">1</property>
  <property name="meta.media.0.codec.colorspace">709</property>
  <property name="meta.media.0.codec.color_trc">1</property>
  <property name="meta.media.0.codec.name">h264</property>
  <property name="meta.media.0.codec.long_name">H.264 / AVC / MPEG-4 AVC / MPEG-4 part 10</property>
  <property name="meta.media.0.codec.bit_rate">0</property>
  <property name="meta.attr.0.stream.DURATION.markup">00:03:21.417000000</property>
  <property name="meta.media.1.stream.type">audio</property>
  <property name="meta.media.1.codec.sample_fmt">fltp</property>
  <property name="meta.media.1.codec.sample_rate">48000</property>
  <property name="meta.media.1.codec.channels">1</property>
  <property name="meta.media.1.codec.name">aac</property>
  <property name="meta.media.1.codec.long_name">AAC (Advanced Audio Coding)</property>
  <property name="meta.media.1.codec.bit_rate">0</property>
  <property name="meta.attr.1.stream.title.markup">simple_aac_recording</property>
  <property name="meta.attr.1.stream.DURATION.markup">00:03:21.386000000</property>
  <property name="meta.attr.ENCODER.markup">Lavf59.27.100</property>
  <property name="meta.media.sample_aspect_num">1</property>
  <property name="meta.media.sample_aspect_den">1</property>
  <property name="meta.media.frame_rate_num">60</property>
  <property name="meta.media.frame_rate_den">1</property>
  <property name="meta.media.colorspace">709</property>
  <property name="meta.media.color_trc">1</property>
  <property name="meta.media.has_b_frames">2</property>
  <property name="meta.media.width">1920</property>
  <property name="meta.media.height">1080</property>
  <property name="meta.media.color_range">mpeg</property>
  <property name="xml">was here</property>
  <property name="meta.media.top_field_first">0</property>
  <property name="meta.media.progressive">1</property>
  <property name="set.test_image">0</property>
  <property name="mute_on_pause">1</property>
 </chain>
 <chain id="chain358" out="00:01:25.160">
  <property name="length">2130</property>
  <property name="eof">pause</property>
  <property name="resource">/home/liquidzulu/Videos/yt/b-roll/little dark age - architecture [FC65UiWfwGM].webm</property>
  <property name="mlt_service">avformat-novalidate</property>
  <property name="seekable">1</property>
  <property name="format">3</property>
  <property name="audio_index">-1</property>
  <property name="video_index">0</property>
  <property name="kdenlive:clipname"/>
  <property name="kdenlive:clip_type">0</property>
  <property name="kdenlive:folderid">-1</property>
  <property name="kdenlive:id">627</property>
  <property name="kdenlive:file_size">35527921</property>
  <property name="kdenlive:file_hash">0cb7983636a6cef33c7c684a8668960e</property>
  <property name="kdenlive:audio_max1">242</property>
  <property name="kdenlive:active_streams">-1</property>
  <property name="set.test_audio">1</property>
  <property name="meta.media.nb_streams">2</property>
  <property name="meta.media.0.stream.type">video</property>
  <property name="meta.media.0.stream.frame_rate">25</property>
  <property name="meta.media.0.stream.sample_aspect_ratio">1</property>
  <property name="meta.media.0.codec.width">1920</property>
  <property name="meta.media.0.codec.height">1080</property>
  <property name="meta.media.0.codec.rotate">0</property>
  <property name="meta.media.0.codec.pix_fmt">yuv420p</property>
  <property name="meta.media.0.codec.sample_aspect_ratio">0</property>
  <property name="meta.media.0.codec.colorspace">709</property>
  <property name="meta.media.0.codec.color_trc">1</property>
  <property name="meta.media.0.codec.name">vp9</property>
  <property name="meta.media.0.codec.long_name">Google VP9</property>
  <property name="meta.media.0.codec.bit_rate">0</property>
  <property name="meta.attr.0.stream.language.markup">eng</property>
  <property name="meta.attr.0.stream.DURATION.markup">00:01:25.160000000</property>
  <property name="meta.media.1.stream.type">audio</property>
  <property name="meta.media.1.codec.sample_fmt">fltp</property>
  <property name="meta.media.1.codec.sample_rate">48000</property>
  <property name="meta.media.1.codec.channels">2</property>
  <property name="meta.media.1.codec.name">opus</property>
  <property name="meta.media.1.codec.long_name">Opus</property>
  <property name="meta.media.1.codec.bit_rate">0</property>
  <property name="meta.attr.1.stream.language.markup">eng</property>
  <property name="meta.attr.1.stream.DURATION.markup">00:01:25.181000000</property>
  <property name="meta.attr.ENCODER.markup">Lavf59.27.100</property>
  <property name="meta.media.sample_aspect_num">1</property>
  <property name="meta.media.sample_aspect_den">1</property>
  <property name="meta.media.frame_rate_num">25</property>
  <property name="meta.media.frame_rate_den">1</property>
  <property name="meta.media.colorspace">709</property>
  <property name="meta.media.color_trc">1</property>
  <property name="meta.media.has_b_frames">0</property>
  <property name="meta.media.width">1920</property>
  <property name="meta.media.height">1080</property>
  <property name="meta.media.color_range">mpeg</property>
  <property name="xml">was here</property>
  <property name="meta.media.top_field_first">0</property>
  <property name="meta.media.progressive">1</property>
  <property name="set.test_image">0</property>
  <property name="mute_on_pause">1</property>
 </chain>
 <producer id="producer642" in="00:00:00.000" out="00:00:19.680">
  <property name="length">00:00:19.720</property>
  <property name="eof">pause</property>
  <property name="resource">/home/liquidzulu/Pictures/yt/animation/output/project/footnotes/footnote-44/%06d.png</property>
  <property name="ttl">1</property>
  <property name="aspect_ratio">1</property>
  <property name="progressive">1</property>
  <property name="seekable">1</property>
  <property name="format">2</property>
  <property name="meta.media.width">1920</property>
  <property name="meta.media.height">1080</property>
  <property name="mlt_service">qimage</property>
  <property name="kdenlive:clipname">footnote-44</property>
  <property name="low-pass">0</property>
  <property name="animation"/>
  <property name="luma_file"/>
  <property name="luma_duration">25</property>
  <property name="fade">0</property>
  <property name="crop">0</property>
  <property name="softness">0</property>
  <property name="loop">0</property>
  <property name="kdenlive:duration">00:00:19:18</property>
  <property name="kdenlive:folderid">-1</property>
  <property name="kdenlive:id">630</property>
  <property name="kdenlive:clip_type">2</property>
  <property name="kdenlive:file_hash">4a8ebf62ea2c5b7a95743b0c561eef67</property>
  <property name="xml">was here</property>
  <property name="set.test_audio">1</property>
  <property name="set.test_image">0</property>
 </producer>
 <chain id="chain359" out="00:01:19.640">
  <property name="length">1992</property>
  <property name="eof">pause</property>
  <property name="resource">/home/liquidzulu/Videos/yt/b-roll/Castle Bravo(720p).mp4</property>
  <property name="mlt_service">avformat-novalidate</property>
  <property name="seekable">1</property>
  <property name="format">3</property>
  <property name="audio_index">-1</property>
  <property name="video_index">0</property>
  <property name="kdenlive:clipname"/>
  <property name="kdenlive:clip_type">0</property>
  <property name="kdenlive:folderid">-1</property>
  <property name="kdenlive:id">638</property>
  <property name="kdenlive:file_size">3831901</property>
  <property name="kdenlive:file_hash">01f13fff1867cc3b1f2f69bfb80aed4f</property>
  <property name="kdenlive:audio_max1">115</property>
  <property name="kdenlive:active_streams">-1</property>
  <property name="set.test_audio">1</property>
  <property name="meta.media.nb_streams">2</property>
  <property name="meta.media.0.stream.type">video</property>
  <property name="meta.media.0.stream.frame_rate">24</property>
  <property name="meta.media.0.stream.sample_aspect_ratio">0</property>
  <property name="meta.media.0.codec.width">1280</property>
  <property name="meta.media.0.codec.height">720</property>
  <property name="meta.media.0.codec.rotate">0</property>
  <property name="meta.media.0.codec.pix_fmt">yuv420p</property>
  <property name="meta.media.0.codec.sample_aspect_ratio">1</property>
  <property name="meta.media.0.codec.colorspace">601</property>
  <property name="meta.media.0.codec.color_trc">1</property>
  <property name="meta.media.0.codec.name">h264</property>
  <property name="meta.media.0.codec.long_name">H.264 / AVC / MPEG-4 AVC / MPEG-4 part 10</property>
  <property name="meta.media.0.codec.bit_rate">255667</property>
  <property name="meta.attr.0.stream.creation_time.markup">2018-05-01T03:23:59.000000Z</property>
  <property name="meta.attr.0.stream.handler_name.markup">ISO Media file produced by Google Inc. Created on: 04/30/2018.</property>
  <property name="meta.attr.0.stream.vendor_id.markup">[0][0][0][0]</property>
  <property name="meta.media.1.stream.type">audio</property>
  <property name="meta.media.1.codec.sample_fmt">fltp</property>
  <property name="meta.media.1.codec.sample_rate">44100</property>
  <property name="meta.media.1.codec.channels">2</property>
  <property name="meta.media.1.codec.name">aac</property>
  <property name="meta.media.1.codec.long_name">AAC (Advanced Audio Coding)</property>
  <property name="meta.media.1.codec.bit_rate">125611</property>
  <property name="meta.attr.1.stream.creation_time.markup">2018-05-01T03:23:59.000000Z</property>
  <property name="meta.attr.1.stream.language.markup">eng</property>
  <property name="meta.attr.1.stream.handler_name.markup">ISO Media file produced by Google Inc. Created on: 04/30/2018.</property>
  <property name="meta.attr.1.stream.vendor_id.markup">[0][0][0][0]</property>
  <property name="meta.attr.major_brand.markup">mp42</property>
  <property name="meta.attr.minor_version.markup">0</property>
  <property name="meta.attr.compatible_brands.markup">isommp42</property>
  <property name="meta.attr.creation_time.markup">2018-05-01T03:23:59.000000Z</property>
  <property name="meta.media.sample_aspect_num">1</property>
  <property name="meta.media.sample_aspect_den">1</property>
  <property name="meta.media.frame_rate_num">24</property>
  <property name="meta.media.frame_rate_den">1</property>
  <property name="meta.media.colorspace">601</property>
  <property name="meta.media.color_trc">1</property>
  <property name="meta.media.has_b_frames">1</property>
  <property name="meta.media.width">1280</property>
  <property name="meta.media.height">720</property>
  <property name="meta.media.color_range">mpeg</property>
  <property name="xml">was here</property>
  <property name="meta.media.top_field_first">0</property>
  <property name="meta.media.progressive">1</property>
  <property name="set.test_image">0</property>
  <property name="mute_on_pause">1</property>
 </chain>
 <chain id="chain363" out="00:02:45.000">
  <property name="length">4126</property>
  <property name="eof">pause</property>
  <property name="resource">/home/liquidzulu/Videos/yt/b-roll/Mickey Mouse Steamboat Wille [hxf-UHuGobI].webm</property>
  <property name="mlt_service">avformat-novalidate</property>
  <property name="seekable">1</property>
  <property name="format">3</property>
  <property name="audio_index">-1</property>
  <property name="video_index">0</property>
  <property name="kdenlive:clipname"/>
  <property name="kdenlive:clip_type">0</property>
  <property name="kdenlive:folderid">14</property>
  <property name="kdenlive:id">550</property>
  <property name="kdenlive:file_size">7854650</property>
  <property name="kdenlive:file_hash">7b507cf3f5a4342d6bec80f5cbd1ca03</property>
  <property name="kdenlive:audio_max1">219</property>
  <property name="kdenlive:active_streams">-1</property>
  <property name="set.test_audio">1</property>
  <property name="meta.media.nb_streams">2</property>
  <property name="meta.media.0.stream.type">video</property>
  <property name="meta.media.0.stream.frame_rate">29.97</property>
  <property name="meta.media.0.stream.sample_aspect_ratio">1</property>
  <property name="meta.media.0.codec.width">480</property>
  <property name="meta.media.0.codec.height">360</property>
  <property name="meta.media.0.codec.rotate">0</property>
  <property name="meta.media.0.codec.pix_fmt">yuv420p</property>
  <property name="meta.media.0.codec.sample_aspect_ratio">0</property>
  <property name="meta.media.0.codec.colorspace">601</property>
  <property name="meta.media.0.codec.name">vp9</property>
  <property name="meta.media.0.codec.long_name">Google VP9</property>
  <property name="meta.media.0.codec.bit_rate">0</property>
  <property name="meta.attr.0.stream.language.markup">eng</property>
  <property name="meta.attr.0.stream.DURATION.markup">00:02:44.998000000</property>
  <property name="meta.media.1.stream.type">audio</property>
  <property name="meta.media.1.codec.sample_fmt">fltp</property>
  <property name="meta.media.1.codec.sample_rate">48000</property>
  <property name="meta.media.1.codec.channels">2</property>
  <property name="meta.media.1.codec.name">opus</property>
  <property name="meta.media.1.codec.long_name">Opus</property>
  <property name="meta.media.1.codec.bit_rate">0</property>
  <property name="meta.attr.1.stream.language.markup">eng</property>
  <property name="meta.attr.1.stream.DURATION.markup">00:02:45.021000000</property>
  <property name="meta.attr.ENCODER.markup">Lavf59.27.100</property>
  <property name="meta.media.sample_aspect_num">1</property>
  <property name="meta.media.sample_aspect_den">1</property>
  <property name="meta.media.frame_rate_num">30000</property>
  <property name="meta.media.frame_rate_den">1001</property>
  <property name="meta.media.colorspace">601</property>
  <property name="meta.media.color_trc">2</property>
  <property name="meta.media.has_b_frames">0</property>
  <property name="meta.media.width">480</property>
  <property name="meta.media.height">360</property>
  <property name="meta.media.color_range">mpeg</property>
  <property name="xml">was here</property>
  <property name="meta.media.top_field_first">0</property>
  <property name="meta.media.progressive">1</property>
  <property name="set.test_image">0</property>
  <property name="mute_on_pause">1</property>
 </chain>
 <chain id="chain364" out="00:01:38.360">
  <property name="length">2460</property>
  <property name="eof">pause</property>
  <property name="resource">/home/liquidzulu/Videos/yt/b-roll/ALL Obsolete Industries Deserve The Taxi Bailout! [_tjZchYXMmA].webm</property>
  <property name="mlt_service">avformat-novalidate</property>
  <property name="seekable">1</property>
  <property name="format">3</property>
  <property name="audio_index">-1</property>
  <property name="video_index">0</property>
  <property name="kdenlive:clipname"/>
  <property name="kdenlive:clip_type">0</property>
  <property name="kdenlive:folderid">-1</property>
  <property name="kdenlive:id">672</property>
  <property name="kdenlive:file_size">17196539</property>
  <property name="kdenlive:file_hash">63d35652806e1d2edf12bd8ef5dff2d6</property>
  <property name="kdenlive:audio_max1">220</property>
  <property name="kdenlive:active_streams">-1</property>
  <property name="set.test_audio">1</property>
  <property name="meta.media.nb_streams">2</property>
  <property name="meta.media.0.stream.type">video</property>
  <property name="meta.media.0.stream.frame_rate">25</property>
  <property name="meta.media.0.stream.sample_aspect_ratio">1</property>
  <property name="meta.media.0.codec.width">1280</property>
  <property name="meta.media.0.codec.height">720</property>
  <property name="meta.media.0.codec.rotate">0</property>
  <property name="meta.media.0.codec.pix_fmt">yuv420p</property>
  <property name="meta.media.0.codec.sample_aspect_ratio">0</property>
  <property name="meta.media.0.codec.colorspace">709</property>
  <property name="meta.media.0.codec.name">vp9</property>
  <property name="meta.media.0.codec.long_name">Google VP9</property>
  <property name="meta.media.0.codec.bit_rate">0</property>
  <property name="meta.attr.0.stream.language.markup">eng</property>
  <property name="meta.attr.0.stream.DURATION.markup">00:01:38.360000000</property>
  <property name="meta.media.1.stream.type">audio</property>
  <property name="meta.media.1.codec.sample_fmt">fltp</property>
  <property name="meta.media.1.codec.sample_rate">48000</property>
  <property name="meta.media.1.codec.channels">2</property>
  <property name="meta.media.1.codec.name">opus</property>
  <property name="meta.media.1.codec.long_name">Opus</property>
  <property name="meta.media.1.codec.bit_rate">0</property>
  <property name="meta.attr.1.stream.language.markup">eng</property>
  <property name="meta.attr.1.stream.DURATION.markup">00:01:38.381000000</property>
  <property name="meta.attr.ENCODER.markup">Lavf59.27.100</property>
  <property name="meta.media.sample_aspect_num">1</property>
  <property name="meta.media.sample_aspect_den">1</property>
  <property name="meta.media.frame_rate_num">25</property>
  <property name="meta.media.frame_rate_den">1</property>
  <property name="meta.media.colorspace">709</property>
  <property name="meta.media.color_trc">2</property>
  <property name="meta.media.has_b_frames">0</property>
  <property name="meta.media.width">1280</property>
  <property name="meta.media.height">720</property>
  <property name="meta.media.color_range">mpeg</property>
  <property name="xml">was here</property>
  <property name="meta.media.top_field_first">0</property>
  <property name="meta.media.progressive">1</property>
  <property name="set.test_image">0</property>
  <property name="mute_on_pause">1</property>
 </chain>
 <chain id="chain365" out="00:07:25.160">
  <property name="length">11130</property>
  <property name="eof">pause</property>
  <property name="resource">/home/liquidzulu/Videos/yt/b-roll/The Gunhilde Maersk - 4K Time Lapse by Toby Smith [h16zyxiwDLY].webm</property>
  <property name="mlt_service">avformat-novalidate</property>
  <property name="seekable">1</property>
  <property name="format">3</property>
  <property name="audio_index">-1</property>
  <property name="video_index">0</property>
  <property name="kdenlive:clipname"/>
  <property name="kdenlive:clip_type">0</property>
  <property name="kdenlive:folderid">-1</property>
  <property name="kdenlive:id">674</property>
  <property name="kdenlive:file_size">970844546</property>
  <property name="kdenlive:file_hash">7ba869007c20856fda4ca6bf097c9396</property>
  <property name="kdenlive:audio_max1">1</property>
  <property name="kdenlive:active_streams">-1</property>
  <property name="set.test_audio">1</property>
  <property name="meta.media.nb_streams">2</property>
  <property name="meta.media.0.stream.type">video</property>
  <property name="meta.media.0.stream.frame_rate">24</property>
  <property name="meta.media.0.stream.sample_aspect_ratio">1</property>
  <property name="meta.media.0.codec.width">3840</property>
  <property name="meta.media.0.codec.height">2160</property>
  <property name="meta.media.0.codec.rotate">0</property>
  <property name="meta.media.0.codec.pix_fmt">yuv420p</property>
  <property name="meta.media.0.codec.sample_aspect_ratio">0</property>
  <property name="meta.media.0.codec.colorspace">709</property>
  <property name="meta.media.0.codec.color_trc">1</property>
  <property name="meta.media.0.codec.name">vp9</property>
  <property name="meta.media.0.codec.long_name">Google VP9</property>
  <property name="meta.media.0.codec.bit_rate">0</property>
  <property name="meta.attr.0.stream.language.markup">eng</property>
  <property name="meta.attr.0.stream.DURATION.markup">00:07:25.166000000</property>
  <property name="meta.media.1.stream.type">audio</property>
  <property name="meta.media.1.codec.sample_fmt">fltp</property>
  <property name="meta.media.1.codec.sample_rate">48000</property>
  <property name="meta.media.1.codec.channels">2</property>
  <property name="meta.media.1.codec.name">opus</property>
  <property name="meta.media.1.codec.long_name">Opus</property>
  <property name="meta.media.1.codec.bit_rate">0</property>
  <property name="meta.attr.1.stream.language.markup">eng</property>
  <property name="meta.attr.1.stream.DURATION.markup">00:07:25.181000000</property>
  <property name="meta.attr.ENCODER.markup">Lavf59.27.100</property>
  <property name="meta.media.sample_aspect_num">1</property>
  <property name="meta.media.sample_aspect_den">1</property>
  <property name="meta.media.frame_rate_num">24</property>
  <property name="meta.media.frame_rate_den">1</property>
  <property name="meta.media.colorspace">709</property>
  <property name="meta.media.color_trc">1</property>
  <property name="meta.media.has_b_frames">0</property>
  <property name="meta.media.width">3840</property>
  <property name="meta.media.height">2160</property>
  <property name="meta.media.color_range">mpeg</property>
  <property name="xml">was here</property>
  <property name="meta.media.top_field_first">0</property>
  <property name="meta.media.progressive">1</property>
  <property name="set.test_image">0</property>
  <property name="mute_on_pause">1</property>
 </chain>
 <chain id="chain366" out="00:00:52.360">
  <property name="length">1310</property>
  <property name="eof">pause</property>
  <property name="resource">/home/liquidzulu/Videos/yt/b-roll/Is A Man Not Entitled to the Sweat of His Browï¼Ÿ (Bioshock) [rnEDJ6tGr3s].mkv</property>
  <property name="mlt_service">avformat-novalidate</property>
  <property name="seekable">1</property>
  <property name="format">3</property>
  <property name="audio_index">-1</property>
  <property name="video_index">0</property>
  <property name="kdenlive:clipname"/>
  <property name="kdenlive:clip_type">0</property>
  <property name="kdenlive:folderid">-1</property>
  <property name="kdenlive:id">678</property>
  <property name="kdenlive:file_size">1936890</property>
  <property name="kdenlive:file_hash">7d82f7eb1e1164af08f31f7691f937b3</property>
  <property name="kdenlive:audio_max1">209</property>
  <property name="kdenlive:active_streams">-1</property>
  <property name="set.test_audio">1</property>
  <property name="meta.media.nb_streams">2</property>
  <property name="meta.media.0.stream.type">video</property>
  <property name="meta.media.0.stream.frame_rate">29.97</property>
  <property name="meta.media.0.stream.sample_aspect_ratio">1</property>
  <property name="meta.media.0.codec.width">854</property>
  <property name="meta.media.0.codec.height">480</property>
  <property name="meta.media.0.codec.rotate">0</property>
  <property name="meta.media.0.codec.pix_fmt">yuv420p</property>
  <property name="meta.media.0.codec.sample_aspect_ratio">1</property>
  <property name="meta.media.0.codec.colorspace">709</property>
  <property name="meta.media.0.codec.color_trc">1</property>
  <property name="meta.media.0.codec.name">h264</property>
  <property name="meta.media.0.codec.long_name">H.264 / AVC / MPEG-4 AVC / MPEG-4 part 10</property>
  <property name="meta.media.0.codec.bit_rate">0</property>
  <property name="meta.attr.0.stream.HANDLER_NAME.markup">ISO Media file produced by Google Inc.</property>
  <property name="meta.attr.0.stream.VENDOR_ID.markup">[0][0][0][0]</property>
  <property name="meta.attr.0.stream.DURATION.markup">00:00:52.352000000</property>
  <property name="meta.media.1.stream.type">audio</property>
  <property name="meta.media.1.codec.sample_fmt">fltp</property>
  <property name="meta.media.1.codec.sample_rate">48000</property>
  <property name="meta.media.1.codec.channels">2</property>
  <property name="meta.media.1.codec.name">opus</property>
  <property name="meta.media.1.codec.long_name">Opus</property>
  <property name="meta.media.1.codec.bit_rate">0</property>
  <property name="meta.attr.1.stream.language.markup">eng</property>
  <property name="meta.attr.1.stream.DURATION.markup">00:00:52.381000000</property>
  <property name="meta.attr.COMPATIBLE_BRANDS.markup">iso6avc1mp41</property>
  <property name="meta.attr.MAJOR_BRAND.markup">dash</property>
  <property name="meta.attr.MINOR_VERSION.markup">0</property>
  <property name="meta.attr.ENCODER.markup">Lavf59.27.100</property>
  <property name="meta.media.sample_aspect_num">1</property>
  <property name="meta.media.sample_aspect_den">1</property>
  <property name="meta.media.frame_rate_num">30000</property>
  <property name="meta.media.frame_rate_den">1001</property>
  <property name="meta.media.colorspace">709</property>
  <property name="meta.media.color_trc">1</property>
  <property name="meta.media.has_b_frames">1</property>
  <property name="meta.media.width">854</property>
  <property name="meta.media.height">480</property>
  <property name="meta.media.color_range">mpeg</property>
  <property name="xml">was here</property>
  <property name="meta.media.top_field_first">0</property>
  <property name="meta.media.progressive">1</property>
  <property name="set.test_image">0</property>
  <property name="mute_on_pause">1</property>
 </chain>
 <chain id="chain367" out="00:59:11.520">
  <property name="length">88789</property>
  <property name="eof">pause</property>
  <property name="resource">/home/liquidzulu/Videos/yt/b-roll/The Mind-Blowing Machines that Stamp Millions of Metal Parts - Smarter Every Day 288 [GDzBE6vz5r0].webm</property>
  <property name="mlt_service">avformat-novalidate</property>
  <property name="seekable">1</property>
  <property name="format">3</property>
  <property name="audio_index">-1</property>
  <property name="video_index">0</property>
  <property name="kdenlive:clipname"/>
  <property name="kdenlive:clip_type">0</property>
  <property name="kdenlive:folderid">14</property>
  <property name="kdenlive:id">684</property>
  <property name="kdenlive:file_size">11487835963</property>
  <property name="kdenlive:file_hash">c96ddc6d2af74cb53c6bfd960317a762</property>
  <property name="kdenlive:audio_max1">256</property>
  <property name="kdenlive:active_streams">-1</property>
  <property name="set.test_audio">1</property>
  <property name="meta.media.nb_streams">2</property>
  <property name="meta.media.0.stream.type">video</property>
  <property name="meta.media.0.stream.frame_rate">59.9401</property>
  <property name="meta.media.0.stream.sample_aspect_ratio">1</property>
  <property name="meta.media.0.codec.width">3840</property>
  <property name="meta.media.0.codec.height">2160</property>
  <property name="meta.media.0.codec.rotate">0</property>
  <property name="meta.media.0.codec.pix_fmt">yuv420p</property>
  <property name="meta.media.0.codec.sample_aspect_ratio">0</property>
  <property name="meta.media.0.codec.colorspace">709</property>
  <property name="meta.media.0.codec.color_trc">1</property>
  <property name="meta.media.0.codec.name">vp9</property>
  <property name="meta.media.0.codec.long_name">Google VP9</property>
  <property name="meta.media.0.codec.bit_rate">0</property>
  <property name="meta.attr.0.stream.language.markup">eng</property>
  <property name="meta.attr.0.stream.DURATION.markup">00:59:11.514000000</property>
  <property name="meta.media.1.stream.type">audio</property>
  <property name="meta.media.1.codec.sample_fmt">fltp</property>
  <property name="meta.media.1.codec.sample_rate">48000</property>
  <property name="meta.media.1.codec.channels">2</property>
  <property name="meta.media.1.codec.name">opus</property>
  <property name="meta.media.1.codec.long_name">Opus</property>
  <property name="meta.media.1.codec.bit_rate">0</property>
  <property name="meta.attr.1.stream.language.markup">eng</property>
  <property name="meta.attr.1.stream.DURATION.markup">00:59:11.541000000</property>
  <property name="meta.attr.ENCODER.markup">Lavf59.27.100</property>
  <property name="meta.media.sample_aspect_num">1</property>
  <property name="meta.media.sample_aspect_den">1</property>
  <property name="meta.media.frame_rate_num">60000</property>
  <property name="meta.media.frame_rate_den">1001</property>
  <property name="meta.media.colorspace">709</property>
  <property name="meta.media.color_trc">1</property>
  <property name="meta.media.has_b_frames">0</property>
  <property name="meta.media.width">3840</property>
  <property name="meta.media.height">2160</property>
  <property name="meta.media.color_range">mpeg</property>
  <property name="xml">was here</property>
  <property name="meta.media.top_field_first">0</property>
  <property name="meta.media.progressive">1</property>
  <property name="set.test_image">0</property>
  <property name="mute_on_pause">1</property>
 </chain>
 <chain id="chain368" out="00:02:54.120">
  <property name="length">4354</property>
  <property name="eof">pause</property>
  <property name="resource">/home/liquidzulu/Videos/yt/b-roll/They Took Our Jobs! - SOUTH PARK [APo2p4-WXsc].webm</property>
  <property name="mlt_service">avformat-novalidate</property>
  <property name="seekable">1</property>
  <property name="format">3</property>
  <property name="audio_index">-1</property>
  <property name="video_index">0</property>
  <property name="kdenlive:clipname"/>
  <property name="kdenlive:clip_type">0</property>
  <property name="kdenlive:folderid">-1</property>
  <property name="kdenlive:id">694</property>
  <property name="kdenlive:file_size">22118318</property>
  <property name="kdenlive:file_hash">091d7fe5ecfba4a2a02de7683ad2186a</property>
  <property name="kdenlive:audio_max1">161</property>
  <property name="kdenlive:active_streams">-1</property>
  <property name="set.test_audio">1</property>
  <property name="meta.media.nb_streams">2</property>
  <property name="meta.media.0.stream.type">video</property>
  <property name="meta.media.0.stream.frame_rate">23.9791</property>
  <property name="meta.media.0.stream.sample_aspect_ratio">1</property>
  <property name="meta.media.0.codec.width">1920</property>
  <property name="meta.media.0.codec.height">1080</property>
  <property name="meta.media.0.codec.rotate">0</property>
  <property name="meta.media.0.codec.pix_fmt">yuv420p</property>
  <property name="meta.media.0.codec.sample_aspect_ratio">0</property>
  <property name="meta.media.0.codec.colorspace">709</property>
  <property name="meta.media.0.codec.color_trc">1</property>
  <property name="meta.media.0.codec.name">vp9</property>
  <property name="meta.media.0.codec.long_name">Google VP9</property>
  <property name="meta.media.0.codec.bit_rate">0</property>
  <property name="meta.attr.0.stream.HANDLER_NAME.markup">ISO Media file produced by Google Inc. Created on: 01/10/2024.</property>
  <property name="meta.attr.0.stream.VENDOR_ID.markup">[0][0][0][0]</property>
  <property name="meta.attr.0.stream.DURATION.markup">00:02:54.132000000</property>
  <property name="meta.media.1.stream.type">audio</property>
  <property name="meta.media.1.codec.sample_fmt">fltp</property>
  <property name="meta.media.1.codec.sample_rate">48000</property>
  <property name="meta.media.1.codec.channels">2</property>
  <property name="meta.media.1.codec.name">opus</property>
  <property name="meta.media.1.codec.long_name">Opus</property>
  <property name="meta.media.1.codec.bit_rate">0</property>
  <property name="meta.attr.1.stream.language.markup">eng</property>
  <property name="meta.attr.1.stream.DURATION.markup">00:02:54.161000000</property>
  <property name="meta.attr.COMPATIBLE_BRANDS.markup">iso6mp41</property>
  <property name="meta.attr.MAJOR_BRAND.markup">dash</property>
  <property name="meta.attr.MINOR_VERSION.markup">0</property>
  <property name="meta.attr.ENCODER.markup">Lavf59.27.100</property>
  <property name="meta.media.sample_aspect_num">1</property>
  <property name="meta.media.sample_aspect_den">1</property>
  <property name="meta.media.frame_rate_num">6882</property>
  <property name="meta.media.frame_rate_den">287</property>
  <property name="meta.media.colorspace">709</property>
  <property name="meta.media.color_trc">1</property>
  <property name="meta.media.has_b_frames">0</property>
  <property name="meta.media.width">1920</property>
  <property name="meta.media.height">1080</property>
  <property name="meta.media.color_range">mpeg</property>
  <property name="xml">was here</property>
  <property name="meta.media.top_field_first">0</property>
  <property name="meta.media.progressive">1</property>
  <property name="set.test_image">0</property>
  <property name="mute_on_pause">1</property>
 </chain>
 <chain id="chain369" out="00:02:55.000">
  <property name="length">4376</property>
  <property name="eof">pause</property>
  <property name="resource">/home/liquidzulu/Videos/yt/b-roll/Using music to help unlock Alzheimer's patients' memories [G7vkKHYosuQ].webm</property>
  <property name="mlt_service">avformat-novalidate</property>
  <property name="seekable">1</property>
  <property name="format">3</property>
  <property name="audio_index">-1</property>
  <property name="video_index">0</property>
  <property name="kdenlive:clipname"/>
  <property name="kdenlive:clip_type">0</property>
  <property name="kdenlive:folderid">-1</property>
  <property name="kdenlive:id">700</property>
  <property name="kdenlive:file_size">33047147</property>
  <property name="kdenlive:file_hash">00091dde7a63d73c96a03c2fd2939c70</property>
  <property name="kdenlive:audio_max1">146</property>
  <property name="kdenlive:active_streams">-1</property>
  <property name="set.test_audio">1</property>
  <property name="meta.media.nb_streams">2</property>
  <property name="meta.media.0.stream.type">video</property>
  <property name="meta.media.0.stream.frame_rate">29.97</property>
  <property name="meta.media.0.stream.sample_aspect_ratio">1</property>
  <property name="meta.media.0.codec.width">1280</property>
  <property name="meta.media.0.codec.height">720</property>
  <property name="meta.media.0.codec.rotate">0</property>
  <property name="meta.media.0.codec.pix_fmt">yuv420p</property>
  <property name="meta.media.0.codec.sample_aspect_ratio">0</property>
  <property name="meta.media.0.codec.colorspace">709</property>
  <property name="meta.media.0.codec.name">vp9</property>
  <property name="meta.media.0.codec.long_name">Google VP9</property>
  <property name="meta.media.0.codec.bit_rate">0</property>
  <property name="meta.attr.0.stream.language.markup">eng</property>
  <property name="meta.attr.0.stream.DURATION.markup">00:02:55.007000000</property>
  <property name="meta.media.1.stream.type">audio</property>
  <property name="meta.media.1.codec.sample_fmt">fltp</property>
  <property name="meta.media.1.codec.sample_rate">48000</property>
  <property name="meta.media.1.codec.channels">2</property>
  <property name="meta.media.1.codec.name">opus</property>
  <property name="meta.media.1.codec.long_name">Opus</property>
  <property name="meta.media.1.codec.bit_rate">0</property>
  <property name="meta.attr.1.stream.language.markup">eng</property>
  <property name="meta.attr.1.stream.DURATION.markup">00:02:55.021000000</property>
  <property name="meta.attr.ENCODER.markup">Lavf59.27.100</property>
  <property name="meta.media.sample_aspect_num">1</property>
  <property name="meta.media.sample_aspect_den">1</property>
  <property name="meta.media.frame_rate_num">30000</property>
  <property name="meta.media.frame_rate_den">1001</property>
  <property name="meta.media.colorspace">709</property>
  <property name="meta.media.color_trc">2</property>
  <property name="meta.media.has_b_frames">0</property>
  <property name="meta.media.width">1280</property>
  <property name="meta.media.height">720</property>
  <property name="meta.media.color_range">mpeg</property>
  <property name="xml">was here</property>
  <property name="meta.media.top_field_first">0</property>
  <property name="meta.media.progressive">1</property>
  <property name="set.test_image">0</property>
  <property name="mute_on_pause">1</property>
 </chain>
 <chain id="chain370" out="00:01:47.600">
  <property name="length">2691</property>
  <property name="eof">pause</property>
  <property name="resource">/home/liquidzulu/Videos/yt/b-roll/The famous Shibuya crossing - 90 seconds [Od6EeCWytZo].webm</property>
  <property name="mlt_service">avformat-novalidate</property>
  <property name="seekable">1</property>
  <property name="format">3</property>
  <property name="audio_index">-1</property>
  <property name="video_index">0</property>
  <property name="kdenlive:clipname"/>
  <property name="kdenlive:clip_type">0</property>
  <property name="kdenlive:folderid">-1</property>
  <property name="kdenlive:id">704</property>
  <property name="kdenlive:file_size">37202023</property>
  <property name="kdenlive:file_hash">632dfbf2852f731e6b7ef2593f776fed</property>
  <property name="kdenlive:audio_max1">195</property>
  <property name="kdenlive:active_streams">-1</property>
  <property name="set.test_audio">1</property>
  <property name="meta.media.nb_streams">2</property>
  <property name="meta.media.0.stream.type">video</property>
  <property name="meta.media.0.stream.frame_rate">25</property>
  <property name="meta.media.0.stream.sample_aspect_ratio">1</property>
  <property name="meta.media.0.codec.width">1920</property>
  <property name="meta.media.0.codec.height">1080</property>
  <property name="meta.media.0.codec.rotate">0</property>
  <property name="meta.media.0.codec.pix_fmt">yuv420p</property>
  <property name="meta.media.0.codec.sample_aspect_ratio">0</property>
  <property name="meta.media.0.codec.colorspace">709</property>
  <property name="meta.media.0.codec.name">vp9</property>
  <property name="meta.media.0.codec.long_name">Google VP9</property>
  <property name="meta.media.0.codec.bit_rate">0</property>
  <property name="meta.attr.0.stream.language.markup">eng</property>
  <property name="meta.attr.0.stream.DURATION.markup">00:01:47.600000000</property>
  <property name="meta.media.1.stream.type">audio</property>
  <property name="meta.media.1.codec.sample_fmt">fltp</property>
  <property name="meta.media.1.codec.sample_rate">48000</property>
  <property name="meta.media.1.codec.channels">2</property>
  <property name="meta.media.1.codec.name">opus</property>
  <property name="meta.media.1.codec.long_name">Opus</property>
  <property name="meta.media.1.codec.bit_rate">0</property>
  <property name="meta.attr.1.stream.language.markup">eng</property>
  <property name="meta.attr.1.stream.DURATION.markup">00:01:47.621000000</property>
  <property name="meta.attr.ENCODER.markup">Lavf59.27.100</property>
  <property name="meta.media.sample_aspect_num">1</property>
  <property name="meta.media.sample_aspect_den">1</property>
  <property name="meta.media.frame_rate_num">25</property>
  <property name="meta.media.frame_rate_den">1</property>
  <property name="meta.media.colorspace">709</property>
  <property name="meta.media.color_trc">2</property>
  <property name="meta.media.has_b_frames">0</property>
  <property name="meta.media.width">1920</property>
  <property name="meta.media.height">1080</property>
  <property name="meta.media.color_range">mpeg</property>
  <property name="xml">was here</property>
  <property name="meta.media.top_field_first">0</property>
  <property name="meta.media.progressive">1</property>
  <property name="set.test_image">0</property>
  <property name="mute_on_pause">1</property>
 </chain>
 <chain id="chain371" out="00:00:14.000">
  <property name="length">351</property>
  <property name="eof">pause</property>
  <property name="resource">animation/output/worry-about-ai.mp4</property>
  <property name="mlt_service">avformat-novalidate</property>
  <property name="seekable">1</property>
  <property name="format">3</property>
  <property name="audio_index">-1</property>
  <property name="video_index">0</property>
  <property name="kdenlive:clipname"/>
  <property name="kdenlive:clip_type">2</property>
  <property name="kdenlive:folderid">-1</property>
  <property name="kdenlive:id">709</property>
  <property name="kdenlive:file_size">255329</property>
  <property name="kdenlive:file_hash">7cfef77dfe064c1bb1206e598a66a1ff</property>
  <property name="meta.media.nb_streams">1</property>
  <property name="meta.media.0.stream.type">video</property>
  <property name="meta.media.0.stream.frame_rate">30</property>
  <property name="meta.media.0.stream.sample_aspect_ratio">0</property>
  <property name="meta.media.0.codec.width">1920</property>
  <property name="meta.media.0.codec.height">1080</property>
  <property name="meta.media.0.codec.rotate">0</property>
  <property name="meta.media.0.codec.pix_fmt">yuv420p</property>
  <property name="meta.media.0.codec.sample_aspect_ratio">0</property>
  <property name="meta.media.0.codec.colorspace">709</property>
  <property name="meta.media.0.codec.name">h264</property>
  <property name="meta.media.0.codec.long_name">H.264 / AVC / MPEG-4 AVC / MPEG-4 part 10</property>
  <property name="meta.media.0.codec.bit_rate">142219</property>
  <property name="meta.attr.0.stream.handler_name.markup">VideoHandler</property>
  <property name="meta.attr.0.stream.vendor_id.markup">[0][0][0][0]</property>
  <property name="meta.attr.major_brand.markup">isom</property>
  <property name="meta.attr.minor_version.markup">512</property>
  <property name="meta.attr.compatible_brands.markup">isomiso2avc1mp41</property>
  <property name="meta.attr.encoder.markup">Lavf58.24.100</property>
  <property name="meta.media.sample_aspect_num">1</property>
  <property name="meta.media.sample_aspect_den">1</property>
  <property name="meta.media.frame_rate_num">30</property>
  <property name="meta.media.frame_rate_den">1</property>
  <property name="meta.media.colorspace">709</property>
  <property name="meta.media.color_trc">2</property>
  <property name="meta.media.has_b_frames">2</property>
  <property name="meta.media.width">1920</property>
  <property name="meta.media.height">1080</property>
  <property name="meta.media.color_range">mpeg</property>
  <property name="xml">was here</property>
  <property name="meta.media.top_field_first">0</property>
  <property name="meta.media.progressive">1</property>
  <property name="set.test_audio">1</property>
  <property name="set.test_image">0</property>
  <property name="mute_on_pause">1</property>
 </chain>
 <producer id="producer643" in="00:00:00.000" out="00:00:19.680">
  <property name="length">00:00:19.720</property>
  <property name="eof">pause</property>
  <property name="resource">/home/liquidzulu/Pictures/yt/animation/output/project/footnotes/footnote-52/.all.png</property>
  <property name="ttl">1</property>
  <property name="aspect_ratio">1</property>
  <property name="progressive">1</property>
  <property name="seekable">1</property>
  <property name="format">2</property>
  <property name="meta.media.width">1920</property>
  <property name="meta.media.height">1080</property>
  <property name="mlt_service">qimage</property>
  <property name="kdenlive:clipname">footnote-52</property>
  <property name="low-pass">0</property>
  <property name="animation"/>
  <property name="luma_file"/>
  <property name="luma_duration">1</property>
  <property name="fade">0</property>
  <property name="crop">0</property>
  <property name="softness">0</property>
  <property name="loop">0</property>
  <property name="kdenlive:duration">00:00:19:18</property>
  <property name="kdenlive:folderid">273</property>
  <property name="kdenlive:id">713</property>
  <property name="kdenlive:clip_type">2</property>
  <property name="kdenlive:file_hash">f72ad49bfab6e75718616b8adf871e55</property>
  <property name="xml">was here</property>
  <property name="set.test_audio">1</property>
  <property name="set.test_image">0</property>
 </producer>
 <chain id="chain372" out="01:23:55.840">
  <property name="length">125897</property>
  <property name="eof">pause</property>
  <property name="resource">b-roll/AIâ§¸ML Media Advocacy Summitï¼š AI Ethics Panel [lGq7S1q4T7c].mkv</property>
  <property name="mlt_service">avformat-novalidate</property>
  <property name="seekable">1</property>
  <property name="format">3</property>
  <property name="audio_index">-1</property>
  <property name="video_index">0</property>
  <property name="kdenlive:clipname"/>
  <property name="kdenlive:clip_type">0</property>
  <property name="kdenlive:folderid">14</property>
  <property name="kdenlive:id">715</property>
  <property name="kdenlive:file_size">517923276</property>
  <property name="kdenlive:file_hash">6e3b08d94c8b96af88fd8ef58364a85d</property>
  <property name="kdenlive:audio_max1">190</property>
  <property name="kdenlive:active_streams">-1</property>
  <property name="set.test_audio">1</property>
  <property name="meta.media.nb_streams">2</property>
  <property name="meta.media.0.stream.type">video</property>
  <property name="meta.media.0.stream.frame_rate">25</property>
  <property name="meta.media.0.stream.sample_aspect_ratio">1</property>
  <property name="meta.media.0.codec.width">1280</property>
  <property name="meta.media.0.codec.height">720</property>
  <property name="meta.media.0.codec.rotate">0</property>
  <property name="meta.media.0.codec.pix_fmt">yuv420p</property>
  <property name="meta.media.0.codec.sample_aspect_ratio">1</property>
  <property name="meta.media.0.codec.colorspace">709</property>
  <property name="meta.media.0.codec.color_trc">1</property>
  <property name="meta.media.0.codec.name">h264</property>
  <property name="meta.media.0.codec.long_name">H.264 / AVC / MPEG-4 AVC / MPEG-4 part 10</property>
  <property name="meta.media.0.codec.bit_rate">0</property>
  <property name="meta.attr.0.stream.HANDLER_NAME.markup">ISO Media file produced by Google Inc.</property>
  <property name="meta.attr.0.stream.VENDOR_ID.markup">[0][0][0][0]</property>
  <property name="meta.attr.0.stream.DURATION.markup">01:23:55.840000000</property>
  <property name="meta.media.1.stream.type">audio</property>
  <property name="meta.media.1.codec.sample_fmt">fltp</property>
  <property name="meta.media.1.codec.sample_rate">48000</property>
  <property name="meta.media.1.codec.channels">2</property>
  <property name="meta.media.1.codec.name">opus</property>
  <property name="meta.media.1.codec.long_name">Opus</property>
  <property name="meta.media.1.codec.bit_rate">0</property>
  <property name="meta.attr.1.stream.language.markup">eng</property>
  <property name="meta.attr.1.stream.DURATION.markup">01:23:55.861000000</property>
  <property name="meta.attr.COMPATIBLE_BRANDS.markup">iso6avc1mp41</property>
  <property name="meta.attr.MAJOR_BRAND.markup">dash</property>
  <property name="meta.attr.MINOR_VERSION.markup">0</property>
  <property name="meta.attr.ENCODER.markup">Lavf59.27.100</property>
  <property name="meta.media.sample_aspect_num">1</property>
  <property name="meta.media.sample_aspect_den">1</property>
  <property name="meta.media.frame_rate_num">25</property>
  <property name="meta.media.frame_rate_den">1</property>
  <property name="meta.media.colorspace">709</property>
  <property name="meta.media.color_trc">1</property>
  <property name="meta.media.has_b_frames">1</property>
  <property name="meta.media.width">1280</property>
  <property name="meta.media.height">720</property>
  <property name="meta.media.color_range">mpeg</property>
  <property name="xml">was here</property>
  <property name="meta.media.top_field_first">0</property>
  <property name="meta.media.progressive">1</property>
  <property name="set.test_image">0</property>
  <property name="mute_on_pause">1</property>
 </chain>
 <chain id="chain373" out="00:01:58.280">
  <property name="length">2958</property>
  <property name="eof">pause</property>
  <property name="resource">b-roll/Secret Invasion intro [iqnBJHU7si4].webm</property>
  <property name="mlt_service">avformat-novalidate</property>
  <property name="seekable">1</property>
  <property name="format">3</property>
  <property name="audio_index">-1</property>
  <property name="video_index">0</property>
  <property name="kdenlive:clipname"/>
  <property name="kdenlive:clip_type">0</property>
  <property name="kdenlive:folderid">14</property>
  <property name="kdenlive:id">718</property>
  <property name="kdenlive:file_size">58075441</property>
  <property name="kdenlive:file_hash">58504fb052f6d6b50cd3bc3b0d7fb731</property>
  <property name="kdenlive:audio_max1">197</property>
  <property name="kdenlive:active_streams">-1</property>
  <property name="set.test_audio">1</property>
  <property name="meta.media.nb_streams">2</property>
  <property name="meta.media.0.stream.type">video</property>
  <property name="meta.media.0.stream.frame_rate">30</property>
  <property name="meta.media.0.stream.sample_aspect_ratio">1</property>
  <property name="meta.media.0.codec.width">2260</property>
  <property name="meta.media.0.codec.height">1080</property>
  <property name="meta.media.0.codec.rotate">0</property>
  <property name="meta.media.0.codec.pix_fmt">yuv420p</property>
  <property name="meta.media.0.codec.sample_aspect_ratio">0</property>
  <property name="meta.media.0.codec.colorspace">601</property>
  <property name="meta.media.0.codec.color_trc">1</property>
  <property name="meta.media.0.codec.name">vp9</property>
  <property name="meta.media.0.codec.long_name">Google VP9</property>
  <property name="meta.media.0.codec.bit_rate">0</property>
  <property name="meta.attr.0.stream.language.markup">eng</property>
  <property name="meta.attr.0.stream.DURATION.markup">00:01:58.300000000</property>
  <property name="meta.media.1.stream.type">audio</property>
  <property name="meta.media.1.codec.sample_fmt">fltp</property>
  <property name="meta.media.1.codec.sample_rate">48000</property>
  <property name="meta.media.1.codec.channels">2</property>
  <property name="meta.media.1.codec.name">opus</property>
  <property name="meta.media.1.codec.long_name">Opus</property>
  <property name="meta.media.1.codec.bit_rate">0</property>
  <property name="meta.attr.1.stream.language.markup">eng</property>
  <property name="meta.attr.1.stream.DURATION.markup">00:01:58.321000000</property>
  <property name="meta.attr.ENCODER.markup">Lavf59.27.100</property>
  <property name="meta.media.sample_aspect_num">1</property>
  <property name="meta.media.sample_aspect_den">1</property>
  <property name="meta.media.frame_rate_num">30</property>
  <property name="meta.media.frame_rate_den">1</property>
  <property name="meta.media.colorspace">601</property>
  <property name="meta.media.color_trc">1</property>
  <property name="meta.media.has_b_frames">0</property>
  <property name="meta.media.width">2260</property>
  <property name="meta.media.height">1080</property>
  <property name="meta.media.color_range">mpeg</property>
  <property name="xml">was here</property>
  <property name="meta.media.top_field_first">0</property>
  <property name="meta.media.progressive">1</property>
  <property name="set.test_image">0</property>
  <property name="mute_on_pause">1</property>
 </chain>
 <chain id="chain375" out="00:11:30.400">
  <property name="length">17261</property>
  <property name="eof">pause</property>
  <property name="resource">/home/liquidzulu/Videos/yt/b-roll/You Can Always Leave [fasTSY-dB-s].webm</property>
  <property name="mlt_service">avformat-novalidate</property>
  <property name="seekable">1</property>
  <property name="format">3</property>
  <property name="audio_index">-1</property>
  <property name="video_index">0</property>
  <property name="kdenlive:clipname"/>
  <property name="kdenlive:clip_type">0</property>
  <property name="kdenlive:folderid">-1</property>
  <property name="kdenlive:id">731</property>
  <property name="kdenlive:file_size">39464218</property>
  <property name="kdenlive:file_hash">2a192f53b74b01e1709978d0c3206656</property>
  <property name="kdenlive:audio_max1">221</property>
  <property name="kdenlive:active_streams">-1</property>
  <property name="set.test_audio">1</property>
  <property name="meta.media.nb_streams">2</property>
  <property name="meta.media.0.stream.type">video</property>
  <property name="meta.media.0.stream.frame_rate">24</property>
  <property name="meta.media.0.stream.sample_aspect_ratio">1</property>
  <property name="meta.media.0.codec.width">1920</property>
  <property name="meta.media.0.codec.height">1080</property>
  <property name="meta.media.0.codec.rotate">0</property>
  <property name="meta.media.0.codec.pix_fmt">yuv420p</property>
  <property name="meta.media.0.codec.sample_aspect_ratio">0</property>
  <property name="meta.media.0.codec.colorspace">709</property>
  <property name="meta.media.0.codec.color_trc">1</property>
  <property name="meta.media.0.codec.name">vp9</property>
  <property name="meta.media.0.codec.long_name">Google VP9</property>
  <property name="meta.media.0.codec.bit_rate">0</property>
  <property name="meta.attr.0.stream.language.markup">eng</property>
  <property name="meta.attr.0.stream.DURATION.markup">00:11:30.374000000</property>
  <property name="meta.media.1.stream.type">audio</property>
  <property name="meta.media.1.codec.sample_fmt">fltp</property>
  <property name="meta.media.1.codec.sample_rate">48000</property>
  <property name="meta.media.1.codec.channels">2</property>
  <property name="meta.media.1.codec.name">opus</property>
  <property name="meta.media.1.codec.long_name">Opus</property>
  <property name="meta.media.1.codec.bit_rate">0</property>
  <property name="meta.attr.1.stream.language.markup">eng</property>
  <property name="meta.attr.1.stream.DURATION.markup">00:11:30.441000000</property>
  <property name="meta.attr.ENCODER.markup">Lavf59.27.100</property>
  <property name="meta.media.sample_aspect_num">1</property>
  <property name="meta.media.sample_aspect_den">1</property>
  <property name="meta.media.frame_rate_num">24</property>
  <property name="meta.media.frame_rate_den">1</property>
  <property name="meta.media.colorspace">709</property>
  <property name="meta.media.color_trc">1</property>
  <property name="meta.media.has_b_frames">0</property>
  <property name="meta.media.width">1920</property>
  <property name="meta.media.height">1080</property>
  <property name="meta.media.color_range">mpeg</property>
  <property name="xml">was here</property>
  <property name="meta.media.top_field_first">0</property>
  <property name="meta.media.progressive">1</property>
  <property name="set.test_image">0</property>
  <property name="mute_on_pause">1</property>
 </chain>
 <chain id="chain383" out="01:39:18.480">
  <property name="length">148963</property>
  <property name="eof">pause</property>
  <property name="resource">b-roll/AI Ethics, Artists, and What You Can Do About It [Nn_w3MnCyDY].webm</property>
  <property name="mlt_service">avformat-novalidate</property>
  <property name="seekable">1</property>
  <property name="format">3</property>
  <property name="audio_index">1</property>
  <property name="video_index">0</property>
  <property name="kdenlive:clipname"/>
  <property name="kdenlive:clip_type">0</property>
  <property name="kdenlive:folderid">14</property>
  <property name="kdenlive:id">7</property>
  <property name="kdenlive:file_size">7320919605</property>
  <property name="kdenlive:file_hash">305a2e1f8f3b9e51e9a0da642870036e</property>
  <property name="kdenlive:audio_max1">220</property>
  <property name="meta.media.nb_streams">2</property>
  <property name="meta.media.0.stream.type">video</property>
  <property name="meta.media.0.stream.frame_rate">23.976</property>
  <property name="meta.media.0.stream.sample_aspect_ratio">1</property>
  <property name="meta.media.0.codec.width">3840</property>
  <property name="meta.media.0.codec.height">2160</property>
  <property name="meta.media.0.codec.rotate">0</property>
  <property name="meta.media.0.codec.pix_fmt">yuv420p</property>
  <property name="meta.media.0.codec.sample_aspect_ratio">0</property>
  <property name="meta.media.0.codec.colorspace">709</property>
  <property name="meta.media.0.codec.color_trc">1</property>
  <property name="meta.media.0.codec.name">vp9</property>
  <property name="meta.media.0.codec.long_name">Google VP9</property>
  <property name="meta.media.0.codec.bit_rate">0</property>
  <property name="meta.attr.0.stream.language.markup">eng</property>
  <property name="meta.attr.0.stream.DURATION.markup">01:39:18.493000000</property>
  <property name="meta.media.1.stream.type">audio</property>
  <property name="meta.media.1.codec.sample_fmt">fltp</property>
  <property name="meta.media.1.codec.sample_rate">48000</property>
  <property name="meta.media.1.codec.channels">2</property>
  <property name="meta.media.1.codec.name">opus</property>
  <property name="meta.media.1.codec.long_name">Opus</property>
  <property name="meta.media.1.codec.bit_rate">0</property>
  <property name="meta.attr.1.stream.language.markup">eng</property>
  <property name="meta.attr.1.stream.DURATION.markup">01:39:18.521000000</property>
  <property name="meta.attr.ENCODER.markup">Lavf59.27.100</property>
  <property name="meta.media.sample_aspect_num">1</property>
  <property name="meta.media.sample_aspect_den">1</property>
  <property name="meta.media.frame_rate_num">24000</property>
  <property name="meta.media.frame_rate_den">1001</property>
  <property name="meta.media.colorspace">709</property>
  <property name="meta.media.color_trc">1</property>
  <property name="meta.media.has_b_frames">0</property>
  <property name="meta.media.width">3840</property>
  <property name="meta.media.height">2160</property>
  <property name="meta.media.color_range">mpeg</property>
  <property name="xml">was here</property>
  <property name="meta.media.top_field_first">0</property>
  <property name="meta.media.progressive">1</property>
  <property name="set.test_audio">1</property>
  <property name="set.test_image">0</property>
  <property name="mute_on_pause">1</property>
 </chain>
 <chain id="chain384" out="00:00:08.160">
  <property name="length">205</property>
  <property name="eof">pause</property>
  <property name="resource">videos/VID_20231001_161322.mp4</property>
  <property name="mlt_service">avformat-novalidate</property>
  <property name="seekable">1</property>
  <property name="format">3</property>
  <property name="audio_index">1</property>
  <property name="video_index">0</property>
  <property name="kdenlive:clipname"/>
  <property name="kdenlive:clip_type">0</property>
  <property name="kdenlive:folderid">14</property>
  <property name="kdenlive:id">740</property>
  <property name="kdenlive:file_size">43796392</property>
  <property name="kdenlive:file_hash">08110d7840c797a108e9b5272feb7e9c</property>
  <property name="kdenlive:audio_max1">70</property>
  <property name="meta.media.nb_streams">2</property>
  <property name="meta.media.0.stream.type">video</property>
  <property name="meta.media.0.stream.frame_rate">29.9022</property>
  <property name="meta.media.0.stream.sample_aspect_ratio">0</property>
  <property name="meta.media.0.codec.width">3840</property>
  <property name="meta.media.0.codec.height">2160</property>
  <property name="meta.media.0.codec.rotate">0</property>
  <property name="meta.media.0.codec.pix_fmt">yuvj420p</property>
  <property name="meta.media.0.codec.sample_aspect_ratio">0</property>
  <property name="meta.media.0.codec.colorspace">601</property>
  <property name="meta.media.0.codec.color_trc">6</property>
  <property name="meta.media.0.codec.name">h264</property>
  <property name="meta.media.0.codec.long_name">H.264 / AVC / MPEG-4 AVC / MPEG-4 part 10</property>
  <property name="meta.media.0.codec.bit_rate">42662534</property>
  <property name="meta.attr.0.stream.creation_time.markup">2023-10-01T15:13:31.000000Z</property>
  <property name="meta.attr.0.stream.language.markup">eng</property>
  <property name="meta.attr.0.stream.handler_name.markup">VideoHandle</property>
  <property name="meta.attr.0.stream.vendor_id.markup">[0][0][0][0]</property>
  <property name="meta.media.1.stream.type">audio</property>
  <property name="meta.media.1.codec.sample_fmt">fltp</property>
  <property name="meta.media.1.codec.sample_rate">48000</property>
  <property name="meta.media.1.codec.channels">1</property>
  <property name="meta.media.1.codec.name">aac</property>
  <property name="meta.media.1.codec.long_name">AAC (Advanced Audio Coding)</property>
  <property name="meta.media.1.codec.bit_rate">96150</property>
  <property name="meta.attr.1.stream.creation_time.markup">2023-10-01T15:13:31.000000Z</property>
  <property name="meta.attr.1.stream.language.markup">eng</property>
  <property name="meta.attr.1.stream.handler_name.markup">SoundHandle</property>
  <property name="meta.attr.1.stream.vendor_id.markup">[0][0][0][0]</property>
  <property name="meta.attr.major_brand.markup">mp42</property>
  <property name="meta.attr.minor_version.markup">0</property>
  <property name="meta.attr.compatible_brands.markup">isommp42</property>
  <property name="meta.attr.creation_time.markup">2023-10-01T15:13:31.000000Z</property>
  <property name="meta.attr.com.android.version.markup">12</property>
  <property name="meta.media.sample_aspect_num">1</property>
  <property name="meta.media.sample_aspect_den">1</property>
  <property name="meta.media.frame_rate_num">5512500</property>
  <property name="meta.media.frame_rate_den">184351</property>
  <property name="meta.media.colorspace">601</property>
  <property name="meta.media.color_trc">6</property>
  <property name="meta.media.has_b_frames">0</property>
  <property name="meta.media.width">3840</property>
  <property name="meta.media.height">2160</property>
  <property name="meta.media.color_range">full</property>
  <property name="xml">was here</property>
  <property name="meta.media.top_field_first">0</property>
  <property name="meta.media.progressive">1</property>
  <property name="set.test_audio">1</property>
  <property name="set.test_image">0</property>
  <property name="mute_on_pause">1</property>
 </chain>
 <chain id="chain385" out="00:49:38.320">
  <property name="length">74459</property>
  <property name="eof">pause</property>
  <property name="resource">/home/liquidzulu/Videos/yt/lectures/The Future of Austrian Economics ï½œ Murray N. Rothbard [KWdUIuID8ag].mp4</property>
  <property name="mlt_service">avformat-novalidate</property>
  <property name="seekable">1</property>
  <property name="format">3</property>
  <property name="audio_index">-1</property>
  <property name="video_index">0</property>
  <property name="kdenlive:clipname"/>
  <property name="kdenlive:clip_type">0</property>
  <property name="kdenlive:folderid">14</property>
  <property name="kdenlive:id">742</property>
  <property name="kdenlive:file_size">139670503</property>
  <property name="kdenlive:file_hash">f85c029a0f5a412ac656de51f79e8566</property>
  <property name="kdenlive:audio_max1">200</property>
  <property name="kdenlive:active_streams">-1</property>
  <property name="set.test_audio">1</property>
  <property name="meta.media.nb_streams">2</property>
  <property name="meta.media.0.stream.type">video</property>
  <property name="meta.media.0.stream.frame_rate">30</property>
  <property name="meta.media.0.stream.sample_aspect_ratio">1</property>
  <property name="meta.media.0.codec.width">320</property>
  <property name="meta.media.0.codec.height">240</property>
  <property name="meta.media.0.codec.rotate">0</property>
  <property name="meta.media.0.codec.pix_fmt">yuv420p</property>
  <property name="meta.media.0.codec.sample_aspect_ratio">1</property>
  <property name="meta.media.0.codec.colorspace">601</property>
  <property name="meta.media.0.codec.name">h264</property>
  <property name="meta.media.0.codec.long_name">H.264 / AVC / MPEG-4 AVC / MPEG-4 part 10</property>
  <property name="meta.media.0.codec.bit_rate">242418</property>
  <property name="meta.attr.0.stream.handler_name.markup">VideoHandler</property>
  <property name="meta.attr.0.stream.vendor_id.markup">[0][0][0][0]</property>
  <property name="meta.media.1.stream.type">audio</property>
  <property name="meta.media.1.codec.sample_fmt">fltp</property>
  <property name="meta.media.1.codec.sample_rate">44100</property>
  <property name="meta.media.1.codec.channels">2</property>
  <property name="meta.media.1.codec.name">aac</property>
  <property name="meta.media.1.codec.long_name">AAC (Advanced Audio Coding)</property>
  <property name="meta.media.1.codec.bit_rate">125588</property>
  <property name="meta.attr.1.stream.handler_name.markup">SoundHandler</property>
  <property name="meta.attr.1.stream.vendor_id.markup">[0][0][0][0]</property>
  <property name="meta.attr.major_brand.markup">isom</property>
  <property name="meta.attr.minor_version.markup">512</property>
  <property name="meta.attr.compatible_brands.markup">isomiso2avc1mp41</property>
  <property name="meta.attr.encoder.markup">Lavf59.27.100</property>
  <property name="meta.media.sample_aspect_num">1</property>
  <property name="meta.media.sample_aspect_den">1</property>
  <property name="meta.media.frame_rate_num">30</property>
  <property name="meta.media.frame_rate_den">1</property>
  <property name="meta.media.colorspace">601</property>
  <property name="meta.media.color_trc">2</property>
  <property name="meta.media.has_b_frames">0</property>
  <property name="meta.media.width">320</property>
  <property name="meta.media.height">240</property>
  <property name="meta.media.color_range">mpeg</property>
  <property name="xml">was here</property>
  <property name="meta.media.top_field_first">0</property>
  <property name="meta.media.progressive">1</property>
  <property name="set.test_image">0</property>
  <property name="mute_on_pause">1</property>
 </chain>
 <chain id="chain386" out="00:42:46.360">
  <property name="length">64160</property>
  <property name="eof">pause</property>
  <property name="resource">b-roll/Art is Hard. The Deceit, Egotism, and Jealousy of ï¼‚AI Artï¼‚ (ft. @shadiversity ) [dTR_k8ueAL0].webm</property>
  <property name="mlt_service">avformat-novalidate</property>
  <property name="seekable">1</property>
  <property name="format">3</property>
  <property name="audio_index">-1</property>
  <property name="video_index">0</property>
  <property name="kdenlive:clipname"/>
  <property name="kdenlive:clip_type">0</property>
  <property name="kdenlive:folderid">-1</property>
  <property name="kdenlive:id">749</property>
  <property name="kdenlive:file_size">502387075</property>
  <property name="kdenlive:file_hash">86fb305796f115c6ecc0dc6f21408ae7</property>
  <property name="kdenlive:audio_max1">227</property>
  <property name="kdenlive:active_streams">-1</property>
  <property name="set.test_audio">1</property>
  <property name="meta.media.nb_streams">2</property>
  <property name="meta.media.0.stream.type">video</property>
  <property name="meta.media.0.stream.frame_rate">23.976</property>
  <property name="meta.media.0.stream.sample_aspect_ratio">1</property>
  <property name="meta.media.0.codec.width">1920</property>
  <property name="meta.media.0.codec.height">1080</property>
  <property name="meta.media.0.codec.rotate">0</property>
  <property name="meta.media.0.codec.pix_fmt">yuv420p</property>
  <property name="meta.media.0.codec.sample_aspect_ratio">0</property>
  <property name="meta.media.0.codec.colorspace">709</property>
  <property name="meta.media.0.codec.color_trc">1</property>
  <property name="meta.media.0.codec.name">vp9</property>
  <property name="meta.media.0.codec.long_name">Google VP9</property>
  <property name="meta.media.0.codec.bit_rate">0</property>
  <property name="meta.attr.0.stream.language.markup">eng</property>
  <property name="meta.attr.0.stream.DURATION.markup">00:42:46.355000000</property>
  <property name="meta.media.1.stream.type">audio</property>
  <property name="meta.media.1.codec.sample_fmt">fltp</property>
  <property name="meta.media.1.codec.sample_rate">48000</property>
  <property name="meta.media.1.codec.channels">2</property>
  <property name="meta.media.1.codec.name">opus</property>
  <property name="meta.media.1.codec.long_name">Opus</property>
  <property name="meta.media.1.codec.bit_rate">0</property>
  <property name="meta.attr.1.stream.language.markup">eng</property>
  <property name="meta.attr.1.stream.DURATION.markup">00:42:46.381000000</property>
  <property name="meta.attr.ENCODER.markup">Lavf59.27.100</property>
  <property name="meta.media.sample_aspect_num">1</property>
  <property name="meta.media.sample_aspect_den">1</property>
  <property name="meta.media.frame_rate_num">24000</property>
  <property name="meta.media.frame_rate_den">1001</property>
  <property name="meta.media.colorspace">709</property>
  <property name="meta.media.color_trc">1</property>
  <property name="meta.media.has_b_frames">0</property>
  <property name="meta.media.width">1920</property>
  <property name="meta.media.height">1080</property>
  <property name="meta.media.color_range">mpeg</property>
  <property name="xml">was here</property>
  <property name="meta.media.top_field_first">0</property>
  <property name="meta.media.progressive">1</property>
  <property name="set.test_image">0</property>
  <property name="mute_on_pause">1</property>
 </chain>
 <chain id="chain387" out="00:56:37.840">
  <property name="length">84947</property>
  <property name="eof">pause</property>
  <property name="resource">b-roll/Here's What Ethical AI Really Means [AaU6tI2pb3M].webm</property>
  <property name="mlt_service">avformat-novalidate</property>
  <property name="seekable">1</property>
  <property name="format">3</property>
  <property name="audio_index">-1</property>
  <property name="video_index">0</property>
  <property name="kdenlive:clipname"/>
  <property name="kdenlive:clip_type">0</property>
  <property name="kdenlive:folderid">14</property>
  <property name="kdenlive:id">763</property>
  <property name="kdenlive:file_size">3253069716</property>
  <property name="kdenlive:file_hash">95f641f5e157428d4a2ff1a7e579fd7e</property>
  <property name="kdenlive:audio_max1">202</property>
  <property name="kdenlive:active_streams">-1</property>
  <property name="set.test_audio">1</property>
  <property name="meta.media.nb_streams">2</property>
  <property name="meta.media.0.stream.type">video</property>
  <property name="meta.media.0.stream.frame_rate">30</property>
  <property name="meta.media.0.stream.sample_aspect_ratio">1</property>
  <property name="meta.media.0.codec.width">3840</property>
  <property name="meta.media.0.codec.height">2160</property>
  <property name="meta.media.0.codec.rotate">0</property>
  <property name="meta.media.0.codec.pix_fmt">yuv420p</property>
  <property name="meta.media.0.codec.sample_aspect_ratio">0</property>
  <property name="meta.media.0.codec.colorspace">709</property>
  <property name="meta.media.0.codec.color_trc">1</property>
  <property name="meta.media.0.codec.name">vp9</property>
  <property name="meta.media.0.codec.long_name">Google VP9</property>
  <property name="meta.media.0.codec.bit_rate">0</property>
  <property name="meta.attr.0.stream.language.markup">eng</property>
  <property name="meta.attr.0.stream.DURATION.markup">00:56:37.833000000</property>
  <property name="meta.media.1.stream.type">audio</property>
  <property name="meta.media.1.codec.sample_fmt">fltp</property>
  <property name="meta.media.1.codec.sample_rate">48000</property>
  <property name="meta.media.1.codec.channels">2</property>
  <property name="meta.media.1.codec.name">opus</property>
  <property name="meta.media.1.codec.long_name">Opus</property>
  <property name="meta.media.1.codec.bit_rate">0</property>
  <property name="meta.attr.1.stream.language.markup">eng</property>
  <property name="meta.attr.1.stream.DURATION.markup">00:56:37.861000000</property>
  <property name="meta.attr.ENCODER.markup">Lavf59.27.100</property>
  <property name="meta.media.sample_aspect_num">1</property>
  <property name="meta.media.sample_aspect_den">1</property>
  <property name="meta.media.frame_rate_num">30</property>
  <property name="meta.media.frame_rate_den">1</property>
  <property name="meta.media.colorspace">709</property>
  <property name="meta.media.color_trc">1</property>
  <property name="meta.media.has_b_frames">0</property>
  <property name="meta.media.width">3840</property>
  <property name="meta.media.height">2160</property>
  <property name="meta.media.color_range">mpeg</property>
  <property name="xml">was here</property>
  <property name="meta.media.top_field_first">0</property>
  <property name="meta.media.progressive">1</property>
  <property name="set.test_image">0</property>
  <property name="mute_on_pause">1</property>
 </chain>
 <chain id="chain388" out="00:01:00.960">
  <property name="length">1525</property>
  <property name="eof">pause</property>
  <property name="resource">/home/liquidzulu/Videos/yt/b-roll/Professional, Corporate, Small Business Stock Footage Highlight Reel [YLN1Argi7ik].webm</property>
  <property name="mlt_service">avformat-novalidate</property>
  <property name="seekable">1</property>
  <property name="format">3</property>
  <property name="audio_index">-1</property>
  <property name="video_index">0</property>
  <property name="kdenlive:clipname"/>
  <property name="kdenlive:clip_type">0</property>
  <property name="kdenlive:folderid">14</property>
  <property name="kdenlive:id">735</property>
  <property name="kdenlive:file_size">14270636</property>
  <property name="kdenlive:file_hash">1dff43e022ff258026a5cb9bdcd4f6ca</property>
  <property name="kdenlive:audio_max1">242</property>
  <property name="kdenlive:active_streams">-1</property>
  <property name="set.test_audio">1</property>
  <property name="meta.media.nb_streams">2</property>
  <property name="meta.media.0.stream.type">video</property>
  <property name="meta.media.0.stream.frame_rate">29.97</property>
  <property name="meta.media.0.stream.sample_aspect_ratio">1</property>
  <property name="meta.media.0.codec.width">1920</property>
  <property name="meta.media.0.codec.height">1080</property>
  <property name="meta.media.0.codec.rotate">0</property>
  <property name="meta.media.0.codec.pix_fmt">yuv420p</property>
  <property name="meta.media.0.codec.sample_aspect_ratio">0</property>
  <property name="meta.media.0.codec.colorspace">709</property>
  <property name="meta.media.0.codec.color_trc">1</property>
  <property name="meta.media.0.codec.name">vp9</property>
  <property name="meta.media.0.codec.long_name">Google VP9</property>
  <property name="meta.media.0.codec.bit_rate">0</property>
  <property name="meta.attr.0.stream.language.markup">eng</property>
  <property name="meta.attr.0.stream.DURATION.markup">00:01:00.960000000</property>
  <property name="meta.media.1.stream.type">audio</property>
  <property name="meta.media.1.codec.sample_fmt">fltp</property>
  <property name="meta.media.1.codec.sample_rate">48000</property>
  <property name="meta.media.1.codec.channels">2</property>
  <property name="meta.media.1.codec.name">opus</property>
  <property name="meta.media.1.codec.long_name">Opus</property>
  <property name="meta.media.1.codec.bit_rate">0</property>
  <property name="meta.attr.1.stream.language.markup">eng</property>
  <property name="meta.attr.1.stream.DURATION.markup">00:01:00.981000000</property>
  <property name="meta.attr.ENCODER.markup">Lavf59.27.100</property>
  <property name="meta.media.sample_aspect_num">1</property>
  <property name="meta.media.sample_aspect_den">1</property>
  <property name="meta.media.frame_rate_num">30000</property>
  <property name="meta.media.frame_rate_den">1001</property>
  <property name="meta.media.colorspace">709</property>
  <property name="meta.media.color_trc">1</property>
  <property name="meta.media.has_b_frames">0</property>
  <property name="meta.media.width">1920</property>
  <property name="meta.media.height">1080</property>
  <property name="meta.media.color_range">mpeg</property>
  <property name="xml">was here</property>
  <property name="meta.media.top_field_first">0</property>
  <property name="meta.media.progressive">1</property>
  <property name="set.test_image">0</property>
  <property name="mute_on_pause">1</property>
 </chain>
 <producer id="producer644" in="00:00:00.000" out="00:00:07.480">
  <property name="length">188</property>
  <property name="eof">pause</property>
  <property name="resource">2.000000:videos/image-to-image.mkv</property>
  <property name="aspect_ratio">1</property>
  <property name="meta.media.nb_streams">2</property>
  <property name="meta.media.0.stream.type">video</property>
  <property name="meta.media.0.stream.frame_rate">60</property>
  <property name="meta.media.0.stream.sample_aspect_ratio">0</property>
  <property name="meta.media.0.codec.width">1920</property>
  <property name="meta.media.0.codec.height">1080</property>
  <property name="meta.media.0.codec.rotate">0</property>
  <property name="meta.media.0.codec.pix_fmt">yuv420p</property>
  <property name="meta.media.0.codec.sample_aspect_ratio">1</property>
  <property name="meta.media.0.codec.colorspace">709</property>
  <property name="meta.media.0.codec.color_trc">1</property>
  <property name="meta.media.0.codec.name">h264</property>
  <property name="meta.media.0.codec.long_name">H.264 / AVC / MPEG-4 AVC / MPEG-4 part 10</property>
  <property name="meta.media.0.codec.bit_rate">0</property>
  <property name="meta.attr.0.stream.DURATION.markup">00:00:15.050000000</property>
  <property name="meta.media.1.stream.type">audio</property>
  <property name="meta.media.1.codec.sample_fmt">fltp</property>
  <property name="meta.media.1.codec.sample_rate">48000</property>
  <property name="meta.media.1.codec.channels">2</property>
  <property name="meta.media.1.codec.name">aac</property>
  <property name="meta.media.1.codec.long_name">AAC (Advanced Audio Coding)</property>
  <property name="meta.media.1.codec.bit_rate">0</property>
  <property name="meta.attr.1.stream.title.markup">simple_aac_recording</property>
  <property name="meta.attr.1.stream.DURATION.markup">00:00:15.018000000</property>
  <property name="meta.attr.ENCODER.markup">Lavf59.27.100</property>
  <property name="seekable">1</property>
  <property name="meta.media.sample_aspect_num">1</property>
  <property name="meta.media.sample_aspect_den">1</property>
  <property name="format">3</property>
  <property name="audio_index">-1</property>
  <property name="video_index">0</property>
  <property name="mute_on_pause">1</property>
  <property name="warp_speed">2</property>
  <property name="warp_resource">videos/image-to-image.mkv</property>
  <property name="mlt_service">timewarp</property>
  <property name="set.test_audio">1</property>
  <property name="set.test_image">0</property>
  <property name="kdenlive:id">358</property>
  <property name="warp_pitch">0</property>
  <property name="meta.media.frame_rate_num">60</property>
  <property name="meta.media.frame_rate_den">1</property>
  <property name="meta.media.colorspace">709</property>
  <property name="meta.media.color_trc">1</property>
  <property name="meta.media.has_b_frames">2</property>
  <property name="meta.media.width">1920</property>
  <property name="meta.media.height">1080</property>
  <property name="meta.media.color_range">mpeg</property>
  <property name="meta.media.top_field_first">0</property>
  <property name="meta.media.progressive">1</property>
 </producer>
 <chain id="chain389" out="01:22:01.600">
  <property name="length">123041</property>
  <property name="eof">pause</property>
  <property name="resource">b-roll/What AI Developers Want Artists to Know about AI [K_Bqq09Kaxk].webm</property>
  <property name="mlt_service">avformat-novalidate</property>
  <property name="seekable">1</property>
  <property name="format">3</property>
  <property name="audio_index">-1</property>
  <property name="video_index">0</property>
  <property name="kdenlive:clipname"/>
  <property name="kdenlive:clip_type">0</property>
  <property name="kdenlive:folderid">-1</property>
  <property name="kdenlive:id">802</property>
  <property name="kdenlive:file_size">3592761928</property>
  <property name="kdenlive:file_hash">f7e2115834d4f040c7740feec4df662d</property>
  <property name="kdenlive:audio_max1">229</property>
  <property name="kdenlive:active_streams">-1</property>
  <property name="set.test_audio">1</property>
  <property name="meta.media.nb_streams">2</property>
  <property name="meta.media.0.stream.type">video</property>
  <property name="meta.media.0.stream.frame_rate">23.976</property>
  <property name="meta.media.0.stream.sample_aspect_ratio">1</property>
  <property name="meta.media.0.codec.width">3840</property>
  <property name="meta.media.0.codec.height">2160</property>
  <property name="meta.media.0.codec.rotate">0</property>
  <property name="meta.media.0.codec.pix_fmt">yuv420p</property>
  <property name="meta.media.0.codec.sample_aspect_ratio">0</property>
  <property name="meta.media.0.codec.colorspace">709</property>
  <property name="meta.media.0.codec.color_trc">1</property>
  <property name="meta.media.0.codec.name">vp9</property>
  <property name="meta.media.0.codec.long_name">Google VP9</property>
  <property name="meta.media.0.codec.bit_rate">0</property>
  <property name="meta.attr.0.stream.language.markup">eng</property>
  <property name="meta.attr.0.stream.DURATION.markup">01:22:01.625000000</property>
  <property name="meta.media.1.stream.type">audio</property>
  <property name="meta.media.1.codec.sample_fmt">fltp</property>
  <property name="meta.media.1.codec.sample_rate">48000</property>
  <property name="meta.media.1.codec.channels">2</property>
  <property name="meta.media.1.codec.name">opus</property>
  <property name="meta.media.1.codec.long_name">Opus</property>
  <property name="meta.media.1.codec.bit_rate">0</property>
  <property name="meta.attr.1.stream.language.markup">eng</property>
  <property name="meta.attr.1.stream.DURATION.markup">01:22:01.641000000</property>
  <property name="meta.attr.ENCODER.markup">Lavf59.27.100</property>
  <property name="meta.media.sample_aspect_num">1</property>
  <property name="meta.media.sample_aspect_den">1</property>
  <property name="meta.media.frame_rate_num">24000</property>
  <property name="meta.media.frame_rate_den">1001</property>
  <property name="meta.media.colorspace">709</property>
  <property name="meta.media.color_trc">1</property>
  <property name="meta.media.has_b_frames">0</property>
  <property name="meta.media.width">3840</property>
  <property name="meta.media.height">2160</property>
  <property name="meta.media.color_range">mpeg</property>
  <property name="xml">was here</property>
  <property name="meta.media.top_field_first">0</property>
  <property name="meta.media.progressive">1</property>
  <property name="set.test_image">0</property>
  <property name="mute_on_pause">1</property>
 </chain>
 <chain id="chain390" out="00:19:50.960">
  <property name="length">29775</property>
  <property name="eof">pause</property>
  <property name="resource">b-roll/NO, AI Does NOT Democratize Art (And That's a Dumb Defense) ï½œï½œ SPEEDPAINT + COMMENTARY [lDtAL5IQRMc].webm</property>
  <property name="mlt_service">avformat-novalidate</property>
  <property name="seekable">1</property>
  <property name="format">3</property>
  <property name="audio_index">-1</property>
  <property name="video_index">0</property>
  <property name="kdenlive:clipname"/>
  <property name="kdenlive:clip_type">0</property>
  <property name="kdenlive:folderid">-1</property>
  <property name="kdenlive:id">818</property>
  <property name="kdenlive:file_size">159454885</property>
  <property name="kdenlive:file_hash">e92042182c49830a6d655e13b6193bd8</property>
  <property name="kdenlive:audio_max1">205</property>
  <property name="kdenlive:active_streams">-1</property>
  <property name="set.test_audio">1</property>
  <property name="meta.media.nb_streams">2</property>
  <property name="meta.media.0.stream.type">video</property>
  <property name="meta.media.0.stream.frame_rate">30</property>
  <property name="meta.media.0.stream.sample_aspect_ratio">1</property>
  <property name="meta.media.0.codec.width">1920</property>
  <property name="meta.media.0.codec.height">1080</property>
  <property name="meta.media.0.codec.rotate">0</property>
  <property name="meta.media.0.codec.pix_fmt">yuv420p</property>
  <property name="meta.media.0.codec.sample_aspect_ratio">0</property>
  <property name="meta.media.0.codec.colorspace">709</property>
  <property name="meta.media.0.codec.color_trc">1</property>
  <property name="meta.media.0.codec.name">vp9</property>
  <property name="meta.media.0.codec.long_name">Google VP9</property>
  <property name="meta.media.0.codec.bit_rate">0</property>
  <property name="meta.attr.0.stream.HANDLER_NAME.markup">ISO Media file produced by Google Inc. Created on: 12/09/2023.</property>
  <property name="meta.attr.0.stream.VENDOR_ID.markup">[0][0][0][0]</property>
  <property name="meta.attr.0.stream.DURATION.markup">00:19:50.967000000</property>
  <property name="meta.media.1.stream.type">audio</property>
  <property name="meta.media.1.codec.sample_fmt">fltp</property>
  <property name="meta.media.1.codec.sample_rate">48000</property>
  <property name="meta.media.1.codec.channels">2</property>
  <property name="meta.media.1.codec.name">opus</property>
  <property name="meta.media.1.codec.long_name">Opus</property>
  <property name="meta.media.1.codec.bit_rate">0</property>
  <property name="meta.attr.1.stream.language.markup">eng</property>
  <property name="meta.attr.1.stream.DURATION.markup">00:19:51.001000000</property>
  <property name="meta.attr.COMPATIBLE_BRANDS.markup">iso6mp41</property>
  <property name="meta.attr.MAJOR_BRAND.markup">dash</property>
  <property name="meta.attr.MINOR_VERSION.markup">0</property>
  <property name="meta.attr.ENCODER.markup">Lavf59.27.100</property>
  <property name="meta.media.sample_aspect_num">1</property>
  <property name="meta.media.sample_aspect_den">1</property>
  <property name="meta.media.frame_rate_num">30</property>
  <property name="meta.media.frame_rate_den">1</property>
  <property name="meta.media.colorspace">709</property>
  <property name="meta.media.color_trc">1</property>
  <property name="meta.media.has_b_frames">0</property>
  <property name="meta.media.width">1920</property>
  <property name="meta.media.height">1080</property>
  <property name="meta.media.color_range">mpeg</property>
  <property name="xml">was here</property>
  <property name="meta.media.top_field_first">0</property>
  <property name="meta.media.progressive">1</property>
  <property name="set.test_image">0</property>
  <property name="mute_on_pause">1</property>
 </chain>
 <producer id="producer645" in="00:00:00.000" out="00:00:19.680">
  <property name="length">00:00:19.720</property>
  <property name="eof">pause</property>
  <property name="resource">/home/liquidzulu/Pictures/yt/animation/output/project/footnotes/footnote-74/.all.png</property>
  <property name="ttl">1</property>
  <property name="aspect_ratio">1</property>
  <property name="progressive">1</property>
  <property name="seekable">1</property>
  <property name="format">2</property>
  <property name="meta.media.width">1920</property>
  <property name="meta.media.height">1080</property>
  <property name="mlt_service">qimage</property>
  <property name="kdenlive:clipname">footnote-74</property>
  <property name="low-pass">0</property>
  <property name="animation"/>
  <property name="luma_file"/>
  <property name="luma_duration">25</property>
  <property name="fade">0</property>
  <property name="crop">0</property>
  <property name="softness">0</property>
  <property name="loop">0</property>
  <property name="kdenlive:duration">00:00:19:18</property>
  <property name="kdenlive:folderid">-1</property>
  <property name="kdenlive:id">827</property>
  <property name="kdenlive:clip_type">2</property>
  <property name="kdenlive:file_hash">450c928877f84729e189c6bbf9679c24</property>
  <property name="xml">was here</property>
  <property name="set.test_audio">1</property>
  <property name="set.test_image">0</property>
 </producer>
 <chain id="chain391" out="00:02:43.240">
  <property name="length">4082</property>
  <property name="eof">pause</property>
  <property name="resource">/home/liquidzulu/Videos/yt/b-roll/[Eng CC] Soviet March - 1980's Soviet Army [Red Alert 3] [t-VbAZcyZ_U].webm</property>
  <property name="mlt_service">avformat-novalidate</property>
  <property name="seekable">1</property>
  <property name="format">3</property>
  <property name="audio_index">-1</property>
  <property name="video_index">0</property>
  <property name="mute_on_pause">0</property>
  <property name="kdenlive:clipname"/>
  <property name="kdenlive:clip_type">0</property>
  <property name="kdenlive:folderid">-1</property>
  <property name="kdenlive:id">831</property>
  <property name="kdenlive:file_size">356431322</property>
  <property name="kdenlive:file_hash">2c4031e43511aca0bc28c816e958ce07</property>
  <property name="kdenlive:audio_max1">224</property>
  <property name="kdenlive:active_streams">-1</property>
  <property name="set.test_audio">1</property>
  <property name="meta.media.nb_streams">2</property>
  <property name="meta.media.0.stream.type">video</property>
  <property name="meta.media.0.stream.frame_rate">25</property>
  <property name="meta.media.0.stream.sample_aspect_ratio">1</property>
  <property name="meta.media.0.codec.width">3840</property>
  <property name="meta.media.0.codec.height">2160</property>
  <property name="meta.media.0.codec.rotate">0</property>
  <property name="meta.media.0.codec.pix_fmt">yuv420p</property>
  <property name="meta.media.0.codec.sample_aspect_ratio">0</property>
  <property name="meta.media.0.codec.colorspace">709</property>
  <property name="meta.media.0.codec.color_trc">1</property>
  <property name="meta.media.0.codec.name">vp9</property>
  <property name="meta.media.0.codec.long_name">Google VP9</property>
  <property name="meta.media.0.codec.bit_rate">0</property>
  <property name="meta.attr.0.stream.language.markup">eng</property>
  <property name="meta.attr.0.stream.DURATION.markup">00:02:43.240000000</property>
  <property name="meta.media.1.stream.type">audio</property>
  <property name="meta.media.1.codec.sample_fmt">fltp</property>
  <property name="meta.media.1.codec.sample_rate">48000</property>
  <property name="meta.media.1.codec.channels">2</property>
  <property name="meta.media.1.codec.name">opus</property>
  <property name="meta.media.1.codec.long_name">Opus</property>
  <property name="meta.media.1.codec.bit_rate">0</property>
  <property name="meta.attr.1.stream.language.markup">eng</property>
  <property name="meta.attr.1.stream.DURATION.markup">00:02:43.261000000</property>
  <property name="meta.attr.ENCODER.markup">Lavf59.27.100</property>
  <property name="meta.media.sample_aspect_num">1</property>
  <property name="meta.media.sample_aspect_den">1</property>
  <property name="meta.media.frame_rate_num">25</property>
  <property name="meta.media.frame_rate_den">1</property>
  <property name="meta.media.colorspace">709</property>
  <property name="meta.media.color_trc">1</property>
  <property name="meta.media.has_b_frames">0</property>
  <property name="meta.media.width">3840</property>
  <property name="meta.media.height">2160</property>
  <property name="meta.media.color_range">mpeg</property>
  <property name="xml">was here</property>
  <property name="meta.media.top_field_first">0</property>
  <property name="meta.media.progressive">1</property>
  <property name="set.test_image">0</property>
 </chain>
 <producer id="producer646" in="00:00:00.000" out="00:00:11.960">
  <property name="length">300</property>
  <property name="eof">pause</property>
  <property name="resource">images/hate-profit-1.png</property>
  <property name="ttl">25</property>
  <property name="aspect_ratio">1</property>
  <property name="progressive">1</property>
  <property name="seekable">1</property>
  <property name="format">2</property>
  <property name="meta.media.width">1920</property>
  <property name="meta.media.height">1080</property>
  <property name="mlt_service">qimage</property>
  <property name="kdenlive:clipname"/>
  <property name="kdenlive:duration">00:00:05:00</property>
  <property name="kdenlive:folderid">28</property>
  <property name="kdenlive:id">836</property>
  <property name="kdenlive:clip_type">2</property>
  <property name="kdenlive:file_size">131968</property>
  <property name="kdenlive:file_hash">ebc75a320426a988dc1bc56adf8edd35</property>
 </producer>
 <chain id="chain392" out="00:09:00.520">
  <property name="length">13514</property>
  <property name="eof">pause</property>
  <property name="resource">/home/liquidzulu/Videos/yt/b-roll/The Prestige Best Scenes - All The Scenes With Nikola Tesla [OgyZDo20Lh0].webm</property>
  <property name="mlt_service">avformat-novalidate</property>
  <property name="seekable">1</property>
  <property name="format">3</property>
  <property name="audio_index">-1</property>
  <property name="video_index">0</property>
  <property name="mute_on_pause">0</property>
  <property name="kdenlive:clipname"/>
  <property name="kdenlive:clip_type">0</property>
  <property name="kdenlive:folderid">-1</property>
  <property name="kdenlive:id">846</property>
  <property name="kdenlive:file_size">55626394</property>
  <property name="kdenlive:file_hash">49d81e711417c8676ef9e61cbf63e1b3</property>
  <property name="kdenlive:audio_max1">254</property>
  <property name="kdenlive:active_streams">-1</property>
  <property name="set.test_audio">1</property>
  <property name="meta.media.nb_streams">2</property>
  <property name="meta.media.0.stream.type">video</property>
  <property name="meta.media.0.stream.frame_rate">23.976</property>
  <property name="meta.media.0.stream.sample_aspect_ratio">1</property>
  <property name="meta.media.0.codec.width">1280</property>
  <property name="meta.media.0.codec.height">720</property>
  <property name="meta.media.0.codec.rotate">0</property>
  <property name="meta.media.0.codec.pix_fmt">yuv420p</property>
  <property name="meta.media.0.codec.sample_aspect_ratio">0</property>
  <property name="meta.media.0.codec.colorspace">709</property>
  <property name="meta.media.0.codec.color_trc">1</property>
  <property name="meta.media.0.codec.name">vp9</property>
  <property name="meta.media.0.codec.long_name">Google VP9</property>
  <property name="meta.media.0.codec.bit_rate">0</property>
  <property name="meta.attr.0.stream.language.markup">eng</property>
  <property name="meta.attr.0.stream.DURATION.markup">00:09:00.539000000</property>
  <property name="meta.media.1.stream.type">audio</property>
  <property name="meta.media.1.codec.sample_fmt">fltp</property>
  <property name="meta.media.1.codec.sample_rate">48000</property>
  <property name="meta.media.1.codec.channels">2</property>
  <property name="meta.media.1.codec.name">opus</property>
  <property name="meta.media.1.codec.long_name">Opus</property>
  <property name="meta.media.1.codec.bit_rate">0</property>
  <property name="meta.attr.1.stream.language.markup">eng</property>
  <property name="meta.attr.1.stream.DURATION.markup">00:09:00.561000000</property>
  <property name="meta.attr.ENCODER.markup">Lavf59.27.100</property>
  <property name="meta.media.sample_aspect_num">1</property>
  <property name="meta.media.sample_aspect_den">1</property>
  <property name="meta.media.frame_rate_num">24000</property>
  <property name="meta.media.frame_rate_den">1001</property>
  <property name="meta.media.colorspace">709</property>
  <property name="meta.media.color_trc">1</property>
  <property name="meta.media.has_b_frames">0</property>
  <property name="meta.media.width">1280</property>
  <property name="meta.media.height">720</property>
  <property name="meta.media.color_range">mpeg</property>
  <property name="xml">was here</property>
  <property name="meta.media.top_field_first">0</property>
  <property name="meta.media.progressive">1</property>
  <property name="set.test_image">0</property>
 </chain>
 <chain id="chain398" out="00:01:48.800">
  <property name="length">2721</property>
  <property name="eof">pause</property>
  <property name="resource">/home/liquidzulu/Videos/yt/b-roll/Police scuffle with London anti-lockdown &amp; Million Mask March protesters [b0FtlfjgPgU].webm</property>
  <property name="mlt_service">avformat-novalidate</property>
  <property name="seekable">1</property>
  <property name="format">3</property>
  <property name="audio_index">-1</property>
  <property name="video_index">0</property>
  <property name="mute_on_pause">0</property>
  <property name="kdenlive:clipname"/>
  <property name="kdenlive:clip_type">0</property>
  <property name="kdenlive:folderid">-1</property>
  <property name="kdenlive:id">849</property>
  <property name="kdenlive:file_size">34001204</property>
  <property name="kdenlive:file_hash">338980ffed7a34450391e2988ff80a35</property>
  <property name="kdenlive:audio_max1">168</property>
  <property name="kdenlive:active_streams">-1</property>
  <property name="set.test_audio">1</property>
  <property name="meta.media.nb_streams">2</property>
  <property name="meta.media.0.stream.type">video</property>
  <property name="meta.media.0.stream.frame_rate">25</property>
  <property name="meta.media.0.stream.sample_aspect_ratio">1</property>
  <property name="meta.media.0.codec.width">1920</property>
  <property name="meta.media.0.codec.height">1080</property>
  <property name="meta.media.0.codec.rotate">0</property>
  <property name="meta.media.0.codec.pix_fmt">yuv420p</property>
  <property name="meta.media.0.codec.sample_aspect_ratio">0</property>
  <property name="meta.media.0.codec.colorspace">709</property>
  <property name="meta.media.0.codec.color_trc">1</property>
  <property name="meta.media.0.codec.name">vp9</property>
  <property name="meta.media.0.codec.long_name">Google VP9</property>
  <property name="meta.media.0.codec.bit_rate">0</property>
  <property name="meta.attr.0.stream.language.markup">eng</property>
  <property name="meta.attr.0.stream.DURATION.markup">00:01:48.800000000</property>
  <property name="meta.media.1.stream.type">audio</property>
  <property name="meta.media.1.codec.sample_fmt">fltp</property>
  <property name="meta.media.1.codec.sample_rate">48000</property>
  <property name="meta.media.1.codec.channels">2</property>
  <property name="meta.media.1.codec.name">opus</property>
  <property name="meta.media.1.codec.long_name">Opus</property>
  <property name="meta.media.1.codec.bit_rate">0</property>
  <property name="meta.attr.1.stream.language.markup">eng</property>
  <property name="meta.attr.1.stream.DURATION.markup">00:01:48.821000000</property>
  <property name="meta.attr.ENCODER.markup">Lavf59.27.100</property>
  <property name="meta.media.sample_aspect_num">1</property>
  <property name="meta.media.sample_aspect_den">1</property>
  <property name="meta.media.frame_rate_num">25</property>
  <property name="meta.media.frame_rate_den">1</property>
  <property name="meta.media.colorspace">709</property>
  <property name="meta.media.color_trc">1</property>
  <property name="meta.media.has_b_frames">0</property>
  <property name="meta.media.width">1920</property>
  <property name="meta.media.height">1080</property>
  <property name="meta.media.color_range">mpeg</property>
  <property name="xml">was here</property>
  <property name="meta.media.top_field_first">0</property>
  <property name="meta.media.progressive">1</property>
  <property name="set.test_image">0</property>
 </chain>
 <producer id="producer648" in="00:00:00.000" out="00:00:04.960">
  <property name="length">00:00:05.000</property>
  <property name="eof">pause</property>
  <property name="resource">images/Torture_rack.jpg</property>
  <property name="ttl">25</property>
  <property name="aspect_ratio">1</property>
  <property name="progressive">1</property>
  <property name="seekable">1</property>
  <property name="format">1</property>
  <property name="meta.media.width">8256</property>
  <property name="meta.media.height">6192</property>
  <property name="mlt_service">qimage</property>
  <property name="kdenlive:clipname"/>
  <property name="kdenlive:duration">00:00:05:00</property>
  <property name="kdenlive:folderid">28</property>
  <property name="kdenlive:id">854</property>
  <property name="kdenlive:clip_type">2</property>
  <property name="kdenlive:file_size">12932754</property>
  <property name="kdenlive:file_hash">3a18793c5980e3337c8fd9e09178286e</property>
 </producer>
 <chain id="chain399" out="00:00:58.320">
  <property name="length">1459</property>
  <property name="eof">pause</property>
  <property name="resource">b-roll/Artist sells banana duct-taped to wall for $120,000 at Art Basel [WsXmohQcbtQ].webm</property>
  <property name="mlt_service">avformat-novalidate</property>
  <property name="seekable">1</property>
  <property name="format">3</property>
  <property name="audio_index">-1</property>
  <property name="video_index">0</property>
  <property name="kdenlive:clipname"/>
  <property name="kdenlive:clip_type">0</property>
  <property name="kdenlive:folderid">14</property>
  <property name="kdenlive:id">24</property>
  <property name="kdenlive:file_size">18321724</property>
  <property name="kdenlive:file_hash">d83386c3b1aa4b0f541318a951d343bc</property>
  <property name="kdenlive:audio_max1">169</property>
  <property name="kdenlive:active_streams">-1</property>
  <property name="set.test_audio">1</property>
  <property name="mute_on_pause">1</property>
  <property name="meta.media.nb_streams">2</property>
  <property name="meta.media.0.stream.type">video</property>
  <property name="meta.media.0.stream.frame_rate">29.97</property>
  <property name="meta.media.0.stream.sample_aspect_ratio">1</property>
  <property name="meta.media.0.codec.width">1920</property>
  <property name="meta.media.0.codec.height">1080</property>
  <property name="meta.media.0.codec.rotate">0</property>
  <property name="meta.media.0.codec.pix_fmt">yuv420p</property>
  <property name="meta.media.0.codec.sample_aspect_ratio">0</property>
  <property name="meta.media.0.codec.colorspace">709</property>
  <property name="meta.media.0.codec.color_trc">1</property>
  <property name="meta.media.0.codec.name">vp9</property>
  <property name="meta.media.0.codec.long_name">Google VP9</property>
  <property name="meta.media.0.codec.bit_rate">0</property>
  <property name="meta.attr.0.stream.language.markup">eng</property>
  <property name="meta.attr.0.stream.DURATION.markup">00:00:58.324000000</property>
  <property name="meta.media.1.stream.type">audio</property>
  <property name="meta.media.1.codec.sample_fmt">fltp</property>
  <property name="meta.media.1.codec.sample_rate">48000</property>
  <property name="meta.media.1.codec.channels">2</property>
  <property name="meta.media.1.codec.name">opus</property>
  <property name="meta.media.1.codec.long_name">Opus</property>
  <property name="meta.media.1.codec.bit_rate">0</property>
  <property name="meta.attr.1.stream.language.markup">eng</property>
  <property name="meta.attr.1.stream.DURATION.markup">00:00:58.341000000</property>
  <property name="meta.attr.ENCODER.markup">Lavf59.27.100</property>
  <property name="meta.media.sample_aspect_num">1</property>
  <property name="meta.media.sample_aspect_den">1</property>
  <property name="meta.media.frame_rate_num">30000</property>
  <property name="meta.media.frame_rate_den">1001</property>
  <property name="meta.media.colorspace">709</property>
  <property name="meta.media.color_trc">1</property>
  <property name="meta.media.has_b_frames">0</property>
  <property name="meta.media.width">1920</property>
  <property name="meta.media.height">1080</property>
  <property name="meta.media.color_range">mpeg</property>
  <property name="xml">was here</property>
  <property name="meta.media.top_field_first">0</property>
  <property name="meta.media.progressive">1</property>
  <property name="set.test_image">0</property>
 </chain>
 <playlist id="playlist14">
  <blank length="00:00:51.640"/>
  <entry producer="producer4" in="00:00:00.000" out="00:00:00.840">
   <property name="kdenlive:id">144</property>
  </entry>
  <entry producer="producer5" in="00:00:00.000" out="00:00:00.840">
   <property name="kdenlive:id">145</property>
  </entry>
  <entry producer="producer6" in="00:00:00.000" out="00:00:00.840">
   <property name="kdenlive:id">150</property>
  </entry>
  <entry producer="producer7" in="00:00:00.000" out="00:00:00.840">
   <property name="kdenlive:id">151</property>
  </entry>
  <entry producer="producer8" in="00:00:00.000" out="00:00:00.840">
   <property name="kdenlive:id">153</property>
  </entry>
  <entry producer="producer9" in="00:00:00.000" out="00:00:00.840">
   <property name="kdenlive:id">154</property>
  </entry>
  <entry producer="producer10" in="00:00:00.000" out="00:00:00.840">
   <property name="kdenlive:id">155</property>
  </entry>
  <blank length="00:00:01.640"/>
  <entry producer="producer230" in="00:00:00.000" out="00:00:01.960">
   <property name="kdenlive:id">215</property>
   <filter id="filter842" out="00:00:01.080">
    <property name="start">1</property>
    <property name="level">1</property>
    <property name="mlt_service">brightness</property>
    <property name="kdenlive_id">fade_from_black</property>
    <property name="alpha">00:00:00.000=0;00:00:01.080=1</property>
    <property name="kdenlive:collapsed">0</property>
   </filter>
  </entry>
  <entry producer="producer231" in="00:00:00.000" out="00:00:00.560">
   <property name="kdenlive:id">216</property>
  </entry>
  <entry producer="producer232" in="00:00:00.000" out="00:00:01.080">
   <property name="kdenlive:id">217</property>
   <filter id="filter843" in="00:00:00.640" out="00:00:01.080">
    <property name="start">1</property>
    <property name="level">1</property>
    <property name="mlt_service">brightness</property>
    <property name="kdenlive_id">fade_to_black</property>
    <property name="alpha">00:00:00.000=1;00:00:00.440=0</property>
   </filter>
  </entry>
  <blank length="00:00:01.960"/>
  <entry producer="producer233" in="00:00:00.000" out="00:00:01.440">
   <property name="kdenlive:id">221</property>
   <filter id="filter844" in="00:00:00.400" out="00:00:01.440">
    <property name="start">1</property>
    <property name="level">1</property>
    <property name="mlt_service">brightness</property>
    <property name="kdenlive_id">fade_to_black</property>
    <property name="alpha">00:00:00.000=1;00:00:01.040=0</property>
    <property name="kdenlive:collapsed">0</property>
   </filter>
  </entry>
  <blank length="00:00:06.560"/>
  <entry producer="chain271" in="00:10:10.080" out="00:10:14.960">
   <property name="kdenlive:id">232</property>
   <property name="kdenlive:activeeffect">1</property>
   <filter id="filter845">
    <property name="rotate_center">1</property>
    <property name="mlt_service">qtblend</property>
    <property name="kdenlive_id">qtblend</property>
    <property name="rect">00:10:10.080=320 180 1279 719 1.000000</property>
    <property name="rotation">00:10:10.080=0</property>
    <property name="compositing">0</property>
    <property name="distort">0</property>
    <property name="kdenlive:collapsed">1</property>
   </filter>
   <filter id="filter846">
    <property name="rotate_center">1</property>
    <property name="mlt_service">qtblend</property>
    <property name="kdenlive_id">qtblend</property>
    <property name="rect">00:10:10.080=0 1085 1920 1080 1.000000;00:10:10.320=0 -42 1920 1080 1.000000;00:10:10.440=0 0 1920 1080 1.000000;00:10:14.600=0 0 1920 1080 1.000000;00:10:14.720=0 -41 1920 1080 1.000000;00:10:14.960=0 1130 1920 1080 1.000000</property>
    <property name="rotation">00:10:10.080=0;00:10:10.320=0;00:10:10.440=0;00:10:14.600=0;00:10:14.720=0;00:10:14.960=0</property>
    <property name="compositing">0</property>
    <property name="distort">0</property>
    <property name="kdenlive:collapsed">1</property>
   </filter>
  </entry>
  <blank length="00:00:32.080"/>
  <entry producer="chain272" in="00:00:16.640" out="00:00:21.520">
   <property name="kdenlive:id">239</property>
   <property name="kdenlive:activeeffect">1</property>
   <filter id="filter847">
    <property name="rotate_center">1</property>
    <property name="mlt_service">qtblend</property>
    <property name="kdenlive_id">qtblend</property>
    <property name="rect">00:00:16.640=320 180 1279 719 1.000000</property>
    <property name="rotation">00:00:16.640=0</property>
    <property name="compositing">0</property>
    <property name="distort">0</property>
    <property name="kdenlive:collapsed">1</property>
   </filter>
   <filter id="filter848">
    <property name="rotate_center">1</property>
    <property name="mlt_service">qtblend</property>
    <property name="kdenlive_id">qtblend</property>
    <property name="rect">00:00:16.640=0 1085 1920 1080 1.000000;00:00:16.880=0 -42 1920 1080 1.000000;00:00:17.000=0 0 1920 1080 1.000000;00:00:21.160=0 0 1920 1080 1.000000;00:00:21.280=0 -41 1920 1080 1.000000;00:00:21.520=0 1130 1920 1080 1.000000</property>
    <property name="rotation">00:00:16.640=0;00:00:16.880=0;00:00:17.000=0;00:00:21.160=0;00:00:21.280=0;00:00:21.520=0</property>
    <property name="compositing">0</property>
    <property name="distort">0</property>
    <property name="kdenlive:collapsed">1</property>
   </filter>
  </entry>
  <blank length="00:00:22.160"/>
  <entry producer="chain273" in="00:00:04.640" out="00:00:14.680">
   <property name="kdenlive:id">243</property>
   <property name="kdenlive:activeeffect">1</property>
   <filter id="filter849">
    <property name="rotate_center">1</property>
    <property name="mlt_service">qtblend</property>
    <property name="kdenlive_id">qtblend</property>
    <property name="rect">00:00:04.640=320 180 1279 719 1.000000</property>
    <property name="rotation">00:00:04.640=0</property>
    <property name="compositing">0</property>
    <property name="distort">0</property>
    <property name="kdenlive:collapsed">1</property>
   </filter>
   <filter id="filter850">
    <property name="rotate_center">1</property>
    <property name="mlt_service">qtblend</property>
    <property name="kdenlive_id">qtblend</property>
    <property name="rect">00:00:04.640=0 1085 1920 1080 1.000000;00:00:04.880=0 -42 1920 1080 1.000000;00:00:05.000=0 0 1920 1080 1.000000;00:00:14.320=0 0 1920 1080 1.000000;00:00:14.440=0 -40 1920 1080 1.000000;00:00:14.680=0 1080 1920 1080 1.000000</property>
    <property name="rotation">00:00:04.640=0;00:00:04.880=0;00:00:05.000=0;00:00:14.320=0;00:00:14.440=0;00:00:14.680=0</property>
    <property name="compositing">0</property>
    <property name="distort">0</property>
    <property name="kdenlive:collapsed">0</property>
   </filter>
  </entry>
  <entry producer="chain274" in="00:00:00.000" out="00:00:10.040">
   <property name="kdenlive:id">245</property>
   <filter id="filter851">
    <property name="rotate_center">1</property>
    <property name="mlt_service">qtblend</property>
    <property name="kdenlive_id">qtblend</property>
    <property name="rect">00:00:00.000=320 180 1279 719 1.000000</property>
    <property name="rotation">00:00:00.000=0</property>
    <property name="compositing">0</property>
    <property name="distort">0</property>
    <property name="kdenlive:collapsed">1</property>
   </filter>
   <filter id="filter852">
    <property name="rotate_center">1</property>
    <property name="mlt_service">qtblend</property>
    <property name="kdenlive_id">qtblend</property>
    <property name="rect">00:00:00.000=0 1085 1920 1080 1.000000;00:00:00.240=0 -42 1920 1080 1.000000;00:00:00.360=0 0 1920 1080 1.000000;00:00:09.680=0 0 1920 1080 1.000000;00:00:09.800=0 -40 1920 1080 1.000000;00:00:10.040=0 1080 1920 1080 1.000000</property>
    <property name="rotation">00:00:00.000=0;00:00:00.240=0;00:00:00.360=0;00:00:09.680=0;00:00:09.800=0;00:00:10.040=0</property>
    <property name="compositing">0</property>
    <property name="distort">0</property>
    <property name="kdenlive:collapsed">1</property>
   </filter>
  </entry>
  <blank length="00:00:13.880"/>
  <entry producer="producer390" in="00:00:00.000" out="00:00:06.480">
   <property name="kdenlive:id">248</property>
   <filter id="filter853">
    <property name="rotate_center">1</property>
    <property name="mlt_service">qtblend</property>
    <property name="kdenlive_id">qtblend</property>
    <property name="rect">00:00:00.000=482 173 19 10 1.000000;00:00:00.240=307 75 370 208 1.000000;00:00:00.320=354 101 275 155 1.000000;00:00:01.640=354 101 275 155 1.000000;00:00:02.120=1174 75 275 155 1.000000;00:00:02.560=538 61 275 155 1.000000;00:00:03.040=421 101 275 155 1.000000;00:00:04.640=421 101 275 155 1.000000;00:00:05.120=1314 108 275 155 1.000000;00:00:06.080=1314 108 275 155 1.000000;00:00:06.240=1267 82 370 208 1.000000;00:00:06.480=1442 180 19 10 1.000000</property>
    <property name="rotation">00:00:00.000=-80;00:00:00.240=-80;00:00:00.320=-80;00:00:01.640=-80;00:00:02.120=-98;00:00:02.560=-91;00:00:03.040=-84;00:00:04.640=-84;00:00:05.120=-99;00:00:06.080=-99;00:00:06.240=-99;00:00:06.480=-99</property>
    <property name="compositing">0</property>
    <property name="distort">0</property>
    <property name="kdenlive:collapsed">0</property>
   </filter>
  </entry>
  <blank length="00:00:10.400"/>
  <entry producer="producer235" in="00:00:00.000" out="00:00:08.360">
   <property name="kdenlive:id">251</property>
   <filter id="filter854">
    <property name="rotate_center">1</property>
    <property name="mlt_service">qtblend</property>
    <property name="kdenlive_id">qtblend</property>
    <property name="rect">00:00:00.000=-23 324 759 427 1.000000</property>
    <property name="rotation">00:00:00.000=0</property>
    <property name="compositing">0</property>
    <property name="distort">0</property>
    <property name="kdenlive:collapsed">0</property>
   </filter>
  </entry>
  <blank length="00:00:07.560"/>
  <entry producer="producer236" in="00:00:00.000" out="00:00:08.320">
   <property name="kdenlive:id">260</property>
   <filter id="filter855">
    <property name="rotate_center">1</property>
    <property name="mlt_service">qtblend</property>
    <property name="kdenlive_id">qtblend</property>
    <property name="rect">00:00:00.000=1225 535 19 10 1.000000;00:00:00.240=515 135 1440 810 1.000000;00:00:00.360=563 162 1344 756 1.000000;00:00:07.960=563 162 1344 756 1.000000;00:00:08.080=515 135 1440 810 1.000000;00:00:08.320=1225 535 19 10 1.000000</property>
    <property name="rotation">00:00:00.000=0;00:00:00.240=0;00:00:00.360=0;00:00:07.960=0;00:00:08.080=0;00:00:08.320=0</property>
    <property name="compositing">0</property>
    <property name="distort">0</property>
    <property name="kdenlive:collapsed">0</property>
   </filter>
  </entry>
  <blank length="00:00:05.200"/>
  <entry producer="producer237" in="00:00:00.000" out="00:00:02.480">
   <property name="kdenlive:id">262</property>
   <filter id="filter856">
    <property name="rotate_center">1</property>
    <property name="mlt_service">qtblend</property>
    <property name="kdenlive_id">qtblend</property>
    <property name="rect">00:00:00.000=540 162 1344 756 1.000000</property>
    <property name="rotation">00:00:00.000=0</property>
    <property name="compositing">0</property>
    <property name="distort">0</property>
    <property name="kdenlive:collapsed">1</property>
   </filter>
   <filter id="filter857">
    <property name="rotate_center">1</property>
    <property name="mlt_service">qtblend</property>
    <property name="kdenlive_id">qtblend</property>
    <property name="rect">00:00:00.000=0 1080 1920 1080 1.000000;00:00:00.240=0 -60 1920 1080 1.000000;00:00:00.360=0 0 1920 1080 1.000000;00:00:02.120=0 0 1920 1080 1.000000;00:00:02.240=0 76 1920 1080 1.000000;00:00:02.480=0 -1076 1920 1080 1.000000</property>
    <property name="rotation">00:00:00.000=0;00:00:00.240=0;00:00:00.360=0;00:00:02.120=0;00:00:02.240=0;00:00:02.480=0</property>
    <property name="compositing">0</property>
    <property name="distort">0</property>
    <property name="kdenlive:collapsed">0</property>
   </filter>
  </entry>
  <blank length="00:00:10.600"/>
  <entry producer="producer624" in="00:00:00.000" out="00:00:04.720">
   <property name="kdenlive:id">266</property>
   <property name="kdenlive:activeeffect">1</property>
   <filter id="filter858">
    <property name="rotate_center">1</property>
    <property name="mlt_service">qtblend</property>
    <property name="kdenlive_id">qtblend</property>
    <property name="rect">00:00:00.000=321 180 1278 719 1.000000</property>
    <property name="rotation">00:00:00.000=0</property>
    <property name="compositing">0</property>
    <property name="distort">0</property>
    <property name="kdenlive:collapsed">1</property>
   </filter>
   <filter id="filter859">
    <property name="rotate_center">1</property>
    <property name="mlt_service">qtblend</property>
    <property name="kdenlive_id">qtblend</property>
    <property name="rect">00:00:00.000=0 1085 1920 1080 1.000000;00:00:00.240=0 -42 1920 1080 1.000000;00:00:00.360=0 0 1920 1080 1.000000;00:00:04.360=0 0 1920 1080 1.000000;00:00:04.480=-48 -27 2016 1134 1.000000;00:00:04.720=950 535 19 10 1.000000;00:00:04.880=0 0 1920 1080 1.000000</property>
    <property name="rotation">00:00:00.000=0;00:00:00.240=0;00:00:00.360=0;00:00:04.360=0;00:00:04.480=0;00:00:04.720=0;00:00:04.880=0</property>
    <property name="compositing">0</property>
    <property name="distort">0</property>
    <property name="kdenlive:collapsed">0</property>
   </filter>
  </entry>
  <blank length="00:00:02.080"/>
  <entry producer="producer239" in="00:00:00.000" out="00:00:03.840">
   <property name="kdenlive:id">268</property>
   <property name="kdenlive:activeeffect">1</property>
   <filter id="filter860">
    <property name="rotate_center">1</property>
    <property name="mlt_service">qtblend</property>
    <property name="kdenlive_id">qtblend</property>
    <property name="rect">00:00:00.000=192 108 1536 864 1.000000</property>
    <property name="rotation">00:00:00.000=0</property>
    <property name="compositing">0</property>
    <property name="distort">0</property>
    <property name="kdenlive:collapsed">0</property>
   </filter>
   <filter id="filter861">
    <property name="rotate_center">1</property>
    <property name="mlt_service">qtblend</property>
    <property name="kdenlive_id">qtblend</property>
    <property name="rect">00:00:00.000=950 535 19 10 1.000000;00:00:00.240=-48 -27 2016 1134 1.000000;00:00:00.360=0 0 1920 1080 1.000000</property>
    <property name="rotation">00:00:00.000=0;00:00:00.240=0;00:00:00.360=0</property>
    <property name="compositing">0</property>
    <property name="distort">0</property>
    <property name="kdenlive:collapsed">0</property>
   </filter>
  </entry>
  <blank length="00:00:01.280"/>
  <entry producer="producer625" in="00:00:00.000" out="00:00:05.240">
   <property name="kdenlive:id">272</property>
  </entry>
  <entry producer="producer625" in="00:00:16.560" out="00:00:19.680">
   <property name="kdenlive:id">272</property>
  </entry>
  <blank length="00:00:21.640"/>
  <entry producer="chain285" in="00:00:00.000" out="00:00:10.280">
   <property name="kdenlive:id">11</property>
   <filter id="filter862">
    <property name="rotate_center">1</property>
    <property name="mlt_service">qtblend</property>
    <property name="kdenlive_id">qtblend</property>
    <property name="rect">00:00:00.000=192 108 1536 864 1.000000</property>
    <property name="rotation">00:00:00.000=0</property>
    <property name="compositing">0</property>
    <property name="distort">0</property>
    <property name="kdenlive:collapsed">1</property>
   </filter>
   <filter id="filter863">
    <property name="rotate_center">1</property>
    <property name="mlt_service">qtblend</property>
    <property name="kdenlive_id">qtblend</property>
    <property name="rect">00:00:00.000=0 1080 1920 1080 1.000000;00:00:00.240=0 -35 1920 1080 1.000000;00:00:00.360=0 0 1920 1080 1.000000;00:00:06.760=0 0 1920 1080 1.000000;00:00:07.200=-1420 -795 4773 2685 1.000000;00:00:07.320=-1185 -663 4300 2418 1.000000</property>
    <property name="rotation">00:00:00.000=0;00:00:00.240=0;00:00:00.360=0;00:00:06.760=0;00:00:07.200=0;00:00:07.320=0</property>
    <property name="compositing">0</property>
    <property name="distort">0</property>
    <property name="kdenlive:collapsed">0</property>
   </filter>
   <filter id="filter864">
    <property name="hradius">00:00:00.000=0;00:00:06.760=0;00:00:07.320=100</property>
    <property name="vradius">00:00:00.000=0;00:00:06.760=0;00:00:07.320=100</property>
    <property name="mlt_service">box_blur</property>
    <property name="kdenlive_id">box_blur</property>
    <property name="kdenlive:collapsed">0</property>
   </filter>
  </entry>
  <entry producer="chain285" in="00:00:10.320" out="00:00:13.160">
   <property name="kdenlive:id">11</property>
   <filter id="filter865">
    <property name="rotate_center">1</property>
    <property name="mlt_service">qtblend</property>
    <property name="kdenlive_id">qtblend</property>
    <property name="rect">00:00:10.320=192 108 1536 864 1.000000</property>
    <property name="rotation">00:00:10.320=0</property>
    <property name="compositing">0</property>
    <property name="distort">0</property>
    <property name="kdenlive:collapsed">0</property>
   </filter>
   <filter id="filter866">
    <property name="rotate_center">1</property>
    <property name="mlt_service">qtblend</property>
    <property name="kdenlive_id">qtblend</property>
    <property name="rect">00:00:10.320=-1185 -663 4300 2418 1.000000</property>
    <property name="rotation">00:00:10.320=0</property>
    <property name="compositing">0</property>
    <property name="distort">0</property>
    <property name="kdenlive:collapsed">0</property>
   </filter>
   <filter id="filter867">
    <property name="hradius">00:00:10.320=100</property>
    <property name="vradius">00:00:10.320=100</property>
    <property name="mlt_service">box_blur</property>
    <property name="kdenlive_id">box_blur</property>
    <property name="kdenlive:collapsed">0</property>
   </filter>
  </entry>
  <entry producer="chain285" in="00:00:10.320" out="00:00:13.160">
   <property name="kdenlive:id">11</property>
   <filter id="filter868">
    <property name="rotate_center">1</property>
    <property name="mlt_service">qtblend</property>
    <property name="kdenlive_id">qtblend</property>
    <property name="rect">00:00:10.320=192 108 1536 864 1.000000</property>
    <property name="rotation">00:00:10.320=0</property>
    <property name="compositing">0</property>
    <property name="distort">0</property>
    <property name="kdenlive:collapsed">0</property>
   </filter>
   <filter id="filter869">
    <property name="rotate_center">1</property>
    <property name="mlt_service">qtblend</property>
    <property name="kdenlive_id">qtblend</property>
    <property name="rect">00:00:10.320=-1185 -663 4300 2418 1.000000</property>
    <property name="rotation">00:00:10.320=0</property>
    <property name="compositing">0</property>
    <property name="distort">0</property>
    <property name="kdenlive:collapsed">0</property>
   </filter>
   <filter id="filter870">
    <property name="hradius">00:00:10.320=100</property>
    <property name="vradius">00:00:10.320=100</property>
    <property name="mlt_service">box_blur</property>
    <property name="kdenlive_id">box_blur</property>
    <property name="kdenlive:collapsed">0</property>
   </filter>
  </entry>
  <entry producer="chain285" in="00:00:10.320" out="00:00:11.840">
   <property name="kdenlive:id">11</property>
   <filter id="filter871">
    <property name="rotate_center">1</property>
    <property name="mlt_service">qtblend</property>
    <property name="kdenlive_id">qtblend</property>
    <property name="rect">00:00:10.320=192 108 1536 864 1.000000</property>
    <property name="rotation">00:00:10.320=0</property>
    <property name="compositing">0</property>
    <property name="distort">0</property>
    <property name="kdenlive:collapsed">0</property>
   </filter>
   <filter id="filter872">
    <property name="rotate_center">1</property>
    <property name="mlt_service">qtblend</property>
    <property name="kdenlive_id">qtblend</property>
    <property name="rect">00:00:10.320=-1185 -663 4300 2418 1.000000</property>
    <property name="rotation">00:00:10.320=0</property>
    <property name="compositing">0</property>
    <property name="distort">0</property>
    <property name="kdenlive:collapsed">0</property>
   </filter>
   <filter id="filter873">
    <property name="hradius">00:00:10.320=100</property>
    <property name="vradius">00:00:10.320=100</property>
    <property name="mlt_service">box_blur</property>
    <property name="kdenlive_id">box_blur</property>
    <property name="kdenlive:collapsed">0</property>
   </filter>
   <filter id="filter874" in="00:00:11.280" out="00:00:11.840">
    <property name="start">1</property>
    <property name="level">1</property>
    <property name="mlt_service">brightness</property>
    <property name="kdenlive_id">fade_to_black</property>
    <property name="alpha">00:00:00.000=1;00:00:00.560=0</property>
   </filter>
  </entry>
  <blank length="00:00:05.840"/>
  <entry producer="chain286" in="00:00:00.000" out="00:00:05.000">
   <property name="kdenlive:id">219</property>
   <filter id="filter875">
    <property name="rotate_center">1</property>
    <property name="mlt_service">qtblend</property>
    <property name="kdenlive_id">qtblend</property>
    <property name="rect">00:00:00.000=0 1080 1920 1080 1.000000;00:00:00.240=0 -43 1920 1080 1.000000;00:00:00.360=0 0 1920 1080 1.000000;00:00:04.640=0 0 1920 1080 1.000000;00:00:04.760=0 69 1920 1080 1.000000;00:00:05.000=0 -1080 1920 1080 1.000000</property>
    <property name="rotation">00:00:00.000=0;00:00:00.240=0;00:00:00.360=0;00:00:04.640=0;00:00:04.760=0;00:00:05.000=0</property>
    <property name="compositing">0</property>
    <property name="distort">0</property>
    <property name="kdenlive:collapsed">0</property>
   </filter>
  </entry>
  <blank length="00:00:05.760"/>
  <entry producer="producer204" in="00:00:00.000" out="00:00:00.400">
   <property name="kdenlive:id">258</property>
   <filter id="filter876">
    <property name="rotate_center">1</property>
    <property name="mlt_service">qtblend</property>
    <property name="kdenlive_id">qtblend</property>
    <property name="rect">00:00:00.000=288 162 1344 756 1.000000;00:00:00.040=288 162 1344 756 1.000000;00:00:00.160=240 135 1440 810 1.000000;00:00:00.400=950 535 19 10 1.000000</property>
    <property name="rotation">00:00:00.000=0;00:00:00.040=0;00:00:00.160=0;00:00:00.400=0</property>
    <property name="compositing">0</property>
    <property name="distort">0</property>
    <property name="kdenlive:collapsed">0</property>
   </filter>
  </entry>
  <blank length="00:00:04.840"/>
  <entry producer="chain289" in="00:00:00.000" out="00:00:02.600">
   <property name="kdenlive:id">310</property>
   <filter id="filter877">
    <property name="version">0.6</property>
    <property name="mlt_service">frei0r.select0r</property>
    <property name="kdenlive_id">frei0r.select0r</property>
    <property name="Color to select">00:00:00.000=0xff00feff</property>
    <property name="Invert selection">1</property>
    <property name="Selection subspace">0</property>
    <property name="Subspace shape">0.5</property>
    <property name="Edge mode">0.9</property>
    <property name="Delta R / A / Hue">00:00:00.000=0.2</property>
    <property name="Delta G / B / Chroma">00:00:00.000=0.2</property>
    <property name="Delta B / I / I">00:00:00.000=0.2</property>
    <property name="Slope">00:00:00.000=1</property>
    <property name="Operation">0.5</property>
    <property name="kdenlive:collapsed">1</property>
    <properties name="ctor-0x7fb70f7fe6c0"/>
    <properties name="ctor-0x7f41a7fff6c0"/>
   </filter>
   <filter id="filter878">
    <property name="version">0.6</property>
    <property name="mlt_service">frei0r.select0r</property>
    <property name="kdenlive_id">frei0r.select0r</property>
    <property name="Color to select">00:00:00.000=0x8c4591ff</property>
    <property name="Invert selection">1</property>
    <property name="Selection subspace">0</property>
    <property name="Subspace shape">0.5</property>
    <property name="Edge mode">0.9</property>
    <property name="Delta R / A / Hue">00:00:00.000=0.2</property>
    <property name="Delta G / B / Chroma">00:00:00.000=0.2</property>
    <property name="Delta B / I / I">00:00:00.000=0.2</property>
    <property name="Slope">00:00:00.000=1</property>
    <property name="Operation">0.5</property>
    <property name="kdenlive:collapsed">1</property>
    <properties name="ctor-0x7fb70f7fe6c0"/>
    <properties name="ctor-0x7f41a7fff6c0"/>
   </filter>
   <filter id="filter879">
    <property name="version">0.6</property>
    <property name="mlt_service">frei0r.select0r</property>
    <property name="kdenlive_id">frei0r.select0r</property>
    <property name="Color to select">00:00:00.000=0x58225eff</property>
    <property name="Invert selection">1</property>
    <property name="Selection subspace">0</property>
    <property name="Subspace shape">0.5</property>
    <property name="Edge mode">0.9</property>
    <property name="Delta R / A / Hue">00:00:00.000=0</property>
    <property name="Delta G / B / Chroma">00:00:00.000=1</property>
    <property name="Delta B / I / I">00:00:00.000=1</property>
    <property name="Slope">00:00:00.000=1</property>
    <property name="Operation">0.5</property>
    <property name="kdenlive:collapsed">1</property>
    <properties name="ctor-0x7fb70f7fe6c0"/>
    <properties name="ctor-0x7f41a7fff6c0"/>
   </filter>
   <filter id="filter880">
    <property name="version">0.6</property>
    <property name="mlt_service">frei0r.select0r</property>
    <property name="kdenlive_id">frei0r.select0r</property>
    <property name="Color to select">00:00:00.000=0x58225eff</property>
    <property name="Invert selection">1</property>
    <property name="Selection subspace">0</property>
    <property name="Subspace shape">0.5</property>
    <property name="Edge mode">0.9</property>
    <property name="Delta R / A / Hue">00:00:00.000=0.2</property>
    <property name="Delta G / B / Chroma">00:00:00.000=0.2</property>
    <property name="Delta B / I / I">00:00:00.000=0.2</property>
    <property name="Slope">00:00:00.000=1</property>
    <property name="Operation">0.5</property>
    <property name="kdenlive:collapsed">1</property>
    <properties name="ctor-0x7fb70f7fe6c0"/>
    <properties name="ctor-0x7f41a7fff6c0"/>
   </filter>
   <filter id="filter881">
    <property name="rotate_center">1</property>
    <property name="mlt_service">qtblend</property>
    <property name="kdenlive_id">qtblend</property>
    <property name="rect">00:00:00.000=144 677 1632 918 1.000000;00:00:00.240=144 18 1632 918 1.000000;00:00:00.360=144 81 1632 918 1.000000</property>
    <property name="rotation">00:00:00.000=0;00:00:00.240=0;00:00:00.360=0</property>
    <property name="compositing">0</property>
    <property name="distort">0</property>
    <property name="kdenlive:collapsed">0</property>
   </filter>
  </entry>
  <blank length="00:00:02.520"/>
  <entry producer="producer264" in="00:00:00.000" out="00:00:05.920">
   <property name="kdenlive:id">312</property>
   <filter id="filter882">
    <property name="rotate_center">1</property>
    <property name="mlt_service">qtblend</property>
    <property name="kdenlive_id">qtblend</property>
    <property name="rect">00:00:00.000=1405 535 19 10 1.000000;00:00:00.240=887 243 1056 594 1.000000;00:00:00.360=935 270 960 540 1.000000;00:00:05.560=890 244 1048 589 1.000000;00:00:05.680=842 218 1146 644 1.000000;00:00:05.920=1405 535 19 10 1.000000</property>
    <property name="rotation">00:00:00.000=0;00:00:00.240=0;00:00:00.360=0;00:00:05.560=0;00:00:05.680=0;00:00:05.920=0</property>
    <property name="compositing">0</property>
    <property name="distort">0</property>
    <property name="kdenlive:collapsed">0</property>
   </filter>
  </entry>
  <blank length="00:00:08.000"/>
  <entry producer="producer390" in="00:00:00.000" out="00:00:03.640">
   <property name="kdenlive:id">248</property>
   <filter id="filter883">
    <property name="rotate_center">1</property>
    <property name="mlt_service">qtblend</property>
    <property name="kdenlive_id">qtblend</property>
    <property name="rect">00:00:00.000=841 884 19 10 1.000000;00:00:00.240=615 756 472 266 1.000000;00:00:00.360=662 783 378 212 1.000000;00:00:01.560=662 783 378 212 1.000000;00:00:01.920=913 757 378 212 1.000000;00:00:03.280=913 757 378 212 1.000000;00:00:03.400=866 730 472 266 1.000000;00:00:03.640=1092 858 19 10 1.000000</property>
    <property name="rotation">00:00:00.000=33;00:00:00.240=33;00:00:00.360=33;00:00:01.560=33;00:00:01.920=118;00:00:03.280=118;00:00:03.400=118;00:00:03.640=118</property>
    <property name="compositing">0</property>
    <property name="distort">0</property>
    <property name="kdenlive:collapsed">0</property>
   </filter>
  </entry>
  <blank length="00:00:21.240"/>
  <entry producer="producer390" in="00:00:00.000" out="00:00:02.040">
   <property name="kdenlive:id">248</property>
   <filter id="filter884">
    <property name="rotate_center">1</property>
    <property name="mlt_service">qtblend</property>
    <property name="kdenlive_id">qtblend</property>
    <property name="rect">00:00:00.000=1253 139 19 10 1.000000;00:00:00.240=1127 67 273 154 1.000000;00:00:00.360=1174 94 178 100 1.000000;00:00:01.080=602 84 178 100 1.000000;00:00:01.640=1174 87 178 100 1.000000;00:00:01.760=1127 60 273 154 1.000000;00:00:02.000=1253 132 19 10 1.000000</property>
    <property name="rotation">00:00:00.000=-102;00:00:00.240=-102;00:00:00.360=-102;00:00:01.080=-89;00:00:01.640=-98;00:00:01.760=-98;00:00:02.000=-98</property>
    <property name="compositing">0</property>
    <property name="distort">0</property>
    <property name="kdenlive:collapsed">0</property>
   </filter>
  </entry>
  <blank length="00:00:00.280"/>
  <entry producer="chain290" in="00:00:00.000" out="00:00:05.000">
   <property name="kdenlive:id">316</property>
   <filter id="filter885">
    <property name="rotate_center">1</property>
    <property name="mlt_service">qtblend</property>
    <property name="kdenlive_id">qtblend</property>
    <property name="rect">00:00:00.000=0 1080 1920 1080 1.000000;00:00:00.240=0 -53 1920 1080 1.000000;00:00:00.360=0 0 1920 1080 1.000000</property>
    <property name="rotation">00:00:00.000=0;00:00:00.240=0;00:00:00.360=0</property>
    <property name="compositing">0</property>
    <property name="distort">0</property>
    <property name="kdenlive:collapsed">0</property>
   </filter>
  </entry>
  <blank length="00:00:11.080"/>
  <entry producer="producer390" in="00:00:00.000" out="00:00:01.840">
   <property name="kdenlive:id">248</property>
   <filter id="filter886">
    <property name="rotate_center">1</property>
    <property name="mlt_service">qtblend</property>
    <property name="kdenlive_id">qtblend</property>
    <property name="rect">00:00:00.000=1142 326 19 10 1.000000;00:00:00.240=969 229 367 206 1.000000;00:00:00.360=1016 255 272 153 1.000000;00:00:00.840=444 255 272 153 1.000000;00:00:01.440=1016 255 272 153 1.000000;00:00:01.560=969 229 367 206 1.000000;00:00:01.800=1142 326 19 10 1.000000</property>
    <property name="rotation">00:00:00.000=-68;00:00:00.240=-68;00:00:00.360=-68;00:00:00.840=-68;00:00:01.440=-68;00:00:01.560=-68;00:00:01.800=-68</property>
    <property name="compositing">0</property>
    <property name="distort">0</property>
    <property name="kdenlive:collapsed">0</property>
   </filter>
  </entry>
  <blank length="00:00:02.800"/>
  <entry producer="chain291" in="00:00:00.000" out="00:00:03.280">
   <property name="kdenlive:id">319</property>
   <property name="kdenlive:activeeffect">2</property>
   <filter id="filter887">
    <property name="mlt_service">avfilter.zoompan</property>
    <property name="kdenlive_id">avfilter.zoompan</property>
    <property name="av.z">1.234</property>
    <property name="av.x">66</property>
    <property name="av.y">166</property>
    <property name="av.d">1</property>
    <property name="kdenlive:collapsed">0</property>
   </filter>
   <filter id="filter888">
    <property name="rotate_center">1</property>
    <property name="mlt_service">qtblend</property>
    <property name="kdenlive_id">qtblend</property>
    <property name="rect">00:00:00.000=321 180 1278 719 1.000000</property>
    <property name="rotation">00:00:00.000=0</property>
    <property name="compositing">0</property>
    <property name="distort">0</property>
    <property name="kdenlive:collapsed">1</property>
   </filter>
   <filter id="filter889">
    <property name="rotate_center">1</property>
    <property name="mlt_service">qtblend</property>
    <property name="kdenlive_id">qtblend</property>
    <property name="rect">00:00:00.000=0 1080 1920 1080 1.000000;00:00:00.240=0 -41 1920 1080 1.000000;00:00:00.360=0 0 1920 1080 1.000000</property>
    <property name="rotation">00:00:00.000=0;00:00:00.240=0;00:00:00.360=0</property>
    <property name="compositing">0</property>
    <property name="distort">0</property>
    <property name="kdenlive:collapsed">1</property>
   </filter>
  </entry>
  <entry producer="producer626" in="00:00:01.640" out="00:00:04.400">
   <property name="kdenlive:id">319</property>
   <property name="kdenlive:activeeffect">2</property>
   <filter id="filter890">
    <property name="mlt_service">avfilter.zoompan</property>
    <property name="kdenlive_id">avfilter.zoompan</property>
    <property name="av.z">4.357</property>
    <property name="av.x">697</property>
    <property name="av.y">398</property>
    <property name="av.d">1</property>
    <property name="kdenlive:collapsed">1</property>
   </filter>
   <filter id="filter891">
    <property name="rotate_center">1</property>
    <property name="mlt_service">qtblend</property>
    <property name="kdenlive_id">qtblend</property>
    <property name="rect">00:00:01.640=321 180 1278 719 1.000000</property>
    <property name="rotation">00:00:01.640=0</property>
    <property name="compositing">0</property>
    <property name="distort">0</property>
    <property name="kdenlive:collapsed">1</property>
   </filter>
   <filter id="filter892">
    <property name="rotate_center">1</property>
    <property name="mlt_service">qtblend</property>
    <property name="kdenlive_id">qtblend</property>
    <property name="rect">00:00:01.640=0 0 1920 1080 1.000000;00:00:04.040=0 0 1920 1080 1.000000;00:00:04.160=0 50 1920 1080 1.000000;00:00:04.400=0 -1080 1920 1080 1.000000</property>
    <property name="rotation">00:00:01.640=0;00:00:04.040=0;00:00:04.160=0;00:00:04.400=0</property>
    <property name="compositing">0</property>
    <property name="distort">0</property>
    <property name="kdenlive:collapsed">0</property>
   </filter>
  </entry>
  <blank length="00:00:01.520"/>
  <entry producer="chain290" in="00:00:00.000" out="00:00:03.680">
   <property name="kdenlive:id">316</property>
   <filter id="filter893">
    <property name="rotate_center">1</property>
    <property name="mlt_service">qtblend</property>
    <property name="kdenlive_id">qtblend</property>
    <property name="rect">00:00:00.000=950 773 19 10 1.000000;00:00:00.240=-48 211 2016 1134 1.000000;00:00:00.360=0 238 1920 1080 1.000000;00:00:03.320=0 238 1920 1080 1.000000;00:00:03.440=-48 211 2016 1134 1.000000;00:00:03.680=950 773 19 10 1.000000</property>
    <property name="rotation">00:00:00.000=0;00:00:00.240=0;00:00:00.360=0;00:00:03.320=0;00:00:03.440=0;00:00:03.680=0</property>
    <property name="compositing">0</property>
    <property name="distort">0</property>
    <property name="kdenlive:collapsed">0</property>
   </filter>
  </entry>
  <blank length="00:00:05.960"/>
  <entry producer="producer283" in="00:00:00.000" out="00:00:00.280">
   <property name="kdenlive:id">331</property>
   <filter id="filter894">
    <property name="rotate_center">1</property>
    <property name="mlt_service">qtblend</property>
    <property name="kdenlive_id">qtblend</property>
    <property name="rect">00:00:00.000=0 75 1920 1080 1.000000</property>
    <property name="rotation">00:00:00.000=0</property>
    <property name="compositing">0</property>
    <property name="distort">0</property>
    <property name="kdenlive:collapsed">0</property>
   </filter>
  </entry>
  <entry producer="producer284" in="00:00:00.000" out="00:00:00.160">
   <property name="kdenlive:id">330</property>
   <filter id="filter895">
    <property name="rotate_center">1</property>
    <property name="mlt_service">qtblend</property>
    <property name="kdenlive_id">qtblend</property>
    <property name="rect">00:00:00.000=0 75 1920 1080 1.000000</property>
    <property name="rotation">00:00:00.000=0</property>
    <property name="compositing">0</property>
    <property name="distort">0</property>
   </filter>
  </entry>
  <entry producer="producer285" in="00:00:00.000" out="00:00:00.360">
   <property name="kdenlive:id">329</property>
   <filter id="filter896">
    <property name="rotate_center">1</property>
    <property name="mlt_service">qtblend</property>
    <property name="kdenlive_id">qtblend</property>
    <property name="rect">00:00:00.000=0 75 1920 1080 1.000000</property>
    <property name="rotation">00:00:00.000=0</property>
    <property name="compositing">0</property>
    <property name="distort">0</property>
   </filter>
  </entry>
  <entry producer="producer286" in="00:00:00.000" out="00:00:00.240">
   <property name="kdenlive:id">328</property>
   <filter id="filter897">
    <property name="rotate_center">1</property>
    <property name="mlt_service">qtblend</property>
    <property name="kdenlive_id">qtblend</property>
    <property name="rect">00:00:00.000=0 75 1920 1080 1.000000</property>
    <property name="rotation">00:00:00.000=0</property>
    <property name="compositing">0</property>
    <property name="distort">0</property>
   </filter>
  </entry>
  <entry producer="producer287" in="00:00:00.000" out="00:00:00.320">
   <property name="kdenlive:id">327</property>
   <filter id="filter898">
    <property name="rotate_center">1</property>
    <property name="mlt_service">qtblend</property>
    <property name="kdenlive_id">qtblend</property>
    <property name="rect">00:00:00.000=0 75 1920 1080 1.000000</property>
    <property name="rotation">00:00:00.000=0</property>
    <property name="compositing">0</property>
    <property name="distort">0</property>
   </filter>
  </entry>
  <entry producer="producer288" in="00:00:00.000" out="00:00:00.240">
   <property name="kdenlive:id">326</property>
   <filter id="filter899">
    <property name="rotate_center">1</property>
    <property name="mlt_service">qtblend</property>
    <property name="kdenlive_id">qtblend</property>
    <property name="rect">00:00:00.000=0 75 1920 1080 1.000000</property>
    <property name="rotation">00:00:00.000=0</property>
    <property name="compositing">0</property>
    <property name="distort">0</property>
   </filter>
  </entry>
  <blank length="00:00:01.720"/>
  <entry producer="producer289" in="00:00:00.000" out="00:00:03.640">
   <property name="kdenlive:id">324</property>
   <filter id="filter900">
    <property name="rotate_center">1</property>
    <property name="mlt_service">qtblend</property>
    <property name="kdenlive_id">qtblend</property>
    <property name="rect">00:00:00.000=0 75 1920 1080 1.000000</property>
    <property name="rotation">00:00:00.000=0</property>
    <property name="compositing">0</property>
    <property name="distort">0</property>
    <property name="kdenlive:collapsed">0</property>
   </filter>
   <filter id="filter901" out="00:00:00.280">
    <property name="start">1</property>
    <property name="level">1</property>
    <property name="mlt_service">brightness</property>
    <property name="kdenlive_id">fade_from_black</property>
    <property name="alpha">00:00:00.000=0;00:00:00.280=1</property>
    <property name="kdenlive:collapsed">0</property>
   </filter>
  </entry>
  <blank length="00:00:08.840"/>
  <entry producer="producer253" in="00:00:00.000" out="00:00:08.920">
   <property name="kdenlive:id">317</property>
   <filter id="filter902">
    <property name="rotate_center">1</property>
    <property name="mlt_service">qtblend</property>
    <property name="kdenlive_id">qtblend</property>
    <property name="rect">00:00:00.000=96 712 1728 972 1.000000;00:00:00.240=96 178 1728 972 1.000000;00:00:00.360=96 217 1728 972 1.000000;00:00:08.560=96 217 1728 972 1.000000;00:00:08.680=48 190 1824 1026 1.000000;00:00:08.920=950 698 19 10 1.000000</property>
    <property name="rotation">00:00:00.000=0;00:00:00.240=0;00:00:00.360=0;00:00:08.560=0;00:00:08.680=0;00:00:08.920=0</property>
    <property name="compositing">0</property>
    <property name="distort">0</property>
    <property name="kdenlive:collapsed">0</property>
   </filter>
  </entry>
  <blank length="00:00:28.560"/>
  <entry producer="chain271" in="00:10:10.080" out="00:10:16.120">
   <property name="kdenlive:id">232</property>
   <filter id="filter903">
    <property name="rotate_center">1</property>
    <property name="mlt_service">qtblend</property>
    <property name="kdenlive_id">qtblend</property>
    <property name="rect">00:10:10.080=320 180 1279 719 1.000000</property>
    <property name="rotation">00:10:10.080=0</property>
    <property name="compositing">0</property>
    <property name="distort">0</property>
    <property name="kdenlive:collapsed">1</property>
   </filter>
   <filter id="filter904">
    <property name="rotate_center">1</property>
    <property name="mlt_service">qtblend</property>
    <property name="kdenlive_id">qtblend</property>
    <property name="rect">00:10:10.080=0 1085 1920 1080 1.000000;00:10:10.320=0 -42 1920 1080 1.000000;00:10:10.440=0 0 1920 1080 1.000000;00:10:13.760=0 0 1920 1080 1.000000</property>
    <property name="rotation">00:10:10.080=0;00:10:10.320=0;00:10:10.440=0;00:10:13.760=0</property>
    <property name="compositing">0</property>
    <property name="distort">0</property>
    <property name="kdenlive:collapsed">1</property>
   </filter>
  </entry>
  <entry producer="chain271" in="00:10:16.160" out="00:10:17.320">
   <property name="kdenlive:id">232</property>
   <filter id="filter905">
    <property name="rotate_center">1</property>
    <property name="mlt_service">qtblend</property>
    <property name="kdenlive_id">qtblend</property>
    <property name="rect">00:10:16.160=320 180 1279 719 1.000000</property>
    <property name="rotation">00:10:16.160=0</property>
    <property name="compositing">0</property>
    <property name="distort">0</property>
    <property name="kdenlive:collapsed">1</property>
   </filter>
   <filter id="filter906">
    <property name="rotate_center">1</property>
    <property name="mlt_service">qtblend</property>
    <property name="kdenlive_id">qtblend</property>
    <property name="rect">00:10:16.160=0 0 1920 1080 1.000000;00:10:16.960=0 0 1920 1080 1.000000;00:10:17.080=0 -41 1920 1080 1.000000;00:10:17.320=0 1130 1920 1080 1.000000</property>
    <property name="rotation">00:10:16.160=0;00:10:16.960=0;00:10:17.080=0;00:10:17.320=0</property>
    <property name="compositing">0</property>
    <property name="distort">0</property>
    <property name="kdenlive:collapsed">1</property>
   </filter>
  </entry>
  <blank length="00:00:15.200"/>
  <entry producer="producer264" in="00:00:00.000" out="00:00:04.200">
   <property name="kdenlive:id">312</property>
   <filter id="filter907">
    <property name="rotate_center">1</property>
    <property name="mlt_service">qtblend</property>
    <property name="kdenlive_id">qtblend</property>
    <property name="rect">00:00:00.000=1405 535 19 10 1.000000;00:00:00.240=887 243 1056 594 1.000000;00:00:00.360=935 270 960 540 1.000000;00:00:04.160=905 253 1017 572 1.000000</property>
    <property name="rotation">00:00:00.000=0;00:00:00.240=0;00:00:00.360=0;00:00:04.160=0</property>
    <property name="compositing">0</property>
    <property name="distort">0</property>
    <property name="kdenlive:collapsed">0</property>
   </filter>
  </entry>
  <blank length="00:00:08.040"/>
  <entry producer="chain286" in="00:00:00.000" out="00:00:04.040">
   <property name="kdenlive:id">219</property>
   <filter id="filter908">
    <property name="rotate_center">1</property>
    <property name="mlt_service">qtblend</property>
    <property name="kdenlive_id">qtblend</property>
    <property name="rect">00:00:00.000=0 1080 1920 1080 1.000000;00:00:00.240=0 -34 1920 1080 1.000000;00:00:00.360=0 0 1920 1080 1.000000;00:00:03.680=0 0 1920 1080 1.000000;00:00:03.800=0 49 1920 1080 1.000000;00:00:04.040=0 -1080 1920 1080 1.000000</property>
    <property name="rotation">00:00:00.000=0;00:00:00.240=0;00:00:00.360=0;00:00:03.680=0;00:00:03.800=0;00:00:04.040=0</property>
    <property name="compositing">0</property>
    <property name="distort">0</property>
    <property name="kdenlive:collapsed">0</property>
   </filter>
  </entry>
  <blank length="00:00:13.720"/>
  <entry producer="chain292" in="00:00:13.000" out="00:00:46.880">
   <property name="kdenlive:id">343</property>
   <property name="kdenlive:activeeffect">3</property>
   <filter id="filter909">
    <property name="rotate_center">1</property>
    <property name="mlt_service">qtblend</property>
    <property name="kdenlive_id">qtblend</property>
    <property name="rect">00:00:13.000=321 180 1278 719 1.000000</property>
    <property name="rotation">00:00:13.000=0</property>
    <property name="compositing">0</property>
    <property name="distort">0</property>
    <property name="kdenlive:collapsed">1</property>
   </filter>
   <filter id="filter910">
    <property name="rotate_center">1</property>
    <property name="mlt_service">qtblend</property>
    <property name="kdenlive_id">qtblend</property>
    <property name="rect">00:00:13.000=0 1080 1920 1080 1.000000;00:00:13.240=0 -41 1920 1080 1.000000;00:00:13.360=0 0 1920 1080 1.000000;00:00:17.120~=0 0 1920 1080 1.000000;00:00:17.480~=-525 -295 2976 1674 1.000000</property>
    <property name="rotation">00:00:13.000=0;00:00:13.240=0;00:00:13.360=0;00:00:17.120~=0;00:00:17.480~=0</property>
    <property name="compositing">0</property>
    <property name="distort">0</property>
    <property name="kdenlive:collapsed">1</property>
   </filter>
   <filter id="filter911">
    <property name="hradius">00:00:13.000=0;00:00:17.120=0;00:00:17.520=120</property>
    <property name="vradius">00:00:13.000=0;00:00:17.120=0;00:00:17.520=120</property>
    <property name="mlt_service">box_blur</property>
    <property name="kdenlive_id">box_blur</property>
    <property name="kdenlive:collapsed">0</property>
   </filter>
   <filter id="filter912">
    <property name="start">1</property>
    <property name="level">00:00:13.000=1;00:00:17.120=1;00:00:17.520=0.4</property>
    <property name="mlt_service">brightness</property>
    <property name="kdenlive_id">brightness</property>
    <property name="kdenlive:collapsed">0</property>
   </filter>
   <filter id="filter913" in="00:00:45.960" out="00:00:46.880">
    <property name="start">1</property>
    <property name="level">1</property>
    <property name="mlt_service">brightness</property>
    <property name="kdenlive_id">fade_to_black</property>
    <property name="alpha">00:00:00.000=1;00:00:00.920=0</property>
    <property name="kdenlive:collapsed">0</property>
   </filter>
  </entry>
  <blank length="00:00:06.920"/>
  <entry producer="producer627" in="00:00:00.000" out="00:00:05.760">
   <property name="kdenlive:id">358</property>
   <filter id="filter914">
    <property name="rotate_center">1</property>
    <property name="mlt_service">qtblend</property>
    <property name="kdenlive_id">qtblend</property>
    <property name="rect">00:00:00.000=321 180 1278 719 1.000000</property>
    <property name="rotation">00:00:00.000=0</property>
    <property name="compositing">0</property>
    <property name="distort">0</property>
    <property name="kdenlive:collapsed">1</property>
   </filter>
   <filter id="filter915">
    <property name="rotate_center">1</property>
    <property name="mlt_service">qtblend</property>
    <property name="kdenlive_id">qtblend</property>
    <property name="rect">00:00:00.000=950 535 19 10 1.000000;00:00:00.240=-48 -27 2016 1134 1.000000;00:00:00.360=0 0 1920 1080 1.000000;00:00:05.400=0 0 1920 1080 1.000000;00:00:05.520=0 53 1920 1080 1.000000;00:00:05.760=0 -1080 1920 1080 1.000000</property>
    <property name="rotation">00:00:00.000=0;00:00:00.240=0;00:00:00.360=0;00:00:05.400=0;00:00:05.520=0;00:00:05.760=0</property>
    <property name="compositing">0</property>
    <property name="distort">0</property>
   </filter>
  </entry>
  <blank length="00:00:08.760"/>
  <entry producer="producer291" in="00:00:00.000" out="00:00:00.760">
   <property name="kdenlive:id">360</property>
   <filter id="filter916" in="00:00:00.440" out="00:00:00.760">
    <property name="start">1</property>
    <property name="level">1</property>
    <property name="mlt_service">brightness</property>
    <property name="kdenlive_id">fade_to_black</property>
    <property name="alpha">00:00:00.000=1;00:00:00.320=0</property>
    <property name="kdenlive:collapsed">0</property>
   </filter>
  </entry>
  <blank length="00:00:52.680"/>
  <entry producer="chain293" in="00:00:40.640" out="00:01:42.800">
   <property name="kdenlive:id">365</property>
   <filter id="filter917">
    <property name="rotate_center">1</property>
    <property name="mlt_service">qtblend</property>
    <property name="kdenlive_id">qtblend</property>
    <property name="rect">00:00:40.640=321 180 1278 719 1.000000</property>
    <property name="rotation">00:00:40.640=0</property>
    <property name="compositing">0</property>
    <property name="distort">0</property>
    <property name="kdenlive:collapsed">1</property>
   </filter>
   <filter id="filter918">
    <property name="rotate_center">1</property>
    <property name="mlt_service">qtblend</property>
    <property name="kdenlive_id">qtblend</property>
    <property name="rect">00:00:40.640=0 1080 1920 1080 1.000000;00:00:40.880=0 -43 1920 1080 1.000000;00:00:41.000=0 0 1920 1080 1.000000;00:01:42.440=0 0 1920 1080 1.000000;00:01:42.560=0 44 1920 1080 1.000000;00:01:42.800=0 -1080 1920 1080 1.000000</property>
    <property name="rotation">00:00:40.640=0;00:00:40.880=0;00:00:41.000=0;00:01:42.440=0;00:01:42.560=0;00:01:42.800=0</property>
    <property name="compositing">0</property>
    <property name="distort">0</property>
   </filter>
  </entry>
  <blank length="00:00:13.960"/>
  <entry producer="producer628" in="00:00:00.000" out="00:00:10.640">
   <property name="kdenlive:id">231</property>
   <filter id="filter919">
    <property name="rotate_center">1</property>
    <property name="mlt_service">qtblend</property>
    <property name="kdenlive_id">qtblend</property>
    <property name="rect">00:00:00.000=0 1080 1920 1080 1.000000;00:00:00.240=0 -49 1920 1080 1.000000;00:00:00.360=0 0 1920 1080 1.000000;00:00:10.280=0 0 1920 1080 1.000000;00:00:10.400=0 61 1920 1080 1.000000;00:00:10.640=0 -1080 1920 1080 1.000000</property>
    <property name="rotation">00:00:00.000=0;00:00:00.240=0;00:00:00.360=0;00:00:10.280=0;00:00:10.400=0;00:00:10.640=0</property>
    <property name="compositing">0</property>
    <property name="distort">0</property>
    <property name="kdenlive:collapsed">0</property>
   </filter>
  </entry>
  <blank length="00:00:46.120"/>
  <entry producer="chain294" in="00:02:51.760" out="00:04:00.960">
   <property name="kdenlive:id">6</property>
   <property name="kdenlive:activeeffect">2</property>
   <filter id="filter920">
    <property name="rotate_center">1</property>
    <property name="mlt_service">qtblend</property>
    <property name="kdenlive_id">qtblend</property>
    <property name="rect">00:02:51.760=321 180 1278 719 1.000000</property>
    <property name="rotation">00:02:51.760=0</property>
    <property name="compositing">0</property>
    <property name="distort">0</property>
    <property name="kdenlive:collapsed">1</property>
   </filter>
   <filter id="filter921">
    <property name="rotate_center">1</property>
    <property name="mlt_service">qtblend</property>
    <property name="kdenlive_id">qtblend</property>
    <property name="rect">00:02:51.760=0 -26 1920 1080 1.000000;00:02:51.840=0 0 1920 1080 1.000000;00:03:00.560~=0 0 1920 1080 1.000000;00:03:00.960~=-528 -297 2976 1674 1.000000</property>
    <property name="rotation">00:02:51.760=0;00:02:51.840=0;00:03:00.560~=0;00:03:00.960~=0</property>
    <property name="compositing">0</property>
    <property name="distort">0</property>
    <property name="kdenlive:collapsed">1</property>
   </filter>
   <filter id="filter922">
    <property name="hradius">00:02:51.760=0;00:03:00.560=0;00:03:00.960=120</property>
    <property name="vradius">00:02:51.760=0;00:03:00.560=0;00:03:00.960=120</property>
    <property name="mlt_service">box_blur</property>
    <property name="kdenlive_id">box_blur</property>
    <property name="kdenlive:collapsed">0</property>
   </filter>
   <filter id="filter923" in="00:04:00.080" out="00:04:00.960">
    <property name="start">1</property>
    <property name="level">1</property>
    <property name="mlt_service">brightness</property>
    <property name="kdenlive_id">fade_to_black</property>
    <property name="alpha">00:00:00.000=1;00:00:00.880=0</property>
   </filter>
  </entry>
  <blank length="00:00:02.160"/>
  <entry producer="producer628" in="00:00:00.000" out="00:00:08.800">
   <property name="kdenlive:id">231</property>
   <filter id="filter924">
    <property name="rotate_center">1</property>
    <property name="mlt_service">qtblend</property>
    <property name="kdenlive_id">qtblend</property>
    <property name="rect">00:00:00.000=0 1080 1920 1080 1.000000;00:00:00.240=0 -44 1920 1080 1.000000;00:00:00.360=0 0 1920 1080 1.000000;00:00:08.800=0 0 1920 1080 1.000000</property>
    <property name="rotation">00:00:00.000=0;00:00:00.240=0;00:00:00.360=0;00:00:08.800=0</property>
    <property name="compositing">0</property>
    <property name="distort">0</property>
    <property name="kdenlive:collapsed">0</property>
   </filter>
  </entry>
  <entry producer="producer628" in="00:00:00.000" out="00:00:06.560">
   <property name="kdenlive:id">231</property>
   <filter id="filter925">
    <property name="rotate_center">1</property>
    <property name="mlt_service">qtblend</property>
    <property name="kdenlive_id">qtblend</property>
    <property name="rect">00:00:00.000=0 0 1920 1080 1.000000;00:00:06.200=0 0 1920 1080 1.000000;00:00:06.320=0 60 1920 1080 1.000000;00:00:06.560=0 -1080 1920 1080 1.000000</property>
    <property name="rotation">00:00:00.000=0;00:00:06.200=0;00:00:06.320=0;00:00:06.560=0</property>
    <property name="compositing">0</property>
    <property name="distort">0</property>
    <property name="kdenlive:collapsed">0</property>
   </filter>
  </entry>
  <blank length="00:00:07.440"/>
  <entry producer="chain295" in="00:04:16.360" out="00:04:27.800">
   <property name="kdenlive:id">387</property>
   <filter id="filter926">
    <property name="rotate_center">1</property>
    <property name="mlt_service">qtblend</property>
    <property name="kdenlive_id">qtblend</property>
    <property name="rect">00:04:16.360=321 180 1278 719 1.000000</property>
    <property name="rotation">00:04:16.360=0</property>
    <property name="compositing">0</property>
    <property name="distort">0</property>
    <property name="kdenlive:collapsed">1</property>
   </filter>
   <filter id="filter927">
    <property name="rotate_center">1</property>
    <property name="mlt_service">qtblend</property>
    <property name="kdenlive_id">qtblend</property>
    <property name="rect">00:04:16.360=0 1080 1920 1080 1.000000;00:04:16.600=0 -41 1920 1080 1.000000;00:04:16.720=0 0 1920 1080 1.000000;00:04:27.440=0 0 1920 1080 1.000000;00:04:27.560=0 44 1920 1080 1.000000;00:04:27.800=0 -1080 1920 1080 1.000000</property>
    <property name="rotation">00:04:16.360=0;00:04:16.600=0;00:04:16.720=0;00:04:27.440=0;00:04:27.560=0;00:04:27.800=0</property>
    <property name="compositing">0</property>
    <property name="distort">0</property>
   </filter>
  </entry>
  <blank length="00:00:18.040"/>
  <entry producer="chain296" in="00:00:35.520" out="00:00:59.880">
   <property name="kdenlive:id">390</property>
   <property name="kdenlive:activeeffect">1</property>
   <filter id="filter928">
    <property name="rotate_center">1</property>
    <property name="mlt_service">qtblend</property>
    <property name="kdenlive_id">qtblend</property>
    <property name="rect">00:00:35.520=321 180 1278 719 1.000000</property>
    <property name="rotation">00:00:35.520=0</property>
    <property name="compositing">0</property>
    <property name="distort">0</property>
    <property name="kdenlive:collapsed">1</property>
   </filter>
   <filter id="filter929">
    <property name="rotate_center">1</property>
    <property name="mlt_service">qtblend</property>
    <property name="kdenlive_id">qtblend</property>
    <property name="rect">00:00:35.520=0 1080 1920 1080 1.000000;00:00:35.760=0 -43 1920 1080 1.000000;00:00:35.880=0 0 1920 1080 1.000000;00:00:59.520=0 0 1920 1080 1.000000;00:00:59.640=0 46 1920 1080 1.000000;00:00:59.880=0 -1080 1920 1080 1.000000</property>
    <property name="rotation">00:00:35.520=0;00:00:35.760=0;00:00:35.880=0;00:00:59.520=0;00:00:59.640=0;00:00:59.880=0</property>
    <property name="compositing">0</property>
    <property name="distort">0</property>
    <property name="kdenlive:collapsed">0</property>
   </filter>
  </entry>
  <blank length="00:00:25.080"/>
  <entry producer="chain297" in="00:00:00.000" out="00:00:04.600">
   <property name="kdenlive:id">394</property>
   <filter id="filter930">
    <property name="rotate_center">1</property>
    <property name="mlt_service">qtblend</property>
    <property name="kdenlive_id">qtblend</property>
    <property name="rect">00:00:00.000=321 180 1278 719 1.000000</property>
    <property name="rotation">00:00:00.000=0</property>
    <property name="compositing">0</property>
    <property name="distort">0</property>
    <property name="kdenlive:collapsed">1</property>
   </filter>
   <filter id="filter931">
    <property name="rotate_center">1</property>
    <property name="mlt_service">qtblend</property>
    <property name="kdenlive_id">qtblend</property>
    <property name="rect">00:00:00.000=0 1080 1920 1080 1.000000;00:00:00.240=0 -48 1920 1080 1.000000;00:00:00.360=0 0 1920 1080 1.000000;00:00:04.200~=0 0 1920 1080 1.000000;00:00:04.600~=-528 -297 2976 1674 1.000000</property>
    <property name="rotation">00:00:00.000=0;00:00:00.240=0;00:00:00.360=0;00:00:04.200~=0;00:00:04.600~=0</property>
    <property name="compositing">0</property>
    <property name="distort">0</property>
    <property name="kdenlive:collapsed">0</property>
   </filter>
   <filter id="filter932">
    <property name="hradius">00:00:00.000=0;00:00:04.200=0;00:00:04.600=140</property>
    <property name="vradius">00:00:00.000=0;00:00:04.200=0;00:00:04.600=140</property>
    <property name="mlt_service">box_blur</property>
    <property name="kdenlive_id">box_blur</property>
    <property name="kdenlive:collapsed">1</property>
   </filter>
   <filter id="filter933">
    <property name="start">1</property>
    <property name="level">00:00:00.000=1;00:00:04.200=1;00:00:04.600=0.37</property>
    <property name="mlt_service">brightness</property>
    <property name="kdenlive_id">brightness</property>
    <property name="kdenlive:collapsed">0</property>
   </filter>
  </entry>
  <entry producer="producer630" in="00:00:00.440" out="00:01:20.240">
   <property name="kdenlive:id">394</property>
   <filter id="filter934">
    <property name="rotate_center">1</property>
    <property name="mlt_service">qtblend</property>
    <property name="kdenlive_id">qtblend</property>
    <property name="rect">00:00:00.440=321 180 1278 719 1.000000</property>
    <property name="rotation">00:00:00.440=0</property>
    <property name="compositing">0</property>
    <property name="distort">0</property>
    <property name="kdenlive:collapsed">0</property>
   </filter>
   <filter id="filter935">
    <property name="rotate_center">1</property>
    <property name="mlt_service">qtblend</property>
    <property name="kdenlive_id">qtblend</property>
    <property name="rect">00:00:00.440=-528 -297 2976 1674 1.000000</property>
    <property name="rotation">00:00:00.440=0</property>
    <property name="compositing">0</property>
    <property name="distort">0</property>
    <property name="kdenlive:collapsed">0</property>
   </filter>
   <filter id="filter936">
    <property name="hradius">00:00:00.440=140</property>
    <property name="vradius">00:00:00.440=140</property>
    <property name="mlt_service">box_blur</property>
    <property name="kdenlive_id">box_blur</property>
    <property name="kdenlive:collapsed">0</property>
   </filter>
   <filter id="filter937">
    <property name="start">1</property>
    <property name="level">00:00:00.440=0.37</property>
    <property name="mlt_service">brightness</property>
    <property name="kdenlive_id">brightness</property>
    <property name="kdenlive:collapsed">0</property>
   </filter>
   <filter id="filter938" in="00:01:19.240" out="00:01:20.240">
    <property name="start">1</property>
    <property name="level">1</property>
    <property name="mlt_service">brightness</property>
    <property name="kdenlive_id">fade_to_black</property>
    <property name="alpha">00:00:00.000=1;00:00:01.000=0</property>
    <property name="kdenlive:collapsed">0</property>
   </filter>
  </entry>
  <blank length="00:00:19.120"/>
  <entry producer="chain298" in="00:00:00.000" out="00:00:04.880">
   <property name="kdenlive:id">263</property>
   <filter id="filter939">
    <property name="rotate_center">1</property>
    <property name="mlt_service">qtblend</property>
    <property name="kdenlive_id">qtblend</property>
    <property name="rect">00:00:00.000=-947 0 1920 1080 1.000000</property>
    <property name="rotation">00:00:00.000=0</property>
    <property name="compositing">0</property>
    <property name="distort">0</property>
    <property name="kdenlive:collapsed">1</property>
   </filter>
   <filter id="filter940">
    <property name="rotate_center">1</property>
    <property name="mlt_service">qtblend</property>
    <property name="kdenlive_id">qtblend</property>
    <property name="rect">00:00:00.000=0 1080 1920 1080 1.000000;00:00:00.240=0 -60 1920 1080 1.000000;00:00:00.360=0 0 1920 1080 1.000000</property>
    <property name="rotation">00:00:00.000=0;00:00:00.240=0;00:00:00.360=0</property>
    <property name="compositing">0</property>
    <property name="distort">0</property>
    <property name="kdenlive:collapsed">0</property>
   </filter>
  </entry>
  <entry producer="chain298" in="00:00:00.000" out="00:00:02.520">
   <property name="kdenlive:id">263</property>
   <filter id="filter941">
    <property name="rotate_center">1</property>
    <property name="mlt_service">qtblend</property>
    <property name="kdenlive_id">qtblend</property>
    <property name="rect">00:00:00.000=-947 0 1920 1080 1.000000</property>
    <property name="rotation">00:00:00.000=0</property>
    <property name="compositing">0</property>
    <property name="distort">0</property>
    <property name="kdenlive:collapsed">1</property>
   </filter>
   <filter id="filter942">
    <property name="rotate_center">1</property>
    <property name="mlt_service">qtblend</property>
    <property name="kdenlive_id">qtblend</property>
    <property name="rect">00:00:00.000=0 0 1920 1080 1.000000;00:00:02.160=0 0 1920 1080 1.000000;00:00:02.280=0 95 1920 1080 1.000000;00:00:02.520=0 -1074 1920 1080 1.000000</property>
    <property name="rotation">00:00:00.000=0;00:00:02.160=0;00:00:02.280=0;00:00:02.520=0</property>
    <property name="compositing">0</property>
    <property name="distort">0</property>
   </filter>
  </entry>
  <blank length="00:00:08.880"/>
  <entry producer="chain299" in="00:00:00.000" out="00:00:06.280">
   <property name="kdenlive:id">405</property>
   <filter id="filter943">
    <property name="rotate_center">1</property>
    <property name="mlt_service">qtblend</property>
    <property name="kdenlive_id">qtblend</property>
    <property name="rect">00:00:00.000=0 1080 1920 1080 1.000000;00:00:00.240=0 -46 1920 1080 1.000000;00:00:00.360=0 0 1920 1080 1.000000;00:00:05.920=0 0 1920 1080 1.000000;00:00:06.040=-48 -27 2016 1134 1.000000;00:00:06.280=950 534 19 10 1.000000</property>
    <property name="rotation">00:00:00.000=0;00:00:00.240=0;00:00:00.360=0;00:00:05.920=0;00:00:06.040=0;00:00:06.280=0</property>
    <property name="compositing">0</property>
    <property name="distort">0</property>
    <property name="kdenlive:collapsed">0</property>
   </filter>
  </entry>
  <blank length="00:00:09.960"/>
  <entry producer="chain300" in="00:00:27.560" out="00:00:33.040">
   <property name="kdenlive:id">409</property>
   <property name="kdenlive:activeeffect">1</property>
   <filter id="filter944">
    <property name="rotate_center">1</property>
    <property name="mlt_service">qtblend</property>
    <property name="kdenlive_id">qtblend</property>
    <property name="rect">00:00:27.560=321 180 1279 719 1.000000</property>
    <property name="rotation">00:00:27.560=0</property>
    <property name="compositing">0</property>
    <property name="distort">0</property>
    <property name="kdenlive:collapsed">1</property>
   </filter>
   <filter id="filter945">
    <property name="rotate_center">1</property>
    <property name="mlt_service">qtblend</property>
    <property name="kdenlive_id">qtblend</property>
    <property name="rect">00:00:27.560=0 1080 1920 1080 1.000000;00:00:27.800=0 -63 1920 1080 1.000000;00:00:27.920=0 0 1920 1080 1.000000;00:00:32.680=0 0 1920 1080 1.000000;00:00:32.800=0 88 1920 1080 1.000000;00:00:33.040=0 -1080 1920 1080 1.000000</property>
    <property name="rotation">00:00:27.560=0;00:00:27.800=0;00:00:27.920=0;00:00:32.680=0;00:00:32.800=0;00:00:33.040=0</property>
    <property name="compositing">0</property>
    <property name="distort">0</property>
    <property name="kdenlive:collapsed">0</property>
   </filter>
  </entry>
  <blank length="00:00:04.960"/>
  <entry producer="chain301" in="00:00:00.000" out="00:00:08.480">
   <property name="kdenlive:id">412</property>
   <property name="kdenlive:activeeffect">1</property>
   <filter id="filter946">
    <property name="rotate_center">1</property>
    <property name="mlt_service">qtblend</property>
    <property name="kdenlive_id">qtblend</property>
    <property name="rect">00:00:00.000=321 180 1278 719 1.000000</property>
    <property name="rotation">00:00:00.000=0</property>
    <property name="compositing">0</property>
    <property name="distort">0</property>
    <property name="kdenlive:collapsed">1</property>
   </filter>
   <filter id="filter947">
    <property name="rotate_center">1</property>
    <property name="mlt_service">qtblend</property>
    <property name="kdenlive_id">qtblend</property>
    <property name="rect">00:00:00.000=0 1080 1920 1080 1.000000;00:00:00.240=0 -52 1920 1080 1.000000;00:00:00.360=0 0 1920 1080 1.000000;00:00:08.120=0 0 1920 1080 1.000000;00:00:08.240=0 71 1920 1080 1.000000;00:00:08.480=0 -1080 1920 1080 1.000000</property>
    <property name="rotation">00:00:00.000=0;00:00:00.240=0;00:00:00.360=0;00:00:08.120=0;00:00:08.240=0;00:00:08.480=0</property>
    <property name="compositing">0</property>
    <property name="distort">0</property>
    <property name="kdenlive:collapsed">0</property>
   </filter>
  </entry>
  <blank length="00:00:28.760"/>
  <entry producer="producer635" in="00:00:00.000" out="00:00:06.360">
   <property name="kdenlive:id">419</property>
   <property name="kdenlive:activeeffect">1</property>
   <filter id="filter948">
    <property name="rotate_center">1</property>
    <property name="mlt_service">qtblend</property>
    <property name="kdenlive_id">qtblend</property>
    <property name="rect">00:00:00.000=320 180 1279 719 1.000000</property>
    <property name="rotation">00:00:00.000=0</property>
    <property name="compositing">0</property>
    <property name="distort">0</property>
    <property name="kdenlive:collapsed">1</property>
   </filter>
   <filter id="filter949">
    <property name="rotate_center">1</property>
    <property name="mlt_service">qtblend</property>
    <property name="kdenlive_id">qtblend</property>
    <property name="rect">00:00:00.000=0 1080 1920 1080 1.000000;00:00:00.240=0 -53 1920 1080 1.000000;00:00:00.360=0 0 1920 1080 1.000000;00:00:06.000=0 0 1920 1080 1.000000;00:00:06.120=0 51 1920 1080 1.000000;00:00:06.360=0 -1080 1920 1080 1.000000</property>
    <property name="rotation">00:00:00.000=0;00:00:00.240=0;00:00:00.360=0;00:00:06.000=0;00:00:06.120=0;00:00:06.360=0</property>
    <property name="compositing">0</property>
    <property name="distort">0</property>
    <property name="kdenlive:collapsed">0</property>
   </filter>
  </entry>
  <blank length="00:00:12.840"/>
  <entry producer="producer636" in="00:00:00.760" out="00:00:12.640">
   <property name="kdenlive:id">420</property>
   <property name="kdenlive:activeeffect">2</property>
   <filter id="filter950">
    <property name="rotate_center">1</property>
    <property name="mlt_service">qtblend</property>
    <property name="kdenlive_id">qtblend</property>
    <property name="rect">00:00:00.760=0 0 1920 1080 1.000000;00:00:04.360=0 0 1920 1080 1.000000;00:00:04.960=-2281 -503 6496 3654 1.000000</property>
    <property name="rotation">00:00:00.760=0;00:00:04.360=0;00:00:04.960=0</property>
    <property name="compositing">0</property>
    <property name="distort">0</property>
    <property name="kdenlive:collapsed">1</property>
   </filter>
   <filter id="filter951">
    <property name="rotate_center">1</property>
    <property name="mlt_service">qtblend</property>
    <property name="kdenlive_id">qtblend</property>
    <property name="rect">00:00:00.760=321 180 1278 719 1.000000</property>
    <property name="rotation">00:00:00.760=0</property>
    <property name="compositing">0</property>
    <property name="distort">0</property>
    <property name="kdenlive:collapsed">1</property>
   </filter>
   <filter id="filter952">
    <property name="rotate_center">1</property>
    <property name="mlt_service">qtblend</property>
    <property name="kdenlive_id">qtblend</property>
    <property name="rect">00:00:00.760=0 1080 1920 1080 1.000000;00:00:01.000=0 -40 1920 1080 1.000000;00:00:01.120=0 0 1920 1080 1.000000;00:00:12.280=0 0 1920 1080 1.000000;00:00:12.400=0 61 1920 1080 1.000000;00:00:12.640=0 -1080 1920 1080 1.000000</property>
    <property name="rotation">00:00:00.760=0;00:00:01.000=0;00:00:01.120=0;00:00:12.280=0;00:00:12.400=0;00:00:12.640=0</property>
    <property name="compositing">0</property>
    <property name="distort">0</property>
    <property name="kdenlive:collapsed">0</property>
   </filter>
  </entry>
  <blank length="00:00:06.440"/>
  <entry producer="chain302" in="00:00:00.000" out="00:00:13.440">
   <property name="kdenlive:id">421</property>
   <filter id="filter953">
    <property name="rotate_center">1</property>
    <property name="mlt_service">qtblend</property>
    <property name="kdenlive_id">qtblend</property>
    <property name="rect">00:00:00.000=0 1080 1920 1080 1.000000;00:00:00.240=0 -55 1920 1080 1.000000;00:00:00.360=0 0 1920 1080 1.000000;00:00:13.080=0 0 1920 1080 1.000000;00:00:13.200=0 54 1920 1080 1.000000;00:00:13.440=0 -1080 1920 1080 1.000000</property>
    <property name="rotation">00:00:00.000=0;00:00:00.240=0;00:00:00.360=0;00:00:13.080=0;00:00:13.200=0;00:00:13.440=0</property>
    <property name="compositing">0</property>
    <property name="distort">0</property>
    <property name="kdenlive:collapsed">0</property>
   </filter>
  </entry>
  <blank length="00:00:04.600"/>
  <entry producer="producer299" in="00:00:00.000" out="00:00:39.760">
   <property name="kdenlive:id">346</property>
   <property name="kdenlive:activeeffect">2</property>
   <filter id="filter954">
    <property name="rotate_center">1</property>
    <property name="mlt_service">qtblend</property>
    <property name="kdenlive_id">qtblend</property>
    <property name="rect">00:00:00.000=48 27 1824 1026 1.000000;00:00:00.360=0 0 1920 1080 1.000000</property>
    <property name="rotation">00:00:00.000=0;00:00:00.360=0</property>
    <property name="compositing">0</property>
    <property name="distort">0</property>
    <property name="kdenlive:collapsed">1</property>
   </filter>
   <filter id="filter955" out="00:00:00.240">
    <property name="start">1</property>
    <property name="level">1</property>
    <property name="mlt_service">brightness</property>
    <property name="kdenlive_id">fade_from_black</property>
    <property name="alpha">00:00:00.000=0;00:00:00.240=1</property>
    <property name="kdenlive:collapsed">0</property>
   </filter>
   <filter id="filter956" in="00:00:38.840" out="00:00:39.760">
    <property name="start">1</property>
    <property name="level">1</property>
    <property name="mlt_service">brightness</property>
    <property name="kdenlive_id">fade_to_black</property>
    <property name="alpha">00:00:00.000=1;00:00:00.920=0</property>
    <property name="kdenlive:collapsed">0</property>
   </filter>
  </entry>
  <blank length="00:00:01.120"/>
  <entry producer="producer637" in="00:00:00.000" out="00:00:02.560">
   <property name="kdenlive:id">432</property>
   <filter id="filter957">
    <property name="rotate_center">1</property>
    <property name="mlt_service">qtblend</property>
    <property name="kdenlive_id">qtblend</property>
    <property name="rect">00:00:00.000=0 0 1920 1080 1.000000;00:00:02.200=0 0 1920 1080 1.000000;00:00:02.320=0 60 1920 1080 1.000000;00:00:02.560=0 -1080 1920 1080 1.000000</property>
    <property name="rotation">00:00:00.000=0;00:00:02.200=0;00:00:02.320=0;00:00:02.560=0</property>
    <property name="compositing">0</property>
    <property name="distort">0</property>
    <property name="kdenlive:collapsed">0</property>
   </filter>
  </entry>
  <blank length="00:00:10.680"/>
  <entry producer="chain303" in="00:00:00.000" out="00:00:05.120">
   <property name="kdenlive:id">438</property>
   <property name="kdenlive:activeeffect">1</property>
   <filter id="filter958">
    <property name="rotate_center">1</property>
    <property name="mlt_service">qtblend</property>
    <property name="kdenlive_id">qtblend</property>
    <property name="rect">00:00:00.000=321 180 1278 719 1.000000</property>
    <property name="rotation">00:00:00.000=0</property>
    <property name="compositing">0</property>
    <property name="distort">0</property>
    <property name="kdenlive:collapsed">1</property>
   </filter>
   <filter id="filter959">
    <property name="rotate_center">1</property>
    <property name="mlt_service">qtblend</property>
    <property name="kdenlive_id">qtblend</property>
    <property name="rect">00:00:00.000=0 1080 1920 1080 1.000000;00:00:00.240=0 -67 1920 1080 1.000000;00:00:00.360=0 0 1920 1080 1.000000;00:00:04.760=0 0 1920 1080 1.000000;00:00:04.880=0 62 1920 1080 1.000000;00:00:05.120=0 -1080 1920 1080 1.000000</property>
    <property name="rotation">00:00:00.000=0;00:00:00.240=0;00:00:00.360=0;00:00:04.760=0;00:00:04.880=0;00:00:05.120=0</property>
    <property name="compositing">0</property>
    <property name="distort">0</property>
    <property name="kdenlive:collapsed">0</property>
   </filter>
  </entry>
  <blank length="00:00:03.600"/>
  <entry producer="chain314" in="00:00:11.200" out="00:00:16.400">
   <property name="kdenlive:id">442</property>
   <property name="kdenlive:activeeffect">2</property>
   <filter id="filter960">
    <property name="mlt_service">crop</property>
    <property name="kdenlive_id">crop</property>
    <property name="top">0</property>
    <property name="left">234</property>
    <property name="bottom">0</property>
    <property name="right">232</property>
    <property name="center">0</property>
    <property name="center_bias">0</property>
    <property name="use_profile">1</property>
    <property name="kdenlive:collapsed">1</property>
   </filter>
   <filter id="filter961">
    <property name="rotate_center">1</property>
    <property name="mlt_service">qtblend</property>
    <property name="kdenlive_id">qtblend</property>
    <property name="rect">00:00:11.200=321 180 1278 719 1.000000</property>
    <property name="rotation">00:00:11.200=0</property>
    <property name="compositing">0</property>
    <property name="distort">0</property>
    <property name="kdenlive:collapsed">1</property>
   </filter>
   <filter id="filter962">
    <property name="rotate_center">1</property>
    <property name="mlt_service">qtblend</property>
    <property name="kdenlive_id">qtblend</property>
    <property name="rect">00:00:11.200=0 1080 1920 1080 1.000000;00:00:11.440=0 -51 1920 1080 1.000000;00:00:11.560=0 0 1920 1080 1.000000;00:00:16.040=0 0 1920 1080 1.000000;00:00:16.160=0 51 1920 1080 1.000000;00:00:16.400=0 -1080 1920 1080 1.000000</property>
    <property name="rotation">00:00:11.200=0;00:00:11.440=0;00:00:11.560=0;00:00:16.040=0;00:00:16.160=0;00:00:16.400=0</property>
    <property name="compositing">0</property>
    <property name="distort">0</property>
    <property name="kdenlive:collapsed">0</property>
   </filter>
  </entry>
  <blank length="00:00:01.000"/>
  <entry producer="chain315" in="00:00:22.200" out="00:00:26.600">
   <property name="kdenlive:id">445</property>
   <property name="kdenlive:activeeffect">1</property>
   <filter id="filter963">
    <property name="rotate_center">1</property>
    <property name="mlt_service">qtblend</property>
    <property name="kdenlive_id">qtblend</property>
    <property name="rect">00:00:22.200=321 180 1278 719 1.000000</property>
    <property name="rotation">00:00:22.200=0</property>
    <property name="compositing">0</property>
    <property name="distort">0</property>
    <property name="kdenlive:collapsed">1</property>
   </filter>
   <filter id="filter964">
    <property name="rotate_center">1</property>
    <property name="mlt_service">qtblend</property>
    <property name="kdenlive_id">qtblend</property>
    <property name="rect">00:00:22.200=0 1080 1920 1080 1.000000;00:00:22.440=0 -51 1920 1080 1.000000;00:00:22.560=0 0 1920 1080 1.000000;00:00:26.240=0 0 1920 1080 1.000000;00:00:26.360=0 51 1920 1080 1.000000;00:00:26.600=0 -1080 1920 1080 1.000000</property>
    <property name="rotation">00:00:22.200=0;00:00:22.440=0;00:00:22.560=0;00:00:26.240=0;00:00:26.360=0;00:00:26.600=0</property>
    <property name="compositing">0</property>
    <property name="distort">0</property>
    <property name="kdenlive:collapsed">0</property>
   </filter>
  </entry>
  <blank length="00:00:02.200"/>
  <entry producer="chain316" in="00:18:32.880" out="00:18:36.960">
   <property name="kdenlive:id">15</property>
   <property name="kdenlive:activeeffect">1</property>
   <filter id="filter965">
    <property name="rotate_center">1</property>
    <property name="mlt_service">qtblend</property>
    <property name="kdenlive_id">qtblend</property>
    <property name="rect">00:18:32.880=321 181 1278 719 1.000000</property>
    <property name="rotation">00:18:32.880=0</property>
    <property name="compositing">0</property>
    <property name="distort">0</property>
    <property name="kdenlive:collapsed">1</property>
   </filter>
   <filter id="filter966">
    <property name="rotate_center">1</property>
    <property name="mlt_service">qtblend</property>
    <property name="kdenlive_id">qtblend</property>
    <property name="rect">00:18:32.880=0 1080 1920 1080 1.000000;00:18:33.120=0 -41 1920 1080 1.000000;00:18:33.240=0 0 1920 1080 1.000000</property>
    <property name="rotation">00:18:32.880=0;00:18:33.120=0;00:18:33.240=0</property>
    <property name="compositing">0</property>
    <property name="distort">0</property>
    <property name="kdenlive:collapsed">1</property>
   </filter>
  </entry>
  <blank length="00:00:00.440"/>
  <entry producer="producer299" in="00:00:00.000" out="00:00:54.480">
   <property name="kdenlive:id">346</property>
   <filter id="filter967">
    <property name="rotate_center">1</property>
    <property name="mlt_service">qtblend</property>
    <property name="kdenlive_id">qtblend</property>
    <property name="rect">00:00:00.000=48 27 1824 1026 1.000000;00:00:00.360=0 0 1920 1080 1.000000</property>
    <property name="rotation">00:00:00.000=0;00:00:00.360=0</property>
    <property name="compositing">0</property>
    <property name="distort">0</property>
    <property name="kdenlive:collapsed">1</property>
   </filter>
   <filter id="filter968" out="00:00:00.240">
    <property name="start">1</property>
    <property name="level">1</property>
    <property name="mlt_service">brightness</property>
    <property name="kdenlive_id">fade_from_black</property>
    <property name="alpha">00:00:00.000=0;00:00:00.240=1</property>
    <property name="kdenlive:collapsed">0</property>
   </filter>
   <filter id="filter969" in="00:00:53.560" out="00:00:54.480">
    <property name="start">1</property>
    <property name="level">1</property>
    <property name="mlt_service">brightness</property>
    <property name="kdenlive_id">fade_to_black</property>
    <property name="alpha">00:00:00.000=1;00:00:00.920=0</property>
    <property name="kdenlive:collapsed">0</property>
   </filter>
  </entry>
  <blank length="00:00:03.520"/>
  <entry producer="producer357" in="00:00:00.000" out="00:00:17.960">
   <property name="kdenlive:id">453</property>
   <filter id="filter970">
    <property name="rotate_center">1</property>
    <property name="mlt_service">qtblend</property>
    <property name="kdenlive_id">qtblend</property>
    <property name="rect">00:00:00.000=1430 535 19 10 1.000000;00:00:00.240=816 189 1248 702 1.000000;00:00:00.360=864 216 1152 648 1.000000;00:00:01.320~=864 252 1152 648 1.000000;00:00:02.280~=864 183 1152 648 1.000000;00:00:03.240~=864 263 1152 648 1.000000;00:00:04.200~=864 190 1152 648 1.000000;00:00:05.160~=864 251 1152 648 1.000000;00:00:06.120~=864 197 1152 648 1.000000;00:00:07.080~=864 244 1152 648 1.000000;00:00:08.040~=864 197 1152 648 1.000000;00:00:09.000~=864 256 1152 648 1.000000;00:00:09.960~=864 198 1152 648 1.000000;00:00:10.920~=864 248 1152 648 1.000000;00:00:11.880~=864 195 1152 648 1.000000;00:00:12.840~=864 258 1152 648 1.000000;00:00:13.800~=864 194 1152 648 1.000000;00:00:14.760~=864 250 1152 648 1.000000;00:00:15.720~=864 189 1152 648 1.000000;00:00:16.680~=864 253 1152 648 1.000000;00:00:17.600=864 187 1152 648 1.000000;00:00:17.720=816 155 1248 702 1.000000;00:00:17.960=1430 506 19 10 1.000000</property>
    <property name="rotation">00:00:00.000=0;00:00:00.240=0;00:00:00.360=0;00:00:01.320~=0;00:00:02.280~=0;00:00:03.240~=0;00:00:04.200~=0;00:00:05.160~=0;00:00:06.120~=0;00:00:07.080~=0;00:00:08.040~=0;00:00:09.000~=0;00:00:09.960~=0;00:00:10.920~=0;00:00:11.880~=0;00:00:12.840~=0;00:00:13.800~=0;00:00:14.760~=0;00:00:15.720~=0;00:00:16.680~=0;00:00:17.600=0;00:00:17.720=0;00:00:17.960=0</property>
    <property name="compositing">0</property>
    <property name="distort">0</property>
   </filter>
  </entry>
  <entry producer="chain317" in="00:00:04.400" out="00:00:07.240">
   <property name="kdenlive:id">422</property>
   <filter id="filter971">
    <property name="rotate_center">1</property>
    <property name="mlt_service">qtblend</property>
    <property name="kdenlive_id">qtblend</property>
    <property name="rect">00:00:04.400=-3 -557 3919 2204 1.000000</property>
    <property name="rotation">00:00:04.400=0</property>
    <property name="compositing">0</property>
    <property name="distort">0</property>
    <property name="kdenlive:collapsed">1</property>
   </filter>
   <filter id="filter972">
    <property name="rotate_center">1</property>
    <property name="mlt_service">qtblend</property>
    <property name="kdenlive_id">qtblend</property>
    <property name="rect">00:00:04.400=321 180 1278 719 1.000000</property>
    <property name="rotation">00:00:04.400=0</property>
    <property name="compositing">0</property>
    <property name="distort">0</property>
    <property name="kdenlive:collapsed">1</property>
   </filter>
   <filter id="filter973">
    <property name="rotate_center">1</property>
    <property name="mlt_service">qtblend</property>
    <property name="kdenlive_id">qtblend</property>
    <property name="rect">00:00:04.400=0 1080 1920 1080 1.000000;00:00:04.640=0 -42 1920 1080 1.000000;00:00:04.760=0 0 1920 1080 1.000000;00:00:06.880=0 0 1920 1080 1.000000;00:00:07.000=-48 -27 2016 1134 1.000000;00:00:07.240=950 535 19 10 1.000000</property>
    <property name="rotation">00:00:04.400=0;00:00:04.640=0;00:00:04.760=0;00:00:06.880=0;00:00:07.000=0;00:00:07.240=0</property>
    <property name="compositing">0</property>
    <property name="distort">0</property>
   </filter>
  </entry>
  <blank length="00:00:02.400"/>
  <entry producer="producer390" in="00:00:00.000" out="00:00:04.880">
   <property name="kdenlive:id">248</property>
   <filter id="filter974">
    <property name="rotate_center">1</property>
    <property name="mlt_service">qtblend</property>
    <property name="kdenlive_id">qtblend</property>
    <property name="rect">00:00:00.000=642 177 19 10 1.000000;00:00:00.240=468 79 369 208 1.000000;00:00:00.360=514 105 276 155 1.000000;00:00:01.440=514 105 276 155 1.000000;00:00:01.960=1030 91 276 155 1.000000;00:00:04.520=1030 91 276 155 1.000000;00:00:04.640=983 64 371 209 1.000000;00:00:04.880=1158 163 19 10 1.000000</property>
    <property name="rotation">00:00:00.000=-61;00:00:00.240=-61;00:00:00.360=-61;00:00:01.440=-61;00:00:01.960=-104;00:00:04.520=-104;00:00:04.640=-104;00:00:04.880=-104</property>
    <property name="compositing">0</property>
    <property name="distort">0</property>
   </filter>
  </entry>
  <blank length="00:00:05.520"/>
  <entry producer="chain316" in="00:18:32.880" out="00:18:45.680">
   <property name="kdenlive:id">15</property>
   <filter id="filter975">
    <property name="rotate_center">1</property>
    <property name="mlt_service">qtblend</property>
    <property name="kdenlive_id">qtblend</property>
    <property name="rect">00:18:32.880=321 181 1278 719 1.000000</property>
    <property name="rotation">00:18:32.880=0</property>
    <property name="compositing">0</property>
    <property name="distort">0</property>
    <property name="kdenlive:collapsed">1</property>
   </filter>
   <filter id="filter976">
    <property name="rotate_center">1</property>
    <property name="mlt_service">qtblend</property>
    <property name="kdenlive_id">qtblend</property>
    <property name="rect">00:18:32.880=0 1080 1920 1080 1.000000;00:18:33.120=0 -41 1920 1080 1.000000;00:18:33.240=0 0 1920 1080 1.000000;00:18:45.320=0 0 1920 1080 1.000000;00:18:45.440=0 35 1920 1080 1.000000;00:18:45.680=0 -1080 1920 1080 1.000000</property>
    <property name="rotation">00:18:32.880=0;00:18:33.120=0;00:18:33.240=0;00:18:45.320=0;00:18:45.440=0;00:18:45.680=0</property>
    <property name="compositing">0</property>
    <property name="distort">0</property>
    <property name="kdenlive:collapsed">0</property>
   </filter>
  </entry>
  <blank length="00:00:04.640"/>
  <entry producer="producer358" in="00:00:00.000" out="00:00:10.120">
   <property name="kdenlive:id">457</property>
   <filter id="filter977">
    <property name="rotate_center">1</property>
    <property name="mlt_service">qtblend</property>
    <property name="kdenlive_id">qtblend</property>
    <property name="rect">00:00:00.000=0 54 1920 1080 1.000000;00:00:00.240=0 0 1920 1080 1.000000</property>
    <property name="rotation">00:00:00.000=0;00:00:00.240=0</property>
    <property name="compositing">0</property>
    <property name="distort">0</property>
   </filter>
   <filter id="filter978" out="00:00:00.240">
    <property name="start">1</property>
    <property name="level">1</property>
    <property name="mlt_service">brightness</property>
    <property name="kdenlive_id">fade_from_black</property>
    <property name="alpha">00:00:00.000=0;00:00:00.240=1</property>
   </filter>
  </entry>
  <blank length="00:00:46.880"/>
  <entry producer="chain318" in="00:00:00.000" out="00:00:01.040">
   <property name="kdenlive:id">403</property>
   <property name="kdenlive:activeeffect">1</property>
   <filter id="filter979">
    <property name="mlt_service">crop</property>
    <property name="kdenlive_id">crop</property>
    <property name="top">0</property>
    <property name="left">0</property>
    <property name="bottom">514</property>
    <property name="right">0</property>
    <property name="center">0</property>
    <property name="center_bias">0</property>
    <property name="use_profile">1</property>
    <property name="kdenlive:collapsed">0</property>
   </filter>
   <filter id="filter980">
    <property name="rotate_center">1</property>
    <property name="mlt_service">qtblend</property>
    <property name="kdenlive_id">qtblend</property>
    <property name="rect">00:00:00.000=0 -256 1920 1080 1.000000</property>
    <property name="rotation">00:00:00.000=0</property>
    <property name="compositing">0</property>
    <property name="distort">0</property>
    <property name="kdenlive:collapsed">0</property>
   </filter>
  </entry>
  <blank length="00:00:08.120"/>
  <entry producer="producer392" in="00:00:00.000" out="00:00:08.320">
   <property name="kdenlive:id">472</property>
   <filter id="filter981">
    <property name="rotate_center">1</property>
    <property name="mlt_service">qtblend</property>
    <property name="kdenlive_id">qtblend</property>
    <property name="rect">00:00:00.000=950 535 19 10 1.000000;00:00:00.240=-48 -27 2016 1134 1.000000;00:00:00.360=0 0 1920 1080 1.000000;00:00:07.960=0 0 1920 1080 1.000000;00:00:08.080=-48 -27 2016 1134 1.000000;00:00:08.320=950 535 19 10 1.000000</property>
    <property name="rotation">00:00:00.000=0;00:00:00.240=0;00:00:00.360=0;00:00:07.960=0;00:00:08.080=0;00:00:08.320=0</property>
    <property name="compositing">0</property>
    <property name="distort">0</property>
    <property name="kdenlive:collapsed">0</property>
   </filter>
  </entry>
  <blank length="00:00:16.160"/>
  <entry producer="chain319" in="00:02:57.280" out="00:03:02.680">
   <property name="kdenlive:id">478</property>
   <property name="kdenlive:activeeffect">1</property>
   <filter id="filter982">
    <property name="rotate_center">1</property>
    <property name="mlt_service">qtblend</property>
    <property name="kdenlive_id">qtblend</property>
    <property name="rect">00:02:57.280=321 180 1278 719 1.000000</property>
    <property name="rotation">00:02:57.280=0</property>
    <property name="compositing">0</property>
    <property name="distort">0</property>
    <property name="kdenlive:collapsed">1</property>
   </filter>
   <filter id="filter983">
    <property name="rotate_center">1</property>
    <property name="mlt_service">qtblend</property>
    <property name="kdenlive_id">qtblend</property>
    <property name="rect">00:02:57.280=0 1080 1920 1080 1.000000;00:02:57.520=0 -43 1920 1080 1.000000;00:02:57.640=0 0 1920 1080 1.000000</property>
    <property name="rotation">00:02:57.280=0;00:02:57.520=0;00:02:57.640=0</property>
    <property name="compositing">0</property>
    <property name="distort">0</property>
    <property name="kdenlive:collapsed">0</property>
   </filter>
  </entry>
  <entry producer="producer628" in="00:00:00.000" out="00:00:00.720">
   <property name="kdenlive:id">231</property>
   <filter id="filter984">
    <property name="rotate_center">1</property>
    <property name="mlt_service">qtblend</property>
    <property name="kdenlive_id">qtblend</property>
    <property name="rect">00:00:00.000=0 0 1920 1080 1.000000;00:00:00.720=-543 -305 3007 1691 1.000000</property>
    <property name="rotation">00:00:00.000=0;00:00:00.720=0</property>
    <property name="compositing">0</property>
    <property name="distort">0</property>
    <property name="kdenlive:collapsed">0</property>
   </filter>
   <filter id="filter985" in="00:00:-0.040" out="00:00:00.720">
    <property name="start">1</property>
    <property name="level">1</property>
    <property name="mlt_service">brightness</property>
    <property name="kdenlive_id">fade_to_black</property>
    <property name="alpha">00:00:00.000=1;00:00:00.760=0</property>
    <property name="kdenlive:collapsed">0</property>
   </filter>
  </entry>
  <blank length="00:01:33.320"/>
  <entry producer="producer357" in="00:00:00.000" out="00:00:07.200">
   <property name="kdenlive:id">453</property>
   <filter id="filter986">
    <property name="rotate_center">1</property>
    <property name="mlt_service">qtblend</property>
    <property name="kdenlive_id">qtblend</property>
    <property name="rect">00:00:00.000=1430 535 19 10 1.000000;00:00:00.240=816 189 1248 702 1.000000;00:00:00.360=864 216 1152 648 1.000000;00:00:01.320~=864 252 1152 648 1.000000;00:00:02.280~=864 183 1152 648 1.000000;00:00:03.240~=864 263 1152 648 1.000000;00:00:04.200~=864 190 1152 648 1.000000;00:00:05.160~=864 251 1152 648 1.000000;00:00:06.120~=864 197 1152 648 1.000000;00:00:06.840=864 227 1152 648 1.000000;00:00:06.960=816 205 1248 702 1.000000;00:00:07.200=1430 560 19 10 1.000000</property>
    <property name="rotation">00:00:00.000=0;00:00:00.240=0;00:00:00.360=0;00:00:01.320~=0;00:00:02.280~=0;00:00:03.240~=0;00:00:04.200~=0;00:00:05.160~=0;00:00:06.120~=0;00:00:06.840=0;00:00:06.960=0;00:00:07.200=0</property>
    <property name="compositing">0</property>
    <property name="distort">0</property>
    <property name="kdenlive:collapsed">0</property>
   </filter>
  </entry>
  <blank length="00:00:15.480"/>
  <entry producer="producer393" in="00:00:00.000" out="00:00:05.240">
   <property name="kdenlive:id">487</property>
   <filter id="filter987">
    <property name="rotate_center">1</property>
    <property name="mlt_service">qtblend</property>
    <property name="kdenlive_id">qtblend</property>
    <property name="rect">00:00:00.000=0 1080 1920 1080 1.000000;00:00:00.240=0 -49 1920 1080 1.000000;00:00:00.360=0 0 1920 1080 1.000000;00:00:04.880=0 0 1920 1080 1.000000;00:00:05.000=0 0 1920 1080 1.000000;00:00:05.240=0 0 1920 1080 1.000000</property>
    <property name="rotation">00:00:00.000=0;00:00:00.240=0;00:00:00.360=0;00:00:04.880=0;00:00:05.000=0;00:00:05.240=0</property>
    <property name="compositing">0</property>
    <property name="distort">0</property>
    <property name="kdenlive:collapsed">0</property>
   </filter>
  </entry>
  <blank length="00:00:10.320"/>
  <entry producer="chain320" in="00:00:10.040" out="00:00:15.840">
   <property name="kdenlive:id">490</property>
   <filter id="filter988">
    <property name="rotate_center">1</property>
    <property name="mlt_service">qtblend</property>
    <property name="kdenlive_id">qtblend</property>
    <property name="rect">00:00:10.040=0 1080 1920 1080 1.000000;00:00:10.280=0 -37 1920 1080 1.000000;00:00:10.400=0 0 1920 1080 1.000000;00:00:15.480=0 0 1920 1080 1.000000;00:00:15.600=0 42 1920 1080 1.000000;00:00:15.840=0 -1080 1920 1080 1.000000</property>
    <property name="rotation">00:00:10.040=0;00:00:10.280=0;00:00:10.400=0;00:00:15.480=0;00:00:15.600=0;00:00:15.840=0</property>
    <property name="compositing">0</property>
    <property name="distort">0</property>
    <property name="kdenlive:collapsed">0</property>
   </filter>
  </entry>
  <blank length="00:00:09.240"/>
  <entry producer="chain295" in="00:04:27.440" out="00:04:27.800">
   <property name="kdenlive:id">387</property>
   <filter id="filter989">
    <property name="rotate_center">1</property>
    <property name="mlt_service">qtblend</property>
    <property name="kdenlive_id">qtblend</property>
    <property name="rect">00:04:27.440=321 180 1278 719 1.000000</property>
    <property name="rotation">00:04:27.440=0</property>
    <property name="compositing">0</property>
    <property name="distort">0</property>
    <property name="kdenlive:collapsed">1</property>
   </filter>
   <filter id="filter990">
    <property name="rotate_center">1</property>
    <property name="mlt_service">qtblend</property>
    <property name="kdenlive_id">qtblend</property>
    <property name="rect">00:04:27.440=0 0 1920 1080 1.000000;00:04:27.560=0 44 1920 1080 1.000000;00:04:27.800=0 -1080 1920 1080 1.000000</property>
    <property name="rotation">00:04:27.440=0;00:04:27.560=0;00:04:27.800=0</property>
    <property name="compositing">0</property>
    <property name="distort">0</property>
    <property name="kdenlive:collapsed">0</property>
   </filter>
  </entry>
  <blank length="00:00:14.200"/>
  <entry producer="chain321" in="00:00:50.600" out="00:00:55.520">
   <property name="kdenlive:id">493</property>
   <property name="kdenlive:activeeffect">1</property>
   <filter id="filter991">
    <property name="rotate_center">1</property>
    <property name="mlt_service">qtblend</property>
    <property name="kdenlive_id">qtblend</property>
    <property name="rect">00:00:50.600=321 180 1278 719 1.000000</property>
    <property name="rotation">00:00:50.600=0</property>
    <property name="compositing">0</property>
    <property name="distort">0</property>
    <property name="kdenlive:collapsed">1</property>
   </filter>
   <filter id="filter992">
    <property name="rotate_center">1</property>
    <property name="mlt_service">qtblend</property>
    <property name="kdenlive_id">qtblend</property>
    <property name="rect">00:00:50.600=0 1080 1920 1080 1.000000;00:00:50.840=0 -41 1920 1080 1.000000;00:00:50.960=0 0 1920 1080 1.000000;00:00:55.160=0 0 1920 1080 1.000000;00:00:55.280=0 47 1920 1080 1.000000;00:00:55.520=0 -1080 1920 1080 1.000000;00:01:04.960=0 0 1920 1080 1.000000;00:01:05.080=0 0 1920 1080 1.000000;00:01:05.320=0 0 1920 1080 1.000000</property>
    <property name="rotation">00:00:50.600=0;00:00:50.840=0;00:00:50.960=0;00:00:55.160=0;00:00:55.280=0;00:00:55.520=0;00:01:04.960=0;00:01:05.080=0;00:01:05.320=0</property>
    <property name="compositing">0</property>
    <property name="distort">0</property>
    <property name="kdenlive:collapsed">0</property>
   </filter>
  </entry>
  <blank length="00:00:08.680"/>
  <entry producer="chain319" in="00:02:57.280" out="00:03:02.520">
   <property name="kdenlive:id">478</property>
   <filter id="filter993">
    <property name="rotate_center">1</property>
    <property name="mlt_service">qtblend</property>
    <property name="kdenlive_id">qtblend</property>
    <property name="rect">00:02:57.280=321 180 1278 719 1.000000</property>
    <property name="rotation">00:02:57.280=0</property>
    <property name="compositing">0</property>
    <property name="distort">0</property>
    <property name="kdenlive:collapsed">1</property>
   </filter>
   <filter id="filter994">
    <property name="rotate_center">1</property>
    <property name="mlt_service">qtblend</property>
    <property name="kdenlive_id">qtblend</property>
    <property name="rect">00:02:57.280=0 1080 1920 1080 1.000000;00:02:57.520=0 -43 1920 1080 1.000000;00:02:57.640=0 0 1920 1080 1.000000;00:03:02.160=0 0 1920 1080 1.000000;00:03:02.280=0 37 1920 1080 1.000000;00:03:02.520=0 -1080 1920 1080 1.000000</property>
    <property name="rotation">00:02:57.280=0;00:02:57.520=0;00:02:57.640=0;00:03:02.160=0;00:03:02.280=0;00:03:02.520=0</property>
    <property name="compositing">0</property>
    <property name="distort">0</property>
    <property name="kdenlive:collapsed">0</property>
   </filter>
  </entry>
  <blank length="00:00:10.640"/>
  <entry producer="producer236" in="00:00:00.000" out="00:00:00.280">
   <property name="kdenlive:id">260</property>
   <filter id="filter995">
    <property name="rotate_center">1</property>
    <property name="mlt_service">qtblend</property>
    <property name="kdenlive_id">qtblend</property>
    <property name="rect">00:00:00.000=540 162 1344 756 1.000000</property>
    <property name="rotation">00:00:00.000=0</property>
    <property name="compositing">0</property>
    <property name="distort">0</property>
    <property name="kdenlive:collapsed">1</property>
   </filter>
   <filter id="filter996">
    <property name="rotate_center">1</property>
    <property name="mlt_service">qtblend</property>
    <property name="kdenlive_id">qtblend</property>
    <property name="rect">00:00:00.000=0 0 1920 1080 1.000000;00:00:00.040=0 4 1920 1080 1.000000;00:00:00.080=0 -5 1920 1080 1.000000;00:00:00.120=0 -9 1920 1080 1.000000;00:00:00.160=0 6 1920 1080 1.000000;00:00:00.200=0 -10 1920 1080 1.000000;00:00:00.240=0 15 1920 1080 1.000000;00:00:00.280=0 -20 1920 1080 1.000000</property>
    <property name="rotation">00:00:00.000=0;00:00:00.040=0;00:00:00.080=0;00:00:00.120=0;00:00:00.160=0;00:00:00.200=0;00:00:00.240=0;00:00:00.280=0</property>
    <property name="compositing">0</property>
    <property name="distort">0</property>
    <property name="kdenlive:collapsed">1</property>
   </filter>
   <filter id="filter997">
    <property name="hradius">00:00:00.000=0;00:00:00.280=0</property>
    <property name="vradius">00:00:00.000=0;00:00:00.280=65</property>
    <property name="mlt_service">box_blur</property>
    <property name="kdenlive_id">box_blur</property>
    <property name="kdenlive:collapsed">0</property>
   </filter>
   <filter id="filter998" in="00:00:00.120" out="00:00:00.280">
    <property name="start">1</property>
    <property name="level">1</property>
    <property name="mlt_service">brightness</property>
    <property name="kdenlive_id">fade_to_black</property>
    <property name="alpha">00:00:00.000=1;00:00:00.160=0</property>
    <property name="kdenlive:collapsed">0</property>
   </filter>
  </entry>
  <entry producer="producer237" in="00:00:00.000" out="00:00:01.840">
   <property name="kdenlive:id">262</property>
   <filter id="filter999">
    <property name="rotate_center">1</property>
    <property name="mlt_service">qtblend</property>
    <property name="kdenlive_id">qtblend</property>
    <property name="rect">00:00:00.000=540 162 1344 756 1.000000</property>
    <property name="rotation">00:00:00.000=0</property>
    <property name="compositing">0</property>
    <property name="distort">0</property>
    <property name="kdenlive:collapsed">1</property>
   </filter>
   <filter id="filter1000">
    <property name="rotate_center">1</property>
    <property name="mlt_service">qtblend</property>
    <property name="kdenlive_id">qtblend</property>
    <property name="rect">00:00:00.000=0 0 1920 1080 1.000000;00:00:01.840=0 0 1920 1080 1.000000</property>
    <property name="rotation">00:00:00.000=0;00:00:01.840=0</property>
    <property name="compositing">0</property>
    <property name="distort">0</property>
    <property name="kdenlive:collapsed">0</property>
   </filter>
  </entry>
  <entry producer="producer237" in="00:00:00.000" out="00:00:00.360">
   <property name="kdenlive:id">262</property>
   <filter id="filter1001">
    <property name="rotate_center">1</property>
    <property name="mlt_service">qtblend</property>
    <property name="kdenlive_id">qtblend</property>
    <property name="rect">00:00:00.000=540 162 1344 756 1.000000</property>
    <property name="rotation">00:00:00.000=0</property>
    <property name="compositing">0</property>
    <property name="distort">0</property>
    <property name="kdenlive:collapsed">1</property>
   </filter>
   <filter id="filter1002">
    <property name="rotate_center">1</property>
    <property name="mlt_service">qtblend</property>
    <property name="kdenlive_id">qtblend</property>
    <property name="rect">00:00:00.000=0 0 1920 1080 1.000000;00:00:00.120=0 61 1920 1080 1.000000;00:00:00.360=0 -1071 1920 1080 1.000000</property>
    <property name="rotation">00:00:00.000=0;00:00:00.120=0;00:00:00.360=0</property>
    <property name="compositing">0</property>
    <property name="distort">0</property>
    <property name="kdenlive:collapsed">0</property>
   </filter>
  </entry>
  <blank length="00:00:47.160"/>
  <entry producer="producer394" in="00:00:00.000" out="00:00:04.920">
   <property name="kdenlive:id">499</property>
   <filter id="filter1003">
    <property name="rotate_center">1</property>
    <property name="mlt_service">qtblend</property>
    <property name="kdenlive_id">qtblend</property>
    <property name="rect">00:00:00.000=950 535 19 10 1.000000;00:00:00.240=192 108 1536 864 1.000000;00:00:00.360=240 135 1440 810 1.000000;00:00:04.560=144 81 1632 918 1.000000;00:00:04.680=96 54 1728 972 1.000000;00:00:04.920=950 535 19 10 1.000000</property>
    <property name="rotation">00:00:00.000=0;00:00:00.240=0;00:00:00.360=0;00:00:04.560=0;00:00:04.680=0;00:00:04.920=0</property>
    <property name="compositing">0</property>
    <property name="distort">0</property>
    <property name="kdenlive:collapsed">0</property>
   </filter>
  </entry>
  <blank length="00:00:01.320"/>
  <entry producer="producer395" in="00:00:00.000" out="00:00:07.200">
   <property name="kdenlive:id">501</property>
   <filter id="filter1004">
    <property name="rotate_center">1</property>
    <property name="mlt_service">qtblend</property>
    <property name="kdenlive_id">qtblend</property>
    <property name="rect">00:00:00.000=336 189 1248 702 1.000000</property>
    <property name="rotation">00:00:00.000=0</property>
    <property name="compositing">0</property>
    <property name="distort">0</property>
    <property name="kdenlive:collapsed">0</property>
   </filter>
   <filter id="filter1005">
    <property name="rotate_center">1</property>
    <property name="mlt_service">qtblend</property>
    <property name="kdenlive_id">qtblend</property>
    <property name="rect">00:00:00.000=1430 535 19 10 1.000000;00:00:00.240=816 189 1248 702 1.000000;00:00:00.360=864 216 1152 648 1.000000;00:00:01.320~=864 252 1152 648 1.000000;00:00:02.280~=864 183 1152 648 1.000000;00:00:03.240~=864 263 1152 648 1.000000;00:00:04.200~=864 190 1152 648 1.000000;00:00:05.160~=864 251 1152 648 1.000000;00:00:06.120~=864 197 1152 648 1.000000;00:00:06.840=864 227 1152 648 1.000000;00:00:06.960=816 205 1248 702 1.000000;00:00:07.200=1430 560 19 10 1.000000</property>
    <property name="rotation">00:00:00.000=0;00:00:00.240=0;00:00:00.360=0;00:00:01.320~=0;00:00:02.280~=0;00:00:03.240~=0;00:00:04.200~=0;00:00:05.160~=0;00:00:06.120~=0;00:00:06.840=0;00:00:06.960=0;00:00:07.200=0</property>
    <property name="compositing">0</property>
    <property name="distort">0</property>
    <property name="kdenlive:collapsed">1</property>
   </filter>
  </entry>
  <blank length="00:00:00.480"/>
  <entry producer="producer628" in="00:00:00.000" out="00:00:04.880">
   <property name="kdenlive:id">231</property>
   <filter id="filter1006">
    <property name="rotate_center">1</property>
    <property name="mlt_service">qtblend</property>
    <property name="kdenlive_id">qtblend</property>
    <property name="rect">00:00:00.000=950 535 19 10 1.000000;00:00:00.240=-48 -27 2016 1134 1.000000;00:00:00.360=0 0 1920 1080 1.000000;00:00:04.520=-96 -54 2112 1188 1.000000;00:00:04.640=-143 -80 2207 1241 1.000000;00:00:04.880=950 535 19 10 1.000000</property>
    <property name="rotation">00:00:00.000=0;00:00:00.240=0;00:00:00.360=0;00:00:04.520=0;00:00:04.640=0;00:00:04.880=0</property>
    <property name="compositing">0</property>
    <property name="distort">0</property>
    <property name="kdenlive:collapsed">0</property>
   </filter>
  </entry>
  <blank length="00:00:04.560"/>
  <entry producer="chain322" in="00:03:43.880" out="00:03:59.920">
   <property name="kdenlive:id">504</property>
   <property name="kdenlive:activeeffect">1</property>
   <filter id="filter1007">
    <property name="rotate_center">1</property>
    <property name="mlt_service">qtblend</property>
    <property name="kdenlive_id">qtblend</property>
    <property name="rect">00:03:43.880=321 180 1278 719 1.000000</property>
    <property name="rotation">00:03:43.880=0</property>
    <property name="compositing">0</property>
    <property name="distort">0</property>
    <property name="kdenlive:collapsed">1</property>
   </filter>
   <filter id="filter1008">
    <property name="rotate_center">1</property>
    <property name="mlt_service">qtblend</property>
    <property name="kdenlive_id">qtblend</property>
    <property name="rect">00:03:43.880=950 535 19 10 1.000000;00:03:44.120=-48 -27 2016 1134 1.000000;00:03:44.240=0 0 1920 1080 1.000000;00:03:59.560=0 0 1920 1080 1.000000;00:03:59.680=0 36 1920 1080 1.000000;00:03:59.920=0 -1080 1920 1080 1.000000</property>
    <property name="rotation">00:03:43.880=0;00:03:44.120=0;00:03:44.240=0;00:03:59.560=0;00:03:59.680=0;00:03:59.920=0</property>
    <property name="compositing">0</property>
    <property name="distort">0</property>
    <property name="kdenlive:collapsed">0</property>
   </filter>
  </entry>
  <blank length="00:00:09.240"/>
  <entry producer="chain323" in="00:01:09.800" out="00:01:23.200">
   <property name="kdenlive:id">507</property>
   <property name="kdenlive:activeeffect">1</property>
   <filter id="filter1009">
    <property name="rotate_center">1</property>
    <property name="mlt_service">qtblend</property>
    <property name="kdenlive_id">qtblend</property>
    <property name="rect">00:01:09.800=321 180 1278 719 1.000000</property>
    <property name="rotation">00:01:09.800=0</property>
    <property name="compositing">0</property>
    <property name="distort">0</property>
    <property name="kdenlive:collapsed">1</property>
   </filter>
   <filter id="filter1010">
    <property name="rotate_center">1</property>
    <property name="mlt_service">qtblend</property>
    <property name="kdenlive_id">qtblend</property>
    <property name="rect">00:01:09.800=0 1080 1920 1080 1.000000;00:01:10.040=0 -45 1920 1080 1.000000;00:01:10.160=0 0 1920 1080 1.000000;00:01:22.840=0 0 1920 1080 1.000000;00:01:22.960=0 59 1920 1080 1.000000;00:01:23.200=0 -1080 1920 1080 1.000000</property>
    <property name="rotation">00:01:09.800=0;00:01:10.040=0;00:01:10.160=0;00:01:22.840=0;00:01:22.960=0;00:01:23.200=0</property>
    <property name="compositing">0</property>
    <property name="distort">0</property>
    <property name="kdenlive:collapsed">0</property>
   </filter>
  </entry>
  <blank length="00:00:13.840"/>
  <entry producer="chain324" in="00:01:21.760" out="00:01:38.840">
   <property name="kdenlive:id">512</property>
   <property name="kdenlive:activeeffect">1</property>
   <filter id="filter1011">
    <property name="rotate_center">1</property>
    <property name="mlt_service">qtblend</property>
    <property name="kdenlive_id">qtblend</property>
    <property name="rect">00:01:21.760=321 180 1278 719 1.000000</property>
    <property name="rotation">00:01:21.760=0</property>
    <property name="compositing">0</property>
    <property name="distort">0</property>
    <property name="kdenlive:collapsed">1</property>
   </filter>
   <filter id="filter1012">
    <property name="rotate_center">1</property>
    <property name="mlt_service">qtblend</property>
    <property name="kdenlive_id">qtblend</property>
    <property name="rect">00:01:21.760=0 1080 1920 1080 1.000000;00:01:22.000=0 -45 1920 1080 1.000000;00:01:22.120=0 0 1920 1080 1.000000;00:01:38.480=0 0 1920 1080 1.000000;00:01:38.600=0 51 1920 1080 1.000000;00:01:38.840=0 -1080 1920 1080 1.000000</property>
    <property name="rotation">00:01:21.760=0;00:01:22.000=0;00:01:22.120=0;00:01:38.480=0;00:01:38.600=0;00:01:38.840=0</property>
    <property name="compositing">0</property>
    <property name="distort">0</property>
    <property name="kdenlive:collapsed">0</property>
   </filter>
  </entry>
  <blank length="00:00:13.800"/>
  <entry producer="chain325" in="00:01:25.200" out="00:01:33.240">
   <property name="kdenlive:id">518</property>
   <property name="kdenlive:activeeffect">1</property>
   <filter id="filter1013">
    <property name="rotate_center">1</property>
    <property name="mlt_service">qtblend</property>
    <property name="kdenlive_id">qtblend</property>
    <property name="rect">00:01:25.200=321 180 1278 719 1.000000</property>
    <property name="rotation">00:01:25.200=0</property>
    <property name="compositing">0</property>
    <property name="distort">0</property>
    <property name="kdenlive:collapsed">1</property>
   </filter>
   <filter id="filter1014">
    <property name="rotate_center">1</property>
    <property name="mlt_service">qtblend</property>
    <property name="kdenlive_id">qtblend</property>
    <property name="rect">00:01:25.200=0 1080 1920 1080 1.000000;00:01:25.440=0 -45 1920 1080 1.000000;00:01:25.560=0 0 1920 1080 1.000000;00:01:32.880=0 0 1920 1080 1.000000;00:01:33.000=-48 -27 2016 1134 1.000000;00:01:33.240=950 535 19 10 1.000000</property>
    <property name="rotation">00:01:25.200=0;00:01:25.440=0;00:01:25.560=0;00:01:32.880=0;00:01:33.000=0;00:01:33.240=0</property>
    <property name="compositing">0</property>
    <property name="distort">0</property>
    <property name="kdenlive:collapsed">0</property>
   </filter>
  </entry>
  <blank length="00:00:38.240"/>
  <entry producer="producer390" in="00:00:00.000" out="00:00:02.680">
   <property name="kdenlive:id">248</property>
   <filter id="filter1015">
    <property name="rotate_center">1</property>
    <property name="mlt_service">qtblend</property>
    <property name="kdenlive_id">qtblend</property>
    <property name="rect">00:00:00.000=519 229 19 10 1.000000;00:00:00.240=334 125 389 219 1.000000;00:00:00.360=381 152 295 165 1.000000</property>
    <property name="rotation">00:00:00.000=0;00:00:00.240=0;00:00:00.360=0</property>
    <property name="compositing">0</property>
    <property name="distort">0</property>
    <property name="kdenlive:collapsed">0</property>
   </filter>
  </entry>
  <blank length="00:00:26.880"/>
  <entry producer="chain326" in="00:00:49.800" out="00:01:03.400">
   <property name="kdenlive:id">525</property>
   <property name="kdenlive:activeeffect">1</property>
   <filter id="filter1016">
    <property name="rotate_center">1</property>
    <property name="mlt_service">qtblend</property>
    <property name="kdenlive_id">qtblend</property>
    <property name="rect">00:00:49.800=321 180 1278 719 1.000000</property>
    <property name="rotation">00:00:49.800=0</property>
    <property name="compositing">0</property>
    <property name="distort">0</property>
    <property name="kdenlive:collapsed">1</property>
   </filter>
   <filter id="filter1017">
    <property name="rotate_center">1</property>
    <property name="mlt_service">qtblend</property>
    <property name="kdenlive_id">qtblend</property>
    <property name="rect">00:00:49.800=0 1080 1920 1080 1.000000;00:00:50.040=0 -44 1920 1080 1.000000;00:00:50.160=0 0 1920 1080 1.000000;00:01:03.040=0 0 1920 1080 1.000000;00:01:03.160=0 62 1920 1080 1.000000;00:01:03.400=0 -1080 1920 1080 1.000000</property>
    <property name="rotation">00:00:49.800=0;00:00:50.040=0;00:00:50.160=0;00:01:03.040=0;00:01:03.160=0;00:01:03.400=0</property>
    <property name="compositing">0</property>
    <property name="distort">0</property>
    <property name="kdenlive:collapsed">0</property>
   </filter>
  </entry>
  <blank length="00:00:02.400"/>
  <entry producer="producer638" in="00:00:00.000" out="00:00:04.360">
   <property name="kdenlive:id">528</property>
  </entry>
  <entry producer="producer638" in="00:00:15.560" out="00:00:19.680">
   <property name="kdenlive:id">528</property>
  </entry>
  <blank length="00:00:09.320"/>
  <entry producer="producer397" in="00:00:00.000" out="00:00:00.440">
   <property name="kdenlive:id">533</property>
   <property name="kdenlive:activeeffect">1</property>
   <filter id="filter1018">
    <property name="rotate_center">1</property>
    <property name="mlt_service">qtblend</property>
    <property name="kdenlive_id">qtblend</property>
    <property name="rect">00:00:00.000=144 81 1632 918 1.000000</property>
    <property name="rotation">00:00:00.000=0</property>
    <property name="compositing">0</property>
    <property name="distort">0</property>
    <property name="kdenlive:collapsed">1</property>
   </filter>
   <filter id="filter1019">
    <property name="rotate_center">1</property>
    <property name="mlt_service">qtblend</property>
    <property name="kdenlive_id">qtblend</property>
    <property name="rect">00:00:00.000=48 1080 1824 1026 1.000000;00:00:00.280=48 27 1824 1026 1.000000;00:00:00.440=0 0 1920 1080 1.000000</property>
    <property name="rotation">00:00:00.000=0;00:00:00.280=0;00:00:00.440=0</property>
    <property name="compositing">0</property>
    <property name="distort">0</property>
    <property name="kdenlive:collapsed">0</property>
   </filter>
  </entry>
  <entry producer="producer397" in="00:00:00.000" out="00:00:07.600">
   <property name="kdenlive:id">533</property>
   <filter id="filter1020">
    <property name="rotate_center">1</property>
    <property name="mlt_service">qtblend</property>
    <property name="kdenlive_id">qtblend</property>
    <property name="rect">00:00:00.000=144 81 1632 918 1.000000</property>
    <property name="rotation">00:00:00.000=0</property>
    <property name="compositing">0</property>
    <property name="distort">0</property>
    <property name="kdenlive:collapsed">1</property>
   </filter>
  </entry>
  <entry producer="producer397" in="00:00:00.000" out="00:00:00.440">
   <property name="kdenlive:id">533</property>
   <filter id="filter1021">
    <property name="rotate_center">1</property>
    <property name="mlt_service">qtblend</property>
    <property name="kdenlive_id">qtblend</property>
    <property name="rect">00:00:00.000=144 81 1632 918 1.000000</property>
    <property name="rotation">00:00:00.000=0</property>
    <property name="compositing">0</property>
    <property name="distort">0</property>
    <property name="kdenlive:collapsed">1</property>
   </filter>
   <filter id="filter1022">
    <property name="rotate_center">1</property>
    <property name="mlt_service">qtblend</property>
    <property name="kdenlive_id">qtblend</property>
    <property name="rect">00:00:00.000=0 0 1920 1080 1.000000;00:00:00.160=48 27 1824 1026 1.000000;00:00:00.440=48 -1080 1824 1026 1.000000</property>
    <property name="rotation">00:00:00.000=0;00:00:00.160=0;00:00:00.440=0</property>
    <property name="compositing">0</property>
    <property name="distort">0</property>
    <property name="kdenlive:collapsed">1</property>
   </filter>
  </entry>
  <entry producer="producer398" in="00:00:00.000" out="00:00:00.440">
   <property name="kdenlive:id">540</property>
   <filter id="filter1023">
    <property name="rotate_center">1</property>
    <property name="mlt_service">qtblend</property>
    <property name="kdenlive_id">qtblend</property>
    <property name="rect">00:00:00.000=144 81 1632 918 1.000000</property>
    <property name="rotation">00:00:00.000=0</property>
    <property name="compositing">0</property>
    <property name="distort">0</property>
    <property name="kdenlive:collapsed">1</property>
   </filter>
   <filter id="filter1024">
    <property name="rotate_center">1</property>
    <property name="mlt_service">qtblend</property>
    <property name="kdenlive_id">qtblend</property>
    <property name="rect">00:00:00.000=48 1080 1824 1026 1.000000;00:00:00.280=48 27 1824 1026 1.000000;00:00:00.440=0 0 1920 1080 1.000000</property>
    <property name="rotation">00:00:00.000=0;00:00:00.280=0;00:00:00.440=0</property>
    <property name="compositing">0</property>
    <property name="distort">0</property>
   </filter>
  </entry>
  <entry producer="producer398" in="00:00:00.000" out="00:00:11.840">
   <property name="kdenlive:id">540</property>
   <filter id="filter1025">
    <property name="rotate_center">1</property>
    <property name="mlt_service">qtblend</property>
    <property name="kdenlive_id">qtblend</property>
    <property name="rect">00:00:00.000=144 81 1632 918 1.000000</property>
    <property name="rotation">00:00:00.000=0</property>
    <property name="compositing">0</property>
    <property name="distort">0</property>
    <property name="kdenlive:collapsed">1</property>
   </filter>
  </entry>
  <entry producer="producer398" in="00:00:00.000" out="00:00:00.440">
   <property name="kdenlive:id">540</property>
   <filter id="filter1026">
    <property name="rotate_center">1</property>
    <property name="mlt_service">qtblend</property>
    <property name="kdenlive_id">qtblend</property>
    <property name="rect">00:00:00.000=144 81 1632 918 1.000000</property>
    <property name="rotation">00:00:00.000=0</property>
    <property name="compositing">0</property>
    <property name="distort">0</property>
    <property name="kdenlive:collapsed">1</property>
   </filter>
   <filter id="filter1027">
    <property name="rotate_center">1</property>
    <property name="mlt_service">qtblend</property>
    <property name="kdenlive_id">qtblend</property>
    <property name="rect">00:00:00.000=0 0 1920 1080 1.000000;00:00:00.160=48 27 1824 1026 1.000000;00:00:00.440=48 -1080 1824 1026 1.000000</property>
    <property name="rotation">00:00:00.000=0;00:00:00.160=0;00:00:00.440=0</property>
    <property name="compositing">0</property>
    <property name="distort">0</property>
    <property name="kdenlive:collapsed">1</property>
   </filter>
  </entry>
  <entry producer="producer399" in="00:00:00.000" out="00:00:00.440">
   <property name="kdenlive:id">544</property>
   <filter id="filter1028">
    <property name="rotate_center">1</property>
    <property name="mlt_service">qtblend</property>
    <property name="kdenlive_id">qtblend</property>
    <property name="rect">00:00:00.000=144 81 1632 918 1.000000</property>
    <property name="rotation">00:00:00.000=0</property>
    <property name="compositing">0</property>
    <property name="distort">0</property>
    <property name="kdenlive:collapsed">1</property>
   </filter>
   <filter id="filter1029">
    <property name="rotate_center">1</property>
    <property name="mlt_service">qtblend</property>
    <property name="kdenlive_id">qtblend</property>
    <property name="rect">00:00:00.000=48 1080 1824 1026 1.000000;00:00:00.280=48 27 1824 1026 1.000000;00:00:00.440=0 0 1920 1080 1.000000</property>
    <property name="rotation">00:00:00.000=0;00:00:00.280=0;00:00:00.440=0</property>
    <property name="compositing">0</property>
    <property name="distort">0</property>
   </filter>
  </entry>
  <entry producer="producer399" in="00:00:00.000" out="00:00:04.720">
   <property name="kdenlive:id">544</property>
   <filter id="filter1030">
    <property name="rotate_center">1</property>
    <property name="mlt_service">qtblend</property>
    <property name="kdenlive_id">qtblend</property>
    <property name="rect">00:00:00.000=144 81 1632 918 1.000000</property>
    <property name="rotation">00:00:00.000=0</property>
    <property name="compositing">0</property>
    <property name="distort">0</property>
    <property name="kdenlive:collapsed">1</property>
   </filter>
  </entry>
  <entry producer="producer399" in="00:00:00.000" out="00:00:00.440">
   <property name="kdenlive:id">544</property>
   <filter id="filter1031">
    <property name="rotate_center">1</property>
    <property name="mlt_service">qtblend</property>
    <property name="kdenlive_id">qtblend</property>
    <property name="rect">00:00:00.000=144 81 1632 918 1.000000</property>
    <property name="rotation">00:00:00.000=0</property>
    <property name="compositing">0</property>
    <property name="distort">0</property>
    <property name="kdenlive:collapsed">1</property>
   </filter>
   <filter id="filter1032">
    <property name="rotate_center">1</property>
    <property name="mlt_service">qtblend</property>
    <property name="kdenlive_id">qtblend</property>
    <property name="rect">00:00:00.000=0 0 1920 1080 1.000000;00:00:00.160=48 27 1824 1026 1.000000;00:00:00.440=48 -1080 1824 1026 1.000000</property>
    <property name="rotation">00:00:00.000=0;00:00:00.160=0;00:00:00.440=0</property>
    <property name="compositing">0</property>
    <property name="distort">0</property>
    <property name="kdenlive:collapsed">1</property>
   </filter>
  </entry>
  <blank length="00:00:06.880"/>
  <entry producer="producer400" in="00:00:00.000" out="00:00:23.880">
   <property name="kdenlive:id">545</property>
   <filter id="filter1033">
    <property name="rotate_center">1</property>
    <property name="mlt_service">qtblend</property>
    <property name="kdenlive_id">qtblend</property>
    <property name="rect">00:00:00.000=863 0 1920 1080 1.000000;00:00:00.240=-60 0 1920 1080 1.000000;00:00:00.360=0 0 1920 1080 1.000000;00:00:23.520=0 0 1920 1080 1.000000;00:00:23.640=-58 -27 2016 1134 1.000000;00:00:23.880=1555 383 19 10 1.000000</property>
    <property name="rotation">00:00:00.000=0;00:00:00.240=0;00:00:00.360=0;00:00:23.520=0;00:00:23.640=0;00:00:23.880=0</property>
    <property name="compositing">0</property>
    <property name="distort">0</property>
    <property name="kdenlive:collapsed">0</property>
   </filter>
  </entry>
  <blank length="00:00:55.200"/>
  <entry producer="producer401" in="00:00:00.000" out="00:00:02.760">
   <property name="kdenlive:id">184</property>
   <filter id="filter1034">
    <property name="rotate_center">1</property>
    <property name="mlt_service">qtblend</property>
    <property name="kdenlive_id">qtblend</property>
    <property name="rect">00:00:00.000=48 1080 1824 1026 1.000000;00:00:00.240=48 -18 1824 1026 1.000000;00:00:00.360=48 27 1824 1026 1.000000;00:00:02.400=48 27 1824 1026 1.000000;00:00:02.520=48 64 1824 1026 1.000000;00:00:02.760=48 -1080 1824 1026 1.000000</property>
    <property name="rotation">00:00:00.000=0;00:00:00.240=0;00:00:00.360=0;00:00:02.400=0;00:00:02.520=0;00:00:02.760=0</property>
    <property name="compositing">0</property>
    <property name="distort">0</property>
    <property name="kdenlive:collapsed">0</property>
   </filter>
  </entry>
  <blank length="00:00:03.960"/>
  <entry producer="producer402" in="00:00:00.000" out="00:00:29.880">
   <property name="kdenlive:id">177</property>
   <property name="kdenlive:activeeffect">1</property>
   <filter id="filter1035">
    <property name="rotate_center">1</property>
    <property name="mlt_service">qtblend</property>
    <property name="kdenlive_id">qtblend</property>
    <property name="rect">00:00:00.000=192 108 1536 864 1.000000</property>
    <property name="rotation">00:00:00.000=0</property>
    <property name="compositing">0</property>
    <property name="distort">0</property>
    <property name="kdenlive:collapsed">1</property>
   </filter>
   <filter id="filter1036">
    <property name="rotate_center">1</property>
    <property name="mlt_service">qtblend</property>
    <property name="kdenlive_id">qtblend</property>
    <property name="rect">00:00:00.000=0 1080 1920 1080 1.000000;00:00:00.240=0 -50 1920 1080 1.000000;00:00:00.360=0 0 1920 1080 1.000000;00:00:29.520=0 0 1920 1080 1.000000;00:00:29.640=0 55 1920 1080 1.000000;00:00:29.880=0 -1080 1920 1080 1.000000</property>
    <property name="rotation">00:00:00.000=0;00:00:00.240=0;00:00:00.360=0;00:00:29.520=0;00:00:29.640=0;00:00:29.880=0</property>
    <property name="compositing">0</property>
    <property name="distort">0</property>
    <property name="kdenlive:collapsed">0</property>
   </filter>
  </entry>
  <blank length="00:00:15.960"/>
  <entry producer="chain327" in="00:00:12.760" out="00:00:14.280">
   <property name="kdenlive:id">551</property>
   <property name="kdenlive:activeeffect">1</property>
   <filter id="filter1037">
    <property name="rotate_center">1</property>
    <property name="mlt_service">qtblend</property>
    <property name="kdenlive_id">qtblend</property>
    <property name="rect">00:00:12.760=321 180 1278 719 1.000000</property>
    <property name="rotation">00:00:12.760=0</property>
    <property name="compositing">0</property>
    <property name="distort">0</property>
    <property name="kdenlive:collapsed">1</property>
   </filter>
   <filter id="filter1038">
    <property name="rotate_center">1</property>
    <property name="mlt_service">qtblend</property>
    <property name="kdenlive_id">qtblend</property>
    <property name="rect">00:00:12.760=0 1080 1920 1080 1.000000;00:00:13.000=0 -52 1920 1080 1.000000;00:00:13.120=0 0 1920 1080 1.000000</property>
    <property name="rotation">00:00:12.760=0;00:00:13.000=0;00:00:13.120=0</property>
    <property name="compositing">0</property>
    <property name="distort">0</property>
    <property name="kdenlive:collapsed">0</property>
   </filter>
  </entry>
  <entry producer="chain327" in="00:00:14.320" out="00:00:37.360">
   <property name="kdenlive:id">551</property>
   <filter id="filter1039">
    <property name="rotate_center">1</property>
    <property name="mlt_service">qtblend</property>
    <property name="kdenlive_id">qtblend</property>
    <property name="rect">00:00:14.320=321 180 1278 719 1.000000;00:00:14.680=-96 -54 2112 1188 1.000000</property>
    <property name="rotation">00:00:14.320=0;00:00:14.680=0</property>
    <property name="compositing">0</property>
    <property name="distort">0</property>
    <property name="kdenlive:collapsed">1</property>
   </filter>
   <filter id="filter1040">
    <property name="hradius">00:00:14.320=1;00:00:14.680=60</property>
    <property name="vradius">00:00:14.320=1;00:00:14.680=60</property>
    <property name="mlt_service">box_blur</property>
    <property name="kdenlive_id">box_blur</property>
    <property name="kdenlive:collapsed">0</property>
   </filter>
   <filter id="filter1041">
    <property name="start">1</property>
    <property name="level">00:00:14.320=1;00:00:14.680=0.63</property>
    <property name="mlt_service">brightness</property>
    <property name="kdenlive_id">brightness</property>
    <property name="kdenlive:collapsed">0</property>
   </filter>
   <filter id="filter1042" in="00:00:36.480" out="00:00:37.360">
    <property name="start">1</property>
    <property name="level">1</property>
    <property name="mlt_service">brightness</property>
    <property name="kdenlive_id">fade_to_black</property>
    <property name="alpha">00:00:00.000=1;00:00:00.880=0</property>
   </filter>
  </entry>
  <entry producer="producer628" in="00:00:00.000" out="00:00:02.160">
   <property name="kdenlive:id">231</property>
   <filter id="filter1043">
    <property name="rotate_center">1</property>
    <property name="mlt_service">qtblend</property>
    <property name="kdenlive_id">qtblend</property>
    <property name="rect">00:00:00.000=0 1080 1920 1080 1.000000;00:00:00.240=0 -52 1920 1080 1.000000;00:00:00.360=0 0 1920 1080 1.000000;00:00:01.800=0 0 1920 1080 1.000000;00:00:01.920=0 63 1920 1080 1.000000;00:00:02.160=0 -1080 1920 1080 1.000000</property>
    <property name="rotation">00:00:00.000=0;00:00:00.240=0;00:00:00.360=0;00:00:01.800=0;00:00:01.920=0;00:00:02.160=0</property>
    <property name="compositing">0</property>
    <property name="distort">0</property>
    <property name="kdenlive:collapsed">0</property>
   </filter>
  </entry>
  <blank length="00:00:17.240"/>
  <entry producer="producer162" in="00:00:00.000" out="00:00:10.120">
   <property name="kdenlive:id">183</property>
   <filter id="filter1044">
    <property name="rotate_center">1</property>
    <property name="mlt_service">qtblend</property>
    <property name="kdenlive_id">qtblend</property>
    <property name="rect">00:00:00.000=240 135 1440 810 1.000000;00:00:10.120=192 108 1536 864 1.000000</property>
    <property name="rotation">00:00:00.000=0;00:00:10.120=0</property>
    <property name="compositing">0</property>
    <property name="distort">0</property>
    <property name="kdenlive:collapsed">1</property>
   </filter>
   <filter id="filter1045">
    <property name="rotate_center">1</property>
    <property name="mlt_service">qtblend</property>
    <property name="kdenlive_id">qtblend</property>
    <property name="rect">00:00:00.000=950 535 19 10 1.000000;00:00:00.240=-48 -27 2016 1134 1.000000;00:00:00.360=0 0 1920 1080 1.000000;00:00:09.760=0 48 1920 1080 1.000000;00:00:09.880=0 60 1920 1080 1.000000;00:00:10.120=0 -1080 1920 1080 1.000000</property>
    <property name="rotation">00:00:00.000=0;00:00:00.240=0;00:00:00.360=0;00:00:09.760=0;00:00:09.880=0;00:00:10.120=0</property>
    <property name="compositing">0</property>
    <property name="distort">0</property>
    <property name="kdenlive:collapsed">0</property>
   </filter>
  </entry>
  <blank length="00:00:27.040"/>
  <entry producer="chain328" in="00:00:15.000" out="00:00:49.840">
   <property name="kdenlive:id">357</property>
   <filter id="filter1046">
    <property name="rotate_center">1</property>
    <property name="mlt_service">qtblend</property>
    <property name="kdenlive_id">qtblend</property>
    <property name="rect">00:00:15.000=-371 -285 2668 1500 1.000000</property>
    <property name="rotation">00:00:15.000=0</property>
    <property name="compositing">0</property>
    <property name="distort">0</property>
    <property name="kdenlive:collapsed">1</property>
   </filter>
   <filter id="filter1047">
    <property name="mlt_service">avfilter.zoompan</property>
    <property name="kdenlive_id">avfilter.zoompan</property>
    <property name="av.z">1</property>
    <property name="av.x">0</property>
    <property name="av.y">0</property>
    <property name="av.d">1</property>
    <property name="kdenlive:collapsed">1</property>
   </filter>
   <filter id="filter1048">
    <property name="rotate_center">1</property>
    <property name="mlt_service">qtblend</property>
    <property name="kdenlive_id">qtblend</property>
    <property name="rect">00:00:15.000=-432 -243 2784 1566 1.000000</property>
    <property name="rotation">00:00:15.000=0</property>
    <property name="compositing">0</property>
    <property name="distort">0</property>
    <property name="kdenlive:collapsed">0</property>
   </filter>
   <filter id="filter1049">
    <property name="hradius">00:00:15.000=40</property>
    <property name="vradius">00:00:15.000=40</property>
    <property name="mlt_service">box_blur</property>
    <property name="kdenlive_id">box_blur</property>
    <property name="kdenlive:collapsed">0</property>
   </filter>
  </entry>
  <blank length="00:00:05.880"/>
  <entry producer="producer11" in="00:00:00.000" out="00:00:07.080">
   <property name="kdenlive:id">26</property>
   <property name="kdenlive:activeeffect">1</property>
   <filter id="filter1050">
    <property name="rotate_center">1</property>
    <property name="mlt_service">qtblend</property>
    <property name="kdenlive_id">qtblend</property>
    <property name="rect">00:00:00.000=192 108 1536 864 1.000000</property>
    <property name="rotation">00:00:00.000=0</property>
    <property name="compositing">0</property>
    <property name="distort">0</property>
    <property name="kdenlive:collapsed">1</property>
   </filter>
   <filter id="filter1051">
    <property name="rotate_center">1</property>
    <property name="mlt_service">qtblend</property>
    <property name="kdenlive_id">qtblend</property>
    <property name="rect">00:00:00.000=0 1080 1920 1080 1.000000;00:00:00.240=0 -47 1920 1080 1.000000;00:00:00.360=0 0 1920 1080 1.000000</property>
    <property name="rotation">00:00:00.000=0;00:00:00.240=0;00:00:00.360=0</property>
    <property name="compositing">0</property>
    <property name="distort">0</property>
    <property name="kdenlive:collapsed">0</property>
   </filter>
  </entry>
  <blank length="00:00:02.840"/>
  <entry producer="chain329" in="00:00:00.000" out="00:00:24.000">
   <property name="kdenlive:id">565</property>
   <property name="kdenlive:activeeffect">1</property>
   <filter id="filter1052" out="00:00:01.240">
    <property name="start">1</property>
    <property name="level">1</property>
    <property name="mlt_service">brightness</property>
    <property name="kdenlive_id">fade_from_black</property>
    <property name="alpha">00:00:00.000=0;00:00:01.240=1</property>
    <property name="kdenlive:collapsed">0</property>
   </filter>
   <filter id="filter1053">
    <property name="rotate_center">1</property>
    <property name="mlt_service">qtblend</property>
    <property name="kdenlive_id">qtblend</property>
    <property name="rect">00:00:00.000=0 0 1920 1080 1.000000;00:00:23.600=0 0 1920 1080 1.000000;00:00:24.000=0 -1080 1920 1080 1.000000</property>
    <property name="rotation">00:00:00.000=0;00:00:23.600=0;00:00:24.000=0</property>
    <property name="compositing">0</property>
    <property name="distort">0</property>
    <property name="kdenlive:collapsed">0</property>
   </filter>
  </entry>
  <blank length="00:00:01.080"/>
  <entry producer="producer639" in="00:00:00.000" out="00:00:05.240">
   <property name="kdenlive:id">569</property>
  </entry>
  <entry producer="producer639" in="00:00:15.720" out="00:00:19.680">
   <property name="kdenlive:id">569</property>
  </entry>
  <blank length="00:00:05.720"/>
  <entry producer="producer417" in="00:00:00.000" out="00:00:14.400">
   <property name="kdenlive:id">570</property>
   <filter id="filter1054">
    <property name="rotate_center">1</property>
    <property name="mlt_service">qtblend</property>
    <property name="kdenlive_id">qtblend</property>
    <property name="rect">00:00:00.000=0 0 1920 1080 1.000000;00:00:14.400=-96 -54 2112 1188 1.000000</property>
    <property name="rotation">00:00:00.000=0;00:00:14.400=0</property>
    <property name="compositing">0</property>
    <property name="distort">0</property>
    <property name="kdenlive:collapsed">0</property>
   </filter>
   <filter id="filter1055">
    <property name="rotate_center">1</property>
    <property name="mlt_service">qtblend</property>
    <property name="kdenlive_id">qtblend</property>
    <property name="rect">00:00:00.000=0 1080 1920 1080 1.000000;00:00:00.240=0 -36 1920 1080 1.000000;00:00:00.360=0 0 1920 1080 1.000000</property>
    <property name="rotation">00:00:00.000=0;00:00:00.240=0;00:00:00.360=0</property>
    <property name="compositing">0</property>
    <property name="distort">0</property>
    <property name="kdenlive:collapsed">1</property>
   </filter>
   <filter id="filter1056" in="00:00:13.520" out="00:00:14.400">
    <property name="start">1</property>
    <property name="level">1</property>
    <property name="mlt_service">brightness</property>
    <property name="kdenlive_id">fade_to_black</property>
    <property name="alpha">00:00:00.000=1;00:00:00.880=0</property>
    <property name="kdenlive:collapsed">0</property>
   </filter>
  </entry>
  <blank length="00:00:46.280"/>
  <entry producer="chain330" in="00:00:00.000" out="00:00:09.160">
   <property name="kdenlive:id">584</property>
   <property name="kdenlive:activeeffect">2</property>
   <filter id="filter1057">
    <property name="mlt_service">crop</property>
    <property name="kdenlive_id">crop</property>
    <property name="top">57</property>
    <property name="left">216</property>
    <property name="bottom">57</property>
    <property name="right">216</property>
    <property name="center">0</property>
    <property name="center_bias">0</property>
    <property name="use_profile">1</property>
    <property name="kdenlive:collapsed">1</property>
   </filter>
   <filter id="filter1058">
    <property name="rotate_center">1</property>
    <property name="mlt_service">qtblend</property>
    <property name="kdenlive_id">qtblend</property>
    <property name="rect">00:00:00.000=320 180 1279 719 1.000000</property>
    <property name="rotation">00:00:00.000=0</property>
    <property name="compositing">0</property>
    <property name="distort">0</property>
    <property name="kdenlive:collapsed">1</property>
   </filter>
   <filter id="filter1059">
    <property name="rotate_center">1</property>
    <property name="mlt_service">qtblend</property>
    <property name="kdenlive_id">qtblend</property>
    <property name="rect">00:00:00.000=0 1080 1920 1080 1.000000;00:00:00.240=0 -61 1920 1080 1.000000;00:00:00.360=0 0 1920 1080 1.000000;00:00:08.800=0 0 1920 1080 1.000000;00:00:08.920=-96 -54 2112 1188 1.000000;00:00:09.160=950 535 19 10 1.000000</property>
    <property name="rotation">00:00:00.000=0;00:00:00.240=0;00:00:00.360=0;00:00:08.800=0;00:00:08.920=0;00:00:09.160=0</property>
    <property name="compositing">0</property>
    <property name="distort">0</property>
    <property name="kdenlive:collapsed">0</property>
   </filter>
  </entry>
  <blank length="00:00:00.160"/>
  <entry producer="producer418" in="00:00:00.000" out="00:00:06.400">
   <property name="kdenlive:id">574</property>
   <property name="kdenlive:activeeffect">1</property>
   <filter id="filter1060">
    <property name="rotate_center">1</property>
    <property name="mlt_service">qtblend</property>
    <property name="kdenlive_id">qtblend</property>
    <property name="rect">00:00:00.000=144 81 1632 918 1.000000</property>
    <property name="rotation">00:00:00.000=0</property>
    <property name="compositing">0</property>
    <property name="distort">0</property>
    <property name="kdenlive:collapsed">1</property>
   </filter>
   <filter id="filter1061">
    <property name="rotate_center">1</property>
    <property name="mlt_service">qtblend</property>
    <property name="kdenlive_id">qtblend</property>
    <property name="rect">00:00:00.000=420 1080 1920 1080 1.000000;00:00:00.240=420 -69 1920 1080 1.000000;00:00:00.360=420 0 1920 1080 1.000000;00:00:06.040=420 0 1920 1080 1.000000;00:00:06.160=372 -27 2016 1134 1.000000;00:00:06.400=1370 534 19 10 1.000000</property>
    <property name="rotation">00:00:00.000=0;00:00:00.240=0;00:00:00.360=0;00:00:06.040=0;00:00:06.160=0;00:00:06.400=0</property>
    <property name="compositing">0</property>
    <property name="distort">0</property>
    <property name="kdenlive:collapsed">0</property>
   </filter>
  </entry>
  <blank length="00:00:45.320"/>
  <entry producer="producer91" in="00:00:00.000" out="00:00:16.720">
   <property name="kdenlive:id">105</property>
   <filter id="filter1062">
    <property name="rotate_center">1</property>
    <property name="mlt_service">qtblend</property>
    <property name="kdenlive_id">qtblend</property>
    <property name="rect">00:00:00.000=192 108 1536 864 1.000000;00:00:16.720=96 54 1728 972 1.000000</property>
    <property name="rotation">00:00:00.000=0;00:00:16.720=0</property>
    <property name="compositing">0</property>
    <property name="distort">0</property>
    <property name="kdenlive:collapsed">0</property>
   </filter>
   <filter id="filter1063">
    <property name="rotate_center">1</property>
    <property name="mlt_service">qtblend</property>
    <property name="kdenlive_id">qtblend</property>
    <property name="rect">00:00:00.000=0 1080 1920 1080 1.000000;00:00:00.240=0 -58 1920 1080 1.000000;00:00:00.360=0 0 1920 1080 1.000000;00:00:16.360=0 0 1920 1080 1.000000;00:00:16.480=0 62 1920 1080 1.000000;00:00:16.720=0 -1080 1920 1080 1.000000</property>
    <property name="rotation">00:00:00.000=0;00:00:00.240=0;00:00:00.360=0;00:00:16.360=0;00:00:16.480=0;00:00:16.720=0</property>
    <property name="compositing">0</property>
    <property name="distort">0</property>
    <property name="kdenlive:collapsed">1</property>
   </filter>
   <filter id="filter1064">
    <property name="hradius">00:00:00.000=0;00:00:09.480=0;00:00:10.440=30;00:00:14.760=30;00:00:15.640=0</property>
    <property name="vradius">00:00:00.000=0;00:00:09.480=0;00:00:10.440=30;00:00:14.760=30;00:00:15.640=0</property>
    <property name="mlt_service">box_blur</property>
    <property name="kdenlive_id">box_blur</property>
    <property name="kdenlive:collapsed">0</property>
   </filter>
  </entry>
  <blank length="00:00:02.520"/>
  <entry producer="producer91" in="00:00:00.000" out="00:00:11.200">
   <property name="kdenlive:id">105</property>
   <filter id="filter1065">
    <property name="rotate_center">1</property>
    <property name="mlt_service">qtblend</property>
    <property name="kdenlive_id">qtblend</property>
    <property name="rect">00:00:00.000=192 108 1536 864 1.000000;00:00:11.200=144 81 1632 918 1.000000</property>
    <property name="rotation">00:00:00.000=0;00:00:11.200=0</property>
    <property name="compositing">0</property>
    <property name="distort">0</property>
    <property name="kdenlive:collapsed">0</property>
   </filter>
   <filter id="filter1066">
    <property name="rotate_center">1</property>
    <property name="mlt_service">qtblend</property>
    <property name="kdenlive_id">qtblend</property>
    <property name="rect">00:00:00.000=0 1080 1920 1080 1.000000;00:00:00.240=0 -58 1920 1080 1.000000;00:00:00.360=0 0 1920 1080 1.000000;00:00:10.840=0 0 1920 1080 1.000000;00:00:10.960=0 60 1920 1080 1.000000;00:00:11.200=0 -1080 1920 1080 1.000000</property>
    <property name="rotation">00:00:00.000=0;00:00:00.240=0;00:00:00.360=0;00:00:10.840=0;00:00:10.960=0;00:00:11.200=0</property>
    <property name="compositing">0</property>
    <property name="distort">0</property>
    <property name="kdenlive:collapsed">0</property>
   </filter>
  </entry>
  <blank length="00:00:07.760"/>
  <entry producer="producer172" in="00:00:00.000" out="00:00:24.720">
   <property name="kdenlive:id">194</property>
   <property name="kdenlive:activeeffect">1</property>
   <filter id="filter1067">
    <property name="rotate_center">1</property>
    <property name="mlt_service">qtblend</property>
    <property name="kdenlive_id">qtblend</property>
    <property name="rect">00:00:00.000=288 162 1344 756 1.000000;00:00:24.720=192 108 1536 864 1.000000</property>
    <property name="rotation">00:00:00.000=0;00:00:24.720=0</property>
    <property name="compositing">0</property>
    <property name="distort">0</property>
    <property name="kdenlive:collapsed">1</property>
   </filter>
   <filter id="filter1068">
    <property name="rotate_center">1</property>
    <property name="mlt_service">qtblend</property>
    <property name="kdenlive_id">qtblend</property>
    <property name="rect">00:00:00.000=0 1080 1920 1080 1.000000;00:00:00.240=0 -51 1920 1080 1.000000;00:00:00.360=0 0 1920 1080 1.000000;00:00:24.360=0 0 1920 1080 1.000000;00:00:24.480=0 67 1920 1080 1.000000;00:00:24.720=0 -1080 1920 1080 1.000000</property>
    <property name="rotation">00:00:00.000=0;00:00:00.240=0;00:00:00.360=0;00:00:24.360=0;00:00:24.480=0;00:00:24.720=0</property>
    <property name="compositing">0</property>
    <property name="distort">0</property>
    <property name="kdenlive:collapsed">0</property>
   </filter>
  </entry>
  <blank length="00:00:39.040"/>
  <entry producer="producer419" in="00:00:00.000" out="00:00:19.080">
   <property name="kdenlive:id">581</property>
   <filter id="filter1069">
    <property name="rotate_center">1</property>
    <property name="mlt_service">qtblend</property>
    <property name="kdenlive_id">qtblend</property>
    <property name="rect">00:00:00.000=192 108 1536 864 1.000000;00:00:19.080=144 81 1632 918 1.000000</property>
    <property name="rotation">00:00:00.000=0;00:00:19.080=0</property>
    <property name="compositing">0</property>
    <property name="distort">0</property>
    <property name="kdenlive:collapsed">0</property>
   </filter>
   <filter id="filter1070">
    <property name="rotate_center">1</property>
    <property name="mlt_service">qtblend</property>
    <property name="kdenlive_id">qtblend</property>
    <property name="rect">00:00:00.000=0 1080 1920 1080 1.000000;00:00:00.240=0 -82 1920 1080 1.000000;00:00:00.360=0 0 1920 1080 1.000000;00:00:18.720=0 0 1920 1080 1.000000;00:00:18.840=-96 -54 2112 1188 1.000000;00:00:19.080=950 535 19 10 1.000000</property>
    <property name="rotation">00:00:00.000=0;00:00:00.240=0;00:00:00.360=0;00:00:18.720=0;00:00:18.840=0;00:00:19.080=0</property>
    <property name="compositing">0</property>
    <property name="distort">0</property>
    <property name="kdenlive:collapsed">0</property>
   </filter>
  </entry>
  <blank length="00:00:11.560"/>
  <entry producer="chain331" in="00:14:06.800" out="00:14:13.600">
   <property name="kdenlive:id">583</property>
   <property name="kdenlive:activeeffect">1</property>
   <filter id="filter1071">
    <property name="rotate_center">1</property>
    <property name="mlt_service">qtblend</property>
    <property name="kdenlive_id">qtblend</property>
    <property name="rect">00:14:06.800=320 180 1279 719 1.000000</property>
    <property name="rotation">00:14:06.800=0</property>
    <property name="compositing">0</property>
    <property name="distort">0</property>
    <property name="kdenlive:collapsed">1</property>
   </filter>
   <filter id="filter1072">
    <property name="rotate_center">1</property>
    <property name="mlt_service">qtblend</property>
    <property name="kdenlive_id">qtblend</property>
    <property name="rect">00:14:06.800=0 1080 1920 1080 1.000000;00:14:07.040=0 -77 1920 1080 1.000000;00:14:07.160=0 0 1920 1080 1.000000;00:14:13.240=0 0 1920 1080 1.000000;00:14:13.360=0 66 1920 1080 1.000000;00:14:13.600=0 -1080 1920 1080 1.000000</property>
    <property name="rotation">00:14:06.800=0;00:14:07.040=0;00:14:07.160=0;00:14:13.240=0;00:14:13.360=0;00:14:13.600=0</property>
    <property name="compositing">0</property>
    <property name="distort">0</property>
    <property name="kdenlive:collapsed">0</property>
   </filter>
  </entry>
  <blank length="00:00:45.640"/>
  <entry producer="chain332" in="00:04:53.760" out="00:05:03.960">
   <property name="kdenlive:id">590</property>
   <property name="kdenlive:activeeffect">1</property>
   <filter id="filter1073">
    <property name="rotate_center">1</property>
    <property name="mlt_service">qtblend</property>
    <property name="kdenlive_id">qtblend</property>
    <property name="rect">00:04:53.760=321 180 1278 719 1.000000</property>
    <property name="rotation">00:04:53.760=0</property>
    <property name="compositing">0</property>
    <property name="distort">0</property>
    <property name="kdenlive:collapsed">1</property>
   </filter>
   <filter id="filter1074">
    <property name="rotate_center">1</property>
    <property name="mlt_service">qtblend</property>
    <property name="kdenlive_id">qtblend</property>
    <property name="rect">00:04:53.760=0 1080 1920 1080 1.000000;00:04:54.000=0 -56 1920 1080 1.000000;00:04:54.120=0 0 1920 1080 1.000000;00:05:03.600=0 0 1920 1080 1.000000;00:05:03.720=0 59 1920 1080 1.000000;00:05:03.960=0 -1080 1920 1080 1.000000</property>
    <property name="rotation">00:04:53.760=0;00:04:54.000=0;00:04:54.120=0;00:05:03.600=0;00:05:03.720=0;00:05:03.960=0</property>
    <property name="compositing">0</property>
    <property name="distort">0</property>
    <property name="kdenlive:collapsed">0</property>
   </filter>
  </entry>
  <blank length="00:00:04.480"/>
  <entry producer="chain333" in="00:00:00.000" out="00:00:05.040">
   <property name="kdenlive:id">594</property>
   <filter id="filter1075">
    <property name="rotate_center">1</property>
    <property name="mlt_service">qtblend</property>
    <property name="kdenlive_id">qtblend</property>
    <property name="rect">00:00:00.000=320 180 1279 719 1.000000</property>
    <property name="rotation">00:00:00.000=0</property>
    <property name="compositing">0</property>
    <property name="distort">0</property>
    <property name="kdenlive:collapsed">0</property>
   </filter>
   <filter id="filter1076">
    <property name="rotate_center">1</property>
    <property name="mlt_service">qtblend</property>
    <property name="kdenlive_id">qtblend</property>
    <property name="rect">00:00:00.000=0 1080 1920 1080 1.000000;00:00:00.240=0 -56 1920 1080 1.000000;00:00:00.360=0 0 1920 1080 1.000000</property>
    <property name="rotation">00:00:00.000=0;00:00:00.240=0;00:00:00.360=0</property>
    <property name="compositing">0</property>
    <property name="distort">0</property>
    <property name="kdenlive:collapsed">0</property>
   </filter>
  </entry>
  <blank length="00:00:00.440"/>
  <entry producer="chain334" in="00:02:25.840" out="00:02:26.480">
   <property name="kdenlive:id">597</property>
   <filter id="filter1077">
    <property name="rotate_center">1</property>
    <property name="mlt_service">qtblend</property>
    <property name="kdenlive_id">qtblend</property>
    <property name="rect">00:02:25.840=320 180 1279 719 1.000000</property>
    <property name="rotation">00:02:25.840=0</property>
    <property name="compositing">0</property>
    <property name="distort">0</property>
    <property name="kdenlive:collapsed">0</property>
   </filter>
  </entry>
  <blank length="00:00:32.920"/>
  <entry producer="chain339" in="00:02:33.280" out="00:02:39.000">
   <property name="kdenlive:id">602</property>
   <property name="kdenlive:activeeffect">1</property>
   <filter id="filter1078">
    <property name="rotate_center">1</property>
    <property name="mlt_service">qtblend</property>
    <property name="kdenlive_id">qtblend</property>
    <property name="rect">00:02:33.280=320 180 1279 719 1.000000</property>
    <property name="rotation">00:02:33.280=0</property>
    <property name="compositing">0</property>
    <property name="distort">0</property>
    <property name="kdenlive:collapsed">1</property>
   </filter>
   <filter id="filter1079">
    <property name="rotate_center">1</property>
    <property name="mlt_service">qtblend</property>
    <property name="kdenlive_id">qtblend</property>
    <property name="rect">00:02:33.280=0 1080 1920 1080 1.000000;00:02:33.520=0 -53 1920 1080 1.000000;00:02:33.640=0 0 1920 1080 1.000000;00:02:38.640=0 0 1920 1080 1.000000;00:02:38.760=0 59 1920 1080 1.000000;00:02:39.000=0 -1080 1920 1080 1.000000</property>
    <property name="rotation">00:02:33.280=0;00:02:33.520=0;00:02:33.640=0;00:02:38.640=0;00:02:38.760=0;00:02:39.000=0</property>
    <property name="compositing">0</property>
    <property name="distort">0</property>
    <property name="kdenlive:collapsed">0</property>
   </filter>
  </entry>
  <blank length="00:00:04.480"/>
  <entry producer="chain286" in="00:00:00.000" out="00:00:03.560">
   <property name="kdenlive:id">219</property>
   <filter id="filter1080">
    <property name="rotate_center">1</property>
    <property name="mlt_service">qtblend</property>
    <property name="kdenlive_id">qtblend</property>
    <property name="rect">00:00:00.000=0 0 1920 1080 1.000000;00:00:03.200=0 0 1920 1080 1.000000;00:00:03.320=0 60 1920 1080 1.000000;00:00:03.560=0 -1080 1920 1080 1.000000</property>
    <property name="rotation">00:00:00.000=0;00:00:03.200=0;00:00:03.320=0;00:00:03.560=0</property>
    <property name="compositing">0</property>
    <property name="distort">0</property>
    <property name="kdenlive:collapsed">0</property>
   </filter>
  </entry>
  <blank length="00:00:05.080"/>
  <entry producer="chain354" in="00:00:00.000" out="00:00:20.200">
   <property name="kdenlive:id">604</property>
   <property name="kdenlive:activeeffect">1</property>
   <filter id="filter1081">
    <property name="rotate_center">1</property>
    <property name="mlt_service">qtblend</property>
    <property name="kdenlive_id">qtblend</property>
    <property name="rect">00:00:00.000=320 180 1279 719 1.000000</property>
    <property name="rotation">00:00:00.000=0</property>
    <property name="compositing">0</property>
    <property name="distort">0</property>
    <property name="kdenlive:collapsed">1</property>
   </filter>
   <filter id="filter1082">
    <property name="rotate_center">1</property>
    <property name="mlt_service">qtblend</property>
    <property name="kdenlive_id">qtblend</property>
    <property name="rect">00:00:00.000=0 1080 1920 1080 1.000000;00:00:00.240=0 -62 1920 1080 1.000000;00:00:00.360=0 0 1920 1080 1.000000;00:00:19.840=0 0 1920 1080 1.000000;00:00:19.960=0 66 1920 1080 1.000000;00:00:20.200=0 -1080 1920 1080 1.000000</property>
    <property name="rotation">00:00:00.000=0;00:00:00.240=0;00:00:00.360=0;00:00:19.840=0;00:00:19.960=0;00:00:20.200=0</property>
    <property name="compositing">0</property>
    <property name="distort">0</property>
    <property name="kdenlive:collapsed">0</property>
   </filter>
  </entry>
  <blank length="00:00:03.760"/>
  <entry producer="producer466" in="00:00:00.000" out="00:00:08.920">
   <property name="kdenlive:id">607</property>
   <filter id="filter1083">
    <property name="rotate_center">1</property>
    <property name="mlt_service">qtblend</property>
    <property name="kdenlive_id">qtblend</property>
    <property name="rect">00:00:00.000=0 1080 1920 1080 1.000000;00:00:00.240=0 -84 1920 1080 1.000000;00:00:00.360=0 0 1920 1080 1.000000;00:00:08.560=0 0 1920 1080 1.000000;00:00:08.680=-96 -54 2112 1188 1.000000;00:00:08.920=950 535 19 10 1.000000</property>
    <property name="rotation">00:00:00.000=0;00:00:00.240=0;00:00:00.360=0;00:00:08.560=0;00:00:08.680=0;00:00:08.920=0</property>
    <property name="compositing">0</property>
    <property name="distort">0</property>
    <property name="kdenlive:collapsed">0</property>
   </filter>
  </entry>
  <blank length="00:00:15.000"/>
  <entry producer="chain356" in="00:00:00.000" out="00:00:11.200">
   <property name="kdenlive:id">608</property>
   <property name="kdenlive:activeeffect">1</property>
   <filter id="filter1084">
    <property name="rotate_center">1</property>
    <property name="mlt_service">qtblend</property>
    <property name="kdenlive_id">qtblend</property>
    <property name="rect">00:00:00.000=320 180 1279 719 1.000000</property>
    <property name="rotation">00:00:00.000=0</property>
    <property name="compositing">0</property>
    <property name="distort">0</property>
    <property name="kdenlive:collapsed">1</property>
   </filter>
   <filter id="filter1085">
    <property name="rotate_center">1</property>
    <property name="mlt_service">qtblend</property>
    <property name="kdenlive_id">qtblend</property>
    <property name="rect">00:00:00.000=0 1080 1920 1080 1.000000;00:00:00.240=0 -70 1920 1080 1.000000;00:00:00.360=0 0 1920 1080 1.000000;00:00:10.840=0 0 1920 1080 1.000000;00:00:10.960=0 70 1920 1080 1.000000;00:00:11.200=0 -1080 1920 1080 1.000000</property>
    <property name="rotation">00:00:00.000=0;00:00:00.240=0;00:00:00.360=0;00:00:10.840=0;00:00:10.960=0;00:00:11.200=0</property>
    <property name="compositing">0</property>
    <property name="distort">0</property>
    <property name="kdenlive:collapsed">0</property>
   </filter>
  </entry>
  <blank length="00:00:05.040"/>
  <entry producer="producer473" in="00:00:00.000" out="00:00:04.920">
   <property name="kdenlive:id">612</property>
   <filter id="filter1086">
    <property name="rotate_center">1</property>
    <property name="mlt_service">qtblend</property>
    <property name="kdenlive_id">qtblend</property>
    <property name="rect">00:00:00.000=288 162 1344 756 1.000000;00:00:04.920=192 108 1536 864 1.000000</property>
    <property name="rotation">00:00:00.000=0;00:00:04.920=0</property>
    <property name="compositing">0</property>
    <property name="distort">0</property>
    <property name="kdenlive:collapsed">0</property>
   </filter>
   <filter id="filter1087">
    <property name="rotate_center">1</property>
    <property name="mlt_service">qtblend</property>
    <property name="kdenlive_id">qtblend</property>
    <property name="rect">00:00:00.000=950 535 19 10 1.000000;00:00:00.240=-96 -54 2112 1188 1.000000;00:00:00.360=0 0 1920 1080 1.000000;00:00:04.560=0 0 1920 1080 1.000000;00:00:04.680=-96 -54 2112 1188 1.000000;00:00:04.920=950 535 19 10 1.000000</property>
    <property name="rotation">00:00:00.000=0;00:00:00.240=0;00:00:00.360=0;00:00:04.560=0;00:00:04.680=0;00:00:04.920=0</property>
    <property name="compositing">0</property>
    <property name="distort">0</property>
    <property name="kdenlive:collapsed">0</property>
   </filter>
  </entry>
  <entry producer="producer474" in="00:00:00.000" out="00:00:35.320">
   <property name="kdenlive:id">614</property>
   <filter id="filter1088" out="00:00:00.600">
    <property name="start">1</property>
    <property name="level">1</property>
    <property name="mlt_service">brightness</property>
    <property name="kdenlive_id">fade_from_black</property>
    <property name="alpha">00:00:00.000=0;00:00:00.600=1</property>
   </filter>
   <filter id="filter1089" in="00:00:34.720" out="00:00:35.320">
    <property name="start">1</property>
    <property name="level">1</property>
    <property name="mlt_service">brightness</property>
    <property name="kdenlive_id">fade_to_black</property>
    <property name="alpha">00:00:00.000=1;00:00:00.600=0</property>
   </filter>
  </entry>
  <entry producer="chain357" in="00:00:17.600" out="00:00:31.480">
   <property name="kdenlive:id">617</property>
   <filter id="filter1090">
    <property name="rotate_center">1</property>
    <property name="mlt_service">qtblend</property>
    <property name="kdenlive_id">qtblend</property>
    <property name="rect">00:00:17.600=953 526 19 10 1.000000;00:00:17.840=-521 -548 2968 1669 1.000000;00:00:17.960=-426 -467 2778 1562 1.000000;00:00:25.840=-426 -467 2778 1562 1.000000;00:00:26.320=-1758 -1212 5445 3063 1.000000</property>
    <property name="rotation">00:00:17.600=0;00:00:17.840=0;00:00:17.960=0;00:00:25.840=0;00:00:26.320=0</property>
    <property name="compositing">0</property>
    <property name="distort">0</property>
    <property name="kdenlive:collapsed">0</property>
   </filter>
   <filter id="filter1091">
    <property name="start">1</property>
    <property name="level">00:00:17.600=1;00:00:25.840=1;00:00:26.320=0.63</property>
    <property name="mlt_service">brightness</property>
    <property name="kdenlive_id">brightness</property>
    <property name="kdenlive:collapsed">0</property>
   </filter>
   <filter id="filter1092">
    <property name="hradius">00:00:17.600=0;00:00:25.840=0;00:00:26.320=60</property>
    <property name="vradius">00:00:17.600=0;00:00:25.840=0;00:00:26.320=60</property>
    <property name="mlt_service">box_blur</property>
    <property name="kdenlive_id">box_blur</property>
    <property name="kdenlive:collapsed">0</property>
   </filter>
   <filter id="filter1093" in="00:00:30.640" out="00:00:31.480">
    <property name="start">1</property>
    <property name="level">1</property>
    <property name="mlt_service">brightness</property>
    <property name="kdenlive_id">fade_to_black</property>
    <property name="alpha">00:00:00.000=1;00:00:00.840=0</property>
    <property name="kdenlive:collapsed">0</property>
   </filter>
  </entry>
  <blank length="00:00:29.280"/>
  <entry producer="producer477" in="00:00:00.000" out="00:00:02.400">
   <property name="kdenlive:id">624</property>
   <filter id="filter1094">
    <property name="rotate_center">1</property>
    <property name="mlt_service">qtblend</property>
    <property name="kdenlive_id">qtblend</property>
    <property name="rect">00:00:00.000=1270 535 19 10 1.000000;00:00:00.240=512 108 1536 864 1.000000;00:00:00.360=560 135 1440 810 1.000000;00:00:02.040=560 135 1440 810 1.000000;00:00:02.160=512 108 1536 864 1.000000;00:00:02.400=1270 535 19 10 1.000000</property>
    <property name="rotation">00:00:00.000=0;00:00:00.240=0;00:00:00.360=0;00:00:02.040=0;00:00:02.160=0;00:00:02.400=0</property>
    <property name="compositing">0</property>
    <property name="distort">0</property>
    <property name="kdenlive:collapsed">0</property>
   </filter>
  </entry>
  <blank length="00:00:00.320"/>
  <entry producer="producer478" in="00:00:00.000" out="00:00:01.880">
   <property name="kdenlive:id">620</property>
   <filter id="filter1095">
    <property name="rotate_center">1</property>
    <property name="mlt_service">qtblend</property>
    <property name="kdenlive_id">qtblend</property>
    <property name="rect">00:00:00.000=950 534 19 10 1.000000;00:00:00.240=144 81 1632 918 1.000000;00:00:00.360=192 108 1536 864 1.000000;00:00:01.520=192 108 1536 864 1.000000;00:00:01.640=192 204 1536 864 1.000000;00:00:01.880=192 -987 1536 864 1.000000</property>
    <property name="rotation">00:00:00.000=0;00:00:00.240=0;00:00:00.360=0;00:00:01.520=0;00:00:01.640=0;00:00:01.880=0</property>
    <property name="compositing">0</property>
    <property name="distort">0</property>
    <property name="kdenlive:collapsed">0</property>
   </filter>
  </entry>
  <blank length="00:00:03.320"/>
  <entry producer="producer390" in="00:00:00.000" out="00:00:07.600">
   <property name="kdenlive:id">248</property>
   <filter id="filter1096">
    <property name="rotate_center">1</property>
    <property name="mlt_service">qtblend</property>
    <property name="kdenlive_id">qtblend</property>
    <property name="rect">00:00:00.000=1362 745 19 10 1.000000;00:00:00.240=1041 564 663 373 1.000000;00:00:00.360=1088 591 568 319 1.000000;00:00:07.240=1088 591 568 319 1.000000;00:00:07.360=1041 564 663 373 1.000000;00:00:07.600=1362 745 19 10 1.000000</property>
    <property name="rotation">00:00:00.000=0;00:00:00.240=0;00:00:00.360=0;00:00:07.240=0;00:00:07.360=0;00:00:07.600=0</property>
    <property name="compositing">0</property>
    <property name="distort">0</property>
    <property name="kdenlive:collapsed">0</property>
   </filter>
  </entry>
  <blank length="00:00:34.560"/>
  <entry producer="chain332" in="00:04:53.760" out="00:04:55.960">
   <property name="kdenlive:id">590</property>
   <filter id="filter1097">
    <property name="rotate_center">1</property>
    <property name="mlt_service">qtblend</property>
    <property name="kdenlive_id">qtblend</property>
    <property name="rect">00:04:53.760=321 180 1278 719 1.000000</property>
    <property name="rotation">00:04:53.760=0</property>
    <property name="compositing">0</property>
    <property name="distort">0</property>
    <property name="kdenlive:collapsed">1</property>
   </filter>
   <filter id="filter1098">
    <property name="rotate_center">1</property>
    <property name="mlt_service">qtblend</property>
    <property name="kdenlive_id">qtblend</property>
    <property name="rect">00:04:53.760=0 1080 1920 1080 1.000000;00:04:54.000=0 -56 1920 1080 1.000000;00:04:54.120=0 0 1920 1080 1.000000;00:04:55.600=0 0 1920 1080 1.000000;00:04:55.720=0 63 1920 1080 1.000000;00:04:55.960=0 -1080 1920 1080 1.000000;00:05:03.600=0 0 1920 1080 1.000000;00:05:03.720=0 59 1920 1080 1.000000;00:05:03.960=0 -1080 1920 1080 1.000000</property>
    <property name="rotation">00:04:53.760=0;00:04:54.000=0;00:04:54.120=0;00:04:55.600=0;00:04:55.720=0;00:04:55.960=0;00:05:03.600=0;00:05:03.720=0;00:05:03.960=0</property>
    <property name="compositing">0</property>
    <property name="distort">0</property>
    <property name="kdenlive:collapsed">0</property>
   </filter>
  </entry>
  <blank length="00:00:01.360"/>
  <entry producer="chain358" in="00:00:23.120" out="00:00:30.800">
   <property name="kdenlive:id">627</property>
   <property name="kdenlive:activeeffect">1</property>
   <filter id="filter1099">
    <property name="rotate_center">1</property>
    <property name="mlt_service">qtblend</property>
    <property name="kdenlive_id">qtblend</property>
    <property name="rect">00:00:23.120=320 180 1279 719 1.000000</property>
    <property name="rotation">00:00:23.120=0</property>
    <property name="compositing">0</property>
    <property name="distort">0</property>
    <property name="kdenlive:collapsed">1</property>
   </filter>
   <filter id="filter1100">
    <property name="rotate_center">1</property>
    <property name="mlt_service">qtblend</property>
    <property name="kdenlive_id">qtblend</property>
    <property name="rect">00:00:23.120=0 1080 1920 1080 1.000000;00:00:23.360=0 -83 1920 1080 1.000000;00:00:23.480=0 0 1920 1080 1.000000;00:00:30.440=0 0 1920 1080 1.000000;00:00:30.560=0 72 1920 1080 1.000000;00:00:30.800=0 -1080 1920 1080 1.000000</property>
    <property name="rotation">00:00:23.120=0;00:00:23.360=0;00:00:23.480=0;00:00:30.440=0;00:00:30.560=0;00:00:30.800=0</property>
    <property name="compositing">0</property>
    <property name="distort">0</property>
    <property name="kdenlive:collapsed">0</property>
   </filter>
  </entry>
  <blank length="00:00:05.120"/>
  <entry producer="producer642" in="00:00:00.000" out="00:00:19.680">
   <property name="kdenlive:id">630</property>
  </entry>
  <blank length="00:01:06.240"/>
  <entry producer="chain319" in="00:02:57.280" out="00:03:05.720">
   <property name="kdenlive:id">478</property>
   <filter id="filter1101">
    <property name="rotate_center">1</property>
    <property name="mlt_service">qtblend</property>
    <property name="kdenlive_id">qtblend</property>
    <property name="rect">00:02:57.280=321 180 1278 719 1.000000</property>
    <property name="rotation">00:02:57.280=0</property>
    <property name="compositing">0</property>
    <property name="distort">0</property>
    <property name="kdenlive:collapsed">1</property>
   </filter>
   <filter id="filter1102">
    <property name="rotate_center">1</property>
    <property name="mlt_service">qtblend</property>
    <property name="kdenlive_id">qtblend</property>
    <property name="rect">00:02:57.280=0 1080 1920 1080 1.000000;00:02:57.520=0 -43 1920 1080 1.000000;00:02:57.640=0 0 1920 1080 1.000000;00:03:05.400=0 0 1920 1080 1.000000;00:03:05.520=0 82 1920 1080 1.000000;00:03:05.720=0 -1080 1920 1080 1.000000</property>
    <property name="rotation">00:02:57.280=0;00:02:57.520=0;00:02:57.640=0;00:03:05.400=0;00:03:05.520=0;00:03:05.720=0</property>
    <property name="compositing">0</property>
    <property name="distort">0</property>
    <property name="kdenlive:collapsed">0</property>
   </filter>
  </entry>
  <blank length="00:00:05.200"/>
  <entry producer="chain294" in="00:46:58.040" out="00:47:01.440">
   <property name="kdenlive:id">6</property>
   <filter id="filter1103">
    <property name="rotate_center">1</property>
    <property name="mlt_service">qtblend</property>
    <property name="kdenlive_id">qtblend</property>
    <property name="rect">00:46:58.040=320 180 1279 719 1.000000;00:47:00.960=320 180 1279 719 1.000000;00:47:01.440=-96 -54 2112 1188 1.000000</property>
    <property name="rotation">00:46:58.040=0;00:47:00.960=0;00:47:01.440=0</property>
    <property name="compositing">0</property>
    <property name="distort">0</property>
    <property name="kdenlive:collapsed">1</property>
   </filter>
   <filter id="filter1104">
    <property name="rotate_center">1</property>
    <property name="mlt_service">qtblend</property>
    <property name="kdenlive_id">qtblend</property>
    <property name="rect">00:46:58.040=0 1080 1920 1080 1.000000;00:46:58.280=0 -69 1920 1080 1.000000;00:46:58.400=0 0 1920 1080 1.000000</property>
    <property name="rotation">00:46:58.040=0;00:46:58.280=0;00:46:58.400=0</property>
    <property name="compositing">0</property>
    <property name="distort">0</property>
    <property name="kdenlive:collapsed">1</property>
   </filter>
   <filter id="filter1105">
    <property name="hradius">00:46:58.040=1;00:47:00.960=1;00:47:01.440=60</property>
    <property name="vradius">00:46:58.040=1;00:47:00.960=1;00:47:01.440=60</property>
    <property name="mlt_service">box_blur</property>
    <property name="kdenlive_id">box_blur</property>
    <property name="kdenlive:collapsed">0</property>
   </filter>
   <filter id="filter1106">
    <property name="start">1</property>
    <property name="level">00:46:58.040=1;00:47:00.960=1;00:47:01.440=0.6</property>
    <property name="mlt_service">brightness</property>
    <property name="kdenlive_id">brightness</property>
    <property name="kdenlive:collapsed">0</property>
   </filter>
  </entry>
  <entry producer="producer299" in="00:00:00.000" out="00:00:34.720">
   <property name="kdenlive:id">346</property>
   <filter id="filter1107">
    <property name="rotate_center">1</property>
    <property name="mlt_service">qtblend</property>
    <property name="kdenlive_id">qtblend</property>
    <property name="rect">00:00:00.000=48 27 1824 1026 1.000000;00:00:00.360=0 0 1920 1080 1.000000</property>
    <property name="rotation">00:00:00.000=0;00:00:00.360=0</property>
    <property name="compositing">0</property>
    <property name="distort">0</property>
    <property name="kdenlive:collapsed">1</property>
   </filter>
   <filter id="filter1108" out="00:00:00.240">
    <property name="start">1</property>
    <property name="level">1</property>
    <property name="mlt_service">brightness</property>
    <property name="kdenlive_id">fade_from_black</property>
    <property name="alpha">00:00:00.000=0;00:00:00.240=1</property>
    <property name="kdenlive:collapsed">0</property>
   </filter>
   <filter id="filter1109" in="00:00:33.800" out="00:00:34.720">
    <property name="start">1</property>
    <property name="level">1</property>
    <property name="mlt_service">brightness</property>
    <property name="kdenlive_id">fade_to_black</property>
    <property name="alpha">00:00:00.000=1;00:00:00.920=0</property>
    <property name="kdenlive:collapsed">0</property>
   </filter>
  </entry>
  <entry producer="chain359" in="00:00:00.000" out="00:00:01.560">
   <property name="kdenlive:id">638</property>
   <filter id="filter1110">
    <property name="rotate_center">1</property>
    <property name="mlt_service">qtblend</property>
    <property name="kdenlive_id">qtblend</property>
    <property name="rect">00:00:00.000=-96 -54 2112 1188 1.000000</property>
    <property name="rotation">00:00:00.000=0</property>
    <property name="compositing">0</property>
    <property name="distort">0</property>
    <property name="kdenlive:collapsed">1</property>
   </filter>
   <filter id="filter1111">
    <property name="hradius">00:00:00.000=60</property>
    <property name="vradius">00:00:00.000=60</property>
    <property name="mlt_service">box_blur</property>
    <property name="kdenlive_id">box_blur</property>
    <property name="kdenlive:collapsed">1</property>
   </filter>
   <filter id="filter1112">
    <property name="start">1</property>
    <property name="level">00:00:00.000=0.6</property>
    <property name="mlt_service">brightness</property>
    <property name="kdenlive_id">brightness</property>
    <property name="kdenlive:collapsed">1</property>
   </filter>
  </entry>
  <entry producer="producer299" in="00:00:00.000" out="00:00:37.880">
   <property name="kdenlive:id">346</property>
   <filter id="filter1113">
    <property name="rotate_center">1</property>
    <property name="mlt_service">qtblend</property>
    <property name="kdenlive_id">qtblend</property>
    <property name="rect">00:00:00.000=48 27 1824 1026 1.000000;00:00:00.360=0 0 1920 1080 1.000000</property>
    <property name="rotation">00:00:00.000=0;00:00:00.360=0</property>
    <property name="compositing">0</property>
    <property name="distort">0</property>
    <property name="kdenlive:collapsed">1</property>
   </filter>
   <filter id="filter1114" out="00:00:00.240">
    <property name="start">1</property>
    <property name="level">1</property>
    <property name="mlt_service">brightness</property>
    <property name="kdenlive_id">fade_from_black</property>
    <property name="alpha">00:00:00.000=0;00:00:00.240=1</property>
    <property name="kdenlive:collapsed">0</property>
   </filter>
   <filter id="filter1115" in="00:00:36.960" out="00:00:37.880">
    <property name="start">1</property>
    <property name="level">1</property>
    <property name="mlt_service">brightness</property>
    <property name="kdenlive_id">fade_to_black</property>
    <property name="alpha">00:00:00.000=1;00:00:00.920=0</property>
    <property name="kdenlive:collapsed">0</property>
   </filter>
  </entry>
  <entry producer="chain363" in="00:00:06.920" out="00:00:08.800">
   <property name="kdenlive:id">550</property>
   <filter id="filter1116">
    <property name="rotate_center">1</property>
    <property name="mlt_service">qtblend</property>
    <property name="kdenlive_id">qtblend</property>
    <property name="rect">00:00:06.920=-663 -372 3253 1830 1.000000</property>
    <property name="rotation">00:00:06.920=0</property>
    <property name="compositing">0</property>
    <property name="distort">0</property>
    <property name="kdenlive:collapsed">0</property>
   </filter>
   <filter id="filter1117">
    <property name="hradius">00:00:06.920=60</property>
    <property name="vradius">00:00:06.920=60</property>
    <property name="mlt_service">box_blur</property>
    <property name="kdenlive_id">box_blur</property>
    <property name="kdenlive:collapsed">1</property>
   </filter>
   <filter id="filter1118">
    <property name="start">1</property>
    <property name="level">00:00:06.920=0.6</property>
    <property name="mlt_service">brightness</property>
    <property name="kdenlive_id">brightness</property>
    <property name="kdenlive:collapsed">1</property>
   </filter>
  </entry>
  <blank length="00:00:05.560"/>
  <entry producer="producer299" in="00:00:00.000" out="00:00:43.040">
   <property name="kdenlive:id">346</property>
   <filter id="filter1119">
    <property name="rotate_center">1</property>
    <property name="mlt_service">qtblend</property>
    <property name="kdenlive_id">qtblend</property>
    <property name="rect">00:00:00.000=48 27 1824 1026 1.000000;00:00:00.360=0 0 1920 1080 1.000000</property>
    <property name="rotation">00:00:00.000=0;00:00:00.360=0</property>
    <property name="compositing">0</property>
    <property name="distort">0</property>
    <property name="kdenlive:collapsed">1</property>
   </filter>
   <filter id="filter1120" out="00:00:00.240">
    <property name="start">1</property>
    <property name="level">1</property>
    <property name="mlt_service">brightness</property>
    <property name="kdenlive_id">fade_from_black</property>
    <property name="alpha">0=0;-1=1</property>
    <property name="kdenlive:collapsed">0</property>
   </filter>
   <filter id="filter1121" in="00:00:42.120" out="00:00:43.040">
    <property name="start">1</property>
    <property name="level">1</property>
    <property name="mlt_service">brightness</property>
    <property name="kdenlive_id">fade_to_black</property>
    <property name="alpha">00:00:00.000=1;00:00:00.920=0</property>
    <property name="kdenlive:collapsed">0</property>
   </filter>
  </entry>
  <entry producer="chain302" in="00:00:00.000" out="00:00:13.200">
   <property name="kdenlive:id">421</property>
   <filter id="filter1122" in="00:00:11.360" out="00:00:13.200">
    <property name="start">1</property>
    <property name="level">1</property>
    <property name="mlt_service">brightness</property>
    <property name="kdenlive_id">fade_to_black</property>
    <property name="alpha">00:00:00.000=1;00:00:01.840=0</property>
   </filter>
  </entry>
  <blank length="00:00:01.920"/>
  <entry producer="producer514" in="00:00:00.000" out="00:00:07.720">
   <property name="kdenlive:id">658</property>
   <filter id="filter1123">
    <property name="rotate_center">1</property>
    <property name="mlt_service">qtblend</property>
    <property name="kdenlive_id">qtblend</property>
    <property name="rect">00:00:00.000=0 0 1920 1080 1.000000;00:00:07.360=0 0 1920 1080 1.000000;00:00:07.480=0 45 1920 1080 1.000000;00:00:07.720=0 -1080 1920 1080 1.000000</property>
    <property name="rotation">00:00:00.000=0;00:00:07.360=0;00:00:07.480=0;00:00:07.720=0</property>
    <property name="compositing">0</property>
    <property name="distort">0</property>
   </filter>
  </entry>
  <blank length="00:00:11.160"/>
  <entry producer="chain364" in="00:00:02.680" out="00:00:11.000">
   <property name="kdenlive:id">672</property>
   <property name="kdenlive:activeeffect">1</property>
   <filter id="filter1124">
    <property name="rotate_center">1</property>
    <property name="mlt_service">qtblend</property>
    <property name="kdenlive_id">qtblend</property>
    <property name="rect">00:00:02.680=320 180 1279 719 1.000000</property>
    <property name="rotation">00:00:02.680=0</property>
    <property name="compositing">0</property>
    <property name="distort">0</property>
    <property name="kdenlive:collapsed">1</property>
   </filter>
   <filter id="filter1125">
    <property name="rotate_center">1</property>
    <property name="mlt_service">qtblend</property>
    <property name="kdenlive_id">qtblend</property>
    <property name="rect">00:00:02.680=0 1080 1920 1080 1.000000;00:00:02.920=0 -63 1920 1080 1.000000;00:00:03.040=0 0 1920 1080 1.000000;00:00:10.640=0 0 1920 1080 1.000000;00:00:10.760=0 64 1920 1080 1.000000;00:00:11.000=0 -1080 1920 1080 1.000000</property>
    <property name="rotation">00:00:02.680=0;00:00:02.920=0;00:00:03.040=0;00:00:10.640=0;00:00:10.760=0;00:00:11.000=0</property>
    <property name="compositing">0</property>
    <property name="distort">0</property>
    <property name="kdenlive:collapsed">0</property>
   </filter>
  </entry>
  <blank length="00:00:04.560"/>
  <entry producer="chain365" in="00:00:00.000" out="00:00:10.520">
   <property name="kdenlive:id">674</property>
   <property name="kdenlive:activeeffect">1</property>
   <filter id="filter1126">
    <property name="rotate_center">1</property>
    <property name="mlt_service">qtblend</property>
    <property name="kdenlive_id">qtblend</property>
    <property name="rect">00:00:00.000=320 180 1279 719 1.000000</property>
    <property name="rotation">00:00:00.000=0</property>
    <property name="compositing">0</property>
    <property name="distort">0</property>
    <property name="kdenlive:collapsed">1</property>
   </filter>
   <filter id="filter1127">
    <property name="rotate_center">1</property>
    <property name="mlt_service">qtblend</property>
    <property name="kdenlive_id">qtblend</property>
    <property name="rect">00:00:00.000=0 1080 1920 1080 1.000000;00:00:00.240=0 -57 1920 1080 1.000000;00:00:00.360=0 0 1920 1080 1.000000;00:00:10.160=0 0 1920 1080 1.000000;00:00:10.280=0 46 1920 1080 1.000000;00:00:10.520=0 -1080 1920 1080 1.000000</property>
    <property name="rotation">00:00:00.000=0;00:00:00.240=0;00:00:00.360=0;00:00:10.160=0;00:00:10.280=0;00:00:10.520=0</property>
    <property name="compositing">0</property>
    <property name="distort">0</property>
    <property name="kdenlive:collapsed">0</property>
   </filter>
  </entry>
  <blank length="00:00:15.600"/>
  <entry producer="chain366" in="00:00:18.560" out="00:00:25.160">
   <property name="kdenlive:id">678</property>
   <property name="kdenlive:activeeffect">1</property>
   <filter id="filter1128">
    <property name="rotate_center">1</property>
    <property name="mlt_service">qtblend</property>
    <property name="kdenlive_id">qtblend</property>
    <property name="rect">00:00:18.560=320 180 1279 719 1.000000</property>
    <property name="rotation">00:00:18.560=0</property>
    <property name="compositing">0</property>
    <property name="distort">0</property>
    <property name="kdenlive:collapsed">1</property>
   </filter>
   <filter id="filter1129">
    <property name="rotate_center">1</property>
    <property name="mlt_service">qtblend</property>
    <property name="kdenlive_id">qtblend</property>
    <property name="rect">00:00:18.560=0 1080 1920 1080 1.000000;00:00:18.800=0 -69 1920 1080 1.000000;00:00:18.920=0 0 1920 1080 1.000000;00:00:24.800=0 0 1920 1080 1.000000;00:00:24.920=0 66 1920 1080 1.000000;00:00:25.160=0 -1080 1920 1080 1.000000</property>
    <property name="rotation">00:00:18.560=0;00:00:18.800=0;00:00:18.920=0;00:00:24.800=0;00:00:24.920=0;00:00:25.160=0</property>
    <property name="compositing">0</property>
    <property name="distort">0</property>
    <property name="kdenlive:collapsed">0</property>
   </filter>
  </entry>
  <blank length="00:00:01.880"/>
  <entry producer="producer515" in="00:00:00.000" out="00:00:06.040">
   <property name="kdenlive:id">681</property>
   <filter id="filter1130">
    <property name="rotate_center">1</property>
    <property name="mlt_service">qtblend</property>
    <property name="kdenlive_id">qtblend</property>
    <property name="rect">00:00:00.000=336 189 1248 702 1.000000;00:00:06.040=288 162 1344 756 1.000000</property>
    <property name="rotation">00:00:00.000=0;00:00:06.040=0</property>
    <property name="compositing">0</property>
    <property name="distort">0</property>
    <property name="kdenlive:collapsed">1</property>
   </filter>
   <filter id="filter1131">
    <property name="rotate_center">1</property>
    <property name="mlt_service">qtblend</property>
    <property name="kdenlive_id">qtblend</property>
    <property name="rect">00:00:00.000=950 535 19 10 1.000000;00:00:00.240=-96 -54 2112 1188 1.000000;00:00:00.360=0 0 1920 1080 1.000000;00:00:05.680=0 0 1920 1080 1.000000;00:00:05.800=0 46 1920 1080 1.000000;00:00:06.040=0 -1080 1920 1080 1.000000</property>
    <property name="rotation">00:00:00.000=0;00:00:00.240=0;00:00:00.360=0;00:00:05.680=0;00:00:05.800=0;00:00:06.040=0</property>
    <property name="compositing">0</property>
    <property name="distort">0</property>
    <property name="kdenlive:collapsed">0</property>
   </filter>
  </entry>
  <blank length="00:00:12.080"/>
  <entry producer="chain367" in="00:52:29.920" out="00:52:37.200">
   <property name="kdenlive:id">684</property>
   <property name="kdenlive:activeeffect">1</property>
   <filter id="filter1132">
    <property name="rotate_center">1</property>
    <property name="mlt_service">qtblend</property>
    <property name="kdenlive_id">qtblend</property>
    <property name="rect">00:52:29.920=320 180 1279 719 1.000000</property>
    <property name="rotation">00:52:29.920=0</property>
    <property name="compositing">0</property>
    <property name="distort">0</property>
    <property name="kdenlive:collapsed">1</property>
   </filter>
   <filter id="filter1133">
    <property name="rotate_center">1</property>
    <property name="mlt_service">qtblend</property>
    <property name="kdenlive_id">qtblend</property>
    <property name="rect">00:52:29.920=0 1080 1920 1080 1.000000;00:52:30.160=0 -82 1920 1080 1.000000;00:52:30.280=0 0 1920 1080 1.000000;00:52:36.840=0 0 1920 1080 1.000000;00:52:36.960=0 66 1920 1080 1.000000;00:52:37.200=0 -1080 1920 1080 1.000000</property>
    <property name="rotation">00:52:29.920=0;00:52:30.160=0;00:52:30.280=0;00:52:36.840=0;00:52:36.960=0;00:52:37.200=0</property>
    <property name="compositing">0</property>
    <property name="distort">0</property>
    <property name="kdenlive:collapsed">0</property>
   </filter>
  </entry>
  <blank length="00:00:14.800"/>
  <entry producer="chain316" in="00:18:32.880" out="00:18:47.640">
   <property name="kdenlive:id">15</property>
   <filter id="filter1134">
    <property name="rotate_center">1</property>
    <property name="mlt_service">qtblend</property>
    <property name="kdenlive_id">qtblend</property>
    <property name="rect">00:18:32.880=321 181 1278 719 1.000000</property>
    <property name="rotation">00:18:32.880=0</property>
    <property name="compositing">0</property>
    <property name="distort">0</property>
    <property name="kdenlive:collapsed">1</property>
   </filter>
   <filter id="filter1135">
    <property name="rotate_center">1</property>
    <property name="mlt_service">qtblend</property>
    <property name="kdenlive_id">qtblend</property>
    <property name="rect">00:18:32.880=0 1080 1920 1080 1.000000;00:18:33.120=0 -41 1920 1080 1.000000;00:18:33.240=0 0 1920 1080 1.000000</property>
    <property name="rotation">00:18:32.880=0;00:18:33.120=0;00:18:33.240=0</property>
    <property name="compositing">0</property>
    <property name="distort">0</property>
    <property name="kdenlive:collapsed">0</property>
   </filter>
  </entry>
  <entry producer="chain316" in="00:18:47.680" out="00:18:48.240">
   <property name="kdenlive:id">15</property>
   <filter id="filter1136">
    <property name="rotate_center">1</property>
    <property name="mlt_service">qtblend</property>
    <property name="kdenlive_id">qtblend</property>
    <property name="rect">00:18:47.680=321 181 1278 719 1.000000;00:18:48.240=-96 -53 2112 1188 1.000000</property>
    <property name="rotation">00:18:47.680=0;00:18:48.240=0</property>
    <property name="compositing">0</property>
    <property name="distort">0</property>
    <property name="kdenlive:collapsed">1</property>
   </filter>
   <filter id="filter1137">
    <property name="hradius">00:18:47.680=0;00:18:48.240=60</property>
    <property name="vradius">00:18:47.680=0;00:18:48.240=60</property>
    <property name="mlt_service">box_blur</property>
    <property name="kdenlive_id">box_blur</property>
    <property name="kdenlive:collapsed">0</property>
   </filter>
   <filter id="filter1138">
    <property name="start">1</property>
    <property name="level">00:18:47.680=1;00:18:48.240=0.46</property>
    <property name="mlt_service">brightness</property>
    <property name="kdenlive_id">brightness</property>
    <property name="kdenlive:collapsed">0</property>
   </filter>
  </entry>
  <entry producer="producer299" in="00:00:00.000" out="00:00:27.800">
   <property name="kdenlive:id">346</property>
   <filter id="filter1139">
    <property name="rotate_center">1</property>
    <property name="mlt_service">qtblend</property>
    <property name="kdenlive_id">qtblend</property>
    <property name="rect">00:00:00.000=48 27 1824 1026 1.000000;00:00:00.360=0 0 1920 1080 1.000000</property>
    <property name="rotation">00:00:00.000=0;00:00:00.360=0</property>
    <property name="compositing">0</property>
    <property name="distort">0</property>
    <property name="kdenlive:collapsed">1</property>
   </filter>
   <filter id="filter1140" out="00:00:00.240">
    <property name="start">1</property>
    <property name="level">1</property>
    <property name="mlt_service">brightness</property>
    <property name="kdenlive_id">fade_from_black</property>
    <property name="alpha">00:00:00.000=0;00:00:00.240=1</property>
    <property name="kdenlive:collapsed">0</property>
   </filter>
   <filter id="filter1141" in="00:00:26.880" out="00:00:27.800">
    <property name="start">1</property>
    <property name="level">1</property>
    <property name="mlt_service">brightness</property>
    <property name="kdenlive_id">fade_to_black</property>
    <property name="alpha">00:00:00.000=1;00:00:00.920=0</property>
    <property name="kdenlive:collapsed">0</property>
   </filter>
  </entry>
  <blank length="00:00:02.560"/>
  <entry producer="producer516" in="00:00:00.000" out="00:00:04.040">
   <property name="kdenlive:id">659</property>
   <filter id="filter1142">
    <property name="rotate_center">1</property>
    <property name="mlt_service">qtblend</property>
    <property name="kdenlive_id">qtblend</property>
    <property name="rect">00:00:00.000=0 65 1920 1080 1.000000;00:00:00.240=0 0 1920 1080 1.000000;00:00:03.720=0 0 1920 1080 1.000000;00:00:04.040=447 0 1920 1080 1.000000</property>
    <property name="rotation">00:00:00.000=0;00:00:00.240=0;00:00:03.720=0;00:00:04.040=0</property>
    <property name="compositing">0</property>
    <property name="distort">0</property>
    <property name="kdenlive:collapsed">1</property>
   </filter>
   <filter id="filter1143" out="00:00:00.240">
    <property name="start">1</property>
    <property name="level">1</property>
    <property name="mlt_service">brightness</property>
    <property name="kdenlive_id">fade_from_black</property>
    <property name="alpha">00:00:00.000=0;00:00:00.240=1</property>
    <property name="kdenlive:collapsed">0</property>
   </filter>
   <filter id="filter1144" in="00:00:03.720" out="00:00:04.040">
    <property name="start">1</property>
    <property name="level">1</property>
    <property name="mlt_service">brightness</property>
    <property name="kdenlive_id">fade_to_black</property>
    <property name="alpha">00:00:00.000=1;00:00:00.320=0</property>
    <property name="kdenlive:collapsed">0</property>
   </filter>
  </entry>
  <blank length="00:00:00.480"/>
  <entry producer="chain368" in="00:01:17.960" out="00:01:31.960">
   <property name="kdenlive:id">694</property>
   <property name="kdenlive:activeeffect">1</property>
   <filter id="filter1145">
    <property name="rotate_center">1</property>
    <property name="mlt_service">qtblend</property>
    <property name="kdenlive_id">qtblend</property>
    <property name="rect">00:01:17.960=320 180 1279 719 1.000000</property>
    <property name="rotation">00:01:17.960=0</property>
    <property name="compositing">0</property>
    <property name="distort">0</property>
    <property name="kdenlive:collapsed">1</property>
   </filter>
   <filter id="filter1146">
    <property name="rotate_center">1</property>
    <property name="mlt_service">qtblend</property>
    <property name="kdenlive_id">qtblend</property>
    <property name="rect">00:01:17.960=0 1080 1920 1080 1.000000;00:01:18.200=0 -40 1920 1080 1.000000;00:01:18.320=0 0 1920 1080 1.000000;00:01:31.600=0 0 1920 1080 1.000000;00:01:31.720=0 66 1920 1080 1.000000;00:01:31.960=0 -1080 1920 1080 1.000000</property>
    <property name="rotation">00:01:17.960=0;00:01:18.200=0;00:01:18.320=0;00:01:31.600=0;00:01:31.720=0;00:01:31.960=0</property>
    <property name="compositing">0</property>
    <property name="distort">0</property>
    <property name="kdenlive:collapsed">0</property>
   </filter>
  </entry>
  <blank length="00:00:01.840"/>
  <entry producer="producer517" in="00:00:00.000" out="00:00:09.840">
   <property name="kdenlive:id">697</property>
   <filter id="filter1147">
    <property name="rotate_center">1</property>
    <property name="mlt_service">qtblend</property>
    <property name="kdenlive_id">qtblend</property>
    <property name="rect">00:00:00.000=0 1080 1920 1080 1.000000;00:00:00.240=0 -44 1920 1080 1.000000;00:00:00.360=0 0 1920 1080 1.000000</property>
    <property name="rotation">00:00:00.000=0;00:00:00.240=0;00:00:00.360=0</property>
    <property name="compositing">0</property>
    <property name="distort">0</property>
    <property name="kdenlive:collapsed">0</property>
   </filter>
   <filter id="filter1148" in="00:00:08.520" out="00:00:09.840">
    <property name="start">1</property>
    <property name="level">1</property>
    <property name="mlt_service">brightness</property>
    <property name="kdenlive_id">fade_to_black</property>
    <property name="alpha">00:00:00.000=1;00:00:01.320=0</property>
   </filter>
  </entry>
  <blank length="00:00:01.120"/>
  <entry producer="chain369" in="00:00:27.440" out="00:00:35.440">
   <property name="kdenlive:id">700</property>
   <property name="kdenlive:activeeffect">1</property>
   <filter id="filter1149">
    <property name="rotate_center">1</property>
    <property name="mlt_service">qtblend</property>
    <property name="kdenlive_id">qtblend</property>
    <property name="rect">00:00:27.440=320 180 1279 719 1.000000</property>
    <property name="rotation">00:00:27.440=0</property>
    <property name="compositing">0</property>
    <property name="distort">0</property>
    <property name="kdenlive:collapsed">1</property>
   </filter>
   <filter id="filter1150">
    <property name="rotate_center">1</property>
    <property name="mlt_service">qtblend</property>
    <property name="kdenlive_id">qtblend</property>
    <property name="rect">00:00:27.440=0 1080 1920 1080 1.000000;00:00:27.680=0 -47 1920 1080 1.000000;00:00:27.800=0 0 1920 1080 1.000000;00:00:35.080=0 0 1920 1080 1.000000;00:00:35.200=0 46 1920 1080 1.000000;00:00:35.440=0 -1080 1920 1080 1.000000</property>
    <property name="rotation">00:00:27.440=0;00:00:27.680=0;00:00:27.800=0;00:00:35.080=0;00:00:35.200=0;00:00:35.440=0</property>
    <property name="compositing">0</property>
    <property name="distort">0</property>
    <property name="kdenlive:collapsed">0</property>
   </filter>
  </entry>
  <blank length="00:00:06.200"/>
  <entry producer="chain370" in="00:00:16.240" out="00:00:30.800">
   <property name="kdenlive:id">704</property>
   <property name="kdenlive:activeeffect">1</property>
   <filter id="filter1151">
    <property name="rotate_center">1</property>
    <property name="mlt_service">qtblend</property>
    <property name="kdenlive_id">qtblend</property>
    <property name="rect">00:00:16.240=320 180 1279 719 1.000000</property>
    <property name="rotation">00:00:16.240=0</property>
    <property name="compositing">0</property>
    <property name="distort">0</property>
    <property name="kdenlive:collapsed">1</property>
   </filter>
   <filter id="filter1152">
    <property name="rotate_center">1</property>
    <property name="mlt_service">qtblend</property>
    <property name="kdenlive_id">qtblend</property>
    <property name="rect">00:00:16.240=0 1080 1920 1080 1.000000;00:00:16.480=0 -53 1920 1080 1.000000;00:00:16.600=0 0 1920 1080 1.000000;00:00:30.440=0 0 1920 1080 1.000000;00:00:30.560=0 52 1920 1080 1.000000;00:00:30.800=0 -1080 1920 1080 1.000000</property>
    <property name="rotation">00:00:16.240=0;00:00:16.480=0;00:00:16.600=0;00:00:30.440=0;00:00:30.560=0;00:00:30.800=0</property>
    <property name="compositing">0</property>
    <property name="distort">0</property>
    <property name="kdenlive:collapsed">0</property>
   </filter>
  </entry>
  <blank length="00:00:22.960"/>
  <entry producer="chain371" in="00:00:00.000" out="00:00:00.360">
   <property name="kdenlive:id">709</property>
   <filter id="filter1153">
    <property name="rotate_center">1</property>
    <property name="mlt_service">qtblend</property>
    <property name="kdenlive_id">qtblend</property>
    <property name="rect">00:00:00.000=0 1080 1920 1080 1.000000;00:00:00.240=0 -53 1920 1080 1.000000;00:00:00.360=0 0 1920 1080 1.000000</property>
    <property name="rotation">00:00:00.000=0;00:00:00.240=0;00:00:00.360=0</property>
    <property name="compositing">0</property>
    <property name="distort">0</property>
    <property name="kdenlive:collapsed">0</property>
   </filter>
  </entry>
  <entry producer="chain371" in="00:00:00.000" out="00:00:02.040">
   <property name="kdenlive:id">709</property>
  </entry>
  <entry producer="chain371" in="00:00:00.000" out="00:00:00.960">
   <property name="kdenlive:id">709</property>
  </entry>
  <entry producer="producer643" in="00:00:00.000" out="00:00:11.520">
   <property name="kdenlive:id">713</property>
  </entry>
  <entry producer="producer643" in="00:00:16.360" out="00:00:19.680">
   <property name="kdenlive:id">713</property>
  </entry>
  <blank length="00:00:00.360"/>
  <entry producer="chain372" in="00:34:00.000" out="00:34:27.880">
   <property name="kdenlive:id">715</property>
   <property name="kdenlive:activeeffect">2</property>
   <filter id="filter1154">
    <property name="mlt_service">crop</property>
    <property name="kdenlive_id">crop</property>
    <property name="top">540</property>
    <property name="left">0</property>
    <property name="bottom">0</property>
    <property name="right">960</property>
    <property name="center">0</property>
    <property name="center_bias">0</property>
    <property name="use_profile">1</property>
    <property name="kdenlive:collapsed">1</property>
   </filter>
   <filter id="filter1155">
    <property name="rotate_center">1</property>
    <property name="mlt_service">qtblend</property>
    <property name="kdenlive_id">qtblend</property>
    <property name="rect">00:34:00.000=320 180 1279 719 1.000000</property>
    <property name="rotation">00:34:00.000=0</property>
    <property name="compositing">0</property>
    <property name="distort">0</property>
    <property name="kdenlive:collapsed">1</property>
   </filter>
   <filter id="filter1156">
    <property name="rotate_center">1</property>
    <property name="mlt_service">qtblend</property>
    <property name="kdenlive_id">qtblend</property>
    <property name="rect">00:34:00.000=0 1080 1920 1080 1.000000;00:34:00.240=0 -54 1920 1080 1.000000;00:34:00.360=0 0 1920 1080 1.000000;00:34:27.520=0 0 1920 1080 1.000000;00:34:27.640=0 55 1920 1080 1.000000;00:34:27.880=0 -1080 1920 1080 1.000000</property>
    <property name="rotation">00:34:00.000=0;00:34:00.240=0;00:34:00.360=0;00:34:27.520=0;00:34:27.640=0;00:34:27.880=0</property>
    <property name="compositing">0</property>
    <property name="distort">0</property>
    <property name="kdenlive:collapsed">0</property>
   </filter>
  </entry>
  <blank length="00:00:16.040"/>
  <entry producer="producer519" in="00:00:00.000" out="00:00:02.040">
   <property name="kdenlive:id">719</property>
   <filter id="filter1157">
    <property name="rotate_center">1</property>
    <property name="mlt_service">qtblend</property>
    <property name="kdenlive_id">qtblend</property>
    <property name="rect">00:00:00.000=144 81 1632 918 1.000000</property>
    <property name="rotation">00:00:00.000=0</property>
    <property name="compositing">0</property>
    <property name="distort">0</property>
    <property name="kdenlive:collapsed">0</property>
   </filter>
   <filter id="filter1158">
    <property name="rotate_center">1</property>
    <property name="mlt_service">qtblend</property>
    <property name="kdenlive_id">qtblend</property>
    <property name="rect">00:00:00.000=950 535 19 10 1.000000;00:00:00.240=-96 -54 2112 1188 1.000000;00:00:00.360=0 0 1920 1080 1.000000</property>
    <property name="rotation">00:00:00.000=0;00:00:00.240=0;00:00:00.360=0</property>
    <property name="compositing">0</property>
    <property name="distort">0</property>
    <property name="kdenlive:collapsed">0</property>
   </filter>
  </entry>
  <blank length="00:00:05.320"/>
  <entry producer="chain373" in="00:00:23.720" out="00:00:26.440">
   <property name="kdenlive:id">718</property>
   <filter id="filter1159">
    <property name="rotate_center">1</property>
    <property name="mlt_service">qtblend</property>
    <property name="kdenlive_id">qtblend</property>
    <property name="rect">00:00:23.720=-473 -266 2872 1616 1.000000</property>
    <property name="rotation">00:00:23.720=0</property>
    <property name="compositing">0</property>
    <property name="distort">0</property>
    <property name="kdenlive:collapsed">0</property>
   </filter>
   <filter id="filter1160">
    <property name="hradius">00:00:23.720=60</property>
    <property name="vradius">00:00:23.720=60</property>
    <property name="mlt_service">box_blur</property>
    <property name="kdenlive_id">box_blur</property>
    <property name="kdenlive:collapsed">0</property>
   </filter>
   <filter id="filter1161" in="00:00:23.720" out="00:00:26.440">
    <property name="start">1</property>
    <property name="level">1</property>
    <property name="mlt_service">brightness</property>
    <property name="kdenlive_id">fade_to_black</property>
    <property name="alpha">00:00:00.000=1;00:00:02.720=0</property>
    <property name="kdenlive:collapsed">0</property>
   </filter>
  </entry>
  <blank length="00:00:02.480"/>
  <entry producer="chain375" in="00:04:05.400" out="00:04:15.520">
   <property name="kdenlive:id">731</property>
   <property name="kdenlive:activeeffect">1</property>
   <filter id="filter1162">
    <property name="rotate_center">1</property>
    <property name="mlt_service">qtblend</property>
    <property name="kdenlive_id">qtblend</property>
    <property name="rect">00:04:05.400=320 180 1279 719 1.000000</property>
    <property name="rotation">00:04:05.400=0</property>
    <property name="compositing">0</property>
    <property name="distort">0</property>
    <property name="kdenlive:collapsed">1</property>
   </filter>
   <filter id="filter1163">
    <property name="rotate_center">1</property>
    <property name="mlt_service">qtblend</property>
    <property name="kdenlive_id">qtblend</property>
    <property name="rect">00:04:05.400=0 1080 1920 1080 1.000000;00:04:05.640=0 -65 1920 1080 1.000000;00:04:05.760=0 0 1920 1080 1.000000;00:04:15.160=0 0 1920 1080 1.000000;00:04:15.280=0 61 1920 1080 1.000000;00:04:15.520=0 -1080 1920 1080 1.000000</property>
    <property name="rotation">00:04:05.400=0;00:04:05.640=0;00:04:05.760=0;00:04:15.160=0;00:04:15.280=0;00:04:15.520=0</property>
    <property name="compositing">0</property>
    <property name="distort">0</property>
    <property name="kdenlive:collapsed">0</property>
   </filter>
  </entry>
  <blank length="00:00:22.280"/>
  <entry producer="chain383" in="00:17:36.880" out="00:17:45.800">
   <property name="kdenlive:id">7</property>
   <property name="kdenlive:activeeffect">1</property>
   <filter id="filter1164">
    <property name="rotate_center">1</property>
    <property name="mlt_service">qtblend</property>
    <property name="kdenlive_id">qtblend</property>
    <property name="rect">00:17:36.880=320 180 1279 719 1.000000</property>
    <property name="rotation">00:17:36.880=0</property>
    <property name="compositing">0</property>
    <property name="distort">0</property>
    <property name="kdenlive:collapsed">1</property>
   </filter>
   <filter id="filter1165">
    <property name="rotate_center">1</property>
    <property name="mlt_service">qtblend</property>
    <property name="kdenlive_id">qtblend</property>
    <property name="rect">00:17:36.880=0 1080 1920 1080 1.000000;00:17:37.120=0 -35 1920 1080 1.000000;00:17:37.240=0 0 1920 1080 1.000000;00:17:45.440=0 0 1920 1080 1.000000;00:17:45.560=0 63 1920 1080 1.000000;00:17:45.800=0 -1080 1920 1080 1.000000</property>
    <property name="rotation">00:17:36.880=0;00:17:37.120=0;00:17:37.240=0;00:17:45.440=0;00:17:45.560=0;00:17:45.800=0</property>
    <property name="compositing">0</property>
    <property name="distort">0</property>
    <property name="kdenlive:collapsed">0</property>
   </filter>
  </entry>
  <blank length="00:00:07.800"/>
  <entry producer="chain320" in="00:00:01.720" out="00:00:26.520">
   <property name="kdenlive:id">490</property>
   <filter id="filter1166">
    <property name="rotate_center">1</property>
    <property name="mlt_service">qtblend</property>
    <property name="kdenlive_id">qtblend</property>
    <property name="rect">00:00:01.720=0 1080 1920 1080 1.000000;00:00:01.960=0 -68 1920 1080 1.000000;00:00:02.080=0 0 1920 1080 1.000000;00:00:26.160=0 0 1920 1080 1.000000;00:00:26.280=0 64 1920 1080 1.000000;00:00:26.520=0 -1080 1920 1080 1.000000</property>
    <property name="rotation">00:00:01.720=0;00:00:01.960=0;00:00:02.080=0;00:00:26.160=0;00:00:26.280=0;00:00:26.520=0</property>
    <property name="compositing">0</property>
    <property name="distort">0</property>
    <property name="kdenlive:collapsed">0</property>
   </filter>
  </entry>
  <blank length="00:00:12.440"/>
  <entry producer="chain384" in="00:00:00.000" out="00:00:01.320">
   <property name="kdenlive:id">740</property>
   <filter id="filter1167">
    <property name="mode">alpha</property>
    <property name="alpha_operation">sub</property>
    <property name="invert">0</property>
    <property name="feather">47</property>
    <property name="feather_passes">1</property>
    <property name="mlt_service">rotoscoping</property>
    <property name="kdenlive_id">rotoscoping</property>
    <property name="spline">{
    "000": [
        [
            [
                0.7869965352104569,
                -0.05549229365157542
            ],
            [
                0.7458536752676991,
                -0.05281737088920828
            ],
            [
                0.7493658706286662,
                -0.02250157958238073
            ]
        ],
        [
            [
                0.7599024567115674,
                0.06844579433810191
            ],
            [
                0.7634146520725346,
                0.09876158564492946
            ],
            [
                0.7890035039881522,
                0.10232814932808565
            ]
        ],
        [
            [
                0.8657700597350052,
                0.1130278403775542
            ],
            [
                0.8913589116506228,
                0.11659440406071038
            ],
            [
                0.9018954977335242,
                0.11213619945676516
            ]
        ],
        [
            [
                0.9335052559822283,
                0.09876158564492946
            ],
            [
                0.9440418420651298,
                0.09430338104098424
            ],
            [
                0.9485575218149447,
                0.07379563986283619
            ]
        ],
        [
            [
                0.9621045610643892,
                0.012272416328392046
            ],
            [
                0.9666202408142042,
                -0.008235324849756
            ],
            [
                0.9636097876476609,
                -0.01982665682001359
            ]
        ],
        [
            [
                0.9545784281480311,
                -0.054600652730786375
            ],
            [
                0.9515679749814879,
                -0.06619198470104397
            ],
            [
                0.9104251150387301,
                -0.06351706193867683
            ]
        ]
    ],
    "010": [
        [
            [
                0.781979113266218,
                -0.04880498674565757
            ],
            [
                0.7408362533234603,
                -0.046130063983290434
            ],
            [
                0.7443484486844274,
                -0.01581427267646289
            ]
        ],
        [
            [
                0.7548850347673287,
                0.07513310124401976
            ],
            [
                0.7583972301282959,
                0.1054488925508473
            ],
            [
                0.7839860820439135,
                0.1090154562340035
            ]
        ],
        [
            [
                0.8607526377907664,
                0.11971514728347203
            ],
            [
                0.886341489706384,
                0.12328171096662822
            ],
            [
                0.8968780757892855,
                0.11882350636268299
            ]
        ],
        [
            [
                0.9284878340379896,
                0.1054488925508473
            ],
            [
                0.939024420120891,
                0.10099068794690208
            ],
            [
                0.943540099870706,
                0.08048294676875403
            ]
        ],
        [
            [
                0.9570871391201504,
                0.01895972323430989
            ],
            [
                0.9616028188699653,
                -0.001548017943838159
            ],
            [
                0.9585923657034222,
                -0.01313934991409575
            ]
        ],
        [
            [
                0.9495610062037924,
                -0.04791334582486854
            ],
            [
                0.9465505530372492,
                -0.05950467779512611
            ],
            [
                0.9054076930944913,
                -0.05682975503275899
            ]
        ]
    ],
    "011": [
        [
            [
                0.7769616913219793,
                -0.04880498674565757
            ],
            [
                0.7358188313792215,
                -0.046130063983290434
            ],
            [
                0.7393310267401887,
                -0.01581427267646289
            ]
        ],
        [
            [
                0.74986761282309,
                0.07513310124401976
            ],
            [
                0.7533798081840571,
                0.1054488925508473
            ],
            [
                0.7789686600996748,
                0.1090154562340035
            ]
        ],
        [
            [
                0.8557352158465277,
                0.11971514728347203
            ],
            [
                0.8813240677621453,
                0.12328171096662822
            ],
            [
                0.8918606538450468,
                0.11882350636268299
            ]
        ],
        [
            [
                0.9234704120937509,
                0.1054488925508473
            ],
            [
                0.9340069981766523,
                0.10099068794690208
            ],
            [
                0.9385226779264673,
                0.08048294676875403
            ]
        ],
        [
            [
                0.9520697171759117,
                0.01895972323430989
            ],
            [
                0.9565853969257266,
                -0.001548017943838159
            ],
            [
                0.9535749437591835,
                -0.01313934991409575
            ]
        ],
        [
            [
                0.9445435842595536,
                -0.04791334582486854
            ],
            [
                0.9415331310930104,
                -0.05950467779512611
            ],
            [
                0.9003902711502526,
                -0.05682975503275899
            ]
        ]
    ],
    "013": [
        [
            [
                0.7368223157680694,
                -0.022055759121986204
            ],
            [
                0.6956794558253117,
                -0.01938083635961907
            ],
            [
                0.6991916511862788,
                0.010934954947208477
            ]
        ],
        [
            [
                0.7097282372691801,
                0.10188232886769111
            ],
            [
                0.7132404326301472,
                0.13219812017451868
            ],
            [
                0.7388292845457649,
                0.1357646838576749
            ]
        ],
        [
            [
                0.8155958402926178,
                0.1464643749071434
            ],
            [
                0.8411846922082354,
                0.1500309385902996
            ],
            [
                0.8517212782911369,
                0.14557273398635437
            ]
        ],
        [
            [
                0.883331036539841,
                0.13219812017451868
            ],
            [
                0.8938676226227424,
                0.12773991557057346
            ],
            [
                0.8983833023725574,
                0.1072321743924254
            ]
        ],
        [
            [
                0.9119303416220018,
                0.045708950857981254
            ],
            [
                0.9164460213718167,
                0.02520120967983321
            ],
            [
                0.9134355682052735,
                0.013609877709575618
            ]
        ],
        [
            [
                0.9044042087056438,
                -0.021164118201197173
            ],
            [
                0.9013937555391005,
                -0.032755450171454745
            ],
            [
                0.8602508955963427,
                -0.030080527409087624
            ]
        ]
    ],
    "015": [
        [
            [
                0.5862996574409067,
                0.044817309937192205
            ],
            [
                0.5451567974981489,
                0.047492232699559336
            ],
            [
                0.5486689928591161,
                0.07780802400638688
            ]
        ],
        [
            [
                0.5592055789420173,
                0.1687553979268695
            ],
            [
                0.5627177743029844,
                0.1990711892336971
            ],
            [
                0.5883066262186021,
                0.2026377529168533
            ]
        ],
        [
            [
                0.6650731819654551,
                0.21333744396632182
            ],
            [
                0.6906620338810726,
                0.216904007649478
            ],
            [
                0.701198619963974,
                0.21244580304553276
            ]
        ],
        [
            [
                0.7328083782126782,
                0.1990711892336971
            ],
            [
                0.7433449642955796,
                0.19461298462975185
            ],
            [
                0.7478606440453945,
                0.1741052434516038
            ]
        ],
        [
            [
                0.7614076832948391,
                0.11258201991715966
            ],
            [
                0.765923363044654,
                0.09207427873901163
            ],
            [
                0.7629129098781108,
                0.08048294676875403
            ]
        ],
        [
            [
                0.7538815503784809,
                0.04570895085798124
            ],
            [
                0.7508710972119378,
                0.03411761888772366
            ],
            [
                0.70972823726918,
                0.036792541650090785
            ]
        ]
    ],
    "016": [
        [
            [
                0.47591637466765413,
                0.12060678820426098
            ],
            [
                0.4347735147248962,
                0.12328171096662809
            ],
            [
                0.4382857100858633,
                0.15359750227345564
            ]
        ],
        [
            [
                0.4488222961687647,
                0.2445448761939383
            ],
            [
                0.4523344915297318,
                0.27486066750076615
            ],
            [
                0.47792334344534965,
                0.27842723118392226
            ]
        ],
        [
            [
                0.5546898991922026,
                0.2891269222333908
            ],
            [
                0.5802787511078201,
                0.292693485916547
            ],
            [
                0.5908153371907215,
                0.28823528131260173
            ]
        ],
        [
            [
                0.6224250954394257,
                0.27486066750076615
            ],
            [
                0.6329616815223271,
                0.2704024628968209
            ],
            [
                0.637477361272142,
                0.24989472171867264
            ]
        ],
        [
            [
                0.6510244005215866,
                0.1883714981842284
            ],
            [
                0.6555400802714015,
                0.1678637570060804
            ],
            [
                0.6525296271048583,
                0.15627242503582275
            ]
        ],
        [
            [
                0.6434982676052284,
                0.12149842912504999
            ],
            [
                0.6404878144386853,
                0.1099070971547924
            ],
            [
                0.5993449544959275,
                0.11258201991715952
            ]
        ]
    ],
    "017": [
        [
            [
                0.4006550455040726,
                0.16518883424371325
            ],
            [
                0.35951218556131465,
                0.16786375700608036
            ],
            [
                0.36302438092228173,
                0.1981795483129079
            ]
        ],
        [
            [
                0.3735609670051831,
                0.28912692223339065
            ],
            [
                0.37707316236615024,
                0.31944271354021847
            ],
            [
                0.40266201428176807,
                0.32300927722337464
            ]
        ],
        [
            [
                0.47942857002862094,
                0.33370896827284324
            ],
            [
                0.5050174219442386,
                0.33727553195599935
            ],
            [
                0.51555400802714,
                0.3328173273520541
            ]
        ],
        [
            [
                0.5471637662758444,
                0.31944271354021847
            ],
            [
                0.5577003523587458,
                0.3149845089362733
            ],
            [
                0.5622160321085607,
                0.29447676775812504
            ]
        ],
        [
            [
                0.5757630713580053,
                0.23295354422368067
            ],
            [
                0.5802787511078201,
                0.21244580304553268
            ],
            [
                0.577268297941277,
                0.20085447107527504
            ]
        ],
        [
            [
                0.5682369384416471,
                0.16608047516450225
            ],
            [
                0.565226485275104,
                0.15448914319424467
            ],
            [
                0.524083625332346,
                0.1571640659566118
            ]
        ]
    ],
    "018": [
        [
            [
                0.24260625426055188,
                0.18747985726343924
            ],
            [
                0.2014633943177939,
                0.19015478002580644
            ],
            [
                0.20497558967876103,
                0.22047057133263395
            ]
        ],
        [
            [
                0.2155121757616624,
                0.31141794525311683
            ],
            [
                0.2190243711226295,
                0.34173373655994466
            ],
            [
                0.24461322303824737,
                0.3453003002431008
            ]
        ],
        [
            [
                0.32137977878510016,
                0.35599999129256943
            ],
            [
                0.3469686307007179,
                0.3595665549757256
            ],
            [
                0.3575052167836193,
                0.3551083503717804
            ]
        ],
        [
            [
                0.3891149750323238,
                0.34173373655994466
            ],
            [
                0.39965156111522526,
                0.3372755319559994
            ],
            [
                0.4041672408650402,
                0.3167677907778513
            ]
        ],
        [
            [
                0.4177142801144845,
                0.2552445672434068
            ],
            [
                0.4222299598642996,
                0.23473682606525872
            ],
            [
                0.4192195066977565,
                0.2231454940950011
            ]
        ],
        [
            [
                0.4101881471981266,
                0.18837149818422827
            ],
            [
                0.4071776940315833,
                0.17678016621397072
            ],
            [
                0.3660348340888253,
                0.17945508897633786
            ]
        ]
    ],
    "019": [
        [
            [
                0.17988847995756746,
                0.21868728949105581
            ],
            [
                0.13874562001480947,
                0.22136221225342295
            ],
            [
                0.14225781537577661,
                0.25167800356025055
            ]
        ],
        [
            [
                0.15279440145867798,
                0.3426253774807336
            ],
            [
                0.1563065968196451,
                0.37294116878756134
            ],
            [
                0.18189544873526298,
                0.3765077324707175
            ]
        ],
        [
            [
                0.25866200448211585,
                0.3872074235201862
            ],
            [
                0.2842508563977335,
                0.3907739872033422
            ],
            [
                0.29478744248063493,
                0.3863157825993971
            ]
        ],
        [
            [
                0.3263972007293395,
                0.37294116878756134
            ],
            [
                0.33693378681224095,
                0.3684829641836161
            ],
            [
                0.3414494665620558,
                0.3479752230054679
            ]
        ],
        [
            [
                0.35499650581150016,
                0.28645199947102346
            ],
            [
                0.35951218556131526,
                0.2659442582928754
            ],
            [
                0.3565017323947721,
                0.25435292632261775
            ]
        ],
        [
            [
                0.3474703728951422,
                0.2195789304118448
            ],
            [
                0.34445991972859896,
                0.20798759844158726
            ],
            [
                0.30331705978584095,
                0.2106625212039544
            ]
        ]
    ],
    "020": [
        [
            [
                0.09208359593338927,
                0.2320619033028915
            ],
            [
                0.0509407359906313,
                0.23473682606525864
            ],
            [
                0.05445293135159844,
                0.26505261737208624
            ]
        ],
        [
            [
                0.06498951743449981,
                0.3559999912925692
            ],
            [
                0.06850171279546692,
                0.38631578259939703
            ],
            [
                0.0940905647110848,
                0.3898823462825532
            ]
        ],
        [
            [
                0.1708571204579377,
                0.40058203733202186
            ],
            [
                0.19644597237355532,
                0.40414860101517786
            ],
            [
                0.20698255845645674,
                0.3996903964112327
            ]
        ],
        [
            [
                0.2385923167051612,
                0.38631578259939703
            ],
            [
                0.24912890278806268,
                0.3818575779954517
            ],
            [
                0.2536445825378776,
                0.36134983681730354
            ]
        ],
        [
            [
                0.26719162178732186,
                0.2998266132828591
            ],
            [
                0.27170730153713696,
                0.279318872104711
            ],
            [
                0.2686968483705938,
                0.2677275401344534
            ]
        ],
        [
            [
                0.25966548887096397,
                0.23295354422368048
            ],
            [
                0.2566550357044207,
                0.22136221225342292
            ],
            [
                0.21551217576166273,
                0.2240371350157901
            ]
        ]
    ],
    "021": [
        [
            [
                0.05947035329583738,
                0.2454365171147272
            ],
            [
                0.018327493353079392,
                0.24811143987709436
            ],
            [
                0.021839688714046544,
                0.27842723118392193
            ]
        ],
        [
            [
                0.03237627479694791,
                0.36937460510440495
            ],
            [
                0.03588847015791501,
                0.3996903964112327
            ],
            [
                0.06147732207353291,
                0.40325696009438894
            ]
        ],
        [
            [
                0.1382438778203858,
                0.41395665114385755
            ],
            [
                0.16383272973600344,
                0.41752321482701354
            ],
            [
                0.17436931581890486,
                0.4130650102230684
            ]
        ],
        [
            [
                0.20597907406760932,
                0.3996903964112327
            ],
            [
                0.2165156601505108,
                0.3952321918072874
            ],
            [
                0.22103133990032567,
                0.3747244506291393
            ]
        ],
        [
            [
                0.23457837914976995,
                0.31320122709469483
            ],
            [
                0.23909405889958507,
                0.29269348591654676
            ],
            [
                0.2360836057330419,
                0.2811021539462891
            ]
        ],
        [
            [
                0.22705224623341203,
                0.24632815803551616
            ],
            [
                0.2240417930668688,
                0.2347368260652586
            ],
            [
                0.18289893312411082,
                0.23741174882762575
            ]
        ]
    ],
    "022": [
        [
            [
                0.019330977741927345,
                0.24989472171867239
            ],
            [
                -0.02181188220083064,
                0.2525696444810395
            ],
            [
                -0.018299686839863494,
                0.2828854357878671
            ]
        ],
        [
            [
                -0.00776310075696213,
                0.37383280970835014
            ],
            [
                -0.004250905395995017,
                0.4041486010151779
            ],
            [
                0.021337946519622876,
                0.40771516469833413
            ]
        ],
        [
            [
                0.09810450226647578,
                0.41841485574780274
            ],
            [
                0.12369335418209346,
                0.4219814194309588
            ],
            [
                0.13422994026499482,
                0.41752321482701366
            ]
        ],
        [
            [
                0.1658396985136993,
                0.4041486010151779
            ],
            [
                0.17637628459660076,
                0.3996903964112326
            ],
            [
                0.18089196434641563,
                0.3791826552330845
            ]
        ],
        [
            [
                0.19443900359585997,
                0.31765943169864
            ],
            [
                0.19895468334567507,
                0.297151690520492
            ],
            [
                0.19594423017913193,
                0.2855603585502343
            ]
        ],
        [
            [
                0.18691287067950205,
                0.25078636263946136
            ],
            [
                0.18390241751295877,
                0.2391950306692038
            ],
            [
                0.14275955757020084,
                0.24186995343157097
            ]
        ]
    ],
    "023": [
        [
            [
                -0.04589550753317646,
                0.27218574473839857
            ],
            [
                -0.08703836747593445,
                0.2748606675007657
            ],
            [
                -0.08352617211496731,
                0.30517645880759336
            ]
        ],
        [
            [
                -0.07298958603206594,
                0.39612383272807633
            ],
            [
                -0.06947739067109883,
                0.4264396240349042
            ],
            [
                -0.04388853875548093,
                0.4300061877180603
            ]
        ],
        [
            [
                0.032878016991371974,
                0.4407058787675289
            ],
            [
                0.05846686890698964,
                0.444272442450685
            ],
            [
                0.069003454989891,
                0.4398142378467399
            ]
        ],
        [
            [
                0.1006132132385955,
                0.4264396240349042
            ],
            [
                0.11114979932149695,
                0.42198141943095885
            ],
            [
                0.11566547907131183,
                0.40147367825281066
            ]
        ],
        [
            [
                0.12921251832075614,
                0.3399504547183662
            ],
            [
                0.13372819807057124,
                0.3194427135402182
            ],
            [
                0.1307177449040281,
                0.3078513815699605
            ]
        ],
        [
            [
                0.12168638540439822,
                0.2730773856591876
            ],
            [
                0.11867593223785498,
                0.26148605368893
            ],
            [
                0.07753307229509702,
                0.26416097645129716
            ]
        ]
    ],
    "024": [
        [
            [
                -0.09606972697556401,
                0.27664394934234376
            ],
            [
                -0.137212586918322,
                0.2793188721047109
            ],
            [
                -0.13370039155735483,
                0.30963466341153856
            ]
        ],
        [
            [
                -0.12316380547445352,
                0.4005820373320215
            ],
            [
                -0.11965161011348639,
                0.43089782863884946
            ],
            [
                -0.09406275819786848,
                0.43446439232200545
            ]
        ],
        [
            [
                -0.017296202451015572,
                0.4451640833714741
            ],
            [
                0.0082926494646021,
                0.4487306470546301
            ],
            [
                0.01882923554750345,
                0.4442724424506851
            ]
        ],
        [
            [
                0.050438993796207934,
                0.43089782863884946
            ],
            [
                0.06097557987910939,
                0.4264396240349042
            ],
            [
                0.06549125962892427,
                0.4059318828567558
            ]
        ],
        [
            [
                0.07903829887836858,
                0.3444086593223114
            ],
            [
                0.08355397862818369,
                0.32390091814416333
            ],
            [
                0.08054352546164054,
                0.3123095861739057
            ]
        ],
        [
            [
                0.07151216596201065,
                0.2775355902631328
            ],
            [
                0.06850171279546742,
                0.2659442582928752
            ],
            [
                0.02735885285270946,
                0.2686191810552424
            ]
        ]
    ],
    "025": [
        [
            [
                -0.10861328183616091,
                0.28556035855023426
            ],
            [
                -0.1497561417789189,
                0.2882352813126014
            ],
            [
                -0.14624394641795171,
                0.31855107261942905
            ]
        ],
        [
            [
                -0.1357073603350504,
                0.4094984465399121
            ],
            [
                -0.1321951649740833,
                0.43981423784673995
            ],
            [
                -0.10660631305846537,
                0.44338080152989595
            ]
        ],
        [
            [
                -0.029839757311612456,
                0.4540804925793646
            ],
            [
                -0.004250905395994786,
                0.45764705626252067
            ],
            [
                0.006285680686906565,
                0.4531888516585756
            ]
        ],
        [
            [
                0.03789543893561105,
                0.43981423784673995
            ],
            [
                0.04843202501851251,
                0.4353560332427947
            ],
            [
                0.05294770476832738,
                0.4148482920646463
            ]
        ],
        [
            [
                0.0664947440177717,
                0.35332506853020196
            ],
            [
                0.0710104237675868,
                0.3328173273520539
            ],
            [
                0.06799997060104365,
                0.32122599538179625
            ]
        ],
        [
            [
                0.05896861110141378,
                0.2864519994710233
            ],
            [
                0.055958157934870544,
                0.2748606675007657
            ],
            [
                0.01481529799211258,
                0.2775355902631329
            ]
        ]
    ],
    "027": [
        [
            [
                -0.12617425864099657,
                0.29447676775812476
            ],
            [
                -0.16731711858375453,
                0.29715169052049195
            ],
            [
                -0.16380492322278734,
                0.32746748182731955
            ]
        ],
        [
            [
                -0.15326833713988602,
                0.41841485574780257
            ],
            [
                -0.14975614177891888,
                0.44873064705463045
            ],
            [
                -0.12416728986330104,
                0.45229721073778645
            ]
        ],
        [
            [
                -0.047400734116448094,
                0.46299690178725517
            ],
            [
                -0.021811882200830423,
                0.46656346547041117
            ],
            [
                -0.011275296117929075,
                0.4621052608664661
            ]
        ],
        [
            [
                0.02033446213077541,
                0.44873064705463045
            ],
            [
                0.03087104821367687,
                0.4442724424506852
            ],
            [
                0.035386727963491744,
                0.4237647012725368
            ]
        ],
        [
            [
                0.04893376721293606,
                0.36224147773809245
            ],
            [
                0.05344944696275116,
                0.3417337365599444
            ],
            [
                0.05043899379620802,
                0.33014240458968674
            ]
        ],
        [
            [
                0.041407634296578136,
                0.2953684086789138
            ],
            [
                0.0383971811300349,
                0.2837770767086562
            ],
            [
                -0.00274567881272306,
                0.2864519994710234
            ]
        ]
    ],
    "030": [
        [
            [
                -0.17133105613914534,
                0.3123095861739056
            ],
            [
                -0.2124739160819033,
                0.3149845089362727
            ],
            [
                -0.2089617207209361,
                0.3453003002431004
            ]
        ],
        [
            [
                -0.1984251346380348,
                0.43624767416358334
            ],
            [
                -0.19491293927706765,
                0.4665634654704113
            ],
            [
                -0.16932408736144983,
                0.4701300291535673
            ]
        ],
        [
            [
                -0.09255753161459689,
                0.480829720203036
            ],
            [
                -0.06696867969897921,
                0.48439628388619194
            ],
            [
                -0.05643209361607786,
                0.47993807928224697
            ]
        ],
        [
            [
                -0.02482233536737338,
                0.4665634654704113
            ],
            [
                -0.014285749284471917,
                0.462105260866466
            ],
            [
                -0.009770069534657042,
                0.44159751968831756
            ]
        ],
        [
            [
                0.0037769697147872704,
                0.3800742961538732
            ],
            [
                0.008292649464602377,
                0.35956655497572515
            ],
            [
                0.005282196298059233,
                0.3479752230054675
            ]
        ],
        [
            [
                -0.0037491632015706506,
                0.3132012270946946
            ],
            [
                -0.0067596163681138835,
                0.30160989512443703
            ],
            [
                -0.04790247631087185,
                0.3042848178868042
            ]
        ]
    ],
    "033": [
        [
            [
                -0.19641816586033914,
                0.31676779077785083
            ],
            [
                -0.23756102580309707,
                0.31944271354021797
            ],
            [
                -0.23404883044212987,
                0.3497585048470456
            ]
        ],
        [
            [
                -0.2235122443592286,
                0.4407058787675286
            ],
            [
                -0.22000004899826145,
                0.4710216700743565
            ],
            [
                -0.19441119708264362,
                0.4745882337575125
            ]
        ],
        [
            [
                -0.11764464133579068,
                0.4852879248069812
            ],
            [
                -0.09205578942017299,
                0.48885448849013713
            ],
            [
                -0.08151920333727163,
                0.48439628388619216
            ]
        ],
        [
            [
                -0.04990944508856716,
                0.4710216700743565
            ],
            [
                -0.039372859005665686,
                0.4665634654704113
            ],
            [
                -0.034857179255850815,
                0.4460557242922628
            ]
        ],
        [
            [
                -0.021310140006406502,
                0.38453250075781853
            ],
            [
                -0.016794460256591395,
                0.3640247595796704
            ],
            [
                -0.01980491342313454,
                0.3524334276094128
            ]
        ],
        [
            [
                -0.02883627292276442,
                0.31765943169863986
            ],
            [
                -0.03184672608930765,
                0.3060680997283823
            ],
            [
                -0.07298958603206561,
                0.3087430224907495
            ]
        ]
    ],
    "044": [
        [
            [
                -0.1914007439161004,
                0.31230958617390564
            ],
            [
                -0.23254360385885833,
                0.3149845089362727
            ],
            [
                -0.22903140849789114,
                0.3453003002431004
            ]
        ],
        [
            [
                -0.21849482241498983,
                0.43624767416358334
            ],
            [
                -0.21498262705402268,
                0.4665634654704113
            ],
            [
                -0.18939377513840489,
                0.4701300291535673
            ]
        ],
        [
            [
                -0.1126272193915519,
                0.480829720203036
            ],
            [
                -0.08703836747593423,
                0.48439628388619194
            ],
            [
                -0.07650178139303286,
                0.47993807928224697
            ]
        ],
        [
            [
                -0.0448920231443284,
                0.4665634654704113
            ],
            [
                -0.034355437061426936,
                0.462105260866466
            ],
            [
                -0.029839757311612054,
                0.44159751968831756
            ]
        ],
        [
            [
                -0.016292718062167748,
                0.3800742961538732
            ],
            [
                -0.011777038312352642,
                0.35956655497572515
            ],
            [
                -0.014787491478895787,
                0.3479752230054675
            ]
        ],
        [
            [
                -0.023818850978525666,
                0.3132012270946946
            ],
            [
                -0.026829304145068896,
                0.30160989512443703
            ],
            [
                -0.06797216408782684,
                0.3042848178868042
            ]
        ]
    ],
    "046": [
        [
            [
                -0.13119168058523537,
                0.28556035855023426
            ],
            [
                -0.17233454052799332,
                0.2882352813126014
            ],
            [
                -0.16882234516702613,
                0.31855107261942905
            ]
        ],
        [
            [
                -0.15828575908412482,
                0.409498446539912
            ],
            [
                -0.15477356372315768,
                0.4398142378467399
            ],
            [
                -0.12918471180753985,
                0.44338080152989595
            ]
        ],
        [
            [
                -0.05241815606068685,
                0.45408049257936467
            ],
            [
                -0.026829304145069174,
                0.45764705626252067
            ],
            [
                -0.01629271806216781,
                0.45318885165857564
            ]
        ],
        [
            [
                0.015317040186536648,
                0.4398142378467399
            ],
            [
                0.025853626269438112,
                0.43535603324279465
            ],
            [
                0.03036930601925299,
                0.41484829206464613
            ]
        ],
        [
            [
                0.043916345268697296,
                0.3533250685302019
            ],
            [
                0.048432025018512403,
                0.3328173273520538
            ],
            [
                0.04542157185196926,
                0.3212259953817962
            ]
        ],
        [
            [
                0.036390212352339385,
                0.28645199947102323
            ],
            [
                0.03337975918579615,
                0.27486066750076565
            ],
            [
                -0.007763100756961812,
                0.27753559026313285
            ]
        ]
    ],
    "048": [
        [
            [
                0.004278711909211012,
                0.24097831251078197
            ],
            [
                -0.03686414803354695,
                0.2436532352731492
            ],
            [
                -0.033351952672579746,
                0.27396902657997685
            ]
        ],
        [
            [
                -0.022815366589678452,
                0.3649164005004597
            ],
            [
                -0.01930317122871132,
                0.3952321918072877
            ],
            [
                0.006285680686906518,
                0.39879875549044375
            ]
        ],
        [
            [
                0.08305223643375953,
                0.4094984465399124
            ],
            [
                0.10864108834937722,
                0.4130650102230684
            ],
            [
                0.1191776744322786,
                0.4086068056191235
            ]
        ],
        [
            [
                0.15078743268098307,
                0.3952321918072877
            ],
            [
                0.16132401876388452,
                0.39077398720334244
            ],
            [
                0.1658396985136994,
                0.370266246025194
            ]
        ],
        [
            [
                0.17938673776314365,
                0.30874302249074964
            ],
            [
                0.18390241751295877,
                0.2882352813126016
            ],
            [
                0.18089196434641563,
                0.27664394934234393
            ]
        ],
        [
            [
                0.17186060484678575,
                0.24186995343157108
            ],
            [
                0.16885015168024256,
                0.2302786214613134
            ],
            [
                0.1277072917374846,
                0.2329535442236806
            ]
        ]
    ],
    "051": [
        [
            [
                0.34546340411744636,
                0.1651888342437131
            ],
            [
                0.30432054417468835,
                0.16786375700608033
            ],
            [
                0.30783273953565554,
                0.19817954831290796
            ]
        ],
        [
            [
                0.31836932561855685,
                0.2891269222333907
            ],
            [
                0.32188152097952394,
                0.31944271354021875
            ],
            [
                0.3474703728951418,
                0.3230092772233748
            ]
        ],
        [
            [
                0.42423692864199486,
                0.3337089682728434
            ],
            [
                0.4498257805576126,
                0.33727553195599946
            ],
            [
                0.46036236664051394,
                0.33281732735205455
            ]
        ],
        [
            [
                0.4919721248892184,
                0.31944271354021875
            ],
            [
                0.5025087109721198,
                0.3149845089362735
            ],
            [
                0.5070243907219346,
                0.294476767758125
            ]
        ],
        [
            [
                0.520571429971379,
                0.23295354422368075
            ],
            [
                0.525087109721194,
                0.2124458030455328
            ],
            [
                0.5220766565546509,
                0.2008544710752751
            ]
        ],
        [
            [
                0.513045297055021,
                0.16608047516450217
            ],
            [
                0.5100348438884779,
                0.1544891431942445
            ],
            [
                0.4688919839457199,
                0.15716406595661173
            ]
        ]
    ],
    "053": [
        [
            [
                0.5035121953609674,
                0.11614858360031567
            ],
            [
                0.46236933541820935,
                0.11882350636268287
            ],
            [
                0.46588153077917654,
                0.14913929766951053
            ]
        ],
        [
            [
                0.47641811686207786,
                0.2400866715899932
            ],
            [
                0.47993031222304494,
                0.2704024628968212
            ],
            [
                0.5055191641386628,
                0.2739690265799772
            ]
        ],
        [
            [
                0.5822857198855156,
                0.28466871762944584
            ],
            [
                0.6078745718011331,
                0.2882352813126019
            ],
            [
                0.6184111578840346,
                0.28377707670865704
            ]
        ],
        [
            [
                0.6500209161327389,
                0.2704024628968212
            ],
            [
                0.6605575022156404,
                0.26594425829287593
            ],
            [
                0.6650731819654552,
                0.24543651711472733
            ]
        ],
        [
            [
                0.6786202212148995,
                0.1839132935802833
            ],
            [
                0.6831359009647145,
                0.16340555240213536
            ],
            [
                0.6801254477981715,
                0.15181422043187767
            ]
        ],
        [
            [
                0.6710940882985416,
                0.11704022452110471
            ],
            [
                0.6680836351319984,
                0.10544889255084706
            ],
            [
                0.6269407751892405,
                0.10812381531321429
            ]
        ]
    ],
    "055": [
        [
            [
                0.7192613389632337,
                0.0403591053332468
            ],
            [
                0.6781184790204756,
                0.04303402809561401
            ],
            [
                0.6816306743814429,
                0.07334981940244166
            ]
        ],
        [
            [
                0.6921672604643442,
                0.1642971933229244
            ],
            [
                0.6956794558253113,
                0.1946129846297523
            ],
            [
                0.7212683077409292,
                0.19817954831290832
            ]
        ],
        [
            [
                0.798034863487782,
                0.20887923936237698
            ],
            [
                0.8236237154033995,
                0.21244580304553304
            ],
            [
                0.8341603014863009,
                0.20798759844158815
            ]
        ],
        [
            [
                0.8657700597350053,
                0.1946129846297523
            ],
            [
                0.8763066458179067,
                0.19015478002580705
            ],
            [
                0.8808223255677216,
                0.16964703884765847
            ]
        ],
        [
            [
                0.8943693648171659,
                0.10812381531321444
            ],
            [
                0.8988850445669809,
                0.08761607413506652
            ],
            [
                0.8958745914004378,
                0.0760247421648088
            ]
        ],
        [
            [
                0.8868432319008079,
                0.04125074625403585
            ],
            [
                0.8838327787342648,
                0.029659414283778218
            ],
            [
                0.8426899187915069,
                0.032334337046145425
            ]
        ]
    ],
    "056": [
        [
            [
                0.7468571596565468,
                0.022526286917465888
            ],
            [
                0.7057142997137886,
                0.0252012096798331
            ],
            [
                0.7092264950747559,
                0.05551700098666075
            ]
        ],
        [
            [
                0.7197630811576572,
                0.14646437490714348
            ],
            [
                0.7232752765186243,
                0.17678016621397138
            ],
            [
                0.7488641284342422,
                0.1803467298971274
            ]
        ],
        [
            [
                0.825630684181095,
                0.19104642094659607
            ],
            [
                0.8512195360967125,
                0.19461298462975213
            ],
            [
                0.861756122179614,
                0.19015478002580724
            ]
        ],
        [
            [
                0.8933658804283183,
                0.17678016621397138
            ],
            [
                0.9039024665112197,
                0.17232196161002614
            ],
            [
                0.9084181462610346,
                0.15181422043187756
            ]
        ],
        [
            [
                0.9219651855104789,
                0.09029099689743353
            ],
            [
                0.9264808652602939,
                0.0697832557192856
            ],
            [
                0.9234704120937509,
                0.058191923749027895
            ]
        ],
        [
            [
                0.914439052594121,
                0.023417927838254943
            ],
            [
                0.9114285994275779,
                0.011826595867997306
            ],
            [
                0.8702857394848199,
                0.014501518630364514
            ]
        ]
    ],
    "057": [
        [
            [
                0.7844878242383376,
                -0.013139349914095938
            ],
            [
                0.7433449642955794,
                -0.010464427151728729
            ],
            [
                0.7468571596565466,
                0.019851364155098934
            ]
        ],
        [
            [
                0.757393745739448,
                0.11079873807558167
            ],
            [
                0.7609059411004151,
                0.14111452938240956
            ],
            [
                0.786494793016033,
                0.14468109306556556
            ]
        ],
        [
            [
                0.8632613487628858,
                0.15538078411503425
            ],
            [
                0.8888502006785033,
                0.1589473477981903
            ],
            [
                0.8993867867614047,
                0.1544891431942454
            ]
        ],
        [
            [
                0.9309965450101091,
                0.14111452938240956
            ],
            [
                0.9415331310930105,
                0.13665632477846432
            ],
            [
                0.9460488108428253,
                0.11614858360031574
            ]
        ],
        [
            [
                0.9595958500922698,
                0.05462536006587171
            ],
            [
                0.9641115298420847,
                0.03411761888772378
            ],
            [
                0.9611010766755417,
                0.022526286917466075
            ]
        ],
        [
            [
                0.9520697171759117,
                -0.012247708993306884
            ],
            [
                0.9490592640093687,
                -0.023839040963564515
            ],
            [
                0.9079164040666108,
                -0.021164118201197308
            ]
        ]
    ],
    "058": [
        [
            [
                0.8196097778480087,
                -0.017597554518041163
            ],
            [
                0.7784669179052506,
                -0.014922631755673956
            ],
            [
                0.7819791132662178,
                0.015393159551153708
            ]
        ],
        [
            [
                0.7925156993491191,
                0.10634053347163645
            ],
            [
                0.7960278947100863,
                0.13665632477846432
            ],
            [
                0.8216167466257042,
                0.14022288846162034
            ]
        ],
        [
            [
                0.8983833023725569,
                0.15092257951108903
            ],
            [
                0.9239721542881745,
                0.1544891431942451
            ],
            [
                0.9345087403710759,
                0.15003093859030017
            ]
        ],
        [
            [
                0.9661184986197803,
                0.13665632477846432
            ],
            [
                0.9766550847026817,
                0.1321981201745191
            ],
            [
                0.9811707644524965,
                0.11169037899637052
            ]
        ],
        [
            [
                0.9947178037019409,
                0.05016715546192648
            ],
            [
                0.9992334834517559,
                0.029659414283778548
            ],
            [
                0.9962230302852129,
                0.018068082313520847
            ]
        ],
        [
            [
                0.9871916707855829,
                -0.01670591359725211
            ],
            [
                0.9841812176190399,
                -0.028297245567509743
            ],
            [
                0.9430383576762819,
                -0.025622322805142535
            ]
        ]
    ],
    "059": [
        [
            [
                0.8722927082625158,
                -0.05326319134960299
            ],
            [
                0.8311498483197577,
                -0.05058826858723577
            ],
            [
                0.8346620436807249,
                -0.020272477280408114
            ]
        ],
        [
            [
                0.8451986297636263,
                0.07067489664007463
            ],
            [
                0.8487108251245934,
                0.10099068794690251
            ],
            [
                0.8742996770402113,
                0.10455725163005851
            ]
        ],
        [
            [
                0.951066232787064,
                0.1152569426795272
            ],
            [
                0.9766550847026816,
                0.11882350636268325
            ],
            [
                0.987191670785583,
                0.11436530175873835
            ]
        ],
        [
            [
                1.0188014290342873,
                0.10099068794690251
            ],
            [
                1.0293380151171883,
                0.09653248334295728
            ],
            [
                1.0338536948670034,
                0.0760247421648087
            ]
        ],
        [
            [
                1.0474007341164482,
                0.014501518630364661
            ],
            [
                1.051916413866263,
                -0.006006222547783274
            ],
            [
                1.0489059606997198,
                -0.017597554518040973
            ]
        ],
        [
            [
                1.0398746012000897,
                -0.05237155042881393
            ],
            [
                1.036864148033547,
                -0.06396288239907157
            ],
            [
                0.995721288090789,
                -0.06128795963670436
            ]
        ]
    ],
    "060": [
        [
            [
                0.9099233728443065,
                -0.06663780516143866
            ],
            [
                0.8687805129015483,
                -0.06396288239907146
            ],
            [
                0.8722927082625156,
                -0.0336470910922438
            ]
        ],
        [
            [
                0.8828292943454169,
                0.057300282828238944
            ],
            [
                0.886341489706384,
                0.08761607413506682
            ],
            [
                0.9119303416220019,
                0.09118263781822283
            ]
        ],
        [
            [
                0.9886968973688547,
                0.10188232886769152
            ],
            [
                1.0142857492844721,
                0.10544889255084758
            ],
            [
                1.0248223353673735,
                0.10099068794690266
            ]
        ],
        [
            [
                1.0564320936160778,
                0.08761607413506682
            ],
            [
                1.0669686796989788,
                0.0831578695311216
            ],
            [
                1.071484359448794,
                0.06265012835297301
            ]
        ],
        [
            [
                1.0850313986982387,
                0.0011269048185289772
            ],
            [
                1.0895470784480534,
                -0.019380836359618958
            ],
            [
                1.0865366252815103,
                -0.03097216832987666
            ]
        ],
        [
            [
                1.0775052657818802,
                -0.06574616424064962
            ],
            [
                1.0744948126153375,
                -0.07733749621090724
            ],
            [
                1.0333519526725796,
                -0.07466257344854005
            ]
        ]
    ],
    "069": [
        [
            [
                0.8973798179837097,
                -0.07555421436932912
            ],
            [
                0.8562369580409516,
                -0.07287929160696191
            ],
            [
                0.8597491534019188,
                -0.042563500300134255
            ]
        ],
        [
            [
                0.8702857394848201,
                0.04838387362034849
            ],
            [
                0.8737979348457873,
                0.07869966492717637
            ],
            [
                0.899386786761405,
                0.08226622861033238
            ]
        ],
        [
            [
                0.9761533425082579,
                0.09296591965980107
            ],
            [
                1.0017421944238754,
                0.09653248334295712
            ],
            [
                1.0122787805067768,
                0.09207427873901221
            ]
        ],
        [
            [
                1.043888538755481,
                0.07869966492717637
            ],
            [
                1.054425124838382,
                0.07424146032323115
            ],
            [
                1.0589408045881972,
                0.05373371914508256
            ]
        ],
        [
            [
                1.072487843837642,
                -0.007789504389361479
            ],
            [
                1.0770035235874567,
                -0.028297245567509413
            ],
            [
                1.0739930704209135,
                -0.03988857753776712
            ]
        ],
        [
            [
                1.0649617109212834,
                -0.07466257344854008
            ],
            [
                1.0619512577547405,
                -0.0862539054187977
            ],
            [
                1.0208083978119828,
                -0.0835789826564305
            ]
        ]
    ],
    "070": [
        [
            [
                0.819609777848009,
                -0.062179600557493483
            ],
            [
                0.7784669179052508,
                -0.05950467779512627
            ],
            [
                0.781979113266218,
                -0.0291888864882986
            ]
        ],
        [
            [
                0.7925156993491194,
                0.06175848743218415
            ],
            [
                0.7960278947100865,
                0.09207427873901203
            ],
            [
                0.8216167466257044,
                0.09564084242216803
            ]
        ],
        [
            [
                0.8983833023725573,
                0.10634053347163672
            ],
            [
                0.9239721542881746,
                0.10990709715479278
            ],
            [
                0.9345087403710761,
                0.10544889255084787
            ]
        ],
        [
            [
                0.9661184986197804,
                0.09207427873901203
            ],
            [
                0.9766550847026814,
                0.0876160741350668
            ],
            [
                0.9811707644524965,
                0.06710833295691822
            ]
        ],
        [
            [
                0.9947178037019415,
                0.005585109422474172
            ],
            [
                0.9992334834517561,
                -0.014922631755673765
            ],
            [
                0.9962230302852126,
                -0.026513963725931466
            ]
        ],
        [
            [
                0.9871916707855827,
                -0.06128795963670443
            ],
            [
                0.98418121761904,
                -0.07287929160696205
            ],
            [
                0.9430383576762822,
                -0.07020436884459484
            ]
        ]
    ],
    "071": [
        [
            [
                0.7644181364613826,
                -0.0488049867456578
            ],
            [
                0.7232752765186244,
                -0.04613006398329059
            ],
            [
                0.7267874718795917,
                -0.015814272676462918
            ]
        ],
        [
            [
                0.737324057962493,
                0.07513310124401983
            ],
            [
                0.7408362533234601,
                0.1054488925508477
            ],
            [
                0.766425105239078,
                0.10901545623400372
            ]
        ],
        [
            [
                0.8431916609859308,
                0.1197151472834724
            ],
            [
                0.8687805129015482,
                0.12328171096662843
            ],
            [
                0.8793170989844498,
                0.11882350636268355
            ]
        ],
        [
            [
                0.910926857233154,
                0.1054488925508477
            ],
            [
                0.921463443316055,
                0.10099068794690245
            ],
            [
                0.9259791230658702,
                0.0804829467687539
            ]
        ],
        [
            [
                0.9395261623153152,
                0.018959723234309854
            ],
            [
                0.9440418420651298,
                -0.0015480179438380817
            ],
            [
                0.9410313888985863,
                -0.01313934991409578
            ]
        ],
        [
            [
                0.9320000293989563,
                -0.047913345824868746
            ],
            [
                0.9289895762324136,
                -0.05950467779512636
            ],
            [
                0.8878467162896558,
                -0.05682975503275916
            ]
        ]
    ],
    "073": [
        [
            [
                0.5762648135524294,
                0.12060678820426078
            ],
            [
                0.5351219536096712,
                0.12328171096662802
            ],
            [
                0.5386341489706384,
                0.1535975022734557
            ]
        ],
        [
            [
                0.5491707350535397,
                0.24454487619393844
            ],
            [
                0.552682930414507,
                0.27486066750076643
            ],
            [
                0.5782717823301248,
                0.2784272311839225
            ]
        ],
        [
            [
                0.6550383380769775,
                0.28912692223339115
            ],
            [
                0.6806271899925951,
                0.2926934859165472
            ],
            [
                0.6911637760754966,
                0.2882352813126023
            ]
        ],
        [
            [
                0.7227735343242008,
                0.27486066750076643
            ],
            [
                0.7333101204071019,
                0.2704024628968211
            ],
            [
                0.737825800156917,
                0.24989472171867252
            ]
        ],
        [
            [
                0.7513728394063619,
                0.18837149818422844
            ],
            [
                0.7558885191561766,
                0.16786375700608053
            ],
            [
                0.7528780659896329,
                0.15627242503582284
            ]
        ],
        [
            [
                0.7438467064900032,
                0.12149842912504988
            ],
            [
                0.7408362533234604,
                0.10990709715479224
            ],
            [
                0.6996933933807026,
                0.11258201991715942
            ]
        ]
    ],
    "075": [
        [
            [
                0.2902717627308204,
                0.25881113092656266
            ],
            [
                0.24912890278806202,
                0.2614860536889299
            ],
            [
                0.25264109814902935,
                0.29180184499575773
            ]
        ],
        [
            [
                0.26317768423193066,
                0.3827492189162405
            ],
            [
                0.2666898795928979,
                0.4130650102230686
            ],
            [
                0.29227873150851574,
                0.41663157390622446
            ]
        ],
        [
            [
                0.36904528725536845,
                0.4273312649556931
            ],
            [
                0.39463413917098605,
                0.4308978286388493
            ],
            [
                0.4051707252538876,
                0.42643962403490426
            ]
        ],
        [
            [
                0.43678048350259185,
                0.4130650102230686
            ],
            [
                0.44731706958549317,
                0.4086068056191232
            ],
            [
                0.4518327493353082,
                0.38809906444097464
            ]
        ],
        [
            [
                0.4653797885847532,
                0.32657584090653047
            ],
            [
                0.46989546833456786,
                0.30606809972838256
            ],
            [
                0.46688501516802405,
                0.294476767758125
            ]
        ],
        [
            [
                0.45785365566839437,
                0.25970277184735185
            ],
            [
                0.45484320250185173,
                0.24811143987709414
            ],
            [
                0.41370034255909366,
                0.2507863626394614
            ]
        ]
    ],
    "078": [
        [
            [
                0.10462715079398646,
                0.3836408598370292
            ],
            [
                0.06348429085122807,
                0.3863157825993963
            ],
            [
                0.06699648621219542,
                0.41663157390622424
            ]
        ],
        [
            [
                0.07753307229509672,
                0.5075789478267069
            ],
            [
                0.08104526765606397,
                0.5378947391335349
            ],
            [
                0.10663411957168183,
                0.5414613028166908
            ]
        ],
        [
            [
                0.18340067531853455,
                0.5521609938661596
            ],
            [
                0.20898952723415218,
                0.5557275575493157
            ],
            [
                0.21952611331705377,
                0.5512693529453708
            ]
        ],
        [
            [
                0.25113587156575806,
                0.5378947391335349
            ],
            [
                0.2616724576486594,
                0.5334365345295896
            ],
            [
                0.2661881373984744,
                0.5129287933514411
            ]
        ],
        [
            [
                0.27973517664791936,
                0.4514055698169969
            ],
            [
                0.28425085639773406,
                0.430897828638849
            ],
            [
                0.28124040323119026,
                0.41930649666859143
            ]
        ],
        [
            [
                0.2722090437315606,
                0.3845325007578184
            ],
            [
                0.2691985905650179,
                0.3729411687875607
            ],
            [
                0.22805573062225984,
                0.37561609154992787
            ]
        ]
    ],
    "080": [
        [
            [
                -0.11363070378039941,
                0.33014240458968636
            ],
            [
                -0.1547735637231578,
                0.3328173273520535
            ],
            [
                -0.15126136836219042,
                0.36313311865888137
            ]
        ],
        [
            [
                -0.14072478227928914,
                0.45408049257936406
            ],
            [
                -0.13721258691832192,
                0.48439628388619216
            ],
            [
                -0.11162373500270406,
                0.4879628475693481
            ]
        ],
        [
            [
                -0.03485717925585139,
                0.4986625386188168
            ],
            [
                -0.009268327340233747,
                0.502229102301973
            ],
            [
                0.0012682587426678567,
                0.4977708976980282
            ]
        ],
        [
            [
                0.03287801699137222,
                0.48439628388619216
            ],
            [
                0.04341460307427356,
                0.47993807928224685
            ],
            [
                0.04793028282408858,
                0.45943033810409833
            ]
        ],
        [
            [
                0.06147732207353355,
                0.39790711456965416
            ],
            [
                0.06599300182334823,
                0.37739937339150625
            ],
            [
                0.06298254865680446,
                0.36580804142124856
            ]
        ],
        [
            [
                0.05395118915717469,
                0.33103404551047555
            ],
            [
                0.050940735990632126,
                0.31944271354021786
            ],
            [
                0.0097978760478739,
                0.32211763630258505
            ]
        ]
    ],
    "081": [
        [
            [
                -0.16631363419490636,
                0.3346006091936315
            ],
            [
                -0.20745649413766468,
                0.33727553195599863
            ],
            [
                -0.20394429877669734,
                0.3675913232628265
            ]
        ],
        [
            [
                -0.19340771269379606,
                0.4585386971833092
            ],
            [
                -0.18989551733282883,
                0.48885448849013724
            ],
            [
                -0.16430666541721098,
                0.4924210521732932
            ]
        ],
        [
            [
                -0.08754010967035844,
                0.5031207432227619
            ],
            [
                -0.06195125775474074,
                0.5066873069059181
            ],
            [
                -0.051414671671839135,
                0.5022291023019733
            ]
        ],
        [
            [
                -0.019804913423134767,
                0.48885448849013724
            ],
            [
                -0.00926832734023343,
                0.48439628388619194
            ],
            [
                -0.004752647590418413,
                0.4638885427080435
            ]
        ],
        [
            [
                0.008794391659026558,
                0.4023653191735993
            ],
            [
                0.013310071408841237,
                0.3818575779954514
            ],
            [
                0.010299618242297475,
                0.3702662460251937
            ]
        ],
        [
            [
                0.0012682587426676958,
                0.3354922501144207
            ],
            [
                -0.0017421944238748658,
                0.32390091814416305
            ],
            [
                -0.0428850543666331,
                0.3265758409065302
            ]
        ]
    ],
    "084": [
        [
            [
                -0.21397914266517454,
                0.29447676775812426
            ],
            [
                -0.2551220026079329,
                0.2971516905204914
            ],
            [
                -0.2516098072469655,
                0.3274674818273193
            ]
        ],
        [
            [
                -0.24107322116406424,
                0.418414855747802
            ],
            [
                -0.237561025803097,
                0.4487306470546301
            ],
            [
                -0.2119721738874792,
                0.45229721073778617
            ]
        ],
        [
            [
                -0.13520561814062662,
                0.46299690178725494
            ],
            [
                -0.10961676622500892,
                0.4665634654704113
            ],
            [
                -0.09908018014210732,
                0.4621052608664663
            ]
        ],
        [
            [
                -0.06747042189340294,
                0.4487306470546301
            ],
            [
                -0.0569338358105016,
                0.44427244245068476
            ],
            [
                -0.05241815606068658,
                0.4237647012725363
            ]
        ],
        [
            [
                -0.038871116811241606,
                0.3622414777380921
            ],
            [
                -0.034355437061426936,
                0.3417337365599442
            ],
            [
                -0.03736589022797069,
                0.3301424045896864
            ]
        ],
        [
            [
                -0.046397249727600474,
                0.29536840867891345
            ],
            [
                -0.04940770289414303,
                0.2837770767086559
            ],
            [
                -0.09055056283690126,
                0.28645199947102296
            ]
        ]
    ],
    "144": [
        [
            [
                -0.20896172072093572,
                0.18747985726343885
            ],
            [
                -0.2501045806636941,
                0.19015478002580602
            ],
            [
                -0.24659238530272676,
                0.22047057133263384
            ]
        ],
        [
            [
                -0.2360557992198255,
                0.31141794525311645
            ],
            [
                -0.23254360385885822,
                0.3417337365599448
            ],
            [
                -0.20695475194324034,
                0.3453003002431007
            ]
        ],
        [
            [
                -0.13018819619638777,
                0.35599999129256954
            ],
            [
                -0.10459934428077008,
                0.3595665549757258
            ],
            [
                -0.0940627581978685,
                0.3551083503717808
            ]
        ],
        [
            [
                -0.0624529999491641,
                0.3417337365599448
            ],
            [
                -0.05191641386626277,
                0.33727553195599946
            ],
            [
                -0.047400734116447775,
                0.31676779077785083
            ]
        ],
        [
            [
                -0.0338536948670028,
                0.2552445672434068
            ],
            [
                -0.029338015117188122,
                0.23473682606525872
            ],
            [
                -0.03234846828373186,
                0.22314549409500103
            ]
        ],
        [
            [
                -0.04137982778336166,
                0.18837149818422808
            ],
            [
                -0.0443902809499042,
                0.1767801662139704
            ],
            [
                -0.08553314089266242,
                0.17945508897633758
            ]
        ]
    ],
    "145": [
        [
            [
                -0.0032474210071467774,
                0.08048294676875352
            ],
            [
                -0.04439028094990513,
                0.08315786953112067
            ],
            [
                -0.04087808558893777,
                0.11347366083794849
            ]
        ],
        [
            [
                -0.030341499506036526,
                0.20442103475843096
            ],
            [
                -0.026829304145069243,
                0.23473682606525925
            ],
            [
                -0.0012404522294513784,
                0.23830338974841506
            ]
        ],
        [
            [
                0.07552610351740117,
                0.2490030807978839
            ],
            [
                0.10111495543301886,
                0.2525696444810402
            ],
            [
                0.11165154151592048,
                0.24811143987709502
            ]
        ],
        [
            [
                0.14326129976462487,
                0.23473682606525925
            ],
            [
                0.1537978858475262,
                0.23027862146131392
            ],
            [
                0.1583135655973412,
                0.2097708802831653
            ]
        ],
        [
            [
                0.17186060484678617,
                0.1482476567487214
            ],
            [
                0.17637628459660085,
                0.1277399155705734
            ],
            [
                0.17336583143005713,
                0.11614858360031571
            ]
        ],
        [
            [
                0.16433447193042733,
                0.08137458768954274
            ],
            [
                0.16132401876388477,
                0.06978325571928509
            ],
            [
                0.12018115882112655,
                0.07245817848165222
            ]
        ]
    ],
    "146": [
        [
            [
                0.19243203481816448,
                -0.05326319134960331
            ],
            [
                0.1512891748754061,
                -0.050588268587236175
            ],
            [
                0.1548013702363735,
                -0.020272477280408367
            ]
        ],
        [
            [
                0.1653379563192747,
                0.07067489664007413
            ],
            [
                0.16885015168024203,
                0.10099068794690243
            ],
            [
                0.1944390035958599,
                0.10455725163005825
            ]
        ],
        [
            [
                0.2712055593427124,
                0.11525694267952707
            ],
            [
                0.29679441125833006,
                0.11882350636268334
            ],
            [
                0.3073309973412318,
                0.11436530175873819
            ]
        ],
        [
            [
                0.3389407555899362,
                0.10099068794690243
            ],
            [
                0.3494773416728375,
                0.0965324833429571
            ],
            [
                0.3539930214226525,
                0.07602474216480846
            ]
        ],
        [
            [
                0.3675400606720975,
                0.014501518630364573
            ],
            [
                0.3720557404219122,
                -0.006006222547783431
            ],
            [
                0.36904528725536845,
                -0.017597554518041115
            ]
        ],
        [
            [
                0.3600139277557386,
                -0.0523715504288141
            ],
            [
                0.35700347458919607,
                -0.06396288239907175
            ],
            [
                0.31586061464643783,
                -0.06128795963670462
            ]
        ]
    ],
    "147": [
        [
            [
                0.29779789564717823,
                -0.10676164659694605
            ],
            [
                0.25665503570442,
                -0.10408672383457891
            ],
            [
                0.26016723106538736,
                -0.07377093252775109
            ]
        ],
        [
            [
                0.2707038171482885,
                0.0171764413927314
            ],
            [
                0.27421601250925587,
                0.047492232699559704
            ],
            [
                0.29980486442487375,
                0.05105879638271552
            ]
        ],
        [
            [
                0.3765714201717261,
                0.061758487432184345
            ],
            [
                0.40216027208734384,
                0.06532505111534061
            ],
            [
                0.41269685817024554,
                0.06086684651139546
            ]
        ],
        [
            [
                0.4443066164189499,
                0.047492232699559704
            ],
            [
                0.45484320250185123,
                0.043034028095614366
            ],
            [
                0.45935888225166627,
                0.02252628691746574
            ]
        ],
        [
            [
                0.4729059215011112,
                -0.03899693661697816
            ],
            [
                0.477421601250926,
                -0.059504677795126165
            ],
            [
                0.4744111480843822,
                -0.07109600976538384
            ]
        ],
        [
            [
                0.4653797885847524,
                -0.10587000567615683
            ],
            [
                0.4623693354182098,
                -0.11746133764641448
            ],
            [
                0.4212264754754516,
                -0.11478641488404735
            ]
        ]
    ],
    "148": [
        [
            [
                0.4357769991137442,
                -0.14242728342850783
            ],
            [
                0.39463413917098594,
                -0.13975236066614075
            ],
            [
                0.3981463345319533,
                -0.10943656935931291
            ]
        ],
        [
            [
                0.4086829206148544,
                -0.018489195438830427
            ],
            [
                0.41219511597582176,
                0.011826595867997882
            ],
            [
                0.43778396789143964,
                0.0153931595511537
            ]
        ],
        [
            [
                0.5145505236382921,
                0.026092850600622525
            ],
            [
                0.5401393755539097,
                0.02965941428377879
            ],
            [
                0.5506759616368112,
                0.025201209679833643
            ]
        ],
        [
            [
                0.5822857198855157,
                0.011826595867997882
            ],
            [
                0.592822305968417,
                0.007368391264052542
            ],
            [
                0.597337985718232,
                -0.013139349914096085
            ]
        ],
        [
            [
                0.610885024967677,
                -0.07466257344853998
            ],
            [
                0.6154007047174919,
                -0.09517031462668799
            ],
            [
                0.6123902515509481,
                -0.10676164659694566
            ]
        ],
        [
            [
                0.6033588920513182,
                -0.14153564250771866
            ],
            [
                0.6003484388847756,
                -0.1531269744779763
            ],
            [
                0.5592055789420175,
                -0.15045205171560916
            ]
        ]
    ],
    "149": [
        [
            [
                0.5260905941100417,
                -0.1870093294679601
            ],
            [
                0.48494773416728354,
                -0.184334406705593
            ],
            [
                0.4884599295282509,
                -0.15401861539876519
            ]
        ],
        [
            [
                0.498996515611152,
                -0.06307124147828269
            ],
            [
                0.5025087109721194,
                -0.03275545017145439
            ],
            [
                0.5280975628877372,
                -0.029188886488298572
            ]
        ],
        [
            [
                0.6048641186345896,
                -0.01848919543882975
            ],
            [
                0.6304529705502071,
                -0.014922631755673484
            ],
            [
                0.6409895566331086,
                -0.019380836359618632
            ]
        ],
        [
            [
                0.6725993148818131,
                -0.03275545017145439
            ],
            [
                0.6831359009647144,
                -0.037213654775399736
            ],
            [
                0.6876515807145295,
                -0.05772139595354836
            ]
        ],
        [
            [
                0.7011986199639745,
                -0.11924461948799227
            ],
            [
                0.7057142997137892,
                -0.13975236066614027
            ],
            [
                0.7027038465472455,
                -0.15134369263639796
            ]
        ],
        [
            [
                0.6936724870476156,
                -0.18611768854717095
            ],
            [
                0.6906620338810731,
                -0.19770902051742856
            ],
            [
                0.6495191739383148,
                -0.19503409775506145
            ]
        ]
    ],
    "150": [
        [
            [
                0.656543564660249,
                -0.22267496629952194
            ],
            [
                0.615400704717491,
                -0.22000004353715483
            ],
            [
                0.6189129000784582,
                -0.189684252230327
            ]
        ],
        [
            [
                0.6294494861613593,
                -0.09873687830984454
            ],
            [
                0.6329616815223267,
                -0.0684210870030162
            ],
            [
                0.6585505334379446,
                -0.06485452331986039
            ]
        ],
        [
            [
                0.7353170891847969,
                -0.05415483227039156
            ],
            [
                0.7609059411004144,
                -0.0505882685872353
            ],
            [
                0.771442527183316,
                -0.05504647319118045
            ]
        ],
        [
            [
                0.8030522854320206,
                -0.0684210870030162
            ],
            [
                0.8135888715149219,
                -0.07287929160696155
            ],
            [
                0.8181045512647368,
                -0.09338703278511018
            ]
        ],
        [
            [
                0.8316515905141818,
                -0.15491025631955407
            ],
            [
                0.8361672702639967,
                -0.17541799749770212
            ],
            [
                0.8331568170974528,
                -0.18700932946795978
            ]
        ],
        [
            [
                0.824125457597823,
                -0.22178332537873274
            ],
            [
                0.8211150044312805,
                -0.23337465734899038
            ],
            [
                0.7799721444885221,
                -0.23069973458662327
            ]
        ]
    ],
    "156": [
        [
            [
                0.656543564660249,
                -0.2182167616955767
            ],
            [
                0.615400704717491,
                -0.2155418389332096
            ],
            [
                0.6189129000784582,
                -0.18522604762638176
            ]
        ],
        [
            [
                0.6294494861613593,
                -0.0942786737058993
            ],
            [
                0.6329616815223267,
                -0.06396288239907098
            ],
            [
                0.6585505334379446,
                -0.060396318715915165
            ]
        ],
        [
            [
                0.7353170891847969,
                -0.049696627666446336
            ],
            [
                0.7609059411004144,
                -0.04613006398329007
            ],
            [
                0.771442527183316,
                -0.050588268587235224
            ]
        ],
        [
            [
                0.8030522854320206,
                -0.06396288239907098
            ],
            [
                0.8135888715149219,
                -0.06842108700301633
            ],
            [
                0.8181045512647368,
                -0.08892882818116495
            ]
        ],
        [
            [
                0.8316515905141818,
                -0.15045205171560885
            ],
            [
                0.8361672702639967,
                -0.17095979289375687
            ],
            [
                0.8331568170974528,
                -0.18255112486401456
            ]
        ],
        [
            [
                0.824125457597823,
                -0.2173251207747875
            ],
            [
                0.8211150044312805,
                -0.22891645274504516
            ],
            [
                0.7799721444885221,
                -0.22624152998267805
            ]
        ]
    ],
    "159": [
        [
            [
                0.6414912988275329,
                -0.2182167616955767
            ],
            [
                0.6003484388847747,
                -0.2155418389332096
            ],
            [
                0.603860634245742,
                -0.18522604762638176
            ]
        ],
        [
            [
                0.6143972203286431,
                -0.0942786737058993
            ],
            [
                0.6179094156896104,
                -0.06396288239907098
            ],
            [
                0.6434982676052283,
                -0.060396318715915165
            ]
        ],
        [
            [
                0.7202648233520806,
                -0.049696627666446336
            ],
            [
                0.7458536752676982,
                -0.04613006398329007
            ],
            [
                0.7563902613505997,
                -0.050588268587235224
            ]
        ],
        [
            [
                0.7880000195993043,
                -0.06396288239907098
            ],
            [
                0.7985366056822056,
                -0.06842108700301633
            ],
            [
                0.8030522854320206,
                -0.08892882818116495
            ]
        ],
        [
            [
                0.8165993246814656,
                -0.15045205171560885
            ],
            [
                0.8211150044312805,
                -0.17095979289375687
            ],
            [
                0.8181045512647366,
                -0.18255112486401456
            ]
        ],
        [
            [
                0.8090731917651067,
                -0.2173251207747875
            ],
            [
                0.8060627385985643,
                -0.22891645274504516
            ],
            [
                0.764919878655806,
                -0.22624152998267805
            ]
        ]
    ],
    "161": [
        [
            [
                0.5110383282773252,
                -0.057721395953548464
            ],
            [
                0.46989546833456713,
                -0.05504647319118138
            ],
            [
                0.4734076636955343,
                -0.024730681884353543
            ]
        ],
        [
            [
                0.4839442497784355,
                0.0662166920361289
            ],
            [
                0.48745644513940284,
                0.09653248334295723
            ],
            [
                0.5130452970550207,
                0.10009904702611305
            ]
        ],
        [
            [
                0.5898118528018731,
                0.11079873807558187
            ],
            [
                0.6154007047174906,
                0.11436530175873814
            ],
            [
                0.6259372908003922,
                0.109907097154793
            ]
        ],
        [
            [
                0.6575470490490968,
                0.09653248334295723
            ],
            [
                0.6680836351319981,
                0.09207427873901189
            ],
            [
                0.672599314881813,
                0.07156653756086327
            ]
        ],
        [
            [
                0.686146354131258,
                0.010043314026419356
            ],
            [
                0.690662033881073,
                -0.010464427151728649
            ],
            [
                0.687651580714529,
                -0.022055759121986356
            ]
        ],
        [
            [
                0.6786202212148992,
                -0.05682975503275932
            ],
            [
                0.6756097680483567,
                -0.06842108700301694
            ],
            [
                0.6344669081055984,
                -0.06574616424064983
            ]
        ]
    ],
    "163": [
        [
            [
                0.36051566995016254,
                0.004693468501684721
            ],
            [
                0.3193728100074045,
                0.007368391264051802
            ],
            [
                0.3228850053683716,
                0.037684182570879646
            ]
        ],
        [
            [
                0.33342159145127276,
                0.1286315564913621
            ],
            [
                0.3369337868122402,
                0.15894734779819042
            ],
            [
                0.362522638727858,
                0.16251391148134622
            ]
        ],
        [
            [
                0.4392891944747104,
                0.17321360253081505
            ],
            [
                0.464878046390328,
                0.17678016621397136
            ],
            [
                0.47541463247322974,
                0.17232196161002616
            ]
        ],
        [
            [
                0.5070243907219344,
                0.15894734779819042
            ],
            [
                0.5175609768048357,
                0.1544891431942451
            ],
            [
                0.5220766565546506,
                0.13398140201609646
            ]
        ],
        [
            [
                0.5356236958040956,
                0.07245817848165254
            ],
            [
                0.5401393755539105,
                0.051950437303504536
            ],
            [
                0.5371289223873666,
                0.040359105333246825
            ]
        ],
        [
            [
                0.5280975628877368,
                0.005585109422473866
            ],
            [
                0.5250871097211943,
                -0.00600622254778375
            ],
            [
                0.483944249778436,
                -0.003331299785416639
            ]
        ]
    ],
    "164": [
        [
            [
                0.27772820787022306,
                0.05373371914508223
            ],
            [
                0.23658534792746502,
                0.056408641907449306
            ],
            [
                0.24009754328843216,
                0.08672443321427717
            ]
        ],
        [
            [
                0.2506341293713334,
                0.1776718071347596
            ],
            [
                0.2541463247323007,
                0.2079875984415879
            ],
            [
                0.27973517664791847,
                0.21155416212474373
            ]
        ],
        [
            [
                0.3565017323947709,
                0.2222538531742126
            ],
            [
                0.3820905843103885,
                0.22582041685736884
            ],
            [
                0.39262717039329026,
                0.2213622122534237
            ]
        ],
        [
            [
                0.4242369286419949,
                0.2079875984415879
            ],
            [
                0.4347735147248962,
                0.20352939383764257
            ],
            [
                0.43928919447471115,
                0.18302165265949397
            ]
        ],
        [
            [
                0.45283623372415605,
                0.12149842912505004
            ],
            [
                0.45735191347397103,
                0.10099068794690204
            ],
            [
                0.4543414603074271,
                0.08939935597664433
            ]
        ],
        [
            [
                0.44531010080779737,
                0.054625360065871376
            ],
            [
                0.44229964764125484,
                0.043034028095613755
            ],
            [
                0.40115678769849644,
                0.045708950857980865
            ]
        ]
    ],
    "165": [
        [
            [
                0.21501043356723865,
                0.11169037899637022
            ],
            [
                0.1738675736244806,
                0.11436530175873727
            ],
            [
                0.17737976898544774,
                0.14468109306556515
            ]
        ],
        [
            [
                0.18791635506834894,
                0.23562846698604756
            ],
            [
                0.19142855042931625,
                0.2659442582928759
            ],
            [
                0.21701740234493405,
                0.2695108219760317
            ]
        ],
        [
            [
                0.2937839580917865,
                0.2802105130255006
            ],
            [
                0.3193728100074041,
                0.2837770767086569
            ],
            [
                0.32990939609030584,
                0.2793188721047117
            ]
        ],
        [
            [
                0.3615191543390105,
                0.2659442582928759
            ],
            [
                0.3720557404219118,
                0.2614860536889306
            ],
            [
                0.37657142017172673,
                0.24097831251078192
            ]
        ],
        [
            [
                0.3901184594211716,
                0.179455088976338
            ],
            [
                0.3946341391709866,
                0.15894734779819
            ],
            [
                0.3916236860044427,
                0.1473560158279323
            ]
        ],
        [
            [
                0.38259232650481295,
                0.11258201991715935
            ],
            [
                0.3795818733382704,
                0.1009906879469017
            ],
            [
                0.3384390133955121,
                0.10366561070926883
            ]
        ]
    ],
    "166": [
        [
            [
                0.0895748849612698,
                0.1116903789963702
            ],
            [
                0.048432025018511744,
                0.11436530175873727
            ],
            [
                0.051944220379478885,
                0.14468109306556515
            ]
        ],
        [
            [
                0.062480806462380085,
                0.2356284669860475
            ],
            [
                0.0659930018233474,
                0.26594425829287577
            ],
            [
                0.09158185373896519,
                0.26951082197603166
            ]
        ],
        [
            [
                0.1683484094858176,
                0.2802105130255005
            ],
            [
                0.19393726140143525,
                0.2837770767086567
            ],
            [
                0.20447384748433697,
                0.27931887210471157
            ]
        ],
        [
            [
                0.23608360573304166,
                0.26594425829287577
            ],
            [
                0.24662019181594302,
                0.2614860536889305
            ],
            [
                0.25113587156575795,
                0.24097831251078183
            ]
        ],
        [
            [
                0.26468291081520284,
                0.17945508897633802
            ],
            [
                0.2691985905650178,
                0.15894734779819
            ],
            [
                0.2661881373984739,
                0.1473560158279323
            ]
        ],
        [
            [
                0.2571567778988441,
                0.1125820199171594
            ],
            [
                0.2541463247323016,
                0.10099068794690173
            ],
            [
                0.2130034647895432,
                0.10366561070926886
            ]
        ]
    ],
    "167": [
        [
            [
                0.006787422881330333,
                0.15181422043187728
            ],
            [
                -0.034355437061427706,
                0.15448914319424434
            ],
            [
                -0.03084324170046056,
                0.18480493450107216
            ]
        ],
        [
            [
                -0.020306655617559368,
                0.27575230842155457
            ],
            [
                -0.01679446025659205,
                0.30606809972838284
            ],
            [
                0.008794391659025727,
                0.3096346634115387
            ]
        ],
        [
            [
                0.08556094740587813,
                0.32033435446100755
            ],
            [
                0.11114979932149578,
                0.3239009181441638
            ],
            [
                0.1216863854043975,
                0.3194427135402186
            ]
        ],
        [
            [
                0.15329614365310223,
                0.30606809972838284
            ],
            [
                0.16383272973600357,
                0.3016098951244377
            ],
            [
                0.16834840948581853,
                0.2811021539462889
            ]
        ],
        [
            [
                0.18189544873526345,
                0.2195789304118451
            ],
            [
                0.1864111284850784,
                0.19907118923369707
            ],
            [
                0.18340067531853452,
                0.18747985726343938
            ]
        ],
        [
            [
                0.17436931581890472,
                0.15270586135266648
            ],
            [
                0.17135886265236216,
                0.1411145293824088
            ],
            [
                0.13021600270960373,
                0.14378945214477593
            ]
        ]
    ],
    "168": [
        [
            [
                -0.055930351421654166,
                0.1696470388476582
            ],
            [
                -0.0970732113644122,
                0.17232196161002525
            ],
            [
                -0.09356101600344506,
                0.20263775291685307
            ]
        ],
        [
            [
                -0.08302442992054387,
                0.2935851268373355
            ],
            [
                -0.07951223455957655,
                0.32390091814416383
            ],
            [
                -0.053923382643958774,
                0.32746748182731966
            ]
        ],
        [
            [
                0.02284317310289364,
                0.3381671728767885
            ],
            [
                0.048432025018511286,
                0.3417337365599447
            ],
            [
                0.05896861110141302,
                0.3372755319559995
            ]
        ],
        [
            [
                0.0905783693501177,
                0.32390091814416383
            ],
            [
                0.10111495543301907,
                0.3194427135402187
            ],
            [
                0.10563063518283401,
                0.29893497236206984
            ]
        ],
        [
            [
                0.11917767443227893,
                0.23741174882762603
            ],
            [
                0.12369335418209391,
                0.21690400764947798
            ],
            [
                0.12068290101554999,
                0.2053126756792203
            ]
        ],
        [
            [
                0.1116515415159202,
                0.17053867976844742
            ],
            [
                0.10864108834937765,
                0.1589473477981897
            ],
            [
                0.06749822840661923,
                0.16162227056055684
            ]
        ]
    ],
    "169": [
        [
            [
                -0.10108714891980296,
                0.20085447107527477
            ],
            [
                -0.14223000886256099,
                0.20352939383764185
            ],
            [
                -0.13871781350159385,
                0.23384518514446967
            ]
        ],
        [
            [
                -0.12818122741869267,
                0.3247925590649522
            ],
            [
                -0.12466903205772535,
                0.3551083503717805
            ],
            [
                -0.09908018014210757,
                0.35867491405493634
            ]
        ],
        [
            [
                -0.02231362439525515,
                0.3693746051044051
            ],
            [
                0.003275227520362496,
                0.3729411687875614
            ],
            [
                0.013811813603264231,
                0.3684829641836162
            ]
        ],
        [
            [
                0.04542157185196891,
                0.3551083503717805
            ],
            [
                0.05595815793487027,
                0.3506501457678353
            ],
            [
                0.060473837684685214,
                0.3301424045896865
            ]
        ],
        [
            [
                0.07402087693413013,
                0.2686191810552427
            ],
            [
                0.0785365566839451,
                0.24811143987709455
            ],
            [
                0.0755261035174012,
                0.2365201079068369
            ]
        ],
        [
            [
                0.0664947440177714,
                0.201746111996064
            ],
            [
                0.06348429085122885,
                0.1901547800258063
            ],
            [
                0.022341430908470437,
                0.19282970278817343
            ]
        ]
    ],
    "170": [
        [
            [
                -0.1286829696131161,
                0.1963962664713295
            ],
            [
                -0.16982582955587414,
                0.19907118923369657
            ],
            [
                -0.166313634194907,
                0.22938698054052437
            ]
        ],
        [
            [
                -0.15577704811200585,
                0.32033435446100694
            ],
            [
                -0.15226485275103852,
                0.35065014576783526
            ],
            [
                -0.1266760008354207,
                0.3542167094509911
            ]
        ],
        [
            [
                -0.049909445088568295,
                0.36491640050045987
            ],
            [
                -0.02432059317295066,
                0.36848296418361615
            ],
            [
                -0.013784007090048922,
                0.36402475957967095
            ]
        ],
        [
            [
                0.017825751158655763,
                0.35065014576783526
            ],
            [
                0.028362337241557126,
                0.3461919411638901
            ],
            [
                0.032878016991372064,
                0.3256841999857413
            ]
        ],
        [
            [
                0.04642505624081697,
                0.26416097645129744
            ],
            [
                0.050940735990631945,
                0.2436532352731493
            ],
            [
                0.047930282824088045,
                0.23206190330289161
            ]
        ],
        [
            [
                0.03889892332445825,
                0.1972879073921187
            ],
            [
                0.0358884701579157,
                0.18569657542186102
            ],
            [
                -0.005254389784842717,
                0.18837149818422816
            ]
        ]
    ],
    "172": [
        [
            [
                -0.17133105613914554,
                0.23652010790683647
            ],
            [
                -0.21247391608190355,
                0.23919503066920353
            ],
            [
                -0.2089617207209364,
                0.26951082197603143
            ]
        ],
        [
            [
                -0.19842513463803527,
                0.3604581958965142
            ],
            [
                -0.19491293927706796,
                0.3907739872033423
            ],
            [
                -0.1693240873614501,
                0.39434055088649816
            ]
        ],
        [
            [
                -0.09255753161459773,
                0.40504024193596694
            ],
            [
                -0.06696867969898007,
                0.4086068056191232
            ],
            [
                -0.05643209361607834,
                0.40414860101517797
            ]
        ],
        [
            [
                -0.024822335367373646,
                0.3907739872033423
            ],
            [
                -0.014285749284472283,
                0.3863157825993972
            ],
            [
                -0.009770069534657344,
                0.36580804142124834
            ]
        ],
        [
            [
                0.0037769697147875658,
                0.3042848178868045
            ],
            [
                0.008292649464602538,
                0.2837770767086563
            ],
            [
                0.005282196298058641,
                0.2721857447383986
            ]
        ],
        [
            [
                -0.0037491632015711584,
                0.23741174882762567
            ],
            [
                -0.006759616368113712,
                0.22582041685736798
            ],
            [
                -0.04790247631087212,
                0.2284953396197351
            ]
        ]
    ],
    "173": [
        [
            [
                -0.20143558780457804,
                0.24543651711472697
            ],
            [
                -0.24257844774733608,
                0.24811143987709403
            ],
            [
                -0.23906625238636894,
                0.27842723118392193
            ]
        ],
        [
            [
                -0.2285296663034678,
                0.3693746051044047
            ],
            [
                -0.22501747094250046,
                0.3996903964112328
            ],
            [
                -0.19942861902688264,
                0.40325696009438866
            ]
        ],
        [
            [
                -0.12266206328003028,
                0.41395665114385743
            ],
            [
                -0.0970732113644126,
                0.4175232148270137
            ],
            [
                -0.08653662528151088,
                0.41306501022306846
            ]
        ],
        [
            [
                -0.054926867032806165,
                0.3996903964112328
            ],
            [
                -0.044390280949904805,
                0.3952321918072877
            ],
            [
                -0.03987460120008987,
                0.37472445062913884
            ]
        ],
        [
            [
                -0.026327561950644958,
                0.313201227094695
            ],
            [
                -0.021811882200829986,
                0.2926934859165468
            ],
            [
                -0.024822335367373882,
                0.2811021539462891
            ]
        ],
        [
            [
                -0.03385369486700369,
                0.24632815803551616
            ],
            [
                -0.036864148033546235,
                0.23473682606525845
            ],
            [
                -0.07800700797630465,
                0.23741174882762556
            ]
        ]
    ]
}
</property>
    <property name="kdenlive:collapsed">0</property>
   </filter>
  </entry>
  <blank length="00:00:00.440"/>
  <entry producer="chain384" in="00:00:01.800" out="00:00:03.280">
   <property name="kdenlive:id">740</property>
   <filter id="filter1168">
    <property name="mode">alpha</property>
    <property name="alpha_operation">sub</property>
    <property name="invert">0</property>
    <property name="feather">47</property>
    <property name="feather_passes">1</property>
    <property name="mlt_service">rotoscoping</property>
    <property name="kdenlive_id">rotoscoping</property>
    <property name="spline">{
    "45": [
        [
            [
                -0.16129621225066787,
                0.2989349723620699
            ],
            [
                -0.20243907219342586,
                0.3016098951244371
            ],
            [
                -0.19892687683245866,
                0.3319256864312647
            ]
        ],
        [
            [
                -0.18839029074955735,
                0.42287306035174765
            ],
            [
                -0.1848780953885902,
                0.45318885165857553
            ],
            [
                -0.15928924347297235,
                0.4567554153417316
            ]
        ],
        [
            [
                -0.08252268772611938,
                0.46745510639120036
            ],
            [
                -0.0569338358105017,
                0.4710216700743563
            ],
            [
                -0.046397249727600336,
                0.46656346547041133
            ]
        ],
        [
            [
                -0.014787491478895876,
                0.45318885165857553
            ],
            [
                -0.004250905395994413,
                0.44873064705463034
            ],
            [
                0.0002647743538204665,
                0.4282229058764818
            ]
        ],
        [
            [
                0.013811813603264774,
                0.3666996823420376
            ],
            [
                0.018327493353079878,
                0.34619194116388946
            ],
            [
                0.015317040186536734,
                0.3346006091936318
            ]
        ],
        [
            [
                0.006285680686906858,
                0.2998266132828589
            ],
            [
                0.0032752275203636254,
                0.28823528131260134
            ],
            [
                -0.037867632422394326,
                0.29091020407496854
            ]
        ]
    ],
    "46": [
        [
            [
                -0.13119168058523537,
                0.28556035855023426
            ],
            [
                -0.17233454052799332,
                0.2882352813126014
            ],
            [
                -0.16882234516702613,
                0.31855107261942905
            ]
        ],
        [
            [
                -0.15828575908412482,
                0.409498446539912
            ],
            [
                -0.15477356372315768,
                0.4398142378467399
            ],
            [
                -0.12918471180753985,
                0.44338080152989595
            ]
        ],
        [
            [
                -0.05241815606068685,
                0.45408049257936467
            ],
            [
                -0.026829304145069174,
                0.45764705626252067
            ],
            [
                -0.01629271806216781,
                0.45318885165857564
            ]
        ],
        [
            [
                0.015317040186536648,
                0.4398142378467399
            ],
            [
                0.025853626269438112,
                0.43535603324279465
            ],
            [
                0.03036930601925299,
                0.41484829206464613
            ]
        ],
        [
            [
                0.043916345268697296,
                0.3533250685302019
            ],
            [
                0.048432025018512403,
                0.3328173273520538
            ],
            [
                0.04542157185196926,
                0.3212259953817962
            ]
        ],
        [
            [
                0.036390212352339385,
                0.28645199947102323
            ],
            [
                0.03337975918579615,
                0.27486066750076565
            ],
            [
                -0.007763100756961812,
                0.27753559026313285
            ]
        ]
    ],
    "48": [
        [
            [
                0.004278711909211012,
                0.24097831251078197
            ],
            [
                -0.03686414803354695,
                0.2436532352731492
            ],
            [
                -0.033351952672579746,
                0.27396902657997685
            ]
        ],
        [
            [
                -0.022815366589678452,
                0.3649164005004597
            ],
            [
                -0.01930317122871132,
                0.3952321918072877
            ],
            [
                0.006285680686906518,
                0.39879875549044375
            ]
        ],
        [
            [
                0.08305223643375953,
                0.4094984465399124
            ],
            [
                0.10864108834937722,
                0.4130650102230684
            ],
            [
                0.1191776744322786,
                0.4086068056191235
            ]
        ],
        [
            [
                0.15078743268098307,
                0.3952321918072877
            ],
            [
                0.16132401876388452,
                0.39077398720334244
            ],
            [
                0.1658396985136994,
                0.370266246025194
            ]
        ],
        [
            [
                0.17938673776314365,
                0.30874302249074964
            ],
            [
                0.18390241751295877,
                0.2882352813126016
            ],
            [
                0.18089196434641563,
                0.27664394934234393
            ]
        ],
        [
            [
                0.17186060484678575,
                0.24186995343157108
            ],
            [
                0.16885015168024256,
                0.2302786214613134
            ],
            [
                0.1277072917374846,
                0.2329535442236806
            ]
        ]
    ],
    "51": [
        [
            [
                0.34546340411744636,
                0.1651888342437131
            ],
            [
                0.30432054417468835,
                0.16786375700608033
            ],
            [
                0.30783273953565554,
                0.19817954831290796
            ]
        ],
        [
            [
                0.31836932561855685,
                0.2891269222333907
            ],
            [
                0.32188152097952394,
                0.31944271354021875
            ],
            [
                0.3474703728951418,
                0.3230092772233748
            ]
        ],
        [
            [
                0.42423692864199486,
                0.3337089682728434
            ],
            [
                0.4498257805576126,
                0.33727553195599946
            ],
            [
                0.46036236664051394,
                0.33281732735205455
            ]
        ],
        [
            [
                0.4919721248892184,
                0.31944271354021875
            ],
            [
                0.5025087109721198,
                0.3149845089362735
            ],
            [
                0.5070243907219346,
                0.294476767758125
            ]
        ],
        [
            [
                0.520571429971379,
                0.23295354422368075
            ],
            [
                0.525087109721194,
                0.2124458030455328
            ],
            [
                0.5220766565546509,
                0.2008544710752751
            ]
        ],
        [
            [
                0.513045297055021,
                0.16608047516450217
            ],
            [
                0.5100348438884779,
                0.1544891431942445
            ],
            [
                0.4688919839457199,
                0.15716406595661173
            ]
        ]
    ],
    "53": [
        [
            [
                0.5035121953609674,
                0.11614858360031567
            ],
            [
                0.46236933541820935,
                0.11882350636268287
            ],
            [
                0.46588153077917654,
                0.14913929766951053
            ]
        ],
        [
            [
                0.47641811686207786,
                0.2400866715899932
            ],
            [
                0.47993031222304494,
                0.2704024628968212
            ],
            [
                0.5055191641386628,
                0.2739690265799772
            ]
        ],
        [
            [
                0.5822857198855156,
                0.28466871762944584
            ],
            [
                0.6078745718011331,
                0.2882352813126019
            ],
            [
                0.6184111578840346,
                0.28377707670865704
            ]
        ],
        [
            [
                0.6500209161327389,
                0.2704024628968212
            ],
            [
                0.6605575022156404,
                0.26594425829287593
            ],
            [
                0.6650731819654552,
                0.24543651711472733
            ]
        ],
        [
            [
                0.6786202212148995,
                0.1839132935802833
            ],
            [
                0.6831359009647145,
                0.16340555240213536
            ],
            [
                0.6801254477981715,
                0.15181422043187767
            ]
        ],
        [
            [
                0.6710940882985416,
                0.11704022452110471
            ],
            [
                0.6680836351319984,
                0.10544889255084706
            ],
            [
                0.6269407751892405,
                0.10812381531321429
            ]
        ]
    ],
    "55": [
        [
            [
                0.7192613389632337,
                0.0403591053332468
            ],
            [
                0.6781184790204756,
                0.04303402809561401
            ],
            [
                0.6816306743814429,
                0.07334981940244166
            ]
        ],
        [
            [
                0.6921672604643442,
                0.1642971933229244
            ],
            [
                0.6956794558253113,
                0.1946129846297523
            ],
            [
                0.7212683077409292,
                0.19817954831290832
            ]
        ],
        [
            [
                0.798034863487782,
                0.20887923936237698
            ],
            [
                0.8236237154033995,
                0.21244580304553304
            ],
            [
                0.8341603014863009,
                0.20798759844158815
            ]
        ],
        [
            [
                0.8657700597350053,
                0.1946129846297523
            ],
            [
                0.8763066458179067,
                0.19015478002580705
            ],
            [
                0.8808223255677216,
                0.16964703884765847
            ]
        ],
        [
            [
                0.8943693648171659,
                0.10812381531321444
            ],
            [
                0.8988850445669809,
                0.08761607413506652
            ],
            [
                0.8958745914004378,
                0.0760247421648088
            ]
        ],
        [
            [
                0.8868432319008079,
                0.04125074625403585
            ],
            [
                0.8838327787342648,
                0.029659414283778218
            ],
            [
                0.8426899187915069,
                0.032334337046145425
            ]
        ]
    ],
    "56": [
        [
            [
                0.7468571596565468,
                0.022526286917465888
            ],
            [
                0.7057142997137886,
                0.0252012096798331
            ],
            [
                0.7092264950747559,
                0.05551700098666075
            ]
        ],
        [
            [
                0.7197630811576572,
                0.14646437490714348
            ],
            [
                0.7232752765186243,
                0.17678016621397138
            ],
            [
                0.7488641284342422,
                0.1803467298971274
            ]
        ],
        [
            [
                0.825630684181095,
                0.19104642094659607
            ],
            [
                0.8512195360967125,
                0.19461298462975213
            ],
            [
                0.861756122179614,
                0.19015478002580724
            ]
        ],
        [
            [
                0.8933658804283183,
                0.17678016621397138
            ],
            [
                0.9039024665112197,
                0.17232196161002614
            ],
            [
                0.9084181462610346,
                0.15181422043187756
            ]
        ],
        [
            [
                0.9219651855104789,
                0.09029099689743353
            ],
            [
                0.9264808652602939,
                0.0697832557192856
            ],
            [
                0.9234704120937509,
                0.058191923749027895
            ]
        ],
        [
            [
                0.914439052594121,
                0.023417927838254943
            ],
            [
                0.9114285994275779,
                0.011826595867997306
            ],
            [
                0.8702857394848199,
                0.014501518630364514
            ]
        ]
    ],
    "57": [
        [
            [
                0.7844878242383376,
                -0.013139349914095938
            ],
            [
                0.7433449642955794,
                -0.010464427151728729
            ],
            [
                0.7468571596565466,
                0.019851364155098934
            ]
        ],
        [
            [
                0.757393745739448,
                0.11079873807558167
            ],
            [
                0.7609059411004151,
                0.14111452938240956
            ],
            [
                0.786494793016033,
                0.14468109306556556
            ]
        ],
        [
            [
                0.8632613487628858,
                0.15538078411503425
            ],
            [
                0.8888502006785033,
                0.1589473477981903
            ],
            [
                0.8993867867614047,
                0.1544891431942454
            ]
        ],
        [
            [
                0.9309965450101091,
                0.14111452938240956
            ],
            [
                0.9415331310930105,
                0.13665632477846432
            ],
            [
                0.9460488108428253,
                0.11614858360031574
            ]
        ],
        [
            [
                0.9595958500922698,
                0.05462536006587171
            ],
            [
                0.9641115298420847,
                0.03411761888772378
            ],
            [
                0.9611010766755417,
                0.022526286917466075
            ]
        ],
        [
            [
                0.9520697171759117,
                -0.012247708993306884
            ],
            [
                0.9490592640093687,
                -0.023839040963564515
            ],
            [
                0.9079164040666108,
                -0.021164118201197308
            ]
        ]
    ],
    "58": [
        [
            [
                0.8196097778480087,
                -0.017597554518041163
            ],
            [
                0.7784669179052506,
                -0.014922631755673956
            ],
            [
                0.7819791132662178,
                0.015393159551153708
            ]
        ],
        [
            [
                0.7925156993491191,
                0.10634053347163645
            ],
            [
                0.7960278947100863,
                0.13665632477846432
            ],
            [
                0.8216167466257042,
                0.14022288846162034
            ]
        ],
        [
            [
                0.8983833023725569,
                0.15092257951108903
            ],
            [
                0.9239721542881745,
                0.1544891431942451
            ],
            [
                0.9345087403710759,
                0.15003093859030017
            ]
        ],
        [
            [
                0.9661184986197803,
                0.13665632477846432
            ],
            [
                0.9766550847026817,
                0.1321981201745191
            ],
            [
                0.9811707644524965,
                0.11169037899637052
            ]
        ],
        [
            [
                0.9947178037019409,
                0.05016715546192648
            ],
            [
                0.9992334834517559,
                0.029659414283778548
            ],
            [
                0.9962230302852129,
                0.018068082313520847
            ]
        ],
        [
            [
                0.9871916707855829,
                -0.01670591359725211
            ],
            [
                0.9841812176190399,
                -0.028297245567509743
            ],
            [
                0.9430383576762819,
                -0.025622322805142535
            ]
        ]
    ],
    "59": [
        [
            [
                0.8722927082625158,
                -0.05326319134960299
            ],
            [
                0.8311498483197577,
                -0.05058826858723577
            ],
            [
                0.8346620436807249,
                -0.020272477280408114
            ]
        ],
        [
            [
                0.8451986297636263,
                0.07067489664007463
            ],
            [
                0.8487108251245934,
                0.10099068794690251
            ],
            [
                0.8742996770402113,
                0.10455725163005851
            ]
        ],
        [
            [
                0.951066232787064,
                0.1152569426795272
            ],
            [
                0.9766550847026816,
                0.11882350636268325
            ],
            [
                0.987191670785583,
                0.11436530175873835
            ]
        ],
        [
            [
                1.0188014290342873,
                0.10099068794690251
            ],
            [
                1.0293380151171883,
                0.09653248334295728
            ],
            [
                1.0338536948670034,
                0.0760247421648087
            ]
        ],
        [
            [
                1.0474007341164482,
                0.014501518630364661
            ],
            [
                1.051916413866263,
                -0.006006222547783274
            ],
            [
                1.0489059606997198,
                -0.017597554518040973
            ]
        ],
        [
            [
                1.0398746012000897,
                -0.05237155042881393
            ],
            [
                1.036864148033547,
                -0.06396288239907157
            ],
            [
                0.995721288090789,
                -0.06128795963670436
            ]
        ]
    ],
    "60": [
        [
            [
                0.9099233728443065,
                -0.06663780516143866
            ],
            [
                0.8687805129015483,
                -0.06396288239907146
            ],
            [
                0.8722927082625156,
                -0.0336470910922438
            ]
        ],
        [
            [
                0.8828292943454169,
                0.057300282828238944
            ],
            [
                0.886341489706384,
                0.08761607413506682
            ],
            [
                0.9119303416220019,
                0.09118263781822283
            ]
        ],
        [
            [
                0.9886968973688547,
                0.10188232886769152
            ],
            [
                1.0142857492844721,
                0.10544889255084758
            ],
            [
                1.0248223353673735,
                0.10099068794690266
            ]
        ],
        [
            [
                1.0564320936160778,
                0.08761607413506682
            ],
            [
                1.0669686796989788,
                0.0831578695311216
            ],
            [
                1.071484359448794,
                0.06265012835297301
            ]
        ],
        [
            [
                1.0850313986982387,
                0.0011269048185289772
            ],
            [
                1.0895470784480534,
                -0.019380836359618958
            ],
            [
                1.0865366252815103,
                -0.03097216832987666
            ]
        ],
        [
            [
                1.0775052657818802,
                -0.06574616424064962
            ],
            [
                1.0744948126153375,
                -0.07733749621090724
            ],
            [
                1.0333519526725796,
                -0.07466257344854005
            ]
        ]
    ],
    "69": [
        [
            [
                0.8973798179837097,
                -0.07555421436932912
            ],
            [
                0.8562369580409516,
                -0.07287929160696191
            ],
            [
                0.8597491534019188,
                -0.042563500300134255
            ]
        ],
        [
            [
                0.8702857394848201,
                0.04838387362034849
            ],
            [
                0.8737979348457873,
                0.07869966492717637
            ],
            [
                0.899386786761405,
                0.08226622861033238
            ]
        ],
        [
            [
                0.9761533425082579,
                0.09296591965980107
            ],
            [
                1.0017421944238754,
                0.09653248334295712
            ],
            [
                1.0122787805067768,
                0.09207427873901221
            ]
        ],
        [
            [
                1.043888538755481,
                0.07869966492717637
            ],
            [
                1.054425124838382,
                0.07424146032323115
            ],
            [
                1.0589408045881972,
                0.05373371914508256
            ]
        ],
        [
            [
                1.072487843837642,
                -0.007789504389361479
            ],
            [
                1.0770035235874567,
                -0.028297245567509413
            ],
            [
                1.0739930704209135,
                -0.03988857753776712
            ]
        ],
        [
            [
                1.0649617109212834,
                -0.07466257344854008
            ],
            [
                1.0619512577547405,
                -0.0862539054187977
            ],
            [
                1.0208083978119828,
                -0.0835789826564305
            ]
        ]
    ],
    "70": [
        [
            [
                0.819609777848009,
                -0.062179600557493483
            ],
            [
                0.7784669179052508,
                -0.05950467779512627
            ],
            [
                0.781979113266218,
                -0.0291888864882986
            ]
        ],
        [
            [
                0.7925156993491194,
                0.06175848743218415
            ],
            [
                0.7960278947100865,
                0.09207427873901203
            ],
            [
                0.8216167466257044,
                0.09564084242216803
            ]
        ],
        [
            [
                0.8983833023725573,
                0.10634053347163672
            ],
            [
                0.9239721542881746,
                0.10990709715479278
            ],
            [
                0.9345087403710761,
                0.10544889255084787
            ]
        ],
        [
            [
                0.9661184986197804,
                0.09207427873901203
            ],
            [
                0.9766550847026814,
                0.0876160741350668
            ],
            [
                0.9811707644524965,
                0.06710833295691822
            ]
        ],
        [
            [
                0.9947178037019415,
                0.005585109422474172
            ],
            [
                0.9992334834517561,
                -0.014922631755673765
            ],
            [
                0.9962230302852126,
                -0.026513963725931466
            ]
        ],
        [
            [
                0.9871916707855827,
                -0.06128795963670443
            ],
            [
                0.98418121761904,
                -0.07287929160696205
            ],
            [
                0.9430383576762822,
                -0.07020436884459484
            ]
        ]
    ],
    "71": [
        [
            [
                0.7644181364613826,
                -0.0488049867456578
            ],
            [
                0.7232752765186244,
                -0.04613006398329059
            ],
            [
                0.7267874718795917,
                -0.015814272676462918
            ]
        ],
        [
            [
                0.737324057962493,
                0.07513310124401983
            ],
            [
                0.7408362533234601,
                0.1054488925508477
            ],
            [
                0.766425105239078,
                0.10901545623400372
            ]
        ],
        [
            [
                0.8431916609859308,
                0.1197151472834724
            ],
            [
                0.8687805129015482,
                0.12328171096662843
            ],
            [
                0.8793170989844498,
                0.11882350636268355
            ]
        ],
        [
            [
                0.910926857233154,
                0.1054488925508477
            ],
            [
                0.921463443316055,
                0.10099068794690245
            ],
            [
                0.9259791230658702,
                0.0804829467687539
            ]
        ],
        [
            [
                0.9395261623153152,
                0.018959723234309854
            ],
            [
                0.9440418420651298,
                -0.0015480179438380817
            ],
            [
                0.9410313888985863,
                -0.01313934991409578
            ]
        ],
        [
            [
                0.9320000293989563,
                -0.047913345824868746
            ],
            [
                0.9289895762324136,
                -0.05950467779512636
            ],
            [
                0.8878467162896558,
                -0.05682975503275916
            ]
        ]
    ],
    "73": [
        [
            [
                0.5762648135524294,
                0.12060678820426078
            ],
            [
                0.5351219536096712,
                0.12328171096662802
            ],
            [
                0.5386341489706384,
                0.1535975022734557
            ]
        ],
        [
            [
                0.5491707350535397,
                0.24454487619393844
            ],
            [
                0.552682930414507,
                0.27486066750076643
            ],
            [
                0.5782717823301248,
                0.2784272311839225
            ]
        ],
        [
            [
                0.6550383380769775,
                0.28912692223339115
            ],
            [
                0.6806271899925951,
                0.2926934859165472
            ],
            [
                0.6911637760754966,
                0.2882352813126023
            ]
        ],
        [
            [
                0.7227735343242008,
                0.27486066750076643
            ],
            [
                0.7333101204071019,
                0.2704024628968211
            ],
            [
                0.737825800156917,
                0.24989472171867252
            ]
        ],
        [
            [
                0.7513728394063619,
                0.18837149818422844
            ],
            [
                0.7558885191561766,
                0.16786375700608053
            ],
            [
                0.7528780659896329,
                0.15627242503582284
            ]
        ],
        [
            [
                0.7438467064900032,
                0.12149842912504988
            ],
            [
                0.7408362533234604,
                0.10990709715479224
            ],
            [
                0.6996933933807026,
                0.11258201991715942
            ]
        ]
    ],
    "75": [
        [
            [
                0.2902717627308204,
                0.25881113092656266
            ],
            [
                0.24912890278806202,
                0.2614860536889299
            ],
            [
                0.25264109814902935,
                0.29180184499575773
            ]
        ],
        [
            [
                0.26317768423193066,
                0.3827492189162405
            ],
            [
                0.2666898795928979,
                0.4130650102230686
            ],
            [
                0.29227873150851574,
                0.41663157390622446
            ]
        ],
        [
            [
                0.36904528725536845,
                0.4273312649556931
            ],
            [
                0.39463413917098605,
                0.4308978286388493
            ],
            [
                0.4051707252538876,
                0.42643962403490426
            ]
        ],
        [
            [
                0.43678048350259185,
                0.4130650102230686
            ],
            [
                0.44731706958549317,
                0.4086068056191232
            ],
            [
                0.4518327493353082,
                0.38809906444097464
            ]
        ],
        [
            [
                0.4653797885847532,
                0.32657584090653047
            ],
            [
                0.46989546833456786,
                0.30606809972838256
            ],
            [
                0.46688501516802405,
                0.294476767758125
            ]
        ],
        [
            [
                0.45785365566839437,
                0.25970277184735185
            ],
            [
                0.45484320250185173,
                0.24811143987709414
            ],
            [
                0.41370034255909366,
                0.2507863626394614
            ]
        ]
    ],
    "78": [
        [
            [
                0.10462715079398646,
                0.3836408598370292
            ],
            [
                0.06348429085122807,
                0.3863157825993963
            ],
            [
                0.06699648621219542,
                0.41663157390622424
            ]
        ],
        [
            [
                0.07753307229509672,
                0.5075789478267069
            ],
            [
                0.08104526765606397,
                0.5378947391335349
            ],
            [
                0.10663411957168183,
                0.5414613028166908
            ]
        ],
        [
            [
                0.18340067531853455,
                0.5521609938661596
            ],
            [
                0.20898952723415218,
                0.5557275575493157
            ],
            [
                0.21952611331705377,
                0.5512693529453708
            ]
        ],
        [
            [
                0.25113587156575806,
                0.5378947391335349
            ],
            [
                0.2616724576486594,
                0.5334365345295896
            ],
            [
                0.2661881373984744,
                0.5129287933514411
            ]
        ],
        [
            [
                0.27973517664791936,
                0.4514055698169969
            ],
            [
                0.28425085639773406,
                0.430897828638849
            ],
            [
                0.28124040323119026,
                0.41930649666859143
            ]
        ],
        [
            [
                0.2722090437315606,
                0.3845325007578184
            ],
            [
                0.2691985905650179,
                0.3729411687875607
            ],
            [
                0.22805573062225984,
                0.37561609154992787
            ]
        ]
    ],
    "80": [
        [
            [
                -0.11363070378039941,
                0.33014240458968636
            ],
            [
                -0.1547735637231578,
                0.3328173273520535
            ],
            [
                -0.15126136836219042,
                0.36313311865888137
            ]
        ],
        [
            [
                -0.14072478227928914,
                0.45408049257936406
            ],
            [
                -0.13721258691832192,
                0.48439628388619216
            ],
            [
                -0.11162373500270406,
                0.4879628475693481
            ]
        ],
        [
            [
                -0.03485717925585139,
                0.4986625386188168
            ],
            [
                -0.009268327340233747,
                0.502229102301973
            ],
            [
                0.0012682587426678567,
                0.4977708976980282
            ]
        ],
        [
            [
                0.03287801699137222,
                0.48439628388619216
            ],
            [
                0.04341460307427356,
                0.47993807928224685
            ],
            [
                0.04793028282408858,
                0.45943033810409833
            ]
        ],
        [
            [
                0.06147732207353355,
                0.39790711456965416
            ],
            [
                0.06599300182334823,
                0.37739937339150625
            ],
            [
                0.06298254865680446,
                0.36580804142124856
            ]
        ],
        [
            [
                0.05395118915717469,
                0.33103404551047555
            ],
            [
                0.050940735990632126,
                0.31944271354021786
            ],
            [
                0.0097978760478739,
                0.32211763630258505
            ]
        ]
    ],
    "81": [
        [
            [
                -0.16631363419490636,
                0.3346006091936315
            ],
            [
                -0.20745649413766468,
                0.33727553195599863
            ],
            [
                -0.20394429877669734,
                0.3675913232628265
            ]
        ],
        [
            [
                -0.19340771269379606,
                0.4585386971833092
            ],
            [
                -0.18989551733282883,
                0.48885448849013724
            ],
            [
                -0.16430666541721098,
                0.4924210521732932
            ]
        ],
        [
            [
                -0.08754010967035844,
                0.5031207432227619
            ],
            [
                -0.06195125775474074,
                0.5066873069059181
            ],
            [
                -0.051414671671839135,
                0.5022291023019733
            ]
        ],
        [
            [
                -0.019804913423134767,
                0.48885448849013724
            ],
            [
                -0.00926832734023343,
                0.48439628388619194
            ],
            [
                -0.004752647590418413,
                0.4638885427080435
            ]
        ],
        [
            [
                0.008794391659026558,
                0.4023653191735993
            ],
            [
                0.013310071408841237,
                0.3818575779954514
            ],
            [
                0.010299618242297475,
                0.3702662460251937
            ]
        ],
        [
            [
                0.0012682587426676958,
                0.3354922501144207
            ],
            [
                -0.0017421944238748658,
                0.32390091814416305
            ],
            [
                -0.0428850543666331,
                0.3265758409065302
            ]
        ]
    ],
    "82": [
        [
            [
                -0.18220213701832907,
                0.32122599538179575
            ],
            [
                -0.22334499696108742,
                0.3239009181441629
            ],
            [
                -0.21983280160012006,
                0.35421670945099076
            ]
        ],
        [
            [
                -0.2092962155172188,
                0.4451640833714735
            ],
            [
                -0.20578402015625155,
                0.47547987467830155
            ],
            [
                -0.18019516824063372,
                0.4790464383614575
            ]
        ],
        [
            [
                -0.10342861249378116,
                0.4897461294109262
            ],
            [
                -0.07783976057816347,
                0.49331269309408254
            ],
            [
                -0.06730317449526187,
                0.4888544884901377
            ]
        ],
        [
            [
                -0.03569341624655749,
                0.47547987467830155
            ],
            [
                -0.025156830163656153,
                0.47102167007435625
            ],
            [
                -0.020641150413841135,
                0.4505139288962077
            ]
        ],
        [
            [
                -0.007094111164396164,
                0.3889907053617636
            ],
            [
                -0.0025784314145814854,
                0.3684829641836157
            ],
            [
                -0.005588884581125246,
                0.35689163221335796
            ]
        ],
        [
            [
                -0.014620244080755025,
                0.3221176363025849
            ],
            [
                -0.01763069724729759,
                0.3105263043323273
            ],
            [
                -0.058773557190055815,
                0.31320122709469445
            ]
        ]
    ]
}
</property>
    <property name="kdenlive:collapsed">0</property>
   </filter>
  </entry>
  <blank length="00:00:01.440"/>
  <entry producer="producer552" in="00:00:00.000" out="00:00:04.600">
   <property name="kdenlive:id">142</property>
   <filter id="filter1169">
    <property name="rotate_center">1</property>
    <property name="mlt_service">qtblend</property>
    <property name="kdenlive_id">qtblend</property>
    <property name="rect">00:00:00.000=288 162 1344 756 1.000000;00:00:04.600=240 135 1440 810 1.000000</property>
    <property name="rotation">00:00:00.000=0;00:00:04.600=0</property>
    <property name="compositing">0</property>
    <property name="distort">0</property>
    <property name="kdenlive:collapsed">0</property>
   </filter>
   <filter id="filter1170">
    <property name="rotate_center">1</property>
    <property name="mlt_service">qtblend</property>
    <property name="kdenlive_id">qtblend</property>
    <property name="rect">00:00:00.000=0 1080 1920 1080 1.000000;00:00:00.240=0 -48 1920 1080 1.000000;00:00:00.360=0 0 1920 1080 1.000000;00:00:04.240=0 0 1920 1080 1.000000;00:00:04.360=0 51 1920 1080 1.000000;00:00:04.600=0 -1080 1920 1080 1.000000</property>
    <property name="rotation">00:00:00.000=0;00:00:00.240=0;00:00:00.360=0;00:00:04.240=0;00:00:04.360=0;00:00:04.600=0</property>
    <property name="compositing">0</property>
    <property name="distort">0</property>
    <property name="kdenlive:collapsed">0</property>
   </filter>
  </entry>
  <blank length="00:00:08.120"/>
  <entry producer="chain302" in="00:02:25.120" out="00:02:30.480">
   <property name="kdenlive:id">421</property>
   <filter id="filter1171">
    <property name="rotate_center">1</property>
    <property name="mlt_service">qtblend</property>
    <property name="kdenlive_id">qtblend</property>
    <property name="rect">00:02:25.120=0 1080 1920 1080 1.000000;00:02:25.360=0 -37 1920 1080 1.000000;00:02:25.480=0 0 1920 1080 1.000000;00:02:30.120=0 0 1920 1080 1.000000;00:02:30.240=0 67 1920 1080 1.000000;00:02:30.480=0 -1080 1920 1080 1.000000</property>
    <property name="rotation">00:02:25.120=0;00:02:25.360=0;00:02:25.480=0;00:02:30.120=0;00:02:30.240=0;00:02:30.480=0</property>
    <property name="compositing">0</property>
    <property name="distort">0</property>
    <property name="kdenlive:collapsed">0</property>
   </filter>
  </entry>
  <blank length="00:00:09.680"/>
  <entry producer="chain385" in="00:01:31.760" out="00:01:38.560">
   <property name="kdenlive:id">742</property>
   <filter id="filter1172">
    <property name="rotate_center">1</property>
    <property name="mlt_service">qtblend</property>
    <property name="kdenlive_id">qtblend</property>
    <property name="rect">00:01:31.760=336 189 1248 702 1.000000;00:01:38.520=288 162 1344 756 1.000000</property>
    <property name="rotation">00:01:31.760=0;00:01:38.520=0</property>
    <property name="compositing">0</property>
    <property name="distort">0</property>
    <property name="kdenlive:collapsed">1</property>
   </filter>
   <filter id="filter1173">
    <property name="rotate_center">1</property>
    <property name="mlt_service">qtblend</property>
    <property name="kdenlive_id">qtblend</property>
    <property name="rect">00:01:31.760=0 1080 1920 1080 1.000000;00:01:32.000=0 -51 1920 1080 1.000000;00:01:32.120=0 0 1920 1080 1.000000</property>
    <property name="rotation">00:01:31.760=0;00:01:32.000=0;00:01:32.120=0</property>
    <property name="compositing">0</property>
    <property name="distort">0</property>
    <property name="kdenlive:collapsed">0</property>
   </filter>
  </entry>
  <entry producer="producer299" in="00:00:00.000" out="00:00:29.960">
   <property name="kdenlive:id">346</property>
   <filter id="filter1174">
    <property name="rotate_center">1</property>
    <property name="mlt_service">qtblend</property>
    <property name="kdenlive_id">qtblend</property>
    <property name="rect">00:00:00.000=48 27 1824 1026 1.000000;00:00:00.360=0 0 1920 1080 1.000000</property>
    <property name="rotation">00:00:00.000=0;00:00:00.360=0</property>
    <property name="compositing">0</property>
    <property name="distort">0</property>
    <property name="kdenlive:collapsed">1</property>
   </filter>
   <filter id="filter1175" out="00:00:00.240">
    <property name="start">1</property>
    <property name="level">1</property>
    <property name="mlt_service">brightness</property>
    <property name="kdenlive_id">fade_from_black</property>
    <property name="alpha">00:00:00.000=0;00:00:00.240=1</property>
    <property name="kdenlive:collapsed">0</property>
   </filter>
   <filter id="filter1176" in="00:00:29.040" out="00:00:29.960">
    <property name="start">1</property>
    <property name="level">1</property>
    <property name="mlt_service">brightness</property>
    <property name="kdenlive_id">fade_to_black</property>
    <property name="alpha">00:00:00.000=1;00:00:00.920=0</property>
    <property name="kdenlive:collapsed">0</property>
   </filter>
  </entry>
  <blank length="00:00:09.720"/>
  <entry producer="chain386" in="00:01:31.600" out="00:01:40.080">
   <property name="kdenlive:id">749</property>
   <property name="kdenlive:activeeffect">1</property>
   <filter id="filter1177">
    <property name="rotate_center">1</property>
    <property name="mlt_service">qtblend</property>
    <property name="kdenlive_id">qtblend</property>
    <property name="rect">00:01:31.600=320 180 1279 719 1.000000</property>
    <property name="rotation">00:01:31.600=0</property>
    <property name="compositing">0</property>
    <property name="distort">0</property>
    <property name="kdenlive:collapsed">1</property>
   </filter>
   <filter id="filter1178">
    <property name="rotate_center">1</property>
    <property name="mlt_service">qtblend</property>
    <property name="kdenlive_id">qtblend</property>
    <property name="rect">00:01:31.600=0 1080 1920 1080 1.000000;00:01:31.840=0 -47 1920 1080 1.000000;00:01:31.960=0 0 1920 1080 1.000000;00:01:39.720=0 0 1920 1080 1.000000;00:01:39.840=0 56 1920 1080 1.000000;00:01:40.080=0 -1080 1920 1080 1.000000</property>
    <property name="rotation">00:01:31.600=0;00:01:31.840=0;00:01:31.960=0;00:01:39.720=0;00:01:39.840=0;00:01:40.080=0</property>
    <property name="compositing">0</property>
    <property name="distort">0</property>
    <property name="kdenlive:collapsed">0</property>
   </filter>
  </entry>
  <blank length="00:00:05.280"/>
  <entry producer="producer628" in="00:00:00.000" out="00:00:00.480">
   <property name="kdenlive:id">231</property>
   <filter id="filter1179">
    <property name="rotate_center">1</property>
    <property name="mlt_service">qtblend</property>
    <property name="kdenlive_id">qtblend</property>
    <property name="rect">00:00:00.000=0 0 1920 1080 1.000000;00:00:00.480=-575 -324 3072 1728 1.000000</property>
    <property name="rotation">00:00:00.000=0;00:00:00.480=0</property>
    <property name="compositing">0</property>
    <property name="distort">0</property>
    <property name="kdenlive:collapsed">0</property>
   </filter>
   <filter id="filter1180" in="00:00:00.080" out="00:00:00.480">
    <property name="start">1</property>
    <property name="level">1</property>
    <property name="mlt_service">brightness</property>
    <property name="kdenlive_id">fade_to_black</property>
    <property name="alpha">00:00:00.000=1;00:00:00.400=0</property>
    <property name="kdenlive:collapsed">0</property>
   </filter>
  </entry>
  <blank length="00:00:19.360"/>
  <entry producer="chain387" in="00:27:45.280" out="00:27:49.880">
   <property name="kdenlive:id">763</property>
   <property name="kdenlive:activeeffect">1</property>
   <filter id="filter1181">
    <property name="rotate_center">1</property>
    <property name="mlt_service">qtblend</property>
    <property name="kdenlive_id">qtblend</property>
    <property name="rect">00:27:45.280=320 180 1279 719 1.000000</property>
    <property name="rotation">00:27:45.280=0</property>
    <property name="compositing">0</property>
    <property name="distort">0</property>
    <property name="kdenlive:collapsed">0</property>
   </filter>
   <filter id="filter1182">
    <property name="mlt_service">avfilter.gblur</property>
    <property name="kdenlive_id">avfilter.gblur</property>
    <property name="av.sigma">60</property>
    <property name="av.steps">1</property>
    <property name="av.planes">7</property>
    <property name="av.sigmaV">-1</property>
    <property name="kdenlive:collapsed">0</property>
   </filter>
   <filter id="filter1183">
    <property name="rotate_center">1</property>
    <property name="mlt_service">qtblend</property>
    <property name="kdenlive_id">qtblend</property>
    <property name="rect">00:27:45.280=0 1080 1920 1080 1.000000;00:27:45.520=0 -51 1920 1080 1.000000;00:27:45.640=0 0 1920 1080 1.000000;00:27:49.520=0 0 1920 1080 1.000000;00:27:49.640=0 53 1920 1080 1.000000;00:27:49.880=0 -1080 1920 1080 1.000000</property>
    <property name="rotation">00:27:45.280=0;00:27:45.520=0;00:27:45.640=0;00:27:49.520=0;00:27:49.640=0;00:27:49.880=0</property>
    <property name="compositing">0</property>
    <property name="distort">0</property>
   </filter>
  </entry>
  <blank length="00:00:02.480"/>
  <entry producer="chain294" in="00:46:58.040" out="00:47:07.920">
   <property name="kdenlive:id">6</property>
   <filter id="filter1184">
    <property name="rotate_center">1</property>
    <property name="mlt_service">qtblend</property>
    <property name="kdenlive_id">qtblend</property>
    <property name="rect">00:46:58.040=320 180 1279 719 1.000000</property>
    <property name="rotation">00:46:58.040=0</property>
    <property name="compositing">0</property>
    <property name="distort">0</property>
    <property name="kdenlive:collapsed">1</property>
   </filter>
   <filter id="filter1185">
    <property name="rotate_center">1</property>
    <property name="mlt_service">qtblend</property>
    <property name="kdenlive_id">qtblend</property>
    <property name="rect">00:46:58.040=0 1080 1920 1080 1.000000;00:46:58.280=0 -69 1920 1080 1.000000;00:46:58.400=0 0 1920 1080 1.000000</property>
    <property name="rotation">00:46:58.040=0;00:46:58.280=0;00:46:58.400=0</property>
    <property name="compositing">0</property>
    <property name="distort">0</property>
    <property name="kdenlive:collapsed">0</property>
   </filter>
  </entry>
  <entry producer="chain294" in="00:47:07.960" out="00:47:12.600">
   <property name="kdenlive:id">6</property>
   <filter id="filter1186">
    <property name="rotate_center">1</property>
    <property name="mlt_service">qtblend</property>
    <property name="kdenlive_id">qtblend</property>
    <property name="rect">00:47:07.960=320 180 1279 719 1.000000;00:47:08.440=-96 -54 2112 1188 1.000000</property>
    <property name="rotation">00:47:07.960=0;00:47:08.440=0</property>
    <property name="compositing">0</property>
    <property name="distort">0</property>
    <property name="kdenlive:collapsed">1</property>
   </filter>
   <filter id="filter1187">
    <property name="hradius">00:47:07.960=1;00:47:08.440=60</property>
    <property name="vradius">00:47:07.960=1;00:47:08.440=60</property>
    <property name="mlt_service">box_blur</property>
    <property name="kdenlive_id">box_blur</property>
    <property name="kdenlive:collapsed">0</property>
   </filter>
   <filter id="filter1188">
    <property name="start">1</property>
    <property name="level">00:47:07.960=1;00:47:08.440=0.53</property>
    <property name="mlt_service">brightness</property>
    <property name="kdenlive_id">brightness</property>
    <property name="kdenlive:collapsed">0</property>
   </filter>
  </entry>
  <blank length="00:01:10.760"/>
  <entry producer="chain294" in="00:46:58.040" out="00:47:07.000">
   <property name="kdenlive:id">6</property>
   <filter id="filter1189">
    <property name="rotate_center">1</property>
    <property name="mlt_service">qtblend</property>
    <property name="kdenlive_id">qtblend</property>
    <property name="rect">00:46:58.040=320 180 1279 719 1.000000</property>
    <property name="rotation">00:46:58.040=0</property>
    <property name="compositing">0</property>
    <property name="distort">0</property>
    <property name="kdenlive:collapsed">1</property>
   </filter>
   <filter id="filter1190">
    <property name="rotate_center">1</property>
    <property name="mlt_service">qtblend</property>
    <property name="kdenlive_id">qtblend</property>
    <property name="rect">00:46:58.040=0 1080 1920 1080 1.000000;00:46:58.280=0 -69 1920 1080 1.000000;00:46:58.400=0 0 1920 1080 1.000000;00:47:06.640=0 0 1920 1080 1.000000;00:47:06.760=0 61 1920 1080 1.000000;00:47:07.000=0 -1080 1920 1080 1.000000</property>
    <property name="rotation">00:46:58.040=0;00:46:58.280=0;00:46:58.400=0;00:47:06.640=0;00:47:06.760=0;00:47:07.000=0</property>
    <property name="compositing">0</property>
    <property name="distort">0</property>
    <property name="kdenlive:collapsed">0</property>
   </filter>
  </entry>
  <blank length="00:00:23.160"/>
  <entry producer="chain372" in="00:34:00.000" out="00:34:23.240">
   <property name="kdenlive:id">715</property>
   <filter id="filter1191">
    <property name="rotate_center">1</property>
    <property name="mlt_service">qtblend</property>
    <property name="kdenlive_id">qtblend</property>
    <property name="rect">00:34:00.000=320 180 1279 719 1.000000</property>
    <property name="rotation">00:34:00.000=0</property>
    <property name="compositing">0</property>
    <property name="distort">0</property>
    <property name="kdenlive:collapsed">1</property>
   </filter>
   <filter id="filter1192">
    <property name="rotate_center">1</property>
    <property name="mlt_service">qtblend</property>
    <property name="kdenlive_id">qtblend</property>
    <property name="rect">00:34:00.000=0 1080 1920 1080 1.000000;00:34:00.240=0 -54 1920 1080 1.000000;00:34:00.360=0 0 1920 1080 1.000000;00:34:22.880=0 0 1920 1080 1.000000;00:34:23.000=0 54 1920 1080 1.000000;00:34:23.240=0 -1080 1920 1080 1.000000</property>
    <property name="rotation">00:34:00.000=0;00:34:00.240=0;00:34:00.360=0;00:34:22.880=0;00:34:23.000=0;00:34:23.240=0</property>
    <property name="compositing">0</property>
    <property name="distort">0</property>
    <property name="kdenlive:collapsed">0</property>
   </filter>
  </entry>
  <blank length="00:00:06.560"/>
  <entry producer="producer628" in="00:00:00.000" out="00:00:00.480">
   <property name="kdenlive:id">231</property>
   <filter id="filter1193">
    <property name="rotate_center">1</property>
    <property name="mlt_service">qtblend</property>
    <property name="kdenlive_id">qtblend</property>
    <property name="rect">00:00:00.000=0 0 1920 1080 1.000000;00:00:00.480=-480 -270 2880 1620 1.000000</property>
    <property name="rotation">00:00:00.000=0;00:00:00.480=0</property>
    <property name="compositing">0</property>
    <property name="distort">0</property>
    <property name="kdenlive:collapsed">0</property>
   </filter>
   <filter id="filter1194" in="00:00:-0.040" out="00:00:00.480">
    <property name="start">1</property>
    <property name="level">1</property>
    <property name="mlt_service">brightness</property>
    <property name="kdenlive_id">fade_to_black</property>
    <property name="alpha">00:00:00.000=1;00:00:00.520=0</property>
    <property name="kdenlive:collapsed">0</property>
   </filter>
  </entry>
  <entry producer="producer299" in="00:00:00.000" out="00:00:21.520">
   <property name="kdenlive:id">346</property>
   <filter id="filter1195">
    <property name="rotate_center">1</property>
    <property name="mlt_service">qtblend</property>
    <property name="kdenlive_id">qtblend</property>
    <property name="rect">00:00:00.000=48 27 1824 1026 1.000000;00:00:00.360=0 0 1920 1080 1.000000</property>
    <property name="rotation">00:00:00.000=0;00:00:00.360=0</property>
    <property name="compositing">0</property>
    <property name="distort">0</property>
    <property name="kdenlive:collapsed">1</property>
   </filter>
   <filter id="filter1196" out="00:00:00.240">
    <property name="start">1</property>
    <property name="level">1</property>
    <property name="mlt_service">brightness</property>
    <property name="kdenlive_id">fade_from_black</property>
    <property name="alpha">00:00:00.000=0;00:00:00.240=1</property>
    <property name="kdenlive:collapsed">0</property>
   </filter>
   <filter id="filter1197" in="00:00:20.600" out="00:00:21.520">
    <property name="start">1</property>
    <property name="level">1</property>
    <property name="mlt_service">brightness</property>
    <property name="kdenlive_id">fade_to_black</property>
    <property name="alpha">00:00:00.000=1;00:00:00.920=0</property>
    <property name="kdenlive:collapsed">0</property>
   </filter>
  </entry>
  <entry producer="chain388" in="00:00:00.000" out="00:00:13.240">
   <property name="kdenlive:id">735</property>
   <filter id="filter1198">
    <property name="rotate_center">1</property>
    <property name="mlt_service">qtblend</property>
    <property name="kdenlive_id">qtblend</property>
    <property name="rect">00:00:00.000=320 180 1279 719 1.000000</property>
    <property name="rotation">00:00:00.000=0</property>
    <property name="compositing">0</property>
    <property name="distort">0</property>
    <property name="kdenlive:collapsed">1</property>
   </filter>
   <filter id="filter1199">
    <property name="rotate_center">1</property>
    <property name="mlt_service">qtblend</property>
    <property name="kdenlive_id">qtblend</property>
    <property name="rect">00:00:00.000=0 1080 1920 1080 1.000000;00:00:00.240=0 -59 1920 1080 1.000000;00:00:00.360=0 0 1920 1080 1.000000;00:00:12.880=0 0 1920 1080 1.000000;00:00:13.000=0 59 1920 1080 1.000000;00:00:13.240=0 -1080 1920 1080 1.000000</property>
    <property name="rotation">00:00:00.000=0;00:00:00.240=0;00:00:00.360=0;00:00:12.880=0;00:00:13.000=0;00:00:13.240=0</property>
    <property name="compositing">0</property>
    <property name="distort">0</property>
    <property name="kdenlive:collapsed">0</property>
   </filter>
  </entry>
  <blank length="00:00:08.640"/>
  <entry producer="producer644" in="00:00:00.000" out="00:00:01.600">
   <property name="kdenlive:id">358</property>
   <property name="kdenlive:activeeffect">1</property>
   <filter id="filter1200">
    <property name="rotate_center">1</property>
    <property name="mlt_service">qtblend</property>
    <property name="kdenlive_id">qtblend</property>
    <property name="rect">00:00:00.000=321 180 1278 719 1.000000</property>
    <property name="rotation">00:00:00.000=0</property>
    <property name="compositing">0</property>
    <property name="distort">0</property>
    <property name="kdenlive:collapsed">1</property>
   </filter>
   <filter id="filter1201">
    <property name="rotate_center">1</property>
    <property name="mlt_service">qtblend</property>
    <property name="kdenlive_id">qtblend</property>
    <property name="rect">00:00:00.000=950 535 19 10 1.000000;00:00:00.240=-48 -27 2016 1134 1.000000;00:00:00.360=0 0 1920 1080 1.000000;00:00:01.240=0 0 1920 1080 1.000000;00:00:01.360=0 63 1920 1080 1.000000;00:00:01.600=0 -1080 1920 1080 1.000000</property>
    <property name="rotation">00:00:00.000=0;00:00:00.240=0;00:00:00.360=0;00:00:01.240=0;00:00:01.360=0;00:00:01.600=0</property>
    <property name="compositing">0</property>
    <property name="distort">0</property>
    <property name="kdenlive:collapsed">0</property>
   </filter>
  </entry>
  <entry producer="producer135" in="00:00:00.000" out="00:00:16.720">
   <property name="kdenlive:id">233</property>
   <filter id="filter1202" out="00:00:00.600">
    <property name="start">1</property>
    <property name="level">1</property>
    <property name="mlt_service">brightness</property>
    <property name="kdenlive_id">fade_from_black</property>
    <property name="alpha">00:00:00.000=0;00:00:00.600=1</property>
    <property name="kdenlive:collapsed">0</property>
   </filter>
   <filter id="filter1203" in="00:00:16.120" out="00:00:16.720">
    <property name="start">1</property>
    <property name="level">1</property>
    <property name="mlt_service">brightness</property>
    <property name="kdenlive_id">fade_to_black</property>
    <property name="alpha">00:00:00.000=1;00:00:00.600=0</property>
    <property name="kdenlive:collapsed">0</property>
   </filter>
  </entry>
  <entry producer="chain389" in="01:03:24.000" out="01:03:30.840">
   <property name="kdenlive:id">802</property>
   <property name="kdenlive:activeeffect">1</property>
   <filter id="filter1204">
    <property name="rotate_center">1</property>
    <property name="mlt_service">qtblend</property>
    <property name="kdenlive_id">qtblend</property>
    <property name="rect">01:03:24.000=320 180 1279 719 1.000000</property>
    <property name="rotation">01:03:24.000=0</property>
    <property name="compositing">0</property>
    <property name="distort">0</property>
    <property name="kdenlive:collapsed">1</property>
   </filter>
   <filter id="filter1205">
    <property name="rotate_center">1</property>
    <property name="mlt_service">qtblend</property>
    <property name="kdenlive_id">qtblend</property>
    <property name="rect">01:03:24.000=0 1080 1920 1080 1.000000;01:03:24.240=0 -51 1920 1080 1.000000;01:03:24.360=0 0 1920 1080 1.000000</property>
    <property name="rotation">01:03:24.000=0;01:03:24.240=0;01:03:24.360=0</property>
    <property name="compositing">0</property>
    <property name="distort">0</property>
    <property name="kdenlive:collapsed">0</property>
   </filter>
  </entry>
  <entry producer="producer628" in="00:00:00.000" out="00:00:00.480">
   <property name="kdenlive:id">231</property>
   <filter id="filter1206">
    <property name="rotate_center">1</property>
    <property name="mlt_service">qtblend</property>
    <property name="kdenlive_id">qtblend</property>
    <property name="rect">00:00:00.000=0 0 1920 1080 1.000000;00:00:00.480=-480 -270 2880 1620 1.000000</property>
    <property name="rotation">00:00:00.000=0;00:00:00.480=0</property>
    <property name="compositing">0</property>
    <property name="distort">0</property>
    <property name="kdenlive:collapsed">0</property>
   </filter>
   <filter id="filter1207" in="00:00:-0.040" out="00:00:00.480">
    <property name="start">1</property>
    <property name="level">1</property>
    <property name="mlt_service">brightness</property>
    <property name="kdenlive_id">fade_to_black</property>
    <property name="alpha">00:00:00.000=1;00:00:00.520=0</property>
    <property name="kdenlive:collapsed">0</property>
   </filter>
  </entry>
  <entry producer="producer299" in="00:00:00.000" out="00:01:14.560">
   <property name="kdenlive:id">346</property>
   <filter id="filter1208">
    <property name="rotate_center">1</property>
    <property name="mlt_service">qtblend</property>
    <property name="kdenlive_id">qtblend</property>
    <property name="rect">00:00:00.000=48 27 1824 1026 1.000000;00:00:00.360=0 0 1920 1080 1.000000</property>
    <property name="rotation">00:00:00.000=0;00:00:00.360=0</property>
    <property name="compositing">0</property>
    <property name="distort">0</property>
    <property name="kdenlive:collapsed">1</property>
   </filter>
   <filter id="filter1209" out="00:00:00.240">
    <property name="start">1</property>
    <property name="level">1</property>
    <property name="mlt_service">brightness</property>
    <property name="kdenlive_id">fade_from_black</property>
    <property name="alpha">00:00:00.000=0;00:00:00.240=1</property>
    <property name="kdenlive:collapsed">0</property>
   </filter>
   <filter id="filter1210" in="00:01:13.640" out="00:01:14.560">
    <property name="start">1</property>
    <property name="level">1</property>
    <property name="mlt_service">brightness</property>
    <property name="kdenlive_id">fade_to_black</property>
    <property name="alpha">00:00:00.000=1;00:00:00.920=0</property>
    <property name="kdenlive:collapsed">0</property>
   </filter>
  </entry>
  <entry producer="chain271" in="00:10:10.080" out="00:10:14.080">
   <property name="kdenlive:id">232</property>
   <filter id="filter1211">
    <property name="rotate_center">1</property>
    <property name="mlt_service">qtblend</property>
    <property name="kdenlive_id">qtblend</property>
    <property name="rect">00:10:10.080=320 180 1279 719 1.000000</property>
    <property name="rotation">00:10:10.080=0</property>
    <property name="compositing">0</property>
    <property name="distort">0</property>
    <property name="kdenlive:collapsed">1</property>
   </filter>
   <filter id="filter1212">
    <property name="rotate_center">1</property>
    <property name="mlt_service">qtblend</property>
    <property name="kdenlive_id">qtblend</property>
    <property name="rect">00:10:10.080=0 1080 1920 1080 1.000000;00:10:10.320=0 -55 1920 1080 1.000000;00:10:10.440=0 0 1920 1080 1.000000;00:10:13.720=0 0 1920 1080 1.000000;00:10:13.840=0 49 1920 1080 1.000000;00:10:14.080=0 -1080 1920 1080 1.000000</property>
    <property name="rotation">00:10:10.080=0;00:10:10.320=0;00:10:10.440=0;00:10:13.720=0;00:10:13.840=0;00:10:14.080=0</property>
    <property name="compositing">0</property>
    <property name="distort">0</property>
    <property name="kdenlive:collapsed">0</property>
   </filter>
  </entry>
  <blank length="00:00:03.760"/>
  <entry producer="producer570" in="00:00:00.000" out="00:00:17.080">
   <property name="kdenlive:id">812</property>
   <filter id="filter1213">
    <property name="rotate_center">1</property>
    <property name="mlt_service">qtblend</property>
    <property name="kdenlive_id">qtblend</property>
    <property name="rect">00:00:00.000=0 70 1920 1080 1.000000;00:00:00.320=0 0 1920 1080 1.000000</property>
    <property name="rotation">00:00:00.000=0;00:00:00.320=0</property>
    <property name="compositing">0</property>
    <property name="distort">0</property>
   </filter>
   <filter id="filter1214" out="00:00:00.320">
    <property name="start">1</property>
    <property name="level">1</property>
    <property name="mlt_service">brightness</property>
    <property name="kdenlive_id">fade_from_black</property>
    <property name="alpha">00:00:00.000=0;00:00:00.320=1</property>
   </filter>
  </entry>
  <entry producer="producer570" in="00:00:00.000" out="00:00:00.280">
   <property name="kdenlive:id">812</property>
   <filter id="filter1215">
    <property name="rotate_center">1</property>
    <property name="mlt_service">qtblend</property>
    <property name="kdenlive_id">qtblend</property>
    <property name="rect">00:00:00.000=0 0 1920 1080 1.000000;00:00:00.280=98 0 1920 1080 1.000000</property>
    <property name="rotation">00:00:00.000=0;00:00:00.280=0</property>
    <property name="compositing">0</property>
    <property name="distort">0</property>
    <property name="kdenlive:collapsed">0</property>
   </filter>
   <filter id="filter1216" in="00:00:-0.040" out="00:00:00.280">
    <property name="start">1</property>
    <property name="level">1</property>
    <property name="mlt_service">brightness</property>
    <property name="kdenlive_id">fade_to_black</property>
    <property name="alpha">00:00:00.000=1;00:00:00.320=0</property>
    <property name="kdenlive:collapsed">0</property>
   </filter>
  </entry>
  <blank length="00:00:04.080"/>
  <entry producer="producer571" in="00:00:00.000" out="00:00:04.760">
   <property name="kdenlive:id">815</property>
   <filter id="filter1217">
    <property name="rotate_center">1</property>
    <property name="mlt_service">qtblend</property>
    <property name="kdenlive_id">qtblend</property>
    <property name="rect">00:00:00.000=432 243 1054 593 1.000000</property>
    <property name="rotation">00:00:00.000=0</property>
    <property name="compositing">0</property>
    <property name="distort">0</property>
    <property name="kdenlive:collapsed">1</property>
   </filter>
   <filter id="filter1218">
    <property name="rotate_center">1</property>
    <property name="mlt_service">qtblend</property>
    <property name="kdenlive_id">qtblend</property>
    <property name="rect">00:00:00.000=0 1080 1920 1080 1.000000;00:00:00.240=0 -62 1920 1080 1.000000;00:00:00.360=0 0 1920 1080 1.000000;00:00:00.960=0 0 1920 1080 1.000000;00:00:01.080=49 0 1920 1080 1.000000;00:00:01.320=-515 0 1920 1080 1.000000;00:00:01.440=-462 0 1920 1080 1.000000</property>
    <property name="rotation">00:00:00.000=0;00:00:00.240=0;00:00:00.360=0;00:00:00.960=0;00:00:01.080=0;00:00:01.320=0;00:00:01.440=0</property>
    <property name="compositing">0</property>
    <property name="distort">0</property>
    <property name="kdenlive:collapsed">0</property>
   </filter>
  </entry>
  <blank length="00:00:04.920"/>
  <entry producer="chain390" in="00:02:54.880" out="00:02:56.840">
   <property name="kdenlive:id">818</property>
   <property name="kdenlive:activeeffect">1</property>
   <filter id="filter1219">
    <property name="rotate_center">1</property>
    <property name="mlt_service">qtblend</property>
    <property name="kdenlive_id">qtblend</property>
    <property name="rect">00:02:54.880=320 180 1279 719 1.000000</property>
    <property name="rotation">00:02:54.880=0</property>
    <property name="compositing">0</property>
    <property name="distort">0</property>
    <property name="kdenlive:collapsed">1</property>
   </filter>
   <filter id="filter1220">
    <property name="rotate_center">1</property>
    <property name="mlt_service">qtblend</property>
    <property name="kdenlive_id">qtblend</property>
    <property name="rect">00:02:54.880=0 1080 1920 1080 1.000000;00:02:55.120=0 -51 1920 1080 1.000000;00:02:55.240=0 0 1920 1080 1.000000</property>
    <property name="rotation">00:02:54.880=0;00:02:55.120=0;00:02:55.240=0</property>
    <property name="compositing">0</property>
    <property name="distort">0</property>
    <property name="kdenlive:collapsed">0</property>
   </filter>
  </entry>
  <entry producer="producer628" in="00:00:00.000" out="00:00:00.480">
   <property name="kdenlive:id">231</property>
   <filter id="filter1221">
    <property name="rotate_center">1</property>
    <property name="mlt_service">qtblend</property>
    <property name="kdenlive_id">qtblend</property>
    <property name="rect">00:00:00.000=0 0 1920 1080 1.000000;00:00:00.480=-480 -270 2880 1620 1.000000</property>
    <property name="rotation">00:00:00.000=0;00:00:00.480=0</property>
    <property name="compositing">0</property>
    <property name="distort">0</property>
    <property name="kdenlive:collapsed">0</property>
   </filter>
   <filter id="filter1222" in="00:00:-0.040" out="00:00:00.480">
    <property name="start">1</property>
    <property name="level">1</property>
    <property name="mlt_service">brightness</property>
    <property name="kdenlive_id">fade_to_black</property>
    <property name="alpha">00:00:00.000=1;00:00:00.520=0</property>
    <property name="kdenlive:collapsed">0</property>
   </filter>
  </entry>
  <blank length="00:00:20.680"/>
  <entry producer="producer645" in="00:00:00.000" out="00:00:08.920">
   <property name="kdenlive:id">827</property>
  </entry>
  <entry producer="producer645" in="00:00:16.240" out="00:00:19.680">
   <property name="kdenlive:id">827</property>
  </entry>
  <blank length="00:00:01.960"/>
  <entry producer="chain391" in="00:00:00.000" out="00:00:04.480">
   <property name="kdenlive:id">831</property>
   <property name="kdenlive:activeeffect">1</property>
   <filter id="filter1223">
    <property name="rotate_center">1</property>
    <property name="mlt_service">qtblend</property>
    <property name="kdenlive_id">qtblend</property>
    <property name="rect">00:00:00.000=321 180 1278 719 1.000000</property>
    <property name="rotation">00:00:00.000=0</property>
    <property name="compositing">0</property>
    <property name="distort">0</property>
    <property name="kdenlive:collapsed">1</property>
   </filter>
   <filter id="filter1224">
    <property name="rotate_center">1</property>
    <property name="mlt_service">qtblend</property>
    <property name="kdenlive_id">qtblend</property>
    <property name="rect">00:00:00.000=0 1080 1920 1080 1.000000;00:00:00.240=0 -50 1920 1080 1.000000;00:00:00.360=0 0 1920 1080 1.000000;00:00:04.120=0 0 1920 1080 1.000000;00:00:04.240=0 41 1920 1080 1.000000;00:00:04.480=0 -1080 1920 1080 1.000000</property>
    <property name="rotation">00:00:00.000=0;00:00:00.240=0;00:00:00.360=0;00:00:04.120=0;00:00:04.240=0;00:00:04.480=0</property>
    <property name="compositing">0</property>
    <property name="distort">0</property>
    <property name="kdenlive:collapsed">0</property>
   </filter>
  </entry>
  <blank length="00:00:33.520"/>
  <entry producer="producer514" in="00:00:00.000" out="00:00:05.920">
   <property name="kdenlive:id">658</property>
   <filter id="filter1225">
    <property name="rotate_center">1</property>
    <property name="mlt_service">qtblend</property>
    <property name="kdenlive_id">qtblend</property>
    <property name="rect">00:00:00.000=0 0 1920 1080 1.000000;00:00:05.920=0 0 1920 1080 1.000000</property>
    <property name="rotation">00:00:00.000=0;00:00:05.920=0</property>
    <property name="compositing">0</property>
    <property name="distort">0</property>
    <property name="kdenlive:collapsed">0</property>
   </filter>
  </entry>
  <entry producer="producer514" in="00:00:00.000" out="00:00:00.400">
   <property name="kdenlive:id">658</property>
   <filter id="filter1226">
    <property name="rotate_center">1</property>
    <property name="mlt_service">qtblend</property>
    <property name="kdenlive_id">qtblend</property>
    <property name="rect">00:00:00.000=0 0 1920 1080 1.000000;00:00:00.040=0 0 1920 1080 1.000000;00:00:00.160=0 45 1920 1080 1.000000;00:00:00.400=0 -1080 1920 1080 1.000000</property>
    <property name="rotation">00:00:00.000=0;00:00:00.040=0;00:00:00.160=0;00:00:00.400=0</property>
    <property name="compositing">0</property>
    <property name="distort">0</property>
    <property name="kdenlive:collapsed">0</property>
   </filter>
  </entry>
  <blank length="00:00:00.240"/>
  <entry producer="producer646" in="00:00:00.000" out="00:00:06.080">
   <property name="kdenlive:id">836</property>
   <filter id="filter1227">
    <property name="rotate_center">1</property>
    <property name="mlt_service">qtblend</property>
    <property name="kdenlive_id">qtblend</property>
    <property name="rect">00:00:00.000=0 65 1920 1080 1.000000;00:00:00.240=0 0 1920 1080 1.000000</property>
    <property name="rotation">00:00:00.000=0;00:00:00.240=0</property>
    <property name="compositing">0</property>
    <property name="distort">0</property>
    <property name="kdenlive:collapsed">0</property>
   </filter>
   <filter id="filter1228" out="00:00:00.240">
    <property name="start">1</property>
    <property name="level">1</property>
    <property name="mlt_service">brightness</property>
    <property name="kdenlive_id">fade_from_black</property>
    <property name="alpha">00:00:00.000=0;00:00:00.240=1</property>
    <property name="kdenlive:collapsed">0</property>
   </filter>
   <filter id="filter1229">
    <property name="rotate_center">1</property>
    <property name="mlt_service">qtblend</property>
    <property name="kdenlive_id">qtblend</property>
    <property name="rect">00:00:00.000=0 0 1920 1080 1.000000;00:00:05.760=0 0 1920 1080 1.000000;00:00:06.080=0 -50 1920 1080 1.000000</property>
    <property name="rotation">00:00:00.000=0;00:00:05.760=0;00:00:06.080=0</property>
    <property name="compositing">0</property>
    <property name="distort">0</property>
    <property name="kdenlive:collapsed">1</property>
   </filter>
   <filter id="filter1230" in="00:00:05.760" out="00:00:06.080">
    <property name="start">1</property>
    <property name="level">1</property>
    <property name="mlt_service">brightness</property>
    <property name="kdenlive_id">fade_to_black</property>
    <property name="alpha">00:00:00.000=1;00:00:00.320=0</property>
   </filter>
  </entry>
  <blank length="00:00:00.120"/>
  <entry producer="chain383" in="00:17:18.920" out="00:17:32.720">
   <property name="kdenlive:id">7</property>
   <property name="kdenlive:activeeffect">1</property>
   <filter id="filter1231">
    <property name="rotate_center">1</property>
    <property name="mlt_service">qtblend</property>
    <property name="kdenlive_id">qtblend</property>
    <property name="rect">00:17:18.920=320 180 1279 719 1.000000</property>
    <property name="rotation">00:17:18.920=0</property>
    <property name="compositing">0</property>
    <property name="distort">0</property>
    <property name="kdenlive:collapsed">1</property>
   </filter>
   <filter id="filter1232">
    <property name="rotate_center">1</property>
    <property name="mlt_service">qtblend</property>
    <property name="kdenlive_id">qtblend</property>
    <property name="rect">00:17:18.920=0 1080 1920 1080 1.000000;00:17:19.160=0 -42 1920 1080 1.000000;00:17:19.280=0 0 1920 1080 1.000000</property>
    <property name="rotation">00:17:18.920=0;00:17:19.160=0;00:17:19.280=0</property>
    <property name="compositing">0</property>
    <property name="distort">0</property>
    <property name="kdenlive:collapsed">0</property>
   </filter>
  </entry>
  <entry producer="producer628" in="00:00:00.000" out="00:00:00.440">
   <property name="kdenlive:id">231</property>
   <property name="kdenlive:activeeffect">0</property>
   <filter id="filter1233">
    <property name="rotate_center">1</property>
    <property name="mlt_service">qtblend</property>
    <property name="kdenlive_id">qtblend</property>
    <property name="rect">00:00:00.000=0 0 1920 1080 1.000000;00:00:00.440=-480 -270 2880 1620 1.000000</property>
    <property name="rotation">00:00:00.000=0;00:00:00.440=0</property>
    <property name="compositing">0</property>
    <property name="distort">0</property>
    <property name="kdenlive:collapsed">0</property>
   </filter>
   <filter id="filter1234" in="00:00:-0.040" out="00:00:00.440">
    <property name="start">1</property>
    <property name="level">1</property>
    <property name="mlt_service">brightness</property>
    <property name="kdenlive_id">fade_to_black</property>
    <property name="alpha">00:00:00.000=1;00:00:00.480=0</property>
    <property name="kdenlive:collapsed">0</property>
   </filter>
  </entry>
  <entry producer="producer299" in="00:00:00.000" out="00:00:13.480">
   <property name="kdenlive:id">346</property>
   <property name="kdenlive:activeeffect">2</property>
   <filter id="filter1235">
    <property name="rotate_center">1</property>
    <property name="mlt_service">qtblend</property>
    <property name="kdenlive_id">qtblend</property>
    <property name="rect">00:00:00.000=48 27 1824 1026 1.000000;00:00:00.360=0 0 1920 1080 1.000000</property>
    <property name="rotation">00:00:00.000=0;00:00:00.360=0</property>
    <property name="compositing">0</property>
    <property name="distort">0</property>
    <property name="kdenlive:collapsed">1</property>
   </filter>
   <filter id="filter1236" out="00:00:00.240">
    <property name="start">1</property>
    <property name="level">1</property>
    <property name="mlt_service">brightness</property>
    <property name="kdenlive_id">fade_from_black</property>
    <property name="alpha">00:00:00.000=0;00:00:00.240=1</property>
    <property name="kdenlive:collapsed">0</property>
   </filter>
   <filter id="filter1237" in="00:00:12.600" out="00:00:13.520">
    <property name="start">1</property>
    <property name="level">1</property>
    <property name="mlt_service">brightness</property>
    <property name="kdenlive_id">fade_to_black</property>
    <property name="alpha">00:00:00.000=1;00:00:00.920=0</property>
    <property name="kdenlive:collapsed">0</property>
   </filter>
  </entry>
  <blank length="00:00:13.720"/>
  <entry producer="chain383" in="00:17:18.920" out="00:17:28.320">
   <property name="kdenlive:id">7</property>
   <filter id="filter1238">
    <property name="rotate_center">1</property>
    <property name="mlt_service">qtblend</property>
    <property name="kdenlive_id">qtblend</property>
    <property name="rect">00:17:18.920=320 180 1279 719 1.000000</property>
    <property name="rotation">00:17:18.920=0</property>
    <property name="compositing">0</property>
    <property name="distort">0</property>
    <property name="kdenlive:collapsed">1</property>
   </filter>
   <filter id="filter1239">
    <property name="rotate_center">1</property>
    <property name="mlt_service">qtblend</property>
    <property name="kdenlive_id">qtblend</property>
    <property name="rect">00:17:18.920=0 1080 1920 1080 1.000000;00:17:19.160=0 -42 1920 1080 1.000000;00:17:19.280=0 0 1920 1080 1.000000</property>
    <property name="rotation">00:17:18.920=0;00:17:19.160=0;00:17:19.280=0</property>
    <property name="compositing">0</property>
    <property name="distort">0</property>
   </filter>
  </entry>
  <entry producer="producer628" in="00:00:00.000" out="00:00:00.440">
   <property name="kdenlive:id">231</property>
   <filter id="filter1240">
    <property name="rotate_center">1</property>
    <property name="mlt_service">qtblend</property>
    <property name="kdenlive_id">qtblend</property>
    <property name="rect">00:00:00.000=0 0 1920 1080 1.000000;00:00:00.440=-480 -270 2880 1620 1.000000</property>
    <property name="rotation">00:00:00.000=0;00:00:00.440=0</property>
    <property name="compositing">0</property>
    <property name="distort">0</property>
    <property name="kdenlive:collapsed">1</property>
   </filter>
   <filter id="filter1241" in="00:00:-0.040" out="00:00:00.440">
    <property name="start">1</property>
    <property name="level">1</property>
    <property name="mlt_service">brightness</property>
    <property name="kdenlive_id">fade_to_black</property>
    <property name="alpha">00:00:00.000=1;00:00:00.480=0</property>
    <property name="kdenlive:collapsed">0</property>
   </filter>
  </entry>
  <entry producer="producer299" in="00:00:00.000" out="00:01:11.560">
   <property name="kdenlive:id">346</property>
   <filter id="filter1242">
    <property name="rotate_center">1</property>
    <property name="mlt_service">qtblend</property>
    <property name="kdenlive_id">qtblend</property>
    <property name="rect">00:00:00.000=48 27 1824 1026 1.000000;00:00:00.360=0 0 1920 1080 1.000000</property>
    <property name="rotation">00:00:00.000=0;00:00:00.360=0</property>
    <property name="compositing">0</property>
    <property name="distort">0</property>
    <property name="kdenlive:collapsed">1</property>
   </filter>
   <filter id="filter1243" out="00:00:00.240">
    <property name="start">1</property>
    <property name="level">1</property>
    <property name="mlt_service">brightness</property>
    <property name="kdenlive_id">fade_from_black</property>
    <property name="alpha">00:00:00.000=0;00:00:00.240=1</property>
    <property name="kdenlive:collapsed">0</property>
   </filter>
   <filter id="filter1244" in="00:01:10.680" out="00:01:11.600">
    <property name="start">1</property>
    <property name="level">1</property>
    <property name="mlt_service">brightness</property>
    <property name="kdenlive_id">fade_to_black</property>
    <property name="alpha">00:00:00.000=1;00:00:00.920=0</property>
    <property name="kdenlive:collapsed">0</property>
   </filter>
  </entry>
  <blank length="00:00:09.800"/>
  <entry producer="chain392" in="00:08:19.080" out="00:08:34.200">
   <property name="kdenlive:id">846</property>
   <property name="kdenlive:activeeffect">1</property>
   <filter id="filter1245">
    <property name="rotate_center">1</property>
    <property name="mlt_service">qtblend</property>
    <property name="kdenlive_id">qtblend</property>
    <property name="rect">00:08:19.080=320 180 1279 719 1.000000</property>
    <property name="rotation">00:08:19.080=0</property>
    <property name="compositing">0</property>
    <property name="distort">0</property>
    <property name="kdenlive:collapsed">1</property>
   </filter>
   <filter id="filter1246">
    <property name="rotate_center">1</property>
    <property name="mlt_service">qtblend</property>
    <property name="kdenlive_id">qtblend</property>
    <property name="rect">00:08:19.080=0 1080 1920 1080 1.000000;00:08:19.320=0 -70 1920 1080 1.000000;00:08:19.440=0 0 1920 1080 1.000000;00:08:33.840=0 0 1920 1080 1.000000;00:08:33.960=0 76 1920 1080 1.000000;00:08:34.200=0 -1080 1920 1080 1.000000</property>
    <property name="rotation">00:08:19.080=0;00:08:19.320=0;00:08:19.440=0;00:08:33.840=0;00:08:33.960=0;00:08:34.200=0</property>
    <property name="compositing">0</property>
    <property name="distort">0</property>
    <property name="kdenlive:collapsed">0</property>
   </filter>
  </entry>
  <blank length="00:00:21.080"/>
  <entry producer="chain398" in="00:00:00.000" out="00:00:12.200">
   <property name="kdenlive:id">849</property>
   <property name="kdenlive:activeeffect">1</property>
   <filter id="filter1247">
    <property name="rotate_center">1</property>
    <property name="mlt_service">qtblend</property>
    <property name="kdenlive_id">qtblend</property>
    <property name="rect">00:00:00.000=320 180 1279 719 1.000000</property>
    <property name="rotation">00:00:00.000=0</property>
    <property name="compositing">0</property>
    <property name="distort">0</property>
    <property name="kdenlive:collapsed">1</property>
   </filter>
   <filter id="filter1248">
    <property name="rotate_center">1</property>
    <property name="mlt_service">qtblend</property>
    <property name="kdenlive_id">qtblend</property>
    <property name="rect">00:00:00.000=0 1080 1920 1080 1.000000;00:00:00.240=0 -56 1920 1080 1.000000;00:00:00.360=0 0 1920 1080 1.000000</property>
    <property name="rotation">00:00:00.000=0;00:00:00.240=0;00:00:00.360=0</property>
    <property name="compositing">0</property>
    <property name="distort">0</property>
    <property name="kdenlive:collapsed">0</property>
   </filter>
  </entry>
  <blank length="00:00:18.560"/>
  <entry producer="producer648" in="00:00:00.000" out="00:00:03.240">
   <property name="kdenlive:id">854</property>
   <property name="kdenlive:activeeffect">0</property>
   <filter id="filter1249">
    <property name="rotate_center">1</property>
    <property name="mlt_service">qtblend</property>
    <property name="kdenlive_id">qtblend</property>
    <property name="rect">00:00:00.000=-331 -47 2587 1455 1.000000;00:00:03.240=-331 -164 2587 1455 1.000000</property>
    <property name="rotation">00:00:00.000=0;00:00:03.240=0</property>
    <property name="compositing">0</property>
    <property name="distort">0</property>
    <property name="kdenlive:collapsed">0</property>
   </filter>
  </entry>
  <blank length="00:01:01.080"/>
  <entry producer="chain399" in="00:00:14.000" out="00:00:28.880">
   <property name="kdenlive:id">24</property>
   <property name="kdenlive:activeeffect">3</property>
   <filter id="filter1250">
    <property name="version">0.2</property>
    <property name="mlt_service">frei0r.contrast0r</property>
    <property name="kdenlive_id">frei0r.contrast0r</property>
    <property name="Contrast">00:00:14.000=0.86</property>
    <property name="kdenlive:collapsed">1</property>
    <properties name="ctor-0x7f518dffb6c0"/>
    <properties name="ctor-0x7f4efaffd6c0"/>
    <properties name="ctor-0x7f4f11ffb6c0"/>
    <properties name="ctor-0x7f4e2ffff6c0"/>
   </filter>
   <filter id="filter1251">
    <property name="delta">00:00:14.000=28</property>
    <property name="every">00:00:14.000=20</property>
    <property name="brightnessdelta_up">00:00:14.000=26</property>
    <property name="brightnessdelta_down">00:00:14.000=37</property>
    <property name="brightnessdelta_every">00:00:14.000=70</property>
    <property name="unevendevelop_up">00:00:14.000=60</property>
    <property name="unevendevelop_down">00:00:14.000=20</property>
    <property name="unevendevelop_duration">00:00:14.000=70</property>
    <property name="mlt_service">oldfilm</property>
    <property name="kdenlive_id">oldfilm</property>
    <property name="kdenlive:collapsed">1</property>
   </filter>
   <filter id="filter1252">
    <property name="rotate_center">1</property>
    <property name="mlt_service">qtblend</property>
    <property name="kdenlive_id">qtblend</property>
    <property name="rect">00:00:14.000=320 180 1279 719 1.000000</property>
    <property name="rotation">00:00:14.000=0</property>
    <property name="compositing">0</property>
    <property name="distort">0</property>
    <property name="kdenlive:collapsed">1</property>
   </filter>
   <filter id="filter1253">
    <property name="rotate_center">1</property>
    <property name="mlt_service">qtblend</property>
    <property name="kdenlive_id">qtblend</property>
    <property name="rect">00:00:14.000=0 1080 1920 1080 1.000000;00:00:14.240=0 -52 1920 1080 1.000000;00:00:14.360=0 0 1920 1080 1.000000;00:00:28.520=0 0 1920 1080 1.000000;00:00:28.640=0 56 1920 1080 1.000000;00:00:28.880=0 -1080 1920 1080 1.000000</property>
    <property name="rotation">00:00:14.000=0;00:00:14.240=0;00:00:14.360=0;00:00:28.520=0;00:00:28.640=0;00:00:28.880=0</property>
    <property name="compositing">0</property>
    <property name="distort">0</property>
    <property name="kdenlive:collapsed">0</property>
   </filter>
  </entry>
  <blank length="00:00:30.080"/>
  <entry producer="chain327" in="01:13:20.600" out="01:13:25.440">
   <property name="kdenlive:id">551</property>
   <property name="kdenlive:activeeffect">2</property>
   <filter id="filter1254">
    <property name="mlt_service">crop</property>
    <property name="kdenlive_id">crop</property>
    <property name="top">540</property>
    <property name="left">320</property>
    <property name="bottom">180</property>
    <property name="right">959</property>
    <property name="center">0</property>
    <property name="center_bias">0</property>
    <property name="use_profile">1</property>
    <property name="kdenlive:collapsed">1</property>
   </filter>
   <filter id="filter1255">
    <property name="rotate_center">1</property>
    <property name="mlt_service">qtblend</property>
    <property name="kdenlive_id">qtblend</property>
    <property name="rect">01:13:20.600=320 180 1279 719 1.000000</property>
    <property name="rotation">01:13:20.600=0</property>
    <property name="compositing">0</property>
    <property name="distort">0</property>
    <property name="kdenlive:collapsed">1</property>
   </filter>
   <filter id="filter1256">
    <property name="rotate_center">1</property>
    <property name="mlt_service">qtblend</property>
    <property name="kdenlive_id">qtblend</property>
    <property name="rect">01:13:20.600=0 1080 1920 1080 1.000000;01:13:20.840=0 -82 1920 1080 1.000000;01:13:20.960=0 0 1920 1080 1.000000</property>
    <property name="rotation">01:13:20.600=0;01:13:20.840=0;01:13:20.960=0</property>
    <property name="compositing">0</property>
    <property name="distort">0</property>
    <property name="kdenlive:collapsed">0</property>
   </filter>
  </entry>
  <entry producer="producer628" in="00:00:00.000" out="00:00:00.480">
   <property name="kdenlive:id">231</property>
   <property name="kdenlive:activeeffect">0</property>
   <filter id="filter1257">
    <property name="rotate_center">1</property>
    <property name="mlt_service">qtblend</property>
    <property name="kdenlive_id">qtblend</property>
    <property name="rect">00:00:00.000=0 0 1920 1080 1.000000;00:00:00.480=-480 -270 2880 1620 1.000000</property>
    <property name="rotation">00:00:00.000=0;00:00:00.480=0</property>
    <property name="compositing">0</property>
    <property name="distort">0</property>
    <property name="kdenlive:collapsed">0</property>
   </filter>
   <filter id="filter1258" in="00:00:-0.040" out="00:00:00.480">
    <property name="start">1</property>
    <property name="level">1</property>
    <property name="mlt_service">brightness</property>
    <property name="kdenlive_id">fade_to_black</property>
    <property name="alpha">00:00:00.000=1;00:00:00.520=0</property>
    <property name="kdenlive:collapsed">0</property>
   </filter>
  </entry>
  <entry producer="producer299" in="00:00:00.000" out="00:00:36.360">
   <property name="kdenlive:id">346</property>
   <property name="kdenlive:activeeffect">2</property>
   <filter id="filter1259">
    <property name="rotate_center">1</property>
    <property name="mlt_service">qtblend</property>
    <property name="kdenlive_id">qtblend</property>
    <property name="rect">00:00:00.000=48 27 1824 1026 1.000000;00:00:00.360=0 0 1920 1080 1.000000</property>
    <property name="rotation">00:00:00.000=0;00:00:00.360=0</property>
    <property name="compositing">0</property>
    <property name="distort">0</property>
    <property name="kdenlive:collapsed">1</property>
   </filter>
   <filter id="filter1260" out="00:00:00.240">
    <property name="start">1</property>
    <property name="level">1</property>
    <property name="mlt_service">brightness</property>
    <property name="kdenlive_id">fade_from_black</property>
    <property name="alpha">00:00:00.000=0;00:00:00.240=1</property>
    <property name="kdenlive:collapsed">0</property>
   </filter>
   <filter id="filter1261" in="00:00:35.480" out="00:00:36.400">
    <property name="start">1</property>
    <property name="level">1</property>
    <property name="mlt_service">brightness</property>
    <property name="kdenlive_id">fade_to_black</property>
    <property name="alpha">00:00:00.000=1;00:00:00.920=0</property>
    <property name="kdenlive:collapsed">0</property>
   </filter>
  </entry>
 </playlist>
 <playlist id="playlist15"/>
 <tractor id="tractor7" in="00:00:00.000" out="01:12:45.280">
  <property name="kdenlive:trackheight">67</property>
  <property name="kdenlive:timeline_active">1</property>
  <property name="kdenlive:collapsed">0</property>
  <property name="kdenlive:thumbs_format"/>
  <property name="kdenlive:audio_rec"/>
  <track hide="audio" producer="playlist14"/>
  <track hide="audio" producer="playlist15"/>
 </tractor>
 <producer id="producer652" in="00:00:00.000" out="00:01:02.160">
  <property name="length">1555</property>
  <property name="eof">pause</property>
  <property name="resource">/home/liquidzulu/Pictures/yt/animation/output/project/squiggly-two-thirds/.all.png</property>
  <property name="ttl">1</property>
  <property name="aspect_ratio">1</property>
  <property name="progressive">1</property>
  <property name="seekable">1</property>
  <property name="format">2</property>
  <property name="meta.media.width">1920</property>
  <property name="meta.media.height">1080</property>
  <property name="mlt_service">qimage</property>
  <property name="kdenlive:clipname">Squiggly Border</property>
  <property name="low-pass">0</property>
  <property name="animation"/>
  <property name="luma_file"/>
  <property name="luma_duration">25</property>
  <property name="fade">0</property>
  <property name="crop">0</property>
  <property name="softness">0</property>
  <property name="loop">1</property>
  <property name="kdenlive:duration">00:00:12:08</property>
  <property name="kdenlive:folderid">218</property>
  <property name="kdenlive:id">231</property>
  <property name="kdenlive:clip_type">2</property>
  <property name="kdenlive:file_hash">98ba2f58a7b8ff51461b91634c07a5c8</property>
  <property name="xml">was here</property>
  <property name="set.test_audio">1</property>
  <property name="set.test_image">0</property>
 </producer>
 <chain id="chain400" out="00:00:06.440">
  <property name="length">162</property>
  <property name="eof">pause</property>
  <property name="resource">animation/output/hotdog-filters.mp4</property>
  <property name="mlt_service">avformat-novalidate</property>
  <property name="seekable">1</property>
  <property name="format">3</property>
  <property name="audio_index">-1</property>
  <property name="video_index">0</property>
  <property name="kdenlive:clipname"/>
  <property name="kdenlive:clip_type">2</property>
  <property name="kdenlive:folderid">-1</property>
  <property name="kdenlive:id">259</property>
  <property name="kdenlive:file_size">814506</property>
  <property name="kdenlive:file_hash">a22b881d51617a1b7da002b2069b9435</property>
  <property name="meta.media.nb_streams">1</property>
  <property name="meta.media.0.stream.type">video</property>
  <property name="meta.media.0.stream.frame_rate">30</property>
  <property name="meta.media.0.stream.sample_aspect_ratio">0</property>
  <property name="meta.media.0.codec.width">1920</property>
  <property name="meta.media.0.codec.height">1080</property>
  <property name="meta.media.0.codec.rotate">0</property>
  <property name="meta.media.0.codec.pix_fmt">yuv420p</property>
  <property name="meta.media.0.codec.sample_aspect_ratio">0</property>
  <property name="meta.media.0.codec.colorspace">709</property>
  <property name="meta.media.0.codec.name">h264</property>
  <property name="meta.media.0.codec.long_name">H.264 / AVC / MPEG-4 AVC / MPEG-4 part 10</property>
  <property name="meta.media.0.codec.bit_rate">1003781</property>
  <property name="meta.attr.0.stream.handler_name.markup">VideoHandler</property>
  <property name="meta.attr.0.stream.vendor_id.markup">[0][0][0][0]</property>
  <property name="meta.attr.major_brand.markup">isom</property>
  <property name="meta.attr.minor_version.markup">512</property>
  <property name="meta.attr.compatible_brands.markup">isomiso2avc1mp41</property>
  <property name="meta.attr.encoder.markup">Lavf58.24.100</property>
  <property name="meta.media.sample_aspect_num">1</property>
  <property name="meta.media.sample_aspect_den">1</property>
  <property name="meta.media.frame_rate_num">30</property>
  <property name="meta.media.frame_rate_den">1</property>
  <property name="meta.media.colorspace">709</property>
  <property name="meta.media.color_trc">2</property>
  <property name="meta.media.has_b_frames">2</property>
  <property name="meta.media.width">1920</property>
  <property name="meta.media.height">1080</property>
  <property name="meta.media.color_range">mpeg</property>
  <property name="xml">was here</property>
  <property name="meta.media.top_field_first">0</property>
  <property name="meta.media.progressive">1</property>
  <property name="set.test_audio">1</property>
  <property name="set.test_image">0</property>
  <property name="mute_on_pause">1</property>
 </chain>
 <producer id="producer654" in="00:00:00.000" out="00:00:19.680">
  <property name="length">00:00:19.720</property>
  <property name="eof">pause</property>
  <property name="resource">/home/liquidzulu/Pictures/yt/animation/output/project/footnotes/footnote-3/.all.png</property>
  <property name="ttl">1</property>
  <property name="aspect_ratio">1</property>
  <property name="progressive">1</property>
  <property name="seekable">1</property>
  <property name="format">2</property>
  <property name="meta.media.width">1920</property>
  <property name="meta.media.height">1080</property>
  <property name="mlt_service">qimage</property>
  <property name="kdenlive:clipname">footnote-3</property>
  <property name="low-pass">0</property>
  <property name="animation"/>
  <property name="luma_file"/>
  <property name="luma_duration">25</property>
  <property name="fade">0</property>
  <property name="crop">0</property>
  <property name="softness">0</property>
  <property name="loop">0</property>
  <property name="kdenlive:duration">00:00:19:18</property>
  <property name="kdenlive:folderid">273</property>
  <property name="kdenlive:id">318</property>
  <property name="kdenlive:clip_type">2</property>
  <property name="kdenlive:file_hash">f9d4637e21ae5f730ff192c6d176c610</property>
  <property name="xml">was here</property>
  <property name="set.test_audio">1</property>
  <property name="set.test_image">0</property>
 </producer>
 <chain id="chain401" out="00:00:20.520">
  <property name="length">514</property>
  <property name="eof">pause</property>
  <property name="resource">animation/output/kitten-elephant/kitten-elephant.mp4</property>
  <property name="mlt_service">avformat-novalidate</property>
  <property name="seekable">1</property>
  <property name="format">3</property>
  <property name="audio_index">1</property>
  <property name="video_index">0</property>
  <property name="kdenlive:clipname"/>
  <property name="kdenlive:clip_type">0</property>
  <property name="kdenlive:folderid">-1</property>
  <property name="kdenlive:id">338</property>
  <property name="kdenlive:file_size">6802766</property>
  <property name="kdenlive:file_hash">b6a769ceca62335787629e81eeb37801</property>
  <property name="kdenlive:audio_max1">238</property>
  <property name="meta.media.nb_streams">2</property>
  <property name="meta.media.0.stream.type">video</property>
  <property name="meta.media.0.stream.frame_rate">25</property>
  <property name="meta.media.0.stream.sample_aspect_ratio">1</property>
  <property name="meta.media.0.codec.width">1920</property>
  <property name="meta.media.0.codec.height">1080</property>
  <property name="meta.media.0.codec.rotate">0</property>
  <property name="meta.media.0.codec.pix_fmt">yuv420p</property>
  <property name="meta.media.0.codec.sample_aspect_ratio">1</property>
  <property name="meta.media.0.codec.colorspace">709</property>
  <property name="meta.media.0.codec.color_trc">1</property>
  <property name="meta.media.0.codec.name">h264</property>
  <property name="meta.media.0.codec.long_name">H.264 / AVC / MPEG-4 AVC / MPEG-4 part 10</property>
  <property name="meta.media.0.codec.bit_rate">2597154</property>
  <property name="meta.attr.0.stream.handler_name.markup">VideoHandler</property>
  <property name="meta.attr.0.stream.vendor_id.markup">[0][0][0][0]</property>
  <property name="meta.media.1.stream.type">audio</property>
  <property name="meta.media.1.codec.sample_fmt">fltp</property>
  <property name="meta.media.1.codec.sample_rate">48000</property>
  <property name="meta.media.1.codec.channels">2</property>
  <property name="meta.media.1.codec.name">aac</property>
  <property name="meta.media.1.codec.long_name">AAC (Advanced Audio Coding)</property>
  <property name="meta.media.1.codec.bit_rate">43131</property>
  <property name="meta.attr.1.stream.handler_name.markup">SoundHandler</property>
  <property name="meta.attr.1.stream.vendor_id.markup">[0][0][0][0]</property>
  <property name="meta.attr.major_brand.markup">isom</property>
  <property name="meta.attr.minor_version.markup">512</property>
  <property name="meta.attr.compatible_brands.markup">isomiso2avc1mp41</property>
  <property name="meta.attr.encoder.markup">Lavf59.27.100</property>
  <property name="meta.media.sample_aspect_num">1</property>
  <property name="meta.media.sample_aspect_den">1</property>
  <property name="meta.media.frame_rate_num">25</property>
  <property name="meta.media.frame_rate_den">1</property>
  <property name="meta.media.colorspace">709</property>
  <property name="meta.media.color_trc">1</property>
  <property name="meta.media.has_b_frames">2</property>
  <property name="meta.media.width">1920</property>
  <property name="meta.media.height">1080</property>
  <property name="meta.media.color_range">mpeg</property>
  <property name="xml">was here</property>
  <property name="meta.media.top_field_first">0</property>
  <property name="meta.media.progressive">1</property>
  <property name="set.test_audio">1</property>
  <property name="set.test_image">0</property>
  <property name="mute_on_pause">1</property>
 </chain>
 <chain id="chain402" out="00:03:15.880">
  <property name="length">4898</property>
  <property name="eof">pause</property>
  <property name="resource">b-roll/The BIGGEST LIE about Ai ART [8eokIcRWzBo].webm</property>
  <property name="mlt_service">avformat-novalidate</property>
  <property name="seekable">1</property>
  <property name="format">3</property>
  <property name="audio_index">-1</property>
  <property name="video_index">0</property>
  <property name="kdenlive:clipname"/>
  <property name="kdenlive:clip_type">0</property>
  <property name="kdenlive:folderid">-1</property>
  <property name="kdenlive:id">369</property>
  <property name="kdenlive:file_size">43586643</property>
  <property name="kdenlive:file_hash">42992dbde666a7007b6109bc0d631e65</property>
  <property name="kdenlive:audio_max1">152</property>
  <property name="kdenlive:active_streams">-1</property>
  <property name="set.test_audio">1</property>
  <property name="meta.media.nb_streams">2</property>
  <property name="meta.media.0.stream.type">video</property>
  <property name="meta.media.0.stream.frame_rate">25</property>
  <property name="meta.media.0.stream.sample_aspect_ratio">1</property>
  <property name="meta.media.0.codec.width">1920</property>
  <property name="meta.media.0.codec.height">1080</property>
  <property name="meta.media.0.codec.rotate">0</property>
  <property name="meta.media.0.codec.pix_fmt">yuv420p</property>
  <property name="meta.media.0.codec.sample_aspect_ratio">0</property>
  <property name="meta.media.0.codec.colorspace">709</property>
  <property name="meta.media.0.codec.color_trc">1</property>
  <property name="meta.media.0.codec.name">vp9</property>
  <property name="meta.media.0.codec.long_name">Google VP9</property>
  <property name="meta.media.0.codec.bit_rate">0</property>
  <property name="meta.attr.0.stream.HANDLER_NAME.markup">ISO Media file produced by Google Inc. Created on: 12/13/2023.</property>
  <property name="meta.attr.0.stream.VENDOR_ID.markup">[0][0][0][0]</property>
  <property name="meta.attr.0.stream.DURATION.markup">00:03:15.880000000</property>
  <property name="meta.media.1.stream.type">audio</property>
  <property name="meta.media.1.codec.sample_fmt">fltp</property>
  <property name="meta.media.1.codec.sample_rate">48000</property>
  <property name="meta.media.1.codec.channels">2</property>
  <property name="meta.media.1.codec.name">opus</property>
  <property name="meta.media.1.codec.long_name">Opus</property>
  <property name="meta.media.1.codec.bit_rate">0</property>
  <property name="meta.attr.1.stream.language.markup">eng</property>
  <property name="meta.attr.1.stream.DURATION.markup">00:03:15.901000000</property>
  <property name="meta.attr.COMPATIBLE_BRANDS.markup">iso6mp41</property>
  <property name="meta.attr.MAJOR_BRAND.markup">dash</property>
  <property name="meta.attr.MINOR_VERSION.markup">0</property>
  <property name="meta.attr.ENCODER.markup">Lavf59.27.100</property>
  <property name="meta.media.sample_aspect_num">1</property>
  <property name="meta.media.sample_aspect_den">1</property>
  <property name="meta.media.frame_rate_num">25</property>
  <property name="meta.media.frame_rate_den">1</property>
  <property name="meta.media.colorspace">709</property>
  <property name="meta.media.color_trc">1</property>
  <property name="meta.media.has_b_frames">0</property>
  <property name="meta.media.width">1920</property>
  <property name="meta.media.height">1080</property>
  <property name="meta.media.color_range">mpeg</property>
  <property name="xml">was here</property>
  <property name="meta.media.top_field_first">0</property>
  <property name="meta.media.progressive">1</property>
  <property name="set.test_image">0</property>
  <property name="mute_on_pause">1</property>
 </chain>
 <chain id="chain403" out="00:00:09.960">
  <property name="length">250</property>
  <property name="eof">pause</property>
  <property name="resource">animation/output/neural-network.mp4</property>
  <property name="mlt_service">avformat-novalidate</property>
  <property name="seekable">1</property>
  <property name="format">3</property>
  <property name="audio_index">-1</property>
  <property name="video_index">0</property>
  <property name="kdenlive:clipname"/>
  <property name="kdenlive:clip_type">2</property>
  <property name="kdenlive:folderid">218</property>
  <property name="kdenlive:id">219</property>
  <property name="kdenlive:file_size">6473614</property>
  <property name="kdenlive:file_hash">0c541f0201174e70bf3bbaa9145dbc9b</property>
  <property name="meta.media.nb_streams">1</property>
  <property name="meta.media.0.stream.type">video</property>
  <property name="meta.media.0.stream.frame_rate">60</property>
  <property name="meta.media.0.stream.sample_aspect_ratio">0</property>
  <property name="meta.media.0.codec.width">1920</property>
  <property name="meta.media.0.codec.height">1080</property>
  <property name="meta.media.0.codec.rotate">0</property>
  <property name="meta.media.0.codec.pix_fmt">yuv420p</property>
  <property name="meta.media.0.codec.sample_aspect_ratio">0</property>
  <property name="meta.media.0.codec.colorspace">709</property>
  <property name="meta.media.0.codec.name">h264</property>
  <property name="meta.media.0.codec.long_name">H.264 / AVC / MPEG-4 AVC / MPEG-4 part 10</property>
  <property name="meta.media.0.codec.bit_rate">5163776</property>
  <property name="meta.attr.0.stream.handler_name.markup">VideoHandler</property>
  <property name="meta.attr.0.stream.vendor_id.markup">[0][0][0][0]</property>
  <property name="meta.attr.major_brand.markup">isom</property>
  <property name="meta.attr.minor_version.markup">512</property>
  <property name="meta.attr.compatible_brands.markup">isomiso2avc1mp41</property>
  <property name="meta.attr.encoder.markup">Lavf58.24.100</property>
  <property name="meta.media.sample_aspect_num">1</property>
  <property name="meta.media.sample_aspect_den">1</property>
  <property name="meta.media.frame_rate_num">60</property>
  <property name="meta.media.frame_rate_den">1</property>
  <property name="meta.media.colorspace">709</property>
  <property name="meta.media.color_trc">2</property>
  <property name="meta.media.has_b_frames">2</property>
  <property name="meta.media.width">1920</property>
  <property name="meta.media.height">1080</property>
  <property name="meta.media.color_range">mpeg</property>
  <property name="xml">was here</property>
  <property name="meta.media.top_field_first">0</property>
  <property name="meta.media.progressive">1</property>
  <property name="set.test_audio">1</property>
  <property name="set.test_image">0</property>
  <property name="mute_on_pause">1</property>
 </chain>
 <chain id="chain404" out="01:47:32.080">
  <property name="length">161303</property>
  <property name="eof">pause</property>
  <property name="resource">b-roll/Miles Johnstonï¼š Cheeky AI, The Total Set of Images, and Polite Revolution [EqpWfYX7ou8].webm</property>
  <property name="mlt_service">avformat-novalidate</property>
  <property name="seekable">1</property>
  <property name="format">3</property>
  <property name="audio_index">-1</property>
  <property name="video_index">0</property>
  <property name="kdenlive:clipname"/>
  <property name="kdenlive:clip_type">0</property>
  <property name="kdenlive:folderid">14</property>
  <property name="kdenlive:id">422</property>
  <property name="kdenlive:file_size">438888186</property>
  <property name="kdenlive:file_hash">db0f4f2e9e03634508d991031c21cd03</property>
  <property name="kdenlive:audio_max1">210</property>
  <property name="kdenlive:active_streams">-1</property>
  <property name="set.test_audio">1</property>
  <property name="meta.media.nb_streams">2</property>
  <property name="meta.media.0.stream.type">video</property>
  <property name="meta.media.0.stream.frame_rate">25</property>
  <property name="meta.media.0.stream.sample_aspect_ratio">1</property>
  <property name="meta.media.0.codec.width">1280</property>
  <property name="meta.media.0.codec.height">720</property>
  <property name="meta.media.0.codec.rotate">0</property>
  <property name="meta.media.0.codec.pix_fmt">yuv420p</property>
  <property name="meta.media.0.codec.sample_aspect_ratio">0</property>
  <property name="meta.media.0.codec.colorspace">709</property>
  <property name="meta.media.0.codec.color_trc">1</property>
  <property name="meta.media.0.codec.name">vp9</property>
  <property name="meta.media.0.codec.long_name">Google VP9</property>
  <property name="meta.media.0.codec.bit_rate">0</property>
  <property name="meta.attr.0.stream.language.markup">eng</property>
  <property name="meta.attr.0.stream.DURATION.markup">01:47:32.080000000</property>
  <property name="meta.media.1.stream.type">audio</property>
  <property name="meta.media.1.codec.sample_fmt">fltp</property>
  <property name="meta.media.1.codec.sample_rate">48000</property>
  <property name="meta.media.1.codec.channels">2</property>
  <property name="meta.media.1.codec.name">opus</property>
  <property name="meta.media.1.codec.long_name">Opus</property>
  <property name="meta.media.1.codec.bit_rate">0</property>
  <property name="meta.attr.1.stream.language.markup">eng</property>
  <property name="meta.attr.1.stream.DURATION.markup">01:47:32.121000000</property>
  <property name="meta.attr.ENCODER.markup">Lavf59.27.100</property>
  <property name="meta.media.sample_aspect_num">1</property>
  <property name="meta.media.sample_aspect_den">1</property>
  <property name="meta.media.frame_rate_num">25</property>
  <property name="meta.media.frame_rate_den">1</property>
  <property name="meta.media.colorspace">709</property>
  <property name="meta.media.color_trc">1</property>
  <property name="meta.media.has_b_frames">0</property>
  <property name="meta.media.width">1280</property>
  <property name="meta.media.height">720</property>
  <property name="meta.media.color_range">mpeg</property>
  <property name="xml">was here</property>
  <property name="meta.media.top_field_first">0</property>
  <property name="meta.media.progressive">1</property>
  <property name="set.test_image">0</property>
  <property name="mute_on_pause">1</property>
 </chain>
 <chain id="chain405" out="00:17:31.560">
  <property name="length">26290</property>
  <property name="eof">pause</property>
  <property name="resource">b-roll/NYC Art Gallery Tour of Chelsea &amp; Meatpacking [rFYgGG2Rgd0].webm</property>
  <property name="mlt_service">avformat-novalidate</property>
  <property name="seekable">1</property>
  <property name="format">3</property>
  <property name="audio_index">-1</property>
  <property name="video_index">0</property>
  <property name="kdenlive:clipname"/>
  <property name="kdenlive:clip_type">0</property>
  <property name="kdenlive:folderid">-1</property>
  <property name="kdenlive:id">433</property>
  <property name="kdenlive:file_size">191747731</property>
  <property name="kdenlive:file_hash">5cd0b392a063f2f15fedb31f232a3904</property>
  <property name="kdenlive:active_streams">-1</property>
  <property name="set.test_audio">1</property>
  <property name="kdenlive:audio_max1">242</property>
  <property name="meta.media.nb_streams">2</property>
  <property name="meta.media.0.stream.type">video</property>
  <property name="meta.media.0.stream.frame_rate">25</property>
  <property name="meta.media.0.stream.sample_aspect_ratio">1</property>
  <property name="meta.media.0.codec.width">1920</property>
  <property name="meta.media.0.codec.height">1080</property>
  <property name="meta.media.0.codec.rotate">0</property>
  <property name="meta.media.0.codec.pix_fmt">yuv420p</property>
  <property name="meta.media.0.codec.sample_aspect_ratio">0</property>
  <property name="meta.media.0.codec.colorspace">709</property>
  <property name="meta.media.0.codec.color_trc">1</property>
  <property name="meta.media.0.codec.name">vp9</property>
  <property name="meta.media.0.codec.long_name">Google VP9</property>
  <property name="meta.media.0.codec.bit_rate">0</property>
  <property name="meta.attr.0.stream.language.markup">eng</property>
  <property name="meta.attr.0.stream.DURATION.markup">00:17:31.560000000</property>
  <property name="meta.media.1.stream.type">audio</property>
  <property name="meta.media.1.codec.sample_fmt">fltp</property>
  <property name="meta.media.1.codec.sample_rate">48000</property>
  <property name="meta.media.1.codec.channels">2</property>
  <property name="meta.media.1.codec.name">opus</property>
  <property name="meta.media.1.codec.long_name">Opus</property>
  <property name="meta.media.1.codec.bit_rate">0</property>
  <property name="meta.attr.1.stream.language.markup">eng</property>
  <property name="meta.attr.1.stream.DURATION.markup">00:17:31.581000000</property>
  <property name="meta.attr.ENCODER.markup">Lavf59.27.100</property>
  <property name="meta.media.sample_aspect_num">1</property>
  <property name="meta.media.sample_aspect_den">1</property>
  <property name="meta.media.frame_rate_num">25</property>
  <property name="meta.media.frame_rate_den">1</property>
  <property name="meta.media.colorspace">709</property>
  <property name="meta.media.color_trc">1</property>
  <property name="meta.media.has_b_frames">0</property>
  <property name="meta.media.width">1920</property>
  <property name="meta.media.height">1080</property>
  <property name="meta.media.color_range">mpeg</property>
  <property name="xml">was here</property>
  <property name="meta.media.top_field_first">0</property>
  <property name="meta.media.progressive">1</property>
  <property name="set.test_image">0</property>
  <property name="mute_on_pause">1</property>
 </chain>
 <chain id="chain406" out="00:20:20.360">
  <property name="length">30510</property>
  <property name="eof">pause</property>
  <property name="resource">b-roll/What Does Your Imagination Look Likeï¼Ÿ [ZOIIZiEUNmg].webm</property>
  <property name="mlt_service">avformat-novalidate</property>
  <property name="seekable">1</property>
  <property name="format">3</property>
  <property name="audio_index">-1</property>
  <property name="video_index">0</property>
  <property name="kdenlive:clipname"/>
  <property name="kdenlive:clip_type">0</property>
  <property name="kdenlive:folderid">14</property>
  <property name="kdenlive:id">478</property>
  <property name="kdenlive:file_size">1297047636</property>
  <property name="kdenlive:file_hash">91c394f517b50d55c5c4e6fdd3d1fe85</property>
  <property name="kdenlive:active_streams">-1</property>
  <property name="set.test_audio">1</property>
  <property name="kdenlive:audio_max1">227</property>
  <property name="meta.media.nb_streams">2</property>
  <property name="meta.media.0.stream.type">video</property>
  <property name="meta.media.0.stream.frame_rate">30</property>
  <property name="meta.media.0.stream.sample_aspect_ratio">1</property>
  <property name="meta.media.0.codec.width">3840</property>
  <property name="meta.media.0.codec.height">2160</property>
  <property name="meta.media.0.codec.rotate">0</property>
  <property name="meta.media.0.codec.pix_fmt">yuv420p</property>
  <property name="meta.media.0.codec.sample_aspect_ratio">0</property>
  <property name="meta.media.0.codec.colorspace">709</property>
  <property name="meta.media.0.codec.color_trc">1</property>
  <property name="meta.media.0.codec.name">vp9</property>
  <property name="meta.media.0.codec.long_name">Google VP9</property>
  <property name="meta.media.0.codec.bit_rate">0</property>
  <property name="meta.attr.0.stream.language.markup">eng</property>
  <property name="meta.attr.0.stream.DURATION.markup">00:20:20.367000000</property>
  <property name="meta.media.1.stream.type">audio</property>
  <property name="meta.media.1.codec.sample_fmt">fltp</property>
  <property name="meta.media.1.codec.sample_rate">48000</property>
  <property name="meta.media.1.codec.channels">2</property>
  <property name="meta.media.1.codec.name">opus</property>
  <property name="meta.media.1.codec.long_name">Opus</property>
  <property name="meta.media.1.codec.bit_rate">0</property>
  <property name="meta.attr.1.stream.language.markup">eng</property>
  <property name="meta.attr.1.stream.DURATION.markup">00:20:20.381000000</property>
  <property name="meta.attr.ENCODER.markup">Lavf59.27.100</property>
  <property name="meta.media.sample_aspect_num">1</property>
  <property name="meta.media.sample_aspect_den">1</property>
  <property name="meta.media.frame_rate_num">30</property>
  <property name="meta.media.frame_rate_den">1</property>
  <property name="meta.media.colorspace">709</property>
  <property name="meta.media.color_trc">1</property>
  <property name="meta.media.has_b_frames">0</property>
  <property name="meta.media.width">3840</property>
  <property name="meta.media.height">2160</property>
  <property name="meta.media.color_range">mpeg</property>
  <property name="xml">was here</property>
  <property name="meta.media.top_field_first">0</property>
  <property name="meta.media.progressive">1</property>
  <property name="set.test_image">0</property>
  <property name="mute_on_pause">1</property>
 </chain>
 <chain id="chain412" out="00:03:00.880">
  <property name="length">4523</property>
  <property name="eof">pause</property>
  <property name="resource">b-roll/Lighthouse Speed painting â§¸ Acrylic â§¸ painting demonstration [wobXMrVBNAw].mkv</property>
  <property name="mlt_service">avformat-novalidate</property>
  <property name="seekable">1</property>
  <property name="format">3</property>
  <property name="audio_index">-1</property>
  <property name="video_index">0</property>
  <property name="kdenlive:clipname"/>
  <property name="kdenlive:clip_type">0</property>
  <property name="kdenlive:folderid">-1</property>
  <property name="kdenlive:id">488</property>
  <property name="kdenlive:file_size">66973404</property>
  <property name="kdenlive:file_hash">57849ca9b78a327606250e77554f88d3</property>
  <property name="kdenlive:audio_max1">227</property>
  <property name="kdenlive:active_streams">-1</property>
  <property name="set.test_audio">1</property>
  <property name="meta.media.nb_streams">2</property>
  <property name="meta.media.0.stream.type">video</property>
  <property name="meta.media.0.stream.frame_rate">25</property>
  <property name="meta.media.0.stream.sample_aspect_ratio">1</property>
  <property name="meta.media.0.codec.width">1920</property>
  <property name="meta.media.0.codec.height">1080</property>
  <property name="meta.media.0.codec.rotate">0</property>
  <property name="meta.media.0.codec.pix_fmt">yuv420p</property>
  <property name="meta.media.0.codec.sample_aspect_ratio">1</property>
  <property name="meta.media.0.codec.colorspace">709</property>
  <property name="meta.media.0.codec.color_trc">1</property>
  <property name="meta.media.0.codec.name">h264</property>
  <property name="meta.media.0.codec.long_name">H.264 / AVC / MPEG-4 AVC / MPEG-4 part 10</property>
  <property name="meta.media.0.codec.bit_rate">0</property>
  <property name="meta.attr.0.stream.HANDLER_NAME.markup">ISO Media file produced by Google Inc.</property>
  <property name="meta.attr.0.stream.VENDOR_ID.markup">[0][0][0][0]</property>
  <property name="meta.attr.0.stream.DURATION.markup">00:03:00.880000000</property>
  <property name="meta.media.1.stream.type">audio</property>
  <property name="meta.media.1.codec.sample_fmt">fltp</property>
  <property name="meta.media.1.codec.sample_rate">48000</property>
  <property name="meta.media.1.codec.channels">2</property>
  <property name="meta.media.1.codec.name">opus</property>
  <property name="meta.media.1.codec.long_name">Opus</property>
  <property name="meta.media.1.codec.bit_rate">0</property>
  <property name="meta.attr.1.stream.language.markup">eng</property>
  <property name="meta.attr.1.stream.DURATION.markup">00:03:00.901000000</property>
  <property name="meta.attr.COMPATIBLE_BRANDS.markup">iso6avc1mp41</property>
  <property name="meta.attr.MAJOR_BRAND.markup">dash</property>
  <property name="meta.attr.MINOR_VERSION.markup">0</property>
  <property name="meta.attr.ENCODER.markup">Lavf59.27.100</property>
  <property name="meta.media.sample_aspect_num">1</property>
  <property name="meta.media.sample_aspect_den">1</property>
  <property name="meta.media.frame_rate_num">25</property>
  <property name="meta.media.frame_rate_den">1</property>
  <property name="meta.media.colorspace">709</property>
  <property name="meta.media.color_trc">1</property>
  <property name="meta.media.has_b_frames">1</property>
  <property name="meta.media.width">1920</property>
  <property name="meta.media.height">1080</property>
  <property name="meta.media.color_range">mpeg</property>
  <property name="xml">was here</property>
  <property name="meta.media.top_field_first">0</property>
  <property name="meta.media.progressive">1</property>
  <property name="set.test_image">0</property>
  <property name="mute_on_pause">1</property>
 </chain>
 <chain id="chain413" out="00:10:19.320">
  <property name="length">15484</property>
  <property name="eof">pause</property>
  <property name="resource">b-roll/Paint like Van Gogh in 7 easy steps! (Acrylic version) [hBXvkmm93wA].webm</property>
  <property name="mlt_service">avformat-novalidate</property>
  <property name="seekable">1</property>
  <property name="format">3</property>
  <property name="audio_index">-1</property>
  <property name="video_index">0</property>
  <property name="kdenlive:clipname"/>
  <property name="kdenlive:clip_type">0</property>
  <property name="kdenlive:folderid">14</property>
  <property name="kdenlive:id">387</property>
  <property name="kdenlive:file_size">126962373</property>
  <property name="kdenlive:file_hash">445ffba4de7463ce4cb69fb876bc9ba7</property>
  <property name="kdenlive:audio_max1">215</property>
  <property name="kdenlive:active_streams">-1</property>
  <property name="set.test_audio">1</property>
  <property name="meta.media.nb_streams">2</property>
  <property name="meta.media.0.stream.type">video</property>
  <property name="meta.media.0.stream.frame_rate">30</property>
  <property name="meta.media.0.stream.sample_aspect_ratio">1</property>
  <property name="meta.media.0.codec.width">1920</property>
  <property name="meta.media.0.codec.height">1080</property>
  <property name="meta.media.0.codec.rotate">0</property>
  <property name="meta.media.0.codec.pix_fmt">yuv420p</property>
  <property name="meta.media.0.codec.sample_aspect_ratio">0</property>
  <property name="meta.media.0.codec.colorspace">709</property>
  <property name="meta.media.0.codec.color_trc">1</property>
  <property name="meta.media.0.codec.name">vp9</property>
  <property name="meta.media.0.codec.long_name">Google VP9</property>
  <property name="meta.media.0.codec.bit_rate">0</property>
  <property name="meta.attr.0.stream.language.markup">eng</property>
  <property name="meta.attr.0.stream.DURATION.markup">00:10:19.333000000</property>
  <property name="meta.media.1.stream.type">audio</property>
  <property name="meta.media.1.codec.sample_fmt">fltp</property>
  <property name="meta.media.1.codec.sample_rate">48000</property>
  <property name="meta.media.1.codec.channels">2</property>
  <property name="meta.media.1.codec.name">opus</property>
  <property name="meta.media.1.codec.long_name">Opus</property>
  <property name="meta.media.1.codec.bit_rate">0</property>
  <property name="meta.attr.1.stream.language.markup">eng</property>
  <property name="meta.attr.1.stream.DURATION.markup">00:10:19.361000000</property>
  <property name="meta.attr.ENCODER.markup">Lavf59.27.100</property>
  <property name="meta.media.sample_aspect_num">1</property>
  <property name="meta.media.sample_aspect_den">1</property>
  <property name="meta.media.frame_rate_num">30</property>
  <property name="meta.media.frame_rate_den">1</property>
  <property name="meta.media.colorspace">709</property>
  <property name="meta.media.color_trc">1</property>
  <property name="meta.media.has_b_frames">0</property>
  <property name="meta.media.width">1920</property>
  <property name="meta.media.height">1080</property>
  <property name="meta.media.color_range">mpeg</property>
  <property name="xml">was here</property>
  <property name="meta.media.top_field_first">0</property>
  <property name="meta.media.progressive">1</property>
  <property name="set.test_image">0</property>
  <property name="mute_on_pause">1</property>
 </chain>
 <chain id="chain414" out="00:04:09.960">
  <property name="length">6250</property>
  <property name="eof">pause</property>
  <property name="resource">animation/output/actual-latent-space.mp4</property>
  <property name="mlt_service">avformat-novalidate</property>
  <property name="seekable">1</property>
  <property name="format">3</property>
  <property name="audio_index">-1</property>
  <property name="video_index">0</property>
  <property name="kdenlive:clipname"/>
  <property name="kdenlive:clip_type">2</property>
  <property name="kdenlive:folderid">218</property>
  <property name="kdenlive:id">421</property>
  <property name="kdenlive:file_size">15422944</property>
  <property name="kdenlive:file_hash">85c95f05ae8b75fbd29ed678508da5f1</property>
  <property name="meta.media.nb_streams">1</property>
  <property name="meta.media.0.stream.type">video</property>
  <property name="meta.media.0.stream.frame_rate">60</property>
  <property name="meta.media.0.stream.sample_aspect_ratio">0</property>
  <property name="meta.media.0.codec.width">1920</property>
  <property name="meta.media.0.codec.height">1080</property>
  <property name="meta.media.0.codec.rotate">0</property>
  <property name="meta.media.0.codec.pix_fmt">yuv420p</property>
  <property name="meta.media.0.codec.sample_aspect_ratio">0</property>
  <property name="meta.media.0.codec.colorspace">709</property>
  <property name="meta.media.0.codec.name">h264</property>
  <property name="meta.media.0.codec.long_name">H.264 / AVC / MPEG-4 AVC / MPEG-4 part 10</property>
  <property name="meta.media.0.codec.bit_rate">487802</property>
  <property name="meta.attr.0.stream.handler_name.markup">VideoHandler</property>
  <property name="meta.attr.0.stream.vendor_id.markup">[0][0][0][0]</property>
  <property name="meta.attr.major_brand.markup">isom</property>
  <property name="meta.attr.minor_version.markup">512</property>
  <property name="meta.attr.compatible_brands.markup">isomiso2avc1mp41</property>
  <property name="meta.attr.encoder.markup">Lavf58.24.100</property>
  <property name="meta.media.sample_aspect_num">1</property>
  <property name="meta.media.sample_aspect_den">1</property>
  <property name="meta.media.frame_rate_num">60</property>
  <property name="meta.media.frame_rate_den">1</property>
  <property name="meta.media.colorspace">709</property>
  <property name="meta.media.color_trc">2</property>
  <property name="meta.media.has_b_frames">2</property>
  <property name="meta.media.width">1920</property>
  <property name="meta.media.height">1080</property>
  <property name="meta.media.color_range">mpeg</property>
  <property name="xml">was here</property>
  <property name="meta.media.top_field_first">0</property>
  <property name="meta.media.progressive">1</property>
  <property name="set.test_audio">1</property>
  <property name="set.test_image">0</property>
  <property name="mute_on_pause">1</property>
 </chain>
 <producer id="producer659" in="00:00:00.000" out="00:00:18.840">
  <property name="length">472</property>
  <property name="eof">pause</property>
  <property name="resource">2.000000:animation/output/rg.mp4</property>
  <property name="aspect_ratio">1</property>
  <property name="meta.media.nb_streams">1</property>
  <property name="meta.media.0.stream.type">video</property>
  <property name="meta.media.0.stream.frame_rate">60</property>
  <property name="meta.media.0.stream.sample_aspect_ratio">0</property>
  <property name="meta.media.0.codec.width">1920</property>
  <property name="meta.media.0.codec.height">1080</property>
  <property name="meta.media.0.codec.rotate">0</property>
  <property name="meta.media.0.codec.pix_fmt">yuv420p</property>
  <property name="meta.media.0.codec.sample_aspect_ratio">0</property>
  <property name="meta.media.0.codec.colorspace">709</property>
  <property name="meta.media.0.codec.name">h264</property>
  <property name="meta.media.0.codec.long_name">H.264 / AVC / MPEG-4 AVC / MPEG-4 part 10</property>
  <property name="meta.media.0.codec.bit_rate">140413</property>
  <property name="meta.attr.0.stream.handler_name.markup">VideoHandler</property>
  <property name="meta.attr.0.stream.vendor_id.markup">[0][0][0][0]</property>
  <property name="meta.attr.major_brand.markup">isom</property>
  <property name="meta.attr.minor_version.markup">512</property>
  <property name="meta.attr.compatible_brands.markup">isomiso2avc1mp41</property>
  <property name="meta.attr.encoder.markup">Lavf58.24.100</property>
  <property name="seekable">1</property>
  <property name="meta.media.sample_aspect_num">1</property>
  <property name="meta.media.sample_aspect_den">1</property>
  <property name="format">3</property>
  <property name="audio_index">-1</property>
  <property name="video_index">0</property>
  <property name="mute_on_pause">1</property>
  <property name="warp_speed">2</property>
  <property name="warp_resource">animation/output/rg.mp4</property>
  <property name="mlt_service">timewarp</property>
  <property name="set.test_audio">1</property>
  <property name="set.test_image">0</property>
  <property name="kdenlive:id">521</property>
  <property name="warp_pitch">0</property>
  <property name="meta.media.frame_rate_num">60</property>
  <property name="meta.media.frame_rate_den">1</property>
  <property name="meta.media.colorspace">709</property>
  <property name="meta.media.color_trc">2</property>
  <property name="meta.media.has_b_frames">2</property>
  <property name="meta.media.width">1920</property>
  <property name="meta.media.height">1080</property>
  <property name="meta.media.color_range">mpeg</property>
  <property name="meta.media.top_field_first">0</property>
  <property name="meta.media.progressive">1</property>
 </producer>
 <producer id="producer660" in="00:00:00.000" out="00:00:19.680">
  <property name="length">00:00:19.720</property>
  <property name="eof">pause</property>
  <property name="resource">/home/liquidzulu/Pictures/yt/animation/output/project/footnotes/footnote-36/.all.png</property>
  <property name="ttl">1</property>
  <property name="aspect_ratio">1</property>
  <property name="progressive">1</property>
  <property name="seekable">1</property>
  <property name="format">2</property>
  <property name="meta.media.width">1920</property>
  <property name="meta.media.height">1080</property>
  <property name="mlt_service">qimage</property>
  <property name="kdenlive:clipname">footnote-36</property>
  <property name="low-pass">0</property>
  <property name="animation"/>
  <property name="luma_file"/>
  <property name="luma_duration">25</property>
  <property name="fade">0</property>
  <property name="crop">0</property>
  <property name="softness">0</property>
  <property name="loop">0</property>
  <property name="kdenlive:duration">00:00:19:18</property>
  <property name="kdenlive:folderid">-1</property>
  <property name="kdenlive:id">577</property>
  <property name="kdenlive:clip_type">2</property>
  <property name="kdenlive:file_hash">d492b1a34cdec34342c3942c4e32fa6a</property>
  <property name="xml">was here</property>
  <property name="set.test_audio">1</property>
  <property name="set.test_image">0</property>
 </producer>
 <producer id="producer662" in="00:00:00.000" out="00:00:19.680">
  <property name="length">00:00:19.720</property>
  <property name="eof">pause</property>
  <property name="resource">/home/liquidzulu/Pictures/yt/animation/output/project/footnotes/footnote-37/.all.png</property>
  <property name="ttl">1</property>
  <property name="aspect_ratio">1</property>
  <property name="progressive">1</property>
  <property name="seekable">1</property>
  <property name="format">2</property>
  <property name="meta.media.width">1920</property>
  <property name="meta.media.height">1080</property>
  <property name="mlt_service">qimage</property>
  <property name="kdenlive:clipname">footnote-37</property>
  <property name="low-pass">0</property>
  <property name="animation"/>
  <property name="luma_file"/>
  <property name="luma_duration">25</property>
  <property name="fade">0</property>
  <property name="crop">0</property>
  <property name="softness">0</property>
  <property name="loop">0</property>
  <property name="kdenlive:duration">00:00:19:18</property>
  <property name="kdenlive:folderid">-1</property>
  <property name="kdenlive:id">580</property>
  <property name="kdenlive:clip_type">2</property>
  <property name="kdenlive:file_hash">cc2e139ea609f8d1473665955e12cbad</property>
  <property name="xml">was here</property>
  <property name="set.test_audio">1</property>
  <property name="set.test_image">0</property>
 </producer>
 <producer id="producer663" in="00:00:00.000" out="00:00:19.680">
  <property name="length">00:00:19.720</property>
  <property name="eof">pause</property>
  <property name="resource">/home/liquidzulu/Pictures/yt/animation/output/project/footnotes/footnote-38/.all.png</property>
  <property name="ttl">1</property>
  <property name="aspect_ratio">1</property>
  <property name="progressive">1</property>
  <property name="seekable">1</property>
  <property name="format">2</property>
  <property name="meta.media.width">1920</property>
  <property name="meta.media.height">1080</property>
  <property name="mlt_service">qimage</property>
  <property name="kdenlive:clipname">footnote-38</property>
  <property name="low-pass">0</property>
  <property name="animation"/>
  <property name="luma_file"/>
  <property name="luma_duration">25</property>
  <property name="fade">0</property>
  <property name="crop">0</property>
  <property name="softness">0</property>
  <property name="loop">0</property>
  <property name="kdenlive:duration">00:00:19:18</property>
  <property name="kdenlive:folderid">-1</property>
  <property name="kdenlive:id">582</property>
  <property name="kdenlive:clip_type">2</property>
  <property name="kdenlive:file_hash">5a373d06831b72bd000f56802395990e</property>
  <property name="xml">was here</property>
  <property name="set.test_audio">1</property>
  <property name="set.test_image">0</property>
 </producer>
 <producer id="producer674" in="00:00:00.000" out="00:03:26.400">
  <property name="length">5161</property>
  <property name="eof">pause</property>
  <property name="resource">3.000000:b-roll/Paint like Van Gogh in 7 easy steps! (Acrylic version) [hBXvkmm93wA].webm</property>
  <property name="aspect_ratio">1</property>
  <property name="meta.media.nb_streams">2</property>
  <property name="meta.media.0.stream.type">video</property>
  <property name="meta.media.0.stream.frame_rate">30</property>
  <property name="meta.media.0.stream.sample_aspect_ratio">1</property>
  <property name="meta.media.0.codec.width">1920</property>
  <property name="meta.media.0.codec.height">1080</property>
  <property name="meta.media.0.codec.rotate">0</property>
  <property name="meta.media.0.codec.pix_fmt">yuv420p</property>
  <property name="meta.media.0.codec.sample_aspect_ratio">0</property>
  <property name="meta.media.0.codec.colorspace">709</property>
  <property name="meta.media.0.codec.color_trc">1</property>
  <property name="meta.media.0.codec.name">vp9</property>
  <property name="meta.media.0.codec.long_name">Google VP9</property>
  <property name="meta.media.0.codec.bit_rate">0</property>
  <property name="meta.attr.0.stream.language.markup">eng</property>
  <property name="meta.attr.0.stream.DURATION.markup">00:10:19.333000000</property>
  <property name="meta.media.1.stream.type">audio</property>
  <property name="meta.media.1.codec.sample_fmt">fltp</property>
  <property name="meta.media.1.codec.sample_rate">48000</property>
  <property name="meta.media.1.codec.channels">2</property>
  <property name="meta.media.1.codec.name">opus</property>
  <property name="meta.media.1.codec.long_name">Opus</property>
  <property name="meta.media.1.codec.bit_rate">0</property>
  <property name="meta.attr.1.stream.language.markup">eng</property>
  <property name="meta.attr.1.stream.DURATION.markup">00:10:19.361000000</property>
  <property name="meta.attr.ENCODER.markup">Lavf59.27.100</property>
  <property name="seekable">1</property>
  <property name="meta.media.sample_aspect_num">1</property>
  <property name="meta.media.sample_aspect_den">1</property>
  <property name="format">3</property>
  <property name="audio_index">-1</property>
  <property name="video_index">0</property>
  <property name="mute_on_pause">1</property>
  <property name="warp_speed">3</property>
  <property name="warp_resource">b-roll/Paint like Van Gogh in 7 easy steps! (Acrylic version) [hBXvkmm93wA].webm</property>
  <property name="mlt_service">timewarp</property>
  <property name="set.test_audio">1</property>
  <property name="set.test_image">0</property>
  <property name="kdenlive:id">387</property>
  <property name="warp_pitch">0</property>
  <property name="meta.media.frame_rate_num">30</property>
  <property name="meta.media.frame_rate_den">1</property>
  <property name="meta.media.colorspace">709</property>
  <property name="meta.media.color_trc">1</property>
  <property name="meta.media.has_b_frames">0</property>
  <property name="meta.media.width">1920</property>
  <property name="meta.media.height">1080</property>
  <property name="meta.media.color_range">mpeg</property>
  <property name="meta.media.top_field_first">0</property>
  <property name="meta.media.progressive">1</property>
 </producer>
 <chain id="chain415" out="00:03:21.720">
  <property name="length">5044</property>
  <property name="eof">pause</property>
  <property name="resource">/home/liquidzulu/Videos/yt/b-roll/The Shower - Psycho (5â§¸12) Movie CLIP (1960) HD [0WtDmbr9xyY].webm</property>
  <property name="mlt_service">avformat-novalidate</property>
  <property name="seekable">1</property>
  <property name="format">3</property>
  <property name="audio_index">-1</property>
  <property name="video_index">0</property>
  <property name="kdenlive:clipname"/>
  <property name="kdenlive:clip_type">0</property>
  <property name="kdenlive:folderid">-1</property>
  <property name="kdenlive:id">598</property>
  <property name="kdenlive:file_size">18328828</property>
  <property name="kdenlive:file_hash">0b9c45dc506e1f547b534bff3fbe0b36</property>
  <property name="kdenlive:audio_max1">175</property>
  <property name="kdenlive:active_streams">-1</property>
  <property name="set.test_audio">1</property>
  <property name="meta.media.nb_streams">2</property>
  <property name="meta.media.0.stream.type">video</property>
  <property name="meta.media.0.stream.frame_rate">23.976</property>
  <property name="meta.media.0.stream.sample_aspect_ratio">1</property>
  <property name="meta.media.0.codec.width">1280</property>
  <property name="meta.media.0.codec.height">720</property>
  <property name="meta.media.0.codec.rotate">0</property>
  <property name="meta.media.0.codec.pix_fmt">yuv420p</property>
  <property name="meta.media.0.codec.sample_aspect_ratio">0</property>
  <property name="meta.media.0.codec.colorspace">709</property>
  <property name="meta.media.0.codec.color_trc">1</property>
  <property name="meta.media.0.codec.name">vp9</property>
  <property name="meta.media.0.codec.long_name">Google VP9</property>
  <property name="meta.media.0.codec.bit_rate">0</property>
  <property name="meta.attr.0.stream.language.markup">eng</property>
  <property name="meta.attr.0.stream.DURATION.markup">00:03:21.700000000</property>
  <property name="meta.media.1.stream.type">audio</property>
  <property name="meta.media.1.codec.sample_fmt">fltp</property>
  <property name="meta.media.1.codec.sample_rate">48000</property>
  <property name="meta.media.1.codec.channels">2</property>
  <property name="meta.media.1.codec.name">opus</property>
  <property name="meta.media.1.codec.long_name">Opus</property>
  <property name="meta.media.1.codec.bit_rate">0</property>
  <property name="meta.attr.1.stream.language.markup">eng</property>
  <property name="meta.attr.1.stream.DURATION.markup">00:03:21.741000000</property>
  <property name="meta.attr.ENCODER.markup">Lavf59.27.100</property>
  <property name="meta.media.sample_aspect_num">1</property>
  <property name="meta.media.sample_aspect_den">1</property>
  <property name="meta.media.frame_rate_num">24000</property>
  <property name="meta.media.frame_rate_den">1001</property>
  <property name="meta.media.colorspace">709</property>
  <property name="meta.media.color_trc">1</property>
  <property name="meta.media.has_b_frames">0</property>
  <property name="meta.media.width">1280</property>
  <property name="meta.media.height">720</property>
  <property name="meta.media.color_range">mpeg</property>
  <property name="xml">was here</property>
  <property name="meta.media.top_field_first">0</property>
  <property name="meta.media.progressive">1</property>
  <property name="set.test_image">0</property>
  <property name="mute_on_pause">1</property>
 </chain>
 <chain id="chain416" out="00:05:00.440">
  <property name="length">7512</property>
  <property name="eof">pause</property>
  <property name="resource">b-roll/Common Crawl Video [ozX4GvUWDm4].mkv</property>
  <property name="mlt_service">avformat-novalidate</property>
  <property name="seekable">1</property>
  <property name="format">3</property>
  <property name="audio_index">-1</property>
  <property name="video_index">0</property>
  <property name="kdenlive:clipname"/>
  <property name="kdenlive:clip_type">0</property>
  <property name="kdenlive:folderid">-1</property>
  <property name="kdenlive:id">613</property>
  <property name="kdenlive:file_size">40521421</property>
  <property name="kdenlive:file_hash">340f8b51a9d167ae2d42000d305e5125</property>
  <property name="kdenlive:audio_max1">175</property>
  <property name="kdenlive:active_streams">-1</property>
  <property name="set.test_audio">1</property>
  <property name="meta.media.nb_streams">2</property>
  <property name="meta.media.0.stream.type">video</property>
  <property name="meta.media.0.stream.frame_rate">24</property>
  <property name="meta.media.0.stream.sample_aspect_ratio">1</property>
  <property name="meta.media.0.codec.width">1280</property>
  <property name="meta.media.0.codec.height">720</property>
  <property name="meta.media.0.codec.rotate">0</property>
  <property name="meta.media.0.codec.pix_fmt">yuv420p</property>
  <property name="meta.media.0.codec.sample_aspect_ratio">1</property>
  <property name="meta.media.0.codec.colorspace">709</property>
  <property name="meta.media.0.codec.color_trc">1</property>
  <property name="meta.media.0.codec.name">h264</property>
  <property name="meta.media.0.codec.long_name">H.264 / AVC / MPEG-4 AVC / MPEG-4 part 10</property>
  <property name="meta.media.0.codec.bit_rate">0</property>
  <property name="meta.attr.0.stream.HANDLER_NAME.markup">ISO Media file produced by Google Inc.</property>
  <property name="meta.attr.0.stream.VENDOR_ID.markup">[0][0][0][0]</property>
  <property name="meta.attr.0.stream.DURATION.markup">00:05:00.459000000</property>
  <property name="meta.media.1.stream.type">audio</property>
  <property name="meta.media.1.codec.sample_fmt">fltp</property>
  <property name="meta.media.1.codec.sample_rate">48000</property>
  <property name="meta.media.1.codec.channels">2</property>
  <property name="meta.media.1.codec.name">opus</property>
  <property name="meta.media.1.codec.long_name">Opus</property>
  <property name="meta.media.1.codec.bit_rate">0</property>
  <property name="meta.attr.1.stream.language.markup">eng</property>
  <property name="meta.attr.1.stream.DURATION.markup">00:05:00.481000000</property>
  <property name="meta.attr.COMPATIBLE_BRANDS.markup">iso6avc1mp41</property>
  <property name="meta.attr.MAJOR_BRAND.markup">dash</property>
  <property name="meta.attr.MINOR_VERSION.markup">0</property>
  <property name="meta.attr.ENCODER.markup">Lavf59.27.100</property>
  <property name="meta.media.sample_aspect_num">1</property>
  <property name="meta.media.sample_aspect_den">1</property>
  <property name="meta.media.frame_rate_num">24</property>
  <property name="meta.media.frame_rate_den">1</property>
  <property name="meta.media.colorspace">709</property>
  <property name="meta.media.color_trc">1</property>
  <property name="meta.media.has_b_frames">1</property>
  <property name="meta.media.width">1280</property>
  <property name="meta.media.height">720</property>
  <property name="meta.media.color_range">mpeg</property>
  <property name="xml">was here</property>
  <property name="meta.media.top_field_first">0</property>
  <property name="meta.media.progressive">1</property>
  <property name="set.test_image">0</property>
  <property name="mute_on_pause">1</property>
 </chain>
 <chain id="chain417" out="00:01:16.800">
  <property name="length">1921</property>
  <property name="eof">pause</property>
  <property name="resource">/home/liquidzulu/Videos/yt/b-roll/CBeebies ï½œ Do You Knowï¼Ÿ ï½œ Posting a letter [w9jypk-wc-Y].webm</property>
  <property name="mlt_service">avformat-novalidate</property>
  <property name="seekable">1</property>
  <property name="format">3</property>
  <property name="audio_index">-1</property>
  <property name="video_index">0</property>
  <property name="kdenlive:clipname"/>
  <property name="kdenlive:clip_type">0</property>
  <property name="kdenlive:folderid">14</property>
  <property name="kdenlive:id">621</property>
  <property name="kdenlive:file_size">23547763</property>
  <property name="kdenlive:file_hash">2978581ae6b2865e81a06fc13fcad68e</property>
  <property name="kdenlive:audio_max1">179</property>
  <property name="kdenlive:active_streams">-1</property>
  <property name="set.test_audio">1</property>
  <property name="meta.media.nb_streams">2</property>
  <property name="meta.media.0.stream.type">video</property>
  <property name="meta.media.0.stream.frame_rate">25</property>
  <property name="meta.media.0.stream.sample_aspect_ratio">1</property>
  <property name="meta.media.0.codec.width">1920</property>
  <property name="meta.media.0.codec.height">1080</property>
  <property name="meta.media.0.codec.rotate">0</property>
  <property name="meta.media.0.codec.pix_fmt">yuv420p</property>
  <property name="meta.media.0.codec.sample_aspect_ratio">0</property>
  <property name="meta.media.0.codec.colorspace">709</property>
  <property name="meta.media.0.codec.color_trc">1</property>
  <property name="meta.media.0.codec.name">vp9</property>
  <property name="meta.media.0.codec.long_name">Google VP9</property>
  <property name="meta.media.0.codec.bit_rate">0</property>
  <property name="meta.attr.0.stream.language.markup">eng</property>
  <property name="meta.attr.0.stream.DURATION.markup">00:01:16.800000000</property>
  <property name="meta.media.1.stream.type">audio</property>
  <property name="meta.media.1.codec.sample_fmt">fltp</property>
  <property name="meta.media.1.codec.sample_rate">48000</property>
  <property name="meta.media.1.codec.channels">2</property>
  <property name="meta.media.1.codec.name">opus</property>
  <property name="meta.media.1.codec.long_name">Opus</property>
  <property name="meta.media.1.codec.bit_rate">0</property>
  <property name="meta.attr.1.stream.language.markup">eng</property>
  <property name="meta.attr.1.stream.DURATION.markup">00:01:16.821000000</property>
  <property name="meta.attr.ENCODER.markup">Lavf59.27.100</property>
  <property name="meta.media.sample_aspect_num">1</property>
  <property name="meta.media.sample_aspect_den">1</property>
  <property name="meta.media.frame_rate_num">25</property>
  <property name="meta.media.frame_rate_den">1</property>
  <property name="meta.media.colorspace">709</property>
  <property name="meta.media.color_trc">1</property>
  <property name="meta.media.has_b_frames">0</property>
  <property name="meta.media.width">1920</property>
  <property name="meta.media.height">1080</property>
  <property name="meta.media.color_range">mpeg</property>
  <property name="xml">was here</property>
  <property name="meta.media.top_field_first">0</property>
  <property name="meta.media.progressive">1</property>
  <property name="set.test_image">0</property>
  <property name="mute_on_pause">1</property>
 </chain>
 <producer id="producer680" in="00:00:00.000" out="00:00:19.680">
  <property name="length">00:00:19.720</property>
  <property name="eof">pause</property>
  <property name="resource">/home/liquidzulu/Pictures/yt/animation/output/project/footnotes/footnote-53/.all.png</property>
  <property name="ttl">1</property>
  <property name="aspect_ratio">1</property>
  <property name="progressive">1</property>
  <property name="seekable">1</property>
  <property name="format">2</property>
  <property name="meta.media.width">1920</property>
  <property name="meta.media.height">1080</property>
  <property name="mlt_service">qimage</property>
  <property name="kdenlive:clipname">footnote-53</property>
  <property name="low-pass">0</property>
  <property name="animation"/>
  <property name="luma_file"/>
  <property name="luma_duration">1</property>
  <property name="fade">0</property>
  <property name="crop">0</property>
  <property name="softness">0</property>
  <property name="loop">0</property>
  <property name="kdenlive:duration">00:00:19:18</property>
  <property name="kdenlive:folderid">273</property>
  <property name="kdenlive:id">712</property>
  <property name="kdenlive:clip_type">2</property>
  <property name="kdenlive:file_hash">b0b66711fa4e4e9f2da630dbf77afc57</property>
  <property name="xml">was here</property>
  <property name="set.test_audio">1</property>
  <property name="set.test_image">0</property>
 </producer>
 <chain id="chain423" out="00:56:37.840">
  <property name="length">84947</property>
  <property name="eof">pause</property>
  <property name="resource">b-roll/Here's What Ethical AI Really Means [AaU6tI2pb3M].webm</property>
  <property name="mlt_service">avformat-novalidate</property>
  <property name="seekable">1</property>
  <property name="format">3</property>
  <property name="audio_index">-1</property>
  <property name="video_index">0</property>
  <property name="kdenlive:clipname"/>
  <property name="kdenlive:clip_type">0</property>
  <property name="kdenlive:folderid">14</property>
  <property name="kdenlive:id">763</property>
  <property name="kdenlive:file_size">3253069716</property>
  <property name="kdenlive:file_hash">95f641f5e157428d4a2ff1a7e579fd7e</property>
  <property name="kdenlive:audio_max1">202</property>
  <property name="kdenlive:active_streams">-1</property>
  <property name="set.test_audio">1</property>
  <property name="meta.media.nb_streams">2</property>
  <property name="meta.media.0.stream.type">video</property>
  <property name="meta.media.0.stream.frame_rate">30</property>
  <property name="meta.media.0.stream.sample_aspect_ratio">1</property>
  <property name="meta.media.0.codec.width">3840</property>
  <property name="meta.media.0.codec.height">2160</property>
  <property name="meta.media.0.codec.rotate">0</property>
  <property name="meta.media.0.codec.pix_fmt">yuv420p</property>
  <property name="meta.media.0.codec.sample_aspect_ratio">0</property>
  <property name="meta.media.0.codec.colorspace">709</property>
  <property name="meta.media.0.codec.color_trc">1</property>
  <property name="meta.media.0.codec.name">vp9</property>
  <property name="meta.media.0.codec.long_name">Google VP9</property>
  <property name="meta.media.0.codec.bit_rate">0</property>
  <property name="meta.attr.0.stream.language.markup">eng</property>
  <property name="meta.attr.0.stream.DURATION.markup">00:56:37.833000000</property>
  <property name="meta.media.1.stream.type">audio</property>
  <property name="meta.media.1.codec.sample_fmt">fltp</property>
  <property name="meta.media.1.codec.sample_rate">48000</property>
  <property name="meta.media.1.codec.channels">2</property>
  <property name="meta.media.1.codec.name">opus</property>
  <property name="meta.media.1.codec.long_name">Opus</property>
  <property name="meta.media.1.codec.bit_rate">0</property>
  <property name="meta.attr.1.stream.language.markup">eng</property>
  <property name="meta.attr.1.stream.DURATION.markup">00:56:37.861000000</property>
  <property name="meta.attr.ENCODER.markup">Lavf59.27.100</property>
  <property name="meta.media.sample_aspect_num">1</property>
  <property name="meta.media.sample_aspect_den">1</property>
  <property name="meta.media.frame_rate_num">30</property>
  <property name="meta.media.frame_rate_den">1</property>
  <property name="meta.media.colorspace">709</property>
  <property name="meta.media.color_trc">1</property>
  <property name="meta.media.has_b_frames">0</property>
  <property name="meta.media.width">3840</property>
  <property name="meta.media.height">2160</property>
  <property name="meta.media.color_range">mpeg</property>
  <property name="xml">was here</property>
  <property name="meta.media.top_field_first">0</property>
  <property name="meta.media.progressive">1</property>
  <property name="set.test_image">0</property>
  <property name="mute_on_pause">1</property>
 </chain>
 <producer id="producer681" in="00:00:00.000" out="00:00:11.840">
  <property name="length">297</property>
  <property name="eof">pause</property>
  <property name="resource">images/hate-profit-2.png</property>
  <property name="ttl">25</property>
  <property name="aspect_ratio">1</property>
  <property name="progressive">1</property>
  <property name="seekable">1</property>
  <property name="format">2</property>
  <property name="meta.media.width">1920</property>
  <property name="meta.media.height">1080</property>
  <property name="mlt_service">qimage</property>
  <property name="kdenlive:clipname"/>
  <property name="kdenlive:duration">00:00:05:00</property>
  <property name="kdenlive:folderid">28</property>
  <property name="kdenlive:id">837</property>
  <property name="kdenlive:clip_type">2</property>
  <property name="kdenlive:file_size">133949</property>
  <property name="kdenlive:file_hash">62259668fcb47266c05170d9bbbd6530</property>
 </producer>
 <producer id="producer682" in="00:00:00.000" out="00:00:06.120">
  <property name="length">154</property>
  <property name="eof">pause</property>
  <property name="resource">images/Ljubljana_Marshes_Wheel_with_axle_(oldest_wooden_wheel_yet_discovered).jpg</property>
  <property name="ttl">25</property>
  <property name="aspect_ratio">1</property>
  <property name="progressive">1</property>
  <property name="seekable">1</property>
  <property name="format">1</property>
  <property name="meta.media.width">4504</property>
  <property name="meta.media.height">3448</property>
  <property name="mlt_service">qimage</property>
  <property name="kdenlive:clipname"/>
  <property name="kdenlive:duration">00:00:05:00</property>
  <property name="kdenlive:folderid">28</property>
  <property name="kdenlive:id">853</property>
  <property name="kdenlive:clip_type">2</property>
  <property name="kdenlive:file_size">3604093</property>
  <property name="kdenlive:file_hash">cd4037324ae5096d2c25522c6067420f</property>
 </producer>
 <producer id="producer683" in="00:00:00.000" out="00:00:36.360">
  <property name="length">910</property>
  <property name="eof">pause</property>
  <property name="resource">quotes/out/abhishek-gupta-card.png</property>
  <property name="ttl">25</property>
  <property name="aspect_ratio">1</property>
  <property name="progressive">1</property>
  <property name="seekable">1</property>
  <property name="format">2</property>
  <property name="meta.media.width">1920</property>
  <property name="meta.media.height">1080</property>
  <property name="mlt_service">qimage</property>
  <property name="kdenlive:clipname"/>
  <property name="kdenlive:duration">00:00:05:00</property>
  <property name="kdenlive:folderid">345</property>
  <property name="kdenlive:id">894</property>
  <property name="kdenlive:clip_type">2</property>
  <property name="kdenlive:file_size">548115</property>
  <property name="kdenlive:file_hash">90cf34355d06a7280e50d01cf2336935</property>
 </producer>
 <playlist id="playlist16">
  <blank length="00:01:06.120"/>
  <entry producer="producer241" in="00:00:00.000" out="00:00:00.560">
   <property name="kdenlive:id">222</property>
  </entry>
  <entry producer="producer242" in="00:00:00.000" out="00:00:00.560">
   <property name="kdenlive:id">223</property>
  </entry>
  <entry producer="producer243" in="00:00:00.000" out="00:00:00.520">
   <property name="kdenlive:id">224</property>
  </entry>
  <entry producer="producer244" in="00:00:00.000" out="00:00:00.560">
   <property name="kdenlive:id">225</property>
  </entry>
  <entry producer="producer245" in="00:00:00.000" out="00:00:04.040">
   <property name="kdenlive:id">226</property>
   <filter id="filter1262" in="00:00:02.320" out="00:00:04.040">
    <property name="start">1</property>
    <property name="level">1</property>
    <property name="mlt_service">brightness</property>
    <property name="kdenlive_id">fade_to_black</property>
    <property name="alpha">00:00:00.000=1;00:00:01.720=0</property>
   </filter>
  </entry>
  <blank length="00:00:00.600"/>
  <entry producer="producer652" in="00:00:00.000" out="00:00:04.880">
   <property name="kdenlive:id">231</property>
   <filter id="filter1263">
    <property name="rotate_center">1</property>
    <property name="mlt_service">qtblend</property>
    <property name="kdenlive_id">qtblend</property>
    <property name="rect">00:00:00.000=0 1085 1920 1080 1.000000;00:00:00.240=0 -42 1920 1080 1.000000;00:00:00.360=0 0 1920 1080 1.000000;00:00:04.520=0 0 1920 1080 1.000000;00:00:04.640=0 -41 1920 1080 1.000000;00:00:04.880=0 1130 1920 1080 1.000000</property>
    <property name="rotation">00:00:00.000=0;00:00:00.240=0;00:00:00.360=0;00:00:04.520=0;00:00:04.640=0;00:00:04.880=0</property>
    <property name="compositing">0</property>
    <property name="distort">0</property>
    <property name="kdenlive:collapsed">0</property>
   </filter>
  </entry>
  <blank length="00:00:32.080"/>
  <entry producer="producer652" in="00:00:00.000" out="00:00:04.880">
   <property name="kdenlive:id">231</property>
   <filter id="filter1264">
    <property name="rotate_center">1</property>
    <property name="mlt_service">qtblend</property>
    <property name="kdenlive_id">qtblend</property>
    <property name="rect">00:00:00.000=0 1085 1920 1080 1.000000;00:00:00.240=0 -42 1920 1080 1.000000;00:00:00.360=0 0 1920 1080 1.000000;00:00:04.520=0 0 1920 1080 1.000000;00:00:04.640=0 -41 1920 1080 1.000000;00:00:04.880=0 1130 1920 1080 1.000000</property>
    <property name="rotation">00:00:00.000=0;00:00:00.240=0;00:00:00.360=0;00:00:04.520=0;00:00:04.640=0;00:00:04.880=0</property>
    <property name="compositing">0</property>
    <property name="distort">0</property>
    <property name="kdenlive:collapsed">0</property>
   </filter>
  </entry>
  <blank length="00:00:22.160"/>
  <entry producer="producer652" in="00:00:00.000" out="00:00:10.040">
   <property name="kdenlive:id">231</property>
   <filter id="filter1265">
    <property name="rotate_center">1</property>
    <property name="mlt_service">qtblend</property>
    <property name="kdenlive_id">qtblend</property>
    <property name="rect">00:00:00.000=0 1085 1920 1080 1.000000;00:00:00.240=0 -42 1920 1080 1.000000;00:00:00.360=0 0 1920 1080 1.000000;00:00:09.680=0 0 1920 1080 1.000000;00:00:09.800=0 -40 1920 1080 1.000000;00:00:10.040=0 1168 1920 1080 1.000000</property>
    <property name="rotation">00:00:00.000=0;00:00:00.240=0;00:00:00.360=0;00:00:09.680=0;00:00:09.800=0;00:00:10.040=0</property>
    <property name="compositing">0</property>
    <property name="distort">0</property>
    <property name="kdenlive:collapsed">0</property>
   </filter>
  </entry>
  <entry producer="producer652" in="00:00:00.000" out="00:00:10.040">
   <property name="kdenlive:id">231</property>
   <filter id="filter1266">
    <property name="rotate_center">1</property>
    <property name="mlt_service">qtblend</property>
    <property name="kdenlive_id">qtblend</property>
    <property name="rect">00:00:00.000=0 1085 1920 1080 1.000000;00:00:00.240=0 -42 1920 1080 1.000000;00:00:00.360=0 0 1920 1080 1.000000;00:00:09.680=0 0 1920 1080 1.000000;00:00:09.800=0 -40 1920 1080 1.000000;00:00:10.040=0 1168 1920 1080 1.000000</property>
    <property name="rotation">00:00:00.000=0;00:00:00.240=0;00:00:00.360=0;00:00:09.680=0;00:00:09.800=0;00:00:10.040=0</property>
    <property name="compositing">0</property>
    <property name="distort">0</property>
    <property name="kdenlive:collapsed">0</property>
   </filter>
  </entry>
  <blank length="00:00:30.800"/>
  <entry producer="producer247" in="00:00:00.000" out="00:00:08.360">
   <property name="kdenlive:id">252</property>
   <filter id="filter1267">
    <property name="rotate_center">1</property>
    <property name="mlt_service">qtblend</property>
    <property name="kdenlive_id">qtblend</property>
    <property name="rect">00:00:00.000=1195 324 759 427 1.000000</property>
    <property name="rotation">00:00:00.000=0</property>
    <property name="compositing">0</property>
    <property name="distort">0</property>
    <property name="kdenlive:collapsed">0</property>
   </filter>
  </entry>
  <blank length="00:00:23.360"/>
  <entry producer="chain400" in="00:00:00.000" out="00:00:05.800">
   <property name="kdenlive:id">259</property>
   <filter id="filter1268">
    <property name="rotate_center">1</property>
    <property name="mlt_service">qtblend</property>
    <property name="kdenlive_id">qtblend</property>
    <property name="rect">00:00:00.000=0 1080 1920 1080 1.000000;00:00:00.240=0 -28 1920 1080 1.000000;00:00:00.360=0 0 1920 1080 1.000000</property>
    <property name="rotation">00:00:00.000=0;00:00:00.240=0;00:00:00.360=0</property>
    <property name="compositing">0</property>
    <property name="distort">0</property>
    <property name="kdenlive:collapsed">0</property>
   </filter>
  </entry>
  <entry producer="chain400" in="00:00:05.840" out="00:00:05.920">
   <property name="kdenlive:id">259</property>
   <filter id="filter1269">
    <property name="rotate_center">1</property>
    <property name="mlt_service">qtblend</property>
    <property name="kdenlive_id">qtblend</property>
    <property name="rect">00:00:05.840=0 0 1920 1080 1.000000</property>
    <property name="rotation">00:00:05.840=0</property>
    <property name="compositing">0</property>
    <property name="distort">0</property>
    <property name="kdenlive:collapsed">0</property>
   </filter>
  </entry>
  <entry producer="chain400" in="00:00:05.840" out="00:00:05.920">
   <property name="kdenlive:id">259</property>
   <filter id="filter1270">
    <property name="rotate_center">1</property>
    <property name="mlt_service">qtblend</property>
    <property name="kdenlive_id">qtblend</property>
    <property name="rect">00:00:05.840=0 0 1920 1080 1.000000</property>
    <property name="rotation">00:00:05.840=0</property>
    <property name="compositing">0</property>
    <property name="distort">0</property>
   </filter>
  </entry>
  <entry producer="chain400" in="00:00:05.840" out="00:00:05.920">
   <property name="kdenlive:id">259</property>
   <filter id="filter1271">
    <property name="rotate_center">1</property>
    <property name="mlt_service">qtblend</property>
    <property name="kdenlive_id">qtblend</property>
    <property name="rect">00:00:05.840=0 0 1920 1080 1.000000</property>
    <property name="rotation">00:00:05.840=0</property>
    <property name="compositing">0</property>
    <property name="distort">0</property>
   </filter>
  </entry>
  <entry producer="chain400" in="00:00:05.840" out="00:00:05.920">
   <property name="kdenlive:id">259</property>
   <filter id="filter1272">
    <property name="rotate_center">1</property>
    <property name="mlt_service">qtblend</property>
    <property name="kdenlive_id">qtblend</property>
    <property name="rect">00:00:05.840=0 0 1920 1080 1.000000</property>
    <property name="rotation">00:00:05.840=0</property>
    <property name="compositing">0</property>
    <property name="distort">0</property>
   </filter>
  </entry>
  <entry producer="chain400" in="00:00:05.840" out="00:00:05.920">
   <property name="kdenlive:id">259</property>
   <filter id="filter1273">
    <property name="rotate_center">1</property>
    <property name="mlt_service">qtblend</property>
    <property name="kdenlive_id">qtblend</property>
    <property name="rect">00:00:05.840=0 0 1920 1080 1.000000</property>
    <property name="rotation">00:00:05.840=0</property>
    <property name="compositing">0</property>
    <property name="distort">0</property>
   </filter>
  </entry>
  <entry producer="chain400" in="00:00:05.840" out="00:00:05.840">
   <property name="kdenlive:id">259</property>
   <filter id="filter1274">
    <property name="rotate_center">1</property>
    <property name="mlt_service">qtblend</property>
    <property name="kdenlive_id">qtblend</property>
    <property name="rect">00:00:05.840=0 0 1920 1080 1.000000</property>
    <property name="rotation">00:00:05.840=0</property>
    <property name="compositing">0</property>
    <property name="distort">0</property>
   </filter>
  </entry>
  <blank length="00:00:04.400"/>
  <entry producer="producer652" in="00:00:00.000" out="00:00:04.720">
   <property name="kdenlive:id">231</property>
   <filter id="filter1275">
    <property name="rotate_center">1</property>
    <property name="mlt_service">qtblend</property>
    <property name="kdenlive_id">qtblend</property>
    <property name="rect">00:00:00.000=0 1085 1920 1080 1.000000;00:00:00.240=0 -42 1920 1080 1.000000;00:00:00.360=0 0 1920 1080 1.000000;00:00:04.360=0 0 1920 1080 1.000000;00:00:04.480=-48 -27 2016 1134 1.000000;00:00:04.720=949 535 19 10 1.000000</property>
    <property name="rotation">00:00:00.000=0;00:00:00.240=0;00:00:00.360=0;00:00:04.360=0;00:00:04.480=0;00:00:04.720=0</property>
    <property name="compositing">0</property>
    <property name="distort">0</property>
    <property name="kdenlive:collapsed">0</property>
   </filter>
  </entry>
  <blank length="00:00:05.600"/>
  <entry producer="producer248" in="00:00:00.000" out="00:00:01.880">
   <property name="kdenlive:id">269</property>
   <property name="kdenlive:activeeffect">2</property>
   <filter id="filter1276">
    <property name="rotate_center">1</property>
    <property name="mlt_service">qtblend</property>
    <property name="kdenlive_id">qtblend</property>
    <property name="rect">00:00:00.000=192 108 1536 864 1.000000</property>
    <property name="rotation">00:00:00.000=0</property>
    <property name="compositing">0</property>
    <property name="distort">0</property>
    <property name="kdenlive:collapsed">1</property>
   </filter>
   <filter id="filter1277">
    <property name="rotate_center">1</property>
    <property name="mlt_service">qtblend</property>
    <property name="kdenlive_id">qtblend</property>
    <property name="rect">00:00:00.000=950 535 19 10 1.000000;00:00:00.240=-48 -27 2016 1134 1.000000;00:00:00.360=0 0 1920 1080 1.000000</property>
    <property name="rotation">00:00:00.000=0;00:00:00.240=0;00:00:00.360=0</property>
    <property name="compositing">0</property>
    <property name="distort">0</property>
    <property name="kdenlive:collapsed">1</property>
   </filter>
   <filter id="filter1278">
    <property name="rotate_center">1</property>
    <property name="mlt_service">qtblend</property>
    <property name="kdenlive_id">qtblend</property>
    <property name="rect">00:00:00.000=0 0 1920 1080 1.000000;00:00:01.520=0 0 1920 1080 1.000000;00:00:01.640=0 54 1920 1080 1.000000;00:00:01.880=0 -1080 1920 1080 1.000000</property>
    <property name="rotation">00:00:00.000=0;00:00:01.520=0;00:00:01.640=0;00:00:01.880=0</property>
    <property name="compositing">0</property>
    <property name="distort">0</property>
    <property name="kdenlive:collapsed">0</property>
   </filter>
  </entry>
  <blank length="00:00:36.560"/>
  <entry producer="producer266" in="00:00:00.000" out="00:00:10.840">
   <property name="kdenlive:id">296</property>
   <filter id="filter1279">
    <property name="rotate_center">1</property>
    <property name="mlt_service">qtblend</property>
    <property name="kdenlive_id">qtblend</property>
    <property name="rect">00:00:00.000=950 535 19 10 1.000000;00:00:00.240=-96 -54 2112 1188 1.000000;00:00:00.360=0 0 1920 1080 1.000000;00:00:10.480=0 0 1920 1080 1.000000;00:00:10.600=-96 -54 2112 1188 1.000000;00:00:10.840=950 535 19 10 1.000000</property>
    <property name="rotation">00:00:00.000=0;00:00:00.240=0;00:00:00.360=0;00:00:10.480=0;00:00:10.600=0;00:00:10.840=0</property>
    <property name="compositing">0</property>
    <property name="distort">0</property>
    <property name="kdenlive:collapsed">0</property>
   </filter>
  </entry>
  <blank length="00:00:07.080"/>
  <entry producer="producer390" in="00:00:00.000" out="00:00:02.920">
   <property name="kdenlive:id">248</property>
   <filter id="filter1280">
    <property name="rotate_center">1</property>
    <property name="mlt_service">qtblend</property>
    <property name="kdenlive_id">qtblend</property>
    <property name="rect">00:00:00.000=693 119 19 10 1.000000;00:00:00.240=550 39 305 171 1.000000;00:00:00.360=598 65 209 118 1.000000;00:00:01.120=1177 78 209 118 1.000000;00:00:01.840=595 65 209 118 1.000000;00:00:02.560=1190 75 209 118 1.000000;00:00:02.680=1142 49 305 171 1.000000;00:00:02.920=1285 129 19 10 1.000000</property>
    <property name="rotation">00:00:00.000=-85;00:00:00.240=-85;00:00:00.360=-85;00:00:01.120=-100;00:00:01.840=-93;00:00:02.560=-86;00:00:02.680=-86;00:00:02.920=-86</property>
    <property name="compositing">0</property>
    <property name="distort">0</property>
    <property name="kdenlive:collapsed">0</property>
   </filter>
  </entry>
  <blank length="00:00:22.840"/>
  <entry producer="producer294" in="00:00:00.000" out="00:00:06.200">
   <property name="kdenlive:id">313</property>
   <filter id="filter1281">
    <property name="rotate_center">1</property>
    <property name="mlt_service">qtblend</property>
    <property name="kdenlive_id">qtblend</property>
    <property name="rect">00:00:00.000=950 535 19 10 1.000000;00:00:00.240=96 54 1728 972 1.000000;00:00:00.360=144 81 1632 918 1.000000;00:00:05.840=98 55 1722 967 1.000000;00:00:05.960=50 28 1818 1023 1.000000;00:00:06.200=950 535 19 10 1.000000</property>
    <property name="rotation">00:00:00.000=0;00:00:00.240=0;00:00:00.360=0;00:00:05.840=0;00:00:05.960=0;00:00:06.200=0</property>
    <property name="compositing">0</property>
    <property name="distort">0</property>
    <property name="kdenlive:collapsed">0</property>
   </filter>
  </entry>
  <blank length="00:00:46.960"/>
  <entry producer="producer654" in="00:00:00.000" out="00:00:04.080">
   <property name="kdenlive:id">318</property>
  </entry>
  <entry producer="producer654" in="00:00:16.440" out="00:00:19.640">
   <property name="kdenlive:id">318</property>
  </entry>
  <blank length="00:00:05.840"/>
  <entry producer="producer296" in="00:00:00.000" out="00:00:01.200">
   <property name="kdenlive:id">322</property>
   <filter id="filter1282">
    <property name="rotate_center">1</property>
    <property name="mlt_service">qtblend</property>
    <property name="kdenlive_id">qtblend</property>
    <property name="rect">00:00:00.000=641 355 19 10 1.000000;00:00:00.240=223 120 856 481 1.000000;00:00:00.360=270 146 762 428 1.000000;00:00:00.840=270 146 762 428 1.000000;00:00:00.960=223 120 856 481 1.000000;00:00:01.200=641 355 19 10 1.000000</property>
    <property name="rotation">00:00:00.000=0;00:00:00.240=0;00:00:00.360=0;00:00:00.840=0;00:00:00.960=0;00:00:01.200=0</property>
    <property name="compositing">0</property>
    <property name="distort">0</property>
    <property name="kdenlive:collapsed">0</property>
   </filter>
  </entry>
  <blank length="00:00:07.760"/>
  <entry producer="producer297" in="00:00:00.000" out="00:00:01.960">
   <property name="kdenlive:id">325</property>
   <filter id="filter1283">
    <property name="rotate_center">1</property>
    <property name="mlt_service">qtblend</property>
    <property name="kdenlive_id">qtblend</property>
    <property name="rect">00:00:00.000=0 75 1920 1080 1.000000;00:00:01.560=0 75 1920 1080 1.000000;00:00:01.720=-126 75 1920 1080 1.000000</property>
    <property name="rotation">00:00:00.000=0;00:00:01.560=0;00:00:01.720=0</property>
    <property name="compositing">0</property>
    <property name="distort">0</property>
    <property name="kdenlive:collapsed">0</property>
   </filter>
  </entry>
  <blank length="00:00:03.000"/>
  <entry producer="producer298" in="00:00:00.000" out="00:00:04.200">
   <property name="kdenlive:id">332</property>
   <filter id="filter1284">
    <property name="rotate_center">1</property>
    <property name="mlt_service">qtblend</property>
    <property name="kdenlive_id">qtblend</property>
    <property name="rect">00:00:00.000=0 75 1920 1080 1.000000</property>
    <property name="rotation">00:00:00.000=0</property>
    <property name="compositing">0</property>
    <property name="distort">0</property>
    <property name="kdenlive:collapsed">0</property>
   </filter>
   <filter id="filter1285" out="00:00:00.400">
    <property name="start">1</property>
    <property name="level">1</property>
    <property name="mlt_service">brightness</property>
    <property name="kdenlive_id">fade_from_black</property>
    <property name="alpha">00:00:00.000=0;00:00:00.400=1</property>
    <property name="kdenlive:collapsed">0</property>
   </filter>
  </entry>
  <blank length="00:00:14.080"/>
  <entry producer="chain401" in="00:00:00.000" out="00:00:19.840">
   <property name="kdenlive:id">338</property>
   <filter id="filter1286">
    <property name="rotate_center">1</property>
    <property name="mlt_service">qtblend</property>
    <property name="kdenlive_id">qtblend</property>
    <property name="rect">00:00:00.000=0 0 1920 1080 1.000000;00:00:19.480=0 0 1920 1080 1.000000;00:00:19.600=-48 -27 2016 1134 1.000000;00:00:19.840=950 535 19 10 1.000000</property>
    <property name="rotation">00:00:00.000=0;00:00:19.480=0;00:00:19.600=0;00:00:19.840=0</property>
    <property name="compositing">0</property>
    <property name="distort">0</property>
    <property name="kdenlive:collapsed">0</property>
   </filter>
  </entry>
  <blank length="00:00:08.560"/>
  <entry producer="producer652" in="00:00:00.000" out="00:00:06.040">
   <property name="kdenlive:id">231</property>
   <filter id="filter1287">
    <property name="rotate_center">1</property>
    <property name="mlt_service">qtblend</property>
    <property name="kdenlive_id">qtblend</property>
    <property name="rect">00:00:00.000=0 1085 1920 1080 1.000000;00:00:00.240=0 -42 1920 1080 1.000000;00:00:00.360=0 0 1920 1080 1.000000;00:00:03.680=0 0 1920 1080 1.000000</property>
    <property name="rotation">00:00:00.000=0;00:00:00.240=0;00:00:00.360=0;00:00:03.680=0</property>
    <property name="compositing">0</property>
    <property name="distort">0</property>
   </filter>
  </entry>
  <entry producer="producer652" in="00:00:00.000" out="00:00:01.160">
   <property name="kdenlive:id">231</property>
   <filter id="filter1288">
    <property name="rotate_center">1</property>
    <property name="mlt_service">qtblend</property>
    <property name="kdenlive_id">qtblend</property>
    <property name="rect">00:00:00.000=0 0 1920 1080 1.000000;00:00:00.800=0 0 1920 1080 1.000000;00:00:00.920=0 -41 1920 1080 1.000000;00:00:01.160=0 1130 1920 1080 1.000000</property>
    <property name="rotation">00:00:00.000=0;00:00:00.800=0;00:00:00.920=0;00:00:01.160=0</property>
    <property name="compositing">0</property>
    <property name="distort">0</property>
   </filter>
  </entry>
  <blank length="00:00:45.280"/>
  <entry producer="producer652" in="00:00:00.000" out="00:00:04.480">
   <property name="kdenlive:id">231</property>
   <filter id="filter1289">
    <property name="rotate_center">1</property>
    <property name="mlt_service">qtblend</property>
    <property name="kdenlive_id">qtblend</property>
    <property name="rect">00:00:00.000=0 1080 1920 1080 1.000000;00:00:00.240=0 -41 1920 1080 1.000000;00:00:00.360=0 0 1920 1080 1.000000;00:00:04.120=0 0 1920 1080 1.000000;00:00:04.480~=-525 -295 2976 1674 1.000000</property>
    <property name="rotation">00:00:00.000=0;00:00:00.240=0;00:00:00.360=0;00:00:04.120=0;00:00:04.480~=0</property>
    <property name="compositing">0</property>
    <property name="distort">0</property>
    <property name="kdenlive:collapsed">0</property>
   </filter>
   <filter id="filter1290" in="00:00:04.280" out="00:00:04.480">
    <property name="start">1</property>
    <property name="level">1</property>
    <property name="mlt_service">brightness</property>
    <property name="kdenlive_id">fade_to_black</property>
    <property name="alpha">00:00:00.000=1;00:00:00.200=0</property>
    <property name="kdenlive:collapsed">0</property>
   </filter>
  </entry>
  <entry producer="producer299" in="00:00:00.000" out="00:00:29.360">
   <property name="kdenlive:id">346</property>
   <filter id="filter1291">
    <property name="rotate_center">1</property>
    <property name="mlt_service">qtblend</property>
    <property name="kdenlive_id">qtblend</property>
    <property name="rect">00:00:00.000=48 27 1824 1026 1.000000;00:00:00.360=0 0 1920 1080 1.000000</property>
    <property name="rotation">00:00:00.000=0;00:00:00.360=0</property>
    <property name="compositing">0</property>
    <property name="distort">0</property>
    <property name="kdenlive:collapsed">0</property>
   </filter>
   <filter id="filter1292" out="00:00:00.240">
    <property name="start">1</property>
    <property name="level">1</property>
    <property name="mlt_service">brightness</property>
    <property name="kdenlive_id">fade_from_black</property>
    <property name="alpha">00:00:00.000=0;00:00:00.240=1</property>
    <property name="kdenlive:collapsed">0</property>
   </filter>
   <filter id="filter1293" in="00:00:28.440" out="00:00:29.360">
    <property name="start">1</property>
    <property name="level">1</property>
    <property name="mlt_service">brightness</property>
    <property name="kdenlive_id">fade_to_black</property>
    <property name="alpha">00:00:00.000=1;00:00:00.920=0</property>
   </filter>
  </entry>
  <blank length="00:00:06.920"/>
  <entry producer="producer652" in="00:00:00.000" out="00:00:05.760">
   <property name="kdenlive:id">231</property>
   <filter id="filter1294">
    <property name="rotate_center">1</property>
    <property name="mlt_service">qtblend</property>
    <property name="kdenlive_id">qtblend</property>
    <property name="rect">00:00:00.000=950 535 19 10 1.000000;00:00:00.240=-48 -27 2016 1134 1.000000;00:00:00.360=0 0 1920 1080 1.000000;00:00:05.400=0 0 1920 1080 1.000000;00:00:05.520=0 53 1920 1080 1.000000;00:00:05.760=0 -1080 1920 1080 1.000000</property>
    <property name="rotation">00:00:00.000=0;00:00:00.240=0;00:00:00.360=0;00:00:05.400=0;00:00:05.520=0;00:00:05.760=0</property>
    <property name="compositing">0</property>
    <property name="distort">0</property>
    <property name="kdenlive:collapsed">0</property>
   </filter>
  </entry>
  <blank length="00:00:10.440"/>
  <entry producer="producer300" in="00:00:00.000" out="00:00:18.280">
   <property name="kdenlive:id">359</property>
   <filter id="filter1295" out="00:00:00.200">
    <property name="start">1</property>
    <property name="level">1</property>
    <property name="mlt_service">brightness</property>
    <property name="kdenlive_id">fade_from_black</property>
    <property name="alpha">00:00:00.000=0;00:00:00.200=1</property>
    <property name="kdenlive:collapsed">1</property>
   </filter>
   <filter id="filter1296">
    <property name="rotate_center">1</property>
    <property name="mlt_service">qtblend</property>
    <property name="kdenlive_id">qtblend</property>
    <property name="rect">00:00:00.000=0 0 1920 1080 1.000000;00:00:17.920=0 0 1920 1080 1.000000;00:00:18.040=0 44 1920 1080 1.000000;00:00:18.280=0 -1080 1920 1080 1.000000</property>
    <property name="rotation">00:00:00.000=0;00:00:17.920=0;00:00:18.040=0;00:00:18.280=0</property>
    <property name="compositing">0</property>
    <property name="distort">0</property>
    <property name="kdenlive:collapsed">0</property>
   </filter>
  </entry>
  <blank length="00:00:33.480"/>
  <entry producer="producer652" in="00:00:00.000" out="00:01:02.160">
   <property name="kdenlive:id">231</property>
   <filter id="filter1297">
    <property name="rotate_center">1</property>
    <property name="mlt_service">qtblend</property>
    <property name="kdenlive_id">qtblend</property>
    <property name="rect">00:00:00.000=0 1080 1920 1080 1.000000;00:00:00.240=0 -43 1920 1080 1.000000;00:00:00.360=0 0 1920 1080 1.000000;00:01:01.800=0 0 1920 1080 1.000000;00:01:01.920=0 44 1920 1080 1.000000;00:01:02.160=0 -1080 1920 1080 1.000000</property>
    <property name="rotation">00:00:00.000=0;00:00:00.240=0;00:00:00.360=0;00:01:01.800=0;00:01:01.920=0;00:01:02.160=0</property>
    <property name="compositing">0</property>
    <property name="distort">0</property>
    <property name="kdenlive:collapsed">0</property>
   </filter>
  </entry>
  <blank length="00:00:24.360"/>
  <entry producer="chain402" in="00:00:00.000" out="00:00:46.360">
   <property name="kdenlive:id">369</property>
   <property name="kdenlive:activeeffect">1</property>
   <filter id="filter1298">
    <property name="rotate_center">1</property>
    <property name="mlt_service">qtblend</property>
    <property name="kdenlive_id">qtblend</property>
    <property name="rect">00:00:00.000=321 180 1278 719 1.000000</property>
    <property name="rotation">00:00:00.000=0</property>
    <property name="compositing">0</property>
    <property name="distort">0</property>
    <property name="kdenlive:collapsed">1</property>
   </filter>
   <filter id="filter1299">
    <property name="rotate_center">1</property>
    <property name="mlt_service">qtblend</property>
    <property name="kdenlive_id">qtblend</property>
    <property name="rect">00:00:00.000=0 1080 1920 1080 1.000000;00:00:00.240=0 -52 1920 1080 1.000000;00:00:00.360=0 0 1920 1080 1.000000;00:00:46.000=0 0 1920 1080 1.000000;00:00:46.120=0 58 1920 1080 1.000000;00:00:46.360=0 -1080 1920 1080 1.000000</property>
    <property name="rotation">00:00:00.000=0;00:00:00.240=0;00:00:00.360=0;00:00:46.000=0;00:00:46.120=0;00:00:46.360=0</property>
    <property name="compositing">0</property>
    <property name="distort">0</property>
    <property name="kdenlive:collapsed">0</property>
   </filter>
  </entry>
  <blank length="00:00:09.240"/>
  <entry producer="producer299" in="00:00:00.000" out="00:00:59.960">
   <property name="kdenlive:id">346</property>
   <filter id="filter1300">
    <property name="rotate_center">1</property>
    <property name="mlt_service">qtblend</property>
    <property name="kdenlive_id">qtblend</property>
    <property name="rect">00:00:00.000=48 27 1824 1026 1.000000;00:00:00.360=0 0 1920 1080 1.000000</property>
    <property name="rotation">00:00:00.000=0;00:00:00.360=0</property>
    <property name="compositing">0</property>
    <property name="distort">0</property>
    <property name="kdenlive:collapsed">0</property>
   </filter>
   <filter id="filter1301" out="00:00:00.240">
    <property name="start">1</property>
    <property name="level">1</property>
    <property name="mlt_service">brightness</property>
    <property name="kdenlive_id">fade_from_black</property>
    <property name="alpha">00:00:00.000=0;00:00:00.240=1</property>
    <property name="kdenlive:collapsed">0</property>
   </filter>
   <filter id="filter1302" in="00:00:59.040" out="00:00:59.960">
    <property name="start">1</property>
    <property name="level">1</property>
    <property name="mlt_service">brightness</property>
    <property name="kdenlive_id">fade_to_black</property>
    <property name="alpha">00:00:00.000=1;00:00:00.920=0</property>
    <property name="kdenlive:collapsed">0</property>
   </filter>
  </entry>
  <blank length="00:00:17.320"/>
  <entry producer="chain403" in="00:00:00.000" out="00:00:05.840">
   <property name="kdenlive:id">219</property>
   <filter id="filter1303">
    <property name="rotate_center">1</property>
    <property name="mlt_service">qtblend</property>
    <property name="kdenlive_id">qtblend</property>
    <property name="rect">00:00:00.000=0 1080 1920 1080 1.000000;00:00:00.240=0 -50 1920 1080 1.000000;00:00:00.360=0 0 1920 1080 1.000000</property>
    <property name="rotation">00:00:00.000=0;00:00:00.240=0;00:00:00.360=0</property>
    <property name="compositing">0</property>
    <property name="distort">0</property>
    <property name="kdenlive:collapsed">0</property>
   </filter>
  </entry>
  <blank length="00:00:01.840"/>
  <entry producer="producer652" in="00:00:00.000" out="00:00:11.440">
   <property name="kdenlive:id">231</property>
   <filter id="filter1304">
    <property name="rotate_center">1</property>
    <property name="mlt_service">qtblend</property>
    <property name="kdenlive_id">qtblend</property>
    <property name="rect">00:00:00.000=0 1080 1920 1080 1.000000;00:00:00.240=0 -41 1920 1080 1.000000;00:00:00.360=0 0 1920 1080 1.000000;00:00:11.080=0 0 1920 1080 1.000000;00:00:11.200=0 44 1920 1080 1.000000;00:00:11.440=0 -1080 1920 1080 1.000000</property>
    <property name="rotation">00:00:00.000=0;00:00:00.240=0;00:00:00.360=0;00:00:11.080=0;00:00:11.200=0;00:00:11.440=0</property>
    <property name="compositing">0</property>
    <property name="distort">0</property>
    <property name="kdenlive:collapsed">0</property>
   </filter>
  </entry>
  <blank length="00:00:18.040"/>
  <entry producer="producer652" in="00:00:00.000" out="00:00:24.360">
   <property name="kdenlive:id">231</property>
   <filter id="filter1305">
    <property name="rotate_center">1</property>
    <property name="mlt_service">qtblend</property>
    <property name="kdenlive_id">qtblend</property>
    <property name="rect">00:00:00.000=0 1080 1920 1080 1.000000;00:00:00.240=0 -43 1920 1080 1.000000;00:00:00.360=0 0 1920 1080 1.000000;00:00:24.000=0 0 1920 1080 1.000000;00:00:24.120=0 46 1920 1080 1.000000;00:00:24.360=0 -1080 1920 1080 1.000000</property>
    <property name="rotation">00:00:00.000=0;00:00:00.240=0;00:00:00.360=0;00:00:24.000=0;00:00:24.120=0;00:00:24.360=0</property>
    <property name="compositing">0</property>
    <property name="distort">0</property>
   </filter>
  </entry>
  <blank length="00:00:25.080"/>
  <entry producer="producer652" in="00:00:00.000" out="00:00:04.600">
   <property name="kdenlive:id">231</property>
   <filter id="filter1306">
    <property name="rotate_center">1</property>
    <property name="mlt_service">qtblend</property>
    <property name="kdenlive_id">qtblend</property>
    <property name="rect">00:00:00.000=0 1080 1920 1080 1.000000;00:00:00.240=0 -48 1920 1080 1.000000;00:00:00.360=0 0 1920 1080 1.000000;00:00:04.200~=0 0 1920 1080 1.000000;00:00:04.600~=-528 -297 2976 1674 1.000000</property>
    <property name="rotation">00:00:00.000=0;00:00:00.240=0;00:00:00.360=0;00:00:04.200~=0;00:00:04.600~=0</property>
    <property name="compositing">0</property>
    <property name="distort">0</property>
   </filter>
   <filter id="filter1307" in="00:00:04.160" out="00:00:04.600">
    <property name="start">1</property>
    <property name="level">1</property>
    <property name="mlt_service">brightness</property>
    <property name="kdenlive_id">fade_to_black</property>
    <property name="alpha">00:00:00.000=1;00:00:00.440=0</property>
   </filter>
  </entry>
  <entry producer="producer299" in="00:00:00.000" out="00:01:19.800">
   <property name="kdenlive:id">346</property>
   <filter id="filter1308">
    <property name="rotate_center">1</property>
    <property name="mlt_service">qtblend</property>
    <property name="kdenlive_id">qtblend</property>
    <property name="rect">00:00:00.000=48 27 1824 1026 1.000000;00:00:00.360=0 0 1920 1080 1.000000</property>
    <property name="rotation">00:00:00.000=0;00:00:00.360=0</property>
    <property name="compositing">0</property>
    <property name="distort">0</property>
    <property name="kdenlive:collapsed">0</property>
   </filter>
   <filter id="filter1309" out="00:00:00.240">
    <property name="start">1</property>
    <property name="level">1</property>
    <property name="mlt_service">brightness</property>
    <property name="kdenlive_id">fade_from_black</property>
    <property name="alpha">00:00:00.000=0;00:00:00.240=1</property>
    <property name="kdenlive:collapsed">0</property>
   </filter>
   <filter id="filter1310" in="00:01:18.880" out="00:01:19.800">
    <property name="start">1</property>
    <property name="level">1</property>
    <property name="mlt_service">brightness</property>
    <property name="kdenlive_id">fade_to_black</property>
    <property name="alpha">00:00:00.000=1;00:00:00.920=0</property>
    <property name="kdenlive:collapsed">0</property>
   </filter>
  </entry>
  <blank length="00:00:19.120"/>
  <entry producer="producer237" in="00:00:00.000" out="00:00:04.880">
   <property name="kdenlive:id">262</property>
   <filter id="filter1311">
    <property name="rotate_center">1</property>
    <property name="mlt_service">qtblend</property>
    <property name="kdenlive_id">qtblend</property>
    <property name="rect">00:00:00.000=540 162 1344 756 1.000000</property>
    <property name="rotation">00:00:00.000=0</property>
    <property name="compositing">0</property>
    <property name="distort">0</property>
    <property name="kdenlive:collapsed">1</property>
   </filter>
   <filter id="filter1312">
    <property name="rotate_center">1</property>
    <property name="mlt_service">qtblend</property>
    <property name="kdenlive_id">qtblend</property>
    <property name="rect">00:00:00.000=0 1080 1920 1080 1.000000;00:00:00.240=0 -60 1920 1080 1.000000;00:00:00.360=0 0 1920 1080 1.000000</property>
    <property name="rotation">00:00:00.000=0;00:00:00.240=0;00:00:00.360=0</property>
    <property name="compositing">0</property>
    <property name="distort">0</property>
    <property name="kdenlive:collapsed">0</property>
   </filter>
  </entry>
  <entry producer="producer237" in="00:00:00.000" out="00:00:02.520">
   <property name="kdenlive:id">262</property>
   <filter id="filter1313">
    <property name="rotate_center">1</property>
    <property name="mlt_service">qtblend</property>
    <property name="kdenlive_id">qtblend</property>
    <property name="rect">00:00:00.000=540 162 1344 756 1.000000</property>
    <property name="rotation">00:00:00.000=0</property>
    <property name="compositing">0</property>
    <property name="distort">0</property>
    <property name="kdenlive:collapsed">1</property>
   </filter>
   <filter id="filter1314">
    <property name="rotate_center">1</property>
    <property name="mlt_service">qtblend</property>
    <property name="kdenlive_id">qtblend</property>
    <property name="rect">00:00:00.000=0 0 1920 1080 1.000000;00:00:02.160=0 0 1920 1080 1.000000;00:00:02.280=0 95 1920 1080 1.000000;00:00:02.520=0 -1074 1920 1080 1.000000</property>
    <property name="rotation">00:00:00.000=0;00:00:02.160=0;00:00:02.280=0;00:00:02.520=0</property>
    <property name="compositing">0</property>
    <property name="distort">0</property>
    <property name="kdenlive:collapsed">0</property>
   </filter>
  </entry>
  <blank length="00:00:09.880"/>
  <entry producer="producer390" in="00:00:00.000" out="00:00:05.280">
   <property name="kdenlive:id">248</property>
   <filter id="filter1315">
    <property name="rotate_center">1</property>
    <property name="mlt_service">qtblend</property>
    <property name="kdenlive_id">qtblend</property>
    <property name="rect">00:00:00.000=783 207 19 10 1.000000;00:00:00.240=553 77 480 270 1.000000;00:00:00.360=601 104 384 216 1.000000;00:00:00.720=1323 98 384 216 1.000000;00:00:01.440=1323 98 384 216 1.000000;00:00:01.800=1042 134 384 216 1.000000;00:00:03.720=1042 134 384 216 1.000000;00:00:04.080=843 894 288 162 1.000000;00:00:04.920=1053 894 288 162 1.000000;00:00:05.040=1021 867 384 216 1.000000;00:00:05.280=1255 970 19 10 1.000000</property>
    <property name="rotation">00:00:00.000=-75;00:00:00.240=-75;00:00:00.360=-75;00:00:00.720=-102;00:00:01.440=-102;00:00:01.800=-72;00:00:03.720=-72;00:00:04.080=77;00:00:04.920=77;00:00:05.040=77;00:00:05.280=77</property>
    <property name="compositing">0</property>
    <property name="distort">0</property>
    <property name="kdenlive:collapsed">0</property>
   </filter>
  </entry>
  <blank length="00:00:09.960"/>
  <entry producer="producer652" in="00:00:00.000" out="00:00:05.480">
   <property name="kdenlive:id">231</property>
   <filter id="filter1316">
    <property name="rotate_center">1</property>
    <property name="mlt_service">qtblend</property>
    <property name="kdenlive_id">qtblend</property>
    <property name="rect">00:00:00.000=0 1080 1920 1080 1.000000;00:00:00.240=0 -63 1920 1080 1.000000;00:00:00.360=0 0 1920 1080 1.000000;00:00:05.120=0 0 1920 1080 1.000000;00:00:05.240=0 88 1920 1080 1.000000;00:00:05.480=0 -1080 1920 1080 1.000000</property>
    <property name="rotation">00:00:00.000=0;00:00:00.240=0;00:00:00.360=0;00:00:05.120=0;00:00:05.240=0;00:00:05.480=0</property>
    <property name="compositing">0</property>
    <property name="distort">0</property>
   </filter>
  </entry>
  <blank length="00:00:04.960"/>
  <entry producer="producer652" in="00:00:00.000" out="00:00:08.480">
   <property name="kdenlive:id">231</property>
   <filter id="filter1317">
    <property name="rotate_center">1</property>
    <property name="mlt_service">qtblend</property>
    <property name="kdenlive_id">qtblend</property>
    <property name="rect">00:00:00.000=0 1080 1920 1080 1.000000;00:00:00.240=0 -52 1920 1080 1.000000;00:00:00.360=0 0 1920 1080 1.000000;00:00:08.120=0 0 1920 1080 1.000000;00:00:08.240=0 71 1920 1080 1.000000;00:00:08.480=0 -1080 1920 1080 1.000000</property>
    <property name="rotation">00:00:00.000=0;00:00:00.240=0;00:00:00.360=0;00:00:08.120=0;00:00:08.240=0;00:00:08.480=0</property>
    <property name="compositing">0</property>
    <property name="distort">0</property>
   </filter>
  </entry>
  <blank length="00:00:28.760"/>
  <entry producer="producer652" in="00:00:00.000" out="00:00:06.360">
   <property name="kdenlive:id">231</property>
   <filter id="filter1318">
    <property name="rotate_center">1</property>
    <property name="mlt_service">qtblend</property>
    <property name="kdenlive_id">qtblend</property>
    <property name="rect">00:00:00.000=0 1080 1920 1080 1.000000;00:00:00.240=0 -53 1920 1080 1.000000;00:00:00.360=0 0 1920 1080 1.000000;00:00:06.000=0 0 1920 1080 1.000000;00:00:06.120=0 51 1920 1080 1.000000;00:00:06.360=0 -1080 1920 1080 1.000000</property>
    <property name="rotation">00:00:00.000=0;00:00:00.240=0;00:00:00.360=0;00:00:06.000=0;00:00:06.120=0;00:00:06.360=0</property>
    <property name="compositing">0</property>
    <property name="distort">0</property>
   </filter>
  </entry>
  <blank length="00:00:12.840"/>
  <entry producer="producer652" in="00:00:00.000" out="00:00:11.880">
   <property name="kdenlive:id">231</property>
   <filter id="filter1319">
    <property name="rotate_center">1</property>
    <property name="mlt_service">qtblend</property>
    <property name="kdenlive_id">qtblend</property>
    <property name="rect">00:00:00.000=0 1080 1920 1080 1.000000;00:00:00.240=0 -40 1920 1080 1.000000;00:00:00.360=0 0 1920 1080 1.000000;00:00:11.520=0 0 1920 1080 1.000000;00:00:11.640=0 61 1920 1080 1.000000;00:00:11.880=0 -1080 1920 1080 1.000000</property>
    <property name="rotation">00:00:00.000=0;00:00:00.240=0;00:00:00.360=0;00:00:11.520=0;00:00:11.640=0;00:00:11.880=0</property>
    <property name="compositing">0</property>
    <property name="distort">0</property>
   </filter>
  </entry>
  <blank length="00:00:19.640"/>
  <entry producer="chain404" in="00:00:04.400" out="00:00:09.040">
   <property name="kdenlive:id">422</property>
   <property name="kdenlive:activeeffect">1</property>
   <filter id="filter1320">
    <property name="rotate_center">1</property>
    <property name="mlt_service">qtblend</property>
    <property name="kdenlive_id">qtblend</property>
    <property name="rect">00:00:04.400=-3 -557 3919 2204 1.000000</property>
    <property name="rotation">00:00:04.400=0</property>
    <property name="compositing">0</property>
    <property name="distort">0</property>
    <property name="kdenlive:collapsed">1</property>
   </filter>
   <filter id="filter1321">
    <property name="rotate_center">1</property>
    <property name="mlt_service">qtblend</property>
    <property name="kdenlive_id">qtblend</property>
    <property name="rect">00:00:04.400=321 180 1278 719 1.000000;00:00:09.040=321 180 1278 719 1.000000</property>
    <property name="rotation">00:00:04.400=0;00:00:09.040=0</property>
    <property name="compositing">0</property>
    <property name="distort">0</property>
    <property name="kdenlive:collapsed">1</property>
   </filter>
   <filter id="filter1322">
    <property name="rotate_center">1</property>
    <property name="mlt_service">qtblend</property>
    <property name="kdenlive_id">qtblend</property>
    <property name="rect">00:00:04.400=0 1080 1920 1080 1.000000;00:00:04.640=0 -62 1920 1080 1.000000;00:00:04.760=0 0 1920 1080 1.000000</property>
    <property name="rotation">00:00:04.400=0;00:00:04.640=0;00:00:04.760=0</property>
    <property name="compositing">0</property>
    <property name="distort">0</property>
    <property name="kdenlive:collapsed">1</property>
   </filter>
   <filter id="filter1323">
    <property name="hradius">00:00:04.400=0;00:00:09.040=0</property>
    <property name="vradius">00:00:04.400=0;00:00:09.040=0</property>
    <property name="mlt_service">box_blur</property>
    <property name="kdenlive_id">box_blur</property>
    <property name="kdenlive:collapsed">0</property>
   </filter>
   <filter id="filter1324">
    <property name="start">1</property>
    <property name="level">00:00:04.400=1;00:00:09.040=1</property>
    <property name="mlt_service">brightness</property>
    <property name="kdenlive_id">brightness</property>
    <property name="kdenlive:collapsed">0</property>
   </filter>
  </entry>
  <blank length="00:00:00.200"/>
  <entry producer="producer355" in="00:00:00.000" out="00:00:39.760">
   <property name="kdenlive:id">428</property>
   <filter id="filter1325">
    <property name="rotate_center">1</property>
    <property name="mlt_service">qtblend</property>
    <property name="kdenlive_id">qtblend</property>
    <property name="rect">00:00:00.000=0 86 1920 1080 1.000000;00:00:00.240=0 -34 1920 1080 1.000000;00:00:00.360=0 0 1920 1080 1.000000</property>
    <property name="rotation">00:00:00.000=0;00:00:00.240=0;00:00:00.360=0</property>
    <property name="compositing">0</property>
    <property name="distort">0</property>
    <property name="kdenlive:collapsed">0</property>
   </filter>
   <filter id="filter1326" out="00:00:00.240">
    <property name="start">1</property>
    <property name="level">1</property>
    <property name="mlt_service">brightness</property>
    <property name="kdenlive_id">fade_from_black</property>
    <property name="alpha">00:00:00.000=0;00:00:00.240=1</property>
    <property name="kdenlive:collapsed">1</property>
   </filter>
   <filter id="filter1327" in="00:00:38.840" out="00:00:39.760">
    <property name="start">1</property>
    <property name="level">1</property>
    <property name="mlt_service">brightness</property>
    <property name="kdenlive_id">fade_to_black</property>
    <property name="alpha">00:00:00.000=1;00:00:00.920=0</property>
    <property name="kdenlive:collapsed">1</property>
   </filter>
  </entry>
  <blank length="00:00:03.440"/>
  <entry producer="chain405" in="00:03:06.160" out="00:03:12.560">
   <property name="kdenlive:id">433</property>
   <property name="kdenlive:activeeffect">1</property>
   <filter id="filter1328">
    <property name="rotate_center">1</property>
    <property name="mlt_service">qtblend</property>
    <property name="kdenlive_id">qtblend</property>
    <property name="rect">00:03:06.160=321 180 1278 719 1.000000</property>
    <property name="rotation">00:03:06.160=0</property>
    <property name="compositing">0</property>
    <property name="distort">0</property>
    <property name="kdenlive:collapsed">1</property>
   </filter>
   <filter id="filter1329">
    <property name="rotate_center">1</property>
    <property name="mlt_service">qtblend</property>
    <property name="kdenlive_id">qtblend</property>
    <property name="rect">00:03:06.160=0 1080 1920 1080 1.000000;00:03:06.400=0 -67 1920 1080 1.000000;00:03:06.520=0 0 1920 1080 1.000000;00:03:12.200=0 0 1920 1080 1.000000;00:03:12.320=0 62 1920 1080 1.000000;00:03:12.560=0 -1080 1920 1080 1.000000</property>
    <property name="rotation">00:03:06.160=0;00:03:06.400=0;00:03:06.520=0;00:03:12.200=0;00:03:12.320=0;00:03:12.560=0</property>
    <property name="compositing">0</property>
    <property name="distort">0</property>
    <property name="kdenlive:collapsed">0</property>
   </filter>
  </entry>
  <blank length="00:00:04.520"/>
  <entry producer="producer652" in="00:00:00.000" out="00:00:05.120">
   <property name="kdenlive:id">231</property>
   <filter id="filter1330">
    <property name="rotate_center">1</property>
    <property name="mlt_service">qtblend</property>
    <property name="kdenlive_id">qtblend</property>
    <property name="rect">00:00:00.000=0 1080 1920 1080 1.000000;00:00:00.240=0 -67 1920 1080 1.000000;00:00:00.360=0 0 1920 1080 1.000000;00:00:04.760=0 0 1920 1080 1.000000;00:00:04.880=0 62 1920 1080 1.000000;00:00:05.120=0 -1080 1920 1080 1.000000</property>
    <property name="rotation">00:00:00.000=0;00:00:00.240=0;00:00:00.360=0;00:00:04.760=0;00:00:04.880=0;00:00:05.120=0</property>
    <property name="compositing">0</property>
    <property name="distort">0</property>
    <property name="kdenlive:collapsed">0</property>
   </filter>
  </entry>
  <blank length="00:00:03.600"/>
  <entry producer="producer652" in="00:00:00.000" out="00:00:05.200">
   <property name="kdenlive:id">231</property>
   <filter id="filter1331">
    <property name="rotate_center">1</property>
    <property name="mlt_service">qtblend</property>
    <property name="kdenlive_id">qtblend</property>
    <property name="rect">00:00:00.000=0 1080 1920 1080 1.000000;00:00:00.240=0 -51 1920 1080 1.000000;00:00:00.360=0 0 1920 1080 1.000000;00:00:04.840=0 0 1920 1080 1.000000;00:00:04.960=0 51 1920 1080 1.000000;00:00:05.200=0 -1080 1920 1080 1.000000</property>
    <property name="rotation">00:00:00.000=0;00:00:00.240=0;00:00:00.360=0;00:00:04.840=0;00:00:04.960=0;00:00:05.200=0</property>
    <property name="compositing">0</property>
    <property name="distort">0</property>
    <property name="kdenlive:collapsed">1</property>
   </filter>
  </entry>
  <blank length="00:00:01.000"/>
  <entry producer="producer652" in="00:00:00.000" out="00:00:04.400">
   <property name="kdenlive:id">231</property>
   <filter id="filter1332">
    <property name="rotate_center">1</property>
    <property name="mlt_service">qtblend</property>
    <property name="kdenlive_id">qtblend</property>
    <property name="rect">00:00:00.000=0 1080 1920 1080 1.000000;00:00:00.240=0 -51 1920 1080 1.000000;00:00:00.360=0 0 1920 1080 1.000000;00:00:04.040=0 0 1920 1080 1.000000;00:00:04.160=0 51 1920 1080 1.000000;00:00:04.400=0 -1080 1920 1080 1.000000</property>
    <property name="rotation">00:00:00.000=0;00:00:00.240=0;00:00:00.360=0;00:00:04.040=0;00:00:04.160=0;00:00:04.400=0</property>
    <property name="compositing">0</property>
    <property name="distort">0</property>
   </filter>
  </entry>
  <blank length="00:00:02.200"/>
  <entry producer="producer652" in="00:00:00.000" out="00:00:04.360">
   <property name="kdenlive:id">231</property>
   <filter id="filter1333">
    <property name="rotate_center">1</property>
    <property name="mlt_service">qtblend</property>
    <property name="kdenlive_id">qtblend</property>
    <property name="rect">00:00:00.000=0 1080 1920 1080 1.000000;00:00:00.240=0 -41 1920 1080 1.000000;00:00:00.360=0 0 1920 1080 1.000000</property>
    <property name="rotation">00:00:00.000=0;00:00:00.240=0;00:00:00.360=0</property>
    <property name="compositing">0</property>
    <property name="distort">0</property>
   </filter>
   <filter id="filter1334">
    <property name="rotate_center">1</property>
    <property name="mlt_service">qtblend</property>
    <property name="kdenlive_id">qtblend</property>
    <property name="rect">00:00:00.000=0 0 1920 1080 1.000000;00:00:04.120=0 0 1920 1080 1.000000;00:00:04.360=-473 -266 2872 1616 1.000000</property>
    <property name="rotation">00:00:00.000=0;00:00:04.120=0;00:00:04.360=0</property>
    <property name="compositing">0</property>
    <property name="distort">0</property>
   </filter>
   <filter id="filter1335" in="00:00:03.920" out="00:00:04.360">
    <property name="start">1</property>
    <property name="level">1</property>
    <property name="mlt_service">brightness</property>
    <property name="kdenlive_id">fade_to_black</property>
    <property name="alpha">00:00:00.000=1;00:00:00.440=0</property>
   </filter>
  </entry>
  <blank length="00:00:00.160"/>
  <entry producer="producer337" in="00:00:00.000" out="00:00:54.480">
   <property name="kdenlive:id">402</property>
   <filter id="filter1336">
    <property name="rotate_center">1</property>
    <property name="mlt_service">qtblend</property>
    <property name="kdenlive_id">qtblend</property>
    <property name="rect">00:00:00.000=0 86 1920 1080 1.000000;00:00:00.240=0 -34 1920 1080 1.000000;00:00:00.360=0 0 1920 1080 1.000000</property>
    <property name="rotation">00:00:00.000=0;00:00:00.240=0;00:00:00.360=0</property>
    <property name="compositing">0</property>
    <property name="distort">0</property>
   </filter>
   <filter id="filter1337" out="00:00:00.240">
    <property name="start">1</property>
    <property name="level">1</property>
    <property name="mlt_service">brightness</property>
    <property name="kdenlive_id">fade_from_black</property>
    <property name="alpha">00:00:00.000=0;00:00:00.240=1</property>
    <property name="kdenlive:collapsed">1</property>
   </filter>
   <filter id="filter1338" in="00:00:53.560" out="00:00:54.480">
    <property name="start">1</property>
    <property name="level">1</property>
    <property name="mlt_service">brightness</property>
    <property name="kdenlive_id">fade_to_black</property>
    <property name="alpha">00:00:00.000=1;00:00:00.920=0</property>
    <property name="kdenlive:collapsed">1</property>
   </filter>
  </entry>
  <blank length="00:00:10.600"/>
  <entry producer="producer390" in="00:00:00.000" out="00:00:01.120">
   <property name="kdenlive:id">248</property>
   <filter id="filter1339">
    <property name="rotate_center">1</property>
    <property name="mlt_service">qtblend</property>
    <property name="kdenlive_id">qtblend</property>
    <property name="rect">00:00:00.000=790 170 19 10 1.000000;00:00:00.240=613 71 373 209 1.000000;00:00:00.360=661 97 277 156 1.000000;00:00:00.760=1015 95 277 156 1.000000;00:00:00.880=967 69 373 209 1.000000;00:00:01.120=1144 168 19 10 1.000000</property>
    <property name="rotation">00:00:00.000=-68;00:00:00.240=-68;00:00:00.360=-68;00:00:00.760=-106;00:00:00.880=-106;00:00:01.120=-106</property>
    <property name="compositing">0</property>
    <property name="distort">0</property>
   </filter>
  </entry>
  <blank length="00:00:09.760"/>
  <entry producer="producer652" in="00:00:00.000" out="00:00:02.840">
   <property name="kdenlive:id">231</property>
   <filter id="filter1340">
    <property name="rotate_center">1</property>
    <property name="mlt_service">qtblend</property>
    <property name="kdenlive_id">qtblend</property>
    <property name="rect">00:00:00.000=0 1080 1920 1080 1.000000;00:00:00.240=0 -42 1920 1080 1.000000;00:00:00.360=0 0 1920 1080 1.000000;00:00:02.480=0 0 1920 1080 1.000000;00:00:02.600=-48 -27 2016 1134 1.000000;00:00:02.840=950 535 19 10 1.000000</property>
    <property name="rotation">00:00:00.000=0;00:00:00.240=0;00:00:00.360=0;00:00:02.480=0;00:00:02.600=0;00:00:02.840=0</property>
    <property name="compositing">0</property>
    <property name="distort">0</property>
   </filter>
  </entry>
  <blank length="00:00:12.840"/>
  <entry producer="producer652" in="00:00:00.000" out="00:00:12.800">
   <property name="kdenlive:id">231</property>
   <filter id="filter1341">
    <property name="rotate_center">1</property>
    <property name="mlt_service">qtblend</property>
    <property name="kdenlive_id">qtblend</property>
    <property name="rect">00:00:00.000=0 1080 1920 1080 1.000000;00:00:00.240=0 -41 1920 1080 1.000000;00:00:00.360=0 0 1920 1080 1.000000;00:00:12.440=0 0 1920 1080 1.000000;00:00:12.560=0 35 1920 1080 1.000000;00:00:12.800=0 -1080 1920 1080 1.000000</property>
    <property name="rotation">00:00:00.000=0;00:00:00.240=0;00:00:00.360=0;00:00:12.440=0;00:00:12.560=0;00:00:12.800=0</property>
    <property name="compositing">0</property>
    <property name="distort">0</property>
   </filter>
  </entry>
  <blank length="00:00:13.800"/>
  <entry producer="producer361" in="00:00:00.000" out="00:00:10.160">
   <property name="kdenlive:id">459</property>
   <property name="kdenlive:activeeffect">1</property>
   <filter id="filter1342" out="00:00:00.840">
    <property name="start">1</property>
    <property name="level">1</property>
    <property name="mlt_service">brightness</property>
    <property name="kdenlive_id">fade_from_black</property>
    <property name="alpha">00:00:00.000=0;00:00:00.840=1</property>
    <property name="kdenlive:collapsed">1</property>
   </filter>
   <filter id="filter1343">
    <property name="rotate_center">1</property>
    <property name="mlt_service">qtblend</property>
    <property name="kdenlive_id">qtblend</property>
    <property name="rect">00:00:00.000=0 0 1920 1080 1.000000;00:00:10.160=0 0 1920 1080 1.000000</property>
    <property name="rotation">00:00:00.000=0;00:00:10.160=0</property>
    <property name="compositing">0</property>
    <property name="distort">0</property>
    <property name="kdenlive:collapsed">0</property>
   </filter>
  </entry>
  <entry producer="producer361" in="00:00:00.000" out="00:00:00.840">
   <property name="kdenlive:id">459</property>
   <filter id="filter1344">
    <property name="rotate_center">1</property>
    <property name="mlt_service">qtblend</property>
    <property name="kdenlive_id">qtblend</property>
    <property name="rect">00:00:00.000=0 0 1920 1080 1.000000;00:00:00.480=0 0 1920 1080 1.000000;00:00:00.600=-48 -27 2016 1134 1.000000;00:00:00.840=903 508 113 64 1.000000</property>
    <property name="rotation">00:00:00.000=0;00:00:00.480=0;00:00:00.600=0;00:00:00.840=0</property>
    <property name="compositing">0</property>
    <property name="distort">0</property>
    <property name="kdenlive:collapsed">0</property>
   </filter>
  </entry>
  <blank length="00:00:46.520"/>
  <entry producer="producer390" in="00:00:00.000" out="00:00:07.800">
   <property name="kdenlive:id">248</property>
   <filter id="filter1345">
    <property name="rotate_center">1</property>
    <property name="mlt_service">qtblend</property>
    <property name="kdenlive_id">qtblend</property>
    <property name="rect">00:00:00.000=572 237 19 10 1.000000;00:00:00.240=342 107 480 270 1.000000;00:00:00.360=390 134 384 216 1.000000;00:00:01.200=390 134 384 216 1.000000;00:00:01.320=390 170 384 216 1.000000;00:00:01.440=390 134 384 216 1.000000;00:00:07.440=390 134 384 216 1.000000;00:00:07.560=342 107 480 270 1.000000;00:00:07.800=572 237 19 10 1.000000</property>
    <property name="rotation">00:00:00.000=-90;00:00:00.240=-90;00:00:00.360=-90;00:00:01.200=-90;00:00:01.320=-90;00:00:01.440=-90;00:00:07.440=-90;00:00:07.560=-90;00:00:07.800=-90</property>
    <property name="compositing">0</property>
    <property name="distort">0</property>
    <property name="kdenlive:collapsed">0</property>
   </filter>
  </entry>
  <blank length="00:00:16.160"/>
  <entry producer="producer652" in="00:00:00.000" out="00:00:05.400">
   <property name="kdenlive:id">231</property>
   <filter id="filter1346">
    <property name="rotate_center">1</property>
    <property name="mlt_service">qtblend</property>
    <property name="kdenlive_id">qtblend</property>
    <property name="rect">00:00:00.000=0 1080 1920 1080 1.000000;00:00:00.240=0 -43 1920 1080 1.000000;00:00:00.360=0 0 1920 1080 1.000000</property>
    <property name="rotation">00:00:00.000=0;00:00:00.240=0;00:00:00.360=0</property>
    <property name="compositing">0</property>
    <property name="distort">0</property>
   </filter>
  </entry>
  <entry producer="producer299" in="00:00:00.000" out="00:01:14.960">
   <property name="kdenlive:id">346</property>
   <filter id="filter1347">
    <property name="rotate_center">1</property>
    <property name="mlt_service">qtblend</property>
    <property name="kdenlive_id">qtblend</property>
    <property name="rect">00:00:00.000=48 27 1824 1026 1.000000;00:00:00.360=0 0 1920 1080 1.000000</property>
    <property name="rotation">00:00:00.000=0;00:00:00.360=0</property>
    <property name="compositing">0</property>
    <property name="distort">0</property>
    <property name="kdenlive:collapsed">1</property>
   </filter>
   <filter id="filter1348" out="00:00:00.240">
    <property name="start">1</property>
    <property name="level">1</property>
    <property name="mlt_service">brightness</property>
    <property name="kdenlive_id">fade_from_black</property>
    <property name="alpha">00:00:00.000=0;00:00:00.240=1</property>
    <property name="kdenlive:collapsed">0</property>
   </filter>
   <filter id="filter1349" in="00:01:14.040" out="00:01:14.960">
    <property name="start">1</property>
    <property name="level">1</property>
    <property name="mlt_service">brightness</property>
    <property name="kdenlive_id">fade_to_black</property>
    <property name="alpha">00:00:00.000=1;00:00:00.920=0</property>
    <property name="kdenlive:collapsed">0</property>
   </filter>
  </entry>
  <blank length="00:00:26.040"/>
  <entry producer="chain406" in="00:02:57.280" out="00:03:03.640">
   <property name="kdenlive:id">478</property>
   <filter id="filter1350">
    <property name="rotate_center">1</property>
    <property name="mlt_service">qtblend</property>
    <property name="kdenlive_id">qtblend</property>
    <property name="rect">00:02:57.280=321 180 1278 719 1.000000</property>
    <property name="rotation">00:02:57.280=0</property>
    <property name="compositing">0</property>
    <property name="distort">0</property>
    <property name="kdenlive:collapsed">1</property>
   </filter>
   <filter id="filter1351">
    <property name="rotate_center">1</property>
    <property name="mlt_service">qtblend</property>
    <property name="kdenlive_id">qtblend</property>
    <property name="rect">00:02:57.280=0 1080 1920 1080 1.000000;00:02:57.520=0 -43 1920 1080 1.000000;00:02:57.640=0 0 1920 1080 1.000000</property>
    <property name="rotation">00:02:57.280=0;00:02:57.520=0;00:02:57.640=0</property>
    <property name="compositing">0</property>
    <property name="distort">0</property>
   </filter>
  </entry>
  <entry producer="chain406" in="00:03:04.880" out="00:03:14.480">
   <property name="kdenlive:id">478</property>
   <filter id="filter1352">
    <property name="rotate_center">1</property>
    <property name="mlt_service">qtblend</property>
    <property name="kdenlive_id">qtblend</property>
    <property name="rect">00:03:04.880=321 180 1278 719 1.000000</property>
    <property name="rotation">00:03:04.880=0</property>
    <property name="compositing">0</property>
    <property name="distort">0</property>
    <property name="kdenlive:collapsed">1</property>
   </filter>
   <filter id="filter1353">
    <property name="rotate_center">1</property>
    <property name="mlt_service">qtblend</property>
    <property name="kdenlive_id">qtblend</property>
    <property name="rect">00:03:04.880=0 0 1920 1080 1.000000;00:03:14.120=0 0 1920 1080 1.000000;00:03:14.240=0 60 1920 1080 1.000000;00:03:14.480=0 -1080 1920 1080 1.000000</property>
    <property name="rotation">00:03:04.880=0;00:03:14.120=0;00:03:14.240=0;00:03:14.480=0</property>
    <property name="compositing">0</property>
    <property name="distort">0</property>
    <property name="kdenlive:collapsed">0</property>
   </filter>
  </entry>
  <blank length="00:00:04.720"/>
  <entry producer="chain412" in="00:02:20.280" out="00:02:31.120">
   <property name="kdenlive:id">488</property>
   <property name="kdenlive:activeeffect">1</property>
   <filter id="filter1354">
    <property name="rotate_center">1</property>
    <property name="mlt_service">qtblend</property>
    <property name="kdenlive_id">qtblend</property>
    <property name="rect">00:02:20.280=321 180 1278 719 1.000000</property>
    <property name="rotation">00:02:20.280=0</property>
    <property name="compositing">0</property>
    <property name="distort">0</property>
    <property name="kdenlive:collapsed">1</property>
   </filter>
   <filter id="filter1355">
    <property name="rotate_center">1</property>
    <property name="mlt_service">qtblend</property>
    <property name="kdenlive_id">qtblend</property>
    <property name="rect">00:02:20.280=0 1080 1920 1080 1.000000;00:02:20.520=0 -54 1920 1080 1.000000;00:02:20.640=0 0 1920 1080 1.000000;00:02:30.760=0 0 1920 1080 1.000000;00:02:30.880=0 39 1920 1080 1.000000;00:02:31.120=0 -1080 1920 1080 1.000000</property>
    <property name="rotation">00:02:20.280=0;00:02:20.520=0;00:02:20.640=0;00:02:30.760=0;00:02:30.880=0;00:02:31.120=0</property>
    <property name="compositing">0</property>
    <property name="distort">0</property>
    <property name="kdenlive:collapsed">0</property>
   </filter>
  </entry>
  <blank length="00:00:05.280"/>
  <entry producer="chain413" in="00:04:16.360" out="00:04:25.840">
   <property name="kdenlive:id">387</property>
   <property name="kdenlive:activeeffect">1</property>
   <filter id="filter1356">
    <property name="rotate_center">1</property>
    <property name="mlt_service">qtblend</property>
    <property name="kdenlive_id">qtblend</property>
    <property name="rect">00:04:16.360=321 180 1278 719 1.000000</property>
    <property name="rotation">00:04:16.360=0</property>
    <property name="compositing">0</property>
    <property name="distort">0</property>
    <property name="kdenlive:collapsed">1</property>
   </filter>
   <filter id="filter1357">
    <property name="rotate_center">1</property>
    <property name="mlt_service">qtblend</property>
    <property name="kdenlive_id">qtblend</property>
    <property name="rect">00:04:16.360=0 1080 1920 1080 1.000000;00:04:16.600=0 -41 1920 1080 1.000000;00:04:16.720=0 0 1920 1080 1.000000;00:04:25.840=0 0 1920 1080 1.000000</property>
    <property name="rotation">00:04:16.360=0;00:04:16.600=0;00:04:16.720=0;00:04:25.840=0</property>
    <property name="compositing">0</property>
    <property name="distort">0</property>
    <property name="kdenlive:collapsed">0</property>
   </filter>
  </entry>
  <entry producer="producer652" in="00:00:00.000" out="00:00:00.360">
   <property name="kdenlive:id">231</property>
   <filter id="filter1358">
    <property name="rotate_center">1</property>
    <property name="mlt_service">qtblend</property>
    <property name="kdenlive_id">qtblend</property>
    <property name="rect">00:00:00.000=0 0 1920 1080 1.000000;00:00:00.120=0 44 1920 1080 1.000000;00:00:00.360=0 -1080 1920 1080 1.000000</property>
    <property name="rotation">00:00:00.000=0;00:00:00.120=0;00:00:00.360=0</property>
    <property name="compositing">0</property>
    <property name="distort">0</property>
    <property name="kdenlive:collapsed">0</property>
   </filter>
  </entry>
  <blank length="00:00:14.200"/>
  <entry producer="producer652" in="00:00:00.000" out="00:00:04.920">
   <property name="kdenlive:id">231</property>
   <filter id="filter1359">
    <property name="rotate_center">1</property>
    <property name="mlt_service">qtblend</property>
    <property name="kdenlive_id">qtblend</property>
    <property name="rect">00:00:00.000=0 1080 1920 1080 1.000000;00:00:00.240=0 -41 1920 1080 1.000000;00:00:00.360=0 0 1920 1080 1.000000;00:00:04.560=0 0 1920 1080 1.000000;00:00:04.680=0 47 1920 1080 1.000000;00:00:04.920=0 -1080 1920 1080 1.000000</property>
    <property name="rotation">00:00:00.000=0;00:00:00.240=0;00:00:00.360=0;00:00:04.560=0;00:00:04.680=0;00:00:04.920=0</property>
    <property name="compositing">0</property>
    <property name="distort">0</property>
    <property name="kdenlive:collapsed">0</property>
   </filter>
  </entry>
  <blank length="00:00:08.680"/>
  <entry producer="producer652" in="00:00:00.000" out="00:00:05.240">
   <property name="kdenlive:id">231</property>
   <filter id="filter1360">
    <property name="rotate_center">1</property>
    <property name="mlt_service">qtblend</property>
    <property name="kdenlive_id">qtblend</property>
    <property name="rect">00:00:00.000=0 1080 1920 1080 1.000000;00:00:00.240=0 -43 1920 1080 1.000000;00:00:00.360=0 0 1920 1080 1.000000;00:00:04.880=0 0 1920 1080 1.000000;00:00:05.000=0 37 1920 1080 1.000000;00:00:05.240=0 -1080 1920 1080 1.000000</property>
    <property name="rotation">00:00:00.000=0;00:00:00.240=0;00:00:00.360=0;00:00:04.880=0;00:00:05.000=0;00:00:05.240=0</property>
    <property name="compositing">0</property>
    <property name="distort">0</property>
    <property name="kdenlive:collapsed">0</property>
   </filter>
  </entry>
  <blank length="00:00:10.640"/>
  <entry producer="producer237" in="00:00:00.000" out="00:00:00.280">
   <property name="kdenlive:id">262</property>
   <filter id="filter1361">
    <property name="rotate_center">1</property>
    <property name="mlt_service">qtblend</property>
    <property name="kdenlive_id">qtblend</property>
    <property name="rect">00:00:00.000=540 162 1344 756 1.000000</property>
    <property name="rotation">00:00:00.000=0</property>
    <property name="compositing">0</property>
    <property name="distort">0</property>
    <property name="kdenlive:collapsed">1</property>
   </filter>
   <filter id="filter1362">
    <property name="rotate_center">1</property>
    <property name="mlt_service">qtblend</property>
    <property name="kdenlive_id">qtblend</property>
    <property name="rect">00:00:00.000=0 17 1920 1080 1.000000;00:00:00.040=0 -13 1920 1080 1.000000;00:00:00.080=0 10 1920 1080 1.000000;00:00:00.120=0 -8 1920 1080 1.000000;00:00:00.160=0 6 1920 1080 1.000000;00:00:00.200=0 -2 1920 1080 1.000000;00:00:00.240=0 2 1920 1080 1.000000;00:00:00.280=0 0 1920 1080 1.000000</property>
    <property name="rotation">00:00:00.000=0;00:00:00.040=0;00:00:00.080=0;00:00:00.120=0;00:00:00.160=0;00:00:00.200=0;00:00:00.240=0;00:00:00.280=0</property>
    <property name="compositing">0</property>
    <property name="distort">0</property>
    <property name="kdenlive:collapsed">1</property>
   </filter>
   <filter id="filter1363">
    <property name="hradius">00:00:00.000=0;00:00:00.280=0</property>
    <property name="vradius">00:00:00.000=65;00:00:00.280=0</property>
    <property name="mlt_service">box_blur</property>
    <property name="kdenlive_id">box_blur</property>
    <property name="kdenlive:collapsed">0</property>
   </filter>
   <filter id="filter1364" out="00:00:00.160">
    <property name="start">1</property>
    <property name="level">1</property>
    <property name="mlt_service">brightness</property>
    <property name="kdenlive_id">fade_from_black</property>
    <property name="alpha">00:00:00.000=0;00:00:00.160=1</property>
   </filter>
  </entry>
  <blank length="00:00:02.000"/>
  <entry producer="chain414" in="00:00:31.360" out="00:00:35.560">
   <property name="kdenlive:id">421</property>
   <filter id="filter1365">
    <property name="rotate_center">1</property>
    <property name="mlt_service">qtblend</property>
    <property name="kdenlive_id">qtblend</property>
    <property name="rect">00:00:31.360=0 1080 1920 1080 1.000000;00:00:31.600=0 -72 1920 1080 1.000000;00:00:31.720=0 0 1920 1080 1.000000;00:00:35.200=0 0 1920 1080 1.000000;00:00:35.320=0 56 1920 1080 1.000000;00:00:35.560=0 -1080 1920 1080 1.000000</property>
    <property name="rotation">00:00:31.360=0;00:00:31.600=0;00:00:31.720=0;00:00:35.200=0;00:00:35.320=0;00:00:35.560=0</property>
    <property name="compositing">0</property>
    <property name="distort">0</property>
    <property name="kdenlive:collapsed">0</property>
   </filter>
  </entry>
  <blank length="00:00:38.920"/>
  <entry producer="chain406" in="00:02:57.280" out="00:03:01.800">
   <property name="kdenlive:id">478</property>
   <filter id="filter1366">
    <property name="rotate_center">1</property>
    <property name="mlt_service">qtblend</property>
    <property name="kdenlive_id">qtblend</property>
    <property name="rect">00:02:57.280=321 180 1278 719 1.000000</property>
    <property name="rotation">00:02:57.280=0</property>
    <property name="compositing">0</property>
    <property name="distort">0</property>
    <property name="kdenlive:collapsed">1</property>
   </filter>
   <filter id="filter1367">
    <property name="rotate_center">1</property>
    <property name="mlt_service">qtblend</property>
    <property name="kdenlive_id">qtblend</property>
    <property name="rect">00:02:57.280=0 1080 1920 1080 1.000000;00:02:57.520=0 -43 1920 1080 1.000000;00:02:57.640=0 0 1920 1080 1.000000;00:03:01.440=0 0 1920 1080 1.000000;00:03:01.560=0 38 1920 1080 1.000000;00:03:01.800=0 -1080 1920 1080 1.000000</property>
    <property name="rotation">00:02:57.280=0;00:02:57.520=0;00:02:57.640=0;00:03:01.440=0;00:03:01.560=0;00:03:01.800=0</property>
    <property name="compositing">0</property>
    <property name="distort">0</property>
    <property name="kdenlive:collapsed">0</property>
   </filter>
  </entry>
  <blank length="00:00:23.200"/>
  <entry producer="producer652" in="00:00:00.000" out="00:00:16.040">
   <property name="kdenlive:id">231</property>
   <filter id="filter1368">
    <property name="rotate_center">1</property>
    <property name="mlt_service">qtblend</property>
    <property name="kdenlive_id">qtblend</property>
    <property name="rect">00:00:00.000=950 535 19 10 1.000000;00:00:00.240=-48 -27 2016 1134 1.000000;00:00:00.360=0 0 1920 1080 1.000000;00:00:15.680=0 0 1920 1080 1.000000;00:00:15.800=0 36 1920 1080 1.000000;00:00:16.040=0 -1080 1920 1080 1.000000</property>
    <property name="rotation">00:00:00.000=0;00:00:00.240=0;00:00:00.360=0;00:00:15.680=0;00:00:15.800=0;00:00:16.040=0</property>
    <property name="compositing">0</property>
    <property name="distort">0</property>
   </filter>
  </entry>
  <blank length="00:00:09.240"/>
  <entry producer="producer652" in="00:00:00.000" out="00:00:13.400">
   <property name="kdenlive:id">231</property>
   <filter id="filter1369">
    <property name="rotate_center">1</property>
    <property name="mlt_service">qtblend</property>
    <property name="kdenlive_id">qtblend</property>
    <property name="rect">00:00:00.000=0 1080 1920 1080 1.000000;00:00:00.240=0 -45 1920 1080 1.000000;00:00:00.360=0 0 1920 1080 1.000000;00:00:13.040=0 0 1920 1080 1.000000;00:00:13.160=0 59 1920 1080 1.000000;00:00:13.400=0 -1080 1920 1080 1.000000</property>
    <property name="rotation">00:00:00.000=0;00:00:00.240=0;00:00:00.360=0;00:00:13.040=0;00:00:13.160=0;00:00:13.400=0</property>
    <property name="compositing">0</property>
    <property name="distort">0</property>
    <property name="kdenlive:collapsed">0</property>
   </filter>
  </entry>
  <blank length="00:00:13.840"/>
  <entry producer="producer652" in="00:00:00.000" out="00:00:17.080">
   <property name="kdenlive:id">231</property>
   <filter id="filter1370">
    <property name="rotate_center">1</property>
    <property name="mlt_service">qtblend</property>
    <property name="kdenlive_id">qtblend</property>
    <property name="rect">00:00:00.000=0 1080 1920 1080 1.000000;00:00:00.240=0 -45 1920 1080 1.000000;00:00:00.360=0 0 1920 1080 1.000000;00:00:16.720=0 0 1920 1080 1.000000;00:00:16.840=0 51 1920 1080 1.000000;00:00:17.080=0 -1080 1920 1080 1.000000</property>
    <property name="rotation">00:00:00.000=0;00:00:00.240=0;00:00:00.360=0;00:00:16.720=0;00:00:16.840=0;00:00:17.080=0</property>
    <property name="compositing">0</property>
    <property name="distort">0</property>
    <property name="kdenlive:collapsed">0</property>
   </filter>
  </entry>
  <blank length="00:00:13.800"/>
  <entry producer="producer652" in="00:00:00.000" out="00:00:08.040">
   <property name="kdenlive:id">231</property>
   <filter id="filter1371">
    <property name="rotate_center">1</property>
    <property name="mlt_service">qtblend</property>
    <property name="kdenlive_id">qtblend</property>
    <property name="rect">00:00:00.000=0 1080 1920 1080 1.000000;00:00:00.240=0 -45 1920 1080 1.000000;00:00:00.360=0 0 1920 1080 1.000000;00:00:07.680=0 0 1920 1080 1.000000;00:00:07.800=-48 -27 2016 1134 1.000000;00:00:08.040=950 535 19 10 1.000000</property>
    <property name="rotation">00:00:00.000=0;00:00:00.240=0;00:00:00.360=0;00:00:07.680=0;00:00:07.800=0;00:00:08.040=0</property>
    <property name="compositing">0</property>
    <property name="distort">0</property>
    <property name="kdenlive:collapsed">0</property>
   </filter>
  </entry>
  <blank length="00:00:40.360"/>
  <entry producer="producer659" in="00:00:00.000" out="00:00:17.640">
   <property name="kdenlive:id">521</property>
   <property name="kdenlive:activeeffect">1</property>
   <filter id="filter1372" out="00:00:00.600">
    <property name="start">1</property>
    <property name="level">1</property>
    <property name="mlt_service">brightness</property>
    <property name="kdenlive_id">fade_from_black</property>
    <property name="alpha">00:00:00.000=0;00:00:00.600=1</property>
    <property name="kdenlive:collapsed">0</property>
   </filter>
   <filter id="filter1373">
    <property name="rotate_center">1</property>
    <property name="mlt_service">qtblend</property>
    <property name="kdenlive_id">qtblend</property>
    <property name="rect">00:00:00.000=0 0 1920 1080 1.000000;00:00:17.280=0 0 1920 1080 1.000000;00:00:17.400=-48 -27 2016 1134 1.000000;00:00:17.640=950 535 19 10 1.000000</property>
    <property name="rotation">00:00:00.000=0;00:00:17.280=0;00:00:17.400=0;00:00:17.640=0</property>
    <property name="compositing">0</property>
    <property name="distort">0</property>
    <property name="kdenlive:collapsed">0</property>
   </filter>
  </entry>
  <blank length="00:00:09.800"/>
  <entry producer="producer652" in="00:00:00.000" out="00:00:13.600">
   <property name="kdenlive:id">231</property>
   <filter id="filter1374">
    <property name="rotate_center">1</property>
    <property name="mlt_service">qtblend</property>
    <property name="kdenlive_id">qtblend</property>
    <property name="rect">00:00:00.000=0 1080 1920 1080 1.000000;00:00:00.240=0 -44 1920 1080 1.000000;00:00:00.360=0 0 1920 1080 1.000000;00:00:13.240=0 0 1920 1080 1.000000;00:00:13.360=0 62 1920 1080 1.000000;00:00:13.600=0 -1080 1920 1080 1.000000</property>
    <property name="rotation">00:00:00.000=0;00:00:00.240=0;00:00:00.360=0;00:00:13.240=0;00:00:13.360=0;00:00:13.600=0</property>
    <property name="compositing">0</property>
    <property name="distort">0</property>
    <property name="kdenlive:collapsed">0</property>
   </filter>
  </entry>
  <blank length="00:00:20.560"/>
  <entry producer="producer406" in="00:00:00.000" out="00:00:07.800">
   <property name="kdenlive:id">529</property>
   <property name="kdenlive:activeeffect">1</property>
   <filter id="filter1375">
    <property name="rotate_center">1</property>
    <property name="mlt_service">qtblend</property>
    <property name="kdenlive_id">qtblend</property>
    <property name="rect">00:00:00.000=144 81 1632 918 1.000000</property>
    <property name="rotation">00:00:00.000=0</property>
    <property name="compositing">0</property>
    <property name="distort">0</property>
    <property name="kdenlive:collapsed">1</property>
   </filter>
   <filter id="filter1376">
    <property name="mode">alpha</property>
    <property name="alpha_operation">min</property>
    <property name="invert">0</property>
    <property name="feather">0</property>
    <property name="feather_passes">1</property>
    <property name="mlt_service">rotoscoping</property>
    <property name="kdenlive_id">rotoscoping</property>
    <property name="spline">{
    "000": [
        [
            [
                0.003484320557491289,
                0.2671826625386997
            ],
            [
                0.003484320557491289,
                0.11300309597523221
            ],
            [
                0.018118466898954706,
                0.11300309597523221
            ]
        ],
        [
            [
                0.06202090592334496,
                0.11300309597523221
            ],
            [
                0.07665505226480837,
                0.11300309597523221
            ],
            [
                0.07700348432055751,
                0.26656346749226006
            ]
        ],
        [
            [
                0.07804878048780488,
                0.7272445820433436
            ],
            [
                0.078397212543554,
                0.8808049535603716
            ],
            [
                0.06341463414634146,
                0.8814241486068112
            ]
        ],
        [
            [
                0.018466898954703832,
                0.8832817337461301
            ],
            [
                0.003484320557491289,
                0.8839009287925697
            ],
            [
                0.003484320557491289,
                0.7297213622291022
            ]
        ]
    ],
    "012": [
        [
            [
                0.003484320557491289,
                0.2671826625386997
            ],
            [
                0.003484320557491289,
                0.11300309597523221
            ],
            [
                0.018118466898954706,
                0.11300309597523221
            ]
        ],
        [
            [
                0.9226480836236933,
                0.10990712074303406
            ],
            [
                0.9372822299651568,
                0.10990712074303406
            ],
            [
                0.937630662020906,
                0.26346749226006205
            ]
        ],
        [
            [
                0.9386759581881533,
                0.7396284829721363
            ],
            [
                0.9390243902439025,
                0.8931888544891642
            ],
            [
                0.92404181184669,
                0.893808049535604
            ]
        ],
        [
            [
                0.018466898954703832,
                0.8832817337461301
            ],
            [
                0.003484320557491289,
                0.8839009287925697
            ],
            [
                0.003484320557491289,
                0.7297213622291022
            ]
        ]
    ]
}
</property>
    <property name="kdenlive:collapsed">1</property>
   </filter>
  </entry>
  <entry producer="producer406" in="00:00:00.000" out="00:00:00.440">
   <property name="kdenlive:id">529</property>
   <filter id="filter1377">
    <property name="rotate_center">1</property>
    <property name="mlt_service">qtblend</property>
    <property name="kdenlive_id">qtblend</property>
    <property name="rect">00:00:00.000=144 81 1632 918 1.000000</property>
    <property name="rotation">00:00:00.000=0</property>
    <property name="compositing">0</property>
    <property name="distort">0</property>
    <property name="kdenlive:collapsed">1</property>
   </filter>
   <filter id="filter1378">
    <property name="rotate_center">1</property>
    <property name="mlt_service">qtblend</property>
    <property name="kdenlive_id">qtblend</property>
    <property name="rect">00:00:00.000=0 0 1920 1080 1.000000;00:00:00.160=48 27 1824 1026 1.000000;00:00:00.440=48 -1080 1824 1026 1.000000</property>
    <property name="rotation">00:00:00.000=0;00:00:00.160=0;00:00:00.440=0</property>
    <property name="compositing">0</property>
    <property name="distort">0</property>
   </filter>
  </entry>
  <blank length="00:00:00.320"/>
  <entry producer="producer407" in="00:00:00.000" out="00:00:12.000">
   <property name="kdenlive:id">534</property>
   <property name="kdenlive:activeeffect">1</property>
   <filter id="filter1379">
    <property name="rotate_center">1</property>
    <property name="mlt_service">qtblend</property>
    <property name="kdenlive_id">qtblend</property>
    <property name="rect">00:00:00.000=144 81 1632 918 1.000000</property>
    <property name="rotation">00:00:00.000=0</property>
    <property name="compositing">0</property>
    <property name="distort">0</property>
    <property name="kdenlive:collapsed">1</property>
   </filter>
   <filter id="filter1380">
    <property name="mode">alpha</property>
    <property name="alpha_operation">min</property>
    <property name="invert">0</property>
    <property name="feather">0</property>
    <property name="feather_passes">1</property>
    <property name="mlt_service">rotoscoping</property>
    <property name="kdenlive_id">rotoscoping</property>
    <property name="spline">{
    "000": [
        [
            [
                0.003484320557491289,
                0.2671826625386997
            ],
            [
                0.003484320557491289,
                0.11300309597523221
            ],
            [
                0.018118466898954706,
                0.11300309597523221
            ]
        ],
        [
            [
                0.06202090592334496,
                0.11300309597523221
            ],
            [
                0.07665505226480837,
                0.11300309597523221
            ],
            [
                0.07700348432055751,
                0.26656346749226006
            ]
        ],
        [
            [
                0.07804878048780488,
                0.7272445820433436
            ],
            [
                0.078397212543554,
                0.8808049535603716
            ],
            [
                0.06341463414634146,
                0.8814241486068112
            ]
        ],
        [
            [
                0.018466898954703832,
                0.8832817337461301
            ],
            [
                0.003484320557491289,
                0.8839009287925697
            ],
            [
                0.003484320557491289,
                0.7297213622291022
            ]
        ]
    ],
    "012": [
        [
            [
                0.003484320557491289,
                0.2671826625386997
            ],
            [
                0.003484320557491289,
                0.11300309597523221
            ],
            [
                0.018118466898954706,
                0.11300309597523221
            ]
        ],
        [
            [
                0.9226480836236933,
                0.10990712074303406
            ],
            [
                0.9372822299651568,
                0.10990712074303406
            ],
            [
                0.937630662020906,
                0.26346749226006205
            ]
        ],
        [
            [
                0.9386759581881533,
                0.7396284829721363
            ],
            [
                0.9390243902439025,
                0.8931888544891642
            ],
            [
                0.92404181184669,
                0.893808049535604
            ]
        ],
        [
            [
                0.018466898954703832,
                0.8832817337461301
            ],
            [
                0.003484320557491289,
                0.8839009287925697
            ],
            [
                0.003484320557491289,
                0.7297213622291022
            ]
        ]
    ]
}
</property>
    <property name="kdenlive:collapsed">1</property>
   </filter>
  </entry>
  <entry producer="producer407" in="00:00:00.000" out="00:00:00.440">
   <property name="kdenlive:id">534</property>
   <filter id="filter1381">
    <property name="rotate_center">1</property>
    <property name="mlt_service">qtblend</property>
    <property name="kdenlive_id">qtblend</property>
    <property name="rect">00:00:00.000=144 81 1632 918 1.000000</property>
    <property name="rotation">00:00:00.000=0</property>
    <property name="compositing">0</property>
    <property name="distort">0</property>
    <property name="kdenlive:collapsed">1</property>
   </filter>
   <filter id="filter1382">
    <property name="rotate_center">1</property>
    <property name="mlt_service">qtblend</property>
    <property name="kdenlive_id">qtblend</property>
    <property name="rect">00:00:00.000=0 0 1920 1080 1.000000;00:00:00.160=48 27 1824 1026 1.000000;00:00:00.440=48 -1080 1824 1026 1.000000</property>
    <property name="rotation">00:00:00.000=0;00:00:00.160=0;00:00:00.440=0</property>
    <property name="compositing">0</property>
    <property name="distort">0</property>
    <property name="kdenlive:collapsed">1</property>
   </filter>
  </entry>
  <blank length="00:00:00.400"/>
  <entry producer="producer408" in="00:00:00.000" out="00:00:04.800">
   <property name="kdenlive:id">541</property>
   <property name="kdenlive:activeeffect">1</property>
   <filter id="filter1383">
    <property name="rotate_center">1</property>
    <property name="mlt_service">qtblend</property>
    <property name="kdenlive_id">qtblend</property>
    <property name="rect">00:00:00.000=144 81 1632 918 1.000000</property>
    <property name="rotation">00:00:00.000=0</property>
    <property name="compositing">0</property>
    <property name="distort">0</property>
    <property name="kdenlive:collapsed">1</property>
   </filter>
   <filter id="filter1384">
    <property name="mode">alpha</property>
    <property name="alpha_operation">min</property>
    <property name="invert">0</property>
    <property name="feather">0</property>
    <property name="feather_passes">1</property>
    <property name="mlt_service">rotoscoping</property>
    <property name="kdenlive_id">rotoscoping</property>
    <property name="spline">{
    "000": [
        [
            [
                0.003484320557491289,
                0.2671826625386997
            ],
            [
                0.003484320557491289,
                0.11300309597523221
            ],
            [
                0.018118466898954706,
                0.11300309597523221
            ]
        ],
        [
            [
                0.06202090592334496,
                0.11300309597523221
            ],
            [
                0.07665505226480837,
                0.11300309597523221
            ],
            [
                0.07700348432055751,
                0.26656346749226006
            ]
        ],
        [
            [
                0.07804878048780488,
                0.7272445820433436
            ],
            [
                0.078397212543554,
                0.8808049535603716
            ],
            [
                0.06341463414634146,
                0.8814241486068112
            ]
        ],
        [
            [
                0.018466898954703832,
                0.8832817337461301
            ],
            [
                0.003484320557491289,
                0.8839009287925697
            ],
            [
                0.003484320557491289,
                0.7297213622291022
            ]
        ]
    ],
    "012": [
        [
            [
                0.003484320557491289,
                0.2671826625386997
            ],
            [
                0.003484320557491289,
                0.11300309597523221
            ],
            [
                0.018118466898954706,
                0.11300309597523221
            ]
        ],
        [
            [
                0.9226480836236933,
                0.10990712074303406
            ],
            [
                0.9372822299651568,
                0.10990712074303406
            ],
            [
                0.937630662020906,
                0.26346749226006205
            ]
        ],
        [
            [
                0.9386759581881533,
                0.7396284829721363
            ],
            [
                0.9390243902439025,
                0.8931888544891642
            ],
            [
                0.92404181184669,
                0.893808049535604
            ]
        ],
        [
            [
                0.018466898954703832,
                0.8832817337461301
            ],
            [
                0.003484320557491289,
                0.8839009287925697
            ],
            [
                0.003484320557491289,
                0.7297213622291022
            ]
        ]
    ]
}
</property>
    <property name="kdenlive:collapsed">1</property>
   </filter>
  </entry>
  <entry producer="producer408" in="00:00:00.000" out="00:00:00.440">
   <property name="kdenlive:id">541</property>
   <filter id="filter1385">
    <property name="rotate_center">1</property>
    <property name="mlt_service">qtblend</property>
    <property name="kdenlive_id">qtblend</property>
    <property name="rect">0=144 81 1632 918 1.000000</property>
    <property name="rotation">0=0</property>
    <property name="compositing">0</property>
    <property name="distort">0</property>
    <property name="kdenlive:collapsed">1</property>
   </filter>
   <filter id="filter1386">
    <property name="rotate_center">1</property>
    <property name="mlt_service">qtblend</property>
    <property name="kdenlive_id">qtblend</property>
    <property name="rect">0=0 0 1920 1080 1.000000;4=48 27 1824 1026 1.000000;11=48 -1080 1824 1026 1.000000</property>
    <property name="rotation">0=0;4=0;11=0</property>
    <property name="compositing">0</property>
    <property name="distort">0</property>
    <property name="kdenlive:collapsed">1</property>
   </filter>
  </entry>
  <blank length="00:00:11.720"/>
  <entry producer="producer390" in="00:00:00.000" out="00:00:06.680">
   <property name="kdenlive:id">248</property>
   <filter id="filter1387">
    <property name="rotate_center">1</property>
    <property name="mlt_service">qtblend</property>
    <property name="kdenlive_id">qtblend</property>
    <property name="rect">00:00:00.000=425 956 19 10 1.000000;00:00:00.240=248 857 373 209 1.000000;00:00:00.360=296 883 277 156 1.000000;00:00:02.720=296 883 277 156 1.000000;00:00:03.280=898 897 277 156 1.000000;00:00:03.880=1046 579 277 156 1.000000;00:00:04.200=1046 579 277 156 1.000000;00:00:04.400=286 41 83 46 1.000000;00:00:05.200=286 41 83 46 1.000000;00:00:05.600=885 34 83 46 1.000000;00:00:05.960=330 34 83 46 1.000000;00:00:06.320=895 34 83 46 1.000000;00:00:06.440=848 7 177 100 1.000000;00:00:06.680=927 52 19 10 1.000000</property>
    <property name="rotation">00:00:00.000=33;00:00:00.240=33;00:00:00.360=33;00:00:02.720=33;00:00:03.280=53;00:00:03.880=101;00:00:04.200=101;00:00:04.400=-63;00:00:05.200=-63;00:00:05.600=-87;00:00:05.960=-87;00:00:06.320=-87;00:00:06.440=-87;00:00:06.680=-87</property>
    <property name="compositing">0</property>
    <property name="distort">0</property>
    <property name="kdenlive:collapsed">0</property>
   </filter>
  </entry>
  <blank length="00:00:12.080"/>
  <entry producer="producer153" in="00:00:00.000" out="00:00:21.920">
   <property name="kdenlive:id">174</property>
   <filter id="filter1388">
    <property name="rotate_center">1</property>
    <property name="mlt_service">qtblend</property>
    <property name="kdenlive_id">qtblend</property>
    <property name="rect">00:00:00.000=192 108 1536 864 1.000000;00:00:21.920=97 54 1723 969 1.000000</property>
    <property name="rotation">00:00:00.000=0;00:00:21.920=0</property>
    <property name="compositing">0</property>
    <property name="distort">0</property>
    <property name="kdenlive:collapsed">0</property>
   </filter>
   <filter id="filter1389">
    <property name="rotate_center">1</property>
    <property name="mlt_service">qtblend</property>
    <property name="kdenlive_id">qtblend</property>
    <property name="rect">00:00:00.000=0 1080 1920 1080 1.000000;00:00:00.240=0 -76 1920 1080 1.000000;00:00:00.360=0 0 1920 1080 1.000000</property>
    <property name="rotation">00:00:00.000=0;00:00:00.240=0;00:00:00.360=0</property>
    <property name="compositing">0</property>
    <property name="distort">0</property>
    <property name="kdenlive:collapsed">1</property>
   </filter>
  </entry>
  <entry producer="producer153" in="00:00:00.000" out="00:00:11.320">
   <property name="kdenlive:id">174</property>
   <filter id="filter1390">
    <property name="rotate_center">1</property>
    <property name="mlt_service">qtblend</property>
    <property name="kdenlive_id">qtblend</property>
    <property name="rect">00:00:00.000=97 54 1724 970 1.000000;00:00:00.360=-1041 -583 4012 2257 1.000000</property>
    <property name="rotation">00:00:00.000=0;00:00:00.360=0</property>
    <property name="compositing">0</property>
    <property name="distort">0</property>
    <property name="kdenlive:collapsed">1</property>
   </filter>
   <filter id="filter1391">
    <property name="hradius">00:00:00.000=0;00:00:00.360=60</property>
    <property name="vradius">00:00:00.000=0;00:00:00.360=60</property>
    <property name="mlt_service">box_blur</property>
    <property name="kdenlive_id">box_blur</property>
    <property name="kdenlive:collapsed">0</property>
   </filter>
   <filter id="filter1392">
    <property name="start">1</property>
    <property name="level">00:00:00.000=1;00:00:00.360=0.16</property>
    <property name="mlt_service">brightness</property>
    <property name="kdenlive_id">brightness</property>
    <property name="kdenlive:collapsed">0</property>
   </filter>
   <filter id="filter1393" in="00:00:10.400" out="00:00:11.320">
    <property name="start">1</property>
    <property name="level">1</property>
    <property name="mlt_service">brightness</property>
    <property name="kdenlive_id">fade_to_black</property>
    <property name="alpha">00:00:00.000=1;00:00:00.920=0</property>
   </filter>
  </entry>
  <blank length="00:00:58.560"/>
  <entry producer="producer409" in="00:00:00.000" out="00:00:16.480">
   <property name="kdenlive:id">178</property>
   <property name="kdenlive:activeeffect">1</property>
   <filter id="filter1394">
    <property name="rotate_center">1</property>
    <property name="mlt_service">qtblend</property>
    <property name="kdenlive_id">qtblend</property>
    <property name="rect">00:00:00.000=0 270 960 540 1.000000</property>
    <property name="rotation">00:00:00.000=0</property>
    <property name="compositing">0</property>
    <property name="distort">0</property>
    <property name="kdenlive:collapsed">1</property>
   </filter>
   <filter id="filter1395">
    <property name="rotate_center">1</property>
    <property name="mlt_service">qtblend</property>
    <property name="kdenlive_id">qtblend</property>
    <property name="rect">00:00:00.000=0 1080 1920 1080 1.000000;00:00:00.240=0 -59 1920 1080 1.000000;00:00:00.360=0 0 1920 1080 1.000000;00:00:16.120=0 0 1920 1080 1.000000;00:00:16.240=0 55 1920 1080 1.000000;00:00:16.480=0 -1080 1920 1080 1.000000</property>
    <property name="rotation">00:00:00.000=0;00:00:00.240=0;00:00:00.360=0;00:00:16.120=0;00:00:16.240=0;00:00:16.480=0</property>
    <property name="compositing">0</property>
    <property name="distort">0</property>
    <property name="kdenlive:collapsed">0</property>
   </filter>
  </entry>
  <blank length="00:00:01.280"/>
  <entry producer="producer652" in="00:00:00.000" out="00:00:00.360">
   <property name="kdenlive:id">231</property>
   <filter id="filter1396">
    <property name="rotate_center">1</property>
    <property name="mlt_service">qtblend</property>
    <property name="kdenlive_id">qtblend</property>
    <property name="rect">00:00:00.000=0 0 1920 1080 1.000000;00:00:00.360=-537 -302 2995 1684 1.000000</property>
    <property name="rotation">00:00:00.000=0;00:00:00.360=0</property>
    <property name="compositing">0</property>
    <property name="distort">0</property>
    <property name="kdenlive:collapsed">0</property>
   </filter>
  </entry>
  <entry producer="producer411" in="00:00:00.000" out="00:00:05.040">
   <property name="kdenlive:id">553</property>
   <filter id="filter1397">
    <property name="rotate_center">1</property>
    <property name="mlt_service">qtblend</property>
    <property name="kdenlive_id">qtblend</property>
    <property name="rect">00:00:00.000=950 535 19 10 1.000000;00:00:00.240=-96 -54 2112 1188 1.000000;00:00:00.360=0 0 1920 1080 1.000000;00:00:04.640=0 0 1920 1080 1.000000;00:00:04.800=48 27 1824 1026 1.000000;00:00:05.040=48 -1080 1824 1026 1.000000</property>
    <property name="rotation">00:00:00.000=0;00:00:00.240=0;00:00:00.360=0;00:00:04.640=0;00:00:04.800=0;00:00:05.040=0</property>
    <property name="compositing">0</property>
    <property name="distort">0</property>
    <property name="kdenlive:collapsed">0</property>
   </filter>
  </entry>
  <blank length="00:00:19.520"/>
  <entry producer="producer117" in="00:00:00.000" out="00:00:03.560">
   <property name="kdenlive:id">131</property>
   <filter id="filter1398">
    <property name="rotate_center">1</property>
    <property name="mlt_service">qtblend</property>
    <property name="kdenlive_id">qtblend</property>
    <property name="rect">00:00:00.000=240 135 1440 810 1.000000;00:00:03.560=192 108 1536 864 1.000000</property>
    <property name="rotation">00:00:00.000=0;00:00:03.560=0</property>
    <property name="compositing">0</property>
    <property name="distort">0</property>
    <property name="kdenlive:collapsed">0</property>
   </filter>
   <filter id="filter1399">
    <property name="rotate_center">1</property>
    <property name="mlt_service">qtblend</property>
    <property name="kdenlive_id">qtblend</property>
    <property name="rect">00:00:00.000=0 1080 1920 1080 1.000000;00:00:00.240=0 -52 1920 1080 1.000000;00:00:00.360=0 0 1920 1080 1.000000;00:00:03.200=0 0 1920 1080 1.000000;00:00:03.320=0 60 1920 1080 1.000000;00:00:03.560=0 -1080 1920 1080 1.000000</property>
    <property name="rotation">00:00:00.000=0;00:00:00.240=0;00:00:00.360=0;00:00:03.200=0;00:00:03.320=0;00:00:03.560=0</property>
    <property name="compositing">0</property>
    <property name="distort">0</property>
    <property name="kdenlive:collapsed">0</property>
   </filter>
  </entry>
  <blank length="00:00:23.800"/>
  <entry producer="producer409" in="00:00:00.000" out="00:00:15.640">
   <property name="kdenlive:id">178</property>
   <filter id="filter1400">
    <property name="rotate_center">1</property>
    <property name="mlt_service">qtblend</property>
    <property name="kdenlive_id">qtblend</property>
    <property name="rect">00:00:00.000=288 162 1344 756 1.000000;00:00:15.640=192 108 1536 864 1.000000</property>
    <property name="rotation">00:00:00.000=0;00:00:15.640=0</property>
    <property name="compositing">0</property>
    <property name="distort">0</property>
    <property name="kdenlive:collapsed">1</property>
   </filter>
   <filter id="filter1401">
    <property name="rotate_center">1</property>
    <property name="mlt_service">qtblend</property>
    <property name="kdenlive_id">qtblend</property>
    <property name="rect">00:00:00.000=0 1080 1920 1080 1.000000;00:00:00.240=0 -60 1920 1080 1.000000;00:00:00.360=0 0 1920 1080 1.000000;00:00:15.280=0 0 1920 1080 1.000000;00:00:15.400=0 55 1920 1080 1.000000;00:00:15.640=0 -1080 1920 1080 1.000000</property>
    <property name="rotation">00:00:00.000=0;00:00:00.240=0;00:00:00.360=0;00:00:15.280=0;00:00:15.400=0;00:00:15.640=0</property>
    <property name="compositing">0</property>
    <property name="distort">0</property>
    <property name="kdenlive:collapsed">0</property>
   </filter>
  </entry>
  <blank length="00:00:05.720"/>
  <entry producer="producer155" in="00:00:00.000" out="00:00:13.600">
   <property name="kdenlive:id">175</property>
   <property name="kdenlive:activeeffect">1</property>
   <filter id="filter1402">
    <property name="rotate_center">1</property>
    <property name="mlt_service">qtblend</property>
    <property name="kdenlive_id">qtblend</property>
    <property name="rect">00:00:00.000=192 108 1536 864 1.000000;00:00:13.600=96 54 1728 972 1.000000</property>
    <property name="rotation">00:00:00.000=0;00:00:13.600=0</property>
    <property name="compositing">0</property>
    <property name="distort">0</property>
    <property name="kdenlive:collapsed">1</property>
   </filter>
   <filter id="filter1403">
    <property name="rotate_center">1</property>
    <property name="mlt_service">qtblend</property>
    <property name="kdenlive_id">qtblend</property>
    <property name="rect">00:00:00.000=0 1080 1920 1080 1.000000;00:00:00.240=0 -76 1920 1080 1.000000;00:00:00.360=0 0 1920 1080 1.000000;00:00:13.240=0 0 1920 1080 1.000000;00:00:13.360=0 71 1920 1080 1.000000;00:00:13.600=0 -1080 1920 1080 1.000000</property>
    <property name="rotation">00:00:00.000=0;00:00:00.240=0;00:00:00.360=0;00:00:13.240=0;00:00:13.360=0;00:00:13.600=0</property>
    <property name="compositing">0</property>
    <property name="distort">0</property>
    <property name="kdenlive:collapsed">0</property>
   </filter>
  </entry>
  <blank length="00:00:20.120"/>
  <entry producer="producer430" in="00:00:00.000" out="00:00:04.480">
   <property name="kdenlive:id">557</property>
   <property name="kdenlive:activeeffect">1</property>
   <filter id="filter1404">
    <property name="rotate_center">1</property>
    <property name="mlt_service">qtblend</property>
    <property name="kdenlive_id">qtblend</property>
    <property name="rect">00:00:00.000=192 108 1536 864 1.000000;00:00:04.480=144 81 1632 918 1.000000</property>
    <property name="rotation">00:00:00.000=0;00:00:04.480=0</property>
    <property name="compositing">0</property>
    <property name="distort">0</property>
    <property name="kdenlive:collapsed">1</property>
   </filter>
   <filter id="filter1405">
    <property name="rotate_center">1</property>
    <property name="mlt_service">qtblend</property>
    <property name="kdenlive_id">qtblend</property>
    <property name="rect">00:00:00.000=0 1080 1920 1080 1.000000;00:00:00.240=0 -60 1920 1080 1.000000;00:00:00.360=0 0 1920 1080 1.000000;00:00:04.120=0 0 1920 1080 1.000000;00:00:04.240=0 74 1920 1080 1.000000;00:00:04.480=0 -1080 1920 1080 1.000000</property>
    <property name="rotation">00:00:00.000=0;00:00:00.240=0;00:00:00.360=0;00:00:04.120=0;00:00:04.240=0;00:00:04.480=0</property>
    <property name="compositing">0</property>
    <property name="distort">0</property>
    <property name="kdenlive:collapsed">0</property>
   </filter>
  </entry>
  <blank length="00:00:03.720"/>
  <entry producer="producer431" in="00:00:00.000" out="00:00:04.920">
   <property name="kdenlive:id">560</property>
   <property name="kdenlive:activeeffect">1</property>
   <filter id="filter1406">
    <property name="rotate_center">1</property>
    <property name="mlt_service">qtblend</property>
    <property name="kdenlive_id">qtblend</property>
    <property name="rect">00:00:00.000=192 108 1536 864 1.000000</property>
    <property name="rotation">00:00:00.000=0</property>
    <property name="compositing">0</property>
    <property name="distort">0</property>
    <property name="kdenlive:collapsed">1</property>
   </filter>
   <filter id="filter1407">
    <property name="rotate_center">1</property>
    <property name="mlt_service">qtblend</property>
    <property name="kdenlive_id">qtblend</property>
    <property name="rect">00:00:00.000=0 1080 1920 1080 1.000000;00:00:00.240=0 -57 1920 1080 1.000000;00:00:00.360=0 0 1920 1080 1.000000;00:00:04.560=0 0 1920 1080 1.000000;00:00:04.680=0 60 1920 1080 1.000000;00:00:04.920=0 -1080 1920 1080 1.000000</property>
    <property name="rotation">00:00:00.000=0;00:00:00.240=0;00:00:00.360=0;00:00:04.560=0;00:00:04.680=0;00:00:04.920=0</property>
    <property name="compositing">0</property>
    <property name="distort">0</property>
    <property name="kdenlive:collapsed">0</property>
   </filter>
  </entry>
  <blank length="00:00:19.280"/>
  <entry producer="producer432" in="00:00:00.000" out="00:00:03.320">
   <property name="kdenlive:id">566</property>
   <property name="kdenlive:activeeffect">1</property>
   <filter id="filter1408">
    <property name="rotate_center">1</property>
    <property name="mlt_service">qtblend</property>
    <property name="kdenlive_id">qtblend</property>
    <property name="rect">00:00:00.000=144 81 1632 918 1.000000</property>
    <property name="rotation">00:00:00.000=0</property>
    <property name="compositing">0</property>
    <property name="distort">0</property>
    <property name="kdenlive:collapsed">1</property>
   </filter>
   <filter id="filter1409">
    <property name="rotate_center">1</property>
    <property name="mlt_service">qtblend</property>
    <property name="kdenlive_id">qtblend</property>
    <property name="rect">00:00:00.000=950 535 19 10 1.000000;00:00:00.240=-48 -27 2016 1134 1.000000;00:00:00.360=0 0 1920 1080 1.000000;00:00:02.960=0 0 1920 1080 1.000000;00:00:03.080=-48 -27 2016 1134 1.000000;00:00:03.320=950 535 19 10 1.000000</property>
    <property name="rotation">00:00:00.000=0;00:00:00.240=0;00:00:00.360=0;00:00:02.960=0;00:00:03.080=0;00:00:03.320=0</property>
    <property name="compositing">0</property>
    <property name="distort">0</property>
    <property name="kdenlive:collapsed">0</property>
   </filter>
  </entry>
  <blank length="00:00:41.160"/>
  <entry producer="producer252" in="00:00:00.000" out="00:00:06.120">
   <property name="kdenlive:id">315</property>
   <filter id="filter1410">
    <property name="rotate_center">1</property>
    <property name="mlt_service">qtblend</property>
    <property name="kdenlive_id">qtblend</property>
    <property name="rect">00:00:00.000=192 108 1536 864 1.000000;00:00:06.120=144 81 1632 918 1.000000</property>
    <property name="rotation">00:00:00.000=0;00:00:06.120=0</property>
    <property name="compositing">0</property>
    <property name="distort">0</property>
    <property name="kdenlive:collapsed">0</property>
   </filter>
   <filter id="filter1411">
    <property name="rotate_center">1</property>
    <property name="mlt_service">qtblend</property>
    <property name="kdenlive_id">qtblend</property>
    <property name="rect">00:00:00.000=950 535 19 10 1.000000;00:00:00.240=-96 -54 2112 1188 1.000000;00:00:00.360=0 0 1920 1080 1.000000;00:00:05.760=0 0 1920 1080 1.000000;00:00:05.880=0 47 1920 1080 1.000000;00:00:06.120=0 -1080 1920 1080 1.000000</property>
    <property name="rotation">00:00:00.000=0;00:00:00.240=0;00:00:00.360=0;00:00:05.760=0;00:00:05.880=0;00:00:06.120=0</property>
    <property name="compositing">0</property>
    <property name="distort">0</property>
    <property name="kdenlive:collapsed">0</property>
   </filter>
  </entry>
  <blank length="00:00:40.560"/>
  <entry producer="producer652" in="00:00:00.000" out="00:00:09.160">
   <property name="kdenlive:id">231</property>
   <filter id="filter1412">
    <property name="rotate_center">1</property>
    <property name="mlt_service">qtblend</property>
    <property name="kdenlive_id">qtblend</property>
    <property name="rect">00:00:00.000=0 1080 1920 1080 1.000000;00:00:00.240=0 -61 1920 1080 1.000000;00:00:00.360=0 0 1920 1080 1.000000;00:00:08.800=0 0 1920 1080 1.000000;00:00:08.920=-96 -54 2112 1188 1.000000;00:00:09.160=950 535 19 10 1.000000</property>
    <property name="rotation">00:00:00.000=0;00:00:00.240=0;00:00:00.360=0;00:00:08.800=0;00:00:08.920=0;00:00:09.160=0</property>
    <property name="compositing">0</property>
    <property name="distort">0</property>
   </filter>
  </entry>
  <blank length="00:00:06.440"/>
  <entry producer="producer437" in="00:00:00.000" out="00:00:13.640">
   <property name="kdenlive:id">576</property>
   <property name="kdenlive:activeeffect">1</property>
   <filter id="filter1413">
    <property name="rotate_center">1</property>
    <property name="mlt_service">qtblend</property>
    <property name="kdenlive_id">qtblend</property>
    <property name="rect">00:00:00.000=288 162 1344 756 1.000000;00:00:13.640=192 108 1536 864 1.000000</property>
    <property name="rotation">00:00:00.000=0;00:00:13.640=0</property>
    <property name="compositing">0</property>
    <property name="distort">0</property>
    <property name="kdenlive:collapsed">1</property>
   </filter>
   <filter id="filter1414">
    <property name="rotate_center">1</property>
    <property name="mlt_service">qtblend</property>
    <property name="kdenlive_id">qtblend</property>
    <property name="rect">00:00:00.000=0 1080 1920 1080 1.000000;00:00:00.240=0 -55 1920 1080 1.000000;00:00:00.360=0 0 1920 1080 1.000000;00:00:13.280=0 0 1920 1080 1.000000;00:00:13.400=0 54 1920 1080 1.000000;00:00:13.640=0 -1080 1920 1080 1.000000</property>
    <property name="rotation">00:00:00.000=0;00:00:00.240=0;00:00:00.360=0;00:00:13.280=0;00:00:13.400=0;00:00:13.640=0</property>
    <property name="compositing">0</property>
    <property name="distort">0</property>
    <property name="kdenlive:collapsed">0</property>
   </filter>
  </entry>
  <blank length="00:00:31.640"/>
  <entry producer="producer660" in="00:00:00.000" out="00:00:06.000">
   <property name="kdenlive:id">577</property>
  </entry>
  <entry producer="producer660" in="00:00:14.960" out="00:00:19.680">
   <property name="kdenlive:id">577</property>
  </entry>
  <blank length="00:00:27.640"/>
  <entry producer="producer662" in="00:00:00.000" out="00:00:05.640">
   <property name="kdenlive:id">580</property>
  </entry>
  <entry producer="producer662" in="00:00:16.320" out="00:00:19.680">
   <property name="kdenlive:id">580</property>
  </entry>
  <blank length="00:00:54.720"/>
  <entry producer="producer663" in="00:00:00.000" out="00:00:19.680">
   <property name="kdenlive:id">582</property>
  </entry>
  <blank length="00:00:10.960"/>
  <entry producer="producer652" in="00:00:00.000" out="00:00:06.800">
   <property name="kdenlive:id">231</property>
   <filter id="filter1415">
    <property name="rotate_center">1</property>
    <property name="mlt_service">qtblend</property>
    <property name="kdenlive_id">qtblend</property>
    <property name="rect">00:00:00.000=0 1080 1920 1080 1.000000;00:00:00.240=0 -77 1920 1080 1.000000;00:00:00.360=0 0 1920 1080 1.000000;00:00:06.440=0 0 1920 1080 1.000000;00:00:06.560=0 66 1920 1080 1.000000;00:00:06.800=0 -1080 1920 1080 1.000000</property>
    <property name="rotation">00:00:00.000=0;00:00:00.240=0;00:00:00.360=0;00:00:06.440=0;00:00:06.560=0;00:00:06.800=0</property>
    <property name="compositing">0</property>
    <property name="distort">0</property>
   </filter>
  </entry>
  <blank length="00:00:45.640"/>
  <entry producer="producer652" in="00:00:00.000" out="00:00:10.200">
   <property name="kdenlive:id">231</property>
   <filter id="filter1416">
    <property name="rotate_center">1</property>
    <property name="mlt_service">qtblend</property>
    <property name="kdenlive_id">qtblend</property>
    <property name="rect">00:00:00.000=0 1080 1920 1080 1.000000;00:00:00.240=0 -56 1920 1080 1.000000;00:00:00.360=0 0 1920 1080 1.000000;00:00:09.840=0 0 1920 1080 1.000000;00:00:09.960=0 59 1920 1080 1.000000;00:00:10.200=0 -1080 1920 1080 1.000000</property>
    <property name="rotation">00:00:00.000=0;00:00:00.240=0;00:00:00.360=0;00:00:09.840=0;00:00:09.960=0;00:00:10.200=0</property>
    <property name="compositing">0</property>
    <property name="distort">0</property>
   </filter>
  </entry>
  <blank length="00:00:08.960"/>
  <entry producer="producer674" in="00:02:22.600" out="00:02:23.760">
   <property name="kdenlive:id">387</property>
   <filter id="filter1417">
    <property name="rotate_center">1</property>
    <property name="mlt_service">qtblend</property>
    <property name="kdenlive_id">qtblend</property>
    <property name="rect">00:02:22.600=320 180 1279 719 1.000000</property>
    <property name="rotation">00:02:22.600=0</property>
    <property name="compositing">0</property>
    <property name="distort">0</property>
    <property name="kdenlive:collapsed">0</property>
   </filter>
  </entry>
  <blank length="00:00:00.360"/>
  <entry producer="chain415" in="00:00:59.120" out="00:01:08.880">
   <property name="kdenlive:id">598</property>
   <property name="kdenlive:activeeffect">1</property>
   <filter id="filter1418">
    <property name="rotate_center">1</property>
    <property name="mlt_service">qtblend</property>
    <property name="kdenlive_id">qtblend</property>
    <property name="rect">00:00:59.120=320 180 1279 719 1.000000</property>
    <property name="rotation">00:00:59.120=0</property>
    <property name="compositing">0</property>
    <property name="distort">0</property>
    <property name="kdenlive:collapsed">1</property>
   </filter>
   <filter id="filter1419">
    <property name="rotate_center">1</property>
    <property name="mlt_service">qtblend</property>
    <property name="kdenlive_id">qtblend</property>
    <property name="rect">00:00:59.120=0 0 1920 1080 1.000000;00:01:08.520=0 0 1920 1080 1.000000;00:01:08.640=0 54 1920 1080 1.000000;00:01:08.880=0 -1080 1920 1080 1.000000</property>
    <property name="rotation">00:00:59.120=0;00:01:08.520=0;00:01:08.640=0;00:01:08.880=0</property>
    <property name="compositing">0</property>
    <property name="distort">0</property>
    <property name="kdenlive:collapsed">0</property>
   </filter>
  </entry>
  <blank length="00:00:23.280"/>
  <entry producer="producer652" in="00:00:00.000" out="00:00:05.720">
   <property name="kdenlive:id">231</property>
   <filter id="filter1420">
    <property name="rotate_center">1</property>
    <property name="mlt_service">qtblend</property>
    <property name="kdenlive_id">qtblend</property>
    <property name="rect">00:00:00.000=0 1080 1920 1080 1.000000;00:00:00.240=0 -53 1920 1080 1.000000;00:00:00.360=0 0 1920 1080 1.000000;00:00:05.360=0 0 1920 1080 1.000000;00:00:05.480=0 59 1920 1080 1.000000;00:00:05.720=0 -1080 1920 1080 1.000000</property>
    <property name="rotation">00:00:00.000=0;00:00:00.240=0;00:00:00.360=0;00:00:05.360=0;00:00:05.480=0;00:00:05.720=0</property>
    <property name="compositing">0</property>
    <property name="distort">0</property>
   </filter>
  </entry>
  <blank length="00:00:13.160"/>
  <entry producer="producer652" in="00:00:00.000" out="00:00:20.200">
   <property name="kdenlive:id">231</property>
   <filter id="filter1421">
    <property name="rotate_center">1</property>
    <property name="mlt_service">qtblend</property>
    <property name="kdenlive_id">qtblend</property>
    <property name="rect">00:00:00.000=0 1080 1920 1080 1.000000;00:00:00.240=0 -62 1920 1080 1.000000;00:00:00.360=0 0 1920 1080 1.000000;00:00:19.840=0 0 1920 1080 1.000000;00:00:19.960=0 66 1920 1080 1.000000;00:00:20.200=0 -1080 1920 1080 1.000000</property>
    <property name="rotation">00:00:00.000=0;00:00:00.240=0;00:00:00.360=0;00:00:19.840=0;00:00:19.960=0;00:00:20.200=0</property>
    <property name="compositing">0</property>
    <property name="distort">0</property>
   </filter>
  </entry>
  <blank length="00:00:27.720"/>
  <entry producer="producer652" in="00:00:00.000" out="00:00:11.200">
   <property name="kdenlive:id">231</property>
   <filter id="filter1422">
    <property name="rotate_center">1</property>
    <property name="mlt_service">qtblend</property>
    <property name="kdenlive_id">qtblend</property>
    <property name="rect">00:00:00.000=0 1080 1920 1080 1.000000;00:00:00.240=0 -70 1920 1080 1.000000;00:00:00.360=0 0 1920 1080 1.000000;00:00:10.840=0 0 1920 1080 1.000000;00:00:10.960=0 70 1920 1080 1.000000;00:00:11.200=0 -1080 1920 1080 1.000000</property>
    <property name="rotation">00:00:00.000=0;00:00:00.240=0;00:00:00.360=0;00:00:10.840=0;00:00:10.960=0;00:00:11.200=0</property>
    <property name="compositing">0</property>
    <property name="distort">0</property>
   </filter>
  </entry>
  <blank length="00:00:09.720"/>
  <entry producer="chain416" in="00:00:00.000" out="00:00:35.840">
   <property name="kdenlive:id">613</property>
   <property name="kdenlive:activeeffect">1</property>
   <filter id="filter1423">
    <property name="rotate_center">1</property>
    <property name="mlt_service">qtblend</property>
    <property name="kdenlive_id">qtblend</property>
    <property name="rect">00:00:00.000=320 180 1279 719 1.000000</property>
    <property name="rotation">00:00:00.000=0</property>
    <property name="compositing">0</property>
    <property name="distort">0</property>
    <property name="kdenlive:collapsed">1</property>
   </filter>
   <filter id="filter1424">
    <property name="rotate_center">1</property>
    <property name="mlt_service">qtblend</property>
    <property name="kdenlive_id">qtblend</property>
    <property name="rect">00:00:00.000=0 1080 1920 1080 1.000000;00:00:00.240=0 -119 1920 1080 1.000000;00:00:00.360=0 0 1920 1080 1.000000;00:00:35.480=0 0 1920 1080 1.000000;00:00:35.600=0 73 1920 1080 1.000000;00:00:35.840=0 -1080 1920 1080 1.000000</property>
    <property name="rotation">00:00:00.000=0;00:00:00.240=0;00:00:00.360=0;00:00:35.480=0;00:00:35.600=0;00:00:35.840=0</property>
    <property name="compositing">0</property>
    <property name="distort">0</property>
    <property name="kdenlive:collapsed">0</property>
   </filter>
  </entry>
  <blank length="00:00:08.000"/>
  <entry producer="producer478" in="00:00:00.000" out="00:00:05.160">
   <property name="kdenlive:id">620</property>
   <filter id="filter1425">
    <property name="rotate_center">1</property>
    <property name="mlt_service">qtblend</property>
    <property name="kdenlive_id">qtblend</property>
    <property name="rect">00:00:00.000=470 535 19 10 1.000000;00:00:00.240=144 351 672 378 1.000000;00:00:00.360=192 378 576 324 1.000000;00:00:04.800=192 378 576 324 1.000000;00:00:04.920=144 351 672 378 1.000000;00:00:05.160=470 535 19 10 1.000000</property>
    <property name="rotation">00:00:00.000=0;00:00:00.240=0;00:00:00.360=0;00:00:04.800=0;00:00:04.920=0;00:00:05.160=0</property>
    <property name="compositing">0</property>
    <property name="distort">0</property>
    <property name="kdenlive:collapsed">0</property>
   </filter>
  </entry>
  <blank length="00:00:00.360"/>
  <entry producer="chain417" in="00:00:00.000" out="00:00:11.840">
   <property name="kdenlive:id">621</property>
   <property name="kdenlive:activeeffect">1</property>
   <filter id="filter1426">
    <property name="rotate_center">1</property>
    <property name="mlt_service">qtblend</property>
    <property name="kdenlive_id">qtblend</property>
    <property name="rect">00:00:00.000=320 180 1279 719 1.000000</property>
    <property name="rotation">00:00:00.000=0</property>
    <property name="compositing">0</property>
    <property name="distort">0</property>
    <property name="kdenlive:collapsed">1</property>
   </filter>
   <filter id="filter1427">
    <property name="rotate_center">1</property>
    <property name="mlt_service">qtblend</property>
    <property name="kdenlive_id">qtblend</property>
    <property name="rect">00:00:00.000=0 1080 1920 1080 1.000000;00:00:00.240=0 -59 1920 1080 1.000000;00:00:00.360=0 0 1920 1080 1.000000</property>
    <property name="rotation">00:00:00.000=0;00:00:00.240=0;00:00:00.360=0</property>
    <property name="compositing">0</property>
    <property name="distort">0</property>
    <property name="kdenlive:collapsed">0</property>
   </filter>
  </entry>
  <blank length="00:00:32.000"/>
  <entry producer="producer494" in="00:00:00.000" out="00:00:01.200">
   <property name="kdenlive:id">625</property>
   <filter id="filter1428" in="00:00:00.640" out="00:00:01.200">
    <property name="start">1</property>
    <property name="level">1</property>
    <property name="mlt_service">brightness</property>
    <property name="kdenlive_id">fade_to_black</property>
    <property name="alpha">00:00:00.000=1;00:00:00.560=0</property>
   </filter>
  </entry>
  <blank length="00:00:34.480"/>
  <entry producer="producer652" in="00:00:00.000" out="00:00:02.200">
   <property name="kdenlive:id">231</property>
   <filter id="filter1429">
    <property name="rotate_center">1</property>
    <property name="mlt_service">qtblend</property>
    <property name="kdenlive_id">qtblend</property>
    <property name="rect">00:00:00.000=0 1080 1920 1080 1.000000;00:00:00.240=0 -56 1920 1080 1.000000;00:00:00.360=0 0 1920 1080 1.000000;00:00:01.840=0 0 1920 1080 1.000000;00:00:01.960=0 63 1920 1080 1.000000;00:00:02.200=0 -1080 1920 1080 1.000000</property>
    <property name="rotation">00:00:00.000=0;00:00:00.240=0;00:00:00.360=0;00:00:01.840=0;00:00:01.960=0;00:00:02.200=0</property>
    <property name="compositing">0</property>
    <property name="distort">0</property>
    <property name="kdenlive:collapsed">0</property>
   </filter>
  </entry>
  <blank length="00:00:01.360"/>
  <entry producer="producer652" in="00:00:00.000" out="00:00:07.680">
   <property name="kdenlive:id">231</property>
   <filter id="filter1430">
    <property name="rotate_center">1</property>
    <property name="mlt_service">qtblend</property>
    <property name="kdenlive_id">qtblend</property>
    <property name="rect">00:00:00.000=0 1080 1920 1080 1.000000;00:00:00.240=0 -83 1920 1080 1.000000;00:00:00.360=0 0 1920 1080 1.000000;00:00:07.320=0 0 1920 1080 1.000000;00:00:07.440=0 72 1920 1080 1.000000;00:00:07.680=0 -1080 1920 1080 1.000000</property>
    <property name="rotation">00:00:00.000=0;00:00:00.240=0;00:00:00.360=0;00:00:07.320=0;00:00:07.440=0;00:00:07.680=0</property>
    <property name="compositing">0</property>
    <property name="distort">0</property>
   </filter>
  </entry>
  <blank length="00:00:22.880"/>
  <entry producer="producer390" in="00:00:00.000" out="00:00:06.360">
   <property name="kdenlive:id">248</property>
   <filter id="filter1431">
    <property name="rotate_center">1</property>
    <property name="mlt_service">qtblend</property>
    <property name="kdenlive_id">qtblend</property>
    <property name="rect">00:00:00.000=1689 366 19 10 1.000000;00:00:00.240=1517 269 364 204 1.000000;00:00:00.360=1565 258 268 226 1.000000;00:00:01.880=1565 258 268 226 1.000000;00:00:02.120=1565 466 268 226 1.000000;00:00:02.240=1565 410 268 226 1.000000;00:00:04.600=1565 410 268 226 1.000000;00:00:04.840=1565 629 268 226 1.000000;00:00:04.960=1565 591 268 226 1.000000;00:00:06.000=1565 591 268 226 1.000000;00:00:06.120=1517 602 364 204 1.000000;00:00:06.360=1689 699 19 10 1.000000</property>
    <property name="rotation">00:00:00.000=0;00:00:00.240=0;00:00:00.360=0;00:00:01.880=0;00:00:02.120=0;00:00:02.240=0;00:00:04.600=0;00:00:04.840=0;00:00:04.960=0;00:00:06.000=0;00:00:06.120=0;00:00:06.360=0</property>
    <property name="compositing">0</property>
    <property name="distort">0</property>
    <property name="kdenlive:collapsed">0</property>
   </filter>
  </entry>
  <blank length="00:01:01.800"/>
  <entry producer="producer652" in="00:00:00.000" out="00:00:08.440">
   <property name="kdenlive:id">231</property>
   <filter id="filter1432">
    <property name="rotate_center">1</property>
    <property name="mlt_service">qtblend</property>
    <property name="kdenlive_id">qtblend</property>
    <property name="rect">00:00:00.000=0 1080 1920 1080 1.000000;00:00:00.240=0 -43 1920 1080 1.000000;00:00:00.360=0 0 1920 1080 1.000000;00:00:08.120=0 0 1920 1080 1.000000;00:00:08.240=0 82 1920 1080 1.000000;00:00:08.440|=0 -1080 1920 1080 1.000000;00:00:08.480=0 0 1920 1080 1.000000</property>
    <property name="rotation">00:00:00.000=0;00:00:00.240=0;00:00:00.360=0;00:00:08.120=0;00:00:08.240=0;00:00:08.480=0</property>
    <property name="compositing">0</property>
    <property name="distort">0</property>
    <property name="kdenlive:collapsed">0</property>
   </filter>
  </entry>
  <blank length="00:00:05.200"/>
  <entry producer="producer652" in="00:00:00.000" out="00:00:03.400">
   <property name="kdenlive:id">231</property>
   <filter id="filter1433">
    <property name="rotate_center">1</property>
    <property name="mlt_service">qtblend</property>
    <property name="kdenlive_id">qtblend</property>
    <property name="rect">00:00:00.000=0 1080 1920 1080 1.000000;00:00:00.240=0 -69 1920 1080 1.000000;00:00:00.360=0 0 1920 1080 1.000000;00:00:02.920=0 0 1920 1080 1.000000;00:00:03.400=-576 -324 3072 1728 1.000000</property>
    <property name="rotation">00:00:00.000=0;00:00:00.240=0;00:00:00.360=0;00:00:02.920=0;00:00:03.400=0</property>
    <property name="compositing">0</property>
    <property name="distort">0</property>
    <property name="kdenlive:collapsed">0</property>
   </filter>
  </entry>
  <entry producer="producer495" in="00:00:00.000" out="00:00:34.720">
   <property name="kdenlive:id">637</property>
   <filter id="filter1434">
    <property name="rotate_center">1</property>
    <property name="mlt_service">qtblend</property>
    <property name="kdenlive_id">qtblend</property>
    <property name="rect">00:00:00.000=0 86 1920 1080 1.000000;00:00:00.240=0 -34 1920 1080 1.000000;00:00:00.360=0 0 1920 1080 1.000000</property>
    <property name="rotation">00:00:00.000=0;00:00:00.240=0;00:00:00.360=0</property>
    <property name="compositing">0</property>
    <property name="distort">0</property>
   </filter>
   <filter id="filter1435" out="00:00:00.240">
    <property name="start">1</property>
    <property name="level">1</property>
    <property name="mlt_service">brightness</property>
    <property name="kdenlive_id">fade_from_black</property>
    <property name="alpha">00:00:00.000=0;00:00:00.240=1</property>
    <property name="kdenlive:collapsed">1</property>
   </filter>
   <filter id="filter1436" in="00:00:33.800" out="00:00:34.720">
    <property name="start">1</property>
    <property name="level">1</property>
    <property name="mlt_service">brightness</property>
    <property name="kdenlive_id">fade_to_black</property>
    <property name="alpha">00:00:00.000=1;00:00:00.920=0</property>
    <property name="kdenlive:collapsed">1</property>
   </filter>
  </entry>
  <blank length="00:00:01.600"/>
  <entry producer="producer536" in="00:00:00.000" out="00:00:37.880">
   <property name="kdenlive:id">646</property>
   <property name="kdenlive:activeeffect">2</property>
   <filter id="filter1437">
    <property name="rotate_center">1</property>
    <property name="mlt_service">qtblend</property>
    <property name="kdenlive_id">qtblend</property>
    <property name="rect">00:00:00.000=0 86 1920 1080 1.000000;00:00:00.240=0 -34 1920 1080 1.000000;00:00:00.360=0 0 1920 1080 1.000000</property>
    <property name="rotation">00:00:00.000=0;00:00:00.240=0;00:00:00.360=0</property>
    <property name="compositing">0</property>
    <property name="distort">0</property>
    <property name="kdenlive:collapsed">0</property>
   </filter>
   <filter id="filter1438" out="00:00:00.240">
    <property name="start">1</property>
    <property name="level">1</property>
    <property name="mlt_service">brightness</property>
    <property name="kdenlive_id">fade_from_black</property>
    <property name="alpha">00:00:00.000=0;00:00:00.240=1</property>
    <property name="kdenlive:collapsed">1</property>
   </filter>
   <filter id="filter1439" in="00:00:36.960" out="00:00:37.880">
    <property name="start">1</property>
    <property name="level">1</property>
    <property name="mlt_service">brightness</property>
    <property name="kdenlive_id">fade_to_black</property>
    <property name="alpha">00:00:00.000=1;00:00:00.920=0</property>
    <property name="kdenlive:collapsed">1</property>
   </filter>
  </entry>
  <blank length="00:00:07.480"/>
  <entry producer="producer537" in="00:00:00.000" out="00:00:43.040">
   <property name="kdenlive:id">655</property>
   <filter id="filter1440">
    <property name="rotate_center">1</property>
    <property name="mlt_service">qtblend</property>
    <property name="kdenlive_id">qtblend</property>
    <property name="rect">00:00:00.000=0 86 1920 1080 1.000000;00:00:00.240=0 -34 1920 1080 1.000000;00:00:00.360=0 0 1920 1080 1.000000</property>
    <property name="rotation">00:00:00.000=0;00:00:00.240=0;00:00:00.360=0</property>
    <property name="compositing">0</property>
    <property name="distort">0</property>
    <property name="kdenlive:collapsed">0</property>
   </filter>
   <filter id="filter1441" out="00:00:00.240">
    <property name="start">1</property>
    <property name="level">1</property>
    <property name="mlt_service">brightness</property>
    <property name="kdenlive_id">fade_from_black</property>
    <property name="alpha">0=0;-1=1</property>
    <property name="kdenlive:collapsed">1</property>
   </filter>
   <filter id="filter1442" in="00:00:42.120" out="00:00:43.040">
    <property name="start">1</property>
    <property name="level">1</property>
    <property name="mlt_service">brightness</property>
    <property name="kdenlive_id">fade_to_black</property>
    <property name="alpha">00:00:00.000=1;00:00:00.920=0</property>
    <property name="kdenlive:collapsed">1</property>
   </filter>
  </entry>
  <blank length="00:00:14.240"/>
  <entry producer="producer516" in="00:00:00.000" out="00:00:01.360">
   <property name="kdenlive:id">659</property>
   <filter id="filter1443">
    <property name="rotate_center">1</property>
    <property name="mlt_service">qtblend</property>
    <property name="kdenlive_id">qtblend</property>
    <property name="rect">00:00:00.000=0 65 1920 1080 1.000000;00:00:00.240=0 0 1920 1080 1.000000</property>
    <property name="rotation">00:00:00.000=0;00:00:00.240=0</property>
    <property name="compositing">0</property>
    <property name="distort">0</property>
   </filter>
   <filter id="filter1444" out="00:00:00.240">
    <property name="start">1</property>
    <property name="level">1</property>
    <property name="mlt_service">brightness</property>
    <property name="kdenlive_id">fade_from_black</property>
    <property name="alpha">00:00:00.000=0;00:00:00.240=1</property>
   </filter>
  </entry>
  <blank length="00:00:18.440"/>
  <entry producer="producer652" in="00:00:00.000" out="00:00:08.320">
   <property name="kdenlive:id">231</property>
   <filter id="filter1445">
    <property name="rotate_center">1</property>
    <property name="mlt_service">qtblend</property>
    <property name="kdenlive_id">qtblend</property>
    <property name="rect">00:00:00.000=0 1080 1920 1080 1.000000;00:00:00.240=0 -63 1920 1080 1.000000;00:00:00.360=0 0 1920 1080 1.000000;00:00:07.960=0 0 1920 1080 1.000000;00:00:08.080=0 64 1920 1080 1.000000;00:00:08.320=0 -1080 1920 1080 1.000000</property>
    <property name="rotation">00:00:00.000=0;00:00:00.240=0;00:00:00.360=0;00:00:07.960=0;00:00:08.080=0;00:00:08.320=0</property>
    <property name="compositing">0</property>
    <property name="distort">0</property>
    <property name="kdenlive:collapsed">0</property>
   </filter>
  </entry>
  <blank length="00:00:04.560"/>
  <entry producer="producer652" in="00:00:00.000" out="00:00:10.520">
   <property name="kdenlive:id">231</property>
   <filter id="filter1446">
    <property name="rotate_center">1</property>
    <property name="mlt_service">qtblend</property>
    <property name="kdenlive_id">qtblend</property>
    <property name="rect">00:00:00.000=0 1080 1920 1080 1.000000;00:00:00.240=0 -57 1920 1080 1.000000;00:00:00.360=0 0 1920 1080 1.000000;00:00:10.160=0 0 1920 1080 1.000000;00:00:10.280=0 46 1920 1080 1.000000;00:00:10.520=0 -1080 1920 1080 1.000000</property>
    <property name="rotation">00:00:00.000=0;00:00:00.240=0;00:00:00.360=0;00:00:10.160=0;00:00:10.280=0;00:00:10.520=0</property>
    <property name="compositing">0</property>
    <property name="distort">0</property>
    <property name="kdenlive:collapsed">0</property>
   </filter>
  </entry>
  <blank length="00:00:15.600"/>
  <entry producer="producer652" in="00:00:00.000" out="00:00:06.600">
   <property name="kdenlive:id">231</property>
   <filter id="filter1447">
    <property name="rotate_center">1</property>
    <property name="mlt_service">qtblend</property>
    <property name="kdenlive_id">qtblend</property>
    <property name="rect">00:00:00.000=0 1080 1920 1080 1.000000;00:00:00.240=0 -69 1920 1080 1.000000;00:00:00.360=0 0 1920 1080 1.000000;00:00:06.240=0 0 1920 1080 1.000000;00:00:06.360=0 66 1920 1080 1.000000;00:00:06.600=0 -1080 1920 1080 1.000000</property>
    <property name="rotation">00:00:00.000=0;00:00:00.240=0;00:00:00.360=0;00:00:06.240=0;00:00:06.360=0;00:00:06.600=0</property>
    <property name="compositing">0</property>
    <property name="distort">0</property>
   </filter>
  </entry>
  <blank length="00:00:20.040"/>
  <entry producer="producer652" in="00:00:00.000" out="00:00:07.280">
   <property name="kdenlive:id">231</property>
   <filter id="filter1448">
    <property name="rotate_center">1</property>
    <property name="mlt_service">qtblend</property>
    <property name="kdenlive_id">qtblend</property>
    <property name="rect">00:00:00.000=0 1080 1920 1080 1.000000;00:00:00.240=0 -82 1920 1080 1.000000;00:00:00.360=0 0 1920 1080 1.000000;00:00:06.920=0 0 1920 1080 1.000000;00:00:07.040=0 66 1920 1080 1.000000;00:00:07.280=0 -1080 1920 1080 1.000000</property>
    <property name="rotation">00:00:00.000=0;00:00:00.240=0;00:00:00.360=0;00:00:06.920=0;00:00:07.040=0;00:00:07.280=0</property>
    <property name="compositing">0</property>
    <property name="distort">0</property>
   </filter>
  </entry>
  <blank length="00:00:14.800"/>
  <entry producer="producer652" in="00:00:00.000" out="00:00:14.760">
   <property name="kdenlive:id">231</property>
  </entry>
  <entry producer="producer652" in="00:00:00.000" out="00:00:00.560">
   <property name="kdenlive:id">231</property>
   <filter id="filter1449">
    <property name="rotate_center">1</property>
    <property name="mlt_service">qtblend</property>
    <property name="kdenlive_id">qtblend</property>
    <property name="rect">00:00:00.000=0 0 1920 1080 1.000000;00:00:00.560=-576 -324 3072 1728 1.000000</property>
    <property name="rotation">00:00:00.000=0;00:00:00.560=0</property>
    <property name="compositing">0</property>
    <property name="distort">0</property>
    <property name="kdenlive:collapsed">0</property>
   </filter>
   <filter id="filter1450" out="00:00:00.560">
    <property name="start">1</property>
    <property name="level">1</property>
    <property name="mlt_service">brightness</property>
    <property name="kdenlive_id">fade_to_black</property>
    <property name="alpha">00:00:00.000=1;00:00:00.560=0</property>
   </filter>
  </entry>
  <entry producer="producer538" in="00:00:00.000" out="00:00:27.800">
   <property name="kdenlive:id">693</property>
   <property name="kdenlive:activeeffect">2</property>
   <filter id="filter1451">
    <property name="rotate_center">1</property>
    <property name="mlt_service">qtblend</property>
    <property name="kdenlive_id">qtblend</property>
    <property name="rect">00:00:00.000=0 86 1920 1080 1.000000;00:00:00.240=0 -34 1920 1080 1.000000;00:00:00.360=0 0 1920 1080 1.000000</property>
    <property name="rotation">00:00:00.000=0;00:00:00.240=0;00:00:00.360=0</property>
    <property name="compositing">0</property>
    <property name="distort">0</property>
    <property name="kdenlive:collapsed">0</property>
   </filter>
   <filter id="filter1452" out="00:00:00.240">
    <property name="start">1</property>
    <property name="level">1</property>
    <property name="mlt_service">brightness</property>
    <property name="kdenlive_id">fade_from_black</property>
    <property name="alpha">00:00:00.000=0;00:00:00.240=1</property>
    <property name="kdenlive:collapsed">1</property>
   </filter>
   <filter id="filter1453" in="00:00:26.880" out="00:00:27.800">
    <property name="start">1</property>
    <property name="level">1</property>
    <property name="mlt_service">brightness</property>
    <property name="kdenlive_id">fade_to_black</property>
    <property name="alpha">00:00:00.000=1;00:00:00.920=0</property>
    <property name="kdenlive:collapsed">1</property>
   </filter>
  </entry>
  <blank length="00:00:02.640"/>
  <entry producer="producer539" in="00:00:00.000" out="00:00:04.040">
   <property name="kdenlive:id">661</property>
   <filter id="filter1454">
    <property name="rotate_center">1</property>
    <property name="mlt_service">qtblend</property>
    <property name="kdenlive_id">qtblend</property>
    <property name="rect">00:00:00.000=0 65 1920 1080 1.000000;00:00:00.240=0 0 1920 1080 1.000000;00:00:03.720=0 0 1920 1080 1.000000;00:00:04.040=447 0 1920 1080 1.000000</property>
    <property name="rotation">00:00:00.000=0;00:00:00.240=0;00:00:03.720=0;00:00:04.040=0</property>
    <property name="compositing">0</property>
    <property name="distort">0</property>
    <property name="kdenlive:collapsed">1</property>
   </filter>
   <filter id="filter1455" out="00:00:00.240">
    <property name="start">1</property>
    <property name="level">1</property>
    <property name="mlt_service">brightness</property>
    <property name="kdenlive_id">fade_from_black</property>
    <property name="alpha">00:00:00.000=0;00:00:00.240=1</property>
    <property name="kdenlive:collapsed">0</property>
   </filter>
   <filter id="filter1456" in="00:00:03.720" out="00:00:04.040">
    <property name="start">1</property>
    <property name="level">1</property>
    <property name="mlt_service">brightness</property>
    <property name="kdenlive_id">fade_to_black</property>
    <property name="alpha">00:00:00.000=1;00:00:00.320=0</property>
    <property name="kdenlive:collapsed">0</property>
   </filter>
  </entry>
  <blank length="00:00:00.400"/>
  <entry producer="producer652" in="00:00:00.000" out="00:00:14.000">
   <property name="kdenlive:id">231</property>
   <filter id="filter1457">
    <property name="rotate_center">1</property>
    <property name="mlt_service">qtblend</property>
    <property name="kdenlive_id">qtblend</property>
    <property name="rect">00:00:00.000=0 1080 1920 1080 1.000000;00:00:00.240=0 -40 1920 1080 1.000000;00:00:00.360=0 0 1920 1080 1.000000;00:00:13.640=0 0 1920 1080 1.000000;00:00:13.760=0 66 1920 1080 1.000000;00:00:14.000=0 -1080 1920 1080 1.000000</property>
    <property name="rotation">00:00:00.000=0;00:00:00.240=0;00:00:00.360=0;00:00:13.640=0;00:00:13.760=0;00:00:14.000=0</property>
    <property name="compositing">0</property>
    <property name="distort">0</property>
   </filter>
  </entry>
  <blank length="00:00:02.680"/>
  <entry producer="producer390" in="00:00:00.000" out="00:00:02.480">
   <property name="kdenlive:id">248</property>
   <filter id="filter1458">
    <property name="rotate_center">1</property>
    <property name="mlt_service">qtblend</property>
    <property name="kdenlive_id">qtblend</property>
    <property name="rect">00:00:00.000=1027 160 19 10 1.000000;00:00:00.240=852 61 371 209 1.000000;00:00:00.360=899 88 276 155 1.000000;00:00:01.360=899 88 276 155 1.000000;00:00:01.720=896 623 276 155 1.000000;00:00:02.120=896 623 276 155 1.000000;00:00:02.240=849 596 371 209 1.000000;00:00:02.480=1024 695 19 10 1.000000</property>
    <property name="rotation">00:00:00.000=-12;00:00:00.240=-12;00:00:00.360=-12;00:00:01.360=-12;00:00:01.720=12;00:00:02.120=12;00:00:02.240=12;00:00:02.480=12</property>
    <property name="compositing">0</property>
    <property name="distort">0</property>
    <property name="kdenlive:collapsed">0</property>
   </filter>
  </entry>
  <blank length="00:00:00.400"/>
  <entry producer="producer540" in="00:00:00.000" out="00:00:05.160">
   <property name="kdenlive:id">698</property>
   <filter id="filter1459">
    <property name="rotate_center">1</property>
    <property name="mlt_service">qtblend</property>
    <property name="kdenlive_id">qtblend</property>
    <property name="rect">00:00:00.000=627 204 19 10 1.000000;00:00:00.240=-179 -250 1632 918 1.000000;00:00:00.360=-131 -223 1536 864 1.000000;00:00:04.800=-131 -223 1536 864 1.000000;00:00:04.920=-179 -250 1632 918 1.000000;00:00:05.160=627 204 19 10 1.000000</property>
    <property name="rotation">00:00:00.000=0;00:00:00.240=0;00:00:00.360=0;00:00:04.800=0;00:00:04.920=0;00:00:05.160=0</property>
    <property name="compositing">0</property>
    <property name="distort">0</property>
    <property name="kdenlive:collapsed">0</property>
   </filter>
  </entry>
  <blank length="00:00:02.040"/>
  <entry producer="producer652" in="00:00:00.000" out="00:00:08.000">
   <property name="kdenlive:id">231</property>
   <filter id="filter1460">
    <property name="rotate_center">1</property>
    <property name="mlt_service">qtblend</property>
    <property name="kdenlive_id">qtblend</property>
    <property name="rect">00:00:00.000=0 1080 1920 1080 1.000000;00:00:00.240=0 -47 1920 1080 1.000000;00:00:00.360=0 0 1920 1080 1.000000;00:00:07.640=0 0 1920 1080 1.000000;00:00:07.760=0 46 1920 1080 1.000000;00:00:08.000=0 -1080 1920 1080 1.000000</property>
    <property name="rotation">00:00:00.000=0;00:00:00.240=0;00:00:00.360=0;00:00:07.640=0;00:00:07.760=0;00:00:08.000=0</property>
    <property name="compositing">0</property>
    <property name="distort">0</property>
   </filter>
  </entry>
  <blank length="00:00:06.200"/>
  <entry producer="producer652" in="00:00:00.000" out="00:00:14.560">
   <property name="kdenlive:id">231</property>
   <filter id="filter1461">
    <property name="rotate_center">1</property>
    <property name="mlt_service">qtblend</property>
    <property name="kdenlive_id">qtblend</property>
    <property name="rect">00:00:00.000=0 1080 1920 1080 1.000000;00:00:00.240=0 -53 1920 1080 1.000000;00:00:00.360=0 0 1920 1080 1.000000;00:00:14.200=0 0 1920 1080 1.000000;00:00:14.320=0 52 1920 1080 1.000000;00:00:14.560=0 -1080 1920 1080 1.000000</property>
    <property name="rotation">00:00:00.000=0;00:00:00.240=0;00:00:00.360=0;00:00:14.200=0;00:00:14.320=0;00:00:14.560=0</property>
    <property name="compositing">0</property>
    <property name="distort">0</property>
   </filter>
  </entry>
  <blank length="00:00:28.400"/>
  <entry producer="producer680" in="00:00:00.000" out="00:00:09.560">
   <property name="kdenlive:id">712</property>
   <filter id="filter1462">
    <property name="rotate_center">1</property>
    <property name="mlt_service">qtblend</property>
    <property name="kdenlive_id">qtblend</property>
    <property name="rect">00:00:00.000=-128 0 1920 1080 1.000000</property>
    <property name="rotation">00:00:00.000=0</property>
    <property name="compositing">0</property>
    <property name="distort">0</property>
    <property name="kdenlive:collapsed">0</property>
   </filter>
  </entry>
  <entry producer="producer680" in="00:00:16.360" out="00:00:19.680">
   <property name="kdenlive:id">712</property>
   <filter id="filter1463">
    <property name="rotate_center">1</property>
    <property name="mlt_service">qtblend</property>
    <property name="kdenlive_id">qtblend</property>
    <property name="rect">00:00:16.360=-128 0 1920 1080 1.000000</property>
    <property name="rotation">00:00:16.360=0</property>
    <property name="compositing">0</property>
    <property name="distort">0</property>
    <property name="kdenlive:collapsed">0</property>
   </filter>
  </entry>
  <blank length="00:00:00.360"/>
  <entry producer="producer652" in="00:00:00.000" out="00:00:27.880">
   <property name="kdenlive:id">231</property>
   <filter id="filter1464">
    <property name="rotate_center">1</property>
    <property name="mlt_service">qtblend</property>
    <property name="kdenlive_id">qtblend</property>
    <property name="rect">00:00:00.000=0 1080 1920 1080 1.000000;00:00:00.240=0 -54 1920 1080 1.000000;00:00:00.360=0 0 1920 1080 1.000000;00:00:27.520=0 0 1920 1080 1.000000;00:00:27.640=0 55 1920 1080 1.000000;00:00:27.880=0 -1080 1920 1080 1.000000</property>
    <property name="rotation">00:00:00.000=0;00:00:00.240=0;00:00:00.360=0;00:00:27.520=0;00:00:27.640=0;00:00:27.880=0</property>
    <property name="compositing">0</property>
    <property name="distort">0</property>
   </filter>
  </entry>
  <blank length="00:00:16.040"/>
  <entry producer="producer543" in="00:00:00.000" out="00:00:02.040">
   <property name="kdenlive:id">720</property>
   <property name="kdenlive:activeeffect">1</property>
   <filter id="filter1465">
    <property name="rotate_center">1</property>
    <property name="mlt_service">qtblend</property>
    <property name="kdenlive_id">qtblend</property>
    <property name="rect">00:00:00.000=144 81 1632 918 1.000000</property>
    <property name="rotation">00:00:00.000=0</property>
    <property name="compositing">0</property>
    <property name="distort">0</property>
    <property name="kdenlive:collapsed">1</property>
   </filter>
   <filter id="filter1466">
    <property name="mode">alpha</property>
    <property name="alpha_operation">min</property>
    <property name="invert">0</property>
    <property name="feather">0</property>
    <property name="feather_passes">1</property>
    <property name="mlt_service">rotoscoping</property>
    <property name="kdenlive_id">rotoscoping</property>
    <property name="spline">{
    "000": [
        [
            [
                0.019594594594594596,
                0.21111111111111105
            ],
            [
                0.02195945945945946,
                0.025525525525525523
            ],
            [
                0.03277027027027027,
                0.027327327327327327
            ]
        ],
        [
            [
                0.0652027027027027,
                0.032732732732732736
            ],
            [
                0.07601351351351351,
                0.03453453453453453
            ],
            [
                0.07871621621621622,
                0.21951951951951953
            ]
        ],
        [
            [
                0.08682432432432431,
                0.7744744744744746
            ],
            [
                0.08952702702702701,
                0.9594594594594595
            ],
            [
                0.07364864864864865,
                0.9582582582582583
            ]
        ],
        [
            [
                0.02601351351351351,
                0.9546546546546545
            ],
            [
                0.010135135135135136,
                0.9534534534534533
            ],
            [
                0.0125,
                0.7678678678678678
            ]
        ]
    ],
    "018": [
        [
            [
                0.019594594594594596,
                0.21111111111111105
            ],
            [
                0.02195945945945946,
                0.025525525525525523
            ],
            [
                0.03277027027027027,
                0.027327327327327327
            ]
        ],
        [
            [
                0.8439189189189189,
                0.041741741741741764
            ],
            [
                0.8547297297297297,
                0.04354354354354354
            ],
            [
                0.8574324324324324,
                0.22852852852852865
            ]
        ],
        [
            [
                0.8689189189189189,
                0.7744744744744745
            ],
            [
                0.8716216216216216,
                0.9594594594594595
            ],
            [
                0.8557432432432432,
                0.9582582582582583
            ]
        ],
        [
            [
                0.02601351351351351,
                0.9546546546546545
            ],
            [
                0.010135135135135136,
                0.9534534534534533
            ],
            [
                0.0125,
                0.7678678678678678
            ]
        ]
    ]
}
</property>
    <property name="kdenlive:collapsed">1</property>
   </filter>
  </entry>
  <entry producer="producer544" in="00:00:00.000" out="00:00:05.640">
   <property name="kdenlive:id">730</property>
   <property name="kdenlive:activeeffect">1</property>
   <filter id="filter1467">
    <property name="rotate_center">1</property>
    <property name="mlt_service">qtblend</property>
    <property name="kdenlive_id">qtblend</property>
    <property name="rect">00:00:00.000=144 81 1632 918 1.000000</property>
    <property name="rotation">00:00:00.000=0</property>
    <property name="compositing">0</property>
    <property name="distort">0</property>
    <property name="kdenlive:collapsed">1</property>
   </filter>
   <filter id="filter1468">
    <property name="rotate_center">1</property>
    <property name="mlt_service">qtblend</property>
    <property name="kdenlive_id">qtblend</property>
    <property name="rect">00:00:00.000=0 0 1920 1080 1.000000;00:00:05.280=0 0 1920 1080 1.000000;00:00:05.400=0 58 1920 1080 1.000000;00:00:05.640=0 -1080 1920 1080 1.000000</property>
    <property name="rotation">00:00:00.000=0;00:00:05.280=0;00:00:05.400=0;00:00:05.640=0</property>
    <property name="compositing">0</property>
    <property name="distort">0</property>
    <property name="kdenlive:collapsed">0</property>
   </filter>
  </entry>
  <blank length="00:00:04.880"/>
  <entry producer="producer652" in="00:00:00.000" out="00:00:10.120">
   <property name="kdenlive:id">231</property>
   <filter id="filter1469">
    <property name="rotate_center">1</property>
    <property name="mlt_service">qtblend</property>
    <property name="kdenlive_id">qtblend</property>
    <property name="rect">00:00:00.000=0 1080 1920 1080 1.000000;00:00:00.240=0 -65 1920 1080 1.000000;00:00:00.360=0 0 1920 1080 1.000000;00:00:09.760=0 0 1920 1080 1.000000;00:00:09.880=0 61 1920 1080 1.000000;00:00:10.120=0 -1080 1920 1080 1.000000</property>
    <property name="rotation">00:00:00.000=0;00:00:00.240=0;00:00:00.360=0;00:00:09.760=0;00:00:09.880=0;00:00:10.120=0</property>
    <property name="compositing">0</property>
    <property name="distort">0</property>
    <property name="kdenlive:collapsed">0</property>
   </filter>
  </entry>
  <blank length="00:00:22.280"/>
  <entry producer="producer652" in="00:00:00.000" out="00:00:08.920">
   <property name="kdenlive:id">231</property>
   <filter id="filter1470">
    <property name="rotate_center">1</property>
    <property name="mlt_service">qtblend</property>
    <property name="kdenlive_id">qtblend</property>
    <property name="rect">00:00:00.000=0 1080 1920 1080 1.000000;00:00:00.240=0 -35 1920 1080 1.000000;00:00:00.360=0 0 1920 1080 1.000000;00:00:08.560=0 0 1920 1080 1.000000;00:00:08.680=0 63 1920 1080 1.000000;00:00:08.920=0 -1080 1920 1080 1.000000</property>
    <property name="rotation">00:00:00.000=0;00:00:00.240=0;00:00:00.360=0;00:00:08.560=0;00:00:08.680=0;00:00:08.920=0</property>
    <property name="compositing">0</property>
    <property name="distort">0</property>
   </filter>
  </entry>
  <blank length="00:00:19.840"/>
  <entry producer="producer390" in="00:00:00.000" out="00:00:01.600">
   <property name="kdenlive:id">248</property>
   <filter id="filter1471">
    <property name="rotate_center">1</property>
    <property name="mlt_service">qtblend</property>
    <property name="kdenlive_id">qtblend</property>
    <property name="rect">00:00:00.000=276 738 19 10 1.000000;00:00:00.240=171 679 230 129 1.000000;00:00:00.360=196 693 180 101 1.000000;00:00:00.600=845 687 180 101 1.000000;00:00:00.800=196 693 180 101 1.000000;00:00:00.960=728 372 180 101 1.000000;00:00:01.240=728 372 180 101 1.000000;00:00:01.360=703 358 230 129 1.000000;00:00:01.600=808 417 19 10 1.000000</property>
    <property name="rotation">00:00:00.000=-70;00:00:00.240=-70;00:00:00.360=-70;00:00:00.600=-99;00:00:00.800=-70;00:00:00.960=17;00:00:01.240=17;00:00:01.360=17;00:00:01.600=17</property>
    <property name="compositing">0</property>
    <property name="distort">0</property>
    <property name="kdenlive:collapsed">0</property>
   </filter>
  </entry>
  <blank length="00:00:02.680"/>
  <entry producer="producer390" in="00:00:00.000" out="00:00:02.880">
   <property name="kdenlive:id">248</property>
   <filter id="filter1472">
    <property name="rotate_center">1</property>
    <property name="mlt_service">qtblend</property>
    <property name="kdenlive_id">qtblend</property>
    <property name="rect">00:00:00.000=1614 347 19 10 1.000000;00:00:00.240=1509 288 230 129 1.000000;00:00:00.360=1534 302 180 101 1.000000;00:00:02.520=1534 302 180 101 1.000000;00:00:02.640=1509 288 230 129 1.000000;00:00:02.880=1614 347 19 10 1.000000</property>
    <property name="rotation">00:00:00.000=0;00:00:00.240=0;00:00:00.360=0;00:00:02.520=0;00:00:02.640=0;00:00:02.880=0</property>
    <property name="compositing">0</property>
    <property name="distort">0</property>
    <property name="kdenlive:collapsed">0</property>
   </filter>
  </entry>
  <blank length="00:00:18.000"/>
  <entry producer="producer121" in="00:00:00.000" out="00:00:00.880">
   <property name="kdenlive:id">220</property>
   <filter id="filter1473" in="00:00:-0.040" out="00:00:00.880">
    <property name="start">1</property>
    <property name="level">1</property>
    <property name="mlt_service">brightness</property>
    <property name="kdenlive_id">fade_to_black</property>
    <property name="alpha">00:00:00.000=1;00:00:00.920=0</property>
    <property name="kdenlive:collapsed">0</property>
   </filter>
  </entry>
  <blank length="00:00:38.520"/>
  <entry producer="producer566" in="00:00:00.000" out="00:00:29.960">
   <property name="kdenlive:id">747</property>
   <filter id="filter1474">
    <property name="rotate_center">1</property>
    <property name="mlt_service">qtblend</property>
    <property name="kdenlive_id">qtblend</property>
    <property name="rect">00:00:00.000=0 86 1920 1080 1.000000;00:00:00.240=0 -34 1920 1080 1.000000;00:00:00.360=0 0 1920 1080 1.000000</property>
    <property name="rotation">00:00:00.000=0;00:00:00.240=0;00:00:00.360=0</property>
    <property name="compositing">0</property>
    <property name="distort">0</property>
   </filter>
   <filter id="filter1475" out="00:00:00.240">
    <property name="start">1</property>
    <property name="level">1</property>
    <property name="mlt_service">brightness</property>
    <property name="kdenlive_id">fade_from_black</property>
    <property name="alpha">00:00:00.000=0;00:00:00.240=1</property>
    <property name="kdenlive:collapsed">1</property>
   </filter>
   <filter id="filter1476" in="00:00:29.040" out="00:00:29.960">
    <property name="start">1</property>
    <property name="level">1</property>
    <property name="mlt_service">brightness</property>
    <property name="kdenlive_id">fade_to_black</property>
    <property name="alpha">00:00:00.000=1;00:00:00.920=0</property>
    <property name="kdenlive:collapsed">1</property>
   </filter>
  </entry>
  <blank length="00:00:09.720"/>
  <entry producer="producer652" in="00:00:00.000" out="00:00:08.480">
   <property name="kdenlive:id">231</property>
   <filter id="filter1477">
    <property name="rotate_center">1</property>
    <property name="mlt_service">qtblend</property>
    <property name="kdenlive_id">qtblend</property>
    <property name="rect">00:00:00.000=0 1080 1920 1080 1.000000;00:00:00.240=0 -47 1920 1080 1.000000;00:00:00.360=0 0 1920 1080 1.000000;00:00:08.120=0 0 1920 1080 1.000000;00:00:08.240=0 56 1920 1080 1.000000;00:00:08.480=0 -1080 1920 1080 1.000000</property>
    <property name="rotation">00:00:00.000=0;00:00:00.240=0;00:00:00.360=0;00:00:08.120=0;00:00:08.240=0;00:00:08.480=0</property>
    <property name="compositing">0</property>
    <property name="distort">0</property>
    <property name="kdenlive:collapsed">0</property>
   </filter>
  </entry>
  <blank length="00:00:05.280"/>
  <entry producer="producer299" in="00:00:00.000" out="00:00:12.640">
   <property name="kdenlive:id">346</property>
   <filter id="filter1478">
    <property name="rotate_center">1</property>
    <property name="mlt_service">qtblend</property>
    <property name="kdenlive_id">qtblend</property>
    <property name="rect">00:00:00.000=48 27 1824 1026 1.000000;00:00:00.360=0 0 1920 1080 1.000000</property>
    <property name="rotation">00:00:00.000=0;00:00:00.360=0</property>
    <property name="compositing">0</property>
    <property name="distort">0</property>
    <property name="kdenlive:collapsed">1</property>
   </filter>
   <filter id="filter1479" out="00:00:00.240">
    <property name="start">1</property>
    <property name="level">1</property>
    <property name="mlt_service">brightness</property>
    <property name="kdenlive_id">fade_from_black</property>
    <property name="alpha">00:00:00.000=0;00:00:00.240=1</property>
    <property name="kdenlive:collapsed">0</property>
   </filter>
   <filter id="filter1480" in="00:00:11.720" out="00:00:12.640">
    <property name="start">1</property>
    <property name="level">1</property>
    <property name="mlt_service">brightness</property>
    <property name="kdenlive_id">fade_to_black</property>
    <property name="alpha">00:00:00.000=1;00:00:00.920=0</property>
    <property name="kdenlive:collapsed">0</property>
   </filter>
  </entry>
  <blank length="00:00:07.200"/>
  <entry producer="chain423" in="00:27:45.280" out="00:27:49.880">
   <property name="kdenlive:id">763</property>
   <property name="kdenlive:activeeffect">1</property>
   <filter id="filter1481">
    <property name="rotate_center">1</property>
    <property name="mlt_service">qtblend</property>
    <property name="kdenlive_id">qtblend</property>
    <property name="rect">00:27:45.280=320 180 1279 719 1.000000</property>
    <property name="rotation">00:27:45.280=0</property>
    <property name="compositing">0</property>
    <property name="distort">0</property>
    <property name="kdenlive:collapsed">1</property>
   </filter>
   <filter id="filter1482">
    <property name="mode">alpha</property>
    <property name="alpha_operation">sub</property>
    <property name="invert">0</property>
    <property name="feather">24</property>
    <property name="feather_passes">1</property>
    <property name="mlt_service">rotoscoping</property>
    <property name="kdenlive_id">rotoscoping</property>
    <property name="spline">{
    "41632": [
        [
            [
                0.5804878048780487,
                0.7253869969040249
            ],
            [
                0.573170731707317,
                0.7012383900928794
            ],
            [
                0.5609756097560975,
                0.6975232198142416
            ]
        ],
        [
            [
                0.524390243902439,
                0.6863777089783282
            ],
            [
                0.5121951219512195,
                0.6826625386996905
            ],
            [
                0.5121951219512195,
                0.6411764705882355
            ]
        ],
        [
            [
                0.5121951219512195,
                0.51671826625387
            ],
            [
                0.5121951219512195,
                0.47523219814241496
            ],
            [
                0.5066202090592334,
                0.4653250773993809
            ]
        ],
        [
            [
                0.4898954703832753,
                0.4356037151702787
            ],
            [
                0.4843205574912892,
                0.4256965944272446
            ],
            [
                0.46167247386759586,
                0.4232198142414861
            ]
        ],
        [
            [
                0.3937282229965157,
                0.41578947368421054
            ],
            [
                0.37108013937282236,
                0.413312693498452
            ],
            [
                0.36306620209059237,
                0.4195046439628483
            ]
        ],
        [
            [
                0.3390243902439024,
                0.4380804953560372
            ],
            [
                0.3310104529616725,
                0.4442724458204335
            ],
            [
                0.33170731707317075,
                0.4671826625386997
            ]
        ],
        [
            [
                0.3337979094076655,
                0.5359133126934985
            ],
            [
                0.3344947735191638,
                0.5588235294117648
            ],
            [
                0.33519163763066206,
                0.5873065015479877
            ]
        ],
        [
            [
                0.33728222996515683,
                0.6727554179566564
            ],
            [
                0.33797909407665505,
                0.7012383900928794
            ],
            [
                0.34146341463414637,
                0.7210526315789474
            ]
        ],
        [
            [
                0.35191637630662026,
                0.7804953560371517
            ],
            [
                0.3554006968641115,
                0.8003095975232198
            ],
            [
                0.35714285714285715,
                0.8065015479876162
            ]
        ],
        [
            [
                0.3641114982578397,
                0.8343653250773994
            ],
            [
                0.3658536585365854,
                0.8405572755417957
            ],
            [
                0.4149825783972126,
                0.8386996904024768
            ]
        ],
        [
            [
                0.5644599303135889,
                0.8622291021671827
            ],
            [
                0.6097560975609756,
                0.8219814241486069
            ],
            [
                0.6024390243902439,
                0.7978328173374614
            ]
        ]
    ]
}
</property>
    <property name="kdenlive:collapsed">0</property>
   </filter>
   <filter id="filter1483">
    <property name="rotate_center">1</property>
    <property name="mlt_service">qtblend</property>
    <property name="kdenlive_id">qtblend</property>
    <property name="rect">00:27:45.280=0 1080 1920 1080 1.000000;00:27:45.520=0 -51 1920 1080 1.000000;00:27:45.640=0 0 1920 1080 1.000000;00:27:49.520=0 0 1920 1080 1.000000;00:27:49.640=0 53 1920 1080 1.000000;00:27:49.880=0 -1080 1920 1080 1.000000</property>
    <property name="rotation">00:27:45.280=0;00:27:45.520=0;00:27:45.640=0;00:27:49.520=0;00:27:49.640=0;00:27:49.880=0</property>
    <property name="compositing">0</property>
    <property name="distort">0</property>
   </filter>
  </entry>
  <blank length="00:00:02.480"/>
  <entry producer="producer652" in="00:00:00.000" out="00:00:09.880">
   <property name="kdenlive:id">231</property>
   <filter id="filter1484">
    <property name="rotate_center">1</property>
    <property name="mlt_service">qtblend</property>
    <property name="kdenlive_id">qtblend</property>
    <property name="rect">00:00:00.000=0 1080 1920 1080 1.000000;00:00:00.240=0 -69 1920 1080 1.000000;00:00:00.360=0 0 1920 1080 1.000000</property>
    <property name="rotation">00:00:00.000=0;00:00:00.240=0;00:00:00.360=0</property>
    <property name="compositing">0</property>
    <property name="distort">0</property>
   </filter>
  </entry>
  <entry producer="producer652" in="00:00:00.000" out="00:00:00.440">
   <property name="kdenlive:id">231</property>
   <filter id="filter1485">
    <property name="rotate_center">1</property>
    <property name="mlt_service">qtblend</property>
    <property name="kdenlive_id">qtblend</property>
    <property name="rect">00:00:00.000=0 0 1920 1080 1.000000;00:00:00.440=-511 -287 2943 1655 1.000000</property>
    <property name="rotation">00:00:00.000=0;00:00:00.440=0</property>
    <property name="compositing">0</property>
    <property name="distort">0</property>
    <property name="kdenlive:collapsed">0</property>
   </filter>
   <filter id="filter1486" out="00:00:00.440">
    <property name="start">1</property>
    <property name="level">1</property>
    <property name="mlt_service">brightness</property>
    <property name="kdenlive_id">fade_to_black</property>
    <property name="alpha">00:00:00.000=1;00:00:00.440=0</property>
    <property name="kdenlive:collapsed">0</property>
   </filter>
  </entry>
  <entry producer="producer299" in="00:00:00.000" out="00:01:14.920">
   <property name="kdenlive:id">346</property>
   <filter id="filter1487">
    <property name="rotate_center">1</property>
    <property name="mlt_service">qtblend</property>
    <property name="kdenlive_id">qtblend</property>
    <property name="rect">00:00:00.000=48 27 1824 1026 1.000000;00:00:00.360=0 0 1920 1080 1.000000</property>
    <property name="rotation">00:00:00.000=0;00:00:00.360=0</property>
    <property name="compositing">0</property>
    <property name="distort">0</property>
    <property name="kdenlive:collapsed">1</property>
   </filter>
   <filter id="filter1488" out="00:00:00.240">
    <property name="start">1</property>
    <property name="level">1</property>
    <property name="mlt_service">brightness</property>
    <property name="kdenlive_id">fade_from_black</property>
    <property name="alpha">00:00:00.000=0;00:00:00.240=1</property>
    <property name="kdenlive:collapsed">0</property>
   </filter>
   <filter id="filter1489" in="00:01:14.000" out="00:01:14.920">
    <property name="start">1</property>
    <property name="level">1</property>
    <property name="mlt_service">brightness</property>
    <property name="kdenlive_id">fade_to_black</property>
    <property name="alpha">00:00:00.000=1;00:00:00.920=0</property>
    <property name="kdenlive:collapsed">0</property>
   </filter>
  </entry>
  <entry producer="producer652" in="00:00:00.000" out="00:00:08.960">
   <property name="kdenlive:id">231</property>
   <filter id="filter1490">
    <property name="rotate_center">1</property>
    <property name="mlt_service">qtblend</property>
    <property name="kdenlive_id">qtblend</property>
    <property name="rect">00:00:00.000=0 1080 1920 1080 1.000000;00:00:00.240=0 -69 1920 1080 1.000000;00:00:00.360=0 0 1920 1080 1.000000;00:00:08.600=0 0 1920 1080 1.000000;00:00:08.720=0 61 1920 1080 1.000000;00:00:08.960=0 -1080 1920 1080 1.000000</property>
    <property name="rotation">00:00:00.000=0;00:00:00.240=0;00:00:00.360=0;00:00:08.600=0;00:00:08.720=0;00:00:08.960=0</property>
    <property name="compositing">0</property>
    <property name="distort">0</property>
   </filter>
  </entry>
  <blank length="00:00:23.160"/>
  <entry producer="producer652" in="00:00:00.000" out="00:00:23.240">
   <property name="kdenlive:id">231</property>
   <filter id="filter1491">
    <property name="rotate_center">1</property>
    <property name="mlt_service">qtblend</property>
    <property name="kdenlive_id">qtblend</property>
    <property name="rect">00:00:00.000=0 1080 1920 1080 1.000000;00:00:00.240=0 -54 1920 1080 1.000000;00:00:00.360=0 0 1920 1080 1.000000;00:00:22.880=0 0 1920 1080 1.000000;00:00:23.000=0 54 1920 1080 1.000000;00:00:23.240=0 -1080 1920 1080 1.000000</property>
    <property name="rotation">00:00:00.000=0;00:00:00.240=0;00:00:00.360=0;00:00:22.880=0;00:00:23.000=0;00:00:23.240=0</property>
    <property name="compositing">0</property>
    <property name="distort">0</property>
    <property name="kdenlive:collapsed">0</property>
   </filter>
  </entry>
  <blank length="00:00:07.080"/>
  <entry producer="producer600" in="00:00:00.000" out="00:00:21.520">
   <property name="kdenlive:id">793</property>
   <filter id="filter1492">
    <property name="rotate_center">1</property>
    <property name="mlt_service">qtblend</property>
    <property name="kdenlive_id">qtblend</property>
    <property name="rect">00:00:00.000=0 86 1920 1080 1.000000;00:00:00.240=0 -34 1920 1080 1.000000;00:00:00.360=0 0 1920 1080 1.000000</property>
    <property name="rotation">00:00:00.000=0;00:00:00.240=0;00:00:00.360=0</property>
    <property name="compositing">0</property>
    <property name="distort">0</property>
   </filter>
   <filter id="filter1493" out="00:00:00.240">
    <property name="start">1</property>
    <property name="level">1</property>
    <property name="mlt_service">brightness</property>
    <property name="kdenlive_id">fade_from_black</property>
    <property name="alpha">00:00:00.000=0;00:00:00.240=1</property>
    <property name="kdenlive:collapsed">1</property>
   </filter>
   <filter id="filter1494" in="00:00:20.600" out="00:00:21.520">
    <property name="start">1</property>
    <property name="level">1</property>
    <property name="mlt_service">brightness</property>
    <property name="kdenlive_id">fade_to_black</property>
    <property name="alpha">00:00:00.000=1;00:00:00.920=0</property>
    <property name="kdenlive:collapsed">1</property>
   </filter>
  </entry>
  <entry producer="producer652" in="00:00:00.000" out="00:00:13.240">
   <property name="kdenlive:id">231</property>
   <filter id="filter1495">
    <property name="rotate_center">1</property>
    <property name="mlt_service">qtblend</property>
    <property name="kdenlive_id">qtblend</property>
    <property name="rect">00:00:00.000=0 1080 1920 1080 1.000000;00:00:00.240=0 -59 1920 1080 1.000000;00:00:00.360=0 0 1920 1080 1.000000;00:00:12.880=0 0 1920 1080 1.000000;00:00:13.000=0 59 1920 1080 1.000000;00:00:13.240=0 -1080 1920 1080 1.000000</property>
    <property name="rotation">00:00:00.000=0;00:00:00.240=0;00:00:00.360=0;00:00:12.880=0;00:00:13.000=0;00:00:13.240=0</property>
    <property name="compositing">0</property>
    <property name="distort">0</property>
   </filter>
  </entry>
  <blank length="00:00:08.640"/>
  <entry producer="producer652" in="00:00:00.000" out="00:00:01.600">
   <property name="kdenlive:id">231</property>
   <filter id="filter1496">
    <property name="rotate_center">1</property>
    <property name="mlt_service">qtblend</property>
    <property name="kdenlive_id">qtblend</property>
    <property name="rect">00:00:00.000=950 535 19 10 1.000000;00:00:00.240=-48 -27 2016 1134 1.000000;00:00:00.360=0 0 1920 1080 1.000000;00:00:01.240=0 0 1920 1080 1.000000;00:00:01.360=0 63 1920 1080 1.000000;00:00:01.600=0 -1080 1920 1080 1.000000</property>
    <property name="rotation">00:00:00.000=0;00:00:00.240=0;00:00:00.360=0;00:00:01.240=0;00:00:01.360=0;00:00:01.600=0</property>
    <property name="compositing">0</property>
    <property name="distort">0</property>
   </filter>
  </entry>
  <blank length="00:00:16.760"/>
  <entry producer="producer652" in="00:00:00.000" out="00:00:06.840">
   <property name="kdenlive:id">231</property>
   <filter id="filter1497">
    <property name="rotate_center">1</property>
    <property name="mlt_service">qtblend</property>
    <property name="kdenlive_id">qtblend</property>
    <property name="rect">00:00:00.000=0 1080 1920 1080 1.000000;00:00:00.240=0 -51 1920 1080 1.000000;00:00:00.360=0 0 1920 1080 1.000000</property>
    <property name="rotation">00:00:00.000=0;00:00:00.240=0;00:00:00.360=0</property>
    <property name="compositing">0</property>
    <property name="distort">0</property>
   </filter>
  </entry>
  <blank length="00:00:00.520"/>
  <entry producer="producer614" in="00:00:00.000" out="00:01:14.560">
   <property name="kdenlive:id">811</property>
   <filter id="filter1498">
    <property name="rotate_center">1</property>
    <property name="mlt_service">qtblend</property>
    <property name="kdenlive_id">qtblend</property>
    <property name="rect">00:00:00.000=0 86 1920 1080 1.000000;00:00:00.240=0 -34 1920 1080 1.000000;00:00:00.360=0 0 1920 1080 1.000000</property>
    <property name="rotation">00:00:00.000=0;00:00:00.240=0;00:00:00.360=0</property>
    <property name="compositing">0</property>
    <property name="distort">0</property>
    <property name="kdenlive:collapsed">0</property>
   </filter>
   <filter id="filter1499" out="00:00:00.240">
    <property name="start">1</property>
    <property name="level">1</property>
    <property name="mlt_service">brightness</property>
    <property name="kdenlive_id">fade_from_black</property>
    <property name="alpha">00:00:00.000=0;00:00:00.240=1</property>
    <property name="kdenlive:collapsed">1</property>
   </filter>
   <filter id="filter1500" in="00:01:13.640" out="00:01:14.560">
    <property name="start">1</property>
    <property name="level">1</property>
    <property name="mlt_service">brightness</property>
    <property name="kdenlive_id">fade_to_black</property>
    <property name="alpha">00:00:00.000=1;00:00:00.920=0</property>
    <property name="kdenlive:collapsed">1</property>
   </filter>
  </entry>
  <entry producer="producer652" in="00:00:00.000" out="00:00:04.000">
   <property name="kdenlive:id">231</property>
   <filter id="filter1501">
    <property name="rotate_center">1</property>
    <property name="mlt_service">qtblend</property>
    <property name="kdenlive_id">qtblend</property>
    <property name="rect">00:00:00.000=0 1080 1920 1080 1.000000;00:00:00.240=0 -55 1920 1080 1.000000;00:00:00.360=0 0 1920 1080 1.000000;00:00:03.640=0 0 1920 1080 1.000000;00:00:03.760=0 49 1920 1080 1.000000;00:00:04.000=0 -1080 1920 1080 1.000000</property>
    <property name="rotation">00:00:00.000=0;00:00:00.240=0;00:00:00.360=0;00:00:03.640=0;00:00:03.760=0;00:00:04.000=0</property>
    <property name="compositing">0</property>
    <property name="distort">0</property>
   </filter>
  </entry>
  <blank length="00:00:26.360"/>
  <entry producer="producer615" in="00:00:00.000" out="00:00:03.680">
   <property name="kdenlive:id">816</property>
   <property name="kdenlive:activeeffect">1</property>
   <filter id="filter1502">
    <property name="rotate_center">1</property>
    <property name="mlt_service">qtblend</property>
    <property name="kdenlive_id">qtblend</property>
    <property name="rect">00:00:00.000=432 243 1054 593 1.000000</property>
    <property name="rotation">00:00:00.000=0</property>
    <property name="compositing">0</property>
    <property name="distort">0</property>
    <property name="kdenlive:collapsed">1</property>
   </filter>
   <filter id="filter1503">
    <property name="rotate_center">1</property>
    <property name="mlt_service">qtblend</property>
    <property name="kdenlive_id">qtblend</property>
    <property name="rect">00:00:00.000=1398 0 1920 1080 1.000000;00:00:00.240=283 0 1920 1080 1.000000;00:00:00.360=453 0 1920 1080 1.000000</property>
    <property name="rotation">00:00:00.000=0;00:00:00.240=0;00:00:00.360=0</property>
    <property name="compositing">0</property>
    <property name="distort">0</property>
    <property name="kdenlive:collapsed">0</property>
   </filter>
  </entry>
  <blank length="00:00:04.920"/>
  <entry producer="producer652" in="00:00:00.000" out="00:00:01.960">
   <property name="kdenlive:id">231</property>
   <filter id="filter1504">
    <property name="rotate_center">1</property>
    <property name="mlt_service">qtblend</property>
    <property name="kdenlive_id">qtblend</property>
    <property name="rect">00:00:00.000=0 1080 1920 1080 1.000000;00:00:00.240=0 -51 1920 1080 1.000000;00:00:00.360=0 0 1920 1080 1.000000</property>
    <property name="rotation">00:00:00.000=0;00:00:00.240=0;00:00:00.360=0</property>
    <property name="compositing">0</property>
    <property name="distort">0</property>
   </filter>
  </entry>
  <entry producer="producer299" in="00:00:00.000" out="00:00:20.120">
   <property name="kdenlive:id">346</property>
   <filter id="filter1505">
    <property name="rotate_center">1</property>
    <property name="mlt_service">qtblend</property>
    <property name="kdenlive_id">qtblend</property>
    <property name="rect">00:00:00.000=48 27 1824 1026 1.000000;00:00:00.360=0 0 1920 1080 1.000000</property>
    <property name="rotation">00:00:00.000=0;00:00:00.360=0</property>
    <property name="compositing">0</property>
    <property name="distort">0</property>
    <property name="kdenlive:collapsed">1</property>
   </filter>
   <filter id="filter1506" out="00:00:00.240">
    <property name="start">1</property>
    <property name="level">1</property>
    <property name="mlt_service">brightness</property>
    <property name="kdenlive_id">fade_from_black</property>
    <property name="alpha">00:00:00.000=0;00:00:00.240=1</property>
    <property name="kdenlive:collapsed">0</property>
   </filter>
   <filter id="filter1507" in="00:00:19.200" out="00:00:20.120">
    <property name="start">1</property>
    <property name="level">1</property>
    <property name="mlt_service">brightness</property>
    <property name="kdenlive_id">fade_to_black</property>
    <property name="alpha">00:00:00.000=1;00:00:00.920=0</property>
    <property name="kdenlive:collapsed">0</property>
   </filter>
  </entry>
  <blank length="00:00:10.120"/>
  <entry producer="producer620" in="00:00:00.000" out="00:00:03.040">
   <property name="kdenlive:id">828</property>
   <property name="kdenlive:activeeffect">1</property>
   <filter id="filter1508">
    <property name="rotate_center">1</property>
    <property name="mlt_service">qtblend</property>
    <property name="kdenlive_id">qtblend</property>
    <property name="rect">00:00:00.000=335 189 1248 702 1.000000;00:00:03.040=294 166 1331 748 1.000000</property>
    <property name="rotation">00:00:00.000=0;00:00:03.040=0</property>
    <property name="compositing">0</property>
    <property name="distort">0</property>
    <property name="kdenlive:collapsed">1</property>
   </filter>
   <filter id="filter1509">
    <property name="rotate_center">1</property>
    <property name="mlt_service">qtblend</property>
    <property name="kdenlive_id">qtblend</property>
    <property name="rect">00:00:00.000=0 1080 1920 1080 1.000000;00:00:00.240=0 -50 1920 1080 1.000000;00:00:00.360=0 0 1920 1080 1.000000;00:00:02.680=0 0 1920 1080 1.000000;00:00:02.800=0 56 1920 1080 1.000000;00:00:03.040=0 -1080 1920 1080 1.000000</property>
    <property name="rotation">00:00:00.000=0;00:00:00.240=0;00:00:00.360=0;00:00:02.680=0;00:00:02.800=0;00:00:03.040=0</property>
    <property name="compositing">0</property>
    <property name="distort">0</property>
    <property name="kdenlive:collapsed">0</property>
   </filter>
  </entry>
  <blank length="00:00:02.240"/>
  <entry producer="producer652" in="00:00:00.000" out="00:00:04.480">
   <property name="kdenlive:id">231</property>
   <property name="kdenlive:activeeffect">-1</property>
   <filter id="filter1510">
    <property name="rotate_center">1</property>
    <property name="mlt_service">qtblend</property>
    <property name="kdenlive_id">qtblend</property>
    <property name="rect">00:00:00.000=0 1080 1920 1080 1.000000;00:00:00.240=0 -50 1920 1080 1.000000;00:00:00.360=0 0 1920 1080 1.000000;00:00:04.120=0 0 1920 1080 1.000000;00:00:04.240=0 41 1920 1080 1.000000;00:00:04.480=0 -1080 1920 1080 1.000000</property>
    <property name="rotation">00:00:00.000=0;00:00:00.240=0;00:00:00.360=0;00:00:04.120=0;00:00:04.240=0;00:00:04.480=0</property>
    <property name="compositing">0</property>
    <property name="distort">0</property>
    <property name="kdenlive:collapsed">0</property>
   </filter>
  </entry>
  <blank length="00:00:30.600"/>
  <entry producer="producer516" in="00:00:00.000" out="00:00:03.360">
   <property name="kdenlive:id">659</property>
   <filter id="filter1511">
    <property name="rotate_center">1</property>
    <property name="mlt_service">qtblend</property>
    <property name="kdenlive_id">qtblend</property>
    <property name="rect">00:00:00.000=0 65 1920 1080 1.000000;00:00:00.240=0 0 1920 1080 1.000000</property>
    <property name="rotation">00:00:00.000=0;00:00:00.240=0</property>
    <property name="compositing">0</property>
    <property name="distort">0</property>
    <property name="kdenlive:collapsed">0</property>
   </filter>
   <filter id="filter1512" out="00:00:00.240">
    <property name="start">1</property>
    <property name="level">1</property>
    <property name="mlt_service">brightness</property>
    <property name="kdenlive_id">fade_from_black</property>
    <property name="alpha">00:00:00.000=0;00:00:00.240=1</property>
    <property name="kdenlive:collapsed">0</property>
   </filter>
  </entry>
  <blank length="00:00:06.280"/>
  <entry producer="producer681" in="00:00:00.000" out="00:00:06.080">
   <property name="kdenlive:id">837</property>
   <filter id="filter1513">
    <property name="rotate_center">1</property>
    <property name="mlt_service">qtblend</property>
    <property name="kdenlive_id">qtblend</property>
    <property name="rect">00:00:00.000=0 65 1920 1080 1.000000;00:00:00.240=0 0 1920 1080 1.000000</property>
    <property name="rotation">00:00:00.000=0;00:00:00.240=0</property>
    <property name="compositing">0</property>
    <property name="distort">0</property>
    <property name="kdenlive:collapsed">0</property>
   </filter>
   <filter id="filter1514" out="00:00:00.240">
    <property name="start">1</property>
    <property name="level">1</property>
    <property name="mlt_service">brightness</property>
    <property name="kdenlive_id">fade_from_black</property>
    <property name="alpha">00:00:00.000=0;00:00:00.240=1</property>
    <property name="kdenlive:collapsed">0</property>
   </filter>
   <filter id="filter1515">
    <property name="rotate_center">1</property>
    <property name="mlt_service">qtblend</property>
    <property name="kdenlive_id">qtblend</property>
    <property name="rect">00:00:00.000=0 0 1920 1080 1.000000;00:00:05.760=0 0 1920 1080 1.000000;00:00:06.080=0 -50 1920 1080 1.000000</property>
    <property name="rotation">00:00:00.000=0;00:00:05.760=0;00:00:06.080=0</property>
    <property name="compositing">0</property>
    <property name="distort">0</property>
    <property name="kdenlive:collapsed">1</property>
   </filter>
   <filter id="filter1516" in="00:00:05.760" out="00:00:06.080">
    <property name="start">1</property>
    <property name="level">1</property>
    <property name="mlt_service">brightness</property>
    <property name="kdenlive_id">fade_to_black</property>
    <property name="alpha">00:00:00.000=1;00:00:00.320=0</property>
   </filter>
  </entry>
  <entry producer="producer652" in="00:00:00.000" out="00:00:13.800">
   <property name="kdenlive:id">231</property>
   <filter id="filter1517">
    <property name="rotate_center">1</property>
    <property name="mlt_service">qtblend</property>
    <property name="kdenlive_id">qtblend</property>
    <property name="rect">00:00:00.000=0 1080 1920 1080 1.000000;00:00:00.240=0 -42 1920 1080 1.000000;00:00:00.360=0 0 1920 1080 1.000000</property>
    <property name="rotation">00:00:00.000=0;00:00:00.240=0;00:00:00.360=0</property>
    <property name="compositing">0</property>
    <property name="distort">0</property>
   </filter>
  </entry>
  <blank length="00:00:00.480"/>
  <entry producer="producer600" in="00:00:00.000" out="00:00:13.480">
   <property name="kdenlive:id">793</property>
   <filter id="filter1518">
    <property name="rotate_center">1</property>
    <property name="mlt_service">qtblend</property>
    <property name="kdenlive_id">qtblend</property>
    <property name="rect">00:00:00.000=0 86 1920 1080 1.000000;00:00:00.240=0 -34 1920 1080 1.000000;00:00:00.360=0 0 1920 1080 1.000000</property>
    <property name="rotation">00:00:00.000=0;00:00:00.240=0;00:00:00.360=0</property>
    <property name="compositing">0</property>
    <property name="distort">0</property>
    <property name="kdenlive:collapsed">0</property>
   </filter>
   <filter id="filter1519" out="00:00:00.240">
    <property name="start">1</property>
    <property name="level">1</property>
    <property name="mlt_service">brightness</property>
    <property name="kdenlive_id">fade_from_black</property>
    <property name="alpha">00:00:00.000=0;00:00:00.240=1</property>
    <property name="kdenlive:collapsed">1</property>
   </filter>
   <filter id="filter1520" in="00:00:12.600" out="00:00:13.520">
    <property name="start">1</property>
    <property name="level">1</property>
    <property name="mlt_service">brightness</property>
    <property name="kdenlive_id">fade_to_black</property>
    <property name="alpha">00:00:00.000=1;00:00:00.920=0</property>
    <property name="kdenlive:collapsed">1</property>
   </filter>
  </entry>
  <blank length="00:00:13.720"/>
  <entry producer="producer652" in="00:00:00.000" out="00:00:09.400">
   <property name="kdenlive:id">231</property>
   <filter id="filter1521">
    <property name="rotate_center">1</property>
    <property name="mlt_service">qtblend</property>
    <property name="kdenlive_id">qtblend</property>
    <property name="rect">00:00:00.000=0 1080 1920 1080 1.000000;00:00:00.240=0 -42 1920 1080 1.000000;00:00:00.360=0 0 1920 1080 1.000000</property>
    <property name="rotation">00:00:00.000=0;00:00:00.240=0;00:00:00.360=0</property>
    <property name="compositing">0</property>
    <property name="distort">0</property>
   </filter>
  </entry>
  <blank length="00:00:00.480"/>
  <entry producer="producer600" in="00:00:00.000" out="00:01:11.560">
   <property name="kdenlive:id">793</property>
   <filter id="filter1522">
    <property name="rotate_center">1</property>
    <property name="mlt_service">qtblend</property>
    <property name="kdenlive_id">qtblend</property>
    <property name="rect">00:00:00.000=0 86 1920 1080 1.000000;00:00:00.240=0 -34 1920 1080 1.000000;00:00:00.360=0 0 1920 1080 1.000000</property>
    <property name="rotation">00:00:00.000=0;00:00:00.240=0;00:00:00.360=0</property>
    <property name="compositing">0</property>
    <property name="distort">0</property>
    <property name="kdenlive:collapsed">0</property>
   </filter>
   <filter id="filter1523" out="00:00:00.240">
    <property name="start">1</property>
    <property name="level">1</property>
    <property name="mlt_service">brightness</property>
    <property name="kdenlive_id">fade_from_black</property>
    <property name="alpha">00:00:00.000=0;00:00:00.240=1</property>
    <property name="kdenlive:collapsed">1</property>
   </filter>
   <filter id="filter1524" in="00:01:10.680" out="00:01:11.600">
    <property name="start">1</property>
    <property name="level">1</property>
    <property name="mlt_service">brightness</property>
    <property name="kdenlive_id">fade_to_black</property>
    <property name="alpha">00:00:00.000=1;00:00:00.920=0</property>
    <property name="kdenlive:collapsed">1</property>
   </filter>
  </entry>
  <blank length="00:00:09.800"/>
  <entry producer="producer652" in="00:00:00.000" out="00:00:15.120">
   <property name="kdenlive:id">231</property>
   <filter id="filter1525">
    <property name="rotate_center">1</property>
    <property name="mlt_service">qtblend</property>
    <property name="kdenlive_id">qtblend</property>
    <property name="rect">00:00:00.000=0 1080 1920 1080 1.000000;00:00:00.240=0 -70 1920 1080 1.000000;00:00:00.360=0 0 1920 1080 1.000000;00:00:14.760=0 0 1920 1080 1.000000;00:00:14.880=0 76 1920 1080 1.000000;00:00:15.120=0 -1080 1920 1080 1.000000</property>
    <property name="rotation">00:00:00.000=0;00:00:00.240=0;00:00:00.360=0;00:00:14.760=0;00:00:14.880=0;00:00:15.120=0</property>
    <property name="compositing">0</property>
    <property name="distort">0</property>
    <property name="kdenlive:collapsed">0</property>
   </filter>
  </entry>
  <blank length="00:00:21.080"/>
  <entry producer="producer652" in="00:00:00.000" out="00:00:12.200">
   <property name="kdenlive:id">231</property>
   <property name="kdenlive:activeeffect">-1</property>
   <filter id="filter1526">
    <property name="rotate_center">1</property>
    <property name="mlt_service">qtblend</property>
    <property name="kdenlive_id">qtblend</property>
    <property name="rect">00:00:00.000=0 1080 1920 1080 1.000000;00:00:00.240=0 -56 1920 1080 1.000000;00:00:00.360=0 0 1920 1080 1.000000</property>
    <property name="rotation">00:00:00.000=0;00:00:00.240=0;00:00:00.360=0</property>
    <property name="compositing">0</property>
    <property name="distort">0</property>
   </filter>
  </entry>
  <blank length="00:00:16.240"/>
  <entry producer="producer682" in="00:00:00.000" out="00:00:03.120">
   <property name="kdenlive:id">853</property>
   <property name="kdenlive:activeeffect">0</property>
   <filter id="filter1527">
    <property name="rotate_center">1</property>
    <property name="mlt_service">qtblend</property>
    <property name="kdenlive_id">qtblend</property>
    <property name="rect">00:00:00.000=-378 -1 2682 1509 1.000000;00:00:03.120=-378 -124 2682 1509 1.000000</property>
    <property name="rotation">00:00:00.000=0;00:00:03.120=0</property>
    <property name="compositing">0</property>
    <property name="distort">0</property>
    <property name="kdenlive:collapsed">0</property>
   </filter>
  </entry>
  <blank length="00:01:03.520"/>
  <entry producer="producer652" in="00:00:00.000" out="00:00:14.880">
   <property name="kdenlive:id">231</property>
   <property name="kdenlive:activeeffect">-1</property>
   <filter id="filter1528">
    <property name="rotate_center">1</property>
    <property name="mlt_service">qtblend</property>
    <property name="kdenlive_id">qtblend</property>
    <property name="rect">00:00:00.000=0 1080 1920 1080 1.000000;00:00:00.240=0 -52 1920 1080 1.000000;00:00:00.360=0 0 1920 1080 1.000000;00:00:14.520=0 0 1920 1080 1.000000;00:00:14.640=0 56 1920 1080 1.000000;00:00:14.880=0 -1080 1920 1080 1.000000</property>
    <property name="rotation">00:00:00.000=0;00:00:00.240=0;00:00:00.360=0;00:00:14.520=0;00:00:14.640=0;00:00:14.880=0</property>
    <property name="compositing">0</property>
    <property name="distort">0</property>
    <property name="kdenlive:collapsed">0</property>
   </filter>
  </entry>
  <blank length="00:00:30.080"/>
  <entry producer="producer652" in="00:00:00.000" out="00:00:04.840">
   <property name="kdenlive:id">231</property>
   <filter id="filter1529">
    <property name="rotate_center">1</property>
    <property name="mlt_service">qtblend</property>
    <property name="kdenlive_id">qtblend</property>
    <property name="rect">00:00:00.000=0 1080 1920 1080 1.000000;00:00:00.240=0 -82 1920 1080 1.000000;00:00:00.360=0 0 1920 1080 1.000000</property>
    <property name="rotation">00:00:00.000=0;00:00:00.240=0;00:00:00.360=0</property>
    <property name="compositing">0</property>
    <property name="distort">0</property>
   </filter>
  </entry>
  <blank length="00:00:00.520"/>
  <entry producer="producer683" in="00:00:00.000" out="00:00:36.360">
   <property name="kdenlive:id">894</property>
   <filter id="filter1530">
    <property name="rotate_center">1</property>
    <property name="mlt_service">qtblend</property>
    <property name="kdenlive_id">qtblend</property>
    <property name="rect">00:00:00.000=0 86 1920 1080 1.000000;00:00:00.240=0 -34 1920 1080 1.000000;00:00:00.360=0 0 1920 1080 1.000000</property>
    <property name="rotation">00:00:00.000=0;00:00:00.240=0;00:00:00.360=0</property>
    <property name="compositing">0</property>
    <property name="distort">0</property>
   </filter>
   <filter id="filter1531" out="00:00:00.240">
    <property name="start">1</property>
    <property name="level">1</property>
    <property name="mlt_service">brightness</property>
    <property name="kdenlive_id">fade_from_black</property>
    <property name="alpha">00:00:00.000=0;00:00:00.240=1</property>
    <property name="kdenlive:collapsed">1</property>
   </filter>
   <filter id="filter1532" in="00:00:35.480" out="00:00:36.400">
    <property name="start">1</property>
    <property name="level">1</property>
    <property name="mlt_service">brightness</property>
    <property name="kdenlive_id">fade_to_black</property>
    <property name="alpha">00:00:00.000=1;00:00:00.920=0</property>
    <property name="kdenlive:collapsed">1</property>
   </filter>
  </entry>
 </playlist>
 <playlist id="playlist17"/>
 <tractor id="tractor8" in="00:00:00.000" out="01:12:45.280">
  <property name="kdenlive:trackheight">67</property>
  <property name="kdenlive:timeline_active">1</property>
  <property name="kdenlive:collapsed">0</property>
  <property name="kdenlive:thumbs_format"/>
  <property name="kdenlive:audio_rec"/>
  <track hide="audio" producer="playlist16"/>
  <track hide="audio" producer="playlist17"/>
 </tractor>
 <chain id="chain424" out="00:00:17.520">
  <property name="length">439</property>
  <property name="eof">pause</property>
  <property name="resource">animation/output/bob-and-alice/bob-and-alice.mp4</property>
  <property name="mlt_service">avformat-novalidate</property>
  <property name="seekable">1</property>
  <property name="format">3</property>
  <property name="audio_index">1</property>
  <property name="video_index">0</property>
  <property name="kdenlive:clipname"/>
  <property name="kdenlive:clip_type">0</property>
  <property name="kdenlive:folderid">-1</property>
  <property name="kdenlive:id">240</property>
  <property name="kdenlive:file_size">8995547</property>
  <property name="kdenlive:file_hash">68b5013cb6c8f1a634069f9dde28cd85</property>
  <property name="kdenlive:audio_max1">71</property>
  <property name="meta.media.nb_streams">2</property>
  <property name="meta.media.0.stream.type">video</property>
  <property name="meta.media.0.stream.frame_rate">25</property>
  <property name="meta.media.0.stream.sample_aspect_ratio">1</property>
  <property name="meta.media.0.codec.width">1920</property>
  <property name="meta.media.0.codec.height">1080</property>
  <property name="meta.media.0.codec.rotate">0</property>
  <property name="meta.media.0.codec.pix_fmt">yuv420p</property>
  <property name="meta.media.0.codec.sample_aspect_ratio">1</property>
  <property name="meta.media.0.codec.colorspace">709</property>
  <property name="meta.media.0.codec.color_trc">1</property>
  <property name="meta.media.0.codec.name">h264</property>
  <property name="meta.media.0.codec.long_name">H.264 / AVC / MPEG-4 AVC / MPEG-4 part 10</property>
  <property name="meta.media.0.codec.bit_rate">3934891</property>
  <property name="meta.attr.0.stream.handler_name.markup">VideoHandler</property>
  <property name="meta.attr.0.stream.vendor_id.markup">[0][0][0][0]</property>
  <property name="meta.media.1.stream.type">audio</property>
  <property name="meta.media.1.codec.sample_fmt">fltp</property>
  <property name="meta.media.1.codec.sample_rate">48000</property>
  <property name="meta.media.1.codec.channels">2</property>
  <property name="meta.media.1.codec.name">aac</property>
  <property name="meta.media.1.codec.long_name">AAC (Advanced Audio Coding)</property>
  <property name="meta.media.1.codec.bit_rate">156226</property>
  <property name="meta.attr.1.stream.handler_name.markup">SoundHandler</property>
  <property name="meta.attr.1.stream.vendor_id.markup">[0][0][0][0]</property>
  <property name="meta.attr.major_brand.markup">isom</property>
  <property name="meta.attr.minor_version.markup">512</property>
  <property name="meta.attr.compatible_brands.markup">isomiso2avc1mp41</property>
  <property name="meta.attr.encoder.markup">Lavf59.27.100</property>
  <property name="meta.media.sample_aspect_num">1</property>
  <property name="meta.media.sample_aspect_den">1</property>
  <property name="meta.media.frame_rate_num">25</property>
  <property name="meta.media.frame_rate_den">1</property>
  <property name="meta.media.colorspace">709</property>
  <property name="meta.media.color_trc">1</property>
  <property name="meta.media.has_b_frames">2</property>
  <property name="meta.media.width">1920</property>
  <property name="meta.media.height">1080</property>
  <property name="meta.media.color_range">mpeg</property>
  <property name="xml">was here</property>
  <property name="meta.media.top_field_first">0</property>
  <property name="meta.media.progressive">1</property>
  <property name="set.test_audio">1</property>
  <property name="set.test_image">0</property>
  <property name="mute_on_pause">1</property>
 </chain>
 <chain id="chain425" out="00:17:49.800">
  <property name="length">26746</property>
  <property name="eof">pause</property>
  <property name="resource">b-roll/How AI Image Generators Work (Stable Diffusion â§¸ Dall-E) - Computerphile [1CIpzeNxIhU].webm</property>
  <property name="mlt_service">avformat-novalidate</property>
  <property name="seekable">1</property>
  <property name="format">3</property>
  <property name="audio_index">-1</property>
  <property name="video_index">0</property>
  <property name="kdenlive:clipname"/>
  <property name="kdenlive:clip_type">0</property>
  <property name="kdenlive:folderid">-1</property>
  <property name="kdenlive:id">249</property>
  <property name="kdenlive:file_size">2792359423</property>
  <property name="kdenlive:file_hash">d6b5bf6152b6536bdb411f09b8ac9c22</property>
  <property name="kdenlive:audio_max1">215</property>
  <property name="kdenlive:active_streams">-1</property>
  <property name="set.test_audio">1</property>
  <property name="meta.media.nb_streams">2</property>
  <property name="meta.media.0.stream.type">video</property>
  <property name="meta.media.0.stream.frame_rate">50</property>
  <property name="meta.media.0.stream.sample_aspect_ratio">1</property>
  <property name="meta.media.0.codec.width">3840</property>
  <property name="meta.media.0.codec.height">2160</property>
  <property name="meta.media.0.codec.rotate">0</property>
  <property name="meta.media.0.codec.pix_fmt">yuv420p</property>
  <property name="meta.media.0.codec.sample_aspect_ratio">0</property>
  <property name="meta.media.0.codec.colorspace">709</property>
  <property name="meta.media.0.codec.color_trc">1</property>
  <property name="meta.media.0.codec.name">vp9</property>
  <property name="meta.media.0.codec.long_name">Google VP9</property>
  <property name="meta.media.0.codec.bit_rate">0</property>
  <property name="meta.attr.0.stream.language.markup">eng</property>
  <property name="meta.attr.0.stream.DURATION.markup">00:17:49.800000000</property>
  <property name="meta.media.1.stream.type">audio</property>
  <property name="meta.media.1.codec.sample_fmt">fltp</property>
  <property name="meta.media.1.codec.sample_rate">48000</property>
  <property name="meta.media.1.codec.channels">2</property>
  <property name="meta.media.1.codec.name">opus</property>
  <property name="meta.media.1.codec.long_name">Opus</property>
  <property name="meta.media.1.codec.bit_rate">0</property>
  <property name="meta.attr.1.stream.language.markup">eng</property>
  <property name="meta.attr.1.stream.DURATION.markup">00:17:49.821000000</property>
  <property name="meta.attr.ENCODER.markup">Lavf59.27.100</property>
  <property name="meta.media.sample_aspect_num">1</property>
  <property name="meta.media.sample_aspect_den">1</property>
  <property name="meta.media.frame_rate_num">50</property>
  <property name="meta.media.frame_rate_den">1</property>
  <property name="meta.media.colorspace">709</property>
  <property name="meta.media.color_trc">1</property>
  <property name="meta.media.has_b_frames">0</property>
  <property name="meta.media.width">3840</property>
  <property name="meta.media.height">2160</property>
  <property name="meta.media.color_range">mpeg</property>
  <property name="xml">was here</property>
  <property name="meta.media.top_field_first">0</property>
  <property name="meta.media.progressive">1</property>
  <property name="set.test_image">0</property>
  <property name="mute_on_pause">1</property>
 </chain>
 <producer id="producer684" in="00:00:00.000" out="00:00:18.160">
  <property name="length">455</property>
  <property name="eof">pause</property>
  <property name="resource">15.000000:videos/aeroplane-redraw.mkv</property>
  <property name="aspect_ratio">1</property>
  <property name="meta.media.nb_streams">2</property>
  <property name="meta.media.0.stream.type">video</property>
  <property name="meta.media.0.stream.frame_rate">23.976</property>
  <property name="meta.media.0.stream.sample_aspect_ratio">0</property>
  <property name="meta.media.0.codec.width">1280</property>
  <property name="meta.media.0.codec.height">720</property>
  <property name="meta.media.0.codec.rotate">0</property>
  <property name="meta.media.0.codec.pix_fmt">yuv420p</property>
  <property name="meta.media.0.codec.sample_aspect_ratio">1</property>
  <property name="meta.media.0.codec.colorspace">709</property>
  <property name="meta.media.0.codec.color_trc">1</property>
  <property name="meta.media.0.codec.name">h264</property>
  <property name="meta.media.0.codec.long_name">H.264 / AVC / MPEG-4 AVC / MPEG-4 part 10</property>
  <property name="meta.media.0.codec.bit_rate">0</property>
  <property name="meta.attr.0.stream.DURATION.markup">00:04:32.940000000</property>
  <property name="meta.media.1.stream.type">audio</property>
  <property name="meta.media.1.codec.sample_fmt">fltp</property>
  <property name="meta.media.1.codec.sample_rate">48000</property>
  <property name="meta.media.1.codec.channels">2</property>
  <property name="meta.media.1.codec.name">aac</property>
  <property name="meta.media.1.codec.long_name">AAC (Advanced Audio Coding)</property>
  <property name="meta.media.1.codec.bit_rate">0</property>
  <property name="meta.attr.1.stream.title.markup">simple_aac_recording</property>
  <property name="meta.attr.1.stream.DURATION.markup">00:04:32.746000000</property>
  <property name="meta.attr.ENCODER.markup">Lavf59.27.100</property>
  <property name="seekable">1</property>
  <property name="meta.media.sample_aspect_num">1</property>
  <property name="meta.media.sample_aspect_den">1</property>
  <property name="format">3</property>
  <property name="audio_index">-1</property>
  <property name="video_index">0</property>
  <property name="mute_on_pause">1</property>
  <property name="warp_speed">15</property>
  <property name="warp_resource">videos/aeroplane-redraw.mkv</property>
  <property name="mlt_service">timewarp</property>
  <property name="set.test_audio">1</property>
  <property name="set.test_image">0</property>
  <property name="kdenlive:id">250</property>
  <property name="warp_pitch">0</property>
  <property name="meta.media.frame_rate_num">24000</property>
  <property name="meta.media.frame_rate_den">1001</property>
  <property name="meta.media.colorspace">709</property>
  <property name="meta.media.color_trc">1</property>
  <property name="meta.media.has_b_frames">2</property>
  <property name="meta.media.width">1280</property>
  <property name="meta.media.height">720</property>
  <property name="meta.media.color_range">mpeg</property>
  <property name="meta.media.top_field_first">0</property>
  <property name="meta.media.progressive">1</property>
 </producer>
 <chain id="chain426" out="00:15:34.160">
  <property name="length">23355</property>
  <property name="eof">pause</property>
  <property name="resource">b-roll/3 STEPS TO INSTANTLY FIND YOUR STYLEï½œ NEVER draw from IMAGINATION! [NEvMHRgPdyk].webm</property>
  <property name="mlt_service">avformat-novalidate</property>
  <property name="seekable">1</property>
  <property name="format">3</property>
  <property name="audio_index">-1</property>
  <property name="video_index">0</property>
  <property name="kdenlive:clipname"/>
  <property name="kdenlive:clip_type">0</property>
  <property name="kdenlive:folderid">-1</property>
  <property name="kdenlive:id">270</property>
  <property name="kdenlive:file_size">321499413</property>
  <property name="kdenlive:file_hash">24441613172d8b1b8af667f54f067d57</property>
  <property name="kdenlive:audio_max1">214</property>
  <property name="kdenlive:active_streams">-1</property>
  <property name="set.test_audio">1</property>
  <property name="meta.media.nb_streams">2</property>
  <property name="meta.media.0.stream.type">video</property>
  <property name="meta.media.0.stream.frame_rate">23.9794</property>
  <property name="meta.media.0.stream.sample_aspect_ratio">1</property>
  <property name="meta.media.0.codec.width">1920</property>
  <property name="meta.media.0.codec.height">1080</property>
  <property name="meta.media.0.codec.rotate">0</property>
  <property name="meta.media.0.codec.pix_fmt">yuv420p</property>
  <property name="meta.media.0.codec.sample_aspect_ratio">0</property>
  <property name="meta.media.0.codec.colorspace">709</property>
  <property name="meta.media.0.codec.color_trc">1</property>
  <property name="meta.media.0.codec.name">vp9</property>
  <property name="meta.media.0.codec.long_name">Google VP9</property>
  <property name="meta.media.0.codec.bit_rate">0</property>
  <property name="meta.attr.0.stream.HANDLER_NAME.markup">ISO Media file produced by Google Inc. Created on: 12/11/2023.</property>
  <property name="meta.attr.0.stream.VENDOR_ID.markup">[0][0][0][0]</property>
  <property name="meta.attr.0.stream.DURATION.markup">00:15:34.182000000</property>
  <property name="meta.media.1.stream.type">audio</property>
  <property name="meta.media.1.codec.sample_fmt">fltp</property>
  <property name="meta.media.1.codec.sample_rate">48000</property>
  <property name="meta.media.1.codec.channels">2</property>
  <property name="meta.media.1.codec.name">opus</property>
  <property name="meta.media.1.codec.long_name">Opus</property>
  <property name="meta.media.1.codec.bit_rate">0</property>
  <property name="meta.attr.1.stream.language.markup">eng</property>
  <property name="meta.attr.1.stream.DURATION.markup">00:15:34.201000000</property>
  <property name="meta.attr.COMPATIBLE_BRANDS.markup">iso6mp41</property>
  <property name="meta.attr.MAJOR_BRAND.markup">dash</property>
  <property name="meta.attr.MINOR_VERSION.markup">0</property>
  <property name="meta.attr.ENCODER.markup">Lavf59.27.100</property>
  <property name="meta.media.sample_aspect_num">1</property>
  <property name="meta.media.sample_aspect_den">1</property>
  <property name="meta.media.frame_rate_num">22109</property>
  <property name="meta.media.frame_rate_den">922</property>
  <property name="meta.media.colorspace">709</property>
  <property name="meta.media.color_trc">1</property>
  <property name="meta.media.has_b_frames">0</property>
  <property name="meta.media.width">1920</property>
  <property name="meta.media.height">1080</property>
  <property name="meta.media.color_range">mpeg</property>
  <property name="xml">was here</property>
  <property name="meta.media.top_field_first">0</property>
  <property name="meta.media.progressive">1</property>
  <property name="set.test_image">0</property>
  <property name="mute_on_pause">1</property>
 </chain>
 <producer id="producer685" in="00:00:00.000" out="00:00:19.680">
  <property name="length">00:00:19.720</property>
  <property name="eof">pause</property>
  <property name="resource">/home/liquidzulu/Pictures/yt/animation/output/project/footnotes/footnote-2/.all.png</property>
  <property name="ttl">1</property>
  <property name="aspect_ratio">1</property>
  <property name="progressive">1</property>
  <property name="seekable">1</property>
  <property name="format">2</property>
  <property name="meta.media.width">1920</property>
  <property name="meta.media.height">1080</property>
  <property name="mlt_service">qimage</property>
  <property name="kdenlive:clipname">footnote-2</property>
  <property name="low-pass">0</property>
  <property name="animation"/>
  <property name="luma_file"/>
  <property name="luma_duration">25</property>
  <property name="fade">0</property>
  <property name="crop">0</property>
  <property name="softness">0</property>
  <property name="loop">0</property>
  <property name="kdenlive:duration">00:00:19:18</property>
  <property name="kdenlive:folderid">273</property>
  <property name="kdenlive:id">297</property>
  <property name="kdenlive:clip_type">2</property>
  <property name="kdenlive:file_hash">13b60ffc0f1c33047118e3fea4153a98</property>
  <property name="xml">was here</property>
  <property name="set.test_audio">1</property>
  <property name="set.test_image">0</property>
 </producer>
 <producer id="producer687" in="00:00:00.000" out="00:00:46.360">
  <property name="length">1160</property>
  <property name="eof">pause</property>
  <property name="resource">/home/liquidzulu/Pictures/yt/animation/output/project/squiggly-two-thirds/.all.png</property>
  <property name="ttl">1</property>
  <property name="aspect_ratio">1</property>
  <property name="progressive">1</property>
  <property name="seekable">1</property>
  <property name="format">2</property>
  <property name="meta.media.width">1920</property>
  <property name="meta.media.height">1080</property>
  <property name="mlt_service">qimage</property>
  <property name="kdenlive:clipname">Squiggly Border</property>
  <property name="low-pass">0</property>
  <property name="animation"/>
  <property name="luma_file"/>
  <property name="luma_duration">25</property>
  <property name="fade">0</property>
  <property name="crop">0</property>
  <property name="softness">0</property>
  <property name="loop">1</property>
  <property name="kdenlive:duration">00:00:12:08</property>
  <property name="kdenlive:folderid">218</property>
  <property name="kdenlive:id">231</property>
  <property name="kdenlive:clip_type">2</property>
  <property name="kdenlive:file_hash">98ba2f58a7b8ff51461b91634c07a5c8</property>
  <property name="xml">was here</property>
  <property name="set.test_audio">1</property>
  <property name="set.test_image">0</property>
 </producer>
 <producer id="producer688" in="00:00:00.000" out="00:00:19.680">
  <property name="length">00:00:19.720</property>
  <property name="eof">pause</property>
  <property name="resource">/home/liquidzulu/Pictures/yt/animation/output/project/footnotes/footnote-4/.all.png</property>
  <property name="ttl">1</property>
  <property name="aspect_ratio">1</property>
  <property name="progressive">1</property>
  <property name="seekable">1</property>
  <property name="format">2</property>
  <property name="meta.media.width">1920</property>
  <property name="meta.media.height">1080</property>
  <property name="mlt_service">qimage</property>
  <property name="kdenlive:clipname">footnote-4</property>
  <property name="low-pass">0</property>
  <property name="animation"/>
  <property name="luma_file"/>
  <property name="luma_duration">25</property>
  <property name="fade">0</property>
  <property name="crop">0</property>
  <property name="softness">0</property>
  <property name="loop">0</property>
  <property name="kdenlive:duration">00:00:19:18</property>
  <property name="kdenlive:folderid">273</property>
  <property name="kdenlive:id">339</property>
  <property name="kdenlive:clip_type">2</property>
  <property name="kdenlive:file_hash">657dfc1a0cbd04cdab051769acee51ce</property>
  <property name="xml">was here</property>
  <property name="set.test_audio">1</property>
  <property name="set.test_image">0</property>
 </producer>
 <producer id="producer690" in="00:00:00.000" out="00:00:19.680">
  <property name="length">00:00:19.720</property>
  <property name="eof">pause</property>
  <property name="resource">/home/liquidzulu/Pictures/yt/animation/output/project/footnotes/footnote-5/.all.png</property>
  <property name="ttl">1</property>
  <property name="aspect_ratio">1</property>
  <property name="progressive">1</property>
  <property name="seekable">1</property>
  <property name="format">2</property>
  <property name="meta.media.width">1920</property>
  <property name="meta.media.height">1080</property>
  <property name="mlt_service">qimage</property>
  <property name="kdenlive:clipname">footnote-5</property>
  <property name="low-pass">0</property>
  <property name="animation"/>
  <property name="luma_file"/>
  <property name="luma_duration">25</property>
  <property name="fade">0</property>
  <property name="crop">0</property>
  <property name="softness">0</property>
  <property name="loop">0</property>
  <property name="kdenlive:duration">00:00:19:18</property>
  <property name="kdenlive:folderid">-1</property>
  <property name="kdenlive:id">340</property>
  <property name="kdenlive:clip_type">2</property>
  <property name="kdenlive:file_hash">982ab9c1e6cb7125e288d29845c74504</property>
  <property name="xml">was here</property>
  <property name="set.test_audio">1</property>
  <property name="set.test_image">0</property>
 </producer>
 <chain id="chain429" out="00:22:16.600">
  <property name="length">33416</property>
  <property name="eof">pause</property>
  <property name="resource">b-roll/AI ï¼‚Animeï¼‚ - An Insult to Life Itself (reï¼š Corridor &amp; Netflix) [GOwxXj1EIXM].webm</property>
  <property name="mlt_service">avformat-novalidate</property>
  <property name="seekable">1</property>
  <property name="format">3</property>
  <property name="audio_index">-1</property>
  <property name="video_index">0</property>
  <property name="kdenlive:clipname"/>
  <property name="kdenlive:clip_type">0</property>
  <property name="kdenlive:folderid">14</property>
  <property name="kdenlive:id">343</property>
  <property name="kdenlive:file_size">457011961</property>
  <property name="kdenlive:file_hash">199853dc5ba0ac59679b29b9e54d6d33</property>
  <property name="kdenlive:audio_max1">192</property>
  <property name="kdenlive:active_streams">-1</property>
  <property name="set.test_audio">1</property>
  <property name="meta.media.nb_streams">2</property>
  <property name="meta.media.0.stream.type">video</property>
  <property name="meta.media.0.stream.frame_rate">59.9401</property>
  <property name="meta.media.0.stream.sample_aspect_ratio">1</property>
  <property name="meta.media.0.codec.width">1920</property>
  <property name="meta.media.0.codec.height">1080</property>
  <property name="meta.media.0.codec.rotate">0</property>
  <property name="meta.media.0.codec.pix_fmt">yuv420p</property>
  <property name="meta.media.0.codec.sample_aspect_ratio">0</property>
  <property name="meta.media.0.codec.colorspace">709</property>
  <property name="meta.media.0.codec.color_trc">1</property>
  <property name="meta.media.0.codec.name">vp9</property>
  <property name="meta.media.0.codec.long_name">Google VP9</property>
  <property name="meta.media.0.codec.bit_rate">0</property>
  <property name="meta.attr.0.stream.language.markup">eng</property>
  <property name="meta.attr.0.stream.DURATION.markup">00:22:16.602000000</property>
  <property name="meta.media.1.stream.type">audio</property>
  <property name="meta.media.1.codec.sample_fmt">fltp</property>
  <property name="meta.media.1.codec.sample_rate">48000</property>
  <property name="meta.media.1.codec.channels">2</property>
  <property name="meta.media.1.codec.name">opus</property>
  <property name="meta.media.1.codec.long_name">Opus</property>
  <property name="meta.media.1.codec.bit_rate">0</property>
  <property name="meta.attr.1.stream.language.markup">eng</property>
  <property name="meta.attr.1.stream.DURATION.markup">00:22:16.621000000</property>
  <property name="meta.attr.ENCODER.markup">Lavf59.27.100</property>
  <property name="meta.media.sample_aspect_num">1</property>
  <property name="meta.media.sample_aspect_den">1</property>
  <property name="meta.media.frame_rate_num">60000</property>
  <property name="meta.media.frame_rate_den">1001</property>
  <property name="meta.media.colorspace">709</property>
  <property name="meta.media.color_trc">1</property>
  <property name="meta.media.has_b_frames">0</property>
  <property name="meta.media.width">1920</property>
  <property name="meta.media.height">1080</property>
  <property name="meta.media.color_range">mpeg</property>
  <property name="xml">was here</property>
  <property name="meta.media.top_field_first">0</property>
  <property name="meta.media.progressive">1</property>
  <property name="set.test_image">0</property>
  <property name="mute_on_pause">1</property>
 </chain>
 <producer id="producer691" in="00:00:00.000" out="00:00:19.680">
  <property name="length">00:00:19.720</property>
  <property name="eof">pause</property>
  <property name="resource">/home/liquidzulu/Pictures/yt/animation/output/project/footnotes/footnote-7/.all.png</property>
  <property name="ttl">1</property>
  <property name="aspect_ratio">1</property>
  <property name="progressive">1</property>
  <property name="seekable">1</property>
  <property name="format">2</property>
  <property name="meta.media.width">1920</property>
  <property name="meta.media.height">1080</property>
  <property name="mlt_service">qimage</property>
  <property name="kdenlive:clipname">footnote-7</property>
  <property name="low-pass">0</property>
  <property name="animation"/>
  <property name="luma_file"/>
  <property name="luma_duration">25</property>
  <property name="fade">0</property>
  <property name="crop">0</property>
  <property name="softness">0</property>
  <property name="loop">0</property>
  <property name="kdenlive:duration">00:00:19:18</property>
  <property name="kdenlive:folderid">273</property>
  <property name="kdenlive:id">361</property>
  <property name="kdenlive:clip_type">2</property>
  <property name="kdenlive:file_hash">7dcac70fb4f51cd264739cac890d76ab</property>
  <property name="xml">was here</property>
  <property name="set.test_audio">1</property>
  <property name="set.test_image">0</property>
 </producer>
 <producer id="producer692" in="00:00:00.000" out="00:00:19.680">
  <property name="length">00:00:19.720</property>
  <property name="eof">pause</property>
  <property name="resource">/home/liquidzulu/Pictures/yt/animation/output/project/footnotes/footnote-8/.all.png</property>
  <property name="ttl">1</property>
  <property name="aspect_ratio">1</property>
  <property name="progressive">1</property>
  <property name="seekable">1</property>
  <property name="format">2</property>
  <property name="meta.media.width">1920</property>
  <property name="meta.media.height">1080</property>
  <property name="mlt_service">qimage</property>
  <property name="kdenlive:clipname">footnote-8</property>
  <property name="low-pass">0</property>
  <property name="animation"/>
  <property name="luma_file"/>
  <property name="luma_duration">25</property>
  <property name="fade">0</property>
  <property name="crop">0</property>
  <property name="softness">0</property>
  <property name="loop">0</property>
  <property name="kdenlive:duration">00:00:19:18</property>
  <property name="kdenlive:folderid">273</property>
  <property name="kdenlive:id">364</property>
  <property name="kdenlive:clip_type">2</property>
  <property name="kdenlive:file_hash">8002157be14e4cbc7236ec61bd19f7b1</property>
  <property name="xml">was here</property>
  <property name="set.test_audio">1</property>
  <property name="set.test_image">0</property>
 </producer>
 <producer id="producer696" in="00:00:00.000" out="00:00:19.680">
  <property name="length">00:00:19.720</property>
  <property name="eof">pause</property>
  <property name="resource">/home/liquidzulu/Pictures/yt/animation/output/project/footnotes/footnote-9/.all.png</property>
  <property name="ttl">1</property>
  <property name="aspect_ratio">1</property>
  <property name="progressive">1</property>
  <property name="seekable">1</property>
  <property name="format">2</property>
  <property name="meta.media.width">1920</property>
  <property name="meta.media.height">1080</property>
  <property name="mlt_service">qimage</property>
  <property name="kdenlive:clipname">footnote-9</property>
  <property name="low-pass">0</property>
  <property name="animation"/>
  <property name="luma_file"/>
  <property name="luma_duration">25</property>
  <property name="fade">0</property>
  <property name="crop">0</property>
  <property name="softness">0</property>
  <property name="loop">0</property>
  <property name="kdenlive:duration">00:00:19:18</property>
  <property name="kdenlive:folderid">-1</property>
  <property name="kdenlive:id">367</property>
  <property name="kdenlive:clip_type">2</property>
  <property name="kdenlive:file_hash">9d238de51fe6a8fc293741c6022b7b2f</property>
  <property name="xml">was here</property>
  <property name="set.test_audio">1</property>
  <property name="set.test_image">0</property>
 </producer>
 <producer id="producer697" in="00:00:00.000" out="00:00:19.680">
  <property name="length">00:00:19.720</property>
  <property name="eof">pause</property>
  <property name="resource">/home/liquidzulu/Pictures/yt/animation/output/project/footnotes/footnote-10/.all.png</property>
  <property name="ttl">1</property>
  <property name="aspect_ratio">1</property>
  <property name="progressive">1</property>
  <property name="seekable">1</property>
  <property name="format">2</property>
  <property name="meta.media.width">1920</property>
  <property name="meta.media.height">1080</property>
  <property name="mlt_service">qimage</property>
  <property name="kdenlive:clipname">footnotes-10</property>
  <property name="low-pass">0</property>
  <property name="animation"/>
  <property name="luma_file"/>
  <property name="luma_duration">25</property>
  <property name="fade">0</property>
  <property name="crop">0</property>
  <property name="softness">0</property>
  <property name="loop">0</property>
  <property name="kdenlive:duration">00:00:19:18</property>
  <property name="kdenlive:folderid">-1</property>
  <property name="kdenlive:id">368</property>
  <property name="kdenlive:clip_type">2</property>
  <property name="kdenlive:file_hash">92af0d8b48cfc99584ec7fa7227134b2</property>
  <property name="xml">was here</property>
  <property name="set.test_audio">1</property>
  <property name="set.test_image">0</property>
 </producer>
 <chain id="chain430" out="00:00:09.960">
  <property name="length">250</property>
  <property name="eof">pause</property>
  <property name="resource">animation/output/neural-network.mp4</property>
  <property name="mlt_service">avformat-novalidate</property>
  <property name="seekable">1</property>
  <property name="format">3</property>
  <property name="audio_index">-1</property>
  <property name="video_index">0</property>
  <property name="kdenlive:clipname"/>
  <property name="kdenlive:clip_type">2</property>
  <property name="kdenlive:folderid">218</property>
  <property name="kdenlive:id">219</property>
  <property name="kdenlive:file_size">6473614</property>
  <property name="kdenlive:file_hash">0c541f0201174e70bf3bbaa9145dbc9b</property>
  <property name="meta.media.nb_streams">1</property>
  <property name="meta.media.0.stream.type">video</property>
  <property name="meta.media.0.stream.frame_rate">60</property>
  <property name="meta.media.0.stream.sample_aspect_ratio">0</property>
  <property name="meta.media.0.codec.width">1920</property>
  <property name="meta.media.0.codec.height">1080</property>
  <property name="meta.media.0.codec.rotate">0</property>
  <property name="meta.media.0.codec.pix_fmt">yuv420p</property>
  <property name="meta.media.0.codec.sample_aspect_ratio">0</property>
  <property name="meta.media.0.codec.colorspace">709</property>
  <property name="meta.media.0.codec.name">h264</property>
  <property name="meta.media.0.codec.long_name">H.264 / AVC / MPEG-4 AVC / MPEG-4 part 10</property>
  <property name="meta.media.0.codec.bit_rate">5163776</property>
  <property name="meta.attr.0.stream.handler_name.markup">VideoHandler</property>
  <property name="meta.attr.0.stream.vendor_id.markup">[0][0][0][0]</property>
  <property name="meta.attr.major_brand.markup">isom</property>
  <property name="meta.attr.minor_version.markup">512</property>
  <property name="meta.attr.compatible_brands.markup">isomiso2avc1mp41</property>
  <property name="meta.attr.encoder.markup">Lavf58.24.100</property>
  <property name="meta.media.sample_aspect_num">1</property>
  <property name="meta.media.sample_aspect_den">1</property>
  <property name="meta.media.frame_rate_num">60</property>
  <property name="meta.media.frame_rate_den">1</property>
  <property name="meta.media.colorspace">709</property>
  <property name="meta.media.color_trc">2</property>
  <property name="meta.media.has_b_frames">2</property>
  <property name="meta.media.width">1920</property>
  <property name="meta.media.height">1080</property>
  <property name="meta.media.color_range">mpeg</property>
  <property name="xml">was here</property>
  <property name="meta.media.top_field_first">0</property>
  <property name="meta.media.progressive">1</property>
  <property name="set.test_audio">1</property>
  <property name="set.test_image">0</property>
  <property name="mute_on_pause">1</property>
 </chain>
 <chain id="chain431" out="00:00:25.600">
  <property name="length">641</property>
  <property name="eof">pause</property>
  <property name="resource">animation/output/image-classification.mp4</property>
  <property name="mlt_service">avformat-novalidate</property>
  <property name="seekable">1</property>
  <property name="format">3</property>
  <property name="audio_index">-1</property>
  <property name="video_index">0</property>
  <property name="kdenlive:clipname"/>
  <property name="kdenlive:clip_type">2</property>
  <property name="kdenlive:folderid">-1</property>
  <property name="kdenlive:id">392</property>
  <property name="kdenlive:file_size">1906870</property>
  <property name="kdenlive:file_hash">1f0a83579943d193d11245a006f5c3f2</property>
  <property name="meta.media.nb_streams">1</property>
  <property name="meta.media.0.stream.type">video</property>
  <property name="meta.media.0.stream.frame_rate">30</property>
  <property name="meta.media.0.stream.sample_aspect_ratio">0</property>
  <property name="meta.media.0.codec.width">1920</property>
  <property name="meta.media.0.codec.height">1080</property>
  <property name="meta.media.0.codec.rotate">0</property>
  <property name="meta.media.0.codec.pix_fmt">yuv420p</property>
  <property name="meta.media.0.codec.sample_aspect_ratio">0</property>
  <property name="meta.media.0.codec.colorspace">709</property>
  <property name="meta.media.0.codec.name">h264</property>
  <property name="meta.media.0.codec.long_name">H.264 / AVC / MPEG-4 AVC / MPEG-4 part 10</property>
  <property name="meta.media.0.codec.bit_rate">592746</property>
  <property name="meta.attr.0.stream.handler_name.markup">VideoHandler</property>
  <property name="meta.attr.0.stream.vendor_id.markup">[0][0][0][0]</property>
  <property name="meta.attr.major_brand.markup">isom</property>
  <property name="meta.attr.minor_version.markup">512</property>
  <property name="meta.attr.compatible_brands.markup">isomiso2avc1mp41</property>
  <property name="meta.attr.encoder.markup">Lavf58.24.100</property>
  <property name="meta.media.sample_aspect_num">1</property>
  <property name="meta.media.sample_aspect_den">1</property>
  <property name="meta.media.frame_rate_num">30</property>
  <property name="meta.media.frame_rate_den">1</property>
  <property name="meta.media.colorspace">709</property>
  <property name="meta.media.color_trc">2</property>
  <property name="meta.media.has_b_frames">2</property>
  <property name="meta.media.width">1920</property>
  <property name="meta.media.height">1080</property>
  <property name="meta.media.color_range">mpeg</property>
  <property name="xml">was here</property>
  <property name="meta.media.top_field_first">0</property>
  <property name="meta.media.progressive">1</property>
  <property name="set.test_audio">1</property>
  <property name="set.test_image">0</property>
  <property name="mute_on_pause">1</property>
 </chain>
 <producer id="producer698" in="00:00:00.000" out="00:00:19.680">
  <property name="length">00:00:19.720</property>
  <property name="eof">pause</property>
  <property name="resource">/home/liquidzulu/Pictures/yt/animation/output/project/footnotes/footnote-17/.all.png</property>
  <property name="ttl">1</property>
  <property name="aspect_ratio">1</property>
  <property name="progressive">1</property>
  <property name="seekable">1</property>
  <property name="format">2</property>
  <property name="meta.media.width">1920</property>
  <property name="meta.media.height">1080</property>
  <property name="mlt_service">qimage</property>
  <property name="kdenlive:clipname">footnote-17</property>
  <property name="low-pass">0</property>
  <property name="animation"/>
  <property name="luma_file"/>
  <property name="luma_duration">25</property>
  <property name="fade">0</property>
  <property name="crop">0</property>
  <property name="softness">0</property>
  <property name="loop">0</property>
  <property name="kdenlive:duration">00:00:19:18</property>
  <property name="kdenlive:folderid">-1</property>
  <property name="kdenlive:id">429</property>
  <property name="kdenlive:clip_type">2</property>
  <property name="kdenlive:file_hash">fedd818a9de422af828eab0e7278ff37</property>
  <property name="xml">was here</property>
  <property name="set.test_audio">1</property>
  <property name="set.test_image">0</property>
 </producer>
 <chain id="chain432" out="00:00:15.000">
  <property name="length">376</property>
  <property name="eof">pause</property>
  <property name="resource">animation/output/babel.mp4</property>
  <property name="mlt_service">avformat-novalidate</property>
  <property name="seekable">1</property>
  <property name="format">3</property>
  <property name="audio_index">-1</property>
  <property name="video_index">0</property>
  <property name="kdenlive:clipname"/>
  <property name="kdenlive:clip_type">2</property>
  <property name="kdenlive:folderid">218</property>
  <property name="kdenlive:id">418</property>
  <property name="kdenlive:file_size">40955100</property>
  <property name="kdenlive:file_hash">363f6235693c92bd79a0ee524a27ecf7</property>
  <property name="meta.media.nb_streams">1</property>
  <property name="meta.media.0.stream.type">video</property>
  <property name="meta.media.0.stream.frame_rate">30</property>
  <property name="meta.media.0.stream.sample_aspect_ratio">0</property>
  <property name="meta.media.0.codec.width">1920</property>
  <property name="meta.media.0.codec.height">1080</property>
  <property name="meta.media.0.codec.rotate">0</property>
  <property name="meta.media.0.codec.pix_fmt">yuv420p</property>
  <property name="meta.media.0.codec.sample_aspect_ratio">0</property>
  <property name="meta.media.0.codec.colorspace">709</property>
  <property name="meta.media.0.codec.name">h264</property>
  <property name="meta.media.0.codec.long_name">H.264 / AVC / MPEG-4 AVC / MPEG-4 part 10</property>
  <property name="meta.media.0.codec.bit_rate">21791929</property>
  <property name="meta.attr.0.stream.handler_name.markup">VideoHandler</property>
  <property name="meta.attr.0.stream.vendor_id.markup">[0][0][0][0]</property>
  <property name="meta.attr.major_brand.markup">isom</property>
  <property name="meta.attr.minor_version.markup">512</property>
  <property name="meta.attr.compatible_brands.markup">isomiso2avc1mp41</property>
  <property name="meta.attr.encoder.markup">Lavf58.24.100</property>
  <property name="meta.media.sample_aspect_num">1</property>
  <property name="meta.media.sample_aspect_den">1</property>
  <property name="meta.media.frame_rate_num">30</property>
  <property name="meta.media.frame_rate_den">1</property>
  <property name="meta.media.colorspace">709</property>
  <property name="meta.media.color_trc">2</property>
  <property name="meta.media.has_b_frames">2</property>
  <property name="meta.media.width">1920</property>
  <property name="meta.media.height">1080</property>
  <property name="meta.media.color_range">mpeg</property>
  <property name="xml">was here</property>
  <property name="meta.media.top_field_first">0</property>
  <property name="meta.media.progressive">1</property>
  <property name="set.test_audio">1</property>
  <property name="set.test_image">0</property>
  <property name="mute_on_pause">1</property>
 </chain>
 <producer id="producer699" in="00:00:00.000" out="00:01:26.120">
  <property name="length">2154</property>
  <property name="eof">pause</property>
  <property name="resource">/home/liquidzulu/Pictures/yt/animation/output/project/quote/.all.png</property>
  <property name="ttl">1</property>
  <property name="aspect_ratio">1</property>
  <property name="progressive">1</property>
  <property name="seekable">1</property>
  <property name="format">2</property>
  <property name="meta.media.width">1920</property>
  <property name="meta.media.height">1080</property>
  <property name="mlt_service">qimage</property>
  <property name="kdenlive:clipname">quote squiggly</property>
  <property name="low-pass">0</property>
  <property name="animation"/>
  <property name="luma_file"/>
  <property name="luma_duration">25</property>
  <property name="fade">0</property>
  <property name="crop">0</property>
  <property name="softness">0</property>
  <property name="loop">1</property>
  <property name="kdenlive:duration">00:00:12:07</property>
  <property name="kdenlive:folderid">218</property>
  <property name="kdenlive:id">355</property>
  <property name="kdenlive:clip_type">2</property>
  <property name="kdenlive:file_hash">a72510309878a1a9ce8894c74701e9a8</property>
  <property name="xml">was here</property>
  <property name="set.test_audio">1</property>
  <property name="set.test_image">0</property>
 </producer>
 <chain id="chain433" out="00:01:55.920">
  <property name="length">2899</property>
  <property name="eof">pause</property>
  <property name="resource">/home/liquidzulu/Videos/yt/b-roll/Rewetting Scotland's moors [11kZ88yqdM0].webm</property>
  <property name="mlt_service">avformat-novalidate</property>
  <property name="seekable">1</property>
  <property name="format">3</property>
  <property name="audio_index">-1</property>
  <property name="video_index">0</property>
  <property name="kdenlive:clipname"/>
  <property name="kdenlive:clip_type">0</property>
  <property name="kdenlive:folderid">-1</property>
  <property name="kdenlive:id">440</property>
  <property name="kdenlive:file_size">47639044</property>
  <property name="kdenlive:file_hash">97fed4f6253c4d8813797dfeac6b1c0a</property>
  <property name="kdenlive:audio_max1">231</property>
  <property name="kdenlive:active_streams">-1</property>
  <property name="set.test_audio">1</property>
  <property name="meta.media.nb_streams">2</property>
  <property name="meta.media.0.stream.type">video</property>
  <property name="meta.media.0.stream.frame_rate">50</property>
  <property name="meta.media.0.stream.sample_aspect_ratio">1</property>
  <property name="meta.media.0.codec.width">1920</property>
  <property name="meta.media.0.codec.height">1080</property>
  <property name="meta.media.0.codec.rotate">0</property>
  <property name="meta.media.0.codec.pix_fmt">yuv420p</property>
  <property name="meta.media.0.codec.sample_aspect_ratio">0</property>
  <property name="meta.media.0.codec.colorspace">709</property>
  <property name="meta.media.0.codec.name">vp9</property>
  <property name="meta.media.0.codec.long_name">Google VP9</property>
  <property name="meta.media.0.codec.bit_rate">0</property>
  <property name="meta.attr.0.stream.language.markup">eng</property>
  <property name="meta.attr.0.stream.DURATION.markup">00:01:55.920000000</property>
  <property name="meta.media.1.stream.type">audio</property>
  <property name="meta.media.1.codec.sample_fmt">fltp</property>
  <property name="meta.media.1.codec.sample_rate">48000</property>
  <property name="meta.media.1.codec.channels">2</property>
  <property name="meta.media.1.codec.name">opus</property>
  <property name="meta.media.1.codec.long_name">Opus</property>
  <property name="meta.media.1.codec.bit_rate">0</property>
  <property name="meta.attr.1.stream.language.markup">eng</property>
  <property name="meta.attr.1.stream.DURATION.markup">00:01:55.941000000</property>
  <property name="meta.attr.HTTP://YOUTUBE.COM/STREAMING/OTF/DURATIONS/112015.markup">Segment-Count: 23&#xd;
Segment-Durations-Ms: 5120(r=21),3280,&#xd;
&#xd;
</property>
  <property name="meta.attr.ENCODER.markup">Lavf59.27.100</property>
  <property name="meta.media.sample_aspect_num">1</property>
  <property name="meta.media.sample_aspect_den">1</property>
  <property name="meta.media.frame_rate_num">50</property>
  <property name="meta.media.frame_rate_den">1</property>
  <property name="meta.media.colorspace">709</property>
  <property name="meta.media.color_trc">2</property>
  <property name="meta.media.has_b_frames">0</property>
  <property name="meta.media.width">1920</property>
  <property name="meta.media.height">1080</property>
  <property name="meta.media.color_range">mpeg</property>
  <property name="xml">was here</property>
  <property name="meta.media.top_field_first">0</property>
  <property name="meta.media.progressive">1</property>
  <property name="set.test_image">0</property>
  <property name="mute_on_pause">1</property>
 </chain>
 <chain id="chain434" out="00:04:09.960">
  <property name="length">6250</property>
  <property name="eof">pause</property>
  <property name="resource">animation/output/actual-latent-space.mp4</property>
  <property name="mlt_service">avformat-novalidate</property>
  <property name="seekable">1</property>
  <property name="format">3</property>
  <property name="audio_index">-1</property>
  <property name="video_index">0</property>
  <property name="kdenlive:clipname"/>
  <property name="kdenlive:clip_type">2</property>
  <property name="kdenlive:folderid">218</property>
  <property name="kdenlive:id">421</property>
  <property name="kdenlive:file_size">15422944</property>
  <property name="kdenlive:file_hash">85c95f05ae8b75fbd29ed678508da5f1</property>
  <property name="meta.media.nb_streams">1</property>
  <property name="meta.media.0.stream.type">video</property>
  <property name="meta.media.0.stream.frame_rate">60</property>
  <property name="meta.media.0.stream.sample_aspect_ratio">0</property>
  <property name="meta.media.0.codec.width">1920</property>
  <property name="meta.media.0.codec.height">1080</property>
  <property name="meta.media.0.codec.rotate">0</property>
  <property name="meta.media.0.codec.pix_fmt">yuv420p</property>
  <property name="meta.media.0.codec.sample_aspect_ratio">0</property>
  <property name="meta.media.0.codec.colorspace">709</property>
  <property name="meta.media.0.codec.name">h264</property>
  <property name="meta.media.0.codec.long_name">H.264 / AVC / MPEG-4 AVC / MPEG-4 part 10</property>
  <property name="meta.media.0.codec.bit_rate">487802</property>
  <property name="meta.attr.0.stream.handler_name.markup">VideoHandler</property>
  <property name="meta.attr.0.stream.vendor_id.markup">[0][0][0][0]</property>
  <property name="meta.attr.major_brand.markup">isom</property>
  <property name="meta.attr.minor_version.markup">512</property>
  <property name="meta.attr.compatible_brands.markup">isomiso2avc1mp41</property>
  <property name="meta.attr.encoder.markup">Lavf58.24.100</property>
  <property name="meta.media.sample_aspect_num">1</property>
  <property name="meta.media.sample_aspect_den">1</property>
  <property name="meta.media.frame_rate_num">60</property>
  <property name="meta.media.frame_rate_den">1</property>
  <property name="meta.media.colorspace">709</property>
  <property name="meta.media.color_trc">2</property>
  <property name="meta.media.has_b_frames">2</property>
  <property name="meta.media.width">1920</property>
  <property name="meta.media.height">1080</property>
  <property name="meta.media.color_range">mpeg</property>
  <property name="xml">was here</property>
  <property name="meta.media.top_field_first">0</property>
  <property name="meta.media.progressive">1</property>
  <property name="set.test_audio">1</property>
  <property name="set.test_image">0</property>
  <property name="mute_on_pause">1</property>
 </chain>
 <producer id="producer700" in="00:00:00.000" out="00:00:19.680">
  <property name="length">00:00:19.720</property>
  <property name="eof">pause</property>
  <property name="resource">/home/liquidzulu/Pictures/yt/animation/output/project/footnotes/footnote-23/.all.png</property>
  <property name="ttl">1</property>
  <property name="aspect_ratio">1</property>
  <property name="progressive">1</property>
  <property name="seekable">1</property>
  <property name="format">2</property>
  <property name="meta.media.width">1920</property>
  <property name="meta.media.height">1080</property>
  <property name="mlt_service">qimage</property>
  <property name="kdenlive:clipname">footnote-23</property>
  <property name="low-pass">0</property>
  <property name="animation"/>
  <property name="luma_file"/>
  <property name="luma_duration">25</property>
  <property name="fade">0</property>
  <property name="crop">0</property>
  <property name="softness">0</property>
  <property name="loop">0</property>
  <property name="kdenlive:duration">00:00:19:18</property>
  <property name="kdenlive:folderid">-1</property>
  <property name="kdenlive:id">515</property>
  <property name="kdenlive:clip_type">2</property>
  <property name="kdenlive:file_hash">4795ab2d0b0d59f2ae20ce574939e81d</property>
  <property name="xml">was here</property>
  <property name="set.test_audio">1</property>
  <property name="set.test_image">0</property>
 </producer>
 <chain id="chain435" out="01:29:44.560">
  <property name="length">134615</property>
  <property name="eof">pause</property>
  <property name="resource">b-roll/The existential threat of AI art and why not to quit drawing - Sketchy Van Podcast #60 Steven Zapata [OCY7lb_i0yM].webm</property>
  <property name="mlt_service">avformat-novalidate</property>
  <property name="seekable">1</property>
  <property name="format">3</property>
  <property name="audio_index">1</property>
  <property name="video_index">0</property>
  <property name="kdenlive:clipname"/>
  <property name="kdenlive:clip_type">0</property>
  <property name="kdenlive:folderid">14</property>
  <property name="kdenlive:id">15</property>
  <property name="kdenlive:file_size">688601410</property>
  <property name="kdenlive:file_hash">ec2cc4d9055656138f14a8b4cd1ae4e8</property>
  <property name="kdenlive:audio_max1">227</property>
  <property name="meta.media.nb_streams">2</property>
  <property name="meta.media.0.stream.type">video</property>
  <property name="meta.media.0.stream.frame_rate">23.976</property>
  <property name="meta.media.0.stream.sample_aspect_ratio">1</property>
  <property name="meta.media.0.codec.width">1920</property>
  <property name="meta.media.0.codec.height">1080</property>
  <property name="meta.media.0.codec.rotate">0</property>
  <property name="meta.media.0.codec.pix_fmt">yuv420p</property>
  <property name="meta.media.0.codec.sample_aspect_ratio">0</property>
  <property name="meta.media.0.codec.colorspace">709</property>
  <property name="meta.media.0.codec.color_trc">1</property>
  <property name="meta.media.0.codec.name">vp9</property>
  <property name="meta.media.0.codec.long_name">Google VP9</property>
  <property name="meta.media.0.codec.bit_rate">0</property>
  <property name="meta.attr.0.stream.language.markup">eng</property>
  <property name="meta.attr.0.stream.DURATION.markup">01:29:44.545000000</property>
  <property name="meta.media.1.stream.type">audio</property>
  <property name="meta.media.1.codec.sample_fmt">fltp</property>
  <property name="meta.media.1.codec.sample_rate">48000</property>
  <property name="meta.media.1.codec.channels">2</property>
  <property name="meta.media.1.codec.name">opus</property>
  <property name="meta.media.1.codec.long_name">Opus</property>
  <property name="meta.media.1.codec.bit_rate">0</property>
  <property name="meta.attr.1.stream.language.markup">eng</property>
  <property name="meta.attr.1.stream.DURATION.markup">01:29:44.581000000</property>
  <property name="meta.attr.ENCODER.markup">Lavf59.27.100</property>
  <property name="meta.media.sample_aspect_num">1</property>
  <property name="meta.media.sample_aspect_den">1</property>
  <property name="meta.media.frame_rate_num">24000</property>
  <property name="meta.media.frame_rate_den">1001</property>
  <property name="meta.media.colorspace">709</property>
  <property name="meta.media.color_trc">1</property>
  <property name="meta.media.has_b_frames">0</property>
  <property name="meta.media.width">1920</property>
  <property name="meta.media.height">1080</property>
  <property name="meta.media.color_range">mpeg</property>
  <property name="xml">was here</property>
  <property name="meta.media.top_field_first">0</property>
  <property name="meta.media.progressive">1</property>
  <property name="set.test_audio">1</property>
  <property name="set.test_image">0</property>
  <property name="mute_on_pause">1</property>
 </chain>
 <chain id="chain436" out="00:00:40.040">
  <property name="length">1002</property>
  <property name="eof">pause</property>
  <property name="resource">/home/liquidzulu/Videos/yt/b-roll/There's no way Tolkien was speaking English here [r8bfVPlgPJc].webm</property>
  <property name="mlt_service">avformat-novalidate</property>
  <property name="seekable">1</property>
  <property name="format">3</property>
  <property name="audio_index">-1</property>
  <property name="video_index">0</property>
  <property name="kdenlive:clipname"/>
  <property name="kdenlive:clip_type">0</property>
  <property name="kdenlive:folderid">-1</property>
  <property name="kdenlive:id">491</property>
  <property name="kdenlive:file_size">5275136</property>
  <property name="kdenlive:file_hash">dc351242091a30022697b3951a3085f8</property>
  <property name="kdenlive:audio_max1">156</property>
  <property name="kdenlive:active_streams">-1</property>
  <property name="set.test_audio">1</property>
  <property name="meta.media.nb_streams">2</property>
  <property name="meta.media.0.stream.type">video</property>
  <property name="meta.media.0.stream.frame_rate">30</property>
  <property name="meta.media.0.stream.sample_aspect_ratio">1</property>
  <property name="meta.media.0.codec.width">1480</property>
  <property name="meta.media.0.codec.height">1080</property>
  <property name="meta.media.0.codec.rotate">0</property>
  <property name="meta.media.0.codec.pix_fmt">yuv420p</property>
  <property name="meta.media.0.codec.sample_aspect_ratio">0</property>
  <property name="meta.media.0.codec.colorspace">601</property>
  <property name="meta.media.0.codec.color_trc">1</property>
  <property name="meta.media.0.codec.name">vp9</property>
  <property name="meta.media.0.codec.long_name">Google VP9</property>
  <property name="meta.media.0.codec.bit_rate">0</property>
  <property name="meta.attr.0.stream.language.markup">eng</property>
  <property name="meta.attr.0.stream.DURATION.markup">00:00:40.033000000</property>
  <property name="meta.media.1.stream.type">audio</property>
  <property name="meta.media.1.codec.sample_fmt">fltp</property>
  <property name="meta.media.1.codec.sample_rate">48000</property>
  <property name="meta.media.1.codec.channels">2</property>
  <property name="meta.media.1.codec.name">opus</property>
  <property name="meta.media.1.codec.long_name">Opus</property>
  <property name="meta.media.1.codec.bit_rate">0</property>
  <property name="meta.attr.1.stream.language.markup">eng</property>
  <property name="meta.attr.1.stream.DURATION.markup">00:00:40.061000000</property>
  <property name="meta.attr.ENCODER.markup">Lavf59.27.100</property>
  <property name="meta.media.sample_aspect_num">1</property>
  <property name="meta.media.sample_aspect_den">1</property>
  <property name="meta.media.frame_rate_num">30</property>
  <property name="meta.media.frame_rate_den">1</property>
  <property name="meta.media.colorspace">601</property>
  <property name="meta.media.color_trc">1</property>
  <property name="meta.media.has_b_frames">0</property>
  <property name="meta.media.width">1480</property>
  <property name="meta.media.height">1080</property>
  <property name="meta.media.color_range">mpeg</property>
  <property name="xml">was here</property>
  <property name="meta.media.top_field_first">0</property>
  <property name="meta.media.progressive">1</property>
  <property name="set.test_image">0</property>
  <property name="mute_on_pause">1</property>
 </chain>
 <chain id="chain437" out="00:08:53.840">
  <property name="length">13347</property>
  <property name="eof">pause</property>
  <property name="resource">b-roll/Cubism in 9 Minutesï¼š Art Movement by Pablo Picasso Explained [IF-nmwm7-Bg].webm</property>
  <property name="mlt_service">avformat-novalidate</property>
  <property name="seekable">1</property>
  <property name="format">3</property>
  <property name="audio_index">-1</property>
  <property name="video_index">0</property>
  <property name="kdenlive:clipname"/>
  <property name="kdenlive:clip_type">0</property>
  <property name="kdenlive:folderid">14</property>
  <property name="kdenlive:id">495</property>
  <property name="kdenlive:file_size">91112315</property>
  <property name="kdenlive:file_hash">e8857a99a1d1a36abd2ddd3e2fe6f07b</property>
  <property name="kdenlive:active_streams">-1</property>
  <property name="set.test_audio">1</property>
  <property name="kdenlive:audio_max1">230</property>
  <property name="meta.media.nb_streams">2</property>
  <property name="meta.media.0.stream.type">video</property>
  <property name="meta.media.0.stream.frame_rate">25</property>
  <property name="meta.media.0.stream.sample_aspect_ratio">1</property>
  <property name="meta.media.0.codec.width">1920</property>
  <property name="meta.media.0.codec.height">1080</property>
  <property name="meta.media.0.codec.rotate">0</property>
  <property name="meta.media.0.codec.pix_fmt">yuv420p</property>
  <property name="meta.media.0.codec.sample_aspect_ratio">0</property>
  <property name="meta.media.0.codec.colorspace">709</property>
  <property name="meta.media.0.codec.color_trc">1</property>
  <property name="meta.media.0.codec.name">vp9</property>
  <property name="meta.media.0.codec.long_name">Google VP9</property>
  <property name="meta.media.0.codec.bit_rate">0</property>
  <property name="meta.attr.0.stream.language.markup">eng</property>
  <property name="meta.attr.0.stream.DURATION.markup">00:08:53.840000000</property>
  <property name="meta.media.1.stream.type">audio</property>
  <property name="meta.media.1.codec.sample_fmt">fltp</property>
  <property name="meta.media.1.codec.sample_rate">48000</property>
  <property name="meta.media.1.codec.channels">2</property>
  <property name="meta.media.1.codec.name">opus</property>
  <property name="meta.media.1.codec.long_name">Opus</property>
  <property name="meta.media.1.codec.bit_rate">0</property>
  <property name="meta.attr.1.stream.language.markup">rus</property>
  <property name="meta.attr.1.stream.DURATION.markup">00:08:53.861000000</property>
  <property name="meta.attr.ENCODER.markup">Lavf59.27.100</property>
  <property name="meta.media.sample_aspect_num">1</property>
  <property name="meta.media.sample_aspect_den">1</property>
  <property name="meta.media.frame_rate_num">25</property>
  <property name="meta.media.frame_rate_den">1</property>
  <property name="meta.media.colorspace">709</property>
  <property name="meta.media.color_trc">1</property>
  <property name="meta.media.has_b_frames">0</property>
  <property name="meta.media.width">1920</property>
  <property name="meta.media.height">1080</property>
  <property name="meta.media.color_range">mpeg</property>
  <property name="xml">was here</property>
  <property name="meta.media.top_field_first">0</property>
  <property name="meta.media.progressive">1</property>
  <property name="set.test_image">0</property>
  <property name="mute_on_pause">1</property>
 </chain>
 <chain id="chain438" out="00:00:04.960">
  <property name="length">125</property>
  <property name="eof">pause</property>
  <property name="resource">animation/output/art-is-anything.mp4</property>
  <property name="mlt_service">avformat-novalidate</property>
  <property name="seekable">1</property>
  <property name="format">3</property>
  <property name="audio_index">-1</property>
  <property name="video_index">0</property>
  <property name="kdenlive:clipname"/>
  <property name="kdenlive:clip_type">2</property>
  <property name="kdenlive:folderid">218</property>
  <property name="kdenlive:id">263</property>
  <property name="kdenlive:file_size">1775922</property>
  <property name="kdenlive:file_hash">703f31d2e9f10cd9c40258ad210e5f94</property>
  <property name="meta.media.nb_streams">1</property>
  <property name="meta.media.0.stream.type">video</property>
  <property name="meta.media.0.stream.frame_rate">30</property>
  <property name="meta.media.0.stream.sample_aspect_ratio">0</property>
  <property name="meta.media.0.codec.width">1920</property>
  <property name="meta.media.0.codec.height">1080</property>
  <property name="meta.media.0.codec.rotate">0</property>
  <property name="meta.media.0.codec.pix_fmt">yuv420p</property>
  <property name="meta.media.0.codec.sample_aspect_ratio">0</property>
  <property name="meta.media.0.codec.colorspace">709</property>
  <property name="meta.media.0.codec.name">h264</property>
  <property name="meta.media.0.codec.long_name">H.264 / AVC / MPEG-4 AVC / MPEG-4 part 10</property>
  <property name="meta.media.0.codec.bit_rate">2838832</property>
  <property name="meta.attr.0.stream.handler_name.markup">VideoHandler</property>
  <property name="meta.attr.0.stream.vendor_id.markup">[0][0][0][0]</property>
  <property name="meta.attr.major_brand.markup">isom</property>
  <property name="meta.attr.minor_version.markup">512</property>
  <property name="meta.attr.compatible_brands.markup">isomiso2avc1mp41</property>
  <property name="meta.attr.encoder.markup">Lavf58.24.100</property>
  <property name="meta.media.sample_aspect_num">1</property>
  <property name="meta.media.sample_aspect_den">1</property>
  <property name="meta.media.frame_rate_num">30</property>
  <property name="meta.media.frame_rate_den">1</property>
  <property name="meta.media.colorspace">709</property>
  <property name="meta.media.color_trc">2</property>
  <property name="meta.media.has_b_frames">2</property>
  <property name="meta.media.width">1920</property>
  <property name="meta.media.height">1080</property>
  <property name="meta.media.color_range">mpeg</property>
  <property name="xml">was here</property>
  <property name="meta.media.top_field_first">0</property>
  <property name="meta.media.progressive">1</property>
  <property name="set.test_audio">1</property>
  <property name="set.test_image">0</property>
  <property name="mute_on_pause">1</property>
 </chain>
 <chain id="chain439" out="00:02:39.720">
  <property name="length">3994</property>
  <property name="eof">pause</property>
  <property name="resource">/home/liquidzulu/Videos/yt/b-roll/A Blind Person's Perspective of Colors [59YN8_lg6-U].webm</property>
  <property name="mlt_service">avformat-novalidate</property>
  <property name="seekable">1</property>
  <property name="format">3</property>
  <property name="audio_index">1</property>
  <property name="video_index">0</property>
  <property name="kdenlive:clipname"/>
  <property name="kdenlive:clip_type">0</property>
  <property name="kdenlive:folderid">-1</property>
  <property name="kdenlive:id">509</property>
  <property name="kdenlive:file_size">8252806</property>
  <property name="kdenlive:file_hash">ffe61440d9965edc2fdf9622c66567a0</property>
  <property name="kdenlive:audio_max1">218</property>
  <property name="meta.media.nb_streams">2</property>
  <property name="meta.media.0.stream.type">video</property>
  <property name="meta.media.0.stream.frame_rate">29.97</property>
  <property name="meta.media.0.stream.sample_aspect_ratio">1</property>
  <property name="meta.media.0.codec.width">1280</property>
  <property name="meta.media.0.codec.height">720</property>
  <property name="meta.media.0.codec.rotate">0</property>
  <property name="meta.media.0.codec.pix_fmt">yuv420p</property>
  <property name="meta.media.0.codec.sample_aspect_ratio">0</property>
  <property name="meta.media.0.codec.colorspace">709</property>
  <property name="meta.media.0.codec.color_trc">1</property>
  <property name="meta.media.0.codec.name">vp9</property>
  <property name="meta.media.0.codec.long_name">Google VP9</property>
  <property name="meta.media.0.codec.bit_rate">0</property>
  <property name="meta.attr.0.stream.language.markup">eng</property>
  <property name="meta.attr.0.stream.DURATION.markup">00:02:39.726000000</property>
  <property name="meta.media.1.stream.type">audio</property>
  <property name="meta.media.1.codec.sample_fmt">fltp</property>
  <property name="meta.media.1.codec.sample_rate">48000</property>
  <property name="meta.media.1.codec.channels">2</property>
  <property name="meta.media.1.codec.name">opus</property>
  <property name="meta.media.1.codec.long_name">Opus</property>
  <property name="meta.media.1.codec.bit_rate">0</property>
  <property name="meta.attr.1.stream.language.markup">eng</property>
  <property name="meta.attr.1.stream.DURATION.markup">00:02:39.741000000</property>
  <property name="meta.attr.ENCODER.markup">Lavf59.27.100</property>
  <property name="meta.media.sample_aspect_num">1</property>
  <property name="meta.media.sample_aspect_den">1</property>
  <property name="meta.media.frame_rate_num">30000</property>
  <property name="meta.media.frame_rate_den">1001</property>
  <property name="meta.media.colorspace">709</property>
  <property name="meta.media.color_trc">1</property>
  <property name="meta.media.has_b_frames">0</property>
  <property name="meta.media.width">1280</property>
  <property name="meta.media.height">720</property>
  <property name="meta.media.color_range">mpeg</property>
  <property name="xml">was here</property>
  <property name="meta.media.top_field_first">0</property>
  <property name="meta.media.progressive">1</property>
  <property name="set.test_audio">1</property>
  <property name="set.test_image">0</property>
  <property name="mute_on_pause">1</property>
 </chain>
 <chain id="chain440" out="00:30:54.920">
  <property name="length">46374</property>
  <property name="eof">pause</property>
  <property name="resource">/home/liquidzulu/Videos/yt/b-roll/What is it Like to be a Batï¼Ÿ - the hard problem of consciousness [aaZbCctlll4].webm</property>
  <property name="mlt_service">avformat-novalidate</property>
  <property name="seekable">1</property>
  <property name="format">3</property>
  <property name="audio_index">-1</property>
  <property name="video_index">0</property>
  <property name="kdenlive:clipname"/>
  <property name="kdenlive:clip_type">0</property>
  <property name="kdenlive:folderid">-1</property>
  <property name="kdenlive:id">516</property>
  <property name="kdenlive:file_size">206590518</property>
  <property name="kdenlive:file_hash">88cda21b12ceac23805c0c39f5962eac</property>
  <property name="kdenlive:active_streams">-1</property>
  <property name="set.test_audio">1</property>
  <property name="kdenlive:audio_max1">196</property>
  <property name="meta.media.nb_streams">2</property>
  <property name="meta.media.0.stream.type">video</property>
  <property name="meta.media.0.stream.frame_rate">59.9401</property>
  <property name="meta.media.0.stream.sample_aspect_ratio">1</property>
  <property name="meta.media.0.codec.width">1280</property>
  <property name="meta.media.0.codec.height">720</property>
  <property name="meta.media.0.codec.rotate">0</property>
  <property name="meta.media.0.codec.pix_fmt">yuv420p</property>
  <property name="meta.media.0.codec.sample_aspect_ratio">0</property>
  <property name="meta.media.0.codec.colorspace">709</property>
  <property name="meta.media.0.codec.color_trc">1</property>
  <property name="meta.media.0.codec.name">vp9</property>
  <property name="meta.media.0.codec.long_name">Google VP9</property>
  <property name="meta.media.0.codec.bit_rate">0</property>
  <property name="meta.attr.0.stream.language.markup">eng</property>
  <property name="meta.attr.0.stream.DURATION.markup">00:30:54.936000000</property>
  <property name="meta.media.1.stream.type">audio</property>
  <property name="meta.media.1.codec.sample_fmt">fltp</property>
  <property name="meta.media.1.codec.sample_rate">48000</property>
  <property name="meta.media.1.codec.channels">2</property>
  <property name="meta.media.1.codec.name">opus</property>
  <property name="meta.media.1.codec.long_name">Opus</property>
  <property name="meta.media.1.codec.bit_rate">0</property>
  <property name="meta.attr.1.stream.language.markup">eng</property>
  <property name="meta.attr.1.stream.DURATION.markup">00:30:54.961000000</property>
  <property name="meta.attr.ENCODER.markup">Lavf59.27.100</property>
  <property name="meta.media.sample_aspect_num">1</property>
  <property name="meta.media.sample_aspect_den">1</property>
  <property name="meta.media.frame_rate_num">60000</property>
  <property name="meta.media.frame_rate_den">1001</property>
  <property name="meta.media.colorspace">709</property>
  <property name="meta.media.color_trc">1</property>
  <property name="meta.media.has_b_frames">0</property>
  <property name="meta.media.width">1280</property>
  <property name="meta.media.height">720</property>
  <property name="meta.media.color_range">mpeg</property>
  <property name="xml">was here</property>
  <property name="meta.media.top_field_first">0</property>
  <property name="meta.media.progressive">1</property>
  <property name="set.test_image">0</property>
  <property name="mute_on_pause">1</property>
 </chain>
 <producer id="producer701" in="00:00:00.000" out="00:00:19.680">
  <property name="length">00:00:19.720</property>
  <property name="eof">pause</property>
  <property name="resource">/home/liquidzulu/Pictures/yt/animation/output/project/footnotes/footnote-27/.all.png</property>
  <property name="ttl">1</property>
  <property name="aspect_ratio">1</property>
  <property name="progressive">1</property>
  <property name="seekable">1</property>
  <property name="format">2</property>
  <property name="meta.media.width">1920</property>
  <property name="meta.media.height">1080</property>
  <property name="mlt_service">qimage</property>
  <property name="kdenlive:clipname">footnote-27</property>
  <property name="low-pass">0</property>
  <property name="animation"/>
  <property name="luma_file"/>
  <property name="luma_duration">25</property>
  <property name="fade">0</property>
  <property name="crop">0</property>
  <property name="softness">0</property>
  <property name="loop">0</property>
  <property name="kdenlive:duration">00:00:19:18</property>
  <property name="kdenlive:folderid">273</property>
  <property name="kdenlive:id">548</property>
  <property name="kdenlive:clip_type">2</property>
  <property name="kdenlive:file_hash">7a600b0bea9ff785ff3d1eb38c15b9b7</property>
  <property name="xml">was here</property>
  <property name="set.test_audio">1</property>
  <property name="set.test_image">0</property>
 </producer>
 <producer id="producer702" in="00:00:00.000" out="00:00:19.680">
  <property name="length">00:00:19.720</property>
  <property name="eof">pause</property>
  <property name="resource">/home/liquidzulu/Pictures/yt/animation/output/project/footnotes/footnote-29/.all.png</property>
  <property name="ttl">1</property>
  <property name="aspect_ratio">1</property>
  <property name="progressive">1</property>
  <property name="seekable">1</property>
  <property name="format">2</property>
  <property name="meta.media.width">1920</property>
  <property name="meta.media.height">1080</property>
  <property name="mlt_service">qimage</property>
  <property name="kdenlive:clipname">footnote-29</property>
  <property name="low-pass">0</property>
  <property name="animation"/>
  <property name="luma_file"/>
  <property name="luma_duration">25</property>
  <property name="fade">0</property>
  <property name="crop">0</property>
  <property name="softness">0</property>
  <property name="loop">0</property>
  <property name="kdenlive:duration">00:00:19:18</property>
  <property name="kdenlive:folderid">-1</property>
  <property name="kdenlive:id">554</property>
  <property name="kdenlive:clip_type">2</property>
  <property name="kdenlive:file_hash">02a5c0b788dc975c2fac8d8cd4c88580</property>
  <property name="xml">was here</property>
  <property name="set.test_audio">1</property>
  <property name="set.test_image">0</property>
 </producer>
 <producer id="producer703" in="00:00:00.000" out="00:00:19.680">
  <property name="length">00:00:19.720</property>
  <property name="eof">pause</property>
  <property name="resource">/home/liquidzulu/Pictures/yt/animation/output/project/footnotes/footnote-41/.all.png</property>
  <property name="ttl">1</property>
  <property name="aspect_ratio">1</property>
  <property name="progressive">1</property>
  <property name="seekable">1</property>
  <property name="format">2</property>
  <property name="meta.media.width">1920</property>
  <property name="meta.media.height">1080</property>
  <property name="mlt_service">qimage</property>
  <property name="kdenlive:clipname">footnote-41</property>
  <property name="low-pass">0</property>
  <property name="animation"/>
  <property name="luma_file"/>
  <property name="luma_duration">25</property>
  <property name="fade">0</property>
  <property name="crop">0</property>
  <property name="softness">0</property>
  <property name="loop">0</property>
  <property name="kdenlive:duration">00:00:19:18</property>
  <property name="kdenlive:folderid">-1</property>
  <property name="kdenlive:id">610</property>
  <property name="kdenlive:clip_type">2</property>
  <property name="kdenlive:file_hash">901b028ade20f3a8133026210ceb2a8c</property>
  <property name="xml">was here</property>
  <property name="set.test_audio">1</property>
  <property name="set.test_image">0</property>
 </producer>
 <chain id="chain441" out="00:20:20.360">
  <property name="length">30510</property>
  <property name="eof">pause</property>
  <property name="resource">b-roll/What Does Your Imagination Look Likeï¼Ÿ [ZOIIZiEUNmg].webm</property>
  <property name="mlt_service">avformat-novalidate</property>
  <property name="seekable">1</property>
  <property name="format">3</property>
  <property name="audio_index">-1</property>
  <property name="video_index">0</property>
  <property name="kdenlive:clipname"/>
  <property name="kdenlive:clip_type">0</property>
  <property name="kdenlive:folderid">14</property>
  <property name="kdenlive:id">478</property>
  <property name="kdenlive:file_size">1297047636</property>
  <property name="kdenlive:file_hash">91c394f517b50d55c5c4e6fdd3d1fe85</property>
  <property name="kdenlive:active_streams">-1</property>
  <property name="set.test_audio">1</property>
  <property name="kdenlive:audio_max1">227</property>
  <property name="meta.media.nb_streams">2</property>
  <property name="meta.media.0.stream.type">video</property>
  <property name="meta.media.0.stream.frame_rate">30</property>
  <property name="meta.media.0.stream.sample_aspect_ratio">1</property>
  <property name="meta.media.0.codec.width">3840</property>
  <property name="meta.media.0.codec.height">2160</property>
  <property name="meta.media.0.codec.rotate">0</property>
  <property name="meta.media.0.codec.pix_fmt">yuv420p</property>
  <property name="meta.media.0.codec.sample_aspect_ratio">0</property>
  <property name="meta.media.0.codec.colorspace">709</property>
  <property name="meta.media.0.codec.color_trc">1</property>
  <property name="meta.media.0.codec.name">vp9</property>
  <property name="meta.media.0.codec.long_name">Google VP9</property>
  <property name="meta.media.0.codec.bit_rate">0</property>
  <property name="meta.attr.0.stream.language.markup">eng</property>
  <property name="meta.attr.0.stream.DURATION.markup">00:20:20.367000000</property>
  <property name="meta.media.1.stream.type">audio</property>
  <property name="meta.media.1.codec.sample_fmt">fltp</property>
  <property name="meta.media.1.codec.sample_rate">48000</property>
  <property name="meta.media.1.codec.channels">2</property>
  <property name="meta.media.1.codec.name">opus</property>
  <property name="meta.media.1.codec.long_name">Opus</property>
  <property name="meta.media.1.codec.bit_rate">0</property>
  <property name="meta.attr.1.stream.language.markup">eng</property>
  <property name="meta.attr.1.stream.DURATION.markup">00:20:20.381000000</property>
  <property name="meta.attr.ENCODER.markup">Lavf59.27.100</property>
  <property name="meta.media.sample_aspect_num">1</property>
  <property name="meta.media.sample_aspect_den">1</property>
  <property name="meta.media.frame_rate_num">30</property>
  <property name="meta.media.frame_rate_den">1</property>
  <property name="meta.media.colorspace">709</property>
  <property name="meta.media.color_trc">1</property>
  <property name="meta.media.has_b_frames">0</property>
  <property name="meta.media.width">3840</property>
  <property name="meta.media.height">2160</property>
  <property name="meta.media.color_range">mpeg</property>
  <property name="xml">was here</property>
  <property name="meta.media.top_field_first">0</property>
  <property name="meta.media.progressive">1</property>
  <property name="set.test_image">0</property>
  <property name="mute_on_pause">1</property>
 </chain>
 <chain id="chain442" out="00:02:10.560">
  <property name="length">3265</property>
  <property name="eof">pause</property>
  <property name="resource">/home/liquidzulu/Videos/yt/b-roll/Charlie Chaplin - Modern Times - Roller Skating Scene [kPcEFHA3X0c].webm</property>
  <property name="mlt_service">avformat-novalidate</property>
  <property name="seekable">1</property>
  <property name="format">3</property>
  <property name="audio_index">-1</property>
  <property name="video_index">0</property>
  <property name="kdenlive:clipname"/>
  <property name="kdenlive:clip_type">0</property>
  <property name="kdenlive:folderid">14</property>
  <property name="kdenlive:id">687</property>
  <property name="kdenlive:file_size">37753081</property>
  <property name="kdenlive:file_hash">affacec5ca077e86adbeafc82e03ae5a</property>
  <property name="kdenlive:audio_max1">153</property>
  <property name="kdenlive:active_streams">-1</property>
  <property name="set.test_audio">1</property>
  <property name="meta.media.nb_streams">2</property>
  <property name="meta.media.0.stream.type">video</property>
  <property name="meta.media.0.stream.frame_rate">25</property>
  <property name="meta.media.0.stream.sample_aspect_ratio">1</property>
  <property name="meta.media.0.codec.width">1920</property>
  <property name="meta.media.0.codec.height">1080</property>
  <property name="meta.media.0.codec.rotate">0</property>
  <property name="meta.media.0.codec.pix_fmt">yuv420p</property>
  <property name="meta.media.0.codec.sample_aspect_ratio">0</property>
  <property name="meta.media.0.codec.colorspace">709</property>
  <property name="meta.media.0.codec.color_trc">1</property>
  <property name="meta.media.0.codec.name">vp9</property>
  <property name="meta.media.0.codec.long_name">Google VP9</property>
  <property name="meta.media.0.codec.bit_rate">0</property>
  <property name="meta.attr.0.stream.language.markup">eng</property>
  <property name="meta.attr.0.stream.DURATION.markup">00:02:10.520000000</property>
  <property name="meta.media.1.stream.type">audio</property>
  <property name="meta.media.1.codec.sample_fmt">fltp</property>
  <property name="meta.media.1.codec.sample_rate">48000</property>
  <property name="meta.media.1.codec.channels">2</property>
  <property name="meta.media.1.codec.name">opus</property>
  <property name="meta.media.1.codec.long_name">Opus</property>
  <property name="meta.media.1.codec.bit_rate">0</property>
  <property name="meta.attr.1.stream.language.markup">eng</property>
  <property name="meta.attr.1.stream.DURATION.markup">00:02:10.601000000</property>
  <property name="meta.attr.ENCODER.markup">Lavf59.27.100</property>
  <property name="meta.media.sample_aspect_num">1</property>
  <property name="meta.media.sample_aspect_den">1</property>
  <property name="meta.media.frame_rate_num">25</property>
  <property name="meta.media.frame_rate_den">1</property>
  <property name="meta.media.colorspace">709</property>
  <property name="meta.media.color_trc">1</property>
  <property name="meta.media.has_b_frames">0</property>
  <property name="meta.media.width">1920</property>
  <property name="meta.media.height">1080</property>
  <property name="meta.media.color_range">mpeg</property>
  <property name="xml">was here</property>
  <property name="meta.media.top_field_first">0</property>
  <property name="meta.media.progressive">1</property>
  <property name="set.test_image">0</property>
  <property name="mute_on_pause">1</property>
 </chain>
 <producer id="producer704" in="00:00:00.000" out="00:00:19.680">
  <property name="length">00:00:19.720</property>
  <property name="eof">pause</property>
  <property name="resource">/home/liquidzulu/Pictures/yt/animation/output/project/footnotes/footnote-48/.all.png</property>
  <property name="ttl">1</property>
  <property name="aspect_ratio">1</property>
  <property name="progressive">1</property>
  <property name="seekable">1</property>
  <property name="format">2</property>
  <property name="meta.media.width">1920</property>
  <property name="meta.media.height">1080</property>
  <property name="mlt_service">qimage</property>
  <property name="kdenlive:clipname">footnote-48</property>
  <property name="low-pass">0</property>
  <property name="animation"/>
  <property name="luma_file"/>
  <property name="luma_duration">25</property>
  <property name="fade">0</property>
  <property name="crop">0</property>
  <property name="softness">0</property>
  <property name="loop">0</property>
  <property name="kdenlive:duration">00:00:19:18</property>
  <property name="kdenlive:folderid">-1</property>
  <property name="kdenlive:id">689</property>
  <property name="kdenlive:clip_type">2</property>
  <property name="kdenlive:file_hash">beb222283b8f7095ca4a8ef2c968f246</property>
  <property name="xml">was here</property>
  <property name="set.test_audio">1</property>
  <property name="set.test_image">0</property>
 </producer>
 <producer id="producer705" in="00:00:00.000" out="00:00:19.680">
  <property name="length">00:00:19.720</property>
  <property name="eof">pause</property>
  <property name="resource">/home/liquidzulu/Pictures/yt/animation/output/project/footnotes/footnote-50/.all.png</property>
  <property name="ttl">1</property>
  <property name="aspect_ratio">1</property>
  <property name="progressive">1</property>
  <property name="seekable">1</property>
  <property name="format">2</property>
  <property name="meta.media.width">1920</property>
  <property name="meta.media.height">1080</property>
  <property name="mlt_service">qimage</property>
  <property name="kdenlive:clipname">footnote-50</property>
  <property name="low-pass">0</property>
  <property name="animation"/>
  <property name="luma_file"/>
  <property name="luma_duration">25</property>
  <property name="fade">0</property>
  <property name="crop">0</property>
  <property name="softness">0</property>
  <property name="loop">0</property>
  <property name="kdenlive:duration">00:00:19:18</property>
  <property name="kdenlive:folderid">273</property>
  <property name="kdenlive:id">710</property>
  <property name="kdenlive:clip_type">2</property>
  <property name="kdenlive:file_hash">c8c64ddb736d17a90c8dd73a2770136e</property>
  <property name="xml">was here</property>
  <property name="set.test_audio">1</property>
  <property name="set.test_image">0</property>
 </producer>
 <chain id="chain443" out="00:07:09.920">
  <property name="length">10749</property>
  <property name="eof">pause</property>
  <property name="resource">/home/liquidzulu/Videos/yt/b-roll/The Intense 8 Hour Hunt ï½œ Attenborough Life of Mammals ï½œ BBC Earth [826HMLoiE_o].webm</property>
  <property name="mlt_service">avformat-novalidate</property>
  <property name="seekable">1</property>
  <property name="format">3</property>
  <property name="audio_index">-1</property>
  <property name="video_index">0</property>
  <property name="kdenlive:clipname"/>
  <property name="kdenlive:clip_type">0</property>
  <property name="kdenlive:folderid">-1</property>
  <property name="kdenlive:id">702</property>
  <property name="kdenlive:file_size">26362561</property>
  <property name="kdenlive:file_hash">3d6014e4cf69b13577357be50ce971dd</property>
  <property name="kdenlive:audio_max1">200</property>
  <property name="kdenlive:active_streams">-1</property>
  <property name="set.test_audio">1</property>
  <property name="meta.media.nb_streams">2</property>
  <property name="meta.media.0.stream.type">video</property>
  <property name="meta.media.0.stream.frame_rate">25</property>
  <property name="meta.media.0.stream.sample_aspect_ratio">1</property>
  <property name="meta.media.0.codec.width">634</property>
  <property name="meta.media.0.codec.height">360</property>
  <property name="meta.media.0.codec.rotate">0</property>
  <property name="meta.media.0.codec.pix_fmt">yuv420p</property>
  <property name="meta.media.0.codec.sample_aspect_ratio">0</property>
  <property name="meta.media.0.codec.colorspace">709</property>
  <property name="meta.media.0.codec.color_trc">1</property>
  <property name="meta.media.0.codec.name">vp9</property>
  <property name="meta.media.0.codec.long_name">Google VP9</property>
  <property name="meta.media.0.codec.bit_rate">0</property>
  <property name="meta.attr.0.stream.language.markup">eng</property>
  <property name="meta.attr.0.stream.DURATION.markup">00:07:09.920000000</property>
  <property name="meta.media.1.stream.type">audio</property>
  <property name="meta.media.1.codec.sample_fmt">fltp</property>
  <property name="meta.media.1.codec.sample_rate">48000</property>
  <property name="meta.media.1.codec.channels">2</property>
  <property name="meta.media.1.codec.name">opus</property>
  <property name="meta.media.1.codec.long_name">Opus</property>
  <property name="meta.media.1.codec.bit_rate">0</property>
  <property name="meta.attr.1.stream.language.markup">eng</property>
  <property name="meta.attr.1.stream.DURATION.markup">00:07:09.941000000</property>
  <property name="meta.attr.ENCODER.markup">Lavf59.27.100</property>
  <property name="meta.media.sample_aspect_num">1</property>
  <property name="meta.media.sample_aspect_den">1</property>
  <property name="meta.media.frame_rate_num">25</property>
  <property name="meta.media.frame_rate_den">1</property>
  <property name="meta.media.colorspace">709</property>
  <property name="meta.media.color_trc">1</property>
  <property name="meta.media.has_b_frames">0</property>
  <property name="meta.media.width">634</property>
  <property name="meta.media.height">360</property>
  <property name="meta.media.color_range">mpeg</property>
  <property name="xml">was here</property>
  <property name="meta.media.top_field_first">0</property>
  <property name="meta.media.progressive">1</property>
  <property name="set.test_image">0</property>
  <property name="mute_on_pause">1</property>
 </chain>
 <producer id="producer706" in="00:00:00.000" out="00:00:19.680">
  <property name="length">00:00:19.720</property>
  <property name="eof">pause</property>
  <property name="resource">/home/liquidzulu/Pictures/yt/animation/output/project/footnotes/footnote-54/.all.png</property>
  <property name="ttl">1</property>
  <property name="aspect_ratio">1</property>
  <property name="progressive">1</property>
  <property name="seekable">1</property>
  <property name="format">2</property>
  <property name="meta.media.width">1920</property>
  <property name="meta.media.height">1080</property>
  <property name="mlt_service">qimage</property>
  <property name="kdenlive:clipname">footnote-54</property>
  <property name="low-pass">0</property>
  <property name="animation"/>
  <property name="luma_file"/>
  <property name="luma_duration">1</property>
  <property name="fade">0</property>
  <property name="crop">0</property>
  <property name="softness">0</property>
  <property name="loop">0</property>
  <property name="kdenlive:duration">00:00:19:18</property>
  <property name="kdenlive:folderid">273</property>
  <property name="kdenlive:id">714</property>
  <property name="kdenlive:clip_type">2</property>
  <property name="kdenlive:file_hash">d00ee629d04e6cea0e375b16bb9a734b</property>
  <property name="xml">was here</property>
  <property name="set.test_audio">1</property>
  <property name="set.test_image">0</property>
 </producer>
 <producer id="producer707" in="00:00:00.000" out="00:00:19.680">
  <property name="length">00:00:19.720</property>
  <property name="eof">pause</property>
  <property name="resource">/home/liquidzulu/Pictures/yt/animation/output/project/footnotes/footnote-55/.all.png</property>
  <property name="ttl">1</property>
  <property name="aspect_ratio">1</property>
  <property name="progressive">1</property>
  <property name="seekable">1</property>
  <property name="format">2</property>
  <property name="meta.media.width">1920</property>
  <property name="meta.media.height">1080</property>
  <property name="mlt_service">qimage</property>
  <property name="kdenlive:clipname">footnote-55</property>
  <property name="low-pass">0</property>
  <property name="animation"/>
  <property name="luma_file"/>
  <property name="luma_duration">1</property>
  <property name="fade">0</property>
  <property name="crop">0</property>
  <property name="softness">0</property>
  <property name="loop">0</property>
  <property name="kdenlive:duration">00:00:19:18</property>
  <property name="kdenlive:folderid">-1</property>
  <property name="kdenlive:id">716</property>
  <property name="kdenlive:clip_type">2</property>
  <property name="kdenlive:file_hash">3ff4b86e7bc594837f36fce743d43719</property>
  <property name="xml">was here</property>
  <property name="set.test_audio">1</property>
  <property name="set.test_image">0</property>
 </producer>
 <chain id="chain444" out="00:04:40.600">
  <property name="length">7016</property>
  <property name="eof">pause</property>
  <property name="resource">b-roll/The EU agrees on AI regulationsï¼š What will it mean for people and businesses in the EUï¼Ÿ ï½œ DW News [I19ezZcyB6w].webm</property>
  <property name="mlt_service">avformat-novalidate</property>
  <property name="seekable">1</property>
  <property name="format">3</property>
  <property name="audio_index">-1</property>
  <property name="video_index">0</property>
  <property name="kdenlive:clipname"/>
  <property name="kdenlive:clip_type">0</property>
  <property name="kdenlive:folderid">-1</property>
  <property name="kdenlive:id">732</property>
  <property name="kdenlive:file_size">68026192</property>
  <property name="kdenlive:file_hash">805aa0490732174808647414cf1dbbb0</property>
  <property name="kdenlive:audio_max1">167</property>
  <property name="kdenlive:active_streams">-1</property>
  <property name="set.test_audio">1</property>
  <property name="meta.media.nb_streams">2</property>
  <property name="meta.media.0.stream.type">video</property>
  <property name="meta.media.0.stream.frame_rate">25</property>
  <property name="meta.media.0.stream.sample_aspect_ratio">1</property>
  <property name="meta.media.0.codec.width">1920</property>
  <property name="meta.media.0.codec.height">1080</property>
  <property name="meta.media.0.codec.rotate">0</property>
  <property name="meta.media.0.codec.pix_fmt">yuv420p</property>
  <property name="meta.media.0.codec.sample_aspect_ratio">0</property>
  <property name="meta.media.0.codec.colorspace">709</property>
  <property name="meta.media.0.codec.color_trc">1</property>
  <property name="meta.media.0.codec.name">vp9</property>
  <property name="meta.media.0.codec.long_name">Google VP9</property>
  <property name="meta.media.0.codec.bit_rate">0</property>
  <property name="meta.attr.0.stream.HANDLER_NAME.markup">ISO Media file produced by Google Inc. Created on: 12/10/2023.</property>
  <property name="meta.attr.0.stream.VENDOR_ID.markup">[0][0][0][0]</property>
  <property name="meta.attr.0.stream.DURATION.markup">00:04:40.600000000</property>
  <property name="meta.media.1.stream.type">audio</property>
  <property name="meta.media.1.codec.sample_fmt">fltp</property>
  <property name="meta.media.1.codec.sample_rate">48000</property>
  <property name="meta.media.1.codec.channels">2</property>
  <property name="meta.media.1.codec.name">opus</property>
  <property name="meta.media.1.codec.long_name">Opus</property>
  <property name="meta.media.1.codec.bit_rate">0</property>
  <property name="meta.attr.1.stream.language.markup">eng</property>
  <property name="meta.attr.1.stream.DURATION.markup">00:04:40.621000000</property>
  <property name="meta.attr.COMPATIBLE_BRANDS.markup">iso6mp41</property>
  <property name="meta.attr.MAJOR_BRAND.markup">dash</property>
  <property name="meta.attr.MINOR_VERSION.markup">0</property>
  <property name="meta.attr.ENCODER.markup">Lavf59.27.100</property>
  <property name="meta.media.sample_aspect_num">1</property>
  <property name="meta.media.sample_aspect_den">1</property>
  <property name="meta.media.frame_rate_num">25</property>
  <property name="meta.media.frame_rate_den">1</property>
  <property name="meta.media.colorspace">709</property>
  <property name="meta.media.color_trc">1</property>
  <property name="meta.media.has_b_frames">0</property>
  <property name="meta.media.width">1920</property>
  <property name="meta.media.height">1080</property>
  <property name="meta.media.color_range">mpeg</property>
  <property name="xml">was here</property>
  <property name="meta.media.top_field_first">0</property>
  <property name="meta.media.progressive">1</property>
  <property name="set.test_image">0</property>
  <property name="mute_on_pause">1</property>
 </chain>
 <chain id="chain445" out="00:01:00.960">
  <property name="length">1525</property>
  <property name="eof">pause</property>
  <property name="resource">/home/liquidzulu/Videos/yt/b-roll/Professional, Corporate, Small Business Stock Footage Highlight Reel [YLN1Argi7ik].webm</property>
  <property name="mlt_service">avformat-novalidate</property>
  <property name="seekable">1</property>
  <property name="format">3</property>
  <property name="audio_index">-1</property>
  <property name="video_index">0</property>
  <property name="kdenlive:clipname"/>
  <property name="kdenlive:clip_type">0</property>
  <property name="kdenlive:folderid">-1</property>
  <property name="kdenlive:id">735</property>
  <property name="kdenlive:file_size">14270636</property>
  <property name="kdenlive:file_hash">1dff43e022ff258026a5cb9bdcd4f6ca</property>
  <property name="kdenlive:audio_max1">242</property>
  <property name="kdenlive:active_streams">-1</property>
  <property name="set.test_audio">1</property>
  <property name="meta.media.nb_streams">2</property>
  <property name="meta.media.0.stream.type">video</property>
  <property name="meta.media.0.stream.frame_rate">29.97</property>
  <property name="meta.media.0.stream.sample_aspect_ratio">1</property>
  <property name="meta.media.0.codec.width">1920</property>
  <property name="meta.media.0.codec.height">1080</property>
  <property name="meta.media.0.codec.rotate">0</property>
  <property name="meta.media.0.codec.pix_fmt">yuv420p</property>
  <property name="meta.media.0.codec.sample_aspect_ratio">0</property>
  <property name="meta.media.0.codec.colorspace">709</property>
  <property name="meta.media.0.codec.color_trc">1</property>
  <property name="meta.media.0.codec.name">vp9</property>
  <property name="meta.media.0.codec.long_name">Google VP9</property>
  <property name="meta.media.0.codec.bit_rate">0</property>
  <property name="meta.attr.0.stream.language.markup">eng</property>
  <property name="meta.attr.0.stream.DURATION.markup">00:01:00.960000000</property>
  <property name="meta.media.1.stream.type">audio</property>
  <property name="meta.media.1.codec.sample_fmt">fltp</property>
  <property name="meta.media.1.codec.sample_rate">48000</property>
  <property name="meta.media.1.codec.channels">2</property>
  <property name="meta.media.1.codec.name">opus</property>
  <property name="meta.media.1.codec.long_name">Opus</property>
  <property name="meta.media.1.codec.bit_rate">0</property>
  <property name="meta.attr.1.stream.language.markup">eng</property>
  <property name="meta.attr.1.stream.DURATION.markup">00:01:00.981000000</property>
  <property name="meta.attr.ENCODER.markup">Lavf59.27.100</property>
  <property name="meta.media.sample_aspect_num">1</property>
  <property name="meta.media.sample_aspect_den">1</property>
  <property name="meta.media.frame_rate_num">30000</property>
  <property name="meta.media.frame_rate_den">1001</property>
  <property name="meta.media.colorspace">709</property>
  <property name="meta.media.color_trc">1</property>
  <property name="meta.media.has_b_frames">0</property>
  <property name="meta.media.width">1920</property>
  <property name="meta.media.height">1080</property>
  <property name="meta.media.color_range">mpeg</property>
  <property name="xml">was here</property>
  <property name="meta.media.top_field_first">0</property>
  <property name="meta.media.progressive">1</property>
  <property name="set.test_image">0</property>
  <property name="mute_on_pause">1</property>
 </chain>
 <chain id="chain446" out="00:03:00.880">
  <property name="length">4523</property>
  <property name="eof">pause</property>
  <property name="resource">b-roll/Lighthouse Speed painting â§¸ Acrylic â§¸ painting demonstration [wobXMrVBNAw].mkv</property>
  <property name="mlt_service">avformat-novalidate</property>
  <property name="seekable">1</property>
  <property name="format">3</property>
  <property name="audio_index">-1</property>
  <property name="video_index">0</property>
  <property name="kdenlive:clipname"/>
  <property name="kdenlive:clip_type">0</property>
  <property name="kdenlive:folderid">14</property>
  <property name="kdenlive:id">488</property>
  <property name="kdenlive:file_size">66973404</property>
  <property name="kdenlive:file_hash">57849ca9b78a327606250e77554f88d3</property>
  <property name="kdenlive:audio_max1">227</property>
  <property name="kdenlive:active_streams">-1</property>
  <property name="set.test_audio">1</property>
  <property name="meta.media.nb_streams">2</property>
  <property name="meta.media.0.stream.type">video</property>
  <property name="meta.media.0.stream.frame_rate">25</property>
  <property name="meta.media.0.stream.sample_aspect_ratio">1</property>
  <property name="meta.media.0.codec.width">1920</property>
  <property name="meta.media.0.codec.height">1080</property>
  <property name="meta.media.0.codec.rotate">0</property>
  <property name="meta.media.0.codec.pix_fmt">yuv420p</property>
  <property name="meta.media.0.codec.sample_aspect_ratio">1</property>
  <property name="meta.media.0.codec.colorspace">709</property>
  <property name="meta.media.0.codec.color_trc">1</property>
  <property name="meta.media.0.codec.name">h264</property>
  <property name="meta.media.0.codec.long_name">H.264 / AVC / MPEG-4 AVC / MPEG-4 part 10</property>
  <property name="meta.media.0.codec.bit_rate">0</property>
  <property name="meta.attr.0.stream.HANDLER_NAME.markup">ISO Media file produced by Google Inc.</property>
  <property name="meta.attr.0.stream.VENDOR_ID.markup">[0][0][0][0]</property>
  <property name="meta.attr.0.stream.DURATION.markup">00:03:00.880000000</property>
  <property name="meta.media.1.stream.type">audio</property>
  <property name="meta.media.1.codec.sample_fmt">fltp</property>
  <property name="meta.media.1.codec.sample_rate">48000</property>
  <property name="meta.media.1.codec.channels">2</property>
  <property name="meta.media.1.codec.name">opus</property>
  <property name="meta.media.1.codec.long_name">Opus</property>
  <property name="meta.media.1.codec.bit_rate">0</property>
  <property name="meta.attr.1.stream.language.markup">eng</property>
  <property name="meta.attr.1.stream.DURATION.markup">00:03:00.901000000</property>
  <property name="meta.attr.COMPATIBLE_BRANDS.markup">iso6avc1mp41</property>
  <property name="meta.attr.MAJOR_BRAND.markup">dash</property>
  <property name="meta.attr.MINOR_VERSION.markup">0</property>
  <property name="meta.attr.ENCODER.markup">Lavf59.27.100</property>
  <property name="meta.media.sample_aspect_num">1</property>
  <property name="meta.media.sample_aspect_den">1</property>
  <property name="meta.media.frame_rate_num">25</property>
  <property name="meta.media.frame_rate_den">1</property>
  <property name="meta.media.colorspace">709</property>
  <property name="meta.media.color_trc">1</property>
  <property name="meta.media.has_b_frames">1</property>
  <property name="meta.media.width">1920</property>
  <property name="meta.media.height">1080</property>
  <property name="meta.media.color_range">mpeg</property>
  <property name="xml">was here</property>
  <property name="meta.media.top_field_first">0</property>
  <property name="meta.media.progressive">1</property>
  <property name="set.test_image">0</property>
  <property name="mute_on_pause">1</property>
 </chain>
 <chain id="chain447" out="00:01:59.440">
  <property name="length">2987</property>
  <property name="eof">pause</property>
  <property name="resource">/home/liquidzulu/Videos/yt/b-roll/The Return of Vladimir Lenin [YKNSb6jatMA].mp4</property>
  <property name="mlt_service">avformat-novalidate</property>
  <property name="seekable">1</property>
  <property name="format">3</property>
  <property name="audio_index">-1</property>
  <property name="video_index">0</property>
  <property name="kdenlive:clipname"/>
  <property name="kdenlive:clip_type">0</property>
  <property name="kdenlive:folderid">-1</property>
  <property name="kdenlive:id">750</property>
  <property name="kdenlive:file_size">27811920</property>
  <property name="kdenlive:file_hash">12fc96a1e9433f68d5f043bfacef9efb</property>
  <property name="kdenlive:audio_max1">164</property>
  <property name="kdenlive:active_streams">-1</property>
  <property name="set.test_audio">1</property>
  <property name="meta.media.nb_streams">2</property>
  <property name="meta.media.0.stream.type">video</property>
  <property name="meta.media.0.stream.frame_rate">24</property>
  <property name="meta.media.0.stream.sample_aspect_ratio">1</property>
  <property name="meta.media.0.codec.width">1920</property>
  <property name="meta.media.0.codec.height">1080</property>
  <property name="meta.media.0.codec.rotate">0</property>
  <property name="meta.media.0.codec.pix_fmt">yuv420p</property>
  <property name="meta.media.0.codec.sample_aspect_ratio">1</property>
  <property name="meta.media.0.codec.colorspace">709</property>
  <property name="meta.media.0.codec.color_trc">1</property>
  <property name="meta.media.0.codec.name">h264</property>
  <property name="meta.media.0.codec.long_name">H.264 / AVC / MPEG-4 AVC / MPEG-4 part 10</property>
  <property name="meta.media.0.codec.bit_rate">1729186</property>
  <property name="meta.attr.0.stream.handler_name.markup">ISO Media file produced by Google Inc.</property>
  <property name="meta.attr.0.stream.vendor_id.markup">[0][0][0][0]</property>
  <property name="meta.media.1.stream.type">audio</property>
  <property name="meta.media.1.codec.sample_fmt">fltp</property>
  <property name="meta.media.1.codec.sample_rate">44100</property>
  <property name="meta.media.1.codec.channels">2</property>
  <property name="meta.media.1.codec.name">aac</property>
  <property name="meta.media.1.codec.long_name">AAC (Advanced Audio Coding)</property>
  <property name="meta.media.1.codec.bit_rate">127999</property>
  <property name="meta.attr.1.stream.handler_name.markup">ISO Media file produced by Google Inc.</property>
  <property name="meta.attr.1.stream.vendor_id.markup">[0][0][0][0]</property>
  <property name="meta.attr.major_brand.markup">isom</property>
  <property name="meta.attr.minor_version.markup">512</property>
  <property name="meta.attr.compatible_brands.markup">isomiso2avc1mp41</property>
  <property name="meta.attr.encoder.markup">Lavf59.27.100</property>
  <property name="meta.media.sample_aspect_num">1</property>
  <property name="meta.media.sample_aspect_den">1</property>
  <property name="meta.media.frame_rate_num">24</property>
  <property name="meta.media.frame_rate_den">1</property>
  <property name="meta.media.colorspace">709</property>
  <property name="meta.media.color_trc">1</property>
  <property name="meta.media.has_b_frames">1</property>
  <property name="meta.media.width">1920</property>
  <property name="meta.media.height">1080</property>
  <property name="meta.media.color_range">mpeg</property>
  <property name="xml">was here</property>
  <property name="meta.media.top_field_first">0</property>
  <property name="meta.media.progressive">1</property>
  <property name="set.test_image">0</property>
  <property name="mute_on_pause">1</property>
 </chain>
 <chain id="chain448" out="00:56:37.840">
  <property name="length">84947</property>
  <property name="eof">pause</property>
  <property name="resource">b-roll/Here's What Ethical AI Really Means [AaU6tI2pb3M].webm</property>
  <property name="mlt_service">avformat-novalidate</property>
  <property name="seekable">1</property>
  <property name="format">3</property>
  <property name="audio_index">-1</property>
  <property name="video_index">0</property>
  <property name="kdenlive:clipname"/>
  <property name="kdenlive:clip_type">0</property>
  <property name="kdenlive:folderid">14</property>
  <property name="kdenlive:id">763</property>
  <property name="kdenlive:file_size">3253069716</property>
  <property name="kdenlive:file_hash">95f641f5e157428d4a2ff1a7e579fd7e</property>
  <property name="kdenlive:audio_max1">202</property>
  <property name="kdenlive:active_streams">-1</property>
  <property name="set.test_audio">1</property>
  <property name="meta.media.nb_streams">2</property>
  <property name="meta.media.0.stream.type">video</property>
  <property name="meta.media.0.stream.frame_rate">30</property>
  <property name="meta.media.0.stream.sample_aspect_ratio">1</property>
  <property name="meta.media.0.codec.width">3840</property>
  <property name="meta.media.0.codec.height">2160</property>
  <property name="meta.media.0.codec.rotate">0</property>
  <property name="meta.media.0.codec.pix_fmt">yuv420p</property>
  <property name="meta.media.0.codec.sample_aspect_ratio">0</property>
  <property name="meta.media.0.codec.colorspace">709</property>
  <property name="meta.media.0.codec.color_trc">1</property>
  <property name="meta.media.0.codec.name">vp9</property>
  <property name="meta.media.0.codec.long_name">Google VP9</property>
  <property name="meta.media.0.codec.bit_rate">0</property>
  <property name="meta.attr.0.stream.language.markup">eng</property>
  <property name="meta.attr.0.stream.DURATION.markup">00:56:37.833000000</property>
  <property name="meta.media.1.stream.type">audio</property>
  <property name="meta.media.1.codec.sample_fmt">fltp</property>
  <property name="meta.media.1.codec.sample_rate">48000</property>
  <property name="meta.media.1.codec.channels">2</property>
  <property name="meta.media.1.codec.name">opus</property>
  <property name="meta.media.1.codec.long_name">Opus</property>
  <property name="meta.media.1.codec.bit_rate">0</property>
  <property name="meta.attr.1.stream.language.markup">eng</property>
  <property name="meta.attr.1.stream.DURATION.markup">00:56:37.861000000</property>
  <property name="meta.attr.ENCODER.markup">Lavf59.27.100</property>
  <property name="meta.media.sample_aspect_num">1</property>
  <property name="meta.media.sample_aspect_den">1</property>
  <property name="meta.media.frame_rate_num">30</property>
  <property name="meta.media.frame_rate_den">1</property>
  <property name="meta.media.colorspace">709</property>
  <property name="meta.media.color_trc">1</property>
  <property name="meta.media.has_b_frames">0</property>
  <property name="meta.media.width">3840</property>
  <property name="meta.media.height">2160</property>
  <property name="meta.media.color_range">mpeg</property>
  <property name="xml">was here</property>
  <property name="meta.media.top_field_first">0</property>
  <property name="meta.media.progressive">1</property>
  <property name="set.test_image">0</property>
  <property name="mute_on_pause">1</property>
 </chain>
 <chain id="chain449" out="00:07:40.680">
  <property name="length">11518</property>
  <property name="eof">pause</property>
  <property name="resource">/home/liquidzulu/Videos/yt/b-roll/Anthemï¼š The Graphic Novel (Episode 2) [l06-VCahjLw].webm</property>
  <property name="mlt_service">avformat-novalidate</property>
  <property name="seekable">1</property>
  <property name="format">3</property>
  <property name="audio_index">-1</property>
  <property name="video_index">0</property>
  <property name="kdenlive:clipname"/>
  <property name="kdenlive:clip_type">0</property>
  <property name="kdenlive:folderid">14</property>
  <property name="kdenlive:id">779</property>
  <property name="kdenlive:file_size">118795473</property>
  <property name="kdenlive:file_hash">98feb02ed89f4b577c33f74905a9d4db</property>
  <property name="kdenlive:audio_max1">243</property>
  <property name="kdenlive:active_streams">-1</property>
  <property name="set.test_audio">1</property>
  <property name="meta.media.nb_streams">2</property>
  <property name="meta.media.0.stream.type">video</property>
  <property name="meta.media.0.stream.frame_rate">29.97</property>
  <property name="meta.media.0.stream.sample_aspect_ratio">1</property>
  <property name="meta.media.0.codec.width">1920</property>
  <property name="meta.media.0.codec.height">1080</property>
  <property name="meta.media.0.codec.rotate">0</property>
  <property name="meta.media.0.codec.pix_fmt">yuv420p</property>
  <property name="meta.media.0.codec.sample_aspect_ratio">0</property>
  <property name="meta.media.0.codec.colorspace">709</property>
  <property name="meta.media.0.codec.color_trc">1</property>
  <property name="meta.media.0.codec.name">vp9</property>
  <property name="meta.media.0.codec.long_name">Google VP9</property>
  <property name="meta.media.0.codec.bit_rate">0</property>
  <property name="meta.attr.0.stream.language.markup">eng</property>
  <property name="meta.attr.0.stream.DURATION.markup">00:07:40.693000000</property>
  <property name="meta.media.1.stream.type">audio</property>
  <property name="meta.media.1.codec.sample_fmt">fltp</property>
  <property name="meta.media.1.codec.sample_rate">48000</property>
  <property name="meta.media.1.codec.channels">2</property>
  <property name="meta.media.1.codec.name">opus</property>
  <property name="meta.media.1.codec.long_name">Opus</property>
  <property name="meta.media.1.codec.bit_rate">0</property>
  <property name="meta.attr.1.stream.language.markup">eng</property>
  <property name="meta.attr.1.stream.DURATION.markup">00:07:40.721000000</property>
  <property name="meta.attr.ENCODER.markup">Lavf59.27.100</property>
  <property name="meta.media.sample_aspect_num">1</property>
  <property name="meta.media.sample_aspect_den">1</property>
  <property name="meta.media.frame_rate_num">30000</property>
  <property name="meta.media.frame_rate_den">1001</property>
  <property name="meta.media.colorspace">709</property>
  <property name="meta.media.color_trc">1</property>
  <property name="meta.media.has_b_frames">0</property>
  <property name="meta.media.width">1920</property>
  <property name="meta.media.height">1080</property>
  <property name="meta.media.color_range">mpeg</property>
  <property name="xml">was here</property>
  <property name="meta.media.top_field_first">0</property>
  <property name="meta.media.progressive">1</property>
  <property name="set.test_image">0</property>
  <property name="mute_on_pause">1</property>
 </chain>
 <producer id="producer708" in="00:00:00.000" out="00:00:19.680">
  <property name="length">00:00:19.720</property>
  <property name="eof">pause</property>
  <property name="resource">/home/liquidzulu/Pictures/yt/animation/output/project/footnotes/footnote-64/.all.png</property>
  <property name="ttl">1</property>
  <property name="aspect_ratio">1</property>
  <property name="progressive">1</property>
  <property name="seekable">1</property>
  <property name="format">2</property>
  <property name="meta.media.width">1920</property>
  <property name="meta.media.height">1080</property>
  <property name="mlt_service">qimage</property>
  <property name="kdenlive:clipname">footnote-64</property>
  <property name="low-pass">0</property>
  <property name="animation"/>
  <property name="luma_file"/>
  <property name="luma_duration">25</property>
  <property name="fade">0</property>
  <property name="crop">0</property>
  <property name="softness">0</property>
  <property name="loop">0</property>
  <property name="kdenlive:duration">00:00:19:18</property>
  <property name="kdenlive:folderid">-1</property>
  <property name="kdenlive:id">781</property>
  <property name="kdenlive:clip_type">2</property>
  <property name="kdenlive:file_hash">7ea1efc12c54407d2a6a2466947392be</property>
  <property name="xml">was here</property>
  <property name="set.test_audio">1</property>
  <property name="set.test_image">0</property>
 </producer>
 <chain id="chain450" out="01:39:18.480">
  <property name="length">148963</property>
  <property name="eof">pause</property>
  <property name="resource">b-roll/AI Ethics, Artists, and What You Can Do About It [Nn_w3MnCyDY].webm</property>
  <property name="mlt_service">avformat-novalidate</property>
  <property name="seekable">1</property>
  <property name="format">3</property>
  <property name="audio_index">1</property>
  <property name="video_index">0</property>
  <property name="kdenlive:clipname"/>
  <property name="kdenlive:clip_type">0</property>
  <property name="kdenlive:folderid">14</property>
  <property name="kdenlive:id">7</property>
  <property name="kdenlive:file_size">7320919605</property>
  <property name="kdenlive:file_hash">305a2e1f8f3b9e51e9a0da642870036e</property>
  <property name="kdenlive:audio_max1">220</property>
  <property name="meta.media.nb_streams">2</property>
  <property name="meta.media.0.stream.type">video</property>
  <property name="meta.media.0.stream.frame_rate">23.976</property>
  <property name="meta.media.0.stream.sample_aspect_ratio">1</property>
  <property name="meta.media.0.codec.width">3840</property>
  <property name="meta.media.0.codec.height">2160</property>
  <property name="meta.media.0.codec.rotate">0</property>
  <property name="meta.media.0.codec.pix_fmt">yuv420p</property>
  <property name="meta.media.0.codec.sample_aspect_ratio">0</property>
  <property name="meta.media.0.codec.colorspace">709</property>
  <property name="meta.media.0.codec.color_trc">1</property>
  <property name="meta.media.0.codec.name">vp9</property>
  <property name="meta.media.0.codec.long_name">Google VP9</property>
  <property name="meta.media.0.codec.bit_rate">0</property>
  <property name="meta.attr.0.stream.language.markup">eng</property>
  <property name="meta.attr.0.stream.DURATION.markup">01:39:18.493000000</property>
  <property name="meta.media.1.stream.type">audio</property>
  <property name="meta.media.1.codec.sample_fmt">fltp</property>
  <property name="meta.media.1.codec.sample_rate">48000</property>
  <property name="meta.media.1.codec.channels">2</property>
  <property name="meta.media.1.codec.name">opus</property>
  <property name="meta.media.1.codec.long_name">Opus</property>
  <property name="meta.media.1.codec.bit_rate">0</property>
  <property name="meta.attr.1.stream.language.markup">eng</property>
  <property name="meta.attr.1.stream.DURATION.markup">01:39:18.521000000</property>
  <property name="meta.attr.ENCODER.markup">Lavf59.27.100</property>
  <property name="meta.media.sample_aspect_num">1</property>
  <property name="meta.media.sample_aspect_den">1</property>
  <property name="meta.media.frame_rate_num">24000</property>
  <property name="meta.media.frame_rate_den">1001</property>
  <property name="meta.media.colorspace">709</property>
  <property name="meta.media.color_trc">1</property>
  <property name="meta.media.has_b_frames">0</property>
  <property name="meta.media.width">3840</property>
  <property name="meta.media.height">2160</property>
  <property name="meta.media.color_range">mpeg</property>
  <property name="xml">was here</property>
  <property name="meta.media.top_field_first">0</property>
  <property name="meta.media.progressive">1</property>
  <property name="set.test_audio">1</property>
  <property name="set.test_image">0</property>
  <property name="mute_on_pause">1</property>
 </chain>
 <chain id="chain451" out="00:47:30.880">
  <property name="length">71273</property>
  <property name="eof">pause</property>
  <property name="resource">b-roll/The End of Artï¼š An Argument Against Image AIs [tjSxFAGP9Ss].webm</property>
  <property name="mlt_service">avformat-novalidate</property>
  <property name="seekable">1</property>
  <property name="format">3</property>
  <property name="audio_index">1</property>
  <property name="video_index">0</property>
  <property name="kdenlive:clipname"/>
  <property name="kdenlive:clip_type">0</property>
  <property name="kdenlive:folderid">14</property>
  <property name="kdenlive:id">232</property>
  <property name="kdenlive:file_size">4260243058</property>
  <property name="kdenlive:file_hash">844407801bc8596608a92a0648bd1db9</property>
  <property name="kdenlive:audio_max1">238</property>
  <property name="meta.media.nb_streams">2</property>
  <property name="meta.media.0.stream.type">video</property>
  <property name="meta.media.0.stream.frame_rate">29.97</property>
  <property name="meta.media.0.stream.sample_aspect_ratio">1</property>
  <property name="meta.media.0.codec.width">3840</property>
  <property name="meta.media.0.codec.height">2160</property>
  <property name="meta.media.0.codec.rotate">0</property>
  <property name="meta.media.0.codec.pix_fmt">yuv420p</property>
  <property name="meta.media.0.codec.sample_aspect_ratio">0</property>
  <property name="meta.media.0.codec.colorspace">709</property>
  <property name="meta.media.0.codec.color_trc">1</property>
  <property name="meta.media.0.codec.name">vp9</property>
  <property name="meta.media.0.codec.long_name">Google VP9</property>
  <property name="meta.media.0.codec.bit_rate">0</property>
  <property name="meta.attr.0.stream.language.markup">eng</property>
  <property name="meta.attr.0.stream.DURATION.markup">00:47:30.881000000</property>
  <property name="meta.media.1.stream.type">audio</property>
  <property name="meta.media.1.codec.sample_fmt">fltp</property>
  <property name="meta.media.1.codec.sample_rate">48000</property>
  <property name="meta.media.1.codec.channels">2</property>
  <property name="meta.media.1.codec.name">opus</property>
  <property name="meta.media.1.codec.long_name">Opus</property>
  <property name="meta.media.1.codec.bit_rate">0</property>
  <property name="meta.attr.1.stream.language.markup">eng</property>
  <property name="meta.attr.1.stream.DURATION.markup">00:47:30.921000000</property>
  <property name="meta.attr.ENCODER.markup">Lavf59.27.100</property>
  <property name="meta.media.sample_aspect_num">1</property>
  <property name="meta.media.sample_aspect_den">1</property>
  <property name="meta.media.frame_rate_num">30000</property>
  <property name="meta.media.frame_rate_den">1001</property>
  <property name="meta.media.colorspace">709</property>
  <property name="meta.media.color_trc">1</property>
  <property name="meta.media.has_b_frames">0</property>
  <property name="meta.media.width">3840</property>
  <property name="meta.media.height">2160</property>
  <property name="meta.media.color_range">mpeg</property>
  <property name="xml">was here</property>
  <property name="meta.media.top_field_first">0</property>
  <property name="meta.media.progressive">1</property>
  <property name="set.test_audio">1</property>
  <property name="set.test_image">0</property>
  <property name="mute_on_pause">1</property>
 </chain>
 <chain id="chain452" out="00:00:27.480">
  <property name="length">688</property>
  <property name="eof">pause</property>
  <property name="resource">/home/liquidzulu/Videos/yt/b-roll/4K smoke effect [7dbp2VH9DcA].webm</property>
  <property name="mlt_service">avformat-novalidate</property>
  <property name="seekable">1</property>
  <property name="format">3</property>
  <property name="audio_index">1</property>
  <property name="video_index">0</property>
  <property name="kdenlive:clipname"/>
  <property name="kdenlive:clip_type">0</property>
  <property name="kdenlive:folderid">-1</property>
  <property name="kdenlive:id">817</property>
  <property name="kdenlive:file_size">16084867</property>
  <property name="kdenlive:file_hash">4143cb8591c8b2f4d45606d907a9d26e</property>
  <property name="kdenlive:audio_max1">1</property>
  <property name="meta.media.nb_streams">2</property>
  <property name="meta.media.0.stream.type">video</property>
  <property name="meta.media.0.stream.frame_rate">23.976</property>
  <property name="meta.media.0.stream.sample_aspect_ratio">1</property>
  <property name="meta.media.0.codec.width">3840</property>
  <property name="meta.media.0.codec.height">2160</property>
  <property name="meta.media.0.codec.rotate">0</property>
  <property name="meta.media.0.codec.pix_fmt">yuv420p</property>
  <property name="meta.media.0.codec.sample_aspect_ratio">0</property>
  <property name="meta.media.0.codec.colorspace">709</property>
  <property name="meta.media.0.codec.color_trc">1</property>
  <property name="meta.media.0.codec.name">vp9</property>
  <property name="meta.media.0.codec.long_name">Google VP9</property>
  <property name="meta.media.0.codec.bit_rate">0</property>
  <property name="meta.attr.0.stream.language.markup">eng</property>
  <property name="meta.attr.0.stream.DURATION.markup">00:00:27.485000000</property>
  <property name="meta.media.1.stream.type">audio</property>
  <property name="meta.media.1.codec.sample_fmt">fltp</property>
  <property name="meta.media.1.codec.sample_rate">48000</property>
  <property name="meta.media.1.codec.channels">2</property>
  <property name="meta.media.1.codec.name">opus</property>
  <property name="meta.media.1.codec.long_name">Opus</property>
  <property name="meta.media.1.codec.bit_rate">0</property>
  <property name="meta.attr.1.stream.language.markup">eng</property>
  <property name="meta.attr.1.stream.DURATION.markup">00:00:27.501000000</property>
  <property name="meta.attr.ENCODER.markup">Lavf59.27.100</property>
  <property name="meta.media.sample_aspect_num">1</property>
  <property name="meta.media.sample_aspect_den">1</property>
  <property name="meta.media.frame_rate_num">24000</property>
  <property name="meta.media.frame_rate_den">1001</property>
  <property name="meta.media.colorspace">709</property>
  <property name="meta.media.color_trc">1</property>
  <property name="meta.media.has_b_frames">0</property>
  <property name="meta.media.width">3840</property>
  <property name="meta.media.height">2160</property>
  <property name="meta.media.color_range">mpeg</property>
  <property name="xml">was here</property>
  <property name="meta.media.top_field_first">0</property>
  <property name="meta.media.progressive">1</property>
  <property name="set.test_audio">1</property>
  <property name="set.test_image">0</property>
  <property name="mute_on_pause">1</property>
 </chain>
 <chain id="chain453" out="00:17:00.360">
  <property name="length">25510</property>
  <property name="eof">pause</property>
  <property name="resource">b-roll/New AI Art SCAM is STEALING COMMISSIONS (+More AI Art News) ï½œï½œ SPEEDPAINT + COMMENTARY [AoO8NBZ4qSo].webm</property>
  <property name="mlt_service">avformat-novalidate</property>
  <property name="seekable">1</property>
  <property name="format">3</property>
  <property name="audio_index">-1</property>
  <property name="video_index">0</property>
  <property name="mute_on_pause">0</property>
  <property name="kdenlive:clipname"/>
  <property name="kdenlive:clip_type">0</property>
  <property name="kdenlive:folderid">-1</property>
  <property name="kdenlive:id">833</property>
  <property name="kdenlive:file_size">125123623</property>
  <property name="kdenlive:file_hash">d20c058f91d3d4d0f09784851ed89523</property>
  <property name="kdenlive:audio_max1">194</property>
  <property name="kdenlive:active_streams">-1</property>
  <property name="set.test_audio">1</property>
  <property name="meta.media.nb_streams">2</property>
  <property name="meta.media.0.stream.type">video</property>
  <property name="meta.media.0.stream.frame_rate">30</property>
  <property name="meta.media.0.stream.sample_aspect_ratio">1</property>
  <property name="meta.media.0.codec.width">1920</property>
  <property name="meta.media.0.codec.height">1080</property>
  <property name="meta.media.0.codec.rotate">0</property>
  <property name="meta.media.0.codec.pix_fmt">yuv420p</property>
  <property name="meta.media.0.codec.sample_aspect_ratio">0</property>
  <property name="meta.media.0.codec.colorspace">709</property>
  <property name="meta.media.0.codec.color_trc">1</property>
  <property name="meta.media.0.codec.name">vp9</property>
  <property name="meta.media.0.codec.long_name">Google VP9</property>
  <property name="meta.media.0.codec.bit_rate">0</property>
  <property name="meta.attr.0.stream.HANDLER_NAME.markup">ISO Media file produced by Google Inc. Created on: 01/17/2024.</property>
  <property name="meta.attr.0.stream.VENDOR_ID.markup">[0][0][0][0]</property>
  <property name="meta.attr.0.stream.DURATION.markup">00:17:00.367000000</property>
  <property name="meta.media.1.stream.type">audio</property>
  <property name="meta.media.1.codec.sample_fmt">fltp</property>
  <property name="meta.media.1.codec.sample_rate">48000</property>
  <property name="meta.media.1.codec.channels">2</property>
  <property name="meta.media.1.codec.name">opus</property>
  <property name="meta.media.1.codec.long_name">Opus</property>
  <property name="meta.media.1.codec.bit_rate">0</property>
  <property name="meta.attr.1.stream.language.markup">eng</property>
  <property name="meta.attr.1.stream.DURATION.markup">00:17:00.401000000</property>
  <property name="meta.attr.COMPATIBLE_BRANDS.markup">iso6mp41</property>
  <property name="meta.attr.MAJOR_BRAND.markup">dash</property>
  <property name="meta.attr.MINOR_VERSION.markup">0</property>
  <property name="meta.attr.ENCODER.markup">Lavf59.27.100</property>
  <property name="meta.media.sample_aspect_num">1</property>
  <property name="meta.media.sample_aspect_den">1</property>
  <property name="meta.media.frame_rate_num">30</property>
  <property name="meta.media.frame_rate_den">1</property>
  <property name="meta.media.colorspace">709</property>
  <property name="meta.media.color_trc">1</property>
  <property name="meta.media.has_b_frames">0</property>
  <property name="meta.media.width">1920</property>
  <property name="meta.media.height">1080</property>
  <property name="meta.media.color_range">mpeg</property>
  <property name="xml">was here</property>
  <property name="meta.media.top_field_first">0</property>
  <property name="meta.media.progressive">1</property>
  <property name="set.test_image">0</property>
 </chain>
 <chain id="chain454" out="00:00:58.320">
  <property name="length">1459</property>
  <property name="eof">pause</property>
  <property name="resource">b-roll/Artist sells banana duct-taped to wall for $120,000 at Art Basel [WsXmohQcbtQ].webm</property>
  <property name="mlt_service">avformat-novalidate</property>
  <property name="seekable">1</property>
  <property name="format">3</property>
  <property name="audio_index">-1</property>
  <property name="video_index">0</property>
  <property name="kdenlive:clipname"/>
  <property name="kdenlive:clip_type">0</property>
  <property name="kdenlive:folderid">14</property>
  <property name="kdenlive:id">24</property>
  <property name="kdenlive:file_size">18321724</property>
  <property name="kdenlive:file_hash">d83386c3b1aa4b0f541318a951d343bc</property>
  <property name="kdenlive:audio_max1">169</property>
  <property name="kdenlive:active_streams">-1</property>
  <property name="set.test_audio">1</property>
  <property name="mute_on_pause">1</property>
  <property name="meta.media.nb_streams">2</property>
  <property name="meta.media.0.stream.type">video</property>
  <property name="meta.media.0.stream.frame_rate">29.97</property>
  <property name="meta.media.0.stream.sample_aspect_ratio">1</property>
  <property name="meta.media.0.codec.width">1920</property>
  <property name="meta.media.0.codec.height">1080</property>
  <property name="meta.media.0.codec.rotate">0</property>
  <property name="meta.media.0.codec.pix_fmt">yuv420p</property>
  <property name="meta.media.0.codec.sample_aspect_ratio">0</property>
  <property name="meta.media.0.codec.colorspace">709</property>
  <property name="meta.media.0.codec.color_trc">1</property>
  <property name="meta.media.0.codec.name">vp9</property>
  <property name="meta.media.0.codec.long_name">Google VP9</property>
  <property name="meta.media.0.codec.bit_rate">0</property>
  <property name="meta.attr.0.stream.language.markup">eng</property>
  <property name="meta.attr.0.stream.DURATION.markup">00:00:58.324000000</property>
  <property name="meta.media.1.stream.type">audio</property>
  <property name="meta.media.1.codec.sample_fmt">fltp</property>
  <property name="meta.media.1.codec.sample_rate">48000</property>
  <property name="meta.media.1.codec.channels">2</property>
  <property name="meta.media.1.codec.name">opus</property>
  <property name="meta.media.1.codec.long_name">Opus</property>
  <property name="meta.media.1.codec.bit_rate">0</property>
  <property name="meta.attr.1.stream.language.markup">eng</property>
  <property name="meta.attr.1.stream.DURATION.markup">00:00:58.341000000</property>
  <property name="meta.attr.ENCODER.markup">Lavf59.27.100</property>
  <property name="meta.media.sample_aspect_num">1</property>
  <property name="meta.media.sample_aspect_den">1</property>
  <property name="meta.media.frame_rate_num">30000</property>
  <property name="meta.media.frame_rate_den">1001</property>
  <property name="meta.media.colorspace">709</property>
  <property name="meta.media.color_trc">1</property>
  <property name="meta.media.has_b_frames">0</property>
  <property name="meta.media.width">1920</property>
  <property name="meta.media.height">1080</property>
  <property name="meta.media.color_range">mpeg</property>
  <property name="xml">was here</property>
  <property name="meta.media.top_field_first">0</property>
  <property name="meta.media.progressive">1</property>
  <property name="set.test_image">0</property>
 </chain>
 <chain id="chain455" out="00:01:17.280">
  <property name="length">1933</property>
  <property name="eof">pause</property>
  <property name="resource">/home/liquidzulu/Videos/yt/b-roll/castaway fire.mp4</property>
  <property name="mlt_service">avformat-novalidate</property>
  <property name="seekable">1</property>
  <property name="format">3</property>
  <property name="audio_index">-1</property>
  <property name="video_index">0</property>
  <property name="mute_on_pause">0</property>
  <property name="kdenlive:clipname"/>
  <property name="kdenlive:clip_type">0</property>
  <property name="kdenlive:folderid">-1</property>
  <property name="kdenlive:id">851</property>
  <property name="kdenlive:file_size">36733891</property>
  <property name="kdenlive:file_hash">b5eaa14643c0081d1f06d589298dc93b</property>
  <property name="kdenlive:audio_max1">1</property>
  <property name="kdenlive:active_streams">-1</property>
  <property name="set.test_audio">1</property>
  <property name="meta.media.nb_streams">2</property>
  <property name="meta.media.0.stream.type">video</property>
  <property name="meta.media.0.stream.frame_rate">25</property>
  <property name="meta.media.0.stream.sample_aspect_ratio">1</property>
  <property name="meta.media.0.codec.width">1920</property>
  <property name="meta.media.0.codec.height">1080</property>
  <property name="meta.media.0.codec.rotate">0</property>
  <property name="meta.media.0.codec.pix_fmt">yuv420p</property>
  <property name="meta.media.0.codec.sample_aspect_ratio">1</property>
  <property name="meta.media.0.codec.colorspace">709</property>
  <property name="meta.media.0.codec.color_trc">1</property>
  <property name="meta.media.0.codec.name">h264</property>
  <property name="meta.media.0.codec.long_name">H.264 / AVC / MPEG-4 AVC / MPEG-4 part 10</property>
  <property name="meta.media.0.codec.bit_rate">3792771</property>
  <property name="meta.attr.0.stream.handler_name.markup">VideoHandler</property>
  <property name="meta.attr.0.stream.vendor_id.markup">[0][0][0][0]</property>
  <property name="meta.media.1.stream.type">audio</property>
  <property name="meta.media.1.codec.sample_fmt">fltp</property>
  <property name="meta.media.1.codec.sample_rate">48000</property>
  <property name="meta.media.1.codec.channels">2</property>
  <property name="meta.media.1.codec.name">aac</property>
  <property name="meta.media.1.codec.long_name">AAC (Advanced Audio Coding)</property>
  <property name="meta.media.1.codec.bit_rate">2276</property>
  <property name="meta.attr.1.stream.handler_name.markup">SoundHandler</property>
  <property name="meta.attr.1.stream.vendor_id.markup">[0][0][0][0]</property>
  <property name="meta.attr.major_brand.markup">isom</property>
  <property name="meta.attr.minor_version.markup">512</property>
  <property name="meta.attr.compatible_brands.markup">isomiso2avc1mp41</property>
  <property name="meta.attr.encoder.markup">Lavf59.27.100</property>
  <property name="meta.media.sample_aspect_num">1</property>
  <property name="meta.media.sample_aspect_den">1</property>
  <property name="meta.media.frame_rate_num">25</property>
  <property name="meta.media.frame_rate_den">1</property>
  <property name="meta.media.colorspace">709</property>
  <property name="meta.media.color_trc">1</property>
  <property name="meta.media.has_b_frames">2</property>
  <property name="meta.media.width">1920</property>
  <property name="meta.media.height">1080</property>
  <property name="meta.media.color_range">mpeg</property>
  <property name="xml">was here</property>
  <property name="meta.media.top_field_first">0</property>
  <property name="meta.media.progressive">1</property>
  <property name="set.test_image">0</property>
 </chain>
 <chain id="chain456" out="00:11:04.760">
  <property name="length">16620</property>
  <property name="eof">pause</property>
  <property name="resource">/home/liquidzulu/Videos/yt/b-roll/Catching the Coyote who ate my Chickens. (By Hand) [y0LhEdB5aFo].webm</property>
  <property name="mlt_service">avformat-novalidate</property>
  <property name="seekable">1</property>
  <property name="format">3</property>
  <property name="audio_index">-1</property>
  <property name="video_index">0</property>
  <property name="mute_on_pause">0</property>
  <property name="kdenlive:clipname"/>
  <property name="kdenlive:clip_type">0</property>
  <property name="kdenlive:folderid">-1</property>
  <property name="kdenlive:id">884</property>
  <property name="kdenlive:file_size">2187658212</property>
  <property name="kdenlive:file_hash">57bf6e1e258245f7ec563f8616f865c1</property>
  <property name="kdenlive:active_streams">-1</property>
  <property name="set.test_audio">1</property>
  <property name="kdenlive:audio_max1">227</property>
  <property name="meta.media.nb_streams">2</property>
  <property name="meta.media.0.stream.type">video</property>
  <property name="meta.media.0.stream.frame_rate">60</property>
  <property name="meta.media.0.stream.sample_aspect_ratio">1</property>
  <property name="meta.media.0.codec.width">3840</property>
  <property name="meta.media.0.codec.height">2160</property>
  <property name="meta.media.0.codec.rotate">0</property>
  <property name="meta.media.0.codec.pix_fmt">yuv420p</property>
  <property name="meta.media.0.codec.sample_aspect_ratio">0</property>
  <property name="meta.media.0.codec.colorspace">709</property>
  <property name="meta.media.0.codec.color_trc">1</property>
  <property name="meta.media.0.codec.name">vp9</property>
  <property name="meta.media.0.codec.long_name">Google VP9</property>
  <property name="meta.media.0.codec.bit_rate">0</property>
  <property name="meta.attr.0.stream.language.markup">eng</property>
  <property name="meta.attr.0.stream.DURATION.markup">00:11:04.766000000</property>
  <property name="meta.media.1.stream.type">audio</property>
  <property name="meta.media.1.codec.sample_fmt">fltp</property>
  <property name="meta.media.1.codec.sample_rate">48000</property>
  <property name="meta.media.1.codec.channels">2</property>
  <property name="meta.media.1.codec.name">opus</property>
  <property name="meta.media.1.codec.long_name">Opus</property>
  <property name="meta.media.1.codec.bit_rate">0</property>
  <property name="meta.attr.1.stream.language.markup">eng</property>
  <property name="meta.attr.1.stream.DURATION.markup">00:11:04.801000000</property>
  <property name="meta.attr.ENCODER.markup">Lavf59.27.100</property>
  <property name="meta.media.sample_aspect_num">1</property>
  <property name="meta.media.sample_aspect_den">1</property>
  <property name="meta.media.frame_rate_num">60</property>
  <property name="meta.media.frame_rate_den">1</property>
  <property name="meta.media.colorspace">709</property>
  <property name="meta.media.color_trc">1</property>
  <property name="meta.media.has_b_frames">0</property>
  <property name="meta.media.width">3840</property>
  <property name="meta.media.height">2160</property>
  <property name="meta.media.color_range">mpeg</property>
  <property name="xml">was here</property>
  <property name="meta.media.top_field_first">0</property>
  <property name="meta.media.progressive">1</property>
  <property name="set.test_image">0</property>
 </chain>
 <playlist id="playlist18">
  <blank length="00:01:54.120"/>
  <entry producer="chain424" in="00:00:00.000" out="00:00:17.240">
   <property name="kdenlive:id">240</property>
   <filter id="filter1533" out="00:00:00.920">
    <property name="start">1</property>
    <property name="level">1</property>
    <property name="mlt_service">brightness</property>
    <property name="kdenlive_id">fade_from_black</property>
    <property name="alpha">00:00:00.000=0;00:00:00.920=1</property>
    <property name="kdenlive:collapsed">0</property>
   </filter>
   <filter id="filter1534" in="00:00:16.960" out="00:00:17.240">
    <property name="start">1</property>
    <property name="level">1</property>
    <property name="mlt_service">brightness</property>
    <property name="kdenlive_id">fade_to_black</property>
    <property name="alpha">00:00:00.000=1;00:00:00.280=0</property>
    <property name="kdenlive:collapsed">0</property>
   </filter>
  </entry>
  <blank length="00:00:25.840"/>
  <entry producer="chain425" in="00:00:00.000" out="00:00:11.360">
   <property name="kdenlive:id">249</property>
   <filter id="filter1535">
    <property name="rotate_center">1</property>
    <property name="mlt_service">qtblend</property>
    <property name="kdenlive_id">qtblend</property>
    <property name="rect">00:00:00.000=320 180 1279 719 1.000000</property>
    <property name="rotation">00:00:00.000=0</property>
    <property name="compositing">0</property>
    <property name="distort">0</property>
    <property name="kdenlive:collapsed">1</property>
   </filter>
   <filter id="filter1536">
    <property name="rotate_center">1</property>
    <property name="mlt_service">qtblend</property>
    <property name="kdenlive_id">qtblend</property>
    <property name="rect">00:00:00.000=0 -1070 1920 1080 1.000000;00:00:00.240=0 38 1920 1080 1.000000;00:00:00.360=0 0 1920 1080 1.000000;00:00:11.000=0 0 1920 1080 1.000000;00:00:11.120=0 -51 1920 1080 1.000000;00:00:11.360=0 1085 1920 1080 1.000000</property>
    <property name="rotation">00:00:00.000=0;00:00:00.240=0;00:00:00.360=0;00:00:11.000=0;00:00:11.120=0;00:00:11.360=0</property>
    <property name="compositing">0</property>
    <property name="distort">0</property>
   </filter>
  </entry>
  <blank length="00:00:12.000"/>
  <entry producer="producer684" in="00:00:00.000" out="00:00:15.920">
   <property name="kdenlive:id">250</property>
   <filter id="filter1537">
    <property name="rotate_center">1</property>
    <property name="mlt_service">qtblend</property>
    <property name="kdenlive_id">qtblend</property>
    <property name="rect">00:00:00.000=950 535 19 10 1.000000;00:00:00.240=-48 -27 2016 1134 1.000000;00:00:00.360=0 0 1920 1080 1.000000;00:00:07.560=0 0 1920 1080 1.000000;00:00:08.000=675 378 568 319 1.000000;00:00:08.120=626 351 666 374 1.000000</property>
    <property name="rotation">00:00:00.000=0;00:00:00.240=0;00:00:00.360=0;00:00:07.560=0;00:00:08.000=0;00:00:08.120=0</property>
    <property name="compositing">0</property>
    <property name="distort">0</property>
    <property name="kdenlive:collapsed">0</property>
   </filter>
  </entry>
  <blank length="00:00:46.240"/>
  <entry producer="chain426" in="00:00:24.000" out="00:00:34.680">
   <property name="kdenlive:id">270</property>
   <filter id="filter1538">
    <property name="rotate_center">1</property>
    <property name="mlt_service">qtblend</property>
    <property name="kdenlive_id">qtblend</property>
    <property name="rect">00:00:24.000=321 180 1278 719 1.000000</property>
    <property name="rotation">00:00:24.000=0</property>
    <property name="compositing">0</property>
    <property name="distort">0</property>
    <property name="kdenlive:collapsed">1</property>
   </filter>
   <filter id="filter1539">
    <property name="rotate_center">1</property>
    <property name="mlt_service">qtblend</property>
    <property name="kdenlive_id">qtblend</property>
    <property name="rect">00:00:24.000=0 1085 1920 1080 1.000000;00:00:24.240=0 -42 1920 1080 1.000000;00:00:24.360=0 0 1920 1080 1.000000;00:00:34.320=0 0 1920 1080 1.000000;00:00:34.440=0 -42 1920 1080 1.000000;00:00:34.680=0 1080 1920 1080 1.000000</property>
    <property name="rotation">00:00:24.000=0;00:00:24.240=0;00:00:24.360=0;00:00:34.320=0;00:00:34.440=0;00:00:34.680=0</property>
    <property name="compositing">0</property>
    <property name="distort">0</property>
   </filter>
  </entry>
  <blank length="00:00:26.120"/>
  <entry producer="producer685" in="00:00:00.000" out="00:00:07.560">
   <property name="kdenlive:id">297</property>
  </entry>
  <entry producer="producer685" in="00:00:16.440" out="00:00:19.680">
   <property name="kdenlive:id">297</property>
  </entry>
  <blank length="00:01:29.120"/>
  <entry producer="producer687" in="00:00:00.000" out="00:00:06.080">
   <property name="kdenlive:id">231</property>
   <filter id="filter1540">
    <property name="rotate_center">1</property>
    <property name="mlt_service">qtblend</property>
    <property name="kdenlive_id">qtblend</property>
    <property name="rect">00:00:00.000=0 1080 1920 1080 1.000000;00:00:00.240=0 -41 1920 1080 1.000000;00:00:00.360=0 0 1920 1080 1.000000;00:00:05.720=0 0 1920 1080 1.000000;00:00:05.840=0 50 1920 1080 1.000000;00:00:06.080=0 -1080 1920 1080 1.000000</property>
    <property name="rotation">00:00:00.000=0;00:00:00.240=0;00:00:00.360=0;00:00:05.720=0;00:00:05.840=0;00:00:06.080=0</property>
    <property name="compositing">0</property>
    <property name="distort">0</property>
    <property name="kdenlive:collapsed">0</property>
   </filter>
  </entry>
  <blank length="00:00:04.240"/>
  <entry producer="producer304" in="00:00:00.000" out="00:00:01.040">
   <property name="kdenlive:id">321</property>
   <filter id="filter1541">
    <property name="rotate_center">1</property>
    <property name="mlt_service">qtblend</property>
    <property name="kdenlive_id">qtblend</property>
    <property name="rect">00:00:00.000=1372 355 19 10 1.000000;00:00:00.240=954 120 856 481 1.000000;00:00:00.360=1001 146 762 428 1.000000;00:00:00.680=1001 146 762 428 1.000000;00:00:00.800=954 120 856 481 1.000000;00:00:01.040=1277 301 209 117 1.000000</property>
    <property name="rotation">00:00:00.000=0;00:00:00.240=0;00:00:00.360=0;00:00:00.680=0;00:00:00.800=0;00:00:01.040=0</property>
    <property name="compositing">0</property>
    <property name="distort">0</property>
    <property name="kdenlive:collapsed">0</property>
   </filter>
  </entry>
  <blank length="00:00:39.400"/>
  <entry producer="producer688" in="00:00:00.000" out="00:00:05.120">
   <property name="kdenlive:id">339</property>
  </entry>
  <entry producer="producer688" in="00:00:16.400" out="00:00:19.680">
   <property name="kdenlive:id">339</property>
  </entry>
  <blank length="00:00:11.080"/>
  <entry producer="producer690" in="00:00:00.000" out="00:00:06.480">
   <property name="kdenlive:id">340</property>
  </entry>
  <entry producer="producer690" in="00:00:16.440" out="00:00:19.680">
   <property name="kdenlive:id">340</property>
  </entry>
  <blank length="00:00:47.800"/>
  <entry producer="producer307" in="00:00:00.000" out="00:00:29.360">
   <property name="kdenlive:id">349</property>
   <property name="kdenlive:activeeffect">2</property>
   <filter id="filter1542">
    <property name="rotate_center">1</property>
    <property name="mlt_service">qtblend</property>
    <property name="kdenlive_id">qtblend</property>
    <property name="rect">00:00:00.000=0 86 1920 1080 1.000000;00:00:00.240=0 -34 1920 1080 1.000000;00:00:00.360=0 0 1920 1080 1.000000</property>
    <property name="rotation">00:00:00.000=0;00:00:00.240=0;00:00:00.360=0</property>
    <property name="compositing">0</property>
    <property name="distort">0</property>
    <property name="kdenlive:collapsed">0</property>
   </filter>
   <filter id="filter1543" out="00:00:00.240">
    <property name="start">1</property>
    <property name="level">1</property>
    <property name="mlt_service">brightness</property>
    <property name="kdenlive_id">fade_from_black</property>
    <property name="alpha">00:00:00.000=0;00:00:00.240=1</property>
    <property name="kdenlive:collapsed">1</property>
    <property name="disable">0</property>
   </filter>
   <filter id="filter1544" in="00:00:28.440" out="00:00:29.360">
    <property name="start">1</property>
    <property name="level">1</property>
    <property name="mlt_service">brightness</property>
    <property name="kdenlive_id">fade_to_black</property>
    <property name="alpha">00:00:00.000=1;00:00:00.920=0</property>
    <property name="kdenlive:collapsed">1</property>
   </filter>
  </entry>
  <blank length="00:00:12.440"/>
  <entry producer="chain429" in="00:00:52.200" out="00:01:00.520">
   <property name="kdenlive:id">343</property>
   <filter id="filter1545">
    <property name="rotate_center">1</property>
    <property name="mlt_service">qtblend</property>
    <property name="kdenlive_id">qtblend</property>
    <property name="rect">00:00:52.200=321 180 1278 719 1.000000</property>
    <property name="rotation">00:00:52.200=0</property>
    <property name="compositing">0</property>
    <property name="distort">0</property>
    <property name="kdenlive:collapsed">1</property>
   </filter>
   <filter id="filter1546">
    <property name="rotate_center">1</property>
    <property name="mlt_service">qtblend</property>
    <property name="kdenlive_id">qtblend</property>
    <property name="rect">00:00:52.200=0 1080 1920 1080 1.000000;00:00:52.440=0 -39 1920 1080 1.000000;00:00:52.560=0 0 1920 1080 1.000000;00:01:00.160=0 0 1920 1080 1.000000;00:01:00.280=0 40 1920 1080 1.000000;00:01:00.520=0 -1080 1920 1080 1.000000</property>
    <property name="rotation">00:00:52.200=0;00:00:52.440=0;00:00:52.560=0;00:01:00.160=0;00:01:00.280=0;00:01:00.520=0</property>
    <property name="compositing">0</property>
    <property name="distort">0</property>
   </filter>
  </entry>
  <blank length="00:00:14.440"/>
  <entry producer="producer691" in="00:00:00.000" out="00:00:04.600">
   <property name="kdenlive:id">361</property>
  </entry>
  <entry producer="producer691" in="00:00:16.320" out="00:00:19.480">
   <property name="kdenlive:id">361</property>
  </entry>
  <entry producer="producer692" in="00:00:00.000" out="00:00:04.600">
   <property name="kdenlive:id">364</property>
  </entry>
  <entry producer="producer692" in="00:00:16.520" out="00:00:19.680">
   <property name="kdenlive:id">364</property>
  </entry>
  <blank length="00:00:27.480"/>
  <entry producer="producer696" in="00:00:00.000" out="00:00:05.880">
   <property name="kdenlive:id">367</property>
  </entry>
  <entry producer="producer696" in="00:00:16.240" out="00:00:19.680">
   <property name="kdenlive:id">367</property>
  </entry>
  <entry producer="producer697" in="00:00:00.000" out="00:00:04.160">
   <property name="kdenlive:id">368</property>
  </entry>
  <entry producer="producer697" in="00:00:16.240" out="00:00:19.680">
   <property name="kdenlive:id">368</property>
  </entry>
  <blank length="00:00:41.400"/>
  <entry producer="chain430" in="00:00:00.000" out="00:00:07.640">
   <property name="kdenlive:id">219</property>
   <filter id="filter1547">
    <property name="rotate_center">1</property>
    <property name="mlt_service">qtblend</property>
    <property name="kdenlive_id">qtblend</property>
    <property name="rect">00:00:00.000=0 1080 1920 1080 1.000000;00:00:00.240=0 -40 1920 1080 1.000000;00:00:00.360=0 0 1920 1080 1.000000;00:00:07.280=0 0 1920 1080 1.000000;00:00:07.400=0 75 1920 1080 1.000000;00:00:07.640=0 -1080 1920 1080 1.000000</property>
    <property name="rotation">00:00:00.000=0;00:00:00.240=0;00:00:00.360=0;00:00:07.280=0;00:00:07.400=0;00:00:07.640=0</property>
    <property name="compositing">0</property>
    <property name="distort">0</property>
    <property name="kdenlive:collapsed">0</property>
   </filter>
  </entry>
  <blank length="00:00:16.960"/>
  <entry producer="producer687" in="00:00:00.000" out="00:00:46.360">
   <property name="kdenlive:id">231</property>
   <filter id="filter1548">
    <property name="rotate_center">1</property>
    <property name="mlt_service">qtblend</property>
    <property name="kdenlive_id">qtblend</property>
    <property name="rect">00:00:00.000=0 1080 1920 1080 1.000000;00:00:00.240=0 -52 1920 1080 1.000000;00:00:00.360=0 0 1920 1080 1.000000;00:00:46.000=0 0 1920 1080 1.000000;00:00:46.120=0 58 1920 1080 1.000000;00:00:46.360=0 -1080 1920 1080 1.000000</property>
    <property name="rotation">00:00:00.000=0;00:00:00.240=0;00:00:00.360=0;00:00:46.000=0;00:00:46.120=0;00:00:46.360=0</property>
    <property name="compositing">0</property>
    <property name="distort">0</property>
    <property name="kdenlive:collapsed">0</property>
   </filter>
  </entry>
  <blank length="00:00:09.240"/>
  <entry producer="producer336" in="00:00:00.000" out="00:00:59.960">
   <property name="kdenlive:id">378</property>
   <filter id="filter1549">
    <property name="rotate_center">1</property>
    <property name="mlt_service">qtblend</property>
    <property name="kdenlive_id">qtblend</property>
    <property name="rect">00:00:00.000=0 86 1920 1080 1.000000;00:00:00.240=0 -34 1920 1080 1.000000;00:00:00.360=0 0 1920 1080 1.000000</property>
    <property name="rotation">00:00:00.000=0;00:00:00.240=0;00:00:00.360=0</property>
    <property name="compositing">0</property>
    <property name="distort">0</property>
   </filter>
   <filter id="filter1550" out="00:00:00.240">
    <property name="start">1</property>
    <property name="level">1</property>
    <property name="mlt_service">brightness</property>
    <property name="kdenlive_id">fade_from_black</property>
    <property name="alpha">00:00:00.000=0;00:00:00.240=1</property>
    <property name="kdenlive:collapsed">1</property>
   </filter>
   <filter id="filter1551" in="00:00:59.040" out="00:00:59.960">
    <property name="start">1</property>
    <property name="level">1</property>
    <property name="mlt_service">brightness</property>
    <property name="kdenlive_id">fade_to_black</property>
    <property name="alpha">00:00:00.000=1;00:00:00.920=0</property>
    <property name="kdenlive:collapsed">1</property>
   </filter>
  </entry>
  <blank length="00:01:18.680"/>
  <entry producer="chain431" in="00:00:00.000" out="00:00:25.600">
   <property name="kdenlive:id">392</property>
   <filter id="filter1552">
    <property name="rotate_center">1</property>
    <property name="mlt_service">qtblend</property>
    <property name="kdenlive_id">qtblend</property>
    <property name="rect">00:00:00.000=0 1080 1920 1080 1.000000;00:00:00.240=0 -46 1920 1080 1.000000;00:00:00.360=0 0 1920 1080 1.000000;00:00:25.240=0 0 1920 1080 1.000000;00:00:25.360=0 49 1920 1080 1.000000;00:00:25.600=0 -1080 1920 1080 1.000000</property>
    <property name="rotation">00:00:00.000=0;00:00:00.240=0;00:00:00.360=0;00:00:25.240=0;00:00:25.360=0;00:00:25.600=0</property>
    <property name="compositing">0</property>
    <property name="distort">0</property>
    <property name="kdenlive:collapsed">0</property>
   </filter>
  </entry>
  <blank length="00:00:04.360"/>
  <entry producer="producer337" in="00:00:00.000" out="00:01:19.800">
   <property name="kdenlive:id">402</property>
   <filter id="filter1553">
    <property name="rotate_center">1</property>
    <property name="mlt_service">qtblend</property>
    <property name="kdenlive_id">qtblend</property>
    <property name="rect">00:00:00.000=0 86 1920 1080 1.000000;00:00:00.240=0 -34 1920 1080 1.000000;00:00:00.360=0 0 1920 1080 1.000000</property>
    <property name="rotation">00:00:00.000=0;00:00:00.240=0;00:00:00.360=0</property>
    <property name="compositing">0</property>
    <property name="distort">0</property>
   </filter>
   <filter id="filter1554" out="00:00:00.240">
    <property name="start">1</property>
    <property name="level">1</property>
    <property name="mlt_service">brightness</property>
    <property name="kdenlive_id">fade_from_black</property>
    <property name="alpha">00:00:00.000=0;00:00:00.240=1</property>
    <property name="kdenlive:collapsed">1</property>
   </filter>
   <filter id="filter1555" in="00:01:18.880" out="00:01:19.800">
    <property name="start">1</property>
    <property name="level">1</property>
    <property name="mlt_service">brightness</property>
    <property name="kdenlive_id">fade_to_black</property>
    <property name="alpha">00:00:00.000=1;00:00:00.920=0</property>
    <property name="kdenlive:collapsed">1</property>
   </filter>
  </entry>
  <blank length="00:00:41.520"/>
  <entry producer="chain430" in="00:00:00.000" out="00:00:05.200">
   <property name="kdenlive:id">219</property>
   <filter id="filter1556">
    <property name="rotate_center">1</property>
    <property name="mlt_service">qtblend</property>
    <property name="kdenlive_id">qtblend</property>
    <property name="rect">00:00:00.000=77 324 768 432 1.000000</property>
    <property name="rotation">00:00:00.000=0</property>
    <property name="compositing">0</property>
    <property name="distort">0</property>
    <property name="kdenlive:collapsed">1</property>
   </filter>
   <filter id="filter1557">
    <property name="rotate_center">1</property>
    <property name="mlt_service">qtblend</property>
    <property name="kdenlive_id">qtblend</property>
    <property name="rect">00:00:00.000=0 1080 1920 1080 1.000000;00:00:00.240=0 -62 1920 1080 1.000000;00:00:00.360=0 0 1920 1080 1.000000;00:00:04.840=0 0 1920 1080 1.000000;00:00:04.960=0 68 1920 1080 1.000000;00:00:05.200=0 -1080 1920 1080 1.000000</property>
    <property name="rotation">00:00:00.000=0;00:00:00.240=0;00:00:00.360=0;00:00:04.840=0;00:00:04.960=0;00:00:05.200=0</property>
    <property name="compositing">0</property>
    <property name="distort">0</property>
    <property name="kdenlive:collapsed">0</property>
   </filter>
  </entry>
  <blank length="00:00:10.160"/>
  <entry producer="producer698" in="00:00:00.000" out="00:00:04.720">
   <property name="kdenlive:id">429</property>
  </entry>
  <entry producer="producer698" in="00:00:16.320" out="00:00:19.680">
   <property name="kdenlive:id">429</property>
  </entry>
  <blank length="00:01:05.320"/>
  <entry producer="chain432" in="00:00:09.960" out="00:00:13.560">
   <property name="kdenlive:id">418</property>
   <filter id="filter1558">
    <property name="rotate_center">1</property>
    <property name="mlt_service">qtblend</property>
    <property name="kdenlive_id">qtblend</property>
    <property name="rect">00:00:09.960=0 1080 1920 1080 1.000000;00:00:10.200=0 -42 1920 1080 1.000000;00:00:10.320=0 0 1920 1080 1.000000</property>
    <property name="rotation">00:00:09.960=0;00:00:10.200=0;00:00:10.320=0</property>
    <property name="compositing">0</property>
    <property name="distort">0</property>
    <property name="kdenlive:collapsed">0</property>
   </filter>
   <filter id="filter1559" in="00:00:12.920" out="00:00:13.560">
    <property name="start">1</property>
    <property name="level">1</property>
    <property name="mlt_service">brightness</property>
    <property name="kdenlive_id">fade_to_black</property>
    <property name="alpha">00:00:00.000=1;00:00:00.640=0</property>
   </filter>
  </entry>
  <blank length="00:00:16.280"/>
  <entry producer="producer687" in="00:00:00.000" out="00:00:04.640">
   <property name="kdenlive:id">231</property>
   <filter id="filter1560">
    <property name="rotate_center">1</property>
    <property name="mlt_service">qtblend</property>
    <property name="kdenlive_id">qtblend</property>
    <property name="rect">00:00:00.000=0 1080 1920 1080 1.000000;00:00:00.240=0 -62 1920 1080 1.000000;00:00:00.360=0 0 1920 1080 1.000000;00:00:04.640=0 0 1920 1080 1.000000</property>
    <property name="rotation">00:00:00.000=0;00:00:00.240=0;00:00:00.360=0;00:00:04.640=0</property>
    <property name="compositing">0</property>
    <property name="distort">0</property>
    <property name="kdenlive:collapsed">0</property>
   </filter>
   <filter id="filter1561" in="00:00:04.400" out="00:00:04.640">
    <property name="start">1</property>
    <property name="level">1</property>
    <property name="mlt_service">brightness</property>
    <property name="kdenlive_id">fade_to_black</property>
    <property name="alpha">00:00:00.000=1;00:00:00.240=0</property>
   </filter>
  </entry>
  <blank length="00:00:00.200"/>
  <entry producer="producer699" in="00:00:00.000" out="00:00:39.760">
   <property name="kdenlive:id">355</property>
   <filter id="filter1562">
    <property name="rotate_center">1</property>
    <property name="mlt_service">qtblend</property>
    <property name="kdenlive_id">qtblend</property>
    <property name="rect">00:00:00.000=0 86 1920 1080 1.000000;00:00:00.240=0 -34 1920 1080 1.000000;00:00:00.360=0 0 1920 1080 1.000000</property>
    <property name="rotation">00:00:00.000=0;00:00:00.240=0;00:00:00.360=0</property>
    <property name="compositing">0</property>
    <property name="distort">0</property>
    <property name="kdenlive:collapsed">0</property>
   </filter>
   <filter id="filter1563" out="00:00:00.240">
    <property name="start">1</property>
    <property name="level">1</property>
    <property name="mlt_service">brightness</property>
    <property name="kdenlive_id">fade_from_black</property>
    <property name="alpha">00:00:00.000=0;00:00:00.240=1</property>
    <property name="kdenlive:collapsed">0</property>
   </filter>
   <filter id="filter1564" in="00:00:38.840" out="00:00:39.760">
    <property name="start">1</property>
    <property name="level">1</property>
    <property name="mlt_service">brightness</property>
    <property name="kdenlive_id">fade_to_black</property>
    <property name="alpha">00:00:00.000=1;00:00:00.920=0</property>
    <property name="kdenlive:collapsed">0</property>
   </filter>
  </entry>
  <blank length="00:00:03.440"/>
  <entry producer="producer687" in="00:00:00.000" out="00:00:06.400">
   <property name="kdenlive:id">231</property>
   <filter id="filter1565">
    <property name="rotate_center">1</property>
    <property name="mlt_service">qtblend</property>
    <property name="kdenlive_id">qtblend</property>
    <property name="rect">00:00:00.000=0 1080 1920 1080 1.000000;00:00:00.240=0 -67 1920 1080 1.000000;00:00:00.360=0 0 1920 1080 1.000000;00:00:06.040=0 0 1920 1080 1.000000;00:00:06.160=0 62 1920 1080 1.000000;00:00:06.400=0 -1080 1920 1080 1.000000</property>
    <property name="rotation">00:00:00.000=0;00:00:00.240=0;00:00:00.360=0;00:00:06.040=0;00:00:06.160=0;00:00:06.400=0</property>
    <property name="compositing">0</property>
    <property name="distort">0</property>
    <property name="kdenlive:collapsed">0</property>
   </filter>
  </entry>
  <blank length="00:00:09.400"/>
  <entry producer="chain433" in="00:00:00.000" out="00:00:04.120">
   <property name="kdenlive:id">440</property>
   <property name="kdenlive:activeeffect">1</property>
   <filter id="filter1566">
    <property name="rotate_center">1</property>
    <property name="mlt_service">qtblend</property>
    <property name="kdenlive_id">qtblend</property>
    <property name="rect">00:00:00.000=321 180 1278 719 1.000000</property>
    <property name="rotation">00:00:00.000=0</property>
    <property name="compositing">0</property>
    <property name="distort">0</property>
    <property name="kdenlive:collapsed">1</property>
   </filter>
   <filter id="filter1567">
    <property name="rotate_center">1</property>
    <property name="mlt_service">qtblend</property>
    <property name="kdenlive_id">qtblend</property>
    <property name="rect">00:00:00.000=0 1080 1920 1080 1.000000;00:00:00.240=0 -51 1920 1080 1.000000;00:00:00.360=0 0 1920 1080 1.000000;00:00:03.760=0 0 1920 1080 1.000000;00:00:03.880=0 47 1920 1080 1.000000;00:00:04.120=0 -1080 1920 1080 1.000000</property>
    <property name="rotation">00:00:00.000=0;00:00:00.240=0;00:00:00.360=0;00:00:03.760=0;00:00:03.880=0;00:00:04.120=0</property>
    <property name="compositing">0</property>
    <property name="distort">0</property>
    <property name="kdenlive:collapsed">0</property>
   </filter>
  </entry>
  <blank length="00:00:10.120"/>
  <entry producer="chain434" in="00:00:50.040" out="00:00:52.760">
   <property name="kdenlive:id">421</property>
   <filter id="filter1568">
    <property name="rotate_center">1</property>
    <property name="mlt_service">qtblend</property>
    <property name="kdenlive_id">qtblend</property>
    <property name="rect">00:00:50.040=0 1080 1920 1080 1.000000;00:00:50.280=0 -45 1920 1080 1.000000;00:00:50.400=0 0 1920 1080 1.000000;00:00:52.400=0 0 1920 1080 1.000000;00:00:52.520=0 65 1920 1080 1.000000;00:00:52.760=0 -1080 1920 1080 1.000000</property>
    <property name="rotation">00:00:50.040=0;00:00:50.280=0;00:00:50.400=0;00:00:52.400=0;00:00:52.520=0;00:00:52.760=0</property>
    <property name="compositing">0</property>
    <property name="distort">0</property>
    <property name="kdenlive:collapsed">0</property>
   </filter>
   <filter id="filter1569" in="00:00:50.040" out="00:00:50.320">
    <property name="start">1</property>
    <property name="level">1</property>
    <property name="mlt_service">brightness</property>
    <property name="kdenlive_id">fade_from_black</property>
    <property name="alpha">00:00:00.000=0;00:00:00.280=1</property>
    <property name="kdenlive:collapsed">0</property>
   </filter>
  </entry>
  <blank length="00:00:04.280"/>
  <entry producer="producer699" in="00:00:00.000" out="00:00:54.480">
   <property name="kdenlive:id">355</property>
   <filter id="filter1570">
    <property name="rotate_center">1</property>
    <property name="mlt_service">qtblend</property>
    <property name="kdenlive_id">qtblend</property>
    <property name="rect">00:00:00.000=0 86 1920 1080 1.000000;00:00:00.240=0 -34 1920 1080 1.000000;00:00:00.360=0 0 1920 1080 1.000000</property>
    <property name="rotation">00:00:00.000=0;00:00:00.240=0;00:00:00.360=0</property>
    <property name="compositing">0</property>
    <property name="distort">0</property>
    <property name="kdenlive:collapsed">0</property>
   </filter>
   <filter id="filter1571" out="00:00:00.240">
    <property name="start">1</property>
    <property name="level">1</property>
    <property name="mlt_service">brightness</property>
    <property name="kdenlive_id">fade_from_black</property>
    <property name="alpha">00:00:00.000=0;00:00:00.240=1</property>
    <property name="kdenlive:collapsed">0</property>
   </filter>
   <filter id="filter1572" in="00:00:53.560" out="00:00:54.480">
    <property name="start">1</property>
    <property name="level">1</property>
    <property name="mlt_service">brightness</property>
    <property name="kdenlive_id">fade_to_black</property>
    <property name="alpha">00:00:00.000=1;00:00:00.920=0</property>
    <property name="kdenlive:collapsed">0</property>
   </filter>
  </entry>
  <blank length="00:00:50.160"/>
  <entry producer="producer700" in="00:00:00.000" out="00:00:03.680">
   <property name="kdenlive:id">515</property>
  </entry>
  <entry producer="producer700" in="00:00:16.400" out="00:00:19.680">
   <property name="kdenlive:id">515</property>
  </entry>
  <blank length="00:00:17.480"/>
  <entry producer="chain435" in="00:18:32.880" out="00:18:45.920">
   <property name="kdenlive:id">15</property>
   <filter id="filter1573">
    <property name="rotate_center">1</property>
    <property name="mlt_service">qtblend</property>
    <property name="kdenlive_id">qtblend</property>
    <property name="rect">00:18:32.880=321 181 1278 719 1.000000</property>
    <property name="rotation">00:18:32.880=0</property>
    <property name="compositing">0</property>
    <property name="distort">0</property>
    <property name="kdenlive:collapsed">1</property>
   </filter>
   <filter id="filter1574">
    <property name="rotate_center">1</property>
    <property name="mlt_service">qtblend</property>
    <property name="kdenlive_id">qtblend</property>
    <property name="rect">00:18:32.880=0 1080 1920 1080 1.000000;00:18:33.120=0 -41 1920 1080 1.000000;00:18:33.240=0 0 1920 1080 1.000000;00:18:45.320=0 0 1920 1080 1.000000</property>
    <property name="rotation">00:18:32.880=0;00:18:33.120=0;00:18:33.240=0;00:18:45.320=0</property>
    <property name="compositing">0</property>
    <property name="distort">0</property>
    <property name="kdenlive:collapsed">0</property>
   </filter>
  </entry>
  <entry producer="chain435" in="00:18:46.720" out="00:18:48.040">
   <property name="kdenlive:id">15</property>
   <filter id="filter1575">
    <property name="rotate_center">1</property>
    <property name="mlt_service">qtblend</property>
    <property name="kdenlive_id">qtblend</property>
    <property name="rect">00:18:46.720=321 181 1278 719 1.000000</property>
    <property name="rotation">00:18:46.720=0</property>
    <property name="compositing">0</property>
    <property name="distort">0</property>
    <property name="kdenlive:collapsed">1</property>
   </filter>
   <filter id="filter1576">
    <property name="rotate_center">1</property>
    <property name="mlt_service">qtblend</property>
    <property name="kdenlive_id">qtblend</property>
    <property name="rect">00:18:46.720=0 0 1920 1080 1.000000;00:18:47.680=0 0 1920 1080 1.000000;00:18:47.800=0 33 1920 1080 1.000000;00:18:48.040=0 -1080 1920 1080 1.000000</property>
    <property name="rotation">00:18:46.720=0;00:18:47.680=0;00:18:47.800=0;00:18:48.040=0</property>
    <property name="compositing">0</property>
    <property name="distort">0</property>
   </filter>
  </entry>
  <blank length="00:01:01.800"/>
  <entry producer="producer422" in="00:00:00.000" out="00:01:14.960">
   <property name="kdenlive:id">484</property>
   <filter id="filter1577">
    <property name="rotate_center">1</property>
    <property name="mlt_service">qtblend</property>
    <property name="kdenlive_id">qtblend</property>
    <property name="rect">00:00:00.000=0 86 1920 1080 1.000000;00:00:00.240=0 -34 1920 1080 1.000000;00:00:00.360=0 0 1920 1080 1.000000</property>
    <property name="rotation">00:00:00.000=0;00:00:00.240=0;00:00:00.360=0</property>
    <property name="compositing">0</property>
    <property name="distort">0</property>
   </filter>
   <filter id="filter1578" out="00:00:00.240">
    <property name="start">1</property>
    <property name="level">1</property>
    <property name="mlt_service">brightness</property>
    <property name="kdenlive_id">fade_from_black</property>
    <property name="alpha">00:00:00.000=0;00:00:00.240=1</property>
    <property name="kdenlive:collapsed">1</property>
   </filter>
   <filter id="filter1579" in="00:01:14.040" out="00:01:14.960">
    <property name="start">1</property>
    <property name="level">1</property>
    <property name="mlt_service">brightness</property>
    <property name="kdenlive_id">fade_to_black</property>
    <property name="alpha">00:00:00.000=1;00:00:00.920=0</property>
    <property name="kdenlive:collapsed">1</property>
   </filter>
  </entry>
  <blank length="00:00:26.040"/>
  <entry producer="producer687" in="00:00:00.000" out="00:00:16.000">
   <property name="kdenlive:id">231</property>
   <filter id="filter1580">
    <property name="rotate_center">1</property>
    <property name="mlt_service">qtblend</property>
    <property name="kdenlive_id">qtblend</property>
    <property name="rect">00:00:00.000=0 1080 1920 1080 1.000000;00:00:00.240=0 -43 1920 1080 1.000000;00:00:00.360=0 0 1920 1080 1.000000;00:00:15.640=0 0 1920 1080 1.000000;00:00:15.760=0 60 1920 1080 1.000000;00:00:16.000=0 -1080 1920 1080 1.000000</property>
    <property name="rotation">00:00:00.000=0;00:00:00.240=0;00:00:00.360=0;00:00:15.640=0;00:00:15.760=0;00:00:16.000=0</property>
    <property name="compositing">0</property>
    <property name="distort">0</property>
    <property name="kdenlive:collapsed">0</property>
   </filter>
  </entry>
  <blank length="00:00:04.720"/>
  <entry producer="producer687" in="00:00:00.000" out="00:00:10.840">
   <property name="kdenlive:id">231</property>
   <filter id="filter1581">
    <property name="rotate_center">1</property>
    <property name="mlt_service">qtblend</property>
    <property name="kdenlive_id">qtblend</property>
    <property name="rect">00:00:00.000=0 1080 1920 1080 1.000000;00:00:00.240=0 -54 1920 1080 1.000000;00:00:00.360=0 0 1920 1080 1.000000;00:00:10.480=0 0 1920 1080 1.000000;00:00:10.600=0 39 1920 1080 1.000000;00:00:10.840=0 -1080 1920 1080 1.000000</property>
    <property name="rotation">00:00:00.000=0;00:00:00.240=0;00:00:00.360=0;00:00:10.480=0;00:00:10.600=0;00:00:10.840=0</property>
    <property name="compositing">0</property>
    <property name="distort">0</property>
    <property name="kdenlive:collapsed">0</property>
   </filter>
  </entry>
  <blank length="00:00:05.280"/>
  <entry producer="producer687" in="00:00:00.000" out="00:00:09.480">
   <property name="kdenlive:id">231</property>
   <filter id="filter1582">
    <property name="rotate_center">1</property>
    <property name="mlt_service">qtblend</property>
    <property name="kdenlive_id">qtblend</property>
    <property name="rect">00:00:00.000=0 1080 1920 1080 1.000000;00:00:00.240=0 -41 1920 1080 1.000000;00:00:00.360=0 0 1920 1080 1.000000;00:00:09.480=0 0 1920 1080 1.000000</property>
    <property name="rotation">00:00:00.000=0;00:00:00.240=0;00:00:00.360=0;00:00:09.480=0</property>
    <property name="compositing">0</property>
    <property name="distort">0</property>
    <property name="kdenlive:collapsed">0</property>
   </filter>
  </entry>
  <blank length="00:00:00.120"/>
  <entry producer="chain436" in="00:00:00.000" out="00:00:14.720">
   <property name="kdenlive:id">491</property>
   <property name="kdenlive:activeeffect">1</property>
   <filter id="filter1583">
    <property name="rotate_center">1</property>
    <property name="mlt_service">qtblend</property>
    <property name="kdenlive_id">qtblend</property>
    <property name="rect">00:00:00.000=321 180 1278 719 1.000000</property>
    <property name="rotation">00:00:00.000=0</property>
    <property name="compositing">0</property>
    <property name="distort">0</property>
    <property name="kdenlive:collapsed">1</property>
   </filter>
   <filter id="filter1584">
    <property name="rotate_center">1</property>
    <property name="mlt_service">qtblend</property>
    <property name="kdenlive_id">qtblend</property>
    <property name="rect">00:00:00.000=0 1080 1920 1080 1.000000;00:00:00.240=0 -41 1920 1080 1.000000;00:00:00.360=0 0 1920 1080 1.000000;00:00:14.360=0 0 1920 1080 1.000000;00:00:14.480=0 63 1920 1080 1.000000;00:00:14.720=0 -1080 1920 1080 1.000000</property>
    <property name="rotation">00:00:00.000=0;00:00:00.240=0;00:00:00.360=0;00:00:14.360=0;00:00:14.480=0;00:00:14.720=0</property>
    <property name="compositing">0</property>
    <property name="distort">0</property>
    <property name="kdenlive:collapsed">0</property>
   </filter>
  </entry>
  <blank length="00:00:04.400"/>
  <entry producer="chain437" in="00:04:54.680" out="00:05:03.880">
   <property name="kdenlive:id">495</property>
   <property name="kdenlive:activeeffect">1</property>
   <filter id="filter1585">
    <property name="rotate_center">1</property>
    <property name="mlt_service">qtblend</property>
    <property name="kdenlive_id">qtblend</property>
    <property name="rect">00:04:54.680=321 180 1278 719 1.000000</property>
    <property name="rotation">00:04:54.680=0</property>
    <property name="compositing">0</property>
    <property name="distort">0</property>
    <property name="kdenlive:collapsed">1</property>
   </filter>
   <filter id="filter1586">
    <property name="rotate_center">1</property>
    <property name="mlt_service">qtblend</property>
    <property name="kdenlive_id">qtblend</property>
    <property name="rect">00:04:54.680=0 1080 1920 1080 1.000000;00:04:54.920=0 -41 1920 1080 1.000000;00:04:55.040=0 0 1920 1080 1.000000;00:05:03.520=0 0 1920 1080 1.000000;00:05:03.640=0 47 1920 1080 1.000000;00:05:03.880=0 -1080 1920 1080 1.000000</property>
    <property name="rotation">00:04:54.680=0;00:04:54.920=0;00:04:55.040=0;00:05:03.520=0;00:05:03.640=0;00:05:03.880=0</property>
    <property name="compositing">0</property>
    <property name="distort">0</property>
    <property name="kdenlive:collapsed">0</property>
   </filter>
  </entry>
  <blank length="00:00:04.720"/>
  <entry producer="chain438" in="00:00:00.000" out="00:00:04.960">
   <property name="kdenlive:id">263</property>
   <filter id="filter1587">
    <property name="rotate_center">1</property>
    <property name="mlt_service">qtblend</property>
    <property name="kdenlive_id">qtblend</property>
    <property name="rect">00:00:00.000=-947 0 1920 1080 1.000000</property>
    <property name="rotation">00:00:00.000=0</property>
    <property name="compositing">0</property>
    <property name="distort">0</property>
    <property name="kdenlive:collapsed">1</property>
   </filter>
   <filter id="filter1588">
    <property name="rotate_center">1</property>
    <property name="mlt_service">qtblend</property>
    <property name="kdenlive_id">qtblend</property>
    <property name="rect">00:00:00.000=0 1080 1920 1080 1.000000;00:00:00.240=0 -60 1920 1080 1.000000;00:00:00.360=0 0 1920 1080 1.000000</property>
    <property name="rotation">00:00:00.000=0;00:00:00.240=0;00:00:00.360=0</property>
    <property name="compositing">0</property>
    <property name="distort">0</property>
    <property name="kdenlive:collapsed">0</property>
   </filter>
  </entry>
  <blank length="00:00:51.400"/>
  <entry producer="producer687" in="00:00:00.000" out="00:00:04.520">
   <property name="kdenlive:id">231</property>
   <filter id="filter1589">
    <property name="rotate_center">1</property>
    <property name="mlt_service">qtblend</property>
    <property name="kdenlive_id">qtblend</property>
    <property name="rect">00:00:00.000=0 1080 1920 1080 1.000000;00:00:00.240=0 -43 1920 1080 1.000000;00:00:00.360=0 0 1920 1080 1.000000;00:00:04.160=0 0 1920 1080 1.000000;00:00:04.280=0 38 1920 1080 1.000000;00:00:04.520=0 -1080 1920 1080 1.000000</property>
    <property name="rotation">00:00:00.000=0;00:00:00.240=0;00:00:00.360=0;00:00:04.160=0;00:00:04.280=0;00:00:04.520=0</property>
    <property name="compositing">0</property>
    <property name="distort">0</property>
    <property name="kdenlive:collapsed">0</property>
   </filter>
  </entry>
  <blank length="00:01:01.680"/>
  <entry producer="chain439" in="00:00:00.560" out="00:00:14.920">
   <property name="kdenlive:id">509</property>
   <property name="kdenlive:activeeffect">1</property>
   <filter id="filter1590">
    <property name="rotate_center">1</property>
    <property name="mlt_service">qtblend</property>
    <property name="kdenlive_id">qtblend</property>
    <property name="rect">00:00:00.560=321 180 1278 719 1.000000</property>
    <property name="rotation">00:00:00.560=0</property>
    <property name="compositing">0</property>
    <property name="distort">0</property>
    <property name="kdenlive:collapsed">1</property>
   </filter>
   <filter id="filter1591">
    <property name="rotate_center">1</property>
    <property name="mlt_service">qtblend</property>
    <property name="kdenlive_id">qtblend</property>
    <property name="rect">00:00:00.560=0 1080 1920 1080 1.000000;00:00:00.800=0 -45 1920 1080 1.000000;00:00:00.920=0 0 1920 1080 1.000000;00:00:14.560=0 0 1920 1080 1.000000;00:00:14.680=0 63 1920 1080 1.000000;00:00:14.920=0 -1080 1920 1080 1.000000</property>
    <property name="rotation">00:00:00.560=0;00:00:00.800=0;00:00:00.920=0;00:00:14.560=0;00:00:14.680=0;00:00:14.920=0</property>
    <property name="compositing">0</property>
    <property name="distort">0</property>
    <property name="kdenlive:collapsed">0</property>
   </filter>
  </entry>
  <blank length="00:00:06.720"/>
  <entry producer="producer423" in="00:00:00.000" out="00:00:04.960">
   <property name="kdenlive:id">514</property>
   <filter id="filter1592" out="00:00:00.560">
    <property name="start">1</property>
    <property name="level">1</property>
    <property name="mlt_service">brightness</property>
    <property name="kdenlive_id">fade_from_black</property>
    <property name="alpha">00:00:00.000=0;00:00:00.560=1</property>
   </filter>
   <filter id="filter1593" in="00:00:04.560" out="00:00:04.960">
    <property name="start">1</property>
    <property name="level">1</property>
    <property name="mlt_service">brightness</property>
    <property name="kdenlive_id">fade_to_black</property>
    <property name="alpha">00:00:00.000=1;00:00:00.400=0</property>
   </filter>
  </entry>
  <blank length="00:00:04.840"/>
  <entry producer="chain440" in="00:00:18.520" out="00:00:32.840">
   <property name="kdenlive:id">516</property>
   <filter id="filter1594">
    <property name="rotate_center">1</property>
    <property name="mlt_service">qtblend</property>
    <property name="kdenlive_id">qtblend</property>
    <property name="rect">00:00:18.520=321 180 1278 719 1.000000</property>
    <property name="rotation">00:00:18.520=0</property>
    <property name="compositing">0</property>
    <property name="distort">0</property>
    <property name="kdenlive:collapsed">1</property>
   </filter>
   <filter id="filter1595">
    <property name="rotate_center">1</property>
    <property name="mlt_service">qtblend</property>
    <property name="kdenlive_id">qtblend</property>
    <property name="rect">00:00:18.520=0 1080 1920 1080 1.000000;00:00:18.760=0 -45 1920 1080 1.000000;00:00:18.880=0 0 1920 1080 1.000000;00:00:32.480=0 0 1920 1080 1.000000;00:00:32.600=0 47 1920 1080 1.000000;00:00:32.840=0 -1080 1920 1080 1.000000</property>
    <property name="rotation">00:00:18.520=0;00:00:18.760=0;00:00:18.880=0;00:00:32.480=0;00:00:32.600=0;00:00:32.840=0</property>
    <property name="compositing">0</property>
    <property name="distort">0</property>
    <property name="kdenlive:collapsed">0</property>
   </filter>
  </entry>
  <blank length="00:01:05.560"/>
  <entry producer="producer424" in="00:00:00.000" out="00:00:02.920">
   <property name="kdenlive:id">522</property>
   <property name="kdenlive:activeeffect">1</property>
   <filter id="filter1596">
    <property name="rotate_center">1</property>
    <property name="mlt_service">qtblend</property>
    <property name="kdenlive_id">qtblend</property>
    <property name="rect">00:00:00.000=288 162 1344 756 1.000000;00:00:02.920=192 108 1536 864 1.000000</property>
    <property name="rotation">00:00:00.000=0;00:00:02.920=0</property>
    <property name="compositing">0</property>
    <property name="distort">0</property>
    <property name="kdenlive:collapsed">1</property>
   </filter>
   <filter id="filter1597">
    <property name="rotate_center">1</property>
    <property name="mlt_service">qtblend</property>
    <property name="kdenlive_id">qtblend</property>
    <property name="rect">00:00:00.000=0 1080 1920 1080 1.000000;00:00:00.240=0 -74 1920 1080 1.000000;00:00:00.360=0 0 1920 1080 1.000000;00:00:02.560=0 0 1920 1080 1.000000;00:00:02.680=0 76 1920 1080 1.000000;00:00:02.920=0 -1080 1920 1080 1.000000</property>
    <property name="rotation">00:00:00.000=0;00:00:00.240=0;00:00:00.360=0;00:00:02.560=0;00:00:02.680=0;00:00:02.920=0</property>
    <property name="compositing">0</property>
    <property name="distort">0</property>
    <property name="kdenlive:collapsed">0</property>
   </filter>
  </entry>
  <blank length="00:00:20.480"/>
  <entry producer="producer252" in="00:00:00.000" out="00:00:02.920">
   <property name="kdenlive:id">315</property>
   <filter id="filter1598">
    <property name="rotate_center">1</property>
    <property name="mlt_service">qtblend</property>
    <property name="kdenlive_id">qtblend</property>
    <property name="rect">00:00:00.000=192 108 1536 864 1.000000</property>
    <property name="rotation">00:00:00.000=0</property>
    <property name="compositing">0</property>
    <property name="distort">0</property>
    <property name="kdenlive:collapsed">1</property>
   </filter>
   <filter id="filter1599">
    <property name="rotate_center">1</property>
    <property name="mlt_service">qtblend</property>
    <property name="kdenlive_id">qtblend</property>
    <property name="rect">00:00:00.000=950 535 19 10 1.000000;00:00:00.240=-96 -54 2112 1188 1.000000;00:00:00.360=0 0 1920 1080 1.000000;00:00:02.560=0 0 1920 1080 1.000000;00:00:02.680=0 56 1920 1080 1.000000;00:00:02.920=0 -1080 1920 1080 1.000000</property>
    <property name="rotation">00:00:00.000=0;00:00:00.240=0;00:00:00.360=0;00:00:02.560=0;00:00:02.680=0;00:00:02.920=0</property>
    <property name="compositing">0</property>
    <property name="distort">0</property>
    <property name="kdenlive:collapsed">0</property>
   </filter>
  </entry>
  <blank length="00:00:18.280"/>
  <entry producer="producer425" in="00:00:00.000" out="00:00:07.400">
   <property name="kdenlive:id">530</property>
   <property name="kdenlive:activeeffect">1</property>
   <filter id="filter1600">
    <property name="rotate_center">1</property>
    <property name="mlt_service">qtblend</property>
    <property name="kdenlive_id">qtblend</property>
    <property name="rect">00:00:00.000=144 81 1632 918 1.000000</property>
    <property name="rotation">00:00:00.000=0</property>
    <property name="compositing">0</property>
    <property name="distort">0</property>
    <property name="kdenlive:collapsed">1</property>
   </filter>
   <filter id="filter1601">
    <property name="mode">alpha</property>
    <property name="alpha_operation">min</property>
    <property name="invert">0</property>
    <property name="feather">0</property>
    <property name="feather_passes">1</property>
    <property name="mlt_service">rotoscoping</property>
    <property name="kdenlive_id">rotoscoping</property>
    <property name="spline">{
    "000": [
        [
            [
                0.003484320557491289,
                0.2671826625386997
            ],
            [
                0.003484320557491289,
                0.11300309597523221
            ],
            [
                0.018118466898954706,
                0.11300309597523221
            ]
        ],
        [
            [
                0.06202090592334496,
                0.11300309597523221
            ],
            [
                0.07665505226480837,
                0.11300309597523221
            ],
            [
                0.07700348432055751,
                0.26656346749226006
            ]
        ],
        [
            [
                0.07804878048780488,
                0.7272445820433436
            ],
            [
                0.078397212543554,
                0.8808049535603716
            ],
            [
                0.06341463414634146,
                0.8814241486068112
            ]
        ],
        [
            [
                0.018466898954703832,
                0.8832817337461301
            ],
            [
                0.003484320557491289,
                0.8839009287925697
            ],
            [
                0.003484320557491289,
                0.7297213622291022
            ]
        ]
    ],
    "012": [
        [
            [
                0.003484320557491289,
                0.2671826625386997
            ],
            [
                0.003484320557491289,
                0.11300309597523221
            ],
            [
                0.018118466898954706,
                0.11300309597523221
            ]
        ],
        [
            [
                0.9226480836236933,
                0.10990712074303406
            ],
            [
                0.9372822299651568,
                0.10990712074303406
            ],
            [
                0.937630662020906,
                0.26346749226006205
            ]
        ],
        [
            [
                0.9386759581881533,
                0.7396284829721363
            ],
            [
                0.9390243902439025,
                0.8931888544891642
            ],
            [
                0.92404181184669,
                0.893808049535604
            ]
        ],
        [
            [
                0.018466898954703832,
                0.8832817337461301
            ],
            [
                0.003484320557491289,
                0.8839009287925697
            ],
            [
                0.003484320557491289,
                0.7297213622291022
            ]
        ]
    ]
}
</property>
    <property name="kdenlive:collapsed">1</property>
   </filter>
  </entry>
  <entry producer="producer425" in="00:00:00.000" out="00:00:00.440">
   <property name="kdenlive:id">530</property>
   <filter id="filter1602">
    <property name="rotate_center">1</property>
    <property name="mlt_service">qtblend</property>
    <property name="kdenlive_id">qtblend</property>
    <property name="rect">00:00:00.000=144 81 1632 918 1.000000</property>
    <property name="rotation">00:00:00.000=0</property>
    <property name="compositing">0</property>
    <property name="distort">0</property>
    <property name="kdenlive:collapsed">1</property>
   </filter>
   <filter id="filter1603">
    <property name="rotate_center">1</property>
    <property name="mlt_service">qtblend</property>
    <property name="kdenlive_id">qtblend</property>
    <property name="rect">00:00:00.000=0 0 1920 1080 1.000000;00:00:00.160=48 27 1824 1026 1.000000;00:00:00.440=48 -1080 1824 1026 1.000000</property>
    <property name="rotation">00:00:00.000=0;00:00:00.160=0;00:00:00.440=0</property>
    <property name="compositing">0</property>
    <property name="distort">0</property>
   </filter>
  </entry>
  <blank length="00:00:00.760"/>
  <entry producer="producer426" in="00:00:00.000" out="00:00:11.560">
   <property name="kdenlive:id">535</property>
   <property name="kdenlive:activeeffect">1</property>
   <filter id="filter1604">
    <property name="rotate_center">1</property>
    <property name="mlt_service">qtblend</property>
    <property name="kdenlive_id">qtblend</property>
    <property name="rect">00:00:00.000=144 81 1632 918 1.000000</property>
    <property name="rotation">00:00:00.000=0</property>
    <property name="compositing">0</property>
    <property name="distort">0</property>
    <property name="kdenlive:collapsed">1</property>
   </filter>
   <filter id="filter1605">
    <property name="mode">alpha</property>
    <property name="alpha_operation">min</property>
    <property name="invert">0</property>
    <property name="feather">0</property>
    <property name="feather_passes">1</property>
    <property name="mlt_service">rotoscoping</property>
    <property name="kdenlive_id">rotoscoping</property>
    <property name="spline">{
    "000": [
        [
            [
                0.003484320557491289,
                0.2671826625386997
            ],
            [
                0.003484320557491289,
                0.11300309597523221
            ],
            [
                0.018118466898954706,
                0.11300309597523221
            ]
        ],
        [
            [
                0.06202090592334496,
                0.11300309597523221
            ],
            [
                0.07665505226480837,
                0.11300309597523221
            ],
            [
                0.07700348432055751,
                0.26656346749226006
            ]
        ],
        [
            [
                0.07804878048780488,
                0.7272445820433436
            ],
            [
                0.078397212543554,
                0.8808049535603716
            ],
            [
                0.06341463414634146,
                0.8814241486068112
            ]
        ],
        [
            [
                0.018466898954703832,
                0.8832817337461301
            ],
            [
                0.003484320557491289,
                0.8839009287925697
            ],
            [
                0.003484320557491289,
                0.7297213622291022
            ]
        ]
    ],
    "012": [
        [
            [
                0.003484320557491289,
                0.2671826625386997
            ],
            [
                0.003484320557491289,
                0.11300309597523221
            ],
            [
                0.018118466898954706,
                0.11300309597523221
            ]
        ],
        [
            [
                0.9226480836236933,
                0.10990712074303406
            ],
            [
                0.9372822299651568,
                0.10990712074303406
            ],
            [
                0.937630662020906,
                0.26346749226006205
            ]
        ],
        [
            [
                0.9386759581881533,
                0.7396284829721363
            ],
            [
                0.9390243902439025,
                0.8931888544891642
            ],
            [
                0.92404181184669,
                0.893808049535604
            ]
        ],
        [
            [
                0.018466898954703832,
                0.8832817337461301
            ],
            [
                0.003484320557491289,
                0.8839009287925697
            ],
            [
                0.003484320557491289,
                0.7297213622291022
            ]
        ]
    ]
}
</property>
    <property name="kdenlive:collapsed">1</property>
   </filter>
  </entry>
  <entry producer="producer426" in="00:00:00.000" out="00:00:00.440">
   <property name="kdenlive:id">535</property>
   <filter id="filter1606">
    <property name="rotate_center">1</property>
    <property name="mlt_service">qtblend</property>
    <property name="kdenlive_id">qtblend</property>
    <property name="rect">00:00:00.000=144 81 1632 918 1.000000</property>
    <property name="rotation">00:00:00.000=0</property>
    <property name="compositing">0</property>
    <property name="distort">0</property>
    <property name="kdenlive:collapsed">1</property>
   </filter>
   <filter id="filter1607">
    <property name="rotate_center">1</property>
    <property name="mlt_service">qtblend</property>
    <property name="kdenlive_id">qtblend</property>
    <property name="rect">00:00:00.000=0 0 1920 1080 1.000000;00:00:00.160=48 27 1824 1026 1.000000;00:00:00.440=48 -1080 1824 1026 1.000000</property>
    <property name="rotation">00:00:00.000=0;00:00:00.160=0;00:00:00.440=0</property>
    <property name="compositing">0</property>
    <property name="distort">0</property>
    <property name="kdenlive:collapsed">1</property>
   </filter>
  </entry>
  <blank length="00:00:00.840"/>
  <entry producer="producer427" in="00:00:00.000" out="00:00:04.360">
   <property name="kdenlive:id">542</property>
   <property name="kdenlive:activeeffect">1</property>
   <filter id="filter1608">
    <property name="rotate_center">1</property>
    <property name="mlt_service">qtblend</property>
    <property name="kdenlive_id">qtblend</property>
    <property name="rect">00:00:00.000=144 81 1632 918 1.000000</property>
    <property name="rotation">00:00:00.000=0</property>
    <property name="compositing">0</property>
    <property name="distort">0</property>
    <property name="kdenlive:collapsed">1</property>
   </filter>
   <filter id="filter1609">
    <property name="mode">alpha</property>
    <property name="alpha_operation">min</property>
    <property name="invert">0</property>
    <property name="feather">0</property>
    <property name="feather_passes">1</property>
    <property name="mlt_service">rotoscoping</property>
    <property name="kdenlive_id">rotoscoping</property>
    <property name="spline">{
    "000": [
        [
            [
                0.003484320557491289,
                0.2671826625386997
            ],
            [
                0.003484320557491289,
                0.11300309597523221
            ],
            [
                0.018118466898954706,
                0.11300309597523221
            ]
        ],
        [
            [
                0.06202090592334496,
                0.11300309597523221
            ],
            [
                0.07665505226480837,
                0.11300309597523221
            ],
            [
                0.07700348432055751,
                0.26656346749226006
            ]
        ],
        [
            [
                0.07804878048780488,
                0.7272445820433436
            ],
            [
                0.078397212543554,
                0.8808049535603716
            ],
            [
                0.06341463414634146,
                0.8814241486068112
            ]
        ],
        [
            [
                0.018466898954703832,
                0.8832817337461301
            ],
            [
                0.003484320557491289,
                0.8839009287925697
            ],
            [
                0.003484320557491289,
                0.7297213622291022
            ]
        ]
    ],
    "012": [
        [
            [
                0.003484320557491289,
                0.2671826625386997
            ],
            [
                0.003484320557491289,
                0.11300309597523221
            ],
            [
                0.018118466898954706,
                0.11300309597523221
            ]
        ],
        [
            [
                0.9226480836236933,
                0.10990712074303406
            ],
            [
                0.9372822299651568,
                0.10990712074303406
            ],
            [
                0.937630662020906,
                0.26346749226006205
            ]
        ],
        [
            [
                0.9386759581881533,
                0.7396284829721363
            ],
            [
                0.9390243902439025,
                0.8931888544891642
            ],
            [
                0.92404181184669,
                0.893808049535604
            ]
        ],
        [
            [
                0.018466898954703832,
                0.8832817337461301
            ],
            [
                0.003484320557491289,
                0.8839009287925697
            ],
            [
                0.003484320557491289,
                0.7297213622291022
            ]
        ]
    ]
}
</property>
    <property name="kdenlive:collapsed">1</property>
   </filter>
  </entry>
  <entry producer="producer427" in="00:00:00.000" out="00:00:00.440">
   <property name="kdenlive:id">542</property>
   <filter id="filter1610">
    <property name="rotate_center">1</property>
    <property name="mlt_service">qtblend</property>
    <property name="kdenlive_id">qtblend</property>
    <property name="rect">0=144 81 1632 918 1.000000</property>
    <property name="rotation">0=0</property>
    <property name="compositing">0</property>
    <property name="distort">0</property>
    <property name="kdenlive:collapsed">1</property>
   </filter>
   <filter id="filter1611">
    <property name="rotate_center">1</property>
    <property name="mlt_service">qtblend</property>
    <property name="kdenlive_id">qtblend</property>
    <property name="rect">0=0 0 1920 1080 1.000000;4=48 27 1824 1026 1.000000;11=48 -1080 1824 1026 1.000000</property>
    <property name="rotation">0=0;4=0;11=0</property>
    <property name="compositing">0</property>
    <property name="distort">0</property>
    <property name="kdenlive:collapsed">1</property>
   </filter>
  </entry>
  <blank length="00:00:25.240"/>
  <entry producer="producer701" in="00:00:00.000" out="00:00:05.080">
   <property name="kdenlive:id">548</property>
  </entry>
  <entry producer="producer701" in="00:00:16.480" out="00:00:19.680">
   <property name="kdenlive:id">548</property>
  </entry>
  <blank length="00:00:01.880"/>
  <entry producer="producer390" in="00:00:00.000" out="00:00:17.360">
   <property name="kdenlive:id">248</property>
   <filter id="filter1612">
    <property name="rotate_center">1</property>
    <property name="mlt_service">qtblend</property>
    <property name="kdenlive_id">qtblend</property>
    <property name="rect">00:00:00.000=470 504 19 10 1.000000;00:00:00.240=343 432 275 155 1.000000;00:00:00.360=390 459 180 101 1.000000;00:00:01.160=507 366 180 101 1.000000;00:00:03.600=500 369 180 101 1.000000;00:00:04.000=1448 95 275 155 1.000000;00:00:12.840=1448 82 275 155 1.000000;00:00:13.320=1578 388 178 100 1.000000;00:00:13.480=1582 495 178 100 1.000000;00:00:13.640=1599 515 178 100 1.000000;00:00:13.800=1609 522 178 100 1.000000;00:00:13.960=1609 522 178 100 1.000000;00:00:14.120=1609 522 178 100 1.000000;00:00:14.280=1622 525 178 100 1.000000;00:00:14.440=1629 518 178 100 1.000000;00:00:14.600=1645 505 178 100 1.000000;00:00:17.000=1655 508 178 100 1.000000;00:00:17.120=1608 481 273 154 1.000000;00:00:17.360=1735 553 19 10 1.000000</property>
    <property name="rotation">00:00:00.000=-97;00:00:00.240=-97;00:00:00.360=-97;00:00:01.160=-116;00:00:03.600=-116;00:00:04.000=-84;00:00:12.840=-84;00:00:13.320=-36;00:00:13.480=-42;00:00:13.640=-53;00:00:13.800=-58;00:00:13.960=-66;00:00:14.120=-76;00:00:14.280=-84;00:00:14.440=-98;00:00:14.600=-105;00:00:17.000=-105;00:00:17.120=-105;00:00:17.360=-105</property>
    <property name="compositing">0</property>
    <property name="distort">0</property>
    <property name="kdenlive:collapsed">0</property>
   </filter>
  </entry>
  <blank length="00:01:09.640"/>
  <entry producer="producer429" in="00:00:00.000" out="00:00:16.360">
   <property name="kdenlive:id">181</property>
   <property name="kdenlive:activeeffect">1</property>
   <filter id="filter1613">
    <property name="rotate_center">1</property>
    <property name="mlt_service">qtblend</property>
    <property name="kdenlive_id">qtblend</property>
    <property name="rect">00:00:00.000=960 270 960 540 1.000000</property>
    <property name="rotation">00:00:00.000=0</property>
    <property name="compositing">0</property>
    <property name="distort">0</property>
    <property name="kdenlive:collapsed">1</property>
   </filter>
   <filter id="filter1614">
    <property name="rotate_center">1</property>
    <property name="mlt_service">qtblend</property>
    <property name="kdenlive_id">qtblend</property>
    <property name="rect">00:00:00.000=0 1080 1920 1080 1.000000;00:00:00.240=0 -59 1920 1080 1.000000;00:00:00.360=0 0 1920 1080 1.000000;00:00:16.000=0 0 1920 1080 1.000000;00:00:16.120=0 55 1920 1080 1.000000;00:00:16.360=0 -1080 1920 1080 1.000000</property>
    <property name="rotation">00:00:00.000=0;00:00:00.240=0;00:00:00.360=0;00:00:16.000=0;00:00:16.120=0;00:00:16.360=0</property>
    <property name="compositing">0</property>
    <property name="distort">0</property>
    <property name="kdenlive:collapsed">0</property>
   </filter>
  </entry>
  <blank length="00:00:01.280"/>
  <entry producer="producer702" in="00:00:00.000" out="00:00:05.720">
   <property name="kdenlive:id">554</property>
  </entry>
  <entry producer="producer702" in="00:00:16.200" out="00:00:19.680">
   <property name="kdenlive:id">554</property>
  </entry>
  <blank length="00:00:58.520"/>
  <entry producer="producer162" in="00:00:00.000" out="00:00:06.240">
   <property name="kdenlive:id">183</property>
   <filter id="filter1615">
    <property name="rotate_center">1</property>
    <property name="mlt_service">qtblend</property>
    <property name="kdenlive_id">qtblend</property>
    <property name="rect">00:00:00.000=240 135 1440 810 1.000000;00:00:06.240=192 108 1536 864 1.000000</property>
    <property name="rotation">00:00:00.000=0;00:00:06.240=0</property>
    <property name="compositing">0</property>
    <property name="distort">0</property>
    <property name="kdenlive:collapsed">0</property>
   </filter>
   <filter id="filter1616">
    <property name="rotate_center">1</property>
    <property name="mlt_service">qtblend</property>
    <property name="kdenlive_id">qtblend</property>
    <property name="rect">00:00:00.000=0 1080 1920 1080 1.000000;00:00:00.240=0 -59 1920 1080 1.000000;00:00:00.360=0 0 1920 1080 1.000000;00:00:05.880=0 0 1920 1080 1.000000;00:00:06.000=0 43 1920 1080 1.000000;00:00:06.240=0 -1080 1920 1080 1.000000</property>
    <property name="rotation">00:00:00.000=0;00:00:00.240=0;00:00:00.360=0;00:00:05.880=0;00:00:06.000=0;00:00:06.240=0</property>
    <property name="compositing">0</property>
    <property name="distort">0</property>
    <property name="kdenlive:collapsed">0</property>
   </filter>
  </entry>
  <blank length="00:00:13.080"/>
  <entry producer="producer154" in="00:00:00.000" out="00:00:20.640">
   <property name="kdenlive:id">176</property>
   <property name="kdenlive:activeeffect">1</property>
   <filter id="filter1617">
    <property name="rotate_center">1</property>
    <property name="mlt_service">qtblend</property>
    <property name="kdenlive_id">qtblend</property>
    <property name="rect">00:00:00.000=287 162 1344 756 1.000000;00:00:20.640=239 135 1440 810 1.000000</property>
    <property name="rotation">00:00:00.000=0;00:00:20.640=0</property>
    <property name="compositing">0</property>
    <property name="distort">0</property>
    <property name="kdenlive:collapsed">1</property>
   </filter>
   <filter id="filter1618">
    <property name="rotate_center">1</property>
    <property name="mlt_service">qtblend</property>
    <property name="kdenlive_id">qtblend</property>
    <property name="rect">00:00:00.000=0 1080 1920 1080 1.000000;00:00:00.240=0 -53 1920 1080 1.000000;00:00:00.360=0 0 1920 1080 1.000000;00:00:20.280=0 0 1920 1080 1.000000;00:00:20.400=0 72 1920 1080 1.000000;00:00:20.640=0 -1080 1920 1080 1.000000</property>
    <property name="rotation">00:00:00.000=0;00:00:00.240=0;00:00:00.360=0;00:00:20.280=0;00:00:20.400=0;00:00:20.640=0</property>
    <property name="compositing">0</property>
    <property name="distort">0</property>
    <property name="kdenlive:collapsed">0</property>
   </filter>
  </entry>
  <blank length="00:00:03.960"/>
  <entry producer="producer475" in="00:00:00.000" out="00:00:04.240">
   <property name="kdenlive:id">558</property>
   <filter id="filter1619">
    <property name="rotate_center">1</property>
    <property name="mlt_service">qtblend</property>
    <property name="kdenlive_id">qtblend</property>
    <property name="rect">00:00:00.000=192 108 1536 864 1.000000;00:00:04.240=144 81 1632 918 1.000000</property>
    <property name="rotation">00:00:00.000=0;00:00:04.240=0</property>
    <property name="compositing">0</property>
    <property name="distort">0</property>
    <property name="kdenlive:collapsed">1</property>
   </filter>
   <filter id="filter1620">
    <property name="rotate_center">1</property>
    <property name="mlt_service">qtblend</property>
    <property name="kdenlive_id">qtblend</property>
    <property name="rect">00:00:00.000=0 1080 1920 1080 1.000000;00:00:00.240=0 -61 1920 1080 1.000000;00:00:00.360=0 0 1920 1080 1.000000;00:00:03.880=0 0 1920 1080 1.000000;00:00:04.000=0 60 1920 1080 1.000000;00:00:04.240=0 -1080 1920 1080 1.000000</property>
    <property name="rotation">00:00:00.000=0;00:00:00.240=0;00:00:00.360=0;00:00:03.880=0;00:00:04.000=0;00:00:04.240=0</property>
    <property name="compositing">0</property>
    <property name="distort">0</property>
    <property name="kdenlive:collapsed">0</property>
   </filter>
  </entry>
  <blank length="00:01:14.360"/>
  <entry producer="producer476" in="00:00:00.000" out="00:00:06.000">
   <property name="kdenlive:id">571</property>
   <filter id="filter1621">
    <property name="rotate_center">1</property>
    <property name="mlt_service">qtblend</property>
    <property name="kdenlive_id">qtblend</property>
    <property name="rect">00:00:00.000=192 108 1536 864 1.000000;00:00:06.000=96 54 1728 972 1.000000</property>
    <property name="rotation">00:00:00.000=0;00:00:06.000=0</property>
    <property name="compositing">0</property>
    <property name="distort">0</property>
    <property name="kdenlive:collapsed">0</property>
   </filter>
   <filter id="filter1622">
    <property name="rotate_center">1</property>
    <property name="mlt_service">qtblend</property>
    <property name="kdenlive_id">qtblend</property>
    <property name="rect">00:00:00.000=950 535 19 10 1.000000;00:00:00.240=-96 -54 2112 1188 1.000000;00:00:00.360=0 0 1920 1080 1.000000;00:00:05.640=0 0 1920 1080 1.000000;00:00:05.760=-96 -54 2112 1188 1.000000;00:00:06.000=950 535 19 10 1.000000</property>
    <property name="rotation">00:00:00.000=0;00:00:00.240=0;00:00:00.360=0;00:00:05.640=0;00:00:05.760=0;00:00:06.000=0</property>
    <property name="compositing">0</property>
    <property name="distort">0</property>
    <property name="kdenlive:collapsed">0</property>
   </filter>
  </entry>
  <blank length="00:03:55.240"/>
  <entry producer="producer110" in="00:00:00.000" out="00:00:27.720">
   <property name="kdenlive:id">125</property>
   <filter id="filter1623">
    <property name="rotate_center">1</property>
    <property name="mlt_service">qtblend</property>
    <property name="kdenlive_id">qtblend</property>
    <property name="rect">00:00:00.000=384 216 1152 648 1.000000;00:00:27.720=288 162 1344 756 1.000000</property>
    <property name="rotation">00:00:00.000=0;00:00:27.720=0</property>
    <property name="compositing">0</property>
    <property name="distort">0</property>
    <property name="kdenlive:collapsed">0</property>
   </filter>
   <filter id="filter1624">
    <property name="rotate_center">1</property>
    <property name="mlt_service">qtblend</property>
    <property name="kdenlive_id">qtblend</property>
    <property name="rect">00:00:00.000=0 1080 1920 1080 1.000000;00:00:00.240=0 -73 1920 1080 1.000000;00:00:00.360=0 0 1920 1080 1.000000;00:00:27.360=0 0 1920 1080 1.000000;00:00:27.480=-96 -54 2112 1188 1.000000;00:00:27.720=950 534 19 10 1.000000</property>
    <property name="rotation">00:00:00.000=0;00:00:00.240=0;00:00:00.360=0;00:00:27.360=0;00:00:27.480=0;00:00:27.720=0</property>
    <property name="compositing">0</property>
    <property name="distort">0</property>
    <property name="kdenlive:collapsed">0</property>
   </filter>
  </entry>
  <blank length="00:00:32.880"/>
  <entry producer="producer687" in="00:00:00.000" out="00:00:15.800">
   <property name="kdenlive:id">231</property>
   <filter id="filter1625">
    <property name="rotate_center">1</property>
    <property name="mlt_service">qtblend</property>
    <property name="kdenlive_id">qtblend</property>
    <property name="rect">00:00:00.000=0 1080 1920 1080 1.000000;00:00:00.240=0 -56 1920 1080 1.000000;00:00:00.360=0 0 1920 1080 1.000000;00:00:15.440=0 0 1920 1080 1.000000;00:00:15.560=0 54 1920 1080 1.000000;00:00:15.800=0 -1080 1920 1080 1.000000</property>
    <property name="rotation">00:00:00.000=0;00:00:00.240=0;00:00:00.360=0;00:00:15.440=0;00:00:15.560=0;00:00:15.800=0</property>
    <property name="compositing">0</property>
    <property name="distort">0</property>
    <property name="kdenlive:collapsed">0</property>
   </filter>
  </entry>
  <blank length="00:01:29.640"/>
  <entry producer="producer703" in="00:00:00.000" out="00:00:05.080">
   <property name="kdenlive:id">610</property>
  </entry>
  <entry producer="producer703" in="00:00:16.040" out="00:00:19.680">
   <property name="kdenlive:id">610</property>
  </entry>
  <blank length="00:00:12.680"/>
  <entry producer="producer687" in="00:00:00.000" out="00:00:35.840">
   <property name="kdenlive:id">231</property>
   <filter id="filter1626">
    <property name="rotate_center">1</property>
    <property name="mlt_service">qtblend</property>
    <property name="kdenlive_id">qtblend</property>
    <property name="rect">00:00:00.000=0 1080 1920 1080 1.000000;00:00:00.240=0 -119 1920 1080 1.000000;00:00:00.360=0 0 1920 1080 1.000000;00:00:35.480=0 0 1920 1080 1.000000;00:00:35.600=0 73 1920 1080 1.000000;00:00:35.840=0 -1080 1920 1080 1.000000</property>
    <property name="rotation">00:00:00.000=0;00:00:00.240=0;00:00:00.360=0;00:00:35.480=0;00:00:35.600=0;00:00:35.840=0</property>
    <property name="compositing">0</property>
    <property name="distort">0</property>
   </filter>
  </entry>
  <blank length="00:00:08.680"/>
  <entry producer="producer512" in="00:00:00.000" out="00:00:04.720">
   <property name="kdenlive:id">619</property>
   <filter id="filter1627">
    <property name="rotate_center">1</property>
    <property name="mlt_service">qtblend</property>
    <property name="kdenlive_id">qtblend</property>
    <property name="rect">00:00:00.000=950 535 19 10 1.000000;00:00:00.240=624 351 672 378 1.000000;00:00:00.360=672 378 576 324 1.000000;00:00:04.360=672 378 576 324 1.000000;00:00:04.480=624 351 672 378 1.000000;00:00:04.720=950 535 19 10 1.000000</property>
    <property name="rotation">00:00:00.000=0;00:00:00.240=0;00:00:00.360=0;00:00:04.360=0;00:00:04.480=0;00:00:04.720=0</property>
    <property name="compositing">0</property>
    <property name="distort">0</property>
    <property name="kdenlive:collapsed">0</property>
   </filter>
  </entry>
  <blank length="00:00:00.120"/>
  <entry producer="producer687" in="00:00:00.000" out="00:00:11.840">
   <property name="kdenlive:id">231</property>
   <filter id="filter1628">
    <property name="rotate_center">1</property>
    <property name="mlt_service">qtblend</property>
    <property name="kdenlive_id">qtblend</property>
    <property name="rect">00:00:00.000=0 1080 1920 1080 1.000000;00:00:00.240=0 -59 1920 1080 1.000000;00:00:00.360=0 0 1920 1080 1.000000</property>
    <property name="rotation">00:00:00.000=0;00:00:00.240=0;00:00:00.360=0</property>
    <property name="compositing">0</property>
    <property name="distort">0</property>
   </filter>
  </entry>
  <blank length="00:01:09.680"/>
  <entry producer="producer303" in="00:00:00.000" out="00:00:01.880">
   <property name="kdenlive:id">204</property>
   <filter id="filter1629">
    <property name="rotate_center">1</property>
    <property name="mlt_service">qtblend</property>
    <property name="kdenlive_id">qtblend</property>
    <property name="rect">00:00:00.000=240 135 1440 810 1.000000;00:00:01.880=221 124 1478 831 1.000000</property>
    <property name="rotation">00:00:00.000=0;00:00:01.880=0</property>
    <property name="compositing">0</property>
    <property name="distort">0</property>
    <property name="kdenlive:collapsed">0</property>
   </filter>
   <filter id="filter1630">
    <property name="rotate_center">1</property>
    <property name="mlt_service">qtblend</property>
    <property name="kdenlive_id">qtblend</property>
    <property name="rect">00:00:00.000=0 1080 1920 1080 1.000000;00:00:00.240=0 -63 1920 1080 1.000000;00:00:00.360=0 0 1920 1080 1.000000;00:00:01.520=0 0 1920 1080 1.000000;00:00:01.640=0 75 1920 1080 1.000000;00:00:01.880=0 -1080 1920 1080 1.000000</property>
    <property name="rotation">00:00:00.000=0;00:00:00.240=0;00:00:00.360=0;00:00:01.520=0;00:00:01.640=0;00:00:01.880=0</property>
    <property name="compositing">0</property>
    <property name="distort">0</property>
    <property name="kdenlive:collapsed">0</property>
   </filter>
  </entry>
  <blank length="00:00:07.200"/>
  <entry producer="chain441" in="00:02:57.280" out="00:03:02.880">
   <property name="kdenlive:id">478</property>
   <property name="kdenlive:activeeffect">1</property>
   <filter id="filter1631">
    <property name="rotate_center">1</property>
    <property name="mlt_service">qtblend</property>
    <property name="kdenlive_id">qtblend</property>
    <property name="rect">00:02:57.280=321 180 1278 719 1.000000</property>
    <property name="rotation">00:02:57.280=0</property>
    <property name="compositing">0</property>
    <property name="distort">0</property>
    <property name="kdenlive:collapsed">1</property>
   </filter>
   <filter id="filter1632">
    <property name="rotate_center">1</property>
    <property name="mlt_service">qtblend</property>
    <property name="kdenlive_id">qtblend</property>
    <property name="rect">00:02:57.280=0 1080 1920 1080 1.000000;00:02:57.520=0 -43 1920 1080 1.000000;00:02:57.640=0 0 1920 1080 1.000000;00:03:02.520=0 0 1920 1080 1.000000;00:03:02.640=0 74 1920 1080 1.000000;00:03:02.880=0 -1080 1920 1080 1.000000</property>
    <property name="rotation">00:02:57.280=0;00:02:57.520=0;00:02:57.640=0;00:03:02.520=0;00:03:02.640=0;00:03:02.880=0</property>
    <property name="compositing">0</property>
    <property name="distort">0</property>
    <property name="kdenlive:collapsed">0</property>
   </filter>
  </entry>
  <blank length="00:01:42.800"/>
  <entry producer="producer699" in="00:00:00.000" out="00:00:34.720">
   <property name="kdenlive:id">355</property>
   <filter id="filter1633">
    <property name="rotate_center">1</property>
    <property name="mlt_service">qtblend</property>
    <property name="kdenlive_id">qtblend</property>
    <property name="rect">00:00:00.000=0 86 1920 1080 1.000000;00:00:00.240=0 -34 1920 1080 1.000000;00:00:00.360=0 0 1920 1080 1.000000</property>
    <property name="rotation">00:00:00.000=0;00:00:00.240=0;00:00:00.360=0</property>
    <property name="compositing">0</property>
    <property name="distort">0</property>
    <property name="kdenlive:collapsed">0</property>
   </filter>
   <filter id="filter1634" out="00:00:00.240">
    <property name="start">1</property>
    <property name="level">1</property>
    <property name="mlt_service">brightness</property>
    <property name="kdenlive_id">fade_from_black</property>
    <property name="alpha">00:00:00.000=0;00:00:00.240=1</property>
    <property name="kdenlive:collapsed">0</property>
   </filter>
   <filter id="filter1635" in="00:00:33.800" out="00:00:34.720">
    <property name="start">1</property>
    <property name="level">1</property>
    <property name="mlt_service">brightness</property>
    <property name="kdenlive_id">fade_to_black</property>
    <property name="alpha">00:00:00.000=1;00:00:00.920=0</property>
    <property name="kdenlive:collapsed">0</property>
   </filter>
  </entry>
  <blank length="00:00:01.600"/>
  <entry producer="producer699" in="00:00:00.000" out="00:00:37.880">
   <property name="kdenlive:id">355</property>
   <filter id="filter1636">
    <property name="rotate_center">1</property>
    <property name="mlt_service">qtblend</property>
    <property name="kdenlive_id">qtblend</property>
    <property name="rect">00:00:00.000=0 86 1920 1080 1.000000;00:00:00.240=0 -34 1920 1080 1.000000;00:00:00.360=0 0 1920 1080 1.000000</property>
    <property name="rotation">00:00:00.000=0;00:00:00.240=0;00:00:00.360=0</property>
    <property name="compositing">0</property>
    <property name="distort">0</property>
    <property name="kdenlive:collapsed">0</property>
   </filter>
   <filter id="filter1637" out="00:00:00.240">
    <property name="start">1</property>
    <property name="level">1</property>
    <property name="mlt_service">brightness</property>
    <property name="kdenlive_id">fade_from_black</property>
    <property name="alpha">00:00:00.000=0;00:00:00.240=1</property>
    <property name="kdenlive:collapsed">0</property>
   </filter>
   <filter id="filter1638" in="00:00:36.960" out="00:00:37.880">
    <property name="start">1</property>
    <property name="level">1</property>
    <property name="mlt_service">brightness</property>
    <property name="kdenlive_id">fade_to_black</property>
    <property name="alpha">00:00:00.000=1;00:00:00.920=0</property>
    <property name="kdenlive:collapsed">0</property>
   </filter>
  </entry>
  <blank length="00:00:07.480"/>
  <entry producer="producer699" in="00:00:00.000" out="00:00:43.040">
   <property name="kdenlive:id">355</property>
   <filter id="filter1639">
    <property name="rotate_center">1</property>
    <property name="mlt_service">qtblend</property>
    <property name="kdenlive_id">qtblend</property>
    <property name="rect">00:00:00.000=0 86 1920 1080 1.000000;00:00:00.240=0 -34 1920 1080 1.000000;00:00:00.360=0 0 1920 1080 1.000000</property>
    <property name="rotation">00:00:00.000=0;00:00:00.240=0;00:00:00.360=0</property>
    <property name="compositing">0</property>
    <property name="distort">0</property>
    <property name="kdenlive:collapsed">0</property>
   </filter>
   <filter id="filter1640" out="00:00:00.240">
    <property name="start">1</property>
    <property name="level">1</property>
    <property name="mlt_service">brightness</property>
    <property name="kdenlive_id">fade_from_black</property>
    <property name="alpha">0=0;-1=1</property>
    <property name="kdenlive:collapsed">0</property>
   </filter>
   <filter id="filter1641" in="00:00:42.120" out="00:00:43.040">
    <property name="start">1</property>
    <property name="level">1</property>
    <property name="mlt_service">brightness</property>
    <property name="kdenlive_id">fade_to_black</property>
    <property name="alpha">00:00:00.000=1;00:00:00.920=0</property>
    <property name="kdenlive:collapsed">0</property>
   </filter>
  </entry>
  <blank length="00:00:15.160"/>
  <entry producer="producer557" in="00:00:00.000" out="00:00:07.720">
   <property name="kdenlive:id">660</property>
   <filter id="filter1642">
    <property name="rotate_center">1</property>
    <property name="mlt_service">qtblend</property>
    <property name="kdenlive_id">qtblend</property>
    <property name="rect">00:00:00.000=0 0 1920 1080 1.000000;00:00:07.360=0 0 1920 1080 1.000000;00:00:07.480=0 45 1920 1080 1.000000;00:00:07.720=0 -1080 1920 1080 1.000000</property>
    <property name="rotation">00:00:00.000=0;00:00:07.360=0;00:00:07.480=0;00:00:07.720=0</property>
    <property name="compositing">0</property>
    <property name="distort">0</property>
   </filter>
  </entry>
  <blank length="00:00:19.240"/>
  <entry producer="producer558" in="00:00:00.000" out="00:00:05.080">
   <property name="kdenlive:id">673</property>
   <property name="kdenlive:activeeffect">1</property>
   <filter id="filter1643">
    <property name="rotate_center">1</property>
    <property name="mlt_service">qtblend</property>
    <property name="kdenlive_id">qtblend</property>
    <property name="rect">00:00:00.000=240 135 1440 810 1.000000;00:00:05.080=221 125 1478 831 1.000000</property>
    <property name="rotation">00:00:00.000=0;00:00:05.080=0</property>
    <property name="compositing">0</property>
    <property name="distort">0</property>
    <property name="kdenlive:collapsed">1</property>
   </filter>
   <filter id="filter1644">
    <property name="rotate_center">1</property>
    <property name="mlt_service">qtblend</property>
    <property name="kdenlive_id">qtblend</property>
    <property name="rect">00:00:00.000=0 1080 1920 1080 1.000000;00:00:00.240=0 -75 1920 1080 1.000000;00:00:00.360=0 0 1920 1080 1.000000;00:00:04.720=0 0 1920 1080 1.000000;00:00:04.840=0 65 1920 1080 1.000000;00:00:05.080=0 -1080 1920 1080 1.000000</property>
    <property name="rotation">00:00:00.000=0;00:00:00.240=0;00:00:00.360=0;00:00:04.720=0;00:00:04.840=0;00:00:05.080=0</property>
    <property name="compositing">0</property>
    <property name="distort">0</property>
    <property name="kdenlive:collapsed">0</property>
   </filter>
  </entry>
  <blank length="00:00:10.000"/>
  <entry producer="producer559" in="00:00:00.000" out="00:00:10.400">
   <property name="kdenlive:id">676</property>
   <property name="kdenlive:activeeffect">1</property>
   <filter id="filter1645">
    <property name="rotate_center">1</property>
    <property name="mlt_service">qtblend</property>
    <property name="kdenlive_id">qtblend</property>
    <property name="rect">00:00:00.000=336 189 1248 702 1.000000;00:00:10.400=288 162 1344 756 1.000000</property>
    <property name="rotation">00:00:00.000=0;00:00:10.400=0</property>
    <property name="compositing">0</property>
    <property name="distort">0</property>
    <property name="kdenlive:collapsed">1</property>
   </filter>
   <filter id="filter1646">
    <property name="rotate_center">1</property>
    <property name="mlt_service">qtblend</property>
    <property name="kdenlive_id">qtblend</property>
    <property name="rect">00:00:00.000=0 1080 1920 1080 1.000000;00:00:00.240=0 -51 1920 1080 1.000000;00:00:00.360=0 0 1920 1080 1.000000;00:00:10.040=0 0 1920 1080 1.000000;00:00:10.160=0 47 1920 1080 1.000000;00:00:10.400=0 -1080 1920 1080 1.000000</property>
    <property name="rotation">00:00:00.000=0;00:00:00.240=0;00:00:00.360=0;00:00:10.040=0;00:00:10.160=0;00:00:10.400=0</property>
    <property name="compositing">0</property>
    <property name="distort">0</property>
    <property name="kdenlive:collapsed">0</property>
   </filter>
  </entry>
  <blank length="00:00:11.800"/>
  <entry producer="producer560" in="00:00:00.000" out="00:00:02.440">
   <property name="kdenlive:id">680</property>
   <filter id="filter1647">
    <property name="rotate_center">1</property>
    <property name="mlt_service">qtblend</property>
    <property name="kdenlive_id">qtblend</property>
    <property name="rect">00:00:00.000=240 135 1440 810 1.000000;00:00:02.440=221 125 1478 831 1.000000</property>
    <property name="rotation">00:00:00.000=0;00:00:02.440=0</property>
    <property name="compositing">0</property>
    <property name="distort">0</property>
    <property name="kdenlive:collapsed">0</property>
   </filter>
   <filter id="filter1648">
    <property name="rotate_center">1</property>
    <property name="mlt_service">qtblend</property>
    <property name="kdenlive_id">qtblend</property>
    <property name="rect">00:00:00.000=0 1080 1920 1080 1.000000;00:00:00.240=0 -53 1920 1080 1.000000;00:00:00.360=0 0 1920 1080 1.000000;00:00:02.040=0 0 1920 1080 1.000000;00:00:02.160=0 47 1920 1080 1.000000;00:00:02.440=0 -1080 1920 1080 1.000000</property>
    <property name="rotation">00:00:00.000=0;00:00:00.240=0;00:00:00.360=0;00:00:02.040=0;00:00:02.160=0;00:00:02.440=0</property>
    <property name="compositing">0</property>
    <property name="distort">0</property>
    <property name="kdenlive:collapsed">0</property>
   </filter>
  </entry>
  <blank length="00:00:24.880"/>
  <entry producer="chain442" in="00:01:00.720" out="00:01:06.520">
   <property name="kdenlive:id">687</property>
   <property name="kdenlive:activeeffect">1</property>
   <filter id="filter1649">
    <property name="rotate_center">1</property>
    <property name="mlt_service">qtblend</property>
    <property name="kdenlive_id">qtblend</property>
    <property name="rect">00:01:00.720=320 180 1279 719 1.000000</property>
    <property name="rotation">00:01:00.720=0</property>
    <property name="compositing">0</property>
    <property name="distort">0</property>
    <property name="kdenlive:collapsed">1</property>
   </filter>
   <filter id="filter1650">
    <property name="rotate_center">1</property>
    <property name="mlt_service">qtblend</property>
    <property name="kdenlive_id">qtblend</property>
    <property name="rect">00:01:00.720=0 1080 1920 1080 1.000000;00:01:00.960=0 -55 1920 1080 1.000000;00:01:01.080=0 0 1920 1080 1.000000;00:01:06.160=0 0 1920 1080 1.000000;00:01:06.280=0 65 1920 1080 1.000000;00:01:06.520=0 -1080 1920 1080 1.000000</property>
    <property name="rotation">00:01:00.720=0;00:01:00.960=0;00:01:01.080=0;00:01:06.160=0;00:01:06.280=0;00:01:06.520=0</property>
    <property name="compositing">0</property>
    <property name="distort">0</property>
    <property name="kdenlive:collapsed">0</property>
   </filter>
  </entry>
  <blank length="00:00:09.240"/>
  <entry producer="producer704" in="00:00:00.000" out="00:00:04.800">
   <property name="kdenlive:id">689</property>
   <filter id="filter1651">
    <property name="rotate_center">1</property>
    <property name="mlt_service">qtblend</property>
    <property name="kdenlive_id">qtblend</property>
    <property name="rect">00:00:00.000=960 540 960 540 1.000000</property>
    <property name="rotation">00:00:00.000=0</property>
    <property name="compositing">0</property>
    <property name="distort">0</property>
    <property name="kdenlive:collapsed">0</property>
   </filter>
  </entry>
  <entry producer="producer704" in="00:00:16.240" out="00:00:19.680">
   <property name="kdenlive:id">689</property>
   <filter id="filter1652">
    <property name="rotate_center">1</property>
    <property name="mlt_service">qtblend</property>
    <property name="kdenlive_id">qtblend</property>
    <property name="rect">00:00:16.240=960 540 960 540 1.000000</property>
    <property name="rotation">00:00:16.240=0</property>
    <property name="compositing">0</property>
    <property name="distort">0</property>
   </filter>
  </entry>
  <blank length="00:00:07.080"/>
  <entry producer="producer699" in="00:00:00.000" out="00:00:27.800">
   <property name="kdenlive:id">355</property>
   <filter id="filter1653">
    <property name="rotate_center">1</property>
    <property name="mlt_service">qtblend</property>
    <property name="kdenlive_id">qtblend</property>
    <property name="rect">00:00:00.000=0 86 1920 1080 1.000000;00:00:00.240=0 -34 1920 1080 1.000000;00:00:00.360=0 0 1920 1080 1.000000</property>
    <property name="rotation">00:00:00.000=0;00:00:00.240=0;00:00:00.360=0</property>
    <property name="compositing">0</property>
    <property name="distort">0</property>
    <property name="kdenlive:collapsed">1</property>
   </filter>
   <filter id="filter1654" out="00:00:00.240">
    <property name="start">1</property>
    <property name="level">1</property>
    <property name="mlt_service">brightness</property>
    <property name="kdenlive_id">fade_from_black</property>
    <property name="alpha">00:00:00.000=0;00:00:00.240=1</property>
    <property name="kdenlive:collapsed">0</property>
   </filter>
   <filter id="filter1655" in="00:00:26.880" out="00:00:27.800">
    <property name="start">1</property>
    <property name="level">1</property>
    <property name="mlt_service">brightness</property>
    <property name="kdenlive_id">fade_to_black</property>
    <property name="alpha">00:00:00.000=1;00:00:00.920=0</property>
    <property name="kdenlive:collapsed">0</property>
   </filter>
  </entry>
  <blank length="00:00:20.880"/>
  <entry producer="producer705" in="00:00:00.000" out="00:00:04.120">
   <property name="kdenlive:id">710</property>
  </entry>
  <entry producer="producer705" in="00:00:16.200" out="00:00:19.680">
   <property name="kdenlive:id">710</property>
  </entry>
  <entry producer="producer563" in="00:00:00.000" out="00:00:03.240">
   <property name="kdenlive:id">699</property>
   <filter id="filter1656">
    <property name="rotate_center">1</property>
    <property name="mlt_service">qtblend</property>
    <property name="kdenlive_id">qtblend</property>
    <property name="rect">00:00:00.000=671 562 19 10 1.000000;00:00:00.240=-135 108 1632 918 1.000000;00:00:00.360=-87 135 1536 864 1.000000;00:00:02.880=-87 135 1536 864 1.000000;00:00:03.000=-135 108 1632 918 1.000000;00:00:03.240=671 562 19 10 1.000000</property>
    <property name="rotation">00:00:00.000=0;00:00:00.240=0;00:00:00.360=0;00:00:02.880=0;00:00:03.000=0;00:00:03.240=0</property>
    <property name="compositing">0</property>
    <property name="distort">0</property>
    <property name="kdenlive:collapsed">0</property>
   </filter>
  </entry>
  <blank length="00:00:09.920"/>
  <entry producer="chain443" in="00:00:00.000" out="00:00:06.720">
   <property name="kdenlive:id">702</property>
   <property name="kdenlive:activeeffect">1</property>
   <filter id="filter1657">
    <property name="rotate_center">1</property>
    <property name="mlt_service">qtblend</property>
    <property name="kdenlive_id">qtblend</property>
    <property name="rect">00:00:00.000=320 180 1279 719 1.000000</property>
    <property name="rotation">00:00:00.000=0</property>
    <property name="compositing">0</property>
    <property name="distort">0</property>
    <property name="kdenlive:collapsed">1</property>
   </filter>
   <filter id="filter1658">
    <property name="rotate_center">1</property>
    <property name="mlt_service">qtblend</property>
    <property name="kdenlive_id">qtblend</property>
    <property name="rect">00:00:00.000=0 1080 1920 1080 1.000000;00:00:00.240=0 -64 1920 1080 1.000000;00:00:00.360=0 0 1920 1080 1.000000;00:00:06.360=0 0 1920 1080 1.000000;00:00:06.480=0 59 1920 1080 1.000000;00:00:06.720=0 -1080 1920 1080 1.000000</property>
    <property name="rotation">00:00:00.000=0;00:00:00.240=0;00:00:00.360=0;00:00:06.360=0;00:00:06.480=0;00:00:06.720=0</property>
    <property name="compositing">0</property>
    <property name="distort">0</property>
    <property name="kdenlive:collapsed">0</property>
   </filter>
  </entry>
  <blank length="00:00:47.000"/>
  <entry producer="producer706" in="00:00:00.000" out="00:00:05.280">
   <property name="kdenlive:id">714</property>
   <filter id="filter1659">
    <property name="rotate_center">1</property>
    <property name="mlt_service">qtblend</property>
    <property name="kdenlive_id">qtblend</property>
    <property name="rect">00:00:00.000=-128 0 1920 1080 1.000000</property>
    <property name="rotation">00:00:00.000=0</property>
    <property name="compositing">0</property>
    <property name="distort">0</property>
    <property name="kdenlive:collapsed">0</property>
   </filter>
   <filter id="filter1660">
    <property name="rotate_center">1</property>
    <property name="mlt_service">qtblend</property>
    <property name="kdenlive_id">qtblend</property>
    <property name="rect">00:00:00.000=-128 0 1920 1080 1.000000</property>
    <property name="rotation">00:00:00.000=0</property>
    <property name="compositing">0</property>
    <property name="distort">0</property>
    <property name="kdenlive:collapsed">0</property>
   </filter>
  </entry>
  <entry producer="producer706" in="00:00:16.360" out="00:00:19.680">
   <property name="kdenlive:id">714</property>
   <filter id="filter1661">
    <property name="rotate_center">1</property>
    <property name="mlt_service">qtblend</property>
    <property name="kdenlive_id">qtblend</property>
    <property name="rect">00:00:16.360=-128 0 1920 1080 1.000000</property>
    <property name="rotation">00:00:16.360=0</property>
    <property name="compositing">0</property>
    <property name="distort">0</property>
    <property name="kdenlive:collapsed">0</property>
   </filter>
   <filter id="filter1662">
    <property name="rotate_center">1</property>
    <property name="mlt_service">qtblend</property>
    <property name="kdenlive_id">qtblend</property>
    <property name="rect">00:00:16.360=-128 0 1920 1080 1.000000</property>
    <property name="rotation">00:00:16.360=0</property>
    <property name="compositing">0</property>
    <property name="distort">0</property>
    <property name="kdenlive:collapsed">0</property>
   </filter>
  </entry>
  <blank length="00:00:00.360"/>
  <entry producer="producer707" in="00:00:00.000" out="00:00:08.240">
   <property name="kdenlive:id">716</property>
  </entry>
  <entry producer="producer707" in="00:00:16.280" out="00:00:19.680">
   <property name="kdenlive:id">716</property>
  </entry>
  <blank length="00:00:32.840"/>
  <entry producer="producer569" in="00:00:00.000" out="00:00:01.440">
   <property name="kdenlive:id">721</property>
   <filter id="filter1663">
    <property name="rotate_center">1</property>
    <property name="mlt_service">qtblend</property>
    <property name="kdenlive_id">qtblend</property>
    <property name="rect">00:00:00.000=144 81 1632 918 1.000000</property>
    <property name="rotation">00:00:00.000=0</property>
    <property name="compositing">0</property>
    <property name="distort">0</property>
    <property name="kdenlive:collapsed">1</property>
   </filter>
   <filter id="filter1664">
    <property name="mode">alpha</property>
    <property name="alpha_operation">min</property>
    <property name="invert">0</property>
    <property name="feather">0</property>
    <property name="feather_passes">1</property>
    <property name="mlt_service">rotoscoping</property>
    <property name="kdenlive_id">rotoscoping</property>
    <property name="spline">{
    "000": [
        [
            [
                0.019594594594594596,
                0.21111111111111105
            ],
            [
                0.02195945945945946,
                0.025525525525525523
            ],
            [
                0.03277027027027027,
                0.027327327327327327
            ]
        ],
        [
            [
                0.0652027027027027,
                0.032732732732732736
            ],
            [
                0.07601351351351351,
                0.03453453453453453
            ],
            [
                0.07871621621621622,
                0.21951951951951953
            ]
        ],
        [
            [
                0.08682432432432431,
                0.7744744744744746
            ],
            [
                0.08952702702702701,
                0.9594594594594595
            ],
            [
                0.07364864864864865,
                0.9582582582582583
            ]
        ],
        [
            [
                0.02601351351351351,
                0.9546546546546545
            ],
            [
                0.010135135135135136,
                0.9534534534534533
            ],
            [
                0.0125,
                0.7678678678678678
            ]
        ]
    ],
    "018": [
        [
            [
                0.019594594594594596,
                0.21111111111111105
            ],
            [
                0.02195945945945946,
                0.025525525525525523
            ],
            [
                0.03277027027027027,
                0.027327327327327327
            ]
        ],
        [
            [
                0.8439189189189189,
                0.041741741741741764
            ],
            [
                0.8547297297297297,
                0.04354354354354354
            ],
            [
                0.8574324324324324,
                0.22852852852852865
            ]
        ],
        [
            [
                0.8689189189189189,
                0.7744744744744745
            ],
            [
                0.8716216216216216,
                0.9594594594594595
            ],
            [
                0.8557432432432432,
                0.9582582582582583
            ]
        ],
        [
            [
                0.02601351351351351,
                0.9546546546546545
            ],
            [
                0.010135135135135136,
                0.9534534534534533
            ],
            [
                0.0125,
                0.7678678678678678
            ]
        ]
    ]
}
</property>
    <property name="kdenlive:collapsed">1</property>
   </filter>
  </entry>
  <blank length="00:00:05.400"/>
  <entry producer="chain444" in="00:00:31.760" out="00:00:37.160">
   <property name="kdenlive:id">732</property>
   <property name="kdenlive:activeeffect">1</property>
   <filter id="filter1665">
    <property name="rotate_center">1</property>
    <property name="mlt_service">qtblend</property>
    <property name="kdenlive_id">qtblend</property>
    <property name="rect">00:00:31.760=320 180 1279 719 1.000000</property>
    <property name="rotation">00:00:31.760=0</property>
    <property name="compositing">0</property>
    <property name="distort">0</property>
    <property name="kdenlive:collapsed">1</property>
   </filter>
   <filter id="filter1666">
    <property name="rotate_center">1</property>
    <property name="mlt_service">qtblend</property>
    <property name="kdenlive_id">qtblend</property>
    <property name="rect">00:00:31.760=0 1080 1920 1080 1.000000;00:00:32.000=0 -70 1920 1080 1.000000;00:00:32.120=0 0 1920 1080 1.000000;00:00:36.800=0 0 1920 1080 1.000000;00:00:36.920=0 60 1920 1080 1.000000;00:00:37.160=0 -1080 1920 1080 1.000000</property>
    <property name="rotation">00:00:31.760=0;00:00:32.000=0;00:00:32.120=0;00:00:36.800=0;00:00:36.920=0;00:00:37.160=0</property>
    <property name="compositing">0</property>
    <property name="distort">0</property>
    <property name="kdenlive:collapsed">0</property>
   </filter>
  </entry>
  <blank length="00:00:09.600"/>
  <entry producer="chain445" in="00:00:00.000" out="00:00:13.240">
   <property name="kdenlive:id">735</property>
   <property name="kdenlive:activeeffect">1</property>
   <filter id="filter1667">
    <property name="rotate_center">1</property>
    <property name="mlt_service">qtblend</property>
    <property name="kdenlive_id">qtblend</property>
    <property name="rect">00:00:00.000=320 180 1279 719 1.000000</property>
    <property name="rotation">00:00:00.000=0</property>
    <property name="compositing">0</property>
    <property name="distort">0</property>
    <property name="kdenlive:collapsed">1</property>
   </filter>
   <filter id="filter1668">
    <property name="rotate_center">1</property>
    <property name="mlt_service">qtblend</property>
    <property name="kdenlive_id">qtblend</property>
    <property name="rect">00:00:00.000=0 1080 1920 1080 1.000000;00:00:00.240=0 -59 1920 1080 1.000000;00:00:00.360=0 0 1920 1080 1.000000;00:00:12.880=0 0 1920 1080 1.000000;00:00:13.000=0 59 1920 1080 1.000000;00:00:13.240=0 -1080 1920 1080 1.000000</property>
    <property name="rotation">00:00:00.000=0;00:00:00.240=0;00:00:00.360=0;00:00:12.880=0;00:00:13.000=0;00:00:13.240=0</property>
    <property name="compositing">0</property>
    <property name="distort">0</property>
    <property name="kdenlive:collapsed">0</property>
   </filter>
  </entry>
  <blank length="00:00:54.360"/>
  <entry producer="chain446" in="00:02:20.280" out="00:02:29.480">
   <property name="kdenlive:id">488</property>
   <filter id="filter1669">
    <property name="rotate_center">1</property>
    <property name="mlt_service">qtblend</property>
    <property name="kdenlive_id">qtblend</property>
    <property name="rect">00:02:20.280=321 180 1278 719 1.000000</property>
    <property name="rotation">00:02:20.280=0</property>
    <property name="compositing">0</property>
    <property name="distort">0</property>
    <property name="kdenlive:collapsed">1</property>
   </filter>
   <filter id="filter1670">
    <property name="rotate_center">1</property>
    <property name="mlt_service">qtblend</property>
    <property name="kdenlive_id">qtblend</property>
    <property name="rect">00:02:20.280=0 1080 1920 1080 1.000000;00:02:20.520=0 -54 1920 1080 1.000000;00:02:20.640=0 0 1920 1080 1.000000;00:02:29.120=0 0 1920 1080 1.000000;00:02:29.240=0 58 1920 1080 1.000000;00:02:29.440|=0 -1080 1920 1080 1.000000;00:02:29.480=0 0 1920 1080 1.000000</property>
    <property name="rotation">00:02:20.280=0;00:02:20.520=0;00:02:20.640=0;00:02:29.120=0;00:02:29.240=0;00:02:29.480=0</property>
    <property name="compositing">0</property>
    <property name="distort">0</property>
    <property name="kdenlive:collapsed">0</property>
   </filter>
  </entry>
  <blank length="00:00:39.160"/>
  <entry producer="producer699" in="00:00:00.000" out="00:00:29.960">
   <property name="kdenlive:id">355</property>
   <filter id="filter1671">
    <property name="rotate_center">1</property>
    <property name="mlt_service">qtblend</property>
    <property name="kdenlive_id">qtblend</property>
    <property name="rect">00:00:00.000=0 86 1920 1080 1.000000;00:00:00.240=0 -34 1920 1080 1.000000;00:00:00.360=0 0 1920 1080 1.000000</property>
    <property name="rotation">00:00:00.000=0;00:00:00.240=0;00:00:00.360=0</property>
    <property name="compositing">0</property>
    <property name="distort">0</property>
   </filter>
   <filter id="filter1672" out="00:00:00.240">
    <property name="start">1</property>
    <property name="level">1</property>
    <property name="mlt_service">brightness</property>
    <property name="kdenlive_id">fade_from_black</property>
    <property name="alpha">00:00:00.000=0;00:00:00.240=1</property>
   </filter>
   <filter id="filter1673" in="00:00:29.040" out="00:00:29.960">
    <property name="start">1</property>
    <property name="level">1</property>
    <property name="mlt_service">brightness</property>
    <property name="kdenlive_id">fade_to_black</property>
    <property name="alpha">00:00:00.000=1;00:00:00.920=0</property>
   </filter>
  </entry>
  <blank length="00:00:17.960"/>
  <entry producer="chain447" in="00:00:00.000" out="00:00:05.520">
   <property name="kdenlive:id">750</property>
   <filter id="filter1674">
    <property name="rotate_center">1</property>
    <property name="mlt_service">qtblend</property>
    <property name="kdenlive_id">qtblend</property>
    <property name="rect">00:00:00.000=320 180 1279 719 1.000000</property>
    <property name="rotation">00:00:00.000=0</property>
    <property name="compositing">0</property>
    <property name="distort">0</property>
    <property name="kdenlive:collapsed">1</property>
   </filter>
   <filter id="filter1675">
    <property name="rotate_center">1</property>
    <property name="mlt_service">qtblend</property>
    <property name="kdenlive_id">qtblend</property>
    <property name="rect">00:00:00.000=0 1080 1920 1080 1.000000;00:00:00.240=0 -47 1920 1080 1.000000;00:00:00.360=0 0 1920 1080 1.000000;00:00:05.520=0 0 1920 1080 1.000000</property>
    <property name="rotation">00:00:00.000=0;00:00:00.240=0;00:00:00.360=0;00:00:05.520=0</property>
    <property name="compositing">0</property>
    <property name="distort">0</property>
    <property name="kdenlive:collapsed">0</property>
   </filter>
  </entry>
  <entry producer="producer495" in="00:00:00.000" out="00:00:12.640">
   <property name="kdenlive:id">637</property>
   <filter id="filter1676">
    <property name="rotate_center">1</property>
    <property name="mlt_service">qtblend</property>
    <property name="kdenlive_id">qtblend</property>
    <property name="rect">00:00:00.000=0 86 1920 1080 1.000000;00:00:00.240=0 -34 1920 1080 1.000000;00:00:00.360=0 0 1920 1080 1.000000</property>
    <property name="rotation">00:00:00.000=0;00:00:00.240=0;00:00:00.360=0</property>
    <property name="compositing">0</property>
    <property name="distort">0</property>
    <property name="kdenlive:collapsed">0</property>
   </filter>
   <filter id="filter1677" out="00:00:00.240">
    <property name="start">1</property>
    <property name="level">1</property>
    <property name="mlt_service">brightness</property>
    <property name="kdenlive_id">fade_from_black</property>
    <property name="alpha">00:00:00.000=0;00:00:00.240=1</property>
    <property name="kdenlive:collapsed">1</property>
   </filter>
   <filter id="filter1678" in="00:00:11.720" out="00:00:12.640">
    <property name="start">1</property>
    <property name="level">1</property>
    <property name="mlt_service">brightness</property>
    <property name="kdenlive_id">fade_to_black</property>
    <property name="alpha">00:00:00.000=1;00:00:00.920=0</property>
    <property name="kdenlive:collapsed">1</property>
   </filter>
  </entry>
  <blank length="00:00:07.200"/>
  <entry producer="chain448" in="00:27:45.280" out="00:27:49.880">
   <property name="kdenlive:id">763</property>
   <property name="kdenlive:activeeffect">2</property>
   <filter id="filter1679">
    <property name="version">0.6</property>
    <property name="mlt_service">frei0r.select0r</property>
    <property name="kdenlive_id">frei0r.select0r</property>
    <property name="Color to select">00:27:45.280=0xffffffff</property>
    <property name="Invert selection">1</property>
    <property name="Selection subspace">0</property>
    <property name="Subspace shape">0.5</property>
    <property name="Edge mode">0.9</property>
    <property name="Delta R / A / Hue">00:27:45.280=0.2</property>
    <property name="Delta G / B / Chroma">00:27:45.280=0.2</property>
    <property name="Delta B / I / I">00:27:45.280=0.2</property>
    <property name="Slope">00:27:45.280=0</property>
    <property name="Operation">1</property>
    <property name="kdenlive:collapsed">1</property>
    <properties name="ctor-0x7f715cff46c0"/>
    <properties name="ctor-0x7f727e6256c0"/>
    <properties name="ctor-0x7f71527fa6c0"/>
    <properties name="ctor-0x7f7150ff76c0"/>
    <properties name="ctor-0x7f70ee4476c0"/>
    <properties name="ctor-0x7f714fe1e6c0"/>
    <properties name="ctor-0x7f71b2ffd6c0"/>
   </filter>
   <filter id="filter1680">
    <property name="rotate_center">1</property>
    <property name="mlt_service">qtblend</property>
    <property name="kdenlive_id">qtblend</property>
    <property name="rect">00:27:45.280=320 180 1279 719 1.000000</property>
    <property name="rotation">00:27:45.280=0</property>
    <property name="compositing">0</property>
    <property name="distort">0</property>
    <property name="kdenlive:collapsed">1</property>
   </filter>
   <filter id="filter1681">
    <property name="rotate_center">1</property>
    <property name="mlt_service">qtblend</property>
    <property name="kdenlive_id">qtblend</property>
    <property name="rect">00:27:45.280=0 1080 1920 1080 1.000000;00:27:45.520=0 -51 1920 1080 1.000000;00:27:45.640=0 0 1920 1080 1.000000;00:27:49.520=0 0 1920 1080 1.000000;00:27:49.640=0 53 1920 1080 1.000000;00:27:49.880=0 -1080 1920 1080 1.000000</property>
    <property name="rotation">00:27:45.280=0;00:27:45.520=0;00:27:45.640=0;00:27:49.520=0;00:27:49.640=0;00:27:49.880=0</property>
    <property name="compositing">0</property>
    <property name="distort">0</property>
    <property name="kdenlive:collapsed">0</property>
   </filter>
  </entry>
  <blank length="00:00:12.880"/>
  <entry producer="producer631" in="00:00:00.000" out="00:00:27.360">
   <property name="kdenlive:id">773</property>
   <filter id="filter1682">
    <property name="rotate_center">1</property>
    <property name="mlt_service">qtblend</property>
    <property name="kdenlive_id">qtblend</property>
    <property name="rect">00:00:00.000=0 86 1920 1080 1.000000;00:00:00.240=0 -34 1920 1080 1.000000;00:00:00.360=0 0 1920 1080 1.000000</property>
    <property name="rotation">00:00:00.000=0;00:00:00.240=0;00:00:00.360=0</property>
    <property name="compositing">0</property>
    <property name="distort">0</property>
    <property name="kdenlive:collapsed">0</property>
   </filter>
   <filter id="filter1683" out="00:00:00.240">
    <property name="start">1</property>
    <property name="level">1</property>
    <property name="mlt_service">brightness</property>
    <property name="kdenlive_id">fade_from_black</property>
    <property name="alpha">00:00:00.000=0;00:00:00.240=1</property>
    <property name="kdenlive:collapsed">1</property>
   </filter>
   <filter id="filter1684" in="00:00:27.120" out="00:00:27.360">
    <property name="start">1</property>
    <property name="level">1</property>
    <property name="mlt_service">brightness</property>
    <property name="kdenlive_id">fade_to_black</property>
    <property name="alpha">00:00:00.000=1;00:00:00.240=0</property>
   </filter>
  </entry>
  <entry producer="producer336" in="00:00:00.000" out="00:00:08.960">
   <property name="kdenlive:id">378</property>
   <filter id="filter1685" out="00:00:00.240">
    <property name="start">1</property>
    <property name="level">1</property>
    <property name="mlt_service">brightness</property>
    <property name="kdenlive_id">fade_from_black</property>
    <property name="alpha">00:00:00.000=0;00:00:00.240=1</property>
    <property name="kdenlive:collapsed">0</property>
   </filter>
   <filter id="filter1686" in="00:00:08.720" out="00:00:08.960">
    <property name="start">1</property>
    <property name="level">1</property>
    <property name="mlt_service">brightness</property>
    <property name="kdenlive_id">fade_to_black</property>
    <property name="alpha">00:00:00.000=1;00:00:00.240=0</property>
    <property name="kdenlive:collapsed">0</property>
   </filter>
  </entry>
  <entry producer="producer634" in="00:00:00.000" out="00:00:38.520">
   <property name="kdenlive:id">778</property>
   <property name="kdenlive:activeeffect">1</property>
   <filter id="filter1687" out="00:00:00.240">
    <property name="start">1</property>
    <property name="level">1</property>
    <property name="mlt_service">brightness</property>
    <property name="kdenlive_id">fade_from_black</property>
    <property name="alpha">00:00:00.000=0;00:00:00.240=1</property>
    <property name="kdenlive:collapsed">0</property>
   </filter>
   <filter id="filter1688" in="00:00:37.600" out="00:00:38.520">
    <property name="start">1</property>
    <property name="level">1</property>
    <property name="mlt_service">brightness</property>
    <property name="kdenlive_id">fade_to_black</property>
    <property name="alpha">00:00:00.000=1;00:00:00.920=0</property>
    <property name="kdenlive:collapsed">0</property>
   </filter>
  </entry>
  <blank length="00:00:08.720"/>
  <entry producer="chain449" in="00:02:37.440" out="00:03:01.120">
   <property name="kdenlive:id">779</property>
   <property name="kdenlive:activeeffect">1</property>
   <filter id="filter1689">
    <property name="rotate_center">1</property>
    <property name="mlt_service">qtblend</property>
    <property name="kdenlive_id">qtblend</property>
    <property name="rect">00:02:37.440=320 180 1279 719 1.000000</property>
    <property name="rotation">00:02:37.440=0</property>
    <property name="compositing">0</property>
    <property name="distort">0</property>
    <property name="kdenlive:collapsed">1</property>
   </filter>
   <filter id="filter1690">
    <property name="rotate_center">1</property>
    <property name="mlt_service">qtblend</property>
    <property name="kdenlive_id">qtblend</property>
    <property name="rect">00:02:37.440=0 1080 1920 1080 1.000000;00:02:37.680=0 -50 1920 1080 1.000000;00:02:37.800=0 0 1920 1080 1.000000;00:03:00.760=0 0 1920 1080 1.000000;00:03:00.880=0 38 1920 1080 1.000000;00:03:01.120=0 -1080 1920 1080 1.000000</property>
    <property name="rotation">00:02:37.440=0;00:02:37.680=0;00:02:37.800=0;00:03:00.760=0;00:03:00.880=0;00:03:01.120=0</property>
    <property name="compositing">0</property>
    <property name="distort">0</property>
    <property name="kdenlive:collapsed">0</property>
   </filter>
  </entry>
  <blank length="00:00:02.400"/>
  <entry producer="producer708" in="00:00:00.000" out="00:00:12.400">
   <property name="kdenlive:id">781</property>
   <filter id="filter1691">
    <property name="rotate_center">1</property>
    <property name="mlt_service">qtblend</property>
    <property name="kdenlive_id">qtblend</property>
    <property name="rect">00:00:00.000=960 540 960 540 1.000000</property>
    <property name="rotation">00:00:00.000=0</property>
    <property name="compositing">0</property>
    <property name="distort">0</property>
    <property name="kdenlive:collapsed">0</property>
   </filter>
  </entry>
  <entry producer="producer708" in="00:00:16.320" out="00:00:19.680">
   <property name="kdenlive:id">781</property>
   <filter id="filter1692">
    <property name="rotate_center">1</property>
    <property name="mlt_service">qtblend</property>
    <property name="kdenlive_id">qtblend</property>
    <property name="rect">00:00:16.320=960 540 960 540 1.000000</property>
    <property name="rotation">00:00:16.320=0</property>
    <property name="compositing">0</property>
    <property name="distort">0</property>
    <property name="kdenlive:collapsed">0</property>
   </filter>
  </entry>
  <blank length="00:00:04.480"/>
  <entry producer="chain450" in="00:17:11.480" out="00:17:18.280">
   <property name="kdenlive:id">7</property>
   <property name="kdenlive:activeeffect">1</property>
   <filter id="filter1693">
    <property name="rotate_center">1</property>
    <property name="mlt_service">qtblend</property>
    <property name="kdenlive_id">qtblend</property>
    <property name="rect">00:17:11.480=320 180 1279 719 1.000000</property>
    <property name="rotation">00:17:11.480=0</property>
    <property name="compositing">0</property>
    <property name="distort">0</property>
    <property name="kdenlive:collapsed">1</property>
   </filter>
   <filter id="filter1694">
    <property name="rotate_center">1</property>
    <property name="mlt_service">qtblend</property>
    <property name="kdenlive_id">qtblend</property>
    <property name="rect">00:17:11.480=0 1080 1920 1080 1.000000;00:17:11.720=0 -57 1920 1080 1.000000;00:17:11.840=0 0 1920 1080 1.000000</property>
    <property name="rotation">00:17:11.480=0;00:17:11.720=0;00:17:11.840=0</property>
    <property name="compositing">0</property>
    <property name="distort">0</property>
    <property name="kdenlive:collapsed">0</property>
   </filter>
  </entry>
  <blank length="00:00:00.520"/>
  <entry producer="producer699" in="00:00:00.000" out="00:00:21.520">
   <property name="kdenlive:id">355</property>
   <filter id="filter1695">
    <property name="rotate_center">1</property>
    <property name="mlt_service">qtblend</property>
    <property name="kdenlive_id">qtblend</property>
    <property name="rect">00:00:00.000=0 86 1920 1080 1.000000;00:00:00.240=0 -34 1920 1080 1.000000;00:00:00.360=0 0 1920 1080 1.000000</property>
    <property name="rotation">00:00:00.000=0;00:00:00.240=0;00:00:00.360=0</property>
    <property name="compositing">0</property>
    <property name="distort">0</property>
    <property name="kdenlive:collapsed">0</property>
   </filter>
   <filter id="filter1696" out="00:00:00.240">
    <property name="start">1</property>
    <property name="level">1</property>
    <property name="mlt_service">brightness</property>
    <property name="kdenlive_id">fade_from_black</property>
    <property name="alpha">00:00:00.000=0;00:00:00.240=1</property>
    <property name="kdenlive:collapsed">0</property>
   </filter>
   <filter id="filter1697" in="00:00:20.600" out="00:00:21.520">
    <property name="start">1</property>
    <property name="level">1</property>
    <property name="mlt_service">brightness</property>
    <property name="kdenlive_id">fade_to_black</property>
    <property name="alpha">00:00:00.000=1;00:00:00.920=0</property>
    <property name="kdenlive:collapsed">0</property>
   </filter>
  </entry>
  <blank length="00:00:23.280"/>
  <entry producer="chain451" in="00:10:10.080" out="00:10:27.360">
   <property name="kdenlive:id">232</property>
   <filter id="filter1698">
    <property name="rotate_center">1</property>
    <property name="mlt_service">qtblend</property>
    <property name="kdenlive_id">qtblend</property>
    <property name="rect">00:10:10.080=320 180 1279 719 1.000000</property>
    <property name="rotation">00:10:10.080=0</property>
    <property name="compositing">0</property>
    <property name="distort">0</property>
    <property name="kdenlive:collapsed">1</property>
   </filter>
   <filter id="filter1699">
    <property name="rotate_center">1</property>
    <property name="mlt_service">qtblend</property>
    <property name="kdenlive_id">qtblend</property>
    <property name="rect">00:10:10.080=0 1080 1920 1080 1.000000;00:10:10.320=0 -55 1920 1080 1.000000;00:10:10.440=0 0 1920 1080 1.000000;00:10:27.000=0 0 1920 1080 1.000000;00:10:27.120=0 53 1920 1080 1.000000;00:10:27.360=0 -1080 1920 1080 1.000000</property>
    <property name="rotation">00:10:10.080=0;00:10:10.320=0;00:10:10.440=0;00:10:27.000=0;00:10:27.120=0;00:10:27.360=0</property>
    <property name="compositing">0</property>
    <property name="distort">0</property>
    <property name="kdenlive:collapsed">0</property>
   </filter>
  </entry>
  <blank length="00:00:07.120"/>
  <entry producer="producer699" in="00:00:00.000" out="00:01:14.560">
   <property name="kdenlive:id">355</property>
   <filter id="filter1700">
    <property name="rotate_center">1</property>
    <property name="mlt_service">qtblend</property>
    <property name="kdenlive_id">qtblend</property>
    <property name="rect">00:00:00.000=0 86 1920 1080 1.000000;00:00:00.240=0 -34 1920 1080 1.000000;00:00:00.360=0 0 1920 1080 1.000000</property>
    <property name="rotation">00:00:00.000=0;00:00:00.240=0;00:00:00.360=0</property>
    <property name="compositing">0</property>
    <property name="distort">0</property>
    <property name="kdenlive:collapsed">0</property>
   </filter>
   <filter id="filter1701" out="00:00:00.240">
    <property name="start">1</property>
    <property name="level">1</property>
    <property name="mlt_service">brightness</property>
    <property name="kdenlive_id">fade_from_black</property>
    <property name="alpha">00:00:00.000=0;00:00:00.240=1</property>
    <property name="kdenlive:collapsed">0</property>
   </filter>
   <filter id="filter1702" in="00:01:13.640" out="00:01:14.560">
    <property name="start">1</property>
    <property name="level">1</property>
    <property name="mlt_service">brightness</property>
    <property name="kdenlive_id">fade_to_black</property>
    <property name="alpha">00:00:00.000=1;00:00:00.920=0</property>
    <property name="kdenlive:collapsed">0</property>
   </filter>
  </entry>
  <blank length="00:00:32.760"/>
  <entry producer="chain452" in="00:00:00.000" out="00:00:03.520">
   <property name="kdenlive:id">817</property>
   <property name="kdenlive:activeeffect">1</property>
   <filter id="filter1703" out="00:00:01.320">
    <property name="start">1</property>
    <property name="level">1</property>
    <property name="mlt_service">brightness</property>
    <property name="kdenlive_id">fade_from_black</property>
    <property name="alpha">00:00:00.000=0;00:00:01.320=1</property>
    <property name="kdenlive:collapsed">0</property>
   </filter>
   <filter id="filter1704">
    <property name="rotate_center">1</property>
    <property name="mlt_service">qtblend</property>
    <property name="kdenlive_id">qtblend</property>
    <property name="rect">00:00:00.000=-143 -80 2207 1241 1.000000</property>
    <property name="rotation">00:00:00.000=0</property>
    <property name="compositing">0</property>
    <property name="distort">0</property>
    <property name="kdenlive:collapsed">0</property>
   </filter>
   <filter id="filter1705" in="00:00:02.240" out="00:00:03.520">
    <property name="start">1</property>
    <property name="level">1</property>
    <property name="mlt_service">brightness</property>
    <property name="kdenlive_id">fade_to_black</property>
    <property name="alpha">00:00:00.000=1;00:00:01.280=0</property>
   </filter>
  </entry>
  <blank length="00:00:04.720"/>
  <entry producer="producer649" in="00:00:00.000" out="00:00:20.120">
   <property name="kdenlive:id">824</property>
   <filter id="filter1706">
    <property name="rotate_center">1</property>
    <property name="mlt_service">qtblend</property>
    <property name="kdenlive_id">qtblend</property>
    <property name="rect">00:00:00.000=0 86 1920 1080 1.000000;00:00:00.240=0 -34 1920 1080 1.000000;00:00:00.360=0 0 1920 1080 1.000000</property>
    <property name="rotation">00:00:00.000=0;00:00:00.240=0;00:00:00.360=0</property>
    <property name="compositing">0</property>
    <property name="distort">0</property>
    <property name="kdenlive:collapsed">0</property>
   </filter>
   <filter id="filter1707" out="00:00:00.240">
    <property name="start">1</property>
    <property name="level">1</property>
    <property name="mlt_service">brightness</property>
    <property name="kdenlive_id">fade_from_black</property>
    <property name="alpha">00:00:00.000=0;00:00:00.240=1</property>
    <property name="kdenlive:collapsed">1</property>
   </filter>
   <filter id="filter1708" in="00:00:19.200" out="00:00:20.120">
    <property name="start">1</property>
    <property name="level">1</property>
    <property name="mlt_service">brightness</property>
    <property name="kdenlive_id">fade_to_black</property>
    <property name="alpha">00:00:00.000=1;00:00:00.920=0</property>
    <property name="kdenlive:collapsed">1</property>
   </filter>
  </entry>
  <blank length="00:00:19.680"/>
  <entry producer="chain453" in="00:01:58.440" out="00:02:28.080">
   <property name="kdenlive:id">833</property>
   <property name="kdenlive:activeeffect">1</property>
   <filter id="filter1709">
    <property name="rotate_center">1</property>
    <property name="mlt_service">qtblend</property>
    <property name="kdenlive_id">qtblend</property>
    <property name="rect">00:01:58.440=320 180 1279 719 1.000000</property>
    <property name="rotation">00:01:58.440=0</property>
    <property name="compositing">0</property>
    <property name="distort">0</property>
    <property name="kdenlive:collapsed">1</property>
   </filter>
   <filter id="filter1710">
    <property name="rotate_center">1</property>
    <property name="mlt_service">qtblend</property>
    <property name="kdenlive_id">qtblend</property>
    <property name="rect">00:01:58.440=0 1080 1920 1080 1.000000;00:01:58.680=0 -59 1920 1080 1.000000;00:01:58.800=0 0 1920 1080 1.000000;00:02:27.720=0 0 1920 1080 1.000000;00:02:27.840=0 66 1920 1080 1.000000;00:02:28.080=0 -1080 1920 1080 1.000000</property>
    <property name="rotation">00:01:58.440=0;00:01:58.680=0;00:01:58.800=0;00:02:27.720=0;00:02:27.840=0;00:02:28.080=0</property>
    <property name="compositing">0</property>
    <property name="distort">0</property>
    <property name="kdenlive:collapsed">0</property>
   </filter>
  </entry>
  <blank length="00:00:04.120"/>
  <entry producer="producer557" in="00:00:00.000" out="00:00:06.000">
   <property name="kdenlive:id">660</property>
   <filter id="filter1711">
    <property name="rotate_center">1</property>
    <property name="mlt_service">qtblend</property>
    <property name="kdenlive_id">qtblend</property>
    <property name="rect">00:00:00.000=0 0 1920 1080 1.000000;00:00:06.000=0 0 1920 1080 1.000000</property>
    <property name="rotation">00:00:00.000=0;00:00:06.000=0</property>
    <property name="compositing">0</property>
    <property name="distort">0</property>
    <property name="kdenlive:collapsed">0</property>
   </filter>
  </entry>
  <entry producer="producer557" in="00:00:00.000" out="00:00:00.400">
   <property name="kdenlive:id">660</property>
   <filter id="filter1712">
    <property name="rotate_center">1</property>
    <property name="mlt_service">qtblend</property>
    <property name="kdenlive_id">qtblend</property>
    <property name="rect">00:00:00.000=0 0 1920 1080 1.000000;00:00:00.040=0 0 1920 1080 1.000000;00:00:00.160=0 45 1920 1080 1.000000;00:00:00.400=0 -1080 1920 1080 1.000000</property>
    <property name="rotation">00:00:00.000=0;00:00:00.040=0;00:00:00.160=0;00:00:00.400=0</property>
    <property name="compositing">0</property>
    <property name="distort">0</property>
    <property name="kdenlive:collapsed">0</property>
   </filter>
  </entry>
  <blank length="00:00:20.720"/>
  <entry producer="producer699" in="00:00:00.000" out="00:00:13.480">
   <property name="kdenlive:id">355</property>
   <filter id="filter1713">
    <property name="rotate_center">1</property>
    <property name="mlt_service">qtblend</property>
    <property name="kdenlive_id">qtblend</property>
    <property name="rect">00:00:00.000=0 86 1920 1080 1.000000;00:00:00.240=0 -34 1920 1080 1.000000;00:00:00.360=0 0 1920 1080 1.000000</property>
    <property name="rotation">00:00:00.000=0;00:00:00.240=0;00:00:00.360=0</property>
    <property name="compositing">0</property>
    <property name="distort">0</property>
    <property name="kdenlive:collapsed">0</property>
   </filter>
   <filter id="filter1714" out="00:00:00.240">
    <property name="start">1</property>
    <property name="level">1</property>
    <property name="mlt_service">brightness</property>
    <property name="kdenlive_id">fade_from_black</property>
    <property name="alpha">00:00:00.000=0;00:00:00.240=1</property>
    <property name="kdenlive:collapsed">0</property>
   </filter>
   <filter id="filter1715" in="00:00:12.600" out="00:00:13.520">
    <property name="start">1</property>
    <property name="level">1</property>
    <property name="mlt_service">brightness</property>
    <property name="kdenlive_id">fade_to_black</property>
    <property name="alpha">00:00:00.000=1;00:00:00.920=0</property>
    <property name="kdenlive:collapsed">0</property>
   </filter>
  </entry>
  <blank length="00:00:23.640"/>
  <entry producer="producer699" in="00:00:00.000" out="00:01:11.560">
   <property name="kdenlive:id">355</property>
   <filter id="filter1716">
    <property name="rotate_center">1</property>
    <property name="mlt_service">qtblend</property>
    <property name="kdenlive_id">qtblend</property>
    <property name="rect">00:00:00.000=0 86 1920 1080 1.000000;00:00:00.240=0 -34 1920 1080 1.000000;00:00:00.360=0 0 1920 1080 1.000000</property>
    <property name="rotation">00:00:00.000=0;00:00:00.240=0;00:00:00.360=0</property>
    <property name="compositing">0</property>
    <property name="distort">0</property>
    <property name="kdenlive:collapsed">0</property>
   </filter>
   <filter id="filter1717" out="00:00:00.240">
    <property name="start">1</property>
    <property name="level">1</property>
    <property name="mlt_service">brightness</property>
    <property name="kdenlive_id">fade_from_black</property>
    <property name="alpha">00:00:00.000=0;00:00:00.240=1</property>
    <property name="kdenlive:collapsed">0</property>
   </filter>
   <filter id="filter1718" in="00:01:10.680" out="00:01:11.600">
    <property name="start">1</property>
    <property name="level">1</property>
    <property name="mlt_service">brightness</property>
    <property name="kdenlive_id">fade_to_black</property>
    <property name="alpha">00:00:00.000=1;00:00:00.920=0</property>
    <property name="kdenlive:collapsed">0</property>
   </filter>
  </entry>
  <blank length="00:00:24.680"/>
  <entry producer="chain454" in="00:00:14.000" out="00:00:35.600">
   <property name="kdenlive:id">24</property>
   <property name="kdenlive:activeeffect">2</property>
   <filter id="filter1719">
    <property name="version">0.2</property>
    <property name="mlt_service">frei0r.contrast0r</property>
    <property name="kdenlive_id">frei0r.contrast0r</property>
    <property name="Contrast">00:00:14.000=0.86</property>
    <property name="kdenlive:collapsed">1</property>
    <properties name="ctor-0x7f4fe07f86c0"/>
    <properties name="ctor-0x7f51052236c0"/>
    <properties name="ctor-0x7f5023fff6c0"/>
    <properties name="ctor-0x7f519c83c6c0"/>
    <properties name="ctor-0x7f51ddca46c0"/>
    <properties name="ctor-0x7f4f017fa6c0"/>
   </filter>
   <filter id="filter1720">
    <property name="delta">00:00:14.000=28</property>
    <property name="every">00:00:14.000=20</property>
    <property name="brightnessdelta_up">00:00:14.000=26</property>
    <property name="brightnessdelta_down">00:00:14.000=37</property>
    <property name="brightnessdelta_every">00:00:14.000=70</property>
    <property name="unevendevelop_up">00:00:14.000=60</property>
    <property name="unevendevelop_down">00:00:14.000=20</property>
    <property name="unevendevelop_duration">00:00:14.000=70</property>
    <property name="mlt_service">oldfilm</property>
    <property name="kdenlive_id">oldfilm</property>
    <property name="kdenlive:collapsed">1</property>
   </filter>
   <filter id="filter1721">
    <property name="rotate_center">1</property>
    <property name="mlt_service">qtblend</property>
    <property name="kdenlive_id">qtblend</property>
    <property name="rect">00:00:14.000=320 180 1279 719 1.000000</property>
    <property name="rotation">00:00:14.000=0</property>
    <property name="compositing">0</property>
    <property name="distort">0</property>
    <property name="kdenlive:collapsed">1</property>
   </filter>
   <filter id="filter1722">
    <property name="rotate_center">1</property>
    <property name="mlt_service">qtblend</property>
    <property name="kdenlive_id">qtblend</property>
    <property name="rect">00:00:14.000=0 1080 1920 1080 1.000000;00:00:14.240=0 -43 1920 1080 1.000000;00:00:14.360=0 0 1920 1080 1.000000;00:00:35.240=0 0 1920 1080 1.000000;00:00:35.360=0 66 1920 1080 1.000000;00:00:35.600=0 -1080 1920 1080 1.000000</property>
    <property name="rotation">00:00:14.000=0;00:00:14.240=0;00:00:14.360=0;00:00:35.240=0;00:00:35.360=0;00:00:35.600=0</property>
    <property name="compositing">0</property>
    <property name="distort">0</property>
    <property name="kdenlive:collapsed">0</property>
   </filter>
  </entry>
  <blank length="00:00:10.280"/>
  <entry producer="chain455" in="00:00:00.000" out="00:00:18.680">
   <property name="kdenlive:id">851</property>
   <filter id="filter1723" out="00:00:01.560">
    <property name="start">1</property>
    <property name="level">1</property>
    <property name="mlt_service">brightness</property>
    <property name="kdenlive_id">fade_from_black</property>
    <property name="alpha">00:00:00.000=0;00:00:01.560=1</property>
    <property name="kdenlive:collapsed">0</property>
   </filter>
  </entry>
  <blank length="00:01:20.520"/>
  <entry producer="chain456" in="00:00:51.440" out="00:01:01.360">
   <property name="kdenlive:id">884</property>
   <property name="kdenlive:activeeffect">1</property>
   <filter id="filter1724">
    <property name="rotate_center">1</property>
    <property name="mlt_service">qtblend</property>
    <property name="kdenlive_id">qtblend</property>
    <property name="rect">00:00:51.440=320 180 1279 719 1.000000</property>
    <property name="rotation">00:00:51.440=0</property>
    <property name="compositing">0</property>
    <property name="distort">0</property>
    <property name="kdenlive:collapsed">1</property>
   </filter>
   <filter id="filter1725">
    <property name="rotate_center">1</property>
    <property name="mlt_service">qtblend</property>
    <property name="kdenlive_id">qtblend</property>
    <property name="rect">00:00:51.440=0 1080 1920 1080 1.000000;00:00:51.680=0 -65 1920 1080 1.000000;00:00:51.800=0 0 1920 1080 1.000000;00:01:01.000=0 0 1920 1080 1.000000;00:01:01.120=0 59 1920 1080 1.000000;00:01:01.360=0 -1080 1920 1080 1.000000</property>
    <property name="rotation">00:00:51.440=0;00:00:51.680=0;00:00:51.800=0;00:01:01.000=0;00:01:01.120=0;00:01:01.360=0</property>
    <property name="compositing">0</property>
    <property name="distort">0</property>
    <property name="kdenlive:collapsed">0</property>
   </filter>
  </entry>
  <blank length="00:00:25.800"/>
  <entry producer="producer699" in="00:00:00.000" out="00:00:36.360">
   <property name="kdenlive:id">355</property>
   <filter id="filter1726">
    <property name="rotate_center">1</property>
    <property name="mlt_service">qtblend</property>
    <property name="kdenlive_id">qtblend</property>
    <property name="rect">00:00:00.000=0 86 1920 1080 1.000000;00:00:00.240=0 -34 1920 1080 1.000000;00:00:00.360=0 0 1920 1080 1.000000</property>
    <property name="rotation">00:00:00.000=0;00:00:00.240=0;00:00:00.360=0</property>
    <property name="compositing">0</property>
    <property name="distort">0</property>
    <property name="kdenlive:collapsed">0</property>
   </filter>
   <filter id="filter1727" out="00:00:00.240">
    <property name="start">1</property>
    <property name="level">1</property>
    <property name="mlt_service">brightness</property>
    <property name="kdenlive_id">fade_from_black</property>
    <property name="alpha">00:00:00.000=0;00:00:00.240=1</property>
    <property name="kdenlive:collapsed">0</property>
   </filter>
   <filter id="filter1728" in="00:00:35.480" out="00:00:36.400">
    <property name="start">1</property>
    <property name="level">1</property>
    <property name="mlt_service">brightness</property>
    <property name="kdenlive_id">fade_to_black</property>
    <property name="alpha">00:00:00.000=1;00:00:00.920=0</property>
    <property name="kdenlive:collapsed">0</property>
   </filter>
  </entry>
 </playlist>
 <playlist id="playlist19"/>
 <tractor id="tractor9" in="00:00:00.000" out="01:12:45.280">
  <property name="kdenlive:trackheight">67</property>
  <property name="kdenlive:timeline_active">1</property>
  <property name="kdenlive:collapsed">0</property>
  <property name="kdenlive:thumbs_format"/>
  <property name="kdenlive:audio_rec"/>
  <track hide="audio" producer="playlist18"/>
  <track hide="audio" producer="playlist19"/>
 </tractor>
 <producer id="producer709" in="00:00:00.000" out="00:00:29.640">
  <property name="length">742</property>
  <property name="eof">pause</property>
  <property name="resource">/home/liquidzulu/Pictures/yt/animation/output/project/squiggly-two-thirds/.all.png</property>
  <property name="ttl">1</property>
  <property name="aspect_ratio">1</property>
  <property name="progressive">1</property>
  <property name="seekable">1</property>
  <property name="format">2</property>
  <property name="meta.media.width">1920</property>
  <property name="meta.media.height">1080</property>
  <property name="mlt_service">qimage</property>
  <property name="kdenlive:clipname">Squiggly Border</property>
  <property name="low-pass">0</property>
  <property name="animation"/>
  <property name="luma_file"/>
  <property name="luma_duration">25</property>
  <property name="fade">0</property>
  <property name="crop">0</property>
  <property name="softness">0</property>
  <property name="loop">1</property>
  <property name="kdenlive:duration">00:00:12:08</property>
  <property name="kdenlive:folderid">218</property>
  <property name="kdenlive:id">231</property>
  <property name="kdenlive:clip_type">2</property>
  <property name="kdenlive:file_hash">98ba2f58a7b8ff51461b91634c07a5c8</property>
  <property name="xml">was here</property>
  <property name="set.test_audio">1</property>
  <property name="set.test_image">0</property>
 </producer>
 <producer id="producer710" in="00:00:00.000" out="00:01:19.800">
  <property name="length">1996</property>
  <property name="eof">pause</property>
  <property name="resource">/home/liquidzulu/Pictures/yt/animation/output/project/quote/.all.png</property>
  <property name="ttl">1</property>
  <property name="aspect_ratio">1</property>
  <property name="progressive">1</property>
  <property name="seekable">1</property>
  <property name="format">2</property>
  <property name="meta.media.width">1920</property>
  <property name="meta.media.height">1080</property>
  <property name="mlt_service">qimage</property>
  <property name="kdenlive:clipname">quote squiggly</property>
  <property name="low-pass">0</property>
  <property name="animation"/>
  <property name="luma_file"/>
  <property name="luma_duration">25</property>
  <property name="fade">0</property>
  <property name="crop">0</property>
  <property name="softness">0</property>
  <property name="loop">1</property>
  <property name="kdenlive:duration">00:00:12:07</property>
  <property name="kdenlive:folderid">-1</property>
  <property name="kdenlive:id">355</property>
  <property name="kdenlive:clip_type">2</property>
  <property name="kdenlive:file_hash">a72510309878a1a9ce8894c74701e9a8</property>
  <property name="xml">was here</property>
  <property name="set.test_audio">1</property>
  <property name="set.test_image">0</property>
 </producer>
 <chain id="chain457" out="00:16:49.280">
  <property name="length">25233</property>
  <property name="eof">pause</property>
  <property name="resource">b-roll/FIVERR Vs AI - Is this the END for ARTISTSï¼Ÿ... [5GO2xKmZsVo].webm</property>
  <property name="mlt_service">avformat-novalidate</property>
  <property name="seekable">1</property>
  <property name="format">3</property>
  <property name="audio_index">-1</property>
  <property name="video_index">0</property>
  <property name="kdenlive:clipname"/>
  <property name="kdenlive:clip_type">0</property>
  <property name="kdenlive:folderid">14</property>
  <property name="kdenlive:id">362</property>
  <property name="kdenlive:file_size">215803405</property>
  <property name="kdenlive:file_hash">7a307b29baf2841c0c40f2c027416198</property>
  <property name="kdenlive:audio_max1">201</property>
  <property name="kdenlive:active_streams">-1</property>
  <property name="set.test_audio">1</property>
  <property name="meta.media.nb_streams">2</property>
  <property name="meta.media.0.stream.type">video</property>
  <property name="meta.media.0.stream.frame_rate">29.9721</property>
  <property name="meta.media.0.stream.sample_aspect_ratio">1</property>
  <property name="meta.media.0.codec.width">1920</property>
  <property name="meta.media.0.codec.height">1080</property>
  <property name="meta.media.0.codec.rotate">0</property>
  <property name="meta.media.0.codec.pix_fmt">yuv420p</property>
  <property name="meta.media.0.codec.sample_aspect_ratio">0</property>
  <property name="meta.media.0.codec.colorspace">709</property>
  <property name="meta.media.0.codec.color_trc">1</property>
  <property name="meta.media.0.codec.name">vp9</property>
  <property name="meta.media.0.codec.long_name">Google VP9</property>
  <property name="meta.media.0.codec.bit_rate">0</property>
  <property name="meta.attr.0.stream.HANDLER_NAME.markup">ISO Media file produced by Google Inc. Created on: 12/13/2023.</property>
  <property name="meta.attr.0.stream.VENDOR_ID.markup">[0][0][0][0]</property>
  <property name="meta.attr.0.stream.DURATION.markup">00:16:49.274000000</property>
  <property name="meta.media.1.stream.type">audio</property>
  <property name="meta.media.1.codec.sample_fmt">fltp</property>
  <property name="meta.media.1.codec.sample_rate">48000</property>
  <property name="meta.media.1.codec.channels">2</property>
  <property name="meta.media.1.codec.name">opus</property>
  <property name="meta.media.1.codec.long_name">Opus</property>
  <property name="meta.media.1.codec.bit_rate">0</property>
  <property name="meta.attr.1.stream.language.markup">eng</property>
  <property name="meta.attr.1.stream.DURATION.markup">00:16:49.301000000</property>
  <property name="meta.attr.COMPATIBLE_BRANDS.markup">iso6mp41</property>
  <property name="meta.attr.MAJOR_BRAND.markup">dash</property>
  <property name="meta.attr.MINOR_VERSION.markup">0</property>
  <property name="meta.attr.ENCODER.markup">Lavf59.27.100</property>
  <property name="meta.media.sample_aspect_num">1</property>
  <property name="meta.media.sample_aspect_den">1</property>
  <property name="meta.media.frame_rate_num">28983</property>
  <property name="meta.media.frame_rate_den">967</property>
  <property name="meta.media.colorspace">709</property>
  <property name="meta.media.color_trc">1</property>
  <property name="meta.media.has_b_frames">0</property>
  <property name="meta.media.width">1920</property>
  <property name="meta.media.height">1080</property>
  <property name="meta.media.color_range">mpeg</property>
  <property name="xml">was here</property>
  <property name="meta.media.top_field_first">0</property>
  <property name="meta.media.progressive">1</property>
  <property name="set.test_image">0</property>
  <property name="mute_on_pause">1</property>
 </chain>
 <chain id="chain458" out="02:18:58.840">
  <property name="length">208472</property>
  <property name="eof">pause</property>
  <property name="resource">b-roll/AI ART ftï¼š Istebrak, Steven Zapata, Hardy Fowler, Kelsey Rodriguez, Tyler Edlin &amp; Antonio Stappaerts [5JaS7APpO8U].webm</property>
  <property name="mlt_service">avformat-novalidate</property>
  <property name="seekable">1</property>
  <property name="format">3</property>
  <property name="audio_index">1</property>
  <property name="video_index">0</property>
  <property name="kdenlive:clipname"/>
  <property name="kdenlive:clip_type">0</property>
  <property name="kdenlive:folderid">14</property>
  <property name="kdenlive:id">6</property>
  <property name="kdenlive:file_size">845877288</property>
  <property name="kdenlive:file_hash">57847912f2775f5fab12884262152e3d</property>
  <property name="kdenlive:audio_max1">192</property>
  <property name="meta.media.nb_streams">2</property>
  <property name="meta.media.0.stream.type">video</property>
  <property name="meta.media.0.stream.frame_rate">25</property>
  <property name="meta.media.0.stream.sample_aspect_ratio">1</property>
  <property name="meta.media.0.codec.width">1920</property>
  <property name="meta.media.0.codec.height">1080</property>
  <property name="meta.media.0.codec.rotate">0</property>
  <property name="meta.media.0.codec.pix_fmt">yuv420p</property>
  <property name="meta.media.0.codec.sample_aspect_ratio">0</property>
  <property name="meta.media.0.codec.colorspace">709</property>
  <property name="meta.media.0.codec.color_trc">1</property>
  <property name="meta.media.0.codec.name">vp9</property>
  <property name="meta.media.0.codec.long_name">Google VP9</property>
  <property name="meta.media.0.codec.bit_rate">0</property>
  <property name="meta.attr.0.stream.HANDLER_NAME.markup">ISO Media file produced by Google Inc. Created on: 12/09/2023.</property>
  <property name="meta.attr.0.stream.VENDOR_ID.markup">[0][0][0][0]</property>
  <property name="meta.attr.0.stream.DURATION.markup">02:18:58.840000000</property>
  <property name="meta.media.1.stream.type">audio</property>
  <property name="meta.media.1.codec.sample_fmt">fltp</property>
  <property name="meta.media.1.codec.sample_rate">48000</property>
  <property name="meta.media.1.codec.channels">2</property>
  <property name="meta.media.1.codec.name">opus</property>
  <property name="meta.media.1.codec.long_name">Opus</property>
  <property name="meta.media.1.codec.bit_rate">0</property>
  <property name="meta.attr.1.stream.language.markup">eng</property>
  <property name="meta.attr.1.stream.DURATION.markup">02:18:58.881000000</property>
  <property name="meta.attr.COMPATIBLE_BRANDS.markup">iso6mp41</property>
  <property name="meta.attr.MAJOR_BRAND.markup">dash</property>
  <property name="meta.attr.MINOR_VERSION.markup">0</property>
  <property name="meta.attr.ENCODER.markup">Lavf59.27.100</property>
  <property name="meta.media.sample_aspect_num">1</property>
  <property name="meta.media.sample_aspect_den">1</property>
  <property name="meta.media.frame_rate_num">25</property>
  <property name="meta.media.frame_rate_den">1</property>
  <property name="meta.media.colorspace">709</property>
  <property name="meta.media.color_trc">1</property>
  <property name="meta.media.has_b_frames">0</property>
  <property name="meta.media.width">1920</property>
  <property name="meta.media.height">1080</property>
  <property name="meta.media.color_range">mpeg</property>
  <property name="xml">was here</property>
  <property name="meta.media.top_field_first">0</property>
  <property name="meta.media.progressive">1</property>
  <property name="set.test_audio">1</property>
  <property name="set.test_image">0</property>
  <property name="mute_on_pause">1</property>
 </chain>
 <producer id="producer711" in="00:00:00.000" out="00:00:19.680">
  <property name="length">00:00:19.720</property>
  <property name="eof">pause</property>
  <property name="resource">/home/liquidzulu/Pictures/yt/animation/output/project/footnotes/footnote-18/.all.png</property>
  <property name="ttl">1</property>
  <property name="aspect_ratio">1</property>
  <property name="progressive">1</property>
  <property name="seekable">1</property>
  <property name="format">2</property>
  <property name="meta.media.width">1920</property>
  <property name="meta.media.height">1080</property>
  <property name="mlt_service">qimage</property>
  <property name="kdenlive:clipname">footnote-18</property>
  <property name="low-pass">0</property>
  <property name="animation"/>
  <property name="luma_file"/>
  <property name="luma_duration">25</property>
  <property name="fade">0</property>
  <property name="crop">0</property>
  <property name="softness">0</property>
  <property name="loop">0</property>
  <property name="kdenlive:duration">00:00:19:18</property>
  <property name="kdenlive:folderid">-1</property>
  <property name="kdenlive:id">430</property>
  <property name="kdenlive:clip_type">2</property>
  <property name="kdenlive:file_hash">78d1a8849b5dac88e5a3bcab986956d8</property>
  <property name="xml">was here</property>
  <property name="set.test_audio">1</property>
  <property name="set.test_image">0</property>
 </producer>
 <chain id="chain459" out="00:00:09.280">
  <property name="length">233</property>
  <property name="eof">pause</property>
  <property name="resource">/home/liquidzulu/Videos/yt/b-roll/photographer - free stock footage [8SiskJaWXt4].mkv</property>
  <property name="mlt_service">avformat-novalidate</property>
  <property name="seekable">1</property>
  <property name="format">3</property>
  <property name="audio_index">-1</property>
  <property name="video_index">0</property>
  <property name="kdenlive:clipname"/>
  <property name="kdenlive:clip_type">0</property>
  <property name="kdenlive:folderid">-1</property>
  <property name="kdenlive:id">435</property>
  <property name="kdenlive:file_size">1483334</property>
  <property name="kdenlive:file_hash">2b50b004be59619b4a166794f5ee34a7</property>
  <property name="kdenlive:audio_max1">1</property>
  <property name="kdenlive:active_streams">-1</property>
  <property name="set.test_audio">1</property>
  <property name="meta.media.nb_streams">2</property>
  <property name="meta.media.0.stream.type">video</property>
  <property name="meta.media.0.stream.frame_rate">23.976</property>
  <property name="meta.media.0.stream.sample_aspect_ratio">1</property>
  <property name="meta.media.0.codec.width">1920</property>
  <property name="meta.media.0.codec.height">1080</property>
  <property name="meta.media.0.codec.rotate">0</property>
  <property name="meta.media.0.codec.pix_fmt">yuv420p</property>
  <property name="meta.media.0.codec.sample_aspect_ratio">1</property>
  <property name="meta.media.0.codec.colorspace">709</property>
  <property name="meta.media.0.codec.color_trc">1</property>
  <property name="meta.media.0.codec.name">h264</property>
  <property name="meta.media.0.codec.long_name">H.264 / AVC / MPEG-4 AVC / MPEG-4 part 10</property>
  <property name="meta.media.0.codec.bit_rate">0</property>
  <property name="meta.attr.0.stream.HANDLER_NAME.markup">ISO Media file produced by Google Inc.</property>
  <property name="meta.attr.0.stream.VENDOR_ID.markup">[0][0][0][0]</property>
  <property name="meta.attr.0.stream.DURATION.markup">00:00:09.301000000</property>
  <property name="meta.media.1.stream.type">audio</property>
  <property name="meta.media.1.codec.sample_fmt">fltp</property>
  <property name="meta.media.1.codec.sample_rate">48000</property>
  <property name="meta.media.1.codec.channels">2</property>
  <property name="meta.media.1.codec.name">opus</property>
  <property name="meta.media.1.codec.long_name">Opus</property>
  <property name="meta.media.1.codec.bit_rate">0</property>
  <property name="meta.attr.1.stream.language.markup">eng</property>
  <property name="meta.attr.1.stream.DURATION.markup">00:00:09.301000000</property>
  <property name="meta.attr.COMPATIBLE_BRANDS.markup">iso6avc1mp41</property>
  <property name="meta.attr.MAJOR_BRAND.markup">dash</property>
  <property name="meta.attr.MINOR_VERSION.markup">0</property>
  <property name="meta.attr.ENCODER.markup">Lavf59.27.100</property>
  <property name="meta.media.sample_aspect_num">1</property>
  <property name="meta.media.sample_aspect_den">1</property>
  <property name="meta.media.frame_rate_num">24000</property>
  <property name="meta.media.frame_rate_den">1001</property>
  <property name="meta.media.colorspace">709</property>
  <property name="meta.media.color_trc">1</property>
  <property name="meta.media.has_b_frames">1</property>
  <property name="meta.media.width">1920</property>
  <property name="meta.media.height">1080</property>
  <property name="meta.media.color_range">mpeg</property>
  <property name="xml">was here</property>
  <property name="meta.media.top_field_first">0</property>
  <property name="meta.media.progressive">1</property>
  <property name="set.test_image">0</property>
  <property name="mute_on_pause">1</property>
 </chain>
 <producer id="producer712" in="00:00:00.000" out="00:00:19.680">
  <property name="length">00:00:19.720</property>
  <property name="eof">pause</property>
  <property name="resource">/home/liquidzulu/Pictures/yt/animation/output/project/footnotes/footnote-30/.all.png</property>
  <property name="ttl">1</property>
  <property name="aspect_ratio">1</property>
  <property name="progressive">1</property>
  <property name="seekable">1</property>
  <property name="format">2</property>
  <property name="meta.media.width">1920</property>
  <property name="meta.media.height">1080</property>
  <property name="mlt_service">qimage</property>
  <property name="kdenlive:clipname">footnote-30</property>
  <property name="low-pass">0</property>
  <property name="animation"/>
  <property name="luma_file"/>
  <property name="luma_duration">25</property>
  <property name="fade">0</property>
  <property name="crop">0</property>
  <property name="softness">0</property>
  <property name="loop">0</property>
  <property name="kdenlive:duration">00:00:19:18</property>
  <property name="kdenlive:folderid">-1</property>
  <property name="kdenlive:id">556</property>
  <property name="kdenlive:clip_type">2</property>
  <property name="kdenlive:file_hash">65585f1b7967bc9e3e02d3d714e59dbc</property>
  <property name="xml">was here</property>
  <property name="set.test_audio">1</property>
  <property name="set.test_image">0</property>
 </producer>
 <producer id="producer713" in="00:00:00.000" out="00:00:19.680">
  <property name="length">00:00:19.720</property>
  <property name="eof">pause</property>
  <property name="resource">/home/liquidzulu/Pictures/yt/animation/output/project/footnotes/footnote-31/.all.png</property>
  <property name="ttl">1</property>
  <property name="aspect_ratio">1</property>
  <property name="progressive">1</property>
  <property name="seekable">1</property>
  <property name="format">2</property>
  <property name="meta.media.width">1920</property>
  <property name="meta.media.height">1080</property>
  <property name="mlt_service">qimage</property>
  <property name="kdenlive:clipname">footnote-31</property>
  <property name="low-pass">0</property>
  <property name="animation"/>
  <property name="luma_file"/>
  <property name="luma_duration">25</property>
  <property name="fade">0</property>
  <property name="crop">0</property>
  <property name="softness">0</property>
  <property name="loop">0</property>
  <property name="kdenlive:duration">00:00:19:18</property>
  <property name="kdenlive:folderid">-1</property>
  <property name="kdenlive:id">559</property>
  <property name="kdenlive:clip_type">2</property>
  <property name="kdenlive:file_hash">f89de8b449fe65db0544b32bc52ae87f</property>
  <property name="xml">was here</property>
  <property name="set.test_audio">1</property>
  <property name="set.test_image">0</property>
 </producer>
 <chain id="chain460" out="00:03:52.680">
  <property name="length">5818</property>
  <property name="eof">pause</property>
  <property name="resource">b-roll/How to Draw Cubism Art [V15rXg1nJ6w].webm</property>
  <property name="mlt_service">avformat-novalidate</property>
  <property name="seekable">1</property>
  <property name="format">3</property>
  <property name="audio_index">-1</property>
  <property name="video_index">0</property>
  <property name="kdenlive:clipname"/>
  <property name="kdenlive:clip_type">0</property>
  <property name="kdenlive:folderid">14</property>
  <property name="kdenlive:id">592</property>
  <property name="kdenlive:file_size">25976540</property>
  <property name="kdenlive:file_hash">f5c9a4e46e9a07515ecf1bf56e545d48</property>
  <property name="kdenlive:audio_max1">185</property>
  <property name="kdenlive:active_streams">-1</property>
  <property name="set.test_audio">1</property>
  <property name="meta.media.nb_streams">2</property>
  <property name="meta.media.0.stream.type">video</property>
  <property name="meta.media.0.stream.frame_rate">23.976</property>
  <property name="meta.media.0.stream.sample_aspect_ratio">1</property>
  <property name="meta.media.0.codec.width">1280</property>
  <property name="meta.media.0.codec.height">720</property>
  <property name="meta.media.0.codec.rotate">0</property>
  <property name="meta.media.0.codec.pix_fmt">yuv420p</property>
  <property name="meta.media.0.codec.sample_aspect_ratio">0</property>
  <property name="meta.media.0.codec.colorspace">709</property>
  <property name="meta.media.0.codec.color_trc">1</property>
  <property name="meta.media.0.codec.name">vp9</property>
  <property name="meta.media.0.codec.long_name">Google VP9</property>
  <property name="meta.media.0.codec.bit_rate">0</property>
  <property name="meta.attr.0.stream.language.markup">eng</property>
  <property name="meta.attr.0.stream.DURATION.markup">00:03:52.690000000</property>
  <property name="meta.media.1.stream.type">audio</property>
  <property name="meta.media.1.codec.sample_fmt">fltp</property>
  <property name="meta.media.1.codec.sample_rate">48000</property>
  <property name="meta.media.1.codec.channels">2</property>
  <property name="meta.media.1.codec.name">opus</property>
  <property name="meta.media.1.codec.long_name">Opus</property>
  <property name="meta.media.1.codec.bit_rate">0</property>
  <property name="meta.attr.1.stream.language.markup">eng</property>
  <property name="meta.attr.1.stream.DURATION.markup">00:03:52.721000000</property>
  <property name="meta.attr.ENCODER.markup">Lavf59.27.100</property>
  <property name="meta.media.sample_aspect_num">1</property>
  <property name="meta.media.sample_aspect_den">1</property>
  <property name="meta.media.frame_rate_num">24000</property>
  <property name="meta.media.frame_rate_den">1001</property>
  <property name="meta.media.colorspace">709</property>
  <property name="meta.media.color_trc">1</property>
  <property name="meta.media.has_b_frames">0</property>
  <property name="meta.media.width">1280</property>
  <property name="meta.media.height">720</property>
  <property name="meta.media.color_range">mpeg</property>
  <property name="xml">was here</property>
  <property name="meta.media.top_field_first">0</property>
  <property name="meta.media.progressive">1</property>
  <property name="set.test_image">0</property>
  <property name="mute_on_pause">1</property>
 </chain>
 <producer id="producer714" in="00:00:00.000" out="00:00:19.680">
  <property name="length">00:00:19.720</property>
  <property name="eof">pause</property>
  <property name="resource">/home/liquidzulu/Pictures/yt/animation/output/project/footnotes/footnote-42/.all.png</property>
  <property name="ttl">1</property>
  <property name="aspect_ratio">1</property>
  <property name="progressive">1</property>
  <property name="seekable">1</property>
  <property name="format">2</property>
  <property name="meta.media.width">1920</property>
  <property name="meta.media.height">1080</property>
  <property name="mlt_service">qimage</property>
  <property name="kdenlive:clipname">footnote-42</property>
  <property name="low-pass">0</property>
  <property name="animation"/>
  <property name="luma_file"/>
  <property name="luma_duration">25</property>
  <property name="fade">0</property>
  <property name="crop">0</property>
  <property name="softness">0</property>
  <property name="loop">0</property>
  <property name="kdenlive:duration">00:00:19:18</property>
  <property name="kdenlive:folderid">-1</property>
  <property name="kdenlive:id">615</property>
  <property name="kdenlive:clip_type">2</property>
  <property name="kdenlive:file_hash">776900fb349b0acf4ef5a72043f674ea</property>
  <property name="xml">was here</property>
  <property name="set.test_audio">1</property>
  <property name="set.test_image">0</property>
 </producer>
 <producer id="producer715" in="00:00:00.000" out="00:00:19.680">
  <property name="length">00:00:19.720</property>
  <property name="eof">pause</property>
  <property name="resource">/home/liquidzulu/Pictures/yt/animation/output/project/footnotes/footnote-43/%06d.png</property>
  <property name="ttl">1</property>
  <property name="aspect_ratio">1</property>
  <property name="progressive">1</property>
  <property name="seekable">1</property>
  <property name="format">2</property>
  <property name="meta.media.width">1920</property>
  <property name="meta.media.height">1080</property>
  <property name="mlt_service">qimage</property>
  <property name="kdenlive:clipname">footnote-43</property>
  <property name="low-pass">0</property>
  <property name="animation"/>
  <property name="luma_file"/>
  <property name="luma_duration">25</property>
  <property name="fade">0</property>
  <property name="crop">0</property>
  <property name="softness">0</property>
  <property name="loop">0</property>
  <property name="kdenlive:duration">00:00:19:18</property>
  <property name="kdenlive:folderid">273</property>
  <property name="kdenlive:id">616</property>
  <property name="kdenlive:clip_type">2</property>
  <property name="kdenlive:file_hash">c67a8929dd5b25b775f74561f1a4d478</property>
  <property name="xml">was here</property>
  <property name="set.test_audio">1</property>
  <property name="set.test_image">0</property>
 </producer>
 <chain id="chain461" out="00:03:21.360">
  <property name="length">5035</property>
  <property name="eof">pause</property>
  <property name="resource">videos/artstation scrollthrough.mkv</property>
  <property name="mlt_service">avformat-novalidate</property>
  <property name="seekable">1</property>
  <property name="format">3</property>
  <property name="audio_index">-1</property>
  <property name="video_index">0</property>
  <property name="kdenlive:clipname"/>
  <property name="kdenlive:clip_type">0</property>
  <property name="kdenlive:folderid">-1</property>
  <property name="kdenlive:id">617</property>
  <property name="kdenlive:file_size">365884833</property>
  <property name="kdenlive:file_hash">5a6fced1ba3cf354007fb562bde2cc3b</property>
  <property name="kdenlive:audio_max1">104</property>
  <property name="kdenlive:active_streams">-1</property>
  <property name="set.test_audio">1</property>
  <property name="meta.media.nb_streams">2</property>
  <property name="meta.media.0.stream.type">video</property>
  <property name="meta.media.0.stream.frame_rate">60</property>
  <property name="meta.media.0.stream.sample_aspect_ratio">0</property>
  <property name="meta.media.0.codec.width">1920</property>
  <property name="meta.media.0.codec.height">1080</property>
  <property name="meta.media.0.codec.rotate">0</property>
  <property name="meta.media.0.codec.pix_fmt">yuv420p</property>
  <property name="meta.media.0.codec.sample_aspect_ratio">1</property>
  <property name="meta.media.0.codec.colorspace">709</property>
  <property name="meta.media.0.codec.color_trc">1</property>
  <property name="meta.media.0.codec.name">h264</property>
  <property name="meta.media.0.codec.long_name">H.264 / AVC / MPEG-4 AVC / MPEG-4 part 10</property>
  <property name="meta.media.0.codec.bit_rate">0</property>
  <property name="meta.attr.0.stream.DURATION.markup">00:03:21.417000000</property>
  <property name="meta.media.1.stream.type">audio</property>
  <property name="meta.media.1.codec.sample_fmt">fltp</property>
  <property name="meta.media.1.codec.sample_rate">48000</property>
  <property name="meta.media.1.codec.channels">1</property>
  <property name="meta.media.1.codec.name">aac</property>
  <property name="meta.media.1.codec.long_name">AAC (Advanced Audio Coding)</property>
  <property name="meta.media.1.codec.bit_rate">0</property>
  <property name="meta.attr.1.stream.title.markup">simple_aac_recording</property>
  <property name="meta.attr.1.stream.DURATION.markup">00:03:21.386000000</property>
  <property name="meta.attr.ENCODER.markup">Lavf59.27.100</property>
  <property name="meta.media.sample_aspect_num">1</property>
  <property name="meta.media.sample_aspect_den">1</property>
  <property name="meta.media.frame_rate_num">60</property>
  <property name="meta.media.frame_rate_den">1</property>
  <property name="meta.media.colorspace">709</property>
  <property name="meta.media.color_trc">1</property>
  <property name="meta.media.has_b_frames">2</property>
  <property name="meta.media.width">1920</property>
  <property name="meta.media.height">1080</property>
  <property name="meta.media.color_range">mpeg</property>
  <property name="xml">was here</property>
  <property name="meta.media.top_field_first">0</property>
  <property name="meta.media.progressive">1</property>
  <property name="set.test_image">0</property>
  <property name="mute_on_pause">1</property>
 </chain>
 <producer id="producer716" in="00:00:00.000" out="00:00:19.680">
  <property name="length">00:00:19.720</property>
  <property name="eof">pause</property>
  <property name="resource">/home/liquidzulu/Pictures/yt/animation/output/project/footnotes/footnote-51/.all.png</property>
  <property name="ttl">1</property>
  <property name="aspect_ratio">1</property>
  <property name="progressive">1</property>
  <property name="seekable">1</property>
  <property name="format">2</property>
  <property name="meta.media.width">1920</property>
  <property name="meta.media.height">1080</property>
  <property name="mlt_service">qimage</property>
  <property name="kdenlive:clipname">footnote-51</property>
  <property name="low-pass">0</property>
  <property name="animation"/>
  <property name="luma_file"/>
  <property name="luma_duration">25</property>
  <property name="fade">0</property>
  <property name="crop">0</property>
  <property name="softness">0</property>
  <property name="loop">0</property>
  <property name="kdenlive:duration">00:00:19:18</property>
  <property name="kdenlive:folderid">-1</property>
  <property name="kdenlive:id">711</property>
  <property name="kdenlive:clip_type">2</property>
  <property name="kdenlive:file_hash">506882382d6cc52dd228856cdc27b382</property>
  <property name="xml">was here</property>
  <property name="set.test_audio">1</property>
  <property name="set.test_image">0</property>
 </producer>
 <producer id="producer717" in="00:00:00.000" out="00:00:19.680">
  <property name="length">00:00:19.720</property>
  <property name="eof">pause</property>
  <property name="resource">/home/liquidzulu/Pictures/yt/animation/output/project/footnotes/footnote-65/.all.png</property>
  <property name="ttl">1</property>
  <property name="aspect_ratio">1</property>
  <property name="progressive">1</property>
  <property name="seekable">1</property>
  <property name="format">2</property>
  <property name="meta.media.width">1920</property>
  <property name="meta.media.height">1080</property>
  <property name="mlt_service">qimage</property>
  <property name="kdenlive:clipname">footnote-65</property>
  <property name="low-pass">0</property>
  <property name="animation"/>
  <property name="luma_file"/>
  <property name="luma_duration">25</property>
  <property name="fade">0</property>
  <property name="crop">0</property>
  <property name="softness">0</property>
  <property name="loop">0</property>
  <property name="kdenlive:duration">00:00:19:18</property>
  <property name="kdenlive:folderid">-1</property>
  <property name="kdenlive:id">782</property>
  <property name="kdenlive:clip_type">2</property>
  <property name="kdenlive:file_hash">3d3b1087f9de0c402d8054bd7e0c6706</property>
  <property name="xml">was here</property>
  <property name="set.test_audio">1</property>
  <property name="set.test_image">0</property>
 </producer>
 <producer id="producer718" in="00:00:00.000" out="00:01:23.720">
  <property name="length">00:01:23.760</property>
  <property name="eof">pause</property>
  <property name="resource">citations/citations-roark.png</property>
  <property name="ttl">25</property>
  <property name="aspect_ratio">1</property>
  <property name="progressive">1</property>
  <property name="seekable">1</property>
  <property name="format">2</property>
  <property name="meta.media.width">1920</property>
  <property name="meta.media.height">1080</property>
  <property name="mlt_service">qimage</property>
  <property name="kdenlive:clipname"/>
  <property name="kdenlive:duration">00:00:05.000</property>
  <property name="kdenlive:folderid">234</property>
  <property name="kdenlive:id">852</property>
  <property name="kdenlive:clip_type">2</property>
  <property name="kdenlive:file_size">23254</property>
  <property name="kdenlive:file_hash">098674486296d7cc4658a23441f9f50a</property>
 </producer>
 <producer id="producer719" in="00:00:00.000" out="00:00:38.920">
  <property name="length">974</property>
  <property name="eof">pause</property>
  <property name="resource">quotes/out/abhishek-gupta-c0.png</property>
  <property name="ttl">25</property>
  <property name="aspect_ratio">1</property>
  <property name="progressive">1</property>
  <property name="seekable">1</property>
  <property name="format">2</property>
  <property name="meta.media.width">1920</property>
  <property name="meta.media.height">1080</property>
  <property name="mlt_service">qimage</property>
  <property name="kdenlive:clipname"/>
  <property name="kdenlive:duration">00:00:05:00</property>
  <property name="kdenlive:folderid">345</property>
  <property name="kdenlive:id">893</property>
  <property name="kdenlive:clip_type">2</property>
  <property name="kdenlive:file_size">27731</property>
  <property name="kdenlive:file_hash">ee06eb4d5f0fd74343ba4d8818f61de4</property>
 </producer>
 <playlist id="playlist20">
  <blank length="00:01:55.840"/>
  <entry producer="producer390" in="00:00:00.000" out="00:00:05.200">
   <property name="kdenlive:id">248</property>
   <filter id="filter1729">
    <property name="rotate_center">1</property>
    <property name="mlt_service">qtblend</property>
    <property name="kdenlive_id">qtblend</property>
    <property name="rect">00:00:00.000=433 399 19 10 1.000000;00:00:00.240=195 265 496 279 1.000000;00:00:00.360=243 292 400 225 1.000000;00:00:01.200=243 292 400 225 1.000000;00:00:01.720=974 189 400 225 1.000000;00:00:02.160=974 189 400 225 1.000000;00:00:02.320=1372 172 400 225 1.000000;00:00:03.000=1372 172 400 225 1.000000;00:00:03.760=197 292 400 225 1.000000;00:00:04.840=197 292 400 225 1.000000;00:00:04.960=149 265 496 279 1.000000;00:00:05.200=387 399 19 10 1.000000</property>
    <property name="rotation">00:00:00.000=-41;00:00:00.240=-41;00:00:00.360=-41;00:00:01.200=-41;00:00:01.720=-99;00:00:02.160=-99;00:00:02.320=-99;00:00:03.000=-99;00:00:03.760=-61;00:00:04.840=-61;00:00:04.960=-61;00:00:05.200=-61</property>
    <property name="compositing">0</property>
    <property name="distort">0</property>
    <property name="kdenlive:collapsed">0</property>
   </filter>
  </entry>
  <blank length="00:00:36.160"/>
  <entry producer="producer709" in="00:00:00.000" out="00:00:11.360">
   <property name="kdenlive:id">231</property>
   <filter id="filter1730">
    <property name="rotate_center">1</property>
    <property name="mlt_service">qtblend</property>
    <property name="kdenlive_id">qtblend</property>
    <property name="rect">00:00:00.000=0 -1070 1920 1080 1.000000;00:00:00.240=0 38 1920 1080 1.000000;00:00:00.360=0 0 1920 1080 1.000000;00:00:11.000=0 0 1920 1080 1.000000;00:00:11.120=0 -51 1920 1080 1.000000;00:00:11.360=0 1085 1920 1080 1.000000</property>
    <property name="rotation">00:00:00.000=0;00:00:00.240=0;00:00:00.360=0;00:00:11.000=0;00:00:11.120=0;00:00:11.360=0</property>
    <property name="compositing">0</property>
    <property name="distort">0</property>
    <property name="kdenlive:collapsed">0</property>
   </filter>
  </entry>
  <blank length="00:00:22.960"/>
  <entry producer="producer251" in="00:00:00.000" out="00:00:04.960">
   <property name="kdenlive:id">253</property>
   <filter id="filter1731">
    <property name="rotate_center">1</property>
    <property name="mlt_service">qtblend</property>
    <property name="kdenlive_id">qtblend</property>
    <property name="rect">00:00:00.000=-23 324 759 427 1.000000</property>
    <property name="rotation">00:00:00.000=0</property>
    <property name="compositing">0</property>
    <property name="distort">0</property>
    <property name="kdenlive:collapsed">0</property>
   </filter>
   <filter id="filter1732" out="00:00:00.800">
    <property name="start">1</property>
    <property name="level">1</property>
    <property name="mlt_service">brightness</property>
    <property name="kdenlive_id">fade_from_black</property>
    <property name="alpha">00:00:00.000=0;00:00:00.800=1</property>
    <property name="kdenlive:collapsed">0</property>
   </filter>
  </entry>
  <blank length="00:00:46.240"/>
  <entry producer="producer709" in="00:00:00.000" out="00:00:10.680">
   <property name="kdenlive:id">231</property>
   <filter id="filter1733">
    <property name="rotate_center">1</property>
    <property name="mlt_service">qtblend</property>
    <property name="kdenlive_id">qtblend</property>
    <property name="rect">00:00:00.000=0 1085 1920 1080 1.000000;00:00:00.240=0 -42 1920 1080 1.000000;00:00:00.360=0 0 1920 1080 1.000000;00:00:10.320=0 0 1920 1080 1.000000;00:00:10.440=0 -42 1920 1080 1.000000;00:00:10.680=0 1080 1920 1080 1.000000</property>
    <property name="rotation">00:00:00.000=0;00:00:00.240=0;00:00:00.360=0;00:00:10.320=0;00:00:10.440=0;00:00:10.680=0</property>
    <property name="compositing">0</property>
    <property name="distort">0</property>
    <property name="kdenlive:collapsed">0</property>
   </filter>
  </entry>
  <blank length="00:02:15.040"/>
  <entry producer="producer390" in="00:00:00.000" out="00:00:02.520">
   <property name="kdenlive:id">248</property>
   <filter id="filter1734">
    <property name="rotate_center">1</property>
    <property name="mlt_service">qtblend</property>
    <property name="kdenlive_id">qtblend</property>
    <property name="rect">00:00:00.000=1047 552 19 10 1.000000;00:00:00.240=859 446 397 223 1.000000;00:00:00.360=906 472 302 170 1.000000;00:00:01.240=906 472 302 170 1.000000;00:00:01.400=749 412 302 170 1.000000;00:00:01.560=926 318 302 170 1.000000;00:00:02.160=926 318 302 170 1.000000;00:00:02.280=879 292 397 223 1.000000;00:00:02.520=1067 398 19 10 1.000000</property>
    <property name="rotation">00:00:00.000=-90;00:00:00.240=-90;00:00:00.360=-90;00:00:01.240=-90;00:00:01.400=33;00:00:01.560=152;00:00:02.160=152;00:00:02.280=152;00:00:02.520=152</property>
    <property name="compositing">0</property>
    <property name="distort">0</property>
    <property name="kdenlive:collapsed">0</property>
   </filter>
  </entry>
  <blank length="00:01:56.520"/>
  <entry producer="producer710" in="00:00:00.000" out="00:00:29.360">
   <property name="kdenlive:id">355</property>
   <filter id="filter1735">
    <property name="rotate_center">1</property>
    <property name="mlt_service">qtblend</property>
    <property name="kdenlive_id">qtblend</property>
    <property name="rect">00:00:00.000=0 86 1920 1080 1.000000;00:00:00.240=0 -34 1920 1080 1.000000;00:00:00.360=0 0 1920 1080 1.000000</property>
    <property name="rotation">00:00:00.000=0;00:00:00.240=0;00:00:00.360=0</property>
    <property name="compositing">0</property>
    <property name="distort">0</property>
   </filter>
   <filter id="filter1736" out="00:00:00.240">
    <property name="start">1</property>
    <property name="level">1</property>
    <property name="mlt_service">brightness</property>
    <property name="kdenlive_id">fade_from_black</property>
    <property name="alpha">00:00:00.000=0;00:00:00.240=1</property>
   </filter>
   <filter id="filter1737" in="00:00:28.440" out="00:00:29.360">
    <property name="start">1</property>
    <property name="level">1</property>
    <property name="mlt_service">brightness</property>
    <property name="kdenlive_id">fade_to_black</property>
    <property name="alpha">00:00:00.000=1;00:00:00.920=0</property>
   </filter>
  </entry>
  <blank length="00:00:12.440"/>
  <entry producer="producer709" in="00:00:00.000" out="00:00:08.320">
   <property name="kdenlive:id">231</property>
   <filter id="filter1738">
    <property name="rotate_center">1</property>
    <property name="mlt_service">qtblend</property>
    <property name="kdenlive_id">qtblend</property>
    <property name="rect">00:00:00.000=0 1080 1920 1080 1.000000;00:00:00.240=0 -39 1920 1080 1.000000;00:00:00.360=0 0 1920 1080 1.000000;00:00:07.960=0 0 1920 1080 1.000000;00:00:08.080=0 40 1920 1080 1.000000;00:00:08.320=0 -1080 1920 1080 1.000000</property>
    <property name="rotation">00:00:00.000=0;00:00:00.240=0;00:00:00.360=0;00:00:07.960=0;00:00:08.080=0;00:00:08.320=0</property>
    <property name="compositing">0</property>
    <property name="distort">0</property>
    <property name="kdenlive:collapsed">0</property>
   </filter>
  </entry>
  <blank length="00:00:20.400"/>
  <entry producer="chain457" in="00:08:55.680" out="00:09:29.680">
   <property name="kdenlive:id">362</property>
   <property name="kdenlive:activeeffect">1</property>
   <filter id="filter1739">
    <property name="rotate_center">1</property>
    <property name="mlt_service">qtblend</property>
    <property name="kdenlive_id">qtblend</property>
    <property name="rect">00:08:55.680=321 181 1278 719 1.000000;00:08:55.920=321 181 1278 719 1.000000;00:08:56.040=321 181 1278 719 1.000000</property>
    <property name="rotation">00:08:55.680=0;00:08:55.920=0;00:08:56.040=0</property>
    <property name="compositing">0</property>
    <property name="distort">0</property>
    <property name="kdenlive:collapsed">1</property>
   </filter>
   <filter id="filter1740">
    <property name="rotate_center">1</property>
    <property name="mlt_service">qtblend</property>
    <property name="kdenlive_id">qtblend</property>
    <property name="rect">00:08:55.680=0 1080 1920 1080 1.000000;00:08:56.160=0 -69 1920 1080 1.000000;00:08:56.280=0 0 1920 1080 1.000000;00:09:29.320=0 0 1920 1080 1.000000;00:09:29.440=0 56 1920 1080 1.000000;00:09:29.680=0 -1080 1920 1080 1.000000</property>
    <property name="rotation">00:08:55.680=0;00:08:56.160=0;00:08:56.280=0;00:09:29.320=0;00:09:29.440=0;00:09:29.680=0</property>
    <property name="compositing">0</property>
    <property name="distort">0</property>
    <property name="kdenlive:collapsed">0</property>
   </filter>
  </entry>
  <blank length="00:01:09.040"/>
  <entry producer="producer206" in="00:00:00.000" out="00:00:07.080">
   <property name="kdenlive:id">265</property>
   <filter id="filter1741">
    <property name="rotate_center">1</property>
    <property name="mlt_service">qtblend</property>
    <property name="kdenlive_id">qtblend</property>
    <property name="rect">00:00:00.000=950 535 19 10 1.000000;00:00:00.240=96 54 1728 972 1.000000;00:00:00.360=144 81 1632 918 1.000000;00:00:06.720=96 54 1728 972 1.000000;00:00:06.840=48 27 1824 1026 1.000000;00:00:07.080=950 535 19 10 1.000000</property>
    <property name="rotation">00:00:00.000=0;00:00:00.240=0;00:00:00.360=0;00:00:06.720=0;00:00:06.840=0;00:00:07.080=0</property>
    <property name="compositing">0</property>
    <property name="distort">0</property>
    <property name="kdenlive:collapsed">0</property>
   </filter>
  </entry>
  <blank length="00:00:56.240"/>
  <entry producer="chain458" in="00:02:51.480" out="00:02:51.720">
   <property name="kdenlive:id">6</property>
   <filter id="filter1742">
    <property name="rotate_center">1</property>
    <property name="mlt_service">qtblend</property>
    <property name="kdenlive_id">qtblend</property>
    <property name="rect">00:02:51.480=321 180 1278 719 1.000000</property>
    <property name="rotation">00:02:51.480=0</property>
    <property name="compositing">0</property>
    <property name="distort">0</property>
    <property name="kdenlive:collapsed">1</property>
   </filter>
   <filter id="filter1743">
    <property name="rotate_center">1</property>
    <property name="mlt_service">qtblend</property>
    <property name="kdenlive_id">qtblend</property>
    <property name="rect">00:02:51.480=0 1080 1920 1080 1.000000;00:02:51.720=0 -39 1920 1080 1.000000;00:02:51.840=0 0 1920 1080 1.000000;00:03:00.560~=0 0 1920 1080 1.000000;00:03:00.960~=-528 -297 2976 1674 1.000000</property>
    <property name="rotation">00:02:51.480=0;00:02:51.720=0;00:02:51.840=0;00:03:00.560~=0;00:03:00.960~=0</property>
    <property name="compositing">0</property>
    <property name="distort">0</property>
    <property name="kdenlive:collapsed">0</property>
   </filter>
  </entry>
  <blank length="00:00:09.240"/>
  <entry producer="producer710" in="00:00:00.000" out="00:00:59.960">
   <property name="kdenlive:id">355</property>
   <filter id="filter1744">
    <property name="rotate_center">1</property>
    <property name="mlt_service">qtblend</property>
    <property name="kdenlive_id">qtblend</property>
    <property name="rect">00:00:00.000=0 86 1920 1080 1.000000;00:00:00.240=0 -34 1920 1080 1.000000;00:00:00.360=0 0 1920 1080 1.000000</property>
    <property name="rotation">00:00:00.000=0;00:00:00.240=0;00:00:00.360=0</property>
    <property name="compositing">0</property>
    <property name="distort">0</property>
    <property name="kdenlive:collapsed">0</property>
   </filter>
   <filter id="filter1745" out="00:00:00.240">
    <property name="start">1</property>
    <property name="level">1</property>
    <property name="mlt_service">brightness</property>
    <property name="kdenlive_id">fade_from_black</property>
    <property name="alpha">00:00:00.000=0;00:00:00.240=1</property>
    <property name="kdenlive:collapsed">0</property>
   </filter>
   <filter id="filter1746" in="00:00:59.040" out="00:00:59.960">
    <property name="start">1</property>
    <property name="level">1</property>
    <property name="mlt_service">brightness</property>
    <property name="kdenlive_id">fade_to_black</property>
    <property name="alpha">00:00:00.000=1;00:00:00.920=0</property>
    <property name="kdenlive:collapsed">0</property>
   </filter>
  </entry>
  <blank length="00:01:48.680"/>
  <entry producer="producer710" in="00:00:00.000" out="00:01:19.800">
   <property name="kdenlive:id">355</property>
   <filter id="filter1747">
    <property name="rotate_center">1</property>
    <property name="mlt_service">qtblend</property>
    <property name="kdenlive_id">qtblend</property>
    <property name="rect">00:00:00.000=0 86 1920 1080 1.000000;00:00:00.240=0 -34 1920 1080 1.000000;00:00:00.360=0 0 1920 1080 1.000000</property>
    <property name="rotation">00:00:00.000=0;00:00:00.240=0;00:00:00.360=0</property>
    <property name="compositing">0</property>
    <property name="distort">0</property>
    <property name="kdenlive:collapsed">0</property>
   </filter>
   <filter id="filter1748" out="00:00:00.240">
    <property name="start">1</property>
    <property name="level">1</property>
    <property name="mlt_service">brightness</property>
    <property name="kdenlive_id">fade_from_black</property>
    <property name="alpha">00:00:00.000=0;00:00:00.240=1</property>
    <property name="kdenlive:collapsed">0</property>
   </filter>
   <filter id="filter1749" in="00:01:18.880" out="00:01:19.800">
    <property name="start">1</property>
    <property name="level">1</property>
    <property name="mlt_service">brightness</property>
    <property name="kdenlive_id">fade_to_black</property>
    <property name="alpha">00:00:00.000=1;00:00:00.920=0</property>
    <property name="kdenlive:collapsed">0</property>
   </filter>
  </entry>
  <blank length="00:00:41.520"/>
  <entry producer="producer340" in="00:00:00.000" out="00:00:05.200">
   <property name="kdenlive:id">406</property>
   <filter id="filter1750">
    <property name="rotate_center">1</property>
    <property name="mlt_service">qtblend</property>
    <property name="kdenlive_id">qtblend</property>
    <property name="rect">00:00:00.000=0 1080 1920 1080 1.000000;00:00:00.240=0 -62 1920 1080 1.000000;00:00:00.360=0 0 1920 1080 1.000000;00:00:04.840=0 0 1920 1080 1.000000;00:00:04.960=0 68 1920 1080 1.000000;00:00:05.200=0 -1080 1920 1080 1.000000</property>
    <property name="rotation">00:00:00.000=0;00:00:00.240=0;00:00:00.360=0;00:00:04.840=0;00:00:04.960=0;00:00:05.200=0</property>
    <property name="compositing">0</property>
    <property name="distort">0</property>
   </filter>
  </entry>
  <blank length="00:01:11.800"/>
  <entry producer="producer711" in="00:00:00.000" out="00:00:11.680">
   <property name="kdenlive:id">430</property>
  </entry>
  <entry producer="producer711" in="00:00:16.360" out="00:00:19.680">
   <property name="kdenlive:id">430</property>
  </entry>
  <blank length="00:00:21.560"/>
  <entry producer="producer370" in="00:00:00.000" out="00:00:39.760">
   <property name="kdenlive:id">427</property>
   <property name="kdenlive:activeeffect">1</property>
   <filter id="filter1751" out="00:00:00.240">
    <property name="start">1</property>
    <property name="level">1</property>
    <property name="mlt_service">brightness</property>
    <property name="kdenlive_id">fade_from_black</property>
    <property name="alpha">00:00:00.000=0;00:00:00.240=1</property>
    <property name="kdenlive:collapsed">0</property>
   </filter>
   <filter id="filter1752" in="00:00:38.840" out="00:00:39.760">
    <property name="start">1</property>
    <property name="level">1</property>
    <property name="mlt_service">brightness</property>
    <property name="kdenlive_id">fade_to_black</property>
    <property name="alpha">00:00:00.000=1;00:00:00.920=0</property>
    <property name="kdenlive:collapsed">0</property>
   </filter>
  </entry>
  <blank length="00:00:09.600"/>
  <entry producer="chain459" in="00:00:00.000" out="00:00:05.040">
   <property name="kdenlive:id">435</property>
   <filter id="filter1753">
    <property name="rotate_center">1</property>
    <property name="mlt_service">qtblend</property>
    <property name="kdenlive_id">qtblend</property>
    <property name="rect">00:00:00.000=321 180 1278 719 1.000000</property>
    <property name="rotation">00:00:00.000=0</property>
    <property name="compositing">0</property>
    <property name="distort">0</property>
    <property name="kdenlive:collapsed">1</property>
   </filter>
   <filter id="filter1754">
    <property name="rotate_center">1</property>
    <property name="mlt_service">qtblend</property>
    <property name="kdenlive_id">qtblend</property>
    <property name="rect">00:00:00.000=0 1080 1920 1080 1.000000;00:00:00.240=0 -67 1920 1080 1.000000;00:00:00.360=0 0 1920 1080 1.000000;00:00:04.680=0 0 1920 1080 1.000000;00:00:04.800=0 75 1920 1080 1.000000;00:00:05.040=0 -1080 1920 1080 1.000000</property>
    <property name="rotation">00:00:00.000=0;00:00:00.240=0;00:00:00.360=0;00:00:04.680=0;00:00:04.800=0;00:00:05.040=0</property>
    <property name="compositing">0</property>
    <property name="distort">0</property>
    <property name="kdenlive:collapsed">0</property>
   </filter>
  </entry>
  <blank length="00:00:04.600"/>
  <entry producer="producer709" in="00:00:00.000" out="00:00:04.120">
   <property name="kdenlive:id">231</property>
   <filter id="filter1755">
    <property name="rotate_center">1</property>
    <property name="mlt_service">qtblend</property>
    <property name="kdenlive_id">qtblend</property>
    <property name="rect">00:00:00.000=0 1080 1920 1080 1.000000;00:00:00.240=0 -51 1920 1080 1.000000;00:00:00.360=0 0 1920 1080 1.000000;00:00:03.760=0 0 1920 1080 1.000000;00:00:03.880=0 47 1920 1080 1.000000;00:00:04.120=0 -1080 1920 1080 1.000000</property>
    <property name="rotation">00:00:00.000=0;00:00:00.240=0;00:00:00.360=0;00:00:03.760=0;00:00:03.880=0;00:00:04.120=0</property>
    <property name="compositing">0</property>
    <property name="distort">0</property>
   </filter>
  </entry>
  <blank length="00:00:17.160"/>
  <entry producer="producer382" in="00:00:00.000" out="00:00:54.480">
   <property name="kdenlive:id">451</property>
   <property name="kdenlive:activeeffect">1</property>
   <filter id="filter1756" out="00:00:00.240">
    <property name="start">1</property>
    <property name="level">1</property>
    <property name="mlt_service">brightness</property>
    <property name="kdenlive_id">fade_from_black</property>
    <property name="alpha">0=0;-1=1</property>
    <property name="kdenlive:collapsed">0</property>
   </filter>
   <filter id="filter1757" in="00:00:53.560" out="00:00:54.480">
    <property name="start">1</property>
    <property name="level">1</property>
    <property name="mlt_service">brightness</property>
    <property name="kdenlive_id">fade_to_black</property>
    <property name="alpha">00:00:00.000=1;00:00:00.920=0</property>
    <property name="kdenlive:collapsed">0</property>
   </filter>
  </entry>
  <blank length="00:01:14.680"/>
  <entry producer="producer709" in="00:00:00.000" out="00:00:13.040">
   <property name="kdenlive:id">231</property>
   <filter id="filter1758">
    <property name="rotate_center">1</property>
    <property name="mlt_service">qtblend</property>
    <property name="kdenlive_id">qtblend</property>
    <property name="rect">00:00:00.000=0 1080 1920 1080 1.000000;00:00:00.240=0 -41 1920 1080 1.000000;00:00:00.360=0 0 1920 1080 1.000000;00:00:12.440=0 0 1920 1080 1.000000</property>
    <property name="rotation">00:00:00.000=0;00:00:00.240=0;00:00:00.360=0;00:00:12.440=0</property>
    <property name="compositing">0</property>
    <property name="distort">0</property>
    <property name="kdenlive:collapsed">0</property>
   </filter>
  </entry>
  <entry producer="producer709" in="00:00:00.000" out="00:00:01.320">
   <property name="kdenlive:id">231</property>
   <filter id="filter1759">
    <property name="rotate_center">1</property>
    <property name="mlt_service">qtblend</property>
    <property name="kdenlive_id">qtblend</property>
    <property name="rect">00:00:00.000=0 0 1920 1080 1.000000;00:00:00.960=0 0 1920 1080 1.000000;00:00:01.080=0 33 1920 1080 1.000000;00:00:01.320=0 -1080 1920 1080 1.000000</property>
    <property name="rotation">00:00:00.000=0;00:00:00.960=0;00:00:01.080=0;00:00:01.320=0</property>
    <property name="compositing">0</property>
    <property name="distort">0</property>
    <property name="kdenlive:collapsed">0</property>
   </filter>
  </entry>
  <blank length="00:01:01.800"/>
  <entry producer="producer710" in="00:00:00.000" out="00:01:14.960">
   <property name="kdenlive:id">355</property>
   <filter id="filter1760">
    <property name="rotate_center">1</property>
    <property name="mlt_service">qtblend</property>
    <property name="kdenlive_id">qtblend</property>
    <property name="rect">00:00:00.000=0 86 1920 1080 1.000000;00:00:00.240=0 -34 1920 1080 1.000000;00:00:00.360=0 0 1920 1080 1.000000</property>
    <property name="rotation">00:00:00.000=0;00:00:00.240=0;00:00:00.360=0</property>
    <property name="compositing">0</property>
    <property name="distort">0</property>
    <property name="kdenlive:collapsed">0</property>
   </filter>
   <filter id="filter1761" out="00:00:00.240">
    <property name="start">1</property>
    <property name="level">1</property>
    <property name="mlt_service">brightness</property>
    <property name="kdenlive_id">fade_from_black</property>
    <property name="alpha">00:00:00.000=0;00:00:00.240=1</property>
    <property name="kdenlive:collapsed">0</property>
   </filter>
   <filter id="filter1762" in="00:01:14.040" out="00:01:14.960">
    <property name="start">1</property>
    <property name="level">1</property>
    <property name="mlt_service">brightness</property>
    <property name="kdenlive_id">fade_to_black</property>
    <property name="alpha">00:00:00.000=1;00:00:00.920=0</property>
    <property name="kdenlive:collapsed">0</property>
   </filter>
  </entry>
  <blank length="00:01:12.600"/>
  <entry producer="producer709" in="00:00:00.000" out="00:00:14.720">
   <property name="kdenlive:id">231</property>
   <filter id="filter1763">
    <property name="rotate_center">1</property>
    <property name="mlt_service">qtblend</property>
    <property name="kdenlive_id">qtblend</property>
    <property name="rect">00:00:00.000=0 1080 1920 1080 1.000000;00:00:00.240=0 -41 1920 1080 1.000000;00:00:00.360=0 0 1920 1080 1.000000;00:00:14.360=0 0 1920 1080 1.000000;00:00:14.480=0 63 1920 1080 1.000000;00:00:14.720=0 -1080 1920 1080 1.000000</property>
    <property name="rotation">00:00:00.000=0;00:00:00.240=0;00:00:00.360=0;00:00:14.360=0;00:00:14.480=0;00:00:14.720=0</property>
    <property name="compositing">0</property>
    <property name="distort">0</property>
    <property name="kdenlive:collapsed">0</property>
   </filter>
  </entry>
  <blank length="00:00:04.400"/>
  <entry producer="producer709" in="00:00:00.000" out="00:00:09.200">
   <property name="kdenlive:id">231</property>
   <filter id="filter1764">
    <property name="rotate_center">1</property>
    <property name="mlt_service">qtblend</property>
    <property name="kdenlive_id">qtblend</property>
    <property name="rect">00:00:00.000=0 1080 1920 1080 1.000000;00:00:00.240=0 -41 1920 1080 1.000000;00:00:00.360=0 0 1920 1080 1.000000;00:00:08.840=0 0 1920 1080 1.000000;00:00:08.960=0 47 1920 1080 1.000000;00:00:09.200=0 -1080 1920 1080 1.000000</property>
    <property name="rotation">00:00:00.000=0;00:00:00.240=0;00:00:00.360=0;00:00:08.840=0;00:00:08.960=0;00:00:09.200=0</property>
    <property name="compositing">0</property>
    <property name="distort">0</property>
    <property name="kdenlive:collapsed">0</property>
   </filter>
  </entry>
  <blank length="00:00:04.720"/>
  <entry producer="producer236" in="00:00:00.000" out="00:00:10.880">
   <property name="kdenlive:id">260</property>
   <filter id="filter1765">
    <property name="rotate_center">1</property>
    <property name="mlt_service">qtblend</property>
    <property name="kdenlive_id">qtblend</property>
    <property name="rect">00:00:00.000=540 162 1344 756 1.000000</property>
    <property name="rotation">00:00:00.000=0</property>
    <property name="compositing">0</property>
    <property name="distort">0</property>
    <property name="kdenlive:collapsed">1</property>
   </filter>
   <filter id="filter1766">
    <property name="rotate_center">1</property>
    <property name="mlt_service">qtblend</property>
    <property name="kdenlive_id">qtblend</property>
    <property name="rect">00:00:00.000=0 1080 1920 1080 1.000000;00:00:00.240=0 -60 1920 1080 1.000000;00:00:00.360=0 0 1920 1080 1.000000</property>
    <property name="rotation">00:00:00.000=0;00:00:00.240=0;00:00:00.360=0</property>
    <property name="compositing">0</property>
    <property name="distort">0</property>
    <property name="kdenlive:collapsed">0</property>
   </filter>
  </entry>
  <blank length="00:01:51.720"/>
  <entry producer="producer709" in="00:00:00.000" out="00:00:14.360">
   <property name="kdenlive:id">231</property>
   <filter id="filter1767">
    <property name="rotate_center">1</property>
    <property name="mlt_service">qtblend</property>
    <property name="kdenlive_id">qtblend</property>
    <property name="rect">00:00:00.000=0 1080 1920 1080 1.000000;00:00:00.240=0 -45 1920 1080 1.000000;00:00:00.360=0 0 1920 1080 1.000000;00:00:14.000=0 0 1920 1080 1.000000;00:00:14.120=0 63 1920 1080 1.000000;00:00:14.360=0 -1080 1920 1080 1.000000</property>
    <property name="rotation">00:00:00.000=0;00:00:00.240=0;00:00:00.360=0;00:00:14.000=0;00:00:14.120=0;00:00:14.360=0</property>
    <property name="compositing">0</property>
    <property name="distort">0</property>
    <property name="kdenlive:collapsed">0</property>
   </filter>
  </entry>
  <blank length="00:00:16.560"/>
  <entry producer="producer709" in="00:00:00.000" out="00:00:14.320">
   <property name="kdenlive:id">231</property>
   <filter id="filter1768">
    <property name="rotate_center">1</property>
    <property name="mlt_service">qtblend</property>
    <property name="kdenlive_id">qtblend</property>
    <property name="rect">00:00:00.000=0 1080 1920 1080 1.000000;00:00:00.240=0 -45 1920 1080 1.000000;00:00:00.360=0 0 1920 1080 1.000000;00:00:13.960=0 0 1920 1080 1.000000;00:00:14.080=0 47 1920 1080 1.000000;00:00:14.320=0 -1080 1920 1080 1.000000</property>
    <property name="rotation">00:00:00.000=0;00:00:00.240=0;00:00:00.360=0;00:00:13.960=0;00:00:14.080=0;00:00:14.320=0</property>
    <property name="compositing">0</property>
    <property name="distort">0</property>
    <property name="kdenlive:collapsed">0</property>
   </filter>
  </entry>
  <blank length="00:01:50.640"/>
  <entry producer="producer433" in="00:00:00.000" out="00:00:07.000">
   <property name="kdenlive:id">531</property>
   <property name="kdenlive:activeeffect">1</property>
   <filter id="filter1769">
    <property name="rotate_center">1</property>
    <property name="mlt_service">qtblend</property>
    <property name="kdenlive_id">qtblend</property>
    <property name="rect">00:00:00.000=144 81 1632 918 1.000000</property>
    <property name="rotation">00:00:00.000=0</property>
    <property name="compositing">0</property>
    <property name="distort">0</property>
    <property name="kdenlive:collapsed">1</property>
   </filter>
   <filter id="filter1770">
    <property name="mode">alpha</property>
    <property name="alpha_operation">min</property>
    <property name="invert">0</property>
    <property name="feather">0</property>
    <property name="feather_passes">1</property>
    <property name="mlt_service">rotoscoping</property>
    <property name="kdenlive_id">rotoscoping</property>
    <property name="spline">{
    "000": [
        [
            [
                0.003484320557491289,
                0.2671826625386997
            ],
            [
                0.003484320557491289,
                0.11300309597523221
            ],
            [
                0.018118466898954706,
                0.11300309597523221
            ]
        ],
        [
            [
                0.06202090592334496,
                0.11300309597523221
            ],
            [
                0.07665505226480837,
                0.11300309597523221
            ],
            [
                0.07700348432055751,
                0.26656346749226006
            ]
        ],
        [
            [
                0.07804878048780488,
                0.7272445820433436
            ],
            [
                0.078397212543554,
                0.8808049535603716
            ],
            [
                0.06341463414634146,
                0.8814241486068112
            ]
        ],
        [
            [
                0.018466898954703832,
                0.8832817337461301
            ],
            [
                0.003484320557491289,
                0.8839009287925697
            ],
            [
                0.003484320557491289,
                0.7297213622291022
            ]
        ]
    ],
    "012": [
        [
            [
                0.003484320557491289,
                0.2671826625386997
            ],
            [
                0.003484320557491289,
                0.11300309597523221
            ],
            [
                0.018118466898954706,
                0.11300309597523221
            ]
        ],
        [
            [
                0.9226480836236933,
                0.10990712074303406
            ],
            [
                0.9372822299651568,
                0.10990712074303406
            ],
            [
                0.937630662020906,
                0.26346749226006205
            ]
        ],
        [
            [
                0.9386759581881533,
                0.7396284829721363
            ],
            [
                0.9390243902439025,
                0.8931888544891642
            ],
            [
                0.92404181184669,
                0.893808049535604
            ]
        ],
        [
            [
                0.018466898954703832,
                0.8832817337461301
            ],
            [
                0.003484320557491289,
                0.8839009287925697
            ],
            [
                0.003484320557491289,
                0.7297213622291022
            ]
        ]
    ]
}
</property>
    <property name="kdenlive:collapsed">1</property>
   </filter>
  </entry>
  <entry producer="producer433" in="00:00:00.000" out="00:00:00.440">
   <property name="kdenlive:id">531</property>
   <filter id="filter1771">
    <property name="rotate_center">1</property>
    <property name="mlt_service">qtblend</property>
    <property name="kdenlive_id">qtblend</property>
    <property name="rect">00:00:00.000=144 81 1632 918 1.000000</property>
    <property name="rotation">00:00:00.000=0</property>
    <property name="compositing">0</property>
    <property name="distort">0</property>
    <property name="kdenlive:collapsed">1</property>
   </filter>
   <filter id="filter1772">
    <property name="rotate_center">1</property>
    <property name="mlt_service">qtblend</property>
    <property name="kdenlive_id">qtblend</property>
    <property name="rect">00:00:00.000=0 0 1920 1080 1.000000;00:00:00.160=48 27 1824 1026 1.000000;00:00:00.440=48 -1080 1824 1026 1.000000</property>
    <property name="rotation">00:00:00.000=0;00:00:00.160=0;00:00:00.440=0</property>
    <property name="compositing">0</property>
    <property name="distort">0</property>
   </filter>
  </entry>
  <blank length="00:00:01.200"/>
  <entry producer="producer434" in="00:00:00.000" out="00:00:11.120">
   <property name="kdenlive:id">536</property>
   <property name="kdenlive:activeeffect">1</property>
   <filter id="filter1773">
    <property name="rotate_center">1</property>
    <property name="mlt_service">qtblend</property>
    <property name="kdenlive_id">qtblend</property>
    <property name="rect">00:00:00.000=144 81 1632 918 1.000000</property>
    <property name="rotation">00:00:00.000=0</property>
    <property name="compositing">0</property>
    <property name="distort">0</property>
    <property name="kdenlive:collapsed">1</property>
   </filter>
   <filter id="filter1774">
    <property name="mode">alpha</property>
    <property name="alpha_operation">min</property>
    <property name="invert">0</property>
    <property name="feather">0</property>
    <property name="feather_passes">1</property>
    <property name="mlt_service">rotoscoping</property>
    <property name="kdenlive_id">rotoscoping</property>
    <property name="spline">{
    "000": [
        [
            [
                0.003484320557491289,
                0.2671826625386997
            ],
            [
                0.003484320557491289,
                0.11300309597523221
            ],
            [
                0.018118466898954706,
                0.11300309597523221
            ]
        ],
        [
            [
                0.06202090592334496,
                0.11300309597523221
            ],
            [
                0.07665505226480837,
                0.11300309597523221
            ],
            [
                0.07700348432055751,
                0.26656346749226006
            ]
        ],
        [
            [
                0.07804878048780488,
                0.7272445820433436
            ],
            [
                0.078397212543554,
                0.8808049535603716
            ],
            [
                0.06341463414634146,
                0.8814241486068112
            ]
        ],
        [
            [
                0.018466898954703832,
                0.8832817337461301
            ],
            [
                0.003484320557491289,
                0.8839009287925697
            ],
            [
                0.003484320557491289,
                0.7297213622291022
            ]
        ]
    ],
    "012": [
        [
            [
                0.003484320557491289,
                0.2671826625386997
            ],
            [
                0.003484320557491289,
                0.11300309597523221
            ],
            [
                0.018118466898954706,
                0.11300309597523221
            ]
        ],
        [
            [
                0.9226480836236933,
                0.10990712074303406
            ],
            [
                0.9372822299651568,
                0.10990712074303406
            ],
            [
                0.937630662020906,
                0.26346749226006205
            ]
        ],
        [
            [
                0.9386759581881533,
                0.7396284829721363
            ],
            [
                0.9390243902439025,
                0.8931888544891642
            ],
            [
                0.92404181184669,
                0.893808049535604
            ]
        ],
        [
            [
                0.018466898954703832,
                0.8832817337461301
            ],
            [
                0.003484320557491289,
                0.8839009287925697
            ],
            [
                0.003484320557491289,
                0.7297213622291022
            ]
        ]
    ]
}
</property>
    <property name="kdenlive:collapsed">1</property>
   </filter>
  </entry>
  <entry producer="producer434" in="00:00:00.000" out="00:00:00.440">
   <property name="kdenlive:id">536</property>
   <filter id="filter1775">
    <property name="rotate_center">1</property>
    <property name="mlt_service">qtblend</property>
    <property name="kdenlive_id">qtblend</property>
    <property name="rect">00:00:00.000=144 81 1632 918 1.000000</property>
    <property name="rotation">00:00:00.000=0</property>
    <property name="compositing">0</property>
    <property name="distort">0</property>
    <property name="kdenlive:collapsed">1</property>
   </filter>
   <filter id="filter1776">
    <property name="rotate_center">1</property>
    <property name="mlt_service">qtblend</property>
    <property name="kdenlive_id">qtblend</property>
    <property name="rect">00:00:00.000=0 0 1920 1080 1.000000;00:00:00.160=48 27 1824 1026 1.000000;00:00:00.440=48 -1080 1824 1026 1.000000</property>
    <property name="rotation">00:00:00.000=0;00:00:00.160=0;00:00:00.440=0</property>
    <property name="compositing">0</property>
    <property name="distort">0</property>
    <property name="kdenlive:collapsed">1</property>
   </filter>
  </entry>
  <blank length="00:00:01.280"/>
  <entry producer="producer435" in="00:00:00.000" out="00:00:03.920">
   <property name="kdenlive:id">543</property>
   <filter id="filter1777">
    <property name="rotate_center">1</property>
    <property name="mlt_service">qtblend</property>
    <property name="kdenlive_id">qtblend</property>
    <property name="rect">00:00:00.000=144 81 1632 918 1.000000</property>
    <property name="rotation">00:00:00.000=0</property>
    <property name="compositing">0</property>
    <property name="distort">0</property>
    <property name="kdenlive:collapsed">1</property>
   </filter>
   <filter id="filter1778">
    <property name="mode">alpha</property>
    <property name="alpha_operation">min</property>
    <property name="invert">0</property>
    <property name="feather">0</property>
    <property name="feather_passes">1</property>
    <property name="mlt_service">rotoscoping</property>
    <property name="kdenlive_id">rotoscoping</property>
    <property name="spline">{
    "000": [
        [
            [
                0.003484320557491289,
                0.2671826625386997
            ],
            [
                0.003484320557491289,
                0.11300309597523221
            ],
            [
                0.018118466898954706,
                0.11300309597523221
            ]
        ],
        [
            [
                0.06202090592334496,
                0.11300309597523221
            ],
            [
                0.07665505226480837,
                0.11300309597523221
            ],
            [
                0.07700348432055751,
                0.26656346749226006
            ]
        ],
        [
            [
                0.07804878048780488,
                0.7272445820433436
            ],
            [
                0.078397212543554,
                0.8808049535603716
            ],
            [
                0.06341463414634146,
                0.8814241486068112
            ]
        ],
        [
            [
                0.018466898954703832,
                0.8832817337461301
            ],
            [
                0.003484320557491289,
                0.8839009287925697
            ],
            [
                0.003484320557491289,
                0.7297213622291022
            ]
        ]
    ],
    "012": [
        [
            [
                0.003484320557491289,
                0.2671826625386997
            ],
            [
                0.003484320557491289,
                0.11300309597523221
            ],
            [
                0.018118466898954706,
                0.11300309597523221
            ]
        ],
        [
            [
                0.9226480836236933,
                0.10990712074303406
            ],
            [
                0.9372822299651568,
                0.10990712074303406
            ],
            [
                0.937630662020906,
                0.26346749226006205
            ]
        ],
        [
            [
                0.9386759581881533,
                0.7396284829721363
            ],
            [
                0.9390243902439025,
                0.8931888544891642
            ],
            [
                0.92404181184669,
                0.893808049535604
            ]
        ],
        [
            [
                0.018466898954703832,
                0.8832817337461301
            ],
            [
                0.003484320557491289,
                0.8839009287925697
            ],
            [
                0.003484320557491289,
                0.7297213622291022
            ]
        ]
    ]
}
</property>
    <property name="kdenlive:collapsed">1</property>
   </filter>
  </entry>
  <entry producer="producer435" in="00:00:00.000" out="00:00:00.440">
   <property name="kdenlive:id">543</property>
   <filter id="filter1779">
    <property name="rotate_center">1</property>
    <property name="mlt_service">qtblend</property>
    <property name="kdenlive_id">qtblend</property>
    <property name="rect">0=144 81 1632 918 1.000000</property>
    <property name="rotation">0=0</property>
    <property name="compositing">0</property>
    <property name="distort">0</property>
    <property name="kdenlive:collapsed">1</property>
   </filter>
   <filter id="filter1780">
    <property name="rotate_center">1</property>
    <property name="mlt_service">qtblend</property>
    <property name="kdenlive_id">qtblend</property>
    <property name="rect">0=0 0 1920 1080 1.000000;4=48 27 1824 1026 1.000000;11=48 -1080 1824 1026 1.000000</property>
    <property name="rotation">0=0;4=0;11=0</property>
    <property name="compositing">0</property>
    <property name="distort">0</property>
    <property name="kdenlive:collapsed">1</property>
   </filter>
  </entry>
  <blank length="00:00:52.480"/>
  <entry producer="producer436" in="00:00:00.000" out="00:00:11.320">
   <property name="kdenlive:id">546</property>
   <filter id="filter1781">
    <property name="rotate_center">1</property>
    <property name="mlt_service">qtblend</property>
    <property name="kdenlive_id">qtblend</property>
    <property name="rect">00:00:00.000=0 1080 1920 1080 1.000000;00:00:00.240=0 -63 1920 1080 1.000000;00:00:00.360=0 0 1920 1080 1.000000;00:00:10.960=0 0 1920 1080 1.000000;00:00:11.080=-48 -27 2016 1134 1.000000;00:00:11.320=950 535 19 10 1.000000</property>
    <property name="rotation">00:00:00.000=0;00:00:00.240=0;00:00:00.360=0;00:00:10.960=0;00:00:11.080=0;00:00:11.320=0</property>
    <property name="compositing">0</property>
    <property name="distort">0</property>
    <property name="kdenlive:collapsed">0</property>
   </filter>
  </entry>
  <blank length="00:01:14.800"/>
  <entry producer="producer709" in="00:00:00.000" out="00:00:01.520">
   <property name="kdenlive:id">231</property>
   <filter id="filter1782">
    <property name="rotate_center">1</property>
    <property name="mlt_service">qtblend</property>
    <property name="kdenlive_id">qtblend</property>
    <property name="rect">00:00:00.000=0 1080 1920 1080 1.000000;00:00:00.240=0 -52 1920 1080 1.000000;00:00:00.360=0 0 1920 1080 1.000000</property>
    <property name="rotation">00:00:00.000=0;00:00:00.240=0;00:00:00.360=0</property>
    <property name="compositing">0</property>
    <property name="distort">0</property>
   </filter>
  </entry>
  <blank length="00:00:05.200"/>
  <entry producer="producer409" in="00:00:00.000" out="00:00:18.120">
   <property name="kdenlive:id">178</property>
   <filter id="filter1783">
    <property name="rotate_center">1</property>
    <property name="mlt_service">qtblend</property>
    <property name="kdenlive_id">qtblend</property>
    <property name="rect">00:00:00.000=338 190 1242 699 1.000000;00:00:18.120=248 139 1424 801 1.000000</property>
    <property name="rotation">00:00:00.000=0;00:00:18.120=0</property>
    <property name="compositing">0</property>
    <property name="distort">0</property>
    <property name="kdenlive:collapsed">0</property>
   </filter>
   <filter id="filter1784">
    <property name="rotate_center">1</property>
    <property name="mlt_service">qtblend</property>
    <property name="kdenlive_id">qtblend</property>
    <property name="rect">00:00:00.000=48 1080 1824 1026 1.000000;00:00:00.240=48 27 1824 1026 1.000000;00:00:00.400=0 0 1920 1080 1.000000;00:00:17.760=0 0 1920 1080 1.000000;00:00:17.880=0 61 1920 1080 1.000000;00:00:18.120=0 -1080 1920 1080 1.000000</property>
    <property name="rotation">00:00:00.000=0;00:00:00.240=0;00:00:00.400=0;00:00:17.760=0;00:00:17.880=0;00:00:18.120=0</property>
    <property name="compositing">0</property>
    <property name="distort">0</property>
    <property name="kdenlive:collapsed">0</property>
   </filter>
  </entry>
  <blank length="00:00:39.160"/>
  <entry producer="producer712" in="00:00:00.000" out="00:00:05.240">
   <property name="kdenlive:id">556</property>
  </entry>
  <entry producer="producer712" in="00:00:16.320" out="00:00:19.680">
   <property name="kdenlive:id">556</property>
  </entry>
  <blank length="00:00:17.480"/>
  <entry producer="producer390" in="00:00:00.000" out="00:00:10.040">
   <property name="kdenlive:id">248</property>
   <filter id="filter1785">
    <property name="rotate_center">1</property>
    <property name="mlt_service">qtblend</property>
    <property name="kdenlive_id">qtblend</property>
    <property name="rect">00:00:00.000=923 338 19 10 1.000000;00:00:00.240=866 306 134 75 1.000000;00:00:00.360=885 316 96 54 1.000000;00:00:01.040=885 316 96 54 1.000000;00:00:01.480=768 249 96 54 1.000000;00:00:02.760=768 249 96 54 1.000000;00:00:03.160=812 242 96 54 1.000000;00:00:04.560=812 242 96 54 1.000000;00:00:05.080=862 299 96 54 1.000000;00:00:08.240=862 299 96 54 1.000000;00:00:08.760=1160 252 96 54 1.000000;00:00:09.680=1160 252 96 54 1.000000;00:00:09.800=1141 242 134 75 1.000000;00:00:10.040=1198 274 19 10 1.000000</property>
    <property name="rotation">00:00:00.000=-65;00:00:00.240=-65;00:00:00.360=-65;00:00:01.040=-65;00:00:01.480=36;00:00:02.760=36;00:00:03.160=63;00:00:04.560=63;00:00:05.080=-72;00:00:08.240=-72;00:00:08.760=87;00:00:09.680=87;00:00:09.800=87;00:00:10.040=87</property>
    <property name="compositing">0</property>
    <property name="distort">0</property>
    <property name="kdenlive:collapsed">0</property>
   </filter>
  </entry>
  <blank length="00:00:12.800"/>
  <entry producer="producer713" in="00:00:00.000" out="00:00:04.600">
   <property name="kdenlive:id">559</property>
  </entry>
  <entry producer="producer713" in="00:00:16.240" out="00:00:19.680">
   <property name="kdenlive:id">559</property>
  </entry>
  <blank length="00:05:39.520"/>
  <entry producer="producer499" in="00:00:00.000" out="00:00:11.920">
   <property name="kdenlive:id">588</property>
   <filter id="filter1786">
    <property name="rotate_center">1</property>
    <property name="mlt_service">qtblend</property>
    <property name="kdenlive_id">qtblend</property>
    <property name="rect">00:00:00.000=384 215 1152 648 1.000000;00:00:11.920=288 161 1344 756 1.000000</property>
    <property name="rotation">00:00:00.000=0;00:00:11.920=0</property>
    <property name="compositing">0</property>
    <property name="distort">0</property>
    <property name="kdenlive:collapsed">0</property>
   </filter>
   <filter id="filter1787">
    <property name="rotate_center">1</property>
    <property name="mlt_service">qtblend</property>
    <property name="kdenlive_id">qtblend</property>
    <property name="rect">00:00:00.000=0 1080 1920 1080 1.000000;00:00:00.240=0 -70 1920 1080 1.000000;00:00:00.360=0 0 1920 1080 1.000000;00:00:11.560=0 0 1920 1080 1.000000;00:00:11.680=0 92 1920 1080 1.000000;00:00:11.920=0 -1080 1920 1080 1.000000</property>
    <property name="rotation">00:00:00.000=0;00:00:00.240=0;00:00:00.360=0;00:00:11.560=0;00:00:11.680=0;00:00:11.920=0</property>
    <property name="compositing">0</property>
    <property name="distort">0</property>
    <property name="kdenlive:collapsed">0</property>
   </filter>
  </entry>
  <blank length="00:00:16.440"/>
  <entry producer="chain460" in="00:00:36.760" out="00:00:41.760">
   <property name="kdenlive:id">592</property>
   <filter id="filter1788">
    <property name="rotate_center">1</property>
    <property name="mlt_service">qtblend</property>
    <property name="kdenlive_id">qtblend</property>
    <property name="rect">00:00:36.760=321 180 1278 719 1.000000</property>
    <property name="rotation">00:00:36.760=0</property>
    <property name="compositing">0</property>
    <property name="distort">0</property>
    <property name="kdenlive:collapsed">1</property>
   </filter>
   <filter id="filter1789">
    <property name="rotate_center">1</property>
    <property name="mlt_service">qtblend</property>
    <property name="kdenlive_id">qtblend</property>
    <property name="rect">00:00:36.760=0 1080 1920 1080 1.000000;00:00:37.000=0 -56 1920 1080 1.000000;00:00:37.120=0 0 1920 1080 1.000000;00:00:41.400=0 0 1920 1080 1.000000;00:00:41.520=0 65 1920 1080 1.000000;00:00:41.760=0 -1080 1920 1080 1.000000</property>
    <property name="rotation">00:00:36.760=0;00:00:37.000=0;00:00:37.120=0;00:00:41.400=0;00:00:41.520=0;00:00:41.760=0</property>
    <property name="compositing">0</property>
    <property name="distort">0</property>
    <property name="kdenlive:collapsed">0</property>
   </filter>
  </entry>
  <blank length="00:02:00.000"/>
  <entry producer="producer714" in="00:00:00.000" out="00:00:06.720">
   <property name="kdenlive:id">615</property>
  </entry>
  <entry producer="producer714" in="00:00:16.240" out="00:00:19.680">
   <property name="kdenlive:id">615</property>
  </entry>
  <blank length="00:00:21.640"/>
  <entry producer="producer715" in="00:00:00.000" out="00:00:05.400">
   <property name="kdenlive:id">616</property>
  </entry>
  <entry producer="producer715" in="00:00:16.520" out="00:00:19.680">
   <property name="kdenlive:id">616</property>
  </entry>
  <blank length="00:00:11.280"/>
  <entry producer="producer520" in="00:00:00.000" out="00:00:04.400">
   <property name="kdenlive:id">618</property>
   <filter id="filter1790">
    <property name="rotate_center">1</property>
    <property name="mlt_service">qtblend</property>
    <property name="kdenlive_id">qtblend</property>
    <property name="rect">00:00:00.000=1430 535 19 10 1.000000;00:00:00.240=1104 351 672 378 1.000000;00:00:00.360=1152 378 576 324 1.000000;00:00:04.040=1152 378 576 324 1.000000;00:00:04.160=1104 351 672 378 1.000000;00:00:04.400=1430 535 19 10 1.000000</property>
    <property name="rotation">00:00:00.000=0;00:00:00.240=0;00:00:00.360=0;00:00:04.040=0;00:00:04.160=0;00:00:04.400=0</property>
    <property name="compositing">0</property>
    <property name="distort">0</property>
    <property name="kdenlive:collapsed">0</property>
   </filter>
  </entry>
  <blank length="00:00:11.240"/>
  <entry producer="chain461" in="00:00:16.320" out="00:00:24.320">
   <property name="kdenlive:id">617</property>
   <property name="kdenlive:activeeffect">1</property>
   <filter id="filter1791">
    <property name="rotate_center">1</property>
    <property name="mlt_service">qtblend</property>
    <property name="kdenlive_id">qtblend</property>
    <property name="rect">00:00:16.320=-616 -528 3159 1776 1.000000</property>
    <property name="rotation">00:00:16.320=0</property>
    <property name="compositing">0</property>
    <property name="distort">0</property>
    <property name="kdenlive:collapsed">1</property>
   </filter>
   <filter id="filter1792">
    <property name="rotate_center">1</property>
    <property name="mlt_service">qtblend</property>
    <property name="kdenlive_id">qtblend</property>
    <property name="rect">00:00:16.320~=0 1088 1920 1080 1.000000;00:00:16.840~=0 0 1920 1080 1.000000</property>
    <property name="rotation">00:00:16.320~=0;00:00:16.840~=0</property>
    <property name="compositing">0</property>
    <property name="distort">0</property>
    <property name="kdenlive:collapsed">0</property>
   </filter>
   <filter id="filter1793" in="00:00:23.120" out="00:00:24.320">
    <property name="start">1</property>
    <property name="level">1</property>
    <property name="mlt_service">brightness</property>
    <property name="kdenlive_id">fade_to_black</property>
    <property name="alpha">00:00:00.000=1;00:00:01.200=0</property>
   </filter>
  </entry>
  <blank length="00:01:11.280"/>
  <entry producer="producer709" in="00:00:00.000" out="00:00:05.600">
   <property name="kdenlive:id">231</property>
   <filter id="filter1794">
    <property name="rotate_center">1</property>
    <property name="mlt_service">qtblend</property>
    <property name="kdenlive_id">qtblend</property>
    <property name="rect">00:00:00.000=0 1080 1920 1080 1.000000;00:00:00.240=0 -43 1920 1080 1.000000;00:00:00.360=0 0 1920 1080 1.000000;00:00:05.240=0 0 1920 1080 1.000000;00:00:05.360=0 74 1920 1080 1.000000;00:00:05.600=0 -1080 1920 1080 1.000000</property>
    <property name="rotation">00:00:00.000=0;00:00:00.240=0;00:00:00.360=0;00:00:05.240=0;00:00:05.360=0;00:00:05.600=0</property>
    <property name="compositing">0</property>
    <property name="distort">0</property>
   </filter>
  </entry>
  <blank length="00:01:42.800"/>
  <entry producer="producer521" in="00:00:00.000" out="00:00:34.720">
   <property name="kdenlive:id">634</property>
   <property name="kdenlive:activeeffect">1</property>
   <filter id="filter1795" out="00:00:00.240">
    <property name="start">1</property>
    <property name="level">1</property>
    <property name="mlt_service">brightness</property>
    <property name="kdenlive_id">fade_from_black</property>
    <property name="alpha">00:00:00.000=0;00:00:00.240=1</property>
    <property name="kdenlive:collapsed">0</property>
   </filter>
   <filter id="filter1796" in="00:00:33.800" out="00:00:34.720">
    <property name="start">1</property>
    <property name="level">1</property>
    <property name="mlt_service">brightness</property>
    <property name="kdenlive_id">fade_to_black</property>
    <property name="alpha">00:00:00.000=1;00:00:00.920=0</property>
    <property name="kdenlive:collapsed">0</property>
   </filter>
  </entry>
  <blank length="00:00:01.600"/>
  <entry producer="producer573" in="00:00:00.000" out="00:00:37.880">
   <property name="kdenlive:id">642</property>
   <property name="kdenlive:activeeffect">1</property>
   <filter id="filter1797" out="00:00:00.240">
    <property name="start">1</property>
    <property name="level">1</property>
    <property name="mlt_service">brightness</property>
    <property name="kdenlive_id">fade_from_black</property>
    <property name="alpha">00:00:00.000=0;00:00:00.240=1</property>
    <property name="kdenlive:collapsed">0</property>
   </filter>
   <filter id="filter1798" in="00:00:36.960" out="00:00:37.880">
    <property name="start">1</property>
    <property name="level">1</property>
    <property name="mlt_service">brightness</property>
    <property name="kdenlive_id">fade_to_black</property>
    <property name="alpha">00:00:00.000=1;00:00:00.920=0</property>
    <property name="kdenlive:collapsed">0</property>
   </filter>
  </entry>
  <blank length="00:00:07.480"/>
  <entry producer="producer574" in="00:00:00.000" out="00:00:43.040">
   <property name="kdenlive:id">650</property>
   <filter id="filter1799" out="00:00:00.240">
    <property name="start">1</property>
    <property name="level">1</property>
    <property name="mlt_service">brightness</property>
    <property name="kdenlive_id">fade_from_black</property>
    <property name="alpha">0=0;-1=1</property>
    <property name="kdenlive:collapsed">0</property>
   </filter>
   <filter id="filter1800" in="00:00:42.120" out="00:00:43.040">
    <property name="start">1</property>
    <property name="level">1</property>
    <property name="mlt_service">brightness</property>
    <property name="kdenlive_id">fade_to_black</property>
    <property name="alpha">00:00:00.000=1;00:00:00.920=0</property>
   </filter>
  </entry>
  <blank length="00:00:14.720"/>
  <entry producer="producer539" in="00:00:00.000" out="00:00:00.880">
   <property name="kdenlive:id">661</property>
   <filter id="filter1801">
    <property name="rotate_center">1</property>
    <property name="mlt_service">qtblend</property>
    <property name="kdenlive_id">qtblend</property>
    <property name="rect">00:00:00.000=0 65 1920 1080 1.000000;00:00:00.240=0 0 1920 1080 1.000000</property>
    <property name="rotation">00:00:00.000=0;00:00:00.240=0</property>
    <property name="compositing">0</property>
    <property name="distort">0</property>
   </filter>
   <filter id="filter1802" out="00:00:00.240">
    <property name="start">1</property>
    <property name="level">1</property>
    <property name="mlt_service">brightness</property>
    <property name="kdenlive_id">fade_from_black</property>
    <property name="alpha">00:00:00.000=0;00:00:00.240=1</property>
   </filter>
  </entry>
  <blank length="00:01:31.240"/>
  <entry producer="producer709" in="00:00:00.000" out="00:00:05.800">
   <property name="kdenlive:id">231</property>
   <filter id="filter1803">
    <property name="rotate_center">1</property>
    <property name="mlt_service">qtblend</property>
    <property name="kdenlive_id">qtblend</property>
    <property name="rect">00:00:00.000=0 1080 1920 1080 1.000000;00:00:00.240=0 -55 1920 1080 1.000000;00:00:00.360=0 0 1920 1080 1.000000;00:00:05.440=0 0 1920 1080 1.000000;00:00:05.560=0 65 1920 1080 1.000000;00:00:05.800=0 -1080 1920 1080 1.000000</property>
    <property name="rotation">00:00:00.000=0;00:00:00.240=0;00:00:00.360=0;00:00:05.440=0;00:00:05.560=0;00:00:05.800=0</property>
    <property name="compositing">0</property>
    <property name="distort">0</property>
   </filter>
  </entry>
  <blank length="00:00:24.640"/>
  <entry producer="producer575" in="00:00:00.000" out="00:00:27.800">
   <property name="kdenlive:id">692</property>
   <filter id="filter1804" out="00:00:00.240">
    <property name="start">1</property>
    <property name="level">1</property>
    <property name="mlt_service">brightness</property>
    <property name="kdenlive_id">fade_from_black</property>
    <property name="alpha">00:00:00.000=0;00:00:00.240=1</property>
   </filter>
   <filter id="filter1805" in="00:00:26.880" out="00:00:27.800">
    <property name="start">1</property>
    <property name="level">1</property>
    <property name="mlt_service">brightness</property>
    <property name="kdenlive_id">fade_to_black</property>
    <property name="alpha">00:00:00.000=1;00:00:00.920=0</property>
   </filter>
  </entry>
  <blank length="00:00:28.560"/>
  <entry producer="producer716" in="00:00:00.000" out="00:00:04.120">
   <property name="kdenlive:id">711</property>
  </entry>
  <entry producer="producer716" in="00:00:16.200" out="00:00:19.680">
   <property name="kdenlive:id">711</property>
  </entry>
  <blank length="00:00:05.520"/>
  <entry producer="producer709" in="00:00:00.000" out="00:00:06.720">
   <property name="kdenlive:id">231</property>
   <filter id="filter1806">
    <property name="rotate_center">1</property>
    <property name="mlt_service">qtblend</property>
    <property name="kdenlive_id">qtblend</property>
    <property name="rect">00:00:00.000=0 1080 1920 1080 1.000000;00:00:00.240=0 -64 1920 1080 1.000000;00:00:00.360=0 0 1920 1080 1.000000;00:00:06.360=0 0 1920 1080 1.000000;00:00:06.480=0 59 1920 1080 1.000000;00:00:06.720=0 -1080 1920 1080 1.000000</property>
    <property name="rotation">00:00:00.000=0;00:00:00.240=0;00:00:00.360=0;00:00:06.360=0;00:00:06.480=0;00:00:06.720=0</property>
    <property name="compositing">0</property>
    <property name="distort">0</property>
    <property name="kdenlive:collapsed">0</property>
   </filter>
  </entry>
  <blank length="00:01:39.960"/>
  <entry producer="producer604" in="00:00:00.000" out="00:00:02.080">
   <property name="kdenlive:id">722</property>
   <filter id="filter1807">
    <property name="rotate_center">1</property>
    <property name="mlt_service">qtblend</property>
    <property name="kdenlive_id">qtblend</property>
    <property name="rect">00:00:00.000=144 81 1632 918 1.000000</property>
    <property name="rotation">00:00:00.000=0</property>
    <property name="compositing">0</property>
    <property name="distort">0</property>
    <property name="kdenlive:collapsed">1</property>
   </filter>
   <filter id="filter1808">
    <property name="mode">alpha</property>
    <property name="alpha_operation">min</property>
    <property name="invert">0</property>
    <property name="feather">0</property>
    <property name="feather_passes">1</property>
    <property name="mlt_service">rotoscoping</property>
    <property name="kdenlive_id">rotoscoping</property>
    <property name="spline">{
    "000": [
        [
            [
                0.019594594594594596,
                0.21111111111111105
            ],
            [
                0.02195945945945946,
                0.025525525525525523
            ],
            [
                0.03277027027027027,
                0.027327327327327327
            ]
        ],
        [
            [
                0.0652027027027027,
                0.032732732732732736
            ],
            [
                0.07601351351351351,
                0.03453453453453453
            ],
            [
                0.07871621621621622,
                0.21951951951951953
            ]
        ],
        [
            [
                0.08682432432432431,
                0.7744744744744746
            ],
            [
                0.08952702702702701,
                0.9594594594594595
            ],
            [
                0.07364864864864865,
                0.9582582582582583
            ]
        ],
        [
            [
                0.02601351351351351,
                0.9546546546546545
            ],
            [
                0.010135135135135136,
                0.9534534534534533
            ],
            [
                0.0125,
                0.7678678678678678
            ]
        ]
    ],
    "018": [
        [
            [
                0.019594594594594596,
                0.21111111111111105
            ],
            [
                0.02195945945945946,
                0.025525525525525523
            ],
            [
                0.03277027027027027,
                0.027327327327327327
            ]
        ],
        [
            [
                0.8439189189189189,
                0.041741741741741764
            ],
            [
                0.8547297297297297,
                0.04354354354354354
            ],
            [
                0.8574324324324324,
                0.22852852852852865
            ]
        ],
        [
            [
                0.8689189189189189,
                0.7744744744744745
            ],
            [
                0.8716216216216216,
                0.9594594594594595
            ],
            [
                0.8557432432432432,
                0.9582582582582583
            ]
        ],
        [
            [
                0.02601351351351351,
                0.9546546546546545
            ],
            [
                0.010135135135135136,
                0.9534534534534533
            ],
            [
                0.0125,
                0.7678678678678678
            ]
        ]
    ]
}
</property>
    <property name="kdenlive:collapsed">1</property>
   </filter>
  </entry>
  <blank length="00:00:05.400"/>
  <entry producer="producer709" in="00:00:00.000" out="00:00:05.400">
   <property name="kdenlive:id">231</property>
   <filter id="filter1809">
    <property name="rotate_center">1</property>
    <property name="mlt_service">qtblend</property>
    <property name="kdenlive_id">qtblend</property>
    <property name="rect">00:00:00.000=0 1080 1920 1080 1.000000;00:00:00.240=0 -70 1920 1080 1.000000;00:00:00.360=0 0 1920 1080 1.000000;00:00:05.040=0 0 1920 1080 1.000000;00:00:05.160=0 60 1920 1080 1.000000;00:00:05.400=0 -1080 1920 1080 1.000000</property>
    <property name="rotation">00:00:00.000=0;00:00:00.240=0;00:00:00.360=0;00:00:05.040=0;00:00:05.160=0;00:00:05.400=0</property>
    <property name="compositing">0</property>
    <property name="distort">0</property>
    <property name="kdenlive:collapsed">0</property>
   </filter>
  </entry>
  <blank length="00:00:09.600"/>
  <entry producer="producer709" in="00:00:00.000" out="00:00:13.240">
   <property name="kdenlive:id">231</property>
   <filter id="filter1810">
    <property name="rotate_center">1</property>
    <property name="mlt_service">qtblend</property>
    <property name="kdenlive_id">qtblend</property>
    <property name="rect">00:00:00.000=0 1080 1920 1080 1.000000;00:00:00.240=0 -59 1920 1080 1.000000;00:00:00.360=0 0 1920 1080 1.000000;00:00:12.880=0 0 1920 1080 1.000000;00:00:13.000=0 59 1920 1080 1.000000;00:00:13.240=0 -1080 1920 1080 1.000000</property>
    <property name="rotation">00:00:00.000=0;00:00:00.240=0;00:00:00.360=0;00:00:12.880=0;00:00:13.000=0;00:00:13.240=0</property>
    <property name="compositing">0</property>
    <property name="distort">0</property>
   </filter>
  </entry>
  <blank length="00:00:54.360"/>
  <entry producer="producer709" in="00:00:00.000" out="00:00:09.200">
   <property name="kdenlive:id">231</property>
   <filter id="filter1811">
    <property name="rotate_center">1</property>
    <property name="mlt_service">qtblend</property>
    <property name="kdenlive_id">qtblend</property>
    <property name="rect">00:00:00.000=0 1080 1920 1080 1.000000;00:00:00.240=0 -54 1920 1080 1.000000;00:00:00.360=0 0 1920 1080 1.000000;00:00:08.840=0 0 1920 1080 1.000000;00:00:08.960=0 58 1920 1080 1.000000;00:00:09.160|=0 -1080 1920 1080 1.000000;00:00:09.200=0 0 1920 1080 1.000000</property>
    <property name="rotation">00:00:00.000=0;00:00:00.240=0;00:00:00.360=0;00:00:08.840=0;00:00:08.960=0;00:00:09.200=0</property>
    <property name="compositing">0</property>
    <property name="distort">0</property>
    <property name="kdenlive:collapsed">0</property>
   </filter>
  </entry>
  <blank length="00:00:39.160"/>
  <entry producer="producer629" in="00:00:00.000" out="00:00:29.960">
   <property name="kdenlive:id">746</property>
   <filter id="filter1812" out="00:00:00.240">
    <property name="start">1</property>
    <property name="level">1</property>
    <property name="mlt_service">brightness</property>
    <property name="kdenlive_id">fade_from_black</property>
    <property name="alpha">00:00:00.000=0;00:00:00.240=1</property>
   </filter>
   <filter id="filter1813" in="00:00:29.040" out="00:00:29.960">
    <property name="start">1</property>
    <property name="level">1</property>
    <property name="mlt_service">brightness</property>
    <property name="kdenlive_id">fade_to_black</property>
    <property name="alpha">00:00:00.000=1;00:00:00.920=0</property>
   </filter>
  </entry>
  <blank length="00:00:17.960"/>
  <entry producer="producer709" in="00:00:00.000" out="00:00:05.520">
   <property name="kdenlive:id">231</property>
   <filter id="filter1814">
    <property name="rotate_center">1</property>
    <property name="mlt_service">qtblend</property>
    <property name="kdenlive_id">qtblend</property>
    <property name="rect">00:00:00.000=0 1080 1920 1080 1.000000;00:00:00.240=0 -47 1920 1080 1.000000;00:00:00.360=0 0 1920 1080 1.000000;00:00:05.520=0 0 1920 1080 1.000000</property>
    <property name="rotation">00:00:00.000=0;00:00:00.240=0;00:00:00.360=0;00:00:05.520=0</property>
    <property name="compositing">0</property>
    <property name="distort">0</property>
    <property name="kdenlive:collapsed">0</property>
   </filter>
  </entry>
  <entry producer="producer710" in="00:00:00.000" out="00:00:12.640">
   <property name="kdenlive:id">355</property>
   <filter id="filter1815">
    <property name="rotate_center">1</property>
    <property name="mlt_service">qtblend</property>
    <property name="kdenlive_id">qtblend</property>
    <property name="rect">00:00:00.000=0 86 1920 1080 1.000000;00:00:00.240=0 -34 1920 1080 1.000000;00:00:00.360=0 0 1920 1080 1.000000</property>
    <property name="rotation">00:00:00.000=0;00:00:00.240=0;00:00:00.360=0</property>
    <property name="compositing">0</property>
    <property name="distort">0</property>
    <property name="kdenlive:collapsed">0</property>
   </filter>
   <filter id="filter1816" out="00:00:00.240">
    <property name="start">1</property>
    <property name="level">1</property>
    <property name="mlt_service">brightness</property>
    <property name="kdenlive_id">fade_from_black</property>
    <property name="alpha">00:00:00.000=0;00:00:00.240=1</property>
    <property name="kdenlive:collapsed">0</property>
   </filter>
   <filter id="filter1817" in="00:00:11.720" out="00:00:12.640">
    <property name="start">1</property>
    <property name="level">1</property>
    <property name="mlt_service">brightness</property>
    <property name="kdenlive_id">fade_to_black</property>
    <property name="alpha">00:00:00.000=1;00:00:00.920=0</property>
    <property name="kdenlive:collapsed">0</property>
   </filter>
  </entry>
  <blank length="00:00:07.200"/>
  <entry producer="producer709" in="00:00:00.000" out="00:00:04.600">
   <property name="kdenlive:id">231</property>
   <filter id="filter1818">
    <property name="rotate_center">1</property>
    <property name="mlt_service">qtblend</property>
    <property name="kdenlive_id">qtblend</property>
    <property name="rect">00:00:00.000=0 1080 1920 1080 1.000000;00:00:00.240=0 -51 1920 1080 1.000000;00:00:00.360=0 0 1920 1080 1.000000;00:00:04.240=0 0 1920 1080 1.000000;00:00:04.360=0 53 1920 1080 1.000000;00:00:04.600=0 -1080 1920 1080 1.000000</property>
    <property name="rotation">00:00:00.000=0;00:00:00.240=0;00:00:00.360=0;00:00:04.240=0;00:00:04.360=0;00:00:04.600=0</property>
    <property name="compositing">0</property>
    <property name="distort">0</property>
   </filter>
  </entry>
  <blank length="00:00:12.880"/>
  <entry producer="producer710" in="00:00:00.000" out="00:00:27.360">
   <property name="kdenlive:id">355</property>
   <filter id="filter1819">
    <property name="rotate_center">1</property>
    <property name="mlt_service">qtblend</property>
    <property name="kdenlive_id">qtblend</property>
    <property name="rect">00:00:00.000=0 86 1920 1080 1.000000;00:00:00.240=0 -34 1920 1080 1.000000;00:00:00.360=0 0 1920 1080 1.000000</property>
    <property name="rotation">00:00:00.000=0;00:00:00.240=0;00:00:00.360=0</property>
    <property name="compositing">0</property>
    <property name="distort">0</property>
    <property name="kdenlive:collapsed">1</property>
   </filter>
   <filter id="filter1820" out="00:00:00.240">
    <property name="start">1</property>
    <property name="level">1</property>
    <property name="mlt_service">brightness</property>
    <property name="kdenlive_id">fade_from_black</property>
    <property name="alpha">00:00:00.000=0;00:00:00.240=1</property>
    <property name="kdenlive:collapsed">1</property>
   </filter>
   <filter id="filter1821" in="00:00:27.120" out="00:00:27.360">
    <property name="start">1</property>
    <property name="level">1</property>
    <property name="mlt_service">brightness</property>
    <property name="kdenlive_id">fade_to_black</property>
    <property name="alpha">00:00:00.000=1;00:00:00.240=0</property>
    <property name="kdenlive:collapsed">0</property>
   </filter>
  </entry>
  <entry producer="producer710" in="00:00:00.000" out="00:00:08.960">
   <property name="kdenlive:id">355</property>
   <filter id="filter1822" out="00:00:00.240">
    <property name="start">1</property>
    <property name="level">1</property>
    <property name="mlt_service">brightness</property>
    <property name="kdenlive_id">fade_from_black</property>
    <property name="alpha">00:00:00.000=0;00:00:00.240=1</property>
    <property name="kdenlive:collapsed">0</property>
   </filter>
   <filter id="filter1823" in="00:00:08.720" out="00:00:08.960">
    <property name="start">1</property>
    <property name="level">1</property>
    <property name="mlt_service">brightness</property>
    <property name="kdenlive_id">fade_to_black</property>
    <property name="alpha">00:00:00.000=1;00:00:00.240=0</property>
    <property name="kdenlive:collapsed">0</property>
   </filter>
  </entry>
  <entry producer="producer710" in="00:00:00.000" out="00:00:38.520">
   <property name="kdenlive:id">355</property>
   <filter id="filter1824" out="00:00:00.240">
    <property name="start">1</property>
    <property name="level">1</property>
    <property name="mlt_service">brightness</property>
    <property name="kdenlive_id">fade_from_black</property>
    <property name="alpha">00:00:00.000=0;00:00:00.240=1</property>
    <property name="kdenlive:collapsed">0</property>
   </filter>
   <filter id="filter1825" in="00:00:37.600" out="00:00:38.520">
    <property name="start">1</property>
    <property name="level">1</property>
    <property name="mlt_service">brightness</property>
    <property name="kdenlive_id">fade_to_black</property>
    <property name="alpha">00:00:00.000=1;00:00:00.920=0</property>
    <property name="kdenlive:collapsed">0</property>
   </filter>
  </entry>
  <blank length="00:00:08.720"/>
  <entry producer="producer709" in="00:00:00.000" out="00:00:23.680">
   <property name="kdenlive:id">231</property>
   <filter id="filter1826">
    <property name="rotate_center">1</property>
    <property name="mlt_service">qtblend</property>
    <property name="kdenlive_id">qtblend</property>
    <property name="rect">00:00:00.000=0 1080 1920 1080 1.000000;00:00:00.240=0 -50 1920 1080 1.000000;00:00:00.360=0 0 1920 1080 1.000000;00:00:23.320=0 0 1920 1080 1.000000;00:00:23.440=0 38 1920 1080 1.000000;00:00:23.680=0 -1080 1920 1080 1.000000</property>
    <property name="rotation">00:00:00.000=0;00:00:00.240=0;00:00:00.360=0;00:00:23.320=0;00:00:23.440=0;00:00:23.680=0</property>
    <property name="compositing">0</property>
    <property name="distort">0</property>
   </filter>
  </entry>
  <blank length="00:00:03.880"/>
  <entry producer="producer717" in="00:00:00.000" out="00:00:10.920">
   <property name="kdenlive:id">782</property>
   <property name="kdenlive:activeeffect">1</property>
   <filter id="filter1827">
    <property name="rotate_center">1</property>
    <property name="mlt_service">qtblend</property>
    <property name="kdenlive_id">qtblend</property>
    <property name="rect">00:00:00.000=-128 0 1920 1080 1.000000</property>
    <property name="rotation">00:00:00.000=0</property>
    <property name="compositing">0</property>
    <property name="distort">0</property>
    <property name="kdenlive:collapsed">1</property>
   </filter>
   <filter id="filter1828">
    <property name="rotate_center">1</property>
    <property name="mlt_service">qtblend</property>
    <property name="kdenlive_id">qtblend</property>
    <property name="rect">00:00:00.000=960 540 960 540 1.000000</property>
    <property name="rotation">00:00:00.000=0</property>
    <property name="compositing">0</property>
    <property name="distort">0</property>
    <property name="kdenlive:collapsed">1</property>
   </filter>
  </entry>
  <entry producer="producer717" in="00:00:16.320" out="00:00:19.680">
   <property name="kdenlive:id">782</property>
   <filter id="filter1829">
    <property name="rotate_center">1</property>
    <property name="mlt_service">qtblend</property>
    <property name="kdenlive_id">qtblend</property>
    <property name="rect">00:00:16.320=-128 0 1920 1080 1.000000</property>
    <property name="rotation">00:00:16.320=0</property>
    <property name="compositing">0</property>
    <property name="distort">0</property>
    <property name="kdenlive:collapsed">1</property>
   </filter>
   <filter id="filter1830">
    <property name="rotate_center">1</property>
    <property name="mlt_service">qtblend</property>
    <property name="kdenlive_id">qtblend</property>
    <property name="rect">00:00:16.320=960 540 960 540 1.000000</property>
    <property name="rotation">00:00:16.320=0</property>
    <property name="compositing">0</property>
    <property name="distort">0</property>
    <property name="kdenlive:collapsed">0</property>
   </filter>
  </entry>
  <blank length="00:00:06.080"/>
  <entry producer="producer156" in="00:00:00.000" out="00:00:03.360">
   <property name="kdenlive:id">549</property>
   <filter id="filter1831">
    <property name="mode">alpha</property>
    <property name="alpha_operation">clear</property>
    <property name="invert">0</property>
    <property name="feather">0</property>
    <property name="feather_passes">1</property>
    <property name="mlt_service">rotoscoping</property>
    <property name="kdenlive_id">rotoscoping</property>
    <property name="spline">{
    "000": [
        [
            [
                -0.018118466898954702,
                0.29195046439628486
            ],
            [
                -0.024390243902439025,
                0.36377708978328177
            ],
            [
                0.02404181184668989,
                0.37058823529411766
            ]
        ],
        [
            [
                0.16933797909407666,
                0.39102167182662545
            ],
            [
                0.21777003484320556,
                0.39783281733746134
            ],
            [
                0.23937282229965154,
                0.37863777089783285
            ]
        ],
        [
            [
                0.32160278745644605,
                0.33343653250773997
            ],
            [
                0.343205574912892,
                0.3142414860681115
            ],
            [
                0.35574912891986066,
                0.27399380804953566
            ]
        ],
        [
            [
                0.40731707317073174,
                0.15944272445820437
            ],
            [
                0.4198606271777004,
                0.1191950464396285
            ],
            [
                0.4226480836236934,
                0.10000000000000002
            ]
        ],
        [
            [
                0.39965156794425094,
                0.0238390092879257
            ],
            [
                0.4024390243902439,
                0.0046439628482972135
            ],
            [
                0.3233449477351916,
                0.0046439628482972135
            ]
        ],
        [
            [
                0.08606271777003485,
                0.0046439628482972135
            ],
            [
                0.006968641114982578,
                0.0046439628482972135
            ],
            [
                0.0006968641114982576,
                0.07647058823529412
            ]
        ]
    ]
}
</property>
   </filter>
   <filter id="filter1832">
    <property name="rotate_center">1</property>
    <property name="mlt_service">qtblend</property>
    <property name="kdenlive_id">qtblend</property>
    <property name="rect">00:00:00.000=320 180 1279 719 1.000000</property>
    <property name="rotation">00:00:00.000=0</property>
    <property name="compositing">0</property>
    <property name="distort">0</property>
   </filter>
  </entry>
  <blank length="00:00:02.360"/>
  <entry producer="producer647" in="00:00:00.000" out="00:00:21.520">
   <property name="kdenlive:id">786</property>
   <filter id="filter1833" out="00:00:00.240">
    <property name="start">1</property>
    <property name="level">1</property>
    <property name="mlt_service">brightness</property>
    <property name="kdenlive_id">fade_from_black</property>
    <property name="alpha">00:00:00.000=0;00:00:00.240=1</property>
   </filter>
   <filter id="filter1834" in="00:00:20.600" out="00:00:21.520">
    <property name="start">1</property>
    <property name="level">1</property>
    <property name="mlt_service">brightness</property>
    <property name="kdenlive_id">fade_to_black</property>
    <property name="alpha">00:00:00.000=1;00:00:00.920=0</property>
   </filter>
  </entry>
  <blank length="00:00:23.280"/>
  <entry producer="producer709" in="00:00:00.000" out="00:00:17.280">
   <property name="kdenlive:id">231</property>
   <filter id="filter1835">
    <property name="rotate_center">1</property>
    <property name="mlt_service">qtblend</property>
    <property name="kdenlive_id">qtblend</property>
    <property name="rect">00:00:00.000=0 1080 1920 1080 1.000000;00:00:00.240=0 -55 1920 1080 1.000000;00:00:00.360=0 0 1920 1080 1.000000;00:00:16.920=0 0 1920 1080 1.000000;00:00:17.040=0 53 1920 1080 1.000000;00:00:17.280=0 -1080 1920 1080 1.000000</property>
    <property name="rotation">00:00:00.000=0;00:00:00.240=0;00:00:00.360=0;00:00:16.920=0;00:00:17.040=0;00:00:17.280=0</property>
    <property name="compositing">0</property>
    <property name="distort">0</property>
    <property name="kdenlive:collapsed">0</property>
   </filter>
  </entry>
  <blank length="00:00:07.120"/>
  <entry producer="producer661" in="00:00:00.000" out="00:01:14.560">
   <property name="kdenlive:id">810</property>
   <filter id="filter1836" out="00:00:00.240">
    <property name="start">1</property>
    <property name="level">1</property>
    <property name="mlt_service">brightness</property>
    <property name="kdenlive_id">fade_from_black</property>
    <property name="alpha">00:00:00.000=0;00:00:00.240=1</property>
   </filter>
   <filter id="filter1837" in="00:01:13.640" out="00:01:14.560">
    <property name="start">1</property>
    <property name="level">1</property>
    <property name="mlt_service">brightness</property>
    <property name="kdenlive_id">fade_to_black</property>
    <property name="alpha">00:00:00.000=1;00:00:00.920=0</property>
   </filter>
  </entry>
  <blank length="00:00:41.040"/>
  <entry producer="producer710" in="00:00:00.000" out="00:00:20.120">
   <property name="kdenlive:id">355</property>
   <filter id="filter1838">
    <property name="rotate_center">1</property>
    <property name="mlt_service">qtblend</property>
    <property name="kdenlive_id">qtblend</property>
    <property name="rect">00:00:00.000=0 86 1920 1080 1.000000;00:00:00.240=0 -34 1920 1080 1.000000;00:00:00.360=0 0 1920 1080 1.000000</property>
    <property name="rotation">00:00:00.000=0;00:00:00.240=0;00:00:00.360=0</property>
    <property name="compositing">0</property>
    <property name="distort">0</property>
    <property name="kdenlive:collapsed">0</property>
   </filter>
   <filter id="filter1839" out="00:00:00.240">
    <property name="start">1</property>
    <property name="level">1</property>
    <property name="mlt_service">brightness</property>
    <property name="kdenlive_id">fade_from_black</property>
    <property name="alpha">00:00:00.000=0;00:00:00.240=1</property>
    <property name="kdenlive:collapsed">0</property>
   </filter>
   <filter id="filter1840" in="00:00:19.200" out="00:00:20.120">
    <property name="start">1</property>
    <property name="level">1</property>
    <property name="mlt_service">brightness</property>
    <property name="kdenlive_id">fade_to_black</property>
    <property name="alpha">00:00:00.000=1;00:00:00.920=0</property>
    <property name="kdenlive:collapsed">0</property>
   </filter>
  </entry>
  <blank length="00:00:19.680"/>
  <entry producer="producer709" in="00:00:00.000" out="00:00:29.640">
   <property name="kdenlive:id">231</property>
   <property name="kdenlive:activeeffect">-1</property>
   <filter id="filter1841">
    <property name="rotate_center">1</property>
    <property name="mlt_service">qtblend</property>
    <property name="kdenlive_id">qtblend</property>
    <property name="rect">00:00:00.000=0 1080 1920 1080 1.000000;00:00:00.240=0 -59 1920 1080 1.000000;00:00:00.360=0 0 1920 1080 1.000000;00:00:29.280=0 0 1920 1080 1.000000;00:00:29.400=0 66 1920 1080 1.000000;00:00:29.640=0 -1080 1920 1080 1.000000</property>
    <property name="rotation">00:00:00.000=0;00:00:00.240=0;00:00:00.360=0;00:00:29.280=0;00:00:29.400=0;00:00:29.640=0</property>
    <property name="compositing">0</property>
    <property name="distort">0</property>
   </filter>
  </entry>
  <blank length="00:00:01.320"/>
  <entry producer="producer539" in="00:00:00.000" out="00:00:03.240">
   <property name="kdenlive:id">661</property>
   <filter id="filter1842">
    <property name="rotate_center">1</property>
    <property name="mlt_service">qtblend</property>
    <property name="kdenlive_id">qtblend</property>
    <property name="rect">00:00:00.000=0 65 1920 1080 1.000000;00:00:00.240=0 0 1920 1080 1.000000</property>
    <property name="rotation">00:00:00.000=0;00:00:00.240=0</property>
    <property name="compositing">0</property>
    <property name="distort">0</property>
    <property name="kdenlive:collapsed">0</property>
   </filter>
   <filter id="filter1843" out="00:00:00.240">
    <property name="start">1</property>
    <property name="level">1</property>
    <property name="mlt_service">brightness</property>
    <property name="kdenlive_id">fade_from_black</property>
    <property name="alpha">00:00:00.000=0;00:00:00.240=1</property>
    <property name="kdenlive:collapsed">0</property>
   </filter>
  </entry>
  <blank length="00:00:26.720"/>
  <entry producer="producer669" in="00:00:00.000" out="00:00:13.480">
   <property name="kdenlive:id">788</property>
   <filter id="filter1844" out="00:00:00.240">
    <property name="start">1</property>
    <property name="level">1</property>
    <property name="mlt_service">brightness</property>
    <property name="kdenlive_id">fade_from_black</property>
    <property name="alpha">0=0;-1=1</property>
   </filter>
   <filter id="filter1845" in="00:00:12.560" out="00:00:13.480">
    <property name="start">1</property>
    <property name="level">1</property>
    <property name="mlt_service">brightness</property>
    <property name="kdenlive_id">fade_to_black</property>
    <property name="alpha">00:00:00.000=1;00:00:00.920=0</property>
   </filter>
  </entry>
  <blank length="00:00:23.640"/>
  <entry producer="producer673" in="00:00:00.000" out="00:01:11.560">
   <property name="kdenlive:id">792</property>
   <filter id="filter1846" out="00:00:00.240">
    <property name="start">1</property>
    <property name="level">1</property>
    <property name="mlt_service">brightness</property>
    <property name="kdenlive_id">fade_from_black</property>
    <property name="alpha">00:00:00.000=0;00:00:00.240=1</property>
   </filter>
   <filter id="filter1847" in="00:01:10.680" out="00:01:11.600">
    <property name="start">1</property>
    <property name="level">1</property>
    <property name="mlt_service">brightness</property>
    <property name="kdenlive_id">fade_to_black</property>
    <property name="alpha">00:00:00.000=1;00:00:00.920=0</property>
   </filter>
  </entry>
  <blank length="00:00:24.680"/>
  <entry producer="producer709" in="00:00:00.000" out="00:00:21.600">
   <property name="kdenlive:id">231</property>
   <property name="kdenlive:activeeffect">-1</property>
   <filter id="filter1848">
    <property name="rotate_center">1</property>
    <property name="mlt_service">qtblend</property>
    <property name="kdenlive_id">qtblend</property>
    <property name="rect">00:00:00.000=0 1080 1920 1080 1.000000;00:00:00.240=0 -43 1920 1080 1.000000;00:00:00.360=0 0 1920 1080 1.000000;00:00:21.240=0 0 1920 1080 1.000000;00:00:21.360=0 66 1920 1080 1.000000;00:00:21.600=0 -1080 1920 1080 1.000000</property>
    <property name="rotation">00:00:00.000=0;00:00:00.240=0;00:00:00.360=0;00:00:21.240=0;00:00:21.360=0;00:00:21.600=0</property>
    <property name="compositing">0</property>
    <property name="distort">0</property>
    <property name="kdenlive:collapsed">0</property>
   </filter>
  </entry>
  <blank length="00:00:11.960"/>
  <entry producer="producer718" in="00:00:00.000" out="00:01:22.040">
   <property name="kdenlive:id">852</property>
   <filter id="filter1849" out="00:00:01.600">
    <property name="start">1</property>
    <property name="level">1</property>
    <property name="mlt_service">brightness</property>
    <property name="kdenlive_id">fade_from_black</property>
    <property name="alpha">00:00:00.000=0;00:00:01.600=1</property>
    <property name="kdenlive:collapsed">0</property>
   </filter>
   <filter id="filter1850" in="00:01:20.760" out="00:01:22.040">
    <property name="start">1</property>
    <property name="level">1</property>
    <property name="mlt_service">brightness</property>
    <property name="kdenlive_id">fade_to_black</property>
    <property name="alpha">00:00:00.000=1;00:00:01.280=0</property>
   </filter>
  </entry>
  <blank length="00:00:15.480"/>
  <entry producer="producer709" in="00:00:00.000" out="00:00:09.920">
   <property name="kdenlive:id">231</property>
   <property name="kdenlive:activeeffect">-1</property>
   <filter id="filter1851">
    <property name="rotate_center">1</property>
    <property name="mlt_service">qtblend</property>
    <property name="kdenlive_id">qtblend</property>
    <property name="rect">00:00:00.000=0 1080 1920 1080 1.000000;00:00:00.240=0 -65 1920 1080 1.000000;00:00:00.360=0 0 1920 1080 1.000000;00:00:09.560=0 0 1920 1080 1.000000;00:00:09.680=0 59 1920 1080 1.000000;00:00:09.920=0 -1080 1920 1080 1.000000</property>
    <property name="rotation">00:00:00.000=0;00:00:00.240=0;00:00:00.360=0;00:00:09.560=0;00:00:09.680=0;00:00:09.920=0</property>
    <property name="compositing">0</property>
    <property name="distort">0</property>
   </filter>
  </entry>
  <blank length="00:00:25.800"/>
  <entry producer="producer719" in="00:00:00.000" out="00:00:36.360">
   <property name="kdenlive:id">893</property>
   <filter id="filter1852" out="00:00:00.240">
    <property name="start">1</property>
    <property name="level">1</property>
    <property name="mlt_service">brightness</property>
    <property name="kdenlive_id">fade_from_black</property>
    <property name="alpha">00:00:00.000=0;00:00:00.240=1</property>
   </filter>
   <filter id="filter1853" in="00:00:35.480" out="00:00:36.400">
    <property name="start">1</property>
    <property name="level">1</property>
    <property name="mlt_service">brightness</property>
    <property name="kdenlive_id">fade_to_black</property>
    <property name="alpha">00:00:00.000=1;00:00:00.920=0</property>
   </filter>
  </entry>
 </playlist>
 <playlist id="playlist21"/>
 <tractor id="tractor10" in="00:00:00.000" out="01:12:45.280">
  <property name="kdenlive:trackheight">67</property>
  <property name="kdenlive:timeline_active">1</property>
  <property name="kdenlive:collapsed">0</property>
  <property name="kdenlive:thumbs_format"/>
  <property name="kdenlive:audio_rec"/>
  <track hide="audio" producer="playlist20"/>
  <track hide="audio" producer="playlist21"/>
 </tractor>
 <producer id="producer720" in="00:00:00.000" out="00:00:34.280">
  <property name="length">858</property>
  <property name="eof">pause</property>
  <property name="resource">/home/liquidzulu/Pictures/yt/animation/output/project/squiggly-two-thirds/.all.png</property>
  <property name="ttl">1</property>
  <property name="aspect_ratio">1</property>
  <property name="progressive">1</property>
  <property name="seekable">1</property>
  <property name="format">2</property>
  <property name="meta.media.width">1920</property>
  <property name="meta.media.height">1080</property>
  <property name="mlt_service">qimage</property>
  <property name="kdenlive:clipname">Squiggly Border</property>
  <property name="low-pass">0</property>
  <property name="animation"/>
  <property name="luma_file"/>
  <property name="luma_duration">25</property>
  <property name="fade">0</property>
  <property name="crop">0</property>
  <property name="softness">0</property>
  <property name="loop">1</property>
  <property name="kdenlive:duration">00:00:12:08</property>
  <property name="kdenlive:folderid">218</property>
  <property name="kdenlive:id">231</property>
  <property name="kdenlive:clip_type">2</property>
  <property name="kdenlive:file_hash">98ba2f58a7b8ff51461b91634c07a5c8</property>
  <property name="xml">was here</property>
  <property name="set.test_audio">1</property>
  <property name="set.test_image">0</property>
 </producer>
 <producer id="producer721" in="00:00:00.000" out="00:00:19.680">
  <property name="length">00:00:19.720</property>
  <property name="eof">pause</property>
  <property name="resource">/home/liquidzulu/Pictures/yt/animation/output/project/footnotes/footnote-25/.all.png</property>
  <property name="ttl">1</property>
  <property name="aspect_ratio">1</property>
  <property name="progressive">1</property>
  <property name="seekable">1</property>
  <property name="format">2</property>
  <property name="meta.media.width">1920</property>
  <property name="meta.media.height">1080</property>
  <property name="mlt_service">qimage</property>
  <property name="kdenlive:clipname">footnotes-25</property>
  <property name="low-pass">0</property>
  <property name="animation"/>
  <property name="luma_file"/>
  <property name="luma_duration">25</property>
  <property name="fade">0</property>
  <property name="crop">0</property>
  <property name="softness">0</property>
  <property name="loop">0</property>
  <property name="kdenlive:duration">00:00:19:18</property>
  <property name="kdenlive:folderid">-1</property>
  <property name="kdenlive:id">524</property>
  <property name="kdenlive:clip_type">2</property>
  <property name="kdenlive:file_hash">4755fa00482763fe98c71c0500f5458a</property>
  <property name="xml">was here</property>
  <property name="set.test_audio">1</property>
  <property name="set.test_image">0</property>
 </producer>
 <chain id="chain462" out="00:56:37.840">
  <property name="length">84947</property>
  <property name="eof">pause</property>
  <property name="resource">b-roll/Here's What Ethical AI Really Means [AaU6tI2pb3M].webm</property>
  <property name="mlt_service">avformat-novalidate</property>
  <property name="seekable">1</property>
  <property name="format">3</property>
  <property name="audio_index">-1</property>
  <property name="video_index">0</property>
  <property name="kdenlive:clipname"/>
  <property name="kdenlive:clip_type">0</property>
  <property name="kdenlive:folderid">14</property>
  <property name="kdenlive:id">763</property>
  <property name="kdenlive:file_size">3253069716</property>
  <property name="kdenlive:file_hash">95f641f5e157428d4a2ff1a7e579fd7e</property>
  <property name="kdenlive:audio_max1">202</property>
  <property name="kdenlive:active_streams">-1</property>
  <property name="set.test_audio">1</property>
  <property name="meta.media.nb_streams">2</property>
  <property name="meta.media.0.stream.type">video</property>
  <property name="meta.media.0.stream.frame_rate">30</property>
  <property name="meta.media.0.stream.sample_aspect_ratio">1</property>
  <property name="meta.media.0.codec.width">3840</property>
  <property name="meta.media.0.codec.height">2160</property>
  <property name="meta.media.0.codec.rotate">0</property>
  <property name="meta.media.0.codec.pix_fmt">yuv420p</property>
  <property name="meta.media.0.codec.sample_aspect_ratio">0</property>
  <property name="meta.media.0.codec.colorspace">709</property>
  <property name="meta.media.0.codec.color_trc">1</property>
  <property name="meta.media.0.codec.name">vp9</property>
  <property name="meta.media.0.codec.long_name">Google VP9</property>
  <property name="meta.media.0.codec.bit_rate">0</property>
  <property name="meta.attr.0.stream.language.markup">eng</property>
  <property name="meta.attr.0.stream.DURATION.markup">00:56:37.833000000</property>
  <property name="meta.media.1.stream.type">audio</property>
  <property name="meta.media.1.codec.sample_fmt">fltp</property>
  <property name="meta.media.1.codec.sample_rate">48000</property>
  <property name="meta.media.1.codec.channels">2</property>
  <property name="meta.media.1.codec.name">opus</property>
  <property name="meta.media.1.codec.long_name">Opus</property>
  <property name="meta.media.1.codec.bit_rate">0</property>
  <property name="meta.attr.1.stream.language.markup">eng</property>
  <property name="meta.attr.1.stream.DURATION.markup">00:56:37.861000000</property>
  <property name="meta.attr.ENCODER.markup">Lavf59.27.100</property>
  <property name="meta.media.sample_aspect_num">1</property>
  <property name="meta.media.sample_aspect_den">1</property>
  <property name="meta.media.frame_rate_num">30</property>
  <property name="meta.media.frame_rate_den">1</property>
  <property name="meta.media.colorspace">709</property>
  <property name="meta.media.color_trc">1</property>
  <property name="meta.media.has_b_frames">0</property>
  <property name="meta.media.width">3840</property>
  <property name="meta.media.height">2160</property>
  <property name="meta.media.color_range">mpeg</property>
  <property name="xml">was here</property>
  <property name="meta.media.top_field_first">0</property>
  <property name="meta.media.progressive">1</property>
  <property name="set.test_image">0</property>
  <property name="mute_on_pause">1</property>
 </chain>
 <producer id="producer722" in="00:00:00.000" out="00:00:19.680">
  <property name="length">00:00:19.720</property>
  <property name="eof">pause</property>
  <property name="resource">/home/liquidzulu/Pictures/yt/animation/output/project/footnotes/footnote-66/.all.png</property>
  <property name="ttl">1</property>
  <property name="aspect_ratio">1</property>
  <property name="progressive">1</property>
  <property name="seekable">1</property>
  <property name="format">2</property>
  <property name="meta.media.width">1920</property>
  <property name="meta.media.height">1080</property>
  <property name="mlt_service">qimage</property>
  <property name="kdenlive:clipname">footnote-66</property>
  <property name="low-pass">0</property>
  <property name="animation"/>
  <property name="luma_file"/>
  <property name="luma_duration">25</property>
  <property name="fade">0</property>
  <property name="crop">0</property>
  <property name="softness">0</property>
  <property name="loop">0</property>
  <property name="kdenlive:duration">00:00:19:18</property>
  <property name="kdenlive:folderid">-1</property>
  <property name="kdenlive:id">783</property>
  <property name="kdenlive:clip_type">2</property>
  <property name="kdenlive:file_hash">bc7e51c3d00d27c8ce4e88903ce813eb</property>
  <property name="xml">was here</property>
  <property name="set.test_audio">1</property>
  <property name="set.test_image">0</property>
 </producer>
 <producer id="producer723" in="00:00:00.000" out="00:00:04.960">
  <property name="length">00:00:05.000</property>
  <property name="eof">pause</property>
  <property name="resource">quotes/out/abhishek-gupta-c0-q0.png</property>
  <property name="ttl">25</property>
  <property name="aspect_ratio">1</property>
  <property name="progressive">1</property>
  <property name="seekable">1</property>
  <property name="format">2</property>
  <property name="meta.media.width">1920</property>
  <property name="meta.media.height">1080</property>
  <property name="mlt_service">qimage</property>
  <property name="kdenlive:clipname"/>
  <property name="kdenlive:duration">00:00:05:00</property>
  <property name="kdenlive:folderid">345</property>
  <property name="kdenlive:id">891</property>
  <property name="kdenlive:clip_type">2</property>
  <property name="kdenlive:file_size">29562</property>
  <property name="kdenlive:file_hash">d9b3b8b187425d95c62049031314f2bb</property>
 </producer>
 <producer id="producer724" in="00:00:00.000" out="00:00:34.080">
  <property name="length">853</property>
  <property name="eof">pause</property>
  <property name="resource">quotes/out/abhishek-gupta-c0-q1.png</property>
  <property name="ttl">25</property>
  <property name="aspect_ratio">1</property>
  <property name="progressive">1</property>
  <property name="seekable">1</property>
  <property name="format">2</property>
  <property name="meta.media.width">1920</property>
  <property name="meta.media.height">1080</property>
  <property name="mlt_service">qimage</property>
  <property name="kdenlive:clipname"/>
  <property name="kdenlive:duration">00:00:05:00</property>
  <property name="kdenlive:folderid">345</property>
  <property name="kdenlive:id">892</property>
  <property name="kdenlive:clip_type">2</property>
  <property name="kdenlive:file_size">95655</property>
  <property name="kdenlive:file_hash">e766c8fbec5ae589c326bec652cb64d9</property>
 </producer>
 <playlist id="playlist22">
  <blank length="00:03:16.280"/>
  <entry producer="producer121" in="00:00:00.000" out="00:00:00.280">
   <property name="kdenlive:id">220</property>
   <filter id="filter1854" out="00:00:00.280">
    <property name="start">1</property>
    <property name="level">1</property>
    <property name="mlt_service">brightness</property>
    <property name="kdenlive_id">fade_from_black</property>
    <property name="alpha">00:00:00.000=0;00:00:00.280=1</property>
    <property name="kdenlive:collapsed">0</property>
   </filter>
  </entry>
  <blank length="00:05:11.080"/>
  <entry producer="producer314" in="00:00:00.000" out="00:00:29.360">
   <property name="kdenlive:id">348</property>
   <filter id="filter1855" out="00:00:00.240">
    <property name="start">1</property>
    <property name="level">1</property>
    <property name="mlt_service">brightness</property>
    <property name="kdenlive_id">fade_from_black</property>
    <property name="alpha">00:00:00.000=0;00:00:00.240=1</property>
    <property name="kdenlive:collapsed">0</property>
   </filter>
   <filter id="filter1856" in="00:00:28.440" out="00:00:29.360">
    <property name="start">1</property>
    <property name="level">1</property>
    <property name="mlt_service">brightness</property>
    <property name="kdenlive_id">fade_to_black</property>
    <property name="alpha">00:00:00.000=1;00:00:00.920=0</property>
   </filter>
  </entry>
  <blank length="00:00:41.200"/>
  <entry producer="producer720" in="00:00:00.000" out="00:00:34.000">
   <property name="kdenlive:id">231</property>
   <filter id="filter1857">
    <property name="rotate_center">1</property>
    <property name="mlt_service">qtblend</property>
    <property name="kdenlive_id">qtblend</property>
    <property name="rect">00:00:00.000=0 1080 1920 1080 1.000000;00:00:00.480=0 -69 1920 1080 1.000000;00:00:00.600=0 0 1920 1080 1.000000;00:00:33.640=0 0 1920 1080 1.000000;00:00:33.760=0 56 1920 1080 1.000000;00:00:34.000=0 -1080 1920 1080 1.000000</property>
    <property name="rotation">00:00:00.000=0;00:00:00.480=0;00:00:00.600=0;00:00:33.640=0;00:00:33.760=0;00:00:34.000=0</property>
    <property name="compositing">0</property>
    <property name="distort">0</property>
   </filter>
  </entry>
  <blank length="00:02:12.400"/>
  <entry producer="producer720" in="00:00:00.000" out="00:00:09.480">
   <property name="kdenlive:id">231</property>
   <filter id="filter1858">
    <property name="rotate_center">1</property>
    <property name="mlt_service">qtblend</property>
    <property name="kdenlive_id">qtblend</property>
    <property name="rect">00:00:00.000=0 1080 1920 1080 1.000000;00:00:00.240=0 -39 1920 1080 1.000000;00:00:00.360=0 0 1920 1080 1.000000;00:00:09.080~=0 0 1920 1080 1.000000;00:00:09.480~=-528 -297 2976 1674 1.000000</property>
    <property name="rotation">00:00:00.000=0;00:00:00.240=0;00:00:00.360=0;00:00:09.080~=0;00:00:09.480~=0</property>
    <property name="compositing">0</property>
    <property name="distort">0</property>
    <property name="kdenlive:collapsed">1</property>
   </filter>
   <filter id="filter1859" in="00:00:09.080" out="00:00:09.480">
    <property name="start">1</property>
    <property name="level">1</property>
    <property name="mlt_service">brightness</property>
    <property name="kdenlive_id">fade_to_black</property>
    <property name="alpha">00:00:00.000=1;00:00:00.400=0</property>
    <property name="kdenlive:collapsed">1</property>
   </filter>
  </entry>
  <entry producer="producer342" in="00:00:00.000" out="00:00:59.960">
   <property name="kdenlive:id">377</property>
   <property name="kdenlive:activeeffect">1</property>
   <filter id="filter1860" out="00:00:00.240">
    <property name="start">1</property>
    <property name="level">1</property>
    <property name="mlt_service">brightness</property>
    <property name="kdenlive_id">fade_from_black</property>
    <property name="alpha">00:00:00.000=0;00:00:00.240=1</property>
    <property name="kdenlive:collapsed">0</property>
   </filter>
   <filter id="filter1861" in="00:00:59.040" out="00:00:59.960">
    <property name="start">1</property>
    <property name="level">1</property>
    <property name="mlt_service">brightness</property>
    <property name="kdenlive_id">fade_to_black</property>
    <property name="alpha">00:00:00.000=1;00:00:00.920=0</property>
    <property name="kdenlive:collapsed">0</property>
   </filter>
  </entry>
  <blank length="00:01:48.680"/>
  <entry producer="producer343" in="00:00:00.000" out="00:01:19.800">
   <property name="kdenlive:id">401</property>
   <property name="kdenlive:activeeffect">1</property>
   <filter id="filter1862" out="00:00:00.240">
    <property name="start">1</property>
    <property name="level">1</property>
    <property name="mlt_service">brightness</property>
    <property name="kdenlive_id">fade_from_black</property>
    <property name="alpha">00:00:00.000=0;00:00:00.240=1</property>
    <property name="kdenlive:collapsed">0</property>
   </filter>
   <filter id="filter1863" in="00:01:18.880" out="00:01:19.800">
    <property name="start">1</property>
    <property name="level">1</property>
    <property name="mlt_service">brightness</property>
    <property name="kdenlive_id">fade_to_black</property>
    <property name="alpha">00:00:00.000=1;00:00:00.920=0</property>
    <property name="kdenlive:collapsed">0</property>
   </filter>
  </entry>
  <blank length="00:00:41.520"/>
  <entry producer="producer344" in="00:00:00.000" out="00:00:05.200">
   <property name="kdenlive:id">407</property>
   <property name="kdenlive:activeeffect">2</property>
   <filter id="filter1864">
    <property name="rotate_center">1</property>
    <property name="mlt_service">qtblend</property>
    <property name="kdenlive_id">qtblend</property>
    <property name="rect">00:00:00.000=1058 297 864 486 1.000000</property>
    <property name="rotation">00:00:00.000=0</property>
    <property name="compositing">0</property>
    <property name="distort">0</property>
    <property name="kdenlive:collapsed">1</property>
   </filter>
   <filter id="filter1865">
    <property name="rotate_center">1</property>
    <property name="mlt_service">qtblend</property>
    <property name="kdenlive_id">qtblend</property>
    <property name="rect">00:00:00.000=0 1080 1920 1080 1.000000;00:00:00.240=0 -62 1920 1080 1.000000;00:00:00.360=0 0 1920 1080 1.000000</property>
    <property name="rotation">00:00:00.000=0;00:00:00.240=0;00:00:00.360=0</property>
    <property name="compositing">0</property>
    <property name="distort">0</property>
    <property name="kdenlive:collapsed">1</property>
   </filter>
   <filter id="filter1866">
    <property name="rotate_center">1</property>
    <property name="mlt_service">qtblend</property>
    <property name="kdenlive_id">qtblend</property>
    <property name="rect">00:00:00.000=138 0 1920 1080 1.000000;00:00:04.840=138 0 1920 1080 1.000000;00:00:04.960=138 68 1920 1080 1.000000;00:00:05.200=138 -1080 1920 1080 1.000000</property>
    <property name="rotation">00:00:00.000=0;00:00:04.840=0;00:00:04.960=0;00:00:05.200=0</property>
    <property name="compositing">0</property>
    <property name="distort">0</property>
    <property name="kdenlive:collapsed">0</property>
   </filter>
  </entry>
  <blank length="00:01:48.440"/>
  <entry producer="producer372" in="00:00:00.000" out="00:00:18.520">
   <property name="kdenlive:id">425</property>
   <filter id="filter1867" out="00:00:00.240">
    <property name="start">1</property>
    <property name="level">1</property>
    <property name="mlt_service">brightness</property>
    <property name="kdenlive_id">fade_from_black</property>
    <property name="alpha">00:00:00.000=0;00:00:00.240=1</property>
    <property name="kdenlive:collapsed">0</property>
   </filter>
   <filter id="filter1868" in="00:00:18.280" out="00:00:18.520">
    <property name="start">1</property>
    <property name="level">1</property>
    <property name="mlt_service">brightness</property>
    <property name="kdenlive_id">fade_to_black</property>
    <property name="alpha">00:00:00.000=1;00:00:00.240=0</property>
    <property name="kdenlive:collapsed">0</property>
   </filter>
  </entry>
  <entry producer="producer373" in="00:00:00.000" out="00:00:21.200">
   <property name="kdenlive:id">426</property>
   <filter id="filter1869" out="00:00:00.240">
    <property name="start">1</property>
    <property name="level">1</property>
    <property name="mlt_service">brightness</property>
    <property name="kdenlive_id">fade_from_black</property>
    <property name="alpha">00:00:00.000=0;00:00:00.240=1</property>
    <property name="kdenlive:collapsed">0</property>
   </filter>
   <filter id="filter1870" in="00:00:20.280" out="00:00:21.200">
    <property name="start">1</property>
    <property name="level">1</property>
    <property name="mlt_service">brightness</property>
    <property name="kdenlive_id">fade_to_black</property>
    <property name="alpha">00:00:00.000=1;00:00:00.920=0</property>
    <property name="kdenlive:collapsed">0</property>
   </filter>
  </entry>
  <blank length="00:00:09.600"/>
  <entry producer="producer720" in="00:00:00.000" out="00:00:05.040">
   <property name="kdenlive:id">231</property>
   <filter id="filter1871">
    <property name="rotate_center">1</property>
    <property name="mlt_service">qtblend</property>
    <property name="kdenlive_id">qtblend</property>
    <property name="rect">00:00:00.000=0 1080 1920 1080 1.000000;00:00:00.240=0 -67 1920 1080 1.000000;00:00:00.360=0 0 1920 1080 1.000000;00:00:04.680=0 0 1920 1080 1.000000;00:00:04.800=0 75 1920 1080 1.000000;00:00:05.040=0 -1080 1920 1080 1.000000</property>
    <property name="rotation">00:00:00.000=0;00:00:00.240=0;00:00:00.360=0;00:00:04.680=0;00:00:04.800=0;00:00:05.040=0</property>
    <property name="compositing">0</property>
    <property name="distort">0</property>
   </filter>
  </entry>
  <blank length="00:00:25.920"/>
  <entry producer="producer384" in="00:00:00.000" out="00:00:29.040">
   <property name="kdenlive:id">450</property>
   <filter id="filter1872" out="00:00:00.240">
    <property name="start">1</property>
    <property name="level">1</property>
    <property name="mlt_service">brightness</property>
    <property name="kdenlive_id">fade_from_black</property>
    <property name="alpha">00:00:00.000=0;00:00:00.240=1</property>
    <property name="kdenlive:collapsed">0</property>
   </filter>
   <filter id="filter1873" in="00:00:28.800" out="00:00:29.040">
    <property name="start">1</property>
    <property name="level">1</property>
    <property name="mlt_service">brightness</property>
    <property name="kdenlive_id">fade_to_black</property>
    <property name="alpha">00:00:00.000=1;00:00:00.240=0</property>
    <property name="kdenlive:collapsed">0</property>
   </filter>
  </entry>
  <entry producer="producer385" in="00:00:00.000" out="00:00:25.400">
   <property name="kdenlive:id">449</property>
   <filter id="filter1874" out="00:00:00.240">
    <property name="start">1</property>
    <property name="level">1</property>
    <property name="mlt_service">brightness</property>
    <property name="kdenlive_id">fade_from_black</property>
    <property name="alpha">00:00:00.000=0;00:00:00.240=1</property>
   </filter>
   <filter id="filter1875" in="00:00:24.480" out="00:00:25.400">
    <property name="start">1</property>
    <property name="level">1</property>
    <property name="mlt_service">brightness</property>
    <property name="kdenlive_id">fade_to_black</property>
    <property name="alpha">00:00:00.000=1;00:00:00.920=0</property>
   </filter>
  </entry>
  <blank length="00:02:30.920"/>
  <entry producer="producer438" in="00:00:00.000" out="00:01:14.960">
   <property name="kdenlive:id">483</property>
   <property name="kdenlive:activeeffect">1</property>
   <filter id="filter1876" out="00:00:00.240">
    <property name="start">1</property>
    <property name="level">1</property>
    <property name="mlt_service">brightness</property>
    <property name="kdenlive_id">fade_from_black</property>
    <property name="alpha">00:00:00.000=0;00:00:00.240=1</property>
    <property name="kdenlive:collapsed">0</property>
   </filter>
   <filter id="filter1877" in="00:01:14.040" out="00:01:14.960">
    <property name="start">1</property>
    <property name="level">1</property>
    <property name="mlt_service">brightness</property>
    <property name="kdenlive_id">fade_to_black</property>
    <property name="alpha">00:00:00.000=1;00:00:00.920=0</property>
    <property name="kdenlive:collapsed">0</property>
   </filter>
  </entry>
  <blank length="00:04:19.320"/>
  <entry producer="producer721" in="00:00:00.000" out="00:00:04.880">
   <property name="kdenlive:id">524</property>
  </entry>
  <entry producer="producer721" in="00:00:16.480" out="00:00:19.680">
   <property name="kdenlive:id">524</property>
  </entry>
  <blank length="00:01:57.240"/>
  <entry producer="producer440" in="00:00:00.000" out="00:00:06.600">
   <property name="kdenlive:id">532</property>
   <filter id="filter1878">
    <property name="rotate_center">1</property>
    <property name="mlt_service">qtblend</property>
    <property name="kdenlive_id">qtblend</property>
    <property name="rect">00:00:00.000=144 81 1632 918 1.000000</property>
    <property name="rotation">00:00:00.000=0</property>
    <property name="compositing">0</property>
    <property name="distort">0</property>
    <property name="kdenlive:collapsed">1</property>
   </filter>
   <filter id="filter1879">
    <property name="mode">alpha</property>
    <property name="alpha_operation">min</property>
    <property name="invert">0</property>
    <property name="feather">0</property>
    <property name="feather_passes">1</property>
    <property name="mlt_service">rotoscoping</property>
    <property name="kdenlive_id">rotoscoping</property>
    <property name="spline">{
    "000": [
        [
            [
                0.003484320557491289,
                0.2671826625386997
            ],
            [
                0.003484320557491289,
                0.11300309597523221
            ],
            [
                0.018118466898954706,
                0.11300309597523221
            ]
        ],
        [
            [
                0.06202090592334496,
                0.11300309597523221
            ],
            [
                0.07665505226480837,
                0.11300309597523221
            ],
            [
                0.07700348432055751,
                0.26656346749226006
            ]
        ],
        [
            [
                0.07804878048780488,
                0.7272445820433436
            ],
            [
                0.078397212543554,
                0.8808049535603716
            ],
            [
                0.06341463414634146,
                0.8814241486068112
            ]
        ],
        [
            [
                0.018466898954703832,
                0.8832817337461301
            ],
            [
                0.003484320557491289,
                0.8839009287925697
            ],
            [
                0.003484320557491289,
                0.7297213622291022
            ]
        ]
    ],
    "012": [
        [
            [
                0.003484320557491289,
                0.2671826625386997
            ],
            [
                0.003484320557491289,
                0.11300309597523221
            ],
            [
                0.018118466898954706,
                0.11300309597523221
            ]
        ],
        [
            [
                0.9226480836236933,
                0.10990712074303406
            ],
            [
                0.9372822299651568,
                0.10990712074303406
            ],
            [
                0.937630662020906,
                0.26346749226006205
            ]
        ],
        [
            [
                0.9386759581881533,
                0.7396284829721363
            ],
            [
                0.9390243902439025,
                0.8931888544891642
            ],
            [
                0.92404181184669,
                0.893808049535604
            ]
        ],
        [
            [
                0.018466898954703832,
                0.8832817337461301
            ],
            [
                0.003484320557491289,
                0.8839009287925697
            ],
            [
                0.003484320557491289,
                0.7297213622291022
            ]
        ]
    ]
}
</property>
    <property name="kdenlive:collapsed">1</property>
   </filter>
  </entry>
  <entry producer="producer440" in="00:00:00.000" out="00:00:00.440">
   <property name="kdenlive:id">532</property>
   <filter id="filter1880">
    <property name="rotate_center">1</property>
    <property name="mlt_service">qtblend</property>
    <property name="kdenlive_id">qtblend</property>
    <property name="rect">00:00:00.000=144 81 1632 918 1.000000</property>
    <property name="rotation">00:00:00.000=0</property>
    <property name="compositing">0</property>
    <property name="distort">0</property>
    <property name="kdenlive:collapsed">1</property>
   </filter>
   <filter id="filter1881">
    <property name="rotate_center">1</property>
    <property name="mlt_service">qtblend</property>
    <property name="kdenlive_id">qtblend</property>
    <property name="rect">00:00:00.000=0 0 1920 1080 1.000000;00:00:00.160=48 27 1824 1026 1.000000;00:00:00.440=48 -1080 1824 1026 1.000000</property>
    <property name="rotation">00:00:00.000=0;00:00:00.160=0;00:00:00.440=0</property>
    <property name="compositing">0</property>
    <property name="distort">0</property>
   </filter>
  </entry>
  <blank length="00:00:01.640"/>
  <entry producer="producer441" in="00:00:00.000" out="00:00:10.680">
   <property name="kdenlive:id">537</property>
   <property name="kdenlive:activeeffect">1</property>
   <filter id="filter1882">
    <property name="rotate_center">1</property>
    <property name="mlt_service">qtblend</property>
    <property name="kdenlive_id">qtblend</property>
    <property name="rect">00:00:00.000=144 81 1632 918 1.000000</property>
    <property name="rotation">00:00:00.000=0</property>
    <property name="compositing">0</property>
    <property name="distort">0</property>
    <property name="kdenlive:collapsed">1</property>
   </filter>
   <filter id="filter1883">
    <property name="mode">alpha</property>
    <property name="alpha_operation">min</property>
    <property name="invert">0</property>
    <property name="feather">0</property>
    <property name="feather_passes">1</property>
    <property name="mlt_service">rotoscoping</property>
    <property name="kdenlive_id">rotoscoping</property>
    <property name="spline">{
    "000": [
        [
            [
                0.003484320557491289,
                0.2671826625386997
            ],
            [
                0.003484320557491289,
                0.11300309597523221
            ],
            [
                0.018118466898954706,
                0.11300309597523221
            ]
        ],
        [
            [
                0.06202090592334496,
                0.11300309597523221
            ],
            [
                0.07665505226480837,
                0.11300309597523221
            ],
            [
                0.07700348432055751,
                0.26656346749226006
            ]
        ],
        [
            [
                0.07804878048780488,
                0.7272445820433436
            ],
            [
                0.078397212543554,
                0.8808049535603716
            ],
            [
                0.06341463414634146,
                0.8814241486068112
            ]
        ],
        [
            [
                0.018466898954703832,
                0.8832817337461301
            ],
            [
                0.003484320557491289,
                0.8839009287925697
            ],
            [
                0.003484320557491289,
                0.7297213622291022
            ]
        ]
    ],
    "012": [
        [
            [
                0.003484320557491289,
                0.2671826625386997
            ],
            [
                0.003484320557491289,
                0.11300309597523221
            ],
            [
                0.018118466898954706,
                0.11300309597523221
            ]
        ],
        [
            [
                0.9226480836236933,
                0.10990712074303406
            ],
            [
                0.9372822299651568,
                0.10990712074303406
            ],
            [
                0.937630662020906,
                0.26346749226006205
            ]
        ],
        [
            [
                0.9386759581881533,
                0.7396284829721363
            ],
            [
                0.9390243902439025,
                0.8931888544891642
            ],
            [
                0.92404181184669,
                0.893808049535604
            ]
        ],
        [
            [
                0.018466898954703832,
                0.8832817337461301
            ],
            [
                0.003484320557491289,
                0.8839009287925697
            ],
            [
                0.003484320557491289,
                0.7297213622291022
            ]
        ]
    ]
}
</property>
    <property name="kdenlive:collapsed">1</property>
   </filter>
  </entry>
  <entry producer="producer441" in="00:00:00.000" out="00:00:00.440">
   <property name="kdenlive:id">537</property>
   <filter id="filter1884">
    <property name="rotate_center">1</property>
    <property name="mlt_service">qtblend</property>
    <property name="kdenlive_id">qtblend</property>
    <property name="rect">00:00:00.000=144 81 1632 918 1.000000</property>
    <property name="rotation">00:00:00.000=0</property>
    <property name="compositing">0</property>
    <property name="distort">0</property>
    <property name="kdenlive:collapsed">1</property>
   </filter>
   <filter id="filter1885">
    <property name="rotate_center">1</property>
    <property name="mlt_service">qtblend</property>
    <property name="kdenlive_id">qtblend</property>
    <property name="rect">00:00:00.000=0 0 1920 1080 1.000000;00:00:00.160=48 27 1824 1026 1.000000;00:00:00.440=48 -1080 1824 1026 1.000000</property>
    <property name="rotation">00:00:00.000=0;00:00:00.160=0;00:00:00.440=0</property>
    <property name="compositing">0</property>
    <property name="distort">0</property>
    <property name="kdenlive:collapsed">1</property>
   </filter>
  </entry>
  <blank length="00:02:44.080"/>
  <entry producer="producer459" in="00:00:00.000" out="00:00:00.640">
   <property name="kdenlive:id">555</property>
   <property name="kdenlive:activeeffect">1</property>
   <filter id="filter1886" in="00:00:00.280" out="00:00:00.640">
    <property name="start">1</property>
    <property name="level">1</property>
    <property name="mlt_service">brightness</property>
    <property name="kdenlive_id">fade_to_black</property>
    <property name="alpha">00:00:00.000=1;00:00:00.360=0</property>
    <property name="kdenlive:collapsed">0</property>
   </filter>
   <filter id="filter1887">
    <property name="rotate_center">1</property>
    <property name="mlt_service">qtblend</property>
    <property name="kdenlive_id">qtblend</property>
    <property name="rect">00:00:00.000=144 81 1632 918 1.000000;00:00:00.040=-48 -27 2016 1134 1.000000;00:00:00.080=0 0 1920 1080 1.000000</property>
    <property name="rotation">00:00:00.000=0;00:00:00.040=0;00:00:00.080=0</property>
    <property name="compositing">0</property>
    <property name="distort">0</property>
    <property name="kdenlive:collapsed">0</property>
   </filter>
  </entry>
  <blank length="00:07:48.760"/>
  <entry producer="producer720" in="00:00:00.000" out="00:00:05.000">
   <property name="kdenlive:id">231</property>
   <filter id="filter1888">
    <property name="rotate_center">1</property>
    <property name="mlt_service">qtblend</property>
    <property name="kdenlive_id">qtblend</property>
    <property name="rect">00:00:00.000=0 1080 1920 1080 1.000000;00:00:00.240=0 -56 1920 1080 1.000000;00:00:00.360=0 0 1920 1080 1.000000;00:00:04.640=0 0 1920 1080 1.000000;00:00:04.760=0 65 1920 1080 1.000000;00:00:05.000=0 -1080 1920 1080 1.000000</property>
    <property name="rotation">00:00:00.000=0;00:00:00.240=0;00:00:00.360=0;00:00:04.640=0;00:00:04.760=0;00:00:05.000=0</property>
    <property name="compositing">0</property>
    <property name="distort">0</property>
    <property name="kdenlive:collapsed">0</property>
   </filter>
  </entry>
  <blank length="00:06:15.240"/>
  <entry producer="producer524" in="00:00:00.000" out="00:00:16.840">
   <property name="kdenlive:id">632</property>
   <filter id="filter1889" out="00:00:00.240">
    <property name="start">1</property>
    <property name="level">1</property>
    <property name="mlt_service">brightness</property>
    <property name="kdenlive_id">fade_from_black</property>
    <property name="alpha">00:00:00.000=0;00:00:00.240=1</property>
   </filter>
   <filter id="filter1890" in="00:00:16.600" out="00:00:16.840">
    <property name="start">1</property>
    <property name="level">1</property>
    <property name="mlt_service">brightness</property>
    <property name="kdenlive_id">fade_to_black</property>
    <property name="alpha">00:00:00.000=1;00:00:00.240=0</property>
   </filter>
  </entry>
  <entry producer="producer525" in="00:00:00.000" out="00:00:17.840">
   <property name="kdenlive:id">633</property>
   <filter id="filter1891" out="00:00:00.240">
    <property name="start">1</property>
    <property name="level">1</property>
    <property name="mlt_service">brightness</property>
    <property name="kdenlive_id">fade_from_black</property>
    <property name="alpha">00:00:00.000=0;00:00:00.240=1</property>
   </filter>
   <filter id="filter1892" in="00:00:16.920" out="00:00:17.840">
    <property name="start">1</property>
    <property name="level">1</property>
    <property name="mlt_service">brightness</property>
    <property name="kdenlive_id">fade_to_black</property>
    <property name="alpha">00:00:00.000=1;00:00:00.920=0</property>
   </filter>
  </entry>
  <blank length="00:00:01.600"/>
  <entry producer="producer579" in="00:00:00.000" out="00:00:17.840">
   <property name="kdenlive:id">640</property>
   <property name="kdenlive:activeeffect">1</property>
   <filter id="filter1893" out="00:00:00.240">
    <property name="start">1</property>
    <property name="level">1</property>
    <property name="mlt_service">brightness</property>
    <property name="kdenlive_id">fade_from_black</property>
    <property name="alpha">00:00:00.000=0;00:00:00.240=1</property>
    <property name="kdenlive:collapsed">0</property>
   </filter>
   <filter id="filter1894" in="00:00:17.600" out="00:00:17.840">
    <property name="start">1</property>
    <property name="level">1</property>
    <property name="mlt_service">brightness</property>
    <property name="kdenlive_id">fade_to_black</property>
    <property name="alpha">00:00:00.000=1;00:00:00.240=0</property>
    <property name="kdenlive:collapsed">0</property>
   </filter>
  </entry>
  <entry producer="producer580" in="00:00:00.000" out="00:00:20.000">
   <property name="kdenlive:id">641</property>
   <property name="kdenlive:activeeffect">1</property>
   <filter id="filter1895" out="00:00:00.240">
    <property name="start">1</property>
    <property name="level">1</property>
    <property name="mlt_service">brightness</property>
    <property name="kdenlive_id">fade_from_black</property>
    <property name="alpha">00:00:00.000=0;00:00:00.240=1</property>
    <property name="kdenlive:collapsed">0</property>
   </filter>
   <filter id="filter1896" in="00:00:19.080" out="00:00:20.000">
    <property name="start">1</property>
    <property name="level">1</property>
    <property name="mlt_service">brightness</property>
    <property name="kdenlive_id">fade_to_black</property>
    <property name="alpha">00:00:00.000=1;00:00:00.920=0</property>
    <property name="kdenlive:collapsed">0</property>
   </filter>
  </entry>
  <blank length="00:00:07.480"/>
  <entry producer="producer581" in="00:00:00.000" out="00:00:27.880">
   <property name="kdenlive:id">648</property>
   <filter id="filter1897" out="00:00:00.240">
    <property name="start">1</property>
    <property name="level">1</property>
    <property name="mlt_service">brightness</property>
    <property name="kdenlive_id">fade_from_black</property>
    <property name="alpha">00:00:00.000=0;00:00:00.240=1</property>
   </filter>
   <filter id="filter1898" in="00:00:27.640" out="00:00:27.880">
    <property name="start">1</property>
    <property name="level">1</property>
    <property name="mlt_service">brightness</property>
    <property name="kdenlive_id">fade_to_black</property>
    <property name="alpha">00:00:00.000=1;00:00:00.240=0</property>
   </filter>
  </entry>
  <entry producer="producer582" in="00:00:00.000" out="00:00:15.120">
   <property name="kdenlive:id">649</property>
   <filter id="filter1899" out="00:00:00.240">
    <property name="start">1</property>
    <property name="level">1</property>
    <property name="mlt_service">brightness</property>
    <property name="kdenlive_id">fade_from_black</property>
    <property name="alpha">00:00:00.000=0;00:00:00.240=1</property>
    <property name="kdenlive:collapsed">0</property>
   </filter>
   <filter id="filter1900" in="00:00:14.200" out="00:00:15.120">
    <property name="start">1</property>
    <property name="level">1</property>
    <property name="mlt_service">brightness</property>
    <property name="kdenlive_id">fade_to_black</property>
    <property name="alpha">00:00:00.000=1;00:00:00.920=0</property>
    <property name="kdenlive:collapsed">0</property>
   </filter>
  </entry>
  <blank length="00:00:15.160"/>
  <entry producer="producer583" in="00:00:00.000" out="00:00:07.720">
   <property name="kdenlive:id">662</property>
   <filter id="filter1901">
    <property name="rotate_center">1</property>
    <property name="mlt_service">qtblend</property>
    <property name="kdenlive_id">qtblend</property>
    <property name="rect">00:00:00.000=0 0 1920 1080 1.000000;00:00:07.360=0 0 1920 1080 1.000000;00:00:07.480=0 45 1920 1080 1.000000;00:00:07.720=0 -1080 1920 1080 1.000000</property>
    <property name="rotation">00:00:00.000=0;00:00:07.360=0;00:00:07.480=0;00:00:07.720=0</property>
    <property name="compositing">0</property>
    <property name="distort">0</property>
    <property name="kdenlive:collapsed">0</property>
   </filter>
  </entry>
  <blank length="00:01:54.440"/>
  <entry producer="producer584" in="00:00:00.000" out="00:00:27.800">
   <property name="kdenlive:id">691</property>
   <filter id="filter1902" out="00:00:00.240">
    <property name="start">1</property>
    <property name="level">1</property>
    <property name="mlt_service">brightness</property>
    <property name="kdenlive_id">fade_from_black</property>
    <property name="alpha">00:00:00.000=0;00:00:00.240=1</property>
   </filter>
   <filter id="filter1903" in="00:00:26.880" out="00:00:27.800">
    <property name="start">1</property>
    <property name="level">1</property>
    <property name="mlt_service">brightness</property>
    <property name="kdenlive_id">fade_to_black</property>
    <property name="alpha">00:00:00.000=1;00:00:00.920=0</property>
   </filter>
  </entry>
  <blank length="00:02:29.120"/>
  <entry producer="producer607" in="00:00:00.000" out="00:00:01.440">
   <property name="kdenlive:id">723</property>
   <filter id="filter1904">
    <property name="rotate_center">1</property>
    <property name="mlt_service">qtblend</property>
    <property name="kdenlive_id">qtblend</property>
    <property name="rect">00:00:00.000=144 81 1632 918 1.000000</property>
    <property name="rotation">00:00:00.000=0</property>
    <property name="compositing">0</property>
    <property name="distort">0</property>
    <property name="kdenlive:collapsed">1</property>
   </filter>
   <filter id="filter1905">
    <property name="mode">alpha</property>
    <property name="alpha_operation">min</property>
    <property name="invert">0</property>
    <property name="feather">0</property>
    <property name="feather_passes">1</property>
    <property name="mlt_service">rotoscoping</property>
    <property name="kdenlive_id">rotoscoping</property>
    <property name="spline">{
    "000": [
        [
            [
                0.019594594594594596,
                0.21111111111111105
            ],
            [
                0.02195945945945946,
                0.025525525525525523
            ],
            [
                0.03277027027027027,
                0.027327327327327327
            ]
        ],
        [
            [
                0.0652027027027027,
                0.032732732732732736
            ],
            [
                0.07601351351351351,
                0.03453453453453453
            ],
            [
                0.07871621621621622,
                0.21951951951951953
            ]
        ],
        [
            [
                0.08682432432432431,
                0.7744744744744746
            ],
            [
                0.08952702702702701,
                0.9594594594594595
            ],
            [
                0.07364864864864865,
                0.9582582582582583
            ]
        ],
        [
            [
                0.02601351351351351,
                0.9546546546546545
            ],
            [
                0.010135135135135136,
                0.9534534534534533
            ],
            [
                0.0125,
                0.7678678678678678
            ]
        ]
    ],
    "018": [
        [
            [
                0.019594594594594596,
                0.21111111111111105
            ],
            [
                0.02195945945945946,
                0.025525525525525523
            ],
            [
                0.03277027027027027,
                0.027327327327327327
            ]
        ],
        [
            [
                0.8439189189189189,
                0.041741741741741764
            ],
            [
                0.8547297297297297,
                0.04354354354354354
            ],
            [
                0.8574324324324324,
                0.22852852852852865
            ]
        ],
        [
            [
                0.8689189189189189,
                0.7744744744744745
            ],
            [
                0.8716216216216216,
                0.9594594594594595
            ],
            [
                0.8557432432432432,
                0.9582582582582583
            ]
        ],
        [
            [
                0.02601351351351351,
                0.9546546546546545
            ],
            [
                0.010135135135135136,
                0.9534534534534533
            ],
            [
                0.0125,
                0.7678678678678678
            ]
        ]
    ]
}
</property>
    <property name="kdenlive:collapsed">1</property>
   </filter>
  </entry>
  <blank length="00:02:16.480"/>
  <entry producer="producer632" in="00:00:00.000" out="00:00:16.480">
   <property name="kdenlive:id">744</property>
   <filter id="filter1906" out="00:00:00.240">
    <property name="start">1</property>
    <property name="level">1</property>
    <property name="mlt_service">brightness</property>
    <property name="kdenlive_id">fade_from_black</property>
    <property name="alpha">00:00:00.000=0;00:00:00.240=1</property>
   </filter>
   <filter id="filter1907" in="00:00:16.240" out="00:00:16.480">
    <property name="start">1</property>
    <property name="level">1</property>
    <property name="mlt_service">brightness</property>
    <property name="kdenlive_id">fade_to_black</property>
    <property name="alpha">00:00:00.000=1;00:00:00.240=0</property>
   </filter>
  </entry>
  <entry producer="producer633" in="00:00:00.000" out="00:00:13.440">
   <property name="kdenlive:id">745</property>
   <filter id="filter1908" out="00:00:00.240">
    <property name="start">1</property>
    <property name="level">1</property>
    <property name="mlt_service">brightness</property>
    <property name="kdenlive_id">fade_from_black</property>
    <property name="alpha">00:00:00.000=0;00:00:00.240=1</property>
    <property name="kdenlive:collapsed">0</property>
   </filter>
   <filter id="filter1909" in="00:00:12.520" out="00:00:13.440">
    <property name="start">1</property>
    <property name="level">1</property>
    <property name="mlt_service">brightness</property>
    <property name="kdenlive_id">fade_to_black</property>
    <property name="alpha">00:00:00.000=1;00:00:00.920=0</property>
    <property name="kdenlive:collapsed">0</property>
   </filter>
  </entry>
  <blank length="00:00:23.360"/>
  <entry producer="producer532" in="00:00:00.000" out="00:00:12.800">
   <property name="kdenlive:id">636</property>
   <filter id="filter1910" out="00:00:00.240">
    <property name="start">1</property>
    <property name="level">1</property>
    <property name="mlt_service">brightness</property>
    <property name="kdenlive_id">fade_from_black</property>
    <property name="alpha">00:00:00.000=0;00:00:00.240=1</property>
   </filter>
   <filter id="filter1911" in="00:00:11.880" out="00:00:12.800">
    <property name="start">1</property>
    <property name="level">1</property>
    <property name="mlt_service">brightness</property>
    <property name="kdenlive_id">fade_to_black</property>
    <property name="alpha">00:00:00.000=1;00:00:00.920=0</property>
   </filter>
  </entry>
  <blank length="00:00:11.560"/>
  <entry producer="chain462" in="00:51:19.920" out="00:51:22.920">
   <property name="kdenlive:id">763</property>
   <property name="kdenlive:activeeffect">1</property>
   <filter id="filter1912">
    <property name="rotate_center">1</property>
    <property name="mlt_service">qtblend</property>
    <property name="kdenlive_id">qtblend</property>
    <property name="rect">00:51:19.920=320 180 1279 719 1.000000</property>
    <property name="rotation">00:51:19.920=0</property>
    <property name="compositing">0</property>
    <property name="distort">0</property>
    <property name="kdenlive:collapsed">1</property>
   </filter>
   <filter id="filter1913">
    <property name="rotate_center">1</property>
    <property name="mlt_service">qtblend</property>
    <property name="kdenlive_id">qtblend</property>
    <property name="rect">00:51:19.920=0 1080 1920 1080 1.000000;00:51:20.160=0 -48 1920 1080 1.000000;00:51:20.280=0 0 1920 1080 1.000000;00:51:22.560=0 0 1920 1080 1.000000;00:51:22.680=0 63 1920 1080 1.000000;00:51:22.920=0 -1080 1920 1080 1.000000</property>
    <property name="rotation">00:51:19.920=0;00:51:20.160=0;00:51:20.280=0;00:51:22.560=0;00:51:22.680=0;00:51:22.920=0</property>
    <property name="compositing">0</property>
    <property name="distort">0</property>
    <property name="kdenlive:collapsed">0</property>
   </filter>
  </entry>
  <blank length="00:00:10.120"/>
  <entry producer="producer650" in="00:00:00.000" out="00:00:36.360">
   <property name="kdenlive:id">772</property>
   <property name="kdenlive:activeeffect">1</property>
   <filter id="filter1914" out="00:00:00.240">
    <property name="start">1</property>
    <property name="level">1</property>
    <property name="mlt_service">brightness</property>
    <property name="kdenlive_id">fade_from_black</property>
    <property name="alpha">00:00:00.000=0;00:00:00.240=1</property>
    <property name="kdenlive:collapsed">0</property>
   </filter>
   <filter id="filter1915" in="00:00:36.120" out="00:00:36.360">
    <property name="start">1</property>
    <property name="level">1</property>
    <property name="mlt_service">brightness</property>
    <property name="kdenlive_id">fade_to_black</property>
    <property name="alpha">00:00:00.000=1;00:00:00.240=0</property>
    <property name="kdenlive:collapsed">0</property>
   </filter>
  </entry>
  <entry producer="producer651" in="00:00:00.000" out="00:00:38.520">
   <property name="kdenlive:id">777</property>
   <filter id="filter1916" out="00:00:00.240">
    <property name="start">1</property>
    <property name="level">1</property>
    <property name="mlt_service">brightness</property>
    <property name="kdenlive_id">fade_from_black</property>
    <property name="alpha">00:00:00.000=0;00:00:00.240=1</property>
    <property name="kdenlive:collapsed">0</property>
   </filter>
   <filter id="filter1917" in="00:00:37.600" out="00:00:38.520">
    <property name="start">1</property>
    <property name="level">1</property>
    <property name="mlt_service">brightness</property>
    <property name="kdenlive_id">fade_to_black</property>
    <property name="alpha">00:00:00.000=1;00:00:00.920=0</property>
    <property name="kdenlive:collapsed">0</property>
   </filter>
  </entry>
  <blank length="00:00:39.520"/>
  <entry producer="producer722" in="00:00:00.000" out="00:00:07.720">
   <property name="kdenlive:id">783</property>
   <property name="kdenlive:activeeffect">2</property>
   <filter id="filter1918">
    <property name="rotate_center">1</property>
    <property name="mlt_service">qtblend</property>
    <property name="kdenlive_id">qtblend</property>
    <property name="rect">00:00:00.000=-128 0 1920 1080 1.000000</property>
    <property name="rotation">00:00:00.000=0</property>
    <property name="compositing">0</property>
    <property name="distort">0</property>
    <property name="kdenlive:collapsed">1</property>
   </filter>
   <filter id="filter1919">
    <property name="rotate_center">1</property>
    <property name="mlt_service">qtblend</property>
    <property name="kdenlive_id">qtblend</property>
    <property name="rect">00:00:00.000=-128 0 1920 1080 1.000000</property>
    <property name="rotation">00:00:00.000=0</property>
    <property name="compositing">0</property>
    <property name="distort">0</property>
    <property name="kdenlive:collapsed">1</property>
   </filter>
   <filter id="filter1920">
    <property name="rotate_center">1</property>
    <property name="mlt_service">qtblend</property>
    <property name="kdenlive_id">qtblend</property>
    <property name="rect">00:00:00.000=960 540 960 540 1.000000</property>
    <property name="rotation">00:00:00.000=0</property>
    <property name="compositing">0</property>
    <property name="distort">0</property>
    <property name="kdenlive:collapsed">1</property>
   </filter>
  </entry>
  <entry producer="producer722" in="00:00:16.320" out="00:00:19.680">
   <property name="kdenlive:id">783</property>
   <filter id="filter1921">
    <property name="rotate_center">1</property>
    <property name="mlt_service">qtblend</property>
    <property name="kdenlive_id">qtblend</property>
    <property name="rect">00:00:16.320=-128 0 1920 1080 1.000000</property>
    <property name="rotation">00:00:16.320=0</property>
    <property name="compositing">0</property>
    <property name="distort">0</property>
   </filter>
   <filter id="filter1922">
    <property name="rotate_center">1</property>
    <property name="mlt_service">qtblend</property>
    <property name="kdenlive_id">qtblend</property>
    <property name="rect">00:00:16.320=-128 0 1920 1080 1.000000</property>
    <property name="rotation">00:00:16.320=0</property>
    <property name="compositing">0</property>
    <property name="distort">0</property>
    <property name="kdenlive:collapsed">1</property>
   </filter>
   <filter id="filter1923">
    <property name="rotate_center">1</property>
    <property name="mlt_service">qtblend</property>
    <property name="kdenlive_id">qtblend</property>
    <property name="rect">00:00:16.320=960 540 960 540 1.000000</property>
    <property name="rotation">00:00:16.320=0</property>
    <property name="compositing">0</property>
    <property name="distort">0</property>
   </filter>
  </entry>
  <blank length="00:00:04.480"/>
  <entry producer="producer720" in="00:00:00.000" out="00:00:06.800">
   <property name="kdenlive:id">231</property>
   <filter id="filter1924">
    <property name="rotate_center">1</property>
    <property name="mlt_service">qtblend</property>
    <property name="kdenlive_id">qtblend</property>
    <property name="rect">00:00:00.000=0 1080 1920 1080 1.000000;00:00:00.240=0 -57 1920 1080 1.000000;00:00:00.360=0 0 1920 1080 1.000000</property>
    <property name="rotation">00:00:00.000=0;00:00:00.240=0;00:00:00.360=0</property>
    <property name="compositing">0</property>
    <property name="distort">0</property>
   </filter>
  </entry>
  <blank length="00:00:00.520"/>
  <entry producer="producer653" in="00:00:00.000" out="00:00:21.520">
   <property name="kdenlive:id">785</property>
   <filter id="filter1925" out="00:00:00.240">
    <property name="start">1</property>
    <property name="level">1</property>
    <property name="mlt_service">brightness</property>
    <property name="kdenlive_id">fade_from_black</property>
    <property name="alpha">00:00:00.000=0;00:00:00.240=1</property>
   </filter>
   <filter id="filter1926" in="00:00:20.600" out="00:00:21.520">
    <property name="start">1</property>
    <property name="level">1</property>
    <property name="mlt_service">brightness</property>
    <property name="kdenlive_id">fade_to_black</property>
    <property name="alpha">00:00:00.000=1;00:00:00.920=0</property>
   </filter>
  </entry>
  <blank length="00:00:47.720"/>
  <entry producer="producer675" in="00:00:00.000" out="00:00:19.960">
   <property name="kdenlive:id">805</property>
   <filter id="filter1927" out="00:00:00.240">
    <property name="start">1</property>
    <property name="level">1</property>
    <property name="mlt_service">brightness</property>
    <property name="kdenlive_id">fade_from_black</property>
    <property name="alpha">00:00:00.000=0;00:00:00.240=1</property>
   </filter>
   <filter id="filter1928" in="00:00:19.720" out="00:00:19.960">
    <property name="start">1</property>
    <property name="level">1</property>
    <property name="mlt_service">brightness</property>
    <property name="kdenlive_id">fade_to_black</property>
    <property name="alpha">00:00:00.000=1;00:00:00.240=0</property>
   </filter>
  </entry>
  <entry producer="producer676" in="00:00:00.000" out="00:00:21.480">
   <property name="kdenlive:id">806</property>
   <filter id="filter1929" out="00:00:00.240">
    <property name="start">1</property>
    <property name="level">1</property>
    <property name="mlt_service">brightness</property>
    <property name="kdenlive_id">fade_from_black</property>
    <property name="alpha">00:00:00.000=0;00:00:00.240=1</property>
    <property name="kdenlive:collapsed">0</property>
   </filter>
   <filter id="filter1930" in="00:00:21.240" out="00:00:21.480">
    <property name="start">1</property>
    <property name="level">1</property>
    <property name="mlt_service">brightness</property>
    <property name="kdenlive_id">fade_to_black</property>
    <property name="alpha">00:00:00.000=1;00:00:00.240=0</property>
    <property name="kdenlive:collapsed">0</property>
   </filter>
  </entry>
  <entry producer="producer677" in="00:00:00.000" out="00:00:10.520">
   <property name="kdenlive:id">807</property>
   <property name="kdenlive:activeeffect">0</property>
   <filter id="filter1931" out="00:00:00.240">
    <property name="start">1</property>
    <property name="level">1</property>
    <property name="mlt_service">brightness</property>
    <property name="kdenlive_id">fade_from_black</property>
    <property name="alpha">00:00:00.000=0;00:00:00.240=1</property>
    <property name="kdenlive:collapsed">0</property>
   </filter>
   <filter id="filter1932" in="00:00:10.280" out="00:00:10.520">
    <property name="start">1</property>
    <property name="level">1</property>
    <property name="mlt_service">brightness</property>
    <property name="kdenlive_id">fade_to_black</property>
    <property name="alpha">00:00:00.000=1;00:00:00.240=0</property>
    <property name="kdenlive:collapsed">0</property>
   </filter>
  </entry>
  <entry producer="producer678" in="00:00:00.000" out="00:00:14.000">
   <property name="kdenlive:id">808</property>
   <filter id="filter1933" out="00:00:00.240">
    <property name="start">1</property>
    <property name="level">1</property>
    <property name="mlt_service">brightness</property>
    <property name="kdenlive_id">fade_from_black</property>
    <property name="alpha">00:00:00.000=0;00:00:00.240=1</property>
   </filter>
   <filter id="filter1934" in="00:00:13.760" out="00:00:14.000">
    <property name="start">1</property>
    <property name="level">1</property>
    <property name="mlt_service">brightness</property>
    <property name="kdenlive_id">fade_to_black</property>
    <property name="alpha">00:00:00.000=1;00:00:00.240=0</property>
   </filter>
  </entry>
  <entry producer="producer679" in="00:00:00.000" out="00:00:08.440">
   <property name="kdenlive:id">809</property>
   <filter id="filter1935" in="00:00:07.520" out="00:00:08.440">
    <property name="start">1</property>
    <property name="level">1</property>
    <property name="mlt_service">brightness</property>
    <property name="kdenlive_id">fade_to_black</property>
    <property name="alpha">00:00:00.000=1;00:00:00.920=0</property>
   </filter>
   <filter id="filter1936" out="00:00:00.240">
    <property name="start">1</property>
    <property name="level">1</property>
    <property name="mlt_service">brightness</property>
    <property name="kdenlive_id">fade_from_black</property>
    <property name="alpha">00:00:00.000=0;00:00:00.240=1</property>
   </filter>
  </entry>
  <blank length="00:00:41.040"/>
  <entry producer="producer686" in="00:00:00.000" out="00:00:20.120">
   <property name="kdenlive:id">821</property>
   <filter id="filter1937" out="00:00:00.240">
    <property name="start">1</property>
    <property name="level">1</property>
    <property name="mlt_service">brightness</property>
    <property name="kdenlive_id">fade_from_black</property>
    <property name="alpha">00:00:00.000=0;00:00:00.240=1</property>
   </filter>
   <filter id="filter1938" in="00:00:19.200" out="00:00:20.120">
    <property name="start">1</property>
    <property name="level">1</property>
    <property name="mlt_service">brightness</property>
    <property name="kdenlive_id">fade_to_black</property>
    <property name="alpha">00:00:00.000=1;00:00:00.920=0</property>
   </filter>
  </entry>
  <blank length="00:00:53.480"/>
  <entry producer="producer583" in="00:00:00.000" out="00:00:06.080">
   <property name="kdenlive:id">662</property>
   <filter id="filter1939">
    <property name="rotate_center">1</property>
    <property name="mlt_service">qtblend</property>
    <property name="kdenlive_id">qtblend</property>
    <property name="rect">00:00:00.000=0 0 1920 1080 1.000000;00:00:06.080=0 0 1920 1080 1.000000</property>
    <property name="rotation">00:00:00.000=0;00:00:06.080=0</property>
    <property name="compositing">0</property>
    <property name="distort">0</property>
    <property name="kdenlive:collapsed">0</property>
   </filter>
  </entry>
  <entry producer="producer583" in="00:00:00.000" out="00:00:00.400">
   <property name="kdenlive:id">662</property>
   <filter id="filter1940">
    <property name="rotate_center">1</property>
    <property name="mlt_service">qtblend</property>
    <property name="kdenlive_id">qtblend</property>
    <property name="rect">00:00:00.000=0 0 1920 1080 1.000000;00:00:00.040=0 0 1920 1080 1.000000;00:00:00.160=0 45 1920 1080 1.000000;00:00:00.400=0 -1080 1920 1080 1.000000</property>
    <property name="rotation">00:00:00.000=0;00:00:00.040=0;00:00:00.160=0;00:00:00.400=0</property>
    <property name="compositing">0</property>
    <property name="distort">0</property>
    <property name="kdenlive:collapsed">0</property>
   </filter>
  </entry>
  <blank length="00:00:20.640"/>
  <entry producer="producer668" in="00:00:00.000" out="00:00:13.480">
   <property name="kdenlive:id">787</property>
   <filter id="filter1941" out="00:00:00.240">
    <property name="start">1</property>
    <property name="level">1</property>
    <property name="mlt_service">brightness</property>
    <property name="kdenlive_id">fade_from_black</property>
    <property name="alpha">0=0;-1=1</property>
   </filter>
   <filter id="filter1942" in="00:00:12.560" out="00:00:13.480">
    <property name="start">1</property>
    <property name="level">1</property>
    <property name="mlt_service">brightness</property>
    <property name="kdenlive_id">fade_to_black</property>
    <property name="alpha">00:00:00.000=1;00:00:00.920=0</property>
   </filter>
  </entry>
  <blank length="00:00:23.640"/>
  <entry producer="producer670" in="00:00:00.000" out="00:00:26.760">
   <property name="kdenlive:id">789</property>
   <filter id="filter1943" out="00:00:00.240">
    <property name="start">1</property>
    <property name="level">1</property>
    <property name="mlt_service">brightness</property>
    <property name="kdenlive_id">fade_from_black</property>
    <property name="alpha">00:00:00.000=0;00:00:00.240=1</property>
    <property name="kdenlive:collapsed">0</property>
   </filter>
   <filter id="filter1944" in="00:00:26.560" out="00:00:26.800">
    <property name="start">1</property>
    <property name="level">1</property>
    <property name="mlt_service">brightness</property>
    <property name="kdenlive_id">fade_to_black</property>
    <property name="alpha">00:00:00.000=1;00:00:00.240=0</property>
    <property name="kdenlive:collapsed">0</property>
   </filter>
  </entry>
  <entry producer="producer671" in="00:00:00.000" out="00:00:22.640">
   <property name="kdenlive:id">790</property>
   <filter id="filter1945" out="00:00:00.240">
    <property name="start">1</property>
    <property name="level">1</property>
    <property name="mlt_service">brightness</property>
    <property name="kdenlive_id">fade_from_black</property>
    <property name="alpha">00:00:00.000=0;00:00:00.240=1</property>
    <property name="kdenlive:collapsed">0</property>
   </filter>
   <filter id="filter1946" in="00:00:22.440" out="00:00:22.680">
    <property name="start">1</property>
    <property name="level">1</property>
    <property name="mlt_service">brightness</property>
    <property name="kdenlive_id">fade_to_black</property>
    <property name="alpha">00:00:00.000=1;00:00:00.240=0</property>
    <property name="kdenlive:collapsed">0</property>
   </filter>
  </entry>
  <entry producer="producer672" in="00:00:00.000" out="00:00:22.080">
   <property name="kdenlive:id">791</property>
   <filter id="filter1947" in="00:00:21.200" out="00:00:22.120">
    <property name="start">1</property>
    <property name="level">1</property>
    <property name="mlt_service">brightness</property>
    <property name="kdenlive_id">fade_to_black</property>
    <property name="alpha">00:00:00.000=1;00:00:00.920=0</property>
    <property name="kdenlive:collapsed">0</property>
   </filter>
   <filter id="filter1948" out="00:00:00.240">
    <property name="start">1</property>
    <property name="level">1</property>
    <property name="mlt_service">brightness</property>
    <property name="kdenlive_id">fade_from_black</property>
    <property name="alpha">00:00:00.000=0;00:00:00.240=1</property>
    <property name="kdenlive:collapsed">0</property>
   </filter>
  </entry>
  <blank length="00:03:11.600"/>
  <entry producer="producer723" in="00:00:00.000" out="00:00:02.240">
   <property name="kdenlive:id">891</property>
   <filter id="filter1949" out="00:00:00.240">
    <property name="start">1</property>
    <property name="level">1</property>
    <property name="mlt_service">brightness</property>
    <property name="kdenlive_id">fade_from_black</property>
    <property name="alpha">00:00:00.000=0;00:00:00.240=1</property>
   </filter>
   <filter id="filter1950" in="00:00:02.040" out="00:00:02.280">
    <property name="start">1</property>
    <property name="level">1</property>
    <property name="mlt_service">brightness</property>
    <property name="kdenlive_id">fade_to_black</property>
    <property name="alpha">00:00:00.000=1;00:00:00.240=0</property>
   </filter>
  </entry>
  <entry producer="producer724" in="00:00:00.000" out="00:00:34.080">
   <property name="kdenlive:id">892</property>
   <filter id="filter1951" in="00:00:33.200" out="00:00:34.120">
    <property name="start">1</property>
    <property name="level">1</property>
    <property name="mlt_service">brightness</property>
    <property name="kdenlive_id">fade_to_black</property>
    <property name="alpha">00:00:00.000=1;00:00:00.920=0</property>
    <property name="kdenlive:collapsed">0</property>
   </filter>
   <filter id="filter1952" out="00:00:00.240">
    <property name="start">1</property>
    <property name="level">1</property>
    <property name="mlt_service">brightness</property>
    <property name="kdenlive_id">fade_from_black</property>
    <property name="alpha">00:00:00.000=0;00:00:00.240=1</property>
    <property name="kdenlive:collapsed">0</property>
   </filter>
  </entry>
 </playlist>
 <playlist id="playlist23"/>
 <tractor id="tractor11" in="00:00:00.000" out="01:12:45.280">
  <property name="kdenlive:trackheight">67</property>
  <property name="kdenlive:timeline_active">1</property>
  <property name="kdenlive:collapsed">0</property>
  <property name="kdenlive:thumbs_format"/>
  <property name="kdenlive:audio_rec"/>
  <track hide="audio" producer="playlist22"/>
  <track hide="audio" producer="playlist23"/>
 </tractor>
 <producer id="producer725" in="00:00:00.000" out="00:00:39.440">
  <property name="length">987</property>
  <property name="eof">pause</property>
  <property name="resource">/home/liquidzulu/Pictures/yt/animation/output/project/squiggly-two-thirds/.all.png</property>
  <property name="ttl">1</property>
  <property name="aspect_ratio">1</property>
  <property name="progressive">1</property>
  <property name="seekable">1</property>
  <property name="format">2</property>
  <property name="meta.media.width">1920</property>
  <property name="meta.media.height">1080</property>
  <property name="mlt_service">qimage</property>
  <property name="kdenlive:clipname">Squiggly Border</property>
  <property name="low-pass">0</property>
  <property name="animation"/>
  <property name="luma_file"/>
  <property name="luma_duration">25</property>
  <property name="fade">0</property>
  <property name="crop">0</property>
  <property name="softness">0</property>
  <property name="loop">1</property>
  <property name="kdenlive:duration">00:00:12:08</property>
  <property name="kdenlive:folderid">218</property>
  <property name="kdenlive:id">231</property>
  <property name="kdenlive:clip_type">2</property>
  <property name="kdenlive:file_hash">98ba2f58a7b8ff51461b91634c07a5c8</property>
  <property name="xml">was here</property>
  <property name="set.test_audio">1</property>
  <property name="set.test_image">0</property>
 </producer>
 <producer id="producer726" in="00:00:00.000" out="00:00:19.680">
  <property name="length">00:00:19.720</property>
  <property name="eof">pause</property>
  <property name="resource">/home/liquidzulu/Pictures/yt/animation/output/project/footnotes/footnote-67/.all.png</property>
  <property name="ttl">1</property>
  <property name="aspect_ratio">1</property>
  <property name="progressive">1</property>
  <property name="seekable">1</property>
  <property name="format">2</property>
  <property name="meta.media.width">1920</property>
  <property name="meta.media.height">1080</property>
  <property name="mlt_service">qimage</property>
  <property name="kdenlive:clipname">footnote-67</property>
  <property name="low-pass">0</property>
  <property name="animation"/>
  <property name="luma_file"/>
  <property name="luma_duration">25</property>
  <property name="fade">0</property>
  <property name="crop">0</property>
  <property name="softness">0</property>
  <property name="loop">0</property>
  <property name="kdenlive:duration">00:00:19:18</property>
  <property name="kdenlive:folderid">-1</property>
  <property name="kdenlive:id">784</property>
  <property name="kdenlive:clip_type">2</property>
  <property name="kdenlive:file_hash">2578a917be2b38956fb490f344dea04e</property>
  <property name="xml">was here</property>
  <property name="set.test_audio">1</property>
  <property name="set.test_image">0</property>
 </producer>
 <playlist id="playlist24">
  <blank length="00:08:27.680"/>
  <entry producer="producer316" in="00:00:00.000" out="00:00:29.360">
   <property name="kdenlive:id">347</property>
   <filter id="filter1953" out="00:00:00.240">
    <property name="start">1</property>
    <property name="level">1</property>
    <property name="mlt_service">brightness</property>
    <property name="kdenlive_id">fade_from_black</property>
    <property name="alpha">00:00:00.000=0;00:00:00.240=1</property>
    <property name="kdenlive:collapsed">0</property>
   </filter>
   <filter id="filter1954" in="00:00:28.440" out="00:00:29.360">
    <property name="start">1</property>
    <property name="level">1</property>
    <property name="mlt_service">brightness</property>
    <property name="kdenlive_id">fade_to_black</property>
    <property name="alpha">00:00:00.000=1;00:00:00.920=0</property>
    <property name="kdenlive:collapsed">0</property>
   </filter>
  </entry>
  <blank length="00:03:37.160"/>
  <entry producer="producer345" in="00:00:00.000" out="00:00:21.080">
   <property name="kdenlive:id">374</property>
   <filter id="filter1955" out="00:00:00.240">
    <property name="start">1</property>
    <property name="level">1</property>
    <property name="mlt_service">brightness</property>
    <property name="kdenlive_id">fade_from_black</property>
    <property name="alpha">00:00:00.000=0;00:00:00.240=1</property>
    <property name="kdenlive:collapsed">0</property>
   </filter>
   <filter id="filter1956" in="00:00:20.840" out="00:00:21.080">
    <property name="start">1</property>
    <property name="level">1</property>
    <property name="mlt_service">brightness</property>
    <property name="kdenlive_id">fade_to_black</property>
    <property name="alpha">00:00:00.000=1;00:00:00.240=0</property>
    <property name="kdenlive:collapsed">0</property>
   </filter>
  </entry>
  <entry producer="producer346" in="00:00:00.000" out="00:00:19.840">
   <property name="kdenlive:id">375</property>
   <filter id="filter1957" out="00:00:00.240">
    <property name="start">1</property>
    <property name="level">1</property>
    <property name="mlt_service">brightness</property>
    <property name="kdenlive_id">fade_from_black</property>
    <property name="alpha">0=0;-1=1</property>
   </filter>
   <filter id="filter1958" in="00:00:19.600" out="00:00:19.840">
    <property name="start">1</property>
    <property name="level">1</property>
    <property name="mlt_service">brightness</property>
    <property name="kdenlive_id">fade_to_black</property>
    <property name="alpha">00:00:00.000=1;00:00:00.240=0</property>
   </filter>
  </entry>
  <entry producer="producer347" in="00:00:00.000" out="00:00:18.960">
   <property name="kdenlive:id">376</property>
   <filter id="filter1959" out="00:00:00.240">
    <property name="start">1</property>
    <property name="level">1</property>
    <property name="mlt_service">brightness</property>
    <property name="kdenlive_id">fade_from_black</property>
    <property name="alpha">00:00:00.000=0;00:00:00.240=1</property>
   </filter>
   <filter id="filter1960" in="00:00:18.040" out="00:00:18.960">
    <property name="start">1</property>
    <property name="level">1</property>
    <property name="mlt_service">brightness</property>
    <property name="kdenlive_id">fade_to_black</property>
    <property name="alpha">00:00:00.000=1;00:00:00.920=0</property>
   </filter>
  </entry>
  <blank length="00:01:48.680"/>
  <entry producer="producer348" in="00:00:00.000" out="00:00:21.200">
   <property name="kdenlive:id">400</property>
   <filter id="filter1961" out="00:00:00.240">
    <property name="start">1</property>
    <property name="level">1</property>
    <property name="mlt_service">brightness</property>
    <property name="kdenlive_id">fade_from_black</property>
    <property name="alpha">00:00:00.000=0;00:00:00.240=1</property>
    <property name="kdenlive:collapsed">0</property>
   </filter>
   <filter id="filter1962" in="00:00:20.960" out="00:00:21.200">
    <property name="start">1</property>
    <property name="level">1</property>
    <property name="mlt_service">brightness</property>
    <property name="kdenlive_id">fade_to_black</property>
    <property name="alpha">00:00:00.000=1;00:00:00.240=0</property>
    <property name="kdenlive:collapsed">0</property>
   </filter>
  </entry>
  <entry producer="producer349" in="00:00:00.000" out="00:00:25.920">
   <property name="kdenlive:id">399</property>
   <filter id="filter1963" out="00:00:00.240">
    <property name="start">1</property>
    <property name="level">1</property>
    <property name="mlt_service">brightness</property>
    <property name="kdenlive_id">fade_from_black</property>
    <property name="alpha">00:00:00.000=0;00:00:00.240=1</property>
   </filter>
   <filter id="filter1964" in="00:00:25.680" out="00:00:25.920">
    <property name="start">1</property>
    <property name="level">1</property>
    <property name="mlt_service">brightness</property>
    <property name="kdenlive_id">fade_to_black</property>
    <property name="alpha">00:00:00.000=1;00:00:00.240=0</property>
   </filter>
  </entry>
  <entry producer="producer350" in="00:00:00.000" out="00:00:26.240">
   <property name="kdenlive:id">398</property>
  </entry>
  <entry producer="producer351" in="00:00:00.000" out="00:00:06.320">
   <property name="kdenlive:id">397</property>
   <filter id="filter1965" in="00:00:05.400" out="00:00:06.320">
    <property name="start">1</property>
    <property name="level">1</property>
    <property name="mlt_service">brightness</property>
    <property name="kdenlive_id">fade_to_black</property>
    <property name="alpha">0=1;-1=0</property>
   </filter>
  </entry>
  <blank length="00:07:21.040"/>
  <entry producer="producer442" in="00:00:00.000" out="00:00:26.040">
   <property name="kdenlive:id">479</property>
   <property name="kdenlive:activeeffect">1</property>
   <filter id="filter1966" out="00:00:00.240">
    <property name="start">1</property>
    <property name="level">1</property>
    <property name="mlt_service">brightness</property>
    <property name="kdenlive_id">fade_from_black</property>
    <property name="alpha">00:00:00.000=0;00:00:00.240=1</property>
    <property name="kdenlive:collapsed">0</property>
   </filter>
   <filter id="filter1967" in="00:00:25.800" out="00:00:26.040">
    <property name="start">1</property>
    <property name="level">1</property>
    <property name="mlt_service">brightness</property>
    <property name="kdenlive_id">fade_to_black</property>
    <property name="alpha">00:00:00.000=1;00:00:00.240=0</property>
    <property name="kdenlive:collapsed">0</property>
   </filter>
  </entry>
  <entry producer="producer443" in="00:00:00.000" out="00:00:19.800">
   <property name="kdenlive:id">480</property>
   <property name="kdenlive:activeeffect">1</property>
   <filter id="filter1968" out="00:00:00.240">
    <property name="start">1</property>
    <property name="level">1</property>
    <property name="mlt_service">brightness</property>
    <property name="kdenlive_id">fade_from_black</property>
    <property name="alpha">00:00:00.000=0;00:00:00.240=1</property>
    <property name="kdenlive:collapsed">0</property>
   </filter>
   <filter id="filter1969" in="00:00:19.560" out="00:00:19.800">
    <property name="start">1</property>
    <property name="level">1</property>
    <property name="mlt_service">brightness</property>
    <property name="kdenlive_id">fade_to_black</property>
    <property name="alpha">00:00:00.000=1;00:00:00.240=0</property>
    <property name="kdenlive:collapsed">0</property>
   </filter>
  </entry>
  <entry producer="producer444" in="00:00:00.000" out="00:00:19.560">
   <property name="kdenlive:id">481</property>
   <filter id="filter1970" out="00:00:00.240">
    <property name="start">1</property>
    <property name="level">1</property>
    <property name="mlt_service">brightness</property>
    <property name="kdenlive_id">fade_from_black</property>
    <property name="alpha">00:00:00.000=0;00:00:00.240=1</property>
    <property name="kdenlive:collapsed">0</property>
   </filter>
   <filter id="filter1971" in="00:00:19.320" out="00:00:19.560">
    <property name="start">1</property>
    <property name="level">1</property>
    <property name="mlt_service">brightness</property>
    <property name="kdenlive_id">fade_to_black</property>
    <property name="alpha">00:00:00.000=1;00:00:00.240=0</property>
    <property name="kdenlive:collapsed">0</property>
   </filter>
  </entry>
  <entry producer="producer445" in="00:00:00.000" out="00:00:09.440">
   <property name="kdenlive:id">482</property>
   <filter id="filter1972" in="00:00:08.520" out="00:00:09.440">
    <property name="start">1</property>
    <property name="level">1</property>
    <property name="mlt_service">brightness</property>
    <property name="kdenlive_id">fade_to_black</property>
    <property name="alpha">00:00:00.000=1;00:00:00.920=0</property>
   </filter>
   <filter id="filter1973" out="00:00:00.240">
    <property name="start">1</property>
    <property name="level">1</property>
    <property name="mlt_service">brightness</property>
    <property name="kdenlive_id">fade_from_black</property>
    <property name="alpha">00:00:00.000=0;00:00:00.240=1</property>
   </filter>
  </entry>
  <blank length="00:06:33.920"/>
  <entry producer="producer446" in="00:00:00.000" out="00:00:10.240">
   <property name="kdenlive:id">538</property>
   <property name="kdenlive:activeeffect">1</property>
   <filter id="filter1974">
    <property name="rotate_center">1</property>
    <property name="mlt_service">qtblend</property>
    <property name="kdenlive_id">qtblend</property>
    <property name="rect">00:00:00.000=144 81 1632 918 1.000000</property>
    <property name="rotation">00:00:00.000=0</property>
    <property name="compositing">0</property>
    <property name="distort">0</property>
    <property name="kdenlive:collapsed">1</property>
   </filter>
   <filter id="filter1975">
    <property name="mode">alpha</property>
    <property name="alpha_operation">min</property>
    <property name="invert">0</property>
    <property name="feather">0</property>
    <property name="feather_passes">1</property>
    <property name="mlt_service">rotoscoping</property>
    <property name="kdenlive_id">rotoscoping</property>
    <property name="spline">{
    "000": [
        [
            [
                0.003484320557491289,
                0.2671826625386997
            ],
            [
                0.003484320557491289,
                0.11300309597523221
            ],
            [
                0.018118466898954706,
                0.11300309597523221
            ]
        ],
        [
            [
                0.06202090592334496,
                0.11300309597523221
            ],
            [
                0.07665505226480837,
                0.11300309597523221
            ],
            [
                0.07700348432055751,
                0.26656346749226006
            ]
        ],
        [
            [
                0.07804878048780488,
                0.7272445820433436
            ],
            [
                0.078397212543554,
                0.8808049535603716
            ],
            [
                0.06341463414634146,
                0.8814241486068112
            ]
        ],
        [
            [
                0.018466898954703832,
                0.8832817337461301
            ],
            [
                0.003484320557491289,
                0.8839009287925697
            ],
            [
                0.003484320557491289,
                0.7297213622291022
            ]
        ]
    ],
    "012": [
        [
            [
                0.003484320557491289,
                0.2671826625386997
            ],
            [
                0.003484320557491289,
                0.11300309597523221
            ],
            [
                0.018118466898954706,
                0.11300309597523221
            ]
        ],
        [
            [
                0.9226480836236933,
                0.10990712074303406
            ],
            [
                0.9372822299651568,
                0.10990712074303406
            ],
            [
                0.937630662020906,
                0.26346749226006205
            ]
        ],
        [
            [
                0.9386759581881533,
                0.7396284829721363
            ],
            [
                0.9390243902439025,
                0.8931888544891642
            ],
            [
                0.92404181184669,
                0.893808049535604
            ]
        ],
        [
            [
                0.018466898954703832,
                0.8832817337461301
            ],
            [
                0.003484320557491289,
                0.8839009287925697
            ],
            [
                0.003484320557491289,
                0.7297213622291022
            ]
        ]
    ]
}
</property>
    <property name="kdenlive:collapsed">1</property>
   </filter>
  </entry>
  <entry producer="producer446" in="00:00:00.000" out="00:00:00.440">
   <property name="kdenlive:id">538</property>
   <filter id="filter1976">
    <property name="rotate_center">1</property>
    <property name="mlt_service">qtblend</property>
    <property name="kdenlive_id">qtblend</property>
    <property name="rect">00:00:00.000=144 81 1632 918 1.000000</property>
    <property name="rotation">00:00:00.000=0</property>
    <property name="compositing">0</property>
    <property name="distort">0</property>
    <property name="kdenlive:collapsed">1</property>
   </filter>
   <filter id="filter1977">
    <property name="rotate_center">1</property>
    <property name="mlt_service">qtblend</property>
    <property name="kdenlive_id">qtblend</property>
    <property name="rect">00:00:00.000=0 0 1920 1080 1.000000;00:00:00.160=48 27 1824 1026 1.000000;00:00:00.440=48 -1080 1824 1026 1.000000</property>
    <property name="rotation">00:00:00.000=0;00:00:00.160=0;00:00:00.440=0</property>
    <property name="compositing">0</property>
    <property name="distort">0</property>
    <property name="kdenlive:collapsed">1</property>
   </filter>
  </entry>
  <blank length="00:24:12.760"/>
  <entry producer="producer608" in="00:00:00.000" out="00:00:01.640">
   <property name="kdenlive:id">724</property>
   <filter id="filter1978">
    <property name="rotate_center">1</property>
    <property name="mlt_service">qtblend</property>
    <property name="kdenlive_id">qtblend</property>
    <property name="rect">00:00:00.000=144 81 1632 918 1.000000</property>
    <property name="rotation">00:00:00.000=0</property>
    <property name="compositing">0</property>
    <property name="distort">0</property>
    <property name="kdenlive:collapsed">1</property>
   </filter>
   <filter id="filter1979">
    <property name="mode">alpha</property>
    <property name="alpha_operation">min</property>
    <property name="invert">0</property>
    <property name="feather">0</property>
    <property name="feather_passes">1</property>
    <property name="mlt_service">rotoscoping</property>
    <property name="kdenlive_id">rotoscoping</property>
    <property name="spline">{
    "000": [
        [
            [
                0.019594594594594596,
                0.21111111111111105
            ],
            [
                0.02195945945945946,
                0.025525525525525523
            ],
            [
                0.03277027027027027,
                0.027327327327327327
            ]
        ],
        [
            [
                0.0652027027027027,
                0.032732732732732736
            ],
            [
                0.07601351351351351,
                0.03453453453453453
            ],
            [
                0.07871621621621622,
                0.21951951951951953
            ]
        ],
        [
            [
                0.08682432432432431,
                0.7744744744744746
            ],
            [
                0.08952702702702701,
                0.9594594594594595
            ],
            [
                0.07364864864864865,
                0.9582582582582583
            ]
        ],
        [
            [
                0.02601351351351351,
                0.9546546546546545
            ],
            [
                0.010135135135135136,
                0.9534534534534533
            ],
            [
                0.0125,
                0.7678678678678678
            ]
        ]
    ],
    "018": [
        [
            [
                0.019594594594594596,
                0.21111111111111105
            ],
            [
                0.02195945945945946,
                0.025525525525525523
            ],
            [
                0.03277027027027027,
                0.027327327327327327
            ]
        ],
        [
            [
                0.8439189189189189,
                0.041741741741741764
            ],
            [
                0.8547297297297297,
                0.04354354354354354
            ],
            [
                0.8574324324324324,
                0.22852852852852865
            ]
        ],
        [
            [
                0.8689189189189189,
                0.7744744744744745
            ],
            [
                0.8716216216216216,
                0.9594594594594595
            ],
            [
                0.8557432432432432,
                0.9582582582582583
            ]
        ],
        [
            [
                0.02601351351351351,
                0.9546546546546545
            ],
            [
                0.010135135135135136,
                0.9534534534534533
            ],
            [
                0.0125,
                0.7678678678678678
            ]
        ]
    ]
}
</property>
    <property name="kdenlive:collapsed">1</property>
   </filter>
  </entry>
  <blank length="00:03:09.840"/>
  <entry producer="producer531" in="00:00:00.000" out="00:00:12.800">
   <property name="kdenlive:id">635</property>
   <filter id="filter1980" out="00:00:00.240">
    <property name="start">1</property>
    <property name="level">1</property>
    <property name="mlt_service">brightness</property>
    <property name="kdenlive_id">fade_from_black</property>
    <property name="alpha">00:00:00.000=0;00:00:00.240=1</property>
    <property name="kdenlive:collapsed">0</property>
   </filter>
   <filter id="filter1981" in="00:00:11.880" out="00:00:12.800">
    <property name="start">1</property>
    <property name="level">1</property>
    <property name="mlt_service">brightness</property>
    <property name="kdenlive_id">fade_to_black</property>
    <property name="alpha">00:00:00.000=1;00:00:00.920=0</property>
    <property name="kdenlive:collapsed">0</property>
   </filter>
  </entry>
  <blank length="00:00:11.560"/>
  <entry producer="producer725" in="00:00:00.000" out="00:00:03.000">
   <property name="kdenlive:id">231</property>
   <filter id="filter1982">
    <property name="rotate_center">1</property>
    <property name="mlt_service">qtblend</property>
    <property name="kdenlive_id">qtblend</property>
    <property name="rect">00:00:00.000=0 1080 1920 1080 1.000000;00:00:00.240=0 -48 1920 1080 1.000000;00:00:00.360=0 0 1920 1080 1.000000;00:00:02.640=0 0 1920 1080 1.000000;00:00:02.760=0 63 1920 1080 1.000000;00:00:03.000=0 -1080 1920 1080 1.000000</property>
    <property name="rotation">00:00:00.000=0;00:00:00.240=0;00:00:00.360=0;00:00:02.640=0;00:00:02.760=0;00:00:03.000=0</property>
    <property name="compositing">0</property>
    <property name="distort">0</property>
   </filter>
  </entry>
  <blank length="00:00:10.120"/>
  <entry producer="producer655" in="00:00:00.000" out="00:00:27.360">
   <property name="kdenlive:id">771</property>
   <property name="kdenlive:activeeffect">1</property>
   <filter id="filter1983" out="00:00:00.240">
    <property name="start">1</property>
    <property name="level">1</property>
    <property name="mlt_service">brightness</property>
    <property name="kdenlive_id">fade_from_black</property>
    <property name="alpha">00:00:00.000=0;00:00:00.240=1</property>
    <property name="kdenlive:collapsed">0</property>
   </filter>
   <filter id="filter1984" in="00:00:27.120" out="00:00:27.360">
    <property name="start">1</property>
    <property name="level">1</property>
    <property name="mlt_service">brightness</property>
    <property name="kdenlive_id">fade_to_black</property>
    <property name="alpha">00:00:00.000=1;00:00:00.240=0</property>
    <property name="kdenlive:collapsed">0</property>
   </filter>
  </entry>
  <entry producer="producer656" in="00:00:00.000" out="00:00:08.960">
   <property name="kdenlive:id">774</property>
   <property name="kdenlive:activeeffect">1</property>
   <filter id="filter1985" out="00:00:00.240">
    <property name="start">1</property>
    <property name="level">1</property>
    <property name="mlt_service">brightness</property>
    <property name="kdenlive_id">fade_from_black</property>
    <property name="alpha">00:00:00.000=0;00:00:00.240=1</property>
    <property name="kdenlive:collapsed">0</property>
   </filter>
   <filter id="filter1986" in="00:00:08.720" out="00:00:08.960">
    <property name="start">1</property>
    <property name="level">1</property>
    <property name="mlt_service">brightness</property>
    <property name="kdenlive_id">fade_to_black</property>
    <property name="alpha">00:00:00.000=1;00:00:00.240=0</property>
    <property name="kdenlive:collapsed">0</property>
   </filter>
  </entry>
  <entry producer="producer657" in="00:00:00.000" out="00:00:25.120">
   <property name="kdenlive:id">775</property>
   <filter id="filter1987" out="00:00:00.240">
    <property name="start">1</property>
    <property name="level">1</property>
    <property name="mlt_service">brightness</property>
    <property name="kdenlive_id">fade_from_black</property>
    <property name="alpha">00:00:00.000=0;00:00:00.240=1</property>
   </filter>
   <filter id="filter1988" in="00:00:24.880" out="00:00:25.120">
    <property name="start">1</property>
    <property name="level">1</property>
    <property name="mlt_service">brightness</property>
    <property name="kdenlive_id">fade_to_black</property>
    <property name="alpha">00:00:00.000=1;00:00:00.240=0</property>
   </filter>
  </entry>
  <entry producer="producer658" in="00:00:00.000" out="00:00:13.360">
   <property name="kdenlive:id">776</property>
   <filter id="filter1989" in="00:00:12.440" out="00:00:13.360">
    <property name="start">1</property>
    <property name="level">1</property>
    <property name="mlt_service">brightness</property>
    <property name="kdenlive_id">fade_to_black</property>
    <property name="alpha">00:00:00.000=1;00:00:00.920=0</property>
   </filter>
   <filter id="filter1990" out="00:00:00.240">
    <property name="start">1</property>
    <property name="level">1</property>
    <property name="mlt_service">brightness</property>
    <property name="kdenlive_id">fade_from_black</property>
    <property name="alpha">00:00:00.000=0;00:00:00.240=1</property>
   </filter>
  </entry>
  <blank length="00:00:53.880"/>
  <entry producer="producer726" in="00:00:00.000" out="00:00:04.680">
   <property name="kdenlive:id">784</property>
  </entry>
  <entry producer="producer726" in="00:00:16.400" out="00:00:19.680">
   <property name="kdenlive:id">784</property>
  </entry>
  <blank length="00:03:05.520"/>
  <entry producer="producer689" in="00:00:00.000" out="00:00:20.120">
   <property name="kdenlive:id">820</property>
   <filter id="filter1991" out="00:00:00.240">
    <property name="start">1</property>
    <property name="level">1</property>
    <property name="mlt_service">brightness</property>
    <property name="kdenlive_id">fade_from_black</property>
    <property name="alpha">00:00:00.000=0;00:00:00.240=1</property>
   </filter>
   <filter id="filter1992" in="00:00:19.200" out="00:00:20.120">
    <property name="start">1</property>
    <property name="level">1</property>
    <property name="mlt_service">brightness</property>
    <property name="kdenlive_id">fade_to_black</property>
    <property name="alpha">00:00:00.000=1;00:00:00.920=0</property>
   </filter>
  </entry>
 </playlist>
 <playlist id="playlist25"/>
 <tractor id="tractor12" in="00:00:00.000" out="01:05:47.840">
  <property name="kdenlive:trackheight">67</property>
  <property name="kdenlive:timeline_active">1</property>
  <property name="kdenlive:collapsed">0</property>
  <property name="kdenlive:thumbs_format"/>
  <property name="kdenlive:audio_rec"/>
  <track hide="audio" producer="playlist24"/>
  <track hide="audio" producer="playlist25"/>
 </tractor>
 <producer id="producer727" in="00:00:00.000" out="00:00:19.680">
  <property name="length">00:00:19.720</property>
  <property name="eof">pause</property>
  <property name="resource">/home/liquidzulu/Pictures/yt/animation/output/project/footnotes/footnote-60/.all.png</property>
  <property name="ttl">1</property>
  <property name="aspect_ratio">1</property>
  <property name="progressive">1</property>
  <property name="seekable">1</property>
  <property name="format">2</property>
  <property name="meta.media.width">1920</property>
  <property name="meta.media.height">1080</property>
  <property name="mlt_service">qimage</property>
  <property name="kdenlive:clipname">footnote-60</property>
  <property name="low-pass">0</property>
  <property name="animation"/>
  <property name="luma_file"/>
  <property name="luma_duration">25</property>
  <property name="fade">0</property>
  <property name="crop">0</property>
  <property name="softness">0</property>
  <property name="loop">0</property>
  <property name="kdenlive:duration">00:00:19:18</property>
  <property name="kdenlive:folderid">-1</property>
  <property name="kdenlive:id">765</property>
  <property name="kdenlive:clip_type">2</property>
  <property name="kdenlive:file_hash">e0c6f9ce81572265e312085f6ac1f9ae</property>
  <property name="xml">was here</property>
  <property name="set.test_audio">1</property>
  <property name="set.test_image">0</property>
 </producer>
 <playlist id="playlist26">
  <blank length="00:31:53.160"/>
  <entry producer="producer447" in="00:00:00.000" out="00:00:09.800">
   <property name="kdenlive:id">539</property>
   <filter id="filter1993">
    <property name="rotate_center">1</property>
    <property name="mlt_service">qtblend</property>
    <property name="kdenlive_id">qtblend</property>
    <property name="rect">00:00:00.000=144 81 1632 918 1.000000</property>
    <property name="rotation">00:00:00.000=0</property>
    <property name="compositing">0</property>
    <property name="distort">0</property>
    <property name="kdenlive:collapsed">1</property>
   </filter>
   <filter id="filter1994">
    <property name="mode">alpha</property>
    <property name="alpha_operation">min</property>
    <property name="invert">0</property>
    <property name="feather">0</property>
    <property name="feather_passes">1</property>
    <property name="mlt_service">rotoscoping</property>
    <property name="kdenlive_id">rotoscoping</property>
    <property name="spline">{
    "000": [
        [
            [
                0.003484320557491289,
                0.2671826625386997
            ],
            [
                0.003484320557491289,
                0.11300309597523221
            ],
            [
                0.018118466898954706,
                0.11300309597523221
            ]
        ],
        [
            [
                0.06202090592334496,
                0.11300309597523221
            ],
            [
                0.07665505226480837,
                0.11300309597523221
            ],
            [
                0.07700348432055751,
                0.26656346749226006
            ]
        ],
        [
            [
                0.07804878048780488,
                0.7272445820433436
            ],
            [
                0.078397212543554,
                0.8808049535603716
            ],
            [
                0.06341463414634146,
                0.8814241486068112
            ]
        ],
        [
            [
                0.018466898954703832,
                0.8832817337461301
            ],
            [
                0.003484320557491289,
                0.8839009287925697
            ],
            [
                0.003484320557491289,
                0.7297213622291022
            ]
        ]
    ],
    "012": [
        [
            [
                0.003484320557491289,
                0.2671826625386997
            ],
            [
                0.003484320557491289,
                0.11300309597523221
            ],
            [
                0.018118466898954706,
                0.11300309597523221
            ]
        ],
        [
            [
                0.9226480836236933,
                0.10990712074303406
            ],
            [
                0.9372822299651568,
                0.10990712074303406
            ],
            [
                0.937630662020906,
                0.26346749226006205
            ]
        ],
        [
            [
                0.9386759581881533,
                0.7396284829721363
            ],
            [
                0.9390243902439025,
                0.8931888544891642
            ],
            [
                0.92404181184669,
                0.893808049535604
            ]
        ],
        [
            [
                0.018466898954703832,
                0.8832817337461301
            ],
            [
                0.003484320557491289,
                0.8839009287925697
            ],
            [
                0.003484320557491289,
                0.7297213622291022
            ]
        ]
    ]
}
</property>
    <property name="kdenlive:collapsed">1</property>
   </filter>
  </entry>
  <entry producer="producer447" in="00:00:00.000" out="00:00:00.440">
   <property name="kdenlive:id">539</property>
   <filter id="filter1995">
    <property name="rotate_center">1</property>
    <property name="mlt_service">qtblend</property>
    <property name="kdenlive_id">qtblend</property>
    <property name="rect">00:00:00.000=144 81 1632 918 1.000000</property>
    <property name="rotation">00:00:00.000=0</property>
    <property name="compositing">0</property>
    <property name="distort">0</property>
    <property name="kdenlive:collapsed">1</property>
   </filter>
   <filter id="filter1996">
    <property name="rotate_center">1</property>
    <property name="mlt_service">qtblend</property>
    <property name="kdenlive_id">qtblend</property>
    <property name="rect">00:00:00.000=0 0 1920 1080 1.000000;00:00:00.160=48 27 1824 1026 1.000000;00:00:00.440=48 -1080 1824 1026 1.000000</property>
    <property name="rotation">00:00:00.000=0;00:00:00.160=0;00:00:00.440=0</property>
    <property name="compositing">0</property>
    <property name="distort">0</property>
    <property name="kdenlive:collapsed">1</property>
   </filter>
  </entry>
  <blank length="00:24:12.720"/>
  <entry producer="producer609" in="00:00:00.000" out="00:00:01.680">
   <property name="kdenlive:id">725</property>
   <filter id="filter1997">
    <property name="rotate_center">1</property>
    <property name="mlt_service">qtblend</property>
    <property name="kdenlive_id">qtblend</property>
    <property name="rect">00:00:00.000=144 81 1632 918 1.000000</property>
    <property name="rotation">00:00:00.000=0</property>
    <property name="compositing">0</property>
    <property name="distort">0</property>
    <property name="kdenlive:collapsed">1</property>
   </filter>
   <filter id="filter1998">
    <property name="mode">alpha</property>
    <property name="alpha_operation">min</property>
    <property name="invert">0</property>
    <property name="feather">0</property>
    <property name="feather_passes">1</property>
    <property name="mlt_service">rotoscoping</property>
    <property name="kdenlive_id">rotoscoping</property>
    <property name="spline">{
    "000": [
        [
            [
                0.019594594594594596,
                0.21111111111111105
            ],
            [
                0.02195945945945946,
                0.025525525525525523
            ],
            [
                0.03277027027027027,
                0.027327327327327327
            ]
        ],
        [
            [
                0.0652027027027027,
                0.032732732732732736
            ],
            [
                0.07601351351351351,
                0.03453453453453453
            ],
            [
                0.07871621621621622,
                0.21951951951951953
            ]
        ],
        [
            [
                0.08682432432432431,
                0.7744744744744746
            ],
            [
                0.08952702702702701,
                0.9594594594594595
            ],
            [
                0.07364864864864865,
                0.9582582582582583
            ]
        ],
        [
            [
                0.02601351351351351,
                0.9546546546546545
            ],
            [
                0.010135135135135136,
                0.9534534534534533
            ],
            [
                0.0125,
                0.7678678678678678
            ]
        ]
    ],
    "018": [
        [
            [
                0.019594594594594596,
                0.21111111111111105
            ],
            [
                0.02195945945945946,
                0.025525525525525523
            ],
            [
                0.03277027027027027,
                0.027327327327327327
            ]
        ],
        [
            [
                0.8439189189189189,
                0.041741741741741764
            ],
            [
                0.8547297297297297,
                0.04354354354354354
            ],
            [
                0.8574324324324324,
                0.22852852852852865
            ]
        ],
        [
            [
                0.8689189189189189,
                0.7744744744744745
            ],
            [
                0.8716216216216216,
                0.9594594594594595
            ],
            [
                0.8557432432432432,
                0.9582582582582583
            ]
        ],
        [
            [
                0.02601351351351351,
                0.9546546546546545
            ],
            [
                0.010135135135135136,
                0.9534534534534533
            ],
            [
                0.0125,
                0.7678678678678678
            ]
        ]
    ]
}
</property>
    <property name="kdenlive:collapsed">1</property>
   </filter>
  </entry>
  <blank length="00:03:29.880"/>
  <entry producer="producer727" in="00:00:00.000" out="00:00:06.960">
   <property name="kdenlive:id">765</property>
  </entry>
  <entry producer="producer727" in="00:00:16.320" out="00:00:19.680">
   <property name="kdenlive:id">765</property>
  </entry>
 </playlist>
 <playlist id="playlist27"/>
 <tractor id="tractor13" in="00:00:00.000" out="00:59:58.160">
  <property name="kdenlive:trackheight">67</property>
  <property name="kdenlive:timeline_active">1</property>
  <property name="kdenlive:collapsed">0</property>
  <property name="kdenlive:thumbs_format"/>
  <property name="kdenlive:audio_rec"/>
  <track hide="audio" producer="playlist26"/>
  <track hide="audio" producer="playlist27"/>
 </tractor>
 <producer id="producer728" in="00:00:00.000" out="00:00:19.680">
  <property name="length">00:00:19.720</property>
  <property name="eof">pause</property>
  <property name="resource">/home/liquidzulu/Pictures/yt/animation/output/project/footnotes/footnote-61/.all.png</property>
  <property name="ttl">1</property>
  <property name="aspect_ratio">1</property>
  <property name="progressive">1</property>
  <property name="seekable">1</property>
  <property name="format">2</property>
  <property name="meta.media.width">1920</property>
  <property name="meta.media.height">1080</property>
  <property name="mlt_service">qimage</property>
  <property name="kdenlive:clipname">footnote-61</property>
  <property name="low-pass">0</property>
  <property name="animation"/>
  <property name="luma_file"/>
  <property name="luma_duration">25</property>
  <property name="fade">0</property>
  <property name="crop">0</property>
  <property name="softness">0</property>
  <property name="loop">0</property>
  <property name="kdenlive:duration">00:00:19:18</property>
  <property name="kdenlive:folderid">-1</property>
  <property name="kdenlive:id">766</property>
  <property name="kdenlive:clip_type">2</property>
  <property name="kdenlive:file_hash">7b10d4048bad78e4e488092f7811d0a8</property>
  <property name="xml">was here</property>
  <property name="set.test_audio">1</property>
  <property name="set.test_image">0</property>
 </producer>
 <playlist id="playlist28">
  <blank length="00:56:16.800"/>
  <entry producer="producer610" in="00:00:00.000" out="00:00:01.080">
   <property name="kdenlive:id">726</property>
   <filter id="filter1999">
    <property name="rotate_center">1</property>
    <property name="mlt_service">qtblend</property>
    <property name="kdenlive_id">qtblend</property>
    <property name="rect">00:00:00.000=144 81 1632 918 1.000000</property>
    <property name="rotation">00:00:00.000=0</property>
    <property name="compositing">0</property>
    <property name="distort">0</property>
    <property name="kdenlive:collapsed">1</property>
   </filter>
   <filter id="filter2000">
    <property name="mode">alpha</property>
    <property name="alpha_operation">min</property>
    <property name="invert">0</property>
    <property name="feather">0</property>
    <property name="feather_passes">1</property>
    <property name="mlt_service">rotoscoping</property>
    <property name="kdenlive_id">rotoscoping</property>
    <property name="spline">{
    "000": [
        [
            [
                0.019594594594594596,
                0.21111111111111105
            ],
            [
                0.02195945945945946,
                0.025525525525525523
            ],
            [
                0.03277027027027027,
                0.027327327327327327
            ]
        ],
        [
            [
                0.0652027027027027,
                0.032732732732732736
            ],
            [
                0.07601351351351351,
                0.03453453453453453
            ],
            [
                0.07871621621621622,
                0.21951951951951953
            ]
        ],
        [
            [
                0.08682432432432431,
                0.7744744744744746
            ],
            [
                0.08952702702702701,
                0.9594594594594595
            ],
            [
                0.07364864864864865,
                0.9582582582582583
            ]
        ],
        [
            [
                0.02601351351351351,
                0.9546546546546545
            ],
            [
                0.010135135135135136,
                0.9534534534534533
            ],
            [
                0.0125,
                0.7678678678678678
            ]
        ]
    ],
    "018": [
        [
            [
                0.019594594594594596,
                0.21111111111111105
            ],
            [
                0.02195945945945946,
                0.025525525525525523
            ],
            [
                0.03277027027027027,
                0.027327327327327327
            ]
        ],
        [
            [
                0.8439189189189189,
                0.041741741741741764
            ],
            [
                0.8547297297297297,
                0.04354354354354354
            ],
            [
                0.8574324324324324,
                0.22852852852852865
            ]
        ],
        [
            [
                0.8689189189189189,
                0.7744744744744745
            ],
            [
                0.8716216216216216,
                0.9594594594594595
            ],
            [
                0.8557432432432432,
                0.9582582582582583
            ]
        ],
        [
            [
                0.02601351351351351,
                0.9546546546546545
            ],
            [
                0.010135135135135136,
                0.9534534534534533
            ],
            [
                0.0125,
                0.7678678678678678
            ]
        ]
    ]
}
</property>
    <property name="kdenlive:collapsed">1</property>
   </filter>
  </entry>
  <blank length="00:03:32.680"/>
  <entry producer="producer728" in="00:00:00.000" out="00:00:04.160">
   <property name="kdenlive:id">766</property>
   <filter id="filter2001">
    <property name="rotate_center">1</property>
    <property name="mlt_service">qtblend</property>
    <property name="kdenlive_id">qtblend</property>
    <property name="rect">00:00:00.000=-128 0 1920 1080 1.000000</property>
    <property name="rotation">00:00:00.000=0</property>
    <property name="compositing">0</property>
    <property name="distort">0</property>
    <property name="kdenlive:collapsed">0</property>
   </filter>
  </entry>
  <entry producer="producer728" in="00:00:16.320" out="00:00:19.680">
   <property name="kdenlive:id">766</property>
   <filter id="filter2002">
    <property name="rotate_center">1</property>
    <property name="mlt_service">qtblend</property>
    <property name="kdenlive_id">qtblend</property>
    <property name="rect">00:00:16.320=-128 0 1920 1080 1.000000</property>
    <property name="rotation">00:00:16.320=0</property>
    <property name="compositing">0</property>
    <property name="distort">0</property>
   </filter>
  </entry>
 </playlist>
 <playlist id="playlist29"/>
 <tractor id="tractor14" in="00:00:00.000" out="00:59:58.160">
  <property name="kdenlive:trackheight">67</property>
  <property name="kdenlive:timeline_active">1</property>
  <property name="kdenlive:collapsed">0</property>
  <property name="kdenlive:thumbs_format"/>
  <property name="kdenlive:audio_rec"/>
  <track hide="audio" producer="playlist28"/>
  <track hide="audio" producer="playlist29"/>
 </tractor>
 <playlist id="playlist30">
  <blank length="00:56:15.800"/>
  <entry producer="producer611" in="00:00:00.000" out="00:00:02.080">
   <property name="kdenlive:id">727</property>
   <filter id="filter2003">
    <property name="rotate_center">1</property>
    <property name="mlt_service">qtblend</property>
    <property name="kdenlive_id">qtblend</property>
    <property name="rect">00:00:00.000=144 81 1632 918 1.000000</property>
    <property name="rotation">00:00:00.000=0</property>
    <property name="compositing">0</property>
    <property name="distort">0</property>
    <property name="kdenlive:collapsed">1</property>
   </filter>
   <filter id="filter2004">
    <property name="mode">alpha</property>
    <property name="alpha_operation">min</property>
    <property name="invert">0</property>
    <property name="feather">0</property>
    <property name="feather_passes">1</property>
    <property name="mlt_service">rotoscoping</property>
    <property name="kdenlive_id">rotoscoping</property>
    <property name="spline">{
    "000": [
        [
            [
                0.019594594594594596,
                0.21111111111111105
            ],
            [
                0.02195945945945946,
                0.025525525525525523
            ],
            [
                0.03277027027027027,
                0.027327327327327327
            ]
        ],
        [
            [
                0.0652027027027027,
                0.032732732732732736
            ],
            [
                0.07601351351351351,
                0.03453453453453453
            ],
            [
                0.07871621621621622,
                0.21951951951951953
            ]
        ],
        [
            [
                0.08682432432432431,
                0.7744744744744746
            ],
            [
                0.08952702702702701,
                0.9594594594594595
            ],
            [
                0.07364864864864865,
                0.9582582582582583
            ]
        ],
        [
            [
                0.02601351351351351,
                0.9546546546546545
            ],
            [
                0.010135135135135136,
                0.9534534534534533
            ],
            [
                0.0125,
                0.7678678678678678
            ]
        ]
    ],
    "018": [
        [
            [
                0.019594594594594596,
                0.21111111111111105
            ],
            [
                0.02195945945945946,
                0.025525525525525523
            ],
            [
                0.03277027027027027,
                0.027327327327327327
            ]
        ],
        [
            [
                0.8439189189189189,
                0.041741741741741764
            ],
            [
                0.8547297297297297,
                0.04354354354354354
            ],
            [
                0.8574324324324324,
                0.22852852852852865
            ]
        ],
        [
            [
                0.8689189189189189,
                0.7744744744744745
            ],
            [
                0.8716216216216216,
                0.9594594594594595
            ],
            [
                0.8557432432432432,
                0.9582582582582583
            ]
        ],
        [
            [
                0.02601351351351351,
                0.9546546546546545
            ],
            [
                0.010135135135135136,
                0.9534534534534533
            ],
            [
                0.0125,
                0.7678678678678678
            ]
        ]
    ]
}
</property>
    <property name="kdenlive:collapsed">1</property>
   </filter>
  </entry>
 </playlist>
 <playlist id="playlist31"/>
 <tractor id="tractor15" in="00:00:00.000" out="00:56:17.880">
  <property name="kdenlive:trackheight">67</property>
  <property name="kdenlive:timeline_active">1</property>
  <property name="kdenlive:collapsed">0</property>
  <property name="kdenlive:thumbs_format"/>
  <property name="kdenlive:audio_rec"/>
  <track hide="audio" producer="playlist30"/>
  <track hide="audio" producer="playlist31"/>
 </tractor>
 <playlist id="playlist32">
  <blank length="00:56:16.400"/>
  <entry producer="producer612" in="00:00:00.000" out="00:00:01.480">
   <property name="kdenlive:id">728</property>
   <filter id="filter2005">
    <property name="rotate_center">1</property>
    <property name="mlt_service">qtblend</property>
    <property name="kdenlive_id">qtblend</property>
    <property name="rect">00:00:00.000=144 81 1632 918 1.000000</property>
    <property name="rotation">00:00:00.000=0</property>
    <property name="compositing">0</property>
    <property name="distort">0</property>
    <property name="kdenlive:collapsed">1</property>
   </filter>
   <filter id="filter2006">
    <property name="mode">alpha</property>
    <property name="alpha_operation">min</property>
    <property name="invert">0</property>
    <property name="feather">0</property>
    <property name="feather_passes">1</property>
    <property name="mlt_service">rotoscoping</property>
    <property name="kdenlive_id">rotoscoping</property>
    <property name="spline">{
    "000": [
        [
            [
                0.019594594594594596,
                0.21111111111111105
            ],
            [
                0.02195945945945946,
                0.025525525525525523
            ],
            [
                0.03277027027027027,
                0.027327327327327327
            ]
        ],
        [
            [
                0.0652027027027027,
                0.032732732732732736
            ],
            [
                0.07601351351351351,
                0.03453453453453453
            ],
            [
                0.07871621621621622,
                0.21951951951951953
            ]
        ],
        [
            [
                0.08682432432432431,
                0.7744744744744746
            ],
            [
                0.08952702702702701,
                0.9594594594594595
            ],
            [
                0.07364864864864865,
                0.9582582582582583
            ]
        ],
        [
            [
                0.02601351351351351,
                0.9546546546546545
            ],
            [
                0.010135135135135136,
                0.9534534534534533
            ],
            [
                0.0125,
                0.7678678678678678
            ]
        ]
    ],
    "018": [
        [
            [
                0.019594594594594596,
                0.21111111111111105
            ],
            [
                0.02195945945945946,
                0.025525525525525523
            ],
            [
                0.03277027027027027,
                0.027327327327327327
            ]
        ],
        [
            [
                0.8439189189189189,
                0.041741741741741764
            ],
            [
                0.8547297297297297,
                0.04354354354354354
            ],
            [
                0.8574324324324324,
                0.22852852852852865
            ]
        ],
        [
            [
                0.8689189189189189,
                0.7744744744744745
            ],
            [
                0.8716216216216216,
                0.9594594594594595
            ],
            [
                0.8557432432432432,
                0.9582582582582583
            ]
        ],
        [
            [
                0.02601351351351351,
                0.9546546546546545
            ],
            [
                0.010135135135135136,
                0.9534534534534533
            ],
            [
                0.0125,
                0.7678678678678678
            ]
        ]
    ]
}
</property>
    <property name="kdenlive:collapsed">1</property>
   </filter>
  </entry>
 </playlist>
 <playlist id="playlist33"/>
 <tractor id="tractor16" in="00:00:00.000" out="00:56:17.880">
  <property name="kdenlive:trackheight">67</property>
  <property name="kdenlive:timeline_active">1</property>
  <property name="kdenlive:collapsed">0</property>
  <property name="kdenlive:thumbs_format"/>
  <property name="kdenlive:audio_rec"/>
  <track hide="audio" producer="playlist32"/>
  <track hide="audio" producer="playlist33"/>
 </tractor>
 <playlist id="playlist34">
  <blank length="00:56:16.120"/>
  <entry producer="producer613" in="00:00:00.000" out="00:00:01.760">
   <property name="kdenlive:id">729</property>
   <filter id="filter2007">
    <property name="rotate_center">1</property>
    <property name="mlt_service">qtblend</property>
    <property name="kdenlive_id">qtblend</property>
    <property name="rect">00:00:00.000=144 81 1632 918 1.000000</property>
    <property name="rotation">00:00:00.000=0</property>
    <property name="compositing">0</property>
    <property name="distort">0</property>
    <property name="kdenlive:collapsed">1</property>
   </filter>
   <filter id="filter2008">
    <property name="mode">alpha</property>
    <property name="alpha_operation">min</property>
    <property name="invert">0</property>
    <property name="feather">0</property>
    <property name="feather_passes">1</property>
    <property name="mlt_service">rotoscoping</property>
    <property name="kdenlive_id">rotoscoping</property>
    <property name="spline">{
    "000": [
        [
            [
                0.019594594594594596,
                0.21111111111111105
            ],
            [
                0.02195945945945946,
                0.025525525525525523
            ],
            [
                0.03277027027027027,
                0.027327327327327327
            ]
        ],
        [
            [
                0.0652027027027027,
                0.032732732732732736
            ],
            [
                0.07601351351351351,
                0.03453453453453453
            ],
            [
                0.07871621621621622,
                0.21951951951951953
            ]
        ],
        [
            [
                0.08682432432432431,
                0.7744744744744746
            ],
            [
                0.08952702702702701,
                0.9594594594594595
            ],
            [
                0.07364864864864865,
                0.9582582582582583
            ]
        ],
        [
            [
                0.02601351351351351,
                0.9546546546546545
            ],
            [
                0.010135135135135136,
                0.9534534534534533
            ],
            [
                0.0125,
                0.7678678678678678
            ]
        ]
    ],
    "018": [
        [
            [
                0.019594594594594596,
                0.21111111111111105
            ],
            [
                0.02195945945945946,
                0.025525525525525523
            ],
            [
                0.03277027027027027,
                0.027327327327327327
            ]
        ],
        [
            [
                0.8439189189189189,
                0.041741741741741764
            ],
            [
                0.8547297297297297,
                0.04354354354354354
            ],
            [
                0.8574324324324324,
                0.22852852852852865
            ]
        ],
        [
            [
                0.8689189189189189,
                0.7744744744744745
            ],
            [
                0.8716216216216216,
                0.9594594594594595
            ],
            [
                0.8557432432432432,
                0.9582582582582583
            ]
        ],
        [
            [
                0.02601351351351351,
                0.9546546546546545
            ],
            [
                0.010135135135135136,
                0.9534534534534533
            ],
            [
                0.0125,
                0.7678678678678678
            ]
        ]
    ]
}
</property>
    <property name="kdenlive:collapsed">1</property>
   </filter>
  </entry>
 </playlist>
 <playlist id="playlist35"/>
 <tractor id="tractor17" in="00:00:00.000" out="00:56:17.880">
  <property name="kdenlive:trackheight">67</property>
  <property name="kdenlive:timeline_active">1</property>
  <property name="kdenlive:collapsed">0</property>
  <property name="kdenlive:thumbs_format"/>
  <property name="kdenlive:audio_rec"/>
  <track hide="audio" producer="playlist34"/>
  <track hide="audio" producer="playlist35"/>
 </tractor>
 <producer id="producer729" in="00:00:00.000" out="00:00:19.680">
  <property name="length">00:00:19.720</property>
  <property name="eof">pause</property>
  <property name="resource">/home/liquidzulu/Pictures/yt/animation/output/project/footnotes/footnote-56/.all.png</property>
  <property name="ttl">1</property>
  <property name="aspect_ratio">1</property>
  <property name="progressive">1</property>
  <property name="seekable">1</property>
  <property name="format">2</property>
  <property name="meta.media.width">1920</property>
  <property name="meta.media.height">1080</property>
  <property name="mlt_service">qimage</property>
  <property name="kdenlive:clipname">footnote-56</property>
  <property name="low-pass">0</property>
  <property name="animation"/>
  <property name="luma_file"/>
  <property name="luma_duration">1</property>
  <property name="fade">0</property>
  <property name="crop">0</property>
  <property name="softness">0</property>
  <property name="loop">0</property>
  <property name="kdenlive:duration">00:00:19:18</property>
  <property name="kdenlive:folderid">-1</property>
  <property name="kdenlive:id">736</property>
  <property name="kdenlive:clip_type">2</property>
  <property name="kdenlive:file_hash">b65a2516d22ecf7364c3d490ef873198</property>
  <property name="xml">was here</property>
  <property name="set.test_audio">1</property>
  <property name="set.test_image">0</property>
 </producer>
 <playlist id="playlist36">
  <blank length="00:56:15.840"/>
  <entry producer="producer729" in="00:00:00.000" out="00:00:07.240">
   <property name="kdenlive:id">736</property>
  </entry>
  <entry producer="producer729" in="00:00:16.320" out="00:00:19.680">
   <property name="kdenlive:id">736</property>
  </entry>
 </playlist>
 <playlist id="playlist37"/>
 <tractor id="tractor18" in="00:00:00.000" out="00:56:26.480">
  <property name="kdenlive:trackheight">67</property>
  <property name="kdenlive:timeline_active">1</property>
  <property name="kdenlive:collapsed">0</property>
  <property name="kdenlive:thumbs_format"/>
  <property name="kdenlive:audio_rec"/>
  <track hide="audio" producer="playlist36"/>
  <track hide="audio" producer="playlist37"/>
 </tractor>
 <tractor id="tractor19" in="00:00:00.000" out="02:41:19.440">
  <property name="kdenlive:duration">02:21:19:11</property>
  <property name="kdenlive:maxduration">211986</property>
  <property name="kdenlive:clipname">Sequence 1</property>
  <property name="kdenlive:description"/>
  <property name="kdenlive:uuid">{e69a46b0-28c8-4003-b2b8-29a27970defc}</property>
  <property name="kdenlive:producer_type">17</property>
  <property name="kdenlive:id">3</property>
  <property name="kdenlive:clip_type">0</property>
  <property name="kdenlive:file_hash">0b5dac6f7af96241ed2ee0a5bed4c8a3</property>
  <property name="kdenlive:folderid">2</property>
  <property name="kdenlive:sequenceproperties.activeTrack">4</property>
  <property name="kdenlive:sequenceproperties.audioChannels">2</property>
  <property name="kdenlive:sequenceproperties.audioTarget">1</property>
  <property name="kdenlive:sequenceproperties.disablepreview">0</property>
  <property name="kdenlive:sequenceproperties.documentuuid">{e69a46b0-28c8-4003-b2b8-29a27970defc}</property>
  <property name="kdenlive:sequenceproperties.hasAudio">1</property>
  <property name="kdenlive:sequenceproperties.hasVideo">1</property>
  <property name="kdenlive:sequenceproperties.position">109308</property>
  <property name="kdenlive:sequenceproperties.scrollPos">89366</property>
  <property name="kdenlive:sequenceproperties.tracks">4</property>
  <property name="kdenlive:sequenceproperties.tracksCount">19</property>
  <property name="kdenlive:sequenceproperties.verticalzoom">1</property>
  <property name="kdenlive:sequenceproperties.videoTarget">2</property>
  <property name="kdenlive:sequenceproperties.zonein">292672</property>
  <property name="kdenlive:sequenceproperties.zoneout">317005</property>
  <property name="kdenlive:sequenceproperties.zoom">7</property>
  <property name="kdenlive:sequenceproperties.groups">[
    {
        "children": [
            {
                "children": [
                    {
                        "data": "5:124",
                        "leaf": "clip",
                        "type": "Leaf"
                    },
                    {
                        "data": "4:124",
                        "leaf": "clip",
                        "type": "Leaf"
                    }
                ],
                "type": "AVSplit"
            },
            {
                "children": [
                    {
                        "data": "5:262",
                        "leaf": "clip",
                        "type": "Leaf"
                    },
                    {
                        "data": "4:262",
                        "leaf": "clip",
                        "type": "Leaf"
                    }
                ],
                "type": "AVSplit"
            }
        ],
        "type": "Normal"
    },
    {
        "children": [
            {
                "data": "1:83504",
                "leaf": "clip",
                "type": "Leaf"
            },
            {
                "data": "1:88136",
                "leaf": "clip",
                "type": "Leaf"
            },
            {
                "data": "0:87583",
                "leaf": "clip",
                "type": "Leaf"
            }
        ],
        "type": "Normal"
    },
    {
        "children": [
            {
                "data": "4:943",
                "leaf": "clip",
                "type": "Leaf"
            },
            {
                "data": "5:943",
                "leaf": "clip",
                "type": "Leaf"
            }
        ],
        "type": "AVSplit"
    },
    {
        "children": [
            {
                "data": "5:611",
                "leaf": "clip",
                "type": "Leaf"
            },
            {
                "data": "4:611",
                "leaf": "clip",
                "type": "Leaf"
            }
        ],
        "type": "AVSplit"
    },
    {
        "children": [
            {
                "data": "1:10554",
                "leaf": "clip",
                "type": "Leaf"
            },
            {
                "data": "8:10554",
                "leaf": "clip",
                "type": "Leaf"
            }
        ],
        "type": "AVSplit"
    },
    {
        "children": [
            {
                "data": "1:79225",
                "leaf": "clip",
                "type": "Leaf"
            },
            {
                "data": "0:75147",
                "leaf": "clip",
                "type": "Leaf"
            },
            {
                "data": "0:79779",
                "leaf": "clip",
                "type": "Leaf"
            }
        ],
        "type": "Normal"
    },
    {
        "children": [
            {
                "children": [
                    {
                        "data": "8:84396",
                        "leaf": "clip",
                        "type": "Leaf"
                    },
                    {
                        "data": "9:84411",
                        "leaf": "clip",
                        "type": "Leaf"
                    }
                ],
                "type": "Normal"
            },
            {
                "data": "17:84403",
                "leaf": "clip",
                "type": "Leaf"
            },
            {
                "children": [
                    {
                        "data": "13:84405",
                        "leaf": "clip",
                        "type": "Leaf"
                    },
                    {
                        "data": "14:84420",
                        "leaf": "clip",
                        "type": "Leaf"
                    }
                ],
                "type": "Normal"
            },
            {
                "data": "12:84406",
                "leaf": "clip",
                "type": "Leaf"
            },
            {
                "children": [
                    {
                        "data": "10:84395",
                        "leaf": "clip",
                        "type": "Leaf"
                    },
                    {
                        "data": "11:84411",
                        "leaf": "clip",
                        "type": "Leaf"
                    }
                ],
                "type": "Normal"
            },
            {
                "children": [
                    {
                        "data": "15:84395",
                        "leaf": "clip",
                        "type": "Leaf"
                    },
                    {
                        "data": "16:84410",
                        "leaf": "clip",
                        "type": "Leaf"
                    }
                ],
                "type": "Normal"
            }
        ],
        "type": "Normal"
    },
    {
        "children": [
            {
                "data": "5:0",
                "leaf": "clip",
                "type": "Leaf"
            },
            {
                "data": "4:0",
                "leaf": "clip",
                "type": "Leaf"
            }
        ],
        "type": "AVSplit"
    },
    {
        "children": [
            {
                "data": "9:93386",
                "leaf": "clip",
                "type": "Leaf"
            },
            {
                "data": "10:93426",
                "leaf": "clip",
                "type": "Leaf"
            }
        ],
        "type": "Normal"
    }
]
</property>
  <property name="kdenlive:sequenceproperties.guides">[
    {
        "comment": "The Job-Protectionist Argument",
        "pos": 72919,
        "type": 1
    },
    {
        "comment": "Do AI Image Generators Steal From Artists?",
        "pos": 2474,
        "type": 1
    },
    {
        "comment": "make intro subtitles match, do footnotes, add watermark",
        "pos": 217145,
        "type": 0
    },
    {
        "comment": "The Argument Against AI Image Generation",
        "pos": 0,
        "type": 1
    }
]
</property>
  <property name="kdenlive:sequenceproperties.hidesubtitle">1</property>
  <track producer="producer0"/>
  <track producer="tractor0"/>
  <track producer="tractor1"/>
  <track producer="tractor2"/>
  <track producer="tractor3"/>
  <track producer="tractor4"/>
  <track producer="tractor5"/>
  <track producer="tractor6"/>
  <track producer="tractor7"/>
  <track producer="tractor8"/>
  <track producer="tractor9"/>
  <track producer="tractor10"/>
  <track producer="tractor11"/>
  <track producer="tractor12"/>
  <track producer="tractor13"/>
  <track producer="tractor14"/>
  <track producer="tractor15"/>
  <track producer="tractor16"/>
  <track producer="tractor17"/>
  <track producer="tractor18"/>
  <transition id="transition0">
   <property name="a_track">0</property>
   <property name="b_track">1</property>
   <property name="mlt_service">mix</property>
   <property name="kdenlive_id">mix</property>
   <property name="internal_added">237</property>
   <property name="always_active">1</property>
   <property name="accepts_blanks">1</property>
   <property name="sum">1</property>
  </transition>
  <transition id="transition1">
   <property name="a_track">0</property>
   <property name="b_track">2</property>
   <property name="mlt_service">mix</property>
   <property name="kdenlive_id">mix</property>
   <property name="internal_added">237</property>
   <property name="always_active">1</property>
   <property name="accepts_blanks">1</property>
   <property name="sum">1</property>
  </transition>
  <transition id="transition2">
   <property name="a_track">0</property>
   <property name="b_track">3</property>
   <property name="mlt_service">mix</property>
   <property name="kdenlive_id">mix</property>
   <property name="internal_added">237</property>
   <property name="always_active">1</property>
   <property name="accepts_blanks">1</property>
   <property name="sum">1</property>
  </transition>
  <transition id="transition3">
   <property name="a_track">0</property>
   <property name="b_track">4</property>
   <property name="mlt_service">mix</property>
   <property name="kdenlive_id">mix</property>
   <property name="internal_added">237</property>
   <property name="always_active">1</property>
   <property name="accepts_blanks">1</property>
   <property name="sum">1</property>
  </transition>
  <transition id="transition4">
   <property name="a_track">0</property>
   <property name="b_track">5</property>
   <property name="mlt_service">mix</property>
   <property name="kdenlive_id">mix</property>
   <property name="internal_added">237</property>
   <property name="always_active">1</property>
   <property name="accepts_blanks">1</property>
   <property name="sum">1</property>
  </transition>
  <transition id="transition5" in="01:06:41.360" out="01:06:41.800">
   <property name="a_track">11</property>
   <property name="b_track">12</property>
   <property name="geometry">00:00:00.000=0% 0% 100% 100% 0%;00:00:00.440=0% 0% 100% 100% 100%</property>
   <property name="factory">loader</property>
   <property name="aligned">0</property>
   <property name="progressive">1</property>
   <property name="mlt_service">composite</property>
   <property name="kdenlive_id">wipe</property>
   <property name="luma"/>
   <property name="softness">0</property>
   <property name="luma_invert">0</property>
   <property name="fill">1</property>
  </transition>
  <transition id="transition6" in="00:51:17.280" out="00:51:17.720">
   <property name="a_track">11</property>
   <property name="b_track">12</property>
   <property name="geometry">0=0% 0% 100% 100% 0%;-1=0% 0% 100% 100% 100%</property>
   <property name="factory">loader</property>
   <property name="aligned">0</property>
   <property name="progressive">1</property>
   <property name="mlt_service">composite</property>
   <property name="kdenlive_id">wipe</property>
   <property name="luma"/>
   <property name="softness">0</property>
   <property name="luma_invert">0</property>
   <property name="fill">1</property>
  </transition>
  <transition id="transition7" in="01:10:11.840" out="01:10:12.600">
   <property name="a_track">9</property>
   <property name="b_track">10</property>
   <property name="geometry">00:00:00.000=0% 0% 100% 100% 100%;00:00:00.760=0% 0% 100% 100% 0%</property>
   <property name="factory">loader</property>
   <property name="aligned">0</property>
   <property name="progressive">1</property>
   <property name="mlt_service">composite</property>
   <property name="kdenlive_id">wipe</property>
   <property name="luma"/>
   <property name="softness">0</property>
   <property name="luma_invert">0</property>
   <property name="fill">1</property>
  </transition>
  <transition id="transition8" in="00:51:17.280" out="00:51:17.720">
   <property name="a_track">9</property>
   <property name="b_track">10</property>
   <property name="geometry">0=0% 0% 100% 100% 0%;-1=0% 0% 100% 100% 100%</property>
   <property name="factory">loader</property>
   <property name="aligned">0</property>
   <property name="progressive">1</property>
   <property name="mlt_service">composite</property>
   <property name="kdenlive_id">wipe</property>
   <property name="luma"/>
   <property name="softness">0</property>
   <property name="luma_invert">0</property>
   <property name="fill">1</property>
  </transition>
  <transition id="transition9" in="01:06:41.360" out="01:06:41.800">
   <property name="a_track">9</property>
   <property name="b_track">10</property>
   <property name="geometry">00:00:00.000=0% 0% 100% 100% 0%;00:00:00.440=0% 0% 100% 100% 100%</property>
   <property name="factory">loader</property>
   <property name="aligned">0</property>
   <property name="progressive">1</property>
   <property name="mlt_service">composite</property>
   <property name="kdenlive_id">wipe</property>
   <property name="luma"/>
   <property name="softness">0</property>
   <property name="luma_invert">0</property>
   <property name="fill">1</property>
  </transition>
  <transition id="transition10" in="00:42:47.800" out="00:42:47.920">
   <property name="a_track">8</property>
   <property name="b_track">9</property>
   <property name="geometry">0=0% 0% 100% 100% 0%;-1=0% 0% 100% 100% 100%</property>
   <property name="factory">loader</property>
   <property name="aligned">0</property>
   <property name="progressive">1</property>
   <property name="mlt_service">composite</property>
   <property name="kdenlive_id">wipe</property>
   <property name="luma"/>
   <property name="softness">0</property>
   <property name="luma_invert">0</property>
   <property name="fill">1</property>
  </transition>
  <transition id="transition11" in="00:42:47.280" out="00:42:47.400">
   <property name="a_track">8</property>
   <property name="b_track">9</property>
   <property name="geometry">0=0% 0% 100% 100% 0%;-1=0% 0% 100% 100% 100%</property>
   <property name="factory">loader</property>
   <property name="aligned">0</property>
   <property name="progressive">1</property>
   <property name="mlt_service">composite</property>
   <property name="kdenlive_id">wipe</property>
   <property name="luma"/>
   <property name="softness">0</property>
   <property name="luma_invert">0</property>
   <property name="fill">1</property>
  </transition>
  <transition id="transition12" in="01:10:14.160" out="01:10:14.960">
   <property name="a_track">8</property>
   <property name="b_track">9</property>
   <property name="geometry">00:00:00.000=0% 0% 100% 100% 100%;00:00:00.800=0% 0% 100% 100% 0%</property>
   <property name="factory">loader</property>
   <property name="aligned">0</property>
   <property name="progressive">1</property>
   <property name="mlt_service">composite</property>
   <property name="kdenlive_id">wipe</property>
   <property name="luma"/>
   <property name="softness">0</property>
   <property name="luma_invert">0</property>
   <property name="fill">1</property>
  </transition>
  <transition id="transition13" in="00:42:46.240" out="00:42:46.800">
   <property name="a_track">8</property>
   <property name="b_track">9</property>
   <property name="geometry">0=0% 0% 100% 100% 0%;-1=0% 0% 100% 100% 100%</property>
   <property name="factory">loader</property>
   <property name="aligned">0</property>
   <property name="progressive">1</property>
   <property name="mlt_service">composite</property>
   <property name="kdenlive_id">wipe</property>
   <property name="luma"/>
   <property name="softness">0</property>
   <property name="luma_invert">0</property>
   <property name="fill">1</property>
  </transition>
  <transition id="transition14" in="00:36:21.480" out="00:36:23.960">
   <property name="a_track">7</property>
   <property name="b_track">8</property>
   <property name="geometry">0=0% 0% 100% 100% 100%;-1=0% 0% 100% 100% 0%</property>
   <property name="factory">loader</property>
   <property name="aligned">0</property>
   <property name="progressive">1</property>
   <property name="mlt_service">composite</property>
   <property name="kdenlive_id">wipe</property>
   <property name="luma"/>
   <property name="softness">0</property>
   <property name="luma_invert">0</property>
   <property name="fill">1</property>
  </transition>
  <transition id="transition15" in="01:06:41.360" out="01:06:41.800">
   <property name="a_track">7</property>
   <property name="b_track">8</property>
   <property name="geometry">00:00:00.000=0% 0% 100% 100% 0%;00:00:00.440=0% 0% 100% 100% 100%</property>
   <property name="factory">loader</property>
   <property name="aligned">0</property>
   <property name="progressive">1</property>
   <property name="mlt_service">composite</property>
   <property name="kdenlive_id">wipe</property>
   <property name="luma"/>
   <property name="softness">0</property>
   <property name="luma_invert">0</property>
   <property name="fill">1</property>
  </transition>
  <transition id="transition16" in="00:35:49.120" out="00:35:52.520">
   <property name="a_track">7</property>
   <property name="b_track">8</property>
   <property name="geometry">0=0% 0% 100% 100% 0%;-1=0% 0% 100% 100% 100%</property>
   <property name="factory">loader</property>
   <property name="aligned">0</property>
   <property name="progressive">1</property>
   <property name="mlt_service">composite</property>
   <property name="kdenlive_id">wipe</property>
   <property name="luma"/>
   <property name="softness">0</property>
   <property name="luma_invert">0</property>
   <property name="fill">1</property>
  </transition>
  <transition id="transition17" in="00:43:31.120" out="00:43:31.480">
   <property name="a_track">7</property>
   <property name="b_track">8</property>
   <property name="geometry">0=0% 0% 100% 100% 0%;-1=0% 0% 100% 100% 100%</property>
   <property name="factory">loader</property>
   <property name="aligned">0</property>
   <property name="progressive">1</property>
   <property name="mlt_service">composite</property>
   <property name="kdenlive_id">wipe</property>
   <property name="luma"/>
   <property name="softness">0</property>
   <property name="luma_invert">0</property>
   <property name="fill">1</property>
  </transition>
  <transition id="transition18" in="00:49:32.040" out="00:49:33.600">
   <property name="a_track">7</property>
   <property name="b_track">8</property>
   <property name="geometry">0=0% 0% 100% 100% 0%;-1=0% 0% 100% 100% 100%</property>
   <property name="factory">loader</property>
   <property name="aligned">0</property>
   <property name="progressive">1</property>
   <property name="mlt_service">composite</property>
   <property name="kdenlive_id">wipe</property>
   <property name="luma"/>
   <property name="softness">0</property>
   <property name="luma_invert">0</property>
   <property name="fill">1</property>
  </transition>
  <transition id="transition19" in="00:51:02.120" out="00:51:04.400">
   <property name="a_track">7</property>
   <property name="b_track">8</property>
   <property name="geometry">0=0% 0% 100% 100% 0%;-1=0% 0% 100% 100% 100%</property>
   <property name="factory">loader</property>
   <property name="aligned">0</property>
   <property name="progressive">1</property>
   <property name="mlt_service">composite</property>
   <property name="kdenlive_id">wipe</property>
   <property name="luma"/>
   <property name="softness">0</property>
   <property name="luma_invert">0</property>
   <property name="fill">1</property>
  </transition>
  <transition id="transition20" in="00:50:11.560" out="00:50:13.440">
   <property name="a_track">7</property>
   <property name="b_track">8</property>
   <property name="geometry">0=0% 0% 100% 100% 0%;-1=0% 0% 100% 100% 100%</property>
   <property name="factory">loader</property>
   <property name="aligned">0</property>
   <property name="progressive">1</property>
   <property name="mlt_service">composite</property>
   <property name="kdenlive_id">wipe</property>
   <property name="luma"/>
   <property name="softness">0</property>
   <property name="luma_invert">0</property>
   <property name="fill">1</property>
  </transition>
  <transition id="transition21" in="00:51:17.280" out="00:51:17.720">
   <property name="a_track">7</property>
   <property name="b_track">8</property>
   <property name="geometry">0=0% 0% 100% 100% 0%;-1=0% 0% 100% 100% 100%</property>
   <property name="factory">loader</property>
   <property name="aligned">0</property>
   <property name="progressive">1</property>
   <property name="mlt_service">composite</property>
   <property name="kdenlive_id">wipe</property>
   <property name="luma"/>
   <property name="softness">0</property>
   <property name="luma_invert">0</property>
   <property name="fill">1</property>
  </transition>
  <transition id="transition22" in="01:10:16.720" out="01:10:17.400">
   <property name="a_track">7</property>
   <property name="b_track">8</property>
   <property name="geometry">00:00:00.000=0% 0% 100% 100% 100%;00:00:00.680=0% 0% 100% 100% 0%</property>
   <property name="factory">loader</property>
   <property name="aligned">0</property>
   <property name="progressive">1</property>
   <property name="mlt_service">composite</property>
   <property name="kdenlive_id">wipe</property>
   <property name="luma"/>
   <property name="softness">0</property>
   <property name="luma_invert">0</property>
   <property name="fill">1</property>
  </transition>
  <transition id="transition23" in="01:00:06.160" out="01:00:09.480">
   <property name="a_track">7</property>
   <property name="b_track">8</property>
   <property name="geometry">0=0% 0% 100% 100% 100%;-1=0% 0% 100% 100% 0%</property>
   <property name="factory">loader</property>
   <property name="aligned">0</property>
   <property name="progressive">1</property>
   <property name="mlt_service">composite</property>
   <property name="kdenlive_id">wipe</property>
   <property name="luma"/>
   <property name="softness">0</property>
   <property name="luma_invert">0</property>
   <property name="fill">1</property>
  </transition>
  <transition id="transition24" in="01:11:10.400" out="01:11:11.000">
   <property name="a_track">6</property>
   <property name="b_track">7</property>
   <property name="geometry">00:00:00.000=0% 0% 100% 100% 0%;00:00:00.600=0% 0% 100% 100% 100%</property>
   <property name="factory">loader</property>
   <property name="aligned">0</property>
   <property name="progressive">1</property>
   <property name="mlt_service">composite</property>
   <property name="kdenlive_id">wipe</property>
   <property name="luma"/>
   <property name="softness">0</property>
   <property name="luma_invert">0</property>
   <property name="fill">1</property>
  </transition>
  <transition id="transition25" in="01:10:24.880" out="01:10:25.560">
   <property name="a_track">6</property>
   <property name="b_track">7</property>
   <property name="geometry">00:00:00.000=0% 0% 100% 100% 100%;00:00:00.680=0% 0% 100% 100% 0%</property>
   <property name="factory">loader</property>
   <property name="aligned">0</property>
   <property name="progressive">1</property>
   <property name="mlt_service">composite</property>
   <property name="kdenlive_id">wipe</property>
   <property name="luma"/>
   <property name="softness">0</property>
   <property name="luma_invert">0</property>
   <property name="fill">1</property>
  </transition>
  <transition id="transition26" in="01:11:08.880" out="01:11:09.600">
   <property name="a_track">6</property>
   <property name="b_track">7</property>
   <property name="geometry">00:00:00.000=0% 0% 100% 100% 100%;00:00:00.720=0% 0% 100% 100% 0%</property>
   <property name="factory">loader</property>
   <property name="aligned">0</property>
   <property name="progressive">1</property>
   <property name="mlt_service">composite</property>
   <property name="kdenlive_id">wipe</property>
   <property name="luma"/>
   <property name="softness">0</property>
   <property name="luma_invert">0</property>
   <property name="fill">1</property>
  </transition>
  <transition id="transition27" in="01:11:07.280" out="01:11:08.040">
   <property name="a_track">6</property>
   <property name="b_track">7</property>
   <property name="geometry">00:00:00.000=0% 0% 100% 100% 0%;00:00:00.760=0% 0% 100% 100% 100%</property>
   <property name="factory">loader</property>
   <property name="aligned">0</property>
   <property name="progressive">1</property>
   <property name="mlt_service">composite</property>
   <property name="kdenlive_id">wipe</property>
   <property name="luma"/>
   <property name="softness">0</property>
   <property name="luma_invert">0</property>
   <property name="fill">1</property>
  </transition>
  <transition id="transition28" in="01:11:17.680" out="01:11:18.480">
   <property name="a_track">6</property>
   <property name="b_track">7</property>
   <property name="geometry">00:00:00.000=0% 0% 100% 100% 100%;00:00:00.800=0% 0% 100% 100% 0%</property>
   <property name="factory">loader</property>
   <property name="aligned">0</property>
   <property name="progressive">1</property>
   <property name="mlt_service">composite</property>
   <property name="kdenlive_id">wipe</property>
   <property name="luma"/>
   <property name="softness">0</property>
   <property name="luma_invert">0</property>
   <property name="fill">1</property>
  </transition>
  <transition id="transition29" in="01:10:35.360" out="01:10:36.320">
   <property name="a_track">6</property>
   <property name="b_track">7</property>
   <property name="geometry">00:00:00.000=0% 0% 100% 100% 100%;00:00:00.960=0% 0% 100% 100% 0%</property>
   <property name="factory">loader</property>
   <property name="aligned">0</property>
   <property name="progressive">1</property>
   <property name="mlt_service">composite</property>
   <property name="kdenlive_id">wipe</property>
   <property name="luma"/>
   <property name="softness">0</property>
   <property name="luma_invert">0</property>
   <property name="fill">1</property>
  </transition>
  <transition id="transition30" in="01:10:31.360" out="01:10:32.200">
   <property name="a_track">6</property>
   <property name="b_track">7</property>
   <property name="geometry">00:00:00.000=0% 0% 100% 100% 0%;00:00:00.840=0% 0% 100% 100% 100%</property>
   <property name="factory">loader</property>
   <property name="aligned">0</property>
   <property name="progressive">1</property>
   <property name="mlt_service">composite</property>
   <property name="kdenlive_id">wipe</property>
   <property name="luma"/>
   <property name="softness">0</property>
   <property name="luma_invert">0</property>
   <property name="fill">1</property>
  </transition>
  <transition id="transition31" in="00:00:44.560" out="00:00:48.200">
   <property name="a_track">6</property>
   <property name="b_track">7</property>
   <property name="geometry">0=0% 0% 100% 100% 0%;-1=0% 0% 100% 100% 100%</property>
   <property name="factory">loader</property>
   <property name="aligned">0</property>
   <property name="progressive">1</property>
   <property name="mlt_service">composite</property>
   <property name="kdenlive_id">wipe</property>
   <property name="luma"/>
   <property name="softness">0</property>
   <property name="luma_invert">0</property>
   <property name="fill">1</property>
  </transition>
  <transition id="transition32">
   <property name="a_track">0</property>
   <property name="b_track">6</property>
   <property name="version">0.1</property>
   <property name="mlt_service">frei0r.cairoblend</property>
   <property name="always_active">1</property>
   <property name="internal_added">237</property>
   <properties name="ctor-0x7f4f017fa6c0"/>
   <properties name="ctor-0x7f4ef1ffb6c0"/>
   <properties name="ctor-0x7f4efa7fc6c0"/>
   <properties name="ctor-0x7f4f03fff6c0"/>
   <properties name="ctor-0x7f4ef3fff6c0"/>
   <properties name="ctor-0x7f4e6ea866c0"/>
   <properties name="ctor-0x7f4e73a886c0"/>
   <properties name="ctor-0x7f4e617fa6c0"/>
   <properties name="ctor-0x7f4e5c7f06c0"/>
   <properties name="ctor-0x7f4e556136c0"/>
   <properties name="ctor-0x7f4efaffd6c0"/>
   <properties name="ctor-0x7f518dffb6c0"/>
  </transition>
  <transition id="transition33">
   <property name="a_track">0</property>
   <property name="b_track">7</property>
   <property name="version">0.1</property>
   <property name="mlt_service">frei0r.cairoblend</property>
   <property name="always_active">1</property>
   <property name="internal_added">237</property>
   <properties name="ctor-0x7f519d03d6c0"/>
   <properties name="ctor-0x7f506a7fc6c0"/>
   <properties name="ctor-0x7f504d7f86c0"/>
   <properties name="ctor-0x7f5035ffe6c0"/>
   <properties name="ctor-0x7f5023fff6c0"/>
   <properties name="ctor-0x7f4fe07f86c0"/>
   <properties name="ctor-0x7f507544c6c0"/>
   <properties name="ctor-0x7f4fe1ffb6c0"/>
   <properties name="ctor-0x7f51e4dee6c0"/>
   <properties name="ctor-0x7f4fe0ff96c0"/>
   <properties name="ctor-0x7f51b545f6c0"/>
   <properties name="ctor-0x7f4f7be0c6c0"/>
   <properties name="ctor-0x7f4f71a566c0"/>
   <properties name="ctor-0x7f4f6ca526c0"/>
   <properties name="ctor-0x7f519c83c6c0"/>
   <properties name="ctor-0x7f51ddca46c0"/>
   <properties name="ctor-0x7f4ef1ffb6c0"/>
   <properties name="ctor-0x7f4ed6e746c0"/>
   <properties name="ctor-0x7f4f00e226c0"/>
   <properties name="ctor-0x7f4f017fa6c0"/>
   <properties name="ctor-0x7f4ef2ffd6c0"/>
   <properties name="ctor-0x7f4efa7fc6c0"/>
   <properties name="ctor-0x7f4f03fff6c0"/>
   <properties name="ctor-0x7f4ef3fff6c0"/>
   <properties name="ctor-0x7f4e6ea866c0"/>
   <properties name="ctor-0x7f4e73a886c0"/>
   <properties name="ctor-0x7f4e677fe6c0"/>
   <properties name="ctor-0x7f4e617fa6c0"/>
   <properties name="ctor-0x7f4e5c7f06c0"/>
   <properties name="ctor-0x7f4e546116c0"/>
   <properties name="ctor-0x7f4e556136c0"/>
   <properties name="ctor-0x7f518dffb6c0"/>
   <properties name="ctor-0x7f4f11ffb6c0"/>
   <properties name="ctor-0x7f4f19ffb6c0"/>
   <properties name="ctor-0x7f4e2ee266c0"/>
   <properties name="ctor-0x7f4e50e126c0"/>
   <properties name="ctor-0x7f4e536126c0"/>
   <properties name="ctor-0x7f4e2ffff6c0"/>
   <properties name="ctor-0x7f4e09ffb6c0"/>
   <properties name="ctor-0x7f4e126196c0"/>
   <properties name="ctor-0x7f4e526106c0"/>
   <properties name="ctor-0x7f4ed04906c0"/>
  </transition>
  <transition id="transition34">
   <property name="a_track">0</property>
   <property name="b_track">8</property>
   <property name="version">0.1</property>
   <property name="mlt_service">frei0r.cairoblend</property>
   <property name="always_active">1</property>
   <property name="internal_added">237</property>
   <properties name="ctor-0x7f519d03d6c0"/>
   <properties name="ctor-0x7f506a7fc6c0"/>
   <properties name="ctor-0x7f504d7f86c0"/>
   <properties name="ctor-0x7f504cff76c0"/>
   <properties name="ctor-0x7f504dff96c0"/>
   <properties name="ctor-0x7f5046e1f6c0"/>
   <properties name="ctor-0x7f5035ffe6c0"/>
   <properties name="ctor-0x7f5023fff6c0"/>
   <properties name="ctor-0x7f4fe0ff96c0"/>
   <properties name="ctor-0x7f4fdeff56c0"/>
   <properties name="ctor-0x7f4fe07f86c0"/>
   <properties name="ctor-0x7f4f7be0c6c0"/>
   <properties name="ctor-0x7f4fdf7f66c0"/>
   <properties name="ctor-0x7f4fe1ffb6c0"/>
   <properties name="ctor-0x7f507544c6c0"/>
   <properties name="ctor-0x7f51e4dee6c0"/>
   <properties name="ctor-0x7f4f71a566c0"/>
   <properties name="ctor-0x7f4f6ca526c0"/>
   <properties name="ctor-0x7f519c83c6c0"/>
   <properties name="ctor-0x7f51ddca46c0"/>
   <properties name="ctor-0x7f50e961b6c0"/>
   <properties name="ctor-0x7f5068ff96c0"/>
   <properties name="ctor-0x7f505ce226c0"/>
   <properties name="ctor-0x7f50297fb6c0"/>
   <properties name="ctor-0x7f4f64c4b6c0"/>
   <properties name="ctor-0x7f4efbfff6c0"/>
   <properties name="ctor-0x7f4ef96236c0"/>
   <properties name="ctor-0x7f4ef1ffb6c0"/>
   <properties name="ctor-0x7f4ef2ffd6c0"/>
   <properties name="ctor-0x7f4f017fa6c0"/>
   <properties name="ctor-0x7f4efa7fc6c0"/>
   <properties name="ctor-0x7f4e73a886c0"/>
   <properties name="ctor-0x7f4e677fe6c0"/>
   <properties name="ctor-0x7f4e617fa6c0"/>
   <properties name="ctor-0x7f4e546116c0"/>
   <properties name="ctor-0x7f518dffb6c0"/>
   <properties name="ctor-0x7f4efaffd6c0"/>
   <properties name="ctor-0x7f4f11ffb6c0"/>
   <properties name="ctor-0x7f4e2ffff6c0"/>
   <properties name="ctor-0x7f4e126196c0"/>
   <properties name="ctor-0x7f4e526106c0"/>
   <properties name="ctor-0x7f4ed04906c0"/>
  </transition>
  <transition id="transition35">
   <property name="a_track">0</property>
   <property name="b_track">9</property>
   <property name="version">0.1</property>
   <property name="mlt_service">frei0r.cairoblend</property>
   <property name="always_active">1</property>
   <property name="internal_added">237</property>
   <properties name="ctor-0x7f519d03d6c0"/>
   <properties name="ctor-0x7f506a7fc6c0"/>
   <properties name="ctor-0x7f504cff76c0"/>
   <properties name="ctor-0x7f504dff96c0"/>
   <properties name="ctor-0x7f5046e1f6c0"/>
   <properties name="ctor-0x7f504d7f86c0"/>
   <properties name="ctor-0x7f5035ffe6c0"/>
   <properties name="ctor-0x7f5023fff6c0"/>
   <properties name="ctor-0x7f4fe0ff96c0"/>
   <properties name="ctor-0x7f4fdeff56c0"/>
   <properties name="ctor-0x7f4fe07f86c0"/>
   <properties name="ctor-0x7f4f7be0c6c0"/>
   <properties name="ctor-0x7f4fdf7f66c0"/>
   <properties name="ctor-0x7f4fe1ffb6c0"/>
   <properties name="ctor-0x7f507544c6c0"/>
   <properties name="ctor-0x7f4f71a566c0"/>
   <properties name="ctor-0x7f4f6ca526c0"/>
   <properties name="ctor-0x7f519c83c6c0"/>
   <properties name="ctor-0x7f51ddca46c0"/>
   <properties name="ctor-0x7f50e961b6c0"/>
   <properties name="ctor-0x7f5068ff96c0"/>
   <properties name="ctor-0x7f505ce226c0"/>
   <properties name="ctor-0x7f50297fb6c0"/>
   <properties name="ctor-0x7f4f64c4b6c0"/>
   <properties name="ctor-0x7f4efbfff6c0"/>
   <properties name="ctor-0x7f4ef96236c0"/>
   <properties name="ctor-0x7f4f00e226c0"/>
   <properties name="ctor-0x7f4f017fa6c0"/>
   <properties name="ctor-0x7f4efa7fc6c0"/>
   <properties name="ctor-0x7f4e73a886c0"/>
   <properties name="ctor-0x7f4e546116c0"/>
   <properties name="ctor-0x7f518dffb6c0"/>
   <properties name="ctor-0x7f4efaffd6c0"/>
   <properties name="ctor-0x7f4f11ffb6c0"/>
   <properties name="ctor-0x7f4e2ffff6c0"/>
   <properties name="ctor-0x7f4e126196c0"/>
   <properties name="ctor-0x7f4e526106c0"/>
   <properties name="ctor-0x7f4ed04906c0"/>
  </transition>
  <transition id="transition36">
   <property name="a_track">0</property>
   <property name="b_track">10</property>
   <property name="version">0.1</property>
   <property name="mlt_service">frei0r.cairoblend</property>
   <property name="always_active">1</property>
   <property name="internal_added">237</property>
   <properties name="ctor-0x7f519d03d6c0"/>
   <properties name="ctor-0x7f504d7f86c0"/>
   <properties name="ctor-0x7f5035ffe6c0"/>
   <properties name="ctor-0x7f5023fff6c0"/>
   <properties name="ctor-0x7f4fe0ff96c0"/>
   <properties name="ctor-0x7f4fdeff56c0"/>
   <properties name="ctor-0x7f4fe07f86c0"/>
   <properties name="ctor-0x7f4f7be0c6c0"/>
   <properties name="ctor-0x7f4fdf7f66c0"/>
   <properties name="ctor-0x7f507544c6c0"/>
   <properties name="ctor-0x7f51052236c0"/>
   <properties name="ctor-0x7f519c83c6c0"/>
   <properties name="ctor-0x7f51ddca46c0"/>
   <properties name="ctor-0x7f4f64c4b6c0"/>
   <properties name="ctor-0x7f4efbfff6c0"/>
   <properties name="ctor-0x7f4f017fa6c0"/>
   <properties name="ctor-0x7f4e73a886c0"/>
   <properties name="ctor-0x7f4e546116c0"/>
   <properties name="ctor-0x7f518dffb6c0"/>
   <properties name="ctor-0x7f4efaffd6c0"/>
   <properties name="ctor-0x7f4f12ffd6c0"/>
   <properties name="ctor-0x7f4f11ffb6c0"/>
   <properties name="ctor-0x7f4f19ffb6c0"/>
   <properties name="ctor-0x7f4e2ffff6c0"/>
   <properties name="ctor-0x7f4ed04906c0"/>
  </transition>
  <transition id="transition37">
   <property name="a_track">0</property>
   <property name="b_track">11</property>
   <property name="version">0.1</property>
   <property name="mlt_service">frei0r.cairoblend</property>
   <property name="always_active">1</property>
   <property name="internal_added">237</property>
   <properties name="ctor-0x7f519d03d6c0"/>
   <properties name="ctor-0x7f506a7fc6c0"/>
   <properties name="ctor-0x7f504d7f86c0"/>
   <properties name="ctor-0x7f5035ffe6c0"/>
   <properties name="ctor-0x7f5023fff6c0"/>
   <properties name="ctor-0x7f4fe0ff96c0"/>
   <properties name="ctor-0x7f4fdeff56c0"/>
   <properties name="ctor-0x7f4fe07f86c0"/>
   <properties name="ctor-0x7f4f7be0c6c0"/>
   <properties name="ctor-0x7f4fdf7f66c0"/>
   <properties name="ctor-0x7f507544c6c0"/>
   <properties name="ctor-0x7f51052236c0"/>
   <properties name="ctor-0x7f519c83c6c0"/>
   <properties name="ctor-0x7f51ddca46c0"/>
   <properties name="ctor-0x7f4efbfff6c0"/>
   <properties name="ctor-0x7f4ef96236c0"/>
   <properties name="ctor-0x7f4efaffd6c0"/>
   <properties name="ctor-0x7f4efa7fc6c0"/>
   <properties name="ctor-0x7f4ed6e746c0"/>
   <properties name="ctor-0x7f4ef1ffb6c0"/>
   <properties name="ctor-0x7f4f00e226c0"/>
   <properties name="ctor-0x7f4f017fa6c0"/>
   <properties name="ctor-0x7f4ef2ffd6c0"/>
   <properties name="ctor-0x7f4f03fff6c0"/>
   <properties name="ctor-0x7f4ef3fff6c0"/>
   <properties name="ctor-0x7f4e6da846c0"/>
   <properties name="ctor-0x7f4e732876c0"/>
   <properties name="ctor-0x7f4e73a886c0"/>
   <properties name="ctor-0x7f4e6ea866c0"/>
   <properties name="ctor-0x7f4e677fe6c0"/>
   <properties name="ctor-0x7f4e617fa6c0"/>
   <properties name="ctor-0x7f4e5c7f06c0"/>
   <properties name="ctor-0x7f4e546116c0"/>
   <properties name="ctor-0x7f4e556136c0"/>
   <properties name="ctor-0x7f518dffb6c0"/>
   <properties name="ctor-0x7f4f12ffd6c0"/>
   <properties name="ctor-0x7f4f11ffb6c0"/>
   <properties name="ctor-0x7f4f19ffb6c0"/>
   <properties name="ctor-0x7f4e2ffff6c0"/>
   <properties name="ctor-0x7f4ed04906c0"/>
  </transition>
  <transition id="transition38">
   <property name="a_track">0</property>
   <property name="b_track">12</property>
   <property name="version">0.1</property>
   <property name="mlt_service">frei0r.cairoblend</property>
   <property name="always_active">1</property>
   <property name="internal_added">237</property>
   <properties name="ctor-0x7f519d03d6c0"/>
   <properties name="ctor-0x7f506a7fc6c0"/>
   <properties name="ctor-0x7f5035ffe6c0"/>
   <properties name="ctor-0x7f5023fff6c0"/>
   <properties name="ctor-0x7f4fe07f86c0"/>
   <properties name="ctor-0x7f4f7be0c6c0"/>
   <properties name="ctor-0x7f4fdf7f66c0"/>
   <properties name="ctor-0x7f4fdeff56c0"/>
   <properties name="ctor-0x7f504d7f86c0"/>
   <properties name="ctor-0x7f4fe0ff96c0"/>
   <properties name="ctor-0x7f4ed04906c0"/>
  </transition>
  <transition id="transition39">
   <property name="a_track">0</property>
   <property name="b_track">13</property>
   <property name="version">0.1</property>
   <property name="mlt_service">frei0r.cairoblend</property>
   <property name="always_active">1</property>
   <property name="internal_added">237</property>
   <properties name="ctor-0x7f519d03d6c0"/>
   <properties name="ctor-0x7f5023fff6c0"/>
   <properties name="ctor-0x7f504d7f86c0"/>
   <properties name="ctor-0x7f4fe0ff96c0"/>
  </transition>
  <transition id="transition40">
   <property name="a_track">0</property>
   <property name="b_track">14</property>
   <property name="version">0.1</property>
   <property name="mlt_service">frei0r.cairoblend</property>
   <property name="always_active">1</property>
   <property name="internal_added">237</property>
   <properties name="ctor-0x7f5023fff6c0"/>
  </transition>
  <transition id="transition41">
   <property name="a_track">0</property>
   <property name="b_track">15</property>
   <property name="version">0.1</property>
   <property name="mlt_service">frei0r.cairoblend</property>
   <property name="always_active">1</property>
   <property name="internal_added">237</property>
   <properties name="ctor-0x7f4fe07f86c0"/>
  </transition>
  <transition id="transition42">
   <property name="a_track">0</property>
   <property name="b_track">16</property>
   <property name="version">0.1</property>
   <property name="mlt_service">frei0r.cairoblend</property>
   <property name="always_active">1</property>
   <property name="internal_added">237</property>
  </transition>
  <transition id="transition43">
   <property name="a_track">0</property>
   <property name="b_track">17</property>
   <property name="version">0.1</property>
   <property name="mlt_service">frei0r.cairoblend</property>
   <property name="always_active">1</property>
   <property name="internal_added">237</property>
  </transition>
  <transition id="transition44">
   <property name="a_track">0</property>
   <property name="b_track">18</property>
   <property name="version">0.1</property>
   <property name="mlt_service">frei0r.cairoblend</property>
   <property name="always_active">1</property>
   <property name="internal_added">237</property>
  </transition>
  <transition id="transition45">
   <property name="a_track">0</property>
   <property name="b_track">19</property>
   <property name="version">0.1</property>
   <property name="mlt_service">frei0r.cairoblend</property>
   <property name="always_active">1</property>
   <property name="internal_added">237</property>
  </transition>
  <filter id="filter2009">
   <property name="window">75</property>
   <property name="max_gain">20dB</property>
   <property name="mlt_service">volume</property>
   <property name="internal_added">237</property>
   <property name="disable">1</property>
  </filter>
  <filter id="filter2010">
   <property name="channel">-1</property>
   <property name="mlt_service">panner</property>
   <property name="internal_added">237</property>
   <property name="start">0.5</property>
   <property name="disable">1</property>
  </filter>
  <filter id="filter2011">
   <property name="window">75</property>
   <property name="max_gain">20dB</property>
   <property name="mlt_service">volume</property>
   <property name="internal_added">237</property>
   <property name="disable">1</property>
  </filter>
  <filter id="filter2012">
   <property name="channel">-1</property>
   <property name="mlt_service">panner</property>
   <property name="internal_added">237</property>
   <property name="start">0.5</property>
   <property name="disable">1</property>
  </filter>
  <filter id="filter2013">
   <property name="window">75</property>
   <property name="max_gain">20dB</property>
   <property name="mlt_service">volume</property>
   <property name="internal_added">237</property>
   <property name="disable">1</property>
  </filter>
  <filter id="filter2014">
   <property name="channel">-1</property>
   <property name="mlt_service">panner</property>
   <property name="internal_added">237</property>
   <property name="start">0.5</property>
   <property name="disable">1</property>
  </filter>
  <filter id="filter2015">
   <property name="window">75</property>
   <property name="max_gain">20dB</property>
   <property name="mlt_service">volume</property>
   <property name="internal_added">237</property>
   <property name="disable">1</property>
  </filter>
  <filter id="filter2016">
   <property name="channel">-1</property>
   <property name="mlt_service">panner</property>
   <property name="internal_added">237</property>
   <property name="start">0.5</property>
   <property name="disable">1</property>
  </filter>
  <filter id="filter2017">
   <property name="window">75</property>
   <property name="max_gain">20dB</property>
   <property name="mlt_service">volume</property>
   <property name="internal_added">237</property>
   <property name="disable">1</property>
  </filter>
  <filter id="filter2018">
   <property name="channel">-1</property>
   <property name="mlt_service">panner</property>
   <property name="internal_added">237</property>
   <property name="start">0.5</property>
   <property name="disable">1</property>
  </filter>
  <filter id="filter2019">
   <property name="window">75</property>
   <property name="max_gain">20dB</property>
   <property name="mlt_service">volume</property>
   <property name="internal_added">237</property>
   <property name="disable">1</property>
  </filter>
  <filter id="filter2020">
   <property name="channel">-1</property>
   <property name="mlt_service">panner</property>
   <property name="internal_added">237</property>
   <property name="start">0.5</property>
   <property name="disable">1</property>
  </filter>
  <filter id="filter2021">
   <property name="window">75</property>
   <property name="max_gain">20dB</property>
   <property name="mlt_service">volume</property>
   <property name="internal_added">237</property>
   <property name="disable">1</property>
  </filter>
  <filter id="filter2022">
   <property name="channel">-1</property>
   <property name="mlt_service">panner</property>
   <property name="internal_added">237</property>
   <property name="start">0.5</property>
   <property name="disable">1</property>
  </filter>
  <filter id="filter2023">
   <property name="window">75</property>
   <property name="max_gain">20dB</property>
   <property name="mlt_service">volume</property>
   <property name="internal_added">237</property>
   <property name="disable">1</property>
  </filter>
  <filter id="filter2024">
   <property name="channel">-1</property>
   <property name="mlt_service">panner</property>
   <property name="internal_added">237</property>
   <property name="start">0.5</property>
   <property name="disable">1</property>
  </filter>
  <filter id="filter2025">
   <property name="window">75</property>
   <property name="max_gain">20dB</property>
   <property name="mlt_service">volume</property>
   <property name="internal_added">237</property>
   <property name="disable">1</property>
  </filter>
  <filter id="filter2026">
   <property name="channel">-1</property>
   <property name="mlt_service">panner</property>
   <property name="internal_added">237</property>
   <property name="start">0.5</property>
   <property name="disable">1</property>
  </filter>
  <filter id="filter2027">
   <property name="window">75</property>
   <property name="max_gain">20dB</property>
   <property name="mlt_service">volume</property>
   <property name="internal_added">237</property>
   <property name="disable">1</property>
  </filter>
  <filter id="filter2028">
   <property name="channel">-1</property>
   <property name="mlt_service">panner</property>
   <property name="internal_added">237</property>
   <property name="start">0.5</property>
   <property name="disable">1</property>
  </filter>
  <filter id="filter2029">
   <property name="window">75</property>
   <property name="max_gain">20dB</property>
   <property name="mlt_service">volume</property>
   <property name="internal_added">237</property>
   <property name="disable">1</property>
  </filter>
  <filter id="filter2030">
   <property name="channel">-1</property>
   <property name="mlt_service">panner</property>
   <property name="internal_added">237</property>
   <property name="start">0.5</property>
   <property name="disable">1</property>
  </filter>
  <filter id="filter2031">
   <property name="window">75</property>
   <property name="max_gain">20dB</property>
   <property name="mlt_service">volume</property>
   <property name="internal_added">237</property>
   <property name="disable">1</property>
  </filter>
  <filter id="filter2032">
   <property name="channel">-1</property>
   <property name="mlt_service">panner</property>
   <property name="internal_added">237</property>
   <property name="start">0.5</property>
   <property name="disable">1</property>
  </filter>
  <filter id="filter2033">
   <property name="window">75</property>
   <property name="max_gain">20dB</property>
   <property name="mlt_service">volume</property>
   <property name="internal_added">237</property>
   <property name="disable">1</property>
  </filter>
  <filter id="filter2034">
   <property name="channel">-1</property>
   <property name="mlt_service">panner</property>
   <property name="internal_added">237</property>
   <property name="start">0.5</property>
   <property name="disable">1</property>
  </filter>
  <filter id="filter2035">
   <property name="window">75</property>
   <property name="max_gain">20dB</property>
   <property name="mlt_service">volume</property>
   <property name="internal_added">237</property>
   <property name="disable">1</property>
  </filter>
  <filter id="filter2036">
   <property name="channel">-1</property>
   <property name="mlt_service">panner</property>
   <property name="internal_added">237</property>
   <property name="start">0.5</property>
   <property name="disable">1</property>
  </filter>
  <filter id="filter2037">
   <property name="window">75</property>
   <property name="max_gain">20dB</property>
   <property name="mlt_service">volume</property>
   <property name="internal_added">237</property>
   <property name="disable">1</property>
  </filter>
  <filter id="filter2038">
   <property name="channel">-1</property>
   <property name="mlt_service">panner</property>
   <property name="internal_added">237</property>
   <property name="start">0.5</property>
   <property name="disable">1</property>
  </filter>
  <filter id="filter2039">
   <property name="window">75</property>
   <property name="max_gain">20dB</property>
   <property name="mlt_service">volume</property>
   <property name="internal_added">237</property>
   <property name="disable">1</property>
  </filter>
  <filter id="filter2040">
   <property name="channel">-1</property>
   <property name="mlt_service">panner</property>
   <property name="internal_added">237</property>
   <property name="start">0.5</property>
   <property name="disable">1</property>
  </filter>
  <filter id="filter2041">
   <property name="window">75</property>
   <property name="max_gain">20dB</property>
   <property name="mlt_service">volume</property>
   <property name="internal_added">237</property>
   <property name="disable">1</property>
  </filter>
  <filter id="filter2042">
   <property name="channel">-1</property>
   <property name="mlt_service">panner</property>
   <property name="internal_added">237</property>
   <property name="start">0.5</property>
   <property name="disable">1</property>
  </filter>
  <filter id="filter2043">
   <property name="window">75</property>
   <property name="max_gain">20dB</property>
   <property name="mlt_service">volume</property>
   <property name="internal_added">237</property>
   <property name="disable">1</property>
  </filter>
  <filter id="filter2044">
   <property name="channel">-1</property>
   <property name="mlt_service">panner</property>
   <property name="internal_added">237</property>
   <property name="start">0.5</property>
   <property name="disable">1</property>
  </filter>
  <filter id="filter2045">
   <property name="window">75</property>
   <property name="max_gain">20dB</property>
   <property name="mlt_service">volume</property>
   <property name="internal_added">237</property>
   <property name="disable">1</property>
  </filter>
  <filter id="filter2046">
   <property name="channel">-1</property>
   <property name="mlt_service">panner</property>
   <property name="internal_added">237</property>
   <property name="start">0.5</property>
   <property name="disable">1</property>
  </filter>
  <filter id="filter2047">
   <property name="window">75</property>
   <property name="max_gain">20dB</property>
   <property name="mlt_service">volume</property>
   <property name="internal_added">237</property>
   <property name="disable">1</property>
  </filter>
  <filter id="filter2048">
   <property name="channel">-1</property>
   <property name="mlt_service">panner</property>
   <property name="internal_added">237</property>
   <property name="start">0.5</property>
   <property name="disable">1</property>
  </filter>
  <filter id="filter2049">
   <property name="window">75</property>
   <property name="max_gain">20dB</property>
   <property name="mlt_service">volume</property>
   <property name="internal_added">237</property>
   <property name="disable">1</property>
  </filter>
  <filter id="filter2050">
   <property name="channel">-1</property>
   <property name="mlt_service">panner</property>
   <property name="internal_added">237</property>
   <property name="start">0.5</property>
   <property name="disable">1</property>
  </filter>
  <filter id="filter2051">
   <property name="window">75</property>
   <property name="max_gain">20dB</property>
   <property name="mlt_service">volume</property>
   <property name="internal_added">237</property>
   <property name="disable">1</property>
  </filter>
  <filter id="filter2052">
   <property name="channel">-1</property>
   <property name="mlt_service">panner</property>
   <property name="internal_added">237</property>
   <property name="start">0.5</property>
   <property name="disable">1</property>
  </filter>
  <filter id="filter2053">
   <property name="window">75</property>
   <property name="max_gain">20dB</property>
   <property name="mlt_service">volume</property>
   <property name="internal_added">237</property>
   <property name="disable">1</property>
  </filter>
  <filter id="filter2054">
   <property name="channel">-1</property>
   <property name="mlt_service">panner</property>
   <property name="internal_added">237</property>
   <property name="start">0.5</property>
   <property name="disable">1</property>
  </filter>
  <filter id="filter2055">
   <property name="window">75</property>
   <property name="max_gain">20dB</property>
   <property name="mlt_service">volume</property>
   <property name="internal_added">237</property>
   <property name="disable">1</property>
  </filter>
  <filter id="filter2056">
   <property name="channel">-1</property>
   <property name="mlt_service">panner</property>
   <property name="internal_added">237</property>
   <property name="start">0.5</property>
   <property name="disable">1</property>
  </filter>
  <filter id="filter2057">
   <property name="window">75</property>
   <property name="max_gain">20dB</property>
   <property name="mlt_service">volume</property>
   <property name="internal_added">237</property>
   <property name="disable">1</property>
  </filter>
  <filter id="filter2058">
   <property name="channel">-1</property>
   <property name="mlt_service">panner</property>
   <property name="internal_added">237</property>
   <property name="start">0.5</property>
   <property name="disable">1</property>
  </filter>
  <filter id="filter2059">
   <property name="window">75</property>
   <property name="max_gain">20dB</property>
   <property name="mlt_service">volume</property>
   <property name="internal_added">237</property>
   <property name="disable">1</property>
  </filter>
  <filter id="filter2060">
   <property name="channel">-1</property>
   <property name="mlt_service">panner</property>
   <property name="internal_added">237</property>
   <property name="start">0.5</property>
   <property name="disable">1</property>
  </filter>
  <filter id="filter2061">
   <property name="window">75</property>
   <property name="max_gain">20dB</property>
   <property name="mlt_service">volume</property>
   <property name="internal_added">237</property>
   <property name="disable">1</property>
  </filter>
  <filter id="filter2062">
   <property name="channel">-1</property>
   <property name="mlt_service">panner</property>
   <property name="internal_added">237</property>
   <property name="start">0.5</property>
   <property name="disable">1</property>
  </filter>
  <filter id="filter2063">
   <property name="window">75</property>
   <property name="max_gain">20dB</property>
   <property name="mlt_service">volume</property>
   <property name="internal_added">237</property>
   <property name="disable">1</property>
  </filter>
  <filter id="filter2064">
   <property name="channel">-1</property>
   <property name="mlt_service">panner</property>
   <property name="internal_added">237</property>
   <property name="start">0.5</property>
   <property name="disable">1</property>
  </filter>
  <filter id="filter2065">
   <property name="window">75</property>
   <property name="max_gain">20dB</property>
   <property name="mlt_service">volume</property>
   <property name="internal_added">237</property>
   <property name="disable">1</property>
  </filter>
  <filter id="filter2066">
   <property name="channel">-1</property>
   <property name="mlt_service">panner</property>
   <property name="internal_added">237</property>
   <property name="start">0.5</property>
   <property name="disable">1</property>
  </filter>
 </tractor>
 <producer id="producer730" in="00:00:00.000" out="00:00:04.960">
  <property name="length">00:00:05.000</property>
  <property name="eof">pause</property>
  <property name="resource">qimage:/home/liquidzulu/Documents/youtube-scripts/scripts/essays/ai-art/images/lady justice.webp</property>
  <property name="meta.media.nb_streams">1</property>
  <property name="meta.media.0.stream.type">video</property>
  <property name="meta.media.0.stream.frame_rate">25</property>
  <property name="meta.media.0.stream.sample_aspect_ratio">0</property>
  <property name="meta.media.0.codec.width">1920</property>
  <property name="meta.media.0.codec.height">1080</property>
  <property name="meta.media.0.codec.rotate">0</property>
  <property name="meta.media.0.codec.pix_fmt">yuv420p</property>
  <property name="meta.media.0.codec.sample_aspect_ratio">0</property>
  <property name="meta.media.0.codec.colorspace">601</property>
  <property name="meta.media.0.codec.name">webp</property>
  <property name="meta.media.0.codec.long_name">WebP image</property>
  <property name="meta.media.0.codec.bit_rate">0</property>
  <property name="seekable">1</property>
  <property name="meta.media.sample_aspect_num">1</property>
  <property name="meta.media.sample_aspect_den">1</property>
  <property name="aspect_ratio">1</property>
  <property name="format">3</property>
  <property name="audio_index">-1</property>
  <property name="video_index">0</property>
  <property name="mute_on_pause">0</property>
  <property name="mlt_service">avformat-novalidate</property>
  <property name="kdenlive:clipname"/>
  <property name="kdenlive:duration">00:00:05:00</property>
  <property name="meta.media.frame_rate_num">25</property>
  <property name="meta.media.frame_rate_den">1</property>
  <property name="meta.media.colorspace">601</property>
  <property name="meta.media.color_trc">2</property>
  <property name="meta.media.has_b_frames">0</property>
  <property name="meta.media.width">1920</property>
  <property name="meta.media.height">1080</property>
  <property name="meta.media.color_range">mpeg</property>
  <property name="meta.media.top_field_first">0</property>
  <property name="meta.media.progressive">1</property>
  <property name="kdenlive:clip_type">2</property>
  <property name="kdenlive:folderid">28</property>
  <property name="kdenlive:id">829</property>
  <property name="kdenlive:file_size">0</property>
 </producer>
 <chain id="chain463" out="00:02:43.240">
  <property name="length">4082</property>
  <property name="eof">pause</property>
  <property name="resource">/home/liquidzulu/Videos/yt/b-roll/[Eng CC] Soviet March - 1980's Soviet Army [Red Alert 3] [t-VbAZcyZ_U].webm</property>
  <property name="mlt_service">avformat-novalidate</property>
  <property name="meta.media.nb_streams">2</property>
  <property name="meta.media.0.stream.type">video</property>
  <property name="meta.media.0.stream.frame_rate">25</property>
  <property name="meta.media.0.stream.sample_aspect_ratio">1</property>
  <property name="meta.media.0.codec.width">3840</property>
  <property name="meta.media.0.codec.height">2160</property>
  <property name="meta.media.0.codec.rotate">0</property>
  <property name="meta.media.0.codec.pix_fmt">yuv420p</property>
  <property name="meta.media.0.codec.sample_aspect_ratio">0</property>
  <property name="meta.media.0.codec.colorspace">709</property>
  <property name="meta.media.0.codec.color_trc">1</property>
  <property name="meta.media.0.codec.name">vp9</property>
  <property name="meta.media.0.codec.long_name">Google VP9</property>
  <property name="meta.media.0.codec.bit_rate">0</property>
  <property name="meta.attr.0.stream.language.markup">eng</property>
  <property name="meta.attr.0.stream.DURATION.markup">00:02:43.240000000</property>
  <property name="meta.media.1.stream.type">audio</property>
  <property name="meta.media.1.codec.sample_fmt">fltp</property>
  <property name="meta.media.1.codec.sample_rate">48000</property>
  <property name="meta.media.1.codec.channels">2</property>
  <property name="meta.media.1.codec.name">opus</property>
  <property name="meta.media.1.codec.long_name">Opus</property>
  <property name="meta.media.1.codec.bit_rate">0</property>
  <property name="meta.attr.1.stream.language.markup">eng</property>
  <property name="meta.attr.1.stream.DURATION.markup">00:02:43.261000000</property>
  <property name="meta.attr.ENCODER.markup">Lavf59.27.100</property>
  <property name="seekable">1</property>
  <property name="meta.media.sample_aspect_num">1</property>
  <property name="meta.media.sample_aspect_den">1</property>
  <property name="format">3</property>
  <property name="audio_index">-1</property>
  <property name="video_index">0</property>
  <property name="mute_on_pause">0</property>
  <property name="meta.media.frame_rate_num">25</property>
  <property name="meta.media.frame_rate_den">1</property>
  <property name="meta.media.colorspace">709</property>
  <property name="meta.media.color_trc">1</property>
  <property name="meta.media.has_b_frames">0</property>
  <property name="meta.media.width">3840</property>
  <property name="meta.media.height">2160</property>
  <property name="meta.media.color_range">mpeg</property>
  <property name="kdenlive:clipname"/>
  <property name="meta.media.top_field_first">0</property>
  <property name="meta.media.progressive">1</property>
  <property name="kdenlive:clip_type">0</property>
  <property name="kdenlive:folderid">14</property>
  <property name="kdenlive:id">831</property>
  <property name="kdenlive:file_size">356431322</property>
  <property name="kdenlive:file_hash">2c4031e43511aca0bc28c816e958ce07</property>
  <property name="kdenlive:audio_max1">224</property>
  <property name="kdenlive:active_streams">-1</property>
  <property name="set.test_audio">1</property>
 </chain>
 <chain id="chain464" out="00:17:00.360">
  <property name="length">25510</property>
  <property name="eof">pause</property>
  <property name="resource">b-roll/New AI Art SCAM is STEALING COMMISSIONS (+More AI Art News) ï½œï½œ SPEEDPAINT + COMMENTARY [AoO8NBZ4qSo].webm</property>
  <property name="mlt_service">avformat-novalidate</property>
  <property name="meta.media.nb_streams">2</property>
  <property name="meta.media.0.stream.type">video</property>
  <property name="meta.media.0.stream.frame_rate">30</property>
  <property name="meta.media.0.stream.sample_aspect_ratio">1</property>
  <property name="meta.media.0.codec.width">1920</property>
  <property name="meta.media.0.codec.height">1080</property>
  <property name="meta.media.0.codec.rotate">0</property>
  <property name="meta.media.0.codec.pix_fmt">yuv420p</property>
  <property name="meta.media.0.codec.sample_aspect_ratio">0</property>
  <property name="meta.media.0.codec.colorspace">709</property>
  <property name="meta.media.0.codec.color_trc">1</property>
  <property name="meta.media.0.codec.name">vp9</property>
  <property name="meta.media.0.codec.long_name">Google VP9</property>
  <property name="meta.media.0.codec.bit_rate">0</property>
  <property name="meta.attr.0.stream.HANDLER_NAME.markup">ISO Media file produced by Google Inc. Created on: 01/17/2024.</property>
  <property name="meta.attr.0.stream.VENDOR_ID.markup">[0][0][0][0]</property>
  <property name="meta.attr.0.stream.DURATION.markup">00:17:00.367000000</property>
  <property name="meta.media.1.stream.type">audio</property>
  <property name="meta.media.1.codec.sample_fmt">fltp</property>
  <property name="meta.media.1.codec.sample_rate">48000</property>
  <property name="meta.media.1.codec.channels">2</property>
  <property name="meta.media.1.codec.name">opus</property>
  <property name="meta.media.1.codec.long_name">Opus</property>
  <property name="meta.media.1.codec.bit_rate">0</property>
  <property name="meta.attr.1.stream.language.markup">eng</property>
  <property name="meta.attr.1.stream.DURATION.markup">00:17:00.401000000</property>
  <property name="meta.attr.COMPATIBLE_BRANDS.markup">iso6mp41</property>
  <property name="meta.attr.MAJOR_BRAND.markup">dash</property>
  <property name="meta.attr.MINOR_VERSION.markup">0</property>
  <property name="meta.attr.ENCODER.markup">Lavf59.27.100</property>
  <property name="seekable">1</property>
  <property name="meta.media.sample_aspect_num">1</property>
  <property name="meta.media.sample_aspect_den">1</property>
  <property name="format">3</property>
  <property name="audio_index">-1</property>
  <property name="video_index">0</property>
  <property name="mute_on_pause">0</property>
  <property name="meta.media.frame_rate_num">30</property>
  <property name="meta.media.frame_rate_den">1</property>
  <property name="meta.media.colorspace">709</property>
  <property name="meta.media.color_trc">1</property>
  <property name="meta.media.has_b_frames">0</property>
  <property name="meta.media.width">1920</property>
  <property name="meta.media.height">1080</property>
  <property name="meta.media.color_range">mpeg</property>
  <property name="kdenlive:clipname"/>
  <property name="meta.media.top_field_first">0</property>
  <property name="meta.media.progressive">1</property>
  <property name="kdenlive:clip_type">0</property>
  <property name="kdenlive:folderid">14</property>
  <property name="kdenlive:id">833</property>
  <property name="kdenlive:file_size">125123623</property>
  <property name="kdenlive:file_hash">d20c058f91d3d4d0f09784851ed89523</property>
  <property name="kdenlive:audio_max1">194</property>
  <property name="kdenlive:active_streams">-1</property>
  <property name="set.test_audio">1</property>
 </chain>
 <chain id="chain465" out="00:02:48.920">
  <property name="length">4224</property>
  <property name="eof">pause</property>
  <property name="resource">audio/quotes/ai-art-quote/out/ai ethics.01.23.00.mp3</property>
  <property name="mlt_service">avformat</property>
  <property name="meta.media.nb_streams">1</property>
  <property name="meta.media.0.stream.type">audio</property>
  <property name="meta.media.0.codec.sample_fmt">fltp</property>
  <property name="meta.media.0.codec.sample_rate">44100</property>
  <property name="meta.media.0.codec.channels">2</property>
  <property name="meta.media.0.codec.name">mp3float</property>
  <property name="meta.media.0.codec.long_name">MP3 (MPEG audio layer 3)</property>
  <property name="meta.media.0.codec.bit_rate">192000</property>
  <property name="meta.attr.encoded_by.markup">LAME in FL Studio 21</property>
  <property name="meta.attr.date.markup">2023</property>
  <property name="seekable">1</property>
  <property name="audio_index">0</property>
  <property name="video_index">-1</property>
  <property name="mute_on_pause">1</property>
  <property name="kdenlive:clipname"/>
  <property name="kdenlive:clip_type">1</property>
  <property name="kdenlive:folderid">350</property>
  <property name="kdenlive:id">838</property>
  <property name="kdenlive:file_size">4055096</property>
  <property name="kdenlive:file_hash">9d063dc33c08cede74451820a9959b95</property>
  <property name="kdenlive:audio_max0">199</property>
 </chain>
 <chain id="chain466" out="00:02:42.040">
  <property name="length">4052</property>
  <property name="eof">pause</property>
  <property name="resource">/home/liquidzulu/Music/OST/Joker/Bathroom Dance ï½œ Joker OST [w4JCC_KLgdM].mp3</property>
  <property name="mlt_service">avformat</property>
  <property name="meta.media.nb_streams">1</property>
  <property name="meta.media.0.stream.type">audio</property>
  <property name="meta.media.0.codec.sample_fmt">fltp</property>
  <property name="meta.media.0.codec.sample_rate">48000</property>
  <property name="meta.media.0.codec.channels">2</property>
  <property name="meta.media.0.codec.name">mp3float</property>
  <property name="meta.media.0.codec.long_name">MP3 (MPEG audio layer 3)</property>
  <property name="meta.media.0.codec.bit_rate">114400</property>
  <property name="meta.attr.0.stream.encoder.markup">Lavc59.37</property>
  <property name="meta.attr.encoder.markup">Lavf59.27.100</property>
  <property name="seekable">1</property>
  <property name="audio_index">0</property>
  <property name="video_index">-1</property>
  <property name="mute_on_pause">1</property>
  <property name="kdenlive:clipname"/>
  <property name="kdenlive:clip_type">1</property>
  <property name="kdenlive:folderid">5</property>
  <property name="kdenlive:id">843</property>
  <property name="kdenlive:file_size">2317677</property>
  <property name="kdenlive:file_hash">10c4dcc52289413276f89aa032d195cf</property>
  <property name="kdenlive:audio_max0">238</property>
 </chain>
 <chain id="chain467" out="00:02:48.920">
  <property name="length">4224</property>
  <property name="eof">pause</property>
  <property name="resource">audio/quotes/ai-art-quote/out/ai ethics.00.56.13.mp3</property>
  <property name="mlt_service">avformat</property>
  <property name="meta.media.nb_streams">1</property>
  <property name="meta.media.0.stream.type">audio</property>
  <property name="meta.media.0.codec.sample_fmt">fltp</property>
  <property name="meta.media.0.codec.sample_rate">44100</property>
  <property name="meta.media.0.codec.channels">2</property>
  <property name="meta.media.0.codec.name">mp3float</property>
  <property name="meta.media.0.codec.long_name">MP3 (MPEG audio layer 3)</property>
  <property name="meta.media.0.codec.bit_rate">192000</property>
  <property name="meta.attr.encoded_by.markup">LAME in FL Studio 21</property>
  <property name="meta.attr.date.markup">2023</property>
  <property name="seekable">1</property>
  <property name="audio_index">0</property>
  <property name="video_index">-1</property>
  <property name="mute_on_pause">1</property>
  <property name="kdenlive:clipname"/>
  <property name="kdenlive:clip_type">1</property>
  <property name="kdenlive:folderid">350</property>
  <property name="kdenlive:id">844</property>
  <property name="kdenlive:file_size">4055096</property>
  <property name="kdenlive:file_hash">770c125c0591e074e7b3e6a96786d5f1</property>
  <property name="kdenlive:audio_max0">202</property>
 </chain>
 <chain id="chain468" out="00:09:00.520">
  <property name="length">13514</property>
  <property name="eof">pause</property>
  <property name="resource">/home/liquidzulu/Videos/yt/b-roll/The Prestige Best Scenes - All The Scenes With Nikola Tesla [OgyZDo20Lh0].webm</property>
  <property name="mlt_service">avformat-novalidate</property>
  <property name="meta.media.nb_streams">2</property>
  <property name="meta.media.0.stream.type">video</property>
  <property name="meta.media.0.stream.frame_rate">23.976</property>
  <property name="meta.media.0.stream.sample_aspect_ratio">1</property>
  <property name="meta.media.0.codec.width">1280</property>
  <property name="meta.media.0.codec.height">720</property>
  <property name="meta.media.0.codec.rotate">0</property>
  <property name="meta.media.0.codec.pix_fmt">yuv420p</property>
  <property name="meta.media.0.codec.sample_aspect_ratio">0</property>
  <property name="meta.media.0.codec.colorspace">709</property>
  <property name="meta.media.0.codec.color_trc">1</property>
  <property name="meta.media.0.codec.name">vp9</property>
  <property name="meta.media.0.codec.long_name">Google VP9</property>
  <property name="meta.media.0.codec.bit_rate">0</property>
  <property name="meta.attr.0.stream.language.markup">eng</property>
  <property name="meta.attr.0.stream.DURATION.markup">00:09:00.539000000</property>
  <property name="meta.media.1.stream.type">audio</property>
  <property name="meta.media.1.codec.sample_fmt">fltp</property>
  <property name="meta.media.1.codec.sample_rate">48000</property>
  <property name="meta.media.1.codec.channels">2</property>
  <property name="meta.media.1.codec.name">opus</property>
  <property name="meta.media.1.codec.long_name">Opus</property>
  <property name="meta.media.1.codec.bit_rate">0</property>
  <property name="meta.attr.1.stream.language.markup">eng</property>
  <property name="meta.attr.1.stream.DURATION.markup">00:09:00.561000000</property>
  <property name="meta.attr.ENCODER.markup">Lavf59.27.100</property>
  <property name="seekable">1</property>
  <property name="meta.media.sample_aspect_num">1</property>
  <property name="meta.media.sample_aspect_den">1</property>
  <property name="format">3</property>
  <property name="audio_index">-1</property>
  <property name="video_index">0</property>
  <property name="mute_on_pause">0</property>
  <property name="meta.media.frame_rate_num">24000</property>
  <property name="meta.media.frame_rate_den">1001</property>
  <property name="meta.media.colorspace">709</property>
  <property name="meta.media.color_trc">1</property>
  <property name="meta.media.has_b_frames">0</property>
  <property name="meta.media.width">1280</property>
  <property name="meta.media.height">720</property>
  <property name="meta.media.color_range">mpeg</property>
  <property name="kdenlive:clipname"/>
  <property name="meta.media.top_field_first">0</property>
  <property name="meta.media.progressive">1</property>
  <property name="kdenlive:clip_type">0</property>
  <property name="kdenlive:folderid">14</property>
  <property name="kdenlive:id">846</property>
  <property name="kdenlive:file_size">55626394</property>
  <property name="kdenlive:file_hash">49d81e711417c8676ef9e61cbf63e1b3</property>
  <property name="kdenlive:audio_max1">254</property>
  <property name="kdenlive:active_streams">-1</property>
  <property name="set.test_audio">1</property>
 </chain>
 <chain id="chain469" out="00:01:48.800">
  <property name="length">2721</property>
  <property name="eof">pause</property>
  <property name="resource">/home/liquidzulu/Videos/yt/b-roll/Police scuffle with London anti-lockdown &amp; Million Mask March protesters [b0FtlfjgPgU].webm</property>
  <property name="mlt_service">avformat-novalidate</property>
  <property name="meta.media.nb_streams">2</property>
  <property name="meta.media.0.stream.type">video</property>
  <property name="meta.media.0.stream.frame_rate">25</property>
  <property name="meta.media.0.stream.sample_aspect_ratio">1</property>
  <property name="meta.media.0.codec.width">1920</property>
  <property name="meta.media.0.codec.height">1080</property>
  <property name="meta.media.0.codec.rotate">0</property>
  <property name="meta.media.0.codec.pix_fmt">yuv420p</property>
  <property name="meta.media.0.codec.sample_aspect_ratio">0</property>
  <property name="meta.media.0.codec.colorspace">709</property>
  <property name="meta.media.0.codec.color_trc">1</property>
  <property name="meta.media.0.codec.name">vp9</property>
  <property name="meta.media.0.codec.long_name">Google VP9</property>
  <property name="meta.media.0.codec.bit_rate">0</property>
  <property name="meta.attr.0.stream.language.markup">eng</property>
  <property name="meta.attr.0.stream.DURATION.markup">00:01:48.800000000</property>
  <property name="meta.media.1.stream.type">audio</property>
  <property name="meta.media.1.codec.sample_fmt">fltp</property>
  <property name="meta.media.1.codec.sample_rate">48000</property>
  <property name="meta.media.1.codec.channels">2</property>
  <property name="meta.media.1.codec.name">opus</property>
  <property name="meta.media.1.codec.long_name">Opus</property>
  <property name="meta.media.1.codec.bit_rate">0</property>
  <property name="meta.attr.1.stream.language.markup">eng</property>
  <property name="meta.attr.1.stream.DURATION.markup">00:01:48.821000000</property>
  <property name="meta.attr.ENCODER.markup">Lavf59.27.100</property>
  <property name="seekable">1</property>
  <property name="meta.media.sample_aspect_num">1</property>
  <property name="meta.media.sample_aspect_den">1</property>
  <property name="format">3</property>
  <property name="audio_index">-1</property>
  <property name="video_index">0</property>
  <property name="mute_on_pause">0</property>
  <property name="meta.media.frame_rate_num">25</property>
  <property name="meta.media.frame_rate_den">1</property>
  <property name="meta.media.colorspace">709</property>
  <property name="meta.media.color_trc">1</property>
  <property name="meta.media.has_b_frames">0</property>
  <property name="meta.media.width">1920</property>
  <property name="meta.media.height">1080</property>
  <property name="meta.media.color_range">mpeg</property>
  <property name="kdenlive:clipname"/>
  <property name="meta.media.top_field_first">0</property>
  <property name="meta.media.progressive">1</property>
  <property name="kdenlive:clip_type">0</property>
  <property name="kdenlive:folderid">14</property>
  <property name="kdenlive:id">849</property>
  <property name="kdenlive:file_size">34001204</property>
  <property name="kdenlive:file_hash">338980ffed7a34450391e2988ff80a35</property>
  <property name="kdenlive:audio_max1">168</property>
  <property name="kdenlive:active_streams">-1</property>
  <property name="set.test_audio">1</property>
 </chain>
 <chain id="chain470" out="00:01:17.280">
  <property name="length">1933</property>
  <property name="eof">pause</property>
  <property name="resource">/home/liquidzulu/Videos/yt/b-roll/castaway fire.mp4</property>
  <property name="mlt_service">avformat-novalidate</property>
  <property name="meta.media.nb_streams">2</property>
  <property name="meta.media.0.stream.type">video</property>
  <property name="meta.media.0.stream.frame_rate">25</property>
  <property name="meta.media.0.stream.sample_aspect_ratio">1</property>
  <property name="meta.media.0.codec.width">1920</property>
  <property name="meta.media.0.codec.height">1080</property>
  <property name="meta.media.0.codec.rotate">0</property>
  <property name="meta.media.0.codec.pix_fmt">yuv420p</property>
  <property name="meta.media.0.codec.sample_aspect_ratio">1</property>
  <property name="meta.media.0.codec.colorspace">709</property>
  <property name="meta.media.0.codec.color_trc">1</property>
  <property name="meta.media.0.codec.name">h264</property>
  <property name="meta.media.0.codec.long_name">H.264 / AVC / MPEG-4 AVC / MPEG-4 part 10</property>
  <property name="meta.media.0.codec.bit_rate">3792771</property>
  <property name="meta.attr.0.stream.handler_name.markup">VideoHandler</property>
  <property name="meta.attr.0.stream.vendor_id.markup">[0][0][0][0]</property>
  <property name="meta.media.1.stream.type">audio</property>
  <property name="meta.media.1.codec.sample_fmt">fltp</property>
  <property name="meta.media.1.codec.sample_rate">48000</property>
  <property name="meta.media.1.codec.channels">2</property>
  <property name="meta.media.1.codec.name">aac</property>
  <property name="meta.media.1.codec.long_name">AAC (Advanced Audio Coding)</property>
  <property name="meta.media.1.codec.bit_rate">2276</property>
  <property name="meta.attr.1.stream.handler_name.markup">SoundHandler</property>
  <property name="meta.attr.1.stream.vendor_id.markup">[0][0][0][0]</property>
  <property name="meta.attr.major_brand.markup">isom</property>
  <property name="meta.attr.minor_version.markup">512</property>
  <property name="meta.attr.compatible_brands.markup">isomiso2avc1mp41</property>
  <property name="meta.attr.encoder.markup">Lavf59.27.100</property>
  <property name="seekable">1</property>
  <property name="meta.media.sample_aspect_num">1</property>
  <property name="meta.media.sample_aspect_den">1</property>
  <property name="format">3</property>
  <property name="audio_index">-1</property>
  <property name="video_index">0</property>
  <property name="mute_on_pause">0</property>
  <property name="meta.media.frame_rate_num">25</property>
  <property name="meta.media.frame_rate_den">1</property>
  <property name="meta.media.colorspace">709</property>
  <property name="meta.media.color_trc">1</property>
  <property name="meta.media.has_b_frames">2</property>
  <property name="meta.media.width">1920</property>
  <property name="meta.media.height">1080</property>
  <property name="meta.media.color_range">mpeg</property>
  <property name="kdenlive:clipname"/>
  <property name="meta.media.top_field_first">0</property>
  <property name="meta.media.progressive">1</property>
  <property name="kdenlive:clip_type">0</property>
  <property name="kdenlive:folderid">14</property>
  <property name="kdenlive:id">851</property>
  <property name="kdenlive:file_size">36733891</property>
  <property name="kdenlive:file_hash">b5eaa14643c0081d1f06d589298dc93b</property>
  <property name="kdenlive:audio_max1">1</property>
  <property name="kdenlive:active_streams">-1</property>
  <property name="set.test_audio">1</property>
 </chain>
 <chain id="chain471" out="00:03:58.920">
  <property name="length">5974</property>
  <property name="eof">pause</property>
  <property name="resource">/home/liquidzulu/Videos/yt/b-roll/Anthemï¼š The Graphic Novel (Episode 11) [MbhRJWXwlCM].webm</property>
  <property name="mlt_service">avformat-novalidate</property>
  <property name="meta.media.nb_streams">2</property>
  <property name="meta.media.0.stream.type">video</property>
  <property name="meta.media.0.stream.frame_rate">29.97</property>
  <property name="meta.media.0.stream.sample_aspect_ratio">1</property>
  <property name="meta.media.0.codec.width">1920</property>
  <property name="meta.media.0.codec.height">1080</property>
  <property name="meta.media.0.codec.rotate">0</property>
  <property name="meta.media.0.codec.pix_fmt">yuv420p</property>
  <property name="meta.media.0.codec.sample_aspect_ratio">0</property>
  <property name="meta.media.0.codec.colorspace">709</property>
  <property name="meta.media.0.codec.color_trc">1</property>
  <property name="meta.media.0.codec.name">vp9</property>
  <property name="meta.media.0.codec.long_name">Google VP9</property>
  <property name="meta.media.0.codec.bit_rate">0</property>
  <property name="meta.attr.0.stream.language.markup">eng</property>
  <property name="meta.attr.0.stream.DURATION.markup">00:03:58.905000000</property>
  <property name="meta.media.1.stream.type">audio</property>
  <property name="meta.media.1.codec.sample_fmt">fltp</property>
  <property name="meta.media.1.codec.sample_rate">48000</property>
  <property name="meta.media.1.codec.channels">2</property>
  <property name="meta.media.1.codec.name">opus</property>
  <property name="meta.media.1.codec.long_name">Opus</property>
  <property name="meta.media.1.codec.bit_rate">0</property>
  <property name="meta.attr.1.stream.language.markup">eng</property>
  <property name="meta.attr.1.stream.DURATION.markup">00:03:58.941000000</property>
  <property name="meta.attr.ENCODER.markup">Lavf59.27.100</property>
  <property name="seekable">1</property>
  <property name="meta.media.sample_aspect_num">1</property>
  <property name="meta.media.sample_aspect_den">1</property>
  <property name="format">3</property>
  <property name="audio_index">-1</property>
  <property name="video_index">0</property>
  <property name="mute_on_pause">0</property>
  <property name="meta.media.frame_rate_num">30000</property>
  <property name="meta.media.frame_rate_den">1001</property>
  <property name="meta.media.colorspace">709</property>
  <property name="meta.media.color_trc">1</property>
  <property name="meta.media.has_b_frames">0</property>
  <property name="meta.media.width">1920</property>
  <property name="meta.media.height">1080</property>
  <property name="meta.media.color_range">mpeg</property>
  <property name="kdenlive:clipname"/>
  <property name="meta.media.top_field_first">0</property>
  <property name="meta.media.progressive">1</property>
  <property name="kdenlive:clip_type">0</property>
  <property name="kdenlive:folderid">14</property>
  <property name="kdenlive:id">855</property>
  <property name="kdenlive:file_size">31768904</property>
  <property name="kdenlive:file_hash">6ecd5645720ebde5315de5f1953f192a</property>
  <property name="kdenlive:audio_max1">206</property>
  <property name="kdenlive:active_streams">-1</property>
  <property name="set.test_audio">1</property>
 </chain>
 <chain id="chain472" out="00:11:09.720">
  <property name="length">16744</property>
  <property name="eof">pause</property>
  <property name="resource">/home/liquidzulu/Videos/yt/b-roll/Car Racing in the 1940s - Vintage Footage [My8tEmdQvuk].webm</property>
  <property name="mlt_service">avformat-novalidate</property>
  <property name="meta.media.nb_streams">2</property>
  <property name="meta.media.0.stream.type">video</property>
  <property name="meta.media.0.stream.frame_rate">29.97</property>
  <property name="meta.media.0.stream.sample_aspect_ratio">1</property>
  <property name="meta.media.0.codec.width">1920</property>
  <property name="meta.media.0.codec.height">1080</property>
  <property name="meta.media.0.codec.rotate">0</property>
  <property name="meta.media.0.codec.pix_fmt">yuv420p</property>
  <property name="meta.media.0.codec.sample_aspect_ratio">0</property>
  <property name="meta.media.0.codec.colorspace">709</property>
  <property name="meta.media.0.codec.color_trc">1</property>
  <property name="meta.media.0.codec.name">vp9</property>
  <property name="meta.media.0.codec.long_name">Google VP9</property>
  <property name="meta.media.0.codec.bit_rate">0</property>
  <property name="meta.attr.0.stream.language.markup">eng</property>
  <property name="meta.attr.0.stream.DURATION.markup">00:11:09.735000000</property>
  <property name="meta.media.1.stream.type">audio</property>
  <property name="meta.media.1.codec.sample_fmt">fltp</property>
  <property name="meta.media.1.codec.sample_rate">48000</property>
  <property name="meta.media.1.codec.channels">2</property>
  <property name="meta.media.1.codec.name">opus</property>
  <property name="meta.media.1.codec.long_name">Opus</property>
  <property name="meta.media.1.codec.bit_rate">0</property>
  <property name="meta.attr.1.stream.language.markup">eng</property>
  <property name="meta.attr.1.stream.DURATION.markup">00:11:09.761000000</property>
  <property name="meta.attr.ENCODER.markup">Lavf59.27.100</property>
  <property name="seekable">1</property>
  <property name="meta.media.sample_aspect_num">1</property>
  <property name="meta.media.sample_aspect_den">1</property>
  <property name="format">3</property>
  <property name="audio_index">-1</property>
  <property name="video_index">0</property>
  <property name="mute_on_pause">0</property>
  <property name="meta.media.frame_rate_num">30000</property>
  <property name="meta.media.frame_rate_den">1001</property>
  <property name="meta.media.colorspace">709</property>
  <property name="meta.media.color_trc">1</property>
  <property name="meta.media.has_b_frames">0</property>
  <property name="meta.media.width">1920</property>
  <property name="meta.media.height">1080</property>
  <property name="meta.media.color_range">mpeg</property>
  <property name="kdenlive:clipname"/>
  <property name="meta.media.top_field_first">0</property>
  <property name="meta.media.progressive">1</property>
  <property name="kdenlive:clip_type">0</property>
  <property name="kdenlive:folderid">14</property>
  <property name="kdenlive:id">872</property>
  <property name="kdenlive:file_size">192954668</property>
  <property name="kdenlive:file_hash">01532ffd5f55ffefadf42edc6b750ece</property>
  <property name="kdenlive:audio_max1">169</property>
  <property name="kdenlive:active_streams">-1</property>
  <property name="set.test_audio">1</property>
 </chain>
 <chain id="chain473" out="00:00:23.400">
  <property name="length">586</property>
  <property name="eof">pause</property>
  <property name="resource">/home/liquidzulu/Videos/yt/b-roll/The Wright brothers first aeroplane flight (1903) [1rJ3Ga75OXE].webm</property>
  <property name="mlt_service">avformat-novalidate</property>
  <property name="meta.media.nb_streams">2</property>
  <property name="meta.media.0.stream.type">video</property>
  <property name="meta.media.0.stream.frame_rate">25</property>
  <property name="meta.media.0.stream.sample_aspect_ratio">1</property>
  <property name="meta.media.0.codec.width">676</property>
  <property name="meta.media.0.codec.height">480</property>
  <property name="meta.media.0.codec.rotate">0</property>
  <property name="meta.media.0.codec.pix_fmt">yuv420p</property>
  <property name="meta.media.0.codec.sample_aspect_ratio">0</property>
  <property name="meta.media.0.codec.colorspace">709</property>
  <property name="meta.media.0.codec.color_trc">1</property>
  <property name="meta.media.0.codec.name">vp9</property>
  <property name="meta.media.0.codec.long_name">Google VP9</property>
  <property name="meta.media.0.codec.bit_rate">0</property>
  <property name="meta.attr.0.stream.language.markup">eng</property>
  <property name="meta.attr.0.stream.DURATION.markup">00:00:23.400000000</property>
  <property name="meta.media.1.stream.type">audio</property>
  <property name="meta.media.1.codec.sample_fmt">fltp</property>
  <property name="meta.media.1.codec.sample_rate">48000</property>
  <property name="meta.media.1.codec.channels">2</property>
  <property name="meta.media.1.codec.name">opus</property>
  <property name="meta.media.1.codec.long_name">Opus</property>
  <property name="meta.media.1.codec.bit_rate">0</property>
  <property name="meta.attr.1.stream.language.markup">eng</property>
  <property name="meta.attr.1.stream.DURATION.markup">00:00:23.421000000</property>
  <property name="meta.attr.ENCODER.markup">Lavf59.27.100</property>
  <property name="seekable">1</property>
  <property name="meta.media.sample_aspect_num">1</property>
  <property name="meta.media.sample_aspect_den">1</property>
  <property name="format">3</property>
  <property name="audio_index">-1</property>
  <property name="video_index">0</property>
  <property name="mute_on_pause">0</property>
  <property name="meta.media.frame_rate_num">25</property>
  <property name="meta.media.frame_rate_den">1</property>
  <property name="meta.media.colorspace">709</property>
  <property name="meta.media.color_trc">1</property>
  <property name="meta.media.has_b_frames">0</property>
  <property name="meta.media.width">676</property>
  <property name="meta.media.height">480</property>
  <property name="meta.media.color_range">mpeg</property>
  <property name="kdenlive:clipname"/>
  <property name="meta.media.top_field_first">0</property>
  <property name="meta.media.progressive">1</property>
  <property name="kdenlive:clip_type">0</property>
  <property name="kdenlive:folderid">14</property>
  <property name="kdenlive:id">869</property>
  <property name="kdenlive:file_size">1334722</property>
  <property name="kdenlive:file_hash">fcba5fe4c13e4f9123643cd7f9970e4a</property>
  <property name="kdenlive:audio_max1">154</property>
  <property name="kdenlive:active_streams">-1</property>
  <property name="set.test_audio">1</property>
 </chain>
 <chain id="chain474" out="00:10:28.040">
  <property name="length">15702</property>
  <property name="eof">pause</property>
  <property name="resource">/home/liquidzulu/Videos/yt/b-roll/Weaving Linen (1940-1949) [3gDWuWT23x4].webm</property>
  <property name="mlt_service">avformat-novalidate</property>
  <property name="meta.media.nb_streams">2</property>
  <property name="meta.media.0.stream.type">video</property>
  <property name="meta.media.0.stream.frame_rate">25</property>
  <property name="meta.media.0.stream.sample_aspect_ratio">1</property>
  <property name="meta.media.0.codec.width">640</property>
  <property name="meta.media.0.codec.height">480</property>
  <property name="meta.media.0.codec.rotate">0</property>
  <property name="meta.media.0.codec.pix_fmt">yuv420p</property>
  <property name="meta.media.0.codec.sample_aspect_ratio">0</property>
  <property name="meta.media.0.codec.colorspace">601</property>
  <property name="meta.media.0.codec.name">vp9</property>
  <property name="meta.media.0.codec.long_name">Google VP9</property>
  <property name="meta.media.0.codec.bit_rate">0</property>
  <property name="meta.attr.0.stream.language.markup">eng</property>
  <property name="meta.attr.0.stream.DURATION.markup">00:10:28.000000000</property>
  <property name="meta.media.1.stream.type">audio</property>
  <property name="meta.media.1.codec.sample_fmt">fltp</property>
  <property name="meta.media.1.codec.sample_rate">48000</property>
  <property name="meta.media.1.codec.channels">2</property>
  <property name="meta.media.1.codec.name">opus</property>
  <property name="meta.media.1.codec.long_name">Opus</property>
  <property name="meta.media.1.codec.bit_rate">0</property>
  <property name="meta.attr.1.stream.language.markup">eng</property>
  <property name="meta.attr.1.stream.DURATION.markup">00:10:28.061000000</property>
  <property name="meta.attr.ENCODER.markup">Lavf59.27.100</property>
  <property name="seekable">1</property>
  <property name="meta.media.sample_aspect_num">1</property>
  <property name="meta.media.sample_aspect_den">1</property>
  <property name="format">3</property>
  <property name="audio_index">-1</property>
  <property name="video_index">0</property>
  <property name="mute_on_pause">0</property>
  <property name="meta.media.frame_rate_num">25</property>
  <property name="meta.media.frame_rate_den">1</property>
  <property name="meta.media.colorspace">601</property>
  <property name="meta.media.color_trc">2</property>
  <property name="meta.media.has_b_frames">0</property>
  <property name="meta.media.width">640</property>
  <property name="meta.media.height">480</property>
  <property name="meta.media.color_range">mpeg</property>
  <property name="kdenlive:clipname"/>
  <property name="meta.media.top_field_first">0</property>
  <property name="meta.media.progressive">1</property>
  <property name="kdenlive:clip_type">0</property>
  <property name="kdenlive:folderid">14</property>
  <property name="kdenlive:id">870</property>
  <property name="kdenlive:file_size">38357561</property>
  <property name="kdenlive:file_hash">cc665f40e5cca20a826a8bc4ae7d4c8d</property>
  <property name="kdenlive:audio_max1">125</property>
  <property name="kdenlive:active_streams">-1</property>
  <property name="set.test_audio">1</property>
 </chain>
 <chain id="chain475" out="00:19:00.200">
  <property name="length">28506</property>
  <property name="eof">pause</property>
  <property name="resource">/home/liquidzulu/Videos/yt/b-roll/Psychiatric Hospitals &amp; Asylums in 1950s America 1953, 720p [1gOjjZ6PltI].webm</property>
  <property name="mlt_service">avformat-novalidate</property>
  <property name="meta.media.nb_streams">2</property>
  <property name="meta.media.0.stream.type">video</property>
  <property name="meta.media.0.stream.frame_rate">29.97</property>
  <property name="meta.media.0.stream.sample_aspect_ratio">1</property>
  <property name="meta.media.0.codec.width">962</property>
  <property name="meta.media.0.codec.height">720</property>
  <property name="meta.media.0.codec.rotate">0</property>
  <property name="meta.media.0.codec.pix_fmt">yuv420p</property>
  <property name="meta.media.0.codec.sample_aspect_ratio">0</property>
  <property name="meta.media.0.codec.colorspace">709</property>
  <property name="meta.media.0.codec.color_trc">1</property>
  <property name="meta.media.0.codec.name">vp9</property>
  <property name="meta.media.0.codec.long_name">Google VP9</property>
  <property name="meta.media.0.codec.bit_rate">0</property>
  <property name="meta.attr.0.stream.language.markup">eng</property>
  <property name="meta.attr.0.stream.DURATION.markup">00:19:00.172000000</property>
  <property name="meta.media.1.stream.type">audio</property>
  <property name="meta.media.1.codec.sample_fmt">fltp</property>
  <property name="meta.media.1.codec.sample_rate">48000</property>
  <property name="meta.media.1.codec.channels">2</property>
  <property name="meta.media.1.codec.name">opus</property>
  <property name="meta.media.1.codec.long_name">Opus</property>
  <property name="meta.media.1.codec.bit_rate">0</property>
  <property name="meta.attr.1.stream.language.markup">eng</property>
  <property name="meta.attr.1.stream.DURATION.markup">00:19:00.221000000</property>
  <property name="meta.attr.ENCODER.markup">Lavf59.27.100</property>
  <property name="seekable">1</property>
  <property name="meta.media.sample_aspect_num">1</property>
  <property name="meta.media.sample_aspect_den">1</property>
  <property name="format">3</property>
  <property name="audio_index">-1</property>
  <property name="video_index">0</property>
  <property name="mute_on_pause">0</property>
  <property name="meta.media.frame_rate_num">30000</property>
  <property name="meta.media.frame_rate_den">1001</property>
  <property name="meta.media.colorspace">709</property>
  <property name="meta.media.color_trc">1</property>
  <property name="meta.media.has_b_frames">0</property>
  <property name="meta.media.width">962</property>
  <property name="meta.media.height">720</property>
  <property name="meta.media.color_range">mpeg</property>
  <property name="kdenlive:clipname"/>
  <property name="meta.media.top_field_first">0</property>
  <property name="meta.media.progressive">1</property>
  <property name="kdenlive:clip_type">0</property>
  <property name="kdenlive:folderid">14</property>
  <property name="kdenlive:id">871</property>
  <property name="kdenlive:file_size">133260570</property>
  <property name="kdenlive:file_hash">aed17aff71843f8e10fc6b03bfa547ae</property>
  <property name="kdenlive:audio_max1">152</property>
  <property name="kdenlive:active_streams">-1</property>
  <property name="set.test_audio">1</property>
 </chain>
 <chain id="chain476" out="00:00:26.080">
  <property name="length">653</property>
  <property name="eof">pause</property>
  <property name="resource">/home/liquidzulu/Music/sfx/Angry Crowd Sound Effect [HD] [ngp3RttqXl0].mp3</property>
  <property name="mlt_service">avformat</property>
  <property name="meta.media.nb_streams">1</property>
  <property name="meta.media.0.stream.type">audio</property>
  <property name="meta.media.0.codec.sample_fmt">fltp</property>
  <property name="meta.media.0.codec.sample_rate">48000</property>
  <property name="meta.media.0.codec.channels">2</property>
  <property name="meta.media.0.codec.name">mp3float</property>
  <property name="meta.media.0.codec.long_name">MP3 (MPEG audio layer 3)</property>
  <property name="meta.media.0.codec.bit_rate">118816</property>
  <property name="meta.attr.0.stream.encoder.markup">Lavc59.37</property>
  <property name="meta.attr.encoder.markup">Lavf59.27.100</property>
  <property name="seekable">1</property>
  <property name="audio_index">0</property>
  <property name="video_index">-1</property>
  <property name="mute_on_pause">1</property>
  <property name="kdenlive:clipname"/>
  <property name="kdenlive:clip_type">1</property>
  <property name="kdenlive:folderid">228</property>
  <property name="kdenlive:id">873</property>
  <property name="kdenlive:file_size">387861</property>
  <property name="kdenlive:file_hash">4ca166f76555b8e741728bee9aec734b</property>
  <property name="kdenlive:audio_max0">213</property>
 </chain>
 <chain id="chain477" out="00:00:10.440">
  <property name="length">262</property>
  <property name="eof">pause</property>
  <property name="resource">/home/liquidzulu/Music/sfx/Fire Crackling - Sound Effect [HQ] [-mZHANRv8T4].mp3</property>
  <property name="mlt_service">avformat</property>
  <property name="meta.media.nb_streams">1</property>
  <property name="meta.media.0.stream.type">audio</property>
  <property name="meta.media.0.codec.sample_fmt">fltp</property>
  <property name="meta.media.0.codec.sample_rate">48000</property>
  <property name="meta.media.0.codec.channels">2</property>
  <property name="meta.media.0.codec.name">mp3float</property>
  <property name="meta.media.0.codec.long_name">MP3 (MPEG audio layer 3)</property>
  <property name="meta.media.0.codec.bit_rate">135378</property>
  <property name="meta.attr.0.stream.encoder.markup">Lavc59.37</property>
  <property name="meta.attr.encoder.markup">Lavf59.27.100</property>
  <property name="seekable">1</property>
  <property name="audio_index">0</property>
  <property name="video_index">-1</property>
  <property name="mute_on_pause">1</property>
  <property name="kdenlive:clipname"/>
  <property name="kdenlive:clip_type">1</property>
  <property name="kdenlive:folderid">228</property>
  <property name="kdenlive:id">874</property>
  <property name="kdenlive:file_size">177525</property>
  <property name="kdenlive:file_hash">1f001ea3772dad29fcd6e86e1861a7ae</property>
  <property name="kdenlive:audio_max0">204</property>
 </chain>
 <chain id="chain478" out="00:00:38.440">
  <property name="length">962</property>
  <property name="eof">pause</property>
  <property name="resource">/home/liquidzulu/Music/sfx/Gruesome Bones Breaking and Snapping ï½œ HQ Sound Effects [fSCAm9A-3Ko].mp3</property>
  <property name="mlt_service">avformat</property>
  <property name="meta.media.nb_streams">1</property>
  <property name="meta.media.0.stream.type">audio</property>
  <property name="meta.media.0.codec.sample_fmt">fltp</property>
  <property name="meta.media.0.codec.sample_rate">48000</property>
  <property name="meta.media.0.codec.channels">2</property>
  <property name="meta.media.0.codec.name">mp3float</property>
  <property name="meta.media.0.codec.long_name">MP3 (MPEG audio layer 3)</property>
  <property name="meta.media.0.codec.bit_rate">58758</property>
  <property name="meta.attr.0.stream.encoder.markup">Lavc59.37</property>
  <property name="meta.attr.encoder.markup">Lavf59.27.100</property>
  <property name="seekable">1</property>
  <property name="audio_index">0</property>
  <property name="video_index">-1</property>
  <property name="mute_on_pause">1</property>
  <property name="kdenlive:clipname"/>
  <property name="kdenlive:clip_type">1</property>
  <property name="kdenlive:folderid">228</property>
  <property name="kdenlive:id">875</property>
  <property name="kdenlive:file_size">282789</property>
  <property name="kdenlive:file_hash">dc2fb80cb910154cb65475ae5d65f2e2</property>
  <property name="kdenlive:audio_max0">173</property>
 </chain>
 <chain id="chain479" out="00:00:13.600">
  <property name="length">341</property>
  <property name="eof">pause</property>
  <property name="resource">/home/liquidzulu/Music/sfx/Male Pain Grunts Sound Effects SFX Free and Royalty Free [5RW4Hfz-MJg].mp3</property>
  <property name="mlt_service">avformat</property>
  <property name="meta.media.nb_streams">1</property>
  <property name="meta.media.0.stream.type">audio</property>
  <property name="meta.media.0.codec.sample_fmt">fltp</property>
  <property name="meta.media.0.codec.sample_rate">48000</property>
  <property name="meta.media.0.codec.channels">2</property>
  <property name="meta.media.0.codec.name">mp3float</property>
  <property name="meta.media.0.codec.long_name">MP3 (MPEG audio layer 3)</property>
  <property name="meta.media.0.codec.bit_rate">50770</property>
  <property name="meta.attr.0.stream.encoder.markup">Lavc59.37</property>
  <property name="meta.attr.encoder.markup">Lavf59.27.100</property>
  <property name="seekable">1</property>
  <property name="audio_index">0</property>
  <property name="video_index">-1</property>
  <property name="mute_on_pause">1</property>
  <property name="kdenlive:clipname"/>
  <property name="kdenlive:clip_type">1</property>
  <property name="kdenlive:folderid">228</property>
  <property name="kdenlive:id">876</property>
  <property name="kdenlive:file_size">86709</property>
  <property name="kdenlive:file_hash">4c0f30ee3952fbbc4a8cf8383038673c</property>
  <property name="kdenlive:audio_max0">206</property>
 </chain>
 <chain id="chain480" out="00:00:04.480">
  <property name="length">113</property>
  <property name="eof">pause</property>
  <property name="resource">/home/liquidzulu/Music/sfx/Glass Breaking Sound Effect HD ï½œ Glass Shattering Sound Effect [TcnufvBffcY].mp3</property>
  <property name="mlt_service">avformat</property>
  <property name="meta.media.nb_streams">1</property>
  <property name="meta.media.0.stream.type">audio</property>
  <property name="meta.media.0.codec.sample_fmt">fltp</property>
  <property name="meta.media.0.codec.sample_rate">48000</property>
  <property name="meta.media.0.codec.channels">2</property>
  <property name="meta.media.0.codec.name">mp3float</property>
  <property name="meta.media.0.codec.long_name">MP3 (MPEG audio layer 3)</property>
  <property name="meta.media.0.codec.bit_rate">106383</property>
  <property name="meta.attr.0.stream.encoder.markup">Lavc59.37</property>
  <property name="meta.attr.encoder.markup">Lavf59.27.100</property>
  <property name="seekable">1</property>
  <property name="audio_index">0</property>
  <property name="video_index">-1</property>
  <property name="mute_on_pause">1</property>
  <property name="kdenlive:clipname"/>
  <property name="kdenlive:clip_type">1</property>
  <property name="kdenlive:folderid">228</property>
  <property name="kdenlive:id">877</property>
  <property name="kdenlive:file_size">60045</property>
  <property name="kdenlive:file_hash">cae1d724c1e3d9c557cd5d7d31f85287</property>
  <property name="kdenlive:audio_max0">169</property>
 </chain>
 <chain id="chain481" out="00:00:53.760">
  <property name="length">1345</property>
  <property name="eof">pause</property>
  <property name="resource">/home/liquidzulu/Music/sfx/Cold wind sound effect [ZD47Mhzm-CU].mp3</property>
  <property name="mlt_service">avformat</property>
  <property name="meta.media.nb_streams">1</property>
  <property name="meta.media.0.stream.type">audio</property>
  <property name="meta.media.0.codec.sample_fmt">fltp</property>
  <property name="meta.media.0.codec.sample_rate">48000</property>
  <property name="meta.media.0.codec.channels">2</property>
  <property name="meta.media.0.codec.name">mp3float</property>
  <property name="meta.media.0.codec.long_name">MP3 (MPEG audio layer 3)</property>
  <property name="meta.media.0.codec.bit_rate">117166</property>
  <property name="meta.attr.0.stream.encoder.markup">Lavc59.37</property>
  <property name="meta.attr.encoder.markup">Lavf59.27.100</property>
  <property name="seekable">1</property>
  <property name="audio_index">0</property>
  <property name="video_index">-1</property>
  <property name="mute_on_pause">1</property>
  <property name="kdenlive:clipname"/>
  <property name="kdenlive:clip_type">1</property>
  <property name="kdenlive:folderid">228</property>
  <property name="kdenlive:id">878</property>
  <property name="kdenlive:file_size">787749</property>
  <property name="kdenlive:file_hash">83caa82367d9595912e9a40f946d6a6c</property>
  <property name="kdenlive:audio_max0">85</property>
 </chain>
 <chain id="chain482" out="00:00:55.840">
  <property name="length">1397</property>
  <property name="eof">pause</property>
  <property name="resource">/home/liquidzulu/Music/sfx/Vulture Sound Effects [IABBT-z3KFg].mp3</property>
  <property name="mlt_service">avformat</property>
  <property name="meta.media.nb_streams">1</property>
  <property name="meta.media.0.stream.type">audio</property>
  <property name="meta.media.0.codec.sample_fmt">fltp</property>
  <property name="meta.media.0.codec.sample_rate">48000</property>
  <property name="meta.media.0.codec.channels">2</property>
  <property name="meta.media.0.codec.name">mp3float</property>
  <property name="meta.media.0.codec.long_name">MP3 (MPEG audio layer 3)</property>
  <property name="meta.media.0.codec.bit_rate">82652</property>
  <property name="meta.attr.0.stream.encoder.markup">Lavc59.37</property>
  <property name="meta.attr.encoder.markup">Lavf59.27.100</property>
  <property name="seekable">1</property>
  <property name="audio_index">0</property>
  <property name="video_index">-1</property>
  <property name="mute_on_pause">1</property>
  <property name="kdenlive:clipname"/>
  <property name="kdenlive:clip_type">1</property>
  <property name="kdenlive:folderid">228</property>
  <property name="kdenlive:id">879</property>
  <property name="kdenlive:file_size">577533</property>
  <property name="kdenlive:file_hash">f8f7643666d7e6ac6312936439651db3</property>
  <property name="kdenlive:audio_max0">224</property>
 </chain>
 <chain id="chain483" out="00:01:09.480">
  <property name="length">1738</property>
  <property name="eof">pause</property>
  <property name="resource">/home/liquidzulu/Music/sfx/Nature Sound Effects For YouTube Videos (No copyright Royalty-free audio) [vBi8FxvoYvo].mp3</property>
  <property name="mlt_service">avformat</property>
  <property name="meta.media.nb_streams">1</property>
  <property name="meta.media.0.stream.type">audio</property>
  <property name="meta.media.0.codec.sample_fmt">fltp</property>
  <property name="meta.media.0.codec.sample_rate">48000</property>
  <property name="meta.media.0.codec.channels">2</property>
  <property name="meta.media.0.codec.name">mp3float</property>
  <property name="meta.media.0.codec.long_name">MP3 (MPEG audio layer 3)</property>
  <property name="meta.media.0.codec.bit_rate">78506</property>
  <property name="meta.attr.0.stream.encoder.markup">Lavc59.37</property>
  <property name="meta.attr.encoder.markup">Lavf59.27.100</property>
  <property name="seekable">1</property>
  <property name="audio_index">0</property>
  <property name="video_index">-1</property>
  <property name="mute_on_pause">1</property>
  <property name="kdenlive:clipname"/>
  <property name="kdenlive:clip_type">1</property>
  <property name="kdenlive:folderid">228</property>
  <property name="kdenlive:id">880</property>
  <property name="kdenlive:file_size">682341</property>
  <property name="kdenlive:file_hash">2b1b4968e378230a53999de41021e3b0</property>
  <property name="kdenlive:audio_max0">113</property>
 </chain>
 <chain id="chain484" out="00:00:04.360">
  <property name="length">110</property>
  <property name="eof">pause</property>
  <property name="resource">/home/liquidzulu/Music/sfx/civ v/Sid Meier's Civilization V ï½œ Production [Sound Effect] [TehCDsdk7rg].mp3</property>
  <property name="mlt_service">avformat</property>
  <property name="meta.media.nb_streams">1</property>
  <property name="meta.media.0.stream.type">audio</property>
  <property name="meta.media.0.codec.sample_fmt">fltp</property>
  <property name="meta.media.0.codec.sample_rate">48000</property>
  <property name="meta.media.0.codec.channels">2</property>
  <property name="meta.media.0.codec.name">mp3float</property>
  <property name="meta.media.0.codec.long_name">MP3 (MPEG audio layer 3)</property>
  <property name="meta.media.0.codec.bit_rate">98696</property>
  <property name="meta.attr.0.stream.encoder.markup">Lavc59.37</property>
  <property name="meta.attr.encoder.markup">Lavf59.27.100</property>
  <property name="seekable">1</property>
  <property name="audio_index">0</property>
  <property name="video_index">-1</property>
  <property name="mute_on_pause">1</property>
  <property name="kdenlive:clipname"/>
  <property name="kdenlive:clip_type">1</property>
  <property name="kdenlive:folderid">228</property>
  <property name="kdenlive:id">881</property>
  <property name="kdenlive:file_size">54525</property>
  <property name="kdenlive:file_hash">32f44aa73497dcc46c59a949f35cb84c</property>
  <property name="kdenlive:audio_max0">168</property>
 </chain>
 <chain id="chain485" out="00:00:50.040">
  <property name="length">1252</property>
  <property name="eof">pause</property>
  <property name="resource">/home/liquidzulu/Music/sfx/V8 Engine Startup and Revving ï½œ HQ Sound Effects [QunyWALxgps].mp3</property>
  <property name="mlt_service">avformat</property>
  <property name="meta.media.nb_streams">1</property>
  <property name="meta.media.0.stream.type">audio</property>
  <property name="meta.media.0.codec.sample_fmt">fltp</property>
  <property name="meta.media.0.codec.sample_rate">48000</property>
  <property name="meta.media.0.codec.channels">2</property>
  <property name="meta.media.0.codec.name">mp3float</property>
  <property name="meta.media.0.codec.long_name">MP3 (MPEG audio layer 3)</property>
  <property name="meta.media.0.codec.bit_rate">62152</property>
  <property name="meta.attr.0.stream.encoder.markup">Lavc59.37</property>
  <property name="meta.attr.encoder.markup">Lavf59.27.100</property>
  <property name="seekable">1</property>
  <property name="audio_index">0</property>
  <property name="video_index">-1</property>
  <property name="mute_on_pause">1</property>
  <property name="kdenlive:clipname"/>
  <property name="kdenlive:clip_type">1</property>
  <property name="kdenlive:folderid">228</property>
  <property name="kdenlive:id">882</property>
  <property name="kdenlive:file_size">389181</property>
  <property name="kdenlive:file_hash">4338e5a4d3d0cca8492c6944d6d5302e</property>
  <property name="kdenlive:audio_max0">228</property>
 </chain>
 <chain id="chain486" out="00:01:17.000">
  <property name="length">1926</property>
  <property name="eof">pause</property>
  <property name="resource">/home/liquidzulu/Music/sfx/WW2 Aircraft sound effects library - authentic vintage propeller plane sounds [Je893bgg2V4].mp3</property>
  <property name="mlt_service">avformat</property>
  <property name="meta.media.nb_streams">1</property>
  <property name="meta.media.0.stream.type">audio</property>
  <property name="meta.media.0.codec.sample_fmt">fltp</property>
  <property name="meta.media.0.codec.sample_rate">48000</property>
  <property name="meta.media.0.codec.channels">2</property>
  <property name="meta.media.0.codec.name">mp3float</property>
  <property name="meta.media.0.codec.long_name">MP3 (MPEG audio layer 3)</property>
  <property name="meta.media.0.codec.bit_rate">83998</property>
  <property name="meta.attr.0.stream.encoder.markup">Lavc59.37</property>
  <property name="meta.attr.encoder.markup">Lavf59.27.100</property>
  <property name="seekable">1</property>
  <property name="audio_index">0</property>
  <property name="video_index">-1</property>
  <property name="mute_on_pause">1</property>
  <property name="kdenlive:clipname"/>
  <property name="kdenlive:clip_type">1</property>
  <property name="kdenlive:folderid">228</property>
  <property name="kdenlive:id">883</property>
  <property name="kdenlive:file_size">808941</property>
  <property name="kdenlive:file_hash">1ec20aae70899241843364deb7673bc3</property>
  <property name="kdenlive:audio_max0">215</property>
 </chain>
 <chain id="chain487" out="00:11:04.760">
  <property name="length">16620</property>
  <property name="eof">pause</property>
  <property name="resource">/home/liquidzulu/Videos/yt/b-roll/Catching the Coyote who ate my Chickens. (By Hand) [y0LhEdB5aFo].webm</property>
  <property name="mlt_service">avformat-novalidate</property>
  <property name="meta.media.nb_streams">2</property>
  <property name="meta.media.0.stream.type">video</property>
  <property name="meta.media.0.stream.frame_rate">60</property>
  <property name="meta.media.0.stream.sample_aspect_ratio">1</property>
  <property name="meta.media.0.codec.width">3840</property>
  <property name="meta.media.0.codec.height">2160</property>
  <property name="meta.media.0.codec.rotate">0</property>
  <property name="meta.media.0.codec.pix_fmt">yuv420p</property>
  <property name="meta.media.0.codec.sample_aspect_ratio">0</property>
  <property name="meta.media.0.codec.colorspace">709</property>
  <property name="meta.media.0.codec.color_trc">1</property>
  <property name="meta.media.0.codec.name">vp9</property>
  <property name="meta.media.0.codec.long_name">Google VP9</property>
  <property name="meta.media.0.codec.bit_rate">0</property>
  <property name="meta.attr.0.stream.language.markup">eng</property>
  <property name="meta.attr.0.stream.DURATION.markup">00:11:04.766000000</property>
  <property name="meta.media.1.stream.type">audio</property>
  <property name="meta.media.1.codec.sample_fmt">fltp</property>
  <property name="meta.media.1.codec.sample_rate">48000</property>
  <property name="meta.media.1.codec.channels">2</property>
  <property name="meta.media.1.codec.name">opus</property>
  <property name="meta.media.1.codec.long_name">Opus</property>
  <property name="meta.media.1.codec.bit_rate">0</property>
  <property name="meta.attr.1.stream.language.markup">eng</property>
  <property name="meta.attr.1.stream.DURATION.markup">00:11:04.801000000</property>
  <property name="meta.attr.ENCODER.markup">Lavf59.27.100</property>
  <property name="seekable">1</property>
  <property name="meta.media.sample_aspect_num">1</property>
  <property name="meta.media.sample_aspect_den">1</property>
  <property name="format">3</property>
  <property name="audio_index">-1</property>
  <property name="video_index">0</property>
  <property name="mute_on_pause">0</property>
  <property name="meta.media.frame_rate_num">60</property>
  <property name="meta.media.frame_rate_den">1</property>
  <property name="meta.media.colorspace">709</property>
  <property name="meta.media.color_trc">1</property>
  <property name="meta.media.has_b_frames">0</property>
  <property name="meta.media.width">3840</property>
  <property name="meta.media.height">2160</property>
  <property name="meta.media.color_range">mpeg</property>
  <property name="kdenlive:clipname"/>
  <property name="meta.media.top_field_first">0</property>
  <property name="meta.media.progressive">1</property>
  <property name="kdenlive:clip_type">0</property>
  <property name="kdenlive:folderid">14</property>
  <property name="kdenlive:id">884</property>
  <property name="kdenlive:file_size">2187658212</property>
  <property name="kdenlive:file_hash">57bf6e1e258245f7ec563f8616f865c1</property>
  <property name="kdenlive:active_streams">-1</property>
  <property name="set.test_audio">1</property>
  <property name="kdenlive:audio_max1">227</property>
 </chain>
 <chain id="chain488" out="00:00:09.240">
  <property name="length">232</property>
  <property name="eof">pause</property>
  <property name="resource">audio/comment.mp3</property>
  <property name="mlt_service">avformat</property>
  <property name="meta.media.nb_streams">1</property>
  <property name="meta.media.0.stream.type">audio</property>
  <property name="meta.media.0.codec.sample_fmt">fltp</property>
  <property name="meta.media.0.codec.sample_rate">44100</property>
  <property name="meta.media.0.codec.channels">1</property>
  <property name="meta.media.0.codec.name">mp3float</property>
  <property name="meta.media.0.codec.long_name">MP3 (MPEG audio layer 3)</property>
  <property name="meta.media.0.codec.bit_rate">87391</property>
  <property name="meta.attr.0.stream.encoder.markup">LAME3.100</property>
  <property name="seekable">1</property>
  <property name="audio_index">0</property>
  <property name="video_index">-1</property>
  <property name="mute_on_pause">1</property>
  <property name="kdenlive:clipname"/>
  <property name="kdenlive:clip_type">1</property>
  <property name="kdenlive:folderid">228</property>
  <property name="kdenlive:id">886</property>
  <property name="kdenlive:file_size">101588</property>
  <property name="kdenlive:file_hash">db0400b30cf81ca1d745865f2b567f47</property>
  <property name="kdenlive:audio_max0">102</property>
 </chain>
 <chain id="chain489" out="00:02:48.160">
  <property name="length">4205</property>
  <property name="eof">pause</property>
  <property name="resource">/home/liquidzulu/Music/OST/Red Alert 3ï¼š Soviet March - Instrumental [4R-2pG78mSo].mp3</property>
  <property name="mlt_service">avformat</property>
  <property name="meta.media.nb_streams">1</property>
  <property name="meta.media.0.stream.type">audio</property>
  <property name="meta.media.0.codec.sample_fmt">fltp</property>
  <property name="meta.media.0.codec.sample_rate">48000</property>
  <property name="meta.media.0.codec.channels">2</property>
  <property name="meta.media.0.codec.name">mp3float</property>
  <property name="meta.media.0.codec.long_name">MP3 (MPEG audio layer 3)</property>
  <property name="meta.media.0.codec.bit_rate">129822</property>
  <property name="meta.attr.0.stream.encoder.markup">Lavc59.37</property>
  <property name="meta.attr.encoder.markup">Lavf59.27.100</property>
  <property name="seekable">1</property>
  <property name="audio_index">0</property>
  <property name="video_index">-1</property>
  <property name="mute_on_pause">1</property>
  <property name="kdenlive:clipname"/>
  <property name="kdenlive:clip_type">1</property>
  <property name="kdenlive:folderid">5</property>
  <property name="kdenlive:id">888</property>
  <property name="kdenlive:file_size">2729805</property>
  <property name="kdenlive:file_hash">54d69cb161cd14c98640a7413f76ecb0</property>
  <property name="kdenlive:audio_max0">208</property>
 </chain>
 <producer id="producer731" in="00:00:00.000" out="00:00:04.960">
  <property name="length">00:00:05.000</property>
  <property name="eof">pause</property>
  <property name="resource">citations/citations.xcf</property>
  <property name="ttl">25</property>
  <property name="aspect_ratio">1</property>
  <property name="progressive">1</property>
  <property name="seekable">1</property>
  <property name="format">1</property>
  <property name="meta.media.width">1920</property>
  <property name="meta.media.height">1080</property>
  <property name="mlt_service">qimage</property>
  <property name="kdenlive:clipname"/>
  <property name="kdenlive:duration">00:00:05.000</property>
  <property name="kdenlive:folderid">234</property>
  <property name="kdenlive:id">235</property>
  <property name="kdenlive:clip_type">2</property>
  <property name="kdenlive:file_size">4538298</property>
  <property name="kdenlive:file_hash">38f034ab72d201514ac1ffe15c407ab9</property>
 </producer>
 <producer id="producer732" in="00:00:00.000" out="00:00:39.440">
  <property name="length">987</property>
  <property name="eof">pause</property>
  <property name="resource">/home/liquidzulu/Pictures/yt/animation/output/project/squiggly-two-thirds/.all.png</property>
  <property name="ttl">1</property>
  <property name="aspect_ratio">1</property>
  <property name="progressive">1</property>
  <property name="seekable">1</property>
  <property name="format">2</property>
  <property name="meta.media.width">1920</property>
  <property name="meta.media.height">1080</property>
  <property name="mlt_service">qimage</property>
  <property name="kdenlive:clipname">Squiggly Border</property>
  <property name="low-pass">0</property>
  <property name="animation"/>
  <property name="luma_file"/>
  <property name="luma_duration">25</property>
  <property name="fade">0</property>
  <property name="crop">0</property>
  <property name="softness">0</property>
  <property name="loop">1</property>
  <property name="kdenlive:duration">00:00:12:08</property>
  <property name="kdenlive:folderid">218</property>
  <property name="kdenlive:id">231</property>
  <property name="kdenlive:clip_type">2</property>
  <property name="kdenlive:file_hash">98ba2f58a7b8ff51461b91634c07a5c8</property>
 </producer>
 <chain id="chain490" out="00:02:48.920">
  <property name="length">4224</property>
  <property name="eof">pause</property>
  <property name="resource">audio/quotes/ai-art-quote/out/ai ml media advocacy.00.47.10.mp3</property>
  <property name="mlt_service">avformat</property>
  <property name="meta.media.nb_streams">1</property>
  <property name="meta.media.0.stream.type">audio</property>
  <property name="meta.media.0.codec.sample_fmt">fltp</property>
  <property name="meta.media.0.codec.sample_rate">44100</property>
  <property name="meta.media.0.codec.channels">2</property>
  <property name="meta.media.0.codec.name">mp3float</property>
  <property name="meta.media.0.codec.long_name">MP3 (MPEG audio layer 3)</property>
  <property name="meta.media.0.codec.bit_rate">192000</property>
  <property name="meta.attr.encoded_by.markup">LAME in FL Studio 21</property>
  <property name="meta.attr.date.markup">2023</property>
  <property name="seekable">1</property>
  <property name="audio_index">0</property>
  <property name="video_index">-1</property>
  <property name="mute_on_pause">1</property>
  <property name="kdenlive:clipname"/>
  <property name="kdenlive:clip_type">1</property>
  <property name="kdenlive:folderid">350</property>
  <property name="kdenlive:id">890</property>
  <property name="kdenlive:file_size">4055096</property>
  <property name="kdenlive:file_hash">8aa41a640c6b406bf2d1a7c1498eaff5</property>
  <property name="kdenlive:audio_max0">199</property>
 </chain>
 <playlist id="main_bin">
  <property name="kdenlive:folder.-1.2">Sequences</property>
  <property name="kdenlive:folder.-1.5">music</property>
  <property name="kdenlive:folder.-1.14">b-roll</property>
  <property name="kdenlive:folder.-1.21">titles</property>
  <property name="kdenlive:folder.-1.28">images</property>
  <property name="kdenlive:folder.-1.218">animations</property>
  <property name="kdenlive:folder.-1.228">audio</property>
  <property name="kdenlive:folder.-1.234">citations</property>
  <property name="kdenlive:folder.-1.273">footnotes</property>
  <property name="kdenlive:folder.-1.345">quotes</property>
  <property name="kdenlive:folder.-1.350">quotes audio</property>
  <property name="kdenlive:folder.-1.460">Pasted clips</property>
  <property name="kdenlive:docproperties.activetimeline">{e69a46b0-28c8-4003-b2b8-29a27970defc}</property>
  <property name="kdenlive:docproperties.browserurl">/home/liquidzulu/Videos/</property>
  <property name="kdenlive:docproperties.compositing">1</property>
  <property name="kdenlive:docproperties.documentid">1702136541226</property>
  <property name="kdenlive:docproperties.enableTimelineZone">0</property>
  <property name="kdenlive:docproperties.enableexternalproxy">0</property>
  <property name="kdenlive:docproperties.enableproxy">0</property>
  <property name="kdenlive:docproperties.externalproxyparams"/>
  <property name="kdenlive:docproperties.generateimageproxy">0</property>
  <property name="kdenlive:docproperties.generateproxy">0</property>
  <property name="kdenlive:docproperties.guidesCategories">[
    {
        "color": "#9b59b6",
        "comment": "Category 1",
        "index": 0
    },
    {
        "color": "#3daee9",
        "comment": "Category 2",
        "index": 1
    },
    {
        "color": "#1abc9c",
        "comment": "Category 3",
        "index": 2
    },
    {
        "color": "#1cdc9a",
        "comment": "Category 4",
        "index": 3
    },
    {
        "color": "#c9ce3b",
        "comment": "Category 5",
        "index": 4
    },
    {
        "color": "#fdbc4b",
        "comment": "Category 6",
        "index": 5
    },
    {
        "color": "#f39c1f",
        "comment": "Category 7",
        "index": 6
    },
    {
        "color": "#f47750",
        "comment": "Category 8",
        "index": 7
    },
    {
        "color": "#da4453",
        "comment": "Category 9",
        "index": 8
    }
]
</property>
  <property name="kdenlive:docproperties.kdenliveversion">23.04.3</property>
  <property name="kdenlive:docproperties.opensequences">{e69a46b0-28c8-4003-b2b8-29a27970defc}</property>
  <property name="kdenlive:docproperties.previewextension"/>
  <property name="kdenlive:docproperties.previewparameters"/>
  <property name="kdenlive:docproperties.profile">atsc_1080p_25</property>
  <property name="kdenlive:docproperties.proxyextension"/>
  <property name="kdenlive:docproperties.proxyimageminsize">2000</property>
  <property name="kdenlive:docproperties.proxyimagesize">800</property>
  <property name="kdenlive:docproperties.proxyminsize">1000</property>
  <property name="kdenlive:docproperties.proxyparams"/>
  <property name="kdenlive:docproperties.proxyresize">640</property>
  <property name="kdenlive:docproperties.rendercategory">Generic (HD for web, mobile devices...)</property>
  <property name="kdenlive:docproperties.rendercustomquality">-1</property>
  <property name="kdenlive:docproperties.renderendguide">0</property>
  <property name="kdenlive:docproperties.renderexportaudio">0</property>
  <property name="kdenlive:docproperties.renderfullcolorrange">0</property>
  <property name="kdenlive:docproperties.rendermode">1</property>
  <property name="kdenlive:docproperties.renderplay">0</property>
  <property name="kdenlive:docproperties.renderpreview">0</property>
  <property name="kdenlive:docproperties.renderprofile">MP4-H264/AAC</property>
  <property name="kdenlive:docproperties.renderrescale">0</property>
  <property name="kdenlive:docproperties.renderrescaleheight">540</property>
  <property name="kdenlive:docproperties.renderrescalewidth">960</property>
  <property name="kdenlive:docproperties.renderspeed">6</property>
  <property name="kdenlive:docproperties.renderstartguide">0</property>
  <property name="kdenlive:docproperties.rendertcoverlay">0</property>
  <property name="kdenlive:docproperties.rendertctype">-1</property>
  <property name="kdenlive:docproperties.rendertwopass">0</property>
  <property name="kdenlive:docproperties.renderurl">/home/liquidzulu/Videos/yt/vid-store/ai-art.mp4</property>
  <property name="kdenlive:docproperties.seekOffset">30000</property>
  <property name="kdenlive:docproperties.uuid">{e69a46b0-28c8-4003-b2b8-29a27970defc}</property>
  <property name="kdenlive:docproperties.version">1.1</property>
  <property name="kdenlive:expandedFolders"/>
  <property name="kdenlive:binZoom">4</property>
  <property name="kdenlive:documentnotes"/>
  <property name="xml_retain">1</property>
  <entry producer="chain1" in="00:00:00.000" out="00:30:00.000"/>
  <entry producer="chain11" in="00:00:00.000" out="02:18:58.840"/>
  <entry producer="chain12" in="00:00:00.000" out="01:39:18.480"/>
  <entry producer="chain13" in="00:00:00.000" out="01:48:05.000"/>
  <entry producer="chain14" in="00:00:00.000" out="00:38:45.400"/>
  <entry producer="chain15" in="00:00:00.000" out="00:01:29.920"/>
  <entry producer="chain16" in="00:00:00.000" out="00:00:13.160"/>
  <entry producer="chain17" in="00:00:00.000" out="00:19:50.960"/>
  <entry producer="chain18" in="00:00:00.000" out="02:53:21.560"/>
  <entry producer="chain19" in="00:00:00.000" out="01:29:44.560"/>
  <entry producer="chain20" in="00:00:00.000" out="00:15:19.720"/>
  <entry producer="chain25" in="00:00:00.000" out="00:07:08.480"/>
  <entry producer="chain26" in="00:00:00.000" out="00:05:01.280"/>
  <entry producer="chain28" in="00:00:00.000" out="00:38:45.400"/>
  <entry producer="producer1" in="00:00:00.000" out="00:00:04.960"/>
  <entry producer="chain29" in="00:00:00.000" out="00:01:00.000"/>
  <entry producer="producer3" in="00:00:00.000" out="00:00:13.240"/>
  <entry producer="chain30" in="00:00:00.000" out="00:00:58.320"/>
  <entry producer="producer2" in="00:00:00.000" out="00:00:04.960"/>
  <entry producer="producer11" in="00:00:00.000" out="00:00:08.760"/>
  <entry producer="producer14" in="00:00:00.000" out="00:00:04.960"/>
  <entry producer="producer13" in="00:00:00.000" out="00:00:10.240"/>
  <entry producer="producer12" in="00:00:00.000" out="00:00:04.960"/>
  <entry producer="producer15" in="00:00:00.000" out="00:00:04.960"/>
  <entry producer="producer17" in="00:00:00.000" out="00:00:04.960"/>
  <entry producer="producer16" in="00:00:00.000" out="00:00:08.520"/>
  <entry producer="producer19" in="00:00:00.000" out="00:00:04.960"/>
  <entry producer="producer18" in="00:00:00.000" out="00:00:04.960"/>
  <entry producer="producer31" in="00:00:00.000" out="00:00:04.960"/>
  <entry producer="producer139" in="00:00:00.000" out="00:00:04.960"/>
  <entry producer="producer20" in="00:00:00.000" out="00:00:35.080"/>
  <entry producer="producer22" in="00:00:00.000" out="00:00:04.960"/>
  <entry producer="producer24" in="00:00:00.000" out="00:00:04.960"/>
  <entry producer="producer23" in="00:00:00.000" out="00:00:04.960"/>
  <entry producer="producer25" in="00:00:00.000" out="00:00:04.960"/>
  <entry producer="producer26" in="00:00:00.000" out="00:00:04.960"/>
  <entry producer="producer27" in="00:00:00.000" out="00:00:04.960"/>
  <entry producer="producer28" in="00:00:00.000" out="00:00:04.960"/>
  <entry producer="producer29" in="00:00:00.000" out="00:00:04.960"/>
  <entry producer="producer30" in="00:00:00.000" out="00:00:04.960"/>
  <entry producer="producer33" in="00:00:00.000" out="00:00:04.960"/>
  <entry producer="producer32" in="00:00:00.000" out="00:00:04.960"/>
  <entry producer="producer35" in="00:00:00.000" out="00:00:04.960"/>
  <entry producer="producer34" in="00:00:00.000" out="00:00:04.960"/>
  <entry producer="producer36" in="00:00:00.000" out="00:00:04.960"/>
  <entry producer="producer37" in="00:00:00.000" out="00:00:04.960"/>
  <entry producer="producer38" in="00:00:00.000" out="00:00:04.960"/>
  <entry producer="producer39" in="00:00:00.000" out="00:00:04.960"/>
  <entry producer="producer43" in="00:00:00.000" out="00:00:04.960"/>
  <entry producer="producer41" in="00:00:00.000" out="00:00:04.960"/>
  <entry producer="producer42" in="00:00:00.000" out="00:00:04.960"/>
  <entry producer="producer44" in="00:00:00.000" out="00:00:04.960"/>
  <entry producer="producer45" in="00:00:00.000" out="00:00:04.960"/>
  <entry producer="producer46" in="00:00:00.000" out="00:00:04.960"/>
  <entry producer="producer48" in="00:00:00.000" out="00:00:04.960"/>
  <entry producer="producer47" in="00:00:00.000" out="00:00:04.960"/>
  <entry producer="producer49" in="00:00:00.000" out="00:00:04.960"/>
  <entry producer="producer51" in="00:00:00.000" out="00:00:04.960"/>
  <entry producer="producer50" in="00:00:00.000" out="00:00:04.960"/>
  <entry producer="producer53" in="00:00:00.000" out="00:00:04.960"/>
  <entry producer="producer55" in="00:00:00.000" out="00:00:04.960"/>
  <entry producer="producer52" in="00:00:00.000" out="00:00:04.960"/>
  <entry producer="producer54" in="00:00:00.000" out="00:00:04.960"/>
  <entry producer="producer56" in="00:00:00.000" out="00:00:04.960"/>
  <entry producer="producer57" in="00:00:00.000" out="00:00:04.960"/>
  <entry producer="producer58" in="00:00:00.000" out="00:00:04.960"/>
  <entry producer="producer59" in="00:00:00.000" out="00:00:04.960"/>
  <entry producer="producer64" in="00:00:00.000" out="00:00:04.960"/>
  <entry producer="producer61" in="00:00:00.000" out="00:00:04.960"/>
  <entry producer="producer60" in="00:00:00.000" out="00:00:04.960"/>
  <entry producer="producer63" in="00:00:00.000" out="00:00:04.960"/>
  <entry producer="producer62" in="00:00:00.000" out="00:00:04.960"/>
  <entry producer="producer65" in="00:00:00.000" out="00:00:04.960"/>
  <entry producer="producer68" in="00:00:00.000" out="00:00:04.960"/>
  <entry producer="producer66" in="00:00:00.000" out="00:00:04.960"/>
  <entry producer="producer67" in="00:00:00.000" out="00:00:04.960"/>
  <entry producer="producer69" in="00:00:00.000" out="00:00:04.960"/>
  <entry producer="producer70" in="00:00:00.000" out="00:00:04.960"/>
  <entry producer="producer72" in="00:00:00.000" out="00:00:04.960"/>
  <entry producer="producer71" in="00:00:00.000" out="00:00:04.960"/>
  <entry producer="producer73" in="00:00:00.000" out="00:00:04.960"/>
  <entry producer="producer74" in="00:00:00.000" out="00:00:04.960"/>
  <entry producer="producer75" in="00:00:00.000" out="00:00:04.960"/>
  <entry producer="producer76" in="00:00:00.000" out="00:00:04.960"/>
  <entry producer="producer79" in="00:00:00.000" out="00:00:04.960"/>
  <entry producer="producer77" in="00:00:00.000" out="00:00:04.960"/>
  <entry producer="producer78" in="00:00:00.000" out="00:00:04.960"/>
  <entry producer="producer80" in="00:00:00.000" out="00:00:04.960"/>
  <entry producer="producer81" in="00:00:00.000" out="00:00:04.960"/>
  <entry producer="producer82" in="00:00:00.000" out="00:00:04.960"/>
  <entry producer="producer83" in="00:00:00.000" out="00:00:04.960"/>
  <entry producer="producer84" in="00:00:00.000" out="00:00:04.960"/>
  <entry producer="producer85" in="00:00:00.000" out="00:00:04.960"/>
  <entry producer="producer86" in="00:00:00.000" out="00:00:04.960"/>
  <entry producer="producer88" in="00:00:00.000" out="00:00:04.960"/>
  <entry producer="producer87" in="00:00:00.000" out="00:00:04.960"/>
  <entry producer="producer89" in="00:00:00.000" out="00:00:04.960"/>
  <entry producer="producer91" in="00:00:00.000" out="00:00:26.320"/>
  <entry producer="producer100" in="00:00:00.000" out="00:00:04.960"/>
  <entry producer="producer90" in="00:00:00.000" out="00:00:04.960"/>
  <entry producer="producer93" in="00:00:00.000" out="00:00:04.960"/>
  <entry producer="producer92" in="00:00:00.000" out="00:00:04.960"/>
  <entry producer="producer94" in="00:00:00.000" out="00:00:04.960"/>
  <entry producer="producer95" in="00:00:00.000" out="00:00:04.960"/>
  <entry producer="producer97" in="00:00:00.000" out="00:00:04.960"/>
  <entry producer="producer96" in="00:00:00.000" out="00:00:04.960"/>
  <entry producer="producer98" in="00:00:00.000" out="00:00:04.960"/>
  <entry producer="producer99" in="00:00:00.000" out="00:00:04.960"/>
  <entry producer="producer101" in="00:00:00.000" out="00:00:04.960"/>
  <entry producer="producer102" in="00:00:00.000" out="00:00:04.960"/>
  <entry producer="producer106" in="00:00:00.000" out="00:00:04.960"/>
  <entry producer="producer104" in="00:00:00.000" out="00:00:04.960"/>
  <entry producer="producer103" in="00:00:00.000" out="00:00:04.960"/>
  <entry producer="producer105" in="00:00:00.000" out="00:00:04.960"/>
  <entry producer="producer107" in="00:00:00.000" out="00:00:04.960"/>
  <entry producer="producer108" in="00:00:00.000" out="00:00:04.960"/>
  <entry producer="producer109" in="00:00:00.000" out="00:00:04.960"/>
  <entry producer="producer110" in="00:00:00.000" out="00:00:47.200"/>
  <entry producer="producer114" in="00:00:00.000" out="00:00:04.960"/>
  <entry producer="producer111" in="00:00:00.000" out="00:00:04.960"/>
  <entry producer="producer112" in="00:00:00.000" out="00:00:04.960"/>
  <entry producer="producer115" in="00:00:00.000" out="00:00:04.960"/>
  <entry producer="producer113" in="00:00:00.000" out="00:00:04.960"/>
  <entry producer="producer117" in="00:00:00.000" out="00:00:08.480"/>
  <entry producer="producer120" in="00:00:00.000" out="00:00:04.960"/>
  <entry producer="producer116" in="00:00:00.000" out="00:00:04.960"/>
  <entry producer="producer118" in="00:00:00.000" out="00:00:04.960"/>
  <entry producer="producer119" in="00:00:00.000" out="00:00:04.960"/>
  <entry producer="producer138" in="00:00:00.000" out="00:00:04.960"/>
  <entry producer="producer191" in="00:00:00.000" out="00:00:04.960"/>
  <entry producer="producer122" in="00:00:00.000" out="00:00:04.960"/>
  <entry producer="producer123" in="00:00:00.000" out="00:00:13.720"/>
  <entry producer="producer124" in="00:00:00.000" out="00:00:04.960"/>
  <entry producer="producer125" in="00:00:00.000" out="00:00:04.960"/>
  <entry producer="producer552" in="00:00:00.000" out="00:00:04.960"/>
  <entry producer="producer127" in="00:00:00.000" out="00:00:04.960"/>
  <entry producer="producer4" in="00:00:00.000" out="00:00:04.960"/>
  <entry producer="producer5" in="00:00:00.000" out="00:00:04.960"/>
  <entry producer="producer128" in="00:00:00.000" out="00:00:04.960"/>
  <entry producer="producer129" in="00:00:00.000" out="00:00:04.960"/>
  <entry producer="producer130" in="00:00:00.000" out="00:00:04.960"/>
  <entry producer="producer131" in="00:00:00.000" out="00:00:04.960"/>
  <entry producer="producer6" in="00:00:00.000" out="00:00:04.960"/>
  <entry producer="producer7" in="00:00:00.000" out="00:00:04.960"/>
  <entry producer="producer132" in="00:00:00.000" out="00:00:04.960"/>
  <entry producer="producer8" in="00:00:00.000" out="00:00:04.960"/>
  <entry producer="producer9" in="00:00:00.000" out="00:00:04.960"/>
  <entry producer="producer10" in="00:00:00.000" out="00:00:04.960"/>
  <entry producer="producer133" in="00:00:00.000" out="00:00:04.960"/>
  <entry producer="producer134" in="00:00:00.000" out="00:00:04.960"/>
  <entry producer="producer136" in="00:00:00.000" out="00:00:04.960"/>
  <entry producer="producer137" in="00:00:00.000" out="00:00:04.960"/>
  <entry producer="producer150" in="00:00:00.000" out="00:00:04.960"/>
  <entry producer="producer141" in="00:00:00.000" out="00:00:04.960"/>
  <entry producer="producer140" in="00:00:00.000" out="00:00:04.960"/>
  <entry producer="producer145" in="00:00:00.000" out="00:00:04.960"/>
  <entry producer="producer142" in="00:00:00.000" out="00:00:04.960"/>
  <entry producer="producer143" in="00:00:00.000" out="00:00:04.960"/>
  <entry producer="producer144" in="00:00:00.000" out="00:00:04.960"/>
  <entry producer="producer146" in="00:00:00.000" out="00:00:04.960"/>
  <entry producer="producer148" in="00:00:00.000" out="00:00:04.960"/>
  <entry producer="producer147" in="00:00:00.000" out="00:00:04.960"/>
  <entry producer="producer192" in="00:00:00.000" out="00:00:04.960"/>
  <entry producer="producer149" in="00:00:00.000" out="00:00:04.960"/>
  <entry producer="producer151" in="00:00:00.000" out="00:00:04.960"/>
  <entry producer="producer152" in="00:00:00.000" out="00:00:30.000"/>
  <entry producer="producer153" in="00:00:00.000" out="00:00:22.320"/>
  <entry producer="producer155" in="00:00:00.000" out="00:00:16.520"/>
  <entry producer="producer154" in="00:00:00.000" out="00:00:27.400"/>
  <entry producer="producer402" in="00:00:00.000" out="00:00:29.880"/>
  <entry producer="producer409" in="00:00:00.000" out="00:00:26.480"/>
  <entry producer="producer454" in="00:00:00.000" out="00:00:04.960"/>
  <entry producer="producer455" in="00:00:00.000" out="00:00:04.960"/>
  <entry producer="producer429" in="00:00:00.000" out="00:00:26.360"/>
  <entry producer="producer456" in="00:00:00.000" out="00:00:04.960"/>
  <entry producer="producer162" in="00:00:00.000" out="00:00:43.640"/>
  <entry producer="producer401" in="00:00:00.000" out="00:00:04.960"/>
  <entry producer="producer165" in="00:00:00.000" out="00:00:04.960"/>
  <entry producer="producer164" in="00:00:00.000" out="00:00:04.960"/>
  <entry producer="producer166" in="00:00:00.000" out="00:00:04.960"/>
  <entry producer="producer167" in="00:00:00.000" out="00:00:04.960"/>
  <entry producer="producer168" in="00:00:00.000" out="00:00:04.960"/>
  <entry producer="producer173" in="00:00:00.000" out="00:00:04.960"/>
  <entry producer="producer169" in="00:00:00.000" out="00:00:04.960"/>
  <entry producer="producer170" in="00:00:00.000" out="00:00:04.960"/>
  <entry producer="producer171" in="00:00:00.000" out="00:00:04.960"/>
  <entry producer="producer172" in="00:00:00.000" out="00:00:30.880"/>
  <entry producer="producer175" in="00:00:00.000" out="00:00:04.960"/>
  <entry producer="producer174" in="00:00:00.000" out="00:00:04.960"/>
  <entry producer="producer177" in="00:00:00.000" out="00:00:04.960"/>
  <entry producer="producer176" in="00:00:00.000" out="00:00:04.960"/>
  <entry producer="producer179" in="00:00:00.000" out="00:00:04.960"/>
  <entry producer="producer178" in="00:00:00.000" out="00:00:04.960"/>
  <entry producer="producer180" in="00:00:00.000" out="00:00:04.960"/>
  <entry producer="producer181" in="00:00:00.000" out="00:00:04.960"/>
  <entry producer="producer183" in="00:00:00.000" out="00:00:04.960"/>
  <entry producer="producer303" in="00:00:00.000" out="00:00:07.680"/>
  <entry producer="producer185" in="00:00:00.000" out="00:00:04.960"/>
  <entry producer="producer184" in="00:00:00.000" out="00:00:04.960"/>
  <entry producer="producer186" in="00:00:00.000" out="00:00:04.960"/>
  <entry producer="producer187" in="00:00:00.000" out="00:00:04.960"/>
  <entry producer="producer189" in="00:00:00.000" out="00:00:04.960"/>
  <entry producer="producer188" in="00:00:00.000" out="00:00:04.960"/>
  <entry producer="producer190" in="00:00:00.000" out="00:00:04.960"/>
  <entry producer="chain47" in="00:00:00.000" out="00:04:40.600"/>
  <entry producer="producer21" in="00:00:00.000" out="00:00:04.960"/>
  <entry producer="producer40" in="00:00:00.000" out="00:00:04.960"/>
  <entry producer="producer230" in="00:00:00.000" out="00:00:04.960"/>
  <entry producer="producer231" in="00:00:00.000" out="00:00:04.960"/>
  <entry producer="producer232" in="00:00:00.000" out="00:00:04.960"/>
  <entry producer="chain287" in="00:00:00.000" out="00:00:09.960"/>
  <entry producer="producer121" in="00:00:00.000" out="02:07:54.120"/>
  <entry producer="producer233" in="00:00:00.000" out="00:00:04.960"/>
  <entry producer="producer241" in="00:00:00.000" out="00:00:04.960"/>
  <entry producer="producer242" in="00:00:00.000" out="00:00:04.960"/>
  <entry producer="producer243" in="00:00:00.000" out="00:00:04.960"/>
  <entry producer="producer244" in="00:00:00.000" out="00:00:04.960"/>
  <entry producer="producer245" in="00:00:00.000" out="00:00:04.960"/>
  <entry producer="chain49" in="00:00:00.000" out="02:07:46.080"/>
  <entry producer="chain50" in="00:00:00.000" out="00:02:14.920"/>
  <entry producer="chain51" in="00:00:00.000" out="00:00:29.360"/>
  <entry producer="chain52" in="00:00:00.000" out="00:47:30.880"/>
  <entry producer="producer135" in="00:00:00.000" out="00:00:16.720"/>
  <entry producer="producer193" in="00:00:00.000" out="00:00:04.960"/>
  <entry producer="producer194" in="00:00:00.000" out="00:00:04.960"/>
  <entry producer="chain53" in="00:00:00.000" out="00:00:11.280"/>
  <entry producer="chain54" in="00:00:00.000" out="00:01:29.640"/>
  <entry producer="chain55" in="00:00:00.000" out="00:00:17.520"/>
  <entry producer="producer196" in="00:00:00.000" out="00:00:05.840"/>
  <entry producer="producer195" in="00:00:00.000" out="00:00:04.960"/>
  <entry producer="chain56" in="00:00:00.000" out="00:16:50.080"/>
  <entry producer="producer197" in="00:00:00.000" out="00:00:10.040"/>
  <entry producer="chain57" in="00:00:00.000" out="00:00:49.880"/>
  <entry producer="producer198" in="00:00:00.000" out="00:00:12.960"/>
  <entry producer="producer199" in="00:00:00.000" out="00:00:11.200"/>
  <entry producer="producer390" in="00:00:00.000" out="00:00:22.760"/>
  <entry producer="chain58" in="00:00:00.000" out="00:17:49.800"/>
  <entry producer="chain59" in="00:00:00.000" out="00:04:32.920"/>
  <entry producer="producer235" in="00:00:00.000" out="00:00:09.960"/>
  <entry producer="producer247" in="00:00:00.000" out="00:00:09.960"/>
  <entry producer="producer251" in="00:00:00.000" out="00:00:06.560"/>
  <entry producer="producer200" in="00:00:00.000" out="00:00:04.960"/>
  <entry producer="producer201" in="00:00:00.000" out="00:00:04.960"/>
  <entry producer="producer202" in="00:00:00.000" out="00:00:04.960"/>
  <entry producer="producer203" in="00:00:00.000" out="00:00:04.960"/>
  <entry producer="producer204" in="00:00:00.000" out="00:00:28.640"/>
  <entry producer="chain60" in="00:00:00.000" out="00:00:06.440"/>
  <entry producer="producer236" in="00:00:00.000" out="00:00:12.440"/>
  <entry producer="chain61" in="00:00:00.000" out="00:00:09.160"/>
  <entry producer="producer237" in="00:00:00.000" out="00:00:10.560"/>
  <entry producer="chain62" in="00:00:00.000" out="00:00:04.960"/>
  <entry producer="producer205" in="00:00:00.000" out="00:00:04.960"/>
  <entry producer="producer206" in="00:00:00.000" out="00:00:10.960"/>
  <entry producer="chain63" in="00:00:00.000" out="00:00:17.120"/>
  <entry producer="producer207" in="00:00:00.000" out="00:00:05.840"/>
  <entry producer="producer239" in="00:00:00.000" out="00:00:04.960"/>
  <entry producer="producer248" in="00:00:00.000" out="00:00:04.960"/>
  <entry producer="chain64" in="00:00:00.000" out="00:15:34.160"/>
  <entry producer="producer208" in="00:00:00.000" out="00:00:13.880"/>
  <entry producer="producer254" in="00:00:00.000" out="00:00:19.680"/>
  <entry producer="producer209" in="00:00:00.000" out="00:00:04.960"/>
  <entry producer="producer210" in="00:00:00.000" out="00:00:04.960"/>
  <entry producer="producer211" in="00:00:00.000" out="00:00:04.960"/>
  <entry producer="producer212" in="00:00:00.000" out="00:00:04.960"/>
  <entry producer="producer213" in="00:00:00.000" out="00:00:04.960"/>
  <entry producer="producer214" in="00:00:00.000" out="00:00:04.960"/>
  <entry producer="producer215" in="00:00:00.000" out="00:00:04.960"/>
  <entry producer="producer216" in="00:00:00.000" out="00:00:04.960"/>
  <entry producer="producer217" in="00:00:00.000" out="00:00:04.960"/>
  <entry producer="producer218" in="00:00:00.000" out="00:00:04.960"/>
  <entry producer="producer219" in="00:00:00.000" out="00:00:04.960"/>
  <entry producer="producer220" in="00:00:00.000" out="00:00:04.960"/>
  <entry producer="producer221" in="00:00:00.000" out="00:00:04.960"/>
  <entry producer="producer222" in="00:00:00.000" out="00:00:04.960"/>
  <entry producer="producer223" in="00:00:00.000" out="00:00:04.960"/>
  <entry producer="producer224" in="00:00:00.000" out="00:00:04.960"/>
  <entry producer="producer225" in="00:00:00.000" out="00:00:04.960"/>
  <entry producer="producer226" in="00:00:00.000" out="00:00:04.960"/>
  <entry producer="producer227" in="00:00:00.000" out="00:00:04.960"/>
  <entry producer="producer228" in="00:00:00.000" out="00:00:04.960"/>
  <entry producer="producer229" in="00:00:00.000" out="00:00:04.960"/>
  <entry producer="producer238" in="00:00:00.000" out="00:00:13.240"/>
  <entry producer="producer266" in="00:00:00.000" out="00:00:21.120"/>
  <entry producer="producer270" in="00:00:00.000" out="00:00:19.680"/>
  <entry producer="producer240" in="00:00:00.000" out="00:00:04.960"/>
  <entry producer="producer246" in="00:00:00.000" out="00:00:04.960"/>
  <entry producer="producer271" in="00:00:00.000" out="00:00:04.960"/>
  <entry producer="producer249" in="00:00:00.000" out="00:00:04.960"/>
  <entry producer="producer250" in="00:00:00.000" out="00:00:04.960"/>
  <entry producer="producer255" in="00:00:00.000" out="00:00:04.960"/>
  <entry producer="producer256" in="00:00:00.000" out="00:00:04.960"/>
  <entry producer="producer257" in="00:00:00.000" out="00:00:04.960"/>
  <entry producer="producer258" in="00:00:00.000" out="00:00:04.960"/>
  <entry producer="producer259" in="00:00:00.000" out="00:00:04.960"/>
  <entry producer="producer260" in="00:00:00.000" out="00:00:04.960"/>
  <entry producer="chain69" in="00:00:00.000" out="00:02:01.520"/>
  <entry producer="chain70" in="00:00:00.000" out="00:00:02.600"/>
  <entry producer="producer261" in="00:00:00.000" out="00:00:06.520"/>
  <entry producer="producer264" in="00:00:00.000" out="00:00:05.920"/>
  <entry producer="producer294" in="00:00:00.000" out="00:00:06.200"/>
  <entry producer="chain94" in="00:00:00.000" out="00:00:14.280"/>
  <entry producer="producer252" in="00:00:00.000" out="00:00:10.520"/>
  <entry producer="chain95" in="00:00:00.000" out="00:00:05.000"/>
  <entry producer="producer253" in="00:00:00.000" out="00:00:09.240"/>
  <entry producer="producer317" in="00:00:00.000" out="00:00:19.680"/>
  <entry producer="chain96" in="00:00:00.000" out="00:00:11.240"/>
  <entry producer="producer262" in="00:00:00.000" out="00:00:04.960"/>
  <entry producer="producer304" in="00:00:00.000" out="00:00:04.960"/>
  <entry producer="producer296" in="00:00:00.000" out="00:00:04.960"/>
  <entry producer="producer263" in="00:00:00.000" out="00:00:18.600"/>
  <entry producer="producer289" in="00:00:00.000" out="00:00:10.120"/>
  <entry producer="producer297" in="00:00:00.000" out="00:00:10.120"/>
  <entry producer="producer288" in="00:00:00.000" out="00:00:10.120"/>
  <entry producer="producer287" in="00:00:00.000" out="00:00:10.120"/>
  <entry producer="producer286" in="00:00:00.000" out="00:00:10.120"/>
  <entry producer="producer285" in="00:00:00.000" out="00:00:10.120"/>
  <entry producer="producer284" in="00:00:00.000" out="00:00:10.120"/>
  <entry producer="producer283" in="00:00:00.000" out="00:00:10.120"/>
  <entry producer="producer298" in="00:00:00.000" out="00:00:10.120"/>
  <entry producer="producer265" in="00:00:00.000" out="00:00:10.120"/>
  <entry producer="producer267" in="00:00:00.000" out="00:00:10.120"/>
  <entry producer="producer268" in="00:00:00.000" out="00:00:10.800"/>
  <entry producer="chain97" in="00:00:00.000" out="00:00:32.440"/>
  <entry producer="chain98" in="00:00:00.000" out="00:00:00.800"/>
  <entry producer="chain99" in="00:00:00.000" out="00:00:20.520"/>
  <entry producer="producer318" in="00:00:00.000" out="00:00:19.680"/>
  <entry producer="producer319" in="00:00:00.000" out="00:00:19.680"/>
  <entry producer="chain100" in="00:00:00.000" out="00:00:27.080"/>
  <entry producer="chain263" in="00:00:00.000" out="00:00:45.440"/>
  <entry producer="chain102" in="00:00:00.000" out="00:22:16.600"/>
  <entry producer="producer275" in="00:00:00.000" out="00:00:04.960"/>
  <entry producer="producer299" in="00:00:00.000" out="00:01:22.800"/>
  <entry producer="producer316" in="00:00:00.000" out="00:00:29.360"/>
  <entry producer="producer314" in="00:00:00.000" out="00:00:29.360"/>
  <entry producer="producer307" in="00:00:00.000" out="00:00:29.360"/>
  <entry producer="chain103" in="00:00:00.000" out="00:02:48.920"/>
  <entry producer="chain104" in="00:00:00.000" out="00:00:08.160"/>
  <entry producer="chain105" in="00:00:00.000" out="00:06:30.000"/>
  <entry producer="chain106" in="00:00:00.000" out="00:01:04.680"/>
  <entry producer="producer320" in="00:00:00.000" out="00:00:12.240"/>
  <entry producer="chain107" in="00:00:00.000" out="00:02:47.720"/>
  <entry producer="chain108" in="00:00:00.000" out="00:00:49.840"/>
  <entry producer="chain109" in="00:00:00.000" out="00:00:15.000"/>
  <entry producer="producer300" in="00:00:00.000" out="00:00:18.440"/>
  <entry producer="producer291" in="00:00:00.000" out="00:00:13.240"/>
  <entry producer="producer321" in="00:00:00.000" out="00:00:19.680"/>
  <entry producer="chain110" in="00:00:00.000" out="00:16:49.280"/>
  <entry producer="producer276" in="00:00:00.000" out="00:00:33.400"/>
  <entry producer="producer322" in="00:00:00.000" out="00:00:19.680"/>
  <entry producer="chain111" in="00:00:00.000" out="02:19:44.640"/>
  <entry producer="producer277" in="00:00:00.000" out="00:01:02.160"/>
  <entry producer="producer323" in="00:00:00.000" out="00:00:19.680"/>
  <entry producer="producer324" in="00:00:00.000" out="00:00:19.680"/>
  <entry producer="chain112" in="00:00:00.000" out="00:03:15.880"/>
  <entry producer="producer279" in="00:00:00.000" out="00:00:46.080"/>
  <entry producer="chain113" in="00:00:00.000" out="00:03:38.720"/>
  <entry producer="producer182" in="00:00:00.000" out="00:00:09.880"/>
  <entry producer="chain131" in="00:00:00.000" out="00:02:48.920"/>
  <entry producer="producer345" in="00:00:00.000" out="00:01:18.840"/>
  <entry producer="producer346" in="00:00:00.000" out="00:00:31.680"/>
  <entry producer="producer347" in="00:00:00.000" out="00:00:38.240"/>
  <entry producer="producer342" in="00:00:00.000" out="00:01:18.840"/>
  <entry producer="producer336" in="00:00:00.000" out="00:01:18.840"/>
  <entry producer="producer280" in="00:00:00.000" out="00:00:04.960"/>
  <entry producer="producer281" in="00:00:00.000" out="00:00:04.960"/>
  <entry producer="producer282" in="00:00:00.000" out="00:00:04.960"/>
  <entry producer="producer290" in="00:00:00.000" out="00:00:04.960"/>
  <entry producer="producer292" in="00:00:00.000" out="00:00:04.960"/>
  <entry producer="producer293" in="00:00:00.000" out="00:00:04.960"/>
  <entry producer="chain132" in="00:00:00.000" out="00:00:20.360"/>
  <entry producer="producer295" in="00:00:00.000" out="00:00:04.960"/>
  <entry producer="chain133" in="00:00:00.000" out="00:10:19.320"/>
  <entry producer="producer301" in="00:00:00.000" out="00:00:16.080"/>
  <entry producer="producer302" in="00:00:00.000" out="00:00:11.920"/>
  <entry producer="chain134" in="00:00:00.000" out="00:27:46.760"/>
  <entry producer="producer305" in="00:00:00.000" out="00:00:24.080"/>
  <entry producer="chain135" in="00:00:00.000" out="00:00:25.600"/>
  <entry producer="chain136" in="00:00:00.000" out="00:02:55.960"/>
  <entry producer="chain137" in="00:00:00.000" out="02:56:38.200"/>
  <entry producer="producer306" in="00:00:00.000" out="00:00:04.960"/>
  <entry producer="chain138" in="00:00:00.000" out="00:02:48.920"/>
  <entry producer="producer351" in="00:00:00.000" out="00:00:06.320"/>
  <entry producer="producer350" in="00:00:00.000" out="00:00:48.000"/>
  <entry producer="producer349" in="00:00:00.000" out="00:00:40.240"/>
  <entry producer="producer348" in="00:00:00.000" out="00:00:21.480"/>
  <entry producer="producer343" in="00:00:00.000" out="00:01:19.800"/>
  <entry producer="producer337" in="00:00:00.000" out="00:01:19.800"/>
  <entry producer="chain140" in="00:00:00.000" out="00:00:20.720"/>
  <entry producer="chain139" in="00:00:00.000" out="01:15:45.840"/>
  <entry producer="chain141" in="00:00:00.000" out="00:00:19.960"/>
  <entry producer="producer340" in="00:00:00.000" out="00:00:09.960"/>
  <entry producer="producer344" in="00:00:00.000" out="00:00:09.960"/>
  <entry producer="producer308" in="00:00:00.000" out="00:00:06.360"/>
  <entry producer="chain162" in="00:00:00.000" out="00:08:45.120"/>
  <entry producer="producer309" in="00:00:00.000" out="00:00:04.960"/>
  <entry producer="chain163" in="00:00:00.000" out="00:00:17.560"/>
  <entry producer="chain164" in="00:00:00.000" out="00:00:15.720"/>
  <entry producer="producer310" in="00:00:00.000" out="00:00:10.040"/>
  <entry producer="chain166" in="00:00:00.000" out="00:00:10.360"/>
  <entry producer="chain165" in="00:00:00.000" out="00:04:59.200"/>
  <entry producer="chain167" in="00:00:00.000" out="00:00:08.160"/>
  <entry producer="chain168" in="00:00:00.000" out="00:00:25.640"/>
  <entry producer="chain169" in="00:00:00.000" out="00:00:15.000"/>
  <entry producer="chain170" in="00:00:00.000" out="00:00:42.240"/>
  <entry producer="chain171" in="00:00:00.000" out="00:00:17.240"/>
  <entry producer="chain422" in="00:00:00.000" out="00:04:09.960"/>
  <entry producer="chain173" in="00:00:00.000" out="01:47:32.080"/>
  <entry producer="producer311" in="00:00:00.000" out="00:00:04.960"/>
  <entry producer="chain174" in="00:00:00.000" out="00:02:48.920"/>
  <entry producer="producer372" in="00:00:00.000" out="00:00:25.360"/>
  <entry producer="producer373" in="00:00:00.000" out="00:00:30.680"/>
  <entry producer="producer370" in="00:00:00.000" out="00:00:50.480"/>
  <entry producer="producer355" in="00:00:00.000" out="00:00:49.560"/>
  <entry producer="producer374" in="00:00:00.000" out="00:00:19.680"/>
  <entry producer="producer375" in="00:00:00.000" out="00:00:19.680"/>
  <entry producer="chain175" in="00:00:00.000" out="00:00:13.080"/>
  <entry producer="producer376" in="00:00:00.000" out="00:00:12.600"/>
  <entry producer="chain176" in="00:00:00.000" out="00:17:31.560"/>
  <entry producer="producer312" in="00:00:00.000" out="00:00:05.840"/>
  <entry producer="chain177" in="00:00:00.000" out="00:00:09.280"/>
  <entry producer="producer327" in="00:00:00.000" out="00:00:05.320"/>
  <entry producer="producer313" in="00:00:00.000" out="00:00:05.040"/>
  <entry producer="chain178" in="00:00:00.000" out="00:08:14.640"/>
  <entry producer="producer315" in="00:00:00.000" out="00:00:04.960"/>
  <entry producer="chain179" in="00:00:00.000" out="00:01:55.920"/>
  <entry producer="producer326" in="00:00:00.000" out="00:00:04.960"/>
  <entry producer="chain180" in="00:00:00.000" out="00:03:13.480"/>
  <entry producer="producer328" in="00:00:00.000" out="00:00:04.960"/>
  <entry producer="producer329" in="00:00:00.000" out="00:00:04.960"/>
  <entry producer="chain181" in="00:00:00.000" out="00:20:16.640"/>
  <entry producer="producer330" in="00:00:00.000" out="00:00:04.960"/>
  <entry producer="producer331" in="00:00:00.000" out="00:00:15.160"/>
  <entry producer="chain189" in="00:00:00.000" out="00:02:48.920"/>
  <entry producer="producer385" in="00:00:00.000" out="00:00:33.840"/>
  <entry producer="producer384" in="00:00:00.000" out="00:01:02.920"/>
  <entry producer="producer382" in="00:00:00.000" out="00:01:02.920"/>
  <entry producer="producer332" in="00:00:00.000" out="00:00:18.640"/>
  <entry producer="producer357" in="00:00:00.000" out="00:00:17.960"/>
  <entry producer="producer387" in="00:00:00.000" out="00:00:10.120"/>
  <entry producer="producer388" in="00:00:00.000" out="00:00:14.680"/>
  <entry producer="producer389" in="00:00:00.000" out="00:00:12.640"/>
  <entry producer="producer358" in="00:00:00.000" out="00:00:10.120"/>
  <entry producer="producer333" in="00:00:00.000" out="00:00:14.680"/>
  <entry producer="producer361" in="00:00:00.000" out="00:00:12.640"/>
  <entry producer="chain190" in="00:00:00.000" out="00:02:10.720"/>
  <entry producer="chain191" in="00:00:00.000" out="00:03:12.000"/>
  <entry producer="chain192" in="00:00:00.000" out="00:02:09.480"/>
  <entry producer="chain226" in="00:00:00.000" out="00:00:40.560"/>
  <entry producer="producer157" in="00:00:00.000" out="00:00:04.960"/>
  <entry producer="producer158" in="00:00:00.000" out="00:00:04.960"/>
  <entry producer="producer159" in="00:00:00.000" out="00:00:04.960"/>
  <entry producer="producer160" in="00:00:00.000" out="00:00:04.960"/>
  <entry producer="producer161" in="00:00:00.000" out="00:00:04.960"/>
  <entry producer="producer163" in="00:00:00.000" out="00:00:04.960"/>
  <entry producer="producer325" in="00:00:00.000" out="00:00:04.960"/>
  <entry producer="producer392" in="00:00:00.000" out="00:00:08.360"/>
  <entry producer="producer334" in="00:00:00.000" out="00:00:13.240"/>
  <entry producer="producer335" in="00:00:00.000" out="00:00:13.240"/>
  <entry producer="producer338" in="00:00:00.000" out="00:00:16.280"/>
  <entry producer="chain227" in="00:00:00.000" out="00:02:48.920"/>
  <entry producer="chain228" in="00:00:00.000" out="00:03:25.560"/>
  <entry producer="chain229" in="00:00:00.000" out="00:20:20.360"/>
  <entry producer="producer442" in="00:00:00.000" out="00:01:14.960"/>
  <entry producer="producer443" in="00:00:00.000" out="00:00:34.480"/>
  <entry producer="producer444" in="00:00:00.000" out="00:00:19.560"/>
  <entry producer="producer445" in="00:00:00.000" out="00:00:09.440"/>
  <entry producer="producer438" in="00:00:00.000" out="00:01:14.960"/>
  <entry producer="producer422" in="00:00:00.000" out="00:01:14.960"/>
  <entry producer="chain230" in="00:00:00.000" out="00:00:18.800"/>
  <entry producer="producer339" in="00:00:00.000" out="00:00:18.640"/>
  <entry producer="producer393" in="00:00:00.000" out="00:00:13.240"/>
  <entry producer="chain231" in="00:00:00.000" out="00:03:00.880"/>
  <entry producer="producer341" in="00:00:00.000" out="00:00:10.840"/>
  <entry producer="chain374" in="00:00:00.000" out="00:01:45.400"/>
  <entry producer="chain233" in="00:00:00.000" out="00:00:40.040"/>
  <entry producer="producer352" in="00:00:00.000" out="00:00:14.440"/>
  <entry producer="chain234" in="00:00:00.000" out="00:04:41.080"/>
  <entry producer="producer353" in="00:00:00.000" out="00:00:04.960"/>
  <entry producer="chain235" in="00:00:00.000" out="00:08:53.840"/>
  <entry producer="producer354" in="00:00:00.000" out="00:00:08.920"/>
  <entry producer="chain236" in="00:00:00.000" out="00:02:12.000"/>
  <entry producer="chain237" in="00:00:00.000" out="00:00:42.200"/>
  <entry producer="producer394" in="00:00:00.000" out="00:00:08.640"/>
  <entry producer="producer356" in="00:00:00.000" out="00:00:07.600"/>
  <entry producer="producer395" in="00:00:00.000" out="00:00:07.200"/>
  <entry producer="producer359" in="00:00:00.000" out="00:00:04.960"/>
  <entry producer="producer360" in="00:00:00.000" out="00:00:13.240"/>
  <entry producer="chain238" in="00:00:00.000" out="00:13:18.080"/>
  <entry producer="producer362" in="00:00:00.000" out="00:00:16.040"/>
  <entry producer="chain239" in="00:00:00.000" out="00:00:10.240"/>
  <entry producer="chain240" in="00:00:00.000" out="00:02:42.680"/>
  <entry producer="producer363" in="00:00:00.000" out="00:00:13.120"/>
  <entry producer="chain241" in="00:00:00.000" out="00:02:39.720"/>
  <entry producer="producer364" in="00:00:00.000" out="00:00:14.080"/>
  <entry producer="chain242" in="00:00:00.000" out="00:02:56.160"/>
  <entry producer="chain243" in="00:00:00.000" out="00:09:40.280"/>
  <entry producer="producer365" in="00:00:00.000" out="00:00:16.800"/>
  <entry producer="producer423" in="00:00:00.000" out="00:00:13.240"/>
  <entry producer="producer449" in="00:00:00.000" out="00:00:19.680"/>
  <entry producer="chain244" in="00:00:00.000" out="00:30:54.920"/>
  <entry producer="producer366" in="00:00:00.000" out="00:00:14.200"/>
  <entry producer="chain245" in="00:00:00.000" out="00:12:26.360"/>
  <entry producer="producer367" in="00:00:00.000" out="00:00:07.640"/>
  <entry producer="chain246" in="00:00:00.000" out="00:00:49.800"/>
  <entry producer="chain247" in="00:00:00.000" out="00:00:37.720"/>
  <entry producer="producer424" in="00:00:00.000" out="00:00:04.960"/>
  <entry producer="chain248" in="00:00:00.000" out="00:00:09.960"/>
  <entry producer="producer450" in="00:00:00.000" out="00:00:19.680"/>
  <entry producer="chain249" in="00:00:00.000" out="00:35:51.920"/>
  <entry producer="producer369" in="00:00:00.000" out="00:00:13.080"/>
  <entry producer="producer371" in="00:00:00.000" out="00:00:27.120"/>
  <entry producer="producer452" in="00:00:00.000" out="00:00:19.680"/>
  <entry producer="producer406" in="00:00:00.000" out="00:00:08.280"/>
  <entry producer="producer425" in="00:00:00.000" out="00:00:07.880"/>
  <entry producer="producer433" in="00:00:00.000" out="00:00:07.480"/>
  <entry producer="producer440" in="00:00:00.000" out="00:00:07.080"/>
  <entry producer="producer397" in="00:00:00.000" out="00:00:08.080"/>
  <entry producer="producer407" in="00:00:00.000" out="00:00:12.480"/>
  <entry producer="producer426" in="00:00:00.000" out="00:00:12.520"/>
  <entry producer="producer434" in="00:00:00.000" out="00:00:11.600"/>
  <entry producer="producer441" in="00:00:00.000" out="00:00:11.160"/>
  <entry producer="producer446" in="00:00:00.000" out="00:00:10.720"/>
  <entry producer="producer447" in="00:00:00.000" out="00:00:10.280"/>
  <entry producer="producer398" in="00:00:00.000" out="00:00:12.320"/>
  <entry producer="producer408" in="00:00:00.000" out="00:00:05.280"/>
  <entry producer="producer427" in="00:00:00.000" out="00:00:04.960"/>
  <entry producer="producer435" in="00:00:00.000" out="00:00:04.960"/>
  <entry producer="producer399" in="00:00:00.000" out="00:00:12.800"/>
  <entry producer="producer400" in="00:00:00.000" out="00:00:23.880"/>
  <entry producer="producer436" in="00:00:00.000" out="00:00:21.120"/>
  <entry producer="chain250" in="00:00:00.000" out="00:00:19.960"/>
  <entry producer="producer453" in="00:00:00.000" out="00:00:19.680"/>
  <entry producer="producer156" in="00:00:00.000" out="00:00:04.960"/>
  <entry producer="chain336" in="00:00:00.000" out="00:02:45.000"/>
  <entry producer="chain254" in="00:00:00.000" out="02:05:46.480"/>
  <entry producer="producer377" in="00:00:00.000" out="00:00:04.960"/>
  <entry producer="producer411" in="00:00:00.000" out="00:00:21.120"/>
  <entry producer="producer461" in="00:00:00.000" out="00:00:19.680"/>
  <entry producer="producer459" in="00:00:00.000" out="00:00:13.240"/>
  <entry producer="producer484" in="00:00:00.000" out="00:00:19.680"/>
  <entry producer="producer430" in="00:00:00.000" out="00:00:04.960"/>
  <entry producer="producer475" in="00:00:00.000" out="00:00:04.960"/>
  <entry producer="producer485" in="00:00:00.000" out="00:00:19.680"/>
  <entry producer="producer431" in="00:00:00.000" out="00:00:04.960"/>
  <entry producer="producer234" in="00:00:00.000" out="00:00:10.120"/>
  <entry producer="producer378" in="00:00:00.000" out="00:00:10.120"/>
  <entry producer="producer379" in="00:00:00.000" out="00:00:10.120"/>
  <entry producer="producer380" in="00:00:00.000" out="00:00:10.120"/>
  <entry producer="chain259" in="00:00:00.000" out="00:00:25.080"/>
  <entry producer="producer432" in="00:00:00.000" out="00:00:04.960"/>
  <entry producer="producer486" in="00:00:00.000" out="00:00:10.120"/>
  <entry producer="chain260" in="00:00:00.000" out="00:00:26.640"/>
  <entry producer="producer487" in="00:00:00.000" out="00:00:19.680"/>
  <entry producer="producer417" in="00:00:00.000" out="00:00:16.040"/>
  <entry producer="producer476" in="00:00:00.000" out="00:00:07.880"/>
  <entry producer="chain261" in="00:00:00.000" out="00:00:22.160"/>
  <entry producer="producer381" in="00:00:00.000" out="00:00:06.120"/>
  <entry producer="producer418" in="00:00:00.000" out="00:00:07.880"/>
  <entry producer="producer383" in="00:00:00.000" out="00:00:07.720"/>
  <entry producer="producer437" in="00:00:00.000" out="00:00:14.600"/>
  <entry producer="producer489" in="00:00:00.000" out="00:00:19.680"/>
  <entry producer="producer386" in="00:00:00.000" out="00:00:14.400"/>
  <entry producer="chain262" in="00:00:00.000" out="00:22:14.160"/>
  <entry producer="producer490" in="00:00:00.000" out="00:00:19.680"/>
  <entry producer="producer419" in="00:00:00.000" out="00:00:20.480"/>
  <entry producer="producer491" in="00:00:00.000" out="00:00:19.680"/>
  <entry producer="chain264" in="00:00:00.000" out="00:16:09.880"/>
  <entry producer="chain275" in="00:00:00.000" out="00:00:25.440"/>
  <entry producer="producer391" in="00:00:00.000" out="00:00:08.880"/>
  <entry producer="producer403" in="00:00:00.000" out="00:00:06.800"/>
  <entry producer="producer404" in="00:00:00.000" out="00:00:21.640"/>
  <entry producer="producer499" in="00:00:00.000" out="00:00:13.920"/>
  <entry producer="chain276" in="00:00:00.000" out="00:00:12.960"/>
  <entry producer="chain277" in="00:00:00.000" out="00:10:34.880"/>
  <entry producer="producer405" in="00:00:00.000" out="00:00:10.680"/>
  <entry producer="chain278" in="00:00:00.000" out="00:03:52.680"/>
  <entry producer="producer410" in="00:00:00.000" out="00:00:04.960"/>
  <entry producer="chain279" in="00:00:00.000" out="00:02:55.160"/>
  <entry producer="producer412" in="00:00:00.000" out="00:00:05.040"/>
  <entry producer="producer413" in="00:00:00.000" out="00:00:04.960"/>
  <entry producer="chain280" in="00:00:00.000" out="00:13:36.200"/>
  <entry producer="chain281" in="00:00:00.000" out="00:03:21.720"/>
  <entry producer="producer414" in="00:00:00.000" out="00:00:09.680"/>
  <entry producer="chain282" in="00:00:00.000" out="00:00:44.840"/>
  <entry producer="chain283" in="00:00:00.000" out="00:04:06.480"/>
  <entry producer="chain284" in="00:00:00.000" out="01:29:57.600"/>
  <entry producer="producer415" in="00:00:00.000" out="00:00:08.120"/>
  <entry producer="chain288" in="00:00:00.000" out="00:00:49.040"/>
  <entry producer="producer416" in="00:00:00.000" out="00:00:19.920"/>
  <entry producer="producer420" in="00:00:00.000" out="00:00:13.240"/>
  <entry producer="producer466" in="00:00:00.000" out="00:00:13.240"/>
  <entry producer="chain304" in="00:00:00.000" out="00:29:03.960"/>
  <entry producer="producer421" in="00:00:00.000" out="00:00:09.720"/>
  <entry producer="producer526" in="00:00:00.000" out="00:00:19.680"/>
  <entry producer="chain308" in="00:00:00.000" out="00:01:02.400"/>
  <entry producer="producer473" in="00:00:00.000" out="00:00:22.120"/>
  <entry producer="chain305" in="00:00:00.000" out="00:05:00.440"/>
  <entry producer="producer474" in="00:00:00.000" out="00:00:35.320"/>
  <entry producer="producer527" in="00:00:00.000" out="00:00:19.680"/>
  <entry producer="producer528" in="00:00:00.000" out="00:00:19.680"/>
  <entry producer="chain306" in="00:00:00.000" out="00:03:21.360"/>
  <entry producer="producer520" in="00:00:00.000" out="00:00:04.960"/>
  <entry producer="producer512" in="00:00:00.000" out="00:00:05.960"/>
  <entry producer="producer478" in="00:00:00.000" out="00:00:06.200"/>
  <entry producer="chain307" in="00:00:00.000" out="00:01:16.800"/>
  <entry producer="producer428" in="00:00:00.000" out="00:00:12.280"/>
  <entry producer="producer457" in="00:00:00.000" out="00:00:06.800"/>
  <entry producer="producer477" in="00:00:00.000" out="00:00:04.960"/>
  <entry producer="producer494" in="00:00:00.000" out="00:00:13.240"/>
  <entry producer="chain309" in="00:00:00.000" out="00:04:30.000"/>
  <entry producer="chain310" in="00:00:00.000" out="00:01:25.160"/>
  <entry producer="producer458" in="00:00:00.000" out="00:00:07.440"/>
  <entry producer="chain311" in="00:00:00.000" out="00:00:48.720"/>
  <entry producer="producer530" in="00:00:00.000" out="00:00:19.680"/>
  <entry producer="chain312" in="00:00:00.000" out="00:02:48.920"/>
  <entry producer="producer524" in="00:00:00.000" out="00:00:22.720"/>
  <entry producer="producer525" in="00:00:00.000" out="00:00:21.360"/>
  <entry producer="producer521" in="00:00:00.000" out="00:00:38.240"/>
  <entry producer="producer531" in="00:00:00.000" out="00:00:34.880"/>
  <entry producer="producer532" in="00:00:00.000" out="00:00:34.880"/>
  <entry producer="producer495" in="00:00:00.000" out="00:00:43.200"/>
  <entry producer="chain313" in="00:00:00.000" out="00:01:19.640"/>
  <entry producer="chain335" in="00:00:00.000" out="00:02:48.920"/>
  <entry producer="producer579" in="00:00:00.000" out="00:00:20.800"/>
  <entry producer="producer580" in="00:00:00.000" out="00:00:20.000"/>
  <entry producer="producer573" in="00:00:00.000" out="00:00:37.880"/>
  <entry producer="producer585" in="00:00:00.000" out="00:00:04.960"/>
  <entry producer="producer586" in="00:00:00.000" out="00:00:04.960"/>
  <entry producer="producer587" in="00:00:00.000" out="00:00:04.960"/>
  <entry producer="producer536" in="00:00:00.000" out="00:00:37.880"/>
  <entry producer="chain337" in="00:00:00.000" out="00:02:48.920"/>
  <entry producer="producer581" in="00:00:00.000" out="00:00:30.400"/>
  <entry producer="producer582" in="00:00:00.000" out="00:00:21.960"/>
  <entry producer="producer574" in="00:00:00.000" out="00:00:49.880"/>
  <entry producer="producer588" in="00:00:00.000" out="00:00:04.960"/>
  <entry producer="producer589" in="00:00:00.000" out="00:00:04.960"/>
  <entry producer="producer590" in="00:00:00.000" out="00:00:04.960"/>
  <entry producer="producer591" in="00:00:00.000" out="00:00:04.960"/>
  <entry producer="producer537" in="00:00:00.000" out="00:00:49.880"/>
  <entry producer="chain338" in="00:00:00.000" out="00:07:51.200"/>
  <entry producer="producer448" in="00:00:00.000" out="00:00:12.520"/>
  <entry producer="producer514" in="00:00:00.000" out="00:00:24.280"/>
  <entry producer="producer516" in="00:00:00.000" out="00:00:12.400"/>
  <entry producer="producer557" in="00:00:00.000" out="00:00:24.280"/>
  <entry producer="producer539" in="00:00:00.000" out="00:00:12.280"/>
  <entry producer="producer583" in="00:00:00.000" out="00:00:24.280"/>
  <entry producer="producer460" in="00:00:00.000" out="00:00:04.960"/>
  <entry producer="producer462" in="00:00:00.000" out="00:00:04.960"/>
  <entry producer="producer463" in="00:00:00.000" out="00:00:04.960"/>
  <entry producer="producer464" in="00:00:00.000" out="00:00:04.960"/>
  <entry producer="producer465" in="00:00:00.000" out="00:00:04.960"/>
  <entry producer="producer467" in="00:00:00.000" out="00:00:04.960"/>
  <entry producer="producer468" in="00:00:00.000" out="00:00:04.960"/>
  <entry producer="producer469" in="00:00:00.000" out="00:00:04.960"/>
  <entry producer="producer470" in="00:00:00.000" out="00:00:08.720"/>
  <entry producer="chain340" in="00:00:00.000" out="00:01:38.360"/>
  <entry producer="producer558" in="00:00:00.000" out="00:00:05.480"/>
  <entry producer="chain341" in="00:00:00.000" out="00:07:25.160"/>
  <entry producer="producer471" in="00:00:00.000" out="00:00:10.520"/>
  <entry producer="producer559" in="00:00:00.000" out="00:00:16.720"/>
  <entry producer="producer472" in="00:00:00.000" out="00:00:14.320"/>
  <entry producer="chain342" in="00:00:00.000" out="00:00:52.360"/>
  <entry producer="producer479" in="00:00:00.000" out="00:00:06.320"/>
  <entry producer="producer560" in="00:00:00.000" out="00:00:08.600"/>
  <entry producer="producer515" in="00:00:00.000" out="00:00:08.480"/>
  <entry producer="producer592" in="00:00:00.000" out="00:00:04.960"/>
  <entry producer="chain343" in="00:00:00.000" out="00:00:18.640"/>
  <entry producer="chain344" in="00:00:00.000" out="00:59:11.520"/>
  <entry producer="producer480" in="00:00:00.000" out="00:00:07.000"/>
  <entry producer="producer481" in="00:00:00.000" out="00:00:05.520"/>
  <entry producer="chain345" in="00:00:00.000" out="00:02:10.560"/>
  <entry producer="producer482" in="00:00:00.000" out="00:00:11.320"/>
  <entry producer="producer593" in="00:00:00.000" out="00:00:19.680"/>
  <entry producer="chain346" in="00:00:00.000" out="00:02:48.920"/>
  <entry producer="producer584" in="00:00:00.000" out="00:00:43.040"/>
  <entry producer="producer575" in="00:00:00.000" out="00:00:43.040"/>
  <entry producer="producer538" in="00:00:00.000" out="00:00:43.040"/>
  <entry producer="chain347" in="00:00:00.000" out="00:02:54.120"/>
  <entry producer="producer483" in="00:00:00.000" out="00:00:13.720"/>
  <entry producer="producer488" in="00:00:00.000" out="00:00:04.960"/>
  <entry producer="producer517" in="00:00:00.000" out="00:00:10.520"/>
  <entry producer="producer540" in="00:00:00.000" out="00:00:13.240"/>
  <entry producer="producer563" in="00:00:00.000" out="00:00:13.240"/>
  <entry producer="chain348" in="00:00:00.000" out="00:02:55.000"/>
  <entry producer="producer492" in="00:00:00.000" out="00:00:08.000"/>
  <entry producer="chain349" in="00:00:00.000" out="00:07:09.920"/>
  <entry producer="producer493" in="00:00:00.000" out="00:00:06.440"/>
  <entry producer="chain350" in="00:00:00.000" out="00:01:47.600"/>
  <entry producer="producer496" in="00:00:00.000" out="00:00:14.560"/>
  <entry producer="chain351" in="00:00:00.000" out="00:00:05.360"/>
  <entry producer="producer497" in="00:00:00.000" out="00:00:05.120"/>
  <entry producer="producer498" in="00:00:00.000" out="00:00:17.240"/>
  <entry producer="chain352" in="00:00:00.000" out="00:00:14.000"/>
  <entry producer="producer595" in="00:00:00.000" out="00:00:19.680"/>
  <entry producer="producer596" in="00:00:00.000" out="00:00:19.680"/>
  <entry producer="producer597" in="00:00:00.000" out="00:00:19.680"/>
  <entry producer="producer598" in="00:00:00.000" out="00:00:19.680"/>
  <entry producer="producer599" in="00:00:00.000" out="00:00:19.680"/>
  <entry producer="chain353" in="00:00:00.000" out="01:23:55.840"/>
  <entry producer="producer601" in="00:00:00.000" out="00:00:19.680"/>
  <entry producer="producer500" in="00:00:00.000" out="00:00:27.600"/>
  <entry producer="chain355" in="00:00:00.000" out="00:01:58.280"/>
  <entry producer="producer519" in="00:00:00.000" out="00:00:18.760"/>
  <entry producer="producer543" in="00:00:00.000" out="00:00:18.760"/>
  <entry producer="producer569" in="00:00:00.000" out="00:00:18.160"/>
  <entry producer="producer604" in="00:00:00.000" out="00:00:18.800"/>
  <entry producer="producer607" in="00:00:00.000" out="00:00:18.160"/>
  <entry producer="producer608" in="00:00:00.000" out="00:00:18.360"/>
  <entry producer="producer609" in="00:00:00.000" out="00:00:18.400"/>
  <entry producer="producer610" in="00:00:00.000" out="00:00:17.800"/>
  <entry producer="producer611" in="00:00:00.000" out="00:00:18.800"/>
  <entry producer="producer612" in="00:00:00.000" out="00:00:18.200"/>
  <entry producer="producer613" in="00:00:00.000" out="00:00:18.480"/>
  <entry producer="producer544" in="00:00:00.000" out="00:00:05.720"/>
  <entry producer="chain361" in="00:00:00.000" out="00:11:30.400"/>
  <entry producer="chain360" in="00:00:00.000" out="00:04:40.600"/>
  <entry producer="producer501" in="00:00:00.000" out="00:00:05.200"/>
  <entry producer="producer502" in="00:00:00.000" out="00:00:09.840"/>
  <entry producer="chain362" in="00:00:00.000" out="00:01:00.960"/>
  <entry producer="producer617" in="00:00:00.000" out="00:00:19.680"/>
  <entry producer="producer503" in="00:00:00.000" out="00:00:12.960"/>
  <entry producer="producer126" in="00:00:00.000" out="00:00:08.640"/>
  <entry producer="producer504" in="00:00:00.000" out="00:00:09.200"/>
  <entry producer="chain376" in="00:00:00.000" out="00:00:08.160"/>
  <entry producer="chain377" in="00:00:00.000" out="00:00:14.760"/>
  <entry producer="chain378" in="00:00:00.000" out="00:49:38.320"/>
  <entry producer="chain379" in="00:00:00.000" out="00:02:48.920"/>
  <entry producer="producer632" in="00:00:00.000" out="00:00:16.480"/>
  <entry producer="producer633" in="00:00:00.000" out="00:00:13.440"/>
  <entry producer="producer629" in="00:00:00.000" out="00:00:29.960"/>
  <entry producer="producer566" in="00:00:00.000" out="00:00:30.120"/>
  <entry producer="producer505" in="00:00:00.000" out="00:00:07.920"/>
  <entry producer="chain380" in="00:00:00.000" out="00:42:46.360"/>
  <entry producer="chain381" in="00:00:00.000" out="00:01:59.440"/>
  <entry producer="producer506" in="00:00:00.000" out="00:00:09.200"/>
  <entry producer="chain382" in="00:00:00.000" out="00:02:48.920"/>
  <entry producer="producer507" in="00:00:00.000" out="00:00:04.960"/>
  <entry producer="producer508" in="00:00:00.000" out="00:00:04.960"/>
  <entry producer="producer509" in="00:00:00.000" out="00:00:04.960"/>
  <entry producer="producer510" in="00:00:00.000" out="00:00:04.960"/>
  <entry producer="producer511" in="00:00:00.000" out="00:00:04.960"/>
  <entry producer="producer513" in="00:00:00.000" out="00:00:04.960"/>
  <entry producer="producer518" in="00:00:00.000" out="00:00:04.960"/>
  <entry producer="producer522" in="00:00:00.000" out="00:00:04.960"/>
  <entry producer="producer523" in="00:00:00.000" out="00:00:04.960"/>
  <entry producer="chain393" in="00:00:00.000" out="00:00:06.360"/>
  <entry producer="chain394" in="00:00:00.000" out="00:56:37.840"/>
  <entry producer="producer529" in="00:00:00.000" out="00:00:07.080"/>
  <entry producer="producer640" in="00:00:00.000" out="00:00:19.680"/>
  <entry producer="producer641" in="00:00:00.000" out="00:00:19.680"/>
  <entry producer="chain395" in="00:00:00.000" out="00:02:48.920"/>
  <entry producer="chain396" in="00:00:00.000" out="00:02:48.920"/>
  <entry producer="chain397" in="00:00:00.000" out="00:03:54.400"/>
  <entry producer="chain407" in="00:00:00.000" out="00:04:00.400"/>
  <entry producer="producer655" in="00:00:00.000" out="00:00:27.360"/>
  <entry producer="producer650" in="00:00:00.000" out="00:00:49.200"/>
  <entry producer="producer631" in="00:00:00.000" out="00:00:27.360"/>
  <entry producer="producer656" in="00:00:00.000" out="00:00:20.400"/>
  <entry producer="producer657" in="00:00:00.000" out="00:00:28.520"/>
  <entry producer="producer658" in="00:00:00.000" out="00:00:13.360"/>
  <entry producer="producer651" in="00:00:00.000" out="00:00:38.520"/>
  <entry producer="producer634" in="00:00:00.000" out="00:00:38.520"/>
  <entry producer="chain408" in="00:00:00.000" out="00:07:40.680"/>
  <entry producer="producer533" in="00:00:00.000" out="00:00:23.680"/>
  <entry producer="producer664" in="00:00:00.000" out="00:00:19.680"/>
  <entry producer="producer665" in="00:00:00.000" out="00:00:19.680"/>
  <entry producer="producer666" in="00:00:00.000" out="00:00:19.680"/>
  <entry producer="producer667" in="00:00:00.000" out="00:00:19.680"/>
  <entry producer="producer653" in="00:00:00.000" out="00:00:21.520"/>
  <entry producer="producer647" in="00:00:00.000" out="00:00:21.520"/>
  <entry producer="producer668" in="00:00:00.000" out="00:00:04.960"/>
  <entry producer="producer669" in="00:00:00.000" out="00:00:04.960"/>
  <entry producer="producer670" in="00:00:00.000" out="00:00:04.960"/>
  <entry producer="producer671" in="00:00:00.000" out="00:00:04.960"/>
  <entry producer="producer672" in="00:00:00.000" out="00:00:04.960"/>
  <entry producer="producer673" in="00:00:00.000" out="00:00:04.960"/>
  <entry producer="producer600" in="00:00:00.000" out="00:00:21.520"/>
  <entry producer="chain409" in="00:00:00.000" out="00:02:48.920"/>
  <entry producer="chain410" in="00:00:00.000" out="00:03:13.080"/>
  <entry producer="chain411" in="00:00:00.000" out="00:05:23.080"/>
  <entry producer="producer534" in="00:00:00.000" out="00:00:13.240"/>
  <entry producer="producer535" in="00:00:00.000" out="00:00:13.240"/>
  <entry producer="producer541" in="00:00:00.000" out="00:00:13.240"/>
  <entry producer="producer542" in="00:00:00.000" out="00:00:13.240"/>
  <entry producer="producer545" in="00:00:00.000" out="00:00:13.240"/>
  <entry producer="chain418" in="00:00:00.000" out="01:22:01.600"/>
  <entry producer="producer546" in="00:00:00.000" out="00:00:06.840"/>
  <entry producer="chain419" in="00:00:00.000" out="00:02:48.920"/>
  <entry producer="producer675" in="00:00:00.000" out="00:00:51.080"/>
  <entry producer="producer676" in="00:00:00.000" out="00:00:36.080"/>
  <entry producer="producer677" in="00:00:00.000" out="00:00:19.560"/>
  <entry producer="producer678" in="00:00:00.000" out="00:00:14.000"/>
  <entry producer="producer679" in="00:00:00.000" out="00:00:08.440"/>
  <entry producer="producer661" in="00:00:00.000" out="00:01:14.560"/>
  <entry producer="producer614" in="00:00:00.000" out="00:01:14.560"/>
  <entry producer="producer570" in="00:00:00.000" out="00:00:17.200"/>
  <entry producer="producer547" in="00:00:00.000" out="00:00:21.760"/>
  <entry producer="chain420" in="00:00:00.000" out="00:00:22.120"/>
  <entry producer="producer571" in="00:00:00.000" out="00:00:04.960"/>
  <entry producer="producer615" in="00:00:00.000" out="00:00:04.960"/>
  <entry producer="chain421" in="00:00:00.000" out="00:00:27.480"/>
  <entry producer="chain427" in="00:00:00.000" out="00:19:50.960"/>
  <entry producer="producer548" in="00:00:00.000" out="00:00:04.960"/>
  <entry producer="producer689" in="00:00:00.000" out="00:00:23.640"/>
  <entry producer="producer686" in="00:00:00.000" out="00:00:23.640"/>
  <entry producer="producer693" in="00:00:00.000" out="00:00:04.960"/>
  <entry producer="producer694" in="00:00:00.000" out="00:00:04.960"/>
  <entry producer="producer649" in="00:00:00.000" out="00:00:23.640"/>
  <entry producer="chain428" in="00:00:00.000" out="00:02:48.920"/>
  <entry producer="producer549" in="00:00:00.000" out="00:00:27.040"/>
  <entry producer="producer695" in="00:00:00.000" out="00:00:19.680"/>
  <entry producer="producer620" in="00:00:00.000" out="00:00:04.960"/>
  <entry producer="tractor19" in="00:00:00.000" out="02:19:16.960"/>
  <entry producer="producer730" in="00:00:00.000" out="00:00:04.960"/>
  <entry producer="producer562" in="00:00:00.000" out="00:00:04.960"/>
  <entry producer="chain463" in="00:00:00.000" out="00:02:43.240"/>
  <entry producer="producer564" in="00:00:00.000" out="00:00:04.960"/>
  <entry producer="chain464" in="00:00:00.000" out="00:17:00.360"/>
  <entry producer="producer565" in="00:00:00.000" out="00:00:04.960"/>
  <entry producer="producer567" in="00:00:00.000" out="00:00:04.960"/>
  <entry producer="producer646" in="00:00:00.000" out="00:00:04.960"/>
  <entry producer="producer681" in="00:00:00.000" out="00:00:04.960"/>
  <entry producer="chain465" in="00:00:00.000" out="00:02:48.920"/>
  <entry producer="producer568" in="00:00:00.000" out="00:00:13.240"/>
  <entry producer="producer572" in="00:00:00.000" out="00:00:13.240"/>
  <entry producer="producer576" in="00:00:00.000" out="00:00:13.240"/>
  <entry producer="producer577" in="00:00:00.000" out="00:00:13.240"/>
  <entry producer="chain466" in="00:00:00.000" out="00:02:42.040"/>
  <entry producer="chain467" in="00:00:00.000" out="00:02:48.920"/>
  <entry producer="producer578" in="00:00:00.000" out="00:00:13.240"/>
  <entry producer="chain468" in="00:00:00.000" out="00:09:00.520"/>
  <entry producer="producer594" in="00:00:00.000" out="00:00:04.960"/>
  <entry producer="producer602" in="00:00:00.000" out="00:00:04.960"/>
  <entry producer="chain469" in="00:00:00.000" out="00:01:48.800"/>
  <entry producer="producer603" in="00:00:00.000" out="00:00:04.960"/>
  <entry producer="chain470" in="00:00:00.000" out="00:01:17.280"/>
  <entry producer="producer718" in="00:00:00.000" out="00:01:23.720"/>
  <entry producer="producer682" in="00:00:00.000" out="00:00:06.120"/>
  <entry producer="producer648" in="00:00:00.000" out="00:00:04.960"/>
  <entry producer="chain471" in="00:00:00.000" out="00:03:58.920"/>
  <entry producer="producer269" in="00:00:00.000" out="00:00:04.960"/>
  <entry producer="producer605" in="00:00:00.000" out="00:00:04.960"/>
  <entry producer="producer272" in="00:00:00.000" out="00:00:04.960"/>
  <entry producer="producer273" in="00:00:00.000" out="00:00:04.960"/>
  <entry producer="producer606" in="00:00:00.000" out="00:00:04.960"/>
  <entry producer="producer274" in="00:00:00.000" out="00:00:04.960"/>
  <entry producer="producer278" in="00:00:00.000" out="00:00:04.960"/>
  <entry producer="producer616" in="00:00:00.000" out="00:00:04.960"/>
  <entry producer="producer618" in="00:00:00.000" out="00:00:04.960"/>
  <entry producer="producer368" in="00:00:00.000" out="00:00:04.960"/>
  <entry producer="producer619" in="00:00:00.000" out="00:00:04.960"/>
  <entry producer="producer396" in="00:00:00.000" out="00:00:04.960"/>
  <entry producer="chain472" in="00:00:00.000" out="00:11:09.720"/>
  <entry producer="chain473" in="00:00:00.000" out="00:00:23.400"/>
  <entry producer="chain474" in="00:00:00.000" out="00:10:28.040"/>
  <entry producer="chain475" in="00:00:00.000" out="00:19:00.200"/>
  <entry producer="chain476" in="00:00:00.000" out="00:00:26.080"/>
  <entry producer="chain477" in="00:00:00.000" out="00:00:10.440"/>
  <entry producer="chain478" in="00:00:00.000" out="00:00:38.440"/>
  <entry producer="chain479" in="00:00:00.000" out="00:00:13.600"/>
  <entry producer="chain480" in="00:00:00.000" out="00:00:04.480"/>
  <entry producer="chain481" in="00:00:00.000" out="00:00:53.760"/>
  <entry producer="chain482" in="00:00:00.000" out="00:00:55.840"/>
  <entry producer="chain483" in="00:00:00.000" out="00:01:09.480"/>
  <entry producer="chain484" in="00:00:00.000" out="00:00:04.360"/>
  <entry producer="chain485" in="00:00:00.000" out="00:00:50.040"/>
  <entry producer="chain486" in="00:00:00.000" out="00:01:17.000"/>
  <entry producer="chain487" in="00:00:00.000" out="00:11:04.760"/>
  <entry producer="producer621" in="00:00:00.000" out="00:00:04.960"/>
  <entry producer="chain488" in="00:00:00.000" out="00:00:09.240"/>
  <entry producer="producer622" in="00:00:00.000" out="00:00:04.960"/>
  <entry producer="chain489" in="00:00:00.000" out="00:02:48.160"/>
  <entry producer="producer731" in="00:00:00.000" out="00:00:04.960"/>
  <entry producer="producer623" in="00:00:00.000" out="00:00:04.960"/>
  <entry producer="producer732" in="00:00:00.000" out="00:00:39.440"/>
  <entry producer="chain490" in="00:00:00.000" out="00:02:48.920"/>
  <entry producer="producer723" in="00:00:00.000" out="00:00:04.960"/>
  <entry producer="producer724" in="00:00:00.000" out="00:00:04.960"/>
  <entry producer="producer719" in="00:00:00.000" out="00:00:38.920"/>
  <entry producer="producer683" in="00:00:00.000" out="00:00:36.360"/>
 </playlist>
 <tractor id="tractor20" in="00:00:00.000" out="02:21:19.440">
  <property name="kdenlive:projectTractor">1</property>
  <track producer="tractor19" in="00:00:00.000" out="02:21:19.440"/>
 </tractor>
</mlt>
