<?xml version='1.0' encoding='utf-8'?>
<mlt LC_NUMERIC="C" producer="main_bin" version="7.14.0" root="/home/liquidzulu/Documents/youtube-scripts/shorts/fee/apollo-vs-dionysus">
 <profile frame_rate_num="25" sample_aspect_num="1" display_aspect_den="16" colorspace="709" progressive="1" description="1080 vertical" display_aspect_num="9" frame_rate_den="1" width="1080" height="1920" sample_aspect_den="1"/>
 <producer id="producer0" in="00:00:00.000" out="00:20:44.640">
  <property name="length">2147483647</property>
  <property name="eof">continue</property>
  <property name="resource">black</property>
  <property name="aspect_ratio">1</property>
  <property name="mlt_service">color</property>
  <property name="kdenlive:playlistid">black_track</property>
  <property name="mlt_image_format">rgba</property>
  <property name="set.test_audio">0</property>
 </producer>
 <chain id="chain0" out="00:00:31.800">
  <property name="length">796</property>
  <property name="eof">pause</property>
  <property name="resource">/home/liquidzulu/Music/sfx/9 pistol cocking sound effects for free [ySuT6WGdUYc]0001.wav</property>
  <property name="mlt_service">avformat-novalidate</property>
  <property name="seekable">1</property>
  <property name="audio_index">0</property>
  <property name="video_index">-1</property>
  <property name="mute_on_pause">0</property>
  <property name="kdenlive:clipname"/>
  <property name="kdenlive:clip_type">1</property>
  <property name="kdenlive:folderid">-1</property>
  <property name="kdenlive:id">21</property>
  <property name="kdenlive:file_size">6114546</property>
  <property name="kdenlive:file_hash">1ffa09360cbab9fd470cc452f8ea6e7b</property>
  <property name="kdenlive:audio_max0">209</property>
  <property name="meta.media.nb_streams">1</property>
  <property name="meta.media.0.stream.type">audio</property>
  <property name="meta.media.0.codec.sample_fmt">s16</property>
  <property name="meta.media.0.codec.sample_rate">48000</property>
  <property name="meta.media.0.codec.channels">2</property>
  <property name="meta.media.0.codec.name">pcm_s16le</property>
  <property name="meta.media.0.codec.long_name">PCM signed 16-bit little-endian</property>
  <property name="meta.media.0.codec.bit_rate">1536000</property>
  <property name="meta.attr.encoder.markup">Lavf59.27.100</property>
  <property name="xml">was here</property>
  <property name="set.test_audio">0</property>
  <property name="set.test_image">1</property>
 </chain>
 <chain id="chain1" out="00:03:20.480">
  <property name="length">5013</property>
  <property name="eof">pause</property>
  <property name="resource">/home/liquidzulu/Music/classical/Mozart - Lacrimosa [k1-TrAvp_xs].mp3</property>
  <property name="mlt_service">avformat-novalidate</property>
  <property name="seekable">1</property>
  <property name="audio_index">0</property>
  <property name="video_index">-1</property>
  <property name="mute_on_pause">0</property>
  <property name="kdenlive:clipname"/>
  <property name="kdenlive:clip_type">1</property>
  <property name="kdenlive:folderid">-1</property>
  <property name="kdenlive:id">6</property>
  <property name="kdenlive:file_size">2677917</property>
  <property name="kdenlive:file_hash">0cca305e094ddefe30689862bdce6576</property>
  <property name="kdenlive:audio_max0">226</property>
  <property name="meta.media.nb_streams">1</property>
  <property name="meta.media.0.stream.type">audio</property>
  <property name="meta.media.0.codec.sample_fmt">fltp</property>
  <property name="meta.media.0.codec.sample_rate">48000</property>
  <property name="meta.media.0.codec.channels">2</property>
  <property name="meta.media.0.codec.name">mp3float</property>
  <property name="meta.media.0.codec.long_name">MP3 (MPEG audio layer 3)</property>
  <property name="meta.media.0.codec.bit_rate">106837</property>
  <property name="meta.attr.0.stream.encoder.markup">Lavc59.37</property>
  <property name="meta.attr.encoder.markup">Lavf59.27.100</property>
  <property name="xml">was here</property>
  <property name="set.test_audio">0</property>
  <property name="set.test_image">1</property>
 </chain>
 <playlist id="playlist0">
  <blank length="00:00:00.400"/>
  <entry producer="chain0" in="00:00:19.600" out="00:00:20.160">
   <property name="kdenlive:id">21</property>
  </entry>
  <blank length="00:00:17.680"/>
  <entry producer="chain1" in="00:00:37.360" out="00:01:03.280">
   <property name="kdenlive:id">6</property>
   <property name="kdenlive:activeeffect">1</property>
   <filter id="filter0" in="00:00:37.360" out="00:00:42.160">
    <property name="window">75</property>
    <property name="max_gain">20dB</property>
    <property name="mlt_service">volume</property>
    <property name="kdenlive_id">fadein</property>
    <property name="gain">0</property>
    <property name="end">1</property>
    <property name="kdenlive:collapsed">0</property>
   </filter>
   <filter id="filter1">
    <property name="window">75</property>
    <property name="max_gain">20dB</property>
    <property name="level">00:00:37.360=-18</property>
    <property name="mlt_service">volume</property>
    <property name="kdenlive_id">volume</property>
    <property name="kdenlive:collapsed">0</property>
   </filter>
  </entry>
 </playlist>
 <playlist id="playlist1"/>
 <tractor id="tractor0" in="00:00:00.000" out="00:00:44.600">
  <property name="kdenlive:audio_track">1</property>
  <property name="kdenlive:trackheight">67</property>
  <property name="kdenlive:timeline_active">1</property>
  <track hide="video" producer="playlist0"/>
  <track hide="video" producer="playlist1"/>
  <filter id="filter2">
   <property name="window">75</property>
   <property name="max_gain">20dB</property>
   <property name="mlt_service">volume</property>
   <property name="internal_added">237</property>
   <property name="disable">1</property>
  </filter>
  <filter id="filter3">
   <property name="channel">-1</property>
   <property name="mlt_service">panner</property>
   <property name="internal_added">237</property>
   <property name="start">0.5</property>
   <property name="disable">1</property>
  </filter>
  <filter id="filter4">
   <property name="iec_scale">0</property>
   <property name="mlt_service">audiolevel</property>
   <property name="dbpeak">1</property>
   <property name="disable">1</property>
  </filter>
 </tractor>
 <chain id="chain2" out="00:03:20.480">
  <property name="length">5013</property>
  <property name="eof">pause</property>
  <property name="resource">/home/liquidzulu/Music/classical/Mozart - Lacrimosa [k1-TrAvp_xs].mp3</property>
  <property name="mlt_service">avformat-novalidate</property>
  <property name="seekable">1</property>
  <property name="audio_index">0</property>
  <property name="video_index">-1</property>
  <property name="mute_on_pause">0</property>
  <property name="kdenlive:clipname"/>
  <property name="kdenlive:clip_type">1</property>
  <property name="kdenlive:folderid">-1</property>
  <property name="kdenlive:id">6</property>
  <property name="kdenlive:file_size">2677917</property>
  <property name="kdenlive:file_hash">0cca305e094ddefe30689862bdce6576</property>
  <property name="kdenlive:audio_max0">226</property>
  <property name="meta.media.nb_streams">1</property>
  <property name="meta.media.0.stream.type">audio</property>
  <property name="meta.media.0.codec.sample_fmt">fltp</property>
  <property name="meta.media.0.codec.sample_rate">48000</property>
  <property name="meta.media.0.codec.channels">2</property>
  <property name="meta.media.0.codec.name">mp3float</property>
  <property name="meta.media.0.codec.long_name">MP3 (MPEG audio layer 3)</property>
  <property name="meta.media.0.codec.bit_rate">106837</property>
  <property name="meta.attr.0.stream.encoder.markup">Lavc59.37</property>
  <property name="meta.attr.encoder.markup">Lavf59.27.100</property>
  <property name="xml">was here</property>
  <property name="set.test_audio">0</property>
  <property name="set.test_image">1</property>
 </chain>
 <playlist id="playlist2">
  <property name="kdenlive:audio_track">1</property>
  <entry producer="chain2" in="00:01:03.320" out="00:01:27.200">
   <property name="kdenlive:id">6</property>
   <filter id="filter5" in="00:01:22.200" out="00:01:27.240">
    <property name="window">75</property>
    <property name="max_gain">20dB</property>
    <property name="mlt_service">volume</property>
    <property name="kdenlive_id">fadeout</property>
    <property name="gain">1</property>
    <property name="end">0</property>
   </filter>
   <filter id="filter6">
    <property name="window">75</property>
    <property name="max_gain">20dB</property>
    <property name="level">00:01:03.320=-18</property>
    <property name="mlt_service">volume</property>
    <property name="kdenlive_id">volume</property>
   </filter>
  </entry>
 </playlist>
 <playlist id="playlist3">
  <property name="kdenlive:audio_track">1</property>
 </playlist>
 <tractor id="tractor1" in="00:00:00.000" out="00:00:23.880">
  <property name="kdenlive:audio_track">1</property>
  <property name="kdenlive:trackheight">67</property>
  <property name="kdenlive:timeline_active">1</property>
  <property name="kdenlive:collapsed">0</property>
  <property name="kdenlive:thumbs_format"/>
  <property name="kdenlive:audio_rec"/>
  <track hide="video" producer="playlist2"/>
  <track hide="video" producer="playlist3"/>
  <filter id="filter7">
   <property name="window">75</property>
   <property name="max_gain">20dB</property>
   <property name="mlt_service">volume</property>
   <property name="internal_added">237</property>
   <property name="disable">1</property>
  </filter>
  <filter id="filter8">
   <property name="channel">-1</property>
   <property name="mlt_service">panner</property>
   <property name="internal_added">237</property>
   <property name="start">0.5</property>
   <property name="disable">1</property>
  </filter>
  <filter id="filter9">
   <property name="iec_scale">0</property>
   <property name="mlt_service">audiolevel</property>
   <property name="dbpeak">1</property>
   <property name="disable">1</property>
  </filter>
 </tractor>
 <chain id="chain3" out="00:00:44.600">
  <property name="length">1116</property>
  <property name="eof">pause</property>
  <property name="resource">proc.mp3</property>
  <property name="mlt_service">avformat-novalidate</property>
  <property name="seekable">1</property>
  <property name="audio_index">0</property>
  <property name="video_index">-1</property>
  <property name="mute_on_pause">0</property>
  <property name="kdenlive:clipname"/>
  <property name="kdenlive:clip_type">1</property>
  <property name="kdenlive:folderid">-1</property>
  <property name="kdenlive:id">4</property>
  <property name="kdenlive:file_size">1071494</property>
  <property name="kdenlive:file_hash">a815c1930cf25aa6d6dc00b4ce2c0ed5</property>
  <property name="kdenlive:audio_max0">192</property>
  <property name="meta.media.nb_streams">1</property>
  <property name="meta.media.0.stream.type">audio</property>
  <property name="meta.media.0.codec.sample_fmt">fltp</property>
  <property name="meta.media.0.codec.sample_rate">44100</property>
  <property name="meta.media.0.codec.channels">2</property>
  <property name="meta.media.0.codec.name">mp3float</property>
  <property name="meta.media.0.codec.long_name">MP3 (MPEG audio layer 3)</property>
  <property name="meta.media.0.codec.bit_rate">192000</property>
  <property name="meta.attr.encoded_by.markup">LAME in FL Studio 21</property>
  <property name="meta.attr.date.markup">2024</property>
  <property name="xml">was here</property>
  <property name="set.test_audio">0</property>
  <property name="set.test_image">1</property>
 </chain>
 <playlist id="playlist4">
  <property name="kdenlive:audio_track">1</property>
  <entry producer="chain3" in="00:00:00.000" out="00:00:44.600">
   <property name="kdenlive:id">4</property>
  </entry>
 </playlist>
 <playlist id="playlist5">
  <property name="kdenlive:audio_track">1</property>
 </playlist>
 <tractor id="tractor2" in="00:00:00.000" out="00:00:44.600">
  <property name="kdenlive:audio_track">1</property>
  <property name="kdenlive:trackheight">67</property>
  <property name="kdenlive:timeline_active">1</property>
  <property name="kdenlive:collapsed">0</property>
  <property name="kdenlive:thumbs_format"/>
  <property name="kdenlive:audio_rec"/>
  <track hide="video" producer="playlist4"/>
  <track hide="video" producer="playlist5"/>
  <filter id="filter10">
   <property name="window">75</property>
   <property name="max_gain">20dB</property>
   <property name="mlt_service">volume</property>
   <property name="internal_added">237</property>
   <property name="disable">1</property>
  </filter>
  <filter id="filter11">
   <property name="channel">-1</property>
   <property name="mlt_service">panner</property>
   <property name="internal_added">237</property>
   <property name="start">0.5</property>
   <property name="disable">1</property>
  </filter>
  <filter id="filter12">
   <property name="iec_scale">0</property>
   <property name="mlt_service">audiolevel</property>
   <property name="dbpeak">1</property>
   <property name="disable">1</property>
  </filter>
 </tractor>
 <chain id="chain4" out="00:06:10.840">
  <property name="length">9272</property>
  <property name="eof">pause</property>
  <property name="resource">Bloody Clashes As Trump Protesters, Supporters Exchange Blows At Berkeley Rally [aeudb1mf-Po].webm</property>
  <property name="mlt_service">avformat-novalidate</property>
  <property name="seekable">1</property>
  <property name="format">3</property>
  <property name="audio_index">-1</property>
  <property name="video_index">0</property>
  <property name="mute_on_pause">0</property>
  <property name="kdenlive:clipname"/>
  <property name="kdenlive:clip_type">0</property>
  <property name="kdenlive:folderid">-1</property>
  <property name="kdenlive:id">7</property>
  <property name="kdenlive:file_size">50611281</property>
  <property name="kdenlive:file_hash">27be99ba89dc596413e23454884bb998</property>
  <property name="kdenlive:audio_max1">189</property>
  <property name="kdenlive:active_streams">-1</property>
  <property name="set.test_audio">1</property>
  <property name="meta.media.nb_streams">2</property>
  <property name="meta.media.0.stream.type">video</property>
  <property name="meta.media.0.stream.frame_rate">29.97</property>
  <property name="meta.media.0.stream.sample_aspect_ratio">1</property>
  <property name="meta.media.0.codec.width">1280</property>
  <property name="meta.media.0.codec.height">720</property>
  <property name="meta.media.0.codec.rotate">0</property>
  <property name="meta.media.0.codec.pix_fmt">yuv420p</property>
  <property name="meta.media.0.codec.sample_aspect_ratio">0</property>
  <property name="meta.media.0.codec.colorspace">709</property>
  <property name="meta.media.0.codec.color_trc">1</property>
  <property name="meta.media.0.codec.name">vp9</property>
  <property name="meta.media.0.codec.long_name">Google VP9</property>
  <property name="meta.media.0.codec.bit_rate">0</property>
  <property name="meta.attr.0.stream.language.markup">eng</property>
  <property name="meta.attr.0.stream.DURATION.markup">00:06:10.803000000</property>
  <property name="meta.media.1.stream.type">audio</property>
  <property name="meta.media.1.codec.sample_fmt">fltp</property>
  <property name="meta.media.1.codec.sample_rate">48000</property>
  <property name="meta.media.1.codec.channels">2</property>
  <property name="meta.media.1.codec.name">opus</property>
  <property name="meta.media.1.codec.long_name">Opus</property>
  <property name="meta.media.1.codec.bit_rate">0</property>
  <property name="meta.attr.1.stream.language.markup">eng</property>
  <property name="meta.attr.1.stream.DURATION.markup">00:06:10.881000000</property>
  <property name="meta.attr.ENCODER.markup">Lavf59.27.100</property>
  <property name="meta.media.sample_aspect_num">1</property>
  <property name="meta.media.sample_aspect_den">1</property>
  <property name="meta.media.frame_rate_num">30000</property>
  <property name="meta.media.frame_rate_den">1001</property>
  <property name="meta.media.colorspace">709</property>
  <property name="meta.media.color_trc">1</property>
  <property name="meta.media.has_b_frames">0</property>
  <property name="meta.media.width">1280</property>
  <property name="meta.media.height">720</property>
  <property name="meta.media.color_range">mpeg</property>
  <property name="xml">was here</property>
  <property name="meta.media.top_field_first">0</property>
  <property name="meta.media.progressive">1</property>
  <property name="set.test_image">0</property>
 </chain>
 <producer id="producer1" in="00:00:00.000" out="00:00:04.960">
  <property name="length">00:00:05.000</property>
  <property name="eof">pause</property>
  <property name="resource">temple interior.jpg</property>
  <property name="ttl">25</property>
  <property name="aspect_ratio">1</property>
  <property name="progressive">1</property>
  <property name="seekable">1</property>
  <property name="format">1</property>
  <property name="meta.media.width">735</property>
  <property name="meta.media.height">733</property>
  <property name="mlt_service">qimage</property>
  <property name="kdenlive:clipname"/>
  <property name="kdenlive:duration">00:00:05:00</property>
  <property name="kdenlive:folderid">10</property>
  <property name="kdenlive:id">9</property>
  <property name="kdenlive:clip_type">2</property>
  <property name="kdenlive:file_size">103948</property>
  <property name="kdenlive:file_hash">eb38c69b9aa957d0c3098cecad76a573</property>
 </producer>
 <chain id="chain5" out="00:01:02.560">
  <property name="length">1565</property>
  <property name="eof">pause</property>
  <property name="resource">Jesse Floats on Heroin - Breaking Bad [cwM3ST1N0uU].webm</property>
  <property name="mlt_service">avformat-novalidate</property>
  <property name="seekable">1</property>
  <property name="format">3</property>
  <property name="audio_index">-1</property>
  <property name="video_index">0</property>
  <property name="mute_on_pause">0</property>
  <property name="kdenlive:clipname"/>
  <property name="kdenlive:clip_type">0</property>
  <property name="kdenlive:folderid">-1</property>
  <property name="kdenlive:id">27</property>
  <property name="kdenlive:file_size">4099742</property>
  <property name="kdenlive:file_hash">6642aa0f5684331fe305ea49c14b535d</property>
  <property name="kdenlive:audio_max1">81</property>
  <property name="kdenlive:active_streams">-1</property>
  <property name="set.test_audio">1</property>
  <property name="meta.media.nb_streams">2</property>
  <property name="meta.media.0.stream.type">video</property>
  <property name="meta.media.0.stream.frame_rate">30</property>
  <property name="meta.media.0.stream.sample_aspect_ratio">1</property>
  <property name="meta.media.0.codec.width">1280</property>
  <property name="meta.media.0.codec.height">720</property>
  <property name="meta.media.0.codec.rotate">0</property>
  <property name="meta.media.0.codec.pix_fmt">yuv420p</property>
  <property name="meta.media.0.codec.sample_aspect_ratio">0</property>
  <property name="meta.media.0.codec.colorspace">709</property>
  <property name="meta.media.0.codec.color_trc">1</property>
  <property name="meta.media.0.codec.name">vp9</property>
  <property name="meta.media.0.codec.long_name">Google VP9</property>
  <property name="meta.media.0.codec.bit_rate">0</property>
  <property name="meta.attr.0.stream.language.markup">eng</property>
  <property name="meta.attr.0.stream.DURATION.markup">00:01:02.567000000</property>
  <property name="meta.media.1.stream.type">audio</property>
  <property name="meta.media.1.codec.sample_fmt">fltp</property>
  <property name="meta.media.1.codec.sample_rate">48000</property>
  <property name="meta.media.1.codec.channels">2</property>
  <property name="meta.media.1.codec.name">opus</property>
  <property name="meta.media.1.codec.long_name">Opus</property>
  <property name="meta.media.1.codec.bit_rate">0</property>
  <property name="meta.attr.1.stream.language.markup">eng</property>
  <property name="meta.attr.1.stream.DURATION.markup">00:01:02.601000000</property>
  <property name="meta.attr.ENCODER.markup">Lavf59.27.100</property>
  <property name="meta.media.sample_aspect_num">1</property>
  <property name="meta.media.sample_aspect_den">1</property>
  <property name="meta.media.frame_rate_num">30</property>
  <property name="meta.media.frame_rate_den">1</property>
  <property name="meta.media.colorspace">709</property>
  <property name="meta.media.color_trc">1</property>
  <property name="meta.media.has_b_frames">0</property>
  <property name="meta.media.width">1280</property>
  <property name="meta.media.height">720</property>
  <property name="meta.media.color_range">mpeg</property>
  <property name="xml">was here</property>
  <property name="meta.media.top_field_first">0</property>
  <property name="meta.media.progressive">1</property>
  <property name="set.test_image">0</property>
 </chain>
 <chain id="chain6" out="00:01:54.320">
  <property name="length">2859</property>
  <property name="eof">pause</property>
  <property name="resource">Starship ｜ Second Flight Test [C3iHAgwIYtI].webm</property>
  <property name="mlt_service">avformat-novalidate</property>
  <property name="seekable">1</property>
  <property name="format">3</property>
  <property name="audio_index">-1</property>
  <property name="video_index">0</property>
  <property name="mute_on_pause">0</property>
  <property name="kdenlive:clipname"/>
  <property name="kdenlive:clip_type">0</property>
  <property name="kdenlive:folderid">-1</property>
  <property name="kdenlive:id">30</property>
  <property name="kdenlive:file_size">170987796</property>
  <property name="kdenlive:file_hash">17e1104bf17a132c74e6ec5f3e83f86f</property>
  <property name="kdenlive:audio_max1">247</property>
  <property name="kdenlive:active_streams">-1</property>
  <property name="set.test_audio">1</property>
  <property name="meta.media.nb_streams">2</property>
  <property name="meta.media.0.stream.type">video</property>
  <property name="meta.media.0.stream.frame_rate">23.976</property>
  <property name="meta.media.0.stream.sample_aspect_ratio">1</property>
  <property name="meta.media.0.codec.width">3840</property>
  <property name="meta.media.0.codec.height">2160</property>
  <property name="meta.media.0.codec.rotate">0</property>
  <property name="meta.media.0.codec.pix_fmt">yuv420p</property>
  <property name="meta.media.0.codec.sample_aspect_ratio">0</property>
  <property name="meta.media.0.codec.colorspace">709</property>
  <property name="meta.media.0.codec.color_trc">1</property>
  <property name="meta.media.0.codec.name">vp9</property>
  <property name="meta.media.0.codec.long_name">Google VP9</property>
  <property name="meta.media.0.codec.bit_rate">0</property>
  <property name="meta.attr.0.stream.language.markup">eng</property>
  <property name="meta.attr.0.stream.DURATION.markup">00:01:54.322000000</property>
  <property name="meta.media.1.stream.type">audio</property>
  <property name="meta.media.1.codec.sample_fmt">fltp</property>
  <property name="meta.media.1.codec.sample_rate">48000</property>
  <property name="meta.media.1.codec.channels">2</property>
  <property name="meta.media.1.codec.name">opus</property>
  <property name="meta.media.1.codec.long_name">Opus</property>
  <property name="meta.media.1.codec.bit_rate">0</property>
  <property name="meta.attr.1.stream.language.markup">eng</property>
  <property name="meta.attr.1.stream.DURATION.markup">00:01:54.341000000</property>
  <property name="meta.attr.ENCODER.markup">Lavf59.27.100</property>
  <property name="meta.media.sample_aspect_num">1</property>
  <property name="meta.media.sample_aspect_den">1</property>
  <property name="meta.media.frame_rate_num">24000</property>
  <property name="meta.media.frame_rate_den">1001</property>
  <property name="meta.media.colorspace">709</property>
  <property name="meta.media.color_trc">1</property>
  <property name="meta.media.has_b_frames">0</property>
  <property name="meta.media.width">3840</property>
  <property name="meta.media.height">2160</property>
  <property name="meta.media.color_range">mpeg</property>
  <property name="xml">was here</property>
  <property name="meta.media.top_field_first">0</property>
  <property name="meta.media.progressive">1</property>
  <property name="set.test_image">0</property>
 </chain>
 <producer id="producer2" in="00:00:00.000" out="00:00:04.960">
  <property name="length">00:00:05.000</property>
  <property name="eof">pause</property>
  <property name="resource">stimmy.png</property>
  <property name="ttl">25</property>
  <property name="aspect_ratio">1</property>
  <property name="progressive">1</property>
  <property name="seekable">1</property>
  <property name="format">2</property>
  <property name="meta.media.width">765</property>
  <property name="meta.media.height">3984</property>
  <property name="mlt_service">qimage</property>
  <property name="kdenlive:clipname"/>
  <property name="kdenlive:duration">00:00:05:00</property>
  <property name="kdenlive:folderid">10</property>
  <property name="kdenlive:id">32</property>
  <property name="kdenlive:clip_type">2</property>
  <property name="kdenlive:file_size">2876501</property>
  <property name="kdenlive:file_hash">5e34dd05c5cc8da8132d0f09e8d2f0a6</property>
 </producer>
 <chain id="chain7" out="00:04:05.080">
  <property name="length">6128</property>
  <property name="eof">pause</property>
  <property name="resource">Chernobyl： Drone Footage Reveals an Abandoned City [UeZtlFeEcNg].webm</property>
  <property name="mlt_service">avformat-novalidate</property>
  <property name="seekable">1</property>
  <property name="format">3</property>
  <property name="audio_index">-1</property>
  <property name="video_index">0</property>
  <property name="mute_on_pause">0</property>
  <property name="kdenlive:clipname"/>
  <property name="kdenlive:clip_type">0</property>
  <property name="kdenlive:folderid">-1</property>
  <property name="kdenlive:id">34</property>
  <property name="kdenlive:file_size">115403111</property>
  <property name="kdenlive:file_hash">ef290c8766530cb20161bbdaca904012</property>
  <property name="kdenlive:audio_max1">219</property>
  <property name="kdenlive:active_streams">-1</property>
  <property name="set.test_audio">1</property>
  <property name="meta.media.nb_streams">2</property>
  <property name="meta.media.0.stream.type">video</property>
  <property name="meta.media.0.stream.frame_rate">29.9713</property>
  <property name="meta.media.0.stream.sample_aspect_ratio">1</property>
  <property name="meta.media.0.codec.width">1920</property>
  <property name="meta.media.0.codec.height">1080</property>
  <property name="meta.media.0.codec.rotate">0</property>
  <property name="meta.media.0.codec.pix_fmt">yuv420p</property>
  <property name="meta.media.0.codec.sample_aspect_ratio">0</property>
  <property name="meta.media.0.codec.colorspace">709</property>
  <property name="meta.media.0.codec.color_trc">1</property>
  <property name="meta.media.0.codec.name">vp9</property>
  <property name="meta.media.0.codec.long_name">Google VP9</property>
  <property name="meta.media.0.codec.bit_rate">0</property>
  <property name="meta.attr.0.stream.HANDLER_NAME.markup">ISO Media file produced by Google Inc. Created on: 03/18/2024.</property>
  <property name="meta.attr.0.stream.VENDOR_ID.markup">[0][0][0][0]</property>
  <property name="meta.attr.0.stream.DURATION.markup">00:04:05.077000000</property>
  <property name="meta.media.1.stream.type">audio</property>
  <property name="meta.media.1.codec.sample_fmt">fltp</property>
  <property name="meta.media.1.codec.sample_rate">48000</property>
  <property name="meta.media.1.codec.channels">2</property>
  <property name="meta.media.1.codec.name">opus</property>
  <property name="meta.media.1.codec.long_name">Opus</property>
  <property name="meta.media.1.codec.bit_rate">0</property>
  <property name="meta.attr.1.stream.language.markup">eng</property>
  <property name="meta.attr.1.stream.DURATION.markup">00:04:05.101000000</property>
  <property name="meta.attr.COMPATIBLE_BRANDS.markup">iso6mp41</property>
  <property name="meta.attr.MAJOR_BRAND.markup">dash</property>
  <property name="meta.attr.MINOR_VERSION.markup">0</property>
  <property name="meta.attr.ENCODER.markup">Lavf59.27.100</property>
  <property name="meta.media.sample_aspect_num">1</property>
  <property name="meta.media.sample_aspect_den">1</property>
  <property name="meta.media.frame_rate_num">16694</property>
  <property name="meta.media.frame_rate_den">557</property>
  <property name="meta.media.colorspace">709</property>
  <property name="meta.media.color_trc">1</property>
  <property name="meta.media.has_b_frames">0</property>
  <property name="meta.media.width">1920</property>
  <property name="meta.media.height">1080</property>
  <property name="meta.media.color_range">mpeg</property>
  <property name="xml">was here</property>
  <property name="meta.media.top_field_first">0</property>
  <property name="meta.media.progressive">1</property>
  <property name="set.test_image">0</property>
 </chain>
 <playlist id="playlist6">
  <entry producer="chain4" in="00:02:05.440" out="00:02:08.320">
   <property name="kdenlive:id">7</property>
   <filter id="filter13">
    <property name="rotate_center">1</property>
    <property name="mlt_service">qtblend</property>
    <property name="kdenlive_id">qtblend</property>
    <property name="rect">00:02:05.440=-1197 -2137 3492 6208 1.000000</property>
    <property name="rotation">00:02:05.440=0</property>
    <property name="compositing">0</property>
    <property name="distort">0</property>
    <property name="kdenlive:collapsed">0</property>
   </filter>
  </entry>
  <entry producer="chain4" in="00:02:08.360" out="00:02:08.600">
   <property name="kdenlive:id">7</property>
   <property name="kdenlive:activeeffect">1</property>
   <filter id="filter14">
    <property name="rotate_center">1</property>
    <property name="mlt_service">qtblend</property>
    <property name="kdenlive_id">qtblend</property>
    <property name="rect">00:02:08.360=-1197 -2137 3492 6208 1.000000;00:02:08.600=-2035 -2137 3492 6208 1.000000</property>
    <property name="rotation">00:02:08.360=0;00:02:08.600=0</property>
    <property name="compositing">0</property>
    <property name="distort">0</property>
    <property name="kdenlive:collapsed">1</property>
   </filter>
   <filter id="filter15">
    <property name="hradius">00:02:08.360=0;00:02:08.600=286</property>
    <property name="vradius">00:02:08.360=0;00:02:08.600=0</property>
    <property name="mlt_service">box_blur</property>
    <property name="kdenlive_id">box_blur</property>
    <property name="kdenlive:collapsed">0</property>
   </filter>
   <filter id="filter16" in="00:02:08.320" out="00:02:08.600">
    <property name="start">1</property>
    <property name="level">1</property>
    <property name="mlt_service">brightness</property>
    <property name="kdenlive_id">fade_to_black</property>
    <property name="alpha">00:00:00.000=1;00:00:00.280=0</property>
   </filter>
  </entry>
  <entry producer="producer1" in="00:00:00.000" out="00:00:04.680">
   <property name="kdenlive:id">9</property>
   <filter id="filter17">
    <property name="rotate_center">1</property>
    <property name="mlt_service">qtblend</property>
    <property name="kdenlive_id">qtblend</property>
    <property name="rect">00:00:00.000=-424 -757 1935 3441 1.000000;00:00:04.680=-482 -860 2052 3648 1.000000</property>
    <property name="rotation">00:00:00.000=0;00:00:04.680=0</property>
    <property name="compositing">0</property>
    <property name="distort">0</property>
    <property name="kdenlive:collapsed">0</property>
   </filter>
   <filter id="filter18">
    <property name="mlt_service">avfilter.gblur</property>
    <property name="kdenlive_id">avfilter.gblur</property>
    <property name="av.sigma">13</property>
    <property name="av.steps">1</property>
    <property name="av.planes">7</property>
    <property name="av.sigmaV">-1</property>
    <property name="kdenlive:collapsed">0</property>
   </filter>
  </entry>
  <blank length="00:00:02.920"/>
  <entry producer="chain5" in="00:00:12.320" out="00:00:16.840">
   <property name="kdenlive:id">27</property>
   <filter id="filter19">
    <property name="rotate_center">1</property>
    <property name="mlt_service">qtblend</property>
    <property name="kdenlive_id">qtblend</property>
    <property name="rect">00:00:12.320=-1287 -2137 3492 6208 1.000000</property>
    <property name="rotation">00:00:12.320=0</property>
    <property name="compositing">0</property>
    <property name="distort">0</property>
    <property name="kdenlive:collapsed">0</property>
   </filter>
  </entry>
  <blank length="00:00:03.080"/>
  <entry producer="chain6" in="00:00:35.000" out="00:00:39.880">
   <property name="kdenlive:id">30</property>
   <property name="kdenlive:activeeffect">0</property>
   <filter id="filter20">
    <property name="rotate_center">1</property>
    <property name="mlt_service">qtblend</property>
    <property name="kdenlive_id">qtblend</property>
    <property name="rect">00:00:35.000=-1170 -2089 3438 6112 1.000000</property>
    <property name="rotation">00:00:35.000=0</property>
    <property name="compositing">0</property>
    <property name="distort">0</property>
    <property name="kdenlive:collapsed">0</property>
   </filter>
  </entry>
  <blank length="00:00:04.760"/>
  <entry producer="producer2" in="00:00:00.000" out="00:00:03.960">
   <property name="kdenlive:id">32</property>
   <property name="kdenlive:activeeffect">1</property>
   <filter id="filter21">
    <property name="rotate_center">1</property>
    <property name="mlt_service">qtblend</property>
    <property name="kdenlive_id">qtblend</property>
    <property name="rect">00:00:00.000=-1008 -2045 3114 5536 1.000000;00:00:03.960=-1008 -3607 3114 5536 1.000000</property>
    <property name="rotation">00:00:00.000=0;00:00:03.960=0</property>
    <property name="compositing">0</property>
    <property name="distort">0</property>
    <property name="kdenlive:collapsed">1</property>
   </filter>
   <filter id="filter22" out="00:00:00.400">
    <property name="start">1</property>
    <property name="level">1</property>
    <property name="mlt_service">brightness</property>
    <property name="kdenlive_id">fade_from_black</property>
    <property name="alpha">00:00:00.000=0;00:00:00.400=1</property>
    <property name="kdenlive:collapsed">0</property>
    <property name="disable">0</property>
   </filter>
  </entry>
  <blank length="00:00:04.080"/>
  <entry producer="chain7" in="00:01:31.720" out="00:01:37.720">
   <property name="kdenlive:id">34</property>
   <property name="kdenlive:activeeffect">0</property>
   <filter id="filter23">
    <property name="rotate_center">1</property>
    <property name="mlt_service">qtblend</property>
    <property name="kdenlive_id">qtblend</property>
    <property name="rect">00:01:31.720=-1170 -2089 3438 6112 1.000000</property>
    <property name="rotation">00:01:31.720=0</property>
    <property name="compositing">0</property>
    <property name="distort">0</property>
    <property name="kdenlive:collapsed">0</property>
   </filter>
   <filter id="filter24" in="00:01:37.400" out="00:01:37.760">
    <property name="start">1</property>
    <property name="level">1</property>
    <property name="mlt_service">brightness</property>
    <property name="kdenlive_id">fade_to_black</property>
    <property name="alpha">00:00:00.000=1;00:00:00.360=0</property>
   </filter>
  </entry>
  <entry producer="chain4" in="00:02:03.080" out="00:02:05.400">
   <property name="kdenlive:id">7</property>
   <filter id="filter25">
    <property name="rotate_center">1</property>
    <property name="mlt_service">qtblend</property>
    <property name="kdenlive_id">qtblend</property>
    <property name="rect">00:02:03.080=-1197 -2137 3492 6208 1.000000</property>
    <property name="rotation">00:02:03.080=0</property>
    <property name="compositing">0</property>
    <property name="distort">0</property>
    <property name="kdenlive:collapsed">0</property>
   </filter>
   <filter id="filter26" in="00:02:03.080" out="00:02:03.480">
    <property name="start">1</property>
    <property name="level">1</property>
    <property name="mlt_service">brightness</property>
    <property name="kdenlive_id">fade_from_black</property>
    <property name="alpha">00:00:00.000=0;00:00:00.400=1</property>
   </filter>
  </entry>
 </playlist>
 <playlist id="playlist7"/>
 <tractor id="tractor3" in="00:00:00.000" out="00:00:44.600">
  <property name="kdenlive:trackheight">67</property>
  <property name="kdenlive:timeline_active">1</property>
  <property name="kdenlive:collapsed">0</property>
  <property name="kdenlive:thumbs_format"/>
  <property name="kdenlive:audio_rec"/>
  <track hide="audio" producer="playlist6"/>
  <track hide="audio" producer="playlist7"/>
 </tractor>
 <producer id="producer3" in="00:00:00.000" out="00:00:04.960">
  <property name="length">00:00:05.000</property>
  <property name="eof">pause</property>
  <property name="resource">Gun.png</property>
  <property name="ttl">25</property>
  <property name="aspect_ratio">1</property>
  <property name="progressive">1</property>
  <property name="seekable">1</property>
  <property name="format">2</property>
  <property name="meta.media.width">3684</property>
  <property name="meta.media.height">1144</property>
  <property name="mlt_service">qimage</property>
  <property name="kdenlive:clipname"/>
  <property name="kdenlive:duration">00:00:05:00</property>
  <property name="kdenlive:folderid">10</property>
  <property name="kdenlive:id">20</property>
  <property name="kdenlive:clip_type">2</property>
  <property name="kdenlive:file_size">1678390</property>
  <property name="kdenlive:file_hash">124ea692a8161d6e3e1790b5686a5f63</property>
 </producer>
 <producer id="producer4" in="00:00:00.000" out="00:00:04.960">
  <property name="length">00:00:05.000</property>
  <property name="eof">pause</property>
  <property name="resource">apollo-full.png</property>
  <property name="ttl">25</property>
  <property name="aspect_ratio">1</property>
  <property name="progressive">1</property>
  <property name="seekable">1</property>
  <property name="format">2</property>
  <property name="meta.media.width">1021</property>
  <property name="meta.media.height">1600</property>
  <property name="mlt_service">qimage</property>
  <property name="kdenlive:clipname"/>
  <property name="kdenlive:duration">00:00:05:00</property>
  <property name="kdenlive:folderid">10</property>
  <property name="kdenlive:id">23</property>
  <property name="kdenlive:clip_type">2</property>
  <property name="kdenlive:file_size">700027</property>
  <property name="kdenlive:file_hash">9f65ac57efe9c0b900da8446c394e0d3</property>
 </producer>
 <producer id="producer5" in="00:00:00.000" out="00:00:04.960">
  <property name="length">00:00:05.000</property>
  <property name="eof">pause</property>
  <property name="resource">dionysus-full.png</property>
  <property name="ttl">25</property>
  <property name="aspect_ratio">1</property>
  <property name="progressive">1</property>
  <property name="seekable">1</property>
  <property name="format">2</property>
  <property name="meta.media.width">664</property>
  <property name="meta.media.height">1600</property>
  <property name="mlt_service">qimage</property>
  <property name="kdenlive:clipname"/>
  <property name="kdenlive:duration">00:00:05:00</property>
  <property name="kdenlive:folderid">10</property>
  <property name="kdenlive:id">25</property>
  <property name="kdenlive:clip_type">2</property>
  <property name="kdenlive:file_size">489556</property>
  <property name="kdenlive:file_hash">5ae9a49acbac37e92b0d5250ddf904c4</property>
 </producer>
 <producer id="producer6" in="00:00:00.000" out="00:01:47.040">
  <property name="length">2677</property>
  <property name="eof">pause</property>
  <property name="resource">8.000000:/home/liquidzulu/Videos/yt/b-roll/BMW Car Factory ROBOTS 🔧 PRODUCTION Fast Manufacturing [P7fi4hP_y80].webm</property>
  <property name="aspect_ratio">1</property>
  <property name="meta.media.nb_streams">2</property>
  <property name="meta.media.0.stream.type">video</property>
  <property name="meta.media.0.stream.frame_rate">60</property>
  <property name="meta.media.0.stream.sample_aspect_ratio">1</property>
  <property name="meta.media.0.codec.width">1920</property>
  <property name="meta.media.0.codec.height">1080</property>
  <property name="meta.media.0.codec.rotate">0</property>
  <property name="meta.media.0.codec.pix_fmt">yuv420p</property>
  <property name="meta.media.0.codec.sample_aspect_ratio">0</property>
  <property name="meta.media.0.codec.colorspace">709</property>
  <property name="meta.media.0.codec.color_trc">1</property>
  <property name="meta.media.0.codec.name">vp9</property>
  <property name="meta.media.0.codec.long_name">Google VP9</property>
  <property name="meta.media.0.codec.bit_rate">0</property>
  <property name="meta.attr.0.stream.language.markup">eng</property>
  <property name="meta.attr.0.stream.DURATION.markup">00:14:16.449000000</property>
  <property name="meta.media.1.stream.type">audio</property>
  <property name="meta.media.1.codec.sample_fmt">fltp</property>
  <property name="meta.media.1.codec.sample_rate">48000</property>
  <property name="meta.media.1.codec.channels">2</property>
  <property name="meta.media.1.codec.name">opus</property>
  <property name="meta.media.1.codec.long_name">Opus</property>
  <property name="meta.media.1.codec.bit_rate">0</property>
  <property name="meta.attr.1.stream.language.markup">ita</property>
  <property name="meta.attr.1.stream.DURATION.markup">00:14:16.481000000</property>
  <property name="meta.attr.ENCODER.markup">Lavf59.27.100</property>
  <property name="seekable">1</property>
  <property name="meta.media.sample_aspect_num">1</property>
  <property name="meta.media.sample_aspect_den">1</property>
  <property name="format">3</property>
  <property name="audio_index">-1</property>
  <property name="video_index">0</property>
  <property name="mute_on_pause">1</property>
  <property name="warp_speed">8</property>
  <property name="warp_resource">/home/liquidzulu/Videos/yt/b-roll/BMW Car Factory ROBOTS 🔧 PRODUCTION Fast Manufacturing [P7fi4hP_y80].webm</property>
  <property name="mlt_service">timewarp</property>
  <property name="set.test_audio">1</property>
  <property name="set.test_image">0</property>
  <property name="kdenlive:id">26</property>
  <property name="warp_pitch">0</property>
  <property name="meta.media.frame_rate_num">60</property>
  <property name="meta.media.frame_rate_den">1</property>
  <property name="meta.media.colorspace">709</property>
  <property name="meta.media.color_trc">1</property>
  <property name="meta.media.has_b_frames">0</property>
  <property name="meta.media.width">1920</property>
  <property name="meta.media.height">1080</property>
  <property name="meta.media.color_range">mpeg</property>
  <property name="meta.media.top_field_first">0</property>
  <property name="meta.media.progressive">1</property>
 </producer>
 <chain id="chain8" out="00:13:43.640">
  <property name="length">20592</property>
  <property name="eof">pause</property>
  <property name="resource">Watch Elon Musk announce the Tesla Cybertruck in 14 minutes [464puoD09dM].webm</property>
  <property name="mlt_service">avformat-novalidate</property>
  <property name="seekable">1</property>
  <property name="format">3</property>
  <property name="audio_index">-1</property>
  <property name="video_index">0</property>
  <property name="mute_on_pause">0</property>
  <property name="kdenlive:clipname"/>
  <property name="kdenlive:clip_type">0</property>
  <property name="kdenlive:folderid">-1</property>
  <property name="kdenlive:id">29</property>
  <property name="kdenlive:file_size">202185076</property>
  <property name="kdenlive:file_hash">aad85a9879f12ea4f0548549815eeb49</property>
  <property name="kdenlive:audio_max1">209</property>
  <property name="kdenlive:active_streams">-1</property>
  <property name="set.test_audio">1</property>
  <property name="meta.media.nb_streams">2</property>
  <property name="meta.media.0.stream.type">video</property>
  <property name="meta.media.0.stream.frame_rate">29.9718</property>
  <property name="meta.media.0.stream.sample_aspect_ratio">1</property>
  <property name="meta.media.0.codec.width">1920</property>
  <property name="meta.media.0.codec.height">1080</property>
  <property name="meta.media.0.codec.rotate">0</property>
  <property name="meta.media.0.codec.pix_fmt">yuv420p</property>
  <property name="meta.media.0.codec.sample_aspect_ratio">0</property>
  <property name="meta.media.0.codec.colorspace">709</property>
  <property name="meta.media.0.codec.color_trc">1</property>
  <property name="meta.media.0.codec.name">vp9</property>
  <property name="meta.media.0.codec.long_name">Google VP9</property>
  <property name="meta.media.0.codec.bit_rate">0</property>
  <property name="meta.attr.0.stream.HANDLER_NAME.markup">ISO Media file produced by Google Inc. Created on: 03/18/2024.</property>
  <property name="meta.attr.0.stream.VENDOR_ID.markup">[0][0][0][0]</property>
  <property name="meta.attr.0.stream.DURATION.markup">00:13:43.656000000</property>
  <property name="meta.media.1.stream.type">audio</property>
  <property name="meta.media.1.codec.sample_fmt">fltp</property>
  <property name="meta.media.1.codec.sample_rate">48000</property>
  <property name="meta.media.1.codec.channels">2</property>
  <property name="meta.media.1.codec.name">opus</property>
  <property name="meta.media.1.codec.long_name">Opus</property>
  <property name="meta.media.1.codec.bit_rate">0</property>
  <property name="meta.attr.1.stream.language.markup">eng</property>
  <property name="meta.attr.1.stream.DURATION.markup">00:13:43.681000000</property>
  <property name="meta.attr.COMPATIBLE_BRANDS.markup">iso6mp41</property>
  <property name="meta.attr.MAJOR_BRAND.markup">dash</property>
  <property name="meta.attr.MINOR_VERSION.markup">0</property>
  <property name="meta.attr.ENCODER.markup">Lavf59.27.100</property>
  <property name="meta.media.sample_aspect_num">1</property>
  <property name="meta.media.sample_aspect_den">1</property>
  <property name="meta.media.frame_rate_num">26555</property>
  <property name="meta.media.frame_rate_den">886</property>
  <property name="meta.media.colorspace">709</property>
  <property name="meta.media.color_trc">1</property>
  <property name="meta.media.has_b_frames">0</property>
  <property name="meta.media.width">1920</property>
  <property name="meta.media.height">1080</property>
  <property name="meta.media.color_range">mpeg</property>
  <property name="xml">was here</property>
  <property name="meta.media.top_field_first">0</property>
  <property name="meta.media.progressive">1</property>
  <property name="set.test_image">0</property>
 </chain>
 <chain id="chain9" out="00:03:33.080">
  <property name="length">5328</property>
  <property name="eof">pause</property>
  <property name="resource">You Will Be Happy [UrEUzKTt7j0].webm</property>
  <property name="mlt_service">avformat-novalidate</property>
  <property name="seekable">1</property>
  <property name="format">3</property>
  <property name="audio_index">-1</property>
  <property name="video_index">0</property>
  <property name="mute_on_pause">0</property>
  <property name="kdenlive:clipname"/>
  <property name="kdenlive:clip_type">0</property>
  <property name="kdenlive:folderid">-1</property>
  <property name="kdenlive:id">31</property>
  <property name="kdenlive:file_size">35422471</property>
  <property name="kdenlive:file_hash">f9dd59284472c52d336566bcf78d985c</property>
  <property name="kdenlive:audio_max1">225</property>
  <property name="kdenlive:active_streams">-1</property>
  <property name="set.test_audio">1</property>
  <property name="meta.media.nb_streams">2</property>
  <property name="meta.media.0.stream.type">video</property>
  <property name="meta.media.0.stream.frame_rate">30</property>
  <property name="meta.media.0.stream.sample_aspect_ratio">1</property>
  <property name="meta.media.0.codec.width">2048</property>
  <property name="meta.media.0.codec.height">858</property>
  <property name="meta.media.0.codec.rotate">0</property>
  <property name="meta.media.0.codec.pix_fmt">yuv420p</property>
  <property name="meta.media.0.codec.sample_aspect_ratio">0</property>
  <property name="meta.media.0.codec.colorspace">709</property>
  <property name="meta.media.0.codec.color_trc">1</property>
  <property name="meta.media.0.codec.name">vp9</property>
  <property name="meta.media.0.codec.long_name">Google VP9</property>
  <property name="meta.media.0.codec.bit_rate">0</property>
  <property name="meta.attr.0.stream.language.markup">eng</property>
  <property name="meta.attr.0.stream.DURATION.markup">00:03:33.100000000</property>
  <property name="meta.media.1.stream.type">audio</property>
  <property name="meta.media.1.codec.sample_fmt">fltp</property>
  <property name="meta.media.1.codec.sample_rate">48000</property>
  <property name="meta.media.1.codec.channels">2</property>
  <property name="meta.media.1.codec.name">opus</property>
  <property name="meta.media.1.codec.long_name">Opus</property>
  <property name="meta.media.1.codec.bit_rate">0</property>
  <property name="meta.attr.1.stream.language.markup">eng</property>
  <property name="meta.attr.1.stream.DURATION.markup">00:03:33.121000000</property>
  <property name="meta.attr.ENCODER.markup">Lavf59.27.100</property>
  <property name="meta.media.sample_aspect_num">1</property>
  <property name="meta.media.sample_aspect_den">1</property>
  <property name="meta.media.frame_rate_num">30</property>
  <property name="meta.media.frame_rate_den">1</property>
  <property name="meta.media.colorspace">709</property>
  <property name="meta.media.color_trc">1</property>
  <property name="meta.media.has_b_frames">0</property>
  <property name="meta.media.width">2048</property>
  <property name="meta.media.height">858</property>
  <property name="meta.media.color_range">mpeg</property>
  <property name="xml">was here</property>
  <property name="meta.media.top_field_first">0</property>
  <property name="meta.media.progressive">1</property>
  <property name="set.test_image">0</property>
 </chain>
 <chain id="chain10" out="00:13:27.040">
  <property name="length">20177</property>
  <property name="eof">pause</property>
  <property name="resource">Jeff Bezos Advice For young Entrepreneurs [30pxmKvkzFM].webm</property>
  <property name="mlt_service">avformat-novalidate</property>
  <property name="seekable">1</property>
  <property name="format">3</property>
  <property name="audio_index">-1</property>
  <property name="video_index">0</property>
  <property name="mute_on_pause">0</property>
  <property name="kdenlive:clipname"/>
  <property name="kdenlive:clip_type">0</property>
  <property name="kdenlive:folderid">-1</property>
  <property name="kdenlive:id">33</property>
  <property name="kdenlive:file_size">179479587</property>
  <property name="kdenlive:file_hash">bc01cc08c2971fb8baebf64a1d2a9e9e</property>
  <property name="kdenlive:audio_max1">226</property>
  <property name="kdenlive:active_streams">-1</property>
  <property name="set.test_audio">1</property>
  <property name="meta.media.nb_streams">2</property>
  <property name="meta.media.0.stream.type">video</property>
  <property name="meta.media.0.stream.frame_rate">24</property>
  <property name="meta.media.0.stream.sample_aspect_ratio">1</property>
  <property name="meta.media.0.codec.width">1920</property>
  <property name="meta.media.0.codec.height">1080</property>
  <property name="meta.media.0.codec.rotate">0</property>
  <property name="meta.media.0.codec.pix_fmt">yuv420p</property>
  <property name="meta.media.0.codec.sample_aspect_ratio">0</property>
  <property name="meta.media.0.codec.colorspace">709</property>
  <property name="meta.media.0.codec.color_trc">1</property>
  <property name="meta.media.0.codec.name">vp9</property>
  <property name="meta.media.0.codec.long_name">Google VP9</property>
  <property name="meta.media.0.codec.bit_rate">0</property>
  <property name="meta.attr.0.stream.language.markup">eng</property>
  <property name="meta.attr.0.stream.DURATION.markup">00:13:27.041000000</property>
  <property name="meta.media.1.stream.type">audio</property>
  <property name="meta.media.1.codec.sample_fmt">fltp</property>
  <property name="meta.media.1.codec.sample_rate">48000</property>
  <property name="meta.media.1.codec.channels">2</property>
  <property name="meta.media.1.codec.name">opus</property>
  <property name="meta.media.1.codec.long_name">Opus</property>
  <property name="meta.media.1.codec.bit_rate">0</property>
  <property name="meta.attr.1.stream.language.markup">eng</property>
  <property name="meta.attr.1.stream.DURATION.markup">00:13:27.061000000</property>
  <property name="meta.attr.ENCODER.markup">Lavf59.27.100</property>
  <property name="meta.media.sample_aspect_num">1</property>
  <property name="meta.media.sample_aspect_den">1</property>
  <property name="meta.media.frame_rate_num">24</property>
  <property name="meta.media.frame_rate_den">1</property>
  <property name="meta.media.colorspace">709</property>
  <property name="meta.media.color_trc">1</property>
  <property name="meta.media.has_b_frames">0</property>
  <property name="meta.media.width">1920</property>
  <property name="meta.media.height">1080</property>
  <property name="meta.media.color_range">mpeg</property>
  <property name="xml">was here</property>
  <property name="meta.media.top_field_first">0</property>
  <property name="meta.media.progressive">1</property>
  <property name="set.test_image">0</property>
 </chain>
 <playlist id="playlist8">
  <blank length="00:00:00.280"/>
  <entry producer="producer3" in="00:00:00.000" out="00:00:00.640">
   <property name="kdenlive:id">20</property>
   <filter id="filter27">
    <property name="rotate_center">1</property>
    <property name="mlt_service">qtblend</property>
    <property name="kdenlive_id">qtblend</property>
    <property name="rect">00:00:00.000=782 710 259 461 1.000000;00:00:00.120=812 591 369 656 1.000000</property>
    <property name="rotation">00:00:00.000=-30;00:00:00.120=-30</property>
    <property name="compositing">0</property>
    <property name="distort">0</property>
    <property name="kdenlive:collapsed">0</property>
   </filter>
   <filter id="filter28" in="00:00:00.560" out="00:00:00.680">
    <property name="start">1</property>
    <property name="level">1</property>
    <property name="mlt_service">brightness</property>
    <property name="kdenlive_id">fade_to_black</property>
    <property name="alpha">00:00:00.000=1;00:00:00.120=0</property>
   </filter>
  </entry>
  <blank length="00:00:01.960"/>
  <entry producer="producer1" in="00:00:00.000" out="00:00:00.240">
   <property name="kdenlive:id">9</property>
   <property name="kdenlive:activeeffect">2</property>
   <filter id="filter29">
    <property name="rotate_center">1</property>
    <property name="mlt_service">qtblend</property>
    <property name="kdenlive_id">qtblend</property>
    <property name="rect">00:00:00.000=-13 -757 1935 3441 1.000000;00:00:00.240=-424 -757 1935 3441 1.000000</property>
    <property name="rotation">00:00:00.000=0;00:00:00.240=0</property>
    <property name="compositing">0</property>
    <property name="distort">0</property>
    <property name="kdenlive:collapsed">1</property>
   </filter>
   <filter id="filter30">
    <property name="mlt_service">avfilter.gblur</property>
    <property name="kdenlive_id">avfilter.gblur</property>
    <property name="av.sigma">13</property>
    <property name="av.steps">1</property>
    <property name="av.planes">7</property>
    <property name="av.sigmaV">-1</property>
    <property name="kdenlive:collapsed">0</property>
   </filter>
   <filter id="filter31">
    <property name="hradius">00:00:00.000=238;00:00:00.240=0</property>
    <property name="vradius">00:00:00.000=0;00:00:00.240=0</property>
    <property name="mlt_service">box_blur</property>
    <property name="kdenlive_id">box_blur</property>
    <property name="kdenlive:collapsed">0</property>
   </filter>
   <filter id="filter32" out="00:00:00.240">
    <property name="start">1</property>
    <property name="level">1</property>
    <property name="mlt_service">brightness</property>
    <property name="kdenlive_id">fade_from_black</property>
    <property name="alpha">00:00:00.000=0;00:00:00.240=1</property>
    <property name="kdenlive:collapsed">0</property>
   </filter>
  </entry>
  <blank length="00:00:01.800"/>
  <entry producer="producer4" in="00:00:00.000" out="00:00:00.240">
   <property name="kdenlive:id">23</property>
   <property name="kdenlive:activeeffect">2</property>
   <filter id="filter33">
    <property name="rotate_center">1</property>
    <property name="mlt_service">qtblend</property>
    <property name="kdenlive_id">qtblend</property>
    <property name="rect">00:00:00.000=0 0 1080 1920 1.000000</property>
    <property name="rotation">00:00:00.000=0</property>
    <property name="compositing">0</property>
    <property name="distort">0</property>
    <property name="kdenlive:collapsed">1</property>
   </filter>
   <filter id="filter34">
    <property name="rotate_center">1</property>
    <property name="mlt_service">qtblend</property>
    <property name="kdenlive_id">qtblend</property>
    <property name="rect">00:00:00.000=0 0 1080 1920 1.000000;00:00:00.240=0 -1920 1080 1920 1.000000</property>
    <property name="rotation">00:00:00.000=0;00:00:00.240=0</property>
    <property name="compositing">0</property>
    <property name="distort">0</property>
    <property name="kdenlive:collapsed">1</property>
   </filter>
   <filter id="filter35">
    <property name="hradius">00:00:00.000=0;00:00:00.240=0</property>
    <property name="vradius">00:00:00.000=0;00:00:00.240=302</property>
    <property name="mlt_service">box_blur</property>
    <property name="kdenlive_id">box_blur</property>
    <property name="kdenlive:collapsed">0</property>
   </filter>
  </entry>
  <entry producer="producer5" in="00:00:00.000" out="00:00:02.040">
   <property name="kdenlive:id">25</property>
   <property name="kdenlive:activeeffect">0</property>
   <filter id="filter36">
    <property name="rotate_center">1</property>
    <property name="mlt_service">qtblend</property>
    <property name="kdenlive_id">qtblend</property>
    <property name="rect">00:00:00.000=0 0 1080 1920 1.000000;00:00:01.800=0 0 1080 1920 1.000000;00:00:01.880=-54 -96 1188 2112 1.000000;00:00:02.040=535 950 10 19 1.000000</property>
    <property name="rotation">00:00:00.000=0;00:00:01.800=0;00:00:01.880=0;00:00:02.040=0</property>
    <property name="compositing">0</property>
    <property name="distort">0</property>
    <property name="kdenlive:collapsed">0</property>
   </filter>
  </entry>
  <entry producer="producer6" in="00:00:33.040" out="00:00:37.200">
   <property name="kdenlive:id">26</property>
   <filter id="filter37">
    <property name="rotate_center">1</property>
    <property name="mlt_service">qtblend</property>
    <property name="kdenlive_id">qtblend</property>
    <property name="rect">00:00:33.040=-1305 -2329 3708 6592 1.000000</property>
    <property name="rotation">00:00:33.040=0</property>
    <property name="compositing">0</property>
    <property name="distort">0</property>
    <property name="kdenlive:collapsed">0</property>
   </filter>
  </entry>
  <blank length="00:00:03.000"/>
  <entry producer="chain8" in="00:00:24.080" out="00:00:28.880">
   <property name="kdenlive:id">29</property>
   <property name="kdenlive:activeeffect">0</property>
   <filter id="filter38">
    <property name="rotate_center">1</property>
    <property name="mlt_service">qtblend</property>
    <property name="kdenlive_id">qtblend</property>
    <property name="rect">00:00:24.080=-1352 -3049 4518 8032 1.000000</property>
    <property name="rotation">00:00:24.080=0</property>
    <property name="compositing">0</property>
    <property name="distort">0</property>
    <property name="kdenlive:collapsed">0</property>
   </filter>
  </entry>
  <blank length="00:00:03.120"/>
  <entry producer="chain9" in="00:00:19.920" out="00:00:25.520">
   <property name="kdenlive:id">31</property>
   <property name="kdenlive:activeeffect">0</property>
   <filter id="filter39">
    <property name="rotate_center">1</property>
    <property name="mlt_service">qtblend</property>
    <property name="kdenlive_id">qtblend</property>
    <property name="rect">00:00:19.920=-1764 -3145 4626 8224 1.000000</property>
    <property name="rotation">00:00:19.920=0</property>
    <property name="compositing">0</property>
    <property name="distort">0</property>
    <property name="kdenlive:collapsed">0</property>
   </filter>
   <filter id="filter40" in="00:00:25.080" out="00:00:25.520">
    <property name="start">1</property>
    <property name="level">1</property>
    <property name="mlt_service">brightness</property>
    <property name="kdenlive_id">fade_to_black</property>
    <property name="alpha">00:00:00.000=1;00:00:00.440=0</property>
   </filter>
  </entry>
  <blank length="00:00:03.040"/>
  <entry producer="chain10" in="00:00:23.200" out="00:00:28.880">
   <property name="kdenlive:id">33</property>
   <property name="kdenlive:activeeffect">0</property>
   <filter id="filter41">
    <property name="rotate_center">1</property>
    <property name="mlt_service">qtblend</property>
    <property name="kdenlive_id">qtblend</property>
    <property name="rect">00:00:23.200=-1190 -2128 3483 6192 1.000000</property>
    <property name="rotation">00:00:23.200=0</property>
    <property name="compositing">0</property>
    <property name="distort">0</property>
    <property name="kdenlive:collapsed">0</property>
   </filter>
  </entry>
 </playlist>
 <playlist id="playlist9"/>
 <tractor id="tractor4" in="00:00:00.000" out="00:00:36.880">
  <property name="kdenlive:trackheight">67</property>
  <property name="kdenlive:timeline_active">1</property>
  <property name="kdenlive:collapsed">0</property>
  <property name="kdenlive:thumbs_format"/>
  <property name="kdenlive:audio_rec"/>
  <track hide="audio" producer="playlist8"/>
  <track hide="audio" producer="playlist9"/>
 </tractor>
 <producer id="producer7" in="00:00:00.000" out="00:00:04.960">
  <property name="length">00:00:05.000</property>
  <property name="eof">pause</property>
  <property name="resource">apollo-bust.png</property>
  <property name="ttl">25</property>
  <property name="aspect_ratio">1</property>
  <property name="progressive">1</property>
  <property name="seekable">1</property>
  <property name="format">2</property>
  <property name="meta.media.width">544</property>
  <property name="meta.media.height">800</property>
  <property name="mlt_service">qimage</property>
  <property name="kdenlive:clipname"/>
  <property name="kdenlive:duration">00:00:05:00</property>
  <property name="kdenlive:folderid">10</property>
  <property name="kdenlive:id">22</property>
  <property name="kdenlive:clip_type">2</property>
  <property name="kdenlive:file_size">418608</property>
  <property name="kdenlive:file_hash">e239ede1c324312c5d137b02373768b1</property>
 </producer>
 <chain id="chain11" out="00:01:33.720">
  <property name="length">2344</property>
  <property name="eof">pause</property>
  <property name="resource">STRONG Optical Illusion Gives You TRIPPY Hallucinations! 😵 [ZQAvj5rdgtY].webm</property>
  <property name="mlt_service">avformat-novalidate</property>
  <property name="seekable">1</property>
  <property name="format">3</property>
  <property name="audio_index">-1</property>
  <property name="video_index">0</property>
  <property name="mute_on_pause">0</property>
  <property name="kdenlive:clipname"/>
  <property name="kdenlive:clip_type">0</property>
  <property name="kdenlive:folderid">-1</property>
  <property name="kdenlive:id">28</property>
  <property name="kdenlive:file_size">218255799</property>
  <property name="kdenlive:file_hash">e5536ba6c9f36b10bac278113ce3d587</property>
  <property name="kdenlive:audio_max1">132</property>
  <property name="kdenlive:active_streams">-1</property>
  <property name="set.test_audio">1</property>
  <property name="meta.media.nb_streams">2</property>
  <property name="meta.media.0.stream.type">video</property>
  <property name="meta.media.0.stream.frame_rate">60</property>
  <property name="meta.media.0.stream.sample_aspect_ratio">1</property>
  <property name="meta.media.0.codec.width">3840</property>
  <property name="meta.media.0.codec.height">2160</property>
  <property name="meta.media.0.codec.rotate">0</property>
  <property name="meta.media.0.codec.pix_fmt">yuv420p</property>
  <property name="meta.media.0.codec.sample_aspect_ratio">0</property>
  <property name="meta.media.0.codec.colorspace">709</property>
  <property name="meta.media.0.codec.color_trc">1</property>
  <property name="meta.media.0.codec.name">vp9</property>
  <property name="meta.media.0.codec.long_name">Google VP9</property>
  <property name="meta.media.0.codec.bit_rate">0</property>
  <property name="meta.attr.0.stream.language.markup">eng</property>
  <property name="meta.attr.0.stream.DURATION.markup">00:01:33.666000000</property>
  <property name="meta.media.1.stream.type">audio</property>
  <property name="meta.media.1.codec.sample_fmt">fltp</property>
  <property name="meta.media.1.codec.sample_rate">48000</property>
  <property name="meta.media.1.codec.channels">2</property>
  <property name="meta.media.1.codec.name">opus</property>
  <property name="meta.media.1.codec.long_name">Opus</property>
  <property name="meta.media.1.codec.bit_rate">0</property>
  <property name="meta.attr.1.stream.language.markup">eng</property>
  <property name="meta.attr.1.stream.DURATION.markup">00:01:33.741000000</property>
  <property name="meta.attr.ENCODER.markup">Lavf59.27.100</property>
  <property name="meta.media.sample_aspect_num">1</property>
  <property name="meta.media.sample_aspect_den">1</property>
  <property name="meta.media.frame_rate_num">60</property>
  <property name="meta.media.frame_rate_den">1</property>
  <property name="meta.media.colorspace">709</property>
  <property name="meta.media.color_trc">1</property>
  <property name="meta.media.has_b_frames">0</property>
  <property name="meta.media.width">3840</property>
  <property name="meta.media.height">2160</property>
  <property name="meta.media.color_range">mpeg</property>
  <property name="xml">was here</property>
  <property name="meta.media.top_field_first">0</property>
  <property name="meta.media.progressive">1</property>
  <property name="set.test_image">0</property>
 </chain>
 <playlist id="playlist10">
  <blank length="00:00:00.280"/>
  <entry producer="producer3" in="00:00:00.000" out="00:00:00.640">
   <property name="kdenlive:id">20</property>
   <filter id="filter42">
    <property name="rotate_center">1</property>
    <property name="mlt_service">qtblend</property>
    <property name="kdenlive_id">qtblend</property>
    <property name="rect">00:00:00.000=782 710 259 461 1.000000;00:00:00.120=799 640 369 656 1.000000</property>
    <property name="rotation">00:00:00.000=-9;00:00:00.120=-9</property>
    <property name="compositing">0</property>
    <property name="distort">0</property>
    <property name="kdenlive:collapsed">0</property>
   </filter>
   <filter id="filter43" in="00:00:00.560" out="00:00:00.680">
    <property name="start">1</property>
    <property name="level">1</property>
    <property name="mlt_service">brightness</property>
    <property name="kdenlive_id">fade_to_black</property>
    <property name="alpha">00:00:00.000=1;00:00:00.120=0</property>
   </filter>
  </entry>
  <blank length="00:00:00.640"/>
  <entry producer="producer7" in="00:00:00.000" out="00:00:01.560">
   <property name="kdenlive:id">22</property>
   <property name="kdenlive:activeeffect">0</property>
   <filter id="filter44">
    <property name="rotate_center">1</property>
    <property name="mlt_service">qtblend</property>
    <property name="kdenlive_id">qtblend</property>
    <property name="rect">00:00:00.000=323 575 432 768 1.000000;00:00:00.160=-54 -96 1188 2112 1.000000;00:00:00.240=0 0 1080 1920 1.000000</property>
    <property name="rotation">00:00:00.000=0;00:00:00.160=0;00:00:00.240=0</property>
    <property name="compositing">0</property>
    <property name="distort">0</property>
    <property name="kdenlive:collapsed">1</property>
   </filter>
   <filter id="filter45">
    <property name="rotate_center">1</property>
    <property name="mlt_service">qtblend</property>
    <property name="kdenlive_id">qtblend</property>
    <property name="rect">00:00:00.000=270 38 540 960 1.000000</property>
    <property name="rotation">00:00:00.000=0</property>
    <property name="compositing">0</property>
    <property name="distort">0</property>
    <property name="kdenlive:collapsed">1</property>
   </filter>
   <filter id="filter46" in="00:00:01.280" out="00:00:01.560">
    <property name="start">1</property>
    <property name="level">1</property>
    <property name="mlt_service">brightness</property>
    <property name="kdenlive_id">fade_to_black</property>
    <property name="alpha">00:00:00.000=1;00:00:00.280=0</property>
    <property name="kdenlive:collapsed">0</property>
   </filter>
  </entry>
  <blank length="00:00:01.800"/>
  <entry producer="producer5" in="00:00:00.000" out="00:00:00.240">
   <property name="kdenlive:id">25</property>
   <property name="kdenlive:activeeffect">1</property>
   <filter id="filter47">
    <property name="rotate_center">1</property>
    <property name="mlt_service">qtblend</property>
    <property name="kdenlive_id">qtblend</property>
    <property name="rect">00:00:00.000=0 1920 1080 1920 1.000000;00:00:00.160=0 -106 1080 1920 1.000000;00:00:00.240=0 0 1080 1920 1.000000</property>
    <property name="rotation">00:00:00.000=0;00:00:00.160=0;00:00:00.240=0</property>
    <property name="compositing">0</property>
    <property name="distort">0</property>
    <property name="kdenlive:collapsed">1</property>
   </filter>
   <filter id="filter48">
    <property name="hradius">00:00:00.000=0;00:00:00.240=0</property>
    <property name="vradius">00:00:00.000=230;00:00:00.240=0</property>
    <property name="mlt_service">box_blur</property>
    <property name="kdenlive_id">box_blur</property>
    <property name="kdenlive:collapsed">0</property>
   </filter>
  </entry>
  <blank length="00:00:05.560"/>
  <entry producer="chain11" in="00:00:38.120" out="00:00:42.640">
   <property name="kdenlive:id">28</property>
   <filter id="filter49">
    <property name="rotate_center">1</property>
    <property name="mlt_service">qtblend</property>
    <property name="kdenlive_id">qtblend</property>
    <property name="rect">00:00:38.120=-425 -758 1937 3443 0.120000</property>
    <property name="rotation">00:00:38.120=90</property>
    <property name="compositing">0</property>
    <property name="distort">0</property>
    <property name="kdenlive:collapsed">0</property>
   </filter>
   <filter id="filter50" in="00:00:38.120" out="00:00:39.120">
    <property name="start">1</property>
    <property name="level">1</property>
    <property name="mlt_service">brightness</property>
    <property name="kdenlive_id">fade_from_black</property>
    <property name="alpha">00:00:00.000=0;00:00:01.000=1</property>
    <property name="kdenlive:collapsed">0</property>
   </filter>
   <filter id="filter51" in="00:00:41.840" out="00:00:42.680">
    <property name="start">1</property>
    <property name="level">1</property>
    <property name="mlt_service">brightness</property>
    <property name="kdenlive_id">fade_to_black</property>
    <property name="alpha">00:00:00.000=1;00:00:00.840=0</property>
    <property name="kdenlive:collapsed">0</property>
   </filter>
  </entry>
 </playlist>
 <playlist id="playlist11"/>
 <tractor id="tractor5" in="00:00:00.000" out="00:00:15.360">
  <property name="kdenlive:trackheight">67</property>
  <property name="kdenlive:timeline_active">1</property>
  <track producer="playlist10"/>
  <track producer="playlist11"/>
 </tractor>
 <producer id="producer8" in="00:00:00.000" out="00:00:04.960">
  <property name="length">00:00:05.000</property>
  <property name="eof">pause</property>
  <property name="resource">dionysus-bust.png</property>
  <property name="ttl">25</property>
  <property name="aspect_ratio">1</property>
  <property name="progressive">1</property>
  <property name="seekable">1</property>
  <property name="format">2</property>
  <property name="meta.media.width">601</property>
  <property name="meta.media.height">877</property>
  <property name="mlt_service">qimage</property>
  <property name="kdenlive:clipname"/>
  <property name="kdenlive:duration">00:00:05:00</property>
  <property name="kdenlive:folderid">10</property>
  <property name="kdenlive:id">24</property>
  <property name="kdenlive:clip_type">2</property>
  <property name="kdenlive:file_size">364576</property>
  <property name="kdenlive:file_hash">ef28442ba92daff00aee7dfb2e7cf74f</property>
 </producer>
 <playlist id="playlist12">
  <blank length="00:00:00.280"/>
  <entry producer="producer3" in="00:00:00.000" out="00:00:00.640">
   <property name="kdenlive:id">20</property>
   <filter id="filter52">
    <property name="rotate_center">1</property>
    <property name="mlt_service">qtblend</property>
    <property name="kdenlive_id">qtblend</property>
    <property name="rect">00:00:00.000=782 710 260 462 1.000000;00:00:00.120=782 698 369 656 1.000000</property>
    <property name="rotation">00:00:00.000=-27;00:00:00.120=8</property>
    <property name="compositing">0</property>
    <property name="distort">0</property>
    <property name="kdenlive:collapsed">0</property>
   </filter>
   <filter id="filter53" in="00:00:00.560" out="00:00:00.680">
    <property name="start">1</property>
    <property name="level">1</property>
    <property name="mlt_service">brightness</property>
    <property name="kdenlive_id">fade_to_black</property>
    <property name="alpha">00:00:00.000=1;00:00:00.120=0</property>
   </filter>
  </entry>
  <blank length="00:00:01.240"/>
  <entry producer="producer8" in="00:00:00.000" out="00:00:00.960">
   <property name="kdenlive:id">24</property>
   <filter id="filter54">
    <property name="rotate_center">1</property>
    <property name="mlt_service">qtblend</property>
    <property name="kdenlive_id">qtblend</property>
    <property name="rect">00:00:00.000=323 575 432 768 1.000000;00:00:00.160=-54 -96 1188 2112 1.000000;00:00:00.240=0 0 1080 1920 1.000000</property>
    <property name="rotation">00:00:00.000=0;00:00:00.160=0;00:00:00.240=0</property>
    <property name="compositing">0</property>
    <property name="distort">0</property>
    <property name="kdenlive:collapsed">1</property>
   </filter>
   <filter id="filter55">
    <property name="rotate_center">1</property>
    <property name="mlt_service">qtblend</property>
    <property name="kdenlive_id">qtblend</property>
    <property name="rect">00:00:00.000=270 928 540 960 1.000000</property>
    <property name="rotation">00:00:00.000=0</property>
    <property name="compositing">0</property>
    <property name="distort">0</property>
    <property name="kdenlive:collapsed">0</property>
   </filter>
   <filter id="filter56" in="00:00:00.680" out="00:00:00.960">
    <property name="start">1</property>
    <property name="level">1</property>
    <property name="mlt_service">brightness</property>
    <property name="kdenlive_id">fade_to_black</property>
    <property name="alpha">00:00:00.000=1;00:00:00.280=0</property>
   </filter>
  </entry>
 </playlist>
 <playlist id="playlist13"/>
 <tractor id="tractor6" in="00:00:00.000" out="00:00:03.160">
  <property name="kdenlive:trackheight">67</property>
  <property name="kdenlive:timeline_active">1</property>
  <track producer="playlist12"/>
  <track producer="playlist13"/>
 </tractor>
 <playlist id="playlist14">
  <blank length="00:00:00.280"/>
  <entry producer="producer3" in="00:00:00.000" out="00:00:00.640">
   <property name="kdenlive:id">20</property>
   <filter id="filter57">
    <property name="rotate_center">1</property>
    <property name="mlt_service">qtblend</property>
    <property name="kdenlive_id">qtblend</property>
    <property name="rect">00:00:00.000=782 710 259 461 1.000000;00:00:00.120=812 591 369 656 1.000000</property>
    <property name="rotation">00:00:00.000=-30;00:00:00.120=-30</property>
    <property name="compositing">0</property>
    <property name="distort">0</property>
    <property name="kdenlive:collapsed">0</property>
   </filter>
   <filter id="filter58">
    <property name="mlt_service">avfilter.hflip</property>
    <property name="kdenlive_id">avfilter.hflip</property>
    <property name="kdenlive:collapsed">0</property>
   </filter>
   <filter id="filter59" in="00:00:00.560" out="00:00:00.680">
    <property name="start">1</property>
    <property name="level">1</property>
    <property name="mlt_service">brightness</property>
    <property name="kdenlive_id">fade_to_black</property>
    <property name="alpha">00:00:00.000=1;00:00:00.120=0</property>
   </filter>
  </entry>
  <blank length="00:00:02.160"/>
  <entry producer="producer4" in="00:00:00.000" out="00:00:01.840">
   <property name="kdenlive:id">23</property>
   <filter id="filter60">
    <property name="rotate_center">1</property>
    <property name="mlt_service">qtblend</property>
    <property name="kdenlive_id">qtblend</property>
    <property name="rect">00:00:00.000=323 575 432 768 1.000000;00:00:00.160=-54 -96 1188 2112 1.000000;00:00:00.240=0 0 1080 1920 1.000000</property>
    <property name="rotation">00:00:00.000=0;00:00:00.160=0;00:00:00.240=0</property>
    <property name="compositing">0</property>
    <property name="distort">0</property>
    <property name="kdenlive:collapsed">1</property>
   </filter>
  </entry>
 </playlist>
 <playlist id="playlist15"/>
 <tractor id="tractor7" in="00:00:00.000" out="00:00:04.960">
  <property name="kdenlive:trackheight">67</property>
  <property name="kdenlive:timeline_active">1</property>
  <track producer="playlist14"/>
  <track producer="playlist15"/>
 </tractor>
 <playlist id="playlist16">
  <blank length="00:00:00.280"/>
  <entry producer="producer3" in="00:00:00.000" out="00:00:00.640">
   <property name="kdenlive:id">20</property>
   <filter id="filter61">
    <property name="rotate_center">1</property>
    <property name="mlt_service">qtblend</property>
    <property name="kdenlive_id">qtblend</property>
    <property name="rect">00:00:00.000=782 710 259 461 1.000000;00:00:00.120=799 640 369 656 1.000000</property>
    <property name="rotation">00:00:00.000=-9;00:00:00.120=-9</property>
    <property name="compositing">0</property>
    <property name="distort">0</property>
   </filter>
   <filter id="filter62">
    <property name="mlt_service">avfilter.hflip</property>
    <property name="kdenlive_id">avfilter.hflip</property>
   </filter>
   <filter id="filter63" in="00:00:00.560" out="00:00:00.680">
    <property name="start">1</property>
    <property name="level">1</property>
    <property name="mlt_service">brightness</property>
    <property name="kdenlive_id">fade_to_black</property>
    <property name="alpha">00:00:00.000=1;00:00:00.120=0</property>
   </filter>
  </entry>
 </playlist>
 <playlist id="playlist17"/>
 <tractor id="tractor8" in="00:00:00.000" out="00:00:00.920">
  <property name="kdenlive:trackheight">67</property>
  <property name="kdenlive:timeline_active">1</property>
  <track producer="playlist16"/>
  <track producer="playlist17"/>
 </tractor>
 <playlist id="playlist18">
  <blank length="00:00:00.280"/>
  <entry producer="producer3" in="00:00:00.000" out="00:00:00.640">
   <property name="kdenlive:id">20</property>
   <filter id="filter64">
    <property name="rotate_center">1</property>
    <property name="mlt_service">qtblend</property>
    <property name="kdenlive_id">qtblend</property>
    <property name="rect">00:00:00.000=782 710 260 462 1.000000;00:00:00.120=782 698 369 656 1.000000</property>
    <property name="rotation">00:00:00.000=-27;00:00:00.120=8</property>
    <property name="compositing">0</property>
    <property name="distort">0</property>
    <property name="kdenlive:collapsed">0</property>
   </filter>
   <filter id="filter65">
    <property name="mlt_service">avfilter.hflip</property>
    <property name="kdenlive_id">avfilter.hflip</property>
    <property name="kdenlive:collapsed">0</property>
   </filter>
   <filter id="filter66" in="00:00:00.560" out="00:00:00.680">
    <property name="start">1</property>
    <property name="level">1</property>
    <property name="mlt_service">brightness</property>
    <property name="kdenlive_id">fade_to_black</property>
    <property name="alpha">00:00:00.000=1;00:00:00.120=0</property>
    <property name="kdenlive:collapsed">0</property>
   </filter>
  </entry>
 </playlist>
 <playlist id="playlist19"/>
 <tractor id="tractor9" in="00:00:00.000" out="00:00:00.920">
  <property name="kdenlive:trackheight">67</property>
  <property name="kdenlive:timeline_active">1</property>
  <track producer="playlist18"/>
  <track producer="playlist19"/>
 </tractor>
 <chain id="chain12" out="00:00:15.000">
  <property name="length">376</property>
  <property name="eof">pause</property>
  <property name="resource">Golden Center Light Rays [Hui0WM-2yIg].webm</property>
  <property name="mlt_service">avformat-novalidate</property>
  <property name="seekable">1</property>
  <property name="format">3</property>
  <property name="audio_index">-1</property>
  <property name="video_index">0</property>
  <property name="mute_on_pause">0</property>
  <property name="kdenlive:clipname"/>
  <property name="kdenlive:clip_type">0</property>
  <property name="kdenlive:folderid">8</property>
  <property name="kdenlive:id">19</property>
  <property name="kdenlive:file_size">601529</property>
  <property name="kdenlive:file_hash">8e6aa13b8036bb6eb149ba47739ec6bf</property>
  <property name="kdenlive:audio_max1">1</property>
  <property name="kdenlive:active_streams">-1</property>
  <property name="set.test_audio">1</property>
  <property name="meta.media.nb_streams">2</property>
  <property name="meta.media.0.stream.type">video</property>
  <property name="meta.media.0.stream.frame_rate">23.976</property>
  <property name="meta.media.0.stream.sample_aspect_ratio">1</property>
  <property name="meta.media.0.codec.width">1920</property>
  <property name="meta.media.0.codec.height">1080</property>
  <property name="meta.media.0.codec.rotate">0</property>
  <property name="meta.media.0.codec.pix_fmt">yuv420p</property>
  <property name="meta.media.0.codec.sample_aspect_ratio">0</property>
  <property name="meta.media.0.codec.colorspace">709</property>
  <property name="meta.media.0.codec.color_trc">1</property>
  <property name="meta.media.0.codec.name">vp9</property>
  <property name="meta.media.0.codec.long_name">Google VP9</property>
  <property name="meta.media.0.codec.bit_rate">0</property>
  <property name="meta.attr.0.stream.language.markup">eng</property>
  <property name="meta.attr.0.stream.DURATION.markup">00:00:15.014000000</property>
  <property name="meta.media.1.stream.type">audio</property>
  <property name="meta.media.1.codec.sample_fmt">fltp</property>
  <property name="meta.media.1.codec.sample_rate">48000</property>
  <property name="meta.media.1.codec.channels">2</property>
  <property name="meta.media.1.codec.name">opus</property>
  <property name="meta.media.1.codec.long_name">Opus</property>
  <property name="meta.media.1.codec.bit_rate">0</property>
  <property name="meta.attr.1.stream.language.markup">eng</property>
  <property name="meta.attr.1.stream.DURATION.markup">00:00:15.041000000</property>
  <property name="meta.attr.ENCODER.markup">Lavf59.27.100</property>
  <property name="meta.media.sample_aspect_num">1</property>
  <property name="meta.media.sample_aspect_den">1</property>
  <property name="meta.media.frame_rate_num">24000</property>
  <property name="meta.media.frame_rate_den">1001</property>
  <property name="meta.media.colorspace">709</property>
  <property name="meta.media.color_trc">1</property>
  <property name="meta.media.has_b_frames">0</property>
  <property name="meta.media.width">1920</property>
  <property name="meta.media.height">1080</property>
  <property name="meta.media.color_range">mpeg</property>
  <property name="xml">was here</property>
  <property name="meta.media.top_field_first">0</property>
  <property name="meta.media.progressive">1</property>
  <property name="set.test_image">0</property>
 </chain>
 <playlist id="playlist20">
  <blank length="00:00:00.080"/>
  <entry producer="chain12" in="00:00:00.000" out="00:00:00.360">
   <property name="kdenlive:id">19</property>
   <filter id="filter67">
    <property name="version">0.6</property>
    <property name="mlt_service">frei0r.select0r</property>
    <property name="kdenlive_id">frei0r.select0r</property>
    <property name="Color to select">00:00:00.000=0x501d07ff</property>
    <property name="Invert selection">1</property>
    <property name="Selection subspace">0</property>
    <property name="Subspace shape">0.5</property>
    <property name="Edge mode">0.9</property>
    <property name="Delta R / A / Hue">00:00:00.000=0.2</property>
    <property name="Delta G / B / Chroma">00:00:00.000=0.2</property>
    <property name="Delta B / I / I">00:00:00.000=0.2</property>
    <property name="Slope">00:00:00.000=1</property>
    <property name="Operation">0.5</property>
    <property name="kdenlive:collapsed">1</property>
    <properties name="ctor-0x7f2b296236c0"/>
    <properties name="ctor-0x7f2b917fa6c0"/>
    <properties name="ctor-0x7f29e9ffa6c0"/>
   </filter>
   <filter id="filter68">
    <property name="version">0.1</property>
    <property name="mlt_service">frei0r.alphaspot</property>
    <property name="kdenlive_id">frei0r.alphaspot</property>
    <property name="Shape">0.38</property>
    <property name="Position X">00:00:00.000=0.5</property>
    <property name="Position Y">00:00:00.000=0.5</property>
    <property name="Size X">00:00:00.000=0.405</property>
    <property name="Size Y">00:00:00.000=0.543</property>
    <property name="Tilt">00:00:00.000=0.5</property>
    <property name="Transition width">00:00:00.000=0.273</property>
    <property name="Min">00:00:00.000=0</property>
    <property name="Max">00:00:00.000=1</property>
    <property name="Operation">0</property>
    <properties name="ctor-0x7f2b296236c0"/>
    <property name="kdenlive:collapsed">1</property>
    <property name="disable">0</property>
    <properties name="ctor-0x7f2b917fa6c0"/>
    <properties name="ctor-0x7f29e9ffa6c0"/>
   </filter>
   <filter id="filter69">
    <property name="rotate_center">1</property>
    <property name="mlt_service">qtblend</property>
    <property name="kdenlive_id">qtblend</property>
    <property name="rect">00:00:00.000=163 -250 1080 1920 1.000000</property>
    <property name="rotation">00:00:00.000=0</property>
    <property name="compositing">0</property>
    <property name="distort">0</property>
    <property name="kdenlive:collapsed">0</property>
   </filter>
   <filter id="filter70" out="00:00:00.120">
    <property name="start">1</property>
    <property name="level">1</property>
    <property name="mlt_service">brightness</property>
    <property name="kdenlive_id">fade_from_black</property>
    <property name="alpha">00:00:00.000=0;00:00:00.120=1</property>
    <property name="kdenlive:collapsed">0</property>
   </filter>
   <filter id="filter71" in="00:00:00.280" out="00:00:00.400">
    <property name="start">1</property>
    <property name="level">1</property>
    <property name="mlt_service">brightness</property>
    <property name="kdenlive_id">fade_to_black</property>
    <property name="alpha">00:00:00.000=1;00:00:00.120=0</property>
    <property name="kdenlive:collapsed">0</property>
   </filter>
  </entry>
 </playlist>
 <playlist id="playlist21"/>
 <tractor id="tractor10" in="00:00:00.000" out="00:00:00.440">
  <property name="kdenlive:trackheight">67</property>
  <property name="kdenlive:timeline_active">1</property>
  <track producer="playlist20"/>
  <track producer="playlist21"/>
 </tractor>
 <producer id="producer9" in="00:00:00.000" out="00:00:04.960">
  <property name="length">00:00:05.000</property>
  <property name="eof">pause</property>
  <property name="resource">the real culture war-full.png</property>
  <property name="ttl">25</property>
  <property name="aspect_ratio">1</property>
  <property name="progressive">1</property>
  <property name="seekable">1</property>
  <property name="format">2</property>
  <property name="meta.media.width">1080</property>
  <property name="meta.media.height">1920</property>
  <property name="mlt_service">qimage</property>
  <property name="kdenlive:clipname"/>
  <property name="kdenlive:duration">00:00:05:00</property>
  <property name="kdenlive:folderid">18</property>
  <property name="kdenlive:id">11</property>
  <property name="kdenlive:clip_type">2</property>
  <property name="kdenlive:file_size">42323</property>
  <property name="kdenlive:file_hash">1753381a0235e310b7d168f335923f00</property>
 </producer>
 <playlist id="playlist22">
  <entry producer="producer9" in="00:00:00.000" out="00:00:01.040">
   <property name="kdenlive:id">11</property>
   <filter id="filter72">
    <property name="rotate_center">1</property>
    <property name="mlt_service">qtblend</property>
    <property name="kdenlive_id">qtblend</property>
    <property name="rect">00:00:00.000=162 288 756 1344 1.000000;00:00:00.080=-54 -96 1188 2112 1.000000;00:00:00.120=0 0 1080 1920 1.000000;00:00:00.920=0 0 1080 1920 1.000000;00:00:00.960=-54 -96 1188 2112 1.000000;00:00:01.040=162 288 756 1344 1.000000</property>
    <property name="rotation">00:00:00.000=0;00:00:00.080=0;00:00:00.120=0;00:00:00.920=0;00:00:00.960=0;00:00:01.040=0</property>
    <property name="compositing">0</property>
    <property name="distort">0</property>
    <property name="kdenlive:collapsed">0</property>
   </filter>
  </entry>
 </playlist>
 <playlist id="playlist23"/>
 <tractor id="tractor11" in="00:00:00.000" out="00:00:01.040">
  <property name="kdenlive:trackheight">67</property>
  <property name="kdenlive:timeline_active">1</property>
  <track producer="playlist22"/>
  <track producer="playlist23"/>
 </tractor>
 <producer id="producer10" in="00:00:00.000" out="00:00:04.960">
  <property name="length">00:00:05.000</property>
  <property name="eof">pause</property>
  <property name="resource">the real culture war-h0.png</property>
  <property name="ttl">25</property>
  <property name="aspect_ratio">1</property>
  <property name="progressive">1</property>
  <property name="seekable">1</property>
  <property name="format">2</property>
  <property name="meta.media.width">1080</property>
  <property name="meta.media.height">1920</property>
  <property name="mlt_service">qimage</property>
  <property name="kdenlive:clipname"/>
  <property name="kdenlive:duration">00:00:05:00</property>
  <property name="kdenlive:folderid">18</property>
  <property name="kdenlive:id">12</property>
  <property name="kdenlive:clip_type">2</property>
  <property name="kdenlive:file_size">9361</property>
  <property name="kdenlive:file_hash">9d9c9b370ebfdd79941731666d293e88</property>
 </producer>
 <producer id="producer11" in="00:00:00.000" out="00:00:04.960">
  <property name="length">00:00:05.000</property>
  <property name="eof">pause</property>
  <property name="resource">the real culture war-h1.png</property>
  <property name="ttl">25</property>
  <property name="aspect_ratio">1</property>
  <property name="progressive">1</property>
  <property name="seekable">1</property>
  <property name="format">2</property>
  <property name="meta.media.width">1080</property>
  <property name="meta.media.height">1920</property>
  <property name="mlt_service">qimage</property>
  <property name="kdenlive:clipname"/>
  <property name="kdenlive:duration">00:00:05:00</property>
  <property name="kdenlive:folderid">18</property>
  <property name="kdenlive:id">13</property>
  <property name="kdenlive:clip_type">2</property>
  <property name="kdenlive:file_size">13233</property>
  <property name="kdenlive:file_hash">4631337ee4bcba7b13dbfe36d28231f7</property>
 </producer>
 <producer id="producer12" in="00:00:00.000" out="00:00:04.960">
  <property name="length">00:00:05.000</property>
  <property name="eof">pause</property>
  <property name="resource">the real culture war-h2.png</property>
  <property name="ttl">25</property>
  <property name="aspect_ratio">1</property>
  <property name="progressive">1</property>
  <property name="seekable">1</property>
  <property name="format">2</property>
  <property name="meta.media.width">1080</property>
  <property name="meta.media.height">1920</property>
  <property name="mlt_service">qimage</property>
  <property name="kdenlive:clipname"/>
  <property name="kdenlive:duration">00:00:05:00</property>
  <property name="kdenlive:folderid">18</property>
  <property name="kdenlive:id">14</property>
  <property name="kdenlive:clip_type">2</property>
  <property name="kdenlive:file_size">12966</property>
  <property name="kdenlive:file_hash">a006cbccf38bfd0a23bfb14f3819c469</property>
 </producer>
 <producer id="producer13" in="00:00:00.000" out="00:00:04.960">
  <property name="length">00:00:05.000</property>
  <property name="eof">pause</property>
  <property name="resource">the real culture war-h3.png</property>
  <property name="ttl">25</property>
  <property name="aspect_ratio">1</property>
  <property name="progressive">1</property>
  <property name="seekable">1</property>
  <property name="format">2</property>
  <property name="meta.media.width">1080</property>
  <property name="meta.media.height">1920</property>
  <property name="mlt_service">qimage</property>
  <property name="kdenlive:clipname"/>
  <property name="kdenlive:duration">00:00:05:00</property>
  <property name="kdenlive:folderid">18</property>
  <property name="kdenlive:id">15</property>
  <property name="kdenlive:clip_type">2</property>
  <property name="kdenlive:file_size">13664</property>
  <property name="kdenlive:file_hash">2f9380e22995b7d33a1f51ded57310ed</property>
 </producer>
 <playlist id="playlist24">
  <entry producer="producer10" in="00:00:00.000" out="00:00:00.040">
   <property name="kdenlive:id">12</property>
   <filter id="filter73">
    <property name="rotate_center">1</property>
    <property name="mlt_service">qtblend</property>
    <property name="kdenlive_id">qtblend</property>
    <property name="rect">00:00:00.000=162 288 756 1344 1.000000;00:00:00.040=54 96 972 1728 1.000000</property>
    <property name="rotation">00:00:00.000=0;00:00:00.040=0</property>
    <property name="compositing">0</property>
    <property name="distort">0</property>
    <property name="kdenlive:collapsed">0</property>
   </filter>
  </entry>
  <entry producer="producer11" in="00:00:00.000" out="00:00:00.280">
   <property name="kdenlive:id">13</property>
   <filter id="filter74">
    <property name="rotate_center">1</property>
    <property name="mlt_service">qtblend</property>
    <property name="kdenlive_id">qtblend</property>
    <property name="rect">00:00:00.000=-54 -96 1188 2112 1.000000;00:00:00.040=0 0 1080 1920 1.000000</property>
    <property name="rotation">00:00:00.000=0;00:00:00.040=0</property>
    <property name="compositing">0</property>
    <property name="distort">0</property>
    <property name="kdenlive:collapsed">0</property>
   </filter>
  </entry>
  <entry producer="producer12" in="00:00:00.000" out="00:00:00.280">
   <property name="kdenlive:id">14</property>
  </entry>
  <entry producer="producer13" in="00:00:00.000" out="00:00:00.200">
   <property name="kdenlive:id">15</property>
   <filter id="filter75" in="00:00:00.080" out="00:00:00.200">
    <property name="start">1</property>
    <property name="level">1</property>
    <property name="mlt_service">brightness</property>
    <property name="kdenlive_id">fade_to_black</property>
    <property name="alpha">00:00:00.000=1;00:00:00.120=0</property>
    <property name="kdenlive:collapsed">0</property>
   </filter>
  </entry>
 </playlist>
 <playlist id="playlist25"/>
 <tractor id="tractor12" in="00:00:00.000" out="00:00:00.920">
  <property name="kdenlive:trackheight">67</property>
  <property name="kdenlive:timeline_active">1</property>
  <track producer="playlist24"/>
  <track producer="playlist25"/>
 </tractor>
 <tractor id="{644355f9-7503-49df-8389-270348fbf9d6}" in="00:00:00.000" out="00:20:44.640">
  <property name="kdenlive:uuid">{644355f9-7503-49df-8389-270348fbf9d6}</property>
  <property name="kdenlive:clipname">Sequence 1</property>
  <property name="kdenlive:sequenceproperties.hasAudio">1</property>
  <property name="kdenlive:sequenceproperties.hasVideo">1</property>
  <property name="kdenlive:sequenceproperties.activeTrack">4</property>
  <property name="kdenlive:sequenceproperties.tracksCount">13</property>
  <property name="kdenlive:sequenceproperties.documentuuid">{644355f9-7503-49df-8389-270348fbf9d6}</property>
  <property name="kdenlive:duration">00:00:44:16</property>
  <property name="kdenlive:maxduration">1116</property>
  <property name="kdenlive:producer_type">17</property>
  <property name="kdenlive:id">3</property>
  <property name="kdenlive:clip_type">0</property>
  <property name="kdenlive:file_hash">06c6a7415b46c04ff54a286b841e81e1</property>
  <property name="kdenlive:folderid">2</property>
  <property name="kdenlive:sequenceproperties.audioChannels">2</property>
  <property name="kdenlive:sequenceproperties.audioTarget">1</property>
  <property name="kdenlive:sequenceproperties.tracks">4</property>
  <property name="kdenlive:sequenceproperties.verticalzoom">1</property>
  <property name="kdenlive:sequenceproperties.videoTarget">2</property>
  <property name="kdenlive:sequenceproperties.zonein">0</property>
  <property name="kdenlive:sequenceproperties.zoneout">27</property>
  <property name="kdenlive:sequenceproperties.zoom">7</property>
  <property name="kdenlive:sequenceproperties.groups">[
]
</property>
  <property name="kdenlive:sequenceproperties.guides">[
]
</property>
  <property name="kdenlive:sequenceproperties.position">715</property>
  <property name="kdenlive:sequenceproperties.scrollPos">0</property>
  <property name="kdenlive:sequenceproperties.disablepreview">0</property>
  <track producer="producer0"/>
  <track producer="tractor0"/>
  <track producer="tractor1"/>
  <track producer="tractor2"/>
  <track producer="tractor3"/>
  <track producer="tractor4"/>
  <track producer="tractor5"/>
  <track producer="tractor6"/>
  <track producer="tractor7"/>
  <track producer="tractor8"/>
  <track producer="tractor9"/>
  <track producer="tractor10"/>
  <track producer="tractor11"/>
  <track producer="tractor12"/>
  <transition id="transition0">
   <property name="a_track">0</property>
   <property name="b_track">1</property>
   <property name="mlt_service">mix</property>
   <property name="kdenlive_id">mix</property>
   <property name="internal_added">237</property>
   <property name="always_active">1</property>
   <property name="accepts_blanks">1</property>
   <property name="sum">1</property>
  </transition>
  <transition id="transition1">
   <property name="a_track">0</property>
   <property name="b_track">2</property>
   <property name="mlt_service">mix</property>
   <property name="kdenlive_id">mix</property>
   <property name="internal_added">237</property>
   <property name="always_active">1</property>
   <property name="accepts_blanks">1</property>
   <property name="sum">1</property>
  </transition>
  <transition id="transition2">
   <property name="a_track">0</property>
   <property name="b_track">3</property>
   <property name="mlt_service">mix</property>
   <property name="kdenlive_id">mix</property>
   <property name="internal_added">237</property>
   <property name="always_active">1</property>
   <property name="accepts_blanks">1</property>
   <property name="sum">1</property>
  </transition>
  <transition id="transition3" in="00:00:36.240" out="00:00:36.880">
   <property name="a_track">4</property>
   <property name="b_track">5</property>
   <property name="geometry">00:00:00.000=0% 0% 100% 100% 100%;00:00:00.640=0% 0% 100% 100% 0%</property>
   <property name="factory">loader</property>
   <property name="aligned">0</property>
   <property name="progressive">1</property>
   <property name="mlt_service">composite</property>
   <property name="kdenlive_id">wipe</property>
   <property name="luma"/>
   <property name="softness">0</property>
   <property name="luma_invert">0</property>
   <property name="fill">1</property>
  </transition>
  <transition id="transition4" in="00:00:31.200" out="00:00:32.120">
   <property name="a_track">4</property>
   <property name="b_track">5</property>
   <property name="geometry">00:00:00.000=0% 0% 100% 100% 0%;00:00:00.920=0% 0% 100% 100% 100%</property>
   <property name="factory">loader</property>
   <property name="aligned">0</property>
   <property name="progressive">1</property>
   <property name="mlt_service">composite</property>
   <property name="kdenlive_id">wipe</property>
   <property name="luma"/>
   <property name="softness">0</property>
   <property name="luma_invert">0</property>
   <property name="fill">1</property>
   <property name="force_track">0</property>
  </transition>
  <transition id="transition5" in="00:00:22.520" out="00:00:23.360">
   <property name="a_track">4</property>
   <property name="b_track">5</property>
   <property name="geometry">00:00:00.000=0% 0% 100% 100% 0%;00:00:00.840=0% 0% 100% 100% 100%</property>
   <property name="factory">loader</property>
   <property name="aligned">0</property>
   <property name="progressive">1</property>
   <property name="mlt_service">composite</property>
   <property name="kdenlive_id">wipe</property>
   <property name="luma"/>
   <property name="softness">0</property>
   <property name="luma_invert">0</property>
   <property name="fill">1</property>
  </transition>
  <transition id="transition6" in="00:00:18.480" out="00:00:19.360">
   <property name="a_track">4</property>
   <property name="b_track">5</property>
   <property name="geometry">00:00:00.000=0% 0% 100% 100% 100%;00:00:00.880=0% 0% 100% 100% 0%</property>
   <property name="factory">loader</property>
   <property name="aligned">0</property>
   <property name="progressive">1</property>
   <property name="mlt_service">composite</property>
   <property name="kdenlive_id">wipe</property>
   <property name="luma"/>
   <property name="softness">0</property>
   <property name="luma_invert">0</property>
   <property name="fill">1</property>
  </transition>
  <transition id="transition7" in="00:00:10.840" out="00:00:11.520">
   <property name="a_track">4</property>
   <property name="b_track">5</property>
   <property name="geometry">00:00:00.000=0% 0% 100% 100% 100%;00:00:00.680=0% 0% 100% 100% 0%</property>
   <property name="factory">loader</property>
   <property name="aligned">0</property>
   <property name="progressive">1</property>
   <property name="mlt_service">composite</property>
   <property name="kdenlive_id">wipe</property>
   <property name="luma"/>
   <property name="softness">0</property>
   <property name="luma_invert">0</property>
   <property name="fill">1</property>
  </transition>
  <transition id="transition8" in="00:00:14.560" out="00:00:15.360">
   <property name="a_track">4</property>
   <property name="b_track">5</property>
   <property name="geometry">00:00:00.000=0% 0% 100% 100% 0%;00:00:00.800=0% 0% 100% 100% 100%</property>
   <property name="factory">loader</property>
   <property name="aligned">0</property>
   <property name="progressive">1</property>
   <property name="mlt_service">composite</property>
   <property name="kdenlive_id">wipe</property>
   <property name="luma"/>
   <property name="softness">0</property>
   <property name="luma_invert">0</property>
   <property name="fill">1</property>
  </transition>
  <transition id="transition9" in="00:00:07.360" out="00:00:07.880">
   <property name="a_track">4</property>
   <property name="b_track">5</property>
   <property name="geometry">00:00:00.000=0% 0% 100% 100% 0%;00:00:00.520=0% 0% 100% 100% 100%</property>
   <property name="factory">loader</property>
   <property name="aligned">0</property>
   <property name="progressive">1</property>
   <property name="mlt_service">composite</property>
   <property name="kdenlive_id">wipe</property>
   <property name="luma"/>
   <property name="softness">0</property>
   <property name="luma_invert">0</property>
   <property name="fill">1</property>
  </transition>
  <transition id="transition10">
   <property name="a_track">0</property>
   <property name="b_track">4</property>
   <property name="version">0.1</property>
   <property name="mlt_service">frei0r.cairoblend</property>
   <property name="kdenlive_id">frei0r.cairoblend</property>
   <property name="internal_added">237</property>
   <property name="always_active">1</property>
   <properties name="ctor-0x7f2b917fa6c0"/>
   <properties name="ctor-0x7f2bb7fff6c0"/>
   <properties name="ctor-0x7f2b296236c0"/>
   <properties name="ctor-0x7f2ad0e226c0"/>
   <properties name="ctor-0x7f2aa361f6c0"/>
   <properties name="ctor-0x7f29e9ffa6c0"/>
   <properties name="ctor-0x7f2a2a6106c0"/>
   <properties name="ctor-0x7f29f97fd6c0"/>
   <properties name="ctor-0x7f29ca7fc6c0"/>
  </transition>
  <transition id="transition11">
   <property name="a_track">0</property>
   <property name="b_track">5</property>
   <property name="version">0.1</property>
   <property name="mlt_service">frei0r.cairoblend</property>
   <property name="kdenlive_id">frei0r.cairoblend</property>
   <property name="internal_added">237</property>
   <property name="always_active">1</property>
   <properties name="ctor-0x7f2b296236c0"/>
   <properties name="ctor-0x7f2b917fa6c0"/>
   <properties name="ctor-0x7f2bb7fff6c0"/>
   <properties name="ctor-0x7f2bc0ff96c0"/>
   <properties name="ctor-0x7f2ad0e226c0"/>
   <properties name="ctor-0x7f2aa4ff96c0"/>
   <properties name="ctor-0x7f2a537f86c0"/>
   <properties name="ctor-0x7f2a51ff56c0"/>
   <properties name="ctor-0x7f29e9ffa6c0"/>
   <properties name="ctor-0x7f2a2a6106c0"/>
   <properties name="ctor-0x7f29f97fd6c0"/>
  </transition>
  <transition id="transition12">
   <property name="a_track">0</property>
   <property name="b_track">6</property>
   <property name="version">0.1</property>
   <property name="mlt_service">frei0r.cairoblend</property>
   <property name="kdenlive_id">frei0r.cairoblend</property>
   <property name="internal_added">237</property>
   <property name="always_active">1</property>
   <properties name="ctor-0x7f2b296236c0"/>
   <properties name="ctor-0x7f2b917fa6c0"/>
   <properties name="ctor-0x7f2bb7fff6c0"/>
   <properties name="ctor-0x7f2bc0ff96c0"/>
   <properties name="ctor-0x7f2aa361f6c0"/>
   <properties name="ctor-0x7f2aa4ff96c0"/>
   <properties name="ctor-0x7f2a537f86c0"/>
   <properties name="ctor-0x7f2a51ff56c0"/>
   <properties name="ctor-0x7f29e9ffa6c0"/>
  </transition>
  <transition id="transition13">
   <property name="a_track">0</property>
   <property name="b_track">7</property>
   <property name="version">0.1</property>
   <property name="mlt_service">frei0r.cairoblend</property>
   <property name="kdenlive_id">frei0r.cairoblend</property>
   <property name="internal_added">237</property>
   <property name="always_active">1</property>
   <properties name="ctor-0x7f2b296236c0"/>
   <properties name="ctor-0x7f2b917fa6c0"/>
   <properties name="ctor-0x7f2bb7fff6c0"/>
   <properties name="ctor-0x7f2bc0ff96c0"/>
   <properties name="ctor-0x7f29e9ffa6c0"/>
   <properties name="ctor-0x7f29ca7fc6c0"/>
  </transition>
  <transition id="transition14">
   <property name="a_track">0</property>
   <property name="b_track">8</property>
   <property name="version">0.1</property>
   <property name="mlt_service">frei0r.cairoblend</property>
   <property name="kdenlive_id">frei0r.cairoblend</property>
   <property name="internal_added">237</property>
   <property name="always_active">1</property>
   <properties name="ctor-0x7f2b296236c0"/>
   <properties name="ctor-0x7f2b917fa6c0"/>
   <properties name="ctor-0x7f2bb7fff6c0"/>
  </transition>
  <transition id="transition15">
   <property name="a_track">0</property>
   <property name="b_track">9</property>
   <property name="version">0.1</property>
   <property name="mlt_service">frei0r.cairoblend</property>
   <property name="kdenlive_id">frei0r.cairoblend</property>
   <property name="internal_added">237</property>
   <property name="always_active">1</property>
   <properties name="ctor-0x7f2b296236c0"/>
   <properties name="ctor-0x7f2b917fa6c0"/>
  </transition>
  <transition id="transition16">
   <property name="a_track">0</property>
   <property name="b_track">10</property>
   <property name="version">0.1</property>
   <property name="mlt_service">frei0r.cairoblend</property>
   <property name="kdenlive_id">frei0r.cairoblend</property>
   <property name="internal_added">237</property>
   <property name="always_active">1</property>
   <properties name="ctor-0x7f2b296236c0"/>
   <properties name="ctor-0x7f2b917fa6c0"/>
   <properties name="ctor-0x7f2bb7fff6c0"/>
  </transition>
  <transition id="transition17">
   <property name="a_track">0</property>
   <property name="b_track">11</property>
   <property name="version">0.1</property>
   <property name="mlt_service">frei0r.cairoblend</property>
   <property name="kdenlive_id">frei0r.cairoblend</property>
   <property name="internal_added">237</property>
   <property name="always_active">1</property>
   <properties name="ctor-0x7f2b296236c0"/>
   <properties name="ctor-0x7f2b917fa6c0"/>
   <properties name="ctor-0x7f29e9ffa6c0"/>
  </transition>
  <transition id="transition18">
   <property name="a_track">0</property>
   <property name="b_track">12</property>
   <property name="version">0.1</property>
   <property name="mlt_service">frei0r.cairoblend</property>
   <property name="kdenlive_id">frei0r.cairoblend</property>
   <property name="internal_added">237</property>
   <property name="always_active">1</property>
   <properties name="ctor-0x7f2b296236c0"/>
   <properties name="ctor-0x7f2b917fa6c0"/>
   <properties name="ctor-0x7f29e9ffa6c0"/>
  </transition>
  <transition id="transition19">
   <property name="a_track">0</property>
   <property name="b_track">13</property>
   <property name="version">0.1</property>
   <property name="mlt_service">frei0r.cairoblend</property>
   <property name="kdenlive_id">frei0r.cairoblend</property>
   <property name="internal_added">237</property>
   <property name="always_active">1</property>
   <properties name="ctor-0x7f2b296236c0"/>
   <properties name="ctor-0x7f2b917fa6c0"/>
   <properties name="ctor-0x7f29e9ffa6c0"/>
  </transition>
  <filter id="filter76">
   <property name="window">75</property>
   <property name="max_gain">20dB</property>
   <property name="mlt_service">volume</property>
   <property name="internal_added">237</property>
   <property name="disable">1</property>
  </filter>
  <filter id="filter77">
   <property name="channel">-1</property>
   <property name="mlt_service">panner</property>
   <property name="internal_added">237</property>
   <property name="start">0.5</property>
   <property name="disable">1</property>
  </filter>
 </tractor>
 <chain id="chain13" out="00:00:44.600">
  <property name="length">1116</property>
  <property name="eof">pause</property>
  <property name="resource">proc.mp3</property>
  <property name="mlt_service">avformat</property>
  <property name="meta.media.nb_streams">1</property>
  <property name="meta.media.0.stream.type">audio</property>
  <property name="meta.media.0.codec.sample_fmt">fltp</property>
  <property name="meta.media.0.codec.sample_rate">44100</property>
  <property name="meta.media.0.codec.channels">2</property>
  <property name="meta.media.0.codec.name">mp3float</property>
  <property name="meta.media.0.codec.long_name">MP3 (MPEG audio layer 3)</property>
  <property name="meta.media.0.codec.bit_rate">192000</property>
  <property name="meta.attr.encoded_by.markup">LAME in FL Studio 21</property>
  <property name="meta.attr.date.markup">2024</property>
  <property name="seekable">1</property>
  <property name="audio_index">0</property>
  <property name="video_index">-1</property>
  <property name="mute_on_pause">1</property>
  <property name="kdenlive:clipname"/>
  <property name="kdenlive:clip_type">1</property>
  <property name="kdenlive:folderid">5</property>
  <property name="kdenlive:id">4</property>
  <property name="kdenlive:file_size">1071494</property>
  <property name="kdenlive:file_hash">a815c1930cf25aa6d6dc00b4ce2c0ed5</property>
  <property name="kdenlive:audio_max0">192</property>
 </chain>
 <chain id="chain14" out="00:03:20.480">
  <property name="length">5013</property>
  <property name="eof">pause</property>
  <property name="resource">/home/liquidzulu/Music/classical/Mozart - Lacrimosa [k1-TrAvp_xs].mp3</property>
  <property name="mlt_service">avformat</property>
  <property name="meta.media.nb_streams">1</property>
  <property name="meta.media.0.stream.type">audio</property>
  <property name="meta.media.0.codec.sample_fmt">fltp</property>
  <property name="meta.media.0.codec.sample_rate">48000</property>
  <property name="meta.media.0.codec.channels">2</property>
  <property name="meta.media.0.codec.name">mp3float</property>
  <property name="meta.media.0.codec.long_name">MP3 (MPEG audio layer 3)</property>
  <property name="meta.media.0.codec.bit_rate">106837</property>
  <property name="meta.attr.0.stream.encoder.markup">Lavc59.37</property>
  <property name="meta.attr.encoder.markup">Lavf59.27.100</property>
  <property name="seekable">1</property>
  <property name="audio_index">0</property>
  <property name="video_index">-1</property>
  <property name="mute_on_pause">1</property>
  <property name="kdenlive:clipname"/>
  <property name="kdenlive:clip_type">1</property>
  <property name="kdenlive:folderid">5</property>
  <property name="kdenlive:id">6</property>
  <property name="kdenlive:file_size">2677917</property>
  <property name="kdenlive:file_hash">0cca305e094ddefe30689862bdce6576</property>
  <property name="kdenlive:audio_max0">226</property>
 </chain>
 <chain id="chain15" out="00:06:10.840">
  <property name="length">9272</property>
  <property name="eof">pause</property>
  <property name="resource">Bloody Clashes As Trump Protesters, Supporters Exchange Blows At Berkeley Rally [aeudb1mf-Po].webm</property>
  <property name="mlt_service">avformat-novalidate</property>
  <property name="meta.media.nb_streams">2</property>
  <property name="meta.media.0.stream.type">video</property>
  <property name="meta.media.0.stream.frame_rate">29.97</property>
  <property name="meta.media.0.stream.sample_aspect_ratio">1</property>
  <property name="meta.media.0.codec.width">1280</property>
  <property name="meta.media.0.codec.height">720</property>
  <property name="meta.media.0.codec.rotate">0</property>
  <property name="meta.media.0.codec.pix_fmt">yuv420p</property>
  <property name="meta.media.0.codec.sample_aspect_ratio">0</property>
  <property name="meta.media.0.codec.colorspace">709</property>
  <property name="meta.media.0.codec.color_trc">1</property>
  <property name="meta.media.0.codec.name">vp9</property>
  <property name="meta.media.0.codec.long_name">Google VP9</property>
  <property name="meta.media.0.codec.bit_rate">0</property>
  <property name="meta.attr.0.stream.language.markup">eng</property>
  <property name="meta.attr.0.stream.DURATION.markup">00:06:10.803000000</property>
  <property name="meta.media.1.stream.type">audio</property>
  <property name="meta.media.1.codec.sample_fmt">fltp</property>
  <property name="meta.media.1.codec.sample_rate">48000</property>
  <property name="meta.media.1.codec.channels">2</property>
  <property name="meta.media.1.codec.name">opus</property>
  <property name="meta.media.1.codec.long_name">Opus</property>
  <property name="meta.media.1.codec.bit_rate">0</property>
  <property name="meta.attr.1.stream.language.markup">eng</property>
  <property name="meta.attr.1.stream.DURATION.markup">00:06:10.881000000</property>
  <property name="meta.attr.ENCODER.markup">Lavf59.27.100</property>
  <property name="seekable">1</property>
  <property name="meta.media.sample_aspect_num">1</property>
  <property name="meta.media.sample_aspect_den">1</property>
  <property name="format">3</property>
  <property name="audio_index">-1</property>
  <property name="video_index">0</property>
  <property name="mute_on_pause">0</property>
  <property name="meta.media.frame_rate_num">30000</property>
  <property name="meta.media.frame_rate_den">1001</property>
  <property name="meta.media.colorspace">709</property>
  <property name="meta.media.color_trc">1</property>
  <property name="meta.media.has_b_frames">0</property>
  <property name="meta.media.width">1280</property>
  <property name="meta.media.height">720</property>
  <property name="meta.media.color_range">mpeg</property>
  <property name="kdenlive:clipname"/>
  <property name="meta.media.top_field_first">0</property>
  <property name="meta.media.progressive">1</property>
  <property name="kdenlive:clip_type">0</property>
  <property name="kdenlive:folderid">8</property>
  <property name="kdenlive:id">7</property>
  <property name="kdenlive:file_size">50611281</property>
  <property name="kdenlive:file_hash">27be99ba89dc596413e23454884bb998</property>
  <property name="kdenlive:audio_max1">189</property>
  <property name="kdenlive:active_streams">-1</property>
  <property name="set.test_audio">1</property>
 </chain>
 <producer id="producer14" in="00:00:00.000" out="00:00:04.960">
  <property name="length">00:00:05.000</property>
  <property name="eof">pause</property>
  <property name="resource">the real culture war-real.png</property>
  <property name="ttl">25</property>
  <property name="aspect_ratio">1</property>
  <property name="progressive">1</property>
  <property name="seekable">1</property>
  <property name="format">2</property>
  <property name="meta.media.width">1080</property>
  <property name="meta.media.height">1920</property>
  <property name="mlt_service">qimage</property>
  <property name="kdenlive:clipname"/>
  <property name="kdenlive:duration">00:00:05:00</property>
  <property name="kdenlive:folderid">18</property>
  <property name="kdenlive:id">16</property>
  <property name="kdenlive:clip_type">2</property>
  <property name="kdenlive:file_size">16920</property>
  <property name="kdenlive:file_hash">9b8f74ce7fadead350d94c262002d655</property>
 </producer>
 <producer id="producer15" in="00:00:00.000" out="00:00:04.960">
  <property name="length">00:00:05.000</property>
  <property name="eof">pause</property>
  <property name="resource">the real culture war.xcf</property>
  <property name="ttl">25</property>
  <property name="aspect_ratio">1</property>
  <property name="progressive">1</property>
  <property name="seekable">1</property>
  <property name="format">2</property>
  <property name="meta.media.width">1080</property>
  <property name="meta.media.height">1920</property>
  <property name="mlt_service">qimage</property>
  <property name="kdenlive:clipname"/>
  <property name="kdenlive:duration">00:00:05:00</property>
  <property name="kdenlive:folderid">18</property>
  <property name="kdenlive:id">17</property>
  <property name="kdenlive:clip_type">2</property>
  <property name="kdenlive:file_size">326895</property>
  <property name="kdenlive:file_hash">694c596f64573a9430691de75b1231ed</property>
 </producer>
 <chain id="chain16" out="00:00:15.000">
  <property name="length">376</property>
  <property name="eof">pause</property>
  <property name="resource">Golden Center Light Rays [Hui0WM-2yIg].webm</property>
  <property name="mlt_service">avformat-novalidate</property>
  <property name="meta.media.nb_streams">2</property>
  <property name="meta.media.0.stream.type">video</property>
  <property name="meta.media.0.stream.frame_rate">23.976</property>
  <property name="meta.media.0.stream.sample_aspect_ratio">1</property>
  <property name="meta.media.0.codec.width">1920</property>
  <property name="meta.media.0.codec.height">1080</property>
  <property name="meta.media.0.codec.rotate">0</property>
  <property name="meta.media.0.codec.pix_fmt">yuv420p</property>
  <property name="meta.media.0.codec.sample_aspect_ratio">0</property>
  <property name="meta.media.0.codec.colorspace">709</property>
  <property name="meta.media.0.codec.color_trc">1</property>
  <property name="meta.media.0.codec.name">vp9</property>
  <property name="meta.media.0.codec.long_name">Google VP9</property>
  <property name="meta.media.0.codec.bit_rate">0</property>
  <property name="meta.attr.0.stream.language.markup">eng</property>
  <property name="meta.attr.0.stream.DURATION.markup">00:00:15.014000000</property>
  <property name="meta.media.1.stream.type">audio</property>
  <property name="meta.media.1.codec.sample_fmt">fltp</property>
  <property name="meta.media.1.codec.sample_rate">48000</property>
  <property name="meta.media.1.codec.channels">2</property>
  <property name="meta.media.1.codec.name">opus</property>
  <property name="meta.media.1.codec.long_name">Opus</property>
  <property name="meta.media.1.codec.bit_rate">0</property>
  <property name="meta.attr.1.stream.language.markup">eng</property>
  <property name="meta.attr.1.stream.DURATION.markup">00:00:15.041000000</property>
  <property name="meta.attr.ENCODER.markup">Lavf59.27.100</property>
  <property name="seekable">1</property>
  <property name="meta.media.sample_aspect_num">1</property>
  <property name="meta.media.sample_aspect_den">1</property>
  <property name="format">3</property>
  <property name="audio_index">-1</property>
  <property name="video_index">0</property>
  <property name="mute_on_pause">0</property>
  <property name="meta.media.frame_rate_num">24000</property>
  <property name="meta.media.frame_rate_den">1001</property>
  <property name="meta.media.colorspace">709</property>
  <property name="meta.media.color_trc">1</property>
  <property name="meta.media.has_b_frames">0</property>
  <property name="meta.media.width">1920</property>
  <property name="meta.media.height">1080</property>
  <property name="meta.media.color_range">mpeg</property>
  <property name="kdenlive:clipname"/>
  <property name="meta.media.top_field_first">0</property>
  <property name="meta.media.progressive">1</property>
  <property name="kdenlive:clip_type">0</property>
  <property name="kdenlive:folderid">8</property>
  <property name="kdenlive:id">19</property>
  <property name="kdenlive:file_size">601529</property>
  <property name="kdenlive:file_hash">8e6aa13b8036bb6eb149ba47739ec6bf</property>
  <property name="kdenlive:audio_max1">1</property>
  <property name="kdenlive:active_streams">-1</property>
  <property name="set.test_audio">1</property>
 </chain>
 <chain id="chain17" out="00:00:31.800">
  <property name="length">796</property>
  <property name="eof">pause</property>
  <property name="resource">/home/liquidzulu/Music/sfx/9 pistol cocking sound effects for free [ySuT6WGdUYc]0001.wav</property>
  <property name="mlt_service">avformat</property>
  <property name="meta.media.nb_streams">1</property>
  <property name="meta.media.0.stream.type">audio</property>
  <property name="meta.media.0.codec.sample_fmt">s16</property>
  <property name="meta.media.0.codec.sample_rate">48000</property>
  <property name="meta.media.0.codec.channels">2</property>
  <property name="meta.media.0.codec.name">pcm_s16le</property>
  <property name="meta.media.0.codec.long_name">PCM signed 16-bit little-endian</property>
  <property name="meta.media.0.codec.bit_rate">1536000</property>
  <property name="meta.attr.encoder.markup">Lavf59.27.100</property>
  <property name="seekable">1</property>
  <property name="audio_index">0</property>
  <property name="video_index">-1</property>
  <property name="mute_on_pause">1</property>
  <property name="kdenlive:clipname"/>
  <property name="kdenlive:clip_type">1</property>
  <property name="kdenlive:folderid">5</property>
  <property name="kdenlive:id">21</property>
  <property name="kdenlive:file_size">6114546</property>
  <property name="kdenlive:file_hash">1ffa09360cbab9fd470cc452f8ea6e7b</property>
  <property name="kdenlive:audio_max0">209</property>
 </chain>
 <chain id="chain18" out="00:14:16.440">
  <property name="length">21412</property>
  <property name="eof">pause</property>
  <property name="resource">/home/liquidzulu/Videos/yt/b-roll/BMW Car Factory ROBOTS 🔧 PRODUCTION Fast Manufacturing [P7fi4hP_y80].webm</property>
  <property name="mlt_service">avformat-novalidate</property>
  <property name="meta.media.nb_streams">2</property>
  <property name="meta.media.0.stream.type">video</property>
  <property name="meta.media.0.stream.frame_rate">60</property>
  <property name="meta.media.0.stream.sample_aspect_ratio">1</property>
  <property name="meta.media.0.codec.width">1920</property>
  <property name="meta.media.0.codec.height">1080</property>
  <property name="meta.media.0.codec.rotate">0</property>
  <property name="meta.media.0.codec.pix_fmt">yuv420p</property>
  <property name="meta.media.0.codec.sample_aspect_ratio">0</property>
  <property name="meta.media.0.codec.colorspace">709</property>
  <property name="meta.media.0.codec.color_trc">1</property>
  <property name="meta.media.0.codec.name">vp9</property>
  <property name="meta.media.0.codec.long_name">Google VP9</property>
  <property name="meta.media.0.codec.bit_rate">0</property>
  <property name="meta.attr.0.stream.language.markup">eng</property>
  <property name="meta.attr.0.stream.DURATION.markup">00:14:16.449000000</property>
  <property name="meta.media.1.stream.type">audio</property>
  <property name="meta.media.1.codec.sample_fmt">fltp</property>
  <property name="meta.media.1.codec.sample_rate">48000</property>
  <property name="meta.media.1.codec.channels">2</property>
  <property name="meta.media.1.codec.name">opus</property>
  <property name="meta.media.1.codec.long_name">Opus</property>
  <property name="meta.media.1.codec.bit_rate">0</property>
  <property name="meta.attr.1.stream.language.markup">ita</property>
  <property name="meta.attr.1.stream.DURATION.markup">00:14:16.481000000</property>
  <property name="meta.attr.ENCODER.markup">Lavf59.27.100</property>
  <property name="seekable">1</property>
  <property name="meta.media.sample_aspect_num">1</property>
  <property name="meta.media.sample_aspect_den">1</property>
  <property name="format">3</property>
  <property name="audio_index">-1</property>
  <property name="video_index">0</property>
  <property name="mute_on_pause">0</property>
  <property name="meta.media.frame_rate_num">60</property>
  <property name="meta.media.frame_rate_den">1</property>
  <property name="meta.media.colorspace">709</property>
  <property name="meta.media.color_trc">1</property>
  <property name="meta.media.has_b_frames">0</property>
  <property name="meta.media.width">1920</property>
  <property name="meta.media.height">1080</property>
  <property name="meta.media.color_range">mpeg</property>
  <property name="kdenlive:clipname"/>
  <property name="meta.media.top_field_first">0</property>
  <property name="meta.media.progressive">1</property>
  <property name="kdenlive:clip_type">0</property>
  <property name="kdenlive:folderid">8</property>
  <property name="kdenlive:id">26</property>
  <property name="kdenlive:file_size">304102371</property>
  <property name="kdenlive:file_hash">11d5a3f91fdf27c58629acc0621a585d</property>
  <property name="kdenlive:audio_max1">192</property>
  <property name="kdenlive:active_streams">-1</property>
  <property name="set.test_audio">1</property>
 </chain>
 <chain id="chain19" out="00:01:02.560">
  <property name="length">1565</property>
  <property name="eof">pause</property>
  <property name="resource">Jesse Floats on Heroin - Breaking Bad [cwM3ST1N0uU].webm</property>
  <property name="mlt_service">avformat-novalidate</property>
  <property name="meta.media.nb_streams">2</property>
  <property name="meta.media.0.stream.type">video</property>
  <property name="meta.media.0.stream.frame_rate">30</property>
  <property name="meta.media.0.stream.sample_aspect_ratio">1</property>
  <property name="meta.media.0.codec.width">1280</property>
  <property name="meta.media.0.codec.height">720</property>
  <property name="meta.media.0.codec.rotate">0</property>
  <property name="meta.media.0.codec.pix_fmt">yuv420p</property>
  <property name="meta.media.0.codec.sample_aspect_ratio">0</property>
  <property name="meta.media.0.codec.colorspace">709</property>
  <property name="meta.media.0.codec.color_trc">1</property>
  <property name="meta.media.0.codec.name">vp9</property>
  <property name="meta.media.0.codec.long_name">Google VP9</property>
  <property name="meta.media.0.codec.bit_rate">0</property>
  <property name="meta.attr.0.stream.language.markup">eng</property>
  <property name="meta.attr.0.stream.DURATION.markup">00:01:02.567000000</property>
  <property name="meta.media.1.stream.type">audio</property>
  <property name="meta.media.1.codec.sample_fmt">fltp</property>
  <property name="meta.media.1.codec.sample_rate">48000</property>
  <property name="meta.media.1.codec.channels">2</property>
  <property name="meta.media.1.codec.name">opus</property>
  <property name="meta.media.1.codec.long_name">Opus</property>
  <property name="meta.media.1.codec.bit_rate">0</property>
  <property name="meta.attr.1.stream.language.markup">eng</property>
  <property name="meta.attr.1.stream.DURATION.markup">00:01:02.601000000</property>
  <property name="meta.attr.ENCODER.markup">Lavf59.27.100</property>
  <property name="seekable">1</property>
  <property name="meta.media.sample_aspect_num">1</property>
  <property name="meta.media.sample_aspect_den">1</property>
  <property name="format">3</property>
  <property name="audio_index">-1</property>
  <property name="video_index">0</property>
  <property name="mute_on_pause">0</property>
  <property name="meta.media.frame_rate_num">30</property>
  <property name="meta.media.frame_rate_den">1</property>
  <property name="meta.media.colorspace">709</property>
  <property name="meta.media.color_trc">1</property>
  <property name="meta.media.has_b_frames">0</property>
  <property name="meta.media.width">1280</property>
  <property name="meta.media.height">720</property>
  <property name="meta.media.color_range">mpeg</property>
  <property name="kdenlive:clipname"/>
  <property name="meta.media.top_field_first">0</property>
  <property name="meta.media.progressive">1</property>
  <property name="kdenlive:clip_type">0</property>
  <property name="kdenlive:folderid">8</property>
  <property name="kdenlive:id">27</property>
  <property name="kdenlive:file_size">4099742</property>
  <property name="kdenlive:file_hash">6642aa0f5684331fe305ea49c14b535d</property>
  <property name="kdenlive:audio_max1">81</property>
  <property name="kdenlive:active_streams">-1</property>
  <property name="set.test_audio">1</property>
 </chain>
 <chain id="chain20" out="00:01:33.720">
  <property name="length">2344</property>
  <property name="eof">pause</property>
  <property name="resource">STRONG Optical Illusion Gives You TRIPPY Hallucinations! 😵 [ZQAvj5rdgtY].webm</property>
  <property name="mlt_service">avformat-novalidate</property>
  <property name="meta.media.nb_streams">2</property>
  <property name="meta.media.0.stream.type">video</property>
  <property name="meta.media.0.stream.frame_rate">60</property>
  <property name="meta.media.0.stream.sample_aspect_ratio">1</property>
  <property name="meta.media.0.codec.width">3840</property>
  <property name="meta.media.0.codec.height">2160</property>
  <property name="meta.media.0.codec.rotate">0</property>
  <property name="meta.media.0.codec.pix_fmt">yuv420p</property>
  <property name="meta.media.0.codec.sample_aspect_ratio">0</property>
  <property name="meta.media.0.codec.colorspace">709</property>
  <property name="meta.media.0.codec.color_trc">1</property>
  <property name="meta.media.0.codec.name">vp9</property>
  <property name="meta.media.0.codec.long_name">Google VP9</property>
  <property name="meta.media.0.codec.bit_rate">0</property>
  <property name="meta.attr.0.stream.language.markup">eng</property>
  <property name="meta.attr.0.stream.DURATION.markup">00:01:33.666000000</property>
  <property name="meta.media.1.stream.type">audio</property>
  <property name="meta.media.1.codec.sample_fmt">fltp</property>
  <property name="meta.media.1.codec.sample_rate">48000</property>
  <property name="meta.media.1.codec.channels">2</property>
  <property name="meta.media.1.codec.name">opus</property>
  <property name="meta.media.1.codec.long_name">Opus</property>
  <property name="meta.media.1.codec.bit_rate">0</property>
  <property name="meta.attr.1.stream.language.markup">eng</property>
  <property name="meta.attr.1.stream.DURATION.markup">00:01:33.741000000</property>
  <property name="meta.attr.ENCODER.markup">Lavf59.27.100</property>
  <property name="seekable">1</property>
  <property name="meta.media.sample_aspect_num">1</property>
  <property name="meta.media.sample_aspect_den">1</property>
  <property name="format">3</property>
  <property name="audio_index">-1</property>
  <property name="video_index">0</property>
  <property name="mute_on_pause">0</property>
  <property name="meta.media.frame_rate_num">60</property>
  <property name="meta.media.frame_rate_den">1</property>
  <property name="meta.media.colorspace">709</property>
  <property name="meta.media.color_trc">1</property>
  <property name="meta.media.has_b_frames">0</property>
  <property name="meta.media.width">3840</property>
  <property name="meta.media.height">2160</property>
  <property name="meta.media.color_range">mpeg</property>
  <property name="kdenlive:clipname"/>
  <property name="meta.media.top_field_first">0</property>
  <property name="meta.media.progressive">1</property>
  <property name="kdenlive:clip_type">0</property>
  <property name="kdenlive:folderid">8</property>
  <property name="kdenlive:id">28</property>
  <property name="kdenlive:file_size">218255799</property>
  <property name="kdenlive:file_hash">e5536ba6c9f36b10bac278113ce3d587</property>
  <property name="kdenlive:audio_max1">132</property>
  <property name="kdenlive:active_streams">-1</property>
  <property name="set.test_audio">1</property>
 </chain>
 <chain id="chain21" out="00:13:43.640">
  <property name="length">20592</property>
  <property name="eof">pause</property>
  <property name="resource">Watch Elon Musk announce the Tesla Cybertruck in 14 minutes [464puoD09dM].webm</property>
  <property name="mlt_service">avformat-novalidate</property>
  <property name="meta.media.nb_streams">2</property>
  <property name="meta.media.0.stream.type">video</property>
  <property name="meta.media.0.stream.frame_rate">29.9718</property>
  <property name="meta.media.0.stream.sample_aspect_ratio">1</property>
  <property name="meta.media.0.codec.width">1920</property>
  <property name="meta.media.0.codec.height">1080</property>
  <property name="meta.media.0.codec.rotate">0</property>
  <property name="meta.media.0.codec.pix_fmt">yuv420p</property>
  <property name="meta.media.0.codec.sample_aspect_ratio">0</property>
  <property name="meta.media.0.codec.colorspace">709</property>
  <property name="meta.media.0.codec.color_trc">1</property>
  <property name="meta.media.0.codec.name">vp9</property>
  <property name="meta.media.0.codec.long_name">Google VP9</property>
  <property name="meta.media.0.codec.bit_rate">0</property>
  <property name="meta.attr.0.stream.HANDLER_NAME.markup">ISO Media file produced by Google Inc. Created on: 03/18/2024.</property>
  <property name="meta.attr.0.stream.VENDOR_ID.markup">[0][0][0][0]</property>
  <property name="meta.attr.0.stream.DURATION.markup">00:13:43.656000000</property>
  <property name="meta.media.1.stream.type">audio</property>
  <property name="meta.media.1.codec.sample_fmt">fltp</property>
  <property name="meta.media.1.codec.sample_rate">48000</property>
  <property name="meta.media.1.codec.channels">2</property>
  <property name="meta.media.1.codec.name">opus</property>
  <property name="meta.media.1.codec.long_name">Opus</property>
  <property name="meta.media.1.codec.bit_rate">0</property>
  <property name="meta.attr.1.stream.language.markup">eng</property>
  <property name="meta.attr.1.stream.DURATION.markup">00:13:43.681000000</property>
  <property name="meta.attr.COMPATIBLE_BRANDS.markup">iso6mp41</property>
  <property name="meta.attr.MAJOR_BRAND.markup">dash</property>
  <property name="meta.attr.MINOR_VERSION.markup">0</property>
  <property name="meta.attr.ENCODER.markup">Lavf59.27.100</property>
  <property name="seekable">1</property>
  <property name="meta.media.sample_aspect_num">1</property>
  <property name="meta.media.sample_aspect_den">1</property>
  <property name="format">3</property>
  <property name="audio_index">-1</property>
  <property name="video_index">0</property>
  <property name="mute_on_pause">0</property>
  <property name="meta.media.frame_rate_num">26555</property>
  <property name="meta.media.frame_rate_den">886</property>
  <property name="meta.media.colorspace">709</property>
  <property name="meta.media.color_trc">1</property>
  <property name="meta.media.has_b_frames">0</property>
  <property name="meta.media.width">1920</property>
  <property name="meta.media.height">1080</property>
  <property name="meta.media.color_range">mpeg</property>
  <property name="kdenlive:clipname"/>
  <property name="meta.media.top_field_first">0</property>
  <property name="meta.media.progressive">1</property>
  <property name="kdenlive:clip_type">0</property>
  <property name="kdenlive:folderid">8</property>
  <property name="kdenlive:id">29</property>
  <property name="kdenlive:file_size">202185076</property>
  <property name="kdenlive:file_hash">aad85a9879f12ea4f0548549815eeb49</property>
  <property name="kdenlive:audio_max1">209</property>
  <property name="kdenlive:active_streams">-1</property>
  <property name="set.test_audio">1</property>
 </chain>
 <chain id="chain22" out="00:01:54.320">
  <property name="length">2859</property>
  <property name="eof">pause</property>
  <property name="resource">Starship ｜ Second Flight Test [C3iHAgwIYtI].webm</property>
  <property name="mlt_service">avformat-novalidate</property>
  <property name="meta.media.nb_streams">2</property>
  <property name="meta.media.0.stream.type">video</property>
  <property name="meta.media.0.stream.frame_rate">23.976</property>
  <property name="meta.media.0.stream.sample_aspect_ratio">1</property>
  <property name="meta.media.0.codec.width">3840</property>
  <property name="meta.media.0.codec.height">2160</property>
  <property name="meta.media.0.codec.rotate">0</property>
  <property name="meta.media.0.codec.pix_fmt">yuv420p</property>
  <property name="meta.media.0.codec.sample_aspect_ratio">0</property>
  <property name="meta.media.0.codec.colorspace">709</property>
  <property name="meta.media.0.codec.color_trc">1</property>
  <property name="meta.media.0.codec.name">vp9</property>
  <property name="meta.media.0.codec.long_name">Google VP9</property>
  <property name="meta.media.0.codec.bit_rate">0</property>
  <property name="meta.attr.0.stream.language.markup">eng</property>
  <property name="meta.attr.0.stream.DURATION.markup">00:01:54.322000000</property>
  <property name="meta.media.1.stream.type">audio</property>
  <property name="meta.media.1.codec.sample_fmt">fltp</property>
  <property name="meta.media.1.codec.sample_rate">48000</property>
  <property name="meta.media.1.codec.channels">2</property>
  <property name="meta.media.1.codec.name">opus</property>
  <property name="meta.media.1.codec.long_name">Opus</property>
  <property name="meta.media.1.codec.bit_rate">0</property>
  <property name="meta.attr.1.stream.language.markup">eng</property>
  <property name="meta.attr.1.stream.DURATION.markup">00:01:54.341000000</property>
  <property name="meta.attr.ENCODER.markup">Lavf59.27.100</property>
  <property name="seekable">1</property>
  <property name="meta.media.sample_aspect_num">1</property>
  <property name="meta.media.sample_aspect_den">1</property>
  <property name="format">3</property>
  <property name="audio_index">-1</property>
  <property name="video_index">0</property>
  <property name="mute_on_pause">0</property>
  <property name="meta.media.frame_rate_num">24000</property>
  <property name="meta.media.frame_rate_den">1001</property>
  <property name="meta.media.colorspace">709</property>
  <property name="meta.media.color_trc">1</property>
  <property name="meta.media.has_b_frames">0</property>
  <property name="meta.media.width">3840</property>
  <property name="meta.media.height">2160</property>
  <property name="meta.media.color_range">mpeg</property>
  <property name="kdenlive:clipname"/>
  <property name="meta.media.top_field_first">0</property>
  <property name="meta.media.progressive">1</property>
  <property name="kdenlive:clip_type">0</property>
  <property name="kdenlive:folderid">8</property>
  <property name="kdenlive:id">30</property>
  <property name="kdenlive:file_size">170987796</property>
  <property name="kdenlive:file_hash">17e1104bf17a132c74e6ec5f3e83f86f</property>
  <property name="kdenlive:audio_max1">247</property>
  <property name="kdenlive:active_streams">-1</property>
  <property name="set.test_audio">1</property>
 </chain>
 <chain id="chain23" out="00:03:33.080">
  <property name="length">5328</property>
  <property name="eof">pause</property>
  <property name="resource">You Will Be Happy [UrEUzKTt7j0].webm</property>
  <property name="mlt_service">avformat-novalidate</property>
  <property name="meta.media.nb_streams">2</property>
  <property name="meta.media.0.stream.type">video</property>
  <property name="meta.media.0.stream.frame_rate">30</property>
  <property name="meta.media.0.stream.sample_aspect_ratio">1</property>
  <property name="meta.media.0.codec.width">2048</property>
  <property name="meta.media.0.codec.height">858</property>
  <property name="meta.media.0.codec.rotate">0</property>
  <property name="meta.media.0.codec.pix_fmt">yuv420p</property>
  <property name="meta.media.0.codec.sample_aspect_ratio">0</property>
  <property name="meta.media.0.codec.colorspace">709</property>
  <property name="meta.media.0.codec.color_trc">1</property>
  <property name="meta.media.0.codec.name">vp9</property>
  <property name="meta.media.0.codec.long_name">Google VP9</property>
  <property name="meta.media.0.codec.bit_rate">0</property>
  <property name="meta.attr.0.stream.language.markup">eng</property>
  <property name="meta.attr.0.stream.DURATION.markup">00:03:33.100000000</property>
  <property name="meta.media.1.stream.type">audio</property>
  <property name="meta.media.1.codec.sample_fmt">fltp</property>
  <property name="meta.media.1.codec.sample_rate">48000</property>
  <property name="meta.media.1.codec.channels">2</property>
  <property name="meta.media.1.codec.name">opus</property>
  <property name="meta.media.1.codec.long_name">Opus</property>
  <property name="meta.media.1.codec.bit_rate">0</property>
  <property name="meta.attr.1.stream.language.markup">eng</property>
  <property name="meta.attr.1.stream.DURATION.markup">00:03:33.121000000</property>
  <property name="meta.attr.ENCODER.markup">Lavf59.27.100</property>
  <property name="seekable">1</property>
  <property name="meta.media.sample_aspect_num">1</property>
  <property name="meta.media.sample_aspect_den">1</property>
  <property name="format">3</property>
  <property name="audio_index">-1</property>
  <property name="video_index">0</property>
  <property name="mute_on_pause">0</property>
  <property name="meta.media.frame_rate_num">30</property>
  <property name="meta.media.frame_rate_den">1</property>
  <property name="meta.media.colorspace">709</property>
  <property name="meta.media.color_trc">1</property>
  <property name="meta.media.has_b_frames">0</property>
  <property name="meta.media.width">2048</property>
  <property name="meta.media.height">858</property>
  <property name="meta.media.color_range">mpeg</property>
  <property name="kdenlive:clipname"/>
  <property name="meta.media.top_field_first">0</property>
  <property name="meta.media.progressive">1</property>
  <property name="kdenlive:clip_type">0</property>
  <property name="kdenlive:folderid">8</property>
  <property name="kdenlive:id">31</property>
  <property name="kdenlive:file_size">35422471</property>
  <property name="kdenlive:file_hash">f9dd59284472c52d336566bcf78d985c</property>
  <property name="kdenlive:audio_max1">225</property>
  <property name="kdenlive:active_streams">-1</property>
  <property name="set.test_audio">1</property>
 </chain>
 <chain id="chain24" out="00:13:27.040">
  <property name="length">20177</property>
  <property name="eof">pause</property>
  <property name="resource">Jeff Bezos Advice For young Entrepreneurs [30pxmKvkzFM].webm</property>
  <property name="mlt_service">avformat-novalidate</property>
  <property name="meta.media.nb_streams">2</property>
  <property name="meta.media.0.stream.type">video</property>
  <property name="meta.media.0.stream.frame_rate">24</property>
  <property name="meta.media.0.stream.sample_aspect_ratio">1</property>
  <property name="meta.media.0.codec.width">1920</property>
  <property name="meta.media.0.codec.height">1080</property>
  <property name="meta.media.0.codec.rotate">0</property>
  <property name="meta.media.0.codec.pix_fmt">yuv420p</property>
  <property name="meta.media.0.codec.sample_aspect_ratio">0</property>
  <property name="meta.media.0.codec.colorspace">709</property>
  <property name="meta.media.0.codec.color_trc">1</property>
  <property name="meta.media.0.codec.name">vp9</property>
  <property name="meta.media.0.codec.long_name">Google VP9</property>
  <property name="meta.media.0.codec.bit_rate">0</property>
  <property name="meta.attr.0.stream.language.markup">eng</property>
  <property name="meta.attr.0.stream.DURATION.markup">00:13:27.041000000</property>
  <property name="meta.media.1.stream.type">audio</property>
  <property name="meta.media.1.codec.sample_fmt">fltp</property>
  <property name="meta.media.1.codec.sample_rate">48000</property>
  <property name="meta.media.1.codec.channels">2</property>
  <property name="meta.media.1.codec.name">opus</property>
  <property name="meta.media.1.codec.long_name">Opus</property>
  <property name="meta.media.1.codec.bit_rate">0</property>
  <property name="meta.attr.1.stream.language.markup">eng</property>
  <property name="meta.attr.1.stream.DURATION.markup">00:13:27.061000000</property>
  <property name="meta.attr.ENCODER.markup">Lavf59.27.100</property>
  <property name="seekable">1</property>
  <property name="meta.media.sample_aspect_num">1</property>
  <property name="meta.media.sample_aspect_den">1</property>
  <property name="format">3</property>
  <property name="audio_index">-1</property>
  <property name="video_index">0</property>
  <property name="mute_on_pause">0</property>
  <property name="meta.media.frame_rate_num">24</property>
  <property name="meta.media.frame_rate_den">1</property>
  <property name="meta.media.colorspace">709</property>
  <property name="meta.media.color_trc">1</property>
  <property name="meta.media.has_b_frames">0</property>
  <property name="meta.media.width">1920</property>
  <property name="meta.media.height">1080</property>
  <property name="meta.media.color_range">mpeg</property>
  <property name="kdenlive:clipname"/>
  <property name="meta.media.top_field_first">0</property>
  <property name="meta.media.progressive">1</property>
  <property name="kdenlive:clip_type">0</property>
  <property name="kdenlive:folderid">8</property>
  <property name="kdenlive:id">33</property>
  <property name="kdenlive:file_size">179479587</property>
  <property name="kdenlive:file_hash">bc01cc08c2971fb8baebf64a1d2a9e9e</property>
  <property name="kdenlive:audio_max1">226</property>
  <property name="kdenlive:active_streams">-1</property>
  <property name="set.test_audio">1</property>
 </chain>
 <chain id="chain25" out="00:04:05.080">
  <property name="length">6128</property>
  <property name="eof">pause</property>
  <property name="resource">Chernobyl： Drone Footage Reveals an Abandoned City [UeZtlFeEcNg].webm</property>
  <property name="mlt_service">avformat-novalidate</property>
  <property name="meta.media.nb_streams">2</property>
  <property name="meta.media.0.stream.type">video</property>
  <property name="meta.media.0.stream.frame_rate">29.9713</property>
  <property name="meta.media.0.stream.sample_aspect_ratio">1</property>
  <property name="meta.media.0.codec.width">1920</property>
  <property name="meta.media.0.codec.height">1080</property>
  <property name="meta.media.0.codec.rotate">0</property>
  <property name="meta.media.0.codec.pix_fmt">yuv420p</property>
  <property name="meta.media.0.codec.sample_aspect_ratio">0</property>
  <property name="meta.media.0.codec.colorspace">709</property>
  <property name="meta.media.0.codec.color_trc">1</property>
  <property name="meta.media.0.codec.name">vp9</property>
  <property name="meta.media.0.codec.long_name">Google VP9</property>
  <property name="meta.media.0.codec.bit_rate">0</property>
  <property name="meta.attr.0.stream.HANDLER_NAME.markup">ISO Media file produced by Google Inc. Created on: 03/18/2024.</property>
  <property name="meta.attr.0.stream.VENDOR_ID.markup">[0][0][0][0]</property>
  <property name="meta.attr.0.stream.DURATION.markup">00:04:05.077000000</property>
  <property name="meta.media.1.stream.type">audio</property>
  <property name="meta.media.1.codec.sample_fmt">fltp</property>
  <property name="meta.media.1.codec.sample_rate">48000</property>
  <property name="meta.media.1.codec.channels">2</property>
  <property name="meta.media.1.codec.name">opus</property>
  <property name="meta.media.1.codec.long_name">Opus</property>
  <property name="meta.media.1.codec.bit_rate">0</property>
  <property name="meta.attr.1.stream.language.markup">eng</property>
  <property name="meta.attr.1.stream.DURATION.markup">00:04:05.101000000</property>
  <property name="meta.attr.COMPATIBLE_BRANDS.markup">iso6mp41</property>
  <property name="meta.attr.MAJOR_BRAND.markup">dash</property>
  <property name="meta.attr.MINOR_VERSION.markup">0</property>
  <property name="meta.attr.ENCODER.markup">Lavf59.27.100</property>
  <property name="seekable">1</property>
  <property name="meta.media.sample_aspect_num">1</property>
  <property name="meta.media.sample_aspect_den">1</property>
  <property name="format">3</property>
  <property name="audio_index">-1</property>
  <property name="video_index">0</property>
  <property name="mute_on_pause">0</property>
  <property name="meta.media.frame_rate_num">16694</property>
  <property name="meta.media.frame_rate_den">557</property>
  <property name="meta.media.colorspace">709</property>
  <property name="meta.media.color_trc">1</property>
  <property name="meta.media.has_b_frames">0</property>
  <property name="meta.media.width">1920</property>
  <property name="meta.media.height">1080</property>
  <property name="meta.media.color_range">mpeg</property>
  <property name="kdenlive:clipname"/>
  <property name="meta.media.top_field_first">0</property>
  <property name="meta.media.progressive">1</property>
  <property name="kdenlive:clip_type">0</property>
  <property name="kdenlive:folderid">8</property>
  <property name="kdenlive:id">34</property>
  <property name="kdenlive:file_size">115403111</property>
  <property name="kdenlive:file_hash">ef290c8766530cb20161bbdaca904012</property>
  <property name="kdenlive:audio_max1">219</property>
  <property name="kdenlive:active_streams">-1</property>
  <property name="set.test_audio">1</property>
 </chain>
 <playlist id="main_bin">
  <property name="kdenlive:folder.-1.2">Sequences</property>
  <property name="kdenlive:sequenceFolder">2</property>
  <property name="kdenlive:docproperties.audioChannels">2</property>
  <property name="kdenlive:docproperties.browserurl">/home/liquidzulu/Videos/</property>
  <property name="kdenlive:docproperties.compositing">1</property>
  <property name="kdenlive:docproperties.documentid">1710335591685</property>
  <property name="kdenlive:docproperties.enableTimelineZone">0</property>
  <property name="kdenlive:docproperties.enableexternalproxy">0</property>
  <property name="kdenlive:docproperties.enableproxy">0</property>
  <property name="kdenlive:docproperties.externalproxyparams"/>
  <property name="kdenlive:docproperties.generateimageproxy">0</property>
  <property name="kdenlive:docproperties.generateproxy">0</property>
  <property name="kdenlive:docproperties.guidesCategories">[
    {
        "color": "#9b59b6",
        "comment": "Category 1",
        "index": 0
    },
    {
        "color": "#3daee9",
        "comment": "Category 2",
        "index": 1
    },
    {
        "color": "#1abc9c",
        "comment": "Category 3",
        "index": 2
    },
    {
        "color": "#1cdc9a",
        "comment": "Category 4",
        "index": 3
    },
    {
        "color": "#c9ce3b",
        "comment": "Category 5",
        "index": 4
    },
    {
        "color": "#fdbc4b",
        "comment": "Category 6",
        "index": 5
    },
    {
        "color": "#f39c1f",
        "comment": "Category 7",
        "index": 6
    },
    {
        "color": "#f47750",
        "comment": "Category 8",
        "index": 7
    },
    {
        "color": "#da4453",
        "comment": "Category 9",
        "index": 8
    }
]
</property>
  <property name="kdenlive:docproperties.kdenliveversion">23.04.3</property>
  <property name="kdenlive:docproperties.previewextension"/>
  <property name="kdenlive:docproperties.previewparameters"/>
  <property name="kdenlive:docproperties.profile">/home/liquidzulu/.local/share/kdenlive/profiles/customprofile0</property>
  <property name="kdenlive:docproperties.proxyextension"/>
  <property name="kdenlive:docproperties.proxyimageminsize">2000</property>
  <property name="kdenlive:docproperties.proxyimagesize">800</property>
  <property name="kdenlive:docproperties.proxyminsize">1000</property>
  <property name="kdenlive:docproperties.proxyparams"/>
  <property name="kdenlive:docproperties.proxyresize">640</property>
  <property name="kdenlive:docproperties.seekOffset">30000</property>
  <property name="kdenlive:docproperties.uuid">{644355f9-7503-49df-8389-270348fbf9d6}</property>
  <property name="kdenlive:docproperties.version">1.1</property>
  <property name="kdenlive:expandedFolders"/>
  <property name="kdenlive:binZoom">4</property>
  <property name="kdenlive:documentnotes"/>
  <property name="kdenlive:docproperties.opensequences">{644355f9-7503-49df-8389-270348fbf9d6}</property>
  <property name="kdenlive:docproperties.activetimeline">{644355f9-7503-49df-8389-270348fbf9d6}</property>
  <property name="kdenlive:folder.-1.5">audio</property>
  <property name="kdenlive:folder.-1.8">b roll</property>
  <property name="kdenlive:folder.-1.10">images</property>
  <property name="kdenlive:folder.-1.18">titles</property>
  <property name="kdenlive:docproperties.rendercategory">Generic (HD for web, mobile devices...)</property>
  <property name="kdenlive:docproperties.rendercustomquality">-1</property>
  <property name="kdenlive:docproperties.renderendguide">-1</property>
  <property name="kdenlive:docproperties.renderexportaudio">0</property>
  <property name="kdenlive:docproperties.renderfullcolorrange">0</property>
  <property name="kdenlive:docproperties.rendermode">0</property>
  <property name="kdenlive:docproperties.renderplay">0</property>
  <property name="kdenlive:docproperties.renderpreview">0</property>
  <property name="kdenlive:docproperties.renderprofile">MP4-H264/AAC</property>
  <property name="kdenlive:docproperties.renderrescale">0</property>
  <property name="kdenlive:docproperties.renderrescaleheight">960</property>
  <property name="kdenlive:docproperties.renderrescalewidth">540</property>
  <property name="kdenlive:docproperties.renderspeed">6</property>
  <property name="kdenlive:docproperties.renderstartguide">-1</property>
  <property name="kdenlive:docproperties.rendertcoverlay">0</property>
  <property name="kdenlive:docproperties.rendertctype">-1</property>
  <property name="kdenlive:docproperties.rendertwopass">0</property>
  <property name="kdenlive:docproperties.renderurl">/home/liquidzulu/Videos/yt/vid-store/fee/apollo-vs-dionysus.mp4</property>
  <property name="xml_retain">1</property>
  <entry producer="{644355f9-7503-49df-8389-270348fbf9d6}" in="00:00:00.000" out="00:00:00.000"/>
  <entry producer="chain13" in="00:00:00.000" out="00:00:44.600"/>
  <entry producer="chain14" in="00:00:00.000" out="00:03:20.480"/>
  <entry producer="chain15" in="00:00:00.000" out="00:06:10.840"/>
  <entry producer="producer1" in="00:00:00.000" out="00:00:04.960"/>
  <entry producer="producer9" in="00:00:00.000" out="00:00:04.960"/>
  <entry producer="producer10" in="00:00:00.000" out="00:00:04.960"/>
  <entry producer="producer11" in="00:00:00.000" out="00:00:04.960"/>
  <entry producer="producer12" in="00:00:00.000" out="00:00:04.960"/>
  <entry producer="producer13" in="00:00:00.000" out="00:00:04.960"/>
  <entry producer="producer14" in="00:00:00.000" out="00:00:04.960"/>
  <entry producer="producer15" in="00:00:00.000" out="00:00:04.960"/>
  <entry producer="chain16" in="00:00:00.000" out="00:00:15.000"/>
  <entry producer="producer3" in="00:00:00.000" out="00:00:04.960"/>
  <entry producer="chain17" in="00:00:00.000" out="00:00:31.800"/>
  <entry producer="producer7" in="00:00:00.000" out="00:00:04.960"/>
  <entry producer="producer4" in="00:00:00.000" out="00:00:04.960"/>
  <entry producer="producer8" in="00:00:00.000" out="00:00:04.960"/>
  <entry producer="producer5" in="00:00:00.000" out="00:00:04.960"/>
  <entry producer="chain18" in="00:00:00.000" out="00:14:16.440"/>
  <entry producer="chain19" in="00:00:00.000" out="00:01:02.560"/>
  <entry producer="chain20" in="00:00:00.000" out="00:01:33.720"/>
  <entry producer="chain21" in="00:00:00.000" out="00:13:43.640"/>
  <entry producer="chain22" in="00:00:00.000" out="00:01:54.320"/>
  <entry producer="chain23" in="00:00:00.000" out="00:03:33.080"/>
  <entry producer="producer2" in="00:00:00.000" out="00:00:04.960"/>
  <entry producer="chain24" in="00:00:00.000" out="00:13:27.040"/>
  <entry producer="chain25" in="00:00:00.000" out="00:04:05.080"/>
 </playlist>
 <tractor id="tractor13" in="00:00:00.000" out="00:00:44.640">
  <property name="kdenlive:projectTractor">1</property>
  <track producer="{644355f9-7503-49df-8389-270348fbf9d6}" in="00:00:00.000" out="00:00:44.640"/>
 </tractor>
</mlt>
