<?xml version='1.0' encoding='utf-8'?>
<mlt LC_NUMERIC="C" producer="main_bin" version="7.8.0" root="/home/liquidzulu/Documents/youtube-scripts/scripts/planned-obsolescence">
 <profile frame_rate_num="24000" sample_aspect_num="1" display_aspect_den="9" colorspace="709" progressive="1" description="HD 720p 23.98 fps" display_aspect_num="16" frame_rate_den="1001" width="1280" height="720" sample_aspect_den="1"/>
 <producer id="producer0" in="00:00:00.000" out="00:45:21.813">
  <property name="length">65259</property>
  <property name="eof">pause</property>
  <property name="resource">video/2023-05-02 09-07-45.mkv</property>
  <property name="meta.media.nb_streams">2</property>
  <property name="meta.media.0.stream.type">video</property>
  <property name="meta.media.0.stream.frame_rate">23.976</property>
  <property name="meta.media.0.stream.sample_aspect_ratio">0</property>
  <property name="meta.media.0.codec.width">1280</property>
  <property name="meta.media.0.codec.height">720</property>
  <property name="meta.media.0.codec.rotate">0</property>
  <property name="meta.media.0.codec.pix_fmt">yuv420p</property>
  <property name="meta.media.0.codec.sample_aspect_ratio">1</property>
  <property name="meta.media.0.codec.colorspace">709</property>
  <property name="meta.media.0.codec.color_trc">1</property>
  <property name="meta.media.0.codec.name">h264</property>
  <property name="meta.media.0.codec.long_name">H.264 / AVC / MPEG-4 AVC / MPEG-4 part 10</property>
  <property name="meta.media.0.codec.bit_rate">0</property>
  <property name="meta.attr.0.stream.DURATION.markup">00:45:21.844000000</property>
  <property name="meta.media.1.stream.type">audio</property>
  <property name="meta.media.1.codec.sample_fmt">fltp</property>
  <property name="meta.media.1.codec.sample_rate">48000</property>
  <property name="meta.media.1.codec.channels">2</property>
  <property name="meta.media.1.codec.name">aac</property>
  <property name="meta.media.1.codec.long_name">AAC (Advanced Audio Coding)</property>
  <property name="meta.media.1.codec.bit_rate">0</property>
  <property name="meta.attr.1.stream.title.markup">simple_aac_recording</property>
  <property name="meta.attr.1.stream.DURATION.markup">00:45:21.728000000</property>
  <property name="meta.attr.ENCODER.markup">Lavf58.76.100</property>
  <property name="seekable">1</property>
  <property name="meta.media.sample_aspect_num">1</property>
  <property name="meta.media.sample_aspect_den">1</property>
  <property name="aspect_ratio">1</property>
  <property name="audio_index">1</property>
  <property name="video_index">0</property>
  <property name="mute_on_pause">0</property>
  <property name="mlt_service">avformat-novalidate</property>
  <property name="kdenlive:clipname"/>
  <property name="kdenlive:clip_type">0</property>
  <property name="kdenlive:folderid">-1</property>
  <property name="kdenlive:id">2</property>
  <property name="kdenlive:file_size">4959848550</property>
  <property name="kdenlive:file_hash">f68f468e43381e970e10280163f2df84</property>
  <property name="kdenlive:audio_max1">211</property>
  <property name="meta.media.frame_rate_num">24000</property>
  <property name="meta.media.frame_rate_den">1001</property>
  <property name="meta.media.colorspace">709</property>
  <property name="meta.media.color_trc">1</property>
  <property name="meta.media.has_b_frames">2</property>
  <property name="meta.media.width">1280</property>
  <property name="meta.media.height">720</property>
  <property name="meta.media.color_range">mpeg</property>
  <property name="meta.media.top_field_first">0</property>
  <property name="meta.media.progressive">1</property>
 </producer>
 <producer id="producer5" in="00:00:00.000" out="00:00:27.527">
  <property name="length">661</property>
  <property name="eof">pause</property>
  <property name="resource">video/2023-05-02 09-58-33.mkv</property>
  <property name="meta.media.nb_streams">2</property>
  <property name="meta.media.0.stream.type">video</property>
  <property name="meta.media.0.stream.frame_rate">23.976</property>
  <property name="meta.media.0.stream.sample_aspect_ratio">0</property>
  <property name="meta.media.0.codec.width">1280</property>
  <property name="meta.media.0.codec.height">720</property>
  <property name="meta.media.0.codec.rotate">0</property>
  <property name="meta.media.0.codec.pix_fmt">yuv420p</property>
  <property name="meta.media.0.codec.sample_aspect_ratio">1</property>
  <property name="meta.media.0.codec.colorspace">709</property>
  <property name="meta.media.0.codec.color_trc">1</property>
  <property name="meta.media.0.codec.name">h264</property>
  <property name="meta.media.0.codec.long_name">H.264 / AVC / MPEG-4 AVC / MPEG-4 part 10</property>
  <property name="meta.media.0.codec.bit_rate">0</property>
  <property name="meta.attr.0.stream.DURATION.markup">00:00:27.570000000</property>
  <property name="meta.media.1.stream.type">audio</property>
  <property name="meta.media.1.codec.sample_fmt">fltp</property>
  <property name="meta.media.1.codec.sample_rate">48000</property>
  <property name="meta.media.1.codec.channels">2</property>
  <property name="meta.media.1.codec.name">aac</property>
  <property name="meta.media.1.codec.long_name">AAC (Advanced Audio Coding)</property>
  <property name="meta.media.1.codec.bit_rate">0</property>
  <property name="meta.attr.1.stream.title.markup">simple_aac_recording</property>
  <property name="meta.attr.1.stream.DURATION.markup">00:00:27.370000000</property>
  <property name="meta.attr.ENCODER.markup">Lavf58.76.100</property>
  <property name="seekable">1</property>
  <property name="meta.media.sample_aspect_num">1</property>
  <property name="meta.media.sample_aspect_den">1</property>
  <property name="aspect_ratio">1</property>
  <property name="audio_index">-1</property>
  <property name="video_index">0</property>
  <property name="mute_on_pause">0</property>
  <property name="mlt_service">avformat-novalidate</property>
  <property name="kdenlive:clipname"/>
  <property name="kdenlive:clip_type">0</property>
  <property name="kdenlive:folderid">11</property>
  <property name="kdenlive:id">3</property>
  <property name="kdenlive:file_size">37543274</property>
  <property name="kdenlive:file_hash">d594b5a1c48f1155f625935986f1fa05</property>
  <property name="kdenlive:audio_max1">1</property>
  <property name="meta.media.frame_rate_num">24000</property>
  <property name="meta.media.frame_rate_den">1001</property>
  <property name="meta.media.colorspace">709</property>
  <property name="meta.media.color_trc">1</property>
  <property name="meta.media.has_b_frames">2</property>
  <property name="meta.media.width">1280</property>
  <property name="meta.media.height">720</property>
  <property name="meta.media.color_range">mpeg</property>
  <property name="meta.media.top_field_first">0</property>
  <property name="meta.media.progressive">1</property>
  <property name="kdenlive:active_streams">-1</property>
  <property name="set.test_audio">1</property>
 </producer>
 <producer id="producer10" in="00:00:00.000" out="00:45:26.568">
  <property name="length">65373</property>
  <property name="eof">pause</property>
  <property name="resource">audio/proc.mp3</property>
  <property name="meta.media.nb_streams">1</property>
  <property name="meta.media.0.stream.type">audio</property>
  <property name="meta.media.0.codec.sample_fmt">fltp</property>
  <property name="meta.media.0.codec.sample_rate">44100</property>
  <property name="meta.media.0.codec.channels">2</property>
  <property name="meta.media.0.codec.name">mp3float</property>
  <property name="meta.media.0.codec.long_name">MP3 (MPEG audio layer 3)</property>
  <property name="meta.media.0.codec.bit_rate">192000</property>
  <property name="meta.attr.encoded_by.markup">LAME in FL Studio 21</property>
  <property name="meta.attr.date.markup">2023</property>
  <property name="seekable">1</property>
  <property name="audio_index">0</property>
  <property name="video_index">-1</property>
  <property name="mute_on_pause">1</property>
  <property name="mlt_service">avformat</property>
  <property name="kdenlive:clipname"/>
  <property name="kdenlive:clip_type">1</property>
  <property name="kdenlive:folderid">17</property>
  <property name="kdenlive:id">4</property>
  <property name="kdenlive:file_size">65438044</property>
  <property name="kdenlive:file_hash">9319dcb16695fa42b342eeb1d30f64a1</property>
  <property name="kdenlive:audio_max0">207</property>
 </producer>
 <producer id="producer8" in="00:00:00.000" out="00:02:43.794">
  <property name="length">3928</property>
  <property name="eof">pause</property>
  <property name="resource">/home/liquidzulu/Music/EPIC INTRO MUSIC ON EPIDEMIC SOUND.mp3</property>
  <property name="meta.media.nb_streams">1</property>
  <property name="meta.media.0.stream.type">audio</property>
  <property name="meta.media.0.codec.sample_fmt">fltp</property>
  <property name="meta.media.0.codec.sample_rate">44100</property>
  <property name="meta.media.0.codec.channels">2</property>
  <property name="meta.media.0.codec.name">mp3float</property>
  <property name="meta.media.0.codec.long_name">MP3 (MPEG audio layer 3)</property>
  <property name="meta.media.0.codec.bit_rate">128000</property>
  <property name="meta.attr.major_brand.markup">dash</property>
  <property name="meta.attr.minor_version.markup">0</property>
  <property name="meta.attr.compatible_brands.markup">iso6mp41</property>
  <property name="meta.attr.encoder.markup">Lavf58.45.100</property>
  <property name="seekable">1</property>
  <property name="audio_index">0</property>
  <property name="video_index">-1</property>
  <property name="mute_on_pause">1</property>
  <property name="mlt_service">avformat</property>
  <property name="kdenlive:clipname"/>
  <property name="kdenlive:clip_type">1</property>
  <property name="kdenlive:folderid">17</property>
  <property name="kdenlive:id">5</property>
  <property name="kdenlive:file_size">2621580</property>
  <property name="kdenlive:file_hash">aeffec3c7d48cb853f9eae7d6107f952</property>
  <property name="kdenlive:audio_max0">249</property>
 </producer>
 <producer id="producer2" in="00:00:00.000" out="00:10:32.741">
  <property name="length">15171</property>
  <property name="eof">pause</property>
  <property name="resource">video/response/Planned Obsolescence Sucks. Here's Why It Still Exists.(720p).mp4</property>
  <property name="audio_index">-1</property>
  <property name="video_index">0</property>
  <property name="mute_on_pause">0</property>
  <property name="mlt_service">avformat-novalidate</property>
  <property name="meta.media.nb_streams">2</property>
  <property name="meta.media.0.stream.type">video</property>
  <property name="meta.media.0.stream.frame_rate">23.976</property>
  <property name="meta.media.0.stream.sample_aspect_ratio">0</property>
  <property name="meta.media.0.codec.width">1280</property>
  <property name="meta.media.0.codec.height">720</property>
  <property name="meta.media.0.codec.rotate">0</property>
  <property name="meta.media.0.codec.pix_fmt">yuv420p</property>
  <property name="meta.media.0.codec.sample_aspect_ratio">1</property>
  <property name="meta.media.0.codec.colorspace">709</property>
  <property name="meta.media.0.codec.color_trc">1</property>
  <property name="meta.media.0.codec.name">h264</property>
  <property name="meta.media.0.codec.long_name">H.264 / AVC / MPEG-4 AVC / MPEG-4 part 10</property>
  <property name="meta.media.0.codec.bit_rate">325023</property>
  <property name="meta.attr.0.stream.creation_time.markup">2021-01-16T13:33:58.000000Z</property>
  <property name="meta.attr.0.stream.handler_name.markup">ISO Media file produced by Google Inc. Created on: 01/16/2021.</property>
  <property name="meta.attr.0.stream.vendor_id.markup">[0][0][0][0]</property>
  <property name="meta.media.1.stream.type">audio</property>
  <property name="meta.media.1.codec.sample_fmt">fltp</property>
  <property name="meta.media.1.codec.sample_rate">44100</property>
  <property name="meta.media.1.codec.channels">2</property>
  <property name="meta.media.1.codec.name">aac</property>
  <property name="meta.media.1.codec.long_name">AAC (Advanced Audio Coding)</property>
  <property name="meta.media.1.codec.bit_rate">128001</property>
  <property name="meta.attr.1.stream.creation_time.markup">2021-01-16T13:33:58.000000Z</property>
  <property name="meta.attr.1.stream.handler_name.markup">ISO Media file produced by Google Inc. Created on: 01/16/2021.</property>
  <property name="meta.attr.1.stream.vendor_id.markup">[0][0][0][0]</property>
  <property name="meta.attr.major_brand.markup">mp42</property>
  <property name="meta.attr.minor_version.markup">0</property>
  <property name="meta.attr.compatible_brands.markup">isommp42</property>
  <property name="meta.attr.creation_time.markup">2021-01-16T13:33:58.000000Z</property>
  <property name="seekable">1</property>
  <property name="meta.media.sample_aspect_num">1</property>
  <property name="meta.media.sample_aspect_den">1</property>
  <property name="aspect_ratio">1</property>
  <property name="kdenlive:clipname"/>
  <property name="meta.media.frame_rate_num">24000</property>
  <property name="meta.media.frame_rate_den">1001</property>
  <property name="meta.media.colorspace">709</property>
  <property name="meta.media.color_trc">1</property>
  <property name="meta.media.has_b_frames">1</property>
  <property name="meta.media.width">1280</property>
  <property name="meta.media.height">720</property>
  <property name="meta.media.color_range">mpeg</property>
  <property name="meta.media.top_field_first">0</property>
  <property name="meta.media.progressive">1</property>
  <property name="kdenlive:clip_type">0</property>
  <property name="kdenlive:folderid">6</property>
  <property name="kdenlive:id">7</property>
  <property name="kdenlive:file_size">36108948</property>
  <property name="kdenlive:file_hash">9521b83142c948875df1c4053edb5615</property>
  <property name="kdenlive:audio_max1">215</property>
  <property name="kdenlive:active_streams">-1</property>
  <property name="set.test_audio">1</property>
 </producer>
 <producer id="producer1" in="00:00:00.000" out="00:07:25.234">
  <property name="length">10675</property>
  <property name="eof">pause</property>
  <property name="resource">video/response/The Truth about Planned Obsolescence(720p).mp4</property>
  <property name="audio_index">-1</property>
  <property name="video_index">0</property>
  <property name="mute_on_pause">0</property>
  <property name="mlt_service">avformat-novalidate</property>
  <property name="meta.media.nb_streams">2</property>
  <property name="meta.media.0.stream.type">video</property>
  <property name="meta.media.0.stream.frame_rate">29.97</property>
  <property name="meta.media.0.stream.sample_aspect_ratio">0</property>
  <property name="meta.media.0.codec.width">1280</property>
  <property name="meta.media.0.codec.height">720</property>
  <property name="meta.media.0.codec.rotate">0</property>
  <property name="meta.media.0.codec.pix_fmt">yuv420p</property>
  <property name="meta.media.0.codec.sample_aspect_ratio">1</property>
  <property name="meta.media.0.codec.colorspace">709</property>
  <property name="meta.media.0.codec.color_trc">1</property>
  <property name="meta.media.0.codec.name">h264</property>
  <property name="meta.media.0.codec.long_name">H.264 / AVC / MPEG-4 AVC / MPEG-4 part 10</property>
  <property name="meta.media.0.codec.bit_rate">814204</property>
  <property name="meta.attr.0.stream.creation_time.markup">2018-09-21T17:49:06.000000Z</property>
  <property name="meta.attr.0.stream.handler_name.markup">ISO Media file produced by Google Inc. Created on: 09/21/2018.</property>
  <property name="meta.attr.0.stream.vendor_id.markup">[0][0][0][0]</property>
  <property name="meta.media.1.stream.type">audio</property>
  <property name="meta.media.1.codec.sample_fmt">fltp</property>
  <property name="meta.media.1.codec.sample_rate">44100</property>
  <property name="meta.media.1.codec.channels">2</property>
  <property name="meta.media.1.codec.name">aac</property>
  <property name="meta.media.1.codec.long_name">AAC (Advanced Audio Coding)</property>
  <property name="meta.media.1.codec.bit_rate">125594</property>
  <property name="meta.attr.1.stream.creation_time.markup">2018-09-21T17:49:06.000000Z</property>
  <property name="meta.attr.1.stream.language.markup">eng</property>
  <property name="meta.attr.1.stream.handler_name.markup">ISO Media file produced by Google Inc. Created on: 09/21/2018.</property>
  <property name="meta.attr.1.stream.vendor_id.markup">[0][0][0][0]</property>
  <property name="meta.attr.major_brand.markup">mp42</property>
  <property name="meta.attr.minor_version.markup">0</property>
  <property name="meta.attr.compatible_brands.markup">isommp42</property>
  <property name="meta.attr.creation_time.markup">2018-09-21T17:49:06.000000Z</property>
  <property name="seekable">1</property>
  <property name="meta.media.sample_aspect_num">1</property>
  <property name="meta.media.sample_aspect_den">1</property>
  <property name="aspect_ratio">1</property>
  <property name="kdenlive:clipname"/>
  <property name="meta.media.frame_rate_num">30000</property>
  <property name="meta.media.frame_rate_den">1001</property>
  <property name="meta.media.colorspace">709</property>
  <property name="meta.media.color_trc">1</property>
  <property name="meta.media.has_b_frames">1</property>
  <property name="meta.media.width">1280</property>
  <property name="meta.media.height">720</property>
  <property name="meta.media.color_range">mpeg</property>
  <property name="meta.media.top_field_first">0</property>
  <property name="meta.media.progressive">1</property>
  <property name="kdenlive:clip_type">0</property>
  <property name="kdenlive:folderid">6</property>
  <property name="kdenlive:id">8</property>
  <property name="kdenlive:file_size">52520946</property>
  <property name="kdenlive:file_hash">e78040097f7284ca41f451a5e2c3ec00</property>
  <property name="kdenlive:audio_max1">182</property>
  <property name="kdenlive:active_streams">-1</property>
  <property name="set.test_audio">1</property>
 </producer>
 <producer id="producer3" in="00:00:00.000" out="00:17:29.780">
  <property name="length">25170</property>
  <property name="eof">pause</property>
  <property name="resource">video/response/This is why we can't have nice things(720p).mp4</property>
  <property name="audio_index">-1</property>
  <property name="video_index">0</property>
  <property name="mute_on_pause">0</property>
  <property name="mlt_service">avformat-novalidate</property>
  <property name="meta.media.nb_streams">2</property>
  <property name="meta.media.0.stream.type">video</property>
  <property name="meta.media.0.stream.frame_rate">29.97</property>
  <property name="meta.media.0.stream.sample_aspect_ratio">0</property>
  <property name="meta.media.0.codec.width">1280</property>
  <property name="meta.media.0.codec.height">720</property>
  <property name="meta.media.0.codec.rotate">0</property>
  <property name="meta.media.0.codec.pix_fmt">yuv420p</property>
  <property name="meta.media.0.codec.sample_aspect_ratio">1</property>
  <property name="meta.media.0.codec.colorspace">709</property>
  <property name="meta.media.0.codec.color_trc">1</property>
  <property name="meta.media.0.codec.name">h264</property>
  <property name="meta.media.0.codec.long_name">H.264 / AVC / MPEG-4 AVC / MPEG-4 part 10</property>
  <property name="meta.media.0.codec.bit_rate">583086</property>
  <property name="meta.attr.0.stream.creation_time.markup">2022-06-05T16:34:43.000000Z</property>
  <property name="meta.attr.0.stream.handler_name.markup">ISO Media file produced by Google Inc. Created on: 06/05/2022.</property>
  <property name="meta.attr.0.stream.vendor_id.markup">[0][0][0][0]</property>
  <property name="meta.media.1.stream.type">audio</property>
  <property name="meta.media.1.codec.sample_fmt">fltp</property>
  <property name="meta.media.1.codec.sample_rate">44100</property>
  <property name="meta.media.1.codec.channels">2</property>
  <property name="meta.media.1.codec.name">aac</property>
  <property name="meta.media.1.codec.long_name">AAC (Advanced Audio Coding)</property>
  <property name="meta.media.1.codec.bit_rate">128000</property>
  <property name="meta.attr.1.stream.creation_time.markup">2022-06-05T16:34:43.000000Z</property>
  <property name="meta.attr.1.stream.handler_name.markup">ISO Media file produced by Google Inc. Created on: 06/05/2022.</property>
  <property name="meta.attr.1.stream.vendor_id.markup">[0][0][0][0]</property>
  <property name="meta.attr.major_brand.markup">mp42</property>
  <property name="meta.attr.minor_version.markup">0</property>
  <property name="meta.attr.compatible_brands.markup">isommp42</property>
  <property name="meta.attr.creation_time.markup">2022-06-05T16:34:43.000000Z</property>
  <property name="seekable">1</property>
  <property name="meta.media.sample_aspect_num">1</property>
  <property name="meta.media.sample_aspect_den">1</property>
  <property name="aspect_ratio">1</property>
  <property name="kdenlive:clipname"/>
  <property name="meta.media.frame_rate_num">30000</property>
  <property name="meta.media.frame_rate_den">1001</property>
  <property name="meta.media.colorspace">709</property>
  <property name="meta.media.color_trc">1</property>
  <property name="meta.media.has_b_frames">1</property>
  <property name="meta.media.width">1280</property>
  <property name="meta.media.height">720</property>
  <property name="meta.media.color_range">mpeg</property>
  <property name="meta.media.top_field_first">0</property>
  <property name="meta.media.progressive">1</property>
  <property name="kdenlive:clip_type">0</property>
  <property name="kdenlive:folderid">6</property>
  <property name="kdenlive:id">9</property>
  <property name="kdenlive:file_size">93835261</property>
  <property name="kdenlive:file_hash">044b20de22edf20127dd1233091868a7</property>
  <property name="kdenlive:audio_max1">223</property>
  <property name="kdenlive:active_streams">-1</property>
  <property name="set.test_audio">1</property>
 </producer>
 <producer id="producer4" in="00:00:00.000" out="00:00:48.215">
  <property name="length">1157</property>
  <property name="eof">pause</property>
  <property name="resource">video/2023-05-02 13-44-29.mkv</property>
  <property name="audio_index">-1</property>
  <property name="video_index">0</property>
  <property name="mute_on_pause">0</property>
  <property name="mlt_service">avformat-novalidate</property>
  <property name="meta.media.nb_streams">2</property>
  <property name="meta.media.0.stream.type">video</property>
  <property name="meta.media.0.stream.frame_rate">60</property>
  <property name="meta.media.0.stream.sample_aspect_ratio">0</property>
  <property name="meta.media.0.codec.width">1920</property>
  <property name="meta.media.0.codec.height">1080</property>
  <property name="meta.media.0.codec.rotate">0</property>
  <property name="meta.media.0.codec.pix_fmt">yuv420p</property>
  <property name="meta.media.0.codec.sample_aspect_ratio">1</property>
  <property name="meta.media.0.codec.colorspace">709</property>
  <property name="meta.media.0.codec.color_trc">1</property>
  <property name="meta.media.0.codec.name">h264</property>
  <property name="meta.media.0.codec.long_name">H.264 / AVC / MPEG-4 AVC / MPEG-4 part 10</property>
  <property name="meta.media.0.codec.bit_rate">0</property>
  <property name="meta.attr.0.stream.DURATION.markup">00:00:48.250000000</property>
  <property name="meta.media.1.stream.type">audio</property>
  <property name="meta.media.1.codec.sample_fmt">fltp</property>
  <property name="meta.media.1.codec.sample_rate">48000</property>
  <property name="meta.media.1.codec.channels">2</property>
  <property name="meta.media.1.codec.name">aac</property>
  <property name="meta.media.1.codec.long_name">AAC (Advanced Audio Coding)</property>
  <property name="meta.media.1.codec.bit_rate">0</property>
  <property name="meta.attr.1.stream.title.markup">simple_aac_recording</property>
  <property name="meta.attr.1.stream.DURATION.markup">00:00:48.234000000</property>
  <property name="meta.attr.ENCODER.markup">Lavf58.76.100</property>
  <property name="seekable">1</property>
  <property name="meta.media.sample_aspect_num">1</property>
  <property name="meta.media.sample_aspect_den">1</property>
  <property name="aspect_ratio">1</property>
  <property name="kdenlive:clipname"/>
  <property name="meta.media.frame_rate_num">60</property>
  <property name="meta.media.frame_rate_den">1</property>
  <property name="meta.media.colorspace">709</property>
  <property name="meta.media.color_trc">1</property>
  <property name="meta.media.has_b_frames">2</property>
  <property name="meta.media.width">1920</property>
  <property name="meta.media.height">1080</property>
  <property name="meta.media.color_range">mpeg</property>
  <property name="meta.media.top_field_first">0</property>
  <property name="meta.media.progressive">1</property>
  <property name="kdenlive:clip_type">0</property>
  <property name="kdenlive:folderid">11</property>
  <property name="kdenlive:id">10</property>
  <property name="kdenlive:file_size">4922891</property>
  <property name="kdenlive:file_hash">81f82788dbebe5766457b40ddde4f296</property>
  <property name="kdenlive:audio_max1">1</property>
  <property name="kdenlive:active_streams">-1</property>
  <property name="set.test_audio">1</property>
 </producer>
 <producer id="producer6" in="00:00:00.000" out="00:00:40.499">
  <property name="length">972</property>
  <property name="eof">pause</property>
  <property name="resource">video/VID_20230502_100121.mp4</property>
  <property name="audio_index">-1</property>
  <property name="video_index">0</property>
  <property name="mute_on_pause">0</property>
  <property name="mlt_service">avformat-novalidate</property>
  <property name="meta.media.nb_streams">2</property>
  <property name="meta.media.0.stream.type">video</property>
  <property name="meta.media.0.stream.frame_rate">30.029</property>
  <property name="meta.media.0.stream.sample_aspect_ratio">0</property>
  <property name="meta.media.0.codec.width">3840</property>
  <property name="meta.media.0.codec.height">2160</property>
  <property name="meta.media.0.codec.rotate">90</property>
  <property name="meta.media.0.codec.pix_fmt">yuvj420p</property>
  <property name="meta.media.0.codec.sample_aspect_ratio">0</property>
  <property name="meta.media.0.codec.colorspace">601</property>
  <property name="meta.media.0.codec.color_trc">6</property>
  <property name="meta.media.0.codec.name">h264</property>
  <property name="meta.media.0.codec.long_name">H.264 / AVC / MPEG-4 AVC / MPEG-4 part 10</property>
  <property name="meta.media.0.codec.bit_rate">42212939</property>
  <property name="meta.attr.0.stream.rotate.markup">90</property>
  <property name="meta.attr.0.stream.creation_time.markup">2023-05-02T09:02:03.000000Z</property>
  <property name="meta.attr.0.stream.language.markup">eng</property>
  <property name="meta.attr.0.stream.handler_name.markup">VideoHandle</property>
  <property name="meta.attr.0.stream.vendor_id.markup">[0][0][0][0]</property>
  <property name="meta.media.1.stream.type">audio</property>
  <property name="meta.media.1.codec.sample_fmt">fltp</property>
  <property name="meta.media.1.codec.sample_rate">48000</property>
  <property name="meta.media.1.codec.channels">1</property>
  <property name="meta.media.1.codec.name">aac</property>
  <property name="meta.media.1.codec.long_name">AAC (Advanced Audio Coding)</property>
  <property name="meta.media.1.codec.bit_rate">96031</property>
  <property name="meta.attr.1.stream.creation_time.markup">2023-05-02T09:02:03.000000Z</property>
  <property name="meta.attr.1.stream.language.markup">eng</property>
  <property name="meta.attr.1.stream.handler_name.markup">SoundHandle</property>
  <property name="meta.attr.1.stream.vendor_id.markup">[0][0][0][0]</property>
  <property name="meta.attr.major_brand.markup">mp42</property>
  <property name="meta.attr.minor_version.markup">0</property>
  <property name="meta.attr.compatible_brands.markup">isommp42</property>
  <property name="meta.attr.creation_time.markup">2023-05-02T09:02:03.000000Z</property>
  <property name="meta.attr.com.android.version.markup">12</property>
  <property name="seekable">1</property>
  <property name="meta.media.sample_aspect_num">1</property>
  <property name="meta.media.sample_aspect_den">1</property>
  <property name="aspect_ratio">1</property>
  <property name="kdenlive:clipname"/>
  <property name="meta.media.frame_rate_num">109620000</property>
  <property name="meta.media.frame_rate_den">3650467</property>
  <property name="meta.media.colorspace">601</property>
  <property name="meta.media.color_trc">6</property>
  <property name="meta.media.has_b_frames">0</property>
  <property name="meta.media.width">2160</property>
  <property name="meta.media.height">3840</property>
  <property name="meta.media.color_range">full</property>
  <property name="meta.media.top_field_first">0</property>
  <property name="meta.media.progressive">1</property>
  <property name="kdenlive:clip_type">0</property>
  <property name="kdenlive:folderid">11</property>
  <property name="kdenlive:id">12</property>
  <property name="kdenlive:file_size">214525193</property>
  <property name="kdenlive:file_hash">d4623c1f6e54c81f212a83ae29aa6451</property>
  <property name="kdenlive:audio_max1">114</property>
  <property name="kdenlive:active_streams">-1</property>
  <property name="set.test_audio">1</property>
 </producer>
 <producer id="producer7" in="00:00:00.000" out="00:00:04.963">
  <property name="length">120</property>
  <property name="eof">pause</property>
  <property name="resource"/>
  <property name="progressive">1</property>
  <property name="aspect_ratio">1</property>
  <property name="seekable">1</property>
  <property name="mlt_service">kdenlivetitle</property>
  <property name="kdenlive:duration">120</property>
  <property name="kdenlive:clipname">here's why</property>
  <property name="xmldata">&lt;kdenlivetitle duration="120" LC_NUMERIC="C" width="1280" height="720" out="119">
 &lt;item type="QGraphicsTextItem" z-index="0">
  &lt;position x="446" y="316">
   &lt;transform>1,0,0,0,1,0,0,0,1&lt;/transform>
  &lt;/position>
  &lt;content shadow="0;#64000000;3;3;3" font-underline="0" box-height="87" font-outline-color="0,0,0,255" font="Cubano" letter-spacing="0" font-pixel-size="72" font-italic="0" typewriter="0;2;1;0;0" alignment="0" font-weight="50" font-outline="2" box-width="388.844" font-color="255,255,255,255">here's why&lt;/content>
 &lt;/item>
 &lt;startviewport rect="0,0,1280,720"/>
 &lt;endviewport rect="0,0,1280,720"/>
 &lt;background color="0,0,0,0"/>
&lt;/kdenlivetitle>
</property>
  <property name="kdenlive:folderid">15</property>
  <property name="kdenlive:clip_type">2</property>
  <property name="kdenlive:id">13</property>
  <property name="kdenlive:file_hash">1dd1f58709539c0634954b3017bec253</property>
  <property name="force_reload">0</property>
  <property name="meta.media.width">1280</property>
  <property name="meta.media.height">720</property>
 </producer>
 <producer id="producer9" in="00:00:00.000" out="00:02:15.474">
  <property name="length">3249</property>
  <property name="eof">pause</property>
  <property name="resource">/home/liquidzulu/Music/Old World Saga - Hanu Dixit.mp3</property>
  <property name="meta.media.nb_streams">1</property>
  <property name="meta.media.0.stream.type">audio</property>
  <property name="meta.media.0.codec.sample_fmt">fltp</property>
  <property name="meta.media.0.codec.sample_rate">44100</property>
  <property name="meta.media.0.codec.channels">2</property>
  <property name="meta.media.0.codec.name">mp3float</property>
  <property name="meta.media.0.codec.long_name">MP3 (MPEG audio layer 3)</property>
  <property name="meta.media.0.codec.bit_rate">320000</property>
  <property name="meta.attr.0.stream.encoder.markup">Lavf</property>
  <property name="meta.attr.encoder.markup">Google</property>
  <property name="seekable">1</property>
  <property name="audio_index">0</property>
  <property name="video_index">-1</property>
  <property name="mute_on_pause">1</property>
  <property name="mlt_service">avformat</property>
  <property name="kdenlive:clipname"/>
  <property name="kdenlive:clip_type">1</property>
  <property name="kdenlive:folderid">17</property>
  <property name="kdenlive:id">14</property>
  <property name="kdenlive:file_size">5420967</property>
  <property name="kdenlive:file_hash">e79b85ed1647c0631ab6453c64657ff9</property>
  <property name="kdenlive:audio_max0">248</property>
 </producer>
 <producer id="producer13" in="00:00:00.000" out="00:00:04.963">
  <property name="length">00:00:05.005</property>
  <property name="eof">pause</property>
  <property name="resource">images/dow0.jpg</property>
  <property name="ttl">25</property>
  <property name="aspect_ratio">1</property>
  <property name="progressive">1</property>
  <property name="seekable">1</property>
  <property name="meta.media.width">630</property>
  <property name="meta.media.height">789</property>
  <property name="mlt_service">qimage</property>
  <property name="kdenlive:clipname"/>
  <property name="kdenlive:duration">00:00:05.005</property>
  <property name="kdenlive:folderid">18</property>
  <property name="kdenlive:clip_type">2</property>
  <property name="kdenlive:id">16</property>
  <property name="kdenlive:file_size">94136</property>
  <property name="kdenlive:file_hash">aefbee0581549b8bdffbd260de343215</property>
 </producer>
 <producer id="producer11" in="00:00:00.000" out="00:00:04.963">
  <property name="length">00:00:05.005</property>
  <property name="eof">pause</property>
  <property name="resource">images/dow1.jpg</property>
  <property name="ttl">25</property>
  <property name="aspect_ratio">1</property>
  <property name="progressive">1</property>
  <property name="seekable">1</property>
  <property name="meta.media.width">474</property>
  <property name="meta.media.height">688</property>
  <property name="mlt_service">qimage</property>
  <property name="kdenlive:clipname"/>
  <property name="kdenlive:duration">00:00:05.005</property>
  <property name="kdenlive:folderid">18</property>
  <property name="kdenlive:clip_type">2</property>
  <property name="kdenlive:id">19</property>
  <property name="kdenlive:file_size">69005</property>
  <property name="kdenlive:file_hash">3f86207cc6cc7c33bd805cc2d49a521b</property>
 </producer>
 <producer id="producer12" in="00:00:00.000" out="00:00:04.963">
  <property name="length">00:00:05.005</property>
  <property name="eof">pause</property>
  <property name="resource">images/dow2.jpg</property>
  <property name="ttl">25</property>
  <property name="aspect_ratio">1</property>
  <property name="progressive">1</property>
  <property name="seekable">1</property>
  <property name="meta.media.width">760</property>
  <property name="meta.media.height">634</property>
  <property name="mlt_service">qimage</property>
  <property name="kdenlive:clipname"/>
  <property name="kdenlive:duration">00:00:05.005</property>
  <property name="kdenlive:folderid">18</property>
  <property name="kdenlive:clip_type">2</property>
  <property name="kdenlive:id">20</property>
  <property name="kdenlive:file_size">128065</property>
  <property name="kdenlive:file_hash">9c45e2a1aa3ef3852523cffc819f3eff</property>
 </producer>
 <producer id="producer14" in="00:00:00.000" out="00:00:10.010">
  <property name="length">241</property>
  <property name="eof">pause</property>
  <property name="resource">/home/liquidzulu/Videos/yt/b-roll/Dark Cinematic Background - 100% Free Stock Footage(720p).mp4</property>
  <property name="audio_index">-1</property>
  <property name="video_index">0</property>
  <property name="mute_on_pause">0</property>
  <property name="mlt_service">avformat-novalidate</property>
  <property name="meta.media.nb_streams">2</property>
  <property name="meta.media.0.stream.type">video</property>
  <property name="meta.media.0.stream.frame_rate">29.97</property>
  <property name="meta.media.0.stream.sample_aspect_ratio">0</property>
  <property name="meta.media.0.codec.width">1280</property>
  <property name="meta.media.0.codec.height">720</property>
  <property name="meta.media.0.codec.rotate">0</property>
  <property name="meta.media.0.codec.pix_fmt">yuv420p</property>
  <property name="meta.media.0.codec.sample_aspect_ratio">1</property>
  <property name="meta.media.0.codec.colorspace">709</property>
  <property name="meta.media.0.codec.color_trc">1</property>
  <property name="meta.media.0.codec.name">h264</property>
  <property name="meta.media.0.codec.long_name">H.264 / AVC / MPEG-4 AVC / MPEG-4 part 10</property>
  <property name="meta.media.0.codec.bit_rate">528096</property>
  <property name="meta.attr.0.stream.creation_time.markup">2022-08-30T08:40:32.000000Z</property>
  <property name="meta.attr.0.stream.handler_name.markup">ISO Media file produced by Google Inc. Created on: 08/30/2022.</property>
  <property name="meta.attr.0.stream.vendor_id.markup">[0][0][0][0]</property>
  <property name="meta.media.1.stream.type">audio</property>
  <property name="meta.media.1.codec.sample_fmt">fltp</property>
  <property name="meta.media.1.codec.sample_rate">44100</property>
  <property name="meta.media.1.codec.channels">2</property>
  <property name="meta.media.1.codec.name">aac</property>
  <property name="meta.media.1.codec.long_name">AAC (Advanced Audio Coding)</property>
  <property name="meta.media.1.codec.bit_rate">127999</property>
  <property name="meta.attr.1.stream.creation_time.markup">2022-08-30T08:40:32.000000Z</property>
  <property name="meta.attr.1.stream.language.markup">eng</property>
  <property name="meta.attr.1.stream.handler_name.markup">ISO Media file produced by Google Inc. Created on: 08/30/2022.</property>
  <property name="meta.attr.1.stream.vendor_id.markup">[0][0][0][0]</property>
  <property name="meta.attr.major_brand.markup">mp42</property>
  <property name="meta.attr.minor_version.markup">0</property>
  <property name="meta.attr.compatible_brands.markup">isommp42</property>
  <property name="meta.attr.creation_time.markup">2022-08-30T08:40:32.000000Z</property>
  <property name="seekable">1</property>
  <property name="meta.media.sample_aspect_num">1</property>
  <property name="meta.media.sample_aspect_den">1</property>
  <property name="aspect_ratio">1</property>
  <property name="kdenlive:clipname"/>
  <property name="meta.media.frame_rate_num">30000</property>
  <property name="meta.media.frame_rate_den">1001</property>
  <property name="meta.media.colorspace">709</property>
  <property name="meta.media.color_trc">1</property>
  <property name="meta.media.has_b_frames">1</property>
  <property name="meta.media.width">1280</property>
  <property name="meta.media.height">720</property>
  <property name="meta.media.color_range">mpeg</property>
  <property name="meta.media.top_field_first">0</property>
  <property name="meta.media.progressive">1</property>
  <property name="kdenlive:clip_type">0</property>
  <property name="kdenlive:folderid">11</property>
  <property name="kdenlive:id">21</property>
  <property name="kdenlive:file_size">827143</property>
  <property name="kdenlive:file_hash">32a421f6ec9c56a1e29cd866c16e4a66</property>
  <property name="kdenlive:audio_max1">1</property>
  <property name="kdenlive:active_streams">-1</property>
  <property name="set.test_audio">1</property>
 </producer>
 <producer id="producer15" in="00:00:00.000" out="00:00:18.977">
  <property name="length">456</property>
  <property name="eof">pause</property>
  <property name="resource">quotes/quote0-0.png</property>
  <property name="ttl">25</property>
  <property name="aspect_ratio">1</property>
  <property name="progressive">1</property>
  <property name="seekable">1</property>
  <property name="meta.media.width">1920</property>
  <property name="meta.media.height">1080</property>
  <property name="mlt_service">qimage</property>
  <property name="kdenlive:clipname"/>
  <property name="kdenlive:duration">00:00:05.005</property>
  <property name="kdenlive:folderid">23</property>
  <property name="kdenlive:clip_type">2</property>
  <property name="kdenlive:id">22</property>
  <property name="kdenlive:file_size">50965</property>
  <property name="kdenlive:file_hash">b5cfe245ea2beca4352d28a7a3b806e6</property>
 </producer>
 <producer id="producer16" in="00:00:00.000" out="00:00:18.977">
  <property name="length">456</property>
  <property name="eof">pause</property>
  <property name="resource">quotes/quote0-1.png</property>
  <property name="ttl">25</property>
  <property name="aspect_ratio">1</property>
  <property name="progressive">1</property>
  <property name="seekable">1</property>
  <property name="meta.media.width">1920</property>
  <property name="meta.media.height">1080</property>
  <property name="mlt_service">qimage</property>
  <property name="kdenlive:clipname"/>
  <property name="kdenlive:duration">00:00:05.005</property>
  <property name="kdenlive:folderid">23</property>
  <property name="kdenlive:clip_type">2</property>
  <property name="kdenlive:id">24</property>
  <property name="kdenlive:file_size">69178</property>
  <property name="kdenlive:file_hash">48987bd1b6030ae4b67103e462c62f4a</property>
 </producer>
 <producer id="producer17" in="00:00:00.000" out="00:00:18.977">
  <property name="length">456</property>
  <property name="eof">pause</property>
  <property name="resource">quotes/quote0-2.png</property>
  <property name="ttl">25</property>
  <property name="aspect_ratio">1</property>
  <property name="progressive">1</property>
  <property name="seekable">1</property>
  <property name="meta.media.width">1920</property>
  <property name="meta.media.height">1080</property>
  <property name="mlt_service">qimage</property>
  <property name="kdenlive:clipname"/>
  <property name="kdenlive:duration">00:00:05.005</property>
  <property name="kdenlive:folderid">23</property>
  <property name="kdenlive:clip_type">2</property>
  <property name="kdenlive:id">25</property>
  <property name="kdenlive:file_size">447891</property>
  <property name="kdenlive:file_hash">d52e713f3763e73b4d63672d1f39834e</property>
 </producer>
 <producer id="producer18" in="00:00:00.000" out="00:05:54.805">
  <property name="length">8507</property>
  <property name="eof">pause</property>
  <property name="resource">/home/liquidzulu/Videos/yt/b-roll/yt1s.com - How Cars Are Made In Factories Mega Factories Video.mp4</property>
  <property name="audio_index">-1</property>
  <property name="video_index">0</property>
  <property name="mute_on_pause">0</property>
  <property name="mlt_service">avformat-novalidate</property>
  <property name="meta.media.nb_streams">2</property>
  <property name="meta.media.0.stream.type">video</property>
  <property name="meta.media.0.stream.frame_rate">30</property>
  <property name="meta.media.0.stream.sample_aspect_ratio">1</property>
  <property name="meta.media.0.codec.width">1920</property>
  <property name="meta.media.0.codec.height">1080</property>
  <property name="meta.media.0.codec.rotate">0</property>
  <property name="meta.media.0.codec.pix_fmt">yuv420p</property>
  <property name="meta.media.0.codec.sample_aspect_ratio">1</property>
  <property name="meta.media.0.codec.colorspace">709</property>
  <property name="meta.media.0.codec.color_trc">1</property>
  <property name="meta.media.0.codec.name">h264</property>
  <property name="meta.media.0.codec.long_name">H.264 / AVC / MPEG-4 AVC / MPEG-4 part 10</property>
  <property name="meta.media.0.codec.bit_rate">3751332</property>
  <property name="meta.attr.0.stream.handler_name.markup">ISO Media file produced by Google Inc.</property>
  <property name="meta.attr.0.stream.vendor_id.markup">[0][0][0][0]</property>
  <property name="meta.media.1.stream.type">audio</property>
  <property name="meta.media.1.codec.sample_fmt">fltp</property>
  <property name="meta.media.1.codec.sample_rate">44100</property>
  <property name="meta.media.1.codec.channels">2</property>
  <property name="meta.media.1.codec.name">aac</property>
  <property name="meta.media.1.codec.long_name">AAC (Advanced Audio Coding)</property>
  <property name="meta.media.1.codec.bit_rate">127999</property>
  <property name="meta.attr.1.stream.language.markup">eng</property>
  <property name="meta.attr.1.stream.handler_name.markup">ISO Media file produced by Google Inc.</property>
  <property name="meta.attr.1.stream.vendor_id.markup">[0][0][0][0]</property>
  <property name="meta.attr.major_brand.markup">isom</property>
  <property name="meta.attr.minor_version.markup">512</property>
  <property name="meta.attr.compatible_brands.markup">isomiso2avc1mp41</property>
  <property name="meta.attr.encoder.markup">Lavf58.19.102</property>
  <property name="seekable">1</property>
  <property name="meta.media.sample_aspect_num">1</property>
  <property name="meta.media.sample_aspect_den">1</property>
  <property name="aspect_ratio">1</property>
  <property name="kdenlive:clipname"/>
  <property name="meta.media.frame_rate_num">30</property>
  <property name="meta.media.frame_rate_den">1</property>
  <property name="meta.media.colorspace">709</property>
  <property name="meta.media.color_trc">1</property>
  <property name="meta.media.has_b_frames">1</property>
  <property name="meta.media.width">1920</property>
  <property name="meta.media.height">1080</property>
  <property name="meta.media.color_range">mpeg</property>
  <property name="meta.media.top_field_first">0</property>
  <property name="meta.media.progressive">1</property>
  <property name="kdenlive:clip_type">0</property>
  <property name="kdenlive:folderid">11</property>
  <property name="kdenlive:id">26</property>
  <property name="kdenlive:file_size">172376432</property>
  <property name="kdenlive:file_hash">83bfef3caa2274602daae317086f3a14</property>
  <property name="kdenlive:audio_max1">232</property>
  <property name="kdenlive:active_streams">-1</property>
  <property name="set.test_audio">1</property>
 </producer>
 <producer id="producer19" in="00:00:00.000" out="00:00:04.963">
  <property name="length">00:00:05.005</property>
  <property name="eof">pause</property>
  <property name="resource">images/aeron price.png</property>
  <property name="ttl">25</property>
  <property name="aspect_ratio">1</property>
  <property name="progressive">1</property>
  <property name="seekable">1</property>
  <property name="meta.media.width">850</property>
  <property name="meta.media.height">1100</property>
  <property name="mlt_service">qimage</property>
  <property name="kdenlive:clipname"/>
  <property name="kdenlive:duration">00:00:05.005</property>
  <property name="kdenlive:folderid">18</property>
  <property name="kdenlive:clip_type">2</property>
  <property name="kdenlive:id">27</property>
  <property name="kdenlive:file_size">157519</property>
  <property name="kdenlive:file_hash">7c64a55251b7b806642c47be8ec4dc92</property>
 </producer>
 <producer id="producer20" in="00:00:00.000" out="00:00:04.963">
  <property name="length">00:00:05.005</property>
  <property name="eof">pause</property>
  <property name="resource">images/aeron.jpg</property>
  <property name="ttl">25</property>
  <property name="aspect_ratio">1</property>
  <property name="progressive">1</property>
  <property name="seekable">1</property>
  <property name="meta.media.width">1500</property>
  <property name="meta.media.height">1500</property>
  <property name="mlt_service">qimage</property>
  <property name="kdenlive:clipname"/>
  <property name="kdenlive:duration">00:00:05.005</property>
  <property name="kdenlive:folderid">18</property>
  <property name="kdenlive:clip_type">2</property>
  <property name="kdenlive:id">28</property>
  <property name="kdenlive:file_size">180221</property>
  <property name="kdenlive:file_hash">5a9f81c5062903b69f845bc2675e23c3</property>
 </producer>
 <producer id="producer21" in="00:00:00.000" out="00:00:04.963">
  <property name="length">00:00:05.005</property>
  <property name="eof">pause</property>
  <property name="resource">images/waambulance.jpg</property>
  <property name="ttl">25</property>
  <property name="aspect_ratio">1</property>
  <property name="progressive">1</property>
  <property name="seekable">1</property>
  <property name="meta.media.width">640</property>
  <property name="meta.media.height">480</property>
  <property name="mlt_service">qimage</property>
  <property name="kdenlive:clipname"/>
  <property name="kdenlive:duration">00:00:05.005</property>
  <property name="kdenlive:folderid">18</property>
  <property name="kdenlive:clip_type">2</property>
  <property name="kdenlive:id">29</property>
  <property name="kdenlive:file_size">71131</property>
  <property name="kdenlive:file_hash">8c529f0e60f59fd1f6bea501bb2e95f5</property>
 </producer>
 <producer id="producer22" in="00:00:00.000" out="00:00:13.555">
  <property name="length">326</property>
  <property name="eof">pause</property>
  <property name="resource">/home/liquidzulu/Pictures/yt/click the link.png</property>
  <property name="ttl">25</property>
  <property name="aspect_ratio">1</property>
  <property name="progressive">1</property>
  <property name="seekable">1</property>
  <property name="meta.media.width">1920</property>
  <property name="meta.media.height">1080</property>
  <property name="mlt_service">qimage</property>
  <property name="kdenlive:clipname"/>
  <property name="kdenlive:duration">00:00:05.005</property>
  <property name="kdenlive:folderid">-1</property>
  <property name="kdenlive:clip_type">2</property>
  <property name="kdenlive:id">30</property>
  <property name="kdenlive:file_size">23485</property>
  <property name="kdenlive:file_hash">2184bed1cf513b703ba0c9773463a455</property>
 </producer>
 <producer id="producer23" in="00:00:00.000" out="00:00:01.126">
  <property name="length">28</property>
  <property name="eof">pause</property>
  <property name="resource">/home/liquidzulu/Music/Swearing beep sound effect.mp3</property>
  <property name="meta.media.nb_streams">1</property>
  <property name="meta.media.0.stream.type">audio</property>
  <property name="meta.media.0.codec.sample_fmt">fltp</property>
  <property name="meta.media.0.codec.sample_rate">44100</property>
  <property name="meta.media.0.codec.channels">2</property>
  <property name="meta.media.0.codec.name">mp3float</property>
  <property name="meta.media.0.codec.long_name">MP3 (MPEG audio layer 3)</property>
  <property name="meta.media.0.codec.bit_rate">128000</property>
  <property name="meta.attr.major_brand.markup">dash</property>
  <property name="meta.attr.minor_version.markup">0</property>
  <property name="meta.attr.compatible_brands.markup">iso6mp41</property>
  <property name="meta.attr.encoder.markup">Lavf58.45.100</property>
  <property name="seekable">1</property>
  <property name="audio_index">0</property>
  <property name="video_index">-1</property>
  <property name="mute_on_pause">1</property>
  <property name="mlt_service">avformat</property>
  <property name="kdenlive:clipname"/>
  <property name="kdenlive:clip_type">1</property>
  <property name="kdenlive:folderid">-1</property>
  <property name="kdenlive:id">31</property>
  <property name="kdenlive:file_size">18530</property>
  <property name="kdenlive:file_hash">cf319e42e9715a9a22c6ea38287027ea</property>
  <property name="kdenlive:audio_max0">221</property>
 </producer>
 <producer id="producer24" in="00:00:00.000" out="00:08:40.040">
  <property name="length">12469</property>
  <property name="eof">pause</property>
  <property name="resource">/home/liquidzulu/Pictures/yt/watermark-16x9.png</property>
  <property name="ttl">25</property>
  <property name="aspect_ratio">1</property>
  <property name="progressive">1</property>
  <property name="seekable">1</property>
  <property name="meta.media.width">1920</property>
  <property name="meta.media.height">1080</property>
  <property name="mlt_service">qimage</property>
  <property name="kdenlive:clipname"/>
  <property name="kdenlive:duration">00:00:05.005</property>
  <property name="kdenlive:proxy">-</property>
  <property name="kdenlive:originalurl">/home/liquidzulu/Pictures/yt/watermark-16x9.png</property>
  <property name="kdenlive:clip_type">2</property>
  <property name="kdenlive:id">32</property>
  <property name="kdenlive:file_size">16735</property>
  <property name="kdenlive:file_hash">72463f1cf4593367f228c9749dfa05e5</property>
  <property name="kdenlive:folderid">-1</property>
 </producer>
 <playlist id="main_bin">
  <property name="kdenlive:folder.-1.6">response</property>
  <property name="kdenlive:folder.-1.11">b roll</property>
  <property name="kdenlive:folder.-1.15">titles</property>
  <property name="kdenlive:folder.-1.17">audio</property>
  <property name="kdenlive:folder.-1.18">images</property>
  <property name="kdenlive:folder.-1.23">quotes</property>
  <property name="kdenlive:docproperties.activeTrack">5</property>
  <property name="kdenlive:docproperties.audioChannels">2</property>
  <property name="kdenlive:docproperties.audioTarget">-1</property>
  <property name="kdenlive:docproperties.compositing">1</property>
  <property name="kdenlive:docproperties.disablepreview">0</property>
  <property name="kdenlive:docproperties.documentid">1683021339129</property>
  <property name="kdenlive:docproperties.enableTimelineZone">0</property>
  <property name="kdenlive:docproperties.enableexternalproxy">0</property>
  <property name="kdenlive:docproperties.enableproxy">0</property>
  <property name="kdenlive:docproperties.externalproxyparams"/>
  <property name="kdenlive:docproperties.generateimageproxy">0</property>
  <property name="kdenlive:docproperties.generateproxy">0</property>
  <property name="kdenlive:docproperties.groups">[
    {
        "children": [
            {
                "data": "3:10569",
                "leaf": "clip",
                "type": "Leaf"
            },
            {
                "data": "4:10569",
                "leaf": "clip",
                "type": "Leaf"
            }
        ],
        "type": "Normal"
    },
    {
        "children": [
            {
                "data": "4:9619",
                "leaf": "clip",
                "type": "Leaf"
            },
            {
                "data": "3:9619",
                "leaf": "clip",
                "type": "Leaf"
            }
        ],
        "type": "Normal"
    },
    {
        "children": [
            {
                "data": "3:5689",
                "leaf": "clip",
                "type": "Leaf"
            },
            {
                "data": "4:5689",
                "leaf": "clip",
                "type": "Leaf"
            }
        ],
        "type": "Normal"
    },
    {
        "children": [
            {
                "data": "4:10000",
                "leaf": "clip",
                "type": "Leaf"
            },
            {
                "data": "3:10000",
                "leaf": "clip",
                "type": "Leaf"
            }
        ],
        "type": "Normal"
    },
    {
        "children": [
            {
                "data": "4:1400",
                "leaf": "clip",
                "type": "Leaf"
            },
            {
                "data": "3:1398",
                "leaf": "clip",
                "type": "Leaf"
            }
        ],
        "type": "Normal"
    },
    {
        "children": [
            {
                "data": "4:9228",
                "leaf": "clip",
                "type": "Leaf"
            },
            {
                "data": "3:9228",
                "leaf": "clip",
                "type": "Leaf"
            }
        ],
        "type": "Normal"
    },
    {
        "children": [
            {
                "data": "4:1217",
                "leaf": "clip",
                "type": "Leaf"
            },
            {
                "data": "2:1214",
                "leaf": "clip",
                "type": "Leaf"
            }
        ],
        "type": "Normal"
    },
    {
        "children": [
            {
                "data": "4:2079",
                "leaf": "clip",
                "type": "Leaf"
            },
            {
                "data": "3:2079",
                "leaf": "clip",
                "type": "Leaf"
            }
        ],
        "type": "Normal"
    },
    {
        "children": [
            {
                "data": "3:9363",
                "leaf": "clip",
                "type": "Leaf"
            },
            {
                "data": "4:9363",
                "leaf": "clip",
                "type": "Leaf"
            }
        ],
        "type": "Normal"
    },
    {
        "children": [
            {
                "data": "3:6574",
                "leaf": "clip",
                "type": "Leaf"
            },
            {
                "data": "4:6574",
                "leaf": "clip",
                "type": "Leaf"
            }
        ],
        "type": "Normal"
    },
    {
        "children": [
            {
                "data": "3:2624",
                "leaf": "clip",
                "type": "Leaf"
            },
            {
                "data": "4:2624",
                "leaf": "clip",
                "type": "Leaf"
            }
        ],
        "type": "Normal"
    },
    {
        "children": [
            {
                "data": "4:543",
                "leaf": "clip",
                "type": "Leaf"
            },
            {
                "data": "3:543",
                "leaf": "clip",
                "type": "Leaf"
            }
        ],
        "type": "Normal"
    },
    {
        "children": [
            {
                "data": "4:7168",
                "leaf": "clip",
                "type": "Leaf"
            },
            {
                "data": "3:7168",
                "leaf": "clip",
                "type": "Leaf"
            }
        ],
        "type": "Normal"
    },
    {
        "children": [
            {
                "data": "3:7346",
                "leaf": "clip",
                "type": "Leaf"
            },
            {
                "data": "4:7346",
                "leaf": "clip",
                "type": "Leaf"
            }
        ],
        "type": "Normal"
    },
    {
        "children": [
            {
                "data": "2:3351",
                "leaf": "clip",
                "type": "Leaf"
            },
            {
                "data": "5:3351",
                "leaf": "clip",
                "type": "Leaf"
            }
        ],
        "type": "Normal"
    },
    {
        "children": [
            {
                "data": "4:4670",
                "leaf": "clip",
                "type": "Leaf"
            },
            {
                "data": "4:4878",
                "leaf": "clip",
                "type": "Leaf"
            },
            {
                "data": "3:4670",
                "leaf": "clip",
                "type": "Leaf"
            }
        ],
        "type": "Normal"
    },
    {
        "children": [
            {
                "data": "4:5474",
                "leaf": "clip",
                "type": "Leaf"
            },
            {
                "data": "3:5474",
                "leaf": "clip",
                "type": "Leaf"
            }
        ],
        "type": "Normal"
    },
    {
        "children": [
            {
                "data": "4:1767",
                "leaf": "clip",
                "type": "Leaf"
            },
            {
                "data": "3:1767",
                "leaf": "clip",
                "type": "Leaf"
            }
        ],
        "type": "Normal"
    },
    {
        "children": [
            {
                "data": "4:4966",
                "leaf": "clip",
                "type": "Leaf"
            },
            {
                "data": "3:4966",
                "leaf": "clip",
                "type": "Leaf"
            }
        ],
        "type": "Normal"
    },
    {
        "children": [
            {
                "data": "4:4458",
                "leaf": "clip",
                "type": "Leaf"
            },
            {
                "data": "3:4458",
                "leaf": "clip",
                "type": "Leaf"
            }
        ],
        "type": "Normal"
    },
    {
        "children": [
            {
                "data": "4:903",
                "leaf": "clip",
                "type": "Leaf"
            },
            {
                "data": "2:900",
                "leaf": "clip",
                "type": "Leaf"
            }
        ],
        "type": "Normal"
    },
    {
        "children": [
            {
                "data": "3:2857",
                "leaf": "clip",
                "type": "Leaf"
            },
            {
                "data": "4:2857",
                "leaf": "clip",
                "type": "Leaf"
            }
        ],
        "type": "Normal"
    },
    {
        "children": [
            {
                "data": "3:9692",
                "leaf": "clip",
                "type": "Leaf"
            },
            {
                "data": "4:9692",
                "leaf": "clip",
                "type": "Leaf"
            }
        ],
        "type": "Normal"
    },
    {
        "children": [
            {
                "data": "4:6807",
                "leaf": "clip",
                "type": "Leaf"
            },
            {
                "data": "3:6807",
                "leaf": "clip",
                "type": "Leaf"
            }
        ],
        "type": "Normal"
    },
    {
        "children": [
            {
                "data": "3:9044",
                "leaf": "clip",
                "type": "Leaf"
            },
            {
                "data": "4:9044",
                "leaf": "clip",
                "type": "Leaf"
            }
        ],
        "type": "Normal"
    },
    {
        "children": [
            {
                "data": "4:656",
                "leaf": "clip",
                "type": "Leaf"
            },
            {
                "data": "3:656",
                "leaf": "clip",
                "type": "Leaf"
            }
        ],
        "type": "Normal"
    },
    {
        "children": [
            {
                "data": "4:1024",
                "leaf": "clip",
                "type": "Leaf"
            },
            {
                "data": "3:1021",
                "leaf": "clip",
                "type": "Leaf"
            }
        ],
        "type": "Normal"
    },
    {
        "children": [
            {
                "data": "4:2430",
                "leaf": "clip",
                "type": "Leaf"
            },
            {
                "data": "3:2430",
                "leaf": "clip",
                "type": "Leaf"
            }
        ],
        "type": "Normal"
    },
    {
        "children": [
            {
                "data": "3:8687",
                "leaf": "clip",
                "type": "Leaf"
            },
            {
                "data": "4:8687",
                "leaf": "clip",
                "type": "Leaf"
            }
        ],
        "type": "Normal"
    },
    {
        "children": [
            {
                "data": "4:6173",
                "leaf": "clip",
                "type": "Leaf"
            },
            {
                "data": "3:6173",
                "leaf": "clip",
                "type": "Leaf"
            }
        ],
        "type": "Normal"
    },
    {
        "children": [
            {
                "data": "4:8472",
                "leaf": "clip",
                "type": "Leaf"
            },
            {
                "data": "3:8472",
                "leaf": "clip",
                "type": "Leaf"
            }
        ],
        "type": "Normal"
    },
    {
        "children": [
            {
                "data": "3:5934",
                "leaf": "clip",
                "type": "Leaf"
            },
            {
                "data": "4:5934",
                "leaf": "clip",
                "type": "Leaf"
            }
        ],
        "type": "Normal"
    },
    {
        "children": [
            {
                "data": "3:9476",
                "leaf": "clip",
                "type": "Leaf"
            },
            {
                "data": "4:9476",
                "leaf": "clip",
                "type": "Leaf"
            }
        ],
        "type": "Normal"
    },
    {
        "children": [
            {
                "data": "4:9880",
                "leaf": "clip",
                "type": "Leaf"
            },
            {
                "data": "3:9880",
                "leaf": "clip",
                "type": "Leaf"
            }
        ],
        "type": "Normal"
    },
    {
        "children": [
            {
                "data": "4:8072",
                "leaf": "clip",
                "type": "Leaf"
            },
            {
                "data": "3:8072",
                "leaf": "clip",
                "type": "Leaf"
            }
        ],
        "type": "Normal"
    },
    {
        "children": [
            {
                "data": "4:1897",
                "leaf": "clip",
                "type": "Leaf"
            },
            {
                "data": "2:1894",
                "leaf": "clip",
                "type": "Leaf"
            }
        ],
        "type": "Normal"
    },
    {
        "children": [
            {
                "data": "3:10287",
                "leaf": "clip",
                "type": "Leaf"
            },
            {
                "data": "4:10287",
                "leaf": "clip",
                "type": "Leaf"
            }
        ],
        "type": "Normal"
    },
    {
        "children": [
            {
                "data": "3:2972",
                "leaf": "clip",
                "type": "Leaf"
            },
            {
                "data": "4:2972",
                "leaf": "clip",
                "type": "Leaf"
            }
        ],
        "type": "Normal"
    },
    {
        "children": [
            {
                "data": "3:6987",
                "leaf": "clip",
                "type": "Leaf"
            },
            {
                "data": "4:6987",
                "leaf": "clip",
                "type": "Leaf"
            }
        ],
        "type": "Normal"
    },
    {
        "children": [
            {
                "data": "3:5227",
                "leaf": "clip",
                "type": "Leaf"
            },
            {
                "data": "4:5227",
                "leaf": "clip",
                "type": "Leaf"
            }
        ],
        "type": "Normal"
    },
    {
        "children": [
            {
                "data": "4:10388",
                "leaf": "clip",
                "type": "Leaf"
            },
            {
                "data": "3:10388",
                "leaf": "clip",
                "type": "Leaf"
            }
        ],
        "type": "Normal"
    },
    {
        "children": [
            {
                "data": "4:8919",
                "leaf": "clip",
                "type": "Leaf"
            },
            {
                "data": "3:8919",
                "leaf": "clip",
                "type": "Leaf"
            }
        ],
        "type": "Normal"
    },
    {
        "children": [
            {
                "data": "3:3833",
                "leaf": "clip",
                "type": "Leaf"
            },
            {
                "data": "4:3833",
                "leaf": "clip",
                "type": "Leaf"
            }
        ],
        "type": "Normal"
    },
    {
        "children": [
            {
                "data": "4:7907",
                "leaf": "clip",
                "type": "Leaf"
            },
            {
                "data": "3:7907",
                "leaf": "clip",
                "type": "Leaf"
            }
        ],
        "type": "Normal"
    },
    {
        "children": [
            {
                "data": "3:2774",
                "leaf": "clip",
                "type": "Leaf"
            },
            {
                "data": "4:2774",
                "leaf": "clip",
                "type": "Leaf"
            }
        ],
        "type": "Normal"
    },
    {
        "children": [
            {
                "data": "3:11492",
                "leaf": "clip",
                "type": "Leaf"
            },
            {
                "data": "4:11492",
                "leaf": "clip",
                "type": "Leaf"
            }
        ],
        "type": "Normal"
    },
    {
        "children": [
            {
                "data": "3:7611",
                "leaf": "clip",
                "type": "Leaf"
            },
            {
                "data": "4:7611",
                "leaf": "clip",
                "type": "Leaf"
            }
        ],
        "type": "Normal"
    },
    {
        "children": [
            {
                "data": "4:3704",
                "leaf": "clip",
                "type": "Leaf"
            },
            {
                "data": "3:3704",
                "leaf": "clip",
                "type": "Leaf"
            }
        ],
        "type": "Normal"
    },
    {
        "children": [
            {
                "data": "4:11292",
                "leaf": "clip",
                "type": "Leaf"
            },
            {
                "data": "3:11292",
                "leaf": "clip",
                "type": "Leaf"
            }
        ],
        "type": "Normal"
    }
]
</property>
  <property name="kdenlive:docproperties.guides">[
    {
        "comment": "The Impossibility of Free-Market Cartels",
        "pos": 0,
        "type": 0
    },
    {
        "comment": "Defending Planned Obsolescence",
        "pos": 6807,
        "type": 0
    },
    {
        "comment": "On Perceived Obsolescence",
        "pos": 9363,
        "type": 0
    }
]
</property>
  <property name="kdenlive:docproperties.kdenliveversion">22.08.3</property>
  <property name="kdenlive:docproperties.position">11206</property>
  <property name="kdenlive:docproperties.previewextension"/>
  <property name="kdenlive:docproperties.previewparameters"/>
  <property name="kdenlive:docproperties.profile">atsc_720p_2398</property>
  <property name="kdenlive:docproperties.proxyextension"/>
  <property name="kdenlive:docproperties.proxyimageminsize">2000</property>
  <property name="kdenlive:docproperties.proxyimagesize">800</property>
  <property name="kdenlive:docproperties.proxyminsize">1000</property>
  <property name="kdenlive:docproperties.proxyparams"/>
  <property name="kdenlive:docproperties.proxyresize">640</property>
  <property name="kdenlive:docproperties.rendercategory">Generic (HD for web, mobile devices...)</property>
  <property name="kdenlive:docproperties.rendercustomquality">-1</property>
  <property name="kdenlive:docproperties.renderendguide">0</property>
  <property name="kdenlive:docproperties.renderexportaudio">0</property>
  <property name="kdenlive:docproperties.rendermode">0</property>
  <property name="kdenlive:docproperties.renderplay">0</property>
  <property name="kdenlive:docproperties.renderpreview">0</property>
  <property name="kdenlive:docproperties.renderprofile">MP4-H264/AAC</property>
  <property name="kdenlive:docproperties.renderratio">1</property>
  <property name="kdenlive:docproperties.renderrescale">0</property>
  <property name="kdenlive:docproperties.renderrescaleheight">360</property>
  <property name="kdenlive:docproperties.renderrescalewidth">640</property>
  <property name="kdenlive:docproperties.renderspeed">6</property>
  <property name="kdenlive:docproperties.renderstartguide">0</property>
  <property name="kdenlive:docproperties.rendertcoverlay">0</property>
  <property name="kdenlive:docproperties.rendertctype">-1</property>
  <property name="kdenlive:docproperties.rendertwopass">0</property>
  <property name="kdenlive:docproperties.renderurl">/home/liquidzulu/Videos/yt/vid-store/planned-obsolescence.mp4</property>
  <property name="kdenlive:docproperties.scrollPos">86041</property>
  <property name="kdenlive:docproperties.seekOffset">30000</property>
  <property name="kdenlive:docproperties.version">1.04</property>
  <property name="kdenlive:docproperties.verticalzoom">1</property>
  <property name="kdenlive:docproperties.videoTarget">4</property>
  <property name="kdenlive:docproperties.zonein">0</property>
  <property name="kdenlive:docproperties.zoneout">75</property>
  <property name="kdenlive:docproperties.zoom">3</property>
  <property name="kdenlive:expandedFolders"/>
  <property name="kdenlive:documentnotes"/>
  <property name="xml_retain">1</property>
  <entry producer="producer0" in="00:00:00.000" out="00:45:21.813"/>
  <entry producer="producer5" in="00:00:00.000" out="00:00:27.527"/>
  <entry producer="producer10" in="00:00:00.000" out="00:45:26.568"/>
  <entry producer="producer8" in="00:00:00.000" out="00:02:43.794"/>
  <entry producer="producer2" in="00:00:00.000" out="00:10:32.741"/>
  <entry producer="producer1" in="00:00:00.000" out="00:07:25.234"/>
  <entry producer="producer3" in="00:00:00.000" out="00:17:29.780"/>
  <entry producer="producer4" in="00:00:00.000" out="00:00:48.215"/>
  <entry producer="producer6" in="00:00:00.000" out="00:00:40.499"/>
  <entry producer="producer7" in="00:00:00.000" out="00:00:04.963"/>
  <entry producer="producer9" in="00:00:00.000" out="00:02:15.474"/>
  <entry producer="producer13" in="00:00:00.000" out="00:00:04.963"/>
  <entry producer="producer11" in="00:00:00.000" out="00:00:04.963"/>
  <entry producer="producer12" in="00:00:00.000" out="00:00:04.963"/>
  <entry producer="producer14" in="00:00:00.000" out="00:00:10.010"/>
  <entry producer="producer15" in="00:00:00.000" out="00:00:18.977"/>
  <entry producer="producer16" in="00:00:00.000" out="00:00:18.977"/>
  <entry producer="producer17" in="00:00:00.000" out="00:00:18.977"/>
  <entry producer="producer18" in="00:00:00.000" out="00:05:54.805"/>
  <entry producer="producer19" in="00:00:00.000" out="00:00:04.963"/>
  <entry producer="producer20" in="00:00:00.000" out="00:00:04.963"/>
  <entry producer="producer21" in="00:00:00.000" out="00:00:04.963"/>
  <entry producer="producer22" in="00:00:00.000" out="00:00:13.555"/>
  <entry producer="producer23" in="00:00:00.000" out="00:00:01.126"/>
  <entry producer="producer24" in="00:00:00.000" out="00:00:04.963"/>
 </playlist>
 <producer id="black_track" in="00:00:00.000" out="00:29:29.863">
  <property name="length">2147483647</property>
  <property name="eof">continue</property>
  <property name="resource">black</property>
  <property name="aspect_ratio">1</property>
  <property name="mlt_service">color</property>
  <property name="mlt_image_format">rgba</property>
  <property name="set.test_audio">0</property>
 </producer>
 <producer id="producer25" in="00:00:00.000" out="00:02:43.794">
  <property name="length">3928</property>
  <property name="eof">pause</property>
  <property name="resource">/home/liquidzulu/Music/EPIC INTRO MUSIC ON EPIDEMIC SOUND.mp3</property>
  <property name="audio_index">0</property>
  <property name="video_index">-1</property>
  <property name="mute_on_pause">0</property>
  <property name="mlt_service">avformat-novalidate</property>
  <property name="meta.media.nb_streams">1</property>
  <property name="meta.media.0.stream.type">audio</property>
  <property name="meta.media.0.codec.sample_fmt">fltp</property>
  <property name="meta.media.0.codec.sample_rate">44100</property>
  <property name="meta.media.0.codec.channels">2</property>
  <property name="meta.media.0.codec.name">mp3float</property>
  <property name="meta.media.0.codec.long_name">MP3 (MPEG audio layer 3)</property>
  <property name="meta.media.0.codec.bit_rate">128000</property>
  <property name="meta.attr.major_brand.markup">dash</property>
  <property name="meta.attr.minor_version.markup">0</property>
  <property name="meta.attr.compatible_brands.markup">iso6mp41</property>
  <property name="meta.attr.encoder.markup">Lavf58.45.100</property>
  <property name="seekable">1</property>
  <property name="kdenlive:clipname"/>
  <property name="kdenlive:clip_type">1</property>
  <property name="kdenlive:folderid">17</property>
  <property name="kdenlive:id">5</property>
  <property name="kdenlive:file_size">2621580</property>
  <property name="kdenlive:file_hash">aeffec3c7d48cb853f9eae7d6107f952</property>
  <property name="kdenlive:audio_max0">249</property>
  <property name="xml">was here</property>
  <property name="set.test_audio">0</property>
  <property name="set.test_image">1</property>
 </producer>
 <producer id="producer26" in="00:00:00.000" out="00:02:15.474">
  <property name="length">3249</property>
  <property name="eof">pause</property>
  <property name="resource">/home/liquidzulu/Music/Old World Saga - Hanu Dixit.mp3</property>
  <property name="audio_index">0</property>
  <property name="video_index">-1</property>
  <property name="mute_on_pause">0</property>
  <property name="mlt_service">avformat-novalidate</property>
  <property name="meta.media.nb_streams">1</property>
  <property name="meta.media.0.stream.type">audio</property>
  <property name="meta.media.0.codec.sample_fmt">fltp</property>
  <property name="meta.media.0.codec.sample_rate">44100</property>
  <property name="meta.media.0.codec.channels">2</property>
  <property name="meta.media.0.codec.name">mp3float</property>
  <property name="meta.media.0.codec.long_name">MP3 (MPEG audio layer 3)</property>
  <property name="meta.media.0.codec.bit_rate">320000</property>
  <property name="meta.attr.0.stream.encoder.markup">Lavf</property>
  <property name="meta.attr.encoder.markup">Google</property>
  <property name="seekable">1</property>
  <property name="kdenlive:clipname"/>
  <property name="kdenlive:clip_type">1</property>
  <property name="kdenlive:folderid">17</property>
  <property name="kdenlive:id">14</property>
  <property name="kdenlive:file_size">5420967</property>
  <property name="kdenlive:file_hash">e79b85ed1647c0631ab6453c64657ff9</property>
  <property name="kdenlive:audio_max0">248</property>
  <property name="xml">was here</property>
  <property name="set.test_audio">0</property>
  <property name="set.test_image">1</property>
 </producer>
 <playlist id="playlist0">
  <property name="kdenlive:audio_track">1</property>
  <entry producer="producer25" in="00:00:31.365" out="00:00:45.921">
   <property name="kdenlive:id">5</property>
   <filter id="filter0">
    <property name="window">75</property>
    <property name="max_gain">20dB</property>
    <property name="level">00:00:31.365=-25</property>
    <property name="mlt_service">volume</property>
    <property name="kdenlive_id">volume</property>
    <property name="kdenlive:collapsed">0</property>
   </filter>
  </entry>
  <blank length="00:02:09.051"/>
  <entry producer="producer26" in="00:00:00.000" out="00:02:15.474">
   <property name="kdenlive:id">14</property>
   <filter id="filter1">
    <property name="window">75</property>
    <property name="max_gain">20dB</property>
    <property name="level">00:00:00.000=-30</property>
    <property name="mlt_service">volume</property>
    <property name="kdenlive_id">volume</property>
    <property name="kdenlive:collapsed">0</property>
   </filter>
   <filter id="filter2" out="00:00:05.255">
    <property name="window">75</property>
    <property name="max_gain">20dB</property>
    <property name="mlt_service">volume</property>
    <property name="kdenlive_id">fadein</property>
    <property name="gain">0</property>
    <property name="end">1</property>
    <property name="kdenlive:collapsed">0</property>
   </filter>
  </entry>
  <blank length="00:02:03.295"/>
  <entry producer="producer26" in="00:00:00.000" out="00:01:56.139">
   <property name="kdenlive:id">14</property>
   <filter id="filter3">
    <property name="window">75</property>
    <property name="max_gain">20dB</property>
    <property name="level">00:00:00.000=-30</property>
    <property name="mlt_service">volume</property>
    <property name="kdenlive_id">volume</property>
    <property name="kdenlive:collapsed">0</property>
   </filter>
   <filter id="filter4" out="00:00:05.255">
    <property name="window">75</property>
    <property name="max_gain">20dB</property>
    <property name="mlt_service">volume</property>
    <property name="kdenlive_id">fadein</property>
    <property name="gain">0</property>
    <property name="end">1</property>
    <property name="kdenlive:collapsed">0</property>
   </filter>
  </entry>
 </playlist>
 <playlist id="playlist1">
  <property name="kdenlive:audio_track">1</property>
 </playlist>
 <tractor id="tractor0" in="00:00:00.000" out="00:08:38.580">
  <property name="kdenlive:audio_track">1</property>
  <property name="kdenlive:trackheight">67</property>
  <property name="kdenlive:timeline_active">1</property>
  <property name="kdenlive:collapsed">0</property>
  <property name="kdenlive:thumbs_format"/>
  <property name="kdenlive:audio_rec"/>
  <track hide="video" producer="playlist0"/>
  <track hide="video" producer="playlist1"/>
  <filter id="filter5">
   <property name="window">75</property>
   <property name="max_gain">20dB</property>
   <property name="mlt_service">volume</property>
   <property name="internal_added">237</property>
   <property name="disable">1</property>
  </filter>
  <filter id="filter6">
   <property name="channel">-1</property>
   <property name="mlt_service">panner</property>
   <property name="internal_added">237</property>
   <property name="start">0.5</property>
   <property name="disable">1</property>
  </filter>
  <filter id="filter7">
   <property name="iec_scale">0</property>
   <property name="mlt_service">audiolevel</property>
   <property name="disable">1</property>
  </filter>
 </tractor>
 <producer id="producer27" in="00:00:00.000" out="00:02:15.474">
  <property name="length">3249</property>
  <property name="eof">pause</property>
  <property name="resource">/home/liquidzulu/Music/Old World Saga - Hanu Dixit.mp3</property>
  <property name="audio_index">0</property>
  <property name="video_index">-1</property>
  <property name="mute_on_pause">0</property>
  <property name="mlt_service">avformat-novalidate</property>
  <property name="meta.media.nb_streams">1</property>
  <property name="meta.media.0.stream.type">audio</property>
  <property name="meta.media.0.codec.sample_fmt">fltp</property>
  <property name="meta.media.0.codec.sample_rate">44100</property>
  <property name="meta.media.0.codec.channels">2</property>
  <property name="meta.media.0.codec.name">mp3float</property>
  <property name="meta.media.0.codec.long_name">MP3 (MPEG audio layer 3)</property>
  <property name="meta.media.0.codec.bit_rate">320000</property>
  <property name="meta.attr.0.stream.encoder.markup">Lavf</property>
  <property name="meta.attr.encoder.markup">Google</property>
  <property name="seekable">1</property>
  <property name="kdenlive:clipname"/>
  <property name="kdenlive:clip_type">1</property>
  <property name="kdenlive:folderid">17</property>
  <property name="kdenlive:id">14</property>
  <property name="kdenlive:file_size">5420967</property>
  <property name="kdenlive:file_hash">e79b85ed1647c0631ab6453c64657ff9</property>
  <property name="kdenlive:audio_max0">248</property>
  <property name="xml">was here</property>
  <property name="set.test_audio">0</property>
  <property name="set.test_image">1</property>
 </producer>
 <playlist id="playlist2">
  <property name="kdenlive:audio_track">1</property>
  <blank length="00:00:14.181"/>
  <entry producer="producer27" in="00:00:00.000" out="00:02:15.474">
   <property name="kdenlive:id">14</property>
   <filter id="filter8">
    <property name="window">75</property>
    <property name="max_gain">20dB</property>
    <property name="level">00:00:00.000=-15;00:00:02.377=-15;00:00:02.586=-30</property>
    <property name="mlt_service">volume</property>
    <property name="kdenlive_id">volume</property>
    <property name="kdenlive:collapsed">0</property>
   </filter>
  </entry>
  <blank length="00:02:04.505"/>
  <entry producer="producer27" in="00:00:00.000" out="00:02:15.474">
   <property name="kdenlive:id">14</property>
   <filter id="filter9">
    <property name="window">75</property>
    <property name="max_gain">20dB</property>
    <property name="level">00:00:00.000=-30</property>
    <property name="mlt_service">volume</property>
    <property name="kdenlive_id">volume</property>
    <property name="kdenlive:collapsed">0</property>
   </filter>
   <filter id="filter10" out="00:00:05.255">
    <property name="window">75</property>
    <property name="max_gain">20dB</property>
    <property name="mlt_service">volume</property>
    <property name="kdenlive_id">fadein</property>
    <property name="gain">0</property>
    <property name="end">1</property>
    <property name="kdenlive:collapsed">0</property>
   </filter>
  </entry>
 </playlist>
 <playlist id="playlist3">
  <property name="kdenlive:audio_track">1</property>
 </playlist>
 <tractor id="tractor1" in="00:00:00.000" out="00:06:49.675">
  <property name="kdenlive:audio_track">1</property>
  <property name="kdenlive:trackheight">67</property>
  <property name="kdenlive:timeline_active">1</property>
  <property name="kdenlive:collapsed">0</property>
  <property name="kdenlive:thumbs_format"/>
  <property name="kdenlive:audio_rec"/>
  <track hide="video" producer="playlist2"/>
  <track hide="video" producer="playlist3"/>
  <filter id="filter11">
   <property name="window">75</property>
   <property name="max_gain">20dB</property>
   <property name="mlt_service">volume</property>
   <property name="internal_added">237</property>
   <property name="disable">1</property>
  </filter>
  <filter id="filter12">
   <property name="channel">-1</property>
   <property name="mlt_service">panner</property>
   <property name="internal_added">237</property>
   <property name="start">0.5</property>
   <property name="disable">1</property>
  </filter>
  <filter id="filter13">
   <property name="iec_scale">0</property>
   <property name="mlt_service">audiolevel</property>
   <property name="disable">1</property>
  </filter>
 </tractor>
 <producer id="producer28" in="00:00:00.000" out="00:45:26.568">
  <property name="length">65373</property>
  <property name="eof">pause</property>
  <property name="resource">audio/proc.mp3</property>
  <property name="audio_index">0</property>
  <property name="video_index">-1</property>
  <property name="mute_on_pause">0</property>
  <property name="mlt_service">avformat-novalidate</property>
  <property name="meta.media.nb_streams">1</property>
  <property name="meta.media.0.stream.type">audio</property>
  <property name="meta.media.0.codec.sample_fmt">fltp</property>
  <property name="meta.media.0.codec.sample_rate">44100</property>
  <property name="meta.media.0.codec.channels">2</property>
  <property name="meta.media.0.codec.name">mp3float</property>
  <property name="meta.media.0.codec.long_name">MP3 (MPEG audio layer 3)</property>
  <property name="meta.media.0.codec.bit_rate">192000</property>
  <property name="meta.attr.encoded_by.markup">LAME in FL Studio 21</property>
  <property name="meta.attr.date.markup">2023</property>
  <property name="seekable">1</property>
  <property name="kdenlive:clipname"/>
  <property name="kdenlive:clip_type">1</property>
  <property name="kdenlive:folderid">-1</property>
  <property name="kdenlive:id">4</property>
  <property name="kdenlive:file_size">65438044</property>
  <property name="kdenlive:file_hash">9319dcb16695fa42b342eeb1d30f64a1</property>
  <property name="kdenlive:audio_max0">207</property>
  <property name="xml">was here</property>
  <property name="set.test_audio">0</property>
  <property name="set.test_image">1</property>
 </producer>
 <playlist id="playlist4">
  <property name="kdenlive:audio_track">1</property>
  <blank length="00:00:37.538"/>
  <entry producer="producer28" in="00:04:16.808" out="00:04:21.939">
   <property name="kdenlive:id">4</property>
   <filter id="filter14" in="00:04:16.808" out="00:04:16.850">
    <property name="window">75</property>
    <property name="max_gain">20dB</property>
    <property name="mlt_service">volume</property>
    <property name="kdenlive_id">fadein</property>
    <property name="gain">0</property>
    <property name="end">1</property>
   </filter>
  </entry>
  <blank length="00:00:07.925"/>
  <entry producer="producer28" in="00:05:37.829" out="00:05:45.545">
   <property name="kdenlive:id">4</property>
   <filter id="filter15" in="00:05:37.829" out="00:05:37.871">
    <property name="window">75</property>
    <property name="max_gain">20dB</property>
    <property name="mlt_service">volume</property>
    <property name="kdenlive_id">fadein</property>
    <property name="gain">0</property>
    <property name="end">1</property>
   </filter>
  </entry>
  <blank length="00:00:20.604"/>
  <entry producer="producer28" in="00:08:43.752" out="00:08:51.426">
   <property name="kdenlive:id">4</property>
   <filter id="filter16" in="00:08:43.752" out="00:08:43.794">
    <property name="window">75</property>
    <property name="max_gain">20dB</property>
    <property name="mlt_service">volume</property>
    <property name="kdenlive_id">fadein</property>
    <property name="gain">0</property>
    <property name="end">1</property>
    <property name="kdenlive:collapsed">0</property>
   </filter>
  </entry>
  <blank length="00:00:53.053"/>
  <entry producer="producer28" in="00:13:42.125" out="00:13:56.807">
   <property name="kdenlive:id">4</property>
  </entry>
 </playlist>
 <playlist id="playlist5">
  <property name="kdenlive:audio_track">1</property>
 </playlist>
 <tractor id="tractor2" in="00:00:00.000" out="00:02:34.451">
  <property name="kdenlive:audio_track">1</property>
  <property name="kdenlive:trackheight">67</property>
  <property name="kdenlive:timeline_active">1</property>
  <property name="kdenlive:collapsed">0</property>
  <property name="kdenlive:thumbs_format"/>
  <property name="kdenlive:audio_rec"/>
  <track hide="video" producer="playlist4"/>
  <track hide="video" producer="playlist5"/>
  <filter id="filter17">
   <property name="window">75</property>
   <property name="max_gain">20dB</property>
   <property name="mlt_service">volume</property>
   <property name="internal_added">237</property>
   <property name="disable">1</property>
  </filter>
  <filter id="filter18">
   <property name="channel">-1</property>
   <property name="mlt_service">panner</property>
   <property name="internal_added">237</property>
   <property name="start">0.5</property>
   <property name="disable">1</property>
  </filter>
  <filter id="filter19">
   <property name="iec_scale">0</property>
   <property name="mlt_service">audiolevel</property>
   <property name="disable">1</property>
  </filter>
 </tractor>
 <producer id="producer29" in="00:00:00.000" out="00:45:26.568">
  <property name="length">65373</property>
  <property name="eof">pause</property>
  <property name="resource">audio/proc.mp3</property>
  <property name="audio_index">0</property>
  <property name="video_index">-1</property>
  <property name="mute_on_pause">0</property>
  <property name="mlt_service">avformat-novalidate</property>
  <property name="meta.media.nb_streams">1</property>
  <property name="meta.media.0.stream.type">audio</property>
  <property name="meta.media.0.codec.sample_fmt">fltp</property>
  <property name="meta.media.0.codec.sample_rate">44100</property>
  <property name="meta.media.0.codec.channels">2</property>
  <property name="meta.media.0.codec.name">mp3float</property>
  <property name="meta.media.0.codec.long_name">MP3 (MPEG audio layer 3)</property>
  <property name="meta.media.0.codec.bit_rate">192000</property>
  <property name="meta.attr.encoded_by.markup">LAME in FL Studio 21</property>
  <property name="meta.attr.date.markup">2023</property>
  <property name="seekable">1</property>
  <property name="kdenlive:clipname"/>
  <property name="kdenlive:clip_type">1</property>
  <property name="kdenlive:folderid">-1</property>
  <property name="kdenlive:id">4</property>
  <property name="kdenlive:file_size">65438044</property>
  <property name="kdenlive:file_hash">9319dcb16695fa42b342eeb1d30f64a1</property>
  <property name="kdenlive:audio_max0">207</property>
  <property name="xml">was here</property>
  <property name="set.test_audio">0</property>
  <property name="set.test_image">1</property>
 </producer>
 <playlist id="playlist6">
  <property name="kdenlive:audio_track">1</property>
  <entry producer="producer29" in="00:00:37.829" out="00:00:43.752">
   <property name="kdenlive:id">4</property>
  </entry>
  <entry producer="producer29" in="00:01:04.922" out="00:01:12.888">
   <property name="kdenlive:id">4</property>
   <filter id="filter20" in="00:01:04.922" out="00:01:04.963">
    <property name="window">75</property>
    <property name="max_gain">20dB</property>
    <property name="mlt_service">volume</property>
    <property name="kdenlive_id">fadein</property>
    <property name="gain">0</property>
    <property name="end">1</property>
    <property name="kdenlive:collapsed">0</property>
   </filter>
  </entry>
  <blank length="00:00:00.209"/>
  <entry producer="producer29" in="00:02:23.941" out="00:02:32.366">
   <property name="kdenlive:id">4</property>
  </entry>
  <entry producer="producer29" in="00:02:39.456" out="00:02:44.127">
   <property name="kdenlive:id">4</property>
  </entry>
  <entry producer="producer29" in="00:03:43.585" out="00:03:53.845">
   <property name="kdenlive:id">4</property>
  </entry>
  <blank length="00:00:04.922"/>
  <entry producer="producer29" in="00:05:07.966" out="00:05:16.099">
   <property name="kdenlive:id">4</property>
  </entry>
  <blank length="00:00:07.549"/>
  <entry producer="producer29" in="00:06:49.132" out="00:07:04.505">
   <property name="kdenlive:id">4</property>
   <filter id="filter21" in="00:06:49.132" out="00:06:49.174">
    <property name="window">75</property>
    <property name="max_gain">20dB</property>
    <property name="mlt_service">volume</property>
    <property name="kdenlive_id">fadein</property>
    <property name="gain">0</property>
    <property name="end">1</property>
   </filter>
  </entry>
  <entry producer="producer29" in="00:08:28.403" out="00:08:33.784">
   <property name="kdenlive:id">4</property>
  </entry>
  <blank length="00:00:07.591"/>
  <entry producer="producer29" in="00:09:04.254" out="00:09:09.885">
   <property name="kdenlive:id">4</property>
  </entry>
  <entry producer="producer29" in="00:09:35.661" out="00:09:44.586">
   <property name="kdenlive:id">4</property>
  </entry>
  <entry producer="producer29" in="00:10:07.132" out="00:10:15.182">
   <property name="kdenlive:id">4</property>
  </entry>
  <entry producer="producer29" in="00:10:45.587" out="00:10:51.802">
   <property name="kdenlive:id">4</property>
  </entry>
  <entry producer="producer29" in="00:11:02.377" out="00:11:05.797">
   <property name="kdenlive:id">4</property>
  </entry>
  <entry producer="producer29" in="00:11:05.839" out="00:11:10.594">
   <property name="kdenlive:id">4</property>
  </entry>
  <entry producer="producer29" in="00:11:54.680" out="00:12:01.335">
   <property name="kdenlive:id">4</property>
  </entry>
  <entry producer="producer29" in="00:12:35.285" out="00:12:44.378">
   <property name="kdenlive:id">4</property>
  </entry>
  <blank length="00:00:14.723"/>
  <entry producer="producer29" in="00:14:17.559" out="00:14:22.898">
   <property name="kdenlive:id">4</property>
  </entry>
  <entry producer="producer29" in="00:14:35.035" out="00:14:42.709">
   <property name="kdenlive:id">4</property>
  </entry>
  <entry producer="producer29" in="00:14:45.796" out="00:14:56.181">
   <property name="kdenlive:id">4</property>
  </entry>
  <entry producer="producer29" in="00:14:58.183" out="00:15:06.048">
   <property name="kdenlive:id">4</property>
  </entry>
  <entry producer="producer29" in="00:15:28.862" out="00:15:37.663">
   <property name="kdenlive:id">4</property>
  </entry>
  <entry producer="producer29" in="00:18:29.947" out="00:18:42.251">
   <property name="kdenlive:id">4</property>
  </entry>
  <entry producer="producer29" in="00:19:05.547" out="00:19:16.391">
   <property name="kdenlive:id">4</property>
  </entry>
  <entry producer="producer29" in="00:19:48.257" out="00:19:58.517">
   <property name="kdenlive:id">4</property>
  </entry>
  <entry producer="producer29" in="00:20:39.873" out="00:20:48.799">
   <property name="kdenlive:id">4</property>
  </entry>
  <entry producer="producer29" in="00:21:35.202" out="00:21:45.379">
   <property name="kdenlive:id">4</property>
  </entry>
  <entry producer="producer29" in="00:22:29.988" out="00:22:39.915">
   <property name="kdenlive:id">4</property>
  </entry>
  <entry producer="producer29" in="00:24:08.342" out="00:24:25.025">
   <property name="kdenlive:id">4</property>
  </entry>
  <entry producer="producer29" in="00:24:59.101" out="00:25:08.759">
   <property name="kdenlive:id">4</property>
  </entry>
  <entry producer="producer29" in="00:25:45.379" out="00:25:52.844">
   <property name="kdenlive:id">4</property>
  </entry>
  <entry producer="producer29" in="00:26:56.265" out="00:27:03.754">
   <property name="kdenlive:id">4</property>
  </entry>
  <entry producer="producer29" in="00:27:50.175" out="00:27:57.557">
   <property name="kdenlive:id">4</property>
  </entry>
  <entry producer="producer29" in="00:28:55.556" out="00:29:06.548">
   <property name="kdenlive:id">4</property>
  </entry>
  <entry producer="producer29" in="00:30:16.308" out="00:30:28.612">
   <property name="kdenlive:id">4</property>
  </entry>
  <entry producer="producer29" in="00:30:50.175" out="00:30:57.015">
   <property name="kdenlive:id">4</property>
  </entry>
  <entry producer="producer29" in="00:31:27.903" out="00:31:36.495">
   <property name="kdenlive:id">4</property>
  </entry>
  <entry producer="producer29" in="00:33:13.597" out="00:33:21.605">
   <property name="kdenlive:id">4</property>
  </entry>
  <entry producer="producer29" in="00:33:26.401" out="00:33:35.327">
   <property name="kdenlive:id">4</property>
  </entry>
  <entry producer="producer29" in="00:33:54.596" out="00:34:04.213">
   <property name="kdenlive:id">4</property>
  </entry>
  <entry producer="producer29" in="00:34:15.307" out="00:34:20.479">
   <property name="kdenlive:id">4</property>
  </entry>
  <entry producer="producer29" in="00:34:51.718" out="00:34:59.351">
   <property name="kdenlive:id">4</property>
  </entry>
  <entry producer="producer29" in="00:35:22.231" out="00:35:27.819">
   <property name="kdenlive:id">4</property>
  </entry>
  <entry producer="producer29" in="00:35:56.640" out="00:36:01.293">
   <property name="kdenlive:id">4</property>
  </entry>
  <entry producer="producer29" in="00:37:00.250" out="00:37:06.173">
   <property name="kdenlive:id">4</property>
  </entry>
  <entry producer="producer29" in="00:37:13.555" out="00:37:16.558">
   <property name="kdenlive:id">4</property>
  </entry>
  <entry producer="producer29" in="00:37:25.734" out="00:37:33.533">
   <property name="kdenlive:id">4</property>
  </entry>
  <entry producer="producer29" in="00:38:01.835" out="00:38:03.879">
   <property name="kdenlive:id">4</property>
  </entry>
  <entry producer="producer29" in="00:38:03.921" out="00:38:06.798">
   <property name="kdenlive:id">4</property>
  </entry>
  <entry producer="producer29" in="00:38:35.035" out="00:38:46.964">
   <property name="kdenlive:id">4</property>
  </entry>
  <entry producer="producer29" in="00:39:00.459" out="00:39:04.630">
   <property name="kdenlive:id">4</property>
  </entry>
  <entry producer="producer29" in="00:39:18.977" out="00:39:26.485">
   <property name="kdenlive:id">4</property>
  </entry>
  <entry producer="producer29" in="00:40:28.445" out="00:40:38.247">
   <property name="kdenlive:id">4</property>
  </entry>
  <entry producer="producer29" in="00:41:34.826" out="00:41:41.416">
   <property name="kdenlive:id">4</property>
  </entry>
  <entry producer="producer29" in="00:41:43.377" out="00:41:49.049">
   <property name="kdenlive:id">4</property>
  </entry>
  <entry producer="producer29" in="00:42:03.253" out="00:42:06.632">
   <property name="kdenlive:id">4</property>
  </entry>
  <entry producer="producer29" in="00:42:09.343" out="00:42:13.847">
   <property name="kdenlive:id">4</property>
  </entry>
  <entry producer="producer29" in="00:42:42.042" out="00:42:50.342">
   <property name="kdenlive:id">4</property>
  </entry>
  <entry producer="producer29" in="00:43:22.481" out="00:43:30.572">
   <property name="kdenlive:id">4</property>
  </entry>
  <entry producer="producer29" in="00:45:02.377" out="00:45:20.145">
   <property name="kdenlive:id">4</property>
  </entry>
 </playlist>
 <playlist id="playlist7">
  <property name="kdenlive:audio_track">1</property>
 </playlist>
 <tractor id="tractor3" in="00:00:00.000" out="00:08:25.234">
  <property name="kdenlive:audio_track">1</property>
  <property name="kdenlive:trackheight">67</property>
  <property name="kdenlive:timeline_active">1</property>
  <property name="kdenlive:collapsed">0</property>
  <property name="kdenlive:thumbs_format"/>
  <property name="kdenlive:audio_rec"/>
  <track hide="video" producer="playlist6"/>
  <track hide="video" producer="playlist7"/>
  <filter id="filter22">
   <property name="window">75</property>
   <property name="max_gain">20dB</property>
   <property name="mlt_service">volume</property>
   <property name="internal_added">237</property>
   <property name="disable">1</property>
  </filter>
  <filter id="filter23">
   <property name="channel">-1</property>
   <property name="mlt_service">panner</property>
   <property name="internal_added">237</property>
   <property name="start">0.5</property>
   <property name="disable">1</property>
  </filter>
  <filter id="filter24">
   <property name="iec_scale">0</property>
   <property name="mlt_service">audiolevel</property>
   <property name="disable">1</property>
  </filter>
 </tractor>
 <producer id="producer30" in="00:00:00.000" out="00:02:06.506">
  <property name="length">3034</property>
  <property name="eof">pause</property>
  <property name="resource">5.000000:video/response/Planned Obsolescence Sucks. Here's Why It Still Exists.(720p).mp4</property>
  <property name="aspect_ratio">1</property>
  <property name="meta.media.nb_streams">2</property>
  <property name="meta.media.0.stream.type">video</property>
  <property name="meta.media.0.stream.frame_rate">23.976</property>
  <property name="meta.media.0.stream.sample_aspect_ratio">0</property>
  <property name="meta.media.0.codec.width">1280</property>
  <property name="meta.media.0.codec.height">720</property>
  <property name="meta.media.0.codec.rotate">0</property>
  <property name="meta.media.0.codec.pix_fmt">yuv420p</property>
  <property name="meta.media.0.codec.sample_aspect_ratio">1</property>
  <property name="meta.media.0.codec.colorspace">709</property>
  <property name="meta.media.0.codec.color_trc">1</property>
  <property name="meta.media.0.codec.name">h264</property>
  <property name="meta.media.0.codec.long_name">H.264 / AVC / MPEG-4 AVC / MPEG-4 part 10</property>
  <property name="meta.media.0.codec.bit_rate">325023</property>
  <property name="meta.attr.0.stream.creation_time.markup">2021-01-16T13:33:58.000000Z</property>
  <property name="meta.attr.0.stream.handler_name.markup">ISO Media file produced by Google Inc. Created on: 01/16/2021.</property>
  <property name="meta.attr.0.stream.vendor_id.markup">[0][0][0][0]</property>
  <property name="meta.media.1.stream.type">audio</property>
  <property name="meta.media.1.codec.sample_fmt">fltp</property>
  <property name="meta.media.1.codec.sample_rate">44100</property>
  <property name="meta.media.1.codec.channels">2</property>
  <property name="meta.media.1.codec.name">aac</property>
  <property name="meta.media.1.codec.long_name">AAC (Advanced Audio Coding)</property>
  <property name="meta.media.1.codec.bit_rate">128001</property>
  <property name="meta.attr.1.stream.creation_time.markup">2021-01-16T13:33:58.000000Z</property>
  <property name="meta.attr.1.stream.handler_name.markup">ISO Media file produced by Google Inc. Created on: 01/16/2021.</property>
  <property name="meta.attr.1.stream.vendor_id.markup">[0][0][0][0]</property>
  <property name="meta.attr.major_brand.markup">mp42</property>
  <property name="meta.attr.minor_version.markup">0</property>
  <property name="meta.attr.compatible_brands.markup">isommp42</property>
  <property name="meta.attr.creation_time.markup">2021-01-16T13:33:58.000000Z</property>
  <property name="seekable">1</property>
  <property name="meta.media.sample_aspect_num">1</property>
  <property name="meta.media.sample_aspect_den">1</property>
  <property name="audio_index">-1</property>
  <property name="video_index">0</property>
  <property name="mute_on_pause">1</property>
  <property name="warp_speed">5</property>
  <property name="warp_resource">video/response/Planned Obsolescence Sucks. Here's Why It Still Exists.(720p).mp4</property>
  <property name="mlt_service">timewarp</property>
  <property name="set.test_audio">1</property>
  <property name="set.test_image">0</property>
  <property name="kdenlive:id">7</property>
  <property name="warp_pitch">0</property>
  <property name="meta.media.frame_rate_num">24000</property>
  <property name="meta.media.frame_rate_den">1001</property>
  <property name="meta.media.colorspace">709</property>
  <property name="meta.media.color_trc">1</property>
  <property name="meta.media.has_b_frames">1</property>
  <property name="meta.media.width">1280</property>
  <property name="meta.media.height">720</property>
  <property name="meta.media.color_range">mpeg</property>
  <property name="meta.media.top_field_first">0</property>
  <property name="meta.media.progressive">1</property>
 </producer>
 <producer id="producer31" in="00:00:00.000" out="00:00:48.215">
  <property name="length">1157</property>
  <property name="eof">pause</property>
  <property name="resource">video/2023-05-02 13-44-29.mkv</property>
  <property name="audio_index">-1</property>
  <property name="video_index">0</property>
  <property name="mute_on_pause">0</property>
  <property name="mlt_service">avformat-novalidate</property>
  <property name="seekable">1</property>
  <property name="aspect_ratio">1</property>
  <property name="kdenlive:clipname"/>
  <property name="kdenlive:clip_type">0</property>
  <property name="kdenlive:folderid">11</property>
  <property name="kdenlive:id">10</property>
  <property name="kdenlive:file_size">4922891</property>
  <property name="kdenlive:file_hash">81f82788dbebe5766457b40ddde4f296</property>
  <property name="kdenlive:audio_max1">1</property>
  <property name="kdenlive:active_streams">-1</property>
  <property name="set.test_audio">1</property>
  <property name="xml">was here</property>
  <property name="meta.media.nb_streams">2</property>
  <property name="meta.media.0.stream.type">video</property>
  <property name="meta.media.0.stream.frame_rate">60</property>
  <property name="meta.media.0.stream.sample_aspect_ratio">0</property>
  <property name="meta.media.0.codec.width">1920</property>
  <property name="meta.media.0.codec.height">1080</property>
  <property name="meta.media.0.codec.rotate">0</property>
  <property name="meta.media.0.codec.pix_fmt">yuv420p</property>
  <property name="meta.media.0.codec.sample_aspect_ratio">1</property>
  <property name="meta.media.0.codec.colorspace">709</property>
  <property name="meta.media.0.codec.color_trc">1</property>
  <property name="meta.media.0.codec.name">h264</property>
  <property name="meta.media.0.codec.long_name">H.264 / AVC / MPEG-4 AVC / MPEG-4 part 10</property>
  <property name="meta.media.0.codec.bit_rate">0</property>
  <property name="meta.attr.0.stream.DURATION.markup">00:00:48.250000000</property>
  <property name="meta.media.1.stream.type">audio</property>
  <property name="meta.media.1.codec.sample_fmt">fltp</property>
  <property name="meta.media.1.codec.sample_rate">48000</property>
  <property name="meta.media.1.codec.channels">2</property>
  <property name="meta.media.1.codec.name">aac</property>
  <property name="meta.media.1.codec.long_name">AAC (Advanced Audio Coding)</property>
  <property name="meta.media.1.codec.bit_rate">0</property>
  <property name="meta.attr.1.stream.title.markup">simple_aac_recording</property>
  <property name="meta.attr.1.stream.DURATION.markup">00:00:48.234000000</property>
  <property name="meta.attr.ENCODER.markup">Lavf58.76.100</property>
  <property name="meta.media.sample_aspect_num">1</property>
  <property name="meta.media.sample_aspect_den">1</property>
  <property name="meta.media.frame_rate_num">60</property>
  <property name="meta.media.frame_rate_den">1</property>
  <property name="meta.media.colorspace">709</property>
  <property name="meta.media.color_trc">1</property>
  <property name="meta.media.has_b_frames">2</property>
  <property name="meta.media.width">1920</property>
  <property name="meta.media.height">1080</property>
  <property name="meta.media.color_range">mpeg</property>
  <property name="meta.media.top_field_first">0</property>
  <property name="meta.media.progressive">1</property>
  <property name="set.test_image">0</property>
 </producer>
 <producer id="producer32" in="00:00:00.000" out="00:05:49.925">
  <property name="length">8390</property>
  <property name="eof">pause</property>
  <property name="resource">3.000000:video/response/This is why we can't have nice things(720p).mp4</property>
  <property name="aspect_ratio">1</property>
  <property name="meta.media.nb_streams">2</property>
  <property name="meta.media.0.stream.type">video</property>
  <property name="meta.media.0.stream.frame_rate">29.97</property>
  <property name="meta.media.0.stream.sample_aspect_ratio">0</property>
  <property name="meta.media.0.codec.width">1280</property>
  <property name="meta.media.0.codec.height">720</property>
  <property name="meta.media.0.codec.rotate">0</property>
  <property name="meta.media.0.codec.pix_fmt">yuv420p</property>
  <property name="meta.media.0.codec.sample_aspect_ratio">1</property>
  <property name="meta.media.0.codec.colorspace">709</property>
  <property name="meta.media.0.codec.color_trc">1</property>
  <property name="meta.media.0.codec.name">h264</property>
  <property name="meta.media.0.codec.long_name">H.264 / AVC / MPEG-4 AVC / MPEG-4 part 10</property>
  <property name="meta.media.0.codec.bit_rate">583086</property>
  <property name="meta.attr.0.stream.creation_time.markup">2022-06-05T16:34:43.000000Z</property>
  <property name="meta.attr.0.stream.handler_name.markup">ISO Media file produced by Google Inc. Created on: 06/05/2022.</property>
  <property name="meta.attr.0.stream.vendor_id.markup">[0][0][0][0]</property>
  <property name="meta.media.1.stream.type">audio</property>
  <property name="meta.media.1.codec.sample_fmt">fltp</property>
  <property name="meta.media.1.codec.sample_rate">44100</property>
  <property name="meta.media.1.codec.channels">2</property>
  <property name="meta.media.1.codec.name">aac</property>
  <property name="meta.media.1.codec.long_name">AAC (Advanced Audio Coding)</property>
  <property name="meta.media.1.codec.bit_rate">128000</property>
  <property name="meta.attr.1.stream.creation_time.markup">2022-06-05T16:34:43.000000Z</property>
  <property name="meta.attr.1.stream.handler_name.markup">ISO Media file produced by Google Inc. Created on: 06/05/2022.</property>
  <property name="meta.attr.1.stream.vendor_id.markup">[0][0][0][0]</property>
  <property name="meta.attr.major_brand.markup">mp42</property>
  <property name="meta.attr.minor_version.markup">0</property>
  <property name="meta.attr.compatible_brands.markup">isommp42</property>
  <property name="meta.attr.creation_time.markup">2022-06-05T16:34:43.000000Z</property>
  <property name="seekable">1</property>
  <property name="meta.media.sample_aspect_num">1</property>
  <property name="meta.media.sample_aspect_den">1</property>
  <property name="audio_index">-1</property>
  <property name="video_index">0</property>
  <property name="mute_on_pause">1</property>
  <property name="warp_speed">3</property>
  <property name="warp_resource">video/response/This is why we can't have nice things(720p).mp4</property>
  <property name="mlt_service">timewarp</property>
  <property name="set.test_audio">1</property>
  <property name="set.test_image">0</property>
  <property name="kdenlive:id">9</property>
  <property name="warp_pitch">0</property>
  <property name="meta.media.frame_rate_num">30000</property>
  <property name="meta.media.frame_rate_den">1001</property>
  <property name="meta.media.colorspace">709</property>
  <property name="meta.media.color_trc">1</property>
  <property name="meta.media.has_b_frames">1</property>
  <property name="meta.media.width">1280</property>
  <property name="meta.media.height">720</property>
  <property name="meta.media.color_range">mpeg</property>
  <property name="meta.media.top_field_first">0</property>
  <property name="meta.media.progressive">1</property>
 </producer>
 <producer id="producer33" in="00:00:00.000" out="00:45:21.813">
  <property name="length">65259</property>
  <property name="eof">pause</property>
  <property name="resource">video/2023-05-02 09-07-45.mkv</property>
  <property name="audio_index">1</property>
  <property name="video_index">0</property>
  <property name="mute_on_pause">0</property>
  <property name="mlt_service">avformat-novalidate</property>
  <property name="meta.media.nb_streams">2</property>
  <property name="meta.media.0.stream.type">video</property>
  <property name="meta.media.0.stream.frame_rate">23.976</property>
  <property name="meta.media.0.stream.sample_aspect_ratio">0</property>
  <property name="meta.media.0.codec.width">1280</property>
  <property name="meta.media.0.codec.height">720</property>
  <property name="meta.media.0.codec.rotate">0</property>
  <property name="meta.media.0.codec.pix_fmt">yuv420p</property>
  <property name="meta.media.0.codec.sample_aspect_ratio">1</property>
  <property name="meta.media.0.codec.colorspace">709</property>
  <property name="meta.media.0.codec.color_trc">1</property>
  <property name="meta.media.0.codec.name">h264</property>
  <property name="meta.media.0.codec.long_name">H.264 / AVC / MPEG-4 AVC / MPEG-4 part 10</property>
  <property name="meta.media.0.codec.bit_rate">0</property>
  <property name="meta.attr.0.stream.DURATION.markup">00:45:21.844000000</property>
  <property name="meta.media.1.stream.type">audio</property>
  <property name="meta.media.1.codec.sample_fmt">fltp</property>
  <property name="meta.media.1.codec.sample_rate">48000</property>
  <property name="meta.media.1.codec.channels">2</property>
  <property name="meta.media.1.codec.name">aac</property>
  <property name="meta.media.1.codec.long_name">AAC (Advanced Audio Coding)</property>
  <property name="meta.media.1.codec.bit_rate">0</property>
  <property name="meta.attr.1.stream.title.markup">simple_aac_recording</property>
  <property name="meta.attr.1.stream.DURATION.markup">00:45:21.728000000</property>
  <property name="meta.attr.ENCODER.markup">Lavf58.76.100</property>
  <property name="seekable">1</property>
  <property name="meta.media.sample_aspect_num">1</property>
  <property name="meta.media.sample_aspect_den">1</property>
  <property name="aspect_ratio">1</property>
  <property name="kdenlive:clipname"/>
  <property name="kdenlive:clip_type">0</property>
  <property name="kdenlive:folderid">-1</property>
  <property name="kdenlive:id">2</property>
  <property name="kdenlive:file_size">4959848550</property>
  <property name="kdenlive:file_hash">f68f468e43381e970e10280163f2df84</property>
  <property name="kdenlive:audio_max1">211</property>
  <property name="xml">was here</property>
  <property name="meta.media.frame_rate_num">24000</property>
  <property name="meta.media.frame_rate_den">1001</property>
  <property name="meta.media.colorspace">709</property>
  <property name="meta.media.color_trc">1</property>
  <property name="meta.media.has_b_frames">2</property>
  <property name="meta.media.width">1280</property>
  <property name="meta.media.height">720</property>
  <property name="meta.media.color_range">mpeg</property>
  <property name="meta.media.top_field_first">0</property>
  <property name="meta.media.progressive">1</property>
  <property name="set.test_audio">1</property>
  <property name="set.test_image">0</property>
 </producer>
 <producer id="producer34" in="00:00:00.000" out="00:00:40.499">
  <property name="length">972</property>
  <property name="eof">pause</property>
  <property name="resource">video/VID_20230502_100121.mp4</property>
  <property name="audio_index">-1</property>
  <property name="video_index">0</property>
  <property name="mute_on_pause">0</property>
  <property name="mlt_service">avformat-novalidate</property>
  <property name="seekable">1</property>
  <property name="aspect_ratio">1</property>
  <property name="kdenlive:clipname"/>
  <property name="kdenlive:clip_type">0</property>
  <property name="kdenlive:folderid">11</property>
  <property name="kdenlive:id">12</property>
  <property name="kdenlive:file_size">214525193</property>
  <property name="kdenlive:file_hash">d4623c1f6e54c81f212a83ae29aa6451</property>
  <property name="kdenlive:audio_max1">114</property>
  <property name="kdenlive:active_streams">-1</property>
  <property name="set.test_audio">1</property>
  <property name="xml">was here</property>
  <property name="meta.media.nb_streams">2</property>
  <property name="meta.media.0.stream.type">video</property>
  <property name="meta.media.0.stream.frame_rate">30.029</property>
  <property name="meta.media.0.stream.sample_aspect_ratio">0</property>
  <property name="meta.media.0.codec.width">3840</property>
  <property name="meta.media.0.codec.height">2160</property>
  <property name="meta.media.0.codec.rotate">90</property>
  <property name="meta.media.0.codec.pix_fmt">yuvj420p</property>
  <property name="meta.media.0.codec.sample_aspect_ratio">0</property>
  <property name="meta.media.0.codec.colorspace">601</property>
  <property name="meta.media.0.codec.color_trc">6</property>
  <property name="meta.media.0.codec.name">h264</property>
  <property name="meta.media.0.codec.long_name">H.264 / AVC / MPEG-4 AVC / MPEG-4 part 10</property>
  <property name="meta.media.0.codec.bit_rate">42212939</property>
  <property name="meta.attr.0.stream.rotate.markup">90</property>
  <property name="meta.attr.0.stream.creation_time.markup">2023-05-02T09:02:03.000000Z</property>
  <property name="meta.attr.0.stream.language.markup">eng</property>
  <property name="meta.attr.0.stream.handler_name.markup">VideoHandle</property>
  <property name="meta.attr.0.stream.vendor_id.markup">[0][0][0][0]</property>
  <property name="meta.media.1.stream.type">audio</property>
  <property name="meta.media.1.codec.sample_fmt">fltp</property>
  <property name="meta.media.1.codec.sample_rate">48000</property>
  <property name="meta.media.1.codec.channels">1</property>
  <property name="meta.media.1.codec.name">aac</property>
  <property name="meta.media.1.codec.long_name">AAC (Advanced Audio Coding)</property>
  <property name="meta.media.1.codec.bit_rate">96031</property>
  <property name="meta.attr.1.stream.creation_time.markup">2023-05-02T09:02:03.000000Z</property>
  <property name="meta.attr.1.stream.language.markup">eng</property>
  <property name="meta.attr.1.stream.handler_name.markup">SoundHandle</property>
  <property name="meta.attr.1.stream.vendor_id.markup">[0][0][0][0]</property>
  <property name="meta.attr.major_brand.markup">mp42</property>
  <property name="meta.attr.minor_version.markup">0</property>
  <property name="meta.attr.compatible_brands.markup">isommp42</property>
  <property name="meta.attr.creation_time.markup">2023-05-02T09:02:03.000000Z</property>
  <property name="meta.attr.com.android.version.markup">12</property>
  <property name="meta.media.sample_aspect_num">1</property>
  <property name="meta.media.sample_aspect_den">1</property>
  <property name="meta.media.frame_rate_num">109620000</property>
  <property name="meta.media.frame_rate_den">3650467</property>
  <property name="meta.media.colorspace">601</property>
  <property name="meta.media.color_trc">6</property>
  <property name="meta.media.has_b_frames">0</property>
  <property name="meta.media.width">2160</property>
  <property name="meta.media.height">3840</property>
  <property name="meta.media.color_range">full</property>
  <property name="meta.media.top_field_first">0</property>
  <property name="meta.media.progressive">1</property>
  <property name="set.test_image">0</property>
 </producer>
 <playlist id="playlist8">
  <entry producer="producer30" in="00:00:06.298" out="00:00:07.424">
   <property name="kdenlive:id">7</property>
  </entry>
  <blank length="00:00:01.043"/>
  <entry producer="producer31" in="00:00:05.380" out="00:00:06.506">
   <property name="kdenlive:id">10</property>
   <filter id="filter25">
    <property name="mlt_service">crop</property>
    <property name="kdenlive_id">crop</property>
    <property name="top">110</property>
    <property name="left">341</property>
    <property name="bottom">0</property>
    <property name="right">182</property>
    <property name="center">0</property>
    <property name="center_bias">0</property>
    <property name="use_profile">1</property>
    <property name="kdenlive:collapsed">0</property>
   </filter>
   <filter id="filter26">
    <property name="rotate_center">1</property>
    <property name="mlt_service">qtblend</property>
    <property name="kdenlive_id">qtblend</property>
    <property name="rect">00:00:05.380=-282 0 1848 1040 1.000000</property>
    <property name="rotation">00:00:05.380=0</property>
    <property name="compositing">0</property>
    <property name="distort">0</property>
    <property name="kdenlive:collapsed">0</property>
   </filter>
  </entry>
  <entry producer="producer32" in="00:01:03.587" out="00:01:06.506">
   <property name="kdenlive:id">9</property>
  </entry>
  <blank length="00:00:07.841"/>
  <entry producer="producer33" in="00:02:22.022" out="00:02:25.651">
   <property name="kdenlive:id">2</property>
   <filter id="filter27" in="00:02:22.022" out="00:02:22.272">
    <property name="start">1</property>
    <property name="level">1</property>
    <property name="mlt_service">brightness</property>
    <property name="kdenlive_id">fade_from_black</property>
    <property name="alpha">00:00:00.000=0;00:00:00.250=1</property>
    <property name="kdenlive:collapsed">0</property>
   </filter>
  </entry>
  <blank length="00:00:04.796"/>
  <entry producer="producer33" in="00:02:37.538" out="00:02:42.209">
   <property name="kdenlive:id">2</property>
  </entry>
  <entry producer="producer33" in="00:03:41.667" out="00:03:51.927">
   <property name="kdenlive:id">2</property>
  </entry>
  <entry producer="producer33" in="00:04:15.015" out="00:04:20.020">
   <property name="kdenlive:id">2</property>
  </entry>
  <entry producer="producer33" in="00:05:06.173" out="00:05:14.181">
   <property name="kdenlive:id">2</property>
  </entry>
  <entry producer="producer33" in="00:05:36.036" out="00:05:43.627">
   <property name="kdenlive:id">2</property>
   <filter id="filter28">
    <property name="rotate_center">1</property>
    <property name="mlt_service">qtblend</property>
    <property name="kdenlive_id">qtblend</property>
    <property name="rect">00:05:36.036=-96 -39 1472 828 1.000000</property>
    <property name="rotation">00:05:36.036=0</property>
    <property name="compositing">0</property>
    <property name="distort">0</property>
   </filter>
  </entry>
  <entry producer="producer33" in="00:06:47.297" out="00:07:02.586">
   <property name="kdenlive:id">2</property>
  </entry>
  <entry producer="producer33" in="00:08:26.485" out="00:08:31.865">
   <property name="kdenlive:id">2</property>
  </entry>
  <entry producer="producer33" in="00:08:41.959" out="00:08:49.508">
   <property name="kdenlive:id">2</property>
  </entry>
  <entry producer="producer33" in="00:09:02.336" out="00:09:07.966">
   <property name="kdenlive:id">2</property>
  </entry>
  <entry producer="producer33" in="00:09:33.742" out="00:09:39.289">
   <property name="kdenlive:id">2</property>
  </entry>
  <blank length="00:00:03.378"/>
  <entry producer="producer33" in="00:10:05.214" out="00:10:13.263">
   <property name="kdenlive:id">2</property>
  </entry>
  <entry producer="producer33" in="00:10:43.669" out="00:10:49.883">
   <property name="kdenlive:id">2</property>
  </entry>
  <entry producer="producer33" in="00:11:00.459" out="00:11:03.879">
   <property name="kdenlive:id">2</property>
  </entry>
  <entry producer="producer33" in="00:11:03.921" out="00:11:08.675">
   <property name="kdenlive:id">2</property>
   <filter id="filter29">
    <property name="rotate_center">1</property>
    <property name="mlt_service">qtblend</property>
    <property name="kdenlive_id">qtblend</property>
    <property name="rect">00:11:03.921=-96 -39 1472 828 1.000000</property>
    <property name="rotation">00:11:03.921=0</property>
    <property name="compositing">0</property>
    <property name="distort">0</property>
    <property name="kdenlive:collapsed">0</property>
   </filter>
  </entry>
  <entry producer="producer33" in="00:11:52.761" out="00:11:59.393">
   <property name="kdenlive:id">2</property>
  </entry>
  <entry producer="producer33" in="00:12:33.367" out="00:12:39.581">
   <property name="kdenlive:id">2</property>
  </entry>
  <blank length="00:00:17.601"/>
  <entry producer="producer33" in="00:14:15.641" out="00:14:20.979">
   <property name="kdenlive:id">2</property>
  </entry>
  <entry producer="producer33" in="00:14:33.116" out="00:14:40.791">
   <property name="kdenlive:id">2</property>
  </entry>
  <blank length="00:00:18.352"/>
  <entry producer="producer33" in="00:15:26.944" out="00:15:35.744">
   <property name="kdenlive:id">2</property>
  </entry>
  <entry producer="producer33" in="00:18:28.028" out="00:18:36.662">
   <property name="kdenlive:id">2</property>
  </entry>
  <entry producer="producer33" in="00:18:36.703" out="00:18:40.332">
   <property name="kdenlive:id">2</property>
   <filter id="filter30">
    <property name="rotate_center">1</property>
    <property name="mlt_service">qtblend</property>
    <property name="kdenlive_id">qtblend</property>
    <property name="rect">00:18:36.703=-96 -39 1472 828 1.000000</property>
    <property name="rotation">00:18:36.703=0</property>
    <property name="compositing">0</property>
    <property name="distort">0</property>
   </filter>
  </entry>
  <entry producer="producer33" in="00:19:03.629" out="00:19:14.473">
   <property name="kdenlive:id">2</property>
  </entry>
  <entry producer="producer33" in="00:19:46.338" out="00:19:56.598">
   <property name="kdenlive:id">2</property>
  </entry>
  <entry producer="producer33" in="00:20:37.955" out="00:20:46.880">
   <property name="kdenlive:id">2</property>
  </entry>
  <entry producer="producer33" in="00:21:33.283" out="00:21:43.460">
   <property name="kdenlive:id">2</property>
  </entry>
  <entry producer="producer33" in="00:22:28.070" out="00:22:37.996">
   <property name="kdenlive:id">2</property>
  </entry>
  <entry producer="producer33" in="00:24:06.423" out="00:24:23.106">
   <property name="kdenlive:id">2</property>
  </entry>
  <entry producer="producer33" in="00:24:57.182" out="00:25:06.840">
   <property name="kdenlive:id">2</property>
  </entry>
  <entry producer="producer33" in="00:25:43.460" out="00:25:50.926">
   <property name="kdenlive:id">2</property>
  </entry>
  <entry producer="producer33" in="00:26:54.346" out="00:27:01.835">
   <property name="kdenlive:id">2</property>
  </entry>
  <entry producer="producer33" in="00:27:48.257" out="00:27:55.639">
   <property name="kdenlive:id">2</property>
  </entry>
  <entry producer="producer33" in="00:28:53.637" out="00:29:04.630">
   <property name="kdenlive:id">2</property>
  </entry>
  <entry producer="producer33" in="00:30:14.389" out="00:30:26.693">
   <property name="kdenlive:id">2</property>
  </entry>
  <entry producer="producer33" in="00:30:48.257" out="00:30:55.097">
   <property name="kdenlive:id">2</property>
  </entry>
  <entry producer="producer33" in="00:31:25.984" out="00:31:34.576">
   <property name="kdenlive:id">2</property>
  </entry>
  <entry producer="producer33" in="00:33:11.678" out="00:33:13.931">
   <property name="kdenlive:id">2</property>
  </entry>
  <blank length="00:00:05.756"/>
  <entry producer="producer33" in="00:33:24.483" out="00:33:33.408">
   <property name="kdenlive:id">2</property>
  </entry>
  <entry producer="producer33" in="00:33:52.678" out="00:34:02.294">
   <property name="kdenlive:id">2</property>
  </entry>
  <entry producer="producer33" in="00:34:13.388" out="00:34:18.560">
   <property name="kdenlive:id">2</property>
  </entry>
  <entry producer="producer33" in="00:34:49.800" out="00:34:57.432">
   <property name="kdenlive:id">2</property>
  </entry>
  <entry producer="producer33" in="00:35:20.312" out="00:35:25.901">
   <property name="kdenlive:id">2</property>
  </entry>
  <entry producer="producer33" in="00:35:54.721" out="00:35:59.393">
   <property name="kdenlive:id">2</property>
  </entry>
  <entry producer="producer33" in="00:36:58.308" out="00:37:04.254">
   <property name="kdenlive:id">2</property>
  </entry>
  <entry producer="producer33" in="00:37:11.637" out="00:37:14.640">
   <property name="kdenlive:id">2</property>
  </entry>
  <entry producer="producer33" in="00:37:23.815" out="00:37:31.615">
   <property name="kdenlive:id">2</property>
  </entry>
  <entry producer="producer33" in="00:37:59.935" out="00:38:01.960">
   <property name="kdenlive:id">2</property>
  </entry>
  <blank length="00:00:02.920"/>
  <entry producer="producer33" in="00:38:33.116" out="00:38:45.045">
   <property name="kdenlive:id">2</property>
  </entry>
  <entry producer="producer33" in="00:38:58.517" out="00:39:02.711">
   <property name="kdenlive:id">2</property>
  </entry>
  <entry producer="producer33" in="00:39:17.059" out="00:39:24.566">
   <property name="kdenlive:id">2</property>
  </entry>
  <entry producer="producer33" in="00:40:26.526" out="00:40:36.328">
   <property name="kdenlive:id">2</property>
  </entry>
  <entry producer="producer34" in="00:00:18.602" out="00:00:31.323">
   <property name="kdenlive:id">12</property>
   <filter id="filter31">
    <property name="rotate_center">1</property>
    <property name="mlt_service">qtblend</property>
    <property name="kdenlive_id">qtblend</property>
    <property name="rect">00:00:18.602=-507 -284 2296 1291 1.000000</property>
    <property name="rotation">00:00:18.602=90</property>
    <property name="compositing">0</property>
    <property name="distort">0</property>
    <property name="kdenlive:collapsed">0</property>
   </filter>
  </entry>
  <blank length="00:00:07.549"/>
  <entry producer="producer33" in="00:42:40.123" out="00:42:48.423">
   <property name="kdenlive:id">2</property>
  </entry>
  <entry producer="producer33" in="00:43:20.562" out="00:43:28.654">
   <property name="kdenlive:id">2</property>
  </entry>
  <blank length="00:00:17.559"/>
  <entry producer="producer22" in="00:00:00.000" out="00:00:13.555">
   <property name="kdenlive:id">30</property>
  </entry>
 </playlist>
 <playlist id="playlist9"/>
 <tractor id="tractor4" in="00:00:00.000" out="00:08:38.580">
  <property name="kdenlive:trackheight">67</property>
  <property name="kdenlive:timeline_active">1</property>
  <property name="kdenlive:collapsed">0</property>
  <property name="kdenlive:thumbs_format"/>
  <property name="kdenlive:audio_rec"/>
  <track hide="audio" producer="playlist8"/>
  <track hide="audio" producer="playlist9"/>
 </tractor>
 <producer id="producer35" in="00:00:00.000" out="00:08:44.878">
  <property name="length">12585</property>
  <property name="eof">pause</property>
  <property name="resource">2.000000:video/response/This is why we can't have nice things(720p).mp4</property>
  <property name="aspect_ratio">1</property>
  <property name="meta.media.nb_streams">2</property>
  <property name="meta.media.0.stream.type">video</property>
  <property name="meta.media.0.stream.frame_rate">29.97</property>
  <property name="meta.media.0.stream.sample_aspect_ratio">0</property>
  <property name="meta.media.0.codec.width">1280</property>
  <property name="meta.media.0.codec.height">720</property>
  <property name="meta.media.0.codec.rotate">0</property>
  <property name="meta.media.0.codec.pix_fmt">yuv420p</property>
  <property name="meta.media.0.codec.sample_aspect_ratio">1</property>
  <property name="meta.media.0.codec.colorspace">709</property>
  <property name="meta.media.0.codec.color_trc">1</property>
  <property name="meta.media.0.codec.name">h264</property>
  <property name="meta.media.0.codec.long_name">H.264 / AVC / MPEG-4 AVC / MPEG-4 part 10</property>
  <property name="meta.media.0.codec.bit_rate">583086</property>
  <property name="meta.attr.0.stream.creation_time.markup">2022-06-05T16:34:43.000000Z</property>
  <property name="meta.attr.0.stream.handler_name.markup">ISO Media file produced by Google Inc. Created on: 06/05/2022.</property>
  <property name="meta.attr.0.stream.vendor_id.markup">[0][0][0][0]</property>
  <property name="meta.media.1.stream.type">audio</property>
  <property name="meta.media.1.codec.sample_fmt">fltp</property>
  <property name="meta.media.1.codec.sample_rate">44100</property>
  <property name="meta.media.1.codec.channels">2</property>
  <property name="meta.media.1.codec.name">aac</property>
  <property name="meta.media.1.codec.long_name">AAC (Advanced Audio Coding)</property>
  <property name="meta.media.1.codec.bit_rate">128000</property>
  <property name="meta.attr.1.stream.creation_time.markup">2022-06-05T16:34:43.000000Z</property>
  <property name="meta.attr.1.stream.handler_name.markup">ISO Media file produced by Google Inc. Created on: 06/05/2022.</property>
  <property name="meta.attr.1.stream.vendor_id.markup">[0][0][0][0]</property>
  <property name="meta.attr.major_brand.markup">mp42</property>
  <property name="meta.attr.minor_version.markup">0</property>
  <property name="meta.attr.compatible_brands.markup">isommp42</property>
  <property name="meta.attr.creation_time.markup">2022-06-05T16:34:43.000000Z</property>
  <property name="seekable">1</property>
  <property name="meta.media.sample_aspect_num">1</property>
  <property name="meta.media.sample_aspect_den">1</property>
  <property name="audio_index">-1</property>
  <property name="video_index">0</property>
  <property name="mute_on_pause">1</property>
  <property name="warp_speed">2</property>
  <property name="warp_resource">video/response/This is why we can't have nice things(720p).mp4</property>
  <property name="mlt_service">timewarp</property>
  <property name="set.test_audio">1</property>
  <property name="set.test_image">0</property>
  <property name="kdenlive:id">9</property>
  <property name="warp_pitch">0</property>
  <property name="meta.media.frame_rate_num">30000</property>
  <property name="meta.media.frame_rate_den">1001</property>
  <property name="meta.media.colorspace">709</property>
  <property name="meta.media.color_trc">1</property>
  <property name="meta.media.has_b_frames">1</property>
  <property name="meta.media.width">1280</property>
  <property name="meta.media.height">720</property>
  <property name="meta.media.color_range">mpeg</property>
  <property name="meta.media.top_field_first">0</property>
  <property name="meta.media.progressive">1</property>
 </producer>
 <producer id="producer36" in="00:00:00.000" out="00:45:21.813">
  <property name="length">65259</property>
  <property name="eof">pause</property>
  <property name="resource">video/2023-05-02 09-07-45.mkv</property>
  <property name="audio_index">1</property>
  <property name="video_index">0</property>
  <property name="mute_on_pause">0</property>
  <property name="mlt_service">avformat-novalidate</property>
  <property name="meta.media.nb_streams">2</property>
  <property name="meta.media.0.stream.type">video</property>
  <property name="meta.media.0.stream.frame_rate">23.976</property>
  <property name="meta.media.0.stream.sample_aspect_ratio">0</property>
  <property name="meta.media.0.codec.width">1280</property>
  <property name="meta.media.0.codec.height">720</property>
  <property name="meta.media.0.codec.rotate">0</property>
  <property name="meta.media.0.codec.pix_fmt">yuv420p</property>
  <property name="meta.media.0.codec.sample_aspect_ratio">1</property>
  <property name="meta.media.0.codec.colorspace">709</property>
  <property name="meta.media.0.codec.color_trc">1</property>
  <property name="meta.media.0.codec.name">h264</property>
  <property name="meta.media.0.codec.long_name">H.264 / AVC / MPEG-4 AVC / MPEG-4 part 10</property>
  <property name="meta.media.0.codec.bit_rate">0</property>
  <property name="meta.attr.0.stream.DURATION.markup">00:45:21.844000000</property>
  <property name="meta.media.1.stream.type">audio</property>
  <property name="meta.media.1.codec.sample_fmt">fltp</property>
  <property name="meta.media.1.codec.sample_rate">48000</property>
  <property name="meta.media.1.codec.channels">2</property>
  <property name="meta.media.1.codec.name">aac</property>
  <property name="meta.media.1.codec.long_name">AAC (Advanced Audio Coding)</property>
  <property name="meta.media.1.codec.bit_rate">0</property>
  <property name="meta.attr.1.stream.title.markup">simple_aac_recording</property>
  <property name="meta.attr.1.stream.DURATION.markup">00:45:21.728000000</property>
  <property name="meta.attr.ENCODER.markup">Lavf58.76.100</property>
  <property name="seekable">1</property>
  <property name="meta.media.sample_aspect_num">1</property>
  <property name="meta.media.sample_aspect_den">1</property>
  <property name="aspect_ratio">1</property>
  <property name="kdenlive:clipname"/>
  <property name="kdenlive:clip_type">0</property>
  <property name="kdenlive:folderid">-1</property>
  <property name="kdenlive:id">2</property>
  <property name="kdenlive:file_size">4959848550</property>
  <property name="kdenlive:file_hash">f68f468e43381e970e10280163f2df84</property>
  <property name="kdenlive:audio_max1">211</property>
  <property name="xml">was here</property>
  <property name="meta.media.frame_rate_num">24000</property>
  <property name="meta.media.frame_rate_den">1001</property>
  <property name="meta.media.colorspace">709</property>
  <property name="meta.media.color_trc">1</property>
  <property name="meta.media.has_b_frames">2</property>
  <property name="meta.media.width">1280</property>
  <property name="meta.media.height">720</property>
  <property name="meta.media.color_range">mpeg</property>
  <property name="meta.media.top_field_first">0</property>
  <property name="meta.media.progressive">1</property>
  <property name="set.test_audio">1</property>
  <property name="set.test_image">0</property>
 </producer>
 <producer id="producer37" in="00:00:00.000" out="00:04:47.589">
  <property name="length">6896</property>
  <property name="eof">pause</property>
  <property name="resource">2.200000:video/response/Planned Obsolescence Sucks. Here's Why It Still Exists.(720p).mp4</property>
  <property name="aspect_ratio">1</property>
  <property name="meta.media.nb_streams">2</property>
  <property name="meta.media.0.stream.type">video</property>
  <property name="meta.media.0.stream.frame_rate">23.976</property>
  <property name="meta.media.0.stream.sample_aspect_ratio">0</property>
  <property name="meta.media.0.codec.width">1280</property>
  <property name="meta.media.0.codec.height">720</property>
  <property name="meta.media.0.codec.rotate">0</property>
  <property name="meta.media.0.codec.pix_fmt">yuv420p</property>
  <property name="meta.media.0.codec.sample_aspect_ratio">1</property>
  <property name="meta.media.0.codec.colorspace">709</property>
  <property name="meta.media.0.codec.color_trc">1</property>
  <property name="meta.media.0.codec.name">h264</property>
  <property name="meta.media.0.codec.long_name">H.264 / AVC / MPEG-4 AVC / MPEG-4 part 10</property>
  <property name="meta.media.0.codec.bit_rate">325023</property>
  <property name="meta.attr.0.stream.creation_time.markup">2021-01-16T13:33:58.000000Z</property>
  <property name="meta.attr.0.stream.handler_name.markup">ISO Media file produced by Google Inc. Created on: 01/16/2021.</property>
  <property name="meta.attr.0.stream.vendor_id.markup">[0][0][0][0]</property>
  <property name="meta.media.1.stream.type">audio</property>
  <property name="meta.media.1.codec.sample_fmt">fltp</property>
  <property name="meta.media.1.codec.sample_rate">44100</property>
  <property name="meta.media.1.codec.channels">2</property>
  <property name="meta.media.1.codec.name">aac</property>
  <property name="meta.media.1.codec.long_name">AAC (Advanced Audio Coding)</property>
  <property name="meta.media.1.codec.bit_rate">128001</property>
  <property name="meta.attr.1.stream.creation_time.markup">2021-01-16T13:33:58.000000Z</property>
  <property name="meta.attr.1.stream.handler_name.markup">ISO Media file produced by Google Inc. Created on: 01/16/2021.</property>
  <property name="meta.attr.1.stream.vendor_id.markup">[0][0][0][0]</property>
  <property name="meta.attr.major_brand.markup">mp42</property>
  <property name="meta.attr.minor_version.markup">0</property>
  <property name="meta.attr.compatible_brands.markup">isommp42</property>
  <property name="meta.attr.creation_time.markup">2021-01-16T13:33:58.000000Z</property>
  <property name="seekable">1</property>
  <property name="meta.media.sample_aspect_num">1</property>
  <property name="meta.media.sample_aspect_den">1</property>
  <property name="audio_index">-1</property>
  <property name="video_index">0</property>
  <property name="mute_on_pause">1</property>
  <property name="warp_speed">2.2</property>
  <property name="warp_resource">video/response/Planned Obsolescence Sucks. Here's Why It Still Exists.(720p).mp4</property>
  <property name="mlt_service">timewarp</property>
  <property name="set.test_audio">1</property>
  <property name="set.test_image">0</property>
  <property name="kdenlive:id">7</property>
  <property name="warp_pitch">0</property>
  <property name="meta.media.frame_rate_num">24000</property>
  <property name="meta.media.frame_rate_den">1001</property>
  <property name="meta.media.colorspace">709</property>
  <property name="meta.media.color_trc">1</property>
  <property name="meta.media.has_b_frames">1</property>
  <property name="meta.media.width">1280</property>
  <property name="meta.media.height">720</property>
  <property name="meta.media.color_range">mpeg</property>
  <property name="meta.media.top_field_first">0</property>
  <property name="meta.media.progressive">1</property>
 </producer>
 <producer id="producer38" in="00:00:00.000" out="00:05:16.391">
  <property name="length">7586</property>
  <property name="eof">pause</property>
  <property name="resource">2.000000:video/response/Planned Obsolescence Sucks. Here's Why It Still Exists.(720p).mp4</property>
  <property name="aspect_ratio">1</property>
  <property name="meta.media.nb_streams">2</property>
  <property name="meta.media.0.stream.type">video</property>
  <property name="meta.media.0.stream.frame_rate">23.976</property>
  <property name="meta.media.0.stream.sample_aspect_ratio">0</property>
  <property name="meta.media.0.codec.width">1280</property>
  <property name="meta.media.0.codec.height">720</property>
  <property name="meta.media.0.codec.rotate">0</property>
  <property name="meta.media.0.codec.pix_fmt">yuv420p</property>
  <property name="meta.media.0.codec.sample_aspect_ratio">1</property>
  <property name="meta.media.0.codec.colorspace">709</property>
  <property name="meta.media.0.codec.color_trc">1</property>
  <property name="meta.media.0.codec.name">h264</property>
  <property name="meta.media.0.codec.long_name">H.264 / AVC / MPEG-4 AVC / MPEG-4 part 10</property>
  <property name="meta.media.0.codec.bit_rate">325023</property>
  <property name="meta.attr.0.stream.creation_time.markup">2021-01-16T13:33:58.000000Z</property>
  <property name="meta.attr.0.stream.handler_name.markup">ISO Media file produced by Google Inc. Created on: 01/16/2021.</property>
  <property name="meta.attr.0.stream.vendor_id.markup">[0][0][0][0]</property>
  <property name="meta.media.1.stream.type">audio</property>
  <property name="meta.media.1.codec.sample_fmt">fltp</property>
  <property name="meta.media.1.codec.sample_rate">44100</property>
  <property name="meta.media.1.codec.channels">2</property>
  <property name="meta.media.1.codec.name">aac</property>
  <property name="meta.media.1.codec.long_name">AAC (Advanced Audio Coding)</property>
  <property name="meta.media.1.codec.bit_rate">128001</property>
  <property name="meta.attr.1.stream.creation_time.markup">2021-01-16T13:33:58.000000Z</property>
  <property name="meta.attr.1.stream.handler_name.markup">ISO Media file produced by Google Inc. Created on: 01/16/2021.</property>
  <property name="meta.attr.1.stream.vendor_id.markup">[0][0][0][0]</property>
  <property name="meta.attr.major_brand.markup">mp42</property>
  <property name="meta.attr.minor_version.markup">0</property>
  <property name="meta.attr.compatible_brands.markup">isommp42</property>
  <property name="meta.attr.creation_time.markup">2021-01-16T13:33:58.000000Z</property>
  <property name="seekable">1</property>
  <property name="meta.media.sample_aspect_num">1</property>
  <property name="meta.media.sample_aspect_den">1</property>
  <property name="audio_index">-1</property>
  <property name="video_index">0</property>
  <property name="mute_on_pause">1</property>
  <property name="warp_speed">2</property>
  <property name="warp_resource">video/response/Planned Obsolescence Sucks. Here's Why It Still Exists.(720p).mp4</property>
  <property name="mlt_service">timewarp</property>
  <property name="set.test_audio">1</property>
  <property name="set.test_image">0</property>
  <property name="kdenlive:id">7</property>
  <property name="warp_pitch">0</property>
  <property name="meta.media.frame_rate_num">24000</property>
  <property name="meta.media.frame_rate_den">1001</property>
  <property name="meta.media.colorspace">709</property>
  <property name="meta.media.color_trc">1</property>
  <property name="meta.media.has_b_frames">1</property>
  <property name="meta.media.width">1280</property>
  <property name="meta.media.height">720</property>
  <property name="meta.media.color_range">mpeg</property>
  <property name="meta.media.top_field_first">0</property>
  <property name="meta.media.progressive">1</property>
 </producer>
 <producer id="producer39" in="00:00:00.000" out="00:07:25.234">
  <property name="length">10675</property>
  <property name="eof">pause</property>
  <property name="resource">video/response/The Truth about Planned Obsolescence(720p).mp4</property>
  <property name="audio_index">-1</property>
  <property name="video_index">0</property>
  <property name="mute_on_pause">0</property>
  <property name="mlt_service">avformat-novalidate</property>
  <property name="seekable">1</property>
  <property name="aspect_ratio">1</property>
  <property name="kdenlive:clipname"/>
  <property name="kdenlive:clip_type">0</property>
  <property name="kdenlive:folderid">6</property>
  <property name="kdenlive:id">8</property>
  <property name="kdenlive:file_size">52520946</property>
  <property name="kdenlive:file_hash">e78040097f7284ca41f451a5e2c3ec00</property>
  <property name="kdenlive:audio_max1">182</property>
  <property name="kdenlive:active_streams">-1</property>
  <property name="set.test_audio">1</property>
  <property name="xml">was here</property>
  <property name="meta.media.nb_streams">2</property>
  <property name="meta.media.0.stream.type">video</property>
  <property name="meta.media.0.stream.frame_rate">29.97</property>
  <property name="meta.media.0.stream.sample_aspect_ratio">0</property>
  <property name="meta.media.0.codec.width">1280</property>
  <property name="meta.media.0.codec.height">720</property>
  <property name="meta.media.0.codec.rotate">0</property>
  <property name="meta.media.0.codec.pix_fmt">yuv420p</property>
  <property name="meta.media.0.codec.sample_aspect_ratio">1</property>
  <property name="meta.media.0.codec.colorspace">709</property>
  <property name="meta.media.0.codec.color_trc">1</property>
  <property name="meta.media.0.codec.name">h264</property>
  <property name="meta.media.0.codec.long_name">H.264 / AVC / MPEG-4 AVC / MPEG-4 part 10</property>
  <property name="meta.media.0.codec.bit_rate">814204</property>
  <property name="meta.attr.0.stream.creation_time.markup">2018-09-21T17:49:06.000000Z</property>
  <property name="meta.attr.0.stream.handler_name.markup">ISO Media file produced by Google Inc. Created on: 09/21/2018.</property>
  <property name="meta.attr.0.stream.vendor_id.markup">[0][0][0][0]</property>
  <property name="meta.media.1.stream.type">audio</property>
  <property name="meta.media.1.codec.sample_fmt">fltp</property>
  <property name="meta.media.1.codec.sample_rate">44100</property>
  <property name="meta.media.1.codec.channels">2</property>
  <property name="meta.media.1.codec.name">aac</property>
  <property name="meta.media.1.codec.long_name">AAC (Advanced Audio Coding)</property>
  <property name="meta.media.1.codec.bit_rate">125594</property>
  <property name="meta.attr.1.stream.creation_time.markup">2018-09-21T17:49:06.000000Z</property>
  <property name="meta.attr.1.stream.language.markup">eng</property>
  <property name="meta.attr.1.stream.handler_name.markup">ISO Media file produced by Google Inc. Created on: 09/21/2018.</property>
  <property name="meta.attr.1.stream.vendor_id.markup">[0][0][0][0]</property>
  <property name="meta.attr.major_brand.markup">mp42</property>
  <property name="meta.attr.minor_version.markup">0</property>
  <property name="meta.attr.compatible_brands.markup">isommp42</property>
  <property name="meta.attr.creation_time.markup">2018-09-21T17:49:06.000000Z</property>
  <property name="meta.media.sample_aspect_num">1</property>
  <property name="meta.media.sample_aspect_den">1</property>
  <property name="meta.media.frame_rate_num">30000</property>
  <property name="meta.media.frame_rate_den">1001</property>
  <property name="meta.media.colorspace">709</property>
  <property name="meta.media.color_trc">1</property>
  <property name="meta.media.has_b_frames">1</property>
  <property name="meta.media.width">1280</property>
  <property name="meta.media.height">720</property>
  <property name="meta.media.color_range">mpeg</property>
  <property name="meta.media.top_field_first">0</property>
  <property name="meta.media.progressive">1</property>
  <property name="set.test_image">0</property>
 </producer>
 <producer id="producer40" in="00:00:00.000" out="00:00:10.010">
  <property name="length">241</property>
  <property name="eof">pause</property>
  <property name="resource">/home/liquidzulu/Videos/yt/b-roll/Dark Cinematic Background - 100% Free Stock Footage(720p).mp4</property>
  <property name="audio_index">1</property>
  <property name="video_index">0</property>
  <property name="mute_on_pause">0</property>
  <property name="mlt_service">avformat-novalidate</property>
  <property name="seekable">1</property>
  <property name="aspect_ratio">1</property>
  <property name="kdenlive:clipname"/>
  <property name="kdenlive:clip_type">0</property>
  <property name="kdenlive:folderid">-1</property>
  <property name="kdenlive:id">21</property>
  <property name="kdenlive:file_size">827143</property>
  <property name="kdenlive:file_hash">32a421f6ec9c56a1e29cd866c16e4a66</property>
  <property name="kdenlive:audio_max1">1</property>
  <property name="xml">was here</property>
  <property name="meta.media.nb_streams">2</property>
  <property name="meta.media.0.stream.type">video</property>
  <property name="meta.media.0.stream.frame_rate">29.97</property>
  <property name="meta.media.0.stream.sample_aspect_ratio">0</property>
  <property name="meta.media.0.codec.width">1280</property>
  <property name="meta.media.0.codec.height">720</property>
  <property name="meta.media.0.codec.rotate">0</property>
  <property name="meta.media.0.codec.pix_fmt">yuv420p</property>
  <property name="meta.media.0.codec.sample_aspect_ratio">1</property>
  <property name="meta.media.0.codec.colorspace">709</property>
  <property name="meta.media.0.codec.color_trc">1</property>
  <property name="meta.media.0.codec.name">h264</property>
  <property name="meta.media.0.codec.long_name">H.264 / AVC / MPEG-4 AVC / MPEG-4 part 10</property>
  <property name="meta.media.0.codec.bit_rate">528096</property>
  <property name="meta.attr.0.stream.creation_time.markup">2022-08-30T08:40:32.000000Z</property>
  <property name="meta.attr.0.stream.handler_name.markup">ISO Media file produced by Google Inc. Created on: 08/30/2022.</property>
  <property name="meta.attr.0.stream.vendor_id.markup">[0][0][0][0]</property>
  <property name="meta.media.1.stream.type">audio</property>
  <property name="meta.media.1.codec.sample_fmt">fltp</property>
  <property name="meta.media.1.codec.sample_rate">44100</property>
  <property name="meta.media.1.codec.channels">2</property>
  <property name="meta.media.1.codec.name">aac</property>
  <property name="meta.media.1.codec.long_name">AAC (Advanced Audio Coding)</property>
  <property name="meta.media.1.codec.bit_rate">127999</property>
  <property name="meta.attr.1.stream.creation_time.markup">2022-08-30T08:40:32.000000Z</property>
  <property name="meta.attr.1.stream.language.markup">eng</property>
  <property name="meta.attr.1.stream.handler_name.markup">ISO Media file produced by Google Inc. Created on: 08/30/2022.</property>
  <property name="meta.attr.1.stream.vendor_id.markup">[0][0][0][0]</property>
  <property name="meta.attr.major_brand.markup">mp42</property>
  <property name="meta.attr.minor_version.markup">0</property>
  <property name="meta.attr.compatible_brands.markup">isommp42</property>
  <property name="meta.attr.creation_time.markup">2022-08-30T08:40:32.000000Z</property>
  <property name="meta.media.sample_aspect_num">1</property>
  <property name="meta.media.sample_aspect_den">1</property>
  <property name="meta.media.frame_rate_num">30000</property>
  <property name="meta.media.frame_rate_den">1001</property>
  <property name="meta.media.colorspace">709</property>
  <property name="meta.media.color_trc">1</property>
  <property name="meta.media.has_b_frames">1</property>
  <property name="meta.media.width">1280</property>
  <property name="meta.media.height">720</property>
  <property name="meta.media.color_range">mpeg</property>
  <property name="meta.media.top_field_first">0</property>
  <property name="meta.media.progressive">1</property>
  <property name="set.test_audio">1</property>
  <property name="set.test_image">0</property>
 </producer>
 <producer id="producer41" in="00:00:00.000" out="00:05:54.805">
  <property name="length">8507</property>
  <property name="eof">pause</property>
  <property name="resource">/home/liquidzulu/Videos/yt/b-roll/yt1s.com - How Cars Are Made In Factories Mega Factories Video.mp4</property>
  <property name="audio_index">-1</property>
  <property name="video_index">0</property>
  <property name="mute_on_pause">0</property>
  <property name="mlt_service">avformat-novalidate</property>
  <property name="seekable">1</property>
  <property name="aspect_ratio">1</property>
  <property name="kdenlive:clipname"/>
  <property name="kdenlive:clip_type">0</property>
  <property name="kdenlive:folderid">11</property>
  <property name="kdenlive:id">26</property>
  <property name="kdenlive:file_size">172376432</property>
  <property name="kdenlive:file_hash">83bfef3caa2274602daae317086f3a14</property>
  <property name="kdenlive:audio_max1">232</property>
  <property name="kdenlive:active_streams">-1</property>
  <property name="set.test_audio">1</property>
  <property name="xml">was here</property>
  <property name="meta.media.nb_streams">2</property>
  <property name="meta.media.0.stream.type">video</property>
  <property name="meta.media.0.stream.frame_rate">30</property>
  <property name="meta.media.0.stream.sample_aspect_ratio">1</property>
  <property name="meta.media.0.codec.width">1920</property>
  <property name="meta.media.0.codec.height">1080</property>
  <property name="meta.media.0.codec.rotate">0</property>
  <property name="meta.media.0.codec.pix_fmt">yuv420p</property>
  <property name="meta.media.0.codec.sample_aspect_ratio">1</property>
  <property name="meta.media.0.codec.colorspace">709</property>
  <property name="meta.media.0.codec.color_trc">1</property>
  <property name="meta.media.0.codec.name">h264</property>
  <property name="meta.media.0.codec.long_name">H.264 / AVC / MPEG-4 AVC / MPEG-4 part 10</property>
  <property name="meta.media.0.codec.bit_rate">3751332</property>
  <property name="meta.attr.0.stream.handler_name.markup">ISO Media file produced by Google Inc.</property>
  <property name="meta.attr.0.stream.vendor_id.markup">[0][0][0][0]</property>
  <property name="meta.media.1.stream.type">audio</property>
  <property name="meta.media.1.codec.sample_fmt">fltp</property>
  <property name="meta.media.1.codec.sample_rate">44100</property>
  <property name="meta.media.1.codec.channels">2</property>
  <property name="meta.media.1.codec.name">aac</property>
  <property name="meta.media.1.codec.long_name">AAC (Advanced Audio Coding)</property>
  <property name="meta.media.1.codec.bit_rate">127999</property>
  <property name="meta.attr.1.stream.language.markup">eng</property>
  <property name="meta.attr.1.stream.handler_name.markup">ISO Media file produced by Google Inc.</property>
  <property name="meta.attr.1.stream.vendor_id.markup">[0][0][0][0]</property>
  <property name="meta.attr.major_brand.markup">isom</property>
  <property name="meta.attr.minor_version.markup">512</property>
  <property name="meta.attr.compatible_brands.markup">isomiso2avc1mp41</property>
  <property name="meta.attr.encoder.markup">Lavf58.19.102</property>
  <property name="meta.media.sample_aspect_num">1</property>
  <property name="meta.media.sample_aspect_den">1</property>
  <property name="meta.media.frame_rate_num">30</property>
  <property name="meta.media.frame_rate_den">1</property>
  <property name="meta.media.colorspace">709</property>
  <property name="meta.media.color_trc">1</property>
  <property name="meta.media.has_b_frames">1</property>
  <property name="meta.media.width">1920</property>
  <property name="meta.media.height">1080</property>
  <property name="meta.media.color_range">mpeg</property>
  <property name="meta.media.top_field_first">0</property>
  <property name="meta.media.progressive">1</property>
  <property name="set.test_image">0</property>
 </producer>
 <producer id="producer42" in="00:00:00.000" out="00:10:32.741">
  <property name="length">15171</property>
  <property name="eof">pause</property>
  <property name="resource">video/response/Planned Obsolescence Sucks. Here's Why It Still Exists.(720p).mp4</property>
  <property name="audio_index">-1</property>
  <property name="video_index">0</property>
  <property name="mute_on_pause">0</property>
  <property name="mlt_service">avformat-novalidate</property>
  <property name="seekable">1</property>
  <property name="aspect_ratio">1</property>
  <property name="kdenlive:clipname"/>
  <property name="kdenlive:clip_type">0</property>
  <property name="kdenlive:folderid">6</property>
  <property name="kdenlive:id">7</property>
  <property name="kdenlive:file_size">36108948</property>
  <property name="kdenlive:file_hash">9521b83142c948875df1c4053edb5615</property>
  <property name="kdenlive:audio_max1">215</property>
  <property name="kdenlive:active_streams">-1</property>
  <property name="set.test_audio">1</property>
  <property name="xml">was here</property>
  <property name="meta.media.nb_streams">2</property>
  <property name="meta.media.0.stream.type">video</property>
  <property name="meta.media.0.stream.frame_rate">23.976</property>
  <property name="meta.media.0.stream.sample_aspect_ratio">0</property>
  <property name="meta.media.0.codec.width">1280</property>
  <property name="meta.media.0.codec.height">720</property>
  <property name="meta.media.0.codec.rotate">0</property>
  <property name="meta.media.0.codec.pix_fmt">yuv420p</property>
  <property name="meta.media.0.codec.sample_aspect_ratio">1</property>
  <property name="meta.media.0.codec.colorspace">709</property>
  <property name="meta.media.0.codec.color_trc">1</property>
  <property name="meta.media.0.codec.name">h264</property>
  <property name="meta.media.0.codec.long_name">H.264 / AVC / MPEG-4 AVC / MPEG-4 part 10</property>
  <property name="meta.media.0.codec.bit_rate">325023</property>
  <property name="meta.attr.0.stream.creation_time.markup">2021-01-16T13:33:58.000000Z</property>
  <property name="meta.attr.0.stream.handler_name.markup">ISO Media file produced by Google Inc. Created on: 01/16/2021.</property>
  <property name="meta.attr.0.stream.vendor_id.markup">[0][0][0][0]</property>
  <property name="meta.media.1.stream.type">audio</property>
  <property name="meta.media.1.codec.sample_fmt">fltp</property>
  <property name="meta.media.1.codec.sample_rate">44100</property>
  <property name="meta.media.1.codec.channels">2</property>
  <property name="meta.media.1.codec.name">aac</property>
  <property name="meta.media.1.codec.long_name">AAC (Advanced Audio Coding)</property>
  <property name="meta.media.1.codec.bit_rate">128001</property>
  <property name="meta.attr.1.stream.creation_time.markup">2021-01-16T13:33:58.000000Z</property>
  <property name="meta.attr.1.stream.handler_name.markup">ISO Media file produced by Google Inc. Created on: 01/16/2021.</property>
  <property name="meta.attr.1.stream.vendor_id.markup">[0][0][0][0]</property>
  <property name="meta.attr.major_brand.markup">mp42</property>
  <property name="meta.attr.minor_version.markup">0</property>
  <property name="meta.attr.compatible_brands.markup">isommp42</property>
  <property name="meta.attr.creation_time.markup">2021-01-16T13:33:58.000000Z</property>
  <property name="meta.media.sample_aspect_num">1</property>
  <property name="meta.media.sample_aspect_den">1</property>
  <property name="meta.media.frame_rate_num">24000</property>
  <property name="meta.media.frame_rate_den">1001</property>
  <property name="meta.media.colorspace">709</property>
  <property name="meta.media.color_trc">1</property>
  <property name="meta.media.has_b_frames">1</property>
  <property name="meta.media.width">1280</property>
  <property name="meta.media.height">720</property>
  <property name="meta.media.color_range">mpeg</property>
  <property name="meta.media.top_field_first">0</property>
  <property name="meta.media.progressive">1</property>
  <property name="set.test_image">0</property>
 </producer>
 <producer id="producer43" in="00:00:00.000" out="00:00:36.703">
  <property name="length">881</property>
  <property name="eof">pause</property>
  <property name="resource">0.750000:video/2023-05-02 09-58-33.mkv</property>
  <property name="aspect_ratio">1</property>
  <property name="meta.media.nb_streams">2</property>
  <property name="meta.media.0.stream.type">video</property>
  <property name="meta.media.0.stream.frame_rate">23.976</property>
  <property name="meta.media.0.stream.sample_aspect_ratio">0</property>
  <property name="meta.media.0.codec.width">1280</property>
  <property name="meta.media.0.codec.height">720</property>
  <property name="meta.media.0.codec.rotate">0</property>
  <property name="meta.media.0.codec.pix_fmt">yuv420p</property>
  <property name="meta.media.0.codec.sample_aspect_ratio">1</property>
  <property name="meta.media.0.codec.colorspace">709</property>
  <property name="meta.media.0.codec.color_trc">1</property>
  <property name="meta.media.0.codec.name">h264</property>
  <property name="meta.media.0.codec.long_name">H.264 / AVC / MPEG-4 AVC / MPEG-4 part 10</property>
  <property name="meta.media.0.codec.bit_rate">0</property>
  <property name="meta.attr.0.stream.DURATION.markup">00:00:27.570000000</property>
  <property name="meta.media.1.stream.type">audio</property>
  <property name="meta.media.1.codec.sample_fmt">fltp</property>
  <property name="meta.media.1.codec.sample_rate">48000</property>
  <property name="meta.media.1.codec.channels">2</property>
  <property name="meta.media.1.codec.name">aac</property>
  <property name="meta.media.1.codec.long_name">AAC (Advanced Audio Coding)</property>
  <property name="meta.media.1.codec.bit_rate">0</property>
  <property name="meta.attr.1.stream.title.markup">simple_aac_recording</property>
  <property name="meta.attr.1.stream.DURATION.markup">00:00:27.370000000</property>
  <property name="meta.attr.ENCODER.markup">Lavf58.76.100</property>
  <property name="seekable">1</property>
  <property name="meta.media.sample_aspect_num">1</property>
  <property name="meta.media.sample_aspect_den">1</property>
  <property name="audio_index">-1</property>
  <property name="video_index">0</property>
  <property name="mute_on_pause">1</property>
  <property name="warp_speed">0.75</property>
  <property name="warp_resource">video/2023-05-02 09-58-33.mkv</property>
  <property name="mlt_service">timewarp</property>
  <property name="set.test_audio">1</property>
  <property name="set.test_image">0</property>
  <property name="kdenlive:id">3</property>
  <property name="warp_pitch">0</property>
  <property name="meta.media.frame_rate_num">24000</property>
  <property name="meta.media.frame_rate_den">1001</property>
  <property name="meta.media.colorspace">709</property>
  <property name="meta.media.color_trc">1</property>
  <property name="meta.media.has_b_frames">2</property>
  <property name="meta.media.width">1280</property>
  <property name="meta.media.height">720</property>
  <property name="meta.media.color_range">mpeg</property>
  <property name="meta.media.top_field_first">0</property>
  <property name="meta.media.progressive">1</property>
 </producer>
 <producer id="producer44" in="00:00:00.000" out="00:00:36.703">
  <property name="length">881</property>
  <property name="eof">pause</property>
  <property name="resource">0.750000:video/2023-05-02 09-58-33.mkv</property>
  <property name="aspect_ratio">1</property>
  <property name="meta.media.nb_streams">2</property>
  <property name="meta.media.0.stream.type">video</property>
  <property name="meta.media.0.stream.frame_rate">23.976</property>
  <property name="meta.media.0.stream.sample_aspect_ratio">0</property>
  <property name="meta.media.0.codec.width">1280</property>
  <property name="meta.media.0.codec.height">720</property>
  <property name="meta.media.0.codec.rotate">0</property>
  <property name="meta.media.0.codec.pix_fmt">yuv420p</property>
  <property name="meta.media.0.codec.sample_aspect_ratio">1</property>
  <property name="meta.media.0.codec.colorspace">709</property>
  <property name="meta.media.0.codec.color_trc">1</property>
  <property name="meta.media.0.codec.name">h264</property>
  <property name="meta.media.0.codec.long_name">H.264 / AVC / MPEG-4 AVC / MPEG-4 part 10</property>
  <property name="meta.media.0.codec.bit_rate">0</property>
  <property name="meta.attr.0.stream.DURATION.markup">00:00:27.570000000</property>
  <property name="meta.media.1.stream.type">audio</property>
  <property name="meta.media.1.codec.sample_fmt">fltp</property>
  <property name="meta.media.1.codec.sample_rate">48000</property>
  <property name="meta.media.1.codec.channels">2</property>
  <property name="meta.media.1.codec.name">aac</property>
  <property name="meta.media.1.codec.long_name">AAC (Advanced Audio Coding)</property>
  <property name="meta.media.1.codec.bit_rate">0</property>
  <property name="meta.attr.1.stream.title.markup">simple_aac_recording</property>
  <property name="meta.attr.1.stream.DURATION.markup">00:00:27.370000000</property>
  <property name="meta.attr.ENCODER.markup">Lavf58.76.100</property>
  <property name="seekable">1</property>
  <property name="meta.media.sample_aspect_num">1</property>
  <property name="meta.media.sample_aspect_den">1</property>
  <property name="audio_index">-1</property>
  <property name="video_index">0</property>
  <property name="mute_on_pause">1</property>
  <property name="warp_speed">0.75</property>
  <property name="warp_resource">video/2023-05-02 09-58-33.mkv</property>
  <property name="mlt_service">timewarp</property>
  <property name="set.test_audio">1</property>
  <property name="set.test_image">0</property>
  <property name="kdenlive:id">3</property>
  <property name="warp_pitch">0</property>
  <property name="meta.media.frame_rate_num">24000</property>
  <property name="meta.media.frame_rate_den">1001</property>
  <property name="meta.media.colorspace">709</property>
  <property name="meta.media.color_trc">1</property>
  <property name="meta.media.has_b_frames">2</property>
  <property name="meta.media.width">1280</property>
  <property name="meta.media.height">720</property>
  <property name="meta.media.color_range">mpeg</property>
  <property name="meta.media.top_field_first">0</property>
  <property name="meta.media.progressive">1</property>
 </producer>
 <playlist id="playlist10">
  <blank length="00:00:00.918"/>
  <entry producer="producer35" in="00:00:55.347" out="00:00:56.848">
   <property name="kdenlive:id">9</property>
  </entry>
  <blank length="00:00:03.503"/>
  <entry producer="producer36" in="00:01:03.003" out="00:01:08.592">
   <property name="kdenlive:id">2</property>
   <filter id="filter32">
    <property name="rotate_center">1</property>
    <property name="mlt_service">qtblend</property>
    <property name="kdenlive_id">qtblend</property>
    <property name="rect">00:01:03.003=634 356 12 7 1.000000;00:01:03.378=0 0 1280 720 1.000000;00:01:08.592=-160 -81 1600 900 1.000000</property>
    <property name="rotation">00:01:03.003=0;00:01:03.378=0;00:01:08.592=0</property>
    <property name="compositing">0</property>
    <property name="distort">0</property>
    <property name="kdenlive:collapsed">0</property>
   </filter>
  </entry>
  <blank length="00:00:01.084"/>
  <entry producer="producer7" in="00:00:00.000" out="00:00:01.251">
   <property name="kdenlive:id">13</property>
   <filter id="filter33" out="00:00:00.125">
    <property name="start">1</property>
    <property name="level">1</property>
    <property name="mlt_service">brightness</property>
    <property name="kdenlive_id">fade_from_black</property>
    <property name="alpha">00:00:00.000=0;00:00:00.125=1</property>
    <property name="kdenlive:collapsed">0</property>
   </filter>
   <filter id="filter34" in="00:00:00.918" out="00:00:01.251">
    <property name="start">1</property>
    <property name="level">1</property>
    <property name="mlt_service">brightness</property>
    <property name="kdenlive_id">fade_to_black</property>
    <property name="alpha">00:00:00.000=1;00:00:00.334=0</property>
   </filter>
  </entry>
  <blank length="00:00:03.337"/>
  <entry producer="producer37" in="00:00:35.619" out="00:00:37.746">
   <property name="kdenlive:id">7</property>
  </entry>
  <entry producer="producer38" in="00:00:41.625" out="00:00:44.753">
   <property name="kdenlive:id">7</property>
  </entry>
  <blank length="00:01:15.349"/>
  <entry producer="producer39" in="00:01:27.152" out="00:01:30.822">
   <property name="kdenlive:id">8</property>
  </entry>
  <blank length="00:00:35.202"/>
  <entry producer="producer13" in="00:00:00.000" out="00:00:01.668">
   <property name="kdenlive:id">16</property>
   <filter id="filter35">
    <property name="rotate_center">1</property>
    <property name="mlt_service">qtblend</property>
    <property name="kdenlive_id">qtblend</property>
    <property name="rect">00:00:00.000=-89 -95 1461 821 1.000000;00:00:01.668=-186 -104 1656 931 1.000000</property>
    <property name="rotation">00:00:00.000=0;00:00:01.668=0</property>
    <property name="compositing">0</property>
    <property name="distort">0</property>
    <property name="kdenlive:collapsed">0</property>
   </filter>
  </entry>
  <blank length="00:00:01.168"/>
  <entry producer="producer36" in="00:13:40.207" out="00:13:54.888">
   <property name="kdenlive:id">2</property>
  </entry>
  <blank length="00:00:12.763"/>
  <entry producer="producer40" in="00:00:00.000" out="00:00:10.010">
   <property name="kdenlive:id">21</property>
   <filter id="filter36">
    <property name="mlt_service">avfilter.gblur</property>
    <property name="kdenlive_id">avfilter.gblur</property>
    <property name="av.sigma">3</property>
    <property name="av.steps">1</property>
    <property name="av.planes">7</property>
    <property name="av.sigmaV">-1</property>
    <property name="kdenlive:collapsed">1</property>
   </filter>
   <filter id="filter37">
    <property name="version">0.3</property>
    <property name="mlt_service">frei0r.saturat0r</property>
    <property name="kdenlive_id">frei0r.saturat0r</property>
    <property name="Saturation">00:00:00.000=0.176</property>
    <property name="kdenlive:collapsed">1</property>
   </filter>
   <filter id="filter38">
    <property name="start">1</property>
    <property name="level">00:00:00.000=0.6</property>
    <property name="mlt_service">brightness</property>
    <property name="kdenlive_id">brightness</property>
    <property name="kdenlive:collapsed">1</property>
   </filter>
  </entry>
  <entry producer="producer40" in="00:00:00.000" out="00:00:08.926">
   <property name="kdenlive:id">21</property>
   <filter id="filter39" in="00:00:08.592" out="00:00:08.926">
    <property name="start">1</property>
    <property name="level">1</property>
    <property name="mlt_service">brightness</property>
    <property name="kdenlive_id">fade_to_black</property>
    <property name="alpha">00:00:00.000=1;00:00:00.334=0</property>
    <property name="kdenlive:collapsed">1</property>
   </filter>
   <filter id="filter40">
    <property name="mlt_service">avfilter.gblur</property>
    <property name="kdenlive_id">avfilter.gblur</property>
    <property name="av.sigma">3</property>
    <property name="av.steps">1</property>
    <property name="av.planes">7</property>
    <property name="av.sigmaV">-1</property>
    <property name="kdenlive:collapsed">1</property>
   </filter>
   <filter id="filter41">
    <property name="version">0.3</property>
    <property name="mlt_service">frei0r.saturat0r</property>
    <property name="kdenlive_id">frei0r.saturat0r</property>
    <property name="Saturation">00:00:00.000=0.176</property>
    <property name="kdenlive:collapsed">1</property>
   </filter>
   <filter id="filter42">
    <property name="start">1</property>
    <property name="level">00:00:00.000=0.6</property>
    <property name="mlt_service">brightness</property>
    <property name="kdenlive_id">brightness</property>
    <property name="kdenlive:collapsed">1</property>
   </filter>
  </entry>
  <blank length="00:02:40.791"/>
  <entry producer="producer41" in="00:01:24.399" out="00:01:31.240">
   <property name="kdenlive:id">26</property>
  </entry>
  <blank length="00:00:45.379"/>
  <entry producer="producer20" in="00:00:00.000" out="00:00:01.835">
   <property name="kdenlive:id">28</property>
  </entry>
  <blank length="00:00:03.045"/>
  <entry producer="producer19" in="00:00:00.000" out="00:00:03.795">
   <property name="kdenlive:id">27</property>
   <filter id="filter43">
    <property name="rotate_center">1</property>
    <property name="mlt_service">qtblend</property>
    <property name="kdenlive_id">qtblend</property>
    <property name="rect">00:00:00.000=-2114 -551 4784 2691 1.000000;00:00:03.795=-2114 -961 4784 2691 1.000000</property>
    <property name="rotation">00:00:00.000=0;00:00:03.795=0</property>
    <property name="compositing">0</property>
    <property name="distort">0</property>
    <property name="kdenlive:collapsed">0</property>
   </filter>
  </entry>
  <blank length="00:00:05.923"/>
  <entry producer="producer42" in="00:01:38.914" out="00:01:42.251">
   <property name="kdenlive:id">7</property>
  </entry>
  <blank length="00:00:13.388"/>
  <entry producer="producer21" in="00:00:00.000" out="00:00:02.461">
   <property name="kdenlive:id">29</property>
   <filter id="filter44">
    <property name="rotate_center">1</property>
    <property name="mlt_service">qtblend</property>
    <property name="kdenlive_id">qtblend</property>
    <property name="rect">00:00:00.000=-219 -123 1722 969 1.000000</property>
    <property name="rotation">00:00:00.000=0</property>
    <property name="compositing">0</property>
    <property name="distort">0</property>
    <property name="kdenlive:collapsed">0</property>
   </filter>
  </entry>
  <blank length="00:00:29.738"/>
  <entry producer="producer43" in="00:00:17.893" out="00:00:21.313">
   <property name="kdenlive:id">3</property>
  </entry>
  <entry producer="producer44" in="00:00:29.321" out="00:00:34.034">
   <property name="kdenlive:id">3</property>
  </entry>
  <blank length="00:00:16.225"/>
  <entry producer="producer36" in="00:45:00.459" out="00:45:19.269">
   <property name="kdenlive:id">2</property>
   <filter id="filter45" in="00:45:18.310" out="00:45:19.269">
    <property name="start">1</property>
    <property name="level">1</property>
    <property name="mlt_service">brightness</property>
    <property name="kdenlive_id">fade_to_black</property>
    <property name="alpha">00:00:00.000=1;00:00:00.959=0</property>
    <property name="kdenlive:collapsed">0</property>
   </filter>
  </entry>
 </playlist>
 <playlist id="playlist11"/>
 <tractor id="tractor5" in="00:00:00.000" out="00:08:26.276">
  <property name="kdenlive:trackheight">67</property>
  <property name="kdenlive:timeline_active">1</property>
  <property name="kdenlive:collapsed">0</property>
  <property name="kdenlive:thumbs_format"/>
  <property name="kdenlive:audio_rec"/>
  <track hide="audio" producer="playlist10"/>
  <track hide="audio" producer="playlist11"/>
 </tractor>
 <producer id="producer45" in="00:00:00.000" out="00:00:36.703">
  <property name="length">881</property>
  <property name="eof">pause</property>
  <property name="resource">0.750000:video/2023-05-02 09-58-33.mkv</property>
  <property name="aspect_ratio">1</property>
  <property name="meta.media.nb_streams">2</property>
  <property name="meta.media.0.stream.type">video</property>
  <property name="meta.media.0.stream.frame_rate">23.976</property>
  <property name="meta.media.0.stream.sample_aspect_ratio">0</property>
  <property name="meta.media.0.codec.width">1280</property>
  <property name="meta.media.0.codec.height">720</property>
  <property name="meta.media.0.codec.rotate">0</property>
  <property name="meta.media.0.codec.pix_fmt">yuv420p</property>
  <property name="meta.media.0.codec.sample_aspect_ratio">1</property>
  <property name="meta.media.0.codec.colorspace">709</property>
  <property name="meta.media.0.codec.color_trc">1</property>
  <property name="meta.media.0.codec.name">h264</property>
  <property name="meta.media.0.codec.long_name">H.264 / AVC / MPEG-4 AVC / MPEG-4 part 10</property>
  <property name="meta.media.0.codec.bit_rate">0</property>
  <property name="meta.attr.0.stream.DURATION.markup">00:00:27.570000000</property>
  <property name="meta.media.1.stream.type">audio</property>
  <property name="meta.media.1.codec.sample_fmt">fltp</property>
  <property name="meta.media.1.codec.sample_rate">48000</property>
  <property name="meta.media.1.codec.channels">2</property>
  <property name="meta.media.1.codec.name">aac</property>
  <property name="meta.media.1.codec.long_name">AAC (Advanced Audio Coding)</property>
  <property name="meta.media.1.codec.bit_rate">0</property>
  <property name="meta.attr.1.stream.title.markup">simple_aac_recording</property>
  <property name="meta.attr.1.stream.DURATION.markup">00:00:27.370000000</property>
  <property name="meta.attr.ENCODER.markup">Lavf58.76.100</property>
  <property name="seekable">1</property>
  <property name="meta.media.sample_aspect_num">1</property>
  <property name="meta.media.sample_aspect_den">1</property>
  <property name="audio_index">-1</property>
  <property name="video_index">0</property>
  <property name="mute_on_pause">1</property>
  <property name="warp_speed">0.75</property>
  <property name="warp_resource">video/2023-05-02 09-58-33.mkv</property>
  <property name="mlt_service">timewarp</property>
  <property name="set.test_audio">1</property>
  <property name="set.test_image">0</property>
  <property name="kdenlive:id">3</property>
  <property name="warp_pitch">0</property>
  <property name="meta.media.frame_rate_num">24000</property>
  <property name="meta.media.frame_rate_den">1001</property>
  <property name="meta.media.colorspace">709</property>
  <property name="meta.media.color_trc">1</property>
  <property name="meta.media.has_b_frames">2</property>
  <property name="meta.media.width">1280</property>
  <property name="meta.media.height">720</property>
  <property name="meta.media.color_range">mpeg</property>
  <property name="meta.media.top_field_first">0</property>
  <property name="meta.media.progressive">1</property>
 </producer>
 <playlist id="playlist12">
  <blank length="00:02:18.477"/>
  <entry producer="producer12" in="00:00:00.000" out="00:00:01.376">
   <property name="kdenlive:id">20</property>
   <filter id="filter46">
    <property name="rotate_center">1</property>
    <property name="mlt_service">qtblend</property>
    <property name="kdenlive_id">qtblend</property>
    <property name="rect">00:00:00.000=-120 -117 1523 857 1.000000;00:00:01.376=-151 -79 1585 892 1.000000</property>
    <property name="rotation">00:00:00.000=0;00:00:01.376=0</property>
    <property name="compositing">0</property>
    <property name="distort">0</property>
    <property name="kdenlive:collapsed">0</property>
   </filter>
  </entry>
  <blank length="00:00:27.361"/>
  <entry producer="producer15" in="00:00:00.000" out="00:00:18.977">
   <property name="kdenlive:id">22</property>
   <filter id="filter47">
    <property name="rotate_center">1</property>
    <property name="mlt_service">qtblend</property>
    <property name="kdenlive_id">qtblend</property>
    <property name="rect">00:00:00.000=0 149 1280 720 1.000000;00:00:00.250=0 -9 1280 720 1.000000;00:00:00.334=0 0 1280 720 1.000000</property>
    <property name="rotation">00:00:00.000=0;00:00:00.250=0;00:00:00.334=0</property>
    <property name="compositing">0</property>
    <property name="distort">0</property>
    <property name="kdenlive:collapsed">0</property>
   </filter>
   <filter id="filter48" in="00:00:18.644" out="00:00:18.977">
    <property name="start">1</property>
    <property name="level">1</property>
    <property name="mlt_service">brightness</property>
    <property name="kdenlive_id">fade_to_black</property>
    <property name="alpha">00:00:00.000=1;00:00:00.334=0</property>
   </filter>
  </entry>
  <blank length="00:04:39.998"/>
  <entry producer="producer45" in="00:00:29.112" out="00:00:29.279">
   <property name="kdenlive:id">3</property>
  </entry>
 </playlist>
 <playlist id="playlist13"/>
 <tractor id="tractor6" in="00:00:00.000" out="00:07:46.463">
  <property name="kdenlive:trackheight">67</property>
  <property name="kdenlive:timeline_active">1</property>
  <property name="kdenlive:collapsed">0</property>
  <property name="kdenlive:thumbs_format"/>
  <property name="kdenlive:audio_rec"/>
  <track hide="audio" producer="playlist12"/>
  <track hide="audio" producer="playlist13"/>
 </tractor>
 <playlist id="playlist14">
  <blank length="00:02:47.256"/>
  <entry producer="producer16" in="00:00:00.000" out="00:00:18.977">
   <property name="kdenlive:id">24</property>
   <filter id="filter49">
    <property name="rotate_center">1</property>
    <property name="mlt_service">qtblend</property>
    <property name="kdenlive_id">qtblend</property>
    <property name="rect">00:00:00.000=-826 0 1280 720 1.000000;00:00:00.250=16 0 1280 720 1.000000;00:00:00.334=0 0 1280 720 1.000000</property>
    <property name="rotation">00:00:00.000=0;00:00:00.250=0;00:00:00.334=0</property>
    <property name="compositing">0</property>
    <property name="distort">0</property>
    <property name="kdenlive:collapsed">0</property>
   </filter>
   <filter id="filter50" in="00:00:18.644" out="00:00:18.977">
    <property name="start">1</property>
    <property name="level">1</property>
    <property name="mlt_service">brightness</property>
    <property name="kdenlive_id">fade_to_black</property>
    <property name="alpha">00:00:00.000=1;00:00:00.334=0</property>
   </filter>
  </entry>
 </playlist>
 <playlist id="playlist15"/>
 <tractor id="tractor7" in="00:00:00.000" out="00:03:06.256">
  <property name="kdenlive:trackheight">67</property>
  <property name="kdenlive:timeline_active">1</property>
  <property name="kdenlive:collapsed">0</property>
  <property name="kdenlive:thumbs_format"/>
  <property name="kdenlive:audio_rec"/>
  <track hide="audio" producer="playlist14"/>
  <track hide="audio" producer="playlist15"/>
 </tractor>
 <playlist id="playlist16">
  <blank length="00:02:47.256"/>
  <entry producer="producer17" in="00:00:00.000" out="00:00:18.977">
   <property name="kdenlive:id">25</property>
   <filter id="filter51">
    <property name="rotate_center">1</property>
    <property name="mlt_service">qtblend</property>
    <property name="kdenlive_id">qtblend</property>
    <property name="rect">00:00:00.000=424 0 1280 720 1.000000;00:00:00.250=-19 0 1280 720 1.000000;00:00:00.334=0 0 1280 720 1.000000</property>
    <property name="rotation">00:00:00.000=0;00:00:00.250=0;00:00:00.334=0</property>
    <property name="compositing">0</property>
    <property name="distort">0</property>
    <property name="kdenlive:collapsed">0</property>
   </filter>
   <filter id="filter52" in="00:00:18.644" out="00:00:18.977">
    <property name="start">1</property>
    <property name="level">1</property>
    <property name="mlt_service">brightness</property>
    <property name="kdenlive_id">fade_to_black</property>
    <property name="alpha">00:00:00.000=1;00:00:00.334=0</property>
   </filter>
  </entry>
 </playlist>
 <playlist id="playlist17"/>
 <tractor id="tractor8" in="00:00:00.000" out="00:03:06.256">
  <property name="kdenlive:trackheight">67</property>
  <property name="kdenlive:timeline_active">1</property>
  <property name="kdenlive:collapsed">0</property>
  <property name="kdenlive:thumbs_format"/>
  <property name="kdenlive:audio_rec"/>
  <track hide="audio" producer="playlist16"/>
  <track hide="audio" producer="playlist17"/>
 </tractor>
 <playlist id="playlist18">
  <entry producer="producer24" in="00:00:00.000" out="00:08:38.580">
   <property name="kdenlive:id">32</property>
  </entry>
 </playlist>
 <playlist id="playlist19"/>
 <tractor id="tractor9" in="00:00:00.000" out="00:08:38.580">
  <property name="kdenlive:trackheight">67</property>
  <property name="kdenlive:timeline_active">1</property>
  <track producer="playlist18"/>
  <track producer="playlist19"/>
 </tractor>
 <tractor id="tractor10" in="00:00:00.000" out="00:29:29.863">
  <track producer="black_track"/>
  <track producer="tractor0"/>
  <track producer="tractor1"/>
  <track producer="tractor2"/>
  <track producer="tractor3"/>
  <track producer="tractor4"/>
  <track producer="tractor5"/>
  <track producer="tractor6"/>
  <track producer="tractor7"/>
  <track producer="tractor8"/>
  <track producer="tractor9"/>
  <transition id="transition0">
   <property name="a_track">0</property>
   <property name="b_track">1</property>
   <property name="mlt_service">mix</property>
   <property name="kdenlive_id">mix</property>
   <property name="internal_added">237</property>
   <property name="always_active">1</property>
   <property name="accepts_blanks">1</property>
   <property name="sum">1</property>
  </transition>
  <transition id="transition1">
   <property name="a_track">0</property>
   <property name="b_track">2</property>
   <property name="mlt_service">mix</property>
   <property name="kdenlive_id">mix</property>
   <property name="internal_added">237</property>
   <property name="always_active">1</property>
   <property name="accepts_blanks">1</property>
   <property name="sum">1</property>
  </transition>
  <transition id="transition2">
   <property name="a_track">0</property>
   <property name="b_track">3</property>
   <property name="mlt_service">mix</property>
   <property name="kdenlive_id">mix</property>
   <property name="internal_added">237</property>
   <property name="always_active">1</property>
   <property name="accepts_blanks">1</property>
   <property name="sum">1</property>
  </transition>
  <transition id="transition3">
   <property name="a_track">0</property>
   <property name="b_track">4</property>
   <property name="mlt_service">mix</property>
   <property name="kdenlive_id">mix</property>
   <property name="internal_added">237</property>
   <property name="always_active">1</property>
   <property name="accepts_blanks">1</property>
   <property name="sum">1</property>
  </transition>
  <transition id="transition4" in="00:07:46.296" out="00:07:46.463">
   <property name="a_track">6</property>
   <property name="b_track">7</property>
   <property name="geometry">00:00:00.000=0% 0% 100% 100% 0%;00:00:00.167=0% 0% 100% 100% 100%</property>
   <property name="factory">loader</property>
   <property name="aligned">0</property>
   <property name="progressive">1</property>
   <property name="mlt_service">composite</property>
   <property name="kdenlive_id">wipe</property>
   <property name="luma"/>
   <property name="softness">0</property>
   <property name="luma_invert">0</property>
   <property name="fill">1</property>
  </transition>
  <transition id="transition5" in="00:02:18.477" out="00:02:18.560">
   <property name="a_track">6</property>
   <property name="b_track">7</property>
   <property name="geometry">0=0% 0% 100% 100% 0%;-1=0% 0% 100% 100% 100%</property>
   <property name="factory">loader</property>
   <property name="aligned">0</property>
   <property name="progressive">1</property>
   <property name="mlt_service">composite</property>
   <property name="kdenlive_id">wipe</property>
   <property name="luma"/>
   <property name="softness">0</property>
   <property name="luma_invert">0</property>
   <property name="fill">1</property>
  </transition>
  <transition id="transition6" in="00:02:19.770" out="00:02:19.853">
   <property name="a_track">6</property>
   <property name="b_track">7</property>
   <property name="geometry">0=0% 0% 100% 100% 100%;-1=0% 0% 100% 100% 0%</property>
   <property name="factory">loader</property>
   <property name="aligned">0</property>
   <property name="progressive">1</property>
   <property name="mlt_service">composite</property>
   <property name="kdenlive_id">wipe</property>
   <property name="luma"/>
   <property name="softness">0</property>
   <property name="luma_invert">0</property>
   <property name="fill">1</property>
  </transition>
  <transition id="transition7" in="00:00:00.918" out="00:00:01.126">
   <property name="a_track">5</property>
   <property name="b_track">6</property>
   <property name="geometry">0=0% 0% 100% 100% 0%;-1=0% 0% 100% 100% 100%</property>
   <property name="factory">loader</property>
   <property name="aligned">0</property>
   <property name="progressive">1</property>
   <property name="mlt_service">composite</property>
   <property name="kdenlive_id">wipe</property>
   <property name="luma"/>
   <property name="softness">0</property>
   <property name="luma_invert">0</property>
   <property name="fill">1</property>
  </transition>
  <transition id="transition8" in="00:00:17.309" out="00:00:17.809">
   <property name="a_track">5</property>
   <property name="b_track">6</property>
   <property name="geometry">0=0% 0% 100% 100% 0%;-1=0% 0% 100% 100% 100%</property>
   <property name="factory">loader</property>
   <property name="aligned">0</property>
   <property name="progressive">1</property>
   <property name="mlt_service">composite</property>
   <property name="kdenlive_id">wipe</property>
   <property name="luma"/>
   <property name="softness">0</property>
   <property name="luma_invert">0</property>
   <property name="fill">1</property>
  </transition>
  <transition id="transition9" in="00:07:51.009" out="00:07:51.218">
   <property name="a_track">5</property>
   <property name="b_track">6</property>
   <property name="geometry">00:00:00.000=0% 0% 100% 100% 100%;00:00:00.209=0% 0% 100% 100% 0%</property>
   <property name="factory">loader</property>
   <property name="aligned">0</property>
   <property name="progressive">1</property>
   <property name="mlt_service">composite</property>
   <property name="kdenlive_id">wipe</property>
   <property name="luma"/>
   <property name="softness">0</property>
   <property name="luma_invert">0</property>
   <property name="fill">1</property>
  </transition>
  <transition id="transition10" in="00:00:02.211" out="00:00:02.419">
   <property name="a_track">5</property>
   <property name="b_track">6</property>
   <property name="geometry">0=0% 0% 100% 100% 100%;-1=0% 0% 100% 100% 0%</property>
   <property name="factory">loader</property>
   <property name="aligned">0</property>
   <property name="progressive">1</property>
   <property name="mlt_service">composite</property>
   <property name="kdenlive_id">wipe</property>
   <property name="luma"/>
   <property name="softness">0</property>
   <property name="luma_invert">0</property>
   <property name="fill">1</property>
  </transition>
  <transition id="transition11" in="00:05:47.089" out="00:05:47.589">
   <property name="a_track">5</property>
   <property name="b_track">6</property>
   <property name="geometry">0=0% 0% 100% 100% 0%;-1=0% 0% 100% 100% 100%</property>
   <property name="factory">loader</property>
   <property name="aligned">0</property>
   <property name="progressive">1</property>
   <property name="mlt_service">composite</property>
   <property name="kdenlive_id">wipe</property>
   <property name="luma"/>
   <property name="softness">0</property>
   <property name="luma_invert">0</property>
   <property name="fill">1</property>
  </transition>
  <transition id="transition12" in="00:01:41.375" out="00:01:41.667">
   <property name="a_track">5</property>
   <property name="b_track">6</property>
   <property name="geometry">0=0% 0% 100% 100% 100%;-1=0% 0% 100% 100% 0%</property>
   <property name="factory">loader</property>
   <property name="aligned">0</property>
   <property name="progressive">1</property>
   <property name="mlt_service">composite</property>
   <property name="kdenlive_id">wipe</property>
   <property name="luma"/>
   <property name="softness">0</property>
   <property name="luma_invert">0</property>
   <property name="fill">1</property>
  </transition>
  <transition id="transition13" in="00:02:47.256" out="00:02:47.547">
   <property name="a_track">5</property>
   <property name="b_track">6</property>
   <property name="geometry">0=0% 0% 100% 100% 0%;-1=0% 0% 100% 100% 100%</property>
   <property name="factory">loader</property>
   <property name="aligned">0</property>
   <property name="progressive">1</property>
   <property name="mlt_service">composite</property>
   <property name="kdenlive_id">wipe</property>
   <property name="luma"/>
   <property name="softness">0</property>
   <property name="luma_invert">0</property>
   <property name="fill">1</property>
  </transition>
  <transition id="transition14" in="00:05:53.387" out="00:05:53.929">
   <property name="a_track">5</property>
   <property name="b_track">6</property>
   <property name="geometry">0=0% 0% 100% 100% 100%;-1=0% 0% 100% 100% 0%</property>
   <property name="factory">loader</property>
   <property name="aligned">0</property>
   <property name="progressive">1</property>
   <property name="mlt_service">composite</property>
   <property name="kdenlive_id">wipe</property>
   <property name="luma"/>
   <property name="softness">0</property>
   <property name="luma_invert">0</property>
   <property name="fill">1</property>
  </transition>
  <transition id="transition15" in="00:06:54.012" out="00:06:54.137">
   <property name="a_track">5</property>
   <property name="b_track">6</property>
   <property name="geometry">0=0% 0% 100% 100% 0%;-1=0% 0% 100% 100% 100%</property>
   <property name="factory">loader</property>
   <property name="aligned">0</property>
   <property name="progressive">1</property>
   <property name="mlt_service">composite</property>
   <property name="kdenlive_id">wipe</property>
   <property name="luma"/>
   <property name="softness">0</property>
   <property name="luma_invert">0</property>
   <property name="fill">1</property>
  </transition>
  <transition id="transition16" in="00:06:57.099" out="00:06:57.349">
   <property name="a_track">5</property>
   <property name="b_track">6</property>
   <property name="geometry">0=0% 0% 100% 100% 100%;-1=0% 0% 100% 100% 0%</property>
   <property name="factory">loader</property>
   <property name="aligned">0</property>
   <property name="progressive">1</property>
   <property name="mlt_service">composite</property>
   <property name="kdenlive_id">wipe</property>
   <property name="luma"/>
   <property name="softness">0</property>
   <property name="luma_invert">0</property>
   <property name="fill">1</property>
  </transition>
  <transition id="transition17" in="00:07:43.043" out="00:07:43.418">
   <property name="a_track">5</property>
   <property name="b_track">6</property>
   <property name="geometry">00:00:00.000=0% 0% 100% 100% 0%;00:00:00.375=0% 0% 100% 100% 100%</property>
   <property name="factory">loader</property>
   <property name="aligned">0</property>
   <property name="progressive">1</property>
   <property name="mlt_service">composite</property>
   <property name="kdenlive_id">wipe</property>
   <property name="luma"/>
   <property name="softness">0</property>
   <property name="luma_invert">0</property>
   <property name="fill">1</property>
  </transition>
  <transition id="transition18">
   <property name="a_track">0</property>
   <property name="b_track">5</property>
   <property name="version">0.9</property>
   <property name="mlt_service">frei0r.cairoblend</property>
   <property name="kdenlive_id">frei0r.cairoblend</property>
   <property name="internal_added">237</property>
   <property name="always_active">1</property>
  </transition>
  <transition id="transition19">
   <property name="a_track">0</property>
   <property name="b_track">6</property>
   <property name="version">0.9</property>
   <property name="mlt_service">frei0r.cairoblend</property>
   <property name="kdenlive_id">frei0r.cairoblend</property>
   <property name="internal_added">237</property>
   <property name="always_active">1</property>
  </transition>
  <transition id="transition20">
   <property name="a_track">0</property>
   <property name="b_track">7</property>
   <property name="version">0.9</property>
   <property name="mlt_service">frei0r.cairoblend</property>
   <property name="kdenlive_id">frei0r.cairoblend</property>
   <property name="internal_added">237</property>
   <property name="always_active">1</property>
  </transition>
  <transition id="transition21">
   <property name="a_track">0</property>
   <property name="b_track">8</property>
   <property name="version">0.9</property>
   <property name="mlt_service">frei0r.cairoblend</property>
   <property name="kdenlive_id">frei0r.cairoblend</property>
   <property name="internal_added">237</property>
   <property name="always_active">1</property>
  </transition>
  <transition id="transition22">
   <property name="a_track">0</property>
   <property name="b_track">9</property>
   <property name="version">0.9</property>
   <property name="mlt_service">frei0r.cairoblend</property>
   <property name="kdenlive_id">frei0r.cairoblend</property>
   <property name="internal_added">237</property>
   <property name="always_active">1</property>
  </transition>
  <transition id="transition23">
   <property name="a_track">0</property>
   <property name="b_track">10</property>
   <property name="version">0.9</property>
   <property name="mlt_service">frei0r.cairoblend</property>
   <property name="kdenlive_id">frei0r.cairoblend</property>
   <property name="internal_added">237</property>
   <property name="always_active">1</property>
  </transition>
  <filter id="filter53">
   <property name="window">75</property>
   <property name="max_gain">20dB</property>
   <property name="mlt_service">volume</property>
   <property name="internal_added">237</property>
   <property name="disable">1</property>
  </filter>
  <filter id="filter54">
   <property name="channel">-1</property>
   <property name="mlt_service">panner</property>
   <property name="internal_added">237</property>
   <property name="start">0.5</property>
   <property name="disable">1</property>
  </filter>
 </tractor>
</mlt>
