<?xml version='1.0' encoding='utf-8'?>
<mlt LC_NUMERIC="C" producer="main_bin" version="7.8.0" root="/home/liquidzulu/Documents/youtube-scripts/courses/libertarian-ethics/videos">
 <profile frame_rate_num="25" sample_aspect_num="1" display_aspect_den="9" colorspace="709" progressive="1" description="HD 1080p 25 fps" display_aspect_num="16" frame_rate_den="1" width="1920" height="1080" sample_aspect_den="1"/>
 <producer id="producer1" in="00:00:00.000" out="00:00:27.040">
  <property name="length">677</property>
  <property name="eof">pause</property>
  <property name="resource">/home/liquidzulu/Documents/youtube-scripts/courses/libertarian-ethics/audio/proc/Audio/titles.proc.mp3</property>
  <property name="meta.media.nb_streams">1</property>
  <property name="meta.media.0.stream.type">audio</property>
  <property name="meta.media.0.codec.sample_fmt">fltp</property>
  <property name="meta.media.0.codec.sample_rate">44100</property>
  <property name="meta.media.0.codec.channels">2</property>
  <property name="meta.media.0.codec.name">mp3float</property>
  <property name="meta.media.0.codec.long_name">MP3 (MPEG audio layer 3)</property>
  <property name="meta.media.0.codec.bit_rate">192000</property>
  <property name="meta.attr.encoded_by.markup">LAME in FL Studio 21</property>
  <property name="meta.attr.date.markup">2023</property>
  <property name="seekable">1</property>
  <property name="audio_index">0</property>
  <property name="video_index">-1</property>
  <property name="mute_on_pause">1</property>
  <property name="mlt_service">avformat</property>
  <property name="kdenlive:clipname"/>
  <property name="kdenlive:clip_type">1</property>
  <property name="kdenlive:folderid">-1</property>
  <property name="kdenlive:id">2</property>
  <property name="kdenlive:file_size">650191</property>
  <property name="kdenlive:file_hash">92444ccf553bde8b33231fe6f867b916</property>
  <property name="kdenlive:audio_max0">177</property>
 </producer>
 <producer id="producer50" in="00:00:00.000" out="00:01:32.200">
  <property name="length">2306</property>
  <property name="eof">pause</property>
  <property name="resource">/home/liquidzulu/Music/The Mini Vandals/In Memory of Jean Talon - The Mini Vandals.mp3</property>
  <property name="meta.media.nb_streams">1</property>
  <property name="meta.media.0.stream.type">audio</property>
  <property name="meta.media.0.codec.sample_fmt">fltp</property>
  <property name="meta.media.0.codec.sample_rate">44100</property>
  <property name="meta.media.0.codec.channels">2</property>
  <property name="meta.media.0.codec.name">mp3float</property>
  <property name="meta.media.0.codec.long_name">MP3 (MPEG audio layer 3)</property>
  <property name="meta.media.0.codec.bit_rate">320000</property>
  <property name="meta.attr.0.stream.encoder.markup">Lavf</property>
  <property name="meta.attr.encoder.markup">Google</property>
  <property name="seekable">1</property>
  <property name="audio_index">0</property>
  <property name="video_index">-1</property>
  <property name="mute_on_pause">1</property>
  <property name="mlt_service">avformat</property>
  <property name="kdenlive:clipname"/>
  <property name="kdenlive:clip_type">1</property>
  <property name="kdenlive:folderid">-1</property>
  <property name="kdenlive:id">3</property>
  <property name="kdenlive:file_size">3690616</property>
  <property name="kdenlive:file_hash">df84791d461281a3def6977dac75974d</property>
  <property name="kdenlive:audio_max0">201</property>
 </producer>
 <producer id="producer51" in="00:00:00.000" out="00:00:12.640">
  <property name="length">317</property>
  <property name="eof">pause</property>
  <property name="resource">/home/liquidzulu/Documents/youtube-scripts/courses/libertarian-ethics/images/intro-slide.png</property>
  <property name="ttl">25</property>
  <property name="aspect_ratio">1</property>
  <property name="progressive">1</property>
  <property name="seekable">1</property>
  <property name="meta.media.width">1920</property>
  <property name="meta.media.height">1080</property>
  <property name="mlt_service">qimage</property>
  <property name="kdenlive:clipname"/>
  <property name="kdenlive:duration">00:00:05.000</property>
  <property name="kdenlive:folderid">-1</property>
  <property name="kdenlive:clip_type">2</property>
  <property name="kdenlive:id">4</property>
  <property name="kdenlive:file_size">898414</property>
  <property name="kdenlive:file_hash">b67c491adeef8fae7526f19fce86aa10</property>
 </producer>
 <producer id="producer0" in="00:00:00.000" out="00:18:26.520">
  <property name="length">27664</property>
  <property name="eof">pause</property>
  <property name="resource">/home/liquidzulu/Documents/youtube-scripts/courses/libertarian-ethics/audio/proc/Audio/defensive-force-and-proportionality.proc.mp3</property>
  <property name="meta.media.nb_streams">1</property>
  <property name="meta.media.0.stream.type">audio</property>
  <property name="meta.media.0.codec.sample_fmt">fltp</property>
  <property name="meta.media.0.codec.sample_rate">44100</property>
  <property name="meta.media.0.codec.channels">2</property>
  <property name="meta.media.0.codec.name">mp3float</property>
  <property name="meta.media.0.codec.long_name">MP3 (MPEG audio layer 3)</property>
  <property name="meta.media.0.codec.bit_rate">192000</property>
  <property name="meta.attr.encoded_by.markup">LAME in FL Studio 21</property>
  <property name="meta.attr.date.markup">2023</property>
  <property name="seekable">1</property>
  <property name="audio_index">0</property>
  <property name="video_index">-1</property>
  <property name="mute_on_pause">1</property>
  <property name="mlt_service">avformat</property>
  <property name="kdenlive:clipname"/>
  <property name="kdenlive:clip_type">1</property>
  <property name="kdenlive:folderid">-1</property>
  <property name="kdenlive:id">5</property>
  <property name="kdenlive:file_size">26557809</property>
  <property name="kdenlive:file_hash">94b277259d25c1ba320358f7ad1b3de6</property>
  <property name="kdenlive:audio_max0">207</property>
 </producer>
 <producer id="producer5" in="00:00:00.000" out="00:00:04.960">
  <property name="length">00:00:05.000</property>
  <property name="eof">pause</property>
  <property name="resource">/home/liquidzulu/Documents/youtube-scripts/courses/libertarian-ethics/slides/defensive-force-and-proportionality/defensive-force-and-proportionality.001.png</property>
  <property name="ttl">25</property>
  <property name="aspect_ratio">1</property>
  <property name="progressive">1</property>
  <property name="seekable">1</property>
  <property name="meta.media.width">1280</property>
  <property name="meta.media.height">720</property>
  <property name="mlt_service">qimage</property>
  <property name="kdenlive:clipname"/>
  <property name="kdenlive:duration">00:00:05.000</property>
  <property name="kdenlive:folderid">56</property>
  <property name="kdenlive:clip_type">2</property>
  <property name="kdenlive:id">6</property>
  <property name="kdenlive:file_size">34001</property>
  <property name="kdenlive:file_hash">749420b16b2b3d7b559b7765c2ee64c2</property>
 </producer>
 <producer id="producer3" in="00:00:00.000" out="00:00:25.960">
  <property name="length">650</property>
  <property name="eof">pause</property>
  <property name="resource">/home/liquidzulu/Documents/youtube-scripts/courses/libertarian-ethics/slides/defensive-force-and-proportionality/defensive-force-and-proportionality.002.png</property>
  <property name="ttl">25</property>
  <property name="aspect_ratio">1</property>
  <property name="progressive">1</property>
  <property name="seekable">1</property>
  <property name="meta.media.width">1280</property>
  <property name="meta.media.height">720</property>
  <property name="mlt_service">qimage</property>
  <property name="kdenlive:clipname"/>
  <property name="kdenlive:duration">00:00:05.000</property>
  <property name="kdenlive:folderid">56</property>
  <property name="kdenlive:clip_type">2</property>
  <property name="kdenlive:id">7</property>
  <property name="kdenlive:file_size">141148</property>
  <property name="kdenlive:file_hash">0756abb6c5f97c241d8fb52e84f3483b</property>
 </producer>
 <producer id="producer4" in="00:00:00.000" out="00:00:24.040">
  <property name="length">602</property>
  <property name="eof">pause</property>
  <property name="resource">/home/liquidzulu/Documents/youtube-scripts/courses/libertarian-ethics/slides/defensive-force-and-proportionality/defensive-force-and-proportionality.003.png</property>
  <property name="ttl">25</property>
  <property name="aspect_ratio">1</property>
  <property name="progressive">1</property>
  <property name="seekable">1</property>
  <property name="meta.media.width">1280</property>
  <property name="meta.media.height">720</property>
  <property name="mlt_service">qimage</property>
  <property name="kdenlive:clipname"/>
  <property name="kdenlive:duration">00:00:05.000</property>
  <property name="kdenlive:folderid">56</property>
  <property name="kdenlive:clip_type">2</property>
  <property name="kdenlive:id">8</property>
  <property name="kdenlive:file_size">26463</property>
  <property name="kdenlive:file_hash">7fe0026fc16f8c9cd79b8508f6e64ac2</property>
 </producer>
 <producer id="producer2" in="00:00:00.000" out="00:00:18.680">
  <property name="length">468</property>
  <property name="eof">pause</property>
  <property name="resource">/home/liquidzulu/Documents/youtube-scripts/courses/libertarian-ethics/slides/defensive-force-and-proportionality/defensive-force-and-proportionality.004.png</property>
  <property name="ttl">25</property>
  <property name="aspect_ratio">1</property>
  <property name="progressive">1</property>
  <property name="seekable">1</property>
  <property name="meta.media.width">1280</property>
  <property name="meta.media.height">720</property>
  <property name="mlt_service">qimage</property>
  <property name="kdenlive:clipname"/>
  <property name="kdenlive:duration">00:00:05.000</property>
  <property name="kdenlive:folderid">56</property>
  <property name="kdenlive:clip_type">2</property>
  <property name="kdenlive:id">9</property>
  <property name="kdenlive:file_size">115981</property>
  <property name="kdenlive:file_hash">07da3228e41118afbad4e4cd57f3893d</property>
 </producer>
 <producer id="producer9" in="00:00:00.000" out="00:00:18.520">
  <property name="length">464</property>
  <property name="eof">pause</property>
  <property name="resource">/home/liquidzulu/Documents/youtube-scripts/courses/libertarian-ethics/slides/defensive-force-and-proportionality/defensive-force-and-proportionality.005.png</property>
  <property name="ttl">25</property>
  <property name="aspect_ratio">1</property>
  <property name="progressive">1</property>
  <property name="seekable">1</property>
  <property name="meta.media.width">1280</property>
  <property name="meta.media.height">720</property>
  <property name="mlt_service">qimage</property>
  <property name="kdenlive:clipname"/>
  <property name="kdenlive:duration">00:00:05.000</property>
  <property name="kdenlive:folderid">56</property>
  <property name="kdenlive:clip_type">2</property>
  <property name="kdenlive:id">10</property>
  <property name="kdenlive:file_size">104803</property>
  <property name="kdenlive:file_hash">b4fb0ab8594fc3578709a2b961ddc340</property>
 </producer>
 <producer id="producer6" in="00:00:00.000" out="00:00:04.960">
  <property name="length">00:00:05.000</property>
  <property name="eof">pause</property>
  <property name="resource">/home/liquidzulu/Documents/youtube-scripts/courses/libertarian-ethics/slides/defensive-force-and-proportionality/defensive-force-and-proportionality.006.png</property>
  <property name="ttl">25</property>
  <property name="aspect_ratio">1</property>
  <property name="progressive">1</property>
  <property name="seekable">1</property>
  <property name="meta.media.width">1280</property>
  <property name="meta.media.height">720</property>
  <property name="mlt_service">qimage</property>
  <property name="kdenlive:clipname"/>
  <property name="kdenlive:duration">00:00:05.000</property>
  <property name="kdenlive:folderid">56</property>
  <property name="kdenlive:clip_type">2</property>
  <property name="kdenlive:id">11</property>
  <property name="kdenlive:file_size">29237</property>
  <property name="kdenlive:file_hash">06c066a0fa8cff1212dea8a79c73843c</property>
 </producer>
 <producer id="producer7" in="00:00:00.000" out="00:01:25.040">
  <property name="length">2127</property>
  <property name="eof">pause</property>
  <property name="resource">/home/liquidzulu/Documents/youtube-scripts/courses/libertarian-ethics/slides/defensive-force-and-proportionality/defensive-force-and-proportionality.007.png</property>
  <property name="ttl">25</property>
  <property name="aspect_ratio">1</property>
  <property name="progressive">1</property>
  <property name="seekable">1</property>
  <property name="meta.media.width">1280</property>
  <property name="meta.media.height">720</property>
  <property name="mlt_service">qimage</property>
  <property name="kdenlive:clipname"/>
  <property name="kdenlive:duration">00:00:05.000</property>
  <property name="kdenlive:folderid">56</property>
  <property name="kdenlive:clip_type">2</property>
  <property name="kdenlive:id">12</property>
  <property name="kdenlive:file_size">80662</property>
  <property name="kdenlive:file_hash">2bef4513b9d449d20ecd0536c8d891e8</property>
 </producer>
 <producer id="producer8" in="00:00:00.000" out="00:00:17.280">
  <property name="length">433</property>
  <property name="eof">pause</property>
  <property name="resource">/home/liquidzulu/Documents/youtube-scripts/courses/libertarian-ethics/slides/defensive-force-and-proportionality/defensive-force-and-proportionality.008.png</property>
  <property name="ttl">25</property>
  <property name="aspect_ratio">1</property>
  <property name="progressive">1</property>
  <property name="seekable">1</property>
  <property name="meta.media.width">1280</property>
  <property name="meta.media.height">720</property>
  <property name="mlt_service">qimage</property>
  <property name="kdenlive:clipname"/>
  <property name="kdenlive:duration">00:00:05.000</property>
  <property name="kdenlive:folderid">56</property>
  <property name="kdenlive:clip_type">2</property>
  <property name="kdenlive:id">13</property>
  <property name="kdenlive:file_size">66900</property>
  <property name="kdenlive:file_hash">51a250446119e1fcef1a9e9221ec3b29</property>
 </producer>
 <producer id="producer11" in="00:00:00.000" out="00:00:18.680">
  <property name="length">468</property>
  <property name="eof">pause</property>
  <property name="resource">/home/liquidzulu/Documents/youtube-scripts/courses/libertarian-ethics/slides/defensive-force-and-proportionality/defensive-force-and-proportionality.009.png</property>
  <property name="ttl">25</property>
  <property name="aspect_ratio">1</property>
  <property name="progressive">1</property>
  <property name="seekable">1</property>
  <property name="meta.media.width">1280</property>
  <property name="meta.media.height">720</property>
  <property name="mlt_service">qimage</property>
  <property name="kdenlive:clipname"/>
  <property name="kdenlive:duration">00:00:05.000</property>
  <property name="kdenlive:folderid">56</property>
  <property name="kdenlive:clip_type">2</property>
  <property name="kdenlive:id">14</property>
  <property name="kdenlive:file_size">102427</property>
  <property name="kdenlive:file_hash">25ee59dd756a51f66466f7d435204fd3</property>
 </producer>
 <producer id="producer35" in="00:00:00.000" out="00:00:25.520">
  <property name="length">639</property>
  <property name="eof">pause</property>
  <property name="resource">/home/liquidzulu/Documents/youtube-scripts/courses/libertarian-ethics/slides/defensive-force-and-proportionality/defensive-force-and-proportionality.010.png</property>
  <property name="ttl">25</property>
  <property name="aspect_ratio">1</property>
  <property name="progressive">1</property>
  <property name="seekable">1</property>
  <property name="meta.media.width">1280</property>
  <property name="meta.media.height">720</property>
  <property name="mlt_service">qimage</property>
  <property name="kdenlive:clipname"/>
  <property name="kdenlive:duration">00:00:05.000</property>
  <property name="kdenlive:folderid">56</property>
  <property name="kdenlive:clip_type">2</property>
  <property name="kdenlive:id">15</property>
  <property name="kdenlive:file_size">125405</property>
  <property name="kdenlive:file_hash">65629ec9054dcb55bbb5b0969d80681b</property>
 </producer>
 <producer id="producer10" in="00:00:00.000" out="00:00:04.960">
  <property name="length">00:00:05.000</property>
  <property name="eof">pause</property>
  <property name="resource">/home/liquidzulu/Documents/youtube-scripts/courses/libertarian-ethics/slides/defensive-force-and-proportionality/defensive-force-and-proportionality.011.png</property>
  <property name="ttl">25</property>
  <property name="aspect_ratio">1</property>
  <property name="progressive">1</property>
  <property name="seekable">1</property>
  <property name="meta.media.width">1280</property>
  <property name="meta.media.height">720</property>
  <property name="mlt_service">qimage</property>
  <property name="kdenlive:clipname"/>
  <property name="kdenlive:duration">00:00:05.000</property>
  <property name="kdenlive:folderid">56</property>
  <property name="kdenlive:clip_type">2</property>
  <property name="kdenlive:id">16</property>
  <property name="kdenlive:file_size">20493</property>
  <property name="kdenlive:file_hash">acb1f2e8136e2f925034a35d1d95d150</property>
 </producer>
 <producer id="producer12" in="00:00:00.000" out="00:01:23.200">
  <property name="length">2081</property>
  <property name="eof">pause</property>
  <property name="resource">/home/liquidzulu/Documents/youtube-scripts/courses/libertarian-ethics/slides/defensive-force-and-proportionality/defensive-force-and-proportionality.012.png</property>
  <property name="ttl">25</property>
  <property name="aspect_ratio">1</property>
  <property name="progressive">1</property>
  <property name="seekable">1</property>
  <property name="meta.media.width">1280</property>
  <property name="meta.media.height">720</property>
  <property name="mlt_service">qimage</property>
  <property name="kdenlive:clipname"/>
  <property name="kdenlive:duration">00:00:05.000</property>
  <property name="kdenlive:folderid">56</property>
  <property name="kdenlive:clip_type">2</property>
  <property name="kdenlive:id">17</property>
  <property name="kdenlive:file_size">65465</property>
  <property name="kdenlive:file_hash">68e5846361bf33642735f3da4abb1011</property>
 </producer>
 <producer id="producer15" in="00:00:00.000" out="00:00:14.400">
  <property name="length">361</property>
  <property name="eof">pause</property>
  <property name="resource">/home/liquidzulu/Documents/youtube-scripts/courses/libertarian-ethics/slides/defensive-force-and-proportionality/defensive-force-and-proportionality.013.png</property>
  <property name="ttl">25</property>
  <property name="aspect_ratio">1</property>
  <property name="progressive">1</property>
  <property name="seekable">1</property>
  <property name="meta.media.width">1280</property>
  <property name="meta.media.height">720</property>
  <property name="mlt_service">qimage</property>
  <property name="kdenlive:clipname"/>
  <property name="kdenlive:duration">00:00:05.000</property>
  <property name="kdenlive:folderid">56</property>
  <property name="kdenlive:clip_type">2</property>
  <property name="kdenlive:id">18</property>
  <property name="kdenlive:file_size">31419</property>
  <property name="kdenlive:file_hash">150c05876c6b1a8f72c20234c226bf3f</property>
 </producer>
 <producer id="producer13" in="00:00:00.000" out="00:00:23.920">
  <property name="length">599</property>
  <property name="eof">pause</property>
  <property name="resource">/home/liquidzulu/Documents/youtube-scripts/courses/libertarian-ethics/slides/defensive-force-and-proportionality/defensive-force-and-proportionality.014.png</property>
  <property name="ttl">25</property>
  <property name="aspect_ratio">1</property>
  <property name="progressive">1</property>
  <property name="seekable">1</property>
  <property name="meta.media.width">1280</property>
  <property name="meta.media.height">720</property>
  <property name="mlt_service">qimage</property>
  <property name="kdenlive:clipname"/>
  <property name="kdenlive:duration">00:00:05.000</property>
  <property name="kdenlive:folderid">56</property>
  <property name="kdenlive:clip_type">2</property>
  <property name="kdenlive:id">19</property>
  <property name="kdenlive:file_size">70350</property>
  <property name="kdenlive:file_hash">f60bf00d55326fbc11b953d457e94d58</property>
 </producer>
 <producer id="producer14" in="00:00:00.000" out="00:00:34.040">
  <property name="length">852</property>
  <property name="eof">pause</property>
  <property name="resource">/home/liquidzulu/Documents/youtube-scripts/courses/libertarian-ethics/slides/defensive-force-and-proportionality/defensive-force-and-proportionality.015.png</property>
  <property name="ttl">25</property>
  <property name="aspect_ratio">1</property>
  <property name="progressive">1</property>
  <property name="seekable">1</property>
  <property name="meta.media.width">1280</property>
  <property name="meta.media.height">720</property>
  <property name="mlt_service">qimage</property>
  <property name="kdenlive:clipname"/>
  <property name="kdenlive:duration">00:00:05.000</property>
  <property name="kdenlive:folderid">56</property>
  <property name="kdenlive:clip_type">2</property>
  <property name="kdenlive:id">20</property>
  <property name="kdenlive:file_size">114227</property>
  <property name="kdenlive:file_hash">f53fac8604cb2ab805c119905559d5c0</property>
 </producer>
 <producer id="producer16" in="00:00:00.000" out="00:00:04.960">
  <property name="length">00:00:05.000</property>
  <property name="eof">pause</property>
  <property name="resource">/home/liquidzulu/Documents/youtube-scripts/courses/libertarian-ethics/slides/defensive-force-and-proportionality/defensive-force-and-proportionality.016.png</property>
  <property name="ttl">25</property>
  <property name="aspect_ratio">1</property>
  <property name="progressive">1</property>
  <property name="seekable">1</property>
  <property name="meta.media.width">1280</property>
  <property name="meta.media.height">720</property>
  <property name="mlt_service">qimage</property>
  <property name="kdenlive:clipname"/>
  <property name="kdenlive:duration">00:00:05.000</property>
  <property name="kdenlive:folderid">56</property>
  <property name="kdenlive:clip_type">2</property>
  <property name="kdenlive:id">21</property>
  <property name="kdenlive:file_size">22318</property>
  <property name="kdenlive:file_hash">af8b3f4213b731d6c9a6ae1947587cc9</property>
 </producer>
 <producer id="producer17" in="00:00:00.000" out="00:00:48.200">
  <property name="length">1206</property>
  <property name="eof">pause</property>
  <property name="resource">/home/liquidzulu/Documents/youtube-scripts/courses/libertarian-ethics/slides/defensive-force-and-proportionality/defensive-force-and-proportionality.017.png</property>
  <property name="ttl">25</property>
  <property name="aspect_ratio">1</property>
  <property name="progressive">1</property>
  <property name="seekable">1</property>
  <property name="meta.media.width">1280</property>
  <property name="meta.media.height">720</property>
  <property name="mlt_service">qimage</property>
  <property name="kdenlive:clipname"/>
  <property name="kdenlive:duration">00:00:05.000</property>
  <property name="kdenlive:folderid">56</property>
  <property name="kdenlive:clip_type">2</property>
  <property name="kdenlive:id">22</property>
  <property name="kdenlive:file_size">63787</property>
  <property name="kdenlive:file_hash">05cc0797613b8285c9ddbd6235203cac</property>
 </producer>
 <producer id="producer36" in="00:00:00.000" out="00:00:07.960">
  <property name="length">200</property>
  <property name="eof">pause</property>
  <property name="resource">/home/liquidzulu/Documents/youtube-scripts/courses/libertarian-ethics/slides/defensive-force-and-proportionality/defensive-force-and-proportionality.018.png</property>
  <property name="ttl">25</property>
  <property name="aspect_ratio">1</property>
  <property name="progressive">1</property>
  <property name="seekable">1</property>
  <property name="meta.media.width">1920</property>
  <property name="meta.media.height">1080</property>
  <property name="mlt_service">qimage</property>
  <property name="kdenlive:clipname"/>
  <property name="kdenlive:duration">00:00:05.000</property>
  <property name="kdenlive:folderid">56</property>
  <property name="kdenlive:clip_type">2</property>
  <property name="kdenlive:id">23</property>
  <property name="kdenlive:file_size">71630</property>
  <property name="kdenlive:file_hash">8d22fd7a571022387dc7c8079ee44458</property>
 </producer>
 <producer id="producer18" in="00:00:00.000" out="00:00:38.040">
  <property name="length">952</property>
  <property name="eof">pause</property>
  <property name="resource">/home/liquidzulu/Documents/youtube-scripts/courses/libertarian-ethics/slides/defensive-force-and-proportionality/defensive-force-and-proportionality.019.png</property>
  <property name="ttl">25</property>
  <property name="aspect_ratio">1</property>
  <property name="progressive">1</property>
  <property name="seekable">1</property>
  <property name="meta.media.width">1280</property>
  <property name="meta.media.height">720</property>
  <property name="mlt_service">qimage</property>
  <property name="kdenlive:clipname"/>
  <property name="kdenlive:duration">00:00:05.000</property>
  <property name="kdenlive:folderid">56</property>
  <property name="kdenlive:clip_type">2</property>
  <property name="kdenlive:id">24</property>
  <property name="kdenlive:file_size">29054</property>
  <property name="kdenlive:file_hash">85de3577753da4e9186a39f55c415c4b</property>
 </producer>
 <producer id="producer19" in="00:00:00.000" out="00:00:23.240">
  <property name="length">582</property>
  <property name="eof">pause</property>
  <property name="resource">/home/liquidzulu/Documents/youtube-scripts/courses/libertarian-ethics/slides/defensive-force-and-proportionality/defensive-force-and-proportionality.020.png</property>
  <property name="ttl">25</property>
  <property name="aspect_ratio">1</property>
  <property name="progressive">1</property>
  <property name="seekable">1</property>
  <property name="meta.media.width">1280</property>
  <property name="meta.media.height">720</property>
  <property name="mlt_service">qimage</property>
  <property name="kdenlive:clipname"/>
  <property name="kdenlive:duration">00:00:05.000</property>
  <property name="kdenlive:folderid">56</property>
  <property name="kdenlive:clip_type">2</property>
  <property name="kdenlive:id">25</property>
  <property name="kdenlive:file_size">35608</property>
  <property name="kdenlive:file_hash">663b1212e2b942f19137c97971cc471d</property>
 </producer>
 <producer id="producer20" in="00:00:00.000" out="00:00:54.240">
  <property name="length">1357</property>
  <property name="eof">pause</property>
  <property name="resource">/home/liquidzulu/Documents/youtube-scripts/courses/libertarian-ethics/slides/defensive-force-and-proportionality/defensive-force-and-proportionality.021.png</property>
  <property name="ttl">25</property>
  <property name="aspect_ratio">1</property>
  <property name="progressive">1</property>
  <property name="seekable">1</property>
  <property name="meta.media.width">1280</property>
  <property name="meta.media.height">720</property>
  <property name="mlt_service">qimage</property>
  <property name="kdenlive:clipname"/>
  <property name="kdenlive:duration">00:00:05.000</property>
  <property name="kdenlive:folderid">56</property>
  <property name="kdenlive:clip_type">2</property>
  <property name="kdenlive:id">26</property>
  <property name="kdenlive:file_size">92152</property>
  <property name="kdenlive:file_hash">ed1d864a0072be409acc69edfb01bb19</property>
 </producer>
 <producer id="producer21" in="00:00:00.000" out="00:03:30.280">
  <property name="length">5258</property>
  <property name="eof">pause</property>
  <property name="resource">/home/liquidzulu/Documents/youtube-scripts/courses/libertarian-ethics/slides/defensive-force-and-proportionality/defensive-force-and-proportionality.022.png</property>
  <property name="ttl">25</property>
  <property name="aspect_ratio">1</property>
  <property name="progressive">1</property>
  <property name="seekable">1</property>
  <property name="meta.media.width">1280</property>
  <property name="meta.media.height">720</property>
  <property name="mlt_service">qimage</property>
  <property name="kdenlive:clipname"/>
  <property name="kdenlive:duration">00:00:05.000</property>
  <property name="kdenlive:folderid">56</property>
  <property name="kdenlive:clip_type">2</property>
  <property name="kdenlive:id">27</property>
  <property name="kdenlive:file_size">102714</property>
  <property name="kdenlive:file_hash">3eb2fc831b11745b56d9a976d3a22418</property>
 </producer>
 <producer id="producer22" in="00:00:00.000" out="00:00:35.960">
  <property name="length">900</property>
  <property name="eof">pause</property>
  <property name="resource">/home/liquidzulu/Documents/youtube-scripts/courses/libertarian-ethics/slides/defensive-force-and-proportionality/defensive-force-and-proportionality.023.png</property>
  <property name="ttl">25</property>
  <property name="aspect_ratio">1</property>
  <property name="progressive">1</property>
  <property name="seekable">1</property>
  <property name="meta.media.width">1280</property>
  <property name="meta.media.height">720</property>
  <property name="mlt_service">qimage</property>
  <property name="kdenlive:clipname"/>
  <property name="kdenlive:duration">00:00:05.000</property>
  <property name="kdenlive:folderid">56</property>
  <property name="kdenlive:clip_type">2</property>
  <property name="kdenlive:id">28</property>
  <property name="kdenlive:file_size">26869</property>
  <property name="kdenlive:file_hash">bce547030866932de971746e56e4d723</property>
 </producer>
 <producer id="producer23" in="00:00:00.000" out="00:01:31.280">
  <property name="length">2283</property>
  <property name="eof">pause</property>
  <property name="resource">/home/liquidzulu/Documents/youtube-scripts/courses/libertarian-ethics/slides/defensive-force-and-proportionality/defensive-force-and-proportionality.024.png</property>
  <property name="ttl">25</property>
  <property name="aspect_ratio">1</property>
  <property name="progressive">1</property>
  <property name="seekable">1</property>
  <property name="meta.media.width">1280</property>
  <property name="meta.media.height">720</property>
  <property name="mlt_service">qimage</property>
  <property name="kdenlive:clipname"/>
  <property name="kdenlive:duration">00:00:05.000</property>
  <property name="kdenlive:folderid">56</property>
  <property name="kdenlive:clip_type">2</property>
  <property name="kdenlive:id">29</property>
  <property name="kdenlive:file_size">61124</property>
  <property name="kdenlive:file_hash">0bb017a7bd2bef8738c975d2dfa349ce</property>
 </producer>
 <producer id="producer24" in="00:00:00.000" out="00:00:27.200">
  <property name="length">681</property>
  <property name="eof">pause</property>
  <property name="resource">/home/liquidzulu/Documents/youtube-scripts/courses/libertarian-ethics/slides/defensive-force-and-proportionality/defensive-force-and-proportionality.025.png</property>
  <property name="ttl">25</property>
  <property name="aspect_ratio">1</property>
  <property name="progressive">1</property>
  <property name="seekable">1</property>
  <property name="meta.media.width">1280</property>
  <property name="meta.media.height">720</property>
  <property name="mlt_service">qimage</property>
  <property name="kdenlive:clipname"/>
  <property name="kdenlive:duration">00:00:05.000</property>
  <property name="kdenlive:folderid">56</property>
  <property name="kdenlive:clip_type">2</property>
  <property name="kdenlive:id">30</property>
  <property name="kdenlive:file_size">24831</property>
  <property name="kdenlive:file_hash">5bb3c746ccd59b248d86d9ac573f8bc7</property>
 </producer>
 <producer id="producer25" in="00:00:00.000" out="00:03:59.520">
  <property name="length">5989</property>
  <property name="eof">pause</property>
  <property name="resource">/home/liquidzulu/Documents/youtube-scripts/courses/libertarian-ethics/slides/defensive-force-and-proportionality/defensive-force-and-proportionality.026.png</property>
  <property name="ttl">25</property>
  <property name="aspect_ratio">1</property>
  <property name="progressive">1</property>
  <property name="seekable">1</property>
  <property name="meta.media.width">1280</property>
  <property name="meta.media.height">720</property>
  <property name="mlt_service">qimage</property>
  <property name="kdenlive:clipname"/>
  <property name="kdenlive:duration">00:00:05.000</property>
  <property name="kdenlive:folderid">56</property>
  <property name="kdenlive:clip_type">2</property>
  <property name="kdenlive:id">31</property>
  <property name="kdenlive:file_size">114768</property>
  <property name="kdenlive:file_hash">d51527cebae2f76293916d2e15ff7d60</property>
 </producer>
 <producer id="producer26" in="00:00:00.000" out="00:00:32.840">
  <property name="length">822</property>
  <property name="eof">pause</property>
  <property name="resource">/home/liquidzulu/Documents/youtube-scripts/courses/libertarian-ethics/slides/defensive-force-and-proportionality/defensive-force-and-proportionality.027.png</property>
  <property name="ttl">25</property>
  <property name="aspect_ratio">1</property>
  <property name="progressive">1</property>
  <property name="seekable">1</property>
  <property name="meta.media.width">1280</property>
  <property name="meta.media.height">720</property>
  <property name="mlt_service">qimage</property>
  <property name="kdenlive:clipname"/>
  <property name="kdenlive:duration">00:00:05.000</property>
  <property name="kdenlive:folderid">56</property>
  <property name="kdenlive:clip_type">2</property>
  <property name="kdenlive:id">32</property>
  <property name="kdenlive:file_size">43916</property>
  <property name="kdenlive:file_hash">8459cf0da23a9556bc9e0711dde41715</property>
 </producer>
 <producer id="producer27" in="00:00:00.000" out="00:00:34.000">
  <property name="length">851</property>
  <property name="eof">pause</property>
  <property name="resource">/home/liquidzulu/Documents/youtube-scripts/courses/libertarian-ethics/slides/defensive-force-and-proportionality/defensive-force-and-proportionality.028.png</property>
  <property name="ttl">25</property>
  <property name="aspect_ratio">1</property>
  <property name="progressive">1</property>
  <property name="seekable">1</property>
  <property name="meta.media.width">1280</property>
  <property name="meta.media.height">720</property>
  <property name="mlt_service">qimage</property>
  <property name="kdenlive:clipname"/>
  <property name="kdenlive:duration">00:00:05.000</property>
  <property name="kdenlive:folderid">56</property>
  <property name="kdenlive:clip_type">2</property>
  <property name="kdenlive:id">33</property>
  <property name="kdenlive:file_size">74687</property>
  <property name="kdenlive:file_hash">05931246fd2b615c0184be79415cae26</property>
 </producer>
 <producer id="producer29" in="00:00:00.000" out="00:00:38.440">
  <property name="length">962</property>
  <property name="eof">pause</property>
  <property name="resource">/home/liquidzulu/Documents/youtube-scripts/courses/libertarian-ethics/slides/defensive-force-and-proportionality/defensive-force-and-proportionality.029.png</property>
  <property name="ttl">25</property>
  <property name="aspect_ratio">1</property>
  <property name="progressive">1</property>
  <property name="seekable">1</property>
  <property name="meta.media.width">1280</property>
  <property name="meta.media.height">720</property>
  <property name="mlt_service">qimage</property>
  <property name="kdenlive:clipname"/>
  <property name="kdenlive:duration">00:00:05.000</property>
  <property name="kdenlive:folderid">56</property>
  <property name="kdenlive:clip_type">2</property>
  <property name="kdenlive:id">34</property>
  <property name="kdenlive:file_size">126298</property>
  <property name="kdenlive:file_hash">f0c7f479b59160a24ae51924ff32589d</property>
 </producer>
 <producer id="producer28" in="00:00:00.000" out="00:00:48.080">
  <property name="length">1203</property>
  <property name="eof">pause</property>
  <property name="resource">/home/liquidzulu/Documents/youtube-scripts/courses/libertarian-ethics/slides/defensive-force-and-proportionality/defensive-force-and-proportionality.030.png</property>
  <property name="ttl">25</property>
  <property name="aspect_ratio">1</property>
  <property name="progressive">1</property>
  <property name="seekable">1</property>
  <property name="meta.media.width">1280</property>
  <property name="meta.media.height">720</property>
  <property name="mlt_service">qimage</property>
  <property name="kdenlive:clipname"/>
  <property name="kdenlive:duration">00:00:05.000</property>
  <property name="kdenlive:folderid">56</property>
  <property name="kdenlive:clip_type">2</property>
  <property name="kdenlive:id">35</property>
  <property name="kdenlive:file_size">37513</property>
  <property name="kdenlive:file_hash">215e855b98a3919aca62884320c3625c</property>
 </producer>
 <producer id="producer30" in="00:00:00.000" out="00:00:22.080">
  <property name="length">553</property>
  <property name="eof">pause</property>
  <property name="resource">/home/liquidzulu/Documents/youtube-scripts/courses/libertarian-ethics/slides/defensive-force-and-proportionality/defensive-force-and-proportionality.031.png</property>
  <property name="ttl">25</property>
  <property name="aspect_ratio">1</property>
  <property name="progressive">1</property>
  <property name="seekable">1</property>
  <property name="meta.media.width">1280</property>
  <property name="meta.media.height">720</property>
  <property name="mlt_service">qimage</property>
  <property name="kdenlive:clipname"/>
  <property name="kdenlive:duration">00:00:05.000</property>
  <property name="kdenlive:folderid">56</property>
  <property name="kdenlive:clip_type">2</property>
  <property name="kdenlive:id">36</property>
  <property name="kdenlive:file_size">92077</property>
  <property name="kdenlive:file_hash">a629366b06b82fb42bf774880b9eed5d</property>
 </producer>
 <producer id="producer31" in="00:00:00.000" out="00:00:17.280">
  <property name="length">433</property>
  <property name="eof">pause</property>
  <property name="resource">/home/liquidzulu/Documents/youtube-scripts/courses/libertarian-ethics/slides/defensive-force-and-proportionality/defensive-force-and-proportionality.032.png</property>
  <property name="ttl">25</property>
  <property name="aspect_ratio">1</property>
  <property name="progressive">1</property>
  <property name="seekable">1</property>
  <property name="meta.media.width">1280</property>
  <property name="meta.media.height">720</property>
  <property name="mlt_service">qimage</property>
  <property name="kdenlive:clipname"/>
  <property name="kdenlive:duration">00:00:05.000</property>
  <property name="kdenlive:folderid">56</property>
  <property name="kdenlive:clip_type">2</property>
  <property name="kdenlive:id">37</property>
  <property name="kdenlive:file_size">75794</property>
  <property name="kdenlive:file_hash">0d5b78b18f7866a0df1487161e00ab83</property>
 </producer>
 <producer id="producer32" in="00:00:00.000" out="00:00:50.400">
  <property name="length">1261</property>
  <property name="eof">pause</property>
  <property name="resource">/home/liquidzulu/Documents/youtube-scripts/courses/libertarian-ethics/slides/defensive-force-and-proportionality/defensive-force-and-proportionality.033.png</property>
  <property name="ttl">25</property>
  <property name="aspect_ratio">1</property>
  <property name="progressive">1</property>
  <property name="seekable">1</property>
  <property name="meta.media.width">1280</property>
  <property name="meta.media.height">720</property>
  <property name="mlt_service">qimage</property>
  <property name="kdenlive:clipname"/>
  <property name="kdenlive:duration">00:00:05.000</property>
  <property name="kdenlive:folderid">56</property>
  <property name="kdenlive:clip_type">2</property>
  <property name="kdenlive:id">38</property>
  <property name="kdenlive:file_size">22234</property>
  <property name="kdenlive:file_hash">966b628244d27ea45e00870fd9a70fe0</property>
 </producer>
 <producer id="producer33" in="00:00:00.000" out="00:00:12.880">
  <property name="length">323</property>
  <property name="eof">pause</property>
  <property name="resource">/home/liquidzulu/Documents/youtube-scripts/courses/libertarian-ethics/slides/defensive-force-and-proportionality/defensive-force-and-proportionality.034.png</property>
  <property name="ttl">25</property>
  <property name="aspect_ratio">1</property>
  <property name="progressive">1</property>
  <property name="seekable">1</property>
  <property name="meta.media.width">1280</property>
  <property name="meta.media.height">720</property>
  <property name="mlt_service">qimage</property>
  <property name="kdenlive:clipname"/>
  <property name="kdenlive:duration">00:00:05.000</property>
  <property name="kdenlive:folderid">56</property>
  <property name="kdenlive:clip_type">2</property>
  <property name="kdenlive:id">39</property>
  <property name="kdenlive:file_size">69169</property>
  <property name="kdenlive:file_hash">49f31dd8c994567def7567fe2903c03f</property>
 </producer>
 <producer id="producer34" in="00:00:00.000" out="00:00:01.240">
  <property name="length">32</property>
  <property name="eof">pause</property>
  <property name="resource">/home/liquidzulu/Documents/youtube-scripts/courses/libertarian-ethics/audio/proc/Audio/defensive-force-and-proportionality.contradicts-himself.proc.mp3</property>
  <property name="meta.media.nb_streams">1</property>
  <property name="meta.media.0.stream.type">audio</property>
  <property name="meta.media.0.codec.sample_fmt">fltp</property>
  <property name="meta.media.0.codec.sample_rate">44100</property>
  <property name="meta.media.0.codec.channels">2</property>
  <property name="meta.media.0.codec.name">mp3float</property>
  <property name="meta.media.0.codec.long_name">MP3 (MPEG audio layer 3)</property>
  <property name="meta.media.0.codec.bit_rate">192000</property>
  <property name="meta.attr.encoded_by.markup">LAME in FL Studio 21</property>
  <property name="meta.attr.date.markup">2023</property>
  <property name="seekable">1</property>
  <property name="audio_index">0</property>
  <property name="video_index">-1</property>
  <property name="mute_on_pause">1</property>
  <property name="mlt_service">avformat</property>
  <property name="kdenlive:clipname"/>
  <property name="kdenlive:clip_type">1</property>
  <property name="kdenlive:folderid">-1</property>
  <property name="kdenlive:id">40</property>
  <property name="kdenlive:file_size">30776</property>
  <property name="kdenlive:file_hash">df192ebd21d406488256c6e504bfb685</property>
  <property name="kdenlive:audio_max0">177</property>
 </producer>
 <producer id="producer37" in="00:00:00.000" out="00:00:04.960">
  <property name="length">00:00:05.000</property>
  <property name="eof">pause</property>
  <property name="resource">/home/liquidzulu/Documents/youtube-scripts/courses/libertarian-ethics/capsaicin/pseudo/defensive-force-and-proportionality.pseudo.srt-images/100.png</property>
  <property name="ttl">25</property>
  <property name="aspect_ratio">1</property>
  <property name="progressive">1</property>
  <property name="seekable">1</property>
  <property name="meta.media.width">1920</property>
  <property name="meta.media.height">1080</property>
  <property name="mlt_service">qimage</property>
  <property name="kdenlive:clipname"/>
  <property name="kdenlive:duration">00:00:05.000</property>
  <property name="kdenlive:folderid">41</property>
  <property name="kdenlive:clip_type">2</property>
  <property name="kdenlive:id">42</property>
  <property name="kdenlive:file_size">8957</property>
  <property name="kdenlive:file_hash">9b421e9195d3e36bee7e154a5383e44b</property>
 </producer>
 <producer id="producer39" in="00:00:00.000" out="00:00:04.960">
  <property name="length">00:00:05.000</property>
  <property name="eof">pause</property>
  <property name="resource">/home/liquidzulu/Documents/youtube-scripts/courses/libertarian-ethics/capsaicin/pseudo/defensive-force-and-proportionality.pseudo.srt-images/101.png</property>
  <property name="ttl">25</property>
  <property name="aspect_ratio">1</property>
  <property name="progressive">1</property>
  <property name="seekable">1</property>
  <property name="meta.media.width">1920</property>
  <property name="meta.media.height">1080</property>
  <property name="mlt_service">qimage</property>
  <property name="kdenlive:clipname"/>
  <property name="kdenlive:duration">00:00:05.000</property>
  <property name="kdenlive:folderid">41</property>
  <property name="kdenlive:clip_type">2</property>
  <property name="kdenlive:id">43</property>
  <property name="kdenlive:file_size">6871</property>
  <property name="kdenlive:file_hash">e87275fc95ce713fbd173c39d6f86cd3</property>
 </producer>
 <producer id="producer40" in="00:00:00.000" out="00:00:04.960">
  <property name="length">00:00:05.000</property>
  <property name="eof">pause</property>
  <property name="resource">/home/liquidzulu/Documents/youtube-scripts/courses/libertarian-ethics/capsaicin/pseudo/defensive-force-and-proportionality.pseudo.srt-images/102.png</property>
  <property name="ttl">25</property>
  <property name="aspect_ratio">1</property>
  <property name="progressive">1</property>
  <property name="seekable">1</property>
  <property name="meta.media.width">1920</property>
  <property name="meta.media.height">1080</property>
  <property name="mlt_service">qimage</property>
  <property name="kdenlive:clipname"/>
  <property name="kdenlive:duration">00:00:05.000</property>
  <property name="kdenlive:folderid">41</property>
  <property name="kdenlive:clip_type">2</property>
  <property name="kdenlive:id">44</property>
  <property name="kdenlive:file_size">8734</property>
  <property name="kdenlive:file_hash">51763bbd69903bc8f490c2bce217b15c</property>
 </producer>
 <producer id="producer38" in="00:00:00.000" out="00:00:04.960">
  <property name="length">00:00:05.000</property>
  <property name="eof">pause</property>
  <property name="resource">/home/liquidzulu/Documents/youtube-scripts/courses/libertarian-ethics/capsaicin/pseudo/defensive-force-and-proportionality.pseudo.srt-images/103.png</property>
  <property name="ttl">25</property>
  <property name="aspect_ratio">1</property>
  <property name="progressive">1</property>
  <property name="seekable">1</property>
  <property name="meta.media.width">1920</property>
  <property name="meta.media.height">1080</property>
  <property name="mlt_service">qimage</property>
  <property name="kdenlive:clipname"/>
  <property name="kdenlive:duration">00:00:05.000</property>
  <property name="kdenlive:folderid">41</property>
  <property name="kdenlive:clip_type">2</property>
  <property name="kdenlive:id">45</property>
  <property name="kdenlive:file_size">9160</property>
  <property name="kdenlive:file_hash">e661e4406bfeb045250913f0c505787e</property>
 </producer>
 <producer id="producer41" in="00:00:00.000" out="00:00:04.960">
  <property name="length">00:00:05.000</property>
  <property name="eof">pause</property>
  <property name="resource">/home/liquidzulu/Documents/youtube-scripts/courses/libertarian-ethics/capsaicin/pseudo/defensive-force-and-proportionality.pseudo.srt-images/104.png</property>
  <property name="ttl">25</property>
  <property name="aspect_ratio">1</property>
  <property name="progressive">1</property>
  <property name="seekable">1</property>
  <property name="meta.media.width">1920</property>
  <property name="meta.media.height">1080</property>
  <property name="mlt_service">qimage</property>
  <property name="kdenlive:clipname"/>
  <property name="kdenlive:duration">00:00:05.000</property>
  <property name="kdenlive:folderid">41</property>
  <property name="kdenlive:clip_type">2</property>
  <property name="kdenlive:id">46</property>
  <property name="kdenlive:file_size">8798</property>
  <property name="kdenlive:file_hash">a75bae35c0c92be12a47ddae3ab89a11</property>
 </producer>
 <producer id="producer42" in="00:00:00.000" out="00:00:04.960">
  <property name="length">00:00:05.000</property>
  <property name="eof">pause</property>
  <property name="resource">/home/liquidzulu/Documents/youtube-scripts/courses/libertarian-ethics/capsaicin/pseudo/defensive-force-and-proportionality.pseudo.srt-images/105.png</property>
  <property name="ttl">25</property>
  <property name="aspect_ratio">1</property>
  <property name="progressive">1</property>
  <property name="seekable">1</property>
  <property name="meta.media.width">1920</property>
  <property name="meta.media.height">1080</property>
  <property name="mlt_service">qimage</property>
  <property name="kdenlive:clipname"/>
  <property name="kdenlive:duration">00:00:05.000</property>
  <property name="kdenlive:folderid">41</property>
  <property name="kdenlive:clip_type">2</property>
  <property name="kdenlive:id">47</property>
  <property name="kdenlive:file_size">7941</property>
  <property name="kdenlive:file_hash">a9edd2aa5e0856d946996e22ba58e5fb</property>
 </producer>
 <producer id="producer43" in="00:00:00.000" out="00:00:04.960">
  <property name="length">00:00:05.000</property>
  <property name="eof">pause</property>
  <property name="resource">/home/liquidzulu/Documents/youtube-scripts/courses/libertarian-ethics/capsaicin/pseudo/defensive-force-and-proportionality.pseudo.srt-images/106.png</property>
  <property name="ttl">25</property>
  <property name="aspect_ratio">1</property>
  <property name="progressive">1</property>
  <property name="seekable">1</property>
  <property name="meta.media.width">1920</property>
  <property name="meta.media.height">1080</property>
  <property name="mlt_service">qimage</property>
  <property name="kdenlive:clipname"/>
  <property name="kdenlive:duration">00:00:05.000</property>
  <property name="kdenlive:folderid">41</property>
  <property name="kdenlive:clip_type">2</property>
  <property name="kdenlive:id">48</property>
  <property name="kdenlive:file_size">9369</property>
  <property name="kdenlive:file_hash">fcf8e91da69d1e0cc6835b32caff2b63</property>
 </producer>
 <producer id="producer44" in="00:00:00.000" out="00:00:04.960">
  <property name="length">00:00:05.000</property>
  <property name="eof">pause</property>
  <property name="resource">/home/liquidzulu/Documents/youtube-scripts/courses/libertarian-ethics/capsaicin/pseudo/defensive-force-and-proportionality.pseudo.srt-images/107.png</property>
  <property name="ttl">25</property>
  <property name="aspect_ratio">1</property>
  <property name="progressive">1</property>
  <property name="seekable">1</property>
  <property name="meta.media.width">1920</property>
  <property name="meta.media.height">1080</property>
  <property name="mlt_service">qimage</property>
  <property name="kdenlive:clipname"/>
  <property name="kdenlive:duration">00:00:05.000</property>
  <property name="kdenlive:folderid">41</property>
  <property name="kdenlive:clip_type">2</property>
  <property name="kdenlive:id">49</property>
  <property name="kdenlive:file_size">8949</property>
  <property name="kdenlive:file_hash">be091641271921c7228b40129671c1ec</property>
 </producer>
 <producer id="producer45" in="00:00:00.000" out="00:00:04.960">
  <property name="length">00:00:05.000</property>
  <property name="eof">pause</property>
  <property name="resource">/home/liquidzulu/Documents/youtube-scripts/courses/libertarian-ethics/capsaicin/pseudo/defensive-force-and-proportionality.pseudo.srt-images/108.png</property>
  <property name="ttl">25</property>
  <property name="aspect_ratio">1</property>
  <property name="progressive">1</property>
  <property name="seekable">1</property>
  <property name="meta.media.width">1920</property>
  <property name="meta.media.height">1080</property>
  <property name="mlt_service">qimage</property>
  <property name="kdenlive:clipname"/>
  <property name="kdenlive:duration">00:00:05.000</property>
  <property name="kdenlive:folderid">41</property>
  <property name="kdenlive:clip_type">2</property>
  <property name="kdenlive:id">50</property>
  <property name="kdenlive:file_size">7657</property>
  <property name="kdenlive:file_hash">43ac827add7d498e43d1761f3716d765</property>
 </producer>
 <producer id="producer46" in="00:00:00.000" out="00:00:04.960">
  <property name="length">00:00:05.000</property>
  <property name="eof">pause</property>
  <property name="resource">/home/liquidzulu/Documents/youtube-scripts/courses/libertarian-ethics/capsaicin/pseudo/defensive-force-and-proportionality.pseudo.srt-images/109.png</property>
  <property name="ttl">25</property>
  <property name="aspect_ratio">1</property>
  <property name="progressive">1</property>
  <property name="seekable">1</property>
  <property name="meta.media.width">1920</property>
  <property name="meta.media.height">1080</property>
  <property name="mlt_service">qimage</property>
  <property name="kdenlive:clipname"/>
  <property name="kdenlive:duration">00:00:05.000</property>
  <property name="kdenlive:folderid">41</property>
  <property name="kdenlive:clip_type">2</property>
  <property name="kdenlive:id">51</property>
  <property name="kdenlive:file_size">8489</property>
  <property name="kdenlive:file_hash">295cd0f58529acdfb134a6f63a777b02</property>
 </producer>
 <producer id="producer47" in="00:00:00.000" out="00:00:04.960">
  <property name="length">00:00:05.000</property>
  <property name="eof">pause</property>
  <property name="resource">/home/liquidzulu/Documents/youtube-scripts/courses/libertarian-ethics/capsaicin/pseudo/defensive-force-and-proportionality.pseudo.srt-images/110.png</property>
  <property name="ttl">25</property>
  <property name="aspect_ratio">1</property>
  <property name="progressive">1</property>
  <property name="seekable">1</property>
  <property name="meta.media.width">1920</property>
  <property name="meta.media.height">1080</property>
  <property name="mlt_service">qimage</property>
  <property name="kdenlive:clipname"/>
  <property name="kdenlive:duration">00:00:05.000</property>
  <property name="kdenlive:folderid">41</property>
  <property name="kdenlive:clip_type">2</property>
  <property name="kdenlive:id">52</property>
  <property name="kdenlive:file_size">8550</property>
  <property name="kdenlive:file_hash">1e5aa18871988454672e1e4afbb123b9</property>
 </producer>
 <producer id="producer48" in="00:00:00.000" out="00:00:04.960">
  <property name="length">00:00:05.000</property>
  <property name="eof">pause</property>
  <property name="resource">/home/liquidzulu/Documents/youtube-scripts/courses/libertarian-ethics/capsaicin/pseudo/defensive-force-and-proportionality.pseudo.srt-images/113.png</property>
  <property name="ttl">25</property>
  <property name="aspect_ratio">1</property>
  <property name="progressive">1</property>
  <property name="seekable">1</property>
  <property name="meta.media.width">1920</property>
  <property name="meta.media.height">1080</property>
  <property name="mlt_service">qimage</property>
  <property name="kdenlive:clipname"/>
  <property name="kdenlive:duration">00:00:05.000</property>
  <property name="kdenlive:folderid">41</property>
  <property name="kdenlive:clip_type">2</property>
  <property name="kdenlive:id">53</property>
  <property name="kdenlive:file_size">9546</property>
  <property name="kdenlive:file_hash">4dec3768c9d8cd77de329e6ab3fe7849</property>
 </producer>
 <producer id="producer49" in="00:00:00.000" out="00:00:04.960">
  <property name="length">00:00:05.000</property>
  <property name="eof">pause</property>
  <property name="resource">/home/liquidzulu/Documents/youtube-scripts/courses/libertarian-ethics/capsaicin/pseudo/defensive-force-and-proportionality.pseudo.srt-images/114.png</property>
  <property name="ttl">25</property>
  <property name="aspect_ratio">1</property>
  <property name="progressive">1</property>
  <property name="seekable">1</property>
  <property name="meta.media.width">1920</property>
  <property name="meta.media.height">1080</property>
  <property name="mlt_service">qimage</property>
  <property name="kdenlive:clipname"/>
  <property name="kdenlive:duration">00:00:05.000</property>
  <property name="kdenlive:folderid">41</property>
  <property name="kdenlive:clip_type">2</property>
  <property name="kdenlive:id">54</property>
  <property name="kdenlive:file_size">8923</property>
  <property name="kdenlive:file_hash">f00d944d0f1fffd345638148e4318a52</property>
 </producer>
 <producer id="producer52" in="00:00:00.000" out="00:00:04.960">
  <property name="length">00:00:05.000</property>
  <property name="eof">pause</property>
  <property name="resource">/home/liquidzulu/Documents/youtube-scripts/courses/libertarian-ethics/capsaicin/pseudo/defensive-force-and-proportionality.pseudo.srt-images/115.png</property>
  <property name="ttl">25</property>
  <property name="aspect_ratio">1</property>
  <property name="progressive">1</property>
  <property name="seekable">1</property>
  <property name="meta.media.width">1920</property>
  <property name="meta.media.height">1080</property>
  <property name="mlt_service">qimage</property>
  <property name="kdenlive:clipname"/>
  <property name="kdenlive:duration">00:00:05.000</property>
  <property name="kdenlive:folderid">41</property>
  <property name="kdenlive:clip_type">2</property>
  <property name="kdenlive:id">55</property>
  <property name="kdenlive:file_size">8969</property>
  <property name="kdenlive:file_hash">26ff166e158bb80ad6949d5eab2f52e2</property>
 </producer>
 <producer id="producer54" in="00:00:00.000" out="00:00:04.960">
  <property name="length">00:00:05.000</property>
  <property name="eof">pause</property>
  <property name="resource">/home/liquidzulu/Documents/youtube-scripts/courses/libertarian-ethics/capsaicin/pseudo/defensive-force-and-proportionality.pseudo.srt-images/116.png</property>
  <property name="ttl">25</property>
  <property name="aspect_ratio">1</property>
  <property name="progressive">1</property>
  <property name="seekable">1</property>
  <property name="meta.media.width">1920</property>
  <property name="meta.media.height">1080</property>
  <property name="mlt_service">qimage</property>
  <property name="kdenlive:clipname"/>
  <property name="kdenlive:duration">00:00:05.000</property>
  <property name="kdenlive:folderid">41</property>
  <property name="kdenlive:clip_type">2</property>
  <property name="kdenlive:id">57</property>
  <property name="kdenlive:file_size">9537</property>
  <property name="kdenlive:file_hash">c645d8a589ffedf29a61654bb20405a3</property>
 </producer>
 <producer id="producer53" in="00:00:00.000" out="00:00:04.960">
  <property name="length">00:00:05.000</property>
  <property name="eof">pause</property>
  <property name="resource">/home/liquidzulu/Documents/youtube-scripts/courses/libertarian-ethics/capsaicin/pseudo/defensive-force-and-proportionality.pseudo.srt-images/117.png</property>
  <property name="ttl">25</property>
  <property name="aspect_ratio">1</property>
  <property name="progressive">1</property>
  <property name="seekable">1</property>
  <property name="meta.media.width">1920</property>
  <property name="meta.media.height">1080</property>
  <property name="mlt_service">qimage</property>
  <property name="kdenlive:clipname"/>
  <property name="kdenlive:duration">00:00:05.000</property>
  <property name="kdenlive:folderid">41</property>
  <property name="kdenlive:clip_type">2</property>
  <property name="kdenlive:id">58</property>
  <property name="kdenlive:file_size">9218</property>
  <property name="kdenlive:file_hash">0a217f468475a7de9fea07dec0808c76</property>
 </producer>
 <producer id="producer55" in="00:00:00.000" out="00:00:04.960">
  <property name="length">00:00:05.000</property>
  <property name="eof">pause</property>
  <property name="resource">/home/liquidzulu/Documents/youtube-scripts/courses/libertarian-ethics/capsaicin/pseudo/defensive-force-and-proportionality.pseudo.srt-images/118.png</property>
  <property name="ttl">25</property>
  <property name="aspect_ratio">1</property>
  <property name="progressive">1</property>
  <property name="seekable">1</property>
  <property name="meta.media.width">1920</property>
  <property name="meta.media.height">1080</property>
  <property name="mlt_service">qimage</property>
  <property name="kdenlive:clipname"/>
  <property name="kdenlive:duration">00:00:05.000</property>
  <property name="kdenlive:folderid">41</property>
  <property name="kdenlive:clip_type">2</property>
  <property name="kdenlive:id">59</property>
  <property name="kdenlive:file_size">8872</property>
  <property name="kdenlive:file_hash">66f9ddbe89092c74363c7f0a8d952a0a</property>
 </producer>
 <producer id="producer56" in="00:00:00.000" out="00:00:04.960">
  <property name="length">00:00:05.000</property>
  <property name="eof">pause</property>
  <property name="resource">/home/liquidzulu/Documents/youtube-scripts/courses/libertarian-ethics/capsaicin/pseudo/defensive-force-and-proportionality.pseudo.srt-images/119.png</property>
  <property name="ttl">25</property>
  <property name="aspect_ratio">1</property>
  <property name="progressive">1</property>
  <property name="seekable">1</property>
  <property name="meta.media.width">1920</property>
  <property name="meta.media.height">1080</property>
  <property name="mlt_service">qimage</property>
  <property name="kdenlive:clipname"/>
  <property name="kdenlive:duration">00:00:05.000</property>
  <property name="kdenlive:folderid">41</property>
  <property name="kdenlive:clip_type">2</property>
  <property name="kdenlive:id">60</property>
  <property name="kdenlive:file_size">8304</property>
  <property name="kdenlive:file_hash">265b6060d7e1162aa09a7ec2b724eb74</property>
 </producer>
 <producer id="producer57" in="00:00:00.000" out="00:00:04.960">
  <property name="length">00:00:05.000</property>
  <property name="eof">pause</property>
  <property name="resource">/home/liquidzulu/Documents/youtube-scripts/courses/libertarian-ethics/capsaicin/pseudo/defensive-force-and-proportionality.pseudo.srt-images/12.png</property>
  <property name="ttl">25</property>
  <property name="aspect_ratio">1</property>
  <property name="progressive">1</property>
  <property name="seekable">1</property>
  <property name="meta.media.width">1920</property>
  <property name="meta.media.height">1080</property>
  <property name="mlt_service">qimage</property>
  <property name="kdenlive:clipname"/>
  <property name="kdenlive:duration">00:00:05.000</property>
  <property name="kdenlive:folderid">41</property>
  <property name="kdenlive:clip_type">2</property>
  <property name="kdenlive:id">61</property>
  <property name="kdenlive:file_size">9376</property>
  <property name="kdenlive:file_hash">b2fef02358d2d7989426e491cc5a3bb9</property>
 </producer>
 <producer id="producer58" in="00:00:00.000" out="00:00:04.960">
  <property name="length">00:00:05.000</property>
  <property name="eof">pause</property>
  <property name="resource">/home/liquidzulu/Documents/youtube-scripts/courses/libertarian-ethics/capsaicin/pseudo/defensive-force-and-proportionality.pseudo.srt-images/120.png</property>
  <property name="ttl">25</property>
  <property name="aspect_ratio">1</property>
  <property name="progressive">1</property>
  <property name="seekable">1</property>
  <property name="meta.media.width">1920</property>
  <property name="meta.media.height">1080</property>
  <property name="mlt_service">qimage</property>
  <property name="kdenlive:clipname"/>
  <property name="kdenlive:duration">00:00:05.000</property>
  <property name="kdenlive:folderid">41</property>
  <property name="kdenlive:clip_type">2</property>
  <property name="kdenlive:id">62</property>
  <property name="kdenlive:file_size">9017</property>
  <property name="kdenlive:file_hash">29f5b39f0d5f782b8c35948e8d85329a</property>
 </producer>
 <producer id="producer59" in="00:00:00.000" out="00:00:04.960">
  <property name="length">00:00:05.000</property>
  <property name="eof">pause</property>
  <property name="resource">/home/liquidzulu/Documents/youtube-scripts/courses/libertarian-ethics/capsaicin/pseudo/defensive-force-and-proportionality.pseudo.srt-images/121.png</property>
  <property name="ttl">25</property>
  <property name="aspect_ratio">1</property>
  <property name="progressive">1</property>
  <property name="seekable">1</property>
  <property name="meta.media.width">1920</property>
  <property name="meta.media.height">1080</property>
  <property name="mlt_service">qimage</property>
  <property name="kdenlive:clipname"/>
  <property name="kdenlive:duration">00:00:05.000</property>
  <property name="kdenlive:folderid">41</property>
  <property name="kdenlive:clip_type">2</property>
  <property name="kdenlive:id">63</property>
  <property name="kdenlive:file_size">7869</property>
  <property name="kdenlive:file_hash">3e12408ea1b2e03ecc6abe0cb3c4b2b0</property>
 </producer>
 <producer id="producer60" in="00:00:00.000" out="00:00:04.960">
  <property name="length">00:00:05.000</property>
  <property name="eof">pause</property>
  <property name="resource">/home/liquidzulu/Documents/youtube-scripts/courses/libertarian-ethics/capsaicin/pseudo/defensive-force-and-proportionality.pseudo.srt-images/122.png</property>
  <property name="ttl">25</property>
  <property name="aspect_ratio">1</property>
  <property name="progressive">1</property>
  <property name="seekable">1</property>
  <property name="meta.media.width">1920</property>
  <property name="meta.media.height">1080</property>
  <property name="mlt_service">qimage</property>
  <property name="kdenlive:clipname"/>
  <property name="kdenlive:duration">00:00:05.000</property>
  <property name="kdenlive:folderid">41</property>
  <property name="kdenlive:clip_type">2</property>
  <property name="kdenlive:id">64</property>
  <property name="kdenlive:file_size">7761</property>
  <property name="kdenlive:file_hash">57abe176196b5f9695b154430414329d</property>
 </producer>
 <producer id="producer61" in="00:00:00.000" out="00:00:04.960">
  <property name="length">00:00:05.000</property>
  <property name="eof">pause</property>
  <property name="resource">/home/liquidzulu/Documents/youtube-scripts/courses/libertarian-ethics/capsaicin/pseudo/defensive-force-and-proportionality.pseudo.srt-images/123.png</property>
  <property name="ttl">25</property>
  <property name="aspect_ratio">1</property>
  <property name="progressive">1</property>
  <property name="seekable">1</property>
  <property name="meta.media.width">1920</property>
  <property name="meta.media.height">1080</property>
  <property name="mlt_service">qimage</property>
  <property name="kdenlive:clipname"/>
  <property name="kdenlive:duration">00:00:05.000</property>
  <property name="kdenlive:folderid">41</property>
  <property name="kdenlive:clip_type">2</property>
  <property name="kdenlive:id">65</property>
  <property name="kdenlive:file_size">8432</property>
  <property name="kdenlive:file_hash">65c926cc22ffacff32ada1aeaba8c9a2</property>
 </producer>
 <producer id="producer62" in="00:00:00.000" out="00:00:04.960">
  <property name="length">00:00:05.000</property>
  <property name="eof">pause</property>
  <property name="resource">/home/liquidzulu/Documents/youtube-scripts/courses/libertarian-ethics/capsaicin/pseudo/defensive-force-and-proportionality.pseudo.srt-images/124.png</property>
  <property name="ttl">25</property>
  <property name="aspect_ratio">1</property>
  <property name="progressive">1</property>
  <property name="seekable">1</property>
  <property name="meta.media.width">1920</property>
  <property name="meta.media.height">1080</property>
  <property name="mlt_service">qimage</property>
  <property name="kdenlive:clipname"/>
  <property name="kdenlive:duration">00:00:05.000</property>
  <property name="kdenlive:folderid">41</property>
  <property name="kdenlive:clip_type">2</property>
  <property name="kdenlive:id">66</property>
  <property name="kdenlive:file_size">8891</property>
  <property name="kdenlive:file_hash">f847b49b49adfdb750f3c6fb6e7f77be</property>
 </producer>
 <producer id="producer63" in="00:00:00.000" out="00:00:04.960">
  <property name="length">00:00:05.000</property>
  <property name="eof">pause</property>
  <property name="resource">/home/liquidzulu/Documents/youtube-scripts/courses/libertarian-ethics/capsaicin/pseudo/defensive-force-and-proportionality.pseudo.srt-images/125.png</property>
  <property name="ttl">25</property>
  <property name="aspect_ratio">1</property>
  <property name="progressive">1</property>
  <property name="seekable">1</property>
  <property name="meta.media.width">1920</property>
  <property name="meta.media.height">1080</property>
  <property name="mlt_service">qimage</property>
  <property name="kdenlive:clipname"/>
  <property name="kdenlive:duration">00:00:05.000</property>
  <property name="kdenlive:folderid">41</property>
  <property name="kdenlive:clip_type">2</property>
  <property name="kdenlive:id">67</property>
  <property name="kdenlive:file_size">9638</property>
  <property name="kdenlive:file_hash">25669b0384256dfbd7dc182bb20d39e6</property>
 </producer>
 <producer id="producer64" in="00:00:00.000" out="00:00:04.960">
  <property name="length">00:00:05.000</property>
  <property name="eof">pause</property>
  <property name="resource">/home/liquidzulu/Documents/youtube-scripts/courses/libertarian-ethics/capsaicin/pseudo/defensive-force-and-proportionality.pseudo.srt-images/126.png</property>
  <property name="ttl">25</property>
  <property name="aspect_ratio">1</property>
  <property name="progressive">1</property>
  <property name="seekable">1</property>
  <property name="meta.media.width">1920</property>
  <property name="meta.media.height">1080</property>
  <property name="mlt_service">qimage</property>
  <property name="kdenlive:clipname"/>
  <property name="kdenlive:duration">00:00:05.000</property>
  <property name="kdenlive:folderid">41</property>
  <property name="kdenlive:clip_type">2</property>
  <property name="kdenlive:id">68</property>
  <property name="kdenlive:file_size">8740</property>
  <property name="kdenlive:file_hash">32ecf90a85a2f201c701b7eb94221935</property>
 </producer>
 <producer id="producer65" in="00:00:00.000" out="00:00:04.960">
  <property name="length">00:00:05.000</property>
  <property name="eof">pause</property>
  <property name="resource">/home/liquidzulu/Documents/youtube-scripts/courses/libertarian-ethics/capsaicin/pseudo/defensive-force-and-proportionality.pseudo.srt-images/127.png</property>
  <property name="ttl">25</property>
  <property name="aspect_ratio">1</property>
  <property name="progressive">1</property>
  <property name="seekable">1</property>
  <property name="meta.media.width">1920</property>
  <property name="meta.media.height">1080</property>
  <property name="mlt_service">qimage</property>
  <property name="kdenlive:clipname"/>
  <property name="kdenlive:duration">00:00:05.000</property>
  <property name="kdenlive:folderid">41</property>
  <property name="kdenlive:clip_type">2</property>
  <property name="kdenlive:id">69</property>
  <property name="kdenlive:file_size">8856</property>
  <property name="kdenlive:file_hash">c122576e5ffd231b26c59597d3d8b2e1</property>
 </producer>
 <producer id="producer66" in="00:00:00.000" out="00:00:04.960">
  <property name="length">00:00:05.000</property>
  <property name="eof">pause</property>
  <property name="resource">/home/liquidzulu/Documents/youtube-scripts/courses/libertarian-ethics/capsaicin/pseudo/defensive-force-and-proportionality.pseudo.srt-images/128.png</property>
  <property name="ttl">25</property>
  <property name="aspect_ratio">1</property>
  <property name="progressive">1</property>
  <property name="seekable">1</property>
  <property name="meta.media.width">1920</property>
  <property name="meta.media.height">1080</property>
  <property name="mlt_service">qimage</property>
  <property name="kdenlive:clipname"/>
  <property name="kdenlive:duration">00:00:05.000</property>
  <property name="kdenlive:folderid">41</property>
  <property name="kdenlive:clip_type">2</property>
  <property name="kdenlive:id">70</property>
  <property name="kdenlive:file_size">9091</property>
  <property name="kdenlive:file_hash">ba38aa219ee477ddc2f4a6de470980d9</property>
 </producer>
 <producer id="producer67" in="00:00:00.000" out="00:00:04.960">
  <property name="length">00:00:05.000</property>
  <property name="eof">pause</property>
  <property name="resource">/home/liquidzulu/Documents/youtube-scripts/courses/libertarian-ethics/capsaicin/pseudo/defensive-force-and-proportionality.pseudo.srt-images/129.png</property>
  <property name="ttl">25</property>
  <property name="aspect_ratio">1</property>
  <property name="progressive">1</property>
  <property name="seekable">1</property>
  <property name="meta.media.width">1920</property>
  <property name="meta.media.height">1080</property>
  <property name="mlt_service">qimage</property>
  <property name="kdenlive:clipname"/>
  <property name="kdenlive:duration">00:00:05.000</property>
  <property name="kdenlive:folderid">41</property>
  <property name="kdenlive:clip_type">2</property>
  <property name="kdenlive:id">71</property>
  <property name="kdenlive:file_size">8397</property>
  <property name="kdenlive:file_hash">e2f4b94665e8defe0ba6db57a111d7aa</property>
 </producer>
 <producer id="producer68" in="00:00:00.000" out="00:00:04.960">
  <property name="length">00:00:05.000</property>
  <property name="eof">pause</property>
  <property name="resource">/home/liquidzulu/Documents/youtube-scripts/courses/libertarian-ethics/capsaicin/pseudo/defensive-force-and-proportionality.pseudo.srt-images/13.png</property>
  <property name="ttl">25</property>
  <property name="aspect_ratio">1</property>
  <property name="progressive">1</property>
  <property name="seekable">1</property>
  <property name="meta.media.width">1920</property>
  <property name="meta.media.height">1080</property>
  <property name="mlt_service">qimage</property>
  <property name="kdenlive:clipname"/>
  <property name="kdenlive:duration">00:00:05.000</property>
  <property name="kdenlive:folderid">41</property>
  <property name="kdenlive:clip_type">2</property>
  <property name="kdenlive:id">72</property>
  <property name="kdenlive:file_size">7524</property>
  <property name="kdenlive:file_hash">502e565614e8e4adbe9f2dbb06cb72af</property>
 </producer>
 <producer id="producer70" in="00:00:00.000" out="00:00:04.960">
  <property name="length">00:00:05.000</property>
  <property name="eof">pause</property>
  <property name="resource">/home/liquidzulu/Documents/youtube-scripts/courses/libertarian-ethics/capsaicin/pseudo/defensive-force-and-proportionality.pseudo.srt-images/130.png</property>
  <property name="ttl">25</property>
  <property name="aspect_ratio">1</property>
  <property name="progressive">1</property>
  <property name="seekable">1</property>
  <property name="meta.media.width">1920</property>
  <property name="meta.media.height">1080</property>
  <property name="mlt_service">qimage</property>
  <property name="kdenlive:clipname"/>
  <property name="kdenlive:duration">00:00:05.000</property>
  <property name="kdenlive:folderid">41</property>
  <property name="kdenlive:clip_type">2</property>
  <property name="kdenlive:id">73</property>
  <property name="kdenlive:file_size">7687</property>
  <property name="kdenlive:file_hash">4db8e7814b992b456e9d751b70fd0d5d</property>
 </producer>
 <producer id="producer69" in="00:00:00.000" out="00:00:04.960">
  <property name="length">00:00:05.000</property>
  <property name="eof">pause</property>
  <property name="resource">/home/liquidzulu/Documents/youtube-scripts/courses/libertarian-ethics/capsaicin/pseudo/defensive-force-and-proportionality.pseudo.srt-images/131.png</property>
  <property name="ttl">25</property>
  <property name="aspect_ratio">1</property>
  <property name="progressive">1</property>
  <property name="seekable">1</property>
  <property name="meta.media.width">1920</property>
  <property name="meta.media.height">1080</property>
  <property name="mlt_service">qimage</property>
  <property name="kdenlive:clipname"/>
  <property name="kdenlive:duration">00:00:05.000</property>
  <property name="kdenlive:folderid">41</property>
  <property name="kdenlive:clip_type">2</property>
  <property name="kdenlive:id">74</property>
  <property name="kdenlive:file_size">8407</property>
  <property name="kdenlive:file_hash">4338dce927aeb2ce700e948ce3ee03ed</property>
 </producer>
 <producer id="producer72" in="00:00:00.000" out="00:00:04.960">
  <property name="length">00:00:05.000</property>
  <property name="eof">pause</property>
  <property name="resource">/home/liquidzulu/Documents/youtube-scripts/courses/libertarian-ethics/capsaicin/pseudo/defensive-force-and-proportionality.pseudo.srt-images/132.png</property>
  <property name="ttl">25</property>
  <property name="aspect_ratio">1</property>
  <property name="progressive">1</property>
  <property name="seekable">1</property>
  <property name="meta.media.width">1920</property>
  <property name="meta.media.height">1080</property>
  <property name="mlt_service">qimage</property>
  <property name="kdenlive:clipname"/>
  <property name="kdenlive:duration">00:00:05.000</property>
  <property name="kdenlive:folderid">41</property>
  <property name="kdenlive:clip_type">2</property>
  <property name="kdenlive:id">75</property>
  <property name="kdenlive:file_size">9231</property>
  <property name="kdenlive:file_hash">e585072ca17cdf8c869304ebc3505ce8</property>
 </producer>
 <producer id="producer73" in="00:00:00.000" out="00:00:04.960">
  <property name="length">00:00:05.000</property>
  <property name="eof">pause</property>
  <property name="resource">/home/liquidzulu/Documents/youtube-scripts/courses/libertarian-ethics/capsaicin/pseudo/defensive-force-and-proportionality.pseudo.srt-images/133.png</property>
  <property name="ttl">25</property>
  <property name="aspect_ratio">1</property>
  <property name="progressive">1</property>
  <property name="seekable">1</property>
  <property name="meta.media.width">1920</property>
  <property name="meta.media.height">1080</property>
  <property name="mlt_service">qimage</property>
  <property name="kdenlive:clipname"/>
  <property name="kdenlive:duration">00:00:05.000</property>
  <property name="kdenlive:folderid">41</property>
  <property name="kdenlive:clip_type">2</property>
  <property name="kdenlive:id">76</property>
  <property name="kdenlive:file_size">8520</property>
  <property name="kdenlive:file_hash">75207887004f69008950c10d94cd30f9</property>
 </producer>
 <producer id="producer71" in="00:00:00.000" out="00:00:04.960">
  <property name="length">00:00:05.000</property>
  <property name="eof">pause</property>
  <property name="resource">/home/liquidzulu/Documents/youtube-scripts/courses/libertarian-ethics/capsaicin/pseudo/defensive-force-and-proportionality.pseudo.srt-images/134.png</property>
  <property name="ttl">25</property>
  <property name="aspect_ratio">1</property>
  <property name="progressive">1</property>
  <property name="seekable">1</property>
  <property name="meta.media.width">1920</property>
  <property name="meta.media.height">1080</property>
  <property name="mlt_service">qimage</property>
  <property name="kdenlive:clipname"/>
  <property name="kdenlive:duration">00:00:05.000</property>
  <property name="kdenlive:folderid">41</property>
  <property name="kdenlive:clip_type">2</property>
  <property name="kdenlive:id">77</property>
  <property name="kdenlive:file_size">8960</property>
  <property name="kdenlive:file_hash">e9905e479ca21aa384085cf52f1040a8</property>
 </producer>
 <producer id="producer74" in="00:00:00.000" out="00:00:04.960">
  <property name="length">00:00:05.000</property>
  <property name="eof">pause</property>
  <property name="resource">/home/liquidzulu/Documents/youtube-scripts/courses/libertarian-ethics/capsaicin/pseudo/defensive-force-and-proportionality.pseudo.srt-images/135.png</property>
  <property name="ttl">25</property>
  <property name="aspect_ratio">1</property>
  <property name="progressive">1</property>
  <property name="seekable">1</property>
  <property name="meta.media.width">1920</property>
  <property name="meta.media.height">1080</property>
  <property name="mlt_service">qimage</property>
  <property name="kdenlive:clipname"/>
  <property name="kdenlive:duration">00:00:05.000</property>
  <property name="kdenlive:folderid">41</property>
  <property name="kdenlive:clip_type">2</property>
  <property name="kdenlive:id">78</property>
  <property name="kdenlive:file_size">8605</property>
  <property name="kdenlive:file_hash">26afb35c297175dccd2b91d5a2e7316c</property>
 </producer>
 <producer id="producer75" in="00:00:00.000" out="00:00:04.960">
  <property name="length">00:00:05.000</property>
  <property name="eof">pause</property>
  <property name="resource">/home/liquidzulu/Documents/youtube-scripts/courses/libertarian-ethics/capsaicin/pseudo/defensive-force-and-proportionality.pseudo.srt-images/136.png</property>
  <property name="ttl">25</property>
  <property name="aspect_ratio">1</property>
  <property name="progressive">1</property>
  <property name="seekable">1</property>
  <property name="meta.media.width">1920</property>
  <property name="meta.media.height">1080</property>
  <property name="mlt_service">qimage</property>
  <property name="kdenlive:clipname"/>
  <property name="kdenlive:duration">00:00:05.000</property>
  <property name="kdenlive:folderid">41</property>
  <property name="kdenlive:clip_type">2</property>
  <property name="kdenlive:id">79</property>
  <property name="kdenlive:file_size">8574</property>
  <property name="kdenlive:file_hash">02910731e4fd7298538dd09b32af9ca1</property>
 </producer>
 <producer id="producer77" in="00:00:00.000" out="00:00:04.960">
  <property name="length">00:00:05.000</property>
  <property name="eof">pause</property>
  <property name="resource">/home/liquidzulu/Documents/youtube-scripts/courses/libertarian-ethics/capsaicin/pseudo/defensive-force-and-proportionality.pseudo.srt-images/137.png</property>
  <property name="ttl">25</property>
  <property name="aspect_ratio">1</property>
  <property name="progressive">1</property>
  <property name="seekable">1</property>
  <property name="meta.media.width">1920</property>
  <property name="meta.media.height">1080</property>
  <property name="mlt_service">qimage</property>
  <property name="kdenlive:clipname"/>
  <property name="kdenlive:duration">00:00:05.000</property>
  <property name="kdenlive:folderid">41</property>
  <property name="kdenlive:clip_type">2</property>
  <property name="kdenlive:id">80</property>
  <property name="kdenlive:file_size">8676</property>
  <property name="kdenlive:file_hash">6fd3fa390ba6945db38a3713e941b4f7</property>
 </producer>
 <producer id="producer78" in="00:00:00.000" out="00:00:04.960">
  <property name="length">00:00:05.000</property>
  <property name="eof">pause</property>
  <property name="resource">/home/liquidzulu/Documents/youtube-scripts/courses/libertarian-ethics/capsaicin/pseudo/defensive-force-and-proportionality.pseudo.srt-images/138.png</property>
  <property name="ttl">25</property>
  <property name="aspect_ratio">1</property>
  <property name="progressive">1</property>
  <property name="seekable">1</property>
  <property name="meta.media.width">1920</property>
  <property name="meta.media.height">1080</property>
  <property name="mlt_service">qimage</property>
  <property name="kdenlive:clipname"/>
  <property name="kdenlive:duration">00:00:05.000</property>
  <property name="kdenlive:folderid">41</property>
  <property name="kdenlive:clip_type">2</property>
  <property name="kdenlive:id">81</property>
  <property name="kdenlive:file_size">9412</property>
  <property name="kdenlive:file_hash">b2e44c35ee559edb2213f346b1fd7872</property>
 </producer>
 <producer id="producer76" in="00:00:00.000" out="00:00:04.960">
  <property name="length">00:00:05.000</property>
  <property name="eof">pause</property>
  <property name="resource">/home/liquidzulu/Documents/youtube-scripts/courses/libertarian-ethics/capsaicin/pseudo/defensive-force-and-proportionality.pseudo.srt-images/139.png</property>
  <property name="ttl">25</property>
  <property name="aspect_ratio">1</property>
  <property name="progressive">1</property>
  <property name="seekable">1</property>
  <property name="meta.media.width">1920</property>
  <property name="meta.media.height">1080</property>
  <property name="mlt_service">qimage</property>
  <property name="kdenlive:clipname"/>
  <property name="kdenlive:duration">00:00:05.000</property>
  <property name="kdenlive:folderid">41</property>
  <property name="kdenlive:clip_type">2</property>
  <property name="kdenlive:id">82</property>
  <property name="kdenlive:file_size">9147</property>
  <property name="kdenlive:file_hash">61976d2d3de42b1c138194a742d4dc6a</property>
 </producer>
 <producer id="producer79" in="00:00:00.000" out="00:00:04.960">
  <property name="length">00:00:05.000</property>
  <property name="eof">pause</property>
  <property name="resource">/home/liquidzulu/Documents/youtube-scripts/courses/libertarian-ethics/capsaicin/pseudo/defensive-force-and-proportionality.pseudo.srt-images/14.png</property>
  <property name="ttl">25</property>
  <property name="aspect_ratio">1</property>
  <property name="progressive">1</property>
  <property name="seekable">1</property>
  <property name="meta.media.width">1920</property>
  <property name="meta.media.height">1080</property>
  <property name="mlt_service">qimage</property>
  <property name="kdenlive:clipname"/>
  <property name="kdenlive:duration">00:00:05.000</property>
  <property name="kdenlive:folderid">41</property>
  <property name="kdenlive:clip_type">2</property>
  <property name="kdenlive:id">83</property>
  <property name="kdenlive:file_size">9338</property>
  <property name="kdenlive:file_hash">b3d792d4437bcb31f970f20b853d325e</property>
 </producer>
 <producer id="producer80" in="00:00:00.000" out="00:00:04.960">
  <property name="length">00:00:05.000</property>
  <property name="eof">pause</property>
  <property name="resource">/home/liquidzulu/Documents/youtube-scripts/courses/libertarian-ethics/capsaicin/pseudo/defensive-force-and-proportionality.pseudo.srt-images/140.png</property>
  <property name="ttl">25</property>
  <property name="aspect_ratio">1</property>
  <property name="progressive">1</property>
  <property name="seekable">1</property>
  <property name="meta.media.width">1920</property>
  <property name="meta.media.height">1080</property>
  <property name="mlt_service">qimage</property>
  <property name="kdenlive:clipname"/>
  <property name="kdenlive:duration">00:00:05.000</property>
  <property name="kdenlive:folderid">41</property>
  <property name="kdenlive:clip_type">2</property>
  <property name="kdenlive:id">84</property>
  <property name="kdenlive:file_size">8869</property>
  <property name="kdenlive:file_hash">9e2abc482293b887b3f49d700832dfb0</property>
 </producer>
 <producer id="producer81" in="00:00:00.000" out="00:00:04.960">
  <property name="length">00:00:05.000</property>
  <property name="eof">pause</property>
  <property name="resource">/home/liquidzulu/Documents/youtube-scripts/courses/libertarian-ethics/capsaicin/pseudo/defensive-force-and-proportionality.pseudo.srt-images/141.png</property>
  <property name="ttl">25</property>
  <property name="aspect_ratio">1</property>
  <property name="progressive">1</property>
  <property name="seekable">1</property>
  <property name="meta.media.width">1920</property>
  <property name="meta.media.height">1080</property>
  <property name="mlt_service">qimage</property>
  <property name="kdenlive:clipname"/>
  <property name="kdenlive:duration">00:00:05.000</property>
  <property name="kdenlive:folderid">41</property>
  <property name="kdenlive:clip_type">2</property>
  <property name="kdenlive:id">85</property>
  <property name="kdenlive:file_size">8573</property>
  <property name="kdenlive:file_hash">a10004c8e19956081b4c1c2b6fc62c51</property>
 </producer>
 <producer id="producer82" in="00:00:00.000" out="00:00:04.960">
  <property name="length">00:00:05.000</property>
  <property name="eof">pause</property>
  <property name="resource">/home/liquidzulu/Documents/youtube-scripts/courses/libertarian-ethics/capsaicin/pseudo/defensive-force-and-proportionality.pseudo.srt-images/142.png</property>
  <property name="ttl">25</property>
  <property name="aspect_ratio">1</property>
  <property name="progressive">1</property>
  <property name="seekable">1</property>
  <property name="meta.media.width">1920</property>
  <property name="meta.media.height">1080</property>
  <property name="mlt_service">qimage</property>
  <property name="kdenlive:clipname"/>
  <property name="kdenlive:duration">00:00:05.000</property>
  <property name="kdenlive:folderid">41</property>
  <property name="kdenlive:clip_type">2</property>
  <property name="kdenlive:id">86</property>
  <property name="kdenlive:file_size">8789</property>
  <property name="kdenlive:file_hash">c360e34ba53ede1748f61967ff7d102d</property>
 </producer>
 <producer id="producer83" in="00:00:00.000" out="00:00:04.960">
  <property name="length">00:00:05.000</property>
  <property name="eof">pause</property>
  <property name="resource">/home/liquidzulu/Documents/youtube-scripts/courses/libertarian-ethics/capsaicin/pseudo/defensive-force-and-proportionality.pseudo.srt-images/143.png</property>
  <property name="ttl">25</property>
  <property name="aspect_ratio">1</property>
  <property name="progressive">1</property>
  <property name="seekable">1</property>
  <property name="meta.media.width">1920</property>
  <property name="meta.media.height">1080</property>
  <property name="mlt_service">qimage</property>
  <property name="kdenlive:clipname"/>
  <property name="kdenlive:duration">00:00:05.000</property>
  <property name="kdenlive:folderid">41</property>
  <property name="kdenlive:clip_type">2</property>
  <property name="kdenlive:id">87</property>
  <property name="kdenlive:file_size">7898</property>
  <property name="kdenlive:file_hash">fba4ce2b3515b84cdac0dfe06662ad62</property>
 </producer>
 <producer id="producer84" in="00:00:00.000" out="00:00:04.960">
  <property name="length">00:00:05.000</property>
  <property name="eof">pause</property>
  <property name="resource">/home/liquidzulu/Documents/youtube-scripts/courses/libertarian-ethics/capsaicin/pseudo/defensive-force-and-proportionality.pseudo.srt-images/144.png</property>
  <property name="ttl">25</property>
  <property name="aspect_ratio">1</property>
  <property name="progressive">1</property>
  <property name="seekable">1</property>
  <property name="meta.media.width">1920</property>
  <property name="meta.media.height">1080</property>
  <property name="mlt_service">qimage</property>
  <property name="kdenlive:clipname"/>
  <property name="kdenlive:duration">00:00:05.000</property>
  <property name="kdenlive:folderid">41</property>
  <property name="kdenlive:clip_type">2</property>
  <property name="kdenlive:id">88</property>
  <property name="kdenlive:file_size">9270</property>
  <property name="kdenlive:file_hash">a5b567352332636823e4f03f0444537d</property>
 </producer>
 <producer id="producer86" in="00:00:00.000" out="00:00:04.960">
  <property name="length">00:00:05.000</property>
  <property name="eof">pause</property>
  <property name="resource">/home/liquidzulu/Documents/youtube-scripts/courses/libertarian-ethics/capsaicin/pseudo/defensive-force-and-proportionality.pseudo.srt-images/145.png</property>
  <property name="ttl">25</property>
  <property name="aspect_ratio">1</property>
  <property name="progressive">1</property>
  <property name="seekable">1</property>
  <property name="meta.media.width">1920</property>
  <property name="meta.media.height">1080</property>
  <property name="mlt_service">qimage</property>
  <property name="kdenlive:clipname"/>
  <property name="kdenlive:duration">00:00:05.000</property>
  <property name="kdenlive:folderid">41</property>
  <property name="kdenlive:clip_type">2</property>
  <property name="kdenlive:id">89</property>
  <property name="kdenlive:file_size">9135</property>
  <property name="kdenlive:file_hash">198e45f6c03cf5c064515356748b72af</property>
 </producer>
 <producer id="producer85" in="00:00:00.000" out="00:00:04.960">
  <property name="length">00:00:05.000</property>
  <property name="eof">pause</property>
  <property name="resource">/home/liquidzulu/Documents/youtube-scripts/courses/libertarian-ethics/capsaicin/pseudo/defensive-force-and-proportionality.pseudo.srt-images/146.png</property>
  <property name="ttl">25</property>
  <property name="aspect_ratio">1</property>
  <property name="progressive">1</property>
  <property name="seekable">1</property>
  <property name="meta.media.width">1920</property>
  <property name="meta.media.height">1080</property>
  <property name="mlt_service">qimage</property>
  <property name="kdenlive:clipname"/>
  <property name="kdenlive:duration">00:00:05.000</property>
  <property name="kdenlive:folderid">41</property>
  <property name="kdenlive:clip_type">2</property>
  <property name="kdenlive:id">90</property>
  <property name="kdenlive:file_size">9446</property>
  <property name="kdenlive:file_hash">9ec9b77c4840b5495d557736204b2ca3</property>
 </producer>
 <producer id="producer87" in="00:00:00.000" out="00:00:04.960">
  <property name="length">00:00:05.000</property>
  <property name="eof">pause</property>
  <property name="resource">/home/liquidzulu/Documents/youtube-scripts/courses/libertarian-ethics/capsaicin/pseudo/defensive-force-and-proportionality.pseudo.srt-images/147.png</property>
  <property name="ttl">25</property>
  <property name="aspect_ratio">1</property>
  <property name="progressive">1</property>
  <property name="seekable">1</property>
  <property name="meta.media.width">1920</property>
  <property name="meta.media.height">1080</property>
  <property name="mlt_service">qimage</property>
  <property name="kdenlive:clipname"/>
  <property name="kdenlive:duration">00:00:05.000</property>
  <property name="kdenlive:folderid">41</property>
  <property name="kdenlive:clip_type">2</property>
  <property name="kdenlive:id">91</property>
  <property name="kdenlive:file_size">8909</property>
  <property name="kdenlive:file_hash">fda1ce112c1bec96fab601c66178e636</property>
 </producer>
 <producer id="producer88" in="00:00:00.000" out="00:00:04.960">
  <property name="length">00:00:05.000</property>
  <property name="eof">pause</property>
  <property name="resource">/home/liquidzulu/Documents/youtube-scripts/courses/libertarian-ethics/capsaicin/pseudo/defensive-force-and-proportionality.pseudo.srt-images/148.png</property>
  <property name="ttl">25</property>
  <property name="aspect_ratio">1</property>
  <property name="progressive">1</property>
  <property name="seekable">1</property>
  <property name="meta.media.width">1920</property>
  <property name="meta.media.height">1080</property>
  <property name="mlt_service">qimage</property>
  <property name="kdenlive:clipname"/>
  <property name="kdenlive:duration">00:00:05.000</property>
  <property name="kdenlive:folderid">41</property>
  <property name="kdenlive:clip_type">2</property>
  <property name="kdenlive:id">92</property>
  <property name="kdenlive:file_size">9548</property>
  <property name="kdenlive:file_hash">e47f5d059db7b15d2fd9c63919b63d27</property>
 </producer>
 <producer id="producer89" in="00:00:00.000" out="00:00:04.960">
  <property name="length">00:00:05.000</property>
  <property name="eof">pause</property>
  <property name="resource">/home/liquidzulu/Documents/youtube-scripts/courses/libertarian-ethics/capsaicin/pseudo/defensive-force-and-proportionality.pseudo.srt-images/149.png</property>
  <property name="ttl">25</property>
  <property name="aspect_ratio">1</property>
  <property name="progressive">1</property>
  <property name="seekable">1</property>
  <property name="meta.media.width">1920</property>
  <property name="meta.media.height">1080</property>
  <property name="mlt_service">qimage</property>
  <property name="kdenlive:clipname"/>
  <property name="kdenlive:duration">00:00:05.000</property>
  <property name="kdenlive:folderid">41</property>
  <property name="kdenlive:clip_type">2</property>
  <property name="kdenlive:id">93</property>
  <property name="kdenlive:file_size">8782</property>
  <property name="kdenlive:file_hash">75179f4266ebb638c150f88839837ea0</property>
 </producer>
 <producer id="producer90" in="00:00:00.000" out="00:00:04.960">
  <property name="length">00:00:05.000</property>
  <property name="eof">pause</property>
  <property name="resource">/home/liquidzulu/Documents/youtube-scripts/courses/libertarian-ethics/capsaicin/pseudo/defensive-force-and-proportionality.pseudo.srt-images/150.png</property>
  <property name="ttl">25</property>
  <property name="aspect_ratio">1</property>
  <property name="progressive">1</property>
  <property name="seekable">1</property>
  <property name="meta.media.width">1920</property>
  <property name="meta.media.height">1080</property>
  <property name="mlt_service">qimage</property>
  <property name="kdenlive:clipname"/>
  <property name="kdenlive:duration">00:00:05.000</property>
  <property name="kdenlive:folderid">41</property>
  <property name="kdenlive:clip_type">2</property>
  <property name="kdenlive:id">94</property>
  <property name="kdenlive:file_size">8668</property>
  <property name="kdenlive:file_hash">4795df67d2296709c5634997b34be043</property>
 </producer>
 <producer id="producer91" in="00:00:00.000" out="00:00:04.960">
  <property name="length">00:00:05.000</property>
  <property name="eof">pause</property>
  <property name="resource">/home/liquidzulu/Documents/youtube-scripts/courses/libertarian-ethics/capsaicin/pseudo/defensive-force-and-proportionality.pseudo.srt-images/151.png</property>
  <property name="ttl">25</property>
  <property name="aspect_ratio">1</property>
  <property name="progressive">1</property>
  <property name="seekable">1</property>
  <property name="meta.media.width">1920</property>
  <property name="meta.media.height">1080</property>
  <property name="mlt_service">qimage</property>
  <property name="kdenlive:clipname"/>
  <property name="kdenlive:duration">00:00:05.000</property>
  <property name="kdenlive:folderid">41</property>
  <property name="kdenlive:clip_type">2</property>
  <property name="kdenlive:id">95</property>
  <property name="kdenlive:file_size">8594</property>
  <property name="kdenlive:file_hash">26255403995e062d767ac88c81b5bb75</property>
 </producer>
 <producer id="producer94" in="00:00:00.000" out="00:00:04.960">
  <property name="length">00:00:05.000</property>
  <property name="eof">pause</property>
  <property name="resource">/home/liquidzulu/Documents/youtube-scripts/courses/libertarian-ethics/capsaicin/pseudo/defensive-force-and-proportionality.pseudo.srt-images/152.png</property>
  <property name="ttl">25</property>
  <property name="aspect_ratio">1</property>
  <property name="progressive">1</property>
  <property name="seekable">1</property>
  <property name="meta.media.width">1920</property>
  <property name="meta.media.height">1080</property>
  <property name="mlt_service">qimage</property>
  <property name="kdenlive:clipname"/>
  <property name="kdenlive:duration">00:00:05.000</property>
  <property name="kdenlive:folderid">41</property>
  <property name="kdenlive:clip_type">2</property>
  <property name="kdenlive:id">96</property>
  <property name="kdenlive:file_size">8368</property>
  <property name="kdenlive:file_hash">79e19107273d574eaef788983f56b7c8</property>
 </producer>
 <producer id="producer92" in="00:00:00.000" out="00:00:04.960">
  <property name="length">00:00:05.000</property>
  <property name="eof">pause</property>
  <property name="resource">/home/liquidzulu/Documents/youtube-scripts/courses/libertarian-ethics/capsaicin/pseudo/defensive-force-and-proportionality.pseudo.srt-images/153.png</property>
  <property name="ttl">25</property>
  <property name="aspect_ratio">1</property>
  <property name="progressive">1</property>
  <property name="seekable">1</property>
  <property name="meta.media.width">1920</property>
  <property name="meta.media.height">1080</property>
  <property name="mlt_service">qimage</property>
  <property name="kdenlive:clipname"/>
  <property name="kdenlive:duration">00:00:05.000</property>
  <property name="kdenlive:folderid">41</property>
  <property name="kdenlive:clip_type">2</property>
  <property name="kdenlive:id">97</property>
  <property name="kdenlive:file_size">9667</property>
  <property name="kdenlive:file_hash">95bcd7567980e12b0b46ce57972a5a71</property>
 </producer>
 <producer id="producer93" in="00:00:00.000" out="00:00:04.960">
  <property name="length">00:00:05.000</property>
  <property name="eof">pause</property>
  <property name="resource">/home/liquidzulu/Documents/youtube-scripts/courses/libertarian-ethics/capsaicin/pseudo/defensive-force-and-proportionality.pseudo.srt-images/154.png</property>
  <property name="ttl">25</property>
  <property name="aspect_ratio">1</property>
  <property name="progressive">1</property>
  <property name="seekable">1</property>
  <property name="meta.media.width">1920</property>
  <property name="meta.media.height">1080</property>
  <property name="mlt_service">qimage</property>
  <property name="kdenlive:clipname"/>
  <property name="kdenlive:duration">00:00:05.000</property>
  <property name="kdenlive:folderid">41</property>
  <property name="kdenlive:clip_type">2</property>
  <property name="kdenlive:id">98</property>
  <property name="kdenlive:file_size">8965</property>
  <property name="kdenlive:file_hash">32b6919e94a875fc218c657bf24c1367</property>
 </producer>
 <producer id="producer95" in="00:00:00.000" out="00:00:04.960">
  <property name="length">00:00:05.000</property>
  <property name="eof">pause</property>
  <property name="resource">/home/liquidzulu/Documents/youtube-scripts/courses/libertarian-ethics/capsaicin/pseudo/defensive-force-and-proportionality.pseudo.srt-images/155.png</property>
  <property name="ttl">25</property>
  <property name="aspect_ratio">1</property>
  <property name="progressive">1</property>
  <property name="seekable">1</property>
  <property name="meta.media.width">1920</property>
  <property name="meta.media.height">1080</property>
  <property name="mlt_service">qimage</property>
  <property name="kdenlive:clipname"/>
  <property name="kdenlive:duration">00:00:05.000</property>
  <property name="kdenlive:folderid">41</property>
  <property name="kdenlive:clip_type">2</property>
  <property name="kdenlive:id">99</property>
  <property name="kdenlive:file_size">8310</property>
  <property name="kdenlive:file_hash">595054240b68c14e91aa05ff01e3a115</property>
 </producer>
 <producer id="producer97" in="00:00:00.000" out="00:00:05.600">
  <property name="length">141</property>
  <property name="eof">pause</property>
  <property name="resource">/home/liquidzulu/Documents/youtube-scripts/courses/libertarian-ethics/capsaicin/pseudo/defensive-force-and-proportionality.pseudo.srt-images/156.png</property>
  <property name="ttl">25</property>
  <property name="aspect_ratio">1</property>
  <property name="progressive">1</property>
  <property name="seekable">1</property>
  <property name="meta.media.width">1920</property>
  <property name="meta.media.height">1080</property>
  <property name="mlt_service">qimage</property>
  <property name="kdenlive:clipname"/>
  <property name="kdenlive:duration">00:00:05.000</property>
  <property name="kdenlive:folderid">41</property>
  <property name="kdenlive:clip_type">2</property>
  <property name="kdenlive:id">100</property>
  <property name="kdenlive:file_size">8906</property>
  <property name="kdenlive:file_hash">c2d24f640be6ac5b2140f7706687b876</property>
 </producer>
 <producer id="producer96" in="00:00:00.000" out="00:00:04.960">
  <property name="length">00:00:05.000</property>
  <property name="eof">pause</property>
  <property name="resource">/home/liquidzulu/Documents/youtube-scripts/courses/libertarian-ethics/capsaicin/pseudo/defensive-force-and-proportionality.pseudo.srt-images/157.png</property>
  <property name="ttl">25</property>
  <property name="aspect_ratio">1</property>
  <property name="progressive">1</property>
  <property name="seekable">1</property>
  <property name="meta.media.width">1920</property>
  <property name="meta.media.height">1080</property>
  <property name="mlt_service">qimage</property>
  <property name="kdenlive:clipname"/>
  <property name="kdenlive:duration">00:00:05.000</property>
  <property name="kdenlive:folderid">41</property>
  <property name="kdenlive:clip_type">2</property>
  <property name="kdenlive:id">101</property>
  <property name="kdenlive:file_size">8574</property>
  <property name="kdenlive:file_hash">3d786640aba63f6c4e794fc0658814fa</property>
 </producer>
 <producer id="producer98" in="00:00:00.000" out="00:00:04.960">
  <property name="length">00:00:05.000</property>
  <property name="eof">pause</property>
  <property name="resource">/home/liquidzulu/Documents/youtube-scripts/courses/libertarian-ethics/capsaicin/pseudo/defensive-force-and-proportionality.pseudo.srt-images/158.png</property>
  <property name="ttl">25</property>
  <property name="aspect_ratio">1</property>
  <property name="progressive">1</property>
  <property name="seekable">1</property>
  <property name="meta.media.width">1920</property>
  <property name="meta.media.height">1080</property>
  <property name="mlt_service">qimage</property>
  <property name="kdenlive:clipname"/>
  <property name="kdenlive:duration">00:00:05.000</property>
  <property name="kdenlive:folderid">41</property>
  <property name="kdenlive:clip_type">2</property>
  <property name="kdenlive:id">102</property>
  <property name="kdenlive:file_size">8978</property>
  <property name="kdenlive:file_hash">3f82ae68ce070c6fe287fac734f0117b</property>
 </producer>
 <producer id="producer99" in="00:00:00.000" out="00:00:04.960">
  <property name="length">00:00:05.000</property>
  <property name="eof">pause</property>
  <property name="resource">/home/liquidzulu/Documents/youtube-scripts/courses/libertarian-ethics/capsaicin/pseudo/defensive-force-and-proportionality.pseudo.srt-images/159.png</property>
  <property name="ttl">25</property>
  <property name="aspect_ratio">1</property>
  <property name="progressive">1</property>
  <property name="seekable">1</property>
  <property name="meta.media.width">1920</property>
  <property name="meta.media.height">1080</property>
  <property name="mlt_service">qimage</property>
  <property name="kdenlive:clipname"/>
  <property name="kdenlive:duration">00:00:05.000</property>
  <property name="kdenlive:folderid">41</property>
  <property name="kdenlive:clip_type">2</property>
  <property name="kdenlive:id">103</property>
  <property name="kdenlive:file_size">8652</property>
  <property name="kdenlive:file_hash">3c172644498d13fd30f9c82e96af8152</property>
 </producer>
 <producer id="producer100" in="00:00:00.000" out="00:00:04.960">
  <property name="length">00:00:05.000</property>
  <property name="eof">pause</property>
  <property name="resource">/home/liquidzulu/Documents/youtube-scripts/courses/libertarian-ethics/capsaicin/pseudo/defensive-force-and-proportionality.pseudo.srt-images/160.png</property>
  <property name="ttl">25</property>
  <property name="aspect_ratio">1</property>
  <property name="progressive">1</property>
  <property name="seekable">1</property>
  <property name="meta.media.width">1920</property>
  <property name="meta.media.height">1080</property>
  <property name="mlt_service">qimage</property>
  <property name="kdenlive:clipname"/>
  <property name="kdenlive:duration">00:00:05.000</property>
  <property name="kdenlive:folderid">41</property>
  <property name="kdenlive:clip_type">2</property>
  <property name="kdenlive:id">104</property>
  <property name="kdenlive:file_size">8695</property>
  <property name="kdenlive:file_hash">287111b73913677474d1224289b5117e</property>
 </producer>
 <producer id="producer102" in="00:00:00.000" out="00:00:04.960">
  <property name="length">00:00:05.000</property>
  <property name="eof">pause</property>
  <property name="resource">/home/liquidzulu/Documents/youtube-scripts/courses/libertarian-ethics/capsaicin/pseudo/defensive-force-and-proportionality.pseudo.srt-images/161.png</property>
  <property name="ttl">25</property>
  <property name="aspect_ratio">1</property>
  <property name="progressive">1</property>
  <property name="seekable">1</property>
  <property name="meta.media.width">1920</property>
  <property name="meta.media.height">1080</property>
  <property name="mlt_service">qimage</property>
  <property name="kdenlive:clipname"/>
  <property name="kdenlive:duration">00:00:05.000</property>
  <property name="kdenlive:folderid">41</property>
  <property name="kdenlive:clip_type">2</property>
  <property name="kdenlive:id">105</property>
  <property name="kdenlive:file_size">8632</property>
  <property name="kdenlive:file_hash">dcc3bdf8484c6e90415902023893eac5</property>
 </producer>
 <producer id="producer101" in="00:00:00.000" out="00:00:04.960">
  <property name="length">00:00:05.000</property>
  <property name="eof">pause</property>
  <property name="resource">/home/liquidzulu/Documents/youtube-scripts/courses/libertarian-ethics/capsaicin/pseudo/defensive-force-and-proportionality.pseudo.srt-images/162.png</property>
  <property name="ttl">25</property>
  <property name="aspect_ratio">1</property>
  <property name="progressive">1</property>
  <property name="seekable">1</property>
  <property name="meta.media.width">1920</property>
  <property name="meta.media.height">1080</property>
  <property name="mlt_service">qimage</property>
  <property name="kdenlive:clipname"/>
  <property name="kdenlive:duration">00:00:05.000</property>
  <property name="kdenlive:folderid">41</property>
  <property name="kdenlive:clip_type">2</property>
  <property name="kdenlive:id">106</property>
  <property name="kdenlive:file_size">8309</property>
  <property name="kdenlive:file_hash">69e713f90d94903864b866bfb88597b4</property>
 </producer>
 <producer id="producer103" in="00:00:00.000" out="00:00:04.960">
  <property name="length">00:00:05.000</property>
  <property name="eof">pause</property>
  <property name="resource">/home/liquidzulu/Documents/youtube-scripts/courses/libertarian-ethics/capsaicin/pseudo/defensive-force-and-proportionality.pseudo.srt-images/163.png</property>
  <property name="ttl">25</property>
  <property name="aspect_ratio">1</property>
  <property name="progressive">1</property>
  <property name="seekable">1</property>
  <property name="meta.media.width">1920</property>
  <property name="meta.media.height">1080</property>
  <property name="mlt_service">qimage</property>
  <property name="kdenlive:clipname"/>
  <property name="kdenlive:duration">00:00:05.000</property>
  <property name="kdenlive:folderid">41</property>
  <property name="kdenlive:clip_type">2</property>
  <property name="kdenlive:id">107</property>
  <property name="kdenlive:file_size">9483</property>
  <property name="kdenlive:file_hash">16d8fe7cb843abf2b94042e695c8941a</property>
 </producer>
 <producer id="producer104" in="00:00:00.000" out="00:00:04.960">
  <property name="length">00:00:05.000</property>
  <property name="eof">pause</property>
  <property name="resource">/home/liquidzulu/Documents/youtube-scripts/courses/libertarian-ethics/capsaicin/pseudo/defensive-force-and-proportionality.pseudo.srt-images/164.png</property>
  <property name="ttl">25</property>
  <property name="aspect_ratio">1</property>
  <property name="progressive">1</property>
  <property name="seekable">1</property>
  <property name="meta.media.width">1920</property>
  <property name="meta.media.height">1080</property>
  <property name="mlt_service">qimage</property>
  <property name="kdenlive:clipname"/>
  <property name="kdenlive:duration">00:00:05.000</property>
  <property name="kdenlive:folderid">41</property>
  <property name="kdenlive:clip_type">2</property>
  <property name="kdenlive:id">108</property>
  <property name="kdenlive:file_size">8800</property>
  <property name="kdenlive:file_hash">04966279b6ed85b2bdf269976a46b608</property>
 </producer>
 <producer id="producer105" in="00:00:00.000" out="00:00:04.960">
  <property name="length">00:00:05.000</property>
  <property name="eof">pause</property>
  <property name="resource">/home/liquidzulu/Documents/youtube-scripts/courses/libertarian-ethics/capsaicin/pseudo/defensive-force-and-proportionality.pseudo.srt-images/165.png</property>
  <property name="ttl">25</property>
  <property name="aspect_ratio">1</property>
  <property name="progressive">1</property>
  <property name="seekable">1</property>
  <property name="meta.media.width">1920</property>
  <property name="meta.media.height">1080</property>
  <property name="mlt_service">qimage</property>
  <property name="kdenlive:clipname"/>
  <property name="kdenlive:duration">00:00:05.000</property>
  <property name="kdenlive:folderid">41</property>
  <property name="kdenlive:clip_type">2</property>
  <property name="kdenlive:id">109</property>
  <property name="kdenlive:file_size">8823</property>
  <property name="kdenlive:file_hash">5ed93357540018eff9f433ea94acb2e9</property>
 </producer>
 <producer id="producer106" in="00:00:00.000" out="00:00:04.960">
  <property name="length">00:00:05.000</property>
  <property name="eof">pause</property>
  <property name="resource">/home/liquidzulu/Documents/youtube-scripts/courses/libertarian-ethics/capsaicin/pseudo/defensive-force-and-proportionality.pseudo.srt-images/166.png</property>
  <property name="ttl">25</property>
  <property name="aspect_ratio">1</property>
  <property name="progressive">1</property>
  <property name="seekable">1</property>
  <property name="meta.media.width">1920</property>
  <property name="meta.media.height">1080</property>
  <property name="mlt_service">qimage</property>
  <property name="kdenlive:clipname"/>
  <property name="kdenlive:duration">00:00:05.000</property>
  <property name="kdenlive:folderid">41</property>
  <property name="kdenlive:clip_type">2</property>
  <property name="kdenlive:id">110</property>
  <property name="kdenlive:file_size">8871</property>
  <property name="kdenlive:file_hash">ec279ac9951befe7c9dafc96374e7ff7</property>
 </producer>
 <producer id="producer107" in="00:00:00.000" out="00:00:04.960">
  <property name="length">00:00:05.000</property>
  <property name="eof">pause</property>
  <property name="resource">/home/liquidzulu/Documents/youtube-scripts/courses/libertarian-ethics/capsaicin/pseudo/defensive-force-and-proportionality.pseudo.srt-images/167.png</property>
  <property name="ttl">25</property>
  <property name="aspect_ratio">1</property>
  <property name="progressive">1</property>
  <property name="seekable">1</property>
  <property name="meta.media.width">1920</property>
  <property name="meta.media.height">1080</property>
  <property name="mlt_service">qimage</property>
  <property name="kdenlive:clipname"/>
  <property name="kdenlive:duration">00:00:05.000</property>
  <property name="kdenlive:folderid">41</property>
  <property name="kdenlive:clip_type">2</property>
  <property name="kdenlive:id">111</property>
  <property name="kdenlive:file_size">8781</property>
  <property name="kdenlive:file_hash">9d63dffb1b2681534d778eccc94b0f37</property>
 </producer>
 <producer id="producer108" in="00:00:00.000" out="00:00:04.960">
  <property name="length">00:00:05.000</property>
  <property name="eof">pause</property>
  <property name="resource">/home/liquidzulu/Documents/youtube-scripts/courses/libertarian-ethics/capsaicin/pseudo/defensive-force-and-proportionality.pseudo.srt-images/168.png</property>
  <property name="ttl">25</property>
  <property name="aspect_ratio">1</property>
  <property name="progressive">1</property>
  <property name="seekable">1</property>
  <property name="meta.media.width">1920</property>
  <property name="meta.media.height">1080</property>
  <property name="mlt_service">qimage</property>
  <property name="kdenlive:clipname"/>
  <property name="kdenlive:duration">00:00:05.000</property>
  <property name="kdenlive:folderid">41</property>
  <property name="kdenlive:clip_type">2</property>
  <property name="kdenlive:id">112</property>
  <property name="kdenlive:file_size">9800</property>
  <property name="kdenlive:file_hash">03979899946482e0a53968dc677707e5</property>
 </producer>
 <producer id="producer109" in="00:00:00.000" out="00:00:04.960">
  <property name="length">00:00:05.000</property>
  <property name="eof">pause</property>
  <property name="resource">/home/liquidzulu/Documents/youtube-scripts/courses/libertarian-ethics/capsaicin/pseudo/defensive-force-and-proportionality.pseudo.srt-images/169.png</property>
  <property name="ttl">25</property>
  <property name="aspect_ratio">1</property>
  <property name="progressive">1</property>
  <property name="seekable">1</property>
  <property name="meta.media.width">1920</property>
  <property name="meta.media.height">1080</property>
  <property name="mlt_service">qimage</property>
  <property name="kdenlive:clipname"/>
  <property name="kdenlive:duration">00:00:05.000</property>
  <property name="kdenlive:folderid">41</property>
  <property name="kdenlive:clip_type">2</property>
  <property name="kdenlive:id">113</property>
  <property name="kdenlive:file_size">9184</property>
  <property name="kdenlive:file_hash">98d2b30064544df7b5b9933bdd62755c</property>
 </producer>
 <producer id="producer110" in="00:00:00.000" out="00:00:04.960">
  <property name="length">00:00:05.000</property>
  <property name="eof">pause</property>
  <property name="resource">/home/liquidzulu/Documents/youtube-scripts/courses/libertarian-ethics/capsaicin/pseudo/defensive-force-and-proportionality.pseudo.srt-images/170.png</property>
  <property name="ttl">25</property>
  <property name="aspect_ratio">1</property>
  <property name="progressive">1</property>
  <property name="seekable">1</property>
  <property name="meta.media.width">1920</property>
  <property name="meta.media.height">1080</property>
  <property name="mlt_service">qimage</property>
  <property name="kdenlive:clipname"/>
  <property name="kdenlive:duration">00:00:05.000</property>
  <property name="kdenlive:folderid">41</property>
  <property name="kdenlive:clip_type">2</property>
  <property name="kdenlive:id">114</property>
  <property name="kdenlive:file_size">9339</property>
  <property name="kdenlive:file_hash">fc9fd5f441335cf0d04c87a245a6bafd</property>
 </producer>
 <producer id="producer111" in="00:00:00.000" out="00:00:04.960">
  <property name="length">00:00:05.000</property>
  <property name="eof">pause</property>
  <property name="resource">/home/liquidzulu/Documents/youtube-scripts/courses/libertarian-ethics/capsaicin/pseudo/defensive-force-and-proportionality.pseudo.srt-images/171.png</property>
  <property name="ttl">25</property>
  <property name="aspect_ratio">1</property>
  <property name="progressive">1</property>
  <property name="seekable">1</property>
  <property name="meta.media.width">1920</property>
  <property name="meta.media.height">1080</property>
  <property name="mlt_service">qimage</property>
  <property name="kdenlive:clipname"/>
  <property name="kdenlive:duration">00:00:05.000</property>
  <property name="kdenlive:folderid">41</property>
  <property name="kdenlive:clip_type">2</property>
  <property name="kdenlive:id">115</property>
  <property name="kdenlive:file_size">9039</property>
  <property name="kdenlive:file_hash">f1d833f50f32e7a796878e27652b0067</property>
 </producer>
 <producer id="producer112" in="00:00:00.000" out="00:00:04.960">
  <property name="length">00:00:05.000</property>
  <property name="eof">pause</property>
  <property name="resource">/home/liquidzulu/Documents/youtube-scripts/courses/libertarian-ethics/capsaicin/pseudo/defensive-force-and-proportionality.pseudo.srt-images/172.png</property>
  <property name="ttl">25</property>
  <property name="aspect_ratio">1</property>
  <property name="progressive">1</property>
  <property name="seekable">1</property>
  <property name="meta.media.width">1920</property>
  <property name="meta.media.height">1080</property>
  <property name="mlt_service">qimage</property>
  <property name="kdenlive:clipname"/>
  <property name="kdenlive:duration">00:00:05.000</property>
  <property name="kdenlive:folderid">41</property>
  <property name="kdenlive:clip_type">2</property>
  <property name="kdenlive:id">116</property>
  <property name="kdenlive:file_size">9422</property>
  <property name="kdenlive:file_hash">e34c07ae061d74af354cf136a4f410eb</property>
 </producer>
 <producer id="producer114" in="00:00:00.000" out="00:00:04.960">
  <property name="length">00:00:05.000</property>
  <property name="eof">pause</property>
  <property name="resource">/home/liquidzulu/Documents/youtube-scripts/courses/libertarian-ethics/capsaicin/pseudo/defensive-force-and-proportionality.pseudo.srt-images/173.png</property>
  <property name="ttl">25</property>
  <property name="aspect_ratio">1</property>
  <property name="progressive">1</property>
  <property name="seekable">1</property>
  <property name="meta.media.width">1920</property>
  <property name="meta.media.height">1080</property>
  <property name="mlt_service">qimage</property>
  <property name="kdenlive:clipname"/>
  <property name="kdenlive:duration">00:00:05.000</property>
  <property name="kdenlive:folderid">41</property>
  <property name="kdenlive:clip_type">2</property>
  <property name="kdenlive:id">117</property>
  <property name="kdenlive:file_size">9424</property>
  <property name="kdenlive:file_hash">1368b3b919d947cedd62c7730af889fb</property>
 </producer>
 <producer id="producer113" in="00:00:00.000" out="00:00:04.960">
  <property name="length">00:00:05.000</property>
  <property name="eof">pause</property>
  <property name="resource">/home/liquidzulu/Documents/youtube-scripts/courses/libertarian-ethics/capsaicin/pseudo/defensive-force-and-proportionality.pseudo.srt-images/174.png</property>
  <property name="ttl">25</property>
  <property name="aspect_ratio">1</property>
  <property name="progressive">1</property>
  <property name="seekable">1</property>
  <property name="meta.media.width">1920</property>
  <property name="meta.media.height">1080</property>
  <property name="mlt_service">qimage</property>
  <property name="kdenlive:clipname"/>
  <property name="kdenlive:duration">00:00:05.000</property>
  <property name="kdenlive:folderid">41</property>
  <property name="kdenlive:clip_type">2</property>
  <property name="kdenlive:id">118</property>
  <property name="kdenlive:file_size">8548</property>
  <property name="kdenlive:file_hash">30014fe6531bf1cf43c38d7bf30b1355</property>
 </producer>
 <producer id="producer115" in="00:00:00.000" out="00:00:04.960">
  <property name="length">00:00:05.000</property>
  <property name="eof">pause</property>
  <property name="resource">/home/liquidzulu/Documents/youtube-scripts/courses/libertarian-ethics/capsaicin/pseudo/defensive-force-and-proportionality.pseudo.srt-images/175.png</property>
  <property name="ttl">25</property>
  <property name="aspect_ratio">1</property>
  <property name="progressive">1</property>
  <property name="seekable">1</property>
  <property name="meta.media.width">1920</property>
  <property name="meta.media.height">1080</property>
  <property name="mlt_service">qimage</property>
  <property name="kdenlive:clipname"/>
  <property name="kdenlive:duration">00:00:05.000</property>
  <property name="kdenlive:folderid">41</property>
  <property name="kdenlive:clip_type">2</property>
  <property name="kdenlive:id">119</property>
  <property name="kdenlive:file_size">8887</property>
  <property name="kdenlive:file_hash">20bd5a5ddc134dc5cfbfbc3bfb0a1c8d</property>
 </producer>
 <producer id="producer116" in="00:00:00.000" out="00:00:04.960">
  <property name="length">00:00:05.000</property>
  <property name="eof">pause</property>
  <property name="resource">/home/liquidzulu/Documents/youtube-scripts/courses/libertarian-ethics/capsaicin/pseudo/defensive-force-and-proportionality.pseudo.srt-images/176.png</property>
  <property name="ttl">25</property>
  <property name="aspect_ratio">1</property>
  <property name="progressive">1</property>
  <property name="seekable">1</property>
  <property name="meta.media.width">1920</property>
  <property name="meta.media.height">1080</property>
  <property name="mlt_service">qimage</property>
  <property name="kdenlive:clipname"/>
  <property name="kdenlive:duration">00:00:05.000</property>
  <property name="kdenlive:folderid">41</property>
  <property name="kdenlive:clip_type">2</property>
  <property name="kdenlive:id">120</property>
  <property name="kdenlive:file_size">8777</property>
  <property name="kdenlive:file_hash">8ac088339510650e83080e5e3b05117c</property>
 </producer>
 <producer id="producer117" in="00:00:00.000" out="00:00:04.960">
  <property name="length">00:00:05.000</property>
  <property name="eof">pause</property>
  <property name="resource">/home/liquidzulu/Documents/youtube-scripts/courses/libertarian-ethics/capsaicin/pseudo/defensive-force-and-proportionality.pseudo.srt-images/177.png</property>
  <property name="ttl">25</property>
  <property name="aspect_ratio">1</property>
  <property name="progressive">1</property>
  <property name="seekable">1</property>
  <property name="meta.media.width">1920</property>
  <property name="meta.media.height">1080</property>
  <property name="mlt_service">qimage</property>
  <property name="kdenlive:clipname"/>
  <property name="kdenlive:duration">00:00:05.000</property>
  <property name="kdenlive:folderid">41</property>
  <property name="kdenlive:clip_type">2</property>
  <property name="kdenlive:id">121</property>
  <property name="kdenlive:file_size">9143</property>
  <property name="kdenlive:file_hash">ad461dac39552b8fc15ff3094dd2f8c9</property>
 </producer>
 <producer id="producer118" in="00:00:00.000" out="00:00:04.960">
  <property name="length">00:00:05.000</property>
  <property name="eof">pause</property>
  <property name="resource">/home/liquidzulu/Documents/youtube-scripts/courses/libertarian-ethics/capsaicin/pseudo/defensive-force-and-proportionality.pseudo.srt-images/178.png</property>
  <property name="ttl">25</property>
  <property name="aspect_ratio">1</property>
  <property name="progressive">1</property>
  <property name="seekable">1</property>
  <property name="meta.media.width">1920</property>
  <property name="meta.media.height">1080</property>
  <property name="mlt_service">qimage</property>
  <property name="kdenlive:clipname"/>
  <property name="kdenlive:duration">00:00:05.000</property>
  <property name="kdenlive:folderid">41</property>
  <property name="kdenlive:clip_type">2</property>
  <property name="kdenlive:id">122</property>
  <property name="kdenlive:file_size">8976</property>
  <property name="kdenlive:file_hash">439fb468cd57fdde387779b4aca7f909</property>
 </producer>
 <producer id="producer119" in="00:00:00.000" out="00:00:04.960">
  <property name="length">00:00:05.000</property>
  <property name="eof">pause</property>
  <property name="resource">/home/liquidzulu/Documents/youtube-scripts/courses/libertarian-ethics/capsaicin/pseudo/defensive-force-and-proportionality.pseudo.srt-images/179.png</property>
  <property name="ttl">25</property>
  <property name="aspect_ratio">1</property>
  <property name="progressive">1</property>
  <property name="seekable">1</property>
  <property name="meta.media.width">1920</property>
  <property name="meta.media.height">1080</property>
  <property name="mlt_service">qimage</property>
  <property name="kdenlive:clipname"/>
  <property name="kdenlive:duration">00:00:05.000</property>
  <property name="kdenlive:folderid">41</property>
  <property name="kdenlive:clip_type">2</property>
  <property name="kdenlive:id">123</property>
  <property name="kdenlive:file_size">9114</property>
  <property name="kdenlive:file_hash">24d3fed187c9e283d9c26a8a58749645</property>
 </producer>
 <producer id="producer120" in="00:00:00.000" out="00:00:04.960">
  <property name="length">00:00:05.000</property>
  <property name="eof">pause</property>
  <property name="resource">/home/liquidzulu/Documents/youtube-scripts/courses/libertarian-ethics/capsaicin/pseudo/defensive-force-and-proportionality.pseudo.srt-images/180.png</property>
  <property name="ttl">25</property>
  <property name="aspect_ratio">1</property>
  <property name="progressive">1</property>
  <property name="seekable">1</property>
  <property name="meta.media.width">1920</property>
  <property name="meta.media.height">1080</property>
  <property name="mlt_service">qimage</property>
  <property name="kdenlive:clipname"/>
  <property name="kdenlive:duration">00:00:05.000</property>
  <property name="kdenlive:folderid">41</property>
  <property name="kdenlive:clip_type">2</property>
  <property name="kdenlive:id">124</property>
  <property name="kdenlive:file_size">8513</property>
  <property name="kdenlive:file_hash">053027b65ced43103eddea1e1fff75c6</property>
 </producer>
 <producer id="producer121" in="00:00:00.000" out="00:00:04.960">
  <property name="length">00:00:05.000</property>
  <property name="eof">pause</property>
  <property name="resource">/home/liquidzulu/Documents/youtube-scripts/courses/libertarian-ethics/capsaicin/pseudo/defensive-force-and-proportionality.pseudo.srt-images/181.png</property>
  <property name="ttl">25</property>
  <property name="aspect_ratio">1</property>
  <property name="progressive">1</property>
  <property name="seekable">1</property>
  <property name="meta.media.width">1920</property>
  <property name="meta.media.height">1080</property>
  <property name="mlt_service">qimage</property>
  <property name="kdenlive:clipname"/>
  <property name="kdenlive:duration">00:00:05.000</property>
  <property name="kdenlive:folderid">41</property>
  <property name="kdenlive:clip_type">2</property>
  <property name="kdenlive:id">125</property>
  <property name="kdenlive:file_size">9076</property>
  <property name="kdenlive:file_hash">511a8d16b548af14afc8e8d3782f41bf</property>
 </producer>
 <producer id="producer122" in="00:00:00.000" out="00:00:04.960">
  <property name="length">00:00:05.000</property>
  <property name="eof">pause</property>
  <property name="resource">/home/liquidzulu/Documents/youtube-scripts/courses/libertarian-ethics/capsaicin/pseudo/defensive-force-and-proportionality.pseudo.srt-images/182.png</property>
  <property name="ttl">25</property>
  <property name="aspect_ratio">1</property>
  <property name="progressive">1</property>
  <property name="seekable">1</property>
  <property name="meta.media.width">1920</property>
  <property name="meta.media.height">1080</property>
  <property name="mlt_service">qimage</property>
  <property name="kdenlive:clipname"/>
  <property name="kdenlive:duration">00:00:05.000</property>
  <property name="kdenlive:folderid">41</property>
  <property name="kdenlive:clip_type">2</property>
  <property name="kdenlive:id">126</property>
  <property name="kdenlive:file_size">8458</property>
  <property name="kdenlive:file_hash">5f8c898ec9593a7627adc70e6b0ce181</property>
 </producer>
 <producer id="producer123" in="00:00:00.000" out="00:00:04.960">
  <property name="length">00:00:05.000</property>
  <property name="eof">pause</property>
  <property name="resource">/home/liquidzulu/Documents/youtube-scripts/courses/libertarian-ethics/capsaicin/pseudo/defensive-force-and-proportionality.pseudo.srt-images/183.png</property>
  <property name="ttl">25</property>
  <property name="aspect_ratio">1</property>
  <property name="progressive">1</property>
  <property name="seekable">1</property>
  <property name="meta.media.width">1920</property>
  <property name="meta.media.height">1080</property>
  <property name="mlt_service">qimage</property>
  <property name="kdenlive:clipname"/>
  <property name="kdenlive:duration">00:00:05.000</property>
  <property name="kdenlive:folderid">41</property>
  <property name="kdenlive:clip_type">2</property>
  <property name="kdenlive:id">127</property>
  <property name="kdenlive:file_size">8776</property>
  <property name="kdenlive:file_hash">6d3e0c2676060b8320d8e2b788de9264</property>
 </producer>
 <producer id="producer124" in="00:00:00.000" out="00:00:04.960">
  <property name="length">00:00:05.000</property>
  <property name="eof">pause</property>
  <property name="resource">/home/liquidzulu/Documents/youtube-scripts/courses/libertarian-ethics/capsaicin/pseudo/defensive-force-and-proportionality.pseudo.srt-images/184.png</property>
  <property name="ttl">25</property>
  <property name="aspect_ratio">1</property>
  <property name="progressive">1</property>
  <property name="seekable">1</property>
  <property name="meta.media.width">1920</property>
  <property name="meta.media.height">1080</property>
  <property name="mlt_service">qimage</property>
  <property name="kdenlive:clipname"/>
  <property name="kdenlive:duration">00:00:05.000</property>
  <property name="kdenlive:folderid">41</property>
  <property name="kdenlive:clip_type">2</property>
  <property name="kdenlive:id">128</property>
  <property name="kdenlive:file_size">8028</property>
  <property name="kdenlive:file_hash">2d284b086d9fe930f1d7725e3c002f77</property>
 </producer>
 <producer id="producer125" in="00:00:00.000" out="00:00:05.800">
  <property name="length">146</property>
  <property name="eof">pause</property>
  <property name="resource">/home/liquidzulu/Documents/youtube-scripts/courses/libertarian-ethics/capsaicin/pseudo/defensive-force-and-proportionality.pseudo.srt-images/185.png</property>
  <property name="ttl">25</property>
  <property name="aspect_ratio">1</property>
  <property name="progressive">1</property>
  <property name="seekable">1</property>
  <property name="meta.media.width">1920</property>
  <property name="meta.media.height">1080</property>
  <property name="mlt_service">qimage</property>
  <property name="kdenlive:clipname"/>
  <property name="kdenlive:duration">00:00:05.000</property>
  <property name="kdenlive:folderid">41</property>
  <property name="kdenlive:clip_type">2</property>
  <property name="kdenlive:id">129</property>
  <property name="kdenlive:file_size">9298</property>
  <property name="kdenlive:file_hash">00649a494c2d85f76393e2bd74ff174a</property>
 </producer>
 <producer id="producer126" in="00:00:00.000" out="00:00:04.960">
  <property name="length">00:00:05.000</property>
  <property name="eof">pause</property>
  <property name="resource">/home/liquidzulu/Documents/youtube-scripts/courses/libertarian-ethics/capsaicin/pseudo/defensive-force-and-proportionality.pseudo.srt-images/186.png</property>
  <property name="ttl">25</property>
  <property name="aspect_ratio">1</property>
  <property name="progressive">1</property>
  <property name="seekable">1</property>
  <property name="meta.media.width">1920</property>
  <property name="meta.media.height">1080</property>
  <property name="mlt_service">qimage</property>
  <property name="kdenlive:clipname"/>
  <property name="kdenlive:duration">00:00:05.000</property>
  <property name="kdenlive:folderid">41</property>
  <property name="kdenlive:clip_type">2</property>
  <property name="kdenlive:id">130</property>
  <property name="kdenlive:file_size">9423</property>
  <property name="kdenlive:file_hash">d06f0e278f684a1cd474a40d16ac590b</property>
 </producer>
 <producer id="producer127" in="00:00:00.000" out="00:00:04.960">
  <property name="length">00:00:05.000</property>
  <property name="eof">pause</property>
  <property name="resource">/home/liquidzulu/Documents/youtube-scripts/courses/libertarian-ethics/capsaicin/pseudo/defensive-force-and-proportionality.pseudo.srt-images/187.png</property>
  <property name="ttl">25</property>
  <property name="aspect_ratio">1</property>
  <property name="progressive">1</property>
  <property name="seekable">1</property>
  <property name="meta.media.width">1920</property>
  <property name="meta.media.height">1080</property>
  <property name="mlt_service">qimage</property>
  <property name="kdenlive:clipname"/>
  <property name="kdenlive:duration">00:00:05.000</property>
  <property name="kdenlive:folderid">41</property>
  <property name="kdenlive:clip_type">2</property>
  <property name="kdenlive:id">131</property>
  <property name="kdenlive:file_size">9343</property>
  <property name="kdenlive:file_hash">2a13840fcb027be8008b504c8dc9cbad</property>
 </producer>
 <producer id="producer128" in="00:00:00.000" out="00:00:04.960">
  <property name="length">00:00:05.000</property>
  <property name="eof">pause</property>
  <property name="resource">/home/liquidzulu/Documents/youtube-scripts/courses/libertarian-ethics/capsaicin/pseudo/defensive-force-and-proportionality.pseudo.srt-images/188.png</property>
  <property name="ttl">25</property>
  <property name="aspect_ratio">1</property>
  <property name="progressive">1</property>
  <property name="seekable">1</property>
  <property name="meta.media.width">1920</property>
  <property name="meta.media.height">1080</property>
  <property name="mlt_service">qimage</property>
  <property name="kdenlive:clipname"/>
  <property name="kdenlive:duration">00:00:05.000</property>
  <property name="kdenlive:folderid">41</property>
  <property name="kdenlive:clip_type">2</property>
  <property name="kdenlive:id">132</property>
  <property name="kdenlive:file_size">8979</property>
  <property name="kdenlive:file_hash">ab1fbfc20fa21e2d23f7a1251936c8d5</property>
 </producer>
 <producer id="producer130" in="00:00:00.000" out="00:00:04.960">
  <property name="length">00:00:05.000</property>
  <property name="eof">pause</property>
  <property name="resource">/home/liquidzulu/Documents/youtube-scripts/courses/libertarian-ethics/capsaicin/pseudo/defensive-force-and-proportionality.pseudo.srt-images/189.png</property>
  <property name="ttl">25</property>
  <property name="aspect_ratio">1</property>
  <property name="progressive">1</property>
  <property name="seekable">1</property>
  <property name="meta.media.width">1920</property>
  <property name="meta.media.height">1080</property>
  <property name="mlt_service">qimage</property>
  <property name="kdenlive:clipname"/>
  <property name="kdenlive:duration">00:00:05.000</property>
  <property name="kdenlive:folderid">41</property>
  <property name="kdenlive:clip_type">2</property>
  <property name="kdenlive:id">133</property>
  <property name="kdenlive:file_size">8285</property>
  <property name="kdenlive:file_hash">aa8d49e7a1b27bbcfd0627c143da2d13</property>
 </producer>
 <producer id="producer129" in="00:00:00.000" out="00:00:04.960">
  <property name="length">00:00:05.000</property>
  <property name="eof">pause</property>
  <property name="resource">/home/liquidzulu/Documents/youtube-scripts/courses/libertarian-ethics/capsaicin/pseudo/defensive-force-and-proportionality.pseudo.srt-images/190.png</property>
  <property name="ttl">25</property>
  <property name="aspect_ratio">1</property>
  <property name="progressive">1</property>
  <property name="seekable">1</property>
  <property name="meta.media.width">1920</property>
  <property name="meta.media.height">1080</property>
  <property name="mlt_service">qimage</property>
  <property name="kdenlive:clipname"/>
  <property name="kdenlive:duration">00:00:05.000</property>
  <property name="kdenlive:folderid">41</property>
  <property name="kdenlive:clip_type">2</property>
  <property name="kdenlive:id">134</property>
  <property name="kdenlive:file_size">8522</property>
  <property name="kdenlive:file_hash">8fc45942f208ad1eb4053a67b211d1a9</property>
 </producer>
 <producer id="producer131" in="00:00:00.000" out="00:00:04.960">
  <property name="length">00:00:05.000</property>
  <property name="eof">pause</property>
  <property name="resource">/home/liquidzulu/Documents/youtube-scripts/courses/libertarian-ethics/capsaicin/pseudo/defensive-force-and-proportionality.pseudo.srt-images/191.png</property>
  <property name="ttl">25</property>
  <property name="aspect_ratio">1</property>
  <property name="progressive">1</property>
  <property name="seekable">1</property>
  <property name="meta.media.width">1920</property>
  <property name="meta.media.height">1080</property>
  <property name="mlt_service">qimage</property>
  <property name="kdenlive:clipname"/>
  <property name="kdenlive:duration">00:00:05.000</property>
  <property name="kdenlive:folderid">41</property>
  <property name="kdenlive:clip_type">2</property>
  <property name="kdenlive:id">135</property>
  <property name="kdenlive:file_size">8573</property>
  <property name="kdenlive:file_hash">e0968f885bb153080e3e2ad2b0a715c3</property>
 </producer>
 <producer id="producer132" in="00:00:00.000" out="00:00:04.960">
  <property name="length">00:00:05.000</property>
  <property name="eof">pause</property>
  <property name="resource">/home/liquidzulu/Documents/youtube-scripts/courses/libertarian-ethics/capsaicin/pseudo/defensive-force-and-proportionality.pseudo.srt-images/192.png</property>
  <property name="ttl">25</property>
  <property name="aspect_ratio">1</property>
  <property name="progressive">1</property>
  <property name="seekable">1</property>
  <property name="meta.media.width">1920</property>
  <property name="meta.media.height">1080</property>
  <property name="mlt_service">qimage</property>
  <property name="kdenlive:clipname"/>
  <property name="kdenlive:duration">00:00:05.000</property>
  <property name="kdenlive:folderid">41</property>
  <property name="kdenlive:clip_type">2</property>
  <property name="kdenlive:id">136</property>
  <property name="kdenlive:file_size">9255</property>
  <property name="kdenlive:file_hash">85ce5dcc0ab178a83b661be0f011734b</property>
 </producer>
 <producer id="producer135" in="00:00:00.000" out="00:00:04.960">
  <property name="length">00:00:05.000</property>
  <property name="eof">pause</property>
  <property name="resource">/home/liquidzulu/Documents/youtube-scripts/courses/libertarian-ethics/capsaicin/pseudo/defensive-force-and-proportionality.pseudo.srt-images/193.png</property>
  <property name="ttl">25</property>
  <property name="aspect_ratio">1</property>
  <property name="progressive">1</property>
  <property name="seekable">1</property>
  <property name="meta.media.width">1920</property>
  <property name="meta.media.height">1080</property>
  <property name="mlt_service">qimage</property>
  <property name="kdenlive:clipname"/>
  <property name="kdenlive:duration">00:00:05.000</property>
  <property name="kdenlive:folderid">41</property>
  <property name="kdenlive:clip_type">2</property>
  <property name="kdenlive:id">137</property>
  <property name="kdenlive:file_size">8774</property>
  <property name="kdenlive:file_hash">a843513b7dd320f6d8da3897196bd02c</property>
 </producer>
 <producer id="producer134" in="00:00:00.000" out="00:00:04.960">
  <property name="length">00:00:05.000</property>
  <property name="eof">pause</property>
  <property name="resource">/home/liquidzulu/Documents/youtube-scripts/courses/libertarian-ethics/capsaicin/pseudo/defensive-force-and-proportionality.pseudo.srt-images/194.png</property>
  <property name="ttl">25</property>
  <property name="aspect_ratio">1</property>
  <property name="progressive">1</property>
  <property name="seekable">1</property>
  <property name="meta.media.width">1920</property>
  <property name="meta.media.height">1080</property>
  <property name="mlt_service">qimage</property>
  <property name="kdenlive:clipname"/>
  <property name="kdenlive:duration">00:00:05.000</property>
  <property name="kdenlive:folderid">41</property>
  <property name="kdenlive:clip_type">2</property>
  <property name="kdenlive:id">138</property>
  <property name="kdenlive:file_size">9317</property>
  <property name="kdenlive:file_hash">1b1d9a7b1bb3ee1b27c0efea409fb1a2</property>
 </producer>
 <producer id="producer133" in="00:00:00.000" out="00:00:04.960">
  <property name="length">00:00:05.000</property>
  <property name="eof">pause</property>
  <property name="resource">/home/liquidzulu/Documents/youtube-scripts/courses/libertarian-ethics/capsaicin/pseudo/defensive-force-and-proportionality.pseudo.srt-images/195.png</property>
  <property name="ttl">25</property>
  <property name="aspect_ratio">1</property>
  <property name="progressive">1</property>
  <property name="seekable">1</property>
  <property name="meta.media.width">1920</property>
  <property name="meta.media.height">1080</property>
  <property name="mlt_service">qimage</property>
  <property name="kdenlive:clipname"/>
  <property name="kdenlive:duration">00:00:05.000</property>
  <property name="kdenlive:folderid">41</property>
  <property name="kdenlive:clip_type">2</property>
  <property name="kdenlive:id">139</property>
  <property name="kdenlive:file_size">8636</property>
  <property name="kdenlive:file_hash">570da0efe241a311a8f020c6b0b8127f</property>
 </producer>
 <producer id="producer136" in="00:00:00.000" out="00:00:04.960">
  <property name="length">00:00:05.000</property>
  <property name="eof">pause</property>
  <property name="resource">/home/liquidzulu/Documents/youtube-scripts/courses/libertarian-ethics/capsaicin/pseudo/defensive-force-and-proportionality.pseudo.srt-images/196.png</property>
  <property name="ttl">25</property>
  <property name="aspect_ratio">1</property>
  <property name="progressive">1</property>
  <property name="seekable">1</property>
  <property name="meta.media.width">1920</property>
  <property name="meta.media.height">1080</property>
  <property name="mlt_service">qimage</property>
  <property name="kdenlive:clipname"/>
  <property name="kdenlive:duration">00:00:05.000</property>
  <property name="kdenlive:folderid">41</property>
  <property name="kdenlive:clip_type">2</property>
  <property name="kdenlive:id">140</property>
  <property name="kdenlive:file_size">9625</property>
  <property name="kdenlive:file_hash">0d99108663c5822278d03e4c9ccb39ec</property>
 </producer>
 <producer id="producer137" in="00:00:00.000" out="00:00:04.960">
  <property name="length">00:00:05.000</property>
  <property name="eof">pause</property>
  <property name="resource">/home/liquidzulu/Documents/youtube-scripts/courses/libertarian-ethics/capsaicin/pseudo/defensive-force-and-proportionality.pseudo.srt-images/197.png</property>
  <property name="ttl">25</property>
  <property name="aspect_ratio">1</property>
  <property name="progressive">1</property>
  <property name="seekable">1</property>
  <property name="meta.media.width">1920</property>
  <property name="meta.media.height">1080</property>
  <property name="mlt_service">qimage</property>
  <property name="kdenlive:clipname"/>
  <property name="kdenlive:duration">00:00:05.000</property>
  <property name="kdenlive:folderid">41</property>
  <property name="kdenlive:clip_type">2</property>
  <property name="kdenlive:id">141</property>
  <property name="kdenlive:file_size">9053</property>
  <property name="kdenlive:file_hash">c2f425b95beb30d1c124dafd53f54922</property>
 </producer>
 <producer id="producer139" in="00:00:00.000" out="00:00:05.680">
  <property name="length">143</property>
  <property name="eof">pause</property>
  <property name="resource">/home/liquidzulu/Documents/youtube-scripts/courses/libertarian-ethics/capsaicin/pseudo/defensive-force-and-proportionality.pseudo.srt-images/198.png</property>
  <property name="ttl">25</property>
  <property name="aspect_ratio">1</property>
  <property name="progressive">1</property>
  <property name="seekable">1</property>
  <property name="meta.media.width">1920</property>
  <property name="meta.media.height">1080</property>
  <property name="mlt_service">qimage</property>
  <property name="kdenlive:clipname"/>
  <property name="kdenlive:duration">00:00:05.000</property>
  <property name="kdenlive:folderid">41</property>
  <property name="kdenlive:clip_type">2</property>
  <property name="kdenlive:id">142</property>
  <property name="kdenlive:file_size">10198</property>
  <property name="kdenlive:file_hash">3d957b64c69b49bd19c59779bdbc8ba5</property>
 </producer>
 <producer id="producer138" in="00:00:00.000" out="00:00:04.960">
  <property name="length">00:00:05.000</property>
  <property name="eof">pause</property>
  <property name="resource">/home/liquidzulu/Documents/youtube-scripts/courses/libertarian-ethics/capsaicin/pseudo/defensive-force-and-proportionality.pseudo.srt-images/199.png</property>
  <property name="ttl">25</property>
  <property name="aspect_ratio">1</property>
  <property name="progressive">1</property>
  <property name="seekable">1</property>
  <property name="meta.media.width">1920</property>
  <property name="meta.media.height">1080</property>
  <property name="mlt_service">qimage</property>
  <property name="kdenlive:clipname"/>
  <property name="kdenlive:duration">00:00:05.000</property>
  <property name="kdenlive:folderid">41</property>
  <property name="kdenlive:clip_type">2</property>
  <property name="kdenlive:id">143</property>
  <property name="kdenlive:file_size">8527</property>
  <property name="kdenlive:file_hash">918b7aa5495d476c384221f6ff54f631</property>
 </producer>
 <producer id="producer140" in="00:00:00.000" out="00:00:05.200">
  <property name="length">131</property>
  <property name="eof">pause</property>
  <property name="resource">/home/liquidzulu/Documents/youtube-scripts/courses/libertarian-ethics/capsaicin/pseudo/defensive-force-and-proportionality.pseudo.srt-images/200.png</property>
  <property name="ttl">25</property>
  <property name="aspect_ratio">1</property>
  <property name="progressive">1</property>
  <property name="seekable">1</property>
  <property name="meta.media.width">1920</property>
  <property name="meta.media.height">1080</property>
  <property name="mlt_service">qimage</property>
  <property name="kdenlive:clipname"/>
  <property name="kdenlive:duration">00:00:05.000</property>
  <property name="kdenlive:folderid">41</property>
  <property name="kdenlive:clip_type">2</property>
  <property name="kdenlive:id">144</property>
  <property name="kdenlive:file_size">9072</property>
  <property name="kdenlive:file_hash">a49258795b9e1c719e89fa6fdba9af8c</property>
 </producer>
 <producer id="producer141" in="00:00:00.000" out="00:00:04.960">
  <property name="length">00:00:05.000</property>
  <property name="eof">pause</property>
  <property name="resource">/home/liquidzulu/Documents/youtube-scripts/courses/libertarian-ethics/capsaicin/pseudo/defensive-force-and-proportionality.pseudo.srt-images/201.png</property>
  <property name="ttl">25</property>
  <property name="aspect_ratio">1</property>
  <property name="progressive">1</property>
  <property name="seekable">1</property>
  <property name="meta.media.width">1920</property>
  <property name="meta.media.height">1080</property>
  <property name="mlt_service">qimage</property>
  <property name="kdenlive:clipname"/>
  <property name="kdenlive:duration">00:00:05.000</property>
  <property name="kdenlive:folderid">41</property>
  <property name="kdenlive:clip_type">2</property>
  <property name="kdenlive:id">145</property>
  <property name="kdenlive:file_size">9306</property>
  <property name="kdenlive:file_hash">04c3814d2809a7e019cf323397ce5d2c</property>
 </producer>
 <producer id="producer142" in="00:00:00.000" out="00:00:04.960">
  <property name="length">00:00:05.000</property>
  <property name="eof">pause</property>
  <property name="resource">/home/liquidzulu/Documents/youtube-scripts/courses/libertarian-ethics/capsaicin/pseudo/defensive-force-and-proportionality.pseudo.srt-images/202.png</property>
  <property name="ttl">25</property>
  <property name="aspect_ratio">1</property>
  <property name="progressive">1</property>
  <property name="seekable">1</property>
  <property name="meta.media.width">1920</property>
  <property name="meta.media.height">1080</property>
  <property name="mlt_service">qimage</property>
  <property name="kdenlive:clipname"/>
  <property name="kdenlive:duration">00:00:05.000</property>
  <property name="kdenlive:folderid">41</property>
  <property name="kdenlive:clip_type">2</property>
  <property name="kdenlive:id">146</property>
  <property name="kdenlive:file_size">9722</property>
  <property name="kdenlive:file_hash">3e34dc4ca7cac171a87d27e7186156c5</property>
 </producer>
 <producer id="producer143" in="00:00:00.000" out="00:00:04.960">
  <property name="length">00:00:05.000</property>
  <property name="eof">pause</property>
  <property name="resource">/home/liquidzulu/Documents/youtube-scripts/courses/libertarian-ethics/capsaicin/pseudo/defensive-force-and-proportionality.pseudo.srt-images/203.png</property>
  <property name="ttl">25</property>
  <property name="aspect_ratio">1</property>
  <property name="progressive">1</property>
  <property name="seekable">1</property>
  <property name="meta.media.width">1920</property>
  <property name="meta.media.height">1080</property>
  <property name="mlt_service">qimage</property>
  <property name="kdenlive:clipname"/>
  <property name="kdenlive:duration">00:00:05.000</property>
  <property name="kdenlive:folderid">41</property>
  <property name="kdenlive:clip_type">2</property>
  <property name="kdenlive:id">147</property>
  <property name="kdenlive:file_size">9089</property>
  <property name="kdenlive:file_hash">04de4ad7f8cf0555c62cf4b3471c7118</property>
 </producer>
 <producer id="producer144" in="00:00:00.000" out="00:00:04.960">
  <property name="length">00:00:05.000</property>
  <property name="eof">pause</property>
  <property name="resource">/home/liquidzulu/Documents/youtube-scripts/courses/libertarian-ethics/capsaicin/pseudo/defensive-force-and-proportionality.pseudo.srt-images/204.png</property>
  <property name="ttl">25</property>
  <property name="aspect_ratio">1</property>
  <property name="progressive">1</property>
  <property name="seekable">1</property>
  <property name="meta.media.width">1920</property>
  <property name="meta.media.height">1080</property>
  <property name="mlt_service">qimage</property>
  <property name="kdenlive:clipname"/>
  <property name="kdenlive:duration">00:00:05.000</property>
  <property name="kdenlive:folderid">41</property>
  <property name="kdenlive:clip_type">2</property>
  <property name="kdenlive:id">148</property>
  <property name="kdenlive:file_size">8858</property>
  <property name="kdenlive:file_hash">1362023ce0b276ffc0e9916b05db7d47</property>
 </producer>
 <producer id="producer145" in="00:00:00.000" out="00:00:05.080">
  <property name="length">128</property>
  <property name="eof">pause</property>
  <property name="resource">/home/liquidzulu/Documents/youtube-scripts/courses/libertarian-ethics/capsaicin/pseudo/defensive-force-and-proportionality.pseudo.srt-images/205.png</property>
  <property name="ttl">25</property>
  <property name="aspect_ratio">1</property>
  <property name="progressive">1</property>
  <property name="seekable">1</property>
  <property name="meta.media.width">1920</property>
  <property name="meta.media.height">1080</property>
  <property name="mlt_service">qimage</property>
  <property name="kdenlive:clipname"/>
  <property name="kdenlive:duration">00:00:05.000</property>
  <property name="kdenlive:folderid">41</property>
  <property name="kdenlive:clip_type">2</property>
  <property name="kdenlive:id">149</property>
  <property name="kdenlive:file_size">10106</property>
  <property name="kdenlive:file_hash">3dd5ab4f1a0c566d2bfb6f13d316a749</property>
 </producer>
 <producer id="producer146" in="00:00:00.000" out="00:00:04.960">
  <property name="length">00:00:05.000</property>
  <property name="eof">pause</property>
  <property name="resource">/home/liquidzulu/Documents/youtube-scripts/courses/libertarian-ethics/capsaicin/pseudo/defensive-force-and-proportionality.pseudo.srt-images/206.png</property>
  <property name="ttl">25</property>
  <property name="aspect_ratio">1</property>
  <property name="progressive">1</property>
  <property name="seekable">1</property>
  <property name="meta.media.width">1920</property>
  <property name="meta.media.height">1080</property>
  <property name="mlt_service">qimage</property>
  <property name="kdenlive:clipname"/>
  <property name="kdenlive:duration">00:00:05.000</property>
  <property name="kdenlive:folderid">41</property>
  <property name="kdenlive:clip_type">2</property>
  <property name="kdenlive:id">150</property>
  <property name="kdenlive:file_size">8701</property>
  <property name="kdenlive:file_hash">b35d6b9293b7a0f18cf00f170be7b734</property>
 </producer>
 <producer id="producer147" in="00:00:00.000" out="00:00:04.960">
  <property name="length">00:00:05.000</property>
  <property name="eof">pause</property>
  <property name="resource">/home/liquidzulu/Documents/youtube-scripts/courses/libertarian-ethics/capsaicin/pseudo/defensive-force-and-proportionality.pseudo.srt-images/207.png</property>
  <property name="ttl">25</property>
  <property name="aspect_ratio">1</property>
  <property name="progressive">1</property>
  <property name="seekable">1</property>
  <property name="meta.media.width">1920</property>
  <property name="meta.media.height">1080</property>
  <property name="mlt_service">qimage</property>
  <property name="kdenlive:clipname"/>
  <property name="kdenlive:duration">00:00:05.000</property>
  <property name="kdenlive:folderid">41</property>
  <property name="kdenlive:clip_type">2</property>
  <property name="kdenlive:id">151</property>
  <property name="kdenlive:file_size">9216</property>
  <property name="kdenlive:file_hash">e3675833e30f6f1ac34a58934697e02e</property>
 </producer>
 <producer id="producer148" in="00:00:00.000" out="00:00:05.240">
  <property name="length">132</property>
  <property name="eof">pause</property>
  <property name="resource">/home/liquidzulu/Documents/youtube-scripts/courses/libertarian-ethics/capsaicin/pseudo/defensive-force-and-proportionality.pseudo.srt-images/208.png</property>
  <property name="ttl">25</property>
  <property name="aspect_ratio">1</property>
  <property name="progressive">1</property>
  <property name="seekable">1</property>
  <property name="meta.media.width">1920</property>
  <property name="meta.media.height">1080</property>
  <property name="mlt_service">qimage</property>
  <property name="kdenlive:clipname"/>
  <property name="kdenlive:duration">00:00:05.000</property>
  <property name="kdenlive:folderid">41</property>
  <property name="kdenlive:clip_type">2</property>
  <property name="kdenlive:id">152</property>
  <property name="kdenlive:file_size">9171</property>
  <property name="kdenlive:file_hash">222fdcba4f69a6685af39a4ac7b82d92</property>
 </producer>
 <producer id="producer149" in="00:00:00.000" out="00:00:04.960">
  <property name="length">00:00:05.000</property>
  <property name="eof">pause</property>
  <property name="resource">/home/liquidzulu/Documents/youtube-scripts/courses/libertarian-ethics/capsaicin/pseudo/defensive-force-and-proportionality.pseudo.srt-images/209.png</property>
  <property name="ttl">25</property>
  <property name="aspect_ratio">1</property>
  <property name="progressive">1</property>
  <property name="seekable">1</property>
  <property name="meta.media.width">1920</property>
  <property name="meta.media.height">1080</property>
  <property name="mlt_service">qimage</property>
  <property name="kdenlive:clipname"/>
  <property name="kdenlive:duration">00:00:05.000</property>
  <property name="kdenlive:folderid">41</property>
  <property name="kdenlive:clip_type">2</property>
  <property name="kdenlive:id">153</property>
  <property name="kdenlive:file_size">8429</property>
  <property name="kdenlive:file_hash">cb12ec0ee8472e6683939cd0685db7bc</property>
 </producer>
 <producer id="producer150" in="00:00:00.000" out="00:00:04.960">
  <property name="length">00:00:05.000</property>
  <property name="eof">pause</property>
  <property name="resource">/home/liquidzulu/Documents/youtube-scripts/courses/libertarian-ethics/capsaicin/pseudo/defensive-force-and-proportionality.pseudo.srt-images/210.png</property>
  <property name="ttl">25</property>
  <property name="aspect_ratio">1</property>
  <property name="progressive">1</property>
  <property name="seekable">1</property>
  <property name="meta.media.width">1920</property>
  <property name="meta.media.height">1080</property>
  <property name="mlt_service">qimage</property>
  <property name="kdenlive:clipname"/>
  <property name="kdenlive:duration">00:00:05.000</property>
  <property name="kdenlive:folderid">41</property>
  <property name="kdenlive:clip_type">2</property>
  <property name="kdenlive:id">154</property>
  <property name="kdenlive:file_size">9551</property>
  <property name="kdenlive:file_hash">95a721d1dda712f6690ffdde68e41f1e</property>
 </producer>
 <producer id="producer151" in="00:00:00.000" out="00:00:04.960">
  <property name="length">00:00:05.000</property>
  <property name="eof">pause</property>
  <property name="resource">/home/liquidzulu/Documents/youtube-scripts/courses/libertarian-ethics/capsaicin/pseudo/defensive-force-and-proportionality.pseudo.srt-images/211.png</property>
  <property name="ttl">25</property>
  <property name="aspect_ratio">1</property>
  <property name="progressive">1</property>
  <property name="seekable">1</property>
  <property name="meta.media.width">1920</property>
  <property name="meta.media.height">1080</property>
  <property name="mlt_service">qimage</property>
  <property name="kdenlive:clipname"/>
  <property name="kdenlive:duration">00:00:05.000</property>
  <property name="kdenlive:folderid">41</property>
  <property name="kdenlive:clip_type">2</property>
  <property name="kdenlive:id">155</property>
  <property name="kdenlive:file_size">9330</property>
  <property name="kdenlive:file_hash">b670061b35fbc0c20e4e34695ec55dbd</property>
 </producer>
 <producer id="producer152" in="00:00:00.000" out="00:00:04.960">
  <property name="length">00:00:05.000</property>
  <property name="eof">pause</property>
  <property name="resource">/home/liquidzulu/Documents/youtube-scripts/courses/libertarian-ethics/capsaicin/pseudo/defensive-force-and-proportionality.pseudo.srt-images/212.png</property>
  <property name="ttl">25</property>
  <property name="aspect_ratio">1</property>
  <property name="progressive">1</property>
  <property name="seekable">1</property>
  <property name="meta.media.width">1920</property>
  <property name="meta.media.height">1080</property>
  <property name="mlt_service">qimage</property>
  <property name="kdenlive:clipname"/>
  <property name="kdenlive:duration">00:00:05.000</property>
  <property name="kdenlive:folderid">41</property>
  <property name="kdenlive:clip_type">2</property>
  <property name="kdenlive:id">156</property>
  <property name="kdenlive:file_size">8681</property>
  <property name="kdenlive:file_hash">a992f2e8cbd8ebdf8da16bbfef585048</property>
 </producer>
 <producer id="producer155" in="00:00:00.000" out="00:00:04.960">
  <property name="length">00:00:05.000</property>
  <property name="eof">pause</property>
  <property name="resource">/home/liquidzulu/Documents/youtube-scripts/courses/libertarian-ethics/capsaicin/pseudo/defensive-force-and-proportionality.pseudo.srt-images/213.png</property>
  <property name="ttl">25</property>
  <property name="aspect_ratio">1</property>
  <property name="progressive">1</property>
  <property name="seekable">1</property>
  <property name="meta.media.width">1920</property>
  <property name="meta.media.height">1080</property>
  <property name="mlt_service">qimage</property>
  <property name="kdenlive:clipname"/>
  <property name="kdenlive:duration">00:00:05.000</property>
  <property name="kdenlive:folderid">41</property>
  <property name="kdenlive:clip_type">2</property>
  <property name="kdenlive:id">157</property>
  <property name="kdenlive:file_size">9167</property>
  <property name="kdenlive:file_hash">d7d9a7ac324a6bc70a555e06dc243846</property>
 </producer>
 <producer id="producer153" in="00:00:00.000" out="00:00:04.960">
  <property name="length">00:00:05.000</property>
  <property name="eof">pause</property>
  <property name="resource">/home/liquidzulu/Documents/youtube-scripts/courses/libertarian-ethics/capsaicin/pseudo/defensive-force-and-proportionality.pseudo.srt-images/214.png</property>
  <property name="ttl">25</property>
  <property name="aspect_ratio">1</property>
  <property name="progressive">1</property>
  <property name="seekable">1</property>
  <property name="meta.media.width">1920</property>
  <property name="meta.media.height">1080</property>
  <property name="mlt_service">qimage</property>
  <property name="kdenlive:clipname"/>
  <property name="kdenlive:duration">00:00:05.000</property>
  <property name="kdenlive:folderid">41</property>
  <property name="kdenlive:clip_type">2</property>
  <property name="kdenlive:id">158</property>
  <property name="kdenlive:file_size">8500</property>
  <property name="kdenlive:file_hash">55170a55f16309c4579edc2b840275bc</property>
 </producer>
 <producer id="producer154" in="00:00:00.000" out="00:00:04.960">
  <property name="length">00:00:05.000</property>
  <property name="eof">pause</property>
  <property name="resource">/home/liquidzulu/Documents/youtube-scripts/courses/libertarian-ethics/capsaicin/pseudo/defensive-force-and-proportionality.pseudo.srt-images/215.png</property>
  <property name="ttl">25</property>
  <property name="aspect_ratio">1</property>
  <property name="progressive">1</property>
  <property name="seekable">1</property>
  <property name="meta.media.width">1920</property>
  <property name="meta.media.height">1080</property>
  <property name="mlt_service">qimage</property>
  <property name="kdenlive:clipname"/>
  <property name="kdenlive:duration">00:00:05.000</property>
  <property name="kdenlive:folderid">41</property>
  <property name="kdenlive:clip_type">2</property>
  <property name="kdenlive:id">159</property>
  <property name="kdenlive:file_size">9331</property>
  <property name="kdenlive:file_hash">01f20d4918c581eeab14c7e2ca224a19</property>
 </producer>
 <producer id="producer156" in="00:00:00.000" out="00:00:04.960">
  <property name="length">00:00:05.000</property>
  <property name="eof">pause</property>
  <property name="resource">/home/liquidzulu/Documents/youtube-scripts/courses/libertarian-ethics/capsaicin/pseudo/defensive-force-and-proportionality.pseudo.srt-images/216.png</property>
  <property name="ttl">25</property>
  <property name="aspect_ratio">1</property>
  <property name="progressive">1</property>
  <property name="seekable">1</property>
  <property name="meta.media.width">1920</property>
  <property name="meta.media.height">1080</property>
  <property name="mlt_service">qimage</property>
  <property name="kdenlive:clipname"/>
  <property name="kdenlive:duration">00:00:05.000</property>
  <property name="kdenlive:folderid">41</property>
  <property name="kdenlive:clip_type">2</property>
  <property name="kdenlive:id">160</property>
  <property name="kdenlive:file_size">9521</property>
  <property name="kdenlive:file_hash">691a571e17cd61eab62407a2e8250986</property>
 </producer>
 <producer id="producer158" in="00:00:00.000" out="00:00:04.960">
  <property name="length">00:00:05.000</property>
  <property name="eof">pause</property>
  <property name="resource">/home/liquidzulu/Documents/youtube-scripts/courses/libertarian-ethics/capsaicin/pseudo/defensive-force-and-proportionality.pseudo.srt-images/217.png</property>
  <property name="ttl">25</property>
  <property name="aspect_ratio">1</property>
  <property name="progressive">1</property>
  <property name="seekable">1</property>
  <property name="meta.media.width">1920</property>
  <property name="meta.media.height">1080</property>
  <property name="mlt_service">qimage</property>
  <property name="kdenlive:clipname"/>
  <property name="kdenlive:duration">00:00:05.000</property>
  <property name="kdenlive:folderid">41</property>
  <property name="kdenlive:clip_type">2</property>
  <property name="kdenlive:id">161</property>
  <property name="kdenlive:file_size">9412</property>
  <property name="kdenlive:file_hash">212787a0ade9b9b125b36ee7b2ca354e</property>
 </producer>
 <producer id="producer157" in="00:00:00.000" out="00:00:04.960">
  <property name="length">00:00:05.000</property>
  <property name="eof">pause</property>
  <property name="resource">/home/liquidzulu/Documents/youtube-scripts/courses/libertarian-ethics/capsaicin/pseudo/defensive-force-and-proportionality.pseudo.srt-images/218.png</property>
  <property name="ttl">25</property>
  <property name="aspect_ratio">1</property>
  <property name="progressive">1</property>
  <property name="seekable">1</property>
  <property name="meta.media.width">1920</property>
  <property name="meta.media.height">1080</property>
  <property name="mlt_service">qimage</property>
  <property name="kdenlive:clipname"/>
  <property name="kdenlive:duration">00:00:05.000</property>
  <property name="kdenlive:folderid">41</property>
  <property name="kdenlive:clip_type">2</property>
  <property name="kdenlive:id">162</property>
  <property name="kdenlive:file_size">9562</property>
  <property name="kdenlive:file_hash">80adb24c7b67c4215b17a5cf5cd569f2</property>
 </producer>
 <producer id="producer159" in="00:00:00.000" out="00:00:04.960">
  <property name="length">00:00:05.000</property>
  <property name="eof">pause</property>
  <property name="resource">/home/liquidzulu/Documents/youtube-scripts/courses/libertarian-ethics/capsaicin/pseudo/defensive-force-and-proportionality.pseudo.srt-images/219.png</property>
  <property name="ttl">25</property>
  <property name="aspect_ratio">1</property>
  <property name="progressive">1</property>
  <property name="seekable">1</property>
  <property name="meta.media.width">1920</property>
  <property name="meta.media.height">1080</property>
  <property name="mlt_service">qimage</property>
  <property name="kdenlive:clipname"/>
  <property name="kdenlive:duration">00:00:05.000</property>
  <property name="kdenlive:folderid">41</property>
  <property name="kdenlive:clip_type">2</property>
  <property name="kdenlive:id">163</property>
  <property name="kdenlive:file_size">8832</property>
  <property name="kdenlive:file_hash">c69bcf84fc9998b92fc1286ea0107fcd</property>
 </producer>
 <producer id="producer160" in="00:00:00.000" out="00:00:04.960">
  <property name="length">00:00:05.000</property>
  <property name="eof">pause</property>
  <property name="resource">/home/liquidzulu/Documents/youtube-scripts/courses/libertarian-ethics/capsaicin/pseudo/defensive-force-and-proportionality.pseudo.srt-images/220.png</property>
  <property name="ttl">25</property>
  <property name="aspect_ratio">1</property>
  <property name="progressive">1</property>
  <property name="seekable">1</property>
  <property name="meta.media.width">1920</property>
  <property name="meta.media.height">1080</property>
  <property name="mlt_service">qimage</property>
  <property name="kdenlive:clipname"/>
  <property name="kdenlive:duration">00:00:05.000</property>
  <property name="kdenlive:folderid">41</property>
  <property name="kdenlive:clip_type">2</property>
  <property name="kdenlive:id">164</property>
  <property name="kdenlive:file_size">8543</property>
  <property name="kdenlive:file_hash">36dd82472b0d08bfe3b9cd1e5ee14149</property>
 </producer>
 <producer id="producer161" in="00:00:00.000" out="00:00:04.960">
  <property name="length">00:00:05.000</property>
  <property name="eof">pause</property>
  <property name="resource">/home/liquidzulu/Documents/youtube-scripts/courses/libertarian-ethics/capsaicin/pseudo/defensive-force-and-proportionality.pseudo.srt-images/221.png</property>
  <property name="ttl">25</property>
  <property name="aspect_ratio">1</property>
  <property name="progressive">1</property>
  <property name="seekable">1</property>
  <property name="meta.media.width">1920</property>
  <property name="meta.media.height">1080</property>
  <property name="mlt_service">qimage</property>
  <property name="kdenlive:clipname"/>
  <property name="kdenlive:duration">00:00:05.000</property>
  <property name="kdenlive:folderid">41</property>
  <property name="kdenlive:clip_type">2</property>
  <property name="kdenlive:id">165</property>
  <property name="kdenlive:file_size">8686</property>
  <property name="kdenlive:file_hash">17f3ada0d3be44f618a6f493621160a7</property>
 </producer>
 <producer id="producer162" in="00:00:00.000" out="00:00:04.960">
  <property name="length">00:00:05.000</property>
  <property name="eof">pause</property>
  <property name="resource">/home/liquidzulu/Documents/youtube-scripts/courses/libertarian-ethics/capsaicin/pseudo/defensive-force-and-proportionality.pseudo.srt-images/222.png</property>
  <property name="ttl">25</property>
  <property name="aspect_ratio">1</property>
  <property name="progressive">1</property>
  <property name="seekable">1</property>
  <property name="meta.media.width">1920</property>
  <property name="meta.media.height">1080</property>
  <property name="mlt_service">qimage</property>
  <property name="kdenlive:clipname"/>
  <property name="kdenlive:duration">00:00:05.000</property>
  <property name="kdenlive:folderid">41</property>
  <property name="kdenlive:clip_type">2</property>
  <property name="kdenlive:id">166</property>
  <property name="kdenlive:file_size">8475</property>
  <property name="kdenlive:file_hash">cf89e014e22f059e07f737309f50a0dd</property>
 </producer>
 <producer id="producer163" in="00:00:00.000" out="00:00:04.960">
  <property name="length">00:00:05.000</property>
  <property name="eof">pause</property>
  <property name="resource">/home/liquidzulu/Documents/youtube-scripts/courses/libertarian-ethics/capsaicin/pseudo/defensive-force-and-proportionality.pseudo.srt-images/223.png</property>
  <property name="ttl">25</property>
  <property name="aspect_ratio">1</property>
  <property name="progressive">1</property>
  <property name="seekable">1</property>
  <property name="meta.media.width">1920</property>
  <property name="meta.media.height">1080</property>
  <property name="mlt_service">qimage</property>
  <property name="kdenlive:clipname"/>
  <property name="kdenlive:duration">00:00:05.000</property>
  <property name="kdenlive:folderid">41</property>
  <property name="kdenlive:clip_type">2</property>
  <property name="kdenlive:id">167</property>
  <property name="kdenlive:file_size">9341</property>
  <property name="kdenlive:file_hash">37d8af670151d9d30d4378d1d2dd7615</property>
 </producer>
 <producer id="producer164" in="00:00:00.000" out="00:00:04.960">
  <property name="length">00:00:05.000</property>
  <property name="eof">pause</property>
  <property name="resource">/home/liquidzulu/Documents/youtube-scripts/courses/libertarian-ethics/capsaicin/pseudo/defensive-force-and-proportionality.pseudo.srt-images/224.png</property>
  <property name="ttl">25</property>
  <property name="aspect_ratio">1</property>
  <property name="progressive">1</property>
  <property name="seekable">1</property>
  <property name="meta.media.width">1920</property>
  <property name="meta.media.height">1080</property>
  <property name="mlt_service">qimage</property>
  <property name="kdenlive:clipname"/>
  <property name="kdenlive:duration">00:00:05.000</property>
  <property name="kdenlive:folderid">41</property>
  <property name="kdenlive:clip_type">2</property>
  <property name="kdenlive:id">168</property>
  <property name="kdenlive:file_size">9419</property>
  <property name="kdenlive:file_hash">c2af29a835c96c8d3c72d672d70f66df</property>
 </producer>
 <producer id="producer165" in="00:00:00.000" out="00:00:04.960">
  <property name="length">00:00:05.000</property>
  <property name="eof">pause</property>
  <property name="resource">/home/liquidzulu/Documents/youtube-scripts/courses/libertarian-ethics/capsaicin/pseudo/defensive-force-and-proportionality.pseudo.srt-images/225.png</property>
  <property name="ttl">25</property>
  <property name="aspect_ratio">1</property>
  <property name="progressive">1</property>
  <property name="seekable">1</property>
  <property name="meta.media.width">1920</property>
  <property name="meta.media.height">1080</property>
  <property name="mlt_service">qimage</property>
  <property name="kdenlive:clipname"/>
  <property name="kdenlive:duration">00:00:05.000</property>
  <property name="kdenlive:folderid">41</property>
  <property name="kdenlive:clip_type">2</property>
  <property name="kdenlive:id">169</property>
  <property name="kdenlive:file_size">9213</property>
  <property name="kdenlive:file_hash">35a393faddba565138bed4beff5527b9</property>
 </producer>
 <producer id="producer168" in="00:00:00.000" out="00:00:04.960">
  <property name="length">00:00:05.000</property>
  <property name="eof">pause</property>
  <property name="resource">/home/liquidzulu/Documents/youtube-scripts/courses/libertarian-ethics/capsaicin/pseudo/defensive-force-and-proportionality.pseudo.srt-images/226.png</property>
  <property name="ttl">25</property>
  <property name="aspect_ratio">1</property>
  <property name="progressive">1</property>
  <property name="seekable">1</property>
  <property name="meta.media.width">1920</property>
  <property name="meta.media.height">1080</property>
  <property name="mlt_service">qimage</property>
  <property name="kdenlive:clipname"/>
  <property name="kdenlive:duration">00:00:05.000</property>
  <property name="kdenlive:folderid">41</property>
  <property name="kdenlive:clip_type">2</property>
  <property name="kdenlive:id">170</property>
  <property name="kdenlive:file_size">8671</property>
  <property name="kdenlive:file_hash">47c791db50729c1341b7a81031d07a92</property>
 </producer>
 <producer id="producer166" in="00:00:00.000" out="00:00:04.960">
  <property name="length">00:00:05.000</property>
  <property name="eof">pause</property>
  <property name="resource">/home/liquidzulu/Documents/youtube-scripts/courses/libertarian-ethics/capsaicin/pseudo/defensive-force-and-proportionality.pseudo.srt-images/227.png</property>
  <property name="ttl">25</property>
  <property name="aspect_ratio">1</property>
  <property name="progressive">1</property>
  <property name="seekable">1</property>
  <property name="meta.media.width">1920</property>
  <property name="meta.media.height">1080</property>
  <property name="mlt_service">qimage</property>
  <property name="kdenlive:clipname"/>
  <property name="kdenlive:duration">00:00:05.000</property>
  <property name="kdenlive:folderid">41</property>
  <property name="kdenlive:clip_type">2</property>
  <property name="kdenlive:id">171</property>
  <property name="kdenlive:file_size">9679</property>
  <property name="kdenlive:file_hash">f3d13b335ef2b839b93f2658afcfe027</property>
 </producer>
 <producer id="producer167" in="00:00:00.000" out="00:00:04.960">
  <property name="length">00:00:05.000</property>
  <property name="eof">pause</property>
  <property name="resource">/home/liquidzulu/Documents/youtube-scripts/courses/libertarian-ethics/capsaicin/pseudo/defensive-force-and-proportionality.pseudo.srt-images/228.png</property>
  <property name="ttl">25</property>
  <property name="aspect_ratio">1</property>
  <property name="progressive">1</property>
  <property name="seekable">1</property>
  <property name="meta.media.width">1920</property>
  <property name="meta.media.height">1080</property>
  <property name="mlt_service">qimage</property>
  <property name="kdenlive:clipname"/>
  <property name="kdenlive:duration">00:00:05.000</property>
  <property name="kdenlive:folderid">41</property>
  <property name="kdenlive:clip_type">2</property>
  <property name="kdenlive:id">172</property>
  <property name="kdenlive:file_size">9200</property>
  <property name="kdenlive:file_hash">c4af3c0afbfd4219374e523e9d09bc2e</property>
 </producer>
 <producer id="producer169" in="00:00:00.000" out="00:00:04.960">
  <property name="length">00:00:05.000</property>
  <property name="eof">pause</property>
  <property name="resource">/home/liquidzulu/Documents/youtube-scripts/courses/libertarian-ethics/capsaicin/pseudo/defensive-force-and-proportionality.pseudo.srt-images/229.png</property>
  <property name="ttl">25</property>
  <property name="aspect_ratio">1</property>
  <property name="progressive">1</property>
  <property name="seekable">1</property>
  <property name="meta.media.width">1920</property>
  <property name="meta.media.height">1080</property>
  <property name="mlt_service">qimage</property>
  <property name="kdenlive:clipname"/>
  <property name="kdenlive:duration">00:00:05.000</property>
  <property name="kdenlive:folderid">41</property>
  <property name="kdenlive:clip_type">2</property>
  <property name="kdenlive:id">173</property>
  <property name="kdenlive:file_size">9515</property>
  <property name="kdenlive:file_hash">06966bcc4fbcd59f716e9dc9556fdd9a</property>
 </producer>
 <producer id="producer170" in="00:00:00.000" out="00:00:04.960">
  <property name="length">00:00:05.000</property>
  <property name="eof">pause</property>
  <property name="resource">/home/liquidzulu/Documents/youtube-scripts/courses/libertarian-ethics/capsaicin/pseudo/defensive-force-and-proportionality.pseudo.srt-images/230.png</property>
  <property name="ttl">25</property>
  <property name="aspect_ratio">1</property>
  <property name="progressive">1</property>
  <property name="seekable">1</property>
  <property name="meta.media.width">1920</property>
  <property name="meta.media.height">1080</property>
  <property name="mlt_service">qimage</property>
  <property name="kdenlive:clipname"/>
  <property name="kdenlive:duration">00:00:05.000</property>
  <property name="kdenlive:folderid">41</property>
  <property name="kdenlive:clip_type">2</property>
  <property name="kdenlive:id">174</property>
  <property name="kdenlive:file_size">9441</property>
  <property name="kdenlive:file_hash">126b59bd638a17568c50bbb0a192ac55</property>
 </producer>
 <producer id="producer171" in="00:00:00.000" out="00:00:05.760">
  <property name="length">145</property>
  <property name="eof">pause</property>
  <property name="resource">/home/liquidzulu/Documents/youtube-scripts/courses/libertarian-ethics/capsaicin/pseudo/defensive-force-and-proportionality.pseudo.srt-images/231.png</property>
  <property name="ttl">25</property>
  <property name="aspect_ratio">1</property>
  <property name="progressive">1</property>
  <property name="seekable">1</property>
  <property name="meta.media.width">1920</property>
  <property name="meta.media.height">1080</property>
  <property name="mlt_service">qimage</property>
  <property name="kdenlive:clipname"/>
  <property name="kdenlive:duration">00:00:05.000</property>
  <property name="kdenlive:folderid">41</property>
  <property name="kdenlive:clip_type">2</property>
  <property name="kdenlive:id">175</property>
  <property name="kdenlive:file_size">9046</property>
  <property name="kdenlive:file_hash">6ab89dd46dfee1efec8165cdb13ef832</property>
 </producer>
 <producer id="producer172" in="00:00:00.000" out="00:00:04.960">
  <property name="length">00:00:05.000</property>
  <property name="eof">pause</property>
  <property name="resource">/home/liquidzulu/Documents/youtube-scripts/courses/libertarian-ethics/capsaicin/pseudo/defensive-force-and-proportionality.pseudo.srt-images/232.png</property>
  <property name="ttl">25</property>
  <property name="aspect_ratio">1</property>
  <property name="progressive">1</property>
  <property name="seekable">1</property>
  <property name="meta.media.width">1920</property>
  <property name="meta.media.height">1080</property>
  <property name="mlt_service">qimage</property>
  <property name="kdenlive:clipname"/>
  <property name="kdenlive:duration">00:00:05.000</property>
  <property name="kdenlive:folderid">41</property>
  <property name="kdenlive:clip_type">2</property>
  <property name="kdenlive:id">176</property>
  <property name="kdenlive:file_size">9076</property>
  <property name="kdenlive:file_hash">75496c31f03de996c58d51dd4b943911</property>
 </producer>
 <producer id="producer173" in="00:00:00.000" out="00:00:04.960">
  <property name="length">00:00:05.000</property>
  <property name="eof">pause</property>
  <property name="resource">/home/liquidzulu/Documents/youtube-scripts/courses/libertarian-ethics/capsaicin/pseudo/defensive-force-and-proportionality.pseudo.srt-images/233.png</property>
  <property name="ttl">25</property>
  <property name="aspect_ratio">1</property>
  <property name="progressive">1</property>
  <property name="seekable">1</property>
  <property name="meta.media.width">1920</property>
  <property name="meta.media.height">1080</property>
  <property name="mlt_service">qimage</property>
  <property name="kdenlive:clipname"/>
  <property name="kdenlive:duration">00:00:05.000</property>
  <property name="kdenlive:folderid">41</property>
  <property name="kdenlive:clip_type">2</property>
  <property name="kdenlive:id">177</property>
  <property name="kdenlive:file_size">9523</property>
  <property name="kdenlive:file_hash">a0361dbd802dab87644af6a69171a7dc</property>
 </producer>
 <producer id="producer174" in="00:00:00.000" out="00:00:04.960">
  <property name="length">00:00:05.000</property>
  <property name="eof">pause</property>
  <property name="resource">/home/liquidzulu/Documents/youtube-scripts/courses/libertarian-ethics/capsaicin/pseudo/defensive-force-and-proportionality.pseudo.srt-images/234.png</property>
  <property name="ttl">25</property>
  <property name="aspect_ratio">1</property>
  <property name="progressive">1</property>
  <property name="seekable">1</property>
  <property name="meta.media.width">1920</property>
  <property name="meta.media.height">1080</property>
  <property name="mlt_service">qimage</property>
  <property name="kdenlive:clipname"/>
  <property name="kdenlive:duration">00:00:05.000</property>
  <property name="kdenlive:folderid">41</property>
  <property name="kdenlive:clip_type">2</property>
  <property name="kdenlive:id">178</property>
  <property name="kdenlive:file_size">8832</property>
  <property name="kdenlive:file_hash">5a04eca472f0759df99fe25f55ba506b</property>
 </producer>
 <producer id="producer175" in="00:00:00.000" out="00:00:04.960">
  <property name="length">00:00:05.000</property>
  <property name="eof">pause</property>
  <property name="resource">/home/liquidzulu/Documents/youtube-scripts/courses/libertarian-ethics/capsaicin/pseudo/defensive-force-and-proportionality.pseudo.srt-images/235.png</property>
  <property name="ttl">25</property>
  <property name="aspect_ratio">1</property>
  <property name="progressive">1</property>
  <property name="seekable">1</property>
  <property name="meta.media.width">1920</property>
  <property name="meta.media.height">1080</property>
  <property name="mlt_service">qimage</property>
  <property name="kdenlive:clipname"/>
  <property name="kdenlive:duration">00:00:05.000</property>
  <property name="kdenlive:folderid">41</property>
  <property name="kdenlive:clip_type">2</property>
  <property name="kdenlive:id">179</property>
  <property name="kdenlive:file_size">8805</property>
  <property name="kdenlive:file_hash">12d1f1bdbb0e0d2428b4c6ad4e9574d1</property>
 </producer>
 <producer id="producer177" in="00:00:00.000" out="00:00:04.960">
  <property name="length">00:00:05.000</property>
  <property name="eof">pause</property>
  <property name="resource">/home/liquidzulu/Documents/youtube-scripts/courses/libertarian-ethics/capsaicin/pseudo/defensive-force-and-proportionality.pseudo.srt-images/236.png</property>
  <property name="ttl">25</property>
  <property name="aspect_ratio">1</property>
  <property name="progressive">1</property>
  <property name="seekable">1</property>
  <property name="meta.media.width">1920</property>
  <property name="meta.media.height">1080</property>
  <property name="mlt_service">qimage</property>
  <property name="kdenlive:clipname"/>
  <property name="kdenlive:duration">00:00:05.000</property>
  <property name="kdenlive:folderid">41</property>
  <property name="kdenlive:clip_type">2</property>
  <property name="kdenlive:id">180</property>
  <property name="kdenlive:file_size">9316</property>
  <property name="kdenlive:file_hash">beeb5785dd2ed72b9feb07f48795fbb8</property>
 </producer>
 <producer id="producer176" in="00:00:00.000" out="00:00:04.960">
  <property name="length">00:00:05.000</property>
  <property name="eof">pause</property>
  <property name="resource">/home/liquidzulu/Documents/youtube-scripts/courses/libertarian-ethics/capsaicin/pseudo/defensive-force-and-proportionality.pseudo.srt-images/237.png</property>
  <property name="ttl">25</property>
  <property name="aspect_ratio">1</property>
  <property name="progressive">1</property>
  <property name="seekable">1</property>
  <property name="meta.media.width">1920</property>
  <property name="meta.media.height">1080</property>
  <property name="mlt_service">qimage</property>
  <property name="kdenlive:clipname"/>
  <property name="kdenlive:duration">00:00:05.000</property>
  <property name="kdenlive:folderid">41</property>
  <property name="kdenlive:clip_type">2</property>
  <property name="kdenlive:id">181</property>
  <property name="kdenlive:file_size">8877</property>
  <property name="kdenlive:file_hash">d586e49fb9a6450a53bbbf576f532655</property>
 </producer>
 <producer id="producer178" in="00:00:00.000" out="00:00:04.960">
  <property name="length">00:00:05.000</property>
  <property name="eof">pause</property>
  <property name="resource">/home/liquidzulu/Documents/youtube-scripts/courses/libertarian-ethics/capsaicin/pseudo/defensive-force-and-proportionality.pseudo.srt-images/238.png</property>
  <property name="ttl">25</property>
  <property name="aspect_ratio">1</property>
  <property name="progressive">1</property>
  <property name="seekable">1</property>
  <property name="meta.media.width">1920</property>
  <property name="meta.media.height">1080</property>
  <property name="mlt_service">qimage</property>
  <property name="kdenlive:clipname"/>
  <property name="kdenlive:duration">00:00:05.000</property>
  <property name="kdenlive:folderid">41</property>
  <property name="kdenlive:clip_type">2</property>
  <property name="kdenlive:id">182</property>
  <property name="kdenlive:file_size">8660</property>
  <property name="kdenlive:file_hash">e78b9b507c6d4bf87678b27e80273b2d</property>
 </producer>
 <producer id="producer179" in="00:00:00.000" out="00:00:04.960">
  <property name="length">00:00:05.000</property>
  <property name="eof">pause</property>
  <property name="resource">/home/liquidzulu/Documents/youtube-scripts/courses/libertarian-ethics/capsaicin/pseudo/defensive-force-and-proportionality.pseudo.srt-images/239.png</property>
  <property name="ttl">25</property>
  <property name="aspect_ratio">1</property>
  <property name="progressive">1</property>
  <property name="seekable">1</property>
  <property name="meta.media.width">1920</property>
  <property name="meta.media.height">1080</property>
  <property name="mlt_service">qimage</property>
  <property name="kdenlive:clipname"/>
  <property name="kdenlive:duration">00:00:05.000</property>
  <property name="kdenlive:folderid">41</property>
  <property name="kdenlive:clip_type">2</property>
  <property name="kdenlive:id">183</property>
  <property name="kdenlive:file_size">8802</property>
  <property name="kdenlive:file_hash">7733648f36a72243e55319629601c22e</property>
 </producer>
 <producer id="producer180" in="00:00:00.000" out="00:00:04.960">
  <property name="length">00:00:05.000</property>
  <property name="eof">pause</property>
  <property name="resource">/home/liquidzulu/Documents/youtube-scripts/courses/libertarian-ethics/capsaicin/pseudo/defensive-force-and-proportionality.pseudo.srt-images/240.png</property>
  <property name="ttl">25</property>
  <property name="aspect_ratio">1</property>
  <property name="progressive">1</property>
  <property name="seekable">1</property>
  <property name="meta.media.width">1920</property>
  <property name="meta.media.height">1080</property>
  <property name="mlt_service">qimage</property>
  <property name="kdenlive:clipname"/>
  <property name="kdenlive:duration">00:00:05.000</property>
  <property name="kdenlive:folderid">41</property>
  <property name="kdenlive:clip_type">2</property>
  <property name="kdenlive:id">184</property>
  <property name="kdenlive:file_size">9025</property>
  <property name="kdenlive:file_hash">26566aa9adfce0980ebc1aa6907ebbb3</property>
 </producer>
 <producer id="producer181" in="00:00:00.000" out="00:00:04.960">
  <property name="length">00:00:05.000</property>
  <property name="eof">pause</property>
  <property name="resource">/home/liquidzulu/Documents/youtube-scripts/courses/libertarian-ethics/capsaicin/pseudo/defensive-force-and-proportionality.pseudo.srt-images/241.png</property>
  <property name="ttl">25</property>
  <property name="aspect_ratio">1</property>
  <property name="progressive">1</property>
  <property name="seekable">1</property>
  <property name="meta.media.width">1920</property>
  <property name="meta.media.height">1080</property>
  <property name="mlt_service">qimage</property>
  <property name="kdenlive:clipname"/>
  <property name="kdenlive:duration">00:00:05.000</property>
  <property name="kdenlive:folderid">41</property>
  <property name="kdenlive:clip_type">2</property>
  <property name="kdenlive:id">185</property>
  <property name="kdenlive:file_size">9066</property>
  <property name="kdenlive:file_hash">0ccb74ed0670a4970f25d47091b9b3f6</property>
 </producer>
 <producer id="producer183" in="00:00:00.000" out="00:00:04.960">
  <property name="length">00:00:05.000</property>
  <property name="eof">pause</property>
  <property name="resource">/home/liquidzulu/Documents/youtube-scripts/courses/libertarian-ethics/capsaicin/pseudo/defensive-force-and-proportionality.pseudo.srt-images/242.png</property>
  <property name="ttl">25</property>
  <property name="aspect_ratio">1</property>
  <property name="progressive">1</property>
  <property name="seekable">1</property>
  <property name="meta.media.width">1920</property>
  <property name="meta.media.height">1080</property>
  <property name="mlt_service">qimage</property>
  <property name="kdenlive:clipname"/>
  <property name="kdenlive:duration">00:00:05.000</property>
  <property name="kdenlive:folderid">41</property>
  <property name="kdenlive:clip_type">2</property>
  <property name="kdenlive:id">186</property>
  <property name="kdenlive:file_size">8769</property>
  <property name="kdenlive:file_hash">f885d3719afc8a10e5fb432b6ccd5a39</property>
 </producer>
 <producer id="producer182" in="00:00:00.000" out="00:00:04.960">
  <property name="length">00:00:05.000</property>
  <property name="eof">pause</property>
  <property name="resource">/home/liquidzulu/Documents/youtube-scripts/courses/libertarian-ethics/capsaicin/pseudo/defensive-force-and-proportionality.pseudo.srt-images/243.png</property>
  <property name="ttl">25</property>
  <property name="aspect_ratio">1</property>
  <property name="progressive">1</property>
  <property name="seekable">1</property>
  <property name="meta.media.width">1920</property>
  <property name="meta.media.height">1080</property>
  <property name="mlt_service">qimage</property>
  <property name="kdenlive:clipname"/>
  <property name="kdenlive:duration">00:00:05.000</property>
  <property name="kdenlive:folderid">41</property>
  <property name="kdenlive:clip_type">2</property>
  <property name="kdenlive:id">187</property>
  <property name="kdenlive:file_size">8564</property>
  <property name="kdenlive:file_hash">e642ff27d0f77ddc0a3a56ac0136fc34</property>
 </producer>
 <producer id="producer185" in="00:00:00.000" out="00:00:04.960">
  <property name="length">00:00:05.000</property>
  <property name="eof">pause</property>
  <property name="resource">/home/liquidzulu/Documents/youtube-scripts/courses/libertarian-ethics/capsaicin/pseudo/defensive-force-and-proportionality.pseudo.srt-images/244.png</property>
  <property name="ttl">25</property>
  <property name="aspect_ratio">1</property>
  <property name="progressive">1</property>
  <property name="seekable">1</property>
  <property name="meta.media.width">1920</property>
  <property name="meta.media.height">1080</property>
  <property name="mlt_service">qimage</property>
  <property name="kdenlive:clipname"/>
  <property name="kdenlive:duration">00:00:05.000</property>
  <property name="kdenlive:folderid">41</property>
  <property name="kdenlive:clip_type">2</property>
  <property name="kdenlive:id">188</property>
  <property name="kdenlive:file_size">8950</property>
  <property name="kdenlive:file_hash">67f58c7f28b9a02e7c6c89848bacea0e</property>
 </producer>
 <producer id="producer184" in="00:00:00.000" out="00:00:04.960">
  <property name="length">00:00:05.000</property>
  <property name="eof">pause</property>
  <property name="resource">/home/liquidzulu/Documents/youtube-scripts/courses/libertarian-ethics/capsaicin/pseudo/defensive-force-and-proportionality.pseudo.srt-images/245.png</property>
  <property name="ttl">25</property>
  <property name="aspect_ratio">1</property>
  <property name="progressive">1</property>
  <property name="seekable">1</property>
  <property name="meta.media.width">1920</property>
  <property name="meta.media.height">1080</property>
  <property name="mlt_service">qimage</property>
  <property name="kdenlive:clipname"/>
  <property name="kdenlive:duration">00:00:05.000</property>
  <property name="kdenlive:folderid">41</property>
  <property name="kdenlive:clip_type">2</property>
  <property name="kdenlive:id">189</property>
  <property name="kdenlive:file_size">9104</property>
  <property name="kdenlive:file_hash">582b458e69477debba9e9d646b600310</property>
 </producer>
 <producer id="producer186" in="00:00:00.000" out="00:00:04.960">
  <property name="length">00:00:05.000</property>
  <property name="eof">pause</property>
  <property name="resource">/home/liquidzulu/Documents/youtube-scripts/courses/libertarian-ethics/capsaicin/pseudo/defensive-force-and-proportionality.pseudo.srt-images/246.png</property>
  <property name="ttl">25</property>
  <property name="aspect_ratio">1</property>
  <property name="progressive">1</property>
  <property name="seekable">1</property>
  <property name="meta.media.width">1920</property>
  <property name="meta.media.height">1080</property>
  <property name="mlt_service">qimage</property>
  <property name="kdenlive:clipname"/>
  <property name="kdenlive:duration">00:00:05.000</property>
  <property name="kdenlive:folderid">41</property>
  <property name="kdenlive:clip_type">2</property>
  <property name="kdenlive:id">190</property>
  <property name="kdenlive:file_size">9324</property>
  <property name="kdenlive:file_hash">43b5f7df42c4d3639592310c03b2b26d</property>
 </producer>
 <producer id="producer187" in="00:00:00.000" out="00:00:04.960">
  <property name="length">00:00:05.000</property>
  <property name="eof">pause</property>
  <property name="resource">/home/liquidzulu/Documents/youtube-scripts/courses/libertarian-ethics/capsaicin/pseudo/defensive-force-and-proportionality.pseudo.srt-images/247.png</property>
  <property name="ttl">25</property>
  <property name="aspect_ratio">1</property>
  <property name="progressive">1</property>
  <property name="seekable">1</property>
  <property name="meta.media.width">1920</property>
  <property name="meta.media.height">1080</property>
  <property name="mlt_service">qimage</property>
  <property name="kdenlive:clipname"/>
  <property name="kdenlive:duration">00:00:05.000</property>
  <property name="kdenlive:folderid">41</property>
  <property name="kdenlive:clip_type">2</property>
  <property name="kdenlive:id">191</property>
  <property name="kdenlive:file_size">8654</property>
  <property name="kdenlive:file_hash">a818003d37aa07a60a5d5e80c2e08215</property>
 </producer>
 <producer id="producer188" in="00:00:00.000" out="00:00:04.960">
  <property name="length">00:00:05.000</property>
  <property name="eof">pause</property>
  <property name="resource">/home/liquidzulu/Documents/youtube-scripts/courses/libertarian-ethics/capsaicin/pseudo/defensive-force-and-proportionality.pseudo.srt-images/248.png</property>
  <property name="ttl">25</property>
  <property name="aspect_ratio">1</property>
  <property name="progressive">1</property>
  <property name="seekable">1</property>
  <property name="meta.media.width">1920</property>
  <property name="meta.media.height">1080</property>
  <property name="mlt_service">qimage</property>
  <property name="kdenlive:clipname"/>
  <property name="kdenlive:duration">00:00:05.000</property>
  <property name="kdenlive:folderid">41</property>
  <property name="kdenlive:clip_type">2</property>
  <property name="kdenlive:id">192</property>
  <property name="kdenlive:file_size">9427</property>
  <property name="kdenlive:file_hash">d2c121cc53e7e31793f77161b3de0584</property>
 </producer>
 <producer id="producer189" in="00:00:00.000" out="00:00:04.960">
  <property name="length">00:00:05.000</property>
  <property name="eof">pause</property>
  <property name="resource">/home/liquidzulu/Documents/youtube-scripts/courses/libertarian-ethics/capsaicin/pseudo/defensive-force-and-proportionality.pseudo.srt-images/249.png</property>
  <property name="ttl">25</property>
  <property name="aspect_ratio">1</property>
  <property name="progressive">1</property>
  <property name="seekable">1</property>
  <property name="meta.media.width">1920</property>
  <property name="meta.media.height">1080</property>
  <property name="mlt_service">qimage</property>
  <property name="kdenlive:clipname"/>
  <property name="kdenlive:duration">00:00:05.000</property>
  <property name="kdenlive:folderid">41</property>
  <property name="kdenlive:clip_type">2</property>
  <property name="kdenlive:id">193</property>
  <property name="kdenlive:file_size">9192</property>
  <property name="kdenlive:file_hash">b1931c86706eebe22a5e494d820a8899</property>
 </producer>
 <producer id="producer190" in="00:00:00.000" out="00:00:04.960">
  <property name="length">00:00:05.000</property>
  <property name="eof">pause</property>
  <property name="resource">/home/liquidzulu/Documents/youtube-scripts/courses/libertarian-ethics/capsaicin/pseudo/defensive-force-and-proportionality.pseudo.srt-images/250.png</property>
  <property name="ttl">25</property>
  <property name="aspect_ratio">1</property>
  <property name="progressive">1</property>
  <property name="seekable">1</property>
  <property name="meta.media.width">1920</property>
  <property name="meta.media.height">1080</property>
  <property name="mlt_service">qimage</property>
  <property name="kdenlive:clipname"/>
  <property name="kdenlive:duration">00:00:05.000</property>
  <property name="kdenlive:folderid">41</property>
  <property name="kdenlive:clip_type">2</property>
  <property name="kdenlive:id">194</property>
  <property name="kdenlive:file_size">8580</property>
  <property name="kdenlive:file_hash">8841c3a8a3eab522fa30eebf59f09c28</property>
 </producer>
 <producer id="producer191" in="00:00:00.000" out="00:00:04.960">
  <property name="length">00:00:05.000</property>
  <property name="eof">pause</property>
  <property name="resource">/home/liquidzulu/Documents/youtube-scripts/courses/libertarian-ethics/capsaicin/pseudo/defensive-force-and-proportionality.pseudo.srt-images/251.png</property>
  <property name="ttl">25</property>
  <property name="aspect_ratio">1</property>
  <property name="progressive">1</property>
  <property name="seekable">1</property>
  <property name="meta.media.width">1920</property>
  <property name="meta.media.height">1080</property>
  <property name="mlt_service">qimage</property>
  <property name="kdenlive:clipname"/>
  <property name="kdenlive:duration">00:00:05.000</property>
  <property name="kdenlive:folderid">41</property>
  <property name="kdenlive:clip_type">2</property>
  <property name="kdenlive:id">195</property>
  <property name="kdenlive:file_size">9852</property>
  <property name="kdenlive:file_hash">49736b1264196b72ba87ffb6ff96a47a</property>
 </producer>
 <producer id="producer192" in="00:00:00.000" out="00:00:04.960">
  <property name="length">00:00:05.000</property>
  <property name="eof">pause</property>
  <property name="resource">/home/liquidzulu/Documents/youtube-scripts/courses/libertarian-ethics/capsaicin/pseudo/defensive-force-and-proportionality.pseudo.srt-images/252.png</property>
  <property name="ttl">25</property>
  <property name="aspect_ratio">1</property>
  <property name="progressive">1</property>
  <property name="seekable">1</property>
  <property name="meta.media.width">1920</property>
  <property name="meta.media.height">1080</property>
  <property name="mlt_service">qimage</property>
  <property name="kdenlive:clipname"/>
  <property name="kdenlive:duration">00:00:05.000</property>
  <property name="kdenlive:folderid">41</property>
  <property name="kdenlive:clip_type">2</property>
  <property name="kdenlive:id">196</property>
  <property name="kdenlive:file_size">9022</property>
  <property name="kdenlive:file_hash">a2db5b279bd92c6acaed9f6f40b62229</property>
 </producer>
 <producer id="producer193" in="00:00:00.000" out="00:00:04.960">
  <property name="length">00:00:05.000</property>
  <property name="eof">pause</property>
  <property name="resource">/home/liquidzulu/Documents/youtube-scripts/courses/libertarian-ethics/capsaicin/pseudo/defensive-force-and-proportionality.pseudo.srt-images/253.png</property>
  <property name="ttl">25</property>
  <property name="aspect_ratio">1</property>
  <property name="progressive">1</property>
  <property name="seekable">1</property>
  <property name="meta.media.width">1920</property>
  <property name="meta.media.height">1080</property>
  <property name="mlt_service">qimage</property>
  <property name="kdenlive:clipname"/>
  <property name="kdenlive:duration">00:00:05.000</property>
  <property name="kdenlive:folderid">41</property>
  <property name="kdenlive:clip_type">2</property>
  <property name="kdenlive:id">197</property>
  <property name="kdenlive:file_size">9068</property>
  <property name="kdenlive:file_hash">a6474aa00b31a7311c1ff59bdc5276f9</property>
 </producer>
 <producer id="producer194" in="00:00:00.000" out="00:00:04.960">
  <property name="length">00:00:05.000</property>
  <property name="eof">pause</property>
  <property name="resource">/home/liquidzulu/Documents/youtube-scripts/courses/libertarian-ethics/capsaicin/pseudo/defensive-force-and-proportionality.pseudo.srt-images/254.png</property>
  <property name="ttl">25</property>
  <property name="aspect_ratio">1</property>
  <property name="progressive">1</property>
  <property name="seekable">1</property>
  <property name="meta.media.width">1920</property>
  <property name="meta.media.height">1080</property>
  <property name="mlt_service">qimage</property>
  <property name="kdenlive:clipname"/>
  <property name="kdenlive:duration">00:00:05.000</property>
  <property name="kdenlive:folderid">41</property>
  <property name="kdenlive:clip_type">2</property>
  <property name="kdenlive:id">198</property>
  <property name="kdenlive:file_size">9232</property>
  <property name="kdenlive:file_hash">ccf07862b9548deae1be448255a097a0</property>
 </producer>
 <producer id="producer196" in="00:00:00.000" out="00:00:04.960">
  <property name="length">00:00:05.000</property>
  <property name="eof">pause</property>
  <property name="resource">/home/liquidzulu/Documents/youtube-scripts/courses/libertarian-ethics/capsaicin/pseudo/defensive-force-and-proportionality.pseudo.srt-images/255.png</property>
  <property name="ttl">25</property>
  <property name="aspect_ratio">1</property>
  <property name="progressive">1</property>
  <property name="seekable">1</property>
  <property name="meta.media.width">1920</property>
  <property name="meta.media.height">1080</property>
  <property name="mlt_service">qimage</property>
  <property name="kdenlive:clipname"/>
  <property name="kdenlive:duration">00:00:05.000</property>
  <property name="kdenlive:folderid">41</property>
  <property name="kdenlive:clip_type">2</property>
  <property name="kdenlive:id">199</property>
  <property name="kdenlive:file_size">8718</property>
  <property name="kdenlive:file_hash">5dc1b14f8a898da7847d68377ed55123</property>
 </producer>
 <producer id="producer195" in="00:00:00.000" out="00:00:04.960">
  <property name="length">00:00:05.000</property>
  <property name="eof">pause</property>
  <property name="resource">/home/liquidzulu/Documents/youtube-scripts/courses/libertarian-ethics/capsaicin/pseudo/defensive-force-and-proportionality.pseudo.srt-images/256.png</property>
  <property name="ttl">25</property>
  <property name="aspect_ratio">1</property>
  <property name="progressive">1</property>
  <property name="seekable">1</property>
  <property name="meta.media.width">1920</property>
  <property name="meta.media.height">1080</property>
  <property name="mlt_service">qimage</property>
  <property name="kdenlive:clipname"/>
  <property name="kdenlive:duration">00:00:05.000</property>
  <property name="kdenlive:folderid">41</property>
  <property name="kdenlive:clip_type">2</property>
  <property name="kdenlive:id">200</property>
  <property name="kdenlive:file_size">8824</property>
  <property name="kdenlive:file_hash">9a091207b3bf6e75097801efd943d217</property>
 </producer>
 <producer id="producer197" in="00:00:00.000" out="00:00:04.960">
  <property name="length">00:00:05.000</property>
  <property name="eof">pause</property>
  <property name="resource">/home/liquidzulu/Documents/youtube-scripts/courses/libertarian-ethics/capsaicin/pseudo/defensive-force-and-proportionality.pseudo.srt-images/257.png</property>
  <property name="ttl">25</property>
  <property name="aspect_ratio">1</property>
  <property name="progressive">1</property>
  <property name="seekable">1</property>
  <property name="meta.media.width">1920</property>
  <property name="meta.media.height">1080</property>
  <property name="mlt_service">qimage</property>
  <property name="kdenlive:clipname"/>
  <property name="kdenlive:duration">00:00:05.000</property>
  <property name="kdenlive:folderid">41</property>
  <property name="kdenlive:clip_type">2</property>
  <property name="kdenlive:id">201</property>
  <property name="kdenlive:file_size">8888</property>
  <property name="kdenlive:file_hash">b3d617cf91631a3140a83a03085b6be0</property>
 </producer>
 <producer id="producer198" in="00:00:00.000" out="00:00:04.960">
  <property name="length">00:00:05.000</property>
  <property name="eof">pause</property>
  <property name="resource">/home/liquidzulu/Documents/youtube-scripts/courses/libertarian-ethics/capsaicin/pseudo/defensive-force-and-proportionality.pseudo.srt-images/258.png</property>
  <property name="ttl">25</property>
  <property name="aspect_ratio">1</property>
  <property name="progressive">1</property>
  <property name="seekable">1</property>
  <property name="meta.media.width">1920</property>
  <property name="meta.media.height">1080</property>
  <property name="mlt_service">qimage</property>
  <property name="kdenlive:clipname"/>
  <property name="kdenlive:duration">00:00:05.000</property>
  <property name="kdenlive:folderid">41</property>
  <property name="kdenlive:clip_type">2</property>
  <property name="kdenlive:id">202</property>
  <property name="kdenlive:file_size">9216</property>
  <property name="kdenlive:file_hash">680e2dcc755fad5591453f519fffbb76</property>
 </producer>
 <producer id="producer199" in="00:00:00.000" out="00:00:04.960">
  <property name="length">00:00:05.000</property>
  <property name="eof">pause</property>
  <property name="resource">/home/liquidzulu/Documents/youtube-scripts/courses/libertarian-ethics/capsaicin/pseudo/defensive-force-and-proportionality.pseudo.srt-images/259.png</property>
  <property name="ttl">25</property>
  <property name="aspect_ratio">1</property>
  <property name="progressive">1</property>
  <property name="seekable">1</property>
  <property name="meta.media.width">1920</property>
  <property name="meta.media.height">1080</property>
  <property name="mlt_service">qimage</property>
  <property name="kdenlive:clipname"/>
  <property name="kdenlive:duration">00:00:05.000</property>
  <property name="kdenlive:folderid">41</property>
  <property name="kdenlive:clip_type">2</property>
  <property name="kdenlive:id">203</property>
  <property name="kdenlive:file_size">8776</property>
  <property name="kdenlive:file_hash">9cebec96c79011fbf2244097817e51da</property>
 </producer>
 <producer id="producer200" in="00:00:00.000" out="00:00:05.040">
  <property name="length">127</property>
  <property name="eof">pause</property>
  <property name="resource">/home/liquidzulu/Documents/youtube-scripts/courses/libertarian-ethics/capsaicin/pseudo/defensive-force-and-proportionality.pseudo.srt-images/260.png</property>
  <property name="ttl">25</property>
  <property name="aspect_ratio">1</property>
  <property name="progressive">1</property>
  <property name="seekable">1</property>
  <property name="meta.media.width">1920</property>
  <property name="meta.media.height">1080</property>
  <property name="mlt_service">qimage</property>
  <property name="kdenlive:clipname"/>
  <property name="kdenlive:duration">00:00:05.000</property>
  <property name="kdenlive:folderid">41</property>
  <property name="kdenlive:clip_type">2</property>
  <property name="kdenlive:id">204</property>
  <property name="kdenlive:file_size">9072</property>
  <property name="kdenlive:file_hash">9c0c6b7f26c95c6e57a4a295ae3fa955</property>
 </producer>
 <producer id="producer201" in="00:00:00.000" out="00:00:04.960">
  <property name="length">00:00:05.000</property>
  <property name="eof">pause</property>
  <property name="resource">/home/liquidzulu/Documents/youtube-scripts/courses/libertarian-ethics/capsaicin/pseudo/defensive-force-and-proportionality.pseudo.srt-images/261.png</property>
  <property name="ttl">25</property>
  <property name="aspect_ratio">1</property>
  <property name="progressive">1</property>
  <property name="seekable">1</property>
  <property name="meta.media.width">1920</property>
  <property name="meta.media.height">1080</property>
  <property name="mlt_service">qimage</property>
  <property name="kdenlive:clipname"/>
  <property name="kdenlive:duration">00:00:05.000</property>
  <property name="kdenlive:folderid">41</property>
  <property name="kdenlive:clip_type">2</property>
  <property name="kdenlive:id">205</property>
  <property name="kdenlive:file_size">9347</property>
  <property name="kdenlive:file_hash">341e07adf64c30afa1765923b5031c33</property>
 </producer>
 <producer id="producer202" in="00:00:00.000" out="00:00:04.960">
  <property name="length">00:00:05.000</property>
  <property name="eof">pause</property>
  <property name="resource">/home/liquidzulu/Documents/youtube-scripts/courses/libertarian-ethics/capsaicin/pseudo/defensive-force-and-proportionality.pseudo.srt-images/262.png</property>
  <property name="ttl">25</property>
  <property name="aspect_ratio">1</property>
  <property name="progressive">1</property>
  <property name="seekable">1</property>
  <property name="meta.media.width">1920</property>
  <property name="meta.media.height">1080</property>
  <property name="mlt_service">qimage</property>
  <property name="kdenlive:clipname"/>
  <property name="kdenlive:duration">00:00:05.000</property>
  <property name="kdenlive:folderid">41</property>
  <property name="kdenlive:clip_type">2</property>
  <property name="kdenlive:id">206</property>
  <property name="kdenlive:file_size">9601</property>
  <property name="kdenlive:file_hash">c3931aebd1996c213e265d9243680324</property>
 </producer>
 <producer id="producer203" in="00:00:00.000" out="00:00:04.960">
  <property name="length">00:00:05.000</property>
  <property name="eof">pause</property>
  <property name="resource">/home/liquidzulu/Documents/youtube-scripts/courses/libertarian-ethics/capsaicin/pseudo/defensive-force-and-proportionality.pseudo.srt-images/263.png</property>
  <property name="ttl">25</property>
  <property name="aspect_ratio">1</property>
  <property name="progressive">1</property>
  <property name="seekable">1</property>
  <property name="meta.media.width">1920</property>
  <property name="meta.media.height">1080</property>
  <property name="mlt_service">qimage</property>
  <property name="kdenlive:clipname"/>
  <property name="kdenlive:duration">00:00:05.000</property>
  <property name="kdenlive:folderid">41</property>
  <property name="kdenlive:clip_type">2</property>
  <property name="kdenlive:id">207</property>
  <property name="kdenlive:file_size">9722</property>
  <property name="kdenlive:file_hash">29cf3ed94b131ea56f2bc70d264ea7af</property>
 </producer>
 <producer id="producer204" in="00:00:00.000" out="00:00:05.280">
  <property name="length">133</property>
  <property name="eof">pause</property>
  <property name="resource">/home/liquidzulu/Documents/youtube-scripts/courses/libertarian-ethics/capsaicin/pseudo/defensive-force-and-proportionality.pseudo.srt-images/264.png</property>
  <property name="ttl">25</property>
  <property name="aspect_ratio">1</property>
  <property name="progressive">1</property>
  <property name="seekable">1</property>
  <property name="meta.media.width">1920</property>
  <property name="meta.media.height">1080</property>
  <property name="mlt_service">qimage</property>
  <property name="kdenlive:clipname"/>
  <property name="kdenlive:duration">00:00:05.000</property>
  <property name="kdenlive:folderid">41</property>
  <property name="kdenlive:clip_type">2</property>
  <property name="kdenlive:id">208</property>
  <property name="kdenlive:file_size">9007</property>
  <property name="kdenlive:file_hash">cc0390387ade93de9d5369e68874b6d2</property>
 </producer>
 <producer id="producer205" in="00:00:00.000" out="00:00:05.400">
  <property name="length">136</property>
  <property name="eof">pause</property>
  <property name="resource">/home/liquidzulu/Documents/youtube-scripts/courses/libertarian-ethics/capsaicin/pseudo/defensive-force-and-proportionality.pseudo.srt-images/265.png</property>
  <property name="ttl">25</property>
  <property name="aspect_ratio">1</property>
  <property name="progressive">1</property>
  <property name="seekable">1</property>
  <property name="meta.media.width">1920</property>
  <property name="meta.media.height">1080</property>
  <property name="mlt_service">qimage</property>
  <property name="kdenlive:clipname"/>
  <property name="kdenlive:duration">00:00:05.000</property>
  <property name="kdenlive:folderid">41</property>
  <property name="kdenlive:clip_type">2</property>
  <property name="kdenlive:id">209</property>
  <property name="kdenlive:file_size">9182</property>
  <property name="kdenlive:file_hash">ec9982c559b5864cb0ff825c77472851</property>
 </producer>
 <producer id="producer206" in="00:00:00.000" out="00:00:04.960">
  <property name="length">00:00:05.000</property>
  <property name="eof">pause</property>
  <property name="resource">/home/liquidzulu/Documents/youtube-scripts/courses/libertarian-ethics/capsaicin/pseudo/defensive-force-and-proportionality.pseudo.srt-images/266.png</property>
  <property name="ttl">25</property>
  <property name="aspect_ratio">1</property>
  <property name="progressive">1</property>
  <property name="seekable">1</property>
  <property name="meta.media.width">1920</property>
  <property name="meta.media.height">1080</property>
  <property name="mlt_service">qimage</property>
  <property name="kdenlive:clipname"/>
  <property name="kdenlive:duration">00:00:05.000</property>
  <property name="kdenlive:folderid">41</property>
  <property name="kdenlive:clip_type">2</property>
  <property name="kdenlive:id">210</property>
  <property name="kdenlive:file_size">9073</property>
  <property name="kdenlive:file_hash">017d21d34734aef7da1b2dc3796ad20d</property>
 </producer>
 <producer id="producer207" in="00:00:00.000" out="00:00:04.960">
  <property name="length">00:00:05.000</property>
  <property name="eof">pause</property>
  <property name="resource">/home/liquidzulu/Documents/youtube-scripts/courses/libertarian-ethics/capsaicin/pseudo/defensive-force-and-proportionality.pseudo.srt-images/267.png</property>
  <property name="ttl">25</property>
  <property name="aspect_ratio">1</property>
  <property name="progressive">1</property>
  <property name="seekable">1</property>
  <property name="meta.media.width">1920</property>
  <property name="meta.media.height">1080</property>
  <property name="mlt_service">qimage</property>
  <property name="kdenlive:clipname"/>
  <property name="kdenlive:duration">00:00:05.000</property>
  <property name="kdenlive:folderid">41</property>
  <property name="kdenlive:clip_type">2</property>
  <property name="kdenlive:id">211</property>
  <property name="kdenlive:file_size">9334</property>
  <property name="kdenlive:file_hash">d108135ac4a9155e8a8f3f8d3a062b5d</property>
 </producer>
 <producer id="producer208" in="00:00:00.000" out="00:00:04.960">
  <property name="length">00:00:05.000</property>
  <property name="eof">pause</property>
  <property name="resource">/home/liquidzulu/Documents/youtube-scripts/courses/libertarian-ethics/capsaicin/pseudo/defensive-force-and-proportionality.pseudo.srt-images/268.png</property>
  <property name="ttl">25</property>
  <property name="aspect_ratio">1</property>
  <property name="progressive">1</property>
  <property name="seekable">1</property>
  <property name="meta.media.width">1920</property>
  <property name="meta.media.height">1080</property>
  <property name="mlt_service">qimage</property>
  <property name="kdenlive:clipname"/>
  <property name="kdenlive:duration">00:00:05.000</property>
  <property name="kdenlive:folderid">41</property>
  <property name="kdenlive:clip_type">2</property>
  <property name="kdenlive:id">212</property>
  <property name="kdenlive:file_size">9434</property>
  <property name="kdenlive:file_hash">7f953380c8d91127b72ad686cf9585d4</property>
 </producer>
 <producer id="producer209" in="00:00:00.000" out="00:00:04.960">
  <property name="length">00:00:05.000</property>
  <property name="eof">pause</property>
  <property name="resource">/home/liquidzulu/Documents/youtube-scripts/courses/libertarian-ethics/capsaicin/pseudo/defensive-force-and-proportionality.pseudo.srt-images/269.png</property>
  <property name="ttl">25</property>
  <property name="aspect_ratio">1</property>
  <property name="progressive">1</property>
  <property name="seekable">1</property>
  <property name="meta.media.width">1920</property>
  <property name="meta.media.height">1080</property>
  <property name="mlt_service">qimage</property>
  <property name="kdenlive:clipname"/>
  <property name="kdenlive:duration">00:00:05.000</property>
  <property name="kdenlive:folderid">41</property>
  <property name="kdenlive:clip_type">2</property>
  <property name="kdenlive:id">213</property>
  <property name="kdenlive:file_size">9346</property>
  <property name="kdenlive:file_hash">59318147e2c012de114e6a3fd7293b2a</property>
 </producer>
 <producer id="producer210" in="00:00:00.000" out="00:00:04.960">
  <property name="length">00:00:05.000</property>
  <property name="eof">pause</property>
  <property name="resource">/home/liquidzulu/Documents/youtube-scripts/courses/libertarian-ethics/capsaicin/pseudo/defensive-force-and-proportionality.pseudo.srt-images/270.png</property>
  <property name="ttl">25</property>
  <property name="aspect_ratio">1</property>
  <property name="progressive">1</property>
  <property name="seekable">1</property>
  <property name="meta.media.width">1920</property>
  <property name="meta.media.height">1080</property>
  <property name="mlt_service">qimage</property>
  <property name="kdenlive:clipname"/>
  <property name="kdenlive:duration">00:00:05.000</property>
  <property name="kdenlive:folderid">41</property>
  <property name="kdenlive:clip_type">2</property>
  <property name="kdenlive:id">214</property>
  <property name="kdenlive:file_size">10003</property>
  <property name="kdenlive:file_hash">4de5dd809eadb21efc95b6001a4d49bd</property>
 </producer>
 <producer id="producer211" in="00:00:00.000" out="00:00:04.960">
  <property name="length">00:00:05.000</property>
  <property name="eof">pause</property>
  <property name="resource">/home/liquidzulu/Documents/youtube-scripts/courses/libertarian-ethics/capsaicin/pseudo/defensive-force-and-proportionality.pseudo.srt-images/271.png</property>
  <property name="ttl">25</property>
  <property name="aspect_ratio">1</property>
  <property name="progressive">1</property>
  <property name="seekable">1</property>
  <property name="meta.media.width">1920</property>
  <property name="meta.media.height">1080</property>
  <property name="mlt_service">qimage</property>
  <property name="kdenlive:clipname"/>
  <property name="kdenlive:duration">00:00:05.000</property>
  <property name="kdenlive:folderid">41</property>
  <property name="kdenlive:clip_type">2</property>
  <property name="kdenlive:id">215</property>
  <property name="kdenlive:file_size">9800</property>
  <property name="kdenlive:file_hash">246481a59024f5d68f78e1a9ec5ad3b7</property>
 </producer>
 <producer id="producer212" in="00:00:00.000" out="00:00:04.960">
  <property name="length">00:00:05.000</property>
  <property name="eof">pause</property>
  <property name="resource">/home/liquidzulu/Documents/youtube-scripts/courses/libertarian-ethics/capsaicin/pseudo/defensive-force-and-proportionality.pseudo.srt-images/272.png</property>
  <property name="ttl">25</property>
  <property name="aspect_ratio">1</property>
  <property name="progressive">1</property>
  <property name="seekable">1</property>
  <property name="meta.media.width">1920</property>
  <property name="meta.media.height">1080</property>
  <property name="mlt_service">qimage</property>
  <property name="kdenlive:clipname"/>
  <property name="kdenlive:duration">00:00:05.000</property>
  <property name="kdenlive:folderid">41</property>
  <property name="kdenlive:clip_type">2</property>
  <property name="kdenlive:id">216</property>
  <property name="kdenlive:file_size">9224</property>
  <property name="kdenlive:file_hash">1f415c2028362580f3b3b43c90789a3c</property>
 </producer>
 <producer id="producer213" in="00:00:00.000" out="00:00:04.960">
  <property name="length">00:00:05.000</property>
  <property name="eof">pause</property>
  <property name="resource">/home/liquidzulu/Documents/youtube-scripts/courses/libertarian-ethics/capsaicin/pseudo/defensive-force-and-proportionality.pseudo.srt-images/273.png</property>
  <property name="ttl">25</property>
  <property name="aspect_ratio">1</property>
  <property name="progressive">1</property>
  <property name="seekable">1</property>
  <property name="meta.media.width">1920</property>
  <property name="meta.media.height">1080</property>
  <property name="mlt_service">qimage</property>
  <property name="kdenlive:clipname"/>
  <property name="kdenlive:duration">00:00:05.000</property>
  <property name="kdenlive:folderid">41</property>
  <property name="kdenlive:clip_type">2</property>
  <property name="kdenlive:id">217</property>
  <property name="kdenlive:file_size">7781</property>
  <property name="kdenlive:file_hash">227c6e8419727c9bca84c993692c137d</property>
 </producer>
 <producer id="producer214" in="00:00:00.000" out="00:00:04.960">
  <property name="length">00:00:05.000</property>
  <property name="eof">pause</property>
  <property name="resource">/home/liquidzulu/Documents/youtube-scripts/courses/libertarian-ethics/capsaicin/pseudo/defensive-force-and-proportionality.pseudo.srt-images/278.png</property>
  <property name="ttl">25</property>
  <property name="aspect_ratio">1</property>
  <property name="progressive">1</property>
  <property name="seekable">1</property>
  <property name="meta.media.width">1920</property>
  <property name="meta.media.height">1080</property>
  <property name="mlt_service">qimage</property>
  <property name="kdenlive:clipname"/>
  <property name="kdenlive:duration">00:00:05.000</property>
  <property name="kdenlive:folderid">41</property>
  <property name="kdenlive:clip_type">2</property>
  <property name="kdenlive:id">218</property>
  <property name="kdenlive:file_size">9182</property>
  <property name="kdenlive:file_hash">2e770c68cff27a8b05cc9a1adc134a56</property>
 </producer>
 <producer id="producer215" in="00:00:00.000" out="00:00:04.960">
  <property name="length">00:00:05.000</property>
  <property name="eof">pause</property>
  <property name="resource">/home/liquidzulu/Documents/youtube-scripts/courses/libertarian-ethics/capsaicin/pseudo/defensive-force-and-proportionality.pseudo.srt-images/279.png</property>
  <property name="ttl">25</property>
  <property name="aspect_ratio">1</property>
  <property name="progressive">1</property>
  <property name="seekable">1</property>
  <property name="meta.media.width">1920</property>
  <property name="meta.media.height">1080</property>
  <property name="mlt_service">qimage</property>
  <property name="kdenlive:clipname"/>
  <property name="kdenlive:duration">00:00:05.000</property>
  <property name="kdenlive:folderid">41</property>
  <property name="kdenlive:clip_type">2</property>
  <property name="kdenlive:id">219</property>
  <property name="kdenlive:file_size">8376</property>
  <property name="kdenlive:file_hash">8ca1e6280a03016b96bea69b2ebf011d</property>
 </producer>
 <producer id="producer221" in="00:00:00.000" out="00:00:04.960">
  <property name="length">00:00:05.000</property>
  <property name="eof">pause</property>
  <property name="resource">/home/liquidzulu/Documents/youtube-scripts/courses/libertarian-ethics/capsaicin/pseudo/defensive-force-and-proportionality.pseudo.srt-images/28.png</property>
  <property name="ttl">25</property>
  <property name="aspect_ratio">1</property>
  <property name="progressive">1</property>
  <property name="seekable">1</property>
  <property name="meta.media.width">1920</property>
  <property name="meta.media.height">1080</property>
  <property name="mlt_service">qimage</property>
  <property name="kdenlive:clipname"/>
  <property name="kdenlive:duration">00:00:05.000</property>
  <property name="kdenlive:folderid">41</property>
  <property name="kdenlive:clip_type">2</property>
  <property name="kdenlive:id">220</property>
  <property name="kdenlive:file_size">7885</property>
  <property name="kdenlive:file_hash">62403a1a883f38dd4ae08f0e4fd5c646</property>
 </producer>
 <producer id="producer216" in="00:00:00.000" out="00:00:04.960">
  <property name="length">00:00:05.000</property>
  <property name="eof">pause</property>
  <property name="resource">/home/liquidzulu/Documents/youtube-scripts/courses/libertarian-ethics/capsaicin/pseudo/defensive-force-and-proportionality.pseudo.srt-images/280.png</property>
  <property name="ttl">25</property>
  <property name="aspect_ratio">1</property>
  <property name="progressive">1</property>
  <property name="seekable">1</property>
  <property name="meta.media.width">1920</property>
  <property name="meta.media.height">1080</property>
  <property name="mlt_service">qimage</property>
  <property name="kdenlive:clipname"/>
  <property name="kdenlive:duration">00:00:05.000</property>
  <property name="kdenlive:folderid">41</property>
  <property name="kdenlive:clip_type">2</property>
  <property name="kdenlive:id">221</property>
  <property name="kdenlive:file_size">8672</property>
  <property name="kdenlive:file_hash">4521b335e0786ff718a16a6acbcea8f1</property>
 </producer>
 <producer id="producer217" in="00:00:00.000" out="00:00:04.960">
  <property name="length">00:00:05.000</property>
  <property name="eof">pause</property>
  <property name="resource">/home/liquidzulu/Documents/youtube-scripts/courses/libertarian-ethics/capsaicin/pseudo/defensive-force-and-proportionality.pseudo.srt-images/281.png</property>
  <property name="ttl">25</property>
  <property name="aspect_ratio">1</property>
  <property name="progressive">1</property>
  <property name="seekable">1</property>
  <property name="meta.media.width">1920</property>
  <property name="meta.media.height">1080</property>
  <property name="mlt_service">qimage</property>
  <property name="kdenlive:clipname"/>
  <property name="kdenlive:duration">00:00:05.000</property>
  <property name="kdenlive:folderid">41</property>
  <property name="kdenlive:clip_type">2</property>
  <property name="kdenlive:id">222</property>
  <property name="kdenlive:file_size">9161</property>
  <property name="kdenlive:file_hash">60d4c0c9660b6ea8caf99f1f14fe2541</property>
 </producer>
 <producer id="producer218" in="00:00:00.000" out="00:00:04.960">
  <property name="length">00:00:05.000</property>
  <property name="eof">pause</property>
  <property name="resource">/home/liquidzulu/Documents/youtube-scripts/courses/libertarian-ethics/capsaicin/pseudo/defensive-force-and-proportionality.pseudo.srt-images/282.png</property>
  <property name="ttl">25</property>
  <property name="aspect_ratio">1</property>
  <property name="progressive">1</property>
  <property name="seekable">1</property>
  <property name="meta.media.width">1920</property>
  <property name="meta.media.height">1080</property>
  <property name="mlt_service">qimage</property>
  <property name="kdenlive:clipname"/>
  <property name="kdenlive:duration">00:00:05.000</property>
  <property name="kdenlive:folderid">41</property>
  <property name="kdenlive:clip_type">2</property>
  <property name="kdenlive:id">223</property>
  <property name="kdenlive:file_size">9280</property>
  <property name="kdenlive:file_hash">d85bd48debbe6fc5960ed21fba57402a</property>
 </producer>
 <producer id="producer220" in="00:00:00.000" out="00:00:04.960">
  <property name="length">00:00:05.000</property>
  <property name="eof">pause</property>
  <property name="resource">/home/liquidzulu/Documents/youtube-scripts/courses/libertarian-ethics/capsaicin/pseudo/defensive-force-and-proportionality.pseudo.srt-images/283.png</property>
  <property name="ttl">25</property>
  <property name="aspect_ratio">1</property>
  <property name="progressive">1</property>
  <property name="seekable">1</property>
  <property name="meta.media.width">1920</property>
  <property name="meta.media.height">1080</property>
  <property name="mlt_service">qimage</property>
  <property name="kdenlive:clipname"/>
  <property name="kdenlive:duration">00:00:05.000</property>
  <property name="kdenlive:folderid">41</property>
  <property name="kdenlive:clip_type">2</property>
  <property name="kdenlive:id">224</property>
  <property name="kdenlive:file_size">9214</property>
  <property name="kdenlive:file_hash">4856d477ef9151f887cb4feb8896134a</property>
 </producer>
 <producer id="producer219" in="00:00:00.000" out="00:00:04.960">
  <property name="length">00:00:05.000</property>
  <property name="eof">pause</property>
  <property name="resource">/home/liquidzulu/Documents/youtube-scripts/courses/libertarian-ethics/capsaicin/pseudo/defensive-force-and-proportionality.pseudo.srt-images/284.png</property>
  <property name="ttl">25</property>
  <property name="aspect_ratio">1</property>
  <property name="progressive">1</property>
  <property name="seekable">1</property>
  <property name="meta.media.width">1920</property>
  <property name="meta.media.height">1080</property>
  <property name="mlt_service">qimage</property>
  <property name="kdenlive:clipname"/>
  <property name="kdenlive:duration">00:00:05.000</property>
  <property name="kdenlive:folderid">41</property>
  <property name="kdenlive:clip_type">2</property>
  <property name="kdenlive:id">225</property>
  <property name="kdenlive:file_size">9244</property>
  <property name="kdenlive:file_hash">609cc99a699a820bbe31affcf45cabdf</property>
 </producer>
 <producer id="producer222" in="00:00:00.000" out="00:00:04.960">
  <property name="length">00:00:05.000</property>
  <property name="eof">pause</property>
  <property name="resource">/home/liquidzulu/Documents/youtube-scripts/courses/libertarian-ethics/capsaicin/pseudo/defensive-force-and-proportionality.pseudo.srt-images/285.png</property>
  <property name="ttl">25</property>
  <property name="aspect_ratio">1</property>
  <property name="progressive">1</property>
  <property name="seekable">1</property>
  <property name="meta.media.width">1920</property>
  <property name="meta.media.height">1080</property>
  <property name="mlt_service">qimage</property>
  <property name="kdenlive:clipname"/>
  <property name="kdenlive:duration">00:00:05.000</property>
  <property name="kdenlive:folderid">41</property>
  <property name="kdenlive:clip_type">2</property>
  <property name="kdenlive:id">226</property>
  <property name="kdenlive:file_size">8954</property>
  <property name="kdenlive:file_hash">c79b56aadf87af9c73c62cab65d97b62</property>
 </producer>
 <producer id="producer223" in="00:00:00.000" out="00:00:04.960">
  <property name="length">00:00:05.000</property>
  <property name="eof">pause</property>
  <property name="resource">/home/liquidzulu/Documents/youtube-scripts/courses/libertarian-ethics/capsaicin/pseudo/defensive-force-and-proportionality.pseudo.srt-images/286.png</property>
  <property name="ttl">25</property>
  <property name="aspect_ratio">1</property>
  <property name="progressive">1</property>
  <property name="seekable">1</property>
  <property name="meta.media.width">1920</property>
  <property name="meta.media.height">1080</property>
  <property name="mlt_service">qimage</property>
  <property name="kdenlive:clipname"/>
  <property name="kdenlive:duration">00:00:05.000</property>
  <property name="kdenlive:folderid">41</property>
  <property name="kdenlive:clip_type">2</property>
  <property name="kdenlive:id">227</property>
  <property name="kdenlive:file_size">7610</property>
  <property name="kdenlive:file_hash">dc065570c2eaec59c5a7c9876b948d13</property>
 </producer>
 <producer id="producer224" in="00:00:00.000" out="00:00:04.960">
  <property name="length">00:00:05.000</property>
  <property name="eof">pause</property>
  <property name="resource">/home/liquidzulu/Documents/youtube-scripts/courses/libertarian-ethics/capsaicin/pseudo/defensive-force-and-proportionality.pseudo.srt-images/29.png</property>
  <property name="ttl">25</property>
  <property name="aspect_ratio">1</property>
  <property name="progressive">1</property>
  <property name="seekable">1</property>
  <property name="meta.media.width">1920</property>
  <property name="meta.media.height">1080</property>
  <property name="mlt_service">qimage</property>
  <property name="kdenlive:clipname"/>
  <property name="kdenlive:duration">00:00:05.000</property>
  <property name="kdenlive:folderid">41</property>
  <property name="kdenlive:clip_type">2</property>
  <property name="kdenlive:id">228</property>
  <property name="kdenlive:file_size">8252</property>
  <property name="kdenlive:file_hash">d90e7d37f0d98d5f622d4bd6b13f1748</property>
 </producer>
 <producer id="producer225" in="00:00:00.000" out="00:00:04.960">
  <property name="length">00:00:05.000</property>
  <property name="eof">pause</property>
  <property name="resource">/home/liquidzulu/Documents/youtube-scripts/courses/libertarian-ethics/capsaicin/pseudo/defensive-force-and-proportionality.pseudo.srt-images/293.png</property>
  <property name="ttl">25</property>
  <property name="aspect_ratio">1</property>
  <property name="progressive">1</property>
  <property name="seekable">1</property>
  <property name="meta.media.width">1920</property>
  <property name="meta.media.height">1080</property>
  <property name="mlt_service">qimage</property>
  <property name="kdenlive:clipname"/>
  <property name="kdenlive:duration">00:00:05.000</property>
  <property name="kdenlive:folderid">41</property>
  <property name="kdenlive:clip_type">2</property>
  <property name="kdenlive:id">229</property>
  <property name="kdenlive:file_size">8978</property>
  <property name="kdenlive:file_hash">8d3d08c04ecc7cc9e2e17aa200985dd3</property>
 </producer>
 <producer id="producer226" in="00:00:00.000" out="00:00:04.960">
  <property name="length">00:00:05.000</property>
  <property name="eof">pause</property>
  <property name="resource">/home/liquidzulu/Documents/youtube-scripts/courses/libertarian-ethics/capsaicin/pseudo/defensive-force-and-proportionality.pseudo.srt-images/294.png</property>
  <property name="ttl">25</property>
  <property name="aspect_ratio">1</property>
  <property name="progressive">1</property>
  <property name="seekable">1</property>
  <property name="meta.media.width">1920</property>
  <property name="meta.media.height">1080</property>
  <property name="mlt_service">qimage</property>
  <property name="kdenlive:clipname"/>
  <property name="kdenlive:duration">00:00:05.000</property>
  <property name="kdenlive:folderid">41</property>
  <property name="kdenlive:clip_type">2</property>
  <property name="kdenlive:id">230</property>
  <property name="kdenlive:file_size">8749</property>
  <property name="kdenlive:file_hash">e0893fc9cbd85911965ebf3ee30e0f3d</property>
 </producer>
 <producer id="producer227" in="00:00:00.000" out="00:00:04.960">
  <property name="length">00:00:05.000</property>
  <property name="eof">pause</property>
  <property name="resource">/home/liquidzulu/Documents/youtube-scripts/courses/libertarian-ethics/capsaicin/pseudo/defensive-force-and-proportionality.pseudo.srt-images/295.png</property>
  <property name="ttl">25</property>
  <property name="aspect_ratio">1</property>
  <property name="progressive">1</property>
  <property name="seekable">1</property>
  <property name="meta.media.width">1920</property>
  <property name="meta.media.height">1080</property>
  <property name="mlt_service">qimage</property>
  <property name="kdenlive:clipname"/>
  <property name="kdenlive:duration">00:00:05.000</property>
  <property name="kdenlive:folderid">41</property>
  <property name="kdenlive:clip_type">2</property>
  <property name="kdenlive:id">231</property>
  <property name="kdenlive:file_size">9019</property>
  <property name="kdenlive:file_hash">2203db83aae6630aa405bc012dabcab8</property>
 </producer>
 <producer id="producer228" in="00:00:00.000" out="00:00:04.960">
  <property name="length">00:00:05.000</property>
  <property name="eof">pause</property>
  <property name="resource">/home/liquidzulu/Documents/youtube-scripts/courses/libertarian-ethics/capsaicin/pseudo/defensive-force-and-proportionality.pseudo.srt-images/296.png</property>
  <property name="ttl">25</property>
  <property name="aspect_ratio">1</property>
  <property name="progressive">1</property>
  <property name="seekable">1</property>
  <property name="meta.media.width">1920</property>
  <property name="meta.media.height">1080</property>
  <property name="mlt_service">qimage</property>
  <property name="kdenlive:clipname"/>
  <property name="kdenlive:duration">00:00:05.000</property>
  <property name="kdenlive:folderid">41</property>
  <property name="kdenlive:clip_type">2</property>
  <property name="kdenlive:id">232</property>
  <property name="kdenlive:file_size">8878</property>
  <property name="kdenlive:file_hash">ab342590fba884aeb8ca36edf56b6957</property>
 </producer>
 <producer id="producer229" in="00:00:00.000" out="00:00:04.960">
  <property name="length">00:00:05.000</property>
  <property name="eof">pause</property>
  <property name="resource">/home/liquidzulu/Documents/youtube-scripts/courses/libertarian-ethics/capsaicin/pseudo/defensive-force-and-proportionality.pseudo.srt-images/297.png</property>
  <property name="ttl">25</property>
  <property name="aspect_ratio">1</property>
  <property name="progressive">1</property>
  <property name="seekable">1</property>
  <property name="meta.media.width">1920</property>
  <property name="meta.media.height">1080</property>
  <property name="mlt_service">qimage</property>
  <property name="kdenlive:clipname"/>
  <property name="kdenlive:duration">00:00:05.000</property>
  <property name="kdenlive:folderid">41</property>
  <property name="kdenlive:clip_type">2</property>
  <property name="kdenlive:id">233</property>
  <property name="kdenlive:file_size">9039</property>
  <property name="kdenlive:file_hash">2d319109dae05e65412d130e4a921f24</property>
 </producer>
 <producer id="producer230" in="00:00:00.000" out="00:00:04.960">
  <property name="length">00:00:05.000</property>
  <property name="eof">pause</property>
  <property name="resource">/home/liquidzulu/Documents/youtube-scripts/courses/libertarian-ethics/capsaicin/pseudo/defensive-force-and-proportionality.pseudo.srt-images/298.png</property>
  <property name="ttl">25</property>
  <property name="aspect_ratio">1</property>
  <property name="progressive">1</property>
  <property name="seekable">1</property>
  <property name="meta.media.width">1920</property>
  <property name="meta.media.height">1080</property>
  <property name="mlt_service">qimage</property>
  <property name="kdenlive:clipname"/>
  <property name="kdenlive:duration">00:00:05.000</property>
  <property name="kdenlive:folderid">41</property>
  <property name="kdenlive:clip_type">2</property>
  <property name="kdenlive:id">234</property>
  <property name="kdenlive:file_size">9723</property>
  <property name="kdenlive:file_hash">212d2d056282a596aa0a839c9c7c3400</property>
 </producer>
 <producer id="producer231" in="00:00:00.000" out="00:00:05.480">
  <property name="length">138</property>
  <property name="eof">pause</property>
  <property name="resource">/home/liquidzulu/Documents/youtube-scripts/courses/libertarian-ethics/capsaicin/pseudo/defensive-force-and-proportionality.pseudo.srt-images/299.png</property>
  <property name="ttl">25</property>
  <property name="aspect_ratio">1</property>
  <property name="progressive">1</property>
  <property name="seekable">1</property>
  <property name="meta.media.width">1920</property>
  <property name="meta.media.height">1080</property>
  <property name="mlt_service">qimage</property>
  <property name="kdenlive:clipname"/>
  <property name="kdenlive:duration">00:00:05.000</property>
  <property name="kdenlive:folderid">41</property>
  <property name="kdenlive:clip_type">2</property>
  <property name="kdenlive:id">235</property>
  <property name="kdenlive:file_size">9761</property>
  <property name="kdenlive:file_hash">738d534107f468b3bf52f99d9e302f4c</property>
 </producer>
 <producer id="producer232" in="00:00:00.000" out="00:00:04.960">
  <property name="length">00:00:05.000</property>
  <property name="eof">pause</property>
  <property name="resource">/home/liquidzulu/Documents/youtube-scripts/courses/libertarian-ethics/capsaicin/pseudo/defensive-force-and-proportionality.pseudo.srt-images/30.png</property>
  <property name="ttl">25</property>
  <property name="aspect_ratio">1</property>
  <property name="progressive">1</property>
  <property name="seekable">1</property>
  <property name="meta.media.width">1920</property>
  <property name="meta.media.height">1080</property>
  <property name="mlt_service">qimage</property>
  <property name="kdenlive:clipname"/>
  <property name="kdenlive:duration">00:00:05.000</property>
  <property name="kdenlive:folderid">41</property>
  <property name="kdenlive:clip_type">2</property>
  <property name="kdenlive:id">236</property>
  <property name="kdenlive:file_size">8487</property>
  <property name="kdenlive:file_hash">c4a7adc9b7ff69a08beb985aa460cefb</property>
 </producer>
 <producer id="producer233" in="00:00:00.000" out="00:00:04.960">
  <property name="length">00:00:05.000</property>
  <property name="eof">pause</property>
  <property name="resource">/home/liquidzulu/Documents/youtube-scripts/courses/libertarian-ethics/capsaicin/pseudo/defensive-force-and-proportionality.pseudo.srt-images/300.png</property>
  <property name="ttl">25</property>
  <property name="aspect_ratio">1</property>
  <property name="progressive">1</property>
  <property name="seekable">1</property>
  <property name="meta.media.width">1920</property>
  <property name="meta.media.height">1080</property>
  <property name="mlt_service">qimage</property>
  <property name="kdenlive:clipname"/>
  <property name="kdenlive:duration">00:00:05.000</property>
  <property name="kdenlive:folderid">41</property>
  <property name="kdenlive:clip_type">2</property>
  <property name="kdenlive:id">237</property>
  <property name="kdenlive:file_size">9795</property>
  <property name="kdenlive:file_hash">381ea037e547332ac4c0595696b3e3d8</property>
 </producer>
 <producer id="producer234" in="00:00:00.000" out="00:00:04.960">
  <property name="length">00:00:05.000</property>
  <property name="eof">pause</property>
  <property name="resource">/home/liquidzulu/Documents/youtube-scripts/courses/libertarian-ethics/capsaicin/pseudo/defensive-force-and-proportionality.pseudo.srt-images/301.png</property>
  <property name="ttl">25</property>
  <property name="aspect_ratio">1</property>
  <property name="progressive">1</property>
  <property name="seekable">1</property>
  <property name="meta.media.width">1920</property>
  <property name="meta.media.height">1080</property>
  <property name="mlt_service">qimage</property>
  <property name="kdenlive:clipname"/>
  <property name="kdenlive:duration">00:00:05.000</property>
  <property name="kdenlive:folderid">41</property>
  <property name="kdenlive:clip_type">2</property>
  <property name="kdenlive:id">238</property>
  <property name="kdenlive:file_size">9081</property>
  <property name="kdenlive:file_hash">ba6841571837150207ce12f869e4ed69</property>
 </producer>
 <producer id="producer235" in="00:00:00.000" out="00:00:04.960">
  <property name="length">00:00:05.000</property>
  <property name="eof">pause</property>
  <property name="resource">/home/liquidzulu/Documents/youtube-scripts/courses/libertarian-ethics/capsaicin/pseudo/defensive-force-and-proportionality.pseudo.srt-images/302.png</property>
  <property name="ttl">25</property>
  <property name="aspect_ratio">1</property>
  <property name="progressive">1</property>
  <property name="seekable">1</property>
  <property name="meta.media.width">1920</property>
  <property name="meta.media.height">1080</property>
  <property name="mlt_service">qimage</property>
  <property name="kdenlive:clipname"/>
  <property name="kdenlive:duration">00:00:05.000</property>
  <property name="kdenlive:folderid">41</property>
  <property name="kdenlive:clip_type">2</property>
  <property name="kdenlive:id">239</property>
  <property name="kdenlive:file_size">8745</property>
  <property name="kdenlive:file_hash">ca62af3a8bd010479669bc0fb56d5fee</property>
 </producer>
 <producer id="producer236" in="00:00:00.000" out="00:00:04.960">
  <property name="length">00:00:05.000</property>
  <property name="eof">pause</property>
  <property name="resource">/home/liquidzulu/Documents/youtube-scripts/courses/libertarian-ethics/capsaicin/pseudo/defensive-force-and-proportionality.pseudo.srt-images/303.png</property>
  <property name="ttl">25</property>
  <property name="aspect_ratio">1</property>
  <property name="progressive">1</property>
  <property name="seekable">1</property>
  <property name="meta.media.width">1920</property>
  <property name="meta.media.height">1080</property>
  <property name="mlt_service">qimage</property>
  <property name="kdenlive:clipname"/>
  <property name="kdenlive:duration">00:00:05.000</property>
  <property name="kdenlive:folderid">41</property>
  <property name="kdenlive:clip_type">2</property>
  <property name="kdenlive:id">240</property>
  <property name="kdenlive:file_size">7554</property>
  <property name="kdenlive:file_hash">bcea7797999b7691e37ed48e689cd336</property>
 </producer>
 <producer id="producer237" in="00:00:00.000" out="00:00:04.960">
  <property name="length">00:00:05.000</property>
  <property name="eof">pause</property>
  <property name="resource">/home/liquidzulu/Documents/youtube-scripts/courses/libertarian-ethics/capsaicin/pseudo/defensive-force-and-proportionality.pseudo.srt-images/31.png</property>
  <property name="ttl">25</property>
  <property name="aspect_ratio">1</property>
  <property name="progressive">1</property>
  <property name="seekable">1</property>
  <property name="meta.media.width">1920</property>
  <property name="meta.media.height">1080</property>
  <property name="mlt_service">qimage</property>
  <property name="kdenlive:clipname"/>
  <property name="kdenlive:duration">00:00:05.000</property>
  <property name="kdenlive:folderid">41</property>
  <property name="kdenlive:clip_type">2</property>
  <property name="kdenlive:id">241</property>
  <property name="kdenlive:file_size">8078</property>
  <property name="kdenlive:file_hash">d071a83a84b0ec66c034e0225b7ed4b2</property>
 </producer>
 <producer id="producer238" in="00:00:00.000" out="00:00:04.960">
  <property name="length">00:00:05.000</property>
  <property name="eof">pause</property>
  <property name="resource">/home/liquidzulu/Documents/youtube-scripts/courses/libertarian-ethics/capsaicin/pseudo/defensive-force-and-proportionality.pseudo.srt-images/32.png</property>
  <property name="ttl">25</property>
  <property name="aspect_ratio">1</property>
  <property name="progressive">1</property>
  <property name="seekable">1</property>
  <property name="meta.media.width">1920</property>
  <property name="meta.media.height">1080</property>
  <property name="mlt_service">qimage</property>
  <property name="kdenlive:clipname"/>
  <property name="kdenlive:duration">00:00:05.000</property>
  <property name="kdenlive:folderid">41</property>
  <property name="kdenlive:clip_type">2</property>
  <property name="kdenlive:id">242</property>
  <property name="kdenlive:file_size">9068</property>
  <property name="kdenlive:file_hash">edba9bef115ced7b4abfd1992fe65ad1</property>
 </producer>
 <producer id="producer240" in="00:00:00.000" out="00:00:04.960">
  <property name="length">00:00:05.000</property>
  <property name="eof">pause</property>
  <property name="resource">/home/liquidzulu/Documents/youtube-scripts/courses/libertarian-ethics/capsaicin/pseudo/defensive-force-and-proportionality.pseudo.srt-images/33.png</property>
  <property name="ttl">25</property>
  <property name="aspect_ratio">1</property>
  <property name="progressive">1</property>
  <property name="seekable">1</property>
  <property name="meta.media.width">1920</property>
  <property name="meta.media.height">1080</property>
  <property name="mlt_service">qimage</property>
  <property name="kdenlive:clipname"/>
  <property name="kdenlive:duration">00:00:05.000</property>
  <property name="kdenlive:folderid">41</property>
  <property name="kdenlive:clip_type">2</property>
  <property name="kdenlive:id">243</property>
  <property name="kdenlive:file_size">8679</property>
  <property name="kdenlive:file_hash">f7f91a3bb2b6abcbd3768a907c2d575c</property>
 </producer>
 <producer id="producer239" in="00:00:00.000" out="00:00:04.960">
  <property name="length">00:00:05.000</property>
  <property name="eof">pause</property>
  <property name="resource">/home/liquidzulu/Documents/youtube-scripts/courses/libertarian-ethics/capsaicin/pseudo/defensive-force-and-proportionality.pseudo.srt-images/34.png</property>
  <property name="ttl">25</property>
  <property name="aspect_ratio">1</property>
  <property name="progressive">1</property>
  <property name="seekable">1</property>
  <property name="meta.media.width">1920</property>
  <property name="meta.media.height">1080</property>
  <property name="mlt_service">qimage</property>
  <property name="kdenlive:clipname"/>
  <property name="kdenlive:duration">00:00:05.000</property>
  <property name="kdenlive:folderid">41</property>
  <property name="kdenlive:clip_type">2</property>
  <property name="kdenlive:id">244</property>
  <property name="kdenlive:file_size">9177</property>
  <property name="kdenlive:file_hash">abf9e88ae681397baf8356b8469cda5e</property>
 </producer>
 <producer id="producer241" in="00:00:00.000" out="00:00:04.960">
  <property name="length">00:00:05.000</property>
  <property name="eof">pause</property>
  <property name="resource">/home/liquidzulu/Documents/youtube-scripts/courses/libertarian-ethics/capsaicin/pseudo/defensive-force-and-proportionality.pseudo.srt-images/35.png</property>
  <property name="ttl">25</property>
  <property name="aspect_ratio">1</property>
  <property name="progressive">1</property>
  <property name="seekable">1</property>
  <property name="meta.media.width">1920</property>
  <property name="meta.media.height">1080</property>
  <property name="mlt_service">qimage</property>
  <property name="kdenlive:clipname"/>
  <property name="kdenlive:duration">00:00:05.000</property>
  <property name="kdenlive:folderid">41</property>
  <property name="kdenlive:clip_type">2</property>
  <property name="kdenlive:id">245</property>
  <property name="kdenlive:file_size">7524</property>
  <property name="kdenlive:file_hash">00f410c83c5338d0ee1d17b020d70bdc</property>
 </producer>
 <producer id="producer242" in="00:00:00.000" out="00:00:04.960">
  <property name="length">00:00:05.000</property>
  <property name="eof">pause</property>
  <property name="resource">/home/liquidzulu/Documents/youtube-scripts/courses/libertarian-ethics/capsaicin/pseudo/defensive-force-and-proportionality.pseudo.srt-images/36.png</property>
  <property name="ttl">25</property>
  <property name="aspect_ratio">1</property>
  <property name="progressive">1</property>
  <property name="seekable">1</property>
  <property name="meta.media.width">1920</property>
  <property name="meta.media.height">1080</property>
  <property name="mlt_service">qimage</property>
  <property name="kdenlive:clipname"/>
  <property name="kdenlive:duration">00:00:05.000</property>
  <property name="kdenlive:folderid">41</property>
  <property name="kdenlive:clip_type">2</property>
  <property name="kdenlive:id">246</property>
  <property name="kdenlive:file_size">9240</property>
  <property name="kdenlive:file_hash">48b4b689fbde05c4c1f1d9d6f20b6d83</property>
 </producer>
 <producer id="producer243" in="00:00:00.000" out="00:00:04.960">
  <property name="length">00:00:05.000</property>
  <property name="eof">pause</property>
  <property name="resource">/home/liquidzulu/Documents/youtube-scripts/courses/libertarian-ethics/capsaicin/pseudo/defensive-force-and-proportionality.pseudo.srt-images/37.png</property>
  <property name="ttl">25</property>
  <property name="aspect_ratio">1</property>
  <property name="progressive">1</property>
  <property name="seekable">1</property>
  <property name="meta.media.width">1920</property>
  <property name="meta.media.height">1080</property>
  <property name="mlt_service">qimage</property>
  <property name="kdenlive:clipname"/>
  <property name="kdenlive:duration">00:00:05.000</property>
  <property name="kdenlive:folderid">41</property>
  <property name="kdenlive:clip_type">2</property>
  <property name="kdenlive:id">247</property>
  <property name="kdenlive:file_size">8430</property>
  <property name="kdenlive:file_hash">e08c812fe3e06569ba2a9e6022ab10ee</property>
 </producer>
 <producer id="producer244" in="00:00:00.000" out="00:00:04.960">
  <property name="length">00:00:05.000</property>
  <property name="eof">pause</property>
  <property name="resource">/home/liquidzulu/Documents/youtube-scripts/courses/libertarian-ethics/capsaicin/pseudo/defensive-force-and-proportionality.pseudo.srt-images/38.png</property>
  <property name="ttl">25</property>
  <property name="aspect_ratio">1</property>
  <property name="progressive">1</property>
  <property name="seekable">1</property>
  <property name="meta.media.width">1920</property>
  <property name="meta.media.height">1080</property>
  <property name="mlt_service">qimage</property>
  <property name="kdenlive:clipname"/>
  <property name="kdenlive:duration">00:00:05.000</property>
  <property name="kdenlive:folderid">41</property>
  <property name="kdenlive:clip_type">2</property>
  <property name="kdenlive:id">248</property>
  <property name="kdenlive:file_size">8140</property>
  <property name="kdenlive:file_hash">f71205e8899dce3d369b176a98eba8c0</property>
 </producer>
 <producer id="producer245" in="00:00:00.000" out="00:00:04.960">
  <property name="length">00:00:05.000</property>
  <property name="eof">pause</property>
  <property name="resource">/home/liquidzulu/Documents/youtube-scripts/courses/libertarian-ethics/capsaicin/pseudo/defensive-force-and-proportionality.pseudo.srt-images/39.png</property>
  <property name="ttl">25</property>
  <property name="aspect_ratio">1</property>
  <property name="progressive">1</property>
  <property name="seekable">1</property>
  <property name="meta.media.width">1920</property>
  <property name="meta.media.height">1080</property>
  <property name="mlt_service">qimage</property>
  <property name="kdenlive:clipname"/>
  <property name="kdenlive:duration">00:00:05.000</property>
  <property name="kdenlive:folderid">41</property>
  <property name="kdenlive:clip_type">2</property>
  <property name="kdenlive:id">249</property>
  <property name="kdenlive:file_size">7307</property>
  <property name="kdenlive:file_hash">103047addb8158d0e109de3eb7119d55</property>
 </producer>
 <producer id="producer246" in="00:00:00.000" out="00:00:04.960">
  <property name="length">00:00:05.000</property>
  <property name="eof">pause</property>
  <property name="resource">/home/liquidzulu/Documents/youtube-scripts/courses/libertarian-ethics/capsaicin/pseudo/defensive-force-and-proportionality.pseudo.srt-images/40.png</property>
  <property name="ttl">25</property>
  <property name="aspect_ratio">1</property>
  <property name="progressive">1</property>
  <property name="seekable">1</property>
  <property name="meta.media.width">1920</property>
  <property name="meta.media.height">1080</property>
  <property name="mlt_service">qimage</property>
  <property name="kdenlive:clipname"/>
  <property name="kdenlive:duration">00:00:05.000</property>
  <property name="kdenlive:folderid">41</property>
  <property name="kdenlive:clip_type">2</property>
  <property name="kdenlive:id">250</property>
  <property name="kdenlive:file_size">8743</property>
  <property name="kdenlive:file_hash">c720baf632882cd14043e0ec8cd7ceb5</property>
 </producer>
 <producer id="producer247" in="00:00:00.000" out="00:00:04.960">
  <property name="length">00:00:05.000</property>
  <property name="eof">pause</property>
  <property name="resource">/home/liquidzulu/Documents/youtube-scripts/courses/libertarian-ethics/capsaicin/pseudo/defensive-force-and-proportionality.pseudo.srt-images/41.png</property>
  <property name="ttl">25</property>
  <property name="aspect_ratio">1</property>
  <property name="progressive">1</property>
  <property name="seekable">1</property>
  <property name="meta.media.width">1920</property>
  <property name="meta.media.height">1080</property>
  <property name="mlt_service">qimage</property>
  <property name="kdenlive:clipname"/>
  <property name="kdenlive:duration">00:00:05.000</property>
  <property name="kdenlive:folderid">41</property>
  <property name="kdenlive:clip_type">2</property>
  <property name="kdenlive:id">251</property>
  <property name="kdenlive:file_size">7352</property>
  <property name="kdenlive:file_hash">db1250aa495512cb9dfdb7d457c6d97a</property>
 </producer>
 <producer id="producer248" in="00:00:00.000" out="00:00:04.960">
  <property name="length">00:00:05.000</property>
  <property name="eof">pause</property>
  <property name="resource">/home/liquidzulu/Documents/youtube-scripts/courses/libertarian-ethics/capsaicin/pseudo/defensive-force-and-proportionality.pseudo.srt-images/42.png</property>
  <property name="ttl">25</property>
  <property name="aspect_ratio">1</property>
  <property name="progressive">1</property>
  <property name="seekable">1</property>
  <property name="meta.media.width">1920</property>
  <property name="meta.media.height">1080</property>
  <property name="mlt_service">qimage</property>
  <property name="kdenlive:clipname"/>
  <property name="kdenlive:duration">00:00:05.000</property>
  <property name="kdenlive:folderid">41</property>
  <property name="kdenlive:clip_type">2</property>
  <property name="kdenlive:id">252</property>
  <property name="kdenlive:file_size">9483</property>
  <property name="kdenlive:file_hash">b9619e4f016d7262014916f9ec61d342</property>
 </producer>
 <producer id="producer249" in="00:00:00.000" out="00:00:04.960">
  <property name="length">00:00:05.000</property>
  <property name="eof">pause</property>
  <property name="resource">/home/liquidzulu/Documents/youtube-scripts/courses/libertarian-ethics/capsaicin/pseudo/defensive-force-and-proportionality.pseudo.srt-images/43.png</property>
  <property name="ttl">25</property>
  <property name="aspect_ratio">1</property>
  <property name="progressive">1</property>
  <property name="seekable">1</property>
  <property name="meta.media.width">1920</property>
  <property name="meta.media.height">1080</property>
  <property name="mlt_service">qimage</property>
  <property name="kdenlive:clipname"/>
  <property name="kdenlive:duration">00:00:05.000</property>
  <property name="kdenlive:folderid">41</property>
  <property name="kdenlive:clip_type">2</property>
  <property name="kdenlive:id">253</property>
  <property name="kdenlive:file_size">9541</property>
  <property name="kdenlive:file_hash">88fe8eebd70b3e3b74827f0a37ef6804</property>
 </producer>
 <producer id="producer250" in="00:00:00.000" out="00:00:04.960">
  <property name="length">00:00:05.000</property>
  <property name="eof">pause</property>
  <property name="resource">/home/liquidzulu/Documents/youtube-scripts/courses/libertarian-ethics/capsaicin/pseudo/defensive-force-and-proportionality.pseudo.srt-images/44.png</property>
  <property name="ttl">25</property>
  <property name="aspect_ratio">1</property>
  <property name="progressive">1</property>
  <property name="seekable">1</property>
  <property name="meta.media.width">1920</property>
  <property name="meta.media.height">1080</property>
  <property name="mlt_service">qimage</property>
  <property name="kdenlive:clipname"/>
  <property name="kdenlive:duration">00:00:05.000</property>
  <property name="kdenlive:folderid">41</property>
  <property name="kdenlive:clip_type">2</property>
  <property name="kdenlive:id">254</property>
  <property name="kdenlive:file_size">9140</property>
  <property name="kdenlive:file_hash">d8425bddf1fc706b2a657735b81c9427</property>
 </producer>
 <producer id="producer253" in="00:00:00.000" out="00:00:04.960">
  <property name="length">00:00:05.000</property>
  <property name="eof">pause</property>
  <property name="resource">/home/liquidzulu/Documents/youtube-scripts/courses/libertarian-ethics/capsaicin/pseudo/defensive-force-and-proportionality.pseudo.srt-images/45.png</property>
  <property name="ttl">25</property>
  <property name="aspect_ratio">1</property>
  <property name="progressive">1</property>
  <property name="seekable">1</property>
  <property name="meta.media.width">1920</property>
  <property name="meta.media.height">1080</property>
  <property name="mlt_service">qimage</property>
  <property name="kdenlive:clipname"/>
  <property name="kdenlive:duration">00:00:05.000</property>
  <property name="kdenlive:folderid">41</property>
  <property name="kdenlive:clip_type">2</property>
  <property name="kdenlive:id">255</property>
  <property name="kdenlive:file_size">8358</property>
  <property name="kdenlive:file_hash">5f8da8c8f38011bb6464f2c7dbffae16</property>
 </producer>
 <producer id="producer252" in="00:00:00.000" out="00:00:04.960">
  <property name="length">00:00:05.000</property>
  <property name="eof">pause</property>
  <property name="resource">/home/liquidzulu/Documents/youtube-scripts/courses/libertarian-ethics/capsaicin/pseudo/defensive-force-and-proportionality.pseudo.srt-images/46.png</property>
  <property name="ttl">25</property>
  <property name="aspect_ratio">1</property>
  <property name="progressive">1</property>
  <property name="seekable">1</property>
  <property name="meta.media.width">1920</property>
  <property name="meta.media.height">1080</property>
  <property name="mlt_service">qimage</property>
  <property name="kdenlive:clipname"/>
  <property name="kdenlive:duration">00:00:05.000</property>
  <property name="kdenlive:folderid">41</property>
  <property name="kdenlive:clip_type">2</property>
  <property name="kdenlive:id">256</property>
  <property name="kdenlive:file_size">9267</property>
  <property name="kdenlive:file_hash">ef4933e50bd68838f87203b66bb43e3d</property>
 </producer>
 <producer id="producer251" in="00:00:00.000" out="00:00:04.960">
  <property name="length">00:00:05.000</property>
  <property name="eof">pause</property>
  <property name="resource">/home/liquidzulu/Documents/youtube-scripts/courses/libertarian-ethics/capsaicin/pseudo/defensive-force-and-proportionality.pseudo.srt-images/47.png</property>
  <property name="ttl">25</property>
  <property name="aspect_ratio">1</property>
  <property name="progressive">1</property>
  <property name="seekable">1</property>
  <property name="meta.media.width">1920</property>
  <property name="meta.media.height">1080</property>
  <property name="mlt_service">qimage</property>
  <property name="kdenlive:clipname"/>
  <property name="kdenlive:duration">00:00:05.000</property>
  <property name="kdenlive:folderid">41</property>
  <property name="kdenlive:clip_type">2</property>
  <property name="kdenlive:id">257</property>
  <property name="kdenlive:file_size">8409</property>
  <property name="kdenlive:file_hash">867e42b5740dd15c190babb015651804</property>
 </producer>
 <producer id="producer254" in="00:00:00.000" out="00:00:04.960">
  <property name="length">00:00:05.000</property>
  <property name="eof">pause</property>
  <property name="resource">/home/liquidzulu/Documents/youtube-scripts/courses/libertarian-ethics/capsaicin/pseudo/defensive-force-and-proportionality.pseudo.srt-images/48.png</property>
  <property name="ttl">25</property>
  <property name="aspect_ratio">1</property>
  <property name="progressive">1</property>
  <property name="seekable">1</property>
  <property name="meta.media.width">1920</property>
  <property name="meta.media.height">1080</property>
  <property name="mlt_service">qimage</property>
  <property name="kdenlive:clipname"/>
  <property name="kdenlive:duration">00:00:05.000</property>
  <property name="kdenlive:folderid">41</property>
  <property name="kdenlive:clip_type">2</property>
  <property name="kdenlive:id">258</property>
  <property name="kdenlive:file_size">9317</property>
  <property name="kdenlive:file_hash">3fd8d72b834cbfcd6dda27ea903757c6</property>
 </producer>
 <producer id="producer255" in="00:00:00.000" out="00:00:05.360">
  <property name="length">135</property>
  <property name="eof">pause</property>
  <property name="resource">/home/liquidzulu/Documents/youtube-scripts/courses/libertarian-ethics/capsaicin/pseudo/defensive-force-and-proportionality.pseudo.srt-images/49.png</property>
  <property name="ttl">25</property>
  <property name="aspect_ratio">1</property>
  <property name="progressive">1</property>
  <property name="seekable">1</property>
  <property name="meta.media.width">1920</property>
  <property name="meta.media.height">1080</property>
  <property name="mlt_service">qimage</property>
  <property name="kdenlive:clipname"/>
  <property name="kdenlive:duration">00:00:05.000</property>
  <property name="kdenlive:folderid">41</property>
  <property name="kdenlive:clip_type">2</property>
  <property name="kdenlive:id">259</property>
  <property name="kdenlive:file_size">8677</property>
  <property name="kdenlive:file_hash">81b6d87ad0d876f76e18a6a3c24fa417</property>
 </producer>
 <producer id="producer256" in="00:00:00.000" out="00:00:04.960">
  <property name="length">00:00:05.000</property>
  <property name="eof">pause</property>
  <property name="resource">/home/liquidzulu/Documents/youtube-scripts/courses/libertarian-ethics/capsaicin/pseudo/defensive-force-and-proportionality.pseudo.srt-images/50.png</property>
  <property name="ttl">25</property>
  <property name="aspect_ratio">1</property>
  <property name="progressive">1</property>
  <property name="seekable">1</property>
  <property name="meta.media.width">1920</property>
  <property name="meta.media.height">1080</property>
  <property name="mlt_service">qimage</property>
  <property name="kdenlive:clipname"/>
  <property name="kdenlive:duration">00:00:05.000</property>
  <property name="kdenlive:folderid">41</property>
  <property name="kdenlive:clip_type">2</property>
  <property name="kdenlive:id">260</property>
  <property name="kdenlive:file_size">8506</property>
  <property name="kdenlive:file_hash">0226381a3df720002de77b25a67872bd</property>
 </producer>
 <producer id="producer257" in="00:00:00.000" out="00:00:04.960">
  <property name="length">00:00:05.000</property>
  <property name="eof">pause</property>
  <property name="resource">/home/liquidzulu/Documents/youtube-scripts/courses/libertarian-ethics/capsaicin/pseudo/defensive-force-and-proportionality.pseudo.srt-images/51.png</property>
  <property name="ttl">25</property>
  <property name="aspect_ratio">1</property>
  <property name="progressive">1</property>
  <property name="seekable">1</property>
  <property name="meta.media.width">1920</property>
  <property name="meta.media.height">1080</property>
  <property name="mlt_service">qimage</property>
  <property name="kdenlive:clipname"/>
  <property name="kdenlive:duration">00:00:05.000</property>
  <property name="kdenlive:folderid">41</property>
  <property name="kdenlive:clip_type">2</property>
  <property name="kdenlive:id">261</property>
  <property name="kdenlive:file_size">8284</property>
  <property name="kdenlive:file_hash">0278645cfebe89ff9303c339ce180932</property>
 </producer>
 <producer id="producer258" in="00:00:00.000" out="00:00:04.960">
  <property name="length">00:00:05.000</property>
  <property name="eof">pause</property>
  <property name="resource">/home/liquidzulu/Documents/youtube-scripts/courses/libertarian-ethics/capsaicin/pseudo/defensive-force-and-proportionality.pseudo.srt-images/66.png</property>
  <property name="ttl">25</property>
  <property name="aspect_ratio">1</property>
  <property name="progressive">1</property>
  <property name="seekable">1</property>
  <property name="meta.media.width">1920</property>
  <property name="meta.media.height">1080</property>
  <property name="mlt_service">qimage</property>
  <property name="kdenlive:clipname"/>
  <property name="kdenlive:duration">00:00:05.000</property>
  <property name="kdenlive:folderid">41</property>
  <property name="kdenlive:clip_type">2</property>
  <property name="kdenlive:id">262</property>
  <property name="kdenlive:file_size">7851</property>
  <property name="kdenlive:file_hash">28378d4237f3f7d1f2c84bbbe91f9ac7</property>
 </producer>
 <producer id="producer259" in="00:00:00.000" out="00:00:04.960">
  <property name="length">00:00:05.000</property>
  <property name="eof">pause</property>
  <property name="resource">/home/liquidzulu/Documents/youtube-scripts/courses/libertarian-ethics/capsaicin/pseudo/defensive-force-and-proportionality.pseudo.srt-images/67.png</property>
  <property name="ttl">25</property>
  <property name="aspect_ratio">1</property>
  <property name="progressive">1</property>
  <property name="seekable">1</property>
  <property name="meta.media.width">1920</property>
  <property name="meta.media.height">1080</property>
  <property name="mlt_service">qimage</property>
  <property name="kdenlive:clipname"/>
  <property name="kdenlive:duration">00:00:05.000</property>
  <property name="kdenlive:folderid">41</property>
  <property name="kdenlive:clip_type">2</property>
  <property name="kdenlive:id">263</property>
  <property name="kdenlive:file_size">8231</property>
  <property name="kdenlive:file_hash">5e91dbc13aeb878e3e91e087945e3d61</property>
 </producer>
 <producer id="producer260" in="00:00:00.000" out="00:00:04.960">
  <property name="length">00:00:05.000</property>
  <property name="eof">pause</property>
  <property name="resource">/home/liquidzulu/Documents/youtube-scripts/courses/libertarian-ethics/capsaicin/pseudo/defensive-force-and-proportionality.pseudo.srt-images/68.png</property>
  <property name="ttl">25</property>
  <property name="aspect_ratio">1</property>
  <property name="progressive">1</property>
  <property name="seekable">1</property>
  <property name="meta.media.width">1920</property>
  <property name="meta.media.height">1080</property>
  <property name="mlt_service">qimage</property>
  <property name="kdenlive:clipname"/>
  <property name="kdenlive:duration">00:00:05.000</property>
  <property name="kdenlive:folderid">41</property>
  <property name="kdenlive:clip_type">2</property>
  <property name="kdenlive:id">264</property>
  <property name="kdenlive:file_size">7838</property>
  <property name="kdenlive:file_hash">93cae905564e0e47887918d0c9581962</property>
 </producer>
 <producer id="producer261" in="00:00:00.000" out="00:00:04.960">
  <property name="length">00:00:05.000</property>
  <property name="eof">pause</property>
  <property name="resource">/home/liquidzulu/Documents/youtube-scripts/courses/libertarian-ethics/capsaicin/pseudo/defensive-force-and-proportionality.pseudo.srt-images/69.png</property>
  <property name="ttl">25</property>
  <property name="aspect_ratio">1</property>
  <property name="progressive">1</property>
  <property name="seekable">1</property>
  <property name="meta.media.width">1920</property>
  <property name="meta.media.height">1080</property>
  <property name="mlt_service">qimage</property>
  <property name="kdenlive:clipname"/>
  <property name="kdenlive:duration">00:00:05.000</property>
  <property name="kdenlive:folderid">41</property>
  <property name="kdenlive:clip_type">2</property>
  <property name="kdenlive:id">265</property>
  <property name="kdenlive:file_size">9131</property>
  <property name="kdenlive:file_hash">590c9c74eda2cd1a5af09b56407e17f2</property>
 </producer>
 <producer id="producer263" in="00:00:00.000" out="00:00:04.960">
  <property name="length">00:00:05.000</property>
  <property name="eof">pause</property>
  <property name="resource">/home/liquidzulu/Documents/youtube-scripts/courses/libertarian-ethics/capsaicin/pseudo/defensive-force-and-proportionality.pseudo.srt-images/70.png</property>
  <property name="ttl">25</property>
  <property name="aspect_ratio">1</property>
  <property name="progressive">1</property>
  <property name="seekable">1</property>
  <property name="meta.media.width">1920</property>
  <property name="meta.media.height">1080</property>
  <property name="mlt_service">qimage</property>
  <property name="kdenlive:clipname"/>
  <property name="kdenlive:duration">00:00:05.000</property>
  <property name="kdenlive:folderid">41</property>
  <property name="kdenlive:clip_type">2</property>
  <property name="kdenlive:id">266</property>
  <property name="kdenlive:file_size">9190</property>
  <property name="kdenlive:file_hash">4794a42a951e598661760ef4ff98eea7</property>
 </producer>
 <producer id="producer262" in="00:00:00.000" out="00:00:04.960">
  <property name="length">00:00:05.000</property>
  <property name="eof">pause</property>
  <property name="resource">/home/liquidzulu/Documents/youtube-scripts/courses/libertarian-ethics/capsaicin/pseudo/defensive-force-and-proportionality.pseudo.srt-images/71.png</property>
  <property name="ttl">25</property>
  <property name="aspect_ratio">1</property>
  <property name="progressive">1</property>
  <property name="seekable">1</property>
  <property name="meta.media.width">1920</property>
  <property name="meta.media.height">1080</property>
  <property name="mlt_service">qimage</property>
  <property name="kdenlive:clipname"/>
  <property name="kdenlive:duration">00:00:05.000</property>
  <property name="kdenlive:folderid">41</property>
  <property name="kdenlive:clip_type">2</property>
  <property name="kdenlive:id">267</property>
  <property name="kdenlive:file_size">8364</property>
  <property name="kdenlive:file_hash">9492c5e56337969cf8fb3265545f4343</property>
 </producer>
 <producer id="producer264" in="00:00:00.000" out="00:00:04.960">
  <property name="length">00:00:05.000</property>
  <property name="eof">pause</property>
  <property name="resource">/home/liquidzulu/Documents/youtube-scripts/courses/libertarian-ethics/capsaicin/pseudo/defensive-force-and-proportionality.pseudo.srt-images/72.png</property>
  <property name="ttl">25</property>
  <property name="aspect_ratio">1</property>
  <property name="progressive">1</property>
  <property name="seekable">1</property>
  <property name="meta.media.width">1920</property>
  <property name="meta.media.height">1080</property>
  <property name="mlt_service">qimage</property>
  <property name="kdenlive:clipname"/>
  <property name="kdenlive:duration">00:00:05.000</property>
  <property name="kdenlive:folderid">41</property>
  <property name="kdenlive:clip_type">2</property>
  <property name="kdenlive:id">268</property>
  <property name="kdenlive:file_size">8608</property>
  <property name="kdenlive:file_hash">fc753ced03b097783d2ce0089a0d79ee</property>
 </producer>
 <producer id="producer265" in="00:00:00.000" out="00:00:04.960">
  <property name="length">00:00:05.000</property>
  <property name="eof">pause</property>
  <property name="resource">/home/liquidzulu/Documents/youtube-scripts/courses/libertarian-ethics/capsaicin/pseudo/defensive-force-and-proportionality.pseudo.srt-images/73.png</property>
  <property name="ttl">25</property>
  <property name="aspect_ratio">1</property>
  <property name="progressive">1</property>
  <property name="seekable">1</property>
  <property name="meta.media.width">1920</property>
  <property name="meta.media.height">1080</property>
  <property name="mlt_service">qimage</property>
  <property name="kdenlive:clipname"/>
  <property name="kdenlive:duration">00:00:05.000</property>
  <property name="kdenlive:folderid">41</property>
  <property name="kdenlive:clip_type">2</property>
  <property name="kdenlive:id">269</property>
  <property name="kdenlive:file_size">9285</property>
  <property name="kdenlive:file_hash">baf626108dbeba7f0e668b77ab5a1eee</property>
 </producer>
 <producer id="producer268" in="00:00:00.000" out="00:00:04.960">
  <property name="length">00:00:05.000</property>
  <property name="eof">pause</property>
  <property name="resource">/home/liquidzulu/Documents/youtube-scripts/courses/libertarian-ethics/capsaicin/pseudo/defensive-force-and-proportionality.pseudo.srt-images/74.png</property>
  <property name="ttl">25</property>
  <property name="aspect_ratio">1</property>
  <property name="progressive">1</property>
  <property name="seekable">1</property>
  <property name="meta.media.width">1920</property>
  <property name="meta.media.height">1080</property>
  <property name="mlt_service">qimage</property>
  <property name="kdenlive:clipname"/>
  <property name="kdenlive:duration">00:00:05.000</property>
  <property name="kdenlive:folderid">41</property>
  <property name="kdenlive:clip_type">2</property>
  <property name="kdenlive:id">270</property>
  <property name="kdenlive:file_size">7970</property>
  <property name="kdenlive:file_hash">4f3e09586a00ad976a34224930190e99</property>
 </producer>
 <producer id="producer267" in="00:00:00.000" out="00:00:04.960">
  <property name="length">00:00:05.000</property>
  <property name="eof">pause</property>
  <property name="resource">/home/liquidzulu/Documents/youtube-scripts/courses/libertarian-ethics/capsaicin/pseudo/defensive-force-and-proportionality.pseudo.srt-images/75.png</property>
  <property name="ttl">25</property>
  <property name="aspect_ratio">1</property>
  <property name="progressive">1</property>
  <property name="seekable">1</property>
  <property name="meta.media.width">1920</property>
  <property name="meta.media.height">1080</property>
  <property name="mlt_service">qimage</property>
  <property name="kdenlive:clipname"/>
  <property name="kdenlive:duration">00:00:05.000</property>
  <property name="kdenlive:folderid">41</property>
  <property name="kdenlive:clip_type">2</property>
  <property name="kdenlive:id">271</property>
  <property name="kdenlive:file_size">8241</property>
  <property name="kdenlive:file_hash">28f0a2b2263653b3e752c2af3840dee7</property>
 </producer>
 <producer id="producer266" in="00:00:00.000" out="00:00:04.960">
  <property name="length">00:00:05.000</property>
  <property name="eof">pause</property>
  <property name="resource">/home/liquidzulu/Documents/youtube-scripts/courses/libertarian-ethics/capsaicin/pseudo/defensive-force-and-proportionality.pseudo.srt-images/76.png</property>
  <property name="ttl">25</property>
  <property name="aspect_ratio">1</property>
  <property name="progressive">1</property>
  <property name="seekable">1</property>
  <property name="meta.media.width">1920</property>
  <property name="meta.media.height">1080</property>
  <property name="mlt_service">qimage</property>
  <property name="kdenlive:clipname"/>
  <property name="kdenlive:duration">00:00:05.000</property>
  <property name="kdenlive:folderid">41</property>
  <property name="kdenlive:clip_type">2</property>
  <property name="kdenlive:id">272</property>
  <property name="kdenlive:file_size">6878</property>
  <property name="kdenlive:file_hash">1ecd111a5768282d96ccd2c9b5fcf2cf</property>
 </producer>
 <producer id="producer269" in="00:00:00.000" out="00:00:04.960">
  <property name="length">00:00:05.000</property>
  <property name="eof">pause</property>
  <property name="resource">/home/liquidzulu/Documents/youtube-scripts/courses/libertarian-ethics/capsaicin/pseudo/defensive-force-and-proportionality.pseudo.srt-images/77.png</property>
  <property name="ttl">25</property>
  <property name="aspect_ratio">1</property>
  <property name="progressive">1</property>
  <property name="seekable">1</property>
  <property name="meta.media.width">1920</property>
  <property name="meta.media.height">1080</property>
  <property name="mlt_service">qimage</property>
  <property name="kdenlive:clipname"/>
  <property name="kdenlive:duration">00:00:05.000</property>
  <property name="kdenlive:folderid">41</property>
  <property name="kdenlive:clip_type">2</property>
  <property name="kdenlive:id">273</property>
  <property name="kdenlive:file_size">9519</property>
  <property name="kdenlive:file_hash">718f13c82dc49e9fbb6fdd54cd0e45bc</property>
 </producer>
 <producer id="producer271" in="00:00:00.000" out="00:00:04.960">
  <property name="length">00:00:05.000</property>
  <property name="eof">pause</property>
  <property name="resource">/home/liquidzulu/Documents/youtube-scripts/courses/libertarian-ethics/capsaicin/pseudo/defensive-force-and-proportionality.pseudo.srt-images/78.png</property>
  <property name="ttl">25</property>
  <property name="aspect_ratio">1</property>
  <property name="progressive">1</property>
  <property name="seekable">1</property>
  <property name="meta.media.width">1920</property>
  <property name="meta.media.height">1080</property>
  <property name="mlt_service">qimage</property>
  <property name="kdenlive:clipname"/>
  <property name="kdenlive:duration">00:00:05.000</property>
  <property name="kdenlive:folderid">41</property>
  <property name="kdenlive:clip_type">2</property>
  <property name="kdenlive:id">274</property>
  <property name="kdenlive:file_size">7878</property>
  <property name="kdenlive:file_hash">1c6fa5581aed59a705786322f8130d80</property>
 </producer>
 <producer id="producer270" in="00:00:00.000" out="00:00:04.960">
  <property name="length">00:00:05.000</property>
  <property name="eof">pause</property>
  <property name="resource">/home/liquidzulu/Documents/youtube-scripts/courses/libertarian-ethics/capsaicin/pseudo/defensive-force-and-proportionality.pseudo.srt-images/79.png</property>
  <property name="ttl">25</property>
  <property name="aspect_ratio">1</property>
  <property name="progressive">1</property>
  <property name="seekable">1</property>
  <property name="meta.media.width">1920</property>
  <property name="meta.media.height">1080</property>
  <property name="mlt_service">qimage</property>
  <property name="kdenlive:clipname"/>
  <property name="kdenlive:duration">00:00:05.000</property>
  <property name="kdenlive:folderid">41</property>
  <property name="kdenlive:clip_type">2</property>
  <property name="kdenlive:id">275</property>
  <property name="kdenlive:file_size">7579</property>
  <property name="kdenlive:file_hash">cc69c2df544a4ad4a4bdb3129134799e</property>
 </producer>
 <producer id="producer272" in="00:00:00.000" out="00:00:04.960">
  <property name="length">00:00:05.000</property>
  <property name="eof">pause</property>
  <property name="resource">/home/liquidzulu/Documents/youtube-scripts/courses/libertarian-ethics/capsaicin/pseudo/defensive-force-and-proportionality.pseudo.srt-images/80.png</property>
  <property name="ttl">25</property>
  <property name="aspect_ratio">1</property>
  <property name="progressive">1</property>
  <property name="seekable">1</property>
  <property name="meta.media.width">1920</property>
  <property name="meta.media.height">1080</property>
  <property name="mlt_service">qimage</property>
  <property name="kdenlive:clipname"/>
  <property name="kdenlive:duration">00:00:05.000</property>
  <property name="kdenlive:folderid">41</property>
  <property name="kdenlive:clip_type">2</property>
  <property name="kdenlive:id">276</property>
  <property name="kdenlive:file_size">8845</property>
  <property name="kdenlive:file_hash">4be49a555df9d3c3224c208519a22de5</property>
 </producer>
 <producer id="producer273" in="00:00:00.000" out="00:00:04.960">
  <property name="length">00:00:05.000</property>
  <property name="eof">pause</property>
  <property name="resource">/home/liquidzulu/Documents/youtube-scripts/courses/libertarian-ethics/capsaicin/pseudo/defensive-force-and-proportionality.pseudo.srt-images/81.png</property>
  <property name="ttl">25</property>
  <property name="aspect_ratio">1</property>
  <property name="progressive">1</property>
  <property name="seekable">1</property>
  <property name="meta.media.width">1920</property>
  <property name="meta.media.height">1080</property>
  <property name="mlt_service">qimage</property>
  <property name="kdenlive:clipname"/>
  <property name="kdenlive:duration">00:00:05.000</property>
  <property name="kdenlive:folderid">41</property>
  <property name="kdenlive:clip_type">2</property>
  <property name="kdenlive:id">277</property>
  <property name="kdenlive:file_size">9020</property>
  <property name="kdenlive:file_hash">f61650f14de5feb4d212e2ff32cef843</property>
 </producer>
 <producer id="producer276" in="00:00:00.000" out="00:00:04.960">
  <property name="length">00:00:05.000</property>
  <property name="eof">pause</property>
  <property name="resource">/home/liquidzulu/Documents/youtube-scripts/courses/libertarian-ethics/capsaicin/pseudo/defensive-force-and-proportionality.pseudo.srt-images/83.png</property>
  <property name="ttl">25</property>
  <property name="aspect_ratio">1</property>
  <property name="progressive">1</property>
  <property name="seekable">1</property>
  <property name="meta.media.width">1920</property>
  <property name="meta.media.height">1080</property>
  <property name="mlt_service">qimage</property>
  <property name="kdenlive:clipname"/>
  <property name="kdenlive:duration">00:00:05.000</property>
  <property name="kdenlive:folderid">41</property>
  <property name="kdenlive:clip_type">2</property>
  <property name="kdenlive:id">278</property>
  <property name="kdenlive:file_size">8473</property>
  <property name="kdenlive:file_hash">d330d87b3c25bb0a96867ac107605843</property>
 </producer>
 <producer id="producer274" in="00:00:00.000" out="00:00:04.960">
  <property name="length">00:00:05.000</property>
  <property name="eof">pause</property>
  <property name="resource">/home/liquidzulu/Documents/youtube-scripts/courses/libertarian-ethics/capsaicin/pseudo/defensive-force-and-proportionality.pseudo.srt-images/84.png</property>
  <property name="ttl">25</property>
  <property name="aspect_ratio">1</property>
  <property name="progressive">1</property>
  <property name="seekable">1</property>
  <property name="meta.media.width">1920</property>
  <property name="meta.media.height">1080</property>
  <property name="mlt_service">qimage</property>
  <property name="kdenlive:clipname"/>
  <property name="kdenlive:duration">00:00:05.000</property>
  <property name="kdenlive:folderid">41</property>
  <property name="kdenlive:clip_type">2</property>
  <property name="kdenlive:id">279</property>
  <property name="kdenlive:file_size">8671</property>
  <property name="kdenlive:file_hash">ba065eb7f588a5beb922e7bc1015f1ca</property>
 </producer>
 <producer id="producer275" in="00:00:00.000" out="00:00:04.960">
  <property name="length">00:00:05.000</property>
  <property name="eof">pause</property>
  <property name="resource">/home/liquidzulu/Documents/youtube-scripts/courses/libertarian-ethics/capsaicin/pseudo/defensive-force-and-proportionality.pseudo.srt-images/85.png</property>
  <property name="ttl">25</property>
  <property name="aspect_ratio">1</property>
  <property name="progressive">1</property>
  <property name="seekable">1</property>
  <property name="meta.media.width">1920</property>
  <property name="meta.media.height">1080</property>
  <property name="mlt_service">qimage</property>
  <property name="kdenlive:clipname"/>
  <property name="kdenlive:duration">00:00:05.000</property>
  <property name="kdenlive:folderid">41</property>
  <property name="kdenlive:clip_type">2</property>
  <property name="kdenlive:id">280</property>
  <property name="kdenlive:file_size">7689</property>
  <property name="kdenlive:file_hash">211b3d6224f6a1760d6363b2029a3757</property>
 </producer>
 <producer id="producer277" in="00:00:00.000" out="00:00:04.960">
  <property name="length">00:00:05.000</property>
  <property name="eof">pause</property>
  <property name="resource">/home/liquidzulu/Documents/youtube-scripts/courses/libertarian-ethics/capsaicin/pseudo/defensive-force-and-proportionality.pseudo.srt-images/86.png</property>
  <property name="ttl">25</property>
  <property name="aspect_ratio">1</property>
  <property name="progressive">1</property>
  <property name="seekable">1</property>
  <property name="meta.media.width">1920</property>
  <property name="meta.media.height">1080</property>
  <property name="mlt_service">qimage</property>
  <property name="kdenlive:clipname"/>
  <property name="kdenlive:duration">00:00:05.000</property>
  <property name="kdenlive:folderid">41</property>
  <property name="kdenlive:clip_type">2</property>
  <property name="kdenlive:id">281</property>
  <property name="kdenlive:file_size">8170</property>
  <property name="kdenlive:file_hash">472af7bc7e51e77dfa0ad377068e056b</property>
 </producer>
 <producer id="producer278" in="00:00:00.000" out="00:00:04.960">
  <property name="length">00:00:05.000</property>
  <property name="eof">pause</property>
  <property name="resource">/home/liquidzulu/Documents/youtube-scripts/courses/libertarian-ethics/capsaicin/pseudo/defensive-force-and-proportionality.pseudo.srt-images/87.png</property>
  <property name="ttl">25</property>
  <property name="aspect_ratio">1</property>
  <property name="progressive">1</property>
  <property name="seekable">1</property>
  <property name="meta.media.width">1920</property>
  <property name="meta.media.height">1080</property>
  <property name="mlt_service">qimage</property>
  <property name="kdenlive:clipname"/>
  <property name="kdenlive:duration">00:00:05.000</property>
  <property name="kdenlive:folderid">41</property>
  <property name="kdenlive:clip_type">2</property>
  <property name="kdenlive:id">282</property>
  <property name="kdenlive:file_size">8034</property>
  <property name="kdenlive:file_hash">fc936bec81decb6457edf7e7e248369c</property>
 </producer>
 <producer id="producer279" in="00:00:00.000" out="00:00:04.960">
  <property name="length">00:00:05.000</property>
  <property name="eof">pause</property>
  <property name="resource">/home/liquidzulu/Documents/youtube-scripts/courses/libertarian-ethics/capsaicin/pseudo/defensive-force-and-proportionality.pseudo.srt-images/88.png</property>
  <property name="ttl">25</property>
  <property name="aspect_ratio">1</property>
  <property name="progressive">1</property>
  <property name="seekable">1</property>
  <property name="meta.media.width">1920</property>
  <property name="meta.media.height">1080</property>
  <property name="mlt_service">qimage</property>
  <property name="kdenlive:clipname"/>
  <property name="kdenlive:duration">00:00:05.000</property>
  <property name="kdenlive:folderid">41</property>
  <property name="kdenlive:clip_type">2</property>
  <property name="kdenlive:id">283</property>
  <property name="kdenlive:file_size">7605</property>
  <property name="kdenlive:file_hash">a039218d4bb43dc0abc6df0039a92d7a</property>
 </producer>
 <producer id="producer280" in="00:00:00.000" out="00:00:04.960">
  <property name="length">00:00:05.000</property>
  <property name="eof">pause</property>
  <property name="resource">/home/liquidzulu/Documents/youtube-scripts/courses/libertarian-ethics/capsaicin/pseudo/defensive-force-and-proportionality.pseudo.srt-images/89.png</property>
  <property name="ttl">25</property>
  <property name="aspect_ratio">1</property>
  <property name="progressive">1</property>
  <property name="seekable">1</property>
  <property name="meta.media.width">1920</property>
  <property name="meta.media.height">1080</property>
  <property name="mlt_service">qimage</property>
  <property name="kdenlive:clipname"/>
  <property name="kdenlive:duration">00:00:05.000</property>
  <property name="kdenlive:folderid">41</property>
  <property name="kdenlive:clip_type">2</property>
  <property name="kdenlive:id">284</property>
  <property name="kdenlive:file_size">8845</property>
  <property name="kdenlive:file_hash">6d84b43dc955c69dfd454b4e075940de</property>
 </producer>
 <producer id="producer281" in="00:00:00.000" out="00:00:04.960">
  <property name="length">00:00:05.000</property>
  <property name="eof">pause</property>
  <property name="resource">/home/liquidzulu/Documents/youtube-scripts/courses/libertarian-ethics/capsaicin/pseudo/defensive-force-and-proportionality.pseudo.srt-images/90.png</property>
  <property name="ttl">25</property>
  <property name="aspect_ratio">1</property>
  <property name="progressive">1</property>
  <property name="seekable">1</property>
  <property name="meta.media.width">1920</property>
  <property name="meta.media.height">1080</property>
  <property name="mlt_service">qimage</property>
  <property name="kdenlive:clipname"/>
  <property name="kdenlive:duration">00:00:05.000</property>
  <property name="kdenlive:folderid">41</property>
  <property name="kdenlive:clip_type">2</property>
  <property name="kdenlive:id">285</property>
  <property name="kdenlive:file_size">8516</property>
  <property name="kdenlive:file_hash">b7111fc875f142f28b83bf57f663710f</property>
 </producer>
 <producer id="producer282" in="00:00:00.000" out="00:00:04.960">
  <property name="length">00:00:05.000</property>
  <property name="eof">pause</property>
  <property name="resource">/home/liquidzulu/Documents/youtube-scripts/courses/libertarian-ethics/capsaicin/pseudo/defensive-force-and-proportionality.pseudo.srt-images/91.png</property>
  <property name="ttl">25</property>
  <property name="aspect_ratio">1</property>
  <property name="progressive">1</property>
  <property name="seekable">1</property>
  <property name="meta.media.width">1920</property>
  <property name="meta.media.height">1080</property>
  <property name="mlt_service">qimage</property>
  <property name="kdenlive:clipname"/>
  <property name="kdenlive:duration">00:00:05.000</property>
  <property name="kdenlive:folderid">41</property>
  <property name="kdenlive:clip_type">2</property>
  <property name="kdenlive:id">286</property>
  <property name="kdenlive:file_size">8041</property>
  <property name="kdenlive:file_hash">80ab606b6e9696d9c4007d9e187c15e8</property>
 </producer>
 <producer id="producer284" in="00:00:00.000" out="00:00:04.960">
  <property name="length">00:00:05.000</property>
  <property name="eof">pause</property>
  <property name="resource">/home/liquidzulu/Documents/youtube-scripts/courses/libertarian-ethics/capsaicin/pseudo/defensive-force-and-proportionality.pseudo.srt-images/92.png</property>
  <property name="ttl">25</property>
  <property name="aspect_ratio">1</property>
  <property name="progressive">1</property>
  <property name="seekable">1</property>
  <property name="meta.media.width">1920</property>
  <property name="meta.media.height">1080</property>
  <property name="mlt_service">qimage</property>
  <property name="kdenlive:clipname"/>
  <property name="kdenlive:duration">00:00:05.000</property>
  <property name="kdenlive:folderid">41</property>
  <property name="kdenlive:clip_type">2</property>
  <property name="kdenlive:id">287</property>
  <property name="kdenlive:file_size">8442</property>
  <property name="kdenlive:file_hash">e6e27a67896b8f8031e891f7b047cf43</property>
 </producer>
 <producer id="producer283" in="00:00:00.000" out="00:00:04.960">
  <property name="length">00:00:05.000</property>
  <property name="eof">pause</property>
  <property name="resource">/home/liquidzulu/Documents/youtube-scripts/courses/libertarian-ethics/capsaicin/pseudo/defensive-force-and-proportionality.pseudo.srt-images/93.png</property>
  <property name="ttl">25</property>
  <property name="aspect_ratio">1</property>
  <property name="progressive">1</property>
  <property name="seekable">1</property>
  <property name="meta.media.width">1920</property>
  <property name="meta.media.height">1080</property>
  <property name="mlt_service">qimage</property>
  <property name="kdenlive:clipname"/>
  <property name="kdenlive:duration">00:00:05.000</property>
  <property name="kdenlive:folderid">41</property>
  <property name="kdenlive:clip_type">2</property>
  <property name="kdenlive:id">288</property>
  <property name="kdenlive:file_size">8152</property>
  <property name="kdenlive:file_hash">9513bfa7d80ac6c4f0873d958d331172</property>
 </producer>
 <producer id="producer285" in="00:00:00.000" out="00:00:04.960">
  <property name="length">00:00:05.000</property>
  <property name="eof">pause</property>
  <property name="resource">/home/liquidzulu/Documents/youtube-scripts/courses/libertarian-ethics/capsaicin/pseudo/defensive-force-and-proportionality.pseudo.srt-images/94.png</property>
  <property name="ttl">25</property>
  <property name="aspect_ratio">1</property>
  <property name="progressive">1</property>
  <property name="seekable">1</property>
  <property name="meta.media.width">1920</property>
  <property name="meta.media.height">1080</property>
  <property name="mlt_service">qimage</property>
  <property name="kdenlive:clipname"/>
  <property name="kdenlive:duration">00:00:05.000</property>
  <property name="kdenlive:folderid">41</property>
  <property name="kdenlive:clip_type">2</property>
  <property name="kdenlive:id">289</property>
  <property name="kdenlive:file_size">7633</property>
  <property name="kdenlive:file_hash">7194725075eeb3b9282463800d1e51af</property>
 </producer>
 <producer id="producer286" in="00:00:00.000" out="00:00:13.840">
  <property name="length">347</property>
  <property name="eof">pause</property>
  <property name="resource">/home/liquidzulu/Documents/youtube-scripts/courses/libertarian-ethics/images/meme.png</property>
  <property name="ttl">25</property>
  <property name="aspect_ratio">1</property>
  <property name="progressive">1</property>
  <property name="seekable">1</property>
  <property name="meta.media.width">1708</property>
  <property name="meta.media.height">2097</property>
  <property name="mlt_service">qimage</property>
  <property name="kdenlive:clipname"/>
  <property name="kdenlive:duration">00:00:05.000</property>
  <property name="kdenlive:folderid">-1</property>
  <property name="kdenlive:clip_type">2</property>
  <property name="kdenlive:id">290</property>
  <property name="kdenlive:file_size">3399794</property>
  <property name="kdenlive:file_hash">14b312a25596ab1154b36a5ab809726c</property>
 </producer>
 <producer id="producer287" in="00:00:00.000" out="00:19:00.200">
  <property name="length">28506</property>
  <property name="eof">pause</property>
  <property name="resource">/home/liquidzulu/Pictures/yt/watermark-16x9-small.png</property>
  <property name="ttl">25</property>
  <property name="aspect_ratio">1</property>
  <property name="progressive">1</property>
  <property name="seekable">1</property>
  <property name="meta.media.width">1920</property>
  <property name="meta.media.height">1080</property>
  <property name="mlt_service">qimage</property>
  <property name="kdenlive:clipname"/>
  <property name="kdenlive:duration">00:00:05.000</property>
  <property name="kdenlive:folderid">-1</property>
  <property name="kdenlive:clip_type">2</property>
  <property name="kdenlive:id">291</property>
  <property name="kdenlive:file_size">15112</property>
  <property name="kdenlive:file_hash">7c6e22950b94df501d697c7b09bbc8c0</property>
 </producer>
 <producer id="producer288" in="00:00:00.000" out="00:00:04.960">
  <property name="length">00:00:05.000</property>
  <property name="eof">pause</property>
  <property name="resource">/home/liquidzulu/Documents/youtube-scripts/courses/libertarian-ethics/images/footnotes/[13].png</property>
  <property name="ttl">25</property>
  <property name="aspect_ratio">1</property>
  <property name="progressive">1</property>
  <property name="seekable">1</property>
  <property name="meta.media.width">784</property>
  <property name="meta.media.height">616</property>
  <property name="mlt_service">qimage</property>
  <property name="kdenlive:clipname"/>
  <property name="kdenlive:duration">00:00:05.000</property>
  <property name="kdenlive:folderid">292</property>
  <property name="kdenlive:clip_type">2</property>
  <property name="kdenlive:id">296</property>
  <property name="kdenlive:file_size">10746</property>
  <property name="kdenlive:file_hash">e78221deb41adab07b045aa8a4ea8931</property>
 </producer>
 <producer id="producer289" in="00:00:00.000" out="00:00:04.960">
  <property name="length">00:00:05.000</property>
  <property name="eof">pause</property>
  <property name="resource">/home/liquidzulu/Documents/youtube-scripts/courses/libertarian-ethics/images/footnotes/[11].png</property>
  <property name="ttl">25</property>
  <property name="aspect_ratio">1</property>
  <property name="progressive">1</property>
  <property name="seekable">1</property>
  <property name="meta.media.width">677</property>
  <property name="meta.media.height">616</property>
  <property name="mlt_service">qimage</property>
  <property name="kdenlive:clipname"/>
  <property name="kdenlive:duration">00:00:05.000</property>
  <property name="kdenlive:folderid">292</property>
  <property name="kdenlive:clip_type">2</property>
  <property name="kdenlive:id">294</property>
  <property name="kdenlive:file_size">6653</property>
  <property name="kdenlive:file_hash">4c95719b9dbb70ef2229cad7d8cf0e4c</property>
 </producer>
 <producer id="producer290" in="00:00:00.000" out="00:00:04.960">
  <property name="length">00:00:05.000</property>
  <property name="eof">pause</property>
  <property name="resource">/home/liquidzulu/Documents/youtube-scripts/courses/libertarian-ethics/images/footnotes/[10].png</property>
  <property name="ttl">25</property>
  <property name="aspect_ratio">1</property>
  <property name="progressive">1</property>
  <property name="seekable">1</property>
  <property name="meta.media.width">789</property>
  <property name="meta.media.height">616</property>
  <property name="mlt_service">qimage</property>
  <property name="kdenlive:clipname"/>
  <property name="kdenlive:duration">00:00:05.000</property>
  <property name="kdenlive:folderid">292</property>
  <property name="kdenlive:clip_type">2</property>
  <property name="kdenlive:id">293</property>
  <property name="kdenlive:file_size">11024</property>
  <property name="kdenlive:file_hash">fc1cb2338731cbf122195253c75200a8</property>
 </producer>
 <producer id="producer291" in="00:00:00.000" out="00:00:04.960">
  <property name="length">00:00:05.000</property>
  <property name="eof">pause</property>
  <property name="resource">/home/liquidzulu/Documents/youtube-scripts/courses/libertarian-ethics/images/footnotes/[12].png</property>
  <property name="ttl">25</property>
  <property name="aspect_ratio">1</property>
  <property name="progressive">1</property>
  <property name="seekable">1</property>
  <property name="meta.media.width">774</property>
  <property name="meta.media.height">616</property>
  <property name="mlt_service">qimage</property>
  <property name="kdenlive:clipname"/>
  <property name="kdenlive:duration">00:00:05.000</property>
  <property name="kdenlive:folderid">292</property>
  <property name="kdenlive:clip_type">2</property>
  <property name="kdenlive:id">295</property>
  <property name="kdenlive:file_size">9876</property>
  <property name="kdenlive:file_hash">38859f16b35a456942c55654eeadc8f0</property>
 </producer>
 <producer id="producer292" in="00:00:00.000" out="00:00:04.960">
  <property name="length">00:00:05.000</property>
  <property name="eof">pause</property>
  <property name="resource">/home/liquidzulu/Documents/youtube-scripts/courses/libertarian-ethics/images/footnotes/[14].png</property>
  <property name="ttl">25</property>
  <property name="aspect_ratio">1</property>
  <property name="progressive">1</property>
  <property name="seekable">1</property>
  <property name="meta.media.width">789</property>
  <property name="meta.media.height">616</property>
  <property name="mlt_service">qimage</property>
  <property name="kdenlive:clipname"/>
  <property name="kdenlive:duration">00:00:05.000</property>
  <property name="kdenlive:folderid">292</property>
  <property name="kdenlive:clip_type">2</property>
  <property name="kdenlive:id">297</property>
  <property name="kdenlive:file_size">8090</property>
  <property name="kdenlive:file_hash">d1ea5ae220b74dfdd077b0c9695a8b8c</property>
 </producer>
 <producer id="producer293" in="00:00:00.000" out="00:00:04.960">
  <property name="length">00:00:05.000</property>
  <property name="eof">pause</property>
  <property name="resource">/home/liquidzulu/Documents/youtube-scripts/courses/libertarian-ethics/images/footnotes/[17].png</property>
  <property name="ttl">25</property>
  <property name="aspect_ratio">1</property>
  <property name="progressive">1</property>
  <property name="seekable">1</property>
  <property name="meta.media.width">774</property>
  <property name="meta.media.height">616</property>
  <property name="mlt_service">qimage</property>
  <property name="kdenlive:clipname"/>
  <property name="kdenlive:duration">00:00:05.000</property>
  <property name="kdenlive:folderid">292</property>
  <property name="kdenlive:clip_type">2</property>
  <property name="kdenlive:id">300</property>
  <property name="kdenlive:file_size">9098</property>
  <property name="kdenlive:file_hash">16ee8dceba8169c8cd6ef3872b30b943</property>
 </producer>
 <producer id="producer294" in="00:00:00.000" out="00:00:04.960">
  <property name="length">00:00:05.000</property>
  <property name="eof">pause</property>
  <property name="resource">/home/liquidzulu/Documents/youtube-scripts/courses/libertarian-ethics/images/footnotes/[15].png</property>
  <property name="ttl">25</property>
  <property name="aspect_ratio">1</property>
  <property name="progressive">1</property>
  <property name="seekable">1</property>
  <property name="meta.media.width">784</property>
  <property name="meta.media.height">616</property>
  <property name="mlt_service">qimage</property>
  <property name="kdenlive:clipname"/>
  <property name="kdenlive:duration">00:00:05.000</property>
  <property name="kdenlive:folderid">292</property>
  <property name="kdenlive:clip_type">2</property>
  <property name="kdenlive:id">298</property>
  <property name="kdenlive:file_size">9205</property>
  <property name="kdenlive:file_hash">faf6087558daf9b55e8f26e330d1cccb</property>
 </producer>
 <producer id="producer295" in="00:00:00.000" out="00:00:04.960">
  <property name="length">00:00:05.000</property>
  <property name="eof">pause</property>
  <property name="resource">/home/liquidzulu/Documents/youtube-scripts/courses/libertarian-ethics/images/footnotes/[16].png</property>
  <property name="ttl">25</property>
  <property name="aspect_ratio">1</property>
  <property name="progressive">1</property>
  <property name="seekable">1</property>
  <property name="meta.media.width">764</property>
  <property name="meta.media.height">616</property>
  <property name="mlt_service">qimage</property>
  <property name="kdenlive:clipname"/>
  <property name="kdenlive:duration">00:00:05.000</property>
  <property name="kdenlive:folderid">292</property>
  <property name="kdenlive:clip_type">2</property>
  <property name="kdenlive:id">299</property>
  <property name="kdenlive:file_size">10238</property>
  <property name="kdenlive:file_hash">5c06c6ebce5353d6ff56dc92e4104535</property>
 </producer>
 <producer id="producer296" in="00:00:00.000" out="00:00:04.960">
  <property name="length">00:00:05.000</property>
  <property name="eof">pause</property>
  <property name="resource">/home/liquidzulu/Documents/youtube-scripts/courses/libertarian-ethics/images/footnotes/[18].png</property>
  <property name="ttl">25</property>
  <property name="aspect_ratio">1</property>
  <property name="progressive">1</property>
  <property name="seekable">1</property>
  <property name="meta.media.width">789</property>
  <property name="meta.media.height">616</property>
  <property name="mlt_service">qimage</property>
  <property name="kdenlive:clipname"/>
  <property name="kdenlive:duration">00:00:05.000</property>
  <property name="kdenlive:folderid">292</property>
  <property name="kdenlive:clip_type">2</property>
  <property name="kdenlive:id">301</property>
  <property name="kdenlive:file_size">11086</property>
  <property name="kdenlive:file_hash">bf060914c7d8f1999a0ee0dba70a277e</property>
 </producer>
 <producer id="producer297" in="00:00:00.000" out="00:00:04.960">
  <property name="length">00:00:05.000</property>
  <property name="eof">pause</property>
  <property name="resource">/home/liquidzulu/Documents/youtube-scripts/courses/libertarian-ethics/images/footnotes/[1].png</property>
  <property name="ttl">25</property>
  <property name="aspect_ratio">1</property>
  <property name="progressive">1</property>
  <property name="seekable">1</property>
  <property name="meta.media.width">482</property>
  <property name="meta.media.height">616</property>
  <property name="mlt_service">qimage</property>
  <property name="kdenlive:clipname"/>
  <property name="kdenlive:duration">00:00:05.000</property>
  <property name="kdenlive:folderid">292</property>
  <property name="kdenlive:clip_type">2</property>
  <property name="kdenlive:id">303</property>
  <property name="kdenlive:file_size">4932</property>
  <property name="kdenlive:file_hash">77ca2d7212cae96f7f71bb382d38ee2a</property>
 </producer>
 <producer id="producer298" in="00:00:00.000" out="00:00:04.960">
  <property name="length">00:00:05.000</property>
  <property name="eof">pause</property>
  <property name="resource">/home/liquidzulu/Documents/youtube-scripts/courses/libertarian-ethics/images/footnotes/[20].png</property>
  <property name="ttl">25</property>
  <property name="aspect_ratio">1</property>
  <property name="progressive">1</property>
  <property name="seekable">1</property>
  <property name="meta.media.width">886</property>
  <property name="meta.media.height">616</property>
  <property name="mlt_service">qimage</property>
  <property name="kdenlive:clipname"/>
  <property name="kdenlive:duration">00:00:05.000</property>
  <property name="kdenlive:folderid">292</property>
  <property name="kdenlive:clip_type">2</property>
  <property name="kdenlive:id">304</property>
  <property name="kdenlive:file_size">13512</property>
  <property name="kdenlive:file_hash">b244fb792f2ea28e0c896fffe5c70caf</property>
 </producer>
 <producer id="producer299" in="00:00:00.000" out="00:00:04.960">
  <property name="length">00:00:05.000</property>
  <property name="eof">pause</property>
  <property name="resource">/home/liquidzulu/Documents/youtube-scripts/courses/libertarian-ethics/images/footnotes/[19].png</property>
  <property name="ttl">25</property>
  <property name="aspect_ratio">1</property>
  <property name="progressive">1</property>
  <property name="seekable">1</property>
  <property name="meta.media.width">769</property>
  <property name="meta.media.height">616</property>
  <property name="mlt_service">qimage</property>
  <property name="kdenlive:clipname"/>
  <property name="kdenlive:duration">00:00:05.000</property>
  <property name="kdenlive:folderid">292</property>
  <property name="kdenlive:clip_type">2</property>
  <property name="kdenlive:id">302</property>
  <property name="kdenlive:file_size">10458</property>
  <property name="kdenlive:file_hash">b5b3b5559436fecc7071fbba3053e450</property>
 </producer>
 <producer id="producer300" in="00:00:00.000" out="00:00:04.960">
  <property name="length">00:00:05.000</property>
  <property name="eof">pause</property>
  <property name="resource">/home/liquidzulu/Documents/youtube-scripts/courses/libertarian-ethics/images/footnotes/[4].png</property>
  <property name="ttl">25</property>
  <property name="aspect_ratio">1</property>
  <property name="progressive">1</property>
  <property name="seekable">1</property>
  <property name="meta.media.width">594</property>
  <property name="meta.media.height">616</property>
  <property name="mlt_service">qimage</property>
  <property name="kdenlive:clipname"/>
  <property name="kdenlive:duration">00:00:05.000</property>
  <property name="kdenlive:folderid">292</property>
  <property name="kdenlive:clip_type">2</property>
  <property name="kdenlive:id">307</property>
  <property name="kdenlive:file_size">6412</property>
  <property name="kdenlive:file_hash">3fb7540394fb1ec9be5a5cee47e1e398</property>
 </producer>
 <producer id="producer301" in="00:00:00.000" out="00:00:04.960">
  <property name="length">00:00:05.000</property>
  <property name="eof">pause</property>
  <property name="resource">/home/liquidzulu/Documents/youtube-scripts/courses/libertarian-ethics/images/footnotes/[3].png</property>
  <property name="ttl">25</property>
  <property name="aspect_ratio">1</property>
  <property name="progressive">1</property>
  <property name="seekable">1</property>
  <property name="meta.media.width">589</property>
  <property name="meta.media.height">616</property>
  <property name="mlt_service">qimage</property>
  <property name="kdenlive:clipname"/>
  <property name="kdenlive:duration">00:00:05.000</property>
  <property name="kdenlive:folderid">292</property>
  <property name="kdenlive:clip_type">2</property>
  <property name="kdenlive:id">306</property>
  <property name="kdenlive:file_size">8913</property>
  <property name="kdenlive:file_hash">3259977c1d310bdc3295188e03df755c</property>
 </producer>
 <producer id="producer302" in="00:00:00.000" out="00:00:04.960">
  <property name="length">00:00:05.000</property>
  <property name="eof">pause</property>
  <property name="resource">/home/liquidzulu/Documents/youtube-scripts/courses/libertarian-ethics/images/footnotes/[2].png</property>
  <property name="ttl">25</property>
  <property name="aspect_ratio">1</property>
  <property name="progressive">1</property>
  <property name="seekable">1</property>
  <property name="meta.media.width">579</property>
  <property name="meta.media.height">616</property>
  <property name="mlt_service">qimage</property>
  <property name="kdenlive:clipname"/>
  <property name="kdenlive:duration">00:00:05.000</property>
  <property name="kdenlive:folderid">292</property>
  <property name="kdenlive:clip_type">2</property>
  <property name="kdenlive:id">305</property>
  <property name="kdenlive:file_size">7989</property>
  <property name="kdenlive:file_hash">f79eac112c605a0441d047c0e470480b</property>
 </producer>
 <producer id="producer303" in="00:00:00.000" out="00:00:04.960">
  <property name="length">00:00:05.000</property>
  <property name="eof">pause</property>
  <property name="resource">/home/liquidzulu/Documents/youtube-scripts/courses/libertarian-ethics/images/footnotes/[5].png</property>
  <property name="ttl">25</property>
  <property name="aspect_ratio">1</property>
  <property name="progressive">1</property>
  <property name="seekable">1</property>
  <property name="meta.media.width">589</property>
  <property name="meta.media.height">616</property>
  <property name="mlt_service">qimage</property>
  <property name="kdenlive:clipname"/>
  <property name="kdenlive:duration">00:00:05.000</property>
  <property name="kdenlive:folderid">292</property>
  <property name="kdenlive:clip_type">2</property>
  <property name="kdenlive:id">308</property>
  <property name="kdenlive:file_size">7416</property>
  <property name="kdenlive:file_hash">bc589685793c4621e75c6ecca65440ee</property>
 </producer>
 <producer id="producer304" in="00:00:00.000" out="00:00:04.960">
  <property name="length">00:00:05.000</property>
  <property name="eof">pause</property>
  <property name="resource">/home/liquidzulu/Documents/youtube-scripts/courses/libertarian-ethics/images/footnotes/[6].png</property>
  <property name="ttl">25</property>
  <property name="aspect_ratio">1</property>
  <property name="progressive">1</property>
  <property name="seekable">1</property>
  <property name="meta.media.width">569</property>
  <property name="meta.media.height">616</property>
  <property name="mlt_service">qimage</property>
  <property name="kdenlive:clipname"/>
  <property name="kdenlive:duration">00:00:05.000</property>
  <property name="kdenlive:folderid">292</property>
  <property name="kdenlive:clip_type">2</property>
  <property name="kdenlive:id">309</property>
  <property name="kdenlive:file_size">8456</property>
  <property name="kdenlive:file_hash">106589471dc640dc3d8b9f0a8d60dbbd</property>
 </producer>
 <producer id="producer305" in="00:00:00.000" out="00:00:04.960">
  <property name="length">00:00:05.000</property>
  <property name="eof">pause</property>
  <property name="resource">/home/liquidzulu/Documents/youtube-scripts/courses/libertarian-ethics/images/footnotes/[7].png</property>
  <property name="ttl">25</property>
  <property name="aspect_ratio">1</property>
  <property name="progressive">1</property>
  <property name="seekable">1</property>
  <property name="meta.media.width">579</property>
  <property name="meta.media.height">616</property>
  <property name="mlt_service">qimage</property>
  <property name="kdenlive:clipname"/>
  <property name="kdenlive:duration">00:00:05.000</property>
  <property name="kdenlive:folderid">292</property>
  <property name="kdenlive:clip_type">2</property>
  <property name="kdenlive:id">310</property>
  <property name="kdenlive:file_size">7176</property>
  <property name="kdenlive:file_hash">75857f4fa583699e3fa1b5d4ae2999eb</property>
 </producer>
 <producer id="producer306" in="00:00:00.000" out="00:00:04.960">
  <property name="length">00:00:05.000</property>
  <property name="eof">pause</property>
  <property name="resource">/home/liquidzulu/Documents/youtube-scripts/courses/libertarian-ethics/images/footnotes/[9].png</property>
  <property name="ttl">25</property>
  <property name="aspect_ratio">1</property>
  <property name="progressive">1</property>
  <property name="seekable">1</property>
  <property name="meta.media.width">574</property>
  <property name="meta.media.height">616</property>
  <property name="mlt_service">qimage</property>
  <property name="kdenlive:clipname"/>
  <property name="kdenlive:duration">00:00:05.000</property>
  <property name="kdenlive:folderid">292</property>
  <property name="kdenlive:clip_type">2</property>
  <property name="kdenlive:id">312</property>
  <property name="kdenlive:file_size">8762</property>
  <property name="kdenlive:file_hash">f3f317991b8b6ae9e1585654a4a9dbf6</property>
 </producer>
 <producer id="producer307" in="00:00:00.000" out="00:00:04.960">
  <property name="length">00:00:05.000</property>
  <property name="eof">pause</property>
  <property name="resource">/home/liquidzulu/Documents/youtube-scripts/courses/libertarian-ethics/images/footnotes/[8].png</property>
  <property name="ttl">25</property>
  <property name="aspect_ratio">1</property>
  <property name="progressive">1</property>
  <property name="seekable">1</property>
  <property name="meta.media.width">594</property>
  <property name="meta.media.height">616</property>
  <property name="mlt_service">qimage</property>
  <property name="kdenlive:clipname"/>
  <property name="kdenlive:duration">00:00:05.000</property>
  <property name="kdenlive:folderid">292</property>
  <property name="kdenlive:clip_type">2</property>
  <property name="kdenlive:id">311</property>
  <property name="kdenlive:file_size">9148</property>
  <property name="kdenlive:file_hash">577f8ba7600a13914942629d1258a518</property>
 </producer>
 <playlist id="main_bin">
  <property name="kdenlive:folder.-1.56">slides</property>
  <property name="kdenlive:folder.-1.41">defensive-force-and-proportionality.pseudo.srt-images</property>
  <property name="kdenlive:docproperties.activeTrack">5</property>
  <property name="kdenlive:docproperties.audioChannels">2</property>
  <property name="kdenlive:docproperties.audioTarget">-1</property>
  <property name="kdenlive:docproperties.compositing">1</property>
  <property name="kdenlive:docproperties.disablepreview">0</property>
  <property name="kdenlive:docproperties.documentid">1681570388414</property>
  <property name="kdenlive:docproperties.enableTimelineZone">0</property>
  <property name="kdenlive:docproperties.enableexternalproxy">0</property>
  <property name="kdenlive:docproperties.enableproxy">0</property>
  <property name="kdenlive:docproperties.externalproxyparams"/>
  <property name="kdenlive:docproperties.generateimageproxy">0</property>
  <property name="kdenlive:docproperties.generateproxy">0</property>
  <property name="kdenlive:docproperties.groups">[
]
</property>
  <property name="kdenlive:docproperties.kdenliveversion">22.08.3</property>
  <property name="kdenlive:docproperties.position">23145</property>
  <property name="kdenlive:docproperties.previewextension"/>
  <property name="kdenlive:docproperties.previewparameters"/>
  <property name="kdenlive:docproperties.profile">atsc_1080p_25</property>
  <property name="kdenlive:docproperties.proxyextension"/>
  <property name="kdenlive:docproperties.proxyimageminsize">2000</property>
  <property name="kdenlive:docproperties.proxyimagesize">800</property>
  <property name="kdenlive:docproperties.proxyminsize">1000</property>
  <property name="kdenlive:docproperties.proxyparams"/>
  <property name="kdenlive:docproperties.proxyresize">640</property>
  <property name="kdenlive:docproperties.rendercategory">Generic (HD for web, mobile devices...)</property>
  <property name="kdenlive:docproperties.rendercustomquality">-1</property>
  <property name="kdenlive:docproperties.renderendguide">-1</property>
  <property name="kdenlive:docproperties.renderexportaudio">0</property>
  <property name="kdenlive:docproperties.rendermode">0</property>
  <property name="kdenlive:docproperties.renderplay">0</property>
  <property name="kdenlive:docproperties.renderpreview">0</property>
  <property name="kdenlive:docproperties.renderprofile">MP4-H264/AAC</property>
  <property name="kdenlive:docproperties.renderratio">1</property>
  <property name="kdenlive:docproperties.renderrescale">0</property>
  <property name="kdenlive:docproperties.renderrescaleheight">540</property>
  <property name="kdenlive:docproperties.renderrescalewidth">960</property>
  <property name="kdenlive:docproperties.renderspeed">6</property>
  <property name="kdenlive:docproperties.renderstartguide">-1</property>
  <property name="kdenlive:docproperties.rendertcoverlay">0</property>
  <property name="kdenlive:docproperties.rendertctype">-1</property>
  <property name="kdenlive:docproperties.rendertwopass">0</property>
  <property name="kdenlive:docproperties.renderurl">/home/liquidzulu/Videos/yt/vid-store/courses/libertarian-ethics/defensive-force-and-proportionality.mp4</property>
  <property name="kdenlive:docproperties.scrollPos">178149</property>
  <property name="kdenlive:docproperties.seekOffset">30000</property>
  <property name="kdenlive:docproperties.version">1.04</property>
  <property name="kdenlive:docproperties.verticalzoom">1</property>
  <property name="kdenlive:docproperties.videoTarget">2</property>
  <property name="kdenlive:docproperties.zonein">0</property>
  <property name="kdenlive:docproperties.zoneout">75</property>
  <property name="kdenlive:docproperties.zoom">3</property>
  <property name="kdenlive:expandedFolders">292</property>
  <property name="kdenlive:documentnotes"/>
  <property name="kdenlive:folder.-1.292">footnotes</property>
  <property name="xml_retain">1</property>
  <entry producer="producer1" in="00:00:00.000" out="00:00:27.040"/>
  <entry producer="producer50" in="00:00:00.000" out="00:01:32.200"/>
  <entry producer="producer51" in="00:00:00.000" out="00:00:12.640"/>
  <entry producer="producer0" in="00:00:00.000" out="00:18:26.520"/>
  <entry producer="producer5" in="00:00:00.000" out="00:00:04.960"/>
  <entry producer="producer3" in="00:00:00.000" out="00:00:25.960"/>
  <entry producer="producer4" in="00:00:00.000" out="00:00:24.040"/>
  <entry producer="producer2" in="00:00:00.000" out="00:00:18.680"/>
  <entry producer="producer9" in="00:00:00.000" out="00:00:18.520"/>
  <entry producer="producer6" in="00:00:00.000" out="00:00:04.960"/>
  <entry producer="producer7" in="00:00:00.000" out="00:01:25.040"/>
  <entry producer="producer8" in="00:00:00.000" out="00:00:17.280"/>
  <entry producer="producer11" in="00:00:00.000" out="00:00:18.680"/>
  <entry producer="producer35" in="00:00:00.000" out="00:00:25.520"/>
  <entry producer="producer10" in="00:00:00.000" out="00:00:04.960"/>
  <entry producer="producer12" in="00:00:00.000" out="00:01:23.200"/>
  <entry producer="producer15" in="00:00:00.000" out="00:00:14.400"/>
  <entry producer="producer13" in="00:00:00.000" out="00:00:23.920"/>
  <entry producer="producer14" in="00:00:00.000" out="00:00:34.040"/>
  <entry producer="producer16" in="00:00:00.000" out="00:00:04.960"/>
  <entry producer="producer17" in="00:00:00.000" out="00:00:48.200"/>
  <entry producer="producer36" in="00:00:00.000" out="00:00:07.960"/>
  <entry producer="producer18" in="00:00:00.000" out="00:00:38.040"/>
  <entry producer="producer19" in="00:00:00.000" out="00:00:23.240"/>
  <entry producer="producer20" in="00:00:00.000" out="00:00:54.240"/>
  <entry producer="producer21" in="00:00:00.000" out="00:03:30.280"/>
  <entry producer="producer22" in="00:00:00.000" out="00:00:35.960"/>
  <entry producer="producer23" in="00:00:00.000" out="00:01:31.280"/>
  <entry producer="producer24" in="00:00:00.000" out="00:00:27.200"/>
  <entry producer="producer25" in="00:00:00.000" out="00:03:59.520"/>
  <entry producer="producer26" in="00:00:00.000" out="00:00:32.840"/>
  <entry producer="producer27" in="00:00:00.000" out="00:00:34.000"/>
  <entry producer="producer29" in="00:00:00.000" out="00:00:38.440"/>
  <entry producer="producer28" in="00:00:00.000" out="00:00:48.080"/>
  <entry producer="producer30" in="00:00:00.000" out="00:00:22.080"/>
  <entry producer="producer31" in="00:00:00.000" out="00:00:17.280"/>
  <entry producer="producer32" in="00:00:00.000" out="00:00:50.400"/>
  <entry producer="producer33" in="00:00:00.000" out="00:00:12.880"/>
  <entry producer="producer34" in="00:00:00.000" out="00:00:01.240"/>
  <entry producer="producer37" in="00:00:00.000" out="00:00:04.960"/>
  <entry producer="producer39" in="00:00:00.000" out="00:00:04.960"/>
  <entry producer="producer40" in="00:00:00.000" out="00:00:04.960"/>
  <entry producer="producer38" in="00:00:00.000" out="00:00:04.960"/>
  <entry producer="producer41" in="00:00:00.000" out="00:00:04.960"/>
  <entry producer="producer42" in="00:00:00.000" out="00:00:04.960"/>
  <entry producer="producer43" in="00:00:00.000" out="00:00:04.960"/>
  <entry producer="producer44" in="00:00:00.000" out="00:00:04.960"/>
  <entry producer="producer45" in="00:00:00.000" out="00:00:04.960"/>
  <entry producer="producer46" in="00:00:00.000" out="00:00:04.960"/>
  <entry producer="producer47" in="00:00:00.000" out="00:00:04.960"/>
  <entry producer="producer48" in="00:00:00.000" out="00:00:04.960"/>
  <entry producer="producer49" in="00:00:00.000" out="00:00:04.960"/>
  <entry producer="producer52" in="00:00:00.000" out="00:00:04.960"/>
  <entry producer="producer54" in="00:00:00.000" out="00:00:04.960"/>
  <entry producer="producer53" in="00:00:00.000" out="00:00:04.960"/>
  <entry producer="producer55" in="00:00:00.000" out="00:00:04.960"/>
  <entry producer="producer56" in="00:00:00.000" out="00:00:04.960"/>
  <entry producer="producer57" in="00:00:00.000" out="00:00:04.960"/>
  <entry producer="producer58" in="00:00:00.000" out="00:00:04.960"/>
  <entry producer="producer59" in="00:00:00.000" out="00:00:04.960"/>
  <entry producer="producer60" in="00:00:00.000" out="00:00:04.960"/>
  <entry producer="producer61" in="00:00:00.000" out="00:00:04.960"/>
  <entry producer="producer62" in="00:00:00.000" out="00:00:04.960"/>
  <entry producer="producer63" in="00:00:00.000" out="00:00:04.960"/>
  <entry producer="producer64" in="00:00:00.000" out="00:00:04.960"/>
  <entry producer="producer65" in="00:00:00.000" out="00:00:04.960"/>
  <entry producer="producer66" in="00:00:00.000" out="00:00:04.960"/>
  <entry producer="producer67" in="00:00:00.000" out="00:00:04.960"/>
  <entry producer="producer68" in="00:00:00.000" out="00:00:04.960"/>
  <entry producer="producer70" in="00:00:00.000" out="00:00:04.960"/>
  <entry producer="producer69" in="00:00:00.000" out="00:00:04.960"/>
  <entry producer="producer72" in="00:00:00.000" out="00:00:04.960"/>
  <entry producer="producer73" in="00:00:00.000" out="00:00:04.960"/>
  <entry producer="producer71" in="00:00:00.000" out="00:00:04.960"/>
  <entry producer="producer74" in="00:00:00.000" out="00:00:04.960"/>
  <entry producer="producer75" in="00:00:00.000" out="00:00:04.960"/>
  <entry producer="producer77" in="00:00:00.000" out="00:00:04.960"/>
  <entry producer="producer78" in="00:00:00.000" out="00:00:04.960"/>
  <entry producer="producer76" in="00:00:00.000" out="00:00:04.960"/>
  <entry producer="producer79" in="00:00:00.000" out="00:00:04.960"/>
  <entry producer="producer80" in="00:00:00.000" out="00:00:04.960"/>
  <entry producer="producer81" in="00:00:00.000" out="00:00:04.960"/>
  <entry producer="producer82" in="00:00:00.000" out="00:00:04.960"/>
  <entry producer="producer83" in="00:00:00.000" out="00:00:04.960"/>
  <entry producer="producer84" in="00:00:00.000" out="00:00:04.960"/>
  <entry producer="producer86" in="00:00:00.000" out="00:00:04.960"/>
  <entry producer="producer85" in="00:00:00.000" out="00:00:04.960"/>
  <entry producer="producer87" in="00:00:00.000" out="00:00:04.960"/>
  <entry producer="producer88" in="00:00:00.000" out="00:00:04.960"/>
  <entry producer="producer89" in="00:00:00.000" out="00:00:04.960"/>
  <entry producer="producer90" in="00:00:00.000" out="00:00:04.960"/>
  <entry producer="producer91" in="00:00:00.000" out="00:00:04.960"/>
  <entry producer="producer94" in="00:00:00.000" out="00:00:04.960"/>
  <entry producer="producer92" in="00:00:00.000" out="00:00:04.960"/>
  <entry producer="producer93" in="00:00:00.000" out="00:00:04.960"/>
  <entry producer="producer95" in="00:00:00.000" out="00:00:04.960"/>
  <entry producer="producer97" in="00:00:00.000" out="00:00:05.600"/>
  <entry producer="producer96" in="00:00:00.000" out="00:00:04.960"/>
  <entry producer="producer98" in="00:00:00.000" out="00:00:04.960"/>
  <entry producer="producer99" in="00:00:00.000" out="00:00:04.960"/>
  <entry producer="producer100" in="00:00:00.000" out="00:00:04.960"/>
  <entry producer="producer102" in="00:00:00.000" out="00:00:04.960"/>
  <entry producer="producer101" in="00:00:00.000" out="00:00:04.960"/>
  <entry producer="producer103" in="00:00:00.000" out="00:00:04.960"/>
  <entry producer="producer104" in="00:00:00.000" out="00:00:04.960"/>
  <entry producer="producer105" in="00:00:00.000" out="00:00:04.960"/>
  <entry producer="producer106" in="00:00:00.000" out="00:00:04.960"/>
  <entry producer="producer107" in="00:00:00.000" out="00:00:04.960"/>
  <entry producer="producer108" in="00:00:00.000" out="00:00:04.960"/>
  <entry producer="producer109" in="00:00:00.000" out="00:00:04.960"/>
  <entry producer="producer110" in="00:00:00.000" out="00:00:04.960"/>
  <entry producer="producer111" in="00:00:00.000" out="00:00:04.960"/>
  <entry producer="producer112" in="00:00:00.000" out="00:00:04.960"/>
  <entry producer="producer114" in="00:00:00.000" out="00:00:04.960"/>
  <entry producer="producer113" in="00:00:00.000" out="00:00:04.960"/>
  <entry producer="producer115" in="00:00:00.000" out="00:00:04.960"/>
  <entry producer="producer116" in="00:00:00.000" out="00:00:04.960"/>
  <entry producer="producer117" in="00:00:00.000" out="00:00:04.960"/>
  <entry producer="producer118" in="00:00:00.000" out="00:00:04.960"/>
  <entry producer="producer119" in="00:00:00.000" out="00:00:04.960"/>
  <entry producer="producer120" in="00:00:00.000" out="00:00:04.960"/>
  <entry producer="producer121" in="00:00:00.000" out="00:00:04.960"/>
  <entry producer="producer122" in="00:00:00.000" out="00:00:04.960"/>
  <entry producer="producer123" in="00:00:00.000" out="00:00:04.960"/>
  <entry producer="producer124" in="00:00:00.000" out="00:00:04.960"/>
  <entry producer="producer125" in="00:00:00.000" out="00:00:05.800"/>
  <entry producer="producer126" in="00:00:00.000" out="00:00:04.960"/>
  <entry producer="producer127" in="00:00:00.000" out="00:00:04.960"/>
  <entry producer="producer128" in="00:00:00.000" out="00:00:04.960"/>
  <entry producer="producer130" in="00:00:00.000" out="00:00:04.960"/>
  <entry producer="producer129" in="00:00:00.000" out="00:00:04.960"/>
  <entry producer="producer131" in="00:00:00.000" out="00:00:04.960"/>
  <entry producer="producer132" in="00:00:00.000" out="00:00:04.960"/>
  <entry producer="producer135" in="00:00:00.000" out="00:00:04.960"/>
  <entry producer="producer134" in="00:00:00.000" out="00:00:04.960"/>
  <entry producer="producer133" in="00:00:00.000" out="00:00:04.960"/>
  <entry producer="producer136" in="00:00:00.000" out="00:00:04.960"/>
  <entry producer="producer137" in="00:00:00.000" out="00:00:04.960"/>
  <entry producer="producer139" in="00:00:00.000" out="00:00:05.680"/>
  <entry producer="producer138" in="00:00:00.000" out="00:00:04.960"/>
  <entry producer="producer140" in="00:00:00.000" out="00:00:05.200"/>
  <entry producer="producer141" in="00:00:00.000" out="00:00:04.960"/>
  <entry producer="producer142" in="00:00:00.000" out="00:00:04.960"/>
  <entry producer="producer143" in="00:00:00.000" out="00:00:04.960"/>
  <entry producer="producer144" in="00:00:00.000" out="00:00:04.960"/>
  <entry producer="producer145" in="00:00:00.000" out="00:00:05.080"/>
  <entry producer="producer146" in="00:00:00.000" out="00:00:04.960"/>
  <entry producer="producer147" in="00:00:00.000" out="00:00:04.960"/>
  <entry producer="producer148" in="00:00:00.000" out="00:00:05.240"/>
  <entry producer="producer149" in="00:00:00.000" out="00:00:04.960"/>
  <entry producer="producer150" in="00:00:00.000" out="00:00:04.960"/>
  <entry producer="producer151" in="00:00:00.000" out="00:00:04.960"/>
  <entry producer="producer152" in="00:00:00.000" out="00:00:04.960"/>
  <entry producer="producer155" in="00:00:00.000" out="00:00:04.960"/>
  <entry producer="producer153" in="00:00:00.000" out="00:00:04.960"/>
  <entry producer="producer154" in="00:00:00.000" out="00:00:04.960"/>
  <entry producer="producer156" in="00:00:00.000" out="00:00:04.960"/>
  <entry producer="producer158" in="00:00:00.000" out="00:00:04.960"/>
  <entry producer="producer157" in="00:00:00.000" out="00:00:04.960"/>
  <entry producer="producer159" in="00:00:00.000" out="00:00:04.960"/>
  <entry producer="producer160" in="00:00:00.000" out="00:00:04.960"/>
  <entry producer="producer161" in="00:00:00.000" out="00:00:04.960"/>
  <entry producer="producer162" in="00:00:00.000" out="00:00:04.960"/>
  <entry producer="producer163" in="00:00:00.000" out="00:00:04.960"/>
  <entry producer="producer164" in="00:00:00.000" out="00:00:04.960"/>
  <entry producer="producer165" in="00:00:00.000" out="00:00:04.960"/>
  <entry producer="producer168" in="00:00:00.000" out="00:00:04.960"/>
  <entry producer="producer166" in="00:00:00.000" out="00:00:04.960"/>
  <entry producer="producer167" in="00:00:00.000" out="00:00:04.960"/>
  <entry producer="producer169" in="00:00:00.000" out="00:00:04.960"/>
  <entry producer="producer170" in="00:00:00.000" out="00:00:04.960"/>
  <entry producer="producer171" in="00:00:00.000" out="00:00:05.760"/>
  <entry producer="producer172" in="00:00:00.000" out="00:00:04.960"/>
  <entry producer="producer173" in="00:00:00.000" out="00:00:04.960"/>
  <entry producer="producer174" in="00:00:00.000" out="00:00:04.960"/>
  <entry producer="producer175" in="00:00:00.000" out="00:00:04.960"/>
  <entry producer="producer177" in="00:00:00.000" out="00:00:04.960"/>
  <entry producer="producer176" in="00:00:00.000" out="00:00:04.960"/>
  <entry producer="producer178" in="00:00:00.000" out="00:00:04.960"/>
  <entry producer="producer179" in="00:00:00.000" out="00:00:04.960"/>
  <entry producer="producer180" in="00:00:00.000" out="00:00:04.960"/>
  <entry producer="producer181" in="00:00:00.000" out="00:00:04.960"/>
  <entry producer="producer183" in="00:00:00.000" out="00:00:04.960"/>
  <entry producer="producer182" in="00:00:00.000" out="00:00:04.960"/>
  <entry producer="producer185" in="00:00:00.000" out="00:00:04.960"/>
  <entry producer="producer184" in="00:00:00.000" out="00:00:04.960"/>
  <entry producer="producer186" in="00:00:00.000" out="00:00:04.960"/>
  <entry producer="producer187" in="00:00:00.000" out="00:00:04.960"/>
  <entry producer="producer188" in="00:00:00.000" out="00:00:04.960"/>
  <entry producer="producer189" in="00:00:00.000" out="00:00:04.960"/>
  <entry producer="producer190" in="00:00:00.000" out="00:00:04.960"/>
  <entry producer="producer191" in="00:00:00.000" out="00:00:04.960"/>
  <entry producer="producer192" in="00:00:00.000" out="00:00:04.960"/>
  <entry producer="producer193" in="00:00:00.000" out="00:00:04.960"/>
  <entry producer="producer194" in="00:00:00.000" out="00:00:04.960"/>
  <entry producer="producer196" in="00:00:00.000" out="00:00:04.960"/>
  <entry producer="producer195" in="00:00:00.000" out="00:00:04.960"/>
  <entry producer="producer197" in="00:00:00.000" out="00:00:04.960"/>
  <entry producer="producer198" in="00:00:00.000" out="00:00:04.960"/>
  <entry producer="producer199" in="00:00:00.000" out="00:00:04.960"/>
  <entry producer="producer200" in="00:00:00.000" out="00:00:05.040"/>
  <entry producer="producer201" in="00:00:00.000" out="00:00:04.960"/>
  <entry producer="producer202" in="00:00:00.000" out="00:00:04.960"/>
  <entry producer="producer203" in="00:00:00.000" out="00:00:04.960"/>
  <entry producer="producer204" in="00:00:00.000" out="00:00:05.280"/>
  <entry producer="producer205" in="00:00:00.000" out="00:00:05.400"/>
  <entry producer="producer206" in="00:00:00.000" out="00:00:04.960"/>
  <entry producer="producer207" in="00:00:00.000" out="00:00:04.960"/>
  <entry producer="producer208" in="00:00:00.000" out="00:00:04.960"/>
  <entry producer="producer209" in="00:00:00.000" out="00:00:04.960"/>
  <entry producer="producer210" in="00:00:00.000" out="00:00:04.960"/>
  <entry producer="producer211" in="00:00:00.000" out="00:00:04.960"/>
  <entry producer="producer212" in="00:00:00.000" out="00:00:04.960"/>
  <entry producer="producer213" in="00:00:00.000" out="00:00:04.960"/>
  <entry producer="producer214" in="00:00:00.000" out="00:00:04.960"/>
  <entry producer="producer215" in="00:00:00.000" out="00:00:04.960"/>
  <entry producer="producer221" in="00:00:00.000" out="00:00:04.960"/>
  <entry producer="producer216" in="00:00:00.000" out="00:00:04.960"/>
  <entry producer="producer217" in="00:00:00.000" out="00:00:04.960"/>
  <entry producer="producer218" in="00:00:00.000" out="00:00:04.960"/>
  <entry producer="producer220" in="00:00:00.000" out="00:00:04.960"/>
  <entry producer="producer219" in="00:00:00.000" out="00:00:04.960"/>
  <entry producer="producer222" in="00:00:00.000" out="00:00:04.960"/>
  <entry producer="producer223" in="00:00:00.000" out="00:00:04.960"/>
  <entry producer="producer224" in="00:00:00.000" out="00:00:04.960"/>
  <entry producer="producer225" in="00:00:00.000" out="00:00:04.960"/>
  <entry producer="producer226" in="00:00:00.000" out="00:00:04.960"/>
  <entry producer="producer227" in="00:00:00.000" out="00:00:04.960"/>
  <entry producer="producer228" in="00:00:00.000" out="00:00:04.960"/>
  <entry producer="producer229" in="00:00:00.000" out="00:00:04.960"/>
  <entry producer="producer230" in="00:00:00.000" out="00:00:04.960"/>
  <entry producer="producer231" in="00:00:00.000" out="00:00:05.480"/>
  <entry producer="producer232" in="00:00:00.000" out="00:00:04.960"/>
  <entry producer="producer233" in="00:00:00.000" out="00:00:04.960"/>
  <entry producer="producer234" in="00:00:00.000" out="00:00:04.960"/>
  <entry producer="producer235" in="00:00:00.000" out="00:00:04.960"/>
  <entry producer="producer236" in="00:00:00.000" out="00:00:04.960"/>
  <entry producer="producer237" in="00:00:00.000" out="00:00:04.960"/>
  <entry producer="producer238" in="00:00:00.000" out="00:00:04.960"/>
  <entry producer="producer240" in="00:00:00.000" out="00:00:04.960"/>
  <entry producer="producer239" in="00:00:00.000" out="00:00:04.960"/>
  <entry producer="producer241" in="00:00:00.000" out="00:00:04.960"/>
  <entry producer="producer242" in="00:00:00.000" out="00:00:04.960"/>
  <entry producer="producer243" in="00:00:00.000" out="00:00:04.960"/>
  <entry producer="producer244" in="00:00:00.000" out="00:00:04.960"/>
  <entry producer="producer245" in="00:00:00.000" out="00:00:04.960"/>
  <entry producer="producer246" in="00:00:00.000" out="00:00:04.960"/>
  <entry producer="producer247" in="00:00:00.000" out="00:00:04.960"/>
  <entry producer="producer248" in="00:00:00.000" out="00:00:04.960"/>
  <entry producer="producer249" in="00:00:00.000" out="00:00:04.960"/>
  <entry producer="producer250" in="00:00:00.000" out="00:00:04.960"/>
  <entry producer="producer253" in="00:00:00.000" out="00:00:04.960"/>
  <entry producer="producer252" in="00:00:00.000" out="00:00:04.960"/>
  <entry producer="producer251" in="00:00:00.000" out="00:00:04.960"/>
  <entry producer="producer254" in="00:00:00.000" out="00:00:04.960"/>
  <entry producer="producer255" in="00:00:00.000" out="00:00:05.360"/>
  <entry producer="producer256" in="00:00:00.000" out="00:00:04.960"/>
  <entry producer="producer257" in="00:00:00.000" out="00:00:04.960"/>
  <entry producer="producer258" in="00:00:00.000" out="00:00:04.960"/>
  <entry producer="producer259" in="00:00:00.000" out="00:00:04.960"/>
  <entry producer="producer260" in="00:00:00.000" out="00:00:04.960"/>
  <entry producer="producer261" in="00:00:00.000" out="00:00:04.960"/>
  <entry producer="producer263" in="00:00:00.000" out="00:00:04.960"/>
  <entry producer="producer262" in="00:00:00.000" out="00:00:04.960"/>
  <entry producer="producer264" in="00:00:00.000" out="00:00:04.960"/>
  <entry producer="producer265" in="00:00:00.000" out="00:00:04.960"/>
  <entry producer="producer268" in="00:00:00.000" out="00:00:04.960"/>
  <entry producer="producer267" in="00:00:00.000" out="00:00:04.960"/>
  <entry producer="producer266" in="00:00:00.000" out="00:00:04.960"/>
  <entry producer="producer269" in="00:00:00.000" out="00:00:04.960"/>
  <entry producer="producer271" in="00:00:00.000" out="00:00:04.960"/>
  <entry producer="producer270" in="00:00:00.000" out="00:00:04.960"/>
  <entry producer="producer272" in="00:00:00.000" out="00:00:04.960"/>
  <entry producer="producer273" in="00:00:00.000" out="00:00:04.960"/>
  <entry producer="producer276" in="00:00:00.000" out="00:00:04.960"/>
  <entry producer="producer274" in="00:00:00.000" out="00:00:04.960"/>
  <entry producer="producer275" in="00:00:00.000" out="00:00:04.960"/>
  <entry producer="producer277" in="00:00:00.000" out="00:00:04.960"/>
  <entry producer="producer278" in="00:00:00.000" out="00:00:04.960"/>
  <entry producer="producer279" in="00:00:00.000" out="00:00:04.960"/>
  <entry producer="producer280" in="00:00:00.000" out="00:00:04.960"/>
  <entry producer="producer281" in="00:00:00.000" out="00:00:04.960"/>
  <entry producer="producer282" in="00:00:00.000" out="00:00:04.960"/>
  <entry producer="producer284" in="00:00:00.000" out="00:00:04.960"/>
  <entry producer="producer283" in="00:00:00.000" out="00:00:04.960"/>
  <entry producer="producer285" in="00:00:00.000" out="00:00:04.960"/>
  <entry producer="producer286" in="00:00:00.000" out="00:00:13.840"/>
  <entry producer="producer287" in="00:00:00.000" out="00:19:00.200"/>
  <entry producer="producer288" in="00:00:00.000" out="00:00:04.960"/>
  <entry producer="producer289" in="00:00:00.000" out="00:00:04.960"/>
  <entry producer="producer290" in="00:00:00.000" out="00:00:04.960"/>
  <entry producer="producer291" in="00:00:00.000" out="00:00:04.960"/>
  <entry producer="producer292" in="00:00:00.000" out="00:00:04.960"/>
  <entry producer="producer293" in="00:00:00.000" out="00:00:04.960"/>
  <entry producer="producer294" in="00:00:00.000" out="00:00:04.960"/>
  <entry producer="producer295" in="00:00:00.000" out="00:00:04.960"/>
  <entry producer="producer296" in="00:00:00.000" out="00:00:04.960"/>
  <entry producer="producer297" in="00:00:00.000" out="00:00:04.960"/>
  <entry producer="producer298" in="00:00:00.000" out="00:00:04.960"/>
  <entry producer="producer299" in="00:00:00.000" out="00:00:04.960"/>
  <entry producer="producer300" in="00:00:00.000" out="00:00:04.960"/>
  <entry producer="producer301" in="00:00:00.000" out="00:00:04.960"/>
  <entry producer="producer302" in="00:00:00.000" out="00:00:04.960"/>
  <entry producer="producer303" in="00:00:00.000" out="00:00:04.960"/>
  <entry producer="producer304" in="00:00:00.000" out="00:00:04.960"/>
  <entry producer="producer305" in="00:00:00.000" out="00:00:04.960"/>
  <entry producer="producer306" in="00:00:00.000" out="00:00:04.960"/>
  <entry producer="producer307" in="00:00:00.000" out="00:00:04.960"/>
 </playlist>
 <producer id="black_track" in="00:00:00.000" out="00:38:56.520">
  <property name="length">2147483647</property>
  <property name="eof">continue</property>
  <property name="resource">black</property>
  <property name="aspect_ratio">1</property>
  <property name="mlt_service">color</property>
  <property name="mlt_image_format">rgba</property>
  <property name="set.test_audio">0</property>
 </producer>
 <producer id="producer308" in="00:00:00.000" out="00:01:32.200">
  <property name="length">2306</property>
  <property name="eof">pause</property>
  <property name="resource">/home/liquidzulu/Music/The Mini Vandals/In Memory of Jean Talon - The Mini Vandals.mp3</property>
  <property name="audio_index">0</property>
  <property name="video_index">-1</property>
  <property name="mute_on_pause">0</property>
  <property name="mlt_service">avformat-novalidate</property>
  <property name="meta.media.nb_streams">1</property>
  <property name="meta.media.0.stream.type">audio</property>
  <property name="meta.media.0.codec.sample_fmt">fltp</property>
  <property name="meta.media.0.codec.sample_rate">44100</property>
  <property name="meta.media.0.codec.channels">2</property>
  <property name="meta.media.0.codec.name">mp3float</property>
  <property name="meta.media.0.codec.long_name">MP3 (MPEG audio layer 3)</property>
  <property name="meta.media.0.codec.bit_rate">320000</property>
  <property name="meta.attr.0.stream.encoder.markup">Lavf</property>
  <property name="meta.attr.encoder.markup">Google</property>
  <property name="seekable">1</property>
  <property name="kdenlive:clipname"/>
  <property name="kdenlive:clip_type">1</property>
  <property name="kdenlive:folderid">-1</property>
  <property name="kdenlive:id">3</property>
  <property name="kdenlive:file_size">3690616</property>
  <property name="kdenlive:file_hash">df84791d461281a3def6977dac75974d</property>
  <property name="xml">was here</property>
  <property name="set.test_audio">0</property>
  <property name="set.test_image">1</property>
 </producer>
 <producer id="producer309" in="00:00:00.000" out="00:00:01.240">
  <property name="length">32</property>
  <property name="eof">pause</property>
  <property name="resource">/home/liquidzulu/Documents/youtube-scripts/courses/libertarian-ethics/audio/proc/Audio/defensive-force-and-proportionality.contradicts-himself.proc.mp3</property>
  <property name="audio_index">0</property>
  <property name="video_index">-1</property>
  <property name="mute_on_pause">0</property>
  <property name="mlt_service">avformat-novalidate</property>
  <property name="meta.media.nb_streams">1</property>
  <property name="meta.media.0.stream.type">audio</property>
  <property name="meta.media.0.codec.sample_fmt">fltp</property>
  <property name="meta.media.0.codec.sample_rate">44100</property>
  <property name="meta.media.0.codec.channels">2</property>
  <property name="meta.media.0.codec.name">mp3float</property>
  <property name="meta.media.0.codec.long_name">MP3 (MPEG audio layer 3)</property>
  <property name="meta.media.0.codec.bit_rate">192000</property>
  <property name="meta.attr.encoded_by.markup">LAME in FL Studio 21</property>
  <property name="meta.attr.date.markup">2023</property>
  <property name="seekable">1</property>
  <property name="kdenlive:clipname"/>
  <property name="kdenlive:clip_type">1</property>
  <property name="kdenlive:folderid">-1</property>
  <property name="kdenlive:id">40</property>
  <property name="kdenlive:file_size">30776</property>
  <property name="kdenlive:file_hash">df192ebd21d406488256c6e504bfb685</property>
  <property name="kdenlive:audio_max0">177</property>
  <property name="xml">was here</property>
  <property name="set.test_audio">0</property>
  <property name="set.test_image">1</property>
 </producer>
 <playlist id="playlist0">
  <property name="kdenlive:audio_track">1</property>
  <entry producer="producer308" in="00:00:00.000" out="00:00:14.560">
   <property name="kdenlive:id">3</property>
   <filter id="filter0" in="00:00:09.480" out="00:00:14.560">
    <property name="window">75</property>
    <property name="max_gain">20dB</property>
    <property name="mlt_service">volume</property>
    <property name="kdenlive_id">fadeout</property>
    <property name="gain">1</property>
    <property name="end">0</property>
    <property name="kdenlive:collapsed">0</property>
   </filter>
   <filter id="filter1">
    <property name="window">75</property>
    <property name="max_gain">20dB</property>
    <property name="level">00:00:00.000=-9</property>
    <property name="mlt_service">volume</property>
    <property name="kdenlive_id">volume</property>
    <property name="kdenlive:collapsed">0</property>
   </filter>
   <filter id="filter2" out="00:00:01.400">
    <property name="window">75</property>
    <property name="max_gain">20dB</property>
    <property name="mlt_service">volume</property>
    <property name="kdenlive_id">fadein</property>
    <property name="gain">0</property>
    <property name="end">1</property>
    <property name="kdenlive:collapsed">0</property>
   </filter>
  </entry>
  <blank length="00:03:09.320"/>
  <entry producer="producer309" in="00:00:00.000" out="00:00:01.240">
   <property name="kdenlive:id">40</property>
   <filter id="filter3" out="00:00:00.040">
    <property name="window">75</property>
    <property name="max_gain">20dB</property>
    <property name="mlt_service">volume</property>
    <property name="kdenlive_id">fadein</property>
    <property name="gain">0</property>
    <property name="end">1</property>
   </filter>
  </entry>
 </playlist>
 <playlist id="playlist1">
  <property name="kdenlive:audio_track">1</property>
 </playlist>
 <tractor id="tractor0" in="00:00:00.000" out="00:03:25.160">
  <property name="kdenlive:audio_track">1</property>
  <property name="kdenlive:trackheight">67</property>
  <property name="kdenlive:timeline_active">1</property>
  <property name="kdenlive:collapsed">0</property>
  <property name="kdenlive:thumbs_format"/>
  <property name="kdenlive:audio_rec"/>
  <track hide="video" producer="playlist0"/>
  <track hide="video" producer="playlist1"/>
  <filter id="filter4">
   <property name="window">75</property>
   <property name="max_gain">20dB</property>
   <property name="mlt_service">volume</property>
   <property name="internal_added">237</property>
   <property name="disable">1</property>
  </filter>
  <filter id="filter5">
   <property name="channel">-1</property>
   <property name="mlt_service">panner</property>
   <property name="internal_added">237</property>
   <property name="start">0.5</property>
   <property name="disable">1</property>
  </filter>
  <filter id="filter6">
   <property name="iec_scale">0</property>
   <property name="mlt_service">audiolevel</property>
   <property name="disable">1</property>
  </filter>
 </tractor>
 <producer id="producer310" in="00:00:00.000" out="00:00:27.040">
  <property name="length">677</property>
  <property name="eof">pause</property>
  <property name="resource">/home/liquidzulu/Documents/youtube-scripts/courses/libertarian-ethics/audio/proc/Audio/titles.proc.mp3</property>
  <property name="audio_index">0</property>
  <property name="video_index">-1</property>
  <property name="mute_on_pause">0</property>
  <property name="mlt_service">avformat-novalidate</property>
  <property name="meta.media.nb_streams">1</property>
  <property name="meta.media.0.stream.type">audio</property>
  <property name="meta.media.0.codec.sample_fmt">fltp</property>
  <property name="meta.media.0.codec.sample_rate">44100</property>
  <property name="meta.media.0.codec.channels">2</property>
  <property name="meta.media.0.codec.name">mp3float</property>
  <property name="meta.media.0.codec.long_name">MP3 (MPEG audio layer 3)</property>
  <property name="meta.media.0.codec.bit_rate">192000</property>
  <property name="meta.attr.encoded_by.markup">LAME in FL Studio 21</property>
  <property name="meta.attr.date.markup">2023</property>
  <property name="seekable">1</property>
  <property name="kdenlive:clipname"/>
  <property name="kdenlive:clip_type">1</property>
  <property name="kdenlive:folderid">-1</property>
  <property name="kdenlive:id">2</property>
  <property name="kdenlive:file_size">650191</property>
  <property name="kdenlive:file_hash">92444ccf553bde8b33231fe6f867b916</property>
  <property name="kdenlive:audio_max0">177</property>
  <property name="xml">was here</property>
  <property name="set.test_audio">0</property>
  <property name="set.test_image">1</property>
 </producer>
 <producer id="producer311" in="00:00:00.000" out="00:18:26.520">
  <property name="length">27664</property>
  <property name="eof">pause</property>
  <property name="resource">/home/liquidzulu/Documents/youtube-scripts/courses/libertarian-ethics/audio/proc/Audio/defensive-force-and-proportionality.proc.mp3</property>
  <property name="audio_index">0</property>
  <property name="video_index">-1</property>
  <property name="mute_on_pause">0</property>
  <property name="mlt_service">avformat-novalidate</property>
  <property name="meta.media.nb_streams">1</property>
  <property name="meta.media.0.stream.type">audio</property>
  <property name="meta.media.0.codec.sample_fmt">fltp</property>
  <property name="meta.media.0.codec.sample_rate">44100</property>
  <property name="meta.media.0.codec.channels">2</property>
  <property name="meta.media.0.codec.name">mp3float</property>
  <property name="meta.media.0.codec.long_name">MP3 (MPEG audio layer 3)</property>
  <property name="meta.media.0.codec.bit_rate">192000</property>
  <property name="meta.attr.encoded_by.markup">LAME in FL Studio 21</property>
  <property name="meta.attr.date.markup">2023</property>
  <property name="seekable">1</property>
  <property name="kdenlive:clipname"/>
  <property name="kdenlive:clip_type">1</property>
  <property name="kdenlive:folderid">-1</property>
  <property name="kdenlive:id">5</property>
  <property name="kdenlive:file_size">26557809</property>
  <property name="kdenlive:file_hash">94b277259d25c1ba320358f7ad1b3de6</property>
  <property name="kdenlive:audio_max0">207</property>
  <property name="xml">was here</property>
  <property name="set.test_audio">0</property>
  <property name="set.test_image">1</property>
 </producer>
 <producer id="producer312" in="00:00:00.000" out="00:01:32.200">
  <property name="length">2306</property>
  <property name="eof">pause</property>
  <property name="resource">/home/liquidzulu/Music/The Mini Vandals/In Memory of Jean Talon - The Mini Vandals.mp3</property>
  <property name="audio_index">0</property>
  <property name="video_index">-1</property>
  <property name="mute_on_pause">0</property>
  <property name="mlt_service">avformat-novalidate</property>
  <property name="meta.media.nb_streams">1</property>
  <property name="meta.media.0.stream.type">audio</property>
  <property name="meta.media.0.codec.sample_fmt">fltp</property>
  <property name="meta.media.0.codec.sample_rate">44100</property>
  <property name="meta.media.0.codec.channels">2</property>
  <property name="meta.media.0.codec.name">mp3float</property>
  <property name="meta.media.0.codec.long_name">MP3 (MPEG audio layer 3)</property>
  <property name="meta.media.0.codec.bit_rate">320000</property>
  <property name="meta.attr.0.stream.encoder.markup">Lavf</property>
  <property name="meta.attr.encoder.markup">Google</property>
  <property name="seekable">1</property>
  <property name="kdenlive:clipname"/>
  <property name="kdenlive:clip_type">1</property>
  <property name="kdenlive:folderid">-1</property>
  <property name="kdenlive:id">3</property>
  <property name="kdenlive:file_size">3690616</property>
  <property name="kdenlive:file_hash">df84791d461281a3def6977dac75974d</property>
  <property name="kdenlive:audio_max0">201</property>
  <property name="xml">was here</property>
  <property name="set.test_audio">0</property>
  <property name="set.test_image">1</property>
 </producer>
 <playlist id="playlist2">
  <property name="kdenlive:audio_track">1</property>
  <blank length="00:00:14.200"/>
  <entry producer="producer310" in="00:00:14.240" out="00:00:16.680">
   <property name="kdenlive:id">2</property>
  </entry>
  <blank length="00:00:01.080"/>
  <entry producer="producer311" in="00:00:00.000" out="00:03:06.120">
   <property name="kdenlive:id">5</property>
   <filter id="filter7" out="00:00:00.160">
    <property name="window">75</property>
    <property name="max_gain">20dB</property>
    <property name="mlt_service">volume</property>
    <property name="kdenlive_id">fadein</property>
    <property name="gain">0</property>
    <property name="end">1</property>
    <property name="kdenlive:collapsed">0</property>
   </filter>
  </entry>
  <blank length="00:00:01.000"/>
  <entry producer="producer311" in="00:03:06.160" out="00:16:32.120">
   <property name="kdenlive:id">5</property>
   <filter id="filter8" in="00:03:06.160" out="00:03:06.200">
    <property name="window">75</property>
    <property name="max_gain">20dB</property>
    <property name="mlt_service">volume</property>
    <property name="kdenlive_id">fadein</property>
    <property name="gain">0</property>
    <property name="end">1</property>
   </filter>
  </entry>
  <entry producer="producer311" in="00:16:36.040" out="00:18:26.520">
   <property name="kdenlive:id">5</property>
   <filter id="filter9" in="00:16:36.040" out="00:16:36.200">
    <property name="window">75</property>
    <property name="max_gain">20dB</property>
    <property name="mlt_service">volume</property>
    <property name="kdenlive_id">fadein</property>
    <property name="gain">0</property>
    <property name="end">1</property>
    <property name="kdenlive:collapsed">0</property>
   </filter>
  </entry>
  <blank length="00:00:00.480"/>
  <entry producer="producer312" in="00:00:00.000" out="00:00:14.560">
   <property name="kdenlive:id">3</property>
   <filter id="filter10" in="00:00:09.480" out="00:00:14.560">
    <property name="window">75</property>
    <property name="max_gain">20dB</property>
    <property name="mlt_service">volume</property>
    <property name="kdenlive_id">fadeout</property>
    <property name="gain">1</property>
    <property name="end">0</property>
    <property name="kdenlive:collapsed">0</property>
   </filter>
   <filter id="filter11">
    <property name="window">75</property>
    <property name="max_gain">20dB</property>
    <property name="level">00:00:00.000=-9</property>
    <property name="mlt_service">volume</property>
    <property name="kdenlive_id">volume</property>
    <property name="kdenlive:collapsed">0</property>
   </filter>
   <filter id="filter12" out="00:00:01.400">
    <property name="window">75</property>
    <property name="max_gain">20dB</property>
    <property name="mlt_service">volume</property>
    <property name="kdenlive_id">fadein</property>
    <property name="gain">0</property>
    <property name="end">1</property>
    <property name="kdenlive:collapsed">0</property>
   </filter>
  </entry>
 </playlist>
 <playlist id="playlist3">
  <property name="kdenlive:audio_track">1</property>
 </playlist>
 <tractor id="tractor1" in="00:00:00.000" out="00:18:56.480">
  <property name="kdenlive:audio_track">1</property>
  <property name="kdenlive:trackheight">67</property>
  <property name="kdenlive:timeline_active">1</property>
  <property name="kdenlive:collapsed">0</property>
  <property name="kdenlive:thumbs_format"/>
  <property name="kdenlive:audio_rec"/>
  <track hide="video" producer="playlist2"/>
  <track hide="video" producer="playlist3"/>
  <filter id="filter13">
   <property name="window">75</property>
   <property name="max_gain">20dB</property>
   <property name="mlt_service">volume</property>
   <property name="internal_added">237</property>
   <property name="disable">1</property>
  </filter>
  <filter id="filter14">
   <property name="channel">-1</property>
   <property name="mlt_service">panner</property>
   <property name="internal_added">237</property>
   <property name="start">0.5</property>
   <property name="disable">1</property>
  </filter>
  <filter id="filter15">
   <property name="iec_scale">0</property>
   <property name="mlt_service">audiolevel</property>
   <property name="disable">1</property>
  </filter>
 </tractor>
 <playlist id="playlist4">
  <entry producer="producer51" in="00:00:00.000" out="00:00:12.640">
   <property name="kdenlive:id">4</property>
   <filter id="filter16" in="00:00:10.960" out="00:00:12.640">
    <property name="start">1</property>
    <property name="level">1</property>
    <property name="mlt_service">brightness</property>
    <property name="kdenlive_id">fade_to_black</property>
    <property name="alpha">00:00:00.000=1;00:00:01.680=0</property>
    <property name="kdenlive:collapsed">0</property>
   </filter>
   <filter id="filter17" out="00:00:00.480">
    <property name="start">1</property>
    <property name="level">1</property>
    <property name="mlt_service">brightness</property>
    <property name="kdenlive_id">fade_from_black</property>
    <property name="alpha">00:00:00.000=0;00:00:00.480=1</property>
    <property name="kdenlive:collapsed">0</property>
   </filter>
  </entry>
  <blank length="00:00:01.120"/>
  <entry producer="producer5" in="00:00:00.000" out="00:00:03.440">
   <property name="kdenlive:id">6</property>
   <filter id="filter18" out="00:00:00.800">
    <property name="start">1</property>
    <property name="level">1</property>
    <property name="mlt_service">brightness</property>
    <property name="kdenlive_id">fade_from_black</property>
    <property name="alpha">00:00:00.000=0;00:00:00.800=1</property>
    <property name="kdenlive:collapsed">0</property>
   </filter>
   <filter id="filter19" in="00:00:02.600" out="00:00:03.440">
    <property name="start">1</property>
    <property name="level">1</property>
    <property name="mlt_service">brightness</property>
    <property name="kdenlive_id">fade_to_black</property>
    <property name="alpha">00:00:00.000=1;00:00:00.840=0</property>
    <property name="kdenlive:collapsed">0</property>
   </filter>
  </entry>
  <blank length="00:00:00.160"/>
  <entry producer="producer3" in="00:00:00.000" out="00:00:25.560">
   <property name="kdenlive:id">7</property>
   <filter id="filter20" out="00:00:01.080">
    <property name="start">1</property>
    <property name="level">1</property>
    <property name="mlt_service">brightness</property>
    <property name="kdenlive_id">fade_from_black</property>
    <property name="alpha">00:00:00.000=0;00:00:01.080=1</property>
   </filter>
   <filter id="filter21" in="00:00:25.120" out="00:00:25.560">
    <property name="start">1</property>
    <property name="level">1</property>
    <property name="mlt_service">brightness</property>
    <property name="kdenlive_id">fade_to_black</property>
    <property name="alpha">00:00:00.000=1;00:00:00.440=0</property>
   </filter>
  </entry>
  <blank length="00:00:00.120"/>
  <entry producer="producer4" in="00:00:00.000" out="00:00:10.880">
   <property name="kdenlive:id">8</property>
   <filter id="filter22" out="00:00:00.600">
    <property name="start">1</property>
    <property name="level">1</property>
    <property name="mlt_service">brightness</property>
    <property name="kdenlive_id">fade_from_black</property>
    <property name="alpha">00:00:00.000=0;00:00:00.600=1</property>
   </filter>
  </entry>
  <entry producer="producer2" in="00:00:00.000" out="00:00:18.400">
   <property name="kdenlive:id">9</property>
  </entry>
  <entry producer="producer9" in="00:00:00.000" out="00:00:17.200">
   <property name="kdenlive:id">10</property>
  </entry>
  <entry producer="producer7" in="00:00:00.000" out="00:01:24.760">
   <property name="kdenlive:id">12</property>
  </entry>
  <entry producer="producer8" in="00:00:00.000" out="00:00:08.320">
   <property name="kdenlive:id">13</property>
  </entry>
  <entry producer="producer11" in="00:00:00.000" out="00:00:15.880">
   <property name="kdenlive:id">14</property>
  </entry>
  <entry producer="producer35" in="00:00:00.000" out="00:00:20.800">
   <property name="kdenlive:id">15</property>
  </entry>
  <entry producer="producer12" in="00:00:00.000" out="00:01:13.280">
   <property name="kdenlive:id">17</property>
  </entry>
  <entry producer="producer15" in="00:00:00.000" out="00:00:03.120">
   <property name="kdenlive:id">18</property>
  </entry>
  <entry producer="producer13" in="00:00:00.000" out="00:00:16.800">
   <property name="kdenlive:id">19</property>
  </entry>
  <entry producer="producer14" in="00:00:00.000" out="00:00:19.000">
   <property name="kdenlive:id">20</property>
  </entry>
  <entry producer="producer17" in="00:00:00.000" out="00:00:38.000">
   <property name="kdenlive:id">22</property>
  </entry>
  <entry producer="producer36" in="00:00:00.000" out="00:00:07.960">
   <property name="kdenlive:id">23</property>
  </entry>
  <entry producer="producer18" in="00:00:00.000" out="00:00:15.040">
   <property name="kdenlive:id">24</property>
  </entry>
  <entry producer="producer19" in="00:00:00.000" out="00:00:16.920">
   <property name="kdenlive:id">25</property>
  </entry>
  <entry producer="producer20" in="00:00:00.000" out="00:00:43.280">
   <property name="kdenlive:id">26</property>
  </entry>
  <entry producer="producer21" in="00:00:00.000" out="00:03:12.280">
   <property name="kdenlive:id">27</property>
  </entry>
  <entry producer="producer22" in="00:00:00.000" out="00:00:18.200">
   <property name="kdenlive:id">28</property>
  </entry>
  <entry producer="producer23" in="00:00:00.000" out="00:01:08.480">
   <property name="kdenlive:id">29</property>
  </entry>
  <entry producer="producer24" in="00:00:00.000" out="00:00:06.440">
   <property name="kdenlive:id">30</property>
  </entry>
  <entry producer="producer25" in="00:00:00.000" out="00:03:40.080">
   <property name="kdenlive:id">31</property>
  </entry>
  <entry producer="producer26" in="00:00:00.000" out="00:00:16.000">
   <property name="kdenlive:id">32</property>
  </entry>
  <entry producer="producer27" in="00:00:00.000" out="00:00:16.520">
   <property name="kdenlive:id">33</property>
  </entry>
  <entry producer="producer29" in="00:00:00.000" out="00:00:22.880">
   <property name="kdenlive:id">34</property>
  </entry>
  <entry producer="producer28" in="00:00:00.000" out="00:00:34.160">
   <property name="kdenlive:id">35</property>
  </entry>
  <entry producer="producer30" in="00:00:00.000" out="00:00:14.920">
   <property name="kdenlive:id">36</property>
  </entry>
  <entry producer="producer31" in="00:00:00.000" out="00:00:11.400">
   <property name="kdenlive:id">37</property>
  </entry>
  <entry producer="producer32" in="00:00:00.000" out="00:00:47.000">
   <property name="kdenlive:id">38</property>
   <filter id="filter23" in="00:00:45.640" out="00:00:47.000">
    <property name="start">1</property>
    <property name="level">1</property>
    <property name="mlt_service">brightness</property>
    <property name="kdenlive_id">fade_to_black</property>
    <property name="alpha">0=1;-1=0</property>
    <property name="kdenlive:collapsed">0</property>
   </filter>
  </entry>
  <blank length="00:00:00.400"/>
  <entry producer="producer33" in="00:00:00.000" out="00:00:12.880">
   <property name="kdenlive:id">39</property>
   <filter id="filter24" out="00:00:01.160">
    <property name="start">1</property>
    <property name="level">1</property>
    <property name="mlt_service">brightness</property>
    <property name="kdenlive_id">fade_from_black</property>
    <property name="alpha">0=0;-1=1</property>
    <property name="kdenlive:collapsed">0</property>
   </filter>
   <filter id="filter25" in="00:00:11.200" out="00:00:12.880">
    <property name="start">1</property>
    <property name="level">1</property>
    <property name="mlt_service">brightness</property>
    <property name="kdenlive_id">fade_to_black</property>
    <property name="alpha">0=1;-1=0</property>
    <property name="kdenlive:collapsed">0</property>
   </filter>
  </entry>
 </playlist>
 <playlist id="playlist5"/>
 <tractor id="tractor2" in="00:00:00.000" out="00:18:55.560">
  <property name="kdenlive:trackheight">67</property>
  <property name="kdenlive:timeline_active">1</property>
  <property name="kdenlive:collapsed">0</property>
  <property name="kdenlive:thumbs_format"/>
  <property name="kdenlive:audio_rec"/>
  <track hide="audio" producer="playlist4"/>
  <track hide="audio" producer="playlist5"/>
 </tractor>
 <playlist id="playlist6">
  <blank length="00:00:43.600"/>
  <entry producer="producer57" in="00:00:00.000" out="00:00:04.520">
   <property name="kdenlive:id">61</property>
  </entry>
  <entry producer="producer68" in="00:00:00.000" out="00:00:01.520">
   <property name="kdenlive:id">72</property>
  </entry>
  <entry producer="producer79" in="00:00:00.000" out="00:00:04.320">
   <property name="kdenlive:id">83</property>
  </entry>
  <blank length="00:00:35.680"/>
  <entry producer="producer221" in="00:00:00.000" out="00:00:02.720">
   <property name="kdenlive:id">220</property>
  </entry>
  <entry producer="producer224" in="00:00:00.000" out="00:00:02.800">
   <property name="kdenlive:id">228</property>
  </entry>
  <entry producer="producer232" in="00:00:00.000" out="00:00:04.480">
   <property name="kdenlive:id">236</property>
  </entry>
  <entry producer="producer237" in="00:00:00.000" out="00:00:02.640">
   <property name="kdenlive:id">241</property>
  </entry>
  <entry producer="producer238" in="00:00:00.000" out="00:00:03.320">
   <property name="kdenlive:id">242</property>
  </entry>
  <entry producer="producer240" in="00:00:00.000" out="00:00:03.720">
   <property name="kdenlive:id">243</property>
  </entry>
  <entry producer="producer239" in="00:00:00.000" out="00:00:03.520">
   <property name="kdenlive:id">244</property>
  </entry>
  <entry producer="producer241" in="00:00:00.000" out="00:00:02.560">
   <property name="kdenlive:id">245</property>
  </entry>
  <entry producer="producer242" in="00:00:00.000" out="00:00:04.280">
   <property name="kdenlive:id">246</property>
  </entry>
  <entry producer="producer243" in="00:00:00.000" out="00:00:03.760">
   <property name="kdenlive:id">247</property>
  </entry>
  <entry producer="producer244" in="00:00:00.000" out="00:00:02.960">
   <property name="kdenlive:id">248</property>
  </entry>
  <entry producer="producer245" in="00:00:00.000" out="00:00:02.520">
   <property name="kdenlive:id">249</property>
  </entry>
  <entry producer="producer246" in="00:00:00.000" out="00:00:03.720">
   <property name="kdenlive:id">250</property>
  </entry>
  <entry producer="producer247" in="00:00:00.000" out="00:00:02.200">
   <property name="kdenlive:id">251</property>
  </entry>
  <entry producer="producer248" in="00:00:00.000" out="00:00:03.960">
   <property name="kdenlive:id">252</property>
  </entry>
  <entry producer="producer249" in="00:00:00.000" out="00:00:04.120">
   <property name="kdenlive:id">253</property>
  </entry>
  <entry producer="producer250" in="00:00:00.000" out="00:00:03.400">
   <property name="kdenlive:id">254</property>
  </entry>
  <entry producer="producer253" in="00:00:00.000" out="00:00:03.200">
   <property name="kdenlive:id">255</property>
  </entry>
  <entry producer="producer252" in="00:00:00.000" out="00:00:04.840">
   <property name="kdenlive:id">256</property>
  </entry>
  <entry producer="producer251" in="00:00:00.000" out="00:00:03.400">
   <property name="kdenlive:id">257</property>
  </entry>
  <entry producer="producer254" in="00:00:00.000" out="00:00:04.040">
   <property name="kdenlive:id">258</property>
  </entry>
  <entry producer="producer255" in="00:00:00.000" out="00:00:05.360">
   <property name="kdenlive:id">259</property>
  </entry>
  <entry producer="producer256" in="00:00:00.000" out="00:00:03.000">
   <property name="kdenlive:id">260</property>
  </entry>
  <entry producer="producer257" in="00:00:00.000" out="00:00:03.320">
   <property name="kdenlive:id">261</property>
  </entry>
  <blank length="00:00:45.120"/>
  <entry producer="producer258" in="00:00:00.000" out="00:00:02.880">
   <property name="kdenlive:id">262</property>
  </entry>
  <entry producer="producer259" in="00:00:00.000" out="00:00:02.800">
   <property name="kdenlive:id">263</property>
  </entry>
  <entry producer="producer260" in="00:00:00.000" out="00:00:02.640">
   <property name="kdenlive:id">264</property>
  </entry>
  <entry producer="producer261" in="00:00:00.000" out="00:00:04.200">
   <property name="kdenlive:id">265</property>
  </entry>
  <entry producer="producer263" in="00:00:00.000" out="00:00:04.600">
   <property name="kdenlive:id">266</property>
  </entry>
  <entry producer="producer262" in="00:00:00.000" out="00:00:02.640">
   <property name="kdenlive:id">267</property>
  </entry>
  <entry producer="producer264" in="00:00:00.000" out="00:00:03.520">
   <property name="kdenlive:id">268</property>
  </entry>
  <entry producer="producer265" in="00:00:00.000" out="00:00:03.720">
   <property name="kdenlive:id">269</property>
  </entry>
  <entry producer="producer268" in="00:00:00.000" out="00:00:02.920">
   <property name="kdenlive:id">270</property>
  </entry>
  <entry producer="producer267" in="00:00:00.000" out="00:00:02.520">
   <property name="kdenlive:id">271</property>
  </entry>
  <entry producer="producer266" in="00:00:00.000" out="00:00:01.880">
   <property name="kdenlive:id">272</property>
  </entry>
  <entry producer="producer269" in="00:00:00.000" out="00:00:03.760">
   <property name="kdenlive:id">273</property>
  </entry>
  <entry producer="producer271" in="00:00:00.000" out="00:00:02.720">
   <property name="kdenlive:id">274</property>
  </entry>
  <entry producer="producer270" in="00:00:00.000" out="00:00:02.280">
   <property name="kdenlive:id">275</property>
  </entry>
  <entry producer="producer272" in="00:00:00.000" out="00:00:03.760">
   <property name="kdenlive:id">276</property>
  </entry>
  <entry producer="producer273" in="00:00:00.000" out="00:00:04.080">
   <property name="kdenlive:id">277</property>
  </entry>
  <entry producer="producer276" in="00:00:00.000" out="00:00:04.240">
   <property name="kdenlive:id">278</property>
  </entry>
  <entry producer="producer274" in="00:00:00.000" out="00:00:04.280">
   <property name="kdenlive:id">279</property>
  </entry>
  <entry producer="producer275" in="00:00:00.000" out="00:00:02.240">
   <property name="kdenlive:id">280</property>
  </entry>
  <entry producer="producer277" in="00:00:00.000" out="00:00:03.520">
   <property name="kdenlive:id">281</property>
  </entry>
  <entry producer="producer278" in="00:00:00.000" out="00:00:03.040">
   <property name="kdenlive:id">282</property>
  </entry>
  <entry producer="producer279" in="00:00:00.000" out="00:00:04.200">
   <property name="kdenlive:id">283</property>
  </entry>
  <entry producer="producer280" in="00:00:00.000" out="00:00:03.120">
   <property name="kdenlive:id">284</property>
  </entry>
  <entry producer="producer281" in="00:00:00.000" out="00:00:04.000">
   <property name="kdenlive:id">285</property>
  </entry>
  <entry producer="producer282" in="00:00:00.000" out="00:00:03.280">
   <property name="kdenlive:id">286</property>
  </entry>
  <entry producer="producer284" in="00:00:00.000" out="00:00:03.440">
   <property name="kdenlive:id">287</property>
  </entry>
  <entry producer="producer283" in="00:00:00.000" out="00:00:03.160">
   <property name="kdenlive:id">288</property>
  </entry>
  <entry producer="producer285" in="00:00:00.000" out="00:00:02.760">
   <property name="kdenlive:id">289</property>
  </entry>
  <blank length="00:00:19.040"/>
  <entry producer="producer37" in="00:00:00.000" out="00:00:03.600">
   <property name="kdenlive:id">42</property>
  </entry>
  <entry producer="producer39" in="00:00:00.000" out="00:00:01.760">
   <property name="kdenlive:id">43</property>
  </entry>
  <entry producer="producer40" in="00:00:00.000" out="00:00:03.960">
   <property name="kdenlive:id">44</property>
  </entry>
  <entry producer="producer38" in="00:00:00.000" out="00:00:03.600">
   <property name="kdenlive:id">45</property>
  </entry>
  <entry producer="producer41" in="00:00:00.000" out="00:00:03.840">
   <property name="kdenlive:id">46</property>
  </entry>
  <entry producer="producer42" in="00:00:00.000" out="00:00:03.240">
   <property name="kdenlive:id">47</property>
  </entry>
  <entry producer="producer43" in="00:00:00.000" out="00:00:04.240">
   <property name="kdenlive:id">48</property>
  </entry>
  <entry producer="producer44" in="00:00:00.000" out="00:00:03.240">
   <property name="kdenlive:id">49</property>
  </entry>
  <entry producer="producer45" in="00:00:00.000" out="00:00:03.600">
   <property name="kdenlive:id">50</property>
  </entry>
  <entry producer="producer46" in="00:00:00.000" out="00:00:03.280">
   <property name="kdenlive:id">51</property>
  </entry>
  <entry producer="producer47" in="00:00:00.000" out="00:00:03.240">
   <property name="kdenlive:id">52</property>
  </entry>
  <blank length="00:00:08.000"/>
  <entry producer="producer48" in="00:00:00.000" out="00:00:03.640">
   <property name="kdenlive:id">53</property>
  </entry>
  <entry producer="producer49" in="00:00:00.000" out="00:00:03.360">
   <property name="kdenlive:id">54</property>
  </entry>
  <entry producer="producer52" in="00:00:00.000" out="00:00:03.920">
   <property name="kdenlive:id">55</property>
  </entry>
  <entry producer="producer54" in="00:00:00.000" out="00:00:04.000">
   <property name="kdenlive:id">57</property>
  </entry>
  <entry producer="producer53" in="00:00:00.000" out="00:00:03.640">
   <property name="kdenlive:id">58</property>
  </entry>
  <entry producer="producer55" in="00:00:00.000" out="00:00:03.440">
   <property name="kdenlive:id">59</property>
  </entry>
  <entry producer="producer56" in="00:00:00.000" out="00:00:03.240">
   <property name="kdenlive:id">60</property>
  </entry>
  <entry producer="producer58" in="00:00:00.000" out="00:00:04.200">
   <property name="kdenlive:id">62</property>
  </entry>
  <entry producer="producer59" in="00:00:00.000" out="00:00:02.240">
   <property name="kdenlive:id">63</property>
  </entry>
  <entry producer="producer60" in="00:00:00.000" out="00:00:02.280">
   <property name="kdenlive:id">64</property>
  </entry>
  <entry producer="producer61" in="00:00:00.000" out="00:00:04.040">
   <property name="kdenlive:id">65</property>
  </entry>
  <entry producer="producer62" in="00:00:00.000" out="00:00:03.880">
   <property name="kdenlive:id">66</property>
  </entry>
  <entry producer="producer63" in="00:00:00.000" out="00:00:03.560">
   <property name="kdenlive:id">67</property>
  </entry>
  <entry producer="producer64" in="00:00:00.000" out="00:00:03.240">
   <property name="kdenlive:id">68</property>
  </entry>
  <entry producer="producer65" in="00:00:00.000" out="00:00:04.440">
   <property name="kdenlive:id">69</property>
  </entry>
  <entry producer="producer66" in="00:00:00.000" out="00:00:03.920">
   <property name="kdenlive:id">70</property>
  </entry>
  <entry producer="producer67" in="00:00:00.000" out="00:00:02.960">
   <property name="kdenlive:id">71</property>
  </entry>
  <entry producer="producer70" in="00:00:00.000" out="00:00:02.640">
   <property name="kdenlive:id">73</property>
  </entry>
  <entry producer="producer69" in="00:00:00.000" out="00:00:03.400">
   <property name="kdenlive:id">74</property>
  </entry>
  <entry producer="producer72" in="00:00:00.000" out="00:00:03.400">
   <property name="kdenlive:id">75</property>
  </entry>
  <entry producer="producer73" in="00:00:00.000" out="00:00:03.600">
   <property name="kdenlive:id">76</property>
  </entry>
  <entry producer="producer71" in="00:00:00.000" out="00:00:03.320">
   <property name="kdenlive:id">77</property>
  </entry>
  <entry producer="producer74" in="00:00:00.000" out="00:00:03.040">
   <property name="kdenlive:id">78</property>
  </entry>
  <entry producer="producer75" in="00:00:00.000" out="00:00:03.280">
   <property name="kdenlive:id">79</property>
  </entry>
  <entry producer="producer77" in="00:00:00.000" out="00:00:03.520">
   <property name="kdenlive:id">80</property>
  </entry>
  <entry producer="producer78" in="00:00:00.000" out="00:00:03.440">
   <property name="kdenlive:id">81</property>
  </entry>
  <entry producer="producer76" in="00:00:00.000" out="00:00:03.800">
   <property name="kdenlive:id">82</property>
  </entry>
  <entry producer="producer80" in="00:00:00.000" out="00:00:03.920">
   <property name="kdenlive:id">84</property>
  </entry>
  <entry producer="producer81" in="00:00:00.000" out="00:00:04.160">
   <property name="kdenlive:id">85</property>
  </entry>
  <entry producer="producer82" in="00:00:00.000" out="00:00:02.920">
   <property name="kdenlive:id">86</property>
  </entry>
  <entry producer="producer83" in="00:00:00.000" out="00:00:03.080">
   <property name="kdenlive:id">87</property>
  </entry>
  <entry producer="producer84" in="00:00:00.000" out="00:00:03.200">
   <property name="kdenlive:id">88</property>
  </entry>
  <entry producer="producer86" in="00:00:00.000" out="00:00:03.640">
   <property name="kdenlive:id">89</property>
  </entry>
  <entry producer="producer85" in="00:00:00.000" out="00:00:03.960">
   <property name="kdenlive:id">90</property>
  </entry>
  <entry producer="producer87" in="00:00:00.000" out="00:00:04.240">
   <property name="kdenlive:id">91</property>
  </entry>
  <entry producer="producer88" in="00:00:00.000" out="00:00:03.560">
   <property name="kdenlive:id">92</property>
  </entry>
  <entry producer="producer89" in="00:00:00.000" out="00:00:03.360">
   <property name="kdenlive:id">93</property>
  </entry>
  <entry producer="producer90" in="00:00:00.000" out="00:00:02.840">
   <property name="kdenlive:id">94</property>
  </entry>
  <entry producer="producer91" in="00:00:00.000" out="00:00:04.040">
   <property name="kdenlive:id">95</property>
  </entry>
  <entry producer="producer94" in="00:00:00.000" out="00:00:03.840">
   <property name="kdenlive:id">96</property>
  </entry>
  <entry producer="producer92" in="00:00:00.000" out="00:00:03.880">
   <property name="kdenlive:id">97</property>
  </entry>
  <entry producer="producer93" in="00:00:00.000" out="00:00:04.360">
   <property name="kdenlive:id">98</property>
  </entry>
  <entry producer="producer95" in="00:00:00.000" out="00:00:03.720">
   <property name="kdenlive:id">99</property>
  </entry>
  <entry producer="producer97" in="00:00:00.000" out="00:00:04.640">
   <property name="kdenlive:id">100</property>
  </entry>
  <entry producer="producer96" in="00:00:00.000" out="00:00:03.680">
   <property name="kdenlive:id">101</property>
  </entry>
  <entry producer="producer98" in="00:00:00.000" out="00:00:02.960">
   <property name="kdenlive:id">102</property>
  </entry>
  <entry producer="producer99" in="00:00:00.000" out="00:00:03.600">
   <property name="kdenlive:id">103</property>
  </entry>
  <entry producer="producer100" in="00:00:00.000" out="00:00:03.240">
   <property name="kdenlive:id">104</property>
  </entry>
  <entry producer="producer102" in="00:00:00.000" out="00:00:04.120">
   <property name="kdenlive:id">105</property>
  </entry>
  <entry producer="producer101" in="00:00:00.000" out="00:00:03.520">
   <property name="kdenlive:id">106</property>
  </entry>
  <entry producer="producer103" in="00:00:00.000" out="00:00:04.120">
   <property name="kdenlive:id">107</property>
  </entry>
  <entry producer="producer104" in="00:00:00.000" out="00:00:02.760">
   <property name="kdenlive:id">108</property>
  </entry>
  <entry producer="producer105" in="00:00:00.000" out="00:00:03.160">
   <property name="kdenlive:id">109</property>
  </entry>
  <entry producer="producer106" in="00:00:00.000" out="00:00:02.960">
   <property name="kdenlive:id">110</property>
  </entry>
  <entry producer="producer107" in="00:00:00.000" out="00:00:03.680">
   <property name="kdenlive:id">111</property>
  </entry>
  <entry producer="producer108" in="00:00:00.000" out="00:00:04.320">
   <property name="kdenlive:id">112</property>
  </entry>
  <entry producer="producer109" in="00:00:00.000" out="00:00:03.960">
   <property name="kdenlive:id">113</property>
  </entry>
  <entry producer="producer110" in="00:00:00.000" out="00:00:03.880">
   <property name="kdenlive:id">114</property>
  </entry>
  <entry producer="producer111" in="00:00:00.000" out="00:00:03.360">
   <property name="kdenlive:id">115</property>
  </entry>
  <entry producer="producer112" in="00:00:00.000" out="00:00:03.440">
   <property name="kdenlive:id">116</property>
  </entry>
  <entry producer="producer114" in="00:00:00.000" out="00:00:03.400">
   <property name="kdenlive:id">117</property>
  </entry>
  <entry producer="producer113" in="00:00:00.000" out="00:00:03.640">
   <property name="kdenlive:id">118</property>
  </entry>
  <entry producer="producer115" in="00:00:00.000" out="00:00:03.640">
   <property name="kdenlive:id">119</property>
  </entry>
  <entry producer="producer116" in="00:00:00.000" out="00:00:03.720">
   <property name="kdenlive:id">120</property>
  </entry>
  <entry producer="producer117" in="00:00:00.000" out="00:00:04.480">
   <property name="kdenlive:id">121</property>
  </entry>
  <entry producer="producer118" in="00:00:00.000" out="00:00:02.960">
   <property name="kdenlive:id">122</property>
  </entry>
  <entry producer="producer119" in="00:00:00.000" out="00:00:04.640">
   <property name="kdenlive:id">123</property>
  </entry>
  <entry producer="producer120" in="00:00:00.000" out="00:00:03.760">
   <property name="kdenlive:id">124</property>
  </entry>
  <entry producer="producer121" in="00:00:00.000" out="00:00:03.800">
   <property name="kdenlive:id">125</property>
  </entry>
  <entry producer="producer122" in="00:00:00.000" out="00:00:04.360">
   <property name="kdenlive:id">126</property>
  </entry>
  <entry producer="producer123" in="00:00:00.000" out="00:00:03.360">
   <property name="kdenlive:id">127</property>
  </entry>
  <entry producer="producer124" in="00:00:00.000" out="00:00:03.640">
   <property name="kdenlive:id">128</property>
  </entry>
  <entry producer="producer125" in="00:00:00.000" out="00:00:05.800">
   <property name="kdenlive:id">129</property>
  </entry>
  <entry producer="producer126" in="00:00:00.000" out="00:00:04.120">
   <property name="kdenlive:id">130</property>
  </entry>
  <entry producer="producer127" in="00:00:00.000" out="00:00:04.800">
   <property name="kdenlive:id">131</property>
  </entry>
  <entry producer="producer128" in="00:00:00.000" out="00:00:04.440">
   <property name="kdenlive:id">132</property>
  </entry>
  <entry producer="producer130" in="00:00:00.000" out="00:00:03.040">
   <property name="kdenlive:id">133</property>
  </entry>
  <entry producer="producer129" in="00:00:00.000" out="00:00:04.320">
   <property name="kdenlive:id">134</property>
  </entry>
  <entry producer="producer131" in="00:00:00.000" out="00:00:02.520">
   <property name="kdenlive:id">135</property>
  </entry>
  <entry producer="producer132" in="00:00:00.000" out="00:00:03.640">
   <property name="kdenlive:id">136</property>
  </entry>
  <entry producer="producer135" in="00:00:00.000" out="00:00:04.680">
   <property name="kdenlive:id">137</property>
  </entry>
  <entry producer="producer134" in="00:00:00.000" out="00:00:04.160">
   <property name="kdenlive:id">138</property>
  </entry>
  <entry producer="producer133" in="00:00:00.000" out="00:00:04.360">
   <property name="kdenlive:id">139</property>
  </entry>
  <entry producer="producer136" in="00:00:00.000" out="00:00:04.440">
   <property name="kdenlive:id">140</property>
  </entry>
  <entry producer="producer137" in="00:00:00.000" out="00:00:03.440">
   <property name="kdenlive:id">141</property>
  </entry>
  <entry producer="producer139" in="00:00:00.000" out="00:00:05.680">
   <property name="kdenlive:id">142</property>
  </entry>
  <entry producer="producer138" in="00:00:00.000" out="00:00:04.640">
   <property name="kdenlive:id">143</property>
  </entry>
  <entry producer="producer140" in="00:00:00.000" out="00:00:05.200">
   <property name="kdenlive:id">144</property>
  </entry>
  <entry producer="producer141" in="00:00:00.000" out="00:00:04.400">
   <property name="kdenlive:id">145</property>
  </entry>
  <entry producer="producer142" in="00:00:00.000" out="00:00:04.360">
   <property name="kdenlive:id">146</property>
  </entry>
  <entry producer="producer143" in="00:00:00.000" out="00:00:04.080">
   <property name="kdenlive:id">147</property>
  </entry>
  <entry producer="producer144" in="00:00:00.000" out="00:00:04.560">
   <property name="kdenlive:id">148</property>
  </entry>
  <entry producer="producer145" in="00:00:00.000" out="00:00:05.080">
   <property name="kdenlive:id">149</property>
  </entry>
  <entry producer="producer146" in="00:00:00.000" out="00:00:03.240">
   <property name="kdenlive:id">150</property>
  </entry>
  <entry producer="producer147" in="00:00:00.000" out="00:00:03.960">
   <property name="kdenlive:id">151</property>
  </entry>
  <entry producer="producer148" in="00:00:00.000" out="00:00:05.240">
   <property name="kdenlive:id">152</property>
  </entry>
  <entry producer="producer149" in="00:00:00.000" out="00:00:04.160">
   <property name="kdenlive:id">153</property>
  </entry>
  <entry producer="producer150" in="00:00:00.000" out="00:00:04.320">
   <property name="kdenlive:id">154</property>
  </entry>
  <entry producer="producer151" in="00:00:00.000" out="00:00:04.240">
   <property name="kdenlive:id">155</property>
  </entry>
  <entry producer="producer152" in="00:00:00.000" out="00:00:03.440">
   <property name="kdenlive:id">156</property>
  </entry>
  <entry producer="producer155" in="00:00:00.000" out="00:00:03.240">
   <property name="kdenlive:id">157</property>
  </entry>
  <entry producer="producer153" in="00:00:00.000" out="00:00:03.160">
   <property name="kdenlive:id">158</property>
  </entry>
  <entry producer="producer154" in="00:00:00.000" out="00:00:03.560">
   <property name="kdenlive:id">159</property>
  </entry>
  <entry producer="producer156" in="00:00:00.000" out="00:00:03.760">
   <property name="kdenlive:id">160</property>
  </entry>
  <entry producer="producer158" in="00:00:00.000" out="00:00:03.640">
   <property name="kdenlive:id">161</property>
  </entry>
  <entry producer="producer157" in="00:00:00.000" out="00:00:04.160">
   <property name="kdenlive:id">162</property>
  </entry>
  <entry producer="producer159" in="00:00:00.000" out="00:00:04.280">
   <property name="kdenlive:id">163</property>
  </entry>
  <entry producer="producer160" in="00:00:00.000" out="00:00:03.160">
   <property name="kdenlive:id">164</property>
  </entry>
  <entry producer="producer161" in="00:00:00.000" out="00:00:03.720">
   <property name="kdenlive:id">165</property>
  </entry>
  <entry producer="producer162" in="00:00:00.000" out="00:00:03.520">
   <property name="kdenlive:id">166</property>
  </entry>
  <entry producer="producer163" in="00:00:00.000" out="00:00:04.120">
   <property name="kdenlive:id">167</property>
  </entry>
  <entry producer="producer164" in="00:00:00.000" out="00:00:04.040">
   <property name="kdenlive:id">168</property>
  </entry>
  <entry producer="producer165" in="00:00:00.000" out="00:00:03.760">
   <property name="kdenlive:id">169</property>
  </entry>
  <entry producer="producer168" in="00:00:00.000" out="00:00:03.840">
   <property name="kdenlive:id">170</property>
  </entry>
  <entry producer="producer166" in="00:00:00.000" out="00:00:03.600">
   <property name="kdenlive:id">171</property>
  </entry>
  <entry producer="producer167" in="00:00:00.000" out="00:00:03.960">
   <property name="kdenlive:id">172</property>
  </entry>
  <entry producer="producer169" in="00:00:00.000" out="00:00:03.160">
   <property name="kdenlive:id">173</property>
  </entry>
  <entry producer="producer170" in="00:00:00.000" out="00:00:04.120">
   <property name="kdenlive:id">174</property>
  </entry>
  <entry producer="producer171" in="00:00:00.000" out="00:00:04.200">
   <property name="kdenlive:id">175</property>
  </entry>
  <entry producer="producer172" in="00:00:00.000" out="00:00:03.880">
   <property name="kdenlive:id">176</property>
  </entry>
  <entry producer="producer173" in="00:00:00.000" out="00:00:04.240">
   <property name="kdenlive:id">177</property>
  </entry>
  <entry producer="producer174" in="00:00:00.000" out="00:00:03.040">
   <property name="kdenlive:id">178</property>
  </entry>
  <entry producer="producer175" in="00:00:00.000" out="00:00:02.680">
   <property name="kdenlive:id">179</property>
  </entry>
  <entry producer="producer177" in="00:00:00.000" out="00:00:02.920">
   <property name="kdenlive:id">180</property>
  </entry>
  <entry producer="producer176" in="00:00:00.000" out="00:00:03.200">
   <property name="kdenlive:id">181</property>
  </entry>
  <entry producer="producer178" in="00:00:00.000" out="00:00:03.080">
   <property name="kdenlive:id">182</property>
  </entry>
  <entry producer="producer179" in="00:00:00.000" out="00:00:02.760">
   <property name="kdenlive:id">183</property>
  </entry>
  <entry producer="producer180" in="00:00:00.000" out="00:00:03.840">
   <property name="kdenlive:id">184</property>
  </entry>
  <entry producer="producer181" in="00:00:00.000" out="00:00:02.760">
   <property name="kdenlive:id">185</property>
  </entry>
  <entry producer="producer183" in="00:00:00.000" out="00:00:02.960">
   <property name="kdenlive:id">186</property>
  </entry>
  <entry producer="producer182" in="00:00:00.000" out="00:00:03.480">
   <property name="kdenlive:id">187</property>
  </entry>
  <entry producer="producer185" in="00:00:00.000" out="00:00:03.520">
   <property name="kdenlive:id">188</property>
  </entry>
  <entry producer="producer184" in="00:00:00.000" out="00:00:03.200">
   <property name="kdenlive:id">189</property>
  </entry>
  <entry producer="producer186" in="00:00:00.000" out="00:00:03.360">
   <property name="kdenlive:id">190</property>
  </entry>
  <entry producer="producer187" in="00:00:00.000" out="00:00:03.080">
   <property name="kdenlive:id">191</property>
  </entry>
  <entry producer="producer188" in="00:00:00.000" out="00:00:03.560">
   <property name="kdenlive:id">192</property>
  </entry>
  <entry producer="producer189" in="00:00:00.000" out="00:00:04.080">
   <property name="kdenlive:id">193</property>
  </entry>
  <entry producer="producer190" in="00:00:00.000" out="00:00:03.360">
   <property name="kdenlive:id">194</property>
  </entry>
  <entry producer="producer191" in="00:00:00.000" out="00:00:03.400">
   <property name="kdenlive:id">195</property>
  </entry>
  <entry producer="producer192" in="00:00:00.000" out="00:00:03.760">
   <property name="kdenlive:id">196</property>
  </entry>
  <entry producer="producer193" in="00:00:00.000" out="00:00:03.600">
   <property name="kdenlive:id">197</property>
  </entry>
  <entry producer="producer194" in="00:00:00.000" out="00:00:04.200">
   <property name="kdenlive:id">198</property>
  </entry>
  <entry producer="producer196" in="00:00:00.000" out="00:00:03.120">
   <property name="kdenlive:id">199</property>
  </entry>
  <entry producer="producer195" in="00:00:00.000" out="00:00:02.920">
   <property name="kdenlive:id">200</property>
  </entry>
  <entry producer="producer197" in="00:00:00.000" out="00:00:03.200">
   <property name="kdenlive:id">201</property>
  </entry>
  <entry producer="producer198" in="00:00:00.000" out="00:00:04.680">
   <property name="kdenlive:id">202</property>
  </entry>
  <entry producer="producer199" in="00:00:00.000" out="00:00:04.360">
   <property name="kdenlive:id">203</property>
  </entry>
  <entry producer="producer200" in="00:00:00.000" out="00:00:05.040">
   <property name="kdenlive:id">204</property>
  </entry>
  <entry producer="producer201" in="00:00:00.000" out="00:00:04.320">
   <property name="kdenlive:id">205</property>
  </entry>
  <entry producer="producer202" in="00:00:00.000" out="00:00:04.080">
   <property name="kdenlive:id">206</property>
  </entry>
  <entry producer="producer203" in="00:00:00.000" out="00:00:03.840">
   <property name="kdenlive:id">207</property>
  </entry>
  <entry producer="producer204" in="00:00:00.000" out="00:00:05.280">
   <property name="kdenlive:id">208</property>
  </entry>
  <entry producer="producer205" in="00:00:00.000" out="00:00:05.400">
   <property name="kdenlive:id">209</property>
  </entry>
  <entry producer="producer206" in="00:00:00.000" out="00:00:03.880">
   <property name="kdenlive:id">210</property>
  </entry>
  <entry producer="producer207" in="00:00:00.000" out="00:00:04.480">
   <property name="kdenlive:id">211</property>
  </entry>
  <entry producer="producer208" in="00:00:00.000" out="00:00:03.640">
   <property name="kdenlive:id">212</property>
  </entry>
  <entry producer="producer209" in="00:00:00.000" out="00:00:04.280">
   <property name="kdenlive:id">213</property>
  </entry>
  <entry producer="producer210" in="00:00:00.000" out="00:00:04.840">
   <property name="kdenlive:id">214</property>
  </entry>
  <entry producer="producer211" in="00:00:00.000" out="00:00:04.440">
   <property name="kdenlive:id">215</property>
  </entry>
  <entry producer="producer212" in="00:00:00.000" out="00:00:04.480">
   <property name="kdenlive:id">216</property>
  </entry>
  <entry producer="producer213" in="00:00:00.000" out="00:00:02.640">
   <property name="kdenlive:id">217</property>
  </entry>
  <blank length="00:00:22.920"/>
  <entry producer="producer214" in="00:00:00.000" out="00:00:03.440">
   <property name="kdenlive:id">218</property>
  </entry>
  <entry producer="producer215" in="00:00:00.000" out="00:00:03.080">
   <property name="kdenlive:id">219</property>
  </entry>
  <entry producer="producer216" in="00:00:00.000" out="00:00:03.960">
   <property name="kdenlive:id">221</property>
  </entry>
  <entry producer="producer217" in="00:00:00.000" out="00:00:03.880">
   <property name="kdenlive:id">222</property>
  </entry>
  <entry producer="producer218" in="00:00:00.000" out="00:00:04.600">
   <property name="kdenlive:id">223</property>
  </entry>
  <entry producer="producer220" in="00:00:00.000" out="00:00:04.280">
   <property name="kdenlive:id">224</property>
  </entry>
  <entry producer="producer219" in="00:00:00.000" out="00:00:04.480">
   <property name="kdenlive:id">225</property>
  </entry>
  <entry producer="producer222" in="00:00:00.000" out="00:00:03.840">
   <property name="kdenlive:id">226</property>
  </entry>
  <entry producer="producer223" in="00:00:00.000" out="00:00:02.280">
   <property name="kdenlive:id">227</property>
  </entry>
  <blank length="00:00:26.400"/>
  <entry producer="producer225" in="00:00:00.000" out="00:00:03.480">
   <property name="kdenlive:id">229</property>
  </entry>
  <entry producer="producer226" in="00:00:00.000" out="00:00:03.400">
   <property name="kdenlive:id">230</property>
  </entry>
  <entry producer="producer227" in="00:00:00.000" out="00:00:04.040">
   <property name="kdenlive:id">231</property>
  </entry>
  <entry producer="producer228" in="00:00:00.000" out="00:00:04.120">
   <property name="kdenlive:id">232</property>
  </entry>
  <entry producer="producer229" in="00:00:00.000" out="00:00:03.840">
   <property name="kdenlive:id">233</property>
  </entry>
  <entry producer="producer230" in="00:00:00.000" out="00:00:04.640">
   <property name="kdenlive:id">234</property>
  </entry>
  <entry producer="producer231" in="00:00:00.000" out="00:00:05.480">
   <property name="kdenlive:id">235</property>
  </entry>
  <entry producer="producer233" in="00:00:00.000" out="00:00:04.640">
   <property name="kdenlive:id">237</property>
  </entry>
  <entry producer="producer234" in="00:00:00.000" out="00:00:04.520">
   <property name="kdenlive:id">238</property>
  </entry>
  <entry producer="producer235" in="00:00:00.000" out="00:00:04.640">
   <property name="kdenlive:id">239</property>
  </entry>
  <entry producer="producer236" in="00:00:00.000" out="00:00:03.800">
   <property name="kdenlive:id">240</property>
   <filter id="filter26" in="00:00:02.440" out="00:00:03.800">
    <property name="start">1</property>
    <property name="level">1</property>
    <property name="mlt_service">brightness</property>
    <property name="kdenlive_id">fade_to_black</property>
    <property name="alpha">0=1;-1=0</property>
   </filter>
  </entry>
 </playlist>
 <playlist id="playlist7"/>
 <tractor id="tractor3" in="00:00:00.000" out="00:18:42.240">
  <property name="kdenlive:trackheight">67</property>
  <property name="kdenlive:timeline_active">1</property>
  <property name="kdenlive:collapsed">0</property>
  <property name="kdenlive:track_name">subtitles</property>
  <property name="kdenlive:thumbs_format"/>
  <property name="kdenlive:audio_rec"/>
  <track hide="audio" producer="playlist6"/>
  <track hide="audio" producer="playlist7"/>
 </tractor>
 <playlist id="playlist8">
  <blank length="00:08:46.840"/>
  <entry producer="producer286" in="00:00:00.000" out="00:00:13.480">
   <property name="kdenlive:id">290</property>
   <filter id="filter27">
    <property name="rotate_center">1</property>
    <property name="mlt_service">qtblend</property>
    <property name="kdenlive_id">qtblend</property>
    <property name="rect">00:00:00.000=288 162 1344 756 1.000000</property>
    <property name="rotation">00:00:00.000=0</property>
    <property name="compositing">0</property>
    <property name="distort">0</property>
    <property name="kdenlive:collapsed">0</property>
   </filter>
  </entry>
 </playlist>
 <playlist id="playlist9"/>
 <tractor id="tractor4" in="00:00:00.000" out="00:09:00.320">
  <property name="kdenlive:trackheight">67</property>
  <property name="kdenlive:timeline_active">1</property>
  <property name="kdenlive:collapsed">0</property>
  <property name="kdenlive:thumbs_format"/>
  <property name="kdenlive:audio_rec"/>
  <track hide="audio" producer="playlist8"/>
  <track hide="audio" producer="playlist9"/>
 </tractor>
 <playlist id="playlist10">
  <entry producer="producer287" in="00:00:00.000" out="00:18:56.480">
   <property name="kdenlive:id">291</property>
  </entry>
 </playlist>
 <playlist id="playlist11"/>
 <tractor id="tractor5" in="00:00:00.000" out="00:18:56.480">
  <property name="kdenlive:trackheight">67</property>
  <property name="kdenlive:timeline_active">1</property>
  <property name="kdenlive:collapsed">0</property>
  <property name="kdenlive:track_name">watermark</property>
  <property name="kdenlive:thumbs_format"/>
  <property name="kdenlive:audio_rec"/>
  <track hide="audio" producer="playlist10"/>
  <track hide="audio" producer="playlist11"/>
 </tractor>
 <playlist id="playlist12">
  <blank length="00:02:34.960"/>
  <entry producer="producer301" in="00:00:00.000" out="00:00:03.920">
   <property name="kdenlive:id">306</property>
   <filter id="filter28">
    <property name="rotate_center">1</property>
    <property name="mlt_service">qtblend</property>
    <property name="kdenlive_id">qtblend</property>
    <property name="rect">00:00:00.000=1824 1200 96 54 1.000000;00:00:00.240=1824 1005 96 54 1.000000;00:00:00.320=1824 1011 96 54 1.000000</property>
    <property name="rotation">00:00:00.000=0;00:00:00.240=0;00:00:00.320=0</property>
    <property name="compositing">0</property>
    <property name="distort">0</property>
    <property name="kdenlive:collapsed">0</property>
   </filter>
   <filter id="filter29" in="00:00:03.640" out="00:00:03.920">
    <property name="start">1</property>
    <property name="level">1</property>
    <property name="mlt_service">brightness</property>
    <property name="kdenlive_id">fade_to_black</property>
    <property name="alpha">00:00:00.000=1;00:00:00.280=0</property>
    <property name="kdenlive:collapsed">0</property>
   </filter>
  </entry>
  <blank length="00:00:01.720"/>
  <entry producer="producer300" in="00:00:00.000" out="00:00:04.280">
   <property name="kdenlive:id">307</property>
   <filter id="filter30">
    <property name="rotate_center">1</property>
    <property name="mlt_service">qtblend</property>
    <property name="kdenlive_id">qtblend</property>
    <property name="rect">00:00:00.000=1824 1200 96 54 1.000000;00:00:00.240=1824 1005 96 54 1.000000;00:00:00.320=1824 1011 96 54 1.000000</property>
    <property name="rotation">00:00:00.000=0;00:00:00.240=0;00:00:00.320=0</property>
    <property name="compositing">0</property>
    <property name="distort">0</property>
    <property name="kdenlive:collapsed">0</property>
   </filter>
   <filter id="filter31" in="00:00:03.880" out="00:00:04.320">
    <property name="start">1</property>
    <property name="level">1</property>
    <property name="mlt_service">brightness</property>
    <property name="kdenlive_id">fade_to_black</property>
    <property name="alpha">00:00:00.000=1;00:00:00.440=0</property>
    <property name="kdenlive:collapsed">0</property>
   </filter>
  </entry>
  <blank length="00:02:58.280"/>
  <entry producer="producer305" in="00:00:00.000" out="00:00:04.640">
   <property name="kdenlive:id">310</property>
   <filter id="filter32">
    <property name="rotate_center">1</property>
    <property name="mlt_service">qtblend</property>
    <property name="kdenlive_id">qtblend</property>
    <property name="rect">00:00:00.000=1824 1200 96 54 1.000000;00:00:00.240=1824 1005 96 54 1.000000;00:00:00.320=1824 1011 96 54 1.000000</property>
    <property name="rotation">00:00:00.000=0;00:00:00.240=0;00:00:00.320=0</property>
    <property name="compositing">0</property>
    <property name="distort">0</property>
    <property name="kdenlive:collapsed">0</property>
   </filter>
   <filter id="filter33" in="00:00:04.280" out="00:00:04.680">
    <property name="start">1</property>
    <property name="level">1</property>
    <property name="mlt_service">brightness</property>
    <property name="kdenlive_id">fade_to_black</property>
    <property name="alpha">00:00:00.000=1;00:00:00.400=0</property>
    <property name="kdenlive:collapsed">0</property>
   </filter>
  </entry>
  <blank length="00:09:34.600"/>
  <entry producer="producer306" in="00:00:00.000" out="00:00:02.560">
   <property name="kdenlive:id">312</property>
   <filter id="filter34">
    <property name="rotate_center">1</property>
    <property name="mlt_service">qtblend</property>
    <property name="kdenlive_id">qtblend</property>
    <property name="rect">00:00:00.000=1824 1200 96 54 1.000000;00:00:00.240=1824 1005 96 54 1.000000;00:00:00.320=1824 1011 96 54 1.000000</property>
    <property name="rotation">00:00:00.000=0;00:00:00.240=0;00:00:00.320=0</property>
    <property name="compositing">0</property>
    <property name="distort">0</property>
    <property name="kdenlive:collapsed">0</property>
   </filter>
   <filter id="filter35" in="00:00:02.200" out="00:00:02.600">
    <property name="start">1</property>
    <property name="level">1</property>
    <property name="mlt_service">brightness</property>
    <property name="kdenlive_id">fade_to_black</property>
    <property name="alpha">00:00:00.000=1;00:00:00.400=0</property>
    <property name="kdenlive:collapsed">0</property>
   </filter>
  </entry>
 </playlist>
 <playlist id="playlist13"/>
 <tractor id="tractor6" in="00:00:00.000" out="00:15:25.080">
  <property name="kdenlive:trackheight">67</property>
  <property name="kdenlive:timeline_active">1</property>
  <property name="kdenlive:track_name">footnotes</property>
  <track producer="playlist12"/>
  <track producer="playlist13"/>
 </tractor>
 <tractor id="tractor7" in="00:00:00.000" out="00:38:56.520">
  <track producer="black_track"/>
  <track producer="tractor0"/>
  <track producer="tractor1"/>
  <track producer="tractor2"/>
  <track producer="tractor3"/>
  <track producer="tractor4"/>
  <track producer="tractor5"/>
  <track producer="tractor6"/>
  <transition id="transition0">
   <property name="a_track">0</property>
   <property name="b_track">1</property>
   <property name="mlt_service">mix</property>
   <property name="kdenlive_id">mix</property>
   <property name="internal_added">237</property>
   <property name="always_active">1</property>
   <property name="accepts_blanks">1</property>
   <property name="sum">1</property>
  </transition>
  <transition id="transition1">
   <property name="a_track">0</property>
   <property name="b_track">2</property>
   <property name="mlt_service">mix</property>
   <property name="kdenlive_id">mix</property>
   <property name="internal_added">237</property>
   <property name="always_active">1</property>
   <property name="accepts_blanks">1</property>
   <property name="sum">1</property>
  </transition>
  <transition id="transition2">
   <property name="a_track">0</property>
   <property name="b_track">3</property>
   <property name="version">0.9</property>
   <property name="mlt_service">frei0r.cairoblend</property>
   <property name="kdenlive_id">frei0r.cairoblend</property>
   <property name="internal_added">237</property>
   <property name="always_active">1</property>
  </transition>
  <transition id="transition3">
   <property name="a_track">0</property>
   <property name="b_track">4</property>
   <property name="version">0.9</property>
   <property name="mlt_service">frei0r.cairoblend</property>
   <property name="kdenlive_id">frei0r.cairoblend</property>
   <property name="internal_added">237</property>
   <property name="always_active">1</property>
  </transition>
  <transition id="transition4">
   <property name="a_track">0</property>
   <property name="b_track">5</property>
   <property name="version">0.9</property>
   <property name="mlt_service">frei0r.cairoblend</property>
   <property name="kdenlive_id">frei0r.cairoblend</property>
   <property name="internal_added">237</property>
   <property name="always_active">1</property>
  </transition>
  <transition id="transition5">
   <property name="a_track">0</property>
   <property name="b_track">6</property>
   <property name="version">0.9</property>
   <property name="mlt_service">frei0r.cairoblend</property>
   <property name="kdenlive_id">frei0r.cairoblend</property>
   <property name="internal_added">237</property>
   <property name="always_active">1</property>
  </transition>
  <transition id="transition6">
   <property name="a_track">0</property>
   <property name="b_track">7</property>
   <property name="version">0.9</property>
   <property name="mlt_service">frei0r.cairoblend</property>
   <property name="kdenlive_id">frei0r.cairoblend</property>
   <property name="internal_added">237</property>
   <property name="always_active">1</property>
  </transition>
  <filter id="filter36">
   <property name="window">75</property>
   <property name="max_gain">20dB</property>
   <property name="mlt_service">volume</property>
   <property name="internal_added">237</property>
   <property name="disable">1</property>
  </filter>
  <filter id="filter37">
   <property name="channel">-1</property>
   <property name="mlt_service">panner</property>
   <property name="internal_added">237</property>
   <property name="start">0.5</property>
   <property name="disable">1</property>
  </filter>
 </tractor>
</mlt>
