<?xml version='1.0' encoding='utf-8'?>
<mlt LC_NUMERIC="C" producer="main_bin" version="7.8.0" root="/home/liquidzulu/Documents/youtube-scripts/courses/libertarian-ethics/videos">
 <profile frame_rate_num="25" sample_aspect_num="1" display_aspect_den="9" colorspace="709" progressive="1" description="HD 1080p 25 fps" display_aspect_num="16" frame_rate_den="1" width="1920" height="1080" sample_aspect_den="1"/>
 <producer id="producer1" in="00:00:00.000" out="00:00:27.040">
  <property name="length">677</property>
  <property name="eof">pause</property>
  <property name="resource">/home/liquidzulu/Documents/youtube-scripts/courses/libertarian-ethics/audio/proc/Audio/titles.proc.mp3</property>
  <property name="meta.media.nb_streams">1</property>
  <property name="meta.media.0.stream.type">audio</property>
  <property name="meta.media.0.codec.sample_fmt">fltp</property>
  <property name="meta.media.0.codec.sample_rate">44100</property>
  <property name="meta.media.0.codec.channels">2</property>
  <property name="meta.media.0.codec.name">mp3float</property>
  <property name="meta.media.0.codec.long_name">MP3 (MPEG audio layer 3)</property>
  <property name="meta.media.0.codec.bit_rate">192000</property>
  <property name="meta.attr.encoded_by.markup">LAME in FL Studio 21</property>
  <property name="meta.attr.date.markup">2023</property>
  <property name="seekable">1</property>
  <property name="audio_index">0</property>
  <property name="video_index">-1</property>
  <property name="mute_on_pause">1</property>
  <property name="mlt_service">avformat</property>
  <property name="kdenlive:clipname"/>
  <property name="kdenlive:clip_type">1</property>
  <property name="kdenlive:folderid">-1</property>
  <property name="kdenlive:id">2</property>
  <property name="kdenlive:file_size">650191</property>
  <property name="kdenlive:file_hash">92444ccf553bde8b33231fe6f867b916</property>
  <property name="kdenlive:audio_max0">177</property>
 </producer>
 <producer id="producer50" in="00:00:00.000" out="00:01:32.200">
  <property name="length">2306</property>
  <property name="eof">pause</property>
  <property name="resource">/home/liquidzulu/Music/The Mini Vandals/In Memory of Jean Talon - The Mini Vandals.mp3</property>
  <property name="meta.media.nb_streams">1</property>
  <property name="meta.media.0.stream.type">audio</property>
  <property name="meta.media.0.codec.sample_fmt">fltp</property>
  <property name="meta.media.0.codec.sample_rate">44100</property>
  <property name="meta.media.0.codec.channels">2</property>
  <property name="meta.media.0.codec.name">mp3float</property>
  <property name="meta.media.0.codec.long_name">MP3 (MPEG audio layer 3)</property>
  <property name="meta.media.0.codec.bit_rate">320000</property>
  <property name="meta.attr.0.stream.encoder.markup">Lavf</property>
  <property name="meta.attr.encoder.markup">Google</property>
  <property name="seekable">1</property>
  <property name="audio_index">0</property>
  <property name="video_index">-1</property>
  <property name="mute_on_pause">1</property>
  <property name="mlt_service">avformat</property>
  <property name="kdenlive:clipname"/>
  <property name="kdenlive:clip_type">1</property>
  <property name="kdenlive:folderid">-1</property>
  <property name="kdenlive:id">3</property>
  <property name="kdenlive:file_size">3690616</property>
  <property name="kdenlive:file_hash">df84791d461281a3def6977dac75974d</property>
  <property name="kdenlive:audio_max0">201</property>
 </producer>
 <producer id="producer51" in="00:00:00.000" out="00:00:12.640">
  <property name="length">317</property>
  <property name="eof">pause</property>
  <property name="resource">/home/liquidzulu/Documents/youtube-scripts/courses/libertarian-ethics/images/intro-slide.png</property>
  <property name="ttl">25</property>
  <property name="aspect_ratio">1</property>
  <property name="progressive">1</property>
  <property name="seekable">1</property>
  <property name="meta.media.width">1920</property>
  <property name="meta.media.height">1080</property>
  <property name="mlt_service">qimage</property>
  <property name="kdenlive:clipname"/>
  <property name="kdenlive:duration">00:00:05.000</property>
  <property name="kdenlive:folderid">-1</property>
  <property name="kdenlive:clip_type">2</property>
  <property name="kdenlive:id">4</property>
  <property name="kdenlive:file_size">898414</property>
  <property name="kdenlive:file_hash">b67c491adeef8fae7526f19fce86aa10</property>
 </producer>
 <producer id="producer0" in="00:00:00.000" out="00:21:45.360">
  <property name="length">32635</property>
  <property name="eof">pause</property>
  <property name="resource">/home/liquidzulu/Documents/youtube-scripts/courses/libertarian-ethics/audio/proc/Audio/homesteading-and-property-rights.proc.mp3</property>
  <property name="meta.media.nb_streams">1</property>
  <property name="meta.media.0.stream.type">audio</property>
  <property name="meta.media.0.codec.sample_fmt">fltp</property>
  <property name="meta.media.0.codec.sample_rate">44100</property>
  <property name="meta.media.0.codec.channels">2</property>
  <property name="meta.media.0.codec.name">mp3float</property>
  <property name="meta.media.0.codec.long_name">MP3 (MPEG audio layer 3)</property>
  <property name="meta.media.0.codec.bit_rate">192000</property>
  <property name="meta.attr.encoded_by.markup">LAME in FL Studio 21</property>
  <property name="meta.attr.date.markup">2023</property>
  <property name="seekable">1</property>
  <property name="audio_index">0</property>
  <property name="video_index">-1</property>
  <property name="mute_on_pause">1</property>
  <property name="mlt_service">avformat</property>
  <property name="kdenlive:clipname"/>
  <property name="kdenlive:clip_type">1</property>
  <property name="kdenlive:folderid">-1</property>
  <property name="kdenlive:id">5</property>
  <property name="kdenlive:file_size">31329440</property>
  <property name="kdenlive:file_hash">5f6c7223ac7c84612bdc6e8c3ec623ed</property>
  <property name="kdenlive:audio_max0">198</property>
 </producer>
 <producer id="producer2" in="00:00:00.000" out="00:00:04.960">
  <property name="length">00:00:05.000</property>
  <property name="eof">pause</property>
  <property name="resource">/home/liquidzulu/Documents/youtube-scripts/courses/libertarian-ethics/slides/homesteading-and-property-rights/1.png</property>
  <property name="ttl">25</property>
  <property name="aspect_ratio">1</property>
  <property name="progressive">1</property>
  <property name="seekable">1</property>
  <property name="meta.media.width">1280</property>
  <property name="meta.media.height">720</property>
  <property name="mlt_service">qimage</property>
  <property name="kdenlive:clipname"/>
  <property name="kdenlive:duration">00:00:05.000</property>
  <property name="kdenlive:folderid">6</property>
  <property name="kdenlive:clip_type">2</property>
  <property name="kdenlive:id">7</property>
  <property name="kdenlive:file_size">37721</property>
  <property name="kdenlive:file_hash">20bdc60e86f30188b6d50d4dd9b71dc6</property>
 </producer>
 <producer id="producer11" in="00:00:00.000" out="00:00:42.560">
  <property name="length">1065</property>
  <property name="eof">pause</property>
  <property name="resource">/home/liquidzulu/Documents/youtube-scripts/courses/libertarian-ethics/slides/homesteading-and-property-rights/10.png</property>
  <property name="ttl">25</property>
  <property name="aspect_ratio">1</property>
  <property name="progressive">1</property>
  <property name="seekable">1</property>
  <property name="meta.media.width">1280</property>
  <property name="meta.media.height">720</property>
  <property name="mlt_service">qimage</property>
  <property name="kdenlive:clipname"/>
  <property name="kdenlive:duration">00:00:05.000</property>
  <property name="kdenlive:folderid">6</property>
  <property name="kdenlive:clip_type">2</property>
  <property name="kdenlive:id">8</property>
  <property name="kdenlive:file_size">72448</property>
  <property name="kdenlive:file_hash">e51984a5a44a75468d945739b0bb755b</property>
 </producer>
 <producer id="producer8" in="00:00:00.000" out="00:00:20.200">
  <property name="length">506</property>
  <property name="eof">pause</property>
  <property name="resource">/home/liquidzulu/Documents/youtube-scripts/courses/libertarian-ethics/slides/homesteading-and-property-rights/11.png</property>
  <property name="ttl">25</property>
  <property name="aspect_ratio">1</property>
  <property name="progressive">1</property>
  <property name="seekable">1</property>
  <property name="meta.media.width">1280</property>
  <property name="meta.media.height">720</property>
  <property name="mlt_service">qimage</property>
  <property name="kdenlive:clipname"/>
  <property name="kdenlive:duration">00:00:05.000</property>
  <property name="kdenlive:folderid">6</property>
  <property name="kdenlive:clip_type">2</property>
  <property name="kdenlive:id">9</property>
  <property name="kdenlive:file_size">36892</property>
  <property name="kdenlive:file_hash">875b425ff341b2e36c204f805aac7cbe</property>
 </producer>
 <producer id="producer9" in="00:00:00.000" out="00:00:58.320">
  <property name="length">1459</property>
  <property name="eof">pause</property>
  <property name="resource">/home/liquidzulu/Documents/youtube-scripts/courses/libertarian-ethics/slides/homesteading-and-property-rights/12.png</property>
  <property name="ttl">25</property>
  <property name="aspect_ratio">1</property>
  <property name="progressive">1</property>
  <property name="seekable">1</property>
  <property name="meta.media.width">1280</property>
  <property name="meta.media.height">720</property>
  <property name="mlt_service">qimage</property>
  <property name="kdenlive:clipname"/>
  <property name="kdenlive:duration">00:00:05.000</property>
  <property name="kdenlive:folderid">6</property>
  <property name="kdenlive:clip_type">2</property>
  <property name="kdenlive:id">10</property>
  <property name="kdenlive:file_size">60648</property>
  <property name="kdenlive:file_hash">ce14015eded5daaa54078a5934a587d5</property>
 </producer>
 <producer id="producer79" in="00:00:00.000" out="00:00:44.240">
  <property name="length">1107</property>
  <property name="eof">pause</property>
  <property name="resource">/home/liquidzulu/Documents/youtube-scripts/courses/libertarian-ethics/slides/homesteading-and-property-rights/13.png</property>
  <property name="ttl">25</property>
  <property name="aspect_ratio">1</property>
  <property name="progressive">1</property>
  <property name="seekable">1</property>
  <property name="meta.media.width">1280</property>
  <property name="meta.media.height">720</property>
  <property name="mlt_service">qimage</property>
  <property name="kdenlive:clipname"/>
  <property name="kdenlive:duration">00:00:05.000</property>
  <property name="kdenlive:folderid">6</property>
  <property name="kdenlive:clip_type">2</property>
  <property name="kdenlive:id">11</property>
  <property name="kdenlive:file_size">124078</property>
  <property name="kdenlive:file_hash">c45139a164ded3e686ede903057b5990</property>
 </producer>
 <producer id="producer10" in="00:00:00.000" out="00:00:40.040">
  <property name="length">1002</property>
  <property name="eof">pause</property>
  <property name="resource">/home/liquidzulu/Documents/youtube-scripts/courses/libertarian-ethics/slides/homesteading-and-property-rights/14.png</property>
  <property name="ttl">25</property>
  <property name="aspect_ratio">1</property>
  <property name="progressive">1</property>
  <property name="seekable">1</property>
  <property name="meta.media.width">1280</property>
  <property name="meta.media.height">720</property>
  <property name="mlt_service">qimage</property>
  <property name="kdenlive:clipname"/>
  <property name="kdenlive:duration">00:00:05.000</property>
  <property name="kdenlive:folderid">6</property>
  <property name="kdenlive:clip_type">2</property>
  <property name="kdenlive:id">12</property>
  <property name="kdenlive:file_size">117713</property>
  <property name="kdenlive:file_hash">fdf942306e862b3840d1153e957c3abf</property>
 </producer>
 <producer id="producer12" in="00:00:00.000" out="00:00:18.560">
  <property name="length">465</property>
  <property name="eof">pause</property>
  <property name="resource">/home/liquidzulu/Documents/youtube-scripts/courses/libertarian-ethics/slides/homesteading-and-property-rights/15.png</property>
  <property name="ttl">25</property>
  <property name="aspect_ratio">1</property>
  <property name="progressive">1</property>
  <property name="seekable">1</property>
  <property name="meta.media.width">1280</property>
  <property name="meta.media.height">720</property>
  <property name="mlt_service">qimage</property>
  <property name="kdenlive:clipname"/>
  <property name="kdenlive:duration">00:00:05.000</property>
  <property name="kdenlive:folderid">6</property>
  <property name="kdenlive:clip_type">2</property>
  <property name="kdenlive:id">13</property>
  <property name="kdenlive:file_size">5341</property>
  <property name="kdenlive:file_hash">d248b42f3a51272ea147b65573e330a4</property>
 </producer>
 <producer id="producer16" in="00:00:00.000" out="00:00:07.360">
  <property name="length">185</property>
  <property name="eof">pause</property>
  <property name="resource">/home/liquidzulu/Documents/youtube-scripts/courses/libertarian-ethics/slides/homesteading-and-property-rights/16.png</property>
  <property name="ttl">25</property>
  <property name="aspect_ratio">1</property>
  <property name="progressive">1</property>
  <property name="seekable">1</property>
  <property name="meta.media.width">1280</property>
  <property name="meta.media.height">720</property>
  <property name="mlt_service">qimage</property>
  <property name="kdenlive:clipname"/>
  <property name="kdenlive:duration">00:00:05.000</property>
  <property name="kdenlive:folderid">6</property>
  <property name="kdenlive:clip_type">2</property>
  <property name="kdenlive:id">14</property>
  <property name="kdenlive:file_size">25898</property>
  <property name="kdenlive:file_hash">8b2abf01bd44a37c77dd7efe98539a68</property>
 </producer>
 <producer id="producer13" in="00:00:00.000" out="00:01:20.280">
  <property name="length">2008</property>
  <property name="eof">pause</property>
  <property name="resource">/home/liquidzulu/Documents/youtube-scripts/courses/libertarian-ethics/slides/homesteading-and-property-rights/17.png</property>
  <property name="ttl">25</property>
  <property name="aspect_ratio">1</property>
  <property name="progressive">1</property>
  <property name="seekable">1</property>
  <property name="meta.media.width">1280</property>
  <property name="meta.media.height">720</property>
  <property name="mlt_service">qimage</property>
  <property name="kdenlive:clipname"/>
  <property name="kdenlive:duration">00:00:05.000</property>
  <property name="kdenlive:folderid">6</property>
  <property name="kdenlive:clip_type">2</property>
  <property name="kdenlive:id">15</property>
  <property name="kdenlive:file_size">89558</property>
  <property name="kdenlive:file_hash">01e58e636d868e3a1497b8013a2aa25f</property>
 </producer>
 <producer id="producer14" in="00:00:00.000" out="00:00:13.200">
  <property name="length">331</property>
  <property name="eof">pause</property>
  <property name="resource">/home/liquidzulu/Documents/youtube-scripts/courses/libertarian-ethics/slides/homesteading-and-property-rights/18.png</property>
  <property name="ttl">25</property>
  <property name="aspect_ratio">1</property>
  <property name="progressive">1</property>
  <property name="seekable">1</property>
  <property name="meta.media.width">1280</property>
  <property name="meta.media.height">720</property>
  <property name="mlt_service">qimage</property>
  <property name="kdenlive:clipname"/>
  <property name="kdenlive:duration">00:00:05.000</property>
  <property name="kdenlive:folderid">6</property>
  <property name="kdenlive:clip_type">2</property>
  <property name="kdenlive:id">16</property>
  <property name="kdenlive:file_size">37602</property>
  <property name="kdenlive:file_hash">e7133dec59d933db0c040014f89fd02d</property>
 </producer>
 <producer id="producer15" in="00:00:00.000" out="00:00:40.760">
  <property name="length">1020</property>
  <property name="eof">pause</property>
  <property name="resource">/home/liquidzulu/Documents/youtube-scripts/courses/libertarian-ethics/slides/homesteading-and-property-rights/19.png</property>
  <property name="ttl">25</property>
  <property name="aspect_ratio">1</property>
  <property name="progressive">1</property>
  <property name="seekable">1</property>
  <property name="meta.media.width">1280</property>
  <property name="meta.media.height">720</property>
  <property name="mlt_service">qimage</property>
  <property name="kdenlive:clipname"/>
  <property name="kdenlive:duration">00:00:05.000</property>
  <property name="kdenlive:folderid">6</property>
  <property name="kdenlive:clip_type">2</property>
  <property name="kdenlive:id">17</property>
  <property name="kdenlive:file_size">83005</property>
  <property name="kdenlive:file_hash">ff2c0c434e132915ed83a921ba9e3cbf</property>
 </producer>
 <producer id="producer3" in="00:00:00.000" out="00:00:22.640">
  <property name="length">00:00:22.680</property>
  <property name="eof">pause</property>
  <property name="resource">/home/liquidzulu/Documents/youtube-scripts/courses/libertarian-ethics/slides/homesteading-and-property-rights/2.png</property>
  <property name="ttl">25</property>
  <property name="aspect_ratio">1</property>
  <property name="progressive">1</property>
  <property name="seekable">1</property>
  <property name="meta.media.width">1280</property>
  <property name="meta.media.height">720</property>
  <property name="mlt_service">qimage</property>
  <property name="kdenlive:clipname"/>
  <property name="kdenlive:duration">00:00:05.000</property>
  <property name="kdenlive:folderid">6</property>
  <property name="kdenlive:clip_type">2</property>
  <property name="kdenlive:id">18</property>
  <property name="kdenlive:file_size">118895</property>
  <property name="kdenlive:file_hash">ad43103bc2bb22a2f052204bc5590f0e</property>
 </producer>
 <producer id="producer17" in="00:00:00.000" out="00:00:48.200">
  <property name="length">1206</property>
  <property name="eof">pause</property>
  <property name="resource">/home/liquidzulu/Documents/youtube-scripts/courses/libertarian-ethics/slides/homesteading-and-property-rights/20.png</property>
  <property name="ttl">25</property>
  <property name="aspect_ratio">1</property>
  <property name="progressive">1</property>
  <property name="seekable">1</property>
  <property name="meta.media.width">1280</property>
  <property name="meta.media.height">720</property>
  <property name="mlt_service">qimage</property>
  <property name="kdenlive:clipname"/>
  <property name="kdenlive:duration">00:00:05.000</property>
  <property name="kdenlive:folderid">6</property>
  <property name="kdenlive:clip_type">2</property>
  <property name="kdenlive:id">19</property>
  <property name="kdenlive:file_size">119804</property>
  <property name="kdenlive:file_hash">0292dd45d62bfc568a43d46b53e4aaa8</property>
 </producer>
 <producer id="producer18" in="00:00:00.000" out="00:00:34.400">
  <property name="length">861</property>
  <property name="eof">pause</property>
  <property name="resource">/home/liquidzulu/Documents/youtube-scripts/courses/libertarian-ethics/slides/homesteading-and-property-rights/21.png</property>
  <property name="ttl">25</property>
  <property name="aspect_ratio">1</property>
  <property name="progressive">1</property>
  <property name="seekable">1</property>
  <property name="meta.media.width">1280</property>
  <property name="meta.media.height">720</property>
  <property name="mlt_service">qimage</property>
  <property name="kdenlive:clipname"/>
  <property name="kdenlive:duration">00:00:05.000</property>
  <property name="kdenlive:folderid">6</property>
  <property name="kdenlive:clip_type">2</property>
  <property name="kdenlive:id">20</property>
  <property name="kdenlive:file_size">97648</property>
  <property name="kdenlive:file_hash">38e2ea828f71c85540cc51dd7b029129</property>
 </producer>
 <producer id="producer20" in="00:00:00.000" out="00:00:46.360">
  <property name="length">1160</property>
  <property name="eof">pause</property>
  <property name="resource">/home/liquidzulu/Documents/youtube-scripts/courses/libertarian-ethics/slides/homesteading-and-property-rights/22.png</property>
  <property name="ttl">25</property>
  <property name="aspect_ratio">1</property>
  <property name="progressive">1</property>
  <property name="seekable">1</property>
  <property name="meta.media.width">1280</property>
  <property name="meta.media.height">720</property>
  <property name="mlt_service">qimage</property>
  <property name="kdenlive:clipname"/>
  <property name="kdenlive:duration">00:00:05.000</property>
  <property name="kdenlive:folderid">6</property>
  <property name="kdenlive:clip_type">2</property>
  <property name="kdenlive:id">21</property>
  <property name="kdenlive:file_size">102216</property>
  <property name="kdenlive:file_hash">b90aba0c79d00027a55304037015f351</property>
 </producer>
 <producer id="producer21" in="00:00:00.000" out="00:00:50.200">
  <property name="length">1256</property>
  <property name="eof">pause</property>
  <property name="resource">/home/liquidzulu/Documents/youtube-scripts/courses/libertarian-ethics/slides/homesteading-and-property-rights/23.png</property>
  <property name="ttl">25</property>
  <property name="aspect_ratio">1</property>
  <property name="progressive">1</property>
  <property name="seekable">1</property>
  <property name="meta.media.width">1280</property>
  <property name="meta.media.height">720</property>
  <property name="mlt_service">qimage</property>
  <property name="kdenlive:clipname"/>
  <property name="kdenlive:duration">00:00:05.000</property>
  <property name="kdenlive:folderid">6</property>
  <property name="kdenlive:clip_type">2</property>
  <property name="kdenlive:id">22</property>
  <property name="kdenlive:file_size">131930</property>
  <property name="kdenlive:file_hash">7d68df8e1b6bdd3472b9e276a5fdce7c</property>
 </producer>
 <producer id="producer19" in="00:00:00.000" out="00:00:49.560">
  <property name="length">1240</property>
  <property name="eof">pause</property>
  <property name="resource">/home/liquidzulu/Documents/youtube-scripts/courses/libertarian-ethics/slides/homesteading-and-property-rights/24.png</property>
  <property name="ttl">25</property>
  <property name="aspect_ratio">1</property>
  <property name="progressive">1</property>
  <property name="seekable">1</property>
  <property name="meta.media.width">1280</property>
  <property name="meta.media.height">720</property>
  <property name="mlt_service">qimage</property>
  <property name="kdenlive:clipname"/>
  <property name="kdenlive:duration">00:00:05.000</property>
  <property name="kdenlive:folderid">6</property>
  <property name="kdenlive:clip_type">2</property>
  <property name="kdenlive:id">23</property>
  <property name="kdenlive:file_size">93894</property>
  <property name="kdenlive:file_hash">10e0dc4411d995b881ee3257e87ef0ed</property>
 </producer>
 <producer id="producer22" in="00:00:00.000" out="00:00:53.880">
  <property name="length">1348</property>
  <property name="eof">pause</property>
  <property name="resource">/home/liquidzulu/Documents/youtube-scripts/courses/libertarian-ethics/slides/homesteading-and-property-rights/25.png</property>
  <property name="ttl">25</property>
  <property name="aspect_ratio">1</property>
  <property name="progressive">1</property>
  <property name="seekable">1</property>
  <property name="meta.media.width">1280</property>
  <property name="meta.media.height">720</property>
  <property name="mlt_service">qimage</property>
  <property name="kdenlive:clipname"/>
  <property name="kdenlive:duration">00:00:05.000</property>
  <property name="kdenlive:folderid">6</property>
  <property name="kdenlive:clip_type">2</property>
  <property name="kdenlive:id">24</property>
  <property name="kdenlive:file_size">100325</property>
  <property name="kdenlive:file_hash">d1f92489be6118cdf2c9a1a3c2a6f08e</property>
 </producer>
 <producer id="producer23" in="00:00:00.000" out="00:00:46.960">
  <property name="length">1175</property>
  <property name="eof">pause</property>
  <property name="resource">/home/liquidzulu/Documents/youtube-scripts/courses/libertarian-ethics/slides/homesteading-and-property-rights/26.png</property>
  <property name="ttl">25</property>
  <property name="aspect_ratio">1</property>
  <property name="progressive">1</property>
  <property name="seekable">1</property>
  <property name="meta.media.width">1280</property>
  <property name="meta.media.height">720</property>
  <property name="mlt_service">qimage</property>
  <property name="kdenlive:clipname"/>
  <property name="kdenlive:duration">00:00:05.000</property>
  <property name="kdenlive:folderid">6</property>
  <property name="kdenlive:clip_type">2</property>
  <property name="kdenlive:id">25</property>
  <property name="kdenlive:file_size">109078</property>
  <property name="kdenlive:file_hash">5c4d879a1ba96c2aa9ffd79513742c2f</property>
 </producer>
 <producer id="producer25" in="00:00:00.000" out="00:01:48.600">
  <property name="length">2716</property>
  <property name="eof">pause</property>
  <property name="resource">/home/liquidzulu/Documents/youtube-scripts/courses/libertarian-ethics/slides/homesteading-and-property-rights/27.png</property>
  <property name="ttl">25</property>
  <property name="aspect_ratio">1</property>
  <property name="progressive">1</property>
  <property name="seekable">1</property>
  <property name="meta.media.width">1280</property>
  <property name="meta.media.height">720</property>
  <property name="mlt_service">qimage</property>
  <property name="kdenlive:clipname"/>
  <property name="kdenlive:duration">00:00:05.000</property>
  <property name="kdenlive:folderid">6</property>
  <property name="kdenlive:clip_type">2</property>
  <property name="kdenlive:id">26</property>
  <property name="kdenlive:file_size">118530</property>
  <property name="kdenlive:file_hash">88b2cfa49a01b9d578bf2756a7d0ee4e</property>
 </producer>
 <producer id="producer24" in="00:00:00.000" out="00:00:32.400">
  <property name="length">811</property>
  <property name="eof">pause</property>
  <property name="resource">/home/liquidzulu/Documents/youtube-scripts/courses/libertarian-ethics/slides/homesteading-and-property-rights/28.png</property>
  <property name="ttl">25</property>
  <property name="aspect_ratio">1</property>
  <property name="progressive">1</property>
  <property name="seekable">1</property>
  <property name="meta.media.width">1280</property>
  <property name="meta.media.height">720</property>
  <property name="mlt_service">qimage</property>
  <property name="kdenlive:clipname"/>
  <property name="kdenlive:duration">00:00:05.000</property>
  <property name="kdenlive:folderid">6</property>
  <property name="kdenlive:clip_type">2</property>
  <property name="kdenlive:id">27</property>
  <property name="kdenlive:file_size">20457</property>
  <property name="kdenlive:file_hash">41c657b8d659305bd21ad8af4311f9f4</property>
 </producer>
 <producer id="producer26" in="00:00:00.000" out="00:01:07.240">
  <property name="length">1682</property>
  <property name="eof">pause</property>
  <property name="resource">/home/liquidzulu/Documents/youtube-scripts/courses/libertarian-ethics/slides/homesteading-and-property-rights/29.png</property>
  <property name="ttl">25</property>
  <property name="aspect_ratio">1</property>
  <property name="progressive">1</property>
  <property name="seekable">1</property>
  <property name="meta.media.width">1280</property>
  <property name="meta.media.height">720</property>
  <property name="mlt_service">qimage</property>
  <property name="kdenlive:clipname"/>
  <property name="kdenlive:duration">00:00:05.000</property>
  <property name="kdenlive:folderid">6</property>
  <property name="kdenlive:clip_type">2</property>
  <property name="kdenlive:id">28</property>
  <property name="kdenlive:file_size">78882</property>
  <property name="kdenlive:file_hash">7ccb26722dd09b85fedc88dd220f359e</property>
 </producer>
 <producer id="producer5" in="00:00:00.000" out="00:00:34.440">
  <property name="length">00:00:34.480</property>
  <property name="eof">pause</property>
  <property name="resource">/home/liquidzulu/Documents/youtube-scripts/courses/libertarian-ethics/slides/homesteading-and-property-rights/3.png</property>
  <property name="ttl">25</property>
  <property name="aspect_ratio">1</property>
  <property name="progressive">1</property>
  <property name="seekable">1</property>
  <property name="meta.media.width">1280</property>
  <property name="meta.media.height">720</property>
  <property name="mlt_service">qimage</property>
  <property name="kdenlive:clipname"/>
  <property name="kdenlive:duration">00:00:05.000</property>
  <property name="kdenlive:folderid">6</property>
  <property name="kdenlive:clip_type">2</property>
  <property name="kdenlive:id">29</property>
  <property name="kdenlive:file_size">51376</property>
  <property name="kdenlive:file_hash">fa08276de292a227f97c1ad48a3420cb</property>
 </producer>
 <producer id="producer27" in="00:00:00.000" out="00:00:24.480">
  <property name="length">613</property>
  <property name="eof">pause</property>
  <property name="resource">/home/liquidzulu/Documents/youtube-scripts/courses/libertarian-ethics/slides/homesteading-and-property-rights/30.png</property>
  <property name="ttl">25</property>
  <property name="aspect_ratio">1</property>
  <property name="progressive">1</property>
  <property name="seekable">1</property>
  <property name="meta.media.width">1280</property>
  <property name="meta.media.height">720</property>
  <property name="mlt_service">qimage</property>
  <property name="kdenlive:clipname"/>
  <property name="kdenlive:duration">00:00:05.000</property>
  <property name="kdenlive:folderid">6</property>
  <property name="kdenlive:clip_type">2</property>
  <property name="kdenlive:id">30</property>
  <property name="kdenlive:file_size">19339</property>
  <property name="kdenlive:file_hash">bc294ada4da8395381e396c024033c0e</property>
 </producer>
 <producer id="producer30" in="00:00:00.000" out="00:00:56.520">
  <property name="length">1414</property>
  <property name="eof">pause</property>
  <property name="resource">/home/liquidzulu/Documents/youtube-scripts/courses/libertarian-ethics/slides/homesteading-and-property-rights/31.png</property>
  <property name="ttl">25</property>
  <property name="aspect_ratio">1</property>
  <property name="progressive">1</property>
  <property name="seekable">1</property>
  <property name="meta.media.width">1280</property>
  <property name="meta.media.height">720</property>
  <property name="mlt_service">qimage</property>
  <property name="kdenlive:clipname"/>
  <property name="kdenlive:duration">00:00:05.000</property>
  <property name="kdenlive:folderid">6</property>
  <property name="kdenlive:clip_type">2</property>
  <property name="kdenlive:id">31</property>
  <property name="kdenlive:file_size">111118</property>
  <property name="kdenlive:file_hash">27b239a6199330d72bc18cd54ec1953e</property>
 </producer>
 <producer id="producer29" in="00:00:00.000" out="00:00:30.840">
  <property name="length">772</property>
  <property name="eof">pause</property>
  <property name="resource">/home/liquidzulu/Documents/youtube-scripts/courses/libertarian-ethics/slides/homesteading-and-property-rights/32.png</property>
  <property name="ttl">25</property>
  <property name="aspect_ratio">1</property>
  <property name="progressive">1</property>
  <property name="seekable">1</property>
  <property name="meta.media.width">1280</property>
  <property name="meta.media.height">720</property>
  <property name="mlt_service">qimage</property>
  <property name="kdenlive:clipname"/>
  <property name="kdenlive:duration">00:00:05.000</property>
  <property name="kdenlive:folderid">6</property>
  <property name="kdenlive:clip_type">2</property>
  <property name="kdenlive:id">32</property>
  <property name="kdenlive:file_size">127331</property>
  <property name="kdenlive:file_hash">d80c7746f809468239aed186525b6a1f</property>
 </producer>
 <producer id="producer28" in="00:00:00.000" out="00:00:26.840">
  <property name="length">672</property>
  <property name="eof">pause</property>
  <property name="resource">/home/liquidzulu/Documents/youtube-scripts/courses/libertarian-ethics/slides/homesteading-and-property-rights/33.png</property>
  <property name="ttl">25</property>
  <property name="aspect_ratio">1</property>
  <property name="progressive">1</property>
  <property name="seekable">1</property>
  <property name="meta.media.width">1280</property>
  <property name="meta.media.height">720</property>
  <property name="mlt_service">qimage</property>
  <property name="kdenlive:clipname"/>
  <property name="kdenlive:duration">00:00:05.000</property>
  <property name="kdenlive:folderid">6</property>
  <property name="kdenlive:clip_type">2</property>
  <property name="kdenlive:id">33</property>
  <property name="kdenlive:file_size">46032</property>
  <property name="kdenlive:file_hash">ef758a3a0c08ef3109d5954b57ed22c1</property>
 </producer>
 <producer id="producer31" in="00:00:00.000" out="00:00:22.720">
  <property name="length">569</property>
  <property name="eof">pause</property>
  <property name="resource">/home/liquidzulu/Documents/youtube-scripts/courses/libertarian-ethics/slides/homesteading-and-property-rights/34.png</property>
  <property name="ttl">25</property>
  <property name="aspect_ratio">1</property>
  <property name="progressive">1</property>
  <property name="seekable">1</property>
  <property name="meta.media.width">1920</property>
  <property name="meta.media.height">1080</property>
  <property name="mlt_service">qimage</property>
  <property name="kdenlive:clipname"/>
  <property name="kdenlive:duration">00:00:05.000</property>
  <property name="kdenlive:folderid">6</property>
  <property name="kdenlive:clip_type">2</property>
  <property name="kdenlive:id">34</property>
  <property name="kdenlive:file_size">111497</property>
  <property name="kdenlive:file_hash">ce22dfb078bc810ccd1c7bc607636b12</property>
 </producer>
 <producer id="producer32" in="00:00:00.000" out="00:01:31.720">
  <property name="length">2294</property>
  <property name="eof">pause</property>
  <property name="resource">/home/liquidzulu/Documents/youtube-scripts/courses/libertarian-ethics/slides/homesteading-and-property-rights/35.png</property>
  <property name="ttl">25</property>
  <property name="aspect_ratio">1</property>
  <property name="progressive">1</property>
  <property name="seekable">1</property>
  <property name="meta.media.width">1280</property>
  <property name="meta.media.height">720</property>
  <property name="mlt_service">qimage</property>
  <property name="kdenlive:clipname"/>
  <property name="kdenlive:duration">00:00:05.000</property>
  <property name="kdenlive:folderid">6</property>
  <property name="kdenlive:clip_type">2</property>
  <property name="kdenlive:id">35</property>
  <property name="kdenlive:file_size">75560</property>
  <property name="kdenlive:file_hash">2b1f2eaf315e7bc242264f47f2c551ef</property>
 </producer>
 <producer id="producer34" in="00:00:00.000" out="00:00:14.840">
  <property name="length">372</property>
  <property name="eof">pause</property>
  <property name="resource">/home/liquidzulu/Documents/youtube-scripts/courses/libertarian-ethics/slides/homesteading-and-property-rights/36.png</property>
  <property name="ttl">25</property>
  <property name="aspect_ratio">1</property>
  <property name="progressive">1</property>
  <property name="seekable">1</property>
  <property name="meta.media.width">1280</property>
  <property name="meta.media.height">720</property>
  <property name="mlt_service">qimage</property>
  <property name="kdenlive:clipname"/>
  <property name="kdenlive:duration">00:00:05.000</property>
  <property name="kdenlive:folderid">6</property>
  <property name="kdenlive:clip_type">2</property>
  <property name="kdenlive:id">36</property>
  <property name="kdenlive:file_size">34388</property>
  <property name="kdenlive:file_hash">94bf347bec8f5869ba9e93506aea40ab</property>
 </producer>
 <producer id="producer33" in="00:00:00.000" out="00:00:29.880">
  <property name="length">748</property>
  <property name="eof">pause</property>
  <property name="resource">/home/liquidzulu/Documents/youtube-scripts/courses/libertarian-ethics/slides/homesteading-and-property-rights/37.png</property>
  <property name="ttl">25</property>
  <property name="aspect_ratio">1</property>
  <property name="progressive">1</property>
  <property name="seekable">1</property>
  <property name="meta.media.width">1280</property>
  <property name="meta.media.height">720</property>
  <property name="mlt_service">qimage</property>
  <property name="kdenlive:clipname"/>
  <property name="kdenlive:duration">00:00:05.000</property>
  <property name="kdenlive:folderid">6</property>
  <property name="kdenlive:clip_type">2</property>
  <property name="kdenlive:id">37</property>
  <property name="kdenlive:file_size">84322</property>
  <property name="kdenlive:file_hash">48f84f49279a78a7cda35f907a55aa71</property>
 </producer>
 <producer id="producer36" in="00:00:00.000" out="00:00:10.520">
  <property name="length">264</property>
  <property name="eof">pause</property>
  <property name="resource">/home/liquidzulu/Documents/youtube-scripts/courses/libertarian-ethics/slides/homesteading-and-property-rights/38.png</property>
  <property name="ttl">25</property>
  <property name="aspect_ratio">1</property>
  <property name="progressive">1</property>
  <property name="seekable">1</property>
  <property name="meta.media.width">1280</property>
  <property name="meta.media.height">720</property>
  <property name="mlt_service">qimage</property>
  <property name="kdenlive:clipname"/>
  <property name="kdenlive:duration">00:00:05.000</property>
  <property name="kdenlive:folderid">6</property>
  <property name="kdenlive:clip_type">2</property>
  <property name="kdenlive:id">38</property>
  <property name="kdenlive:file_size">20332</property>
  <property name="kdenlive:file_hash">9e935391175dfd191dd7923bc7327671</property>
 </producer>
 <producer id="producer35" in="00:00:00.000" out="00:00:13.360">
  <property name="length">335</property>
  <property name="eof">pause</property>
  <property name="resource">/home/liquidzulu/Documents/youtube-scripts/courses/libertarian-ethics/slides/homesteading-and-property-rights/39.png</property>
  <property name="ttl">25</property>
  <property name="aspect_ratio">1</property>
  <property name="progressive">1</property>
  <property name="seekable">1</property>
  <property name="meta.media.width">1280</property>
  <property name="meta.media.height">720</property>
  <property name="mlt_service">qimage</property>
  <property name="kdenlive:clipname"/>
  <property name="kdenlive:duration">00:00:05.000</property>
  <property name="kdenlive:folderid">6</property>
  <property name="kdenlive:clip_type">2</property>
  <property name="kdenlive:id">39</property>
  <property name="kdenlive:file_size">29637</property>
  <property name="kdenlive:file_hash">0ad3aad89c1ee3383d1c229c1cedc057</property>
 </producer>
 <producer id="producer4" in="00:00:00.000" out="00:00:34.480">
  <property name="length">00:00:34.520</property>
  <property name="eof">pause</property>
  <property name="resource">/home/liquidzulu/Documents/youtube-scripts/courses/libertarian-ethics/slides/homesteading-and-property-rights/4.png</property>
  <property name="ttl">25</property>
  <property name="aspect_ratio">1</property>
  <property name="progressive">1</property>
  <property name="seekable">1</property>
  <property name="meta.media.width">1280</property>
  <property name="meta.media.height">720</property>
  <property name="mlt_service">qimage</property>
  <property name="kdenlive:clipname"/>
  <property name="kdenlive:duration">00:00:05.000</property>
  <property name="kdenlive:folderid">6</property>
  <property name="kdenlive:clip_type">2</property>
  <property name="kdenlive:id">40</property>
  <property name="kdenlive:file_size">17811</property>
  <property name="kdenlive:file_hash">6beaccd77c95a8fe550c4f5684e4facf</property>
 </producer>
 <producer id="producer37" in="00:00:00.000" out="00:00:28.080">
  <property name="length">703</property>
  <property name="eof">pause</property>
  <property name="resource">/home/liquidzulu/Documents/youtube-scripts/courses/libertarian-ethics/slides/homesteading-and-property-rights/40.png</property>
  <property name="ttl">25</property>
  <property name="aspect_ratio">1</property>
  <property name="progressive">1</property>
  <property name="seekable">1</property>
  <property name="meta.media.width">1920</property>
  <property name="meta.media.height">1080</property>
  <property name="mlt_service">qimage</property>
  <property name="kdenlive:clipname"/>
  <property name="kdenlive:duration">00:00:05.000</property>
  <property name="kdenlive:folderid">6</property>
  <property name="kdenlive:clip_type">2</property>
  <property name="kdenlive:id">41</property>
  <property name="kdenlive:file_size">42617</property>
  <property name="kdenlive:file_hash">4e7ebf97a98a16afc6bbce862db0fd49</property>
 </producer>
 <producer id="producer38" in="00:00:00.000" out="00:00:13.800">
  <property name="length">346</property>
  <property name="eof">pause</property>
  <property name="resource">/home/liquidzulu/Documents/youtube-scripts/courses/libertarian-ethics/slides/homesteading-and-property-rights/41.png</property>
  <property name="ttl">25</property>
  <property name="aspect_ratio">1</property>
  <property name="progressive">1</property>
  <property name="seekable">1</property>
  <property name="meta.media.width">1280</property>
  <property name="meta.media.height">720</property>
  <property name="mlt_service">qimage</property>
  <property name="kdenlive:clipname"/>
  <property name="kdenlive:duration">00:00:05.000</property>
  <property name="kdenlive:folderid">6</property>
  <property name="kdenlive:clip_type">2</property>
  <property name="kdenlive:id">42</property>
  <property name="kdenlive:file_size">51060</property>
  <property name="kdenlive:file_hash">8ae066b9fce4a734fd09092cefebc760</property>
 </producer>
 <producer id="producer39" in="00:00:00.000" out="00:00:29.200">
  <property name="length">731</property>
  <property name="eof">pause</property>
  <property name="resource">/home/liquidzulu/Documents/youtube-scripts/courses/libertarian-ethics/slides/homesteading-and-property-rights/42.png</property>
  <property name="ttl">25</property>
  <property name="aspect_ratio">1</property>
  <property name="progressive">1</property>
  <property name="seekable">1</property>
  <property name="meta.media.width">1280</property>
  <property name="meta.media.height">720</property>
  <property name="mlt_service">qimage</property>
  <property name="kdenlive:clipname"/>
  <property name="kdenlive:duration">00:00:05.000</property>
  <property name="kdenlive:folderid">6</property>
  <property name="kdenlive:clip_type">2</property>
  <property name="kdenlive:id">43</property>
  <property name="kdenlive:file_size">101824</property>
  <property name="kdenlive:file_hash">95e30fb512016e3060050340e2f4c2b1</property>
 </producer>
 <producer id="producer42" in="00:00:00.000" out="00:00:32.480">
  <property name="length">813</property>
  <property name="eof">pause</property>
  <property name="resource">/home/liquidzulu/Documents/youtube-scripts/courses/libertarian-ethics/slides/homesteading-and-property-rights/43.png</property>
  <property name="ttl">25</property>
  <property name="aspect_ratio">1</property>
  <property name="progressive">1</property>
  <property name="seekable">1</property>
  <property name="meta.media.width">1280</property>
  <property name="meta.media.height">720</property>
  <property name="mlt_service">qimage</property>
  <property name="kdenlive:clipname"/>
  <property name="kdenlive:duration">00:00:05.000</property>
  <property name="kdenlive:folderid">6</property>
  <property name="kdenlive:clip_type">2</property>
  <property name="kdenlive:id">44</property>
  <property name="kdenlive:file_size">80354</property>
  <property name="kdenlive:file_hash">e907aa4be029696ff9e1e23d38f2cb11</property>
 </producer>
 <producer id="producer40" in="00:00:00.000" out="00:00:29.400">
  <property name="length">736</property>
  <property name="eof">pause</property>
  <property name="resource">/home/liquidzulu/Documents/youtube-scripts/courses/libertarian-ethics/slides/homesteading-and-property-rights/44.png</property>
  <property name="ttl">25</property>
  <property name="aspect_ratio">1</property>
  <property name="progressive">1</property>
  <property name="seekable">1</property>
  <property name="meta.media.width">1280</property>
  <property name="meta.media.height">720</property>
  <property name="mlt_service">qimage</property>
  <property name="kdenlive:clipname"/>
  <property name="kdenlive:duration">00:00:05.000</property>
  <property name="kdenlive:folderid">6</property>
  <property name="kdenlive:clip_type">2</property>
  <property name="kdenlive:id">45</property>
  <property name="kdenlive:file_size">144357</property>
  <property name="kdenlive:file_hash">7a2ee06f3fa8e2133d3df53632a61641</property>
 </producer>
 <producer id="producer41" in="00:00:00.000" out="00:00:04.960">
  <property name="length">00:00:05.000</property>
  <property name="eof">pause</property>
  <property name="resource">/home/liquidzulu/Documents/youtube-scripts/courses/libertarian-ethics/slides/homesteading-and-property-rights/45.png</property>
  <property name="ttl">25</property>
  <property name="aspect_ratio">1</property>
  <property name="progressive">1</property>
  <property name="seekable">1</property>
  <property name="meta.media.width">1920</property>
  <property name="meta.media.height">1080</property>
  <property name="mlt_service">qimage</property>
  <property name="kdenlive:clipname"/>
  <property name="kdenlive:duration">00:00:05.000</property>
  <property name="kdenlive:folderid">6</property>
  <property name="kdenlive:clip_type">2</property>
  <property name="kdenlive:id">46</property>
  <property name="kdenlive:file_size">50193</property>
  <property name="kdenlive:file_hash">9a1faa8aa73bfa9605aa151f96a62f94</property>
 </producer>
 <producer id="producer43" in="00:00:00.000" out="00:00:11.840">
  <property name="length">297</property>
  <property name="eof">pause</property>
  <property name="resource">/home/liquidzulu/Documents/youtube-scripts/courses/libertarian-ethics/slides/homesteading-and-property-rights/46.png</property>
  <property name="ttl">25</property>
  <property name="aspect_ratio">1</property>
  <property name="progressive">1</property>
  <property name="seekable">1</property>
  <property name="meta.media.width">1920</property>
  <property name="meta.media.height">1080</property>
  <property name="mlt_service">qimage</property>
  <property name="kdenlive:clipname"/>
  <property name="kdenlive:duration">00:00:05.000</property>
  <property name="kdenlive:folderid">6</property>
  <property name="kdenlive:clip_type">2</property>
  <property name="kdenlive:id">47</property>
  <property name="kdenlive:file_size">62593</property>
  <property name="kdenlive:file_hash">451ac7d247db721da20b04dfa3572c60</property>
 </producer>
 <producer id="producer44" in="00:00:00.000" out="00:00:43.360">
  <property name="length">1085</property>
  <property name="eof">pause</property>
  <property name="resource">/home/liquidzulu/Documents/youtube-scripts/courses/libertarian-ethics/slides/homesteading-and-property-rights/48.png</property>
  <property name="ttl">25</property>
  <property name="aspect_ratio">1</property>
  <property name="progressive">1</property>
  <property name="seekable">1</property>
  <property name="meta.media.width">1280</property>
  <property name="meta.media.height">720</property>
  <property name="mlt_service">qimage</property>
  <property name="kdenlive:clipname"/>
  <property name="kdenlive:duration">00:00:05.000</property>
  <property name="kdenlive:folderid">6</property>
  <property name="kdenlive:clip_type">2</property>
  <property name="kdenlive:id">48</property>
  <property name="kdenlive:file_size">126242</property>
  <property name="kdenlive:file_hash">202b118df6193844e2a6c78804212b4a</property>
 </producer>
 <producer id="producer74" in="00:00:00.000" out="00:00:19.280">
  <property name="length">483</property>
  <property name="eof">pause</property>
  <property name="resource">/home/liquidzulu/Documents/youtube-scripts/courses/libertarian-ethics/slides/homesteading-and-property-rights/49.png</property>
  <property name="ttl">25</property>
  <property name="aspect_ratio">1</property>
  <property name="progressive">1</property>
  <property name="seekable">1</property>
  <property name="meta.media.width">1280</property>
  <property name="meta.media.height">720</property>
  <property name="mlt_service">qimage</property>
  <property name="kdenlive:clipname"/>
  <property name="kdenlive:duration">00:00:05.000</property>
  <property name="kdenlive:folderid">6</property>
  <property name="kdenlive:clip_type">2</property>
  <property name="kdenlive:id">49</property>
  <property name="kdenlive:file_size">73830</property>
  <property name="kdenlive:file_hash">70ff2c0c414b3b6e5b970dc0cf48624d</property>
 </producer>
 <producer id="producer7" in="00:00:00.000" out="00:00:53.320">
  <property name="length">1334</property>
  <property name="eof">pause</property>
  <property name="resource">/home/liquidzulu/Documents/youtube-scripts/courses/libertarian-ethics/slides/homesteading-and-property-rights/5.png</property>
  <property name="ttl">25</property>
  <property name="aspect_ratio">1</property>
  <property name="progressive">1</property>
  <property name="seekable">1</property>
  <property name="meta.media.width">1280</property>
  <property name="meta.media.height">720</property>
  <property name="mlt_service">qimage</property>
  <property name="kdenlive:clipname"/>
  <property name="kdenlive:duration">00:00:05.000</property>
  <property name="kdenlive:folderid">6</property>
  <property name="kdenlive:clip_type">2</property>
  <property name="kdenlive:id">50</property>
  <property name="kdenlive:file_size">129065</property>
  <property name="kdenlive:file_hash">4cf7992ff142c35608ff060b4ca440bb</property>
 </producer>
 <producer id="producer45" in="00:00:00.000" out="00:00:22.240">
  <property name="length">557</property>
  <property name="eof">pause</property>
  <property name="resource">/home/liquidzulu/Documents/youtube-scripts/courses/libertarian-ethics/slides/homesteading-and-property-rights/50.png</property>
  <property name="ttl">25</property>
  <property name="aspect_ratio">1</property>
  <property name="progressive">1</property>
  <property name="seekable">1</property>
  <property name="meta.media.width">1280</property>
  <property name="meta.media.height">720</property>
  <property name="mlt_service">qimage</property>
  <property name="kdenlive:clipname"/>
  <property name="kdenlive:duration">00:00:05.000</property>
  <property name="kdenlive:folderid">6</property>
  <property name="kdenlive:clip_type">2</property>
  <property name="kdenlive:id">51</property>
  <property name="kdenlive:file_size">85938</property>
  <property name="kdenlive:file_hash">6f607a21de02e33186f24961c70830ce</property>
 </producer>
 <producer id="producer47" in="00:00:00.000" out="00:00:25.800">
  <property name="length">646</property>
  <property name="eof">pause</property>
  <property name="resource">/home/liquidzulu/Documents/youtube-scripts/courses/libertarian-ethics/slides/homesteading-and-property-rights/51.png</property>
  <property name="ttl">25</property>
  <property name="aspect_ratio">1</property>
  <property name="progressive">1</property>
  <property name="seekable">1</property>
  <property name="meta.media.width">1280</property>
  <property name="meta.media.height">720</property>
  <property name="mlt_service">qimage</property>
  <property name="kdenlive:clipname"/>
  <property name="kdenlive:duration">00:00:05.000</property>
  <property name="kdenlive:folderid">6</property>
  <property name="kdenlive:clip_type">2</property>
  <property name="kdenlive:id">52</property>
  <property name="kdenlive:file_size">78359</property>
  <property name="kdenlive:file_hash">a3d542dcd8b703d1c9a0e9bd3b7a2364</property>
 </producer>
 <producer id="producer46" in="00:00:00.000" out="00:00:27.160">
  <property name="length">680</property>
  <property name="eof">pause</property>
  <property name="resource">/home/liquidzulu/Documents/youtube-scripts/courses/libertarian-ethics/slides/homesteading-and-property-rights/52.png</property>
  <property name="ttl">25</property>
  <property name="aspect_ratio">1</property>
  <property name="progressive">1</property>
  <property name="seekable">1</property>
  <property name="meta.media.width">1280</property>
  <property name="meta.media.height">720</property>
  <property name="mlt_service">qimage</property>
  <property name="kdenlive:clipname"/>
  <property name="kdenlive:duration">00:00:05.000</property>
  <property name="kdenlive:folderid">6</property>
  <property name="kdenlive:clip_type">2</property>
  <property name="kdenlive:id">53</property>
  <property name="kdenlive:file_size">98264</property>
  <property name="kdenlive:file_hash">4022cb6882ae500e92f5a2a13e64e07d</property>
 </producer>
 <producer id="producer75" in="00:00:00.000" out="00:00:26.520">
  <property name="length">664</property>
  <property name="eof">pause</property>
  <property name="resource">/home/liquidzulu/Documents/youtube-scripts/courses/libertarian-ethics/slides/homesteading-and-property-rights/53.png</property>
  <property name="ttl">25</property>
  <property name="aspect_ratio">1</property>
  <property name="progressive">1</property>
  <property name="seekable">1</property>
  <property name="meta.media.width">1280</property>
  <property name="meta.media.height">720</property>
  <property name="mlt_service">qimage</property>
  <property name="kdenlive:clipname"/>
  <property name="kdenlive:duration">00:00:05.000</property>
  <property name="kdenlive:folderid">6</property>
  <property name="kdenlive:clip_type">2</property>
  <property name="kdenlive:id">54</property>
  <property name="kdenlive:file_size">88246</property>
  <property name="kdenlive:file_hash">8940b7db0411530b5bc1de66349c2a7f</property>
 </producer>
 <producer id="producer48" in="00:00:00.000" out="00:00:17.560">
  <property name="length">440</property>
  <property name="eof">pause</property>
  <property name="resource">/home/liquidzulu/Documents/youtube-scripts/courses/libertarian-ethics/slides/homesteading-and-property-rights/54.png</property>
  <property name="ttl">25</property>
  <property name="aspect_ratio">1</property>
  <property name="progressive">1</property>
  <property name="seekable">1</property>
  <property name="meta.media.width">1280</property>
  <property name="meta.media.height">720</property>
  <property name="mlt_service">qimage</property>
  <property name="kdenlive:clipname"/>
  <property name="kdenlive:duration">00:00:05.000</property>
  <property name="kdenlive:folderid">6</property>
  <property name="kdenlive:clip_type">2</property>
  <property name="kdenlive:id">55</property>
  <property name="kdenlive:file_size">77885</property>
  <property name="kdenlive:file_hash">5ae806417ce13819ebda1aaebfc7bb38</property>
 </producer>
 <producer id="producer49" in="00:00:00.000" out="00:00:19.320">
  <property name="length">484</property>
  <property name="eof">pause</property>
  <property name="resource">/home/liquidzulu/Documents/youtube-scripts/courses/libertarian-ethics/slides/homesteading-and-property-rights/55.png</property>
  <property name="ttl">25</property>
  <property name="aspect_ratio">1</property>
  <property name="progressive">1</property>
  <property name="seekable">1</property>
  <property name="meta.media.width">1280</property>
  <property name="meta.media.height">720</property>
  <property name="mlt_service">qimage</property>
  <property name="kdenlive:clipname"/>
  <property name="kdenlive:duration">00:00:05.000</property>
  <property name="kdenlive:folderid">6</property>
  <property name="kdenlive:clip_type">2</property>
  <property name="kdenlive:id">56</property>
  <property name="kdenlive:file_size">85589</property>
  <property name="kdenlive:file_hash">883f72f68745d2a2a77ad65e5783f2d3</property>
 </producer>
 <producer id="producer54" in="00:00:00.000" out="00:00:14.840">
  <property name="length">372</property>
  <property name="eof">pause</property>
  <property name="resource">/home/liquidzulu/Documents/youtube-scripts/courses/libertarian-ethics/slides/homesteading-and-property-rights/56.png</property>
  <property name="ttl">25</property>
  <property name="aspect_ratio">1</property>
  <property name="progressive">1</property>
  <property name="seekable">1</property>
  <property name="meta.media.width">1920</property>
  <property name="meta.media.height">1080</property>
  <property name="mlt_service">qimage</property>
  <property name="kdenlive:clipname"/>
  <property name="kdenlive:duration">00:00:05.000</property>
  <property name="kdenlive:folderid">6</property>
  <property name="kdenlive:clip_type">2</property>
  <property name="kdenlive:id">57</property>
  <property name="kdenlive:file_size">64099</property>
  <property name="kdenlive:file_hash">c22f41205723157602d71a8573f1de61</property>
 </producer>
 <producer id="producer53" in="00:00:00.000" out="00:00:29.440">
  <property name="length">737</property>
  <property name="eof">pause</property>
  <property name="resource">/home/liquidzulu/Documents/youtube-scripts/courses/libertarian-ethics/slides/homesteading-and-property-rights/57.png</property>
  <property name="ttl">25</property>
  <property name="aspect_ratio">1</property>
  <property name="progressive">1</property>
  <property name="seekable">1</property>
  <property name="meta.media.width">1920</property>
  <property name="meta.media.height">1080</property>
  <property name="mlt_service">qimage</property>
  <property name="kdenlive:clipname"/>
  <property name="kdenlive:duration">00:00:05.000</property>
  <property name="kdenlive:folderid">6</property>
  <property name="kdenlive:clip_type">2</property>
  <property name="kdenlive:id">58</property>
  <property name="kdenlive:file_size">65067</property>
  <property name="kdenlive:file_hash">6418d5f75f4f2b549936db5898c5b22c</property>
 </producer>
 <producer id="producer52" in="00:00:00.000" out="00:00:35.920">
  <property name="length">899</property>
  <property name="eof">pause</property>
  <property name="resource">/home/liquidzulu/Documents/youtube-scripts/courses/libertarian-ethics/slides/homesteading-and-property-rights/58.png</property>
  <property name="ttl">25</property>
  <property name="aspect_ratio">1</property>
  <property name="progressive">1</property>
  <property name="seekable">1</property>
  <property name="meta.media.width">1920</property>
  <property name="meta.media.height">1080</property>
  <property name="mlt_service">qimage</property>
  <property name="kdenlive:clipname"/>
  <property name="kdenlive:duration">00:00:05.000</property>
  <property name="kdenlive:folderid">6</property>
  <property name="kdenlive:clip_type">2</property>
  <property name="kdenlive:id">59</property>
  <property name="kdenlive:file_size">75562</property>
  <property name="kdenlive:file_hash">75ce6311c4f8dd0eaf6c5e8c8cac97cb</property>
 </producer>
 <producer id="producer73" in="00:00:00.000" out="00:00:23.680">
  <property name="length">593</property>
  <property name="eof">pause</property>
  <property name="resource">/home/liquidzulu/Documents/youtube-scripts/courses/libertarian-ethics/slides/homesteading-and-property-rights/59.png</property>
  <property name="ttl">25</property>
  <property name="aspect_ratio">1</property>
  <property name="progressive">1</property>
  <property name="seekable">1</property>
  <property name="meta.media.width">1920</property>
  <property name="meta.media.height">1080</property>
  <property name="mlt_service">qimage</property>
  <property name="kdenlive:clipname"/>
  <property name="kdenlive:duration">00:00:05.000</property>
  <property name="kdenlive:folderid">6</property>
  <property name="kdenlive:clip_type">2</property>
  <property name="kdenlive:id">60</property>
  <property name="kdenlive:file_size">77365</property>
  <property name="kdenlive:file_hash">c56a9a34f9dd7abd3ac702448ecb8cf0</property>
 </producer>
 <producer id="producer6" in="00:00:00.000" out="00:00:18.240">
  <property name="length">457</property>
  <property name="eof">pause</property>
  <property name="resource">/home/liquidzulu/Documents/youtube-scripts/courses/libertarian-ethics/slides/homesteading-and-property-rights/6.png</property>
  <property name="ttl">25</property>
  <property name="aspect_ratio">1</property>
  <property name="progressive">1</property>
  <property name="seekable">1</property>
  <property name="meta.media.width">1280</property>
  <property name="meta.media.height">720</property>
  <property name="mlt_service">qimage</property>
  <property name="kdenlive:clipname"/>
  <property name="kdenlive:duration">00:00:05.000</property>
  <property name="kdenlive:folderid">6</property>
  <property name="kdenlive:clip_type">2</property>
  <property name="kdenlive:id">61</property>
  <property name="kdenlive:file_size">77337</property>
  <property name="kdenlive:file_hash">ecd2a6214af9e4d4355b44a5f6d98b30</property>
 </producer>
 <producer id="producer72" in="00:00:00.000" out="00:00:16.320">
  <property name="length">409</property>
  <property name="eof">pause</property>
  <property name="resource">/home/liquidzulu/Documents/youtube-scripts/courses/libertarian-ethics/slides/homesteading-and-property-rights/60.png</property>
  <property name="ttl">25</property>
  <property name="aspect_ratio">1</property>
  <property name="progressive">1</property>
  <property name="seekable">1</property>
  <property name="meta.media.width">1920</property>
  <property name="meta.media.height">1080</property>
  <property name="mlt_service">qimage</property>
  <property name="kdenlive:clipname"/>
  <property name="kdenlive:duration">00:00:05.000</property>
  <property name="kdenlive:folderid">6</property>
  <property name="kdenlive:clip_type">2</property>
  <property name="kdenlive:id">62</property>
  <property name="kdenlive:file_size">89343</property>
  <property name="kdenlive:file_hash">37b300cd6b51d0e38b7878a8f37561ed</property>
 </producer>
 <producer id="producer56" in="00:00:00.000" out="00:00:44.280">
  <property name="length">1108</property>
  <property name="eof">pause</property>
  <property name="resource">/home/liquidzulu/Documents/youtube-scripts/courses/libertarian-ethics/slides/homesteading-and-property-rights/61.png</property>
  <property name="ttl">25</property>
  <property name="aspect_ratio">1</property>
  <property name="progressive">1</property>
  <property name="seekable">1</property>
  <property name="meta.media.width">1920</property>
  <property name="meta.media.height">1080</property>
  <property name="mlt_service">qimage</property>
  <property name="kdenlive:clipname"/>
  <property name="kdenlive:duration">00:00:05.000</property>
  <property name="kdenlive:folderid">6</property>
  <property name="kdenlive:clip_type">2</property>
  <property name="kdenlive:id">63</property>
  <property name="kdenlive:file_size">90683</property>
  <property name="kdenlive:file_hash">2849f33a2c4d30c3a9790ef15c5f8fa3</property>
 </producer>
 <producer id="producer55" in="00:00:00.000" out="00:00:04.960">
  <property name="length">00:00:05.000</property>
  <property name="eof">pause</property>
  <property name="resource">/home/liquidzulu/Documents/youtube-scripts/courses/libertarian-ethics/slides/homesteading-and-property-rights/62.png</property>
  <property name="ttl">25</property>
  <property name="aspect_ratio">1</property>
  <property name="progressive">1</property>
  <property name="seekable">1</property>
  <property name="meta.media.width">1280</property>
  <property name="meta.media.height">720</property>
  <property name="mlt_service">qimage</property>
  <property name="kdenlive:clipname"/>
  <property name="kdenlive:duration">00:00:05.000</property>
  <property name="kdenlive:folderid">6</property>
  <property name="kdenlive:clip_type">2</property>
  <property name="kdenlive:id">64</property>
  <property name="kdenlive:file_size">22795</property>
  <property name="kdenlive:file_hash">b9b8a5655ae20aa604a0e15d9c4af145</property>
 </producer>
 <producer id="producer85" in="00:00:00.000" out="00:01:29.240">
  <property name="length">2232</property>
  <property name="eof">pause</property>
  <property name="resource">/home/liquidzulu/Documents/youtube-scripts/courses/libertarian-ethics/slides/homesteading-and-property-rights/63.png</property>
  <property name="ttl">25</property>
  <property name="aspect_ratio">1</property>
  <property name="progressive">1</property>
  <property name="seekable">1</property>
  <property name="meta.media.width">1920</property>
  <property name="meta.media.height">1080</property>
  <property name="mlt_service">qimage</property>
  <property name="kdenlive:clipname"/>
  <property name="kdenlive:duration">00:00:05.000</property>
  <property name="kdenlive:folderid">6</property>
  <property name="kdenlive:clip_type">2</property>
  <property name="kdenlive:id">65</property>
  <property name="kdenlive:file_size">92028</property>
  <property name="kdenlive:file_hash">b9454f4685379f1108b46c183c5b9423</property>
 </producer>
 <producer id="producer57" in="00:00:00.000" out="00:00:25.560">
  <property name="length">640</property>
  <property name="eof">pause</property>
  <property name="resource">/home/liquidzulu/Documents/youtube-scripts/courses/libertarian-ethics/slides/homesteading-and-property-rights/64.png</property>
  <property name="ttl">25</property>
  <property name="aspect_ratio">1</property>
  <property name="progressive">1</property>
  <property name="seekable">1</property>
  <property name="meta.media.width">1280</property>
  <property name="meta.media.height">720</property>
  <property name="mlt_service">qimage</property>
  <property name="kdenlive:clipname"/>
  <property name="kdenlive:duration">00:00:05.000</property>
  <property name="kdenlive:folderid">6</property>
  <property name="kdenlive:clip_type">2</property>
  <property name="kdenlive:id">66</property>
  <property name="kdenlive:file_size">123257</property>
  <property name="kdenlive:file_hash">ba94c6d2f523418992cc5be311baa227</property>
 </producer>
 <producer id="producer58" in="00:00:00.000" out="00:00:19.840">
  <property name="length">497</property>
  <property name="eof">pause</property>
  <property name="resource">/home/liquidzulu/Documents/youtube-scripts/courses/libertarian-ethics/slides/homesteading-and-property-rights/65.png</property>
  <property name="ttl">25</property>
  <property name="aspect_ratio">1</property>
  <property name="progressive">1</property>
  <property name="seekable">1</property>
  <property name="meta.media.width">1280</property>
  <property name="meta.media.height">720</property>
  <property name="mlt_service">qimage</property>
  <property name="kdenlive:clipname"/>
  <property name="kdenlive:duration">00:00:05.000</property>
  <property name="kdenlive:folderid">6</property>
  <property name="kdenlive:clip_type">2</property>
  <property name="kdenlive:id">67</property>
  <property name="kdenlive:file_size">61464</property>
  <property name="kdenlive:file_hash">e45e60b7b24d52f520b1a7826a0433f4</property>
 </producer>
 <producer id="producer59" in="00:00:00.000" out="00:00:04.960">
  <property name="length">00:00:05.000</property>
  <property name="eof">pause</property>
  <property name="resource">/home/liquidzulu/Documents/youtube-scripts/courses/libertarian-ethics/slides/homesteading-and-property-rights/66.png</property>
  <property name="ttl">25</property>
  <property name="aspect_ratio">1</property>
  <property name="progressive">1</property>
  <property name="seekable">1</property>
  <property name="meta.media.width">1280</property>
  <property name="meta.media.height">720</property>
  <property name="mlt_service">qimage</property>
  <property name="kdenlive:clipname"/>
  <property name="kdenlive:duration">00:00:05.000</property>
  <property name="kdenlive:folderid">6</property>
  <property name="kdenlive:clip_type">2</property>
  <property name="kdenlive:id">68</property>
  <property name="kdenlive:file_size">5341</property>
  <property name="kdenlive:file_hash">d248b42f3a51272ea147b65573e330a4</property>
 </producer>
 <producer id="producer60" in="00:00:00.000" out="00:00:44.560">
  <property name="length">1115</property>
  <property name="eof">pause</property>
  <property name="resource">/home/liquidzulu/Documents/youtube-scripts/courses/libertarian-ethics/slides/homesteading-and-property-rights/67.png</property>
  <property name="ttl">25</property>
  <property name="aspect_ratio">1</property>
  <property name="progressive">1</property>
  <property name="seekable">1</property>
  <property name="meta.media.width">1280</property>
  <property name="meta.media.height">720</property>
  <property name="mlt_service">qimage</property>
  <property name="kdenlive:clipname"/>
  <property name="kdenlive:duration">00:00:05.000</property>
  <property name="kdenlive:folderid">6</property>
  <property name="kdenlive:clip_type">2</property>
  <property name="kdenlive:id">69</property>
  <property name="kdenlive:file_size">136996</property>
  <property name="kdenlive:file_hash">2f94aec784534b961baf0a1e7c3afc94</property>
 </producer>
 <producer id="producer62" in="00:00:00.000" out="00:00:39.040">
  <property name="length">977</property>
  <property name="eof">pause</property>
  <property name="resource">/home/liquidzulu/Documents/youtube-scripts/courses/libertarian-ethics/slides/homesteading-and-property-rights/68.png</property>
  <property name="ttl">25</property>
  <property name="aspect_ratio">1</property>
  <property name="progressive">1</property>
  <property name="seekable">1</property>
  <property name="meta.media.width">1280</property>
  <property name="meta.media.height">720</property>
  <property name="mlt_service">qimage</property>
  <property name="kdenlive:clipname"/>
  <property name="kdenlive:duration">00:00:05.000</property>
  <property name="kdenlive:folderid">6</property>
  <property name="kdenlive:clip_type">2</property>
  <property name="kdenlive:id">70</property>
  <property name="kdenlive:file_size">89713</property>
  <property name="kdenlive:file_hash">68d91f1e8a9f9657be8608d21f0a2ae9</property>
 </producer>
 <producer id="producer61" in="00:00:00.000" out="00:00:21.720">
  <property name="length">544</property>
  <property name="eof">pause</property>
  <property name="resource">/home/liquidzulu/Documents/youtube-scripts/courses/libertarian-ethics/slides/homesteading-and-property-rights/69.png</property>
  <property name="ttl">25</property>
  <property name="aspect_ratio">1</property>
  <property name="progressive">1</property>
  <property name="seekable">1</property>
  <property name="meta.media.width">1280</property>
  <property name="meta.media.height">720</property>
  <property name="mlt_service">qimage</property>
  <property name="kdenlive:clipname"/>
  <property name="kdenlive:duration">00:00:05.000</property>
  <property name="kdenlive:folderid">6</property>
  <property name="kdenlive:clip_type">2</property>
  <property name="kdenlive:id">71</property>
  <property name="kdenlive:file_size">81296</property>
  <property name="kdenlive:file_hash">d9a3ad9f029b37659137f7084ce68887</property>
 </producer>
 <producer id="producer69" in="00:00:00.000" out="00:00:20.560">
  <property name="length">515</property>
  <property name="eof">pause</property>
  <property name="resource">/home/liquidzulu/Documents/youtube-scripts/courses/libertarian-ethics/slides/homesteading-and-property-rights/7.png</property>
  <property name="ttl">25</property>
  <property name="aspect_ratio">1</property>
  <property name="progressive">1</property>
  <property name="seekable">1</property>
  <property name="meta.media.width">1280</property>
  <property name="meta.media.height">720</property>
  <property name="mlt_service">qimage</property>
  <property name="kdenlive:clipname"/>
  <property name="kdenlive:duration">00:00:05.000</property>
  <property name="kdenlive:folderid">6</property>
  <property name="kdenlive:clip_type">2</property>
  <property name="kdenlive:id">72</property>
  <property name="kdenlive:file_size">30954</property>
  <property name="kdenlive:file_hash">7de58d87710a7c0a136c1ed5151362d5</property>
 </producer>
 <producer id="producer63" in="00:00:00.000" out="00:00:34.120">
  <property name="length">854</property>
  <property name="eof">pause</property>
  <property name="resource">/home/liquidzulu/Documents/youtube-scripts/courses/libertarian-ethics/slides/homesteading-and-property-rights/70.png</property>
  <property name="ttl">25</property>
  <property name="aspect_ratio">1</property>
  <property name="progressive">1</property>
  <property name="seekable">1</property>
  <property name="meta.media.width">1280</property>
  <property name="meta.media.height">720</property>
  <property name="mlt_service">qimage</property>
  <property name="kdenlive:clipname"/>
  <property name="kdenlive:duration">00:00:05.000</property>
  <property name="kdenlive:folderid">6</property>
  <property name="kdenlive:clip_type">2</property>
  <property name="kdenlive:id">73</property>
  <property name="kdenlive:file_size">111332</property>
  <property name="kdenlive:file_hash">25758e1259e0fa98c4308552ae85ef0a</property>
 </producer>
 <producer id="producer64" in="00:00:00.000" out="00:00:27.560">
  <property name="length">690</property>
  <property name="eof">pause</property>
  <property name="resource">/home/liquidzulu/Documents/youtube-scripts/courses/libertarian-ethics/slides/homesteading-and-property-rights/71.png</property>
  <property name="ttl">25</property>
  <property name="aspect_ratio">1</property>
  <property name="progressive">1</property>
  <property name="seekable">1</property>
  <property name="meta.media.width">1280</property>
  <property name="meta.media.height">720</property>
  <property name="mlt_service">qimage</property>
  <property name="kdenlive:clipname"/>
  <property name="kdenlive:duration">00:00:05.000</property>
  <property name="kdenlive:folderid">6</property>
  <property name="kdenlive:clip_type">2</property>
  <property name="kdenlive:id">74</property>
  <property name="kdenlive:file_size">99086</property>
  <property name="kdenlive:file_hash">81b8323b71d89d13d05c1e5b592e772e</property>
 </producer>
 <producer id="producer65" in="00:00:00.000" out="00:00:27.320">
  <property name="length">684</property>
  <property name="eof">pause</property>
  <property name="resource">/home/liquidzulu/Documents/youtube-scripts/courses/libertarian-ethics/slides/homesteading-and-property-rights/72.png</property>
  <property name="ttl">25</property>
  <property name="aspect_ratio">1</property>
  <property name="progressive">1</property>
  <property name="seekable">1</property>
  <property name="meta.media.width">1280</property>
  <property name="meta.media.height">720</property>
  <property name="mlt_service">qimage</property>
  <property name="kdenlive:clipname"/>
  <property name="kdenlive:duration">00:00:05.000</property>
  <property name="kdenlive:folderid">6</property>
  <property name="kdenlive:clip_type">2</property>
  <property name="kdenlive:id">75</property>
  <property name="kdenlive:file_size">120767</property>
  <property name="kdenlive:file_hash">5d3b6e9efa2d5f145e3352d7ac8f2aca</property>
 </producer>
 <producer id="producer66" in="00:00:00.000" out="00:00:04.960">
  <property name="length">00:00:05.000</property>
  <property name="eof">pause</property>
  <property name="resource">/home/liquidzulu/Documents/youtube-scripts/courses/libertarian-ethics/slides/homesteading-and-property-rights/73.png</property>
  <property name="ttl">25</property>
  <property name="aspect_ratio">1</property>
  <property name="progressive">1</property>
  <property name="seekable">1</property>
  <property name="meta.media.width">1280</property>
  <property name="meta.media.height">720</property>
  <property name="mlt_service">qimage</property>
  <property name="kdenlive:clipname"/>
  <property name="kdenlive:duration">00:00:05.000</property>
  <property name="kdenlive:folderid">6</property>
  <property name="kdenlive:clip_type">2</property>
  <property name="kdenlive:id">76</property>
  <property name="kdenlive:file_size">5341</property>
  <property name="kdenlive:file_hash">d248b42f3a51272ea147b65573e330a4</property>
 </producer>
 <producer id="producer67" in="00:00:00.000" out="00:01:32.440">
  <property name="length">2312</property>
  <property name="eof">pause</property>
  <property name="resource">/home/liquidzulu/Documents/youtube-scripts/courses/libertarian-ethics/slides/homesteading-and-property-rights/74.png</property>
  <property name="ttl">25</property>
  <property name="aspect_ratio">1</property>
  <property name="progressive">1</property>
  <property name="seekable">1</property>
  <property name="meta.media.width">1280</property>
  <property name="meta.media.height">720</property>
  <property name="mlt_service">qimage</property>
  <property name="kdenlive:clipname"/>
  <property name="kdenlive:duration">00:00:05.000</property>
  <property name="kdenlive:folderid">6</property>
  <property name="kdenlive:clip_type">2</property>
  <property name="kdenlive:id">77</property>
  <property name="kdenlive:file_size">41506</property>
  <property name="kdenlive:file_hash">a157b8d259ef1375403f3969a892a0c9</property>
 </producer>
 <producer id="producer70" in="00:00:00.000" out="00:00:15.680">
  <property name="length">393</property>
  <property name="eof">pause</property>
  <property name="resource">/home/liquidzulu/Documents/youtube-scripts/courses/libertarian-ethics/slides/homesteading-and-property-rights/75.png</property>
  <property name="ttl">25</property>
  <property name="aspect_ratio">1</property>
  <property name="progressive">1</property>
  <property name="seekable">1</property>
  <property name="meta.media.width">1280</property>
  <property name="meta.media.height">720</property>
  <property name="mlt_service">qimage</property>
  <property name="kdenlive:clipname"/>
  <property name="kdenlive:duration">00:00:05.000</property>
  <property name="kdenlive:folderid">6</property>
  <property name="kdenlive:clip_type">2</property>
  <property name="kdenlive:id">78</property>
  <property name="kdenlive:file_size">43939</property>
  <property name="kdenlive:file_hash">956f301ccb4b3a2c8ef44a904bfb110b</property>
 </producer>
 <producer id="producer68" in="00:00:00.000" out="00:00:04.960">
  <property name="length">00:00:05.000</property>
  <property name="eof">pause</property>
  <property name="resource">/home/liquidzulu/Documents/youtube-scripts/courses/libertarian-ethics/slides/homesteading-and-property-rights/76.png</property>
  <property name="ttl">25</property>
  <property name="aspect_ratio">1</property>
  <property name="progressive">1</property>
  <property name="seekable">1</property>
  <property name="meta.media.width">1280</property>
  <property name="meta.media.height">720</property>
  <property name="mlt_service">qimage</property>
  <property name="kdenlive:clipname"/>
  <property name="kdenlive:duration">00:00:05.000</property>
  <property name="kdenlive:folderid">6</property>
  <property name="kdenlive:clip_type">2</property>
  <property name="kdenlive:id">79</property>
  <property name="kdenlive:file_size">92094</property>
  <property name="kdenlive:file_hash">7eb2f46ea620ac28e5b4526a94018aa3</property>
 </producer>
 <producer id="producer77" in="00:00:00.000" out="00:00:13.560">
  <property name="length">340</property>
  <property name="eof">pause</property>
  <property name="resource">/home/liquidzulu/Documents/youtube-scripts/courses/libertarian-ethics/slides/homesteading-and-property-rights/8.png</property>
  <property name="ttl">25</property>
  <property name="aspect_ratio">1</property>
  <property name="progressive">1</property>
  <property name="seekable">1</property>
  <property name="meta.media.width">1280</property>
  <property name="meta.media.height">720</property>
  <property name="mlt_service">qimage</property>
  <property name="kdenlive:clipname"/>
  <property name="kdenlive:duration">00:00:05.000</property>
  <property name="kdenlive:folderid">6</property>
  <property name="kdenlive:clip_type">2</property>
  <property name="kdenlive:id">80</property>
  <property name="kdenlive:file_size">61826</property>
  <property name="kdenlive:file_hash">3e4bd858bcb2eb6676fa5b179c1756a6</property>
 </producer>
 <producer id="producer78" in="00:00:00.000" out="00:00:04.960">
  <property name="length">00:00:05.000</property>
  <property name="eof">pause</property>
  <property name="resource">/home/liquidzulu/Documents/youtube-scripts/courses/libertarian-ethics/slides/homesteading-and-property-rights/9.png</property>
  <property name="ttl">25</property>
  <property name="aspect_ratio">1</property>
  <property name="progressive">1</property>
  <property name="seekable">1</property>
  <property name="meta.media.width">1280</property>
  <property name="meta.media.height">720</property>
  <property name="mlt_service">qimage</property>
  <property name="kdenlive:clipname"/>
  <property name="kdenlive:duration">00:00:05.000</property>
  <property name="kdenlive:folderid">6</property>
  <property name="kdenlive:clip_type">2</property>
  <property name="kdenlive:id">81</property>
  <property name="kdenlive:file_size">25922</property>
  <property name="kdenlive:file_hash">bfdcae9b47c30adac910a1df84ab60b2</property>
 </producer>
 <producer id="producer71" in="00:00:00.000" out="00:00:04.960">
  <property name="length">00:00:05.000</property>
  <property name="eof">pause</property>
  <property name="resource">/home/liquidzulu/Documents/youtube-scripts/courses/libertarian-ethics/slides/homesteading-and-property-rights/77.png</property>
  <property name="ttl">25</property>
  <property name="aspect_ratio">1</property>
  <property name="progressive">1</property>
  <property name="seekable">1</property>
  <property name="meta.media.width">1280</property>
  <property name="meta.media.height">720</property>
  <property name="mlt_service">qimage</property>
  <property name="kdenlive:clipname"/>
  <property name="kdenlive:duration">00:00:05.000</property>
  <property name="kdenlive:folderid">6</property>
  <property name="kdenlive:clip_type">2</property>
  <property name="kdenlive:id">82</property>
  <property name="kdenlive:file_size">18047</property>
  <property name="kdenlive:file_hash">94bd9f1a8d5427b85960234be4265964</property>
 </producer>
 <producer id="producer81" in="00:00:00.000" out="00:05:27.000">
  <property name="length">8176</property>
  <property name="eof">pause</property>
  <property name="resource">/home/liquidzulu/Videos/Adams County Officials Ignore Keep Out SIgns and Violate Private Property Laws_360p.mp4</property>
  <property name="audio_index">-1</property>
  <property name="video_index">0</property>
  <property name="mute_on_pause">0</property>
  <property name="mlt_service">avformat-novalidate</property>
  <property name="meta.media.nb_streams">2</property>
  <property name="meta.media.0.stream.type">video</property>
  <property name="meta.media.0.stream.frame_rate">30</property>
  <property name="meta.media.0.stream.sample_aspect_ratio">0</property>
  <property name="meta.media.0.codec.width">480</property>
  <property name="meta.media.0.codec.height">360</property>
  <property name="meta.media.0.codec.rotate">0</property>
  <property name="meta.media.0.codec.pix_fmt">yuv420p</property>
  <property name="meta.media.0.codec.sample_aspect_ratio">1</property>
  <property name="meta.media.0.codec.colorspace">709</property>
  <property name="meta.media.0.codec.color_trc">1</property>
  <property name="meta.media.0.codec.name">h264</property>
  <property name="meta.media.0.codec.long_name">H.264 / AVC / MPEG-4 AVC / MPEG-4 part 10</property>
  <property name="meta.media.0.codec.bit_rate">271042</property>
  <property name="meta.attr.0.stream.creation_time.markup">2022-12-19T19:47:15.000000Z</property>
  <property name="meta.attr.0.stream.handler_name.markup">ISO Media file produced by Google Inc. Created on: 12/19/2022.</property>
  <property name="meta.attr.0.stream.vendor_id.markup">[0][0][0][0]</property>
  <property name="meta.media.1.stream.type">audio</property>
  <property name="meta.media.1.codec.sample_fmt">fltp</property>
  <property name="meta.media.1.codec.sample_rate">44100</property>
  <property name="meta.media.1.codec.channels">2</property>
  <property name="meta.media.1.codec.name">aac</property>
  <property name="meta.media.1.codec.long_name">AAC (Advanced Audio Coding)</property>
  <property name="meta.media.1.codec.bit_rate">128008</property>
  <property name="meta.attr.1.stream.creation_time.markup">2022-12-19T19:47:15.000000Z</property>
  <property name="meta.attr.1.stream.handler_name.markup">ISO Media file produced by Google Inc. Created on: 12/19/2022.</property>
  <property name="meta.attr.1.stream.vendor_id.markup">[0][0][0][0]</property>
  <property name="meta.attr.major_brand.markup">mp42</property>
  <property name="meta.attr.minor_version.markup">0</property>
  <property name="meta.attr.compatible_brands.markup">isommp42</property>
  <property name="meta.attr.creation_time.markup">2022-12-19T19:47:15.000000Z</property>
  <property name="seekable">1</property>
  <property name="meta.media.sample_aspect_num">1</property>
  <property name="meta.media.sample_aspect_den">1</property>
  <property name="aspect_ratio">1</property>
  <property name="kdenlive:clipname"/>
  <property name="meta.media.frame_rate_num">30</property>
  <property name="meta.media.frame_rate_den">1</property>
  <property name="meta.media.colorspace">709</property>
  <property name="meta.media.color_trc">1</property>
  <property name="meta.media.has_b_frames">1</property>
  <property name="meta.media.width">480</property>
  <property name="meta.media.height">360</property>
  <property name="meta.media.color_range">mpeg</property>
  <property name="meta.media.top_field_first">0</property>
  <property name="meta.media.progressive">1</property>
  <property name="kdenlive:clip_type">0</property>
  <property name="kdenlive:folderid">-1</property>
  <property name="kdenlive:id">83</property>
  <property name="kdenlive:file_size">16470931</property>
  <property name="kdenlive:file_hash">8ad5d95544cf61650ab00b7e3b37c0d4</property>
  <property name="kdenlive:audio_max1">222</property>
  <property name="kdenlive:active_streams">-1</property>
  <property name="set.test_audio">1</property>
 </producer>
 <producer id="producer82" in="00:00:00.000" out="00:44:35.760">
  <property name="length">66895</property>
  <property name="eof">pause</property>
  <property name="resource">/home/liquidzulu/Documents/books/non fiction/Austro-Libertarianism/Hans-Hermann Hoppe/A Theory of Socialism and Capitalism Audiobook/07-theory-of-socialism-and-capitalism-chapter-7.mp3</property>
  <property name="meta.media.nb_streams">2</property>
  <property name="meta.media.0.stream.type">audio</property>
  <property name="meta.media.0.codec.sample_fmt">fltp</property>
  <property name="meta.media.0.codec.sample_rate">44100</property>
  <property name="meta.media.0.codec.channels">1</property>
  <property name="meta.media.0.codec.name">mp3float</property>
  <property name="meta.media.0.codec.long_name">MP3 (MPEG audio layer 3)</property>
  <property name="meta.media.0.codec.bit_rate">64000</property>
  <property name="meta.media.1.stream.type">video</property>
  <property name="meta.media.1.stream.frame_rate">-nan</property>
  <property name="meta.media.1.stream.sample_aspect_ratio">0</property>
  <property name="meta.media.1.codec.width">2400</property>
  <property name="meta.media.1.codec.height">2400</property>
  <property name="meta.media.1.codec.rotate">0</property>
  <property name="meta.media.1.codec.pix_fmt">yuvj444p</property>
  <property name="meta.media.1.codec.sample_aspect_ratio">0</property>
  <property name="meta.media.1.codec.colorspace">601</property>
  <property name="meta.media.1.codec.name">mjpeg</property>
  <property name="meta.media.1.codec.long_name">MJPEG (Motion JPEG)</property>
  <property name="meta.media.1.codec.bit_rate">0</property>
  <property name="meta.attr.1.stream.comment.markup">Cover (front)</property>
  <property name="meta.attr.album_artist.markup">Mises Institute</property>
  <property name="meta.attr.comment.markup">Narrated by Jim Vann.</property>
  <property name="meta.attr.VideoKind.markup">2</property>
  <property name="meta.attr.compilation.markup">1</property>
  <property name="meta.attr.title.markup">Chapter 7. The Ethical Justification of Capitalism and Why Socialism Is Morally Indefensible</property>
  <property name="meta.attr.artist.markup">Hans-Hermann Hoppe</property>
  <property name="meta.attr.album.markup">A Theory of Socialism and Capitalism</property>
  <property name="meta.attr.track.markup">07</property>
  <property name="meta.attr.genre.markup">Speech</property>
  <property name="meta.attr.date.markup">2019-04-05 10:12</property>
  <property name="meta.attr.id3v2_priv.XMP.markup">&lt;?xpacket begin="\xef\xbb\xbf" id="W5M0MpCehiHzreSzNTczkc9d"?>\x0a&lt;x:xmpmeta xmlns:x="adobe:ns:meta/" x:xmptk="Adobe XMP Core 5.6-c144 79.162045, 2018/01/23-06:05:52        ">\x0a &lt;rdf:RDF xmlns:rdf="http://www.w3.org/1999/02/22-rdf-syntax-ns#">\x0a  &lt;rdf:Description rdf:about=""\x0a    xmlns:xmp="http://ns.adobe.com/xap/1.0/"\x0a    xmlns:xmpMM="http://ns.adobe.com/xap/1.0/mm/"\x0a    xmlns:stEvt="http://ns.adobe.com/xap/1.0/sType/ResourceEvent#"\x0a    xmlns:stRef="http://ns.adobe.com/xap/1.0/sType/ResourceRef#"\x0a    xmlns:dc="http://purl.org/dc/elements/1.1/"\x0a    xmlns:xmpDM="http://ns.adobe.com/xmp/1.0/DynamicMedia/"\x0a    xmlns:bext="http://ns.adobe.com/bwf/bext/1.0/"\x0a   xmp:CreatorTool="Adobe Audition CC 2014.2 (Windows)"\x0a   xmp:CreateDate="2019-04-05T10:12:40-04:00"\x0a   xmp:MetadataDate="2019-05-01T11:36:27-05:00"\x0a   xmp:ModifyDate="2019-05-01T11:36:27-05:00"\x0a   xmpMM:InstanceID="xmp.iid:891d874d-e21c-2a4e-8586-da215df1b2d1"\x0a   xmpMM:DocumentID="xmp.did:891d874d-e21c-2a4e-8586-da215df1b2d1"\x0a   xmpMM:OriginalDocumentID="xmp.did:9247569d-ef49-6f4f-882b-8c4e66d515c4"\x0a   dc:format="audio/mpeg"\x0a   xmpDM:partOfCompilation="false"\x0a   bext:originator="iZotope RX 5 Audio Editor"\x0a   bext:originatorReference="USIZT000878667534152008073865492"\x0a   bext:originationDate="2019-04-29"\x0a   bext:originationTime="15:20:08"\x0a   bext:version="1"\x0a   bext:timeReference="0">\x0a   &lt;xmpMM:History>\x0a    &lt;rdf:Seq>\x0a     &lt;rdf:li\x0a      stEvt:action="saved"\x0a      stEvt:instanceID="xmp.iid:9247569d-ef49-6f4f-882b-8c4e66d515c4"\x0a      stEvt:when="2019-04-05T10:46:10-04:00"\x0a      stEvt:softwareAgent="Adobe Audition CC 2014.2 (Windows)"\x0a      stEvt:changed="/metadata"/>\x0a     &lt;rdf:li\x0a      stEvt:action="saved"\x0a      stEvt:instanceID="xmp.iid:c224b5da-0346-fb42-b36f-e24591a34d49"\x0a      stEvt:when="2019-04-05T10:46:10-04:00"\x0a      stEvt:softwareAgent="Adobe Audition CC 2014.2 (Windows)"\x0a      stEvt:changed="/"/>\x0a     &lt;rdf:li\x0a      stEvt:action="saved"\x0a      stEvt:instanceID="xmp.iid:58afdde9-aca8-8647-85fd-495785b2bdc7"\x0a      stEvt:when="2019-04-06T15:30:48-04:00"\x0a      stEvt:softwareAgent="Adobe Audition CC 2014.2 (Windows)"\x0a      stEvt:changed="/metadata"/>\x0a     &lt;rdf:li\x0a      stEvt:action="saved"\x0a      stEvt:instanceID="xmp.iid:98223ef4-f20c-3449-9b60-bc1ec048eeb7"\x0a      stEvt:when="2019-04-06T15:30:48-04:00"\x0a      stEvt:softwareAgent="Adobe Audition CC 2014.2 (Windows)"\x0a      stEvt:changed="/"/>\x0a     &lt;rdf:li\x0a      stEvt:action="saved"\x0a      stEvt:instanceID="xmp.iid:3d1c2679-60d2-5349-98ef-c5c4c215f644"\x0a      stEvt:when="2019-04-07T14:59:10-04:00"\x0a      stEvt:softwareAgent="Adobe Audition CC 2014.2 (Windows)"\x0a      stEvt:changed="/metadata"/>\x0a     &lt;rdf:li\x0a      stEvt:action="converted"\x0a      stEvt:parameters="from audio/x-wav to audio/mpeg"/>\x0a     &lt;rdf:li\x0a      stEvt:action="saved"\x0a      stEvt:instanceID="xmp.iid:a9e7eed4-abcd-bc44-a8f1-66cddeefc1f1"\x0a      stEvt:when="2019-04-07T14:59:10-04:00"\x0a      stEvt:softwareAgent="Adobe Audition CC 2014.2 (Windows)"/>\x0a     &lt;rdf:li\x0a      stEvt:action="converted"\x0a      stEvt:parameters="from audio/x-wav to audio/mpeg"/>\x0a     &lt;rdf:li\x0a      stEvt:action="saved"\x0a      stEvt:instanceID="xmp.iid:ce3383ae-5f78-ad47-afb1-60f63e40e6e9"\x0a      stEvt:when="2019-04-07T14:59:10-04:00"\x0a      stEvt:softwareAgent="Adobe Audition CC 2014.2 (Windows)"\x0a      stEvt:changed="/"/>\x0a     &lt;rdf:li\x0a      stEvt:action="saved"\x0a      stEvt:instanceID="xmp.iid:41cedfc0-6b98-a248-a9f9-7908f2a3f1db"\x0a      stEvt:when="2019-04-29T14:03:19-05:00"\x0a      stEvt:softwareAgent="Adobe Audition CC 2018.1 (Windows)"\x0a      stEvt:changed="/metadata"/>\x0a     &lt;rdf:li\x0a      stEvt:action="converted"\x0a      stEvt:parameters="from audio/mpeg to audio/x-wav"/>\x0a     &lt;rdf:li\x0a      stEvt:action="saved"\x0a      stEvt:instanceID="xmp.iid:3bb20754-463c-1846-ae28-8bdb1725750f"\x0a      stEvt:when="2019-04-29T14:03:19-05:00"\x0a      stEvt:softwareAgent="Adobe Audition CC 2018.1 (Windows)"/>\x0a     &lt;rdf:li\x0a      stEvt:action="converted"\x0a      stEvt:parameters="from audio/mpeg to audio/x-wav"/>\x0a     &lt;rdf:li\x0a      stEvt:action="saved"\x0a      stEvt:instanceID="xmp.iid:a0941e18-b9b0-f34b-887c-429b5801c1d8"\x0a      stEvt:when="2019-04-29T14:03:19-05:00"\x0a      stEvt:softwareAgent="Adobe Audition CC 2018.1 (Windows)"\x0a      stEvt:changed="/"/>\x0a     &lt;rdf:li\x0a      stEvt:action="saved"\x0a      stEvt:instanceID="xmp.iid:d834d9ba-0da1-1d4d-bdd7-af0386c94ec3"\x0a      stEvt:when="2019-05-01T10:44:13-05:00"\x0a      stEvt:softwareAgent="Adobe Audition CC 2018.1 (Windows)"\x0a      stEvt:changed="/metadata"/>\x0a     &lt;rdf:li\x0a      stEvt:action="saved"\x0a      stEvt:instanceID="xmp.iid:85196c26-7f02-5c44-bb95-2230da0fe736"\x0a      stEvt:when="2019-05-01T10:44:13-05:00"\x0a      stEvt:softwareAgent="Adobe Audition CC 2018.1 (Windows)"\x0a      stEvt:changed="/"/>\x0a     &lt;rdf:li\x0a      stEvt:action="saved"\x0a      stEvt:instanceID="xmp.iid:8ffc0e98-fa78-4f4d-99ee-86b974a9d414"\x0a      stEvt:when="2019-05-01T11:36:27-05:00"\x0a      stEvt:softwareAgent="Adobe Audition CC 2018.1 (Windows)"\x0a      stEvt:changed="/metadata"/>\x0a     &lt;rdf:li\x0a      stEvt:action="converted"\x0a      stEvt:parameters="from audio/x-wav to audio/mpeg"/>\x0a     &lt;rdf:li\x0a      stEvt:action="saved"\x0a      stEvt:instanceID="xmp.iid:6a8fe0d0-5a22-ef46-9c00-25cfbbe8014f"\x0a      stEvt:when="2019-05-01T11:36:27-05:00"\x0a      stEvt:softwareAgent="Adobe Audition CC 2018.1 (Windows)"/>\x0a     &lt;rdf:li\x0a      stEvt:action="converted"\x0a      stEvt:parameters="from audio/x-wav to audio/mpeg"/>\x0a     &lt;rdf:li\x0a      stEvt:action="saved"\x0a      stEvt:instanceID="xmp.iid:891d874d-e21c-2a4e-8586-da215df1b2d1"\x0a      stEvt:when="2019-05-01T11:36:27-05:00"\x0a      stEvt:softwareAgent="Adobe Audition CC 2018.1 (Windows)"\x0a      stEvt:changed="/"/>\x0a    &lt;/rdf:Seq>\x0a   &lt;/xmpMM:History>\x0a   &lt;xmpMM:DerivedFrom\x0a    stRef:instanceID="xmp.iid:6a8fe0d0-5a22-ef46-9c00-25cfbbe8014f"\x0a    stRef:documentID="xmp.did:6a8fe0d0-5a22-ef46-9c00-25cfbbe8014f"\x0a    stRef:originalDocumentID="xmp.did:9247569d-ef49-6f4f-882b-8c4e66d515c4"/>\x0a   &lt;xmpDM:Tracks>\x0a    &lt;rdf:Bag>\x0a     &lt;rdf:li\x0a      xmpDM:trackName="CuePoint Markers"\x0a      xmpDM:trackType="Cue"\x0a      xmpDM:frameRate="f44100"/>\x0a     &lt;rdf:li\x0a      xmpDM:trackName="CD Track Markers"\x0a      xmpDM:trackType="Track"\x0a      xmpDM:frameRate="f44100"/>\x0a     &lt;rdf:li\x0a      xmpDM:trackName="Subclip Markers"\x0a      xmpDM:trackType="InOut"\x0a      xmpDM:frameRate="f44100"/>\x0a    &lt;/rdf:Bag>\x0a   &lt;/xmpDM:Tracks>\x0a  &lt;/rdf:Description>\x0a &lt;/rdf:RDF>\x0a&lt;/x:xmpmeta>\x0a                                                                                                    \x0a                                                                                                    \x0a                                                                                                    \x0a                                                                                                    \x0a                                                                                                    \x0a                                                                                                    \x0a                                                                                                    \x0a                                                                                                    \x0a                                                                                                    \x0a                                                                                                    \x0a                                                                                                    \x0a                                                                                                    \x0a                                                                                                    \x0a                                                                                                    \x0a                                                                                                    \x0a                                                                                                    \x0a                                                                                                    \x0a                                                                                                    \x0a                                                                                                    \x0a                                                                                                    \x0a                           \x0a&lt;?xpacket end="w"?>\x00</property>
  <property name="seekable">1</property>
  <property name="meta.media.sample_aspect_num">1</property>
  <property name="meta.media.sample_aspect_den">1</property>
  <property name="aspect_ratio">1</property>
  <property name="audio_index">0</property>
  <property name="video_index">-1</property>
  <property name="mute_on_pause">1</property>
  <property name="mlt_service">avformat</property>
  <property name="kdenlive:clipname"/>
  <property name="meta.media.frame_rate_num">90000</property>
  <property name="meta.media.frame_rate_den">1</property>
  <property name="meta.media.colorspace">601</property>
  <property name="meta.media.color_trc">2</property>
  <property name="meta.media.has_b_frames">0</property>
  <property name="meta.media.width">2400</property>
  <property name="meta.media.height">2400</property>
  <property name="meta.media.color_range">full</property>
  <property name="meta.media.top_field_first">0</property>
  <property name="meta.media.progressive">1</property>
  <property name="kdenlive:clip_type">0</property>
  <property name="set.test_image">1</property>
  <property name="kdenlive:folderid">-1</property>
  <property name="kdenlive:id">84</property>
  <property name="kdenlive:file_size">28909250</property>
  <property name="kdenlive:file_hash">a052868874123aa43c7e2ebd5f293bf9</property>
  <property name="kdenlive:audio_max0">216</property>
 </producer>
 <producer id="producer76" in="00:00:00.000" out="00:02:09.640">
  <property name="length">3242</property>
  <property name="eof">pause</property>
  <property name="resource">/home/liquidzulu/Documents/youtube-scripts/courses/libertarian-ethics/slides/homesteading-and-property-rights/47.png</property>
  <property name="ttl">25</property>
  <property name="aspect_ratio">1</property>
  <property name="progressive">1</property>
  <property name="seekable">1</property>
  <property name="meta.media.width">1920</property>
  <property name="meta.media.height">1080</property>
  <property name="mlt_service">qimage</property>
  <property name="kdenlive:clipname"/>
  <property name="kdenlive:duration">00:00:05.000</property>
  <property name="kdenlive:folderid">6</property>
  <property name="kdenlive:clip_type">2</property>
  <property name="kdenlive:id">85</property>
  <property name="kdenlive:file_size">21598</property>
  <property name="kdenlive:file_hash">3c7d47e27f24c1dd24b6c7dabef1b53c</property>
 </producer>
 <producer id="producer80" in="00:00:00.000" out="00:00:13.720">
  <property name="length">344</property>
  <property name="eof">pause</property>
  <property name="resource">/home/liquidzulu/Documents/youtube-scripts/courses/libertarian-ethics/slides/homesteading-and-property-rights/78.png</property>
  <property name="ttl">25</property>
  <property name="aspect_ratio">1</property>
  <property name="progressive">1</property>
  <property name="seekable">1</property>
  <property name="meta.media.width">1280</property>
  <property name="meta.media.height">720</property>
  <property name="mlt_service">qimage</property>
  <property name="kdenlive:clipname"/>
  <property name="kdenlive:duration">00:00:05.000</property>
  <property name="kdenlive:folderid">6</property>
  <property name="kdenlive:clip_type">2</property>
  <property name="kdenlive:id">86</property>
  <property name="kdenlive:file_size">127512</property>
  <property name="kdenlive:file_hash">29ab04e215349a880c78cd0cc1f36c65</property>
 </producer>
 <producer id="producer83" in="00:00:00.000" out="00:47:33.000">
  <property name="length">71326</property>
  <property name="eof">pause</property>
  <property name="resource">/home/liquidzulu/Videos/yt/vid-store/Why Artists Shouldn't Own Their Art.mp4</property>
  <property name="audio_index">1</property>
  <property name="video_index">0</property>
  <property name="mute_on_pause">0</property>
  <property name="mlt_service">avformat-novalidate</property>
  <property name="meta.media.nb_streams">2</property>
  <property name="meta.media.0.stream.type">video</property>
  <property name="meta.media.0.stream.frame_rate">30</property>
  <property name="meta.media.0.stream.sample_aspect_ratio">0</property>
  <property name="meta.media.0.codec.width">1280</property>
  <property name="meta.media.0.codec.height">720</property>
  <property name="meta.media.0.codec.rotate">0</property>
  <property name="meta.media.0.codec.pix_fmt">yuv420p</property>
  <property name="meta.media.0.codec.sample_aspect_ratio">1</property>
  <property name="meta.media.0.codec.colorspace">709</property>
  <property name="meta.media.0.codec.color_trc">1</property>
  <property name="meta.media.0.codec.name">h264</property>
  <property name="meta.media.0.codec.long_name">H.264 / AVC / MPEG-4 AVC / MPEG-4 part 10</property>
  <property name="meta.media.0.codec.bit_rate">1102649</property>
  <property name="meta.attr.0.stream.creation_time.markup">2022-12-04T00:57:48.000000Z</property>
  <property name="meta.attr.0.stream.handler_name.markup">ISO Media file produced by Google Inc. Created on: 12/03/2022.</property>
  <property name="meta.attr.0.stream.vendor_id.markup">[0][0][0][0]</property>
  <property name="meta.media.1.stream.type">audio</property>
  <property name="meta.media.1.codec.sample_fmt">fltp</property>
  <property name="meta.media.1.codec.sample_rate">44100</property>
  <property name="meta.media.1.codec.channels">2</property>
  <property name="meta.media.1.codec.name">aac</property>
  <property name="meta.media.1.codec.long_name">AAC (Advanced Audio Coding)</property>
  <property name="meta.media.1.codec.bit_rate">127999</property>
  <property name="meta.attr.1.stream.creation_time.markup">2022-12-04T00:57:48.000000Z</property>
  <property name="meta.attr.1.stream.handler_name.markup">ISO Media file produced by Google Inc. Created on: 12/03/2022.</property>
  <property name="meta.attr.1.stream.vendor_id.markup">[0][0][0][0]</property>
  <property name="meta.attr.major_brand.markup">mp42</property>
  <property name="meta.attr.minor_version.markup">0</property>
  <property name="meta.attr.compatible_brands.markup">isommp42</property>
  <property name="meta.attr.creation_time.markup">2022-12-04T00:57:48.000000Z</property>
  <property name="seekable">1</property>
  <property name="meta.media.sample_aspect_num">1</property>
  <property name="meta.media.sample_aspect_den">1</property>
  <property name="aspect_ratio">1</property>
  <property name="kdenlive:clipname"/>
  <property name="meta.media.frame_rate_num">30</property>
  <property name="meta.media.frame_rate_den">1</property>
  <property name="meta.media.colorspace">709</property>
  <property name="meta.media.color_trc">1</property>
  <property name="meta.media.has_b_frames">1</property>
  <property name="meta.media.width">1280</property>
  <property name="meta.media.height">720</property>
  <property name="meta.media.color_range">mpeg</property>
  <property name="meta.media.top_field_first">0</property>
  <property name="meta.media.progressive">1</property>
  <property name="kdenlive:clip_type">0</property>
  <property name="kdenlive:folderid">-1</property>
  <property name="kdenlive:id">87</property>
  <property name="kdenlive:file_size">440069300</property>
  <property name="kdenlive:file_hash">fc6d44d9da892bda6f38739a588c9a41</property>
  <property name="kdenlive:audio_max1">244</property>
 </producer>
 <producer id="producer84" in="00:00:00.000" out="00:40:26.080">
  <property name="length">60653</property>
  <property name="eof">pause</property>
  <property name="resource">/home/liquidzulu/Documents/books/non fiction/Austro-Libertarianism/Stephan Kinsella/Against Intellectual Property Audiobook/04_AgainstIntellectualProperty_Kinsella.mp3</property>
  <property name="audio_index">0</property>
  <property name="video_index">1</property>
  <property name="mute_on_pause">0</property>
  <property name="mlt_service">avformat-novalidate</property>
  <property name="meta.media.nb_streams">2</property>
  <property name="meta.media.0.stream.type">audio</property>
  <property name="meta.media.0.codec.sample_fmt">fltp</property>
  <property name="meta.media.0.codec.sample_rate">22050</property>
  <property name="meta.media.0.codec.channels">1</property>
  <property name="meta.media.0.codec.name">mp3float</property>
  <property name="meta.media.0.codec.long_name">MP3 (MPEG audio layer 3)</property>
  <property name="meta.media.0.codec.bit_rate">32000</property>
  <property name="meta.media.1.stream.type">video</property>
  <property name="meta.media.1.stream.frame_rate">-nan</property>
  <property name="meta.media.1.stream.sample_aspect_ratio">0</property>
  <property name="meta.media.1.codec.width">300</property>
  <property name="meta.media.1.codec.height">300</property>
  <property name="meta.media.1.codec.rotate">0</property>
  <property name="meta.media.1.codec.pix_fmt">rgb24</property>
  <property name="meta.media.1.codec.sample_aspect_ratio">0</property>
  <property name="meta.media.1.codec.colorspace">601</property>
  <property name="meta.media.1.codec.name">png</property>
  <property name="meta.media.1.codec.long_name">PNG (Portable Network Graphics) image</property>
  <property name="meta.media.1.codec.bit_rate">0</property>
  <property name="meta.attr.1.stream.comment.markup">Cover (front)</property>
  <property name="meta.attr.album_artist.markup">N. Stephan Kinsella</property>
  <property name="meta.attr.genre.markup">Audio Book</property>
  <property name="meta.attr.title.markup">IP and Property Rights</property>
  <property name="meta.attr.artist.markup">N. Stephan Kinsella</property>
  <property name="meta.attr.album.markup">Against Intellectual Property</property>
  <property name="meta.attr.MusicMatch_Preference.markup">Excellent</property>
  <property name="meta.attr.track.markup">04</property>
  <property name="meta.attr.compilation.markup">1</property>
  <property name="meta.attr.comment.markup">Read by Jock Coats.</property>
  <property name="meta.attr.date.markup">2010</property>
  <property name="seekable">1</property>
  <property name="meta.media.sample_aspect_num">1</property>
  <property name="meta.media.sample_aspect_den">1</property>
  <property name="aspect_ratio">1</property>
  <property name="kdenlive:clipname"/>
  <property name="meta.media.frame_rate_num">90000</property>
  <property name="meta.media.frame_rate_den">1</property>
  <property name="meta.media.colorspace">601</property>
  <property name="meta.media.color_trc">2</property>
  <property name="meta.media.has_b_frames">0</property>
  <property name="meta.media.width">300</property>
  <property name="meta.media.height">300</property>
  <property name="meta.media.color_range">full</property>
  <property name="meta.media.top_field_first">0</property>
  <property name="meta.media.progressive">1</property>
  <property name="kdenlive:clip_type">0</property>
  <property name="kdenlive:folderid">-1</property>
  <property name="kdenlive:id">88</property>
  <property name="kdenlive:file_size">9820962</property>
  <property name="kdenlive:file_hash">e86b125a5fcda5b9962b8739c1351aa8</property>
  <property name="kdenlive:audio_max0">206</property>
  <property name="set.test_audio">0</property>
 </producer>
 <producer id="producer86" in="00:00:00.000" out="00:01:23.200">
  <property name="length">2081</property>
  <property name="eof">pause</property>
  <property name="resource">/home/liquidzulu/Documents/youtube-scripts/courses/libertarian-ethics/images/robinson-crusoe.png</property>
  <property name="ttl">25</property>
  <property name="aspect_ratio">1</property>
  <property name="progressive">1</property>
  <property name="seekable">1</property>
  <property name="meta.media.width">512</property>
  <property name="meta.media.height">512</property>
  <property name="mlt_service">qimage</property>
  <property name="kdenlive:clipname"/>
  <property name="kdenlive:duration">00:00:05.000</property>
  <property name="kdenlive:folderid">-1</property>
  <property name="kdenlive:clip_type">2</property>
  <property name="kdenlive:id">89</property>
  <property name="kdenlive:file_size">329655</property>
  <property name="kdenlive:file_hash">4873bfad5c8decb4fd720e9fc75386d7</property>
 </producer>
 <producer id="producer87" in="00:00:00.000" out="00:01:21.520">
  <property name="length">2039</property>
  <property name="eof">pause</property>
  <property name="resource">/home/liquidzulu/Documents/youtube-scripts/courses/libertarian-ethics/images/friday.png</property>
  <property name="ttl">25</property>
  <property name="aspect_ratio">1</property>
  <property name="progressive">1</property>
  <property name="seekable">1</property>
  <property name="meta.media.width">512</property>
  <property name="meta.media.height">512</property>
  <property name="mlt_service">qimage</property>
  <property name="kdenlive:clipname"/>
  <property name="kdenlive:duration">00:00:05.000</property>
  <property name="kdenlive:folderid">-1</property>
  <property name="kdenlive:clip_type">2</property>
  <property name="kdenlive:id">90</property>
  <property name="kdenlive:file_size">281225</property>
  <property name="kdenlive:file_hash">a9f8bc24a3f8e91b447522a210e92223</property>
 </producer>
 <producer id="producer88" in="00:00:00.000" out="00:01:14.080">
  <property name="length">1853</property>
  <property name="eof">pause</property>
  <property name="resource">/home/liquidzulu/Documents/youtube-scripts/courses/libertarian-ethics/images/donut-homesteaded.png</property>
  <property name="ttl">25</property>
  <property name="aspect_ratio">1</property>
  <property name="progressive">1</property>
  <property name="seekable">1</property>
  <property name="meta.media.width">1920</property>
  <property name="meta.media.height">1080</property>
  <property name="mlt_service">qimage</property>
  <property name="kdenlive:clipname"/>
  <property name="kdenlive:duration">00:00:05.000</property>
  <property name="kdenlive:folderid">-1</property>
  <property name="kdenlive:clip_type">2</property>
  <property name="kdenlive:id">91</property>
  <property name="kdenlive:file_size">93657</property>
  <property name="kdenlive:file_hash">b001f84c1ccd2f4095630d8af0d4f124</property>
 </producer>
 <producer id="producer89" in="00:00:00.000" out="00:00:37.880">
  <property name="length">948</property>
  <property name="eof">pause</property>
  <property name="resource">/home/liquidzulu/Documents/youtube-scripts/courses/libertarian-ethics/images/hole+donut-homesteaded.png</property>
  <property name="ttl">25</property>
  <property name="aspect_ratio">1</property>
  <property name="progressive">1</property>
  <property name="seekable">1</property>
  <property name="meta.media.width">1920</property>
  <property name="meta.media.height">1080</property>
  <property name="mlt_service">qimage</property>
  <property name="kdenlive:clipname"/>
  <property name="kdenlive:duration">00:00:05.000</property>
  <property name="kdenlive:folderid">-1</property>
  <property name="kdenlive:clip_type">2</property>
  <property name="kdenlive:id">92</property>
  <property name="kdenlive:file_size">92543</property>
  <property name="kdenlive:file_hash">80ff493b717657f8151c71f99ec82021</property>
 </producer>
 <producer id="producer90" in="00:00:00.000" out="00:00:04.960">
  <property name="length">00:00:05.000</property>
  <property name="eof">pause</property>
  <property name="resource">/home/liquidzulu/Documents/youtube-scripts/courses/libertarian-ethics/images/donut-outside-homesteaded.png</property>
  <property name="ttl">25</property>
  <property name="aspect_ratio">1</property>
  <property name="progressive">1</property>
  <property name="seekable">1</property>
  <property name="meta.media.width">1920</property>
  <property name="meta.media.height">1080</property>
  <property name="mlt_service">qimage</property>
  <property name="kdenlive:clipname"/>
  <property name="kdenlive:duration">00:00:05.000</property>
  <property name="kdenlive:folderid">-1</property>
  <property name="kdenlive:clip_type">2</property>
  <property name="kdenlive:id">93</property>
  <property name="kdenlive:file_size">90969</property>
  <property name="kdenlive:file_hash">6f8716a723c49829f18cb361f9179ab5</property>
 </producer>
 <producer id="producer91" in="00:00:00.000" out="00:04:19.600">
  <property name="length">6491</property>
  <property name="eof">pause</property>
  <property name="resource">/home/liquidzulu/Documents/youtube-scripts/courses/libertarian-ethics/audio/proc/Audio/missing-quotes.proc.mp3</property>
  <property name="meta.media.nb_streams">1</property>
  <property name="meta.media.0.stream.type">audio</property>
  <property name="meta.media.0.codec.sample_fmt">fltp</property>
  <property name="meta.media.0.codec.sample_rate">44100</property>
  <property name="meta.media.0.codec.channels">2</property>
  <property name="meta.media.0.codec.name">mp3float</property>
  <property name="meta.media.0.codec.long_name">MP3 (MPEG audio layer 3)</property>
  <property name="meta.media.0.codec.bit_rate">192000</property>
  <property name="meta.attr.encoded_by.markup">LAME in FL Studio 21</property>
  <property name="meta.attr.date.markup">2023</property>
  <property name="seekable">1</property>
  <property name="audio_index">0</property>
  <property name="video_index">-1</property>
  <property name="mute_on_pause">1</property>
  <property name="mlt_service">avformat</property>
  <property name="kdenlive:clipname"/>
  <property name="kdenlive:clip_type">1</property>
  <property name="kdenlive:folderid">-1</property>
  <property name="kdenlive:id">94</property>
  <property name="kdenlive:file_size">6231827</property>
  <property name="kdenlive:file_hash">ed5739f443a135e606c31ae4e81fbd9c</property>
  <property name="kdenlive:audio_max0">203</property>
 </producer>
 <producer id="producer93" in="00:00:00.000" out="00:00:04.960">
  <property name="length">00:00:05.000</property>
  <property name="eof">pause</property>
  <property name="resource">/home/liquidzulu/Documents/youtube-scripts/courses/libertarian-ethics/capsaicin/pseudo/homesteading-and-property-rights.pseudo.srt-images/10.png</property>
  <property name="ttl">25</property>
  <property name="aspect_ratio">1</property>
  <property name="progressive">1</property>
  <property name="seekable">1</property>
  <property name="meta.media.width">1920</property>
  <property name="meta.media.height">1080</property>
  <property name="mlt_service">qimage</property>
  <property name="kdenlive:clipname"/>
  <property name="kdenlive:duration">00:00:05.000</property>
  <property name="kdenlive:folderid">95</property>
  <property name="kdenlive:clip_type">2</property>
  <property name="kdenlive:id">96</property>
  <property name="kdenlive:file_size">8804</property>
  <property name="kdenlive:file_hash">02c288f199c95303f1c6926d52010c7a</property>
 </producer>
 <producer id="producer92" in="00:00:00.000" out="00:00:04.960">
  <property name="length">00:00:05.000</property>
  <property name="eof">pause</property>
  <property name="resource">/home/liquidzulu/Documents/youtube-scripts/courses/libertarian-ethics/capsaicin/pseudo/homesteading-and-property-rights.pseudo.srt-images/100.png</property>
  <property name="ttl">25</property>
  <property name="aspect_ratio">1</property>
  <property name="progressive">1</property>
  <property name="seekable">1</property>
  <property name="meta.media.width">1920</property>
  <property name="meta.media.height">1080</property>
  <property name="mlt_service">qimage</property>
  <property name="kdenlive:clipname"/>
  <property name="kdenlive:duration">00:00:05.000</property>
  <property name="kdenlive:folderid">95</property>
  <property name="kdenlive:clip_type">2</property>
  <property name="kdenlive:id">97</property>
  <property name="kdenlive:file_size">9323</property>
  <property name="kdenlive:file_hash">d35111744b44b62a8243d8839caaa5a2</property>
 </producer>
 <producer id="producer95" in="00:00:00.000" out="00:00:04.960">
  <property name="length">00:00:05.000</property>
  <property name="eof">pause</property>
  <property name="resource">/home/liquidzulu/Documents/youtube-scripts/courses/libertarian-ethics/capsaicin/pseudo/homesteading-and-property-rights.pseudo.srt-images/101.png</property>
  <property name="ttl">25</property>
  <property name="aspect_ratio">1</property>
  <property name="progressive">1</property>
  <property name="seekable">1</property>
  <property name="meta.media.width">1920</property>
  <property name="meta.media.height">1080</property>
  <property name="mlt_service">qimage</property>
  <property name="kdenlive:clipname"/>
  <property name="kdenlive:duration">00:00:05.000</property>
  <property name="kdenlive:folderid">95</property>
  <property name="kdenlive:clip_type">2</property>
  <property name="kdenlive:id">98</property>
  <property name="kdenlive:file_size">8812</property>
  <property name="kdenlive:file_hash">89b25c74b66c2b98f9461fedf7303326</property>
 </producer>
 <producer id="producer94" in="00:00:00.000" out="00:00:04.960">
  <property name="length">00:00:05.000</property>
  <property name="eof">pause</property>
  <property name="resource">/home/liquidzulu/Documents/youtube-scripts/courses/libertarian-ethics/capsaicin/pseudo/homesteading-and-property-rights.pseudo.srt-images/102.png</property>
  <property name="ttl">25</property>
  <property name="aspect_ratio">1</property>
  <property name="progressive">1</property>
  <property name="seekable">1</property>
  <property name="meta.media.width">1920</property>
  <property name="meta.media.height">1080</property>
  <property name="mlt_service">qimage</property>
  <property name="kdenlive:clipname"/>
  <property name="kdenlive:duration">00:00:05.000</property>
  <property name="kdenlive:folderid">95</property>
  <property name="kdenlive:clip_type">2</property>
  <property name="kdenlive:id">99</property>
  <property name="kdenlive:file_size">9048</property>
  <property name="kdenlive:file_hash">6294565cbb2a81fbab35ffa744a4575f</property>
 </producer>
 <producer id="producer96" in="00:00:00.000" out="00:00:04.960">
  <property name="length">00:00:05.000</property>
  <property name="eof">pause</property>
  <property name="resource">/home/liquidzulu/Documents/youtube-scripts/courses/libertarian-ethics/capsaicin/pseudo/homesteading-and-property-rights.pseudo.srt-images/11.png</property>
  <property name="ttl">25</property>
  <property name="aspect_ratio">1</property>
  <property name="progressive">1</property>
  <property name="seekable">1</property>
  <property name="meta.media.width">1920</property>
  <property name="meta.media.height">1080</property>
  <property name="mlt_service">qimage</property>
  <property name="kdenlive:clipname"/>
  <property name="kdenlive:duration">00:00:05.000</property>
  <property name="kdenlive:folderid">95</property>
  <property name="kdenlive:clip_type">2</property>
  <property name="kdenlive:id">100</property>
  <property name="kdenlive:file_size">9475</property>
  <property name="kdenlive:file_hash">47070cc3938114738ff23bd907b4e69f</property>
 </producer>
 <producer id="producer97" in="00:00:00.000" out="00:00:04.960">
  <property name="length">00:00:05.000</property>
  <property name="eof">pause</property>
  <property name="resource">/home/liquidzulu/Documents/youtube-scripts/courses/libertarian-ethics/capsaicin/pseudo/homesteading-and-property-rights.pseudo.srt-images/12.png</property>
  <property name="ttl">25</property>
  <property name="aspect_ratio">1</property>
  <property name="progressive">1</property>
  <property name="seekable">1</property>
  <property name="meta.media.width">1920</property>
  <property name="meta.media.height">1080</property>
  <property name="mlt_service">qimage</property>
  <property name="kdenlive:clipname"/>
  <property name="kdenlive:duration">00:00:05.000</property>
  <property name="kdenlive:folderid">95</property>
  <property name="kdenlive:clip_type">2</property>
  <property name="kdenlive:id">101</property>
  <property name="kdenlive:file_size">8185</property>
  <property name="kdenlive:file_hash">48f31df969ee293eaa9ac24e55f7481c</property>
 </producer>
 <producer id="producer98" in="00:00:00.000" out="00:00:04.960">
  <property name="length">00:00:05.000</property>
  <property name="eof">pause</property>
  <property name="resource">/home/liquidzulu/Documents/youtube-scripts/courses/libertarian-ethics/capsaicin/pseudo/homesteading-and-property-rights.pseudo.srt-images/13.png</property>
  <property name="ttl">25</property>
  <property name="aspect_ratio">1</property>
  <property name="progressive">1</property>
  <property name="seekable">1</property>
  <property name="meta.media.width">1920</property>
  <property name="meta.media.height">1080</property>
  <property name="mlt_service">qimage</property>
  <property name="kdenlive:clipname"/>
  <property name="kdenlive:duration">00:00:05.000</property>
  <property name="kdenlive:folderid">95</property>
  <property name="kdenlive:clip_type">2</property>
  <property name="kdenlive:id">102</property>
  <property name="kdenlive:file_size">9650</property>
  <property name="kdenlive:file_hash">124b31cfdccd45518ee09f86b6a5e319</property>
 </producer>
 <producer id="producer99" in="00:00:00.000" out="00:00:04.960">
  <property name="length">00:00:05.000</property>
  <property name="eof">pause</property>
  <property name="resource">/home/liquidzulu/Documents/youtube-scripts/courses/libertarian-ethics/capsaicin/pseudo/homesteading-and-property-rights.pseudo.srt-images/14.png</property>
  <property name="ttl">25</property>
  <property name="aspect_ratio">1</property>
  <property name="progressive">1</property>
  <property name="seekable">1</property>
  <property name="meta.media.width">1920</property>
  <property name="meta.media.height">1080</property>
  <property name="mlt_service">qimage</property>
  <property name="kdenlive:clipname"/>
  <property name="kdenlive:duration">00:00:05.000</property>
  <property name="kdenlive:folderid">95</property>
  <property name="kdenlive:clip_type">2</property>
  <property name="kdenlive:id">103</property>
  <property name="kdenlive:file_size">8279</property>
  <property name="kdenlive:file_hash">cbd7f1580ea2b08412bb41ea12e2ae96</property>
 </producer>
 <producer id="producer100" in="00:00:00.000" out="00:00:05.920">
  <property name="length">149</property>
  <property name="eof">pause</property>
  <property name="resource">/home/liquidzulu/Documents/youtube-scripts/courses/libertarian-ethics/capsaicin/pseudo/homesteading-and-property-rights.pseudo.srt-images/140.png</property>
  <property name="ttl">25</property>
  <property name="aspect_ratio">1</property>
  <property name="progressive">1</property>
  <property name="seekable">1</property>
  <property name="meta.media.width">1920</property>
  <property name="meta.media.height">1080</property>
  <property name="mlt_service">qimage</property>
  <property name="kdenlive:clipname"/>
  <property name="kdenlive:duration">00:00:05.000</property>
  <property name="kdenlive:folderid">95</property>
  <property name="kdenlive:clip_type">2</property>
  <property name="kdenlive:id">104</property>
  <property name="kdenlive:file_size">10788</property>
  <property name="kdenlive:file_hash">1a4b467c186d90981e2dec9bf757ccc1</property>
 </producer>
 <producer id="producer101" in="00:00:00.000" out="00:00:04.960">
  <property name="length">00:00:05.000</property>
  <property name="eof">pause</property>
  <property name="resource">/home/liquidzulu/Documents/youtube-scripts/courses/libertarian-ethics/capsaicin/pseudo/homesteading-and-property-rights.pseudo.srt-images/141.png</property>
  <property name="ttl">25</property>
  <property name="aspect_ratio">1</property>
  <property name="progressive">1</property>
  <property name="seekable">1</property>
  <property name="meta.media.width">1920</property>
  <property name="meta.media.height">1080</property>
  <property name="mlt_service">qimage</property>
  <property name="kdenlive:clipname"/>
  <property name="kdenlive:duration">00:00:05.000</property>
  <property name="kdenlive:folderid">95</property>
  <property name="kdenlive:clip_type">2</property>
  <property name="kdenlive:id">105</property>
  <property name="kdenlive:file_size">9573</property>
  <property name="kdenlive:file_hash">deadee5be38c45470a732462cd23122c</property>
 </producer>
 <producer id="producer102" in="00:00:00.000" out="00:00:04.960">
  <property name="length">00:00:05.000</property>
  <property name="eof">pause</property>
  <property name="resource">/home/liquidzulu/Documents/youtube-scripts/courses/libertarian-ethics/capsaicin/pseudo/homesteading-and-property-rights.pseudo.srt-images/142.png</property>
  <property name="ttl">25</property>
  <property name="aspect_ratio">1</property>
  <property name="progressive">1</property>
  <property name="seekable">1</property>
  <property name="meta.media.width">1920</property>
  <property name="meta.media.height">1080</property>
  <property name="mlt_service">qimage</property>
  <property name="kdenlive:clipname"/>
  <property name="kdenlive:duration">00:00:05.000</property>
  <property name="kdenlive:folderid">95</property>
  <property name="kdenlive:clip_type">2</property>
  <property name="kdenlive:id">106</property>
  <property name="kdenlive:file_size">8616</property>
  <property name="kdenlive:file_hash">58972b75b93cd1382ebf6fe0a93514dd</property>
 </producer>
 <producer id="producer104" in="00:00:00.000" out="00:00:04.960">
  <property name="length">00:00:05.000</property>
  <property name="eof">pause</property>
  <property name="resource">/home/liquidzulu/Documents/youtube-scripts/courses/libertarian-ethics/capsaicin/pseudo/homesteading-and-property-rights.pseudo.srt-images/143.png</property>
  <property name="ttl">25</property>
  <property name="aspect_ratio">1</property>
  <property name="progressive">1</property>
  <property name="seekable">1</property>
  <property name="meta.media.width">1920</property>
  <property name="meta.media.height">1080</property>
  <property name="mlt_service">qimage</property>
  <property name="kdenlive:clipname"/>
  <property name="kdenlive:duration">00:00:05.000</property>
  <property name="kdenlive:folderid">95</property>
  <property name="kdenlive:clip_type">2</property>
  <property name="kdenlive:id">107</property>
  <property name="kdenlive:file_size">7413</property>
  <property name="kdenlive:file_hash">6650df04d6a934484b9820bd595da9c7</property>
 </producer>
 <producer id="producer103" in="00:00:00.000" out="00:00:04.960">
  <property name="length">00:00:05.000</property>
  <property name="eof">pause</property>
  <property name="resource">/home/liquidzulu/Documents/youtube-scripts/courses/libertarian-ethics/capsaicin/pseudo/homesteading-and-property-rights.pseudo.srt-images/144.png</property>
  <property name="ttl">25</property>
  <property name="aspect_ratio">1</property>
  <property name="progressive">1</property>
  <property name="seekable">1</property>
  <property name="meta.media.width">1920</property>
  <property name="meta.media.height">1080</property>
  <property name="mlt_service">qimage</property>
  <property name="kdenlive:clipname"/>
  <property name="kdenlive:duration">00:00:05.000</property>
  <property name="kdenlive:folderid">95</property>
  <property name="kdenlive:clip_type">2</property>
  <property name="kdenlive:id">108</property>
  <property name="kdenlive:file_size">8260</property>
  <property name="kdenlive:file_hash">2205e76e405eb541649532b732d5ad34</property>
 </producer>
 <producer id="producer105" in="00:00:00.000" out="00:00:04.960">
  <property name="length">00:00:05.000</property>
  <property name="eof">pause</property>
  <property name="resource">/home/liquidzulu/Documents/youtube-scripts/courses/libertarian-ethics/capsaicin/pseudo/homesteading-and-property-rights.pseudo.srt-images/145.png</property>
  <property name="ttl">25</property>
  <property name="aspect_ratio">1</property>
  <property name="progressive">1</property>
  <property name="seekable">1</property>
  <property name="meta.media.width">1920</property>
  <property name="meta.media.height">1080</property>
  <property name="mlt_service">qimage</property>
  <property name="kdenlive:clipname"/>
  <property name="kdenlive:duration">00:00:05.000</property>
  <property name="kdenlive:folderid">95</property>
  <property name="kdenlive:clip_type">2</property>
  <property name="kdenlive:id">109</property>
  <property name="kdenlive:file_size">9025</property>
  <property name="kdenlive:file_hash">470caded14702931196ba5ee747d2a08</property>
 </producer>
 <producer id="producer106" in="00:00:00.000" out="00:00:04.960">
  <property name="length">00:00:05.000</property>
  <property name="eof">pause</property>
  <property name="resource">/home/liquidzulu/Documents/youtube-scripts/courses/libertarian-ethics/capsaicin/pseudo/homesteading-and-property-rights.pseudo.srt-images/146.png</property>
  <property name="ttl">25</property>
  <property name="aspect_ratio">1</property>
  <property name="progressive">1</property>
  <property name="seekable">1</property>
  <property name="meta.media.width">1920</property>
  <property name="meta.media.height">1080</property>
  <property name="mlt_service">qimage</property>
  <property name="kdenlive:clipname"/>
  <property name="kdenlive:duration">00:00:05.000</property>
  <property name="kdenlive:folderid">95</property>
  <property name="kdenlive:clip_type">2</property>
  <property name="kdenlive:id">110</property>
  <property name="kdenlive:file_size">9929</property>
  <property name="kdenlive:file_hash">d6089e28d6d4cbf5a65f005607eb68f2</property>
 </producer>
 <producer id="producer107" in="00:00:00.000" out="00:00:04.960">
  <property name="length">00:00:05.000</property>
  <property name="eof">pause</property>
  <property name="resource">/home/liquidzulu/Documents/youtube-scripts/courses/libertarian-ethics/capsaicin/pseudo/homesteading-and-property-rights.pseudo.srt-images/147.png</property>
  <property name="ttl">25</property>
  <property name="aspect_ratio">1</property>
  <property name="progressive">1</property>
  <property name="seekable">1</property>
  <property name="meta.media.width">1920</property>
  <property name="meta.media.height">1080</property>
  <property name="mlt_service">qimage</property>
  <property name="kdenlive:clipname"/>
  <property name="kdenlive:duration">00:00:05.000</property>
  <property name="kdenlive:folderid">95</property>
  <property name="kdenlive:clip_type">2</property>
  <property name="kdenlive:id">111</property>
  <property name="kdenlive:file_size">9230</property>
  <property name="kdenlive:file_hash">817d10ba8623bfacd072f21d50892652</property>
 </producer>
 <producer id="producer108" in="00:00:00.000" out="00:00:04.960">
  <property name="length">00:00:05.000</property>
  <property name="eof">pause</property>
  <property name="resource">/home/liquidzulu/Documents/youtube-scripts/courses/libertarian-ethics/capsaicin/pseudo/homesteading-and-property-rights.pseudo.srt-images/148.png</property>
  <property name="ttl">25</property>
  <property name="aspect_ratio">1</property>
  <property name="progressive">1</property>
  <property name="seekable">1</property>
  <property name="meta.media.width">1920</property>
  <property name="meta.media.height">1080</property>
  <property name="mlt_service">qimage</property>
  <property name="kdenlive:clipname"/>
  <property name="kdenlive:duration">00:00:05.000</property>
  <property name="kdenlive:folderid">95</property>
  <property name="kdenlive:clip_type">2</property>
  <property name="kdenlive:id">112</property>
  <property name="kdenlive:file_size">9439</property>
  <property name="kdenlive:file_hash">9996b5f73d0ee9c4c5f2800c8d6ca514</property>
 </producer>
 <producer id="producer109" in="00:00:00.000" out="00:00:04.960">
  <property name="length">00:00:05.000</property>
  <property name="eof">pause</property>
  <property name="resource">/home/liquidzulu/Documents/youtube-scripts/courses/libertarian-ethics/capsaicin/pseudo/homesteading-and-property-rights.pseudo.srt-images/149.png</property>
  <property name="ttl">25</property>
  <property name="aspect_ratio">1</property>
  <property name="progressive">1</property>
  <property name="seekable">1</property>
  <property name="meta.media.width">1920</property>
  <property name="meta.media.height">1080</property>
  <property name="mlt_service">qimage</property>
  <property name="kdenlive:clipname"/>
  <property name="kdenlive:duration">00:00:05.000</property>
  <property name="kdenlive:folderid">95</property>
  <property name="kdenlive:clip_type">2</property>
  <property name="kdenlive:id">113</property>
  <property name="kdenlive:file_size">9154</property>
  <property name="kdenlive:file_hash">24be3b493e1dbce78f02d546e38d17f0</property>
 </producer>
 <producer id="producer110" in="00:00:00.000" out="00:00:04.960">
  <property name="length">00:00:05.000</property>
  <property name="eof">pause</property>
  <property name="resource">/home/liquidzulu/Documents/youtube-scripts/courses/libertarian-ethics/capsaicin/pseudo/homesteading-and-property-rights.pseudo.srt-images/15.png</property>
  <property name="ttl">25</property>
  <property name="aspect_ratio">1</property>
  <property name="progressive">1</property>
  <property name="seekable">1</property>
  <property name="meta.media.width">1920</property>
  <property name="meta.media.height">1080</property>
  <property name="mlt_service">qimage</property>
  <property name="kdenlive:clipname"/>
  <property name="kdenlive:duration">00:00:05.000</property>
  <property name="kdenlive:folderid">95</property>
  <property name="kdenlive:clip_type">2</property>
  <property name="kdenlive:id">114</property>
  <property name="kdenlive:file_size">8914</property>
  <property name="kdenlive:file_hash">e5dcca152e4a8791165601ca0b7164a9</property>
 </producer>
 <producer id="producer111" in="00:00:00.000" out="00:00:04.960">
  <property name="length">00:00:05.000</property>
  <property name="eof">pause</property>
  <property name="resource">/home/liquidzulu/Documents/youtube-scripts/courses/libertarian-ethics/capsaicin/pseudo/homesteading-and-property-rights.pseudo.srt-images/150.png</property>
  <property name="ttl">25</property>
  <property name="aspect_ratio">1</property>
  <property name="progressive">1</property>
  <property name="seekable">1</property>
  <property name="meta.media.width">1920</property>
  <property name="meta.media.height">1080</property>
  <property name="mlt_service">qimage</property>
  <property name="kdenlive:clipname"/>
  <property name="kdenlive:duration">00:00:05.000</property>
  <property name="kdenlive:folderid">95</property>
  <property name="kdenlive:clip_type">2</property>
  <property name="kdenlive:id">115</property>
  <property name="kdenlive:file_size">9010</property>
  <property name="kdenlive:file_hash">41a533bb7f06a73216056593b59f9fba</property>
 </producer>
 <producer id="producer112" in="00:00:00.000" out="00:00:04.960">
  <property name="length">00:00:05.000</property>
  <property name="eof">pause</property>
  <property name="resource">/home/liquidzulu/Documents/youtube-scripts/courses/libertarian-ethics/capsaicin/pseudo/homesteading-and-property-rights.pseudo.srt-images/151.png</property>
  <property name="ttl">25</property>
  <property name="aspect_ratio">1</property>
  <property name="progressive">1</property>
  <property name="seekable">1</property>
  <property name="meta.media.width">1920</property>
  <property name="meta.media.height">1080</property>
  <property name="mlt_service">qimage</property>
  <property name="kdenlive:clipname"/>
  <property name="kdenlive:duration">00:00:05.000</property>
  <property name="kdenlive:folderid">95</property>
  <property name="kdenlive:clip_type">2</property>
  <property name="kdenlive:id">116</property>
  <property name="kdenlive:file_size">9527</property>
  <property name="kdenlive:file_hash">1181fdbaa3595eafaaccc2a0f56fca66</property>
 </producer>
 <producer id="producer113" in="00:00:00.000" out="00:00:04.960">
  <property name="length">00:00:05.000</property>
  <property name="eof">pause</property>
  <property name="resource">/home/liquidzulu/Documents/youtube-scripts/courses/libertarian-ethics/capsaicin/pseudo/homesteading-and-property-rights.pseudo.srt-images/152.png</property>
  <property name="ttl">25</property>
  <property name="aspect_ratio">1</property>
  <property name="progressive">1</property>
  <property name="seekable">1</property>
  <property name="meta.media.width">1920</property>
  <property name="meta.media.height">1080</property>
  <property name="mlt_service">qimage</property>
  <property name="kdenlive:clipname"/>
  <property name="kdenlive:duration">00:00:05.000</property>
  <property name="kdenlive:folderid">95</property>
  <property name="kdenlive:clip_type">2</property>
  <property name="kdenlive:id">117</property>
  <property name="kdenlive:file_size">9057</property>
  <property name="kdenlive:file_hash">3efe28986084f6506eee09635fdc4775</property>
 </producer>
 <producer id="producer115" in="00:00:00.000" out="00:00:04.960">
  <property name="length">00:00:05.000</property>
  <property name="eof">pause</property>
  <property name="resource">/home/liquidzulu/Documents/youtube-scripts/courses/libertarian-ethics/capsaicin/pseudo/homesteading-and-property-rights.pseudo.srt-images/153.png</property>
  <property name="ttl">25</property>
  <property name="aspect_ratio">1</property>
  <property name="progressive">1</property>
  <property name="seekable">1</property>
  <property name="meta.media.width">1920</property>
  <property name="meta.media.height">1080</property>
  <property name="mlt_service">qimage</property>
  <property name="kdenlive:clipname"/>
  <property name="kdenlive:duration">00:00:05.000</property>
  <property name="kdenlive:folderid">95</property>
  <property name="kdenlive:clip_type">2</property>
  <property name="kdenlive:id">118</property>
  <property name="kdenlive:file_size">8853</property>
  <property name="kdenlive:file_hash">280af9bc1295446565ade8b218ea34dc</property>
 </producer>
 <producer id="producer114" in="00:00:00.000" out="00:00:04.960">
  <property name="length">00:00:05.000</property>
  <property name="eof">pause</property>
  <property name="resource">/home/liquidzulu/Documents/youtube-scripts/courses/libertarian-ethics/capsaicin/pseudo/homesteading-and-property-rights.pseudo.srt-images/154.png</property>
  <property name="ttl">25</property>
  <property name="aspect_ratio">1</property>
  <property name="progressive">1</property>
  <property name="seekable">1</property>
  <property name="meta.media.width">1920</property>
  <property name="meta.media.height">1080</property>
  <property name="mlt_service">qimage</property>
  <property name="kdenlive:clipname"/>
  <property name="kdenlive:duration">00:00:05.000</property>
  <property name="kdenlive:folderid">95</property>
  <property name="kdenlive:clip_type">2</property>
  <property name="kdenlive:id">119</property>
  <property name="kdenlive:file_size">8901</property>
  <property name="kdenlive:file_hash">bade040e3566b317f5843f1131872970</property>
 </producer>
 <producer id="producer116" in="00:00:00.000" out="00:00:04.960">
  <property name="length">00:00:05.000</property>
  <property name="eof">pause</property>
  <property name="resource">/home/liquidzulu/Documents/youtube-scripts/courses/libertarian-ethics/capsaicin/pseudo/homesteading-and-property-rights.pseudo.srt-images/155.png</property>
  <property name="ttl">25</property>
  <property name="aspect_ratio">1</property>
  <property name="progressive">1</property>
  <property name="seekable">1</property>
  <property name="meta.media.width">1920</property>
  <property name="meta.media.height">1080</property>
  <property name="mlt_service">qimage</property>
  <property name="kdenlive:clipname"/>
  <property name="kdenlive:duration">00:00:05.000</property>
  <property name="kdenlive:folderid">95</property>
  <property name="kdenlive:clip_type">2</property>
  <property name="kdenlive:id">120</property>
  <property name="kdenlive:file_size">8991</property>
  <property name="kdenlive:file_hash">f17c0ac43b4c07828bf6bd08760a2cbd</property>
 </producer>
 <producer id="producer117" in="00:00:00.000" out="00:00:04.960">
  <property name="length">00:00:05.000</property>
  <property name="eof">pause</property>
  <property name="resource">/home/liquidzulu/Documents/youtube-scripts/courses/libertarian-ethics/capsaicin/pseudo/homesteading-and-property-rights.pseudo.srt-images/156.png</property>
  <property name="ttl">25</property>
  <property name="aspect_ratio">1</property>
  <property name="progressive">1</property>
  <property name="seekable">1</property>
  <property name="meta.media.width">1920</property>
  <property name="meta.media.height">1080</property>
  <property name="mlt_service">qimage</property>
  <property name="kdenlive:clipname"/>
  <property name="kdenlive:duration">00:00:05.000</property>
  <property name="kdenlive:folderid">95</property>
  <property name="kdenlive:clip_type">2</property>
  <property name="kdenlive:id">121</property>
  <property name="kdenlive:file_size">9258</property>
  <property name="kdenlive:file_hash">cb6efd3231eda9e6fdf286911cf714db</property>
 </producer>
 <producer id="producer118" in="00:00:00.000" out="00:00:04.960">
  <property name="length">00:00:05.000</property>
  <property name="eof">pause</property>
  <property name="resource">/home/liquidzulu/Documents/youtube-scripts/courses/libertarian-ethics/capsaicin/pseudo/homesteading-and-property-rights.pseudo.srt-images/157.png</property>
  <property name="ttl">25</property>
  <property name="aspect_ratio">1</property>
  <property name="progressive">1</property>
  <property name="seekable">1</property>
  <property name="meta.media.width">1920</property>
  <property name="meta.media.height">1080</property>
  <property name="mlt_service">qimage</property>
  <property name="kdenlive:clipname"/>
  <property name="kdenlive:duration">00:00:05.000</property>
  <property name="kdenlive:folderid">95</property>
  <property name="kdenlive:clip_type">2</property>
  <property name="kdenlive:id">122</property>
  <property name="kdenlive:file_size">8867</property>
  <property name="kdenlive:file_hash">ba71b983904f6ba8cfc0f1f6203dff27</property>
 </producer>
 <producer id="producer119" in="00:00:00.000" out="00:00:04.960">
  <property name="length">00:00:05.000</property>
  <property name="eof">pause</property>
  <property name="resource">/home/liquidzulu/Documents/youtube-scripts/courses/libertarian-ethics/capsaicin/pseudo/homesteading-and-property-rights.pseudo.srt-images/158.png</property>
  <property name="ttl">25</property>
  <property name="aspect_ratio">1</property>
  <property name="progressive">1</property>
  <property name="seekable">1</property>
  <property name="meta.media.width">1920</property>
  <property name="meta.media.height">1080</property>
  <property name="mlt_service">qimage</property>
  <property name="kdenlive:clipname"/>
  <property name="kdenlive:duration">00:00:05.000</property>
  <property name="kdenlive:folderid">95</property>
  <property name="kdenlive:clip_type">2</property>
  <property name="kdenlive:id">123</property>
  <property name="kdenlive:file_size">8424</property>
  <property name="kdenlive:file_hash">7c1a3480c44125405d1ed64f015362cb</property>
 </producer>
 <producer id="producer120" in="00:00:00.000" out="00:00:04.960">
  <property name="length">00:00:05.000</property>
  <property name="eof">pause</property>
  <property name="resource">/home/liquidzulu/Documents/youtube-scripts/courses/libertarian-ethics/capsaicin/pseudo/homesteading-and-property-rights.pseudo.srt-images/159.png</property>
  <property name="ttl">25</property>
  <property name="aspect_ratio">1</property>
  <property name="progressive">1</property>
  <property name="seekable">1</property>
  <property name="meta.media.width">1920</property>
  <property name="meta.media.height">1080</property>
  <property name="mlt_service">qimage</property>
  <property name="kdenlive:clipname"/>
  <property name="kdenlive:duration">00:00:05.000</property>
  <property name="kdenlive:folderid">95</property>
  <property name="kdenlive:clip_type">2</property>
  <property name="kdenlive:id">124</property>
  <property name="kdenlive:file_size">9214</property>
  <property name="kdenlive:file_hash">c5d878057bf576ecb9080bf0da504741</property>
 </producer>
 <producer id="producer121" in="00:00:00.000" out="00:00:04.960">
  <property name="length">00:00:05.000</property>
  <property name="eof">pause</property>
  <property name="resource">/home/liquidzulu/Documents/youtube-scripts/courses/libertarian-ethics/capsaicin/pseudo/homesteading-and-property-rights.pseudo.srt-images/16.png</property>
  <property name="ttl">25</property>
  <property name="aspect_ratio">1</property>
  <property name="progressive">1</property>
  <property name="seekable">1</property>
  <property name="meta.media.width">1920</property>
  <property name="meta.media.height">1080</property>
  <property name="mlt_service">qimage</property>
  <property name="kdenlive:clipname"/>
  <property name="kdenlive:duration">00:00:05.000</property>
  <property name="kdenlive:folderid">95</property>
  <property name="kdenlive:clip_type">2</property>
  <property name="kdenlive:id">125</property>
  <property name="kdenlive:file_size">8495</property>
  <property name="kdenlive:file_hash">c20104003dc4b6adff70f187b0c16526</property>
 </producer>
 <producer id="producer122" in="00:00:00.000" out="00:00:04.960">
  <property name="length">00:00:05.000</property>
  <property name="eof">pause</property>
  <property name="resource">/home/liquidzulu/Documents/youtube-scripts/courses/libertarian-ethics/capsaicin/pseudo/homesteading-and-property-rights.pseudo.srt-images/160.png</property>
  <property name="ttl">25</property>
  <property name="aspect_ratio">1</property>
  <property name="progressive">1</property>
  <property name="seekable">1</property>
  <property name="meta.media.width">1920</property>
  <property name="meta.media.height">1080</property>
  <property name="mlt_service">qimage</property>
  <property name="kdenlive:clipname"/>
  <property name="kdenlive:duration">00:00:05.000</property>
  <property name="kdenlive:folderid">95</property>
  <property name="kdenlive:clip_type">2</property>
  <property name="kdenlive:id">126</property>
  <property name="kdenlive:file_size">8970</property>
  <property name="kdenlive:file_hash">e8014c6201d7aac63e5f605b79772732</property>
 </producer>
 <producer id="producer123" in="00:00:00.000" out="00:00:04.960">
  <property name="length">00:00:05.000</property>
  <property name="eof">pause</property>
  <property name="resource">/home/liquidzulu/Documents/youtube-scripts/courses/libertarian-ethics/capsaicin/pseudo/homesteading-and-property-rights.pseudo.srt-images/161.png</property>
  <property name="ttl">25</property>
  <property name="aspect_ratio">1</property>
  <property name="progressive">1</property>
  <property name="seekable">1</property>
  <property name="meta.media.width">1920</property>
  <property name="meta.media.height">1080</property>
  <property name="mlt_service">qimage</property>
  <property name="kdenlive:clipname"/>
  <property name="kdenlive:duration">00:00:05.000</property>
  <property name="kdenlive:folderid">95</property>
  <property name="kdenlive:clip_type">2</property>
  <property name="kdenlive:id">127</property>
  <property name="kdenlive:file_size">8967</property>
  <property name="kdenlive:file_hash">e584086f728ffc24bec325e3b1f8faa2</property>
 </producer>
 <producer id="producer124" in="00:00:00.000" out="00:00:04.960">
  <property name="length">00:00:05.000</property>
  <property name="eof">pause</property>
  <property name="resource">/home/liquidzulu/Documents/youtube-scripts/courses/libertarian-ethics/capsaicin/pseudo/homesteading-and-property-rights.pseudo.srt-images/162.png</property>
  <property name="ttl">25</property>
  <property name="aspect_ratio">1</property>
  <property name="progressive">1</property>
  <property name="seekable">1</property>
  <property name="meta.media.width">1920</property>
  <property name="meta.media.height">1080</property>
  <property name="mlt_service">qimage</property>
  <property name="kdenlive:clipname"/>
  <property name="kdenlive:duration">00:00:05.000</property>
  <property name="kdenlive:folderid">95</property>
  <property name="kdenlive:clip_type">2</property>
  <property name="kdenlive:id">128</property>
  <property name="kdenlive:file_size">9277</property>
  <property name="kdenlive:file_hash">1eb48f7f0100521ab8a94df76fc2cd50</property>
 </producer>
 <producer id="producer125" in="00:00:00.000" out="00:00:04.960">
  <property name="length">00:00:05.000</property>
  <property name="eof">pause</property>
  <property name="resource">/home/liquidzulu/Documents/youtube-scripts/courses/libertarian-ethics/capsaicin/pseudo/homesteading-and-property-rights.pseudo.srt-images/163.png</property>
  <property name="ttl">25</property>
  <property name="aspect_ratio">1</property>
  <property name="progressive">1</property>
  <property name="seekable">1</property>
  <property name="meta.media.width">1920</property>
  <property name="meta.media.height">1080</property>
  <property name="mlt_service">qimage</property>
  <property name="kdenlive:clipname"/>
  <property name="kdenlive:duration">00:00:05.000</property>
  <property name="kdenlive:folderid">95</property>
  <property name="kdenlive:clip_type">2</property>
  <property name="kdenlive:id">129</property>
  <property name="kdenlive:file_size">9091</property>
  <property name="kdenlive:file_hash">47dbf8de745e4f1c2caf41aeca59519c</property>
 </producer>
 <producer id="producer127" in="00:00:00.000" out="00:00:04.960">
  <property name="length">00:00:05.000</property>
  <property name="eof">pause</property>
  <property name="resource">/home/liquidzulu/Documents/youtube-scripts/courses/libertarian-ethics/capsaicin/pseudo/homesteading-and-property-rights.pseudo.srt-images/164.png</property>
  <property name="ttl">25</property>
  <property name="aspect_ratio">1</property>
  <property name="progressive">1</property>
  <property name="seekable">1</property>
  <property name="meta.media.width">1920</property>
  <property name="meta.media.height">1080</property>
  <property name="mlt_service">qimage</property>
  <property name="kdenlive:clipname"/>
  <property name="kdenlive:duration">00:00:05.000</property>
  <property name="kdenlive:folderid">95</property>
  <property name="kdenlive:clip_type">2</property>
  <property name="kdenlive:id">130</property>
  <property name="kdenlive:file_size">8841</property>
  <property name="kdenlive:file_hash">97c958eb5bd17c254cd0b0ef65dece7a</property>
 </producer>
 <producer id="producer128" in="00:00:00.000" out="00:00:04.960">
  <property name="length">00:00:05.000</property>
  <property name="eof">pause</property>
  <property name="resource">/home/liquidzulu/Documents/youtube-scripts/courses/libertarian-ethics/capsaicin/pseudo/homesteading-and-property-rights.pseudo.srt-images/165.png</property>
  <property name="ttl">25</property>
  <property name="aspect_ratio">1</property>
  <property name="progressive">1</property>
  <property name="seekable">1</property>
  <property name="meta.media.width">1920</property>
  <property name="meta.media.height">1080</property>
  <property name="mlt_service">qimage</property>
  <property name="kdenlive:clipname"/>
  <property name="kdenlive:duration">00:00:05.000</property>
  <property name="kdenlive:folderid">95</property>
  <property name="kdenlive:clip_type">2</property>
  <property name="kdenlive:id">131</property>
  <property name="kdenlive:file_size">9124</property>
  <property name="kdenlive:file_hash">5fb33742c0975802eb377526ac64cf30</property>
 </producer>
 <producer id="producer126" in="00:00:00.000" out="00:00:04.960">
  <property name="length">00:00:05.000</property>
  <property name="eof">pause</property>
  <property name="resource">/home/liquidzulu/Documents/youtube-scripts/courses/libertarian-ethics/capsaicin/pseudo/homesteading-and-property-rights.pseudo.srt-images/166.png</property>
  <property name="ttl">25</property>
  <property name="aspect_ratio">1</property>
  <property name="progressive">1</property>
  <property name="seekable">1</property>
  <property name="meta.media.width">1920</property>
  <property name="meta.media.height">1080</property>
  <property name="mlt_service">qimage</property>
  <property name="kdenlive:clipname"/>
  <property name="kdenlive:duration">00:00:05.000</property>
  <property name="kdenlive:folderid">95</property>
  <property name="kdenlive:clip_type">2</property>
  <property name="kdenlive:id">132</property>
  <property name="kdenlive:file_size">9294</property>
  <property name="kdenlive:file_hash">b03b559043ea367b98fefbba11bd94a7</property>
 </producer>
 <producer id="producer129" in="00:00:00.000" out="00:00:04.960">
  <property name="length">00:00:05.000</property>
  <property name="eof">pause</property>
  <property name="resource">/home/liquidzulu/Documents/youtube-scripts/courses/libertarian-ethics/capsaicin/pseudo/homesteading-and-property-rights.pseudo.srt-images/167.png</property>
  <property name="ttl">25</property>
  <property name="aspect_ratio">1</property>
  <property name="progressive">1</property>
  <property name="seekable">1</property>
  <property name="meta.media.width">1920</property>
  <property name="meta.media.height">1080</property>
  <property name="mlt_service">qimage</property>
  <property name="kdenlive:clipname"/>
  <property name="kdenlive:duration">00:00:05.000</property>
  <property name="kdenlive:folderid">95</property>
  <property name="kdenlive:clip_type">2</property>
  <property name="kdenlive:id">133</property>
  <property name="kdenlive:file_size">9279</property>
  <property name="kdenlive:file_hash">e0ccbe7f1dca53293b3c161042216821</property>
 </producer>
 <producer id="producer130" in="00:00:00.000" out="00:00:04.960">
  <property name="length">00:00:05.000</property>
  <property name="eof">pause</property>
  <property name="resource">/home/liquidzulu/Documents/youtube-scripts/courses/libertarian-ethics/capsaicin/pseudo/homesteading-and-property-rights.pseudo.srt-images/168.png</property>
  <property name="ttl">25</property>
  <property name="aspect_ratio">1</property>
  <property name="progressive">1</property>
  <property name="seekable">1</property>
  <property name="meta.media.width">1920</property>
  <property name="meta.media.height">1080</property>
  <property name="mlt_service">qimage</property>
  <property name="kdenlive:clipname"/>
  <property name="kdenlive:duration">00:00:05.000</property>
  <property name="kdenlive:folderid">95</property>
  <property name="kdenlive:clip_type">2</property>
  <property name="kdenlive:id">134</property>
  <property name="kdenlive:file_size">8646</property>
  <property name="kdenlive:file_hash">73577675cf42e57cb3bf503a51ddf9f2</property>
 </producer>
 <producer id="producer131" in="00:00:00.000" out="00:00:04.960">
  <property name="length">00:00:05.000</property>
  <property name="eof">pause</property>
  <property name="resource">/home/liquidzulu/Documents/youtube-scripts/courses/libertarian-ethics/capsaicin/pseudo/homesteading-and-property-rights.pseudo.srt-images/169.png</property>
  <property name="ttl">25</property>
  <property name="aspect_ratio">1</property>
  <property name="progressive">1</property>
  <property name="seekable">1</property>
  <property name="meta.media.width">1920</property>
  <property name="meta.media.height">1080</property>
  <property name="mlt_service">qimage</property>
  <property name="kdenlive:clipname"/>
  <property name="kdenlive:duration">00:00:05.000</property>
  <property name="kdenlive:folderid">95</property>
  <property name="kdenlive:clip_type">2</property>
  <property name="kdenlive:id">135</property>
  <property name="kdenlive:file_size">8836</property>
  <property name="kdenlive:file_hash">319d753de72307d5759052e4437831f7</property>
 </producer>
 <producer id="producer132" in="00:00:00.000" out="00:00:04.960">
  <property name="length">00:00:05.000</property>
  <property name="eof">pause</property>
  <property name="resource">/home/liquidzulu/Documents/youtube-scripts/courses/libertarian-ethics/capsaicin/pseudo/homesteading-and-property-rights.pseudo.srt-images/17.png</property>
  <property name="ttl">25</property>
  <property name="aspect_ratio">1</property>
  <property name="progressive">1</property>
  <property name="seekable">1</property>
  <property name="meta.media.width">1920</property>
  <property name="meta.media.height">1080</property>
  <property name="mlt_service">qimage</property>
  <property name="kdenlive:clipname"/>
  <property name="kdenlive:duration">00:00:05.000</property>
  <property name="kdenlive:folderid">95</property>
  <property name="kdenlive:clip_type">2</property>
  <property name="kdenlive:id">136</property>
  <property name="kdenlive:file_size">8470</property>
  <property name="kdenlive:file_hash">2f4b819109f3a480b4aeab387e3dc820</property>
 </producer>
 <producer id="producer133" in="00:00:00.000" out="00:00:04.960">
  <property name="length">00:00:05.000</property>
  <property name="eof">pause</property>
  <property name="resource">/home/liquidzulu/Documents/youtube-scripts/courses/libertarian-ethics/capsaicin/pseudo/homesteading-and-property-rights.pseudo.srt-images/170.png</property>
  <property name="ttl">25</property>
  <property name="aspect_ratio">1</property>
  <property name="progressive">1</property>
  <property name="seekable">1</property>
  <property name="meta.media.width">1920</property>
  <property name="meta.media.height">1080</property>
  <property name="mlt_service">qimage</property>
  <property name="kdenlive:clipname"/>
  <property name="kdenlive:duration">00:00:05.000</property>
  <property name="kdenlive:folderid">95</property>
  <property name="kdenlive:clip_type">2</property>
  <property name="kdenlive:id">137</property>
  <property name="kdenlive:file_size">9010</property>
  <property name="kdenlive:file_hash">538a4f04d2e9e4a6ac04df373b6656ba</property>
 </producer>
 <producer id="producer134" in="00:00:00.000" out="00:00:04.960">
  <property name="length">00:00:05.000</property>
  <property name="eof">pause</property>
  <property name="resource">/home/liquidzulu/Documents/youtube-scripts/courses/libertarian-ethics/capsaicin/pseudo/homesteading-and-property-rights.pseudo.srt-images/171.png</property>
  <property name="ttl">25</property>
  <property name="aspect_ratio">1</property>
  <property name="progressive">1</property>
  <property name="seekable">1</property>
  <property name="meta.media.width">1920</property>
  <property name="meta.media.height">1080</property>
  <property name="mlt_service">qimage</property>
  <property name="kdenlive:clipname"/>
  <property name="kdenlive:duration">00:00:05.000</property>
  <property name="kdenlive:folderid">95</property>
  <property name="kdenlive:clip_type">2</property>
  <property name="kdenlive:id">138</property>
  <property name="kdenlive:file_size">9570</property>
  <property name="kdenlive:file_hash">9724af3f8a39df4842304d8404b010a0</property>
 </producer>
 <producer id="producer135" in="00:00:00.000" out="00:00:04.960">
  <property name="length">00:00:05.000</property>
  <property name="eof">pause</property>
  <property name="resource">/home/liquidzulu/Documents/youtube-scripts/courses/libertarian-ethics/capsaicin/pseudo/homesteading-and-property-rights.pseudo.srt-images/172.png</property>
  <property name="ttl">25</property>
  <property name="aspect_ratio">1</property>
  <property name="progressive">1</property>
  <property name="seekable">1</property>
  <property name="meta.media.width">1920</property>
  <property name="meta.media.height">1080</property>
  <property name="mlt_service">qimage</property>
  <property name="kdenlive:clipname"/>
  <property name="kdenlive:duration">00:00:05.000</property>
  <property name="kdenlive:folderid">95</property>
  <property name="kdenlive:clip_type">2</property>
  <property name="kdenlive:id">139</property>
  <property name="kdenlive:file_size">9377</property>
  <property name="kdenlive:file_hash">2a2e90b2ec0d352337a8f12103114da7</property>
 </producer>
 <producer id="producer136" in="00:00:00.000" out="00:00:04.960">
  <property name="length">00:00:05.000</property>
  <property name="eof">pause</property>
  <property name="resource">/home/liquidzulu/Documents/youtube-scripts/courses/libertarian-ethics/capsaicin/pseudo/homesteading-and-property-rights.pseudo.srt-images/173.png</property>
  <property name="ttl">25</property>
  <property name="aspect_ratio">1</property>
  <property name="progressive">1</property>
  <property name="seekable">1</property>
  <property name="meta.media.width">1920</property>
  <property name="meta.media.height">1080</property>
  <property name="mlt_service">qimage</property>
  <property name="kdenlive:clipname"/>
  <property name="kdenlive:duration">00:00:05.000</property>
  <property name="kdenlive:folderid">95</property>
  <property name="kdenlive:clip_type">2</property>
  <property name="kdenlive:id">140</property>
  <property name="kdenlive:file_size">8320</property>
  <property name="kdenlive:file_hash">85c487c19e34bf04da81e832b603bdd9</property>
 </producer>
 <producer id="producer138" in="00:00:00.000" out="00:00:04.960">
  <property name="length">00:00:05.000</property>
  <property name="eof">pause</property>
  <property name="resource">/home/liquidzulu/Documents/youtube-scripts/courses/libertarian-ethics/capsaicin/pseudo/homesteading-and-property-rights.pseudo.srt-images/174.png</property>
  <property name="ttl">25</property>
  <property name="aspect_ratio">1</property>
  <property name="progressive">1</property>
  <property name="seekable">1</property>
  <property name="meta.media.width">1920</property>
  <property name="meta.media.height">1080</property>
  <property name="mlt_service">qimage</property>
  <property name="kdenlive:clipname"/>
  <property name="kdenlive:duration">00:00:05.000</property>
  <property name="kdenlive:folderid">95</property>
  <property name="kdenlive:clip_type">2</property>
  <property name="kdenlive:id">141</property>
  <property name="kdenlive:file_size">9638</property>
  <property name="kdenlive:file_hash">996a470e43895e6a6dee720d13cc1533</property>
 </producer>
 <producer id="producer137" in="00:00:00.000" out="00:00:04.960">
  <property name="length">00:00:05.000</property>
  <property name="eof">pause</property>
  <property name="resource">/home/liquidzulu/Documents/youtube-scripts/courses/libertarian-ethics/capsaicin/pseudo/homesteading-and-property-rights.pseudo.srt-images/175.png</property>
  <property name="ttl">25</property>
  <property name="aspect_ratio">1</property>
  <property name="progressive">1</property>
  <property name="seekable">1</property>
  <property name="meta.media.width">1920</property>
  <property name="meta.media.height">1080</property>
  <property name="mlt_service">qimage</property>
  <property name="kdenlive:clipname"/>
  <property name="kdenlive:duration">00:00:05.000</property>
  <property name="kdenlive:folderid">95</property>
  <property name="kdenlive:clip_type">2</property>
  <property name="kdenlive:id">142</property>
  <property name="kdenlive:file_size">7337</property>
  <property name="kdenlive:file_hash">a559c657cdb2158ac75761e718f49fc8</property>
 </producer>
 <producer id="producer139" in="00:00:00.000" out="00:00:04.960">
  <property name="length">00:00:05.000</property>
  <property name="eof">pause</property>
  <property name="resource">/home/liquidzulu/Documents/youtube-scripts/courses/libertarian-ethics/capsaicin/pseudo/homesteading-and-property-rights.pseudo.srt-images/18.png</property>
  <property name="ttl">25</property>
  <property name="aspect_ratio">1</property>
  <property name="progressive">1</property>
  <property name="seekable">1</property>
  <property name="meta.media.width">1920</property>
  <property name="meta.media.height">1080</property>
  <property name="mlt_service">qimage</property>
  <property name="kdenlive:clipname"/>
  <property name="kdenlive:duration">00:00:05.000</property>
  <property name="kdenlive:folderid">95</property>
  <property name="kdenlive:clip_type">2</property>
  <property name="kdenlive:id">143</property>
  <property name="kdenlive:file_size">9237</property>
  <property name="kdenlive:file_hash">4374adfe53d478c0b2c1c1503c3d4248</property>
 </producer>
 <producer id="producer140" in="00:00:00.000" out="00:00:04.960">
  <property name="length">00:00:05.000</property>
  <property name="eof">pause</property>
  <property name="resource">/home/liquidzulu/Documents/youtube-scripts/courses/libertarian-ethics/capsaicin/pseudo/homesteading-and-property-rights.pseudo.srt-images/181.png</property>
  <property name="ttl">25</property>
  <property name="aspect_ratio">1</property>
  <property name="progressive">1</property>
  <property name="seekable">1</property>
  <property name="meta.media.width">1920</property>
  <property name="meta.media.height">1080</property>
  <property name="mlt_service">qimage</property>
  <property name="kdenlive:clipname"/>
  <property name="kdenlive:duration">00:00:05.000</property>
  <property name="kdenlive:folderid">95</property>
  <property name="kdenlive:clip_type">2</property>
  <property name="kdenlive:id">144</property>
  <property name="kdenlive:file_size">9245</property>
  <property name="kdenlive:file_hash">5d4138b8cab50373efb0fcf7a509b900</property>
 </producer>
 <producer id="producer141" in="00:00:00.000" out="00:00:04.960">
  <property name="length">00:00:05.000</property>
  <property name="eof">pause</property>
  <property name="resource">/home/liquidzulu/Documents/youtube-scripts/courses/libertarian-ethics/capsaicin/pseudo/homesteading-and-property-rights.pseudo.srt-images/182.png</property>
  <property name="ttl">25</property>
  <property name="aspect_ratio">1</property>
  <property name="progressive">1</property>
  <property name="seekable">1</property>
  <property name="meta.media.width">1920</property>
  <property name="meta.media.height">1080</property>
  <property name="mlt_service">qimage</property>
  <property name="kdenlive:clipname"/>
  <property name="kdenlive:duration">00:00:05.000</property>
  <property name="kdenlive:folderid">95</property>
  <property name="kdenlive:clip_type">2</property>
  <property name="kdenlive:id">145</property>
  <property name="kdenlive:file_size">8941</property>
  <property name="kdenlive:file_hash">900670454f14b474670c4c79ae87b1a6</property>
 </producer>
 <producer id="producer142" in="00:00:00.000" out="00:00:04.960">
  <property name="length">00:00:05.000</property>
  <property name="eof">pause</property>
  <property name="resource">/home/liquidzulu/Documents/youtube-scripts/courses/libertarian-ethics/capsaicin/pseudo/homesteading-and-property-rights.pseudo.srt-images/183.png</property>
  <property name="ttl">25</property>
  <property name="aspect_ratio">1</property>
  <property name="progressive">1</property>
  <property name="seekable">1</property>
  <property name="meta.media.width">1920</property>
  <property name="meta.media.height">1080</property>
  <property name="mlt_service">qimage</property>
  <property name="kdenlive:clipname"/>
  <property name="kdenlive:duration">00:00:05.000</property>
  <property name="kdenlive:folderid">95</property>
  <property name="kdenlive:clip_type">2</property>
  <property name="kdenlive:id">146</property>
  <property name="kdenlive:file_size">8565</property>
  <property name="kdenlive:file_hash">bce4e7f7de20e385357db457920735e2</property>
 </producer>
 <producer id="producer143" in="00:00:00.000" out="00:00:04.960">
  <property name="length">00:00:05.000</property>
  <property name="eof">pause</property>
  <property name="resource">/home/liquidzulu/Documents/youtube-scripts/courses/libertarian-ethics/capsaicin/pseudo/homesteading-and-property-rights.pseudo.srt-images/184.png</property>
  <property name="ttl">25</property>
  <property name="aspect_ratio">1</property>
  <property name="progressive">1</property>
  <property name="seekable">1</property>
  <property name="meta.media.width">1920</property>
  <property name="meta.media.height">1080</property>
  <property name="mlt_service">qimage</property>
  <property name="kdenlive:clipname"/>
  <property name="kdenlive:duration">00:00:05.000</property>
  <property name="kdenlive:folderid">95</property>
  <property name="kdenlive:clip_type">2</property>
  <property name="kdenlive:id">147</property>
  <property name="kdenlive:file_size">9014</property>
  <property name="kdenlive:file_hash">a47181cd3e569f82dbf7e2c0ab455c28</property>
 </producer>
 <producer id="producer145" in="00:00:00.000" out="00:00:04.960">
  <property name="length">00:00:05.000</property>
  <property name="eof">pause</property>
  <property name="resource">/home/liquidzulu/Documents/youtube-scripts/courses/libertarian-ethics/capsaicin/pseudo/homesteading-and-property-rights.pseudo.srt-images/185.png</property>
  <property name="ttl">25</property>
  <property name="aspect_ratio">1</property>
  <property name="progressive">1</property>
  <property name="seekable">1</property>
  <property name="meta.media.width">1920</property>
  <property name="meta.media.height">1080</property>
  <property name="mlt_service">qimage</property>
  <property name="kdenlive:clipname"/>
  <property name="kdenlive:duration">00:00:05.000</property>
  <property name="kdenlive:folderid">95</property>
  <property name="kdenlive:clip_type">2</property>
  <property name="kdenlive:id">148</property>
  <property name="kdenlive:file_size">9293</property>
  <property name="kdenlive:file_hash">1c2535ebec4e4a2ebd2d90db1e8bc3ac</property>
 </producer>
 <producer id="producer144" in="00:00:00.000" out="00:00:04.960">
  <property name="length">00:00:05.000</property>
  <property name="eof">pause</property>
  <property name="resource">/home/liquidzulu/Documents/youtube-scripts/courses/libertarian-ethics/capsaicin/pseudo/homesteading-and-property-rights.pseudo.srt-images/186.png</property>
  <property name="ttl">25</property>
  <property name="aspect_ratio">1</property>
  <property name="progressive">1</property>
  <property name="seekable">1</property>
  <property name="meta.media.width">1920</property>
  <property name="meta.media.height">1080</property>
  <property name="mlt_service">qimage</property>
  <property name="kdenlive:clipname"/>
  <property name="kdenlive:duration">00:00:05.000</property>
  <property name="kdenlive:folderid">95</property>
  <property name="kdenlive:clip_type">2</property>
  <property name="kdenlive:id">149</property>
  <property name="kdenlive:file_size">9551</property>
  <property name="kdenlive:file_hash">d4ddec03565316702ec75c0f6f48b0b5</property>
 </producer>
 <producer id="producer146" in="00:00:00.000" out="00:00:04.960">
  <property name="length">00:00:05.000</property>
  <property name="eof">pause</property>
  <property name="resource">/home/liquidzulu/Documents/youtube-scripts/courses/libertarian-ethics/capsaicin/pseudo/homesteading-and-property-rights.pseudo.srt-images/187.png</property>
  <property name="ttl">25</property>
  <property name="aspect_ratio">1</property>
  <property name="progressive">1</property>
  <property name="seekable">1</property>
  <property name="meta.media.width">1920</property>
  <property name="meta.media.height">1080</property>
  <property name="mlt_service">qimage</property>
  <property name="kdenlive:clipname"/>
  <property name="kdenlive:duration">00:00:05.000</property>
  <property name="kdenlive:folderid">95</property>
  <property name="kdenlive:clip_type">2</property>
  <property name="kdenlive:id">150</property>
  <property name="kdenlive:file_size">9034</property>
  <property name="kdenlive:file_hash">5dfa9ba533e2ac306e5c8269061620d9</property>
 </producer>
 <producer id="producer147" in="00:00:00.000" out="00:00:04.960">
  <property name="length">00:00:05.000</property>
  <property name="eof">pause</property>
  <property name="resource">/home/liquidzulu/Documents/youtube-scripts/courses/libertarian-ethics/capsaicin/pseudo/homesteading-and-property-rights.pseudo.srt-images/188.png</property>
  <property name="ttl">25</property>
  <property name="aspect_ratio">1</property>
  <property name="progressive">1</property>
  <property name="seekable">1</property>
  <property name="meta.media.width">1920</property>
  <property name="meta.media.height">1080</property>
  <property name="mlt_service">qimage</property>
  <property name="kdenlive:clipname"/>
  <property name="kdenlive:duration">00:00:05.000</property>
  <property name="kdenlive:folderid">95</property>
  <property name="kdenlive:clip_type">2</property>
  <property name="kdenlive:id">151</property>
  <property name="kdenlive:file_size">8622</property>
  <property name="kdenlive:file_hash">85aeba902f912d745de6158837870439</property>
 </producer>
 <producer id="producer148" in="00:00:00.000" out="00:00:04.960">
  <property name="length">00:00:05.000</property>
  <property name="eof">pause</property>
  <property name="resource">/home/liquidzulu/Documents/youtube-scripts/courses/libertarian-ethics/capsaicin/pseudo/homesteading-and-property-rights.pseudo.srt-images/189.png</property>
  <property name="ttl">25</property>
  <property name="aspect_ratio">1</property>
  <property name="progressive">1</property>
  <property name="seekable">1</property>
  <property name="meta.media.width">1920</property>
  <property name="meta.media.height">1080</property>
  <property name="mlt_service">qimage</property>
  <property name="kdenlive:clipname"/>
  <property name="kdenlive:duration">00:00:05.000</property>
  <property name="kdenlive:folderid">95</property>
  <property name="kdenlive:clip_type">2</property>
  <property name="kdenlive:id">152</property>
  <property name="kdenlive:file_size">9157</property>
  <property name="kdenlive:file_hash">18c1e0af66985952d31e6f278df78b59</property>
 </producer>
 <producer id="producer149" in="00:00:00.000" out="00:00:04.960">
  <property name="length">00:00:05.000</property>
  <property name="eof">pause</property>
  <property name="resource">/home/liquidzulu/Documents/youtube-scripts/courses/libertarian-ethics/capsaicin/pseudo/homesteading-and-property-rights.pseudo.srt-images/19.png</property>
  <property name="ttl">25</property>
  <property name="aspect_ratio">1</property>
  <property name="progressive">1</property>
  <property name="seekable">1</property>
  <property name="meta.media.width">1920</property>
  <property name="meta.media.height">1080</property>
  <property name="mlt_service">qimage</property>
  <property name="kdenlive:clipname"/>
  <property name="kdenlive:duration">00:00:05.000</property>
  <property name="kdenlive:folderid">95</property>
  <property name="kdenlive:clip_type">2</property>
  <property name="kdenlive:id">153</property>
  <property name="kdenlive:file_size">8789</property>
  <property name="kdenlive:file_hash">b2fa51b3e29c6d39401e9bbec55db501</property>
 </producer>
 <producer id="producer150" in="00:00:00.000" out="00:00:04.960">
  <property name="length">00:00:05.000</property>
  <property name="eof">pause</property>
  <property name="resource">/home/liquidzulu/Documents/youtube-scripts/courses/libertarian-ethics/capsaicin/pseudo/homesteading-and-property-rights.pseudo.srt-images/190.png</property>
  <property name="ttl">25</property>
  <property name="aspect_ratio">1</property>
  <property name="progressive">1</property>
  <property name="seekable">1</property>
  <property name="meta.media.width">1920</property>
  <property name="meta.media.height">1080</property>
  <property name="mlt_service">qimage</property>
  <property name="kdenlive:clipname"/>
  <property name="kdenlive:duration">00:00:05.000</property>
  <property name="kdenlive:folderid">95</property>
  <property name="kdenlive:clip_type">2</property>
  <property name="kdenlive:id">154</property>
  <property name="kdenlive:file_size">9478</property>
  <property name="kdenlive:file_hash">853bbb8056d677f58c722efaab85e2bb</property>
 </producer>
 <producer id="producer151" in="00:00:00.000" out="00:00:04.960">
  <property name="length">00:00:05.000</property>
  <property name="eof">pause</property>
  <property name="resource">/home/liquidzulu/Documents/youtube-scripts/courses/libertarian-ethics/capsaicin/pseudo/homesteading-and-property-rights.pseudo.srt-images/191.png</property>
  <property name="ttl">25</property>
  <property name="aspect_ratio">1</property>
  <property name="progressive">1</property>
  <property name="seekable">1</property>
  <property name="meta.media.width">1920</property>
  <property name="meta.media.height">1080</property>
  <property name="mlt_service">qimage</property>
  <property name="kdenlive:clipname"/>
  <property name="kdenlive:duration">00:00:05.000</property>
  <property name="kdenlive:folderid">95</property>
  <property name="kdenlive:clip_type">2</property>
  <property name="kdenlive:id">155</property>
  <property name="kdenlive:file_size">9206</property>
  <property name="kdenlive:file_hash">5bbb4ec429977788a93161fc098f4242</property>
 </producer>
 <producer id="producer152" in="00:00:00.000" out="00:00:05.320">
  <property name="length">134</property>
  <property name="eof">pause</property>
  <property name="resource">/home/liquidzulu/Documents/youtube-scripts/courses/libertarian-ethics/capsaicin/pseudo/homesteading-and-property-rights.pseudo.srt-images/192.png</property>
  <property name="ttl">25</property>
  <property name="aspect_ratio">1</property>
  <property name="progressive">1</property>
  <property name="seekable">1</property>
  <property name="meta.media.width">1920</property>
  <property name="meta.media.height">1080</property>
  <property name="mlt_service">qimage</property>
  <property name="kdenlive:clipname"/>
  <property name="kdenlive:duration">00:00:05.000</property>
  <property name="kdenlive:folderid">95</property>
  <property name="kdenlive:clip_type">2</property>
  <property name="kdenlive:id">156</property>
  <property name="kdenlive:file_size">9328</property>
  <property name="kdenlive:file_hash">b220a15528d2602b4398a84f95b918ab</property>
 </producer>
 <producer id="producer153" in="00:00:00.000" out="00:00:04.960">
  <property name="length">00:00:05.000</property>
  <property name="eof">pause</property>
  <property name="resource">/home/liquidzulu/Documents/youtube-scripts/courses/libertarian-ethics/capsaicin/pseudo/homesteading-and-property-rights.pseudo.srt-images/193.png</property>
  <property name="ttl">25</property>
  <property name="aspect_ratio">1</property>
  <property name="progressive">1</property>
  <property name="seekable">1</property>
  <property name="meta.media.width">1920</property>
  <property name="meta.media.height">1080</property>
  <property name="mlt_service">qimage</property>
  <property name="kdenlive:clipname"/>
  <property name="kdenlive:duration">00:00:05.000</property>
  <property name="kdenlive:folderid">95</property>
  <property name="kdenlive:clip_type">2</property>
  <property name="kdenlive:id">157</property>
  <property name="kdenlive:file_size">8836</property>
  <property name="kdenlive:file_hash">3dda06fc03cc4c2face18f99e5b38a49</property>
 </producer>
 <producer id="producer154" in="00:00:00.000" out="00:00:04.960">
  <property name="length">00:00:05.000</property>
  <property name="eof">pause</property>
  <property name="resource">/home/liquidzulu/Documents/youtube-scripts/courses/libertarian-ethics/capsaicin/pseudo/homesteading-and-property-rights.pseudo.srt-images/194.png</property>
  <property name="ttl">25</property>
  <property name="aspect_ratio">1</property>
  <property name="progressive">1</property>
  <property name="seekable">1</property>
  <property name="meta.media.width">1920</property>
  <property name="meta.media.height">1080</property>
  <property name="mlt_service">qimage</property>
  <property name="kdenlive:clipname"/>
  <property name="kdenlive:duration">00:00:05.000</property>
  <property name="kdenlive:folderid">95</property>
  <property name="kdenlive:clip_type">2</property>
  <property name="kdenlive:id">158</property>
  <property name="kdenlive:file_size">9071</property>
  <property name="kdenlive:file_hash">3d3443a6d405e880303e615aedcad56b</property>
 </producer>
 <producer id="producer156" in="00:00:00.000" out="00:00:05.320">
  <property name="length">134</property>
  <property name="eof">pause</property>
  <property name="resource">/home/liquidzulu/Documents/youtube-scripts/courses/libertarian-ethics/capsaicin/pseudo/homesteading-and-property-rights.pseudo.srt-images/195.png</property>
  <property name="ttl">25</property>
  <property name="aspect_ratio">1</property>
  <property name="progressive">1</property>
  <property name="seekable">1</property>
  <property name="meta.media.width">1920</property>
  <property name="meta.media.height">1080</property>
  <property name="mlt_service">qimage</property>
  <property name="kdenlive:clipname"/>
  <property name="kdenlive:duration">00:00:05.000</property>
  <property name="kdenlive:folderid">95</property>
  <property name="kdenlive:clip_type">2</property>
  <property name="kdenlive:id">159</property>
  <property name="kdenlive:file_size">9182</property>
  <property name="kdenlive:file_hash">9302d715b20b741b7f5c607626ce4101</property>
 </producer>
 <producer id="producer155" in="00:00:00.000" out="00:00:05.080">
  <property name="length">128</property>
  <property name="eof">pause</property>
  <property name="resource">/home/liquidzulu/Documents/youtube-scripts/courses/libertarian-ethics/capsaicin/pseudo/homesteading-and-property-rights.pseudo.srt-images/196.png</property>
  <property name="ttl">25</property>
  <property name="aspect_ratio">1</property>
  <property name="progressive">1</property>
  <property name="seekable">1</property>
  <property name="meta.media.width">1920</property>
  <property name="meta.media.height">1080</property>
  <property name="mlt_service">qimage</property>
  <property name="kdenlive:clipname"/>
  <property name="kdenlive:duration">00:00:05.000</property>
  <property name="kdenlive:folderid">95</property>
  <property name="kdenlive:clip_type">2</property>
  <property name="kdenlive:id">160</property>
  <property name="kdenlive:file_size">8977</property>
  <property name="kdenlive:file_hash">c510971e21a75f224bb08c57eb8d5224</property>
 </producer>
 <producer id="producer157" in="00:00:00.000" out="00:00:04.960">
  <property name="length">00:00:05.000</property>
  <property name="eof">pause</property>
  <property name="resource">/home/liquidzulu/Documents/youtube-scripts/courses/libertarian-ethics/capsaicin/pseudo/homesteading-and-property-rights.pseudo.srt-images/197.png</property>
  <property name="ttl">25</property>
  <property name="aspect_ratio">1</property>
  <property name="progressive">1</property>
  <property name="seekable">1</property>
  <property name="meta.media.width">1920</property>
  <property name="meta.media.height">1080</property>
  <property name="mlt_service">qimage</property>
  <property name="kdenlive:clipname"/>
  <property name="kdenlive:duration">00:00:05.000</property>
  <property name="kdenlive:folderid">95</property>
  <property name="kdenlive:clip_type">2</property>
  <property name="kdenlive:id">161</property>
  <property name="kdenlive:file_size">9107</property>
  <property name="kdenlive:file_hash">f9bd77636f2275417393f3f3d4e3c0aa</property>
 </producer>
 <producer id="producer158" in="00:00:00.000" out="00:00:04.960">
  <property name="length">00:00:05.000</property>
  <property name="eof">pause</property>
  <property name="resource">/home/liquidzulu/Documents/youtube-scripts/courses/libertarian-ethics/capsaicin/pseudo/homesteading-and-property-rights.pseudo.srt-images/198.png</property>
  <property name="ttl">25</property>
  <property name="aspect_ratio">1</property>
  <property name="progressive">1</property>
  <property name="seekable">1</property>
  <property name="meta.media.width">1920</property>
  <property name="meta.media.height">1080</property>
  <property name="mlt_service">qimage</property>
  <property name="kdenlive:clipname"/>
  <property name="kdenlive:duration">00:00:05.000</property>
  <property name="kdenlive:folderid">95</property>
  <property name="kdenlive:clip_type">2</property>
  <property name="kdenlive:id">162</property>
  <property name="kdenlive:file_size">8568</property>
  <property name="kdenlive:file_hash">22c3b4257f5f20b7898afe96b6f7c516</property>
 </producer>
 <producer id="producer159" in="00:00:00.000" out="00:00:04.960">
  <property name="length">00:00:05.000</property>
  <property name="eof">pause</property>
  <property name="resource">/home/liquidzulu/Documents/youtube-scripts/courses/libertarian-ethics/capsaicin/pseudo/homesteading-and-property-rights.pseudo.srt-images/199.png</property>
  <property name="ttl">25</property>
  <property name="aspect_ratio">1</property>
  <property name="progressive">1</property>
  <property name="seekable">1</property>
  <property name="meta.media.width">1920</property>
  <property name="meta.media.height">1080</property>
  <property name="mlt_service">qimage</property>
  <property name="kdenlive:clipname"/>
  <property name="kdenlive:duration">00:00:05.000</property>
  <property name="kdenlive:folderid">95</property>
  <property name="kdenlive:clip_type">2</property>
  <property name="kdenlive:id">163</property>
  <property name="kdenlive:file_size">8463</property>
  <property name="kdenlive:file_hash">b1b6415fe229c419eb88e149094bd149</property>
 </producer>
 <producer id="producer160" in="00:00:00.000" out="00:00:04.960">
  <property name="length">00:00:05.000</property>
  <property name="eof">pause</property>
  <property name="resource">/home/liquidzulu/Documents/youtube-scripts/courses/libertarian-ethics/capsaicin/pseudo/homesteading-and-property-rights.pseudo.srt-images/20.png</property>
  <property name="ttl">25</property>
  <property name="aspect_ratio">1</property>
  <property name="progressive">1</property>
  <property name="seekable">1</property>
  <property name="meta.media.width">1920</property>
  <property name="meta.media.height">1080</property>
  <property name="mlt_service">qimage</property>
  <property name="kdenlive:clipname"/>
  <property name="kdenlive:duration">00:00:05.000</property>
  <property name="kdenlive:folderid">95</property>
  <property name="kdenlive:clip_type">2</property>
  <property name="kdenlive:id">164</property>
  <property name="kdenlive:file_size">9061</property>
  <property name="kdenlive:file_hash">d66b6d45a4c02e422d35941fd0b6a571</property>
 </producer>
 <producer id="producer161" in="00:00:00.000" out="00:00:04.960">
  <property name="length">00:00:05.000</property>
  <property name="eof">pause</property>
  <property name="resource">/home/liquidzulu/Documents/youtube-scripts/courses/libertarian-ethics/capsaicin/pseudo/homesteading-and-property-rights.pseudo.srt-images/200.png</property>
  <property name="ttl">25</property>
  <property name="aspect_ratio">1</property>
  <property name="progressive">1</property>
  <property name="seekable">1</property>
  <property name="meta.media.width">1920</property>
  <property name="meta.media.height">1080</property>
  <property name="mlt_service">qimage</property>
  <property name="kdenlive:clipname"/>
  <property name="kdenlive:duration">00:00:05.000</property>
  <property name="kdenlive:folderid">95</property>
  <property name="kdenlive:clip_type">2</property>
  <property name="kdenlive:id">165</property>
  <property name="kdenlive:file_size">9036</property>
  <property name="kdenlive:file_hash">b1fe4e8fcb024e6d1ea815ac542bb4fd</property>
 </producer>
 <producer id="producer162" in="00:00:00.000" out="00:00:04.960">
  <property name="length">00:00:05.000</property>
  <property name="eof">pause</property>
  <property name="resource">/home/liquidzulu/Documents/youtube-scripts/courses/libertarian-ethics/capsaicin/pseudo/homesteading-and-property-rights.pseudo.srt-images/201.png</property>
  <property name="ttl">25</property>
  <property name="aspect_ratio">1</property>
  <property name="progressive">1</property>
  <property name="seekable">1</property>
  <property name="meta.media.width">1920</property>
  <property name="meta.media.height">1080</property>
  <property name="mlt_service">qimage</property>
  <property name="kdenlive:clipname"/>
  <property name="kdenlive:duration">00:00:05.000</property>
  <property name="kdenlive:folderid">95</property>
  <property name="kdenlive:clip_type">2</property>
  <property name="kdenlive:id">166</property>
  <property name="kdenlive:file_size">8716</property>
  <property name="kdenlive:file_hash">3836f11097ee2635fd029f8ea30d90ac</property>
 </producer>
 <producer id="producer163" in="00:00:00.000" out="00:00:04.960">
  <property name="length">00:00:05.000</property>
  <property name="eof">pause</property>
  <property name="resource">/home/liquidzulu/Documents/youtube-scripts/courses/libertarian-ethics/capsaicin/pseudo/homesteading-and-property-rights.pseudo.srt-images/202.png</property>
  <property name="ttl">25</property>
  <property name="aspect_ratio">1</property>
  <property name="progressive">1</property>
  <property name="seekable">1</property>
  <property name="meta.media.width">1920</property>
  <property name="meta.media.height">1080</property>
  <property name="mlt_service">qimage</property>
  <property name="kdenlive:clipname"/>
  <property name="kdenlive:duration">00:00:05.000</property>
  <property name="kdenlive:folderid">95</property>
  <property name="kdenlive:clip_type">2</property>
  <property name="kdenlive:id">167</property>
  <property name="kdenlive:file_size">9073</property>
  <property name="kdenlive:file_hash">e61de5e46ec097dcce0e08782fa78a93</property>
 </producer>
 <producer id="producer164" in="00:00:00.000" out="00:00:04.960">
  <property name="length">00:00:05.000</property>
  <property name="eof">pause</property>
  <property name="resource">/home/liquidzulu/Documents/youtube-scripts/courses/libertarian-ethics/capsaicin/pseudo/homesteading-and-property-rights.pseudo.srt-images/203.png</property>
  <property name="ttl">25</property>
  <property name="aspect_ratio">1</property>
  <property name="progressive">1</property>
  <property name="seekable">1</property>
  <property name="meta.media.width">1920</property>
  <property name="meta.media.height">1080</property>
  <property name="mlt_service">qimage</property>
  <property name="kdenlive:clipname"/>
  <property name="kdenlive:duration">00:00:05.000</property>
  <property name="kdenlive:folderid">95</property>
  <property name="kdenlive:clip_type">2</property>
  <property name="kdenlive:id">168</property>
  <property name="kdenlive:file_size">9339</property>
  <property name="kdenlive:file_hash">7ec8a6a82c80332df6756253b6b1ac44</property>
 </producer>
 <producer id="producer165" in="00:00:00.000" out="00:00:04.960">
  <property name="length">00:00:05.000</property>
  <property name="eof">pause</property>
  <property name="resource">/home/liquidzulu/Documents/youtube-scripts/courses/libertarian-ethics/capsaicin/pseudo/homesteading-and-property-rights.pseudo.srt-images/204.png</property>
  <property name="ttl">25</property>
  <property name="aspect_ratio">1</property>
  <property name="progressive">1</property>
  <property name="seekable">1</property>
  <property name="meta.media.width">1920</property>
  <property name="meta.media.height">1080</property>
  <property name="mlt_service">qimage</property>
  <property name="kdenlive:clipname"/>
  <property name="kdenlive:duration">00:00:05.000</property>
  <property name="kdenlive:folderid">95</property>
  <property name="kdenlive:clip_type">2</property>
  <property name="kdenlive:id">169</property>
  <property name="kdenlive:file_size">9169</property>
  <property name="kdenlive:file_hash">a2e614fff204fc3bfa6e166b56413430</property>
 </producer>
 <producer id="producer166" in="00:00:00.000" out="00:00:04.960">
  <property name="length">00:00:05.000</property>
  <property name="eof">pause</property>
  <property name="resource">/home/liquidzulu/Documents/youtube-scripts/courses/libertarian-ethics/capsaicin/pseudo/homesteading-and-property-rights.pseudo.srt-images/205.png</property>
  <property name="ttl">25</property>
  <property name="aspect_ratio">1</property>
  <property name="progressive">1</property>
  <property name="seekable">1</property>
  <property name="meta.media.width">1920</property>
  <property name="meta.media.height">1080</property>
  <property name="mlt_service">qimage</property>
  <property name="kdenlive:clipname"/>
  <property name="kdenlive:duration">00:00:05.000</property>
  <property name="kdenlive:folderid">95</property>
  <property name="kdenlive:clip_type">2</property>
  <property name="kdenlive:id">170</property>
  <property name="kdenlive:file_size">8791</property>
  <property name="kdenlive:file_hash">99aa33a584604739ad0d8e6ec22214c8</property>
 </producer>
 <producer id="producer167" in="00:00:00.000" out="00:00:04.960">
  <property name="length">00:00:05.000</property>
  <property name="eof">pause</property>
  <property name="resource">/home/liquidzulu/Documents/youtube-scripts/courses/libertarian-ethics/capsaicin/pseudo/homesteading-and-property-rights.pseudo.srt-images/206.png</property>
  <property name="ttl">25</property>
  <property name="aspect_ratio">1</property>
  <property name="progressive">1</property>
  <property name="seekable">1</property>
  <property name="meta.media.width">1920</property>
  <property name="meta.media.height">1080</property>
  <property name="mlt_service">qimage</property>
  <property name="kdenlive:clipname"/>
  <property name="kdenlive:duration">00:00:05.000</property>
  <property name="kdenlive:folderid">95</property>
  <property name="kdenlive:clip_type">2</property>
  <property name="kdenlive:id">171</property>
  <property name="kdenlive:file_size">8990</property>
  <property name="kdenlive:file_hash">61bb296f7eced98dbc7b1203cc873400</property>
 </producer>
 <producer id="producer169" in="00:00:00.000" out="00:00:04.960">
  <property name="length">00:00:05.000</property>
  <property name="eof">pause</property>
  <property name="resource">/home/liquidzulu/Documents/youtube-scripts/courses/libertarian-ethics/capsaicin/pseudo/homesteading-and-property-rights.pseudo.srt-images/207.png</property>
  <property name="ttl">25</property>
  <property name="aspect_ratio">1</property>
  <property name="progressive">1</property>
  <property name="seekable">1</property>
  <property name="meta.media.width">1920</property>
  <property name="meta.media.height">1080</property>
  <property name="mlt_service">qimage</property>
  <property name="kdenlive:clipname"/>
  <property name="kdenlive:duration">00:00:05.000</property>
  <property name="kdenlive:folderid">95</property>
  <property name="kdenlive:clip_type">2</property>
  <property name="kdenlive:id">172</property>
  <property name="kdenlive:file_size">9107</property>
  <property name="kdenlive:file_hash">eed208bc98230047e28961f0545af301</property>
 </producer>
 <producer id="producer168" in="00:00:00.000" out="00:00:04.960">
  <property name="length">00:00:05.000</property>
  <property name="eof">pause</property>
  <property name="resource">/home/liquidzulu/Documents/youtube-scripts/courses/libertarian-ethics/capsaicin/pseudo/homesteading-and-property-rights.pseudo.srt-images/208.png</property>
  <property name="ttl">25</property>
  <property name="aspect_ratio">1</property>
  <property name="progressive">1</property>
  <property name="seekable">1</property>
  <property name="meta.media.width">1920</property>
  <property name="meta.media.height">1080</property>
  <property name="mlt_service">qimage</property>
  <property name="kdenlive:clipname"/>
  <property name="kdenlive:duration">00:00:05.000</property>
  <property name="kdenlive:folderid">95</property>
  <property name="kdenlive:clip_type">2</property>
  <property name="kdenlive:id">173</property>
  <property name="kdenlive:file_size">8292</property>
  <property name="kdenlive:file_hash">90fe960051db53b64f1ce7d8761f72e6</property>
 </producer>
 <producer id="producer171" in="00:00:00.000" out="00:00:04.960">
  <property name="length">00:00:05.000</property>
  <property name="eof">pause</property>
  <property name="resource">/home/liquidzulu/Documents/youtube-scripts/courses/libertarian-ethics/capsaicin/pseudo/homesteading-and-property-rights.pseudo.srt-images/209.png</property>
  <property name="ttl">25</property>
  <property name="aspect_ratio">1</property>
  <property name="progressive">1</property>
  <property name="seekable">1</property>
  <property name="meta.media.width">1920</property>
  <property name="meta.media.height">1080</property>
  <property name="mlt_service">qimage</property>
  <property name="kdenlive:clipname"/>
  <property name="kdenlive:duration">00:00:05.000</property>
  <property name="kdenlive:folderid">95</property>
  <property name="kdenlive:clip_type">2</property>
  <property name="kdenlive:id">174</property>
  <property name="kdenlive:file_size">8423</property>
  <property name="kdenlive:file_hash">c71f07e5ccc174ddd80dec9419d9373e</property>
 </producer>
 <producer id="producer170" in="00:00:00.000" out="00:00:04.960">
  <property name="length">00:00:05.000</property>
  <property name="eof">pause</property>
  <property name="resource">/home/liquidzulu/Documents/youtube-scripts/courses/libertarian-ethics/capsaicin/pseudo/homesteading-and-property-rights.pseudo.srt-images/21.png</property>
  <property name="ttl">25</property>
  <property name="aspect_ratio">1</property>
  <property name="progressive">1</property>
  <property name="seekable">1</property>
  <property name="meta.media.width">1920</property>
  <property name="meta.media.height">1080</property>
  <property name="mlt_service">qimage</property>
  <property name="kdenlive:clipname"/>
  <property name="kdenlive:duration">00:00:05.000</property>
  <property name="kdenlive:folderid">95</property>
  <property name="kdenlive:clip_type">2</property>
  <property name="kdenlive:id">175</property>
  <property name="kdenlive:file_size">8563</property>
  <property name="kdenlive:file_hash">c7258fb126f787227ceb5ea07e206e7c</property>
 </producer>
 <producer id="producer172" in="00:00:00.000" out="00:00:04.960">
  <property name="length">00:00:05.000</property>
  <property name="eof">pause</property>
  <property name="resource">/home/liquidzulu/Documents/youtube-scripts/courses/libertarian-ethics/capsaicin/pseudo/homesteading-and-property-rights.pseudo.srt-images/210.png</property>
  <property name="ttl">25</property>
  <property name="aspect_ratio">1</property>
  <property name="progressive">1</property>
  <property name="seekable">1</property>
  <property name="meta.media.width">1920</property>
  <property name="meta.media.height">1080</property>
  <property name="mlt_service">qimage</property>
  <property name="kdenlive:clipname"/>
  <property name="kdenlive:duration">00:00:05.000</property>
  <property name="kdenlive:folderid">95</property>
  <property name="kdenlive:clip_type">2</property>
  <property name="kdenlive:id">176</property>
  <property name="kdenlive:file_size">9248</property>
  <property name="kdenlive:file_hash">020f5aa4c658f85026ef0b3762cd3ee2</property>
 </producer>
 <producer id="producer173" in="00:00:00.000" out="00:00:04.960">
  <property name="length">00:00:05.000</property>
  <property name="eof">pause</property>
  <property name="resource">/home/liquidzulu/Documents/youtube-scripts/courses/libertarian-ethics/capsaicin/pseudo/homesteading-and-property-rights.pseudo.srt-images/211.png</property>
  <property name="ttl">25</property>
  <property name="aspect_ratio">1</property>
  <property name="progressive">1</property>
  <property name="seekable">1</property>
  <property name="meta.media.width">1920</property>
  <property name="meta.media.height">1080</property>
  <property name="mlt_service">qimage</property>
  <property name="kdenlive:clipname"/>
  <property name="kdenlive:duration">00:00:05.000</property>
  <property name="kdenlive:folderid">95</property>
  <property name="kdenlive:clip_type">2</property>
  <property name="kdenlive:id">177</property>
  <property name="kdenlive:file_size">9438</property>
  <property name="kdenlive:file_hash">bcf968306108ab3ec7e3f67aa5e4bc69</property>
 </producer>
 <producer id="producer175" in="00:00:00.000" out="00:00:04.960">
  <property name="length">00:00:05.000</property>
  <property name="eof">pause</property>
  <property name="resource">/home/liquidzulu/Documents/youtube-scripts/courses/libertarian-ethics/capsaicin/pseudo/homesteading-and-property-rights.pseudo.srt-images/212.png</property>
  <property name="ttl">25</property>
  <property name="aspect_ratio">1</property>
  <property name="progressive">1</property>
  <property name="seekable">1</property>
  <property name="meta.media.width">1920</property>
  <property name="meta.media.height">1080</property>
  <property name="mlt_service">qimage</property>
  <property name="kdenlive:clipname"/>
  <property name="kdenlive:duration">00:00:05.000</property>
  <property name="kdenlive:folderid">95</property>
  <property name="kdenlive:clip_type">2</property>
  <property name="kdenlive:id">178</property>
  <property name="kdenlive:file_size">9324</property>
  <property name="kdenlive:file_hash">a9a87cd1e75ce9c5948cea1d4c7c401b</property>
 </producer>
 <producer id="producer174" in="00:00:00.000" out="00:00:04.960">
  <property name="length">00:00:05.000</property>
  <property name="eof">pause</property>
  <property name="resource">/home/liquidzulu/Documents/youtube-scripts/courses/libertarian-ethics/capsaicin/pseudo/homesteading-and-property-rights.pseudo.srt-images/213.png</property>
  <property name="ttl">25</property>
  <property name="aspect_ratio">1</property>
  <property name="progressive">1</property>
  <property name="seekable">1</property>
  <property name="meta.media.width">1920</property>
  <property name="meta.media.height">1080</property>
  <property name="mlt_service">qimage</property>
  <property name="kdenlive:clipname"/>
  <property name="kdenlive:duration">00:00:05.000</property>
  <property name="kdenlive:folderid">95</property>
  <property name="kdenlive:clip_type">2</property>
  <property name="kdenlive:id">179</property>
  <property name="kdenlive:file_size">8946</property>
  <property name="kdenlive:file_hash">6716233e71c6b3005c105d95cb724ffa</property>
 </producer>
 <producer id="producer176" in="00:00:00.000" out="00:00:04.960">
  <property name="length">00:00:05.000</property>
  <property name="eof">pause</property>
  <property name="resource">/home/liquidzulu/Documents/youtube-scripts/courses/libertarian-ethics/capsaicin/pseudo/homesteading-and-property-rights.pseudo.srt-images/214.png</property>
  <property name="ttl">25</property>
  <property name="aspect_ratio">1</property>
  <property name="progressive">1</property>
  <property name="seekable">1</property>
  <property name="meta.media.width">1920</property>
  <property name="meta.media.height">1080</property>
  <property name="mlt_service">qimage</property>
  <property name="kdenlive:clipname"/>
  <property name="kdenlive:duration">00:00:05.000</property>
  <property name="kdenlive:folderid">95</property>
  <property name="kdenlive:clip_type">2</property>
  <property name="kdenlive:id">180</property>
  <property name="kdenlive:file_size">9706</property>
  <property name="kdenlive:file_hash">8c6d55bbfb9d0b7964faef47a0574265</property>
 </producer>
 <producer id="producer177" in="00:00:00.000" out="00:00:04.960">
  <property name="length">00:00:05.000</property>
  <property name="eof">pause</property>
  <property name="resource">/home/liquidzulu/Documents/youtube-scripts/courses/libertarian-ethics/capsaicin/pseudo/homesteading-and-property-rights.pseudo.srt-images/215.png</property>
  <property name="ttl">25</property>
  <property name="aspect_ratio">1</property>
  <property name="progressive">1</property>
  <property name="seekable">1</property>
  <property name="meta.media.width">1920</property>
  <property name="meta.media.height">1080</property>
  <property name="mlt_service">qimage</property>
  <property name="kdenlive:clipname"/>
  <property name="kdenlive:duration">00:00:05.000</property>
  <property name="kdenlive:folderid">95</property>
  <property name="kdenlive:clip_type">2</property>
  <property name="kdenlive:id">181</property>
  <property name="kdenlive:file_size">9223</property>
  <property name="kdenlive:file_hash">6bb9a9d7bf19462d85d35ebd5c0aeb75</property>
 </producer>
 <producer id="producer178" in="00:00:00.000" out="00:00:04.960">
  <property name="length">00:00:05.000</property>
  <property name="eof">pause</property>
  <property name="resource">/home/liquidzulu/Documents/youtube-scripts/courses/libertarian-ethics/capsaicin/pseudo/homesteading-and-property-rights.pseudo.srt-images/216.png</property>
  <property name="ttl">25</property>
  <property name="aspect_ratio">1</property>
  <property name="progressive">1</property>
  <property name="seekable">1</property>
  <property name="meta.media.width">1920</property>
  <property name="meta.media.height">1080</property>
  <property name="mlt_service">qimage</property>
  <property name="kdenlive:clipname"/>
  <property name="kdenlive:duration">00:00:05.000</property>
  <property name="kdenlive:folderid">95</property>
  <property name="kdenlive:clip_type">2</property>
  <property name="kdenlive:id">182</property>
  <property name="kdenlive:file_size">8779</property>
  <property name="kdenlive:file_hash">0e9d009c7f51d5bf5b9cefb428986161</property>
 </producer>
 <producer id="producer179" in="00:00:00.000" out="00:00:04.960">
  <property name="length">00:00:05.000</property>
  <property name="eof">pause</property>
  <property name="resource">/home/liquidzulu/Documents/youtube-scripts/courses/libertarian-ethics/capsaicin/pseudo/homesteading-and-property-rights.pseudo.srt-images/217.png</property>
  <property name="ttl">25</property>
  <property name="aspect_ratio">1</property>
  <property name="progressive">1</property>
  <property name="seekable">1</property>
  <property name="meta.media.width">1920</property>
  <property name="meta.media.height">1080</property>
  <property name="mlt_service">qimage</property>
  <property name="kdenlive:clipname"/>
  <property name="kdenlive:duration">00:00:05.000</property>
  <property name="kdenlive:folderid">95</property>
  <property name="kdenlive:clip_type">2</property>
  <property name="kdenlive:id">183</property>
  <property name="kdenlive:file_size">8837</property>
  <property name="kdenlive:file_hash">568134a1fc990278522d64a3c3dcd0c1</property>
 </producer>
 <producer id="producer180" in="00:00:00.000" out="00:00:04.960">
  <property name="length">00:00:05.000</property>
  <property name="eof">pause</property>
  <property name="resource">/home/liquidzulu/Documents/youtube-scripts/courses/libertarian-ethics/capsaicin/pseudo/homesteading-and-property-rights.pseudo.srt-images/218.png</property>
  <property name="ttl">25</property>
  <property name="aspect_ratio">1</property>
  <property name="progressive">1</property>
  <property name="seekable">1</property>
  <property name="meta.media.width">1920</property>
  <property name="meta.media.height">1080</property>
  <property name="mlt_service">qimage</property>
  <property name="kdenlive:clipname"/>
  <property name="kdenlive:duration">00:00:05.000</property>
  <property name="kdenlive:folderid">95</property>
  <property name="kdenlive:clip_type">2</property>
  <property name="kdenlive:id">184</property>
  <property name="kdenlive:file_size">9454</property>
  <property name="kdenlive:file_hash">f0c4cc16062e0629fee236b9f38958fe</property>
 </producer>
 <producer id="producer183" in="00:00:00.000" out="00:00:04.960">
  <property name="length">00:00:05.000</property>
  <property name="eof">pause</property>
  <property name="resource">/home/liquidzulu/Documents/youtube-scripts/courses/libertarian-ethics/capsaicin/pseudo/homesteading-and-property-rights.pseudo.srt-images/219.png</property>
  <property name="ttl">25</property>
  <property name="aspect_ratio">1</property>
  <property name="progressive">1</property>
  <property name="seekable">1</property>
  <property name="meta.media.width">1920</property>
  <property name="meta.media.height">1080</property>
  <property name="mlt_service">qimage</property>
  <property name="kdenlive:clipname"/>
  <property name="kdenlive:duration">00:00:05.000</property>
  <property name="kdenlive:folderid">95</property>
  <property name="kdenlive:clip_type">2</property>
  <property name="kdenlive:id">185</property>
  <property name="kdenlive:file_size">8966</property>
  <property name="kdenlive:file_hash">fe83681582747059cb68c96bf09cd1ea</property>
 </producer>
 <producer id="producer181" in="00:00:00.000" out="00:00:04.960">
  <property name="length">00:00:05.000</property>
  <property name="eof">pause</property>
  <property name="resource">/home/liquidzulu/Documents/youtube-scripts/courses/libertarian-ethics/capsaicin/pseudo/homesteading-and-property-rights.pseudo.srt-images/22.png</property>
  <property name="ttl">25</property>
  <property name="aspect_ratio">1</property>
  <property name="progressive">1</property>
  <property name="seekable">1</property>
  <property name="meta.media.width">1920</property>
  <property name="meta.media.height">1080</property>
  <property name="mlt_service">qimage</property>
  <property name="kdenlive:clipname"/>
  <property name="kdenlive:duration">00:00:05.000</property>
  <property name="kdenlive:folderid">95</property>
  <property name="kdenlive:clip_type">2</property>
  <property name="kdenlive:id">186</property>
  <property name="kdenlive:file_size">8803</property>
  <property name="kdenlive:file_hash">71e8e8b98bedcaceb6b16bc8aa7e9251</property>
 </producer>
 <producer id="producer182" in="00:00:00.000" out="00:00:04.960">
  <property name="length">00:00:05.000</property>
  <property name="eof">pause</property>
  <property name="resource">/home/liquidzulu/Documents/youtube-scripts/courses/libertarian-ethics/capsaicin/pseudo/homesteading-and-property-rights.pseudo.srt-images/220.png</property>
  <property name="ttl">25</property>
  <property name="aspect_ratio">1</property>
  <property name="progressive">1</property>
  <property name="seekable">1</property>
  <property name="meta.media.width">1920</property>
  <property name="meta.media.height">1080</property>
  <property name="mlt_service">qimage</property>
  <property name="kdenlive:clipname"/>
  <property name="kdenlive:duration">00:00:05.000</property>
  <property name="kdenlive:folderid">95</property>
  <property name="kdenlive:clip_type">2</property>
  <property name="kdenlive:id">187</property>
  <property name="kdenlive:file_size">9427</property>
  <property name="kdenlive:file_hash">c95abef67c6bbfdb6750b1af244fe9f2</property>
 </producer>
 <producer id="producer184" in="00:00:00.000" out="00:00:04.960">
  <property name="length">00:00:05.000</property>
  <property name="eof">pause</property>
  <property name="resource">/home/liquidzulu/Documents/youtube-scripts/courses/libertarian-ethics/capsaicin/pseudo/homesteading-and-property-rights.pseudo.srt-images/221.png</property>
  <property name="ttl">25</property>
  <property name="aspect_ratio">1</property>
  <property name="progressive">1</property>
  <property name="seekable">1</property>
  <property name="meta.media.width">1920</property>
  <property name="meta.media.height">1080</property>
  <property name="mlt_service">qimage</property>
  <property name="kdenlive:clipname"/>
  <property name="kdenlive:duration">00:00:05.000</property>
  <property name="kdenlive:folderid">95</property>
  <property name="kdenlive:clip_type">2</property>
  <property name="kdenlive:id">188</property>
  <property name="kdenlive:file_size">8807</property>
  <property name="kdenlive:file_hash">bf6b29ad2b5fcd023a7e4ff1efd3aec2</property>
 </producer>
 <producer id="producer185" in="00:00:00.000" out="00:00:04.960">
  <property name="length">00:00:05.000</property>
  <property name="eof">pause</property>
  <property name="resource">/home/liquidzulu/Documents/youtube-scripts/courses/libertarian-ethics/capsaicin/pseudo/homesteading-and-property-rights.pseudo.srt-images/222.png</property>
  <property name="ttl">25</property>
  <property name="aspect_ratio">1</property>
  <property name="progressive">1</property>
  <property name="seekable">1</property>
  <property name="meta.media.width">1920</property>
  <property name="meta.media.height">1080</property>
  <property name="mlt_service">qimage</property>
  <property name="kdenlive:clipname"/>
  <property name="kdenlive:duration">00:00:05.000</property>
  <property name="kdenlive:folderid">95</property>
  <property name="kdenlive:clip_type">2</property>
  <property name="kdenlive:id">189</property>
  <property name="kdenlive:file_size">8853</property>
  <property name="kdenlive:file_hash">449182d38e1f8c606418ada382b4db30</property>
 </producer>
 <producer id="producer186" in="00:00:00.000" out="00:00:04.960">
  <property name="length">00:00:05.000</property>
  <property name="eof">pause</property>
  <property name="resource">/home/liquidzulu/Documents/youtube-scripts/courses/libertarian-ethics/capsaicin/pseudo/homesteading-and-property-rights.pseudo.srt-images/223.png</property>
  <property name="ttl">25</property>
  <property name="aspect_ratio">1</property>
  <property name="progressive">1</property>
  <property name="seekable">1</property>
  <property name="meta.media.width">1920</property>
  <property name="meta.media.height">1080</property>
  <property name="mlt_service">qimage</property>
  <property name="kdenlive:clipname"/>
  <property name="kdenlive:duration">00:00:05.000</property>
  <property name="kdenlive:folderid">95</property>
  <property name="kdenlive:clip_type">2</property>
  <property name="kdenlive:id">190</property>
  <property name="kdenlive:file_size">9243</property>
  <property name="kdenlive:file_hash">498c0a8c2cf76f39ab31b7371e545383</property>
 </producer>
 <producer id="producer187" in="00:00:00.000" out="00:00:04.960">
  <property name="length">00:00:05.000</property>
  <property name="eof">pause</property>
  <property name="resource">/home/liquidzulu/Documents/youtube-scripts/courses/libertarian-ethics/capsaicin/pseudo/homesteading-and-property-rights.pseudo.srt-images/224.png</property>
  <property name="ttl">25</property>
  <property name="aspect_ratio">1</property>
  <property name="progressive">1</property>
  <property name="seekable">1</property>
  <property name="meta.media.width">1920</property>
  <property name="meta.media.height">1080</property>
  <property name="mlt_service">qimage</property>
  <property name="kdenlive:clipname"/>
  <property name="kdenlive:duration">00:00:05.000</property>
  <property name="kdenlive:folderid">95</property>
  <property name="kdenlive:clip_type">2</property>
  <property name="kdenlive:id">191</property>
  <property name="kdenlive:file_size">8737</property>
  <property name="kdenlive:file_hash">a6821ce55397648b155cd7459d97a721</property>
 </producer>
 <producer id="producer188" in="00:00:00.000" out="00:00:04.960">
  <property name="length">00:00:05.000</property>
  <property name="eof">pause</property>
  <property name="resource">/home/liquidzulu/Documents/youtube-scripts/courses/libertarian-ethics/capsaicin/pseudo/homesteading-and-property-rights.pseudo.srt-images/225.png</property>
  <property name="ttl">25</property>
  <property name="aspect_ratio">1</property>
  <property name="progressive">1</property>
  <property name="seekable">1</property>
  <property name="meta.media.width">1920</property>
  <property name="meta.media.height">1080</property>
  <property name="mlt_service">qimage</property>
  <property name="kdenlive:clipname"/>
  <property name="kdenlive:duration">00:00:05.000</property>
  <property name="kdenlive:folderid">95</property>
  <property name="kdenlive:clip_type">2</property>
  <property name="kdenlive:id">192</property>
  <property name="kdenlive:file_size">8359</property>
  <property name="kdenlive:file_hash">16970d5a28303cba767b7f9670b68706</property>
 </producer>
 <producer id="producer189" in="00:00:00.000" out="00:00:04.960">
  <property name="length">00:00:05.000</property>
  <property name="eof">pause</property>
  <property name="resource">/home/liquidzulu/Documents/youtube-scripts/courses/libertarian-ethics/capsaicin/pseudo/homesteading-and-property-rights.pseudo.srt-images/226.png</property>
  <property name="ttl">25</property>
  <property name="aspect_ratio">1</property>
  <property name="progressive">1</property>
  <property name="seekable">1</property>
  <property name="meta.media.width">1920</property>
  <property name="meta.media.height">1080</property>
  <property name="mlt_service">qimage</property>
  <property name="kdenlive:clipname"/>
  <property name="kdenlive:duration">00:00:05.000</property>
  <property name="kdenlive:folderid">95</property>
  <property name="kdenlive:clip_type">2</property>
  <property name="kdenlive:id">193</property>
  <property name="kdenlive:file_size">7996</property>
  <property name="kdenlive:file_hash">39b656723b37c5d05ffc59e87fa4a768</property>
 </producer>
 <producer id="producer190" in="00:00:00.000" out="00:00:04.960">
  <property name="length">00:00:05.000</property>
  <property name="eof">pause</property>
  <property name="resource">/home/liquidzulu/Documents/youtube-scripts/courses/libertarian-ethics/capsaicin/pseudo/homesteading-and-property-rights.pseudo.srt-images/227.png</property>
  <property name="ttl">25</property>
  <property name="aspect_ratio">1</property>
  <property name="progressive">1</property>
  <property name="seekable">1</property>
  <property name="meta.media.width">1920</property>
  <property name="meta.media.height">1080</property>
  <property name="mlt_service">qimage</property>
  <property name="kdenlive:clipname"/>
  <property name="kdenlive:duration">00:00:05.000</property>
  <property name="kdenlive:folderid">95</property>
  <property name="kdenlive:clip_type">2</property>
  <property name="kdenlive:id">194</property>
  <property name="kdenlive:file_size">8172</property>
  <property name="kdenlive:file_hash">9bb63beae02b4171330cba7cfdc2cfd5</property>
 </producer>
 <producer id="producer191" in="00:00:00.000" out="00:00:04.960">
  <property name="length">00:00:05.000</property>
  <property name="eof">pause</property>
  <property name="resource">/home/liquidzulu/Documents/youtube-scripts/courses/libertarian-ethics/capsaicin/pseudo/homesteading-and-property-rights.pseudo.srt-images/23.png</property>
  <property name="ttl">25</property>
  <property name="aspect_ratio">1</property>
  <property name="progressive">1</property>
  <property name="seekable">1</property>
  <property name="meta.media.width">1920</property>
  <property name="meta.media.height">1080</property>
  <property name="mlt_service">qimage</property>
  <property name="kdenlive:clipname"/>
  <property name="kdenlive:duration">00:00:05.000</property>
  <property name="kdenlive:folderid">95</property>
  <property name="kdenlive:clip_type">2</property>
  <property name="kdenlive:id">195</property>
  <property name="kdenlive:file_size">8885</property>
  <property name="kdenlive:file_hash">e089c7a69464489fb640ecfa0ff60bf7</property>
 </producer>
 <producer id="producer192" in="00:00:00.000" out="00:00:04.960">
  <property name="length">00:00:05.000</property>
  <property name="eof">pause</property>
  <property name="resource">/home/liquidzulu/Documents/youtube-scripts/courses/libertarian-ethics/capsaicin/pseudo/homesteading-and-property-rights.pseudo.srt-images/24.png</property>
  <property name="ttl">25</property>
  <property name="aspect_ratio">1</property>
  <property name="progressive">1</property>
  <property name="seekable">1</property>
  <property name="meta.media.width">1920</property>
  <property name="meta.media.height">1080</property>
  <property name="mlt_service">qimage</property>
  <property name="kdenlive:clipname"/>
  <property name="kdenlive:duration">00:00:05.000</property>
  <property name="kdenlive:folderid">95</property>
  <property name="kdenlive:clip_type">2</property>
  <property name="kdenlive:id">196</property>
  <property name="kdenlive:file_size">8826</property>
  <property name="kdenlive:file_hash">fbcc252eae5744925b9ef0ee42efeca8</property>
 </producer>
 <producer id="producer193" in="00:00:00.000" out="00:00:04.960">
  <property name="length">00:00:05.000</property>
  <property name="eof">pause</property>
  <property name="resource">/home/liquidzulu/Documents/youtube-scripts/courses/libertarian-ethics/capsaicin/pseudo/homesteading-and-property-rights.pseudo.srt-images/243.png</property>
  <property name="ttl">25</property>
  <property name="aspect_ratio">1</property>
  <property name="progressive">1</property>
  <property name="seekable">1</property>
  <property name="meta.media.width">1920</property>
  <property name="meta.media.height">1080</property>
  <property name="mlt_service">qimage</property>
  <property name="kdenlive:clipname"/>
  <property name="kdenlive:duration">00:00:05.000</property>
  <property name="kdenlive:folderid">95</property>
  <property name="kdenlive:clip_type">2</property>
  <property name="kdenlive:id">197</property>
  <property name="kdenlive:file_size">8763</property>
  <property name="kdenlive:file_hash">55d5699fb04f9757a7db0fa9b1983516</property>
 </producer>
 <producer id="producer194" in="00:00:00.000" out="00:00:04.960">
  <property name="length">00:00:05.000</property>
  <property name="eof">pause</property>
  <property name="resource">/home/liquidzulu/Documents/youtube-scripts/courses/libertarian-ethics/capsaicin/pseudo/homesteading-and-property-rights.pseudo.srt-images/244.png</property>
  <property name="ttl">25</property>
  <property name="aspect_ratio">1</property>
  <property name="progressive">1</property>
  <property name="seekable">1</property>
  <property name="meta.media.width">1920</property>
  <property name="meta.media.height">1080</property>
  <property name="mlt_service">qimage</property>
  <property name="kdenlive:clipname"/>
  <property name="kdenlive:duration">00:00:05.000</property>
  <property name="kdenlive:folderid">95</property>
  <property name="kdenlive:clip_type">2</property>
  <property name="kdenlive:id">198</property>
  <property name="kdenlive:file_size">8997</property>
  <property name="kdenlive:file_hash">28a4abfed2398539841e3314d41a16c6</property>
 </producer>
 <producer id="producer196" in="00:00:00.000" out="00:00:04.960">
  <property name="length">00:00:05.000</property>
  <property name="eof">pause</property>
  <property name="resource">/home/liquidzulu/Documents/youtube-scripts/courses/libertarian-ethics/capsaicin/pseudo/homesteading-and-property-rights.pseudo.srt-images/245.png</property>
  <property name="ttl">25</property>
  <property name="aspect_ratio">1</property>
  <property name="progressive">1</property>
  <property name="seekable">1</property>
  <property name="meta.media.width">1920</property>
  <property name="meta.media.height">1080</property>
  <property name="mlt_service">qimage</property>
  <property name="kdenlive:clipname"/>
  <property name="kdenlive:duration">00:00:05.000</property>
  <property name="kdenlive:folderid">95</property>
  <property name="kdenlive:clip_type">2</property>
  <property name="kdenlive:id">199</property>
  <property name="kdenlive:file_size">9641</property>
  <property name="kdenlive:file_hash">a6583336f11d69c5d14727d9b1988ebb</property>
 </producer>
 <producer id="producer195" in="00:00:00.000" out="00:00:04.960">
  <property name="length">00:00:05.000</property>
  <property name="eof">pause</property>
  <property name="resource">/home/liquidzulu/Documents/youtube-scripts/courses/libertarian-ethics/capsaicin/pseudo/homesteading-and-property-rights.pseudo.srt-images/246.png</property>
  <property name="ttl">25</property>
  <property name="aspect_ratio">1</property>
  <property name="progressive">1</property>
  <property name="seekable">1</property>
  <property name="meta.media.width">1920</property>
  <property name="meta.media.height">1080</property>
  <property name="mlt_service">qimage</property>
  <property name="kdenlive:clipname"/>
  <property name="kdenlive:duration">00:00:05.000</property>
  <property name="kdenlive:folderid">95</property>
  <property name="kdenlive:clip_type">2</property>
  <property name="kdenlive:id">200</property>
  <property name="kdenlive:file_size">8718</property>
  <property name="kdenlive:file_hash">efaee8da9857b0f1264d4698884642f8</property>
 </producer>
 <producer id="producer197" in="00:00:00.000" out="00:00:04.960">
  <property name="length">00:00:05.000</property>
  <property name="eof">pause</property>
  <property name="resource">/home/liquidzulu/Documents/youtube-scripts/courses/libertarian-ethics/capsaicin/pseudo/homesteading-and-property-rights.pseudo.srt-images/247.png</property>
  <property name="ttl">25</property>
  <property name="aspect_ratio">1</property>
  <property name="progressive">1</property>
  <property name="seekable">1</property>
  <property name="meta.media.width">1920</property>
  <property name="meta.media.height">1080</property>
  <property name="mlt_service">qimage</property>
  <property name="kdenlive:clipname"/>
  <property name="kdenlive:duration">00:00:05.000</property>
  <property name="kdenlive:folderid">95</property>
  <property name="kdenlive:clip_type">2</property>
  <property name="kdenlive:id">201</property>
  <property name="kdenlive:file_size">8412</property>
  <property name="kdenlive:file_hash">cd9ca0ec8f002bf35b0dc2b342d18765</property>
 </producer>
 <producer id="producer198" in="00:00:00.000" out="00:00:04.960">
  <property name="length">00:00:05.000</property>
  <property name="eof">pause</property>
  <property name="resource">/home/liquidzulu/Documents/youtube-scripts/courses/libertarian-ethics/capsaicin/pseudo/homesteading-and-property-rights.pseudo.srt-images/248.png</property>
  <property name="ttl">25</property>
  <property name="aspect_ratio">1</property>
  <property name="progressive">1</property>
  <property name="seekable">1</property>
  <property name="meta.media.width">1920</property>
  <property name="meta.media.height">1080</property>
  <property name="mlt_service">qimage</property>
  <property name="kdenlive:clipname"/>
  <property name="kdenlive:duration">00:00:05.000</property>
  <property name="kdenlive:folderid">95</property>
  <property name="kdenlive:clip_type">2</property>
  <property name="kdenlive:id">202</property>
  <property name="kdenlive:file_size">9065</property>
  <property name="kdenlive:file_hash">1e0d1bb6fac2f6ec442f7454d33f431f</property>
 </producer>
 <producer id="producer199" in="00:00:00.000" out="00:00:04.960">
  <property name="length">00:00:05.000</property>
  <property name="eof">pause</property>
  <property name="resource">/home/liquidzulu/Documents/youtube-scripts/courses/libertarian-ethics/capsaicin/pseudo/homesteading-and-property-rights.pseudo.srt-images/249.png</property>
  <property name="ttl">25</property>
  <property name="aspect_ratio">1</property>
  <property name="progressive">1</property>
  <property name="seekable">1</property>
  <property name="meta.media.width">1920</property>
  <property name="meta.media.height">1080</property>
  <property name="mlt_service">qimage</property>
  <property name="kdenlive:clipname"/>
  <property name="kdenlive:duration">00:00:05.000</property>
  <property name="kdenlive:folderid">95</property>
  <property name="kdenlive:clip_type">2</property>
  <property name="kdenlive:id">203</property>
  <property name="kdenlive:file_size">8942</property>
  <property name="kdenlive:file_hash">3fbe4ba1af6dc5e5c7fa641ad35ee9da</property>
 </producer>
 <producer id="producer201" in="00:00:00.000" out="00:00:04.960">
  <property name="length">00:00:05.000</property>
  <property name="eof">pause</property>
  <property name="resource">/home/liquidzulu/Documents/youtube-scripts/courses/libertarian-ethics/capsaicin/pseudo/homesteading-and-property-rights.pseudo.srt-images/25.png</property>
  <property name="ttl">25</property>
  <property name="aspect_ratio">1</property>
  <property name="progressive">1</property>
  <property name="seekable">1</property>
  <property name="meta.media.width">1920</property>
  <property name="meta.media.height">1080</property>
  <property name="mlt_service">qimage</property>
  <property name="kdenlive:clipname"/>
  <property name="kdenlive:duration">00:00:05.000</property>
  <property name="kdenlive:folderid">95</property>
  <property name="kdenlive:clip_type">2</property>
  <property name="kdenlive:id">204</property>
  <property name="kdenlive:file_size">8714</property>
  <property name="kdenlive:file_hash">858588cfba41038ea2badd8042282c32</property>
 </producer>
 <producer id="producer200" in="00:00:00.000" out="00:00:04.960">
  <property name="length">00:00:05.000</property>
  <property name="eof">pause</property>
  <property name="resource">/home/liquidzulu/Documents/youtube-scripts/courses/libertarian-ethics/capsaicin/pseudo/homesteading-and-property-rights.pseudo.srt-images/250.png</property>
  <property name="ttl">25</property>
  <property name="aspect_ratio">1</property>
  <property name="progressive">1</property>
  <property name="seekable">1</property>
  <property name="meta.media.width">1920</property>
  <property name="meta.media.height">1080</property>
  <property name="mlt_service">qimage</property>
  <property name="kdenlive:clipname"/>
  <property name="kdenlive:duration">00:00:05.000</property>
  <property name="kdenlive:folderid">95</property>
  <property name="kdenlive:clip_type">2</property>
  <property name="kdenlive:id">205</property>
  <property name="kdenlive:file_size">6691</property>
  <property name="kdenlive:file_hash">ce166d202fcadacbbfe7b5ab2e937acf</property>
 </producer>
 <producer id="producer202" in="00:00:00.000" out="00:00:04.960">
  <property name="length">00:00:05.000</property>
  <property name="eof">pause</property>
  <property name="resource">/home/liquidzulu/Documents/youtube-scripts/courses/libertarian-ethics/capsaicin/pseudo/homesteading-and-property-rights.pseudo.srt-images/26.png</property>
  <property name="ttl">25</property>
  <property name="aspect_ratio">1</property>
  <property name="progressive">1</property>
  <property name="seekable">1</property>
  <property name="meta.media.width">1920</property>
  <property name="meta.media.height">1080</property>
  <property name="mlt_service">qimage</property>
  <property name="kdenlive:clipname"/>
  <property name="kdenlive:duration">00:00:05.000</property>
  <property name="kdenlive:folderid">95</property>
  <property name="kdenlive:clip_type">2</property>
  <property name="kdenlive:id">206</property>
  <property name="kdenlive:file_size">8793</property>
  <property name="kdenlive:file_hash">4496efe27e59d2f1f315046ba5005099</property>
 </producer>
 <producer id="producer203" in="00:00:00.000" out="00:00:04.960">
  <property name="length">00:00:05.000</property>
  <property name="eof">pause</property>
  <property name="resource">/home/liquidzulu/Documents/youtube-scripts/courses/libertarian-ethics/capsaicin/pseudo/homesteading-and-property-rights.pseudo.srt-images/27.png</property>
  <property name="ttl">25</property>
  <property name="aspect_ratio">1</property>
  <property name="progressive">1</property>
  <property name="seekable">1</property>
  <property name="meta.media.width">1920</property>
  <property name="meta.media.height">1080</property>
  <property name="mlt_service">qimage</property>
  <property name="kdenlive:clipname"/>
  <property name="kdenlive:duration">00:00:05.000</property>
  <property name="kdenlive:folderid">95</property>
  <property name="kdenlive:clip_type">2</property>
  <property name="kdenlive:id">207</property>
  <property name="kdenlive:file_size">8890</property>
  <property name="kdenlive:file_hash">a06045b8e972c6a92f1bb915779356a0</property>
 </producer>
 <producer id="producer204" in="00:00:00.000" out="00:00:04.960">
  <property name="length">00:00:05.000</property>
  <property name="eof">pause</property>
  <property name="resource">/home/liquidzulu/Documents/youtube-scripts/courses/libertarian-ethics/capsaicin/pseudo/homesteading-and-property-rights.pseudo.srt-images/28.png</property>
  <property name="ttl">25</property>
  <property name="aspect_ratio">1</property>
  <property name="progressive">1</property>
  <property name="seekable">1</property>
  <property name="meta.media.width">1920</property>
  <property name="meta.media.height">1080</property>
  <property name="mlt_service">qimage</property>
  <property name="kdenlive:clipname"/>
  <property name="kdenlive:duration">00:00:05.000</property>
  <property name="kdenlive:folderid">95</property>
  <property name="kdenlive:clip_type">2</property>
  <property name="kdenlive:id">208</property>
  <property name="kdenlive:file_size">8830</property>
  <property name="kdenlive:file_hash">555c57e359695e8695c9a90a98c12177</property>
 </producer>
 <producer id="producer205" in="00:00:00.000" out="00:00:04.960">
  <property name="length">00:00:05.000</property>
  <property name="eof">pause</property>
  <property name="resource">/home/liquidzulu/Documents/youtube-scripts/courses/libertarian-ethics/capsaicin/pseudo/homesteading-and-property-rights.pseudo.srt-images/281.png</property>
  <property name="ttl">25</property>
  <property name="aspect_ratio">1</property>
  <property name="progressive">1</property>
  <property name="seekable">1</property>
  <property name="meta.media.width">1920</property>
  <property name="meta.media.height">1080</property>
  <property name="mlt_service">qimage</property>
  <property name="kdenlive:clipname"/>
  <property name="kdenlive:duration">00:00:05.000</property>
  <property name="kdenlive:folderid">95</property>
  <property name="kdenlive:clip_type">2</property>
  <property name="kdenlive:id">209</property>
  <property name="kdenlive:file_size">9263</property>
  <property name="kdenlive:file_hash">347be0f743e82a91306e8b030c7d58dd</property>
 </producer>
 <producer id="producer207" in="00:00:00.000" out="00:00:04.960">
  <property name="length">00:00:05.000</property>
  <property name="eof">pause</property>
  <property name="resource">/home/liquidzulu/Documents/youtube-scripts/courses/libertarian-ethics/capsaicin/pseudo/homesteading-and-property-rights.pseudo.srt-images/282.png</property>
  <property name="ttl">25</property>
  <property name="aspect_ratio">1</property>
  <property name="progressive">1</property>
  <property name="seekable">1</property>
  <property name="meta.media.width">1920</property>
  <property name="meta.media.height">1080</property>
  <property name="mlt_service">qimage</property>
  <property name="kdenlive:clipname"/>
  <property name="kdenlive:duration">00:00:05.000</property>
  <property name="kdenlive:folderid">95</property>
  <property name="kdenlive:clip_type">2</property>
  <property name="kdenlive:id">210</property>
  <property name="kdenlive:file_size">8894</property>
  <property name="kdenlive:file_hash">11ea78ac615f7a863aa3a35f88cf84c8</property>
 </producer>
 <producer id="producer206" in="00:00:00.000" out="00:00:04.960">
  <property name="length">00:00:05.000</property>
  <property name="eof">pause</property>
  <property name="resource">/home/liquidzulu/Documents/youtube-scripts/courses/libertarian-ethics/capsaicin/pseudo/homesteading-and-property-rights.pseudo.srt-images/283.png</property>
  <property name="ttl">25</property>
  <property name="aspect_ratio">1</property>
  <property name="progressive">1</property>
  <property name="seekable">1</property>
  <property name="meta.media.width">1920</property>
  <property name="meta.media.height">1080</property>
  <property name="mlt_service">qimage</property>
  <property name="kdenlive:clipname"/>
  <property name="kdenlive:duration">00:00:05.000</property>
  <property name="kdenlive:folderid">95</property>
  <property name="kdenlive:clip_type">2</property>
  <property name="kdenlive:id">211</property>
  <property name="kdenlive:file_size">8974</property>
  <property name="kdenlive:file_hash">055df6d74a5afcb2a72abbccd4ad7269</property>
 </producer>
 <producer id="producer209" in="00:00:00.000" out="00:00:04.960">
  <property name="length">00:00:05.000</property>
  <property name="eof">pause</property>
  <property name="resource">/home/liquidzulu/Documents/youtube-scripts/courses/libertarian-ethics/capsaicin/pseudo/homesteading-and-property-rights.pseudo.srt-images/284.png</property>
  <property name="ttl">25</property>
  <property name="aspect_ratio">1</property>
  <property name="progressive">1</property>
  <property name="seekable">1</property>
  <property name="meta.media.width">1920</property>
  <property name="meta.media.height">1080</property>
  <property name="mlt_service">qimage</property>
  <property name="kdenlive:clipname"/>
  <property name="kdenlive:duration">00:00:05.000</property>
  <property name="kdenlive:folderid">95</property>
  <property name="kdenlive:clip_type">2</property>
  <property name="kdenlive:id">212</property>
  <property name="kdenlive:file_size">8971</property>
  <property name="kdenlive:file_hash">7735c6c15bdd42975d1180a22775ee99</property>
 </producer>
 <producer id="producer208" in="00:00:00.000" out="00:00:04.960">
  <property name="length">00:00:05.000</property>
  <property name="eof">pause</property>
  <property name="resource">/home/liquidzulu/Documents/youtube-scripts/courses/libertarian-ethics/capsaicin/pseudo/homesteading-and-property-rights.pseudo.srt-images/285.png</property>
  <property name="ttl">25</property>
  <property name="aspect_ratio">1</property>
  <property name="progressive">1</property>
  <property name="seekable">1</property>
  <property name="meta.media.width">1920</property>
  <property name="meta.media.height">1080</property>
  <property name="mlt_service">qimage</property>
  <property name="kdenlive:clipname"/>
  <property name="kdenlive:duration">00:00:05.000</property>
  <property name="kdenlive:folderid">95</property>
  <property name="kdenlive:clip_type">2</property>
  <property name="kdenlive:id">213</property>
  <property name="kdenlive:file_size">8907</property>
  <property name="kdenlive:file_hash">35c415e2a4f3e21114e5c4db5900eeba</property>
 </producer>
 <producer id="producer210" in="00:00:00.000" out="00:00:04.960">
  <property name="length">00:00:05.000</property>
  <property name="eof">pause</property>
  <property name="resource">/home/liquidzulu/Documents/youtube-scripts/courses/libertarian-ethics/capsaicin/pseudo/homesteading-and-property-rights.pseudo.srt-images/286.png</property>
  <property name="ttl">25</property>
  <property name="aspect_ratio">1</property>
  <property name="progressive">1</property>
  <property name="seekable">1</property>
  <property name="meta.media.width">1920</property>
  <property name="meta.media.height">1080</property>
  <property name="mlt_service">qimage</property>
  <property name="kdenlive:clipname"/>
  <property name="kdenlive:duration">00:00:05.000</property>
  <property name="kdenlive:folderid">95</property>
  <property name="kdenlive:clip_type">2</property>
  <property name="kdenlive:id">214</property>
  <property name="kdenlive:file_size">8794</property>
  <property name="kdenlive:file_hash">134ce208ee7f5183073d085a983dc2af</property>
 </producer>
 <producer id="producer211" in="00:00:00.000" out="00:00:04.960">
  <property name="length">00:00:05.000</property>
  <property name="eof">pause</property>
  <property name="resource">/home/liquidzulu/Documents/youtube-scripts/courses/libertarian-ethics/capsaicin/pseudo/homesteading-and-property-rights.pseudo.srt-images/287.png</property>
  <property name="ttl">25</property>
  <property name="aspect_ratio">1</property>
  <property name="progressive">1</property>
  <property name="seekable">1</property>
  <property name="meta.media.width">1920</property>
  <property name="meta.media.height">1080</property>
  <property name="mlt_service">qimage</property>
  <property name="kdenlive:clipname"/>
  <property name="kdenlive:duration">00:00:05.000</property>
  <property name="kdenlive:folderid">95</property>
  <property name="kdenlive:clip_type">2</property>
  <property name="kdenlive:id">215</property>
  <property name="kdenlive:file_size">8347</property>
  <property name="kdenlive:file_hash">c31d97f0c2249dbeb0ae81da3a523769</property>
 </producer>
 <producer id="producer212" in="00:00:00.000" out="00:00:04.960">
  <property name="length">00:00:05.000</property>
  <property name="eof">pause</property>
  <property name="resource">/home/liquidzulu/Documents/youtube-scripts/courses/libertarian-ethics/capsaicin/pseudo/homesteading-and-property-rights.pseudo.srt-images/288.png</property>
  <property name="ttl">25</property>
  <property name="aspect_ratio">1</property>
  <property name="progressive">1</property>
  <property name="seekable">1</property>
  <property name="meta.media.width">1920</property>
  <property name="meta.media.height">1080</property>
  <property name="mlt_service">qimage</property>
  <property name="kdenlive:clipname"/>
  <property name="kdenlive:duration">00:00:05.000</property>
  <property name="kdenlive:folderid">95</property>
  <property name="kdenlive:clip_type">2</property>
  <property name="kdenlive:id">216</property>
  <property name="kdenlive:file_size">9184</property>
  <property name="kdenlive:file_hash">d70276d8262f6a0592d6006fffebdb05</property>
 </producer>
 <producer id="producer213" in="00:00:00.000" out="00:00:04.960">
  <property name="length">00:00:05.000</property>
  <property name="eof">pause</property>
  <property name="resource">/home/liquidzulu/Documents/youtube-scripts/courses/libertarian-ethics/capsaicin/pseudo/homesteading-and-property-rights.pseudo.srt-images/289.png</property>
  <property name="ttl">25</property>
  <property name="aspect_ratio">1</property>
  <property name="progressive">1</property>
  <property name="seekable">1</property>
  <property name="meta.media.width">1920</property>
  <property name="meta.media.height">1080</property>
  <property name="mlt_service">qimage</property>
  <property name="kdenlive:clipname"/>
  <property name="kdenlive:duration">00:00:05.000</property>
  <property name="kdenlive:folderid">95</property>
  <property name="kdenlive:clip_type">2</property>
  <property name="kdenlive:id">217</property>
  <property name="kdenlive:file_size">9231</property>
  <property name="kdenlive:file_hash">c18c8ebb1dc6eb42af2c5dc21b58325f</property>
 </producer>
 <producer id="producer214" in="00:00:00.000" out="00:00:04.960">
  <property name="length">00:00:05.000</property>
  <property name="eof">pause</property>
  <property name="resource">/home/liquidzulu/Documents/youtube-scripts/courses/libertarian-ethics/capsaicin/pseudo/homesteading-and-property-rights.pseudo.srt-images/29.png</property>
  <property name="ttl">25</property>
  <property name="aspect_ratio">1</property>
  <property name="progressive">1</property>
  <property name="seekable">1</property>
  <property name="meta.media.width">1920</property>
  <property name="meta.media.height">1080</property>
  <property name="mlt_service">qimage</property>
  <property name="kdenlive:clipname"/>
  <property name="kdenlive:duration">00:00:05.000</property>
  <property name="kdenlive:folderid">95</property>
  <property name="kdenlive:clip_type">2</property>
  <property name="kdenlive:id">218</property>
  <property name="kdenlive:file_size">8804</property>
  <property name="kdenlive:file_hash">6c3b46b532aad08aaf7a0ae4c7c99e54</property>
 </producer>
 <producer id="producer217" in="00:00:00.000" out="00:00:04.960">
  <property name="length">00:00:05.000</property>
  <property name="eof">pause</property>
  <property name="resource">/home/liquidzulu/Documents/youtube-scripts/courses/libertarian-ethics/capsaicin/pseudo/homesteading-and-property-rights.pseudo.srt-images/290.png</property>
  <property name="ttl">25</property>
  <property name="aspect_ratio">1</property>
  <property name="progressive">1</property>
  <property name="seekable">1</property>
  <property name="meta.media.width">1920</property>
  <property name="meta.media.height">1080</property>
  <property name="mlt_service">qimage</property>
  <property name="kdenlive:clipname"/>
  <property name="kdenlive:duration">00:00:05.000</property>
  <property name="kdenlive:folderid">95</property>
  <property name="kdenlive:clip_type">2</property>
  <property name="kdenlive:id">219</property>
  <property name="kdenlive:file_size">9219</property>
  <property name="kdenlive:file_hash">ee79cf13364728da16143b82ed94a2f4</property>
 </producer>
 <producer id="producer215" in="00:00:00.000" out="00:00:04.960">
  <property name="length">00:00:05.000</property>
  <property name="eof">pause</property>
  <property name="resource">/home/liquidzulu/Documents/youtube-scripts/courses/libertarian-ethics/capsaicin/pseudo/homesteading-and-property-rights.pseudo.srt-images/291.png</property>
  <property name="ttl">25</property>
  <property name="aspect_ratio">1</property>
  <property name="progressive">1</property>
  <property name="seekable">1</property>
  <property name="meta.media.width">1920</property>
  <property name="meta.media.height">1080</property>
  <property name="mlt_service">qimage</property>
  <property name="kdenlive:clipname"/>
  <property name="kdenlive:duration">00:00:05.000</property>
  <property name="kdenlive:folderid">95</property>
  <property name="kdenlive:clip_type">2</property>
  <property name="kdenlive:id">220</property>
  <property name="kdenlive:file_size">8780</property>
  <property name="kdenlive:file_hash">f308facf2d2b687c5b455513bce2c562</property>
 </producer>
 <producer id="producer216" in="00:00:00.000" out="00:00:04.960">
  <property name="length">00:00:05.000</property>
  <property name="eof">pause</property>
  <property name="resource">/home/liquidzulu/Documents/youtube-scripts/courses/libertarian-ethics/capsaicin/pseudo/homesteading-and-property-rights.pseudo.srt-images/292.png</property>
  <property name="ttl">25</property>
  <property name="aspect_ratio">1</property>
  <property name="progressive">1</property>
  <property name="seekable">1</property>
  <property name="meta.media.width">1920</property>
  <property name="meta.media.height">1080</property>
  <property name="mlt_service">qimage</property>
  <property name="kdenlive:clipname"/>
  <property name="kdenlive:duration">00:00:05.000</property>
  <property name="kdenlive:folderid">95</property>
  <property name="kdenlive:clip_type">2</property>
  <property name="kdenlive:id">221</property>
  <property name="kdenlive:file_size">9365</property>
  <property name="kdenlive:file_hash">e275e02c7b779b95a59598c239ad63e8</property>
 </producer>
 <producer id="producer220" in="00:00:00.000" out="00:00:04.960">
  <property name="length">00:00:05.000</property>
  <property name="eof">pause</property>
  <property name="resource">/home/liquidzulu/Documents/youtube-scripts/courses/libertarian-ethics/capsaicin/pseudo/homesteading-and-property-rights.pseudo.srt-images/293.png</property>
  <property name="ttl">25</property>
  <property name="aspect_ratio">1</property>
  <property name="progressive">1</property>
  <property name="seekable">1</property>
  <property name="meta.media.width">1920</property>
  <property name="meta.media.height">1080</property>
  <property name="mlt_service">qimage</property>
  <property name="kdenlive:clipname"/>
  <property name="kdenlive:duration">00:00:05.000</property>
  <property name="kdenlive:folderid">95</property>
  <property name="kdenlive:clip_type">2</property>
  <property name="kdenlive:id">222</property>
  <property name="kdenlive:file_size">8917</property>
  <property name="kdenlive:file_hash">14474219793031ae273467dfad6a9603</property>
 </producer>
 <producer id="producer218" in="00:00:00.000" out="00:00:04.960">
  <property name="length">00:00:05.000</property>
  <property name="eof">pause</property>
  <property name="resource">/home/liquidzulu/Documents/youtube-scripts/courses/libertarian-ethics/capsaicin/pseudo/homesteading-and-property-rights.pseudo.srt-images/294.png</property>
  <property name="ttl">25</property>
  <property name="aspect_ratio">1</property>
  <property name="progressive">1</property>
  <property name="seekable">1</property>
  <property name="meta.media.width">1920</property>
  <property name="meta.media.height">1080</property>
  <property name="mlt_service">qimage</property>
  <property name="kdenlive:clipname"/>
  <property name="kdenlive:duration">00:00:05.000</property>
  <property name="kdenlive:folderid">95</property>
  <property name="kdenlive:clip_type">2</property>
  <property name="kdenlive:id">223</property>
  <property name="kdenlive:file_size">9431</property>
  <property name="kdenlive:file_hash">d684b9b432ea482336b0e4c8bf60907e</property>
 </producer>
 <producer id="producer219" in="00:00:00.000" out="00:00:04.960">
  <property name="length">00:00:05.000</property>
  <property name="eof">pause</property>
  <property name="resource">/home/liquidzulu/Documents/youtube-scripts/courses/libertarian-ethics/capsaicin/pseudo/homesteading-and-property-rights.pseudo.srt-images/295.png</property>
  <property name="ttl">25</property>
  <property name="aspect_ratio">1</property>
  <property name="progressive">1</property>
  <property name="seekable">1</property>
  <property name="meta.media.width">1920</property>
  <property name="meta.media.height">1080</property>
  <property name="mlt_service">qimage</property>
  <property name="kdenlive:clipname"/>
  <property name="kdenlive:duration">00:00:05.000</property>
  <property name="kdenlive:folderid">95</property>
  <property name="kdenlive:clip_type">2</property>
  <property name="kdenlive:id">224</property>
  <property name="kdenlive:file_size">8834</property>
  <property name="kdenlive:file_hash">4a2d2fbcc1242e0af124c686139d24c3</property>
 </producer>
 <producer id="producer221" in="00:00:00.000" out="00:00:04.960">
  <property name="length">00:00:05.000</property>
  <property name="eof">pause</property>
  <property name="resource">/home/liquidzulu/Documents/youtube-scripts/courses/libertarian-ethics/capsaicin/pseudo/homesteading-and-property-rights.pseudo.srt-images/296.png</property>
  <property name="ttl">25</property>
  <property name="aspect_ratio">1</property>
  <property name="progressive">1</property>
  <property name="seekable">1</property>
  <property name="meta.media.width">1920</property>
  <property name="meta.media.height">1080</property>
  <property name="mlt_service">qimage</property>
  <property name="kdenlive:clipname"/>
  <property name="kdenlive:duration">00:00:05.000</property>
  <property name="kdenlive:folderid">95</property>
  <property name="kdenlive:clip_type">2</property>
  <property name="kdenlive:id">225</property>
  <property name="kdenlive:file_size">9258</property>
  <property name="kdenlive:file_hash">27d78187a75247477fe72c7aa168e28d</property>
 </producer>
 <producer id="producer223" in="00:00:00.000" out="00:00:04.960">
  <property name="length">00:00:05.000</property>
  <property name="eof">pause</property>
  <property name="resource">/home/liquidzulu/Documents/youtube-scripts/courses/libertarian-ethics/capsaicin/pseudo/homesteading-and-property-rights.pseudo.srt-images/297.png</property>
  <property name="ttl">25</property>
  <property name="aspect_ratio">1</property>
  <property name="progressive">1</property>
  <property name="seekable">1</property>
  <property name="meta.media.width">1920</property>
  <property name="meta.media.height">1080</property>
  <property name="mlt_service">qimage</property>
  <property name="kdenlive:clipname"/>
  <property name="kdenlive:duration">00:00:05.000</property>
  <property name="kdenlive:folderid">95</property>
  <property name="kdenlive:clip_type">2</property>
  <property name="kdenlive:id">226</property>
  <property name="kdenlive:file_size">8955</property>
  <property name="kdenlive:file_hash">a2f90c01896715c6b85c58257f98d175</property>
 </producer>
 <producer id="producer222" in="00:00:00.000" out="00:00:04.960">
  <property name="length">00:00:05.000</property>
  <property name="eof">pause</property>
  <property name="resource">/home/liquidzulu/Documents/youtube-scripts/courses/libertarian-ethics/capsaicin/pseudo/homesteading-and-property-rights.pseudo.srt-images/298.png</property>
  <property name="ttl">25</property>
  <property name="aspect_ratio">1</property>
  <property name="progressive">1</property>
  <property name="seekable">1</property>
  <property name="meta.media.width">1920</property>
  <property name="meta.media.height">1080</property>
  <property name="mlt_service">qimage</property>
  <property name="kdenlive:clipname"/>
  <property name="kdenlive:duration">00:00:05.000</property>
  <property name="kdenlive:folderid">95</property>
  <property name="kdenlive:clip_type">2</property>
  <property name="kdenlive:id">227</property>
  <property name="kdenlive:file_size">8945</property>
  <property name="kdenlive:file_hash">52d5988153e06ffc59eff6923273b17e</property>
 </producer>
 <producer id="producer224" in="00:00:00.000" out="00:00:04.960">
  <property name="length">00:00:05.000</property>
  <property name="eof">pause</property>
  <property name="resource">/home/liquidzulu/Documents/youtube-scripts/courses/libertarian-ethics/capsaicin/pseudo/homesteading-and-property-rights.pseudo.srt-images/299.png</property>
  <property name="ttl">25</property>
  <property name="aspect_ratio">1</property>
  <property name="progressive">1</property>
  <property name="seekable">1</property>
  <property name="meta.media.width">1920</property>
  <property name="meta.media.height">1080</property>
  <property name="mlt_service">qimage</property>
  <property name="kdenlive:clipname"/>
  <property name="kdenlive:duration">00:00:05.000</property>
  <property name="kdenlive:folderid">95</property>
  <property name="kdenlive:clip_type">2</property>
  <property name="kdenlive:id">228</property>
  <property name="kdenlive:file_size">9575</property>
  <property name="kdenlive:file_hash">980e082b062d0741c25c181b7b39440b</property>
 </producer>
 <producer id="producer225" in="00:00:00.000" out="00:00:04.960">
  <property name="length">00:00:05.000</property>
  <property name="eof">pause</property>
  <property name="resource">/home/liquidzulu/Documents/youtube-scripts/courses/libertarian-ethics/capsaicin/pseudo/homesteading-and-property-rights.pseudo.srt-images/30.png</property>
  <property name="ttl">25</property>
  <property name="aspect_ratio">1</property>
  <property name="progressive">1</property>
  <property name="seekable">1</property>
  <property name="meta.media.width">1920</property>
  <property name="meta.media.height">1080</property>
  <property name="mlt_service">qimage</property>
  <property name="kdenlive:clipname"/>
  <property name="kdenlive:duration">00:00:05.000</property>
  <property name="kdenlive:folderid">95</property>
  <property name="kdenlive:clip_type">2</property>
  <property name="kdenlive:id">229</property>
  <property name="kdenlive:file_size">8443</property>
  <property name="kdenlive:file_hash">4732238ea47de32abc2135ab1a10133b</property>
 </producer>
 <producer id="producer226" in="00:00:00.000" out="00:00:04.960">
  <property name="length">00:00:05.000</property>
  <property name="eof">pause</property>
  <property name="resource">/home/liquidzulu/Documents/youtube-scripts/courses/libertarian-ethics/capsaicin/pseudo/homesteading-and-property-rights.pseudo.srt-images/300.png</property>
  <property name="ttl">25</property>
  <property name="aspect_ratio">1</property>
  <property name="progressive">1</property>
  <property name="seekable">1</property>
  <property name="meta.media.width">1920</property>
  <property name="meta.media.height">1080</property>
  <property name="mlt_service">qimage</property>
  <property name="kdenlive:clipname"/>
  <property name="kdenlive:duration">00:00:05.000</property>
  <property name="kdenlive:folderid">95</property>
  <property name="kdenlive:clip_type">2</property>
  <property name="kdenlive:id">230</property>
  <property name="kdenlive:file_size">9036</property>
  <property name="kdenlive:file_hash">6402122cb84caba43ad322596fcccd1d</property>
 </producer>
 <producer id="producer227" in="00:00:00.000" out="00:00:04.960">
  <property name="length">00:00:05.000</property>
  <property name="eof">pause</property>
  <property name="resource">/home/liquidzulu/Documents/youtube-scripts/courses/libertarian-ethics/capsaicin/pseudo/homesteading-and-property-rights.pseudo.srt-images/301.png</property>
  <property name="ttl">25</property>
  <property name="aspect_ratio">1</property>
  <property name="progressive">1</property>
  <property name="seekable">1</property>
  <property name="meta.media.width">1920</property>
  <property name="meta.media.height">1080</property>
  <property name="mlt_service">qimage</property>
  <property name="kdenlive:clipname"/>
  <property name="kdenlive:duration">00:00:05.000</property>
  <property name="kdenlive:folderid">95</property>
  <property name="kdenlive:clip_type">2</property>
  <property name="kdenlive:id">231</property>
  <property name="kdenlive:file_size">9499</property>
  <property name="kdenlive:file_hash">69bd3ae236d580d29f21a6933911fc05</property>
 </producer>
 <producer id="producer228" in="00:00:00.000" out="00:00:04.960">
  <property name="length">00:00:05.000</property>
  <property name="eof">pause</property>
  <property name="resource">/home/liquidzulu/Documents/youtube-scripts/courses/libertarian-ethics/capsaicin/pseudo/homesteading-and-property-rights.pseudo.srt-images/302.png</property>
  <property name="ttl">25</property>
  <property name="aspect_ratio">1</property>
  <property name="progressive">1</property>
  <property name="seekable">1</property>
  <property name="meta.media.width">1920</property>
  <property name="meta.media.height">1080</property>
  <property name="mlt_service">qimage</property>
  <property name="kdenlive:clipname"/>
  <property name="kdenlive:duration">00:00:05.000</property>
  <property name="kdenlive:folderid">95</property>
  <property name="kdenlive:clip_type">2</property>
  <property name="kdenlive:id">232</property>
  <property name="kdenlive:file_size">8815</property>
  <property name="kdenlive:file_hash">4755f99d9e00f1c22e363f18510612c6</property>
 </producer>
 <producer id="producer229" in="00:00:00.000" out="00:00:04.960">
  <property name="length">00:00:05.000</property>
  <property name="eof">pause</property>
  <property name="resource">/home/liquidzulu/Documents/youtube-scripts/courses/libertarian-ethics/capsaicin/pseudo/homesteading-and-property-rights.pseudo.srt-images/303.png</property>
  <property name="ttl">25</property>
  <property name="aspect_ratio">1</property>
  <property name="progressive">1</property>
  <property name="seekable">1</property>
  <property name="meta.media.width">1920</property>
  <property name="meta.media.height">1080</property>
  <property name="mlt_service">qimage</property>
  <property name="kdenlive:clipname"/>
  <property name="kdenlive:duration">00:00:05.000</property>
  <property name="kdenlive:folderid">95</property>
  <property name="kdenlive:clip_type">2</property>
  <property name="kdenlive:id">233</property>
  <property name="kdenlive:file_size">8192</property>
  <property name="kdenlive:file_hash">cd79f38448bf4faa283069edfc26659e</property>
 </producer>
 <producer id="producer230" in="00:00:00.000" out="00:00:04.960">
  <property name="length">00:00:05.000</property>
  <property name="eof">pause</property>
  <property name="resource">/home/liquidzulu/Documents/youtube-scripts/courses/libertarian-ethics/capsaicin/pseudo/homesteading-and-property-rights.pseudo.srt-images/304.png</property>
  <property name="ttl">25</property>
  <property name="aspect_ratio">1</property>
  <property name="progressive">1</property>
  <property name="seekable">1</property>
  <property name="meta.media.width">1920</property>
  <property name="meta.media.height">1080</property>
  <property name="mlt_service">qimage</property>
  <property name="kdenlive:clipname"/>
  <property name="kdenlive:duration">00:00:05.000</property>
  <property name="kdenlive:folderid">95</property>
  <property name="kdenlive:clip_type">2</property>
  <property name="kdenlive:id">234</property>
  <property name="kdenlive:file_size">8912</property>
  <property name="kdenlive:file_hash">09a317e91f0d77917f80c628492c0c77</property>
 </producer>
 <producer id="producer231" in="00:00:00.000" out="00:00:04.960">
  <property name="length">00:00:05.000</property>
  <property name="eof">pause</property>
  <property name="resource">/home/liquidzulu/Documents/youtube-scripts/courses/libertarian-ethics/capsaicin/pseudo/homesteading-and-property-rights.pseudo.srt-images/305.png</property>
  <property name="ttl">25</property>
  <property name="aspect_ratio">1</property>
  <property name="progressive">1</property>
  <property name="seekable">1</property>
  <property name="meta.media.width">1920</property>
  <property name="meta.media.height">1080</property>
  <property name="mlt_service">qimage</property>
  <property name="kdenlive:clipname"/>
  <property name="kdenlive:duration">00:00:05.000</property>
  <property name="kdenlive:folderid">95</property>
  <property name="kdenlive:clip_type">2</property>
  <property name="kdenlive:id">235</property>
  <property name="kdenlive:file_size">9028</property>
  <property name="kdenlive:file_hash">612bc73b609f55d358eab914bbfd74b9</property>
 </producer>
 <producer id="producer233" in="00:00:00.000" out="00:00:04.960">
  <property name="length">00:00:05.000</property>
  <property name="eof">pause</property>
  <property name="resource">/home/liquidzulu/Documents/youtube-scripts/courses/libertarian-ethics/capsaicin/pseudo/homesteading-and-property-rights.pseudo.srt-images/306.png</property>
  <property name="ttl">25</property>
  <property name="aspect_ratio">1</property>
  <property name="progressive">1</property>
  <property name="seekable">1</property>
  <property name="meta.media.width">1920</property>
  <property name="meta.media.height">1080</property>
  <property name="mlt_service">qimage</property>
  <property name="kdenlive:clipname"/>
  <property name="kdenlive:duration">00:00:05.000</property>
  <property name="kdenlive:folderid">95</property>
  <property name="kdenlive:clip_type">2</property>
  <property name="kdenlive:id">236</property>
  <property name="kdenlive:file_size">9360</property>
  <property name="kdenlive:file_hash">51ea831648b0cba07fe1d862d40c6a02</property>
 </producer>
 <producer id="producer232" in="00:00:00.000" out="00:00:04.960">
  <property name="length">00:00:05.000</property>
  <property name="eof">pause</property>
  <property name="resource">/home/liquidzulu/Documents/youtube-scripts/courses/libertarian-ethics/capsaicin/pseudo/homesteading-and-property-rights.pseudo.srt-images/307.png</property>
  <property name="ttl">25</property>
  <property name="aspect_ratio">1</property>
  <property name="progressive">1</property>
  <property name="seekable">1</property>
  <property name="meta.media.width">1920</property>
  <property name="meta.media.height">1080</property>
  <property name="mlt_service">qimage</property>
  <property name="kdenlive:clipname"/>
  <property name="kdenlive:duration">00:00:05.000</property>
  <property name="kdenlive:folderid">95</property>
  <property name="kdenlive:clip_type">2</property>
  <property name="kdenlive:id">237</property>
  <property name="kdenlive:file_size">8991</property>
  <property name="kdenlive:file_hash">a21c17ed5dc3e556309ff29f36df1b59</property>
 </producer>
 <producer id="producer234" in="00:00:00.000" out="00:00:04.960">
  <property name="length">00:00:05.000</property>
  <property name="eof">pause</property>
  <property name="resource">/home/liquidzulu/Documents/youtube-scripts/courses/libertarian-ethics/capsaicin/pseudo/homesteading-and-property-rights.pseudo.srt-images/308.png</property>
  <property name="ttl">25</property>
  <property name="aspect_ratio">1</property>
  <property name="progressive">1</property>
  <property name="seekable">1</property>
  <property name="meta.media.width">1920</property>
  <property name="meta.media.height">1080</property>
  <property name="mlt_service">qimage</property>
  <property name="kdenlive:clipname"/>
  <property name="kdenlive:duration">00:00:05.000</property>
  <property name="kdenlive:folderid">95</property>
  <property name="kdenlive:clip_type">2</property>
  <property name="kdenlive:id">238</property>
  <property name="kdenlive:file_size">9109</property>
  <property name="kdenlive:file_hash">edc79fa9db1a5648ddcaee5cfadf9e62</property>
 </producer>
 <producer id="producer235" in="00:00:00.000" out="00:00:04.960">
  <property name="length">00:00:05.000</property>
  <property name="eof">pause</property>
  <property name="resource">/home/liquidzulu/Documents/youtube-scripts/courses/libertarian-ethics/capsaicin/pseudo/homesteading-and-property-rights.pseudo.srt-images/309.png</property>
  <property name="ttl">25</property>
  <property name="aspect_ratio">1</property>
  <property name="progressive">1</property>
  <property name="seekable">1</property>
  <property name="meta.media.width">1920</property>
  <property name="meta.media.height">1080</property>
  <property name="mlt_service">qimage</property>
  <property name="kdenlive:clipname"/>
  <property name="kdenlive:duration">00:00:05.000</property>
  <property name="kdenlive:folderid">95</property>
  <property name="kdenlive:clip_type">2</property>
  <property name="kdenlive:id">239</property>
  <property name="kdenlive:file_size">8813</property>
  <property name="kdenlive:file_hash">e0fa4a513e2c399c8d08f409984f2b86</property>
 </producer>
 <producer id="producer236" in="00:00:00.000" out="00:00:04.960">
  <property name="length">00:00:05.000</property>
  <property name="eof">pause</property>
  <property name="resource">/home/liquidzulu/Documents/youtube-scripts/courses/libertarian-ethics/capsaicin/pseudo/homesteading-and-property-rights.pseudo.srt-images/31.png</property>
  <property name="ttl">25</property>
  <property name="aspect_ratio">1</property>
  <property name="progressive">1</property>
  <property name="seekable">1</property>
  <property name="meta.media.width">1920</property>
  <property name="meta.media.height">1080</property>
  <property name="mlt_service">qimage</property>
  <property name="kdenlive:clipname"/>
  <property name="kdenlive:duration">00:00:05.000</property>
  <property name="kdenlive:folderid">95</property>
  <property name="kdenlive:clip_type">2</property>
  <property name="kdenlive:id">240</property>
  <property name="kdenlive:file_size">9008</property>
  <property name="kdenlive:file_hash">1337baf8873968116432d31bcb5c3994</property>
 </producer>
 <producer id="producer237" in="00:00:00.000" out="00:00:04.960">
  <property name="length">00:00:05.000</property>
  <property name="eof">pause</property>
  <property name="resource">/home/liquidzulu/Documents/youtube-scripts/courses/libertarian-ethics/capsaicin/pseudo/homesteading-and-property-rights.pseudo.srt-images/310.png</property>
  <property name="ttl">25</property>
  <property name="aspect_ratio">1</property>
  <property name="progressive">1</property>
  <property name="seekable">1</property>
  <property name="meta.media.width">1920</property>
  <property name="meta.media.height">1080</property>
  <property name="mlt_service">qimage</property>
  <property name="kdenlive:clipname"/>
  <property name="kdenlive:duration">00:00:05.000</property>
  <property name="kdenlive:folderid">95</property>
  <property name="kdenlive:clip_type">2</property>
  <property name="kdenlive:id">241</property>
  <property name="kdenlive:file_size">8650</property>
  <property name="kdenlive:file_hash">ac1d61533095d25cd413f5e26a500ef7</property>
 </producer>
 <producer id="producer238" in="00:00:00.000" out="00:00:04.960">
  <property name="length">00:00:05.000</property>
  <property name="eof">pause</property>
  <property name="resource">/home/liquidzulu/Documents/youtube-scripts/courses/libertarian-ethics/capsaicin/pseudo/homesteading-and-property-rights.pseudo.srt-images/311.png</property>
  <property name="ttl">25</property>
  <property name="aspect_ratio">1</property>
  <property name="progressive">1</property>
  <property name="seekable">1</property>
  <property name="meta.media.width">1920</property>
  <property name="meta.media.height">1080</property>
  <property name="mlt_service">qimage</property>
  <property name="kdenlive:clipname"/>
  <property name="kdenlive:duration">00:00:05.000</property>
  <property name="kdenlive:folderid">95</property>
  <property name="kdenlive:clip_type">2</property>
  <property name="kdenlive:id">242</property>
  <property name="kdenlive:file_size">9072</property>
  <property name="kdenlive:file_hash">84c6dac952a21412fb35c71542dee97d</property>
 </producer>
 <producer id="producer240" in="00:00:00.000" out="00:00:04.960">
  <property name="length">00:00:05.000</property>
  <property name="eof">pause</property>
  <property name="resource">/home/liquidzulu/Documents/youtube-scripts/courses/libertarian-ethics/capsaicin/pseudo/homesteading-and-property-rights.pseudo.srt-images/312.png</property>
  <property name="ttl">25</property>
  <property name="aspect_ratio">1</property>
  <property name="progressive">1</property>
  <property name="seekable">1</property>
  <property name="meta.media.width">1920</property>
  <property name="meta.media.height">1080</property>
  <property name="mlt_service">qimage</property>
  <property name="kdenlive:clipname"/>
  <property name="kdenlive:duration">00:00:05.000</property>
  <property name="kdenlive:folderid">95</property>
  <property name="kdenlive:clip_type">2</property>
  <property name="kdenlive:id">243</property>
  <property name="kdenlive:file_size">8482</property>
  <property name="kdenlive:file_hash">a71dc8e566886b0a68677000f66ac6c7</property>
 </producer>
 <producer id="producer239" in="00:00:00.000" out="00:00:04.960">
  <property name="length">00:00:05.000</property>
  <property name="eof">pause</property>
  <property name="resource">/home/liquidzulu/Documents/youtube-scripts/courses/libertarian-ethics/capsaicin/pseudo/homesteading-and-property-rights.pseudo.srt-images/313.png</property>
  <property name="ttl">25</property>
  <property name="aspect_ratio">1</property>
  <property name="progressive">1</property>
  <property name="seekable">1</property>
  <property name="meta.media.width">1920</property>
  <property name="meta.media.height">1080</property>
  <property name="mlt_service">qimage</property>
  <property name="kdenlive:clipname"/>
  <property name="kdenlive:duration">00:00:05.000</property>
  <property name="kdenlive:folderid">95</property>
  <property name="kdenlive:clip_type">2</property>
  <property name="kdenlive:id">244</property>
  <property name="kdenlive:file_size">8990</property>
  <property name="kdenlive:file_hash">5b58846b36fcb7a0cda83ad6bc11416f</property>
 </producer>
 <producer id="producer241" in="00:00:00.000" out="00:00:04.960">
  <property name="length">00:00:05.000</property>
  <property name="eof">pause</property>
  <property name="resource">/home/liquidzulu/Documents/youtube-scripts/courses/libertarian-ethics/capsaicin/pseudo/homesteading-and-property-rights.pseudo.srt-images/314.png</property>
  <property name="ttl">25</property>
  <property name="aspect_ratio">1</property>
  <property name="progressive">1</property>
  <property name="seekable">1</property>
  <property name="meta.media.width">1920</property>
  <property name="meta.media.height">1080</property>
  <property name="mlt_service">qimage</property>
  <property name="kdenlive:clipname"/>
  <property name="kdenlive:duration">00:00:05.000</property>
  <property name="kdenlive:folderid">95</property>
  <property name="kdenlive:clip_type">2</property>
  <property name="kdenlive:id">245</property>
  <property name="kdenlive:file_size">8442</property>
  <property name="kdenlive:file_hash">aef6f9536261a273c2d6ff9d9be27d32</property>
 </producer>
 <producer id="producer242" in="00:00:00.000" out="00:00:04.960">
  <property name="length">00:00:05.000</property>
  <property name="eof">pause</property>
  <property name="resource">/home/liquidzulu/Documents/youtube-scripts/courses/libertarian-ethics/capsaicin/pseudo/homesteading-and-property-rights.pseudo.srt-images/315.png</property>
  <property name="ttl">25</property>
  <property name="aspect_ratio">1</property>
  <property name="progressive">1</property>
  <property name="seekable">1</property>
  <property name="meta.media.width">1920</property>
  <property name="meta.media.height">1080</property>
  <property name="mlt_service">qimage</property>
  <property name="kdenlive:clipname"/>
  <property name="kdenlive:duration">00:00:05.000</property>
  <property name="kdenlive:folderid">95</property>
  <property name="kdenlive:clip_type">2</property>
  <property name="kdenlive:id">246</property>
  <property name="kdenlive:file_size">9657</property>
  <property name="kdenlive:file_hash">ad3fc8b186ba9a811d5ee78e32c42e33</property>
 </producer>
 <producer id="producer243" in="00:00:00.000" out="00:00:04.960">
  <property name="length">00:00:05.000</property>
  <property name="eof">pause</property>
  <property name="resource">/home/liquidzulu/Documents/youtube-scripts/courses/libertarian-ethics/capsaicin/pseudo/homesteading-and-property-rights.pseudo.srt-images/316.png</property>
  <property name="ttl">25</property>
  <property name="aspect_ratio">1</property>
  <property name="progressive">1</property>
  <property name="seekable">1</property>
  <property name="meta.media.width">1920</property>
  <property name="meta.media.height">1080</property>
  <property name="mlt_service">qimage</property>
  <property name="kdenlive:clipname"/>
  <property name="kdenlive:duration">00:00:05.000</property>
  <property name="kdenlive:folderid">95</property>
  <property name="kdenlive:clip_type">2</property>
  <property name="kdenlive:id">247</property>
  <property name="kdenlive:file_size">8791</property>
  <property name="kdenlive:file_hash">ac34a818d3baddde4e30e96e08817b9e</property>
 </producer>
 <producer id="producer244" in="00:00:00.000" out="00:00:04.960">
  <property name="length">00:00:05.000</property>
  <property name="eof">pause</property>
  <property name="resource">/home/liquidzulu/Documents/youtube-scripts/courses/libertarian-ethics/capsaicin/pseudo/homesteading-and-property-rights.pseudo.srt-images/317.png</property>
  <property name="ttl">25</property>
  <property name="aspect_ratio">1</property>
  <property name="progressive">1</property>
  <property name="seekable">1</property>
  <property name="meta.media.width">1920</property>
  <property name="meta.media.height">1080</property>
  <property name="mlt_service">qimage</property>
  <property name="kdenlive:clipname"/>
  <property name="kdenlive:duration">00:00:05.000</property>
  <property name="kdenlive:folderid">95</property>
  <property name="kdenlive:clip_type">2</property>
  <property name="kdenlive:id">248</property>
  <property name="kdenlive:file_size">9238</property>
  <property name="kdenlive:file_hash">584da82b5ea3ebe35d3fd06da53f9a14</property>
 </producer>
 <producer id="producer246" in="00:00:00.000" out="00:00:04.960">
  <property name="length">00:00:05.000</property>
  <property name="eof">pause</property>
  <property name="resource">/home/liquidzulu/Documents/youtube-scripts/courses/libertarian-ethics/capsaicin/pseudo/homesteading-and-property-rights.pseudo.srt-images/318.png</property>
  <property name="ttl">25</property>
  <property name="aspect_ratio">1</property>
  <property name="progressive">1</property>
  <property name="seekable">1</property>
  <property name="meta.media.width">1920</property>
  <property name="meta.media.height">1080</property>
  <property name="mlt_service">qimage</property>
  <property name="kdenlive:clipname"/>
  <property name="kdenlive:duration">00:00:05.000</property>
  <property name="kdenlive:folderid">95</property>
  <property name="kdenlive:clip_type">2</property>
  <property name="kdenlive:id">249</property>
  <property name="kdenlive:file_size">9715</property>
  <property name="kdenlive:file_hash">c15a8a1db076dd3b5cb4ae042ec3f015</property>
 </producer>
 <producer id="producer245" in="00:00:00.000" out="00:00:04.960">
  <property name="length">00:00:05.000</property>
  <property name="eof">pause</property>
  <property name="resource">/home/liquidzulu/Documents/youtube-scripts/courses/libertarian-ethics/capsaicin/pseudo/homesteading-and-property-rights.pseudo.srt-images/319.png</property>
  <property name="ttl">25</property>
  <property name="aspect_ratio">1</property>
  <property name="progressive">1</property>
  <property name="seekable">1</property>
  <property name="meta.media.width">1920</property>
  <property name="meta.media.height">1080</property>
  <property name="mlt_service">qimage</property>
  <property name="kdenlive:clipname"/>
  <property name="kdenlive:duration">00:00:05.000</property>
  <property name="kdenlive:folderid">95</property>
  <property name="kdenlive:clip_type">2</property>
  <property name="kdenlive:id">250</property>
  <property name="kdenlive:file_size">9111</property>
  <property name="kdenlive:file_hash">71e7bf1257f7ec5e662e3b81be5a08fd</property>
 </producer>
 <producer id="producer247" in="00:00:00.000" out="00:00:04.960">
  <property name="length">00:00:05.000</property>
  <property name="eof">pause</property>
  <property name="resource">/home/liquidzulu/Documents/youtube-scripts/courses/libertarian-ethics/capsaicin/pseudo/homesteading-and-property-rights.pseudo.srt-images/32.png</property>
  <property name="ttl">25</property>
  <property name="aspect_ratio">1</property>
  <property name="progressive">1</property>
  <property name="seekable">1</property>
  <property name="meta.media.width">1920</property>
  <property name="meta.media.height">1080</property>
  <property name="mlt_service">qimage</property>
  <property name="kdenlive:clipname"/>
  <property name="kdenlive:duration">00:00:05.000</property>
  <property name="kdenlive:folderid">95</property>
  <property name="kdenlive:clip_type">2</property>
  <property name="kdenlive:id">251</property>
  <property name="kdenlive:file_size">8907</property>
  <property name="kdenlive:file_hash">4b399c2bcab913e43ea84c2d6297adec</property>
 </producer>
 <producer id="producer248" in="00:00:00.000" out="00:00:04.960">
  <property name="length">00:00:05.000</property>
  <property name="eof">pause</property>
  <property name="resource">/home/liquidzulu/Documents/youtube-scripts/courses/libertarian-ethics/capsaicin/pseudo/homesteading-and-property-rights.pseudo.srt-images/320.png</property>
  <property name="ttl">25</property>
  <property name="aspect_ratio">1</property>
  <property name="progressive">1</property>
  <property name="seekable">1</property>
  <property name="meta.media.width">1920</property>
  <property name="meta.media.height">1080</property>
  <property name="mlt_service">qimage</property>
  <property name="kdenlive:clipname"/>
  <property name="kdenlive:duration">00:00:05.000</property>
  <property name="kdenlive:folderid">95</property>
  <property name="kdenlive:clip_type">2</property>
  <property name="kdenlive:id">252</property>
  <property name="kdenlive:file_size">9470</property>
  <property name="kdenlive:file_hash">c83fe991475ec2bbf193276d5d2c9fcf</property>
 </producer>
 <producer id="producer250" in="00:00:00.000" out="00:00:04.960">
  <property name="length">00:00:05.000</property>
  <property name="eof">pause</property>
  <property name="resource">/home/liquidzulu/Documents/youtube-scripts/courses/libertarian-ethics/capsaicin/pseudo/homesteading-and-property-rights.pseudo.srt-images/321.png</property>
  <property name="ttl">25</property>
  <property name="aspect_ratio">1</property>
  <property name="progressive">1</property>
  <property name="seekable">1</property>
  <property name="meta.media.width">1920</property>
  <property name="meta.media.height">1080</property>
  <property name="mlt_service">qimage</property>
  <property name="kdenlive:clipname"/>
  <property name="kdenlive:duration">00:00:05.000</property>
  <property name="kdenlive:folderid">95</property>
  <property name="kdenlive:clip_type">2</property>
  <property name="kdenlive:id">253</property>
  <property name="kdenlive:file_size">9336</property>
  <property name="kdenlive:file_hash">c1ad5e1e309d2588642657e3f58b0ce9</property>
 </producer>
 <producer id="producer251" in="00:00:00.000" out="00:00:04.960">
  <property name="length">00:00:05.000</property>
  <property name="eof">pause</property>
  <property name="resource">/home/liquidzulu/Documents/youtube-scripts/courses/libertarian-ethics/capsaicin/pseudo/homesteading-and-property-rights.pseudo.srt-images/322.png</property>
  <property name="ttl">25</property>
  <property name="aspect_ratio">1</property>
  <property name="progressive">1</property>
  <property name="seekable">1</property>
  <property name="meta.media.width">1920</property>
  <property name="meta.media.height">1080</property>
  <property name="mlt_service">qimage</property>
  <property name="kdenlive:clipname"/>
  <property name="kdenlive:duration">00:00:05.000</property>
  <property name="kdenlive:folderid">95</property>
  <property name="kdenlive:clip_type">2</property>
  <property name="kdenlive:id">254</property>
  <property name="kdenlive:file_size">8974</property>
  <property name="kdenlive:file_hash">11eadebe5b33247163b3e49cb1694fd1</property>
 </producer>
 <producer id="producer249" in="00:00:00.000" out="00:00:04.960">
  <property name="length">00:00:05.000</property>
  <property name="eof">pause</property>
  <property name="resource">/home/liquidzulu/Documents/youtube-scripts/courses/libertarian-ethics/capsaicin/pseudo/homesteading-and-property-rights.pseudo.srt-images/323.png</property>
  <property name="ttl">25</property>
  <property name="aspect_ratio">1</property>
  <property name="progressive">1</property>
  <property name="seekable">1</property>
  <property name="meta.media.width">1920</property>
  <property name="meta.media.height">1080</property>
  <property name="mlt_service">qimage</property>
  <property name="kdenlive:clipname"/>
  <property name="kdenlive:duration">00:00:05.000</property>
  <property name="kdenlive:folderid">95</property>
  <property name="kdenlive:clip_type">2</property>
  <property name="kdenlive:id">255</property>
  <property name="kdenlive:file_size">9009</property>
  <property name="kdenlive:file_hash">a57d3a7d8bc421de3d39ec488a90edfd</property>
 </producer>
 <producer id="producer252" in="00:00:00.000" out="00:00:04.960">
  <property name="length">00:00:05.000</property>
  <property name="eof">pause</property>
  <property name="resource">/home/liquidzulu/Documents/youtube-scripts/courses/libertarian-ethics/capsaicin/pseudo/homesteading-and-property-rights.pseudo.srt-images/324.png</property>
  <property name="ttl">25</property>
  <property name="aspect_ratio">1</property>
  <property name="progressive">1</property>
  <property name="seekable">1</property>
  <property name="meta.media.width">1920</property>
  <property name="meta.media.height">1080</property>
  <property name="mlt_service">qimage</property>
  <property name="kdenlive:clipname"/>
  <property name="kdenlive:duration">00:00:05.000</property>
  <property name="kdenlive:folderid">95</property>
  <property name="kdenlive:clip_type">2</property>
  <property name="kdenlive:id">256</property>
  <property name="kdenlive:file_size">8749</property>
  <property name="kdenlive:file_hash">1462b41a16f953608b717c94c8faaa3c</property>
 </producer>
 <producer id="producer253" in="00:00:00.000" out="00:00:04.960">
  <property name="length">00:00:05.000</property>
  <property name="eof">pause</property>
  <property name="resource">/home/liquidzulu/Documents/youtube-scripts/courses/libertarian-ethics/capsaicin/pseudo/homesteading-and-property-rights.pseudo.srt-images/325.png</property>
  <property name="ttl">25</property>
  <property name="aspect_ratio">1</property>
  <property name="progressive">1</property>
  <property name="seekable">1</property>
  <property name="meta.media.width">1920</property>
  <property name="meta.media.height">1080</property>
  <property name="mlt_service">qimage</property>
  <property name="kdenlive:clipname"/>
  <property name="kdenlive:duration">00:00:05.000</property>
  <property name="kdenlive:folderid">95</property>
  <property name="kdenlive:clip_type">2</property>
  <property name="kdenlive:id">257</property>
  <property name="kdenlive:file_size">9529</property>
  <property name="kdenlive:file_hash">33fc20cde4f8ea47e9149be064f5f688</property>
 </producer>
 <producer id="producer254" in="00:00:00.000" out="00:00:04.960">
  <property name="length">00:00:05.000</property>
  <property name="eof">pause</property>
  <property name="resource">/home/liquidzulu/Documents/youtube-scripts/courses/libertarian-ethics/capsaicin/pseudo/homesteading-and-property-rights.pseudo.srt-images/326.png</property>
  <property name="ttl">25</property>
  <property name="aspect_ratio">1</property>
  <property name="progressive">1</property>
  <property name="seekable">1</property>
  <property name="meta.media.width">1920</property>
  <property name="meta.media.height">1080</property>
  <property name="mlt_service">qimage</property>
  <property name="kdenlive:clipname"/>
  <property name="kdenlive:duration">00:00:05.000</property>
  <property name="kdenlive:folderid">95</property>
  <property name="kdenlive:clip_type">2</property>
  <property name="kdenlive:id">258</property>
  <property name="kdenlive:file_size">7569</property>
  <property name="kdenlive:file_hash">e9e8e9409ee00eda01f04fb0303ce333</property>
 </producer>
 <producer id="producer255" in="00:00:00.000" out="00:00:04.960">
  <property name="length">00:00:05.000</property>
  <property name="eof">pause</property>
  <property name="resource">/home/liquidzulu/Documents/youtube-scripts/courses/libertarian-ethics/capsaicin/pseudo/homesteading-and-property-rights.pseudo.srt-images/33.png</property>
  <property name="ttl">25</property>
  <property name="aspect_ratio">1</property>
  <property name="progressive">1</property>
  <property name="seekable">1</property>
  <property name="meta.media.width">1920</property>
  <property name="meta.media.height">1080</property>
  <property name="mlt_service">qimage</property>
  <property name="kdenlive:clipname"/>
  <property name="kdenlive:duration">00:00:05.000</property>
  <property name="kdenlive:folderid">95</property>
  <property name="kdenlive:clip_type">2</property>
  <property name="kdenlive:id">259</property>
  <property name="kdenlive:file_size">8811</property>
  <property name="kdenlive:file_hash">8bbf1f8d1f300958f6acad75ec5a8bd4</property>
 </producer>
 <producer id="producer256" in="00:00:00.000" out="00:00:04.960">
  <property name="length">00:00:05.000</property>
  <property name="eof">pause</property>
  <property name="resource">/home/liquidzulu/Documents/youtube-scripts/courses/libertarian-ethics/capsaicin/pseudo/homesteading-and-property-rights.pseudo.srt-images/333.png</property>
  <property name="ttl">25</property>
  <property name="aspect_ratio">1</property>
  <property name="progressive">1</property>
  <property name="seekable">1</property>
  <property name="meta.media.width">1920</property>
  <property name="meta.media.height">1080</property>
  <property name="mlt_service">qimage</property>
  <property name="kdenlive:clipname"/>
  <property name="kdenlive:duration">00:00:05.000</property>
  <property name="kdenlive:folderid">95</property>
  <property name="kdenlive:clip_type">2</property>
  <property name="kdenlive:id">260</property>
  <property name="kdenlive:file_size">8428</property>
  <property name="kdenlive:file_hash">32d6787bf8b4f3443f9d64b492d0c78c</property>
 </producer>
 <producer id="producer257" in="00:00:00.000" out="00:00:05.120">
  <property name="length">129</property>
  <property name="eof">pause</property>
  <property name="resource">/home/liquidzulu/Documents/youtube-scripts/courses/libertarian-ethics/capsaicin/pseudo/homesteading-and-property-rights.pseudo.srt-images/334.png</property>
  <property name="ttl">25</property>
  <property name="aspect_ratio">1</property>
  <property name="progressive">1</property>
  <property name="seekable">1</property>
  <property name="meta.media.width">1920</property>
  <property name="meta.media.height">1080</property>
  <property name="mlt_service">qimage</property>
  <property name="kdenlive:clipname"/>
  <property name="kdenlive:duration">00:00:05.000</property>
  <property name="kdenlive:folderid">95</property>
  <property name="kdenlive:clip_type">2</property>
  <property name="kdenlive:id">261</property>
  <property name="kdenlive:file_size">9553</property>
  <property name="kdenlive:file_hash">ca24c5eef943e94102e44fc8c79dd8c8</property>
 </producer>
 <producer id="producer258" in="00:00:00.000" out="00:00:05.200">
  <property name="length">131</property>
  <property name="eof">pause</property>
  <property name="resource">/home/liquidzulu/Documents/youtube-scripts/courses/libertarian-ethics/capsaicin/pseudo/homesteading-and-property-rights.pseudo.srt-images/335.png</property>
  <property name="ttl">25</property>
  <property name="aspect_ratio">1</property>
  <property name="progressive">1</property>
  <property name="seekable">1</property>
  <property name="meta.media.width">1920</property>
  <property name="meta.media.height">1080</property>
  <property name="mlt_service">qimage</property>
  <property name="kdenlive:clipname"/>
  <property name="kdenlive:duration">00:00:05.000</property>
  <property name="kdenlive:folderid">95</property>
  <property name="kdenlive:clip_type">2</property>
  <property name="kdenlive:id">262</property>
  <property name="kdenlive:file_size">9177</property>
  <property name="kdenlive:file_hash">ab7b7cd6c0258b0942348e1e29a9f026</property>
 </producer>
 <producer id="producer259" in="00:00:00.000" out="00:00:04.960">
  <property name="length">00:00:05.000</property>
  <property name="eof">pause</property>
  <property name="resource">/home/liquidzulu/Documents/youtube-scripts/courses/libertarian-ethics/capsaicin/pseudo/homesteading-and-property-rights.pseudo.srt-images/336.png</property>
  <property name="ttl">25</property>
  <property name="aspect_ratio">1</property>
  <property name="progressive">1</property>
  <property name="seekable">1</property>
  <property name="meta.media.width">1920</property>
  <property name="meta.media.height">1080</property>
  <property name="mlt_service">qimage</property>
  <property name="kdenlive:clipname"/>
  <property name="kdenlive:duration">00:00:05.000</property>
  <property name="kdenlive:folderid">95</property>
  <property name="kdenlive:clip_type">2</property>
  <property name="kdenlive:id">263</property>
  <property name="kdenlive:file_size">8504</property>
  <property name="kdenlive:file_hash">7f87ae9d0cae0d89efe66fb9f265f38f</property>
 </producer>
 <producer id="producer260" in="00:00:00.000" out="00:00:04.960">
  <property name="length">00:00:05.000</property>
  <property name="eof">pause</property>
  <property name="resource">/home/liquidzulu/Documents/youtube-scripts/courses/libertarian-ethics/capsaicin/pseudo/homesteading-and-property-rights.pseudo.srt-images/337.png</property>
  <property name="ttl">25</property>
  <property name="aspect_ratio">1</property>
  <property name="progressive">1</property>
  <property name="seekable">1</property>
  <property name="meta.media.width">1920</property>
  <property name="meta.media.height">1080</property>
  <property name="mlt_service">qimage</property>
  <property name="kdenlive:clipname"/>
  <property name="kdenlive:duration">00:00:05.000</property>
  <property name="kdenlive:folderid">95</property>
  <property name="kdenlive:clip_type">2</property>
  <property name="kdenlive:id">264</property>
  <property name="kdenlive:file_size">8713</property>
  <property name="kdenlive:file_hash">c9c8d8a1c2151cab6f9db60b2b9537c5</property>
 </producer>
 <producer id="producer262" in="00:00:00.000" out="00:00:04.960">
  <property name="length">00:00:05.000</property>
  <property name="eof">pause</property>
  <property name="resource">/home/liquidzulu/Documents/youtube-scripts/courses/libertarian-ethics/capsaicin/pseudo/homesteading-and-property-rights.pseudo.srt-images/338.png</property>
  <property name="ttl">25</property>
  <property name="aspect_ratio">1</property>
  <property name="progressive">1</property>
  <property name="seekable">1</property>
  <property name="meta.media.width">1920</property>
  <property name="meta.media.height">1080</property>
  <property name="mlt_service">qimage</property>
  <property name="kdenlive:clipname"/>
  <property name="kdenlive:duration">00:00:05.000</property>
  <property name="kdenlive:folderid">95</property>
  <property name="kdenlive:clip_type">2</property>
  <property name="kdenlive:id">265</property>
  <property name="kdenlive:file_size">8840</property>
  <property name="kdenlive:file_hash">ea0c81b992d519857f08802b690712e5</property>
 </producer>
 <producer id="producer261" in="00:00:00.000" out="00:00:04.960">
  <property name="length">00:00:05.000</property>
  <property name="eof">pause</property>
  <property name="resource">/home/liquidzulu/Documents/youtube-scripts/courses/libertarian-ethics/capsaicin/pseudo/homesteading-and-property-rights.pseudo.srt-images/339.png</property>
  <property name="ttl">25</property>
  <property name="aspect_ratio">1</property>
  <property name="progressive">1</property>
  <property name="seekable">1</property>
  <property name="meta.media.width">1920</property>
  <property name="meta.media.height">1080</property>
  <property name="mlt_service">qimage</property>
  <property name="kdenlive:clipname"/>
  <property name="kdenlive:duration">00:00:05.000</property>
  <property name="kdenlive:folderid">95</property>
  <property name="kdenlive:clip_type">2</property>
  <property name="kdenlive:id">266</property>
  <property name="kdenlive:file_size">8869</property>
  <property name="kdenlive:file_hash">ceb44b256c9f410770e724e29fdc5fd7</property>
 </producer>
 <producer id="producer263" in="00:00:00.000" out="00:00:04.960">
  <property name="length">00:00:05.000</property>
  <property name="eof">pause</property>
  <property name="resource">/home/liquidzulu/Documents/youtube-scripts/courses/libertarian-ethics/capsaicin/pseudo/homesteading-and-property-rights.pseudo.srt-images/34.png</property>
  <property name="ttl">25</property>
  <property name="aspect_ratio">1</property>
  <property name="progressive">1</property>
  <property name="seekable">1</property>
  <property name="meta.media.width">1920</property>
  <property name="meta.media.height">1080</property>
  <property name="mlt_service">qimage</property>
  <property name="kdenlive:clipname"/>
  <property name="kdenlive:duration">00:00:05.000</property>
  <property name="kdenlive:folderid">95</property>
  <property name="kdenlive:clip_type">2</property>
  <property name="kdenlive:id">267</property>
  <property name="kdenlive:file_size">8838</property>
  <property name="kdenlive:file_hash">ae9d7fcd260a591f379c411a2309de3d</property>
 </producer>
 <producer id="producer264" in="00:00:00.000" out="00:00:04.960">
  <property name="length">00:00:05.000</property>
  <property name="eof">pause</property>
  <property name="resource">/home/liquidzulu/Documents/youtube-scripts/courses/libertarian-ethics/capsaicin/pseudo/homesteading-and-property-rights.pseudo.srt-images/340.png</property>
  <property name="ttl">25</property>
  <property name="aspect_ratio">1</property>
  <property name="progressive">1</property>
  <property name="seekable">1</property>
  <property name="meta.media.width">1920</property>
  <property name="meta.media.height">1080</property>
  <property name="mlt_service">qimage</property>
  <property name="kdenlive:clipname"/>
  <property name="kdenlive:duration">00:00:05.000</property>
  <property name="kdenlive:folderid">95</property>
  <property name="kdenlive:clip_type">2</property>
  <property name="kdenlive:id">268</property>
  <property name="kdenlive:file_size">9134</property>
  <property name="kdenlive:file_hash">cfd23c4e80c2b310adacfe2c1e96dc0b</property>
 </producer>
 <producer id="producer265" in="00:00:00.000" out="00:00:04.960">
  <property name="length">00:00:05.000</property>
  <property name="eof">pause</property>
  <property name="resource">/home/liquidzulu/Documents/youtube-scripts/courses/libertarian-ethics/capsaicin/pseudo/homesteading-and-property-rights.pseudo.srt-images/341.png</property>
  <property name="ttl">25</property>
  <property name="aspect_ratio">1</property>
  <property name="progressive">1</property>
  <property name="seekable">1</property>
  <property name="meta.media.width">1920</property>
  <property name="meta.media.height">1080</property>
  <property name="mlt_service">qimage</property>
  <property name="kdenlive:clipname"/>
  <property name="kdenlive:duration">00:00:05.000</property>
  <property name="kdenlive:folderid">95</property>
  <property name="kdenlive:clip_type">2</property>
  <property name="kdenlive:id">269</property>
  <property name="kdenlive:file_size">9373</property>
  <property name="kdenlive:file_hash">aff35c46e25913601f43cce46cd3f79e</property>
 </producer>
 <producer id="producer266" in="00:00:00.000" out="00:00:04.960">
  <property name="length">00:00:05.000</property>
  <property name="eof">pause</property>
  <property name="resource">/home/liquidzulu/Documents/youtube-scripts/courses/libertarian-ethics/capsaicin/pseudo/homesteading-and-property-rights.pseudo.srt-images/342.png</property>
  <property name="ttl">25</property>
  <property name="aspect_ratio">1</property>
  <property name="progressive">1</property>
  <property name="seekable">1</property>
  <property name="meta.media.width">1920</property>
  <property name="meta.media.height">1080</property>
  <property name="mlt_service">qimage</property>
  <property name="kdenlive:clipname"/>
  <property name="kdenlive:duration">00:00:05.000</property>
  <property name="kdenlive:folderid">95</property>
  <property name="kdenlive:clip_type">2</property>
  <property name="kdenlive:id">270</property>
  <property name="kdenlive:file_size">8630</property>
  <property name="kdenlive:file_hash">bb58c0398a551b5ab3cc2e399ad0635e</property>
 </producer>
 <producer id="producer267" in="00:00:00.000" out="00:00:04.960">
  <property name="length">00:00:05.000</property>
  <property name="eof">pause</property>
  <property name="resource">/home/liquidzulu/Documents/youtube-scripts/courses/libertarian-ethics/capsaicin/pseudo/homesteading-and-property-rights.pseudo.srt-images/343.png</property>
  <property name="ttl">25</property>
  <property name="aspect_ratio">1</property>
  <property name="progressive">1</property>
  <property name="seekable">1</property>
  <property name="meta.media.width">1920</property>
  <property name="meta.media.height">1080</property>
  <property name="mlt_service">qimage</property>
  <property name="kdenlive:clipname"/>
  <property name="kdenlive:duration">00:00:05.000</property>
  <property name="kdenlive:folderid">95</property>
  <property name="kdenlive:clip_type">2</property>
  <property name="kdenlive:id">271</property>
  <property name="kdenlive:file_size">7998</property>
  <property name="kdenlive:file_hash">7d791a0f279e3b5e2e7a4fac7793f6e7</property>
 </producer>
 <producer id="producer268" in="00:00:00.000" out="00:00:04.960">
  <property name="length">00:00:05.000</property>
  <property name="eof">pause</property>
  <property name="resource">/home/liquidzulu/Documents/youtube-scripts/courses/libertarian-ethics/capsaicin/pseudo/homesteading-and-property-rights.pseudo.srt-images/35.png</property>
  <property name="ttl">25</property>
  <property name="aspect_ratio">1</property>
  <property name="progressive">1</property>
  <property name="seekable">1</property>
  <property name="meta.media.width">1920</property>
  <property name="meta.media.height">1080</property>
  <property name="mlt_service">qimage</property>
  <property name="kdenlive:clipname"/>
  <property name="kdenlive:duration">00:00:05.000</property>
  <property name="kdenlive:folderid">95</property>
  <property name="kdenlive:clip_type">2</property>
  <property name="kdenlive:id">272</property>
  <property name="kdenlive:file_size">9341</property>
  <property name="kdenlive:file_hash">7fa73ff5767f1c3ab3b34cadd6ad0230</property>
 </producer>
 <producer id="producer269" in="00:00:00.000" out="00:00:04.960">
  <property name="length">00:00:05.000</property>
  <property name="eof">pause</property>
  <property name="resource">/home/liquidzulu/Documents/youtube-scripts/courses/libertarian-ethics/capsaicin/pseudo/homesteading-and-property-rights.pseudo.srt-images/368.png</property>
  <property name="ttl">25</property>
  <property name="aspect_ratio">1</property>
  <property name="progressive">1</property>
  <property name="seekable">1</property>
  <property name="meta.media.width">1920</property>
  <property name="meta.media.height">1080</property>
  <property name="mlt_service">qimage</property>
  <property name="kdenlive:clipname"/>
  <property name="kdenlive:duration">00:00:05.000</property>
  <property name="kdenlive:folderid">95</property>
  <property name="kdenlive:clip_type">2</property>
  <property name="kdenlive:id">273</property>
  <property name="kdenlive:file_size">9020</property>
  <property name="kdenlive:file_hash">3268210334d04e70242840deb83ee269</property>
 </producer>
 <producer id="producer270" in="00:00:00.000" out="00:00:04.960">
  <property name="length">00:00:05.000</property>
  <property name="eof">pause</property>
  <property name="resource">/home/liquidzulu/Documents/youtube-scripts/courses/libertarian-ethics/capsaicin/pseudo/homesteading-and-property-rights.pseudo.srt-images/369.png</property>
  <property name="ttl">25</property>
  <property name="aspect_ratio">1</property>
  <property name="progressive">1</property>
  <property name="seekable">1</property>
  <property name="meta.media.width">1920</property>
  <property name="meta.media.height">1080</property>
  <property name="mlt_service">qimage</property>
  <property name="kdenlive:clipname"/>
  <property name="kdenlive:duration">00:00:05.000</property>
  <property name="kdenlive:folderid">95</property>
  <property name="kdenlive:clip_type">2</property>
  <property name="kdenlive:id">274</property>
  <property name="kdenlive:file_size">7098</property>
  <property name="kdenlive:file_hash">2096799580e1446940618d44907eb0f3</property>
 </producer>
 <producer id="producer273" in="00:00:00.000" out="00:00:04.960">
  <property name="length">00:00:05.000</property>
  <property name="eof">pause</property>
  <property name="resource">/home/liquidzulu/Documents/youtube-scripts/courses/libertarian-ethics/capsaicin/pseudo/homesteading-and-property-rights.pseudo.srt-images/370.png</property>
  <property name="ttl">25</property>
  <property name="aspect_ratio">1</property>
  <property name="progressive">1</property>
  <property name="seekable">1</property>
  <property name="meta.media.width">1920</property>
  <property name="meta.media.height">1080</property>
  <property name="mlt_service">qimage</property>
  <property name="kdenlive:clipname"/>
  <property name="kdenlive:duration">00:00:05.000</property>
  <property name="kdenlive:folderid">95</property>
  <property name="kdenlive:clip_type">2</property>
  <property name="kdenlive:id">275</property>
  <property name="kdenlive:file_size">9309</property>
  <property name="kdenlive:file_hash">f3205c226444c0e9e1f9bb781646a9ef</property>
 </producer>
 <producer id="producer271" in="00:00:00.000" out="00:00:04.960">
  <property name="length">00:00:05.000</property>
  <property name="eof">pause</property>
  <property name="resource">/home/liquidzulu/Documents/youtube-scripts/courses/libertarian-ethics/capsaicin/pseudo/homesteading-and-property-rights.pseudo.srt-images/371.png</property>
  <property name="ttl">25</property>
  <property name="aspect_ratio">1</property>
  <property name="progressive">1</property>
  <property name="seekable">1</property>
  <property name="meta.media.width">1920</property>
  <property name="meta.media.height">1080</property>
  <property name="mlt_service">qimage</property>
  <property name="kdenlive:clipname"/>
  <property name="kdenlive:duration">00:00:05.000</property>
  <property name="kdenlive:folderid">95</property>
  <property name="kdenlive:clip_type">2</property>
  <property name="kdenlive:id">276</property>
  <property name="kdenlive:file_size">8627</property>
  <property name="kdenlive:file_hash">52154a8759a0f7653cf384f1d09ac8cf</property>
 </producer>
 <producer id="producer272" in="00:00:00.000" out="00:00:04.960">
  <property name="length">00:00:05.000</property>
  <property name="eof">pause</property>
  <property name="resource">/home/liquidzulu/Documents/youtube-scripts/courses/libertarian-ethics/capsaicin/pseudo/homesteading-and-property-rights.pseudo.srt-images/372.png</property>
  <property name="ttl">25</property>
  <property name="aspect_ratio">1</property>
  <property name="progressive">1</property>
  <property name="seekable">1</property>
  <property name="meta.media.width">1920</property>
  <property name="meta.media.height">1080</property>
  <property name="mlt_service">qimage</property>
  <property name="kdenlive:clipname"/>
  <property name="kdenlive:duration">00:00:05.000</property>
  <property name="kdenlive:folderid">95</property>
  <property name="kdenlive:clip_type">2</property>
  <property name="kdenlive:id">277</property>
  <property name="kdenlive:file_size">9134</property>
  <property name="kdenlive:file_hash">bbeba9e785deb1fefdd090333cab5e2d</property>
 </producer>
 <producer id="producer274" in="00:00:00.000" out="00:00:04.960">
  <property name="length">00:00:05.000</property>
  <property name="eof">pause</property>
  <property name="resource">/home/liquidzulu/Documents/youtube-scripts/courses/libertarian-ethics/capsaicin/pseudo/homesteading-and-property-rights.pseudo.srt-images/373.png</property>
  <property name="ttl">25</property>
  <property name="aspect_ratio">1</property>
  <property name="progressive">1</property>
  <property name="seekable">1</property>
  <property name="meta.media.width">1920</property>
  <property name="meta.media.height">1080</property>
  <property name="mlt_service">qimage</property>
  <property name="kdenlive:clipname"/>
  <property name="kdenlive:duration">00:00:05.000</property>
  <property name="kdenlive:folderid">95</property>
  <property name="kdenlive:clip_type">2</property>
  <property name="kdenlive:id">278</property>
  <property name="kdenlive:file_size">9224</property>
  <property name="kdenlive:file_hash">b47b973165603d24d0da00dc62284352</property>
 </producer>
 <producer id="producer276" in="00:00:00.000" out="00:00:04.960">
  <property name="length">00:00:05.000</property>
  <property name="eof">pause</property>
  <property name="resource">/home/liquidzulu/Documents/youtube-scripts/courses/libertarian-ethics/capsaicin/pseudo/homesteading-and-property-rights.pseudo.srt-images/374.png</property>
  <property name="ttl">25</property>
  <property name="aspect_ratio">1</property>
  <property name="progressive">1</property>
  <property name="seekable">1</property>
  <property name="meta.media.width">1920</property>
  <property name="meta.media.height">1080</property>
  <property name="mlt_service">qimage</property>
  <property name="kdenlive:clipname"/>
  <property name="kdenlive:duration">00:00:05.000</property>
  <property name="kdenlive:folderid">95</property>
  <property name="kdenlive:clip_type">2</property>
  <property name="kdenlive:id">279</property>
  <property name="kdenlive:file_size">9077</property>
  <property name="kdenlive:file_hash">c03061a340ac5490cb78523df8cf03e4</property>
 </producer>
 <producer id="producer275" in="00:00:00.000" out="00:00:04.960">
  <property name="length">00:00:05.000</property>
  <property name="eof">pause</property>
  <property name="resource">/home/liquidzulu/Documents/youtube-scripts/courses/libertarian-ethics/capsaicin/pseudo/homesteading-and-property-rights.pseudo.srt-images/375.png</property>
  <property name="ttl">25</property>
  <property name="aspect_ratio">1</property>
  <property name="progressive">1</property>
  <property name="seekable">1</property>
  <property name="meta.media.width">1920</property>
  <property name="meta.media.height">1080</property>
  <property name="mlt_service">qimage</property>
  <property name="kdenlive:clipname"/>
  <property name="kdenlive:duration">00:00:05.000</property>
  <property name="kdenlive:folderid">95</property>
  <property name="kdenlive:clip_type">2</property>
  <property name="kdenlive:id">280</property>
  <property name="kdenlive:file_size">7717</property>
  <property name="kdenlive:file_hash">e30f0cee2f936a0b2109a4337618b451</property>
 </producer>
 <producer id="producer277" in="00:00:00.000" out="00:00:04.960">
  <property name="length">00:00:05.000</property>
  <property name="eof">pause</property>
  <property name="resource">/home/liquidzulu/Documents/youtube-scripts/courses/libertarian-ethics/capsaicin/pseudo/homesteading-and-property-rights.pseudo.srt-images/376.png</property>
  <property name="ttl">25</property>
  <property name="aspect_ratio">1</property>
  <property name="progressive">1</property>
  <property name="seekable">1</property>
  <property name="meta.media.width">1920</property>
  <property name="meta.media.height">1080</property>
  <property name="mlt_service">qimage</property>
  <property name="kdenlive:clipname"/>
  <property name="kdenlive:duration">00:00:05.000</property>
  <property name="kdenlive:folderid">95</property>
  <property name="kdenlive:clip_type">2</property>
  <property name="kdenlive:id">281</property>
  <property name="kdenlive:file_size">9394</property>
  <property name="kdenlive:file_hash">1f82c664a0711f1f5d4ed3656dd8b697</property>
 </producer>
 <producer id="producer278" in="00:00:00.000" out="00:00:04.960">
  <property name="length">00:00:05.000</property>
  <property name="eof">pause</property>
  <property name="resource">/home/liquidzulu/Documents/youtube-scripts/courses/libertarian-ethics/capsaicin/pseudo/homesteading-and-property-rights.pseudo.srt-images/377.png</property>
  <property name="ttl">25</property>
  <property name="aspect_ratio">1</property>
  <property name="progressive">1</property>
  <property name="seekable">1</property>
  <property name="meta.media.width">1920</property>
  <property name="meta.media.height">1080</property>
  <property name="mlt_service">qimage</property>
  <property name="kdenlive:clipname"/>
  <property name="kdenlive:duration">00:00:05.000</property>
  <property name="kdenlive:folderid">95</property>
  <property name="kdenlive:clip_type">2</property>
  <property name="kdenlive:id">282</property>
  <property name="kdenlive:file_size">8933</property>
  <property name="kdenlive:file_hash">36791f0302efc8da2ff99cd98c24ba29</property>
 </producer>
 <producer id="producer279" in="00:00:00.000" out="00:00:04.960">
  <property name="length">00:00:05.000</property>
  <property name="eof">pause</property>
  <property name="resource">/home/liquidzulu/Documents/youtube-scripts/courses/libertarian-ethics/capsaicin/pseudo/homesteading-and-property-rights.pseudo.srt-images/378.png</property>
  <property name="ttl">25</property>
  <property name="aspect_ratio">1</property>
  <property name="progressive">1</property>
  <property name="seekable">1</property>
  <property name="meta.media.width">1920</property>
  <property name="meta.media.height">1080</property>
  <property name="mlt_service">qimage</property>
  <property name="kdenlive:clipname"/>
  <property name="kdenlive:duration">00:00:05.000</property>
  <property name="kdenlive:folderid">95</property>
  <property name="kdenlive:clip_type">2</property>
  <property name="kdenlive:id">283</property>
  <property name="kdenlive:file_size">9070</property>
  <property name="kdenlive:file_hash">db5a1540dd804de2f8784fc69a8a71b4</property>
 </producer>
 <producer id="producer280" in="00:00:00.000" out="00:00:04.960">
  <property name="length">00:00:05.000</property>
  <property name="eof">pause</property>
  <property name="resource">/home/liquidzulu/Documents/youtube-scripts/courses/libertarian-ethics/capsaicin/pseudo/homesteading-and-property-rights.pseudo.srt-images/379.png</property>
  <property name="ttl">25</property>
  <property name="aspect_ratio">1</property>
  <property name="progressive">1</property>
  <property name="seekable">1</property>
  <property name="meta.media.width">1920</property>
  <property name="meta.media.height">1080</property>
  <property name="mlt_service">qimage</property>
  <property name="kdenlive:clipname"/>
  <property name="kdenlive:duration">00:00:05.000</property>
  <property name="kdenlive:folderid">95</property>
  <property name="kdenlive:clip_type">2</property>
  <property name="kdenlive:id">284</property>
  <property name="kdenlive:file_size">9310</property>
  <property name="kdenlive:file_hash">f726f98a748f32d35355a5999ed64ceb</property>
 </producer>
 <producer id="producer281" in="00:00:00.000" out="00:00:04.960">
  <property name="length">00:00:05.000</property>
  <property name="eof">pause</property>
  <property name="resource">/home/liquidzulu/Documents/youtube-scripts/courses/libertarian-ethics/capsaicin/pseudo/homesteading-and-property-rights.pseudo.srt-images/38.png</property>
  <property name="ttl">25</property>
  <property name="aspect_ratio">1</property>
  <property name="progressive">1</property>
  <property name="seekable">1</property>
  <property name="meta.media.width">1920</property>
  <property name="meta.media.height">1080</property>
  <property name="mlt_service">qimage</property>
  <property name="kdenlive:clipname"/>
  <property name="kdenlive:duration">00:00:05.000</property>
  <property name="kdenlive:folderid">95</property>
  <property name="kdenlive:clip_type">2</property>
  <property name="kdenlive:id">285</property>
  <property name="kdenlive:file_size">7874</property>
  <property name="kdenlive:file_hash">35c83417e5ecb7229e5ff56b85041da5</property>
 </producer>
 <producer id="producer282" in="00:00:00.000" out="00:00:04.960">
  <property name="length">00:00:05.000</property>
  <property name="eof">pause</property>
  <property name="resource">/home/liquidzulu/Documents/youtube-scripts/courses/libertarian-ethics/capsaicin/pseudo/homesteading-and-property-rights.pseudo.srt-images/380.png</property>
  <property name="ttl">25</property>
  <property name="aspect_ratio">1</property>
  <property name="progressive">1</property>
  <property name="seekable">1</property>
  <property name="meta.media.width">1920</property>
  <property name="meta.media.height">1080</property>
  <property name="mlt_service">qimage</property>
  <property name="kdenlive:clipname"/>
  <property name="kdenlive:duration">00:00:05.000</property>
  <property name="kdenlive:folderid">95</property>
  <property name="kdenlive:clip_type">2</property>
  <property name="kdenlive:id">286</property>
  <property name="kdenlive:file_size">9477</property>
  <property name="kdenlive:file_hash">a78f5956621a1839bc4a98c3317a0564</property>
 </producer>
 <producer id="producer283" in="00:00:00.000" out="00:00:04.960">
  <property name="length">00:00:05.000</property>
  <property name="eof">pause</property>
  <property name="resource">/home/liquidzulu/Documents/youtube-scripts/courses/libertarian-ethics/capsaicin/pseudo/homesteading-and-property-rights.pseudo.srt-images/381.png</property>
  <property name="ttl">25</property>
  <property name="aspect_ratio">1</property>
  <property name="progressive">1</property>
  <property name="seekable">1</property>
  <property name="meta.media.width">1920</property>
  <property name="meta.media.height">1080</property>
  <property name="mlt_service">qimage</property>
  <property name="kdenlive:clipname"/>
  <property name="kdenlive:duration">00:00:05.000</property>
  <property name="kdenlive:folderid">95</property>
  <property name="kdenlive:clip_type">2</property>
  <property name="kdenlive:id">287</property>
  <property name="kdenlive:file_size">8914</property>
  <property name="kdenlive:file_hash">8f6c63c69811bbde95d0b64192b18faa</property>
 </producer>
 <producer id="producer284" in="00:00:00.000" out="00:00:04.960">
  <property name="length">00:00:05.000</property>
  <property name="eof">pause</property>
  <property name="resource">/home/liquidzulu/Documents/youtube-scripts/courses/libertarian-ethics/capsaicin/pseudo/homesteading-and-property-rights.pseudo.srt-images/382.png</property>
  <property name="ttl">25</property>
  <property name="aspect_ratio">1</property>
  <property name="progressive">1</property>
  <property name="seekable">1</property>
  <property name="meta.media.width">1920</property>
  <property name="meta.media.height">1080</property>
  <property name="mlt_service">qimage</property>
  <property name="kdenlive:clipname"/>
  <property name="kdenlive:duration">00:00:05.000</property>
  <property name="kdenlive:folderid">95</property>
  <property name="kdenlive:clip_type">2</property>
  <property name="kdenlive:id">288</property>
  <property name="kdenlive:file_size">8842</property>
  <property name="kdenlive:file_hash">6c8d27f344cfd41295b79e9d1adb3c15</property>
 </producer>
 <producer id="producer285" in="00:00:00.000" out="00:00:04.960">
  <property name="length">00:00:05.000</property>
  <property name="eof">pause</property>
  <property name="resource">/home/liquidzulu/Documents/youtube-scripts/courses/libertarian-ethics/capsaicin/pseudo/homesteading-and-property-rights.pseudo.srt-images/383.png</property>
  <property name="ttl">25</property>
  <property name="aspect_ratio">1</property>
  <property name="progressive">1</property>
  <property name="seekable">1</property>
  <property name="meta.media.width">1920</property>
  <property name="meta.media.height">1080</property>
  <property name="mlt_service">qimage</property>
  <property name="kdenlive:clipname"/>
  <property name="kdenlive:duration">00:00:05.000</property>
  <property name="kdenlive:folderid">95</property>
  <property name="kdenlive:clip_type">2</property>
  <property name="kdenlive:id">289</property>
  <property name="kdenlive:file_size">9118</property>
  <property name="kdenlive:file_hash">269082c27f05f98bcc4a156d4ff203c2</property>
 </producer>
 <producer id="producer287" in="00:00:00.000" out="00:00:04.960">
  <property name="length">00:00:05.000</property>
  <property name="eof">pause</property>
  <property name="resource">/home/liquidzulu/Documents/youtube-scripts/courses/libertarian-ethics/capsaicin/pseudo/homesteading-and-property-rights.pseudo.srt-images/384.png</property>
  <property name="ttl">25</property>
  <property name="aspect_ratio">1</property>
  <property name="progressive">1</property>
  <property name="seekable">1</property>
  <property name="meta.media.width">1920</property>
  <property name="meta.media.height">1080</property>
  <property name="mlt_service">qimage</property>
  <property name="kdenlive:clipname"/>
  <property name="kdenlive:duration">00:00:05.000</property>
  <property name="kdenlive:folderid">95</property>
  <property name="kdenlive:clip_type">2</property>
  <property name="kdenlive:id">290</property>
  <property name="kdenlive:file_size">8729</property>
  <property name="kdenlive:file_hash">3d78a08cced90ff82417a3d111fa484f</property>
 </producer>
 <producer id="producer286" in="00:00:00.000" out="00:00:04.960">
  <property name="length">00:00:05.000</property>
  <property name="eof">pause</property>
  <property name="resource">/home/liquidzulu/Documents/youtube-scripts/courses/libertarian-ethics/capsaicin/pseudo/homesteading-and-property-rights.pseudo.srt-images/385.png</property>
  <property name="ttl">25</property>
  <property name="aspect_ratio">1</property>
  <property name="progressive">1</property>
  <property name="seekable">1</property>
  <property name="meta.media.width">1920</property>
  <property name="meta.media.height">1080</property>
  <property name="mlt_service">qimage</property>
  <property name="kdenlive:clipname"/>
  <property name="kdenlive:duration">00:00:05.000</property>
  <property name="kdenlive:folderid">95</property>
  <property name="kdenlive:clip_type">2</property>
  <property name="kdenlive:id">291</property>
  <property name="kdenlive:file_size">9193</property>
  <property name="kdenlive:file_hash">db9522eb409875dec028a34707fb03c5</property>
 </producer>
 <producer id="producer288" in="00:00:00.000" out="00:00:04.960">
  <property name="length">00:00:05.000</property>
  <property name="eof">pause</property>
  <property name="resource">/home/liquidzulu/Documents/youtube-scripts/courses/libertarian-ethics/capsaicin/pseudo/homesteading-and-property-rights.pseudo.srt-images/386.png</property>
  <property name="ttl">25</property>
  <property name="aspect_ratio">1</property>
  <property name="progressive">1</property>
  <property name="seekable">1</property>
  <property name="meta.media.width">1920</property>
  <property name="meta.media.height">1080</property>
  <property name="mlt_service">qimage</property>
  <property name="kdenlive:clipname"/>
  <property name="kdenlive:duration">00:00:05.000</property>
  <property name="kdenlive:folderid">95</property>
  <property name="kdenlive:clip_type">2</property>
  <property name="kdenlive:id">292</property>
  <property name="kdenlive:file_size">9271</property>
  <property name="kdenlive:file_hash">0e09e33f899b22dc74e11cc3c744e789</property>
 </producer>
 <producer id="producer289" in="00:00:00.000" out="00:00:04.960">
  <property name="length">00:00:05.000</property>
  <property name="eof">pause</property>
  <property name="resource">/home/liquidzulu/Documents/youtube-scripts/courses/libertarian-ethics/capsaicin/pseudo/homesteading-and-property-rights.pseudo.srt-images/387.png</property>
  <property name="ttl">25</property>
  <property name="aspect_ratio">1</property>
  <property name="progressive">1</property>
  <property name="seekable">1</property>
  <property name="meta.media.width">1920</property>
  <property name="meta.media.height">1080</property>
  <property name="mlt_service">qimage</property>
  <property name="kdenlive:clipname"/>
  <property name="kdenlive:duration">00:00:05.000</property>
  <property name="kdenlive:folderid">95</property>
  <property name="kdenlive:clip_type">2</property>
  <property name="kdenlive:id">293</property>
  <property name="kdenlive:file_size">7972</property>
  <property name="kdenlive:file_hash">7987ed57bc7919e24457aaa78e36b100</property>
 </producer>
 <producer id="producer290" in="00:00:00.000" out="00:00:04.960">
  <property name="length">00:00:05.000</property>
  <property name="eof">pause</property>
  <property name="resource">/home/liquidzulu/Documents/youtube-scripts/courses/libertarian-ethics/capsaicin/pseudo/homesteading-and-property-rights.pseudo.srt-images/388.png</property>
  <property name="ttl">25</property>
  <property name="aspect_ratio">1</property>
  <property name="progressive">1</property>
  <property name="seekable">1</property>
  <property name="meta.media.width">1920</property>
  <property name="meta.media.height">1080</property>
  <property name="mlt_service">qimage</property>
  <property name="kdenlive:clipname"/>
  <property name="kdenlive:duration">00:00:05.000</property>
  <property name="kdenlive:folderid">95</property>
  <property name="kdenlive:clip_type">2</property>
  <property name="kdenlive:id">294</property>
  <property name="kdenlive:file_size">9188</property>
  <property name="kdenlive:file_hash">3664c358fe9c793b0df6cf7b9b96d23c</property>
 </producer>
 <producer id="producer291" in="00:00:00.000" out="00:00:04.960">
  <property name="length">00:00:05.000</property>
  <property name="eof">pause</property>
  <property name="resource">/home/liquidzulu/Documents/youtube-scripts/courses/libertarian-ethics/capsaicin/pseudo/homesteading-and-property-rights.pseudo.srt-images/389.png</property>
  <property name="ttl">25</property>
  <property name="aspect_ratio">1</property>
  <property name="progressive">1</property>
  <property name="seekable">1</property>
  <property name="meta.media.width">1920</property>
  <property name="meta.media.height">1080</property>
  <property name="mlt_service">qimage</property>
  <property name="kdenlive:clipname"/>
  <property name="kdenlive:duration">00:00:05.000</property>
  <property name="kdenlive:folderid">95</property>
  <property name="kdenlive:clip_type">2</property>
  <property name="kdenlive:id">295</property>
  <property name="kdenlive:file_size">8694</property>
  <property name="kdenlive:file_hash">4e0598c5f3fec0d5c352ff42cf2e34bf</property>
 </producer>
 <producer id="producer292" in="00:00:00.000" out="00:00:04.960">
  <property name="length">00:00:05.000</property>
  <property name="eof">pause</property>
  <property name="resource">/home/liquidzulu/Documents/youtube-scripts/courses/libertarian-ethics/capsaicin/pseudo/homesteading-and-property-rights.pseudo.srt-images/39.png</property>
  <property name="ttl">25</property>
  <property name="aspect_ratio">1</property>
  <property name="progressive">1</property>
  <property name="seekable">1</property>
  <property name="meta.media.width">1920</property>
  <property name="meta.media.height">1080</property>
  <property name="mlt_service">qimage</property>
  <property name="kdenlive:clipname"/>
  <property name="kdenlive:duration">00:00:05.000</property>
  <property name="kdenlive:folderid">95</property>
  <property name="kdenlive:clip_type">2</property>
  <property name="kdenlive:id">296</property>
  <property name="kdenlive:file_size">8668</property>
  <property name="kdenlive:file_hash">45d69234b99380ec539c0e7da46a400e</property>
 </producer>
 <producer id="producer294" in="00:00:00.000" out="00:00:04.960">
  <property name="length">00:00:05.000</property>
  <property name="eof">pause</property>
  <property name="resource">/home/liquidzulu/Documents/youtube-scripts/courses/libertarian-ethics/capsaicin/pseudo/homesteading-and-property-rights.pseudo.srt-images/390.png</property>
  <property name="ttl">25</property>
  <property name="aspect_ratio">1</property>
  <property name="progressive">1</property>
  <property name="seekable">1</property>
  <property name="meta.media.width">1920</property>
  <property name="meta.media.height">1080</property>
  <property name="mlt_service">qimage</property>
  <property name="kdenlive:clipname"/>
  <property name="kdenlive:duration">00:00:05.000</property>
  <property name="kdenlive:folderid">95</property>
  <property name="kdenlive:clip_type">2</property>
  <property name="kdenlive:id">297</property>
  <property name="kdenlive:file_size">8656</property>
  <property name="kdenlive:file_hash">091e0ce2fa0b9a92d121d4add87e98fe</property>
 </producer>
 <producer id="producer293" in="00:00:00.000" out="00:00:04.960">
  <property name="length">00:00:05.000</property>
  <property name="eof">pause</property>
  <property name="resource">/home/liquidzulu/Documents/youtube-scripts/courses/libertarian-ethics/capsaicin/pseudo/homesteading-and-property-rights.pseudo.srt-images/391.png</property>
  <property name="ttl">25</property>
  <property name="aspect_ratio">1</property>
  <property name="progressive">1</property>
  <property name="seekable">1</property>
  <property name="meta.media.width">1920</property>
  <property name="meta.media.height">1080</property>
  <property name="mlt_service">qimage</property>
  <property name="kdenlive:clipname"/>
  <property name="kdenlive:duration">00:00:05.000</property>
  <property name="kdenlive:folderid">95</property>
  <property name="kdenlive:clip_type">2</property>
  <property name="kdenlive:id">298</property>
  <property name="kdenlive:file_size">9359</property>
  <property name="kdenlive:file_hash">2c51e89d332c80030d37e73e7282621a</property>
 </producer>
 <producer id="producer295" in="00:00:00.000" out="00:00:04.960">
  <property name="length">00:00:05.000</property>
  <property name="eof">pause</property>
  <property name="resource">/home/liquidzulu/Documents/youtube-scripts/courses/libertarian-ethics/capsaicin/pseudo/homesteading-and-property-rights.pseudo.srt-images/392.png</property>
  <property name="ttl">25</property>
  <property name="aspect_ratio">1</property>
  <property name="progressive">1</property>
  <property name="seekable">1</property>
  <property name="meta.media.width">1920</property>
  <property name="meta.media.height">1080</property>
  <property name="mlt_service">qimage</property>
  <property name="kdenlive:clipname"/>
  <property name="kdenlive:duration">00:00:05.000</property>
  <property name="kdenlive:folderid">95</property>
  <property name="kdenlive:clip_type">2</property>
  <property name="kdenlive:id">299</property>
  <property name="kdenlive:file_size">9543</property>
  <property name="kdenlive:file_hash">a4eb68b6d11f6ea4860c4c4f37d48f69</property>
 </producer>
 <producer id="producer297" in="00:00:00.000" out="00:00:04.960">
  <property name="length">00:00:05.000</property>
  <property name="eof">pause</property>
  <property name="resource">/home/liquidzulu/Documents/youtube-scripts/courses/libertarian-ethics/capsaicin/pseudo/homesteading-and-property-rights.pseudo.srt-images/393.png</property>
  <property name="ttl">25</property>
  <property name="aspect_ratio">1</property>
  <property name="progressive">1</property>
  <property name="seekable">1</property>
  <property name="meta.media.width">1920</property>
  <property name="meta.media.height">1080</property>
  <property name="mlt_service">qimage</property>
  <property name="kdenlive:clipname"/>
  <property name="kdenlive:duration">00:00:05.000</property>
  <property name="kdenlive:folderid">95</property>
  <property name="kdenlive:clip_type">2</property>
  <property name="kdenlive:id">300</property>
  <property name="kdenlive:file_size">8856</property>
  <property name="kdenlive:file_hash">9e4f9847a4cb0b7c77e8b00cce1ad7f3</property>
 </producer>
 <producer id="producer296" in="00:00:00.000" out="00:00:04.960">
  <property name="length">00:00:05.000</property>
  <property name="eof">pause</property>
  <property name="resource">/home/liquidzulu/Documents/youtube-scripts/courses/libertarian-ethics/capsaicin/pseudo/homesteading-and-property-rights.pseudo.srt-images/394.png</property>
  <property name="ttl">25</property>
  <property name="aspect_ratio">1</property>
  <property name="progressive">1</property>
  <property name="seekable">1</property>
  <property name="meta.media.width">1920</property>
  <property name="meta.media.height">1080</property>
  <property name="mlt_service">qimage</property>
  <property name="kdenlive:clipname"/>
  <property name="kdenlive:duration">00:00:05.000</property>
  <property name="kdenlive:folderid">95</property>
  <property name="kdenlive:clip_type">2</property>
  <property name="kdenlive:id">301</property>
  <property name="kdenlive:file_size">8805</property>
  <property name="kdenlive:file_hash">284328e80bf96dde5db35c03c2c2e8bd</property>
 </producer>
 <producer id="producer298" in="00:00:00.000" out="00:00:04.960">
  <property name="length">00:00:05.000</property>
  <property name="eof">pause</property>
  <property name="resource">/home/liquidzulu/Documents/youtube-scripts/courses/libertarian-ethics/capsaicin/pseudo/homesteading-and-property-rights.pseudo.srt-images/395.png</property>
  <property name="ttl">25</property>
  <property name="aspect_ratio">1</property>
  <property name="progressive">1</property>
  <property name="seekable">1</property>
  <property name="meta.media.width">1920</property>
  <property name="meta.media.height">1080</property>
  <property name="mlt_service">qimage</property>
  <property name="kdenlive:clipname"/>
  <property name="kdenlive:duration">00:00:05.000</property>
  <property name="kdenlive:folderid">95</property>
  <property name="kdenlive:clip_type">2</property>
  <property name="kdenlive:id">302</property>
  <property name="kdenlive:file_size">8979</property>
  <property name="kdenlive:file_hash">2bb89f7b8d8b8bee78d2d7df6856604f</property>
 </producer>
 <producer id="producer299" in="00:00:00.000" out="00:00:04.960">
  <property name="length">00:00:05.000</property>
  <property name="eof">pause</property>
  <property name="resource">/home/liquidzulu/Documents/youtube-scripts/courses/libertarian-ethics/capsaicin/pseudo/homesteading-and-property-rights.pseudo.srt-images/396.png</property>
  <property name="ttl">25</property>
  <property name="aspect_ratio">1</property>
  <property name="progressive">1</property>
  <property name="seekable">1</property>
  <property name="meta.media.width">1920</property>
  <property name="meta.media.height">1080</property>
  <property name="mlt_service">qimage</property>
  <property name="kdenlive:clipname"/>
  <property name="kdenlive:duration">00:00:05.000</property>
  <property name="kdenlive:folderid">95</property>
  <property name="kdenlive:clip_type">2</property>
  <property name="kdenlive:id">303</property>
  <property name="kdenlive:file_size">8893</property>
  <property name="kdenlive:file_hash">989bcebf13ddd0d711f8cf5f4d4f3bbc</property>
 </producer>
 <producer id="producer300" in="00:00:00.000" out="00:00:04.960">
  <property name="length">00:00:05.000</property>
  <property name="eof">pause</property>
  <property name="resource">/home/liquidzulu/Documents/youtube-scripts/courses/libertarian-ethics/capsaicin/pseudo/homesteading-and-property-rights.pseudo.srt-images/397.png</property>
  <property name="ttl">25</property>
  <property name="aspect_ratio">1</property>
  <property name="progressive">1</property>
  <property name="seekable">1</property>
  <property name="meta.media.width">1920</property>
  <property name="meta.media.height">1080</property>
  <property name="mlt_service">qimage</property>
  <property name="kdenlive:clipname"/>
  <property name="kdenlive:duration">00:00:05.000</property>
  <property name="kdenlive:folderid">95</property>
  <property name="kdenlive:clip_type">2</property>
  <property name="kdenlive:id">304</property>
  <property name="kdenlive:file_size">9176</property>
  <property name="kdenlive:file_hash">f13f1dfffcafeabe2f1e0e5e726a4138</property>
 </producer>
 <producer id="producer301" in="00:00:00.000" out="00:00:04.960">
  <property name="length">00:00:05.000</property>
  <property name="eof">pause</property>
  <property name="resource">/home/liquidzulu/Documents/youtube-scripts/courses/libertarian-ethics/capsaicin/pseudo/homesteading-and-property-rights.pseudo.srt-images/398.png</property>
  <property name="ttl">25</property>
  <property name="aspect_ratio">1</property>
  <property name="progressive">1</property>
  <property name="seekable">1</property>
  <property name="meta.media.width">1920</property>
  <property name="meta.media.height">1080</property>
  <property name="mlt_service">qimage</property>
  <property name="kdenlive:clipname"/>
  <property name="kdenlive:duration">00:00:05.000</property>
  <property name="kdenlive:folderid">95</property>
  <property name="kdenlive:clip_type">2</property>
  <property name="kdenlive:id">305</property>
  <property name="kdenlive:file_size">8636</property>
  <property name="kdenlive:file_hash">1344867240e6a7c32e27ed4e6dde88b1</property>
 </producer>
 <producer id="producer302" in="00:00:00.000" out="00:00:04.960">
  <property name="length">00:00:05.000</property>
  <property name="eof">pause</property>
  <property name="resource">/home/liquidzulu/Documents/youtube-scripts/courses/libertarian-ethics/capsaicin/pseudo/homesteading-and-property-rights.pseudo.srt-images/399.png</property>
  <property name="ttl">25</property>
  <property name="aspect_ratio">1</property>
  <property name="progressive">1</property>
  <property name="seekable">1</property>
  <property name="meta.media.width">1920</property>
  <property name="meta.media.height">1080</property>
  <property name="mlt_service">qimage</property>
  <property name="kdenlive:clipname"/>
  <property name="kdenlive:duration">00:00:05.000</property>
  <property name="kdenlive:folderid">95</property>
  <property name="kdenlive:clip_type">2</property>
  <property name="kdenlive:id">306</property>
  <property name="kdenlive:file_size">8677</property>
  <property name="kdenlive:file_hash">cd6933394f3bb61f358ac4239e41ae47</property>
 </producer>
 <producer id="producer303" in="00:00:00.000" out="00:00:04.960">
  <property name="length">00:00:05.000</property>
  <property name="eof">pause</property>
  <property name="resource">/home/liquidzulu/Documents/youtube-scripts/courses/libertarian-ethics/capsaicin/pseudo/homesteading-and-property-rights.pseudo.srt-images/40.png</property>
  <property name="ttl">25</property>
  <property name="aspect_ratio">1</property>
  <property name="progressive">1</property>
  <property name="seekable">1</property>
  <property name="meta.media.width">1920</property>
  <property name="meta.media.height">1080</property>
  <property name="mlt_service">qimage</property>
  <property name="kdenlive:clipname"/>
  <property name="kdenlive:duration">00:00:05.000</property>
  <property name="kdenlive:folderid">95</property>
  <property name="kdenlive:clip_type">2</property>
  <property name="kdenlive:id">307</property>
  <property name="kdenlive:file_size">9197</property>
  <property name="kdenlive:file_hash">4bb33cf69c5a10e28ac2b6397b29fc99</property>
 </producer>
 <producer id="producer304" in="00:00:00.000" out="00:00:04.960">
  <property name="length">00:00:05.000</property>
  <property name="eof">pause</property>
  <property name="resource">/home/liquidzulu/Documents/youtube-scripts/courses/libertarian-ethics/capsaicin/pseudo/homesteading-and-property-rights.pseudo.srt-images/400.png</property>
  <property name="ttl">25</property>
  <property name="aspect_ratio">1</property>
  <property name="progressive">1</property>
  <property name="seekable">1</property>
  <property name="meta.media.width">1920</property>
  <property name="meta.media.height">1080</property>
  <property name="mlt_service">qimage</property>
  <property name="kdenlive:clipname"/>
  <property name="kdenlive:duration">00:00:05.000</property>
  <property name="kdenlive:folderid">95</property>
  <property name="kdenlive:clip_type">2</property>
  <property name="kdenlive:id">308</property>
  <property name="kdenlive:file_size">8920</property>
  <property name="kdenlive:file_hash">ca8b4dbdbf48dcf2d5a70138ca558bec</property>
 </producer>
 <producer id="producer306" in="00:00:00.000" out="00:00:04.960">
  <property name="length">00:00:05.000</property>
  <property name="eof">pause</property>
  <property name="resource">/home/liquidzulu/Documents/youtube-scripts/courses/libertarian-ethics/capsaicin/pseudo/homesteading-and-property-rights.pseudo.srt-images/401.png</property>
  <property name="ttl">25</property>
  <property name="aspect_ratio">1</property>
  <property name="progressive">1</property>
  <property name="seekable">1</property>
  <property name="meta.media.width">1920</property>
  <property name="meta.media.height">1080</property>
  <property name="mlt_service">qimage</property>
  <property name="kdenlive:clipname"/>
  <property name="kdenlive:duration">00:00:05.000</property>
  <property name="kdenlive:folderid">95</property>
  <property name="kdenlive:clip_type">2</property>
  <property name="kdenlive:id">309</property>
  <property name="kdenlive:file_size">9059</property>
  <property name="kdenlive:file_hash">976eaeb9de265d161f2620f1f04b8156</property>
 </producer>
 <producer id="producer305" in="00:00:00.000" out="00:00:04.960">
  <property name="length">00:00:05.000</property>
  <property name="eof">pause</property>
  <property name="resource">/home/liquidzulu/Documents/youtube-scripts/courses/libertarian-ethics/capsaicin/pseudo/homesteading-and-property-rights.pseudo.srt-images/402.png</property>
  <property name="ttl">25</property>
  <property name="aspect_ratio">1</property>
  <property name="progressive">1</property>
  <property name="seekable">1</property>
  <property name="meta.media.width">1920</property>
  <property name="meta.media.height">1080</property>
  <property name="mlt_service">qimage</property>
  <property name="kdenlive:clipname"/>
  <property name="kdenlive:duration">00:00:05.000</property>
  <property name="kdenlive:folderid">95</property>
  <property name="kdenlive:clip_type">2</property>
  <property name="kdenlive:id">310</property>
  <property name="kdenlive:file_size">9102</property>
  <property name="kdenlive:file_hash">711b6749c73caf43e954da33ccf455ed</property>
 </producer>
 <producer id="producer307" in="00:00:00.000" out="00:00:04.960">
  <property name="length">00:00:05.000</property>
  <property name="eof">pause</property>
  <property name="resource">/home/liquidzulu/Documents/youtube-scripts/courses/libertarian-ethics/capsaicin/pseudo/homesteading-and-property-rights.pseudo.srt-images/403.png</property>
  <property name="ttl">25</property>
  <property name="aspect_ratio">1</property>
  <property name="progressive">1</property>
  <property name="seekable">1</property>
  <property name="meta.media.width">1920</property>
  <property name="meta.media.height">1080</property>
  <property name="mlt_service">qimage</property>
  <property name="kdenlive:clipname"/>
  <property name="kdenlive:duration">00:00:05.000</property>
  <property name="kdenlive:folderid">95</property>
  <property name="kdenlive:clip_type">2</property>
  <property name="kdenlive:id">311</property>
  <property name="kdenlive:file_size">9044</property>
  <property name="kdenlive:file_hash">4540634989d9956ec4ea83be5c0903e9</property>
 </producer>
 <producer id="producer308" in="00:00:00.000" out="00:00:04.960">
  <property name="length">00:00:05.000</property>
  <property name="eof">pause</property>
  <property name="resource">/home/liquidzulu/Documents/youtube-scripts/courses/libertarian-ethics/capsaicin/pseudo/homesteading-and-property-rights.pseudo.srt-images/404.png</property>
  <property name="ttl">25</property>
  <property name="aspect_ratio">1</property>
  <property name="progressive">1</property>
  <property name="seekable">1</property>
  <property name="meta.media.width">1920</property>
  <property name="meta.media.height">1080</property>
  <property name="mlt_service">qimage</property>
  <property name="kdenlive:clipname"/>
  <property name="kdenlive:duration">00:00:05.000</property>
  <property name="kdenlive:folderid">95</property>
  <property name="kdenlive:clip_type">2</property>
  <property name="kdenlive:id">312</property>
  <property name="kdenlive:file_size">8535</property>
  <property name="kdenlive:file_hash">5bfc656de5006d6094e683f08d705134</property>
 </producer>
 <producer id="producer309" in="00:00:00.000" out="00:00:04.960">
  <property name="length">00:00:05.000</property>
  <property name="eof">pause</property>
  <property name="resource">/home/liquidzulu/Documents/youtube-scripts/courses/libertarian-ethics/capsaicin/pseudo/homesteading-and-property-rights.pseudo.srt-images/405.png</property>
  <property name="ttl">25</property>
  <property name="aspect_ratio">1</property>
  <property name="progressive">1</property>
  <property name="seekable">1</property>
  <property name="meta.media.width">1920</property>
  <property name="meta.media.height">1080</property>
  <property name="mlt_service">qimage</property>
  <property name="kdenlive:clipname"/>
  <property name="kdenlive:duration">00:00:05.000</property>
  <property name="kdenlive:folderid">95</property>
  <property name="kdenlive:clip_type">2</property>
  <property name="kdenlive:id">313</property>
  <property name="kdenlive:file_size">8752</property>
  <property name="kdenlive:file_hash">00591825ea425fef49fcffe358547e6c</property>
 </producer>
 <producer id="producer311" in="00:00:00.000" out="00:00:04.960">
  <property name="length">00:00:05.000</property>
  <property name="eof">pause</property>
  <property name="resource">/home/liquidzulu/Documents/youtube-scripts/courses/libertarian-ethics/capsaicin/pseudo/homesteading-and-property-rights.pseudo.srt-images/406.png</property>
  <property name="ttl">25</property>
  <property name="aspect_ratio">1</property>
  <property name="progressive">1</property>
  <property name="seekable">1</property>
  <property name="meta.media.width">1920</property>
  <property name="meta.media.height">1080</property>
  <property name="mlt_service">qimage</property>
  <property name="kdenlive:clipname"/>
  <property name="kdenlive:duration">00:00:05.000</property>
  <property name="kdenlive:folderid">95</property>
  <property name="kdenlive:clip_type">2</property>
  <property name="kdenlive:id">314</property>
  <property name="kdenlive:file_size">9040</property>
  <property name="kdenlive:file_hash">edf7b00d2551f151a405921cbf68b43e</property>
 </producer>
 <producer id="producer310" in="00:00:00.000" out="00:00:04.960">
  <property name="length">00:00:05.000</property>
  <property name="eof">pause</property>
  <property name="resource">/home/liquidzulu/Documents/youtube-scripts/courses/libertarian-ethics/capsaicin/pseudo/homesteading-and-property-rights.pseudo.srt-images/407.png</property>
  <property name="ttl">25</property>
  <property name="aspect_ratio">1</property>
  <property name="progressive">1</property>
  <property name="seekable">1</property>
  <property name="meta.media.width">1920</property>
  <property name="meta.media.height">1080</property>
  <property name="mlt_service">qimage</property>
  <property name="kdenlive:clipname"/>
  <property name="kdenlive:duration">00:00:05.000</property>
  <property name="kdenlive:folderid">95</property>
  <property name="kdenlive:clip_type">2</property>
  <property name="kdenlive:id">315</property>
  <property name="kdenlive:file_size">9003</property>
  <property name="kdenlive:file_hash">f3165829ddf7ae306dc74b93ef8aaba9</property>
 </producer>
 <producer id="producer312" in="00:00:00.000" out="00:00:04.960">
  <property name="length">00:00:05.000</property>
  <property name="eof">pause</property>
  <property name="resource">/home/liquidzulu/Documents/youtube-scripts/courses/libertarian-ethics/capsaicin/pseudo/homesteading-and-property-rights.pseudo.srt-images/408.png</property>
  <property name="ttl">25</property>
  <property name="aspect_ratio">1</property>
  <property name="progressive">1</property>
  <property name="seekable">1</property>
  <property name="meta.media.width">1920</property>
  <property name="meta.media.height">1080</property>
  <property name="mlt_service">qimage</property>
  <property name="kdenlive:clipname"/>
  <property name="kdenlive:duration">00:00:05.000</property>
  <property name="kdenlive:folderid">95</property>
  <property name="kdenlive:clip_type">2</property>
  <property name="kdenlive:id">316</property>
  <property name="kdenlive:file_size">9253</property>
  <property name="kdenlive:file_hash">70ec3a683c07bd49e9758d7c0a1af6ff</property>
 </producer>
 <producer id="producer313" in="00:00:00.000" out="00:00:04.960">
  <property name="length">00:00:05.000</property>
  <property name="eof">pause</property>
  <property name="resource">/home/liquidzulu/Documents/youtube-scripts/courses/libertarian-ethics/capsaicin/pseudo/homesteading-and-property-rights.pseudo.srt-images/409.png</property>
  <property name="ttl">25</property>
  <property name="aspect_ratio">1</property>
  <property name="progressive">1</property>
  <property name="seekable">1</property>
  <property name="meta.media.width">1920</property>
  <property name="meta.media.height">1080</property>
  <property name="mlt_service">qimage</property>
  <property name="kdenlive:clipname"/>
  <property name="kdenlive:duration">00:00:05.000</property>
  <property name="kdenlive:folderid">95</property>
  <property name="kdenlive:clip_type">2</property>
  <property name="kdenlive:id">317</property>
  <property name="kdenlive:file_size">9075</property>
  <property name="kdenlive:file_hash">7f60fe0a2d41a100db6a6ec75c62fca0</property>
 </producer>
 <producer id="producer315" in="00:00:00.000" out="00:00:04.960">
  <property name="length">00:00:05.000</property>
  <property name="eof">pause</property>
  <property name="resource">/home/liquidzulu/Documents/youtube-scripts/courses/libertarian-ethics/capsaicin/pseudo/homesteading-and-property-rights.pseudo.srt-images/41.png</property>
  <property name="ttl">25</property>
  <property name="aspect_ratio">1</property>
  <property name="progressive">1</property>
  <property name="seekable">1</property>
  <property name="meta.media.width">1920</property>
  <property name="meta.media.height">1080</property>
  <property name="mlt_service">qimage</property>
  <property name="kdenlive:clipname"/>
  <property name="kdenlive:duration">00:00:05.000</property>
  <property name="kdenlive:folderid">95</property>
  <property name="kdenlive:clip_type">2</property>
  <property name="kdenlive:id">318</property>
  <property name="kdenlive:file_size">8957</property>
  <property name="kdenlive:file_hash">bd56729832ff41407827f8226f91e5be</property>
 </producer>
 <producer id="producer314" in="00:00:00.000" out="00:00:04.960">
  <property name="length">00:00:05.000</property>
  <property name="eof">pause</property>
  <property name="resource">/home/liquidzulu/Documents/youtube-scripts/courses/libertarian-ethics/capsaicin/pseudo/homesteading-and-property-rights.pseudo.srt-images/410.png</property>
  <property name="ttl">25</property>
  <property name="aspect_ratio">1</property>
  <property name="progressive">1</property>
  <property name="seekable">1</property>
  <property name="meta.media.width">1920</property>
  <property name="meta.media.height">1080</property>
  <property name="mlt_service">qimage</property>
  <property name="kdenlive:clipname"/>
  <property name="kdenlive:duration">00:00:05.000</property>
  <property name="kdenlive:folderid">95</property>
  <property name="kdenlive:clip_type">2</property>
  <property name="kdenlive:id">319</property>
  <property name="kdenlive:file_size">9081</property>
  <property name="kdenlive:file_hash">b3ee4208d8bdc1e590a637df55ec4456</property>
 </producer>
 <producer id="producer317" in="00:00:00.000" out="00:00:04.960">
  <property name="length">00:00:05.000</property>
  <property name="eof">pause</property>
  <property name="resource">/home/liquidzulu/Documents/youtube-scripts/courses/libertarian-ethics/capsaicin/pseudo/homesteading-and-property-rights.pseudo.srt-images/411.png</property>
  <property name="ttl">25</property>
  <property name="aspect_ratio">1</property>
  <property name="progressive">1</property>
  <property name="seekable">1</property>
  <property name="meta.media.width">1920</property>
  <property name="meta.media.height">1080</property>
  <property name="mlt_service">qimage</property>
  <property name="kdenlive:clipname"/>
  <property name="kdenlive:duration">00:00:05.000</property>
  <property name="kdenlive:folderid">95</property>
  <property name="kdenlive:clip_type">2</property>
  <property name="kdenlive:id">320</property>
  <property name="kdenlive:file_size">9400</property>
  <property name="kdenlive:file_hash">e588450ae23fc4c18b5aefab50b843b7</property>
 </producer>
 <producer id="producer318" in="00:00:00.000" out="00:00:04.960">
  <property name="length">00:00:05.000</property>
  <property name="eof">pause</property>
  <property name="resource">/home/liquidzulu/Documents/youtube-scripts/courses/libertarian-ethics/capsaicin/pseudo/homesteading-and-property-rights.pseudo.srt-images/412.png</property>
  <property name="ttl">25</property>
  <property name="aspect_ratio">1</property>
  <property name="progressive">1</property>
  <property name="seekable">1</property>
  <property name="meta.media.width">1920</property>
  <property name="meta.media.height">1080</property>
  <property name="mlt_service">qimage</property>
  <property name="kdenlive:clipname"/>
  <property name="kdenlive:duration">00:00:05.000</property>
  <property name="kdenlive:folderid">95</property>
  <property name="kdenlive:clip_type">2</property>
  <property name="kdenlive:id">321</property>
  <property name="kdenlive:file_size">8998</property>
  <property name="kdenlive:file_hash">c72f606ace3801fcbdf2eb866df0fe19</property>
 </producer>
 <producer id="producer316" in="00:00:00.000" out="00:00:04.960">
  <property name="length">00:00:05.000</property>
  <property name="eof">pause</property>
  <property name="resource">/home/liquidzulu/Documents/youtube-scripts/courses/libertarian-ethics/capsaicin/pseudo/homesteading-and-property-rights.pseudo.srt-images/413.png</property>
  <property name="ttl">25</property>
  <property name="aspect_ratio">1</property>
  <property name="progressive">1</property>
  <property name="seekable">1</property>
  <property name="meta.media.width">1920</property>
  <property name="meta.media.height">1080</property>
  <property name="mlt_service">qimage</property>
  <property name="kdenlive:clipname"/>
  <property name="kdenlive:duration">00:00:05.000</property>
  <property name="kdenlive:folderid">95</property>
  <property name="kdenlive:clip_type">2</property>
  <property name="kdenlive:id">322</property>
  <property name="kdenlive:file_size">8859</property>
  <property name="kdenlive:file_hash">c76c96ada85d3ddaf61f20170116dc8d</property>
 </producer>
 <producer id="producer319" in="00:00:00.000" out="00:00:04.960">
  <property name="length">00:00:05.000</property>
  <property name="eof">pause</property>
  <property name="resource">/home/liquidzulu/Documents/youtube-scripts/courses/libertarian-ethics/capsaicin/pseudo/homesteading-and-property-rights.pseudo.srt-images/414.png</property>
  <property name="ttl">25</property>
  <property name="aspect_ratio">1</property>
  <property name="progressive">1</property>
  <property name="seekable">1</property>
  <property name="meta.media.width">1920</property>
  <property name="meta.media.height">1080</property>
  <property name="mlt_service">qimage</property>
  <property name="kdenlive:clipname"/>
  <property name="kdenlive:duration">00:00:05.000</property>
  <property name="kdenlive:folderid">95</property>
  <property name="kdenlive:clip_type">2</property>
  <property name="kdenlive:id">323</property>
  <property name="kdenlive:file_size">9107</property>
  <property name="kdenlive:file_hash">18df193044c01fb68c0c55555ce221b1</property>
 </producer>
 <producer id="producer320" in="00:00:00.000" out="00:00:04.960">
  <property name="length">00:00:05.000</property>
  <property name="eof">pause</property>
  <property name="resource">/home/liquidzulu/Documents/youtube-scripts/courses/libertarian-ethics/capsaicin/pseudo/homesteading-and-property-rights.pseudo.srt-images/415.png</property>
  <property name="ttl">25</property>
  <property name="aspect_ratio">1</property>
  <property name="progressive">1</property>
  <property name="seekable">1</property>
  <property name="meta.media.width">1920</property>
  <property name="meta.media.height">1080</property>
  <property name="mlt_service">qimage</property>
  <property name="kdenlive:clipname"/>
  <property name="kdenlive:duration">00:00:05.000</property>
  <property name="kdenlive:folderid">95</property>
  <property name="kdenlive:clip_type">2</property>
  <property name="kdenlive:id">324</property>
  <property name="kdenlive:file_size">8781</property>
  <property name="kdenlive:file_hash">dac28275da281b5e419c4ea7a24e2b55</property>
 </producer>
 <producer id="producer321" in="00:00:00.000" out="00:00:04.960">
  <property name="length">00:00:05.000</property>
  <property name="eof">pause</property>
  <property name="resource">/home/liquidzulu/Documents/youtube-scripts/courses/libertarian-ethics/capsaicin/pseudo/homesteading-and-property-rights.pseudo.srt-images/416.png</property>
  <property name="ttl">25</property>
  <property name="aspect_ratio">1</property>
  <property name="progressive">1</property>
  <property name="seekable">1</property>
  <property name="meta.media.width">1920</property>
  <property name="meta.media.height">1080</property>
  <property name="mlt_service">qimage</property>
  <property name="kdenlive:clipname"/>
  <property name="kdenlive:duration">00:00:05.000</property>
  <property name="kdenlive:folderid">95</property>
  <property name="kdenlive:clip_type">2</property>
  <property name="kdenlive:id">325</property>
  <property name="kdenlive:file_size">8950</property>
  <property name="kdenlive:file_hash">7f67827054aa0e0fb33543511623638a</property>
 </producer>
 <producer id="producer322" in="00:00:00.000" out="00:00:04.960">
  <property name="length">00:00:05.000</property>
  <property name="eof">pause</property>
  <property name="resource">/home/liquidzulu/Documents/youtube-scripts/courses/libertarian-ethics/capsaicin/pseudo/homesteading-and-property-rights.pseudo.srt-images/417.png</property>
  <property name="ttl">25</property>
  <property name="aspect_ratio">1</property>
  <property name="progressive">1</property>
  <property name="seekable">1</property>
  <property name="meta.media.width">1920</property>
  <property name="meta.media.height">1080</property>
  <property name="mlt_service">qimage</property>
  <property name="kdenlive:clipname"/>
  <property name="kdenlive:duration">00:00:05.000</property>
  <property name="kdenlive:folderid">95</property>
  <property name="kdenlive:clip_type">2</property>
  <property name="kdenlive:id">326</property>
  <property name="kdenlive:file_size">9141</property>
  <property name="kdenlive:file_hash">74529a19ed1b3d034c33d36e4570b5aa</property>
 </producer>
 <producer id="producer323" in="00:00:00.000" out="00:00:04.960">
  <property name="length">00:00:05.000</property>
  <property name="eof">pause</property>
  <property name="resource">/home/liquidzulu/Documents/youtube-scripts/courses/libertarian-ethics/capsaicin/pseudo/homesteading-and-property-rights.pseudo.srt-images/418.png</property>
  <property name="ttl">25</property>
  <property name="aspect_ratio">1</property>
  <property name="progressive">1</property>
  <property name="seekable">1</property>
  <property name="meta.media.width">1920</property>
  <property name="meta.media.height">1080</property>
  <property name="mlt_service">qimage</property>
  <property name="kdenlive:clipname"/>
  <property name="kdenlive:duration">00:00:05.000</property>
  <property name="kdenlive:folderid">95</property>
  <property name="kdenlive:clip_type">2</property>
  <property name="kdenlive:id">327</property>
  <property name="kdenlive:file_size">8940</property>
  <property name="kdenlive:file_hash">69f75eeb03ce336de75c57e24b1e779b</property>
 </producer>
 <producer id="producer324" in="00:00:00.000" out="00:00:04.960">
  <property name="length">00:00:05.000</property>
  <property name="eof">pause</property>
  <property name="resource">/home/liquidzulu/Documents/youtube-scripts/courses/libertarian-ethics/capsaicin/pseudo/homesteading-and-property-rights.pseudo.srt-images/419.png</property>
  <property name="ttl">25</property>
  <property name="aspect_ratio">1</property>
  <property name="progressive">1</property>
  <property name="seekable">1</property>
  <property name="meta.media.width">1920</property>
  <property name="meta.media.height">1080</property>
  <property name="mlt_service">qimage</property>
  <property name="kdenlive:clipname"/>
  <property name="kdenlive:duration">00:00:05.000</property>
  <property name="kdenlive:folderid">95</property>
  <property name="kdenlive:clip_type">2</property>
  <property name="kdenlive:id">328</property>
  <property name="kdenlive:file_size">9088</property>
  <property name="kdenlive:file_hash">4bcd9f78c2ae84555aa9f9e713188a3c</property>
 </producer>
 <producer id="producer326" in="00:00:00.000" out="00:00:04.960">
  <property name="length">00:00:05.000</property>
  <property name="eof">pause</property>
  <property name="resource">/home/liquidzulu/Documents/youtube-scripts/courses/libertarian-ethics/capsaicin/pseudo/homesteading-and-property-rights.pseudo.srt-images/42.png</property>
  <property name="ttl">25</property>
  <property name="aspect_ratio">1</property>
  <property name="progressive">1</property>
  <property name="seekable">1</property>
  <property name="meta.media.width">1920</property>
  <property name="meta.media.height">1080</property>
  <property name="mlt_service">qimage</property>
  <property name="kdenlive:clipname"/>
  <property name="kdenlive:duration">00:00:05.000</property>
  <property name="kdenlive:folderid">95</property>
  <property name="kdenlive:clip_type">2</property>
  <property name="kdenlive:id">329</property>
  <property name="kdenlive:file_size">8587</property>
  <property name="kdenlive:file_hash">404c4745ce3bfdeae5a78b9a107bc835</property>
 </producer>
 <producer id="producer325" in="00:00:00.000" out="00:00:04.960">
  <property name="length">00:00:05.000</property>
  <property name="eof">pause</property>
  <property name="resource">/home/liquidzulu/Documents/youtube-scripts/courses/libertarian-ethics/capsaicin/pseudo/homesteading-and-property-rights.pseudo.srt-images/420.png</property>
  <property name="ttl">25</property>
  <property name="aspect_ratio">1</property>
  <property name="progressive">1</property>
  <property name="seekable">1</property>
  <property name="meta.media.width">1920</property>
  <property name="meta.media.height">1080</property>
  <property name="mlt_service">qimage</property>
  <property name="kdenlive:clipname"/>
  <property name="kdenlive:duration">00:00:05.000</property>
  <property name="kdenlive:folderid">95</property>
  <property name="kdenlive:clip_type">2</property>
  <property name="kdenlive:id">330</property>
  <property name="kdenlive:file_size">8970</property>
  <property name="kdenlive:file_hash">2519326f2cef1d015183920683b8ba9b</property>
 </producer>
 <producer id="producer327" in="00:00:00.000" out="00:00:04.960">
  <property name="length">00:00:05.000</property>
  <property name="eof">pause</property>
  <property name="resource">/home/liquidzulu/Documents/youtube-scripts/courses/libertarian-ethics/capsaicin/pseudo/homesteading-and-property-rights.pseudo.srt-images/421.png</property>
  <property name="ttl">25</property>
  <property name="aspect_ratio">1</property>
  <property name="progressive">1</property>
  <property name="seekable">1</property>
  <property name="meta.media.width">1920</property>
  <property name="meta.media.height">1080</property>
  <property name="mlt_service">qimage</property>
  <property name="kdenlive:clipname"/>
  <property name="kdenlive:duration">00:00:05.000</property>
  <property name="kdenlive:folderid">95</property>
  <property name="kdenlive:clip_type">2</property>
  <property name="kdenlive:id">331</property>
  <property name="kdenlive:file_size">8507</property>
  <property name="kdenlive:file_hash">66d5f1796745590db99c3330a66f2901</property>
 </producer>
 <producer id="producer328" in="00:00:00.000" out="00:00:04.960">
  <property name="length">00:00:05.000</property>
  <property name="eof">pause</property>
  <property name="resource">/home/liquidzulu/Documents/youtube-scripts/courses/libertarian-ethics/capsaicin/pseudo/homesteading-and-property-rights.pseudo.srt-images/422.png</property>
  <property name="ttl">25</property>
  <property name="aspect_ratio">1</property>
  <property name="progressive">1</property>
  <property name="seekable">1</property>
  <property name="meta.media.width">1920</property>
  <property name="meta.media.height">1080</property>
  <property name="mlt_service">qimage</property>
  <property name="kdenlive:clipname"/>
  <property name="kdenlive:duration">00:00:05.000</property>
  <property name="kdenlive:folderid">95</property>
  <property name="kdenlive:clip_type">2</property>
  <property name="kdenlive:id">332</property>
  <property name="kdenlive:file_size">9518</property>
  <property name="kdenlive:file_hash">6ceca0bba5f66c6e4aab2a2c0d4191de</property>
 </producer>
 <producer id="producer329" in="00:00:00.000" out="00:00:04.960">
  <property name="length">00:00:05.000</property>
  <property name="eof">pause</property>
  <property name="resource">/home/liquidzulu/Documents/youtube-scripts/courses/libertarian-ethics/capsaicin/pseudo/homesteading-and-property-rights.pseudo.srt-images/423.png</property>
  <property name="ttl">25</property>
  <property name="aspect_ratio">1</property>
  <property name="progressive">1</property>
  <property name="seekable">1</property>
  <property name="meta.media.width">1920</property>
  <property name="meta.media.height">1080</property>
  <property name="mlt_service">qimage</property>
  <property name="kdenlive:clipname"/>
  <property name="kdenlive:duration">00:00:05.000</property>
  <property name="kdenlive:folderid">95</property>
  <property name="kdenlive:clip_type">2</property>
  <property name="kdenlive:id">333</property>
  <property name="kdenlive:file_size">9303</property>
  <property name="kdenlive:file_hash">2594ad038eba83a18d4be07ed32e0311</property>
 </producer>
 <producer id="producer330" in="00:00:00.000" out="00:00:04.960">
  <property name="length">00:00:05.000</property>
  <property name="eof">pause</property>
  <property name="resource">/home/liquidzulu/Documents/youtube-scripts/courses/libertarian-ethics/capsaicin/pseudo/homesteading-and-property-rights.pseudo.srt-images/424.png</property>
  <property name="ttl">25</property>
  <property name="aspect_ratio">1</property>
  <property name="progressive">1</property>
  <property name="seekable">1</property>
  <property name="meta.media.width">1920</property>
  <property name="meta.media.height">1080</property>
  <property name="mlt_service">qimage</property>
  <property name="kdenlive:clipname"/>
  <property name="kdenlive:duration">00:00:05.000</property>
  <property name="kdenlive:folderid">95</property>
  <property name="kdenlive:clip_type">2</property>
  <property name="kdenlive:id">334</property>
  <property name="kdenlive:file_size">9151</property>
  <property name="kdenlive:file_hash">fcb2d1b313785a8f35a13d75f1c6ac9e</property>
 </producer>
 <producer id="producer332" in="00:00:00.000" out="00:00:04.960">
  <property name="length">00:00:05.000</property>
  <property name="eof">pause</property>
  <property name="resource">/home/liquidzulu/Documents/youtube-scripts/courses/libertarian-ethics/capsaicin/pseudo/homesteading-and-property-rights.pseudo.srt-images/425.png</property>
  <property name="ttl">25</property>
  <property name="aspect_ratio">1</property>
  <property name="progressive">1</property>
  <property name="seekable">1</property>
  <property name="meta.media.width">1920</property>
  <property name="meta.media.height">1080</property>
  <property name="mlt_service">qimage</property>
  <property name="kdenlive:clipname"/>
  <property name="kdenlive:duration">00:00:05.000</property>
  <property name="kdenlive:folderid">95</property>
  <property name="kdenlive:clip_type">2</property>
  <property name="kdenlive:id">335</property>
  <property name="kdenlive:file_size">8650</property>
  <property name="kdenlive:file_hash">9e3cc813a34fc35d49235b0922c02cdd</property>
 </producer>
 <producer id="producer331" in="00:00:00.000" out="00:00:04.960">
  <property name="length">00:00:05.000</property>
  <property name="eof">pause</property>
  <property name="resource">/home/liquidzulu/Documents/youtube-scripts/courses/libertarian-ethics/capsaicin/pseudo/homesteading-and-property-rights.pseudo.srt-images/426.png</property>
  <property name="ttl">25</property>
  <property name="aspect_ratio">1</property>
  <property name="progressive">1</property>
  <property name="seekable">1</property>
  <property name="meta.media.width">1920</property>
  <property name="meta.media.height">1080</property>
  <property name="mlt_service">qimage</property>
  <property name="kdenlive:clipname"/>
  <property name="kdenlive:duration">00:00:05.000</property>
  <property name="kdenlive:folderid">95</property>
  <property name="kdenlive:clip_type">2</property>
  <property name="kdenlive:id">336</property>
  <property name="kdenlive:file_size">9263</property>
  <property name="kdenlive:file_hash">f7f16a709a339db604448c0572b7f282</property>
 </producer>
 <producer id="producer333" in="00:00:00.000" out="00:00:04.960">
  <property name="length">00:00:05.000</property>
  <property name="eof">pause</property>
  <property name="resource">/home/liquidzulu/Documents/youtube-scripts/courses/libertarian-ethics/capsaicin/pseudo/homesteading-and-property-rights.pseudo.srt-images/427.png</property>
  <property name="ttl">25</property>
  <property name="aspect_ratio">1</property>
  <property name="progressive">1</property>
  <property name="seekable">1</property>
  <property name="meta.media.width">1920</property>
  <property name="meta.media.height">1080</property>
  <property name="mlt_service">qimage</property>
  <property name="kdenlive:clipname"/>
  <property name="kdenlive:duration">00:00:05.000</property>
  <property name="kdenlive:folderid">95</property>
  <property name="kdenlive:clip_type">2</property>
  <property name="kdenlive:id">337</property>
  <property name="kdenlive:file_size">8406</property>
  <property name="kdenlive:file_hash">a47d676cd00dae378ca39f13c992147f</property>
 </producer>
 <producer id="producer334" in="00:00:00.000" out="00:00:04.960">
  <property name="length">00:00:05.000</property>
  <property name="eof">pause</property>
  <property name="resource">/home/liquidzulu/Documents/youtube-scripts/courses/libertarian-ethics/capsaicin/pseudo/homesteading-and-property-rights.pseudo.srt-images/428.png</property>
  <property name="ttl">25</property>
  <property name="aspect_ratio">1</property>
  <property name="progressive">1</property>
  <property name="seekable">1</property>
  <property name="meta.media.width">1920</property>
  <property name="meta.media.height">1080</property>
  <property name="mlt_service">qimage</property>
  <property name="kdenlive:clipname"/>
  <property name="kdenlive:duration">00:00:05.000</property>
  <property name="kdenlive:folderid">95</property>
  <property name="kdenlive:clip_type">2</property>
  <property name="kdenlive:id">338</property>
  <property name="kdenlive:file_size">8703</property>
  <property name="kdenlive:file_hash">be21827406b265aa57d55a9a23ba03e8</property>
 </producer>
 <producer id="producer335" in="00:00:00.000" out="00:00:04.960">
  <property name="length">00:00:05.000</property>
  <property name="eof">pause</property>
  <property name="resource">/home/liquidzulu/Documents/youtube-scripts/courses/libertarian-ethics/capsaicin/pseudo/homesteading-and-property-rights.pseudo.srt-images/429.png</property>
  <property name="ttl">25</property>
  <property name="aspect_ratio">1</property>
  <property name="progressive">1</property>
  <property name="seekable">1</property>
  <property name="meta.media.width">1920</property>
  <property name="meta.media.height">1080</property>
  <property name="mlt_service">qimage</property>
  <property name="kdenlive:clipname"/>
  <property name="kdenlive:duration">00:00:05.000</property>
  <property name="kdenlive:folderid">95</property>
  <property name="kdenlive:clip_type">2</property>
  <property name="kdenlive:id">339</property>
  <property name="kdenlive:file_size">9382</property>
  <property name="kdenlive:file_hash">cd761daba517b94a7a0dd63bcc95fc76</property>
 </producer>
 <producer id="producer336" in="00:00:00.000" out="00:00:04.960">
  <property name="length">00:00:05.000</property>
  <property name="eof">pause</property>
  <property name="resource">/home/liquidzulu/Documents/youtube-scripts/courses/libertarian-ethics/capsaicin/pseudo/homesteading-and-property-rights.pseudo.srt-images/43.png</property>
  <property name="ttl">25</property>
  <property name="aspect_ratio">1</property>
  <property name="progressive">1</property>
  <property name="seekable">1</property>
  <property name="meta.media.width">1920</property>
  <property name="meta.media.height">1080</property>
  <property name="mlt_service">qimage</property>
  <property name="kdenlive:clipname"/>
  <property name="kdenlive:duration">00:00:05.000</property>
  <property name="kdenlive:folderid">95</property>
  <property name="kdenlive:clip_type">2</property>
  <property name="kdenlive:id">340</property>
  <property name="kdenlive:file_size">8583</property>
  <property name="kdenlive:file_hash">d9bbe523f07835cfa363658a0d8c77b3</property>
 </producer>
 <producer id="producer337" in="00:00:00.000" out="00:00:04.960">
  <property name="length">00:00:05.000</property>
  <property name="eof">pause</property>
  <property name="resource">/home/liquidzulu/Documents/youtube-scripts/courses/libertarian-ethics/capsaicin/pseudo/homesteading-and-property-rights.pseudo.srt-images/430.png</property>
  <property name="ttl">25</property>
  <property name="aspect_ratio">1</property>
  <property name="progressive">1</property>
  <property name="seekable">1</property>
  <property name="meta.media.width">1920</property>
  <property name="meta.media.height">1080</property>
  <property name="mlt_service">qimage</property>
  <property name="kdenlive:clipname"/>
  <property name="kdenlive:duration">00:00:05.000</property>
  <property name="kdenlive:folderid">95</property>
  <property name="kdenlive:clip_type">2</property>
  <property name="kdenlive:id">341</property>
  <property name="kdenlive:file_size">8206</property>
  <property name="kdenlive:file_hash">7cf98f807528d3bb35bc1cf20f4627e3</property>
 </producer>
 <producer id="producer338" in="00:00:00.000" out="00:00:04.960">
  <property name="length">00:00:05.000</property>
  <property name="eof">pause</property>
  <property name="resource">/home/liquidzulu/Documents/youtube-scripts/courses/libertarian-ethics/capsaicin/pseudo/homesteading-and-property-rights.pseudo.srt-images/431.png</property>
  <property name="ttl">25</property>
  <property name="aspect_ratio">1</property>
  <property name="progressive">1</property>
  <property name="seekable">1</property>
  <property name="meta.media.width">1920</property>
  <property name="meta.media.height">1080</property>
  <property name="mlt_service">qimage</property>
  <property name="kdenlive:clipname"/>
  <property name="kdenlive:duration">00:00:05.000</property>
  <property name="kdenlive:folderid">95</property>
  <property name="kdenlive:clip_type">2</property>
  <property name="kdenlive:id">342</property>
  <property name="kdenlive:file_size">8202</property>
  <property name="kdenlive:file_hash">82ae7f7d5297b19e9d6b0c73f5b283be</property>
 </producer>
 <producer id="producer339" in="00:00:00.000" out="00:00:04.960">
  <property name="length">00:00:05.000</property>
  <property name="eof">pause</property>
  <property name="resource">/home/liquidzulu/Documents/youtube-scripts/courses/libertarian-ethics/capsaicin/pseudo/homesteading-and-property-rights.pseudo.srt-images/432.png</property>
  <property name="ttl">25</property>
  <property name="aspect_ratio">1</property>
  <property name="progressive">1</property>
  <property name="seekable">1</property>
  <property name="meta.media.width">1920</property>
  <property name="meta.media.height">1080</property>
  <property name="mlt_service">qimage</property>
  <property name="kdenlive:clipname"/>
  <property name="kdenlive:duration">00:00:05.000</property>
  <property name="kdenlive:folderid">95</property>
  <property name="kdenlive:clip_type">2</property>
  <property name="kdenlive:id">343</property>
  <property name="kdenlive:file_size">8234</property>
  <property name="kdenlive:file_hash">0a0efd9670080a7707efe37348de3029</property>
 </producer>
 <producer id="producer341" in="00:00:00.000" out="00:00:04.960">
  <property name="length">00:00:05.000</property>
  <property name="eof">pause</property>
  <property name="resource">/home/liquidzulu/Documents/youtube-scripts/courses/libertarian-ethics/capsaicin/pseudo/homesteading-and-property-rights.pseudo.srt-images/433.png</property>
  <property name="ttl">25</property>
  <property name="aspect_ratio">1</property>
  <property name="progressive">1</property>
  <property name="seekable">1</property>
  <property name="meta.media.width">1920</property>
  <property name="meta.media.height">1080</property>
  <property name="mlt_service">qimage</property>
  <property name="kdenlive:clipname"/>
  <property name="kdenlive:duration">00:00:05.000</property>
  <property name="kdenlive:folderid">95</property>
  <property name="kdenlive:clip_type">2</property>
  <property name="kdenlive:id">344</property>
  <property name="kdenlive:file_size">8193</property>
  <property name="kdenlive:file_hash">051846c67015dbeb5a9cc536c81d89f8</property>
 </producer>
 <producer id="producer340" in="00:00:00.000" out="00:00:04.960">
  <property name="length">00:00:05.000</property>
  <property name="eof">pause</property>
  <property name="resource">/home/liquidzulu/Documents/youtube-scripts/courses/libertarian-ethics/capsaicin/pseudo/homesteading-and-property-rights.pseudo.srt-images/44.png</property>
  <property name="ttl">25</property>
  <property name="aspect_ratio">1</property>
  <property name="progressive">1</property>
  <property name="seekable">1</property>
  <property name="meta.media.width">1920</property>
  <property name="meta.media.height">1080</property>
  <property name="mlt_service">qimage</property>
  <property name="kdenlive:clipname"/>
  <property name="kdenlive:duration">00:00:05.000</property>
  <property name="kdenlive:folderid">95</property>
  <property name="kdenlive:clip_type">2</property>
  <property name="kdenlive:id">345</property>
  <property name="kdenlive:file_size">8960</property>
  <property name="kdenlive:file_hash">bc3ba1b593665229d5fc95ed3d0bf99b</property>
 </producer>
 <producer id="producer342" in="00:00:00.000" out="00:00:05.240">
  <property name="length">132</property>
  <property name="eof">pause</property>
  <property name="resource">/home/liquidzulu/Documents/youtube-scripts/courses/libertarian-ethics/capsaicin/pseudo/homesteading-and-property-rights.pseudo.srt-images/45.png</property>
  <property name="ttl">25</property>
  <property name="aspect_ratio">1</property>
  <property name="progressive">1</property>
  <property name="seekable">1</property>
  <property name="meta.media.width">1920</property>
  <property name="meta.media.height">1080</property>
  <property name="mlt_service">qimage</property>
  <property name="kdenlive:clipname"/>
  <property name="kdenlive:duration">00:00:05.000</property>
  <property name="kdenlive:folderid">95</property>
  <property name="kdenlive:clip_type">2</property>
  <property name="kdenlive:id">346</property>
  <property name="kdenlive:file_size">9760</property>
  <property name="kdenlive:file_hash">5006d6131fdb965c6705174ada8e912e</property>
 </producer>
 <producer id="producer343" in="00:00:00.000" out="00:00:04.960">
  <property name="length">00:00:05.000</property>
  <property name="eof">pause</property>
  <property name="resource">/home/liquidzulu/Documents/youtube-scripts/courses/libertarian-ethics/capsaicin/pseudo/homesteading-and-property-rights.pseudo.srt-images/46.png</property>
  <property name="ttl">25</property>
  <property name="aspect_ratio">1</property>
  <property name="progressive">1</property>
  <property name="seekable">1</property>
  <property name="meta.media.width">1920</property>
  <property name="meta.media.height">1080</property>
  <property name="mlt_service">qimage</property>
  <property name="kdenlive:clipname"/>
  <property name="kdenlive:duration">00:00:05.000</property>
  <property name="kdenlive:folderid">95</property>
  <property name="kdenlive:clip_type">2</property>
  <property name="kdenlive:id">347</property>
  <property name="kdenlive:file_size">9426</property>
  <property name="kdenlive:file_hash">e41d5a388159ae0d6cd915d05b1fc057</property>
 </producer>
 <producer id="producer344" in="00:00:00.000" out="00:00:04.960">
  <property name="length">00:00:05.000</property>
  <property name="eof">pause</property>
  <property name="resource">/home/liquidzulu/Documents/youtube-scripts/courses/libertarian-ethics/capsaicin/pseudo/homesteading-and-property-rights.pseudo.srt-images/47.png</property>
  <property name="ttl">25</property>
  <property name="aspect_ratio">1</property>
  <property name="progressive">1</property>
  <property name="seekable">1</property>
  <property name="meta.media.width">1920</property>
  <property name="meta.media.height">1080</property>
  <property name="mlt_service">qimage</property>
  <property name="kdenlive:clipname"/>
  <property name="kdenlive:duration">00:00:05.000</property>
  <property name="kdenlive:folderid">95</property>
  <property name="kdenlive:clip_type">2</property>
  <property name="kdenlive:id">348</property>
  <property name="kdenlive:file_size">9046</property>
  <property name="kdenlive:file_hash">0bca01a0b5e6939e8866069cef4bfdd6</property>
 </producer>
 <producer id="producer345" in="00:00:00.000" out="00:00:04.960">
  <property name="length">00:00:05.000</property>
  <property name="eof">pause</property>
  <property name="resource">/home/liquidzulu/Documents/youtube-scripts/courses/libertarian-ethics/capsaicin/pseudo/homesteading-and-property-rights.pseudo.srt-images/48.png</property>
  <property name="ttl">25</property>
  <property name="aspect_ratio">1</property>
  <property name="progressive">1</property>
  <property name="seekable">1</property>
  <property name="meta.media.width">1920</property>
  <property name="meta.media.height">1080</property>
  <property name="mlt_service">qimage</property>
  <property name="kdenlive:clipname"/>
  <property name="kdenlive:duration">00:00:05.000</property>
  <property name="kdenlive:folderid">95</property>
  <property name="kdenlive:clip_type">2</property>
  <property name="kdenlive:id">349</property>
  <property name="kdenlive:file_size">8380</property>
  <property name="kdenlive:file_hash">4f547cae5f9cd9d5515870525144c68a</property>
 </producer>
 <producer id="producer346" in="00:00:00.000" out="00:00:04.960">
  <property name="length">00:00:05.000</property>
  <property name="eof">pause</property>
  <property name="resource">/home/liquidzulu/Documents/youtube-scripts/courses/libertarian-ethics/capsaicin/pseudo/homesteading-and-property-rights.pseudo.srt-images/49.png</property>
  <property name="ttl">25</property>
  <property name="aspect_ratio">1</property>
  <property name="progressive">1</property>
  <property name="seekable">1</property>
  <property name="meta.media.width">1920</property>
  <property name="meta.media.height">1080</property>
  <property name="mlt_service">qimage</property>
  <property name="kdenlive:clipname"/>
  <property name="kdenlive:duration">00:00:05.000</property>
  <property name="kdenlive:folderid">95</property>
  <property name="kdenlive:clip_type">2</property>
  <property name="kdenlive:id">350</property>
  <property name="kdenlive:file_size">9223</property>
  <property name="kdenlive:file_hash">c7fc4d2b3ef916b87cca92f3e83b916e</property>
 </producer>
 <producer id="producer347" in="00:00:00.000" out="00:00:04.960">
  <property name="length">00:00:05.000</property>
  <property name="eof">pause</property>
  <property name="resource">/home/liquidzulu/Documents/youtube-scripts/courses/libertarian-ethics/capsaicin/pseudo/homesteading-and-property-rights.pseudo.srt-images/50.png</property>
  <property name="ttl">25</property>
  <property name="aspect_ratio">1</property>
  <property name="progressive">1</property>
  <property name="seekable">1</property>
  <property name="meta.media.width">1920</property>
  <property name="meta.media.height">1080</property>
  <property name="mlt_service">qimage</property>
  <property name="kdenlive:clipname"/>
  <property name="kdenlive:duration">00:00:05.000</property>
  <property name="kdenlive:folderid">95</property>
  <property name="kdenlive:clip_type">2</property>
  <property name="kdenlive:id">351</property>
  <property name="kdenlive:file_size">9372</property>
  <property name="kdenlive:file_hash">a713e153e7a51ff44bb6932245e20b21</property>
 </producer>
 <producer id="producer348" in="00:00:00.000" out="00:00:04.960">
  <property name="length">00:00:05.000</property>
  <property name="eof">pause</property>
  <property name="resource">/home/liquidzulu/Documents/youtube-scripts/courses/libertarian-ethics/capsaicin/pseudo/homesteading-and-property-rights.pseudo.srt-images/51.png</property>
  <property name="ttl">25</property>
  <property name="aspect_ratio">1</property>
  <property name="progressive">1</property>
  <property name="seekable">1</property>
  <property name="meta.media.width">1920</property>
  <property name="meta.media.height">1080</property>
  <property name="mlt_service">qimage</property>
  <property name="kdenlive:clipname"/>
  <property name="kdenlive:duration">00:00:05.000</property>
  <property name="kdenlive:folderid">95</property>
  <property name="kdenlive:clip_type">2</property>
  <property name="kdenlive:id">352</property>
  <property name="kdenlive:file_size">9325</property>
  <property name="kdenlive:file_hash">ffb988259e83b5ca1dd6bd139b9df659</property>
 </producer>
 <producer id="producer350" in="00:00:00.000" out="00:00:04.960">
  <property name="length">00:00:05.000</property>
  <property name="eof">pause</property>
  <property name="resource">/home/liquidzulu/Documents/youtube-scripts/courses/libertarian-ethics/capsaicin/pseudo/homesteading-and-property-rights.pseudo.srt-images/52.png</property>
  <property name="ttl">25</property>
  <property name="aspect_ratio">1</property>
  <property name="progressive">1</property>
  <property name="seekable">1</property>
  <property name="meta.media.width">1920</property>
  <property name="meta.media.height">1080</property>
  <property name="mlt_service">qimage</property>
  <property name="kdenlive:clipname"/>
  <property name="kdenlive:duration">00:00:05.000</property>
  <property name="kdenlive:folderid">95</property>
  <property name="kdenlive:clip_type">2</property>
  <property name="kdenlive:id">353</property>
  <property name="kdenlive:file_size">9392</property>
  <property name="kdenlive:file_hash">560273f9ab4bacb04c8d58ff88439dec</property>
 </producer>
 <producer id="producer349" in="00:00:00.000" out="00:00:04.960">
  <property name="length">00:00:05.000</property>
  <property name="eof">pause</property>
  <property name="resource">/home/liquidzulu/Documents/youtube-scripts/courses/libertarian-ethics/capsaicin/pseudo/homesteading-and-property-rights.pseudo.srt-images/53.png</property>
  <property name="ttl">25</property>
  <property name="aspect_ratio">1</property>
  <property name="progressive">1</property>
  <property name="seekable">1</property>
  <property name="meta.media.width">1920</property>
  <property name="meta.media.height">1080</property>
  <property name="mlt_service">qimage</property>
  <property name="kdenlive:clipname"/>
  <property name="kdenlive:duration">00:00:05.000</property>
  <property name="kdenlive:folderid">95</property>
  <property name="kdenlive:clip_type">2</property>
  <property name="kdenlive:id">354</property>
  <property name="kdenlive:file_size">9189</property>
  <property name="kdenlive:file_hash">a7d0b1612b9729422db01001cc5a6ec0</property>
 </producer>
 <producer id="producer351" in="00:00:00.000" out="00:00:04.960">
  <property name="length">00:00:05.000</property>
  <property name="eof">pause</property>
  <property name="resource">/home/liquidzulu/Documents/youtube-scripts/courses/libertarian-ethics/capsaicin/pseudo/homesteading-and-property-rights.pseudo.srt-images/54.png</property>
  <property name="ttl">25</property>
  <property name="aspect_ratio">1</property>
  <property name="progressive">1</property>
  <property name="seekable">1</property>
  <property name="meta.media.width">1920</property>
  <property name="meta.media.height">1080</property>
  <property name="mlt_service">qimage</property>
  <property name="kdenlive:clipname"/>
  <property name="kdenlive:duration">00:00:05.000</property>
  <property name="kdenlive:folderid">95</property>
  <property name="kdenlive:clip_type">2</property>
  <property name="kdenlive:id">355</property>
  <property name="kdenlive:file_size">9229</property>
  <property name="kdenlive:file_hash">9a2bb68c1b099f291f400996ef48c907</property>
 </producer>
 <producer id="producer352" in="00:00:00.000" out="00:00:04.960">
  <property name="length">00:00:05.000</property>
  <property name="eof">pause</property>
  <property name="resource">/home/liquidzulu/Documents/youtube-scripts/courses/libertarian-ethics/capsaicin/pseudo/homesteading-and-property-rights.pseudo.srt-images/55.png</property>
  <property name="ttl">25</property>
  <property name="aspect_ratio">1</property>
  <property name="progressive">1</property>
  <property name="seekable">1</property>
  <property name="meta.media.width">1920</property>
  <property name="meta.media.height">1080</property>
  <property name="mlt_service">qimage</property>
  <property name="kdenlive:clipname"/>
  <property name="kdenlive:duration">00:00:05.000</property>
  <property name="kdenlive:folderid">95</property>
  <property name="kdenlive:clip_type">2</property>
  <property name="kdenlive:id">356</property>
  <property name="kdenlive:file_size">8755</property>
  <property name="kdenlive:file_hash">df12f51e8e8966cf1e45eca1532d4f33</property>
 </producer>
 <producer id="producer353" in="00:00:00.000" out="00:00:04.960">
  <property name="length">00:00:05.000</property>
  <property name="eof">pause</property>
  <property name="resource">/home/liquidzulu/Documents/youtube-scripts/courses/libertarian-ethics/capsaicin/pseudo/homesteading-and-property-rights.pseudo.srt-images/56.png</property>
  <property name="ttl">25</property>
  <property name="aspect_ratio">1</property>
  <property name="progressive">1</property>
  <property name="seekable">1</property>
  <property name="meta.media.width">1920</property>
  <property name="meta.media.height">1080</property>
  <property name="mlt_service">qimage</property>
  <property name="kdenlive:clipname"/>
  <property name="kdenlive:duration">00:00:05.000</property>
  <property name="kdenlive:folderid">95</property>
  <property name="kdenlive:clip_type">2</property>
  <property name="kdenlive:id">357</property>
  <property name="kdenlive:file_size">9481</property>
  <property name="kdenlive:file_hash">f7e9b40da73c0676b2d991552b69569e</property>
 </producer>
 <producer id="producer354" in="00:00:00.000" out="00:00:04.960">
  <property name="length">00:00:05.000</property>
  <property name="eof">pause</property>
  <property name="resource">/home/liquidzulu/Documents/youtube-scripts/courses/libertarian-ethics/capsaicin/pseudo/homesteading-and-property-rights.pseudo.srt-images/57.png</property>
  <property name="ttl">25</property>
  <property name="aspect_ratio">1</property>
  <property name="progressive">1</property>
  <property name="seekable">1</property>
  <property name="meta.media.width">1920</property>
  <property name="meta.media.height">1080</property>
  <property name="mlt_service">qimage</property>
  <property name="kdenlive:clipname"/>
  <property name="kdenlive:duration">00:00:05.000</property>
  <property name="kdenlive:folderid">95</property>
  <property name="kdenlive:clip_type">2</property>
  <property name="kdenlive:id">358</property>
  <property name="kdenlive:file_size">9192</property>
  <property name="kdenlive:file_hash">f3dd8c92667ea933433850bd7307b54b</property>
 </producer>
 <producer id="producer355" in="00:00:00.000" out="00:00:04.960">
  <property name="length">00:00:05.000</property>
  <property name="eof">pause</property>
  <property name="resource">/home/liquidzulu/Documents/youtube-scripts/courses/libertarian-ethics/capsaicin/pseudo/homesteading-and-property-rights.pseudo.srt-images/58.png</property>
  <property name="ttl">25</property>
  <property name="aspect_ratio">1</property>
  <property name="progressive">1</property>
  <property name="seekable">1</property>
  <property name="meta.media.width">1920</property>
  <property name="meta.media.height">1080</property>
  <property name="mlt_service">qimage</property>
  <property name="kdenlive:clipname"/>
  <property name="kdenlive:duration">00:00:05.000</property>
  <property name="kdenlive:folderid">95</property>
  <property name="kdenlive:clip_type">2</property>
  <property name="kdenlive:id">359</property>
  <property name="kdenlive:file_size">9166</property>
  <property name="kdenlive:file_hash">1a84adc1c93891a99324027f441bea58</property>
 </producer>
 <producer id="producer356" in="00:00:00.000" out="00:00:04.960">
  <property name="length">00:00:05.000</property>
  <property name="eof">pause</property>
  <property name="resource">/home/liquidzulu/Documents/youtube-scripts/courses/libertarian-ethics/capsaicin/pseudo/homesteading-and-property-rights.pseudo.srt-images/59.png</property>
  <property name="ttl">25</property>
  <property name="aspect_ratio">1</property>
  <property name="progressive">1</property>
  <property name="seekable">1</property>
  <property name="meta.media.width">1920</property>
  <property name="meta.media.height">1080</property>
  <property name="mlt_service">qimage</property>
  <property name="kdenlive:clipname"/>
  <property name="kdenlive:duration">00:00:05.000</property>
  <property name="kdenlive:folderid">95</property>
  <property name="kdenlive:clip_type">2</property>
  <property name="kdenlive:id">360</property>
  <property name="kdenlive:file_size">9424</property>
  <property name="kdenlive:file_hash">d089e2fc3f9a0d81e056e7b2222d7944</property>
 </producer>
 <producer id="producer358" in="00:00:00.000" out="00:00:04.960">
  <property name="length">00:00:05.000</property>
  <property name="eof">pause</property>
  <property name="resource">/home/liquidzulu/Documents/youtube-scripts/courses/libertarian-ethics/capsaicin/pseudo/homesteading-and-property-rights.pseudo.srt-images/60.png</property>
  <property name="ttl">25</property>
  <property name="aspect_ratio">1</property>
  <property name="progressive">1</property>
  <property name="seekable">1</property>
  <property name="meta.media.width">1920</property>
  <property name="meta.media.height">1080</property>
  <property name="mlt_service">qimage</property>
  <property name="kdenlive:clipname"/>
  <property name="kdenlive:duration">00:00:05.000</property>
  <property name="kdenlive:folderid">95</property>
  <property name="kdenlive:clip_type">2</property>
  <property name="kdenlive:id">361</property>
  <property name="kdenlive:file_size">9071</property>
  <property name="kdenlive:file_hash">966383ac2855ea727f1d35f0f52518f7</property>
 </producer>
 <producer id="producer357" in="00:00:00.000" out="00:00:04.960">
  <property name="length">00:00:05.000</property>
  <property name="eof">pause</property>
  <property name="resource">/home/liquidzulu/Documents/youtube-scripts/courses/libertarian-ethics/capsaicin/pseudo/homesteading-and-property-rights.pseudo.srt-images/61.png</property>
  <property name="ttl">25</property>
  <property name="aspect_ratio">1</property>
  <property name="progressive">1</property>
  <property name="seekable">1</property>
  <property name="meta.media.width">1920</property>
  <property name="meta.media.height">1080</property>
  <property name="mlt_service">qimage</property>
  <property name="kdenlive:clipname"/>
  <property name="kdenlive:duration">00:00:05.000</property>
  <property name="kdenlive:folderid">95</property>
  <property name="kdenlive:clip_type">2</property>
  <property name="kdenlive:id">362</property>
  <property name="kdenlive:file_size">9151</property>
  <property name="kdenlive:file_hash">9842da927a8e08bb4c3d373109a05884</property>
 </producer>
 <producer id="producer359" in="00:00:00.000" out="00:00:04.960">
  <property name="length">00:00:05.000</property>
  <property name="eof">pause</property>
  <property name="resource">/home/liquidzulu/Documents/youtube-scripts/courses/libertarian-ethics/capsaicin/pseudo/homesteading-and-property-rights.pseudo.srt-images/7.png</property>
  <property name="ttl">25</property>
  <property name="aspect_ratio">1</property>
  <property name="progressive">1</property>
  <property name="seekable">1</property>
  <property name="meta.media.width">1920</property>
  <property name="meta.media.height">1080</property>
  <property name="mlt_service">qimage</property>
  <property name="kdenlive:clipname"/>
  <property name="kdenlive:duration">00:00:05.000</property>
  <property name="kdenlive:folderid">95</property>
  <property name="kdenlive:clip_type">2</property>
  <property name="kdenlive:id">363</property>
  <property name="kdenlive:file_size">9112</property>
  <property name="kdenlive:file_hash">7b792aa9ce48aa6e85fb7c7b8704e5e8</property>
 </producer>
 <producer id="producer362" in="00:00:00.000" out="00:00:04.960">
  <property name="length">00:00:05.000</property>
  <property name="eof">pause</property>
  <property name="resource">/home/liquidzulu/Documents/youtube-scripts/courses/libertarian-ethics/capsaicin/pseudo/homesteading-and-property-rights.pseudo.srt-images/72.png</property>
  <property name="ttl">25</property>
  <property name="aspect_ratio">1</property>
  <property name="progressive">1</property>
  <property name="seekable">1</property>
  <property name="meta.media.width">1920</property>
  <property name="meta.media.height">1080</property>
  <property name="mlt_service">qimage</property>
  <property name="kdenlive:clipname"/>
  <property name="kdenlive:duration">00:00:05.000</property>
  <property name="kdenlive:folderid">95</property>
  <property name="kdenlive:clip_type">2</property>
  <property name="kdenlive:id">364</property>
  <property name="kdenlive:file_size">8130</property>
  <property name="kdenlive:file_hash">b3e04a75ba74d212afda6847a31004b2</property>
 </producer>
 <producer id="producer360" in="00:00:00.000" out="00:00:04.960">
  <property name="length">00:00:05.000</property>
  <property name="eof">pause</property>
  <property name="resource">/home/liquidzulu/Documents/youtube-scripts/courses/libertarian-ethics/capsaicin/pseudo/homesteading-and-property-rights.pseudo.srt-images/73.png</property>
  <property name="ttl">25</property>
  <property name="aspect_ratio">1</property>
  <property name="progressive">1</property>
  <property name="seekable">1</property>
  <property name="meta.media.width">1920</property>
  <property name="meta.media.height">1080</property>
  <property name="mlt_service">qimage</property>
  <property name="kdenlive:clipname"/>
  <property name="kdenlive:duration">00:00:05.000</property>
  <property name="kdenlive:folderid">95</property>
  <property name="kdenlive:clip_type">2</property>
  <property name="kdenlive:id">365</property>
  <property name="kdenlive:file_size">9328</property>
  <property name="kdenlive:file_hash">346cc3a64e92e5f2a53fd2dec2d0d511</property>
 </producer>
 <producer id="producer361" in="00:00:00.000" out="00:00:04.960">
  <property name="length">00:00:05.000</property>
  <property name="eof">pause</property>
  <property name="resource">/home/liquidzulu/Documents/youtube-scripts/courses/libertarian-ethics/capsaicin/pseudo/homesteading-and-property-rights.pseudo.srt-images/74.png</property>
  <property name="ttl">25</property>
  <property name="aspect_ratio">1</property>
  <property name="progressive">1</property>
  <property name="seekable">1</property>
  <property name="meta.media.width">1920</property>
  <property name="meta.media.height">1080</property>
  <property name="mlt_service">qimage</property>
  <property name="kdenlive:clipname"/>
  <property name="kdenlive:duration">00:00:05.000</property>
  <property name="kdenlive:folderid">95</property>
  <property name="kdenlive:clip_type">2</property>
  <property name="kdenlive:id">366</property>
  <property name="kdenlive:file_size">8617</property>
  <property name="kdenlive:file_hash">b17470d3d4f9fa5967f97ed6041a360d</property>
 </producer>
 <producer id="producer363" in="00:00:00.000" out="00:00:04.960">
  <property name="length">00:00:05.000</property>
  <property name="eof">pause</property>
  <property name="resource">/home/liquidzulu/Documents/youtube-scripts/courses/libertarian-ethics/capsaicin/pseudo/homesteading-and-property-rights.pseudo.srt-images/75.png</property>
  <property name="ttl">25</property>
  <property name="aspect_ratio">1</property>
  <property name="progressive">1</property>
  <property name="seekable">1</property>
  <property name="meta.media.width">1920</property>
  <property name="meta.media.height">1080</property>
  <property name="mlt_service">qimage</property>
  <property name="kdenlive:clipname"/>
  <property name="kdenlive:duration">00:00:05.000</property>
  <property name="kdenlive:folderid">95</property>
  <property name="kdenlive:clip_type">2</property>
  <property name="kdenlive:id">367</property>
  <property name="kdenlive:file_size">9519</property>
  <property name="kdenlive:file_hash">62ec03ff80627473e869d6a94121854a</property>
 </producer>
 <producer id="producer365" in="00:00:00.000" out="00:00:04.960">
  <property name="length">00:00:05.000</property>
  <property name="eof">pause</property>
  <property name="resource">/home/liquidzulu/Documents/youtube-scripts/courses/libertarian-ethics/capsaicin/pseudo/homesteading-and-property-rights.pseudo.srt-images/76.png</property>
  <property name="ttl">25</property>
  <property name="aspect_ratio">1</property>
  <property name="progressive">1</property>
  <property name="seekable">1</property>
  <property name="meta.media.width">1920</property>
  <property name="meta.media.height">1080</property>
  <property name="mlt_service">qimage</property>
  <property name="kdenlive:clipname"/>
  <property name="kdenlive:duration">00:00:05.000</property>
  <property name="kdenlive:folderid">95</property>
  <property name="kdenlive:clip_type">2</property>
  <property name="kdenlive:id">368</property>
  <property name="kdenlive:file_size">8337</property>
  <property name="kdenlive:file_hash">e59f0c6e1ab938093d955c79563f2cac</property>
 </producer>
 <producer id="producer364" in="00:00:00.000" out="00:00:04.960">
  <property name="length">00:00:05.000</property>
  <property name="eof">pause</property>
  <property name="resource">/home/liquidzulu/Documents/youtube-scripts/courses/libertarian-ethics/capsaicin/pseudo/homesteading-and-property-rights.pseudo.srt-images/77.png</property>
  <property name="ttl">25</property>
  <property name="aspect_ratio">1</property>
  <property name="progressive">1</property>
  <property name="seekable">1</property>
  <property name="meta.media.width">1920</property>
  <property name="meta.media.height">1080</property>
  <property name="mlt_service">qimage</property>
  <property name="kdenlive:clipname"/>
  <property name="kdenlive:duration">00:00:05.000</property>
  <property name="kdenlive:folderid">95</property>
  <property name="kdenlive:clip_type">2</property>
  <property name="kdenlive:id">369</property>
  <property name="kdenlive:file_size">9125</property>
  <property name="kdenlive:file_hash">15545377dbba7719e27fdfaac45dbfe0</property>
 </producer>
 <producer id="producer366" in="00:00:00.000" out="00:00:04.960">
  <property name="length">00:00:05.000</property>
  <property name="eof">pause</property>
  <property name="resource">/home/liquidzulu/Documents/youtube-scripts/courses/libertarian-ethics/capsaicin/pseudo/homesteading-and-property-rights.pseudo.srt-images/78.png</property>
  <property name="ttl">25</property>
  <property name="aspect_ratio">1</property>
  <property name="progressive">1</property>
  <property name="seekable">1</property>
  <property name="meta.media.width">1920</property>
  <property name="meta.media.height">1080</property>
  <property name="mlt_service">qimage</property>
  <property name="kdenlive:clipname"/>
  <property name="kdenlive:duration">00:00:05.000</property>
  <property name="kdenlive:folderid">95</property>
  <property name="kdenlive:clip_type">2</property>
  <property name="kdenlive:id">370</property>
  <property name="kdenlive:file_size">8965</property>
  <property name="kdenlive:file_hash">e69322c315de74c1682c0c4fabc60447</property>
 </producer>
 <producer id="producer367" in="00:00:00.000" out="00:00:04.960">
  <property name="length">00:00:05.000</property>
  <property name="eof">pause</property>
  <property name="resource">/home/liquidzulu/Documents/youtube-scripts/courses/libertarian-ethics/capsaicin/pseudo/homesteading-and-property-rights.pseudo.srt-images/79.png</property>
  <property name="ttl">25</property>
  <property name="aspect_ratio">1</property>
  <property name="progressive">1</property>
  <property name="seekable">1</property>
  <property name="meta.media.width">1920</property>
  <property name="meta.media.height">1080</property>
  <property name="mlt_service">qimage</property>
  <property name="kdenlive:clipname"/>
  <property name="kdenlive:duration">00:00:05.000</property>
  <property name="kdenlive:folderid">95</property>
  <property name="kdenlive:clip_type">2</property>
  <property name="kdenlive:id">371</property>
  <property name="kdenlive:file_size">8660</property>
  <property name="kdenlive:file_hash">988a6e6c72669394d2d06ca41eb4f962</property>
 </producer>
 <producer id="producer369" in="00:00:00.000" out="00:00:04.960">
  <property name="length">00:00:05.000</property>
  <property name="eof">pause</property>
  <property name="resource">/home/liquidzulu/Documents/youtube-scripts/courses/libertarian-ethics/capsaicin/pseudo/homesteading-and-property-rights.pseudo.srt-images/8.png</property>
  <property name="ttl">25</property>
  <property name="aspect_ratio">1</property>
  <property name="progressive">1</property>
  <property name="seekable">1</property>
  <property name="meta.media.width">1920</property>
  <property name="meta.media.height">1080</property>
  <property name="mlt_service">qimage</property>
  <property name="kdenlive:clipname"/>
  <property name="kdenlive:duration">00:00:05.000</property>
  <property name="kdenlive:folderid">95</property>
  <property name="kdenlive:clip_type">2</property>
  <property name="kdenlive:id">372</property>
  <property name="kdenlive:file_size">9367</property>
  <property name="kdenlive:file_hash">52edcab0673586a62c7ef38c8e112fe9</property>
 </producer>
 <producer id="producer368" in="00:00:00.000" out="00:00:04.960">
  <property name="length">00:00:05.000</property>
  <property name="eof">pause</property>
  <property name="resource">/home/liquidzulu/Documents/youtube-scripts/courses/libertarian-ethics/capsaicin/pseudo/homesteading-and-property-rights.pseudo.srt-images/80.png</property>
  <property name="ttl">25</property>
  <property name="aspect_ratio">1</property>
  <property name="progressive">1</property>
  <property name="seekable">1</property>
  <property name="meta.media.width">1920</property>
  <property name="meta.media.height">1080</property>
  <property name="mlt_service">qimage</property>
  <property name="kdenlive:clipname"/>
  <property name="kdenlive:duration">00:00:05.000</property>
  <property name="kdenlive:folderid">95</property>
  <property name="kdenlive:clip_type">2</property>
  <property name="kdenlive:id">373</property>
  <property name="kdenlive:file_size">8486</property>
  <property name="kdenlive:file_hash">21784580a95e676723fbe977390b64a8</property>
 </producer>
 <producer id="producer370" in="00:00:00.000" out="00:00:04.960">
  <property name="length">00:00:05.000</property>
  <property name="eof">pause</property>
  <property name="resource">/home/liquidzulu/Documents/youtube-scripts/courses/libertarian-ethics/capsaicin/pseudo/homesteading-and-property-rights.pseudo.srt-images/81.png</property>
  <property name="ttl">25</property>
  <property name="aspect_ratio">1</property>
  <property name="progressive">1</property>
  <property name="seekable">1</property>
  <property name="meta.media.width">1920</property>
  <property name="meta.media.height">1080</property>
  <property name="mlt_service">qimage</property>
  <property name="kdenlive:clipname"/>
  <property name="kdenlive:duration">00:00:05.000</property>
  <property name="kdenlive:folderid">95</property>
  <property name="kdenlive:clip_type">2</property>
  <property name="kdenlive:id">374</property>
  <property name="kdenlive:file_size">9328</property>
  <property name="kdenlive:file_hash">225565cf1bc558bbcbedc528681e2402</property>
 </producer>
 <producer id="producer372" in="00:00:00.000" out="00:00:04.960">
  <property name="length">00:00:05.000</property>
  <property name="eof">pause</property>
  <property name="resource">/home/liquidzulu/Documents/youtube-scripts/courses/libertarian-ethics/capsaicin/pseudo/homesteading-and-property-rights.pseudo.srt-images/82.png</property>
  <property name="ttl">25</property>
  <property name="aspect_ratio">1</property>
  <property name="progressive">1</property>
  <property name="seekable">1</property>
  <property name="meta.media.width">1920</property>
  <property name="meta.media.height">1080</property>
  <property name="mlt_service">qimage</property>
  <property name="kdenlive:clipname"/>
  <property name="kdenlive:duration">00:00:05.000</property>
  <property name="kdenlive:folderid">95</property>
  <property name="kdenlive:clip_type">2</property>
  <property name="kdenlive:id">375</property>
  <property name="kdenlive:file_size">8216</property>
  <property name="kdenlive:file_hash">26d7f5044005809b508c104ff74bba74</property>
 </producer>
 <producer id="producer371" in="00:00:00.000" out="00:00:04.960">
  <property name="length">00:00:05.000</property>
  <property name="eof">pause</property>
  <property name="resource">/home/liquidzulu/Documents/youtube-scripts/courses/libertarian-ethics/capsaicin/pseudo/homesteading-and-property-rights.pseudo.srt-images/83.png</property>
  <property name="ttl">25</property>
  <property name="aspect_ratio">1</property>
  <property name="progressive">1</property>
  <property name="seekable">1</property>
  <property name="meta.media.width">1920</property>
  <property name="meta.media.height">1080</property>
  <property name="mlt_service">qimage</property>
  <property name="kdenlive:clipname"/>
  <property name="kdenlive:duration">00:00:05.000</property>
  <property name="kdenlive:folderid">95</property>
  <property name="kdenlive:clip_type">2</property>
  <property name="kdenlive:id">376</property>
  <property name="kdenlive:file_size">9419</property>
  <property name="kdenlive:file_hash">55252cc81da2091b46f984fb71a454aa</property>
 </producer>
 <producer id="producer373" in="00:00:00.000" out="00:00:04.960">
  <property name="length">00:00:05.000</property>
  <property name="eof">pause</property>
  <property name="resource">/home/liquidzulu/Documents/youtube-scripts/courses/libertarian-ethics/capsaicin/pseudo/homesteading-and-property-rights.pseudo.srt-images/84.png</property>
  <property name="ttl">25</property>
  <property name="aspect_ratio">1</property>
  <property name="progressive">1</property>
  <property name="seekable">1</property>
  <property name="meta.media.width">1920</property>
  <property name="meta.media.height">1080</property>
  <property name="mlt_service">qimage</property>
  <property name="kdenlive:clipname"/>
  <property name="kdenlive:duration">00:00:05.000</property>
  <property name="kdenlive:folderid">95</property>
  <property name="kdenlive:clip_type">2</property>
  <property name="kdenlive:id">377</property>
  <property name="kdenlive:file_size">8547</property>
  <property name="kdenlive:file_hash">534af7402090fcda75f13873c9c63788</property>
 </producer>
 <producer id="producer374" in="00:00:00.000" out="00:00:04.960">
  <property name="length">00:00:05.000</property>
  <property name="eof">pause</property>
  <property name="resource">/home/liquidzulu/Documents/youtube-scripts/courses/libertarian-ethics/capsaicin/pseudo/homesteading-and-property-rights.pseudo.srt-images/85.png</property>
  <property name="ttl">25</property>
  <property name="aspect_ratio">1</property>
  <property name="progressive">1</property>
  <property name="seekable">1</property>
  <property name="meta.media.width">1920</property>
  <property name="meta.media.height">1080</property>
  <property name="mlt_service">qimage</property>
  <property name="kdenlive:clipname"/>
  <property name="kdenlive:duration">00:00:05.000</property>
  <property name="kdenlive:folderid">95</property>
  <property name="kdenlive:clip_type">2</property>
  <property name="kdenlive:id">378</property>
  <property name="kdenlive:file_size">8705</property>
  <property name="kdenlive:file_hash">f82ee7ffde76abecb2af8d503bba5649</property>
 </producer>
 <producer id="producer375" in="00:00:00.000" out="00:00:04.960">
  <property name="length">00:00:05.000</property>
  <property name="eof">pause</property>
  <property name="resource">/home/liquidzulu/Documents/youtube-scripts/courses/libertarian-ethics/capsaicin/pseudo/homesteading-and-property-rights.pseudo.srt-images/86.png</property>
  <property name="ttl">25</property>
  <property name="aspect_ratio">1</property>
  <property name="progressive">1</property>
  <property name="seekable">1</property>
  <property name="meta.media.width">1920</property>
  <property name="meta.media.height">1080</property>
  <property name="mlt_service">qimage</property>
  <property name="kdenlive:clipname"/>
  <property name="kdenlive:duration">00:00:05.000</property>
  <property name="kdenlive:folderid">95</property>
  <property name="kdenlive:clip_type">2</property>
  <property name="kdenlive:id">379</property>
  <property name="kdenlive:file_size">8691</property>
  <property name="kdenlive:file_hash">61677deb91506e5d14e8f92ddd64abbb</property>
 </producer>
 <producer id="producer377" in="00:00:00.000" out="00:00:04.960">
  <property name="length">00:00:05.000</property>
  <property name="eof">pause</property>
  <property name="resource">/home/liquidzulu/Documents/youtube-scripts/courses/libertarian-ethics/capsaicin/pseudo/homesteading-and-property-rights.pseudo.srt-images/87.png</property>
  <property name="ttl">25</property>
  <property name="aspect_ratio">1</property>
  <property name="progressive">1</property>
  <property name="seekable">1</property>
  <property name="meta.media.width">1920</property>
  <property name="meta.media.height">1080</property>
  <property name="mlt_service">qimage</property>
  <property name="kdenlive:clipname"/>
  <property name="kdenlive:duration">00:00:05.000</property>
  <property name="kdenlive:folderid">95</property>
  <property name="kdenlive:clip_type">2</property>
  <property name="kdenlive:id">380</property>
  <property name="kdenlive:file_size">9197</property>
  <property name="kdenlive:file_hash">4e3aea16ac07084f48987caa2cfdfa4a</property>
 </producer>
 <producer id="producer376" in="00:00:00.000" out="00:00:04.960">
  <property name="length">00:00:05.000</property>
  <property name="eof">pause</property>
  <property name="resource">/home/liquidzulu/Documents/youtube-scripts/courses/libertarian-ethics/capsaicin/pseudo/homesteading-and-property-rights.pseudo.srt-images/88.png</property>
  <property name="ttl">25</property>
  <property name="aspect_ratio">1</property>
  <property name="progressive">1</property>
  <property name="seekable">1</property>
  <property name="meta.media.width">1920</property>
  <property name="meta.media.height">1080</property>
  <property name="mlt_service">qimage</property>
  <property name="kdenlive:clipname"/>
  <property name="kdenlive:duration">00:00:05.000</property>
  <property name="kdenlive:folderid">95</property>
  <property name="kdenlive:clip_type">2</property>
  <property name="kdenlive:id">381</property>
  <property name="kdenlive:file_size">8677</property>
  <property name="kdenlive:file_hash">48d59120397c210ec0002b5f2090d83c</property>
 </producer>
 <producer id="producer378" in="00:00:00.000" out="00:00:04.960">
  <property name="length">00:00:05.000</property>
  <property name="eof">pause</property>
  <property name="resource">/home/liquidzulu/Documents/youtube-scripts/courses/libertarian-ethics/capsaicin/pseudo/homesteading-and-property-rights.pseudo.srt-images/89.png</property>
  <property name="ttl">25</property>
  <property name="aspect_ratio">1</property>
  <property name="progressive">1</property>
  <property name="seekable">1</property>
  <property name="meta.media.width">1920</property>
  <property name="meta.media.height">1080</property>
  <property name="mlt_service">qimage</property>
  <property name="kdenlive:clipname"/>
  <property name="kdenlive:duration">00:00:05.000</property>
  <property name="kdenlive:folderid">95</property>
  <property name="kdenlive:clip_type">2</property>
  <property name="kdenlive:id">382</property>
  <property name="kdenlive:file_size">8707</property>
  <property name="kdenlive:file_hash">2963af025b3a9f2bfd52243bd884b232</property>
 </producer>
 <producer id="producer379" in="00:00:00.000" out="00:00:05.240">
  <property name="length">132</property>
  <property name="eof">pause</property>
  <property name="resource">/home/liquidzulu/Documents/youtube-scripts/courses/libertarian-ethics/capsaicin/pseudo/homesteading-and-property-rights.pseudo.srt-images/9.png</property>
  <property name="ttl">25</property>
  <property name="aspect_ratio">1</property>
  <property name="progressive">1</property>
  <property name="seekable">1</property>
  <property name="meta.media.width">1920</property>
  <property name="meta.media.height">1080</property>
  <property name="mlt_service">qimage</property>
  <property name="kdenlive:clipname"/>
  <property name="kdenlive:duration">00:00:05.000</property>
  <property name="kdenlive:folderid">95</property>
  <property name="kdenlive:clip_type">2</property>
  <property name="kdenlive:id">383</property>
  <property name="kdenlive:file_size">9095</property>
  <property name="kdenlive:file_hash">a88d437b91d748b114e332853d6c45b1</property>
 </producer>
 <producer id="producer380" in="00:00:00.000" out="00:00:04.960">
  <property name="length">00:00:05.000</property>
  <property name="eof">pause</property>
  <property name="resource">/home/liquidzulu/Documents/youtube-scripts/courses/libertarian-ethics/capsaicin/pseudo/homesteading-and-property-rights.pseudo.srt-images/90.png</property>
  <property name="ttl">25</property>
  <property name="aspect_ratio">1</property>
  <property name="progressive">1</property>
  <property name="seekable">1</property>
  <property name="meta.media.width">1920</property>
  <property name="meta.media.height">1080</property>
  <property name="mlt_service">qimage</property>
  <property name="kdenlive:clipname"/>
  <property name="kdenlive:duration">00:00:05.000</property>
  <property name="kdenlive:folderid">95</property>
  <property name="kdenlive:clip_type">2</property>
  <property name="kdenlive:id">384</property>
  <property name="kdenlive:file_size">9386</property>
  <property name="kdenlive:file_hash">ec2362373e0cd7add98bbd7a0cd89743</property>
 </producer>
 <producer id="producer381" in="00:00:00.000" out="00:00:04.960">
  <property name="length">00:00:05.000</property>
  <property name="eof">pause</property>
  <property name="resource">/home/liquidzulu/Documents/youtube-scripts/courses/libertarian-ethics/capsaicin/pseudo/homesteading-and-property-rights.pseudo.srt-images/91.png</property>
  <property name="ttl">25</property>
  <property name="aspect_ratio">1</property>
  <property name="progressive">1</property>
  <property name="seekable">1</property>
  <property name="meta.media.width">1920</property>
  <property name="meta.media.height">1080</property>
  <property name="mlt_service">qimage</property>
  <property name="kdenlive:clipname"/>
  <property name="kdenlive:duration">00:00:05.000</property>
  <property name="kdenlive:folderid">95</property>
  <property name="kdenlive:clip_type">2</property>
  <property name="kdenlive:id">385</property>
  <property name="kdenlive:file_size">9243</property>
  <property name="kdenlive:file_hash">21fae46decb99c821426b83d7a3d8b88</property>
 </producer>
 <producer id="producer382" in="00:00:00.000" out="00:00:04.960">
  <property name="length">00:00:05.000</property>
  <property name="eof">pause</property>
  <property name="resource">/home/liquidzulu/Documents/youtube-scripts/courses/libertarian-ethics/capsaicin/pseudo/homesteading-and-property-rights.pseudo.srt-images/92.png</property>
  <property name="ttl">25</property>
  <property name="aspect_ratio">1</property>
  <property name="progressive">1</property>
  <property name="seekable">1</property>
  <property name="meta.media.width">1920</property>
  <property name="meta.media.height">1080</property>
  <property name="mlt_service">qimage</property>
  <property name="kdenlive:clipname"/>
  <property name="kdenlive:duration">00:00:05.000</property>
  <property name="kdenlive:folderid">95</property>
  <property name="kdenlive:clip_type">2</property>
  <property name="kdenlive:id">386</property>
  <property name="kdenlive:file_size">9133</property>
  <property name="kdenlive:file_hash">af8bb9174d2031229b47e74c9321f67a</property>
 </producer>
 <producer id="producer384" in="00:00:00.000" out="00:00:04.960">
  <property name="length">00:00:05.000</property>
  <property name="eof">pause</property>
  <property name="resource">/home/liquidzulu/Documents/youtube-scripts/courses/libertarian-ethics/capsaicin/pseudo/homesteading-and-property-rights.pseudo.srt-images/93.png</property>
  <property name="ttl">25</property>
  <property name="aspect_ratio">1</property>
  <property name="progressive">1</property>
  <property name="seekable">1</property>
  <property name="meta.media.width">1920</property>
  <property name="meta.media.height">1080</property>
  <property name="mlt_service">qimage</property>
  <property name="kdenlive:clipname"/>
  <property name="kdenlive:duration">00:00:05.000</property>
  <property name="kdenlive:folderid">95</property>
  <property name="kdenlive:clip_type">2</property>
  <property name="kdenlive:id">387</property>
  <property name="kdenlive:file_size">8866</property>
  <property name="kdenlive:file_hash">4b9065b580fa01708a587729afd72c7a</property>
 </producer>
 <producer id="producer383" in="00:00:00.000" out="00:00:05.960">
  <property name="length">150</property>
  <property name="eof">pause</property>
  <property name="resource">/home/liquidzulu/Documents/youtube-scripts/courses/libertarian-ethics/capsaicin/pseudo/homesteading-and-property-rights.pseudo.srt-images/94.png</property>
  <property name="ttl">25</property>
  <property name="aspect_ratio">1</property>
  <property name="progressive">1</property>
  <property name="seekable">1</property>
  <property name="meta.media.width">1920</property>
  <property name="meta.media.height">1080</property>
  <property name="mlt_service">qimage</property>
  <property name="kdenlive:clipname"/>
  <property name="kdenlive:duration">00:00:05.000</property>
  <property name="kdenlive:folderid">95</property>
  <property name="kdenlive:clip_type">2</property>
  <property name="kdenlive:id">388</property>
  <property name="kdenlive:file_size">9433</property>
  <property name="kdenlive:file_hash">65ea4a46c9732c58992b18a77797156b</property>
 </producer>
 <producer id="producer385" in="00:00:00.000" out="00:00:04.960">
  <property name="length">00:00:05.000</property>
  <property name="eof">pause</property>
  <property name="resource">/home/liquidzulu/Documents/youtube-scripts/courses/libertarian-ethics/capsaicin/pseudo/homesteading-and-property-rights.pseudo.srt-images/95.png</property>
  <property name="ttl">25</property>
  <property name="aspect_ratio">1</property>
  <property name="progressive">1</property>
  <property name="seekable">1</property>
  <property name="meta.media.width">1920</property>
  <property name="meta.media.height">1080</property>
  <property name="mlt_service">qimage</property>
  <property name="kdenlive:clipname"/>
  <property name="kdenlive:duration">00:00:05.000</property>
  <property name="kdenlive:folderid">95</property>
  <property name="kdenlive:clip_type">2</property>
  <property name="kdenlive:id">389</property>
  <property name="kdenlive:file_size">8771</property>
  <property name="kdenlive:file_hash">dfc2131b708455671834c1de83b4f417</property>
 </producer>
 <producer id="producer386" in="00:00:00.000" out="00:00:04.960">
  <property name="length">00:00:05.000</property>
  <property name="eof">pause</property>
  <property name="resource">/home/liquidzulu/Documents/youtube-scripts/courses/libertarian-ethics/capsaicin/pseudo/homesteading-and-property-rights.pseudo.srt-images/96.png</property>
  <property name="ttl">25</property>
  <property name="aspect_ratio">1</property>
  <property name="progressive">1</property>
  <property name="seekable">1</property>
  <property name="meta.media.width">1920</property>
  <property name="meta.media.height">1080</property>
  <property name="mlt_service">qimage</property>
  <property name="kdenlive:clipname"/>
  <property name="kdenlive:duration">00:00:05.000</property>
  <property name="kdenlive:folderid">95</property>
  <property name="kdenlive:clip_type">2</property>
  <property name="kdenlive:id">390</property>
  <property name="kdenlive:file_size">8967</property>
  <property name="kdenlive:file_hash">919b33560fa7be198c5bd13d136dc3f4</property>
 </producer>
 <producer id="producer387" in="00:00:00.000" out="00:00:04.960">
  <property name="length">00:00:05.000</property>
  <property name="eof">pause</property>
  <property name="resource">/home/liquidzulu/Documents/youtube-scripts/courses/libertarian-ethics/capsaicin/pseudo/homesteading-and-property-rights.pseudo.srt-images/97.png</property>
  <property name="ttl">25</property>
  <property name="aspect_ratio">1</property>
  <property name="progressive">1</property>
  <property name="seekable">1</property>
  <property name="meta.media.width">1920</property>
  <property name="meta.media.height">1080</property>
  <property name="mlt_service">qimage</property>
  <property name="kdenlive:clipname"/>
  <property name="kdenlive:duration">00:00:05.000</property>
  <property name="kdenlive:folderid">95</property>
  <property name="kdenlive:clip_type">2</property>
  <property name="kdenlive:id">391</property>
  <property name="kdenlive:file_size">9248</property>
  <property name="kdenlive:file_hash">223e85b882a41f1d06756813dc96a9b0</property>
 </producer>
 <producer id="producer389" in="00:00:00.000" out="00:00:04.960">
  <property name="length">00:00:05.000</property>
  <property name="eof">pause</property>
  <property name="resource">/home/liquidzulu/Documents/youtube-scripts/courses/libertarian-ethics/capsaicin/pseudo/homesteading-and-property-rights.pseudo.srt-images/98.png</property>
  <property name="ttl">25</property>
  <property name="aspect_ratio">1</property>
  <property name="progressive">1</property>
  <property name="seekable">1</property>
  <property name="meta.media.width">1920</property>
  <property name="meta.media.height">1080</property>
  <property name="mlt_service">qimage</property>
  <property name="kdenlive:clipname"/>
  <property name="kdenlive:duration">00:00:05.000</property>
  <property name="kdenlive:folderid">95</property>
  <property name="kdenlive:clip_type">2</property>
  <property name="kdenlive:id">392</property>
  <property name="kdenlive:file_size">8979</property>
  <property name="kdenlive:file_hash">1abc3e1ce229a0def3d37b281cdf00c2</property>
 </producer>
 <producer id="producer388" in="00:00:00.000" out="00:00:04.960">
  <property name="length">00:00:05.000</property>
  <property name="eof">pause</property>
  <property name="resource">/home/liquidzulu/Documents/youtube-scripts/courses/libertarian-ethics/capsaicin/pseudo/homesteading-and-property-rights.pseudo.srt-images/99.png</property>
  <property name="ttl">25</property>
  <property name="aspect_ratio">1</property>
  <property name="progressive">1</property>
  <property name="seekable">1</property>
  <property name="meta.media.width">1920</property>
  <property name="meta.media.height">1080</property>
  <property name="mlt_service">qimage</property>
  <property name="kdenlive:clipname"/>
  <property name="kdenlive:duration">00:00:05.000</property>
  <property name="kdenlive:folderid">95</property>
  <property name="kdenlive:clip_type">2</property>
  <property name="kdenlive:id">393</property>
  <property name="kdenlive:file_size">8946</property>
  <property name="kdenlive:file_hash">573513ac257c3243e1dc44a931c329d0</property>
 </producer>
 <producer id="producer390" in="00:00:00.000" out="00:33:54.760">
  <property name="length">50870</property>
  <property name="eof">pause</property>
  <property name="resource">/home/liquidzulu/Pictures/yt/watermark-16x9-small.png</property>
  <property name="ttl">25</property>
  <property name="aspect_ratio">1</property>
  <property name="progressive">1</property>
  <property name="seekable">1</property>
  <property name="meta.media.width">1920</property>
  <property name="meta.media.height">1080</property>
  <property name="mlt_service">qimage</property>
  <property name="kdenlive:clipname"/>
  <property name="kdenlive:duration">00:00:05.000</property>
  <property name="kdenlive:folderid">-1</property>
  <property name="kdenlive:clip_type">2</property>
  <property name="kdenlive:id">394</property>
  <property name="kdenlive:file_size">15112</property>
  <property name="kdenlive:file_hash">7c6e22950b94df501d697c7b09bbc8c0</property>
 </producer>
 <producer id="producer391" in="00:00:00.000" out="00:00:04.960">
  <property name="length">00:00:05.000</property>
  <property name="eof">pause</property>
  <property name="resource">/home/liquidzulu/Documents/youtube-scripts/courses/libertarian-ethics/images/footnotes/[10].png</property>
  <property name="ttl">25</property>
  <property name="aspect_ratio">1</property>
  <property name="progressive">1</property>
  <property name="seekable">1</property>
  <property name="meta.media.width">789</property>
  <property name="meta.media.height">616</property>
  <property name="mlt_service">qimage</property>
  <property name="kdenlive:clipname"/>
  <property name="kdenlive:duration">00:00:05.000</property>
  <property name="kdenlive:folderid">395</property>
  <property name="kdenlive:clip_type">2</property>
  <property name="kdenlive:id">396</property>
  <property name="kdenlive:file_size">11024</property>
  <property name="kdenlive:file_hash">fc1cb2338731cbf122195253c75200a8</property>
 </producer>
 <producer id="producer392" in="00:00:00.000" out="00:00:04.960">
  <property name="length">00:00:05.000</property>
  <property name="eof">pause</property>
  <property name="resource">/home/liquidzulu/Documents/youtube-scripts/courses/libertarian-ethics/images/footnotes/[13].png</property>
  <property name="ttl">25</property>
  <property name="aspect_ratio">1</property>
  <property name="progressive">1</property>
  <property name="seekable">1</property>
  <property name="meta.media.width">784</property>
  <property name="meta.media.height">616</property>
  <property name="mlt_service">qimage</property>
  <property name="kdenlive:clipname"/>
  <property name="kdenlive:duration">00:00:05.000</property>
  <property name="kdenlive:folderid">395</property>
  <property name="kdenlive:clip_type">2</property>
  <property name="kdenlive:id">399</property>
  <property name="kdenlive:file_size">10746</property>
  <property name="kdenlive:file_hash">e78221deb41adab07b045aa8a4ea8931</property>
 </producer>
 <producer id="producer393" in="00:00:00.000" out="00:00:04.960">
  <property name="length">00:00:05.000</property>
  <property name="eof">pause</property>
  <property name="resource">/home/liquidzulu/Documents/youtube-scripts/courses/libertarian-ethics/images/footnotes/[11].png</property>
  <property name="ttl">25</property>
  <property name="aspect_ratio">1</property>
  <property name="progressive">1</property>
  <property name="seekable">1</property>
  <property name="meta.media.width">677</property>
  <property name="meta.media.height">616</property>
  <property name="mlt_service">qimage</property>
  <property name="kdenlive:clipname"/>
  <property name="kdenlive:duration">00:00:05.000</property>
  <property name="kdenlive:folderid">395</property>
  <property name="kdenlive:clip_type">2</property>
  <property name="kdenlive:id">397</property>
  <property name="kdenlive:file_size">6653</property>
  <property name="kdenlive:file_hash">4c95719b9dbb70ef2229cad7d8cf0e4c</property>
 </producer>
 <producer id="producer394" in="00:00:00.000" out="00:00:04.960">
  <property name="length">00:00:05.000</property>
  <property name="eof">pause</property>
  <property name="resource">/home/liquidzulu/Documents/youtube-scripts/courses/libertarian-ethics/images/footnotes/[12].png</property>
  <property name="ttl">25</property>
  <property name="aspect_ratio">1</property>
  <property name="progressive">1</property>
  <property name="seekable">1</property>
  <property name="meta.media.width">774</property>
  <property name="meta.media.height">616</property>
  <property name="mlt_service">qimage</property>
  <property name="kdenlive:clipname"/>
  <property name="kdenlive:duration">00:00:05.000</property>
  <property name="kdenlive:folderid">395</property>
  <property name="kdenlive:clip_type">2</property>
  <property name="kdenlive:id">398</property>
  <property name="kdenlive:file_size">9876</property>
  <property name="kdenlive:file_hash">38859f16b35a456942c55654eeadc8f0</property>
 </producer>
 <producer id="producer395" in="00:00:00.000" out="00:00:04.960">
  <property name="length">00:00:05.000</property>
  <property name="eof">pause</property>
  <property name="resource">/home/liquidzulu/Documents/youtube-scripts/courses/libertarian-ethics/images/footnotes/[16].png</property>
  <property name="ttl">25</property>
  <property name="aspect_ratio">1</property>
  <property name="progressive">1</property>
  <property name="seekable">1</property>
  <property name="meta.media.width">764</property>
  <property name="meta.media.height">616</property>
  <property name="mlt_service">qimage</property>
  <property name="kdenlive:clipname"/>
  <property name="kdenlive:duration">00:00:05.000</property>
  <property name="kdenlive:folderid">395</property>
  <property name="kdenlive:clip_type">2</property>
  <property name="kdenlive:id">402</property>
  <property name="kdenlive:file_size">10238</property>
  <property name="kdenlive:file_hash">5c06c6ebce5353d6ff56dc92e4104535</property>
 </producer>
 <producer id="producer396" in="00:00:00.000" out="00:00:04.960">
  <property name="length">00:00:05.000</property>
  <property name="eof">pause</property>
  <property name="resource">/home/liquidzulu/Documents/youtube-scripts/courses/libertarian-ethics/images/footnotes/[15].png</property>
  <property name="ttl">25</property>
  <property name="aspect_ratio">1</property>
  <property name="progressive">1</property>
  <property name="seekable">1</property>
  <property name="meta.media.width">784</property>
  <property name="meta.media.height">616</property>
  <property name="mlt_service">qimage</property>
  <property name="kdenlive:clipname"/>
  <property name="kdenlive:duration">00:00:05.000</property>
  <property name="kdenlive:folderid">395</property>
  <property name="kdenlive:clip_type">2</property>
  <property name="kdenlive:id">401</property>
  <property name="kdenlive:file_size">9205</property>
  <property name="kdenlive:file_hash">faf6087558daf9b55e8f26e330d1cccb</property>
 </producer>
 <producer id="producer397" in="00:00:00.000" out="00:00:04.960">
  <property name="length">00:00:05.000</property>
  <property name="eof">pause</property>
  <property name="resource">/home/liquidzulu/Documents/youtube-scripts/courses/libertarian-ethics/images/footnotes/[17].png</property>
  <property name="ttl">25</property>
  <property name="aspect_ratio">1</property>
  <property name="progressive">1</property>
  <property name="seekable">1</property>
  <property name="meta.media.width">774</property>
  <property name="meta.media.height">616</property>
  <property name="mlt_service">qimage</property>
  <property name="kdenlive:clipname"/>
  <property name="kdenlive:duration">00:00:05.000</property>
  <property name="kdenlive:folderid">395</property>
  <property name="kdenlive:clip_type">2</property>
  <property name="kdenlive:id">403</property>
  <property name="kdenlive:file_size">9098</property>
  <property name="kdenlive:file_hash">16ee8dceba8169c8cd6ef3872b30b943</property>
 </producer>
 <producer id="producer398" in="00:00:00.000" out="00:00:05.080">
  <property name="length">128</property>
  <property name="eof">pause</property>
  <property name="resource">/home/liquidzulu/Documents/youtube-scripts/courses/libertarian-ethics/images/footnotes/[14].png</property>
  <property name="ttl">25</property>
  <property name="aspect_ratio">1</property>
  <property name="progressive">1</property>
  <property name="seekable">1</property>
  <property name="meta.media.width">789</property>
  <property name="meta.media.height">616</property>
  <property name="mlt_service">qimage</property>
  <property name="kdenlive:clipname"/>
  <property name="kdenlive:duration">00:00:05.000</property>
  <property name="kdenlive:folderid">395</property>
  <property name="kdenlive:clip_type">2</property>
  <property name="kdenlive:id">400</property>
  <property name="kdenlive:file_size">8090</property>
  <property name="kdenlive:file_hash">d1ea5ae220b74dfdd077b0c9695a8b8c</property>
 </producer>
 <producer id="producer399" in="00:00:00.000" out="00:00:04.960">
  <property name="length">00:00:05.000</property>
  <property name="eof">pause</property>
  <property name="resource">/home/liquidzulu/Documents/youtube-scripts/courses/libertarian-ethics/images/footnotes/[1].png</property>
  <property name="ttl">25</property>
  <property name="aspect_ratio">1</property>
  <property name="progressive">1</property>
  <property name="seekable">1</property>
  <property name="meta.media.width">482</property>
  <property name="meta.media.height">616</property>
  <property name="mlt_service">qimage</property>
  <property name="kdenlive:clipname"/>
  <property name="kdenlive:duration">00:00:05.000</property>
  <property name="kdenlive:folderid">395</property>
  <property name="kdenlive:clip_type">2</property>
  <property name="kdenlive:id">406</property>
  <property name="kdenlive:file_size">4932</property>
  <property name="kdenlive:file_hash">77ca2d7212cae96f7f71bb382d38ee2a</property>
 </producer>
 <producer id="producer400" in="00:00:00.000" out="00:00:04.960">
  <property name="length">00:00:05.000</property>
  <property name="eof">pause</property>
  <property name="resource">/home/liquidzulu/Documents/youtube-scripts/courses/libertarian-ethics/images/footnotes/[18].png</property>
  <property name="ttl">25</property>
  <property name="aspect_ratio">1</property>
  <property name="progressive">1</property>
  <property name="seekable">1</property>
  <property name="meta.media.width">789</property>
  <property name="meta.media.height">616</property>
  <property name="mlt_service">qimage</property>
  <property name="kdenlive:clipname"/>
  <property name="kdenlive:duration">00:00:05.000</property>
  <property name="kdenlive:folderid">395</property>
  <property name="kdenlive:clip_type">2</property>
  <property name="kdenlive:id">404</property>
  <property name="kdenlive:file_size">11086</property>
  <property name="kdenlive:file_hash">bf060914c7d8f1999a0ee0dba70a277e</property>
 </producer>
 <producer id="producer401" in="00:00:00.000" out="00:00:04.960">
  <property name="length">00:00:05.000</property>
  <property name="eof">pause</property>
  <property name="resource">/home/liquidzulu/Documents/youtube-scripts/courses/libertarian-ethics/images/footnotes/[2].png</property>
  <property name="ttl">25</property>
  <property name="aspect_ratio">1</property>
  <property name="progressive">1</property>
  <property name="seekable">1</property>
  <property name="meta.media.width">579</property>
  <property name="meta.media.height">616</property>
  <property name="mlt_service">qimage</property>
  <property name="kdenlive:clipname"/>
  <property name="kdenlive:duration">00:00:05.000</property>
  <property name="kdenlive:folderid">395</property>
  <property name="kdenlive:clip_type">2</property>
  <property name="kdenlive:id">408</property>
  <property name="kdenlive:file_size">7989</property>
  <property name="kdenlive:file_hash">f79eac112c605a0441d047c0e470480b</property>
 </producer>
 <producer id="producer402" in="00:00:00.000" out="00:00:04.960">
  <property name="length">00:00:05.000</property>
  <property name="eof">pause</property>
  <property name="resource">/home/liquidzulu/Documents/youtube-scripts/courses/libertarian-ethics/images/footnotes/[3].png</property>
  <property name="ttl">25</property>
  <property name="aspect_ratio">1</property>
  <property name="progressive">1</property>
  <property name="seekable">1</property>
  <property name="meta.media.width">589</property>
  <property name="meta.media.height">616</property>
  <property name="mlt_service">qimage</property>
  <property name="kdenlive:clipname"/>
  <property name="kdenlive:duration">00:00:05.000</property>
  <property name="kdenlive:folderid">395</property>
  <property name="kdenlive:clip_type">2</property>
  <property name="kdenlive:id">409</property>
  <property name="kdenlive:file_size">8913</property>
  <property name="kdenlive:file_hash">3259977c1d310bdc3295188e03df755c</property>
 </producer>
 <producer id="producer403" in="00:00:00.000" out="00:00:04.960">
  <property name="length">00:00:05.000</property>
  <property name="eof">pause</property>
  <property name="resource">/home/liquidzulu/Documents/youtube-scripts/courses/libertarian-ethics/images/footnotes/[4].png</property>
  <property name="ttl">25</property>
  <property name="aspect_ratio">1</property>
  <property name="progressive">1</property>
  <property name="seekable">1</property>
  <property name="meta.media.width">594</property>
  <property name="meta.media.height">616</property>
  <property name="mlt_service">qimage</property>
  <property name="kdenlive:clipname"/>
  <property name="kdenlive:duration">00:00:05.000</property>
  <property name="kdenlive:folderid">395</property>
  <property name="kdenlive:clip_type">2</property>
  <property name="kdenlive:id">410</property>
  <property name="kdenlive:file_size">6412</property>
  <property name="kdenlive:file_hash">3fb7540394fb1ec9be5a5cee47e1e398</property>
 </producer>
 <producer id="producer404" in="00:00:00.000" out="00:00:04.960">
  <property name="length">00:00:05.000</property>
  <property name="eof">pause</property>
  <property name="resource">/home/liquidzulu/Documents/youtube-scripts/courses/libertarian-ethics/images/footnotes/[20].png</property>
  <property name="ttl">25</property>
  <property name="aspect_ratio">1</property>
  <property name="progressive">1</property>
  <property name="seekable">1</property>
  <property name="meta.media.width">886</property>
  <property name="meta.media.height">616</property>
  <property name="mlt_service">qimage</property>
  <property name="kdenlive:clipname"/>
  <property name="kdenlive:duration">00:00:05.000</property>
  <property name="kdenlive:folderid">395</property>
  <property name="kdenlive:clip_type">2</property>
  <property name="kdenlive:id">407</property>
  <property name="kdenlive:file_size">13512</property>
  <property name="kdenlive:file_hash">b244fb792f2ea28e0c896fffe5c70caf</property>
 </producer>
 <producer id="producer405" in="00:00:00.000" out="00:00:04.960">
  <property name="length">00:00:05.000</property>
  <property name="eof">pause</property>
  <property name="resource">/home/liquidzulu/Documents/youtube-scripts/courses/libertarian-ethics/images/footnotes/[19].png</property>
  <property name="ttl">25</property>
  <property name="aspect_ratio">1</property>
  <property name="progressive">1</property>
  <property name="seekable">1</property>
  <property name="meta.media.width">769</property>
  <property name="meta.media.height">616</property>
  <property name="mlt_service">qimage</property>
  <property name="kdenlive:clipname"/>
  <property name="kdenlive:duration">00:00:05.000</property>
  <property name="kdenlive:folderid">395</property>
  <property name="kdenlive:clip_type">2</property>
  <property name="kdenlive:id">405</property>
  <property name="kdenlive:file_size">10458</property>
  <property name="kdenlive:file_hash">b5b3b5559436fecc7071fbba3053e450</property>
 </producer>
 <producer id="producer406" in="00:00:00.000" out="00:00:04.960">
  <property name="length">00:00:05.000</property>
  <property name="eof">pause</property>
  <property name="resource">/home/liquidzulu/Documents/youtube-scripts/courses/libertarian-ethics/images/footnotes/[6].png</property>
  <property name="ttl">25</property>
  <property name="aspect_ratio">1</property>
  <property name="progressive">1</property>
  <property name="seekable">1</property>
  <property name="meta.media.width">569</property>
  <property name="meta.media.height">616</property>
  <property name="mlt_service">qimage</property>
  <property name="kdenlive:clipname"/>
  <property name="kdenlive:duration">00:00:05.000</property>
  <property name="kdenlive:folderid">395</property>
  <property name="kdenlive:clip_type">2</property>
  <property name="kdenlive:id">412</property>
  <property name="kdenlive:file_size">8456</property>
  <property name="kdenlive:file_hash">106589471dc640dc3d8b9f0a8d60dbbd</property>
 </producer>
 <producer id="producer407" in="00:00:00.000" out="00:00:04.960">
  <property name="length">00:00:05.000</property>
  <property name="eof">pause</property>
  <property name="resource">/home/liquidzulu/Documents/youtube-scripts/courses/libertarian-ethics/images/footnotes/[5].png</property>
  <property name="ttl">25</property>
  <property name="aspect_ratio">1</property>
  <property name="progressive">1</property>
  <property name="seekable">1</property>
  <property name="meta.media.width">589</property>
  <property name="meta.media.height">616</property>
  <property name="mlt_service">qimage</property>
  <property name="kdenlive:clipname"/>
  <property name="kdenlive:duration">00:00:05.000</property>
  <property name="kdenlive:folderid">395</property>
  <property name="kdenlive:clip_type">2</property>
  <property name="kdenlive:id">411</property>
  <property name="kdenlive:file_size">7416</property>
  <property name="kdenlive:file_hash">bc589685793c4621e75c6ecca65440ee</property>
 </producer>
 <producer id="producer408" in="00:00:00.000" out="00:00:06.040">
  <property name="length">152</property>
  <property name="eof">pause</property>
  <property name="resource">/home/liquidzulu/Documents/youtube-scripts/courses/libertarian-ethics/images/footnotes/[7].png</property>
  <property name="ttl">25</property>
  <property name="aspect_ratio">1</property>
  <property name="progressive">1</property>
  <property name="seekable">1</property>
  <property name="meta.media.width">579</property>
  <property name="meta.media.height">616</property>
  <property name="mlt_service">qimage</property>
  <property name="kdenlive:clipname"/>
  <property name="kdenlive:duration">00:00:05.000</property>
  <property name="kdenlive:folderid">395</property>
  <property name="kdenlive:clip_type">2</property>
  <property name="kdenlive:id">413</property>
  <property name="kdenlive:file_size">7176</property>
  <property name="kdenlive:file_hash">75857f4fa583699e3fa1b5d4ae2999eb</property>
 </producer>
 <producer id="producer409" in="00:00:00.000" out="00:00:04.960">
  <property name="length">00:00:05.000</property>
  <property name="eof">pause</property>
  <property name="resource">/home/liquidzulu/Documents/youtube-scripts/courses/libertarian-ethics/images/footnotes/[9].png</property>
  <property name="ttl">25</property>
  <property name="aspect_ratio">1</property>
  <property name="progressive">1</property>
  <property name="seekable">1</property>
  <property name="meta.media.width">574</property>
  <property name="meta.media.height">616</property>
  <property name="mlt_service">qimage</property>
  <property name="kdenlive:clipname"/>
  <property name="kdenlive:duration">00:00:05.000</property>
  <property name="kdenlive:folderid">395</property>
  <property name="kdenlive:clip_type">2</property>
  <property name="kdenlive:id">415</property>
  <property name="kdenlive:file_size">8762</property>
  <property name="kdenlive:file_hash">f3f317991b8b6ae9e1585654a4a9dbf6</property>
 </producer>
 <producer id="producer410" in="00:00:00.000" out="00:00:04.960">
  <property name="length">00:00:05.000</property>
  <property name="eof">pause</property>
  <property name="resource">/home/liquidzulu/Documents/youtube-scripts/courses/libertarian-ethics/images/footnotes/[8].png</property>
  <property name="ttl">25</property>
  <property name="aspect_ratio">1</property>
  <property name="progressive">1</property>
  <property name="seekable">1</property>
  <property name="meta.media.width">594</property>
  <property name="meta.media.height">616</property>
  <property name="mlt_service">qimage</property>
  <property name="kdenlive:clipname"/>
  <property name="kdenlive:duration">00:00:05.000</property>
  <property name="kdenlive:folderid">395</property>
  <property name="kdenlive:clip_type">2</property>
  <property name="kdenlive:id">414</property>
  <property name="kdenlive:file_size">9148</property>
  <property name="kdenlive:file_hash">577f8ba7600a13914942629d1258a518</property>
 </producer>
 <playlist id="main_bin">
  <property name="kdenlive:folder.-1.6">slides</property>
  <property name="kdenlive:folder.-1.95">homesteading-and-property-rights.pseudo.srt-images</property>
  <property name="kdenlive:docproperties.activeTrack">14</property>
  <property name="kdenlive:docproperties.audioChannels">2</property>
  <property name="kdenlive:docproperties.audioTarget">-1</property>
  <property name="kdenlive:docproperties.compositing">1</property>
  <property name="kdenlive:docproperties.disablepreview">0</property>
  <property name="kdenlive:docproperties.documentid">1681570388414</property>
  <property name="kdenlive:docproperties.enableTimelineZone">0</property>
  <property name="kdenlive:docproperties.enableexternalproxy">0</property>
  <property name="kdenlive:docproperties.enableproxy">0</property>
  <property name="kdenlive:docproperties.externalproxyparams"/>
  <property name="kdenlive:docproperties.generateimageproxy">0</property>
  <property name="kdenlive:docproperties.generateproxy">0</property>
  <property name="kdenlive:docproperties.groups">[
]
</property>
  <property name="kdenlive:docproperties.guides">[
]
</property>
  <property name="kdenlive:docproperties.kdenliveversion">22.08.3</property>
  <property name="kdenlive:docproperties.position">38973</property>
  <property name="kdenlive:docproperties.previewextension"/>
  <property name="kdenlive:docproperties.previewparameters"/>
  <property name="kdenlive:docproperties.profile">atsc_1080p_25</property>
  <property name="kdenlive:docproperties.proxyextension"/>
  <property name="kdenlive:docproperties.proxyimageminsize">2000</property>
  <property name="kdenlive:docproperties.proxyimagesize">800</property>
  <property name="kdenlive:docproperties.proxyminsize">1000</property>
  <property name="kdenlive:docproperties.proxyparams"/>
  <property name="kdenlive:docproperties.proxyresize">640</property>
  <property name="kdenlive:docproperties.rendercategory">Generic (HD for web, mobile devices...)</property>
  <property name="kdenlive:docproperties.rendercustomquality">-1</property>
  <property name="kdenlive:docproperties.renderendguide">-1</property>
  <property name="kdenlive:docproperties.renderexportaudio">0</property>
  <property name="kdenlive:docproperties.rendermode">0</property>
  <property name="kdenlive:docproperties.renderplay">0</property>
  <property name="kdenlive:docproperties.renderpreview">0</property>
  <property name="kdenlive:docproperties.renderprofile">MP4-H264/AAC</property>
  <property name="kdenlive:docproperties.renderratio">1</property>
  <property name="kdenlive:docproperties.renderrescale">0</property>
  <property name="kdenlive:docproperties.renderrescaleheight">540</property>
  <property name="kdenlive:docproperties.renderrescalewidth">960</property>
  <property name="kdenlive:docproperties.renderspeed">6</property>
  <property name="kdenlive:docproperties.renderstartguide">-1</property>
  <property name="kdenlive:docproperties.rendertcoverlay">0</property>
  <property name="kdenlive:docproperties.rendertctype">-1</property>
  <property name="kdenlive:docproperties.rendertwopass">0</property>
  <property name="kdenlive:docproperties.renderurl">/home/liquidzulu/Videos/yt/vid-store/courses/libertarian-ethics/homesteading-and-property-rights.mp4</property>
  <property name="kdenlive:docproperties.scrollPos">160537</property>
  <property name="kdenlive:docproperties.seekOffset">30000</property>
  <property name="kdenlive:docproperties.version">1.04</property>
  <property name="kdenlive:docproperties.verticalzoom">1</property>
  <property name="kdenlive:docproperties.videoTarget">2</property>
  <property name="kdenlive:docproperties.zonein">0</property>
  <property name="kdenlive:docproperties.zoneout">75</property>
  <property name="kdenlive:docproperties.zoom">4</property>
  <property name="kdenlive:expandedFolders">395</property>
  <property name="kdenlive:documentnotes"/>
  <property name="kdenlive:folder.-1.395">footnotes</property>
  <property name="xml_retain">1</property>
  <entry producer="producer1" in="00:00:00.000" out="00:00:27.040"/>
  <entry producer="producer50" in="00:00:00.000" out="00:01:32.200"/>
  <entry producer="producer51" in="00:00:00.000" out="00:00:12.640"/>
  <entry producer="producer0" in="00:00:00.000" out="00:21:45.360"/>
  <entry producer="producer2" in="00:00:00.000" out="00:00:04.960"/>
  <entry producer="producer11" in="00:00:00.000" out="00:00:42.560"/>
  <entry producer="producer8" in="00:00:00.000" out="00:00:20.200"/>
  <entry producer="producer9" in="00:00:00.000" out="00:00:58.320"/>
  <entry producer="producer79" in="00:00:00.000" out="00:00:44.240"/>
  <entry producer="producer10" in="00:00:00.000" out="00:00:40.040"/>
  <entry producer="producer12" in="00:00:00.000" out="00:00:18.560"/>
  <entry producer="producer16" in="00:00:00.000" out="00:00:07.360"/>
  <entry producer="producer13" in="00:00:00.000" out="00:01:20.280"/>
  <entry producer="producer14" in="00:00:00.000" out="00:00:13.200"/>
  <entry producer="producer15" in="00:00:00.000" out="00:00:40.760"/>
  <entry producer="producer3" in="00:00:00.000" out="00:00:22.640"/>
  <entry producer="producer17" in="00:00:00.000" out="00:00:48.200"/>
  <entry producer="producer18" in="00:00:00.000" out="00:00:34.400"/>
  <entry producer="producer20" in="00:00:00.000" out="00:00:46.360"/>
  <entry producer="producer21" in="00:00:00.000" out="00:00:50.200"/>
  <entry producer="producer19" in="00:00:00.000" out="00:00:49.560"/>
  <entry producer="producer22" in="00:00:00.000" out="00:00:53.880"/>
  <entry producer="producer23" in="00:00:00.000" out="00:00:46.960"/>
  <entry producer="producer25" in="00:00:00.000" out="00:01:48.600"/>
  <entry producer="producer24" in="00:00:00.000" out="00:00:32.400"/>
  <entry producer="producer26" in="00:00:00.000" out="00:01:07.240"/>
  <entry producer="producer5" in="00:00:00.000" out="00:00:34.440"/>
  <entry producer="producer27" in="00:00:00.000" out="00:00:24.480"/>
  <entry producer="producer30" in="00:00:00.000" out="00:00:56.520"/>
  <entry producer="producer29" in="00:00:00.000" out="00:00:30.840"/>
  <entry producer="producer28" in="00:00:00.000" out="00:00:26.840"/>
  <entry producer="producer31" in="00:00:00.000" out="00:00:22.720"/>
  <entry producer="producer32" in="00:00:00.000" out="00:01:31.720"/>
  <entry producer="producer34" in="00:00:00.000" out="00:00:14.840"/>
  <entry producer="producer33" in="00:00:00.000" out="00:00:29.880"/>
  <entry producer="producer36" in="00:00:00.000" out="00:00:10.520"/>
  <entry producer="producer35" in="00:00:00.000" out="00:00:13.360"/>
  <entry producer="producer4" in="00:00:00.000" out="00:00:34.480"/>
  <entry producer="producer37" in="00:00:00.000" out="00:00:28.080"/>
  <entry producer="producer38" in="00:00:00.000" out="00:00:13.800"/>
  <entry producer="producer39" in="00:00:00.000" out="00:00:29.200"/>
  <entry producer="producer42" in="00:00:00.000" out="00:00:32.480"/>
  <entry producer="producer40" in="00:00:00.000" out="00:00:29.400"/>
  <entry producer="producer41" in="00:00:00.000" out="00:00:04.960"/>
  <entry producer="producer43" in="00:00:00.000" out="00:00:11.840"/>
  <entry producer="producer44" in="00:00:00.000" out="00:00:43.360"/>
  <entry producer="producer74" in="00:00:00.000" out="00:00:19.280"/>
  <entry producer="producer7" in="00:00:00.000" out="00:00:53.320"/>
  <entry producer="producer45" in="00:00:00.000" out="00:00:22.240"/>
  <entry producer="producer47" in="00:00:00.000" out="00:00:25.800"/>
  <entry producer="producer46" in="00:00:00.000" out="00:00:27.160"/>
  <entry producer="producer75" in="00:00:00.000" out="00:00:26.520"/>
  <entry producer="producer48" in="00:00:00.000" out="00:00:17.560"/>
  <entry producer="producer49" in="00:00:00.000" out="00:00:19.320"/>
  <entry producer="producer54" in="00:00:00.000" out="00:00:14.840"/>
  <entry producer="producer53" in="00:00:00.000" out="00:00:29.440"/>
  <entry producer="producer52" in="00:00:00.000" out="00:00:35.920"/>
  <entry producer="producer73" in="00:00:00.000" out="00:00:23.680"/>
  <entry producer="producer6" in="00:00:00.000" out="00:00:18.240"/>
  <entry producer="producer72" in="00:00:00.000" out="00:00:16.320"/>
  <entry producer="producer56" in="00:00:00.000" out="00:00:44.280"/>
  <entry producer="producer55" in="00:00:00.000" out="00:00:04.960"/>
  <entry producer="producer85" in="00:00:00.000" out="00:01:29.240"/>
  <entry producer="producer57" in="00:00:00.000" out="00:00:25.560"/>
  <entry producer="producer58" in="00:00:00.000" out="00:00:19.840"/>
  <entry producer="producer59" in="00:00:00.000" out="00:00:04.960"/>
  <entry producer="producer60" in="00:00:00.000" out="00:00:44.560"/>
  <entry producer="producer62" in="00:00:00.000" out="00:00:39.040"/>
  <entry producer="producer61" in="00:00:00.000" out="00:00:21.720"/>
  <entry producer="producer69" in="00:00:00.000" out="00:00:20.560"/>
  <entry producer="producer63" in="00:00:00.000" out="00:00:34.120"/>
  <entry producer="producer64" in="00:00:00.000" out="00:00:27.560"/>
  <entry producer="producer65" in="00:00:00.000" out="00:00:27.320"/>
  <entry producer="producer66" in="00:00:00.000" out="00:00:04.960"/>
  <entry producer="producer67" in="00:00:00.000" out="00:01:32.440"/>
  <entry producer="producer70" in="00:00:00.000" out="00:00:15.680"/>
  <entry producer="producer68" in="00:00:00.000" out="00:00:04.960"/>
  <entry producer="producer77" in="00:00:00.000" out="00:00:13.560"/>
  <entry producer="producer78" in="00:00:00.000" out="00:00:04.960"/>
  <entry producer="producer71" in="00:00:00.000" out="00:00:04.960"/>
  <entry producer="producer81" in="00:00:00.000" out="00:05:27.000"/>
  <entry producer="producer82" in="00:00:00.000" out="00:44:35.760"/>
  <entry producer="producer76" in="00:00:00.000" out="00:02:09.640"/>
  <entry producer="producer80" in="00:00:00.000" out="00:00:13.720"/>
  <entry producer="producer83" in="00:00:00.000" out="00:47:33.000"/>
  <entry producer="producer84" in="00:00:00.000" out="00:40:26.080"/>
  <entry producer="producer86" in="00:00:00.000" out="00:01:23.200"/>
  <entry producer="producer87" in="00:00:00.000" out="00:01:21.520"/>
  <entry producer="producer88" in="00:00:00.000" out="00:01:14.080"/>
  <entry producer="producer89" in="00:00:00.000" out="00:00:37.880"/>
  <entry producer="producer90" in="00:00:00.000" out="00:00:04.960"/>
  <entry producer="producer91" in="00:00:00.000" out="00:04:19.600"/>
  <entry producer="producer93" in="00:00:00.000" out="00:00:04.960"/>
  <entry producer="producer92" in="00:00:00.000" out="00:00:04.960"/>
  <entry producer="producer95" in="00:00:00.000" out="00:00:04.960"/>
  <entry producer="producer94" in="00:00:00.000" out="00:00:04.960"/>
  <entry producer="producer96" in="00:00:00.000" out="00:00:04.960"/>
  <entry producer="producer97" in="00:00:00.000" out="00:00:04.960"/>
  <entry producer="producer98" in="00:00:00.000" out="00:00:04.960"/>
  <entry producer="producer99" in="00:00:00.000" out="00:00:04.960"/>
  <entry producer="producer100" in="00:00:00.000" out="00:00:05.920"/>
  <entry producer="producer101" in="00:00:00.000" out="00:00:04.960"/>
  <entry producer="producer102" in="00:00:00.000" out="00:00:04.960"/>
  <entry producer="producer104" in="00:00:00.000" out="00:00:04.960"/>
  <entry producer="producer103" in="00:00:00.000" out="00:00:04.960"/>
  <entry producer="producer105" in="00:00:00.000" out="00:00:04.960"/>
  <entry producer="producer106" in="00:00:00.000" out="00:00:04.960"/>
  <entry producer="producer107" in="00:00:00.000" out="00:00:04.960"/>
  <entry producer="producer108" in="00:00:00.000" out="00:00:04.960"/>
  <entry producer="producer109" in="00:00:00.000" out="00:00:04.960"/>
  <entry producer="producer110" in="00:00:00.000" out="00:00:04.960"/>
  <entry producer="producer111" in="00:00:00.000" out="00:00:04.960"/>
  <entry producer="producer112" in="00:00:00.000" out="00:00:04.960"/>
  <entry producer="producer113" in="00:00:00.000" out="00:00:04.960"/>
  <entry producer="producer115" in="00:00:00.000" out="00:00:04.960"/>
  <entry producer="producer114" in="00:00:00.000" out="00:00:04.960"/>
  <entry producer="producer116" in="00:00:00.000" out="00:00:04.960"/>
  <entry producer="producer117" in="00:00:00.000" out="00:00:04.960"/>
  <entry producer="producer118" in="00:00:00.000" out="00:00:04.960"/>
  <entry producer="producer119" in="00:00:00.000" out="00:00:04.960"/>
  <entry producer="producer120" in="00:00:00.000" out="00:00:04.960"/>
  <entry producer="producer121" in="00:00:00.000" out="00:00:04.960"/>
  <entry producer="producer122" in="00:00:00.000" out="00:00:04.960"/>
  <entry producer="producer123" in="00:00:00.000" out="00:00:04.960"/>
  <entry producer="producer124" in="00:00:00.000" out="00:00:04.960"/>
  <entry producer="producer125" in="00:00:00.000" out="00:00:04.960"/>
  <entry producer="producer127" in="00:00:00.000" out="00:00:04.960"/>
  <entry producer="producer128" in="00:00:00.000" out="00:00:04.960"/>
  <entry producer="producer126" in="00:00:00.000" out="00:00:04.960"/>
  <entry producer="producer129" in="00:00:00.000" out="00:00:04.960"/>
  <entry producer="producer130" in="00:00:00.000" out="00:00:04.960"/>
  <entry producer="producer131" in="00:00:00.000" out="00:00:04.960"/>
  <entry producer="producer132" in="00:00:00.000" out="00:00:04.960"/>
  <entry producer="producer133" in="00:00:00.000" out="00:00:04.960"/>
  <entry producer="producer134" in="00:00:00.000" out="00:00:04.960"/>
  <entry producer="producer135" in="00:00:00.000" out="00:00:04.960"/>
  <entry producer="producer136" in="00:00:00.000" out="00:00:04.960"/>
  <entry producer="producer138" in="00:00:00.000" out="00:00:04.960"/>
  <entry producer="producer137" in="00:00:00.000" out="00:00:04.960"/>
  <entry producer="producer139" in="00:00:00.000" out="00:00:04.960"/>
  <entry producer="producer140" in="00:00:00.000" out="00:00:04.960"/>
  <entry producer="producer141" in="00:00:00.000" out="00:00:04.960"/>
  <entry producer="producer142" in="00:00:00.000" out="00:00:04.960"/>
  <entry producer="producer143" in="00:00:00.000" out="00:00:04.960"/>
  <entry producer="producer145" in="00:00:00.000" out="00:00:04.960"/>
  <entry producer="producer144" in="00:00:00.000" out="00:00:04.960"/>
  <entry producer="producer146" in="00:00:00.000" out="00:00:04.960"/>
  <entry producer="producer147" in="00:00:00.000" out="00:00:04.960"/>
  <entry producer="producer148" in="00:00:00.000" out="00:00:04.960"/>
  <entry producer="producer149" in="00:00:00.000" out="00:00:04.960"/>
  <entry producer="producer150" in="00:00:00.000" out="00:00:04.960"/>
  <entry producer="producer151" in="00:00:00.000" out="00:00:04.960"/>
  <entry producer="producer152" in="00:00:00.000" out="00:00:05.320"/>
  <entry producer="producer153" in="00:00:00.000" out="00:00:04.960"/>
  <entry producer="producer154" in="00:00:00.000" out="00:00:04.960"/>
  <entry producer="producer156" in="00:00:00.000" out="00:00:05.320"/>
  <entry producer="producer155" in="00:00:00.000" out="00:00:05.080"/>
  <entry producer="producer157" in="00:00:00.000" out="00:00:04.960"/>
  <entry producer="producer158" in="00:00:00.000" out="00:00:04.960"/>
  <entry producer="producer159" in="00:00:00.000" out="00:00:04.960"/>
  <entry producer="producer160" in="00:00:00.000" out="00:00:04.960"/>
  <entry producer="producer161" in="00:00:00.000" out="00:00:04.960"/>
  <entry producer="producer162" in="00:00:00.000" out="00:00:04.960"/>
  <entry producer="producer163" in="00:00:00.000" out="00:00:04.960"/>
  <entry producer="producer164" in="00:00:00.000" out="00:00:04.960"/>
  <entry producer="producer165" in="00:00:00.000" out="00:00:04.960"/>
  <entry producer="producer166" in="00:00:00.000" out="00:00:04.960"/>
  <entry producer="producer167" in="00:00:00.000" out="00:00:04.960"/>
  <entry producer="producer169" in="00:00:00.000" out="00:00:04.960"/>
  <entry producer="producer168" in="00:00:00.000" out="00:00:04.960"/>
  <entry producer="producer171" in="00:00:00.000" out="00:00:04.960"/>
  <entry producer="producer170" in="00:00:00.000" out="00:00:04.960"/>
  <entry producer="producer172" in="00:00:00.000" out="00:00:04.960"/>
  <entry producer="producer173" in="00:00:00.000" out="00:00:04.960"/>
  <entry producer="producer175" in="00:00:00.000" out="00:00:04.960"/>
  <entry producer="producer174" in="00:00:00.000" out="00:00:04.960"/>
  <entry producer="producer176" in="00:00:00.000" out="00:00:04.960"/>
  <entry producer="producer177" in="00:00:00.000" out="00:00:04.960"/>
  <entry producer="producer178" in="00:00:00.000" out="00:00:04.960"/>
  <entry producer="producer179" in="00:00:00.000" out="00:00:04.960"/>
  <entry producer="producer180" in="00:00:00.000" out="00:00:04.960"/>
  <entry producer="producer183" in="00:00:00.000" out="00:00:04.960"/>
  <entry producer="producer181" in="00:00:00.000" out="00:00:04.960"/>
  <entry producer="producer182" in="00:00:00.000" out="00:00:04.960"/>
  <entry producer="producer184" in="00:00:00.000" out="00:00:04.960"/>
  <entry producer="producer185" in="00:00:00.000" out="00:00:04.960"/>
  <entry producer="producer186" in="00:00:00.000" out="00:00:04.960"/>
  <entry producer="producer187" in="00:00:00.000" out="00:00:04.960"/>
  <entry producer="producer188" in="00:00:00.000" out="00:00:04.960"/>
  <entry producer="producer189" in="00:00:00.000" out="00:00:04.960"/>
  <entry producer="producer190" in="00:00:00.000" out="00:00:04.960"/>
  <entry producer="producer191" in="00:00:00.000" out="00:00:04.960"/>
  <entry producer="producer192" in="00:00:00.000" out="00:00:04.960"/>
  <entry producer="producer193" in="00:00:00.000" out="00:00:04.960"/>
  <entry producer="producer194" in="00:00:00.000" out="00:00:04.960"/>
  <entry producer="producer196" in="00:00:00.000" out="00:00:04.960"/>
  <entry producer="producer195" in="00:00:00.000" out="00:00:04.960"/>
  <entry producer="producer197" in="00:00:00.000" out="00:00:04.960"/>
  <entry producer="producer198" in="00:00:00.000" out="00:00:04.960"/>
  <entry producer="producer199" in="00:00:00.000" out="00:00:04.960"/>
  <entry producer="producer201" in="00:00:00.000" out="00:00:04.960"/>
  <entry producer="producer200" in="00:00:00.000" out="00:00:04.960"/>
  <entry producer="producer202" in="00:00:00.000" out="00:00:04.960"/>
  <entry producer="producer203" in="00:00:00.000" out="00:00:04.960"/>
  <entry producer="producer204" in="00:00:00.000" out="00:00:04.960"/>
  <entry producer="producer205" in="00:00:00.000" out="00:00:04.960"/>
  <entry producer="producer207" in="00:00:00.000" out="00:00:04.960"/>
  <entry producer="producer206" in="00:00:00.000" out="00:00:04.960"/>
  <entry producer="producer209" in="00:00:00.000" out="00:00:04.960"/>
  <entry producer="producer208" in="00:00:00.000" out="00:00:04.960"/>
  <entry producer="producer210" in="00:00:00.000" out="00:00:04.960"/>
  <entry producer="producer211" in="00:00:00.000" out="00:00:04.960"/>
  <entry producer="producer212" in="00:00:00.000" out="00:00:04.960"/>
  <entry producer="producer213" in="00:00:00.000" out="00:00:04.960"/>
  <entry producer="producer214" in="00:00:00.000" out="00:00:04.960"/>
  <entry producer="producer217" in="00:00:00.000" out="00:00:04.960"/>
  <entry producer="producer215" in="00:00:00.000" out="00:00:04.960"/>
  <entry producer="producer216" in="00:00:00.000" out="00:00:04.960"/>
  <entry producer="producer220" in="00:00:00.000" out="00:00:04.960"/>
  <entry producer="producer218" in="00:00:00.000" out="00:00:04.960"/>
  <entry producer="producer219" in="00:00:00.000" out="00:00:04.960"/>
  <entry producer="producer221" in="00:00:00.000" out="00:00:04.960"/>
  <entry producer="producer223" in="00:00:00.000" out="00:00:04.960"/>
  <entry producer="producer222" in="00:00:00.000" out="00:00:04.960"/>
  <entry producer="producer224" in="00:00:00.000" out="00:00:04.960"/>
  <entry producer="producer225" in="00:00:00.000" out="00:00:04.960"/>
  <entry producer="producer226" in="00:00:00.000" out="00:00:04.960"/>
  <entry producer="producer227" in="00:00:00.000" out="00:00:04.960"/>
  <entry producer="producer228" in="00:00:00.000" out="00:00:04.960"/>
  <entry producer="producer229" in="00:00:00.000" out="00:00:04.960"/>
  <entry producer="producer230" in="00:00:00.000" out="00:00:04.960"/>
  <entry producer="producer231" in="00:00:00.000" out="00:00:04.960"/>
  <entry producer="producer233" in="00:00:00.000" out="00:00:04.960"/>
  <entry producer="producer232" in="00:00:00.000" out="00:00:04.960"/>
  <entry producer="producer234" in="00:00:00.000" out="00:00:04.960"/>
  <entry producer="producer235" in="00:00:00.000" out="00:00:04.960"/>
  <entry producer="producer236" in="00:00:00.000" out="00:00:04.960"/>
  <entry producer="producer237" in="00:00:00.000" out="00:00:04.960"/>
  <entry producer="producer238" in="00:00:00.000" out="00:00:04.960"/>
  <entry producer="producer240" in="00:00:00.000" out="00:00:04.960"/>
  <entry producer="producer239" in="00:00:00.000" out="00:00:04.960"/>
  <entry producer="producer241" in="00:00:00.000" out="00:00:04.960"/>
  <entry producer="producer242" in="00:00:00.000" out="00:00:04.960"/>
  <entry producer="producer243" in="00:00:00.000" out="00:00:04.960"/>
  <entry producer="producer244" in="00:00:00.000" out="00:00:04.960"/>
  <entry producer="producer246" in="00:00:00.000" out="00:00:04.960"/>
  <entry producer="producer245" in="00:00:00.000" out="00:00:04.960"/>
  <entry producer="producer247" in="00:00:00.000" out="00:00:04.960"/>
  <entry producer="producer248" in="00:00:00.000" out="00:00:04.960"/>
  <entry producer="producer250" in="00:00:00.000" out="00:00:04.960"/>
  <entry producer="producer251" in="00:00:00.000" out="00:00:04.960"/>
  <entry producer="producer249" in="00:00:00.000" out="00:00:04.960"/>
  <entry producer="producer252" in="00:00:00.000" out="00:00:04.960"/>
  <entry producer="producer253" in="00:00:00.000" out="00:00:04.960"/>
  <entry producer="producer254" in="00:00:00.000" out="00:00:04.960"/>
  <entry producer="producer255" in="00:00:00.000" out="00:00:04.960"/>
  <entry producer="producer256" in="00:00:00.000" out="00:00:04.960"/>
  <entry producer="producer257" in="00:00:00.000" out="00:00:05.120"/>
  <entry producer="producer258" in="00:00:00.000" out="00:00:05.200"/>
  <entry producer="producer259" in="00:00:00.000" out="00:00:04.960"/>
  <entry producer="producer260" in="00:00:00.000" out="00:00:04.960"/>
  <entry producer="producer262" in="00:00:00.000" out="00:00:04.960"/>
  <entry producer="producer261" in="00:00:00.000" out="00:00:04.960"/>
  <entry producer="producer263" in="00:00:00.000" out="00:00:04.960"/>
  <entry producer="producer264" in="00:00:00.000" out="00:00:04.960"/>
  <entry producer="producer265" in="00:00:00.000" out="00:00:04.960"/>
  <entry producer="producer266" in="00:00:00.000" out="00:00:04.960"/>
  <entry producer="producer267" in="00:00:00.000" out="00:00:04.960"/>
  <entry producer="producer268" in="00:00:00.000" out="00:00:04.960"/>
  <entry producer="producer269" in="00:00:00.000" out="00:00:04.960"/>
  <entry producer="producer270" in="00:00:00.000" out="00:00:04.960"/>
  <entry producer="producer273" in="00:00:00.000" out="00:00:04.960"/>
  <entry producer="producer271" in="00:00:00.000" out="00:00:04.960"/>
  <entry producer="producer272" in="00:00:00.000" out="00:00:04.960"/>
  <entry producer="producer274" in="00:00:00.000" out="00:00:04.960"/>
  <entry producer="producer276" in="00:00:00.000" out="00:00:04.960"/>
  <entry producer="producer275" in="00:00:00.000" out="00:00:04.960"/>
  <entry producer="producer277" in="00:00:00.000" out="00:00:04.960"/>
  <entry producer="producer278" in="00:00:00.000" out="00:00:04.960"/>
  <entry producer="producer279" in="00:00:00.000" out="00:00:04.960"/>
  <entry producer="producer280" in="00:00:00.000" out="00:00:04.960"/>
  <entry producer="producer281" in="00:00:00.000" out="00:00:04.960"/>
  <entry producer="producer282" in="00:00:00.000" out="00:00:04.960"/>
  <entry producer="producer283" in="00:00:00.000" out="00:00:04.960"/>
  <entry producer="producer284" in="00:00:00.000" out="00:00:04.960"/>
  <entry producer="producer285" in="00:00:00.000" out="00:00:04.960"/>
  <entry producer="producer287" in="00:00:00.000" out="00:00:04.960"/>
  <entry producer="producer286" in="00:00:00.000" out="00:00:04.960"/>
  <entry producer="producer288" in="00:00:00.000" out="00:00:04.960"/>
  <entry producer="producer289" in="00:00:00.000" out="00:00:04.960"/>
  <entry producer="producer290" in="00:00:00.000" out="00:00:04.960"/>
  <entry producer="producer291" in="00:00:00.000" out="00:00:04.960"/>
  <entry producer="producer292" in="00:00:00.000" out="00:00:04.960"/>
  <entry producer="producer294" in="00:00:00.000" out="00:00:04.960"/>
  <entry producer="producer293" in="00:00:00.000" out="00:00:04.960"/>
  <entry producer="producer295" in="00:00:00.000" out="00:00:04.960"/>
  <entry producer="producer297" in="00:00:00.000" out="00:00:04.960"/>
  <entry producer="producer296" in="00:00:00.000" out="00:00:04.960"/>
  <entry producer="producer298" in="00:00:00.000" out="00:00:04.960"/>
  <entry producer="producer299" in="00:00:00.000" out="00:00:04.960"/>
  <entry producer="producer300" in="00:00:00.000" out="00:00:04.960"/>
  <entry producer="producer301" in="00:00:00.000" out="00:00:04.960"/>
  <entry producer="producer302" in="00:00:00.000" out="00:00:04.960"/>
  <entry producer="producer303" in="00:00:00.000" out="00:00:04.960"/>
  <entry producer="producer304" in="00:00:00.000" out="00:00:04.960"/>
  <entry producer="producer306" in="00:00:00.000" out="00:00:04.960"/>
  <entry producer="producer305" in="00:00:00.000" out="00:00:04.960"/>
  <entry producer="producer307" in="00:00:00.000" out="00:00:04.960"/>
  <entry producer="producer308" in="00:00:00.000" out="00:00:04.960"/>
  <entry producer="producer309" in="00:00:00.000" out="00:00:04.960"/>
  <entry producer="producer311" in="00:00:00.000" out="00:00:04.960"/>
  <entry producer="producer310" in="00:00:00.000" out="00:00:04.960"/>
  <entry producer="producer312" in="00:00:00.000" out="00:00:04.960"/>
  <entry producer="producer313" in="00:00:00.000" out="00:00:04.960"/>
  <entry producer="producer315" in="00:00:00.000" out="00:00:04.960"/>
  <entry producer="producer314" in="00:00:00.000" out="00:00:04.960"/>
  <entry producer="producer317" in="00:00:00.000" out="00:00:04.960"/>
  <entry producer="producer318" in="00:00:00.000" out="00:00:04.960"/>
  <entry producer="producer316" in="00:00:00.000" out="00:00:04.960"/>
  <entry producer="producer319" in="00:00:00.000" out="00:00:04.960"/>
  <entry producer="producer320" in="00:00:00.000" out="00:00:04.960"/>
  <entry producer="producer321" in="00:00:00.000" out="00:00:04.960"/>
  <entry producer="producer322" in="00:00:00.000" out="00:00:04.960"/>
  <entry producer="producer323" in="00:00:00.000" out="00:00:04.960"/>
  <entry producer="producer324" in="00:00:00.000" out="00:00:04.960"/>
  <entry producer="producer326" in="00:00:00.000" out="00:00:04.960"/>
  <entry producer="producer325" in="00:00:00.000" out="00:00:04.960"/>
  <entry producer="producer327" in="00:00:00.000" out="00:00:04.960"/>
  <entry producer="producer328" in="00:00:00.000" out="00:00:04.960"/>
  <entry producer="producer329" in="00:00:00.000" out="00:00:04.960"/>
  <entry producer="producer330" in="00:00:00.000" out="00:00:04.960"/>
  <entry producer="producer332" in="00:00:00.000" out="00:00:04.960"/>
  <entry producer="producer331" in="00:00:00.000" out="00:00:04.960"/>
  <entry producer="producer333" in="00:00:00.000" out="00:00:04.960"/>
  <entry producer="producer334" in="00:00:00.000" out="00:00:04.960"/>
  <entry producer="producer335" in="00:00:00.000" out="00:00:04.960"/>
  <entry producer="producer336" in="00:00:00.000" out="00:00:04.960"/>
  <entry producer="producer337" in="00:00:00.000" out="00:00:04.960"/>
  <entry producer="producer338" in="00:00:00.000" out="00:00:04.960"/>
  <entry producer="producer339" in="00:00:00.000" out="00:00:04.960"/>
  <entry producer="producer341" in="00:00:00.000" out="00:00:04.960"/>
  <entry producer="producer340" in="00:00:00.000" out="00:00:04.960"/>
  <entry producer="producer342" in="00:00:00.000" out="00:00:05.240"/>
  <entry producer="producer343" in="00:00:00.000" out="00:00:04.960"/>
  <entry producer="producer344" in="00:00:00.000" out="00:00:04.960"/>
  <entry producer="producer345" in="00:00:00.000" out="00:00:04.960"/>
  <entry producer="producer346" in="00:00:00.000" out="00:00:04.960"/>
  <entry producer="producer347" in="00:00:00.000" out="00:00:04.960"/>
  <entry producer="producer348" in="00:00:00.000" out="00:00:04.960"/>
  <entry producer="producer350" in="00:00:00.000" out="00:00:04.960"/>
  <entry producer="producer349" in="00:00:00.000" out="00:00:04.960"/>
  <entry producer="producer351" in="00:00:00.000" out="00:00:04.960"/>
  <entry producer="producer352" in="00:00:00.000" out="00:00:04.960"/>
  <entry producer="producer353" in="00:00:00.000" out="00:00:04.960"/>
  <entry producer="producer354" in="00:00:00.000" out="00:00:04.960"/>
  <entry producer="producer355" in="00:00:00.000" out="00:00:04.960"/>
  <entry producer="producer356" in="00:00:00.000" out="00:00:04.960"/>
  <entry producer="producer358" in="00:00:00.000" out="00:00:04.960"/>
  <entry producer="producer357" in="00:00:00.000" out="00:00:04.960"/>
  <entry producer="producer359" in="00:00:00.000" out="00:00:04.960"/>
  <entry producer="producer362" in="00:00:00.000" out="00:00:04.960"/>
  <entry producer="producer360" in="00:00:00.000" out="00:00:04.960"/>
  <entry producer="producer361" in="00:00:00.000" out="00:00:04.960"/>
  <entry producer="producer363" in="00:00:00.000" out="00:00:04.960"/>
  <entry producer="producer365" in="00:00:00.000" out="00:00:04.960"/>
  <entry producer="producer364" in="00:00:00.000" out="00:00:04.960"/>
  <entry producer="producer366" in="00:00:00.000" out="00:00:04.960"/>
  <entry producer="producer367" in="00:00:00.000" out="00:00:04.960"/>
  <entry producer="producer369" in="00:00:00.000" out="00:00:04.960"/>
  <entry producer="producer368" in="00:00:00.000" out="00:00:04.960"/>
  <entry producer="producer370" in="00:00:00.000" out="00:00:04.960"/>
  <entry producer="producer372" in="00:00:00.000" out="00:00:04.960"/>
  <entry producer="producer371" in="00:00:00.000" out="00:00:04.960"/>
  <entry producer="producer373" in="00:00:00.000" out="00:00:04.960"/>
  <entry producer="producer374" in="00:00:00.000" out="00:00:04.960"/>
  <entry producer="producer375" in="00:00:00.000" out="00:00:04.960"/>
  <entry producer="producer377" in="00:00:00.000" out="00:00:04.960"/>
  <entry producer="producer376" in="00:00:00.000" out="00:00:04.960"/>
  <entry producer="producer378" in="00:00:00.000" out="00:00:04.960"/>
  <entry producer="producer379" in="00:00:00.000" out="00:00:05.240"/>
  <entry producer="producer380" in="00:00:00.000" out="00:00:04.960"/>
  <entry producer="producer381" in="00:00:00.000" out="00:00:04.960"/>
  <entry producer="producer382" in="00:00:00.000" out="00:00:04.960"/>
  <entry producer="producer384" in="00:00:00.000" out="00:00:04.960"/>
  <entry producer="producer383" in="00:00:00.000" out="00:00:05.960"/>
  <entry producer="producer385" in="00:00:00.000" out="00:00:04.960"/>
  <entry producer="producer386" in="00:00:00.000" out="00:00:04.960"/>
  <entry producer="producer387" in="00:00:00.000" out="00:00:04.960"/>
  <entry producer="producer389" in="00:00:00.000" out="00:00:04.960"/>
  <entry producer="producer388" in="00:00:00.000" out="00:00:04.960"/>
  <entry producer="producer390" in="00:00:00.000" out="00:33:54.760"/>
  <entry producer="producer391" in="00:00:00.000" out="00:00:04.960"/>
  <entry producer="producer392" in="00:00:00.000" out="00:00:04.960"/>
  <entry producer="producer393" in="00:00:00.000" out="00:00:04.960"/>
  <entry producer="producer394" in="00:00:00.000" out="00:00:04.960"/>
  <entry producer="producer395" in="00:00:00.000" out="00:00:04.960"/>
  <entry producer="producer396" in="00:00:00.000" out="00:00:04.960"/>
  <entry producer="producer397" in="00:00:00.000" out="00:00:04.960"/>
  <entry producer="producer398" in="00:00:00.000" out="00:00:04.960"/>
  <entry producer="producer399" in="00:00:00.000" out="00:00:04.960"/>
  <entry producer="producer400" in="00:00:00.000" out="00:00:04.960"/>
  <entry producer="producer401" in="00:00:00.000" out="00:00:04.960"/>
  <entry producer="producer402" in="00:00:00.000" out="00:00:04.960"/>
  <entry producer="producer403" in="00:00:00.000" out="00:00:04.960"/>
  <entry producer="producer404" in="00:00:00.000" out="00:00:04.960"/>
  <entry producer="producer405" in="00:00:00.000" out="00:00:04.960"/>
  <entry producer="producer406" in="00:00:00.000" out="00:00:04.960"/>
  <entry producer="producer407" in="00:00:00.000" out="00:00:04.960"/>
  <entry producer="producer408" in="00:00:00.000" out="00:00:04.960"/>
  <entry producer="producer409" in="00:00:00.000" out="00:00:04.960"/>
  <entry producer="producer410" in="00:00:00.000" out="00:00:04.960"/>
 </playlist>
 <producer id="black_track" in="00:00:00.000" out="00:48:28.320">
  <property name="length">2147483647</property>
  <property name="eof">continue</property>
  <property name="resource">black</property>
  <property name="aspect_ratio">1</property>
  <property name="mlt_service">color</property>
  <property name="mlt_image_format">rgba</property>
  <property name="set.test_audio">0</property>
 </producer>
 <producer id="producer411" in="00:00:00.000" out="00:01:32.200">
  <property name="length">2306</property>
  <property name="eof">pause</property>
  <property name="resource">/home/liquidzulu/Music/The Mini Vandals/In Memory of Jean Talon - The Mini Vandals.mp3</property>
  <property name="audio_index">0</property>
  <property name="video_index">-1</property>
  <property name="mute_on_pause">0</property>
  <property name="mlt_service">avformat-novalidate</property>
  <property name="meta.media.nb_streams">1</property>
  <property name="meta.media.0.stream.type">audio</property>
  <property name="meta.media.0.codec.sample_fmt">fltp</property>
  <property name="meta.media.0.codec.sample_rate">44100</property>
  <property name="meta.media.0.codec.channels">2</property>
  <property name="meta.media.0.codec.name">mp3float</property>
  <property name="meta.media.0.codec.long_name">MP3 (MPEG audio layer 3)</property>
  <property name="meta.media.0.codec.bit_rate">320000</property>
  <property name="meta.attr.0.stream.encoder.markup">Lavf</property>
  <property name="meta.attr.encoder.markup">Google</property>
  <property name="seekable">1</property>
  <property name="kdenlive:clipname"/>
  <property name="kdenlive:clip_type">1</property>
  <property name="kdenlive:folderid">-1</property>
  <property name="kdenlive:id">3</property>
  <property name="kdenlive:file_size">3690616</property>
  <property name="kdenlive:file_hash">df84791d461281a3def6977dac75974d</property>
  <property name="xml">was here</property>
  <property name="set.test_audio">0</property>
  <property name="set.test_image">1</property>
 </producer>
 <producer id="producer412" in="00:00:00.000" out="00:47:33.000">
  <property name="length">71326</property>
  <property name="eof">pause</property>
  <property name="resource">/home/liquidzulu/Videos/yt/vid-store/Why Artists Shouldn't Own Their Art.mp4</property>
  <property name="audio_index">1</property>
  <property name="video_index">0</property>
  <property name="mute_on_pause">0</property>
  <property name="mlt_service">avformat-novalidate</property>
  <property name="seekable">1</property>
  <property name="aspect_ratio">1</property>
  <property name="kdenlive:clipname"/>
  <property name="kdenlive:clip_type">0</property>
  <property name="kdenlive:folderid">-1</property>
  <property name="kdenlive:id">87</property>
  <property name="kdenlive:file_size">440069300</property>
  <property name="kdenlive:file_hash">fc6d44d9da892bda6f38739a588c9a41</property>
  <property name="kdenlive:audio_max1">244</property>
  <property name="xml">was here</property>
  <property name="meta.media.nb_streams">2</property>
  <property name="meta.media.0.stream.type">video</property>
  <property name="meta.media.0.stream.frame_rate">30</property>
  <property name="meta.media.0.stream.sample_aspect_ratio">0</property>
  <property name="meta.media.0.codec.width">1280</property>
  <property name="meta.media.0.codec.height">720</property>
  <property name="meta.media.0.codec.rotate">0</property>
  <property name="meta.media.0.codec.pix_fmt">yuv420p</property>
  <property name="meta.media.0.codec.sample_aspect_ratio">1</property>
  <property name="meta.media.0.codec.colorspace">709</property>
  <property name="meta.media.0.codec.color_trc">1</property>
  <property name="meta.media.0.codec.name">h264</property>
  <property name="meta.media.0.codec.long_name">H.264 / AVC / MPEG-4 AVC / MPEG-4 part 10</property>
  <property name="meta.media.0.codec.bit_rate">1102649</property>
  <property name="meta.attr.0.stream.creation_time.markup">2022-12-04T00:57:48.000000Z</property>
  <property name="meta.attr.0.stream.handler_name.markup">ISO Media file produced by Google Inc. Created on: 12/03/2022.</property>
  <property name="meta.attr.0.stream.vendor_id.markup">[0][0][0][0]</property>
  <property name="meta.media.1.stream.type">audio</property>
  <property name="meta.media.1.codec.sample_fmt">fltp</property>
  <property name="meta.media.1.codec.sample_rate">44100</property>
  <property name="meta.media.1.codec.channels">2</property>
  <property name="meta.media.1.codec.name">aac</property>
  <property name="meta.media.1.codec.long_name">AAC (Advanced Audio Coding)</property>
  <property name="meta.media.1.codec.bit_rate">127999</property>
  <property name="meta.attr.1.stream.creation_time.markup">2022-12-04T00:57:48.000000Z</property>
  <property name="meta.attr.1.stream.handler_name.markup">ISO Media file produced by Google Inc. Created on: 12/03/2022.</property>
  <property name="meta.attr.1.stream.vendor_id.markup">[0][0][0][0]</property>
  <property name="meta.attr.major_brand.markup">mp42</property>
  <property name="meta.attr.minor_version.markup">0</property>
  <property name="meta.attr.compatible_brands.markup">isommp42</property>
  <property name="meta.attr.creation_time.markup">2022-12-04T00:57:48.000000Z</property>
  <property name="meta.media.sample_aspect_num">1</property>
  <property name="meta.media.sample_aspect_den">1</property>
  <property name="meta.media.frame_rate_num">30</property>
  <property name="meta.media.frame_rate_den">1</property>
  <property name="meta.media.colorspace">709</property>
  <property name="meta.media.color_trc">1</property>
  <property name="meta.media.has_b_frames">1</property>
  <property name="meta.media.width">1280</property>
  <property name="meta.media.height">720</property>
  <property name="meta.media.color_range">mpeg</property>
  <property name="meta.media.top_field_first">0</property>
  <property name="meta.media.progressive">1</property>
  <property name="set.test_audio">0</property>
  <property name="set.test_image">1</property>
 </producer>
 <playlist id="playlist0">
  <property name="kdenlive:audio_track">1</property>
  <entry producer="producer411" in="00:00:00.000" out="00:00:14.560">
   <property name="kdenlive:id">3</property>
   <filter id="filter0" in="00:00:09.480" out="00:00:14.560">
    <property name="window">75</property>
    <property name="max_gain">20dB</property>
    <property name="mlt_service">volume</property>
    <property name="kdenlive_id">fadeout</property>
    <property name="gain">1</property>
    <property name="end">0</property>
    <property name="kdenlive:collapsed">0</property>
   </filter>
   <filter id="filter1">
    <property name="window">75</property>
    <property name="max_gain">20dB</property>
    <property name="level">00:00:00.000=-9</property>
    <property name="mlt_service">volume</property>
    <property name="kdenlive_id">volume</property>
    <property name="kdenlive:collapsed">0</property>
   </filter>
   <filter id="filter2" out="00:00:01.400">
    <property name="window">75</property>
    <property name="max_gain">20dB</property>
    <property name="mlt_service">volume</property>
    <property name="kdenlive_id">fadein</property>
    <property name="gain">0</property>
    <property name="end">1</property>
    <property name="kdenlive:collapsed">0</property>
   </filter>
  </entry>
  <blank length="00:25:49.440"/>
  <entry producer="producer412" in="00:00:29.160" out="00:02:38.320">
   <property name="kdenlive:id">87</property>
   <filter id="filter3" in="00:00:29.160" out="00:00:29.440">
    <property name="window">75</property>
    <property name="max_gain">20dB</property>
    <property name="mlt_service">volume</property>
    <property name="kdenlive_id">fadein</property>
    <property name="gain">0</property>
    <property name="end">1</property>
   </filter>
  </entry>
 </playlist>
 <playlist id="playlist1">
  <property name="kdenlive:audio_track">1</property>
 </playlist>
 <tractor id="tractor0" in="00:00:00.000" out="00:28:13.200">
  <property name="kdenlive:audio_track">1</property>
  <property name="kdenlive:trackheight">67</property>
  <property name="kdenlive:timeline_active">1</property>
  <property name="kdenlive:collapsed">0</property>
  <property name="kdenlive:thumbs_format"/>
  <property name="kdenlive:audio_rec"/>
  <track hide="video" producer="playlist0"/>
  <track hide="video" producer="playlist1"/>
  <filter id="filter4">
   <property name="window">75</property>
   <property name="max_gain">20dB</property>
   <property name="mlt_service">volume</property>
   <property name="internal_added">237</property>
   <property name="disable">1</property>
  </filter>
  <filter id="filter5">
   <property name="channel">-1</property>
   <property name="mlt_service">panner</property>
   <property name="internal_added">237</property>
   <property name="start">0.5</property>
   <property name="disable">1</property>
  </filter>
  <filter id="filter6">
   <property name="iec_scale">0</property>
   <property name="mlt_service">audiolevel</property>
   <property name="disable">1</property>
  </filter>
 </tractor>
 <producer id="producer413" in="00:00:00.000" out="00:00:27.040">
  <property name="length">677</property>
  <property name="eof">pause</property>
  <property name="resource">/home/liquidzulu/Documents/youtube-scripts/courses/libertarian-ethics/audio/proc/Audio/titles.proc.mp3</property>
  <property name="audio_index">0</property>
  <property name="video_index">-1</property>
  <property name="mute_on_pause">0</property>
  <property name="mlt_service">avformat-novalidate</property>
  <property name="meta.media.nb_streams">1</property>
  <property name="meta.media.0.stream.type">audio</property>
  <property name="meta.media.0.codec.sample_fmt">fltp</property>
  <property name="meta.media.0.codec.sample_rate">44100</property>
  <property name="meta.media.0.codec.channels">2</property>
  <property name="meta.media.0.codec.name">mp3float</property>
  <property name="meta.media.0.codec.long_name">MP3 (MPEG audio layer 3)</property>
  <property name="meta.media.0.codec.bit_rate">192000</property>
  <property name="meta.attr.encoded_by.markup">LAME in FL Studio 21</property>
  <property name="meta.attr.date.markup">2023</property>
  <property name="seekable">1</property>
  <property name="kdenlive:clipname"/>
  <property name="kdenlive:clip_type">1</property>
  <property name="kdenlive:folderid">-1</property>
  <property name="kdenlive:id">2</property>
  <property name="kdenlive:file_size">650191</property>
  <property name="kdenlive:file_hash">92444ccf553bde8b33231fe6f867b916</property>
  <property name="kdenlive:audio_max0">177</property>
  <property name="xml">was here</property>
  <property name="set.test_audio">0</property>
  <property name="set.test_image">1</property>
 </producer>
 <producer id="producer414" in="00:00:00.000" out="00:21:45.360">
  <property name="length">32635</property>
  <property name="eof">pause</property>
  <property name="resource">/home/liquidzulu/Documents/youtube-scripts/courses/libertarian-ethics/audio/proc/Audio/homesteading-and-property-rights.proc.mp3</property>
  <property name="audio_index">0</property>
  <property name="video_index">-1</property>
  <property name="mute_on_pause">0</property>
  <property name="mlt_service">avformat-novalidate</property>
  <property name="meta.media.nb_streams">1</property>
  <property name="meta.media.0.stream.type">audio</property>
  <property name="meta.media.0.codec.sample_fmt">fltp</property>
  <property name="meta.media.0.codec.sample_rate">44100</property>
  <property name="meta.media.0.codec.channels">2</property>
  <property name="meta.media.0.codec.name">mp3float</property>
  <property name="meta.media.0.codec.long_name">MP3 (MPEG audio layer 3)</property>
  <property name="meta.media.0.codec.bit_rate">192000</property>
  <property name="meta.attr.encoded_by.markup">LAME in FL Studio 21</property>
  <property name="meta.attr.date.markup">2023</property>
  <property name="seekable">1</property>
  <property name="kdenlive:clipname"/>
  <property name="kdenlive:clip_type">1</property>
  <property name="kdenlive:folderid">-1</property>
  <property name="kdenlive:id">5</property>
  <property name="kdenlive:file_size">31329440</property>
  <property name="kdenlive:file_hash">5f6c7223ac7c84612bdc6e8c3ec623ed</property>
  <property name="kdenlive:audio_max0">198</property>
  <property name="xml">was here</property>
  <property name="set.test_audio">0</property>
  <property name="set.test_image">1</property>
 </producer>
 <producer id="producer415" in="00:00:00.000" out="00:04:19.600">
  <property name="length">6491</property>
  <property name="eof">pause</property>
  <property name="resource">/home/liquidzulu/Documents/youtube-scripts/courses/libertarian-ethics/audio/proc/Audio/missing-quotes.proc.mp3</property>
  <property name="audio_index">0</property>
  <property name="video_index">-1</property>
  <property name="mute_on_pause">0</property>
  <property name="mlt_service">avformat-novalidate</property>
  <property name="meta.media.nb_streams">1</property>
  <property name="meta.media.0.stream.type">audio</property>
  <property name="meta.media.0.codec.sample_fmt">fltp</property>
  <property name="meta.media.0.codec.sample_rate">44100</property>
  <property name="meta.media.0.codec.channels">2</property>
  <property name="meta.media.0.codec.name">mp3float</property>
  <property name="meta.media.0.codec.long_name">MP3 (MPEG audio layer 3)</property>
  <property name="meta.media.0.codec.bit_rate">192000</property>
  <property name="meta.attr.encoded_by.markup">LAME in FL Studio 21</property>
  <property name="meta.attr.date.markup">2023</property>
  <property name="seekable">1</property>
  <property name="kdenlive:clipname"/>
  <property name="kdenlive:clip_type">1</property>
  <property name="kdenlive:folderid">-1</property>
  <property name="kdenlive:id">94</property>
  <property name="kdenlive:file_size">6231827</property>
  <property name="kdenlive:file_hash">ed5739f443a135e606c31ae4e81fbd9c</property>
  <property name="kdenlive:audio_max0">203</property>
  <property name="xml">was here</property>
  <property name="set.test_audio">0</property>
  <property name="set.test_image">1</property>
 </producer>
 <producer id="producer416" in="00:00:00.000" out="00:01:32.200">
  <property name="length">2306</property>
  <property name="eof">pause</property>
  <property name="resource">/home/liquidzulu/Music/The Mini Vandals/In Memory of Jean Talon - The Mini Vandals.mp3</property>
  <property name="audio_index">0</property>
  <property name="video_index">-1</property>
  <property name="mute_on_pause">0</property>
  <property name="mlt_service">avformat-novalidate</property>
  <property name="meta.media.nb_streams">1</property>
  <property name="meta.media.0.stream.type">audio</property>
  <property name="meta.media.0.codec.sample_fmt">fltp</property>
  <property name="meta.media.0.codec.sample_rate">44100</property>
  <property name="meta.media.0.codec.channels">2</property>
  <property name="meta.media.0.codec.name">mp3float</property>
  <property name="meta.media.0.codec.long_name">MP3 (MPEG audio layer 3)</property>
  <property name="meta.media.0.codec.bit_rate">320000</property>
  <property name="meta.attr.0.stream.encoder.markup">Lavf</property>
  <property name="meta.attr.encoder.markup">Google</property>
  <property name="seekable">1</property>
  <property name="kdenlive:clipname"/>
  <property name="kdenlive:clip_type">1</property>
  <property name="kdenlive:folderid">-1</property>
  <property name="kdenlive:id">3</property>
  <property name="kdenlive:file_size">3690616</property>
  <property name="kdenlive:file_hash">df84791d461281a3def6977dac75974d</property>
  <property name="kdenlive:audio_max0">201</property>
  <property name="xml">was here</property>
  <property name="set.test_audio">0</property>
  <property name="set.test_image">1</property>
 </producer>
 <playlist id="playlist2">
  <property name="kdenlive:audio_track">1</property>
  <blank length="00:00:14.040"/>
  <entry producer="producer413" in="00:00:06.640" out="00:00:09.160">
   <property name="kdenlive:id">2</property>
  </entry>
  <blank length="00:00:00.640"/>
  <entry producer="producer414" in="00:00:00.000" out="00:00:20.880">
   <property name="kdenlive:id">5</property>
   <filter id="filter7" out="00:00:00.040">
    <property name="window">75</property>
    <property name="max_gain">20dB</property>
    <property name="mlt_service">volume</property>
    <property name="kdenlive_id">fadein</property>
    <property name="gain">0</property>
    <property name="end">1</property>
    <property name="kdenlive:collapsed">0</property>
   </filter>
  </entry>
  <blank length="00:00:00.600"/>
  <entry producer="producer414" in="00:00:20.920" out="00:04:59.200">
   <property name="kdenlive:id">5</property>
  </entry>
  <entry producer="producer414" in="00:04:59.440" out="00:06:34.200">
   <property name="kdenlive:id">5</property>
  </entry>
  <entry producer="producer415" in="00:00:00.000" out="00:02:22.040">
   <property name="kdenlive:id">94</property>
  </entry>
  <entry producer="producer414" in="00:06:39.280" out="00:13:44.040">
   <property name="kdenlive:id">5</property>
   <filter id="filter8" in="00:06:39.280" out="00:06:39.400">
    <property name="window">75</property>
    <property name="max_gain">20dB</property>
    <property name="mlt_service">volume</property>
    <property name="kdenlive_id">fadein</property>
    <property name="gain">0</property>
    <property name="end">1</property>
   </filter>
  </entry>
  <entry producer="producer415" in="00:02:29.560" out="00:04:19.600">
   <property name="kdenlive:id">94</property>
   <filter id="filter9" in="00:02:29.560" out="00:02:29.720">
    <property name="window">75</property>
    <property name="max_gain">20dB</property>
    <property name="mlt_service">volume</property>
    <property name="kdenlive_id">fadein</property>
    <property name="gain">0</property>
    <property name="end">1</property>
   </filter>
  </entry>
  <entry producer="producer414" in="00:13:50.200" out="00:21:45.360">
   <property name="kdenlive:id">5</property>
   <filter id="filter10" in="00:13:50.200" out="00:13:50.480">
    <property name="window">75</property>
    <property name="max_gain">20dB</property>
    <property name="mlt_service">volume</property>
    <property name="kdenlive_id">fadein</property>
    <property name="gain">0</property>
    <property name="end">1</property>
   </filter>
  </entry>
  <blank length="00:02:09.680"/>
  <entry producer="producer416" in="00:00:00.000" out="00:00:14.560">
   <property name="kdenlive:id">3</property>
   <filter id="filter34" in="00:00:09.480" out="00:00:14.560">
    <property name="window">75</property>
    <property name="max_gain">20dB</property>
    <property name="mlt_service">volume</property>
    <property name="kdenlive_id">fadeout</property>
    <property name="gain">1</property>
    <property name="end">0</property>
    <property name="kdenlive:collapsed">0</property>
   </filter>
   <filter id="filter35">
    <property name="window">75</property>
    <property name="max_gain">20dB</property>
    <property name="level">00:00:00.000=-9</property>
    <property name="mlt_service">volume</property>
    <property name="kdenlive_id">volume</property>
    <property name="kdenlive:collapsed">0</property>
   </filter>
   <filter id="filter36" out="00:00:01.400">
    <property name="window">75</property>
    <property name="max_gain">20dB</property>
    <property name="mlt_service">volume</property>
    <property name="kdenlive_id">fadein</property>
    <property name="gain">0</property>
    <property name="end">1</property>
    <property name="kdenlive:collapsed">0</property>
   </filter>
  </entry>
 </playlist>
 <playlist id="playlist3">
  <property name="kdenlive:audio_track">1</property>
 </playlist>
 <tractor id="tractor1" in="00:00:00.000" out="00:28:28.280">
  <property name="kdenlive:audio_track">1</property>
  <property name="kdenlive:trackheight">67</property>
  <property name="kdenlive:timeline_active">1</property>
  <property name="kdenlive:collapsed">0</property>
  <property name="kdenlive:thumbs_format"/>
  <property name="kdenlive:audio_rec"/>
  <track hide="video" producer="playlist2"/>
  <track hide="video" producer="playlist3"/>
  <filter id="filter37">
   <property name="window">75</property>
   <property name="max_gain">20dB</property>
   <property name="mlt_service">volume</property>
   <property name="internal_added">237</property>
   <property name="disable">1</property>
  </filter>
  <filter id="filter38">
   <property name="channel">-1</property>
   <property name="mlt_service">panner</property>
   <property name="internal_added">237</property>
   <property name="start">0.5</property>
   <property name="disable">1</property>
  </filter>
  <filter id="filter11">
   <property name="iec_scale">0</property>
   <property name="mlt_service">audiolevel</property>
   <property name="disable">1</property>
  </filter>
 </tractor>
 <playlist id="playlist4">
  <entry producer="producer51" in="00:00:00.000" out="00:00:12.640">
   <property name="kdenlive:id">4</property>
   <filter id="filter40" in="00:00:10.960" out="00:00:12.640">
    <property name="start">1</property>
    <property name="level">1</property>
    <property name="mlt_service">brightness</property>
    <property name="kdenlive_id">fade_to_black</property>
    <property name="alpha">00:00:00.000=1;00:00:01.680=0</property>
    <property name="kdenlive:collapsed">0</property>
   </filter>
   <filter id="filter41" out="00:00:00.480">
    <property name="start">1</property>
    <property name="level">1</property>
    <property name="mlt_service">brightness</property>
    <property name="kdenlive_id">fade_from_black</property>
    <property name="alpha">00:00:00.000=0;00:00:00.480=1</property>
    <property name="kdenlive:collapsed">0</property>
   </filter>
  </entry>
  <blank length="00:00:01.080"/>
  <entry producer="producer2" in="00:00:00.000" out="00:00:03.160">
   <property name="kdenlive:id">7</property>
   <filter id="filter42" out="00:00:00.640">
    <property name="start">1</property>
    <property name="level">1</property>
    <property name="mlt_service">brightness</property>
    <property name="kdenlive_id">fade_from_black</property>
    <property name="alpha">00:00:00.000=0;00:00:00.640=1</property>
    <property name="kdenlive:collapsed">0</property>
   </filter>
   <filter id="filter43" in="00:00:02.760" out="00:00:03.160">
    <property name="start">1</property>
    <property name="level">1</property>
    <property name="mlt_service">brightness</property>
    <property name="kdenlive_id">fade_to_black</property>
    <property name="alpha">00:00:00.000=1;00:00:00.400=0</property>
    <property name="kdenlive:collapsed">0</property>
   </filter>
  </entry>
  <blank length="00:00:00.280"/>
  <entry producer="producer3" in="00:00:00.000" out="00:00:21.720">
   <property name="kdenlive:id">18</property>
   <filter id="filter44" out="00:00:00.560">
    <property name="start">1</property>
    <property name="level">1</property>
    <property name="mlt_service">brightness</property>
    <property name="kdenlive_id">fade_from_black</property>
    <property name="alpha">00:00:00.000=0;00:00:00.560=1</property>
   </filter>
  </entry>
  <entry producer="producer5" in="00:00:00.000" out="00:00:27.160">
   <property name="kdenlive:id">29</property>
  </entry>
  <entry producer="producer4" in="00:00:00.000" out="00:00:30.320">
   <property name="kdenlive:id">40</property>
  </entry>
  <entry producer="producer7" in="00:00:00.000" out="00:00:53.320">
   <property name="kdenlive:id">50</property>
  </entry>
  <entry producer="producer6" in="00:00:00.000" out="00:00:09.680">
   <property name="kdenlive:id">61</property>
  </entry>
  <entry producer="producer69" in="00:00:00.000" out="00:00:09.200">
   <property name="kdenlive:id">72</property>
  </entry>
  <entry producer="producer77" in="00:00:00.000" out="00:00:08.480">
   <property name="kdenlive:id">80</property>
  </entry>
  <entry producer="producer78" in="00:00:00.000" out="00:00:02.880">
   <property name="kdenlive:id">81</property>
  </entry>
  <entry producer="producer11" in="00:00:00.000" out="00:00:34.240">
   <property name="kdenlive:id">8</property>
  </entry>
  <entry producer="producer8" in="00:00:00.000" out="00:00:03.760">
   <property name="kdenlive:id">9</property>
  </entry>
  <entry producer="producer9" in="00:00:00.000" out="00:00:35.000">
   <property name="kdenlive:id">10</property>
  </entry>
  <entry producer="producer79" in="00:00:00.000" out="00:00:21.400">
   <property name="kdenlive:id">11</property>
  </entry>
  <entry producer="producer10" in="00:00:00.000" out="00:00:20.760">
   <property name="kdenlive:id">12</property>
  </entry>
  <entry producer="producer12" in="00:00:00.000" out="00:00:14.280">
   <property name="kdenlive:id">13</property>
  </entry>
  <entry producer="producer16" in="00:00:00.000" out="00:00:07.040">
   <property name="kdenlive:id">14</property>
  </entry>
  <entry producer="producer13" in="00:00:00.000" out="00:01:05.720">
   <property name="kdenlive:id">15</property>
  </entry>
  <entry producer="producer14" in="00:00:00.000" out="00:00:11.080">
   <property name="kdenlive:id">16</property>
  </entry>
  <entry producer="producer15" in="00:00:00.000" out="00:00:17.880">
   <property name="kdenlive:id">17</property>
  </entry>
  <entry producer="producer17" in="00:00:00.000" out="00:00:19.640">
   <property name="kdenlive:id">19</property>
  </entry>
  <entry producer="producer18" in="00:00:00.000" out="00:00:14.840">
   <property name="kdenlive:id">20</property>
  </entry>
  <entry producer="producer20" in="00:00:00.000" out="00:00:18.080">
   <property name="kdenlive:id">21</property>
  </entry>
  <entry producer="producer21" in="00:00:00.000" out="00:00:21.840">
   <property name="kdenlive:id">22</property>
  </entry>
  <entry producer="producer19" in="00:00:00.000" out="00:00:14.200">
   <property name="kdenlive:id">23</property>
  </entry>
  <entry producer="producer22" in="00:00:00.000" out="00:00:16.160">
   <property name="kdenlive:id">24</property>
  </entry>
  <entry producer="producer23" in="00:00:00.000" out="00:00:18.040">
   <property name="kdenlive:id">25</property>
  </entry>
  <entry producer="producer25" in="00:00:00.000" out="00:00:18.960">
   <property name="kdenlive:id">26</property>
  </entry>
  <entry producer="producer24" in="00:00:00.000" out="00:00:32.400">
   <property name="kdenlive:id">27</property>
  </entry>
  <entry producer="producer26" in="00:00:00.000" out="00:00:47.280">
   <property name="kdenlive:id">28</property>
  </entry>
  <entry producer="producer27" in="00:00:00.000" out="00:00:04.880">
   <property name="kdenlive:id">30</property>
  </entry>
  <entry producer="producer30" in="00:00:00.000" out="00:00:46.800">
   <property name="kdenlive:id">31</property>
  </entry>
  <entry producer="producer29" in="00:00:00.000" out="00:00:21.600">
   <property name="kdenlive:id">32</property>
  </entry>
  <entry producer="producer28" in="00:00:00.000" out="00:00:20.840">
   <property name="kdenlive:id">33</property>
  </entry>
  <entry producer="producer31" in="00:00:00.000" out="00:00:10.920">
   <property name="kdenlive:id">34</property>
  </entry>
  <entry producer="producer32" in="00:00:00.000" out="00:01:29.400">
   <property name="kdenlive:id">35</property>
  </entry>
  <entry producer="producer34" in="00:00:00.000" out="00:00:11.600">
   <property name="kdenlive:id">36</property>
  </entry>
  <entry producer="producer33" in="00:00:00.000" out="00:00:20.640">
   <property name="kdenlive:id">37</property>
  </entry>
  <entry producer="producer36" in="00:00:00.000" out="00:00:02.520">
   <property name="kdenlive:id">38</property>
  </entry>
  <entry producer="producer35" in="00:00:00.000" out="00:00:05.240">
   <property name="kdenlive:id">39</property>
  </entry>
  <entry producer="producer37" in="00:00:00.000" out="00:00:25.320">
   <property name="kdenlive:id">41</property>
  </entry>
  <entry producer="producer38" in="00:00:00.000" out="00:00:07.200">
   <property name="kdenlive:id">42</property>
  </entry>
  <entry producer="producer39" in="00:00:00.000" out="00:00:15.600">
   <property name="kdenlive:id">43</property>
  </entry>
  <entry producer="producer42" in="00:00:00.000" out="00:00:12.160">
   <property name="kdenlive:id">44</property>
  </entry>
  <entry producer="producer40" in="00:00:00.000" out="00:00:24.400">
   <property name="kdenlive:id">45</property>
  </entry>
  <entry producer="producer37" in="00:00:00.000" out="00:00:02.920">
   <property name="kdenlive:id">41</property>
  </entry>
  <entry producer="producer41" in="00:00:00.000" out="00:00:03.560">
   <property name="kdenlive:id">46</property>
  </entry>
  <entry producer="producer43" in="00:00:00.000" out="00:00:03.840">
   <property name="kdenlive:id">47</property>
  </entry>
  <entry producer="producer54" in="00:00:00.000" out="00:00:14.840">
   <property name="kdenlive:id">57</property>
  </entry>
  <entry producer="producer44" in="00:00:00.000" out="00:00:19.320">
   <property name="kdenlive:id">48</property>
  </entry>
  <entry producer="producer74" in="00:00:00.000" out="00:00:10.800">
   <property name="kdenlive:id">49</property>
  </entry>
  <entry producer="producer45" in="00:00:00.000" out="00:00:12.120">
   <property name="kdenlive:id">51</property>
  </entry>
  <entry producer="producer47" in="00:00:00.000" out="00:00:13.600">
   <property name="kdenlive:id">52</property>
  </entry>
  <entry producer="producer46" in="00:00:00.000" out="00:00:15.280">
   <property name="kdenlive:id">53</property>
  </entry>
  <entry producer="producer75" in="00:00:00.000" out="00:00:14.400">
   <property name="kdenlive:id">54</property>
  </entry>
  <entry producer="producer48" in="00:00:00.000" out="00:00:11.680">
   <property name="kdenlive:id">55</property>
  </entry>
  <entry producer="producer49" in="00:00:00.000" out="00:00:12.560">
   <property name="kdenlive:id">56</property>
  </entry>
  <entry producer="producer53" in="00:00:00.000" out="00:00:22.240">
   <property name="kdenlive:id">58</property>
  </entry>
  <entry producer="producer52" in="00:00:00.000" out="00:00:17.400">
   <property name="kdenlive:id">59</property>
  </entry>
  <entry producer="producer73" in="00:00:00.000" out="00:00:14.080">
   <property name="kdenlive:id">60</property>
  </entry>
  <entry producer="producer72" in="00:00:00.000" out="00:00:08.560">
   <property name="kdenlive:id">62</property>
  </entry>
  <entry producer="producer56" in="00:00:00.000" out="00:00:37.280">
   <property name="kdenlive:id">63</property>
  </entry>
  <entry producer="producer55" in="00:00:00.000" out="00:00:03.160">
   <property name="kdenlive:id">64</property>
  </entry>
  <entry producer="producer85" in="00:00:00.000" out="00:00:05.080">
   <property name="kdenlive:id">65</property>
  </entry>
  <entry producer="producer88" in="00:00:00.000" out="00:01:14.080">
   <property name="kdenlive:id">91</property>
  </entry>
  <entry producer="producer57" in="00:00:00.000" out="00:00:20.440">
   <property name="kdenlive:id">66</property>
  </entry>
  <entry producer="producer58" in="00:00:00.000" out="00:00:08.720">
   <property name="kdenlive:id">67</property>
  </entry>
  <entry producer="producer85" in="00:00:00.000" out="00:00:04.800">
   <property name="kdenlive:id">65</property>
  </entry>
  <blank length="00:00:02.480"/>
  <entry producer="producer88" in="00:00:00.000" out="00:00:00.560">
   <property name="kdenlive:id">91</property>
  </entry>
  <entry producer="producer89" in="00:00:00.000" out="00:00:31.440">
   <property name="kdenlive:id">92</property>
  </entry>
  <entry producer="producer60" in="00:00:00.000" out="00:00:21.080">
   <property name="kdenlive:id">69</property>
  </entry>
  <entry producer="producer62" in="00:00:00.000" out="00:00:13.200">
   <property name="kdenlive:id">70</property>
  </entry>
  <entry producer="producer61" in="00:00:00.000" out="00:00:11.160">
   <property name="kdenlive:id">71</property>
  </entry>
  <entry producer="producer63" in="00:00:00.000" out="00:00:16.480">
   <property name="kdenlive:id">73</property>
  </entry>
  <entry producer="producer64" in="00:00:00.000" out="00:00:14.360">
   <property name="kdenlive:id">74</property>
  </entry>
  <entry producer="producer65" in="00:00:00.000" out="00:00:20.320">
   <property name="kdenlive:id">75</property>
  </entry>
  <entry producer="producer85" in="00:00:00.000" out="00:00:03.440">
   <property name="kdenlive:id">65</property>
  </entry>
  <entry producer="producer88" in="00:00:00.000" out="00:00:00.560">
   <property name="kdenlive:id">91</property>
  </entry>
  <entry producer="producer89" in="00:00:00.000" out="00:00:01.360">
   <property name="kdenlive:id">92</property>
  </entry>
  <entry producer="producer85" in="00:00:00.000" out="00:00:04.600">
   <property name="kdenlive:id">65</property>
  </entry>
  <entry producer="producer88" in="00:00:00.000" out="00:00:00.560">
   <property name="kdenlive:id">91</property>
  </entry>
  <blank length="00:00:00.120"/>
  <entry producer="producer85" in="00:00:00.000" out="00:00:16.760">
   <property name="kdenlive:id">65</property>
  </entry>
  <entry producer="producer67" in="00:00:00.000" out="00:01:24.120">
   <property name="kdenlive:id">77</property>
  </entry>
  <entry producer="producer70" in="00:00:00.000" out="00:00:15.680">
   <property name="kdenlive:id">78</property>
  </entry>
  <entry producer="producer76" in="00:00:00.000" out="00:02:09.640">
   <property name="kdenlive:id">85</property>
   <filter id="filter45" in="00:02:09.120" out="00:02:09.640">
    <property name="start">1</property>
    <property name="level">1</property>
    <property name="mlt_service">brightness</property>
    <property name="kdenlive_id">fade_to_black</property>
    <property name="alpha">00:00:00.000=1;00:00:00.520=0</property>
   </filter>
  </entry>
 </playlist>
 <playlist id="playlist5"/>
 <tractor id="tractor2" in="00:00:00.000" out="00:28:13.680">
  <property name="kdenlive:trackheight">67</property>
  <property name="kdenlive:timeline_active">1</property>
  <property name="kdenlive:collapsed">0</property>
  <property name="kdenlive:thumbs_format"/>
  <property name="kdenlive:audio_rec"/>
  <track hide="audio" producer="playlist4"/>
  <track hide="audio" producer="playlist5"/>
 </tractor>
 <producer id="producer417" in="00:00:00.000" out="00:05:27.000">
  <property name="length">8176</property>
  <property name="eof">pause</property>
  <property name="resource">/home/liquidzulu/Videos/Adams County Officials Ignore Keep Out SIgns and Violate Private Property Laws_360p.mp4</property>
  <property name="audio_index">-1</property>
  <property name="video_index">0</property>
  <property name="mute_on_pause">0</property>
  <property name="mlt_service">avformat-novalidate</property>
  <property name="seekable">1</property>
  <property name="aspect_ratio">1</property>
  <property name="kdenlive:clipname"/>
  <property name="kdenlive:clip_type">0</property>
  <property name="kdenlive:folderid">-1</property>
  <property name="kdenlive:id">83</property>
  <property name="kdenlive:file_size">16470931</property>
  <property name="kdenlive:file_hash">8ad5d95544cf61650ab00b7e3b37c0d4</property>
  <property name="kdenlive:audio_max1">222</property>
  <property name="kdenlive:active_streams">-1</property>
  <property name="set.test_audio">1</property>
  <property name="xml">was here</property>
  <property name="meta.media.nb_streams">2</property>
  <property name="meta.media.0.stream.type">video</property>
  <property name="meta.media.0.stream.frame_rate">30</property>
  <property name="meta.media.0.stream.sample_aspect_ratio">0</property>
  <property name="meta.media.0.codec.width">480</property>
  <property name="meta.media.0.codec.height">360</property>
  <property name="meta.media.0.codec.rotate">0</property>
  <property name="meta.media.0.codec.pix_fmt">yuv420p</property>
  <property name="meta.media.0.codec.sample_aspect_ratio">1</property>
  <property name="meta.media.0.codec.colorspace">709</property>
  <property name="meta.media.0.codec.color_trc">1</property>
  <property name="meta.media.0.codec.name">h264</property>
  <property name="meta.media.0.codec.long_name">H.264 / AVC / MPEG-4 AVC / MPEG-4 part 10</property>
  <property name="meta.media.0.codec.bit_rate">271042</property>
  <property name="meta.attr.0.stream.creation_time.markup">2022-12-19T19:47:15.000000Z</property>
  <property name="meta.attr.0.stream.handler_name.markup">ISO Media file produced by Google Inc. Created on: 12/19/2022.</property>
  <property name="meta.attr.0.stream.vendor_id.markup">[0][0][0][0]</property>
  <property name="meta.media.1.stream.type">audio</property>
  <property name="meta.media.1.codec.sample_fmt">fltp</property>
  <property name="meta.media.1.codec.sample_rate">44100</property>
  <property name="meta.media.1.codec.channels">2</property>
  <property name="meta.media.1.codec.name">aac</property>
  <property name="meta.media.1.codec.long_name">AAC (Advanced Audio Coding)</property>
  <property name="meta.media.1.codec.bit_rate">128008</property>
  <property name="meta.attr.1.stream.creation_time.markup">2022-12-19T19:47:15.000000Z</property>
  <property name="meta.attr.1.stream.handler_name.markup">ISO Media file produced by Google Inc. Created on: 12/19/2022.</property>
  <property name="meta.attr.1.stream.vendor_id.markup">[0][0][0][0]</property>
  <property name="meta.attr.major_brand.markup">mp42</property>
  <property name="meta.attr.minor_version.markup">0</property>
  <property name="meta.attr.compatible_brands.markup">isommp42</property>
  <property name="meta.attr.creation_time.markup">2022-12-19T19:47:15.000000Z</property>
  <property name="meta.media.sample_aspect_num">1</property>
  <property name="meta.media.sample_aspect_den">1</property>
  <property name="meta.media.frame_rate_num">30</property>
  <property name="meta.media.frame_rate_den">1</property>
  <property name="meta.media.colorspace">709</property>
  <property name="meta.media.color_trc">1</property>
  <property name="meta.media.has_b_frames">1</property>
  <property name="meta.media.width">480</property>
  <property name="meta.media.height">360</property>
  <property name="meta.media.color_range">mpeg</property>
  <property name="meta.media.top_field_first">0</property>
  <property name="meta.media.progressive">1</property>
  <property name="set.test_image">0</property>
 </producer>
 <playlist id="playlist6">
  <blank length="00:04:55.680"/>
  <entry producer="producer417" in="00:00:17.400" out="00:00:31.680">
   <property name="kdenlive:id">83</property>
   <filter id="filter46">
    <property name="rotate_center">1</property>
    <property name="mlt_service">qtblend</property>
    <property name="kdenlive_id">qtblend</property>
    <property name="rect">00:00:17.400=288 162 1344 756 1.000000</property>
    <property name="rotation">00:00:17.400=0</property>
    <property name="compositing">0</property>
    <property name="distort">0</property>
    <property name="kdenlive:collapsed">0</property>
   </filter>
  </entry>
  <blank length="00:14:45.240"/>
  <entry producer="producer88" in="00:00:00.000" out="00:00:01.640">
   <property name="kdenlive:id">91</property>
   <filter id="filter47" out="00:00:00.560">
    <property name="start">1</property>
    <property name="level">1</property>
    <property name="mlt_service">brightness</property>
    <property name="kdenlive_id">fade_from_black</property>
    <property name="alpha">00:00:00.000=0;00:00:00.560=1</property>
    <property name="kdenlive:collapsed">0</property>
   </filter>
  </entry>
  <entry producer="producer86" in="00:00:00.000" out="00:01:14.080">
   <property name="kdenlive:id">89</property>
   <filter id="filter48">
    <property name="rotate_center">1</property>
    <property name="mlt_service">qtblend</property>
    <property name="kdenlive_id">qtblend</property>
    <property name="rect">00:00:00.000=859 293 192 108 1.000000</property>
    <property name="rotation">00:00:00.000=0</property>
    <property name="compositing">0</property>
    <property name="distort">0</property>
   </filter>
  </entry>
  <blank length="00:00:33.480"/>
  <entry producer="producer88" in="00:00:00.000" out="00:00:03.040">
   <property name="kdenlive:id">91</property>
   <filter id="filter49" out="00:00:00.560">
    <property name="start">1</property>
    <property name="level">1</property>
    <property name="mlt_service">brightness</property>
    <property name="kdenlive_id">fade_from_black</property>
    <property name="alpha">00:00:00.000=0;00:00:00.560=1</property>
    <property name="kdenlive:collapsed">0</property>
   </filter>
  </entry>
  <entry producer="producer89" in="00:00:00.000" out="00:00:00.560">
   <property name="kdenlive:id">92</property>
   <filter id="filter50" out="00:00:00.560">
    <property name="start">1</property>
    <property name="level">1</property>
    <property name="mlt_service">brightness</property>
    <property name="kdenlive_id">fade_from_black</property>
    <property name="alpha">00:00:00.000=0;00:00:00.560=1</property>
   </filter>
  </entry>
  <blank length="00:02:11.200"/>
  <entry producer="producer88" in="00:00:00.000" out="00:00:00.560">
   <property name="kdenlive:id">91</property>
   <filter id="filter51" out="00:00:00.560">
    <property name="start">1</property>
    <property name="level">1</property>
    <property name="mlt_service">brightness</property>
    <property name="kdenlive_id">fade_from_black</property>
    <property name="alpha">00:00:00.000=0;00:00:00.560=1</property>
    <property name="kdenlive:collapsed">0</property>
   </filter>
  </entry>
  <entry producer="producer89" in="00:00:00.000" out="00:00:00.560">
   <property name="kdenlive:id">92</property>
   <filter id="filter52" out="00:00:00.560">
    <property name="start">1</property>
    <property name="level">1</property>
    <property name="mlt_service">brightness</property>
    <property name="kdenlive_id">fade_from_black</property>
    <property name="alpha">00:00:00.000=0;00:00:00.560=1</property>
    <property name="kdenlive:collapsed">0</property>
   </filter>
  </entry>
  <blank length="00:00:05.440"/>
  <entry producer="producer88" in="00:00:00.000" out="00:00:00.560">
   <property name="kdenlive:id">91</property>
   <filter id="filter53" out="00:00:00.560">
    <property name="start">1</property>
    <property name="level">1</property>
    <property name="mlt_service">brightness</property>
    <property name="kdenlive_id">fade_from_black</property>
    <property name="alpha">00:00:00.000=0;00:00:00.560=1</property>
    <property name="kdenlive:collapsed">0</property>
   </filter>
  </entry>
  <entry producer="producer90" in="00:00:00.000" out="00:00:00.680">
   <property name="kdenlive:id">93</property>
   <filter id="filter54" out="00:00:00.560">
    <property name="start">1</property>
    <property name="level">1</property>
    <property name="mlt_service">brightness</property>
    <property name="kdenlive_id">fade_from_black</property>
    <property name="alpha">00:00:00.000=0;00:00:00.560=1</property>
    <property name="kdenlive:collapsed">0</property>
   </filter>
  </entry>
  <blank length="00:00:01.840"/>
  <entry producer="producer87" in="00:00:00.000" out="00:00:14.920">
   <property name="kdenlive:id">90</property>
   <filter id="filter55">
    <property name="rotate_center">1</property>
    <property name="mlt_service">qtblend</property>
    <property name="kdenlive_id">qtblend</property>
    <property name="rect">00:00:00.000=613 194 192 108 1.000000</property>
    <property name="rotation">00:00:00.000=0</property>
    <property name="compositing">0</property>
    <property name="distort">0</property>
    <property name="kdenlive:collapsed">0</property>
   </filter>
   <filter id="filter56" out="00:00:00.560">
    <property name="start">1</property>
    <property name="level">1</property>
    <property name="mlt_service">brightness</property>
    <property name="kdenlive_id">fade_from_black</property>
    <property name="alpha">00:00:00.000=0;00:00:00.560=1</property>
    <property name="kdenlive:collapsed">0</property>
   </filter>
  </entry>
 </playlist>
 <playlist id="playlist7"/>
 <tractor id="tractor3" in="00:00:00.000" out="00:24:24.120">
  <property name="kdenlive:trackheight">67</property>
  <property name="kdenlive:timeline_active">0</property>
  <property name="kdenlive:collapsed">28</property>
  <property name="kdenlive:thumbs_format"/>
  <property name="kdenlive:audio_rec"/>
  <track hide="audio" producer="playlist6"/>
  <track hide="audio" producer="playlist7"/>
 </tractor>
 <producer id="producer418" in="00:00:00.000" out="00:47:33.000">
  <property name="length">71326</property>
  <property name="eof">pause</property>
  <property name="resource">/home/liquidzulu/Videos/yt/vid-store/Why Artists Shouldn't Own Their Art.mp4</property>
  <property name="audio_index">1</property>
  <property name="video_index">0</property>
  <property name="mute_on_pause">0</property>
  <property name="mlt_service">avformat-novalidate</property>
  <property name="seekable">1</property>
  <property name="aspect_ratio">1</property>
  <property name="kdenlive:clipname"/>
  <property name="kdenlive:clip_type">0</property>
  <property name="kdenlive:folderid">-1</property>
  <property name="kdenlive:id">87</property>
  <property name="kdenlive:file_size">440069300</property>
  <property name="kdenlive:file_hash">fc6d44d9da892bda6f38739a588c9a41</property>
  <property name="kdenlive:audio_max1">244</property>
  <property name="xml">was here</property>
  <property name="meta.media.nb_streams">2</property>
  <property name="meta.media.0.stream.type">video</property>
  <property name="meta.media.0.stream.frame_rate">30</property>
  <property name="meta.media.0.stream.sample_aspect_ratio">0</property>
  <property name="meta.media.0.codec.width">1280</property>
  <property name="meta.media.0.codec.height">720</property>
  <property name="meta.media.0.codec.rotate">0</property>
  <property name="meta.media.0.codec.pix_fmt">yuv420p</property>
  <property name="meta.media.0.codec.sample_aspect_ratio">1</property>
  <property name="meta.media.0.codec.colorspace">709</property>
  <property name="meta.media.0.codec.color_trc">1</property>
  <property name="meta.media.0.codec.name">h264</property>
  <property name="meta.media.0.codec.long_name">H.264 / AVC / MPEG-4 AVC / MPEG-4 part 10</property>
  <property name="meta.media.0.codec.bit_rate">1102649</property>
  <property name="meta.attr.0.stream.creation_time.markup">2022-12-04T00:57:48.000000Z</property>
  <property name="meta.attr.0.stream.handler_name.markup">ISO Media file produced by Google Inc. Created on: 12/03/2022.</property>
  <property name="meta.attr.0.stream.vendor_id.markup">[0][0][0][0]</property>
  <property name="meta.media.1.stream.type">audio</property>
  <property name="meta.media.1.codec.sample_fmt">fltp</property>
  <property name="meta.media.1.codec.sample_rate">44100</property>
  <property name="meta.media.1.codec.channels">2</property>
  <property name="meta.media.1.codec.name">aac</property>
  <property name="meta.media.1.codec.long_name">AAC (Advanced Audio Coding)</property>
  <property name="meta.media.1.codec.bit_rate">127999</property>
  <property name="meta.attr.1.stream.creation_time.markup">2022-12-04T00:57:48.000000Z</property>
  <property name="meta.attr.1.stream.handler_name.markup">ISO Media file produced by Google Inc. Created on: 12/03/2022.</property>
  <property name="meta.attr.1.stream.vendor_id.markup">[0][0][0][0]</property>
  <property name="meta.attr.major_brand.markup">mp42</property>
  <property name="meta.attr.minor_version.markup">0</property>
  <property name="meta.attr.compatible_brands.markup">isommp42</property>
  <property name="meta.attr.creation_time.markup">2022-12-04T00:57:48.000000Z</property>
  <property name="meta.media.sample_aspect_num">1</property>
  <property name="meta.media.sample_aspect_den">1</property>
  <property name="meta.media.frame_rate_num">30</property>
  <property name="meta.media.frame_rate_den">1</property>
  <property name="meta.media.colorspace">709</property>
  <property name="meta.media.color_trc">1</property>
  <property name="meta.media.has_b_frames">1</property>
  <property name="meta.media.width">1280</property>
  <property name="meta.media.height">720</property>
  <property name="meta.media.color_range">mpeg</property>
  <property name="meta.media.top_field_first">0</property>
  <property name="meta.media.progressive">1</property>
  <property name="set.test_audio">1</property>
  <property name="set.test_image">0</property>
 </producer>
 <playlist id="playlist8">
  <blank length="00:19:55.240"/>
  <entry producer="producer86" in="00:00:00.000" out="00:00:01.640">
   <property name="kdenlive:id">89</property>
   <filter id="filter62">
    <property name="rotate_center">1</property>
    <property name="mlt_service">qtblend</property>
    <property name="kdenlive_id">qtblend</property>
    <property name="rect">00:00:00.000=859 293 192 108 1.000000</property>
    <property name="rotation">00:00:00.000=0</property>
    <property name="compositing">0</property>
    <property name="distort">0</property>
    <property name="kdenlive:collapsed">0</property>
   </filter>
   <filter id="filter63" out="00:00:00.560">
    <property name="start">1</property>
    <property name="level">1</property>
    <property name="mlt_service">brightness</property>
    <property name="kdenlive_id">fade_from_black</property>
    <property name="alpha">00:00:00.000=0;00:00:00.560=1</property>
    <property name="kdenlive:collapsed">0</property>
   </filter>
  </entry>
  <entry producer="producer87" in="00:00:00.000" out="00:01:14.080">
   <property name="kdenlive:id">90</property>
   <filter id="filter64">
    <property name="rotate_center">1</property>
    <property name="mlt_service">qtblend</property>
    <property name="kdenlive_id">qtblend</property>
    <property name="rect">00:00:00.000=613 194 192 108 1.000000</property>
    <property name="rotation">00:00:00.000=0</property>
    <property name="compositing">0</property>
    <property name="distort">0</property>
    <property name="kdenlive:collapsed">0</property>
   </filter>
   <filter id="filter65" out="00:00:00.560">
    <property name="start">1</property>
    <property name="level">1</property>
    <property name="mlt_service">brightness</property>
    <property name="kdenlive_id">fade_from_black</property>
    <property name="alpha">00:00:00.000=0;00:00:00.560=1</property>
    <property name="kdenlive:collapsed">0</property>
   </filter>
  </entry>
  <blank length="00:00:33.480"/>
  <entry producer="producer86" in="00:00:00.000" out="00:00:01.160">
   <property name="kdenlive:id">89</property>
   <filter id="filter66">
    <property name="rotate_center">1</property>
    <property name="mlt_service">qtblend</property>
    <property name="kdenlive_id">qtblend</property>
    <property name="rect">00:00:00.000=859 293 192 108 1.000000</property>
    <property name="rotation">00:00:00.000=0</property>
    <property name="compositing">0</property>
    <property name="distort">0</property>
    <property name="kdenlive:collapsed">0</property>
   </filter>
   <filter id="filter67" out="00:00:00.560">
    <property name="start">1</property>
    <property name="level">1</property>
    <property name="mlt_service">brightness</property>
    <property name="kdenlive_id">fade_from_black</property>
    <property name="alpha">00:00:00.000=0;00:00:00.560=1</property>
    <property name="kdenlive:collapsed">0</property>
   </filter>
  </entry>
  <entry producer="producer86" in="00:00:00.000" out="00:00:33.920">
   <property name="kdenlive:id">89</property>
   <filter id="filter68">
    <property name="rotate_center">1</property>
    <property name="mlt_service">qtblend</property>
    <property name="kdenlive_id">qtblend</property>
    <property name="rect">00:00:00.000=859 293 192 108 1.000000</property>
    <property name="rotation">00:00:00.000=0</property>
    <property name="compositing">0</property>
    <property name="distort">0</property>
    <property name="kdenlive:collapsed">0</property>
   </filter>
  </entry>
  <blank length="00:01:37.480"/>
  <entry producer="producer87" in="00:00:00.000" out="00:00:04.800">
   <property name="kdenlive:id">90</property>
   <filter id="filter69">
    <property name="rotate_center">1</property>
    <property name="mlt_service">qtblend</property>
    <property name="kdenlive_id">qtblend</property>
    <property name="rect">00:00:00.000=613 194 192 108 1.000000</property>
    <property name="rotation">00:00:00.000=0</property>
    <property name="compositing">0</property>
    <property name="distort">0</property>
    <property name="kdenlive:collapsed">0</property>
   </filter>
   <filter id="filter70" out="00:00:00.560">
    <property name="start">1</property>
    <property name="level">1</property>
    <property name="mlt_service">brightness</property>
    <property name="kdenlive_id">fade_from_black</property>
    <property name="alpha">00:00:00.000=0;00:00:00.560=1</property>
    <property name="kdenlive:collapsed">0</property>
   </filter>
  </entry>
  <blank length="00:00:00.640"/>
  <entry producer="producer87" in="00:00:00.000" out="00:00:04.680">
   <property name="kdenlive:id">90</property>
   <filter id="filter71">
    <property name="rotate_center">1</property>
    <property name="mlt_service">qtblend</property>
    <property name="kdenlive_id">qtblend</property>
    <property name="rect">00:00:00.000=786 466 192 108 1.000000</property>
    <property name="rotation">00:00:00.000=0</property>
    <property name="compositing">0</property>
    <property name="distort">0</property>
    <property name="kdenlive:collapsed">0</property>
   </filter>
   <filter id="filter72" out="00:00:00.560">
    <property name="start">1</property>
    <property name="level">1</property>
    <property name="mlt_service">brightness</property>
    <property name="kdenlive_id">fade_from_black</property>
    <property name="alpha">00:00:00.000=0;00:00:00.560=1</property>
    <property name="kdenlive:collapsed">0</property>
   </filter>
  </entry>
  <blank length="00:00:01.840"/>
  <entry producer="producer87" in="00:00:00.000" out="00:00:14.920">
   <property name="kdenlive:id">90</property>
   <filter id="filter73">
    <property name="rotate_center">1</property>
    <property name="mlt_service">qtblend</property>
    <property name="kdenlive_id">qtblend</property>
    <property name="rect">00:00:00.000=786 466 192 108 1.000000</property>
    <property name="rotation">00:00:00.000=0</property>
    <property name="compositing">0</property>
    <property name="distort">0</property>
    <property name="kdenlive:collapsed">0</property>
   </filter>
   <filter id="filter74" out="00:00:00.560">
    <property name="start">1</property>
    <property name="level">1</property>
    <property name="mlt_service">brightness</property>
    <property name="kdenlive_id">fade_from_black</property>
    <property name="alpha">00:00:00.000=0;00:00:00.560=1</property>
    <property name="kdenlive:collapsed">0</property>
   </filter>
  </entry>
  <blank length="00:01:39.880"/>
  <entry producer="producer418" in="00:00:29.160" out="00:02:38.280">
   <property name="kdenlive:id">87</property>
   <filter id="filter57" in="00:00:29.160" out="00:00:29.840">
    <property name="start">1</property>
    <property name="level">1</property>
    <property name="mlt_service">brightness</property>
    <property name="kdenlive_id">fade_from_black</property>
    <property name="alpha">00:00:00.000=0;00:00:00.680=1</property>
    <property name="kdenlive:collapsed">0</property>
   </filter>
   <filter id="filter58">
    <property name="rotate_center">1</property>
    <property name="mlt_service">qtblend</property>
    <property name="kdenlive_id">qtblend</property>
    <property name="rect">00:00:29.160=288 162 1344 756 1.000000</property>
    <property name="rotation">00:00:29.160=0</property>
    <property name="compositing">0</property>
    <property name="distort">0</property>
    <property name="kdenlive:collapsed">0</property>
   </filter>
   <filter id="filter59" in="00:02:37.800" out="00:02:38.280">
    <property name="start">1</property>
    <property name="level">1</property>
    <property name="mlt_service">brightness</property>
    <property name="kdenlive_id">fade_to_black</property>
    <property name="alpha">00:00:00.000=1;00:00:00.480=0</property>
   </filter>
  </entry>
  <blank length="00:00:00.760"/>
  <entry producer="producer80" in="00:00:00.000" out="00:00:13.720">
   <property name="kdenlive:id">86</property>
   <filter id="filter60" out="00:00:00.480">
    <property name="start">1</property>
    <property name="level">1</property>
    <property name="mlt_service">brightness</property>
    <property name="kdenlive_id">fade_from_black</property>
    <property name="alpha">00:00:00.000=0;00:00:00.480=1</property>
    <property name="kdenlive:collapsed">0</property>
   </filter>
   <filter id="filter61" in="00:00:12.560" out="00:00:13.720">
    <property name="start">1</property>
    <property name="level">1</property>
    <property name="mlt_service">brightness</property>
    <property name="kdenlive_id">fade_to_black</property>
    <property name="alpha">00:00:00.000=1;00:00:01.160=0</property>
    <property name="kdenlive:collapsed">0</property>
   </filter>
  </entry>
 </playlist>
 <playlist id="playlist9"/>
 <tractor id="tractor4" in="00:00:00.000" out="00:28:27.680">
  <property name="kdenlive:trackheight">67</property>
  <property name="kdenlive:timeline_active">1</property>
  <property name="kdenlive:collapsed">28</property>
  <property name="kdenlive:thumbs_format"/>
  <property name="kdenlive:audio_rec"/>
  <track hide="audio" producer="playlist8"/>
  <track hide="audio" producer="playlist9"/>
 </tractor>
 <playlist id="playlist10">
  <blank length="00:20:42.720"/>
  <entry producer="producer86" in="00:00:00.000" out="00:00:28.280">
   <property name="kdenlive:id">89</property>
   <filter id="filter75">
    <property name="rotate_center">1</property>
    <property name="mlt_service">qtblend</property>
    <property name="kdenlive_id">qtblend</property>
    <property name="rect">00:00:00.000=739 333 192 108 1.000000</property>
    <property name="rotation">00:00:00.000=0</property>
    <property name="compositing">0</property>
    <property name="distort">0</property>
    <property name="kdenlive:collapsed">0</property>
   </filter>
   <filter id="filter76" out="00:00:00.560">
    <property name="start">1</property>
    <property name="level">1</property>
    <property name="mlt_service">brightness</property>
    <property name="kdenlive_id">fade_from_black</property>
    <property name="alpha">00:00:00.000=0;00:00:00.560=1</property>
    <property name="kdenlive:collapsed">0</property>
   </filter>
  </entry>
  <blank length="00:02:46.120"/>
  <entry producer="producer86" in="00:00:00.000" out="00:00:01.160">
   <property name="kdenlive:id">89</property>
   <filter id="filter77">
    <property name="rotate_center">1</property>
    <property name="mlt_service">qtblend</property>
    <property name="kdenlive_id">qtblend</property>
    <property name="rect">00:00:00.000=859 293 192 108 1.000000</property>
    <property name="rotation">00:00:00.000=0</property>
    <property name="compositing">0</property>
    <property name="distort">0</property>
   </filter>
   <filter id="filter78" out="00:00:00.560">
    <property name="start">1</property>
    <property name="level">1</property>
    <property name="mlt_service">brightness</property>
    <property name="kdenlive_id">fade_from_black</property>
    <property name="alpha">00:00:00.000=0;00:00:00.560=1</property>
   </filter>
  </entry>
  <entry producer="producer86" in="00:00:00.000" out="00:00:03.600">
   <property name="kdenlive:id">89</property>
   <filter id="filter79">
    <property name="rotate_center">1</property>
    <property name="mlt_service">qtblend</property>
    <property name="kdenlive_id">qtblend</property>
    <property name="rect">00:00:00.000=859 293 192 108 1.000000</property>
    <property name="rotation">00:00:00.000=0</property>
    <property name="compositing">0</property>
    <property name="distort">0</property>
    <property name="kdenlive:collapsed">0</property>
   </filter>
  </entry>
  <blank length="00:00:00.640"/>
  <entry producer="producer86" in="00:00:00.000" out="00:00:01.160">
   <property name="kdenlive:id">89</property>
   <filter id="filter80">
    <property name="rotate_center">1</property>
    <property name="mlt_service">qtblend</property>
    <property name="kdenlive_id">qtblend</property>
    <property name="rect">00:00:00.000=859 293 192 108 1.000000</property>
    <property name="rotation">00:00:00.000=0</property>
    <property name="compositing">0</property>
    <property name="distort">0</property>
   </filter>
   <filter id="filter81" out="00:00:00.560">
    <property name="start">1</property>
    <property name="level">1</property>
    <property name="mlt_service">brightness</property>
    <property name="kdenlive_id">fade_from_black</property>
    <property name="alpha">00:00:00.000=0;00:00:00.560=1</property>
   </filter>
  </entry>
  <entry producer="producer86" in="00:00:00.000" out="00:00:03.480">
   <property name="kdenlive:id">89</property>
   <filter id="filter82">
    <property name="rotate_center">1</property>
    <property name="mlt_service">qtblend</property>
    <property name="kdenlive_id">qtblend</property>
    <property name="rect">00:00:00.000=859 293 192 108 1.000000</property>
    <property name="rotation">00:00:00.000=0</property>
    <property name="compositing">0</property>
    <property name="distort">0</property>
   </filter>
  </entry>
  <blank length="00:00:01.840"/>
  <entry producer="producer86" in="00:00:00.000" out="00:00:14.920">
   <property name="kdenlive:id">89</property>
   <filter id="filter83">
    <property name="rotate_center">1</property>
    <property name="mlt_service">qtblend</property>
    <property name="kdenlive_id">qtblend</property>
    <property name="rect">00:00:00.000=859 293 192 108 1.000000</property>
    <property name="rotation">00:00:00.000=0</property>
    <property name="compositing">0</property>
    <property name="distort">0</property>
    <property name="kdenlive:collapsed">0</property>
   </filter>
   <filter id="filter84" out="00:00:00.560">
    <property name="start">1</property>
    <property name="level">1</property>
    <property name="mlt_service">brightness</property>
    <property name="kdenlive_id">fade_from_black</property>
    <property name="alpha">00:00:00.000=0;00:00:00.560=1</property>
    <property name="kdenlive:collapsed">0</property>
   </filter>
  </entry>
 </playlist>
 <playlist id="playlist11"/>
 <tractor id="tractor5" in="00:00:00.000" out="00:24:24.120">
  <property name="kdenlive:trackheight">67</property>
  <property name="kdenlive:timeline_active">1</property>
  <property name="kdenlive:collapsed">28</property>
  <property name="kdenlive:thumbs_format"/>
  <property name="kdenlive:audio_rec"/>
  <track hide="audio" producer="playlist10"/>
  <track hide="audio" producer="playlist11"/>
 </tractor>
 <playlist id="playlist12">
  <blank length="00:20:42.920"/>
  <entry producer="producer86" in="00:00:00.000" out="00:00:28.080">
   <property name="kdenlive:id">89</property>
   <filter id="filter85">
    <property name="rotate_center">1</property>
    <property name="mlt_service">qtblend</property>
    <property name="kdenlive_id">qtblend</property>
    <property name="rect">00:00:00.000=669 436 192 108 1.000000</property>
    <property name="rotation">00:00:00.000=0</property>
    <property name="compositing">0</property>
    <property name="distort">0</property>
    <property name="kdenlive:collapsed">0</property>
   </filter>
   <filter id="filter86" out="00:00:00.560">
    <property name="start">1</property>
    <property name="level">1</property>
    <property name="mlt_service">brightness</property>
    <property name="kdenlive_id">fade_from_black</property>
    <property name="alpha">00:00:00.000=0;00:00:00.560=1</property>
    <property name="kdenlive:collapsed">0</property>
    <property name="disable">0</property>
   </filter>
  </entry>
 </playlist>
 <playlist id="playlist13"/>
 <tractor id="tractor6" in="00:00:00.000" out="00:21:11.000">
  <property name="kdenlive:trackheight">67</property>
  <property name="kdenlive:timeline_active">1</property>
  <property name="kdenlive:collapsed">28</property>
  <property name="kdenlive:thumbs_format"/>
  <property name="kdenlive:audio_rec"/>
  <track hide="audio" producer="playlist12"/>
  <track hide="audio" producer="playlist13"/>
 </tractor>
 <playlist id="playlist14">
  <blank length="00:20:43.080"/>
  <entry producer="producer86" in="00:00:00.000" out="00:00:27.920">
   <property name="kdenlive:id">89</property>
   <filter id="filter87">
    <property name="rotate_center">1</property>
    <property name="mlt_service">qtblend</property>
    <property name="kdenlive_id">qtblend</property>
    <property name="rect">00:00:00.000=689 562 192 108 1.000000</property>
    <property name="rotation">00:00:00.000=0</property>
    <property name="compositing">0</property>
    <property name="distort">0</property>
    <property name="kdenlive:collapsed">0</property>
   </filter>
   <filter id="filter88" out="00:00:00.560">
    <property name="start">1</property>
    <property name="level">1</property>
    <property name="mlt_service">brightness</property>
    <property name="kdenlive_id">fade_from_black</property>
    <property name="alpha">00:00:00.000=0;00:00:00.560=1</property>
    <property name="kdenlive:collapsed">0</property>
    <property name="disable">0</property>
   </filter>
  </entry>
 </playlist>
 <playlist id="playlist15"/>
 <tractor id="tractor7" in="00:00:00.000" out="00:21:11.000">
  <property name="kdenlive:trackheight">67</property>
  <property name="kdenlive:timeline_active">1</property>
  <property name="kdenlive:collapsed">28</property>
  <property name="kdenlive:thumbs_format"/>
  <property name="kdenlive:audio_rec"/>
  <track hide="audio" producer="playlist14"/>
  <track hide="audio" producer="playlist15"/>
 </tractor>
 <playlist id="playlist16">
  <blank length="00:20:43.280"/>
  <entry producer="producer86" in="00:00:00.000" out="00:00:27.720">
   <property name="kdenlive:id">89</property>
   <filter id="filter89">
    <property name="rotate_center">1</property>
    <property name="mlt_service">qtblend</property>
    <property name="kdenlive_id">qtblend</property>
    <property name="rect">00:00:00.000=772 652 192 108 1.000000</property>
    <property name="rotation">00:00:00.000=0</property>
    <property name="compositing">0</property>
    <property name="distort">0</property>
    <property name="kdenlive:collapsed">0</property>
   </filter>
   <filter id="filter90" out="00:00:00.560">
    <property name="start">1</property>
    <property name="level">1</property>
    <property name="mlt_service">brightness</property>
    <property name="kdenlive_id">fade_from_black</property>
    <property name="alpha">00:00:00.000=0;00:00:00.560=1</property>
    <property name="kdenlive:collapsed">0</property>
    <property name="disable">0</property>
   </filter>
  </entry>
 </playlist>
 <playlist id="playlist17"/>
 <tractor id="tractor8" in="00:00:00.000" out="00:21:11.000">
  <property name="kdenlive:trackheight">67</property>
  <property name="kdenlive:timeline_active">1</property>
  <property name="kdenlive:collapsed">28</property>
  <property name="kdenlive:thumbs_format"/>
  <property name="kdenlive:audio_rec"/>
  <track hide="audio" producer="playlist16"/>
  <track hide="audio" producer="playlist17"/>
 </tractor>
 <playlist id="playlist18">
  <blank length="00:20:43.480"/>
  <entry producer="producer86" in="00:00:00.000" out="00:00:27.520">
   <property name="kdenlive:id">89</property>
   <filter id="filter91">
    <property name="rotate_center">1</property>
    <property name="mlt_service">qtblend</property>
    <property name="kdenlive_id">qtblend</property>
    <property name="rect">00:00:00.000=899 669 192 108 1.000000</property>
    <property name="rotation">00:00:00.000=0</property>
    <property name="compositing">0</property>
    <property name="distort">0</property>
    <property name="kdenlive:collapsed">0</property>
   </filter>
   <filter id="filter92" out="00:00:00.560">
    <property name="start">1</property>
    <property name="level">1</property>
    <property name="mlt_service">brightness</property>
    <property name="kdenlive_id">fade_from_black</property>
    <property name="alpha">00:00:00.000=0;00:00:00.560=1</property>
    <property name="kdenlive:collapsed">0</property>
    <property name="disable">0</property>
   </filter>
  </entry>
 </playlist>
 <playlist id="playlist19"/>
 <tractor id="tractor9" in="00:00:00.000" out="00:21:11.000">
  <property name="kdenlive:trackheight">67</property>
  <property name="kdenlive:timeline_active">1</property>
  <property name="kdenlive:collapsed">28</property>
  <property name="kdenlive:thumbs_format"/>
  <property name="kdenlive:audio_rec"/>
  <track hide="audio" producer="playlist18"/>
  <track hide="audio" producer="playlist19"/>
 </tractor>
 <playlist id="playlist20">
  <blank length="00:20:43.680"/>
  <entry producer="producer86" in="00:00:00.000" out="00:00:27.320">
   <property name="kdenlive:id">89</property>
   <filter id="filter93">
    <property name="rotate_center">1</property>
    <property name="mlt_service">qtblend</property>
    <property name="kdenlive_id">qtblend</property>
    <property name="rect">00:00:00.000=1012 609 192 108 1.000000</property>
    <property name="rotation">00:00:00.000=0</property>
    <property name="compositing">0</property>
    <property name="distort">0</property>
    <property name="kdenlive:collapsed">0</property>
   </filter>
   <filter id="filter94" out="00:00:00.560">
    <property name="start">1</property>
    <property name="level">1</property>
    <property name="mlt_service">brightness</property>
    <property name="kdenlive_id">fade_from_black</property>
    <property name="alpha">00:00:00.000=0;00:00:00.560=1</property>
    <property name="kdenlive:collapsed">0</property>
   </filter>
  </entry>
 </playlist>
 <playlist id="playlist21"/>
 <tractor id="tractor10" in="00:00:00.000" out="00:21:11.000">
  <property name="kdenlive:trackheight">67</property>
  <property name="kdenlive:timeline_active">1</property>
  <property name="kdenlive:collapsed">28</property>
  <property name="kdenlive:thumbs_format"/>
  <property name="kdenlive:audio_rec"/>
  <track hide="audio" producer="playlist20"/>
  <track hide="audio" producer="playlist21"/>
 </tractor>
 <playlist id="playlist22">
  <blank length="00:20:43.840"/>
  <entry producer="producer86" in="00:00:00.000" out="00:00:27.160">
   <property name="kdenlive:id">89</property>
   <filter id="filter95">
    <property name="rotate_center">1</property>
    <property name="mlt_service">qtblend</property>
    <property name="kdenlive_id">qtblend</property>
    <property name="rect">00:00:00.000=1052 483 192 108 1.000000;00:00:12.880=1052 483 192 108 1.000000;00:00:13.080=1033 473 230 129 1.000000;00:00:13.200=1052 483 192 108 1.000000</property>
    <property name="rotation">00:00:00.000=0;00:00:12.880=0;00:00:13.080=0;00:00:13.200=0</property>
    <property name="compositing">0</property>
    <property name="distort">0</property>
    <property name="kdenlive:collapsed">0</property>
   </filter>
   <filter id="filter96" out="00:00:00.560">
    <property name="start">1</property>
    <property name="level">1</property>
    <property name="mlt_service">brightness</property>
    <property name="kdenlive_id">fade_from_black</property>
    <property name="alpha">0=0;-1=1</property>
    <property name="disable">1</property>
    <property name="kdenlive:collapsed">0</property>
   </filter>
  </entry>
 </playlist>
 <playlist id="playlist23"/>
 <tractor id="tractor11" in="00:00:00.000" out="00:21:11.000">
  <property name="kdenlive:trackheight">67</property>
  <property name="kdenlive:timeline_active">1</property>
  <property name="kdenlive:collapsed">28</property>
  <property name="kdenlive:thumbs_format"/>
  <property name="kdenlive:audio_rec"/>
  <track hide="audio" producer="playlist22"/>
  <track hide="audio" producer="playlist23"/>
 </tractor>
 <playlist id="playlist24">
  <blank length="00:00:39.000"/>
  <entry producer="producer359" in="00:00:00.000" out="00:00:03.840">
   <property name="kdenlive:id">363</property>
  </entry>
  <entry producer="producer369" in="00:00:00.000" out="00:00:04.200">
   <property name="kdenlive:id">372</property>
  </entry>
  <entry producer="producer379" in="00:00:00.000" out="00:00:04.080">
   <property name="kdenlive:id">383</property>
  </entry>
  <entry producer="producer93" in="00:00:00.000" out="00:00:03.320">
   <property name="kdenlive:id">96</property>
  </entry>
  <entry producer="producer96" in="00:00:00.000" out="00:00:03.600">
   <property name="kdenlive:id">100</property>
  </entry>
  <entry producer="producer97" in="00:00:00.000" out="00:00:03.200">
   <property name="kdenlive:id">101</property>
  </entry>
  <entry producer="producer98" in="00:00:00.000" out="00:00:04.680">
   <property name="kdenlive:id">102</property>
  </entry>
  <entry producer="producer99" in="00:00:00.000" out="00:00:02.640">
   <property name="kdenlive:id">103</property>
  </entry>
  <entry producer="producer110" in="00:00:00.000" out="00:00:04.080">
   <property name="kdenlive:id">114</property>
  </entry>
  <entry producer="producer121" in="00:00:00.000" out="00:00:03.400">
   <property name="kdenlive:id">125</property>
  </entry>
  <entry producer="producer132" in="00:00:00.000" out="00:00:04.120">
   <property name="kdenlive:id">136</property>
  </entry>
  <entry producer="producer139" in="00:00:00.000" out="00:00:03.600">
   <property name="kdenlive:id">143</property>
  </entry>
  <entry producer="producer149" in="00:00:00.000" out="00:00:03.080">
   <property name="kdenlive:id">153</property>
  </entry>
  <entry producer="producer160" in="00:00:00.000" out="00:00:04.200">
   <property name="kdenlive:id">164</property>
  </entry>
  <entry producer="producer170" in="00:00:00.000" out="00:00:03.360">
   <property name="kdenlive:id">175</property>
  </entry>
  <entry producer="producer181" in="00:00:00.000" out="00:00:04.240">
   <property name="kdenlive:id">186</property>
  </entry>
  <entry producer="producer191" in="00:00:00.000" out="00:00:04.800">
   <property name="kdenlive:id">195</property>
  </entry>
  <entry producer="producer192" in="00:00:00.000" out="00:00:02.920">
   <property name="kdenlive:id">196</property>
  </entry>
  <entry producer="producer201" in="00:00:00.000" out="00:00:03.760">
   <property name="kdenlive:id">204</property>
  </entry>
  <entry producer="producer202" in="00:00:00.000" out="00:00:03.520">
   <property name="kdenlive:id">206</property>
  </entry>
  <entry producer="producer203" in="00:00:00.000" out="00:00:04.200">
   <property name="kdenlive:id">207</property>
  </entry>
  <entry producer="producer204" in="00:00:00.000" out="00:00:03.320">
   <property name="kdenlive:id">208</property>
  </entry>
  <entry producer="producer214" in="00:00:00.000" out="00:00:03.720">
   <property name="kdenlive:id">218</property>
  </entry>
  <entry producer="producer225" in="00:00:00.000" out="00:00:03.440">
   <property name="kdenlive:id">229</property>
  </entry>
  <entry producer="producer236" in="00:00:00.000" out="00:00:04.000">
   <property name="kdenlive:id">240</property>
  </entry>
  <entry producer="producer247" in="00:00:00.000" out="00:00:04.000">
   <property name="kdenlive:id">251</property>
  </entry>
  <entry producer="producer255" in="00:00:00.000" out="00:00:03.440">
   <property name="kdenlive:id">259</property>
  </entry>
  <entry producer="producer263" in="00:00:00.000" out="00:00:04.200">
   <property name="kdenlive:id">267</property>
  </entry>
  <entry producer="producer268" in="00:00:00.000" out="00:00:04.800">
   <property name="kdenlive:id">272</property>
  </entry>
  <blank length="00:00:09.720"/>
  <entry producer="producer281" in="00:00:00.000" out="00:00:02.200">
   <property name="kdenlive:id">285</property>
  </entry>
  <entry producer="producer292" in="00:00:00.000" out="00:00:03.600">
   <property name="kdenlive:id">296</property>
  </entry>
  <entry producer="producer303" in="00:00:00.000" out="00:00:04.560">
   <property name="kdenlive:id">307</property>
  </entry>
  <entry producer="producer315" in="00:00:00.000" out="00:00:03.680">
   <property name="kdenlive:id">318</property>
  </entry>
  <entry producer="producer326" in="00:00:00.000" out="00:00:03.520">
   <property name="kdenlive:id">329</property>
  </entry>
  <entry producer="producer336" in="00:00:00.000" out="00:00:03.240">
   <property name="kdenlive:id">340</property>
  </entry>
  <entry producer="producer340" in="00:00:00.000" out="00:00:03.600">
   <property name="kdenlive:id">345</property>
  </entry>
  <entry producer="producer342" in="00:00:00.000" out="00:00:05.240">
   <property name="kdenlive:id">346</property>
  </entry>
  <entry producer="producer343" in="00:00:00.000" out="00:00:04.440">
   <property name="kdenlive:id">347</property>
  </entry>
  <entry producer="producer344" in="00:00:00.000" out="00:00:03.480">
   <property name="kdenlive:id">348</property>
  </entry>
  <entry producer="producer345" in="00:00:00.000" out="00:00:04.000">
   <property name="kdenlive:id">349</property>
  </entry>
  <entry producer="producer346" in="00:00:00.000" out="00:00:04.720">
   <property name="kdenlive:id">350</property>
  </entry>
  <entry producer="producer347" in="00:00:00.000" out="00:00:04.280">
   <property name="kdenlive:id">351</property>
  </entry>
  <entry producer="producer348" in="00:00:00.000" out="00:00:03.840">
   <property name="kdenlive:id">352</property>
  </entry>
  <entry producer="producer350" in="00:00:00.000" out="00:00:03.760">
   <property name="kdenlive:id">353</property>
  </entry>
  <entry producer="producer349" in="00:00:00.000" out="00:00:03.480">
   <property name="kdenlive:id">354</property>
  </entry>
  <entry producer="producer351" in="00:00:00.000" out="00:00:03.440">
   <property name="kdenlive:id">355</property>
  </entry>
  <entry producer="producer352" in="00:00:00.000" out="00:00:04.200">
   <property name="kdenlive:id">356</property>
  </entry>
  <entry producer="producer353" in="00:00:00.000" out="00:00:04.000">
   <property name="kdenlive:id">357</property>
  </entry>
  <entry producer="producer354" in="00:00:00.000" out="00:00:03.920">
   <property name="kdenlive:id">358</property>
  </entry>
  <entry producer="producer355" in="00:00:00.000" out="00:00:03.760">
   <property name="kdenlive:id">359</property>
  </entry>
  <entry producer="producer356" in="00:00:00.000" out="00:00:03.960">
   <property name="kdenlive:id">360</property>
  </entry>
  <entry producer="producer358" in="00:00:00.000" out="00:00:03.520">
   <property name="kdenlive:id">361</property>
  </entry>
  <entry producer="producer357" in="00:00:00.000" out="00:00:04.400">
   <property name="kdenlive:id">362</property>
  </entry>
  <blank length="00:00:42.240"/>
  <entry producer="producer362" in="00:00:00.000" out="00:00:02.880">
   <property name="kdenlive:id">364</property>
  </entry>
  <entry producer="producer360" in="00:00:00.000" out="00:00:03.720">
   <property name="kdenlive:id">365</property>
  </entry>
  <entry producer="producer361" in="00:00:00.000" out="00:00:02.800">
   <property name="kdenlive:id">366</property>
  </entry>
  <entry producer="producer363" in="00:00:00.000" out="00:00:04.760">
   <property name="kdenlive:id">367</property>
  </entry>
  <entry producer="producer365" in="00:00:00.000" out="00:00:02.840">
   <property name="kdenlive:id">368</property>
  </entry>
  <entry producer="producer364" in="00:00:00.000" out="00:00:03.200">
   <property name="kdenlive:id">369</property>
  </entry>
  <entry producer="producer366" in="00:00:00.000" out="00:00:03.880">
   <property name="kdenlive:id">370</property>
  </entry>
  <entry producer="producer367" in="00:00:00.000" out="00:00:04.120">
   <property name="kdenlive:id">371</property>
  </entry>
  <entry producer="producer368" in="00:00:00.000" out="00:00:03.640">
   <property name="kdenlive:id">373</property>
  </entry>
  <entry producer="producer370" in="00:00:00.000" out="00:00:04.080">
   <property name="kdenlive:id">374</property>
  </entry>
  <entry producer="producer372" in="00:00:00.000" out="00:00:03.560">
   <property name="kdenlive:id">375</property>
  </entry>
  <entry producer="producer371" in="00:00:00.000" out="00:00:04.320">
   <property name="kdenlive:id">376</property>
  </entry>
  <entry producer="producer373" in="00:00:00.000" out="00:00:03.400">
   <property name="kdenlive:id">377</property>
  </entry>
  <entry producer="producer374" in="00:00:00.000" out="00:00:04.000">
   <property name="kdenlive:id">378</property>
  </entry>
  <entry producer="producer375" in="00:00:00.000" out="00:00:03.200">
   <property name="kdenlive:id">379</property>
  </entry>
  <entry producer="producer377" in="00:00:00.000" out="00:00:04.080">
   <property name="kdenlive:id">380</property>
  </entry>
  <entry producer="producer376" in="00:00:00.000" out="00:00:03.640">
   <property name="kdenlive:id">381</property>
  </entry>
  <entry producer="producer378" in="00:00:00.000" out="00:00:03.320">
   <property name="kdenlive:id">382</property>
  </entry>
  <entry producer="producer380" in="00:00:00.000" out="00:00:03.360">
   <property name="kdenlive:id">384</property>
  </entry>
  <entry producer="producer381" in="00:00:00.000" out="00:00:04.120">
   <property name="kdenlive:id">385</property>
  </entry>
  <entry producer="producer382" in="00:00:00.000" out="00:00:03.840">
   <property name="kdenlive:id">386</property>
  </entry>
  <entry producer="producer384" in="00:00:00.000" out="00:00:03.520">
   <property name="kdenlive:id">387</property>
  </entry>
  <entry producer="producer383" in="00:00:00.000" out="00:00:03.760">
   <property name="kdenlive:id">388</property>
  </entry>
  <entry producer="producer385" in="00:00:00.000" out="00:00:03.480">
   <property name="kdenlive:id">389</property>
  </entry>
  <entry producer="producer386" in="00:00:00.000" out="00:00:03.840">
   <property name="kdenlive:id">390</property>
  </entry>
  <entry producer="producer387" in="00:00:00.000" out="00:00:03.120">
   <property name="kdenlive:id">391</property>
  </entry>
  <entry producer="producer389" in="00:00:00.000" out="00:00:03.880">
   <property name="kdenlive:id">392</property>
  </entry>
  <entry producer="producer388" in="00:00:00.000" out="00:00:03.800">
   <property name="kdenlive:id">393</property>
  </entry>
  <entry producer="producer92" in="00:00:00.000" out="00:00:04.400">
   <property name="kdenlive:id">97</property>
  </entry>
  <entry producer="producer95" in="00:00:00.000" out="00:00:04.160">
   <property name="kdenlive:id">98</property>
  </entry>
  <entry producer="producer94" in="00:00:00.000" out="00:00:04.240">
   <property name="kdenlive:id">99</property>
  </entry>
  <blank length="00:02:22.080"/>
  <entry producer="producer100" in="00:00:00.000" out="00:00:05.560">
   <property name="kdenlive:id">104</property>
  </entry>
  <entry producer="producer101" in="00:00:00.000" out="00:00:03.280">
   <property name="kdenlive:id">105</property>
  </entry>
  <entry producer="producer102" in="00:00:00.000" out="00:00:04.240">
   <property name="kdenlive:id">106</property>
  </entry>
  <entry producer="producer104" in="00:00:00.000" out="00:00:01.400">
   <property name="kdenlive:id">107</property>
  </entry>
  <entry producer="producer103" in="00:00:00.000" out="00:00:03.200">
   <property name="kdenlive:id">108</property>
  </entry>
  <entry producer="producer105" in="00:00:00.000" out="00:00:03.680">
   <property name="kdenlive:id">109</property>
  </entry>
  <entry producer="producer106" in="00:00:00.000" out="00:00:04.720">
   <property name="kdenlive:id">110</property>
  </entry>
  <entry producer="producer107" in="00:00:00.000" out="00:00:03.600">
   <property name="kdenlive:id">111</property>
  </entry>
  <entry producer="producer108" in="00:00:00.000" out="00:00:03.360">
   <property name="kdenlive:id">112</property>
  </entry>
  <entry producer="producer109" in="00:00:00.000" out="00:00:03.600">
   <property name="kdenlive:id">113</property>
  </entry>
  <entry producer="producer111" in="00:00:00.000" out="00:00:03.520">
   <property name="kdenlive:id">115</property>
  </entry>
  <entry producer="producer112" in="00:00:00.000" out="00:00:03.160">
   <property name="kdenlive:id">116</property>
  </entry>
  <entry producer="producer113" in="00:00:00.000" out="00:00:03.560">
   <property name="kdenlive:id">117</property>
  </entry>
  <entry producer="producer115" in="00:00:00.000" out="00:00:04.120">
   <property name="kdenlive:id">118</property>
  </entry>
  <entry producer="producer114" in="00:00:00.000" out="00:00:03.400">
   <property name="kdenlive:id">119</property>
  </entry>
  <entry producer="producer116" in="00:00:00.000" out="00:00:03.440">
   <property name="kdenlive:id">120</property>
  </entry>
  <entry producer="producer117" in="00:00:00.000" out="00:00:03.360">
   <property name="kdenlive:id">121</property>
  </entry>
  <entry producer="producer118" in="00:00:00.000" out="00:00:03.320">
   <property name="kdenlive:id">122</property>
  </entry>
  <entry producer="producer119" in="00:00:00.000" out="00:00:04.000">
   <property name="kdenlive:id">123</property>
  </entry>
  <entry producer="producer120" in="00:00:00.000" out="00:00:03.720">
   <property name="kdenlive:id">124</property>
  </entry>
  <entry producer="producer122" in="00:00:00.000" out="00:00:03.760">
   <property name="kdenlive:id">126</property>
  </entry>
  <entry producer="producer123" in="00:00:00.000" out="00:00:03.480">
   <property name="kdenlive:id">127</property>
  </entry>
  <entry producer="producer124" in="00:00:00.000" out="00:00:03.560">
   <property name="kdenlive:id">128</property>
  </entry>
  <entry producer="producer125" in="00:00:00.000" out="00:00:03.480">
   <property name="kdenlive:id">129</property>
  </entry>
  <entry producer="producer127" in="00:00:00.000" out="00:00:03.960">
   <property name="kdenlive:id">130</property>
  </entry>
  <entry producer="producer128" in="00:00:00.000" out="00:00:03.280">
   <property name="kdenlive:id">131</property>
  </entry>
  <entry producer="producer126" in="00:00:00.000" out="00:00:04.400">
   <property name="kdenlive:id">132</property>
  </entry>
  <entry producer="producer129" in="00:00:00.000" out="00:00:03.920">
   <property name="kdenlive:id">133</property>
  </entry>
  <entry producer="producer130" in="00:00:00.000" out="00:00:03.480">
   <property name="kdenlive:id">134</property>
  </entry>
  <entry producer="producer131" in="00:00:00.000" out="00:00:03.360">
   <property name="kdenlive:id">135</property>
  </entry>
  <entry producer="producer133" in="00:00:00.000" out="00:00:03.960">
   <property name="kdenlive:id">137</property>
  </entry>
  <entry producer="producer134" in="00:00:00.000" out="00:00:03.120">
   <property name="kdenlive:id">138</property>
  </entry>
  <entry producer="producer135" in="00:00:00.000" out="00:00:03.600">
   <property name="kdenlive:id">139</property>
  </entry>
  <entry producer="producer136" in="00:00:00.000" out="00:00:04.160">
   <property name="kdenlive:id">140</property>
  </entry>
  <entry producer="producer138" in="00:00:00.000" out="00:00:04.280">
   <property name="kdenlive:id">141</property>
  </entry>
  <entry producer="producer137" in="00:00:00.000" out="00:00:02.040">
   <property name="kdenlive:id">142</property>
  </entry>
  <blank length="00:00:21.640"/>
  <entry producer="producer140" in="00:00:00.000" out="00:00:04.040">
   <property name="kdenlive:id">144</property>
  </entry>
  <entry producer="producer141" in="00:00:00.000" out="00:00:04.040">
   <property name="kdenlive:id">145</property>
  </entry>
  <entry producer="producer142" in="00:00:00.000" out="00:00:04.400">
   <property name="kdenlive:id">146</property>
  </entry>
  <entry producer="producer143" in="00:00:00.000" out="00:00:04.160">
   <property name="kdenlive:id">147</property>
  </entry>
  <entry producer="producer145" in="00:00:00.000" out="00:00:03.560">
   <property name="kdenlive:id">148</property>
  </entry>
  <entry producer="producer144" in="00:00:00.000" out="00:00:03.600">
   <property name="kdenlive:id">149</property>
  </entry>
  <entry producer="producer146" in="00:00:00.000" out="00:00:03.880">
   <property name="kdenlive:id">150</property>
  </entry>
  <entry producer="producer147" in="00:00:00.000" out="00:00:03.840">
   <property name="kdenlive:id">151</property>
  </entry>
  <entry producer="producer148" in="00:00:00.000" out="00:00:03.160">
   <property name="kdenlive:id">152</property>
  </entry>
  <entry producer="producer150" in="00:00:00.000" out="00:00:03.960">
   <property name="kdenlive:id">154</property>
  </entry>
  <entry producer="producer151" in="00:00:00.000" out="00:00:03.760">
   <property name="kdenlive:id">155</property>
  </entry>
  <entry producer="producer152" in="00:00:00.000" out="00:00:04.080">
   <property name="kdenlive:id">156</property>
  </entry>
  <entry producer="producer153" in="00:00:00.000" out="00:00:04.320">
   <property name="kdenlive:id">157</property>
  </entry>
  <entry producer="producer154" in="00:00:00.000" out="00:00:03.840">
   <property name="kdenlive:id">158</property>
  </entry>
  <entry producer="producer156" in="00:00:00.000" out="00:00:05.320">
   <property name="kdenlive:id">159</property>
  </entry>
  <entry producer="producer155" in="00:00:00.000" out="00:00:05.080">
   <property name="kdenlive:id">160</property>
  </entry>
  <entry producer="producer157" in="00:00:00.000" out="00:00:03.760">
   <property name="kdenlive:id">161</property>
  </entry>
  <entry producer="producer158" in="00:00:00.000" out="00:00:03.240">
   <property name="kdenlive:id">162</property>
  </entry>
  <entry producer="producer159" in="00:00:00.000" out="00:00:04.240">
   <property name="kdenlive:id">163</property>
  </entry>
  <entry producer="producer161" in="00:00:00.000" out="00:00:04.400">
   <property name="kdenlive:id">165</property>
  </entry>
  <entry producer="producer162" in="00:00:00.000" out="00:00:03.760">
   <property name="kdenlive:id">166</property>
  </entry>
  <entry producer="producer163" in="00:00:00.000" out="00:00:04.000">
   <property name="kdenlive:id">167</property>
  </entry>
  <entry producer="producer164" in="00:00:00.000" out="00:00:03.040">
   <property name="kdenlive:id">168</property>
  </entry>
  <entry producer="producer165" in="00:00:00.000" out="00:00:04.280">
   <property name="kdenlive:id">169</property>
  </entry>
  <entry producer="producer166" in="00:00:00.000" out="00:00:04.160">
   <property name="kdenlive:id">170</property>
  </entry>
  <entry producer="producer167" in="00:00:00.000" out="00:00:03.800">
   <property name="kdenlive:id">171</property>
  </entry>
  <entry producer="producer169" in="00:00:00.000" out="00:00:03.880">
   <property name="kdenlive:id">172</property>
  </entry>
  <entry producer="producer168" in="00:00:00.000" out="00:00:04.440">
   <property name="kdenlive:id">173</property>
  </entry>
  <entry producer="producer171" in="00:00:00.000" out="00:00:03.840">
   <property name="kdenlive:id">174</property>
  </entry>
  <entry producer="producer172" in="00:00:00.000" out="00:00:04.200">
   <property name="kdenlive:id">176</property>
  </entry>
  <entry producer="producer173" in="00:00:00.000" out="00:00:03.240">
   <property name="kdenlive:id">177</property>
  </entry>
  <entry producer="producer175" in="00:00:00.000" out="00:00:04.160">
   <property name="kdenlive:id">178</property>
  </entry>
  <entry producer="producer174" in="00:00:00.000" out="00:00:04.120">
   <property name="kdenlive:id">179</property>
  </entry>
  <entry producer="producer176" in="00:00:00.000" out="00:00:03.720">
   <property name="kdenlive:id">180</property>
  </entry>
  <entry producer="producer177" in="00:00:00.000" out="00:00:03.840">
   <property name="kdenlive:id">181</property>
  </entry>
  <entry producer="producer178" in="00:00:00.000" out="00:00:04.240">
   <property name="kdenlive:id">182</property>
  </entry>
  <entry producer="producer179" in="00:00:00.000" out="00:00:04.520">
   <property name="kdenlive:id">183</property>
  </entry>
  <entry producer="producer180" in="00:00:00.000" out="00:00:04.160">
   <property name="kdenlive:id">184</property>
  </entry>
  <entry producer="producer183" in="00:00:00.000" out="00:00:03.400">
   <property name="kdenlive:id">185</property>
  </entry>
  <entry producer="producer182" in="00:00:00.000" out="00:00:03.880">
   <property name="kdenlive:id">187</property>
  </entry>
  <entry producer="producer184" in="00:00:00.000" out="00:00:04.640">
   <property name="kdenlive:id">188</property>
  </entry>
  <entry producer="producer185" in="00:00:00.000" out="00:00:04.480">
   <property name="kdenlive:id">189</property>
  </entry>
  <entry producer="producer186" in="00:00:00.000" out="00:00:03.400">
   <property name="kdenlive:id">190</property>
  </entry>
  <entry producer="producer187" in="00:00:00.000" out="00:00:04.040">
   <property name="kdenlive:id">191</property>
  </entry>
  <entry producer="producer188" in="00:00:00.000" out="00:00:03.640">
   <property name="kdenlive:id">192</property>
  </entry>
  <entry producer="producer189" in="00:00:00.000" out="00:00:02.200">
   <property name="kdenlive:id">193</property>
  </entry>
  <entry producer="producer190" in="00:00:00.000" out="00:00:03.160">
   <property name="kdenlive:id">194</property>
  </entry>
  <blank length="00:00:59.520"/>
  <entry producer="producer193" in="00:00:00.000" out="00:00:02.920">
   <property name="kdenlive:id">197</property>
  </entry>
  <entry producer="producer194" in="00:00:00.000" out="00:00:03.560">
   <property name="kdenlive:id">198</property>
  </entry>
  <entry producer="producer196" in="00:00:00.000" out="00:00:03.840">
   <property name="kdenlive:id">199</property>
  </entry>
  <entry producer="producer195" in="00:00:00.000" out="00:00:03.640">
   <property name="kdenlive:id">200</property>
  </entry>
  <entry producer="producer197" in="00:00:00.000" out="00:00:02.720">
   <property name="kdenlive:id">201</property>
  </entry>
  <entry producer="producer198" in="00:00:00.000" out="00:00:03.640">
   <property name="kdenlive:id">202</property>
  </entry>
  <entry producer="producer199" in="00:00:00.000" out="00:00:03.280">
   <property name="kdenlive:id">203</property>
  </entry>
  <entry producer="producer200" in="00:00:00.000" out="00:00:01.400">
   <property name="kdenlive:id">205</property>
  </entry>
  <blank length="00:01:50.080"/>
  <entry producer="producer205" in="00:00:00.000" out="00:00:03.480">
   <property name="kdenlive:id">209</property>
  </entry>
  <entry producer="producer207" in="00:00:00.000" out="00:00:04.880">
   <property name="kdenlive:id">210</property>
  </entry>
  <entry producer="producer206" in="00:00:00.000" out="00:00:03.400">
   <property name="kdenlive:id">211</property>
  </entry>
  <entry producer="producer209" in="00:00:00.000" out="00:00:03.680">
   <property name="kdenlive:id">212</property>
  </entry>
  <entry producer="producer208" in="00:00:00.000" out="00:00:03.160">
   <property name="kdenlive:id">213</property>
  </entry>
  <entry producer="producer210" in="00:00:00.000" out="00:00:04.280">
   <property name="kdenlive:id">214</property>
  </entry>
  <entry producer="producer211" in="00:00:00.000" out="00:00:03.880">
   <property name="kdenlive:id">215</property>
  </entry>
  <entry producer="producer212" in="00:00:00.000" out="00:00:03.960">
   <property name="kdenlive:id">216</property>
  </entry>
  <entry producer="producer213" in="00:00:00.000" out="00:00:04.160">
   <property name="kdenlive:id">217</property>
  </entry>
  <entry producer="producer217" in="00:00:00.000" out="00:00:03.280">
   <property name="kdenlive:id">219</property>
  </entry>
  <entry producer="producer215" in="00:00:00.000" out="00:00:03.160">
   <property name="kdenlive:id">220</property>
  </entry>
  <entry producer="producer216" in="00:00:00.000" out="00:00:04.400">
   <property name="kdenlive:id">221</property>
  </entry>
  <entry producer="producer220" in="00:00:00.000" out="00:00:04.400">
   <property name="kdenlive:id">222</property>
  </entry>
  <entry producer="producer218" in="00:00:00.000" out="00:00:04.600">
   <property name="kdenlive:id">223</property>
  </entry>
  <entry producer="producer219" in="00:00:00.000" out="00:00:04.000">
   <property name="kdenlive:id">224</property>
  </entry>
  <entry producer="producer221" in="00:00:00.000" out="00:00:03.960">
   <property name="kdenlive:id">225</property>
  </entry>
  <entry producer="producer223" in="00:00:00.000" out="00:00:03.600">
   <property name="kdenlive:id">226</property>
  </entry>
  <entry producer="producer222" in="00:00:00.000" out="00:00:04.040">
   <property name="kdenlive:id">227</property>
  </entry>
  <entry producer="producer224" in="00:00:00.000" out="00:00:04.440">
   <property name="kdenlive:id">228</property>
  </entry>
  <entry producer="producer226" in="00:00:00.000" out="00:00:04.160">
   <property name="kdenlive:id">230</property>
  </entry>
  <entry producer="producer227" in="00:00:00.000" out="00:00:04.280">
   <property name="kdenlive:id">231</property>
  </entry>
  <entry producer="producer228" in="00:00:00.000" out="00:00:03.480">
   <property name="kdenlive:id">232</property>
  </entry>
  <entry producer="producer229" in="00:00:00.000" out="00:00:03.160">
   <property name="kdenlive:id">233</property>
  </entry>
  <entry producer="producer230" in="00:00:00.000" out="00:00:03.720">
   <property name="kdenlive:id">234</property>
  </entry>
  <entry producer="producer231" in="00:00:00.000" out="00:00:03.920">
   <property name="kdenlive:id">235</property>
  </entry>
  <entry producer="producer233" in="00:00:00.000" out="00:00:03.600">
   <property name="kdenlive:id">236</property>
  </entry>
  <entry producer="producer232" in="00:00:00.000" out="00:00:04.800">
   <property name="kdenlive:id">237</property>
  </entry>
  <entry producer="producer234" in="00:00:00.000" out="00:00:04.040">
   <property name="kdenlive:id">238</property>
  </entry>
  <entry producer="producer235" in="00:00:00.000" out="00:00:04.640">
   <property name="kdenlive:id">239</property>
  </entry>
  <entry producer="producer237" in="00:00:00.000" out="00:00:04.160">
   <property name="kdenlive:id">241</property>
  </entry>
  <entry producer="producer238" in="00:00:00.000" out="00:00:04.600">
   <property name="kdenlive:id">242</property>
  </entry>
  <entry producer="producer240" in="00:00:00.000" out="00:00:04.600">
   <property name="kdenlive:id">243</property>
  </entry>
  <entry producer="producer239" in="00:00:00.000" out="00:00:03.200">
   <property name="kdenlive:id">244</property>
  </entry>
  <entry producer="producer241" in="00:00:00.000" out="00:00:03.720">
   <property name="kdenlive:id">245</property>
  </entry>
  <entry producer="producer242" in="00:00:00.000" out="00:00:03.920">
   <property name="kdenlive:id">246</property>
  </entry>
  <entry producer="producer243" in="00:00:00.000" out="00:00:04.080">
   <property name="kdenlive:id">247</property>
  </entry>
  <entry producer="producer244" in="00:00:00.000" out="00:00:04.000">
   <property name="kdenlive:id">248</property>
  </entry>
  <entry producer="producer246" in="00:00:00.000" out="00:00:03.880">
   <property name="kdenlive:id">249</property>
  </entry>
  <entry producer="producer245" in="00:00:00.000" out="00:00:04.080">
   <property name="kdenlive:id">250</property>
  </entry>
  <entry producer="producer248" in="00:00:00.000" out="00:00:03.840">
   <property name="kdenlive:id">252</property>
  </entry>
  <entry producer="producer250" in="00:00:00.000" out="00:00:03.600">
   <property name="kdenlive:id">253</property>
  </entry>
  <entry producer="producer251" in="00:00:00.000" out="00:00:04.320">
   <property name="kdenlive:id">254</property>
  </entry>
  <entry producer="producer249" in="00:00:00.000" out="00:00:03.800">
   <property name="kdenlive:id">255</property>
  </entry>
  <entry producer="producer252" in="00:00:00.000" out="00:00:03.760">
   <property name="kdenlive:id">256</property>
  </entry>
  <entry producer="producer253" in="00:00:00.000" out="00:00:03.800">
   <property name="kdenlive:id">257</property>
  </entry>
  <entry producer="producer254" in="00:00:00.000" out="00:00:02.440">
   <property name="kdenlive:id">258</property>
  </entry>
  <blank length="00:00:29.240"/>
  <entry producer="producer256" in="00:00:00.000" out="00:00:02.720">
   <property name="kdenlive:id">260</property>
  </entry>
  <entry producer="producer257" in="00:00:00.000" out="00:00:03.280">
   <property name="kdenlive:id">261</property>
  </entry>
  <entry producer="producer258" in="00:00:00.000" out="00:00:05.200">
   <property name="kdenlive:id">262</property>
  </entry>
  <entry producer="producer259" in="00:00:00.000" out="00:00:04.240">
   <property name="kdenlive:id">263</property>
  </entry>
  <entry producer="producer260" in="00:00:00.000" out="00:00:03.640">
   <property name="kdenlive:id">264</property>
  </entry>
  <entry producer="producer262" in="00:00:00.000" out="00:00:03.240">
   <property name="kdenlive:id">265</property>
  </entry>
  <entry producer="producer261" in="00:00:00.000" out="00:00:03.120">
   <property name="kdenlive:id">266</property>
  </entry>
  <entry producer="producer264" in="00:00:00.000" out="00:00:02.960">
   <property name="kdenlive:id">268</property>
  </entry>
  <entry producer="producer265" in="00:00:00.000" out="00:00:03.920">
   <property name="kdenlive:id">269</property>
  </entry>
  <entry producer="producer266" in="00:00:00.000" out="00:00:03.080">
   <property name="kdenlive:id">270</property>
  </entry>
  <entry producer="producer267" in="00:00:00.000" out="00:00:03.560">
   <property name="kdenlive:id">271</property>
  </entry>
  <blank length="00:01:36.840"/>
  <entry producer="producer269" in="00:00:00.000" out="00:00:04.080">
   <property name="kdenlive:id">273</property>
  </entry>
  <entry producer="producer270" in="00:00:00.000" out="00:00:01.320">
   <property name="kdenlive:id">274</property>
  </entry>
  <entry producer="producer273" in="00:00:00.000" out="00:00:03.800">
   <property name="kdenlive:id">275</property>
  </entry>
  <entry producer="producer271" in="00:00:00.000" out="00:00:03.120">
   <property name="kdenlive:id">276</property>
  </entry>
  <entry producer="producer272" in="00:00:00.000" out="00:00:04.080">
   <property name="kdenlive:id">277</property>
  </entry>
  <entry producer="producer274" in="00:00:00.000" out="00:00:04.320">
   <property name="kdenlive:id">278</property>
  </entry>
  <entry producer="producer276" in="00:00:00.000" out="00:00:03.840">
   <property name="kdenlive:id">279</property>
  </entry>
  <entry producer="producer275" in="00:00:00.000" out="00:00:02.760">
   <property name="kdenlive:id">280</property>
  </entry>
  <entry producer="producer277" in="00:00:00.000" out="00:00:03.600">
   <property name="kdenlive:id">281</property>
  </entry>
  <entry producer="producer278" in="00:00:00.000" out="00:00:03.720">
   <property name="kdenlive:id">282</property>
  </entry>
  <entry producer="producer279" in="00:00:00.000" out="00:00:03.800">
   <property name="kdenlive:id">283</property>
  </entry>
  <entry producer="producer280" in="00:00:00.000" out="00:00:03.480">
   <property name="kdenlive:id">284</property>
  </entry>
  <entry producer="producer282" in="00:00:00.000" out="00:00:03.080">
   <property name="kdenlive:id">286</property>
  </entry>
  <entry producer="producer283" in="00:00:00.000" out="00:00:03.320">
   <property name="kdenlive:id">287</property>
  </entry>
  <entry producer="producer284" in="00:00:00.000" out="00:00:03.560">
   <property name="kdenlive:id">288</property>
  </entry>
  <entry producer="producer285" in="00:00:00.000" out="00:00:03.240">
   <property name="kdenlive:id">289</property>
  </entry>
  <entry producer="producer287" in="00:00:00.000" out="00:00:03.760">
   <property name="kdenlive:id">290</property>
  </entry>
  <entry producer="producer286" in="00:00:00.000" out="00:00:02.960">
   <property name="kdenlive:id">291</property>
  </entry>
  <entry producer="producer288" in="00:00:00.000" out="00:00:03.880">
   <property name="kdenlive:id">292</property>
  </entry>
  <entry producer="producer289" in="00:00:00.000" out="00:00:02.160">
   <property name="kdenlive:id">293</property>
  </entry>
  <entry producer="producer290" in="00:00:00.000" out="00:00:03.680">
   <property name="kdenlive:id">294</property>
  </entry>
  <entry producer="producer291" in="00:00:00.000" out="00:00:03.120">
   <property name="kdenlive:id">295</property>
  </entry>
  <entry producer="producer294" in="00:00:00.000" out="00:00:03.200">
   <property name="kdenlive:id">297</property>
  </entry>
  <entry producer="producer293" in="00:00:00.000" out="00:00:03.200">
   <property name="kdenlive:id">298</property>
  </entry>
  <entry producer="producer295" in="00:00:00.000" out="00:00:03.880">
   <property name="kdenlive:id">299</property>
  </entry>
  <entry producer="producer297" in="00:00:00.000" out="00:00:03.200">
   <property name="kdenlive:id">300</property>
  </entry>
  <entry producer="producer296" in="00:00:00.000" out="00:00:03.440">
   <property name="kdenlive:id">301</property>
  </entry>
  <entry producer="producer298" in="00:00:00.000" out="00:00:03.960">
   <property name="kdenlive:id">302</property>
  </entry>
  <entry producer="producer299" in="00:00:00.000" out="00:00:03.560">
   <property name="kdenlive:id">303</property>
  </entry>
  <entry producer="producer300" in="00:00:00.000" out="00:00:03.320">
   <property name="kdenlive:id">304</property>
  </entry>
  <entry producer="producer301" in="00:00:00.000" out="00:00:04.000">
   <property name="kdenlive:id">305</property>
  </entry>
  <entry producer="producer302" in="00:00:00.000" out="00:00:02.800">
   <property name="kdenlive:id">306</property>
  </entry>
  <entry producer="producer304" in="00:00:00.000" out="00:00:02.440">
   <property name="kdenlive:id">308</property>
  </entry>
  <entry producer="producer306" in="00:00:00.000" out="00:00:03.520">
   <property name="kdenlive:id">309</property>
  </entry>
  <entry producer="producer305" in="00:00:00.000" out="00:00:03.520">
   <property name="kdenlive:id">310</property>
  </entry>
  <entry producer="producer307" in="00:00:00.000" out="00:00:03.120">
   <property name="kdenlive:id">311</property>
  </entry>
  <entry producer="producer308" in="00:00:00.000" out="00:00:03.320">
   <property name="kdenlive:id">312</property>
  </entry>
  <entry producer="producer309" in="00:00:00.000" out="00:00:00.840">
   <property name="kdenlive:id">313</property>
  </entry>
 </playlist>
 <playlist id="playlist25"/>
 <tractor id="tractor12" in="00:00:00.000" out="00:26:04.000">
  <property name="kdenlive:trackheight">67</property>
  <property name="kdenlive:timeline_active">1</property>
  <property name="kdenlive:collapsed">28</property>
  <property name="kdenlive:track_name">subtitles</property>
  <property name="kdenlive:thumbs_format"/>
  <property name="kdenlive:audio_rec"/>
  <track hide="audio" producer="playlist24"/>
  <track hide="audio" producer="playlist25"/>
 </tractor>
 <playlist id="playlist26">
  <entry producer="producer390" in="00:00:00.000" out="00:28:28.280">
   <property name="kdenlive:id">394</property>
  </entry>
 </playlist>
 <playlist id="playlist27"/>
 <tractor id="tractor13" in="00:00:00.000" out="00:28:28.280">
  <property name="kdenlive:trackheight">67</property>
  <property name="kdenlive:timeline_active">1</property>
  <property name="kdenlive:collapsed">28</property>
  <property name="kdenlive:track_name">watermark</property>
  <property name="kdenlive:thumbs_format"/>
  <property name="kdenlive:audio_rec"/>
  <track hide="audio" producer="playlist26"/>
  <track hide="audio" producer="playlist27"/>
 </tractor>
 <playlist id="playlist28">
  <blank length="00:01:53.440"/>
  <entry producer="producer401" in="00:00:00.000" out="00:00:01.240">
   <property name="kdenlive:id">408</property>
   <filter id="filter12">
    <property name="rotate_center">1</property>
    <property name="mlt_service">qtblend</property>
    <property name="kdenlive_id">qtblend</property>
    <property name="rect">00:00:00.000=1824 1200 96 54 1.000000;00:00:00.240=1824 1005 96 54 1.000000;00:00:00.320=1824 1011 96 54 1.000000</property>
    <property name="rotation">00:00:00.000=0;00:00:00.240=0;00:00:00.320=0</property>
    <property name="compositing">0</property>
    <property name="distort">0</property>
    <property name="kdenlive:collapsed">0</property>
   </filter>
   <filter id="filter13" in="00:00:00.880" out="00:00:01.280">
    <property name="start">1</property>
    <property name="level">1</property>
    <property name="mlt_service">brightness</property>
    <property name="kdenlive_id">fade_to_black</property>
    <property name="alpha">00:00:00.000=1;00:00:00.400=0</property>
    <property name="kdenlive:collapsed">0</property>
   </filter>
  </entry>
  <blank length="00:00:00.520"/>
  <entry producer="producer402" in="00:00:00.000" out="00:00:00.960">
   <property name="kdenlive:id">409</property>
   <filter id="filter14">
    <property name="rotate_center">1</property>
    <property name="mlt_service">qtblend</property>
    <property name="kdenlive_id">qtblend</property>
    <property name="rect">00:00:00.000=1824 1032 96 54 1.000000;00:00:00.040=1824 1005 96 54 1.000000;00:00:00.360=1824 1011 96 54 1.000000</property>
    <property name="rotation">00:00:00.000=0;00:00:00.040=0;00:00:00.360=0</property>
    <property name="compositing">0</property>
    <property name="distort">0</property>
    <property name="kdenlive:collapsed">0</property>
   </filter>
   <filter id="filter15" in="00:00:00.600" out="00:00:01.000">
    <property name="start">1</property>
    <property name="level">1</property>
    <property name="mlt_service">brightness</property>
    <property name="kdenlive_id">fade_to_black</property>
    <property name="alpha">00:00:00.000=1;00:00:00.400=0</property>
    <property name="kdenlive:collapsed">0</property>
   </filter>
  </entry>
  <blank length="00:04:29.560"/>
  <entry producer="producer408" in="00:00:00.000" out="00:00:06.040">
   <property name="kdenlive:id">413</property>
   <property name="kdenlive:activeeffect">0</property>
   <filter id="filter16">
    <property name="rotate_center">1</property>
    <property name="mlt_service">qtblend</property>
    <property name="kdenlive_id">qtblend</property>
    <property name="rect">00:00:00.000=1824 1200 96 54 1.000000;00:00:00.240=1824 1005 96 54 1.000000;00:00:00.320=1824 1011 96 54 1.000000</property>
    <property name="rotation">00:00:00.000=0;00:00:00.240=0;00:00:00.320=0</property>
    <property name="compositing">0</property>
    <property name="distort">0</property>
    <property name="kdenlive:collapsed">0</property>
   </filter>
   <filter id="filter17" in="00:00:05.520" out="00:00:06.080">
    <property name="start">1</property>
    <property name="level">1</property>
    <property name="mlt_service">brightness</property>
    <property name="kdenlive_id">fade_to_black</property>
    <property name="alpha">00:00:00.000=1;00:00:00.560=0</property>
   </filter>
  </entry>
  <blank length="00:11:59.240"/>
  <entry producer="producer392" in="00:00:00.000" out="00:00:03.640">
   <property name="kdenlive:id">399</property>
   <property name="kdenlive:activeeffect">0</property>
   <filter id="filter18">
    <property name="rotate_center">1</property>
    <property name="mlt_service">qtblend</property>
    <property name="kdenlive_id">qtblend</property>
    <property name="rect">00:00:00.000=1824 1200 96 54 1.000000;00:00:00.240=1824 1005 96 54 1.000000;00:00:00.320=1824 1011 96 54 1.000000</property>
    <property name="rotation">00:00:00.000=0;00:00:00.240=0;00:00:00.320=0</property>
    <property name="compositing">0</property>
    <property name="distort">0</property>
    <property name="kdenlive:collapsed">0</property>
   </filter>
   <filter id="filter19" in="00:00:03.280" out="00:00:03.640">
    <property name="start">1</property>
    <property name="level">1</property>
    <property name="mlt_service">brightness</property>
    <property name="kdenlive_id">fade_to_black</property>
    <property name="alpha">00:00:00.000=1;00:00:00.360=0</property>
    <property name="kdenlive:collapsed">0</property>
   </filter>
  </entry>
  <blank length="00:01:17.000"/>
  <entry producer="producer398" in="00:00:00.000" out="00:00:05.080">
   <property name="kdenlive:id">400</property>
   <filter id="filter20">
    <property name="rotate_center">1</property>
    <property name="mlt_service">qtblend</property>
    <property name="kdenlive_id">qtblend</property>
    <property name="rect">00:00:00.000=1824 1200 96 54 1.000000;00:00:00.240=1824 1005 96 54 1.000000;00:00:00.320=1824 1011 96 54 1.000000</property>
    <property name="rotation">00:00:00.000=0;00:00:00.240=0;00:00:00.320=0</property>
    <property name="compositing">0</property>
    <property name="distort">0</property>
    <property name="kdenlive:collapsed">0</property>
   </filter>
   <filter id="filter21" in="00:00:04.600" out="00:00:05.080">
    <property name="start">1</property>
    <property name="level">1</property>
    <property name="mlt_service">brightness</property>
    <property name="kdenlive_id">fade_to_black</property>
    <property name="alpha">00:00:00.000=1;00:00:00.480=0</property>
    <property name="kdenlive:collapsed">0</property>
   </filter>
  </entry>
  <blank length="00:00:39.000"/>
  <entry producer="producer396" in="00:00:00.000" out="00:00:03.960">
   <property name="kdenlive:id">401</property>
   <filter id="filter22">
    <property name="rotate_center">1</property>
    <property name="mlt_service">qtblend</property>
    <property name="kdenlive_id">qtblend</property>
    <property name="rect">00:00:00.000=1824 1200 96 54 1.000000;00:00:00.240=1824 1005 96 54 1.000000;00:00:00.320=1824 1011 96 54 1.000000</property>
    <property name="rotation">00:00:00.000=0;00:00:00.240=0;00:00:00.320=0</property>
    <property name="compositing">0</property>
    <property name="distort">0</property>
    <property name="kdenlive:collapsed">0</property>
   </filter>
   <filter id="filter23" in="00:00:03.600" out="00:00:03.960">
    <property name="start">1</property>
    <property name="level">1</property>
    <property name="mlt_service">brightness</property>
    <property name="kdenlive_id">fade_to_black</property>
    <property name="alpha">00:00:00.000=1;00:00:00.360=0</property>
    <property name="kdenlive:collapsed">0</property>
   </filter>
  </entry>
  <blank length="00:04:25.280"/>
  <entry producer="producer397" in="00:00:00.000" out="00:00:03.680">
   <property name="kdenlive:id">403</property>
   <filter id="filter24">
    <property name="rotate_center">1</property>
    <property name="mlt_service">qtblend</property>
    <property name="kdenlive_id">qtblend</property>
    <property name="rect">00:00:00.000=1824 1200 96 54 1.000000;00:00:00.240=1824 1005 96 54 1.000000;00:00:00.320=1824 1011 96 54 1.000000</property>
    <property name="rotation">00:00:00.000=0;00:00:00.240=0;00:00:00.320=0</property>
    <property name="compositing">0</property>
    <property name="distort">0</property>
    <property name="kdenlive:collapsed">0</property>
   </filter>
   <filter id="filter25" in="00:00:03.320" out="00:00:03.680">
    <property name="start">1</property>
    <property name="level">1</property>
    <property name="mlt_service">brightness</property>
    <property name="kdenlive_id">fade_to_black</property>
    <property name="alpha">00:00:00.000=1;00:00:00.360=0</property>
    <property name="kdenlive:collapsed">0</property>
   </filter>
  </entry>
  <blank length="00:00:44.960"/>
  <entry producer="producer400" in="00:00:00.000" out="00:00:02.360">
   <property name="kdenlive:id">404</property>
   <filter id="filter26">
    <property name="rotate_center">1</property>
    <property name="mlt_service">qtblend</property>
    <property name="kdenlive_id">qtblend</property>
    <property name="rect">00:00:00.000=1824 1200 96 54 1.000000;00:00:00.240=1824 1005 96 54 1.000000;00:00:00.320=1824 1011 96 54 1.000000</property>
    <property name="rotation">00:00:00.000=0;00:00:00.240=0;00:00:00.320=0</property>
    <property name="compositing">0</property>
    <property name="distort">0</property>
    <property name="kdenlive:collapsed">0</property>
   </filter>
   <filter id="filter27" in="00:00:01.840" out="00:00:02.400">
    <property name="start">1</property>
    <property name="level">1</property>
    <property name="mlt_service">brightness</property>
    <property name="kdenlive_id">fade_to_black</property>
    <property name="alpha">00:00:00.000=1;00:00:00.560=0</property>
    <property name="kdenlive:collapsed">0</property>
   </filter>
  </entry>
 </playlist>
 <playlist id="playlist29"/>
 <tractor id="tractor14" in="00:00:00.000" out="00:25:56.240">
  <property name="kdenlive:trackheight">67</property>
  <property name="kdenlive:timeline_active">1</property>
  <property name="kdenlive:track_name">footnotes</property>
  <track producer="playlist28"/>
  <track producer="playlist29"/>
 </tractor>
 <tractor id="tractor15" in="00:00:00.000" out="00:48:28.320">
  <track producer="black_track"/>
  <track producer="tractor0"/>
  <track producer="tractor1"/>
  <track producer="tractor2"/>
  <track producer="tractor3"/>
  <track producer="tractor4"/>
  <track producer="tractor5"/>
  <track producer="tractor6"/>
  <track producer="tractor7"/>
  <track producer="tractor8"/>
  <track producer="tractor9"/>
  <track producer="tractor10"/>
  <track producer="tractor11"/>
  <track producer="tractor12"/>
  <track producer="tractor13"/>
  <track producer="tractor14"/>
  <transition id="transition0">
   <property name="a_track">0</property>
   <property name="b_track">1</property>
   <property name="mlt_service">mix</property>
   <property name="kdenlive_id">mix</property>
   <property name="internal_added">237</property>
   <property name="always_active">1</property>
   <property name="accepts_blanks">1</property>
   <property name="sum">1</property>
  </transition>
  <transition id="transition1">
   <property name="a_track">0</property>
   <property name="b_track">2</property>
   <property name="mlt_service">mix</property>
   <property name="kdenlive_id">mix</property>
   <property name="internal_added">237</property>
   <property name="always_active">1</property>
   <property name="accepts_blanks">1</property>
   <property name="sum">1</property>
  </transition>
  <transition id="transition2">
   <property name="a_track">0</property>
   <property name="b_track">3</property>
   <property name="version">0.9</property>
   <property name="mlt_service">frei0r.cairoblend</property>
   <property name="kdenlive_id">frei0r.cairoblend</property>
   <property name="internal_added">237</property>
   <property name="always_active">1</property>
  </transition>
  <transition id="transition3">
   <property name="a_track">0</property>
   <property name="b_track">4</property>
   <property name="version">0.9</property>
   <property name="mlt_service">frei0r.cairoblend</property>
   <property name="kdenlive_id">frei0r.cairoblend</property>
   <property name="internal_added">237</property>
   <property name="always_active">1</property>
  </transition>
  <transition id="transition4">
   <property name="a_track">0</property>
   <property name="b_track">5</property>
   <property name="version">0.9</property>
   <property name="mlt_service">frei0r.cairoblend</property>
   <property name="kdenlive_id">frei0r.cairoblend</property>
   <property name="internal_added">237</property>
   <property name="always_active">1</property>
  </transition>
  <transition id="transition5">
   <property name="a_track">0</property>
   <property name="b_track">6</property>
   <property name="version">0.9</property>
   <property name="mlt_service">frei0r.cairoblend</property>
   <property name="kdenlive_id">frei0r.cairoblend</property>
   <property name="internal_added">237</property>
   <property name="always_active">1</property>
  </transition>
  <transition id="transition6">
   <property name="a_track">0</property>
   <property name="b_track">7</property>
   <property name="version">0.9</property>
   <property name="mlt_service">frei0r.cairoblend</property>
   <property name="kdenlive_id">frei0r.cairoblend</property>
   <property name="internal_added">237</property>
   <property name="always_active">1</property>
  </transition>
  <transition id="transition7">
   <property name="a_track">0</property>
   <property name="b_track">8</property>
   <property name="version">0.9</property>
   <property name="mlt_service">frei0r.cairoblend</property>
   <property name="kdenlive_id">frei0r.cairoblend</property>
   <property name="internal_added">237</property>
   <property name="always_active">1</property>
  </transition>
  <transition id="transition8">
   <property name="a_track">0</property>
   <property name="b_track">9</property>
   <property name="version">0.9</property>
   <property name="mlt_service">frei0r.cairoblend</property>
   <property name="kdenlive_id">frei0r.cairoblend</property>
   <property name="internal_added">237</property>
   <property name="always_active">1</property>
  </transition>
  <transition id="transition9">
   <property name="a_track">0</property>
   <property name="b_track">10</property>
   <property name="version">0.9</property>
   <property name="mlt_service">frei0r.cairoblend</property>
   <property name="kdenlive_id">frei0r.cairoblend</property>
   <property name="internal_added">237</property>
   <property name="always_active">1</property>
  </transition>
  <transition id="transition10">
   <property name="a_track">0</property>
   <property name="b_track">11</property>
   <property name="version">0.9</property>
   <property name="mlt_service">frei0r.cairoblend</property>
   <property name="kdenlive_id">frei0r.cairoblend</property>
   <property name="internal_added">237</property>
   <property name="always_active">1</property>
  </transition>
  <transition id="transition11">
   <property name="a_track">0</property>
   <property name="b_track">12</property>
   <property name="version">0.9</property>
   <property name="mlt_service">frei0r.cairoblend</property>
   <property name="kdenlive_id">frei0r.cairoblend</property>
   <property name="internal_added">237</property>
   <property name="always_active">1</property>
  </transition>
  <transition id="transition12">
   <property name="a_track">0</property>
   <property name="b_track">13</property>
   <property name="version">0.9</property>
   <property name="mlt_service">frei0r.cairoblend</property>
   <property name="kdenlive_id">frei0r.cairoblend</property>
   <property name="internal_added">237</property>
   <property name="always_active">1</property>
  </transition>
  <transition id="transition13">
   <property name="a_track">0</property>
   <property name="b_track">14</property>
   <property name="version">0.9</property>
   <property name="mlt_service">frei0r.cairoblend</property>
   <property name="kdenlive_id">frei0r.cairoblend</property>
   <property name="internal_added">237</property>
   <property name="always_active">1</property>
  </transition>
  <transition id="transition14">
   <property name="a_track">0</property>
   <property name="b_track">15</property>
   <property name="version">0.9</property>
   <property name="mlt_service">frei0r.cairoblend</property>
   <property name="kdenlive_id">frei0r.cairoblend</property>
   <property name="internal_added">237</property>
   <property name="always_active">1</property>
  </transition>
  <filter id="filter97">
   <property name="window">75</property>
   <property name="max_gain">20dB</property>
   <property name="mlt_service">volume</property>
   <property name="internal_added">237</property>
   <property name="disable">1</property>
  </filter>
  <filter id="filter98">
   <property name="channel">-1</property>
   <property name="mlt_service">panner</property>
   <property name="internal_added">237</property>
   <property name="start">0.5</property>
   <property name="disable">1</property>
  </filter>
 </tractor>
</mlt>
