<?xml version="1.0" encoding="UTF-8"?>
<!-- Generator: Adobe Illustrator 21.0.0, SVG Export Plug-In . SVG Version: 6.00 Build 0)  -->
<svg version="1.1" id="Layer_1" xmlns="http://www.w3.org/2000/svg" xmlns:xlink="http://www.w3.org/1999/xlink" x="0px" y="0px" viewBox="0 0 308.6 308.6" style="enable-background:new 0 0 308.6 308.6;" xml:space="preserve">
<style type="text/css">
	.st0{fill-rule:evenodd;clip-rule:evenodd;fill:#EB2227;}
</style>
<polygon class="st0" points="49.3,76.8 77,49 261.7,233.7 233.9,261.4 "/>
<path class="st0" d="M154.3,35c65.7,0,119.3,53.6,119.3,119.3c0,65.7-53.6,119.3-119.3,119.3c-65.7,0-119.3-53.6-119.3-119.3  C35.1,88.6,88.6,35,154.3,35L154.3,35z M154.3,0L154.3,0C69.3,0,0,69.3,0,154.3c0,85,69.3,154.3,154.3,154.3s154.3-69.3,154.3-154.3  C308.6,69.3,239.3,0,154.3,0z"/>
</svg>