<?xml version='1.0' encoding='utf-8'?>
<mlt LC_NUMERIC="C" producer="main_bin" version="7.14.0" root="/home/liquidzulu/Documents/youtube-scripts/shorts/fee/americanism">
 <profile frame_rate_num="25" sample_aspect_num="1" display_aspect_den="16" colorspace="709" progressive="1" description="1080 vertical" display_aspect_num="9" frame_rate_den="1" width="1080" height="1920" sample_aspect_den="1"/>
 <chain id="chain10" out="00:00:37.360">
  <property name="length">935</property>
  <property name="eof">pause</property>
  <property name="resource">proc.mp3</property>
  <property name="mlt_service">avformat</property>
  <property name="meta.media.nb_streams">1</property>
  <property name="meta.media.0.stream.type">audio</property>
  <property name="meta.media.0.codec.sample_fmt">fltp</property>
  <property name="meta.media.0.codec.sample_rate">44100</property>
  <property name="meta.media.0.codec.channels">2</property>
  <property name="meta.media.0.codec.name">mp3float</property>
  <property name="meta.media.0.codec.long_name">MP3 (MPEG audio layer 3)</property>
  <property name="meta.media.0.codec.bit_rate">192000</property>
  <property name="meta.attr.encoded_by.markup">LAME in FL Studio 21</property>
  <property name="meta.attr.date.markup">2023</property>
  <property name="seekable">1</property>
  <property name="audio_index">0</property>
  <property name="video_index">-1</property>
  <property name="kdenlive:clipname"/>
  <property name="kdenlive:clip_type">1</property>
  <property name="kdenlive:folderid">10</property>
  <property name="kdenlive:id">4</property>
  <property name="kdenlive:file_size">897205</property>
  <property name="kdenlive:file_hash">2e4ce546d1d65ec00e775694bf0e2e2c</property>
  <property name="kdenlive:audio_max0">184</property>
  <property name="mute_on_pause">1</property>
 </chain>
 <chain id="chain8" out="00:00:13.320">
  <property name="length">334</property>
  <property name="eof">pause</property>
  <property name="resource">/home/liquidzulu/Videos/yt/b-roll/USA Flag Waving [dx7CNovrg-A].webm</property>
  <property name="mlt_service">avformat-novalidate</property>
  <property name="meta.media.nb_streams">2</property>
  <property name="meta.media.0.stream.type">video</property>
  <property name="meta.media.0.stream.frame_rate">29.97</property>
  <property name="meta.media.0.stream.sample_aspect_ratio">1</property>
  <property name="meta.media.0.codec.width">1280</property>
  <property name="meta.media.0.codec.height">720</property>
  <property name="meta.media.0.codec.rotate">0</property>
  <property name="meta.media.0.codec.pix_fmt">yuv420p</property>
  <property name="meta.media.0.codec.sample_aspect_ratio">0</property>
  <property name="meta.media.0.codec.colorspace">709</property>
  <property name="meta.media.0.codec.color_trc">1</property>
  <property name="meta.media.0.codec.name">vp9</property>
  <property name="meta.media.0.codec.long_name">Google VP9</property>
  <property name="meta.media.0.codec.bit_rate">0</property>
  <property name="meta.attr.0.stream.language.markup">eng</property>
  <property name="meta.attr.0.stream.DURATION.markup">00:00:13.346000000</property>
  <property name="meta.media.1.stream.type">audio</property>
  <property name="meta.media.1.codec.sample_fmt">fltp</property>
  <property name="meta.media.1.codec.sample_rate">48000</property>
  <property name="meta.media.1.codec.channels">2</property>
  <property name="meta.media.1.codec.name">opus</property>
  <property name="meta.media.1.codec.long_name">Opus</property>
  <property name="meta.media.1.codec.bit_rate">0</property>
  <property name="meta.attr.1.stream.language.markup">eng</property>
  <property name="meta.attr.1.stream.DURATION.markup">00:00:13.361000000</property>
  <property name="meta.attr.ENCODER.markup">Lavf59.27.100</property>
  <property name="seekable">1</property>
  <property name="meta.media.sample_aspect_num">1</property>
  <property name="meta.media.sample_aspect_den">1</property>
  <property name="format">3</property>
  <property name="audio_index">1</property>
  <property name="video_index">0</property>
  <property name="meta.media.frame_rate_num">30000</property>
  <property name="meta.media.frame_rate_den">1001</property>
  <property name="meta.media.colorspace">709</property>
  <property name="meta.media.color_trc">1</property>
  <property name="meta.media.has_b_frames">0</property>
  <property name="meta.media.width">1280</property>
  <property name="meta.media.height">720</property>
  <property name="meta.media.color_range">mpeg</property>
  <property name="kdenlive:clipname"/>
  <property name="meta.media.top_field_first">0</property>
  <property name="meta.media.progressive">1</property>
  <property name="kdenlive:clip_type">0</property>
  <property name="kdenlive:folderid">7</property>
  <property name="kdenlive:id">5</property>
  <property name="kdenlive:file_size">1109075</property>
  <property name="kdenlive:file_hash">8493e95dd605e57476ac6a280219718f</property>
  <property name="kdenlive:audio_max1">1</property>
  <property name="mute_on_pause">1</property>
 </chain>
 <chain id="chain9" out="00:02:07.000">
  <property name="length">3176</property>
  <property name="eof">pause</property>
  <property name="resource">/home/liquidzulu/Music/America, Fuck Yeah! Instrumental [Zexgc7CN3f8].mp3</property>
  <property name="mlt_service">avformat</property>
  <property name="meta.media.nb_streams">1</property>
  <property name="meta.media.0.stream.type">audio</property>
  <property name="meta.media.0.codec.sample_fmt">fltp</property>
  <property name="meta.media.0.codec.sample_rate">48000</property>
  <property name="meta.media.0.codec.channels">2</property>
  <property name="meta.media.0.codec.name">mp3float</property>
  <property name="meta.media.0.codec.long_name">MP3 (MPEG audio layer 3)</property>
  <property name="meta.media.0.codec.bit_rate">126606</property>
  <property name="meta.attr.0.stream.encoder.markup">Lavc59.37</property>
  <property name="meta.attr.encoder.markup">Lavf59.27.100</property>
  <property name="seekable">1</property>
  <property name="audio_index">0</property>
  <property name="video_index">-1</property>
  <property name="kdenlive:clipname"/>
  <property name="kdenlive:clip_type">1</property>
  <property name="kdenlive:folderid">10</property>
  <property name="kdenlive:id">6</property>
  <property name="kdenlive:file_size">2010429</property>
  <property name="kdenlive:file_hash">9e3be9f649e19ceaf09840a403aa341b</property>
  <property name="kdenlive:audio_max0">241</property>
  <property name="mute_on_pause">1</property>
 </chain>
 <producer id="producer64" in="00:00:00.000" out="00:00:04.960">
  <property name="length">00:00:05.000</property>
  <property name="eof">pause</property>
  <property name="resource">images/washington-ddt.xcf</property>
  <property name="ttl">25</property>
  <property name="aspect_ratio">1</property>
  <property name="progressive">1</property>
  <property name="seekable">1</property>
  <property name="format">2</property>
  <property name="meta.media.width">548</property>
  <property name="meta.media.height">455</property>
  <property name="mlt_service">qimage</property>
  <property name="kdenlive:clipname"/>
  <property name="kdenlive:duration">00:00:05:00</property>
  <property name="kdenlive:folderid">8</property>
  <property name="kdenlive:id">9</property>
  <property name="kdenlive:clip_type">2</property>
  <property name="kdenlive:file_size">963028</property>
  <property name="kdenlive:file_hash">881c7629c48d87fb078fc7f0d8955ef5</property>
 </producer>
 <producer id="producer72" in="00:00:00.000" out="00:00:04.960">
  <property name="length">00:00:05.000</property>
  <property name="eof">pause</property>
  <property name="resource">images/title-america.png</property>
  <property name="ttl">25</property>
  <property name="aspect_ratio">1</property>
  <property name="progressive">1</property>
  <property name="seekable">1</property>
  <property name="format">2</property>
  <property name="meta.media.width">1080</property>
  <property name="meta.media.height">1920</property>
  <property name="mlt_service">qimage</property>
  <property name="kdenlive:clipname"/>
  <property name="kdenlive:duration">00:00:05:00</property>
  <property name="kdenlive:folderid">8</property>
  <property name="kdenlive:id">11</property>
  <property name="kdenlive:clip_type">2</property>
  <property name="kdenlive:file_size">44229</property>
  <property name="kdenlive:file_hash">4cf961929af7b01a8c48baaadc25f724</property>
 </producer>
 <producer id="producer74" in="00:00:00.000" out="00:00:04.960">
  <property name="length">00:00:05.000</property>
  <property name="eof">pause</property>
  <property name="resource">images/title-fundamentally.png</property>
  <property name="ttl">25</property>
  <property name="aspect_ratio">1</property>
  <property name="progressive">1</property>
  <property name="seekable">1</property>
  <property name="format">2</property>
  <property name="meta.media.width">1080</property>
  <property name="meta.media.height">1920</property>
  <property name="mlt_service">qimage</property>
  <property name="kdenlive:clipname"/>
  <property name="kdenlive:duration">00:00:05:00</property>
  <property name="kdenlive:folderid">8</property>
  <property name="kdenlive:id">12</property>
  <property name="kdenlive:clip_type">2</property>
  <property name="kdenlive:file_size">31754</property>
  <property name="kdenlive:file_hash">a7f8f65090901c6720d440c7a166a3a5</property>
 </producer>
 <producer id="producer75" in="00:00:00.000" out="00:00:04.960">
  <property name="length">00:00:05.000</property>
  <property name="eof">pause</property>
  <property name="resource">images/title-individualist.png</property>
  <property name="ttl">25</property>
  <property name="aspect_ratio">1</property>
  <property name="progressive">1</property>
  <property name="seekable">1</property>
  <property name="format">2</property>
  <property name="meta.media.width">1080</property>
  <property name="meta.media.height">1920</property>
  <property name="mlt_service">qimage</property>
  <property name="kdenlive:clipname"/>
  <property name="kdenlive:duration">00:00:05:00</property>
  <property name="kdenlive:folderid">8</property>
  <property name="kdenlive:id">13</property>
  <property name="kdenlive:clip_type">2</property>
  <property name="kdenlive:file_size">41253</property>
  <property name="kdenlive:file_hash">da94c27bc824e6f47314de7292bfa670</property>
 </producer>
 <producer id="producer73" in="00:00:00.000" out="00:00:04.960">
  <property name="length">00:00:05.000</property>
  <property name="eof">pause</property>
  <property name="resource">images/title-is.png</property>
  <property name="ttl">25</property>
  <property name="aspect_ratio">1</property>
  <property name="progressive">1</property>
  <property name="seekable">1</property>
  <property name="format">2</property>
  <property name="meta.media.width">1080</property>
  <property name="meta.media.height">1920</property>
  <property name="mlt_service">qimage</property>
  <property name="kdenlive:clipname"/>
  <property name="kdenlive:duration">00:00:05:00</property>
  <property name="kdenlive:folderid">8</property>
  <property name="kdenlive:id">14</property>
  <property name="kdenlive:clip_type">2</property>
  <property name="kdenlive:file_size">20097</property>
  <property name="kdenlive:file_hash">d1dc0d120e3f35d3aaa212f0f79a7b23</property>
 </producer>
 <producer id="producer65" in="00:00:00.000" out="00:00:04.960">
  <property name="length">00:00:05.000</property>
  <property name="eof">pause</property>
  <property name="resource">images/eagle.xcf</property>
  <property name="ttl">25</property>
  <property name="aspect_ratio">1</property>
  <property name="progressive">1</property>
  <property name="seekable">1</property>
  <property name="format">2</property>
  <property name="meta.media.width">1599</property>
  <property name="meta.media.height">719</property>
  <property name="mlt_service">qimage</property>
  <property name="kdenlive:clipname"/>
  <property name="kdenlive:duration">00:00:05:00</property>
  <property name="kdenlive:folderid">8</property>
  <property name="kdenlive:id">15</property>
  <property name="kdenlive:clip_type">2</property>
  <property name="kdenlive:file_size">3443276</property>
  <property name="kdenlive:file_hash">1d1d164665e754cc7abc5e3681a4bb6a</property>
 </producer>
 <chain id="chain11" out="00:00:10.200">
  <property name="length">256</property>
  <property name="eof">pause</property>
  <property name="resource">/home/liquidzulu/Music/sfx/Cinematic Eagle Cry Sound Effect [WSGFatM1ktU].mp3</property>
  <property name="mlt_service">avformat</property>
  <property name="meta.media.nb_streams">1</property>
  <property name="meta.media.0.stream.type">audio</property>
  <property name="meta.media.0.codec.sample_fmt">fltp</property>
  <property name="meta.media.0.codec.sample_rate">48000</property>
  <property name="meta.media.0.codec.channels">2</property>
  <property name="meta.media.0.codec.name">mp3float</property>
  <property name="meta.media.0.codec.long_name">MP3 (MPEG audio layer 3)</property>
  <property name="meta.media.0.codec.bit_rate">43042</property>
  <property name="meta.attr.0.stream.encoder.markup">Lavc59.37</property>
  <property name="meta.attr.encoder.markup">Lavf59.27.100</property>
  <property name="seekable">1</property>
  <property name="audio_index">0</property>
  <property name="video_index">-1</property>
  <property name="kdenlive:clipname"/>
  <property name="kdenlive:clip_type">1</property>
  <property name="kdenlive:folderid">18</property>
  <property name="kdenlive:id">16</property>
  <property name="kdenlive:file_size">55053</property>
  <property name="kdenlive:file_hash">3a5011452f0259763e3bf856e17036bb</property>
  <property name="kdenlive:audio_max0">227</property>
  <property name="mute_on_pause">1</property>
 </chain>
 <chain id="chain12" out="00:00:19.000">
  <property name="length">476</property>
  <property name="eof">pause</property>
  <property name="resource">/home/liquidzulu/Videos/yt/b-roll/greenscreen/Fireworks ｜ Green Screen ｜ Free Download [7hvPvctczzg].webm</property>
  <property name="mlt_service">avformat-novalidate</property>
  <property name="meta.media.nb_streams">2</property>
  <property name="meta.media.0.stream.type">video</property>
  <property name="meta.media.0.stream.frame_rate">60</property>
  <property name="meta.media.0.stream.sample_aspect_ratio">1</property>
  <property name="meta.media.0.codec.width">1920</property>
  <property name="meta.media.0.codec.height">1080</property>
  <property name="meta.media.0.codec.rotate">0</property>
  <property name="meta.media.0.codec.pix_fmt">yuv420p</property>
  <property name="meta.media.0.codec.sample_aspect_ratio">0</property>
  <property name="meta.media.0.codec.colorspace">709</property>
  <property name="meta.media.0.codec.color_trc">1</property>
  <property name="meta.media.0.codec.name">vp9</property>
  <property name="meta.media.0.codec.long_name">Google VP9</property>
  <property name="meta.media.0.codec.bit_rate">0</property>
  <property name="meta.attr.0.stream.language.markup">eng</property>
  <property name="meta.attr.0.stream.DURATION.markup">00:00:18.983000000</property>
  <property name="meta.media.1.stream.type">audio</property>
  <property name="meta.media.1.codec.sample_fmt">fltp</property>
  <property name="meta.media.1.codec.sample_rate">48000</property>
  <property name="meta.media.1.codec.channels">2</property>
  <property name="meta.media.1.codec.name">opus</property>
  <property name="meta.media.1.codec.long_name">Opus</property>
  <property name="meta.media.1.codec.bit_rate">0</property>
  <property name="meta.attr.1.stream.language.markup">eng</property>
  <property name="meta.attr.1.stream.DURATION.markup">00:00:19.021000000</property>
  <property name="meta.attr.ENCODER.markup">Lavf59.27.100</property>
  <property name="seekable">1</property>
  <property name="meta.media.sample_aspect_num">1</property>
  <property name="meta.media.sample_aspect_den">1</property>
  <property name="format">3</property>
  <property name="audio_index">-1</property>
  <property name="video_index">0</property>
  <property name="meta.media.frame_rate_num">60</property>
  <property name="meta.media.frame_rate_den">1</property>
  <property name="meta.media.colorspace">709</property>
  <property name="meta.media.color_trc">1</property>
  <property name="meta.media.has_b_frames">0</property>
  <property name="meta.media.width">1920</property>
  <property name="meta.media.height">1080</property>
  <property name="meta.media.color_range">mpeg</property>
  <property name="kdenlive:clipname"/>
  <property name="meta.media.top_field_first">0</property>
  <property name="meta.media.progressive">1</property>
  <property name="kdenlive:clip_type">0</property>
  <property name="kdenlive:folderid">7</property>
  <property name="kdenlive:id">17</property>
  <property name="kdenlive:file_size">1525810</property>
  <property name="kdenlive:file_hash">17229f45fd3a72b543fcdde8a5ed2424</property>
  <property name="kdenlive:audio_max1">1</property>
  <property name="kdenlive:active_streams">-1</property>
  <property name="set.test_audio">1</property>
  <property name="mute_on_pause">1</property>
 </chain>
 <producer id="producer2" in="00:00:00.000" out="00:00:08.880">
  <property name="length">223</property>
  <property name="eof">pause</property>
  <property name="resource">images/Washington_Crossing_the_Delaware_by_Emanuel_Leutze,_MMA-NYC,_1851.jpg</property>
  <property name="ttl">25</property>
  <property name="aspect_ratio">1</property>
  <property name="progressive">1</property>
  <property name="seekable">1</property>
  <property name="format">1</property>
  <property name="meta.media.width">4313</property>
  <property name="meta.media.height">2473</property>
  <property name="mlt_service">qimage</property>
  <property name="kdenlive:clipname"/>
  <property name="kdenlive:duration">00:00:05:00</property>
  <property name="kdenlive:folderid">8</property>
  <property name="kdenlive:id">19</property>
  <property name="kdenlive:clip_type">2</property>
  <property name="kdenlive:file_size">9249743</property>
  <property name="kdenlive:file_hash">33cd3f9c64e84e7466afc78af8aea508</property>
 </producer>
 <producer id="producer76" in="00:00:00.000" out="00:00:04.960">
  <property name="length">125</property>
  <property name="eof">pause</property>
  <property name="resource"/>
  <property name="progressive">1</property>
  <property name="aspect_ratio">1</property>
  <property name="seekable">1</property>
  <property name="mlt_service">kdenlivetitle</property>
  <property name="kdenlive:duration">00:00:05:00</property>
  <property name="kdenlive:clipname">the real</property>
  <property name="xmldata">&lt;kdenlivetitle duration="125" LC_NUMERIC="C" width="1080" height="1920" out="124">
 &lt;item type="QGraphicsTextItem" z-index="0">
  &lt;position x="244" y="1177">
   &lt;transform>1,0,0,0,1,0,0,0,1&lt;/transform>
  &lt;/position>
  &lt;content line-spacing="0" shadow="0;#64000000;3;3;3" font-underline="0" box-height="166" font-outline-color="0,0,0,255" font="Cubano" letter-spacing="0" font-pixel-size="138" font-italic="0" typewriter="0;2;1;0;0" alignment="4" font-weight="50" font-outline="9" box-width="592.797" font-color="255,255,255,255">the real&lt;/content>
 &lt;/item>
 &lt;startviewport rect="0,0,1080,1920"/>
 &lt;endviewport rect="0,0,1080,1920"/>
 &lt;background color="0,0,0,0"/>
&lt;/kdenlivetitle>
</property>
  <property name="kdenlive:folderid">21</property>
  <property name="kdenlive:id">20</property>
  <property name="kdenlive:clip_type">2</property>
  <property name="kdenlive:file_hash">ba0381642b51b264e288bfa060489bc7</property>
  <property name="force_reload">0</property>
  <property name="meta.media.width">1080</property>
  <property name="meta.media.height">1920</property>
 </producer>
 <producer id="producer77" in="00:00:00.000" out="00:00:04.960">
  <property name="length">125</property>
  <property name="eof">pause</property>
  <property name="progressive">1</property>
  <property name="aspect_ratio">1</property>
  <property name="seekable">1</property>
  <property name="mlt_service">kdenlivetitle</property>
  <property name="kdenlive:duration">00:00:05:00</property>
  <property name="kdenlive:clipname">revolution</property>
  <property name="xmldata">&lt;kdenlivetitle duration="125" LC_NUMERIC="C" width="1080" height="1920" out="124">
 &lt;item type="QGraphicsTextItem" z-index="0">
  &lt;position x="161" y="1177">
   &lt;transform>1,0,0,0,1,0,0,0,1&lt;/transform>
  &lt;/position>
  &lt;content line-spacing="0" shadow="0;#64000000;3;3;3" font-underline="0" box-height="166" font-outline-color="0,0,0,255" font="Cubano" letter-spacing="0" font-pixel-size="138" font-italic="0" typewriter="0;2;1;0;0" alignment="4" font-weight="50" font-outline="9" box-width="758.234" font-color="255,255,255,255">revolution&lt;/content>
 &lt;/item>
 &lt;startviewport rect="0,0,1080,1920"/>
 &lt;endviewport rect="0,0,1080,1920"/>
 &lt;background color="0,0,0,0"/>
&lt;/kdenlivetitle>
</property>
  <property name="kdenlive:folderid">21</property>
  <property name="kdenlive:id">22</property>
  <property name="kdenlive:clip_type">2</property>
  <property name="force_reload">0</property>
  <property name="meta.media.width">1080</property>
  <property name="meta.media.height">1920</property>
  <property name="kdenlive:file_hash">e0f5e9f184b02b68479477d5082ac89e</property>
 </producer>
 <producer id="producer5" in="00:00:00.000" out="00:00:04.960">
  <property name="length">125</property>
  <property name="eof">pause</property>
  <property name="progressive">1</property>
  <property name="aspect_ratio">1</property>
  <property name="seekable">1</property>
  <property name="mlt_service">kdenlivetitle</property>
  <property name="kdenlive:duration">00:00:05:00</property>
  <property name="kdenlive:clipname">that the</property>
  <property name="xmldata">&lt;kdenlivetitle duration="125" LC_NUMERIC="C" width="1080" height="1920" out="124">
 &lt;item type="QGraphicsTextItem" z-index="0">
  &lt;position x="238" y="1177">
   &lt;transform>1,0,0,0,1,0,0,0,1&lt;/transform>
  &lt;/position>
  &lt;content line-spacing="0" shadow="0;#64000000;3;3;3" font-underline="0" box-height="166" font-outline-color="0,0,0,255" font="Cubano" letter-spacing="0" font-pixel-size="138" font-italic="0" typewriter="0;2;1;0;0" alignment="4" font-weight="50" font-outline="9" box-width="606.172" font-color="255,255,255,255">that the&lt;/content>
 &lt;/item>
 &lt;startviewport rect="0,0,1080,1920"/>
 &lt;endviewport rect="0,0,1080,1920"/>
 &lt;background color="0,0,0,0"/>
&lt;/kdenlivetitle>
</property>
  <property name="kdenlive:folderid">21</property>
  <property name="kdenlive:id">23</property>
  <property name="kdenlive:clip_type">2</property>
  <property name="force_reload">0</property>
  <property name="meta.media.width">1080</property>
  <property name="meta.media.height">1920</property>
  <property name="kdenlive:file_hash">10502f25b9ab66a882c0e559163e0a29</property>
 </producer>
 <producer id="producer6" in="00:00:00.000" out="00:00:04.960">
  <property name="length">125</property>
  <property name="eof">pause</property>
  <property name="progressive">1</property>
  <property name="aspect_ratio">1</property>
  <property name="seekable">1</property>
  <property name="mlt_service">kdenlivetitle</property>
  <property name="kdenlive:duration">00:00:05:00</property>
  <property name="kdenlive:clipname">founders</property>
  <property name="xmldata">&lt;kdenlivetitle duration="125" LC_NUMERIC="C" width="1080" height="1920" out="124">
 &lt;item type="QGraphicsTextItem" z-index="0">
  &lt;position x="221" y="1177">
   &lt;transform>1,0,0,0,1,0,0,0,1&lt;/transform>
  &lt;/position>
  &lt;content line-spacing="0" shadow="0;#64000000;3;3;3" font-underline="0" box-height="166" font-outline-color="0,0,0,255" font="Cubano" letter-spacing="0" font-pixel-size="138" font-italic="0" typewriter="0;2;1;0;0" alignment="4" font-weight="50" font-outline="9" box-width="640.813" font-color="255,255,255,255">founders&lt;/content>
 &lt;/item>
 &lt;startviewport rect="0,0,1080,1920"/>
 &lt;endviewport rect="0,0,1080,1920"/>
 &lt;background color="0,0,0,0"/>
&lt;/kdenlivetitle>
</property>
  <property name="kdenlive:folderid">21</property>
  <property name="kdenlive:id">24</property>
  <property name="kdenlive:clip_type">2</property>
  <property name="force_reload">0</property>
  <property name="meta.media.width">1080</property>
  <property name="meta.media.height">1920</property>
  <property name="kdenlive:file_hash">583bc93194d3cf01e28cc15969a77d43</property>
 </producer>
 <producer id="producer7" in="00:00:00.000" out="00:00:04.960">
  <property name="length">125</property>
  <property name="eof">pause</property>
  <property name="progressive">1</property>
  <property name="aspect_ratio">1</property>
  <property name="seekable">1</property>
  <property name="mlt_service">kdenlivetitle</property>
  <property name="kdenlive:duration">00:00:05:00</property>
  <property name="kdenlive:clipname">fought for</property>
  <property name="xmldata">&lt;kdenlivetitle duration="125" LC_NUMERIC="C" width="1080" height="1920" out="124">
 &lt;item type="QGraphicsTextItem" z-index="0">
  &lt;position x="162" y="1177">
   &lt;transform>1,0,0,0,1,0,0,0,1&lt;/transform>
  &lt;/position>
  &lt;content line-spacing="0" shadow="0;#64000000;3;3;3" font-underline="0" box-height="166" font-outline-color="0,0,0,255" font="Cubano" letter-spacing="0" font-pixel-size="138" font-italic="0" typewriter="0;2;1;0;0" alignment="4" font-weight="50" font-outline="9" box-width="758.797" font-color="255,255,255,255">fought for&lt;/content>
 &lt;/item>
 &lt;startviewport rect="0,0,1080,1920"/>
 &lt;endviewport rect="0,0,1080,1920"/>
 &lt;background color="0,0,0,0"/>
&lt;/kdenlivetitle>
</property>
  <property name="kdenlive:folderid">21</property>
  <property name="kdenlive:id">25</property>
  <property name="kdenlive:clip_type">2</property>
  <property name="force_reload">0</property>
  <property name="meta.media.width">1080</property>
  <property name="meta.media.height">1920</property>
  <property name="kdenlive:file_hash">c4233ef9450f3aacb95c120540c41e0a</property>
 </producer>
 <producer id="producer8" in="00:00:00.000" out="00:00:04.960">
  <property name="length">125</property>
  <property name="eof">pause</property>
  <property name="progressive">1</property>
  <property name="aspect_ratio">1</property>
  <property name="seekable">1</property>
  <property name="mlt_service">kdenlivetitle</property>
  <property name="kdenlive:duration">00:00:05:00</property>
  <property name="kdenlive:clipname">was not</property>
  <property name="xmldata">&lt;kdenlivetitle duration="125" LC_NUMERIC="C" width="1080" height="1920" out="124">
 &lt;item type="QGraphicsTextItem" z-index="0">
  &lt;position x="263" y="1177">
   &lt;transform>1,0,0,0,1,0,0,0,1&lt;/transform>
  &lt;/position>
  &lt;content line-spacing="0" shadow="0;#64000000;3;3;3" font-underline="0" box-height="166" font-outline-color="0,0,0,255" font="Cubano" letter-spacing="0" font-pixel-size="138" font-italic="0" typewriter="0;2;1;0;0" alignment="4" font-weight="50" font-outline="9" box-width="558.563" font-color="255,255,255,255">was not&lt;/content>
 &lt;/item>
 &lt;startviewport rect="0,0,1080,1920"/>
 &lt;endviewport rect="0,0,1080,1920"/>
 &lt;background color="0,0,0,0"/>
&lt;/kdenlivetitle>
</property>
  <property name="kdenlive:folderid">21</property>
  <property name="kdenlive:id">26</property>
  <property name="kdenlive:clip_type">2</property>
  <property name="force_reload">0</property>
  <property name="meta.media.width">1080</property>
  <property name="meta.media.height">1920</property>
  <property name="kdenlive:file_hash">55fb7f984f5ec27d86403345f9b21702</property>
 </producer>
 <producer id="producer9" in="00:00:00.000" out="00:00:04.960">
  <property name="length">125</property>
  <property name="eof">pause</property>
  <property name="progressive">1</property>
  <property name="aspect_ratio">1</property>
  <property name="seekable">1</property>
  <property name="mlt_service">kdenlivetitle</property>
  <property name="kdenlive:duration">00:00:05:00</property>
  <property name="kdenlive:clipname">one to</property>
  <property name="xmldata">&lt;kdenlivetitle duration="125" LC_NUMERIC="C" width="1080" height="1920" out="124">
 &lt;item type="QGraphicsTextItem" z-index="0">
  &lt;position x="317" y="1177">
   &lt;transform>1,0,0,0,1,0,0,0,1&lt;/transform>
  &lt;/position>
  &lt;content line-spacing="0" shadow="0;#64000000;3;3;3" font-underline="0" box-height="166" font-outline-color="0,0,0,255" font="Cubano" letter-spacing="0" font-pixel-size="138" font-italic="0" typewriter="0;2;1;0;0" alignment="4" font-weight="50" font-outline="9" box-width="446.391" font-color="255,255,255,255">one to&lt;/content>
 &lt;/item>
 &lt;startviewport rect="0,0,1080,1920"/>
 &lt;endviewport rect="0,0,1080,1920"/>
 &lt;background color="0,0,0,0"/>
&lt;/kdenlivetitle>
</property>
  <property name="kdenlive:folderid">21</property>
  <property name="kdenlive:id">27</property>
  <property name="kdenlive:clip_type">2</property>
  <property name="force_reload">0</property>
  <property name="meta.media.width">1080</property>
  <property name="meta.media.height">1920</property>
  <property name="kdenlive:file_hash">19b6c044bfec3efe5fcc688a23ef3cde</property>
 </producer>
 <producer id="producer10" in="00:00:00.000" out="00:00:04.960">
  <property name="length">125</property>
  <property name="eof">pause</property>
  <property name="progressive">1</property>
  <property name="aspect_ratio">1</property>
  <property name="seekable">1</property>
  <property name="mlt_service">kdenlivetitle</property>
  <property name="kdenlive:duration">00:00:05:00</property>
  <property name="kdenlive:clipname">establish</property>
  <property name="xmldata">&lt;kdenlivetitle duration="125" LC_NUMERIC="C" width="1080" height="1920" out="124">
 &lt;item type="QGraphicsTextItem" z-index="0">
  &lt;position x="210" y="1177">
   &lt;transform>1,0,0,0,1,0,0,0,1&lt;/transform>
  &lt;/position>
  &lt;content line-spacing="0" shadow="0;#64000000;3;3;3" font-underline="0" box-height="166" font-outline-color="0,0,0,255" font="Cubano" letter-spacing="0" font-pixel-size="138" font-italic="0" typewriter="0;2;1;0;0" alignment="4" font-weight="50" font-outline="9" box-width="663.156" font-color="255,255,255,255">establish&lt;/content>
 &lt;/item>
 &lt;startviewport rect="0,0,1080,1920"/>
 &lt;endviewport rect="0,0,1080,1920"/>
 &lt;background color="0,0,0,0"/>
&lt;/kdenlivetitle>
</property>
  <property name="kdenlive:folderid">21</property>
  <property name="kdenlive:id">28</property>
  <property name="kdenlive:clip_type">2</property>
  <property name="force_reload">0</property>
  <property name="meta.media.width">1080</property>
  <property name="meta.media.height">1920</property>
  <property name="kdenlive:file_hash">1593d58b73d942c463277ab929b14983</property>
 </producer>
 <producer id="producer11" in="00:00:00.000" out="00:00:04.960">
  <property name="length">125</property>
  <property name="eof">pause</property>
  <property name="progressive">1</property>
  <property name="aspect_ratio">1</property>
  <property name="seekable">1</property>
  <property name="mlt_service">kdenlivetitle</property>
  <property name="kdenlive:duration">00:00:05:00</property>
  <property name="kdenlive:clipname">a new nation</property>
  <property name="xmldata">&lt;kdenlivetitle duration="125" LC_NUMERIC="C" width="1080" height="1920" out="124">
 &lt;item type="QGraphicsTextItem" z-index="0">
  &lt;position x="96" y="1177">
   &lt;transform>1,0,0,0,1,0,0,0,1&lt;/transform>
  &lt;/position>
  &lt;content line-spacing="0" shadow="0;#64000000;3;3;3" font-underline="0" box-height="166" font-outline-color="0,0,0,255" font="Cubano" letter-spacing="0" font-pixel-size="138" font-italic="0" typewriter="0;2;1;0;0" alignment="4" font-weight="50" font-outline="9" box-width="889.563" font-color="255,255,255,255">a new nation&lt;/content>
 &lt;/item>
 &lt;startviewport rect="0,0,1080,1920"/>
 &lt;endviewport rect="0,0,1080,1920"/>
 &lt;background color="0,0,0,0"/>
&lt;/kdenlivetitle>
</property>
  <property name="kdenlive:folderid">21</property>
  <property name="kdenlive:id">29</property>
  <property name="kdenlive:clip_type">2</property>
  <property name="force_reload">0</property>
  <property name="meta.media.width">1080</property>
  <property name="meta.media.height">1920</property>
  <property name="kdenlive:file_hash">08e18c70be328fdc666677a0ae22548f</property>
 </producer>
 <producer id="producer12" in="00:00:00.000" out="00:00:04.960">
  <property name="length">125</property>
  <property name="eof">pause</property>
  <property name="progressive">1</property>
  <property name="aspect_ratio">1</property>
  <property name="seekable">1</property>
  <property name="mlt_service">kdenlivetitle</property>
  <property name="kdenlive:duration">00:00:05:00</property>
  <property name="kdenlive:clipname">with</property>
  <property name="xmldata">&lt;kdenlivetitle duration="125" LC_NUMERIC="C" width="1080" height="1920" out="124">
 &lt;item type="QGraphicsTextItem" z-index="0">
  &lt;position x="383" y="1177">
   &lt;transform>1,0,0,0,1,0,0,0,1&lt;/transform>
  &lt;/position>
  &lt;content line-spacing="0" shadow="0;#64000000;3;3;3" font-underline="0" box-height="166" font-outline-color="0,0,0,255" font="Cubano" letter-spacing="0" font-pixel-size="138" font-italic="0" typewriter="0;2;1;0;0" alignment="4" font-weight="50" font-outline="9" box-width="313.5" font-color="255,255,255,255">with&lt;/content>
 &lt;/item>
 &lt;startviewport rect="0,0,1080,1920"/>
 &lt;endviewport rect="0,0,1080,1920"/>
 &lt;background color="0,0,0,0"/>
&lt;/kdenlivetitle>
</property>
  <property name="kdenlive:folderid">21</property>
  <property name="kdenlive:id">30</property>
  <property name="kdenlive:clip_type">2</property>
  <property name="force_reload">0</property>
  <property name="meta.media.width">1080</property>
  <property name="meta.media.height">1920</property>
  <property name="kdenlive:file_hash">f3363aed4a6f6ce7cfc1b96bf7a31d0c</property>
 </producer>
 <producer id="producer13" in="00:00:00.000" out="00:00:04.960">
  <property name="length">125</property>
  <property name="eof">pause</property>
  <property name="progressive">1</property>
  <property name="aspect_ratio">1</property>
  <property name="seekable">1</property>
  <property name="mlt_service">kdenlivetitle</property>
  <property name="kdenlive:duration">00:00:05:00</property>
  <property name="kdenlive:clipname">a new king</property>
  <property name="xmldata">&lt;kdenlivetitle duration="125" LC_NUMERIC="C" width="1080" height="1920" out="124">
 &lt;item type="QGraphicsTextItem" z-index="0">
  &lt;position x="177" y="1177">
   &lt;transform>1,0,0,0,1,0,0,0,1&lt;/transform>
  &lt;/position>
  &lt;content line-spacing="0" shadow="0;#64000000;3;3;3" font-underline="0" box-height="166" font-outline-color="0,0,0,255" font="Cubano" letter-spacing="0" font-pixel-size="138" font-italic="0" typewriter="0;2;1;0;0" alignment="4" font-weight="50" font-outline="9" box-width="729.094" font-color="255,255,255,255">a new king&lt;/content>
 &lt;/item>
 &lt;startviewport rect="0,0,1080,1920"/>
 &lt;endviewport rect="0,0,1080,1920"/>
 &lt;background color="0,0,0,0"/>
&lt;/kdenlivetitle>
</property>
  <property name="kdenlive:folderid">21</property>
  <property name="kdenlive:id">31</property>
  <property name="kdenlive:clip_type">2</property>
  <property name="force_reload">0</property>
  <property name="meta.media.width">1080</property>
  <property name="meta.media.height">1920</property>
  <property name="kdenlive:file_hash">7021c903df0d45c546b4e08716740955</property>
 </producer>
 <producer id="producer14" in="00:00:00.000" out="00:00:04.960">
  <property name="length">125</property>
  <property name="eof">pause</property>
  <property name="progressive">1</property>
  <property name="aspect_ratio">1</property>
  <property name="seekable">1</property>
  <property name="mlt_service">kdenlivetitle</property>
  <property name="kdenlive:duration">00:00:05:00</property>
  <property name="kdenlive:clipname">but to</property>
  <property name="xmldata">&lt;kdenlivetitle duration="125" LC_NUMERIC="C" width="1080" height="1920" out="124">
 &lt;item type="QGraphicsTextItem" z-index="0">
  &lt;position x="318" y="1177">
   &lt;transform>1,0,0,0,1,0,0,0,1&lt;/transform>
  &lt;/position>
  &lt;content line-spacing="0" shadow="0;#64000000;3;3;3" font-underline="0" box-height="166" font-outline-color="0,0,0,255" font="Cubano" letter-spacing="0" font-pixel-size="138" font-italic="0" typewriter="0;2;1;0;0" alignment="4" font-weight="50" font-outline="9" box-width="445.969" font-color="255,255,255,255">but to&lt;/content>
 &lt;/item>
 &lt;startviewport rect="0,0,1080,1920"/>
 &lt;endviewport rect="0,0,1080,1920"/>
 &lt;background color="0,0,0,0"/>
&lt;/kdenlivetitle>
</property>
  <property name="kdenlive:folderid">21</property>
  <property name="kdenlive:id">32</property>
  <property name="kdenlive:clip_type">2</property>
  <property name="force_reload">0</property>
  <property name="meta.media.width">1080</property>
  <property name="meta.media.height">1920</property>
  <property name="kdenlive:file_hash">118b72cad009f997f8134b28ffa33b82</property>
 </producer>
 <producer id="producer15" in="00:00:00.000" out="00:00:04.960">
  <property name="length">125</property>
  <property name="eof">pause</property>
  <property name="progressive">1</property>
  <property name="aspect_ratio">1</property>
  <property name="seekable">1</property>
  <property name="mlt_service">kdenlivetitle</property>
  <property name="kdenlive:duration">00:00:05:00</property>
  <property name="kdenlive:clipname">a society</property>
  <property name="xmldata">&lt;kdenlivetitle duration="125" LC_NUMERIC="C" width="1080" height="1920" out="124">
 &lt;item type="QGraphicsTextItem" z-index="0">
  &lt;position x="222" y="1177">
   &lt;transform>1,0,0,0,1,0,0,0,1&lt;/transform>
  &lt;/position>
  &lt;content line-spacing="0" shadow="0;#64000000;3;3;3" font-underline="0" box-height="166" font-outline-color="0,0,0,255" font="Cubano" letter-spacing="0" font-pixel-size="138" font-italic="0" typewriter="0;2;1;0;0" alignment="4" font-weight="50" font-outline="9" box-width="638.031" font-color="255,255,255,255">a society&lt;/content>
 &lt;/item>
 &lt;startviewport rect="0,0,1080,1920"/>
 &lt;endviewport rect="0,0,1080,1920"/>
 &lt;background color="0,0,0,0"/>
&lt;/kdenlivetitle>
</property>
  <property name="kdenlive:folderid">21</property>
  <property name="kdenlive:id">33</property>
  <property name="kdenlive:clip_type">2</property>
  <property name="force_reload">0</property>
  <property name="meta.media.width">1080</property>
  <property name="meta.media.height">1920</property>
  <property name="kdenlive:file_hash">b46d2b404409129cbd04487db457a167</property>
 </producer>
 <producer id="producer16" in="00:00:00.000" out="00:00:04.960">
  <property name="length">125</property>
  <property name="eof">pause</property>
  <property name="progressive">1</property>
  <property name="aspect_ratio">1</property>
  <property name="seekable">1</property>
  <property name="mlt_service">kdenlivetitle</property>
  <property name="kdenlive:duration">00:00:05:00</property>
  <property name="kdenlive:clipname">under a</property>
  <property name="xmldata">&lt;kdenlivetitle duration="125" LC_NUMERIC="C" width="1080" height="1920" out="124">
 &lt;item type="QGraphicsTextItem" z-index="0">
  &lt;position x="275" y="1177">
   &lt;transform>1,0,0,0,1,0,0,0,1&lt;/transform>
  &lt;/position>
  &lt;content line-spacing="0" shadow="0;#64000000;3;3;3" font-underline="0" box-height="166" font-outline-color="0,0,0,255" font="Cubano" letter-spacing="0" font-pixel-size="138" font-italic="0" typewriter="0;2;1;0;0" alignment="4" font-weight="50" font-outline="9" box-width="530.547" font-color="255,255,255,255">under a&lt;/content>
 &lt;/item>
 &lt;startviewport rect="0,0,1080,1920"/>
 &lt;endviewport rect="0,0,1080,1920"/>
 &lt;background color="0,0,0,0"/>
&lt;/kdenlivetitle>
</property>
  <property name="kdenlive:folderid">21</property>
  <property name="kdenlive:id">34</property>
  <property name="kdenlive:clip_type">2</property>
  <property name="force_reload">0</property>
  <property name="meta.media.width">1080</property>
  <property name="meta.media.height">1920</property>
  <property name="kdenlive:file_hash">991a7e9f1db3b6e1dd15eb16ef1db686</property>
 </producer>
 <producer id="producer17" in="00:00:00.000" out="00:00:04.960">
  <property name="length">125</property>
  <property name="eof">pause</property>
  <property name="progressive">1</property>
  <property name="aspect_ratio">1</property>
  <property name="seekable">1</property>
  <property name="mlt_service">kdenlivetitle</property>
  <property name="kdenlive:duration">00:00:05:00</property>
  <property name="kdenlive:clipname">completely</property>
  <property name="xmldata">&lt;kdenlivetitle duration="125" LC_NUMERIC="C" width="1080" height="1920" out="124">
 &lt;item type="QGraphicsTextItem" z-index="0">
  &lt;position x="144" y="1177">
   &lt;transform>1,0,0,0,1,0,0,0,1&lt;/transform>
  &lt;/position>
  &lt;content line-spacing="0" shadow="0;#64000000;3;3;3" font-underline="0" box-height="166" font-outline-color="0,0,0,255" font="Cubano" letter-spacing="0" font-pixel-size="138" font-italic="0" typewriter="0;2;1;0;0" alignment="4" font-weight="50" font-outline="9" box-width="791.625" font-color="255,255,255,255">completely&lt;/content>
 &lt;/item>
 &lt;startviewport rect="0,0,1080,1920"/>
 &lt;endviewport rect="0,0,1080,1920"/>
 &lt;background color="0,0,0,0"/>
&lt;/kdenlivetitle>
</property>
  <property name="kdenlive:folderid">21</property>
  <property name="kdenlive:id">35</property>
  <property name="kdenlive:clip_type">2</property>
  <property name="force_reload">0</property>
  <property name="meta.media.width">1080</property>
  <property name="meta.media.height">1920</property>
  <property name="kdenlive:file_hash">0bdd5a86d8af00b6b9f97232d754d8a5</property>
 </producer>
 <producer id="producer18" in="00:00:00.000" out="00:00:04.960">
  <property name="length">125</property>
  <property name="eof">pause</property>
  <property name="progressive">1</property>
  <property name="aspect_ratio">1</property>
  <property name="seekable">1</property>
  <property name="mlt_service">kdenlivetitle</property>
  <property name="kdenlive:duration">00:00:05:00</property>
  <property name="kdenlive:clipname">new ideology</property>
  <property name="xmldata">&lt;kdenlivetitle duration="125" LC_NUMERIC="C" width="1080" height="1920" out="124">
 &lt;item type="QGraphicsTextItem" z-index="0">
  &lt;position x="86" y="1177">
   &lt;transform>1,0,0,0,1,0,0,0,1&lt;/transform>
  &lt;/position>
  &lt;content line-spacing="0" shadow="0;#64000000;3;3;3" font-underline="0" box-height="166" font-outline-color="0,0,0,255" font="Cubano" letter-spacing="0" font-pixel-size="138" font-italic="0" typewriter="0;2;1;0;0" alignment="4" font-weight="50" font-outline="9" box-width="908.094" font-color="255,255,255,255">new ideology&lt;/content>
 &lt;/item>
 &lt;startviewport rect="0,0,1080,1920"/>
 &lt;endviewport rect="0,0,1080,1920"/>
 &lt;background color="0,0,0,0"/>
&lt;/kdenlivetitle>
</property>
  <property name="kdenlive:folderid">21</property>
  <property name="kdenlive:id">36</property>
  <property name="kdenlive:clip_type">2</property>
  <property name="force_reload">0</property>
  <property name="meta.media.width">1080</property>
  <property name="meta.media.height">1920</property>
  <property name="kdenlive:file_hash">515ae598f9aa364c670b7742b77f3098</property>
 </producer>
 <chain id="chain13" out="00:30:10.280">
  <property name="length">45258</property>
  <property name="eof">pause</property>
  <property name="resource">/home/liquidzulu/Videos/yt/b-roll/New York City Macy's 4th of July Fireworks 2023 - Biggest Independence Day Fireworks in USA [ilpKK8mU7Qc].webm</property>
  <property name="mlt_service">avformat-novalidate</property>
  <property name="meta.media.nb_streams">2</property>
  <property name="meta.media.0.stream.type">video</property>
  <property name="meta.media.0.stream.frame_rate">29.949</property>
  <property name="meta.media.0.stream.sample_aspect_ratio">1</property>
  <property name="meta.media.0.codec.width">3840</property>
  <property name="meta.media.0.codec.height">2160</property>
  <property name="meta.media.0.codec.rotate">0</property>
  <property name="meta.media.0.codec.pix_fmt">yuv420p10le</property>
  <property name="meta.media.0.codec.sample_aspect_ratio">0</property>
  <property name="meta.media.0.codec.colorspace">9</property>
  <property name="meta.media.0.codec.color_trc">18</property>
  <property name="meta.media.0.codec.name">vp9</property>
  <property name="meta.media.0.codec.long_name">Google VP9</property>
  <property name="meta.media.0.codec.bit_rate">0</property>
  <property name="meta.attr.0.stream.language.markup">eng</property>
  <property name="meta.attr.0.stream.DURATION.markup">00:30:10.269000000</property>
  <property name="meta.media.1.stream.type">audio</property>
  <property name="meta.media.1.codec.sample_fmt">fltp</property>
  <property name="meta.media.1.codec.sample_rate">48000</property>
  <property name="meta.media.1.codec.channels">2</property>
  <property name="meta.media.1.codec.name">opus</property>
  <property name="meta.media.1.codec.long_name">Opus</property>
  <property name="meta.media.1.codec.bit_rate">0</property>
  <property name="meta.attr.1.stream.language.markup">eng</property>
  <property name="meta.attr.1.stream.DURATION.markup">00:30:10.321000000</property>
  <property name="meta.attr.ENCODER.markup">Lavf59.27.100</property>
  <property name="seekable">1</property>
  <property name="meta.media.sample_aspect_num">1</property>
  <property name="meta.media.sample_aspect_den">1</property>
  <property name="format">3</property>
  <property name="audio_index">-1</property>
  <property name="video_index">0</property>
  <property name="meta.media.frame_rate_num">29949</property>
  <property name="meta.media.frame_rate_den">1000</property>
  <property name="meta.media.colorspace">709</property>
  <property name="meta.media.color_trc">18</property>
  <property name="meta.media.has_b_frames">0</property>
  <property name="meta.media.width">3840</property>
  <property name="meta.media.height">2160</property>
  <property name="meta.media.color_range">mpeg</property>
  <property name="kdenlive:clipname"/>
  <property name="meta.media.top_field_first">0</property>
  <property name="meta.media.progressive">1</property>
  <property name="kdenlive:clip_type">0</property>
  <property name="kdenlive:folderid">7</property>
  <property name="kdenlive:id">37</property>
  <property name="kdenlive:file_size">5371491541</property>
  <property name="kdenlive:file_hash">03bf6d2f7aa8e088c225748975b26989</property>
  <property name="kdenlive:audio_max1">239</property>
  <property name="kdenlive:active_streams">-1</property>
  <property name="set.test_audio">1</property>
  <property name="mute_on_pause">1</property>
 </chain>
 <producer id="producer67" in="00:00:00.000" out="00:00:04.960">
  <property name="length">00:00:05.000</property>
  <property name="eof">pause</property>
  <property name="resource">images/eagle-americanism.xcf</property>
  <property name="ttl">25</property>
  <property name="aspect_ratio">1</property>
  <property name="progressive">1</property>
  <property name="seekable">1</property>
  <property name="format">2</property>
  <property name="meta.media.width">1842</property>
  <property name="meta.media.height">888</property>
  <property name="mlt_service">qimage</property>
  <property name="kdenlive:clipname"/>
  <property name="kdenlive:duration">00:00:05:00</property>
  <property name="kdenlive:folderid">8</property>
  <property name="kdenlive:id">38</property>
  <property name="kdenlive:clip_type">2</property>
  <property name="kdenlive:file_size">2514842</property>
  <property name="kdenlive:file_hash">9dc5ca7d25c1be85857b7d7956a6c001</property>
 </producer>
 <producer id="producer3" in="00:00:00.000" out="00:00:08.240">
  <property name="length">207</property>
  <property name="eof">pause</property>
  <property name="resource">images/Declaration_of_Independence_(1819),_by_John_Trumbull.jpg</property>
  <property name="ttl">25</property>
  <property name="aspect_ratio">1</property>
  <property name="progressive">1</property>
  <property name="seekable">1</property>
  <property name="format">1</property>
  <property name="meta.media.width">1280</property>
  <property name="meta.media.height">841</property>
  <property name="mlt_service">qimage</property>
  <property name="kdenlive:clipname"/>
  <property name="kdenlive:duration">00:00:05:00</property>
  <property name="kdenlive:folderid">8</property>
  <property name="kdenlive:id">39</property>
  <property name="kdenlive:clip_type">2</property>
  <property name="kdenlive:file_size">272480</property>
  <property name="kdenlive:file_hash">cbe5090980ff995dee768c6ce987d88c</property>
 </producer>
 <producer id="producer70" in="00:00:00.000" out="00:00:04.960">
  <property name="length">125</property>
  <property name="eof">pause</property>
  <property name="progressive">1</property>
  <property name="aspect_ratio">1</property>
  <property name="seekable">1</property>
  <property name="mlt_service">kdenlivetitle</property>
  <property name="kdenlive:duration">00:00:05:00</property>
  <property name="kdenlive:clipname">this new ide...</property>
  <property name="xmldata">&lt;kdenlivetitle duration="125" LC_NUMERIC="C" width="1080" height="1920" out="124">
 &lt;item type="QGraphicsTextItem" z-index="0">
  &lt;position x="84" y="1177">
   &lt;transform>1,0,0,0,1,0,0,0,1&lt;/transform>
  &lt;/position>
  &lt;content line-spacing="0" shadow="0;#64000000;3;3;3" font-underline="0" box-height="166" font-outline-color="0,0,0,255" font="Cubano" letter-spacing="0" font-pixel-size="138" font-italic="0" typewriter="0;2;1;0;0" alignment="4" font-weight="50" font-outline="9" box-width="915.234" font-color="255,255,255,255">this new idea&lt;/content>
 &lt;/item>
 &lt;startviewport rect="0,0,1080,1920"/>
 &lt;endviewport rect="0,0,1080,1920"/>
 &lt;background color="0,0,0,0"/>
&lt;/kdenlivetitle>
</property>
  <property name="kdenlive:folderid">21</property>
  <property name="kdenlive:id">40</property>
  <property name="kdenlive:clip_type">2</property>
  <property name="force_reload">0</property>
  <property name="meta.media.width">1080</property>
  <property name="meta.media.height">1920</property>
  <property name="kdenlive:file_hash">63bd2dce6bb37474f4397a63ddb2e18c</property>
 </producer>
 <producer id="producer20" in="00:00:00.000" out="00:00:04.960">
  <property name="length">125</property>
  <property name="eof">pause</property>
  <property name="progressive">1</property>
  <property name="aspect_ratio">1</property>
  <property name="seekable">1</property>
  <property name="mlt_service">kdenlivetitle</property>
  <property name="kdenlive:duration">00:00:05:00</property>
  <property name="kdenlive:clipname">was truly</property>
  <property name="xmldata">&lt;kdenlivetitle duration="125" LC_NUMERIC="C" width="1080" height="1920" out="124">
 &lt;item type="QGraphicsTextItem" z-index="0">
  &lt;position x="194" y="1177">
   &lt;transform>1,0,0,0,1,0,0,0,1&lt;/transform>
  &lt;/position>
  &lt;content line-spacing="0" shadow="0;#64000000;3;3;3" font-underline="0" box-height="166" font-outline-color="0,0,0,255" font="Cubano" letter-spacing="0" font-pixel-size="138" font-italic="0" typewriter="0;2;1;0;0" alignment="4" font-weight="50" font-outline="9" box-width="694.75" font-color="255,255,255,255">was truly&lt;/content>
 &lt;/item>
 &lt;startviewport rect="0,0,1080,1920"/>
 &lt;endviewport rect="0,0,1080,1920"/>
 &lt;background color="0,0,0,0"/>
&lt;/kdenlivetitle>
</property>
  <property name="kdenlive:folderid">21</property>
  <property name="kdenlive:id">41</property>
  <property name="kdenlive:clip_type">2</property>
  <property name="force_reload">0</property>
  <property name="meta.media.width">1080</property>
  <property name="meta.media.height">1920</property>
  <property name="kdenlive:file_hash">13c2da4b52740098bcc6d5d5d5afea5d</property>
 </producer>
 <producer id="producer21" in="00:00:00.000" out="00:00:04.960">
  <property name="length">125</property>
  <property name="eof">pause</property>
  <property name="progressive">1</property>
  <property name="aspect_ratio">1</property>
  <property name="seekable">1</property>
  <property name="mlt_service">kdenlivetitle</property>
  <property name="kdenlive:duration">00:00:05:00</property>
  <property name="kdenlive:clipname">groundbreaki...</property>
  <property name="xmldata">&lt;kdenlivetitle duration="125" LC_NUMERIC="C" width="1080" height="1920" out="124">
 &lt;item type="QGraphicsTextItem" z-index="0">
  &lt;position x="-11" y="1177">
   &lt;transform>1,0,0,0,1,0,0,0,1&lt;/transform>
  &lt;/position>
  &lt;content line-spacing="0" shadow="0;#64000000;3;3;3" font-underline="0" box-height="166" font-outline-color="0,0,0,255" font="Cubano" letter-spacing="0" font-pixel-size="138" font-italic="0" typewriter="0;2;1;0;0" alignment="4" font-weight="50" font-outline="9" box-width="1102.64" font-color="255,255,255,255">groundbreaking&lt;/content>
 &lt;/item>
 &lt;startviewport rect="0,0,1080,1920"/>
 &lt;endviewport rect="0,0,1080,1920"/>
 &lt;background color="0,0,0,0"/>
&lt;/kdenlivetitle>
</property>
  <property name="kdenlive:folderid">21</property>
  <property name="kdenlive:id">42</property>
  <property name="kdenlive:clip_type">2</property>
  <property name="force_reload">0</property>
  <property name="meta.media.width">1080</property>
  <property name="meta.media.height">1920</property>
  <property name="kdenlive:file_hash">02658286baa5749d84300615c824c504</property>
 </producer>
 <producer id="producer22" in="00:00:00.000" out="00:00:04.960">
  <property name="length">125</property>
  <property name="eof">pause</property>
  <property name="progressive">1</property>
  <property name="aspect_ratio">1</property>
  <property name="seekable">1</property>
  <property name="mlt_service">kdenlivetitle</property>
  <property name="kdenlive:duration">00:00:05:00</property>
  <property name="kdenlive:clipname">holding that</property>
  <property name="xmldata">&lt;kdenlivetitle duration="125" LC_NUMERIC="C" width="1080" height="1920" out="124">
 &lt;item type="QGraphicsTextItem" z-index="0">
  &lt;position x="98" y="1177">
   &lt;transform>1,0,0,0,1,0,0,0,1&lt;/transform>
  &lt;/position>
  &lt;content line-spacing="0" shadow="0;#64000000;3;3;3" font-underline="0" box-height="166" font-outline-color="0,0,0,255" font="Cubano" letter-spacing="0" font-pixel-size="138" font-italic="0" typewriter="0;2;1;0;0" alignment="4" font-weight="50" font-outline="9" box-width="885.594" font-color="255,255,255,255">holding that&lt;/content>
 &lt;/item>
 &lt;startviewport rect="0,0,1080,1920"/>
 &lt;endviewport rect="0,0,1080,1920"/>
 &lt;background color="0,0,0,0"/>
&lt;/kdenlivetitle>
</property>
  <property name="kdenlive:folderid">21</property>
  <property name="kdenlive:id">43</property>
  <property name="kdenlive:clip_type">2</property>
  <property name="force_reload">0</property>
  <property name="meta.media.width">1080</property>
  <property name="meta.media.height">1920</property>
  <property name="kdenlive:file_hash">f0459a0f37d7f1333034aa94f7990dbb</property>
 </producer>
 <producer id="producer23" in="00:00:00.000" out="00:00:04.960">
  <property name="length">125</property>
  <property name="eof">pause</property>
  <property name="progressive">1</property>
  <property name="aspect_ratio">1</property>
  <property name="seekable">1</property>
  <property name="mlt_service">kdenlivetitle</property>
  <property name="kdenlive:duration">00:00:05:00</property>
  <property name="kdenlive:clipname">each and eve...</property>
  <property name="xmldata">&lt;kdenlivetitle duration="125" LC_NUMERIC="C" width="1080" height="1920" out="124">
 &lt;item type="QGraphicsTextItem" z-index="0">
  &lt;position x="20" y="1177">
   &lt;transform>1,0,0,0,1,0,0,0,1&lt;/transform>
  &lt;/position>
  &lt;content line-spacing="0" shadow="0;#64000000;3;3;3" font-underline="0" box-height="166" font-outline-color="0,0,0,255" font="Cubano" letter-spacing="0" font-pixel-size="138" font-italic="0" typewriter="0;2;1;0;0" alignment="4" font-weight="50" font-outline="9" box-width="1040.41" font-color="255,255,255,255">each and every&lt;/content>
 &lt;/item>
 &lt;startviewport rect="0,0,1080,1920"/>
 &lt;endviewport rect="0,0,1080,1920"/>
 &lt;background color="0,0,0,0"/>
&lt;/kdenlivetitle>
</property>
  <property name="kdenlive:folderid">21</property>
  <property name="kdenlive:id">44</property>
  <property name="kdenlive:clip_type">2</property>
  <property name="force_reload">0</property>
  <property name="meta.media.width">1080</property>
  <property name="meta.media.height">1920</property>
  <property name="kdenlive:file_hash">6f3b08e59c9217efafec8441aec86b6d</property>
 </producer>
 <producer id="producer24" in="00:00:00.000" out="00:00:04.960">
  <property name="length">125</property>
  <property name="eof">pause</property>
  <property name="progressive">1</property>
  <property name="aspect_ratio">1</property>
  <property name="seekable">1</property>
  <property name="mlt_service">kdenlivetitle</property>
  <property name="kdenlive:duration">00:00:05:00</property>
  <property name="kdenlive:clipname">man</property>
  <property name="xmldata">&lt;kdenlivetitle duration="125" LC_NUMERIC="C" width="1080" height="1920" out="124">
 &lt;item type="QGraphicsTextItem" z-index="0">
  &lt;position x="402" y="1177">
   &lt;transform>1,0,0,0,1,0,0,0,1&lt;/transform>
  &lt;/position>
  &lt;content line-spacing="0" shadow="0;#64000000;3;3;3" font-underline="0" box-height="166" font-outline-color="0,0,0,255" font="Cubano" letter-spacing="0" font-pixel-size="138" font-italic="0" typewriter="0;2;1;0;0" alignment="4" font-weight="50" font-outline="9" box-width="276.516" font-color="255,255,255,255">man&lt;/content>
 &lt;/item>
 &lt;startviewport rect="0,0,1080,1920"/>
 &lt;endviewport rect="0,0,1080,1920"/>
 &lt;background color="0,0,0,0"/>
&lt;/kdenlivetitle>
</property>
  <property name="kdenlive:folderid">21</property>
  <property name="kdenlive:id">45</property>
  <property name="kdenlive:clip_type">2</property>
  <property name="force_reload">0</property>
  <property name="meta.media.width">1080</property>
  <property name="meta.media.height">1920</property>
  <property name="kdenlive:file_hash">5a13c444a86a12d75d2e639df9dfb8d5</property>
 </producer>
 <producer id="producer25" in="00:00:00.000" out="00:00:04.960">
  <property name="length">125</property>
  <property name="eof">pause</property>
  <property name="progressive">1</property>
  <property name="aspect_ratio">1</property>
  <property name="seekable">1</property>
  <property name="mlt_service">kdenlivetitle</property>
  <property name="kdenlive:duration">00:00:05:00</property>
  <property name="kdenlive:clipname">has</property>
  <property name="xmldata">&lt;kdenlivetitle duration="125" LC_NUMERIC="C" width="1080" height="1920" out="124">
 &lt;item type="QGraphicsTextItem" z-index="0">
  &lt;position x="420" y="1177">
   &lt;transform>1,0,0,0,1,0,0,0,1&lt;/transform>
  &lt;/position>
  &lt;content line-spacing="0" shadow="0;#64000000;3;3;3" font-underline="0" box-height="166" font-outline-color="0,0,0,255" font="Cubano" letter-spacing="0" font-pixel-size="138" font-italic="0" typewriter="0;2;1;0;0" alignment="4" font-weight="50" font-outline="9" box-width="241.75" font-color="255,255,255,255">has&lt;/content>
 &lt;/item>
 &lt;startviewport rect="0,0,1080,1920"/>
 &lt;endviewport rect="0,0,1080,1920"/>
 &lt;background color="0,0,0,0"/>
&lt;/kdenlivetitle>
</property>
  <property name="kdenlive:folderid">21</property>
  <property name="kdenlive:id">46</property>
  <property name="kdenlive:clip_type">2</property>
  <property name="force_reload">0</property>
  <property name="meta.media.width">1080</property>
  <property name="meta.media.height">1920</property>
  <property name="kdenlive:file_hash">e2df96062a67ba385944450e17be59f2</property>
 </producer>
 <producer id="producer26" in="00:00:00.000" out="00:00:04.960">
  <property name="length">125</property>
  <property name="eof">pause</property>
  <property name="progressive">1</property>
  <property name="aspect_ratio">1</property>
  <property name="seekable">1</property>
  <property name="mlt_service">kdenlivetitle</property>
  <property name="kdenlive:duration">00:00:05:00</property>
  <property name="kdenlive:clipname">inalienable</property>
  <property name="xmldata">&lt;kdenlivetitle duration="125" LC_NUMERIC="C" width="1080" height="1920" out="124">
 &lt;item type="QGraphicsTextItem" z-index="0">
  &lt;position x="147" y="1177">
   &lt;transform>1,0,0,0,1,0,0,0,1&lt;/transform>
  &lt;/position>
  &lt;content line-spacing="0" shadow="0;#64000000;3;3;3" font-underline="0" box-height="166" font-outline-color="0,0,0,255" font="Cubano" letter-spacing="0" font-pixel-size="138" font-italic="0" typewriter="0;2;1;0;0" alignment="4" font-weight="50" font-outline="9" box-width="786.234" font-color="255,255,255,255">inalienable&lt;/content>
 &lt;/item>
 &lt;startviewport rect="0,0,1080,1920"/>
 &lt;endviewport rect="0,0,1080,1920"/>
 &lt;background color="0,0,0,0"/>
&lt;/kdenlivetitle>
</property>
  <property name="kdenlive:folderid">21</property>
  <property name="kdenlive:id">47</property>
  <property name="kdenlive:clip_type">2</property>
  <property name="force_reload">0</property>
  <property name="meta.media.width">1080</property>
  <property name="meta.media.height">1920</property>
  <property name="kdenlive:file_hash">041138975cb3ed9a223dfff43e4f2434</property>
 </producer>
 <producer id="producer27" in="00:00:00.000" out="00:00:04.960">
  <property name="length">125</property>
  <property name="eof">pause</property>
  <property name="progressive">1</property>
  <property name="aspect_ratio">1</property>
  <property name="seekable">1</property>
  <property name="mlt_service">kdenlivetitle</property>
  <property name="kdenlive:duration">00:00:05:00</property>
  <property name="kdenlive:clipname">individual</property>
  <property name="xmldata">&lt;kdenlivetitle duration="125" LC_NUMERIC="C" width="1080" height="1920" out="124">
 &lt;item type="QGraphicsTextItem" z-index="0">
  &lt;position x="200" y="1177">
   &lt;transform>1,0,0,0,1,0,0,0,1&lt;/transform>
  &lt;/position>
  &lt;content line-spacing="0" shadow="0;#64000000;3;3;3" font-underline="0" box-height="166" font-outline-color="0,0,0,255" font="Cubano" letter-spacing="0" font-pixel-size="138" font-italic="0" typewriter="0;2;1;0;0" alignment="4" font-weight="50" font-outline="9" box-width="675.422" font-color="255,255,255,255">individual&lt;/content>
 &lt;/item>
 &lt;startviewport rect="0,0,1080,1920"/>
 &lt;endviewport rect="0,0,1080,1920"/>
 &lt;background color="0,0,0,0"/>
&lt;/kdenlivetitle>
</property>
  <property name="kdenlive:folderid">21</property>
  <property name="kdenlive:id">48</property>
  <property name="kdenlive:clip_type">2</property>
  <property name="force_reload">0</property>
  <property name="meta.media.width">1080</property>
  <property name="meta.media.height">1920</property>
  <property name="kdenlive:file_hash">ea68fbabf64afb5ab7f0eb10b43faf59</property>
 </producer>
 <producer id="producer28" in="00:00:00.000" out="00:00:04.960">
  <property name="length">125</property>
  <property name="eof">pause</property>
  <property name="progressive">1</property>
  <property name="aspect_ratio">1</property>
  <property name="seekable">1</property>
  <property name="mlt_service">kdenlivetitle</property>
  <property name="kdenlive:duration">00:00:05:00</property>
  <property name="kdenlive:clipname">rights</property>
  <property name="xmldata">&lt;kdenlivetitle duration="125" LC_NUMERIC="C" width="1080" height="1920" out="124">
 &lt;item type="QGraphicsTextItem" z-index="0">
  &lt;position x="319" y="1177">
   &lt;transform>1,0,0,0,1,0,0,0,1&lt;/transform>
  &lt;/position>
  &lt;content line-spacing="0" shadow="0;#64000000;3;3;3" font-underline="0" box-height="166" font-outline-color="0,0,0,255" font="Cubano" letter-spacing="0" font-pixel-size="138" font-italic="0" typewriter="0;2;1;0;0" alignment="4" font-weight="50" font-outline="9" box-width="438.375" font-color="255,255,255,255">rights&lt;/content>
 &lt;/item>
 &lt;startviewport rect="0,0,1080,1920"/>
 &lt;endviewport rect="0,0,1080,1920"/>
 &lt;background color="0,0,0,0"/>
&lt;/kdenlivetitle>
</property>
  <property name="kdenlive:folderid">21</property>
  <property name="kdenlive:id">49</property>
  <property name="kdenlive:clip_type">2</property>
  <property name="force_reload">0</property>
  <property name="meta.media.width">1080</property>
  <property name="meta.media.height">1920</property>
  <property name="kdenlive:file_hash">eb214f34398e1c04ea7477c3030573fe</property>
 </producer>
 <producer id="producer29" in="00:00:00.000" out="00:00:04.960">
  <property name="length">125</property>
  <property name="eof">pause</property>
  <property name="progressive">1</property>
  <property name="aspect_ratio">1</property>
  <property name="seekable">1</property>
  <property name="mlt_service">kdenlivetitle</property>
  <property name="kdenlive:duration">00:00:05:00</property>
  <property name="kdenlive:clipname">by his</property>
  <property name="xmldata">&lt;kdenlivetitle duration="125" LC_NUMERIC="C" width="1080" height="1920" out="124">
 &lt;item type="QGraphicsTextItem" z-index="0">
  &lt;position x="337" y="1177">
   &lt;transform>1,0,0,0,1,0,0,0,1&lt;/transform>
  &lt;/position>
  &lt;content line-spacing="0" shadow="0;#64000000;3;3;3" font-underline="0" box-height="166" font-outline-color="0,0,0,255" font="Cubano" letter-spacing="0" font-pixel-size="138" font-italic="0" typewriter="0;2;1;0;0" alignment="4" font-weight="50" font-outline="9" box-width="404.156" font-color="255,255,255,255">by his&lt;/content>
 &lt;/item>
 &lt;startviewport rect="0,0,1080,1920"/>
 &lt;endviewport rect="0,0,1080,1920"/>
 &lt;background color="0,0,0,0"/>
&lt;/kdenlivetitle>
</property>
  <property name="kdenlive:folderid">21</property>
  <property name="kdenlive:id">50</property>
  <property name="kdenlive:clip_type">2</property>
  <property name="force_reload">0</property>
  <property name="meta.media.width">1080</property>
  <property name="meta.media.height">1920</property>
  <property name="kdenlive:file_hash">301e7a4cb2968db9455efdd33e2df3bd</property>
 </producer>
 <producer id="producer30" in="00:00:00.000" out="00:00:04.960">
  <property name="length">125</property>
  <property name="eof">pause</property>
  <property name="progressive">1</property>
  <property name="aspect_ratio">1</property>
  <property name="seekable">1</property>
  <property name="mlt_service">kdenlivetitle</property>
  <property name="kdenlive:duration">00:00:05:00</property>
  <property name="kdenlive:clipname">very nature</property>
  <property name="xmldata">&lt;kdenlivetitle duration="125" LC_NUMERIC="C" width="1080" height="1920" out="124">
 &lt;item type="QGraphicsTextItem" z-index="0">
  &lt;position x="118" y="1177">
   &lt;transform>1,0,0,0,1,0,0,0,1&lt;/transform>
  &lt;/position>
  &lt;content line-spacing="0" shadow="0;#64000000;3;3;3" font-underline="0" box-height="166" font-outline-color="0,0,0,255" font="Cubano" letter-spacing="0" font-pixel-size="138" font-italic="0" typewriter="0;2;1;0;0" alignment="4" font-weight="50" font-outline="9" box-width="842.391" font-color="255,255,255,255">very nature&lt;/content>
 &lt;/item>
 &lt;startviewport rect="0,0,1080,1920"/>
 &lt;endviewport rect="0,0,1080,1920"/>
 &lt;background color="0,0,0,0"/>
&lt;/kdenlivetitle>
</property>
  <property name="kdenlive:folderid">21</property>
  <property name="kdenlive:id">51</property>
  <property name="kdenlive:clip_type">2</property>
  <property name="force_reload">0</property>
  <property name="meta.media.width">1080</property>
  <property name="meta.media.height">1920</property>
  <property name="kdenlive:file_hash">7ef462b1d0a8fad54cd55bd05b0856fa</property>
 </producer>
 <producer id="producer4" in="00:00:00.000" out="00:00:13.160">
  <property name="length">330</property>
  <property name="eof">pause</property>
  <property name="resource">images/Louis_XIV_of_France.jpg</property>
  <property name="ttl">25</property>
  <property name="aspect_ratio">1</property>
  <property name="progressive">1</property>
  <property name="seekable">1</property>
  <property name="format">1</property>
  <property name="meta.media.width">800</property>
  <property name="meta.media.height">1137</property>
  <property name="mlt_service">qimage</property>
  <property name="kdenlive:clipname"/>
  <property name="kdenlive:duration">00:00:05:00</property>
  <property name="kdenlive:folderid">8</property>
  <property name="kdenlive:id">52</property>
  <property name="kdenlive:clip_type">2</property>
  <property name="kdenlive:file_size">348009</property>
  <property name="kdenlive:file_hash">3ea875b920177649e83e9b127f40faac</property>
 </producer>
 <producer id="producer68" in="00:00:00.000" out="00:00:04.960">
  <property name="length">125</property>
  <property name="eof">pause</property>
  <property name="progressive">1</property>
  <property name="aspect_ratio">1</property>
  <property name="seekable">1</property>
  <property name="mlt_service">kdenlivetitle</property>
  <property name="kdenlive:duration">00:00:05:00</property>
  <property name="kdenlive:clipname">this is in</property>
  <property name="xmldata">&lt;kdenlivetitle duration="125" LC_NUMERIC="C" width="1080" height="1920" out="124">
 &lt;item type="QGraphicsTextItem" z-index="0">
  &lt;position x="239" y="1177">
   &lt;transform>1,0,0,0,1,0,0,0,1&lt;/transform>
  &lt;/position>
  &lt;content line-spacing="0" shadow="0;#64000000;3;3;3" font-underline="0" box-height="166" font-outline-color="0,0,0,255" font="Cubano" letter-spacing="0" font-pixel-size="138" font-italic="0" typewriter="0;2;1;0;0" alignment="4" font-weight="50" font-outline="9" box-width="604.063" font-color="255,255,255,255">this is in&lt;/content>
 &lt;/item>
 &lt;startviewport rect="0,0,1080,1920"/>
 &lt;endviewport rect="0,0,1080,1920"/>
 &lt;background color="0,0,0,0"/>
&lt;/kdenlivetitle>
</property>
  <property name="kdenlive:folderid">21</property>
  <property name="kdenlive:id">53</property>
  <property name="kdenlive:clip_type">2</property>
  <property name="force_reload">0</property>
  <property name="meta.media.width">1080</property>
  <property name="meta.media.height">1920</property>
  <property name="kdenlive:file_hash">adbddb7fb372a63f98fffd4499ec968e</property>
 </producer>
 <producer id="producer69" in="00:00:00.000" out="00:00:04.960">
  <property name="length">125</property>
  <property name="eof">pause</property>
  <property name="progressive">1</property>
  <property name="aspect_ratio">1</property>
  <property name="seekable">1</property>
  <property name="mlt_service">kdenlivetitle</property>
  <property name="kdenlive:duration">00:00:05:00</property>
  <property name="kdenlive:clipname">stark</property>
  <property name="xmldata">&lt;kdenlivetitle duration="125" LC_NUMERIC="C" width="1080" height="1920" out="124">
 &lt;item type="QGraphicsTextItem" z-index="0">
  &lt;position x="339" y="1177">
   &lt;transform>1,0,0,0,1,0,0,0,1&lt;/transform>
  &lt;/position>
  &lt;content line-spacing="0" shadow="0;#64000000;3;3;3" font-underline="0" box-height="166" font-outline-color="0,0,0,255" font="Cubano" letter-spacing="0" font-pixel-size="138" font-italic="0" typewriter="0;2;1;0;0" alignment="4" font-weight="50" font-outline="9" box-width="406.688" font-color="255,255,255,255">stark&lt;/content>
 &lt;/item>
 &lt;startviewport rect="0,0,1080,1920"/>
 &lt;endviewport rect="0,0,1080,1920"/>
 &lt;background color="0,0,0,0"/>
&lt;/kdenlivetitle>
</property>
  <property name="kdenlive:folderid">21</property>
  <property name="kdenlive:id">54</property>
  <property name="kdenlive:clip_type">2</property>
  <property name="force_reload">0</property>
  <property name="meta.media.width">1080</property>
  <property name="meta.media.height">1920</property>
  <property name="kdenlive:file_hash">2578cdf0d20b998df1759d1ec851bf4f</property>
 </producer>
 <producer id="producer31" in="00:00:00.000" out="00:00:04.960">
  <property name="length">125</property>
  <property name="eof">pause</property>
  <property name="progressive">1</property>
  <property name="aspect_ratio">1</property>
  <property name="seekable">1</property>
  <property name="mlt_service">kdenlivetitle</property>
  <property name="kdenlive:duration">00:00:05:00</property>
  <property name="kdenlive:clipname">contrast</property>
  <property name="xmldata">&lt;kdenlivetitle duration="125" LC_NUMERIC="C" width="1080" height="1920" out="124">
 &lt;item type="QGraphicsTextItem" z-index="0">
  &lt;position x="219" y="1177">
   &lt;transform>1,0,0,0,1,0,0,0,1&lt;/transform>
  &lt;/position>
  &lt;content line-spacing="0" shadow="0;#64000000;3;3;3" font-underline="0" box-height="166" font-outline-color="0,0,0,255" font="Cubano" letter-spacing="0" font-pixel-size="138" font-italic="0" typewriter="0;2;1;0;0" alignment="4" font-weight="50" font-outline="9" box-width="647.563" font-color="255,255,255,255">contrast&lt;/content>
 &lt;/item>
 &lt;startviewport rect="0,0,1080,1920"/>
 &lt;endviewport rect="0,0,1080,1920"/>
 &lt;background color="0,0,0,0"/>
&lt;/kdenlivetitle>
</property>
  <property name="kdenlive:folderid">21</property>
  <property name="kdenlive:id">55</property>
  <property name="kdenlive:clip_type">2</property>
  <property name="force_reload">0</property>
  <property name="meta.media.width">1080</property>
  <property name="meta.media.height">1920</property>
  <property name="kdenlive:file_hash">e8ce36ad91837da8fb909ee834b8ca27</property>
 </producer>
 <producer id="producer32" in="00:00:00.000" out="00:00:04.960">
  <property name="length">125</property>
  <property name="eof">pause</property>
  <property name="progressive">1</property>
  <property name="aspect_ratio">1</property>
  <property name="seekable">1</property>
  <property name="mlt_service">kdenlivetitle</property>
  <property name="kdenlive:duration">00:00:05:00</property>
  <property name="kdenlive:clipname">every</property>
  <property name="xmldata">&lt;kdenlivetitle duration="125" LC_NUMERIC="C" width="1080" height="1920" out="124">
 &lt;item type="QGraphicsTextItem" z-index="0">
  &lt;position x="346" y="1177">
   &lt;transform>1,0,0,0,1,0,0,0,1&lt;/transform>
  &lt;/position>
  &lt;content line-spacing="0" shadow="0;#64000000;3;3;3" font-underline="0" box-height="166" font-outline-color="0,0,0,255" font="Cubano" letter-spacing="0" font-pixel-size="138" font-italic="0" typewriter="0;2;1;0;0" alignment="4" font-weight="50" font-outline="9" box-width="391.609" font-color="255,255,255,255">every&lt;/content>
 &lt;/item>
 &lt;startviewport rect="0,0,1080,1920"/>
 &lt;endviewport rect="0,0,1080,1920"/>
 &lt;background color="0,0,0,0"/>
&lt;/kdenlivetitle>
</property>
  <property name="kdenlive:folderid">21</property>
  <property name="kdenlive:id">56</property>
  <property name="kdenlive:clip_type">2</property>
  <property name="force_reload">0</property>
  <property name="meta.media.width">1080</property>
  <property name="meta.media.height">1920</property>
  <property name="kdenlive:file_hash">7ae8a34ba944613b132d5fa0662d0448</property>
 </producer>
 <producer id="producer33" in="00:00:00.000" out="00:00:04.960">
  <property name="length">125</property>
  <property name="eof">pause</property>
  <property name="progressive">1</property>
  <property name="aspect_ratio">1</property>
  <property name="seekable">1</property>
  <property name="mlt_service">kdenlivetitle</property>
  <property name="kdenlive:duration">00:00:05:00</property>
  <property name="kdenlive:clipname">other</property>
  <property name="xmldata">&lt;kdenlivetitle duration="125" LC_NUMERIC="C" width="1080" height="1920" out="124">
 &lt;item type="QGraphicsTextItem" z-index="0">
  &lt;position x="342" y="1177">
   &lt;transform>1,0,0,0,1,0,0,0,1&lt;/transform>
  &lt;/position>
  &lt;content line-spacing="0" shadow="0;#64000000;3;3;3" font-underline="0" box-height="166" font-outline-color="0,0,0,255" font="Cubano" letter-spacing="0" font-pixel-size="138" font-italic="0" typewriter="0;2;1;0;0" alignment="4" font-weight="50" font-outline="9" box-width="402.109" font-color="255,255,255,255">other&lt;/content>
 &lt;/item>
 &lt;startviewport rect="0,0,1080,1920"/>
 &lt;endviewport rect="0,0,1080,1920"/>
 &lt;background color="0,0,0,0"/>
&lt;/kdenlivetitle>
</property>
  <property name="kdenlive:folderid">21</property>
  <property name="kdenlive:id">57</property>
  <property name="kdenlive:clip_type">2</property>
  <property name="force_reload">0</property>
  <property name="meta.media.width">1080</property>
  <property name="meta.media.height">1920</property>
  <property name="kdenlive:file_hash">dd738fe6f488339a66ddb96ee51b28f4</property>
 </producer>
 <producer id="producer34" in="00:00:00.000" out="00:00:04.960">
  <property name="length">125</property>
  <property name="eof">pause</property>
  <property name="progressive">1</property>
  <property name="aspect_ratio">1</property>
  <property name="seekable">1</property>
  <property name="mlt_service">kdenlivetitle</property>
  <property name="kdenlive:duration">00:00:05:00</property>
  <property name="kdenlive:clipname">society</property>
  <property name="xmldata">&lt;kdenlivetitle duration="125" LC_NUMERIC="C" width="1080" height="1920" out="124">
 &lt;item type="QGraphicsTextItem" z-index="0">
  &lt;position x="285" y="1177">
   &lt;transform>1,0,0,0,1,0,0,0,1&lt;/transform>
  &lt;/position>
  &lt;content line-spacing="0" shadow="0;#64000000;3;3;3" font-underline="0" box-height="166" font-outline-color="0,0,0,255" font="Cubano" letter-spacing="0" font-pixel-size="138" font-italic="0" typewriter="0;2;1;0;0" alignment="4" font-weight="50" font-outline="9" box-width="516.609" font-color="255,255,255,255">society&lt;/content>
 &lt;/item>
 &lt;startviewport rect="0,0,1080,1920"/>
 &lt;endviewport rect="0,0,1080,1920"/>
 &lt;background color="0,0,0,0"/>
&lt;/kdenlivetitle>
</property>
  <property name="kdenlive:folderid">21</property>
  <property name="kdenlive:id">58</property>
  <property name="kdenlive:clip_type">2</property>
  <property name="force_reload">0</property>
  <property name="meta.media.width">1080</property>
  <property name="meta.media.height">1920</property>
  <property name="kdenlive:file_hash">da2ea587dea698986232735570977846</property>
 </producer>
 <producer id="producer35" in="00:00:00.000" out="00:00:04.960">
  <property name="length">125</property>
  <property name="eof">pause</property>
  <property name="progressive">1</property>
  <property name="aspect_ratio">1</property>
  <property name="seekable">1</property>
  <property name="mlt_service">kdenlivetitle</property>
  <property name="kdenlive:duration">00:00:05:00</property>
  <property name="kdenlive:clipname">at the time</property>
  <property name="xmldata">&lt;kdenlivetitle duration="125" LC_NUMERIC="C" width="1080" height="1920" out="124">
 &lt;item type="QGraphicsTextItem" z-index="0">
  &lt;position x="144" y="1177">
   &lt;transform>1,0,0,0,1,0,0,0,1&lt;/transform>
  &lt;/position>
  &lt;content line-spacing="0" shadow="0;#64000000;3;3;3" font-underline="0" box-height="166" font-outline-color="0,0,0,255" font="Cubano" letter-spacing="0" font-pixel-size="138" font-italic="0" typewriter="0;2;1;0;0" alignment="4" font-weight="50" font-outline="9" box-width="788.156" font-color="255,255,255,255">at the time&lt;/content>
 &lt;/item>
 &lt;startviewport rect="0,0,1080,1920"/>
 &lt;endviewport rect="0,0,1080,1920"/>
 &lt;background color="0,0,0,0"/>
&lt;/kdenlivetitle>
</property>
  <property name="kdenlive:folderid">21</property>
  <property name="kdenlive:id">59</property>
  <property name="kdenlive:clip_type">2</property>
  <property name="force_reload">0</property>
  <property name="meta.media.width">1080</property>
  <property name="meta.media.height">1920</property>
  <property name="kdenlive:file_hash">7425a292f5e46d6cb23381d98f0a88b3</property>
 </producer>
 <producer id="producer36" in="00:00:00.000" out="00:00:04.960">
  <property name="length">125</property>
  <property name="eof">pause</property>
  <property name="progressive">1</property>
  <property name="aspect_ratio">1</property>
  <property name="seekable">1</property>
  <property name="mlt_service">kdenlivetitle</property>
  <property name="kdenlive:duration">00:00:05:00</property>
  <property name="kdenlive:clipname">which held</property>
  <property name="xmldata">&lt;kdenlivetitle duration="125" LC_NUMERIC="C" width="1080" height="1920" out="124">
 &lt;item type="QGraphicsTextItem" z-index="0">
  &lt;position x="168" y="1177">
   &lt;transform>1,0,0,0,1,0,0,0,1&lt;/transform>
  &lt;/position>
  &lt;content line-spacing="0" shadow="0;#64000000;3;3;3" font-underline="0" box-height="166" font-outline-color="0,0,0,255" font="Cubano" letter-spacing="0" font-pixel-size="138" font-italic="0" typewriter="0;2;1;0;0" alignment="4" font-weight="50" font-outline="9" box-width="746.094" font-color="255,255,255,255">which held&lt;/content>
 &lt;/item>
 &lt;startviewport rect="0,0,1080,1920"/>
 &lt;endviewport rect="0,0,1080,1920"/>
 &lt;background color="0,0,0,0"/>
&lt;/kdenlivetitle>
</property>
  <property name="kdenlive:folderid">21</property>
  <property name="kdenlive:id">60</property>
  <property name="kdenlive:clip_type">2</property>
  <property name="force_reload">0</property>
  <property name="meta.media.width">1080</property>
  <property name="meta.media.height">1920</property>
  <property name="kdenlive:file_hash">2a7ccf918bb48f512f06fcdd1a4009da</property>
 </producer>
 <producer id="producer37" in="00:00:00.000" out="00:00:04.960">
  <property name="length">125</property>
  <property name="eof">pause</property>
  <property name="progressive">1</property>
  <property name="aspect_ratio">1</property>
  <property name="seekable">1</property>
  <property name="mlt_service">kdenlivetitle</property>
  <property name="kdenlive:duration">00:00:05:00</property>
  <property name="kdenlive:clipname">that</property>
  <property name="xmldata">&lt;kdenlivetitle duration="125" LC_NUMERIC="C" width="1080" height="1920" out="124">
 &lt;item type="QGraphicsTextItem" z-index="0">
  &lt;position x="380" y="1177">
   &lt;transform>1,0,0,0,1,0,0,0,1&lt;/transform>
  &lt;/position>
  &lt;content line-spacing="0" shadow="0;#64000000;3;3;3" font-underline="0" box-height="166" font-outline-color="0,0,0,255" font="Cubano" letter-spacing="0" font-pixel-size="138" font-italic="0" typewriter="0;2;1;0;0" alignment="4" font-weight="50" font-outline="9" box-width="323.438" font-color="255,255,255,255">that&lt;/content>
 &lt;/item>
 &lt;startviewport rect="0,0,1080,1920"/>
 &lt;endviewport rect="0,0,1080,1920"/>
 &lt;background color="0,0,0,0"/>
&lt;/kdenlivetitle>
</property>
  <property name="kdenlive:folderid">21</property>
  <property name="kdenlive:id">61</property>
  <property name="kdenlive:clip_type">2</property>
  <property name="force_reload">0</property>
  <property name="meta.media.width">1080</property>
  <property name="meta.media.height">1920</property>
  <property name="kdenlive:file_hash">d374cb29f11dc2f91f91ee63fb6e595e</property>
 </producer>
 <producer id="producer38" in="00:00:00.000" out="00:00:04.960">
  <property name="length">125</property>
  <property name="eof">pause</property>
  <property name="progressive">1</property>
  <property name="aspect_ratio">1</property>
  <property name="seekable">1</property>
  <property name="mlt_service">kdenlivetitle</property>
  <property name="kdenlive:duration">00:00:05:00</property>
  <property name="kdenlive:clipname">every man</property>
  <property name="xmldata">&lt;kdenlivetitle duration="125" LC_NUMERIC="C" width="1080" height="1920" out="124">
 &lt;item type="QGraphicsTextItem" z-index="0">
  &lt;position x="186" y="1177">
   &lt;transform>1,0,0,0,1,0,0,0,1&lt;/transform>
  &lt;/position>
  &lt;content line-spacing="0" shadow="0;#64000000;3;3;3" font-underline="0" box-height="166" font-outline-color="0,0,0,255" font="Cubano" letter-spacing="0" font-pixel-size="138" font-italic="0" typewriter="0;2;1;0;0" alignment="4" font-weight="50" font-outline="9" box-width="709.516" font-color="255,255,255,255">every man&lt;/content>
 &lt;/item>
 &lt;startviewport rect="0,0,1080,1920"/>
 &lt;endviewport rect="0,0,1080,1920"/>
 &lt;background color="0,0,0,0"/>
&lt;/kdenlivetitle>
</property>
  <property name="kdenlive:folderid">21</property>
  <property name="kdenlive:id">62</property>
  <property name="kdenlive:clip_type">2</property>
  <property name="force_reload">0</property>
  <property name="meta.media.width">1080</property>
  <property name="meta.media.height">1920</property>
  <property name="kdenlive:file_hash">8306721d1026f125269fc2f5a00c90bb</property>
 </producer>
 <producer id="producer39" in="00:00:00.000" out="00:00:04.960">
  <property name="length">125</property>
  <property name="eof">pause</property>
  <property name="progressive">1</property>
  <property name="aspect_ratio">1</property>
  <property name="seekable">1</property>
  <property name="mlt_service">kdenlivetitle</property>
  <property name="kdenlive:duration">00:00:05:00</property>
  <property name="kdenlive:clipname">was merely</property>
  <property name="xmldata">&lt;kdenlivetitle duration="125" LC_NUMERIC="C" width="1080" height="1920" out="124">
 &lt;item type="QGraphicsTextItem" z-index="0">
  &lt;position x="144" y="1177">
   &lt;transform>1,0,0,0,1,0,0,0,1&lt;/transform>
  &lt;/position>
  &lt;content line-spacing="0" shadow="0;#64000000;3;3;3" font-underline="0" box-height="166" font-outline-color="0,0,0,255" font="Cubano" letter-spacing="0" font-pixel-size="138" font-italic="0" typewriter="0;2;1;0;0" alignment="4" font-weight="50" font-outline="9" box-width="794.656" font-color="255,255,255,255">was merely&lt;/content>
 &lt;/item>
 &lt;startviewport rect="0,0,1080,1920"/>
 &lt;endviewport rect="0,0,1080,1920"/>
 &lt;background color="0,0,0,0"/>
&lt;/kdenlivetitle>
</property>
  <property name="kdenlive:folderid">21</property>
  <property name="kdenlive:id">63</property>
  <property name="kdenlive:clip_type">2</property>
  <property name="force_reload">0</property>
  <property name="meta.media.width">1080</property>
  <property name="meta.media.height">1920</property>
  <property name="kdenlive:file_hash">ab932b6266d361aca7eb3597b51cc5f7</property>
 </producer>
 <producer id="producer40" in="00:00:00.000" out="00:00:04.960">
  <property name="length">125</property>
  <property name="eof">pause</property>
  <property name="progressive">1</property>
  <property name="aspect_ratio">1</property>
  <property name="seekable">1</property>
  <property name="mlt_service">kdenlivetitle</property>
  <property name="kdenlive:duration">00:00:05:00</property>
  <property name="kdenlive:clipname">a cell</property>
  <property name="xmldata">&lt;kdenlivetitle duration="125" LC_NUMERIC="C" width="1080" height="1920" out="124">
 &lt;item type="QGraphicsTextItem" z-index="0">
  &lt;position x="331" y="1177">
   &lt;transform>1,0,0,0,1,0,0,0,1&lt;/transform>
  &lt;/position>
  &lt;content line-spacing="0" shadow="0;#64000000;3;3;3" font-underline="0" box-height="166" font-outline-color="0,0,0,255" font="Cubano" letter-spacing="0" font-pixel-size="138" font-italic="0" typewriter="0;2;1;0;0" alignment="4" font-weight="50" font-outline="9" box-width="418.234" font-color="255,255,255,255">a cell&lt;/content>
 &lt;/item>
 &lt;startviewport rect="0,0,1080,1920"/>
 &lt;endviewport rect="0,0,1080,1920"/>
 &lt;background color="0,0,0,0"/>
&lt;/kdenlivetitle>
</property>
  <property name="kdenlive:folderid">21</property>
  <property name="kdenlive:id">64</property>
  <property name="kdenlive:clip_type">2</property>
  <property name="force_reload">0</property>
  <property name="meta.media.width">1080</property>
  <property name="meta.media.height">1920</property>
  <property name="kdenlive:file_hash">1f4faeed410921978d0e1e3da1fc125d</property>
 </producer>
 <producer id="producer41" in="00:00:00.000" out="00:00:04.960">
  <property name="length">125</property>
  <property name="eof">pause</property>
  <property name="progressive">1</property>
  <property name="aspect_ratio">1</property>
  <property name="seekable">1</property>
  <property name="mlt_service">kdenlivetitle</property>
  <property name="kdenlive:duration">00:00:05:00</property>
  <property name="kdenlive:clipname">in the</property>
  <property name="xmldata">&lt;kdenlivetitle duration="125" LC_NUMERIC="C" width="1080" height="1920" out="124">
 &lt;item type="QGraphicsTextItem" z-index="0">
  &lt;position x="336" y="1177">
   &lt;transform>1,0,0,0,1,0,0,0,1&lt;/transform>
  &lt;/position>
  &lt;content line-spacing="0" shadow="0;#64000000;3;3;3" font-underline="0" box-height="166" font-outline-color="0,0,0,255" font="Cubano" letter-spacing="0" font-pixel-size="138" font-italic="0" typewriter="0;2;1;0;0" alignment="4" font-weight="50" font-outline="9" box-width="407.188" font-color="255,255,255,255">in the&lt;/content>
 &lt;/item>
 &lt;startviewport rect="0,0,1080,1920"/>
 &lt;endviewport rect="0,0,1080,1920"/>
 &lt;background color="0,0,0,0"/>
&lt;/kdenlivetitle>
</property>
  <property name="kdenlive:folderid">21</property>
  <property name="kdenlive:id">65</property>
  <property name="kdenlive:clip_type">2</property>
  <property name="force_reload">0</property>
  <property name="meta.media.width">1080</property>
  <property name="meta.media.height">1920</property>
  <property name="kdenlive:file_hash">eb61e64afca2db875687cc0d2292bba6</property>
 </producer>
 <producer id="producer42" in="00:00:00.000" out="00:00:04.960">
  <property name="length">125</property>
  <property name="eof">pause</property>
  <property name="progressive">1</property>
  <property name="aspect_ratio">1</property>
  <property name="seekable">1</property>
  <property name="mlt_service">kdenlivetitle</property>
  <property name="kdenlive:duration">00:00:05:00</property>
  <property name="kdenlive:clipname">collective</property>
  <property name="xmldata">&lt;kdenlivetitle duration="125" LC_NUMERIC="C" width="1080" height="1920" out="124">
 &lt;item type="QGraphicsTextItem" z-index="0">
  &lt;position x="174" y="1177">
   &lt;transform>1,0,0,0,1,0,0,0,1&lt;/transform>
  &lt;/position>
  &lt;content line-spacing="0" shadow="0;#64000000;3;3;3" font-underline="0" box-height="166" font-outline-color="0,0,0,255" font="Cubano" letter-spacing="0" font-pixel-size="138" font-italic="0" typewriter="0;2;1;0;0" alignment="4" font-weight="50" font-outline="9" box-width="730.219" font-color="255,255,255,255">collective&lt;/content>
 &lt;/item>
 &lt;startviewport rect="0,0,1080,1920"/>
 &lt;endviewport rect="0,0,1080,1920"/>
 &lt;background color="0,0,0,0"/>
&lt;/kdenlivetitle>
</property>
  <property name="kdenlive:folderid">21</property>
  <property name="kdenlive:id">66</property>
  <property name="kdenlive:clip_type">2</property>
  <property name="force_reload">0</property>
  <property name="meta.media.width">1080</property>
  <property name="meta.media.height">1920</property>
  <property name="kdenlive:file_hash">ad9a3fd7d49f9177b466d130ab9a8093</property>
 </producer>
 <producer id="producer43" in="00:00:00.000" out="00:00:04.960">
  <property name="length">125</property>
  <property name="eof">pause</property>
  <property name="progressive">1</property>
  <property name="aspect_ratio">1</property>
  <property name="seekable">1</property>
  <property name="mlt_service">kdenlivetitle</property>
  <property name="kdenlive:duration">00:00:05:00</property>
  <property name="kdenlive:clipname">body</property>
  <property name="xmldata">&lt;kdenlivetitle duration="125" LC_NUMERIC="C" width="1080" height="1920" out="124">
 &lt;item type="QGraphicsTextItem" z-index="0">
  &lt;position x="377" y="1177">
   &lt;transform>1,0,0,0,1,0,0,0,1&lt;/transform>
  &lt;/position>
  &lt;content line-spacing="0" shadow="0;#64000000;3;3;3" font-underline="0" box-height="166" font-outline-color="0,0,0,255" font="Cubano" letter-spacing="0" font-pixel-size="138" font-italic="0" typewriter="0;2;1;0;0" alignment="4" font-weight="50" font-outline="9" box-width="325.938" font-color="255,255,255,255">body&lt;/content>
 &lt;/item>
 &lt;startviewport rect="0,0,1080,1920"/>
 &lt;endviewport rect="0,0,1080,1920"/>
 &lt;background color="0,0,0,0"/>
&lt;/kdenlivetitle>
</property>
  <property name="kdenlive:folderid">21</property>
  <property name="kdenlive:id">67</property>
  <property name="kdenlive:clip_type">2</property>
  <property name="force_reload">0</property>
  <property name="meta.media.width">1080</property>
  <property name="meta.media.height">1920</property>
  <property name="kdenlive:file_hash">ab36488dddc6d6646a9cc24cad785557</property>
 </producer>
 <producer id="producer44" in="00:00:00.000" out="00:00:04.960">
  <property name="length">125</property>
  <property name="eof">pause</property>
  <property name="progressive">1</property>
  <property name="aspect_ratio">1</property>
  <property name="seekable">1</property>
  <property name="mlt_service">kdenlivetitle</property>
  <property name="kdenlive:duration">00:00:05:00</property>
  <property name="kdenlive:clipname">that society</property>
  <property name="xmldata">&lt;kdenlivetitle duration="125" LC_NUMERIC="C" width="1080" height="1920" out="124">
 &lt;item type="QGraphicsTextItem" z-index="0">
  &lt;position x="100" y="1177">
   &lt;transform>1,0,0,0,1,0,0,0,1&lt;/transform>
  &lt;/position>
  &lt;content line-spacing="0" shadow="0;#64000000;3;3;3" font-underline="0" box-height="166" font-outline-color="0,0,0,255" font="Cubano" letter-spacing="0" font-pixel-size="138" font-italic="0" typewriter="0;2;1;0;0" alignment="4" font-weight="50" font-outline="9" box-width="881.438" font-color="255,255,255,255">that society&lt;/content>
 &lt;/item>
 &lt;startviewport rect="0,0,1080,1920"/>
 &lt;endviewport rect="0,0,1080,1920"/>
 &lt;background color="0,0,0,0"/>
&lt;/kdenlivetitle>
</property>
  <property name="kdenlive:folderid">21</property>
  <property name="kdenlive:id">68</property>
  <property name="kdenlive:clip_type">2</property>
  <property name="force_reload">0</property>
  <property name="meta.media.width">1080</property>
  <property name="meta.media.height">1920</property>
  <property name="kdenlive:file_hash">84060e1cc995633964609905c2a63a4c</property>
 </producer>
 <producer id="producer45" in="00:00:00.000" out="00:00:04.960">
  <property name="length">125</property>
  <property name="eof">pause</property>
  <property name="progressive">1</property>
  <property name="aspect_ratio">1</property>
  <property name="seekable">1</property>
  <property name="mlt_service">kdenlivetitle</property>
  <property name="kdenlive:duration">00:00:05:00</property>
  <property name="kdenlive:clipname">may use</property>
  <property name="xmldata">&lt;kdenlivetitle duration="125" LC_NUMERIC="C" width="1080" height="1920" out="124">
 &lt;item type="QGraphicsTextItem" z-index="0">
  &lt;position x="266" y="1177">
   &lt;transform>1,0,0,0,1,0,0,0,1&lt;/transform>
  &lt;/position>
  &lt;content line-spacing="0" shadow="0;#64000000;3;3;3" font-underline="0" box-height="166" font-outline-color="0,0,0,255" font="Cubano" letter-spacing="0" font-pixel-size="138" font-italic="0" typewriter="0;2;1;0;0" alignment="4" font-weight="50" font-outline="9" box-width="550.828" font-color="255,255,255,255">may use&lt;/content>
 &lt;/item>
 &lt;startviewport rect="0,0,1080,1920"/>
 &lt;endviewport rect="0,0,1080,1920"/>
 &lt;background color="0,0,0,0"/>
&lt;/kdenlivetitle>
</property>
  <property name="kdenlive:folderid">21</property>
  <property name="kdenlive:id">69</property>
  <property name="kdenlive:clip_type">2</property>
  <property name="force_reload">0</property>
  <property name="meta.media.width">1080</property>
  <property name="meta.media.height">1920</property>
  <property name="kdenlive:file_hash">cac03c1b528fb2f79ce6accdbd83f19a</property>
 </producer>
 <producer id="producer46" in="00:00:00.000" out="00:00:04.960">
  <property name="length">125</property>
  <property name="eof">pause</property>
  <property name="progressive">1</property>
  <property name="aspect_ratio">1</property>
  <property name="seekable">1</property>
  <property name="mlt_service">kdenlivetitle</property>
  <property name="kdenlive:duration">00:00:05:00</property>
  <property name="kdenlive:clipname">and dispose</property>
  <property name="xmldata">&lt;kdenlivetitle duration="125" LC_NUMERIC="C" width="1080" height="1920" out="124">
 &lt;item type="QGraphicsTextItem" z-index="0">
  &lt;position x="139" y="1177">
   &lt;transform>1,0,0,0,1,0,0,0,1&lt;/transform>
  &lt;/position>
  &lt;content line-spacing="0" shadow="0;#64000000;3;3;3" font-underline="0" box-height="166" font-outline-color="0,0,0,255" font="Cubano" letter-spacing="0" font-pixel-size="138" font-italic="0" typewriter="0;2;1;0;0" alignment="4" font-weight="50" font-outline="9" box-width="802.094" font-color="255,255,255,255">and dispose&lt;/content>
 &lt;/item>
 &lt;startviewport rect="0,0,1080,1920"/>
 &lt;endviewport rect="0,0,1080,1920"/>
 &lt;background color="0,0,0,0"/>
&lt;/kdenlivetitle>
</property>
  <property name="kdenlive:folderid">21</property>
  <property name="kdenlive:id">70</property>
  <property name="kdenlive:clip_type">2</property>
  <property name="force_reload">0</property>
  <property name="meta.media.width">1080</property>
  <property name="meta.media.height">1920</property>
  <property name="kdenlive:file_hash">70cdbefb7befe148740efc33a5fb626c</property>
 </producer>
 <producer id="producer47" in="00:00:00.000" out="00:00:04.960">
  <property name="length">125</property>
  <property name="eof">pause</property>
  <property name="progressive">1</property>
  <property name="aspect_ratio">1</property>
  <property name="seekable">1</property>
  <property name="mlt_service">kdenlivetitle</property>
  <property name="kdenlive:duration">00:00:05:00</property>
  <property name="kdenlive:clipname">of him</property>
  <property name="xmldata">&lt;kdenlivetitle duration="125" LC_NUMERIC="C" width="1080" height="1920" out="124">
 &lt;item type="QGraphicsTextItem" z-index="0">
  &lt;position x="327" y="1177">
   &lt;transform>1,0,0,0,1,0,0,0,1&lt;/transform>
  &lt;/position>
  &lt;content line-spacing="0" shadow="0;#64000000;3;3;3" font-underline="0" box-height="166" font-outline-color="0,0,0,255" font="Cubano" letter-spacing="0" font-pixel-size="138" font-italic="0" typewriter="0;2;1;0;0" alignment="4" font-weight="50" font-outline="9" box-width="426.922" font-color="255,255,255,255">of him&lt;/content>
 &lt;/item>
 &lt;startviewport rect="0,0,1080,1920"/>
 &lt;endviewport rect="0,0,1080,1920"/>
 &lt;background color="0,0,0,0"/>
&lt;/kdenlivetitle>
</property>
  <property name="kdenlive:folderid">21</property>
  <property name="kdenlive:id">71</property>
  <property name="kdenlive:clip_type">2</property>
  <property name="force_reload">0</property>
  <property name="meta.media.width">1080</property>
  <property name="meta.media.height">1920</property>
  <property name="kdenlive:file_hash">ee5586be3efaa3af9eca2e4762b601d5</property>
 </producer>
 <producer id="producer48" in="00:00:00.000" out="00:00:04.960">
  <property name="length">125</property>
  <property name="eof">pause</property>
  <property name="progressive">1</property>
  <property name="aspect_ratio">1</property>
  <property name="seekable">1</property>
  <property name="mlt_service">kdenlivetitle</property>
  <property name="kdenlive:duration">00:00:05:00</property>
  <property name="kdenlive:clipname">for whatever</property>
  <property name="xmldata">&lt;kdenlivetitle duration="125" LC_NUMERIC="C" width="1080" height="1920" out="124">
 &lt;item type="QGraphicsTextItem" z-index="0">
  &lt;position x="69" y="1177">
   &lt;transform>1,0,0,0,1,0,0,0,1&lt;/transform>
  &lt;/position>
  &lt;content line-spacing="0" shadow="0;#64000000;3;3;3" font-underline="0" box-height="166" font-outline-color="0,0,0,255" font="Cubano" letter-spacing="0" font-pixel-size="138" font-italic="0" typewriter="0;2;1;0;0" alignment="4" font-weight="50" font-outline="9" box-width="947.141" font-color="255,255,255,255">for whatever&lt;/content>
 &lt;/item>
 &lt;startviewport rect="0,0,1080,1920"/>
 &lt;endviewport rect="0,0,1080,1920"/>
 &lt;background color="0,0,0,0"/>
&lt;/kdenlivetitle>
</property>
  <property name="kdenlive:folderid">21</property>
  <property name="kdenlive:id">72</property>
  <property name="kdenlive:clip_type">2</property>
  <property name="force_reload">0</property>
  <property name="meta.media.width">1080</property>
  <property name="meta.media.height">1920</property>
  <property name="kdenlive:file_hash">b4c0feb2b9c6d702b4b8838bc2a1c047</property>
 </producer>
 <producer id="producer49" in="00:00:00.000" out="00:00:04.960">
  <property name="length">125</property>
  <property name="eof">pause</property>
  <property name="progressive">1</property>
  <property name="aspect_ratio">1</property>
  <property name="seekable">1</property>
  <property name="mlt_service">kdenlivetitle</property>
  <property name="kdenlive:duration">00:00:05:00</property>
  <property name="kdenlive:clipname">purposes</property>
  <property name="xmldata">&lt;kdenlivetitle duration="125" LC_NUMERIC="C" width="1080" height="1920" out="124">
 &lt;item type="QGraphicsTextItem" z-index="0">
  &lt;position x="228" y="1177">
   &lt;transform>1,0,0,0,1,0,0,0,1&lt;/transform>
  &lt;/position>
  &lt;content line-spacing="0" shadow="0;#64000000;3;3;3" font-underline="0" box-height="166" font-outline-color="0,0,0,255" font="Cubano" letter-spacing="0" font-pixel-size="138" font-italic="0" typewriter="0;2;1;0;0" alignment="4" font-weight="50" font-outline="9" box-width="630.578" font-color="255,255,255,255">purposes&lt;/content>
 &lt;/item>
 &lt;startviewport rect="0,0,1080,1920"/>
 &lt;endviewport rect="0,0,1080,1920"/>
 &lt;background color="0,0,0,0"/>
&lt;/kdenlivetitle>
</property>
  <property name="kdenlive:folderid">21</property>
  <property name="kdenlive:id">73</property>
  <property name="kdenlive:clip_type">2</property>
  <property name="force_reload">0</property>
  <property name="meta.media.width">1080</property>
  <property name="meta.media.height">1920</property>
  <property name="kdenlive:file_hash">d8922cb1f0f1470df8db5587319c67dd</property>
 </producer>
 <producer id="producer50" in="00:00:00.000" out="00:00:04.960">
  <property name="length">125</property>
  <property name="eof">pause</property>
  <property name="progressive">1</property>
  <property name="aspect_ratio">1</property>
  <property name="seekable">1</property>
  <property name="mlt_service">kdenlivetitle</property>
  <property name="kdenlive:duration">00:00:05:00</property>
  <property name="kdenlive:clipname">it deems fit</property>
  <property name="xmldata">&lt;kdenlivetitle duration="125" LC_NUMERIC="C" width="1080" height="1920" out="124">
 &lt;item type="QGraphicsTextItem" z-index="0">
  &lt;position x="133" y="1177">
   &lt;transform>1,0,0,0,1,0,0,0,1&lt;/transform>
  &lt;/position>
  &lt;content line-spacing="0" shadow="0;#64000000;3;3;3" font-underline="0" box-height="166" font-outline-color="0,0,0,255" font="Cubano" letter-spacing="0" font-pixel-size="138" font-italic="0" typewriter="0;2;1;0;0" alignment="4" font-weight="50" font-outline="9" box-width="820.297" font-color="255,255,255,255">it deems fit&lt;/content>
 &lt;/item>
 &lt;startviewport rect="0,0,1080,1920"/>
 &lt;endviewport rect="0,0,1080,1920"/>
 &lt;background color="0,0,0,0"/>
&lt;/kdenlivetitle>
</property>
  <property name="kdenlive:folderid">21</property>
  <property name="kdenlive:id">74</property>
  <property name="kdenlive:clip_type">2</property>
  <property name="force_reload">0</property>
  <property name="meta.media.width">1080</property>
  <property name="meta.media.height">1920</property>
  <property name="kdenlive:file_hash">f4afa475c9f12869b22aad2cedf992cf</property>
 </producer>
 <producer id="producer51" in="00:00:00.000" out="00:00:04.960">
  <property name="length">125</property>
  <property name="eof">pause</property>
  <property name="progressive">1</property>
  <property name="aspect_ratio">1</property>
  <property name="seekable">1</property>
  <property name="mlt_service">kdenlivetitle</property>
  <property name="kdenlive:duration">00:00:05:00</property>
  <property name="kdenlive:clipname">that man</property>
  <property name="xmldata">&lt;kdenlivetitle duration="125" LC_NUMERIC="C" width="1080" height="1920" out="124">
 &lt;item type="QGraphicsTextItem" z-index="0">
  &lt;position x="218" y="1177">
   &lt;transform>1,0,0,0,1,0,0,0,1&lt;/transform>
  &lt;/position>
  &lt;content line-spacing="0" shadow="0;#64000000;3;3;3" font-underline="0" box-height="166" font-outline-color="0,0,0,255" font="Cubano" letter-spacing="0" font-pixel-size="138" font-italic="0" typewriter="0;2;1;0;0" alignment="4" font-weight="50" font-outline="9" box-width="641.344" font-color="255,255,255,255">that man&lt;/content>
 &lt;/item>
 &lt;startviewport rect="0,0,1080,1920"/>
 &lt;endviewport rect="0,0,1080,1920"/>
 &lt;background color="0,0,0,0"/>
&lt;/kdenlivetitle>
</property>
  <property name="kdenlive:folderid">21</property>
  <property name="kdenlive:id">75</property>
  <property name="kdenlive:clip_type">2</property>
  <property name="force_reload">0</property>
  <property name="meta.media.width">1080</property>
  <property name="meta.media.height">1920</property>
  <property name="kdenlive:file_hash">a9242516f2b28a836a9642353f9af054</property>
 </producer>
 <producer id="producer52" in="00:00:00.000" out="00:00:04.960">
  <property name="length">125</property>
  <property name="eof">pause</property>
  <property name="progressive">1</property>
  <property name="aspect_ratio">1</property>
  <property name="seekable">1</property>
  <property name="mlt_service">kdenlivetitle</property>
  <property name="kdenlive:duration">00:00:05:00</property>
  <property name="kdenlive:clipname">lives only</property>
  <property name="xmldata">&lt;kdenlivetitle duration="125" LC_NUMERIC="C" width="1080" height="1920" out="124">
 &lt;item type="QGraphicsTextItem" z-index="0">
  &lt;position x="193" y="1177">
   &lt;transform>1,0,0,0,1,0,0,0,1&lt;/transform>
  &lt;/position>
  &lt;content line-spacing="0" shadow="0;#64000000;3;3;3" font-underline="0" box-height="166" font-outline-color="0,0,0,255" font="Cubano" letter-spacing="0" font-pixel-size="138" font-italic="0" typewriter="0;2;1;0;0" alignment="4" font-weight="50" font-outline="9" box-width="689.641" font-color="255,255,255,255">lives only&lt;/content>
 &lt;/item>
 &lt;startviewport rect="0,0,1080,1920"/>
 &lt;endviewport rect="0,0,1080,1920"/>
 &lt;background color="0,0,0,0"/>
&lt;/kdenlivetitle>
</property>
  <property name="kdenlive:folderid">21</property>
  <property name="kdenlive:id">76</property>
  <property name="kdenlive:clip_type">2</property>
  <property name="force_reload">0</property>
  <property name="meta.media.width">1080</property>
  <property name="meta.media.height">1920</property>
  <property name="kdenlive:file_hash">13ae441949d9dfe6008eee38a012cad2</property>
 </producer>
 <producer id="producer53" in="00:00:00.000" out="00:00:04.960">
  <property name="length">125</property>
  <property name="eof">pause</property>
  <property name="progressive">1</property>
  <property name="aspect_ratio">1</property>
  <property name="seekable">1</property>
  <property name="mlt_service">kdenlivetitle</property>
  <property name="kdenlive:duration">00:00:05:00</property>
  <property name="kdenlive:clipname">by the</property>
  <property name="xmldata">&lt;kdenlivetitle duration="125" LC_NUMERIC="C" width="1080" height="1920" out="124">
 &lt;item type="QGraphicsTextItem" z-index="0">
  &lt;position x="317" y="1177">
   &lt;transform>1,0,0,0,1,0,0,0,1&lt;/transform>
  &lt;/position>
  &lt;content line-spacing="0" shadow="0;#64000000;3;3;3" font-underline="0" box-height="166" font-outline-color="0,0,0,255" font="Cubano" letter-spacing="0" font-pixel-size="138" font-italic="0" typewriter="0;2;1;0;0" alignment="4" font-weight="50" font-outline="9" box-width="446.531" font-color="255,255,255,255">by the&lt;/content>
 &lt;/item>
 &lt;startviewport rect="0,0,1080,1920"/>
 &lt;endviewport rect="0,0,1080,1920"/>
 &lt;background color="0,0,0,0"/>
&lt;/kdenlivetitle>
</property>
  <property name="kdenlive:folderid">21</property>
  <property name="kdenlive:id">77</property>
  <property name="kdenlive:clip_type">2</property>
  <property name="force_reload">0</property>
  <property name="meta.media.width">1080</property>
  <property name="meta.media.height">1920</property>
  <property name="kdenlive:file_hash">66ed4366f2fbc3c738b106f77ad62972</property>
 </producer>
 <producer id="producer54" in="00:00:00.000" out="00:00:04.960">
  <property name="length">125</property>
  <property name="eof">pause</property>
  <property name="progressive">1</property>
  <property name="aspect_ratio">1</property>
  <property name="seekable">1</property>
  <property name="mlt_service">kdenlivetitle</property>
  <property name="kdenlive:duration">00:00:05:00</property>
  <property name="kdenlive:clipname">permission o...</property>
  <property name="xmldata">&lt;kdenlivetitle duration="125" LC_NUMERIC="C" width="1080" height="1920" out="124">
 &lt;item type="QGraphicsTextItem" z-index="0">
  &lt;position x="68" y="1177">
   &lt;transform>1,0,0,0,1,0,0,0,1&lt;/transform>
  &lt;/position>
  &lt;content line-spacing="0" shadow="0;#64000000;3;3;3" font-underline="0" box-height="166" font-outline-color="0,0,0,255" font="Cubano" letter-spacing="0" font-pixel-size="138" font-italic="0" typewriter="0;2;1;0;0" alignment="4" font-weight="50" font-outline="9" box-width="942.969" font-color="255,255,255,255">permission of&lt;/content>
 &lt;/item>
 &lt;startviewport rect="0,0,1080,1920"/>
 &lt;endviewport rect="0,0,1080,1920"/>
 &lt;background color="0,0,0,0"/>
&lt;/kdenlivetitle>
</property>
  <property name="kdenlive:folderid">21</property>
  <property name="kdenlive:id">78</property>
  <property name="kdenlive:clip_type">2</property>
  <property name="force_reload">0</property>
  <property name="meta.media.width">1080</property>
  <property name="meta.media.height">1920</property>
  <property name="kdenlive:file_hash">79b7aad93205eab36905162721a80708</property>
 </producer>
 <producer id="producer55" in="00:00:00.000" out="00:00:04.960">
  <property name="length">125</property>
  <property name="eof">pause</property>
  <property name="progressive">1</property>
  <property name="aspect_ratio">1</property>
  <property name="seekable">1</property>
  <property name="mlt_service">kdenlivetitle</property>
  <property name="kdenlive:duration">00:00:05:00</property>
  <property name="kdenlive:clipname">and for</property>
  <property name="xmldata">&lt;kdenlivetitle duration="125" LC_NUMERIC="C" width="1080" height="1920" out="124">
 &lt;item type="QGraphicsTextItem" z-index="0">
  &lt;position x="275" y="1177">
   &lt;transform>1,0,0,0,1,0,0,0,1&lt;/transform>
  &lt;/position>
  &lt;content line-spacing="0" shadow="0;#64000000;3;3;3" font-underline="0" box-height="166" font-outline-color="0,0,0,255" font="Cubano" letter-spacing="0" font-pixel-size="138" font-italic="0" typewriter="0;2;1;0;0" alignment="4" font-weight="50" font-outline="9" box-width="527.109" font-color="255,255,255,255">and for&lt;/content>
 &lt;/item>
 &lt;startviewport rect="0,0,1080,1920"/>
 &lt;endviewport rect="0,0,1080,1920"/>
 &lt;background color="0,0,0,0"/>
&lt;/kdenlivetitle>
</property>
  <property name="kdenlive:folderid">21</property>
  <property name="kdenlive:id">79</property>
  <property name="kdenlive:clip_type">2</property>
  <property name="force_reload">0</property>
  <property name="meta.media.width">1080</property>
  <property name="meta.media.height">1920</property>
  <property name="kdenlive:file_hash">117bcdb11914b04bcb2fe872944cd942</property>
 </producer>
 <producer id="producer56" in="00:00:00.000" out="00:00:04.960">
  <property name="length">125</property>
  <property name="eof">pause</property>
  <property name="progressive">1</property>
  <property name="aspect_ratio">1</property>
  <property name="seekable">1</property>
  <property name="mlt_service">kdenlivetitle</property>
  <property name="kdenlive:duration">00:00:05:00</property>
  <property name="kdenlive:clipname">the sake of</property>
  <property name="xmldata">&lt;kdenlivetitle duration="125" LC_NUMERIC="C" width="1080" height="1920" out="124">
 &lt;item type="QGraphicsTextItem" z-index="0">
  &lt;position x="139" y="1177">
   &lt;transform>1,0,0,0,1,0,0,0,1&lt;/transform>
  &lt;/position>
  &lt;content line-spacing="0" shadow="0;#64000000;3;3;3" font-underline="0" box-height="166" font-outline-color="0,0,0,255" font="Cubano" letter-spacing="0" font-pixel-size="138" font-italic="0" typewriter="0;2;1;0;0" alignment="4" font-weight="50" font-outline="9" box-width="802.109" font-color="255,255,255,255">the sake of&lt;/content>
 &lt;/item>
 &lt;startviewport rect="0,0,1080,1920"/>
 &lt;endviewport rect="0,0,1080,1920"/>
 &lt;background color="0,0,0,0"/>
&lt;/kdenlivetitle>
</property>
  <property name="kdenlive:folderid">21</property>
  <property name="kdenlive:id">80</property>
  <property name="kdenlive:clip_type">2</property>
  <property name="force_reload">0</property>
  <property name="meta.media.width">1080</property>
  <property name="meta.media.height">1920</property>
  <property name="kdenlive:file_hash">edb30d1e96a287ec49cbb03e50afe55c</property>
 </producer>
 <producer id="producer57" in="00:00:00.000" out="00:00:04.960">
  <property name="length">125</property>
  <property name="eof">pause</property>
  <property name="progressive">1</property>
  <property name="aspect_ratio">1</property>
  <property name="seekable">1</property>
  <property name="mlt_service">kdenlivetitle</property>
  <property name="kdenlive:duration">00:00:05:00</property>
  <property name="kdenlive:clipname">the collecti...</property>
  <property name="xmldata">&lt;kdenlivetitle duration="125" LC_NUMERIC="C" width="1080" height="1920" out="124">
 &lt;item type="QGraphicsTextItem" z-index="0">
  &lt;position x="34" y="1177">
   &lt;transform>1,0,0,0,1,0,0,0,1&lt;/transform>
  &lt;/position>
  &lt;content line-spacing="0" shadow="0;#64000000;3;3;3" font-underline="0" box-height="166" font-outline-color="0,0,0,255" font="Cubano" letter-spacing="0" font-pixel-size="138" font-italic="0" typewriter="0;2;1;0;0" alignment="4" font-weight="50" font-outline="9" box-width="1012.95" font-color="255,255,255,255">the collective&lt;/content>
 &lt;/item>
 &lt;startviewport rect="0,0,1080,1920"/>
 &lt;endviewport rect="0,0,1080,1920"/>
 &lt;background color="0,0,0,0"/>
&lt;/kdenlivetitle>
</property>
  <property name="kdenlive:folderid">21</property>
  <property name="kdenlive:id">81</property>
  <property name="kdenlive:clip_type">2</property>
  <property name="force_reload">0</property>
  <property name="meta.media.width">1080</property>
  <property name="meta.media.height">1920</property>
  <property name="kdenlive:file_hash">64360ba2de042d3d43f3a5d34705b004</property>
 </producer>
 <producer id="producer66" in="00:00:00.000" out="00:00:04.960">
  <property name="length">00:00:05.000</property>
  <property name="eof">pause</property>
  <property name="resource">images/brave new world.xcf</property>
  <property name="ttl">25</property>
  <property name="aspect_ratio">1</property>
  <property name="progressive">1</property>
  <property name="seekable">1</property>
  <property name="format">2</property>
  <property name="meta.media.width">809</property>
  <property name="meta.media.height">1201</property>
  <property name="mlt_service">qimage</property>
  <property name="kdenlive:clipname"/>
  <property name="kdenlive:duration">00:00:05:00</property>
  <property name="kdenlive:folderid">8</property>
  <property name="kdenlive:id">82</property>
  <property name="kdenlive:clip_type">2</property>
  <property name="kdenlive:file_size">1781037</property>
  <property name="kdenlive:file_hash">57f9d0e3694f7b4af53acb2f255de9c0</property>
 </producer>
 <producer id="producer1" in="00:00:00.000" out="00:00:08.040">
  <property name="length">202</property>
  <property name="eof">pause</property>
  <property name="resource">images/Scene_at_the_Signing_of_the_Constitution_of_the_United_States.jpg</property>
  <property name="ttl">25</property>
  <property name="aspect_ratio">1</property>
  <property name="progressive">1</property>
  <property name="seekable">1</property>
  <property name="format">1</property>
  <property name="meta.media.width">1280</property>
  <property name="meta.media.height">825</property>
  <property name="mlt_service">qimage</property>
  <property name="kdenlive:clipname"/>
  <property name="kdenlive:duration">00:00:05:00</property>
  <property name="kdenlive:folderid">8</property>
  <property name="kdenlive:id">83</property>
  <property name="kdenlive:clip_type">2</property>
  <property name="kdenlive:file_size">338276</property>
  <property name="kdenlive:file_hash">05c21a5fa7f2669d09f4b674379e5769</property>
 </producer>
 <producer id="producer71" in="00:00:00.000" out="00:00:04.960">
  <property name="length">125</property>
  <property name="eof">pause</property>
  <property name="progressive">1</property>
  <property name="aspect_ratio">1</property>
  <property name="seekable">1</property>
  <property name="mlt_service">kdenlivetitle</property>
  <property name="kdenlive:duration">00:00:05:00</property>
  <property name="kdenlive:clipname">to the</property>
  <property name="xmldata">&lt;kdenlivetitle duration="125" LC_NUMERIC="C" width="1080" height="1920" out="124">
 &lt;item type="QGraphicsTextItem" z-index="0">
  &lt;position x="320" y="1177">
   &lt;transform>1,0,0,0,1,0,0,0,1&lt;/transform>
  &lt;/position>
  &lt;content line-spacing="0" shadow="0;#64000000;3;3;3" font-underline="0" box-height="166" font-outline-color="0,0,0,255" font="Cubano" letter-spacing="0" font-pixel-size="138" font-italic="0" typewriter="0;2;1;0;0" alignment="4" font-weight="50" font-outline="9" box-width="443.359" font-color="255,255,255,255">to the&lt;/content>
 &lt;/item>
 &lt;startviewport rect="0,0,1080,1920"/>
 &lt;endviewport rect="0,0,1080,1920"/>
 &lt;background color="0,0,0,0"/>
&lt;/kdenlivetitle>
</property>
  <property name="kdenlive:folderid">21</property>
  <property name="kdenlive:id">84</property>
  <property name="kdenlive:clip_type">2</property>
  <property name="force_reload">0</property>
  <property name="meta.media.width">1080</property>
  <property name="meta.media.height">1920</property>
  <property name="kdenlive:file_hash">4779d6aecdbb7dffcaac7dcab6c7a861</property>
 </producer>
 <producer id="producer58" in="00:00:00.000" out="00:00:04.960">
  <property name="length">125</property>
  <property name="eof">pause</property>
  <property name="progressive">1</property>
  <property name="aspect_ratio">1</property>
  <property name="seekable">1</property>
  <property name="mlt_service">kdenlivetitle</property>
  <property name="kdenlive:duration">00:00:05:00</property>
  <property name="kdenlive:clipname">founders</property>
  <property name="xmldata">&lt;kdenlivetitle duration="125" LC_NUMERIC="C" width="1080" height="1920" out="124">
 &lt;item type="QGraphicsTextItem" z-index="0">
  &lt;position x="222" y="1177">
   &lt;transform>1,0,0,0,1,0,0,0,1&lt;/transform>
  &lt;/position>
  &lt;content line-spacing="0" shadow="0;#64000000;3;3;3" font-underline="0" box-height="166" font-outline-color="0,0,0,255" font="Cubano" letter-spacing="0" font-pixel-size="138" font-italic="0" typewriter="0;2;1;0;0" alignment="4" font-weight="50" font-outline="9" box-width="640.813" font-color="255,255,255,255">founders&lt;/content>
 &lt;/item>
 &lt;startviewport rect="0,0,1080,1920"/>
 &lt;endviewport rect="0,0,1080,1920"/>
 &lt;background color="0,0,0,0"/>
&lt;/kdenlivetitle>
</property>
  <property name="kdenlive:folderid">21</property>
  <property name="kdenlive:id">85</property>
  <property name="kdenlive:clip_type">2</property>
  <property name="force_reload">0</property>
  <property name="meta.media.width">1080</property>
  <property name="meta.media.height">1920</property>
  <property name="kdenlive:file_hash">d4f100c14191c01495a572886598a1fd</property>
 </producer>
 <producer id="producer59" in="00:00:00.000" out="00:00:04.960">
  <property name="length">125</property>
  <property name="eof">pause</property>
  <property name="progressive">1</property>
  <property name="aspect_ratio">1</property>
  <property name="seekable">1</property>
  <property name="mlt_service">kdenlivetitle</property>
  <property name="kdenlive:duration">00:00:05:00</property>
  <property name="kdenlive:clipname">each man</property>
  <property name="xmldata">&lt;kdenlivetitle duration="125" LC_NUMERIC="C" width="1080" height="1920" out="124">
 &lt;item type="QGraphicsTextItem" z-index="0">
  &lt;position x="224" y="1177">
   &lt;transform>1,0,0,0,1,0,0,0,1&lt;/transform>
  &lt;/position>
  &lt;content line-spacing="0" shadow="0;#64000000;3;3;3" font-underline="0" box-height="166" font-outline-color="0,0,0,255" font="Cubano" letter-spacing="0" font-pixel-size="138" font-italic="0" typewriter="0;2;1;0;0" alignment="4" font-weight="50" font-outline="9" box-width="634.859" font-color="255,255,255,255">each man&lt;/content>
 &lt;/item>
 &lt;startviewport rect="0,0,1080,1920"/>
 &lt;endviewport rect="0,0,1080,1920"/>
 &lt;background color="0,0,0,0"/>
&lt;/kdenlivetitle>
</property>
  <property name="kdenlive:folderid">21</property>
  <property name="kdenlive:id">86</property>
  <property name="kdenlive:clip_type">2</property>
  <property name="force_reload">0</property>
  <property name="meta.media.width">1080</property>
  <property name="meta.media.height">1920</property>
  <property name="kdenlive:file_hash">0b1bc17207cd5ff89fd73e84b47b6cb3</property>
 </producer>
 <producer id="producer60" in="00:00:00.000" out="00:00:04.960">
  <property name="length">125</property>
  <property name="eof">pause</property>
  <property name="progressive">1</property>
  <property name="aspect_ratio">1</property>
  <property name="seekable">1</property>
  <property name="mlt_service">kdenlivetitle</property>
  <property name="kdenlive:duration">00:00:05:00</property>
  <property name="kdenlive:clipname">holds</property>
  <property name="xmldata">&lt;kdenlivetitle duration="125" LC_NUMERIC="C" width="1080" height="1920" out="124">
 &lt;item type="QGraphicsTextItem" z-index="0">
  &lt;position x="344" y="1177">
   &lt;transform>1,0,0,0,1,0,0,0,1&lt;/transform>
  &lt;/position>
  &lt;content line-spacing="0" shadow="0;#64000000;3;3;3" font-underline="0" box-height="166" font-outline-color="0,0,0,255" font="Cubano" letter-spacing="0" font-pixel-size="138" font-italic="0" typewriter="0;2;1;0;0" alignment="4" font-weight="50" font-outline="9" box-width="395.203" font-color="255,255,255,255">holds&lt;/content>
 &lt;/item>
 &lt;startviewport rect="0,0,1080,1920"/>
 &lt;endviewport rect="0,0,1080,1920"/>
 &lt;background color="0,0,0,0"/>
&lt;/kdenlivetitle>
</property>
  <property name="kdenlive:folderid">21</property>
  <property name="kdenlive:id">87</property>
  <property name="kdenlive:clip_type">2</property>
  <property name="force_reload">0</property>
  <property name="meta.media.width">1080</property>
  <property name="meta.media.height">1920</property>
  <property name="kdenlive:file_hash">6f2a2b2482fed8cf9e2481d2fd71f010</property>
 </producer>
 <producer id="producer61" in="00:00:00.000" out="00:00:04.960">
  <property name="length">125</property>
  <property name="eof">pause</property>
  <property name="progressive">1</property>
  <property name="aspect_ratio">1</property>
  <property name="seekable">1</property>
  <property name="mlt_service">kdenlivetitle</property>
  <property name="kdenlive:duration">00:00:05:00</property>
  <property name="kdenlive:clipname">his</property>
  <property name="xmldata">&lt;kdenlivetitle duration="125" LC_NUMERIC="C" width="1080" height="1920" out="124">
 &lt;item type="QGraphicsTextItem" z-index="0">
  &lt;position x="441" y="1177">
   &lt;transform>1,0,0,0,1,0,0,0,1&lt;/transform>
  &lt;/position>
  &lt;content line-spacing="0" shadow="0;#64000000;3;3;3" font-underline="0" box-height="166" font-outline-color="0,0,0,255" font="Cubano" letter-spacing="0" font-pixel-size="138" font-italic="0" typewriter="0;2;1;0;0" alignment="4" font-weight="50" font-outline="9" box-width="198.969" font-color="255,255,255,255">his&lt;/content>
 &lt;/item>
 &lt;startviewport rect="0,0,1080,1920"/>
 &lt;endviewport rect="0,0,1080,1920"/>
 &lt;background color="0,0,0,0"/>
&lt;/kdenlivetitle>
</property>
  <property name="kdenlive:folderid">21</property>
  <property name="kdenlive:id">88</property>
  <property name="kdenlive:clip_type">2</property>
  <property name="force_reload">0</property>
  <property name="meta.media.width">1080</property>
  <property name="meta.media.height">1920</property>
  <property name="kdenlive:file_hash">47e0877656b81c04c9f569a7b95036cd</property>
 </producer>
 <producer id="producer62" in="00:00:00.000" out="00:00:04.960">
  <property name="length">125</property>
  <property name="eof">pause</property>
  <property name="progressive">1</property>
  <property name="aspect_ratio">1</property>
  <property name="seekable">1</property>
  <property name="mlt_service">kdenlivetitle</property>
  <property name="kdenlive:duration">00:00:05:00</property>
  <property name="kdenlive:clipname">rights</property>
  <property name="xmldata">&lt;kdenlivetitle duration="125" LC_NUMERIC="C" width="1080" height="1920" out="124">
 &lt;item type="QGraphicsTextItem" z-index="0">
  &lt;position x="322" y="1177">
   &lt;transform>1,0,0,0,1,0,0,0,1&lt;/transform>
  &lt;/position>
  &lt;content line-spacing="0" shadow="0;#64000000;3;3;3" font-underline="0" box-height="166" font-outline-color="0,0,0,255" font="Cubano" letter-spacing="0" font-pixel-size="138" font-italic="0" typewriter="0;2;1;0;0" alignment="4" font-weight="50" font-outline="9" box-width="438.375" font-color="255,255,255,255">rights&lt;/content>
 &lt;/item>
 &lt;startviewport rect="0,0,1080,1920"/>
 &lt;endviewport rect="0,0,1080,1920"/>
 &lt;background color="0,0,0,0"/>
&lt;/kdenlivetitle>
</property>
  <property name="kdenlive:folderid">21</property>
  <property name="kdenlive:id">89</property>
  <property name="kdenlive:clip_type">2</property>
  <property name="force_reload">0</property>
  <property name="meta.media.width">1080</property>
  <property name="meta.media.height">1920</property>
  <property name="kdenlive:file_hash">c2b093ae2c7d7c407b1133c58ea4e911</property>
 </producer>
 <producer id="producer63" in="00:00:00.000" out="00:00:04.960">
  <property name="length">125</property>
  <property name="eof">pause</property>
  <property name="progressive">1</property>
  <property name="aspect_ratio">1</property>
  <property name="seekable">1</property>
  <property name="mlt_service">kdenlivetitle</property>
  <property name="kdenlive:duration">00:00:05:00</property>
  <property name="kdenlive:clipname">against</property>
  <property name="xmldata">&lt;kdenlivetitle duration="125" LC_NUMERIC="C" width="1080" height="1920" out="124">
 &lt;item type="QGraphicsTextItem" z-index="0">
  &lt;position x="261" y="1177">
   &lt;transform>1,0,0,0,1,0,0,0,1&lt;/transform>
  &lt;/position>
  &lt;content line-spacing="0" shadow="0;#64000000;3;3;3" font-underline="0" box-height="166" font-outline-color="0,0,0,255" font="Cubano" letter-spacing="0" font-pixel-size="138" font-italic="1" typewriter="0;2;1;0;0" alignment="4" font-weight="50" font-outline="9" box-width="558.781" font-color="255,255,255,255">against&lt;/content>
 &lt;/item>
 &lt;startviewport rect="0,0,1080,1920"/>
 &lt;endviewport rect="0,0,1080,1920"/>
 &lt;background color="0,0,0,0"/>
&lt;/kdenlivetitle>
</property>
  <property name="kdenlive:folderid">21</property>
  <property name="kdenlive:id">90</property>
  <property name="kdenlive:clip_type">2</property>
  <property name="force_reload">0</property>
  <property name="meta.media.width">1080</property>
  <property name="meta.media.height">1920</property>
  <property name="kdenlive:file_hash">ded4c55832e95b4aac4e0cca06248683</property>
 </producer>
 <producer id="producer0" in="00:00:00.000" out="00:20:37.400">
  <property name="length">2147483647</property>
  <property name="eof">continue</property>
  <property name="resource">black</property>
  <property name="aspect_ratio">1</property>
  <property name="mlt_service">color</property>
  <property name="kdenlive:playlistid">black_track</property>
  <property name="mlt_image_format">rgba</property>
  <property name="set.test_audio">0</property>
 </producer>
 <chain id="chain0" out="00:00:10.200">
  <property name="length">256</property>
  <property name="eof">pause</property>
  <property name="resource">/home/liquidzulu/Music/sfx/Cinematic Eagle Cry Sound Effect [WSGFatM1ktU].mp3</property>
  <property name="mlt_service">avformat-novalidate</property>
  <property name="seekable">1</property>
  <property name="audio_index">0</property>
  <property name="video_index">-1</property>
  <property name="kdenlive:clipname"/>
  <property name="kdenlive:clip_type">1</property>
  <property name="kdenlive:folderid">-1</property>
  <property name="kdenlive:id">16</property>
  <property name="kdenlive:file_size">55053</property>
  <property name="kdenlive:file_hash">3a5011452f0259763e3bf856e17036bb</property>
  <property name="kdenlive:audio_max0">227</property>
  <property name="meta.media.nb_streams">1</property>
  <property name="meta.media.0.stream.type">audio</property>
  <property name="meta.media.0.codec.sample_fmt">fltp</property>
  <property name="meta.media.0.codec.sample_rate">48000</property>
  <property name="meta.media.0.codec.channels">2</property>
  <property name="meta.media.0.codec.name">mp3float</property>
  <property name="meta.media.0.codec.long_name">MP3 (MPEG audio layer 3)</property>
  <property name="meta.media.0.codec.bit_rate">43042</property>
  <property name="meta.attr.0.stream.encoder.markup">Lavc59.37</property>
  <property name="meta.attr.encoder.markup">Lavf59.27.100</property>
  <property name="xml">was here</property>
  <property name="set.test_audio">0</property>
  <property name="set.test_image">1</property>
  <property name="mute_on_pause">1</property>
 </chain>
 <playlist id="playlist0">
  <property name="kdenlive:audio_track">1</property>
  <blank length="00:00:02.360"/>
  <entry producer="chain0" in="00:00:00.600" out="00:00:02.800">
   <property name="kdenlive:id">16</property>
   <filter id="filter0">
    <property name="window">75</property>
    <property name="max_gain">20dB</property>
    <property name="level">00:00:00.600=-13</property>
    <property name="mlt_service">volume</property>
    <property name="kdenlive_id">volume</property>
    <property name="kdenlive:collapsed">0</property>
   </filter>
  </entry>
  <blank length="00:00:06.400"/>
  <entry producer="chain0" in="00:00:00.600" out="00:00:02.800">
   <property name="kdenlive:id">16</property>
   <filter id="filter1">
    <property name="window">75</property>
    <property name="max_gain">20dB</property>
    <property name="level">00:00:00.600=-13</property>
    <property name="mlt_service">volume</property>
    <property name="kdenlive_id">volume</property>
    <property name="kdenlive:collapsed">0</property>
   </filter>
  </entry>
  <blank length="00:00:04.160"/>
  <entry producer="chain0" in="00:00:00.600" out="00:00:02.800">
   <property name="kdenlive:id">16</property>
   <filter id="filter2">
    <property name="window">75</property>
    <property name="max_gain">20dB</property>
    <property name="level">00:00:00.600=-13</property>
    <property name="mlt_service">volume</property>
    <property name="kdenlive_id">volume</property>
    <property name="kdenlive:collapsed">0</property>
   </filter>
  </entry>
  <blank length="00:00:10.240"/>
  <entry producer="chain0" in="00:00:00.600" out="00:00:02.800">
   <property name="kdenlive:id">16</property>
   <filter id="filter3">
    <property name="window">75</property>
    <property name="max_gain">20dB</property>
    <property name="level">00:00:00.600=-13</property>
    <property name="mlt_service">volume</property>
    <property name="kdenlive_id">volume</property>
   </filter>
  </entry>
 </playlist>
 <playlist id="playlist1">
  <property name="kdenlive:audio_track">1</property>
 </playlist>
 <tractor id="tractor0" in="00:00:00.000" out="00:00:32.080">
  <property name="kdenlive:audio_track">1</property>
  <property name="kdenlive:trackheight">67</property>
  <property name="kdenlive:timeline_active">1</property>
  <property name="kdenlive:collapsed">28</property>
  <property name="kdenlive:thumbs_format"/>
  <property name="kdenlive:audio_rec"/>
  <track hide="video" producer="playlist0"/>
  <track hide="video" producer="playlist1"/>
  <filter id="filter4">
   <property name="window">75</property>
   <property name="max_gain">20dB</property>
   <property name="mlt_service">volume</property>
   <property name="internal_added">237</property>
   <property name="disable">1</property>
  </filter>
  <filter id="filter5">
   <property name="channel">-1</property>
   <property name="mlt_service">panner</property>
   <property name="internal_added">237</property>
   <property name="start">0.5</property>
   <property name="disable">1</property>
  </filter>
  <filter id="filter6">
   <property name="iec_scale">0</property>
   <property name="mlt_service">audiolevel</property>
   <property name="dbpeak">1</property>
   <property name="disable">1</property>
  </filter>
 </tractor>
 <chain id="chain1" out="00:02:07.000">
  <property name="length">3176</property>
  <property name="eof">pause</property>
  <property name="resource">/home/liquidzulu/Music/America, Fuck Yeah! Instrumental [Zexgc7CN3f8].mp3</property>
  <property name="mlt_service">avformat-novalidate</property>
  <property name="seekable">1</property>
  <property name="audio_index">0</property>
  <property name="video_index">-1</property>
  <property name="kdenlive:clipname"/>
  <property name="kdenlive:clip_type">1</property>
  <property name="kdenlive:folderid">10</property>
  <property name="kdenlive:id">6</property>
  <property name="kdenlive:file_size">2010429</property>
  <property name="kdenlive:file_hash">9e3be9f649e19ceaf09840a403aa341b</property>
  <property name="kdenlive:audio_max0">241</property>
  <property name="meta.media.nb_streams">1</property>
  <property name="meta.media.0.stream.type">audio</property>
  <property name="meta.media.0.codec.sample_fmt">fltp</property>
  <property name="meta.media.0.codec.sample_rate">48000</property>
  <property name="meta.media.0.codec.channels">2</property>
  <property name="meta.media.0.codec.name">mp3float</property>
  <property name="meta.media.0.codec.long_name">MP3 (MPEG audio layer 3)</property>
  <property name="meta.media.0.codec.bit_rate">126606</property>
  <property name="meta.attr.0.stream.encoder.markup">Lavc59.37</property>
  <property name="meta.attr.encoder.markup">Lavf59.27.100</property>
  <property name="xml">was here</property>
  <property name="set.test_audio">0</property>
  <property name="set.test_image">1</property>
  <property name="mute_on_pause">1</property>
 </chain>
 <playlist id="playlist2">
  <property name="kdenlive:audio_track">1</property>
  <entry producer="chain1" in="00:00:31.040" out="00:01:01.600">
   <property name="kdenlive:id">6</property>
   <filter id="filter7">
    <property name="window">75</property>
    <property name="max_gain">20dB</property>
    <property name="level">00:00:31.040=-20</property>
    <property name="mlt_service">volume</property>
    <property name="kdenlive_id">volume</property>
    <property name="kdenlive:collapsed">0</property>
   </filter>
   <filter id="filter8" in="00:01:01.080" out="00:01:01.600">
    <property name="window">75</property>
    <property name="max_gain">20dB</property>
    <property name="mlt_service">volume</property>
    <property name="kdenlive_id">fadeout</property>
    <property name="gain">1</property>
    <property name="end">0</property>
   </filter>
  </entry>
 </playlist>
 <playlist id="playlist3">
  <property name="kdenlive:audio_track">1</property>
 </playlist>
 <tractor id="tractor1" in="00:00:00.000" out="00:00:30.560">
  <property name="kdenlive:audio_track">1</property>
  <property name="kdenlive:trackheight">67</property>
  <property name="kdenlive:timeline_active">1</property>
  <property name="kdenlive:collapsed">0</property>
  <property name="kdenlive:thumbs_format"/>
  <property name="kdenlive:audio_rec"/>
  <track hide="video" producer="playlist2"/>
  <track hide="video" producer="playlist3"/>
  <filter id="filter9">
   <property name="window">75</property>
   <property name="max_gain">20dB</property>
   <property name="mlt_service">volume</property>
   <property name="internal_added">237</property>
   <property name="disable">1</property>
  </filter>
  <filter id="filter10">
   <property name="channel">-1</property>
   <property name="mlt_service">panner</property>
   <property name="internal_added">237</property>
   <property name="start">0.5</property>
   <property name="disable">1</property>
  </filter>
  <filter id="filter11">
   <property name="iec_scale">0</property>
   <property name="mlt_service">audiolevel</property>
   <property name="dbpeak">1</property>
   <property name="disable">1</property>
  </filter>
 </tractor>
 <chain id="chain2" out="00:02:07.000">
  <property name="length">3176</property>
  <property name="eof">pause</property>
  <property name="resource">/home/liquidzulu/Music/America, Fuck Yeah! Instrumental [Zexgc7CN3f8].mp3</property>
  <property name="mlt_service">avformat-novalidate</property>
  <property name="seekable">1</property>
  <property name="audio_index">0</property>
  <property name="video_index">-1</property>
  <property name="kdenlive:clipname"/>
  <property name="kdenlive:clip_type">1</property>
  <property name="kdenlive:folderid">-1</property>
  <property name="kdenlive:id">6</property>
  <property name="kdenlive:file_size">2010429</property>
  <property name="kdenlive:file_hash">9e3be9f649e19ceaf09840a403aa341b</property>
  <property name="kdenlive:audio_max0">241</property>
  <property name="meta.media.nb_streams">1</property>
  <property name="meta.media.0.stream.type">audio</property>
  <property name="meta.media.0.codec.sample_fmt">fltp</property>
  <property name="meta.media.0.codec.sample_rate">48000</property>
  <property name="meta.media.0.codec.channels">2</property>
  <property name="meta.media.0.codec.name">mp3float</property>
  <property name="meta.media.0.codec.long_name">MP3 (MPEG audio layer 3)</property>
  <property name="meta.media.0.codec.bit_rate">126606</property>
  <property name="meta.attr.0.stream.encoder.markup">Lavc59.37</property>
  <property name="meta.attr.encoder.markup">Lavf59.27.100</property>
  <property name="xml">was here</property>
  <property name="set.test_audio">0</property>
  <property name="set.test_image">1</property>
  <property name="mute_on_pause">1</property>
 </chain>
 <playlist id="playlist4">
  <property name="kdenlive:audio_track">1</property>
  <blank length="00:00:30.080"/>
  <entry producer="chain2" in="00:00:23.720" out="00:00:31.000">
   <property name="kdenlive:id">6</property>
   <filter id="filter12">
    <property name="window">75</property>
    <property name="max_gain">20dB</property>
    <property name="level">00:00:23.720=-20</property>
    <property name="mlt_service">volume</property>
    <property name="kdenlive_id">volume</property>
    <property name="kdenlive:collapsed">0</property>
   </filter>
   <filter id="filter13" in="00:00:23.720" out="00:00:24.240">
    <property name="window">75</property>
    <property name="max_gain">20dB</property>
    <property name="mlt_service">volume</property>
    <property name="kdenlive_id">fadein</property>
    <property name="gain">0</property>
    <property name="end">1</property>
    <property name="kdenlive:collapsed">0</property>
   </filter>
  </entry>
 </playlist>
 <playlist id="playlist5">
  <property name="kdenlive:audio_track">1</property>
 </playlist>
 <tractor id="tractor2" in="00:00:00.000" out="00:00:37.360">
  <property name="kdenlive:audio_track">1</property>
  <property name="kdenlive:trackheight">67</property>
  <property name="kdenlive:timeline_active">1</property>
  <property name="kdenlive:collapsed">28</property>
  <property name="kdenlive:thumbs_format"/>
  <property name="kdenlive:audio_rec"/>
  <track hide="video" producer="playlist4"/>
  <track hide="video" producer="playlist5"/>
  <filter id="filter14">
   <property name="window">75</property>
   <property name="max_gain">20dB</property>
   <property name="mlt_service">volume</property>
   <property name="internal_added">237</property>
   <property name="disable">1</property>
  </filter>
  <filter id="filter15">
   <property name="channel">-1</property>
   <property name="mlt_service">panner</property>
   <property name="internal_added">237</property>
   <property name="start">0.5</property>
   <property name="disable">1</property>
  </filter>
  <filter id="filter16">
   <property name="iec_scale">0</property>
   <property name="mlt_service">audiolevel</property>
   <property name="dbpeak">1</property>
   <property name="disable">1</property>
  </filter>
 </tractor>
 <chain id="chain3" out="00:00:37.360">
  <property name="length">935</property>
  <property name="eof">pause</property>
  <property name="resource">proc.mp3</property>
  <property name="mlt_service">avformat-novalidate</property>
  <property name="seekable">1</property>
  <property name="audio_index">0</property>
  <property name="video_index">-1</property>
  <property name="kdenlive:clipname"/>
  <property name="kdenlive:clip_type">1</property>
  <property name="kdenlive:folderid">-1</property>
  <property name="kdenlive:id">4</property>
  <property name="kdenlive:file_size">897205</property>
  <property name="kdenlive:file_hash">2e4ce546d1d65ec00e775694bf0e2e2c</property>
  <property name="kdenlive:audio_max0">184</property>
  <property name="meta.media.nb_streams">1</property>
  <property name="meta.media.0.stream.type">audio</property>
  <property name="meta.media.0.codec.sample_fmt">fltp</property>
  <property name="meta.media.0.codec.sample_rate">44100</property>
  <property name="meta.media.0.codec.channels">2</property>
  <property name="meta.media.0.codec.name">mp3float</property>
  <property name="meta.media.0.codec.long_name">MP3 (MPEG audio layer 3)</property>
  <property name="meta.media.0.codec.bit_rate">192000</property>
  <property name="meta.attr.encoded_by.markup">LAME in FL Studio 21</property>
  <property name="meta.attr.date.markup">2023</property>
  <property name="xml">was here</property>
  <property name="set.test_audio">0</property>
  <property name="set.test_image">1</property>
  <property name="mute_on_pause">1</property>
 </chain>
 <playlist id="playlist6">
  <property name="kdenlive:audio_track">1</property>
  <entry producer="chain3" in="00:00:00.000" out="00:00:37.360">
   <property name="kdenlive:id">4</property>
  </entry>
 </playlist>
 <playlist id="playlist7">
  <property name="kdenlive:audio_track">1</property>
 </playlist>
 <tractor id="tractor3" in="00:00:00.000" out="00:00:37.360">
  <property name="kdenlive:audio_track">1</property>
  <property name="kdenlive:trackheight">67</property>
  <property name="kdenlive:timeline_active">1</property>
  <property name="kdenlive:collapsed">28</property>
  <property name="kdenlive:thumbs_format"/>
  <property name="kdenlive:audio_rec"/>
  <track hide="video" producer="playlist6"/>
  <track hide="video" producer="playlist7"/>
  <filter id="filter17">
   <property name="window">75</property>
   <property name="max_gain">20dB</property>
   <property name="mlt_service">volume</property>
   <property name="internal_added">237</property>
   <property name="disable">1</property>
  </filter>
  <filter id="filter18">
   <property name="channel">-1</property>
   <property name="mlt_service">panner</property>
   <property name="internal_added">237</property>
   <property name="start">0.5</property>
   <property name="disable">1</property>
  </filter>
  <filter id="filter19">
   <property name="iec_scale">0</property>
   <property name="mlt_service">audiolevel</property>
   <property name="dbpeak">1</property>
   <property name="disable">1</property>
  </filter>
 </tractor>
 <playlist id="playlist8">
  <entry producer="producer1" in="00:00:00.000" out="00:00:00.640">
   <property name="kdenlive:id">83</property>
   <filter id="filter20">
    <property name="rotate_center">1</property>
    <property name="mlt_service">qtblend</property>
    <property name="kdenlive_id">qtblend</property>
    <property name="rect">00:00:00.000=-1026 -1765 3069 5456 1.000000;00:00:00.640=-970 -1765 3069 5456 1.000000</property>
    <property name="rotation">00:00:00.000=0;00:00:00.640=0</property>
    <property name="compositing">0</property>
    <property name="distort">0</property>
    <property name="kdenlive:collapsed">0</property>
   </filter>
   <filter id="filter21" in="00:00:00.360" out="00:00:00.640">
    <property name="start">1</property>
    <property name="level">1</property>
    <property name="mlt_service">brightness</property>
    <property name="kdenlive_id">fade_to_black</property>
    <property name="alpha">0=1;-1=0</property>
   </filter>
  </entry>
  <blank length="00:00:02.160"/>
  <entry producer="producer2" in="00:00:00.000" out="00:00:08.440">
   <property name="kdenlive:id">19</property>
   <filter id="filter22">
    <property name="rotate_center">1</property>
    <property name="mlt_service">qtblend</property>
    <property name="kdenlive_id">qtblend</property>
    <property name="rect">00:00:00.000=-781 -2185 3546 6304 1.000000;00:00:08.440=-1162 -2185 3546 6304 1.000000</property>
    <property name="rotation">00:00:00.000=0;00:00:08.440=0</property>
    <property name="compositing">0</property>
    <property name="distort">0</property>
    <property name="kdenlive:collapsed">0</property>
   </filter>
   <filter id="filter23">
    <property name="mode">alpha</property>
    <property name="alpha_operation">clear</property>
    <property name="invert">0</property>
    <property name="feather">0</property>
    <property name="feather_passes">1</property>
    <property name="mlt_service">rotoscoping</property>
    <property name="kdenlive_id">rotoscoping</property>
    <property name="spline">{
    "000": [
        [
            [
                -0.032636262513904335,
                -0.02297167008766202
            ],
            [
                -0.04252873563218391,
                -0.07155173917446109
            ],
            [
                0.06069707081942902,
                -0.04979947331343407
            ]
        ],
        [
            [
                0.35539488320355933,
                -0.07002814235417545
            ],
            [
                0.4586206896551724,
                -0.04827587649314819
            ],
            [
                0.5166852057842045,
                -0.04827587649314819
            ]
        ],
        [
            [
                0.570671116054876,
                -0.05344829042232883
            ],
            [
                0.628735632183908,
                -0.05344829042232883
            ],
            [
                0.7083055246570267,
                -0.08668091882112049
            ]
        ],
        [
            [
                1.0457174638487217,
                -0.02280186898812805
            ],
            [
                1.125287356321839,
                -0.05603449738691915
            ],
            [
                1.151093807934743,
                -0.0003245192554441223
            ]
        ],
        [
            [
                1.1516129032258065,
                1.00984897597001
            ],
            [
                1.1774193548387095,
                1.0655589541014854
            ],
            [
                0.9206451612903226,
                1.0699094075945736
            ]
        ],
        [
            [
                0.1503225806451613,
                1.0829607680738387
            ],
            [
                -0.1064516129032258,
                1.0873112215669272
            ],
            [
                -0.11634408602150538,
                1.0387311524801277
            ]
        ]
    ]
}
</property>
    <property name="kdenlive:collapsed">0</property>
   </filter>
  </entry>
  <entry producer="producer3" in="00:00:00.000" out="00:00:06.520">
   <property name="kdenlive:id">39</property>
   <filter id="filter24">
    <property name="rotate_center">1</property>
    <property name="mlt_service">qtblend</property>
    <property name="kdenlive_id">qtblend</property>
    <property name="rect">00:00:00.000=-1401 -2007 3339 5937 1.000000;00:00:06.520=-1950 -2007 3339 5937 1.000000</property>
    <property name="rotation">00:00:00.000=0;00:00:06.520=0</property>
    <property name="compositing">0</property>
    <property name="distort">0</property>
    <property name="kdenlive:collapsed">0</property>
   </filter>
  </entry>
  <entry producer="producer4" in="00:00:00.000" out="00:00:12.480">
   <property name="kdenlive:id">52</property>
   <filter id="filter25">
    <property name="rotate_center">1</property>
    <property name="mlt_service">qtblend</property>
    <property name="kdenlive_id">qtblend</property>
    <property name="rect">00:00:00.000=-137 -250 1356 2413 1.000000;00:00:12.480=-266 -607 1616 2872 1.000000</property>
    <property name="rotation">00:00:00.000=0;00:00:12.480=0</property>
    <property name="compositing">0</property>
    <property name="distort">0</property>
    <property name="kdenlive:collapsed">0</property>
   </filter>
  </entry>
  <entry producer="producer1" in="00:00:00.000" out="00:00:06.960">
   <property name="kdenlive:id">83</property>
   <filter id="filter26">
    <property name="rotate_center">1</property>
    <property name="mlt_service">qtblend</property>
    <property name="kdenlive_id">qtblend</property>
    <property name="rect">00:00:00.000=-1648 -1765 3069 5456 1.000000;00:00:06.960=-1030 -1765 3069 5456 1.000000;00:00:07.640=-970 -1765 3069 5456 1.000000</property>
    <property name="rotation">00:00:00.000=0;00:00:06.960=0;00:00:07.640=0</property>
    <property name="compositing">0</property>
    <property name="distort">0</property>
    <property name="kdenlive:collapsed">0</property>
   </filter>
  </entry>
 </playlist>
 <playlist id="playlist9"/>
 <tractor id="tractor4" in="00:00:00.000" out="00:00:37.360">
  <property name="kdenlive:trackheight">67</property>
  <property name="kdenlive:timeline_active">1</property>
  <property name="kdenlive:collapsed">0</property>
  <property name="kdenlive:thumbs_format"/>
  <property name="kdenlive:audio_rec"/>
  <track hide="audio" producer="playlist8"/>
  <track hide="audio" producer="playlist9"/>
 </tractor>
 <chain id="chain4" out="00:00:13.320">
  <property name="length">334</property>
  <property name="eof">pause</property>
  <property name="resource">/home/liquidzulu/Videos/yt/b-roll/USA Flag Waving [dx7CNovrg-A].webm</property>
  <property name="mlt_service">avformat-novalidate</property>
  <property name="seekable">1</property>
  <property name="format">3</property>
  <property name="audio_index">1</property>
  <property name="video_index">0</property>
  <property name="kdenlive:clipname"/>
  <property name="kdenlive:clip_type">0</property>
  <property name="kdenlive:folderid">-1</property>
  <property name="kdenlive:id">5</property>
  <property name="kdenlive:file_size">1109075</property>
  <property name="kdenlive:file_hash">8493e95dd605e57476ac6a280219718f</property>
  <property name="kdenlive:audio_max1">1</property>
  <property name="meta.media.nb_streams">2</property>
  <property name="meta.media.0.stream.type">video</property>
  <property name="meta.media.0.stream.frame_rate">29.97</property>
  <property name="meta.media.0.stream.sample_aspect_ratio">1</property>
  <property name="meta.media.0.codec.width">1280</property>
  <property name="meta.media.0.codec.height">720</property>
  <property name="meta.media.0.codec.rotate">0</property>
  <property name="meta.media.0.codec.pix_fmt">yuv420p</property>
  <property name="meta.media.0.codec.sample_aspect_ratio">0</property>
  <property name="meta.media.0.codec.colorspace">709</property>
  <property name="meta.media.0.codec.color_trc">1</property>
  <property name="meta.media.0.codec.name">vp9</property>
  <property name="meta.media.0.codec.long_name">Google VP9</property>
  <property name="meta.media.0.codec.bit_rate">0</property>
  <property name="meta.attr.0.stream.language.markup">eng</property>
  <property name="meta.attr.0.stream.DURATION.markup">00:00:13.346000000</property>
  <property name="meta.media.1.stream.type">audio</property>
  <property name="meta.media.1.codec.sample_fmt">fltp</property>
  <property name="meta.media.1.codec.sample_rate">48000</property>
  <property name="meta.media.1.codec.channels">2</property>
  <property name="meta.media.1.codec.name">opus</property>
  <property name="meta.media.1.codec.long_name">Opus</property>
  <property name="meta.media.1.codec.bit_rate">0</property>
  <property name="meta.attr.1.stream.language.markup">eng</property>
  <property name="meta.attr.1.stream.DURATION.markup">00:00:13.361000000</property>
  <property name="meta.attr.ENCODER.markup">Lavf59.27.100</property>
  <property name="meta.media.sample_aspect_num">1</property>
  <property name="meta.media.sample_aspect_den">1</property>
  <property name="meta.media.frame_rate_num">30000</property>
  <property name="meta.media.frame_rate_den">1001</property>
  <property name="meta.media.colorspace">709</property>
  <property name="meta.media.color_trc">1</property>
  <property name="meta.media.has_b_frames">0</property>
  <property name="meta.media.width">1280</property>
  <property name="meta.media.height">720</property>
  <property name="meta.media.color_range">mpeg</property>
  <property name="xml">was here</property>
  <property name="meta.media.top_field_first">0</property>
  <property name="meta.media.progressive">1</property>
  <property name="set.test_audio">1</property>
  <property name="set.test_image">0</property>
  <property name="mute_on_pause">1</property>
 </chain>
 <producer id="producer19" in="00:00:00.000" out="00:15:05.120">
  <property name="length">22629</property>
  <property name="eof">pause</property>
  <property name="resource">2.000000:/home/liquidzulu/Videos/yt/b-roll/New York City Macy's 4th of July Fireworks 2023 - Biggest Independence Day Fireworks in USA [ilpKK8mU7Qc].webm</property>
  <property name="aspect_ratio">1</property>
  <property name="meta.media.nb_streams">2</property>
  <property name="meta.media.0.stream.type">video</property>
  <property name="meta.media.0.stream.frame_rate">29.949</property>
  <property name="meta.media.0.stream.sample_aspect_ratio">1</property>
  <property name="meta.media.0.codec.width">3840</property>
  <property name="meta.media.0.codec.height">2160</property>
  <property name="meta.media.0.codec.rotate">0</property>
  <property name="meta.media.0.codec.pix_fmt">yuv420p10le</property>
  <property name="meta.media.0.codec.sample_aspect_ratio">0</property>
  <property name="meta.media.0.codec.colorspace">9</property>
  <property name="meta.media.0.codec.color_trc">18</property>
  <property name="meta.media.0.codec.name">vp9</property>
  <property name="meta.media.0.codec.long_name">Google VP9</property>
  <property name="meta.media.0.codec.bit_rate">0</property>
  <property name="meta.attr.0.stream.language.markup">eng</property>
  <property name="meta.attr.0.stream.DURATION.markup">00:30:10.269000000</property>
  <property name="meta.media.1.stream.type">audio</property>
  <property name="meta.media.1.codec.sample_fmt">fltp</property>
  <property name="meta.media.1.codec.sample_rate">48000</property>
  <property name="meta.media.1.codec.channels">2</property>
  <property name="meta.media.1.codec.name">opus</property>
  <property name="meta.media.1.codec.long_name">Opus</property>
  <property name="meta.media.1.codec.bit_rate">0</property>
  <property name="meta.attr.1.stream.language.markup">eng</property>
  <property name="meta.attr.1.stream.DURATION.markup">00:30:10.321000000</property>
  <property name="meta.attr.ENCODER.markup">Lavf59.27.100</property>
  <property name="seekable">1</property>
  <property name="meta.media.sample_aspect_num">1</property>
  <property name="meta.media.sample_aspect_den">1</property>
  <property name="format">3</property>
  <property name="audio_index">-1</property>
  <property name="video_index">0</property>
  <property name="mute_on_pause">1</property>
  <property name="warp_speed">2</property>
  <property name="warp_resource">/home/liquidzulu/Videos/yt/b-roll/New York City Macy's 4th of July Fireworks 2023 - Biggest Independence Day Fireworks in USA [ilpKK8mU7Qc].webm</property>
  <property name="mlt_service">timewarp</property>
  <property name="set.test_audio">1</property>
  <property name="set.test_image">0</property>
  <property name="kdenlive:id">37</property>
  <property name="warp_pitch">0</property>
  <property name="meta.media.frame_rate_num">29949</property>
  <property name="meta.media.frame_rate_den">1000</property>
  <property name="meta.media.colorspace">709</property>
  <property name="meta.media.color_trc">18</property>
  <property name="meta.media.has_b_frames">0</property>
  <property name="meta.media.width">3840</property>
  <property name="meta.media.height">2160</property>
  <property name="meta.media.color_range">mpeg</property>
  <property name="meta.media.top_field_first">0</property>
  <property name="meta.media.progressive">1</property>
 </producer>
 <producer id="producer78" in="00:00:00.000" out="00:00:04.960">
  <property name="length">125</property>
  <property name="eof">pause</property>
  <property name="progressive">1</property>
  <property name="aspect_ratio">1</property>
  <property name="seekable">1</property>
  <property name="mlt_service">kdenlivetitle</property>
  <property name="kdenlive:duration">00:00:05:00</property>
  <property name="kdenlive:clipname">they</property>
  <property name="xmldata">&lt;kdenlivetitle duration="125" LC_NUMERIC="C" width="1080" height="1920" out="124">
 &lt;item type="QGraphicsTextItem" z-index="0">
  &lt;position x="380" y="1177">
   &lt;transform>1,0,0,0,1,0,0,0,1&lt;/transform>
  &lt;/position>
  &lt;content line-spacing="0" shadow="0;#64000000;3;3;3" font-underline="0" box-height="166" font-outline-color="0,0,0,255" font="Cubano" letter-spacing="0" font-pixel-size="138" font-italic="0" typewriter="0;2;1;0;0" alignment="4" font-weight="50" font-outline="9" box-width="324.281" font-color="255,255,255,255">they&lt;/content>
 &lt;/item>
 &lt;startviewport rect="0,0,1080,1920"/>
 &lt;endviewport rect="0,0,1080,1920"/>
 &lt;background color="0,0,0,0"/>
&lt;/kdenlivetitle>
</property>
  <property name="kdenlive:folderid">21</property>
  <property name="kdenlive:id">91</property>
  <property name="kdenlive:clip_type">2</property>
  <property name="force_reload">0</property>
  <property name="meta.media.width">1080</property>
  <property name="meta.media.height">1920</property>
 </producer>
 <producer id="producer79" in="00:00:00.000" out="00:00:04.960">
  <property name="length">125</property>
  <property name="eof">pause</property>
  <property name="progressive">1</property>
  <property name="aspect_ratio">1</property>
  <property name="seekable">1</property>
  <property name="mlt_service">kdenlivetitle</property>
  <property name="kdenlive:duration">00:00:05:00</property>
  <property name="kdenlive:clipname">recognised</property>
  <property name="xmldata">&lt;kdenlivetitle duration="125" LC_NUMERIC="C" width="1080" height="1920" out="124">
 &lt;item type="QGraphicsTextItem" z-index="0">
  &lt;position x="163" y="1177">
   &lt;transform>1,0,0,0,1,0,0,0,1&lt;/transform>
  &lt;/position>
  &lt;content line-spacing="0" shadow="0;#64000000;3;3;3" font-underline="0" box-height="166" font-outline-color="0,0,0,255" font="Cubano" letter-spacing="0" font-pixel-size="138" font-italic="0" typewriter="0;2;1;0;0" alignment="4" font-weight="50" font-outline="9" box-width="758.359" font-color="255,255,255,255">recognised&lt;/content>
 &lt;/item>
 &lt;startviewport rect="0,0,1080,1920"/>
 &lt;endviewport rect="0,0,1080,1920"/>
 &lt;background color="0,0,0,0"/>
&lt;/kdenlivetitle>
</property>
  <property name="kdenlive:folderid">21</property>
  <property name="kdenlive:id">92</property>
  <property name="kdenlive:clip_type">2</property>
  <property name="force_reload">0</property>
  <property name="meta.media.width">1080</property>
  <property name="meta.media.height">1920</property>
 </producer>
 <producer id="producer80" in="00:00:00.000" out="00:00:04.960">
  <property name="length">125</property>
  <property name="eof">pause</property>
  <property name="progressive">1</property>
  <property name="aspect_ratio">1</property>
  <property name="seekable">1</property>
  <property name="mlt_service">kdenlivetitle</property>
  <property name="kdenlive:duration">00:00:05:00</property>
  <property name="kdenlive:clipname">this is</property>
  <property name="xmldata">&lt;kdenlivetitle duration="125" LC_NUMERIC="C" width="1080" height="1920" out="124">
 &lt;item type="QGraphicsTextItem" z-index="0">
  &lt;position x="322" y="1177">
   &lt;transform>1,0,0,0,1,0,0,0,1&lt;/transform>
  &lt;/position>
  &lt;content line-spacing="0" shadow="0;#64000000;3;3;3" font-underline="0" box-height="166" font-outline-color="0,0,0,255" font="Cubano" letter-spacing="0" font-pixel-size="138" font-italic="0" typewriter="0;2;1;0;0" alignment="4" font-weight="50" font-outline="9" box-width="438.219" font-color="255,255,255,255">this is&lt;/content>
 &lt;/item>
 &lt;startviewport rect="0,0,1080,1920"/>
 &lt;endviewport rect="0,0,1080,1920"/>
 &lt;background color="0,0,0,0"/>
&lt;/kdenlivetitle>
</property>
  <property name="kdenlive:folderid">21</property>
  <property name="kdenlive:id">93</property>
  <property name="kdenlive:clip_type">2</property>
  <property name="force_reload">0</property>
  <property name="meta.media.width">1080</property>
  <property name="meta.media.height">1920</property>
 </producer>
 <producer id="producer81" in="00:00:00.000" out="00:00:04.960">
  <property name="length">125</property>
  <property name="eof">pause</property>
  <property name="progressive">1</property>
  <property name="aspect_ratio">1</property>
  <property name="seekable">1</property>
  <property name="mlt_service">kdenlivetitle</property>
  <property name="kdenlive:duration">00:00:05:00</property>
  <property name="kdenlive:clipname">necessary</property>
  <property name="xmldata">&lt;kdenlivetitle duration="125" LC_NUMERIC="C" width="1080" height="1920" out="124">
 &lt;item type="QGraphicsTextItem" z-index="0">
  &lt;position x="187" y="1177">
   &lt;transform>1,0,0,0,1,0,0,0,1&lt;/transform>
  &lt;/position>
  &lt;content line-spacing="0" shadow="0;#64000000;3;3;3" font-underline="0" box-height="166" font-outline-color="0,0,0,255" font="Cubano" letter-spacing="0" font-pixel-size="138" font-italic="0" typewriter="0;2;1;0;0" alignment="4" font-weight="50" font-outline="9" box-width="711.156" font-color="255,255,255,255">necessary&lt;/content>
 &lt;/item>
 &lt;startviewport rect="0,0,1080,1920"/>
 &lt;endviewport rect="0,0,1080,1920"/>
 &lt;background color="0,0,0,0"/>
&lt;/kdenlivetitle>
</property>
  <property name="kdenlive:folderid">21</property>
  <property name="kdenlive:id">94</property>
  <property name="kdenlive:clip_type">2</property>
  <property name="force_reload">0</property>
  <property name="meta.media.width">1080</property>
  <property name="meta.media.height">1920</property>
 </producer>
 <producer id="producer82" in="00:00:00.000" out="00:00:04.960">
  <property name="length">125</property>
  <property name="eof">pause</property>
  <property name="progressive">1</property>
  <property name="aspect_ratio">1</property>
  <property name="seekable">1</property>
  <property name="mlt_service">kdenlivetitle</property>
  <property name="kdenlive:duration">00:00:05:00</property>
  <property name="kdenlive:clipname">for a just</property>
  <property name="xmldata">&lt;kdenlivetitle duration="125" LC_NUMERIC="C" width="1080" height="1920" out="124">
 &lt;item type="QGraphicsTextItem" z-index="0">
  &lt;position x="183" y="1177">
   &lt;transform>1,0,0,0,1,0,0,0,1&lt;/transform>
  &lt;/position>
  &lt;content line-spacing="0" shadow="0;#64000000;3;3;3" font-underline="0" box-height="166" font-outline-color="0,0,0,255" font="Cubano" letter-spacing="0" font-pixel-size="138" font-italic="0" typewriter="0;2;1;0;0" alignment="4" font-weight="50" font-outline="9" box-width="716.828" font-color="255,255,255,255">for a just&lt;/content>
 &lt;/item>
 &lt;startviewport rect="0,0,1080,1920"/>
 &lt;endviewport rect="0,0,1080,1920"/>
 &lt;background color="0,0,0,0"/>
&lt;/kdenlivetitle>
</property>
  <property name="kdenlive:folderid">21</property>
  <property name="kdenlive:id">95</property>
  <property name="kdenlive:clip_type">2</property>
  <property name="force_reload">0</property>
  <property name="meta.media.width">1080</property>
  <property name="meta.media.height">1920</property>
 </producer>
 <producer id="producer83" in="00:00:00.000" out="00:00:04.960">
  <property name="length">125</property>
  <property name="eof">pause</property>
  <property name="progressive">1</property>
  <property name="aspect_ratio">1</property>
  <property name="seekable">1</property>
  <property name="mlt_service">kdenlivetitle</property>
  <property name="kdenlive:duration">00:00:05:00</property>
  <property name="kdenlive:clipname">and</property>
  <property name="xmldata">&lt;kdenlivetitle duration="125" LC_NUMERIC="C" width="1080" height="1920" out="124">
 &lt;item type="QGraphicsTextItem" z-index="0">
  &lt;position x="418" y="1177">
   &lt;transform>1,0,0,0,1,0,0,0,1&lt;/transform>
  &lt;/position>
  &lt;content line-spacing="0" shadow="0;#64000000;3;3;3" font-underline="0" box-height="166" font-outline-color="0,0,0,255" font="Cubano" letter-spacing="0" font-pixel-size="138" font-italic="0" typewriter="0;2;1;0;0" alignment="4" font-weight="50" font-outline="9" box-width="249.063" font-color="255,255,255,255">and&lt;/content>
 &lt;/item>
 &lt;startviewport rect="0,0,1080,1920"/>
 &lt;endviewport rect="0,0,1080,1920"/>
 &lt;background color="0,0,0,0"/>
&lt;/kdenlivetitle>
</property>
  <property name="kdenlive:folderid">21</property>
  <property name="kdenlive:id">96</property>
  <property name="kdenlive:clip_type">2</property>
  <property name="force_reload">0</property>
  <property name="meta.media.width">1080</property>
  <property name="meta.media.height">1920</property>
 </producer>
 <producer id="producer84" in="00:00:00.000" out="00:00:04.960">
  <property name="length">125</property>
  <property name="eof">pause</property>
  <property name="progressive">1</property>
  <property name="aspect_ratio">1</property>
  <property name="seekable">1</property>
  <property name="mlt_service">kdenlivetitle</property>
  <property name="kdenlive:duration">00:00:05:00</property>
  <property name="kdenlive:clipname">prosperous</property>
  <property name="xmldata">&lt;kdenlivetitle duration="125" LC_NUMERIC="C" width="1080" height="1920" out="124">
 &lt;item type="QGraphicsTextItem" z-index="0">
  &lt;position x="146" y="1177">
   &lt;transform>1,0,0,0,1,0,0,0,1&lt;/transform>
  &lt;/position>
  &lt;content line-spacing="0" shadow="0;#64000000;3;3;3" font-underline="0" box-height="166" font-outline-color="0,0,0,255" font="Cubano" letter-spacing="0" font-pixel-size="138" font-italic="0" typewriter="0;2;1;0;0" alignment="4" font-weight="50" font-outline="9" box-width="795.484" font-color="255,255,255,255">prosperous&lt;/content>
 &lt;/item>
 &lt;startviewport rect="0,0,1080,1920"/>
 &lt;endviewport rect="0,0,1080,1920"/>
 &lt;background color="0,0,0,0"/>
&lt;/kdenlivetitle>
</property>
  <property name="kdenlive:folderid">21</property>
  <property name="kdenlive:id">97</property>
  <property name="kdenlive:clip_type">2</property>
  <property name="force_reload">0</property>
  <property name="meta.media.width">1080</property>
  <property name="meta.media.height">1920</property>
 </producer>
 <producer id="producer85" in="00:00:00.000" out="00:00:04.960">
  <property name="length">125</property>
  <property name="eof">pause</property>
  <property name="progressive">1</property>
  <property name="aspect_ratio">1</property>
  <property name="seekable">1</property>
  <property name="mlt_service">kdenlivetitle</property>
  <property name="kdenlive:duration">00:00:05:00</property>
  <property name="kdenlive:clipname">hence why</property>
  <property name="xmldata">&lt;kdenlivetitle duration="125" LC_NUMERIC="C" width="1080" height="1920" out="124">
 &lt;item type="QGraphicsTextItem" z-index="0">
  &lt;position x="182" y="1177">
   &lt;transform>1,0,0,0,1,0,0,0,1&lt;/transform>
  &lt;/position>
  &lt;content line-spacing="0" shadow="0;#64000000;3;3;3" font-underline="0" box-height="166" font-outline-color="0,0,0,255" font="Cubano" letter-spacing="0" font-pixel-size="138" font-italic="0" typewriter="0;2;1;0;0" alignment="4" font-weight="50" font-outline="9" box-width="719.875" font-color="255,255,255,255">hence why&lt;/content>
 &lt;/item>
 &lt;startviewport rect="0,0,1080,1920"/>
 &lt;endviewport rect="0,0,1080,1920"/>
 &lt;background color="0,0,0,0"/>
&lt;/kdenlivetitle>
</property>
  <property name="kdenlive:folderid">21</property>
  <property name="kdenlive:id">98</property>
  <property name="kdenlive:clip_type">2</property>
  <property name="force_reload">0</property>
  <property name="meta.media.width">1080</property>
  <property name="meta.media.height">1920</property>
 </producer>
 <playlist id="playlist10">
  <entry producer="chain4" in="00:00:00.000" out="00:00:02.800">
   <property name="kdenlive:id">5</property>
   <filter id="filter27">
    <property name="rotate_center">1</property>
    <property name="mlt_service">qtblend</property>
    <property name="kdenlive_id">qtblend</property>
    <property name="rect">00:00:00.000=-1386 -32 3870 6880 1.000000;00:00:00.200=-1386 -2525 3870 6880 1.000000;00:00:00.280=-1386 -2474 3870 6880 1.000000</property>
    <property name="rotation">00:00:00.000=27;00:00:00.200=27;00:00:00.280=27</property>
    <property name="compositing">0</property>
    <property name="distort">0</property>
    <property name="kdenlive:collapsed">0</property>
   </filter>
   <filter id="filter28" out="00:00:00.240">
    <property name="start">1</property>
    <property name="level">1</property>
    <property name="mlt_service">brightness</property>
    <property name="kdenlive_id">fade_from_black</property>
    <property name="alpha">00:00:00.000=0;00:00:00.240=1</property>
    <property name="kdenlive:collapsed">0</property>
   </filter>
  </entry>
  <blank length="00:00:00.280"/>
  <entry producer="producer5" in="00:00:00.000" out="00:00:00.120">
   <property name="kdenlive:id">23</property>
   <filter id="filter29">
    <property name="rotate_center">1</property>
    <property name="mlt_service">qtblend</property>
    <property name="kdenlive_id">qtblend</property>
    <property name="rect">0=27 61 1026 1824 1.000000;1=-27 -62 1134 2016 1.000000;2=0 0 1080 1920 1.000000</property>
    <property name="rotation">0=0;1=0;2=0</property>
    <property name="compositing">0</property>
    <property name="distort">0</property>
   </filter>
  </entry>
  <entry producer="producer6" in="00:00:00.000" out="00:00:00.280">
   <property name="kdenlive:id">24</property>
   <filter id="filter30">
    <property name="rotate_center">1</property>
    <property name="mlt_service">qtblend</property>
    <property name="kdenlive_id">qtblend</property>
    <property name="rect">0=27 61 1026 1824 1.000000;1=-27 -62 1134 2016 1.000000;2=0 0 1080 1920 1.000000</property>
    <property name="rotation">0=0;1=0;2=0</property>
    <property name="compositing">0</property>
    <property name="distort">0</property>
   </filter>
  </entry>
  <entry producer="producer7" in="00:00:00.000" out="00:00:00.440">
   <property name="kdenlive:id">25</property>
   <filter id="filter31">
    <property name="rotate_center">1</property>
    <property name="mlt_service">qtblend</property>
    <property name="kdenlive_id">qtblend</property>
    <property name="rect">0=27 61 1026 1824 1.000000;1=-27 -62 1134 2016 1.000000;2=0 0 1080 1920 1.000000</property>
    <property name="rotation">0=0;1=0;2=0</property>
    <property name="compositing">0</property>
    <property name="distort">0</property>
   </filter>
  </entry>
  <entry producer="producer8" in="00:00:00.000" out="00:00:00.320">
   <property name="kdenlive:id">26</property>
   <filter id="filter32">
    <property name="rotate_center">1</property>
    <property name="mlt_service">qtblend</property>
    <property name="kdenlive_id">qtblend</property>
    <property name="rect">0=27 61 1026 1824 1.000000;1=-27 -62 1134 2016 1.000000;2=0 0 1080 1920 1.000000</property>
    <property name="rotation">0=0;1=0;2=0</property>
    <property name="compositing">0</property>
    <property name="distort">0</property>
   </filter>
  </entry>
  <entry producer="producer9" in="00:00:00.000" out="00:00:00.200">
   <property name="kdenlive:id">27</property>
   <filter id="filter33">
    <property name="rotate_center">1</property>
    <property name="mlt_service">qtblend</property>
    <property name="kdenlive_id">qtblend</property>
    <property name="rect">0=27 61 1026 1824 1.000000;1=-27 -62 1134 2016 1.000000;2=0 0 1080 1920 1.000000</property>
    <property name="rotation">0=0;1=0;2=0</property>
    <property name="compositing">0</property>
    <property name="distort">0</property>
   </filter>
  </entry>
  <entry producer="producer10" in="00:00:00.000" out="00:00:00.400">
   <property name="kdenlive:id">28</property>
   <filter id="filter34">
    <property name="rotate_center">1</property>
    <property name="mlt_service">qtblend</property>
    <property name="kdenlive_id">qtblend</property>
    <property name="rect">0=27 61 1026 1824 1.000000;1=-27 -62 1134 2016 1.000000;2=0 0 1080 1920 1.000000</property>
    <property name="rotation">0=0;1=0;2=0</property>
    <property name="compositing">0</property>
    <property name="distort">0</property>
   </filter>
  </entry>
  <entry producer="producer11" in="00:00:00.000" out="00:00:00.520">
   <property name="kdenlive:id">29</property>
   <filter id="filter35">
    <property name="rotate_center">1</property>
    <property name="mlt_service">qtblend</property>
    <property name="kdenlive_id">qtblend</property>
    <property name="rect">0=27 61 1026 1824 1.000000;1=-27 -62 1134 2016 1.000000;2=0 0 1080 1920 1.000000</property>
    <property name="rotation">0=0;1=0;2=0</property>
    <property name="compositing">0</property>
    <property name="distort">0</property>
   </filter>
  </entry>
  <entry producer="producer12" in="00:00:00.000" out="00:00:00.160">
   <property name="kdenlive:id">30</property>
   <filter id="filter36">
    <property name="rotate_center">1</property>
    <property name="mlt_service">qtblend</property>
    <property name="kdenlive_id">qtblend</property>
    <property name="rect">0=27 61 1026 1824 1.000000;1=-27 -62 1134 2016 1.000000;2=0 0 1080 1920 1.000000</property>
    <property name="rotation">0=0;1=0;2=0</property>
    <property name="compositing">0</property>
    <property name="distort">0</property>
   </filter>
  </entry>
  <entry producer="producer13" in="00:00:00.000" out="00:00:00.680">
   <property name="kdenlive:id">31</property>
   <filter id="filter37" in="00:00:00.520" out="00:00:00.680">
    <property name="start">1</property>
    <property name="level">1</property>
    <property name="mlt_service">brightness</property>
    <property name="kdenlive_id">fade_to_black</property>
    <property name="alpha">00:00:00.000=1;00:00:00.160=0</property>
   </filter>
   <filter id="filter38">
    <property name="rotate_center">1</property>
    <property name="mlt_service">qtblend</property>
    <property name="kdenlive_id">qtblend</property>
    <property name="rect">0=27 61 1026 1824 1.000000;1=-27 -62 1134 2016 1.000000;2=0 0 1080 1920 1.000000</property>
    <property name="rotation">0=0;1=0;2=0</property>
    <property name="compositing">0</property>
    <property name="distort">0</property>
   </filter>
  </entry>
  <entry producer="producer14" in="00:00:00.000" out="00:00:00.200">
   <property name="kdenlive:id">32</property>
   <filter id="filter39">
    <property name="rotate_center">1</property>
    <property name="mlt_service">qtblend</property>
    <property name="kdenlive_id">qtblend</property>
    <property name="rect">0=27 61 1026 1824 1.000000;1=-27 -62 1134 2016 1.000000;2=0 0 1080 1920 1.000000</property>
    <property name="rotation">0=0;1=0;2=0</property>
    <property name="compositing">0</property>
    <property name="distort">0</property>
   </filter>
  </entry>
  <entry producer="producer10" in="00:00:00.000" out="00:00:00.360">
   <property name="kdenlive:id">28</property>
   <filter id="filter40">
    <property name="rotate_center">1</property>
    <property name="mlt_service">qtblend</property>
    <property name="kdenlive_id">qtblend</property>
    <property name="rect">0=27 61 1026 1824 1.000000;1=-27 -62 1134 2016 1.000000;2=0 0 1080 1920 1.000000</property>
    <property name="rotation">0=0;1=0;2=0</property>
    <property name="compositing">0</property>
    <property name="distort">0</property>
   </filter>
  </entry>
  <entry producer="producer15" in="00:00:00.000" out="00:00:00.560">
   <property name="kdenlive:id">33</property>
   <filter id="filter41">
    <property name="rotate_center">1</property>
    <property name="mlt_service">qtblend</property>
    <property name="kdenlive_id">qtblend</property>
    <property name="rect">0=27 61 1026 1824 1.000000;1=-27 -62 1134 2016 1.000000;2=0 0 1080 1920 1.000000</property>
    <property name="rotation">0=0;1=0;2=0</property>
    <property name="compositing">0</property>
    <property name="distort">0</property>
   </filter>
  </entry>
  <entry producer="producer16" in="00:00:00.000" out="00:00:00.280">
   <property name="kdenlive:id">34</property>
   <filter id="filter42">
    <property name="rotate_center">1</property>
    <property name="mlt_service">qtblend</property>
    <property name="kdenlive_id">qtblend</property>
    <property name="rect">0=27 61 1026 1824 1.000000;1=-27 -62 1134 2016 1.000000;2=0 0 1080 1920 1.000000</property>
    <property name="rotation">0=0;1=0;2=0</property>
    <property name="compositing">0</property>
    <property name="distort">0</property>
   </filter>
  </entry>
  <entry producer="producer17" in="00:00:00.000" out="00:00:00.440">
   <property name="kdenlive:id">35</property>
   <filter id="filter43">
    <property name="rotate_center">1</property>
    <property name="mlt_service">qtblend</property>
    <property name="kdenlive_id">qtblend</property>
    <property name="rect">0=27 61 1026 1824 1.000000;1=-27 -62 1134 2016 1.000000;2=0 0 1080 1920 1.000000</property>
    <property name="rotation">0=0;1=0;2=0</property>
    <property name="compositing">0</property>
    <property name="distort">0</property>
   </filter>
  </entry>
  <entry producer="producer18" in="00:00:00.000" out="00:00:01.280">
   <property name="kdenlive:id">36</property>
   <filter id="filter44" in="00:00:00.760" out="00:00:01.280">
    <property name="start">1</property>
    <property name="level">1</property>
    <property name="mlt_service">brightness</property>
    <property name="kdenlive_id">fade_to_black</property>
    <property name="alpha">00:00:00.000=1;00:00:00.520=0</property>
   </filter>
   <filter id="filter45">
    <property name="rotate_center">1</property>
    <property name="mlt_service">qtblend</property>
    <property name="kdenlive_id">qtblend</property>
    <property name="rect">0=27 61 1026 1824 1.000000;1=-27 -62 1134 2016 1.000000;2=0 0 1080 1920 1.000000</property>
    <property name="rotation">0=0;1=0;2=0</property>
    <property name="compositing">0</property>
    <property name="distort">0</property>
   </filter>
  </entry>
  <entry producer="producer19" in="00:02:13.200" out="00:02:14.520">
   <property name="kdenlive:id">37</property>
   <filter id="filter46">
    <property name="rotate_center">1</property>
    <property name="mlt_service">qtblend</property>
    <property name="kdenlive_id">qtblend</property>
    <property name="rect">00:02:13.200=-1647 -2923 4365 7761 0.540000</property>
    <property name="rotation">00:02:13.200=0</property>
    <property name="compositing">0</property>
    <property name="distort">0</property>
    <property name="kdenlive:collapsed">0</property>
   </filter>
   <filter id="filter47" in="00:02:13.200" out="00:02:13.760">
    <property name="start">1</property>
    <property name="level">1</property>
    <property name="mlt_service">brightness</property>
    <property name="kdenlive_id">fade_from_black</property>
    <property name="alpha">00:00:00.000=0;00:00:00.560=1</property>
    <property name="kdenlive:collapsed">0</property>
   </filter>
  </entry>
  <blank length="00:00:00.240"/>
  <entry producer="producer20" in="00:00:00.000" out="00:00:00.600">
   <property name="kdenlive:id">41</property>
   <filter id="filter48">
    <property name="rotate_center">1</property>
    <property name="mlt_service">qtblend</property>
    <property name="kdenlive_id">qtblend</property>
    <property name="rect">0=27 61 1026 1824 1.000000;1=-27 -62 1134 2016 1.000000;2=0 0 1080 1920 1.000000</property>
    <property name="rotation">0=0;1=0;2=0</property>
    <property name="compositing">0</property>
    <property name="distort">0</property>
   </filter>
  </entry>
  <entry producer="producer21" in="00:00:00.000" out="00:00:00.840">
   <property name="kdenlive:id">42</property>
   <filter id="filter49">
    <property name="rotate_center">1</property>
    <property name="mlt_service">qtblend</property>
    <property name="kdenlive_id">qtblend</property>
    <property name="rect">00:00:00.000=27 48 1026 1824 1.000000</property>
    <property name="rotation">00:00:00.000=0</property>
    <property name="compositing">0</property>
    <property name="distort">0</property>
    <property name="kdenlive:collapsed">0</property>
   </filter>
   <filter id="filter50">
    <property name="rotate_center">1</property>
    <property name="mlt_service">qtblend</property>
    <property name="kdenlive_id">qtblend</property>
    <property name="rect">0=27 61 1026 1824 1.000000;1=-27 -62 1134 2016 1.000000;2=0 0 1080 1920 1.000000</property>
    <property name="rotation">0=0;1=0;2=0</property>
    <property name="compositing">0</property>
    <property name="distort">0</property>
   </filter>
  </entry>
  <entry producer="producer22" in="00:00:00.000" out="00:00:00.360">
   <property name="kdenlive:id">43</property>
   <filter id="filter51">
    <property name="rotate_center">1</property>
    <property name="mlt_service">qtblend</property>
    <property name="kdenlive_id">qtblend</property>
    <property name="rect">0=27 61 1026 1824 1.000000;1=-27 -62 1134 2016 1.000000;2=0 0 1080 1920 1.000000</property>
    <property name="rotation">0=0;1=0;2=0</property>
    <property name="compositing">0</property>
    <property name="distort">0</property>
   </filter>
  </entry>
  <entry producer="producer23" in="00:00:00.000" out="00:00:00.440">
   <property name="kdenlive:id">44</property>
   <filter id="filter52">
    <property name="rotate_center">1</property>
    <property name="mlt_service">qtblend</property>
    <property name="kdenlive_id">qtblend</property>
    <property name="rect">0=27 61 1026 1824 1.000000;1=-27 -62 1134 2016 1.000000;2=0 0 1080 1920 1.000000</property>
    <property name="rotation">0=0;1=0;2=0</property>
    <property name="compositing">0</property>
    <property name="distort">0</property>
   </filter>
  </entry>
  <entry producer="producer24" in="00:00:00.000" out="00:00:00.280">
   <property name="kdenlive:id">45</property>
   <filter id="filter53">
    <property name="rotate_center">1</property>
    <property name="mlt_service">qtblend</property>
    <property name="kdenlive_id">qtblend</property>
    <property name="rect">0=27 61 1026 1824 1.000000;1=-27 -62 1134 2016 1.000000;2=0 0 1080 1920 1.000000</property>
    <property name="rotation">0=0;1=0;2=0</property>
    <property name="compositing">0</property>
    <property name="distort">0</property>
   </filter>
  </entry>
  <entry producer="producer25" in="00:00:00.000" out="00:00:00.160">
   <property name="kdenlive:id">46</property>
   <filter id="filter54">
    <property name="rotate_center">1</property>
    <property name="mlt_service">qtblend</property>
    <property name="kdenlive_id">qtblend</property>
    <property name="rect">0=27 61 1026 1824 1.000000;1=-27 -62 1134 2016 1.000000;2=0 0 1080 1920 1.000000</property>
    <property name="rotation">0=0;1=0;2=0</property>
    <property name="compositing">0</property>
    <property name="distort">0</property>
   </filter>
  </entry>
  <entry producer="producer26" in="00:00:00.000" out="00:00:00.680">
   <property name="kdenlive:id">47</property>
   <filter id="filter55">
    <property name="rotate_center">1</property>
    <property name="mlt_service">qtblend</property>
    <property name="kdenlive_id">qtblend</property>
    <property name="rect">0=27 61 1026 1824 1.000000;1=-27 -62 1134 2016 1.000000;2=0 0 1080 1920 1.000000</property>
    <property name="rotation">0=0;1=0;2=0</property>
    <property name="compositing">0</property>
    <property name="distort">0</property>
   </filter>
  </entry>
  <entry producer="producer27" in="00:00:00.000" out="00:00:00.520">
   <property name="kdenlive:id">48</property>
   <filter id="filter56">
    <property name="rotate_center">1</property>
    <property name="mlt_service">qtblend</property>
    <property name="kdenlive_id">qtblend</property>
    <property name="rect">0=27 61 1026 1824 1.000000;1=-27 -62 1134 2016 1.000000;2=0 0 1080 1920 1.000000</property>
    <property name="rotation">0=0;1=0;2=0</property>
    <property name="compositing">0</property>
    <property name="distort">0</property>
   </filter>
  </entry>
  <entry producer="producer28" in="00:00:00.000" out="00:00:00.400">
   <property name="kdenlive:id">49</property>
   <filter id="filter57">
    <property name="rotate_center">1</property>
    <property name="mlt_service">qtblend</property>
    <property name="kdenlive_id">qtblend</property>
    <property name="rect">0=27 61 1026 1824 1.000000;1=-27 -62 1134 2016 1.000000;2=0 0 1080 1920 1.000000</property>
    <property name="rotation">0=0;1=0;2=0</property>
    <property name="compositing">0</property>
    <property name="distort">0</property>
   </filter>
  </entry>
  <entry producer="producer29" in="00:00:00.000" out="00:00:00.200">
   <property name="kdenlive:id">50</property>
   <filter id="filter58">
    <property name="rotate_center">1</property>
    <property name="mlt_service">qtblend</property>
    <property name="kdenlive_id">qtblend</property>
    <property name="rect">0=27 61 1026 1824 1.000000;1=-27 -62 1134 2016 1.000000;2=0 0 1080 1920 1.000000</property>
    <property name="rotation">0=0;1=0;2=0</property>
    <property name="compositing">0</property>
    <property name="distort">0</property>
   </filter>
  </entry>
  <entry producer="producer30" in="00:00:00.000" out="00:00:00.920">
   <property name="kdenlive:id">51</property>
   <filter id="filter59" in="00:00:00.480" out="00:00:00.920">
    <property name="start">1</property>
    <property name="level">1</property>
    <property name="mlt_service">brightness</property>
    <property name="kdenlive_id">fade_to_black</property>
    <property name="alpha">00:00:00.000=1;00:00:00.440=0</property>
   </filter>
   <filter id="filter60">
    <property name="rotate_center">1</property>
    <property name="mlt_service">qtblend</property>
    <property name="kdenlive_id">qtblend</property>
    <property name="rect">0=27 61 1026 1824 1.000000;1=-27 -62 1134 2016 1.000000;2=0 0 1080 1920 1.000000</property>
    <property name="rotation">0=0;1=0;2=0</property>
    <property name="compositing">0</property>
    <property name="distort">0</property>
   </filter>
  </entry>
  <blank length="00:00:00.080"/>
  <entry producer="producer4" in="00:00:00.000" out="00:00:00.360">
   <property name="kdenlive:id">52</property>
   <filter id="filter61">
    <property name="rotate_center">1</property>
    <property name="mlt_service">qtblend</property>
    <property name="kdenlive_id">qtblend</property>
    <property name="rect">00:00:00.000=-133 -239 1349 2399 1.000000;00:00:00.360=-137 -249 1356 2412 1.000000;00:00:13.080=-266 -607 1616 2872 1.000000</property>
    <property name="rotation">00:00:00.000=0;00:00:00.360=0;00:00:13.080=0</property>
    <property name="compositing">0</property>
    <property name="distort">0</property>
    <property name="kdenlive:collapsed">1</property>
   </filter>
   <filter id="filter62">
    <property name="mode">alpha</property>
    <property name="alpha_operation">clear</property>
    <property name="invert">0</property>
    <property name="feather">0</property>
    <property name="feather_passes">1</property>
    <property name="mlt_service">rotoscoping</property>
    <property name="kdenlive_id">rotoscoping</property>
    <property name="spline">{
    "000": [
        [
            [
                -0.14602150537634406,
                0.8929909452197298
            ],
            [
                -0.15591397849462366,
                0.8444108761329304
            ],
            [
                -0.05268817204301073,
                0.8661631419939577
            ]
        ],
        [
            [
                0.256989247311828,
                0.9314199395770392
            ],
            [
                0.3602150537634409,
                0.9531722054380665
            ],
            [
                0.4182795698924731,
                0.9531722054380665
            ]
        ],
        [
            [
                0.5924731182795699,
                0.9531722054380665
            ],
            [
                0.6505376344086022,
                0.9531722054380665
            ],
            [
                0.7301075268817204,
                0.9199395770392749
            ]
        ],
        [
            [
                0.9688172043010752,
                0.8202416918429003
            ],
            [
                1.0483870967741935,
                0.7870090634441087
            ],
            [
                1.0741935483870966,
                0.8427190415755841
            ]
        ],
        [
            [
                1.1516129032258065,
                1.00984897597001
            ],
            [
                1.1774193548387095,
                1.0655589541014854
            ],
            [
                0.9206451612903226,
                1.0699094075945736
            ]
        ],
        [
            [
                0.1503225806451613,
                1.0829607680738387
            ],
            [
                -0.1064516129032258,
                1.0873112215669272
            ],
            [
                -0.11634408602150538,
                1.0387311524801277
            ]
        ]
    ],
    "001": [
        [
            [
                -0.14817204301075268,
                0.7117220750776124
            ],
            [
                -0.15806451612903227,
                0.6631420059908132
            ],
            [
                -0.054838709677419356,
                0.6848942718518404
            ]
        ],
        [
            [
                0.32580645161290306,
                0.804531746120599
            ],
            [
                0.42903225806451617,
                0.8262840119816262
            ],
            [
                0.48709677419354813,
                0.8262840119816262
            ]
        ],
        [
            [
                0.6419354838709678,
                0.8045317445161845
            ],
            [
                0.7,
                0.8045317445161845
            ],
            [
                0.7795698924731185,
                0.7712991161173929
            ]
        ],
        [
            [
                0.9946236559139785,
                0.6746223669241629
            ],
            [
                1.0741935483870968,
                0.6413897385253713
            ],
            [
                1.1000000000000003,
                0.6970997166568467
            ]
        ],
        [
            [
                1.1516129032258065,
                1.00984897597001
            ],
            [
                1.1774193548387095,
                1.0655589541014854
            ],
            [
                0.9206451612903226,
                1.0699094075945736
            ]
        ],
        [
            [
                0.1503225806451613,
                1.0829607680738387
            ],
            [
                -0.1064516129032258,
                1.0873112215669272
            ],
            [
                -0.11634408602150538,
                1.0387311524801277
            ]
        ]
    ],
    "002": [
        [
            [
                -0.12236559139784949,
                0.6102114935722176
            ],
            [
                -0.13225806451612904,
                0.5616314244854183
            ],
            [
                -0.029032258064516172,
                0.5833836903464455
            ]
        ],
        [
            [
                0.28064516129032235,
                0.6812688971497624
            ],
            [
                0.38387096774193546,
                0.7030211630107897
            ],
            [
                0.4419354838709674,
                0.7030211630107897
            ]
        ],
        [
            [
                0.5903225806451614,
                0.670392761812627
            ],
            [
                0.6483870967741936,
                0.670392761812627
            ],
            [
                0.7279569892473121,
                0.6371601334138355
            ]
        ],
        [
            [
                1.0591397849462365,
                0.5549848958642332
            ],
            [
                1.1387096774193548,
                0.5217522674654418
            ],
            [
                1.164516129032258,
                0.5774622455969171
            ]
        ],
        [
            [
                1.1516129032258065,
                1.00984897597001
            ],
            [
                1.1774193548387095,
                1.0655589541014854
            ],
            [
                0.9206451612903226,
                1.0699094075945736
            ]
        ],
        [
            [
                0.1503225806451613,
                1.0829607680738387
            ],
            [
                -0.1064516129032258,
                1.0873112215669272
            ],
            [
                -0.11634408602150538,
                1.0387311524801277
            ]
        ]
    ],
    "003": [
        [
            [
                -0.09010752688172045,
                0.46519637713593903
            ],
            [
                -0.1,
                0.41661630804914
            ],
            [
                0.003225806451612864,
                0.4383685739101671
            ]
        ],
        [
            [
                0.34516129032258036,
                0.5435045365352981
            ],
            [
                0.4483870967741935,
                0.5652568023963253
            ],
            [
                0.5064516129032256,
                0.5652568023963253
            ]
        ],
        [
            [
                0.6096774193548389,
                0.5507552907526974
            ],
            [
                0.667741935483871,
                0.5507552907526974
            ],
            [
                0.7473118279569896,
                0.5175226623539058
            ]
        ],
        [
            [
                1.046236559139786,
                0.4280966689824893
            ],
            [
                1.1258064516129034,
                0.39486404058369823
            ],
            [
                1.1516129032258076,
                0.4505740187151732
            ]
        ],
        [
            [
                1.1516129032258065,
                1.00984897597001
            ],
            [
                1.1774193548387095,
                1.0655589541014854
            ],
            [
                0.9206451612903226,
                1.0699094075945736
            ]
        ],
        [
            [
                0.1503225806451613,
                1.0829607680738387
            ],
            [
                -0.1064516129032258,
                1.0873112215669272
            ],
            [
                -0.11634408602150538,
                1.0387311524801277
            ]
        ]
    ],
    "004": [
        [
            [
                -0.057849462365591416,
                0.36006041771963726
            ],
            [
                -0.06774193548387096,
                0.31148034863283824
            ],
            [
                0.0354838709677419,
                0.3332326144938653
            ]
        ],
        [
            [
                0.35806451612903195,
                0.42386706547536845
            ],
            [
                0.4612903225806452,
                0.44561933133639564
            ],
            [
                0.5193548387096772,
                0.44561933133639564
            ]
        ],
        [
            [
                0.5903225806451614,
                0.4419939534254887
            ],
            [
                0.6483870967741936,
                0.4419939534254887
            ],
            [
                0.7279569892473122,
                0.40876132502669704
            ]
        ],
        [
            [
                0.9881720430107536,
                0.31933533165528066
            ],
            [
                1.067741935483871,
                0.2861027032564895
            ],
            [
                1.0935483870967748,
                0.34181268138796456
            ]
        ],
        [
            [
                1.1516129032258065,
                1.00984897597001
            ],
            [
                1.1774193548387095,
                1.0655589541014854
            ],
            [
                0.9206451612903226,
                1.0699094075945736
            ]
        ],
        [
            [
                0.1503225806451613,
                1.0829607680738387
            ],
            [
                -0.1064516129032258,
                1.0873112215669272
            ],
            [
                -0.11634408602150538,
                1.0387311524801277
            ]
        ]
    ],
    "005": [
        [
            [
                -0.09700407860585837,
                0.23823523333596047
            ],
            [
                -0.10689655172413794,
                0.18965516424916143
            ],
            [
                -0.003670745272525056,
                0.21140743011018845
            ]
        ],
        [
            [
                0.34619948090470865,
                0.28428221179469865
            ],
            [
                0.4494252873563218,
                0.3060344776557259
            ],
            [
                0.507489803485354,
                0.3060344776557259
            ]
        ],
        [
            [
                0.5568780126066001,
                0.2879310289035936
            ],
            [
                0.6149425287356323,
                0.2879310289035936
            ],
            [
                0.6945124212087509,
                0.25469840050480197
            ]
        ],
        [
            [
                1.0181312569521697,
                0.17892227424991708
            ],
            [
                1.0977011494252873,
                0.14568964585112595
            ],
            [
                1.1235076010381913,
                0.201399623982601
            ]
        ],
        [
            [
                1.1516129032258065,
                1.00984897597001
            ],
            [
                1.1774193548387095,
                1.0655589541014854
            ],
            [
                0.9206451612903226,
                1.0699094075945736
            ]
        ],
        [
            [
                0.1503225806451613,
                1.0829607680738387
            ],
            [
                -0.1064516129032258,
                1.0873112215669272
            ],
            [
                -0.11634408602150538,
                1.0387311524801277
            ]
        ]
    ],
    "006": [
        [
            [
                -0.0464293659621802,
                0.0985800572480831
            ],
            [
                -0.05632183908045977,
                0.04999998816128404
            ],
            [
                0.04690396737115313,
                0.07175225402231106
            ]
        ],
        [
            [
                0.3645902855024098,
                0.16273048445895352
            ],
            [
                0.46781609195402296,
                0.18448275031998077
            ],
            [
                0.5258806080830551,
                0.18448275031998077
            ]
        ],
        [
            [
                0.570671116054876,
                0.16896550853243883
            ],
            [
                0.628735632183908,
                0.16896550853243883
            ],
            [
                0.7083055246570267,
                0.13573288013364718
            ]
        ],
        [
            [
                1.0089358546533191,
                0.05737054691417192
            ],
            [
                1.0885057471264368,
                0.024137918515380823
            ],
            [
                1.1143121987393407,
                0.07984789664685585
            ]
        ],
        [
            [
                1.1516129032258065,
                1.00984897597001
            ],
            [
                1.1774193548387095,
                1.0655589541014854
            ],
            [
                0.9206451612903226,
                1.0699094075945736
            ]
        ],
        [
            [
                0.1503225806451613,
                1.0829607680738387
            ],
            [
                -0.1064516129032258,
                1.0873112215669272
            ],
            [
                -0.11634408602150538,
                1.0387311524801277
            ]
        ]
    ],
    "007": [
        [
            [
                -0.032636262513904335,
                -0.02297167008766202
            ],
            [
                -0.04252873563218391,
                -0.07155173917446109
            ],
            [
                0.06069707081942902,
                -0.04979947331343407
            ]
        ],
        [
            [
                0.31861327400815703,
                0.015316687477305184
            ],
            [
                0.4218390804597701,
                0.037068953338332426
            ],
            [
                0.47990359658880233,
                0.037068953338332426
            ]
        ],
        [
            [
                0.570671116054876,
                0.037068953338332426
            ],
            [
                0.628735632183908,
                0.037068953338332426
            ],
            [
                0.7083055246570267,
                0.003836324939540773
            ]
        ],
        [
            [
                1.0457174638487217,
                -0.02280186898812805
            ],
            [
                1.125287356321839,
                -0.05603449738691915
            ],
            [
                1.151093807934743,
                -0.0003245192554441223
            ]
        ],
        [
            [
                1.1516129032258065,
                1.00984897597001
            ],
            [
                1.1774193548387095,
                1.0655589541014854
            ],
            [
                0.9206451612903226,
                1.0699094075945736
            ]
        ],
        [
            [
                0.1503225806451613,
                1.0829607680738387
            ],
            [
                -0.1064516129032258,
                1.0873112215669272
            ],
            [
                -0.11634408602150538,
                1.0387311524801277
            ]
        ]
    ],
    "008": [
        [
            [
                -0.032636262513904335,
                -0.02297167008766202
            ],
            [
                -0.04252873563218391,
                -0.07155173917446109
            ],
            [
                0.06069707081942902,
                -0.04979947331343407
            ]
        ],
        [
            [
                0.35539488320355933,
                -0.07002814235417545
            ],
            [
                0.4586206896551724,
                -0.04827587649314819
            ],
            [
                0.5166852057842045,
                -0.04827587649314819
            ]
        ],
        [
            [
                0.570671116054876,
                -0.05344829042232883
            ],
            [
                0.628735632183908,
                -0.05344829042232883
            ],
            [
                0.7083055246570267,
                -0.08668091882112049
            ]
        ],
        [
            [
                1.0457174638487217,
                -0.02280186898812805
            ],
            [
                1.125287356321839,
                -0.05603449738691915
            ],
            [
                1.151093807934743,
                -0.0003245192554441223
            ]
        ],
        [
            [
                1.1516129032258065,
                1.00984897597001
            ],
            [
                1.1774193548387095,
                1.0655589541014854
            ],
            [
                0.9206451612903226,
                1.0699094075945736
            ]
        ],
        [
            [
                0.1503225806451613,
                1.0829607680738387
            ],
            [
                -0.1064516129032258,
                1.0873112215669272
            ],
            [
                -0.11634408602150538,
                1.0387311524801277
            ]
        ]
    ]
}
</property>
    <property name="kdenlive:collapsed">1</property>
   </filter>
  </entry>
  <blank length="00:00:00.240"/>
  <entry producer="producer31" in="00:00:00.000" out="00:00:00.480">
   <property name="kdenlive:id">55</property>
   <filter id="filter63">
    <property name="rotate_center">1</property>
    <property name="mlt_service">qtblend</property>
    <property name="kdenlive_id">qtblend</property>
    <property name="rect">0=27 61 1026 1824 1.000000;1=-27 -62 1134 2016 1.000000;2=0 0 1080 1920 1.000000</property>
    <property name="rotation">0=0;1=0;2=0</property>
    <property name="compositing">0</property>
    <property name="distort">0</property>
   </filter>
  </entry>
  <entry producer="producer12" in="00:00:00.000" out="00:00:00.080">
   <property name="kdenlive:id">30</property>
   <filter id="filter64">
    <property name="rotate_center">1</property>
    <property name="mlt_service">qtblend</property>
    <property name="kdenlive_id">qtblend</property>
    <property name="rect">0=27 61 1026 1824 1.000000;1=-27 -62 1134 2016 1.000000;2=0 0 1080 1920 1.000000</property>
    <property name="rotation">0=0;1=0;2=0</property>
    <property name="compositing">0</property>
    <property name="distort">0</property>
   </filter>
  </entry>
  <entry producer="producer32" in="00:00:00.000" out="00:00:00.120">
   <property name="kdenlive:id">56</property>
   <filter id="filter65">
    <property name="rotate_center">1</property>
    <property name="mlt_service">qtblend</property>
    <property name="kdenlive_id">qtblend</property>
    <property name="rect">0=27 61 1026 1824 1.000000;1=-27 -62 1134 2016 1.000000;2=0 0 1080 1920 1.000000</property>
    <property name="rotation">0=0;1=0;2=0</property>
    <property name="compositing">0</property>
    <property name="distort">0</property>
   </filter>
  </entry>
  <entry producer="producer33" in="00:00:00.000" out="00:00:00.120">
   <property name="kdenlive:id">57</property>
   <filter id="filter66">
    <property name="rotate_center">1</property>
    <property name="mlt_service">qtblend</property>
    <property name="kdenlive_id">qtblend</property>
    <property name="rect">0=27 61 1026 1824 1.000000;1=-27 -62 1134 2016 1.000000;2=0 0 1080 1920 1.000000</property>
    <property name="rotation">0=0;1=0;2=0</property>
    <property name="compositing">0</property>
    <property name="distort">0</property>
   </filter>
  </entry>
  <entry producer="producer34" in="00:00:00.000" out="00:00:00.400">
   <property name="kdenlive:id">58</property>
   <filter id="filter67">
    <property name="rotate_center">1</property>
    <property name="mlt_service">qtblend</property>
    <property name="kdenlive_id">qtblend</property>
    <property name="rect">0=27 61 1026 1824 1.000000;1=-27 -62 1134 2016 1.000000;2=0 0 1080 1920 1.000000</property>
    <property name="rotation">0=0;1=0;2=0</property>
    <property name="compositing">0</property>
    <property name="distort">0</property>
   </filter>
  </entry>
  <entry producer="producer35" in="00:00:00.000" out="00:00:00.640">
   <property name="kdenlive:id">59</property>
   <filter id="filter68">
    <property name="rotate_center">1</property>
    <property name="mlt_service">qtblend</property>
    <property name="kdenlive_id">qtblend</property>
    <property name="rect">0=27 61 1026 1824 1.000000;1=-27 -62 1134 2016 1.000000;2=0 0 1080 1920 1.000000</property>
    <property name="rotation">0=0;1=0;2=0</property>
    <property name="compositing">0</property>
    <property name="distort">0</property>
   </filter>
  </entry>
  <entry producer="producer36" in="00:00:00.000" out="00:00:00.280">
   <property name="kdenlive:id">60</property>
   <filter id="filter69">
    <property name="rotate_center">1</property>
    <property name="mlt_service">qtblend</property>
    <property name="kdenlive_id">qtblend</property>
    <property name="rect">0=27 61 1026 1824 1.000000;1=-27 -62 1134 2016 1.000000;2=0 0 1080 1920 1.000000</property>
    <property name="rotation">0=0;1=0;2=0</property>
    <property name="compositing">0</property>
    <property name="distort">0</property>
   </filter>
  </entry>
  <entry producer="producer37" in="00:00:00.000" out="00:00:00.080">
   <property name="kdenlive:id">61</property>
   <filter id="filter70">
    <property name="rotate_center">1</property>
    <property name="mlt_service">qtblend</property>
    <property name="kdenlive_id">qtblend</property>
    <property name="rect">0=27 61 1026 1824 1.000000;1=-27 -62 1134 2016 1.000000;2=0 0 1080 1920 1.000000</property>
    <property name="rotation">0=0;1=0;2=0</property>
    <property name="compositing">0</property>
    <property name="distort">0</property>
   </filter>
  </entry>
  <entry producer="producer38" in="00:00:00.000" out="00:00:00.440">
   <property name="kdenlive:id">62</property>
   <filter id="filter71">
    <property name="rotate_center">1</property>
    <property name="mlt_service">qtblend</property>
    <property name="kdenlive_id">qtblend</property>
    <property name="rect">0=27 61 1026 1824 1.000000;1=-27 -62 1134 2016 1.000000;2=0 0 1080 1920 1.000000</property>
    <property name="rotation">0=0;1=0;2=0</property>
    <property name="compositing">0</property>
    <property name="distort">0</property>
   </filter>
  </entry>
  <entry producer="producer39" in="00:00:00.000" out="00:00:00.360">
   <property name="kdenlive:id">63</property>
   <filter id="filter72">
    <property name="rotate_center">1</property>
    <property name="mlt_service">qtblend</property>
    <property name="kdenlive_id">qtblend</property>
    <property name="rect">0=27 61 1026 1824 1.000000;1=-27 -62 1134 2016 1.000000;2=0 0 1080 1920 1.000000</property>
    <property name="rotation">0=0;1=0;2=0</property>
    <property name="compositing">0</property>
    <property name="distort">0</property>
   </filter>
  </entry>
  <entry producer="producer40" in="00:00:00.000" out="00:00:00.440">
   <property name="kdenlive:id">64</property>
   <filter id="filter73">
    <property name="rotate_center">1</property>
    <property name="mlt_service">qtblend</property>
    <property name="kdenlive_id">qtblend</property>
    <property name="rect">0=27 61 1026 1824 1.000000;1=-27 -62 1134 2016 1.000000;2=0 0 1080 1920 1.000000</property>
    <property name="rotation">0=0;1=0;2=0</property>
    <property name="compositing">0</property>
    <property name="distort">0</property>
   </filter>
  </entry>
  <entry producer="producer41" in="00:00:00.000" out="00:00:00.080">
   <property name="kdenlive:id">65</property>
   <filter id="filter74">
    <property name="rotate_center">1</property>
    <property name="mlt_service">qtblend</property>
    <property name="kdenlive_id">qtblend</property>
    <property name="rect">0=27 61 1026 1824 1.000000;1=-27 -62 1134 2016 1.000000;2=0 0 1080 1920 1.000000</property>
    <property name="rotation">0=0;1=0;2=0</property>
    <property name="compositing">0</property>
    <property name="distort">0</property>
   </filter>
  </entry>
  <entry producer="producer42" in="00:00:00.000" out="00:00:00.400">
   <property name="kdenlive:id">66</property>
   <filter id="filter75">
    <property name="rotate_center">1</property>
    <property name="mlt_service">qtblend</property>
    <property name="kdenlive_id">qtblend</property>
    <property name="rect">0=27 61 1026 1824 1.000000;1=-27 -62 1134 2016 1.000000;2=0 0 1080 1920 1.000000</property>
    <property name="rotation">0=0;1=0;2=0</property>
    <property name="compositing">0</property>
    <property name="distort">0</property>
   </filter>
  </entry>
  <entry producer="producer43" in="00:00:00.000" out="00:00:00.320">
   <property name="kdenlive:id">67</property>
   <filter id="filter76">
    <property name="rotate_center">1</property>
    <property name="mlt_service">qtblend</property>
    <property name="kdenlive_id">qtblend</property>
    <property name="rect">0=27 61 1026 1824 1.000000;1=-27 -62 1134 2016 1.000000;2=0 0 1080 1920 1.000000</property>
    <property name="rotation">0=0;1=0;2=0</property>
    <property name="compositing">0</property>
    <property name="distort">0</property>
   </filter>
  </entry>
  <entry producer="producer44" in="00:00:00.000" out="00:00:00.640">
   <property name="kdenlive:id">68</property>
   <filter id="filter77">
    <property name="rotate_center">1</property>
    <property name="mlt_service">qtblend</property>
    <property name="kdenlive_id">qtblend</property>
    <property name="rect">0=27 61 1026 1824 1.000000;1=-27 -62 1134 2016 1.000000;2=0 0 1080 1920 1.000000</property>
    <property name="rotation">0=0;1=0;2=0</property>
    <property name="compositing">0</property>
    <property name="distort">0</property>
   </filter>
  </entry>
  <entry producer="producer45" in="00:00:00.000" out="00:00:00.520">
   <property name="kdenlive:id">69</property>
   <filter id="filter78">
    <property name="rotate_center">1</property>
    <property name="mlt_service">qtblend</property>
    <property name="kdenlive_id">qtblend</property>
    <property name="rect">0=27 61 1026 1824 1.000000;1=-27 -62 1134 2016 1.000000;2=0 0 1080 1920 1.000000</property>
    <property name="rotation">0=0;1=0;2=0</property>
    <property name="compositing">0</property>
    <property name="distort">0</property>
   </filter>
  </entry>
  <entry producer="producer46" in="00:00:00.000" out="00:00:00.360">
   <property name="kdenlive:id">70</property>
   <filter id="filter79">
    <property name="rotate_center">1</property>
    <property name="mlt_service">qtblend</property>
    <property name="kdenlive_id">qtblend</property>
    <property name="rect">0=27 61 1026 1824 1.000000;1=-27 -62 1134 2016 1.000000;2=0 0 1080 1920 1.000000</property>
    <property name="rotation">0=0;1=0;2=0</property>
    <property name="compositing">0</property>
    <property name="distort">0</property>
   </filter>
  </entry>
  <entry producer="producer47" in="00:00:00.000" out="00:00:00.200">
   <property name="kdenlive:id">71</property>
   <filter id="filter80">
    <property name="rotate_center">1</property>
    <property name="mlt_service">qtblend</property>
    <property name="kdenlive_id">qtblend</property>
    <property name="rect">0=27 61 1026 1824 1.000000;1=-27 -62 1134 2016 1.000000;2=0 0 1080 1920 1.000000</property>
    <property name="rotation">0=0;1=0;2=0</property>
    <property name="compositing">0</property>
    <property name="distort">0</property>
   </filter>
  </entry>
  <entry producer="producer48" in="00:00:00.000" out="00:00:00.440">
   <property name="kdenlive:id">72</property>
   <filter id="filter81">
    <property name="rotate_center">1</property>
    <property name="mlt_service">qtblend</property>
    <property name="kdenlive_id">qtblend</property>
    <property name="rect">0=27 61 1026 1824 1.000000;1=-27 -62 1134 2016 1.000000;2=0 0 1080 1920 1.000000</property>
    <property name="rotation">0=0;1=0;2=0</property>
    <property name="compositing">0</property>
    <property name="distort">0</property>
   </filter>
  </entry>
  <entry producer="producer49" in="00:00:00.000" out="00:00:00.360">
   <property name="kdenlive:id">73</property>
   <filter id="filter82">
    <property name="rotate_center">1</property>
    <property name="mlt_service">qtblend</property>
    <property name="kdenlive_id">qtblend</property>
    <property name="rect">0=27 61 1026 1824 1.000000;1=-27 -62 1134 2016 1.000000;2=0 0 1080 1920 1.000000</property>
    <property name="rotation">0=0;1=0;2=0</property>
    <property name="compositing">0</property>
    <property name="distort">0</property>
   </filter>
  </entry>
  <entry producer="producer50" in="00:00:00.000" out="00:00:00.960">
   <property name="kdenlive:id">74</property>
   <filter id="filter83" in="00:00:00.640" out="00:00:00.960">
    <property name="start">1</property>
    <property name="level">1</property>
    <property name="mlt_service">brightness</property>
    <property name="kdenlive_id">fade_to_black</property>
    <property name="alpha">00:00:00.000=1;00:00:00.320=0</property>
   </filter>
   <filter id="filter84">
    <property name="rotate_center">1</property>
    <property name="mlt_service">qtblend</property>
    <property name="kdenlive_id">qtblend</property>
    <property name="rect">0=27 61 1026 1824 1.000000;1=-27 -62 1134 2016 1.000000;2=0 0 1080 1920 1.000000</property>
    <property name="rotation">0=0;1=0;2=0</property>
    <property name="compositing">0</property>
    <property name="distort">0</property>
   </filter>
  </entry>
  <entry producer="producer51" in="00:00:00.000" out="00:00:00.360">
   <property name="kdenlive:id">75</property>
   <filter id="filter85">
    <property name="rotate_center">1</property>
    <property name="mlt_service">qtblend</property>
    <property name="kdenlive_id">qtblend</property>
    <property name="rect">0=27 61 1026 1824 1.000000;1=-27 -62 1134 2016 1.000000;2=0 0 1080 1920 1.000000</property>
    <property name="rotation">0=0;1=0;2=0</property>
    <property name="compositing">0</property>
    <property name="distort">0</property>
   </filter>
  </entry>
  <entry producer="producer52" in="00:00:00.000" out="00:00:00.440">
   <property name="kdenlive:id">76</property>
   <filter id="filter86">
    <property name="rotate_center">1</property>
    <property name="mlt_service">qtblend</property>
    <property name="kdenlive_id">qtblend</property>
    <property name="rect">0=27 61 1026 1824 1.000000;1=-27 -62 1134 2016 1.000000;2=0 0 1080 1920 1.000000</property>
    <property name="rotation">0=0;1=0;2=0</property>
    <property name="compositing">0</property>
    <property name="distort">0</property>
   </filter>
  </entry>
  <entry producer="producer53" in="00:00:00.000" out="00:00:00.200">
   <property name="kdenlive:id">77</property>
   <filter id="filter87">
    <property name="rotate_center">1</property>
    <property name="mlt_service">qtblend</property>
    <property name="kdenlive_id">qtblend</property>
    <property name="rect">0=27 61 1026 1824 1.000000;1=-27 -62 1134 2016 1.000000;2=0 0 1080 1920 1.000000</property>
    <property name="rotation">0=0;1=0;2=0</property>
    <property name="compositing">0</property>
    <property name="distort">0</property>
   </filter>
  </entry>
  <entry producer="producer54" in="00:00:00.000" out="00:00:00.680">
   <property name="kdenlive:id">78</property>
   <filter id="filter88">
    <property name="rotate_center">1</property>
    <property name="mlt_service">qtblend</property>
    <property name="kdenlive_id">qtblend</property>
    <property name="rect">0=27 61 1026 1824 1.000000;1=-27 -62 1134 2016 1.000000;2=0 0 1080 1920 1.000000</property>
    <property name="rotation">0=0;1=0;2=0</property>
    <property name="compositing">0</property>
    <property name="distort">0</property>
   </filter>
  </entry>
  <entry producer="producer55" in="00:00:00.000" out="00:00:00.280">
   <property name="kdenlive:id">79</property>
   <filter id="filter89">
    <property name="rotate_center">1</property>
    <property name="mlt_service">qtblend</property>
    <property name="kdenlive_id">qtblend</property>
    <property name="rect">0=27 61 1026 1824 1.000000;1=-27 -62 1134 2016 1.000000;2=0 0 1080 1920 1.000000</property>
    <property name="rotation">0=0;1=0;2=0</property>
    <property name="compositing">0</property>
    <property name="distort">0</property>
   </filter>
  </entry>
  <entry producer="producer56" in="00:00:00.000" out="00:00:00.440">
   <property name="kdenlive:id">80</property>
   <filter id="filter90">
    <property name="rotate_center">1</property>
    <property name="mlt_service">qtblend</property>
    <property name="kdenlive_id">qtblend</property>
    <property name="rect">0=27 61 1026 1824 1.000000;1=-27 -62 1134 2016 1.000000;2=0 0 1080 1920 1.000000</property>
    <property name="rotation">0=0;1=0;2=0</property>
    <property name="compositing">0</property>
    <property name="distort">0</property>
   </filter>
  </entry>
  <entry producer="producer57" in="00:00:00.000" out="00:00:00.920">
   <property name="kdenlive:id">81</property>
   <filter id="filter91" in="00:00:00.480" out="00:00:00.920">
    <property name="start">1</property>
    <property name="level">1</property>
    <property name="mlt_service">brightness</property>
    <property name="kdenlive_id">fade_to_black</property>
    <property name="alpha">00:00:00.000=1;00:00:00.440=0</property>
   </filter>
   <filter id="filter92">
    <property name="rotate_center">1</property>
    <property name="mlt_service">qtblend</property>
    <property name="kdenlive_id">qtblend</property>
    <property name="rect">0=27 61 1026 1824 1.000000;1=-27 -62 1134 2016 1.000000;2=0 0 1080 1920 1.000000</property>
    <property name="rotation">0=0;1=0;2=0</property>
    <property name="compositing">0</property>
    <property name="distort">0</property>
   </filter>
  </entry>
  <blank length="00:00:00.160"/>
  <entry producer="producer58" in="00:00:00.000" out="00:00:00.520">
   <property name="kdenlive:id">85</property>
   <filter id="filter93">
    <property name="rotate_center">1</property>
    <property name="mlt_service">qtblend</property>
    <property name="kdenlive_id">qtblend</property>
    <property name="rect">0=27 61 1026 1824 1.000000;1=-27 -62 1134 2016 1.000000;2=0 0 1080 1920 1.000000</property>
    <property name="rotation">0=0;1=0;2=0</property>
    <property name="compositing">0</property>
    <property name="distort">0</property>
   </filter>
  </entry>
  <entry producer="producer59" in="00:00:00.000" out="00:00:00.480">
   <property name="kdenlive:id">86</property>
   <filter id="filter94">
    <property name="rotate_center">1</property>
    <property name="mlt_service">qtblend</property>
    <property name="kdenlive_id">qtblend</property>
    <property name="rect">0=27 61 1026 1824 1.000000;1=-27 -62 1134 2016 1.000000;2=0 0 1080 1920 1.000000</property>
    <property name="rotation">0=0;1=0;2=0</property>
    <property name="compositing">0</property>
    <property name="distort">0</property>
   </filter>
  </entry>
  <entry producer="producer60" in="00:00:00.000" out="00:00:00.160">
   <property name="kdenlive:id">87</property>
   <filter id="filter95">
    <property name="rotate_center">1</property>
    <property name="mlt_service">qtblend</property>
    <property name="kdenlive_id">qtblend</property>
    <property name="rect">0=27 61 1026 1824 1.000000;1=-27 -62 1134 2016 1.000000;2=0 0 1080 1920 1.000000</property>
    <property name="rotation">0=0;1=0;2=0</property>
    <property name="compositing">0</property>
    <property name="distort">0</property>
   </filter>
  </entry>
  <entry producer="producer61" in="00:00:00.000" out="00:00:00.040">
   <property name="kdenlive:id">88</property>
   <filter id="filter96">
    <property name="rotate_center">1</property>
    <property name="mlt_service">qtblend</property>
    <property name="kdenlive_id">qtblend</property>
    <property name="rect">0=27 61 1026 1824 1.000000;1=-27 -62 1134 2016 1.000000</property>
    <property name="rotation">0=0;1=0</property>
    <property name="compositing">0</property>
    <property name="distort">0</property>
   </filter>
  </entry>
  <entry producer="producer62" in="00:00:00.000" out="00:00:00.320">
   <property name="kdenlive:id">89</property>
   <filter id="filter97">
    <property name="rotate_center">1</property>
    <property name="mlt_service">qtblend</property>
    <property name="kdenlive_id">qtblend</property>
    <property name="rect">0=27 61 1026 1824 1.000000;1=-27 -62 1134 2016 1.000000;2=0 0 1080 1920 1.000000</property>
    <property name="rotation">0=0;1=0;2=0</property>
    <property name="compositing">0</property>
    <property name="distort">0</property>
   </filter>
  </entry>
  <entry producer="producer63" in="00:00:00.000" out="00:00:00.400">
   <property name="kdenlive:id">90</property>
   <filter id="filter98">
    <property name="rotate_center">1</property>
    <property name="mlt_service">qtblend</property>
    <property name="kdenlive_id">qtblend</property>
    <property name="rect">0=27 61 1026 1824 1.000000;1=-27 -62 1134 2016 1.000000;2=0 0 1080 1920 1.000000</property>
    <property name="rotation">0=0;1=0;2=0</property>
    <property name="compositing">0</property>
    <property name="distort">0</property>
   </filter>
  </entry>
  <entry producer="producer57" in="00:00:00.000" out="00:00:00.760">
   <property name="kdenlive:id">81</property>
   <filter id="filter99" in="00:00:00.320" out="00:00:00.760">
    <property name="start">1</property>
    <property name="level">1</property>
    <property name="mlt_service">brightness</property>
    <property name="kdenlive_id">fade_to_black</property>
    <property name="alpha">00:00:00.000=1;00:00:00.440=0</property>
   </filter>
   <filter id="filter100">
    <property name="rotate_center">1</property>
    <property name="mlt_service">qtblend</property>
    <property name="kdenlive_id">qtblend</property>
    <property name="rect">0=27 61 1026 1824 1.000000;1=-27 -62 1134 2016 1.000000;2=0 0 1080 1920 1.000000</property>
    <property name="rotation">0=0;1=0;2=0</property>
    <property name="compositing">0</property>
    <property name="distort">0</property>
   </filter>
  </entry>
  <entry producer="producer78" in="00:00:00.000" out="00:00:00.080">
   <property name="kdenlive:id">91</property>
   <filter id="filter101">
    <property name="rotate_center">1</property>
    <property name="mlt_service">qtblend</property>
    <property name="kdenlive_id">qtblend</property>
    <property name="rect">0=27 61 1026 1824 1.000000;1=-27 -62 1134 2016 1.000000;2=0 0 1080 1920 1.000000</property>
    <property name="rotation">0=0;1=0;2=0</property>
    <property name="compositing">0</property>
    <property name="distort">0</property>
   </filter>
  </entry>
  <entry producer="producer79" in="00:00:00.000" out="00:00:00.560">
   <property name="kdenlive:id">92</property>
   <filter id="filter102">
    <property name="rotate_center">1</property>
    <property name="mlt_service">qtblend</property>
    <property name="kdenlive_id">qtblend</property>
    <property name="rect">0=27 61 1026 1824 1.000000;1=-27 -62 1134 2016 1.000000;2=0 0 1080 1920 1.000000</property>
    <property name="rotation">0=0;1=0;2=0</property>
    <property name="compositing">0</property>
    <property name="distort">0</property>
   </filter>
  </entry>
  <entry producer="producer37" in="00:00:00.000" out="00:00:00.080">
   <property name="kdenlive:id">61</property>
   <filter id="filter103">
    <property name="rotate_center">1</property>
    <property name="mlt_service">qtblend</property>
    <property name="kdenlive_id">qtblend</property>
    <property name="rect">0=27 61 1026 1824 1.000000;1=-27 -62 1134 2016 1.000000;2=0 0 1080 1920 1.000000</property>
    <property name="rotation">0=0;1=0;2=0</property>
    <property name="compositing">0</property>
    <property name="distort">0</property>
   </filter>
  </entry>
  <entry producer="producer80" in="00:00:00.000" out="00:00:00.160">
   <property name="kdenlive:id">93</property>
   <filter id="filter104">
    <property name="rotate_center">1</property>
    <property name="mlt_service">qtblend</property>
    <property name="kdenlive_id">qtblend</property>
    <property name="rect">0=27 61 1026 1824 1.000000;1=-27 -62 1134 2016 1.000000;2=0 0 1080 1920 1.000000</property>
    <property name="rotation">0=0;1=0;2=0</property>
    <property name="compositing">0</property>
    <property name="distort">0</property>
   </filter>
  </entry>
  <entry producer="producer81" in="00:00:00.000" out="00:00:00.520">
   <property name="kdenlive:id">94</property>
   <filter id="filter105">
    <property name="rotate_center">1</property>
    <property name="mlt_service">qtblend</property>
    <property name="kdenlive_id">qtblend</property>
    <property name="rect">0=27 61 1026 1824 1.000000;1=-27 -62 1134 2016 1.000000;2=0 0 1080 1920 1.000000</property>
    <property name="rotation">0=0;1=0;2=0</property>
    <property name="compositing">0</property>
    <property name="distort">0</property>
   </filter>
  </entry>
  <entry producer="producer82" in="00:00:00.000" out="00:00:00.520">
   <property name="kdenlive:id">95</property>
   <filter id="filter106">
    <property name="rotate_center">1</property>
    <property name="mlt_service">qtblend</property>
    <property name="kdenlive_id">qtblend</property>
    <property name="rect">0=27 61 1026 1824 1.000000;1=-27 -62 1134 2016 1.000000;2=0 0 1080 1920 1.000000</property>
    <property name="rotation">0=0;1=0;2=0</property>
    <property name="compositing">0</property>
    <property name="distort">0</property>
   </filter>
  </entry>
  <entry producer="producer83" in="00:00:00.000" out="00:00:00.080">
   <property name="kdenlive:id">96</property>
   <filter id="filter107">
    <property name="rotate_center">1</property>
    <property name="mlt_service">qtblend</property>
    <property name="kdenlive_id">qtblend</property>
    <property name="rect">0=27 61 1026 1824 1.000000;1=-27 -62 1134 2016 1.000000;2=0 0 1080 1920 1.000000</property>
    <property name="rotation">0=0;1=0;2=0</property>
    <property name="compositing">0</property>
    <property name="distort">0</property>
   </filter>
  </entry>
  <entry producer="producer84" in="00:00:00.000" out="00:00:00.400">
   <property name="kdenlive:id">97</property>
   <filter id="filter108">
    <property name="rotate_center">1</property>
    <property name="mlt_service">qtblend</property>
    <property name="kdenlive_id">qtblend</property>
    <property name="rect">0=27 61 1026 1824 1.000000;1=-27 -62 1134 2016 1.000000;2=0 0 1080 1920 1.000000</property>
    <property name="rotation">0=0;1=0;2=0</property>
    <property name="compositing">0</property>
    <property name="distort">0</property>
   </filter>
  </entry>
  <entry producer="producer34" in="00:00:00.000" out="00:00:00.720">
   <property name="kdenlive:id">58</property>
   <filter id="filter109" in="00:00:00.400" out="00:00:00.720">
    <property name="start">1</property>
    <property name="level">1</property>
    <property name="mlt_service">brightness</property>
    <property name="kdenlive_id">fade_to_black</property>
    <property name="alpha">00:00:00.000=1;00:00:00.320=0</property>
   </filter>
   <filter id="filter110">
    <property name="rotate_center">1</property>
    <property name="mlt_service">qtblend</property>
    <property name="kdenlive_id">qtblend</property>
    <property name="rect">0=27 61 1026 1824 1.000000;1=-27 -62 1134 2016 1.000000;2=0 0 1080 1920 1.000000</property>
    <property name="rotation">0=0;1=0;2=0</property>
    <property name="compositing">0</property>
    <property name="distort">0</property>
   </filter>
  </entry>
  <entry producer="producer85" in="00:00:00.000" out="00:00:00.480">
   <property name="kdenlive:id">98</property>
   <filter id="filter111">
    <property name="rotate_center">1</property>
    <property name="mlt_service">qtblend</property>
    <property name="kdenlive_id">qtblend</property>
    <property name="rect">0=27 61 1026 1824 1.000000;1=-27 -62 1134 2016 1.000000;2=0 0 1080 1920 1.000000</property>
    <property name="rotation">0=0;1=0;2=0</property>
    <property name="compositing">0</property>
    <property name="distort">0</property>
   </filter>
  </entry>
 </playlist>
 <playlist id="playlist11"/>
 <tractor id="tractor5" in="00:00:00.000" out="00:00:37.360">
  <property name="kdenlive:trackheight">67</property>
  <property name="kdenlive:timeline_active">1</property>
  <property name="kdenlive:collapsed">0</property>
  <property name="kdenlive:thumbs_format"/>
  <property name="kdenlive:audio_rec"/>
  <track hide="audio" producer="playlist10"/>
  <track hide="audio" producer="playlist11"/>
 </tractor>
 <chain id="chain5" out="00:00:13.320">
  <property name="length">334</property>
  <property name="eof">pause</property>
  <property name="resource">/home/liquidzulu/Videos/yt/b-roll/USA Flag Waving [dx7CNovrg-A].webm</property>
  <property name="mlt_service">avformat-novalidate</property>
  <property name="seekable">1</property>
  <property name="format">3</property>
  <property name="audio_index">1</property>
  <property name="video_index">0</property>
  <property name="kdenlive:clipname"/>
  <property name="kdenlive:clip_type">0</property>
  <property name="kdenlive:folderid">7</property>
  <property name="kdenlive:id">5</property>
  <property name="kdenlive:file_size">1109075</property>
  <property name="kdenlive:file_hash">8493e95dd605e57476ac6a280219718f</property>
  <property name="kdenlive:audio_max1">1</property>
  <property name="meta.media.nb_streams">2</property>
  <property name="meta.media.0.stream.type">video</property>
  <property name="meta.media.0.stream.frame_rate">29.97</property>
  <property name="meta.media.0.stream.sample_aspect_ratio">1</property>
  <property name="meta.media.0.codec.width">1280</property>
  <property name="meta.media.0.codec.height">720</property>
  <property name="meta.media.0.codec.rotate">0</property>
  <property name="meta.media.0.codec.pix_fmt">yuv420p</property>
  <property name="meta.media.0.codec.sample_aspect_ratio">0</property>
  <property name="meta.media.0.codec.colorspace">709</property>
  <property name="meta.media.0.codec.color_trc">1</property>
  <property name="meta.media.0.codec.name">vp9</property>
  <property name="meta.media.0.codec.long_name">Google VP9</property>
  <property name="meta.media.0.codec.bit_rate">0</property>
  <property name="meta.attr.0.stream.language.markup">eng</property>
  <property name="meta.attr.0.stream.DURATION.markup">00:00:13.346000000</property>
  <property name="meta.media.1.stream.type">audio</property>
  <property name="meta.media.1.codec.sample_fmt">fltp</property>
  <property name="meta.media.1.codec.sample_rate">48000</property>
  <property name="meta.media.1.codec.channels">2</property>
  <property name="meta.media.1.codec.name">opus</property>
  <property name="meta.media.1.codec.long_name">Opus</property>
  <property name="meta.media.1.codec.bit_rate">0</property>
  <property name="meta.attr.1.stream.language.markup">eng</property>
  <property name="meta.attr.1.stream.DURATION.markup">00:00:13.361000000</property>
  <property name="meta.attr.ENCODER.markup">Lavf59.27.100</property>
  <property name="meta.media.sample_aspect_num">1</property>
  <property name="meta.media.sample_aspect_den">1</property>
  <property name="meta.media.frame_rate_num">30000</property>
  <property name="meta.media.frame_rate_den">1001</property>
  <property name="meta.media.colorspace">709</property>
  <property name="meta.media.color_trc">1</property>
  <property name="meta.media.has_b_frames">0</property>
  <property name="meta.media.width">1280</property>
  <property name="meta.media.height">720</property>
  <property name="meta.media.color_range">mpeg</property>
  <property name="xml">was here</property>
  <property name="meta.media.top_field_first">0</property>
  <property name="meta.media.progressive">1</property>
  <property name="set.test_audio">1</property>
  <property name="set.test_image">0</property>
  <property name="mute_on_pause">1</property>
 </chain>
 <playlist id="playlist12">
  <entry producer="producer64" in="00:00:00.000" out="00:00:02.800">
   <property name="kdenlive:id">9</property>
   <filter id="filter112">
    <property name="rotate_center">1</property>
    <property name="mlt_service">qtblend</property>
    <property name="kdenlive_id">qtblend</property>
    <property name="rect">00:00:00.000~=486 868 101 180 1.000000;00:00:00.280~=-27 -48 1134 2016 1.000000;00:00:02.800=-54 -34 1188 2112 1.000000</property>
    <property name="rotation">00:00:00.000~=-360;00:00:00.280~=0;00:00:02.800=29</property>
    <property name="compositing">0</property>
    <property name="distort">0</property>
    <property name="kdenlive:collapsed">0</property>
   </filter>
  </entry>
  <blank length="00:00:07.120"/>
  <entry producer="chain5" in="00:00:00.000" out="00:00:01.320">
   <property name="kdenlive:id">5</property>
   <filter id="filter113">
    <property name="rotate_center">1</property>
    <property name="mlt_service">qtblend</property>
    <property name="kdenlive_id">qtblend</property>
    <property name="rect">00:00:00.000=-1386 -2474 3870 6880 0.480000</property>
    <property name="rotation">00:00:00.000=27</property>
    <property name="compositing">0</property>
    <property name="distort">0</property>
    <property name="kdenlive:collapsed">0</property>
   </filter>
   <filter id="filter114" out="00:00:00.240">
    <property name="start">1</property>
    <property name="level">1</property>
    <property name="mlt_service">brightness</property>
    <property name="kdenlive_id">fade_from_black</property>
    <property name="alpha">00:00:00.000=0;00:00:00.240=1</property>
    <property name="kdenlive:collapsed">0</property>
   </filter>
  </entry>
  <blank length="00:00:06.080"/>
  <entry producer="producer65" in="00:00:00.000" out="00:00:00.440">
   <property name="kdenlive:id">15</property>
   <filter id="filter115">
    <property name="rotate_center">1</property>
    <property name="mlt_service">qtblend</property>
    <property name="kdenlive_id">qtblend</property>
    <property name="rect">00:00:00.000=-398 646 1883 3349 1.000000;00:00:00.440=-398 -2096 1883 3349 1.000000</property>
    <property name="rotation">00:00:00.000=0;00:00:00.440=0</property>
    <property name="compositing">0</property>
    <property name="distort">0</property>
    <property name="kdenlive:collapsed">0</property>
   </filter>
  </entry>
  <blank length="00:00:02.760"/>
  <entry producer="producer66" in="00:00:00.000" out="00:00:02.240">
   <property name="kdenlive:id">82</property>
   <filter id="filter116">
    <property name="rotate_center">1</property>
    <property name="mlt_service">qtblend</property>
    <property name="kdenlive_id">qtblend</property>
    <property name="rect">00:00:00.000=189 -1249 702 1248 1.000000;00:00:00.160=189 32 702 1248 1.000000;00:00:00.240=189 -23 702 1248 1.000000;00:00:02.000=189 -23 702 1248 1.000000;00:00:02.080=189 61 702 1248 1.000000;00:00:02.240=189 -1406 702 1248 1.000000</property>
    <property name="rotation">00:00:00.000=0;00:00:00.160=0;00:00:00.240=0;00:00:02.000=0;00:00:02.080=0;00:00:02.240=0</property>
    <property name="compositing">0</property>
    <property name="distort">0</property>
    <property name="kdenlive:collapsed">0</property>
   </filter>
  </entry>
  <blank length="00:00:07.080"/>
  <entry producer="producer1" in="00:00:00.000" out="00:00:00.360">
   <property name="kdenlive:id">83</property>
   <filter id="filter117">
    <property name="rotate_center">1</property>
    <property name="mlt_service">qtblend</property>
    <property name="kdenlive_id">qtblend</property>
    <property name="rect">00:00:00.000=-1685 -1765 3069 5456 1.000000;00:00:00.360=-1652 -1765 3069 5456 1.000000;00:00:08.040=-970 -1765 3069 5456 1.000000</property>
    <property name="rotation">00:00:00.000=0;00:00:00.360=0;00:00:08.040=0</property>
    <property name="compositing">0</property>
    <property name="distort">0</property>
    <property name="kdenlive:collapsed">0</property>
   </filter>
   <filter id="filter118">
    <property name="mode">alpha</property>
    <property name="alpha_operation">clear</property>
    <property name="invert">0</property>
    <property name="feather">0</property>
    <property name="feather_passes">1</property>
    <property name="mlt_service">rotoscoping</property>
    <property name="kdenlive_id">rotoscoping</property>
    <property name="spline">{
    "000": [
        [
            [
                -0.14602150537634406,
                0.8929909452197298
            ],
            [
                -0.15591397849462366,
                0.8444108761329304
            ],
            [
                -0.05268817204301073,
                0.8661631419939577
            ]
        ],
        [
            [
                0.256989247311828,
                0.9314199395770392
            ],
            [
                0.3602150537634409,
                0.9531722054380665
            ],
            [
                0.4182795698924731,
                0.9531722054380665
            ]
        ],
        [
            [
                0.5924731182795699,
                0.9531722054380665
            ],
            [
                0.6505376344086022,
                0.9531722054380665
            ],
            [
                0.7301075268817204,
                0.9199395770392749
            ]
        ],
        [
            [
                0.9688172043010752,
                0.8202416918429003
            ],
            [
                1.0483870967741935,
                0.7870090634441087
            ],
            [
                1.0741935483870966,
                0.8427190415755841
            ]
        ],
        [
            [
                1.1516129032258065,
                1.00984897597001
            ],
            [
                1.1774193548387095,
                1.0655589541014854
            ],
            [
                0.9206451612903226,
                1.0699094075945736
            ]
        ],
        [
            [
                0.1503225806451613,
                1.0829607680738387
            ],
            [
                -0.1064516129032258,
                1.0873112215669272
            ],
            [
                -0.11634408602150538,
                1.0387311524801277
            ]
        ]
    ],
    "001": [
        [
            [
                -0.14817204301075268,
                0.7117220750776124
            ],
            [
                -0.15806451612903227,
                0.6631420059908132
            ],
            [
                -0.054838709677419356,
                0.6848942718518404
            ]
        ],
        [
            [
                0.32580645161290306,
                0.804531746120599
            ],
            [
                0.42903225806451617,
                0.8262840119816262
            ],
            [
                0.48709677419354813,
                0.8262840119816262
            ]
        ],
        [
            [
                0.6419354838709678,
                0.8045317445161845
            ],
            [
                0.7,
                0.8045317445161845
            ],
            [
                0.7795698924731185,
                0.7712991161173929
            ]
        ],
        [
            [
                0.9946236559139785,
                0.6746223669241629
            ],
            [
                1.0741935483870968,
                0.6413897385253713
            ],
            [
                1.1000000000000003,
                0.6970997166568467
            ]
        ],
        [
            [
                1.1516129032258065,
                1.00984897597001
            ],
            [
                1.1774193548387095,
                1.0655589541014854
            ],
            [
                0.9206451612903226,
                1.0699094075945736
            ]
        ],
        [
            [
                0.1503225806451613,
                1.0829607680738387
            ],
            [
                -0.1064516129032258,
                1.0873112215669272
            ],
            [
                -0.11634408602150538,
                1.0387311524801277
            ]
        ]
    ],
    "002": [
        [
            [
                -0.12236559139784949,
                0.6102114935722176
            ],
            [
                -0.13225806451612904,
                0.5616314244854183
            ],
            [
                -0.029032258064516172,
                0.5833836903464455
            ]
        ],
        [
            [
                0.28064516129032235,
                0.6812688971497624
            ],
            [
                0.38387096774193546,
                0.7030211630107897
            ],
            [
                0.4419354838709674,
                0.7030211630107897
            ]
        ],
        [
            [
                0.5903225806451614,
                0.670392761812627
            ],
            [
                0.6483870967741936,
                0.670392761812627
            ],
            [
                0.7279569892473121,
                0.6371601334138355
            ]
        ],
        [
            [
                1.0591397849462365,
                0.5549848958642332
            ],
            [
                1.1387096774193548,
                0.5217522674654418
            ],
            [
                1.164516129032258,
                0.5774622455969171
            ]
        ],
        [
            [
                1.1516129032258065,
                1.00984897597001
            ],
            [
                1.1774193548387095,
                1.0655589541014854
            ],
            [
                0.9206451612903226,
                1.0699094075945736
            ]
        ],
        [
            [
                0.1503225806451613,
                1.0829607680738387
            ],
            [
                -0.1064516129032258,
                1.0873112215669272
            ],
            [
                -0.11634408602150538,
                1.0387311524801277
            ]
        ]
    ],
    "003": [
        [
            [
                -0.09010752688172045,
                0.46519637713593903
            ],
            [
                -0.1,
                0.41661630804914
            ],
            [
                0.003225806451612864,
                0.4383685739101671
            ]
        ],
        [
            [
                0.34516129032258036,
                0.5435045365352981
            ],
            [
                0.4483870967741935,
                0.5652568023963253
            ],
            [
                0.5064516129032256,
                0.5652568023963253
            ]
        ],
        [
            [
                0.6096774193548389,
                0.5507552907526974
            ],
            [
                0.667741935483871,
                0.5507552907526974
            ],
            [
                0.7473118279569896,
                0.5175226623539058
            ]
        ],
        [
            [
                1.046236559139786,
                0.4280966689824893
            ],
            [
                1.1258064516129034,
                0.39486404058369823
            ],
            [
                1.1516129032258076,
                0.4505740187151732
            ]
        ],
        [
            [
                1.1516129032258065,
                1.00984897597001
            ],
            [
                1.1774193548387095,
                1.0655589541014854
            ],
            [
                0.9206451612903226,
                1.0699094075945736
            ]
        ],
        [
            [
                0.1503225806451613,
                1.0829607680738387
            ],
            [
                -0.1064516129032258,
                1.0873112215669272
            ],
            [
                -0.11634408602150538,
                1.0387311524801277
            ]
        ]
    ],
    "004": [
        [
            [
                -0.057849462365591416,
                0.36006041771963726
            ],
            [
                -0.06774193548387096,
                0.31148034863283824
            ],
            [
                0.0354838709677419,
                0.3332326144938653
            ]
        ],
        [
            [
                0.35806451612903195,
                0.42386706547536845
            ],
            [
                0.4612903225806452,
                0.44561933133639564
            ],
            [
                0.5193548387096772,
                0.44561933133639564
            ]
        ],
        [
            [
                0.5903225806451614,
                0.4419939534254887
            ],
            [
                0.6483870967741936,
                0.4419939534254887
            ],
            [
                0.7279569892473122,
                0.40876132502669704
            ]
        ],
        [
            [
                0.9881720430107536,
                0.31933533165528066
            ],
            [
                1.067741935483871,
                0.2861027032564895
            ],
            [
                1.0935483870967748,
                0.34181268138796456
            ]
        ],
        [
            [
                1.1516129032258065,
                1.00984897597001
            ],
            [
                1.1774193548387095,
                1.0655589541014854
            ],
            [
                0.9206451612903226,
                1.0699094075945736
            ]
        ],
        [
            [
                0.1503225806451613,
                1.0829607680738387
            ],
            [
                -0.1064516129032258,
                1.0873112215669272
            ],
            [
                -0.11634408602150538,
                1.0387311524801277
            ]
        ]
    ],
    "005": [
        [
            [
                -0.09700407860585837,
                0.23823523333596047
            ],
            [
                -0.10689655172413794,
                0.18965516424916143
            ],
            [
                -0.003670745272525056,
                0.21140743011018845
            ]
        ],
        [
            [
                0.34619948090470865,
                0.28428221179469865
            ],
            [
                0.4494252873563218,
                0.3060344776557259
            ],
            [
                0.507489803485354,
                0.3060344776557259
            ]
        ],
        [
            [
                0.5568780126066001,
                0.2879310289035936
            ],
            [
                0.6149425287356323,
                0.2879310289035936
            ],
            [
                0.6945124212087509,
                0.25469840050480197
            ]
        ],
        [
            [
                1.0181312569521697,
                0.17892227424991708
            ],
            [
                1.0977011494252873,
                0.14568964585112595
            ],
            [
                1.1235076010381913,
                0.201399623982601
            ]
        ],
        [
            [
                1.1516129032258065,
                1.00984897597001
            ],
            [
                1.1774193548387095,
                1.0655589541014854
            ],
            [
                0.9206451612903226,
                1.0699094075945736
            ]
        ],
        [
            [
                0.1503225806451613,
                1.0829607680738387
            ],
            [
                -0.1064516129032258,
                1.0873112215669272
            ],
            [
                -0.11634408602150538,
                1.0387311524801277
            ]
        ]
    ],
    "006": [
        [
            [
                -0.0464293659621802,
                0.0985800572480831
            ],
            [
                -0.05632183908045977,
                0.04999998816128404
            ],
            [
                0.04690396737115313,
                0.07175225402231106
            ]
        ],
        [
            [
                0.3645902855024098,
                0.16273048445895352
            ],
            [
                0.46781609195402296,
                0.18448275031998077
            ],
            [
                0.5258806080830551,
                0.18448275031998077
            ]
        ],
        [
            [
                0.570671116054876,
                0.16896550853243883
            ],
            [
                0.628735632183908,
                0.16896550853243883
            ],
            [
                0.7083055246570267,
                0.13573288013364718
            ]
        ],
        [
            [
                1.0089358546533191,
                0.05737054691417192
            ],
            [
                1.0885057471264368,
                0.024137918515380823
            ],
            [
                1.1143121987393407,
                0.07984789664685585
            ]
        ],
        [
            [
                1.1516129032258065,
                1.00984897597001
            ],
            [
                1.1774193548387095,
                1.0655589541014854
            ],
            [
                0.9206451612903226,
                1.0699094075945736
            ]
        ],
        [
            [
                0.1503225806451613,
                1.0829607680738387
            ],
            [
                -0.1064516129032258,
                1.0873112215669272
            ],
            [
                -0.11634408602150538,
                1.0387311524801277
            ]
        ]
    ],
    "007": [
        [
            [
                -0.032636262513904335,
                -0.02297167008766202
            ],
            [
                -0.04252873563218391,
                -0.07155173917446109
            ],
            [
                0.06069707081942902,
                -0.04979947331343407
            ]
        ],
        [
            [
                0.31861327400815703,
                0.015316687477305184
            ],
            [
                0.4218390804597701,
                0.037068953338332426
            ],
            [
                0.47990359658880233,
                0.037068953338332426
            ]
        ],
        [
            [
                0.570671116054876,
                0.037068953338332426
            ],
            [
                0.628735632183908,
                0.037068953338332426
            ],
            [
                0.7083055246570267,
                0.003836324939540773
            ]
        ],
        [
            [
                1.0457174638487217,
                -0.02280186898812805
            ],
            [
                1.125287356321839,
                -0.05603449738691915
            ],
            [
                1.151093807934743,
                -0.0003245192554441223
            ]
        ],
        [
            [
                1.1516129032258065,
                1.00984897597001
            ],
            [
                1.1774193548387095,
                1.0655589541014854
            ],
            [
                0.9206451612903226,
                1.0699094075945736
            ]
        ],
        [
            [
                0.1503225806451613,
                1.0829607680738387
            ],
            [
                -0.1064516129032258,
                1.0873112215669272
            ],
            [
                -0.11634408602150538,
                1.0387311524801277
            ]
        ]
    ],
    "008": [
        [
            [
                -0.032636262513904335,
                -0.02297167008766202
            ],
            [
                -0.04252873563218391,
                -0.07155173917446109
            ],
            [
                0.06069707081942902,
                -0.04979947331343407
            ]
        ],
        [
            [
                0.35539488320355933,
                -0.07002814235417545
            ],
            [
                0.4586206896551724,
                -0.04827587649314819
            ],
            [
                0.5166852057842045,
                -0.04827587649314819
            ]
        ],
        [
            [
                0.570671116054876,
                -0.05344829042232883
            ],
            [
                0.628735632183908,
                -0.05344829042232883
            ],
            [
                0.7083055246570267,
                -0.08668091882112049
            ]
        ],
        [
            [
                1.0457174638487217,
                -0.02280186898812805
            ],
            [
                1.125287356321839,
                -0.05603449738691915
            ],
            [
                1.151093807934743,
                -0.0003245192554441223
            ]
        ],
        [
            [
                1.1516129032258065,
                1.00984897597001
            ],
            [
                1.1774193548387095,
                1.0655589541014854
            ],
            [
                0.9206451612903226,
                1.0699094075945736
            ]
        ],
        [
            [
                0.1503225806451613,
                1.0829607680738387
            ],
            [
                -0.1064516129032258,
                1.0873112215669272
            ],
            [
                -0.11634408602150538,
                1.0387311524801277
            ]
        ]
    ]
}
</property>
    <property name="kdenlive:collapsed">1</property>
   </filter>
  </entry>
 </playlist>
 <playlist id="playlist13"/>
 <tractor id="tractor6" in="00:00:00.000" out="00:00:30.360">
  <property name="kdenlive:trackheight">67</property>
  <property name="kdenlive:timeline_active">1</property>
  <property name="kdenlive:collapsed">28</property>
  <property name="kdenlive:thumbs_format"/>
  <property name="kdenlive:audio_rec"/>
  <track hide="audio" producer="playlist12"/>
  <track hide="audio" producer="playlist13"/>
 </tractor>
 <chain id="chain6" out="00:00:19.000">
  <property name="length">476</property>
  <property name="eof">pause</property>
  <property name="resource">/home/liquidzulu/Videos/yt/b-roll/greenscreen/Fireworks ｜ Green Screen ｜ Free Download [7hvPvctczzg].webm</property>
  <property name="mlt_service">avformat-novalidate</property>
  <property name="seekable">1</property>
  <property name="format">3</property>
  <property name="audio_index">-1</property>
  <property name="video_index">0</property>
  <property name="kdenlive:clipname"/>
  <property name="kdenlive:clip_type">0</property>
  <property name="kdenlive:folderid">-1</property>
  <property name="kdenlive:id">17</property>
  <property name="kdenlive:file_size">1525810</property>
  <property name="kdenlive:file_hash">17229f45fd3a72b543fcdde8a5ed2424</property>
  <property name="kdenlive:audio_max1">1</property>
  <property name="kdenlive:active_streams">-1</property>
  <property name="set.test_audio">1</property>
  <property name="meta.media.nb_streams">2</property>
  <property name="meta.media.0.stream.type">video</property>
  <property name="meta.media.0.stream.frame_rate">60</property>
  <property name="meta.media.0.stream.sample_aspect_ratio">1</property>
  <property name="meta.media.0.codec.width">1920</property>
  <property name="meta.media.0.codec.height">1080</property>
  <property name="meta.media.0.codec.rotate">0</property>
  <property name="meta.media.0.codec.pix_fmt">yuv420p</property>
  <property name="meta.media.0.codec.sample_aspect_ratio">0</property>
  <property name="meta.media.0.codec.colorspace">709</property>
  <property name="meta.media.0.codec.color_trc">1</property>
  <property name="meta.media.0.codec.name">vp9</property>
  <property name="meta.media.0.codec.long_name">Google VP9</property>
  <property name="meta.media.0.codec.bit_rate">0</property>
  <property name="meta.attr.0.stream.language.markup">eng</property>
  <property name="meta.attr.0.stream.DURATION.markup">00:00:18.983000000</property>
  <property name="meta.media.1.stream.type">audio</property>
  <property name="meta.media.1.codec.sample_fmt">fltp</property>
  <property name="meta.media.1.codec.sample_rate">48000</property>
  <property name="meta.media.1.codec.channels">2</property>
  <property name="meta.media.1.codec.name">opus</property>
  <property name="meta.media.1.codec.long_name">Opus</property>
  <property name="meta.media.1.codec.bit_rate">0</property>
  <property name="meta.attr.1.stream.language.markup">eng</property>
  <property name="meta.attr.1.stream.DURATION.markup">00:00:19.021000000</property>
  <property name="meta.attr.ENCODER.markup">Lavf59.27.100</property>
  <property name="meta.media.sample_aspect_num">1</property>
  <property name="meta.media.sample_aspect_den">1</property>
  <property name="meta.media.frame_rate_num">60</property>
  <property name="meta.media.frame_rate_den">1</property>
  <property name="meta.media.colorspace">709</property>
  <property name="meta.media.color_trc">1</property>
  <property name="meta.media.has_b_frames">0</property>
  <property name="meta.media.width">1920</property>
  <property name="meta.media.height">1080</property>
  <property name="meta.media.color_range">mpeg</property>
  <property name="xml">was here</property>
  <property name="meta.media.top_field_first">0</property>
  <property name="meta.media.progressive">1</property>
  <property name="set.test_image">0</property>
  <property name="mute_on_pause">1</property>
 </chain>
 <playlist id="playlist14">
  <entry producer="chain6" in="00:00:01.000" out="00:00:03.800">
   <property name="kdenlive:id">17</property>
   <filter id="filter119">
    <property name="rotate_center">1</property>
    <property name="mlt_service">qtblend</property>
    <property name="kdenlive_id">qtblend</property>
    <property name="rect">00:00:01.000=361 -566 1224 1912 1.000000</property>
    <property name="rotation">00:00:01.000=-13</property>
    <property name="compositing">0</property>
    <property name="distort">0</property>
    <property name="kdenlive:collapsed">0</property>
   </filter>
   <filter id="filter120">
    <property name="key">00:00:01.000=0x01b140ff</property>
    <property name="variance">0.198</property>
    <property name="mlt_service">chroma</property>
    <property name="kdenlive_id">chroma</property>
    <property name="kdenlive:collapsed">0</property>
   </filter>
  </entry>
  <blank length="00:00:07.120"/>
  <entry producer="producer67" in="00:00:00.000" out="00:00:01.520">
   <property name="kdenlive:id">38</property>
   <filter id="filter121">
    <property name="rotate_center">1</property>
    <property name="mlt_service">qtblend</property>
    <property name="kdenlive_id">qtblend</property>
    <property name="rect">00:00:00.000~=535 950 10 19 1.000000;00:00:00.280~=0 0 1080 1920 1.000000;00:00:00.360~=-46 -78 1170 2080 1.000000;00:00:00.640~=-27 -24 1135 2017 1.000000;00:00:00.840~=20 75 1044 1856 1.000000;00:00:01.040=-54 -96 1188 2112 1.000000;00:00:01.520~=-6957 -12871 15030 26720 1.000000</property>
    <property name="rotation">00:00:00.000~=-360;00:00:00.280~=0;00:00:00.360~=7;00:00:00.640~=-5;00:00:00.840~=-3.25;00:00:01.040=0;00:00:01.520~=16</property>
    <property name="compositing">0</property>
    <property name="distort">0</property>
    <property name="kdenlive:collapsed">0</property>
   </filter>
   <filter id="filter122" in="00:00:01.320" out="00:00:01.520">
    <property name="start">1</property>
    <property name="level">1</property>
    <property name="mlt_service">brightness</property>
    <property name="kdenlive_id">fade_to_black</property>
    <property name="alpha">00:00:00.000=1;00:00:00.200=0</property>
   </filter>
  </entry>
  <blank length="00:00:05.960"/>
  <entry producer="producer68" in="00:00:00.000" out="00:00:00.240">
   <property name="kdenlive:id">53</property>
   <filter id="filter123">
    <property name="rotate_center">1</property>
    <property name="mlt_service">qtblend</property>
    <property name="kdenlive_id">qtblend</property>
    <property name="rect">0=27 61 1026 1824 1.000000;1=-27 -62 1134 2016 1.000000;2=0 0 1080 1920 1.000000</property>
    <property name="rotation">0=0;1=0;2=0</property>
    <property name="compositing">0</property>
    <property name="distort">0</property>
   </filter>
  </entry>
  <entry producer="producer69" in="00:00:00.000" out="00:00:00.320">
   <property name="kdenlive:id">54</property>
   <filter id="filter124">
    <property name="rotate_center">1</property>
    <property name="mlt_service">qtblend</property>
    <property name="kdenlive_id">qtblend</property>
    <property name="rect">0=27 61 1026 1824 1.000000;1=-27 -62 1134 2016 1.000000;2=0 0 1080 1920 1.000000</property>
    <property name="rotation">0=0;1=0;2=0</property>
    <property name="compositing">0</property>
    <property name="distort">0</property>
   </filter>
  </entry>
  <blank length="00:00:11.800"/>
  <entry producer="producer65" in="00:00:00.000" out="00:00:00.440">
   <property name="kdenlive:id">15</property>
   <filter id="filter125">
    <property name="rotate_center">1</property>
    <property name="mlt_service">qtblend</property>
    <property name="kdenlive_id">qtblend</property>
    <property name="rect">00:00:00.000=-398 646 1883 3349 1.000000;00:00:00.440=-398 -2096 1883 3349 1.000000</property>
    <property name="rotation">00:00:00.000=0;00:00:00.440=0</property>
    <property name="compositing">0</property>
    <property name="distort">0</property>
    <property name="kdenlive:collapsed">0</property>
   </filter>
  </entry>
 </playlist>
 <playlist id="playlist15"/>
 <tractor id="tractor7" in="00:00:00.000" out="00:00:30.360">
  <property name="kdenlive:trackheight">67</property>
  <property name="kdenlive:timeline_active">1</property>
  <property name="kdenlive:collapsed">28</property>
  <property name="kdenlive:thumbs_format"/>
  <property name="kdenlive:audio_rec"/>
  <track hide="audio" producer="playlist14"/>
  <track hide="audio" producer="playlist15"/>
 </tractor>
 <chain id="chain7" out="00:00:19.000">
  <property name="length">476</property>
  <property name="eof">pause</property>
  <property name="resource">/home/liquidzulu/Videos/yt/b-roll/greenscreen/Fireworks ｜ Green Screen ｜ Free Download [7hvPvctczzg].webm</property>
  <property name="mlt_service">avformat-novalidate</property>
  <property name="seekable">1</property>
  <property name="format">3</property>
  <property name="audio_index">-1</property>
  <property name="video_index">0</property>
  <property name="kdenlive:clipname"/>
  <property name="kdenlive:clip_type">0</property>
  <property name="kdenlive:folderid">7</property>
  <property name="kdenlive:id">17</property>
  <property name="kdenlive:file_size">1525810</property>
  <property name="kdenlive:file_hash">17229f45fd3a72b543fcdde8a5ed2424</property>
  <property name="kdenlive:audio_max1">1</property>
  <property name="kdenlive:active_streams">-1</property>
  <property name="set.test_audio">1</property>
  <property name="meta.media.nb_streams">2</property>
  <property name="meta.media.0.stream.type">video</property>
  <property name="meta.media.0.stream.frame_rate">60</property>
  <property name="meta.media.0.stream.sample_aspect_ratio">1</property>
  <property name="meta.media.0.codec.width">1920</property>
  <property name="meta.media.0.codec.height">1080</property>
  <property name="meta.media.0.codec.rotate">0</property>
  <property name="meta.media.0.codec.pix_fmt">yuv420p</property>
  <property name="meta.media.0.codec.sample_aspect_ratio">0</property>
  <property name="meta.media.0.codec.colorspace">709</property>
  <property name="meta.media.0.codec.color_trc">1</property>
  <property name="meta.media.0.codec.name">vp9</property>
  <property name="meta.media.0.codec.long_name">Google VP9</property>
  <property name="meta.media.0.codec.bit_rate">0</property>
  <property name="meta.attr.0.stream.language.markup">eng</property>
  <property name="meta.attr.0.stream.DURATION.markup">00:00:18.983000000</property>
  <property name="meta.media.1.stream.type">audio</property>
  <property name="meta.media.1.codec.sample_fmt">fltp</property>
  <property name="meta.media.1.codec.sample_rate">48000</property>
  <property name="meta.media.1.codec.channels">2</property>
  <property name="meta.media.1.codec.name">opus</property>
  <property name="meta.media.1.codec.long_name">Opus</property>
  <property name="meta.media.1.codec.bit_rate">0</property>
  <property name="meta.attr.1.stream.language.markup">eng</property>
  <property name="meta.attr.1.stream.DURATION.markup">00:00:19.021000000</property>
  <property name="meta.attr.ENCODER.markup">Lavf59.27.100</property>
  <property name="meta.media.sample_aspect_num">1</property>
  <property name="meta.media.sample_aspect_den">1</property>
  <property name="meta.media.frame_rate_num">60</property>
  <property name="meta.media.frame_rate_den">1</property>
  <property name="meta.media.colorspace">709</property>
  <property name="meta.media.color_trc">1</property>
  <property name="meta.media.has_b_frames">0</property>
  <property name="meta.media.width">1920</property>
  <property name="meta.media.height">1080</property>
  <property name="meta.media.color_range">mpeg</property>
  <property name="xml">was here</property>
  <property name="meta.media.top_field_first">0</property>
  <property name="meta.media.progressive">1</property>
  <property name="set.test_image">0</property>
  <property name="mute_on_pause">1</property>
 </chain>
 <playlist id="playlist16">
  <entry producer="chain7" in="00:00:06.640" out="00:00:09.440">
   <property name="kdenlive:id">17</property>
   <filter id="filter126">
    <property name="rotate_center">1</property>
    <property name="mlt_service">qtblend</property>
    <property name="kdenlive_id">qtblend</property>
    <property name="rect">00:00:06.640=-418 -490 1080 1920 1.000000</property>
    <property name="rotation">00:00:06.640=41</property>
    <property name="compositing">0</property>
    <property name="distort">0</property>
    <property name="kdenlive:collapsed">1</property>
   </filter>
   <filter id="filter127">
    <property name="key">00:00:06.640=0x01b140ff</property>
    <property name="variance">0.198</property>
    <property name="mlt_service">chroma</property>
    <property name="kdenlive_id">chroma</property>
    <property name="kdenlive:collapsed">0</property>
   </filter>
  </entry>
  <blank length="00:00:08.200"/>
  <entry producer="producer70" in="00:00:00.000" out="00:00:00.480">
   <property name="kdenlive:id">40</property>
   <filter id="filter128">
    <property name="rotate_center">1</property>
    <property name="mlt_service">qtblend</property>
    <property name="kdenlive_id">qtblend</property>
    <property name="rect">0=27 61 1026 1824 1.000000;1=-27 -62 1134 2016 1.000000;2=0 0 1080 1920 1.000000</property>
    <property name="rotation">0=0;1=0;2=0</property>
    <property name="compositing">0</property>
    <property name="distort">0</property>
   </filter>
  </entry>
  <blank length="00:00:18.760"/>
  <entry producer="producer71" in="00:00:00.000" out="00:00:00.080">
   <property name="kdenlive:id">84</property>
   <filter id="filter129">
    <property name="rotate_center">1</property>
    <property name="mlt_service">qtblend</property>
    <property name="kdenlive_id">qtblend</property>
    <property name="rect">0=27 61 1026 1824 1.000000;1=-27 -62 1134 2016 1.000000;2=0 0 1080 1920 1.000000</property>
    <property name="rotation">0=0;1=0;2=0</property>
    <property name="compositing">0</property>
    <property name="distort">0</property>
   </filter>
  </entry>
 </playlist>
 <playlist id="playlist17"/>
 <tractor id="tractor8" in="00:00:00.000" out="00:00:30.400">
  <property name="kdenlive:trackheight">67</property>
  <property name="kdenlive:timeline_active">1</property>
  <property name="kdenlive:collapsed">28</property>
  <property name="kdenlive:thumbs_format"/>
  <property name="kdenlive:audio_rec"/>
  <track hide="audio" producer="playlist16"/>
  <track hide="audio" producer="playlist17"/>
 </tractor>
 <playlist id="playlist18">
  <entry producer="producer72" in="00:00:00.000" out="00:00:02.800">
   <property name="kdenlive:id">11</property>
   <filter id="filter130">
    <property name="rotate_center">1</property>
    <property name="mlt_service">qtblend</property>
    <property name="kdenlive_id">qtblend</property>
    <property name="rect">00:00:00.000=0 -656 1080 1920 1.000000;00:00:00.280=0 46 1080 1920 1.000000;00:00:00.360=0 0 1080 1920 1.000000</property>
    <property name="rotation">00:00:00.000=0;00:00:00.280=0;00:00:00.360=0</property>
    <property name="compositing">0</property>
    <property name="distort">0</property>
    <property name="kdenlive:collapsed">0</property>
   </filter>
  </entry>
 </playlist>
 <playlist id="playlist19"/>
 <tractor id="tractor9" in="00:00:00.000" out="00:00:02.800">
  <property name="kdenlive:trackheight">67</property>
  <property name="kdenlive:timeline_active">1</property>
  <property name="kdenlive:collapsed">28</property>
  <property name="kdenlive:thumbs_format"/>
  <property name="kdenlive:audio_rec"/>
  <track hide="audio" producer="playlist18"/>
  <track hide="audio" producer="playlist19"/>
 </tractor>
 <playlist id="playlist20">
  <blank length="00:00:00.480"/>
  <entry producer="producer73" in="00:00:00.000" out="00:00:02.040">
   <property name="kdenlive:id">14</property>
   <filter id="filter131">
    <property name="rotate_center">1</property>
    <property name="mlt_service">qtblend</property>
    <property name="kdenlive_id">qtblend</property>
    <property name="rect">00:00:00.000=-405 0 1080 1920 1.000000;00:00:00.200=40 0 1080 1920 1.000000;00:00:00.280=0 0 1080 1920 1.000000</property>
    <property name="rotation">00:00:00.000=0;00:00:00.200=0;00:00:00.280=0</property>
    <property name="compositing">0</property>
    <property name="distort">0</property>
    <property name="kdenlive:collapsed">0</property>
   </filter>
   <filter id="filter132" in="00:00:01.800" out="00:00:02.040">
    <property name="start">1</property>
    <property name="level">1</property>
    <property name="mlt_service">brightness</property>
    <property name="kdenlive_id">fade_to_black</property>
    <property name="alpha">00:00:00.000=1;00:00:00.240=0</property>
   </filter>
  </entry>
 </playlist>
 <playlist id="playlist21"/>
 <tractor id="tractor10" in="00:00:00.000" out="00:00:02.520">
  <property name="kdenlive:trackheight">67</property>
  <property name="kdenlive:timeline_active">1</property>
  <property name="kdenlive:collapsed">28</property>
  <property name="kdenlive:thumbs_format"/>
  <property name="kdenlive:audio_rec"/>
  <track hide="audio" producer="playlist20"/>
  <track hide="audio" producer="playlist21"/>
 </tractor>
 <playlist id="playlist22">
  <blank length="00:00:00.640"/>
  <entry producer="producer74" in="00:00:00.000" out="00:00:01.880">
   <property name="kdenlive:id">12</property>
   <filter id="filter133">
    <property name="rotate_center">1</property>
    <property name="mlt_service">qtblend</property>
    <property name="kdenlive_id">qtblend</property>
    <property name="rect">00:00:00.000=1057 0 1080 1920 1.000000;00:00:00.160=-14 0 1080 1920 1.000000;00:00:00.240=0 0 1080 1920 1.000000</property>
    <property name="rotation">00:00:00.000=0;00:00:00.160=0;00:00:00.240=0</property>
    <property name="compositing">0</property>
    <property name="distort">0</property>
    <property name="kdenlive:collapsed">0</property>
   </filter>
   <filter id="filter134" in="00:00:01.640" out="00:00:01.880">
    <property name="start">1</property>
    <property name="level">1</property>
    <property name="mlt_service">brightness</property>
    <property name="kdenlive_id">fade_to_black</property>
    <property name="alpha">00:00:00.000=1;00:00:00.240=0</property>
   </filter>
  </entry>
 </playlist>
 <playlist id="playlist23"/>
 <tractor id="tractor11" in="00:00:00.000" out="00:00:02.520">
  <property name="kdenlive:trackheight">67</property>
  <property name="kdenlive:timeline_active">1</property>
  <property name="kdenlive:collapsed">28</property>
  <property name="kdenlive:thumbs_format"/>
  <property name="kdenlive:audio_rec"/>
  <track hide="audio" producer="playlist22"/>
  <track hide="audio" producer="playlist23"/>
 </tractor>
 <playlist id="playlist24">
  <blank length="00:00:01.280"/>
  <entry producer="producer75" in="00:00:00.000" out="00:00:01.240">
   <property name="kdenlive:id">13</property>
   <filter id="filter135">
    <property name="rotate_center">0</property>
    <property name="mlt_service">qtblend</property>
    <property name="kdenlive_id">qtblend</property>
    <property name="rect">00:00:00.000=432 1274 216 384 1.000000;00:00:00.200=-54 -181 1188 2112 1.000000;00:00:00.320=0 0 1080 1920 1.000000</property>
    <property name="rotation">00:00:00.000=0;00:00:00.200=0;00:00:00.320=0</property>
    <property name="compositing">0</property>
    <property name="distort">0</property>
    <property name="kdenlive:collapsed">0</property>
   </filter>
   <filter id="filter136" in="00:00:01.000" out="00:00:01.240">
    <property name="start">1</property>
    <property name="level">1</property>
    <property name="mlt_service">brightness</property>
    <property name="kdenlive_id">fade_to_black</property>
    <property name="alpha">00:00:00.000=1;00:00:00.240=0</property>
    <property name="kdenlive:collapsed">0</property>
   </filter>
  </entry>
 </playlist>
 <playlist id="playlist25"/>
 <tractor id="tractor12" in="00:00:00.000" out="00:00:02.520">
  <property name="kdenlive:trackheight">67</property>
  <property name="kdenlive:timeline_active">1</property>
  <property name="kdenlive:collapsed">28</property>
  <property name="kdenlive:thumbs_format"/>
  <property name="kdenlive:audio_rec"/>
  <track hide="audio" producer="playlist24"/>
  <track hide="audio" producer="playlist25"/>
 </tractor>
 <playlist id="playlist26">
  <blank length="00:00:02.440"/>
  <entry producer="producer2" in="00:00:00.000" out="00:00:00.360">
   <property name="kdenlive:id">19</property>
   <filter id="filter137">
    <property name="rotate_center">1</property>
    <property name="mlt_service">qtblend</property>
    <property name="kdenlive_id">qtblend</property>
    <property name="rect">00:00:00.000=-764 -2185 3546 6304 1.000000;00:00:00.360=-780 -2185 3546 6304 1.000000;00:00:08.840=-1162 -2185 3546 6304 1.000000</property>
    <property name="rotation">00:00:00.000=0;00:00:00.360=0;00:00:08.840=0</property>
    <property name="compositing">0</property>
    <property name="distort">0</property>
    <property name="kdenlive:collapsed">1</property>
   </filter>
   <filter id="filter138">
    <property name="mode">alpha</property>
    <property name="alpha_operation">clear</property>
    <property name="invert">0</property>
    <property name="feather">0</property>
    <property name="feather_passes">1</property>
    <property name="mlt_service">rotoscoping</property>
    <property name="kdenlive_id">rotoscoping</property>
    <property name="spline">{
    "000": [
        [
            [
                -0.14602150537634406,
                0.8929909452197298
            ],
            [
                -0.15591397849462366,
                0.8444108761329304
            ],
            [
                -0.05268817204301073,
                0.8661631419939577
            ]
        ],
        [
            [
                0.256989247311828,
                0.9314199395770392
            ],
            [
                0.3602150537634409,
                0.9531722054380665
            ],
            [
                0.4182795698924731,
                0.9531722054380665
            ]
        ],
        [
            [
                0.5924731182795699,
                0.9531722054380665
            ],
            [
                0.6505376344086022,
                0.9531722054380665
            ],
            [
                0.7301075268817204,
                0.9199395770392749
            ]
        ],
        [
            [
                0.9688172043010752,
                0.8202416918429003
            ],
            [
                1.0483870967741935,
                0.7870090634441087
            ],
            [
                1.0741935483870966,
                0.8427190415755841
            ]
        ],
        [
            [
                1.1516129032258065,
                1.00984897597001
            ],
            [
                1.1774193548387095,
                1.0655589541014854
            ],
            [
                0.9206451612903226,
                1.0699094075945736
            ]
        ],
        [
            [
                0.1503225806451613,
                1.0829607680738387
            ],
            [
                -0.1064516129032258,
                1.0873112215669272
            ],
            [
                -0.11634408602150538,
                1.0387311524801277
            ]
        ]
    ],
    "001": [
        [
            [
                -0.14817204301075268,
                0.7117220750776124
            ],
            [
                -0.15806451612903227,
                0.6631420059908132
            ],
            [
                -0.054838709677419356,
                0.6848942718518404
            ]
        ],
        [
            [
                0.32580645161290306,
                0.804531746120599
            ],
            [
                0.42903225806451617,
                0.8262840119816262
            ],
            [
                0.48709677419354813,
                0.8262840119816262
            ]
        ],
        [
            [
                0.6419354838709678,
                0.8045317445161845
            ],
            [
                0.7,
                0.8045317445161845
            ],
            [
                0.7795698924731185,
                0.7712991161173929
            ]
        ],
        [
            [
                0.9946236559139785,
                0.6746223669241629
            ],
            [
                1.0741935483870968,
                0.6413897385253713
            ],
            [
                1.1000000000000003,
                0.6970997166568467
            ]
        ],
        [
            [
                1.1516129032258065,
                1.00984897597001
            ],
            [
                1.1774193548387095,
                1.0655589541014854
            ],
            [
                0.9206451612903226,
                1.0699094075945736
            ]
        ],
        [
            [
                0.1503225806451613,
                1.0829607680738387
            ],
            [
                -0.1064516129032258,
                1.0873112215669272
            ],
            [
                -0.11634408602150538,
                1.0387311524801277
            ]
        ]
    ],
    "002": [
        [
            [
                -0.12236559139784949,
                0.6102114935722176
            ],
            [
                -0.13225806451612904,
                0.5616314244854183
            ],
            [
                -0.029032258064516172,
                0.5833836903464455
            ]
        ],
        [
            [
                0.28064516129032235,
                0.6812688971497624
            ],
            [
                0.38387096774193546,
                0.7030211630107897
            ],
            [
                0.4419354838709674,
                0.7030211630107897
            ]
        ],
        [
            [
                0.5903225806451614,
                0.670392761812627
            ],
            [
                0.6483870967741936,
                0.670392761812627
            ],
            [
                0.7279569892473121,
                0.6371601334138355
            ]
        ],
        [
            [
                1.0591397849462365,
                0.5549848958642332
            ],
            [
                1.1387096774193548,
                0.5217522674654418
            ],
            [
                1.164516129032258,
                0.5774622455969171
            ]
        ],
        [
            [
                1.1516129032258065,
                1.00984897597001
            ],
            [
                1.1774193548387095,
                1.0655589541014854
            ],
            [
                0.9206451612903226,
                1.0699094075945736
            ]
        ],
        [
            [
                0.1503225806451613,
                1.0829607680738387
            ],
            [
                -0.1064516129032258,
                1.0873112215669272
            ],
            [
                -0.11634408602150538,
                1.0387311524801277
            ]
        ]
    ],
    "003": [
        [
            [
                -0.09010752688172045,
                0.46519637713593903
            ],
            [
                -0.1,
                0.41661630804914
            ],
            [
                0.003225806451612864,
                0.4383685739101671
            ]
        ],
        [
            [
                0.34516129032258036,
                0.5435045365352981
            ],
            [
                0.4483870967741935,
                0.5652568023963253
            ],
            [
                0.5064516129032256,
                0.5652568023963253
            ]
        ],
        [
            [
                0.6096774193548389,
                0.5507552907526974
            ],
            [
                0.667741935483871,
                0.5507552907526974
            ],
            [
                0.7473118279569896,
                0.5175226623539058
            ]
        ],
        [
            [
                1.046236559139786,
                0.4280966689824893
            ],
            [
                1.1258064516129034,
                0.39486404058369823
            ],
            [
                1.1516129032258076,
                0.4505740187151732
            ]
        ],
        [
            [
                1.1516129032258065,
                1.00984897597001
            ],
            [
                1.1774193548387095,
                1.0655589541014854
            ],
            [
                0.9206451612903226,
                1.0699094075945736
            ]
        ],
        [
            [
                0.1503225806451613,
                1.0829607680738387
            ],
            [
                -0.1064516129032258,
                1.0873112215669272
            ],
            [
                -0.11634408602150538,
                1.0387311524801277
            ]
        ]
    ],
    "004": [
        [
            [
                -0.057849462365591416,
                0.36006041771963726
            ],
            [
                -0.06774193548387096,
                0.31148034863283824
            ],
            [
                0.0354838709677419,
                0.3332326144938653
            ]
        ],
        [
            [
                0.35806451612903195,
                0.42386706547536845
            ],
            [
                0.4612903225806452,
                0.44561933133639564
            ],
            [
                0.5193548387096772,
                0.44561933133639564
            ]
        ],
        [
            [
                0.5903225806451614,
                0.4419939534254887
            ],
            [
                0.6483870967741936,
                0.4419939534254887
            ],
            [
                0.7279569892473122,
                0.40876132502669704
            ]
        ],
        [
            [
                0.9881720430107536,
                0.31933533165528066
            ],
            [
                1.067741935483871,
                0.2861027032564895
            ],
            [
                1.0935483870967748,
                0.34181268138796456
            ]
        ],
        [
            [
                1.1516129032258065,
                1.00984897597001
            ],
            [
                1.1774193548387095,
                1.0655589541014854
            ],
            [
                0.9206451612903226,
                1.0699094075945736
            ]
        ],
        [
            [
                0.1503225806451613,
                1.0829607680738387
            ],
            [
                -0.1064516129032258,
                1.0873112215669272
            ],
            [
                -0.11634408602150538,
                1.0387311524801277
            ]
        ]
    ],
    "005": [
        [
            [
                -0.09700407860585837,
                0.23823523333596047
            ],
            [
                -0.10689655172413794,
                0.18965516424916143
            ],
            [
                -0.003670745272525056,
                0.21140743011018845
            ]
        ],
        [
            [
                0.34619948090470865,
                0.28428221179469865
            ],
            [
                0.4494252873563218,
                0.3060344776557259
            ],
            [
                0.507489803485354,
                0.3060344776557259
            ]
        ],
        [
            [
                0.5568780126066001,
                0.2879310289035936
            ],
            [
                0.6149425287356323,
                0.2879310289035936
            ],
            [
                0.6945124212087509,
                0.25469840050480197
            ]
        ],
        [
            [
                1.0181312569521697,
                0.17892227424991708
            ],
            [
                1.0977011494252873,
                0.14568964585112595
            ],
            [
                1.1235076010381913,
                0.201399623982601
            ]
        ],
        [
            [
                1.1516129032258065,
                1.00984897597001
            ],
            [
                1.1774193548387095,
                1.0655589541014854
            ],
            [
                0.9206451612903226,
                1.0699094075945736
            ]
        ],
        [
            [
                0.1503225806451613,
                1.0829607680738387
            ],
            [
                -0.1064516129032258,
                1.0873112215669272
            ],
            [
                -0.11634408602150538,
                1.0387311524801277
            ]
        ]
    ],
    "006": [
        [
            [
                -0.0464293659621802,
                0.0985800572480831
            ],
            [
                -0.05632183908045977,
                0.04999998816128404
            ],
            [
                0.04690396737115313,
                0.07175225402231106
            ]
        ],
        [
            [
                0.3645902855024098,
                0.16273048445895352
            ],
            [
                0.46781609195402296,
                0.18448275031998077
            ],
            [
                0.5258806080830551,
                0.18448275031998077
            ]
        ],
        [
            [
                0.570671116054876,
                0.16896550853243883
            ],
            [
                0.628735632183908,
                0.16896550853243883
            ],
            [
                0.7083055246570267,
                0.13573288013364718
            ]
        ],
        [
            [
                1.0089358546533191,
                0.05737054691417192
            ],
            [
                1.0885057471264368,
                0.024137918515380823
            ],
            [
                1.1143121987393407,
                0.07984789664685585
            ]
        ],
        [
            [
                1.1516129032258065,
                1.00984897597001
            ],
            [
                1.1774193548387095,
                1.0655589541014854
            ],
            [
                0.9206451612903226,
                1.0699094075945736
            ]
        ],
        [
            [
                0.1503225806451613,
                1.0829607680738387
            ],
            [
                -0.1064516129032258,
                1.0873112215669272
            ],
            [
                -0.11634408602150538,
                1.0387311524801277
            ]
        ]
    ],
    "007": [
        [
            [
                -0.032636262513904335,
                -0.02297167008766202
            ],
            [
                -0.04252873563218391,
                -0.07155173917446109
            ],
            [
                0.06069707081942902,
                -0.04979947331343407
            ]
        ],
        [
            [
                0.31861327400815703,
                0.015316687477305184
            ],
            [
                0.4218390804597701,
                0.037068953338332426
            ],
            [
                0.47990359658880233,
                0.037068953338332426
            ]
        ],
        [
            [
                0.570671116054876,
                0.037068953338332426
            ],
            [
                0.628735632183908,
                0.037068953338332426
            ],
            [
                0.7083055246570267,
                0.003836324939540773
            ]
        ],
        [
            [
                1.0457174638487217,
                -0.02280186898812805
            ],
            [
                1.125287356321839,
                -0.05603449738691915
            ],
            [
                1.151093807934743,
                -0.0003245192554441223
            ]
        ],
        [
            [
                1.1516129032258065,
                1.00984897597001
            ],
            [
                1.1774193548387095,
                1.0655589541014854
            ],
            [
                0.9206451612903226,
                1.0699094075945736
            ]
        ],
        [
            [
                0.1503225806451613,
                1.0829607680738387
            ],
            [
                -0.1064516129032258,
                1.0873112215669272
            ],
            [
                -0.11634408602150538,
                1.0387311524801277
            ]
        ]
    ],
    "008": [
        [
            [
                -0.032636262513904335,
                -0.02297167008766202
            ],
            [
                -0.04252873563218391,
                -0.07155173917446109
            ],
            [
                0.06069707081942902,
                -0.04979947331343407
            ]
        ],
        [
            [
                0.35539488320355933,
                -0.07002814235417545
            ],
            [
                0.4586206896551724,
                -0.04827587649314819
            ],
            [
                0.5166852057842045,
                -0.04827587649314819
            ]
        ],
        [
            [
                0.570671116054876,
                -0.05344829042232883
            ],
            [
                0.628735632183908,
                -0.05344829042232883
            ],
            [
                0.7083055246570267,
                -0.08668091882112049
            ]
        ],
        [
            [
                1.0457174638487217,
                -0.02280186898812805
            ],
            [
                1.125287356321839,
                -0.05603449738691915
            ],
            [
                1.151093807934743,
                -0.0003245192554441223
            ]
        ],
        [
            [
                1.1516129032258065,
                1.00984897597001
            ],
            [
                1.1774193548387095,
                1.0655589541014854
            ],
            [
                0.9206451612903226,
                1.0699094075945736
            ]
        ],
        [
            [
                0.1503225806451613,
                1.0829607680738387
            ],
            [
                -0.1064516129032258,
                1.0873112215669272
            ],
            [
                -0.11634408602150538,
                1.0387311524801277
            ]
        ]
    ]
}
</property>
    <property name="kdenlive:collapsed">0</property>
   </filter>
  </entry>
 </playlist>
 <playlist id="playlist27"/>
 <tractor id="tractor13" in="00:00:00.000" out="00:00:02.800">
  <property name="kdenlive:trackheight">67</property>
  <property name="kdenlive:timeline_active">1</property>
  <property name="kdenlive:collapsed">28</property>
  <property name="kdenlive:thumbs_format"/>
  <property name="kdenlive:audio_rec"/>
  <track hide="audio" producer="playlist26"/>
  <track hide="audio" producer="playlist27"/>
 </tractor>
 <playlist id="playlist28">
  <blank length="00:00:02.360"/>
  <entry producer="producer65" in="00:00:00.000" out="00:00:00.440">
   <property name="kdenlive:id">15</property>
   <filter id="filter139">
    <property name="rotate_center">1</property>
    <property name="mlt_service">qtblend</property>
    <property name="kdenlive_id">qtblend</property>
    <property name="rect">00:00:00.000=-398 646 1883 3349 1.000000;00:00:00.440=-398 -2096 1883 3349 1.000000</property>
    <property name="rotation">00:00:00.000=0;00:00:00.440=0</property>
    <property name="compositing">0</property>
    <property name="distort">0</property>
    <property name="kdenlive:collapsed">0</property>
   </filter>
  </entry>
 </playlist>
 <playlist id="playlist29"/>
 <tractor id="tractor14" in="00:00:00.000" out="00:00:02.800">
  <property name="kdenlive:trackheight">67</property>
  <property name="kdenlive:timeline_active">1</property>
  <property name="kdenlive:collapsed">0</property>
  <property name="kdenlive:thumbs_format"/>
  <property name="kdenlive:audio_rec"/>
  <track hide="audio" producer="playlist28"/>
  <track hide="audio" producer="playlist29"/>
 </tractor>
 <playlist id="playlist30">
  <blank length="00:00:02.360"/>
  <entry producer="producer76" in="00:00:00.000" out="00:00:00.320">
   <property name="kdenlive:id">20</property>
   <property name="kdenlive:activeeffect">0</property>
   <filter id="filter140">
    <property name="rotate_center">1</property>
    <property name="mlt_service">qtblend</property>
    <property name="kdenlive_id">qtblend</property>
    <property name="rect">00:00:00.000=27 61 1026 1824 1.000000;00:00:00.040=-27 -62 1134 2016 1.000000;00:00:00.080=0 0 1080 1920 1.000000</property>
    <property name="rotation">00:00:00.000=0;00:00:00.040=0;00:00:00.080=0</property>
    <property name="compositing">0</property>
    <property name="distort">0</property>
    <property name="kdenlive:collapsed">0</property>
   </filter>
  </entry>
  <entry producer="producer77" in="00:00:00.000" out="00:00:00.360">
   <property name="kdenlive:id">22</property>
   <filter id="filter141">
    <property name="rotate_center">1</property>
    <property name="mlt_service">qtblend</property>
    <property name="kdenlive_id">qtblend</property>
    <property name="rect">0=27 61 1026 1824 1.000000;1=-27 -62 1134 2016 1.000000;2=0 0 1080 1920 1.000000</property>
    <property name="rotation">0=0;1=0;2=0</property>
    <property name="compositing">0</property>
    <property name="distort">0</property>
   </filter>
  </entry>
 </playlist>
 <playlist id="playlist31"/>
 <tractor id="tractor15" in="00:00:00.000" out="00:00:03.080">
  <property name="kdenlive:trackheight">67</property>
  <property name="kdenlive:timeline_active">1</property>
  <property name="kdenlive:collapsed">0</property>
  <property name="kdenlive:thumbs_format"/>
  <property name="kdenlive:audio_rec"/>
  <track hide="audio" producer="playlist30"/>
  <track hide="audio" producer="playlist31"/>
 </tractor>
 <tractor id="tractor16" in="00:00:00.000" out="00:20:37.400">
  <property name="kdenlive:duration">00:00:37:10</property>
  <property name="kdenlive:maxduration">935</property>
  <property name="kdenlive:clipname">Sequence 1</property>
  <property name="kdenlive:description"/>
  <property name="kdenlive:uuid">{0d668771-e0c5-42be-be08-b14d0f1a9b15}</property>
  <property name="kdenlive:producer_type">17</property>
  <property name="kdenlive:id">3</property>
  <property name="kdenlive:clip_type">0</property>
  <property name="kdenlive:file_hash">d4e64430f617130e9be8c721a310eb14</property>
  <property name="kdenlive:folderid">2</property>
  <property name="kdenlive:sequenceproperties.activeTrack">15</property>
  <property name="kdenlive:sequenceproperties.audioChannels">2</property>
  <property name="kdenlive:sequenceproperties.audioTarget">1</property>
  <property name="kdenlive:sequenceproperties.disablepreview">0</property>
  <property name="kdenlive:sequenceproperties.documentuuid">{0d668771-e0c5-42be-be08-b14d0f1a9b15}</property>
  <property name="kdenlive:sequenceproperties.hasAudio">1</property>
  <property name="kdenlive:sequenceproperties.hasVideo">1</property>
  <property name="kdenlive:sequenceproperties.position">955</property>
  <property name="kdenlive:sequenceproperties.scrollPos">0</property>
  <property name="kdenlive:sequenceproperties.tracks">4</property>
  <property name="kdenlive:sequenceproperties.tracksCount">16</property>
  <property name="kdenlive:sequenceproperties.verticalzoom">1</property>
  <property name="kdenlive:sequenceproperties.videoTarget">2</property>
  <property name="kdenlive:sequenceproperties.zonein">0</property>
  <property name="kdenlive:sequenceproperties.zoneout">306</property>
  <property name="kdenlive:sequenceproperties.zoom">6</property>
  <property name="kdenlive:sequenceproperties.groups">[
]
</property>
  <property name="kdenlive:sequenceproperties.guides">[
]
</property>
  <track producer="producer0"/>
  <track producer="tractor0"/>
  <track producer="tractor1"/>
  <track producer="tractor2"/>
  <track producer="tractor3"/>
  <track producer="tractor4"/>
  <track producer="tractor5"/>
  <track producer="tractor6"/>
  <track producer="tractor7"/>
  <track producer="tractor8"/>
  <track producer="tractor9"/>
  <track producer="tractor10"/>
  <track producer="tractor11"/>
  <track producer="tractor12"/>
  <track producer="tractor13"/>
  <track producer="tractor14"/>
  <track producer="tractor15"/>
  <transition id="transition0">
   <property name="a_track">0</property>
   <property name="b_track">1</property>
   <property name="mlt_service">mix</property>
   <property name="kdenlive_id">mix</property>
   <property name="internal_added">237</property>
   <property name="always_active">1</property>
   <property name="accepts_blanks">1</property>
   <property name="sum">1</property>
  </transition>
  <transition id="transition1">
   <property name="a_track">0</property>
   <property name="b_track">2</property>
   <property name="mlt_service">mix</property>
   <property name="kdenlive_id">mix</property>
   <property name="internal_added">237</property>
   <property name="always_active">1</property>
   <property name="accepts_blanks">1</property>
   <property name="sum">1</property>
  </transition>
  <transition id="transition2">
   <property name="a_track">0</property>
   <property name="b_track">3</property>
   <property name="mlt_service">mix</property>
   <property name="kdenlive_id">mix</property>
   <property name="internal_added">237</property>
   <property name="always_active">1</property>
   <property name="accepts_blanks">1</property>
   <property name="sum">1</property>
  </transition>
  <transition id="transition3">
   <property name="a_track">0</property>
   <property name="b_track">4</property>
   <property name="mlt_service">mix</property>
   <property name="kdenlive_id">mix</property>
   <property name="internal_added">237</property>
   <property name="always_active">1</property>
   <property name="accepts_blanks">1</property>
   <property name="sum">1</property>
  </transition>
  <transition id="transition4">
   <property name="a_track">0</property>
   <property name="b_track">5</property>
   <property name="version">0.1</property>
   <property name="mlt_service">frei0r.cairoblend</property>
   <property name="always_active">1</property>
   <property name="internal_added">237</property>
   <properties name="ctor-0x7f0c663fc6c0"/>
   <properties name="ctor-0x7f0c65bfb6c0"/>
   <properties name="ctor-0x7f0c66bfd6c0"/>
  </transition>
  <transition id="transition5">
   <property name="a_track">0</property>
   <property name="b_track">6</property>
   <property name="version">0.1</property>
   <property name="mlt_service">frei0r.cairoblend</property>
   <property name="always_active">1</property>
   <property name="internal_added">237</property>
   <properties name="ctor-0x7f0c663fc6c0"/>
   <properties name="ctor-0x7f0c66bfd6c0"/>
   <properties name="ctor-0x7f0c65bfb6c0"/>
  </transition>
  <transition id="transition6">
   <property name="a_track">0</property>
   <property name="b_track">7</property>
   <property name="version">0.1</property>
   <property name="mlt_service">frei0r.cairoblend</property>
   <property name="always_active">1</property>
   <property name="internal_added">237</property>
   <properties name="ctor-0x7f0c663fc6c0"/>
  </transition>
  <transition id="transition7">
   <property name="a_track">0</property>
   <property name="b_track">8</property>
   <property name="version">0.1</property>
   <property name="mlt_service">frei0r.cairoblend</property>
   <property name="always_active">1</property>
   <property name="internal_added">237</property>
   <properties name="ctor-0x7f0c663fc6c0"/>
  </transition>
  <transition id="transition8">
   <property name="a_track">0</property>
   <property name="b_track">9</property>
   <property name="version">0.1</property>
   <property name="mlt_service">frei0r.cairoblend</property>
   <property name="always_active">1</property>
   <property name="internal_added">237</property>
   <properties name="ctor-0x7f0c65bfb6c0"/>
   <properties name="ctor-0x7f0c663fc6c0"/>
  </transition>
  <transition id="transition9">
   <property name="a_track">0</property>
   <property name="b_track">10</property>
   <property name="version">0.1</property>
   <property name="mlt_service">frei0r.cairoblend</property>
   <property name="always_active">1</property>
   <property name="internal_added">237</property>
   <properties name="ctor-0x7f0c663fc6c0"/>
   <properties name="ctor-0x7f0c66bfd6c0"/>
   <properties name="ctor-0x7f0c65bfb6c0"/>
  </transition>
  <transition id="transition10">
   <property name="a_track">0</property>
   <property name="b_track">11</property>
   <property name="version">0.1</property>
   <property name="mlt_service">frei0r.cairoblend</property>
   <property name="always_active">1</property>
   <property name="internal_added">237</property>
   <properties name="ctor-0x7f0c65bfb6c0"/>
   <properties name="ctor-0x7f0c663fc6c0"/>
  </transition>
  <transition id="transition11">
   <property name="a_track">0</property>
   <property name="b_track">12</property>
   <property name="version">0.1</property>
   <property name="mlt_service">frei0r.cairoblend</property>
   <property name="always_active">1</property>
   <property name="internal_added">237</property>
   <properties name="ctor-0x7f0c663fc6c0"/>
  </transition>
  <transition id="transition12">
   <property name="a_track">0</property>
   <property name="b_track">13</property>
   <property name="version">0.1</property>
   <property name="mlt_service">frei0r.cairoblend</property>
   <property name="always_active">1</property>
   <property name="internal_added">237</property>
   <properties name="ctor-0x7f0c663fc6c0"/>
  </transition>
  <transition id="transition13">
   <property name="a_track">0</property>
   <property name="b_track">14</property>
   <property name="version">0.1</property>
   <property name="mlt_service">frei0r.cairoblend</property>
   <property name="always_active">1</property>
   <property name="internal_added">237</property>
   <properties name="ctor-0x7f0c663fc6c0"/>
  </transition>
  <transition id="transition14">
   <property name="a_track">0</property>
   <property name="b_track">15</property>
   <property name="version">0.1</property>
   <property name="mlt_service">frei0r.cairoblend</property>
   <property name="always_active">1</property>
   <property name="internal_added">237</property>
   <properties name="ctor-0x7f0c663fc6c0"/>
  </transition>
  <transition id="transition15">
   <property name="a_track">0</property>
   <property name="b_track">16</property>
   <property name="version">0.1</property>
   <property name="mlt_service">frei0r.cairoblend</property>
   <property name="always_active">1</property>
   <property name="internal_added">237</property>
   <properties name="ctor-0x7f0c663fc6c0"/>
  </transition>
  <filter id="filter142">
   <property name="window">75</property>
   <property name="max_gain">20dB</property>
   <property name="mlt_service">volume</property>
   <property name="internal_added">237</property>
   <property name="disable">1</property>
  </filter>
  <filter id="filter143">
   <property name="channel">-1</property>
   <property name="mlt_service">panner</property>
   <property name="internal_added">237</property>
   <property name="start">0.5</property>
   <property name="disable">1</property>
  </filter>
  <filter id="filter144">
   <property name="window">75</property>
   <property name="max_gain">20dB</property>
   <property name="mlt_service">volume</property>
   <property name="internal_added">237</property>
   <property name="disable">1</property>
  </filter>
  <filter id="filter145">
   <property name="channel">-1</property>
   <property name="mlt_service">panner</property>
   <property name="internal_added">237</property>
   <property name="start">0.5</property>
   <property name="disable">1</property>
  </filter>
 </tractor>
 <playlist id="main_bin">
  <property name="kdenlive:folder.-1.2">Sequences</property>
  <property name="kdenlive:folder.-1.7">b roll</property>
  <property name="kdenlive:folder.-1.8">images</property>
  <property name="kdenlive:folder.-1.10">audio</property>
  <property name="kdenlive:folder.-1.18">sfx</property>
  <property name="kdenlive:folder.-1.21">titles</property>
  <property name="kdenlive:docproperties.activetimeline">{0d668771-e0c5-42be-be08-b14d0f1a9b15}</property>
  <property name="kdenlive:docproperties.audioChannels">2</property>
  <property name="kdenlive:docproperties.browserurl">/home/liquidzulu/Videos/</property>
  <property name="kdenlive:docproperties.compositing">1</property>
  <property name="kdenlive:docproperties.documentid">1696351530105</property>
  <property name="kdenlive:docproperties.enableTimelineZone">0</property>
  <property name="kdenlive:docproperties.enableexternalproxy">0</property>
  <property name="kdenlive:docproperties.enableproxy">0</property>
  <property name="kdenlive:docproperties.externalproxyparams"/>
  <property name="kdenlive:docproperties.generateimageproxy">0</property>
  <property name="kdenlive:docproperties.generateproxy">0</property>
  <property name="kdenlive:docproperties.guidesCategories">[
    {
        "color": "#9b59b6",
        "comment": "Category 1",
        "index": 0
    },
    {
        "color": "#3daee9",
        "comment": "Category 2",
        "index": 1
    },
    {
        "color": "#1abc9c",
        "comment": "Category 3",
        "index": 2
    },
    {
        "color": "#1cdc9a",
        "comment": "Category 4",
        "index": 3
    },
    {
        "color": "#c9ce3b",
        "comment": "Category 5",
        "index": 4
    },
    {
        "color": "#fdbc4b",
        "comment": "Category 6",
        "index": 5
    },
    {
        "color": "#f39c1f",
        "comment": "Category 7",
        "index": 6
    },
    {
        "color": "#f47750",
        "comment": "Category 8",
        "index": 7
    },
    {
        "color": "#da4453",
        "comment": "Category 9",
        "index": 8
    }
]
</property>
  <property name="kdenlive:docproperties.kdenliveversion">23.04.3</property>
  <property name="kdenlive:docproperties.opensequences">{0d668771-e0c5-42be-be08-b14d0f1a9b15}</property>
  <property name="kdenlive:docproperties.previewextension"/>
  <property name="kdenlive:docproperties.previewparameters"/>
  <property name="kdenlive:docproperties.profile">/home/liquidzulu/.local/share/kdenlive/profiles/customprofile0</property>
  <property name="kdenlive:docproperties.proxyextension"/>
  <property name="kdenlive:docproperties.proxyimageminsize">2000</property>
  <property name="kdenlive:docproperties.proxyimagesize">800</property>
  <property name="kdenlive:docproperties.proxyminsize">1000</property>
  <property name="kdenlive:docproperties.proxyparams"/>
  <property name="kdenlive:docproperties.proxyresize">640</property>
  <property name="kdenlive:docproperties.rendercategory">Generic (HD for web, mobile devices...)</property>
  <property name="kdenlive:docproperties.rendercustomquality">-1</property>
  <property name="kdenlive:docproperties.renderendguide">-1</property>
  <property name="kdenlive:docproperties.renderexportaudio">0</property>
  <property name="kdenlive:docproperties.renderfullcolorrange">0</property>
  <property name="kdenlive:docproperties.rendermode">0</property>
  <property name="kdenlive:docproperties.renderplay">0</property>
  <property name="kdenlive:docproperties.renderpreview">0</property>
  <property name="kdenlive:docproperties.renderprofile">MP4-H264/AAC</property>
  <property name="kdenlive:docproperties.renderrescale">0</property>
  <property name="kdenlive:docproperties.renderrescaleheight">960</property>
  <property name="kdenlive:docproperties.renderrescalewidth">540</property>
  <property name="kdenlive:docproperties.renderspeed">6</property>
  <property name="kdenlive:docproperties.renderstartguide">-1</property>
  <property name="kdenlive:docproperties.rendertcoverlay">0</property>
  <property name="kdenlive:docproperties.rendertctype">-1</property>
  <property name="kdenlive:docproperties.rendertwopass">0</property>
  <property name="kdenlive:docproperties.renderurl">/home/liquidzulu/Videos/yt/vid-store/fee/americanism.mp4</property>
  <property name="kdenlive:docproperties.seekOffset">30000</property>
  <property name="kdenlive:docproperties.uuid">{0d668771-e0c5-42be-be08-b14d0f1a9b15}</property>
  <property name="kdenlive:docproperties.version">1.1</property>
  <property name="kdenlive:expandedFolders">21</property>
  <property name="kdenlive:binZoom">4</property>
  <property name="kdenlive:documentnotes"/>
  <property name="xml_retain">1</property>
  <entry producer="chain10" in="00:00:00.000" out="00:00:37.360"/>
  <entry producer="chain8" in="00:00:00.000" out="00:00:13.320"/>
  <entry producer="chain9" in="00:00:00.000" out="00:02:07.000"/>
  <entry producer="producer64" in="00:00:00.000" out="00:00:04.960"/>
  <entry producer="producer72" in="00:00:00.000" out="00:00:04.960"/>
  <entry producer="producer74" in="00:00:00.000" out="00:00:04.960"/>
  <entry producer="producer75" in="00:00:00.000" out="00:00:04.960"/>
  <entry producer="producer73" in="00:00:00.000" out="00:00:04.960"/>
  <entry producer="producer65" in="00:00:00.000" out="00:00:04.960"/>
  <entry producer="chain11" in="00:00:00.000" out="00:00:10.200"/>
  <entry producer="chain12" in="00:00:00.000" out="00:00:19.000"/>
  <entry producer="producer2" in="00:00:00.000" out="00:00:08.880"/>
  <entry producer="producer76" in="00:00:00.000" out="00:00:04.960"/>
  <entry producer="producer77" in="00:00:00.000" out="00:00:04.960"/>
  <entry producer="producer5" in="00:00:00.000" out="00:00:04.960"/>
  <entry producer="producer6" in="00:00:00.000" out="00:00:04.960"/>
  <entry producer="producer7" in="00:00:00.000" out="00:00:04.960"/>
  <entry producer="producer8" in="00:00:00.000" out="00:00:04.960"/>
  <entry producer="producer9" in="00:00:00.000" out="00:00:04.960"/>
  <entry producer="producer10" in="00:00:00.000" out="00:00:04.960"/>
  <entry producer="producer11" in="00:00:00.000" out="00:00:04.960"/>
  <entry producer="producer12" in="00:00:00.000" out="00:00:04.960"/>
  <entry producer="producer13" in="00:00:00.000" out="00:00:04.960"/>
  <entry producer="producer14" in="00:00:00.000" out="00:00:04.960"/>
  <entry producer="producer15" in="00:00:00.000" out="00:00:04.960"/>
  <entry producer="producer16" in="00:00:00.000" out="00:00:04.960"/>
  <entry producer="producer17" in="00:00:00.000" out="00:00:04.960"/>
  <entry producer="producer18" in="00:00:00.000" out="00:00:04.960"/>
  <entry producer="chain13" in="00:00:00.000" out="00:30:10.280"/>
  <entry producer="producer67" in="00:00:00.000" out="00:00:04.960"/>
  <entry producer="producer3" in="00:00:00.000" out="00:00:08.240"/>
  <entry producer="producer70" in="00:00:00.000" out="00:00:04.960"/>
  <entry producer="producer20" in="00:00:00.000" out="00:00:04.960"/>
  <entry producer="producer21" in="00:00:00.000" out="00:00:04.960"/>
  <entry producer="producer22" in="00:00:00.000" out="00:00:04.960"/>
  <entry producer="producer23" in="00:00:00.000" out="00:00:04.960"/>
  <entry producer="producer24" in="00:00:00.000" out="00:00:04.960"/>
  <entry producer="producer25" in="00:00:00.000" out="00:00:04.960"/>
  <entry producer="producer26" in="00:00:00.000" out="00:00:04.960"/>
  <entry producer="producer27" in="00:00:00.000" out="00:00:04.960"/>
  <entry producer="producer28" in="00:00:00.000" out="00:00:04.960"/>
  <entry producer="producer29" in="00:00:00.000" out="00:00:04.960"/>
  <entry producer="producer30" in="00:00:00.000" out="00:00:04.960"/>
  <entry producer="producer4" in="00:00:00.000" out="00:00:13.160"/>
  <entry producer="producer68" in="00:00:00.000" out="00:00:04.960"/>
  <entry producer="producer69" in="00:00:00.000" out="00:00:04.960"/>
  <entry producer="producer31" in="00:00:00.000" out="00:00:04.960"/>
  <entry producer="producer32" in="00:00:00.000" out="00:00:04.960"/>
  <entry producer="producer33" in="00:00:00.000" out="00:00:04.960"/>
  <entry producer="producer34" in="00:00:00.000" out="00:00:04.960"/>
  <entry producer="producer35" in="00:00:00.000" out="00:00:04.960"/>
  <entry producer="producer36" in="00:00:00.000" out="00:00:04.960"/>
  <entry producer="producer37" in="00:00:00.000" out="00:00:04.960"/>
  <entry producer="producer38" in="00:00:00.000" out="00:00:04.960"/>
  <entry producer="producer39" in="00:00:00.000" out="00:00:04.960"/>
  <entry producer="producer40" in="00:00:00.000" out="00:00:04.960"/>
  <entry producer="producer41" in="00:00:00.000" out="00:00:04.960"/>
  <entry producer="producer42" in="00:00:00.000" out="00:00:04.960"/>
  <entry producer="producer43" in="00:00:00.000" out="00:00:04.960"/>
  <entry producer="producer44" in="00:00:00.000" out="00:00:04.960"/>
  <entry producer="producer45" in="00:00:00.000" out="00:00:04.960"/>
  <entry producer="producer46" in="00:00:00.000" out="00:00:04.960"/>
  <entry producer="producer47" in="00:00:00.000" out="00:00:04.960"/>
  <entry producer="producer48" in="00:00:00.000" out="00:00:04.960"/>
  <entry producer="producer49" in="00:00:00.000" out="00:00:04.960"/>
  <entry producer="producer50" in="00:00:00.000" out="00:00:04.960"/>
  <entry producer="producer51" in="00:00:00.000" out="00:00:04.960"/>
  <entry producer="producer52" in="00:00:00.000" out="00:00:04.960"/>
  <entry producer="producer53" in="00:00:00.000" out="00:00:04.960"/>
  <entry producer="producer54" in="00:00:00.000" out="00:00:04.960"/>
  <entry producer="producer55" in="00:00:00.000" out="00:00:04.960"/>
  <entry producer="producer56" in="00:00:00.000" out="00:00:04.960"/>
  <entry producer="producer57" in="00:00:00.000" out="00:00:04.960"/>
  <entry producer="producer66" in="00:00:00.000" out="00:00:04.960"/>
  <entry producer="producer1" in="00:00:00.000" out="00:00:08.040"/>
  <entry producer="producer71" in="00:00:00.000" out="00:00:04.960"/>
  <entry producer="producer58" in="00:00:00.000" out="00:00:04.960"/>
  <entry producer="producer59" in="00:00:00.000" out="00:00:04.960"/>
  <entry producer="producer60" in="00:00:00.000" out="00:00:04.960"/>
  <entry producer="producer61" in="00:00:00.000" out="00:00:04.960"/>
  <entry producer="producer62" in="00:00:00.000" out="00:00:04.960"/>
  <entry producer="producer63" in="00:00:00.000" out="00:00:04.960"/>
  <entry producer="tractor16" in="00:00:00.000" out="00:00:37.560"/>
  <entry producer="producer78" in="00:00:00.000" out="00:00:04.960"/>
  <entry producer="producer79" in="00:00:00.000" out="00:00:04.960"/>
  <entry producer="producer80" in="00:00:00.000" out="00:00:04.960"/>
  <entry producer="producer81" in="00:00:00.000" out="00:00:04.960"/>
  <entry producer="producer82" in="00:00:00.000" out="00:00:04.960"/>
  <entry producer="producer83" in="00:00:00.000" out="00:00:04.960"/>
  <entry producer="producer84" in="00:00:00.000" out="00:00:04.960"/>
  <entry producer="producer85" in="00:00:00.000" out="00:00:04.960"/>
 </playlist>
 <tractor id="tractor17" in="00:00:00.000" out="00:00:37.400">
  <property name="kdenlive:projectTractor">1</property>
  <track producer="tractor16" in="00:00:00.000" out="00:00:37.400"/>
 </tractor>
</mlt>
