<?xml version='1.0' encoding='utf-8'?>
<mlt LC_NUMERIC="C" producer="main_bin" version="7.14.0" root="/home/liquidzulu/Documents/youtube-scripts/shorts/fee/socialism-is-when-the-government-does-stuff">
 <profile frame_rate_num="25" sample_aspect_num="1" display_aspect_den="16" colorspace="709" progressive="1" description="1080 vertical" display_aspect_num="9" frame_rate_den="1" width="1080" height="1920" sample_aspect_den="1"/>
 <chain id="chain31" out="00:00:35.600">
  <property name="length">891</property>
  <property name="eof">pause</property>
  <property name="resource">proc.mp3</property>
  <property name="mlt_service">avformat</property>
  <property name="meta.media.nb_streams">1</property>
  <property name="meta.media.0.stream.type">audio</property>
  <property name="meta.media.0.codec.sample_fmt">fltp</property>
  <property name="meta.media.0.codec.sample_rate">44100</property>
  <property name="meta.media.0.codec.channels">2</property>
  <property name="meta.media.0.codec.name">mp3float</property>
  <property name="meta.media.0.codec.long_name">MP3 (MPEG audio layer 3)</property>
  <property name="meta.media.0.codec.bit_rate">192000</property>
  <property name="meta.attr.encoded_by.markup">LAME in FL Studio 21</property>
  <property name="meta.attr.date.markup">2023</property>
  <property name="seekable">1</property>
  <property name="audio_index">0</property>
  <property name="video_index">-1</property>
  <property name="kdenlive:clipname"/>
  <property name="kdenlive:clip_type">1</property>
  <property name="kdenlive:folderid">36</property>
  <property name="kdenlive:id">4</property>
  <property name="kdenlive:file_size">855200</property>
  <property name="kdenlive:file_hash">c5add2883bf55deffbd736ab79cd0931</property>
  <property name="kdenlive:audio_max0">192</property>
  <property name="mute_on_pause">1</property>
 </chain>
 <chain id="chain24" out="00:00:21.440">
  <property name="length">537</property>
  <property name="eof">pause</property>
  <property name="resource">/home/liquidzulu/Videos/yt/b-roll/Socialism Is When The Government Does Stuff [rgiC8YfytDw].webm</property>
  <property name="mlt_service">avformat-novalidate</property>
  <property name="meta.media.nb_streams">2</property>
  <property name="meta.media.0.stream.type">video</property>
  <property name="meta.media.0.stream.frame_rate">29.97</property>
  <property name="meta.media.0.stream.sample_aspect_ratio">1</property>
  <property name="meta.media.0.codec.width">1920</property>
  <property name="meta.media.0.codec.height">1080</property>
  <property name="meta.media.0.codec.rotate">0</property>
  <property name="meta.media.0.codec.pix_fmt">yuv420p</property>
  <property name="meta.media.0.codec.sample_aspect_ratio">0</property>
  <property name="meta.media.0.codec.colorspace">709</property>
  <property name="meta.media.0.codec.color_trc">1</property>
  <property name="meta.media.0.codec.name">vp9</property>
  <property name="meta.media.0.codec.long_name">Google VP9</property>
  <property name="meta.media.0.codec.bit_rate">0</property>
  <property name="meta.attr.0.stream.language.markup">eng</property>
  <property name="meta.attr.0.stream.DURATION.markup">00:00:21.454000000</property>
  <property name="meta.media.1.stream.type">audio</property>
  <property name="meta.media.1.codec.sample_fmt">fltp</property>
  <property name="meta.media.1.codec.sample_rate">48000</property>
  <property name="meta.media.1.codec.channels">2</property>
  <property name="meta.media.1.codec.name">opus</property>
  <property name="meta.media.1.codec.long_name">Opus</property>
  <property name="meta.media.1.codec.bit_rate">0</property>
  <property name="meta.attr.1.stream.language.markup">eng</property>
  <property name="meta.attr.1.stream.DURATION.markup">00:00:21.481000000</property>
  <property name="meta.attr.ENCODER.markup">Lavf59.27.100</property>
  <property name="seekable">1</property>
  <property name="meta.media.sample_aspect_num">1</property>
  <property name="meta.media.sample_aspect_den">1</property>
  <property name="format">3</property>
  <property name="audio_index">1</property>
  <property name="video_index">0</property>
  <property name="meta.media.frame_rate_num">30000</property>
  <property name="meta.media.frame_rate_den">1001</property>
  <property name="meta.media.colorspace">709</property>
  <property name="meta.media.color_trc">1</property>
  <property name="meta.media.has_b_frames">0</property>
  <property name="meta.media.width">1920</property>
  <property name="meta.media.height">1080</property>
  <property name="meta.media.color_range">mpeg</property>
  <property name="kdenlive:clipname"/>
  <property name="meta.media.top_field_first">0</property>
  <property name="meta.media.progressive">1</property>
  <property name="kdenlive:clip_type">0</property>
  <property name="kdenlive:folderid">10</property>
  <property name="kdenlive:id">5</property>
  <property name="kdenlive:file_size">1639691</property>
  <property name="kdenlive:file_hash">753f359cabb088624e72809dd72244c5</property>
  <property name="kdenlive:audio_max1">224</property>
  <property name="mute_on_pause">1</property>
 </chain>
 <chain id="chain23" out="00:00:32.440">
  <property name="length">812</property>
  <property name="eof">pause</property>
  <property name="resource">/home/liquidzulu/Music/sfx/Rumbling Sound Effect [926a-7b9EIs].mp3</property>
  <property name="mlt_service">avformat</property>
  <property name="meta.media.nb_streams">1</property>
  <property name="meta.media.0.stream.type">audio</property>
  <property name="meta.media.0.codec.sample_fmt">fltp</property>
  <property name="meta.media.0.codec.sample_rate">48000</property>
  <property name="meta.media.0.codec.channels">2</property>
  <property name="meta.media.0.codec.name">mp3float</property>
  <property name="meta.media.0.codec.long_name">MP3 (MPEG audio layer 3)</property>
  <property name="meta.media.0.codec.bit_rate">130330</property>
  <property name="meta.attr.0.stream.encoder.markup">Lavc59.37</property>
  <property name="meta.attr.encoder.markup">Lavf59.27.100</property>
  <property name="seekable">1</property>
  <property name="audio_index">0</property>
  <property name="video_index">-1</property>
  <property name="kdenlive:clipname"/>
  <property name="kdenlive:clip_type">1</property>
  <property name="kdenlive:folderid">8</property>
  <property name="kdenlive:id">6</property>
  <property name="kdenlive:file_size">529053</property>
  <property name="kdenlive:file_hash">15a6487084c6edc8a411d63645169983</property>
  <property name="kdenlive:audio_max0">256</property>
  <property name="mute_on_pause">1</property>
 </chain>
 <chain id="chain22" out="00:00:35.520">
  <property name="length">889</property>
  <property name="eof">pause</property>
  <property name="resource">/home/liquidzulu/Music/sfx/Ear Ringing Sound Effect - Free Download HD [rHTinEcgLn0]0001.wav</property>
  <property name="mlt_service">avformat</property>
  <property name="meta.media.nb_streams">1</property>
  <property name="meta.media.0.stream.type">audio</property>
  <property name="meta.media.0.codec.sample_fmt">s16</property>
  <property name="meta.media.0.codec.sample_rate">48000</property>
  <property name="meta.media.0.codec.channels">2</property>
  <property name="meta.media.0.codec.name">pcm_s16le</property>
  <property name="meta.media.0.codec.long_name">PCM signed 16-bit little-endian</property>
  <property name="meta.media.0.codec.bit_rate">1536000</property>
  <property name="meta.attr.encoder.markup">Lavf59.27.100</property>
  <property name="seekable">1</property>
  <property name="audio_index">0</property>
  <property name="video_index">-1</property>
  <property name="kdenlive:clipname"/>
  <property name="kdenlive:clip_type">1</property>
  <property name="kdenlive:folderid">8</property>
  <property name="kdenlive:id">7</property>
  <property name="kdenlive:file_size">6830090</property>
  <property name="kdenlive:file_hash">c0a73a405d78b20a9cea511befa45e25</property>
  <property name="kdenlive:audio_max0">170</property>
  <property name="mute_on_pause">1</property>
 </chain>
 <chain id="chain25" out="00:01:00.000">
  <property name="length">1501</property>
  <property name="eof">pause</property>
  <property name="resource">/home/liquidzulu/Videos/yt/b-roll/Soviet union flag - CCCP flag waving in the wind [xl4T7cQ2vyQ].webm</property>
  <property name="mlt_service">avformat-novalidate</property>
  <property name="meta.media.nb_streams">2</property>
  <property name="meta.media.0.stream.type">video</property>
  <property name="meta.media.0.stream.frame_rate">60</property>
  <property name="meta.media.0.stream.sample_aspect_ratio">1</property>
  <property name="meta.media.0.codec.width">3840</property>
  <property name="meta.media.0.codec.height">2160</property>
  <property name="meta.media.0.codec.rotate">0</property>
  <property name="meta.media.0.codec.pix_fmt">yuv420p</property>
  <property name="meta.media.0.codec.sample_aspect_ratio">0</property>
  <property name="meta.media.0.codec.colorspace">601</property>
  <property name="meta.media.0.codec.color_trc">1</property>
  <property name="meta.media.0.codec.name">vp9</property>
  <property name="meta.media.0.codec.long_name">Google VP9</property>
  <property name="meta.media.0.codec.bit_rate">0</property>
  <property name="meta.attr.0.stream.language.markup">eng</property>
  <property name="meta.attr.0.stream.DURATION.markup">00:01:00.032000000</property>
  <property name="meta.media.1.stream.type">audio</property>
  <property name="meta.media.1.codec.sample_fmt">fltp</property>
  <property name="meta.media.1.codec.sample_rate">48000</property>
  <property name="meta.media.1.codec.channels">2</property>
  <property name="meta.media.1.codec.name">opus</property>
  <property name="meta.media.1.codec.long_name">Opus</property>
  <property name="meta.media.1.codec.bit_rate">0</property>
  <property name="meta.attr.1.stream.language.markup">eng</property>
  <property name="meta.attr.1.stream.DURATION.markup">00:00:59.981000000</property>
  <property name="meta.attr.ENCODER.markup">Lavf59.27.100</property>
  <property name="seekable">1</property>
  <property name="meta.media.sample_aspect_num">1</property>
  <property name="meta.media.sample_aspect_den">1</property>
  <property name="format">3</property>
  <property name="audio_index">1</property>
  <property name="video_index">0</property>
  <property name="meta.media.frame_rate_num">60</property>
  <property name="meta.media.frame_rate_den">1</property>
  <property name="meta.media.colorspace">601</property>
  <property name="meta.media.color_trc">1</property>
  <property name="meta.media.has_b_frames">0</property>
  <property name="meta.media.width">3840</property>
  <property name="meta.media.height">2160</property>
  <property name="meta.media.color_range">mpeg</property>
  <property name="kdenlive:clipname"/>
  <property name="meta.media.top_field_first">0</property>
  <property name="meta.media.progressive">1</property>
  <property name="kdenlive:clip_type">0</property>
  <property name="kdenlive:folderid">10</property>
  <property name="kdenlive:id">9</property>
  <property name="kdenlive:file_size">41139049</property>
  <property name="kdenlive:file_hash">2fc3b4891977f4108d0d30df6726765b</property>
  <property name="kdenlive:audio_max1">248</property>
  <property name="mute_on_pause">1</property>
 </chain>
 <chain id="chain30" out="00:03:44.920">
  <property name="length">5624</property>
  <property name="eof">pause</property>
  <property name="resource">/home/liquidzulu/Music/National Anthem of USSR [U06jlgpMtQs].mp3</property>
  <property name="mlt_service">avformat</property>
  <property name="meta.media.nb_streams">1</property>
  <property name="meta.media.0.stream.type">audio</property>
  <property name="meta.media.0.codec.sample_fmt">fltp</property>
  <property name="meta.media.0.codec.sample_rate">48000</property>
  <property name="meta.media.0.codec.channels">2</property>
  <property name="meta.media.0.codec.name">mp3float</property>
  <property name="meta.media.0.codec.long_name">MP3 (MPEG audio layer 3)</property>
  <property name="meta.media.0.codec.bit_rate">122935</property>
  <property name="meta.attr.0.stream.encoder.markup">Lavc59.37</property>
  <property name="meta.attr.encoder.markup">Lavf59.27.100</property>
  <property name="seekable">1</property>
  <property name="audio_index">0</property>
  <property name="video_index">-1</property>
  <property name="kdenlive:clipname"/>
  <property name="kdenlive:clip_type">1</property>
  <property name="kdenlive:folderid">36</property>
  <property name="kdenlive:id">11</property>
  <property name="kdenlive:file_size">3456861</property>
  <property name="kdenlive:file_hash">11e3df916a8f5e6b6805bda7955e7b73</property>
  <property name="kdenlive:audio_max0">224</property>
  <property name="mute_on_pause">1</property>
 </chain>
 <chain id="chain26" out="00:00:00.600">
  <property name="length">16</property>
  <property name="eof">pause</property>
  <property name="resource">/home/liquidzulu/Music/sfx/Swipe Swoosh Transition Sound Effect [4-lY0NT-bJs].mp3</property>
  <property name="mlt_service">avformat</property>
  <property name="meta.media.nb_streams">1</property>
  <property name="meta.media.0.stream.type">audio</property>
  <property name="meta.media.0.codec.sample_fmt">fltp</property>
  <property name="meta.media.0.codec.sample_rate">48000</property>
  <property name="meta.media.0.codec.channels">2</property>
  <property name="meta.media.0.codec.name">mp3float</property>
  <property name="meta.media.0.codec.long_name">MP3 (MPEG audio layer 3)</property>
  <property name="meta.media.0.codec.bit_rate">84741</property>
  <property name="meta.attr.0.stream.encoder.markup">Lavc59.37</property>
  <property name="meta.attr.encoder.markup">Lavf59.27.100</property>
  <property name="seekable">1</property>
  <property name="audio_index">0</property>
  <property name="video_index">-1</property>
  <property name="kdenlive:clipname"/>
  <property name="kdenlive:clip_type">1</property>
  <property name="kdenlive:folderid">8</property>
  <property name="kdenlive:id">12</property>
  <property name="kdenlive:file_size">6909</property>
  <property name="kdenlive:file_hash">902eb0e6e6b672900d73cb2888241a8d</property>
  <property name="kdenlive:audio_max0">180</property>
  <property name="mute_on_pause">1</property>
 </chain>
 <chain id="chain27" out="00:02:49.400">
  <property name="length">4236</property>
  <property name="eof">pause</property>
  <property name="resource">/home/liquidzulu/Videos/yt/b-roll/WASHINGTON DC in 4K ｜ The United States Capitol [c5yvBK5SDWI].webm</property>
  <property name="mlt_service">avformat-novalidate</property>
  <property name="meta.media.nb_streams">2</property>
  <property name="meta.media.0.stream.type">video</property>
  <property name="meta.media.0.stream.frame_rate">23.976</property>
  <property name="meta.media.0.stream.sample_aspect_ratio">1</property>
  <property name="meta.media.0.codec.width">3840</property>
  <property name="meta.media.0.codec.height">2160</property>
  <property name="meta.media.0.codec.rotate">0</property>
  <property name="meta.media.0.codec.pix_fmt">yuv420p</property>
  <property name="meta.media.0.codec.sample_aspect_ratio">0</property>
  <property name="meta.media.0.codec.colorspace">709</property>
  <property name="meta.media.0.codec.color_trc">1</property>
  <property name="meta.media.0.codec.name">vp9</property>
  <property name="meta.media.0.codec.long_name">Google VP9</property>
  <property name="meta.media.0.codec.bit_rate">0</property>
  <property name="meta.attr.0.stream.language.markup">eng</property>
  <property name="meta.attr.0.stream.DURATION.markup">00:02:49.419000000</property>
  <property name="meta.media.1.stream.type">audio</property>
  <property name="meta.media.1.codec.sample_fmt">fltp</property>
  <property name="meta.media.1.codec.sample_rate">48000</property>
  <property name="meta.media.1.codec.channels">2</property>
  <property name="meta.media.1.codec.name">opus</property>
  <property name="meta.media.1.codec.long_name">Opus</property>
  <property name="meta.media.1.codec.bit_rate">0</property>
  <property name="meta.attr.1.stream.language.markup">eng</property>
  <property name="meta.attr.1.stream.DURATION.markup">00:02:49.441000000</property>
  <property name="meta.attr.ENCODER.markup">Lavf59.27.100</property>
  <property name="seekable">1</property>
  <property name="meta.media.sample_aspect_num">1</property>
  <property name="meta.media.sample_aspect_den">1</property>
  <property name="format">3</property>
  <property name="audio_index">-1</property>
  <property name="video_index">0</property>
  <property name="meta.media.frame_rate_num">24000</property>
  <property name="meta.media.frame_rate_den">1001</property>
  <property name="meta.media.colorspace">709</property>
  <property name="meta.media.color_trc">1</property>
  <property name="meta.media.has_b_frames">0</property>
  <property name="meta.media.width">3840</property>
  <property name="meta.media.height">2160</property>
  <property name="meta.media.color_range">mpeg</property>
  <property name="kdenlive:clipname"/>
  <property name="meta.media.top_field_first">0</property>
  <property name="meta.media.progressive">1</property>
  <property name="kdenlive:clip_type">0</property>
  <property name="kdenlive:folderid">10</property>
  <property name="kdenlive:id">13</property>
  <property name="kdenlive:file_size">313684073</property>
  <property name="kdenlive:file_hash">e5174fa77f2c16f61d02977ad7e420b5</property>
  <property name="kdenlive:audio_max1">211</property>
  <property name="kdenlive:active_streams">-1</property>
  <property name="set.test_audio">1</property>
  <property name="mute_on_pause">1</property>
 </chain>
 <producer id="producer5" in="00:00:00.000" out="00:00:04.960">
  <property name="length">00:00:05.000</property>
  <property name="eof">pause</property>
  <property name="resource">images/dr.xcf</property>
  <property name="ttl">25</property>
  <property name="aspect_ratio">1</property>
  <property name="progressive">1</property>
  <property name="seekable">1</property>
  <property name="format">2</property>
  <property name="meta.media.width">772</property>
  <property name="meta.media.height">1031</property>
  <property name="mlt_service">qimage</property>
  <property name="kdenlive:clipname"/>
  <property name="kdenlive:duration">00:00:05:00</property>
  <property name="kdenlive:folderid">16</property>
  <property name="kdenlive:id">14</property>
  <property name="kdenlive:clip_type">2</property>
  <property name="kdenlive:file_size">1457895</property>
  <property name="kdenlive:file_hash">7c93c7ac7a7eb3acc878d8ebb921469f</property>
 </producer>
 <producer id="producer31" in="00:00:00.000" out="00:00:04.960">
  <property name="length">00:00:05.000</property>
  <property name="eof">pause</property>
  <property name="resource">images/fireman.xcf</property>
  <property name="ttl">25</property>
  <property name="aspect_ratio">1</property>
  <property name="progressive">1</property>
  <property name="seekable">1</property>
  <property name="format">2</property>
  <property name="meta.media.width">816</property>
  <property name="meta.media.height">1017</property>
  <property name="mlt_service">qimage</property>
  <property name="kdenlive:clipname"/>
  <property name="kdenlive:duration">00:00:05:00</property>
  <property name="kdenlive:folderid">16</property>
  <property name="kdenlive:id">15</property>
  <property name="kdenlive:clip_type">2</property>
  <property name="kdenlive:file_size">1587600</property>
  <property name="kdenlive:file_hash">cbab109f717ac497e63b18c909526fcb</property>
 </producer>
 <producer id="producer41" in="00:00:00.000" out="00:00:04.960">
  <property name="length">00:00:05.000</property>
  <property name="eof">pause</property>
  <property name="resource">images/lujan.xcf</property>
  <property name="ttl">25</property>
  <property name="aspect_ratio">1</property>
  <property name="progressive">1</property>
  <property name="seekable">1</property>
  <property name="format">2</property>
  <property name="meta.media.width">581</property>
  <property name="meta.media.height">968</property>
  <property name="mlt_service">qimage</property>
  <property name="kdenlive:clipname"/>
  <property name="kdenlive:duration">00:00:05:00</property>
  <property name="kdenlive:folderid">16</property>
  <property name="kdenlive:id">17</property>
  <property name="kdenlive:clip_type">2</property>
  <property name="kdenlive:file_size">859755</property>
  <property name="kdenlive:file_hash">cbd5e59435804b84d51fed05c1c25fd9</property>
 </producer>
 <producer id="producer30" in="00:00:00.000" out="00:00:04.960">
  <property name="length">00:00:05.000</property>
  <property name="eof">pause</property>
  <property name="resource">images/title socialism is when the government does stuff.0.png</property>
  <property name="ttl">25</property>
  <property name="aspect_ratio">1</property>
  <property name="progressive">1</property>
  <property name="seekable">1</property>
  <property name="format">2</property>
  <property name="meta.media.width">1080</property>
  <property name="meta.media.height">1920</property>
  <property name="mlt_service">qimage</property>
  <property name="kdenlive:clipname"/>
  <property name="kdenlive:duration">00:00:05:00</property>
  <property name="kdenlive:folderid">20</property>
  <property name="kdenlive:id">18</property>
  <property name="kdenlive:clip_type">2</property>
  <property name="kdenlive:file_size">47880</property>
  <property name="kdenlive:file_hash">10b10ddbf401b5522edb2648fc5a8c93</property>
 </producer>
 <producer id="producer40" in="00:00:00.000" out="00:00:04.960">
  <property name="length">00:00:05.000</property>
  <property name="eof">pause</property>
  <property name="resource">images/title socialism is when the government does stuff.1.png</property>
  <property name="ttl">25</property>
  <property name="aspect_ratio">1</property>
  <property name="progressive">1</property>
  <property name="seekable">1</property>
  <property name="format">2</property>
  <property name="meta.media.width">1080</property>
  <property name="meta.media.height">1920</property>
  <property name="mlt_service">qimage</property>
  <property name="kdenlive:clipname"/>
  <property name="kdenlive:duration">00:00:05:00</property>
  <property name="kdenlive:folderid">20</property>
  <property name="kdenlive:id">19</property>
  <property name="kdenlive:clip_type">2</property>
  <property name="kdenlive:file_size">26555</property>
  <property name="kdenlive:file_hash">a50ef0d706709cb4d38e1cb159590e57</property>
 </producer>
 <producer id="producer48" in="00:00:00.000" out="00:00:04.960">
  <property name="length">00:00:05.000</property>
  <property name="eof">pause</property>
  <property name="resource">images/title socialism is when the government does stuff.2.png</property>
  <property name="ttl">25</property>
  <property name="aspect_ratio">1</property>
  <property name="progressive">1</property>
  <property name="seekable">1</property>
  <property name="format">2</property>
  <property name="meta.media.width">1080</property>
  <property name="meta.media.height">1920</property>
  <property name="mlt_service">qimage</property>
  <property name="kdenlive:clipname"/>
  <property name="kdenlive:duration">00:00:05:00</property>
  <property name="kdenlive:folderid">20</property>
  <property name="kdenlive:id">21</property>
  <property name="kdenlive:clip_type">2</property>
  <property name="kdenlive:file_size">30178</property>
  <property name="kdenlive:file_hash">02e257bbd69120c2c0b74bb209555eda</property>
 </producer>
 <producer id="producer51" in="00:00:00.000" out="00:00:04.960">
  <property name="length">00:00:05.000</property>
  <property name="eof">pause</property>
  <property name="resource">images/title socialism is when the government does stuff.3.png</property>
  <property name="ttl">25</property>
  <property name="aspect_ratio">1</property>
  <property name="progressive">1</property>
  <property name="seekable">1</property>
  <property name="format">2</property>
  <property name="meta.media.width">1080</property>
  <property name="meta.media.height">1920</property>
  <property name="mlt_service">qimage</property>
  <property name="kdenlive:clipname"/>
  <property name="kdenlive:duration">00:00:05:00</property>
  <property name="kdenlive:folderid">20</property>
  <property name="kdenlive:id">22</property>
  <property name="kdenlive:clip_type">2</property>
  <property name="kdenlive:file_size">22087</property>
  <property name="kdenlive:file_hash">85ed3abc3303fce9eca6d40791fc678d</property>
 </producer>
 <producer id="producer55" in="00:00:00.000" out="00:00:04.960">
  <property name="length">00:00:05.000</property>
  <property name="eof">pause</property>
  <property name="resource">images/title socialism is when the government does stuff.4.png</property>
  <property name="ttl">25</property>
  <property name="aspect_ratio">1</property>
  <property name="progressive">1</property>
  <property name="seekable">1</property>
  <property name="format">2</property>
  <property name="meta.media.width">1080</property>
  <property name="meta.media.height">1920</property>
  <property name="mlt_service">qimage</property>
  <property name="kdenlive:clipname"/>
  <property name="kdenlive:duration">00:00:05:00</property>
  <property name="kdenlive:folderid">20</property>
  <property name="kdenlive:id">23</property>
  <property name="kdenlive:clip_type">2</property>
  <property name="kdenlive:file_size">41465</property>
  <property name="kdenlive:file_hash">fa4e7e90e044a518bcd265ea8ac175e2</property>
 </producer>
 <producer id="producer57" in="00:00:00.000" out="00:00:04.960">
  <property name="length">00:00:05.000</property>
  <property name="eof">pause</property>
  <property name="resource">images/title socialism is when the government does stuff.5.png</property>
  <property name="ttl">25</property>
  <property name="aspect_ratio">1</property>
  <property name="progressive">1</property>
  <property name="seekable">1</property>
  <property name="format">2</property>
  <property name="meta.media.width">1080</property>
  <property name="meta.media.height">1920</property>
  <property name="mlt_service">qimage</property>
  <property name="kdenlive:clipname"/>
  <property name="kdenlive:duration">00:00:05:00</property>
  <property name="kdenlive:folderid">20</property>
  <property name="kdenlive:id">24</property>
  <property name="kdenlive:clip_type">2</property>
  <property name="kdenlive:file_size">35441</property>
  <property name="kdenlive:file_hash">38deca80bf8c39c68c13f83b0870dd67</property>
 </producer>
 <producer id="producer59" in="00:00:00.000" out="00:00:04.960">
  <property name="length">00:00:05.000</property>
  <property name="eof">pause</property>
  <property name="resource">images/title socialism is when the government does stuff.6.png</property>
  <property name="ttl">25</property>
  <property name="aspect_ratio">1</property>
  <property name="progressive">1</property>
  <property name="seekable">1</property>
  <property name="format">2</property>
  <property name="meta.media.width">1080</property>
  <property name="meta.media.height">1920</property>
  <property name="mlt_service">qimage</property>
  <property name="kdenlive:clipname"/>
  <property name="kdenlive:duration">00:00:05:00</property>
  <property name="kdenlive:folderid">20</property>
  <property name="kdenlive:id">25</property>
  <property name="kdenlive:clip_type">2</property>
  <property name="kdenlive:file_size">34666</property>
  <property name="kdenlive:file_hash">87afbc3779c0fd56151a759721505960</property>
 </producer>
 <producer id="producer61" in="00:00:00.000" out="00:00:04.960">
  <property name="length">125</property>
  <property name="eof">pause</property>
  <property name="resource"/>
  <property name="progressive">1</property>
  <property name="aspect_ratio">1</property>
  <property name="seekable">1</property>
  <property name="mlt_service">kdenlivetitle</property>
  <property name="kdenlive:duration">00:00:05:00</property>
  <property name="kdenlive:clipname">some people</property>
  <property name="xmldata">&lt;kdenlivetitle duration="125" LC_NUMERIC="C" width="1080" height="1920" out="124">
 &lt;item type="QGraphicsTextItem" z-index="0">
  &lt;position x="202" y="1095">
   &lt;transform>1,0,0,0,1,0,0,0,1&lt;/transform>
  &lt;/position>
  &lt;content line-spacing="0" shadow="0;#64000000;3;3;3" font-underline="0" box-height="132" font-outline-color="0,0,0,255" font="Cubano" letter-spacing="0" font-pixel-size="110" font-italic="0" typewriter="0;2;1;0;0" alignment="4" font-weight="50" font-outline="6" box-width="675.313" font-color="255,255,255,255">some people&lt;/content>
 &lt;/item>
 &lt;startviewport rect="0,0,1080,1920"/>
 &lt;endviewport rect="0,0,1080,1920"/>
 &lt;background color="0,0,0,0"/>
&lt;/kdenlivetitle>
</property>
  <property name="kdenlive:folderid">29</property>
  <property name="kdenlive:id">26</property>
  <property name="kdenlive:clip_type">2</property>
  <property name="kdenlive:file_hash">56463a9bb6da0f58365e2d1573949663</property>
  <property name="force_reload">0</property>
  <property name="meta.media.width">1080</property>
  <property name="meta.media.height">1920</property>
 </producer>
 <producer id="producer2" in="00:00:00.000" out="00:00:04.960">
  <property name="length">125</property>
  <property name="eof">pause</property>
  <property name="progressive">1</property>
  <property name="aspect_ratio">1</property>
  <property name="seekable">1</property>
  <property name="mlt_service">kdenlivetitle</property>
  <property name="kdenlive:duration">00:00:05:00</property>
  <property name="kdenlive:clipname">claim that</property>
  <property name="xmldata">&lt;kdenlivetitle duration="125" LC_NUMERIC="C" width="1080" height="1920" out="124">
 &lt;item type="QGraphicsTextItem" z-index="0">
  &lt;position x="245" y="1095">
   &lt;transform>1,0,0,0,1,0,0,0,1&lt;/transform>
  &lt;/position>
  &lt;content line-spacing="0" shadow="0;#64000000;3;3;3" font-underline="0" box-height="132" font-outline-color="0,0,0,255" font="Cubano" letter-spacing="0" font-pixel-size="110" font-italic="0" typewriter="0;2;1;0;0" alignment="4" font-weight="50" font-outline="6" box-width="589.828" font-color="255,255,255,255">claim that&lt;/content>
 &lt;/item>
 &lt;startviewport rect="0,0,1080,1920"/>
 &lt;endviewport rect="0,0,1080,1920"/>
 &lt;background color="0,0,0,0"/>
&lt;/kdenlivetitle>
</property>
  <property name="kdenlive:folderid">29</property>
  <property name="kdenlive:id">27</property>
  <property name="kdenlive:clip_type">2</property>
  <property name="force_reload">0</property>
  <property name="meta.media.width">1080</property>
  <property name="meta.media.height">1920</property>
  <property name="kdenlive:file_hash">b8b5557edecb32860689d8afc82273fb</property>
 </producer>
 <producer id="producer3" in="00:00:00.000" out="00:00:04.960">
  <property name="length">125</property>
  <property name="eof">pause</property>
  <property name="progressive">1</property>
  <property name="aspect_ratio">1</property>
  <property name="seekable">1</property>
  <property name="mlt_service">kdenlivetitle</property>
  <property name="kdenlive:duration">00:00:05:00</property>
  <property name="kdenlive:clipname">this is</property>
  <property name="xmldata">&lt;kdenlivetitle duration="125" LC_NUMERIC="C" width="1080" height="1920" out="124">
 &lt;item type="QGraphicsTextItem" z-index="0">
  &lt;position x="366" y="1095">
   &lt;transform>1,0,0,0,1,0,0,0,1&lt;/transform>
  &lt;/position>
  &lt;content line-spacing="0" shadow="0;#64000000;3;3;3" font-underline="0" box-height="132" font-outline-color="0,0,0,255" font="Cubano" letter-spacing="0" font-pixel-size="110" font-italic="0" typewriter="0;2;1;0;0" alignment="4" font-weight="50" font-outline="6" box-width="349.266" font-color="255,255,255,255">this is&lt;/content>
 &lt;/item>
 &lt;startviewport rect="0,0,1080,1920"/>
 &lt;endviewport rect="0,0,1080,1920"/>
 &lt;background color="0,0,0,0"/>
&lt;/kdenlivetitle>
</property>
  <property name="kdenlive:folderid">29</property>
  <property name="kdenlive:id">28</property>
  <property name="kdenlive:clip_type">2</property>
  <property name="force_reload">0</property>
  <property name="meta.media.width">1080</property>
  <property name="meta.media.height">1920</property>
  <property name="kdenlive:file_hash">6afa7469203ac939b5a841bf8545b632</property>
 </producer>
 <producer id="producer4" in="00:00:00.000" out="00:00:04.960">
  <property name="length">125</property>
  <property name="eof">pause</property>
  <property name="progressive">1</property>
  <property name="aspect_ratio">1</property>
  <property name="seekable">1</property>
  <property name="mlt_service">kdenlivetitle</property>
  <property name="kdenlive:duration">00:00:05:00</property>
  <property name="kdenlive:clipname">incorrect</property>
  <property name="xmldata">&lt;kdenlivetitle duration="125" LC_NUMERIC="C" width="1080" height="1920" out="124">
 &lt;item type="QGraphicsTextItem" z-index="0">
  &lt;position x="268" y="1095">
   &lt;transform>1,0,0,0,1,0,0,0,1&lt;/transform>
  &lt;/position>
  &lt;content line-spacing="0" shadow="0;#64000000;3;3;3" font-underline="0" box-height="132" font-outline-color="0,0,0,255" font="Cubano" letter-spacing="0" font-pixel-size="110" font-italic="0" typewriter="0;2;1;0;0" alignment="4" font-weight="50" font-outline="6" box-width="543.219" font-color="255,255,255,255">incorrect&lt;/content>
 &lt;/item>
 &lt;startviewport rect="0,0,1080,1920"/>
 &lt;endviewport rect="0,0,1080,1920"/>
 &lt;background color="0,0,0,0"/>
&lt;/kdenlivetitle>
</property>
  <property name="kdenlive:folderid">29</property>
  <property name="kdenlive:id">30</property>
  <property name="kdenlive:clip_type">2</property>
  <property name="force_reload">0</property>
  <property name="meta.media.width">1080</property>
  <property name="meta.media.height">1920</property>
  <property name="kdenlive:file_hash">accfbc4a9807499a2cb973bcd7e0d643</property>
 </producer>
 <chain id="chain29" out="00:00:00.600">
  <property name="length">16</property>
  <property name="eof">pause</property>
  <property name="resource">/home/liquidzulu/Music/sfx/Whoosh Sound Effect HD ｜ No Copyright [D9AxvFHq9yU].mp3</property>
  <property name="mlt_service">avformat</property>
  <property name="meta.media.nb_streams">1</property>
  <property name="meta.media.0.stream.type">audio</property>
  <property name="meta.media.0.codec.sample_fmt">fltp</property>
  <property name="meta.media.0.codec.sample_rate">48000</property>
  <property name="meta.media.0.codec.channels">2</property>
  <property name="meta.media.0.codec.name">mp3float</property>
  <property name="meta.media.0.codec.long_name">MP3 (MPEG audio layer 3)</property>
  <property name="meta.media.0.codec.bit_rate">101333</property>
  <property name="meta.attr.0.stream.encoder.markup">Lavc59.37</property>
  <property name="meta.attr.encoder.markup">Lavf59.27.100</property>
  <property name="seekable">1</property>
  <property name="audio_index">0</property>
  <property name="video_index">-1</property>
  <property name="kdenlive:clipname"/>
  <property name="kdenlive:clip_type">1</property>
  <property name="kdenlive:folderid">8</property>
  <property name="kdenlive:id">31</property>
  <property name="kdenlive:file_size">8253</property>
  <property name="kdenlive:file_hash">c63532795cf886c94a6d411e2032018f</property>
  <property name="kdenlive:audio_max0">189</property>
  <property name="mute_on_pause">1</property>
 </chain>
 <chain id="chain28" out="00:06:39.680">
  <property name="length">9993</property>
  <property name="eof">pause</property>
  <property name="resource">/home/liquidzulu/Videos/yt/b-roll/False starts and missed starts at the Olympics ｜ Strangest Moments [BH6gOzFoYyc].webm</property>
  <property name="mlt_service">avformat-novalidate</property>
  <property name="meta.media.nb_streams">2</property>
  <property name="meta.media.0.stream.type">video</property>
  <property name="meta.media.0.stream.frame_rate">25</property>
  <property name="meta.media.0.stream.sample_aspect_ratio">1</property>
  <property name="meta.media.0.codec.width">1920</property>
  <property name="meta.media.0.codec.height">1080</property>
  <property name="meta.media.0.codec.rotate">0</property>
  <property name="meta.media.0.codec.pix_fmt">yuv420p</property>
  <property name="meta.media.0.codec.sample_aspect_ratio">0</property>
  <property name="meta.media.0.codec.colorspace">709</property>
  <property name="meta.media.0.codec.color_trc">1</property>
  <property name="meta.media.0.codec.name">vp9</property>
  <property name="meta.media.0.codec.long_name">Google VP9</property>
  <property name="meta.media.0.codec.bit_rate">0</property>
  <property name="meta.attr.0.stream.HANDLER_NAME.markup">ISO Media file produced by Google Inc. Created on: 11/06/2023.</property>
  <property name="meta.attr.0.stream.VENDOR_ID.markup">[0][0][0][0]</property>
  <property name="meta.attr.0.stream.DURATION.markup">00:06:39.680000000</property>
  <property name="meta.media.1.stream.type">audio</property>
  <property name="meta.media.1.codec.sample_fmt">fltp</property>
  <property name="meta.media.1.codec.sample_rate">48000</property>
  <property name="meta.media.1.codec.channels">2</property>
  <property name="meta.media.1.codec.name">opus</property>
  <property name="meta.media.1.codec.long_name">Opus</property>
  <property name="meta.media.1.codec.bit_rate">0</property>
  <property name="meta.attr.1.stream.language.markup">eng</property>
  <property name="meta.attr.1.stream.DURATION.markup">00:06:39.721000000</property>
  <property name="meta.attr.COMPATIBLE_BRANDS.markup">iso6mp41</property>
  <property name="meta.attr.MAJOR_BRAND.markup">dash</property>
  <property name="meta.attr.MINOR_VERSION.markup">0</property>
  <property name="meta.attr.ENCODER.markup">Lavf59.27.100</property>
  <property name="seekable">1</property>
  <property name="meta.media.sample_aspect_num">1</property>
  <property name="meta.media.sample_aspect_den">1</property>
  <property name="format">3</property>
  <property name="audio_index">-1</property>
  <property name="video_index">0</property>
  <property name="meta.media.frame_rate_num">25</property>
  <property name="meta.media.frame_rate_den">1</property>
  <property name="meta.media.colorspace">709</property>
  <property name="meta.media.color_trc">1</property>
  <property name="meta.media.has_b_frames">0</property>
  <property name="meta.media.width">1920</property>
  <property name="meta.media.height">1080</property>
  <property name="meta.media.color_range">mpeg</property>
  <property name="kdenlive:clipname"/>
  <property name="meta.media.top_field_first">0</property>
  <property name="meta.media.progressive">1</property>
  <property name="kdenlive:clip_type">0</property>
  <property name="kdenlive:folderid">10</property>
  <property name="kdenlive:id">32</property>
  <property name="kdenlive:file_size">180075959</property>
  <property name="kdenlive:file_hash">eb3676f33869f11fb04de8d44ff703e3</property>
  <property name="kdenlive:audio_max1">161</property>
  <property name="kdenlive:active_streams">-1</property>
  <property name="set.test_audio">1</property>
  <property name="mute_on_pause">1</property>
 </chain>
 <producer id="producer52" in="00:00:00.000" out="00:00:04.960">
  <property name="length">125</property>
  <property name="eof">pause</property>
  <property name="progressive">1</property>
  <property name="aspect_ratio">1</property>
  <property name="seekable">1</property>
  <property name="mlt_service">kdenlivetitle</property>
  <property name="kdenlive:duration">00:00:05:00</property>
  <property name="kdenlive:clipname">a false star...</property>
  <property name="xmldata">&lt;kdenlivetitle duration="125" LC_NUMERIC="C" width="1080" height="1920" out="124">
 &lt;item type="QGraphicsTextItem" z-index="0">
  &lt;position x="168" y="1095">
   &lt;transform>1,0,0,0,1,0,0,0,1&lt;/transform>
  &lt;/position>
  &lt;content line-spacing="0" shadow="0;#64000000;3;3;3" font-underline="0" box-height="132" font-outline-color="0,0,0,255" font="Cubano" letter-spacing="0" font-pixel-size="110" font-italic="0" typewriter="0;2;1;0;0" alignment="4" font-weight="50" font-outline="6" box-width="751.172" font-color="255,255,255,255">a false start&lt;/content>
 &lt;/item>
 &lt;startviewport rect="0,0,1080,1920"/>
 &lt;endviewport rect="0,0,1080,1920"/>
 &lt;background color="0,0,0,0"/>
&lt;/kdenlivetitle>
</property>
  <property name="kdenlive:folderid">29</property>
  <property name="kdenlive:id">33</property>
  <property name="kdenlive:clip_type">2</property>
  <property name="force_reload">0</property>
  <property name="meta.media.width">1080</property>
  <property name="meta.media.height">1920</property>
  <property name="kdenlive:file_hash">0cf2ee6a8de16f187f24f58d12e49ef5</property>
 </producer>
 <producer id="producer6" in="00:00:00.000" out="00:00:04.960">
  <property name="length">00:00:05.000</property>
  <property name="eof">pause</property>
  <property name="resource">images/Ludwig_von_Mises.jpg</property>
  <property name="ttl">25</property>
  <property name="aspect_ratio">1</property>
  <property name="progressive">1</property>
  <property name="seekable">1</property>
  <property name="format">1</property>
  <property name="meta.media.width">2181</property>
  <property name="meta.media.height">2979</property>
  <property name="mlt_service">qimage</property>
  <property name="kdenlive:clipname"/>
  <property name="kdenlive:duration">00:00:05:00</property>
  <property name="kdenlive:folderid">16</property>
  <property name="kdenlive:id">34</property>
  <property name="kdenlive:clip_type">2</property>
  <property name="kdenlive:file_size">811461</property>
  <property name="kdenlive:file_hash">8f1697d936b6e8e993ece1341dfc6ace</property>
 </producer>
 <producer id="producer32" in="00:00:00.000" out="00:00:04.960">
  <property name="length">125</property>
  <property name="eof">pause</property>
  <property name="progressive">1</property>
  <property name="aspect_ratio">1</property>
  <property name="seekable">1</property>
  <property name="mlt_service">kdenlivetitle</property>
  <property name="kdenlive:duration">00:00:05:00</property>
  <property name="kdenlive:clipname">mises shows ...</property>
  <property name="xmldata">&lt;kdenlivetitle duration="125" LC_NUMERIC="C" width="1080" height="1920" out="124">
 &lt;item type="QGraphicsTextItem" z-index="0">
  &lt;position x="122" y="1095">
   &lt;transform>1,0,0,0,1,0,0,0,1&lt;/transform>
  &lt;/position>
  &lt;content line-spacing="0" shadow="0;#64000000;3;3;3" font-underline="0" box-height="132" font-outline-color="0,0,0,255" font="Cubano" letter-spacing="0" font-pixel-size="110" font-italic="0" typewriter="0;2;1;0;0" alignment="4" font-weight="50" font-outline="6" box-width="840.344" font-color="255,255,255,255">mises shows us&lt;/content>
 &lt;/item>
 &lt;startviewport rect="0,0,1080,1920"/>
 &lt;endviewport rect="0,0,1080,1920"/>
 &lt;background color="0,0,0,0"/>
&lt;/kdenlivetitle>
</property>
  <property name="kdenlive:folderid">29</property>
  <property name="kdenlive:id">35</property>
  <property name="kdenlive:clip_type">2</property>
  <property name="force_reload">0</property>
  <property name="meta.media.width">1080</property>
  <property name="meta.media.height">1920</property>
  <property name="kdenlive:file_hash">2f20202239dea67f92c7ef27f24fbfea</property>
 </producer>
 <producer id="producer33" in="00:00:00.000" out="00:00:04.960">
  <property name="length">00:00:05.000</property>
  <property name="eof">pause</property>
  <property name="resource">images/planned chaos.xcf</property>
  <property name="ttl">25</property>
  <property name="aspect_ratio">1</property>
  <property name="progressive">1</property>
  <property name="seekable">1</property>
  <property name="format">2</property>
  <property name="meta.media.width">1325</property>
  <property name="meta.media.height">2115</property>
  <property name="mlt_service">qimage</property>
  <property name="kdenlive:clipname"/>
  <property name="kdenlive:duration">00:00:05:00</property>
  <property name="kdenlive:folderid">16</property>
  <property name="kdenlive:id">37</property>
  <property name="kdenlive:clip_type">2</property>
  <property name="kdenlive:file_size">6682484</property>
  <property name="kdenlive:file_hash">b4d7d104af5ecf8325471b42ab35b8f8</property>
 </producer>
 <producer id="producer42" in="00:00:00.000" out="00:00:04.960">
  <property name="length">125</property>
  <property name="eof">pause</property>
  <property name="progressive">1</property>
  <property name="aspect_ratio">1</property>
  <property name="seekable">1</property>
  <property name="mlt_service">kdenlivetitle</property>
  <property name="kdenlive:duration">00:00:05:00</property>
  <property name="kdenlive:clipname">that this is</property>
  <property name="xmldata">&lt;kdenlivetitle duration="125" LC_NUMERIC="C" width="1080" height="1920" out="124">
 &lt;item type="QGraphicsTextItem" z-index="0">
  &lt;position x="225" y="1095">
   &lt;transform>1,0,0,0,1,0,0,0,1&lt;/transform>
  &lt;/position>
  &lt;content line-spacing="0" shadow="0;#64000000;3;3;3" font-underline="0" box-height="132" font-outline-color="0,0,0,255" font="Cubano" letter-spacing="0" font-pixel-size="110" font-italic="0" typewriter="0;2;1;0;0" alignment="4" font-weight="50" font-outline="6" box-width="640.047" font-color="255,255,255,255">that this is&lt;/content>
 &lt;/item>
 &lt;startviewport rect="0,0,1080,1920"/>
 &lt;endviewport rect="0,0,1080,1920"/>
 &lt;background color="0,0,0,0"/>
&lt;/kdenlivetitle>
</property>
  <property name="kdenlive:folderid">29</property>
  <property name="kdenlive:id">38</property>
  <property name="kdenlive:clip_type">2</property>
  <property name="force_reload">0</property>
  <property name="kdenlive:file_hash">74cd80c5b57201fb5c8fdd8937e34f9b</property>
  <property name="meta.media.width">1080</property>
  <property name="meta.media.height">1920</property>
 </producer>
 <producer id="producer43" in="00:00:00.000" out="00:00:04.960">
  <property name="length">125</property>
  <property name="eof">pause</property>
  <property name="progressive">1</property>
  <property name="aspect_ratio">1</property>
  <property name="seekable">1</property>
  <property name="mlt_service">kdenlivetitle</property>
  <property name="kdenlive:duration">00:00:05:00</property>
  <property name="kdenlive:clipname">not</property>
  <property name="xmldata">&lt;kdenlivetitle duration="125" LC_NUMERIC="C" width="1080" height="1920" out="124">
 &lt;item type="QGraphicsTextItem" z-index="0">
  &lt;position x="387" y="1068">
   &lt;transform>1,0,0,0,1,0,0,0,1&lt;/transform>
  &lt;/position>
  &lt;content line-spacing="0" shadow="0;#64000000;3;3;3" font-underline="0" box-height="204" font-outline-color="0,0,0,255" font="Cubano" letter-spacing="0" font-pixel-size="170" font-italic="0" typewriter="0;2;1;0;0" alignment="4" font-weight="50" font-outline="6" box-width="305.297" font-color="255,0,4,255">not&lt;/content>
 &lt;/item>
 &lt;startviewport rect="0,0,1080,1920"/>
 &lt;endviewport rect="0,0,1080,1920"/>
 &lt;background color="0,0,0,0"/>
&lt;/kdenlivetitle>
</property>
  <property name="kdenlive:folderid">29</property>
  <property name="kdenlive:id">39</property>
  <property name="kdenlive:clip_type">2</property>
  <property name="force_reload">0</property>
  <property name="kdenlive:file_hash">bbda86fe2e249aab6dc29f95fb176a24</property>
  <property name="meta.media.width">1080</property>
  <property name="meta.media.height">1920</property>
 </producer>
 <chain id="chain32" out="00:00:00.800">
  <property name="length">21</property>
  <property name="eof">pause</property>
  <property name="resource">/home/liquidzulu/Music/sfx/thud game sound effect.mp3</property>
  <property name="mlt_service">avformat</property>
  <property name="meta.media.nb_streams">1</property>
  <property name="meta.media.0.stream.type">audio</property>
  <property name="meta.media.0.codec.sample_fmt">fltp</property>
  <property name="meta.media.0.codec.sample_rate">48000</property>
  <property name="meta.media.0.codec.channels">2</property>
  <property name="meta.media.0.codec.name">mp3float</property>
  <property name="meta.media.0.codec.long_name">MP3 (MPEG audio layer 3)</property>
  <property name="meta.media.0.codec.bit_rate">64457</property>
  <property name="meta.attr.0.stream.encoder.markup">Lavc59.37</property>
  <property name="meta.attr.encoder.markup">Lavf59.27.100</property>
  <property name="seekable">1</property>
  <property name="audio_index">0</property>
  <property name="video_index">-1</property>
  <property name="kdenlive:clipname"/>
  <property name="kdenlive:clip_type">1</property>
  <property name="kdenlive:folderid">8</property>
  <property name="kdenlive:id">40</property>
  <property name="kdenlive:file_size">6813</property>
  <property name="kdenlive:file_hash">9727d041efdd598c7496671e2edae40d</property>
  <property name="kdenlive:audio_max0">241</property>
  <property name="mute_on_pause">1</property>
 </chain>
 <producer id="producer38" in="00:00:00.000" out="00:00:04.960">
  <property name="length">125</property>
  <property name="eof">pause</property>
  <property name="progressive">1</property>
  <property name="aspect_ratio">1</property>
  <property name="seekable">1</property>
  <property name="mlt_service">kdenlivetitle</property>
  <property name="kdenlive:duration">00:00:05:00</property>
  <property name="kdenlive:clipname">between</property>
  <property name="xmldata">&lt;kdenlivetitle duration="125" LC_NUMERIC="C" width="1080" height="1920" out="124">
 &lt;item type="QGraphicsTextItem" z-index="0">
  &lt;position x="305" y="1095">
   &lt;transform>1,0,0,0,1,0,0,0,1&lt;/transform>
  &lt;/position>
  &lt;content line-spacing="0" shadow="0;#64000000;3;3;3" font-underline="0" box-height="132" font-outline-color="0,0,0,255" font="Cubano" letter-spacing="0" font-pixel-size="110" font-italic="0" typewriter="0;2;1;0;0" alignment="4" font-weight="50" font-outline="6" box-width="473.063" font-color="255,255,255,255">between&lt;/content>
 &lt;/item>
 &lt;startviewport rect="0,0,1080,1920"/>
 &lt;endviewport rect="0,0,1080,1920"/>
 &lt;background color="0,0,0,0"/>
&lt;/kdenlivetitle>
</property>
  <property name="kdenlive:folderid">29</property>
  <property name="kdenlive:id">41</property>
  <property name="kdenlive:clip_type">2</property>
  <property name="force_reload">0</property>
  <property name="meta.media.width">1080</property>
  <property name="meta.media.height">1920</property>
  <property name="kdenlive:file_hash">8c0ef2a67d13ac8859d8f6b85952c7ad</property>
 </producer>
 <producer id="producer44" in="00:00:00.000" out="00:00:04.960">
  <property name="length">125</property>
  <property name="eof">pause</property>
  <property name="progressive">1</property>
  <property name="aspect_ratio">1</property>
  <property name="seekable">1</property>
  <property name="mlt_service">kdenlivetitle</property>
  <property name="kdenlive:duration">00:00:05:00</property>
  <property name="kdenlive:clipname">a compromise</property>
  <property name="xmldata">&lt;kdenlivetitle duration="125" LC_NUMERIC="C" width="1080" height="1920" out="124">
 &lt;item type="QGraphicsTextItem" z-index="0">
  &lt;position x="170" y="1095">
   &lt;transform>1,0,0,0,1,0,0,0,1&lt;/transform>
  &lt;/position>
  &lt;content line-spacing="0" shadow="0;#64000000;3;3;3" font-underline="0" box-height="132" font-outline-color="0,0,0,255" font="Cubano" letter-spacing="0" font-pixel-size="110" font-italic="0" typewriter="0;2;1;0;0" alignment="4" font-weight="50" font-outline="6" box-width="741.516" font-color="255,255,255,255">a compromise&lt;/content>
 &lt;/item>
 &lt;startviewport rect="0,0,1080,1920"/>
 &lt;endviewport rect="0,0,1080,1920"/>
 &lt;background color="0,0,0,0"/>
&lt;/kdenlivetitle>
</property>
  <property name="kdenlive:folderid">29</property>
  <property name="kdenlive:id">42</property>
  <property name="kdenlive:clip_type">2</property>
  <property name="force_reload">0</property>
  <property name="meta.media.width">1080</property>
  <property name="meta.media.height">1920</property>
  <property name="kdenlive:file_hash">71437025f80b6a1dc1e8e75f4f09363a</property>
 </producer>
 <producer id="producer62" in="00:00:00.000" out="00:00:04.960">
  <property name="length">125</property>
  <property name="eof">pause</property>
  <property name="resource"/>
  <property name="progressive">1</property>
  <property name="aspect_ratio">1</property>
  <property name="seekable">1</property>
  <property name="mlt_service">kdenlivetitle</property>
  <property name="kdenlive:duration">00:00:05:00</property>
  <property name="kdenlive:clipname">not</property>
  <property name="xmldata">&lt;kdenlivetitle duration="125" LC_NUMERIC="C" width="1080" height="1920" out="124">
 &lt;item type="QGraphicsTextItem" z-index="0">
  &lt;position x="387" y="1068">
   &lt;transform>1,0,0,0,1,0,0,0,1&lt;/transform>
  &lt;/position>
  &lt;content line-spacing="0" shadow="0;#64000000;3;3;3" font-underline="0" box-height="204" font-outline-color="0,0,0,255" font="Cubano" letter-spacing="0" font-pixel-size="170" font-italic="0" typewriter="0;2;1;0;0" alignment="4" font-weight="50" font-outline="6" box-width="305.297" font-color="255,0,4,255">not&lt;/content>
 &lt;/item>
 &lt;startviewport rect="0,0,1080,1920"/>
 &lt;endviewport rect="0,0,1080,1920"/>
 &lt;background color="0,0,0,0"/>
&lt;/kdenlivetitle>
</property>
  <property name="kdenlive:folderid">48</property>
  <property name="kdenlive:id">43</property>
  <property name="kdenlive:clip_type">2</property>
  <property name="force_reload">0</property>
  <property name="kdenlive:file_hash">bbda86fe2e249aab6dc29f95fb176a24</property>
  <property name="meta.media.width">1080</property>
  <property name="meta.media.height">1920</property>
 </producer>
 <producer id="producer9" in="00:00:00.000" out="00:00:04.960">
  <property name="length">125</property>
  <property name="eof">pause</property>
  <property name="progressive">1</property>
  <property name="aspect_ratio">1</property>
  <property name="seekable">1</property>
  <property name="mlt_service">kdenlivetitle</property>
  <property name="kdenlive:duration">00:00:05:00</property>
  <property name="kdenlive:clipname">socialism</property>
  <property name="xmldata">&lt;kdenlivetitle duration="125" LC_NUMERIC="C" width="1080" height="1920" out="124">
 &lt;item type="QGraphicsTextItem" z-index="0">
  &lt;position x="281" y="1095">
   &lt;transform>1,0,0,0,1,0,0,0,1&lt;/transform>
  &lt;/position>
  &lt;content line-spacing="0" shadow="0;#64000000;3;3;3" font-underline="0" box-height="132" font-outline-color="0,0,0,255" font="Cubano" letter-spacing="0" font-pixel-size="110" font-italic="0" typewriter="0;2;1;0;0" alignment="4" font-weight="50" font-outline="6" box-width="518.563" font-color="255,255,255,255">socialism&lt;/content>
 &lt;/item>
 &lt;startviewport rect="0,0,1080,1920"/>
 &lt;endviewport rect="0,0,1080,1920"/>
 &lt;background color="0,0,0,0"/>
&lt;/kdenlivetitle>
</property>
  <property name="kdenlive:folderid">29</property>
  <property name="kdenlive:id">44</property>
  <property name="kdenlive:clip_type">2</property>
  <property name="force_reload">0</property>
  <property name="meta.media.width">1080</property>
  <property name="meta.media.height">1920</property>
  <property name="kdenlive:file_hash">cde1fb8e17b06404fc1aeaf053797773</property>
 </producer>
 <producer id="producer45" in="00:00:00.000" out="00:00:04.960">
  <property name="length">125</property>
  <property name="eof">pause</property>
  <property name="progressive">1</property>
  <property name="aspect_ratio">1</property>
  <property name="seekable">1</property>
  <property name="mlt_service">kdenlivetitle</property>
  <property name="kdenlive:duration">00:00:05:00</property>
  <property name="kdenlive:clipname">and capitali...</property>
  <property name="xmldata">&lt;kdenlivetitle duration="125" LC_NUMERIC="C" width="1080" height="1920" out="124">
 &lt;item type="QGraphicsTextItem" z-index="0">
  &lt;position x="133" y="1095">
   &lt;transform>1,0,0,0,1,0,0,0,1&lt;/transform>
  &lt;/position>
  &lt;content line-spacing="0" shadow="0;#64000000;3;3;3" font-underline="0" box-height="132" font-outline-color="0,0,0,255" font="Cubano" letter-spacing="0" font-pixel-size="110" font-italic="0" typewriter="0;2;1;0;0" alignment="4" font-weight="50" font-outline="6" box-width="812.781" font-color="255,255,255,255">and capitalism&lt;/content>
 &lt;/item>
 &lt;startviewport rect="0,0,1080,1920"/>
 &lt;endviewport rect="0,0,1080,1920"/>
 &lt;background color="0,0,0,0"/>
&lt;/kdenlivetitle>
</property>
  <property name="kdenlive:folderid">29</property>
  <property name="kdenlive:id">45</property>
  <property name="kdenlive:clip_type">2</property>
  <property name="force_reload">0</property>
  <property name="meta.media.width">1080</property>
  <property name="meta.media.height">1920</property>
  <property name="kdenlive:file_hash">e7b38220c5e12f1cf5d328d46983a148</property>
 </producer>
 <producer id="producer63" in="00:00:00.000" out="00:00:04.960">
  <property name="length">125</property>
  <property name="eof">pause</property>
  <property name="resource"/>
  <property name="progressive">1</property>
  <property name="aspect_ratio">1</property>
  <property name="seekable">1</property>
  <property name="mlt_service">kdenlivetitle</property>
  <property name="kdenlive:duration">00:00:05:00</property>
  <property name="kdenlive:clipname">that this is</property>
  <property name="xmldata">&lt;kdenlivetitle duration="125" LC_NUMERIC="C" width="1080" height="1920" out="124">
 &lt;item type="QGraphicsTextItem" z-index="0">
  &lt;position x="225" y="1095">
   &lt;transform>1,0,0,0,1,0,0,0,1&lt;/transform>
  &lt;/position>
  &lt;content line-spacing="0" shadow="0;#64000000;3;3;3" font-underline="0" box-height="132" font-outline-color="0,0,0,255" font="Cubano" letter-spacing="0" font-pixel-size="110" font-italic="0" typewriter="0;2;1;0;0" alignment="4" font-weight="50" font-outline="6" box-width="640.047" font-color="255,255,255,255">that this is&lt;/content>
 &lt;/item>
 &lt;startviewport rect="0,0,1080,1920"/>
 &lt;endviewport rect="0,0,1080,1920"/>
 &lt;background color="0,0,0,0"/>
&lt;/kdenlivetitle>
</property>
  <property name="kdenlive:folderid">48</property>
  <property name="kdenlive:id">46</property>
  <property name="kdenlive:clip_type">2</property>
  <property name="force_reload">0</property>
  <property name="kdenlive:file_hash">74cd80c5b57201fb5c8fdd8937e34f9b</property>
  <property name="meta.media.width">1080</property>
  <property name="meta.media.height">1920</property>
 </producer>
 <chain id="chain33" out="00:03:51.480">
  <property name="length">5788</property>
  <property name="eof">pause</property>
  <property name="resource">/home/liquidzulu/Videos/yt/b-roll/Bernie Sanders Open borders Thats a Koch brothers proposal_1080p.mp4</property>
  <property name="mlt_service">avformat-novalidate</property>
  <property name="meta.media.nb_streams">2</property>
  <property name="meta.media.0.stream.type">video</property>
  <property name="meta.media.0.stream.frame_rate">23.976</property>
  <property name="meta.media.0.stream.sample_aspect_ratio">1</property>
  <property name="meta.media.0.codec.width">1920</property>
  <property name="meta.media.0.codec.height">1080</property>
  <property name="meta.media.0.codec.rotate">0</property>
  <property name="meta.media.0.codec.pix_fmt">yuv420p</property>
  <property name="meta.media.0.codec.sample_aspect_ratio">1</property>
  <property name="meta.media.0.codec.colorspace">709</property>
  <property name="meta.media.0.codec.color_trc">1</property>
  <property name="meta.media.0.codec.name">h264</property>
  <property name="meta.media.0.codec.long_name">H.264 / AVC / MPEG-4 AVC / MPEG-4 part 10</property>
  <property name="meta.media.0.codec.bit_rate">1233410</property>
  <property name="meta.attr.0.stream.handler_name.markup">VideoHandler</property>
  <property name="meta.attr.0.stream.vendor_id.markup">[0][0][0][0]</property>
  <property name="meta.media.1.stream.type">audio</property>
  <property name="meta.media.1.codec.sample_fmt">fltp</property>
  <property name="meta.media.1.codec.sample_rate">44100</property>
  <property name="meta.media.1.codec.channels">2</property>
  <property name="meta.media.1.codec.name">aac</property>
  <property name="meta.media.1.codec.long_name">AAC (Advanced Audio Coding)</property>
  <property name="meta.media.1.codec.bit_rate">125592</property>
  <property name="meta.attr.1.stream.language.markup">eng</property>
  <property name="meta.attr.1.stream.handler_name.markup">SoundHandler</property>
  <property name="meta.attr.1.stream.vendor_id.markup">[0][0][0][0]</property>
  <property name="meta.attr.major_brand.markup">isom</property>
  <property name="meta.attr.minor_version.markup">512</property>
  <property name="meta.attr.compatible_brands.markup">isomiso2avc1mp41</property>
  <property name="meta.attr.encoder.markup">Lavf58.19.102</property>
  <property name="seekable">1</property>
  <property name="meta.media.sample_aspect_num">1</property>
  <property name="meta.media.sample_aspect_den">1</property>
  <property name="format">3</property>
  <property name="audio_index">-1</property>
  <property name="video_index">0</property>
  <property name="meta.media.frame_rate_num">83235000</property>
  <property name="meta.media.frame_rate_den">3471593</property>
  <property name="meta.media.colorspace">709</property>
  <property name="meta.media.color_trc">1</property>
  <property name="meta.media.has_b_frames">1</property>
  <property name="meta.media.width">1920</property>
  <property name="meta.media.height">1080</property>
  <property name="meta.media.color_range">mpeg</property>
  <property name="kdenlive:clipname"/>
  <property name="meta.media.top_field_first">0</property>
  <property name="meta.media.progressive">1</property>
  <property name="kdenlive:clip_type">0</property>
  <property name="kdenlive:folderid">10</property>
  <property name="kdenlive:id">47</property>
  <property name="kdenlive:file_size">39511432</property>
  <property name="kdenlive:file_hash">86dda513b03b4e74e2e35ce8856252dc</property>
  <property name="kdenlive:audio_max1">214</property>
  <property name="kdenlive:active_streams">-1</property>
  <property name="set.test_audio">1</property>
  <property name="mute_on_pause">1</property>
 </chain>
 <producer id="producer53" in="00:00:00.000" out="00:00:04.960">
  <property name="length">125</property>
  <property name="eof">pause</property>
  <property name="progressive">1</property>
  <property name="aspect_ratio">1</property>
  <property name="seekable">1</property>
  <property name="mlt_service">kdenlivetitle</property>
  <property name="kdenlive:duration">00:00:05:00</property>
  <property name="kdenlive:clipname">it is rather</property>
  <property name="xmldata">&lt;kdenlivetitle duration="125" LC_NUMERIC="C" width="1080" height="1920" out="124">
 &lt;item type="QGraphicsTextItem" z-index="0">
  &lt;position x="223" y="1095">
   &lt;transform>1,0,0,0,1,0,0,0,1&lt;/transform>
  &lt;/position>
  &lt;content line-spacing="0" shadow="0;#64000000;3;3;3" font-underline="0" box-height="132" font-outline-color="0,0,0,255" font="Cubano" letter-spacing="0" font-pixel-size="110" font-italic="0" typewriter="0;2;1;0;0" alignment="4" font-weight="50" font-outline="6" box-width="638.75" font-color="255,255,255,255">it is rather&lt;/content>
 &lt;/item>
 &lt;startviewport rect="0,0,1080,1920"/>
 &lt;endviewport rect="0,0,1080,1920"/>
 &lt;background color="0,0,0,0"/>
&lt;/kdenlivetitle>
</property>
  <property name="kdenlive:folderid">29</property>
  <property name="kdenlive:id">49</property>
  <property name="kdenlive:clip_type">2</property>
  <property name="force_reload">0</property>
  <property name="meta.media.width">1080</property>
  <property name="meta.media.height">1920</property>
  <property name="kdenlive:file_hash">8a1a94fcbeaf1b6ca27372b6371cc56d</property>
 </producer>
 <producer id="producer7" in="00:00:00.000" out="00:00:04.960">
  <property name="length">125</property>
  <property name="eof">pause</property>
  <property name="progressive">1</property>
  <property name="aspect_ratio">1</property>
  <property name="seekable">1</property>
  <property name="mlt_service">kdenlivetitle</property>
  <property name="kdenlive:duration">00:00:05:00</property>
  <property name="kdenlive:clipname">inconsistent...</property>
  <property name="xmldata">&lt;kdenlivetitle duration="125" LC_NUMERIC="C" width="1080" height="1920" out="124">
 &lt;item type="QGraphicsTextItem" z-index="0">
  &lt;position x="132" y="1095">
   &lt;transform>1,0,0,0,1,0,0,0,1&lt;/transform>
  &lt;/position>
  &lt;content line-spacing="0" shadow="0;#64000000;3;3;3" font-underline="0" box-height="132" font-outline-color="0,0,0,255" font="Cubano" letter-spacing="0" font-pixel-size="110" font-italic="0" typewriter="0;2;1;0;0" alignment="4" font-weight="50" font-outline="6" box-width="820.609" font-color="255,255,255,255">inconsistently&lt;/content>
 &lt;/item>
 &lt;startviewport rect="0,0,1080,1920"/>
 &lt;endviewport rect="0,0,1080,1920"/>
 &lt;background color="0,0,0,0"/>
&lt;/kdenlivetitle>
</property>
  <property name="kdenlive:folderid">29</property>
  <property name="kdenlive:id">50</property>
  <property name="kdenlive:clip_type">2</property>
  <property name="force_reload">0</property>
  <property name="meta.media.width">1080</property>
  <property name="meta.media.height">1920</property>
  <property name="kdenlive:file_hash">5a519355012d1113e2304b91cfb6c9d1</property>
 </producer>
 <producer id="producer8" in="00:00:00.000" out="00:00:04.960">
  <property name="length">125</property>
  <property name="eof">pause</property>
  <property name="progressive">1</property>
  <property name="aspect_ratio">1</property>
  <property name="seekable">1</property>
  <property name="mlt_service">kdenlivetitle</property>
  <property name="kdenlive:duration">00:00:05:00</property>
  <property name="kdenlive:clipname">applied</property>
  <property name="xmldata">&lt;kdenlivetitle duration="125" LC_NUMERIC="C" width="1080" height="1920" out="124">
 &lt;item type="QGraphicsTextItem" z-index="0">
  &lt;position x="341" y="1095">
   &lt;transform>1,0,0,0,1,0,0,0,1&lt;/transform>
  &lt;/position>
  &lt;content line-spacing="0" shadow="0;#64000000;3;3;3" font-underline="0" box-height="132" font-outline-color="0,0,0,255" font="Cubano" letter-spacing="0" font-pixel-size="110" font-italic="0" typewriter="0;2;1;0;0" alignment="4" font-weight="50" font-outline="6" box-width="400.453" font-color="255,255,255,255">applied&lt;/content>
 &lt;/item>
 &lt;startviewport rect="0,0,1080,1920"/>
 &lt;endviewport rect="0,0,1080,1920"/>
 &lt;background color="0,0,0,0"/>
&lt;/kdenlivetitle>
</property>
  <property name="kdenlive:folderid">29</property>
  <property name="kdenlive:id">51</property>
  <property name="kdenlive:clip_type">2</property>
  <property name="force_reload">0</property>
  <property name="meta.media.width">1080</property>
  <property name="meta.media.height">1920</property>
  <property name="kdenlive:file_hash">2f77d6f4e62c293c84bf29a360bea1a7</property>
 </producer>
 <producer id="producer10" in="00:00:00.000" out="00:00:04.960">
  <property name="length">125</property>
  <property name="eof">pause</property>
  <property name="progressive">1</property>
  <property name="aspect_ratio">1</property>
  <property name="seekable">1</property>
  <property name="mlt_service">kdenlivetitle</property>
  <property name="kdenlive:duration">00:00:05:00</property>
  <property name="kdenlive:clipname">at the end</property>
  <property name="xmldata">&lt;kdenlivetitle duration="125" LC_NUMERIC="C" width="1080" height="1920" out="124">
 &lt;item type="QGraphicsTextItem" z-index="0">
  &lt;position x="249" y="1095">
   &lt;transform>1,0,0,0,1,0,0,0,1&lt;/transform>
  &lt;/position>
  &lt;content line-spacing="0" shadow="0;#64000000;3;3;3" font-underline="0" box-height="132" font-outline-color="0,0,0,255" font="Cubano" letter-spacing="0" font-pixel-size="110" font-italic="0" typewriter="0;2;1;0;0" alignment="4" font-weight="50" font-outline="6" box-width="581.031" font-color="255,255,255,255">at the end&lt;/content>
 &lt;/item>
 &lt;startviewport rect="0,0,1080,1920"/>
 &lt;endviewport rect="0,0,1080,1920"/>
 &lt;background color="0,0,0,0"/>
&lt;/kdenlivetitle>
</property>
  <property name="kdenlive:folderid">29</property>
  <property name="kdenlive:id">52</property>
  <property name="kdenlive:clip_type">2</property>
  <property name="force_reload">0</property>
  <property name="meta.media.width">1080</property>
  <property name="meta.media.height">1920</property>
  <property name="kdenlive:file_hash">936c23cf8f18e792450693e0302b2fbd</property>
 </producer>
 <producer id="producer11" in="00:00:00.000" out="00:00:04.960">
  <property name="length">125</property>
  <property name="eof">pause</property>
  <property name="progressive">1</property>
  <property name="aspect_ratio">1</property>
  <property name="seekable">1</property>
  <property name="mlt_service">kdenlivetitle</property>
  <property name="kdenlive:duration">00:00:05:00</property>
  <property name="kdenlive:clipname">of the day</property>
  <property name="xmldata">&lt;kdenlivetitle duration="125" LC_NUMERIC="C" width="1080" height="1920" out="124">
 &lt;item type="QGraphicsTextItem" z-index="0">
  &lt;position x="251" y="1095">
   &lt;transform>1,0,0,0,1,0,0,0,1&lt;/transform>
  &lt;/position>
  &lt;content line-spacing="0" shadow="0;#64000000;3;3;3" font-underline="0" box-height="132" font-outline-color="0,0,0,255" font="Cubano" letter-spacing="0" font-pixel-size="110" font-italic="0" typewriter="0;2;1;0;0" alignment="4" font-weight="50" font-outline="6" box-width="577.953" font-color="255,255,255,255">of the day&lt;/content>
 &lt;/item>
 &lt;startviewport rect="0,0,1080,1920"/>
 &lt;endviewport rect="0,0,1080,1920"/>
 &lt;background color="0,0,0,0"/>
&lt;/kdenlivetitle>
</property>
  <property name="kdenlive:folderid">29</property>
  <property name="kdenlive:id">53</property>
  <property name="kdenlive:clip_type">2</property>
  <property name="force_reload">0</property>
  <property name="meta.media.width">1080</property>
  <property name="meta.media.height">1920</property>
  <property name="kdenlive:file_hash">6c28d11a5fc00ef065e09264cc2336fb</property>
 </producer>
 <producer id="producer34" in="00:00:00.000" out="00:00:04.960">
  <property name="length">00:00:05.000</property>
  <property name="eof">pause</property>
  <property name="resource">images/bananas.xcf</property>
  <property name="ttl">25</property>
  <property name="aspect_ratio">1</property>
  <property name="progressive">1</property>
  <property name="seekable">1</property>
  <property name="format">2</property>
  <property name="meta.media.width">474</property>
  <property name="meta.media.height">367</property>
  <property name="mlt_service">qimage</property>
  <property name="kdenlive:clipname"/>
  <property name="kdenlive:duration">00:00:05:00</property>
  <property name="kdenlive:folderid">16</property>
  <property name="kdenlive:id">54</property>
  <property name="kdenlive:clip_type">2</property>
  <property name="kdenlive:file_size">411831</property>
  <property name="kdenlive:file_hash">7f8cbbc34bd7c2e19206185ef6110a5f</property>
 </producer>
 <producer id="producer46" in="00:00:00.000" out="00:00:04.960">
  <property name="length">00:00:05.000</property>
  <property name="eof">pause</property>
  <property name="resource">images/mug.xcf</property>
  <property name="ttl">25</property>
  <property name="aspect_ratio">1</property>
  <property name="progressive">1</property>
  <property name="seekable">1</property>
  <property name="format">2</property>
  <property name="meta.media.width">561</property>
  <property name="meta.media.height">561</property>
  <property name="mlt_service">qimage</property>
  <property name="kdenlive:clipname"/>
  <property name="kdenlive:duration">00:00:05:00</property>
  <property name="kdenlive:folderid">16</property>
  <property name="kdenlive:id">55</property>
  <property name="kdenlive:clip_type">2</property>
  <property name="kdenlive:file_size">388992</property>
  <property name="kdenlive:file_hash">598fa1369d5d1bdf63403a906d13e4b5</property>
 </producer>
 <producer id="producer49" in="00:00:00.000" out="00:00:04.960">
  <property name="length">00:00:05.000</property>
  <property name="eof">pause</property>
  <property name="resource">images/pencil.xcf</property>
  <property name="ttl">25</property>
  <property name="aspect_ratio">1</property>
  <property name="progressive">1</property>
  <property name="seekable">1</property>
  <property name="format">2</property>
  <property name="meta.media.width">434</property>
  <property name="meta.media.height">331</property>
  <property name="mlt_service">qimage</property>
  <property name="kdenlive:clipname"/>
  <property name="kdenlive:duration">00:00:05:00</property>
  <property name="kdenlive:folderid">16</property>
  <property name="kdenlive:id">56</property>
  <property name="kdenlive:clip_type">2</property>
  <property name="kdenlive:file_size">147972</property>
  <property name="kdenlive:file_hash">81d8501a15f7baa52838362b1a4998bc</property>
 </producer>
 <producer id="producer54" in="00:00:00.000" out="00:00:04.960">
  <property name="length">00:00:05.000</property>
  <property name="eof">pause</property>
  <property name="resource">images/picking bananas.xcf</property>
  <property name="ttl">25</property>
  <property name="aspect_ratio">1</property>
  <property name="progressive">1</property>
  <property name="seekable">1</property>
  <property name="format">2</property>
  <property name="meta.media.width">630</property>
  <property name="meta.media.height">779</property>
  <property name="mlt_service">qimage</property>
  <property name="kdenlive:clipname"/>
  <property name="kdenlive:duration">00:00:05:00</property>
  <property name="kdenlive:folderid">16</property>
  <property name="kdenlive:id">57</property>
  <property name="kdenlive:clip_type">2</property>
  <property name="kdenlive:file_size">873442</property>
  <property name="kdenlive:file_hash">59b2a7e916bee598217f2cc7322f1aa4</property>
 </producer>
 <producer id="producer56" in="00:00:00.000" out="00:00:04.960">
  <property name="length">00:00:05.000</property>
  <property name="eof">pause</property>
  <property name="resource">images/pottery.xcf</property>
  <property name="ttl">25</property>
  <property name="aspect_ratio">1</property>
  <property name="progressive">1</property>
  <property name="seekable">1</property>
  <property name="format">2</property>
  <property name="meta.media.width">1034</property>
  <property name="meta.media.height">978</property>
  <property name="mlt_service">qimage</property>
  <property name="kdenlive:clipname"/>
  <property name="kdenlive:duration">00:00:05:00</property>
  <property name="kdenlive:folderid">16</property>
  <property name="kdenlive:id">58</property>
  <property name="kdenlive:clip_type">2</property>
  <property name="kdenlive:file_size">1697387</property>
  <property name="kdenlive:file_hash">696f462be7a554e57b07f7fde93c0347</property>
 </producer>
 <producer id="producer58" in="00:00:00.000" out="00:00:04.960">
  <property name="length">00:00:05.000</property>
  <property name="eof">pause</property>
  <property name="resource">images/leonard read.xcf</property>
  <property name="ttl">25</property>
  <property name="aspect_ratio">1</property>
  <property name="progressive">1</property>
  <property name="seekable">1</property>
  <property name="format">2</property>
  <property name="meta.media.width">854</property>
  <property name="meta.media.height">832</property>
  <property name="mlt_service">qimage</property>
  <property name="kdenlive:clipname"/>
  <property name="kdenlive:duration">00:00:05:00</property>
  <property name="kdenlive:folderid">16</property>
  <property name="kdenlive:id">59</property>
  <property name="kdenlive:clip_type">2</property>
  <property name="kdenlive:file_size">1017022</property>
  <property name="kdenlive:file_hash">d46f3ac53909736fc345e4e2c5699398</property>
 </producer>
 <chain id="chain34" out="00:00:15.000">
  <property name="length">376</property>
  <property name="eof">pause</property>
  <property name="resource">/home/liquidzulu/Videos/yt/b-roll/Stock Market Background Video [AFicYbv-mzg].webm</property>
  <property name="mlt_service">avformat-novalidate</property>
  <property name="meta.media.nb_streams">2</property>
  <property name="meta.media.0.stream.type">video</property>
  <property name="meta.media.0.stream.frame_rate">29.97</property>
  <property name="meta.media.0.stream.sample_aspect_ratio">1</property>
  <property name="meta.media.0.codec.width">1920</property>
  <property name="meta.media.0.codec.height">1080</property>
  <property name="meta.media.0.codec.rotate">0</property>
  <property name="meta.media.0.codec.pix_fmt">yuv420p</property>
  <property name="meta.media.0.codec.sample_aspect_ratio">0</property>
  <property name="meta.media.0.codec.colorspace">709</property>
  <property name="meta.media.0.codec.color_trc">1</property>
  <property name="meta.media.0.codec.name">vp9</property>
  <property name="meta.media.0.codec.long_name">Google VP9</property>
  <property name="meta.media.0.codec.bit_rate">0</property>
  <property name="meta.attr.0.stream.language.markup">eng</property>
  <property name="meta.attr.0.stream.DURATION.markup">00:00:15.015000000</property>
  <property name="meta.media.1.stream.type">audio</property>
  <property name="meta.media.1.codec.sample_fmt">fltp</property>
  <property name="meta.media.1.codec.sample_rate">48000</property>
  <property name="meta.media.1.codec.channels">2</property>
  <property name="meta.media.1.codec.name">opus</property>
  <property name="meta.media.1.codec.long_name">Opus</property>
  <property name="meta.media.1.codec.bit_rate">0</property>
  <property name="meta.attr.1.stream.language.markup">eng</property>
  <property name="meta.attr.1.stream.DURATION.markup">00:00:15.041000000</property>
  <property name="meta.attr.ENCODER.markup">Lavf59.27.100</property>
  <property name="seekable">1</property>
  <property name="meta.media.sample_aspect_num">1</property>
  <property name="meta.media.sample_aspect_den">1</property>
  <property name="format">3</property>
  <property name="audio_index">-1</property>
  <property name="video_index">0</property>
  <property name="meta.media.frame_rate_num">30000</property>
  <property name="meta.media.frame_rate_den">1001</property>
  <property name="meta.media.colorspace">709</property>
  <property name="meta.media.color_trc">1</property>
  <property name="meta.media.has_b_frames">0</property>
  <property name="meta.media.width">1920</property>
  <property name="meta.media.height">1080</property>
  <property name="meta.media.color_range">mpeg</property>
  <property name="kdenlive:clipname"/>
  <property name="meta.media.top_field_first">0</property>
  <property name="meta.media.progressive">1</property>
  <property name="kdenlive:clip_type">0</property>
  <property name="kdenlive:folderid">10</property>
  <property name="kdenlive:id">60</property>
  <property name="kdenlive:file_size">3002458</property>
  <property name="kdenlive:file_hash">013cb9c91c6f934c9d6438cb46d69194</property>
  <property name="kdenlive:audio_max1">1</property>
  <property name="kdenlive:active_streams">-1</property>
  <property name="set.test_audio">1</property>
  <property name="mute_on_pause">1</property>
 </chain>
 <producer id="producer60" in="00:00:00.000" out="00:00:04.960">
  <property name="length">125</property>
  <property name="eof">pause</property>
  <property name="progressive">1</property>
  <property name="aspect_ratio">1</property>
  <property name="seekable">1</property>
  <property name="mlt_service">kdenlivetitle</property>
  <property name="kdenlive:duration">00:00:05:00</property>
  <property name="kdenlive:clipname">if it is not</property>
  <property name="xmldata">&lt;kdenlivetitle duration="125" LC_NUMERIC="C" width="1080" height="1920" out="124">
 &lt;item type="QGraphicsTextItem" z-index="0">
  &lt;position x="255" y="1095">
   &lt;transform>1,0,0,0,1,0,0,0,1&lt;/transform>
  &lt;/position>
  &lt;content line-spacing="0" shadow="0;#64000000;3;3;3" font-underline="0" box-height="132" font-outline-color="0,0,0,255" font="Cubano" letter-spacing="0" font-pixel-size="110" font-italic="0" typewriter="0;2;1;0;0" alignment="4" font-weight="50" font-outline="6" box-width="574.063" font-color="255,255,255,255">if it is not&lt;/content>
 &lt;/item>
 &lt;startviewport rect="0,0,1080,1920"/>
 &lt;endviewport rect="0,0,1080,1920"/>
 &lt;background color="0,0,0,0"/>
&lt;/kdenlivetitle>
</property>
  <property name="kdenlive:folderid">29</property>
  <property name="kdenlive:id">61</property>
  <property name="kdenlive:clip_type">2</property>
  <property name="force_reload">0</property>
  <property name="meta.media.width">1080</property>
  <property name="meta.media.height">1920</property>
  <property name="kdenlive:file_hash">60beaabd10c75293b820e799a067d01e</property>
 </producer>
 <producer id="producer12" in="00:00:00.000" out="00:00:04.960">
  <property name="length">125</property>
  <property name="eof">pause</property>
  <property name="progressive">1</property>
  <property name="aspect_ratio">1</property>
  <property name="seekable">1</property>
  <property name="mlt_service">kdenlivetitle</property>
  <property name="kdenlive:duration">00:00:05:00</property>
  <property name="kdenlive:clipname">entrepreneur...</property>
  <property name="xmldata">&lt;kdenlivetitle duration="125" LC_NUMERIC="C" width="1080" height="1920" out="124">
 &lt;item type="QGraphicsTextItem" z-index="0">
  &lt;position x="125" y="1095">
   &lt;transform>1,0,0,0,1,0,0,0,1&lt;/transform>
  &lt;/position>
  &lt;content line-spacing="0" shadow="0;#64000000;3;3;3" font-underline="0" box-height="132" font-outline-color="0,0,0,255" font="Cubano" letter-spacing="0" font-pixel-size="110" font-italic="0" typewriter="0;2;1;0;0" alignment="4" font-weight="50" font-outline="6" box-width="832.813" font-color="255,255,255,255">entrepreneurs&lt;/content>
 &lt;/item>
 &lt;startviewport rect="0,0,1080,1920"/>
 &lt;endviewport rect="0,0,1080,1920"/>
 &lt;background color="0,0,0,0"/>
&lt;/kdenlivetitle>
</property>
  <property name="kdenlive:folderid">29</property>
  <property name="kdenlive:id">62</property>
  <property name="kdenlive:clip_type">2</property>
  <property name="force_reload">0</property>
  <property name="meta.media.width">1080</property>
  <property name="meta.media.height">1920</property>
  <property name="kdenlive:file_hash">7a6cc4f80d5590a48138b6596a4d8b19</property>
 </producer>
 <producer id="producer13" in="00:00:00.000" out="00:00:04.960">
  <property name="length">125</property>
  <property name="eof">pause</property>
  <property name="progressive">1</property>
  <property name="aspect_ratio">1</property>
  <property name="seekable">1</property>
  <property name="mlt_service">kdenlivetitle</property>
  <property name="kdenlive:duration">00:00:05:00</property>
  <property name="kdenlive:clipname">making</property>
  <property name="xmldata">&lt;kdenlivetitle duration="125" LC_NUMERIC="C" width="1080" height="1920" out="124">
 &lt;item type="QGraphicsTextItem" z-index="0">
  &lt;position x="350" y="1095">
   &lt;transform>1,0,0,0,1,0,0,0,1&lt;/transform>
  &lt;/position>
  &lt;content line-spacing="0" shadow="0;#64000000;3;3;3" font-underline="0" box-height="132" font-outline-color="0,0,0,255" font="Cubano" letter-spacing="0" font-pixel-size="110" font-italic="0" typewriter="0;2;1;0;0" alignment="4" font-weight="50" font-outline="6" box-width="382.422" font-color="255,255,255,255">making&lt;/content>
 &lt;/item>
 &lt;startviewport rect="0,0,1080,1920"/>
 &lt;endviewport rect="0,0,1080,1920"/>
 &lt;background color="0,0,0,0"/>
&lt;/kdenlivetitle>
</property>
  <property name="kdenlive:folderid">29</property>
  <property name="kdenlive:id">63</property>
  <property name="kdenlive:clip_type">2</property>
  <property name="force_reload">0</property>
  <property name="meta.media.width">1080</property>
  <property name="meta.media.height">1920</property>
  <property name="kdenlive:file_hash">190f4cbc247f7f45d8b2543e74abc41b</property>
 </producer>
 <producer id="producer14" in="00:00:00.000" out="00:00:04.960">
  <property name="length">125</property>
  <property name="eof">pause</property>
  <property name="progressive">1</property>
  <property name="aspect_ratio">1</property>
  <property name="seekable">1</property>
  <property name="mlt_service">kdenlivetitle</property>
  <property name="kdenlive:duration">00:00:05:00</property>
  <property name="kdenlive:clipname">these decisi...</property>
  <property name="xmldata">&lt;kdenlivetitle duration="125" LC_NUMERIC="C" width="1080" height="1920" out="124">
 &lt;item type="QGraphicsTextItem" z-index="0">
  &lt;position x="114" y="1095">
   &lt;transform>1,0,0,0,1,0,0,0,1&lt;/transform>
  &lt;/position>
  &lt;content line-spacing="0" shadow="0;#64000000;3;3;3" font-underline="0" box-height="132" font-outline-color="0,0,0,255" font="Cubano" letter-spacing="0" font-pixel-size="110" font-italic="0" typewriter="0;2;1;0;0" alignment="4" font-weight="50" font-outline="6" box-width="854.109" font-color="255,255,255,255">these decisions&lt;/content>
 &lt;/item>
 &lt;startviewport rect="0,0,1080,1920"/>
 &lt;endviewport rect="0,0,1080,1920"/>
 &lt;background color="0,0,0,0"/>
&lt;/kdenlivetitle>
</property>
  <property name="kdenlive:folderid">29</property>
  <property name="kdenlive:id">64</property>
  <property name="kdenlive:clip_type">2</property>
  <property name="force_reload">0</property>
  <property name="meta.media.width">1080</property>
  <property name="meta.media.height">1920</property>
  <property name="kdenlive:file_hash">8a70bdf27d9865788bc6d2894fa79f95</property>
 </producer>
 <producer id="producer15" in="00:00:00.000" out="00:00:04.960">
  <property name="length">125</property>
  <property name="eof">pause</property>
  <property name="progressive">1</property>
  <property name="aspect_ratio">1</property>
  <property name="seekable">1</property>
  <property name="mlt_service">kdenlivetitle</property>
  <property name="kdenlive:duration">00:00:05:00</property>
  <property name="kdenlive:clipname">based upon</property>
  <property name="xmldata">&lt;kdenlivetitle duration="125" LC_NUMERIC="C" width="1080" height="1920" out="124">
 &lt;item type="QGraphicsTextItem" z-index="0">
  &lt;position x="236" y="1095">
   &lt;transform>1,0,0,0,1,0,0,0,1&lt;/transform>
  &lt;/position>
  &lt;content line-spacing="0" shadow="0;#64000000;3;3;3" font-underline="0" box-height="132" font-outline-color="0,0,0,255" font="Cubano" letter-spacing="0" font-pixel-size="110" font-italic="0" typewriter="0;2;1;0;0" alignment="4" font-weight="50" font-outline="6" box-width="610.859" font-color="255,255,255,255">based upon&lt;/content>
 &lt;/item>
 &lt;startviewport rect="0,0,1080,1920"/>
 &lt;endviewport rect="0,0,1080,1920"/>
 &lt;background color="0,0,0,0"/>
&lt;/kdenlivetitle>
</property>
  <property name="kdenlive:folderid">29</property>
  <property name="kdenlive:id">65</property>
  <property name="kdenlive:clip_type">2</property>
  <property name="force_reload">0</property>
  <property name="meta.media.width">1080</property>
  <property name="meta.media.height">1920</property>
  <property name="kdenlive:file_hash">b1c407af2a50bcd31ac5d43f29f0d914</property>
 </producer>
 <producer id="producer16" in="00:00:00.000" out="00:00:04.960">
  <property name="length">125</property>
  <property name="eof">pause</property>
  <property name="progressive">1</property>
  <property name="aspect_ratio">1</property>
  <property name="seekable">1</property>
  <property name="mlt_service">kdenlivetitle</property>
  <property name="kdenlive:duration">00:00:05:00</property>
  <property name="kdenlive:clipname">the private</property>
  <property name="xmldata">&lt;kdenlivetitle duration="125" LC_NUMERIC="C" width="1080" height="1920" out="124">
 &lt;item type="QGraphicsTextItem" z-index="0">
  &lt;position x="225" y="1095">
   &lt;transform>1,0,0,0,1,0,0,0,1&lt;/transform>
  &lt;/position>
  &lt;content line-spacing="0" shadow="0;#64000000;3;3;3" font-underline="0" box-height="132" font-outline-color="0,0,0,255" font="Cubano" letter-spacing="0" font-pixel-size="110" font-italic="0" typewriter="0;2;1;0;0" alignment="4" font-weight="50" font-outline="6" box-width="633.828" font-color="255,255,255,255">the private&lt;/content>
 &lt;/item>
 &lt;startviewport rect="0,0,1080,1920"/>
 &lt;endviewport rect="0,0,1080,1920"/>
 &lt;background color="0,0,0,0"/>
&lt;/kdenlivetitle>
</property>
  <property name="kdenlive:folderid">29</property>
  <property name="kdenlive:id">66</property>
  <property name="kdenlive:clip_type">2</property>
  <property name="force_reload">0</property>
  <property name="meta.media.width">1080</property>
  <property name="meta.media.height">1920</property>
  <property name="kdenlive:file_hash">e58f942fbf053a556bfae0387a65fe6e</property>
 </producer>
 <producer id="producer17" in="00:00:00.000" out="00:00:04.960">
  <property name="length">125</property>
  <property name="eof">pause</property>
  <property name="progressive">1</property>
  <property name="aspect_ratio">1</property>
  <property name="seekable">1</property>
  <property name="mlt_service">kdenlivetitle</property>
  <property name="kdenlive:duration">00:00:05:00</property>
  <property name="kdenlive:clipname">decisions</property>
  <property name="xmldata">&lt;kdenlivetitle duration="125" LC_NUMERIC="C" width="1080" height="1920" out="124">
 &lt;item type="QGraphicsTextItem" z-index="0">
  &lt;position x="288" y="1095">
   &lt;transform>1,0,0,0,1,0,0,0,1&lt;/transform>
  &lt;/position>
  &lt;content line-spacing="0" shadow="0;#64000000;3;3;3" font-underline="0" box-height="132" font-outline-color="0,0,0,255" font="Cubano" letter-spacing="0" font-pixel-size="110" font-italic="0" typewriter="0;2;1;0;0" alignment="4" font-weight="50" font-outline="6" box-width="506.797" font-color="255,255,255,255">decisions&lt;/content>
 &lt;/item>
 &lt;startviewport rect="0,0,1080,1920"/>
 &lt;endviewport rect="0,0,1080,1920"/>
 &lt;background color="0,0,0,0"/>
&lt;/kdenlivetitle>
</property>
  <property name="kdenlive:folderid">29</property>
  <property name="kdenlive:id">67</property>
  <property name="kdenlive:clip_type">2</property>
  <property name="force_reload">0</property>
  <property name="meta.media.width">1080</property>
  <property name="meta.media.height">1920</property>
  <property name="kdenlive:file_hash">0957b6d2ed7e8b37ad55d923747a8f24</property>
 </producer>
 <producer id="producer18" in="00:00:00.000" out="00:00:04.960">
  <property name="length">125</property>
  <property name="eof">pause</property>
  <property name="progressive">1</property>
  <property name="aspect_ratio">1</property>
  <property name="seekable">1</property>
  <property name="mlt_service">kdenlivetitle</property>
  <property name="kdenlive:duration">00:00:05:00</property>
  <property name="kdenlive:clipname">of men</property>
  <property name="xmldata">&lt;kdenlivetitle duration="125" LC_NUMERIC="C" width="1080" height="1920" out="124">
 &lt;item type="QGraphicsTextItem" z-index="0">
  &lt;position x="353" y="1095">
   &lt;transform>1,0,0,0,1,0,0,0,1&lt;/transform>
  &lt;/position>
  &lt;content line-spacing="0" shadow="0;#64000000;3;3;3" font-underline="0" box-height="132" font-outline-color="0,0,0,255" font="Cubano" letter-spacing="0" font-pixel-size="110" font-italic="0" typewriter="0;2;1;0;0" alignment="4" font-weight="50" font-outline="6" box-width="375.375" font-color="255,255,255,255">of men&lt;/content>
 &lt;/item>
 &lt;startviewport rect="0,0,1080,1920"/>
 &lt;endviewport rect="0,0,1080,1920"/>
 &lt;background color="0,0,0,0"/>
&lt;/kdenlivetitle>
</property>
  <property name="kdenlive:folderid">29</property>
  <property name="kdenlive:id">68</property>
  <property name="kdenlive:clip_type">2</property>
  <property name="force_reload">0</property>
  <property name="meta.media.width">1080</property>
  <property name="meta.media.height">1920</property>
  <property name="kdenlive:file_hash">7bc4f31c02ed563a0b319e16aa74398c</property>
 </producer>
 <producer id="producer19" in="00:00:00.000" out="00:00:04.960">
  <property name="length">125</property>
  <property name="eof">pause</property>
  <property name="progressive">1</property>
  <property name="aspect_ratio">1</property>
  <property name="seekable">1</property>
  <property name="mlt_service">kdenlivetitle</property>
  <property name="kdenlive:duration">00:00:05:00</property>
  <property name="kdenlive:clipname">then it</property>
  <property name="xmldata">&lt;kdenlivetitle duration="125" LC_NUMERIC="C" width="1080" height="1920" out="124">
 &lt;item type="QGraphicsTextItem" z-index="0">
  &lt;position x="345" y="1095">
   &lt;transform>1,0,0,0,1,0,0,0,1&lt;/transform>
  &lt;/position>
  &lt;content line-spacing="0" shadow="0;#64000000;3;3;3" font-underline="0" box-height="132" font-outline-color="0,0,0,255" font="Cubano" letter-spacing="0" font-pixel-size="110" font-italic="0" typewriter="0;2;1;0;0" alignment="4" font-weight="50" font-outline="6" box-width="389.656" font-color="255,255,255,255">then it&lt;/content>
 &lt;/item>
 &lt;startviewport rect="0,0,1080,1920"/>
 &lt;endviewport rect="0,0,1080,1920"/>
 &lt;background color="0,0,0,0"/>
&lt;/kdenlivetitle>
</property>
  <property name="kdenlive:folderid">29</property>
  <property name="kdenlive:id">69</property>
  <property name="kdenlive:clip_type">2</property>
  <property name="force_reload">0</property>
  <property name="meta.media.width">1080</property>
  <property name="meta.media.height">1920</property>
  <property name="kdenlive:file_hash">bc38e12685073faa11090f8a11f9a956</property>
 </producer>
 <producer id="producer20" in="00:00:00.000" out="00:00:04.960">
  <property name="length">125</property>
  <property name="eof">pause</property>
  <property name="progressive">1</property>
  <property name="aspect_ratio">1</property>
  <property name="seekable">1</property>
  <property name="mlt_service">kdenlivetitle</property>
  <property name="kdenlive:duration">00:00:05:00</property>
  <property name="kdenlive:clipname">must be</property>
  <property name="xmldata">&lt;kdenlivetitle duration="125" LC_NUMERIC="C" width="1080" height="1920" out="124">
 &lt;item type="QGraphicsTextItem" z-index="0">
  &lt;position x="322" y="1095">
   &lt;transform>1,0,0,0,1,0,0,0,1&lt;/transform>
  &lt;/position>
  &lt;content line-spacing="0" shadow="0;#64000000;3;3;3" font-underline="0" box-height="132" font-outline-color="0,0,0,255" font="Cubano" letter-spacing="0" font-pixel-size="110" font-italic="0" typewriter="0;2;1;0;0" alignment="4" font-weight="50" font-outline="6" box-width="437.625" font-color="255,255,255,255">must be&lt;/content>
 &lt;/item>
 &lt;startviewport rect="0,0,1080,1920"/>
 &lt;endviewport rect="0,0,1080,1920"/>
 &lt;background color="0,0,0,0"/>
&lt;/kdenlivetitle>
</property>
  <property name="kdenlive:folderid">29</property>
  <property name="kdenlive:id">70</property>
  <property name="kdenlive:clip_type">2</property>
  <property name="force_reload">0</property>
  <property name="meta.media.width">1080</property>
  <property name="meta.media.height">1920</property>
  <property name="kdenlive:file_hash">9652577f3784cafe2d0669fef68ff94d</property>
 </producer>
 <chain id="chain35" out="00:01:29.080">
  <property name="length">2228</property>
  <property name="eof">pause</property>
  <property name="resource">/home/liquidzulu/Videos/yt/b-roll/Joseph Stalin Footage - Moscow (1947) [upakJluxmw0].webm</property>
  <property name="mlt_service">avformat-novalidate</property>
  <property name="meta.media.nb_streams">2</property>
  <property name="meta.media.0.stream.type">video</property>
  <property name="meta.media.0.stream.frame_rate">25</property>
  <property name="meta.media.0.stream.sample_aspect_ratio">1</property>
  <property name="meta.media.0.codec.width">640</property>
  <property name="meta.media.0.codec.height">480</property>
  <property name="meta.media.0.codec.rotate">0</property>
  <property name="meta.media.0.codec.pix_fmt">yuv420p</property>
  <property name="meta.media.0.codec.sample_aspect_ratio">0</property>
  <property name="meta.media.0.codec.colorspace">601</property>
  <property name="meta.media.0.codec.name">vp9</property>
  <property name="meta.media.0.codec.long_name">Google VP9</property>
  <property name="meta.media.0.codec.bit_rate">0</property>
  <property name="meta.attr.0.stream.language.markup">eng</property>
  <property name="meta.attr.0.stream.DURATION.markup">00:01:29.040000000</property>
  <property name="meta.media.1.stream.type">audio</property>
  <property name="meta.media.1.codec.sample_fmt">fltp</property>
  <property name="meta.media.1.codec.sample_rate">48000</property>
  <property name="meta.media.1.codec.channels">2</property>
  <property name="meta.media.1.codec.name">opus</property>
  <property name="meta.media.1.codec.long_name">Opus</property>
  <property name="meta.media.1.codec.bit_rate">0</property>
  <property name="meta.attr.1.stream.language.markup">eng</property>
  <property name="meta.attr.1.stream.DURATION.markup">00:01:29.121000000</property>
  <property name="meta.attr.ENCODER.markup">Lavf59.27.100</property>
  <property name="seekable">1</property>
  <property name="meta.media.sample_aspect_num">1</property>
  <property name="meta.media.sample_aspect_den">1</property>
  <property name="format">3</property>
  <property name="audio_index">-1</property>
  <property name="video_index">0</property>
  <property name="meta.media.frame_rate_num">25</property>
  <property name="meta.media.frame_rate_den">1</property>
  <property name="meta.media.colorspace">601</property>
  <property name="meta.media.color_trc">2</property>
  <property name="meta.media.has_b_frames">0</property>
  <property name="meta.media.width">640</property>
  <property name="meta.media.height">480</property>
  <property name="meta.media.color_range">mpeg</property>
  <property name="kdenlive:clipname"/>
  <property name="meta.media.top_field_first">0</property>
  <property name="meta.media.progressive">1</property>
  <property name="kdenlive:clip_type">0</property>
  <property name="kdenlive:folderid">10</property>
  <property name="kdenlive:id">71</property>
  <property name="kdenlive:file_size">7050356</property>
  <property name="kdenlive:file_hash">f6ee1d06b5641fbf5c2e6b50cbf061fe</property>
  <property name="kdenlive:audio_max1">133</property>
  <property name="kdenlive:active_streams">-1</property>
  <property name="set.test_audio">1</property>
  <property name="mute_on_pause">1</property>
 </chain>
 <producer id="producer47" in="00:00:00.000" out="00:00:04.960">
  <property name="length">125</property>
  <property name="eof">pause</property>
  <property name="progressive">1</property>
  <property name="aspect_ratio">1</property>
  <property name="seekable">1</property>
  <property name="mlt_service">kdenlivetitle</property>
  <property name="kdenlive:duration">00:00:05:00</property>
  <property name="kdenlive:clipname">that their p...</property>
  <property name="xmldata">&lt;kdenlivetitle duration="125" LC_NUMERIC="C" width="1080" height="1920" out="124">
 &lt;item type="QGraphicsTextItem" z-index="0">
  &lt;position x="78" y="1095">
   &lt;transform>1,0,0,0,1,0,0,0,1&lt;/transform>
  &lt;/position>
  &lt;content line-spacing="0" shadow="0;#64000000;3;3;3" font-underline="0" box-height="132" font-outline-color="0,0,0,255" font="Cubano" letter-spacing="0" font-pixel-size="110" font-italic="0" typewriter="0;2;1;0;0" alignment="4" font-weight="50" font-outline="6" box-width="925.922" font-color="255,255,255,255">that their plans&lt;/content>
 &lt;/item>
 &lt;startviewport rect="0,0,1080,1920"/>
 &lt;endviewport rect="0,0,1080,1920"/>
 &lt;background color="0,0,0,0"/>
&lt;/kdenlivetitle>
</property>
  <property name="kdenlive:folderid">29</property>
  <property name="kdenlive:id">72</property>
  <property name="kdenlive:clip_type">2</property>
  <property name="force_reload">0</property>
  <property name="meta.media.width">1080</property>
  <property name="meta.media.height">1920</property>
  <property name="kdenlive:file_hash">258911d91182ff9f5de0db5e860bce84</property>
 </producer>
 <producer id="producer21" in="00:00:00.000" out="00:00:04.960">
  <property name="length">125</property>
  <property name="eof">pause</property>
  <property name="progressive">1</property>
  <property name="aspect_ratio">1</property>
  <property name="seekable">1</property>
  <property name="mlt_service">kdenlivetitle</property>
  <property name="kdenlive:duration">00:00:05:00</property>
  <property name="kdenlive:clipname">are being</property>
  <property name="xmldata">&lt;kdenlivetitle duration="125" LC_NUMERIC="C" width="1080" height="1920" out="124">
 &lt;item type="QGraphicsTextItem" z-index="0">
  &lt;position x="285" y="1095">
   &lt;transform>1,0,0,0,1,0,0,0,1&lt;/transform>
  &lt;/position>
  &lt;content line-spacing="0" shadow="0;#64000000;3;3;3" font-underline="0" box-height="132" font-outline-color="0,0,0,255" font="Cubano" letter-spacing="0" font-pixel-size="110" font-italic="0" typewriter="0;2;1;0;0" alignment="4" font-weight="50" font-outline="6" box-width="511.984" font-color="255,255,255,255">are being&lt;/content>
 &lt;/item>
 &lt;startviewport rect="0,0,1080,1920"/>
 &lt;endviewport rect="0,0,1080,1920"/>
 &lt;background color="0,0,0,0"/>
&lt;/kdenlivetitle>
</property>
  <property name="kdenlive:folderid">29</property>
  <property name="kdenlive:id">73</property>
  <property name="kdenlive:clip_type">2</property>
  <property name="force_reload">0</property>
  <property name="meta.media.width">1080</property>
  <property name="meta.media.height">1920</property>
  <property name="kdenlive:file_hash">a47f64b620b2f332585b0c56b0c43134</property>
 </producer>
 <producer id="producer22" in="00:00:00.000" out="00:00:04.960">
  <property name="length">125</property>
  <property name="eof">pause</property>
  <property name="progressive">1</property>
  <property name="aspect_ratio">1</property>
  <property name="seekable">1</property>
  <property name="mlt_service">kdenlivetitle</property>
  <property name="kdenlive:duration">00:00:05:00</property>
  <property name="kdenlive:clipname">substituted</property>
  <property name="xmldata">&lt;kdenlivetitle duration="125" LC_NUMERIC="C" width="1080" height="1920" out="124">
 &lt;item type="QGraphicsTextItem" z-index="0">
  &lt;position x="206" y="1095">
   &lt;transform>1,0,0,0,1,0,0,0,1&lt;/transform>
  &lt;/position>
  &lt;content line-spacing="0" shadow="0;#64000000;3;3;3" font-underline="0" box-height="132" font-outline-color="0,0,0,255" font="Cubano" letter-spacing="0" font-pixel-size="110" font-italic="0" typewriter="0;2;1;0;0" alignment="4" font-weight="50" font-outline="6" box-width="670.453" font-color="255,255,255,255">substituted&lt;/content>
 &lt;/item>
 &lt;startviewport rect="0,0,1080,1920"/>
 &lt;endviewport rect="0,0,1080,1920"/>
 &lt;background color="0,0,0,0"/>
&lt;/kdenlivetitle>
</property>
  <property name="kdenlive:folderid">29</property>
  <property name="kdenlive:id">74</property>
  <property name="kdenlive:clip_type">2</property>
  <property name="force_reload">0</property>
  <property name="meta.media.width">1080</property>
  <property name="meta.media.height">1920</property>
  <property name="kdenlive:file_hash">3d44cf5872f9c337bb5eb853a1df1371</property>
 </producer>
 <producer id="producer23" in="00:00:00.000" out="00:00:04.960">
  <property name="length">125</property>
  <property name="eof">pause</property>
  <property name="progressive">1</property>
  <property name="aspect_ratio">1</property>
  <property name="seekable">1</property>
  <property name="mlt_service">kdenlivetitle</property>
  <property name="kdenlive:duration">00:00:05:00</property>
  <property name="kdenlive:clipname">for the plan...</property>
  <property name="xmldata">&lt;kdenlivetitle duration="125" LC_NUMERIC="C" width="1080" height="1920" out="124">
 &lt;item type="QGraphicsTextItem" z-index="0">
  &lt;position x="161" y="1095">
   &lt;transform>1,0,0,0,1,0,0,0,1&lt;/transform>
  &lt;/position>
  &lt;content line-spacing="0" shadow="0;#64000000;3;3;3" font-underline="0" box-height="132" font-outline-color="0,0,0,255" font="Cubano" letter-spacing="0" font-pixel-size="110" font-italic="0" typewriter="0;2;1;0;0" alignment="4" font-weight="50" font-outline="6" box-width="761.844" font-color="255,255,255,255">for the plans&lt;/content>
 &lt;/item>
 &lt;startviewport rect="0,0,1080,1920"/>
 &lt;endviewport rect="0,0,1080,1920"/>
 &lt;background color="0,0,0,0"/>
&lt;/kdenlivetitle>
</property>
  <property name="kdenlive:folderid">29</property>
  <property name="kdenlive:id">75</property>
  <property name="kdenlive:clip_type">2</property>
  <property name="force_reload">0</property>
  <property name="meta.media.width">1080</property>
  <property name="meta.media.height">1920</property>
  <property name="kdenlive:file_hash">425aaa59719a5c4926ebad72702d9c97</property>
 </producer>
 <producer id="producer24" in="00:00:00.000" out="00:00:04.960">
  <property name="length">125</property>
  <property name="eof">pause</property>
  <property name="progressive">1</property>
  <property name="aspect_ratio">1</property>
  <property name="seekable">1</property>
  <property name="mlt_service">kdenlivetitle</property>
  <property name="kdenlive:duration">00:00:05:00</property>
  <property name="kdenlive:clipname">of some</property>
  <property name="xmldata">&lt;kdenlivetitle duration="125" LC_NUMERIC="C" width="1080" height="1920" out="124">
 &lt;item type="QGraphicsTextItem" z-index="0">
  &lt;position x="326" y="1095">
   &lt;transform>1,0,0,0,1,0,0,0,1&lt;/transform>
  &lt;/position>
  &lt;content line-spacing="0" shadow="0;#64000000;3;3;3" font-underline="0" box-height="132" font-outline-color="0,0,0,255" font="Cubano" letter-spacing="0" font-pixel-size="110" font-italic="0" typewriter="0;2;1;0;0" alignment="4" font-weight="50" font-outline="6" box-width="432.781" font-color="255,255,255,255">of some&lt;/content>
 &lt;/item>
 &lt;startviewport rect="0,0,1080,1920"/>
 &lt;endviewport rect="0,0,1080,1920"/>
 &lt;background color="0,0,0,0"/>
&lt;/kdenlivetitle>
</property>
  <property name="kdenlive:folderid">29</property>
  <property name="kdenlive:id">76</property>
  <property name="kdenlive:clip_type">2</property>
  <property name="force_reload">0</property>
  <property name="meta.media.width">1080</property>
  <property name="meta.media.height">1920</property>
  <property name="kdenlive:file_hash">8f5138eeff82b5d1fb037a1564363a2a</property>
 </producer>
 <producer id="producer25" in="00:00:00.000" out="00:00:04.960">
  <property name="length">125</property>
  <property name="eof">pause</property>
  <property name="progressive">1</property>
  <property name="aspect_ratio">1</property>
  <property name="seekable">1</property>
  <property name="mlt_service">kdenlivetitle</property>
  <property name="kdenlive:duration">00:00:05:00</property>
  <property name="kdenlive:clipname">socialist</property>
  <property name="xmldata">&lt;kdenlivetitle duration="125" LC_NUMERIC="C" width="1080" height="1920" out="124">
 &lt;item type="QGraphicsTextItem" z-index="0">
  &lt;position x="292" y="1095">
   &lt;transform>1,0,0,0,1,0,0,0,1&lt;/transform>
  &lt;/position>
  &lt;content line-spacing="0" shadow="0;#64000000;3;3;3" font-underline="0" box-height="132" font-outline-color="0,0,0,255" font="Cubano" letter-spacing="0" font-pixel-size="110" font-italic="0" typewriter="0;2;1;0;0" alignment="4" font-weight="50" font-outline="6" box-width="495.469" font-color="255,255,255,255">socialist&lt;/content>
 &lt;/item>
 &lt;startviewport rect="0,0,1080,1920"/>
 &lt;endviewport rect="0,0,1080,1920"/>
 &lt;background color="0,0,0,0"/>
&lt;/kdenlivetitle>
</property>
  <property name="kdenlive:folderid">29</property>
  <property name="kdenlive:id">77</property>
  <property name="kdenlive:clip_type">2</property>
  <property name="force_reload">0</property>
  <property name="meta.media.width">1080</property>
  <property name="meta.media.height">1920</property>
  <property name="kdenlive:file_hash">fca27818834e66fc4322eb59f534ef0a</property>
 </producer>
 <producer id="producer26" in="00:00:00.000" out="00:00:04.960">
  <property name="length">125</property>
  <property name="eof">pause</property>
  <property name="progressive">1</property>
  <property name="aspect_ratio">1</property>
  <property name="seekable">1</property>
  <property name="mlt_service">kdenlivetitle</property>
  <property name="kdenlive:duration">00:00:05:00</property>
  <property name="kdenlive:clipname">central plan...</property>
  <property name="xmldata">&lt;kdenlivetitle duration="125" LC_NUMERIC="C" width="1080" height="1920" out="124">
 &lt;item type="QGraphicsTextItem" z-index="0">
  &lt;position x="77" y="1095">
   &lt;transform>1,0,0,0,1,0,0,0,1&lt;/transform>
  &lt;/position>
  &lt;content line-spacing="0" shadow="0;#64000000;3;3;3" font-underline="0" box-height="132" font-outline-color="0,0,0,255" font="Cubano" letter-spacing="0" font-pixel-size="110" font-italic="0" typewriter="0;2;1;0;0" alignment="4" font-weight="50" font-outline="6" box-width="925.328" font-color="255,255,255,255">central planner&lt;/content>
 &lt;/item>
 &lt;startviewport rect="0,0,1080,1920"/>
 &lt;endviewport rect="0,0,1080,1920"/>
 &lt;background color="0,0,0,0"/>
&lt;/kdenlivetitle>
</property>
  <property name="kdenlive:folderid">29</property>
  <property name="kdenlive:id">78</property>
  <property name="kdenlive:clip_type">2</property>
  <property name="force_reload">0</property>
  <property name="meta.media.width">1080</property>
  <property name="meta.media.height">1920</property>
  <property name="kdenlive:file_hash">2da0d78018768e5186375b81960fb084</property>
 </producer>
 <producer id="producer27" in="00:00:00.000" out="00:00:04.960">
  <property name="length">00:00:05.000</property>
  <property name="eof">pause</property>
  <property name="resource">images/two choices.xcf</property>
  <property name="ttl">25</property>
  <property name="aspect_ratio">1</property>
  <property name="progressive">1</property>
  <property name="seekable">1</property>
  <property name="format">2</property>
  <property name="meta.media.width">615</property>
  <property name="meta.media.height">616</property>
  <property name="mlt_service">qimage</property>
  <property name="kdenlive:clipname"/>
  <property name="kdenlive:duration">00:00:05:00</property>
  <property name="kdenlive:folderid">16</property>
  <property name="kdenlive:id">79</property>
  <property name="kdenlive:clip_type">2</property>
  <property name="kdenlive:file_size">1138560</property>
  <property name="kdenlive:file_hash">5a3381a03c9ea663829532ba7777414e</property>
 </producer>
 <producer id="producer35" in="00:00:00.000" out="00:00:04.960">
  <property name="length">125</property>
  <property name="eof">pause</property>
  <property name="progressive">1</property>
  <property name="aspect_ratio">1</property>
  <property name="seekable">1</property>
  <property name="mlt_service">kdenlivetitle</property>
  <property name="kdenlive:duration">00:00:05:00</property>
  <property name="kdenlive:clipname">there is no</property>
  <property name="xmldata">&lt;kdenlivetitle duration="125" LC_NUMERIC="C" width="1080" height="1920" out="124">
 &lt;item type="QGraphicsTextItem" z-index="0">
  &lt;position x="236" y="1095">
   &lt;transform>1,0,0,0,1,0,0,0,1&lt;/transform>
  &lt;/position>
  &lt;content line-spacing="0" shadow="0;#64000000;3;3;3" font-underline="0" box-height="132" font-outline-color="0,0,0,255" font="Cubano" letter-spacing="0" font-pixel-size="110" font-italic="0" typewriter="0;2;1;0;0" alignment="4" font-weight="50" font-outline="6" box-width="610.938" font-color="255,255,255,255">there is no&lt;/content>
 &lt;/item>
 &lt;startviewport rect="0,0,1080,1920"/>
 &lt;endviewport rect="0,0,1080,1920"/>
 &lt;background color="0,0,0,0"/>
&lt;/kdenlivetitle>
</property>
  <property name="kdenlive:folderid">29</property>
  <property name="kdenlive:id">80</property>
  <property name="kdenlive:clip_type">2</property>
  <property name="force_reload">0</property>
  <property name="meta.media.width">1080</property>
  <property name="meta.media.height">1920</property>
  <property name="kdenlive:file_hash">b83e3501abd5c404d51696965b588b65</property>
 </producer>
 <producer id="producer36" in="00:00:00.000" out="00:00:04.960">
  <property name="length">125</property>
  <property name="eof">pause</property>
  <property name="progressive">1</property>
  <property name="aspect_ratio">1</property>
  <property name="seekable">1</property>
  <property name="mlt_service">kdenlivetitle</property>
  <property name="kdenlive:duration">00:00:05:00</property>
  <property name="kdenlive:clipname">sensical</property>
  <property name="xmldata">&lt;kdenlivetitle duration="125" LC_NUMERIC="C" width="1080" height="1920" out="124">
 &lt;item type="QGraphicsTextItem" z-index="0">
  &lt;position x="307" y="1095">
   &lt;transform>1,0,0,0,1,0,0,0,1&lt;/transform>
  &lt;/position>
  &lt;content line-spacing="0" shadow="0;#64000000;3;3;3" font-underline="0" box-height="132" font-outline-color="0,0,0,255" font="Cubano" letter-spacing="0" font-pixel-size="110" font-italic="0" typewriter="0;2;1;0;0" alignment="4" font-weight="50" font-outline="6" box-width="468.531" font-color="255,255,255,255">sensical&lt;/content>
 &lt;/item>
 &lt;startviewport rect="0,0,1080,1920"/>
 &lt;endviewport rect="0,0,1080,1920"/>
 &lt;background color="0,0,0,0"/>
&lt;/kdenlivetitle>
</property>
  <property name="kdenlive:folderid">29</property>
  <property name="kdenlive:id">81</property>
  <property name="kdenlive:clip_type">2</property>
  <property name="force_reload">0</property>
  <property name="meta.media.width">1080</property>
  <property name="meta.media.height">1920</property>
  <property name="kdenlive:file_hash">74c34653c5fbf36126962dc3f2b2c597</property>
 </producer>
 <producer id="producer37" in="00:00:00.000" out="00:00:04.960">
  <property name="length">125</property>
  <property name="eof">pause</property>
  <property name="progressive">1</property>
  <property name="aspect_ratio">1</property>
  <property name="seekable">1</property>
  <property name="mlt_service">kdenlivetitle</property>
  <property name="kdenlive:duration">00:00:05:00</property>
  <property name="kdenlive:clipname">middle-road</property>
  <property name="xmldata">&lt;kdenlivetitle duration="125" LC_NUMERIC="C" width="1080" height="1920" out="124">
 &lt;item type="QGraphicsTextItem" z-index="0">
  &lt;position x="192" y="1095">
   &lt;transform>1,0,0,0,1,0,0,0,1&lt;/transform>
  &lt;/position>
  &lt;content line-spacing="0" shadow="0;#64000000;3;3;3" font-underline="0" box-height="132" font-outline-color="0,0,0,255" font="Cubano" letter-spacing="0" font-pixel-size="110" font-italic="0" typewriter="0;2;1;0;0" alignment="4" font-weight="50" font-outline="6" box-width="695.984" font-color="255,255,255,255">middle-road&lt;/content>
 &lt;/item>
 &lt;startviewport rect="0,0,1080,1920"/>
 &lt;endviewport rect="0,0,1080,1920"/>
 &lt;background color="0,0,0,0"/>
&lt;/kdenlivetitle>
</property>
  <property name="kdenlive:folderid">29</property>
  <property name="kdenlive:id">82</property>
  <property name="kdenlive:clip_type">2</property>
  <property name="force_reload">0</property>
  <property name="meta.media.width">1080</property>
  <property name="meta.media.height">1920</property>
  <property name="kdenlive:file_hash">ad2e7cacdf626b5fc808fcae5bea771d</property>
 </producer>
 <producer id="producer39" in="00:00:00.000" out="00:00:04.960">
  <property name="length">125</property>
  <property name="eof">pause</property>
  <property name="progressive">1</property>
  <property name="aspect_ratio">1</property>
  <property name="seekable">1</property>
  <property name="mlt_service">kdenlivetitle</property>
  <property name="kdenlive:duration">00:00:05:00</property>
  <property name="kdenlive:clipname">these extrem...</property>
  <property name="xmldata">&lt;kdenlivetitle duration="125" LC_NUMERIC="C" width="1080" height="1920" out="124">
 &lt;item type="QGraphicsTextItem" z-index="0">
  &lt;position x="104" y="1095">
   &lt;transform>1,0,0,0,1,0,0,0,1&lt;/transform>
  &lt;/position>
  &lt;content line-spacing="0" shadow="0;#64000000;3;3;3" font-underline="0" box-height="132" font-outline-color="0,0,0,255" font="Cubano" letter-spacing="0" font-pixel-size="110" font-italic="0" typewriter="0;2;1;0;0" alignment="4" font-weight="50" font-outline="6" box-width="875.234" font-color="255,255,255,255">these extremes&lt;/content>
 &lt;/item>
 &lt;startviewport rect="0,0,1080,1920"/>
 &lt;endviewport rect="0,0,1080,1920"/>
 &lt;background color="0,0,0,0"/>
&lt;/kdenlivetitle>
</property>
  <property name="kdenlive:folderid">29</property>
  <property name="kdenlive:id">83</property>
  <property name="kdenlive:clip_type">2</property>
  <property name="force_reload">0</property>
  <property name="meta.media.width">1080</property>
  <property name="meta.media.height">1920</property>
  <property name="kdenlive:file_hash">38fd2269d48003e8699e6079025f5161</property>
 </producer>
 <chain id="chain36" out="00:00:39.480">
  <property name="length">988</property>
  <property name="eof">pause</property>
  <property name="resource">/home/liquidzulu/Videos/yt/b-roll/How much money $$ my laundromat made this weekend #shorts [ETJL1vH1OpE].webm</property>
  <property name="mlt_service">avformat-novalidate</property>
  <property name="meta.media.nb_streams">2</property>
  <property name="meta.media.0.stream.type">video</property>
  <property name="meta.media.0.stream.frame_rate">30.0025</property>
  <property name="meta.media.0.stream.sample_aspect_ratio">1</property>
  <property name="meta.media.0.codec.width">1080</property>
  <property name="meta.media.0.codec.height">1920</property>
  <property name="meta.media.0.codec.rotate">0</property>
  <property name="meta.media.0.codec.pix_fmt">yuv420p</property>
  <property name="meta.media.0.codec.sample_aspect_ratio">0</property>
  <property name="meta.media.0.codec.colorspace">709</property>
  <property name="meta.media.0.codec.color_trc">1</property>
  <property name="meta.media.0.codec.name">vp9</property>
  <property name="meta.media.0.codec.long_name">Google VP9</property>
  <property name="meta.media.0.codec.bit_rate">0</property>
  <property name="meta.attr.0.stream.HANDLER_NAME.markup">ISO Media file produced by Google Inc. Created on: 11/06/2023.</property>
  <property name="meta.attr.0.stream.VENDOR_ID.markup">[0][0][0][0]</property>
  <property name="meta.attr.0.stream.DURATION.markup">00:00:39.433000000</property>
  <property name="meta.media.1.stream.type">audio</property>
  <property name="meta.media.1.codec.sample_fmt">fltp</property>
  <property name="meta.media.1.codec.sample_rate">48000</property>
  <property name="meta.media.1.codec.channels">2</property>
  <property name="meta.media.1.codec.name">opus</property>
  <property name="meta.media.1.codec.long_name">Opus</property>
  <property name="meta.media.1.codec.bit_rate">0</property>
  <property name="meta.attr.1.stream.language.markup">eng</property>
  <property name="meta.attr.1.stream.DURATION.markup">00:00:39.521000000</property>
  <property name="meta.attr.COMPATIBLE_BRANDS.markup">iso6mp41</property>
  <property name="meta.attr.MAJOR_BRAND.markup">dash</property>
  <property name="meta.attr.MINOR_VERSION.markup">0</property>
  <property name="meta.attr.ENCODER.markup">Lavf59.27.100</property>
  <property name="seekable">1</property>
  <property name="meta.media.sample_aspect_num">1</property>
  <property name="meta.media.sample_aspect_den">1</property>
  <property name="format">3</property>
  <property name="audio_index">1</property>
  <property name="video_index">0</property>
  <property name="meta.media.frame_rate_num">11821</property>
  <property name="meta.media.frame_rate_den">394</property>
  <property name="meta.media.colorspace">709</property>
  <property name="meta.media.color_trc">1</property>
  <property name="meta.media.has_b_frames">0</property>
  <property name="meta.media.width">1080</property>
  <property name="meta.media.height">1920</property>
  <property name="meta.media.color_range">mpeg</property>
  <property name="kdenlive:clipname"/>
  <property name="meta.media.top_field_first">0</property>
  <property name="meta.media.progressive">1</property>
  <property name="kdenlive:clip_type">0</property>
  <property name="kdenlive:folderid">10</property>
  <property name="kdenlive:id">84</property>
  <property name="kdenlive:file_size">23390561</property>
  <property name="kdenlive:file_hash">ac653eefee23ca72bfc49378f7046098</property>
  <property name="kdenlive:audio_max1">144</property>
  <property name="mute_on_pause">1</property>
 </chain>
 <producer id="producer50" in="00:00:00.000" out="00:00:04.960">
  <property name="length">125</property>
  <property name="eof">pause</property>
  <property name="progressive">1</property>
  <property name="aspect_ratio">1</property>
  <property name="seekable">1</property>
  <property name="mlt_service">kdenlivetitle</property>
  <property name="kdenlive:duration">00:00:05:00</property>
  <property name="kdenlive:clipname">you are eith...</property>
  <property name="xmldata">&lt;kdenlivetitle duration="125" LC_NUMERIC="C" width="1080" height="1920" out="124">
 &lt;item type="QGraphicsTextItem" z-index="0">
  &lt;position x="143" y="1095">
   &lt;transform>1,0,0,0,1,0,0,0,1&lt;/transform>
  &lt;/position>
  &lt;content line-spacing="0" shadow="0;#64000000;3;3;3" font-underline="0" box-height="132" font-outline-color="0,0,0,255" font="Cubano" letter-spacing="0" font-pixel-size="110" font-italic="0" typewriter="0;2;1;0;0" alignment="4" font-weight="50" font-outline="6" box-width="797.5" font-color="255,255,255,255">you are either&lt;/content>
 &lt;/item>
 &lt;startviewport rect="0,0,1080,1920"/>
 &lt;endviewport rect="0,0,1080,1920"/>
 &lt;background color="0,0,0,0"/>
&lt;/kdenlivetitle>
</property>
  <property name="kdenlive:folderid">29</property>
  <property name="kdenlive:id">85</property>
  <property name="kdenlive:clip_type">2</property>
  <property name="force_reload">0</property>
  <property name="meta.media.width">1080</property>
  <property name="meta.media.height">1920</property>
  <property name="kdenlive:file_hash">849b9353e88f0b6f2c40893a37adc1df</property>
 </producer>
 <producer id="producer28" in="00:00:00.000" out="00:00:04.960">
  <property name="length">125</property>
  <property name="eof">pause</property>
  <property name="progressive">1</property>
  <property name="aspect_ratio">1</property>
  <property name="seekable">1</property>
  <property name="mlt_service">kdenlivetitle</property>
  <property name="kdenlive:duration">00:00:05:00</property>
  <property name="kdenlive:clipname">in favour of</property>
  <property name="xmldata">&lt;kdenlivetitle duration="125" LC_NUMERIC="C" width="1080" height="1920" out="124">
 &lt;item type="QGraphicsTextItem" z-index="0">
  &lt;position x="209" y="1095">
   &lt;transform>1,0,0,0,1,0,0,0,1&lt;/transform>
  &lt;/position>
  &lt;content line-spacing="0" shadow="0;#64000000;3;3;3" font-underline="0" box-height="132" font-outline-color="0,0,0,255" font="Cubano" letter-spacing="0" font-pixel-size="110" font-italic="0" typewriter="0;2;1;0;0" alignment="4" font-weight="50" font-outline="6" box-width="669.125" font-color="255,255,255,255">in favour of&lt;/content>
 &lt;/item>
 &lt;startviewport rect="0,0,1080,1920"/>
 &lt;endviewport rect="0,0,1080,1920"/>
 &lt;background color="0,0,0,0"/>
&lt;/kdenlivetitle>
</property>
  <property name="kdenlive:folderid">29</property>
  <property name="kdenlive:id">86</property>
  <property name="kdenlive:clip_type">2</property>
  <property name="force_reload">0</property>
  <property name="meta.media.width">1080</property>
  <property name="meta.media.height">1920</property>
  <property name="kdenlive:file_hash">78a4ff183e7002e596a5517a1c253ee6</property>
 </producer>
 <producer id="producer29" in="00:00:00.000" out="00:00:04.960">
  <property name="length">125</property>
  <property name="eof">pause</property>
  <property name="progressive">1</property>
  <property name="aspect_ratio">1</property>
  <property name="seekable">1</property>
  <property name="mlt_service">kdenlivetitle</property>
  <property name="kdenlive:duration">00:00:05:00</property>
  <property name="kdenlive:clipname">the market</property>
  <property name="xmldata">&lt;kdenlivetitle duration="125" LC_NUMERIC="C" width="1080" height="1920" out="124">
 &lt;item type="QGraphicsTextItem" z-index="0">
  &lt;position x="224" y="1095">
   &lt;transform>1,0,0,0,1,0,0,0,1&lt;/transform>
  &lt;/position>
  &lt;content line-spacing="0" shadow="0;#64000000;3;3;3" font-underline="0" box-height="132" font-outline-color="0,0,0,255" font="Cubano" letter-spacing="0" font-pixel-size="110" font-italic="0" typewriter="0;2;1;0;0" alignment="4" font-weight="50" font-outline="6" box-width="637.453" font-color="255,255,255,255">the market&lt;/content>
 &lt;/item>
 &lt;startviewport rect="0,0,1080,1920"/>
 &lt;endviewport rect="0,0,1080,1920"/>
 &lt;background color="0,0,0,0"/>
&lt;/kdenlivetitle>
</property>
  <property name="kdenlive:folderid">29</property>
  <property name="kdenlive:id">87</property>
  <property name="kdenlive:clip_type">2</property>
  <property name="force_reload">0</property>
  <property name="meta.media.width">1080</property>
  <property name="meta.media.height">1920</property>
  <property name="kdenlive:file_hash">b5a00703db9ac9fd65c76f65d0dbc230</property>
 </producer>
 <producer id="producer0" in="00:00:00.000" out="00:20:35.640">
  <property name="length">2147483647</property>
  <property name="eof">continue</property>
  <property name="resource">black</property>
  <property name="aspect_ratio">1</property>
  <property name="mlt_service">color</property>
  <property name="kdenlive:playlistid">black_track</property>
  <property name="mlt_image_format">rgba</property>
  <property name="set.test_audio">0</property>
 </producer>
 <chain id="chain0" out="00:03:44.920">
  <property name="length">5624</property>
  <property name="eof">pause</property>
  <property name="resource">/home/liquidzulu/Music/National Anthem of USSR [U06jlgpMtQs].mp3</property>
  <property name="mlt_service">avformat-novalidate</property>
  <property name="seekable">1</property>
  <property name="audio_index">0</property>
  <property name="video_index">-1</property>
  <property name="kdenlive:clipname"/>
  <property name="kdenlive:clip_type">1</property>
  <property name="kdenlive:folderid">36</property>
  <property name="kdenlive:id">11</property>
  <property name="kdenlive:file_size">3456861</property>
  <property name="kdenlive:file_hash">11e3df916a8f5e6b6805bda7955e7b73</property>
  <property name="kdenlive:audio_max0">224</property>
  <property name="mute_on_pause">0</property>
  <property name="meta.media.nb_streams">1</property>
  <property name="meta.media.0.stream.type">audio</property>
  <property name="meta.media.0.codec.sample_fmt">fltp</property>
  <property name="meta.media.0.codec.sample_rate">48000</property>
  <property name="meta.media.0.codec.channels">2</property>
  <property name="meta.media.0.codec.name">mp3float</property>
  <property name="meta.media.0.codec.long_name">MP3 (MPEG audio layer 3)</property>
  <property name="meta.media.0.codec.bit_rate">122935</property>
  <property name="meta.attr.0.stream.encoder.markup">Lavc59.37</property>
  <property name="meta.attr.encoder.markup">Lavf59.27.100</property>
  <property name="xml">was here</property>
  <property name="set.test_audio">0</property>
  <property name="set.test_image">1</property>
 </chain>
 <playlist id="playlist0">
  <blank length="00:00:13.000"/>
  <entry producer="chain0" in="00:00:51.120" out="00:01:13.720">
   <property name="kdenlive:id">11</property>
   <filter id="filter0">
    <property name="window">75</property>
    <property name="max_gain">20dB</property>
    <property name="level">00:00:51.120=-20</property>
    <property name="mlt_service">volume</property>
    <property name="kdenlive_id">volume</property>
   </filter>
   <filter id="filter1" in="00:00:51.120" out="00:00:54.480">
    <property name="window">75</property>
    <property name="max_gain">20dB</property>
    <property name="mlt_service">volume</property>
    <property name="kdenlive_id">fadein</property>
    <property name="gain">0</property>
    <property name="end">1</property>
   </filter>
  </entry>
 </playlist>
 <playlist id="playlist1"/>
 <tractor id="tractor0" in="00:00:00.000" out="00:00:35.600">
  <property name="kdenlive:audio_track">1</property>
  <property name="kdenlive:trackheight">67</property>
  <property name="kdenlive:timeline_active">1</property>
  <track hide="video" producer="playlist0"/>
  <track hide="video" producer="playlist1"/>
  <filter id="filter2">
   <property name="window">75</property>
   <property name="max_gain">20dB</property>
   <property name="mlt_service">volume</property>
   <property name="internal_added">237</property>
   <property name="disable">1</property>
  </filter>
  <filter id="filter3">
   <property name="channel">-1</property>
   <property name="mlt_service">panner</property>
   <property name="internal_added">237</property>
   <property name="start">0.5</property>
   <property name="disable">1</property>
  </filter>
  <filter id="filter4">
   <property name="iec_scale">0</property>
   <property name="mlt_service">audiolevel</property>
   <property name="dbpeak">1</property>
   <property name="disable">1</property>
  </filter>
 </tractor>
 <chain id="chain1" out="00:03:44.920">
  <property name="length">5624</property>
  <property name="eof">pause</property>
  <property name="resource">/home/liquidzulu/Music/National Anthem of USSR [U06jlgpMtQs].mp3</property>
  <property name="mlt_service">avformat-novalidate</property>
  <property name="seekable">1</property>
  <property name="audio_index">0</property>
  <property name="video_index">-1</property>
  <property name="kdenlive:clipname"/>
  <property name="kdenlive:clip_type">1</property>
  <property name="kdenlive:folderid">36</property>
  <property name="kdenlive:id">11</property>
  <property name="kdenlive:file_size">3456861</property>
  <property name="kdenlive:file_hash">11e3df916a8f5e6b6805bda7955e7b73</property>
  <property name="kdenlive:audio_max0">224</property>
  <property name="mute_on_pause">0</property>
  <property name="meta.media.nb_streams">1</property>
  <property name="meta.media.0.stream.type">audio</property>
  <property name="meta.media.0.codec.sample_fmt">fltp</property>
  <property name="meta.media.0.codec.sample_rate">48000</property>
  <property name="meta.media.0.codec.channels">2</property>
  <property name="meta.media.0.codec.name">mp3float</property>
  <property name="meta.media.0.codec.long_name">MP3 (MPEG audio layer 3)</property>
  <property name="meta.media.0.codec.bit_rate">122935</property>
  <property name="meta.attr.0.stream.encoder.markup">Lavc59.37</property>
  <property name="meta.attr.encoder.markup">Lavf59.27.100</property>
  <property name="xml">was here</property>
  <property name="set.test_audio">0</property>
  <property name="set.test_image">1</property>
 </chain>
 <playlist id="playlist2">
  <entry producer="chain1" in="00:01:13.760" out="00:01:30.120">
   <property name="kdenlive:id">11</property>
   <filter id="filter5">
    <property name="window">75</property>
    <property name="max_gain">20dB</property>
    <property name="level">00:01:13.760=-20</property>
    <property name="mlt_service">volume</property>
    <property name="kdenlive_id">volume</property>
    <property name="kdenlive:collapsed">0</property>
   </filter>
   <filter id="filter6" in="00:01:26.720" out="00:01:30.120">
    <property name="window">75</property>
    <property name="max_gain">20dB</property>
    <property name="mlt_service">volume</property>
    <property name="kdenlive_id">fadeout</property>
    <property name="gain">1</property>
    <property name="end">0</property>
   </filter>
  </entry>
 </playlist>
 <playlist id="playlist3"/>
 <tractor id="tractor1" in="00:00:00.000" out="00:00:16.360">
  <property name="kdenlive:audio_track">1</property>
  <property name="kdenlive:trackheight">67</property>
  <property name="kdenlive:timeline_active">1</property>
  <track hide="video" producer="playlist2"/>
  <track hide="video" producer="playlist3"/>
  <filter id="filter7">
   <property name="window">75</property>
   <property name="max_gain">20dB</property>
   <property name="mlt_service">volume</property>
   <property name="internal_added">237</property>
   <property name="disable">1</property>
  </filter>
  <filter id="filter8">
   <property name="channel">-1</property>
   <property name="mlt_service">panner</property>
   <property name="internal_added">237</property>
   <property name="start">0.5</property>
   <property name="disable">1</property>
  </filter>
  <filter id="filter9">
   <property name="iec_scale">0</property>
   <property name="mlt_service">audiolevel</property>
   <property name="dbpeak">1</property>
   <property name="disable">1</property>
  </filter>
 </tractor>
 <chain id="chain2" out="00:00:00.600">
  <property name="length">16</property>
  <property name="eof">pause</property>
  <property name="resource">/home/liquidzulu/Music/sfx/Whoosh Sound Effect HD ｜ No Copyright [D9AxvFHq9yU].mp3</property>
  <property name="mlt_service">avformat-novalidate</property>
  <property name="seekable">1</property>
  <property name="audio_index">0</property>
  <property name="video_index">-1</property>
  <property name="kdenlive:clipname"/>
  <property name="kdenlive:clip_type">1</property>
  <property name="kdenlive:folderid">8</property>
  <property name="kdenlive:id">31</property>
  <property name="kdenlive:file_size">8253</property>
  <property name="kdenlive:file_hash">c63532795cf886c94a6d411e2032018f</property>
  <property name="kdenlive:audio_max0">189</property>
  <property name="meta.media.nb_streams">1</property>
  <property name="meta.media.0.stream.type">audio</property>
  <property name="meta.media.0.codec.sample_fmt">fltp</property>
  <property name="meta.media.0.codec.sample_rate">48000</property>
  <property name="meta.media.0.codec.channels">2</property>
  <property name="meta.media.0.codec.name">mp3float</property>
  <property name="meta.media.0.codec.long_name">MP3 (MPEG audio layer 3)</property>
  <property name="meta.media.0.codec.bit_rate">101333</property>
  <property name="meta.attr.0.stream.encoder.markup">Lavc59.37</property>
  <property name="meta.attr.encoder.markup">Lavf59.27.100</property>
  <property name="xml">was here</property>
  <property name="set.test_audio">0</property>
  <property name="set.test_image">1</property>
  <property name="mute_on_pause">1</property>
 </chain>
 <chain id="chain3" out="00:00:00.600">
  <property name="length">16</property>
  <property name="eof">pause</property>
  <property name="resource">/home/liquidzulu/Music/sfx/Swipe Swoosh Transition Sound Effect [4-lY0NT-bJs].mp3</property>
  <property name="mlt_service">avformat-novalidate</property>
  <property name="seekable">1</property>
  <property name="audio_index">0</property>
  <property name="video_index">-1</property>
  <property name="kdenlive:clipname"/>
  <property name="kdenlive:clip_type">1</property>
  <property name="kdenlive:folderid">8</property>
  <property name="kdenlive:id">12</property>
  <property name="kdenlive:file_size">6909</property>
  <property name="kdenlive:file_hash">902eb0e6e6b672900d73cb2888241a8d</property>
  <property name="kdenlive:audio_max0">180</property>
  <property name="meta.media.nb_streams">1</property>
  <property name="meta.media.0.stream.type">audio</property>
  <property name="meta.media.0.codec.sample_fmt">fltp</property>
  <property name="meta.media.0.codec.sample_rate">48000</property>
  <property name="meta.media.0.codec.channels">2</property>
  <property name="meta.media.0.codec.name">mp3float</property>
  <property name="meta.media.0.codec.long_name">MP3 (MPEG audio layer 3)</property>
  <property name="meta.media.0.codec.bit_rate">84741</property>
  <property name="meta.attr.0.stream.encoder.markup">Lavc59.37</property>
  <property name="meta.attr.encoder.markup">Lavf59.27.100</property>
  <property name="xml">was here</property>
  <property name="set.test_audio">0</property>
  <property name="set.test_image">1</property>
  <property name="mute_on_pause">1</property>
 </chain>
 <playlist id="playlist4">
  <property name="kdenlive:audio_track">1</property>
  <blank length="00:00:01.920"/>
  <entry producer="chain2" in="00:00:00.000" out="00:00:00.600">
   <property name="kdenlive:id">31</property>
   <filter id="filter10">
    <property name="window">75</property>
    <property name="max_gain">20dB</property>
    <property name="level">00:00:00.000=-7</property>
    <property name="mlt_service">volume</property>
    <property name="kdenlive_id">volume</property>
    <property name="kdenlive:collapsed">0</property>
   </filter>
  </entry>
  <blank length="00:00:03.680"/>
  <entry producer="chain3" in="00:00:00.240" out="00:00:00.600">
   <property name="kdenlive:id">12</property>
   <filter id="filter11">
    <property name="window">75</property>
    <property name="max_gain">20dB</property>
    <property name="level">00:00:00.240=-11</property>
    <property name="mlt_service">volume</property>
    <property name="kdenlive_id">volume</property>
    <property name="kdenlive:collapsed">0</property>
   </filter>
  </entry>
  <blank length="00:00:01.640"/>
  <entry producer="chain2" in="00:00:00.000" out="00:00:00.600">
   <property name="kdenlive:id">31</property>
   <filter id="filter12">
    <property name="window">75</property>
    <property name="max_gain">20dB</property>
    <property name="level">00:00:00.000=-7</property>
    <property name="mlt_service">volume</property>
    <property name="kdenlive_id">volume</property>
    <property name="kdenlive:collapsed">0</property>
   </filter>
  </entry>
  <blank length="00:00:00.520"/>
  <entry producer="chain2" in="00:00:00.000" out="00:00:00.600">
   <property name="kdenlive:id">31</property>
   <filter id="filter13">
    <property name="window">75</property>
    <property name="max_gain">20dB</property>
    <property name="level">00:00:00.000=-7</property>
    <property name="mlt_service">volume</property>
    <property name="kdenlive_id">volume</property>
    <property name="kdenlive:collapsed">0</property>
   </filter>
  </entry>
  <blank length="00:00:03.480"/>
  <entry producer="chain2" in="00:00:00.000" out="00:00:00.600">
   <property name="kdenlive:id">31</property>
   <filter id="filter14">
    <property name="window">75</property>
    <property name="max_gain">20dB</property>
    <property name="level">00:00:00.000=-7</property>
    <property name="mlt_service">volume</property>
    <property name="kdenlive_id">volume</property>
    <property name="kdenlive:collapsed">0</property>
   </filter>
  </entry>
  <blank length="00:00:02.960"/>
  <entry producer="chain3" in="00:00:00.240" out="00:00:00.600">
   <property name="kdenlive:id">12</property>
   <filter id="filter15">
    <property name="window">75</property>
    <property name="max_gain">20dB</property>
    <property name="level">00:00:00.240=-11</property>
    <property name="mlt_service">volume</property>
    <property name="kdenlive_id">volume</property>
   </filter>
  </entry>
 </playlist>
 <playlist id="playlist5">
  <property name="kdenlive:audio_track">1</property>
 </playlist>
 <tractor id="tractor2" in="00:00:00.000" out="00:00:17.520">
  <property name="kdenlive:audio_track">1</property>
  <property name="kdenlive:trackheight">67</property>
  <property name="kdenlive:timeline_active">1</property>
  <property name="kdenlive:collapsed">0</property>
  <property name="kdenlive:thumbs_format"/>
  <property name="kdenlive:audio_rec"/>
  <track hide="video" producer="playlist4"/>
  <track hide="video" producer="playlist5"/>
  <filter id="filter16">
   <property name="window">75</property>
   <property name="max_gain">20dB</property>
   <property name="mlt_service">volume</property>
   <property name="internal_added">237</property>
   <property name="disable">1</property>
  </filter>
  <filter id="filter17">
   <property name="channel">-1</property>
   <property name="mlt_service">panner</property>
   <property name="internal_added">237</property>
   <property name="start">0.5</property>
   <property name="disable">1</property>
  </filter>
  <filter id="filter18">
   <property name="iec_scale">0</property>
   <property name="mlt_service">audiolevel</property>
   <property name="dbpeak">1</property>
   <property name="disable">1</property>
  </filter>
 </tractor>
 <chain id="chain4" out="00:00:00.600">
  <property name="length">16</property>
  <property name="eof">pause</property>
  <property name="resource">/home/liquidzulu/Music/sfx/Whoosh Sound Effect HD ｜ No Copyright [D9AxvFHq9yU].mp3</property>
  <property name="mlt_service">avformat-novalidate</property>
  <property name="seekable">1</property>
  <property name="audio_index">0</property>
  <property name="video_index">-1</property>
  <property name="kdenlive:clipname"/>
  <property name="kdenlive:clip_type">1</property>
  <property name="kdenlive:folderid">8</property>
  <property name="kdenlive:id">31</property>
  <property name="kdenlive:file_size">8253</property>
  <property name="kdenlive:file_hash">c63532795cf886c94a6d411e2032018f</property>
  <property name="kdenlive:audio_max0">189</property>
  <property name="mute_on_pause">0</property>
  <property name="meta.media.nb_streams">1</property>
  <property name="meta.media.0.stream.type">audio</property>
  <property name="meta.media.0.codec.sample_fmt">fltp</property>
  <property name="meta.media.0.codec.sample_rate">48000</property>
  <property name="meta.media.0.codec.channels">2</property>
  <property name="meta.media.0.codec.name">mp3float</property>
  <property name="meta.media.0.codec.long_name">MP3 (MPEG audio layer 3)</property>
  <property name="meta.media.0.codec.bit_rate">101333</property>
  <property name="meta.attr.0.stream.encoder.markup">Lavc59.37</property>
  <property name="meta.attr.encoder.markup">Lavf59.27.100</property>
  <property name="xml">was here</property>
  <property name="set.test_audio">0</property>
  <property name="set.test_image">1</property>
 </chain>
 <chain id="chain5" out="00:00:00.600">
  <property name="length">16</property>
  <property name="eof">pause</property>
  <property name="resource">/home/liquidzulu/Music/sfx/Swipe Swoosh Transition Sound Effect [4-lY0NT-bJs].mp3</property>
  <property name="mlt_service">avformat-novalidate</property>
  <property name="seekable">1</property>
  <property name="audio_index">0</property>
  <property name="video_index">-1</property>
  <property name="kdenlive:clipname"/>
  <property name="kdenlive:clip_type">1</property>
  <property name="kdenlive:folderid">8</property>
  <property name="kdenlive:id">12</property>
  <property name="kdenlive:file_size">6909</property>
  <property name="kdenlive:file_hash">902eb0e6e6b672900d73cb2888241a8d</property>
  <property name="kdenlive:audio_max0">180</property>
  <property name="meta.media.nb_streams">1</property>
  <property name="meta.media.0.stream.type">audio</property>
  <property name="meta.media.0.codec.sample_fmt">fltp</property>
  <property name="meta.media.0.codec.sample_rate">48000</property>
  <property name="meta.media.0.codec.channels">2</property>
  <property name="meta.media.0.codec.name">mp3float</property>
  <property name="meta.media.0.codec.long_name">MP3 (MPEG audio layer 3)</property>
  <property name="meta.media.0.codec.bit_rate">84741</property>
  <property name="meta.attr.0.stream.encoder.markup">Lavc59.37</property>
  <property name="meta.attr.encoder.markup">Lavf59.27.100</property>
  <property name="xml">was here</property>
  <property name="set.test_audio">0</property>
  <property name="set.test_image">1</property>
  <property name="mute_on_pause">1</property>
 </chain>
 <playlist id="playlist6">
  <property name="kdenlive:audio_track">1</property>
  <entry producer="chain4" in="00:00:00.240" out="00:00:00.600">
   <property name="kdenlive:id">31</property>
   <filter id="filter19">
    <property name="window">75</property>
    <property name="max_gain">20dB</property>
    <property name="level">00:00:00.240=-7</property>
    <property name="mlt_service">volume</property>
    <property name="kdenlive_id">volume</property>
    <property name="kdenlive:collapsed">0</property>
   </filter>
  </entry>
  <blank length="00:00:05.680"/>
  <entry producer="chain5" in="00:00:00.240" out="00:00:00.600">
   <property name="kdenlive:id">12</property>
   <filter id="filter20">
    <property name="window">75</property>
    <property name="max_gain">20dB</property>
    <property name="level">00:00:00.240=-11</property>
    <property name="mlt_service">volume</property>
    <property name="kdenlive_id">volume</property>
    <property name="kdenlive:collapsed">0</property>
   </filter>
  </entry>
  <blank length="00:00:10.520"/>
  <entry producer="chain5" in="00:00:00.240" out="00:00:00.600">
   <property name="kdenlive:id">12</property>
   <filter id="filter21">
    <property name="window">75</property>
    <property name="max_gain">20dB</property>
    <property name="level">00:00:00.240=-11</property>
    <property name="mlt_service">volume</property>
    <property name="kdenlive_id">volume</property>
   </filter>
  </entry>
 </playlist>
 <playlist id="playlist7">
  <property name="kdenlive:audio_track">1</property>
 </playlist>
 <tractor id="tractor3" in="00:00:00.000" out="00:00:17.360">
  <property name="kdenlive:audio_track">1</property>
  <property name="kdenlive:trackheight">67</property>
  <property name="kdenlive:timeline_active">1</property>
  <property name="kdenlive:collapsed">0</property>
  <property name="kdenlive:thumbs_format"/>
  <property name="kdenlive:audio_rec"/>
  <track hide="video" producer="playlist6"/>
  <track hide="video" producer="playlist7"/>
  <filter id="filter22">
   <property name="window">75</property>
   <property name="max_gain">20dB</property>
   <property name="mlt_service">volume</property>
   <property name="internal_added">237</property>
   <property name="disable">1</property>
  </filter>
  <filter id="filter23">
   <property name="channel">-1</property>
   <property name="mlt_service">panner</property>
   <property name="internal_added">237</property>
   <property name="start">0.5</property>
   <property name="disable">1</property>
  </filter>
  <filter id="filter24">
   <property name="iec_scale">0</property>
   <property name="mlt_service">audiolevel</property>
   <property name="dbpeak">1</property>
   <property name="disable">1</property>
  </filter>
 </tractor>
 <chain id="chain6" out="00:00:32.440">
  <property name="length">812</property>
  <property name="eof">pause</property>
  <property name="resource">/home/liquidzulu/Music/sfx/Rumbling Sound Effect [926a-7b9EIs].mp3</property>
  <property name="mlt_service">avformat-novalidate</property>
  <property name="seekable">1</property>
  <property name="audio_index">0</property>
  <property name="video_index">-1</property>
  <property name="kdenlive:clipname"/>
  <property name="kdenlive:clip_type">1</property>
  <property name="kdenlive:folderid">8</property>
  <property name="kdenlive:id">6</property>
  <property name="kdenlive:file_size">529053</property>
  <property name="kdenlive:file_hash">15a6487084c6edc8a411d63645169983</property>
  <property name="kdenlive:audio_max0">256</property>
  <property name="meta.media.nb_streams">1</property>
  <property name="meta.media.0.stream.type">audio</property>
  <property name="meta.media.0.codec.sample_fmt">fltp</property>
  <property name="meta.media.0.codec.sample_rate">48000</property>
  <property name="meta.media.0.codec.channels">2</property>
  <property name="meta.media.0.codec.name">mp3float</property>
  <property name="meta.media.0.codec.long_name">MP3 (MPEG audio layer 3)</property>
  <property name="meta.media.0.codec.bit_rate">130330</property>
  <property name="meta.attr.0.stream.encoder.markup">Lavc59.37</property>
  <property name="meta.attr.encoder.markup">Lavf59.27.100</property>
  <property name="xml">was here</property>
  <property name="set.test_audio">0</property>
  <property name="set.test_image">1</property>
  <property name="mute_on_pause">1</property>
 </chain>
 <chain id="chain7" out="00:00:00.600">
  <property name="length">16</property>
  <property name="eof">pause</property>
  <property name="resource">/home/liquidzulu/Music/sfx/Swipe Swoosh Transition Sound Effect [4-lY0NT-bJs].mp3</property>
  <property name="mlt_service">avformat-novalidate</property>
  <property name="seekable">1</property>
  <property name="audio_index">0</property>
  <property name="video_index">-1</property>
  <property name="kdenlive:clipname"/>
  <property name="kdenlive:clip_type">1</property>
  <property name="kdenlive:folderid">8</property>
  <property name="kdenlive:id">12</property>
  <property name="kdenlive:file_size">6909</property>
  <property name="kdenlive:file_hash">902eb0e6e6b672900d73cb2888241a8d</property>
  <property name="kdenlive:audio_max0">180</property>
  <property name="meta.media.nb_streams">1</property>
  <property name="meta.media.0.stream.type">audio</property>
  <property name="meta.media.0.codec.sample_fmt">fltp</property>
  <property name="meta.media.0.codec.sample_rate">48000</property>
  <property name="meta.media.0.codec.channels">2</property>
  <property name="meta.media.0.codec.name">mp3float</property>
  <property name="meta.media.0.codec.long_name">MP3 (MPEG audio layer 3)</property>
  <property name="meta.media.0.codec.bit_rate">84741</property>
  <property name="meta.attr.0.stream.encoder.markup">Lavc59.37</property>
  <property name="meta.attr.encoder.markup">Lavf59.27.100</property>
  <property name="xml">was here</property>
  <property name="set.test_audio">0</property>
  <property name="set.test_image">1</property>
  <property name="mute_on_pause">1</property>
 </chain>
 <chain id="chain8" out="00:00:00.800">
  <property name="length">21</property>
  <property name="eof">pause</property>
  <property name="resource">/home/liquidzulu/Music/sfx/thud game sound effect.mp3</property>
  <property name="mlt_service">avformat-novalidate</property>
  <property name="seekable">1</property>
  <property name="audio_index">0</property>
  <property name="video_index">-1</property>
  <property name="kdenlive:clipname"/>
  <property name="kdenlive:clip_type">1</property>
  <property name="kdenlive:folderid">8</property>
  <property name="kdenlive:id">40</property>
  <property name="kdenlive:file_size">6813</property>
  <property name="kdenlive:file_hash">9727d041efdd598c7496671e2edae40d</property>
  <property name="kdenlive:audio_max0">241</property>
  <property name="meta.media.nb_streams">1</property>
  <property name="meta.media.0.stream.type">audio</property>
  <property name="meta.media.0.codec.sample_fmt">fltp</property>
  <property name="meta.media.0.codec.sample_rate">48000</property>
  <property name="meta.media.0.codec.channels">2</property>
  <property name="meta.media.0.codec.name">mp3float</property>
  <property name="meta.media.0.codec.long_name">MP3 (MPEG audio layer 3)</property>
  <property name="meta.media.0.codec.bit_rate">64457</property>
  <property name="meta.attr.0.stream.encoder.markup">Lavc59.37</property>
  <property name="meta.attr.encoder.markup">Lavf59.27.100</property>
  <property name="xml">was here</property>
  <property name="set.test_audio">0</property>
  <property name="set.test_image">1</property>
  <property name="mute_on_pause">1</property>
 </chain>
 <chain id="chain9" out="00:00:00.600">
  <property name="length">16</property>
  <property name="eof">pause</property>
  <property name="resource">/home/liquidzulu/Music/sfx/Whoosh Sound Effect HD ｜ No Copyright [D9AxvFHq9yU].mp3</property>
  <property name="mlt_service">avformat-novalidate</property>
  <property name="seekable">1</property>
  <property name="audio_index">0</property>
  <property name="video_index">-1</property>
  <property name="kdenlive:clipname"/>
  <property name="kdenlive:clip_type">1</property>
  <property name="kdenlive:folderid">8</property>
  <property name="kdenlive:id">31</property>
  <property name="kdenlive:file_size">8253</property>
  <property name="kdenlive:file_hash">c63532795cf886c94a6d411e2032018f</property>
  <property name="kdenlive:audio_max0">189</property>
  <property name="meta.media.nb_streams">1</property>
  <property name="meta.media.0.stream.type">audio</property>
  <property name="meta.media.0.codec.sample_fmt">fltp</property>
  <property name="meta.media.0.codec.sample_rate">48000</property>
  <property name="meta.media.0.codec.channels">2</property>
  <property name="meta.media.0.codec.name">mp3float</property>
  <property name="meta.media.0.codec.long_name">MP3 (MPEG audio layer 3)</property>
  <property name="meta.media.0.codec.bit_rate">101333</property>
  <property name="meta.attr.0.stream.encoder.markup">Lavc59.37</property>
  <property name="meta.attr.encoder.markup">Lavf59.27.100</property>
  <property name="xml">was here</property>
  <property name="set.test_audio">0</property>
  <property name="set.test_image">1</property>
  <property name="mute_on_pause">1</property>
 </chain>
 <playlist id="playlist8">
  <property name="kdenlive:audio_track">1</property>
  <entry producer="chain6" in="00:00:10.360" out="00:00:13.520">
   <property name="kdenlive:id">6</property>
   <property name="kdenlive:activeeffect">2</property>
   <filter id="filter25" in="00:00:11.880" out="00:00:13.520">
    <property name="window">75</property>
    <property name="max_gain">20dB</property>
    <property name="mlt_service">volume</property>
    <property name="kdenlive_id">fadeout</property>
    <property name="gain">1</property>
    <property name="end">0</property>
    <property name="kdenlive:collapsed">0</property>
   </filter>
   <filter id="filter26" in="00:00:10.360" out="00:00:12.480">
    <property name="window">75</property>
    <property name="max_gain">20dB</property>
    <property name="mlt_service">volume</property>
    <property name="kdenlive_id">fadein</property>
    <property name="gain">0</property>
    <property name="end">1</property>
    <property name="kdenlive:collapsed">0</property>
   </filter>
   <filter id="filter27">
    <property name="window">75</property>
    <property name="max_gain">20dB</property>
    <property name="level">00:00:10.360=-13</property>
    <property name="mlt_service">volume</property>
    <property name="kdenlive_id">volume</property>
    <property name="kdenlive:collapsed">0</property>
   </filter>
  </entry>
  <blank length="00:00:02.760"/>
  <entry producer="chain7" in="00:00:00.240" out="00:00:00.600">
   <property name="kdenlive:id">12</property>
   <filter id="filter28">
    <property name="window">75</property>
    <property name="max_gain">20dB</property>
    <property name="level">00:00:00.240=-11</property>
    <property name="mlt_service">volume</property>
    <property name="kdenlive_id">volume</property>
    <property name="kdenlive:collapsed">0</property>
   </filter>
  </entry>
  <blank length="00:00:04.760"/>
  <entry producer="chain8" in="00:00:00.000" out="00:00:00.800">
   <property name="kdenlive:id">40</property>
   <filter id="filter29">
    <property name="window">75</property>
    <property name="max_gain">20dB</property>
    <property name="level">00:00:00.000=-16</property>
    <property name="mlt_service">volume</property>
    <property name="kdenlive_id">volume</property>
    <property name="kdenlive:collapsed">0</property>
   </filter>
  </entry>
  <blank length="00:00:04.920"/>
  <entry producer="chain7" in="00:00:00.240" out="00:00:00.600">
   <property name="kdenlive:id">12</property>
   <filter id="filter30">
    <property name="window">75</property>
    <property name="max_gain">20dB</property>
    <property name="level">00:00:00.240=-11</property>
    <property name="mlt_service">volume</property>
    <property name="kdenlive_id">volume</property>
    <property name="kdenlive:collapsed">0</property>
   </filter>
  </entry>
  <blank length="00:00:02.240"/>
  <entry producer="chain9" in="00:00:00.000" out="00:00:00.600">
   <property name="kdenlive:id">31</property>
   <filter id="filter31">
    <property name="window">75</property>
    <property name="max_gain">20dB</property>
    <property name="level">00:00:00.000=-7</property>
    <property name="mlt_service">volume</property>
    <property name="kdenlive_id">volume</property>
    <property name="kdenlive:collapsed">0</property>
   </filter>
  </entry>
  <blank length="00:00:03.240"/>
  <entry producer="chain9" in="00:00:00.000" out="00:00:00.600">
   <property name="kdenlive:id">31</property>
   <filter id="filter32">
    <property name="window">75</property>
    <property name="max_gain">20dB</property>
    <property name="level">00:00:00.000=-7</property>
    <property name="mlt_service">volume</property>
    <property name="kdenlive_id">volume</property>
    <property name="kdenlive:collapsed">0</property>
   </filter>
  </entry>
  <blank length="00:00:05.000"/>
  <entry producer="chain9" in="00:00:00.000" out="00:00:00.600">
   <property name="kdenlive:id">31</property>
   <filter id="filter33">
    <property name="window">75</property>
    <property name="max_gain">20dB</property>
    <property name="level">0=-7</property>
    <property name="mlt_service">volume</property>
    <property name="kdenlive_id">volume</property>
   </filter>
  </entry>
  <blank length="00:00:00.600"/>
  <entry producer="chain9" in="00:00:00.000" out="00:00:00.600">
   <property name="kdenlive:id">31</property>
   <filter id="filter34">
    <property name="window">75</property>
    <property name="max_gain">20dB</property>
    <property name="level">0=-7</property>
    <property name="mlt_service">volume</property>
    <property name="kdenlive_id">volume</property>
   </filter>
  </entry>
  <blank length="00:00:04.480"/>
  <entry producer="chain9" in="00:00:00.000" out="00:00:00.200">
   <property name="kdenlive:id">31</property>
   <filter id="filter35">
    <property name="window">75</property>
    <property name="max_gain">20dB</property>
    <property name="level">0=-7</property>
    <property name="mlt_service">volume</property>
    <property name="kdenlive_id">volume</property>
   </filter>
  </entry>
 </playlist>
 <playlist id="playlist9">
  <property name="kdenlive:audio_track">1</property>
 </playlist>
 <tractor id="tractor4" in="00:00:00.000" out="00:00:35.600">
  <property name="kdenlive:audio_track">1</property>
  <property name="kdenlive:trackheight">67</property>
  <property name="kdenlive:timeline_active">1</property>
  <property name="kdenlive:collapsed">0</property>
  <property name="kdenlive:thumbs_format"/>
  <property name="kdenlive:audio_rec"/>
  <track hide="video" producer="playlist8"/>
  <track hide="video" producer="playlist9"/>
  <filter id="filter36">
   <property name="window">75</property>
   <property name="max_gain">20dB</property>
   <property name="mlt_service">volume</property>
   <property name="internal_added">237</property>
   <property name="disable">1</property>
  </filter>
  <filter id="filter37">
   <property name="channel">-1</property>
   <property name="mlt_service">panner</property>
   <property name="internal_added">237</property>
   <property name="start">0.5</property>
   <property name="disable">1</property>
  </filter>
  <filter id="filter38">
   <property name="iec_scale">0</property>
   <property name="mlt_service">audiolevel</property>
   <property name="dbpeak">1</property>
   <property name="disable">1</property>
  </filter>
 </tractor>
 <chain id="chain10" out="00:00:35.600">
  <property name="length">891</property>
  <property name="eof">pause</property>
  <property name="resource">proc.mp3</property>
  <property name="mlt_service">avformat-novalidate</property>
  <property name="seekable">1</property>
  <property name="audio_index">0</property>
  <property name="video_index">-1</property>
  <property name="kdenlive:clipname"/>
  <property name="kdenlive:clip_type">1</property>
  <property name="kdenlive:folderid">-1</property>
  <property name="kdenlive:id">4</property>
  <property name="kdenlive:file_size">855200</property>
  <property name="kdenlive:file_hash">c5add2883bf55deffbd736ab79cd0931</property>
  <property name="kdenlive:audio_max0">192</property>
  <property name="meta.media.nb_streams">1</property>
  <property name="meta.media.0.stream.type">audio</property>
  <property name="meta.media.0.codec.sample_fmt">fltp</property>
  <property name="meta.media.0.codec.sample_rate">44100</property>
  <property name="meta.media.0.codec.channels">2</property>
  <property name="meta.media.0.codec.name">mp3float</property>
  <property name="meta.media.0.codec.long_name">MP3 (MPEG audio layer 3)</property>
  <property name="meta.media.0.codec.bit_rate">192000</property>
  <property name="meta.attr.encoded_by.markup">LAME in FL Studio 21</property>
  <property name="meta.attr.date.markup">2023</property>
  <property name="xml">was here</property>
  <property name="set.test_audio">0</property>
  <property name="set.test_image">1</property>
  <property name="mute_on_pause">1</property>
 </chain>
 <playlist id="playlist10">
  <property name="kdenlive:audio_track">1</property>
  <entry producer="chain10" in="00:00:00.000" out="00:00:35.600">
   <property name="kdenlive:id">4</property>
  </entry>
 </playlist>
 <playlist id="playlist11">
  <property name="kdenlive:audio_track">1</property>
 </playlist>
 <tractor id="tractor5" in="00:00:00.000" out="00:00:35.600">
  <property name="kdenlive:audio_track">1</property>
  <property name="kdenlive:trackheight">67</property>
  <property name="kdenlive:timeline_active">1</property>
  <property name="kdenlive:collapsed">0</property>
  <property name="kdenlive:thumbs_format"/>
  <property name="kdenlive:audio_rec"/>
  <track hide="video" producer="playlist10"/>
  <track hide="video" producer="playlist11"/>
  <filter id="filter39">
   <property name="window">75</property>
   <property name="max_gain">20dB</property>
   <property name="mlt_service">volume</property>
   <property name="internal_added">237</property>
   <property name="disable">1</property>
  </filter>
  <filter id="filter40">
   <property name="channel">-1</property>
   <property name="mlt_service">panner</property>
   <property name="internal_added">237</property>
   <property name="start">0.5</property>
   <property name="disable">1</property>
  </filter>
  <filter id="filter41">
   <property name="iec_scale">0</property>
   <property name="mlt_service">audiolevel</property>
   <property name="dbpeak">1</property>
   <property name="disable">1</property>
  </filter>
 </tractor>
 <producer id="producer1" in="00:00:00.000" out="00:00:17.160">
  <property name="length">430</property>
  <property name="eof">pause</property>
  <property name="resource">1.250000:/home/liquidzulu/Videos/yt/b-roll/Socialism Is When The Government Does Stuff [rgiC8YfytDw].webm</property>
  <property name="aspect_ratio">1</property>
  <property name="meta.media.nb_streams">2</property>
  <property name="meta.media.0.stream.type">video</property>
  <property name="meta.media.0.stream.frame_rate">29.97</property>
  <property name="meta.media.0.stream.sample_aspect_ratio">1</property>
  <property name="meta.media.0.codec.width">1920</property>
  <property name="meta.media.0.codec.height">1080</property>
  <property name="meta.media.0.codec.rotate">0</property>
  <property name="meta.media.0.codec.pix_fmt">yuv420p</property>
  <property name="meta.media.0.codec.sample_aspect_ratio">0</property>
  <property name="meta.media.0.codec.colorspace">709</property>
  <property name="meta.media.0.codec.color_trc">1</property>
  <property name="meta.media.0.codec.name">vp9</property>
  <property name="meta.media.0.codec.long_name">Google VP9</property>
  <property name="meta.media.0.codec.bit_rate">0</property>
  <property name="meta.attr.0.stream.language.markup">eng</property>
  <property name="meta.attr.0.stream.DURATION.markup">00:00:21.454000000</property>
  <property name="meta.media.1.stream.type">audio</property>
  <property name="meta.media.1.codec.sample_fmt">fltp</property>
  <property name="meta.media.1.codec.sample_rate">48000</property>
  <property name="meta.media.1.codec.channels">2</property>
  <property name="meta.media.1.codec.name">opus</property>
  <property name="meta.media.1.codec.long_name">Opus</property>
  <property name="meta.media.1.codec.bit_rate">0</property>
  <property name="meta.attr.1.stream.language.markup">eng</property>
  <property name="meta.attr.1.stream.DURATION.markup">00:00:21.481000000</property>
  <property name="meta.attr.ENCODER.markup">Lavf59.27.100</property>
  <property name="seekable">1</property>
  <property name="meta.media.sample_aspect_num">1</property>
  <property name="meta.media.sample_aspect_den">1</property>
  <property name="format">3</property>
  <property name="audio_index">1</property>
  <property name="video_index">0</property>
  <property name="mute_on_pause">1</property>
  <property name="warp_speed">1.25</property>
  <property name="warp_resource">/home/liquidzulu/Videos/yt/b-roll/Socialism Is When The Government Does Stuff [rgiC8YfytDw].webm</property>
  <property name="mlt_service">timewarp</property>
  <property name="set.test_audio">1</property>
  <property name="set.test_image">0</property>
  <property name="kdenlive:id">5</property>
  <property name="warp_pitch">0</property>
  <property name="meta.media.frame_rate_num">30000</property>
  <property name="meta.media.frame_rate_den">1001</property>
  <property name="meta.media.colorspace">709</property>
  <property name="meta.media.color_trc">1</property>
  <property name="meta.media.has_b_frames">0</property>
  <property name="meta.media.width">1920</property>
  <property name="meta.media.height">1080</property>
  <property name="meta.media.color_range">mpeg</property>
  <property name="meta.media.top_field_first">0</property>
  <property name="meta.media.progressive">1</property>
 </producer>
 <chain id="chain11" out="00:02:49.400">
  <property name="length">4236</property>
  <property name="eof">pause</property>
  <property name="resource">/home/liquidzulu/Videos/yt/b-roll/WASHINGTON DC in 4K ｜ The United States Capitol [c5yvBK5SDWI].webm</property>
  <property name="mlt_service">avformat-novalidate</property>
  <property name="seekable">1</property>
  <property name="format">3</property>
  <property name="audio_index">-1</property>
  <property name="video_index">0</property>
  <property name="kdenlive:clipname"/>
  <property name="kdenlive:clip_type">0</property>
  <property name="kdenlive:folderid">-1</property>
  <property name="kdenlive:id">13</property>
  <property name="kdenlive:file_size">313684073</property>
  <property name="kdenlive:file_hash">e5174fa77f2c16f61d02977ad7e420b5</property>
  <property name="kdenlive:audio_max1">211</property>
  <property name="kdenlive:active_streams">-1</property>
  <property name="set.test_audio">1</property>
  <property name="meta.media.nb_streams">2</property>
  <property name="meta.media.0.stream.type">video</property>
  <property name="meta.media.0.stream.frame_rate">23.976</property>
  <property name="meta.media.0.stream.sample_aspect_ratio">1</property>
  <property name="meta.media.0.codec.width">3840</property>
  <property name="meta.media.0.codec.height">2160</property>
  <property name="meta.media.0.codec.rotate">0</property>
  <property name="meta.media.0.codec.pix_fmt">yuv420p</property>
  <property name="meta.media.0.codec.sample_aspect_ratio">0</property>
  <property name="meta.media.0.codec.colorspace">709</property>
  <property name="meta.media.0.codec.color_trc">1</property>
  <property name="meta.media.0.codec.name">vp9</property>
  <property name="meta.media.0.codec.long_name">Google VP9</property>
  <property name="meta.media.0.codec.bit_rate">0</property>
  <property name="meta.attr.0.stream.language.markup">eng</property>
  <property name="meta.attr.0.stream.DURATION.markup">00:02:49.419000000</property>
  <property name="meta.media.1.stream.type">audio</property>
  <property name="meta.media.1.codec.sample_fmt">fltp</property>
  <property name="meta.media.1.codec.sample_rate">48000</property>
  <property name="meta.media.1.codec.channels">2</property>
  <property name="meta.media.1.codec.name">opus</property>
  <property name="meta.media.1.codec.long_name">Opus</property>
  <property name="meta.media.1.codec.bit_rate">0</property>
  <property name="meta.attr.1.stream.language.markup">eng</property>
  <property name="meta.attr.1.stream.DURATION.markup">00:02:49.441000000</property>
  <property name="meta.attr.ENCODER.markup">Lavf59.27.100</property>
  <property name="meta.media.sample_aspect_num">1</property>
  <property name="meta.media.sample_aspect_den">1</property>
  <property name="meta.media.frame_rate_num">24000</property>
  <property name="meta.media.frame_rate_den">1001</property>
  <property name="meta.media.colorspace">709</property>
  <property name="meta.media.color_trc">1</property>
  <property name="meta.media.has_b_frames">0</property>
  <property name="meta.media.width">3840</property>
  <property name="meta.media.height">2160</property>
  <property name="meta.media.color_range">mpeg</property>
  <property name="xml">was here</property>
  <property name="meta.media.top_field_first">0</property>
  <property name="meta.media.progressive">1</property>
  <property name="set.test_image">0</property>
  <property name="mute_on_pause">1</property>
 </chain>
 <chain id="chain12" out="00:06:39.680">
  <property name="length">9993</property>
  <property name="eof">pause</property>
  <property name="resource">/home/liquidzulu/Videos/yt/b-roll/False starts and missed starts at the Olympics ｜ Strangest Moments [BH6gOzFoYyc].webm</property>
  <property name="mlt_service">avformat-novalidate</property>
  <property name="seekable">1</property>
  <property name="format">3</property>
  <property name="audio_index">-1</property>
  <property name="video_index">0</property>
  <property name="kdenlive:clipname"/>
  <property name="kdenlive:clip_type">0</property>
  <property name="kdenlive:folderid">-1</property>
  <property name="kdenlive:id">32</property>
  <property name="kdenlive:file_size">180075959</property>
  <property name="kdenlive:file_hash">eb3676f33869f11fb04de8d44ff703e3</property>
  <property name="kdenlive:audio_max1">161</property>
  <property name="kdenlive:active_streams">-1</property>
  <property name="set.test_audio">1</property>
  <property name="meta.media.nb_streams">2</property>
  <property name="meta.media.0.stream.type">video</property>
  <property name="meta.media.0.stream.frame_rate">25</property>
  <property name="meta.media.0.stream.sample_aspect_ratio">1</property>
  <property name="meta.media.0.codec.width">1920</property>
  <property name="meta.media.0.codec.height">1080</property>
  <property name="meta.media.0.codec.rotate">0</property>
  <property name="meta.media.0.codec.pix_fmt">yuv420p</property>
  <property name="meta.media.0.codec.sample_aspect_ratio">0</property>
  <property name="meta.media.0.codec.colorspace">709</property>
  <property name="meta.media.0.codec.color_trc">1</property>
  <property name="meta.media.0.codec.name">vp9</property>
  <property name="meta.media.0.codec.long_name">Google VP9</property>
  <property name="meta.media.0.codec.bit_rate">0</property>
  <property name="meta.attr.0.stream.HANDLER_NAME.markup">ISO Media file produced by Google Inc. Created on: 11/06/2023.</property>
  <property name="meta.attr.0.stream.VENDOR_ID.markup">[0][0][0][0]</property>
  <property name="meta.attr.0.stream.DURATION.markup">00:06:39.680000000</property>
  <property name="meta.media.1.stream.type">audio</property>
  <property name="meta.media.1.codec.sample_fmt">fltp</property>
  <property name="meta.media.1.codec.sample_rate">48000</property>
  <property name="meta.media.1.codec.channels">2</property>
  <property name="meta.media.1.codec.name">opus</property>
  <property name="meta.media.1.codec.long_name">Opus</property>
  <property name="meta.media.1.codec.bit_rate">0</property>
  <property name="meta.attr.1.stream.language.markup">eng</property>
  <property name="meta.attr.1.stream.DURATION.markup">00:06:39.721000000</property>
  <property name="meta.attr.COMPATIBLE_BRANDS.markup">iso6mp41</property>
  <property name="meta.attr.MAJOR_BRAND.markup">dash</property>
  <property name="meta.attr.MINOR_VERSION.markup">0</property>
  <property name="meta.attr.ENCODER.markup">Lavf59.27.100</property>
  <property name="meta.media.sample_aspect_num">1</property>
  <property name="meta.media.sample_aspect_den">1</property>
  <property name="meta.media.frame_rate_num">25</property>
  <property name="meta.media.frame_rate_den">1</property>
  <property name="meta.media.colorspace">709</property>
  <property name="meta.media.color_trc">1</property>
  <property name="meta.media.has_b_frames">0</property>
  <property name="meta.media.width">1920</property>
  <property name="meta.media.height">1080</property>
  <property name="meta.media.color_range">mpeg</property>
  <property name="xml">was here</property>
  <property name="meta.media.top_field_first">0</property>
  <property name="meta.media.progressive">1</property>
  <property name="set.test_image">0</property>
  <property name="mute_on_pause">1</property>
 </chain>
 <chain id="chain13" out="00:03:51.480">
  <property name="length">5788</property>
  <property name="eof">pause</property>
  <property name="resource">/home/liquidzulu/Videos/yt/b-roll/Bernie Sanders Open borders Thats a Koch brothers proposal_1080p.mp4</property>
  <property name="mlt_service">avformat-novalidate</property>
  <property name="seekable">1</property>
  <property name="format">3</property>
  <property name="audio_index">-1</property>
  <property name="video_index">0</property>
  <property name="kdenlive:clipname"/>
  <property name="kdenlive:clip_type">0</property>
  <property name="kdenlive:folderid">-1</property>
  <property name="kdenlive:id">47</property>
  <property name="kdenlive:file_size">39511432</property>
  <property name="kdenlive:file_hash">86dda513b03b4e74e2e35ce8856252dc</property>
  <property name="kdenlive:audio_max1">214</property>
  <property name="kdenlive:active_streams">-1</property>
  <property name="set.test_audio">1</property>
  <property name="meta.media.nb_streams">2</property>
  <property name="meta.media.0.stream.type">video</property>
  <property name="meta.media.0.stream.frame_rate">23.976</property>
  <property name="meta.media.0.stream.sample_aspect_ratio">1</property>
  <property name="meta.media.0.codec.width">1920</property>
  <property name="meta.media.0.codec.height">1080</property>
  <property name="meta.media.0.codec.rotate">0</property>
  <property name="meta.media.0.codec.pix_fmt">yuv420p</property>
  <property name="meta.media.0.codec.sample_aspect_ratio">1</property>
  <property name="meta.media.0.codec.colorspace">709</property>
  <property name="meta.media.0.codec.color_trc">1</property>
  <property name="meta.media.0.codec.name">h264</property>
  <property name="meta.media.0.codec.long_name">H.264 / AVC / MPEG-4 AVC / MPEG-4 part 10</property>
  <property name="meta.media.0.codec.bit_rate">1233410</property>
  <property name="meta.attr.0.stream.handler_name.markup">VideoHandler</property>
  <property name="meta.attr.0.stream.vendor_id.markup">[0][0][0][0]</property>
  <property name="meta.media.1.stream.type">audio</property>
  <property name="meta.media.1.codec.sample_fmt">fltp</property>
  <property name="meta.media.1.codec.sample_rate">44100</property>
  <property name="meta.media.1.codec.channels">2</property>
  <property name="meta.media.1.codec.name">aac</property>
  <property name="meta.media.1.codec.long_name">AAC (Advanced Audio Coding)</property>
  <property name="meta.media.1.codec.bit_rate">125592</property>
  <property name="meta.attr.1.stream.language.markup">eng</property>
  <property name="meta.attr.1.stream.handler_name.markup">SoundHandler</property>
  <property name="meta.attr.1.stream.vendor_id.markup">[0][0][0][0]</property>
  <property name="meta.attr.major_brand.markup">isom</property>
  <property name="meta.attr.minor_version.markup">512</property>
  <property name="meta.attr.compatible_brands.markup">isomiso2avc1mp41</property>
  <property name="meta.attr.encoder.markup">Lavf58.19.102</property>
  <property name="meta.media.sample_aspect_num">1</property>
  <property name="meta.media.sample_aspect_den">1</property>
  <property name="meta.media.frame_rate_num">83235000</property>
  <property name="meta.media.frame_rate_den">3471593</property>
  <property name="meta.media.colorspace">709</property>
  <property name="meta.media.color_trc">1</property>
  <property name="meta.media.has_b_frames">1</property>
  <property name="meta.media.width">1920</property>
  <property name="meta.media.height">1080</property>
  <property name="meta.media.color_range">mpeg</property>
  <property name="xml">was here</property>
  <property name="meta.media.top_field_first">0</property>
  <property name="meta.media.progressive">1</property>
  <property name="set.test_image">0</property>
  <property name="mute_on_pause">1</property>
 </chain>
 <chain id="chain14" out="00:00:15.000">
  <property name="length">376</property>
  <property name="eof">pause</property>
  <property name="resource">/home/liquidzulu/Videos/yt/b-roll/Stock Market Background Video [AFicYbv-mzg].webm</property>
  <property name="mlt_service">avformat-novalidate</property>
  <property name="seekable">1</property>
  <property name="format">3</property>
  <property name="audio_index">-1</property>
  <property name="video_index">0</property>
  <property name="kdenlive:clipname"/>
  <property name="kdenlive:clip_type">0</property>
  <property name="kdenlive:folderid">-1</property>
  <property name="kdenlive:id">60</property>
  <property name="kdenlive:file_size">3002458</property>
  <property name="kdenlive:file_hash">013cb9c91c6f934c9d6438cb46d69194</property>
  <property name="kdenlive:audio_max1">1</property>
  <property name="kdenlive:active_streams">-1</property>
  <property name="set.test_audio">1</property>
  <property name="meta.media.nb_streams">2</property>
  <property name="meta.media.0.stream.type">video</property>
  <property name="meta.media.0.stream.frame_rate">29.97</property>
  <property name="meta.media.0.stream.sample_aspect_ratio">1</property>
  <property name="meta.media.0.codec.width">1920</property>
  <property name="meta.media.0.codec.height">1080</property>
  <property name="meta.media.0.codec.rotate">0</property>
  <property name="meta.media.0.codec.pix_fmt">yuv420p</property>
  <property name="meta.media.0.codec.sample_aspect_ratio">0</property>
  <property name="meta.media.0.codec.colorspace">709</property>
  <property name="meta.media.0.codec.color_trc">1</property>
  <property name="meta.media.0.codec.name">vp9</property>
  <property name="meta.media.0.codec.long_name">Google VP9</property>
  <property name="meta.media.0.codec.bit_rate">0</property>
  <property name="meta.attr.0.stream.language.markup">eng</property>
  <property name="meta.attr.0.stream.DURATION.markup">00:00:15.015000000</property>
  <property name="meta.media.1.stream.type">audio</property>
  <property name="meta.media.1.codec.sample_fmt">fltp</property>
  <property name="meta.media.1.codec.sample_rate">48000</property>
  <property name="meta.media.1.codec.channels">2</property>
  <property name="meta.media.1.codec.name">opus</property>
  <property name="meta.media.1.codec.long_name">Opus</property>
  <property name="meta.media.1.codec.bit_rate">0</property>
  <property name="meta.attr.1.stream.language.markup">eng</property>
  <property name="meta.attr.1.stream.DURATION.markup">00:00:15.041000000</property>
  <property name="meta.attr.ENCODER.markup">Lavf59.27.100</property>
  <property name="meta.media.sample_aspect_num">1</property>
  <property name="meta.media.sample_aspect_den">1</property>
  <property name="meta.media.frame_rate_num">30000</property>
  <property name="meta.media.frame_rate_den">1001</property>
  <property name="meta.media.colorspace">709</property>
  <property name="meta.media.color_trc">1</property>
  <property name="meta.media.has_b_frames">0</property>
  <property name="meta.media.width">1920</property>
  <property name="meta.media.height">1080</property>
  <property name="meta.media.color_range">mpeg</property>
  <property name="xml">was here</property>
  <property name="meta.media.top_field_first">0</property>
  <property name="meta.media.progressive">1</property>
  <property name="set.test_image">0</property>
  <property name="mute_on_pause">1</property>
 </chain>
 <chain id="chain15" out="00:01:29.080">
  <property name="length">2228</property>
  <property name="eof">pause</property>
  <property name="resource">/home/liquidzulu/Videos/yt/b-roll/Joseph Stalin Footage - Moscow (1947) [upakJluxmw0].webm</property>
  <property name="mlt_service">avformat-novalidate</property>
  <property name="seekable">1</property>
  <property name="format">3</property>
  <property name="audio_index">-1</property>
  <property name="video_index">0</property>
  <property name="kdenlive:clipname"/>
  <property name="kdenlive:clip_type">0</property>
  <property name="kdenlive:folderid">10</property>
  <property name="kdenlive:id">71</property>
  <property name="kdenlive:file_size">7050356</property>
  <property name="kdenlive:file_hash">f6ee1d06b5641fbf5c2e6b50cbf061fe</property>
  <property name="kdenlive:audio_max1">133</property>
  <property name="kdenlive:active_streams">-1</property>
  <property name="set.test_audio">1</property>
  <property name="meta.media.nb_streams">2</property>
  <property name="meta.media.0.stream.type">video</property>
  <property name="meta.media.0.stream.frame_rate">25</property>
  <property name="meta.media.0.stream.sample_aspect_ratio">1</property>
  <property name="meta.media.0.codec.width">640</property>
  <property name="meta.media.0.codec.height">480</property>
  <property name="meta.media.0.codec.rotate">0</property>
  <property name="meta.media.0.codec.pix_fmt">yuv420p</property>
  <property name="meta.media.0.codec.sample_aspect_ratio">0</property>
  <property name="meta.media.0.codec.colorspace">601</property>
  <property name="meta.media.0.codec.name">vp9</property>
  <property name="meta.media.0.codec.long_name">Google VP9</property>
  <property name="meta.media.0.codec.bit_rate">0</property>
  <property name="meta.attr.0.stream.language.markup">eng</property>
  <property name="meta.attr.0.stream.DURATION.markup">00:01:29.040000000</property>
  <property name="meta.media.1.stream.type">audio</property>
  <property name="meta.media.1.codec.sample_fmt">fltp</property>
  <property name="meta.media.1.codec.sample_rate">48000</property>
  <property name="meta.media.1.codec.channels">2</property>
  <property name="meta.media.1.codec.name">opus</property>
  <property name="meta.media.1.codec.long_name">Opus</property>
  <property name="meta.media.1.codec.bit_rate">0</property>
  <property name="meta.attr.1.stream.language.markup">eng</property>
  <property name="meta.attr.1.stream.DURATION.markup">00:01:29.121000000</property>
  <property name="meta.attr.ENCODER.markup">Lavf59.27.100</property>
  <property name="meta.media.sample_aspect_num">1</property>
  <property name="meta.media.sample_aspect_den">1</property>
  <property name="meta.media.frame_rate_num">25</property>
  <property name="meta.media.frame_rate_den">1</property>
  <property name="meta.media.colorspace">601</property>
  <property name="meta.media.color_trc">2</property>
  <property name="meta.media.has_b_frames">0</property>
  <property name="meta.media.width">640</property>
  <property name="meta.media.height">480</property>
  <property name="meta.media.color_range">mpeg</property>
  <property name="xml">was here</property>
  <property name="meta.media.top_field_first">0</property>
  <property name="meta.media.progressive">1</property>
  <property name="set.test_image">0</property>
  <property name="mute_on_pause">1</property>
 </chain>
 <chain id="chain16" out="00:00:39.480">
  <property name="length">988</property>
  <property name="eof">pause</property>
  <property name="resource">/home/liquidzulu/Videos/yt/b-roll/How much money $$ my laundromat made this weekend #shorts [ETJL1vH1OpE].webm</property>
  <property name="mlt_service">avformat-novalidate</property>
  <property name="seekable">1</property>
  <property name="format">3</property>
  <property name="audio_index">1</property>
  <property name="video_index">0</property>
  <property name="kdenlive:clipname"/>
  <property name="kdenlive:clip_type">0</property>
  <property name="kdenlive:folderid">-1</property>
  <property name="kdenlive:id">84</property>
  <property name="kdenlive:file_size">23390561</property>
  <property name="kdenlive:file_hash">ac653eefee23ca72bfc49378f7046098</property>
  <property name="kdenlive:audio_max1">144</property>
  <property name="meta.media.nb_streams">2</property>
  <property name="meta.media.0.stream.type">video</property>
  <property name="meta.media.0.stream.frame_rate">30.0025</property>
  <property name="meta.media.0.stream.sample_aspect_ratio">1</property>
  <property name="meta.media.0.codec.width">1080</property>
  <property name="meta.media.0.codec.height">1920</property>
  <property name="meta.media.0.codec.rotate">0</property>
  <property name="meta.media.0.codec.pix_fmt">yuv420p</property>
  <property name="meta.media.0.codec.sample_aspect_ratio">0</property>
  <property name="meta.media.0.codec.colorspace">709</property>
  <property name="meta.media.0.codec.color_trc">1</property>
  <property name="meta.media.0.codec.name">vp9</property>
  <property name="meta.media.0.codec.long_name">Google VP9</property>
  <property name="meta.media.0.codec.bit_rate">0</property>
  <property name="meta.attr.0.stream.HANDLER_NAME.markup">ISO Media file produced by Google Inc. Created on: 11/06/2023.</property>
  <property name="meta.attr.0.stream.VENDOR_ID.markup">[0][0][0][0]</property>
  <property name="meta.attr.0.stream.DURATION.markup">00:00:39.433000000</property>
  <property name="meta.media.1.stream.type">audio</property>
  <property name="meta.media.1.codec.sample_fmt">fltp</property>
  <property name="meta.media.1.codec.sample_rate">48000</property>
  <property name="meta.media.1.codec.channels">2</property>
  <property name="meta.media.1.codec.name">opus</property>
  <property name="meta.media.1.codec.long_name">Opus</property>
  <property name="meta.media.1.codec.bit_rate">0</property>
  <property name="meta.attr.1.stream.language.markup">eng</property>
  <property name="meta.attr.1.stream.DURATION.markup">00:00:39.521000000</property>
  <property name="meta.attr.COMPATIBLE_BRANDS.markup">iso6mp41</property>
  <property name="meta.attr.MAJOR_BRAND.markup">dash</property>
  <property name="meta.attr.MINOR_VERSION.markup">0</property>
  <property name="meta.attr.ENCODER.markup">Lavf59.27.100</property>
  <property name="meta.media.sample_aspect_num">1</property>
  <property name="meta.media.sample_aspect_den">1</property>
  <property name="meta.media.frame_rate_num">11821</property>
  <property name="meta.media.frame_rate_den">394</property>
  <property name="meta.media.colorspace">709</property>
  <property name="meta.media.color_trc">1</property>
  <property name="meta.media.has_b_frames">0</property>
  <property name="meta.media.width">1080</property>
  <property name="meta.media.height">1920</property>
  <property name="meta.media.color_range">mpeg</property>
  <property name="xml">was here</property>
  <property name="meta.media.top_field_first">0</property>
  <property name="meta.media.progressive">1</property>
  <property name="set.test_audio">1</property>
  <property name="set.test_image">0</property>
  <property name="mute_on_pause">1</property>
 </chain>
 <playlist id="playlist12">
  <entry producer="producer1" in="00:00:00.240" out="00:00:02.360">
   <property name="kdenlive:id">5</property>
   <filter id="filter42">
    <property name="rotate_center">1</property>
    <property name="mlt_service">qtblend</property>
    <property name="kdenlive_id">qtblend</property>
    <property name="rect">00:00:00.240=-1161 -2064 3402 6048 1.000000;00:00:01.400=-1161 -2064 3402 6048 1.000000;00:00:01.440=-1161 -2063 3402 6048 1.000000;00:00:01.480=-1161 -2065 3402 6048 1.000000;00:00:01.520=-1161 -2063 3402 6048 1.000000;00:00:01.560=-1161 -2065 3402 6048 1.000000;00:00:01.600=-1161 -2062 3402 6048 1.000000;00:00:01.640=-1161 -2066 3402 6048 1.000000;00:00:01.680=-1161 -2062 3402 6048 1.000000;00:00:01.720=-1161 -2066 3402 6048 1.000000;00:00:01.760=-1161 -2061 3402 6048 1.000000;00:00:01.800=-1161 -2067 3402 6048 1.000000;00:00:01.840=-1161 -2060 3402 6048 1.000000;00:00:01.880=-1161 -2068 3402 6048 1.000000;00:00:01.920=-1161 -2060 3402 6048 1.000000;00:00:01.960=-1161 -2068 3402 6048 1.000000;00:00:02.000=-1161 -2059 3402 6048 1.000000;00:00:02.040=-1161 -2068 3402 6048 1.000000;00:00:02.080=-1161 -2059 3402 6048 1.000000;00:00:02.120=-1161 -2069 3402 6048 1.000000;00:00:02.160=-1161 -2059 3402 6048 1.000000;00:00:02.200=-1161 -2069 3402 6048 1.000000;00:00:02.240=-1161 -2058 3402 6048 1.000000;00:00:02.280=-1161 -2070 3402 6048 1.000000;00:00:02.320=-1161 -2058 3402 6048 1.000000;00:00:02.360=-1161 -2069 3402 6048 1.000000</property>
    <property name="rotation">00:00:00.240=0;00:00:01.400=0;00:00:01.440=0;00:00:01.480=0;00:00:01.520=0;00:00:01.560=0;00:00:01.600=0;00:00:01.640=0;00:00:01.680=0;00:00:01.720=0;00:00:01.760=0;00:00:01.800=0;00:00:01.840=0;00:00:01.880=0;00:00:01.920=0;00:00:01.960=0;00:00:02.000=0;00:00:02.040=0;00:00:02.080=0;00:00:02.120=0;00:00:02.160=0;00:00:02.200=0;00:00:02.240=0;00:00:02.280=0;00:00:02.320=0;00:00:02.360=0</property>
    <property name="compositing">0</property>
    <property name="distort">0</property>
    <property name="kdenlive:collapsed">0</property>
   </filter>
  </entry>
  <entry producer="chain11" in="00:00:14.960" out="00:00:16.440">
   <property name="kdenlive:id">13</property>
   <filter id="filter43">
    <property name="rotate_center">1</property>
    <property name="mlt_service">qtblend</property>
    <property name="kdenlive_id">qtblend</property>
    <property name="rect">00:00:14.960~=-1133 -2411 3609 6416 1.000000;00:00:15.000~=-1133 -2247 3609 6416 1.000000</property>
    <property name="rotation">00:00:14.960~=0;00:00:15.000~=0</property>
    <property name="compositing">0</property>
    <property name="distort">0</property>
    <property name="kdenlive:collapsed">0</property>
   </filter>
  </entry>
  <entry producer="chain11" in="00:00:16.480" out="00:00:21.240">
   <property name="kdenlive:id">13</property>
   <filter id="filter44">
    <property name="rotate_center">1</property>
    <property name="mlt_service">qtblend</property>
    <property name="kdenlive_id">qtblend</property>
    <property name="rect">00:00:16.480~=-880 -2247 3609 6416 1.000000</property>
    <property name="rotation">00:00:16.480~=0</property>
    <property name="compositing">0</property>
    <property name="distort">0</property>
    <property name="kdenlive:collapsed">1</property>
   </filter>
   <filter id="filter45">
    <property name="hradius">00:00:16.480=0;00:00:17.800=0;00:00:18.160=140</property>
    <property name="vradius">00:00:16.480=0;00:00:17.800=0;00:00:18.160=140</property>
    <property name="mlt_service">box_blur</property>
    <property name="kdenlive_id">box_blur</property>
    <property name="kdenlive:collapsed">0</property>
   </filter>
  </entry>
  <blank length="00:00:00.960"/>
  <entry producer="chain12" in="00:01:23.560" out="00:01:23.800">
   <property name="kdenlive:id">32</property>
   <filter id="filter46">
    <property name="rotate_center">1</property>
    <property name="mlt_service">qtblend</property>
    <property name="kdenlive_id">qtblend</property>
    <property name="rect">00:01:23.560=-1554 -2234 3600 6400 1.000000;00:01:23.800=-1422 -2234 3600 6400 1.000000</property>
    <property name="rotation">00:01:23.560=0;00:01:23.800=0</property>
    <property name="compositing">0</property>
    <property name="distort">0</property>
    <property name="kdenlive:collapsed">0</property>
   </filter>
  </entry>
  <blank length="00:00:04.400"/>
  <entry producer="chain13" in="00:00:46.880" out="00:00:52.440">
   <property name="kdenlive:id">47</property>
   <property name="kdenlive:activeeffect">1</property>
   <filter id="filter47">
    <property name="rotate_center">1</property>
    <property name="mlt_service">qtblend</property>
    <property name="kdenlive_id">qtblend</property>
    <property name="rect">00:00:46.880=-1197 -2137 3492 6208 1.000000</property>
    <property name="rotation">00:00:46.880=0</property>
    <property name="compositing">0</property>
    <property name="distort">0</property>
    <property name="kdenlive:collapsed">1</property>
   </filter>
   <filter id="filter48">
    <property name="hradius">00:00:46.880=1;00:00:49.600=1;00:00:49.960=226</property>
    <property name="vradius">00:00:46.880=1;00:00:49.600=1;00:00:49.960=223</property>
    <property name="mlt_service">box_blur</property>
    <property name="kdenlive_id">box_blur</property>
    <property name="kdenlive:collapsed">0</property>
   </filter>
  </entry>
  <blank length="00:00:00.040"/>
  <entry producer="chain14" in="00:00:00.240" out="00:00:04.040">
   <property name="kdenlive:id">60</property>
   <filter id="filter49">
    <property name="rotate_center">1</property>
    <property name="mlt_service">qtblend</property>
    <property name="kdenlive_id">qtblend</property>
    <property name="rect">00:00:00.240=-1170 -2089 3438 6112 1.000000</property>
    <property name="rotation">00:00:00.240=0</property>
    <property name="compositing">0</property>
    <property name="distort">0</property>
    <property name="kdenlive:collapsed">0</property>
   </filter>
  </entry>
  <entry producer="chain15" in="00:00:38.280" out="00:00:44.080">
   <property name="kdenlive:id">71</property>
   <property name="kdenlive:activeeffect">1</property>
   <filter id="filter50">
    <property name="rotate_center">1</property>
    <property name="mlt_service">qtblend</property>
    <property name="kdenlive_id">qtblend</property>
    <property name="rect">00:00:38.280=-878 -1363 2616 4650 1.000000</property>
    <property name="rotation">00:00:38.280=0</property>
    <property name="compositing">0</property>
    <property name="distort">0</property>
    <property name="kdenlive:collapsed">1</property>
   </filter>
   <filter id="filter51">
    <property name="hradius">00:00:38.280=0;00:00:41.400=0;00:00:41.680=116</property>
    <property name="vradius">00:00:38.280=0;00:00:41.400=0;00:00:41.680=138</property>
    <property name="mlt_service">box_blur</property>
    <property name="kdenlive_id">box_blur</property>
    <property name="kdenlive:collapsed">0</property>
   </filter>
  </entry>
  <entry producer="chain16" in="00:00:08.320" out="00:00:09.520">
   <property name="kdenlive:id">84</property>
   <filter id="filter52">
    <property name="rotate_center">1</property>
    <property name="mlt_service">qtblend</property>
    <property name="kdenlive_id">qtblend</property>
    <property name="rect">00:00:08.320=0 0 1080 1920 1.000000</property>
    <property name="rotation">00:00:08.320=0</property>
    <property name="compositing">0</property>
    <property name="distort">0</property>
    <property name="kdenlive:collapsed">0</property>
   </filter>
  </entry>
 </playlist>
 <playlist id="playlist13"/>
 <tractor id="tractor6" in="00:00:00.000" out="00:00:30.640">
  <property name="kdenlive:trackheight">67</property>
  <property name="kdenlive:timeline_active">1</property>
  <property name="kdenlive:collapsed">28</property>
  <property name="kdenlive:thumbs_format"/>
  <property name="kdenlive:audio_rec"/>
  <track hide="audio" producer="playlist12"/>
  <track hide="audio" producer="playlist13"/>
 </tractor>
 <chain id="chain17" out="00:01:00.000">
  <property name="length">1501</property>
  <property name="eof">pause</property>
  <property name="resource">/home/liquidzulu/Videos/yt/b-roll/Soviet union flag - CCCP flag waving in the wind [xl4T7cQ2vyQ].webm</property>
  <property name="mlt_service">avformat-novalidate</property>
  <property name="seekable">1</property>
  <property name="format">3</property>
  <property name="audio_index">1</property>
  <property name="video_index">0</property>
  <property name="kdenlive:clipname"/>
  <property name="kdenlive:clip_type">0</property>
  <property name="kdenlive:folderid">-1</property>
  <property name="kdenlive:id">9</property>
  <property name="kdenlive:file_size">41139049</property>
  <property name="kdenlive:file_hash">2fc3b4891977f4108d0d30df6726765b</property>
  <property name="kdenlive:audio_max1">248</property>
  <property name="meta.media.nb_streams">2</property>
  <property name="meta.media.0.stream.type">video</property>
  <property name="meta.media.0.stream.frame_rate">60</property>
  <property name="meta.media.0.stream.sample_aspect_ratio">1</property>
  <property name="meta.media.0.codec.width">3840</property>
  <property name="meta.media.0.codec.height">2160</property>
  <property name="meta.media.0.codec.rotate">0</property>
  <property name="meta.media.0.codec.pix_fmt">yuv420p</property>
  <property name="meta.media.0.codec.sample_aspect_ratio">0</property>
  <property name="meta.media.0.codec.colorspace">601</property>
  <property name="meta.media.0.codec.color_trc">1</property>
  <property name="meta.media.0.codec.name">vp9</property>
  <property name="meta.media.0.codec.long_name">Google VP9</property>
  <property name="meta.media.0.codec.bit_rate">0</property>
  <property name="meta.attr.0.stream.language.markup">eng</property>
  <property name="meta.attr.0.stream.DURATION.markup">00:01:00.032000000</property>
  <property name="meta.media.1.stream.type">audio</property>
  <property name="meta.media.1.codec.sample_fmt">fltp</property>
  <property name="meta.media.1.codec.sample_rate">48000</property>
  <property name="meta.media.1.codec.channels">2</property>
  <property name="meta.media.1.codec.name">opus</property>
  <property name="meta.media.1.codec.long_name">Opus</property>
  <property name="meta.media.1.codec.bit_rate">0</property>
  <property name="meta.attr.1.stream.language.markup">eng</property>
  <property name="meta.attr.1.stream.DURATION.markup">00:00:59.981000000</property>
  <property name="meta.attr.ENCODER.markup">Lavf59.27.100</property>
  <property name="meta.media.sample_aspect_num">1</property>
  <property name="meta.media.sample_aspect_den">1</property>
  <property name="meta.media.frame_rate_num">60</property>
  <property name="meta.media.frame_rate_den">1</property>
  <property name="meta.media.colorspace">601</property>
  <property name="meta.media.color_trc">1</property>
  <property name="meta.media.has_b_frames">0</property>
  <property name="meta.media.width">3840</property>
  <property name="meta.media.height">2160</property>
  <property name="meta.media.color_range">mpeg</property>
  <property name="xml">was here</property>
  <property name="meta.media.top_field_first">0</property>
  <property name="meta.media.progressive">1</property>
  <property name="set.test_audio">1</property>
  <property name="set.test_image">0</property>
  <property name="mute_on_pause">1</property>
 </chain>
 <playlist id="playlist14">
  <entry producer="chain17" in="00:00:00.000" out="00:00:02.120">
   <property name="kdenlive:id">9</property>
   <filter id="filter53">
    <property name="rotate_center">1</property>
    <property name="mlt_service">qtblend</property>
    <property name="kdenlive_id">qtblend</property>
    <property name="rect">00:00:00.000=-819 -2235 4095 7280 0.000000;00:00:02.120=-819 -2235 4095 7280 0.720000</property>
    <property name="rotation">00:00:00.000=39;00:00:02.120=39</property>
    <property name="compositing">0</property>
    <property name="distort">0</property>
    <property name="kdenlive:collapsed">0</property>
   </filter>
  </entry>
  <blank length="00:00:00.320"/>
  <entry producer="producer2" in="00:00:00.000" out="00:00:00.280">
   <property name="kdenlive:id">27</property>
   <filter id="filter54">
    <property name="rotate_center">1</property>
    <property name="mlt_service">qtblend</property>
    <property name="kdenlive_id">qtblend</property>
    <property name="rect">0=27 57 1026 1824 1.000000;1=-54 -115 1188 2112 1.000000;2=0 0 1080 1920 1.000000</property>
    <property name="rotation">0=0;1=0;2=0</property>
    <property name="compositing">0</property>
    <property name="distort">0</property>
   </filter>
  </entry>
  <entry producer="producer3" in="00:00:00.000" out="00:00:00.200">
   <property name="kdenlive:id">28</property>
   <filter id="filter55">
    <property name="rotate_center">1</property>
    <property name="mlt_service">qtblend</property>
    <property name="kdenlive_id">qtblend</property>
    <property name="rect">0=27 57 1026 1824 1.000000;1=-54 -115 1188 2112 1.000000;2=0 0 1080 1920 1.000000</property>
    <property name="rotation">0=0;1=0;2=0</property>
    <property name="compositing">0</property>
    <property name="distort">0</property>
   </filter>
  </entry>
  <entry producer="producer4" in="00:00:00.000" out="00:00:00.680">
   <property name="kdenlive:id">30</property>
   <filter id="filter56" in="00:00:00.320" out="00:00:00.680">
    <property name="start">1</property>
    <property name="level">1</property>
    <property name="mlt_service">brightness</property>
    <property name="kdenlive_id">fade_to_black</property>
    <property name="alpha">00:00:00.000=1;00:00:00.360=0</property>
   </filter>
   <filter id="filter57">
    <property name="rotate_center">1</property>
    <property name="mlt_service">qtblend</property>
    <property name="kdenlive_id">qtblend</property>
    <property name="rect">0=27 57 1026 1824 1.000000;1=-54 -115 1188 2112 1.000000;2=0 0 1080 1920 1.000000</property>
    <property name="rotation">0=0;1=0;2=0</property>
    <property name="compositing">0</property>
    <property name="distort">0</property>
   </filter>
  </entry>
  <blank length="00:00:02.200"/>
  <entry producer="producer5" in="00:00:00.000" out="00:00:02.480">
   <property name="kdenlive:id">14</property>
   <filter id="filter58">
    <property name="rotate_center">1</property>
    <property name="mlt_service">qtblend</property>
    <property name="kdenlive_id">qtblend</property>
    <property name="rect">00:00:00.000~=323 1937 432 768 1.000000;00:00:00.160~=323 -139 432 768 1.000000;00:00:00.200~=323 -45 432 768 1.000000;00:00:00.600~=323 -50 432 768 1.000000;00:00:01.000~=323 -45 432 768 1.000000;00:00:01.400~=323 -40 432 768 1.000000;00:00:01.800~=323 -45 432 768 1.000000;00:00:02.200~=323 -50 432 768 1.000000</property>
    <property name="rotation">00:00:00.000~=0;00:00:00.160~=0;00:00:00.200~=0;00:00:00.600~=0;00:00:01.000~=0;00:00:01.400~=0;00:00:01.800~=0;00:00:02.200~=0</property>
    <property name="compositing">0</property>
    <property name="distort">0</property>
    <property name="kdenlive:collapsed">0</property>
   </filter>
  </entry>
  <blank length="00:00:00.960"/>
  <entry producer="producer6" in="00:00:00.000" out="00:00:04.320">
   <property name="kdenlive:id">34</property>
   <filter id="filter59">
    <property name="rotate_center">1</property>
    <property name="mlt_service">qtblend</property>
    <property name="kdenlive_id">qtblend</property>
    <property name="rect">00:00:00.000=-160 1629 1402 2492 1.000000;00:00:00.200=-160 -338 1402 2492 1.000000;00:00:00.280=-160 -284 1402 2492 1.000000;00:00:04.320=-211 -355 1616 2872 1.000000</property>
    <property name="rotation">00:00:00.000=0;00:00:00.200=0;00:00:00.280=0;00:00:04.320=0</property>
    <property name="compositing">0</property>
    <property name="distort">0</property>
    <property name="kdenlive:collapsed">0</property>
   </filter>
   <filter id="filter60">
    <property name="hradius">00:00:00.000=0;00:00:00.840=0;00:00:01.000=229;00:00:03.440=229;00:00:03.560=0</property>
    <property name="vradius">00:00:00.000=0;00:00:00.840=0;00:00:01.000=235;00:00:03.440=235;00:00:03.560=0</property>
    <property name="mlt_service">box_blur</property>
    <property name="kdenlive_id">box_blur</property>
    <property name="kdenlive:collapsed">1</property>
   </filter>
  </entry>
  <blank length="00:00:00.320"/>
  <entry producer="producer7" in="00:00:00.000" out="00:00:00.720">
   <property name="kdenlive:id">50</property>
   <filter id="filter61">
    <property name="rotate_center">1</property>
    <property name="mlt_service">qtblend</property>
    <property name="kdenlive_id">qtblend</property>
    <property name="rect">00:00:00.000=27 57 1026 1824 1.000000;00:00:00.040=-54 -115 1188 2112 1.000000;00:00:00.080=0 0 1080 1920 1.000000</property>
    <property name="rotation">00:00:00.000=0;00:00:00.040=0;00:00:00.080=0</property>
    <property name="compositing">0</property>
    <property name="distort">0</property>
   </filter>
  </entry>
  <entry producer="producer8" in="00:00:00.000" out="00:00:00.400">
   <property name="kdenlive:id">51</property>
   <filter id="filter62">
    <property name="rotate_center">1</property>
    <property name="mlt_service">qtblend</property>
    <property name="kdenlive_id">qtblend</property>
    <property name="rect">00:00:00.000=27 57 1026 1824 1.000000;00:00:00.040=-54 -115 1188 2112 1.000000;00:00:00.080=0 0 1080 1920 1.000000</property>
    <property name="rotation">00:00:00.000=0;00:00:00.040=0;00:00:00.080=0</property>
    <property name="compositing">0</property>
    <property name="distort">0</property>
   </filter>
  </entry>
  <entry producer="producer9" in="00:00:00.000" out="00:00:00.680">
   <property name="kdenlive:id">44</property>
   <filter id="filter63" in="00:00:00.480" out="00:00:00.680">
    <property name="start">1</property>
    <property name="level">1</property>
    <property name="mlt_service">brightness</property>
    <property name="kdenlive_id">fade_to_black</property>
    <property name="alpha">00:00:00.000=1;00:00:00.200=0</property>
   </filter>
   <filter id="filter64">
    <property name="rotate_center">1</property>
    <property name="mlt_service">qtblend</property>
    <property name="kdenlive_id">qtblend</property>
    <property name="rect">00:00:00.000=27 57 1026 1824 1.000000;00:00:00.040=-54 -115 1188 2112 1.000000;00:00:00.080=0 0 1080 1920 1.000000</property>
    <property name="rotation">00:00:00.000=0;00:00:00.040=0;00:00:00.080=0</property>
    <property name="compositing">0</property>
    <property name="distort">0</property>
   </filter>
  </entry>
  <entry producer="producer10" in="00:00:00.000" out="00:00:00.320">
   <property name="kdenlive:id">52</property>
   <filter id="filter65">
    <property name="rotate_center">1</property>
    <property name="mlt_service">qtblend</property>
    <property name="kdenlive_id">qtblend</property>
    <property name="rect">00:00:00.000=27 57 1026 1824 1.000000;00:00:00.040=-54 -115 1188 2112 1.000000;00:00:00.080=0 0 1080 1920 1.000000</property>
    <property name="rotation">00:00:00.000=0;00:00:00.040=0;00:00:00.080=0</property>
    <property name="compositing">0</property>
    <property name="distort">0</property>
   </filter>
  </entry>
  <entry producer="producer11" in="00:00:00.000" out="00:00:00.560">
   <property name="kdenlive:id">53</property>
   <filter id="filter66" in="00:00:00.440" out="00:00:00.560">
    <property name="start">1</property>
    <property name="level">1</property>
    <property name="mlt_service">brightness</property>
    <property name="kdenlive_id">fade_to_black</property>
    <property name="alpha">00:00:00.000=1;00:00:00.120=0</property>
   </filter>
   <filter id="filter67">
    <property name="rotate_center">1</property>
    <property name="mlt_service">qtblend</property>
    <property name="kdenlive_id">qtblend</property>
    <property name="rect">00:00:00.000=27 57 1026 1824 1.000000;00:00:00.040=-54 -115 1188 2112 1.000000;00:00:00.080=0 0 1080 1920 1.000000</property>
    <property name="rotation">00:00:00.000=0;00:00:00.040=0;00:00:00.080=0</property>
    <property name="compositing">0</property>
    <property name="distort">0</property>
   </filter>
  </entry>
  <blank length="00:00:02.920"/>
  <entry producer="producer12" in="00:00:00.000" out="00:00:00.480">
   <property name="kdenlive:id">62</property>
   <filter id="filter68">
    <property name="rotate_center">1</property>
    <property name="mlt_service">qtblend</property>
    <property name="kdenlive_id">qtblend</property>
    <property name="rect">0=27 57 1026 1824 1.000000;1=-54 -115 1188 2112 1.000000;2=0 0 1080 1920 1.000000</property>
    <property name="rotation">0=0;1=0;2=0</property>
    <property name="compositing">0</property>
    <property name="distort">0</property>
   </filter>
  </entry>
  <entry producer="producer13" in="00:00:00.000" out="00:00:00.320">
   <property name="kdenlive:id">63</property>
   <filter id="filter69">
    <property name="rotate_center">1</property>
    <property name="mlt_service">qtblend</property>
    <property name="kdenlive_id">qtblend</property>
    <property name="rect">0=27 57 1026 1824 1.000000;1=-54 -115 1188 2112 1.000000;2=0 0 1080 1920 1.000000</property>
    <property name="rotation">0=0;1=0;2=0</property>
    <property name="compositing">0</property>
    <property name="distort">0</property>
   </filter>
  </entry>
  <entry producer="producer14" in="00:00:00.000" out="00:00:00.520">
   <property name="kdenlive:id">64</property>
   <filter id="filter70">
    <property name="rotate_center">1</property>
    <property name="mlt_service">qtblend</property>
    <property name="kdenlive_id">qtblend</property>
    <property name="rect">0=27 57 1026 1824 1.000000;1=-54 -115 1188 2112 1.000000;2=0 0 1080 1920 1.000000</property>
    <property name="rotation">0=0;1=0;2=0</property>
    <property name="compositing">0</property>
    <property name="distort">0</property>
   </filter>
  </entry>
  <entry producer="producer15" in="00:00:00.000" out="00:00:00.480">
   <property name="kdenlive:id">65</property>
   <filter id="filter71">
    <property name="rotate_center">1</property>
    <property name="mlt_service">qtblend</property>
    <property name="kdenlive_id">qtblend</property>
    <property name="rect">0=27 57 1026 1824 1.000000;1=-54 -115 1188 2112 1.000000;2=0 0 1080 1920 1.000000</property>
    <property name="rotation">0=0;1=0;2=0</property>
    <property name="compositing">0</property>
    <property name="distort">0</property>
   </filter>
  </entry>
  <entry producer="producer16" in="00:00:00.000" out="00:00:00.320">
   <property name="kdenlive:id">66</property>
   <filter id="filter72">
    <property name="rotate_center">1</property>
    <property name="mlt_service">qtblend</property>
    <property name="kdenlive_id">qtblend</property>
    <property name="rect">0=27 57 1026 1824 1.000000;1=-54 -115 1188 2112 1.000000;2=0 0 1080 1920 1.000000</property>
    <property name="rotation">0=0;1=0;2=0</property>
    <property name="compositing">0</property>
    <property name="distort">0</property>
   </filter>
  </entry>
  <entry producer="producer17" in="00:00:00.000" out="00:00:00.320">
   <property name="kdenlive:id">67</property>
   <filter id="filter73">
    <property name="rotate_center">1</property>
    <property name="mlt_service">qtblend</property>
    <property name="kdenlive_id">qtblend</property>
    <property name="rect">0=27 57 1026 1824 1.000000;1=-54 -115 1188 2112 1.000000;2=0 0 1080 1920 1.000000</property>
    <property name="rotation">0=0;1=0;2=0</property>
    <property name="compositing">0</property>
    <property name="distort">0</property>
   </filter>
  </entry>
  <entry producer="producer18" in="00:00:00.000" out="00:00:00.440">
   <property name="kdenlive:id">68</property>
   <filter id="filter74" in="00:00:00.240" out="00:00:00.440">
    <property name="start">1</property>
    <property name="level">1</property>
    <property name="mlt_service">brightness</property>
    <property name="kdenlive_id">fade_to_black</property>
    <property name="alpha">0=1;-1=0</property>
   </filter>
   <filter id="filter75">
    <property name="rotate_center">1</property>
    <property name="mlt_service">qtblend</property>
    <property name="kdenlive_id">qtblend</property>
    <property name="rect">0=27 57 1026 1824 1.000000;1=-54 -115 1188 2112 1.000000;2=0 0 1080 1920 1.000000</property>
    <property name="rotation">0=0;1=0;2=0</property>
    <property name="compositing">0</property>
    <property name="distort">0</property>
   </filter>
  </entry>
  <entry producer="producer19" in="00:00:00.000" out="00:00:00.120">
   <property name="kdenlive:id">69</property>
   <filter id="filter76">
    <property name="rotate_center">1</property>
    <property name="mlt_service">qtblend</property>
    <property name="kdenlive_id">qtblend</property>
    <property name="rect">0=27 57 1026 1824 1.000000;1=-54 -115 1188 2112 1.000000;2=0 0 1080 1920 1.000000</property>
    <property name="rotation">0=0;1=0;2=0</property>
    <property name="compositing">0</property>
    <property name="distort">0</property>
   </filter>
  </entry>
  <entry producer="producer20" in="00:00:00.000" out="00:00:00.320">
   <property name="kdenlive:id">70</property>
   <filter id="filter77">
    <property name="rotate_center">1</property>
    <property name="mlt_service">qtblend</property>
    <property name="kdenlive_id">qtblend</property>
    <property name="rect">0=27 57 1026 1824 1.000000;1=-54 -115 1188 2112 1.000000;2=0 0 1080 1920 1.000000</property>
    <property name="rotation">0=0;1=0;2=0</property>
    <property name="compositing">0</property>
    <property name="distort">0</property>
   </filter>
  </entry>
  <blank length="00:00:00.480"/>
  <entry producer="producer21" in="00:00:00.000" out="00:00:00.120">
   <property name="kdenlive:id">73</property>
   <filter id="filter78">
    <property name="rotate_center">1</property>
    <property name="mlt_service">qtblend</property>
    <property name="kdenlive_id">qtblend</property>
    <property name="rect">0=27 57 1026 1824 1.000000;1=-54 -115 1188 2112 1.000000;2=0 0 1080 1920 1.000000</property>
    <property name="rotation">0=0;1=0;2=0</property>
    <property name="compositing">0</property>
    <property name="distort">0</property>
   </filter>
  </entry>
  <entry producer="producer22" in="00:00:00.000" out="00:00:00.480">
   <property name="kdenlive:id">74</property>
   <filter id="filter79">
    <property name="rotate_center">1</property>
    <property name="mlt_service">qtblend</property>
    <property name="kdenlive_id">qtblend</property>
    <property name="rect">0=27 57 1026 1824 1.000000;1=-54 -115 1188 2112 1.000000;2=0 0 1080 1920 1.000000</property>
    <property name="rotation">0=0;1=0;2=0</property>
    <property name="compositing">0</property>
    <property name="distort">0</property>
   </filter>
  </entry>
  <entry producer="producer23" in="00:00:00.000" out="00:00:00.480">
   <property name="kdenlive:id">75</property>
   <filter id="filter80">
    <property name="rotate_center">1</property>
    <property name="mlt_service">qtblend</property>
    <property name="kdenlive_id">qtblend</property>
    <property name="rect">0=27 57 1026 1824 1.000000;1=-54 -115 1188 2112 1.000000;2=0 0 1080 1920 1.000000</property>
    <property name="rotation">0=0;1=0;2=0</property>
    <property name="compositing">0</property>
    <property name="distort">0</property>
   </filter>
  </entry>
  <entry producer="producer24" in="00:00:00.000" out="00:00:00.200">
   <property name="kdenlive:id">76</property>
   <filter id="filter81">
    <property name="rotate_center">1</property>
    <property name="mlt_service">qtblend</property>
    <property name="kdenlive_id">qtblend</property>
    <property name="rect">0=27 57 1026 1824 1.000000;1=-54 -115 1188 2112 1.000000;2=0 0 1080 1920 1.000000</property>
    <property name="rotation">0=0;1=0;2=0</property>
    <property name="compositing">0</property>
    <property name="distort">0</property>
   </filter>
  </entry>
  <entry producer="producer25" in="00:00:00.000" out="00:00:00.400">
   <property name="kdenlive:id">77</property>
   <filter id="filter82">
    <property name="rotate_center">1</property>
    <property name="mlt_service">qtblend</property>
    <property name="kdenlive_id">qtblend</property>
    <property name="rect">0=27 57 1026 1824 1.000000;1=-54 -115 1188 2112 1.000000;2=0 0 1080 1920 1.000000</property>
    <property name="rotation">0=0;1=0;2=0</property>
    <property name="compositing">0</property>
    <property name="distort">0</property>
   </filter>
  </entry>
  <entry producer="producer26" in="00:00:00.000" out="00:00:00.840">
   <property name="kdenlive:id">78</property>
   <filter id="filter83" in="00:00:00.600" out="00:00:00.840">
    <property name="start">1</property>
    <property name="level">1</property>
    <property name="mlt_service">brightness</property>
    <property name="kdenlive_id">fade_to_black</property>
    <property name="alpha">00:00:00.000=1;00:00:00.240=0</property>
   </filter>
   <filter id="filter84">
    <property name="rotate_center">1</property>
    <property name="mlt_service">qtblend</property>
    <property name="kdenlive_id">qtblend</property>
    <property name="rect">0=27 57 1026 1824 1.000000;1=-54 -115 1188 2112 1.000000;2=0 0 1080 1920 1.000000</property>
    <property name="rotation">0=0;1=0;2=0</property>
    <property name="compositing">0</property>
    <property name="distort">0</property>
   </filter>
  </entry>
  <entry producer="producer27" in="00:00:00.000" out="00:00:02.560">
   <property name="kdenlive:id">79</property>
   <filter id="filter85">
    <property name="rotate_center">1</property>
    <property name="mlt_service">qtblend</property>
    <property name="kdenlive_id">qtblend</property>
    <property name="rect">00:00:00.000=162 -1286 756 1344 1.000000;00:00:00.200=162 22 756 1344 1.000000;00:00:00.280=162 -33 756 1344 1.000000</property>
    <property name="rotation">00:00:00.000=0;00:00:00.200=0;00:00:00.280=0</property>
    <property name="compositing">0</property>
    <property name="distort">0</property>
    <property name="kdenlive:collapsed">0</property>
   </filter>
  </entry>
  <blank length="00:00:00.040"/>
  <entry producer="producer28" in="00:00:00.000" out="00:00:00.360">
   <property name="kdenlive:id">86</property>
   <filter id="filter86">
    <property name="rotate_center">1</property>
    <property name="mlt_service">qtblend</property>
    <property name="kdenlive_id">qtblend</property>
    <property name="rect">0=27 57 1026 1824 1.000000;1=-54 -115 1188 2112 1.000000;2=0 0 1080 1920 1.000000</property>
    <property name="rotation">0=0;1=0;2=0</property>
    <property name="compositing">0</property>
    <property name="distort">0</property>
   </filter>
  </entry>
  <entry producer="producer29" in="00:00:00.000" out="00:00:00.760">
   <property name="kdenlive:id">87</property>
   <filter id="filter87">
    <property name="rotate_center">1</property>
    <property name="mlt_service">qtblend</property>
    <property name="kdenlive_id">qtblend</property>
    <property name="rect">0=27 57 1026 1824 1.000000;1=-54 -115 1188 2112 1.000000;2=0 0 1080 1920 1.000000</property>
    <property name="rotation">0=0;1=0;2=0</property>
    <property name="compositing">0</property>
    <property name="distort">0</property>
   </filter>
  </entry>
 </playlist>
 <playlist id="playlist15"/>
 <tractor id="tractor7" in="00:00:00.000" out="00:00:30.640">
  <property name="kdenlive:trackheight">67</property>
  <property name="kdenlive:timeline_active">1</property>
  <property name="kdenlive:collapsed">28</property>
  <property name="kdenlive:thumbs_format"/>
  <property name="kdenlive:audio_rec"/>
  <track hide="audio" producer="playlist14"/>
  <track hide="audio" producer="playlist15"/>
 </tractor>
 <chain id="chain18" out="00:01:29.080">
  <property name="length">2228</property>
  <property name="eof">pause</property>
  <property name="resource">/home/liquidzulu/Videos/yt/b-roll/Joseph Stalin Footage - Moscow (1947) [upakJluxmw0].webm</property>
  <property name="mlt_service">avformat-novalidate</property>
  <property name="seekable">1</property>
  <property name="format">3</property>
  <property name="audio_index">-1</property>
  <property name="video_index">0</property>
  <property name="kdenlive:clipname"/>
  <property name="kdenlive:clip_type">0</property>
  <property name="kdenlive:folderid">-1</property>
  <property name="kdenlive:id">71</property>
  <property name="kdenlive:file_size">7050356</property>
  <property name="kdenlive:file_hash">f6ee1d06b5641fbf5c2e6b50cbf061fe</property>
  <property name="kdenlive:audio_max1">133</property>
  <property name="kdenlive:active_streams">-1</property>
  <property name="set.test_audio">1</property>
  <property name="meta.media.nb_streams">2</property>
  <property name="meta.media.0.stream.type">video</property>
  <property name="meta.media.0.stream.frame_rate">25</property>
  <property name="meta.media.0.stream.sample_aspect_ratio">1</property>
  <property name="meta.media.0.codec.width">640</property>
  <property name="meta.media.0.codec.height">480</property>
  <property name="meta.media.0.codec.rotate">0</property>
  <property name="meta.media.0.codec.pix_fmt">yuv420p</property>
  <property name="meta.media.0.codec.sample_aspect_ratio">0</property>
  <property name="meta.media.0.codec.colorspace">601</property>
  <property name="meta.media.0.codec.name">vp9</property>
  <property name="meta.media.0.codec.long_name">Google VP9</property>
  <property name="meta.media.0.codec.bit_rate">0</property>
  <property name="meta.attr.0.stream.language.markup">eng</property>
  <property name="meta.attr.0.stream.DURATION.markup">00:01:29.040000000</property>
  <property name="meta.media.1.stream.type">audio</property>
  <property name="meta.media.1.codec.sample_fmt">fltp</property>
  <property name="meta.media.1.codec.sample_rate">48000</property>
  <property name="meta.media.1.codec.channels">2</property>
  <property name="meta.media.1.codec.name">opus</property>
  <property name="meta.media.1.codec.long_name">Opus</property>
  <property name="meta.media.1.codec.bit_rate">0</property>
  <property name="meta.attr.1.stream.language.markup">eng</property>
  <property name="meta.attr.1.stream.DURATION.markup">00:01:29.121000000</property>
  <property name="meta.attr.ENCODER.markup">Lavf59.27.100</property>
  <property name="meta.media.sample_aspect_num">1</property>
  <property name="meta.media.sample_aspect_den">1</property>
  <property name="meta.media.frame_rate_num">25</property>
  <property name="meta.media.frame_rate_den">1</property>
  <property name="meta.media.colorspace">601</property>
  <property name="meta.media.color_trc">2</property>
  <property name="meta.media.has_b_frames">0</property>
  <property name="meta.media.width">640</property>
  <property name="meta.media.height">480</property>
  <property name="meta.media.color_range">mpeg</property>
  <property name="xml">was here</property>
  <property name="meta.media.top_field_first">0</property>
  <property name="meta.media.progressive">1</property>
  <property name="set.test_image">0</property>
  <property name="mute_on_pause">1</property>
 </chain>
 <producer id="producer64" in="00:00:00.000" out="00:00:12.600">
  <property name="length">00:00:12.640</property>
  <property name="eof">pause</property>
  <property name="resource">/home/liquidzulu/Documents/youtube-scripts/shorts/fee/equality-of-opportunity/images/big brother tall.png</property>
  <property name="ttl">25</property>
  <property name="aspect_ratio">1</property>
  <property name="progressive">1</property>
  <property name="seekable">1</property>
  <property name="format">2</property>
  <property name="meta.media.width">1080</property>
  <property name="meta.media.height">1920</property>
  <property name="mlt_service">qimage</property>
  <property name="kdenlive:clipname"/>
  <property name="kdenlive:duration">00:00:05.000</property>
  <property name="kdenlive:folderid">48</property>
  <property name="kdenlive:id">91</property>
  <property name="kdenlive:clip_type">2</property>
  <property name="kdenlive:file_size">1126732</property>
  <property name="kdenlive:file_hash">974cdd7078d5c3ec9a4d1ceb2ea14821</property>
 </producer>
 <playlist id="playlist16">
  <entry producer="producer30" in="00:00:00.000" out="00:00:02.120">
   <property name="kdenlive:id">18</property>
   <filter id="filter88">
    <property name="rotate_center">1</property>
    <property name="mlt_service">qtblend</property>
    <property name="kdenlive_id">qtblend</property>
    <property name="rect">00:00:00.000~=0 1953 1080 1920 1.000000;00:00:00.240~=0 -40 1080 1920 1.000000;00:00:00.360~=0 0 1080 1920 1.000000;00:00:00.960=0 0 1080 1920 1.000000;00:00:01.000=0 -82 1080 1920 1.000000;00:00:01.080=0 0 1080 1920 1.000000</property>
    <property name="rotation">00:00:00.000~=0;00:00:00.240~=0;00:00:00.360~=0;00:00:00.960=0;00:00:01.000=0;00:00:01.080=0</property>
    <property name="compositing">0</property>
    <property name="distort">0</property>
    <property name="kdenlive:collapsed">0</property>
   </filter>
  </entry>
  <blank length="00:00:03.920"/>
  <entry producer="producer31" in="00:00:00.000" out="00:00:02.360">
   <property name="kdenlive:id">15</property>
   <filter id="filter89">
    <property name="rotate_center">1</property>
    <property name="mlt_service">qtblend</property>
    <property name="kdenlive_id">qtblend</property>
    <property name="rect">00:00:00.000~=270 1956 540 960 1.000000;00:00:00.160~=270 420 540 960 1.000000;00:00:00.200~=270 480 540 960 1.000000;00:00:00.600~=270 475 540 960 1.000000;00:00:01.000~=270 480 540 960 1.000000;00:00:01.400~=270 485 540 960 1.000000;00:00:01.800~=270 480 540 960 1.000000;00:00:02.200~=270 475 540 960 1.000000</property>
    <property name="rotation">00:00:00.000~=0;00:00:00.160~=0;00:00:00.200~=0;00:00:00.600~=0;00:00:01.000~=0;00:00:01.400~=0;00:00:01.800~=0;00:00:02.200~=0</property>
    <property name="compositing">0</property>
    <property name="distort">0</property>
    <property name="kdenlive:collapsed">0</property>
   </filter>
  </entry>
  <blank length="00:00:00.960"/>
  <entry producer="producer32" in="00:00:00.000" out="00:00:00.680">
   <property name="kdenlive:id">35</property>
   <filter id="filter90" in="00:00:00.440" out="00:00:00.680">
    <property name="start">1</property>
    <property name="level">1</property>
    <property name="mlt_service">brightness</property>
    <property name="kdenlive_id">fade_to_black</property>
    <property name="alpha">00:00:00.000=1;00:00:00.240=0</property>
    <property name="kdenlive:collapsed">0</property>
   </filter>
   <filter id="filter91">
    <property name="rotate_center">1</property>
    <property name="mlt_service">qtblend</property>
    <property name="kdenlive_id">qtblend</property>
    <property name="rect">00:00:00.000=27 57 1026 1824 1.000000;00:00:00.040=-54 -115 1188 2112 1.000000;00:00:00.080=0 0 1080 1920 1.000000</property>
    <property name="rotation">00:00:00.000=0;00:00:00.040=0;00:00:00.080=0</property>
    <property name="compositing">0</property>
    <property name="distort">0</property>
   </filter>
  </entry>
  <blank length="00:00:00.120"/>
  <entry producer="producer33" in="00:00:00.000" out="00:00:03.480">
   <property name="kdenlive:id">37</property>
   <filter id="filter92">
    <property name="rotate_center">1</property>
    <property name="mlt_service">qtblend</property>
    <property name="kdenlive_id">qtblend</property>
    <property name="rect">00:00:00.000=535 703 10 19 1.000000;00:00:00.160=135 -7 810 1440 1.000000;00:00:00.240=189 89 702 1248 1.000000;00:00:02.600=189 89 702 1248 1.000000;00:00:02.640=189 49 702 1248 1.000000;00:00:02.720=189 -1303 702 1248 1.000000</property>
    <property name="rotation">00:00:00.000=0;00:00:00.160=0;00:00:00.240=0;00:00:02.600=0;00:00:02.640=0;00:00:02.720=0</property>
    <property name="compositing">0</property>
    <property name="distort">0</property>
    <property name="kdenlive:collapsed">0</property>
   </filter>
  </entry>
  <blank length="00:00:03.080"/>
  <entry producer="producer34" in="00:00:00.000" out="00:00:01.640">
   <property name="kdenlive:id">54</property>
   <filter id="filter93">
    <property name="rotate_center">1</property>
    <property name="mlt_service">qtblend</property>
    <property name="kdenlive_id">qtblend</property>
    <property name="rect">00:00:00.000~=323 1937 432 768 1.000000;00:00:00.160~=323 -139 432 768 1.000000;00:00:00.200~=323 -45 432 768 1.000000;00:00:00.600~=323 -50 432 768 1.000000;00:00:01.000~=323 -45 432 768 1.000000;00:00:01.400~=323 -40 432 768 1.000000;00:00:01.640=323 -42 432 768 1.000000</property>
    <property name="rotation">00:00:00.000~=0;00:00:00.160~=0;00:00:00.200~=0;00:00:00.600~=0;00:00:01.000~=0;00:00:01.400~=0;00:00:01.640=0</property>
    <property name="compositing">0</property>
    <property name="distort">0</property>
    <property name="kdenlive:collapsed">0</property>
   </filter>
  </entry>
  <entry producer="producer34" in="00:00:00.000" out="00:00:00.240">
   <property name="kdenlive:id">54</property>
   <filter id="filter94">
    <property name="rotate_center">1</property>
    <property name="mlt_service">qtblend</property>
    <property name="kdenlive_id">qtblend</property>
    <property name="rect">00:00:00.000=323 -42 432 768 1.000000;00:00:00.120=323 -121 432 768 1.000000;00:00:00.160=323 -25 432 768 1.000000;00:00:00.200=323 -119 432 768 1.000000;00:00:00.240=323 -15 432 768 1.000000</property>
    <property name="rotation">00:00:00.000=0;00:00:00.120=0;00:00:00.160=0;00:00:00.200=0;00:00:00.240=0</property>
    <property name="compositing">0</property>
    <property name="distort">0</property>
    <property name="kdenlive:collapsed">1</property>
   </filter>
   <filter id="filter95">
    <property name="hradius">00:00:00.000=0;00:00:00.240=0</property>
    <property name="vradius">00:00:00.000=0;00:00:00.240=210</property>
    <property name="mlt_service">box_blur</property>
    <property name="kdenlive_id">box_blur</property>
    <property name="kdenlive:collapsed">0</property>
   </filter>
   <filter id="filter96" in="00:00:00.160" out="00:00:00.240">
    <property name="start">1</property>
    <property name="level">1</property>
    <property name="mlt_service">brightness</property>
    <property name="kdenlive_id">fade_to_black</property>
    <property name="alpha">00:00:00.000=1;00:00:00.080=0</property>
   </filter>
  </entry>
  <blank length="00:00:04.560"/>
  <entry producer="chain18" in="00:00:38.080" out="00:00:38.240">
   <property name="kdenlive:id">71</property>
   <filter id="filter97">
    <property name="rotate_center">1</property>
    <property name="mlt_service">qtblend</property>
    <property name="kdenlive_id">qtblend</property>
    <property name="rect">00:00:38.080=-878 598 2616 4650 1.000000;00:00:38.200=-878 -1440 2616 4650 1.000000;00:00:38.240=-878 -1401 2616 4650 1.000000</property>
    <property name="rotation">00:00:38.080=0;00:00:38.200=0;00:00:38.240=0</property>
    <property name="compositing">0</property>
    <property name="distort">0</property>
    <property name="kdenlive:collapsed">0</property>
   </filter>
  </entry>
  <blank length="00:00:03.240"/>
  <entry producer="producer35" in="00:00:00.000" out="00:00:00.280">
   <property name="kdenlive:id">80</property>
   <filter id="filter98">
    <property name="rotate_center">1</property>
    <property name="mlt_service">qtblend</property>
    <property name="kdenlive_id">qtblend</property>
    <property name="rect">0=27 57 1026 1824 1.000000;1=-54 -115 1188 2112 1.000000;2=0 0 1080 1920 1.000000</property>
    <property name="rotation">0=0;1=0;2=0</property>
    <property name="compositing">0</property>
    <property name="distort">0</property>
   </filter>
  </entry>
  <entry producer="producer36" in="00:00:00.000" out="00:00:00.360">
   <property name="kdenlive:id">81</property>
   <filter id="filter99">
    <property name="rotate_center">1</property>
    <property name="mlt_service">qtblend</property>
    <property name="kdenlive_id">qtblend</property>
    <property name="rect">0=27 57 1026 1824 1.000000;1=-54 -115 1188 2112 1.000000;2=0 0 1080 1920 1.000000</property>
    <property name="rotation">0=0;1=0;2=0</property>
    <property name="compositing">0</property>
    <property name="distort">0</property>
   </filter>
  </entry>
  <entry producer="producer37" in="00:00:00.000" out="00:00:00.360">
   <property name="kdenlive:id">82</property>
   <filter id="filter100">
    <property name="rotate_center">1</property>
    <property name="mlt_service">qtblend</property>
    <property name="kdenlive_id">qtblend</property>
    <property name="rect">0=27 57 1026 1824 1.000000;1=-54 -115 1188 2112 1.000000;2=0 0 1080 1920 1.000000</property>
    <property name="rotation">0=0;1=0;2=0</property>
    <property name="compositing">0</property>
    <property name="distort">0</property>
   </filter>
  </entry>
  <entry producer="producer38" in="00:00:00.000" out="00:00:00.280">
   <property name="kdenlive:id">41</property>
   <filter id="filter101">
    <property name="rotate_center">1</property>
    <property name="mlt_service">qtblend</property>
    <property name="kdenlive_id">qtblend</property>
    <property name="rect">0=27 57 1026 1824 1.000000;1=-54 -115 1188 2112 1.000000;2=0 0 1080 1920 1.000000</property>
    <property name="rotation">0=0;1=0;2=0</property>
    <property name="compositing">0</property>
    <property name="distort">0</property>
   </filter>
  </entry>
  <entry producer="producer39" in="00:00:00.000" out="00:00:00.840">
   <property name="kdenlive:id">83</property>
   <filter id="filter102" in="00:00:00.560" out="00:00:00.840">
    <property name="start">1</property>
    <property name="level">1</property>
    <property name="mlt_service">brightness</property>
    <property name="kdenlive_id">fade_to_black</property>
    <property name="alpha">00:00:00.000=1;00:00:00.280=0</property>
   </filter>
   <filter id="filter103">
    <property name="rotate_center">1</property>
    <property name="mlt_service">qtblend</property>
    <property name="kdenlive_id">qtblend</property>
    <property name="rect">0=27 57 1026 1824 1.000000;1=-54 -115 1188 2112 1.000000;2=0 0 1080 1920 1.000000</property>
    <property name="rotation">0=0;1=0;2=0</property>
    <property name="compositing">0</property>
    <property name="distort">0</property>
   </filter>
  </entry>
  <blank length="00:00:01.120"/>
  <entry producer="producer64" in="00:00:00.000" out="00:00:05.320">
   <property name="kdenlive:id">91</property>
   <filter id="filter104">
    <property name="rotate_center">1</property>
    <property name="mlt_service">qtblend</property>
    <property name="kdenlive_id">qtblend</property>
    <property name="rect">00:00:00.000~=0 1988 1080 1920 1.000000;00:00:00.200=-1 -152 1083 1926 1.000000;00:00:00.400=-2 -7 1086 1932 1.000000;00:00:01.960~=-27 -62 1134 2016 1.000000;00:00:04.000~=0 0 1080 1920 1.000000;00:00:05.320=-19 -49 1118 1988 1.000000</property>
    <property name="rotation">00:00:00.000~=0;00:00:00.200=0;00:00:00.400=0;00:00:01.960~=0;00:00:04.000~=0;00:00:05.320=0</property>
    <property name="compositing">0</property>
    <property name="distort">0</property>
    <property name="kdenlive:collapsed">1</property>
   </filter>
   <filter id="filter105">
    <property name="hradius">00:00:00.000=0;00:00:05.320=0</property>
    <property name="vradius">00:00:00.000=0;00:00:05.320=0</property>
    <property name="mlt_service">box_blur</property>
    <property name="kdenlive_id">box_blur</property>
    <property name="kdenlive:collapsed">0</property>
   </filter>
  </entry>
 </playlist>
 <playlist id="playlist17"/>
 <tractor id="tractor8" in="00:00:00.000" out="00:00:35.600">
  <property name="kdenlive:trackheight">67</property>
  <property name="kdenlive:timeline_active">1</property>
  <property name="kdenlive:collapsed">28</property>
  <property name="kdenlive:thumbs_format"/>
  <property name="kdenlive:audio_rec"/>
  <track hide="audio" producer="playlist16"/>
  <track hide="audio" producer="playlist17"/>
 </tractor>
 <chain id="chain19" out="00:00:39.480">
  <property name="length">988</property>
  <property name="eof">pause</property>
  <property name="resource">/home/liquidzulu/Videos/yt/b-roll/How much money $$ my laundromat made this weekend #shorts [ETJL1vH1OpE].webm</property>
  <property name="mlt_service">avformat-novalidate</property>
  <property name="seekable">1</property>
  <property name="format">3</property>
  <property name="audio_index">1</property>
  <property name="video_index">0</property>
  <property name="kdenlive:clipname"/>
  <property name="kdenlive:clip_type">0</property>
  <property name="kdenlive:folderid">-1</property>
  <property name="kdenlive:id">84</property>
  <property name="kdenlive:file_size">23390561</property>
  <property name="kdenlive:file_hash">ac653eefee23ca72bfc49378f7046098</property>
  <property name="kdenlive:audio_max1">144</property>
  <property name="meta.media.nb_streams">2</property>
  <property name="meta.media.0.stream.type">video</property>
  <property name="meta.media.0.stream.frame_rate">30.0025</property>
  <property name="meta.media.0.stream.sample_aspect_ratio">1</property>
  <property name="meta.media.0.codec.width">1080</property>
  <property name="meta.media.0.codec.height">1920</property>
  <property name="meta.media.0.codec.rotate">0</property>
  <property name="meta.media.0.codec.pix_fmt">yuv420p</property>
  <property name="meta.media.0.codec.sample_aspect_ratio">0</property>
  <property name="meta.media.0.codec.colorspace">709</property>
  <property name="meta.media.0.codec.color_trc">1</property>
  <property name="meta.media.0.codec.name">vp9</property>
  <property name="meta.media.0.codec.long_name">Google VP9</property>
  <property name="meta.media.0.codec.bit_rate">0</property>
  <property name="meta.attr.0.stream.HANDLER_NAME.markup">ISO Media file produced by Google Inc. Created on: 11/06/2023.</property>
  <property name="meta.attr.0.stream.VENDOR_ID.markup">[0][0][0][0]</property>
  <property name="meta.attr.0.stream.DURATION.markup">00:00:39.433000000</property>
  <property name="meta.media.1.stream.type">audio</property>
  <property name="meta.media.1.codec.sample_fmt">fltp</property>
  <property name="meta.media.1.codec.sample_rate">48000</property>
  <property name="meta.media.1.codec.channels">2</property>
  <property name="meta.media.1.codec.name">opus</property>
  <property name="meta.media.1.codec.long_name">Opus</property>
  <property name="meta.media.1.codec.bit_rate">0</property>
  <property name="meta.attr.1.stream.language.markup">eng</property>
  <property name="meta.attr.1.stream.DURATION.markup">00:00:39.521000000</property>
  <property name="meta.attr.COMPATIBLE_BRANDS.markup">iso6mp41</property>
  <property name="meta.attr.MAJOR_BRAND.markup">dash</property>
  <property name="meta.attr.MINOR_VERSION.markup">0</property>
  <property name="meta.attr.ENCODER.markup">Lavf59.27.100</property>
  <property name="meta.media.sample_aspect_num">1</property>
  <property name="meta.media.sample_aspect_den">1</property>
  <property name="meta.media.frame_rate_num">11821</property>
  <property name="meta.media.frame_rate_den">394</property>
  <property name="meta.media.colorspace">709</property>
  <property name="meta.media.color_trc">1</property>
  <property name="meta.media.has_b_frames">0</property>
  <property name="meta.media.width">1080</property>
  <property name="meta.media.height">1920</property>
  <property name="meta.media.color_range">mpeg</property>
  <property name="xml">was here</property>
  <property name="meta.media.top_field_first">0</property>
  <property name="meta.media.progressive">1</property>
  <property name="set.test_audio">1</property>
  <property name="set.test_image">0</property>
  <property name="mute_on_pause">1</property>
 </chain>
 <producer id="producer65" in="00:00:00.000" out="00:00:12.600">
  <property name="length">00:00:12.640</property>
  <property name="eof">pause</property>
  <property name="resource">/home/liquidzulu/Documents/youtube-scripts/shorts/fee/equality-of-opportunity/images/sheeple-2.png</property>
  <property name="ttl">25</property>
  <property name="aspect_ratio">1</property>
  <property name="progressive">1</property>
  <property name="seekable">1</property>
  <property name="format">2</property>
  <property name="meta.media.width">2932</property>
  <property name="meta.media.height">547</property>
  <property name="mlt_service">qimage</property>
  <property name="kdenlive:clipname"/>
  <property name="kdenlive:duration">00:00:05.000</property>
  <property name="kdenlive:folderid">48</property>
  <property name="kdenlive:id">90</property>
  <property name="kdenlive:clip_type">2</property>
  <property name="kdenlive:file_size">263736</property>
  <property name="kdenlive:file_hash">0d21ddb1ec87212f86ea1a6cc88f25fe</property>
 </producer>
 <playlist id="playlist18">
  <blank length="00:00:00.520"/>
  <entry producer="producer40" in="00:00:00.000" out="00:00:01.600">
   <property name="kdenlive:id">19</property>
   <filter id="filter106">
    <property name="rotate_center">1</property>
    <property name="mlt_service">qtblend</property>
    <property name="kdenlive_id">qtblend</property>
    <property name="rect">00:00:00.000=81 1023 211 375 1.000000;00:00:00.120=-17 -128 1188 2112 1.000000;00:00:00.200=0 0 1080 1920 1.000000;00:00:00.440=0 0 1080 1920 1.000000;00:00:00.480=0 -119 1080 1920 1.000000;00:00:00.560=0 0 1080 1920 1.000000</property>
    <property name="rotation">00:00:00.000=0;00:00:00.120=0;00:00:00.200=0;00:00:00.440=0;00:00:00.480=0;00:00:00.560=0</property>
    <property name="compositing">0</property>
    <property name="distort">0</property>
    <property name="kdenlive:collapsed">0</property>
   </filter>
  </entry>
  <blank length="00:00:04.040"/>
  <entry producer="producer41" in="00:00:00.000" out="00:00:02.240">
   <property name="kdenlive:id">17</property>
   <filter id="filter107">
    <property name="rotate_center">1</property>
    <property name="mlt_service">qtblend</property>
    <property name="kdenlive_id">qtblend</property>
    <property name="rect">00:00:00.000~=324 2340 427 760 1.000000;00:00:00.160~=324 1121 427 760 1.000000;00:00:00.200~=324 1170 427 760 1.000000;00:00:00.600~=324 1165 427 760 1.000000;00:00:01.000~=324 1170 427 760 1.000000;00:00:01.400~=324 1175 427 760 1.000000;00:00:01.800~=324 1170 427 760 1.000000;00:00:02.200~=324 1165 427 760 1.000000</property>
    <property name="rotation">00:00:00.000~=0;00:00:00.160~=0;00:00:00.200~=0;00:00:00.600~=0;00:00:01.000~=0;00:00:01.400~=0;00:00:01.800~=0;00:00:02.200~=0</property>
    <property name="compositing">0</property>
    <property name="distort">0</property>
    <property name="kdenlive:collapsed">0</property>
   </filter>
  </entry>
  <blank length="00:00:02.520"/>
  <entry producer="producer42" in="00:00:00.000" out="00:00:00.280">
   <property name="kdenlive:id">38</property>
   <filter id="filter108">
    <property name="rotate_center">1</property>
    <property name="mlt_service">qtblend</property>
    <property name="kdenlive_id">qtblend</property>
    <property name="rect">00:00:00.000=27 266 1026 1824 1.000000;00:00:00.040=-54 97 1188 2112 1.000000;00:00:00.080=0 211 1080 1920 1.000000</property>
    <property name="rotation">00:00:00.000=0;00:00:00.040=0;00:00:00.080=0</property>
    <property name="compositing">0</property>
    <property name="distort">0</property>
    <property name="kdenlive:collapsed">0</property>
   </filter>
  </entry>
  <entry producer="producer43" in="00:00:00.000" out="00:00:00.200">
   <property name="kdenlive:id">39</property>
   <filter id="filter109">
    <property name="rotate_center">1</property>
    <property name="mlt_service">qtblend</property>
    <property name="kdenlive_id">qtblend</property>
    <property name="rect">00:00:00.000=-266 -374 1616 2872 1.000000;00:00:00.080=54 320 972 1728 1.000000;00:00:00.120=0 211 1080 1920 1.000000</property>
    <property name="rotation">00:00:00.000=0;00:00:00.080=0;00:00:00.120=0</property>
    <property name="compositing">0</property>
    <property name="distort">0</property>
    <property name="kdenlive:collapsed">0</property>
   </filter>
  </entry>
  <entry producer="producer44" in="00:00:00.000" out="00:00:00.480">
   <property name="kdenlive:id">42</property>
   <filter id="filter110">
    <property name="rotate_center">1</property>
    <property name="mlt_service">qtblend</property>
    <property name="kdenlive_id">qtblend</property>
    <property name="rect">0=27 266 1026 1824 1.000000;1=-54 97 1188 2112 1.000000;2=0 211 1080 1920 1.000000</property>
    <property name="rotation">0=0;1=0;2=0</property>
    <property name="compositing">0</property>
    <property name="distort">0</property>
   </filter>
  </entry>
  <entry producer="producer38" in="00:00:00.000" out="00:00:00.160">
   <property name="kdenlive:id">41</property>
   <filter id="filter111">
    <property name="rotate_center">1</property>
    <property name="mlt_service">qtblend</property>
    <property name="kdenlive_id">qtblend</property>
    <property name="rect">0=27 266 1026 1824 1.000000;1=-54 97 1188 2112 1.000000;2=0 211 1080 1920 1.000000</property>
    <property name="rotation">0=0;1=0;2=0</property>
    <property name="compositing">0</property>
    <property name="distort">0</property>
   </filter>
  </entry>
  <entry producer="producer9" in="00:00:00.000" out="00:00:00.480">
   <property name="kdenlive:id">44</property>
   <filter id="filter112">
    <property name="rotate_center">1</property>
    <property name="mlt_service">qtblend</property>
    <property name="kdenlive_id">qtblend</property>
    <property name="rect">00:00:00.000=27 266 1026 1824 1.000000;00:00:00.040=-54 97 1188 2112 1.000000;00:00:00.080=0 211 1080 1920 1.000000</property>
    <property name="rotation">00:00:00.000=0;00:00:00.040=0;00:00:00.080=0</property>
    <property name="compositing">0</property>
    <property name="distort">0</property>
   </filter>
  </entry>
  <entry producer="producer45" in="00:00:00.000" out="00:00:00.960">
   <property name="kdenlive:id">45</property>
   <filter id="filter113">
    <property name="rotate_center">1</property>
    <property name="mlt_service">qtblend</property>
    <property name="kdenlive_id">qtblend</property>
    <property name="rect">00:00:00.000=0 211 1080 1920 1.000000;00:00:00.040=0 256 1080 1920 1.000000;00:00:00.160=0 -52 1080 1920 1.000000;00:00:00.240=0 0 1080 1920 1.000000</property>
    <property name="rotation">00:00:00.000=0;00:00:00.040=0;00:00:00.160=0;00:00:00.240=0</property>
    <property name="compositing">0</property>
    <property name="distort">0</property>
    <property name="kdenlive:collapsed">0</property>
   </filter>
  </entry>
  <blank length="00:00:03.200"/>
  <entry producer="producer46" in="00:00:00.000" out="00:00:01.520">
   <property name="kdenlive:id">55</property>
   <filter id="filter114">
    <property name="rotate_center">1</property>
    <property name="mlt_service">qtblend</property>
    <property name="kdenlive_id">qtblend</property>
    <property name="rect">00:00:00.000~=270 1956 540 960 1.000000;00:00:00.160~=270 420 540 960 1.000000;00:00:00.200~=270 480 540 960 1.000000;00:00:00.600~=270 475 540 960 1.000000;00:00:01.000~=270 480 540 960 1.000000;00:00:01.400~=270 485 540 960 1.000000;00:00:01.520=270 484 540 960 1.000000</property>
    <property name="rotation">00:00:00.000~=0;00:00:00.160~=0;00:00:00.200~=0;00:00:00.600~=0;00:00:01.000~=0;00:00:01.400~=0;00:00:01.520=0</property>
    <property name="compositing">0</property>
    <property name="distort">0</property>
    <property name="kdenlive:collapsed">0</property>
   </filter>
  </entry>
  <entry producer="producer46" in="00:00:00.000" out="00:00:00.240">
   <property name="kdenlive:id">55</property>
   <filter id="filter115">
    <property name="rotate_center">1</property>
    <property name="mlt_service">qtblend</property>
    <property name="kdenlive_id">qtblend</property>
    <property name="rect">00:00:00.000=270 484 540 960 1.000000;00:00:00.120=270 432 540 960 1.000000;00:00:00.160=270 514 540 960 1.000000;00:00:00.200=270 449 540 960 1.000000;00:00:00.240=270 573 540 960 1.000000</property>
    <property name="rotation">00:00:00.000=0;00:00:00.120=0;00:00:00.160=0;00:00:00.200=0;00:00:00.240=0</property>
    <property name="compositing">0</property>
    <property name="distort">0</property>
    <property name="kdenlive:collapsed">1</property>
   </filter>
   <filter id="filter116">
    <property name="hradius">00:00:00.000=0;00:00:00.240=0</property>
    <property name="vradius">00:00:00.000=0;00:00:00.240=210</property>
    <property name="mlt_service">box_blur</property>
    <property name="kdenlive_id">box_blur</property>
    <property name="kdenlive:collapsed">0</property>
   </filter>
   <filter id="filter117" in="00:00:00.160" out="00:00:00.240">
    <property name="start">1</property>
    <property name="level">1</property>
    <property name="mlt_service">brightness</property>
    <property name="kdenlive_id">fade_to_black</property>
    <property name="alpha">00:00:00.000=1;00:00:00.080=0</property>
   </filter>
  </entry>
  <blank length="00:00:04.640"/>
  <entry producer="producer47" in="00:00:00.000" out="00:00:00.560">
   <property name="kdenlive:id">72</property>
   <filter id="filter118">
    <property name="rotate_center">1</property>
    <property name="mlt_service">qtblend</property>
    <property name="kdenlive_id">qtblend</property>
    <property name="rect">0=27 57 1026 1824 1.000000;1=-54 -115 1188 2112 1.000000;2=0 0 1080 1920 1.000000</property>
    <property name="rotation">0=0;1=0;2=0</property>
    <property name="compositing">0</property>
    <property name="distort">0</property>
   </filter>
  </entry>
  <blank length="00:00:04.960"/>
  <entry producer="chain19" in="00:00:07.920" out="00:00:08.280">
   <property name="kdenlive:id">84</property>
   <filter id="filter119">
    <property name="rotate_center">1</property>
    <property name="mlt_service">qtblend</property>
    <property name="kdenlive_id">qtblend</property>
    <property name="rect">00:00:07.920=0 1920 1080 1920 1.000000;00:00:08.160=0 -149 1080 1920 1.000000;00:00:08.240=0 0 1080 1920 1.000000</property>
    <property name="rotation">00:00:07.920=0;00:00:08.160=0;00:00:08.240=0</property>
    <property name="compositing">0</property>
    <property name="distort">0</property>
    <property name="kdenlive:collapsed">0</property>
   </filter>
  </entry>
  <blank length="00:00:01.320"/>
  <entry producer="producer65" in="00:00:00.000" out="00:00:04.840">
   <property name="kdenlive:id">90</property>
   <filter id="filter120">
    <property name="rotate_center">1</property>
    <property name="mlt_service">qtblend</property>
    <property name="kdenlive_id">qtblend</property>
    <property name="rect">00:00:00.000=-3134 -1530 4365 7760 1.000000;00:00:00.200=-3118 -2482 4365 7760 1.000000;00:00:00.280=-3111 -2434 4365 7760 1.000000;00:00:04.840=-2750 -2434 4365 7760 1.000000</property>
    <property name="rotation">00:00:00.000=0;00:00:00.200=0;00:00:00.280=0;00:00:04.840=0</property>
    <property name="compositing">0</property>
    <property name="distort">0</property>
    <property name="kdenlive:collapsed">1</property>
   </filter>
   <filter id="filter121">
    <property name="hradius">00:00:00.000=0;00:00:04.840=0</property>
    <property name="vradius">00:00:00.000=0;00:00:04.840=0</property>
    <property name="mlt_service">box_blur</property>
    <property name="kdenlive_id">box_blur</property>
   </filter>
  </entry>
 </playlist>
 <playlist id="playlist19"/>
 <tractor id="tractor9" in="00:00:00.000" out="00:00:35.600">
  <property name="kdenlive:trackheight">67</property>
  <property name="kdenlive:timeline_active">1</property>
  <property name="kdenlive:collapsed">28</property>
  <property name="kdenlive:thumbs_format"/>
  <property name="kdenlive:audio_rec"/>
  <track hide="audio" producer="playlist18"/>
  <track hide="audio" producer="playlist19"/>
 </tractor>
 <chain id="chain20" out="00:06:39.680">
  <property name="length">9993</property>
  <property name="eof">pause</property>
  <property name="resource">/home/liquidzulu/Videos/yt/b-roll/False starts and missed starts at the Olympics ｜ Strangest Moments [BH6gOzFoYyc].webm</property>
  <property name="mlt_service">avformat-novalidate</property>
  <property name="seekable">1</property>
  <property name="format">3</property>
  <property name="audio_index">-1</property>
  <property name="video_index">0</property>
  <property name="kdenlive:clipname"/>
  <property name="kdenlive:clip_type">0</property>
  <property name="kdenlive:folderid">-1</property>
  <property name="kdenlive:id">32</property>
  <property name="kdenlive:file_size">180075959</property>
  <property name="kdenlive:file_hash">eb3676f33869f11fb04de8d44ff703e3</property>
  <property name="kdenlive:audio_max1">161</property>
  <property name="kdenlive:active_streams">-1</property>
  <property name="set.test_audio">1</property>
  <property name="meta.media.nb_streams">2</property>
  <property name="meta.media.0.stream.type">video</property>
  <property name="meta.media.0.stream.frame_rate">25</property>
  <property name="meta.media.0.stream.sample_aspect_ratio">1</property>
  <property name="meta.media.0.codec.width">1920</property>
  <property name="meta.media.0.codec.height">1080</property>
  <property name="meta.media.0.codec.rotate">0</property>
  <property name="meta.media.0.codec.pix_fmt">yuv420p</property>
  <property name="meta.media.0.codec.sample_aspect_ratio">0</property>
  <property name="meta.media.0.codec.colorspace">709</property>
  <property name="meta.media.0.codec.color_trc">1</property>
  <property name="meta.media.0.codec.name">vp9</property>
  <property name="meta.media.0.codec.long_name">Google VP9</property>
  <property name="meta.media.0.codec.bit_rate">0</property>
  <property name="meta.attr.0.stream.HANDLER_NAME.markup">ISO Media file produced by Google Inc. Created on: 11/06/2023.</property>
  <property name="meta.attr.0.stream.VENDOR_ID.markup">[0][0][0][0]</property>
  <property name="meta.attr.0.stream.DURATION.markup">00:06:39.680000000</property>
  <property name="meta.media.1.stream.type">audio</property>
  <property name="meta.media.1.codec.sample_fmt">fltp</property>
  <property name="meta.media.1.codec.sample_rate">48000</property>
  <property name="meta.media.1.codec.channels">2</property>
  <property name="meta.media.1.codec.name">opus</property>
  <property name="meta.media.1.codec.long_name">Opus</property>
  <property name="meta.media.1.codec.bit_rate">0</property>
  <property name="meta.attr.1.stream.language.markup">eng</property>
  <property name="meta.attr.1.stream.DURATION.markup">00:06:39.721000000</property>
  <property name="meta.attr.COMPATIBLE_BRANDS.markup">iso6mp41</property>
  <property name="meta.attr.MAJOR_BRAND.markup">dash</property>
  <property name="meta.attr.MINOR_VERSION.markup">0</property>
  <property name="meta.attr.ENCODER.markup">Lavf59.27.100</property>
  <property name="meta.media.sample_aspect_num">1</property>
  <property name="meta.media.sample_aspect_den">1</property>
  <property name="meta.media.frame_rate_num">25</property>
  <property name="meta.media.frame_rate_den">1</property>
  <property name="meta.media.colorspace">709</property>
  <property name="meta.media.color_trc">1</property>
  <property name="meta.media.has_b_frames">0</property>
  <property name="meta.media.width">1920</property>
  <property name="meta.media.height">1080</property>
  <property name="meta.media.color_range">mpeg</property>
  <property name="xml">was here</property>
  <property name="meta.media.top_field_first">0</property>
  <property name="meta.media.progressive">1</property>
  <property name="set.test_image">0</property>
  <property name="mute_on_pause">1</property>
 </chain>
 <chain id="chain21" out="00:03:51.480">
  <property name="length">5788</property>
  <property name="eof">pause</property>
  <property name="resource">/home/liquidzulu/Videos/yt/b-roll/Bernie Sanders Open borders Thats a Koch brothers proposal_1080p.mp4</property>
  <property name="mlt_service">avformat-novalidate</property>
  <property name="seekable">1</property>
  <property name="format">3</property>
  <property name="audio_index">-1</property>
  <property name="video_index">0</property>
  <property name="kdenlive:clipname"/>
  <property name="kdenlive:clip_type">0</property>
  <property name="kdenlive:folderid">10</property>
  <property name="kdenlive:id">47</property>
  <property name="kdenlive:file_size">39511432</property>
  <property name="kdenlive:file_hash">86dda513b03b4e74e2e35ce8856252dc</property>
  <property name="kdenlive:audio_max1">214</property>
  <property name="kdenlive:active_streams">-1</property>
  <property name="set.test_audio">1</property>
  <property name="meta.media.nb_streams">2</property>
  <property name="meta.media.0.stream.type">video</property>
  <property name="meta.media.0.stream.frame_rate">23.976</property>
  <property name="meta.media.0.stream.sample_aspect_ratio">1</property>
  <property name="meta.media.0.codec.width">1920</property>
  <property name="meta.media.0.codec.height">1080</property>
  <property name="meta.media.0.codec.rotate">0</property>
  <property name="meta.media.0.codec.pix_fmt">yuv420p</property>
  <property name="meta.media.0.codec.sample_aspect_ratio">1</property>
  <property name="meta.media.0.codec.colorspace">709</property>
  <property name="meta.media.0.codec.color_trc">1</property>
  <property name="meta.media.0.codec.name">h264</property>
  <property name="meta.media.0.codec.long_name">H.264 / AVC / MPEG-4 AVC / MPEG-4 part 10</property>
  <property name="meta.media.0.codec.bit_rate">1233410</property>
  <property name="meta.attr.0.stream.handler_name.markup">VideoHandler</property>
  <property name="meta.attr.0.stream.vendor_id.markup">[0][0][0][0]</property>
  <property name="meta.media.1.stream.type">audio</property>
  <property name="meta.media.1.codec.sample_fmt">fltp</property>
  <property name="meta.media.1.codec.sample_rate">44100</property>
  <property name="meta.media.1.codec.channels">2</property>
  <property name="meta.media.1.codec.name">aac</property>
  <property name="meta.media.1.codec.long_name">AAC (Advanced Audio Coding)</property>
  <property name="meta.media.1.codec.bit_rate">125592</property>
  <property name="meta.attr.1.stream.language.markup">eng</property>
  <property name="meta.attr.1.stream.handler_name.markup">SoundHandler</property>
  <property name="meta.attr.1.stream.vendor_id.markup">[0][0][0][0]</property>
  <property name="meta.attr.major_brand.markup">isom</property>
  <property name="meta.attr.minor_version.markup">512</property>
  <property name="meta.attr.compatible_brands.markup">isomiso2avc1mp41</property>
  <property name="meta.attr.encoder.markup">Lavf58.19.102</property>
  <property name="meta.media.sample_aspect_num">1</property>
  <property name="meta.media.sample_aspect_den">1</property>
  <property name="meta.media.frame_rate_num">83235000</property>
  <property name="meta.media.frame_rate_den">3471593</property>
  <property name="meta.media.colorspace">709</property>
  <property name="meta.media.color_trc">1</property>
  <property name="meta.media.has_b_frames">1</property>
  <property name="meta.media.width">1920</property>
  <property name="meta.media.height">1080</property>
  <property name="meta.media.color_range">mpeg</property>
  <property name="xml">was here</property>
  <property name="meta.media.top_field_first">0</property>
  <property name="meta.media.progressive">1</property>
  <property name="set.test_image">0</property>
  <property name="mute_on_pause">1</property>
 </chain>
 <producer id="producer66" in="00:00:00.000" out="00:00:12.600">
  <property name="length">00:00:12.640</property>
  <property name="eof">pause</property>
  <property name="resource">/home/liquidzulu/Documents/youtube-scripts/shorts/fee/equality-of-opportunity/images/sheeple-1.png</property>
  <property name="ttl">25</property>
  <property name="aspect_ratio">1</property>
  <property name="progressive">1</property>
  <property name="seekable">1</property>
  <property name="format">2</property>
  <property name="meta.media.width">2932</property>
  <property name="meta.media.height">547</property>
  <property name="mlt_service">qimage</property>
  <property name="kdenlive:clipname"/>
  <property name="kdenlive:duration">00:00:05.000</property>
  <property name="kdenlive:folderid">48</property>
  <property name="kdenlive:id">89</property>
  <property name="kdenlive:clip_type">2</property>
  <property name="kdenlive:file_size">231201</property>
  <property name="kdenlive:file_hash">8b95b581395956a673aa0afd5703155f</property>
 </producer>
 <playlist id="playlist20">
  <blank length="00:00:00.640"/>
  <entry producer="producer48" in="00:00:00.000" out="00:00:01.480">
   <property name="kdenlive:id">21</property>
   <filter id="filter122">
    <property name="rotate_center">1</property>
    <property name="mlt_service">qtblend</property>
    <property name="kdenlive_id">qtblend</property>
    <property name="rect">00:00:00.000=362 1014 211 375 1.000000;00:00:00.120=-43 -126 1188 2112 1.000000;00:00:00.200=0 0 1080 1920 1.000000;00:00:00.320=0 0 1080 1920 1.000000;00:00:00.360=0 -122 1080 1920 1.000000;00:00:00.440=0 0 1080 1920 1.000000</property>
    <property name="rotation">00:00:00.000=0;00:00:00.120=0;00:00:00.200=0;00:00:00.320=0;00:00:00.360=0;00:00:00.440=0</property>
    <property name="compositing">0</property>
    <property name="distort">0</property>
    <property name="kdenlive:collapsed">0</property>
   </filter>
  </entry>
  <blank length="00:00:06.120"/>
  <entry producer="chain20" in="00:01:22.400" out="00:01:23.520">
   <property name="kdenlive:id">32</property>
   <filter id="filter123">
    <property name="rotate_center">1</property>
    <property name="mlt_service">qtblend</property>
    <property name="kdenlive_id">qtblend</property>
    <property name="rect">00:01:22.400=-2195 -246 3600 6400 1.000000;00:01:22.560=-2106 -2438 3600 6400 1.000000;00:01:22.640=-2061 -2234 3600 6400 1.000000;00:01:23.520=-1576 -2234 3600 6400 1.000000</property>
    <property name="rotation">00:01:22.400=0;00:01:22.560=0;00:01:22.640=0;00:01:23.520=0</property>
    <property name="compositing">0</property>
    <property name="distort">0</property>
    <property name="kdenlive:collapsed">0</property>
   </filter>
  </entry>
  <blank length="00:00:04.120"/>
  <entry producer="chain21" in="00:00:46.320" out="00:00:46.840">
   <property name="kdenlive:id">47</property>
   <filter id="filter124">
    <property name="rotate_center">1</property>
    <property name="mlt_service">qtblend</property>
    <property name="kdenlive_id">qtblend</property>
    <property name="rect">00:00:46.320=-1197 -91 3492 6208 1.000000;00:00:46.480=-1197 -2234 3492 6208 1.000000;00:00:46.560=-1197 -2137 3492 6208 1.000000</property>
    <property name="rotation">00:00:46.320=0;00:00:46.480=0;00:00:46.560=0</property>
    <property name="compositing">0</property>
    <property name="distort">0</property>
    <property name="kdenlive:collapsed">0</property>
   </filter>
  </entry>
  <blank length="00:00:03.000"/>
  <entry producer="producer49" in="00:00:00.000" out="00:00:01.400">
   <property name="kdenlive:id">56</property>
   <filter id="filter125">
    <property name="rotate_center">1</property>
    <property name="mlt_service">qtblend</property>
    <property name="kdenlive_id">qtblend</property>
    <property name="rect">00:00:00.000~=324 2340 427 760 1.000000;00:00:00.160~=324 1121 427 760 1.000000;00:00:00.200~=324 1170 427 760 1.000000;00:00:00.600~=324 1165 427 760 1.000000;00:00:01.000~=324 1170 427 760 1.000000;00:00:01.400~=324 1175 427 760 1.000000;00:00:01.800~=324 1170 427 760 1.000000;00:00:02.200~=324 1165 427 760 1.000000</property>
    <property name="rotation">00:00:00.000~=0;00:00:00.160~=0;00:00:00.200~=0;00:00:00.600~=0;00:00:01.000~=0;00:00:01.400~=0;00:00:01.800~=0;00:00:02.200~=0</property>
    <property name="compositing">0</property>
    <property name="distort">0</property>
    <property name="kdenlive:collapsed">0</property>
   </filter>
  </entry>
  <entry producer="producer49" in="00:00:00.000" out="00:00:00.240">
   <property name="kdenlive:id">56</property>
   <filter id="filter126">
    <property name="rotate_center">1</property>
    <property name="mlt_service">qtblend</property>
    <property name="kdenlive_id">qtblend</property>
    <property name="rect">00:00:00.000=324 1174 427 760 1.000000;00:00:00.120=324 1115 427 760 1.000000;00:00:00.160=324 1184 427 760 1.000000;00:00:00.200=324 1094 427 760 1.000000;00:00:00.240=324 1227 427 760 1.000000</property>
    <property name="rotation">00:00:00.000=0;00:00:00.120=0;00:00:00.160=0;00:00:00.200=0;00:00:00.240=0</property>
    <property name="compositing">0</property>
    <property name="distort">0</property>
    <property name="kdenlive:collapsed">1</property>
   </filter>
   <filter id="filter127">
    <property name="hradius">00:00:00.000=0;00:00:00.240=0</property>
    <property name="vradius">00:00:00.000=0;00:00:00.240=210</property>
    <property name="mlt_service">box_blur</property>
    <property name="kdenlive_id">box_blur</property>
    <property name="kdenlive:collapsed">0</property>
   </filter>
   <filter id="filter128" in="00:00:00.160" out="00:00:00.240">
    <property name="start">1</property>
    <property name="level">1</property>
    <property name="mlt_service">brightness</property>
    <property name="kdenlive_id">fade_to_black</property>
    <property name="alpha">00:00:00.000=1;00:00:00.080=0</property>
   </filter>
  </entry>
  <blank length="00:00:10.200"/>
  <entry producer="producer50" in="00:00:00.000" out="00:00:00.400">
   <property name="kdenlive:id">85</property>
   <filter id="filter129">
    <property name="rotate_center">1</property>
    <property name="mlt_service">qtblend</property>
    <property name="kdenlive_id">qtblend</property>
    <property name="rect">0=27 57 1026 1824 1.000000;1=-54 -115 1188 2112 1.000000;2=0 0 1080 1920 1.000000</property>
    <property name="rotation">0=0;1=0;2=0</property>
    <property name="compositing">0</property>
    <property name="distort">0</property>
   </filter>
  </entry>
  <blank length="00:00:01.040"/>
  <entry producer="producer66" in="00:00:00.000" out="00:00:05.080">
   <property name="kdenlive:id">89</property>
   <filter id="filter130">
    <property name="rotate_center">1</property>
    <property name="mlt_service">qtblend</property>
    <property name="kdenlive_id">qtblend</property>
    <property name="rect">00:00:00.000=-87 -1513 4365 7760 1.000000;00:00:00.200=-120 -2466 4365 7760 1.000000;00:00:00.280=-133 -2402 4365 7760 1.000000;00:00:05.080=-942 -2402 4365 7760 1.000000</property>
    <property name="rotation">00:00:00.000=0;00:00:00.200=0;00:00:00.280=0;00:00:05.080=0</property>
    <property name="compositing">0</property>
    <property name="distort">0</property>
    <property name="kdenlive:collapsed">1</property>
   </filter>
   <filter id="filter131">
    <property name="hradius">00:00:00.000=0;00:00:05.080=0</property>
    <property name="vradius">00:00:00.000=0;00:00:05.080=0</property>
    <property name="mlt_service">box_blur</property>
    <property name="kdenlive_id">box_blur</property>
   </filter>
  </entry>
 </playlist>
 <playlist id="playlist21"/>
 <tractor id="tractor10" in="00:00:00.000" out="00:00:35.600">
  <property name="kdenlive:trackheight">67</property>
  <property name="kdenlive:timeline_active">1</property>
  <property name="kdenlive:collapsed">28</property>
  <property name="kdenlive:thumbs_format"/>
  <property name="kdenlive:audio_rec"/>
  <track hide="audio" producer="playlist20"/>
  <track hide="audio" producer="playlist21"/>
 </tractor>
 <producer id="producer67" in="00:00:00.000" out="00:00:12.600">
  <property name="length">00:00:12.640</property>
  <property name="eof">pause</property>
  <property name="resource">/home/liquidzulu/Documents/youtube-scripts/shorts/fee/equality-of-opportunity/images/sheeple-0.png</property>
  <property name="ttl">25</property>
  <property name="aspect_ratio">1</property>
  <property name="progressive">1</property>
  <property name="seekable">1</property>
  <property name="format">2</property>
  <property name="meta.media.width">2932</property>
  <property name="meta.media.height">547</property>
  <property name="mlt_service">qimage</property>
  <property name="kdenlive:clipname"/>
  <property name="kdenlive:duration">00:00:05.000</property>
  <property name="kdenlive:folderid">48</property>
  <property name="kdenlive:id">88</property>
  <property name="kdenlive:clip_type">2</property>
  <property name="kdenlive:file_size">205661</property>
  <property name="kdenlive:file_hash">16ece5c70303c8ce3bfe3290afeeab38</property>
 </producer>
 <playlist id="playlist22">
  <blank length="00:00:00.800"/>
  <entry producer="producer51" in="00:00:00.000" out="00:00:01.320">
   <property name="kdenlive:id">22</property>
   <filter id="filter132">
    <property name="rotate_center">1</property>
    <property name="mlt_service">qtblend</property>
    <property name="kdenlive_id">qtblend</property>
    <property name="rect">00:00:00.000=719 1014 216 384 1.000000;00:00:00.120=-93 -126 1186 2108 1.000000;00:00:00.160=-46 -63 1133 2014 1.000000;00:00:00.200=0 -127 1080 1920 1.000000;00:00:00.280=0 0 1080 1920 1.000000</property>
    <property name="rotation">00:00:00.000=0;00:00:00.120=0;00:00:00.160=0;00:00:00.200=0;00:00:00.280=0</property>
    <property name="compositing">0</property>
    <property name="distort">0</property>
    <property name="kdenlive:collapsed">0</property>
   </filter>
  </entry>
  <blank length="00:00:06.160"/>
  <entry producer="producer3" in="00:00:00.000" out="00:00:00.200">
   <property name="kdenlive:id">28</property>
   <filter id="filter133">
    <property name="rotate_center">1</property>
    <property name="mlt_service">qtblend</property>
    <property name="kdenlive_id">qtblend</property>
    <property name="rect">0=27 57 1026 1824 1.000000;1=-54 -115 1188 2112 1.000000;2=0 0 1080 1920 1.000000</property>
    <property name="rotation">0=0;1=0;2=0</property>
    <property name="compositing">0</property>
    <property name="distort">0</property>
    <property name="kdenlive:collapsed">0</property>
   </filter>
  </entry>
  <entry producer="producer52" in="00:00:00.000" out="00:00:00.840">
   <property name="kdenlive:id">33</property>
   <filter id="filter134" in="00:00:00.360" out="00:00:00.840">
    <property name="start">1</property>
    <property name="level">1</property>
    <property name="mlt_service">brightness</property>
    <property name="kdenlive_id">fade_to_black</property>
    <property name="alpha">00:00:00.000=1;00:00:00.480=0</property>
    <property name="kdenlive:collapsed">0</property>
   </filter>
   <filter id="filter135">
    <property name="rotate_center">1</property>
    <property name="mlt_service">qtblend</property>
    <property name="kdenlive_id">qtblend</property>
    <property name="rect">0=27 57 1026 1824 1.000000;1=-54 -115 1188 2112 1.000000;2=0 0 1080 1920 1.000000</property>
    <property name="rotation">0=0;1=0;2=0</property>
    <property name="compositing">0</property>
    <property name="distort">0</property>
    <property name="kdenlive:collapsed">0</property>
   </filter>
  </entry>
  <blank length="00:00:04.200"/>
  <entry producer="producer53" in="00:00:00.000" out="00:00:00.440">
   <property name="kdenlive:id">49</property>
   <filter id="filter136">
    <property name="rotate_center">1</property>
    <property name="mlt_service">qtblend</property>
    <property name="kdenlive_id">qtblend</property>
    <property name="rect">00:00:00.000=27 57 1026 1824 1.000000;00:00:00.040=-54 -115 1188 2112 1.000000;00:00:00.080=0 0 1080 1920 1.000000</property>
    <property name="rotation">00:00:00.000=0;00:00:00.040=0;00:00:00.080=0</property>
    <property name="compositing">0</property>
    <property name="distort">0</property>
    <property name="kdenlive:collapsed">0</property>
   </filter>
  </entry>
  <blank length="00:00:04.560"/>
  <entry producer="producer54" in="00:00:00.000" out="00:00:01.000">
   <property name="kdenlive:id">57</property>
   <property name="kdenlive:activeeffect">1</property>
   <filter id="filter137">
    <property name="rotate_center">1</property>
    <property name="mlt_service">qtblend</property>
    <property name="kdenlive_id">qtblend</property>
    <property name="rect">00:00:00.000=245 -401 589 1048 1.000000;00:00:00.040=245 19 589 1048 1.000000;00:00:00.080=245 -259 589 1048 1.000000;00:00:00.120=245 -117 589 1048 1.000000;00:00:00.160=245 -231 589 1048 1.000000;00:00:00.240=245 -173 589 1048 1.000000</property>
    <property name="rotation">00:00:00.000=0;00:00:00.040=0;00:00:00.080=0;00:00:00.120=0;00:00:00.160=0;00:00:00.240=0</property>
    <property name="compositing">0</property>
    <property name="distort">0</property>
    <property name="kdenlive:collapsed">1</property>
   </filter>
   <filter id="filter138">
    <property name="hradius">00:00:00.000=0;00:00:00.200=0</property>
    <property name="vradius">00:00:00.000=235;00:00:00.200=0</property>
    <property name="mlt_service">box_blur</property>
    <property name="kdenlive_id">box_blur</property>
    <property name="kdenlive:collapsed">0</property>
   </filter>
   <filter id="filter139" out="00:00:00.080">
    <property name="start">1</property>
    <property name="level">1</property>
    <property name="mlt_service">brightness</property>
    <property name="kdenlive_id">fade_from_black</property>
    <property name="alpha">00:00:00.000=0;00:00:00.080=1</property>
    <property name="kdenlive:collapsed">0</property>
   </filter>
  </entry>
  <blank length="00:00:10.560"/>
  <entry producer="producer67" in="00:00:00.000" out="00:00:05.320">
   <property name="kdenlive:id">88</property>
   <filter id="filter140">
    <property name="rotate_center">1</property>
    <property name="mlt_service">qtblend</property>
    <property name="kdenlive_id">qtblend</property>
    <property name="rect">00:00:00.000=-3245 -1488 4365 7760 1.000000;00:00:00.200=-3194 -2417 4365 7760 1.000000;00:00:00.280=-3173 -2371 4365 7760 1.000000;00:00:05.320=-1895 -2371 4365 7760 1.000000</property>
    <property name="rotation">00:00:00.000=0;00:00:00.200=0;00:00:00.280=0;00:00:05.320=0</property>
    <property name="compositing">0</property>
    <property name="distort">0</property>
    <property name="kdenlive:collapsed">1</property>
   </filter>
   <filter id="filter141">
    <property name="hradius">00:00:00.000=0;00:00:05.320=0</property>
    <property name="vradius">00:00:00.000=0;00:00:05.320=0</property>
    <property name="mlt_service">box_blur</property>
    <property name="kdenlive_id">box_blur</property>
    <property name="kdenlive:collapsed">0</property>
   </filter>
  </entry>
 </playlist>
 <playlist id="playlist23"/>
 <tractor id="tractor11" in="00:00:00.000" out="00:00:35.600">
  <property name="kdenlive:trackheight">67</property>
  <property name="kdenlive:timeline_active">1</property>
  <property name="kdenlive:collapsed">28</property>
  <property name="kdenlive:thumbs_format"/>
  <property name="kdenlive:audio_rec"/>
  <track hide="audio" producer="playlist22"/>
  <track hide="audio" producer="playlist23"/>
 </tractor>
 <producer id="producer68" in="00:00:00.000" out="00:00:04.960">
  <property name="length">125</property>
  <property name="eof">pause</property>
  <property name="progressive">1</property>
  <property name="aspect_ratio">1</property>
  <property name="seekable">1</property>
  <property name="mlt_service">kdenlivetitle</property>
  <property name="kdenlive:duration">00:00:05:00</property>
  <property name="kdenlive:clipname">or total</property>
  <property name="xmldata">&lt;kdenlivetitle duration="125" LC_NUMERIC="C" width="1080" height="1920" out="124">
 &lt;item type="QGraphicsTextItem" z-index="0">
  &lt;position x="305" y="1095">
   &lt;transform>1,0,0,0,1,0,0,0,1&lt;/transform>
  &lt;/position>
  &lt;content line-spacing="0" shadow="0;#64000000;3;3;3" font-underline="0" box-height="132" font-outline-color="0,0,0,255" font="Cubano" letter-spacing="0" font-pixel-size="110" font-italic="0" typewriter="0;2;1;0;0" alignment="4" font-weight="50" font-outline="6" box-width="473.828" font-color="255,255,255,255">or total&lt;/content>
 &lt;/item>
 &lt;startviewport rect="0,0,1080,1920"/>
 &lt;endviewport rect="0,0,1080,1920"/>
 &lt;background color="0,0,0,0"/>
&lt;/kdenlivetitle>
</property>
  <property name="kdenlive:folderid">29</property>
  <property name="kdenlive:id">92</property>
  <property name="kdenlive:clip_type">2</property>
  <property name="force_reload">0</property>
  <property name="meta.media.width">1080</property>
  <property name="meta.media.height">1920</property>
 </producer>
 <producer id="producer69" in="00:00:00.000" out="00:00:04.960">
  <property name="length">125</property>
  <property name="eof">pause</property>
  <property name="progressive">1</property>
  <property name="aspect_ratio">1</property>
  <property name="seekable">1</property>
  <property name="mlt_service">kdenlivetitle</property>
  <property name="kdenlive:duration">00:00:05:00</property>
  <property name="kdenlive:clipname">government</property>
  <property name="xmldata">&lt;kdenlivetitle duration="125" LC_NUMERIC="C" width="1080" height="1920" out="124">
 &lt;item type="QGraphicsTextItem" z-index="0">
  &lt;position x="206" y="1095">
   &lt;transform>1,0,0,0,1,0,0,0,1&lt;/transform>
  &lt;/position>
  &lt;content line-spacing="0" shadow="0;#64000000;3;3;3" font-underline="0" box-height="132" font-outline-color="0,0,0,255" font="Cubano" letter-spacing="0" font-pixel-size="110" font-italic="0" typewriter="0;2;1;0;0" alignment="4" font-weight="50" font-outline="6" box-width="668.953" font-color="255,255,255,255">government&lt;/content>
 &lt;/item>
 &lt;startviewport rect="0,0,1080,1920"/>
 &lt;endviewport rect="0,0,1080,1920"/>
 &lt;background color="0,0,0,0"/>
&lt;/kdenlivetitle>
</property>
  <property name="kdenlive:folderid">29</property>
  <property name="kdenlive:id">93</property>
  <property name="kdenlive:clip_type">2</property>
  <property name="force_reload">0</property>
  <property name="meta.media.width">1080</property>
  <property name="meta.media.height">1920</property>
 </producer>
 <producer id="producer70" in="00:00:00.000" out="00:00:04.960">
  <property name="length">125</property>
  <property name="eof">pause</property>
  <property name="progressive">1</property>
  <property name="aspect_ratio">1</property>
  <property name="seekable">1</property>
  <property name="mlt_service">kdenlivetitle</property>
  <property name="kdenlive:duration">00:00:05:00</property>
  <property name="kdenlive:clipname">omnipotence</property>
  <property name="xmldata">&lt;kdenlivetitle duration="125" LC_NUMERIC="C" width="1080" height="1920" out="124">
 &lt;item type="QGraphicsTextItem" z-index="0">
  &lt;position x="191" y="1095">
   &lt;transform>1,0,0,0,1,0,0,0,1&lt;/transform>
  &lt;/position>
  &lt;content line-spacing="0" shadow="0;#64000000;3;3;3" font-underline="0" box-height="132" font-outline-color="0,0,0,255" font="Cubano" letter-spacing="0" font-pixel-size="110" font-italic="0" typewriter="0;2;1;0;0" alignment="4" font-weight="50" font-outline="6" box-width="693.813" font-color="255,255,255,255">omnipotence&lt;/content>
 &lt;/item>
 &lt;startviewport rect="0,0,1080,1920"/>
 &lt;endviewport rect="0,0,1080,1920"/>
 &lt;background color="0,0,0,0"/>
&lt;/kdenlivetitle>
</property>
  <property name="kdenlive:folderid">29</property>
  <property name="kdenlive:id">94</property>
  <property name="kdenlive:clip_type">2</property>
  <property name="force_reload">0</property>
  <property name="meta.media.width">1080</property>
  <property name="meta.media.height">1920</property>
 </producer>
 <producer id="producer71" in="00:00:00.000" out="00:00:04.960">
  <property name="length">125</property>
  <property name="eof">pause</property>
  <property name="progressive">1</property>
  <property name="aspect_ratio">1</property>
  <property name="seekable">1</property>
  <property name="mlt_service">kdenlivetitle</property>
  <property name="kdenlive:duration">00:00:05:00</property>
  <property name="kdenlive:clipname">in controlli...</property>
  <property name="xmldata">&lt;kdenlivetitle duration="125" LC_NUMERIC="C" width="1080" height="1920" out="124">
 &lt;item type="QGraphicsTextItem" z-index="0">
  &lt;position x="138" y="1095">
   &lt;transform>1,0,0,0,1,0,0,0,1&lt;/transform>
  &lt;/position>
  &lt;content line-spacing="0" shadow="0;#64000000;3;3;3" font-underline="0" box-height="132" font-outline-color="0,0,0,255" font="Cubano" letter-spacing="0" font-pixel-size="110" font-italic="0" typewriter="0;2;1;0;0" alignment="4" font-weight="50" font-outline="6" box-width="798.375" font-color="255,255,255,255">in controlling&lt;/content>
 &lt;/item>
 &lt;startviewport rect="0,0,1080,1920"/>
 &lt;endviewport rect="0,0,1080,1920"/>
 &lt;background color="0,0,0,0"/>
&lt;/kdenlivetitle>
</property>
  <property name="kdenlive:folderid">29</property>
  <property name="kdenlive:id">95</property>
  <property name="kdenlive:clip_type">2</property>
  <property name="force_reload">0</property>
  <property name="meta.media.width">1080</property>
  <property name="meta.media.height">1920</property>
 </producer>
 <producer id="producer72" in="00:00:00.000" out="00:00:04.960">
  <property name="length">125</property>
  <property name="eof">pause</property>
  <property name="progressive">1</property>
  <property name="aspect_ratio">1</property>
  <property name="seekable">1</property>
  <property name="mlt_service">kdenlivetitle</property>
  <property name="kdenlive:duration">00:00:05:00</property>
  <property name="kdenlive:clipname">the private ...</property>
  <property name="xmldata">&lt;kdenlivetitle duration="125" LC_NUMERIC="C" width="1080" height="1920" out="124">
 &lt;item type="QGraphicsTextItem" z-index="0">
  &lt;position x="69" y="1095">
   &lt;transform>1,0,0,0,1,0,0,0,1&lt;/transform>
  &lt;/position>
  &lt;content line-spacing="0" shadow="0;#64000000;3;3;3" font-underline="0" box-height="132" font-outline-color="0,0,0,255" font="Cubano" letter-spacing="0" font-pixel-size="110" font-italic="0" typewriter="0;2;1;0;0" alignment="4" font-weight="50" font-outline="6" box-width="939.125" font-color="255,255,255,255">the private lives&lt;/content>
 &lt;/item>
 &lt;startviewport rect="0,0,1080,1920"/>
 &lt;endviewport rect="0,0,1080,1920"/>
 &lt;background color="0,0,0,0"/>
&lt;/kdenlivetitle>
</property>
  <property name="kdenlive:folderid">29</property>
  <property name="kdenlive:id">96</property>
  <property name="kdenlive:clip_type">2</property>
  <property name="force_reload">0</property>
  <property name="meta.media.width">1080</property>
  <property name="meta.media.height">1920</property>
 </producer>
 <producer id="producer73" in="00:00:00.000" out="00:00:04.960">
  <property name="length">125</property>
  <property name="eof">pause</property>
  <property name="progressive">1</property>
  <property name="aspect_ratio">1</property>
  <property name="seekable">1</property>
  <property name="mlt_service">kdenlivetitle</property>
  <property name="kdenlive:duration">00:00:05:00</property>
  <property name="kdenlive:clipname">and how</property>
  <property name="xmldata">&lt;kdenlivetitle duration="125" LC_NUMERIC="C" width="1080" height="1920" out="124">
 &lt;item type="QGraphicsTextItem" z-index="0">
  &lt;position x="315" y="1095">
   &lt;transform>1,0,0,0,1,0,0,0,1&lt;/transform>
  &lt;/position>
  &lt;content line-spacing="0" shadow="0;#64000000;3;3;3" font-underline="0" box-height="132" font-outline-color="0,0,0,255" font="Cubano" letter-spacing="0" font-pixel-size="110" font-italic="0" typewriter="0;2;1;0;0" alignment="4" font-weight="50" font-outline="6" box-width="450.609" font-color="255,255,255,255">and how&lt;/content>
 &lt;/item>
 &lt;startviewport rect="0,0,1080,1920"/>
 &lt;endviewport rect="0,0,1080,1920"/>
 &lt;background color="0,0,0,0"/>
&lt;/kdenlivetitle>
</property>
  <property name="kdenlive:folderid">29</property>
  <property name="kdenlive:id">98</property>
  <property name="kdenlive:clip_type">2</property>
  <property name="force_reload">0</property>
  <property name="meta.media.width">1080</property>
  <property name="meta.media.height">1920</property>
 </producer>
 <producer id="producer74" in="00:00:00.000" out="00:00:04.960">
  <property name="length">125</property>
  <property name="eof">pause</property>
  <property name="progressive">1</property>
  <property name="aspect_ratio">1</property>
  <property name="seekable">1</property>
  <property name="mlt_service">kdenlivetitle</property>
  <property name="kdenlive:duration">00:00:05:00</property>
  <property name="kdenlive:clipname">they use</property>
  <property name="xmldata">&lt;kdenlivetitle duration="125" LC_NUMERIC="C" width="1080" height="1920" out="124">
 &lt;item type="QGraphicsTextItem" z-index="0">
  &lt;position x="301" y="1095">
   &lt;transform>1,0,0,0,1,0,0,0,1&lt;/transform>
  &lt;/position>
  &lt;content line-spacing="0" shadow="0;#64000000;3;3;3" font-underline="0" box-height="132" font-outline-color="0,0,0,255" font="Cubano" letter-spacing="0" font-pixel-size="110" font-italic="0" typewriter="0;2;1;0;0" alignment="4" font-weight="50" font-outline="6" box-width="480.516" font-color="255,255,255,255">they use&lt;/content>
 &lt;/item>
 &lt;startviewport rect="0,0,1080,1920"/>
 &lt;endviewport rect="0,0,1080,1920"/>
 &lt;background color="0,0,0,0"/>
&lt;/kdenlivetitle>
</property>
  <property name="kdenlive:folderid">29</property>
  <property name="kdenlive:id">99</property>
  <property name="kdenlive:clip_type">2</property>
  <property name="force_reload">0</property>
  <property name="meta.media.width">1080</property>
  <property name="meta.media.height">1920</property>
 </producer>
 <producer id="producer75" in="00:00:00.000" out="00:00:04.960">
  <property name="length">125</property>
  <property name="eof">pause</property>
  <property name="progressive">1</property>
  <property name="aspect_ratio">1</property>
  <property name="seekable">1</property>
  <property name="mlt_service">kdenlivetitle</property>
  <property name="kdenlive:duration">00:00:05:00</property>
  <property name="kdenlive:clipname">their own</property>
  <property name="xmldata">&lt;kdenlivetitle duration="125" LC_NUMERIC="C" width="1080" height="1920" out="124">
 &lt;item type="QGraphicsTextItem" z-index="0">
  &lt;position x="269" y="1095">
   &lt;transform>1,0,0,0,1,0,0,0,1&lt;/transform>
  &lt;/position>
  &lt;content line-spacing="0" shadow="0;#64000000;3;3;3" font-underline="0" box-height="132" font-outline-color="0,0,0,255" font="Cubano" letter-spacing="0" font-pixel-size="110" font-italic="0" typewriter="0;2;1;0;0" alignment="4" font-weight="50" font-outline="6" box-width="542.875" font-color="255,255,255,255">their own&lt;/content>
 &lt;/item>
 &lt;startviewport rect="0,0,1080,1920"/>
 &lt;endviewport rect="0,0,1080,1920"/>
 &lt;background color="0,0,0,0"/>
&lt;/kdenlivetitle>
</property>
  <property name="kdenlive:folderid">29</property>
  <property name="kdenlive:id">100</property>
  <property name="kdenlive:clip_type">2</property>
  <property name="force_reload">0</property>
  <property name="meta.media.width">1080</property>
  <property name="meta.media.height">1920</property>
 </producer>
 <producer id="producer76" in="00:00:00.000" out="00:00:04.960">
  <property name="length">125</property>
  <property name="eof">pause</property>
  <property name="progressive">1</property>
  <property name="aspect_ratio">1</property>
  <property name="seekable">1</property>
  <property name="mlt_service">kdenlivetitle</property>
  <property name="kdenlive:duration">00:00:05:00</property>
  <property name="kdenlive:clipname">property</property>
  <property name="xmldata">&lt;kdenlivetitle duration="125" LC_NUMERIC="C" width="1080" height="1920" out="124">
 &lt;item type="QGraphicsTextItem" z-index="0">
  &lt;position x="286" y="1095">
   &lt;transform>1,0,0,0,1,0,0,0,1&lt;/transform>
  &lt;/position>
  &lt;content line-spacing="0" shadow="0;#64000000;3;3;3" font-underline="0" box-height="132" font-outline-color="0,0,0,255" font="Cubano" letter-spacing="0" font-pixel-size="110" font-italic="0" typewriter="0;2;1;0;0" alignment="4" font-weight="50" font-outline="6" box-width="508.359" font-color="255,255,255,255">property&lt;/content>
 &lt;/item>
 &lt;startviewport rect="0,0,1080,1920"/>
 &lt;endviewport rect="0,0,1080,1920"/>
 &lt;background color="0,0,0,0"/>
&lt;/kdenlivetitle>
</property>
  <property name="kdenlive:folderid">29</property>
  <property name="kdenlive:id">101</property>
  <property name="kdenlive:clip_type">2</property>
  <property name="force_reload">0</property>
  <property name="meta.media.width">1080</property>
  <property name="meta.media.height">1920</property>
 </producer>
 <producer id="producer77" in="00:00:00.000" out="00:00:17.160">
  <property name="length">430</property>
  <property name="eof">pause</property>
  <property name="resource">1.250000:/home/liquidzulu/Videos/yt/b-roll/Socialism Is When The Government Does Stuff [rgiC8YfytDw].webm</property>
  <property name="aspect_ratio">1</property>
  <property name="meta.media.nb_streams">2</property>
  <property name="meta.media.0.stream.type">video</property>
  <property name="meta.media.0.stream.frame_rate">29.97</property>
  <property name="meta.media.0.stream.sample_aspect_ratio">1</property>
  <property name="meta.media.0.codec.width">1920</property>
  <property name="meta.media.0.codec.height">1080</property>
  <property name="meta.media.0.codec.rotate">0</property>
  <property name="meta.media.0.codec.pix_fmt">yuv420p</property>
  <property name="meta.media.0.codec.sample_aspect_ratio">0</property>
  <property name="meta.media.0.codec.colorspace">709</property>
  <property name="meta.media.0.codec.color_trc">1</property>
  <property name="meta.media.0.codec.name">vp9</property>
  <property name="meta.media.0.codec.long_name">Google VP9</property>
  <property name="meta.media.0.codec.bit_rate">0</property>
  <property name="meta.attr.0.stream.language.markup">eng</property>
  <property name="meta.attr.0.stream.DURATION.markup">00:00:21.454000000</property>
  <property name="meta.media.1.stream.type">audio</property>
  <property name="meta.media.1.codec.sample_fmt">fltp</property>
  <property name="meta.media.1.codec.sample_rate">48000</property>
  <property name="meta.media.1.codec.channels">2</property>
  <property name="meta.media.1.codec.name">opus</property>
  <property name="meta.media.1.codec.long_name">Opus</property>
  <property name="meta.media.1.codec.bit_rate">0</property>
  <property name="meta.attr.1.stream.language.markup">eng</property>
  <property name="meta.attr.1.stream.DURATION.markup">00:00:21.481000000</property>
  <property name="meta.attr.ENCODER.markup">Lavf59.27.100</property>
  <property name="seekable">1</property>
  <property name="meta.media.sample_aspect_num">1</property>
  <property name="meta.media.sample_aspect_den">1</property>
  <property name="format">3</property>
  <property name="audio_index">1</property>
  <property name="video_index">0</property>
  <property name="mute_on_pause">1</property>
  <property name="warp_speed">1.25</property>
  <property name="warp_resource">/home/liquidzulu/Videos/yt/b-roll/Socialism Is When The Government Does Stuff [rgiC8YfytDw].webm</property>
  <property name="mlt_service">timewarp</property>
  <property name="set.test_audio">1</property>
  <property name="set.test_image">0</property>
  <property name="kdenlive:id">5</property>
  <property name="warp_pitch">0</property>
  <property name="meta.media.frame_rate_num">30000</property>
  <property name="meta.media.frame_rate_den">1001</property>
  <property name="meta.media.colorspace">709</property>
  <property name="meta.media.color_trc">1</property>
  <property name="meta.media.has_b_frames">0</property>
  <property name="meta.media.width">1920</property>
  <property name="meta.media.height">1080</property>
  <property name="meta.media.color_range">mpeg</property>
  <property name="meta.media.top_field_first">0</property>
  <property name="meta.media.progressive">1</property>
 </producer>
 <playlist id="playlist24">
  <blank length="00:00:00.720"/>
  <entry producer="producer55" in="00:00:00.000" out="00:00:01.400">
   <property name="kdenlive:id">23</property>
   <filter id="filter142">
    <property name="rotate_center">1</property>
    <property name="mlt_service">qtblend</property>
    <property name="kdenlive_id">qtblend</property>
    <property name="rect">00:00:00.000~=0 1953 1080 1920 1.000000;00:00:00.240~=0 -40 1080 1920 1.000000;00:00:00.360~=0 0 1080 1920 1.000000</property>
    <property name="rotation">00:00:00.000~=0;00:00:00.240~=0;00:00:00.360~=0</property>
    <property name="compositing">0</property>
    <property name="distort">0</property>
    <property name="kdenlive:collapsed">0</property>
   </filter>
  </entry>
  <blank length="00:00:16.520"/>
  <entry producer="producer56" in="00:00:00.000" out="00:00:01.000">
   <property name="kdenlive:id">58</property>
   <property name="kdenlive:activeeffect">1</property>
   <filter id="filter143">
    <property name="rotate_center">1</property>
    <property name="mlt_service">qtblend</property>
    <property name="kdenlive_id">qtblend</property>
    <property name="rect">00:00:00.000=245 293 589 1048 1.000000;00:00:00.040=245 574 589 1048 1.000000;00:00:00.080=245 301 589 1048 1.000000;00:00:00.120=245 499 589 1048 1.000000;00:00:00.160=245 404 589 1048 1.000000;00:00:00.240=245 446 589 1048 1.000000</property>
    <property name="rotation">00:00:00.000=0;00:00:00.040=0;00:00:00.080=0;00:00:00.120=0;00:00:00.160=0;00:00:00.240=0</property>
    <property name="compositing">0</property>
    <property name="distort">0</property>
    <property name="kdenlive:collapsed">1</property>
   </filter>
   <filter id="filter144">
    <property name="hradius">00:00:00.000=0;00:00:00.200=0</property>
    <property name="vradius">00:00:00.000=235;00:00:00.200=0</property>
    <property name="mlt_service">box_blur</property>
    <property name="kdenlive_id">box_blur</property>
    <property name="kdenlive:collapsed">0</property>
   </filter>
   <filter id="filter145" out="00:00:00.080">
    <property name="start">1</property>
    <property name="level">1</property>
    <property name="mlt_service">brightness</property>
    <property name="kdenlive_id">fade_from_black</property>
    <property name="alpha">00:00:00.000=0;00:00:00.080=1</property>
   </filter>
  </entry>
  <blank length="00:00:10.720"/>
  <entry producer="producer68" in="00:00:00.000" out="00:00:00.440">
   <property name="kdenlive:id">92</property>
   <filter id="filter146">
    <property name="rotate_center">1</property>
    <property name="mlt_service">qtblend</property>
    <property name="kdenlive_id">qtblend</property>
    <property name="rect">0=27 57 1026 1824 1.000000;1=-54 -115 1188 2112 1.000000;2=0 0 1080 1920 1.000000</property>
    <property name="rotation">0=0;1=0;2=0</property>
    <property name="compositing">0</property>
    <property name="distort">0</property>
   </filter>
  </entry>
  <entry producer="producer69" in="00:00:00.000" out="00:00:00.240">
   <property name="kdenlive:id">93</property>
   <filter id="filter147">
    <property name="rotate_center">1</property>
    <property name="mlt_service">qtblend</property>
    <property name="kdenlive_id">qtblend</property>
    <property name="rect">0=27 57 1026 1824 1.000000;1=-54 -115 1188 2112 1.000000;2=0 0 1080 1920 1.000000</property>
    <property name="rotation">0=0;1=0;2=0</property>
    <property name="compositing">0</property>
    <property name="distort">0</property>
   </filter>
  </entry>
  <entry producer="producer70" in="00:00:00.000" out="00:00:00.640">
   <property name="kdenlive:id">94</property>
   <filter id="filter148">
    <property name="rotate_center">1</property>
    <property name="mlt_service">qtblend</property>
    <property name="kdenlive_id">qtblend</property>
    <property name="rect">0=27 57 1026 1824 1.000000;1=-54 -115 1188 2112 1.000000;2=0 0 1080 1920 1.000000</property>
    <property name="rotation">0=0;1=0;2=0</property>
    <property name="compositing">0</property>
    <property name="distort">0</property>
   </filter>
  </entry>
  <entry producer="producer71" in="00:00:00.000" out="00:00:00.520">
   <property name="kdenlive:id">95</property>
   <filter id="filter149">
    <property name="rotate_center">1</property>
    <property name="mlt_service">qtblend</property>
    <property name="kdenlive_id">qtblend</property>
    <property name="rect">0=27 57 1026 1824 1.000000;1=-54 -115 1188 2112 1.000000;2=0 0 1080 1920 1.000000</property>
    <property name="rotation">0=0;1=0;2=0</property>
    <property name="compositing">0</property>
    <property name="distort">0</property>
   </filter>
  </entry>
  <entry producer="producer72" in="00:00:00.000" out="00:00:00.600">
   <property name="kdenlive:id">96</property>
   <filter id="filter150">
    <property name="rotate_center">1</property>
    <property name="mlt_service">qtblend</property>
    <property name="kdenlive_id">qtblend</property>
    <property name="rect">0=27 57 1026 1824 1.000000;1=-54 -115 1188 2112 1.000000;2=0 0 1080 1920 1.000000</property>
    <property name="rotation">0=0;1=0;2=0</property>
    <property name="compositing">0</property>
    <property name="distort">0</property>
   </filter>
  </entry>
  <entry producer="producer18" in="00:00:00.000" out="00:00:00.240">
   <property name="kdenlive:id">68</property>
   <filter id="filter151">
    <property name="rotate_center">1</property>
    <property name="mlt_service">qtblend</property>
    <property name="kdenlive_id">qtblend</property>
    <property name="rect">0=27 57 1026 1824 1.000000;1=-54 -115 1188 2112 1.000000;2=0 0 1080 1920 1.000000</property>
    <property name="rotation">0=0;1=0;2=0</property>
    <property name="compositing">0</property>
    <property name="distort">0</property>
   </filter>
  </entry>
  <entry producer="producer73" in="00:00:00.000" out="00:00:00.280">
   <property name="kdenlive:id">98</property>
   <filter id="filter152">
    <property name="rotate_center">1</property>
    <property name="mlt_service">qtblend</property>
    <property name="kdenlive_id">qtblend</property>
    <property name="rect">0=27 57 1026 1824 1.000000;1=-54 -115 1188 2112 1.000000;2=0 0 1080 1920 1.000000</property>
    <property name="rotation">0=0;1=0;2=0</property>
    <property name="compositing">0</property>
    <property name="distort">0</property>
   </filter>
  </entry>
  <entry producer="producer74" in="00:00:00.000" out="00:00:00.360">
   <property name="kdenlive:id">99</property>
   <filter id="filter153">
    <property name="rotate_center">1</property>
    <property name="mlt_service">qtblend</property>
    <property name="kdenlive_id">qtblend</property>
    <property name="rect">0=27 57 1026 1824 1.000000;1=-54 -115 1188 2112 1.000000;2=0 0 1080 1920 1.000000</property>
    <property name="rotation">0=0;1=0;2=0</property>
    <property name="compositing">0</property>
    <property name="distort">0</property>
   </filter>
  </entry>
  <entry producer="producer75" in="00:00:00.000" out="00:00:00.360">
   <property name="kdenlive:id">100</property>
   <filter id="filter154">
    <property name="rotate_center">1</property>
    <property name="mlt_service">qtblend</property>
    <property name="kdenlive_id">qtblend</property>
    <property name="rect">0=27 57 1026 1824 1.000000;1=-54 -115 1188 2112 1.000000;2=0 0 1080 1920 1.000000</property>
    <property name="rotation">0=0;1=0;2=0</property>
    <property name="compositing">0</property>
    <property name="distort">0</property>
   </filter>
  </entry>
  <entry producer="producer76" in="00:00:00.000" out="00:00:00.560">
   <property name="kdenlive:id">101</property>
   <filter id="filter155">
    <property name="rotate_center">1</property>
    <property name="mlt_service">qtblend</property>
    <property name="kdenlive_id">qtblend</property>
    <property name="rect">0=27 57 1026 1824 1.000000;1=-54 -115 1188 2112 1.000000;2=0 0 1080 1920 1.000000</property>
    <property name="rotation">0=0;1=0;2=0</property>
    <property name="compositing">0</property>
    <property name="distort">0</property>
   </filter>
  </entry>
  <blank length="00:00:00.320"/>
  <entry producer="producer77" in="00:00:00.000" out="00:00:00.200">
   <property name="kdenlive:id">5</property>
   <filter id="filter156">
    <property name="rotate_center">1</property>
    <property name="mlt_service">qtblend</property>
    <property name="kdenlive_id">qtblend</property>
    <property name="rect">00:00:00.000=-1161 -9 3402 6048 1.000000;00:00:00.120=-1161 -2133 3402 6048 1.000000;00:00:00.200=-1161 -2064 3402 6048 1.000000</property>
    <property name="rotation">00:00:00.000=0;00:00:00.120=0;00:00:00.200=0</property>
    <property name="compositing">0</property>
    <property name="distort">0</property>
    <property name="kdenlive:collapsed">0</property>
   </filter>
  </entry>
 </playlist>
 <playlist id="playlist25"/>
 <tractor id="tractor12" in="00:00:00.000" out="00:00:35.600">
  <property name="kdenlive:trackheight">67</property>
  <property name="kdenlive:timeline_active">1</property>
  <property name="kdenlive:collapsed">28</property>
  <property name="kdenlive:thumbs_format"/>
  <property name="kdenlive:audio_rec"/>
  <track hide="audio" producer="playlist24"/>
  <track hide="audio" producer="playlist25"/>
 </tractor>
 <producer id="producer78" in="00:00:00.000" out="00:00:04.960">
  <property name="length">125</property>
  <property name="eof">pause</property>
  <property name="progressive">1</property>
  <property name="aspect_ratio">1</property>
  <property name="seekable">1</property>
  <property name="mlt_service">kdenlivetitle</property>
  <property name="kdenlive:duration">00:00:05:00</property>
  <property name="kdenlive:clipname">and that is ...</property>
  <property name="xmldata">&lt;kdenlivetitle duration="125" LC_NUMERIC="C" width="1080" height="1920" out="124">
 &lt;item type="QGraphicsTextItem" z-index="0">
  &lt;position x="106" y="1095">
   &lt;transform>1,0,0,0,1,0,0,0,1&lt;/transform>
  &lt;/position>
  &lt;content line-spacing="0" shadow="0;#64000000;3;3;3" font-underline="0" box-height="132" font-outline-color="0,0,0,255" font="Cubano" letter-spacing="0" font-pixel-size="110" font-italic="0" typewriter="0;2;1;0;0" alignment="4" font-weight="50" font-outline="6" box-width="869.063" font-color="255,255,255,255">and that is why&lt;/content>
 &lt;/item>
 &lt;startviewport rect="0,0,1080,1920"/>
 &lt;endviewport rect="0,0,1080,1920"/>
 &lt;background color="0,0,0,0"/>
&lt;/kdenlivetitle>
</property>
  <property name="kdenlive:folderid">29</property>
  <property name="kdenlive:id">102</property>
  <property name="kdenlive:clip_type">2</property>
  <property name="force_reload">0</property>
  <property name="meta.media.width">1080</property>
  <property name="meta.media.height">1920</property>
 </producer>
 <playlist id="playlist26">
  <blank length="00:00:01.200"/>
  <entry producer="producer57" in="00:00:00.000" out="00:00:00.920">
   <property name="kdenlive:id">24</property>
   <filter id="filter157">
    <property name="rotate_center">1</property>
    <property name="mlt_service">qtblend</property>
    <property name="kdenlive_id">qtblend</property>
    <property name="rect">00:00:00.000=190 1354 216 384 1.000000;00:00:00.120=-16 -167 1188 2112 1.000000;00:00:00.200=0 0 1080 1920 1.000000</property>
    <property name="rotation">00:00:00.000=0;00:00:00.120=0;00:00:00.200=0</property>
    <property name="compositing">0</property>
    <property name="distort">0</property>
    <property name="kdenlive:collapsed">0</property>
   </filter>
  </entry>
  <blank length="00:00:16.520"/>
  <entry producer="producer58" in="00:00:00.000" out="00:00:01.000">
   <property name="kdenlive:id">59</property>
   <property name="kdenlive:activeeffect">1</property>
   <filter id="filter158">
    <property name="rotate_center">1</property>
    <property name="mlt_service">qtblend</property>
    <property name="kdenlive_id">qtblend</property>
    <property name="rect">00:00:00.000=245 864 589 1048 1.000000;00:00:00.040=245 1160 589 1048 1.000000;00:00:00.080=245 973 589 1048 1.000000;00:00:00.120=245 1077 589 1048 1.000000;00:00:00.160=245 1000 589 1048 1.000000;00:00:00.240=245 1032 589 1048 1.000000</property>
    <property name="rotation">00:00:00.000=0;00:00:00.040=0;00:00:00.080=0;00:00:00.120=0;00:00:00.160=0;00:00:00.240=0</property>
    <property name="compositing">0</property>
    <property name="distort">0</property>
    <property name="kdenlive:collapsed">1</property>
   </filter>
   <filter id="filter159">
    <property name="hradius">00:00:00.000=0;00:00:00.200=0</property>
    <property name="vradius">00:00:00.000=235;00:00:00.200=0</property>
    <property name="mlt_service">box_blur</property>
    <property name="kdenlive_id">box_blur</property>
    <property name="kdenlive:collapsed">0</property>
   </filter>
   <filter id="filter160" out="00:00:00.080">
    <property name="start">1</property>
    <property name="level">1</property>
    <property name="mlt_service">brightness</property>
    <property name="kdenlive_id">fade_from_black</property>
    <property name="alpha">00:00:00.000=0;00:00:00.080=1</property>
   </filter>
  </entry>
  <blank length="00:00:15.360"/>
  <entry producer="producer78" in="00:00:00.000" out="00:00:00.520">
   <property name="kdenlive:id">102</property>
   <filter id="filter161">
    <property name="rotate_center">1</property>
    <property name="mlt_service">qtblend</property>
    <property name="kdenlive_id">qtblend</property>
    <property name="rect">0=27 57 1026 1824 1.000000;1=-54 -115 1188 2112 1.000000;2=0 0 1080 1920 1.000000</property>
    <property name="rotation">0=0;1=0;2=0</property>
    <property name="compositing">0</property>
    <property name="distort">0</property>
   </filter>
  </entry>
 </playlist>
 <playlist id="playlist27"/>
 <tractor id="tractor13" in="00:00:00.000" out="00:00:35.600">
  <property name="kdenlive:trackheight">67</property>
  <property name="kdenlive:timeline_active">1</property>
  <property name="kdenlive:collapsed">28</property>
  <property name="kdenlive:thumbs_format"/>
  <property name="kdenlive:audio_rec"/>
  <track hide="audio" producer="playlist26"/>
  <track hide="audio" producer="playlist27"/>
 </tractor>
 <chain id="chain37" out="00:00:15.000">
  <property name="length">376</property>
  <property name="eof">pause</property>
  <property name="resource">/home/liquidzulu/Videos/yt/b-roll/Stock Market Background Video [AFicYbv-mzg].webm</property>
  <property name="mlt_service">avformat-novalidate</property>
  <property name="seekable">1</property>
  <property name="format">3</property>
  <property name="audio_index">-1</property>
  <property name="video_index">0</property>
  <property name="kdenlive:clipname"/>
  <property name="kdenlive:clip_type">0</property>
  <property name="kdenlive:folderid">-1</property>
  <property name="kdenlive:id">60</property>
  <property name="kdenlive:file_size">3002458</property>
  <property name="kdenlive:file_hash">013cb9c91c6f934c9d6438cb46d69194</property>
  <property name="kdenlive:audio_max1">1</property>
  <property name="kdenlive:active_streams">-1</property>
  <property name="set.test_audio">1</property>
  <property name="meta.media.nb_streams">2</property>
  <property name="meta.media.0.stream.type">video</property>
  <property name="meta.media.0.stream.frame_rate">29.97</property>
  <property name="meta.media.0.stream.sample_aspect_ratio">1</property>
  <property name="meta.media.0.codec.width">1920</property>
  <property name="meta.media.0.codec.height">1080</property>
  <property name="meta.media.0.codec.rotate">0</property>
  <property name="meta.media.0.codec.pix_fmt">yuv420p</property>
  <property name="meta.media.0.codec.sample_aspect_ratio">0</property>
  <property name="meta.media.0.codec.colorspace">709</property>
  <property name="meta.media.0.codec.color_trc">1</property>
  <property name="meta.media.0.codec.name">vp9</property>
  <property name="meta.media.0.codec.long_name">Google VP9</property>
  <property name="meta.media.0.codec.bit_rate">0</property>
  <property name="meta.attr.0.stream.language.markup">eng</property>
  <property name="meta.attr.0.stream.DURATION.markup">00:00:15.015000000</property>
  <property name="meta.media.1.stream.type">audio</property>
  <property name="meta.media.1.codec.sample_fmt">fltp</property>
  <property name="meta.media.1.codec.sample_rate">48000</property>
  <property name="meta.media.1.codec.channels">2</property>
  <property name="meta.media.1.codec.name">opus</property>
  <property name="meta.media.1.codec.long_name">Opus</property>
  <property name="meta.media.1.codec.bit_rate">0</property>
  <property name="meta.attr.1.stream.language.markup">eng</property>
  <property name="meta.attr.1.stream.DURATION.markup">00:00:15.041000000</property>
  <property name="meta.attr.ENCODER.markup">Lavf59.27.100</property>
  <property name="meta.media.sample_aspect_num">1</property>
  <property name="meta.media.sample_aspect_den">1</property>
  <property name="meta.media.frame_rate_num">30000</property>
  <property name="meta.media.frame_rate_den">1001</property>
  <property name="meta.media.colorspace">709</property>
  <property name="meta.media.color_trc">1</property>
  <property name="meta.media.has_b_frames">0</property>
  <property name="meta.media.width">1920</property>
  <property name="meta.media.height">1080</property>
  <property name="meta.media.color_range">mpeg</property>
  <property name="xml">was here</property>
  <property name="meta.media.top_field_first">0</property>
  <property name="meta.media.progressive">1</property>
  <property name="set.test_image">0</property>
  <property name="mute_on_pause">1</property>
 </chain>
 <playlist id="playlist28">
  <blank length="00:00:01.440"/>
  <entry producer="producer59" in="00:00:00.000" out="00:00:00.680">
   <property name="kdenlive:id">25</property>
   <filter id="filter162">
    <property name="rotate_center">1</property>
    <property name="mlt_service">qtblend</property>
    <property name="kdenlive_id">qtblend</property>
    <property name="rect">00:00:00.000=635 1346 220 391 1.000000;00:00:00.120=-86 -171 1188 2112 1.000000;00:00:00.200=0 0 1080 1920 1.000000</property>
    <property name="rotation">00:00:00.000=0;00:00:00.120=0;00:00:00.200=0</property>
    <property name="compositing">0</property>
    <property name="distort">0</property>
    <property name="kdenlive:collapsed">0</property>
   </filter>
  </entry>
  <blank length="00:00:17.360"/>
  <entry producer="chain37" in="00:00:00.000" out="00:00:00.200">
   <property name="kdenlive:id">60</property>
   <filter id="filter163">
    <property name="rotate_center">1</property>
    <property name="mlt_service">qtblend</property>
    <property name="kdenlive_id">qtblend</property>
    <property name="rect">00:00:00.000=-1170 -168 3438 6112 1.000000;00:00:00.120=-1170 -2229 3438 6112 1.000000;00:00:00.200=-1170 -2089 3438 6112 1.000000</property>
    <property name="rotation">00:00:00.000=0;00:00:00.120=0;00:00:00.200=0</property>
    <property name="compositing">0</property>
    <property name="distort">0</property>
    <property name="kdenlive:collapsed">0</property>
   </filter>
  </entry>
 </playlist>
 <playlist id="playlist29"/>
 <tractor id="tractor14" in="00:00:00.000" out="00:00:19.720">
  <property name="kdenlive:trackheight">67</property>
  <property name="kdenlive:timeline_active">1</property>
  <property name="kdenlive:collapsed">0</property>
  <property name="kdenlive:thumbs_format"/>
  <property name="kdenlive:audio_rec"/>
  <track hide="audio" producer="playlist28"/>
  <track hide="audio" producer="playlist29"/>
 </tractor>
 <chain id="chain38" out="00:02:49.400">
  <property name="length">4236</property>
  <property name="eof">pause</property>
  <property name="resource">/home/liquidzulu/Videos/yt/b-roll/WASHINGTON DC in 4K ｜ The United States Capitol [c5yvBK5SDWI].webm</property>
  <property name="mlt_service">avformat-novalidate</property>
  <property name="seekable">1</property>
  <property name="format">3</property>
  <property name="audio_index">-1</property>
  <property name="video_index">0</property>
  <property name="kdenlive:clipname"/>
  <property name="kdenlive:clip_type">0</property>
  <property name="kdenlive:folderid">10</property>
  <property name="kdenlive:id">13</property>
  <property name="kdenlive:file_size">313684073</property>
  <property name="kdenlive:file_hash">e5174fa77f2c16f61d02977ad7e420b5</property>
  <property name="kdenlive:audio_max1">211</property>
  <property name="kdenlive:active_streams">-1</property>
  <property name="set.test_audio">1</property>
  <property name="meta.media.nb_streams">2</property>
  <property name="meta.media.0.stream.type">video</property>
  <property name="meta.media.0.stream.frame_rate">23.976</property>
  <property name="meta.media.0.stream.sample_aspect_ratio">1</property>
  <property name="meta.media.0.codec.width">3840</property>
  <property name="meta.media.0.codec.height">2160</property>
  <property name="meta.media.0.codec.rotate">0</property>
  <property name="meta.media.0.codec.pix_fmt">yuv420p</property>
  <property name="meta.media.0.codec.sample_aspect_ratio">0</property>
  <property name="meta.media.0.codec.colorspace">709</property>
  <property name="meta.media.0.codec.color_trc">1</property>
  <property name="meta.media.0.codec.name">vp9</property>
  <property name="meta.media.0.codec.long_name">Google VP9</property>
  <property name="meta.media.0.codec.bit_rate">0</property>
  <property name="meta.attr.0.stream.language.markup">eng</property>
  <property name="meta.attr.0.stream.DURATION.markup">00:02:49.419000000</property>
  <property name="meta.media.1.stream.type">audio</property>
  <property name="meta.media.1.codec.sample_fmt">fltp</property>
  <property name="meta.media.1.codec.sample_rate">48000</property>
  <property name="meta.media.1.codec.channels">2</property>
  <property name="meta.media.1.codec.name">opus</property>
  <property name="meta.media.1.codec.long_name">Opus</property>
  <property name="meta.media.1.codec.bit_rate">0</property>
  <property name="meta.attr.1.stream.language.markup">eng</property>
  <property name="meta.attr.1.stream.DURATION.markup">00:02:49.441000000</property>
  <property name="meta.attr.ENCODER.markup">Lavf59.27.100</property>
  <property name="meta.media.sample_aspect_num">1</property>
  <property name="meta.media.sample_aspect_den">1</property>
  <property name="meta.media.frame_rate_num">24000</property>
  <property name="meta.media.frame_rate_den">1001</property>
  <property name="meta.media.colorspace">709</property>
  <property name="meta.media.color_trc">1</property>
  <property name="meta.media.has_b_frames">0</property>
  <property name="meta.media.width">3840</property>
  <property name="meta.media.height">2160</property>
  <property name="meta.media.color_range">mpeg</property>
  <property name="xml">was here</property>
  <property name="meta.media.top_field_first">0</property>
  <property name="meta.media.progressive">1</property>
  <property name="set.test_image">0</property>
  <property name="mute_on_pause">1</property>
 </chain>
 <playlist id="playlist30">
  <blank length="00:00:01.920"/>
  <entry producer="chain38" in="00:00:14.720" out="00:00:14.920">
   <property name="kdenlive:id">13</property>
   <filter id="filter164">
    <property name="rotate_center">1</property>
    <property name="mlt_service">qtblend</property>
    <property name="kdenlive_id">qtblend</property>
    <property name="rect">00:00:14.720~=-1133 -198 3609 6416 1.000000;00:00:14.920~=-1133 -2312 3609 6416 1.000000;00:00:15.000~=-1133 -2247 3609 6416 1.000000</property>
    <property name="rotation">00:00:14.720~=0;00:00:14.920~=0;00:00:15.000~=0</property>
    <property name="compositing">0</property>
    <property name="distort">0</property>
    <property name="kdenlive:collapsed">0</property>
   </filter>
  </entry>
  <blank length="00:00:17.360"/>
  <entry producer="producer60" in="00:00:00.000" out="00:00:00.360">
   <property name="kdenlive:id">61</property>
   <filter id="filter165">
    <property name="rotate_center">1</property>
    <property name="mlt_service">qtblend</property>
    <property name="kdenlive_id">qtblend</property>
    <property name="rect">0=27 57 1026 1824 1.000000;1=-54 -115 1188 2112 1.000000;2=0 0 1080 1920 1.000000</property>
    <property name="rotation">0=0;1=0;2=0</property>
    <property name="compositing">0</property>
    <property name="distort">0</property>
   </filter>
  </entry>
 </playlist>
 <playlist id="playlist31"/>
 <tractor id="tractor15" in="00:00:00.000" out="00:00:19.880">
  <property name="kdenlive:trackheight">67</property>
  <property name="kdenlive:timeline_active">1</property>
  <property name="kdenlive:collapsed">0</property>
  <property name="kdenlive:thumbs_format"/>
  <property name="kdenlive:audio_rec"/>
  <track hide="audio" producer="playlist30"/>
  <track hide="audio" producer="playlist31"/>
 </tractor>
 <playlist id="playlist32">
  <blank length="00:00:02.080"/>
  <entry producer="producer61" in="00:00:00.000" out="00:00:00.360">
   <property name="kdenlive:id">26</property>
   <filter id="filter166">
    <property name="rotate_center">1</property>
    <property name="mlt_service">qtblend</property>
    <property name="kdenlive_id">qtblend</property>
    <property name="rect">00:00:00.000=27 57 1026 1824 1.000000;00:00:00.040=-54 -115 1188 2112 1.000000;00:00:00.080=0 0 1080 1920 1.000000</property>
    <property name="rotation">00:00:00.000=0;00:00:00.040=0;00:00:00.080=0</property>
    <property name="compositing">0</property>
    <property name="distort">0</property>
    <property name="kdenlive:collapsed">0</property>
   </filter>
  </entry>
 </playlist>
 <playlist id="playlist33"/>
 <tractor id="tractor16" in="00:00:00.000" out="00:00:02.440">
  <property name="kdenlive:trackheight">67</property>
  <property name="kdenlive:timeline_active">1</property>
  <property name="kdenlive:collapsed">0</property>
  <property name="kdenlive:thumbs_format"/>
  <property name="kdenlive:audio_rec"/>
  <track hide="audio" producer="playlist32"/>
  <track hide="audio" producer="playlist33"/>
 </tractor>
 <playlist id="playlist34"/>
 <playlist id="playlist35"/>
 <tractor id="tractor17" in="00:00:00.000">
  <property name="kdenlive:trackheight">67</property>
  <property name="kdenlive:timeline_active">1</property>
  <track producer="playlist34"/>
  <track producer="playlist35"/>
 </tractor>
 <tractor id="tractor18" in="00:00:00.000" out="00:20:35.640">
  <property name="kdenlive:duration">00:00:35:16</property>
  <property name="kdenlive:maxduration">891</property>
  <property name="kdenlive:clipname">Sequence 1</property>
  <property name="kdenlive:description"/>
  <property name="kdenlive:uuid">{87dfca1f-7cf0-4eee-bf07-d194ff7dc11e}</property>
  <property name="kdenlive:producer_type">17</property>
  <property name="kdenlive:id">3</property>
  <property name="kdenlive:clip_type">0</property>
  <property name="kdenlive:file_hash">29ff12df1ee1a379bfa5c89930c87ce0</property>
  <property name="kdenlive:folderid">2</property>
  <property name="kdenlive:sequenceproperties.activeTrack">11</property>
  <property name="kdenlive:sequenceproperties.audioChannels">2</property>
  <property name="kdenlive:sequenceproperties.audioTarget">1</property>
  <property name="kdenlive:sequenceproperties.disablepreview">0</property>
  <property name="kdenlive:sequenceproperties.documentuuid">{87dfca1f-7cf0-4eee-bf07-d194ff7dc11e}</property>
  <property name="kdenlive:sequenceproperties.hasAudio">1</property>
  <property name="kdenlive:sequenceproperties.hasVideo">1</property>
  <property name="kdenlive:sequenceproperties.position">424</property>
  <property name="kdenlive:sequenceproperties.scrollPos">2299</property>
  <property name="kdenlive:sequenceproperties.tracks">4</property>
  <property name="kdenlive:sequenceproperties.tracksCount">18</property>
  <property name="kdenlive:sequenceproperties.verticalzoom">1</property>
  <property name="kdenlive:sequenceproperties.videoTarget">2</property>
  <property name="kdenlive:sequenceproperties.zonein">236</property>
  <property name="kdenlive:sequenceproperties.zoneout">345</property>
  <property name="kdenlive:sequenceproperties.zoom">3</property>
  <property name="kdenlive:sequenceproperties.groups">[
    {
        "children": [
            {
                "data": "8:757",
                "leaf": "clip",
                "type": "Leaf"
            },
            {
                "data": "9:769",
                "leaf": "clip",
                "type": "Leaf"
            },
            {
                "data": "10:763",
                "leaf": "clip",
                "type": "Leaf"
            },
            {
                "data": "11:757",
                "leaf": "clip",
                "type": "Leaf"
            }
        ],
        "type": "Normal"
    }
]
</property>
  <property name="kdenlive:sequenceproperties.guides">[
]
</property>
  <track producer="producer0"/>
  <track producer="tractor0"/>
  <track producer="tractor1"/>
  <track producer="tractor2"/>
  <track producer="tractor3"/>
  <track producer="tractor4"/>
  <track producer="tractor5"/>
  <track producer="tractor6"/>
  <track producer="tractor7"/>
  <track producer="tractor8"/>
  <track producer="tractor9"/>
  <track producer="tractor10"/>
  <track producer="tractor11"/>
  <track producer="tractor12"/>
  <track producer="tractor13"/>
  <track producer="tractor14"/>
  <track producer="tractor15"/>
  <track producer="tractor16"/>
  <track producer="tractor17"/>
  <transition id="transition0">
   <property name="a_track">0</property>
   <property name="b_track">1</property>
   <property name="mlt_service">mix</property>
   <property name="kdenlive_id">mix</property>
   <property name="internal_added">237</property>
   <property name="always_active">1</property>
   <property name="accepts_blanks">1</property>
   <property name="sum">1</property>
  </transition>
  <transition id="transition1">
   <property name="a_track">0</property>
   <property name="b_track">2</property>
   <property name="mlt_service">mix</property>
   <property name="kdenlive_id">mix</property>
   <property name="internal_added">237</property>
   <property name="always_active">1</property>
   <property name="accepts_blanks">1</property>
   <property name="sum">1</property>
  </transition>
  <transition id="transition2">
   <property name="a_track">0</property>
   <property name="b_track">3</property>
   <property name="mlt_service">mix</property>
   <property name="kdenlive_id">mix</property>
   <property name="internal_added">237</property>
   <property name="always_active">1</property>
   <property name="accepts_blanks">1</property>
   <property name="sum">1</property>
  </transition>
  <transition id="transition3">
   <property name="a_track">0</property>
   <property name="b_track">4</property>
   <property name="mlt_service">mix</property>
   <property name="kdenlive_id">mix</property>
   <property name="internal_added">237</property>
   <property name="always_active">1</property>
   <property name="accepts_blanks">1</property>
   <property name="sum">1</property>
  </transition>
  <transition id="transition4">
   <property name="a_track">0</property>
   <property name="b_track">5</property>
   <property name="mlt_service">mix</property>
   <property name="kdenlive_id">mix</property>
   <property name="internal_added">237</property>
   <property name="always_active">1</property>
   <property name="accepts_blanks">1</property>
   <property name="sum">1</property>
  </transition>
  <transition id="transition5">
   <property name="a_track">0</property>
   <property name="b_track">6</property>
   <property name="mlt_service">mix</property>
   <property name="kdenlive_id">mix</property>
   <property name="internal_added">237</property>
   <property name="always_active">1</property>
   <property name="accepts_blanks">1</property>
   <property name="sum">1</property>
  </transition>
  <transition id="transition6">
   <property name="a_track">0</property>
   <property name="b_track">7</property>
   <property name="version">0.1</property>
   <property name="mlt_service">frei0r.cairoblend</property>
   <property name="kdenlive_id">frei0r.cairoblend</property>
   <property name="internal_added">237</property>
   <property name="always_active">1</property>
   <properties name="ctor-0x7fcf3d6286c0"/>
  </transition>
  <transition id="transition7">
   <property name="a_track">0</property>
   <property name="b_track">8</property>
   <property name="version">0.1</property>
   <property name="mlt_service">frei0r.cairoblend</property>
   <property name="kdenlive_id">frei0r.cairoblend</property>
   <property name="internal_added">237</property>
   <property name="always_active">1</property>
   <properties name="ctor-0x7fcf3d6286c0"/>
  </transition>
  <transition id="transition8">
   <property name="a_track">0</property>
   <property name="b_track">9</property>
   <property name="version">0.1</property>
   <property name="mlt_service">frei0r.cairoblend</property>
   <property name="kdenlive_id">frei0r.cairoblend</property>
   <property name="internal_added">237</property>
   <property name="always_active">1</property>
   <properties name="ctor-0x7fcf3d6286c0"/>
  </transition>
  <transition id="transition9">
   <property name="a_track">0</property>
   <property name="b_track">10</property>
   <property name="version">0.1</property>
   <property name="mlt_service">frei0r.cairoblend</property>
   <property name="kdenlive_id">frei0r.cairoblend</property>
   <property name="internal_added">237</property>
   <property name="always_active">1</property>
   <properties name="ctor-0x7fcf3d6286c0"/>
  </transition>
  <transition id="transition10">
   <property name="a_track">0</property>
   <property name="b_track">11</property>
   <property name="version">0.1</property>
   <property name="mlt_service">frei0r.cairoblend</property>
   <property name="kdenlive_id">frei0r.cairoblend</property>
   <property name="internal_added">237</property>
   <property name="always_active">1</property>
   <properties name="ctor-0x7fcf3d6286c0"/>
  </transition>
  <transition id="transition11">
   <property name="a_track">0</property>
   <property name="b_track">12</property>
   <property name="version">0.1</property>
   <property name="mlt_service">frei0r.cairoblend</property>
   <property name="kdenlive_id">frei0r.cairoblend</property>
   <property name="internal_added">237</property>
   <property name="always_active">1</property>
   <properties name="ctor-0x7fcf3d6286c0"/>
  </transition>
  <transition id="transition12">
   <property name="a_track">0</property>
   <property name="b_track">13</property>
   <property name="version">0.1</property>
   <property name="mlt_service">frei0r.cairoblend</property>
   <property name="kdenlive_id">frei0r.cairoblend</property>
   <property name="internal_added">237</property>
   <property name="always_active">1</property>
   <properties name="ctor-0x7fcf3d6286c0"/>
  </transition>
  <transition id="transition13">
   <property name="a_track">0</property>
   <property name="b_track">14</property>
   <property name="version">0.1</property>
   <property name="mlt_service">frei0r.cairoblend</property>
   <property name="kdenlive_id">frei0r.cairoblend</property>
   <property name="internal_added">237</property>
   <property name="always_active">1</property>
   <properties name="ctor-0x7fcf3d6286c0"/>
  </transition>
  <transition id="transition14">
   <property name="a_track">0</property>
   <property name="b_track">15</property>
   <property name="version">0.1</property>
   <property name="mlt_service">frei0r.cairoblend</property>
   <property name="kdenlive_id">frei0r.cairoblend</property>
   <property name="internal_added">237</property>
   <property name="always_active">1</property>
   <properties name="ctor-0x7fcf3d6286c0"/>
  </transition>
  <transition id="transition15">
   <property name="a_track">0</property>
   <property name="b_track">16</property>
   <property name="version">0.1</property>
   <property name="mlt_service">frei0r.cairoblend</property>
   <property name="kdenlive_id">frei0r.cairoblend</property>
   <property name="internal_added">237</property>
   <property name="always_active">1</property>
   <properties name="ctor-0x7fcf3d6286c0"/>
  </transition>
  <transition id="transition16">
   <property name="a_track">0</property>
   <property name="b_track">17</property>
   <property name="version">0.1</property>
   <property name="mlt_service">frei0r.cairoblend</property>
   <property name="kdenlive_id">frei0r.cairoblend</property>
   <property name="internal_added">237</property>
   <property name="always_active">1</property>
   <properties name="ctor-0x7fcf3d6286c0"/>
  </transition>
  <transition id="transition17">
   <property name="a_track">0</property>
   <property name="b_track">18</property>
   <property name="version">0.1</property>
   <property name="mlt_service">frei0r.cairoblend</property>
   <property name="kdenlive_id">frei0r.cairoblend</property>
   <property name="internal_added">237</property>
   <property name="always_active">1</property>
   <properties name="ctor-0x7fcf3d6286c0"/>
  </transition>
  <filter id="filter167">
   <property name="window">75</property>
   <property name="max_gain">20dB</property>
   <property name="mlt_service">volume</property>
   <property name="internal_added">237</property>
   <property name="disable">1</property>
  </filter>
  <filter id="filter168">
   <property name="channel">-1</property>
   <property name="mlt_service">panner</property>
   <property name="internal_added">237</property>
   <property name="start">0.5</property>
   <property name="disable">1</property>
  </filter>
  <filter id="filter169">
   <property name="window">75</property>
   <property name="max_gain">20dB</property>
   <property name="mlt_service">volume</property>
   <property name="internal_added">237</property>
   <property name="disable">1</property>
  </filter>
  <filter id="filter170">
   <property name="channel">-1</property>
   <property name="mlt_service">panner</property>
   <property name="internal_added">237</property>
   <property name="start">0.5</property>
   <property name="disable">1</property>
  </filter>
 </tractor>
 <playlist id="main_bin">
  <property name="kdenlive:folder.-1.2">Sequences</property>
  <property name="kdenlive:folder.-1.8">sfx</property>
  <property name="kdenlive:folder.-1.10">b roll</property>
  <property name="kdenlive:folder.-1.16">images</property>
  <property name="kdenlive:folder.-1.29">titles</property>
  <property name="kdenlive:folder.-1.36">audio</property>
  <property name="kdenlive:folder.-1.48">Pasted clips</property>
  <property name="kdenlive:folder.16.20">titles</property>
  <property name="kdenlive:docproperties.activetimeline">{87dfca1f-7cf0-4eee-bf07-d194ff7dc11e}</property>
  <property name="kdenlive:docproperties.audioChannels">2</property>
  <property name="kdenlive:docproperties.browserurl">/home/liquidzulu/Videos/</property>
  <property name="kdenlive:docproperties.compositing">1</property>
  <property name="kdenlive:docproperties.documentid">1699260300855</property>
  <property name="kdenlive:docproperties.enableTimelineZone">0</property>
  <property name="kdenlive:docproperties.enableexternalproxy">0</property>
  <property name="kdenlive:docproperties.enableproxy">0</property>
  <property name="kdenlive:docproperties.externalproxyparams"/>
  <property name="kdenlive:docproperties.generateimageproxy">0</property>
  <property name="kdenlive:docproperties.generateproxy">0</property>
  <property name="kdenlive:docproperties.guidesCategories">[
    {
        "color": "#9b59b6",
        "comment": "Category 1",
        "index": 0
    },
    {
        "color": "#3daee9",
        "comment": "Category 2",
        "index": 1
    },
    {
        "color": "#1abc9c",
        "comment": "Category 3",
        "index": 2
    },
    {
        "color": "#1cdc9a",
        "comment": "Category 4",
        "index": 3
    },
    {
        "color": "#c9ce3b",
        "comment": "Category 5",
        "index": 4
    },
    {
        "color": "#fdbc4b",
        "comment": "Category 6",
        "index": 5
    },
    {
        "color": "#f39c1f",
        "comment": "Category 7",
        "index": 6
    },
    {
        "color": "#f47750",
        "comment": "Category 8",
        "index": 7
    },
    {
        "color": "#da4453",
        "comment": "Category 9",
        "index": 8
    }
]
</property>
  <property name="kdenlive:docproperties.kdenliveversion">23.04.3</property>
  <property name="kdenlive:docproperties.opensequences">{87dfca1f-7cf0-4eee-bf07-d194ff7dc11e}</property>
  <property name="kdenlive:docproperties.previewextension"/>
  <property name="kdenlive:docproperties.previewparameters"/>
  <property name="kdenlive:docproperties.profile">/home/liquidzulu/.local/share/kdenlive/profiles/customprofile0</property>
  <property name="kdenlive:docproperties.proxyextension"/>
  <property name="kdenlive:docproperties.proxyimageminsize">2000</property>
  <property name="kdenlive:docproperties.proxyimagesize">800</property>
  <property name="kdenlive:docproperties.proxyminsize">1000</property>
  <property name="kdenlive:docproperties.proxyparams"/>
  <property name="kdenlive:docproperties.proxyresize">640</property>
  <property name="kdenlive:docproperties.rendercategory">Generic (HD for web, mobile devices...)</property>
  <property name="kdenlive:docproperties.rendercustomquality">-1</property>
  <property name="kdenlive:docproperties.renderendguide">-1</property>
  <property name="kdenlive:docproperties.renderexportaudio">0</property>
  <property name="kdenlive:docproperties.renderfullcolorrange">0</property>
  <property name="kdenlive:docproperties.rendermode">0</property>
  <property name="kdenlive:docproperties.renderplay">0</property>
  <property name="kdenlive:docproperties.renderpreview">0</property>
  <property name="kdenlive:docproperties.renderprofile">MP4-H264/AAC</property>
  <property name="kdenlive:docproperties.renderrescale">0</property>
  <property name="kdenlive:docproperties.renderrescaleheight">960</property>
  <property name="kdenlive:docproperties.renderrescalewidth">540</property>
  <property name="kdenlive:docproperties.renderspeed">6</property>
  <property name="kdenlive:docproperties.renderstartguide">-1</property>
  <property name="kdenlive:docproperties.rendertcoverlay">0</property>
  <property name="kdenlive:docproperties.rendertctype">-1</property>
  <property name="kdenlive:docproperties.rendertwopass">0</property>
  <property name="kdenlive:docproperties.renderurl">/home/liquidzulu/Videos/yt/vid-store/fee/socialism-is-when-the-government-does-stuff.mp4</property>
  <property name="kdenlive:docproperties.seekOffset">30000</property>
  <property name="kdenlive:docproperties.uuid">{87dfca1f-7cf0-4eee-bf07-d194ff7dc11e}</property>
  <property name="kdenlive:docproperties.version">1.1</property>
  <property name="kdenlive:expandedFolders">29</property>
  <property name="kdenlive:binZoom">4</property>
  <property name="kdenlive:documentnotes"/>
  <property name="xml_retain">1</property>
  <entry producer="chain31" in="00:00:00.000" out="00:00:35.600"/>
  <entry producer="chain24" in="00:00:00.000" out="00:00:21.440"/>
  <entry producer="chain23" in="00:00:00.000" out="00:00:32.440"/>
  <entry producer="chain22" in="00:00:00.000" out="00:00:35.520"/>
  <entry producer="chain25" in="00:00:00.000" out="00:01:00.000"/>
  <entry producer="chain30" in="00:00:00.000" out="00:03:44.920"/>
  <entry producer="chain26" in="00:00:00.000" out="00:00:00.600"/>
  <entry producer="chain27" in="00:00:00.000" out="00:02:49.400"/>
  <entry producer="producer5" in="00:00:00.000" out="00:00:04.960"/>
  <entry producer="producer31" in="00:00:00.000" out="00:00:04.960"/>
  <entry producer="producer41" in="00:00:00.000" out="00:00:04.960"/>
  <entry producer="producer30" in="00:00:00.000" out="00:00:04.960"/>
  <entry producer="producer40" in="00:00:00.000" out="00:00:04.960"/>
  <entry producer="producer48" in="00:00:00.000" out="00:00:04.960"/>
  <entry producer="producer51" in="00:00:00.000" out="00:00:04.960"/>
  <entry producer="producer55" in="00:00:00.000" out="00:00:04.960"/>
  <entry producer="producer57" in="00:00:00.000" out="00:00:04.960"/>
  <entry producer="producer59" in="00:00:00.000" out="00:00:04.960"/>
  <entry producer="producer61" in="00:00:00.000" out="00:00:04.960"/>
  <entry producer="producer2" in="00:00:00.000" out="00:00:04.960"/>
  <entry producer="producer3" in="00:00:00.000" out="00:00:04.960"/>
  <entry producer="producer4" in="00:00:00.000" out="00:00:04.960"/>
  <entry producer="chain29" in="00:00:00.000" out="00:00:00.600"/>
  <entry producer="chain28" in="00:00:00.000" out="00:06:39.680"/>
  <entry producer="producer52" in="00:00:00.000" out="00:00:04.960"/>
  <entry producer="producer6" in="00:00:00.000" out="00:00:04.960"/>
  <entry producer="producer32" in="00:00:00.000" out="00:00:04.960"/>
  <entry producer="producer33" in="00:00:00.000" out="00:00:04.960"/>
  <entry producer="producer42" in="00:00:00.000" out="00:00:04.960"/>
  <entry producer="producer43" in="00:00:00.000" out="00:00:04.960"/>
  <entry producer="chain32" in="00:00:00.000" out="00:00:00.800"/>
  <entry producer="producer38" in="00:00:00.000" out="00:00:04.960"/>
  <entry producer="producer44" in="00:00:00.000" out="00:00:04.960"/>
  <entry producer="producer62" in="00:00:00.000" out="00:00:04.960"/>
  <entry producer="producer9" in="00:00:00.000" out="00:00:04.960"/>
  <entry producer="producer45" in="00:00:00.000" out="00:00:04.960"/>
  <entry producer="producer63" in="00:00:00.000" out="00:00:04.960"/>
  <entry producer="chain33" in="00:00:00.000" out="00:03:51.480"/>
  <entry producer="producer53" in="00:00:00.000" out="00:00:04.960"/>
  <entry producer="producer7" in="00:00:00.000" out="00:00:04.960"/>
  <entry producer="producer8" in="00:00:00.000" out="00:00:04.960"/>
  <entry producer="producer10" in="00:00:00.000" out="00:00:04.960"/>
  <entry producer="producer11" in="00:00:00.000" out="00:00:04.960"/>
  <entry producer="producer34" in="00:00:00.000" out="00:00:04.960"/>
  <entry producer="producer46" in="00:00:00.000" out="00:00:04.960"/>
  <entry producer="producer49" in="00:00:00.000" out="00:00:04.960"/>
  <entry producer="producer54" in="00:00:00.000" out="00:00:04.960"/>
  <entry producer="producer56" in="00:00:00.000" out="00:00:04.960"/>
  <entry producer="producer58" in="00:00:00.000" out="00:00:04.960"/>
  <entry producer="chain34" in="00:00:00.000" out="00:00:15.000"/>
  <entry producer="producer60" in="00:00:00.000" out="00:00:04.960"/>
  <entry producer="producer12" in="00:00:00.000" out="00:00:04.960"/>
  <entry producer="producer13" in="00:00:00.000" out="00:00:04.960"/>
  <entry producer="producer14" in="00:00:00.000" out="00:00:04.960"/>
  <entry producer="producer15" in="00:00:00.000" out="00:00:04.960"/>
  <entry producer="producer16" in="00:00:00.000" out="00:00:04.960"/>
  <entry producer="producer17" in="00:00:00.000" out="00:00:04.960"/>
  <entry producer="producer18" in="00:00:00.000" out="00:00:04.960"/>
  <entry producer="producer19" in="00:00:00.000" out="00:00:04.960"/>
  <entry producer="producer20" in="00:00:00.000" out="00:00:04.960"/>
  <entry producer="chain35" in="00:00:00.000" out="00:01:29.080"/>
  <entry producer="producer47" in="00:00:00.000" out="00:00:04.960"/>
  <entry producer="producer21" in="00:00:00.000" out="00:00:04.960"/>
  <entry producer="producer22" in="00:00:00.000" out="00:00:04.960"/>
  <entry producer="producer23" in="00:00:00.000" out="00:00:04.960"/>
  <entry producer="producer24" in="00:00:00.000" out="00:00:04.960"/>
  <entry producer="producer25" in="00:00:00.000" out="00:00:04.960"/>
  <entry producer="producer26" in="00:00:00.000" out="00:00:04.960"/>
  <entry producer="producer27" in="00:00:00.000" out="00:00:04.960"/>
  <entry producer="producer35" in="00:00:00.000" out="00:00:04.960"/>
  <entry producer="producer36" in="00:00:00.000" out="00:00:04.960"/>
  <entry producer="producer37" in="00:00:00.000" out="00:00:04.960"/>
  <entry producer="producer39" in="00:00:00.000" out="00:00:04.960"/>
  <entry producer="chain36" in="00:00:00.000" out="00:00:39.480"/>
  <entry producer="producer50" in="00:00:00.000" out="00:00:04.960"/>
  <entry producer="producer28" in="00:00:00.000" out="00:00:04.960"/>
  <entry producer="producer29" in="00:00:00.000" out="00:00:04.960"/>
  <entry producer="tractor18" in="00:00:00.000" out="00:09:06.520"/>
  <entry producer="producer66" in="00:00:00.000" out="00:00:12.600"/>
  <entry producer="producer67" in="00:00:00.000" out="00:00:12.600"/>
  <entry producer="producer65" in="00:00:00.000" out="00:00:12.600"/>
  <entry producer="producer64" in="00:00:00.000" out="00:00:12.600"/>
  <entry producer="producer68" in="00:00:00.000" out="00:00:04.960"/>
  <entry producer="producer69" in="00:00:00.000" out="00:00:04.960"/>
  <entry producer="producer70" in="00:00:00.000" out="00:00:04.960"/>
  <entry producer="producer71" in="00:00:00.000" out="00:00:04.960"/>
  <entry producer="producer72" in="00:00:00.000" out="00:00:04.960"/>
  <entry producer="producer73" in="00:00:00.000" out="00:00:04.960"/>
  <entry producer="producer74" in="00:00:00.000" out="00:00:04.960"/>
  <entry producer="producer75" in="00:00:00.000" out="00:00:04.960"/>
  <entry producer="producer76" in="00:00:00.000" out="00:00:04.960"/>
  <entry producer="producer78" in="00:00:00.000" out="00:00:04.960"/>
 </playlist>
 <tractor id="tractor19" in="00:00:00.000" out="00:00:35.640">
  <property name="kdenlive:projectTractor">1</property>
  <track producer="tractor18" in="00:00:00.000" out="00:00:35.640"/>
 </tractor>
</mlt>
