<?xml version='1.0' encoding='utf-8'?>
<mlt LC_NUMERIC="C" producer="main_bin" version="7.6.0" root="/home/liquidzulu/Documents/youtube-scripts/scripts/neoprags-vs-disney">
 <profile frame_rate_num="30" sample_aspect_num="1" display_aspect_den="9" colorspace="709" progressive="1" description="HD 1080p 30 fps" display_aspect_num="16" frame_rate_den="1" width="1920" height="1080" sample_aspect_den="1"/>
 <producer id="producer15" in="00:00:00.000" out="00:06:49.600">
  <property name="length">12289</property>
  <property name="eof">pause</property>
  <property name="resource">audio/proc.mp3</property>
  <property name="meta.media.nb_streams">1</property>
  <property name="meta.media.0.stream.type">audio</property>
  <property name="meta.media.0.codec.sample_fmt">fltp</property>
  <property name="meta.media.0.codec.sample_rate">44100</property>
  <property name="meta.media.0.codec.channels">2</property>
  <property name="meta.media.0.codec.name">mp3float</property>
  <property name="meta.media.0.codec.long_name">MP3 (MPEG audio layer 3)</property>
  <property name="meta.media.0.codec.bit_rate">192000</property>
  <property name="meta.attr.TBPM.markup">130</property>
  <property name="meta.attr.encoded_by.markup">LAME in FL Studio 20</property>
  <property name="meta.attr.date.markup">2022</property>
  <property name="seekable">1</property>
  <property name="audio_index">0</property>
  <property name="video_index">-1</property>
  <property name="mute_on_pause">1</property>
  <property name="mlt_service">avformat</property>
  <property name="kdenlive:clipname"/>
  <property name="kdenlive:clip_type">1</property>
  <property name="kdenlive:folderid">26</property>
  <property name="kdenlive:id">3</property>
  <property name="kdenlive:file_size">9831096</property>
  <property name="kdenlive:file_hash">0b0373ae3af1db33bcdbfec231a13b38</property>
  <property name="kdenlive:audio_max0">230</property>
 </producer>
 <producer id="producer0" in="00:00:00.000" out="00:03:12.167">
  <property name="length">5766</property>
  <property name="eof">pause</property>
  <property name="resource">/home/liquidzulu/Music/youtube-music/Machine Girl/A Song Called Clive Barker [FIeulwYrRuQ].mp3</property>
  <property name="meta.media.nb_streams">1</property>
  <property name="meta.media.0.stream.type">audio</property>
  <property name="meta.media.0.codec.sample_fmt">fltp</property>
  <property name="meta.media.0.codec.sample_rate">48000</property>
  <property name="meta.media.0.codec.channels">2</property>
  <property name="meta.media.0.codec.name">mp3float</property>
  <property name="meta.media.0.codec.long_name">MP3 (MPEG audio layer 3)</property>
  <property name="meta.media.0.codec.bit_rate">127749</property>
  <property name="meta.attr.0.stream.encoder.markup">Lavc59.18</property>
  <property name="meta.attr.encoder.markup">Lavf59.16.100</property>
  <property name="seekable">1</property>
  <property name="audio_index">0</property>
  <property name="video_index">-1</property>
  <property name="mute_on_pause">1</property>
  <property name="mlt_service">avformat</property>
  <property name="kdenlive:clipname"/>
  <property name="kdenlive:clip_type">1</property>
  <property name="kdenlive:folderid">4</property>
  <property name="kdenlive:id">5</property>
  <property name="kdenlive:file_size">3069477</property>
  <property name="kdenlive:file_hash">528285bb86c069868169f154f568f6b5</property>
  <property name="kdenlive:audio_max0">239</property>
 </producer>
 <producer id="producer1" in="00:00:00.000" out="00:03:04.567">
  <property name="length">5538</property>
  <property name="eof">pause</property>
  <property name="resource">/home/liquidzulu/Music/youtube-music/Soudiere/SOUDIERE - 2HARD.mp3</property>
  <property name="meta.media.nb_streams">1</property>
  <property name="meta.media.0.stream.type">audio</property>
  <property name="meta.media.0.codec.sample_fmt">fltp</property>
  <property name="meta.media.0.codec.sample_rate">48000</property>
  <property name="meta.media.0.codec.channels">2</property>
  <property name="meta.media.0.codec.name">mp3float</property>
  <property name="meta.media.0.codec.long_name">MP3 (MPEG audio layer 3)</property>
  <property name="meta.media.0.codec.bit_rate">121338</property>
  <property name="meta.attr.0.stream.encoder.markup">Lavc57.89</property>
  <property name="meta.attr.encoder.markup">Lavf57.71.100</property>
  <property name="seekable">1</property>
  <property name="audio_index">0</property>
  <property name="video_index">-1</property>
  <property name="mute_on_pause">1</property>
  <property name="mlt_service">avformat</property>
  <property name="kdenlive:clipname"/>
  <property name="kdenlive:clip_type">1</property>
  <property name="kdenlive:folderid">4</property>
  <property name="kdenlive:id">6</property>
  <property name="kdenlive:file_size">2799669</property>
  <property name="kdenlive:file_hash">953009a181852c19d95661a6168eb295</property>
  <property name="kdenlive:audio_max0">252</property>
 </producer>
 <producer id="producer2" in="00:00:00.000" out="00:00:04.967">
  <property name="length">150</property>
  <property name="eof">pause</property>
  <property name="resource"/>
  <property name="progressive">1</property>
  <property name="aspect_ratio">1</property>
  <property name="seekable">1</property>
  <property name="mlt_service">kdenlivetitle</property>
  <property name="kdenlive:duration">150</property>
  <property name="kdenlive:clipname">Liberty, Not...</property>
  <property name="xmldata">&lt;kdenlivetitle duration="150" LC_NUMERIC="C" width="1920" height="1080" out="149">
 &lt;item type="QGraphicsTextItem" z-index="0">
  &lt;position x="343" y="445">
   &lt;transform>1,0,0,0,1,0,0,0,1&lt;/transform>
  &lt;/position>
  &lt;content shadow="0;#64000000;3;3;3" font-underline="0" box-height="157" font-outline-color="0,0,0,255" font="Open Sans ExtraBold" letter-spacing="0" font-pixel-size="115" font-italic="0" typewriter="0;2;1;0;0" alignment="1" font-weight="50" font-outline="5" box-width="1234.7" font-color="255,255,0,255">Liberty, Not Fairness&lt;/content>
 &lt;/item>
 &lt;startviewport rect="0,0,1920,1080"/>
 &lt;endviewport rect="0,0,1920,1080"/>
 &lt;background color="0,0,0,0"/>
&lt;/kdenlivetitle>
</property>
  <property name="kdenlive:folderid">8</property>
  <property name="kdenlive:clip_type">2</property>
  <property name="kdenlive:id">7</property>
  <property name="kdenlive:file_hash">2e1b684f7caccb02889bb52eadd8c4e4</property>
  <property name="force_reload">0</property>
  <property name="meta.media.width">1920</property>
  <property name="meta.media.height">1080</property>
 </producer>
 <producer id="producer3" in="00:00:00.000" out="00:00:04.967">
  <property name="length">00:00:05.000</property>
  <property name="eof">pause</property>
  <property name="resource">images/desantis.png</property>
  <property name="ttl">25</property>
  <property name="aspect_ratio">1</property>
  <property name="progressive">1</property>
  <property name="seekable">1</property>
  <property name="meta.media.width">1200</property>
  <property name="meta.media.height">803</property>
  <property name="mlt_service">qimage</property>
  <property name="kdenlive:clipname"/>
  <property name="kdenlive:duration">00:00:05.000</property>
  <property name="kdenlive:folderid">9</property>
  <property name="kdenlive:clip_type">2</property>
  <property name="kdenlive:id">10</property>
  <property name="kdenlive:file_size">1810406</property>
  <property name="kdenlive:file_hash">65644c4284251469ace024d5bf066ec1</property>
 </producer>
 <producer id="producer4" in="00:00:00.000" out="00:06:35.267">
  <property name="length">11859</property>
  <property name="eof">pause</property>
  <property name="resource">/home/liquidzulu/.cache/kdenlive/proxy/45eed6d715e13a32eb80ba96a383cfba.mkv</property>
  <property name="meta.media.nb_streams">2</property>
  <property name="meta.media.0.stream.type">video</property>
  <property name="meta.media.0.stream.frame_rate">59.9401</property>
  <property name="meta.media.0.stream.sample_aspect_ratio">1</property>
  <property name="meta.media.0.codec.width">640</property>
  <property name="meta.media.0.codec.height">360</property>
  <property name="meta.media.0.codec.rotate">0</property>
  <property name="meta.media.0.codec.pix_fmt">yuvj420p</property>
  <property name="meta.media.0.codec.sample_aspect_ratio">1</property>
  <property name="meta.media.0.codec.colorspace">601</property>
  <property name="meta.media.0.codec.color_trc">1</property>
  <property name="meta.media.0.codec.name">mjpeg</property>
  <property name="meta.media.0.codec.long_name">MJPEG (Motion JPEG)</property>
  <property name="meta.media.0.codec.bit_rate">0</property>
  <property name="meta.attr.0.stream.HANDLER_NAME.markup">ISO Media file produced by Google Inc.</property>
  <property name="meta.attr.0.stream.VENDOR_ID.markup">[0][0][0][0]</property>
  <property name="meta.attr.0.stream.ENCODER.markup">Lavc59.18.100 mjpeg</property>
  <property name="meta.attr.0.stream.DURATION.markup">00:06:35.212000000</property>
  <property name="meta.media.1.stream.type">audio</property>
  <property name="meta.media.1.codec.sample_fmt">s16</property>
  <property name="meta.media.1.codec.sample_rate">44100</property>
  <property name="meta.media.1.codec.channels">2</property>
  <property name="meta.media.1.codec.name">pcm_s16le</property>
  <property name="meta.media.1.codec.long_name">PCM signed 16-bit little-endian</property>
  <property name="meta.media.1.codec.bit_rate">1411200</property>
  <property name="meta.attr.1.stream.language.markup">eng</property>
  <property name="meta.attr.1.stream.HANDLER_NAME.markup">ISO Media file produced by Google Inc.</property>
  <property name="meta.attr.1.stream.VENDOR_ID.markup">[0][0][0][0]</property>
  <property name="meta.attr.1.stream.ENCODER.markup">Lavc59.18.100 pcm_s16le</property>
  <property name="meta.attr.1.stream.DURATION.markup">00:06:35.296000000</property>
  <property name="meta.attr.COMPATIBLE_BRANDS.markup">isomiso2avc1mp41</property>
  <property name="meta.attr.MAJOR_BRAND.markup">isom</property>
  <property name="meta.attr.MINOR_VERSION.markup">512</property>
  <property name="meta.attr.ENCODER.markup">Lavf59.16.100</property>
  <property name="seekable">1</property>
  <property name="meta.media.sample_aspect_num">1</property>
  <property name="meta.media.sample_aspect_den">1</property>
  <property name="aspect_ratio">1</property>
  <property name="audio_index">1</property>
  <property name="video_index">0</property>
  <property name="mute_on_pause">0</property>
  <property name="mlt_service">avformat-novalidate</property>
  <property name="kdenlive:clipname">The Mad Doctor - Mickey Mouse (1933) [LPW70q4w5pw].mp4</property>
  <property name="kdenlive:clip_type">0</property>
  <property name="kdenlive:folderid">11</property>
  <property name="kdenlive:id">12</property>
  <property name="kdenlive:file_size">56037333</property>
  <property name="kdenlive:file_hash">45eed6d715e13a32eb80ba96a383cfba</property>
  <property name="kdenlive:proxy">/home/liquidzulu/.cache/kdenlive/proxy/45eed6d715e13a32eb80ba96a383cfba.mkv</property>
  <property name="kdenlive:originalurl">b-roll/The Mad Doctor - Mickey Mouse (1933) [LPW70q4w5pw].mp4</property>
  <property name="kdenlive:original.mlt_type">producer</property>
  <property name="kdenlive:original.in">0</property>
  <property name="kdenlive:original.out">11858</property>
  <property name="kdenlive:original.length">11859</property>
  <property name="kdenlive:original.eof">pause</property>
  <property name="kdenlive:original.resource">b-roll/The Mad Doctor - Mickey Mouse (1933) [LPW70q4w5pw].mp4</property>
  <property name="kdenlive:original.meta.media.nb_streams">2</property>
  <property name="kdenlive:original.meta.media.0.stream.type">video</property>
  <property name="kdenlive:original.meta.media.0.stream.frame_rate">59.9401</property>
  <property name="kdenlive:original.meta.media.0.stream.sample_aspect_ratio">1</property>
  <property name="kdenlive:original.meta.media.0.codec.width">1280</property>
  <property name="kdenlive:original.meta.media.0.codec.height">720</property>
  <property name="kdenlive:original.meta.media.0.codec.rotate">0</property>
  <property name="kdenlive:original.meta.media.0.codec.pix_fmt">yuv420p</property>
  <property name="kdenlive:original.meta.media.0.codec.sample_aspect_ratio">1</property>
  <property name="kdenlive:original.meta.media.0.codec.colorspace">709</property>
  <property name="kdenlive:original.meta.media.0.codec.color_trc">1</property>
  <property name="kdenlive:original.meta.media.0.codec.name">h264</property>
  <property name="kdenlive:original.meta.media.0.codec.long_name">H.264 / AVC / MPEG-4 AVC / MPEG-4 part 10</property>
  <property name="kdenlive:original.meta.media.0.codec.bit_rate">993953</property>
  <property name="kdenlive:original.meta.attr.0.stream.handler_name.markup">ISO Media file produced by Google Inc.</property>
  <property name="kdenlive:original.meta.attr.0.stream.vendor_id.markup">[0][0][0][0]</property>
  <property name="kdenlive:original.meta.media.1.stream.type">audio</property>
  <property name="kdenlive:original.meta.media.1.codec.sample_fmt">fltp</property>
  <property name="kdenlive:original.meta.media.1.codec.sample_rate">44100</property>
  <property name="kdenlive:original.meta.media.1.codec.channels">2</property>
  <property name="kdenlive:original.meta.media.1.codec.name">aac</property>
  <property name="kdenlive:original.meta.media.1.codec.long_name">AAC (Advanced Audio Coding)</property>
  <property name="kdenlive:original.meta.media.1.codec.bit_rate">128005</property>
  <property name="kdenlive:original.meta.attr.1.stream.language.markup">eng</property>
  <property name="kdenlive:original.meta.attr.1.stream.handler_name.markup">ISO Media file produced by Google Inc.</property>
  <property name="kdenlive:original.meta.attr.1.stream.vendor_id.markup">[0][0][0][0]</property>
  <property name="kdenlive:original.meta.attr.major_brand.markup">isom</property>
  <property name="kdenlive:original.meta.attr.minor_version.markup">512</property>
  <property name="kdenlive:original.meta.attr.compatible_brands.markup">isomiso2avc1mp41</property>
  <property name="kdenlive:original.meta.attr.encoder.markup">Lavf59.16.100</property>
  <property name="kdenlive:original.seekable">1</property>
  <property name="kdenlive:original.width">1280</property>
  <property name="kdenlive:original.height">720</property>
  <property name="kdenlive:original.meta.media.sample_aspect_num">1</property>
  <property name="kdenlive:original.meta.media.sample_aspect_den">1</property>
  <property name="kdenlive:original.aspect_ratio">1</property>
  <property name="kdenlive:original.audio_index">1</property>
  <property name="kdenlive:original.video_index">0</property>
  <property name="kdenlive:original.mute_on_pause">0</property>
  <property name="kdenlive:original.mlt_service">avformat-novalidate</property>
  <property name="kdenlive:original.meta.media.frame_rate_num">60000</property>
  <property name="kdenlive:original.meta.media.frame_rate_den">1001</property>
  <property name="kdenlive:original.meta.media.colorspace">709</property>
  <property name="kdenlive:original.meta.media.color_trc">1</property>
  <property name="kdenlive:original.meta.media.has_b_frames">1</property>
  <property name="kdenlive:original.meta.media.width">1280</property>
  <property name="kdenlive:original.meta.media.height">720</property>
  <property name="kdenlive:original.meta.media.color_range">mpeg</property>
  <property name="kdenlive:original.meta.media.top_field_first">0</property>
  <property name="kdenlive:original.meta.media.progressive">1</property>
  <property name="kdenlive:original.kdenlive:clip_type">0</property>
  <property name="kdenlive:original.kdenlive:folderid">11</property>
  <property name="kdenlive:original.kdenlive:id">12</property>
  <property name="kdenlive:original.kdenlive:file_size">56037333</property>
  <property name="kdenlive:original.kdenlive:file_hash">45eed6d715e13a32eb80ba96a383cfba</property>
  <property name="kdenlive:original.backup">1</property>
  <property name="kdenlive:audio_max1">198</property>
  <property name="meta.media.frame_rate_num">60000</property>
  <property name="meta.media.frame_rate_den">1001</property>
  <property name="meta.media.colorspace">601</property>
  <property name="meta.media.color_trc">1</property>
  <property name="meta.media.has_b_frames">0</property>
  <property name="meta.media.width">640</property>
  <property name="meta.media.height">360</property>
  <property name="meta.media.color_range">full</property>
  <property name="meta.media.top_field_first">0</property>
  <property name="meta.media.progressive">1</property>
 </producer>
 <producer id="producer5" in="00:00:00.000" out="00:00:04.967">
  <property name="length">150</property>
  <property name="eof">pause</property>
  <property name="progressive">1</property>
  <property name="aspect_ratio">1</property>
  <property name="seekable">1</property>
  <property name="mlt_service">kdenlivetitle</property>
  <property name="kdenlive:duration">150</property>
  <property name="kdenlive:clipname">Disney as th...</property>
  <property name="xmldata">&lt;kdenlivetitle duration="150" LC_NUMERIC="C" width="1920" height="1080" out="149">
 &lt;item type="QGraphicsTextItem" z-index="0">
  &lt;position x="391" y="445">
   &lt;transform>1,0,0,0,1,0,0,0,1&lt;/transform>
  &lt;/position>
  &lt;content shadow="0;#64000000;3;3;3" font-underline="0" box-height="157" font-outline-color="0,0,0,255" font="Open Sans ExtraBold" letter-spacing="0" font-pixel-size="115" font-italic="0" typewriter="0;2;1;0;0" alignment="1" font-weight="50" font-outline="5" box-width="1137.42" font-color="255,255,0,255">Disney as the State&lt;/content>
 &lt;/item>
 &lt;startviewport rect="0,0,1920,1080"/>
 &lt;endviewport rect="0,0,1920,1080"/>
 &lt;background color="0,0,0,0"/>
&lt;/kdenlivetitle>
</property>
  <property name="kdenlive:folderid">8</property>
  <property name="kdenlive:clip_type">2</property>
  <property name="kdenlive:id">13</property>
  <property name="kdenlive:file_hash">e9baed9bf83305e8a649ad213838bd0d</property>
  <property name="force_reload">0</property>
  <property name="meta.media.width">1920</property>
  <property name="meta.media.height">1080</property>
 </producer>
 <producer id="producer6" in="00:00:00.000" out="00:03:13.800">
  <property name="length">5815</property>
  <property name="eof">pause</property>
  <property name="resource">/home/liquidzulu/Music/youtube-music/MDE/Million Dollar Extreme Presents - World Peace Episode 4 Intro Theme - composed by Brian Ellis.mp3</property>
  <property name="meta.media.nb_streams">1</property>
  <property name="meta.media.0.stream.type">audio</property>
  <property name="meta.media.0.codec.sample_fmt">fltp</property>
  <property name="meta.media.0.codec.sample_rate">48000</property>
  <property name="meta.media.0.codec.channels">2</property>
  <property name="meta.media.0.codec.name">mp3float</property>
  <property name="meta.media.0.codec.long_name">MP3 (MPEG audio layer 3)</property>
  <property name="meta.media.0.codec.bit_rate">136358</property>
  <property name="meta.attr.0.stream.encoder.markup">Lavc57.89</property>
  <property name="meta.attr.encoder.markup">Lavf57.71.100</property>
  <property name="seekable">1</property>
  <property name="audio_index">0</property>
  <property name="video_index">-1</property>
  <property name="mute_on_pause">1</property>
  <property name="mlt_service">avformat</property>
  <property name="kdenlive:clipname"/>
  <property name="kdenlive:clip_type">1</property>
  <property name="kdenlive:folderid">4</property>
  <property name="kdenlive:id">14</property>
  <property name="kdenlive:file_size">3303717</property>
  <property name="kdenlive:file_hash">6c21ebb6e7e8eae3e9b81295290810da</property>
  <property name="kdenlive:audio_max0">243</property>
 </producer>
 <producer id="producer7" in="00:00:00.000" out="00:02:51.467">
  <property name="length">5145</property>
  <property name="eof">pause</property>
  <property name="resource">/home/liquidzulu/Music/youtube-music/hensonn/Hensonn - Hallucinations.mp3</property>
  <property name="meta.media.nb_streams">2</property>
  <property name="meta.media.0.stream.type">audio</property>
  <property name="meta.media.0.codec.sample_fmt">fltp</property>
  <property name="meta.media.0.codec.sample_rate">44100</property>
  <property name="meta.media.0.codec.channels">2</property>
  <property name="meta.media.0.codec.name">mp3float</property>
  <property name="meta.media.0.codec.long_name">MP3 (MPEG audio layer 3)</property>
  <property name="meta.media.0.codec.bit_rate">128000</property>
  <property name="meta.attr.0.stream.encoder.markup">Lavf</property>
  <property name="meta.media.1.stream.type">video</property>
  <property name="meta.media.1.stream.frame_rate">-nan</property>
  <property name="meta.media.1.stream.sample_aspect_ratio">0</property>
  <property name="meta.media.1.codec.width">500</property>
  <property name="meta.media.1.codec.height">500</property>
  <property name="meta.media.1.codec.rotate">0</property>
  <property name="meta.media.1.codec.pix_fmt">yuvj420p</property>
  <property name="meta.media.1.codec.sample_aspect_ratio">1</property>
  <property name="meta.media.1.codec.colorspace">601</property>
  <property name="meta.media.1.codec.name">mjpeg</property>
  <property name="meta.media.1.codec.long_name">MJPEG (Motion JPEG)</property>
  <property name="meta.media.1.codec.bit_rate">0</property>
  <property name="meta.attr.1.stream.title.markup">Cover</property>
  <property name="meta.attr.1.stream.comment.markup">Cover (front)</property>
  <property name="meta.attr.title.markup">Hensonn - Hallucinations</property>
  <property name="meta.attr.artist.markup">Hensonn</property>
  <property name="meta.attr.date.markup">2021-04-10T10</property>
  <property name="meta.attr.genre.markup">House</property>
  <property name="seekable">1</property>
  <property name="meta.media.sample_aspect_num">1</property>
  <property name="meta.media.sample_aspect_den">1</property>
  <property name="aspect_ratio">1</property>
  <property name="audio_index">0</property>
  <property name="video_index">-1</property>
  <property name="mute_on_pause">1</property>
  <property name="mlt_service">avformat</property>
  <property name="kdenlive:clipname"/>
  <property name="meta.media.frame_rate_num">90000</property>
  <property name="meta.media.frame_rate_den">1</property>
  <property name="meta.media.colorspace">601</property>
  <property name="meta.media.color_trc">2</property>
  <property name="meta.media.has_b_frames">0</property>
  <property name="meta.media.width">500</property>
  <property name="meta.media.height">500</property>
  <property name="meta.media.color_range">full</property>
  <property name="meta.media.top_field_first">0</property>
  <property name="meta.media.progressive">1</property>
  <property name="kdenlive:clip_type">0</property>
  <property name="set.test_image">1</property>
  <property name="kdenlive:folderid">4</property>
  <property name="kdenlive:id">15</property>
  <property name="kdenlive:file_size">2830322</property>
  <property name="kdenlive:file_hash">cdaa11fde0bb8a6e511791576407ae50</property>
  <property name="kdenlive:audio_max0">253</property>
 </producer>
 <producer id="producer8" in="00:00:00.000" out="00:04:38.433">
  <property name="length">8354</property>
  <property name="eof">pause</property>
  <property name="resource">/home/liquidzulu/.cache/kdenlive/proxy/916e1b7229391f7f6103e83c90f07e88.mkv</property>
  <property name="meta.media.nb_streams">2</property>
  <property name="meta.media.0.stream.type">video</property>
  <property name="meta.media.0.stream.frame_rate">29.97</property>
  <property name="meta.media.0.stream.sample_aspect_ratio">1</property>
  <property name="meta.media.0.codec.width">640</property>
  <property name="meta.media.0.codec.height">360</property>
  <property name="meta.media.0.codec.rotate">0</property>
  <property name="meta.media.0.codec.pix_fmt">yuvj420p</property>
  <property name="meta.media.0.codec.sample_aspect_ratio">1</property>
  <property name="meta.media.0.codec.colorspace">601</property>
  <property name="meta.media.0.codec.color_trc">1</property>
  <property name="meta.media.0.codec.name">mjpeg</property>
  <property name="meta.media.0.codec.long_name">MJPEG (Motion JPEG)</property>
  <property name="meta.media.0.codec.bit_rate">0</property>
  <property name="meta.attr.0.stream.HANDLER_NAME.markup">ISO Media file produced by Google Inc.</property>
  <property name="meta.attr.0.stream.VENDOR_ID.markup">[0][0][0][0]</property>
  <property name="meta.attr.0.stream.ENCODER.markup">Lavc59.18.100 mjpeg</property>
  <property name="meta.attr.0.stream.DURATION.markup">00:04:38.311000000</property>
  <property name="meta.media.1.stream.type">audio</property>
  <property name="meta.media.1.codec.sample_fmt">s16</property>
  <property name="meta.media.1.codec.sample_rate">44100</property>
  <property name="meta.media.1.codec.channels">2</property>
  <property name="meta.media.1.codec.name">pcm_s16le</property>
  <property name="meta.media.1.codec.long_name">PCM signed 16-bit little-endian</property>
  <property name="meta.media.1.codec.bit_rate">1411200</property>
  <property name="meta.attr.1.stream.language.markup">eng</property>
  <property name="meta.attr.1.stream.HANDLER_NAME.markup">ISO Media file produced by Google Inc.</property>
  <property name="meta.attr.1.stream.VENDOR_ID.markup">[0][0][0][0]</property>
  <property name="meta.attr.1.stream.ENCODER.markup">Lavc59.18.100 pcm_s16le</property>
  <property name="meta.attr.1.stream.DURATION.markup">00:04:38.453000000</property>
  <property name="meta.attr.COMPATIBLE_BRANDS.markup">isomiso2avc1mp41</property>
  <property name="meta.attr.MAJOR_BRAND.markup">isom</property>
  <property name="meta.attr.MINOR_VERSION.markup">512</property>
  <property name="meta.attr.ENCODER.markup">Lavf59.16.100</property>
  <property name="seekable">1</property>
  <property name="meta.media.sample_aspect_num">1</property>
  <property name="meta.media.sample_aspect_den">1</property>
  <property name="aspect_ratio">1</property>
  <property name="audio_index">-1</property>
  <property name="video_index">0</property>
  <property name="mute_on_pause">0</property>
  <property name="mlt_service">avformat-novalidate</property>
  <property name="kdenlive:clipname">Florida Gov. Ron DeSantis holds news conference in Kissimmee [mZqaptrYb04].mp4</property>
  <property name="kdenlive:clip_type">0</property>
  <property name="kdenlive:folderid">11</property>
  <property name="kdenlive:id">16</property>
  <property name="kdenlive:file_size">21653455</property>
  <property name="kdenlive:file_hash">916e1b7229391f7f6103e83c90f07e88</property>
  <property name="kdenlive:proxy">/home/liquidzulu/.cache/kdenlive/proxy/916e1b7229391f7f6103e83c90f07e88.mkv</property>
  <property name="kdenlive:originalurl">b-roll/Florida Gov. Ron DeSantis holds news conference in Kissimmee [mZqaptrYb04].mp4</property>
  <property name="kdenlive:original.mlt_type">producer</property>
  <property name="kdenlive:original.in">0</property>
  <property name="kdenlive:original.out">8353</property>
  <property name="kdenlive:original.length">8354</property>
  <property name="kdenlive:original.eof">pause</property>
  <property name="kdenlive:original.resource">b-roll/Florida Gov. Ron DeSantis holds news conference in Kissimmee [mZqaptrYb04].mp4</property>
  <property name="kdenlive:original.meta.media.nb_streams">2</property>
  <property name="kdenlive:original.meta.media.0.stream.type">video</property>
  <property name="kdenlive:original.meta.media.0.stream.frame_rate">29.97</property>
  <property name="kdenlive:original.meta.media.0.stream.sample_aspect_ratio">1</property>
  <property name="kdenlive:original.meta.media.0.codec.width">1280</property>
  <property name="kdenlive:original.meta.media.0.codec.height">720</property>
  <property name="kdenlive:original.meta.media.0.codec.rotate">0</property>
  <property name="kdenlive:original.meta.media.0.codec.pix_fmt">yuv420p</property>
  <property name="kdenlive:original.meta.media.0.codec.sample_aspect_ratio">1</property>
  <property name="kdenlive:original.meta.media.0.codec.colorspace">709</property>
  <property name="kdenlive:original.meta.media.0.codec.color_trc">1</property>
  <property name="kdenlive:original.meta.media.0.codec.name">h264</property>
  <property name="kdenlive:original.meta.media.0.codec.long_name">H.264 / AVC / MPEG-4 AVC / MPEG-4 part 10</property>
  <property name="kdenlive:original.meta.media.0.codec.bit_rate">485916</property>
  <property name="kdenlive:original.meta.attr.0.stream.handler_name.markup">ISO Media file produced by Google Inc.</property>
  <property name="kdenlive:original.meta.attr.0.stream.vendor_id.markup">[0][0][0][0]</property>
  <property name="kdenlive:original.meta.media.1.stream.type">audio</property>
  <property name="kdenlive:original.meta.media.1.codec.sample_fmt">fltp</property>
  <property name="kdenlive:original.meta.media.1.codec.sample_rate">44100</property>
  <property name="kdenlive:original.meta.media.1.codec.channels">2</property>
  <property name="kdenlive:original.meta.media.1.codec.name">aac</property>
  <property name="kdenlive:original.meta.media.1.codec.long_name">AAC (Advanced Audio Coding)</property>
  <property name="kdenlive:original.meta.media.1.codec.bit_rate">128007</property>
  <property name="kdenlive:original.meta.attr.1.stream.language.markup">eng</property>
  <property name="kdenlive:original.meta.attr.1.stream.handler_name.markup">ISO Media file produced by Google Inc.</property>
  <property name="kdenlive:original.meta.attr.1.stream.vendor_id.markup">[0][0][0][0]</property>
  <property name="kdenlive:original.meta.attr.major_brand.markup">isom</property>
  <property name="kdenlive:original.meta.attr.minor_version.markup">512</property>
  <property name="kdenlive:original.meta.attr.compatible_brands.markup">isomiso2avc1mp41</property>
  <property name="kdenlive:original.meta.attr.encoder.markup">Lavf59.16.100</property>
  <property name="kdenlive:original.seekable">1</property>
  <property name="kdenlive:original.width">1280</property>
  <property name="kdenlive:original.height">720</property>
  <property name="kdenlive:original.meta.media.sample_aspect_num">1</property>
  <property name="kdenlive:original.meta.media.sample_aspect_den">1</property>
  <property name="kdenlive:original.aspect_ratio">1</property>
  <property name="kdenlive:original.audio_index">1</property>
  <property name="kdenlive:original.video_index">0</property>
  <property name="kdenlive:original.mute_on_pause">0</property>
  <property name="kdenlive:original.mlt_service">avformat-novalidate</property>
  <property name="kdenlive:original.meta.media.frame_rate_num">30000</property>
  <property name="kdenlive:original.meta.media.frame_rate_den">1001</property>
  <property name="kdenlive:original.meta.media.colorspace">709</property>
  <property name="kdenlive:original.meta.media.color_trc">1</property>
  <property name="kdenlive:original.meta.media.has_b_frames">1</property>
  <property name="kdenlive:original.meta.media.width">1280</property>
  <property name="kdenlive:original.meta.media.height">720</property>
  <property name="kdenlive:original.meta.media.color_range">mpeg</property>
  <property name="kdenlive:original.meta.media.top_field_first">0</property>
  <property name="kdenlive:original.meta.media.progressive">1</property>
  <property name="kdenlive:original.kdenlive:clip_type">0</property>
  <property name="kdenlive:original.kdenlive:folderid">11</property>
  <property name="kdenlive:original.kdenlive:id">20</property>
  <property name="kdenlive:original.kdenlive:file_size">21653455</property>
  <property name="kdenlive:original.kdenlive:file_hash">916e1b7229391f7f6103e83c90f07e88</property>
  <property name="kdenlive:original.backup">1</property>
  <property name="kdenlive:audio_max1">237</property>
  <property name="meta.media.frame_rate_num">30000</property>
  <property name="meta.media.frame_rate_den">1001</property>
  <property name="meta.media.colorspace">601</property>
  <property name="meta.media.color_trc">1</property>
  <property name="meta.media.has_b_frames">0</property>
  <property name="meta.media.width">640</property>
  <property name="meta.media.height">360</property>
  <property name="meta.media.color_range">full</property>
  <property name="meta.media.top_field_first">0</property>
  <property name="meta.media.progressive">1</property>
  <property name="kdenlive:active_streams">-1</property>
  <property name="set.test_audio">1</property>
 </producer>
 <producer id="producer9" in="00:00:00.000" out="00:00:05.467">
  <property name="length">165</property>
  <property name="eof">pause</property>
  <property name="resource">images/what-we-know-about-the-desantis-disney-rift.png</property>
  <property name="ttl">25</property>
  <property name="aspect_ratio">1</property>
  <property name="progressive">1</property>
  <property name="seekable">1</property>
  <property name="meta.media.width">1024</property>
  <property name="meta.media.height">768</property>
  <property name="mlt_service">qimage</property>
  <property name="kdenlive:clipname"/>
  <property name="kdenlive:duration">00:00:05.000</property>
  <property name="kdenlive:folderid">9</property>
  <property name="kdenlive:clip_type">2</property>
  <property name="kdenlive:id">17</property>
  <property name="kdenlive:file_size">583916</property>
  <property name="kdenlive:file_hash">8c2a7b821178ed79a309df6232a0842c</property>
 </producer>
 <producer id="producer13" in="00:00:00.000" out="00:02:02.000">
  <property name="length">3661</property>
  <property name="eof">pause</property>
  <property name="resource">/home/liquidzulu/.cache/kdenlive/proxy/434810db5fcacd43a5eae45a84e65a80.mkv</property>
  <property name="meta.media.nb_streams">2</property>
  <property name="meta.media.0.stream.type">video</property>
  <property name="meta.media.0.stream.frame_rate">29.97</property>
  <property name="meta.media.0.stream.sample_aspect_ratio">1</property>
  <property name="meta.media.0.codec.width">640</property>
  <property name="meta.media.0.codec.height">360</property>
  <property name="meta.media.0.codec.rotate">0</property>
  <property name="meta.media.0.codec.pix_fmt">yuvj420p</property>
  <property name="meta.media.0.codec.sample_aspect_ratio">1</property>
  <property name="meta.media.0.codec.colorspace">601</property>
  <property name="meta.media.0.codec.color_trc">1</property>
  <property name="meta.media.0.codec.name">mjpeg</property>
  <property name="meta.media.0.codec.long_name">MJPEG (Motion JPEG)</property>
  <property name="meta.media.0.codec.bit_rate">0</property>
  <property name="meta.attr.0.stream.HANDLER_NAME.markup">ISO Media file produced by Google Inc.</property>
  <property name="meta.attr.0.stream.VENDOR_ID.markup">[0][0][0][0]</property>
  <property name="meta.attr.0.stream.ENCODER.markup">Lavc59.18.100 mjpeg</property>
  <property name="meta.attr.0.stream.DURATION.markup">00:02:01.988000000</property>
  <property name="meta.media.1.stream.type">audio</property>
  <property name="meta.media.1.codec.sample_fmt">s16</property>
  <property name="meta.media.1.codec.sample_rate">44100</property>
  <property name="meta.media.1.codec.channels">2</property>
  <property name="meta.media.1.codec.name">pcm_s16le</property>
  <property name="meta.media.1.codec.long_name">PCM signed 16-bit little-endian</property>
  <property name="meta.media.1.codec.bit_rate">1411200</property>
  <property name="meta.attr.1.stream.language.markup">eng</property>
  <property name="meta.attr.1.stream.HANDLER_NAME.markup">ISO Media file produced by Google Inc.</property>
  <property name="meta.attr.1.stream.VENDOR_ID.markup">[0][0][0][0]</property>
  <property name="meta.attr.1.stream.ENCODER.markup">Lavc59.18.100 pcm_s16le</property>
  <property name="meta.attr.1.stream.DURATION.markup">00:02:02.044000000</property>
  <property name="meta.attr.COMPATIBLE_BRANDS.markup">isomiso2avc1mp41</property>
  <property name="meta.attr.MAJOR_BRAND.markup">isom</property>
  <property name="meta.attr.MINOR_VERSION.markup">512</property>
  <property name="meta.attr.ENCODER.markup">Lavf59.16.100</property>
  <property name="seekable">1</property>
  <property name="meta.media.sample_aspect_num">1</property>
  <property name="meta.media.sample_aspect_den">1</property>
  <property name="aspect_ratio">1</property>
  <property name="audio_index">-1</property>
  <property name="video_index">0</property>
  <property name="mute_on_pause">0</property>
  <property name="mlt_service">avformat-novalidate</property>
  <property name="kdenlive:clipname">Walt Disney World Resort Destination Promo Video (2020) [mEyUzQUH-IY].mp4</property>
  <property name="kdenlive:clip_type">0</property>
  <property name="kdenlive:folderid">11</property>
  <property name="kdenlive:id">18</property>
  <property name="kdenlive:file_size">61283966</property>
  <property name="kdenlive:file_hash">434810db5fcacd43a5eae45a84e65a80</property>
  <property name="kdenlive:proxy">/home/liquidzulu/.cache/kdenlive/proxy/434810db5fcacd43a5eae45a84e65a80.mkv</property>
  <property name="kdenlive:originalurl">b-roll/Walt Disney World Resort Destination Promo Video (2020) [mEyUzQUH-IY].mp4</property>
  <property name="kdenlive:original.mlt_type">producer</property>
  <property name="kdenlive:original.in">0</property>
  <property name="kdenlive:original.out">3660</property>
  <property name="kdenlive:original.length">3661</property>
  <property name="kdenlive:original.eof">pause</property>
  <property name="kdenlive:original.resource">b-roll/Walt Disney World Resort Destination Promo Video (2020) [mEyUzQUH-IY].mp4</property>
  <property name="kdenlive:original.meta.media.nb_streams">2</property>
  <property name="kdenlive:original.meta.media.0.stream.type">video</property>
  <property name="kdenlive:original.meta.media.0.stream.frame_rate">29.97</property>
  <property name="kdenlive:original.meta.media.0.stream.sample_aspect_ratio">1</property>
  <property name="kdenlive:original.meta.media.0.codec.width">1920</property>
  <property name="kdenlive:original.meta.media.0.codec.height">1080</property>
  <property name="kdenlive:original.meta.media.0.codec.rotate">0</property>
  <property name="kdenlive:original.meta.media.0.codec.pix_fmt">yuv420p</property>
  <property name="kdenlive:original.meta.media.0.codec.sample_aspect_ratio">1</property>
  <property name="kdenlive:original.meta.media.0.codec.colorspace">709</property>
  <property name="kdenlive:original.meta.media.0.codec.color_trc">1</property>
  <property name="kdenlive:original.meta.media.0.codec.name">h264</property>
  <property name="kdenlive:original.meta.media.0.codec.long_name">H.264 / AVC / MPEG-4 AVC / MPEG-4 part 10</property>
  <property name="kdenlive:original.meta.media.0.codec.bit_rate">3882675</property>
  <property name="kdenlive:original.meta.attr.0.stream.handler_name.markup">ISO Media file produced by Google Inc.</property>
  <property name="kdenlive:original.meta.attr.0.stream.vendor_id.markup">[0][0][0][0]</property>
  <property name="kdenlive:original.meta.media.1.stream.type">audio</property>
  <property name="kdenlive:original.meta.media.1.codec.sample_fmt">fltp</property>
  <property name="kdenlive:original.meta.media.1.codec.sample_rate">44100</property>
  <property name="kdenlive:original.meta.media.1.codec.channels">2</property>
  <property name="kdenlive:original.meta.media.1.codec.name">aac</property>
  <property name="kdenlive:original.meta.media.1.codec.long_name">AAC (Advanced Audio Coding)</property>
  <property name="kdenlive:original.meta.media.1.codec.bit_rate">127999</property>
  <property name="kdenlive:original.meta.attr.1.stream.language.markup">eng</property>
  <property name="kdenlive:original.meta.attr.1.stream.handler_name.markup">ISO Media file produced by Google Inc.</property>
  <property name="kdenlive:original.meta.attr.1.stream.vendor_id.markup">[0][0][0][0]</property>
  <property name="kdenlive:original.meta.attr.major_brand.markup">isom</property>
  <property name="kdenlive:original.meta.attr.minor_version.markup">512</property>
  <property name="kdenlive:original.meta.attr.compatible_brands.markup">isomiso2avc1mp41</property>
  <property name="kdenlive:original.meta.attr.encoder.markup">Lavf59.16.100</property>
  <property name="kdenlive:original.seekable">1</property>
  <property name="kdenlive:original.width">1920</property>
  <property name="kdenlive:original.height">1080</property>
  <property name="kdenlive:original.meta.media.sample_aspect_num">1</property>
  <property name="kdenlive:original.meta.media.sample_aspect_den">1</property>
  <property name="kdenlive:original.aspect_ratio">1</property>
  <property name="kdenlive:original.audio_index">1</property>
  <property name="kdenlive:original.video_index">0</property>
  <property name="kdenlive:original.mute_on_pause">0</property>
  <property name="kdenlive:original.mlt_service">avformat-novalidate</property>
  <property name="kdenlive:original.meta.media.frame_rate_num">30000</property>
  <property name="kdenlive:original.meta.media.frame_rate_den">1001</property>
  <property name="kdenlive:original.meta.media.colorspace">709</property>
  <property name="kdenlive:original.meta.media.color_trc">1</property>
  <property name="kdenlive:original.meta.media.has_b_frames">1</property>
  <property name="kdenlive:original.meta.media.width">1920</property>
  <property name="kdenlive:original.meta.media.height">1080</property>
  <property name="kdenlive:original.meta.media.color_range">mpeg</property>
  <property name="kdenlive:original.meta.media.top_field_first">0</property>
  <property name="kdenlive:original.meta.media.progressive">1</property>
  <property name="kdenlive:original.kdenlive:clip_type">0</property>
  <property name="kdenlive:original.kdenlive:folderid">11</property>
  <property name="kdenlive:original.kdenlive:id">22</property>
  <property name="kdenlive:original.kdenlive:file_size">61283966</property>
  <property name="kdenlive:original.kdenlive:file_hash">434810db5fcacd43a5eae45a84e65a80</property>
  <property name="kdenlive:original.backup">1</property>
  <property name="kdenlive:audio_max1">179</property>
  <property name="meta.media.frame_rate_num">30000</property>
  <property name="meta.media.frame_rate_den">1001</property>
  <property name="meta.media.colorspace">601</property>
  <property name="meta.media.color_trc">1</property>
  <property name="meta.media.has_b_frames">0</property>
  <property name="meta.media.width">640</property>
  <property name="meta.media.height">360</property>
  <property name="meta.media.color_range">full</property>
  <property name="meta.media.top_field_first">0</property>
  <property name="meta.media.progressive">1</property>
  <property name="kdenlive:active_streams">-1</property>
  <property name="set.test_audio">1</property>
 </producer>
 <producer id="producer11" in="00:00:00.000" out="00:00:04.967">
  <property name="length">00:00:05.000</property>
  <property name="eof">pause</property>
  <property name="resource">images/RCID-i.png</property>
  <property name="ttl">25</property>
  <property name="aspect_ratio">1</property>
  <property name="progressive">1</property>
  <property name="seekable">1</property>
  <property name="meta.media.width">2325</property>
  <property name="meta.media.height">1902</property>
  <property name="mlt_service">qimage</property>
  <property name="kdenlive:clipname"/>
  <property name="kdenlive:duration">00:00:05.000</property>
  <property name="kdenlive:folderid">9</property>
  <property name="kdenlive:clip_type">2</property>
  <property name="kdenlive:id">19</property>
  <property name="kdenlive:file_size">2612764</property>
  <property name="kdenlive:file_hash">0715835f018b4d70e8aa2c0fcff078b4</property>
 </producer>
 <producer id="producer10" in="00:00:00.000" out="00:00:04.967">
  <property name="length">00:00:05.000</property>
  <property name="eof">pause</property>
  <property name="resource">images/RCID-n.png</property>
  <property name="ttl">25</property>
  <property name="aspect_ratio">1</property>
  <property name="progressive">1</property>
  <property name="seekable">1</property>
  <property name="meta.media.width">2325</property>
  <property name="meta.media.height">1902</property>
  <property name="mlt_service">qimage</property>
  <property name="kdenlive:clipname"/>
  <property name="kdenlive:duration">00:00:05.000</property>
  <property name="kdenlive:folderid">9</property>
  <property name="kdenlive:clip_type">2</property>
  <property name="kdenlive:id">20</property>
  <property name="kdenlive:file_size">2636473</property>
  <property name="kdenlive:file_hash">ec0d411220abd31a8aa418669b100fb7</property>
 </producer>
 <producer id="producer12" in="00:00:00.000" out="00:00:04.967">
  <property name="length">00:00:05.000</property>
  <property name="eof">pause</property>
  <property name="resource">images/RCID-y.png</property>
  <property name="ttl">25</property>
  <property name="aspect_ratio">1</property>
  <property name="progressive">1</property>
  <property name="seekable">1</property>
  <property name="meta.media.width">2325</property>
  <property name="meta.media.height">1902</property>
  <property name="mlt_service">qimage</property>
  <property name="kdenlive:clipname"/>
  <property name="kdenlive:duration">00:00:05.000</property>
  <property name="kdenlive:folderid">9</property>
  <property name="kdenlive:clip_type">2</property>
  <property name="kdenlive:id">21</property>
  <property name="kdenlive:file_size">2582998</property>
  <property name="kdenlive:file_hash">04a5502c9192edfb8389abf5c879dc5c</property>
 </producer>
 <producer id="producer16" in="00:00:00.000" out="00:04:46.200">
  <property name="length">8587</property>
  <property name="eof">pause</property>
  <property name="resource">/home/liquidzulu/Pictures/youtube/assets/watermark-mono.png</property>
  <property name="ttl">25</property>
  <property name="aspect_ratio">1</property>
  <property name="progressive">1</property>
  <property name="seekable">1</property>
  <property name="meta.media.width">1138</property>
  <property name="meta.media.height">213</property>
  <property name="mlt_service">qimage</property>
  <property name="kdenlive:clipname"/>
  <property name="kdenlive:duration">00:00:05.000</property>
  <property name="kdenlive:folderid">-1</property>
  <property name="kdenlive:clip_type">2</property>
  <property name="kdenlive:id">22</property>
  <property name="kdenlive:file_size">16622</property>
  <property name="kdenlive:file_hash">3d7da25421bb130cba76c598125dac65</property>
 </producer>
 <producer id="producer14" in="00:00:00.000" out="00:06:49.533">
  <property name="length">12287</property>
  <property name="eof">pause</property>
  <property name="resource">/home/liquidzulu/.cache/kdenlive/proxy/0343980630762793a5feba7a2942fe16.mkv</property>
  <property name="meta.media.nb_streams">2</property>
  <property name="meta.media.0.stream.type">video</property>
  <property name="meta.media.0.stream.frame_rate">30</property>
  <property name="meta.media.0.stream.sample_aspect_ratio">1</property>
  <property name="meta.media.0.codec.width">640</property>
  <property name="meta.media.0.codec.height">360</property>
  <property name="meta.media.0.codec.rotate">0</property>
  <property name="meta.media.0.codec.pix_fmt">yuvj420p</property>
  <property name="meta.media.0.codec.sample_aspect_ratio">1</property>
  <property name="meta.media.0.codec.colorspace">601</property>
  <property name="meta.media.0.codec.color_trc">1</property>
  <property name="meta.media.0.codec.name">mjpeg</property>
  <property name="meta.media.0.codec.long_name">MJPEG (Motion JPEG)</property>
  <property name="meta.media.0.codec.bit_rate">0</property>
  <property name="meta.attr.0.stream.ENCODER.markup">Lavc59.18.100 mjpeg</property>
  <property name="meta.attr.0.stream.DURATION.markup">00:06:49.566000000</property>
  <property name="meta.media.1.stream.type">audio</property>
  <property name="meta.media.1.codec.sample_fmt">s16</property>
  <property name="meta.media.1.codec.sample_rate">48000</property>
  <property name="meta.media.1.codec.channels">2</property>
  <property name="meta.media.1.codec.name">pcm_s16le</property>
  <property name="meta.media.1.codec.long_name">PCM signed 16-bit little-endian</property>
  <property name="meta.media.1.codec.bit_rate">1536000</property>
  <property name="meta.attr.1.stream.title.markup">simple_aac_recording</property>
  <property name="meta.attr.1.stream.ENCODER.markup">Lavc59.18.100 pcm_s16le</property>
  <property name="meta.attr.1.stream.DURATION.markup">00:06:49.515000000</property>
  <property name="meta.attr.ENCODER.markup">Lavf59.16.100</property>
  <property name="seekable">1</property>
  <property name="meta.media.sample_aspect_num">1</property>
  <property name="meta.media.sample_aspect_den">1</property>
  <property name="aspect_ratio">1</property>
  <property name="audio_index">1</property>
  <property name="video_index">0</property>
  <property name="mute_on_pause">0</property>
  <property name="mlt_service">avformat</property>
  <property name="kdenlive:clipname">2022-06-05 10-22-57.mkv</property>
  <property name="kdenlive:clip_type">0</property>
  <property name="kdenlive:folderid">26</property>
  <property name="kdenlive:id">2</property>
  <property name="kdenlive:file_size">322057182</property>
  <property name="kdenlive:file_hash">0343980630762793a5feba7a2942fe16</property>
  <property name="kdenlive:proxy">/home/liquidzulu/.cache/kdenlive/proxy/0343980630762793a5feba7a2942fe16.mkv</property>
  <property name="kdenlive:originalurl">2022-06-05 10-22-57.mkv</property>
  <property name="kdenlive:original.mlt_type">producer</property>
  <property name="kdenlive:original.in">0</property>
  <property name="kdenlive:original.out">10238</property>
  <property name="kdenlive:original.length">10239</property>
  <property name="kdenlive:original.eof">pause</property>
  <property name="kdenlive:original.resource">2022-06-05 10-22-57.mkv</property>
  <property name="kdenlive:original.meta.media.nb_streams">2</property>
  <property name="kdenlive:original.meta.media.0.stream.type">video</property>
  <property name="kdenlive:original.meta.media.0.stream.frame_rate">30</property>
  <property name="kdenlive:original.meta.media.0.stream.sample_aspect_ratio">0</property>
  <property name="kdenlive:original.meta.media.0.codec.width">1920</property>
  <property name="kdenlive:original.meta.media.0.codec.height">1080</property>
  <property name="kdenlive:original.meta.media.0.codec.rotate">0</property>
  <property name="kdenlive:original.meta.media.0.codec.pix_fmt">yuv420p</property>
  <property name="kdenlive:original.meta.media.0.codec.sample_aspect_ratio">1</property>
  <property name="kdenlive:original.meta.media.0.codec.colorspace">709</property>
  <property name="kdenlive:original.meta.media.0.codec.color_trc">1</property>
  <property name="kdenlive:original.meta.media.0.codec.name">h264</property>
  <property name="kdenlive:original.meta.media.0.codec.long_name">H.264 / AVC / MPEG-4 AVC / MPEG-4 part 10</property>
  <property name="kdenlive:original.meta.media.0.codec.bit_rate">0</property>
  <property name="kdenlive:original.meta.attr.0.stream.DURATION.markup">00:06:49.566000000</property>
  <property name="kdenlive:original.meta.media.1.stream.type">audio</property>
  <property name="kdenlive:original.meta.media.1.codec.sample_fmt">fltp</property>
  <property name="kdenlive:original.meta.media.1.codec.sample_rate">48000</property>
  <property name="kdenlive:original.meta.media.1.codec.channels">2</property>
  <property name="kdenlive:original.meta.media.1.codec.name">aac</property>
  <property name="kdenlive:original.meta.media.1.codec.long_name">AAC (Advanced Audio Coding)</property>
  <property name="kdenlive:original.meta.media.1.codec.bit_rate">0</property>
  <property name="kdenlive:original.meta.attr.1.stream.title.markup">simple_aac_recording</property>
  <property name="kdenlive:original.meta.attr.1.stream.DURATION.markup">00:06:49.514000000</property>
  <property name="kdenlive:original.meta.attr.ENCODER.markup">Lavf58.76.100</property>
  <property name="kdenlive:original.seekable">1</property>
  <property name="kdenlive:original.width">1920</property>
  <property name="kdenlive:original.height">1080</property>
  <property name="kdenlive:original.meta.media.sample_aspect_num">1</property>
  <property name="kdenlive:original.meta.media.sample_aspect_den">1</property>
  <property name="kdenlive:original.aspect_ratio">1</property>
  <property name="kdenlive:original.audio_index">1</property>
  <property name="kdenlive:original.video_index">0</property>
  <property name="kdenlive:original.mute_on_pause">0</property>
  <property name="kdenlive:original.mlt_service">avformat-novalidate</property>
  <property name="kdenlive:original.meta.media.frame_rate_num">30</property>
  <property name="kdenlive:original.meta.media.frame_rate_den">1</property>
  <property name="kdenlive:original.meta.media.colorspace">709</property>
  <property name="kdenlive:original.meta.media.color_trc">1</property>
  <property name="kdenlive:original.meta.media.has_b_frames">1</property>
  <property name="kdenlive:original.meta.media.width">1920</property>
  <property name="kdenlive:original.meta.media.height">1080</property>
  <property name="kdenlive:original.meta.media.color_range">mpeg</property>
  <property name="kdenlive:original.meta.media.top_field_first">0</property>
  <property name="kdenlive:original.meta.media.progressive">1</property>
  <property name="kdenlive:original.kdenlive:clip_type">0</property>
  <property name="kdenlive:original.kdenlive:folderid">-1</property>
  <property name="kdenlive:original.kdenlive:id">2</property>
  <property name="kdenlive:original.kdenlive:file_size">322057182</property>
  <property name="kdenlive:original.kdenlive:file_hash">0343980630762793a5feba7a2942fe16</property>
  <property name="kdenlive:original.backup">1</property>
  <property name="kdenlive:audio_max1">106</property>
  <property name="meta.media.frame_rate_num">30</property>
  <property name="meta.media.frame_rate_den">1</property>
  <property name="meta.media.colorspace">601</property>
  <property name="meta.media.color_trc">1</property>
  <property name="meta.media.has_b_frames">0</property>
  <property name="meta.media.width">640</property>
  <property name="meta.media.height">360</property>
  <property name="meta.media.color_range">full</property>
  <property name="meta.media.top_field_first">0</property>
  <property name="meta.media.progressive">1</property>
 </producer>
 <producer id="producer17" in="00:00:00.000" out="00:00:04.967">
  <property name="length">00:00:05.000</property>
  <property name="eof">pause</property>
  <property name="resource">b-roll/disney nuclear.png</property>
  <property name="ttl">25</property>
  <property name="aspect_ratio">1</property>
  <property name="progressive">1</property>
  <property name="seekable">1</property>
  <property name="meta.media.width">1024</property>
  <property name="meta.media.height">768</property>
  <property name="mlt_service">qimage</property>
  <property name="kdenlive:clipname"/>
  <property name="kdenlive:duration">00:00:05.000</property>
  <property name="kdenlive:folderid">9</property>
  <property name="kdenlive:clip_type">2</property>
  <property name="kdenlive:id">27</property>
  <property name="kdenlive:file_size">471287</property>
  <property name="kdenlive:file_hash">b941044eca40db8b17e8106fc2c51aff</property>
 </producer>
 <producer id="producer18" in="00:00:00.000" out="00:03:45.633">
  <property name="length">6770</property>
  <property name="eof">pause</property>
  <property name="resource">/home/liquidzulu/.cache/kdenlive/proxy/42e51dc9e08f383e76bb71ac70d2453d.mkv</property>
  <property name="meta.media.nb_streams">2</property>
  <property name="meta.media.0.stream.type">video</property>
  <property name="meta.media.0.stream.frame_rate">29.97</property>
  <property name="meta.media.0.stream.sample_aspect_ratio">1</property>
  <property name="meta.media.0.codec.width">640</property>
  <property name="meta.media.0.codec.height">360</property>
  <property name="meta.media.0.codec.rotate">0</property>
  <property name="meta.media.0.codec.pix_fmt">yuvj420p</property>
  <property name="meta.media.0.codec.sample_aspect_ratio">1</property>
  <property name="meta.media.0.codec.colorspace">601</property>
  <property name="meta.media.0.codec.color_trc">1</property>
  <property name="meta.media.0.codec.name">mjpeg</property>
  <property name="meta.media.0.codec.long_name">MJPEG (Motion JPEG)</property>
  <property name="meta.media.0.codec.bit_rate">0</property>
  <property name="meta.attr.0.stream.HANDLER_NAME.markup">ISO Media file produced by Google Inc.</property>
  <property name="meta.attr.0.stream.VENDOR_ID.markup">[0][0][0][0]</property>
  <property name="meta.attr.0.stream.ENCODER.markup">Lavc59.18.100 mjpeg</property>
  <property name="meta.attr.0.stream.DURATION.markup">00:03:45.592000000</property>
  <property name="meta.media.1.stream.type">audio</property>
  <property name="meta.media.1.codec.sample_fmt">s16</property>
  <property name="meta.media.1.codec.sample_rate">44100</property>
  <property name="meta.media.1.codec.channels">2</property>
  <property name="meta.media.1.codec.name">pcm_s16le</property>
  <property name="meta.media.1.codec.long_name">PCM signed 16-bit little-endian</property>
  <property name="meta.media.1.codec.bit_rate">1411200</property>
  <property name="meta.attr.1.stream.HANDLER_NAME.markup">ISO Media file produced by Google Inc.</property>
  <property name="meta.attr.1.stream.VENDOR_ID.markup">[0][0][0][0]</property>
  <property name="meta.attr.1.stream.ENCODER.markup">Lavc59.18.100 pcm_s16le</property>
  <property name="meta.attr.1.stream.DURATION.markup">00:03:45.651000000</property>
  <property name="meta.attr.COMPATIBLE_BRANDS.markup">isomiso2avc1mp41</property>
  <property name="meta.attr.MAJOR_BRAND.markup">isom</property>
  <property name="meta.attr.MINOR_VERSION.markup">512</property>
  <property name="meta.attr.ENCODER.markup">Lavf59.16.100</property>
  <property name="seekable">1</property>
  <property name="meta.media.sample_aspect_num">1</property>
  <property name="meta.media.sample_aspect_den">1</property>
  <property name="aspect_ratio">1</property>
  <property name="audio_index">-1</property>
  <property name="video_index">0</property>
  <property name="mute_on_pause">0</property>
  <property name="mlt_service">avformat</property>
  <property name="kdenlive:clipname">Reed Creek firefighters worry about Disney World services if state dissolves the district [0OkFEFwXxo4].mp4</property>
  <property name="kdenlive:clip_type">2</property>
  <property name="kdenlive:folderid">11</property>
  <property name="kdenlive:id">23</property>
  <property name="kdenlive:file_size">65921694</property>
  <property name="kdenlive:file_hash">42e51dc9e08f383e76bb71ac70d2453d</property>
  <property name="kdenlive:proxy">/home/liquidzulu/.cache/kdenlive/proxy/42e51dc9e08f383e76bb71ac70d2453d.mkv</property>
  <property name="kdenlive:originalurl">b-roll/Reed Creek firefighters worry about Disney World services if state dissolves the district [0OkFEFwXxo4].mp4</property>
  <property name="kdenlive:original.mlt_type">producer</property>
  <property name="kdenlive:original.in">0</property>
  <property name="kdenlive:original.out">6769</property>
  <property name="kdenlive:original.length">6770</property>
  <property name="kdenlive:original.eof">pause</property>
  <property name="kdenlive:original.resource">b-roll/Reed Creek firefighters worry about Disney World services if state dissolves the district [0OkFEFwXxo4].mp4</property>
  <property name="kdenlive:original.meta.media.nb_streams">2</property>
  <property name="kdenlive:original.meta.media.0.stream.type">video</property>
  <property name="kdenlive:original.meta.media.0.stream.frame_rate">29.97</property>
  <property name="kdenlive:original.meta.media.0.stream.sample_aspect_ratio">1</property>
  <property name="kdenlive:original.meta.media.0.codec.width">1920</property>
  <property name="kdenlive:original.meta.media.0.codec.height">1080</property>
  <property name="kdenlive:original.meta.media.0.codec.rotate">0</property>
  <property name="kdenlive:original.meta.media.0.codec.pix_fmt">yuv420p</property>
  <property name="kdenlive:original.meta.media.0.codec.sample_aspect_ratio">1</property>
  <property name="kdenlive:original.meta.media.0.codec.colorspace">709</property>
  <property name="kdenlive:original.meta.media.0.codec.color_trc">1</property>
  <property name="kdenlive:original.meta.media.0.codec.name">h264</property>
  <property name="kdenlive:original.meta.media.0.codec.long_name">H.264 / AVC / MPEG-4 AVC / MPEG-4 part 10</property>
  <property name="kdenlive:original.meta.media.0.codec.bit_rate">2201897</property>
  <property name="kdenlive:original.meta.attr.0.stream.handler_name.markup">ISO Media file produced by Google Inc.</property>
  <property name="kdenlive:original.meta.attr.0.stream.vendor_id.markup">[0][0][0][0]</property>
  <property name="kdenlive:original.meta.media.1.stream.type">audio</property>
  <property name="kdenlive:original.meta.media.1.codec.sample_fmt">fltp</property>
  <property name="kdenlive:original.meta.media.1.codec.sample_rate">44100</property>
  <property name="kdenlive:original.meta.media.1.codec.channels">2</property>
  <property name="kdenlive:original.meta.media.1.codec.name">aac</property>
  <property name="kdenlive:original.meta.media.1.codec.long_name">AAC (Advanced Audio Coding)</property>
  <property name="kdenlive:original.meta.media.1.codec.bit_rate">128005</property>
  <property name="kdenlive:original.meta.attr.1.stream.handler_name.markup">ISO Media file produced by Google Inc.</property>
  <property name="kdenlive:original.meta.attr.1.stream.vendor_id.markup">[0][0][0][0]</property>
  <property name="kdenlive:original.meta.attr.major_brand.markup">isom</property>
  <property name="kdenlive:original.meta.attr.minor_version.markup">512</property>
  <property name="kdenlive:original.meta.attr.compatible_brands.markup">isomiso2avc1mp41</property>
  <property name="kdenlive:original.meta.attr.encoder.markup">Lavf59.16.100</property>
  <property name="kdenlive:original.seekable">1</property>
  <property name="kdenlive:original.width">1920</property>
  <property name="kdenlive:original.height">1080</property>
  <property name="kdenlive:original.meta.media.sample_aspect_num">1</property>
  <property name="kdenlive:original.meta.media.sample_aspect_den">1</property>
  <property name="kdenlive:original.aspect_ratio">1</property>
  <property name="kdenlive:original.audio_index">1</property>
  <property name="kdenlive:original.video_index">0</property>
  <property name="kdenlive:original.mute_on_pause">0</property>
  <property name="kdenlive:original.mlt_service">avformat-novalidate</property>
  <property name="kdenlive:original.meta.media.frame_rate_num">30000</property>
  <property name="kdenlive:original.meta.media.frame_rate_den">1001</property>
  <property name="kdenlive:original.meta.media.colorspace">709</property>
  <property name="kdenlive:original.meta.media.color_trc">1</property>
  <property name="kdenlive:original.meta.media.has_b_frames">1</property>
  <property name="kdenlive:original.meta.media.width">1920</property>
  <property name="kdenlive:original.meta.media.height">1080</property>
  <property name="kdenlive:original.meta.media.color_range">mpeg</property>
  <property name="kdenlive:original.meta.media.top_field_first">0</property>
  <property name="kdenlive:original.meta.media.progressive">1</property>
  <property name="kdenlive:original.kdenlive:clip_type">0</property>
  <property name="kdenlive:original.kdenlive:folderid">11</property>
  <property name="kdenlive:original.kdenlive:id">23</property>
  <property name="kdenlive:original.kdenlive:file_size">65921694</property>
  <property name="kdenlive:original.kdenlive:file_hash">42e51dc9e08f383e76bb71ac70d2453d</property>
  <property name="kdenlive:original.backup">1</property>
  <property name="kdenlive:audio_max1">206</property>
  <property name="kdenlive:active_streams">-1</property>
  <property name="set.test_audio">1</property>
  <property name="meta.media.frame_rate_num">30000</property>
  <property name="meta.media.frame_rate_den">1001</property>
  <property name="meta.media.colorspace">601</property>
  <property name="meta.media.color_trc">1</property>
  <property name="meta.media.has_b_frames">0</property>
  <property name="meta.media.width">640</property>
  <property name="meta.media.height">360</property>
  <property name="meta.media.color_range">full</property>
  <property name="meta.media.top_field_first">0</property>
  <property name="meta.media.progressive">1</property>
 </producer>
 <producer id="producer19" in="00:00:00.000" out="00:02:36.067">
  <property name="length">4683</property>
  <property name="eof">pause</property>
  <property name="resource">/home/liquidzulu/.cache/kdenlive/proxy/52f0467ea2c6ce04434f63b0b5805b90.mkv</property>
  <property name="meta.media.nb_streams">2</property>
  <property name="meta.media.0.stream.type">video</property>
  <property name="meta.media.0.stream.frame_rate">29.97</property>
  <property name="meta.media.0.stream.sample_aspect_ratio">1</property>
  <property name="meta.media.0.codec.width">640</property>
  <property name="meta.media.0.codec.height">360</property>
  <property name="meta.media.0.codec.rotate">0</property>
  <property name="meta.media.0.codec.pix_fmt">yuvj420p</property>
  <property name="meta.media.0.codec.sample_aspect_ratio">1</property>
  <property name="meta.media.0.codec.colorspace">601</property>
  <property name="meta.media.0.codec.color_trc">1</property>
  <property name="meta.media.0.codec.name">mjpeg</property>
  <property name="meta.media.0.codec.long_name">MJPEG (Motion JPEG)</property>
  <property name="meta.media.0.codec.bit_rate">0</property>
  <property name="meta.attr.0.stream.HANDLER_NAME.markup">ISO Media file produced by Google Inc.</property>
  <property name="meta.attr.0.stream.VENDOR_ID.markup">[0][0][0][0]</property>
  <property name="meta.attr.0.stream.ENCODER.markup">Lavc59.18.100 mjpeg</property>
  <property name="meta.attr.0.stream.DURATION.markup">00:02:36.022000000</property>
  <property name="meta.media.1.stream.type">audio</property>
  <property name="meta.media.1.codec.sample_fmt">s16</property>
  <property name="meta.media.1.codec.sample_rate">44100</property>
  <property name="meta.media.1.codec.channels">2</property>
  <property name="meta.media.1.codec.name">pcm_s16le</property>
  <property name="meta.media.1.codec.long_name">PCM signed 16-bit little-endian</property>
  <property name="meta.media.1.codec.bit_rate">1411200</property>
  <property name="meta.attr.1.stream.language.markup">eng</property>
  <property name="meta.attr.1.stream.HANDLER_NAME.markup">ISO Media file produced by Google Inc.</property>
  <property name="meta.attr.1.stream.VENDOR_ID.markup">[0][0][0][0]</property>
  <property name="meta.attr.1.stream.ENCODER.markup">Lavc59.18.100 pcm_s16le</property>
  <property name="meta.attr.1.stream.DURATION.markup">00:02:36.084000000</property>
  <property name="meta.attr.COMPATIBLE_BRANDS.markup">isomiso2avc1mp41</property>
  <property name="meta.attr.MAJOR_BRAND.markup">isom</property>
  <property name="meta.attr.MINOR_VERSION.markup">512</property>
  <property name="meta.attr.ENCODER.markup">Lavf59.16.100</property>
  <property name="seekable">1</property>
  <property name="meta.media.sample_aspect_num">1</property>
  <property name="meta.media.sample_aspect_den">1</property>
  <property name="aspect_ratio">1</property>
  <property name="audio_index">-1</property>
  <property name="video_index">0</property>
  <property name="mute_on_pause">0</property>
  <property name="mlt_service">avformat</property>
  <property name="kdenlive:clipname">Disney Solar Farm Helps Make The World A Better Place _ Walt Disney World Resort [6khFZSS2pW0].mp4</property>
  <property name="kdenlive:clip_type">2</property>
  <property name="kdenlive:folderid">11</property>
  <property name="kdenlive:id">25</property>
  <property name="kdenlive:file_size">63046184</property>
  <property name="kdenlive:file_hash">52f0467ea2c6ce04434f63b0b5805b90</property>
  <property name="kdenlive:proxy">/home/liquidzulu/.cache/kdenlive/proxy/52f0467ea2c6ce04434f63b0b5805b90.mkv</property>
  <property name="kdenlive:originalurl">b-roll/Disney Solar Farm Helps Make The World A Better Place _ Walt Disney World Resort [6khFZSS2pW0].mp4</property>
  <property name="kdenlive:original.mlt_type">producer</property>
  <property name="kdenlive:original.in">0</property>
  <property name="kdenlive:original.out">4682</property>
  <property name="kdenlive:original.length">4683</property>
  <property name="kdenlive:original.eof">pause</property>
  <property name="kdenlive:original.resource">b-roll/Disney Solar Farm Helps Make The World A Better Place _ Walt Disney World Resort [6khFZSS2pW0].mp4</property>
  <property name="kdenlive:original.meta.media.nb_streams">2</property>
  <property name="kdenlive:original.meta.media.0.stream.type">video</property>
  <property name="kdenlive:original.meta.media.0.stream.frame_rate">29.97</property>
  <property name="kdenlive:original.meta.media.0.stream.sample_aspect_ratio">1</property>
  <property name="kdenlive:original.meta.media.0.codec.width">1920</property>
  <property name="kdenlive:original.meta.media.0.codec.height">1080</property>
  <property name="kdenlive:original.meta.media.0.codec.rotate">0</property>
  <property name="kdenlive:original.meta.media.0.codec.pix_fmt">yuv420p</property>
  <property name="kdenlive:original.meta.media.0.codec.sample_aspect_ratio">1</property>
  <property name="kdenlive:original.meta.media.0.codec.colorspace">709</property>
  <property name="kdenlive:original.meta.media.0.codec.color_trc">1</property>
  <property name="kdenlive:original.meta.media.0.codec.name">h264</property>
  <property name="kdenlive:original.meta.media.0.codec.long_name">H.264 / AVC / MPEG-4 AVC / MPEG-4 part 10</property>
  <property name="kdenlive:original.meta.media.0.codec.bit_rate">3096277</property>
  <property name="kdenlive:original.meta.attr.0.stream.handler_name.markup">ISO Media file produced by Google Inc.</property>
  <property name="kdenlive:original.meta.attr.0.stream.vendor_id.markup">[0][0][0][0]</property>
  <property name="kdenlive:original.meta.media.1.stream.type">audio</property>
  <property name="kdenlive:original.meta.media.1.codec.sample_fmt">fltp</property>
  <property name="kdenlive:original.meta.media.1.codec.sample_rate">44100</property>
  <property name="kdenlive:original.meta.media.1.codec.channels">2</property>
  <property name="kdenlive:original.meta.media.1.codec.name">aac</property>
  <property name="kdenlive:original.meta.media.1.codec.long_name">AAC (Advanced Audio Coding)</property>
  <property name="kdenlive:original.meta.media.1.codec.bit_rate">127999</property>
  <property name="kdenlive:original.meta.attr.1.stream.language.markup">eng</property>
  <property name="kdenlive:original.meta.attr.1.stream.handler_name.markup">ISO Media file produced by Google Inc.</property>
  <property name="kdenlive:original.meta.attr.1.stream.vendor_id.markup">[0][0][0][0]</property>
  <property name="kdenlive:original.meta.attr.major_brand.markup">isom</property>
  <property name="kdenlive:original.meta.attr.minor_version.markup">512</property>
  <property name="kdenlive:original.meta.attr.compatible_brands.markup">isomiso2avc1mp41</property>
  <property name="kdenlive:original.meta.attr.encoder.markup">Lavf59.16.100</property>
  <property name="kdenlive:original.seekable">1</property>
  <property name="kdenlive:original.width">1920</property>
  <property name="kdenlive:original.height">1080</property>
  <property name="kdenlive:original.meta.media.sample_aspect_num">1</property>
  <property name="kdenlive:original.meta.media.sample_aspect_den">1</property>
  <property name="kdenlive:original.aspect_ratio">1</property>
  <property name="kdenlive:original.audio_index">1</property>
  <property name="kdenlive:original.video_index">0</property>
  <property name="kdenlive:original.mute_on_pause">0</property>
  <property name="kdenlive:original.mlt_service">avformat-novalidate</property>
  <property name="kdenlive:original.meta.media.frame_rate_num">30000</property>
  <property name="kdenlive:original.meta.media.frame_rate_den">1001</property>
  <property name="kdenlive:original.meta.media.colorspace">709</property>
  <property name="kdenlive:original.meta.media.color_trc">1</property>
  <property name="kdenlive:original.meta.media.has_b_frames">1</property>
  <property name="kdenlive:original.meta.media.width">1920</property>
  <property name="kdenlive:original.meta.media.height">1080</property>
  <property name="kdenlive:original.meta.media.color_range">mpeg</property>
  <property name="kdenlive:original.meta.media.top_field_first">0</property>
  <property name="kdenlive:original.meta.media.progressive">1</property>
  <property name="kdenlive:original.kdenlive:clip_type">0</property>
  <property name="kdenlive:original.kdenlive:folderid">11</property>
  <property name="kdenlive:original.kdenlive:id">25</property>
  <property name="kdenlive:original.kdenlive:file_size">63046184</property>
  <property name="kdenlive:original.kdenlive:file_hash">52f0467ea2c6ce04434f63b0b5805b90</property>
  <property name="kdenlive:original.backup">1</property>
  <property name="kdenlive:audio_max1">195</property>
  <property name="kdenlive:active_streams">-1</property>
  <property name="set.test_audio">1</property>
  <property name="meta.media.frame_rate_num">30000</property>
  <property name="meta.media.frame_rate_den">1001</property>
  <property name="meta.media.colorspace">601</property>
  <property name="meta.media.color_trc">1</property>
  <property name="meta.media.has_b_frames">0</property>
  <property name="meta.media.width">640</property>
  <property name="meta.media.height">360</property>
  <property name="meta.media.color_range">full</property>
  <property name="meta.media.top_field_first">0</property>
  <property name="meta.media.progressive">1</property>
 </producer>
 <producer id="producer20" in="00:00:00.000" out="00:16:18.633">
  <property name="length">29360</property>
  <property name="eof">pause</property>
  <property name="resource">/home/liquidzulu/.cache/kdenlive/proxy/b27ec55f993e1ed4d083ce4eb86dd1a8.mkv</property>
  <property name="meta.media.nb_streams">2</property>
  <property name="meta.media.0.stream.type">video</property>
  <property name="meta.media.0.stream.frame_rate">59.9401</property>
  <property name="meta.media.0.stream.sample_aspect_ratio">1</property>
  <property name="meta.media.0.codec.width">640</property>
  <property name="meta.media.0.codec.height">360</property>
  <property name="meta.media.0.codec.rotate">0</property>
  <property name="meta.media.0.codec.pix_fmt">yuvj420p</property>
  <property name="meta.media.0.codec.sample_aspect_ratio">1</property>
  <property name="meta.media.0.codec.colorspace">601</property>
  <property name="meta.media.0.codec.color_trc">1</property>
  <property name="meta.media.0.codec.name">mjpeg</property>
  <property name="meta.media.0.codec.long_name">MJPEG (Motion JPEG)</property>
  <property name="meta.media.0.codec.bit_rate">0</property>
  <property name="meta.attr.0.stream.HANDLER_NAME.markup">ISO Media file produced by Google Inc.</property>
  <property name="meta.attr.0.stream.VENDOR_ID.markup">[0][0][0][0]</property>
  <property name="meta.attr.0.stream.ENCODER.markup">Lavc59.18.100 mjpeg</property>
  <property name="meta.attr.0.stream.DURATION.markup">00:16:18.595000000</property>
  <property name="meta.media.1.stream.type">audio</property>
  <property name="meta.media.1.codec.sample_fmt">s16</property>
  <property name="meta.media.1.codec.sample_rate">44100</property>
  <property name="meta.media.1.codec.channels">2</property>
  <property name="meta.media.1.codec.name">pcm_s16le</property>
  <property name="meta.media.1.codec.long_name">PCM signed 16-bit little-endian</property>
  <property name="meta.media.1.codec.bit_rate">1411200</property>
  <property name="meta.attr.1.stream.language.markup">eng</property>
  <property name="meta.attr.1.stream.HANDLER_NAME.markup">ISO Media file produced by Google Inc.</property>
  <property name="meta.attr.1.stream.VENDOR_ID.markup">[0][0][0][0]</property>
  <property name="meta.attr.1.stream.ENCODER.markup">Lavc59.18.100 pcm_s16le</property>
  <property name="meta.attr.1.stream.DURATION.markup">00:16:18.651000000</property>
  <property name="meta.attr.COMPATIBLE_BRANDS.markup">isomav01iso2mp41</property>
  <property name="meta.attr.MAJOR_BRAND.markup">isom</property>
  <property name="meta.attr.MINOR_VERSION.markup">512</property>
  <property name="meta.attr.ENCODER.markup">Lavf59.16.100</property>
  <property name="seekable">1</property>
  <property name="meta.media.sample_aspect_num">1</property>
  <property name="meta.media.sample_aspect_den">1</property>
  <property name="aspect_ratio">1</property>
  <property name="audio_index">-1</property>
  <property name="video_index">0</property>
  <property name="mute_on_pause">0</property>
  <property name="mlt_service">avformat</property>
  <property name="kdenlive:clipname">Magic Kingdom Express Monorail Complete Ride Experience in 4K _ Walt Disney World Florida April 2021 [DgrwV09UPrU].mp4</property>
  <property name="kdenlive:clip_type">2</property>
  <property name="kdenlive:folderid">11</property>
  <property name="kdenlive:id">24</property>
  <property name="kdenlive:file_size">1706541964</property>
  <property name="kdenlive:file_hash">b27ec55f993e1ed4d083ce4eb86dd1a8</property>
  <property name="kdenlive:proxy">/home/liquidzulu/.cache/kdenlive/proxy/b27ec55f993e1ed4d083ce4eb86dd1a8.mkv</property>
  <property name="kdenlive:originalurl">b-roll/Magic Kingdom Express Monorail Complete Ride Experience in 4K _ Walt Disney World Florida April 2021 [DgrwV09UPrU].mp4</property>
  <property name="kdenlive:original.mlt_type">producer</property>
  <property name="kdenlive:original.in">0</property>
  <property name="kdenlive:original.out">29359</property>
  <property name="kdenlive:original.length">29360</property>
  <property name="kdenlive:original.eof">pause</property>
  <property name="kdenlive:original.resource">b-roll/Magic Kingdom Express Monorail Complete Ride Experience in 4K _ Walt Disney World Florida April 2021 [DgrwV09UPrU].mp4</property>
  <property name="kdenlive:original.meta.media.nb_streams">2</property>
  <property name="kdenlive:original.meta.media.0.stream.type">video</property>
  <property name="kdenlive:original.meta.media.0.stream.frame_rate">59.9401</property>
  <property name="kdenlive:original.meta.media.0.stream.sample_aspect_ratio">0</property>
  <property name="kdenlive:original.meta.media.0.codec.width">3840</property>
  <property name="kdenlive:original.meta.media.0.codec.height">2160</property>
  <property name="kdenlive:original.meta.media.0.codec.rotate">0</property>
  <property name="kdenlive:original.meta.media.0.codec.pix_fmt">yuv420p</property>
  <property name="kdenlive:original.meta.media.0.codec.sample_aspect_ratio">0</property>
  <property name="kdenlive:original.meta.media.0.codec.colorspace">709</property>
  <property name="kdenlive:original.meta.media.0.codec.color_trc">1</property>
  <property name="kdenlive:original.meta.media.0.codec.name">libdav1d</property>
  <property name="kdenlive:original.meta.media.0.codec.long_name">dav1d AV1 decoder by VideoLAN</property>
  <property name="kdenlive:original.meta.media.0.codec.bit_rate">13813648</property>
  <property name="kdenlive:original.meta.attr.0.stream.handler_name.markup">ISO Media file produced by Google Inc.</property>
  <property name="kdenlive:original.meta.attr.0.stream.vendor_id.markup">[0][0][0][0]</property>
  <property name="kdenlive:original.meta.media.1.stream.type">audio</property>
  <property name="kdenlive:original.meta.media.1.codec.sample_fmt">fltp</property>
  <property name="kdenlive:original.meta.media.1.codec.sample_rate">44100</property>
  <property name="kdenlive:original.meta.media.1.codec.channels">2</property>
  <property name="kdenlive:original.meta.media.1.codec.name">aac</property>
  <property name="kdenlive:original.meta.media.1.codec.long_name">AAC (Advanced Audio Coding)</property>
  <property name="kdenlive:original.meta.media.1.codec.bit_rate">127999</property>
  <property name="kdenlive:original.meta.attr.1.stream.language.markup">eng</property>
  <property name="kdenlive:original.meta.attr.1.stream.handler_name.markup">ISO Media file produced by Google Inc.</property>
  <property name="kdenlive:original.meta.attr.1.stream.vendor_id.markup">[0][0][0][0]</property>
  <property name="kdenlive:original.meta.attr.major_brand.markup">isom</property>
  <property name="kdenlive:original.meta.attr.minor_version.markup">512</property>
  <property name="kdenlive:original.meta.attr.compatible_brands.markup">isomav01iso2mp41</property>
  <property name="kdenlive:original.meta.attr.encoder.markup">Lavf59.16.100</property>
  <property name="kdenlive:original.seekable">1</property>
  <property name="kdenlive:original.width">3840</property>
  <property name="kdenlive:original.height">2160</property>
  <property name="kdenlive:original.meta.media.sample_aspect_num">1</property>
  <property name="kdenlive:original.meta.media.sample_aspect_den">1</property>
  <property name="kdenlive:original.aspect_ratio">1</property>
  <property name="kdenlive:original.audio_index">1</property>
  <property name="kdenlive:original.video_index">0</property>
  <property name="kdenlive:original.mute_on_pause">0</property>
  <property name="kdenlive:original.mlt_service">avformat-novalidate</property>
  <property name="kdenlive:original.meta.media.frame_rate_num">60000</property>
  <property name="kdenlive:original.meta.media.frame_rate_den">1001</property>
  <property name="kdenlive:original.meta.media.colorspace">709</property>
  <property name="kdenlive:original.meta.media.color_trc">1</property>
  <property name="kdenlive:original.meta.media.has_b_frames">0</property>
  <property name="kdenlive:original.meta.media.width">3840</property>
  <property name="kdenlive:original.meta.media.height">2160</property>
  <property name="kdenlive:original.meta.media.color_range">mpeg</property>
  <property name="kdenlive:original.meta.media.top_field_first">0</property>
  <property name="kdenlive:original.meta.media.progressive">1</property>
  <property name="kdenlive:original.kdenlive:clip_type">0</property>
  <property name="kdenlive:original.kdenlive:folderid">11</property>
  <property name="kdenlive:original.kdenlive:id">24</property>
  <property name="kdenlive:original.kdenlive:file_size">1706541964</property>
  <property name="kdenlive:original.kdenlive:file_hash">b27ec55f993e1ed4d083ce4eb86dd1a8</property>
  <property name="kdenlive:original.backup">1</property>
  <property name="kdenlive:audio_max1">230</property>
  <property name="kdenlive:active_streams">-1</property>
  <property name="set.test_audio">1</property>
  <property name="meta.media.frame_rate_num">60000</property>
  <property name="meta.media.frame_rate_den">1001</property>
  <property name="meta.media.colorspace">601</property>
  <property name="meta.media.color_trc">1</property>
  <property name="meta.media.has_b_frames">0</property>
  <property name="meta.media.width">640</property>
  <property name="meta.media.height">360</property>
  <property name="meta.media.color_range">full</property>
  <property name="meta.media.top_field_first">0</property>
  <property name="meta.media.progressive">1</property>
 </producer>
 <producer id="producer21" in="00:00:00.000" out="00:02:45.833">
  <property name="length">4977</property>
  <property name="eof">pause</property>
  <property name="resource">/home/liquidzulu/.cache/kdenlive/proxy/2162ef49c880468324cb215dcbc1d1a6.mkv</property>
  <property name="meta.media.nb_streams">2</property>
  <property name="meta.media.0.stream.type">video</property>
  <property name="meta.media.0.stream.frame_rate">25</property>
  <property name="meta.media.0.stream.sample_aspect_ratio">1</property>
  <property name="meta.media.0.codec.width">640</property>
  <property name="meta.media.0.codec.height">360</property>
  <property name="meta.media.0.codec.rotate">0</property>
  <property name="meta.media.0.codec.pix_fmt">yuvj420p</property>
  <property name="meta.media.0.codec.sample_aspect_ratio">1</property>
  <property name="meta.media.0.codec.colorspace">601</property>
  <property name="meta.media.0.codec.color_trc">1</property>
  <property name="meta.media.0.codec.name">mjpeg</property>
  <property name="meta.media.0.codec.long_name">MJPEG (Motion JPEG)</property>
  <property name="meta.media.0.codec.bit_rate">0</property>
  <property name="meta.attr.0.stream.HANDLER_NAME.markup">ISO Media file produced by Google Inc. Created on: 06/07/2022.</property>
  <property name="meta.attr.0.stream.VENDOR_ID.markup">[0][0][0][0]</property>
  <property name="meta.attr.0.stream.ENCODER.markup">Lavc59.18.100 mjpeg</property>
  <property name="meta.attr.0.stream.DURATION.markup">00:02:45.840000000</property>
  <property name="meta.media.1.stream.type">audio</property>
  <property name="meta.media.1.codec.sample_fmt">s16</property>
  <property name="meta.media.1.codec.sample_rate">44100</property>
  <property name="meta.media.1.codec.channels">2</property>
  <property name="meta.media.1.codec.name">pcm_s16le</property>
  <property name="meta.media.1.codec.long_name">PCM signed 16-bit little-endian</property>
  <property name="meta.media.1.codec.bit_rate">1411200</property>
  <property name="meta.attr.1.stream.HANDLER_NAME.markup">SoundHandler</property>
  <property name="meta.attr.1.stream.VENDOR_ID.markup">[0][0][0][0]</property>
  <property name="meta.attr.1.stream.ENCODER.markup">Lavc59.18.100 pcm_s16le</property>
  <property name="meta.attr.1.stream.DURATION.markup">00:02:45.883000000</property>
  <property name="meta.attr.COMPATIBLE_BRANDS.markup">isomiso2avc1mp41</property>
  <property name="meta.attr.MAJOR_BRAND.markup">isom</property>
  <property name="meta.attr.MINOR_VERSION.markup">512</property>
  <property name="meta.attr.ENCODER.markup">Lavf59.16.100</property>
  <property name="seekable">1</property>
  <property name="meta.media.sample_aspect_num">1</property>
  <property name="meta.media.sample_aspect_den">1</property>
  <property name="aspect_ratio">1</property>
  <property name="audio_index">-1</property>
  <property name="video_index">0</property>
  <property name="mute_on_pause">0</property>
  <property name="mlt_service">avformat</property>
  <property name="kdenlive:clipname">Kings are Bad—Politicans Are Terrible _ Hoppe [ZsIUjxOXFkE].mp4</property>
  <property name="kdenlive:clip_type">2</property>
  <property name="kdenlive:folderid">26</property>
  <property name="kdenlive:id">28</property>
  <property name="kdenlive:file_size">48340766</property>
  <property name="kdenlive:file_hash">2162ef49c880468324cb215dcbc1d1a6</property>
  <property name="kdenlive:proxy">/home/liquidzulu/.cache/kdenlive/proxy/2162ef49c880468324cb215dcbc1d1a6.mkv</property>
  <property name="kdenlive:originalurl">b-roll/Kings are Bad—Politicans Are Terrible _ Hoppe [ZsIUjxOXFkE].mp4</property>
  <property name="kdenlive:original.mlt_type">producer</property>
  <property name="kdenlive:original.in">0</property>
  <property name="kdenlive:original.out">4976</property>
  <property name="kdenlive:original.length">4977</property>
  <property name="kdenlive:original.eof">pause</property>
  <property name="kdenlive:original.resource">b-roll/Kings are Bad—Politicans Are Terrible _ Hoppe [ZsIUjxOXFkE].mp4</property>
  <property name="kdenlive:original.meta.media.nb_streams">2</property>
  <property name="kdenlive:original.meta.media.0.stream.type">video</property>
  <property name="kdenlive:original.meta.media.0.stream.frame_rate">25.006</property>
  <property name="kdenlive:original.meta.media.0.stream.sample_aspect_ratio">1</property>
  <property name="kdenlive:original.meta.media.0.codec.width">1920</property>
  <property name="kdenlive:original.meta.media.0.codec.height">1080</property>
  <property name="kdenlive:original.meta.media.0.codec.rotate">0</property>
  <property name="kdenlive:original.meta.media.0.codec.pix_fmt">yuv420p</property>
  <property name="kdenlive:original.meta.media.0.codec.sample_aspect_ratio">1</property>
  <property name="kdenlive:original.meta.media.0.codec.colorspace">709</property>
  <property name="kdenlive:original.meta.media.0.codec.color_trc">1</property>
  <property name="kdenlive:original.meta.media.0.codec.name">h264</property>
  <property name="kdenlive:original.meta.media.0.codec.long_name">H.264 / AVC / MPEG-4 AVC / MPEG-4 part 10</property>
  <property name="kdenlive:original.meta.media.0.codec.bit_rate">2201645</property>
  <property name="kdenlive:original.meta.attr.0.stream.handler_name.markup">ISO Media file produced by Google Inc. Created on: 06/07/2022.</property>
  <property name="kdenlive:original.meta.attr.0.stream.vendor_id.markup">[0][0][0][0]</property>
  <property name="kdenlive:original.meta.media.1.stream.type">audio</property>
  <property name="kdenlive:original.meta.media.1.codec.sample_fmt">fltp</property>
  <property name="kdenlive:original.meta.media.1.codec.sample_rate">44100</property>
  <property name="kdenlive:original.meta.media.1.codec.channels">2</property>
  <property name="kdenlive:original.meta.media.1.codec.name">aac</property>
  <property name="kdenlive:original.meta.media.1.codec.long_name">AAC (Advanced Audio Coding)</property>
  <property name="kdenlive:original.meta.media.1.codec.bit_rate">125588</property>
  <property name="kdenlive:original.meta.attr.1.stream.handler_name.markup">SoundHandler</property>
  <property name="kdenlive:original.meta.attr.1.stream.vendor_id.markup">[0][0][0][0]</property>
  <property name="kdenlive:original.meta.attr.major_brand.markup">isom</property>
  <property name="kdenlive:original.meta.attr.minor_version.markup">512</property>
  <property name="kdenlive:original.meta.attr.compatible_brands.markup">isomiso2avc1mp41</property>
  <property name="kdenlive:original.meta.attr.encoder.markup">Lavf59.16.100</property>
  <property name="kdenlive:original.seekable">1</property>
  <property name="kdenlive:original.width">1920</property>
  <property name="kdenlive:original.height">1080</property>
  <property name="kdenlive:original.meta.media.sample_aspect_num">1</property>
  <property name="kdenlive:original.meta.media.sample_aspect_den">1</property>
  <property name="kdenlive:original.aspect_ratio">1</property>
  <property name="kdenlive:original.audio_index">1</property>
  <property name="kdenlive:original.video_index">0</property>
  <property name="kdenlive:original.mute_on_pause">0</property>
  <property name="kdenlive:original.mlt_service">avformat-novalidate</property>
  <property name="kdenlive:original.meta.media.frame_rate_num">20730</property>
  <property name="kdenlive:original.meta.media.frame_rate_den">829</property>
  <property name="kdenlive:original.meta.media.colorspace">709</property>
  <property name="kdenlive:original.meta.media.color_trc">1</property>
  <property name="kdenlive:original.meta.media.has_b_frames">0</property>
  <property name="kdenlive:original.meta.media.width">1920</property>
  <property name="kdenlive:original.meta.media.height">1080</property>
  <property name="kdenlive:original.meta.media.color_range">mpeg</property>
  <property name="kdenlive:original.meta.media.top_field_first">0</property>
  <property name="kdenlive:original.meta.media.progressive">1</property>
  <property name="kdenlive:original.kdenlive:clip_type">0</property>
  <property name="kdenlive:original.kdenlive:folderid">26</property>
  <property name="kdenlive:original.kdenlive:id">28</property>
  <property name="kdenlive:original.kdenlive:file_size">48340766</property>
  <property name="kdenlive:original.kdenlive:file_hash">2162ef49c880468324cb215dcbc1d1a6</property>
  <property name="kdenlive:original.backup">1</property>
  <property name="kdenlive:audio_max1">192</property>
  <property name="kdenlive:active_streams">-1</property>
  <property name="set.test_audio">1</property>
  <property name="meta.media.frame_rate_num">25</property>
  <property name="meta.media.frame_rate_den">1</property>
  <property name="meta.media.colorspace">601</property>
  <property name="meta.media.color_trc">1</property>
  <property name="meta.media.has_b_frames">0</property>
  <property name="meta.media.width">640</property>
  <property name="meta.media.height">360</property>
  <property name="meta.media.color_range">full</property>
  <property name="meta.media.top_field_first">0</property>
  <property name="meta.media.progressive">1</property>
 </producer>
 <producer id="producer22" in="00:00:00.000" out="00:00:04.967">
  <property name="length">00:00:05.000</property>
  <property name="eof">pause</property>
  <property name="resource">images/mcmaken43.png</property>
  <property name="ttl">25</property>
  <property name="aspect_ratio">1</property>
  <property name="progressive">1</property>
  <property name="seekable">1</property>
  <property name="meta.media.width">753</property>
  <property name="meta.media.height">408</property>
  <property name="mlt_service">qimage</property>
  <property name="kdenlive:clipname"/>
  <property name="kdenlive:duration">00:00:05.000</property>
  <property name="kdenlive:folderid">9</property>
  <property name="kdenlive:clip_type">2</property>
  <property name="kdenlive:id">29</property>
  <property name="kdenlive:file_size">212062</property>
  <property name="kdenlive:file_hash">c5ea4a9da35f8c5c716c5ce27681a82f</property>
 </producer>
 <producer id="producer23" in="00:00:00.000" out="00:00:04.967">
  <property name="length">00:00:05.000</property>
  <property name="eof">pause</property>
  <property name="resource">images/mcmaken-vs-mcmaken.png</property>
  <property name="ttl">25</property>
  <property name="aspect_ratio">1</property>
  <property name="progressive">1</property>
  <property name="seekable">1</property>
  <property name="meta.media.width">736</property>
  <property name="meta.media.height">436</property>
  <property name="mlt_service">qimage</property>
  <property name="kdenlive:clipname"/>
  <property name="kdenlive:duration">00:00:05.000</property>
  <property name="kdenlive:folderid">11</property>
  <property name="kdenlive:clip_type">2</property>
  <property name="kdenlive:id">30</property>
  <property name="kdenlive:file_size">230067</property>
  <property name="kdenlive:file_hash">378318308b6b40badcac5aa5a48dca19</property>
 </producer>
 <producer id="producer24" in="00:00:00.000" out="00:00:20.933">
  <property name="length">629</property>
  <property name="eof">pause</property>
  <property name="resource">/home/liquidzulu/.cache/kdenlive/proxy/0feca2a508d4dcd2d8c0494d821856f0.mkv</property>
  <property name="meta.media.nb_streams">2</property>
  <property name="meta.media.0.stream.type">video</property>
  <property name="meta.media.0.stream.frame_rate">29.97</property>
  <property name="meta.media.0.stream.sample_aspect_ratio">1</property>
  <property name="meta.media.0.codec.width">640</property>
  <property name="meta.media.0.codec.height">360</property>
  <property name="meta.media.0.codec.rotate">0</property>
  <property name="meta.media.0.codec.pix_fmt">yuvj420p</property>
  <property name="meta.media.0.codec.sample_aspect_ratio">1</property>
  <property name="meta.media.0.codec.colorspace">601</property>
  <property name="meta.media.0.codec.color_trc">1</property>
  <property name="meta.media.0.codec.name">mjpeg</property>
  <property name="meta.media.0.codec.long_name">MJPEG (Motion JPEG)</property>
  <property name="meta.media.0.codec.bit_rate">0</property>
  <property name="meta.attr.0.stream.HANDLER_NAME.markup">ISO Media file produced by Google Inc. Created on: 12/12/2018.</property>
  <property name="meta.attr.0.stream.VENDOR_ID.markup">[0][0][0][0]</property>
  <property name="meta.attr.0.stream.ENCODER.markup">Lavc59.18.100 mjpeg</property>
  <property name="meta.attr.0.stream.DURATION.markup">00:00:20.921000000</property>
  <property name="meta.media.1.stream.type">audio</property>
  <property name="meta.media.1.codec.sample_fmt">s16</property>
  <property name="meta.media.1.codec.sample_rate">44100</property>
  <property name="meta.media.1.codec.channels">2</property>
  <property name="meta.media.1.codec.name">pcm_s16le</property>
  <property name="meta.media.1.codec.long_name">PCM signed 16-bit little-endian</property>
  <property name="meta.media.1.codec.bit_rate">1411200</property>
  <property name="meta.attr.1.stream.HANDLER_NAME.markup">ISO Media file produced by Google Inc. Created on: 12/12/2018.</property>
  <property name="meta.attr.1.stream.VENDOR_ID.markup">[0][0][0][0]</property>
  <property name="meta.attr.1.stream.ENCODER.markup">Lavc59.18.100 pcm_s16le</property>
  <property name="meta.attr.1.stream.DURATION.markup">00:00:20.967000000</property>
  <property name="meta.attr.COMPATIBLE_BRANDS.markup">isomiso2avc1mp41</property>
  <property name="meta.attr.MAJOR_BRAND.markup">isom</property>
  <property name="meta.attr.MINOR_VERSION.markup">512</property>
  <property name="meta.attr.ENCODER.markup">Lavf59.16.100</property>
  <property name="seekable">1</property>
  <property name="meta.media.sample_aspect_num">1</property>
  <property name="meta.media.sample_aspect_den">1</property>
  <property name="aspect_ratio">1</property>
  <property name="audio_index">-1</property>
  <property name="video_index">0</property>
  <property name="mute_on_pause">0</property>
  <property name="mlt_service">avformat</property>
  <property name="kdenlive:clipname">Navy Seal stabbing a dummy [xuTU-Gby46M].mp4</property>
  <property name="kdenlive:clip_type">0</property>
  <property name="kdenlive:folderid">9</property>
  <property name="kdenlive:id">31</property>
  <property name="kdenlive:file_size">4081331</property>
  <property name="kdenlive:file_hash">0feca2a508d4dcd2d8c0494d821856f0</property>
  <property name="kdenlive:proxy">/home/liquidzulu/.cache/kdenlive/proxy/0feca2a508d4dcd2d8c0494d821856f0.mkv</property>
  <property name="kdenlive:originalurl">b-roll/Navy Seal stabbing a dummy [xuTU-Gby46M].mp4</property>
  <property name="kdenlive:original.mlt_type">producer</property>
  <property name="kdenlive:original.in">0</property>
  <property name="kdenlive:original.out">628</property>
  <property name="kdenlive:original.length">629</property>
  <property name="kdenlive:original.eof">pause</property>
  <property name="kdenlive:original.resource">b-roll/Navy Seal stabbing a dummy [xuTU-Gby46M].mp4</property>
  <property name="kdenlive:original.meta.media.nb_streams">2</property>
  <property name="kdenlive:original.meta.media.0.stream.type">video</property>
  <property name="kdenlive:original.meta.media.0.stream.frame_rate">29.97</property>
  <property name="kdenlive:original.meta.media.0.stream.sample_aspect_ratio">1</property>
  <property name="kdenlive:original.meta.media.0.codec.width">1280</property>
  <property name="kdenlive:original.meta.media.0.codec.height">720</property>
  <property name="kdenlive:original.meta.media.0.codec.rotate">0</property>
  <property name="kdenlive:original.meta.media.0.codec.pix_fmt">yuv420p</property>
  <property name="kdenlive:original.meta.media.0.codec.sample_aspect_ratio">1</property>
  <property name="kdenlive:original.meta.media.0.codec.colorspace">709</property>
  <property name="kdenlive:original.meta.media.0.codec.color_trc">1</property>
  <property name="kdenlive:original.meta.media.0.codec.name">h264</property>
  <property name="kdenlive:original.meta.media.0.codec.long_name">H.264 / AVC / MPEG-4 AVC / MPEG-4 part 10</property>
  <property name="kdenlive:original.meta.media.0.codec.bit_rate">1423669</property>
  <property name="kdenlive:original.meta.attr.0.stream.handler_name.markup">ISO Media file produced by Google Inc. Created on: 12/12/2018.</property>
  <property name="kdenlive:original.meta.attr.0.stream.vendor_id.markup">[0][0][0][0]</property>
  <property name="kdenlive:original.meta.media.1.stream.type">audio</property>
  <property name="kdenlive:original.meta.media.1.codec.sample_fmt">fltp</property>
  <property name="kdenlive:original.meta.media.1.codec.sample_rate">44100</property>
  <property name="kdenlive:original.meta.media.1.codec.channels">2</property>
  <property name="kdenlive:original.meta.media.1.codec.name">aac</property>
  <property name="kdenlive:original.meta.media.1.codec.long_name">AAC (Advanced Audio Coding)</property>
  <property name="kdenlive:original.meta.media.1.codec.bit_rate">127999</property>
  <property name="kdenlive:original.meta.attr.1.stream.handler_name.markup">ISO Media file produced by Google Inc. Created on: 12/12/2018.</property>
  <property name="kdenlive:original.meta.attr.1.stream.vendor_id.markup">[0][0][0][0]</property>
  <property name="kdenlive:original.meta.attr.major_brand.markup">isom</property>
  <property name="kdenlive:original.meta.attr.minor_version.markup">512</property>
  <property name="kdenlive:original.meta.attr.compatible_brands.markup">isomiso2avc1mp41</property>
  <property name="kdenlive:original.meta.attr.encoder.markup">Lavf59.16.100</property>
  <property name="kdenlive:original.seekable">1</property>
  <property name="kdenlive:original.width">1280</property>
  <property name="kdenlive:original.height">720</property>
  <property name="kdenlive:original.meta.media.sample_aspect_num">1</property>
  <property name="kdenlive:original.meta.media.sample_aspect_den">1</property>
  <property name="kdenlive:original.aspect_ratio">1</property>
  <property name="kdenlive:original.audio_index">1</property>
  <property name="kdenlive:original.video_index">0</property>
  <property name="kdenlive:original.mute_on_pause">0</property>
  <property name="kdenlive:original.mlt_service">avformat-novalidate</property>
  <property name="kdenlive:original.meta.media.frame_rate_num">30000</property>
  <property name="kdenlive:original.meta.media.frame_rate_den">1001</property>
  <property name="kdenlive:original.meta.media.colorspace">709</property>
  <property name="kdenlive:original.meta.media.color_trc">1</property>
  <property name="kdenlive:original.meta.media.has_b_frames">1</property>
  <property name="kdenlive:original.meta.media.width">1280</property>
  <property name="kdenlive:original.meta.media.height">720</property>
  <property name="kdenlive:original.meta.media.color_range">mpeg</property>
  <property name="kdenlive:original.meta.media.top_field_first">0</property>
  <property name="kdenlive:original.meta.media.progressive">1</property>
  <property name="kdenlive:original.kdenlive:clip_type">0</property>
  <property name="kdenlive:original.kdenlive:folderid">11</property>
  <property name="kdenlive:original.kdenlive:id">31</property>
  <property name="kdenlive:original.kdenlive:file_size">4081331</property>
  <property name="kdenlive:original.kdenlive:file_hash">0feca2a508d4dcd2d8c0494d821856f0</property>
  <property name="kdenlive:original.backup">1</property>
  <property name="kdenlive:audio_max1">140</property>
  <property name="meta.media.frame_rate_num">30000</property>
  <property name="meta.media.frame_rate_den">1001</property>
  <property name="meta.media.colorspace">601</property>
  <property name="meta.media.color_trc">1</property>
  <property name="meta.media.has_b_frames">0</property>
  <property name="meta.media.width">640</property>
  <property name="meta.media.height">360</property>
  <property name="meta.media.color_range">full</property>
  <property name="meta.media.top_field_first">0</property>
  <property name="meta.media.progressive">1</property>
  <property name="kdenlive:active_streams">-1</property>
  <property name="set.test_audio">1</property>
 </producer>
 <producer id="producer25" in="00:00:00.000" out="00:00:04.967">
  <property name="length">00:00:05.000</property>
  <property name="eof">pause</property>
  <property name="resource">images/desantis-vs-disney.webp</property>
  <property name="ttl">25</property>
  <property name="aspect_ratio">1</property>
  <property name="progressive">1</property>
  <property name="seekable">1</property>
  <property name="meta.media.width">814</property>
  <property name="meta.media.height">591</property>
  <property name="mlt_service">qimage</property>
  <property name="kdenlive:clipname"/>
  <property name="kdenlive:duration">00:00:05.000</property>
  <property name="kdenlive:folderid">9</property>
  <property name="kdenlive:clip_type">2</property>
  <property name="kdenlive:id">32</property>
  <property name="kdenlive:file_size">74730</property>
  <property name="kdenlive:file_hash">470e5daac5fbf824d637c4b4c928f474</property>
 </producer>
 <producer id="producer26" in="00:00:00.000" out="01:00:50.933">
  <property name="length">109529</property>
  <property name="eof">pause</property>
  <property name="resource">/home/liquidzulu/.cache/kdenlive/proxy/7b64ce2d3fb5af59492a51e6a222ffea.mkv</property>
  <property name="meta.media.nb_streams">2</property>
  <property name="meta.media.0.stream.type">video</property>
  <property name="meta.media.0.stream.frame_rate">29.97</property>
  <property name="meta.media.0.stream.sample_aspect_ratio">0</property>
  <property name="meta.media.0.codec.width">640</property>
  <property name="meta.media.0.codec.height">360</property>
  <property name="meta.media.0.codec.rotate">0</property>
  <property name="meta.media.0.codec.pix_fmt">yuvj420p</property>
  <property name="meta.media.0.codec.sample_aspect_ratio">0</property>
  <property name="meta.media.0.codec.colorspace">601</property>
  <property name="meta.media.0.codec.name">mjpeg</property>
  <property name="meta.media.0.codec.long_name">MJPEG (Motion JPEG)</property>
  <property name="meta.media.0.codec.bit_rate">0</property>
  <property name="meta.attr.0.stream.HANDLER_NAME.markup">VideoHandler</property>
  <property name="meta.attr.0.stream.VENDOR_ID.markup">[0][0][0][0]</property>
  <property name="meta.attr.0.stream.ENCODER.markup">Lavc59.18.100 mjpeg</property>
  <property name="meta.attr.0.stream.DURATION.markup">01:00:50.914000000</property>
  <property name="meta.media.1.stream.type">audio</property>
  <property name="meta.media.1.codec.sample_fmt">s16</property>
  <property name="meta.media.1.codec.sample_rate">44100</property>
  <property name="meta.media.1.codec.channels">2</property>
  <property name="meta.media.1.codec.name">pcm_s16le</property>
  <property name="meta.media.1.codec.long_name">PCM signed 16-bit little-endian</property>
  <property name="meta.media.1.codec.bit_rate">1411200</property>
  <property name="meta.attr.1.stream.HANDLER_NAME.markup">SoundHandler</property>
  <property name="meta.attr.1.stream.VENDOR_ID.markup">[0][0][0][0]</property>
  <property name="meta.attr.1.stream.ENCODER.markup">Lavc59.18.100 pcm_s16le</property>
  <property name="meta.attr.1.stream.DURATION.markup">01:00:50.966000000</property>
  <property name="meta.attr.COMPATIBLE_BRANDS.markup">isomiso2avc1mp41</property>
  <property name="meta.attr.MAJOR_BRAND.markup">isom</property>
  <property name="meta.attr.MINOR_VERSION.markup">512</property>
  <property name="meta.attr.ENCODER.markup">Lavf59.16.100</property>
  <property name="seekable">1</property>
  <property name="meta.media.sample_aspect_num">1</property>
  <property name="meta.media.sample_aspect_den">1</property>
  <property name="aspect_ratio">1</property>
  <property name="audio_index">-1</property>
  <property name="video_index">0</property>
  <property name="mute_on_pause">0</property>
  <property name="mlt_service">avformat</property>
  <property name="kdenlive:clipname">Intellectual Property and Economic Development _ Stephan Kinsella [hoSWC_6mDCk].mp4</property>
  <property name="kdenlive:clip_type">2</property>
  <property name="kdenlive:folderid">26</property>
  <property name="kdenlive:id">33</property>
  <property name="kdenlive:file_size">748264087</property>
  <property name="kdenlive:file_hash">7b64ce2d3fb5af59492a51e6a222ffea</property>
  <property name="kdenlive:proxy">/home/liquidzulu/.cache/kdenlive/proxy/7b64ce2d3fb5af59492a51e6a222ffea.mkv</property>
  <property name="kdenlive:originalurl">b-roll/Intellectual Property and Economic Development _ Stephan Kinsella [hoSWC_6mDCk].mp4</property>
  <property name="kdenlive:original.mlt_type">producer</property>
  <property name="kdenlive:original.in">0</property>
  <property name="kdenlive:original.out">109528</property>
  <property name="kdenlive:original.length">109529</property>
  <property name="kdenlive:original.eof">pause</property>
  <property name="kdenlive:original.resource">b-roll/Intellectual Property and Economic Development _ Stephan Kinsella [hoSWC_6mDCk].mp4</property>
  <property name="kdenlive:original.meta.media.nb_streams">2</property>
  <property name="kdenlive:original.meta.media.0.stream.type">video</property>
  <property name="kdenlive:original.meta.media.0.stream.frame_rate">29.9703</property>
  <property name="kdenlive:original.meta.media.0.stream.sample_aspect_ratio">0</property>
  <property name="kdenlive:original.meta.media.0.codec.width">1280</property>
  <property name="kdenlive:original.meta.media.0.codec.height">720</property>
  <property name="kdenlive:original.meta.media.0.codec.rotate">0</property>
  <property name="kdenlive:original.meta.media.0.codec.pix_fmt">yuv420p</property>
  <property name="kdenlive:original.meta.media.0.codec.sample_aspect_ratio">0</property>
  <property name="kdenlive:original.meta.media.0.codec.colorspace">709</property>
  <property name="kdenlive:original.meta.media.0.codec.name">h264</property>
  <property name="kdenlive:original.meta.media.0.codec.long_name">H.264 / AVC / MPEG-4 AVC / MPEG-4 part 10</property>
  <property name="kdenlive:original.meta.media.0.codec.bit_rate">1505970</property>
  <property name="kdenlive:original.meta.attr.0.stream.handler_name.markup">VideoHandler</property>
  <property name="kdenlive:original.meta.attr.0.stream.vendor_id.markup">[0][0][0][0]</property>
  <property name="kdenlive:original.meta.media.1.stream.type">audio</property>
  <property name="kdenlive:original.meta.media.1.codec.sample_fmt">fltp</property>
  <property name="kdenlive:original.meta.media.1.codec.sample_rate">44100</property>
  <property name="kdenlive:original.meta.media.1.codec.channels">2</property>
  <property name="kdenlive:original.meta.media.1.codec.name">aac</property>
  <property name="kdenlive:original.meta.media.1.codec.long_name">AAC (Advanced Audio Coding)</property>
  <property name="kdenlive:original.meta.media.1.codec.bit_rate">125588</property>
  <property name="kdenlive:original.meta.attr.1.stream.handler_name.markup">SoundHandler</property>
  <property name="kdenlive:original.meta.attr.1.stream.vendor_id.markup">[0][0][0][0]</property>
  <property name="kdenlive:original.meta.attr.major_brand.markup">isom</property>
  <property name="kdenlive:original.meta.attr.minor_version.markup">512</property>
  <property name="kdenlive:original.meta.attr.compatible_brands.markup">isomiso2avc1mp41</property>
  <property name="kdenlive:original.meta.attr.encoder.markup">Lavf59.16.100</property>
  <property name="kdenlive:original.seekable">1</property>
  <property name="kdenlive:original.width">1280</property>
  <property name="kdenlive:original.height">720</property>
  <property name="kdenlive:original.meta.media.sample_aspect_num">1</property>
  <property name="kdenlive:original.meta.media.sample_aspect_den">1</property>
  <property name="kdenlive:original.aspect_ratio">1</property>
  <property name="kdenlive:original.audio_index">1</property>
  <property name="kdenlive:original.video_index">0</property>
  <property name="kdenlive:original.mute_on_pause">0</property>
  <property name="kdenlive:original.mlt_service">avformat-novalidate</property>
  <property name="kdenlive:original.meta.media.frame_rate_num">109418000</property>
  <property name="kdenlive:original.meta.media.frame_rate_den">3650881</property>
  <property name="kdenlive:original.meta.media.colorspace">709</property>
  <property name="kdenlive:original.meta.media.color_trc">2</property>
  <property name="kdenlive:original.meta.media.has_b_frames">1</property>
  <property name="kdenlive:original.meta.media.width">1280</property>
  <property name="kdenlive:original.meta.media.height">720</property>
  <property name="kdenlive:original.meta.media.color_range">mpeg</property>
  <property name="kdenlive:original.meta.media.top_field_first">0</property>
  <property name="kdenlive:original.meta.media.progressive">1</property>
  <property name="kdenlive:original.kdenlive:clip_type">0</property>
  <property name="kdenlive:original.kdenlive:folderid">26</property>
  <property name="kdenlive:original.kdenlive:id">33</property>
  <property name="kdenlive:original.kdenlive:file_size">748264087</property>
  <property name="kdenlive:original.kdenlive:file_hash">7b64ce2d3fb5af59492a51e6a222ffea</property>
  <property name="kdenlive:original.backup">1</property>
  <property name="kdenlive:audio_max1">217</property>
  <property name="kdenlive:active_streams">-1</property>
  <property name="set.test_audio">1</property>
  <property name="meta.media.frame_rate_num">30000</property>
  <property name="meta.media.frame_rate_den">1001</property>
  <property name="meta.media.colorspace">601</property>
  <property name="meta.media.color_trc">2</property>
  <property name="meta.media.has_b_frames">0</property>
  <property name="meta.media.width">640</property>
  <property name="meta.media.height">360</property>
  <property name="meta.media.color_range">full</property>
  <property name="meta.media.top_field_first">0</property>
  <property name="meta.media.progressive">1</property>
 </producer>
 <producer id="producer27" in="00:00:00.000" out="00:00:04.967">
  <property name="length">00:00:05.000</property>
  <property name="eof">pause</property>
  <property name="resource">images/big_government_tyranny2-2785544801.jpg</property>
  <property name="ttl">25</property>
  <property name="aspect_ratio">1</property>
  <property name="progressive">1</property>
  <property name="seekable">1</property>
  <property name="meta.media.width">1800</property>
  <property name="meta.media.height">1311</property>
  <property name="mlt_service">qimage</property>
  <property name="kdenlive:clipname"/>
  <property name="kdenlive:duration">00:00:05.000</property>
  <property name="kdenlive:folderid">9</property>
  <property name="kdenlive:clip_type">2</property>
  <property name="kdenlive:id">35</property>
  <property name="kdenlive:file_size">1097089</property>
  <property name="kdenlive:file_hash">59cbc3deb3da502178f40b30bbe0c5f9</property>
 </producer>
 <producer id="producer28" in="00:00:00.000" out="00:00:04.967">
  <property name="length">00:00:05.000</property>
  <property name="eof">pause</property>
  <property name="resource">images/coin.png</property>
  <property name="ttl">25</property>
  <property name="aspect_ratio">1</property>
  <property name="progressive">1</property>
  <property name="seekable">1</property>
  <property name="meta.media.width">150</property>
  <property name="meta.media.height">181</property>
  <property name="mlt_service">qimage</property>
  <property name="kdenlive:clipname"/>
  <property name="kdenlive:duration">00:00:05.000</property>
  <property name="kdenlive:folderid">9</property>
  <property name="kdenlive:clip_type">2</property>
  <property name="kdenlive:id">36</property>
  <property name="kdenlive:file_size">29635</property>
  <property name="kdenlive:file_hash">45524eddf035dfdd779d69e3969683f9</property>
 </producer>
 <producer id="producer29" in="00:00:00.000" out="00:00:04.967">
  <property name="length">00:00:05.000</property>
  <property name="eof">pause</property>
  <property name="resource">images/austrian-class.png</property>
  <property name="ttl">25</property>
  <property name="aspect_ratio">1</property>
  <property name="progressive">1</property>
  <property name="seekable">1</property>
  <property name="meta.media.width">494</property>
  <property name="meta.media.height">360</property>
  <property name="mlt_service">qimage</property>
  <property name="kdenlive:clipname"/>
  <property name="kdenlive:duration">00:00:05.000</property>
  <property name="kdenlive:folderid">9</property>
  <property name="kdenlive:clip_type">2</property>
  <property name="kdenlive:id">37</property>
  <property name="kdenlive:file_size">67709</property>
  <property name="kdenlive:file_hash">f1e4835b5d7842261713c56eff28ca9b</property>
 </producer>
 <producer id="producer30" in="00:00:00.000" out="00:00:04.967">
  <property name="length">00:00:05.000</property>
  <property name="eof">pause</property>
  <property name="resource">images/The-State-731057933.jpg</property>
  <property name="ttl">25</property>
  <property name="aspect_ratio">1</property>
  <property name="progressive">1</property>
  <property name="seekable">1</property>
  <property name="meta.media.width">316</property>
  <property name="meta.media.height">475</property>
  <property name="mlt_service">qimage</property>
  <property name="kdenlive:clipname"/>
  <property name="kdenlive:duration">00:00:05.000</property>
  <property name="kdenlive:folderid">9</property>
  <property name="kdenlive:clip_type">2</property>
  <property name="kdenlive:id">39</property>
  <property name="kdenlive:file_size">34213</property>
  <property name="kdenlive:file_hash">0416d5bf442fc37b7a5ed80df5b86d0e</property>
 </producer>
 <producer id="producer31" in="00:00:00.000" out="00:00:04.967">
  <property name="length">00:00:05.000</property>
  <property name="eof">pause</property>
  <property name="resource">images/Would I Lie to You_ 0-5 screenshot.png</property>
  <property name="ttl">25</property>
  <property name="aspect_ratio">1</property>
  <property name="progressive">1</property>
  <property name="seekable">1</property>
  <property name="meta.media.width">854</property>
  <property name="meta.media.height">480</property>
  <property name="mlt_service">qimage</property>
  <property name="kdenlive:clipname"/>
  <property name="kdenlive:duration">00:00:05.000</property>
  <property name="kdenlive:folderid">9</property>
  <property name="kdenlive:clip_type">2</property>
  <property name="kdenlive:id">40</property>
  <property name="kdenlive:file_size">453152</property>
  <property name="kdenlive:file_hash">d23762e03312c59d79c6a876909261db</property>
 </producer>
 <producer id="producer32" in="00:00:00.000" out="00:00:04.967">
  <property name="length">00:00:05.000</property>
  <property name="eof">pause</property>
  <property name="resource">images/killing-jeremy.png</property>
  <property name="ttl">25</property>
  <property name="aspect_ratio">1</property>
  <property name="progressive">1</property>
  <property name="seekable">1</property>
  <property name="meta.media.width">779</property>
  <property name="meta.media.height">610</property>
  <property name="mlt_service">qimage</property>
  <property name="kdenlive:clipname"/>
  <property name="kdenlive:duration">00:00:05.000</property>
  <property name="kdenlive:folderid">9</property>
  <property name="kdenlive:clip_type">2</property>
  <property name="kdenlive:id">41</property>
  <property name="kdenlive:file_size">320664</property>
  <property name="kdenlive:file_hash">c9dfbe6ad9d212c269511d48e6090abf</property>
 </producer>
 <producer id="producer33" in="00:00:00.000" out="00:00:05.067">
  <property name="length">153</property>
  <property name="eof">pause</property>
  <property name="resource">images/2022-07-05_11-44.png</property>
  <property name="ttl">25</property>
  <property name="aspect_ratio">1</property>
  <property name="progressive">1</property>
  <property name="seekable">1</property>
  <property name="meta.media.width">937</property>
  <property name="meta.media.height">336</property>
  <property name="mlt_service">qimage</property>
  <property name="kdenlive:clipname"/>
  <property name="kdenlive:duration">00:00:05.000</property>
  <property name="kdenlive:folderid">9</property>
  <property name="kdenlive:clip_type">2</property>
  <property name="kdenlive:id">42</property>
  <property name="kdenlive:file_size">57491</property>
  <property name="kdenlive:file_hash">7cb7879bb0b43507f2b64046792db426</property>
 </producer>
 <producer id="producer34" in="00:00:00.000" out="00:09:48.100">
  <property name="length">17644</property>
  <property name="eof">pause</property>
  <property name="resource">/home/liquidzulu/.cache/kdenlive/proxy/35353995bc019f32997c74c3873c811d.mkv</property>
  <property name="meta.media.nb_streams">2</property>
  <property name="meta.media.0.stream.type">video</property>
  <property name="meta.media.0.stream.frame_rate">23.976</property>
  <property name="meta.media.0.stream.sample_aspect_ratio">1</property>
  <property name="meta.media.0.codec.width">640</property>
  <property name="meta.media.0.codec.height">360</property>
  <property name="meta.media.0.codec.rotate">0</property>
  <property name="meta.media.0.codec.pix_fmt">yuvj420p</property>
  <property name="meta.media.0.codec.sample_aspect_ratio">1</property>
  <property name="meta.media.0.codec.colorspace">601</property>
  <property name="meta.media.0.codec.color_trc">1</property>
  <property name="meta.media.0.codec.name">mjpeg</property>
  <property name="meta.media.0.codec.long_name">MJPEG (Motion JPEG)</property>
  <property name="meta.media.0.codec.bit_rate">0</property>
  <property name="meta.attr.0.stream.HANDLER_NAME.markup">ISO Media file produced by Google Inc.</property>
  <property name="meta.attr.0.stream.VENDOR_ID.markup">[0][0][0][0]</property>
  <property name="meta.attr.0.stream.ENCODER.markup">Lavc59.18.100 mjpeg</property>
  <property name="meta.attr.0.stream.DURATION.markup">00:09:48.088000000</property>
  <property name="meta.media.1.stream.type">audio</property>
  <property name="meta.media.1.codec.sample_fmt">s16</property>
  <property name="meta.media.1.codec.sample_rate">44100</property>
  <property name="meta.media.1.codec.channels">2</property>
  <property name="meta.media.1.codec.name">pcm_s16le</property>
  <property name="meta.media.1.codec.long_name">PCM signed 16-bit little-endian</property>
  <property name="meta.media.1.codec.bit_rate">1411200</property>
  <property name="meta.attr.1.stream.language.markup">eng</property>
  <property name="meta.attr.1.stream.HANDLER_NAME.markup">ISO Media file produced by Google Inc.</property>
  <property name="meta.attr.1.stream.VENDOR_ID.markup">[0][0][0][0]</property>
  <property name="meta.attr.1.stream.ENCODER.markup">Lavc59.18.100 pcm_s16le</property>
  <property name="meta.attr.1.stream.DURATION.markup">00:09:48.138000000</property>
  <property name="meta.attr.COMPATIBLE_BRANDS.markup">isomiso2avc1mp41</property>
  <property name="meta.attr.MAJOR_BRAND.markup">isom</property>
  <property name="meta.attr.MINOR_VERSION.markup">512</property>
  <property name="meta.attr.ENCODER.markup">Lavf59.16.100</property>
  <property name="seekable">1</property>
  <property name="meta.media.sample_aspect_num">1</property>
  <property name="meta.media.sample_aspect_den">1</property>
  <property name="aspect_ratio">1</property>
  <property name="audio_index">-1</property>
  <property name="video_index">0</property>
  <property name="mute_on_pause">0</property>
  <property name="mlt_service">avformat</property>
  <property name="kdenlive:clipname">REACTION! Star Wars Episode IX - The Rise of Skywalker - Teaser Trailer #1 - Daisy Ridley Movie 2019 [0ug2DOoxJ1g].mp4</property>
  <property name="kdenlive:clip_type">0</property>
  <property name="kdenlive:folderid">11</property>
  <property name="kdenlive:id">43</property>
  <property name="kdenlive:file_size">98421644</property>
  <property name="kdenlive:file_hash">35353995bc019f32997c74c3873c811d</property>
  <property name="kdenlive:proxy">/home/liquidzulu/.cache/kdenlive/proxy/35353995bc019f32997c74c3873c811d.mkv</property>
  <property name="kdenlive:originalurl">b-roll/REACTION! Star Wars Episode IX - The Rise of Skywalker - Teaser Trailer #1 - Daisy Ridley Movie 2019 [0ug2DOoxJ1g].mp4</property>
  <property name="kdenlive:original.mlt_type">producer</property>
  <property name="kdenlive:original.in">0</property>
  <property name="kdenlive:original.out">17643</property>
  <property name="kdenlive:original.length">17644</property>
  <property name="kdenlive:original.eof">pause</property>
  <property name="kdenlive:original.resource">b-roll/REACTION! Star Wars Episode IX - The Rise of Skywalker - Teaser Trailer #1 - Daisy Ridley Movie 2019 [0ug2DOoxJ1g].mp4</property>
  <property name="kdenlive:original.meta.media.nb_streams">2</property>
  <property name="kdenlive:original.meta.media.0.stream.type">video</property>
  <property name="kdenlive:original.meta.media.0.stream.frame_rate">23.976</property>
  <property name="kdenlive:original.meta.media.0.stream.sample_aspect_ratio">1</property>
  <property name="kdenlive:original.meta.media.0.codec.width">1920</property>
  <property name="kdenlive:original.meta.media.0.codec.height">1080</property>
  <property name="kdenlive:original.meta.media.0.codec.rotate">0</property>
  <property name="kdenlive:original.meta.media.0.codec.pix_fmt">yuv420p</property>
  <property name="kdenlive:original.meta.media.0.codec.sample_aspect_ratio">1</property>
  <property name="kdenlive:original.meta.media.0.codec.colorspace">709</property>
  <property name="kdenlive:original.meta.media.0.codec.color_trc">1</property>
  <property name="kdenlive:original.meta.media.0.codec.name">h264</property>
  <property name="kdenlive:original.meta.media.0.codec.long_name">H.264 / AVC / MPEG-4 AVC / MPEG-4 part 10</property>
  <property name="kdenlive:original.meta.media.0.codec.bit_rate">1204856</property>
  <property name="kdenlive:original.meta.attr.0.stream.handler_name.markup">ISO Media file produced by Google Inc.</property>
  <property name="kdenlive:original.meta.attr.0.stream.vendor_id.markup">[0][0][0][0]</property>
  <property name="kdenlive:original.meta.media.1.stream.type">audio</property>
  <property name="kdenlive:original.meta.media.1.codec.sample_fmt">fltp</property>
  <property name="kdenlive:original.meta.media.1.codec.sample_rate">44100</property>
  <property name="kdenlive:original.meta.media.1.codec.channels">2</property>
  <property name="kdenlive:original.meta.media.1.codec.name">aac</property>
  <property name="kdenlive:original.meta.media.1.codec.long_name">AAC (Advanced Audio Coding)</property>
  <property name="kdenlive:original.meta.media.1.codec.bit_rate">127999</property>
  <property name="kdenlive:original.meta.attr.1.stream.language.markup">eng</property>
  <property name="kdenlive:original.meta.attr.1.stream.handler_name.markup">ISO Media file produced by Google Inc.</property>
  <property name="kdenlive:original.meta.attr.1.stream.vendor_id.markup">[0][0][0][0]</property>
  <property name="kdenlive:original.meta.attr.major_brand.markup">isom</property>
  <property name="kdenlive:original.meta.attr.minor_version.markup">512</property>
  <property name="kdenlive:original.meta.attr.compatible_brands.markup">isomiso2avc1mp41</property>
  <property name="kdenlive:original.meta.attr.encoder.markup">Lavf59.16.100</property>
  <property name="kdenlive:original.seekable">1</property>
  <property name="kdenlive:original.width">1920</property>
  <property name="kdenlive:original.height">1080</property>
  <property name="kdenlive:original.meta.media.sample_aspect_num">1</property>
  <property name="kdenlive:original.meta.media.sample_aspect_den">1</property>
  <property name="kdenlive:original.aspect_ratio">1</property>
  <property name="kdenlive:original.audio_index">1</property>
  <property name="kdenlive:original.video_index">0</property>
  <property name="kdenlive:original.mute_on_pause">0</property>
  <property name="kdenlive:original.mlt_service">avformat-novalidate</property>
  <property name="kdenlive:original.meta.media.frame_rate_num">24000</property>
  <property name="kdenlive:original.meta.media.frame_rate_den">1001</property>
  <property name="kdenlive:original.meta.media.colorspace">709</property>
  <property name="kdenlive:original.meta.media.color_trc">1</property>
  <property name="kdenlive:original.meta.media.has_b_frames">1</property>
  <property name="kdenlive:original.meta.media.width">1920</property>
  <property name="kdenlive:original.meta.media.height">1080</property>
  <property name="kdenlive:original.meta.media.color_range">mpeg</property>
  <property name="kdenlive:original.meta.media.top_field_first">0</property>
  <property name="kdenlive:original.meta.media.progressive">1</property>
  <property name="kdenlive:original.kdenlive:clip_type">0</property>
  <property name="kdenlive:original.kdenlive:folderid">11</property>
  <property name="kdenlive:original.kdenlive:id">43</property>
  <property name="kdenlive:original.kdenlive:file_size">98421644</property>
  <property name="kdenlive:original.kdenlive:file_hash">35353995bc019f32997c74c3873c811d</property>
  <property name="kdenlive:original.backup">1</property>
  <property name="kdenlive:audio_max1">204</property>
  <property name="meta.media.frame_rate_num">24000</property>
  <property name="meta.media.frame_rate_den">1001</property>
  <property name="meta.media.colorspace">601</property>
  <property name="meta.media.color_trc">1</property>
  <property name="meta.media.has_b_frames">0</property>
  <property name="meta.media.width">640</property>
  <property name="meta.media.height">360</property>
  <property name="meta.media.color_range">full</property>
  <property name="meta.media.top_field_first">0</property>
  <property name="meta.media.progressive">1</property>
  <property name="kdenlive:active_streams">-1</property>
  <property name="set.test_audio">1</property>
 </producer>
 <playlist id="main_bin">
  <property name="kdenlive:folder.-1.4">music</property>
  <property name="kdenlive:folder.-1.8">titles</property>
  <property name="kdenlive:folder.-1.9">images</property>
  <property name="kdenlive:folder.-1.11">b-roll</property>
  <property name="kdenlive:folder.-1.26">a-roll</property>
  <property name="kdenlive:docproperties.activeTrack">0</property>
  <property name="kdenlive:docproperties.audioChannels">2</property>
  <property name="kdenlive:docproperties.audioTarget">-1</property>
  <property name="kdenlive:docproperties.disablepreview">0</property>
  <property name="kdenlive:docproperties.documentid">1655890433273</property>
  <property name="kdenlive:docproperties.enableTimelineZone">0</property>
  <property name="kdenlive:docproperties.enableexternalproxy">0</property>
  <property name="kdenlive:docproperties.enableproxy">1</property>
  <property name="kdenlive:docproperties.externalproxyparams">./;GL;.LRV;./;GX;.MP4</property>
  <property name="kdenlive:docproperties.generateimageproxy">0</property>
  <property name="kdenlive:docproperties.generateproxy">1</property>
  <property name="kdenlive:docproperties.groups">[
]
</property>
  <property name="kdenlive:docproperties.kdenliveversion">22.04.2</property>
  <property name="kdenlive:docproperties.position">8650</property>
  <property name="kdenlive:docproperties.previewextension"/>
  <property name="kdenlive:docproperties.previewparameters"/>
  <property name="kdenlive:docproperties.profile">atsc_1080p_30</property>
  <property name="kdenlive:docproperties.proxyextension"/>
  <property name="kdenlive:docproperties.proxyimageminsize">2000</property>
  <property name="kdenlive:docproperties.proxyimagesize">800</property>
  <property name="kdenlive:docproperties.proxyminsize">1000</property>
  <property name="kdenlive:docproperties.proxyparams"/>
  <property name="kdenlive:docproperties.proxyresize">640</property>
  <property name="kdenlive:docproperties.scrollPos">532</property>
  <property name="kdenlive:docproperties.seekOffset">30000</property>
  <property name="kdenlive:docproperties.version">1.04</property>
  <property name="kdenlive:docproperties.verticalzoom">1</property>
  <property name="kdenlive:docproperties.videoTarget">6</property>
  <property name="kdenlive:docproperties.zonein">0</property>
  <property name="kdenlive:docproperties.zoneout">75</property>
  <property name="kdenlive:docproperties.zoom">12</property>
  <property name="kdenlive:expandedFolders">26;11;9</property>
  <property name="kdenlive:documentnotes"/>
  <property name="kdenlive:docproperties.rendercategory">Generic (HD for web, mobile devices...)</property>
  <property name="kdenlive:docproperties.renderendguide">-1</property>
  <property name="kdenlive:docproperties.renderexportaudio">0</property>
  <property name="kdenlive:docproperties.rendermode">0</property>
  <property name="kdenlive:docproperties.renderplay">0</property>
  <property name="kdenlive:docproperties.renderpreview">0</property>
  <property name="kdenlive:docproperties.renderprofile">WebM-VP8/Vorbis (libre)</property>
  <property name="kdenlive:docproperties.renderratio">1</property>
  <property name="kdenlive:docproperties.renderrescale">0</property>
  <property name="kdenlive:docproperties.renderrescaleheight">540</property>
  <property name="kdenlive:docproperties.renderrescalewidth">960</property>
  <property name="kdenlive:docproperties.renderspeed">6</property>
  <property name="kdenlive:docproperties.renderstartguide">-1</property>
  <property name="kdenlive:docproperties.rendertcoverlay">0</property>
  <property name="kdenlive:docproperties.rendertctype">-1</property>
  <property name="kdenlive:docproperties.rendertwopass">0</property>
  <property name="kdenlive:docproperties.renderurl">neoprags-vs-disney.webm</property>
  <property name="xml_retain">1</property>
  <entry producer="producer15" in="00:00:00.000" out="00:06:49.600"/>
  <entry producer="producer0" in="00:00:00.000" out="00:03:12.167"/>
  <entry producer="producer1" in="00:00:00.000" out="00:03:04.567"/>
  <entry producer="producer2" in="00:00:00.000" out="00:00:04.967"/>
  <entry producer="producer3" in="00:00:00.000" out="00:00:04.967"/>
  <entry producer="producer4" in="00:00:00.000" out="00:06:35.267"/>
  <entry producer="producer5" in="00:00:00.000" out="00:00:04.967"/>
  <entry producer="producer6" in="00:00:00.000" out="00:03:13.800"/>
  <entry producer="producer7" in="00:00:00.000" out="00:02:51.467"/>
  <entry producer="producer8" in="00:00:00.000" out="00:04:38.433"/>
  <entry producer="producer9" in="00:00:00.000" out="00:00:05.467"/>
  <entry producer="producer13" in="00:00:00.000" out="00:02:02.000"/>
  <entry producer="producer11" in="00:00:00.000" out="00:00:04.967"/>
  <entry producer="producer10" in="00:00:00.000" out="00:00:04.967"/>
  <entry producer="producer12" in="00:00:00.000" out="00:00:04.967"/>
  <entry producer="producer16" in="00:00:00.000" out="00:04:46.200"/>
  <entry producer="producer14" in="00:00:00.000" out="00:06:49.533"/>
  <entry producer="producer17" in="00:00:00.000" out="00:00:04.967"/>
  <entry producer="producer18" in="00:00:00.000" out="00:03:45.633"/>
  <entry producer="producer19" in="00:00:00.000" out="00:02:36.067"/>
  <entry producer="producer20" in="00:00:00.000" out="00:16:18.633"/>
  <entry producer="producer21" in="00:00:00.000" out="00:02:45.833"/>
  <entry producer="producer22" in="00:00:00.000" out="00:00:04.967"/>
  <entry producer="producer23" in="00:00:00.000" out="00:00:04.967"/>
  <entry producer="producer24" in="00:00:00.000" out="00:00:20.933"/>
  <entry producer="producer25" in="00:00:00.000" out="00:00:04.967"/>
  <entry producer="producer26" in="00:00:00.000" out="01:00:50.933"/>
  <entry producer="producer27" in="00:00:00.000" out="00:00:04.967"/>
  <entry producer="producer28" in="00:00:00.000" out="00:00:04.967"/>
  <entry producer="producer29" in="00:00:00.000" out="00:00:04.967"/>
  <entry producer="producer30" in="00:00:00.000" out="00:00:04.967"/>
  <entry producer="producer31" in="00:00:00.000" out="00:00:04.967"/>
  <entry producer="producer32" in="00:00:00.000" out="00:00:04.967"/>
  <entry producer="producer33" in="00:00:00.000" out="00:00:04.967"/>
  <entry producer="producer34" in="00:00:00.000" out="00:09:48.100"/>
 </playlist>
 <producer id="black_track" in="00:00:00.000" out="00:21:27.767">
  <property name="length">2147483647</property>
  <property name="eof">continue</property>
  <property name="resource">black</property>
  <property name="aspect_ratio">1</property>
  <property name="mlt_service">color</property>
  <property name="mlt_image_format">rgba</property>
  <property name="set.test_audio">0</property>
 </producer>
 <producer id="producer35" in="00:00:00.000" out="00:03:04.567">
  <property name="length">5538</property>
  <property name="eof">pause</property>
  <property name="resource">/home/liquidzulu/Music/youtube-music/Soudiere/SOUDIERE - 2HARD.mp3</property>
  <property name="audio_index">0</property>
  <property name="video_index">-1</property>
  <property name="mute_on_pause">0</property>
  <property name="mlt_service">avformat-novalidate</property>
  <property name="meta.media.nb_streams">1</property>
  <property name="meta.media.0.stream.type">audio</property>
  <property name="meta.media.0.codec.sample_fmt">fltp</property>
  <property name="meta.media.0.codec.sample_rate">48000</property>
  <property name="meta.media.0.codec.channels">2</property>
  <property name="meta.media.0.codec.name">mp3float</property>
  <property name="meta.media.0.codec.long_name">MP3 (MPEG audio layer 3)</property>
  <property name="meta.media.0.codec.bit_rate">121338</property>
  <property name="meta.attr.0.stream.encoder.markup">Lavc57.89</property>
  <property name="meta.attr.encoder.markup">Lavf57.71.100</property>
  <property name="seekable">1</property>
  <property name="kdenlive:clipname"/>
  <property name="kdenlive:clip_type">1</property>
  <property name="kdenlive:folderid">4</property>
  <property name="kdenlive:id">6</property>
  <property name="kdenlive:file_size">2799669</property>
  <property name="kdenlive:file_hash">953009a181852c19d95661a6168eb295</property>
  <property name="kdenlive:audio_max0">252</property>
  <property name="xml">was here</property>
  <property name="set.test_audio">0</property>
  <property name="set.test_image">1</property>
 </producer>
 <producer id="producer36" in="00:00:00.000" out="00:03:13.800">
  <property name="length">5815</property>
  <property name="eof">pause</property>
  <property name="resource">/home/liquidzulu/Music/youtube-music/MDE/Million Dollar Extreme Presents - World Peace Episode 4 Intro Theme - composed by Brian Ellis.mp3</property>
  <property name="audio_index">0</property>
  <property name="video_index">-1</property>
  <property name="mute_on_pause">0</property>
  <property name="mlt_service">avformat-novalidate</property>
  <property name="meta.media.nb_streams">1</property>
  <property name="meta.media.0.stream.type">audio</property>
  <property name="meta.media.0.codec.sample_fmt">fltp</property>
  <property name="meta.media.0.codec.sample_rate">48000</property>
  <property name="meta.media.0.codec.channels">2</property>
  <property name="meta.media.0.codec.name">mp3float</property>
  <property name="meta.media.0.codec.long_name">MP3 (MPEG audio layer 3)</property>
  <property name="meta.media.0.codec.bit_rate">136358</property>
  <property name="meta.attr.0.stream.encoder.markup">Lavc57.89</property>
  <property name="meta.attr.encoder.markup">Lavf57.71.100</property>
  <property name="seekable">1</property>
  <property name="kdenlive:clipname"/>
  <property name="kdenlive:clip_type">1</property>
  <property name="kdenlive:folderid">4</property>
  <property name="kdenlive:id">14</property>
  <property name="kdenlive:file_size">3303717</property>
  <property name="kdenlive:file_hash">6c21ebb6e7e8eae3e9b81295290810da</property>
  <property name="kdenlive:audio_max0">243</property>
  <property name="xml">was here</property>
  <property name="set.test_audio">0</property>
  <property name="set.test_image">1</property>
 </producer>
 <producer id="producer37" in="00:00:00.000" out="00:02:51.467">
  <property name="length">5145</property>
  <property name="eof">pause</property>
  <property name="resource">/home/liquidzulu/Music/youtube-music/hensonn/Hensonn - Hallucinations.mp3</property>
  <property name="audio_index">0</property>
  <property name="video_index">-1</property>
  <property name="mute_on_pause">0</property>
  <property name="mlt_service">avformat-novalidate</property>
  <property name="meta.media.nb_streams">2</property>
  <property name="meta.media.0.stream.type">audio</property>
  <property name="meta.media.0.codec.sample_fmt">fltp</property>
  <property name="meta.media.0.codec.sample_rate">44100</property>
  <property name="meta.media.0.codec.channels">2</property>
  <property name="meta.media.0.codec.name">mp3float</property>
  <property name="meta.media.0.codec.long_name">MP3 (MPEG audio layer 3)</property>
  <property name="meta.media.0.codec.bit_rate">128000</property>
  <property name="meta.attr.0.stream.encoder.markup">Lavf</property>
  <property name="meta.media.1.stream.type">video</property>
  <property name="meta.media.1.stream.frame_rate">-nan</property>
  <property name="meta.media.1.stream.sample_aspect_ratio">0</property>
  <property name="meta.media.1.codec.width">500</property>
  <property name="meta.media.1.codec.height">500</property>
  <property name="meta.media.1.codec.rotate">0</property>
  <property name="meta.media.1.codec.pix_fmt">yuvj420p</property>
  <property name="meta.media.1.codec.sample_aspect_ratio">1</property>
  <property name="meta.media.1.codec.colorspace">601</property>
  <property name="meta.media.1.codec.name">mjpeg</property>
  <property name="meta.media.1.codec.long_name">MJPEG (Motion JPEG)</property>
  <property name="meta.media.1.codec.bit_rate">0</property>
  <property name="meta.attr.1.stream.title.markup">Cover</property>
  <property name="meta.attr.1.stream.comment.markup">Cover (front)</property>
  <property name="meta.attr.title.markup">Hensonn - Hallucinations</property>
  <property name="meta.attr.artist.markup">Hensonn</property>
  <property name="meta.attr.date.markup">2021-04-10T10</property>
  <property name="meta.attr.genre.markup">House</property>
  <property name="seekable">1</property>
  <property name="meta.media.sample_aspect_num">1</property>
  <property name="meta.media.sample_aspect_den">1</property>
  <property name="aspect_ratio">1</property>
  <property name="kdenlive:clipname"/>
  <property name="kdenlive:clip_type">0</property>
  <property name="set.test_image">1</property>
  <property name="kdenlive:folderid">4</property>
  <property name="kdenlive:id">15</property>
  <property name="kdenlive:file_size">2830322</property>
  <property name="kdenlive:file_hash">cdaa11fde0bb8a6e511791576407ae50</property>
  <property name="kdenlive:audio_max0">253</property>
  <property name="xml">was here</property>
  <property name="meta.media.frame_rate_num">90000</property>
  <property name="meta.media.frame_rate_den">1</property>
  <property name="meta.media.colorspace">601</property>
  <property name="meta.media.color_trc">2</property>
  <property name="meta.media.has_b_frames">0</property>
  <property name="meta.media.width">500</property>
  <property name="meta.media.height">500</property>
  <property name="meta.media.color_range">full</property>
  <property name="meta.media.top_field_first">0</property>
  <property name="meta.media.progressive">1</property>
  <property name="set.test_audio">0</property>
 </producer>
 <playlist id="playlist0">
  <property name="kdenlive:audio_track">1</property>
  <entry producer="producer35" in="00:00:15.467" out="00:01:08.033">
   <property name="kdenlive:id">6</property>
   <filter id="filter0">
    <property name="window">75</property>
    <property name="max_gain">20dB</property>
    <property name="level">00:00:15.467=0;00:00:46.100=0;00:00:46.167=-6</property>
    <property name="mlt_service">volume</property>
    <property name="kdenlive_id">volume</property>
    <property name="kdenlive:collapsed">0</property>
   </filter>
  </entry>
  <blank length="00:00:02.533"/>
  <entry producer="producer36" in="00:00:16.800" out="00:01:19.867">
   <property name="kdenlive:id">14</property>
   <filter id="filter1">
    <property name="window">75</property>
    <property name="max_gain">20dB</property>
    <property name="level">00:00:16.800=-15</property>
    <property name="mlt_service">volume</property>
    <property name="kdenlive_id">volume</property>
    <property name="kdenlive:collapsed">0</property>
   </filter>
  </entry>
  <blank length="00:00:02.533"/>
  <entry producer="producer37" in="00:00:00.000" out="00:02:46.967">
   <property name="kdenlive:id">15</property>
   <filter id="filter2">
    <property name="window">75</property>
    <property name="max_gain">20dB</property>
    <property name="level">00:00:00.000=-8;00:01:08.867=-8;00:01:09.600=10;00:01:44.333=-8;00:02:37.767=-8;00:02:38.000=3</property>
    <property name="mlt_service">volume</property>
    <property name="kdenlive_id">volume</property>
    <property name="kdenlive:collapsed">0</property>
   </filter>
  </entry>
 </playlist>
 <playlist id="playlist1">
  <property name="kdenlive:audio_track">1</property>
 </playlist>
 <tractor id="tractor0" in="00:00:00.000" out="00:04:47.733">
  <property name="kdenlive:audio_track">1</property>
  <property name="kdenlive:trackheight">67</property>
  <property name="kdenlive:timeline_active">1</property>
  <property name="kdenlive:collapsed">28</property>
  <property name="kdenlive:thumbs_format"/>
  <property name="kdenlive:audio_rec"/>
  <track hide="video" producer="playlist0"/>
  <track hide="video" producer="playlist1"/>
  <filter id="filter3">
   <property name="window">75</property>
   <property name="max_gain">20dB</property>
   <property name="level">-18.314</property>
   <property name="mlt_service">volume</property>
   <property name="internal_added">237</property>
   <property name="disable">0</property>
  </filter>
  <filter id="filter4">
   <property name="channel">-1</property>
   <property name="mlt_service">panner</property>
   <property name="internal_added">237</property>
   <property name="start">0.5</property>
   <property name="disable">1</property>
  </filter>
  <filter id="filter5">
   <property name="iec_scale">0</property>
   <property name="mlt_service">audiolevel</property>
   <property name="peak">1</property>
   <property name="disable">1</property>
  </filter>
 </tractor>
 <producer id="producer38" in="00:00:00.000" out="00:06:49.600">
  <property name="length">12289</property>
  <property name="eof">pause</property>
  <property name="resource">audio/proc.mp3</property>
  <property name="audio_index">0</property>
  <property name="video_index">-1</property>
  <property name="mute_on_pause">0</property>
  <property name="mlt_service">avformat-novalidate</property>
  <property name="meta.media.nb_streams">1</property>
  <property name="meta.media.0.stream.type">audio</property>
  <property name="meta.media.0.codec.sample_fmt">fltp</property>
  <property name="meta.media.0.codec.sample_rate">44100</property>
  <property name="meta.media.0.codec.channels">2</property>
  <property name="meta.media.0.codec.name">mp3float</property>
  <property name="meta.media.0.codec.long_name">MP3 (MPEG audio layer 3)</property>
  <property name="meta.media.0.codec.bit_rate">192000</property>
  <property name="meta.attr.TBPM.markup">130</property>
  <property name="meta.attr.encoded_by.markup">LAME in FL Studio 20</property>
  <property name="meta.attr.date.markup">2022</property>
  <property name="seekable">1</property>
  <property name="kdenlive:clipname"/>
  <property name="kdenlive:clip_type">1</property>
  <property name="kdenlive:folderid">-1</property>
  <property name="kdenlive:id">3</property>
  <property name="kdenlive:file_size">9831096</property>
  <property name="kdenlive:file_hash">0b0373ae3af1db33bcdbfec231a13b38</property>
  <property name="kdenlive:audio_max0">230</property>
  <property name="xml">was here</property>
  <property name="set.test_audio">0</property>
  <property name="set.test_image">1</property>
 </producer>
 <producer id="producer39" in="00:00:00.000" out="00:03:12.167">
  <property name="length">5766</property>
  <property name="eof">pause</property>
  <property name="resource">/home/liquidzulu/Music/youtube-music/Machine Girl/A Song Called Clive Barker [FIeulwYrRuQ].mp3</property>
  <property name="audio_index">0</property>
  <property name="video_index">-1</property>
  <property name="mute_on_pause">0</property>
  <property name="mlt_service">avformat-novalidate</property>
  <property name="meta.media.nb_streams">1</property>
  <property name="meta.media.0.stream.type">audio</property>
  <property name="meta.media.0.codec.sample_fmt">fltp</property>
  <property name="meta.media.0.codec.sample_rate">48000</property>
  <property name="meta.media.0.codec.channels">2</property>
  <property name="meta.media.0.codec.name">mp3float</property>
  <property name="meta.media.0.codec.long_name">MP3 (MPEG audio layer 3)</property>
  <property name="meta.media.0.codec.bit_rate">127749</property>
  <property name="meta.attr.0.stream.encoder.markup">Lavc59.18</property>
  <property name="meta.attr.encoder.markup">Lavf59.16.100</property>
  <property name="seekable">1</property>
  <property name="kdenlive:clipname"/>
  <property name="kdenlive:clip_type">1</property>
  <property name="kdenlive:folderid">4</property>
  <property name="kdenlive:id">5</property>
  <property name="kdenlive:file_size">3069477</property>
  <property name="kdenlive:file_hash">528285bb86c069868169f154f568f6b5</property>
  <property name="kdenlive:audio_max0">239</property>
  <property name="xml">was here</property>
  <property name="set.test_audio">0</property>
  <property name="set.test_image">1</property>
 </producer>
 <playlist id="playlist2">
  <property name="kdenlive:audio_track">1</property>
  <entry producer="producer38" in="00:00:02.800" out="00:00:10.633">
   <property name="kdenlive:id">3</property>
  </entry>
  <entry producer="producer38" in="00:00:12.567" out="00:00:17.667">
   <property name="kdenlive:id">3</property>
   <filter id="filter6" in="00:00:12.567" out="00:00:12.600">
    <property name="window">75</property>
    <property name="max_gain">20dB</property>
    <property name="mlt_service">volume</property>
    <property name="kdenlive_id">fadein</property>
    <property name="gain">0</property>
    <property name="end">1</property>
   </filter>
  </entry>
  <entry producer="producer38" in="00:00:18.500" out="00:00:24.600">
   <property name="kdenlive:id">3</property>
  </entry>
  <entry producer="producer38" in="00:00:25.000" out="00:00:29.100">
   <property name="kdenlive:id">3</property>
  </entry>
  <entry producer="producer38" in="00:00:31.433" out="00:00:36.967">
   <property name="kdenlive:id">3</property>
  </entry>
  <entry producer="producer38" in="00:00:37.167" out="00:00:39.667">
   <property name="kdenlive:id">3</property>
  </entry>
  <entry producer="producer38" in="00:00:40.500" out="00:00:44.833">
   <property name="kdenlive:id">3</property>
   <filter id="filter7" in="00:00:40.500" out="00:00:40.533">
    <property name="window">75</property>
    <property name="max_gain">20dB</property>
    <property name="mlt_service">volume</property>
    <property name="kdenlive_id">fadein</property>
    <property name="gain">0</property>
    <property name="end">1</property>
   </filter>
  </entry>
  <entry producer="producer38" in="00:00:47.933" out="00:00:54.433">
   <property name="kdenlive:id">3</property>
  </entry>
  <entry producer="producer38" in="00:00:56.000" out="00:01:02.100">
   <property name="kdenlive:id">3</property>
   <filter id="filter8" in="00:00:56.000" out="00:00:56.067">
    <property name="window">75</property>
    <property name="max_gain">20dB</property>
    <property name="mlt_service">volume</property>
    <property name="kdenlive_id">fadein</property>
    <property name="gain">0</property>
    <property name="end">1</property>
   </filter>
  </entry>
  <entry producer="producer38" in="00:01:07.733" out="00:01:11.900">
   <property name="kdenlive:id">3</property>
  </entry>
  <entry producer="producer39" in="00:00:00.900" out="00:00:03.400">
   <property name="kdenlive:id">5</property>
   <filter id="filter9">
    <property name="window">75</property>
    <property name="max_gain">20dB</property>
    <property name="level">00:00:00.900=-8</property>
    <property name="mlt_service">volume</property>
    <property name="kdenlive_id">volume</property>
    <property name="kdenlive:collapsed">0</property>
   </filter>
  </entry>
  <entry producer="producer38" in="00:01:23.367" out="00:01:34.200">
   <property name="kdenlive:id">3</property>
   <filter id="filter10" in="00:01:23.367" out="00:01:23.433">
    <property name="window">75</property>
    <property name="max_gain">20dB</property>
    <property name="mlt_service">volume</property>
    <property name="kdenlive_id">fadein</property>
    <property name="gain">0</property>
    <property name="end">1</property>
   </filter>
  </entry>
  <entry producer="producer38" in="00:01:35.867" out="00:01:39.133">
   <property name="kdenlive:id">3</property>
  </entry>
  <entry producer="producer38" in="00:01:39.467" out="00:01:41.900">
   <property name="kdenlive:id">3</property>
  </entry>
  <entry producer="producer38" in="00:01:46.200" out="00:01:51.267">
   <property name="kdenlive:id">3</property>
   <filter id="filter11" in="00:01:46.200" out="00:01:46.267">
    <property name="window">75</property>
    <property name="max_gain">20dB</property>
    <property name="mlt_service">volume</property>
    <property name="kdenlive_id">fadein</property>
    <property name="gain">0</property>
    <property name="end">1</property>
   </filter>
  </entry>
  <entry producer="producer38" in="00:01:52.200" out="00:02:00.667">
   <property name="kdenlive:id">3</property>
   <filter id="filter12" in="00:01:52.200" out="00:01:52.233">
    <property name="window">75</property>
    <property name="max_gain">20dB</property>
    <property name="mlt_service">volume</property>
    <property name="kdenlive_id">fadein</property>
    <property name="gain">0</property>
    <property name="end">1</property>
   </filter>
  </entry>
  <entry producer="producer38" in="00:02:01.133" out="00:02:05.900">
   <property name="kdenlive:id">3</property>
  </entry>
  <entry producer="producer38" in="00:02:06.500" out="00:02:11.167">
   <property name="kdenlive:id">3</property>
  </entry>
  <entry producer="producer38" in="00:02:12.133" out="00:02:18.633">
   <property name="kdenlive:id">3</property>
   <filter id="filter13" in="00:02:12.133" out="00:02:12.200">
    <property name="window">75</property>
    <property name="max_gain">20dB</property>
    <property name="mlt_service">volume</property>
    <property name="kdenlive_id">fadein</property>
    <property name="gain">0</property>
    <property name="end">1</property>
   </filter>
  </entry>
  <entry producer="producer38" in="00:02:19.600" out="00:02:25.700">
   <property name="kdenlive:id">3</property>
   <filter id="filter14" in="00:02:19.600" out="00:02:19.633">
    <property name="window">75</property>
    <property name="max_gain">20dB</property>
    <property name="mlt_service">volume</property>
    <property name="kdenlive_id">fadein</property>
    <property name="gain">0</property>
    <property name="end">1</property>
   </filter>
  </entry>
  <entry producer="producer38" in="00:02:26.033" out="00:02:30.700">
   <property name="kdenlive:id">3</property>
  </entry>
  <entry producer="producer38" in="00:02:31.100" out="00:02:34.833">
   <property name="kdenlive:id">3</property>
   <filter id="filter15" in="00:02:31.100" out="00:02:31.133">
    <property name="window">75</property>
    <property name="max_gain">20dB</property>
    <property name="mlt_service">volume</property>
    <property name="kdenlive_id">fadein</property>
    <property name="gain">0</property>
    <property name="end">1</property>
   </filter>
  </entry>
  <entry producer="producer38" in="00:02:35.200" out="00:02:37.400">
   <property name="kdenlive:id">3</property>
  </entry>
  <entry producer="producer39" in="00:00:00.900" out="00:00:03.400">
   <property name="kdenlive:id">5</property>
   <filter id="filter16">
    <property name="window">75</property>
    <property name="max_gain">20dB</property>
    <property name="level">00:00:00.900=-8</property>
    <property name="mlt_service">volume</property>
    <property name="kdenlive_id">volume</property>
   </filter>
  </entry>
  <entry producer="producer38" in="00:02:40.367" out="00:02:45.267">
   <property name="kdenlive:id">3</property>
   <filter id="filter17" in="00:02:40.367" out="00:02:40.400">
    <property name="window">75</property>
    <property name="max_gain">20dB</property>
    <property name="mlt_service">volume</property>
    <property name="kdenlive_id">fadein</property>
    <property name="gain">0</property>
    <property name="end">1</property>
   </filter>
  </entry>
  <entry producer="producer38" in="00:02:47.167" out="00:02:52.333">
   <property name="kdenlive:id">3</property>
  </entry>
  <entry producer="producer38" in="00:02:52.767" out="00:02:54.733">
   <property name="kdenlive:id">3</property>
  </entry>
  <entry producer="producer38" in="00:02:57.833" out="00:03:04.000">
   <property name="kdenlive:id">3</property>
  </entry>
  <entry producer="producer38" in="00:03:04.233" out="00:03:06.233">
   <property name="kdenlive:id">3</property>
  </entry>
  <entry producer="producer38" in="00:03:10.933" out="00:03:16.133">
   <property name="kdenlive:id">3</property>
   <filter id="filter18" in="00:03:10.933" out="00:03:10.967">
    <property name="window">75</property>
    <property name="max_gain">20dB</property>
    <property name="mlt_service">volume</property>
    <property name="kdenlive_id">fadein</property>
    <property name="gain">0</property>
    <property name="end">1</property>
   </filter>
  </entry>
  <entry producer="producer38" in="00:03:16.733" out="00:03:17.500">
   <property name="kdenlive:id">3</property>
  </entry>
  <entry producer="producer38" in="00:03:23.000" out="00:03:33.167">
   <property name="kdenlive:id">3</property>
  </entry>
  <entry producer="producer38" in="00:03:33.567" out="00:03:35.567">
   <property name="kdenlive:id">3</property>
  </entry>
  <entry producer="producer38" in="00:03:39.467" out="00:03:42.667">
   <property name="kdenlive:id">3</property>
   <filter id="filter19" in="00:03:39.467" out="00:03:39.500">
    <property name="window">75</property>
    <property name="max_gain">20dB</property>
    <property name="mlt_service">volume</property>
    <property name="kdenlive_id">fadein</property>
    <property name="gain">0</property>
    <property name="end">1</property>
   </filter>
  </entry>
  <entry producer="producer38" in="00:03:44.633" out="00:03:49.600">
   <property name="kdenlive:id">3</property>
   <filter id="filter20" in="00:03:44.633" out="00:03:44.667">
    <property name="window">75</property>
    <property name="max_gain">20dB</property>
    <property name="mlt_service">volume</property>
    <property name="kdenlive_id">fadein</property>
    <property name="gain">0</property>
    <property name="end">1</property>
   </filter>
  </entry>
  <entry producer="producer38" in="00:03:53.000" out="00:03:58.367">
   <property name="kdenlive:id">3</property>
   <filter id="filter21" in="00:03:53.000" out="00:03:53.033">
    <property name="window">75</property>
    <property name="max_gain">20dB</property>
    <property name="mlt_service">volume</property>
    <property name="kdenlive_id">fadein</property>
    <property name="gain">0</property>
    <property name="end">1</property>
   </filter>
  </entry>
  <entry producer="producer38" in="00:04:04.800" out="00:04:11.533">
   <property name="kdenlive:id">3</property>
  </entry>
  <entry producer="producer38" in="00:04:11.900" out="00:04:14.533">
   <property name="kdenlive:id">3</property>
  </entry>
  <entry producer="producer38" in="00:04:16.433" out="00:04:21.867">
   <property name="kdenlive:id">3</property>
  </entry>
  <entry producer="producer38" in="00:04:22.200" out="00:04:26.200">
   <property name="kdenlive:id">3</property>
  </entry>
  <entry producer="producer38" in="00:04:27.733" out="00:04:34.167">
   <property name="kdenlive:id">3</property>
  </entry>
  <entry producer="producer38" in="00:04:36.533" out="00:04:41.733">
   <property name="kdenlive:id">3</property>
   <filter id="filter22" in="00:04:36.533" out="00:04:36.600">
    <property name="window">75</property>
    <property name="max_gain">20dB</property>
    <property name="mlt_service">volume</property>
    <property name="kdenlive_id">fadein</property>
    <property name="gain">0</property>
    <property name="end">1</property>
   </filter>
  </entry>
  <entry producer="producer38" in="00:04:42.033" out="00:04:46.233">
   <property name="kdenlive:id">3</property>
  </entry>
  <entry producer="producer38" in="00:04:46.500" out="00:04:47.933">
   <property name="kdenlive:id">3</property>
  </entry>
  <entry producer="producer38" in="00:04:48.267" out="00:04:51.767">
   <property name="kdenlive:id">3</property>
  </entry>
  <entry producer="producer38" in="00:04:52.433" out="00:04:56.700">
   <property name="kdenlive:id">3</property>
  </entry>
  <entry producer="producer38" in="00:04:57.067" out="00:05:00.133">
   <property name="kdenlive:id">3</property>
  </entry>
  <entry producer="producer38" in="00:05:00.533" out="00:05:02.567">
   <property name="kdenlive:id">3</property>
  </entry>
  <entry producer="producer38" in="00:05:02.867" out="00:05:04.500">
   <property name="kdenlive:id">3</property>
  </entry>
  <entry producer="producer38" in="00:05:13.367" out="00:05:17.033">
   <property name="kdenlive:id">3</property>
  </entry>
  <entry producer="producer38" in="00:05:26.733" out="00:05:32.467">
   <property name="kdenlive:id">3</property>
  </entry>
  <entry producer="producer38" in="00:05:32.933" out="00:05:34.400">
   <property name="kdenlive:id">3</property>
  </entry>
  <entry producer="producer38" in="00:05:34.867" out="00:05:40.267">
   <property name="kdenlive:id">3</property>
  </entry>
  <entry producer="producer38" in="00:05:42.533" out="00:05:52.233">
   <property name="kdenlive:id">3</property>
  </entry>
  <entry producer="producer38" in="00:05:55.400" out="00:06:01.333">
   <property name="kdenlive:id">3</property>
  </entry>
  <entry producer="producer38" in="00:06:09.367" out="00:06:12.333">
   <property name="kdenlive:id">3</property>
  </entry>
  <entry producer="producer38" in="00:06:17.567" out="00:06:20.833">
   <property name="kdenlive:id">3</property>
  </entry>
  <entry producer="producer38" in="00:06:24.833" out="00:06:27.267">
   <property name="kdenlive:id">3</property>
  </entry>
  <entry producer="producer38" in="00:06:30.700" out="00:06:38.667">
   <property name="kdenlive:id">3</property>
   <filter id="filter23" in="00:06:30.700" out="00:06:30.733">
    <property name="window">75</property>
    <property name="max_gain">20dB</property>
    <property name="mlt_service">volume</property>
    <property name="kdenlive_id">fadein</property>
    <property name="gain">0</property>
    <property name="end">1</property>
   </filter>
  </entry>
  <entry producer="producer38" in="00:06:39.167" out="00:06:44.767">
   <property name="kdenlive:id">3</property>
   <filter id="filter24" in="00:06:39.167" out="00:06:39.233">
    <property name="window">75</property>
    <property name="max_gain">20dB</property>
    <property name="mlt_service">volume</property>
    <property name="kdenlive_id">fadein</property>
    <property name="gain">0</property>
    <property name="end">1</property>
    <property name="kdenlive:collapsed">0</property>
   </filter>
  </entry>
 </playlist>
 <playlist id="playlist3">
  <property name="kdenlive:audio_track">1</property>
 </playlist>
 <tractor id="tractor1" in="00:00:00.000" out="00:04:38.500">
  <property name="kdenlive:audio_track">1</property>
  <property name="kdenlive:trackheight">67</property>
  <property name="kdenlive:timeline_active">1</property>
  <property name="kdenlive:collapsed">28</property>
  <property name="kdenlive:thumbs_format"/>
  <property name="kdenlive:audio_rec"/>
  <track hide="video" producer="playlist2"/>
  <track hide="video" producer="playlist3"/>
  <filter id="filter26">
   <property name="channel">-1</property>
   <property name="mlt_service">panner</property>
   <property name="internal_added">237</property>
   <property name="start">0.5</property>
   <property name="disable">1</property>
  </filter>
  <filter id="filter27">
   <property name="window">75</property>
   <property name="max_gain">20dB</property>
   <property name="mlt_service">volume</property>
   <property name="internal_added">237</property>
   <property name="disable">1</property>
  </filter>
  <filter id="filter25">
   <property name="iec_scale">0</property>
   <property name="mlt_service">audiolevel</property>
   <property name="peak">1</property>
   <property name="disable">1</property>
  </filter>
 </tractor>
 <producer id="producer40" in="00:00:00.000" out="00:04:38.433">
  <property name="length">8354</property>
  <property name="eof">pause</property>
  <property name="resource">/home/liquidzulu/.cache/kdenlive/proxy/916e1b7229391f7f6103e83c90f07e88.mkv</property>
  <property name="audio_index">-1</property>
  <property name="video_index">0</property>
  <property name="mute_on_pause">0</property>
  <property name="mlt_service">avformat-novalidate</property>
  <property name="meta.media.nb_streams">2</property>
  <property name="meta.media.0.stream.type">video</property>
  <property name="meta.media.0.stream.frame_rate">29.97</property>
  <property name="meta.media.0.stream.sample_aspect_ratio">1</property>
  <property name="meta.media.0.codec.width">640</property>
  <property name="meta.media.0.codec.height">360</property>
  <property name="meta.media.0.codec.rotate">0</property>
  <property name="meta.media.0.codec.pix_fmt">yuvj420p</property>
  <property name="meta.media.0.codec.sample_aspect_ratio">1</property>
  <property name="meta.media.0.codec.colorspace">601</property>
  <property name="meta.media.0.codec.color_trc">1</property>
  <property name="meta.media.0.codec.name">mjpeg</property>
  <property name="meta.media.0.codec.long_name">MJPEG (Motion JPEG)</property>
  <property name="meta.media.0.codec.bit_rate">0</property>
  <property name="meta.attr.0.stream.HANDLER_NAME.markup">ISO Media file produced by Google Inc.</property>
  <property name="meta.attr.0.stream.VENDOR_ID.markup">[0][0][0][0]</property>
  <property name="meta.attr.0.stream.ENCODER.markup">Lavc59.18.100 mjpeg</property>
  <property name="meta.attr.0.stream.DURATION.markup">00:04:38.311000000</property>
  <property name="meta.media.1.stream.type">audio</property>
  <property name="meta.media.1.codec.sample_fmt">s16</property>
  <property name="meta.media.1.codec.sample_rate">44100</property>
  <property name="meta.media.1.codec.channels">2</property>
  <property name="meta.media.1.codec.name">pcm_s16le</property>
  <property name="meta.media.1.codec.long_name">PCM signed 16-bit little-endian</property>
  <property name="meta.media.1.codec.bit_rate">1411200</property>
  <property name="meta.attr.1.stream.language.markup">eng</property>
  <property name="meta.attr.1.stream.HANDLER_NAME.markup">ISO Media file produced by Google Inc.</property>
  <property name="meta.attr.1.stream.VENDOR_ID.markup">[0][0][0][0]</property>
  <property name="meta.attr.1.stream.ENCODER.markup">Lavc59.18.100 pcm_s16le</property>
  <property name="meta.attr.1.stream.DURATION.markup">00:04:38.453000000</property>
  <property name="meta.attr.COMPATIBLE_BRANDS.markup">isomiso2avc1mp41</property>
  <property name="meta.attr.MAJOR_BRAND.markup">isom</property>
  <property name="meta.attr.MINOR_VERSION.markup">512</property>
  <property name="meta.attr.ENCODER.markup">Lavf59.16.100</property>
  <property name="seekable">1</property>
  <property name="meta.media.sample_aspect_num">1</property>
  <property name="meta.media.sample_aspect_den">1</property>
  <property name="aspect_ratio">1</property>
  <property name="kdenlive:clipname">Florida Gov. Ron DeSantis holds news conference in Kissimmee [mZqaptrYb04].mp4</property>
  <property name="kdenlive:clip_type">0</property>
  <property name="kdenlive:folderid">11</property>
  <property name="kdenlive:id">16</property>
  <property name="kdenlive:file_size">21653455</property>
  <property name="kdenlive:file_hash">916e1b7229391f7f6103e83c90f07e88</property>
  <property name="kdenlive:proxy">/home/liquidzulu/.cache/kdenlive/proxy/916e1b7229391f7f6103e83c90f07e88.mkv</property>
  <property name="kdenlive:originalurl">b-roll/Florida Gov. Ron DeSantis holds news conference in Kissimmee [mZqaptrYb04].mp4</property>
  <property name="kdenlive:original.mlt_type">producer</property>
  <property name="kdenlive:original.in">0</property>
  <property name="kdenlive:original.out">8353</property>
  <property name="kdenlive:original.length">8354</property>
  <property name="kdenlive:original.eof">pause</property>
  <property name="kdenlive:original.resource">b-roll/Florida Gov. Ron DeSantis holds news conference in Kissimmee [mZqaptrYb04].mp4</property>
  <property name="kdenlive:original.meta.media.nb_streams">2</property>
  <property name="kdenlive:original.meta.media.0.stream.type">video</property>
  <property name="kdenlive:original.meta.media.0.stream.frame_rate">29.97</property>
  <property name="kdenlive:original.meta.media.0.stream.sample_aspect_ratio">1</property>
  <property name="kdenlive:original.meta.media.0.codec.width">1280</property>
  <property name="kdenlive:original.meta.media.0.codec.height">720</property>
  <property name="kdenlive:original.meta.media.0.codec.rotate">0</property>
  <property name="kdenlive:original.meta.media.0.codec.pix_fmt">yuv420p</property>
  <property name="kdenlive:original.meta.media.0.codec.sample_aspect_ratio">1</property>
  <property name="kdenlive:original.meta.media.0.codec.colorspace">709</property>
  <property name="kdenlive:original.meta.media.0.codec.color_trc">1</property>
  <property name="kdenlive:original.meta.media.0.codec.name">h264</property>
  <property name="kdenlive:original.meta.media.0.codec.long_name">H.264 / AVC / MPEG-4 AVC / MPEG-4 part 10</property>
  <property name="kdenlive:original.meta.media.0.codec.bit_rate">485916</property>
  <property name="kdenlive:original.meta.attr.0.stream.handler_name.markup">ISO Media file produced by Google Inc.</property>
  <property name="kdenlive:original.meta.attr.0.stream.vendor_id.markup">[0][0][0][0]</property>
  <property name="kdenlive:original.meta.media.1.stream.type">audio</property>
  <property name="kdenlive:original.meta.media.1.codec.sample_fmt">fltp</property>
  <property name="kdenlive:original.meta.media.1.codec.sample_rate">44100</property>
  <property name="kdenlive:original.meta.media.1.codec.channels">2</property>
  <property name="kdenlive:original.meta.media.1.codec.name">aac</property>
  <property name="kdenlive:original.meta.media.1.codec.long_name">AAC (Advanced Audio Coding)</property>
  <property name="kdenlive:original.meta.media.1.codec.bit_rate">128007</property>
  <property name="kdenlive:original.meta.attr.1.stream.language.markup">eng</property>
  <property name="kdenlive:original.meta.attr.1.stream.handler_name.markup">ISO Media file produced by Google Inc.</property>
  <property name="kdenlive:original.meta.attr.1.stream.vendor_id.markup">[0][0][0][0]</property>
  <property name="kdenlive:original.meta.attr.major_brand.markup">isom</property>
  <property name="kdenlive:original.meta.attr.minor_version.markup">512</property>
  <property name="kdenlive:original.meta.attr.compatible_brands.markup">isomiso2avc1mp41</property>
  <property name="kdenlive:original.meta.attr.encoder.markup">Lavf59.16.100</property>
  <property name="kdenlive:original.seekable">1</property>
  <property name="kdenlive:original.width">1280</property>
  <property name="kdenlive:original.height">720</property>
  <property name="kdenlive:original.meta.media.sample_aspect_num">1</property>
  <property name="kdenlive:original.meta.media.sample_aspect_den">1</property>
  <property name="kdenlive:original.aspect_ratio">1</property>
  <property name="kdenlive:original.audio_index">1</property>
  <property name="kdenlive:original.video_index">0</property>
  <property name="kdenlive:original.mute_on_pause">0</property>
  <property name="kdenlive:original.mlt_service">avformat-novalidate</property>
  <property name="kdenlive:original.meta.media.frame_rate_num">30000</property>
  <property name="kdenlive:original.meta.media.frame_rate_den">1001</property>
  <property name="kdenlive:original.meta.media.colorspace">709</property>
  <property name="kdenlive:original.meta.media.color_trc">1</property>
  <property name="kdenlive:original.meta.media.has_b_frames">1</property>
  <property name="kdenlive:original.meta.media.width">1280</property>
  <property name="kdenlive:original.meta.media.height">720</property>
  <property name="kdenlive:original.meta.media.color_range">mpeg</property>
  <property name="kdenlive:original.meta.media.top_field_first">0</property>
  <property name="kdenlive:original.meta.media.progressive">1</property>
  <property name="kdenlive:original.kdenlive:clip_type">0</property>
  <property name="kdenlive:original.kdenlive:folderid">11</property>
  <property name="kdenlive:original.kdenlive:id">20</property>
  <property name="kdenlive:original.kdenlive:file_size">21653455</property>
  <property name="kdenlive:original.kdenlive:file_hash">916e1b7229391f7f6103e83c90f07e88</property>
  <property name="kdenlive:original.backup">1</property>
  <property name="kdenlive:audio_max1">237</property>
  <property name="kdenlive:active_streams">-1</property>
  <property name="set.test_audio">1</property>
  <property name="xml">was here</property>
  <property name="meta.media.frame_rate_num">30000</property>
  <property name="meta.media.frame_rate_den">1001</property>
  <property name="meta.media.colorspace">601</property>
  <property name="meta.media.color_trc">1</property>
  <property name="meta.media.has_b_frames">0</property>
  <property name="meta.media.width">640</property>
  <property name="meta.media.height">360</property>
  <property name="meta.media.color_range">full</property>
  <property name="meta.media.top_field_first">0</property>
  <property name="meta.media.progressive">1</property>
  <property name="set.test_image">0</property>
 </producer>
 <producer id="producer41" in="00:00:00.000" out="00:02:02.000">
  <property name="length">3661</property>
  <property name="eof">pause</property>
  <property name="resource">/home/liquidzulu/.cache/kdenlive/proxy/434810db5fcacd43a5eae45a84e65a80.mkv</property>
  <property name="audio_index">-1</property>
  <property name="video_index">0</property>
  <property name="mute_on_pause">0</property>
  <property name="mlt_service">avformat-novalidate</property>
  <property name="meta.media.nb_streams">2</property>
  <property name="meta.media.0.stream.type">video</property>
  <property name="meta.media.0.stream.frame_rate">29.97</property>
  <property name="meta.media.0.stream.sample_aspect_ratio">1</property>
  <property name="meta.media.0.codec.width">640</property>
  <property name="meta.media.0.codec.height">360</property>
  <property name="meta.media.0.codec.rotate">0</property>
  <property name="meta.media.0.codec.pix_fmt">yuvj420p</property>
  <property name="meta.media.0.codec.sample_aspect_ratio">1</property>
  <property name="meta.media.0.codec.colorspace">601</property>
  <property name="meta.media.0.codec.color_trc">1</property>
  <property name="meta.media.0.codec.name">mjpeg</property>
  <property name="meta.media.0.codec.long_name">MJPEG (Motion JPEG)</property>
  <property name="meta.media.0.codec.bit_rate">0</property>
  <property name="meta.attr.0.stream.HANDLER_NAME.markup">ISO Media file produced by Google Inc.</property>
  <property name="meta.attr.0.stream.VENDOR_ID.markup">[0][0][0][0]</property>
  <property name="meta.attr.0.stream.ENCODER.markup">Lavc59.18.100 mjpeg</property>
  <property name="meta.attr.0.stream.DURATION.markup">00:02:01.988000000</property>
  <property name="meta.media.1.stream.type">audio</property>
  <property name="meta.media.1.codec.sample_fmt">s16</property>
  <property name="meta.media.1.codec.sample_rate">44100</property>
  <property name="meta.media.1.codec.channels">2</property>
  <property name="meta.media.1.codec.name">pcm_s16le</property>
  <property name="meta.media.1.codec.long_name">PCM signed 16-bit little-endian</property>
  <property name="meta.media.1.codec.bit_rate">1411200</property>
  <property name="meta.attr.1.stream.language.markup">eng</property>
  <property name="meta.attr.1.stream.HANDLER_NAME.markup">ISO Media file produced by Google Inc.</property>
  <property name="meta.attr.1.stream.VENDOR_ID.markup">[0][0][0][0]</property>
  <property name="meta.attr.1.stream.ENCODER.markup">Lavc59.18.100 pcm_s16le</property>
  <property name="meta.attr.1.stream.DURATION.markup">00:02:02.044000000</property>
  <property name="meta.attr.COMPATIBLE_BRANDS.markup">isomiso2avc1mp41</property>
  <property name="meta.attr.MAJOR_BRAND.markup">isom</property>
  <property name="meta.attr.MINOR_VERSION.markup">512</property>
  <property name="meta.attr.ENCODER.markup">Lavf59.16.100</property>
  <property name="seekable">1</property>
  <property name="meta.media.sample_aspect_num">1</property>
  <property name="meta.media.sample_aspect_den">1</property>
  <property name="aspect_ratio">1</property>
  <property name="kdenlive:clipname">Walt Disney World Resort Destination Promo Video (2020) [mEyUzQUH-IY].mp4</property>
  <property name="kdenlive:clip_type">0</property>
  <property name="kdenlive:folderid">11</property>
  <property name="kdenlive:id">18</property>
  <property name="kdenlive:file_size">61283966</property>
  <property name="kdenlive:file_hash">434810db5fcacd43a5eae45a84e65a80</property>
  <property name="kdenlive:proxy">/home/liquidzulu/.cache/kdenlive/proxy/434810db5fcacd43a5eae45a84e65a80.mkv</property>
  <property name="kdenlive:originalurl">b-roll/Walt Disney World Resort Destination Promo Video (2020) [mEyUzQUH-IY].mp4</property>
  <property name="kdenlive:original.mlt_type">producer</property>
  <property name="kdenlive:original.in">0</property>
  <property name="kdenlive:original.out">3660</property>
  <property name="kdenlive:original.length">3661</property>
  <property name="kdenlive:original.eof">pause</property>
  <property name="kdenlive:original.resource">b-roll/Walt Disney World Resort Destination Promo Video (2020) [mEyUzQUH-IY].mp4</property>
  <property name="kdenlive:original.meta.media.nb_streams">2</property>
  <property name="kdenlive:original.meta.media.0.stream.type">video</property>
  <property name="kdenlive:original.meta.media.0.stream.frame_rate">29.97</property>
  <property name="kdenlive:original.meta.media.0.stream.sample_aspect_ratio">1</property>
  <property name="kdenlive:original.meta.media.0.codec.width">1920</property>
  <property name="kdenlive:original.meta.media.0.codec.height">1080</property>
  <property name="kdenlive:original.meta.media.0.codec.rotate">0</property>
  <property name="kdenlive:original.meta.media.0.codec.pix_fmt">yuv420p</property>
  <property name="kdenlive:original.meta.media.0.codec.sample_aspect_ratio">1</property>
  <property name="kdenlive:original.meta.media.0.codec.colorspace">709</property>
  <property name="kdenlive:original.meta.media.0.codec.color_trc">1</property>
  <property name="kdenlive:original.meta.media.0.codec.name">h264</property>
  <property name="kdenlive:original.meta.media.0.codec.long_name">H.264 / AVC / MPEG-4 AVC / MPEG-4 part 10</property>
  <property name="kdenlive:original.meta.media.0.codec.bit_rate">3882675</property>
  <property name="kdenlive:original.meta.attr.0.stream.handler_name.markup">ISO Media file produced by Google Inc.</property>
  <property name="kdenlive:original.meta.attr.0.stream.vendor_id.markup">[0][0][0][0]</property>
  <property name="kdenlive:original.meta.media.1.stream.type">audio</property>
  <property name="kdenlive:original.meta.media.1.codec.sample_fmt">fltp</property>
  <property name="kdenlive:original.meta.media.1.codec.sample_rate">44100</property>
  <property name="kdenlive:original.meta.media.1.codec.channels">2</property>
  <property name="kdenlive:original.meta.media.1.codec.name">aac</property>
  <property name="kdenlive:original.meta.media.1.codec.long_name">AAC (Advanced Audio Coding)</property>
  <property name="kdenlive:original.meta.media.1.codec.bit_rate">127999</property>
  <property name="kdenlive:original.meta.attr.1.stream.language.markup">eng</property>
  <property name="kdenlive:original.meta.attr.1.stream.handler_name.markup">ISO Media file produced by Google Inc.</property>
  <property name="kdenlive:original.meta.attr.1.stream.vendor_id.markup">[0][0][0][0]</property>
  <property name="kdenlive:original.meta.attr.major_brand.markup">isom</property>
  <property name="kdenlive:original.meta.attr.minor_version.markup">512</property>
  <property name="kdenlive:original.meta.attr.compatible_brands.markup">isomiso2avc1mp41</property>
  <property name="kdenlive:original.meta.attr.encoder.markup">Lavf59.16.100</property>
  <property name="kdenlive:original.seekable">1</property>
  <property name="kdenlive:original.width">1920</property>
  <property name="kdenlive:original.height">1080</property>
  <property name="kdenlive:original.meta.media.sample_aspect_num">1</property>
  <property name="kdenlive:original.meta.media.sample_aspect_den">1</property>
  <property name="kdenlive:original.aspect_ratio">1</property>
  <property name="kdenlive:original.audio_index">1</property>
  <property name="kdenlive:original.video_index">0</property>
  <property name="kdenlive:original.mute_on_pause">0</property>
  <property name="kdenlive:original.mlt_service">avformat-novalidate</property>
  <property name="kdenlive:original.meta.media.frame_rate_num">30000</property>
  <property name="kdenlive:original.meta.media.frame_rate_den">1001</property>
  <property name="kdenlive:original.meta.media.colorspace">709</property>
  <property name="kdenlive:original.meta.media.color_trc">1</property>
  <property name="kdenlive:original.meta.media.has_b_frames">1</property>
  <property name="kdenlive:original.meta.media.width">1920</property>
  <property name="kdenlive:original.meta.media.height">1080</property>
  <property name="kdenlive:original.meta.media.color_range">mpeg</property>
  <property name="kdenlive:original.meta.media.top_field_first">0</property>
  <property name="kdenlive:original.meta.media.progressive">1</property>
  <property name="kdenlive:original.kdenlive:clip_type">0</property>
  <property name="kdenlive:original.kdenlive:folderid">11</property>
  <property name="kdenlive:original.kdenlive:id">22</property>
  <property name="kdenlive:original.kdenlive:file_size">61283966</property>
  <property name="kdenlive:original.kdenlive:file_hash">434810db5fcacd43a5eae45a84e65a80</property>
  <property name="kdenlive:original.backup">1</property>
  <property name="kdenlive:audio_max1">179</property>
  <property name="kdenlive:active_streams">-1</property>
  <property name="set.test_audio">1</property>
  <property name="xml">was here</property>
  <property name="meta.media.frame_rate_num">30000</property>
  <property name="meta.media.frame_rate_den">1001</property>
  <property name="meta.media.colorspace">601</property>
  <property name="meta.media.color_trc">1</property>
  <property name="meta.media.has_b_frames">0</property>
  <property name="meta.media.width">640</property>
  <property name="meta.media.height">360</property>
  <property name="meta.media.color_range">full</property>
  <property name="meta.media.top_field_first">0</property>
  <property name="meta.media.progressive">1</property>
  <property name="set.test_image">0</property>
 </producer>
 <producer id="producer42" in="00:00:00.000" out="00:02:45.833">
  <property name="length">4977</property>
  <property name="eof">pause</property>
  <property name="resource">/home/liquidzulu/.cache/kdenlive/proxy/2162ef49c880468324cb215dcbc1d1a6.mkv</property>
  <property name="meta.media.nb_streams">2</property>
  <property name="meta.media.0.stream.type">video</property>
  <property name="meta.media.0.stream.frame_rate">25</property>
  <property name="meta.media.0.stream.sample_aspect_ratio">1</property>
  <property name="meta.media.0.codec.width">640</property>
  <property name="meta.media.0.codec.height">360</property>
  <property name="meta.media.0.codec.rotate">0</property>
  <property name="meta.media.0.codec.pix_fmt">yuvj420p</property>
  <property name="meta.media.0.codec.sample_aspect_ratio">1</property>
  <property name="meta.media.0.codec.colorspace">601</property>
  <property name="meta.media.0.codec.color_trc">1</property>
  <property name="meta.media.0.codec.name">mjpeg</property>
  <property name="meta.media.0.codec.long_name">MJPEG (Motion JPEG)</property>
  <property name="meta.media.0.codec.bit_rate">0</property>
  <property name="meta.attr.0.stream.HANDLER_NAME.markup">ISO Media file produced by Google Inc. Created on: 06/07/2022.</property>
  <property name="meta.attr.0.stream.VENDOR_ID.markup">[0][0][0][0]</property>
  <property name="meta.attr.0.stream.ENCODER.markup">Lavc59.18.100 mjpeg</property>
  <property name="meta.attr.0.stream.DURATION.markup">00:02:45.840000000</property>
  <property name="meta.media.1.stream.type">audio</property>
  <property name="meta.media.1.codec.sample_fmt">s16</property>
  <property name="meta.media.1.codec.sample_rate">44100</property>
  <property name="meta.media.1.codec.channels">2</property>
  <property name="meta.media.1.codec.name">pcm_s16le</property>
  <property name="meta.media.1.codec.long_name">PCM signed 16-bit little-endian</property>
  <property name="meta.media.1.codec.bit_rate">1411200</property>
  <property name="meta.attr.1.stream.HANDLER_NAME.markup">SoundHandler</property>
  <property name="meta.attr.1.stream.VENDOR_ID.markup">[0][0][0][0]</property>
  <property name="meta.attr.1.stream.ENCODER.markup">Lavc59.18.100 pcm_s16le</property>
  <property name="meta.attr.1.stream.DURATION.markup">00:02:45.883000000</property>
  <property name="meta.attr.COMPATIBLE_BRANDS.markup">isomiso2avc1mp41</property>
  <property name="meta.attr.MAJOR_BRAND.markup">isom</property>
  <property name="meta.attr.MINOR_VERSION.markup">512</property>
  <property name="meta.attr.ENCODER.markup">Lavf59.16.100</property>
  <property name="seekable">1</property>
  <property name="meta.media.sample_aspect_num">1</property>
  <property name="meta.media.sample_aspect_den">1</property>
  <property name="aspect_ratio">1</property>
  <property name="audio_index">-1</property>
  <property name="video_index">0</property>
  <property name="mute_on_pause">0</property>
  <property name="mlt_service">avformat-novalidate</property>
  <property name="kdenlive:clipname">Kings are Bad—Politicans Are Terrible _ Hoppe [ZsIUjxOXFkE].mp4</property>
  <property name="kdenlive:clip_type">2</property>
  <property name="kdenlive:folderid">26</property>
  <property name="kdenlive:id">28</property>
  <property name="kdenlive:file_size">48340766</property>
  <property name="kdenlive:file_hash">2162ef49c880468324cb215dcbc1d1a6</property>
  <property name="kdenlive:proxy">/home/liquidzulu/.cache/kdenlive/proxy/2162ef49c880468324cb215dcbc1d1a6.mkv</property>
  <property name="kdenlive:originalurl">b-roll/Kings are Bad—Politicans Are Terrible _ Hoppe [ZsIUjxOXFkE].mp4</property>
  <property name="kdenlive:original.mlt_type">producer</property>
  <property name="kdenlive:original.in">0</property>
  <property name="kdenlive:original.out">4976</property>
  <property name="kdenlive:original.length">4977</property>
  <property name="kdenlive:original.eof">pause</property>
  <property name="kdenlive:original.resource">b-roll/Kings are Bad—Politicans Are Terrible _ Hoppe [ZsIUjxOXFkE].mp4</property>
  <property name="kdenlive:original.meta.media.nb_streams">2</property>
  <property name="kdenlive:original.meta.media.0.stream.type">video</property>
  <property name="kdenlive:original.meta.media.0.stream.frame_rate">25.006</property>
  <property name="kdenlive:original.meta.media.0.stream.sample_aspect_ratio">1</property>
  <property name="kdenlive:original.meta.media.0.codec.width">1920</property>
  <property name="kdenlive:original.meta.media.0.codec.height">1080</property>
  <property name="kdenlive:original.meta.media.0.codec.rotate">0</property>
  <property name="kdenlive:original.meta.media.0.codec.pix_fmt">yuv420p</property>
  <property name="kdenlive:original.meta.media.0.codec.sample_aspect_ratio">1</property>
  <property name="kdenlive:original.meta.media.0.codec.colorspace">709</property>
  <property name="kdenlive:original.meta.media.0.codec.color_trc">1</property>
  <property name="kdenlive:original.meta.media.0.codec.name">h264</property>
  <property name="kdenlive:original.meta.media.0.codec.long_name">H.264 / AVC / MPEG-4 AVC / MPEG-4 part 10</property>
  <property name="kdenlive:original.meta.media.0.codec.bit_rate">2201645</property>
  <property name="kdenlive:original.meta.attr.0.stream.handler_name.markup">ISO Media file produced by Google Inc. Created on: 06/07/2022.</property>
  <property name="kdenlive:original.meta.attr.0.stream.vendor_id.markup">[0][0][0][0]</property>
  <property name="kdenlive:original.meta.media.1.stream.type">audio</property>
  <property name="kdenlive:original.meta.media.1.codec.sample_fmt">fltp</property>
  <property name="kdenlive:original.meta.media.1.codec.sample_rate">44100</property>
  <property name="kdenlive:original.meta.media.1.codec.channels">2</property>
  <property name="kdenlive:original.meta.media.1.codec.name">aac</property>
  <property name="kdenlive:original.meta.media.1.codec.long_name">AAC (Advanced Audio Coding)</property>
  <property name="kdenlive:original.meta.media.1.codec.bit_rate">125588</property>
  <property name="kdenlive:original.meta.attr.1.stream.handler_name.markup">SoundHandler</property>
  <property name="kdenlive:original.meta.attr.1.stream.vendor_id.markup">[0][0][0][0]</property>
  <property name="kdenlive:original.meta.attr.major_brand.markup">isom</property>
  <property name="kdenlive:original.meta.attr.minor_version.markup">512</property>
  <property name="kdenlive:original.meta.attr.compatible_brands.markup">isomiso2avc1mp41</property>
  <property name="kdenlive:original.meta.attr.encoder.markup">Lavf59.16.100</property>
  <property name="kdenlive:original.seekable">1</property>
  <property name="kdenlive:original.width">1920</property>
  <property name="kdenlive:original.height">1080</property>
  <property name="kdenlive:original.meta.media.sample_aspect_num">1</property>
  <property name="kdenlive:original.meta.media.sample_aspect_den">1</property>
  <property name="kdenlive:original.aspect_ratio">1</property>
  <property name="kdenlive:original.audio_index">1</property>
  <property name="kdenlive:original.video_index">0</property>
  <property name="kdenlive:original.mute_on_pause">0</property>
  <property name="kdenlive:original.mlt_service">avformat-novalidate</property>
  <property name="kdenlive:original.meta.media.frame_rate_num">20730</property>
  <property name="kdenlive:original.meta.media.frame_rate_den">829</property>
  <property name="kdenlive:original.meta.media.colorspace">709</property>
  <property name="kdenlive:original.meta.media.color_trc">1</property>
  <property name="kdenlive:original.meta.media.has_b_frames">0</property>
  <property name="kdenlive:original.meta.media.width">1920</property>
  <property name="kdenlive:original.meta.media.height">1080</property>
  <property name="kdenlive:original.meta.media.color_range">mpeg</property>
  <property name="kdenlive:original.meta.media.top_field_first">0</property>
  <property name="kdenlive:original.meta.media.progressive">1</property>
  <property name="kdenlive:original.kdenlive:clip_type">0</property>
  <property name="kdenlive:original.kdenlive:folderid">26</property>
  <property name="kdenlive:original.kdenlive:id">28</property>
  <property name="kdenlive:original.kdenlive:file_size">48340766</property>
  <property name="kdenlive:original.kdenlive:file_hash">2162ef49c880468324cb215dcbc1d1a6</property>
  <property name="kdenlive:original.backup">1</property>
  <property name="kdenlive:audio_max1">192</property>
  <property name="kdenlive:active_streams">-1</property>
  <property name="set.test_audio">1</property>
  <property name="xml">was here</property>
  <property name="meta.media.frame_rate_num">25</property>
  <property name="meta.media.frame_rate_den">1</property>
  <property name="meta.media.colorspace">601</property>
  <property name="meta.media.color_trc">1</property>
  <property name="meta.media.has_b_frames">0</property>
  <property name="meta.media.width">640</property>
  <property name="meta.media.height">360</property>
  <property name="meta.media.color_range">full</property>
  <property name="meta.media.top_field_first">0</property>
  <property name="meta.media.progressive">1</property>
  <property name="set.test_image">0</property>
 </producer>
 <producer id="producer43" in="00:00:00.000" out="01:00:50.933">
  <property name="length">109529</property>
  <property name="eof">pause</property>
  <property name="resource">/home/liquidzulu/.cache/kdenlive/proxy/7b64ce2d3fb5af59492a51e6a222ffea.mkv</property>
  <property name="meta.media.nb_streams">2</property>
  <property name="meta.media.0.stream.type">video</property>
  <property name="meta.media.0.stream.frame_rate">29.97</property>
  <property name="meta.media.0.stream.sample_aspect_ratio">0</property>
  <property name="meta.media.0.codec.width">640</property>
  <property name="meta.media.0.codec.height">360</property>
  <property name="meta.media.0.codec.rotate">0</property>
  <property name="meta.media.0.codec.pix_fmt">yuvj420p</property>
  <property name="meta.media.0.codec.sample_aspect_ratio">0</property>
  <property name="meta.media.0.codec.colorspace">601</property>
  <property name="meta.media.0.codec.name">mjpeg</property>
  <property name="meta.media.0.codec.long_name">MJPEG (Motion JPEG)</property>
  <property name="meta.media.0.codec.bit_rate">0</property>
  <property name="meta.attr.0.stream.HANDLER_NAME.markup">VideoHandler</property>
  <property name="meta.attr.0.stream.VENDOR_ID.markup">[0][0][0][0]</property>
  <property name="meta.attr.0.stream.ENCODER.markup">Lavc59.18.100 mjpeg</property>
  <property name="meta.attr.0.stream.DURATION.markup">01:00:50.914000000</property>
  <property name="meta.media.1.stream.type">audio</property>
  <property name="meta.media.1.codec.sample_fmt">s16</property>
  <property name="meta.media.1.codec.sample_rate">44100</property>
  <property name="meta.media.1.codec.channels">2</property>
  <property name="meta.media.1.codec.name">pcm_s16le</property>
  <property name="meta.media.1.codec.long_name">PCM signed 16-bit little-endian</property>
  <property name="meta.media.1.codec.bit_rate">1411200</property>
  <property name="meta.attr.1.stream.HANDLER_NAME.markup">SoundHandler</property>
  <property name="meta.attr.1.stream.VENDOR_ID.markup">[0][0][0][0]</property>
  <property name="meta.attr.1.stream.ENCODER.markup">Lavc59.18.100 pcm_s16le</property>
  <property name="meta.attr.1.stream.DURATION.markup">01:00:50.966000000</property>
  <property name="meta.attr.COMPATIBLE_BRANDS.markup">isomiso2avc1mp41</property>
  <property name="meta.attr.MAJOR_BRAND.markup">isom</property>
  <property name="meta.attr.MINOR_VERSION.markup">512</property>
  <property name="meta.attr.ENCODER.markup">Lavf59.16.100</property>
  <property name="seekable">1</property>
  <property name="meta.media.sample_aspect_num">1</property>
  <property name="meta.media.sample_aspect_den">1</property>
  <property name="aspect_ratio">1</property>
  <property name="audio_index">-1</property>
  <property name="video_index">0</property>
  <property name="mute_on_pause">0</property>
  <property name="mlt_service">avformat-novalidate</property>
  <property name="kdenlive:clipname">Intellectual Property and Economic Development _ Stephan Kinsella [hoSWC_6mDCk].mp4</property>
  <property name="kdenlive:clip_type">2</property>
  <property name="kdenlive:folderid">26</property>
  <property name="kdenlive:id">33</property>
  <property name="kdenlive:file_size">748264087</property>
  <property name="kdenlive:file_hash">7b64ce2d3fb5af59492a51e6a222ffea</property>
  <property name="kdenlive:proxy">/home/liquidzulu/.cache/kdenlive/proxy/7b64ce2d3fb5af59492a51e6a222ffea.mkv</property>
  <property name="kdenlive:originalurl">b-roll/Intellectual Property and Economic Development _ Stephan Kinsella [hoSWC_6mDCk].mp4</property>
  <property name="kdenlive:original.mlt_type">producer</property>
  <property name="kdenlive:original.in">0</property>
  <property name="kdenlive:original.out">109528</property>
  <property name="kdenlive:original.length">109529</property>
  <property name="kdenlive:original.eof">pause</property>
  <property name="kdenlive:original.resource">b-roll/Intellectual Property and Economic Development _ Stephan Kinsella [hoSWC_6mDCk].mp4</property>
  <property name="kdenlive:original.meta.media.nb_streams">2</property>
  <property name="kdenlive:original.meta.media.0.stream.type">video</property>
  <property name="kdenlive:original.meta.media.0.stream.frame_rate">29.9703</property>
  <property name="kdenlive:original.meta.media.0.stream.sample_aspect_ratio">0</property>
  <property name="kdenlive:original.meta.media.0.codec.width">1280</property>
  <property name="kdenlive:original.meta.media.0.codec.height">720</property>
  <property name="kdenlive:original.meta.media.0.codec.rotate">0</property>
  <property name="kdenlive:original.meta.media.0.codec.pix_fmt">yuv420p</property>
  <property name="kdenlive:original.meta.media.0.codec.sample_aspect_ratio">0</property>
  <property name="kdenlive:original.meta.media.0.codec.colorspace">709</property>
  <property name="kdenlive:original.meta.media.0.codec.name">h264</property>
  <property name="kdenlive:original.meta.media.0.codec.long_name">H.264 / AVC / MPEG-4 AVC / MPEG-4 part 10</property>
  <property name="kdenlive:original.meta.media.0.codec.bit_rate">1505970</property>
  <property name="kdenlive:original.meta.attr.0.stream.handler_name.markup">VideoHandler</property>
  <property name="kdenlive:original.meta.attr.0.stream.vendor_id.markup">[0][0][0][0]</property>
  <property name="kdenlive:original.meta.media.1.stream.type">audio</property>
  <property name="kdenlive:original.meta.media.1.codec.sample_fmt">fltp</property>
  <property name="kdenlive:original.meta.media.1.codec.sample_rate">44100</property>
  <property name="kdenlive:original.meta.media.1.codec.channels">2</property>
  <property name="kdenlive:original.meta.media.1.codec.name">aac</property>
  <property name="kdenlive:original.meta.media.1.codec.long_name">AAC (Advanced Audio Coding)</property>
  <property name="kdenlive:original.meta.media.1.codec.bit_rate">125588</property>
  <property name="kdenlive:original.meta.attr.1.stream.handler_name.markup">SoundHandler</property>
  <property name="kdenlive:original.meta.attr.1.stream.vendor_id.markup">[0][0][0][0]</property>
  <property name="kdenlive:original.meta.attr.major_brand.markup">isom</property>
  <property name="kdenlive:original.meta.attr.minor_version.markup">512</property>
  <property name="kdenlive:original.meta.attr.compatible_brands.markup">isomiso2avc1mp41</property>
  <property name="kdenlive:original.meta.attr.encoder.markup">Lavf59.16.100</property>
  <property name="kdenlive:original.seekable">1</property>
  <property name="kdenlive:original.width">1280</property>
  <property name="kdenlive:original.height">720</property>
  <property name="kdenlive:original.meta.media.sample_aspect_num">1</property>
  <property name="kdenlive:original.meta.media.sample_aspect_den">1</property>
  <property name="kdenlive:original.aspect_ratio">1</property>
  <property name="kdenlive:original.audio_index">1</property>
  <property name="kdenlive:original.video_index">0</property>
  <property name="kdenlive:original.mute_on_pause">0</property>
  <property name="kdenlive:original.mlt_service">avformat-novalidate</property>
  <property name="kdenlive:original.meta.media.frame_rate_num">109418000</property>
  <property name="kdenlive:original.meta.media.frame_rate_den">3650881</property>
  <property name="kdenlive:original.meta.media.colorspace">709</property>
  <property name="kdenlive:original.meta.media.color_trc">2</property>
  <property name="kdenlive:original.meta.media.has_b_frames">1</property>
  <property name="kdenlive:original.meta.media.width">1280</property>
  <property name="kdenlive:original.meta.media.height">720</property>
  <property name="kdenlive:original.meta.media.color_range">mpeg</property>
  <property name="kdenlive:original.meta.media.top_field_first">0</property>
  <property name="kdenlive:original.meta.media.progressive">1</property>
  <property name="kdenlive:original.kdenlive:clip_type">0</property>
  <property name="kdenlive:original.kdenlive:folderid">26</property>
  <property name="kdenlive:original.kdenlive:id">33</property>
  <property name="kdenlive:original.kdenlive:file_size">748264087</property>
  <property name="kdenlive:original.kdenlive:file_hash">7b64ce2d3fb5af59492a51e6a222ffea</property>
  <property name="kdenlive:original.backup">1</property>
  <property name="kdenlive:audio_max1">217</property>
  <property name="kdenlive:active_streams">-1</property>
  <property name="set.test_audio">1</property>
  <property name="xml">was here</property>
  <property name="meta.media.frame_rate_num">30000</property>
  <property name="meta.media.frame_rate_den">1001</property>
  <property name="meta.media.colorspace">601</property>
  <property name="meta.media.color_trc">2</property>
  <property name="meta.media.has_b_frames">0</property>
  <property name="meta.media.width">640</property>
  <property name="meta.media.height">360</property>
  <property name="meta.media.color_range">full</property>
  <property name="meta.media.top_field_first">0</property>
  <property name="meta.media.progressive">1</property>
  <property name="set.test_image">0</property>
 </producer>
 <playlist id="playlist4">
  <entry producer="producer40" in="00:01:00.400" out="00:01:08.433">
   <property name="kdenlive:id">16</property>
  </entry>
  <blank length="00:00:04.700"/>
  <entry producer="producer41" in="00:00:01.633" out="00:00:08.167">
   <property name="kdenlive:id">18</property>
  </entry>
  <blank length="00:00:35.800"/>
  <entry producer="producer42" in="00:00:22.000" out="00:00:44.167">
   <property name="kdenlive:id">28</property>
  </entry>
  <blank length="00:00:07.867"/>
  <entry producer="producer42" in="00:00:44.200" out="00:01:05.267">
   <property name="kdenlive:id">28</property>
  </entry>
  <blank length="00:00:14.467"/>
  <entry producer="producer43" in="00:00:45.767" out="00:01:06.567">
   <property name="kdenlive:id">33</property>
  </entry>
  <entry producer="producer42" in="00:00:08.533" out="00:01:05.967">
   <property name="kdenlive:id">28</property>
  </entry>
  <entry producer="producer43" in="00:02:53.767" out="00:03:19.500">
   <property name="kdenlive:id">33</property>
  </entry>
  <blank length="00:00:02.900"/>
  <entry producer="producer43" in="00:04:13.067" out="00:04:26.133">
   <property name="kdenlive:id">33</property>
  </entry>
  <entry producer="producer42" in="00:00:26.367" out="00:01:05.567">
   <property name="kdenlive:id">28</property>
   <filter id="filter28" in="00:01:03.833" out="00:01:05.567">
    <property name="start">1</property>
    <property name="level">1</property>
    <property name="mlt_service">brightness</property>
    <property name="kdenlive_id">fade_to_black</property>
    <property name="alpha">00:00:00.000=1;00:00:01.733=0</property>
   </filter>
  </entry>
 </playlist>
 <playlist id="playlist5"/>
 <tractor id="tractor2" in="00:00:00.000" out="00:04:40.033">
  <property name="kdenlive:trackheight">67</property>
  <property name="kdenlive:timeline_active">1</property>
  <property name="kdenlive:collapsed">0</property>
  <property name="kdenlive:thumbs_format"/>
  <property name="kdenlive:audio_rec"/>
  <track hide="audio" producer="playlist4"/>
  <track hide="audio" producer="playlist5"/>
 </tractor>
 <producer id="producer44" in="00:00:00.000" out="00:03:45.633">
  <property name="length">6770</property>
  <property name="eof">pause</property>
  <property name="resource">/home/liquidzulu/.cache/kdenlive/proxy/42e51dc9e08f383e76bb71ac70d2453d.mkv</property>
  <property name="meta.media.nb_streams">2</property>
  <property name="meta.media.0.stream.type">video</property>
  <property name="meta.media.0.stream.frame_rate">29.97</property>
  <property name="meta.media.0.stream.sample_aspect_ratio">1</property>
  <property name="meta.media.0.codec.width">640</property>
  <property name="meta.media.0.codec.height">360</property>
  <property name="meta.media.0.codec.rotate">0</property>
  <property name="meta.media.0.codec.pix_fmt">yuvj420p</property>
  <property name="meta.media.0.codec.sample_aspect_ratio">1</property>
  <property name="meta.media.0.codec.colorspace">601</property>
  <property name="meta.media.0.codec.color_trc">1</property>
  <property name="meta.media.0.codec.name">mjpeg</property>
  <property name="meta.media.0.codec.long_name">MJPEG (Motion JPEG)</property>
  <property name="meta.media.0.codec.bit_rate">0</property>
  <property name="meta.attr.0.stream.HANDLER_NAME.markup">ISO Media file produced by Google Inc.</property>
  <property name="meta.attr.0.stream.VENDOR_ID.markup">[0][0][0][0]</property>
  <property name="meta.attr.0.stream.ENCODER.markup">Lavc59.18.100 mjpeg</property>
  <property name="meta.attr.0.stream.DURATION.markup">00:03:45.592000000</property>
  <property name="meta.media.1.stream.type">audio</property>
  <property name="meta.media.1.codec.sample_fmt">s16</property>
  <property name="meta.media.1.codec.sample_rate">44100</property>
  <property name="meta.media.1.codec.channels">2</property>
  <property name="meta.media.1.codec.name">pcm_s16le</property>
  <property name="meta.media.1.codec.long_name">PCM signed 16-bit little-endian</property>
  <property name="meta.media.1.codec.bit_rate">1411200</property>
  <property name="meta.attr.1.stream.HANDLER_NAME.markup">ISO Media file produced by Google Inc.</property>
  <property name="meta.attr.1.stream.VENDOR_ID.markup">[0][0][0][0]</property>
  <property name="meta.attr.1.stream.ENCODER.markup">Lavc59.18.100 pcm_s16le</property>
  <property name="meta.attr.1.stream.DURATION.markup">00:03:45.651000000</property>
  <property name="meta.attr.COMPATIBLE_BRANDS.markup">isomiso2avc1mp41</property>
  <property name="meta.attr.MAJOR_BRAND.markup">isom</property>
  <property name="meta.attr.MINOR_VERSION.markup">512</property>
  <property name="meta.attr.ENCODER.markup">Lavf59.16.100</property>
  <property name="seekable">1</property>
  <property name="meta.media.sample_aspect_num">1</property>
  <property name="meta.media.sample_aspect_den">1</property>
  <property name="aspect_ratio">1</property>
  <property name="audio_index">-1</property>
  <property name="video_index">0</property>
  <property name="mute_on_pause">0</property>
  <property name="mlt_service">avformat-novalidate</property>
  <property name="kdenlive:clipname">Reed Creek firefighters worry about Disney World services if state dissolves the district [0OkFEFwXxo4].mp4</property>
  <property name="kdenlive:clip_type">2</property>
  <property name="kdenlive:folderid">11</property>
  <property name="kdenlive:id">23</property>
  <property name="kdenlive:file_size">65921694</property>
  <property name="kdenlive:file_hash">42e51dc9e08f383e76bb71ac70d2453d</property>
  <property name="kdenlive:proxy">/home/liquidzulu/.cache/kdenlive/proxy/42e51dc9e08f383e76bb71ac70d2453d.mkv</property>
  <property name="kdenlive:originalurl">b-roll/Reed Creek firefighters worry about Disney World services if state dissolves the district [0OkFEFwXxo4].mp4</property>
  <property name="kdenlive:original.mlt_type">producer</property>
  <property name="kdenlive:original.in">0</property>
  <property name="kdenlive:original.out">6769</property>
  <property name="kdenlive:original.length">6770</property>
  <property name="kdenlive:original.eof">pause</property>
  <property name="kdenlive:original.resource">b-roll/Reed Creek firefighters worry about Disney World services if state dissolves the district [0OkFEFwXxo4].mp4</property>
  <property name="kdenlive:original.meta.media.nb_streams">2</property>
  <property name="kdenlive:original.meta.media.0.stream.type">video</property>
  <property name="kdenlive:original.meta.media.0.stream.frame_rate">29.97</property>
  <property name="kdenlive:original.meta.media.0.stream.sample_aspect_ratio">1</property>
  <property name="kdenlive:original.meta.media.0.codec.width">1920</property>
  <property name="kdenlive:original.meta.media.0.codec.height">1080</property>
  <property name="kdenlive:original.meta.media.0.codec.rotate">0</property>
  <property name="kdenlive:original.meta.media.0.codec.pix_fmt">yuv420p</property>
  <property name="kdenlive:original.meta.media.0.codec.sample_aspect_ratio">1</property>
  <property name="kdenlive:original.meta.media.0.codec.colorspace">709</property>
  <property name="kdenlive:original.meta.media.0.codec.color_trc">1</property>
  <property name="kdenlive:original.meta.media.0.codec.name">h264</property>
  <property name="kdenlive:original.meta.media.0.codec.long_name">H.264 / AVC / MPEG-4 AVC / MPEG-4 part 10</property>
  <property name="kdenlive:original.meta.media.0.codec.bit_rate">2201897</property>
  <property name="kdenlive:original.meta.attr.0.stream.handler_name.markup">ISO Media file produced by Google Inc.</property>
  <property name="kdenlive:original.meta.attr.0.stream.vendor_id.markup">[0][0][0][0]</property>
  <property name="kdenlive:original.meta.media.1.stream.type">audio</property>
  <property name="kdenlive:original.meta.media.1.codec.sample_fmt">fltp</property>
  <property name="kdenlive:original.meta.media.1.codec.sample_rate">44100</property>
  <property name="kdenlive:original.meta.media.1.codec.channels">2</property>
  <property name="kdenlive:original.meta.media.1.codec.name">aac</property>
  <property name="kdenlive:original.meta.media.1.codec.long_name">AAC (Advanced Audio Coding)</property>
  <property name="kdenlive:original.meta.media.1.codec.bit_rate">128005</property>
  <property name="kdenlive:original.meta.attr.1.stream.handler_name.markup">ISO Media file produced by Google Inc.</property>
  <property name="kdenlive:original.meta.attr.1.stream.vendor_id.markup">[0][0][0][0]</property>
  <property name="kdenlive:original.meta.attr.major_brand.markup">isom</property>
  <property name="kdenlive:original.meta.attr.minor_version.markup">512</property>
  <property name="kdenlive:original.meta.attr.compatible_brands.markup">isomiso2avc1mp41</property>
  <property name="kdenlive:original.meta.attr.encoder.markup">Lavf59.16.100</property>
  <property name="kdenlive:original.seekable">1</property>
  <property name="kdenlive:original.width">1920</property>
  <property name="kdenlive:original.height">1080</property>
  <property name="kdenlive:original.meta.media.sample_aspect_num">1</property>
  <property name="kdenlive:original.meta.media.sample_aspect_den">1</property>
  <property name="kdenlive:original.aspect_ratio">1</property>
  <property name="kdenlive:original.audio_index">1</property>
  <property name="kdenlive:original.video_index">0</property>
  <property name="kdenlive:original.mute_on_pause">0</property>
  <property name="kdenlive:original.mlt_service">avformat-novalidate</property>
  <property name="kdenlive:original.meta.media.frame_rate_num">30000</property>
  <property name="kdenlive:original.meta.media.frame_rate_den">1001</property>
  <property name="kdenlive:original.meta.media.colorspace">709</property>
  <property name="kdenlive:original.meta.media.color_trc">1</property>
  <property name="kdenlive:original.meta.media.has_b_frames">1</property>
  <property name="kdenlive:original.meta.media.width">1920</property>
  <property name="kdenlive:original.meta.media.height">1080</property>
  <property name="kdenlive:original.meta.media.color_range">mpeg</property>
  <property name="kdenlive:original.meta.media.top_field_first">0</property>
  <property name="kdenlive:original.meta.media.progressive">1</property>
  <property name="kdenlive:original.kdenlive:clip_type">0</property>
  <property name="kdenlive:original.kdenlive:folderid">11</property>
  <property name="kdenlive:original.kdenlive:id">23</property>
  <property name="kdenlive:original.kdenlive:file_size">65921694</property>
  <property name="kdenlive:original.kdenlive:file_hash">42e51dc9e08f383e76bb71ac70d2453d</property>
  <property name="kdenlive:original.backup">1</property>
  <property name="kdenlive:audio_max1">206</property>
  <property name="kdenlive:active_streams">-1</property>
  <property name="set.test_audio">1</property>
  <property name="xml">was here</property>
  <property name="meta.media.frame_rate_num">30000</property>
  <property name="meta.media.frame_rate_den">1001</property>
  <property name="meta.media.colorspace">601</property>
  <property name="meta.media.color_trc">1</property>
  <property name="meta.media.has_b_frames">0</property>
  <property name="meta.media.width">640</property>
  <property name="meta.media.height">360</property>
  <property name="meta.media.color_range">full</property>
  <property name="meta.media.top_field_first">0</property>
  <property name="meta.media.progressive">1</property>
  <property name="set.test_image">0</property>
 </producer>
 <producer id="producer45" in="00:00:00.000" out="00:02:36.067">
  <property name="length">4683</property>
  <property name="eof">pause</property>
  <property name="resource">/home/liquidzulu/.cache/kdenlive/proxy/52f0467ea2c6ce04434f63b0b5805b90.mkv</property>
  <property name="meta.media.nb_streams">2</property>
  <property name="meta.media.0.stream.type">video</property>
  <property name="meta.media.0.stream.frame_rate">29.97</property>
  <property name="meta.media.0.stream.sample_aspect_ratio">1</property>
  <property name="meta.media.0.codec.width">640</property>
  <property name="meta.media.0.codec.height">360</property>
  <property name="meta.media.0.codec.rotate">0</property>
  <property name="meta.media.0.codec.pix_fmt">yuvj420p</property>
  <property name="meta.media.0.codec.sample_aspect_ratio">1</property>
  <property name="meta.media.0.codec.colorspace">601</property>
  <property name="meta.media.0.codec.color_trc">1</property>
  <property name="meta.media.0.codec.name">mjpeg</property>
  <property name="meta.media.0.codec.long_name">MJPEG (Motion JPEG)</property>
  <property name="meta.media.0.codec.bit_rate">0</property>
  <property name="meta.attr.0.stream.HANDLER_NAME.markup">ISO Media file produced by Google Inc.</property>
  <property name="meta.attr.0.stream.VENDOR_ID.markup">[0][0][0][0]</property>
  <property name="meta.attr.0.stream.ENCODER.markup">Lavc59.18.100 mjpeg</property>
  <property name="meta.attr.0.stream.DURATION.markup">00:02:36.022000000</property>
  <property name="meta.media.1.stream.type">audio</property>
  <property name="meta.media.1.codec.sample_fmt">s16</property>
  <property name="meta.media.1.codec.sample_rate">44100</property>
  <property name="meta.media.1.codec.channels">2</property>
  <property name="meta.media.1.codec.name">pcm_s16le</property>
  <property name="meta.media.1.codec.long_name">PCM signed 16-bit little-endian</property>
  <property name="meta.media.1.codec.bit_rate">1411200</property>
  <property name="meta.attr.1.stream.language.markup">eng</property>
  <property name="meta.attr.1.stream.HANDLER_NAME.markup">ISO Media file produced by Google Inc.</property>
  <property name="meta.attr.1.stream.VENDOR_ID.markup">[0][0][0][0]</property>
  <property name="meta.attr.1.stream.ENCODER.markup">Lavc59.18.100 pcm_s16le</property>
  <property name="meta.attr.1.stream.DURATION.markup">00:02:36.084000000</property>
  <property name="meta.attr.COMPATIBLE_BRANDS.markup">isomiso2avc1mp41</property>
  <property name="meta.attr.MAJOR_BRAND.markup">isom</property>
  <property name="meta.attr.MINOR_VERSION.markup">512</property>
  <property name="meta.attr.ENCODER.markup">Lavf59.16.100</property>
  <property name="seekable">1</property>
  <property name="meta.media.sample_aspect_num">1</property>
  <property name="meta.media.sample_aspect_den">1</property>
  <property name="aspect_ratio">1</property>
  <property name="audio_index">-1</property>
  <property name="video_index">0</property>
  <property name="mute_on_pause">0</property>
  <property name="mlt_service">avformat-novalidate</property>
  <property name="kdenlive:clipname">Disney Solar Farm Helps Make The World A Better Place _ Walt Disney World Resort [6khFZSS2pW0].mp4</property>
  <property name="kdenlive:clip_type">2</property>
  <property name="kdenlive:folderid">11</property>
  <property name="kdenlive:id">25</property>
  <property name="kdenlive:file_size">63046184</property>
  <property name="kdenlive:file_hash">52f0467ea2c6ce04434f63b0b5805b90</property>
  <property name="kdenlive:proxy">/home/liquidzulu/.cache/kdenlive/proxy/52f0467ea2c6ce04434f63b0b5805b90.mkv</property>
  <property name="kdenlive:originalurl">b-roll/Disney Solar Farm Helps Make The World A Better Place _ Walt Disney World Resort [6khFZSS2pW0].mp4</property>
  <property name="kdenlive:original.mlt_type">producer</property>
  <property name="kdenlive:original.in">0</property>
  <property name="kdenlive:original.out">4682</property>
  <property name="kdenlive:original.length">4683</property>
  <property name="kdenlive:original.eof">pause</property>
  <property name="kdenlive:original.resource">b-roll/Disney Solar Farm Helps Make The World A Better Place _ Walt Disney World Resort [6khFZSS2pW0].mp4</property>
  <property name="kdenlive:original.meta.media.nb_streams">2</property>
  <property name="kdenlive:original.meta.media.0.stream.type">video</property>
  <property name="kdenlive:original.meta.media.0.stream.frame_rate">29.97</property>
  <property name="kdenlive:original.meta.media.0.stream.sample_aspect_ratio">1</property>
  <property name="kdenlive:original.meta.media.0.codec.width">1920</property>
  <property name="kdenlive:original.meta.media.0.codec.height">1080</property>
  <property name="kdenlive:original.meta.media.0.codec.rotate">0</property>
  <property name="kdenlive:original.meta.media.0.codec.pix_fmt">yuv420p</property>
  <property name="kdenlive:original.meta.media.0.codec.sample_aspect_ratio">1</property>
  <property name="kdenlive:original.meta.media.0.codec.colorspace">709</property>
  <property name="kdenlive:original.meta.media.0.codec.color_trc">1</property>
  <property name="kdenlive:original.meta.media.0.codec.name">h264</property>
  <property name="kdenlive:original.meta.media.0.codec.long_name">H.264 / AVC / MPEG-4 AVC / MPEG-4 part 10</property>
  <property name="kdenlive:original.meta.media.0.codec.bit_rate">3096277</property>
  <property name="kdenlive:original.meta.attr.0.stream.handler_name.markup">ISO Media file produced by Google Inc.</property>
  <property name="kdenlive:original.meta.attr.0.stream.vendor_id.markup">[0][0][0][0]</property>
  <property name="kdenlive:original.meta.media.1.stream.type">audio</property>
  <property name="kdenlive:original.meta.media.1.codec.sample_fmt">fltp</property>
  <property name="kdenlive:original.meta.media.1.codec.sample_rate">44100</property>
  <property name="kdenlive:original.meta.media.1.codec.channels">2</property>
  <property name="kdenlive:original.meta.media.1.codec.name">aac</property>
  <property name="kdenlive:original.meta.media.1.codec.long_name">AAC (Advanced Audio Coding)</property>
  <property name="kdenlive:original.meta.media.1.codec.bit_rate">127999</property>
  <property name="kdenlive:original.meta.attr.1.stream.language.markup">eng</property>
  <property name="kdenlive:original.meta.attr.1.stream.handler_name.markup">ISO Media file produced by Google Inc.</property>
  <property name="kdenlive:original.meta.attr.1.stream.vendor_id.markup">[0][0][0][0]</property>
  <property name="kdenlive:original.meta.attr.major_brand.markup">isom</property>
  <property name="kdenlive:original.meta.attr.minor_version.markup">512</property>
  <property name="kdenlive:original.meta.attr.compatible_brands.markup">isomiso2avc1mp41</property>
  <property name="kdenlive:original.meta.attr.encoder.markup">Lavf59.16.100</property>
  <property name="kdenlive:original.seekable">1</property>
  <property name="kdenlive:original.width">1920</property>
  <property name="kdenlive:original.height">1080</property>
  <property name="kdenlive:original.meta.media.sample_aspect_num">1</property>
  <property name="kdenlive:original.meta.media.sample_aspect_den">1</property>
  <property name="kdenlive:original.aspect_ratio">1</property>
  <property name="kdenlive:original.audio_index">1</property>
  <property name="kdenlive:original.video_index">0</property>
  <property name="kdenlive:original.mute_on_pause">0</property>
  <property name="kdenlive:original.mlt_service">avformat-novalidate</property>
  <property name="kdenlive:original.meta.media.frame_rate_num">30000</property>
  <property name="kdenlive:original.meta.media.frame_rate_den">1001</property>
  <property name="kdenlive:original.meta.media.colorspace">709</property>
  <property name="kdenlive:original.meta.media.color_trc">1</property>
  <property name="kdenlive:original.meta.media.has_b_frames">1</property>
  <property name="kdenlive:original.meta.media.width">1920</property>
  <property name="kdenlive:original.meta.media.height">1080</property>
  <property name="kdenlive:original.meta.media.color_range">mpeg</property>
  <property name="kdenlive:original.meta.media.top_field_first">0</property>
  <property name="kdenlive:original.meta.media.progressive">1</property>
  <property name="kdenlive:original.kdenlive:clip_type">0</property>
  <property name="kdenlive:original.kdenlive:folderid">11</property>
  <property name="kdenlive:original.kdenlive:id">25</property>
  <property name="kdenlive:original.kdenlive:file_size">63046184</property>
  <property name="kdenlive:original.kdenlive:file_hash">52f0467ea2c6ce04434f63b0b5805b90</property>
  <property name="kdenlive:original.backup">1</property>
  <property name="kdenlive:audio_max1">195</property>
  <property name="kdenlive:active_streams">-1</property>
  <property name="set.test_audio">1</property>
  <property name="xml">was here</property>
  <property name="meta.media.frame_rate_num">30000</property>
  <property name="meta.media.frame_rate_den">1001</property>
  <property name="meta.media.colorspace">601</property>
  <property name="meta.media.color_trc">1</property>
  <property name="meta.media.has_b_frames">0</property>
  <property name="meta.media.width">640</property>
  <property name="meta.media.height">360</property>
  <property name="meta.media.color_range">full</property>
  <property name="meta.media.top_field_first">0</property>
  <property name="meta.media.progressive">1</property>
  <property name="set.test_image">0</property>
 </producer>
 <producer id="producer46" in="00:00:00.000" out="00:02:45.833">
  <property name="length">4977</property>
  <property name="eof">pause</property>
  <property name="resource">/home/liquidzulu/.cache/kdenlive/proxy/2162ef49c880468324cb215dcbc1d1a6.mkv</property>
  <property name="meta.media.nb_streams">2</property>
  <property name="meta.media.0.stream.type">video</property>
  <property name="meta.media.0.stream.frame_rate">25</property>
  <property name="meta.media.0.stream.sample_aspect_ratio">1</property>
  <property name="meta.media.0.codec.width">640</property>
  <property name="meta.media.0.codec.height">360</property>
  <property name="meta.media.0.codec.rotate">0</property>
  <property name="meta.media.0.codec.pix_fmt">yuvj420p</property>
  <property name="meta.media.0.codec.sample_aspect_ratio">1</property>
  <property name="meta.media.0.codec.colorspace">601</property>
  <property name="meta.media.0.codec.color_trc">1</property>
  <property name="meta.media.0.codec.name">mjpeg</property>
  <property name="meta.media.0.codec.long_name">MJPEG (Motion JPEG)</property>
  <property name="meta.media.0.codec.bit_rate">0</property>
  <property name="meta.attr.0.stream.HANDLER_NAME.markup">ISO Media file produced by Google Inc. Created on: 06/07/2022.</property>
  <property name="meta.attr.0.stream.VENDOR_ID.markup">[0][0][0][0]</property>
  <property name="meta.attr.0.stream.ENCODER.markup">Lavc59.18.100 mjpeg</property>
  <property name="meta.attr.0.stream.DURATION.markup">00:02:45.840000000</property>
  <property name="meta.media.1.stream.type">audio</property>
  <property name="meta.media.1.codec.sample_fmt">s16</property>
  <property name="meta.media.1.codec.sample_rate">44100</property>
  <property name="meta.media.1.codec.channels">2</property>
  <property name="meta.media.1.codec.name">pcm_s16le</property>
  <property name="meta.media.1.codec.long_name">PCM signed 16-bit little-endian</property>
  <property name="meta.media.1.codec.bit_rate">1411200</property>
  <property name="meta.attr.1.stream.HANDLER_NAME.markup">SoundHandler</property>
  <property name="meta.attr.1.stream.VENDOR_ID.markup">[0][0][0][0]</property>
  <property name="meta.attr.1.stream.ENCODER.markup">Lavc59.18.100 pcm_s16le</property>
  <property name="meta.attr.1.stream.DURATION.markup">00:02:45.883000000</property>
  <property name="meta.attr.COMPATIBLE_BRANDS.markup">isomiso2avc1mp41</property>
  <property name="meta.attr.MAJOR_BRAND.markup">isom</property>
  <property name="meta.attr.MINOR_VERSION.markup">512</property>
  <property name="meta.attr.ENCODER.markup">Lavf59.16.100</property>
  <property name="seekable">1</property>
  <property name="meta.media.sample_aspect_num">1</property>
  <property name="meta.media.sample_aspect_den">1</property>
  <property name="aspect_ratio">1</property>
  <property name="audio_index">-1</property>
  <property name="video_index">0</property>
  <property name="mute_on_pause">0</property>
  <property name="mlt_service">avformat-novalidate</property>
  <property name="kdenlive:clipname">Kings are Bad—Politicans Are Terrible _ Hoppe [ZsIUjxOXFkE].mp4</property>
  <property name="kdenlive:clip_type">2</property>
  <property name="kdenlive:folderid">26</property>
  <property name="kdenlive:id">28</property>
  <property name="kdenlive:file_size">48340766</property>
  <property name="kdenlive:file_hash">2162ef49c880468324cb215dcbc1d1a6</property>
  <property name="kdenlive:proxy">/home/liquidzulu/.cache/kdenlive/proxy/2162ef49c880468324cb215dcbc1d1a6.mkv</property>
  <property name="kdenlive:originalurl">b-roll/Kings are Bad—Politicans Are Terrible _ Hoppe [ZsIUjxOXFkE].mp4</property>
  <property name="kdenlive:original.mlt_type">producer</property>
  <property name="kdenlive:original.in">0</property>
  <property name="kdenlive:original.out">4976</property>
  <property name="kdenlive:original.length">4977</property>
  <property name="kdenlive:original.eof">pause</property>
  <property name="kdenlive:original.resource">b-roll/Kings are Bad—Politicans Are Terrible _ Hoppe [ZsIUjxOXFkE].mp4</property>
  <property name="kdenlive:original.meta.media.nb_streams">2</property>
  <property name="kdenlive:original.meta.media.0.stream.type">video</property>
  <property name="kdenlive:original.meta.media.0.stream.frame_rate">25.006</property>
  <property name="kdenlive:original.meta.media.0.stream.sample_aspect_ratio">1</property>
  <property name="kdenlive:original.meta.media.0.codec.width">1920</property>
  <property name="kdenlive:original.meta.media.0.codec.height">1080</property>
  <property name="kdenlive:original.meta.media.0.codec.rotate">0</property>
  <property name="kdenlive:original.meta.media.0.codec.pix_fmt">yuv420p</property>
  <property name="kdenlive:original.meta.media.0.codec.sample_aspect_ratio">1</property>
  <property name="kdenlive:original.meta.media.0.codec.colorspace">709</property>
  <property name="kdenlive:original.meta.media.0.codec.color_trc">1</property>
  <property name="kdenlive:original.meta.media.0.codec.name">h264</property>
  <property name="kdenlive:original.meta.media.0.codec.long_name">H.264 / AVC / MPEG-4 AVC / MPEG-4 part 10</property>
  <property name="kdenlive:original.meta.media.0.codec.bit_rate">2201645</property>
  <property name="kdenlive:original.meta.attr.0.stream.handler_name.markup">ISO Media file produced by Google Inc. Created on: 06/07/2022.</property>
  <property name="kdenlive:original.meta.attr.0.stream.vendor_id.markup">[0][0][0][0]</property>
  <property name="kdenlive:original.meta.media.1.stream.type">audio</property>
  <property name="kdenlive:original.meta.media.1.codec.sample_fmt">fltp</property>
  <property name="kdenlive:original.meta.media.1.codec.sample_rate">44100</property>
  <property name="kdenlive:original.meta.media.1.codec.channels">2</property>
  <property name="kdenlive:original.meta.media.1.codec.name">aac</property>
  <property name="kdenlive:original.meta.media.1.codec.long_name">AAC (Advanced Audio Coding)</property>
  <property name="kdenlive:original.meta.media.1.codec.bit_rate">125588</property>
  <property name="kdenlive:original.meta.attr.1.stream.handler_name.markup">SoundHandler</property>
  <property name="kdenlive:original.meta.attr.1.stream.vendor_id.markup">[0][0][0][0]</property>
  <property name="kdenlive:original.meta.attr.major_brand.markup">isom</property>
  <property name="kdenlive:original.meta.attr.minor_version.markup">512</property>
  <property name="kdenlive:original.meta.attr.compatible_brands.markup">isomiso2avc1mp41</property>
  <property name="kdenlive:original.meta.attr.encoder.markup">Lavf59.16.100</property>
  <property name="kdenlive:original.seekable">1</property>
  <property name="kdenlive:original.width">1920</property>
  <property name="kdenlive:original.height">1080</property>
  <property name="kdenlive:original.meta.media.sample_aspect_num">1</property>
  <property name="kdenlive:original.meta.media.sample_aspect_den">1</property>
  <property name="kdenlive:original.aspect_ratio">1</property>
  <property name="kdenlive:original.audio_index">1</property>
  <property name="kdenlive:original.video_index">0</property>
  <property name="kdenlive:original.mute_on_pause">0</property>
  <property name="kdenlive:original.mlt_service">avformat-novalidate</property>
  <property name="kdenlive:original.meta.media.frame_rate_num">20730</property>
  <property name="kdenlive:original.meta.media.frame_rate_den">829</property>
  <property name="kdenlive:original.meta.media.colorspace">709</property>
  <property name="kdenlive:original.meta.media.color_trc">1</property>
  <property name="kdenlive:original.meta.media.has_b_frames">0</property>
  <property name="kdenlive:original.meta.media.width">1920</property>
  <property name="kdenlive:original.meta.media.height">1080</property>
  <property name="kdenlive:original.meta.media.color_range">mpeg</property>
  <property name="kdenlive:original.meta.media.top_field_first">0</property>
  <property name="kdenlive:original.meta.media.progressive">1</property>
  <property name="kdenlive:original.kdenlive:clip_type">0</property>
  <property name="kdenlive:original.kdenlive:folderid">26</property>
  <property name="kdenlive:original.kdenlive:id">28</property>
  <property name="kdenlive:original.kdenlive:file_size">48340766</property>
  <property name="kdenlive:original.kdenlive:file_hash">2162ef49c880468324cb215dcbc1d1a6</property>
  <property name="kdenlive:original.backup">1</property>
  <property name="kdenlive:audio_max1">192</property>
  <property name="kdenlive:active_streams">-1</property>
  <property name="set.test_audio">1</property>
  <property name="xml">was here</property>
  <property name="meta.media.frame_rate_num">25</property>
  <property name="meta.media.frame_rate_den">1</property>
  <property name="meta.media.colorspace">601</property>
  <property name="meta.media.color_trc">1</property>
  <property name="meta.media.has_b_frames">0</property>
  <property name="meta.media.width">640</property>
  <property name="meta.media.height">360</property>
  <property name="meta.media.color_range">full</property>
  <property name="meta.media.top_field_first">0</property>
  <property name="meta.media.progressive">1</property>
  <property name="set.test_image">0</property>
 </producer>
 <producer id="producer47" in="00:00:00.000" out="00:00:20.933">
  <property name="length">629</property>
  <property name="eof">pause</property>
  <property name="resource">/home/liquidzulu/.cache/kdenlive/proxy/0feca2a508d4dcd2d8c0494d821856f0.mkv</property>
  <property name="meta.media.nb_streams">2</property>
  <property name="meta.media.0.stream.type">video</property>
  <property name="meta.media.0.stream.frame_rate">29.97</property>
  <property name="meta.media.0.stream.sample_aspect_ratio">1</property>
  <property name="meta.media.0.codec.width">640</property>
  <property name="meta.media.0.codec.height">360</property>
  <property name="meta.media.0.codec.rotate">0</property>
  <property name="meta.media.0.codec.pix_fmt">yuvj420p</property>
  <property name="meta.media.0.codec.sample_aspect_ratio">1</property>
  <property name="meta.media.0.codec.colorspace">601</property>
  <property name="meta.media.0.codec.color_trc">1</property>
  <property name="meta.media.0.codec.name">mjpeg</property>
  <property name="meta.media.0.codec.long_name">MJPEG (Motion JPEG)</property>
  <property name="meta.media.0.codec.bit_rate">0</property>
  <property name="meta.attr.0.stream.HANDLER_NAME.markup">ISO Media file produced by Google Inc. Created on: 12/12/2018.</property>
  <property name="meta.attr.0.stream.VENDOR_ID.markup">[0][0][0][0]</property>
  <property name="meta.attr.0.stream.ENCODER.markup">Lavc59.18.100 mjpeg</property>
  <property name="meta.attr.0.stream.DURATION.markup">00:00:20.921000000</property>
  <property name="meta.media.1.stream.type">audio</property>
  <property name="meta.media.1.codec.sample_fmt">s16</property>
  <property name="meta.media.1.codec.sample_rate">44100</property>
  <property name="meta.media.1.codec.channels">2</property>
  <property name="meta.media.1.codec.name">pcm_s16le</property>
  <property name="meta.media.1.codec.long_name">PCM signed 16-bit little-endian</property>
  <property name="meta.media.1.codec.bit_rate">1411200</property>
  <property name="meta.attr.1.stream.HANDLER_NAME.markup">ISO Media file produced by Google Inc. Created on: 12/12/2018.</property>
  <property name="meta.attr.1.stream.VENDOR_ID.markup">[0][0][0][0]</property>
  <property name="meta.attr.1.stream.ENCODER.markup">Lavc59.18.100 pcm_s16le</property>
  <property name="meta.attr.1.stream.DURATION.markup">00:00:20.967000000</property>
  <property name="meta.attr.COMPATIBLE_BRANDS.markup">isomiso2avc1mp41</property>
  <property name="meta.attr.MAJOR_BRAND.markup">isom</property>
  <property name="meta.attr.MINOR_VERSION.markup">512</property>
  <property name="meta.attr.ENCODER.markup">Lavf59.16.100</property>
  <property name="seekable">1</property>
  <property name="meta.media.sample_aspect_num">1</property>
  <property name="meta.media.sample_aspect_den">1</property>
  <property name="aspect_ratio">1</property>
  <property name="audio_index">-1</property>
  <property name="video_index">0</property>
  <property name="mute_on_pause">0</property>
  <property name="mlt_service">avformat-novalidate</property>
  <property name="kdenlive:clipname">Navy Seal stabbing a dummy [xuTU-Gby46M].mp4</property>
  <property name="kdenlive:clip_type">0</property>
  <property name="kdenlive:folderid">11</property>
  <property name="kdenlive:id">31</property>
  <property name="kdenlive:file_size">4081331</property>
  <property name="kdenlive:file_hash">0feca2a508d4dcd2d8c0494d821856f0</property>
  <property name="kdenlive:proxy">/home/liquidzulu/.cache/kdenlive/proxy/0feca2a508d4dcd2d8c0494d821856f0.mkv</property>
  <property name="kdenlive:originalurl">b-roll/Navy Seal stabbing a dummy [xuTU-Gby46M].mp4</property>
  <property name="kdenlive:original.mlt_type">producer</property>
  <property name="kdenlive:original.in">0</property>
  <property name="kdenlive:original.out">628</property>
  <property name="kdenlive:original.length">629</property>
  <property name="kdenlive:original.eof">pause</property>
  <property name="kdenlive:original.resource">b-roll/Navy Seal stabbing a dummy [xuTU-Gby46M].mp4</property>
  <property name="kdenlive:original.meta.media.nb_streams">2</property>
  <property name="kdenlive:original.meta.media.0.stream.type">video</property>
  <property name="kdenlive:original.meta.media.0.stream.frame_rate">29.97</property>
  <property name="kdenlive:original.meta.media.0.stream.sample_aspect_ratio">1</property>
  <property name="kdenlive:original.meta.media.0.codec.width">1280</property>
  <property name="kdenlive:original.meta.media.0.codec.height">720</property>
  <property name="kdenlive:original.meta.media.0.codec.rotate">0</property>
  <property name="kdenlive:original.meta.media.0.codec.pix_fmt">yuv420p</property>
  <property name="kdenlive:original.meta.media.0.codec.sample_aspect_ratio">1</property>
  <property name="kdenlive:original.meta.media.0.codec.colorspace">709</property>
  <property name="kdenlive:original.meta.media.0.codec.color_trc">1</property>
  <property name="kdenlive:original.meta.media.0.codec.name">h264</property>
  <property name="kdenlive:original.meta.media.0.codec.long_name">H.264 / AVC / MPEG-4 AVC / MPEG-4 part 10</property>
  <property name="kdenlive:original.meta.media.0.codec.bit_rate">1423669</property>
  <property name="kdenlive:original.meta.attr.0.stream.handler_name.markup">ISO Media file produced by Google Inc. Created on: 12/12/2018.</property>
  <property name="kdenlive:original.meta.attr.0.stream.vendor_id.markup">[0][0][0][0]</property>
  <property name="kdenlive:original.meta.media.1.stream.type">audio</property>
  <property name="kdenlive:original.meta.media.1.codec.sample_fmt">fltp</property>
  <property name="kdenlive:original.meta.media.1.codec.sample_rate">44100</property>
  <property name="kdenlive:original.meta.media.1.codec.channels">2</property>
  <property name="kdenlive:original.meta.media.1.codec.name">aac</property>
  <property name="kdenlive:original.meta.media.1.codec.long_name">AAC (Advanced Audio Coding)</property>
  <property name="kdenlive:original.meta.media.1.codec.bit_rate">127999</property>
  <property name="kdenlive:original.meta.attr.1.stream.handler_name.markup">ISO Media file produced by Google Inc. Created on: 12/12/2018.</property>
  <property name="kdenlive:original.meta.attr.1.stream.vendor_id.markup">[0][0][0][0]</property>
  <property name="kdenlive:original.meta.attr.major_brand.markup">isom</property>
  <property name="kdenlive:original.meta.attr.minor_version.markup">512</property>
  <property name="kdenlive:original.meta.attr.compatible_brands.markup">isomiso2avc1mp41</property>
  <property name="kdenlive:original.meta.attr.encoder.markup">Lavf59.16.100</property>
  <property name="kdenlive:original.seekable">1</property>
  <property name="kdenlive:original.width">1280</property>
  <property name="kdenlive:original.height">720</property>
  <property name="kdenlive:original.meta.media.sample_aspect_num">1</property>
  <property name="kdenlive:original.meta.media.sample_aspect_den">1</property>
  <property name="kdenlive:original.aspect_ratio">1</property>
  <property name="kdenlive:original.audio_index">1</property>
  <property name="kdenlive:original.video_index">0</property>
  <property name="kdenlive:original.mute_on_pause">0</property>
  <property name="kdenlive:original.mlt_service">avformat-novalidate</property>
  <property name="kdenlive:original.meta.media.frame_rate_num">30000</property>
  <property name="kdenlive:original.meta.media.frame_rate_den">1001</property>
  <property name="kdenlive:original.meta.media.colorspace">709</property>
  <property name="kdenlive:original.meta.media.color_trc">1</property>
  <property name="kdenlive:original.meta.media.has_b_frames">1</property>
  <property name="kdenlive:original.meta.media.width">1280</property>
  <property name="kdenlive:original.meta.media.height">720</property>
  <property name="kdenlive:original.meta.media.color_range">mpeg</property>
  <property name="kdenlive:original.meta.media.top_field_first">0</property>
  <property name="kdenlive:original.meta.media.progressive">1</property>
  <property name="kdenlive:original.kdenlive:clip_type">0</property>
  <property name="kdenlive:original.kdenlive:folderid">11</property>
  <property name="kdenlive:original.kdenlive:id">31</property>
  <property name="kdenlive:original.kdenlive:file_size">4081331</property>
  <property name="kdenlive:original.kdenlive:file_hash">0feca2a508d4dcd2d8c0494d821856f0</property>
  <property name="kdenlive:original.backup">1</property>
  <property name="kdenlive:audio_max1">140</property>
  <property name="kdenlive:active_streams">-1</property>
  <property name="set.test_audio">1</property>
  <property name="xml">was here</property>
  <property name="meta.media.frame_rate_num">30000</property>
  <property name="meta.media.frame_rate_den">1001</property>
  <property name="meta.media.colorspace">601</property>
  <property name="meta.media.color_trc">1</property>
  <property name="meta.media.has_b_frames">0</property>
  <property name="meta.media.width">640</property>
  <property name="meta.media.height">360</property>
  <property name="meta.media.color_range">full</property>
  <property name="meta.media.top_field_first">0</property>
  <property name="meta.media.progressive">1</property>
  <property name="set.test_image">0</property>
 </producer>
 <producer id="producer48" in="00:00:00.000" out="01:00:50.933">
  <property name="length">109529</property>
  <property name="eof">pause</property>
  <property name="resource">/home/liquidzulu/.cache/kdenlive/proxy/7b64ce2d3fb5af59492a51e6a222ffea.mkv</property>
  <property name="meta.media.nb_streams">2</property>
  <property name="meta.media.0.stream.type">video</property>
  <property name="meta.media.0.stream.frame_rate">29.97</property>
  <property name="meta.media.0.stream.sample_aspect_ratio">0</property>
  <property name="meta.media.0.codec.width">640</property>
  <property name="meta.media.0.codec.height">360</property>
  <property name="meta.media.0.codec.rotate">0</property>
  <property name="meta.media.0.codec.pix_fmt">yuvj420p</property>
  <property name="meta.media.0.codec.sample_aspect_ratio">0</property>
  <property name="meta.media.0.codec.colorspace">601</property>
  <property name="meta.media.0.codec.name">mjpeg</property>
  <property name="meta.media.0.codec.long_name">MJPEG (Motion JPEG)</property>
  <property name="meta.media.0.codec.bit_rate">0</property>
  <property name="meta.attr.0.stream.HANDLER_NAME.markup">VideoHandler</property>
  <property name="meta.attr.0.stream.VENDOR_ID.markup">[0][0][0][0]</property>
  <property name="meta.attr.0.stream.ENCODER.markup">Lavc59.18.100 mjpeg</property>
  <property name="meta.attr.0.stream.DURATION.markup">01:00:50.914000000</property>
  <property name="meta.media.1.stream.type">audio</property>
  <property name="meta.media.1.codec.sample_fmt">s16</property>
  <property name="meta.media.1.codec.sample_rate">44100</property>
  <property name="meta.media.1.codec.channels">2</property>
  <property name="meta.media.1.codec.name">pcm_s16le</property>
  <property name="meta.media.1.codec.long_name">PCM signed 16-bit little-endian</property>
  <property name="meta.media.1.codec.bit_rate">1411200</property>
  <property name="meta.attr.1.stream.HANDLER_NAME.markup">SoundHandler</property>
  <property name="meta.attr.1.stream.VENDOR_ID.markup">[0][0][0][0]</property>
  <property name="meta.attr.1.stream.ENCODER.markup">Lavc59.18.100 pcm_s16le</property>
  <property name="meta.attr.1.stream.DURATION.markup">01:00:50.966000000</property>
  <property name="meta.attr.COMPATIBLE_BRANDS.markup">isomiso2avc1mp41</property>
  <property name="meta.attr.MAJOR_BRAND.markup">isom</property>
  <property name="meta.attr.MINOR_VERSION.markup">512</property>
  <property name="meta.attr.ENCODER.markup">Lavf59.16.100</property>
  <property name="seekable">1</property>
  <property name="meta.media.sample_aspect_num">1</property>
  <property name="meta.media.sample_aspect_den">1</property>
  <property name="aspect_ratio">1</property>
  <property name="audio_index">-1</property>
  <property name="video_index">0</property>
  <property name="mute_on_pause">0</property>
  <property name="mlt_service">avformat-novalidate</property>
  <property name="kdenlive:clipname">Intellectual Property and Economic Development _ Stephan Kinsella [hoSWC_6mDCk].mp4</property>
  <property name="kdenlive:clip_type">2</property>
  <property name="kdenlive:folderid">26</property>
  <property name="kdenlive:id">33</property>
  <property name="kdenlive:file_size">748264087</property>
  <property name="kdenlive:file_hash">7b64ce2d3fb5af59492a51e6a222ffea</property>
  <property name="kdenlive:proxy">/home/liquidzulu/.cache/kdenlive/proxy/7b64ce2d3fb5af59492a51e6a222ffea.mkv</property>
  <property name="kdenlive:originalurl">b-roll/Intellectual Property and Economic Development _ Stephan Kinsella [hoSWC_6mDCk].mp4</property>
  <property name="kdenlive:original.mlt_type">producer</property>
  <property name="kdenlive:original.in">0</property>
  <property name="kdenlive:original.out">109528</property>
  <property name="kdenlive:original.length">109529</property>
  <property name="kdenlive:original.eof">pause</property>
  <property name="kdenlive:original.resource">b-roll/Intellectual Property and Economic Development _ Stephan Kinsella [hoSWC_6mDCk].mp4</property>
  <property name="kdenlive:original.meta.media.nb_streams">2</property>
  <property name="kdenlive:original.meta.media.0.stream.type">video</property>
  <property name="kdenlive:original.meta.media.0.stream.frame_rate">29.9703</property>
  <property name="kdenlive:original.meta.media.0.stream.sample_aspect_ratio">0</property>
  <property name="kdenlive:original.meta.media.0.codec.width">1280</property>
  <property name="kdenlive:original.meta.media.0.codec.height">720</property>
  <property name="kdenlive:original.meta.media.0.codec.rotate">0</property>
  <property name="kdenlive:original.meta.media.0.codec.pix_fmt">yuv420p</property>
  <property name="kdenlive:original.meta.media.0.codec.sample_aspect_ratio">0</property>
  <property name="kdenlive:original.meta.media.0.codec.colorspace">709</property>
  <property name="kdenlive:original.meta.media.0.codec.name">h264</property>
  <property name="kdenlive:original.meta.media.0.codec.long_name">H.264 / AVC / MPEG-4 AVC / MPEG-4 part 10</property>
  <property name="kdenlive:original.meta.media.0.codec.bit_rate">1505970</property>
  <property name="kdenlive:original.meta.attr.0.stream.handler_name.markup">VideoHandler</property>
  <property name="kdenlive:original.meta.attr.0.stream.vendor_id.markup">[0][0][0][0]</property>
  <property name="kdenlive:original.meta.media.1.stream.type">audio</property>
  <property name="kdenlive:original.meta.media.1.codec.sample_fmt">fltp</property>
  <property name="kdenlive:original.meta.media.1.codec.sample_rate">44100</property>
  <property name="kdenlive:original.meta.media.1.codec.channels">2</property>
  <property name="kdenlive:original.meta.media.1.codec.name">aac</property>
  <property name="kdenlive:original.meta.media.1.codec.long_name">AAC (Advanced Audio Coding)</property>
  <property name="kdenlive:original.meta.media.1.codec.bit_rate">125588</property>
  <property name="kdenlive:original.meta.attr.1.stream.handler_name.markup">SoundHandler</property>
  <property name="kdenlive:original.meta.attr.1.stream.vendor_id.markup">[0][0][0][0]</property>
  <property name="kdenlive:original.meta.attr.major_brand.markup">isom</property>
  <property name="kdenlive:original.meta.attr.minor_version.markup">512</property>
  <property name="kdenlive:original.meta.attr.compatible_brands.markup">isomiso2avc1mp41</property>
  <property name="kdenlive:original.meta.attr.encoder.markup">Lavf59.16.100</property>
  <property name="kdenlive:original.seekable">1</property>
  <property name="kdenlive:original.width">1280</property>
  <property name="kdenlive:original.height">720</property>
  <property name="kdenlive:original.meta.media.sample_aspect_num">1</property>
  <property name="kdenlive:original.meta.media.sample_aspect_den">1</property>
  <property name="kdenlive:original.aspect_ratio">1</property>
  <property name="kdenlive:original.audio_index">1</property>
  <property name="kdenlive:original.video_index">0</property>
  <property name="kdenlive:original.mute_on_pause">0</property>
  <property name="kdenlive:original.mlt_service">avformat-novalidate</property>
  <property name="kdenlive:original.meta.media.frame_rate_num">109418000</property>
  <property name="kdenlive:original.meta.media.frame_rate_den">3650881</property>
  <property name="kdenlive:original.meta.media.colorspace">709</property>
  <property name="kdenlive:original.meta.media.color_trc">2</property>
  <property name="kdenlive:original.meta.media.has_b_frames">1</property>
  <property name="kdenlive:original.meta.media.width">1280</property>
  <property name="kdenlive:original.meta.media.height">720</property>
  <property name="kdenlive:original.meta.media.color_range">mpeg</property>
  <property name="kdenlive:original.meta.media.top_field_first">0</property>
  <property name="kdenlive:original.meta.media.progressive">1</property>
  <property name="kdenlive:original.kdenlive:clip_type">0</property>
  <property name="kdenlive:original.kdenlive:folderid">26</property>
  <property name="kdenlive:original.kdenlive:id">33</property>
  <property name="kdenlive:original.kdenlive:file_size">748264087</property>
  <property name="kdenlive:original.kdenlive:file_hash">7b64ce2d3fb5af59492a51e6a222ffea</property>
  <property name="kdenlive:original.backup">1</property>
  <property name="kdenlive:audio_max1">217</property>
  <property name="kdenlive:active_streams">-1</property>
  <property name="set.test_audio">1</property>
  <property name="xml">was here</property>
  <property name="meta.media.frame_rate_num">30000</property>
  <property name="meta.media.frame_rate_den">1001</property>
  <property name="meta.media.colorspace">601</property>
  <property name="meta.media.color_trc">2</property>
  <property name="meta.media.has_b_frames">0</property>
  <property name="meta.media.width">640</property>
  <property name="meta.media.height">360</property>
  <property name="meta.media.color_range">full</property>
  <property name="meta.media.top_field_first">0</property>
  <property name="meta.media.progressive">1</property>
  <property name="set.test_image">0</property>
 </producer>
 <producer id="producer49" in="00:00:00.000" out="00:06:35.267">
  <property name="length">11859</property>
  <property name="eof">pause</property>
  <property name="resource">/home/liquidzulu/.cache/kdenlive/proxy/45eed6d715e13a32eb80ba96a383cfba.mkv</property>
  <property name="audio_index">1</property>
  <property name="video_index">0</property>
  <property name="mute_on_pause">0</property>
  <property name="mlt_service">avformat-novalidate</property>
  <property name="meta.media.nb_streams">2</property>
  <property name="meta.media.0.stream.type">video</property>
  <property name="meta.media.0.stream.frame_rate">59.9401</property>
  <property name="meta.media.0.stream.sample_aspect_ratio">1</property>
  <property name="meta.media.0.codec.width">640</property>
  <property name="meta.media.0.codec.height">360</property>
  <property name="meta.media.0.codec.rotate">0</property>
  <property name="meta.media.0.codec.pix_fmt">yuvj420p</property>
  <property name="meta.media.0.codec.sample_aspect_ratio">1</property>
  <property name="meta.media.0.codec.colorspace">601</property>
  <property name="meta.media.0.codec.color_trc">1</property>
  <property name="meta.media.0.codec.name">mjpeg</property>
  <property name="meta.media.0.codec.long_name">MJPEG (Motion JPEG)</property>
  <property name="meta.media.0.codec.bit_rate">0</property>
  <property name="meta.attr.0.stream.HANDLER_NAME.markup">ISO Media file produced by Google Inc.</property>
  <property name="meta.attr.0.stream.VENDOR_ID.markup">[0][0][0][0]</property>
  <property name="meta.attr.0.stream.ENCODER.markup">Lavc59.18.100 mjpeg</property>
  <property name="meta.attr.0.stream.DURATION.markup">00:06:35.212000000</property>
  <property name="meta.media.1.stream.type">audio</property>
  <property name="meta.media.1.codec.sample_fmt">s16</property>
  <property name="meta.media.1.codec.sample_rate">44100</property>
  <property name="meta.media.1.codec.channels">2</property>
  <property name="meta.media.1.codec.name">pcm_s16le</property>
  <property name="meta.media.1.codec.long_name">PCM signed 16-bit little-endian</property>
  <property name="meta.media.1.codec.bit_rate">1411200</property>
  <property name="meta.attr.1.stream.language.markup">eng</property>
  <property name="meta.attr.1.stream.HANDLER_NAME.markup">ISO Media file produced by Google Inc.</property>
  <property name="meta.attr.1.stream.VENDOR_ID.markup">[0][0][0][0]</property>
  <property name="meta.attr.1.stream.ENCODER.markup">Lavc59.18.100 pcm_s16le</property>
  <property name="meta.attr.1.stream.DURATION.markup">00:06:35.296000000</property>
  <property name="meta.attr.COMPATIBLE_BRANDS.markup">isomiso2avc1mp41</property>
  <property name="meta.attr.MAJOR_BRAND.markup">isom</property>
  <property name="meta.attr.MINOR_VERSION.markup">512</property>
  <property name="meta.attr.ENCODER.markup">Lavf59.16.100</property>
  <property name="seekable">1</property>
  <property name="meta.media.sample_aspect_num">1</property>
  <property name="meta.media.sample_aspect_den">1</property>
  <property name="aspect_ratio">1</property>
  <property name="kdenlive:clipname">The Mad Doctor - Mickey Mouse (1933) [LPW70q4w5pw].mp4</property>
  <property name="kdenlive:clip_type">0</property>
  <property name="kdenlive:folderid">11</property>
  <property name="kdenlive:id">12</property>
  <property name="kdenlive:file_size">56037333</property>
  <property name="kdenlive:file_hash">45eed6d715e13a32eb80ba96a383cfba</property>
  <property name="kdenlive:proxy">/home/liquidzulu/.cache/kdenlive/proxy/45eed6d715e13a32eb80ba96a383cfba.mkv</property>
  <property name="kdenlive:originalurl">b-roll/The Mad Doctor - Mickey Mouse (1933) [LPW70q4w5pw].mp4</property>
  <property name="kdenlive:original.mlt_type">producer</property>
  <property name="kdenlive:original.in">0</property>
  <property name="kdenlive:original.out">11858</property>
  <property name="kdenlive:original.length">11859</property>
  <property name="kdenlive:original.eof">pause</property>
  <property name="kdenlive:original.resource">b-roll/The Mad Doctor - Mickey Mouse (1933) [LPW70q4w5pw].mp4</property>
  <property name="kdenlive:original.meta.media.nb_streams">2</property>
  <property name="kdenlive:original.meta.media.0.stream.type">video</property>
  <property name="kdenlive:original.meta.media.0.stream.frame_rate">59.9401</property>
  <property name="kdenlive:original.meta.media.0.stream.sample_aspect_ratio">1</property>
  <property name="kdenlive:original.meta.media.0.codec.width">1280</property>
  <property name="kdenlive:original.meta.media.0.codec.height">720</property>
  <property name="kdenlive:original.meta.media.0.codec.rotate">0</property>
  <property name="kdenlive:original.meta.media.0.codec.pix_fmt">yuv420p</property>
  <property name="kdenlive:original.meta.media.0.codec.sample_aspect_ratio">1</property>
  <property name="kdenlive:original.meta.media.0.codec.colorspace">709</property>
  <property name="kdenlive:original.meta.media.0.codec.color_trc">1</property>
  <property name="kdenlive:original.meta.media.0.codec.name">h264</property>
  <property name="kdenlive:original.meta.media.0.codec.long_name">H.264 / AVC / MPEG-4 AVC / MPEG-4 part 10</property>
  <property name="kdenlive:original.meta.media.0.codec.bit_rate">993953</property>
  <property name="kdenlive:original.meta.attr.0.stream.handler_name.markup">ISO Media file produced by Google Inc.</property>
  <property name="kdenlive:original.meta.attr.0.stream.vendor_id.markup">[0][0][0][0]</property>
  <property name="kdenlive:original.meta.media.1.stream.type">audio</property>
  <property name="kdenlive:original.meta.media.1.codec.sample_fmt">fltp</property>
  <property name="kdenlive:original.meta.media.1.codec.sample_rate">44100</property>
  <property name="kdenlive:original.meta.media.1.codec.channels">2</property>
  <property name="kdenlive:original.meta.media.1.codec.name">aac</property>
  <property name="kdenlive:original.meta.media.1.codec.long_name">AAC (Advanced Audio Coding)</property>
  <property name="kdenlive:original.meta.media.1.codec.bit_rate">128005</property>
  <property name="kdenlive:original.meta.attr.1.stream.language.markup">eng</property>
  <property name="kdenlive:original.meta.attr.1.stream.handler_name.markup">ISO Media file produced by Google Inc.</property>
  <property name="kdenlive:original.meta.attr.1.stream.vendor_id.markup">[0][0][0][0]</property>
  <property name="kdenlive:original.meta.attr.major_brand.markup">isom</property>
  <property name="kdenlive:original.meta.attr.minor_version.markup">512</property>
  <property name="kdenlive:original.meta.attr.compatible_brands.markup">isomiso2avc1mp41</property>
  <property name="kdenlive:original.meta.attr.encoder.markup">Lavf59.16.100</property>
  <property name="kdenlive:original.seekable">1</property>
  <property name="kdenlive:original.width">1280</property>
  <property name="kdenlive:original.height">720</property>
  <property name="kdenlive:original.meta.media.sample_aspect_num">1</property>
  <property name="kdenlive:original.meta.media.sample_aspect_den">1</property>
  <property name="kdenlive:original.aspect_ratio">1</property>
  <property name="kdenlive:original.audio_index">1</property>
  <property name="kdenlive:original.video_index">0</property>
  <property name="kdenlive:original.mute_on_pause">0</property>
  <property name="kdenlive:original.mlt_service">avformat-novalidate</property>
  <property name="kdenlive:original.meta.media.frame_rate_num">60000</property>
  <property name="kdenlive:original.meta.media.frame_rate_den">1001</property>
  <property name="kdenlive:original.meta.media.colorspace">709</property>
  <property name="kdenlive:original.meta.media.color_trc">1</property>
  <property name="kdenlive:original.meta.media.has_b_frames">1</property>
  <property name="kdenlive:original.meta.media.width">1280</property>
  <property name="kdenlive:original.meta.media.height">720</property>
  <property name="kdenlive:original.meta.media.color_range">mpeg</property>
  <property name="kdenlive:original.meta.media.top_field_first">0</property>
  <property name="kdenlive:original.meta.media.progressive">1</property>
  <property name="kdenlive:original.kdenlive:clip_type">0</property>
  <property name="kdenlive:original.kdenlive:folderid">11</property>
  <property name="kdenlive:original.kdenlive:id">12</property>
  <property name="kdenlive:original.kdenlive:file_size">56037333</property>
  <property name="kdenlive:original.kdenlive:file_hash">45eed6d715e13a32eb80ba96a383cfba</property>
  <property name="kdenlive:original.backup">1</property>
  <property name="kdenlive:audio_max1">198</property>
  <property name="xml">was here</property>
  <property name="meta.media.frame_rate_num">60000</property>
  <property name="meta.media.frame_rate_den">1001</property>
  <property name="meta.media.colorspace">601</property>
  <property name="meta.media.color_trc">1</property>
  <property name="meta.media.has_b_frames">0</property>
  <property name="meta.media.width">640</property>
  <property name="meta.media.height">360</property>
  <property name="meta.media.color_range">full</property>
  <property name="meta.media.top_field_first">0</property>
  <property name="meta.media.progressive">1</property>
  <property name="set.test_audio">1</property>
  <property name="set.test_image">0</property>
 </producer>
 <producer id="producer50" in="00:00:00.000" out="00:09:48.100">
  <property name="length">17644</property>
  <property name="eof">pause</property>
  <property name="resource">/home/liquidzulu/.cache/kdenlive/proxy/35353995bc019f32997c74c3873c811d.mkv</property>
  <property name="meta.media.nb_streams">2</property>
  <property name="meta.media.0.stream.type">video</property>
  <property name="meta.media.0.stream.frame_rate">23.976</property>
  <property name="meta.media.0.stream.sample_aspect_ratio">1</property>
  <property name="meta.media.0.codec.width">640</property>
  <property name="meta.media.0.codec.height">360</property>
  <property name="meta.media.0.codec.rotate">0</property>
  <property name="meta.media.0.codec.pix_fmt">yuvj420p</property>
  <property name="meta.media.0.codec.sample_aspect_ratio">1</property>
  <property name="meta.media.0.codec.colorspace">601</property>
  <property name="meta.media.0.codec.color_trc">1</property>
  <property name="meta.media.0.codec.name">mjpeg</property>
  <property name="meta.media.0.codec.long_name">MJPEG (Motion JPEG)</property>
  <property name="meta.media.0.codec.bit_rate">0</property>
  <property name="meta.attr.0.stream.HANDLER_NAME.markup">ISO Media file produced by Google Inc.</property>
  <property name="meta.attr.0.stream.VENDOR_ID.markup">[0][0][0][0]</property>
  <property name="meta.attr.0.stream.ENCODER.markup">Lavc59.18.100 mjpeg</property>
  <property name="meta.attr.0.stream.DURATION.markup">00:09:48.088000000</property>
  <property name="meta.media.1.stream.type">audio</property>
  <property name="meta.media.1.codec.sample_fmt">s16</property>
  <property name="meta.media.1.codec.sample_rate">44100</property>
  <property name="meta.media.1.codec.channels">2</property>
  <property name="meta.media.1.codec.name">pcm_s16le</property>
  <property name="meta.media.1.codec.long_name">PCM signed 16-bit little-endian</property>
  <property name="meta.media.1.codec.bit_rate">1411200</property>
  <property name="meta.attr.1.stream.language.markup">eng</property>
  <property name="meta.attr.1.stream.HANDLER_NAME.markup">ISO Media file produced by Google Inc.</property>
  <property name="meta.attr.1.stream.VENDOR_ID.markup">[0][0][0][0]</property>
  <property name="meta.attr.1.stream.ENCODER.markup">Lavc59.18.100 pcm_s16le</property>
  <property name="meta.attr.1.stream.DURATION.markup">00:09:48.138000000</property>
  <property name="meta.attr.COMPATIBLE_BRANDS.markup">isomiso2avc1mp41</property>
  <property name="meta.attr.MAJOR_BRAND.markup">isom</property>
  <property name="meta.attr.MINOR_VERSION.markup">512</property>
  <property name="meta.attr.ENCODER.markup">Lavf59.16.100</property>
  <property name="seekable">1</property>
  <property name="meta.media.sample_aspect_num">1</property>
  <property name="meta.media.sample_aspect_den">1</property>
  <property name="aspect_ratio">1</property>
  <property name="audio_index">-1</property>
  <property name="video_index">0</property>
  <property name="mute_on_pause">0</property>
  <property name="mlt_service">avformat-novalidate</property>
  <property name="kdenlive:clipname">REACTION! Star Wars Episode IX - The Rise of Skywalker - Teaser Trailer #1 - Daisy Ridley Movie 2019 [0ug2DOoxJ1g].mp4</property>
  <property name="kdenlive:clip_type">0</property>
  <property name="kdenlive:folderid">11</property>
  <property name="kdenlive:id">43</property>
  <property name="kdenlive:file_size">98421644</property>
  <property name="kdenlive:file_hash">35353995bc019f32997c74c3873c811d</property>
  <property name="kdenlive:proxy">/home/liquidzulu/.cache/kdenlive/proxy/35353995bc019f32997c74c3873c811d.mkv</property>
  <property name="kdenlive:originalurl">b-roll/REACTION! Star Wars Episode IX - The Rise of Skywalker - Teaser Trailer #1 - Daisy Ridley Movie 2019 [0ug2DOoxJ1g].mp4</property>
  <property name="kdenlive:original.mlt_type">producer</property>
  <property name="kdenlive:original.in">0</property>
  <property name="kdenlive:original.out">17643</property>
  <property name="kdenlive:original.length">17644</property>
  <property name="kdenlive:original.eof">pause</property>
  <property name="kdenlive:original.resource">b-roll/REACTION! Star Wars Episode IX - The Rise of Skywalker - Teaser Trailer #1 - Daisy Ridley Movie 2019 [0ug2DOoxJ1g].mp4</property>
  <property name="kdenlive:original.meta.media.nb_streams">2</property>
  <property name="kdenlive:original.meta.media.0.stream.type">video</property>
  <property name="kdenlive:original.meta.media.0.stream.frame_rate">23.976</property>
  <property name="kdenlive:original.meta.media.0.stream.sample_aspect_ratio">1</property>
  <property name="kdenlive:original.meta.media.0.codec.width">1920</property>
  <property name="kdenlive:original.meta.media.0.codec.height">1080</property>
  <property name="kdenlive:original.meta.media.0.codec.rotate">0</property>
  <property name="kdenlive:original.meta.media.0.codec.pix_fmt">yuv420p</property>
  <property name="kdenlive:original.meta.media.0.codec.sample_aspect_ratio">1</property>
  <property name="kdenlive:original.meta.media.0.codec.colorspace">709</property>
  <property name="kdenlive:original.meta.media.0.codec.color_trc">1</property>
  <property name="kdenlive:original.meta.media.0.codec.name">h264</property>
  <property name="kdenlive:original.meta.media.0.codec.long_name">H.264 / AVC / MPEG-4 AVC / MPEG-4 part 10</property>
  <property name="kdenlive:original.meta.media.0.codec.bit_rate">1204856</property>
  <property name="kdenlive:original.meta.attr.0.stream.handler_name.markup">ISO Media file produced by Google Inc.</property>
  <property name="kdenlive:original.meta.attr.0.stream.vendor_id.markup">[0][0][0][0]</property>
  <property name="kdenlive:original.meta.media.1.stream.type">audio</property>
  <property name="kdenlive:original.meta.media.1.codec.sample_fmt">fltp</property>
  <property name="kdenlive:original.meta.media.1.codec.sample_rate">44100</property>
  <property name="kdenlive:original.meta.media.1.codec.channels">2</property>
  <property name="kdenlive:original.meta.media.1.codec.name">aac</property>
  <property name="kdenlive:original.meta.media.1.codec.long_name">AAC (Advanced Audio Coding)</property>
  <property name="kdenlive:original.meta.media.1.codec.bit_rate">127999</property>
  <property name="kdenlive:original.meta.attr.1.stream.language.markup">eng</property>
  <property name="kdenlive:original.meta.attr.1.stream.handler_name.markup">ISO Media file produced by Google Inc.</property>
  <property name="kdenlive:original.meta.attr.1.stream.vendor_id.markup">[0][0][0][0]</property>
  <property name="kdenlive:original.meta.attr.major_brand.markup">isom</property>
  <property name="kdenlive:original.meta.attr.minor_version.markup">512</property>
  <property name="kdenlive:original.meta.attr.compatible_brands.markup">isomiso2avc1mp41</property>
  <property name="kdenlive:original.meta.attr.encoder.markup">Lavf59.16.100</property>
  <property name="kdenlive:original.seekable">1</property>
  <property name="kdenlive:original.width">1920</property>
  <property name="kdenlive:original.height">1080</property>
  <property name="kdenlive:original.meta.media.sample_aspect_num">1</property>
  <property name="kdenlive:original.meta.media.sample_aspect_den">1</property>
  <property name="kdenlive:original.aspect_ratio">1</property>
  <property name="kdenlive:original.audio_index">1</property>
  <property name="kdenlive:original.video_index">0</property>
  <property name="kdenlive:original.mute_on_pause">0</property>
  <property name="kdenlive:original.mlt_service">avformat-novalidate</property>
  <property name="kdenlive:original.meta.media.frame_rate_num">24000</property>
  <property name="kdenlive:original.meta.media.frame_rate_den">1001</property>
  <property name="kdenlive:original.meta.media.colorspace">709</property>
  <property name="kdenlive:original.meta.media.color_trc">1</property>
  <property name="kdenlive:original.meta.media.has_b_frames">1</property>
  <property name="kdenlive:original.meta.media.width">1920</property>
  <property name="kdenlive:original.meta.media.height">1080</property>
  <property name="kdenlive:original.meta.media.color_range">mpeg</property>
  <property name="kdenlive:original.meta.media.top_field_first">0</property>
  <property name="kdenlive:original.meta.media.progressive">1</property>
  <property name="kdenlive:original.kdenlive:clip_type">0</property>
  <property name="kdenlive:original.kdenlive:folderid">11</property>
  <property name="kdenlive:original.kdenlive:id">43</property>
  <property name="kdenlive:original.kdenlive:file_size">98421644</property>
  <property name="kdenlive:original.kdenlive:file_hash">35353995bc019f32997c74c3873c811d</property>
  <property name="kdenlive:original.backup">1</property>
  <property name="kdenlive:audio_max1">204</property>
  <property name="kdenlive:active_streams">-1</property>
  <property name="set.test_audio">1</property>
  <property name="xml">was here</property>
  <property name="meta.media.frame_rate_num">24000</property>
  <property name="meta.media.frame_rate_den">1001</property>
  <property name="meta.media.colorspace">601</property>
  <property name="meta.media.color_trc">1</property>
  <property name="meta.media.has_b_frames">0</property>
  <property name="meta.media.width">640</property>
  <property name="meta.media.height">360</property>
  <property name="meta.media.color_range">full</property>
  <property name="meta.media.top_field_first">0</property>
  <property name="meta.media.progressive">1</property>
  <property name="set.test_image">0</property>
 </producer>
 <playlist id="playlist6">
  <blank length="00:00:07.667"/>
  <entry producer="producer9" in="00:00:00.000" out="00:00:05.433">
   <property name="kdenlive:id">17</property>
   <filter id="filter29">
    <property name="rotate_center">1</property>
    <property name="mlt_service">qtblend</property>
    <property name="kdenlive_id">qtblend</property>
    <property name="rect">00:00:00.000=-333 -2 2584 1453 1.000000;00:00:05.433=-333 -198 2584 1453 1.000000</property>
    <property name="rotation">00:00:00.000=0;00:00:05.433=0</property>
    <property name="compositing">0</property>
    <property name="distort">0</property>
    <property name="kdenlive:collapsed">0</property>
   </filter>
  </entry>
  <blank length="00:00:05.767"/>
  <entry producer="producer10" in="00:00:00.000" out="00:00:00.467">
   <property name="kdenlive:id">20</property>
   <filter id="filter30">
    <property name="rotate_center">1</property>
    <property name="mlt_service">qtblend</property>
    <property name="kdenlive_id">qtblend</property>
    <property name="rect">00:00:00.000=-4902 -4028 11683 6572 1.000000;00:00:00.467=-4769 -3954 11417 6422 1.000000</property>
    <property name="rotation">00:00:00.000=0;00:00:00.467=0</property>
    <property name="compositing">0</property>
    <property name="distort">0</property>
    <property name="kdenlive:collapsed">0</property>
   </filter>
  </entry>
  <entry producer="producer10" in="00:00:00.000" out="00:00:01.133">
   <property name="kdenlive:id">20</property>
   <filter id="filter31">
    <property name="rotate_center">1</property>
    <property name="mlt_service">qtblend</property>
    <property name="kdenlive_id">qtblend</property>
    <property name="rect">00:00:00.000=-4760 -3949 11399 6412 1.000000;00:00:00.233=-780 -660 3504 1971 1.000000;00:00:01.133=-758 -590 3504 1971 1.000000</property>
    <property name="rotation">00:00:00.000=0;00:00:00.233=0;00:00:01.133=0</property>
    <property name="compositing">0</property>
    <property name="distort">0</property>
    <property name="kdenlive:collapsed">0</property>
   </filter>
  </entry>
  <entry producer="producer11" in="00:00:00.000" out="00:00:01.333">
   <property name="kdenlive:id">19</property>
   <filter id="filter32">
    <property name="rotate_center">1</property>
    <property name="mlt_service">qtblend</property>
    <property name="kdenlive_id">qtblend</property>
    <property name="rect">00:00:00.000=-758 -588 3504 1971 1.000000;00:00:01.333=-727 -485 3504 1971 1.000000;00:00:02.933=-690 -363 3504 1971 1.000000</property>
    <property name="rotation">00:00:00.000=0;00:00:01.333=0;00:00:02.933=0</property>
    <property name="compositing">0</property>
    <property name="distort">0</property>
    <property name="kdenlive:collapsed">0</property>
   </filter>
  </entry>
  <blank length="00:00:00.933"/>
  <entry producer="producer44" in="00:02:05.167" out="00:02:08.967">
   <property name="kdenlive:id">23</property>
  </entry>
  <blank length="00:00:00.900"/>
  <entry producer="producer45" in="00:00:04.267" out="00:00:08.200">
   <property name="kdenlive:id">25</property>
  </entry>
  <entry producer="producer46" in="00:00:01.100" out="00:00:22.100">
   <property name="kdenlive:id">28</property>
  </entry>
  <entry producer="producer3" in="00:00:00.000" out="00:00:02.500">
   <property name="kdenlive:id">10</property>
   <filter id="filter33">
    <property name="rotate_center">1</property>
    <property name="mlt_service">qtblend</property>
    <property name="kdenlive_id">qtblend</property>
    <property name="rect">00:00:00.000=-190 -181 2301 1294 1.000000;00:00:02.500=-327 -154 2575 1448 1.000000</property>
    <property name="rotation">00:00:00.000=0;00:00:02.500=0</property>
    <property name="compositing">0</property>
    <property name="distort">0</property>
    <property name="kdenlive:collapsed">0</property>
   </filter>
   <filter id="filter34">
    <property name="delta">00:00:00.000=40</property>
    <property name="every">00:00:00.000=20</property>
    <property name="brightnessdelta_up">00:00:00.000=20</property>
    <property name="brightnessdelta_down">00:00:00.000=38</property>
    <property name="brightnessdelta_every">00:00:00.000=70</property>
    <property name="unevendevelop_up">00:00:00.000=60</property>
    <property name="unevendevelop_down">00:00:00.000=20</property>
    <property name="unevendevelop_duration">00:00:00.000=99</property>
    <property name="mlt_service">oldfilm</property>
    <property name="kdenlive_id">oldfilm</property>
    <property name="kdenlive:collapsed">1</property>
   </filter>
  </entry>
  <blank length="00:00:02.633"/>
  <entry producer="producer22" in="00:00:00.000" out="00:00:04.100">
   <property name="kdenlive:id">29</property>
   <property name="kdenlive:activeeffect">0</property>
   <filter id="filter35">
    <property name="rotate_center">1</property>
    <property name="mlt_service">qtblend</property>
    <property name="kdenlive_id">qtblend</property>
    <property name="rect">00:00:00.000=144 1098 1632 918 1.000000;00:00:00.167=144 53 1632 918 1.000000;00:00:00.233=144 81 1632 918 1.000000;00:00:03.867=144 81 1632 918 1.000000;00:00:03.933=144 53 1632 918 1.000000;00:00:04.100=144 1151 1632 918 1.000000</property>
    <property name="rotation">00:00:00.000=0;00:00:00.167=0;00:00:00.233=0;00:00:03.867=0;00:00:03.933=0;00:00:04.100=0</property>
    <property name="compositing">0</property>
    <property name="distort">0</property>
    <property name="kdenlive:collapsed">0</property>
   </filter>
  </entry>
  <blank length="00:00:10.300"/>
  <entry producer="producer23" in="00:00:00.000" out="00:00:04.100">
   <property name="kdenlive:id">30</property>
   <filter id="filter36">
    <property name="rotate_center">1</property>
    <property name="mlt_service">qtblend</property>
    <property name="kdenlive_id">qtblend</property>
    <property name="rect">00:00:00.000=144 1098 1632 918 1.000000;00:00:00.167=144 53 1632 918 1.000000;00:00:00.233=144 81 1632 918 1.000000;00:00:03.867=144 81 1632 918 1.000000;00:00:03.933=144 53 1632 918 1.000000;00:00:04.100=144 1151 1632 918 1.000000</property>
    <property name="rotation">00:00:00.000=0;00:00:00.167=0;00:00:00.233=0;00:00:03.867=0;00:00:03.933=0;00:00:04.100=0</property>
    <property name="compositing">0</property>
    <property name="distort">0</property>
    <property name="kdenlive:collapsed">0</property>
   </filter>
  </entry>
  <blank length="00:00:00.333"/>
  <entry producer="producer47" in="00:00:03.033" out="00:00:11.767">
   <property name="kdenlive:id">31</property>
  </entry>
  <blank length="00:00:16.300"/>
  <entry producer="producer25" in="00:00:00.000" out="00:00:01.400">
   <property name="kdenlive:id">32</property>
   <property name="kdenlive:activeeffect">0</property>
   <filter id="filter37">
    <property name="rotate_center">1</property>
    <property name="mlt_service">qtblend</property>
    <property name="kdenlive_id">qtblend</property>
    <property name="rect">00:00:00.000=147 1206 1624 913 1.000000;00:00:00.167=147 43 1624 913 1.000000;00:00:00.267=147 84 1624 913 1.000000;00:00:01.400=147 84 1624 913 1.000000</property>
    <property name="rotation">00:00:00.000=0;00:00:00.167=0;00:00:00.267=0;00:00:01.400=0</property>
    <property name="compositing">0</property>
    <property name="distort">0</property>
    <property name="kdenlive:collapsed">0</property>
   </filter>
  </entry>
  <entry producer="producer25" in="00:00:00.000" out="00:00:01.700">
   <property name="kdenlive:id">32</property>
   <filter id="filter38">
    <property name="rotate_center">1</property>
    <property name="mlt_service">qtblend</property>
    <property name="kdenlive_id">qtblend</property>
    <property name="rect">00:00:00.000=147 84 1624 913 1.000000;00:00:01.433=147 84 1624 913 1.000000;00:00:01.533=147 44 1624 913 1.000000;00:00:01.700=147 1132 1624 913 1.000000</property>
    <property name="rotation">00:00:00.000=0;00:00:01.433=0;00:00:01.533=0;00:00:01.700=0</property>
    <property name="compositing">0</property>
    <property name="distort">0</property>
    <property name="kdenlive:collapsed">0</property>
   </filter>
  </entry>
  <blank length="00:00:00.433"/>
  <entry producer="producer48" in="00:00:36.733" out="00:00:49.600">
   <property name="kdenlive:id">33</property>
  </entry>
  <entry producer="producer49" in="00:05:25.267" out="00:05:27.767">
   <property name="kdenlive:id">12</property>
   <filter id="filter39">
    <property name="rotate_center">1</property>
    <property name="mlt_service">qtblend</property>
    <property name="kdenlive_id">qtblend</property>
    <property name="rect">00:05:25.267=-181 -103 2284 1284 1.000000</property>
    <property name="rotation">00:05:25.267=0</property>
    <property name="compositing">0</property>
    <property name="distort">0</property>
    <property name="kdenlive:collapsed">0</property>
   </filter>
   <filter id="filter40">
    <property name="delta">00:05:25.267=40</property>
    <property name="every">00:05:25.267=20</property>
    <property name="brightnessdelta_up">00:05:25.267=20</property>
    <property name="brightnessdelta_down">00:05:25.267=38</property>
    <property name="brightnessdelta_every">00:05:25.267=70</property>
    <property name="unevendevelop_up">00:05:25.267=60</property>
    <property name="unevendevelop_down">00:05:25.267=20</property>
    <property name="unevendevelop_duration">00:05:25.267=99</property>
    <property name="mlt_service">oldfilm</property>
    <property name="kdenlive_id">oldfilm</property>
    <property name="kdenlive:collapsed">1</property>
   </filter>
  </entry>
  <blank length="00:00:03.700"/>
  <entry producer="producer27" in="00:00:00.000" out="00:00:04.967">
   <property name="kdenlive:id">35</property>
   <filter id="filter41" in="00:00:04.567" out="00:00:04.967">
    <property name="start">1</property>
    <property name="level">1</property>
    <property name="mlt_service">brightness</property>
    <property name="kdenlive_id">fade_to_black</property>
    <property name="alpha">00:00:00.000=1;00:00:00.400=0</property>
   </filter>
  </entry>
  <blank length="00:00:11.667"/>
  <entry producer="producer46" in="00:00:08.067" out="00:00:08.500">
   <property name="kdenlive:id">28</property>
  </entry>
  <blank length="00:00:01.300"/>
  <entry producer="producer29" in="00:00:00.000" out="00:00:03.433">
   <property name="kdenlive:id">37</property>
   <filter id="filter42">
    <property name="rotate_center">1</property>
    <property name="mlt_service">qtblend</property>
    <property name="kdenlive_id">qtblend</property>
    <property name="rect">00:00:00.000=96 54 1728 972 1.000000</property>
    <property name="rotation">00:00:00.000=0</property>
    <property name="compositing">0</property>
    <property name="distort">0</property>
    <property name="kdenlive:collapsed">0</property>
   </filter>
  </entry>
  <blank length="00:00:16.267"/>
  <entry producer="producer30" in="00:00:00.000" out="00:00:01.800">
   <property name="kdenlive:id">39</property>
   <property name="kdenlive:activeeffect">0</property>
   <filter id="filter43">
    <property name="rotate_center">1</property>
    <property name="mlt_service">qtblend</property>
    <property name="kdenlive_id">qtblend</property>
    <property name="rect">00:00:00.000=144 1092 1632 918 1.000000;00:00:00.167=144 49 1632 918 1.000000;00:00:00.267=144 81 1632 918 1.000000;00:00:01.533=144 81 1632 918 1.000000;00:00:01.633=144 47 1632 918 1.000000;00:00:01.800=144 1092 1632 918 1.000000</property>
    <property name="rotation">00:00:00.000=0;00:00:00.167=0;00:00:00.267=0;00:00:01.533=0;00:00:01.633=0;00:00:01.800=0</property>
    <property name="compositing">0</property>
    <property name="distort">0</property>
    <property name="kdenlive:collapsed">0</property>
   </filter>
  </entry>
  <blank length="00:00:13.300"/>
  <entry producer="producer31" in="00:00:00.000" out="00:00:02.000">
   <property name="kdenlive:id">40</property>
   <property name="kdenlive:activeeffect">0</property>
   <filter id="filter44">
    <property name="rotate_center">1</property>
    <property name="mlt_service">qtblend</property>
    <property name="kdenlive_id">qtblend</property>
    <property name="rect">00:00:00.000=96 54 1728 972 1.000000</property>
    <property name="rotation">00:00:00.000=0</property>
    <property name="compositing">0</property>
    <property name="distort">0</property>
    <property name="kdenlive:collapsed">0</property>
   </filter>
  </entry>
  <blank length="00:00:00.733"/>
  <entry producer="producer32" in="00:00:00.000" out="00:00:01.900">
   <property name="kdenlive:id">41</property>
   <property name="kdenlive:activeeffect">0</property>
   <filter id="filter45">
    <property name="rotate_center">1</property>
    <property name="mlt_service">qtblend</property>
    <property name="kdenlive_id">qtblend</property>
    <property name="rect">00:00:00.000=48 27 1824 1026 1.000000</property>
    <property name="rotation">00:00:00.000=0</property>
    <property name="compositing">0</property>
    <property name="distort">0</property>
    <property name="kdenlive:collapsed">0</property>
   </filter>
  </entry>
  <blank length="00:00:11.300"/>
  <entry producer="producer33" in="00:00:00.000" out="00:00:04.633">
   <property name="kdenlive:id">42</property>
   <property name="kdenlive:activeeffect">0</property>
   <filter id="filter46">
    <property name="rotate_center">1</property>
    <property name="mlt_service">qtblend</property>
    <property name="kdenlive_id">qtblend</property>
    <property name="rect">00:00:00.000=48 899 1824 1026 1.000000;00:00:00.167=48 -5 1824 1026 1.000000;00:00:00.267=48 27 1824 1026 1.000000;00:00:04.367=48 27 1824 1026 1.000000;00:00:04.467=48 -7 1824 1026 1.000000;00:00:04.633=48 890 1824 1026 1.000000</property>
    <property name="rotation">00:00:00.000=0;00:00:00.167=0;00:00:00.267=0;00:00:04.367=0;00:00:04.467=0;00:00:04.633=0</property>
    <property name="compositing">0</property>
    <property name="distort">0</property>
    <property name="kdenlive:collapsed">0</property>
   </filter>
  </entry>
  <entry producer="producer48" in="00:02:53.133" out="00:02:53.733">
   <property name="kdenlive:id">33</property>
  </entry>
  <blank length="00:00:24.967"/>
  <entry producer="producer50" in="00:02:28.133" out="00:02:32.233">
   <property name="kdenlive:id">43</property>
  </entry>
  <blank length="00:00:12.267"/>
  <entry producer="producer46" in="00:00:25.967" out="00:00:26.333">
   <property name="kdenlive:id">28</property>
  </entry>
 </playlist>
 <playlist id="playlist7"/>
 <tractor id="tractor3" in="00:00:00.000" out="00:04:00.800">
  <property name="kdenlive:trackheight">67</property>
  <property name="kdenlive:timeline_active">1</property>
  <property name="kdenlive:collapsed">0</property>
  <property name="kdenlive:thumbs_format"/>
  <property name="kdenlive:audio_rec"/>
  <track hide="audio" producer="playlist6"/>
  <track hide="audio" producer="playlist7"/>
 </tractor>
 <producer id="producer51" in="00:00:00.000" out="00:16:18.633">
  <property name="length">29360</property>
  <property name="eof">pause</property>
  <property name="resource">/home/liquidzulu/.cache/kdenlive/proxy/b27ec55f993e1ed4d083ce4eb86dd1a8.mkv</property>
  <property name="meta.media.nb_streams">2</property>
  <property name="meta.media.0.stream.type">video</property>
  <property name="meta.media.0.stream.frame_rate">59.9401</property>
  <property name="meta.media.0.stream.sample_aspect_ratio">1</property>
  <property name="meta.media.0.codec.width">640</property>
  <property name="meta.media.0.codec.height">360</property>
  <property name="meta.media.0.codec.rotate">0</property>
  <property name="meta.media.0.codec.pix_fmt">yuvj420p</property>
  <property name="meta.media.0.codec.sample_aspect_ratio">1</property>
  <property name="meta.media.0.codec.colorspace">601</property>
  <property name="meta.media.0.codec.color_trc">1</property>
  <property name="meta.media.0.codec.name">mjpeg</property>
  <property name="meta.media.0.codec.long_name">MJPEG (Motion JPEG)</property>
  <property name="meta.media.0.codec.bit_rate">0</property>
  <property name="meta.attr.0.stream.HANDLER_NAME.markup">ISO Media file produced by Google Inc.</property>
  <property name="meta.attr.0.stream.VENDOR_ID.markup">[0][0][0][0]</property>
  <property name="meta.attr.0.stream.ENCODER.markup">Lavc59.18.100 mjpeg</property>
  <property name="meta.attr.0.stream.DURATION.markup">00:16:18.595000000</property>
  <property name="meta.media.1.stream.type">audio</property>
  <property name="meta.media.1.codec.sample_fmt">s16</property>
  <property name="meta.media.1.codec.sample_rate">44100</property>
  <property name="meta.media.1.codec.channels">2</property>
  <property name="meta.media.1.codec.name">pcm_s16le</property>
  <property name="meta.media.1.codec.long_name">PCM signed 16-bit little-endian</property>
  <property name="meta.media.1.codec.bit_rate">1411200</property>
  <property name="meta.attr.1.stream.language.markup">eng</property>
  <property name="meta.attr.1.stream.HANDLER_NAME.markup">ISO Media file produced by Google Inc.</property>
  <property name="meta.attr.1.stream.VENDOR_ID.markup">[0][0][0][0]</property>
  <property name="meta.attr.1.stream.ENCODER.markup">Lavc59.18.100 pcm_s16le</property>
  <property name="meta.attr.1.stream.DURATION.markup">00:16:18.651000000</property>
  <property name="meta.attr.COMPATIBLE_BRANDS.markup">isomav01iso2mp41</property>
  <property name="meta.attr.MAJOR_BRAND.markup">isom</property>
  <property name="meta.attr.MINOR_VERSION.markup">512</property>
  <property name="meta.attr.ENCODER.markup">Lavf59.16.100</property>
  <property name="seekable">1</property>
  <property name="meta.media.sample_aspect_num">1</property>
  <property name="meta.media.sample_aspect_den">1</property>
  <property name="aspect_ratio">1</property>
  <property name="audio_index">-1</property>
  <property name="video_index">0</property>
  <property name="mute_on_pause">0</property>
  <property name="mlt_service">avformat-novalidate</property>
  <property name="kdenlive:clipname">Magic Kingdom Express Monorail Complete Ride Experience in 4K _ Walt Disney World Florida April 2021 [DgrwV09UPrU].mp4</property>
  <property name="kdenlive:clip_type">2</property>
  <property name="kdenlive:folderid">11</property>
  <property name="kdenlive:id">24</property>
  <property name="kdenlive:file_size">1706541964</property>
  <property name="kdenlive:file_hash">b27ec55f993e1ed4d083ce4eb86dd1a8</property>
  <property name="kdenlive:proxy">/home/liquidzulu/.cache/kdenlive/proxy/b27ec55f993e1ed4d083ce4eb86dd1a8.mkv</property>
  <property name="kdenlive:originalurl">b-roll/Magic Kingdom Express Monorail Complete Ride Experience in 4K _ Walt Disney World Florida April 2021 [DgrwV09UPrU].mp4</property>
  <property name="kdenlive:original.mlt_type">producer</property>
  <property name="kdenlive:original.in">0</property>
  <property name="kdenlive:original.out">29359</property>
  <property name="kdenlive:original.length">29360</property>
  <property name="kdenlive:original.eof">pause</property>
  <property name="kdenlive:original.resource">b-roll/Magic Kingdom Express Monorail Complete Ride Experience in 4K _ Walt Disney World Florida April 2021 [DgrwV09UPrU].mp4</property>
  <property name="kdenlive:original.meta.media.nb_streams">2</property>
  <property name="kdenlive:original.meta.media.0.stream.type">video</property>
  <property name="kdenlive:original.meta.media.0.stream.frame_rate">59.9401</property>
  <property name="kdenlive:original.meta.media.0.stream.sample_aspect_ratio">0</property>
  <property name="kdenlive:original.meta.media.0.codec.width">3840</property>
  <property name="kdenlive:original.meta.media.0.codec.height">2160</property>
  <property name="kdenlive:original.meta.media.0.codec.rotate">0</property>
  <property name="kdenlive:original.meta.media.0.codec.pix_fmt">yuv420p</property>
  <property name="kdenlive:original.meta.media.0.codec.sample_aspect_ratio">0</property>
  <property name="kdenlive:original.meta.media.0.codec.colorspace">709</property>
  <property name="kdenlive:original.meta.media.0.codec.color_trc">1</property>
  <property name="kdenlive:original.meta.media.0.codec.name">libdav1d</property>
  <property name="kdenlive:original.meta.media.0.codec.long_name">dav1d AV1 decoder by VideoLAN</property>
  <property name="kdenlive:original.meta.media.0.codec.bit_rate">13813648</property>
  <property name="kdenlive:original.meta.attr.0.stream.handler_name.markup">ISO Media file produced by Google Inc.</property>
  <property name="kdenlive:original.meta.attr.0.stream.vendor_id.markup">[0][0][0][0]</property>
  <property name="kdenlive:original.meta.media.1.stream.type">audio</property>
  <property name="kdenlive:original.meta.media.1.codec.sample_fmt">fltp</property>
  <property name="kdenlive:original.meta.media.1.codec.sample_rate">44100</property>
  <property name="kdenlive:original.meta.media.1.codec.channels">2</property>
  <property name="kdenlive:original.meta.media.1.codec.name">aac</property>
  <property name="kdenlive:original.meta.media.1.codec.long_name">AAC (Advanced Audio Coding)</property>
  <property name="kdenlive:original.meta.media.1.codec.bit_rate">127999</property>
  <property name="kdenlive:original.meta.attr.1.stream.language.markup">eng</property>
  <property name="kdenlive:original.meta.attr.1.stream.handler_name.markup">ISO Media file produced by Google Inc.</property>
  <property name="kdenlive:original.meta.attr.1.stream.vendor_id.markup">[0][0][0][0]</property>
  <property name="kdenlive:original.meta.attr.major_brand.markup">isom</property>
  <property name="kdenlive:original.meta.attr.minor_version.markup">512</property>
  <property name="kdenlive:original.meta.attr.compatible_brands.markup">isomav01iso2mp41</property>
  <property name="kdenlive:original.meta.attr.encoder.markup">Lavf59.16.100</property>
  <property name="kdenlive:original.seekable">1</property>
  <property name="kdenlive:original.width">3840</property>
  <property name="kdenlive:original.height">2160</property>
  <property name="kdenlive:original.meta.media.sample_aspect_num">1</property>
  <property name="kdenlive:original.meta.media.sample_aspect_den">1</property>
  <property name="kdenlive:original.aspect_ratio">1</property>
  <property name="kdenlive:original.audio_index">1</property>
  <property name="kdenlive:original.video_index">0</property>
  <property name="kdenlive:original.mute_on_pause">0</property>
  <property name="kdenlive:original.mlt_service">avformat-novalidate</property>
  <property name="kdenlive:original.meta.media.frame_rate_num">60000</property>
  <property name="kdenlive:original.meta.media.frame_rate_den">1001</property>
  <property name="kdenlive:original.meta.media.colorspace">709</property>
  <property name="kdenlive:original.meta.media.color_trc">1</property>
  <property name="kdenlive:original.meta.media.has_b_frames">0</property>
  <property name="kdenlive:original.meta.media.width">3840</property>
  <property name="kdenlive:original.meta.media.height">2160</property>
  <property name="kdenlive:original.meta.media.color_range">mpeg</property>
  <property name="kdenlive:original.meta.media.top_field_first">0</property>
  <property name="kdenlive:original.meta.media.progressive">1</property>
  <property name="kdenlive:original.kdenlive:clip_type">0</property>
  <property name="kdenlive:original.kdenlive:folderid">11</property>
  <property name="kdenlive:original.kdenlive:id">24</property>
  <property name="kdenlive:original.kdenlive:file_size">1706541964</property>
  <property name="kdenlive:original.kdenlive:file_hash">b27ec55f993e1ed4d083ce4eb86dd1a8</property>
  <property name="kdenlive:original.backup">1</property>
  <property name="kdenlive:audio_max1">230</property>
  <property name="kdenlive:active_streams">-1</property>
  <property name="set.test_audio">1</property>
  <property name="xml">was here</property>
  <property name="meta.media.frame_rate_num">60000</property>
  <property name="meta.media.frame_rate_den">1001</property>
  <property name="meta.media.colorspace">601</property>
  <property name="meta.media.color_trc">1</property>
  <property name="meta.media.has_b_frames">0</property>
  <property name="meta.media.width">640</property>
  <property name="meta.media.height">360</property>
  <property name="meta.media.color_range">full</property>
  <property name="meta.media.top_field_first">0</property>
  <property name="meta.media.progressive">1</property>
  <property name="set.test_image">0</property>
 </producer>
 <producer id="producer52" in="00:00:00.000" out="00:02:36.067">
  <property name="length">4683</property>
  <property name="eof">pause</property>
  <property name="resource">/home/liquidzulu/.cache/kdenlive/proxy/52f0467ea2c6ce04434f63b0b5805b90.mkv</property>
  <property name="meta.media.nb_streams">2</property>
  <property name="meta.media.0.stream.type">video</property>
  <property name="meta.media.0.stream.frame_rate">29.97</property>
  <property name="meta.media.0.stream.sample_aspect_ratio">1</property>
  <property name="meta.media.0.codec.width">640</property>
  <property name="meta.media.0.codec.height">360</property>
  <property name="meta.media.0.codec.rotate">0</property>
  <property name="meta.media.0.codec.pix_fmt">yuvj420p</property>
  <property name="meta.media.0.codec.sample_aspect_ratio">1</property>
  <property name="meta.media.0.codec.colorspace">601</property>
  <property name="meta.media.0.codec.color_trc">1</property>
  <property name="meta.media.0.codec.name">mjpeg</property>
  <property name="meta.media.0.codec.long_name">MJPEG (Motion JPEG)</property>
  <property name="meta.media.0.codec.bit_rate">0</property>
  <property name="meta.attr.0.stream.HANDLER_NAME.markup">ISO Media file produced by Google Inc.</property>
  <property name="meta.attr.0.stream.VENDOR_ID.markup">[0][0][0][0]</property>
  <property name="meta.attr.0.stream.ENCODER.markup">Lavc59.18.100 mjpeg</property>
  <property name="meta.attr.0.stream.DURATION.markup">00:02:36.022000000</property>
  <property name="meta.media.1.stream.type">audio</property>
  <property name="meta.media.1.codec.sample_fmt">s16</property>
  <property name="meta.media.1.codec.sample_rate">44100</property>
  <property name="meta.media.1.codec.channels">2</property>
  <property name="meta.media.1.codec.name">pcm_s16le</property>
  <property name="meta.media.1.codec.long_name">PCM signed 16-bit little-endian</property>
  <property name="meta.media.1.codec.bit_rate">1411200</property>
  <property name="meta.attr.1.stream.language.markup">eng</property>
  <property name="meta.attr.1.stream.HANDLER_NAME.markup">ISO Media file produced by Google Inc.</property>
  <property name="meta.attr.1.stream.VENDOR_ID.markup">[0][0][0][0]</property>
  <property name="meta.attr.1.stream.ENCODER.markup">Lavc59.18.100 pcm_s16le</property>
  <property name="meta.attr.1.stream.DURATION.markup">00:02:36.084000000</property>
  <property name="meta.attr.COMPATIBLE_BRANDS.markup">isomiso2avc1mp41</property>
  <property name="meta.attr.MAJOR_BRAND.markup">isom</property>
  <property name="meta.attr.MINOR_VERSION.markup">512</property>
  <property name="meta.attr.ENCODER.markup">Lavf59.16.100</property>
  <property name="seekable">1</property>
  <property name="meta.media.sample_aspect_num">1</property>
  <property name="meta.media.sample_aspect_den">1</property>
  <property name="aspect_ratio">1</property>
  <property name="audio_index">-1</property>
  <property name="video_index">0</property>
  <property name="mute_on_pause">0</property>
  <property name="mlt_service">avformat-novalidate</property>
  <property name="kdenlive:clipname">Disney Solar Farm Helps Make The World A Better Place _ Walt Disney World Resort [6khFZSS2pW0].mp4</property>
  <property name="kdenlive:clip_type">2</property>
  <property name="kdenlive:folderid">11</property>
  <property name="kdenlive:id">25</property>
  <property name="kdenlive:file_size">63046184</property>
  <property name="kdenlive:file_hash">52f0467ea2c6ce04434f63b0b5805b90</property>
  <property name="kdenlive:proxy">/home/liquidzulu/.cache/kdenlive/proxy/52f0467ea2c6ce04434f63b0b5805b90.mkv</property>
  <property name="kdenlive:originalurl">b-roll/Disney Solar Farm Helps Make The World A Better Place _ Walt Disney World Resort [6khFZSS2pW0].mp4</property>
  <property name="kdenlive:original.mlt_type">producer</property>
  <property name="kdenlive:original.in">0</property>
  <property name="kdenlive:original.out">4682</property>
  <property name="kdenlive:original.length">4683</property>
  <property name="kdenlive:original.eof">pause</property>
  <property name="kdenlive:original.resource">b-roll/Disney Solar Farm Helps Make The World A Better Place _ Walt Disney World Resort [6khFZSS2pW0].mp4</property>
  <property name="kdenlive:original.meta.media.nb_streams">2</property>
  <property name="kdenlive:original.meta.media.0.stream.type">video</property>
  <property name="kdenlive:original.meta.media.0.stream.frame_rate">29.97</property>
  <property name="kdenlive:original.meta.media.0.stream.sample_aspect_ratio">1</property>
  <property name="kdenlive:original.meta.media.0.codec.width">1920</property>
  <property name="kdenlive:original.meta.media.0.codec.height">1080</property>
  <property name="kdenlive:original.meta.media.0.codec.rotate">0</property>
  <property name="kdenlive:original.meta.media.0.codec.pix_fmt">yuv420p</property>
  <property name="kdenlive:original.meta.media.0.codec.sample_aspect_ratio">1</property>
  <property name="kdenlive:original.meta.media.0.codec.colorspace">709</property>
  <property name="kdenlive:original.meta.media.0.codec.color_trc">1</property>
  <property name="kdenlive:original.meta.media.0.codec.name">h264</property>
  <property name="kdenlive:original.meta.media.0.codec.long_name">H.264 / AVC / MPEG-4 AVC / MPEG-4 part 10</property>
  <property name="kdenlive:original.meta.media.0.codec.bit_rate">3096277</property>
  <property name="kdenlive:original.meta.attr.0.stream.handler_name.markup">ISO Media file produced by Google Inc.</property>
  <property name="kdenlive:original.meta.attr.0.stream.vendor_id.markup">[0][0][0][0]</property>
  <property name="kdenlive:original.meta.media.1.stream.type">audio</property>
  <property name="kdenlive:original.meta.media.1.codec.sample_fmt">fltp</property>
  <property name="kdenlive:original.meta.media.1.codec.sample_rate">44100</property>
  <property name="kdenlive:original.meta.media.1.codec.channels">2</property>
  <property name="kdenlive:original.meta.media.1.codec.name">aac</property>
  <property name="kdenlive:original.meta.media.1.codec.long_name">AAC (Advanced Audio Coding)</property>
  <property name="kdenlive:original.meta.media.1.codec.bit_rate">127999</property>
  <property name="kdenlive:original.meta.attr.1.stream.language.markup">eng</property>
  <property name="kdenlive:original.meta.attr.1.stream.handler_name.markup">ISO Media file produced by Google Inc.</property>
  <property name="kdenlive:original.meta.attr.1.stream.vendor_id.markup">[0][0][0][0]</property>
  <property name="kdenlive:original.meta.attr.major_brand.markup">isom</property>
  <property name="kdenlive:original.meta.attr.minor_version.markup">512</property>
  <property name="kdenlive:original.meta.attr.compatible_brands.markup">isomiso2avc1mp41</property>
  <property name="kdenlive:original.meta.attr.encoder.markup">Lavf59.16.100</property>
  <property name="kdenlive:original.seekable">1</property>
  <property name="kdenlive:original.width">1920</property>
  <property name="kdenlive:original.height">1080</property>
  <property name="kdenlive:original.meta.media.sample_aspect_num">1</property>
  <property name="kdenlive:original.meta.media.sample_aspect_den">1</property>
  <property name="kdenlive:original.aspect_ratio">1</property>
  <property name="kdenlive:original.audio_index">1</property>
  <property name="kdenlive:original.video_index">0</property>
  <property name="kdenlive:original.mute_on_pause">0</property>
  <property name="kdenlive:original.mlt_service">avformat-novalidate</property>
  <property name="kdenlive:original.meta.media.frame_rate_num">30000</property>
  <property name="kdenlive:original.meta.media.frame_rate_den">1001</property>
  <property name="kdenlive:original.meta.media.colorspace">709</property>
  <property name="kdenlive:original.meta.media.color_trc">1</property>
  <property name="kdenlive:original.meta.media.has_b_frames">1</property>
  <property name="kdenlive:original.meta.media.width">1920</property>
  <property name="kdenlive:original.meta.media.height">1080</property>
  <property name="kdenlive:original.meta.media.color_range">mpeg</property>
  <property name="kdenlive:original.meta.media.top_field_first">0</property>
  <property name="kdenlive:original.meta.media.progressive">1</property>
  <property name="kdenlive:original.kdenlive:clip_type">0</property>
  <property name="kdenlive:original.kdenlive:folderid">11</property>
  <property name="kdenlive:original.kdenlive:id">25</property>
  <property name="kdenlive:original.kdenlive:file_size">63046184</property>
  <property name="kdenlive:original.kdenlive:file_hash">52f0467ea2c6ce04434f63b0b5805b90</property>
  <property name="kdenlive:original.backup">1</property>
  <property name="kdenlive:audio_max1">195</property>
  <property name="kdenlive:active_streams">-1</property>
  <property name="set.test_audio">1</property>
  <property name="xml">was here</property>
  <property name="meta.media.frame_rate_num">30000</property>
  <property name="meta.media.frame_rate_den">1001</property>
  <property name="meta.media.colorspace">601</property>
  <property name="meta.media.color_trc">1</property>
  <property name="meta.media.has_b_frames">0</property>
  <property name="meta.media.width">640</property>
  <property name="meta.media.height">360</property>
  <property name="meta.media.color_range">full</property>
  <property name="meta.media.top_field_first">0</property>
  <property name="meta.media.progressive">1</property>
  <property name="set.test_image">0</property>
 </producer>
 <playlist id="playlist8">
  <blank length="00:00:19.400"/>
  <entry producer="producer11" in="00:00:00.000" out="00:00:01.133">
   <property name="kdenlive:id">19</property>
   <filter id="filter47">
    <property name="rotate_center">1</property>
    <property name="mlt_service">qtblend</property>
    <property name="kdenlive_id">qtblend</property>
    <property name="rect">00:00:00.000=-4760 -3949 11399 6412 1.000000;00:00:00.233=-780 -660 3504 1971 1.000000;00:00:01.133=-759 -590 3504 1971 1.000000</property>
    <property name="rotation">00:00:00.000=0;00:00:00.233=0;00:00:01.133=0</property>
    <property name="compositing">0</property>
    <property name="distort">0</property>
    <property name="kdenlive:collapsed">0</property>
   </filter>
   <filter id="filter48">
    <property name="mode">alpha</property>
    <property name="alpha_operation">clear</property>
    <property name="invert">0</property>
    <property name="feather">0</property>
    <property name="feather_passes">1</property>
    <property name="mlt_service">rotoscoping</property>
    <property name="kdenlive_id">rotoscoping</property>
    <property name="spline">{
    "000": [
        [
            [
                0.42328398384925975,
                0.4052631578947369
            ],
            [
                0.4044414535666218,
                0.4497607655502393
            ],
            [
                0.4195154777927322,
                0.40191387559808617
            ]
        ],
        [
            [
                0.46473755047106324,
                0.2583732057416268
            ],
            [
                0.47981157469717367,
                0.2105263157894737
            ],
            [
                0.48358008075370124,
                0.2138755980861244
            ]
        ],
        [
            [
                0.49488559892328404,
                0.22392344497607658
            ],
            [
                0.4986541049798116,
                0.2272727272727273
            ],
            [
                0.47981157469717367,
                0.2717703349282297
            ]
        ]
    ],
    "008": [
        [
            [
                0.42328398384925975,
                0.4052631578947369
            ],
            [
                0.4044414535666218,
                0.4497607655502393
            ],
            [
                0.4195154777927322,
                0.40191387559808617
            ]
        ],
        [
            [
                0.46473755047106324,
                0.2583732057416268
            ],
            [
                0.47981157469717367,
                0.2105263157894737
            ],
            [
                0.48358008075370124,
                0.2138755980861244
            ]
        ],
        [
            [
                0.49488559892328404,
                0.22392344497607658
            ],
            [
                0.4986541049798116,
                0.2272727272727273
            ],
            [
                0.47981157469717367,
                0.2717703349282297
            ]
        ]
    ],
    "009": [
        [
            [
                0.42328398384925975,
                0.4052631578947369
            ],
            [
                0.4044414535666218,
                0.4497607655502393
            ],
            [
                0.4195154777927322,
                0.40191387559808617
            ]
        ],
        [
            [
                0.46473755047106324,
                0.2583732057416268
            ],
            [
                0.47981157469717367,
                0.2105263157894737
            ],
            [
                0.48358008075370124,
                0.2138755980861244
            ]
        ],
        [
            [
                0.5541049798115747,
                0.2406698564593302
            ],
            [
                0.5578734858681023,
                0.2440191387559809
            ],
            [
                0.5390309555854642,
                0.28851674641148334
            ]
        ]
    ],
    "010": [
        [
            [
                0.42328398384925975,
                0.4052631578947369
            ],
            [
                0.4044414535666218,
                0.4497607655502393
            ],
            [
                0.4195154777927322,
                0.40191387559808617
            ]
        ],
        [
            [
                0.47550471063257066,
                0.2679425837320574
            ],
            [
                0.49057873485868103,
                0.22009569377990432
            ],
            [
                0.49434724091520865,
                0.22344497607655503
            ]
        ],
        [
            [
                0.611978465679677,
                0.3004784688995216
            ],
            [
                0.6157469717362045,
                0.3038277511961723
            ],
            [
                0.5969044414535666,
                0.34832535885167465
            ]
        ]
    ],
    "011": [
        [
            [
                0.42328398384925975,
                0.4052631578947369
            ],
            [
                0.4044414535666218,
                0.4497607655502393
            ],
            [
                0.4195154777927322,
                0.40191387559808617
            ]
        ],
        [
            [
                0.47550471063257066,
                0.2679425837320574
            ],
            [
                0.49057873485868103,
                0.22009569377990432
            ],
            [
                0.49434724091520865,
                0.22344497607655503
            ]
        ],
        [
            [
                0.5460296096904442,
                0.42488038277511975
            ],
            [
                0.5497981157469718,
                0.42822966507177035
            ],
            [
                0.5309555854643337,
                0.4727272727272726
            ]
        ]
    ],
    "012": [
        [
            [
                0.42328398384925975,
                0.4052631578947369
            ],
            [
                0.4044414535666218,
                0.4497607655502393
            ],
            [
                0.4195154777927322,
                0.40191387559808617
            ]
        ],
        [
            [
                0.4781965006729474,
                0.27990430622009577
            ],
            [
                0.4932705248990579,
                0.2320574162679426
            ],
            [
                0.4970390309555853,
                0.2354066985645934
            ]
        ],
        [
            [
                0.5460296096904442,
                0.42488038277511975
            ],
            [
                0.5497981157469718,
                0.42822966507177035
            ],
            [
                0.5309555854643337,
                0.4727272727272726
            ]
        ],
        [
            [
                0.5562584118438761,
                0.5129186602870817
            ],
            [
                0.5376850605652759,
                0.5143540669856459
            ],
            [
                0.5271870794078062,
                0.5172248803827753
            ]
        ],
        [
            [
                0.4884253028263796,
                0.5287081339712918
            ],
            [
                0.4771197846567968,
                0.5191387559808612
            ],
            [
                0.46177658142664874,
                0.5157894736842106
            ]
        ]
    ],
    "013": [
        [
            [
                0.42328398384925975,
                0.4052631578947369
            ],
            [
                0.4044414535666218,
                0.4497607655502393
            ],
            [
                0.4195154777927322,
                0.40191387559808617
            ]
        ],
        [
            [
                0.4822341857335127,
                0.27751196172248815
            ],
            [
                0.49730820995962316,
                0.22966507177033496
            ],
            [
                0.5010767160161506,
                0.23301435406698573
            ]
        ],
        [
            [
                0.5460296096904442,
                0.42488038277511975
            ],
            [
                0.5497981157469718,
                0.42822966507177035
            ],
            [
                0.5309555854643337,
                0.4727272727272726
            ]
        ],
        [
            [
                0.5915208613728129,
                0.4803827751196173
            ],
            [
                0.5969044414535667,
                0.4952153110047848
            ],
            [
                0.6020188425302827,
                0.5000000000000001
            ]
        ],
        [
            [
                0.6208613728129205,
                0.5248803827751204
            ],
            [
                0.6022880215343204,
                0.5263157894736842
            ],
            [
                0.5917900403768506,
                0.5291866028708139
            ]
        ],
        [
            [
                0.4884253028263796,
                0.5287081339712918
            ],
            [
                0.4771197846567968,
                0.5191387559808612
            ],
            [
                0.46177658142664874,
                0.5157894736842106
            ]
        ]
    ],
    "014": [
        [
            [
                0.42328398384925975,
                0.4052631578947369
            ],
            [
                0.4044414535666218,
                0.4497607655502393
            ],
            [
                0.4195154777927322,
                0.40191387559808617
            ]
        ],
        [
            [
                0.48492597577388935,
                0.27751196172248815
            ],
            [
                0.5,
                0.22966507177033496
            ],
            [
                0.5037685060565273,
                0.23301435406698573
            ]
        ],
        [
            [
                0.5944818304172276,
                0.4129186602870815
            ],
            [
                0.5982503364737551,
                0.4162679425837321
            ],
            [
                0.5794078061911171,
                0.4607655502392344
            ]
        ],
        [
            [
                0.5915208613728129,
                0.4803827751196173
            ],
            [
                0.5969044414535667,
                0.4952153110047848
            ],
            [
                0.6020188425302827,
                0.5000000000000001
            ]
        ],
        [
            [
                0.6208613728129205,
                0.5248803827751204
            ],
            [
                0.6022880215343204,
                0.5263157894736842
            ],
            [
                0.5917900403768506,
                0.5291866028708139
            ]
        ],
        [
            [
                0.5678331090174968,
                0.5933014354066987
            ],
            [
                0.5565275908479139,
                0.583732057416268
            ],
            [
                0.541184387617766,
                0.5803827751196173
            ]
        ]
    ],
    "015": [
        [
            [
                0.42328398384925975,
                0.4052631578947369
            ],
            [
                0.4044414535666218,
                0.4497607655502393
            ],
            [
                0.4195154777927322,
                0.40191387559808617
            ]
        ],
        [
            [
                0.48492597577388935,
                0.27751196172248815
            ],
            [
                0.5,
                0.22966507177033496
            ],
            [
                0.5037685060565273,
                0.23301435406698573
            ]
        ],
        [
            [
                0.5944818304172276,
                0.4129186602870815
            ],
            [
                0.5982503364737551,
                0.4162679425837321
            ],
            [
                0.5794078061911171,
                0.4607655502392344
            ]
        ],
        [
            [
                0.6090174966352625,
                0.4516746411483254
            ],
            [
                0.6144010767160162,
                0.46650717703349287
            ],
            [
                0.6195154777927322,
                0.4712918660287082
            ]
        ],
        [
            [
                0.6208613728129205,
                0.5248803827751204
            ],
            [
                0.6022880215343204,
                0.5263157894736842
            ],
            [
                0.5917900403768506,
                0.5291866028708139
            ]
        ],
        [
            [
                0.5678331090174968,
                0.5933014354066987
            ],
            [
                0.5565275908479139,
                0.583732057416268
            ],
            [
                0.541184387617766,
                0.5803827751196173
            ]
        ]
    ],
    "016": [
        [
            [
                0.42328398384925975,
                0.4052631578947369
            ],
            [
                0.4044414535666218,
                0.4497607655502393
            ],
            [
                0.4195154777927322,
                0.40191387559808617
            ]
        ],
        [
            [
                0.4835800807537006,
                0.2822966507177035
            ],
            [
                0.4986541049798116,
                0.23444976076555024
            ],
            [
                0.5024226110363389,
                0.23779904306220104
            ]
        ],
        [
            [
                0.5944818304172276,
                0.4129186602870815
            ],
            [
                0.5982503364737551,
                0.4162679425837321
            ],
            [
                0.5794078061911171,
                0.4607655502392344
            ]
        ],
        [
            [
                0.6090174966352625,
                0.4516746411483254
            ],
            [
                0.6144010767160162,
                0.46650717703349287
            ],
            [
                0.6195154777927322,
                0.4712918660287082
            ]
        ],
        [
            [
                0.6208613728129205,
                0.5248803827751204
            ],
            [
                0.6022880215343204,
                0.5263157894736842
            ],
            [
                0.5917900403768506,
                0.5291866028708139
            ]
        ],
        [
            [
                0.5678331090174968,
                0.5933014354066987
            ],
            [
                0.5565275908479139,
                0.583732057416268
            ],
            [
                0.541184387617766,
                0.5803827751196173
            ]
        ]
    ],
    "018": [
        [
            [
                0.42328398384925975,
                0.4052631578947369
            ],
            [
                0.4044414535666218,
                0.4497607655502393
            ],
            [
                0.4195154777927322,
                0.40191387559808617
            ]
        ],
        [
            [
                0.4808882907133238,
                0.29665071770334944
            ],
            [
                0.49596231493943477,
                0.2488038277511962
            ],
            [
                0.49973082099596206,
                0.25215311004784696
            ]
        ],
        [
            [
                0.6429340511440108,
                0.3626794258373207
            ],
            [
                0.6467025572005384,
                0.3660287081339713
            ],
            [
                0.6278600269179004,
                0.41052631578947363
            ]
        ],
        [
            [
                0.6628532974427995,
                0.4564593301435407
            ],
            [
                0.6682368775235532,
                0.47129186602870815
            ],
            [
                0.6733512786002692,
                0.4760765550239236
            ]
        ],
        [
            [
                0.6760430686406461,
                0.5248803827751204
            ],
            [
                0.6574697173620458,
                0.5263157894736842
            ],
            [
                0.646971736204576,
                0.5291866028708139
            ]
        ],
        [
            [
                0.61628532974428,
                0.6076555023923441
            ],
            [
                0.6049798115746972,
                0.5980861244019139
            ],
            [
                0.5896366083445491,
                0.5947368421052622
            ]
        ],
        [
            [
                0.5207267833109015,
                0.6267942583732058
            ],
            [
                0.5013458950201884,
                0.6124401913875599
            ],
            [
                0.48061911170928656,
                0.5971291866028707
            ]
        ]
    ],
    "019": [
        [
            [
                0.42328398384925975,
                0.4052631578947369
            ],
            [
                0.4044414535666218,
                0.4497607655502393
            ],
            [
                0.4195154777927322,
                0.40191387559808617
            ]
        ],
        [
            [
                0.4822341857335122,
                0.30382775119617245
            ],
            [
                0.49730820995962316,
                0.25598086124401914
            ],
            [
                0.5010767160161504,
                0.2593301435406699
            ]
        ],
        [
            [
                0.6806191117092868,
                0.3315789473684212
            ],
            [
                0.6843876177658144,
                0.3349282296650718
            ],
            [
                0.6655450874831763,
                0.3794258373205743
            ]
        ],
        [
            [
                0.6736204576043069,
                0.42296650717703316
            ],
            [
                0.6790040376850607,
                0.43779904306220097
            ],
            [
                0.6841184387617767,
                0.4425837320574164
            ]
        ],
        [
            [
                0.6760430686406461,
                0.5248803827751204
            ],
            [
                0.6574697173620458,
                0.5263157894736842
            ],
            [
                0.646971736204576,
                0.5291866028708139
            ]
        ],
        [
            [
                0.61628532974428,
                0.6076555023923441
            ],
            [
                0.6049798115746972,
                0.5980861244019139
            ],
            [
                0.5896366083445491,
                0.5947368421052622
            ]
        ],
        [
            [
                0.5207267833109015,
                0.6267942583732058
            ],
            [
                0.5013458950201884,
                0.6124401913875599
            ],
            [
                0.48061911170928656,
                0.5971291866028707
            ]
        ]
    ],
    "020": [
        [
            [
                0.42328398384925975,
                0.4052631578947369
            ],
            [
                0.4044414535666218,
                0.4497607655502393
            ],
            [
                0.4195154777927322,
                0.40191387559808617
            ]
        ],
        [
            [
                0.4822341857335122,
                0.30382775119617245
            ],
            [
                0.49730820995962316,
                0.25598086124401914
            ],
            [
                0.5010767160161504,
                0.2593301435406699
            ]
        ],
        [
            [
                0.7452220726783311,
                0.3339712918660288
            ],
            [
                0.7489905787348586,
                0.3373205741626794
            ],
            [
                0.7301480484522206,
                0.3818181818181819
            ]
        ],
        [
            [
                0.7099596231493944,
                0.4325358851674638
            ],
            [
                0.7153432032301481,
                0.4473684210526316
            ],
            [
                0.7204576043068641,
                0.45215311004784703
            ]
        ],
        [
            [
                0.6760430686406461,
                0.5248803827751204
            ],
            [
                0.6574697173620458,
                0.5263157894736842
            ],
            [
                0.646971736204576,
                0.5291866028708139
            ]
        ],
        [
            [
                0.61628532974428,
                0.6076555023923441
            ],
            [
                0.6049798115746972,
                0.5980861244019139
            ],
            [
                0.5896366083445491,
                0.5947368421052622
            ]
        ],
        [
            [
                0.5207267833109015,
                0.6267942583732058
            ],
            [
                0.5013458950201884,
                0.6124401913875599
            ],
            [
                0.48061911170928656,
                0.5971291866028707
            ]
        ]
    ],
    "021": [
        [
            [
                0.42328398384925975,
                0.4052631578947369
            ],
            [
                0.4044414535666218,
                0.4497607655502393
            ],
            [
                0.4195154777927322,
                0.40191387559808617
            ]
        ],
        [
            [
                0.4822341857335122,
                0.30382775119617245
            ],
            [
                0.49730820995962316,
                0.25598086124401914
            ],
            [
                0.5010767160161504,
                0.2593301435406699
            ]
        ],
        [
            [
                0.7694481830417228,
                0.35550239234449776
            ],
            [
                0.7732166890982504,
                0.35885167464114837
            ],
            [
                0.7543741588156123,
                0.40334928229665085
            ]
        ],
        [
            [
                0.7274562584118438,
                0.43253588516746394
            ],
            [
                0.7328398384925976,
                0.4473684210526316
            ],
            [
                0.7379542395693136,
                0.45215311004784703
            ]
        ],
        [
            [
                0.6760430686406461,
                0.5248803827751204
            ],
            [
                0.6574697173620458,
                0.5263157894736842
            ],
            [
                0.646971736204576,
                0.5291866028708139
            ]
        ],
        [
            [
                0.61628532974428,
                0.6076555023923441
            ],
            [
                0.6049798115746972,
                0.5980861244019139
            ],
            [
                0.5896366083445491,
                0.5947368421052622
            ]
        ],
        [
            [
                0.5207267833109015,
                0.6267942583732058
            ],
            [
                0.5013458950201884,
                0.6124401913875599
            ],
            [
                0.48061911170928656,
                0.5971291866028707
            ]
        ]
    ],
    "022": [
        [
            [
                0.42328398384925975,
                0.4052631578947369
            ],
            [
                0.4044414535666218,
                0.4497607655502393
            ],
            [
                0.4195154777927322,
                0.40191387559808617
            ]
        ],
        [
            [
                0.4822341857335122,
                0.3086124401913878
            ],
            [
                0.49730820995962316,
                0.2607655502392344
            ],
            [
                0.5010767160161503,
                0.26411483253588525
            ]
        ],
        [
            [
                0.7694481830417228,
                0.35550239234449776
            ],
            [
                0.7732166890982504,
                0.35885167464114837
            ],
            [
                0.7543741588156123,
                0.40334928229665085
            ]
        ],
        [
            [
                0.8294751009421265,
                0.4315789473684211
            ],
            [
                0.8270524899057874,
                0.4425837320574163
            ],
            [
                0.821399730820996,
                0.4492822966507177
            ]
        ],
        [
            [
                0.7274562584118438,
                0.43253588516746394
            ],
            [
                0.7328398384925976,
                0.4473684210526316
            ],
            [
                0.7379542395693136,
                0.45215311004784703
            ]
        ],
        [
            [
                0.6760430686406461,
                0.5248803827751204
            ],
            [
                0.6574697173620458,
                0.5263157894736842
            ],
            [
                0.646971736204576,
                0.5291866028708139
            ]
        ],
        [
            [
                0.61628532974428,
                0.6076555023923441
            ],
            [
                0.6049798115746972,
                0.5980861244019139
            ],
            [
                0.5896366083445491,
                0.5947368421052622
            ]
        ],
        [
            [
                0.5207267833109015,
                0.6267942583732058
            ],
            [
                0.5013458950201884,
                0.6124401913875599
            ],
            [
                0.48061911170928656,
                0.5971291866028707
            ]
        ]
    ],
    "023": [
        [
            [
                0.42328398384925975,
                0.4052631578947369
            ],
            [
                0.4044414535666218,
                0.4497607655502393
            ],
            [
                0.4195154777927322,
                0.40191387559808617
            ]
        ],
        [
            [
                0.484925975773889,
                0.3110047846889955
            ],
            [
                0.5,
                0.2631578947368421
            ],
            [
                0.5037685060565271,
                0.2665071770334929
            ]
        ],
        [
            [
                0.7694481830417228,
                0.35550239234449776
            ],
            [
                0.7732166890982504,
                0.35885167464114837
            ],
            [
                0.7543741588156123,
                0.40334928229665085
            ]
        ],
        [
            [
                0.8294751009421265,
                0.4315789473684211
            ],
            [
                0.8270524899057874,
                0.4425837320574163
            ],
            [
                0.821399730820996,
                0.4492822966507177
            ]
        ],
        [
            [
                0.7395693135935397,
                0.556937799043062
            ],
            [
                0.7449528936742934,
                0.5717703349282297
            ],
            [
                0.7500672947510094,
                0.5765550239234452
            ]
        ],
        [
            [
                0.6760430686406461,
                0.5248803827751204
            ],
            [
                0.6574697173620458,
                0.5263157894736842
            ],
            [
                0.646971736204576,
                0.5291866028708139
            ]
        ],
        [
            [
                0.61628532974428,
                0.6076555023923441
            ],
            [
                0.6049798115746972,
                0.5980861244019139
            ],
            [
                0.5896366083445491,
                0.5947368421052622
            ]
        ],
        [
            [
                0.5207267833109015,
                0.6267942583732058
            ],
            [
                0.5013458950201884,
                0.6124401913875599
            ],
            [
                0.48061911170928656,
                0.5971291866028707
            ]
        ]
    ],
    "024": [
        [
            [
                0.42328398384925975,
                0.4052631578947369
            ],
            [
                0.4044414535666218,
                0.4497607655502393
            ],
            [
                0.4195154777927322,
                0.40191387559808617
            ]
        ],
        [
            [
                0.48627187079407747,
                0.3157894736842109
            ],
            [
                0.5013458950201884,
                0.2679425837320574
            ],
            [
                0.5051144010767156,
                0.27129186602870825
            ]
        ],
        [
            [
                0.7694481830417228,
                0.35550239234449776
            ],
            [
                0.7732166890982504,
                0.35885167464114837
            ],
            [
                0.7543741588156123,
                0.40334928229665085
            ]
        ],
        [
            [
                0.8294751009421265,
                0.4315789473684211
            ],
            [
                0.8270524899057874,
                0.4425837320574163
            ],
            [
                0.821399730820996,
                0.4492822966507177
            ]
        ],
        [
            [
                0.6413189771197847,
                0.8535885167464109
            ],
            [
                0.6467025572005384,
                0.868421052631579
            ],
            [
                0.6518169582772545,
                0.8732057416267944
            ]
        ],
        [
            [
                0.593943472409152,
                0.6875598086124406
            ],
            [
                0.5753701211305519,
                0.6889952153110048
            ],
            [
                0.564872139973082,
                0.6918660287081341
            ]
        ],
        [
            [
                0.5207267833109015,
                0.6267942583732058
            ],
            [
                0.5013458950201884,
                0.6124401913875599
            ],
            [
                0.48061911170928656,
                0.5971291866028707
            ]
        ]
    ],
    "025": [
        [
            [
                0.42328398384925975,
                0.4052631578947369
            ],
            [
                0.4044414535666218,
                0.4497607655502393
            ],
            [
                0.4195154777927322,
                0.40191387559808617
            ]
        ],
        [
            [
                0.4835800807537006,
                0.3229665071770339
            ],
            [
                0.4986541049798116,
                0.27511961722488043
            ],
            [
                0.5024226110363387,
                0.2784688995215312
            ]
        ],
        [
            [
                0.7694481830417228,
                0.35550239234449776
            ],
            [
                0.7732166890982504,
                0.35885167464114837
            ],
            [
                0.7543741588156123,
                0.40334928229665085
            ]
        ],
        [
            [
                0.8294751009421265,
                0.4315789473684211
            ],
            [
                0.8270524899057874,
                0.4425837320574163
            ],
            [
                0.821399730820996,
                0.4492822966507177
            ]
        ],
        [
            [
                0.5672947510094214,
                0.9660287081339709
            ],
            [
                0.5726783310901751,
                0.9808612440191389
            ],
            [
                0.5777927321668911,
                0.9856459330143545
            ]
        ],
        [
            [
                0.48627187079407796,
                0.7617224880382779
            ],
            [
                0.4676985195154778,
                0.7631578947368421
            ],
            [
                0.4572005383580081,
                0.7660287081339714
            ]
        ],
        [
            [
                0.5207267833109015,
                0.6267942583732058
            ],
            [
                0.5013458950201884,
                0.6124401913875599
            ],
            [
                0.48061911170928656,
                0.5971291866028707
            ]
        ]
    ],
    "026": [
        [
            [
                0.42328398384925975,
                0.4052631578947369
            ],
            [
                0.4044414535666218,
                0.4497607655502393
            ],
            [
                0.4195154777927322,
                0.40191387559808617
            ]
        ],
        [
            [
                0.4862718707940773,
                0.32057416267942596
            ],
            [
                0.5013458950201884,
                0.27272727272727276
            ],
            [
                0.5051144010767151,
                0.27607655502392353
            ]
        ],
        [
            [
                0.7694481830417228,
                0.35550239234449776
            ],
            [
                0.7732166890982504,
                0.35885167464114837
            ],
            [
                0.7543741588156123,
                0.40334928229665085
            ]
        ],
        [
            [
                0.8294751009421265,
                0.4315789473684211
            ],
            [
                0.8270524899057874,
                0.4425837320574163
            ],
            [
                0.821399730820996,
                0.4492822966507177
            ]
        ],
        [
            [
                0.5444145356662182,
                0.9492822966507171
            ],
            [
                0.5497981157469718,
                0.9641148325358853
            ],
            [
                0.5565275908479138,
                0.9593301435406698
            ]
        ],
        [
            [
                0.37429340511440107,
                0.9813397129186601
            ],
            [
                0.3613728129205922,
                0.9593301435406698
            ],
            [
                0.35087483176312245,
                0.9421052631578951
            ]
        ],
        [
            [
                0.3812920592193808,
                0.754545454545455
            ],
            [
                0.36271870794078065,
                0.7559808612440192
            ],
            [
                0.35222072678331096,
                0.7588516746411484
            ]
        ],
        [
            [
                0.41036339165545055,
                0.6339712918660287
            ],
            [
                0.39098250336473755,
                0.6196172248803828
            ],
            [
                0.3702557200538356,
                0.6043062200956937
            ]
        ]
    ],
    "027": [
        [
            [
                0.42328398384925975,
                0.4052631578947369
            ],
            [
                0.4044414535666218,
                0.4497607655502393
            ],
            [
                0.4195154777927322,
                0.40191387559808617
            ]
        ],
        [
            [
                0.48761776581426564,
                0.33014354066985657
            ],
            [
                0.5026917900403769,
                0.2822966507177034
            ],
            [
                0.5064602960969035,
                0.2856459330143542
            ]
        ],
        [
            [
                0.7694481830417228,
                0.35550239234449776
            ],
            [
                0.7732166890982504,
                0.35885167464114837
            ],
            [
                0.7543741588156123,
                0.40334928229665085
            ]
        ],
        [
            [
                0.8294751009421265,
                0.4315789473684211
            ],
            [
                0.8270524899057874,
                0.4425837320574163
            ],
            [
                0.821399730820996,
                0.4492822966507177
            ]
        ],
        [
            [
                0.5444145356662182,
                0.9492822966507171
            ],
            [
                0.5497981157469718,
                0.9641148325358853
            ],
            [
                0.5565275908479138,
                0.9593301435406698
            ]
        ],
        [
            [
                0.3500672947510094,
                1.0220095693779903
            ],
            [
                0.33714670255720053,
                1
            ],
            [
                0.3266487213997308,
                0.9827751196172252
            ]
        ],
        [
            [
                0.28842530282637935,
                0.8550239234449765
            ],
            [
                0.2698519515477793,
                0.8564593301435407
            ],
            [
                0.25935397039030955,
                0.8593301435406699
            ]
        ],
        [
            [
                0.41036339165545055,
                0.6339712918660287
            ],
            [
                0.39098250336473755,
                0.6196172248803828
            ],
            [
                0.3702557200538356,
                0.6043062200956937
            ]
        ]
    ],
    "028": [
        [
            [
                0.42328398384925975,
                0.4052631578947369
            ],
            [
                0.4044414535666218,
                0.4497607655502393
            ],
            [
                0.4195154777927322,
                0.40191387559808617
            ]
        ],
        [
            [
                0.48761776581426564,
                0.33014354066985657
            ],
            [
                0.5026917900403769,
                0.2822966507177034
            ],
            [
                0.5064602960969035,
                0.2856459330143542
            ]
        ],
        [
            [
                0.7694481830417228,
                0.35550239234449776
            ],
            [
                0.7732166890982504,
                0.35885167464114837
            ],
            [
                0.7543741588156123,
                0.40334928229665085
            ]
        ],
        [
            [
                0.8294751009421265,
                0.4315789473684211
            ],
            [
                0.8270524899057874,
                0.4425837320574163
            ],
            [
                0.821399730820996,
                0.4492822966507177
            ]
        ],
        [
            [
                0.5444145356662182,
                0.9492822966507171
            ],
            [
                0.5497981157469718,
                0.9641148325358853
            ],
            [
                0.5565275908479138,
                0.9593301435406698
            ]
        ],
        [
            [
                0.3500672947510094,
                1.0220095693779903
            ],
            [
                0.33714670255720053,
                1
            ],
            [
                0.3266487213997308,
                0.9827751196172252
            ]
        ],
        [
            [
                0.28842530282637935,
                0.8550239234449765
            ],
            [
                0.2698519515477793,
                0.8564593301435407
            ],
            [
                0.25935397039030955,
                0.8593301435406699
            ]
        ],
        [
            [
                0.23405114401076685,
                0.6842105263157896
            ],
            [
                0.21467025572005385,
                0.6698564593301436
            ],
            [
                0.1939434724091519,
                0.6545454545454544
            ]
        ]
    ],
    "029": [
        [
            [
                0.4125168236877524,
                0.42200956937799056
            ],
            [
                0.3936742934051144,
                0.46650717703349287
            ],
            [
                0.40874831763122477,
                0.41866028708133973
            ]
        ],
        [
            [
                0.48761776581426564,
                0.33014354066985657
            ],
            [
                0.5026917900403769,
                0.2822966507177034
            ],
            [
                0.5064602960969035,
                0.2856459330143542
            ]
        ],
        [
            [
                0.7694481830417228,
                0.35550239234449776
            ],
            [
                0.7732166890982504,
                0.35885167464114837
            ],
            [
                0.7543741588156123,
                0.40334928229665085
            ]
        ],
        [
            [
                0.8294751009421265,
                0.4315789473684211
            ],
            [
                0.8270524899057874,
                0.4425837320574163
            ],
            [
                0.821399730820996,
                0.4492822966507177
            ]
        ],
        [
            [
                0.5444145356662182,
                0.9492822966507171
            ],
            [
                0.5497981157469718,
                0.9641148325358853
            ],
            [
                0.5565275908479138,
                0.9593301435406698
            ]
        ],
        [
            [
                0.3500672947510094,
                1.0220095693779903
            ],
            [
                0.33714670255720053,
                1
            ],
            [
                0.3266487213997308,
                0.9827751196172252
            ]
        ],
        [
            [
                0.28842530282637935,
                0.8550239234449765
            ],
            [
                0.2698519515477793,
                0.8564593301435407
            ],
            [
                0.25935397039030955,
                0.8593301435406699
            ]
        ],
        [
            [
                0.23405114401076685,
                0.6842105263157896
            ],
            [
                0.21467025572005385,
                0.6698564593301436
            ],
            [
                0.1939434724091519,
                0.6545454545454544
            ]
        ],
        [
            [
                0.1541049798115747,
                0.3100478468899523
            ],
            [
                0.17833109017496634,
                0.2822966507177034
            ],
            [
                0.18990578734858682,
                0.269377990430622
            ]
        ]
    ],
    "030": [
        [
            [
                0.4125168236877524,
                0.42200956937799056
            ],
            [
                0.3936742934051144,
                0.46650717703349287
            ],
            [
                0.40874831763122477,
                0.41866028708133973
            ]
        ],
        [
            [
                0.48761776581426564,
                0.33014354066985657
            ],
            [
                0.5026917900403769,
                0.2822966507177034
            ],
            [
                0.5064602960969035,
                0.2856459330143542
            ]
        ],
        [
            [
                0.7694481830417228,
                0.35550239234449776
            ],
            [
                0.7732166890982504,
                0.35885167464114837
            ],
            [
                0.7543741588156123,
                0.40334928229665085
            ]
        ],
        [
            [
                0.8294751009421265,
                0.4315789473684211
            ],
            [
                0.8270524899057874,
                0.4425837320574163
            ],
            [
                0.821399730820996,
                0.4492822966507177
            ]
        ],
        [
            [
                0.5444145356662182,
                0.9492822966507171
            ],
            [
                0.5497981157469718,
                0.9641148325358853
            ],
            [
                0.5565275908479138,
                0.9593301435406698
            ]
        ],
        [
            [
                0.3500672947510094,
                1.0220095693779903
            ],
            [
                0.33714670255720053,
                1
            ],
            [
                0.3266487213997308,
                0.9827751196172252
            ]
        ],
        [
            [
                0.28842530282637935,
                0.8550239234449765
            ],
            [
                0.2698519515477793,
                0.8564593301435407
            ],
            [
                0.25935397039030955,
                0.8593301435406699
            ]
        ],
        [
            [
                0.23405114401076685,
                0.6842105263157896
            ],
            [
                0.21467025572005385,
                0.6698564593301436
            ],
            [
                0.1939434724091519,
                0.6545454545454544
            ]
        ],
        [
            [
                0.0935397039030955,
                0.09234449760765559
            ],
            [
                0.11776581426648722,
                0.0645933014354067
            ],
            [
                0.12934051144010764,
                0.05167464114832526
            ]
        ]
    ],
    "031": [
        [
            [
                0.4125168236877524,
                0.42200956937799056
            ],
            [
                0.3936742934051144,
                0.46650717703349287
            ],
            [
                0.40874831763122477,
                0.41866028708133973
            ]
        ],
        [
            [
                0.48761776581426564,
                0.33014354066985657
            ],
            [
                0.5026917900403769,
                0.2822966507177034
            ],
            [
                0.5064602960969035,
                0.2856459330143542
            ]
        ],
        [
            [
                0.7694481830417228,
                0.35550239234449776
            ],
            [
                0.7732166890982504,
                0.35885167464114837
            ],
            [
                0.7543741588156123,
                0.40334928229665085
            ]
        ],
        [
            [
                0.8294751009421265,
                0.4315789473684211
            ],
            [
                0.8270524899057874,
                0.4425837320574163
            ],
            [
                0.821399730820996,
                0.4492822966507177
            ]
        ],
        [
            [
                0.5444145356662182,
                0.9492822966507171
            ],
            [
                0.5497981157469718,
                0.9641148325358853
            ],
            [
                0.5565275908479138,
                0.9593301435406698
            ]
        ],
        [
            [
                0.3500672947510094,
                1.0220095693779903
            ],
            [
                0.33714670255720053,
                1
            ],
            [
                0.3266487213997308,
                0.9827751196172252
            ]
        ],
        [
            [
                0.28842530282637935,
                0.8550239234449765
            ],
            [
                0.2698519515477793,
                0.8564593301435407
            ],
            [
                0.25935397039030955,
                0.8593301435406699
            ]
        ],
        [
            [
                0.23405114401076685,
                0.6842105263157896
            ],
            [
                0.21467025572005385,
                0.6698564593301436
            ],
            [
                0.1939434724091519,
                0.6545454545454544
            ]
        ],
        [
            [
                0.0935397039030955,
                0.09234449760765559
            ],
            [
                0.11776581426648722,
                0.0645933014354067
            ],
            [
                0.12934051144010764,
                0.05167464114832526
            ]
        ],
        [
            [
                0.15814266487214004,
                -0.11004784688995217
            ],
            [
                0.19044414535666218,
                -0.06698564593301436
            ],
            [
                0.2133243606998654,
                -0.029665071770334915
            ]
        ]
    ],
    "032": [
        [
            [
                0.4125168236877524,
                0.42200956937799056
            ],
            [
                0.3936742934051144,
                0.46650717703349287
            ],
            [
                0.40874831763122477,
                0.41866028708133973
            ]
        ],
        [
            [
                0.48761776581426564,
                0.33014354066985657
            ],
            [
                0.5026917900403769,
                0.2822966507177034
            ],
            [
                0.5064602960969035,
                0.2856459330143542
            ]
        ],
        [
            [
                0.7694481830417228,
                0.35550239234449776
            ],
            [
                0.7732166890982504,
                0.35885167464114837
            ],
            [
                0.7543741588156123,
                0.40334928229665085
            ]
        ],
        [
            [
                0.8294751009421265,
                0.4315789473684211
            ],
            [
                0.8270524899057874,
                0.4425837320574163
            ],
            [
                0.821399730820996,
                0.4492822966507177
            ]
        ],
        [
            [
                0.5444145356662182,
                0.9492822966507171
            ],
            [
                0.5497981157469718,
                0.9641148325358853
            ],
            [
                0.5565275908479138,
                0.9593301435406698
            ]
        ],
        [
            [
                0.3500672947510094,
                1.0220095693779903
            ],
            [
                0.33714670255720053,
                1
            ],
            [
                0.3266487213997308,
                0.9827751196172252
            ]
        ],
        [
            [
                0.28842530282637935,
                0.8550239234449765
            ],
            [
                0.2698519515477793,
                0.8564593301435407
            ],
            [
                0.25935397039030955,
                0.8593301435406699
            ]
        ],
        [
            [
                0.23405114401076685,
                0.6842105263157896
            ],
            [
                0.21467025572005385,
                0.6698564593301436
            ],
            [
                0.1939434724091519,
                0.6545454545454544
            ]
        ],
        [
            [
                0.0935397039030955,
                0.09234449760765559
            ],
            [
                0.11776581426648722,
                0.0645933014354067
            ],
            [
                0.12934051144010764,
                0.05167464114832526
            ]
        ],
        [
            [
                0.15814266487214004,
                -0.11004784688995217
            ],
            [
                0.19044414535666218,
                -0.06698564593301436
            ],
            [
                0.2133243606998654,
                -0.029665071770334915
            ]
        ],
        [
            [
                0.3199192462987887,
                -0.03014354066985647
            ],
            [
                0.33714670255720053,
                0
            ],
            [
                0.35248990578734857,
                0.019617224880382762
            ]
        ],
        [
            [
                0.33041722745625834,
                0.12966507177033507
            ],
            [
                0.3532974427994616,
                0.18181818181818182
            ],
            [
                0.37106325706594884,
                0.2363636363636365
            ]
        ]
    ],
    "033": [
        [
            [
                0.4125168236877524,
                0.42200956937799056
            ],
            [
                0.3936742934051144,
                0.46650717703349287
            ],
            [
                0.40874831763122477,
                0.41866028708133973
            ]
        ],
        [
            [
                0.48761776581426564,
                0.33014354066985657
            ],
            [
                0.5026917900403769,
                0.2822966507177034
            ],
            [
                0.5064602960969035,
                0.2856459330143542
            ]
        ],
        [
            [
                0.7694481830417228,
                0.35550239234449776
            ],
            [
                0.7732166890982504,
                0.35885167464114837
            ],
            [
                0.7543741588156123,
                0.40334928229665085
            ]
        ],
        [
            [
                0.8294751009421265,
                0.4315789473684211
            ],
            [
                0.8270524899057874,
                0.4425837320574163
            ],
            [
                0.821399730820996,
                0.4492822966507177
            ]
        ],
        [
            [
                0.5444145356662182,
                0.9492822966507171
            ],
            [
                0.5497981157469718,
                0.9641148325358853
            ],
            [
                0.5565275908479138,
                0.9593301435406698
            ]
        ],
        [
            [
                0.3500672947510094,
                1.0220095693779903
            ],
            [
                0.33714670255720053,
                1
            ],
            [
                0.3266487213997308,
                0.9827751196172252
            ]
        ],
        [
            [
                0.28842530282637935,
                0.8550239234449765
            ],
            [
                0.2698519515477793,
                0.8564593301435407
            ],
            [
                0.25935397039030955,
                0.8593301435406699
            ]
        ],
        [
            [
                0.23405114401076685,
                0.6842105263157896
            ],
            [
                0.21467025572005385,
                0.6698564593301436
            ],
            [
                0.1939434724091519,
                0.6545454545454544
            ]
        ],
        [
            [
                0.0935397039030955,
                0.09234449760765559
            ],
            [
                0.11776581426648722,
                0.0645933014354067
            ],
            [
                0.12934051144010764,
                0.05167464114832526
            ]
        ],
        [
            [
                0.15814266487214004,
                -0.11004784688995217
            ],
            [
                0.19044414535666218,
                -0.06698564593301436
            ],
            [
                0.2133243606998654,
                -0.029665071770334915
            ]
        ],
        [
            [
                0.5823687752355315,
                0.02248803827751195
            ],
            [
                0.5995962314939435,
                0.052631578947368425
            ],
            [
                0.6149394347240914,
                0.07224880382775115
            ]
        ],
        [
            [
                0.33041722745625834,
                0.12966507177033507
            ],
            [
                0.3532974427994616,
                0.18181818181818182
            ],
            [
                0.37106325706594884,
                0.2363636363636365
            ]
        ]
    ],
    "034": [
        [
            [
                0.4125168236877524,
                0.42200956937799056
            ],
            [
                0.3936742934051144,
                0.46650717703349287
            ],
            [
                0.40874831763122477,
                0.41866028708133973
            ]
        ],
        [
            [
                0.48761776581426564,
                0.33014354066985657
            ],
            [
                0.5026917900403769,
                0.2822966507177034
            ],
            [
                0.5064602960969035,
                0.2856459330143542
            ]
        ],
        [
            [
                0.7694481830417228,
                0.35550239234449776
            ],
            [
                0.7732166890982504,
                0.35885167464114837
            ],
            [
                0.7543741588156123,
                0.40334928229665085
            ]
        ],
        [
            [
                0.8294751009421265,
                0.4315789473684211
            ],
            [
                0.8270524899057874,
                0.4425837320574163
            ],
            [
                0.821399730820996,
                0.4492822966507177
            ]
        ],
        [
            [
                0.5444145356662182,
                0.9492822966507171
            ],
            [
                0.5497981157469718,
                0.9641148325358853
            ],
            [
                0.5565275908479138,
                0.9593301435406698
            ]
        ],
        [
            [
                0.3500672947510094,
                1.0220095693779903
            ],
            [
                0.33714670255720053,
                1
            ],
            [
                0.3266487213997308,
                0.9827751196172252
            ]
        ],
        [
            [
                0.28842530282637935,
                0.8550239234449765
            ],
            [
                0.2698519515477793,
                0.8564593301435407
            ],
            [
                0.25935397039030955,
                0.8593301435406699
            ]
        ],
        [
            [
                0.23405114401076685,
                0.6842105263157896
            ],
            [
                0.21467025572005385,
                0.6698564593301436
            ],
            [
                0.1939434724091519,
                0.6545454545454544
            ]
        ],
        [
            [
                0.0935397039030955,
                0.09234449760765559
            ],
            [
                0.11776581426648722,
                0.0645933014354067
            ],
            [
                0.12934051144010764,
                0.05167464114832526
            ]
        ],
        [
            [
                0.15814266487214004,
                -0.11004784688995217
            ],
            [
                0.19044414535666218,
                -0.06698564593301436
            ],
            [
                0.2133243606998654,
                -0.029665071770334915
            ]
        ],
        [
            [
                0.5823687752355315,
                0.02248803827751195
            ],
            [
                0.5995962314939435,
                0.052631578947368425
            ],
            [
                0.6149394347240914,
                0.07224880382775115
            ]
        ],
        [
            [
                0.4004037685060565,
                0.33301435406698576
            ],
            [
                0.42328398384925975,
                0.38516746411483255
            ],
            [
                0.441049798115747,
                0.4397129186602874
            ]
        ]
    ]
}
</property>
    <property name="kdenlive:collapsed">0</property>
   </filter>
  </entry>
  <entry producer="producer12" in="00:00:00.000" out="00:00:02.933">
   <property name="kdenlive:id">21</property>
   <filter id="filter49">
    <property name="rotate_center">1</property>
    <property name="mlt_service">qtblend</property>
    <property name="kdenlive_id">qtblend</property>
    <property name="rect">00:00:00.000=-758 -588 3504 1971 1.000000;00:00:01.333=-727 -485 3504 1971 1.000000;00:00:02.933=-690 -363 3504 1971 1.000000</property>
    <property name="rotation">00:00:00.000=0;00:00:01.333=0;00:00:02.933=0</property>
    <property name="compositing">0</property>
    <property name="distort">0</property>
    <property name="kdenlive:collapsed">0</property>
   </filter>
   <filter id="filter50" out="00:00:01.333">
    <property name="start">1</property>
    <property name="level">1</property>
    <property name="mlt_service">brightness</property>
    <property name="kdenlive_id">fade_from_black</property>
    <property name="alpha">00:00:00.000=0;00:00:01.333=1</property>
    <property name="kdenlive:collapsed">0</property>
   </filter>
  </entry>
  <blank length="00:00:02.667"/>
  <entry producer="producer51" in="00:00:14.133" out="00:00:15.800">
   <property name="kdenlive:id">24</property>
  </entry>
  <blank length="00:00:00.933"/>
  <entry producer="producer17" in="00:00:00.000" out="00:00:02.700">
   <property name="kdenlive:id">27</property>
   <property name="kdenlive:activeeffect">0</property>
   <filter id="filter51">
    <property name="rotate_center">1</property>
    <property name="mlt_service">qtblend</property>
    <property name="kdenlive_id">qtblend</property>
    <property name="rect">00:00:00.000=96 1173 1728 972 1.000000;00:00:00.167=96 13 1728 972 1.000000;00:00:00.267=96 54 1728 972 1.000000;00:00:02.433=96 54 1728 972 1.000000;00:00:02.533=96 15 1728 972 1.000000;00:00:02.700=96 1150 1728 972 1.000000</property>
    <property name="rotation">00:00:00.000=0;00:00:00.167=0;00:00:00.267=0;00:00:02.433=0;00:00:02.533=0;00:00:02.700=0</property>
    <property name="compositing">0</property>
    <property name="distort">0</property>
    <property name="kdenlive:collapsed">0</property>
   </filter>
  </entry>
  <entry producer="producer52" in="00:00:08.233" out="00:00:08.567">
   <property name="kdenlive:id">25</property>
  </entry>
  <blank length="00:00:20.667"/>
  <entry producer="producer2" in="00:00:00.000" out="00:00:02.500">
   <property name="kdenlive:id">7</property>
   <filter id="filter52">
    <property name="rotate_center">1</property>
    <property name="mlt_service">qtblend</property>
    <property name="kdenlive_id">qtblend</property>
    <property name="rect">00:00:00.000=-331 -186 2586 1455 1.000000;00:00:02.500=-86 -50 2094 1178 1.000000</property>
    <property name="rotation">00:00:00.000=0;00:00:02.500=0</property>
    <property name="compositing">0</property>
    <property name="distort">0</property>
    <property name="kdenlive:collapsed">0</property>
   </filter>
  </entry>
  <blank length="00:01:03.100"/>
  <entry producer="producer5" in="00:00:00.000" out="00:00:02.500">
   <property name="kdenlive:id">13</property>
   <filter id="filter53">
    <property name="rotate_center">1</property>
    <property name="mlt_service">qtblend</property>
    <property name="kdenlive_id">qtblend</property>
    <property name="rect">00:00:00.000=-331 -186 2586 1455 1.000000;00:00:02.500=-86 -50 2094 1178 1.000000</property>
    <property name="rotation">00:00:00.000=0;00:00:02.500=0</property>
    <property name="compositing">0</property>
    <property name="distort">0</property>
    <property name="kdenlive:collapsed">0</property>
   </filter>
  </entry>
 </playlist>
 <playlist id="playlist9"/>
 <tractor id="tractor4" in="00:00:00.000" out="00:02:00.733">
  <property name="kdenlive:trackheight">67</property>
  <property name="kdenlive:timeline_active">1</property>
  <property name="kdenlive:collapsed">0</property>
  <property name="kdenlive:thumbs_format"/>
  <property name="kdenlive:audio_rec"/>
  <track hide="audio" producer="playlist8"/>
  <track hide="audio" producer="playlist9"/>
 </tractor>
 <playlist id="playlist10">
  <blank length="00:00:18.900"/>
  <entry producer="producer16" in="00:00:00.000" out="00:00:04.967">
   <property name="kdenlive:id">22</property>
   <filter id="filter54">
    <property name="rotate_center">1</property>
    <property name="mlt_service">qtblend</property>
    <property name="kdenlive_id">qtblend</property>
    <property name="rect">00:00:00.000=29 966 260 128 0.440000</property>
    <property name="rotation">00:00:00.000=0</property>
    <property name="compositing">0</property>
    <property name="distort">0</property>
    <property name="kdenlive:collapsed">0</property>
   </filter>
   <filter id="filter55" out="00:00:00.667">
    <property name="start">1</property>
    <property name="level">1</property>
    <property name="mlt_service">brightness</property>
    <property name="kdenlive_id">fade_from_black</property>
    <property name="alpha">00:00:00.000=0;00:00:00.667=1</property>
    <property name="kdenlive:collapsed">0</property>
   </filter>
   <filter id="filter56">
    <property name="mlt_service">invert</property>
    <property name="kdenlive_id">invert</property>
    <property name="kdenlive:collapsed">0</property>
   </filter>
   <filter id="filter57" in="00:00:04.233" out="00:00:04.967">
    <property name="start">1</property>
    <property name="level">1</property>
    <property name="mlt_service">brightness</property>
    <property name="kdenlive_id">fade_to_black</property>
    <property name="alpha">00:00:00.000=1;00:00:00.733=0</property>
    <property name="kdenlive:collapsed">0</property>
   </filter>
  </entry>
 </playlist>
 <playlist id="playlist11"/>
 <tractor id="tractor5" in="00:00:00.000" out="00:00:23.867">
  <property name="kdenlive:trackheight">67</property>
  <property name="kdenlive:timeline_active">1</property>
  <property name="kdenlive:collapsed">28</property>
  <property name="kdenlive:thumbs_format"/>
  <property name="kdenlive:audio_rec"/>
  <track hide="audio" producer="playlist10"/>
  <track hide="audio" producer="playlist11"/>
 </tractor>
 <playlist id="playlist12">
  <entry producer="producer16" in="00:00:00.000" out="00:00:19.533">
   <property name="kdenlive:id">22</property>
   <filter id="filter58">
    <property name="rotate_center">1</property>
    <property name="mlt_service">qtblend</property>
    <property name="kdenlive_id">qtblend</property>
    <property name="rect">00:00:00.000=29 966 260 128 0.440000</property>
    <property name="rotation">00:00:00.000=0</property>
    <property name="compositing">0</property>
    <property name="distort">0</property>
    <property name="kdenlive:collapsed">0</property>
   </filter>
   <filter id="filter59" in="00:00:18.867" out="00:00:19.533">
    <property name="start">1</property>
    <property name="level">1</property>
    <property name="mlt_service">brightness</property>
    <property name="kdenlive_id">fade_to_black</property>
    <property name="alpha">00:00:00.000=1;00:00:00.667=0</property>
    <property name="kdenlive:collapsed">0</property>
   </filter>
  </entry>
  <blank length="00:00:03.633"/>
  <entry producer="producer16" in="00:00:00.000" out="00:04:24.533">
   <property name="kdenlive:id">22</property>
   <filter id="filter60">
    <property name="rotate_center">1</property>
    <property name="mlt_service">qtblend</property>
    <property name="kdenlive_id">qtblend</property>
    <property name="rect">00:00:00.000=29 966 260 128 0.440000</property>
    <property name="rotation">00:00:00.000=0</property>
    <property name="compositing">0</property>
    <property name="distort">0</property>
   </filter>
   <filter id="filter61" out="00:00:00.700">
    <property name="start">1</property>
    <property name="level">1</property>
    <property name="mlt_service">brightness</property>
    <property name="kdenlive_id">fade_from_black</property>
    <property name="alpha">00:00:00.000=0;00:00:00.700=1</property>
   </filter>
   <filter id="filter62" in="00:04:20.267" out="00:04:24.567">
    <property name="start">1</property>
    <property name="level">1</property>
    <property name="mlt_service">brightness</property>
    <property name="kdenlive_id">fade_to_black</property>
    <property name="alpha">00:00:00.000=1;00:00:04.300=0</property>
   </filter>
  </entry>
 </playlist>
 <playlist id="playlist13"/>
 <tractor id="tractor6" in="00:00:00.000" out="00:04:47.733">
  <property name="kdenlive:trackheight">67</property>
  <property name="kdenlive:timeline_active">1</property>
  <property name="kdenlive:collapsed">28</property>
  <property name="kdenlive:thumbs_format"/>
  <property name="kdenlive:audio_rec"/>
  <track hide="audio" producer="playlist12"/>
  <track hide="audio" producer="playlist13"/>
 </tractor>
 <playlist id="playlist14">
  <blank length="00:02:05.700"/>
  <entry producer="producer28" in="00:00:00.000" out="00:00:01.467">
   <property name="kdenlive:id">36</property>
   <filter id="filter63">
    <property name="rotate_center">1</property>
    <property name="mlt_service">qtblend</property>
    <property name="kdenlive_id">qtblend</property>
    <property name="rect">00:00:00.000=1204 824 179 101 1.000000;00:00:01.467=1154 31 179 101 1.000000</property>
    <property name="rotation">00:00:00.000=0;00:00:01.467=0</property>
    <property name="compositing">0</property>
    <property name="distort">0</property>
    <property name="kdenlive:collapsed">0</property>
   </filter>
   <filter id="filter64" out="00:00:00.100">
    <property name="start">1</property>
    <property name="level">1</property>
    <property name="mlt_service">brightness</property>
    <property name="kdenlive_id">fade_from_black</property>
    <property name="alpha">00:00:00.000=0;00:00:00.100=1</property>
    <property name="kdenlive:collapsed">0</property>
   </filter>
   <filter id="filter65" in="00:00:01.333" out="00:00:01.467">
    <property name="start">1</property>
    <property name="level">1</property>
    <property name="mlt_service">brightness</property>
    <property name="kdenlive_id">fade_to_black</property>
    <property name="alpha">00:00:00.000=1;00:00:00.133=0</property>
    <property name="kdenlive:collapsed">0</property>
   </filter>
  </entry>
 </playlist>
 <playlist id="playlist15"/>
 <tractor id="tractor7" in="00:00:00.000" out="00:02:07.167">
  <property name="kdenlive:trackheight">67</property>
  <property name="kdenlive:timeline_active">1</property>
  <property name="kdenlive:collapsed">28</property>
  <track producer="playlist14"/>
  <track producer="playlist15"/>
 </tractor>
 <playlist id="playlist16">
  <blank length="00:02:05.967"/>
  <entry producer="producer28" in="00:00:00.000" out="00:00:01.467">
   <property name="kdenlive:id">36</property>
   <filter id="filter66">
    <property name="rotate_center">1</property>
    <property name="mlt_service">qtblend</property>
    <property name="kdenlive_id">qtblend</property>
    <property name="rect">00:00:00.000=1204 824 179 101 1.000000;00:00:01.467=1154 31 179 101 1.000000</property>
    <property name="rotation">00:00:00.000=0;00:00:01.467=0</property>
    <property name="compositing">0</property>
    <property name="distort">0</property>
    <property name="kdenlive:collapsed">0</property>
   </filter>
   <filter id="filter67" out="00:00:00.100">
    <property name="start">1</property>
    <property name="level">1</property>
    <property name="mlt_service">brightness</property>
    <property name="kdenlive_id">fade_from_black</property>
    <property name="alpha">00:00:00.000=0;00:00:00.100=1</property>
    <property name="kdenlive:collapsed">0</property>
   </filter>
   <filter id="filter68" in="00:00:01.333" out="00:00:01.467">
    <property name="start">1</property>
    <property name="level">1</property>
    <property name="mlt_service">brightness</property>
    <property name="kdenlive_id">fade_to_black</property>
    <property name="alpha">00:00:00.000=1;00:00:00.133=0</property>
    <property name="kdenlive:collapsed">0</property>
   </filter>
  </entry>
 </playlist>
 <playlist id="playlist17"/>
 <tractor id="tractor8" in="00:00:00.000" out="00:02:07.433">
  <property name="kdenlive:trackheight">67</property>
  <property name="kdenlive:timeline_active">1</property>
  <property name="kdenlive:collapsed">28</property>
  <track producer="playlist16"/>
  <track producer="playlist17"/>
 </tractor>
 <playlist id="playlist18">
  <blank length="00:02:06.267"/>
  <entry producer="producer28" in="00:00:00.000" out="00:00:01.467">
   <property name="kdenlive:id">36</property>
   <filter id="filter69">
    <property name="rotate_center">1</property>
    <property name="mlt_service">qtblend</property>
    <property name="kdenlive_id">qtblend</property>
    <property name="rect">00:00:00.000=1204 824 179 101 1.000000;00:00:01.467=1154 31 179 101 1.000000</property>
    <property name="rotation">00:00:00.000=0;00:00:01.467=0</property>
    <property name="compositing">0</property>
    <property name="distort">0</property>
    <property name="kdenlive:collapsed">0</property>
   </filter>
   <filter id="filter70" out="00:00:00.100">
    <property name="start">1</property>
    <property name="level">1</property>
    <property name="mlt_service">brightness</property>
    <property name="kdenlive_id">fade_from_black</property>
    <property name="alpha">00:00:00.000=0;00:00:00.100=1</property>
    <property name="kdenlive:collapsed">0</property>
   </filter>
   <filter id="filter71" in="00:00:01.333" out="00:00:01.467">
    <property name="start">1</property>
    <property name="level">1</property>
    <property name="mlt_service">brightness</property>
    <property name="kdenlive_id">fade_to_black</property>
    <property name="alpha">00:00:00.000=1;00:00:00.133=0</property>
    <property name="kdenlive:collapsed">0</property>
   </filter>
  </entry>
 </playlist>
 <playlist id="playlist19"/>
 <tractor id="tractor9" in="00:00:00.000" out="00:02:07.733">
  <property name="kdenlive:trackheight">67</property>
  <property name="kdenlive:timeline_active">1</property>
  <property name="kdenlive:collapsed">28</property>
  <track producer="playlist18"/>
  <track producer="playlist19"/>
 </tractor>
 <playlist id="playlist20">
  <blank length="00:02:06.533"/>
  <entry producer="producer28" in="00:00:00.000" out="00:00:01.467">
   <property name="kdenlive:id">36</property>
   <filter id="filter72">
    <property name="rotate_center">1</property>
    <property name="mlt_service">qtblend</property>
    <property name="kdenlive_id">qtblend</property>
    <property name="rect">00:00:00.000=1204 824 179 101 1.000000;00:00:01.467=1154 31 179 101 1.000000</property>
    <property name="rotation">00:00:00.000=0;00:00:01.467=0</property>
    <property name="compositing">0</property>
    <property name="distort">0</property>
   </filter>
   <filter id="filter73" out="00:00:00.100">
    <property name="start">1</property>
    <property name="level">1</property>
    <property name="mlt_service">brightness</property>
    <property name="kdenlive_id">fade_from_black</property>
    <property name="alpha">00:00:00.000=0;00:00:00.100=1</property>
   </filter>
   <filter id="filter74" in="00:00:01.333" out="00:00:01.467">
    <property name="start">1</property>
    <property name="level">1</property>
    <property name="mlt_service">brightness</property>
    <property name="kdenlive_id">fade_to_black</property>
    <property name="alpha">00:00:00.000=1;00:00:00.133=0</property>
   </filter>
  </entry>
 </playlist>
 <playlist id="playlist21"/>
 <tractor id="tractor10" in="00:00:00.000" out="00:02:08.000">
  <property name="kdenlive:trackheight">67</property>
  <property name="kdenlive:timeline_active">1</property>
  <property name="kdenlive:collapsed">28</property>
  <track producer="playlist20"/>
  <track producer="playlist21"/>
 </tractor>
 <playlist id="playlist22">
  <blank length="00:02:06.800"/>
  <entry producer="producer28" in="00:00:00.000" out="00:00:01.467">
   <property name="kdenlive:id">36</property>
   <filter id="filter75">
    <property name="rotate_center">1</property>
    <property name="mlt_service">qtblend</property>
    <property name="kdenlive_id">qtblend</property>
    <property name="rect">00:00:00.000=1204 824 179 101 1.000000;00:00:01.467=1154 31 179 101 1.000000</property>
    <property name="rotation">00:00:00.000=0;00:00:01.467=0</property>
    <property name="compositing">0</property>
    <property name="distort">0</property>
    <property name="kdenlive:collapsed">0</property>
   </filter>
   <filter id="filter76" out="00:00:00.100">
    <property name="start">1</property>
    <property name="level">1</property>
    <property name="mlt_service">brightness</property>
    <property name="kdenlive_id">fade_from_black</property>
    <property name="alpha">00:00:00.000=0;00:00:00.100=1</property>
    <property name="kdenlive:collapsed">0</property>
   </filter>
   <filter id="filter77" in="00:00:01.333" out="00:00:01.467">
    <property name="start">1</property>
    <property name="level">1</property>
    <property name="mlt_service">brightness</property>
    <property name="kdenlive_id">fade_to_black</property>
    <property name="alpha">00:00:00.000=1;00:00:00.133=0</property>
    <property name="kdenlive:collapsed">0</property>
   </filter>
  </entry>
 </playlist>
 <playlist id="playlist23"/>
 <tractor id="tractor11" in="00:00:00.000" out="00:02:08.267">
  <property name="kdenlive:trackheight">67</property>
  <property name="kdenlive:timeline_active">1</property>
  <property name="kdenlive:collapsed">28</property>
  <track producer="playlist22"/>
  <track producer="playlist23"/>
 </tractor>
 <playlist id="playlist24">
  <blank length="00:02:07.067"/>
  <entry producer="producer28" in="00:00:00.000" out="00:00:01.467">
   <property name="kdenlive:id">36</property>
   <filter id="filter78">
    <property name="rotate_center">1</property>
    <property name="mlt_service">qtblend</property>
    <property name="kdenlive_id">qtblend</property>
    <property name="rect">00:00:00.000=1204 824 179 101 1.000000;00:00:01.467=1154 31 179 101 1.000000</property>
    <property name="rotation">00:00:00.000=0;00:00:01.467=0</property>
    <property name="compositing">0</property>
    <property name="distort">0</property>
   </filter>
   <filter id="filter79" out="00:00:00.100">
    <property name="start">1</property>
    <property name="level">1</property>
    <property name="mlt_service">brightness</property>
    <property name="kdenlive_id">fade_from_black</property>
    <property name="alpha">00:00:00.000=0;00:00:00.100=1</property>
   </filter>
   <filter id="filter80" in="00:00:01.333" out="00:00:01.467">
    <property name="start">1</property>
    <property name="level">1</property>
    <property name="mlt_service">brightness</property>
    <property name="kdenlive_id">fade_to_black</property>
    <property name="alpha">00:00:00.000=1;00:00:00.133=0</property>
   </filter>
  </entry>
 </playlist>
 <playlist id="playlist25"/>
 <tractor id="tractor12" in="00:00:00.000" out="00:02:08.533">
  <property name="kdenlive:trackheight">67</property>
  <property name="kdenlive:timeline_active">1</property>
  <property name="kdenlive:collapsed">28</property>
  <track producer="playlist24"/>
  <track producer="playlist25"/>
 </tractor>
 <playlist id="playlist26">
  <blank length="00:02:07.367"/>
  <entry producer="producer28" in="00:00:00.000" out="00:00:01.467">
   <property name="kdenlive:id">36</property>
   <filter id="filter81">
    <property name="rotate_center">1</property>
    <property name="mlt_service">qtblend</property>
    <property name="kdenlive_id">qtblend</property>
    <property name="rect">00:00:00.000=1204 824 179 101 1.000000;00:00:01.467=1154 31 179 101 1.000000</property>
    <property name="rotation">00:00:00.000=0;00:00:01.467=0</property>
    <property name="compositing">0</property>
    <property name="distort">0</property>
   </filter>
   <filter id="filter82" out="00:00:00.100">
    <property name="start">1</property>
    <property name="level">1</property>
    <property name="mlt_service">brightness</property>
    <property name="kdenlive_id">fade_from_black</property>
    <property name="alpha">00:00:00.000=0;00:00:00.100=1</property>
   </filter>
   <filter id="filter83" in="00:00:01.333" out="00:00:01.467">
    <property name="start">1</property>
    <property name="level">1</property>
    <property name="mlt_service">brightness</property>
    <property name="kdenlive_id">fade_to_black</property>
    <property name="alpha">00:00:00.000=1;00:00:00.133=0</property>
   </filter>
  </entry>
 </playlist>
 <playlist id="playlist27"/>
 <tractor id="tractor13" in="00:00:00.000" out="00:02:08.833">
  <property name="kdenlive:trackheight">67</property>
  <property name="kdenlive:timeline_active">1</property>
  <property name="kdenlive:collapsed">28</property>
  <track producer="playlist26"/>
  <track producer="playlist27"/>
 </tractor>
 <playlist id="playlist28">
  <blank length="00:02:07.633"/>
  <entry producer="producer28" in="00:00:00.000" out="00:00:01.467">
   <property name="kdenlive:id">36</property>
   <filter id="filter84">
    <property name="rotate_center">1</property>
    <property name="mlt_service">qtblend</property>
    <property name="kdenlive_id">qtblend</property>
    <property name="rect">00:00:00.000=1204 824 179 101 1.000000;00:00:01.467=1154 31 179 101 1.000000</property>
    <property name="rotation">00:00:00.000=0;00:00:01.467=0</property>
    <property name="compositing">0</property>
    <property name="distort">0</property>
   </filter>
   <filter id="filter85" out="00:00:00.100">
    <property name="start">1</property>
    <property name="level">1</property>
    <property name="mlt_service">brightness</property>
    <property name="kdenlive_id">fade_from_black</property>
    <property name="alpha">00:00:00.000=0;00:00:00.100=1</property>
   </filter>
   <filter id="filter86" in="00:00:01.333" out="00:00:01.467">
    <property name="start">1</property>
    <property name="level">1</property>
    <property name="mlt_service">brightness</property>
    <property name="kdenlive_id">fade_to_black</property>
    <property name="alpha">00:00:00.000=1;00:00:00.133=0</property>
   </filter>
  </entry>
 </playlist>
 <playlist id="playlist29"/>
 <tractor id="tractor14" in="00:00:00.000" out="00:02:09.100">
  <property name="kdenlive:trackheight">67</property>
  <property name="kdenlive:timeline_active">1</property>
  <property name="kdenlive:collapsed">28</property>
  <track producer="playlist28"/>
  <track producer="playlist29"/>
 </tractor>
 <tractor id="tractor15" in="00:00:00.000" out="00:21:27.767">
  <track producer="black_track"/>
  <track producer="tractor0"/>
  <track producer="tractor1"/>
  <track producer="tractor2"/>
  <track producer="tractor3"/>
  <track producer="tractor4"/>
  <track producer="tractor5"/>
  <track producer="tractor6"/>
  <track producer="tractor7"/>
  <track producer="tractor8"/>
  <track producer="tractor9"/>
  <track producer="tractor10"/>
  <track producer="tractor11"/>
  <track producer="tractor12"/>
  <track producer="tractor13"/>
  <track producer="tractor14"/>
  <transition id="transition0">
   <property name="a_track">0</property>
   <property name="b_track">1</property>
   <property name="mlt_service">mix</property>
   <property name="kdenlive_id">mix</property>
   <property name="internal_added">237</property>
   <property name="always_active">1</property>
   <property name="accepts_blanks">1</property>
   <property name="sum">1</property>
  </transition>
  <transition id="transition1">
   <property name="a_track">0</property>
   <property name="b_track">2</property>
   <property name="mlt_service">mix</property>
   <property name="kdenlive_id">mix</property>
   <property name="internal_added">237</property>
   <property name="always_active">1</property>
   <property name="accepts_blanks">1</property>
   <property name="sum">1</property>
  </transition>
  <transition id="transition2" in="00:00:26.200" out="00:00:26.667">
   <property name="a_track">4</property>
   <property name="b_track">5</property>
   <property name="geometry">00:00:00.000=0% 0% 100% 100% 0%;00:00:00.467=0% 0% 100% 100% 100%</property>
   <property name="factory">loader</property>
   <property name="aligned">0</property>
   <property name="progressive">1</property>
   <property name="mlt_service">composite</property>
   <property name="kdenlive_id">wipe</property>
   <property name="luma"/>
   <property name="softness">0</property>
   <property name="luma_invert">0</property>
   <property name="fill">1</property>
  </transition>
  <transition id="transition3" in="00:00:22.867" out="00:00:23.500">
   <property name="a_track">4</property>
   <property name="b_track">5</property>
   <property name="geometry">00:00:00.000=0% 0% 100% 100% 100%;00:00:00.633=0% 0% 100% 100% 0%</property>
   <property name="factory">loader</property>
   <property name="aligned">0</property>
   <property name="progressive">1</property>
   <property name="mlt_service">composite</property>
   <property name="kdenlive_id">wipe</property>
   <property name="luma"/>
   <property name="softness">0</property>
   <property name="luma_invert">0</property>
   <property name="fill">1</property>
  </transition>
  <transition id="transition4" in="00:00:27.600" out="00:00:27.867">
   <property name="a_track">4</property>
   <property name="b_track">5</property>
   <property name="geometry">00:00:00.000=0% 0% 100% 100% 100%;00:00:00.267=0% 0% 100% 100% 0%</property>
   <property name="factory">loader</property>
   <property name="aligned">0</property>
   <property name="progressive">1</property>
   <property name="mlt_service">composite</property>
   <property name="kdenlive_id">wipe</property>
   <property name="luma"/>
   <property name="softness">0</property>
   <property name="luma_invert">0</property>
   <property name="fill">1</property>
  </transition>
  <transition id="transition5" in="00:00:31.567" out="00:00:31.900">
   <property name="a_track">4</property>
   <property name="b_track">5</property>
   <property name="geometry">00:00:00.000=0% 0% 100% 100% 100%;00:00:00.333=0% 0% 100% 100% 0%</property>
   <property name="factory">loader</property>
   <property name="aligned">0</property>
   <property name="progressive">1</property>
   <property name="mlt_service">composite</property>
   <property name="kdenlive_id">wipe</property>
   <property name="luma"/>
   <property name="softness">0</property>
   <property name="luma_invert">0</property>
   <property name="fill">1</property>
  </transition>
  <transition id="transition6" in="00:04:00.433" out="00:04:00.800">
   <property name="a_track">3</property>
   <property name="b_track">4</property>
   <property name="geometry">00:00:00.000=0% 0% 100% 100% 0%;00:00:00.367=0% 0% 100% 100% 100%</property>
   <property name="factory">loader</property>
   <property name="aligned">0</property>
   <property name="progressive">1</property>
   <property name="mlt_service">composite</property>
   <property name="kdenlive_id">wipe</property>
   <property name="luma"/>
   <property name="softness">0</property>
   <property name="luma_invert">0</property>
   <property name="fill">1</property>
  </transition>
  <transition id="transition7" in="00:00:07.667" out="00:00:08.033">
   <property name="a_track">3</property>
   <property name="b_track">4</property>
   <property name="geometry">0=0% 0% 100% 100% 0%;-1=0% 0% 100% 100% 100%</property>
   <property name="factory">loader</property>
   <property name="aligned">0</property>
   <property name="progressive">1</property>
   <property name="mlt_service">composite</property>
   <property name="kdenlive_id">wipe</property>
   <property name="luma"/>
   <property name="softness">0</property>
   <property name="luma_invert">0</property>
   <property name="fill">1</property>
  </transition>
  <transition id="transition8" in="00:00:12.767" out="00:00:13.100">
   <property name="a_track">3</property>
   <property name="b_track">4</property>
   <property name="geometry">0=0% 0% 100% 100% 100%;-1=0% 0% 100% 100% 0%</property>
   <property name="factory">loader</property>
   <property name="aligned">0</property>
   <property name="progressive">1</property>
   <property name="mlt_service">composite</property>
   <property name="kdenlive_id">wipe</property>
   <property name="luma"/>
   <property name="softness">0</property>
   <property name="luma_invert">0</property>
   <property name="fill">1</property>
  </transition>
  <transition id="transition9" in="00:02:21.133" out="00:02:21.567">
   <property name="a_track">3</property>
   <property name="b_track">4</property>
   <property name="geometry">00:00:00.000=0% 0% 100% 100% 0%;00:00:00.433=0% 0% 100% 100% 100%</property>
   <property name="factory">loader</property>
   <property name="aligned">0</property>
   <property name="progressive">1</property>
   <property name="mlt_service">composite</property>
   <property name="kdenlive_id">wipe</property>
   <property name="luma"/>
   <property name="softness">0</property>
   <property name="luma_invert">0</property>
   <property name="fill">1</property>
  </transition>
  <transition id="transition10" in="00:01:25.200" out="00:01:25.400">
   <property name="a_track">3</property>
   <property name="b_track">4</property>
   <property name="geometry">00:00:00.000=0% 0% 100% 100% 100%;00:00:00.200=0% 0% 100% 100% 0%</property>
   <property name="factory">loader</property>
   <property name="aligned">0</property>
   <property name="progressive">1</property>
   <property name="mlt_service">composite</property>
   <property name="kdenlive_id">wipe</property>
   <property name="luma"/>
   <property name="softness">0</property>
   <property name="luma_invert">0</property>
   <property name="fill">1</property>
  </transition>
  <transition id="transition11" in="00:01:16.667" out="00:01:17.300">
   <property name="a_track">3</property>
   <property name="b_track">4</property>
   <property name="geometry">00:00:00.000=0% 0% 100% 100% 0%;00:00:00.633=0% 0% 100% 100% 100%</property>
   <property name="factory">loader</property>
   <property name="aligned">0</property>
   <property name="progressive">1</property>
   <property name="mlt_service">composite</property>
   <property name="kdenlive_id">wipe</property>
   <property name="luma"/>
   <property name="softness">0</property>
   <property name="luma_invert">0</property>
   <property name="fill">1</property>
  </transition>
  <transition id="transition12" in="00:03:47.733" out="00:03:48.133">
   <property name="a_track">3</property>
   <property name="b_track">4</property>
   <property name="geometry">00:00:00.000=0% 0% 100% 100% 100%;00:00:00.400=0% 0% 100% 100% 0%</property>
   <property name="factory">loader</property>
   <property name="aligned">0</property>
   <property name="progressive">1</property>
   <property name="mlt_service">composite</property>
   <property name="kdenlive_id">wipe</property>
   <property name="luma"/>
   <property name="softness">0</property>
   <property name="luma_invert">0</property>
   <property name="fill">1</property>
  </transition>
  <transition id="transition13" in="00:01:45.333" out="00:01:46.267">
   <property name="a_track">3</property>
   <property name="b_track">4</property>
   <property name="geometry">00:00:00.000=0% 0% 100% 100% 0%;00:00:00.933=0% 0% 100% 100% 100%</property>
   <property name="factory">loader</property>
   <property name="aligned">0</property>
   <property name="progressive">1</property>
   <property name="mlt_service">composite</property>
   <property name="kdenlive_id">wipe</property>
   <property name="luma"/>
   <property name="softness">0</property>
   <property name="luma_invert">0</property>
   <property name="fill">1</property>
  </transition>
  <transition id="transition14" in="00:03:18.433" out="00:03:19.033">
   <property name="a_track">3</property>
   <property name="b_track">4</property>
   <property name="geometry">00:00:00.000=0% 0% 100% 100% 0%;00:00:00.600=0% 0% 100% 100% 100%</property>
   <property name="factory">loader</property>
   <property name="aligned">0</property>
   <property name="progressive">1</property>
   <property name="mlt_service">composite</property>
   <property name="kdenlive_id">wipe</property>
   <property name="luma"/>
   <property name="softness">0</property>
   <property name="luma_invert">0</property>
   <property name="fill">1</property>
  </transition>
  <transition id="transition15" in="00:00:18.900" out="00:00:19.300">
   <property name="a_track">3</property>
   <property name="b_track">4</property>
   <property name="geometry">0=0% 0% 100% 100% 0%;-1=0% 0% 100% 100% 100%</property>
   <property name="factory">loader</property>
   <property name="aligned">0</property>
   <property name="progressive">1</property>
   <property name="mlt_service">composite</property>
   <property name="kdenlive_id">wipe</property>
   <property name="luma"/>
   <property name="softness">0</property>
   <property name="luma_invert">0</property>
   <property name="fill">1</property>
  </transition>
  <transition id="transition16" in="00:03:44.033" out="00:03:44.800">
   <property name="a_track">3</property>
   <property name="b_track">4</property>
   <property name="geometry">00:00:00.000=0% 0% 100% 100% 0%;00:00:00.767=0% 0% 100% 100% 100%</property>
   <property name="factory">loader</property>
   <property name="aligned">0</property>
   <property name="progressive">1</property>
   <property name="mlt_service">composite</property>
   <property name="kdenlive_id">wipe</property>
   <property name="luma"/>
   <property name="softness">0</property>
   <property name="luma_invert">0</property>
   <property name="fill">1</property>
  </transition>
  <transition id="transition17">
   <property name="a_track">0</property>
   <property name="b_track">3</property>
   <property name="version">0.1</property>
   <property name="mlt_service">frei0r.cairoblend</property>
   <property name="kdenlive_id">frei0r.cairoblend</property>
   <property name="internal_added">237</property>
   <property name="always_active">1</property>
  </transition>
  <transition id="transition18">
   <property name="a_track">0</property>
   <property name="b_track">4</property>
   <property name="version">0.1</property>
   <property name="mlt_service">frei0r.cairoblend</property>
   <property name="kdenlive_id">frei0r.cairoblend</property>
   <property name="internal_added">237</property>
   <property name="always_active">1</property>
  </transition>
  <transition id="transition19">
   <property name="a_track">0</property>
   <property name="b_track">5</property>
   <property name="version">0.1</property>
   <property name="mlt_service">frei0r.cairoblend</property>
   <property name="kdenlive_id">frei0r.cairoblend</property>
   <property name="internal_added">237</property>
   <property name="always_active">1</property>
  </transition>
  <transition id="transition20">
   <property name="a_track">0</property>
   <property name="b_track">6</property>
   <property name="version">0.1</property>
   <property name="mlt_service">frei0r.cairoblend</property>
   <property name="kdenlive_id">frei0r.cairoblend</property>
   <property name="internal_added">237</property>
   <property name="always_active">1</property>
  </transition>
  <transition id="transition21">
   <property name="a_track">0</property>
   <property name="b_track">7</property>
   <property name="version">0.1</property>
   <property name="mlt_service">frei0r.cairoblend</property>
   <property name="kdenlive_id">frei0r.cairoblend</property>
   <property name="internal_added">237</property>
   <property name="always_active">1</property>
  </transition>
  <transition id="transition22">
   <property name="a_track">0</property>
   <property name="b_track">8</property>
   <property name="version">0.1</property>
   <property name="mlt_service">frei0r.cairoblend</property>
   <property name="kdenlive_id">frei0r.cairoblend</property>
   <property name="internal_added">237</property>
   <property name="always_active">1</property>
  </transition>
  <transition id="transition23">
   <property name="a_track">0</property>
   <property name="b_track">9</property>
   <property name="version">0.1</property>
   <property name="mlt_service">frei0r.cairoblend</property>
   <property name="kdenlive_id">frei0r.cairoblend</property>
   <property name="internal_added">237</property>
   <property name="always_active">1</property>
  </transition>
  <transition id="transition24">
   <property name="a_track">0</property>
   <property name="b_track">10</property>
   <property name="version">0.1</property>
   <property name="mlt_service">frei0r.cairoblend</property>
   <property name="kdenlive_id">frei0r.cairoblend</property>
   <property name="internal_added">237</property>
   <property name="always_active">1</property>
  </transition>
  <transition id="transition25">
   <property name="a_track">0</property>
   <property name="b_track">11</property>
   <property name="version">0.1</property>
   <property name="mlt_service">frei0r.cairoblend</property>
   <property name="kdenlive_id">frei0r.cairoblend</property>
   <property name="internal_added">237</property>
   <property name="always_active">1</property>
  </transition>
  <transition id="transition26">
   <property name="a_track">0</property>
   <property name="b_track">12</property>
   <property name="version">0.1</property>
   <property name="mlt_service">frei0r.cairoblend</property>
   <property name="kdenlive_id">frei0r.cairoblend</property>
   <property name="internal_added">237</property>
   <property name="always_active">1</property>
  </transition>
  <transition id="transition27">
   <property name="a_track">0</property>
   <property name="b_track">13</property>
   <property name="version">0.1</property>
   <property name="mlt_service">frei0r.cairoblend</property>
   <property name="kdenlive_id">frei0r.cairoblend</property>
   <property name="internal_added">237</property>
   <property name="always_active">1</property>
  </transition>
  <transition id="transition28">
   <property name="a_track">0</property>
   <property name="b_track">14</property>
   <property name="version">0.1</property>
   <property name="mlt_service">frei0r.cairoblend</property>
   <property name="kdenlive_id">frei0r.cairoblend</property>
   <property name="internal_added">237</property>
   <property name="always_active">1</property>
  </transition>
  <transition id="transition29">
   <property name="a_track">0</property>
   <property name="b_track">15</property>
   <property name="version">0.1</property>
   <property name="mlt_service">frei0r.cairoblend</property>
   <property name="kdenlive_id">frei0r.cairoblend</property>
   <property name="internal_added">237</property>
   <property name="always_active">1</property>
  </transition>
  <filter id="filter87">
   <property name="window">75</property>
   <property name="max_gain">20dB</property>
   <property name="mlt_service">volume</property>
   <property name="internal_added">237</property>
   <property name="disable">1</property>
  </filter>
  <filter id="filter88">
   <property name="channel">-1</property>
   <property name="mlt_service">panner</property>
   <property name="internal_added">237</property>
   <property name="start">0.5</property>
   <property name="disable">1</property>
  </filter>
  <filter id="filter89">
   <property name="iec_scale">0</property>
   <property name="mlt_service">audiolevel</property>
   <property name="peak">1</property>
   <property name="disable">1</property>
  </filter>
 </tractor>
</mlt>
